{
    "header": {
      "keySignatures": [],
      "meta": [],
      "name": "",
      "ppq": 384,
      "tempos": [
        {
          "bpm": 70.00007000007,
          "ticks": 0
        }
      ],
      "timeSignatures": [
        {
          "ticks": 0,
          "timeSignature": [
            1,
            4
          ],
          "measures": 0
        }
      ]
    },
    "tracks": [
      {
        "channel": 0,
        "controlChanges": {},
        "pitchBends": [],
        "instrument": {
          "family": "piano",
          "number": 6,
          "name": "harpsichord"
        },
        "name": "Harpsichord",
        "notes": [
          {
            "duration": 1.7142840000000001,
            "durationTicks": 768,
            "midi": 46,
            "name": "A#2",
            "ticks": 0,
            "time": 0,
            "velocity": 0.3937007874015748
          },
          {
            "duration": 1.7142840000000001,
            "durationTicks": 768,
            "midi": 42,
            "name": "F#2",
            "ticks": 0,
            "time": 0,
            "velocity": 0.3937007874015748
          },
          {
            "duration": 1.7142840000000001,
            "durationTicks": 768,
            "midi": 39,
            "name": "D#2",
            "ticks": 0,
            "time": 0,
            "velocity": 0.3937007874015748
          },
          {
            "duration": 0.42857100000000004,
            "durationTicks": 192,
            "midi": 70,
            "name": "A#4",
            "ticks": 0,
            "time": 0,
            "velocity": 0.3937007874015748
          },
          {
            "duration": 0.42857100000000004,
            "durationTicks": 192,
            "midi": 68,
            "name": "G#4",
            "ticks": 192,
            "time": 0.42857100000000004,
            "velocity": 0.3937007874015748
          },
          {
            "duration": 0.42857100000000004,
            "durationTicks": 192,
            "midi": 65,
            "name": "F4",
            "ticks": 384,
            "time": 0.8571420000000001,
            "velocity": 0.3937007874015748
          },
          {
            "duration": 0.21428550000000013,
            "durationTicks": 96,
            "midi": 68,
            "name": "G#4",
            "ticks": 576,
            "time": 1.285713,
            "velocity": 0.3937007874015748
          },
          {
            "duration": 0.4285709999999998,
            "durationTicks": 192,
            "midi": 65,
            "name": "F4",
            "ticks": 672,
            "time": 1.4999985000000002,
            "velocity": 0.3937007874015748
          },
          {
            "duration": 1.7142840000000001,
            "durationTicks": 768,
            "midi": 46,
            "name": "A#2",
            "ticks": 768,
            "time": 1.7142840000000001,
            "velocity": 0.3937007874015748
          },
          {
            "duration": 1.7142840000000001,
            "durationTicks": 768,
            "midi": 42,
            "name": "F#2",
            "ticks": 768,
            "time": 1.7142840000000001,
            "velocity": 0.3937007874015748
          },
          {
            "duration": 1.7142840000000001,
            "durationTicks": 768,
            "midi": 39,
            "name": "D#2",
            "ticks": 768,
            "time": 1.7142840000000001,
            "velocity": 0.3937007874015748
          },
          {
            "duration": 0.2142854999999999,
            "durationTicks": 96,
            "midi": 63,
            "name": "D#4",
            "ticks": 1152,
            "time": 2.571426,
            "velocity": 0.3937007874015748
          },
          {
            "duration": 0.21428550000000035,
            "durationTicks": 96,
            "midi": 61,
            "name": "C#4",
            "ticks": 1248,
            "time": 2.7857115,
            "velocity": 0.3937007874015748
          },
          {
            "duration": 0.4285709999999998,
            "durationTicks": 192,
            "midi": 66,
            "name": "F#4",
            "ticks": 1440,
            "time": 3.2142825000000004,
            "velocity": 0.3937007874015748
          },
          {
            "duration": 1.7142840000000001,
            "durationTicks": 768,
            "midi": 44,
            "name": "G#2",
            "ticks": 1536,
            "time": 3.4285680000000003,
            "velocity": 0.3937007874015748
          },
          {
            "duration": 1.7142840000000001,
            "durationTicks": 768,
            "midi": 48,
            "name": "C3",
            "ticks": 1536,
            "time": 3.4285680000000003,
            "velocity": 0.3937007874015748
          },
          {
            "duration": 1.7142840000000001,
            "durationTicks": 768,
            "midi": 39,
            "name": "D#2",
            "ticks": 1536,
            "time": 3.4285680000000003,
            "velocity": 0.3937007874015748
          },
          {
            "duration": 0.4285709999999998,
            "durationTicks": 192,
            "midi": 65,
            "name": "F4",
            "ticks": 1632,
            "time": 3.6428535,
            "velocity": 0.3937007874015748
          },
          {
            "duration": 0.4285710000000007,
            "durationTicks": 192,
            "midi": 63,
            "name": "D#4",
            "ticks": 1824,
            "time": 4.0714245,
            "velocity": 0.3937007874015748
          },
          {
            "duration": 0.4285709999999998,
            "durationTicks": 192,
            "midi": 61,
            "name": "C#4",
            "ticks": 2016,
            "time": 4.499995500000001,
            "velocity": 0.3937007874015748
          },
          {
            "duration": 0.4285709999999998,
            "durationTicks": 192,
            "midi": 66,
            "name": "F#4",
            "ticks": 2208,
            "time": 4.9285665000000005,
            "velocity": 0.3937007874015748
          },
          {
            "duration": 1.7142840000000001,
            "durationTicks": 768,
            "midi": 48,
            "name": "C3",
            "ticks": 2304,
            "time": 5.142852,
            "velocity": 0.3937007874015748
          },
          {
            "duration": 1.7142840000000001,
            "durationTicks": 768,
            "midi": 39,
            "name": "D#2",
            "ticks": 2304,
            "time": 5.142852,
            "velocity": 0.3937007874015748
          },
          {
            "duration": 1.7142840000000001,
            "durationTicks": 768,
            "midi": 44,
            "name": "G#2",
            "ticks": 2304,
            "time": 5.142852,
            "velocity": 0.3937007874015748
          },
          {
            "duration": 0.4285709999999998,
            "durationTicks": 192,
            "midi": 65,
            "name": "F4",
            "ticks": 2400,
            "time": 5.3571375,
            "velocity": 0.3937007874015748
          },
          {
            "duration": 0.4285710000000007,
            "durationTicks": 192,
            "midi": 63,
            "name": "D#4",
            "ticks": 2592,
            "time": 5.7857085,
            "velocity": 0.3937007874015748
          },
          {
            "duration": 0.4285709999999998,
            "durationTicks": 192,
            "midi": 61,
            "name": "C#4",
            "ticks": 2784,
            "time": 6.214279500000001,
            "velocity": 0.3937007874015748
          },
          {
            "duration": 0.4285709999999998,
            "durationTicks": 192,
            "midi": 70,
            "name": "A#4",
            "ticks": 3072,
            "time": 6.857136000000001,
            "velocity": 0.3937007874015748
          },
          {
            "duration": 1.7142839999999993,
            "durationTicks": 768,
            "midi": 46,
            "name": "A#2",
            "ticks": 3072,
            "time": 6.857136000000001,
            "velocity": 0.3937007874015748
          },
          {
            "duration": 1.7142839999999993,
            "durationTicks": 768,
            "midi": 39,
            "name": "D#2",
            "ticks": 3072,
            "time": 6.857136000000001,
            "velocity": 0.3937007874015748
          },
          {
            "duration": 1.7142839999999993,
            "durationTicks": 768,
            "midi": 42,
            "name": "F#2",
            "ticks": 3072,
            "time": 6.857136000000001,
            "velocity": 0.3937007874015748
          },
          {
            "duration": 0.4285709999999998,
            "durationTicks": 192,
            "midi": 68,
            "name": "G#4",
            "ticks": 3264,
            "time": 7.285707,
            "velocity": 0.3937007874015748
          },
          {
            "duration": 0.4285709999999998,
            "durationTicks": 192,
            "midi": 65,
            "name": "F4",
            "ticks": 3456,
            "time": 7.714278,
            "velocity": 0.3937007874015748
          },
          {
            "duration": 0.2142855000000008,
            "durationTicks": 96,
            "midi": 68,
            "name": "G#4",
            "ticks": 3648,
            "time": 8.142849,
            "velocity": 0.3937007874015748
          },
          {
            "duration": 0.4285709999999998,
            "durationTicks": 192,
            "midi": 65,
            "name": "F4",
            "ticks": 3744,
            "time": 8.3571345,
            "velocity": 0.3937007874015748
          },
          {
            "duration": 1.714284000000001,
            "durationTicks": 768,
            "midi": 46,
            "name": "A#2",
            "ticks": 3840,
            "time": 8.57142,
            "velocity": 0.3937007874015748
          },
          {
            "duration": 1.714284000000001,
            "durationTicks": 768,
            "midi": 42,
            "name": "F#2",
            "ticks": 3840,
            "time": 8.57142,
            "velocity": 0.3937007874015748
          },
          {
            "duration": 1.714284000000001,
            "durationTicks": 768,
            "midi": 39,
            "name": "D#2",
            "ticks": 3840,
            "time": 8.57142,
            "velocity": 0.3937007874015748
          },
          {
            "duration": 0.21428549999999902,
            "durationTicks": 96,
            "midi": 63,
            "name": "D#4",
            "ticks": 4224,
            "time": 9.428562000000001,
            "velocity": 0.3937007874015748
          },
          {
            "duration": 0.2142855000000008,
            "durationTicks": 96,
            "midi": 61,
            "name": "C#4",
            "ticks": 4320,
            "time": 9.6428475,
            "velocity": 0.3937007874015748
          },
          {
            "duration": 0.4285710000000016,
            "durationTicks": 192,
            "midi": 66,
            "name": "F#4",
            "ticks": 4512,
            "time": 10.0714185,
            "velocity": 0.3937007874015748
          },
          {
            "duration": 1.714284000000001,
            "durationTicks": 768,
            "midi": 44,
            "name": "G#2",
            "ticks": 4608,
            "time": 10.285704,
            "velocity": 0.3937007874015748
          },
          {
            "duration": 1.714284000000001,
            "durationTicks": 768,
            "midi": 48,
            "name": "C3",
            "ticks": 4608,
            "time": 10.285704,
            "velocity": 0.3937007874015748
          },
          {
            "duration": 1.714284000000001,
            "durationTicks": 768,
            "midi": 39,
            "name": "D#2",
            "ticks": 4608,
            "time": 10.285704,
            "velocity": 0.3937007874015748
          },
          {
            "duration": 0.4285709999999998,
            "durationTicks": 192,
            "midi": 65,
            "name": "F4",
            "ticks": 4704,
            "time": 10.499989500000002,
            "velocity": 0.3937007874015748
          },
          {
            "duration": 0.4285709999999998,
            "durationTicks": 192,
            "midi": 63,
            "name": "D#4",
            "ticks": 4896,
            "time": 10.928560500000001,
            "velocity": 0.3937007874015748
          },
          {
            "duration": 0.4285709999999998,
            "durationTicks": 192,
            "midi": 61,
            "name": "C#4",
            "ticks": 5088,
            "time": 11.357131500000001,
            "velocity": 0.3937007874015748
          },
          {
            "duration": 0.2142855000000008,
            "durationTicks": 96,
            "midi": 61,
            "name": "C#4",
            "ticks": 5280,
            "time": 11.785702500000001,
            "velocity": 0.3937007874015748
          },
          {
            "duration": 1.7142839999999993,
            "durationTicks": 768,
            "midi": 48,
            "name": "C3",
            "ticks": 5376,
            "time": 11.999988000000002,
            "velocity": 0.3937007874015748
          },
          {
            "duration": 0.4285709999999998,
            "durationTicks": 192,
            "midi": 66,
            "name": "F#4",
            "ticks": 5376,
            "time": 11.999988000000002,
            "velocity": 0.3937007874015748
          },
          {
            "duration": 1.7142839999999993,
            "durationTicks": 768,
            "midi": 44,
            "name": "G#2",
            "ticks": 5376,
            "time": 11.999988000000002,
            "velocity": 0.3937007874015748
          },
          {
            "duration": 1.7142839999999993,
            "durationTicks": 768,
            "midi": 39,
            "name": "D#2",
            "ticks": 5376,
            "time": 11.999988000000002,
            "velocity": 0.3937007874015748
          },
          {
            "duration": 0.4285709999999998,
            "durationTicks": 192,
            "midi": 65,
            "name": "F4",
            "ticks": 5568,
            "time": 12.428559000000002,
            "velocity": 0.3937007874015748
          },
          {
            "duration": 0.4285709999999998,
            "durationTicks": 192,
            "midi": 63,
            "name": "D#4",
            "ticks": 5760,
            "time": 12.857130000000002,
            "velocity": 0.3937007874015748
          },
          {
            "duration": 0.4285709999999998,
            "durationTicks": 192,
            "midi": 61,
            "name": "C#4",
            "ticks": 5952,
            "time": 13.285701000000001,
            "velocity": 0.3937007874015748
          },
          {
            "duration": 1.7142839999999993,
            "durationTicks": 768,
            "midi": 39,
            "name": "D#2",
            "ticks": 6144,
            "time": 13.714272000000001,
            "velocity": 0.3937007874015748
          },
          {
            "duration": 1.7142839999999993,
            "durationTicks": 768,
            "midi": 46,
            "name": "A#2",
            "ticks": 6144,
            "time": 13.714272000000001,
            "velocity": 0.3937007874015748
          },
          {
            "duration": 1.7142839999999993,
            "durationTicks": 768,
            "midi": 42,
            "name": "F#2",
            "ticks": 6144,
            "time": 13.714272000000001,
            "velocity": 0.3937007874015748
          },
          {
            "duration": 0.4285709999999998,
            "durationTicks": 192,
            "midi": 58,
            "name": "A#3",
            "ticks": 6144,
            "time": 13.714272000000001,
            "velocity": 0.3937007874015748
          },
          {
            "duration": 0.4285709999999998,
            "durationTicks": 192,
            "midi": 60,
            "name": "C4",
            "ticks": 6336,
            "time": 14.142843000000001,
            "velocity": 0.3937007874015748
          },
          {
            "duration": 0.4285709999999998,
            "durationTicks": 192,
            "midi": 61,
            "name": "C#4",
            "ticks": 6528,
            "time": 14.571414,
            "velocity": 0.3937007874015748
          },
          {
            "duration": 0.2142855000000008,
            "durationTicks": 96,
            "midi": 65,
            "name": "F4",
            "ticks": 6720,
            "time": 14.999985,
            "velocity": 0.3937007874015748
          },
          {
            "duration": 0.21428549999999902,
            "durationTicks": 96,
            "midi": 65,
            "name": "F4",
            "ticks": 6816,
            "time": 15.214270500000001,
            "velocity": 0.3937007874015748
          },
          {
            "duration": 1.7142839999999993,
            "durationTicks": 768,
            "midi": 42,
            "name": "F#2",
            "ticks": 6912,
            "time": 15.428556,
            "velocity": 0.3937007874015748
          },
          {
            "duration": 0.4285710000000016,
            "durationTicks": 192,
            "midi": 63,
            "name": "D#4",
            "ticks": 6912,
            "time": 15.428556,
            "velocity": 0.3937007874015748
          },
          {
            "duration": 1.7142839999999993,
            "durationTicks": 768,
            "midi": 46,
            "name": "A#2",
            "ticks": 6912,
            "time": 15.428556,
            "velocity": 0.3937007874015748
          },
          {
            "duration": 1.7142839999999993,
            "durationTicks": 768,
            "midi": 39,
            "name": "D#2",
            "ticks": 6912,
            "time": 15.428556,
            "velocity": 0.3937007874015748
          },
          {
            "duration": 0.21428549999999902,
            "durationTicks": 96,
            "midi": 61,
            "name": "C#4",
            "ticks": 7104,
            "time": 15.857127000000002,
            "velocity": 0.3937007874015748
          },
          {
            "duration": 0.4285710000000016,
            "durationTicks": 192,
            "midi": 63,
            "name": "D#4",
            "ticks": 7200,
            "time": 16.0714125,
            "velocity": 0.3937007874015748
          },
          {
            "duration": 0.21428549999999902,
            "durationTicks": 96,
            "midi": 61,
            "name": "C#4",
            "ticks": 7392,
            "time": 16.499983500000003,
            "velocity": 0.3937007874015748
          },
          {
            "duration": 0.21428549999999902,
            "durationTicks": 96,
            "midi": 61,
            "name": "C#4",
            "ticks": 7584,
            "time": 16.9285545,
            "velocity": 0.3937007874015748
          },
          {
            "duration": 1.7142840000000028,
            "durationTicks": 768,
            "midi": 39,
            "name": "D#2",
            "ticks": 7680,
            "time": 17.14284,
            "velocity": 0.3937007874015748
          },
          {
            "duration": 1.7142840000000028,
            "durationTicks": 768,
            "midi": 48,
            "name": "C3",
            "ticks": 7680,
            "time": 17.14284,
            "velocity": 0.3937007874015748
          },
          {
            "duration": 1.7142840000000028,
            "durationTicks": 768,
            "midi": 44,
            "name": "G#2",
            "ticks": 7680,
            "time": 17.14284,
            "velocity": 0.3937007874015748
          },
          {
            "duration": 0.4285710000000016,
            "durationTicks": 192,
            "midi": 58,
            "name": "A#3",
            "ticks": 7680,
            "time": 17.14284,
            "velocity": 0.3937007874015748
          },
          {
            "duration": 0.4285710000000016,
            "durationTicks": 192,
            "midi": 60,
            "name": "C4",
            "ticks": 7872,
            "time": 17.571411,
            "velocity": 0.3937007874015748
          },
          {
            "duration": 0.21428549999999902,
            "durationTicks": 96,
            "midi": 61,
            "name": "C#4",
            "ticks": 8064,
            "time": 17.999982000000003,
            "velocity": 0.3937007874015748
          },
          {
            "duration": 0.21428549999999902,
            "durationTicks": 96,
            "midi": 61,
            "name": "C#4",
            "ticks": 8160,
            "time": 18.214267500000002,
            "velocity": 0.3937007874015748
          },
          {
            "duration": 0.21428549999999902,
            "durationTicks": 96,
            "midi": 65,
            "name": "F4",
            "ticks": 8256,
            "time": 18.428553,
            "velocity": 0.3937007874015748
          },
          {
            "duration": 0.21428550000000257,
            "durationTicks": 96,
            "midi": 65,
            "name": "F4",
            "ticks": 8352,
            "time": 18.6428385,
            "velocity": 0.3937007874015748
          },
          {
            "duration": 1.7142839999999993,
            "durationTicks": 768,
            "midi": 48,
            "name": "C3",
            "ticks": 8448,
            "time": 18.857124000000002,
            "velocity": 0.3937007874015748
          },
          {
            "duration": 1.7142839999999993,
            "durationTicks": 768,
            "midi": 44,
            "name": "G#2",
            "ticks": 8448,
            "time": 18.857124000000002,
            "velocity": 0.3937007874015748
          },
          {
            "duration": 1.7142839999999993,
            "durationTicks": 768,
            "midi": 39,
            "name": "D#2",
            "ticks": 8448,
            "time": 18.857124000000002,
            "velocity": 0.3937007874015748
          },
          {
            "duration": 0.42857099999999804,
            "durationTicks": 192,
            "midi": 63,
            "name": "D#4",
            "ticks": 8448,
            "time": 18.857124000000002,
            "velocity": 0.3937007874015748
          },
          {
            "duration": 0.21428550000000257,
            "durationTicks": 96,
            "midi": 61,
            "name": "C#4",
            "ticks": 8640,
            "time": 19.285695,
            "velocity": 0.3937007874015748
          },
          {
            "duration": 0.42857099999999804,
            "durationTicks": 192,
            "midi": 63,
            "name": "D#4",
            "ticks": 8736,
            "time": 19.499980500000003,
            "velocity": 0.3937007874015748
          },
          {
            "duration": 0.4285710000000016,
            "durationTicks": 192,
            "midi": 61,
            "name": "C#4",
            "ticks": 8928,
            "time": 19.9285515,
            "velocity": 0.3937007874015748
          },
          {
            "duration": 0.21428549999999902,
            "durationTicks": 96,
            "midi": 58,
            "name": "A#3",
            "ticks": 9120,
            "time": 20.357122500000003,
            "velocity": 0.3937007874015748
          },
          {
            "duration": 1.7142839999999993,
            "durationTicks": 768,
            "midi": 42,
            "name": "F#2",
            "ticks": 9216,
            "time": 20.571408,
            "velocity": 0.3937007874015748
          },
          {
            "duration": 1.7142839999999993,
            "durationTicks": 768,
            "midi": 46,
            "name": "A#2",
            "ticks": 9216,
            "time": 20.571408,
            "velocity": 0.3937007874015748
          },
          {
            "duration": 1.7142839999999993,
            "durationTicks": 768,
            "midi": 39,
            "name": "D#2",
            "ticks": 9216,
            "time": 20.571408,
            "velocity": 0.3937007874015748
          },
          {
            "duration": 0.4285710000000016,
            "durationTicks": 192,
            "midi": 65,
            "name": "F4",
            "ticks": 9216,
            "time": 20.571408,
            "velocity": 0.3937007874015748
          },
          {
            "duration": 0.42857099999999804,
            "durationTicks": 192,
            "midi": 65,
            "name": "F4",
            "ticks": 9408,
            "time": 20.999979000000003,
            "velocity": 0.3937007874015748
          },
          {
            "duration": 0.4285710000000016,
            "durationTicks": 192,
            "midi": 63,
            "name": "D#4",
            "ticks": 9600,
            "time": 21.42855,
            "velocity": 0.3937007874015748
          },
          {
            "duration": 0.21428549999999902,
            "durationTicks": 96,
            "midi": 61,
            "name": "C#4",
            "ticks": 9792,
            "time": 21.857121000000003,
            "velocity": 0.3937007874015748
          },
          {
            "duration": 0.21428549999999902,
            "durationTicks": 96,
            "midi": 61,
            "name": "C#4",
            "ticks": 9888,
            "time": 22.071406500000002,
            "velocity": 0.3937007874015748
          },
          {
            "duration": 1.7142840000000028,
            "durationTicks": 768,
            "midi": 42,
            "name": "F#2",
            "ticks": 9984,
            "time": 22.285692,
            "velocity": 0.3937007874015748
          },
          {
            "duration": 0.4285710000000016,
            "durationTicks": 192,
            "midi": 65,
            "name": "F4",
            "ticks": 9984,
            "time": 22.285692,
            "velocity": 0.3937007874015748
          },
          {
            "duration": 1.7142840000000028,
            "durationTicks": 768,
            "midi": 39,
            "name": "D#2",
            "ticks": 9984,
            "time": 22.285692,
            "velocity": 0.3937007874015748
          },
          {
            "duration": 1.7142840000000028,
            "durationTicks": 768,
            "midi": 46,
            "name": "A#2",
            "ticks": 9984,
            "time": 22.285692,
            "velocity": 0.3937007874015748
          },
          {
            "duration": 0.42857099999999804,
            "durationTicks": 192,
            "midi": 65,
            "name": "F4",
            "ticks": 10176,
            "time": 22.714263000000003,
            "velocity": 0.3937007874015748
          },
          {
            "duration": 0.4285710000000016,
            "durationTicks": 192,
            "midi": 63,
            "name": "D#4",
            "ticks": 10368,
            "time": 23.142834,
            "velocity": 0.3937007874015748
          },
          {
            "duration": 0.21428549999999902,
            "durationTicks": 96,
            "midi": 61,
            "name": "C#4",
            "ticks": 10560,
            "time": 23.571405000000002,
            "velocity": 0.3937007874015748
          },
          {
            "duration": 0.21428550000000257,
            "durationTicks": 96,
            "midi": 61,
            "name": "C#4",
            "ticks": 10656,
            "time": 23.7856905,
            "velocity": 0.3937007874015748
          },
          {
            "duration": 1.7142839999999993,
            "durationTicks": 768,
            "midi": 44,
            "name": "G#2",
            "ticks": 10752,
            "time": 23.999976000000004,
            "velocity": 0.3937007874015748
          },
          {
            "duration": 1.7142839999999993,
            "durationTicks": 768,
            "midi": 39,
            "name": "D#2",
            "ticks": 10752,
            "time": 23.999976000000004,
            "velocity": 0.3937007874015748
          },
          {
            "duration": 1.7142839999999993,
            "durationTicks": 768,
            "midi": 48,
            "name": "C3",
            "ticks": 10752,
            "time": 23.999976000000004,
            "velocity": 0.3937007874015748
          },
          {
            "duration": 0.42857099999999804,
            "durationTicks": 192,
            "midi": 65,
            "name": "F4",
            "ticks": 10752,
            "time": 23.999976000000004,
            "velocity": 0.3937007874015748
          },
          {
            "duration": 0.4285710000000016,
            "durationTicks": 192,
            "midi": 65,
            "name": "F4",
            "ticks": 10944,
            "time": 24.428547000000002,
            "velocity": 0.3937007874015748
          },
          {
            "duration": 0.42857099999999804,
            "durationTicks": 192,
            "midi": 63,
            "name": "D#4",
            "ticks": 11136,
            "time": 24.857118000000003,
            "velocity": 0.3937007874015748
          },
          {
            "duration": 0.21428549999999902,
            "durationTicks": 96,
            "midi": 61,
            "name": "C#4",
            "ticks": 11328,
            "time": 25.285689,
            "velocity": 0.3937007874015748
          },
          {
            "duration": 0.21428550000000257,
            "durationTicks": 96,
            "midi": 61,
            "name": "C#4",
            "ticks": 11424,
            "time": 25.4999745,
            "velocity": 0.3937007874015748
          },
          {
            "duration": 1.7142839999999993,
            "durationTicks": 768,
            "midi": 39,
            "name": "D#2",
            "ticks": 11520,
            "time": 25.714260000000003,
            "velocity": 0.3937007874015748
          },
          {
            "duration": 1.7142839999999993,
            "durationTicks": 768,
            "midi": 44,
            "name": "G#2",
            "ticks": 11520,
            "time": 25.714260000000003,
            "velocity": 0.3937007874015748
          },
          {
            "duration": 0.42857099999999804,
            "durationTicks": 192,
            "midi": 65,
            "name": "F4",
            "ticks": 11520,
            "time": 25.714260000000003,
            "velocity": 0.3937007874015748
          },
          {
            "duration": 1.7142839999999993,
            "durationTicks": 768,
            "midi": 48,
            "name": "C3",
            "ticks": 11520,
            "time": 25.714260000000003,
            "velocity": 0.3937007874015748
          },
          {
            "duration": 0.4285710000000016,
            "durationTicks": 192,
            "midi": 65,
            "name": "F4",
            "ticks": 11712,
            "time": 26.142831,
            "velocity": 0.3937007874015748
          },
          {
            "duration": 0.42857099999999804,
            "durationTicks": 192,
            "midi": 63,
            "name": "D#4",
            "ticks": 11904,
            "time": 26.571402000000003,
            "velocity": 0.3937007874015748
          },
          {
            "duration": 0.21428550000000257,
            "durationTicks": 96,
            "midi": 61,
            "name": "C#4",
            "ticks": 12096,
            "time": 26.999973,
            "velocity": 0.3937007874015748
          },
          {
            "duration": 0.21428549999999902,
            "durationTicks": 96,
            "midi": 61,
            "name": "C#4",
            "ticks": 12192,
            "time": 27.214258500000003,
            "velocity": 0.3937007874015748
          },
          {
            "duration": 1.7142839999999993,
            "durationTicks": 768,
            "midi": 42,
            "name": "F#2",
            "ticks": 12288,
            "time": 27.428544000000002,
            "velocity": 0.3937007874015748
          },
          {
            "duration": 1.7142839999999993,
            "durationTicks": 768,
            "midi": 39,
            "name": "D#2",
            "ticks": 12288,
            "time": 27.428544000000002,
            "velocity": 0.3937007874015748
          },
          {
            "duration": 0.4285710000000016,
            "durationTicks": 192,
            "midi": 65,
            "name": "F4",
            "ticks": 12288,
            "time": 27.428544000000002,
            "velocity": 0.3937007874015748
          },
          {
            "duration": 1.7142839999999993,
            "durationTicks": 768,
            "midi": 46,
            "name": "A#2",
            "ticks": 12288,
            "time": 27.428544000000002,
            "velocity": 0.3937007874015748
          },
          {
            "duration": 0.42857099999999804,
            "durationTicks": 192,
            "midi": 65,
            "name": "F4",
            "ticks": 12480,
            "time": 27.857115000000004,
            "velocity": 0.3937007874015748
          },
          {
            "duration": 0.4285710000000016,
            "durationTicks": 192,
            "midi": 63,
            "name": "D#4",
            "ticks": 12672,
            "time": 28.285686000000002,
            "velocity": 0.3937007874015748
          },
          {
            "duration": 0.21428549999999902,
            "durationTicks": 96,
            "midi": 61,
            "name": "C#4",
            "ticks": 12864,
            "time": 28.714257000000003,
            "velocity": 0.3937007874015748
          },
          {
            "duration": 0.21428549999999902,
            "durationTicks": 96,
            "midi": 61,
            "name": "C#4",
            "ticks": 12960,
            "time": 28.928542500000002,
            "velocity": 0.3937007874015748
          },
          {
            "duration": 1.7142839999999993,
            "durationTicks": 768,
            "midi": 39,
            "name": "D#2",
            "ticks": 13056,
            "time": 29.142828,
            "velocity": 0.3937007874015748
          },
          {
            "duration": 1.7142839999999993,
            "durationTicks": 768,
            "midi": 42,
            "name": "F#2",
            "ticks": 13056,
            "time": 29.142828,
            "velocity": 0.3937007874015748
          },
          {
            "duration": 0.4285710000000016,
            "durationTicks": 192,
            "midi": 65,
            "name": "F4",
            "ticks": 13056,
            "time": 29.142828,
            "velocity": 0.3937007874015748
          },
          {
            "duration": 1.7142839999999993,
            "durationTicks": 768,
            "midi": 46,
            "name": "A#2",
            "ticks": 13056,
            "time": 29.142828,
            "velocity": 0.3937007874015748
          },
          {
            "duration": 0.42857099999999804,
            "durationTicks": 192,
            "midi": 65,
            "name": "F4",
            "ticks": 13248,
            "time": 29.571399000000003,
            "velocity": 0.3937007874015748
          },
          {
            "duration": 0.4285710000000016,
            "durationTicks": 192,
            "midi": 63,
            "name": "D#4",
            "ticks": 13440,
            "time": 29.99997,
            "velocity": 0.3937007874015748
          },
          {
            "duration": 0.21428549999999902,
            "durationTicks": 96,
            "midi": 61,
            "name": "C#4",
            "ticks": 13632,
            "time": 30.428541000000003,
            "velocity": 0.3937007874015748
          },
          {
            "duration": 0.21428549999999902,
            "durationTicks": 96,
            "midi": 61,
            "name": "C#4",
            "ticks": 13728,
            "time": 30.6428265,
            "velocity": 0.3937007874015748
          },
          {
            "duration": 0.4285710000000016,
            "durationTicks": 192,
            "midi": 65,
            "name": "F4",
            "ticks": 13824,
            "time": 30.857112,
            "velocity": 0.3937007874015748
          },
          {
            "duration": 1.7142839999999993,
            "durationTicks": 768,
            "midi": 39,
            "name": "D#2",
            "ticks": 13824,
            "time": 30.857112,
            "velocity": 0.3937007874015748
          },
          {
            "duration": 1.7142839999999993,
            "durationTicks": 768,
            "midi": 48,
            "name": "C3",
            "ticks": 13824,
            "time": 30.857112,
            "velocity": 0.3937007874015748
          },
          {
            "duration": 1.7142839999999993,
            "durationTicks": 768,
            "midi": 44,
            "name": "G#2",
            "ticks": 13824,
            "time": 30.857112,
            "velocity": 0.3937007874015748
          },
          {
            "duration": 0.4285710000000016,
            "durationTicks": 192,
            "midi": 65,
            "name": "F4",
            "ticks": 14016,
            "time": 31.285683000000002,
            "velocity": 0.3937007874015748
          },
          {
            "duration": 0.21428549999999902,
            "durationTicks": 96,
            "midi": 63,
            "name": "D#4",
            "ticks": 14208,
            "time": 31.714254000000004,
            "velocity": 0.3937007874015748
          },
          {
            "duration": 0.21428549999999902,
            "durationTicks": 96,
            "midi": 61,
            "name": "C#4",
            "ticks": 14304,
            "time": 31.928539500000003,
            "velocity": 0.3937007874015748
          },
          {
            "duration": 0.21428550000000257,
            "durationTicks": 96,
            "midi": 58,
            "name": "A#3",
            "ticks": 14400,
            "time": 32.142825,
            "velocity": 0.3937007874015748
          },
          {
            "duration": 0.21428549999999547,
            "durationTicks": 96,
            "midi": 61,
            "name": "C#4",
            "ticks": 14496,
            "time": 32.357110500000005,
            "velocity": 0.3937007874015748
          },
          {
            "duration": 1.7142839999999993,
            "durationTicks": 768,
            "midi": 44,
            "name": "G#2",
            "ticks": 14592,
            "time": 32.571396,
            "velocity": 0.3937007874015748
          },
          {
            "duration": 1.7142839999999993,
            "durationTicks": 768,
            "midi": 48,
            "name": "C3",
            "ticks": 14592,
            "time": 32.571396,
            "velocity": 0.3937007874015748
          },
          {
            "duration": 0.42857100000000514,
            "durationTicks": 192,
            "midi": 68,
            "name": "G#4",
            "ticks": 14592,
            "time": 32.571396,
            "velocity": 0.3937007874015748
          },
          {
            "duration": 1.7142839999999993,
            "durationTicks": 768,
            "midi": 39,
            "name": "D#2",
            "ticks": 14592,
            "time": 32.571396,
            "velocity": 0.3937007874015748
          },
          {
            "duration": 0.21428549999999547,
            "durationTicks": 96,
            "midi": 68,
            "name": "G#4",
            "ticks": 14784,
            "time": 32.999967000000005,
            "velocity": 0.3937007874015748
          },
          {
            "duration": 0.21428550000000257,
            "durationTicks": 96,
            "midi": 65,
            "name": "F4",
            "ticks": 14880,
            "time": 33.2142525,
            "velocity": 0.3937007874015748
          },
          {
            "duration": 0.21428550000000257,
            "durationTicks": 96,
            "midi": 58,
            "name": "A#3",
            "ticks": 15168,
            "time": 33.857109,
            "velocity": 0.3937007874015748
          },
          {
            "duration": 0.21428549999999547,
            "durationTicks": 96,
            "midi": 61,
            "name": "C#4",
            "ticks": 15264,
            "time": 34.071394500000004,
            "velocity": 0.3937007874015748
          },
          {
            "duration": 1.7142840000000064,
            "durationTicks": 768,
            "midi": 46,
            "name": "A#2",
            "ticks": 15360,
            "time": 34.28568,
            "velocity": 0.3937007874015748
          },
          {
            "duration": 1.7142840000000064,
            "durationTicks": 768,
            "midi": 42,
            "name": "F#2",
            "ticks": 15360,
            "time": 34.28568,
            "velocity": 0.3937007874015748
          },
          {
            "duration": 1.7142840000000064,
            "durationTicks": 768,
            "midi": 39,
            "name": "D#2",
            "ticks": 15360,
            "time": 34.28568,
            "velocity": 0.3937007874015748
          },
          {
            "duration": 0.42857100000000514,
            "durationTicks": 192,
            "midi": 63,
            "name": "D#4",
            "ticks": 15360,
            "time": 34.28568,
            "velocity": 0.3937007874015748
          },
          {
            "duration": 0.21428549999999547,
            "durationTicks": 96,
            "midi": 65,
            "name": "F4",
            "ticks": 15552,
            "time": 34.714251000000004,
            "velocity": 0.3937007874015748
          },
          {
            "duration": 0.42857100000000514,
            "durationTicks": 192,
            "midi": 63,
            "name": "D#4",
            "ticks": 15648,
            "time": 34.9285365,
            "velocity": 0.3937007874015748
          },
          {
            "duration": 0.21428549999999547,
            "durationTicks": 96,
            "midi": 61,
            "name": "C#4",
            "ticks": 15840,
            "time": 35.357107500000005,
            "velocity": 0.3937007874015748
          },
          {
            "duration": 0.21428550000000257,
            "durationTicks": 96,
            "midi": 58,
            "name": "A#3",
            "ticks": 15936,
            "time": 35.571393,
            "velocity": 0.3937007874015748
          },
          {
            "duration": 0.21428550000000257,
            "durationTicks": 96,
            "midi": 61,
            "name": "C#4",
            "ticks": 16032,
            "time": 35.7856785,
            "velocity": 0.3937007874015748
          },
          {
            "duration": 0.21428549999999547,
            "durationTicks": 96,
            "midi": 63,
            "name": "D#4",
            "ticks": 16128,
            "time": 35.999964000000006,
            "velocity": 0.3937007874015748
          },
          {
            "duration": 1.7142839999999993,
            "durationTicks": 768,
            "midi": 46,
            "name": "A#2",
            "ticks": 16128,
            "time": 35.999964000000006,
            "velocity": 0.3937007874015748
          },
          {
            "duration": 1.7142839999999993,
            "durationTicks": 768,
            "midi": 42,
            "name": "F#2",
            "ticks": 16128,
            "time": 35.999964000000006,
            "velocity": 0.3937007874015748
          },
          {
            "duration": 1.7142839999999993,
            "durationTicks": 768,
            "midi": 39,
            "name": "D#2",
            "ticks": 16128,
            "time": 35.999964000000006,
            "velocity": 0.3937007874015748
          },
          {
            "duration": 0.42857100000000514,
            "durationTicks": 192,
            "midi": 65,
            "name": "F4",
            "ticks": 16224,
            "time": 36.2142495,
            "velocity": 0.3937007874015748
          },
          {
            "duration": 0.42857099999999804,
            "durationTicks": 192,
            "midi": 63,
            "name": "D#4",
            "ticks": 16416,
            "time": 36.642820500000006,
            "velocity": 0.3937007874015748
          },
          {
            "duration": 0.21428550000000257,
            "durationTicks": 96,
            "midi": 58,
            "name": "A#3",
            "ticks": 16704,
            "time": 37.285677,
            "velocity": 0.3937007874015748
          },
          {
            "duration": 0.21428550000000257,
            "durationTicks": 96,
            "midi": 61,
            "name": "C#4",
            "ticks": 16800,
            "time": 37.4999625,
            "velocity": 0.3937007874015748
          },
          {
            "duration": 0.42857099999999804,
            "durationTicks": 192,
            "midi": 63,
            "name": "D#4",
            "ticks": 16896,
            "time": 37.714248000000005,
            "velocity": 0.3937007874015748
          },
          {
            "duration": 1.7142839999999993,
            "durationTicks": 768,
            "midi": 44,
            "name": "G#2",
            "ticks": 16896,
            "time": 37.714248000000005,
            "velocity": 0.3937007874015748
          },
          {
            "duration": 1.7142839999999993,
            "durationTicks": 768,
            "midi": 39,
            "name": "D#2",
            "ticks": 16896,
            "time": 37.714248000000005,
            "velocity": 0.3937007874015748
          },
          {
            "duration": 1.7142839999999993,
            "durationTicks": 768,
            "midi": 39,
            "name": "D#2",
            "ticks": 16896,
            "time": 37.714248000000005,
            "velocity": 0.3937007874015748
          },
          {
            "duration": 1.7142839999999993,
            "durationTicks": 768,
            "midi": 48,
            "name": "C3",
            "ticks": 16896,
            "time": 37.714248000000005,
            "velocity": 0.3937007874015748
          },
          {
            "duration": 0.21428550000000257,
            "durationTicks": 96,
            "midi": 65,
            "name": "F4",
            "ticks": 17088,
            "time": 38.142819,
            "velocity": 0.3937007874015748
          },
          {
            "duration": 0.42857099999999804,
            "durationTicks": 192,
            "midi": 63,
            "name": "D#4",
            "ticks": 17184,
            "time": 38.357104500000005,
            "velocity": 0.3937007874015748
          },
          {
            "duration": 0.21428550000000257,
            "durationTicks": 96,
            "midi": 61,
            "name": "C#4",
            "ticks": 17376,
            "time": 38.7856755,
            "velocity": 0.3937007874015748
          },
          {
            "duration": 0.21428549999999547,
            "durationTicks": 96,
            "midi": 58,
            "name": "A#3",
            "ticks": 17472,
            "time": 38.999961000000006,
            "velocity": 0.3937007874015748
          },
          {
            "duration": 0.21428550000000257,
            "durationTicks": 96,
            "midi": 61,
            "name": "C#4",
            "ticks": 17568,
            "time": 39.2142465,
            "velocity": 0.3937007874015748
          },
          {
            "duration": 1.7142839999999993,
            "durationTicks": 768,
            "midi": 44,
            "name": "G#2",
            "ticks": 17664,
            "time": 39.428532000000004,
            "velocity": 0.3937007874015748
          },
          {
            "duration": 1.7142839999999993,
            "durationTicks": 768,
            "midi": 39,
            "name": "D#2",
            "ticks": 17664,
            "time": 39.428532000000004,
            "velocity": 0.3937007874015748
          },
          {
            "duration": 0.21428550000000257,
            "durationTicks": 96,
            "midi": 63,
            "name": "D#4",
            "ticks": 17664,
            "time": 39.428532000000004,
            "velocity": 0.3937007874015748
          },
          {
            "duration": 1.7142839999999993,
            "durationTicks": 768,
            "midi": 39,
            "name": "D#2",
            "ticks": 17664,
            "time": 39.428532000000004,
            "velocity": 0.3937007874015748
          },
          {
            "duration": 1.7142839999999993,
            "durationTicks": 768,
            "midi": 48,
            "name": "C3",
            "ticks": 17664,
            "time": 39.428532000000004,
            "velocity": 0.3937007874015748
          },
          {
            "duration": 0.42857099999999804,
            "durationTicks": 192,
            "midi": 65,
            "name": "F4",
            "ticks": 17760,
            "time": 39.64281750000001,
            "velocity": 0.3937007874015748
          },
          {
            "duration": 0.42857099999999804,
            "durationTicks": 192,
            "midi": 63,
            "name": "D#4",
            "ticks": 17952,
            "time": 40.071388500000005,
            "velocity": 0.3937007874015748
          },
          {
            "duration": 1.7142839999999993,
            "durationTicks": 768,
            "midi": 46,
            "name": "A#2",
            "ticks": 18432,
            "time": 41.142816,
            "velocity": 0.3937007874015748
          },
          {
            "duration": 1.7142839999999993,
            "durationTicks": 768,
            "midi": 42,
            "name": "F#2",
            "ticks": 18432,
            "time": 41.142816,
            "velocity": 0.3937007874015748
          },
          {
            "duration": 1.7142839999999993,
            "durationTicks": 768,
            "midi": 39,
            "name": "D#2",
            "ticks": 18432,
            "time": 41.142816,
            "velocity": 0.3937007874015748
          },
          {
            "duration": 1.7142839999999993,
            "durationTicks": 768,
            "midi": 42,
            "name": "F#2",
            "ticks": 19200,
            "time": 42.8571,
            "velocity": 0.3937007874015748
          },
          {
            "duration": 1.7142839999999993,
            "durationTicks": 768,
            "midi": 39,
            "name": "D#2",
            "ticks": 19200,
            "time": 42.8571,
            "velocity": 0.3937007874015748
          },
          {
            "duration": 1.7142839999999993,
            "durationTicks": 768,
            "midi": 46,
            "name": "A#2",
            "ticks": 19200,
            "time": 42.8571,
            "velocity": 0.3937007874015748
          }
        ],
        "endOfTrackTicks": 19968
      }
    ]
  }