{
    "header": {
      "keySignatures": [],
      "meta": [],
      "name": "",
      "ppq": 384,
      "tempos": [
        {
          "bpm": 138.00019320027047,
          "ticks": 0
        }
      ],
      "timeSignatures": [
        {
          "ticks": 0,
          "timeSignature": [
            1,
            4
          ],
          "measures": 0
        }
      ]
    },
    "tracks": [
      {
        "channel": 0,
        "controlChanges": {},
        "pitchBends": [],
        "instrument": {
          "family": "piano",
          "number": 0,
          "name": "acoustic grand piano"
        },
        "name": "Elec. Piano (Classic)",
        "notes": [
          {
            "duration": 0.2173910000000001,
            "durationTicks": 192,
            "midi": 63,
            "name": "D#4",
            "ticks": 1536,
            "time": 1.739128,
            "velocity": 0.3937007874015748
          },
          {
            "duration": 0.2173910000000001,
            "durationTicks": 192,
            "midi": 39,
            "name": "D#2",
            "ticks": 1536,
            "time": 1.739128,
            "velocity": 0.3937007874015748
          },
          {
            "duration": 0.2173910000000001,
            "durationTicks": 192,
            "midi": 65,
            "name": "F4",
            "ticks": 1728,
            "time": 1.9565190000000001,
            "velocity": 0.3937007874015748
          },
          {
            "duration": 0.2173910000000001,
            "durationTicks": 192,
            "midi": 42,
            "name": "F#2",
            "ticks": 1728,
            "time": 1.9565190000000001,
            "velocity": 0.3937007874015748
          },
          {
            "duration": 0.21739099999999967,
            "durationTicks": 192,
            "midi": 46,
            "name": "A#2",
            "ticks": 1920,
            "time": 2.1739100000000002,
            "velocity": 0.3937007874015748
          },
          {
            "duration": 0.21739099999999967,
            "durationTicks": 192,
            "midi": 66,
            "name": "F#4",
            "ticks": 1920,
            "time": 2.1739100000000002,
            "velocity": 0.3937007874015748
          },
          {
            "duration": 0.2173910000000001,
            "durationTicks": 192,
            "midi": 68,
            "name": "G#4",
            "ticks": 2112,
            "time": 2.391301,
            "velocity": 0.3937007874015748
          },
          {
            "duration": 0.2173910000000001,
            "durationTicks": 192,
            "midi": 51,
            "name": "D#3",
            "ticks": 2112,
            "time": 2.391301,
            "velocity": 0.3937007874015748
          },
          {
            "duration": 0.4347819999999998,
            "durationTicks": 384,
            "midi": 70,
            "name": "A#4",
            "ticks": 2304,
            "time": 2.608692,
            "velocity": 0.3937007874015748
          },
          {
            "duration": 0.2173910000000001,
            "durationTicks": 192,
            "midi": 54,
            "name": "F#3",
            "ticks": 2304,
            "time": 2.608692,
            "velocity": 0.3937007874015748
          },
          {
            "duration": 0.21739099999999967,
            "durationTicks": 192,
            "midi": 51,
            "name": "D#3",
            "ticks": 2496,
            "time": 2.826083,
            "velocity": 0.3937007874015748
          },
          {
            "duration": 0.2173910000000001,
            "durationTicks": 192,
            "midi": 63,
            "name": "D#4",
            "ticks": 2688,
            "time": 3.043474,
            "velocity": 0.3937007874015748
          },
          {
            "duration": 0.2173910000000001,
            "durationTicks": 192,
            "midi": 46,
            "name": "A#2",
            "ticks": 2688,
            "time": 3.043474,
            "velocity": 0.3937007874015748
          },
          {
            "duration": 0.2173910000000001,
            "durationTicks": 192,
            "midi": 42,
            "name": "F#2",
            "ticks": 2880,
            "time": 3.260865,
            "velocity": 0.3937007874015748
          },
          {
            "duration": 0.2173910000000001,
            "durationTicks": 192,
            "midi": 73,
            "name": "C#5",
            "ticks": 2880,
            "time": 3.260865,
            "velocity": 0.3937007874015748
          },
          {
            "duration": 0.4347820000000002,
            "durationTicks": 384,
            "midi": 70,
            "name": "A#4",
            "ticks": 3072,
            "time": 3.478256,
            "velocity": 0.3937007874015748
          },
          {
            "duration": 0.2173910000000001,
            "durationTicks": 192,
            "midi": 39,
            "name": "D#2",
            "ticks": 3072,
            "time": 3.478256,
            "velocity": 0.3937007874015748
          },
          {
            "duration": 0.2173910000000001,
            "durationTicks": 192,
            "midi": 42,
            "name": "F#2",
            "ticks": 3264,
            "time": 3.695647,
            "velocity": 0.3937007874015748
          },
          {
            "duration": 0.2173910000000001,
            "durationTicks": 192,
            "midi": 46,
            "name": "A#2",
            "ticks": 3456,
            "time": 3.9130380000000002,
            "velocity": 0.3937007874015748
          },
          {
            "duration": 0.4347820000000002,
            "durationTicks": 384,
            "midi": 63,
            "name": "D#4",
            "ticks": 3456,
            "time": 3.9130380000000002,
            "velocity": 0.3937007874015748
          },
          {
            "duration": 0.2173910000000001,
            "durationTicks": 192,
            "midi": 51,
            "name": "D#3",
            "ticks": 3648,
            "time": 4.130429,
            "velocity": 0.3937007874015748
          },
          {
            "duration": 0.21739099999999922,
            "durationTicks": 192,
            "midi": 54,
            "name": "F#3",
            "ticks": 3840,
            "time": 4.3478200000000005,
            "velocity": 0.3937007874015748
          },
          {
            "duration": 0.21739099999999922,
            "durationTicks": 192,
            "midi": 70,
            "name": "A#4",
            "ticks": 3840,
            "time": 4.3478200000000005,
            "velocity": 0.3937007874015748
          },
          {
            "duration": 0.2173910000000001,
            "durationTicks": 192,
            "midi": 68,
            "name": "G#4",
            "ticks": 4032,
            "time": 4.565211,
            "velocity": 0.3937007874015748
          },
          {
            "duration": 0.2173910000000001,
            "durationTicks": 192,
            "midi": 51,
            "name": "D#3",
            "ticks": 4032,
            "time": 4.565211,
            "velocity": 0.3937007874015748
          },
          {
            "duration": 0.2173910000000001,
            "durationTicks": 192,
            "midi": 46,
            "name": "A#2",
            "ticks": 4224,
            "time": 4.782602,
            "velocity": 0.3937007874015748
          },
          {
            "duration": 0.2173910000000001,
            "durationTicks": 192,
            "midi": 66,
            "name": "F#4",
            "ticks": 4224,
            "time": 4.782602,
            "velocity": 0.3937007874015748
          },
          {
            "duration": 0.2173910000000001,
            "durationTicks": 192,
            "midi": 65,
            "name": "F4",
            "ticks": 4416,
            "time": 4.999993,
            "velocity": 0.3937007874015748
          },
          {
            "duration": 0.2173910000000001,
            "durationTicks": 192,
            "midi": 42,
            "name": "F#2",
            "ticks": 4416,
            "time": 4.999993,
            "velocity": 0.3937007874015748
          },
          {
            "duration": 0.2173910000000001,
            "durationTicks": 192,
            "midi": 35,
            "name": "B1",
            "ticks": 4608,
            "time": 5.217384,
            "velocity": 0.3937007874015748
          },
          {
            "duration": 0.2173910000000001,
            "durationTicks": 192,
            "midi": 63,
            "name": "D#4",
            "ticks": 4608,
            "time": 5.217384,
            "velocity": 0.3937007874015748
          },
          {
            "duration": 0.2173910000000001,
            "durationTicks": 192,
            "midi": 39,
            "name": "D#2",
            "ticks": 4800,
            "time": 5.434775,
            "velocity": 0.3937007874015748
          },
          {
            "duration": 0.2173910000000001,
            "durationTicks": 192,
            "midi": 65,
            "name": "F4",
            "ticks": 4800,
            "time": 5.434775,
            "velocity": 0.3937007874015748
          },
          {
            "duration": 0.2173910000000001,
            "durationTicks": 192,
            "midi": 42,
            "name": "F#2",
            "ticks": 4992,
            "time": 5.652166,
            "velocity": 0.3937007874015748
          },
          {
            "duration": 0.2173910000000001,
            "durationTicks": 192,
            "midi": 66,
            "name": "F#4",
            "ticks": 4992,
            "time": 5.652166,
            "velocity": 0.3937007874015748
          },
          {
            "duration": 0.21739099999999922,
            "durationTicks": 192,
            "midi": 68,
            "name": "G#4",
            "ticks": 5184,
            "time": 5.869557,
            "velocity": 0.3937007874015748
          },
          {
            "duration": 0.21739099999999922,
            "durationTicks": 192,
            "midi": 47,
            "name": "B2",
            "ticks": 5184,
            "time": 5.869557,
            "velocity": 0.3937007874015748
          },
          {
            "duration": 0.2173910000000001,
            "durationTicks": 192,
            "midi": 51,
            "name": "D#3",
            "ticks": 5376,
            "time": 6.086948,
            "velocity": 0.3937007874015748
          },
          {
            "duration": 0.4347820000000002,
            "durationTicks": 384,
            "midi": 70,
            "name": "A#4",
            "ticks": 5376,
            "time": 6.086948,
            "velocity": 0.3937007874015748
          },
          {
            "duration": 0.2173910000000001,
            "durationTicks": 192,
            "midi": 47,
            "name": "B2",
            "ticks": 5568,
            "time": 6.304339,
            "velocity": 0.3937007874015748
          },
          {
            "duration": 0.2173910000000001,
            "durationTicks": 192,
            "midi": 68,
            "name": "G#4",
            "ticks": 5760,
            "time": 6.52173,
            "velocity": 0.3937007874015748
          },
          {
            "duration": 0.2173910000000001,
            "durationTicks": 192,
            "midi": 42,
            "name": "F#2",
            "ticks": 5760,
            "time": 6.52173,
            "velocity": 0.3937007874015748
          },
          {
            "duration": 0.2173910000000001,
            "durationTicks": 192,
            "midi": 39,
            "name": "D#2",
            "ticks": 5952,
            "time": 6.739121,
            "velocity": 0.3937007874015748
          },
          {
            "duration": 0.2173910000000001,
            "durationTicks": 192,
            "midi": 66,
            "name": "F#4",
            "ticks": 5952,
            "time": 6.739121,
            "velocity": 0.3937007874015748
          },
          {
            "duration": 0.2173910000000001,
            "durationTicks": 192,
            "midi": 65,
            "name": "F4",
            "ticks": 6144,
            "time": 6.956512,
            "velocity": 0.3937007874015748
          },
          {
            "duration": 0.2173910000000001,
            "durationTicks": 192,
            "midi": 37,
            "name": "C#2",
            "ticks": 6144,
            "time": 6.956512,
            "velocity": 0.3937007874015748
          },
          {
            "duration": 0.2173910000000001,
            "durationTicks": 192,
            "midi": 58,
            "name": "A#3",
            "ticks": 6336,
            "time": 7.173903,
            "velocity": 0.3937007874015748
          },
          {
            "duration": 0.2173910000000001,
            "durationTicks": 192,
            "midi": 41,
            "name": "F2",
            "ticks": 6336,
            "time": 7.173903,
            "velocity": 0.3937007874015748
          },
          {
            "duration": 0.2173910000000001,
            "durationTicks": 192,
            "midi": 44,
            "name": "G#2",
            "ticks": 6528,
            "time": 7.391294,
            "velocity": 0.3937007874015748
          },
          {
            "duration": 0.2173910000000001,
            "durationTicks": 192,
            "midi": 65,
            "name": "F4",
            "ticks": 6528,
            "time": 7.391294,
            "velocity": 0.3937007874015748
          },
          {
            "duration": 0.2173910000000001,
            "durationTicks": 192,
            "midi": 49,
            "name": "C#3",
            "ticks": 6720,
            "time": 7.608685,
            "velocity": 0.3937007874015748
          },
          {
            "duration": 0.2173910000000001,
            "durationTicks": 192,
            "midi": 66,
            "name": "F#4",
            "ticks": 6720,
            "time": 7.608685,
            "velocity": 0.3937007874015748
          },
          {
            "duration": 0.21739099999999922,
            "durationTicks": 192,
            "midi": 38,
            "name": "D2",
            "ticks": 6912,
            "time": 7.8260760000000005,
            "velocity": 0.3937007874015748
          },
          {
            "duration": 0.21739099999999922,
            "durationTicks": 192,
            "midi": 65,
            "name": "F4",
            "ticks": 6912,
            "time": 7.8260760000000005,
            "velocity": 0.3937007874015748
          },
          {
            "duration": 0.217391000000001,
            "durationTicks": 192,
            "midi": 41,
            "name": "F2",
            "ticks": 7104,
            "time": 8.043467,
            "velocity": 0.3937007874015748
          },
          {
            "duration": 0.217391000000001,
            "durationTicks": 192,
            "midi": 63,
            "name": "D#4",
            "ticks": 7104,
            "time": 8.043467,
            "velocity": 0.3937007874015748
          },
          {
            "duration": 0.21739099999999922,
            "durationTicks": 192,
            "midi": 62,
            "name": "D4",
            "ticks": 7296,
            "time": 8.260858,
            "velocity": 0.3937007874015748
          },
          {
            "duration": 0.21739099999999922,
            "durationTicks": 192,
            "midi": 44,
            "name": "G#2",
            "ticks": 7296,
            "time": 8.260858,
            "velocity": 0.3937007874015748
          },
          {
            "duration": 0.217391000000001,
            "durationTicks": 192,
            "midi": 65,
            "name": "F4",
            "ticks": 7488,
            "time": 8.478249,
            "velocity": 0.3937007874015748
          },
          {
            "duration": 0.217391000000001,
            "durationTicks": 192,
            "midi": 50,
            "name": "D3",
            "ticks": 7488,
            "time": 8.478249,
            "velocity": 0.3937007874015748
          },
          {
            "duration": 0.21739099999999922,
            "durationTicks": 192,
            "midi": 63,
            "name": "D#4",
            "ticks": 7680,
            "time": 8.695640000000001,
            "velocity": 0.3937007874015748
          },
          {
            "duration": 0.21739099999999922,
            "durationTicks": 192,
            "midi": 39,
            "name": "D#2",
            "ticks": 7680,
            "time": 8.695640000000001,
            "velocity": 0.3937007874015748
          },
          {
            "duration": 0.21739099999999922,
            "durationTicks": 192,
            "midi": 65,
            "name": "F4",
            "ticks": 7872,
            "time": 8.913031,
            "velocity": 0.3937007874015748
          },
          {
            "duration": 0.21739099999999922,
            "durationTicks": 192,
            "midi": 42,
            "name": "F#2",
            "ticks": 7872,
            "time": 8.913031,
            "velocity": 0.3937007874015748
          },
          {
            "duration": 0.217391000000001,
            "durationTicks": 192,
            "midi": 46,
            "name": "A#2",
            "ticks": 8064,
            "time": 9.130422,
            "velocity": 0.3937007874015748
          },
          {
            "duration": 0.217391000000001,
            "durationTicks": 192,
            "midi": 66,
            "name": "F#4",
            "ticks": 8064,
            "time": 9.130422,
            "velocity": 0.3937007874015748
          },
          {
            "duration": 0.21739099999999922,
            "durationTicks": 192,
            "midi": 68,
            "name": "G#4",
            "ticks": 8256,
            "time": 9.347813,
            "velocity": 0.3937007874015748
          },
          {
            "duration": 0.21739099999999922,
            "durationTicks": 192,
            "midi": 51,
            "name": "D#3",
            "ticks": 8256,
            "time": 9.347813,
            "velocity": 0.3937007874015748
          },
          {
            "duration": 0.4347820000000002,
            "durationTicks": 384,
            "midi": 70,
            "name": "A#4",
            "ticks": 8448,
            "time": 9.565204,
            "velocity": 0.3937007874015748
          },
          {
            "duration": 0.217391000000001,
            "durationTicks": 192,
            "midi": 54,
            "name": "F#3",
            "ticks": 8448,
            "time": 9.565204,
            "velocity": 0.3937007874015748
          },
          {
            "duration": 0.21739099999999922,
            "durationTicks": 192,
            "midi": 51,
            "name": "D#3",
            "ticks": 8640,
            "time": 9.782595,
            "velocity": 0.3937007874015748
          },
          {
            "duration": 0.217391000000001,
            "durationTicks": 192,
            "midi": 46,
            "name": "A#2",
            "ticks": 8832,
            "time": 9.999986,
            "velocity": 0.3937007874015748
          },
          {
            "duration": 0.217391000000001,
            "durationTicks": 192,
            "midi": 68,
            "name": "G#4",
            "ticks": 8832,
            "time": 9.999986,
            "velocity": 0.3937007874015748
          },
          {
            "duration": 0.21739099999999922,
            "durationTicks": 192,
            "midi": 42,
            "name": "F#2",
            "ticks": 9024,
            "time": 10.217377,
            "velocity": 0.3937007874015748
          },
          {
            "duration": 0.21739099999999922,
            "durationTicks": 192,
            "midi": 73,
            "name": "C#5",
            "ticks": 9024,
            "time": 10.217377,
            "velocity": 0.3937007874015748
          },
          {
            "duration": 0.4347820000000002,
            "durationTicks": 384,
            "midi": 75,
            "name": "D#5",
            "ticks": 9216,
            "time": 10.434768,
            "velocity": 0.3937007874015748
          },
          {
            "duration": 0.21739099999999922,
            "durationTicks": 192,
            "midi": 39,
            "name": "D#2",
            "ticks": 9216,
            "time": 10.434768,
            "velocity": 0.3937007874015748
          },
          {
            "duration": 0.217391000000001,
            "durationTicks": 192,
            "midi": 42,
            "name": "F#2",
            "ticks": 9408,
            "time": 10.652159,
            "velocity": 0.3937007874015748
          },
          {
            "duration": 0.4347820000000002,
            "durationTicks": 384,
            "midi": 75,
            "name": "D#5",
            "ticks": 9600,
            "time": 10.86955,
            "velocity": 0.3937007874015748
          },
          {
            "duration": 0.21739099999999922,
            "durationTicks": 192,
            "midi": 46,
            "name": "A#2",
            "ticks": 9600,
            "time": 10.86955,
            "velocity": 0.3937007874015748
          },
          {
            "duration": 0.217391000000001,
            "durationTicks": 192,
            "midi": 51,
            "name": "D#3",
            "ticks": 9792,
            "time": 11.086941,
            "velocity": 0.3937007874015748
          },
          {
            "duration": 0.21739099999999922,
            "durationTicks": 192,
            "midi": 46,
            "name": "A#2",
            "ticks": 9984,
            "time": 11.304332,
            "velocity": 0.3937007874015748
          },
          {
            "duration": 0.4347820000000002,
            "durationTicks": 384,
            "midi": 77,
            "name": "F5",
            "ticks": 9984,
            "time": 11.304332,
            "velocity": 0.3937007874015748
          },
          {
            "duration": 0.217391000000001,
            "durationTicks": 192,
            "midi": 42,
            "name": "F#2",
            "ticks": 10176,
            "time": 11.521723,
            "velocity": 0.3937007874015748
          },
          {
            "duration": 0.43478199999999845,
            "durationTicks": 384,
            "midi": 78,
            "name": "F#5",
            "ticks": 10368,
            "time": 11.739114,
            "velocity": 0.3937007874015748
          },
          {
            "duration": 0.21739099999999922,
            "durationTicks": 192,
            "midi": 44,
            "name": "G#2",
            "ticks": 10368,
            "time": 11.739114,
            "velocity": 0.3937007874015748
          },
          {
            "duration": 0.21739099999999922,
            "durationTicks": 192,
            "midi": 49,
            "name": "C#3",
            "ticks": 10560,
            "time": 11.956505,
            "velocity": 0.3937007874015748
          },
          {
            "duration": 0.217391000000001,
            "durationTicks": 192,
            "midi": 35,
            "name": "B1",
            "ticks": 10752,
            "time": 12.173896,
            "velocity": 0.3937007874015748
          },
          {
            "duration": 0.217391000000001,
            "durationTicks": 192,
            "midi": 75,
            "name": "D#5",
            "ticks": 10752,
            "time": 12.173896,
            "velocity": 0.3937007874015748
          },
          {
            "duration": 0.21739099999999922,
            "durationTicks": 192,
            "midi": 39,
            "name": "D#2",
            "ticks": 10944,
            "time": 12.391287,
            "velocity": 0.3937007874015748
          },
          {
            "duration": 0.21739099999999922,
            "durationTicks": 192,
            "midi": 77,
            "name": "F5",
            "ticks": 10944,
            "time": 12.391287,
            "velocity": 0.3937007874015748
          },
          {
            "duration": 0.217391000000001,
            "durationTicks": 192,
            "midi": 78,
            "name": "F#5",
            "ticks": 11136,
            "time": 12.608678,
            "velocity": 0.3937007874015748
          },
          {
            "duration": 0.217391000000001,
            "durationTicks": 192,
            "midi": 42,
            "name": "F#2",
            "ticks": 11136,
            "time": 12.608678,
            "velocity": 0.3937007874015748
          },
          {
            "duration": 0.21739099999999922,
            "durationTicks": 192,
            "midi": 47,
            "name": "B2",
            "ticks": 11328,
            "time": 12.826069,
            "velocity": 0.3937007874015748
          },
          {
            "duration": 0.21739099999999922,
            "durationTicks": 192,
            "midi": 80,
            "name": "G#5",
            "ticks": 11328,
            "time": 12.826069,
            "velocity": 0.3937007874015748
          },
          {
            "duration": 0.217391000000001,
            "durationTicks": 192,
            "midi": 51,
            "name": "D#3",
            "ticks": 11520,
            "time": 13.04346,
            "velocity": 0.3937007874015748
          },
          {
            "duration": 0.4347820000000002,
            "durationTicks": 384,
            "midi": 82,
            "name": "A#5",
            "ticks": 11520,
            "time": 13.04346,
            "velocity": 0.3937007874015748
          },
          {
            "duration": 0.21739099999999922,
            "durationTicks": 192,
            "midi": 47,
            "name": "B2",
            "ticks": 11712,
            "time": 13.260851,
            "velocity": 0.3937007874015748
          },
          {
            "duration": 0.217391000000001,
            "durationTicks": 192,
            "midi": 42,
            "name": "F#2",
            "ticks": 11904,
            "time": 13.478242,
            "velocity": 0.3937007874015748
          },
          {
            "duration": 0.217391000000001,
            "durationTicks": 192,
            "midi": 80,
            "name": "G#5",
            "ticks": 11904,
            "time": 13.478242,
            "velocity": 0.3937007874015748
          },
          {
            "duration": 0.21739099999999922,
            "durationTicks": 192,
            "midi": 78,
            "name": "F#5",
            "ticks": 12096,
            "time": 13.695633,
            "velocity": 0.3937007874015748
          },
          {
            "duration": 0.21739099999999922,
            "durationTicks": 192,
            "midi": 39,
            "name": "D#2",
            "ticks": 12096,
            "time": 13.695633,
            "velocity": 0.3937007874015748
          },
          {
            "duration": 0.21739099999999922,
            "durationTicks": 192,
            "midi": 37,
            "name": "C#2",
            "ticks": 12288,
            "time": 13.913024,
            "velocity": 0.3937007874015748
          },
          {
            "duration": 0.4347820000000002,
            "durationTicks": 384,
            "midi": 80,
            "name": "G#5",
            "ticks": 12288,
            "time": 13.913024,
            "velocity": 0.3937007874015748
          },
          {
            "duration": 0.217391000000001,
            "durationTicks": 192,
            "midi": 41,
            "name": "F2",
            "ticks": 12480,
            "time": 14.130415,
            "velocity": 0.3937007874015748
          },
          {
            "duration": 0.4347820000000002,
            "durationTicks": 384,
            "midi": 77,
            "name": "F5",
            "ticks": 12672,
            "time": 14.347806,
            "velocity": 0.3937007874015748
          },
          {
            "duration": 0.21739099999999922,
            "durationTicks": 192,
            "midi": 44,
            "name": "G#2",
            "ticks": 12672,
            "time": 14.347806,
            "velocity": 0.3937007874015748
          },
          {
            "duration": 0.217391000000001,
            "durationTicks": 192,
            "midi": 49,
            "name": "C#3",
            "ticks": 12864,
            "time": 14.565197,
            "velocity": 0.3937007874015748
          },
          {
            "duration": 0.4347820000000002,
            "durationTicks": 384,
            "midi": 78,
            "name": "F#5",
            "ticks": 13056,
            "time": 14.782588,
            "velocity": 0.3937007874015748
          },
          {
            "duration": 0.21739099999999922,
            "durationTicks": 192,
            "midi": 38,
            "name": "D2",
            "ticks": 13056,
            "time": 14.782588,
            "velocity": 0.3937007874015748
          },
          {
            "duration": 0.217391000000001,
            "durationTicks": 192,
            "midi": 41,
            "name": "F2",
            "ticks": 13248,
            "time": 14.999979,
            "velocity": 0.3937007874015748
          },
          {
            "duration": 0.21739099999999922,
            "durationTicks": 192,
            "midi": 44,
            "name": "G#2",
            "ticks": 13440,
            "time": 15.21737,
            "velocity": 0.3937007874015748
          },
          {
            "duration": 0.4347820000000002,
            "durationTicks": 384,
            "midi": 80,
            "name": "G#5",
            "ticks": 13440,
            "time": 15.21737,
            "velocity": 0.3937007874015748
          },
          {
            "duration": 0.217391000000001,
            "durationTicks": 192,
            "midi": 50,
            "name": "D3",
            "ticks": 13632,
            "time": 15.434761,
            "velocity": 0.3937007874015748
          },
          {
            "duration": 1.5217369999999981,
            "durationTicks": 1344,
            "midi": 82,
            "name": "A#5",
            "ticks": 13824,
            "time": 15.652152000000001,
            "velocity": 0.3937007874015748
          },
          {
            "duration": 1.739128000000001,
            "durationTicks": 1536,
            "midi": 46,
            "name": "A#2",
            "ticks": 13824,
            "time": 15.652152000000001,
            "velocity": 0.3937007874015748
          },
          {
            "duration": 0.10869549999999961,
            "durationTicks": 96,
            "midi": 46,
            "name": "A#2",
            "ticks": 16896,
            "time": 19.130408,
            "velocity": 0.3937007874015748
          },
          {
            "duration": 1.739128000000001,
            "durationTicks": 1536,
            "midi": 39,
            "name": "D#2",
            "ticks": 16896,
            "time": 19.130408,
            "velocity": 0.3937007874015748
          },
          {
            "duration": 0.10869549999999961,
            "durationTicks": 96,
            "midi": 63,
            "name": "D#4",
            "ticks": 16896,
            "time": 19.130408,
            "velocity": 0.3937007874015748
          },
          {
            "duration": 0.21739099999999922,
            "durationTicks": 192,
            "midi": 34,
            "name": "A#1",
            "ticks": 16896,
            "time": 19.130408,
            "velocity": 0.3937007874015748
          },
          {
            "duration": 0.5434775000000016,
            "durationTicks": 480,
            "midi": 46,
            "name": "A#2",
            "ticks": 16896,
            "time": 19.130408,
            "velocity": 0.3937007874015748
          },
          {
            "duration": 0.10869549999999961,
            "durationTicks": 96,
            "midi": 51,
            "name": "D#3",
            "ticks": 16896,
            "time": 19.130408,
            "velocity": 0.3937007874015748
          },
          {
            "duration": 0.10869549999999961,
            "durationTicks": 96,
            "midi": 75,
            "name": "D#5",
            "ticks": 16992,
            "time": 19.2391035,
            "velocity": 0.3937007874015748
          },
          {
            "duration": 0.10869550000000316,
            "durationTicks": 96,
            "midi": 73,
            "name": "C#5",
            "ticks": 17088,
            "time": 19.347799,
            "velocity": 0.3937007874015748
          },
          {
            "duration": 0.10869549999999961,
            "durationTicks": 96,
            "midi": 75,
            "name": "D#5",
            "ticks": 17184,
            "time": 19.4564945,
            "velocity": 0.3937007874015748
          },
          {
            "duration": 0.10869549999999961,
            "durationTicks": 96,
            "midi": 63,
            "name": "D#4",
            "ticks": 17280,
            "time": 19.56519,
            "velocity": 0.3937007874015748
          },
          {
            "duration": 0.10869549999999961,
            "durationTicks": 96,
            "midi": 51,
            "name": "D#3",
            "ticks": 17280,
            "time": 19.56519,
            "velocity": 0.3937007874015748
          },
          {
            "duration": 0.5434774999999981,
            "durationTicks": 480,
            "midi": 46,
            "name": "A#2",
            "ticks": 17280,
            "time": 19.56519,
            "velocity": 0.3937007874015748
          },
          {
            "duration": 0.21739099999999922,
            "durationTicks": 192,
            "midi": 34,
            "name": "A#1",
            "ticks": 17280,
            "time": 19.56519,
            "velocity": 0.3937007874015748
          },
          {
            "duration": 0.10869549999999961,
            "durationTicks": 96,
            "midi": 75,
            "name": "D#5",
            "ticks": 17376,
            "time": 19.6738855,
            "velocity": 0.3937007874015748
          },
          {
            "duration": 0.10869549999999961,
            "durationTicks": 96,
            "midi": 73,
            "name": "C#5",
            "ticks": 17472,
            "time": 19.782581,
            "velocity": 0.3937007874015748
          },
          {
            "duration": 0.10869549999999961,
            "durationTicks": 96,
            "midi": 75,
            "name": "D#5",
            "ticks": 17568,
            "time": 19.8912765,
            "velocity": 0.3937007874015748
          },
          {
            "duration": 0.10869549999999961,
            "durationTicks": 96,
            "midi": 51,
            "name": "D#3",
            "ticks": 17664,
            "time": 19.999972,
            "velocity": 0.3937007874015748
          },
          {
            "duration": 0.10869549999999961,
            "durationTicks": 96,
            "midi": 63,
            "name": "D#4",
            "ticks": 17664,
            "time": 19.999972,
            "velocity": 0.3937007874015748
          },
          {
            "duration": 0.21739099999999922,
            "durationTicks": 192,
            "midi": 34,
            "name": "A#1",
            "ticks": 17664,
            "time": 19.999972,
            "velocity": 0.3937007874015748
          },
          {
            "duration": 0.5434775000000016,
            "durationTicks": 480,
            "midi": 46,
            "name": "A#2",
            "ticks": 17664,
            "time": 19.999972,
            "velocity": 0.3937007874015748
          },
          {
            "duration": 0.10869549999999961,
            "durationTicks": 96,
            "midi": 75,
            "name": "D#5",
            "ticks": 17760,
            "time": 20.1086675,
            "velocity": 0.3937007874015748
          },
          {
            "duration": 0.10869549999999961,
            "durationTicks": 96,
            "midi": 73,
            "name": "C#5",
            "ticks": 17856,
            "time": 20.217363,
            "velocity": 0.3937007874015748
          },
          {
            "duration": 0.10869550000000316,
            "durationTicks": 96,
            "midi": 75,
            "name": "D#5",
            "ticks": 17952,
            "time": 20.3260585,
            "velocity": 0.3937007874015748
          },
          {
            "duration": 0.21739099999999922,
            "durationTicks": 192,
            "midi": 46,
            "name": "A#2",
            "ticks": 18048,
            "time": 20.434754,
            "velocity": 0.3937007874015748
          },
          {
            "duration": 0.10869549999999961,
            "durationTicks": 96,
            "midi": 51,
            "name": "D#3",
            "ticks": 18048,
            "time": 20.434754,
            "velocity": 0.3937007874015748
          },
          {
            "duration": 0.10869549999999961,
            "durationTicks": 96,
            "midi": 63,
            "name": "D#4",
            "ticks": 18048,
            "time": 20.434754,
            "velocity": 0.3937007874015748
          },
          {
            "duration": 0.10869549999999961,
            "durationTicks": 96,
            "midi": 34,
            "name": "A#1",
            "ticks": 18048,
            "time": 20.434754,
            "velocity": 0.3937007874015748
          },
          {
            "duration": 0.10869549999999961,
            "durationTicks": 96,
            "midi": 34,
            "name": "A#1",
            "ticks": 18144,
            "time": 20.5434495,
            "velocity": 0.3937007874015748
          },
          {
            "duration": 0.10869549999999961,
            "durationTicks": 96,
            "midi": 75,
            "name": "D#5",
            "ticks": 18144,
            "time": 20.5434495,
            "velocity": 0.3937007874015748
          },
          {
            "duration": 0.10869549999999961,
            "durationTicks": 96,
            "midi": 51,
            "name": "D#3",
            "ticks": 18144,
            "time": 20.5434495,
            "velocity": 0.3937007874015748
          },
          {
            "duration": 0.21739099999999922,
            "durationTicks": 192,
            "midi": 46,
            "name": "A#2",
            "ticks": 18144,
            "time": 20.5434495,
            "velocity": 0.3937007874015748
          },
          {
            "duration": 0.21739099999999922,
            "durationTicks": 192,
            "midi": 46,
            "name": "A#2",
            "ticks": 18240,
            "time": 20.652145,
            "velocity": 0.3937007874015748
          },
          {
            "duration": 0.10869549999999961,
            "durationTicks": 96,
            "midi": 73,
            "name": "C#5",
            "ticks": 18240,
            "time": 20.652145,
            "velocity": 0.3937007874015748
          },
          {
            "duration": 0.10869549999999961,
            "durationTicks": 96,
            "midi": 34,
            "name": "A#1",
            "ticks": 18240,
            "time": 20.652145,
            "velocity": 0.3937007874015748
          },
          {
            "duration": 0.10869549999999961,
            "durationTicks": 96,
            "midi": 51,
            "name": "D#3",
            "ticks": 18240,
            "time": 20.652145,
            "velocity": 0.3937007874015748
          },
          {
            "duration": 0.10869549999999961,
            "durationTicks": 96,
            "midi": 51,
            "name": "D#3",
            "ticks": 18336,
            "time": 20.7608405,
            "velocity": 0.3937007874015748
          },
          {
            "duration": 0.10869549999999961,
            "durationTicks": 96,
            "midi": 34,
            "name": "A#1",
            "ticks": 18336,
            "time": 20.7608405,
            "velocity": 0.3937007874015748
          },
          {
            "duration": 0.10869549999999961,
            "durationTicks": 96,
            "midi": 46,
            "name": "A#2",
            "ticks": 18336,
            "time": 20.7608405,
            "velocity": 0.3937007874015748
          },
          {
            "duration": 0.10869549999999961,
            "durationTicks": 96,
            "midi": 75,
            "name": "D#5",
            "ticks": 18336,
            "time": 20.7608405,
            "velocity": 0.3937007874015748
          },
          {
            "duration": 0.10869549999999961,
            "durationTicks": 96,
            "midi": 39,
            "name": "D#2",
            "ticks": 18432,
            "time": 20.869536,
            "velocity": 0.3937007874015748
          },
          {
            "duration": 0.10869549999999961,
            "durationTicks": 96,
            "midi": 63,
            "name": "D#4",
            "ticks": 18432,
            "time": 20.869536,
            "velocity": 0.3937007874015748
          },
          {
            "duration": 0.21739099999999922,
            "durationTicks": 192,
            "midi": 34,
            "name": "A#1",
            "ticks": 18432,
            "time": 20.869536,
            "velocity": 0.3937007874015748
          },
          {
            "duration": 0.10869549999999961,
            "durationTicks": 96,
            "midi": 75,
            "name": "D#5",
            "ticks": 18528,
            "time": 20.9782315,
            "velocity": 0.3937007874015748
          },
          {
            "duration": 0.10869549999999961,
            "durationTicks": 96,
            "midi": 73,
            "name": "C#5",
            "ticks": 18624,
            "time": 21.086927,
            "velocity": 0.3937007874015748
          },
          {
            "duration": 0.10869549999999961,
            "durationTicks": 96,
            "midi": 75,
            "name": "D#5",
            "ticks": 18720,
            "time": 21.1956225,
            "velocity": 0.3937007874015748
          },
          {
            "duration": 0.21739100000000278,
            "durationTicks": 192,
            "midi": 34,
            "name": "A#1",
            "ticks": 18816,
            "time": 21.304318,
            "velocity": 0.3937007874015748
          },
          {
            "duration": 0.10869550000000316,
            "durationTicks": 96,
            "midi": 63,
            "name": "D#4",
            "ticks": 18816,
            "time": 21.304318,
            "velocity": 0.3937007874015748
          },
          {
            "duration": 0.10869550000000316,
            "durationTicks": 96,
            "midi": 51,
            "name": "D#3",
            "ticks": 18816,
            "time": 21.304318,
            "velocity": 0.3937007874015748
          },
          {
            "duration": 0.10869550000000316,
            "durationTicks": 96,
            "midi": 46,
            "name": "A#2",
            "ticks": 18816,
            "time": 21.304318,
            "velocity": 0.3937007874015748
          },
          {
            "duration": 0.10869549999999961,
            "durationTicks": 96,
            "midi": 75,
            "name": "D#5",
            "ticks": 18912,
            "time": 21.4130135,
            "velocity": 0.3937007874015748
          },
          {
            "duration": 0.10869549999999961,
            "durationTicks": 96,
            "midi": 73,
            "name": "C#5",
            "ticks": 19008,
            "time": 21.521709,
            "velocity": 0.3937007874015748
          },
          {
            "duration": 0.10869549999999961,
            "durationTicks": 96,
            "midi": 75,
            "name": "D#5",
            "ticks": 19104,
            "time": 21.6304045,
            "velocity": 0.3937007874015748
          },
          {
            "duration": 0.10869549999999961,
            "durationTicks": 96,
            "midi": 39,
            "name": "D#2",
            "ticks": 19200,
            "time": 21.7391,
            "velocity": 0.3937007874015748
          },
          {
            "duration": 0.21739099999999922,
            "durationTicks": 192,
            "midi": 34,
            "name": "A#1",
            "ticks": 19200,
            "time": 21.7391,
            "velocity": 0.3937007874015748
          },
          {
            "duration": 0.10869549999999961,
            "durationTicks": 96,
            "midi": 63,
            "name": "D#4",
            "ticks": 19200,
            "time": 21.7391,
            "velocity": 0.3937007874015748
          },
          {
            "duration": 0.10869549999999961,
            "durationTicks": 96,
            "midi": 77,
            "name": "F5",
            "ticks": 19296,
            "time": 21.8477955,
            "velocity": 0.3937007874015748
          },
          {
            "duration": 0.10869549999999961,
            "durationTicks": 96,
            "midi": 78,
            "name": "F#5",
            "ticks": 19392,
            "time": 21.956491,
            "velocity": 0.3937007874015748
          },
          {
            "duration": 0.10869549999999961,
            "durationTicks": 96,
            "midi": 73,
            "name": "C#5",
            "ticks": 19488,
            "time": 22.0651865,
            "velocity": 0.3937007874015748
          },
          {
            "duration": 0.10869549999999961,
            "durationTicks": 96,
            "midi": 51,
            "name": "D#3",
            "ticks": 19584,
            "time": 22.173882,
            "velocity": 0.3937007874015748
          },
          {
            "duration": 0.10869549999999961,
            "durationTicks": 96,
            "midi": 46,
            "name": "A#2",
            "ticks": 19584,
            "time": 22.173882,
            "velocity": 0.3937007874015748
          },
          {
            "duration": 0.10869549999999961,
            "durationTicks": 96,
            "midi": 77,
            "name": "F5",
            "ticks": 19584,
            "time": 22.173882,
            "velocity": 0.3937007874015748
          },
          {
            "duration": 0.21739100000000278,
            "durationTicks": 192,
            "midi": 34,
            "name": "A#1",
            "ticks": 19584,
            "time": 22.173882,
            "velocity": 0.3937007874015748
          },
          {
            "duration": 0.10869550000000316,
            "durationTicks": 96,
            "midi": 78,
            "name": "F#5",
            "ticks": 19680,
            "time": 22.2825775,
            "velocity": 0.3937007874015748
          },
          {
            "duration": 0.10869549999999961,
            "durationTicks": 96,
            "midi": 80,
            "name": "G#5",
            "ticks": 19776,
            "time": 22.391273,
            "velocity": 0.3937007874015748
          },
          {
            "duration": 0.21739099999999922,
            "durationTicks": 192,
            "midi": 34,
            "name": "A#1",
            "ticks": 19776,
            "time": 22.391273,
            "velocity": 0.3937007874015748
          },
          {
            "duration": 0.10869549999999961,
            "durationTicks": 96,
            "midi": 51,
            "name": "D#3",
            "ticks": 19776,
            "time": 22.391273,
            "velocity": 0.3937007874015748
          },
          {
            "duration": 0.10869549999999961,
            "durationTicks": 96,
            "midi": 46,
            "name": "A#2",
            "ticks": 19776,
            "time": 22.391273,
            "velocity": 0.3937007874015748
          },
          {
            "duration": 0.10869549999999961,
            "durationTicks": 96,
            "midi": 73,
            "name": "C#5",
            "ticks": 19872,
            "time": 22.4999685,
            "velocity": 0.3937007874015748
          },
          {
            "duration": 0.10869549999999961,
            "durationTicks": 96,
            "midi": 39,
            "name": "D#2",
            "ticks": 19968,
            "time": 22.608664,
            "velocity": 0.3937007874015748
          },
          {
            "duration": 0.10869549999999961,
            "durationTicks": 96,
            "midi": 63,
            "name": "D#4",
            "ticks": 19968,
            "time": 22.608664,
            "velocity": 0.3937007874015748
          },
          {
            "duration": 0.21739099999999922,
            "durationTicks": 192,
            "midi": 34,
            "name": "A#1",
            "ticks": 19968,
            "time": 22.608664,
            "velocity": 0.3937007874015748
          },
          {
            "duration": 0.10869549999999961,
            "durationTicks": 96,
            "midi": 75,
            "name": "D#5",
            "ticks": 20064,
            "time": 22.7173595,
            "velocity": 0.3937007874015748
          },
          {
            "duration": 0.10869549999999961,
            "durationTicks": 96,
            "midi": 73,
            "name": "C#5",
            "ticks": 20160,
            "time": 22.826055,
            "velocity": 0.3937007874015748
          },
          {
            "duration": 0.10869549999999961,
            "durationTicks": 96,
            "midi": 75,
            "name": "D#5",
            "ticks": 20256,
            "time": 22.9347505,
            "velocity": 0.3937007874015748
          },
          {
            "duration": 0.10869549999999961,
            "durationTicks": 96,
            "midi": 46,
            "name": "A#2",
            "ticks": 20352,
            "time": 23.043446,
            "velocity": 0.3937007874015748
          },
          {
            "duration": 0.10869549999999961,
            "durationTicks": 96,
            "midi": 51,
            "name": "D#3",
            "ticks": 20352,
            "time": 23.043446,
            "velocity": 0.3937007874015748
          },
          {
            "duration": 0.21739099999999922,
            "durationTicks": 192,
            "midi": 34,
            "name": "A#1",
            "ticks": 20352,
            "time": 23.043446,
            "velocity": 0.3937007874015748
          },
          {
            "duration": 0.10869549999999961,
            "durationTicks": 96,
            "midi": 63,
            "name": "D#4",
            "ticks": 20352,
            "time": 23.043446,
            "velocity": 0.3937007874015748
          },
          {
            "duration": 0.10869549999999961,
            "durationTicks": 96,
            "midi": 75,
            "name": "D#5",
            "ticks": 20448,
            "time": 23.1521415,
            "velocity": 0.3937007874015748
          },
          {
            "duration": 0.10869550000000316,
            "durationTicks": 96,
            "midi": 73,
            "name": "C#5",
            "ticks": 20544,
            "time": 23.260837,
            "velocity": 0.3937007874015748
          },
          {
            "duration": 0.10869549999999961,
            "durationTicks": 96,
            "midi": 75,
            "name": "D#5",
            "ticks": 20640,
            "time": 23.369532500000002,
            "velocity": 0.3937007874015748
          },
          {
            "duration": 0.10869549999999961,
            "durationTicks": 96,
            "midi": 39,
            "name": "D#2",
            "ticks": 20736,
            "time": 23.478228,
            "velocity": 0.3937007874015748
          },
          {
            "duration": 0.21739099999999922,
            "durationTicks": 192,
            "midi": 34,
            "name": "A#1",
            "ticks": 20736,
            "time": 23.478228,
            "velocity": 0.3937007874015748
          },
          {
            "duration": 0.10869549999999961,
            "durationTicks": 96,
            "midi": 63,
            "name": "D#4",
            "ticks": 20736,
            "time": 23.478228,
            "velocity": 0.3937007874015748
          },
          {
            "duration": 0.10869549999999961,
            "durationTicks": 96,
            "midi": 75,
            "name": "D#5",
            "ticks": 20832,
            "time": 23.5869235,
            "velocity": 0.3937007874015748
          },
          {
            "duration": 0.10869549999999961,
            "durationTicks": 96,
            "midi": 73,
            "name": "C#5",
            "ticks": 20928,
            "time": 23.695619,
            "velocity": 0.3937007874015748
          },
          {
            "duration": 0.10869549999999961,
            "durationTicks": 96,
            "midi": 75,
            "name": "D#5",
            "ticks": 21024,
            "time": 23.8043145,
            "velocity": 0.3937007874015748
          },
          {
            "duration": 0.10869549999999961,
            "durationTicks": 96,
            "midi": 34,
            "name": "A#1",
            "ticks": 21120,
            "time": 23.91301,
            "velocity": 0.3937007874015748
          },
          {
            "duration": 0.10869549999999961,
            "durationTicks": 96,
            "midi": 46,
            "name": "A#2",
            "ticks": 21120,
            "time": 23.91301,
            "velocity": 0.3937007874015748
          },
          {
            "duration": 0.10869549999999961,
            "durationTicks": 96,
            "midi": 63,
            "name": "D#4",
            "ticks": 21120,
            "time": 23.91301,
            "velocity": 0.3937007874015748
          },
          {
            "duration": 0.10869549999999961,
            "durationTicks": 96,
            "midi": 51,
            "name": "D#3",
            "ticks": 21120,
            "time": 23.91301,
            "velocity": 0.3937007874015748
          },
          {
            "duration": 0.10869549999999961,
            "durationTicks": 96,
            "midi": 51,
            "name": "D#3",
            "ticks": 21216,
            "time": 24.0217055,
            "velocity": 0.3937007874015748
          },
          {
            "duration": 0.10869549999999961,
            "durationTicks": 96,
            "midi": 46,
            "name": "A#2",
            "ticks": 21216,
            "time": 24.0217055,
            "velocity": 0.3937007874015748
          },
          {
            "duration": 0.10869549999999961,
            "durationTicks": 96,
            "midi": 75,
            "name": "D#5",
            "ticks": 21216,
            "time": 24.0217055,
            "velocity": 0.3937007874015748
          },
          {
            "duration": 0.10869549999999961,
            "durationTicks": 96,
            "midi": 34,
            "name": "A#1",
            "ticks": 21216,
            "time": 24.0217055,
            "velocity": 0.3937007874015748
          },
          {
            "duration": 0.10869549999999961,
            "durationTicks": 96,
            "midi": 73,
            "name": "C#5",
            "ticks": 21312,
            "time": 24.130401,
            "velocity": 0.3937007874015748
          },
          {
            "duration": 0.10869549999999961,
            "durationTicks": 96,
            "midi": 46,
            "name": "A#2",
            "ticks": 21312,
            "time": 24.130401,
            "velocity": 0.3937007874015748
          },
          {
            "duration": 0.10869549999999961,
            "durationTicks": 96,
            "midi": 34,
            "name": "A#1",
            "ticks": 21312,
            "time": 24.130401,
            "velocity": 0.3937007874015748
          },
          {
            "duration": 0.10869549999999961,
            "durationTicks": 96,
            "midi": 51,
            "name": "D#3",
            "ticks": 21312,
            "time": 24.130401,
            "velocity": 0.3937007874015748
          },
          {
            "duration": 0.10869549999999961,
            "durationTicks": 96,
            "midi": 51,
            "name": "D#3",
            "ticks": 21408,
            "time": 24.2390965,
            "velocity": 0.3937007874015748
          },
          {
            "duration": 0.10869549999999961,
            "durationTicks": 96,
            "midi": 46,
            "name": "A#2",
            "ticks": 21408,
            "time": 24.2390965,
            "velocity": 0.3937007874015748
          },
          {
            "duration": 0.10869549999999961,
            "durationTicks": 96,
            "midi": 34,
            "name": "A#1",
            "ticks": 21408,
            "time": 24.2390965,
            "velocity": 0.3937007874015748
          },
          {
            "duration": 0.10869549999999961,
            "durationTicks": 96,
            "midi": 75,
            "name": "D#5",
            "ticks": 21408,
            "time": 24.2390965,
            "velocity": 0.3937007874015748
          },
          {
            "duration": 0.21739100000000278,
            "durationTicks": 192,
            "midi": 34,
            "name": "A#1",
            "ticks": 21504,
            "time": 24.347792,
            "velocity": 0.3937007874015748
          },
          {
            "duration": 0.10869550000000316,
            "durationTicks": 96,
            "midi": 63,
            "name": "D#4",
            "ticks": 21504,
            "time": 24.347792,
            "velocity": 0.3937007874015748
          },
          {
            "duration": 0.10869550000000316,
            "durationTicks": 96,
            "midi": 39,
            "name": "D#2",
            "ticks": 21504,
            "time": 24.347792,
            "velocity": 0.3937007874015748
          },
          {
            "duration": 0.10869549999999961,
            "durationTicks": 96,
            "midi": 75,
            "name": "D#5",
            "ticks": 21600,
            "time": 24.4564875,
            "velocity": 0.3937007874015748
          },
          {
            "duration": 0.10869549999999961,
            "durationTicks": 96,
            "midi": 73,
            "name": "C#5",
            "ticks": 21696,
            "time": 24.565183,
            "velocity": 0.3937007874015748
          },
          {
            "duration": 0.10869549999999961,
            "durationTicks": 96,
            "midi": 75,
            "name": "D#5",
            "ticks": 21792,
            "time": 24.6738785,
            "velocity": 0.3937007874015748
          },
          {
            "duration": 0.10869549999999961,
            "durationTicks": 96,
            "midi": 63,
            "name": "D#4",
            "ticks": 21888,
            "time": 24.782574,
            "velocity": 0.3937007874015748
          },
          {
            "duration": 0.21739099999999922,
            "durationTicks": 192,
            "midi": 34,
            "name": "A#1",
            "ticks": 21888,
            "time": 24.782574,
            "velocity": 0.3937007874015748
          },
          {
            "duration": 0.10869549999999961,
            "durationTicks": 96,
            "midi": 51,
            "name": "D#3",
            "ticks": 21888,
            "time": 24.782574,
            "velocity": 0.3937007874015748
          },
          {
            "duration": 0.10869549999999961,
            "durationTicks": 96,
            "midi": 46,
            "name": "A#2",
            "ticks": 21888,
            "time": 24.782574,
            "velocity": 0.3937007874015748
          },
          {
            "duration": 0.10869549999999961,
            "durationTicks": 96,
            "midi": 75,
            "name": "D#5",
            "ticks": 21984,
            "time": 24.8912695,
            "velocity": 0.3937007874015748
          },
          {
            "duration": 0.10869549999999961,
            "durationTicks": 96,
            "midi": 73,
            "name": "C#5",
            "ticks": 22080,
            "time": 24.999965,
            "velocity": 0.3937007874015748
          },
          {
            "duration": 0.10869549999999961,
            "durationTicks": 96,
            "midi": 75,
            "name": "D#5",
            "ticks": 22176,
            "time": 25.1086605,
            "velocity": 0.3937007874015748
          },
          {
            "duration": 0.21739100000000278,
            "durationTicks": 192,
            "midi": 34,
            "name": "A#1",
            "ticks": 22272,
            "time": 25.217356,
            "velocity": 0.3937007874015748
          },
          {
            "duration": 0.10869549999999961,
            "durationTicks": 96,
            "midi": 39,
            "name": "D#2",
            "ticks": 22272,
            "time": 25.217356,
            "velocity": 0.3937007874015748
          },
          {
            "duration": 0.10869549999999961,
            "durationTicks": 96,
            "midi": 65,
            "name": "F4",
            "ticks": 22272,
            "time": 25.217356,
            "velocity": 0.3937007874015748
          },
          {
            "duration": 0.10869550000000316,
            "durationTicks": 96,
            "midi": 70,
            "name": "A#4",
            "ticks": 22368,
            "time": 25.3260515,
            "velocity": 0.3937007874015748
          },
          {
            "duration": 0.10869549999999961,
            "durationTicks": 96,
            "midi": 74,
            "name": "D5",
            "ticks": 22464,
            "time": 25.434747,
            "velocity": 0.3937007874015748
          },
          {
            "duration": 0.10869549999999961,
            "durationTicks": 96,
            "midi": 77,
            "name": "F5",
            "ticks": 22560,
            "time": 25.5434425,
            "velocity": 0.3937007874015748
          },
          {
            "duration": 0.10869549999999961,
            "durationTicks": 96,
            "midi": 51,
            "name": "D#3",
            "ticks": 22656,
            "time": 25.652138,
            "velocity": 0.3937007874015748
          },
          {
            "duration": 0.10869549999999961,
            "durationTicks": 96,
            "midi": 46,
            "name": "A#2",
            "ticks": 22656,
            "time": 25.652138,
            "velocity": 0.3937007874015748
          },
          {
            "duration": 0.21739099999999922,
            "durationTicks": 192,
            "midi": 34,
            "name": "A#1",
            "ticks": 22656,
            "time": 25.652138,
            "velocity": 0.3937007874015748
          },
          {
            "duration": 0.10869549999999961,
            "durationTicks": 96,
            "midi": 66,
            "name": "F#4",
            "ticks": 22656,
            "time": 25.652138,
            "velocity": 0.3937007874015748
          },
          {
            "duration": 0.10869549999999961,
            "durationTicks": 96,
            "midi": 73,
            "name": "C#5",
            "ticks": 22752,
            "time": 25.7608335,
            "velocity": 0.3937007874015748
          },
          {
            "duration": 0.10869549999999961,
            "durationTicks": 96,
            "midi": 78,
            "name": "F#5",
            "ticks": 22848,
            "time": 25.869529,
            "velocity": 0.3937007874015748
          },
          {
            "duration": 0.10869549999999961,
            "durationTicks": 96,
            "midi": 51,
            "name": "D#3",
            "ticks": 22848,
            "time": 25.869529,
            "velocity": 0.3937007874015748
          },
          {
            "duration": 0.21739099999999922,
            "durationTicks": 192,
            "midi": 34,
            "name": "A#1",
            "ticks": 22848,
            "time": 25.869529,
            "velocity": 0.3937007874015748
          },
          {
            "duration": 0.10869549999999961,
            "durationTicks": 96,
            "midi": 46,
            "name": "A#2",
            "ticks": 22848,
            "time": 25.869529,
            "velocity": 0.3937007874015748
          },
          {
            "duration": 0.10869549999999961,
            "durationTicks": 96,
            "midi": 82,
            "name": "A#5",
            "ticks": 22944,
            "time": 25.9782245,
            "velocity": 0.3937007874015748
          },
          {
            "duration": 0.10869549999999961,
            "durationTicks": 96,
            "midi": 63,
            "name": "D#4",
            "ticks": 23040,
            "time": 26.08692,
            "velocity": 0.3937007874015748
          },
          {
            "duration": 0.10869549999999961,
            "durationTicks": 96,
            "midi": 39,
            "name": "D#2",
            "ticks": 23040,
            "time": 26.08692,
            "velocity": 0.3937007874015748
          },
          {
            "duration": 0.21739099999999922,
            "durationTicks": 192,
            "midi": 34,
            "name": "A#1",
            "ticks": 23040,
            "time": 26.08692,
            "velocity": 0.3937007874015748
          },
          {
            "duration": 0.10869549999999961,
            "durationTicks": 96,
            "midi": 75,
            "name": "D#5",
            "ticks": 23136,
            "time": 26.1956155,
            "velocity": 0.3937007874015748
          },
          {
            "duration": 0.10869550000000316,
            "durationTicks": 96,
            "midi": 73,
            "name": "C#5",
            "ticks": 23232,
            "time": 26.304311,
            "velocity": 0.3937007874015748
          },
          {
            "duration": 0.10869549999999961,
            "durationTicks": 96,
            "midi": 75,
            "name": "D#5",
            "ticks": 23328,
            "time": 26.4130065,
            "velocity": 0.3937007874015748
          },
          {
            "duration": 0.10869549999999961,
            "durationTicks": 96,
            "midi": 46,
            "name": "A#2",
            "ticks": 23424,
            "time": 26.521702,
            "velocity": 0.3937007874015748
          },
          {
            "duration": 0.10869549999999961,
            "durationTicks": 96,
            "midi": 63,
            "name": "D#4",
            "ticks": 23424,
            "time": 26.521702,
            "velocity": 0.3937007874015748
          },
          {
            "duration": 0.10869549999999961,
            "durationTicks": 96,
            "midi": 51,
            "name": "D#3",
            "ticks": 23424,
            "time": 26.521702,
            "velocity": 0.3937007874015748
          },
          {
            "duration": 0.21739099999999922,
            "durationTicks": 192,
            "midi": 34,
            "name": "A#1",
            "ticks": 23424,
            "time": 26.521702,
            "velocity": 0.3937007874015748
          },
          {
            "duration": 0.10869549999999961,
            "durationTicks": 96,
            "midi": 75,
            "name": "D#5",
            "ticks": 23520,
            "time": 26.6303975,
            "velocity": 0.3937007874015748
          },
          {
            "duration": 0.10869549999999961,
            "durationTicks": 96,
            "midi": 73,
            "name": "C#5",
            "ticks": 23616,
            "time": 26.739093,
            "velocity": 0.3937007874015748
          },
          {
            "duration": 0.10869549999999961,
            "durationTicks": 96,
            "midi": 75,
            "name": "D#5",
            "ticks": 23712,
            "time": 26.8477885,
            "velocity": 0.3937007874015748
          },
          {
            "duration": 0.10869549999999961,
            "durationTicks": 96,
            "midi": 39,
            "name": "D#2",
            "ticks": 23808,
            "time": 26.956484,
            "velocity": 0.3937007874015748
          },
          {
            "duration": 0.10869549999999961,
            "durationTicks": 96,
            "midi": 63,
            "name": "D#4",
            "ticks": 23808,
            "time": 26.956484,
            "velocity": 0.3937007874015748
          },
          {
            "duration": 0.21739099999999922,
            "durationTicks": 192,
            "midi": 34,
            "name": "A#1",
            "ticks": 23808,
            "time": 26.956484,
            "velocity": 0.3937007874015748
          },
          {
            "duration": 0.10869549999999961,
            "durationTicks": 96,
            "midi": 75,
            "name": "D#5",
            "ticks": 23904,
            "time": 27.0651795,
            "velocity": 0.3937007874015748
          },
          {
            "duration": 0.10869549999999961,
            "durationTicks": 96,
            "midi": 73,
            "name": "C#5",
            "ticks": 24000,
            "time": 27.173875,
            "velocity": 0.3937007874015748
          },
          {
            "duration": 0.10869550000000316,
            "durationTicks": 96,
            "midi": 75,
            "name": "D#5",
            "ticks": 24096,
            "time": 27.2825705,
            "velocity": 0.3937007874015748
          },
          {
            "duration": 0.10869549999999961,
            "durationTicks": 96,
            "midi": 34,
            "name": "A#1",
            "ticks": 24192,
            "time": 27.391266,
            "velocity": 0.3937007874015748
          },
          {
            "duration": 0.10869549999999961,
            "durationTicks": 96,
            "midi": 63,
            "name": "D#4",
            "ticks": 24192,
            "time": 27.391266,
            "velocity": 0.3937007874015748
          },
          {
            "duration": 0.10869549999999961,
            "durationTicks": 96,
            "midi": 46,
            "name": "A#2",
            "ticks": 24192,
            "time": 27.391266,
            "velocity": 0.3937007874015748
          },
          {
            "duration": 0.10869549999999961,
            "durationTicks": 96,
            "midi": 51,
            "name": "D#3",
            "ticks": 24192,
            "time": 27.391266,
            "velocity": 0.3937007874015748
          },
          {
            "duration": 0.10869549999999961,
            "durationTicks": 96,
            "midi": 51,
            "name": "D#3",
            "ticks": 24288,
            "time": 27.4999615,
            "velocity": 0.3937007874015748
          },
          {
            "duration": 0.10869549999999961,
            "durationTicks": 96,
            "midi": 46,
            "name": "A#2",
            "ticks": 24288,
            "time": 27.4999615,
            "velocity": 0.3937007874015748
          },
          {
            "duration": 0.10869549999999961,
            "durationTicks": 96,
            "midi": 75,
            "name": "D#5",
            "ticks": 24288,
            "time": 27.4999615,
            "velocity": 0.3937007874015748
          },
          {
            "duration": 0.10869549999999961,
            "durationTicks": 96,
            "midi": 34,
            "name": "A#1",
            "ticks": 24288,
            "time": 27.4999615,
            "velocity": 0.3937007874015748
          },
          {
            "duration": 0.10869549999999961,
            "durationTicks": 96,
            "midi": 46,
            "name": "A#2",
            "ticks": 24384,
            "time": 27.608657,
            "velocity": 0.3937007874015748
          },
          {
            "duration": 0.10869549999999961,
            "durationTicks": 96,
            "midi": 34,
            "name": "A#1",
            "ticks": 24384,
            "time": 27.608657,
            "velocity": 0.3937007874015748
          },
          {
            "duration": 0.10869549999999961,
            "durationTicks": 96,
            "midi": 51,
            "name": "D#3",
            "ticks": 24384,
            "time": 27.608657,
            "velocity": 0.3937007874015748
          },
          {
            "duration": 0.10869549999999961,
            "durationTicks": 96,
            "midi": 73,
            "name": "C#5",
            "ticks": 24384,
            "time": 27.608657,
            "velocity": 0.3937007874015748
          },
          {
            "duration": 0.10869549999999961,
            "durationTicks": 96,
            "midi": 46,
            "name": "A#2",
            "ticks": 24480,
            "time": 27.7173525,
            "velocity": 0.3937007874015748
          },
          {
            "duration": 0.10869549999999961,
            "durationTicks": 96,
            "midi": 51,
            "name": "D#3",
            "ticks": 24480,
            "time": 27.7173525,
            "velocity": 0.3937007874015748
          },
          {
            "duration": 0.10869549999999961,
            "durationTicks": 96,
            "midi": 75,
            "name": "D#5",
            "ticks": 24480,
            "time": 27.7173525,
            "velocity": 0.3937007874015748
          },
          {
            "duration": 0.10869549999999961,
            "durationTicks": 96,
            "midi": 34,
            "name": "A#1",
            "ticks": 24480,
            "time": 27.7173525,
            "velocity": 0.3937007874015748
          },
          {
            "duration": 0.21739099999999922,
            "durationTicks": 192,
            "midi": 34,
            "name": "A#1",
            "ticks": 24576,
            "time": 27.826048,
            "velocity": 0.3937007874015748
          },
          {
            "duration": 0.10869549999999961,
            "durationTicks": 96,
            "midi": 39,
            "name": "D#2",
            "ticks": 24576,
            "time": 27.826048,
            "velocity": 0.3937007874015748
          },
          {
            "duration": 0.10869549999999961,
            "durationTicks": 96,
            "midi": 63,
            "name": "D#4",
            "ticks": 24576,
            "time": 27.826048,
            "velocity": 0.3937007874015748
          },
          {
            "duration": 0.10869549999999961,
            "durationTicks": 96,
            "midi": 75,
            "name": "D#5",
            "ticks": 24672,
            "time": 27.9347435,
            "velocity": 0.3937007874015748
          },
          {
            "duration": 0.10869549999999961,
            "durationTicks": 96,
            "midi": 73,
            "name": "C#5",
            "ticks": 24768,
            "time": 28.043439,
            "velocity": 0.3937007874015748
          },
          {
            "duration": 0.10869549999999961,
            "durationTicks": 96,
            "midi": 75,
            "name": "D#5",
            "ticks": 24864,
            "time": 28.1521345,
            "velocity": 0.3937007874015748
          },
          {
            "duration": 0.10869550000000316,
            "durationTicks": 96,
            "midi": 46,
            "name": "A#2",
            "ticks": 24960,
            "time": 28.26083,
            "velocity": 0.3937007874015748
          },
          {
            "duration": 0.10869550000000316,
            "durationTicks": 96,
            "midi": 51,
            "name": "D#3",
            "ticks": 24960,
            "time": 28.26083,
            "velocity": 0.3937007874015748
          },
          {
            "duration": 0.10869550000000316,
            "durationTicks": 96,
            "midi": 63,
            "name": "D#4",
            "ticks": 24960,
            "time": 28.26083,
            "velocity": 0.3937007874015748
          },
          {
            "duration": 0.21739100000000278,
            "durationTicks": 192,
            "midi": 34,
            "name": "A#1",
            "ticks": 24960,
            "time": 28.26083,
            "velocity": 0.3937007874015748
          },
          {
            "duration": 0.10869549999999961,
            "durationTicks": 96,
            "midi": 75,
            "name": "D#5",
            "ticks": 25056,
            "time": 28.3695255,
            "velocity": 0.3937007874015748
          },
          {
            "duration": 0.10869549999999961,
            "durationTicks": 96,
            "midi": 73,
            "name": "C#5",
            "ticks": 25152,
            "time": 28.478221,
            "velocity": 0.3937007874015748
          },
          {
            "duration": 0.10869549999999961,
            "durationTicks": 96,
            "midi": 75,
            "name": "D#5",
            "ticks": 25248,
            "time": 28.5869165,
            "velocity": 0.3937007874015748
          },
          {
            "duration": 0.10869549999999961,
            "durationTicks": 96,
            "midi": 63,
            "name": "D#4",
            "ticks": 25344,
            "time": 28.695612,
            "velocity": 0.3937007874015748
          },
          {
            "duration": 0.21739099999999922,
            "durationTicks": 192,
            "midi": 34,
            "name": "A#1",
            "ticks": 25344,
            "time": 28.695612,
            "velocity": 0.3937007874015748
          },
          {
            "duration": 0.10869549999999961,
            "durationTicks": 96,
            "midi": 39,
            "name": "D#2",
            "ticks": 25344,
            "time": 28.695612,
            "velocity": 0.3937007874015748
          },
          {
            "duration": 0.10869549999999961,
            "durationTicks": 96,
            "midi": 77,
            "name": "F5",
            "ticks": 25440,
            "time": 28.8043075,
            "velocity": 0.3937007874015748
          },
          {
            "duration": 0.10869549999999961,
            "durationTicks": 96,
            "midi": 78,
            "name": "F#5",
            "ticks": 25536,
            "time": 28.913003,
            "velocity": 0.3937007874015748
          },
          {
            "duration": 0.10869549999999961,
            "durationTicks": 96,
            "midi": 73,
            "name": "C#5",
            "ticks": 25632,
            "time": 29.0216985,
            "velocity": 0.3937007874015748
          },
          {
            "duration": 0.10869549999999961,
            "durationTicks": 96,
            "midi": 77,
            "name": "F5",
            "ticks": 25728,
            "time": 29.130394,
            "velocity": 0.3937007874015748
          },
          {
            "duration": 0.10869549999999961,
            "durationTicks": 96,
            "midi": 51,
            "name": "D#3",
            "ticks": 25728,
            "time": 29.130394,
            "velocity": 0.3937007874015748
          },
          {
            "duration": 0.21739100000000278,
            "durationTicks": 192,
            "midi": 34,
            "name": "A#1",
            "ticks": 25728,
            "time": 29.130394,
            "velocity": 0.3937007874015748
          },
          {
            "duration": 0.10869549999999961,
            "durationTicks": 96,
            "midi": 46,
            "name": "A#2",
            "ticks": 25728,
            "time": 29.130394,
            "velocity": 0.3937007874015748
          },
          {
            "duration": 0.10869550000000316,
            "durationTicks": 96,
            "midi": 78,
            "name": "F#5",
            "ticks": 25824,
            "time": 29.2390895,
            "velocity": 0.3937007874015748
          },
          {
            "duration": 0.10869549999999961,
            "durationTicks": 96,
            "midi": 80,
            "name": "G#5",
            "ticks": 25920,
            "time": 29.347785000000002,
            "velocity": 0.3937007874015748
          },
          {
            "duration": 0.10869549999999961,
            "durationTicks": 96,
            "midi": 51,
            "name": "D#3",
            "ticks": 25920,
            "time": 29.347785000000002,
            "velocity": 0.3937007874015748
          },
          {
            "duration": 0.21739099999999922,
            "durationTicks": 192,
            "midi": 34,
            "name": "A#1",
            "ticks": 25920,
            "time": 29.347785000000002,
            "velocity": 0.3937007874015748
          },
          {
            "duration": 0.10869549999999961,
            "durationTicks": 96,
            "midi": 46,
            "name": "A#2",
            "ticks": 25920,
            "time": 29.347785000000002,
            "velocity": 0.3937007874015748
          },
          {
            "duration": 0.10869549999999961,
            "durationTicks": 96,
            "midi": 73,
            "name": "C#5",
            "ticks": 26016,
            "time": 29.4564805,
            "velocity": 0.3937007874015748
          },
          {
            "duration": 0.10869549999999961,
            "durationTicks": 96,
            "midi": 39,
            "name": "D#2",
            "ticks": 26112,
            "time": 29.565176,
            "velocity": 0.3937007874015748
          },
          {
            "duration": 0.21739099999999922,
            "durationTicks": 192,
            "midi": 34,
            "name": "A#1",
            "ticks": 26112,
            "time": 29.565176,
            "velocity": 0.3937007874015748
          },
          {
            "duration": 0.10869549999999961,
            "durationTicks": 96,
            "midi": 63,
            "name": "D#4",
            "ticks": 26112,
            "time": 29.565176,
            "velocity": 0.3937007874015748
          },
          {
            "duration": 0.10869549999999961,
            "durationTicks": 96,
            "midi": 75,
            "name": "D#5",
            "ticks": 26208,
            "time": 29.6738715,
            "velocity": 0.3937007874015748
          },
          {
            "duration": 0.10869549999999961,
            "durationTicks": 96,
            "midi": 73,
            "name": "C#5",
            "ticks": 26304,
            "time": 29.782567,
            "velocity": 0.3937007874015748
          },
          {
            "duration": 0.10869549999999961,
            "durationTicks": 96,
            "midi": 75,
            "name": "D#5",
            "ticks": 26400,
            "time": 29.8912625,
            "velocity": 0.3937007874015748
          },
          {
            "duration": 0.21739099999999922,
            "durationTicks": 192,
            "midi": 34,
            "name": "A#1",
            "ticks": 26496,
            "time": 29.999958,
            "velocity": 0.3937007874015748
          },
          {
            "duration": 0.10869549999999961,
            "durationTicks": 96,
            "midi": 46,
            "name": "A#2",
            "ticks": 26496,
            "time": 29.999958,
            "velocity": 0.3937007874015748
          },
          {
            "duration": 0.10869549999999961,
            "durationTicks": 96,
            "midi": 51,
            "name": "D#3",
            "ticks": 26496,
            "time": 29.999958,
            "velocity": 0.3937007874015748
          },
          {
            "duration": 0.10869549999999961,
            "durationTicks": 96,
            "midi": 63,
            "name": "D#4",
            "ticks": 26496,
            "time": 29.999958,
            "velocity": 0.3937007874015748
          },
          {
            "duration": 0.10869549999999961,
            "durationTicks": 96,
            "midi": 75,
            "name": "D#5",
            "ticks": 26592,
            "time": 30.1086535,
            "velocity": 0.3937007874015748
          },
          {
            "duration": 0.10869550000000316,
            "durationTicks": 96,
            "midi": 73,
            "name": "C#5",
            "ticks": 26688,
            "time": 30.217349,
            "velocity": 0.3937007874015748
          },
          {
            "duration": 0.10869549999999961,
            "durationTicks": 96,
            "midi": 75,
            "name": "D#5",
            "ticks": 26784,
            "time": 30.326044500000002,
            "velocity": 0.3937007874015748
          },
          {
            "duration": 0.10869549999999961,
            "durationTicks": 96,
            "midi": 39,
            "name": "D#2",
            "ticks": 26880,
            "time": 30.43474,
            "velocity": 0.3937007874015748
          },
          {
            "duration": 0.21739099999999922,
            "durationTicks": 192,
            "midi": 34,
            "name": "A#1",
            "ticks": 26880,
            "time": 30.43474,
            "velocity": 0.3937007874015748
          },
          {
            "duration": 0.10869549999999961,
            "durationTicks": 96,
            "midi": 63,
            "name": "D#4",
            "ticks": 26880,
            "time": 30.43474,
            "velocity": 0.3937007874015748
          },
          {
            "duration": 0.10869549999999961,
            "durationTicks": 96,
            "midi": 75,
            "name": "D#5",
            "ticks": 26976,
            "time": 30.5434355,
            "velocity": 0.3937007874015748
          },
          {
            "duration": 0.10869549999999961,
            "durationTicks": 96,
            "midi": 73,
            "name": "C#5",
            "ticks": 27072,
            "time": 30.652131,
            "velocity": 0.3937007874015748
          },
          {
            "duration": 0.10869549999999961,
            "durationTicks": 96,
            "midi": 75,
            "name": "D#5",
            "ticks": 27168,
            "time": 30.7608265,
            "velocity": 0.3937007874015748
          },
          {
            "duration": 0.10869549999999961,
            "durationTicks": 96,
            "midi": 51,
            "name": "D#3",
            "ticks": 27264,
            "time": 30.869522,
            "velocity": 0.3937007874015748
          },
          {
            "duration": 0.10869549999999961,
            "durationTicks": 96,
            "midi": 46,
            "name": "A#2",
            "ticks": 27264,
            "time": 30.869522,
            "velocity": 0.3937007874015748
          },
          {
            "duration": 0.10869549999999961,
            "durationTicks": 96,
            "midi": 63,
            "name": "D#4",
            "ticks": 27264,
            "time": 30.869522,
            "velocity": 0.3937007874015748
          },
          {
            "duration": 0.10869549999999961,
            "durationTicks": 96,
            "midi": 34,
            "name": "A#1",
            "ticks": 27264,
            "time": 30.869522,
            "velocity": 0.3937007874015748
          },
          {
            "duration": 0.10869549999999961,
            "durationTicks": 96,
            "midi": 75,
            "name": "D#5",
            "ticks": 27360,
            "time": 30.9782175,
            "velocity": 0.3937007874015748
          },
          {
            "duration": 0.10869549999999961,
            "durationTicks": 96,
            "midi": 46,
            "name": "A#2",
            "ticks": 27360,
            "time": 30.9782175,
            "velocity": 0.3937007874015748
          },
          {
            "duration": 0.10869549999999961,
            "durationTicks": 96,
            "midi": 51,
            "name": "D#3",
            "ticks": 27360,
            "time": 30.9782175,
            "velocity": 0.3937007874015748
          },
          {
            "duration": 0.10869549999999961,
            "durationTicks": 96,
            "midi": 34,
            "name": "A#1",
            "ticks": 27360,
            "time": 30.9782175,
            "velocity": 0.3937007874015748
          },
          {
            "duration": 0.10869549999999961,
            "durationTicks": 96,
            "midi": 46,
            "name": "A#2",
            "ticks": 27456,
            "time": 31.086913,
            "velocity": 0.3937007874015748
          },
          {
            "duration": 0.10869549999999961,
            "durationTicks": 96,
            "midi": 34,
            "name": "A#1",
            "ticks": 27456,
            "time": 31.086913,
            "velocity": 0.3937007874015748
          },
          {
            "duration": 0.10869549999999961,
            "durationTicks": 96,
            "midi": 73,
            "name": "C#5",
            "ticks": 27456,
            "time": 31.086913,
            "velocity": 0.3937007874015748
          },
          {
            "duration": 0.10869549999999961,
            "durationTicks": 96,
            "midi": 51,
            "name": "D#3",
            "ticks": 27456,
            "time": 31.086913,
            "velocity": 0.3937007874015748
          },
          {
            "duration": 0.10869550000000316,
            "durationTicks": 96,
            "midi": 51,
            "name": "D#3",
            "ticks": 27552,
            "time": 31.1956085,
            "velocity": 0.3937007874015748
          },
          {
            "duration": 0.10869550000000316,
            "durationTicks": 96,
            "midi": 75,
            "name": "D#5",
            "ticks": 27552,
            "time": 31.1956085,
            "velocity": 0.3937007874015748
          },
          {
            "duration": 0.10869550000000316,
            "durationTicks": 96,
            "midi": 34,
            "name": "A#1",
            "ticks": 27552,
            "time": 31.1956085,
            "velocity": 0.3937007874015748
          },
          {
            "duration": 0.10869550000000316,
            "durationTicks": 96,
            "midi": 46,
            "name": "A#2",
            "ticks": 27552,
            "time": 31.1956085,
            "velocity": 0.3937007874015748
          },
          {
            "duration": 0.10869549999999961,
            "durationTicks": 96,
            "midi": 63,
            "name": "D#4",
            "ticks": 27648,
            "time": 31.304304000000002,
            "velocity": 0.3937007874015748
          },
          {
            "duration": 0.21739099999999922,
            "durationTicks": 192,
            "midi": 34,
            "name": "A#1",
            "ticks": 27648,
            "time": 31.304304000000002,
            "velocity": 0.3937007874015748
          },
          {
            "duration": 0.10869549999999961,
            "durationTicks": 96,
            "midi": 39,
            "name": "D#2",
            "ticks": 27648,
            "time": 31.304304000000002,
            "velocity": 0.3937007874015748
          },
          {
            "duration": 0.10869549999999961,
            "durationTicks": 96,
            "midi": 75,
            "name": "D#5",
            "ticks": 27744,
            "time": 31.4129995,
            "velocity": 0.3937007874015748
          },
          {
            "duration": 0.10869549999999961,
            "durationTicks": 96,
            "midi": 73,
            "name": "C#5",
            "ticks": 27840,
            "time": 31.521695,
            "velocity": 0.3937007874015748
          },
          {
            "duration": 0.10869549999999961,
            "durationTicks": 96,
            "midi": 75,
            "name": "D#5",
            "ticks": 27936,
            "time": 31.6303905,
            "velocity": 0.3937007874015748
          },
          {
            "duration": 0.10869549999999961,
            "durationTicks": 96,
            "midi": 63,
            "name": "D#4",
            "ticks": 28032,
            "time": 31.739086,
            "velocity": 0.3937007874015748
          },
          {
            "duration": 0.21739099999999922,
            "durationTicks": 192,
            "midi": 34,
            "name": "A#1",
            "ticks": 28032,
            "time": 31.739086,
            "velocity": 0.3937007874015748
          },
          {
            "duration": 0.10869549999999961,
            "durationTicks": 96,
            "midi": 46,
            "name": "A#2",
            "ticks": 28032,
            "time": 31.739086,
            "velocity": 0.3937007874015748
          },
          {
            "duration": 0.10869549999999961,
            "durationTicks": 96,
            "midi": 51,
            "name": "D#3",
            "ticks": 28032,
            "time": 31.739086,
            "velocity": 0.3937007874015748
          },
          {
            "duration": 0.10869549999999961,
            "durationTicks": 96,
            "midi": 75,
            "name": "D#5",
            "ticks": 28128,
            "time": 31.8477815,
            "velocity": 0.3937007874015748
          },
          {
            "duration": 0.10869550000000316,
            "durationTicks": 96,
            "midi": 73,
            "name": "C#5",
            "ticks": 28224,
            "time": 31.956477,
            "velocity": 0.3937007874015748
          },
          {
            "duration": 0.10869549999999606,
            "durationTicks": 96,
            "midi": 75,
            "name": "D#5",
            "ticks": 28320,
            "time": 32.0651725,
            "velocity": 0.3937007874015748
          },
          {
            "duration": 0.21739099999999922,
            "durationTicks": 192,
            "midi": 34,
            "name": "A#1",
            "ticks": 28416,
            "time": 32.173868,
            "velocity": 0.3937007874015748
          },
          {
            "duration": 0.10869550000000316,
            "durationTicks": 96,
            "midi": 39,
            "name": "D#2",
            "ticks": 28416,
            "time": 32.173868,
            "velocity": 0.3937007874015748
          },
          {
            "duration": 0.10869550000000316,
            "durationTicks": 96,
            "midi": 65,
            "name": "F4",
            "ticks": 28416,
            "time": 32.173868,
            "velocity": 0.3937007874015748
          },
          {
            "duration": 0.10869549999999606,
            "durationTicks": 96,
            "midi": 70,
            "name": "A#4",
            "ticks": 28512,
            "time": 32.2825635,
            "velocity": 0.3937007874015748
          },
          {
            "duration": 0.10869550000000316,
            "durationTicks": 96,
            "midi": 74,
            "name": "D5",
            "ticks": 28608,
            "time": 32.391259,
            "velocity": 0.3937007874015748
          },
          {
            "duration": 0.10869549999999606,
            "durationTicks": 96,
            "midi": 77,
            "name": "F5",
            "ticks": 28704,
            "time": 32.4999545,
            "velocity": 0.3937007874015748
          },
          {
            "duration": 0.10869549999999606,
            "durationTicks": 96,
            "midi": 87,
            "name": "D#6",
            "ticks": 29184,
            "time": 33.043432,
            "velocity": 0.3937007874015748
          },
          {
            "duration": 0.43478199999999845,
            "durationTicks": 384,
            "midi": 58,
            "name": "A#3",
            "ticks": 29184,
            "time": 33.043432,
            "velocity": 0.3937007874015748
          },
          {
            "duration": 0.43478199999999845,
            "durationTicks": 384,
            "midi": 54,
            "name": "F#3",
            "ticks": 29184,
            "time": 33.043432,
            "velocity": 0.3937007874015748
          },
          {
            "duration": 0.10869549999999606,
            "durationTicks": 96,
            "midi": 39,
            "name": "D#2",
            "ticks": 29184,
            "time": 33.043432,
            "velocity": 0.3937007874015748
          },
          {
            "duration": 0.21739099999999922,
            "durationTicks": 192,
            "midi": 34,
            "name": "A#1",
            "ticks": 29184,
            "time": 33.043432,
            "velocity": 0.3937007874015748
          },
          {
            "duration": 0.10869549999999606,
            "durationTicks": 96,
            "midi": 27,
            "name": "D#1",
            "ticks": 29184,
            "time": 33.043432,
            "velocity": 0.3937007874015748
          },
          {
            "duration": 0.43478199999999845,
            "durationTicks": 384,
            "midi": 63,
            "name": "D#4",
            "ticks": 29184,
            "time": 33.043432,
            "velocity": 0.3937007874015748
          },
          {
            "duration": 0.10869550000000316,
            "durationTicks": 96,
            "midi": 87,
            "name": "D#6",
            "ticks": 29280,
            "time": 33.1521275,
            "velocity": 0.3937007874015748
          },
          {
            "duration": 0.10869549999999606,
            "durationTicks": 96,
            "midi": 86,
            "name": "D6",
            "ticks": 29376,
            "time": 33.260823,
            "velocity": 0.3937007874015748
          },
          {
            "duration": 0.10869549999999606,
            "durationTicks": 96,
            "midi": 51,
            "name": "D#3",
            "ticks": 29376,
            "time": 33.260823,
            "velocity": 0.3937007874015748
          },
          {
            "duration": 0.10869549999999606,
            "durationTicks": 96,
            "midi": 39,
            "name": "D#2",
            "ticks": 29376,
            "time": 33.260823,
            "velocity": 0.3937007874015748
          },
          {
            "duration": 0.10869550000000316,
            "durationTicks": 96,
            "midi": 51,
            "name": "D#3",
            "ticks": 29472,
            "time": 33.3695185,
            "velocity": 0.3937007874015748
          },
          {
            "duration": 0.10869550000000316,
            "durationTicks": 96,
            "midi": 39,
            "name": "D#2",
            "ticks": 29472,
            "time": 33.3695185,
            "velocity": 0.3937007874015748
          },
          {
            "duration": 0.10869550000000316,
            "durationTicks": 96,
            "midi": 86,
            "name": "D6",
            "ticks": 29472,
            "time": 33.3695185,
            "velocity": 0.3937007874015748
          },
          {
            "duration": 0.43478199999999845,
            "durationTicks": 384,
            "midi": 63,
            "name": "D#4",
            "ticks": 29568,
            "time": 33.478214,
            "velocity": 0.3937007874015748
          },
          {
            "duration": 0.10869549999999606,
            "durationTicks": 96,
            "midi": 27,
            "name": "D#1",
            "ticks": 29568,
            "time": 33.478214,
            "velocity": 0.3937007874015748
          },
          {
            "duration": 0.10869549999999606,
            "durationTicks": 96,
            "midi": 39,
            "name": "D#2",
            "ticks": 29568,
            "time": 33.478214,
            "velocity": 0.3937007874015748
          },
          {
            "duration": 0.43478199999999845,
            "durationTicks": 384,
            "midi": 54,
            "name": "F#3",
            "ticks": 29568,
            "time": 33.478214,
            "velocity": 0.3937007874015748
          },
          {
            "duration": 0.43478199999999845,
            "durationTicks": 384,
            "midi": 58,
            "name": "A#3",
            "ticks": 29568,
            "time": 33.478214,
            "velocity": 0.3937007874015748
          },
          {
            "duration": 0.21739099999999922,
            "durationTicks": 192,
            "midi": 34,
            "name": "A#1",
            "ticks": 29568,
            "time": 33.478214,
            "velocity": 0.3937007874015748
          },
          {
            "duration": 0.10869549999999606,
            "durationTicks": 96,
            "midi": 85,
            "name": "C#6",
            "ticks": 29568,
            "time": 33.478214,
            "velocity": 0.3937007874015748
          },
          {
            "duration": 0.10869550000000316,
            "durationTicks": 96,
            "midi": 51,
            "name": "D#3",
            "ticks": 29664,
            "time": 33.5869095,
            "velocity": 0.3937007874015748
          },
          {
            "duration": 0.10869550000000316,
            "durationTicks": 96,
            "midi": 39,
            "name": "D#2",
            "ticks": 29664,
            "time": 33.5869095,
            "velocity": 0.3937007874015748
          },
          {
            "duration": 0.10869550000000316,
            "durationTicks": 96,
            "midi": 85,
            "name": "C#6",
            "ticks": 29664,
            "time": 33.5869095,
            "velocity": 0.3937007874015748
          },
          {
            "duration": 0.10869550000000316,
            "durationTicks": 96,
            "midi": 37,
            "name": "C#2",
            "ticks": 29760,
            "time": 33.695605,
            "velocity": 0.3937007874015748
          },
          {
            "duration": 0.10869550000000316,
            "durationTicks": 96,
            "midi": 84,
            "name": "C6",
            "ticks": 29760,
            "time": 33.695605,
            "velocity": 0.3937007874015748
          },
          {
            "duration": 0.10869550000000316,
            "durationTicks": 96,
            "midi": 49,
            "name": "C#3",
            "ticks": 29760,
            "time": 33.695605,
            "velocity": 0.3937007874015748
          },
          {
            "duration": 0.10869549999999606,
            "durationTicks": 96,
            "midi": 84,
            "name": "C6",
            "ticks": 29856,
            "time": 33.804300500000004,
            "velocity": 0.3937007874015748
          },
          {
            "duration": 0.10869549999999606,
            "durationTicks": 96,
            "midi": 39,
            "name": "D#2",
            "ticks": 29856,
            "time": 33.804300500000004,
            "velocity": 0.3937007874015748
          },
          {
            "duration": 0.10869549999999606,
            "durationTicks": 96,
            "midi": 51,
            "name": "D#3",
            "ticks": 29856,
            "time": 33.804300500000004,
            "velocity": 0.3937007874015748
          },
          {
            "duration": 0.10869550000000316,
            "durationTicks": 96,
            "midi": 39,
            "name": "D#2",
            "ticks": 29952,
            "time": 33.912996,
            "velocity": 0.3937007874015748
          },
          {
            "duration": 0.10869550000000316,
            "durationTicks": 96,
            "midi": 27,
            "name": "D#1",
            "ticks": 29952,
            "time": 33.912996,
            "velocity": 0.3937007874015748
          },
          {
            "duration": 0.43478199999999845,
            "durationTicks": 384,
            "midi": 63,
            "name": "D#4",
            "ticks": 29952,
            "time": 33.912996,
            "velocity": 0.3937007874015748
          },
          {
            "duration": 0.21739099999999922,
            "durationTicks": 192,
            "midi": 34,
            "name": "A#1",
            "ticks": 29952,
            "time": 33.912996,
            "velocity": 0.3937007874015748
          },
          {
            "duration": 0.10869550000000316,
            "durationTicks": 96,
            "midi": 95,
            "name": "B6",
            "ticks": 29952,
            "time": 33.912996,
            "velocity": 0.3937007874015748
          },
          {
            "duration": 0.43478199999999845,
            "durationTicks": 384,
            "midi": 58,
            "name": "A#3",
            "ticks": 29952,
            "time": 33.912996,
            "velocity": 0.3937007874015748
          },
          {
            "duration": 0.43478199999999845,
            "durationTicks": 384,
            "midi": 54,
            "name": "F#3",
            "ticks": 29952,
            "time": 33.912996,
            "velocity": 0.3937007874015748
          },
          {
            "duration": 0.10869549999999606,
            "durationTicks": 96,
            "midi": 95,
            "name": "B6",
            "ticks": 30048,
            "time": 34.0216915,
            "velocity": 0.3937007874015748
          },
          {
            "duration": 0.10869550000000316,
            "durationTicks": 96,
            "midi": 94,
            "name": "A#6",
            "ticks": 30144,
            "time": 34.130387,
            "velocity": 0.3937007874015748
          },
          {
            "duration": 0.10869550000000316,
            "durationTicks": 96,
            "midi": 51,
            "name": "D#3",
            "ticks": 30144,
            "time": 34.130387,
            "velocity": 0.3937007874015748
          },
          {
            "duration": 0.10869550000000316,
            "durationTicks": 96,
            "midi": 39,
            "name": "D#2",
            "ticks": 30144,
            "time": 34.130387,
            "velocity": 0.3937007874015748
          },
          {
            "duration": 0.10869549999999606,
            "durationTicks": 96,
            "midi": 51,
            "name": "D#3",
            "ticks": 30240,
            "time": 34.2390825,
            "velocity": 0.3937007874015748
          },
          {
            "duration": 0.10869549999999606,
            "durationTicks": 96,
            "midi": 39,
            "name": "D#2",
            "ticks": 30240,
            "time": 34.2390825,
            "velocity": 0.3937007874015748
          },
          {
            "duration": 0.10869549999999606,
            "durationTicks": 96,
            "midi": 94,
            "name": "A#6",
            "ticks": 30240,
            "time": 34.2390825,
            "velocity": 0.3937007874015748
          },
          {
            "duration": 0.43478200000000555,
            "durationTicks": 384,
            "midi": 54,
            "name": "F#3",
            "ticks": 30336,
            "time": 34.347778,
            "velocity": 0.3937007874015748
          },
          {
            "duration": 0.43478200000000555,
            "durationTicks": 384,
            "midi": 58,
            "name": "A#3",
            "ticks": 30336,
            "time": 34.347778,
            "velocity": 0.3937007874015748
          },
          {
            "duration": 0.43478200000000555,
            "durationTicks": 384,
            "midi": 63,
            "name": "D#4",
            "ticks": 30336,
            "time": 34.347778,
            "velocity": 0.3937007874015748
          },
          {
            "duration": 0.10869550000000316,
            "durationTicks": 96,
            "midi": 93,
            "name": "A6",
            "ticks": 30336,
            "time": 34.347778,
            "velocity": 0.3937007874015748
          },
          {
            "duration": 0.10869550000000316,
            "durationTicks": 96,
            "midi": 39,
            "name": "D#2",
            "ticks": 30336,
            "time": 34.347778,
            "velocity": 0.3937007874015748
          },
          {
            "duration": 0.10869550000000316,
            "durationTicks": 96,
            "midi": 27,
            "name": "D#1",
            "ticks": 30336,
            "time": 34.347778,
            "velocity": 0.3937007874015748
          },
          {
            "duration": 0.21739099999999922,
            "durationTicks": 192,
            "midi": 34,
            "name": "A#1",
            "ticks": 30336,
            "time": 34.347778,
            "velocity": 0.3937007874015748
          },
          {
            "duration": 0.10869549999999606,
            "durationTicks": 96,
            "midi": 51,
            "name": "D#3",
            "ticks": 30432,
            "time": 34.4564735,
            "velocity": 0.3937007874015748
          },
          {
            "duration": 0.10869549999999606,
            "durationTicks": 96,
            "midi": 93,
            "name": "A6",
            "ticks": 30432,
            "time": 34.4564735,
            "velocity": 0.3937007874015748
          },
          {
            "duration": 0.10869549999999606,
            "durationTicks": 96,
            "midi": 39,
            "name": "D#2",
            "ticks": 30432,
            "time": 34.4564735,
            "velocity": 0.3937007874015748
          },
          {
            "duration": 0.10869550000000316,
            "durationTicks": 96,
            "midi": 92,
            "name": "G#6",
            "ticks": 30528,
            "time": 34.565169,
            "velocity": 0.3937007874015748
          },
          {
            "duration": 0.10869550000000316,
            "durationTicks": 96,
            "midi": 49,
            "name": "C#3",
            "ticks": 30528,
            "time": 34.565169,
            "velocity": 0.3937007874015748
          },
          {
            "duration": 0.10869550000000316,
            "durationTicks": 96,
            "midi": 37,
            "name": "C#2",
            "ticks": 30528,
            "time": 34.565169,
            "velocity": 0.3937007874015748
          },
          {
            "duration": 0.10869550000000316,
            "durationTicks": 96,
            "midi": 39,
            "name": "D#2",
            "ticks": 30624,
            "time": 34.6738645,
            "velocity": 0.3937007874015748
          },
          {
            "duration": 0.10869550000000316,
            "durationTicks": 96,
            "midi": 51,
            "name": "D#3",
            "ticks": 30624,
            "time": 34.6738645,
            "velocity": 0.3937007874015748
          },
          {
            "duration": 0.10869550000000316,
            "durationTicks": 96,
            "midi": 92,
            "name": "G#6",
            "ticks": 30624,
            "time": 34.6738645,
            "velocity": 0.3937007874015748
          },
          {
            "duration": 0.21739099999999922,
            "durationTicks": 192,
            "midi": 34,
            "name": "A#1",
            "ticks": 30720,
            "time": 34.782560000000004,
            "velocity": 0.3937007874015748
          },
          {
            "duration": 0.10869549999999606,
            "durationTicks": 96,
            "midi": 91,
            "name": "G6",
            "ticks": 30720,
            "time": 34.782560000000004,
            "velocity": 0.3937007874015748
          },
          {
            "duration": 0.43478199999999845,
            "durationTicks": 384,
            "midi": 58,
            "name": "A#3",
            "ticks": 30720,
            "time": 34.782560000000004,
            "velocity": 0.3937007874015748
          },
          {
            "duration": 0.10869549999999606,
            "durationTicks": 96,
            "midi": 27,
            "name": "D#1",
            "ticks": 30720,
            "time": 34.782560000000004,
            "velocity": 0.3937007874015748
          },
          {
            "duration": 0.43478199999999845,
            "durationTicks": 384,
            "midi": 54,
            "name": "F#3",
            "ticks": 30720,
            "time": 34.782560000000004,
            "velocity": 0.3937007874015748
          },
          {
            "duration": 0.43478199999999845,
            "durationTicks": 384,
            "midi": 63,
            "name": "D#4",
            "ticks": 30720,
            "time": 34.782560000000004,
            "velocity": 0.3937007874015748
          },
          {
            "duration": 0.10869549999999606,
            "durationTicks": 96,
            "midi": 39,
            "name": "D#2",
            "ticks": 30720,
            "time": 34.782560000000004,
            "velocity": 0.3937007874015748
          },
          {
            "duration": 0.10869550000000316,
            "durationTicks": 96,
            "midi": 91,
            "name": "G6",
            "ticks": 30816,
            "time": 34.8912555,
            "velocity": 0.3937007874015748
          },
          {
            "duration": 0.10869549999999606,
            "durationTicks": 96,
            "midi": 90,
            "name": "F#6",
            "ticks": 30912,
            "time": 34.999951,
            "velocity": 0.3937007874015748
          },
          {
            "duration": 0.10869549999999606,
            "durationTicks": 96,
            "midi": 51,
            "name": "D#3",
            "ticks": 30912,
            "time": 34.999951,
            "velocity": 0.3937007874015748
          },
          {
            "duration": 0.10869549999999606,
            "durationTicks": 96,
            "midi": 39,
            "name": "D#2",
            "ticks": 30912,
            "time": 34.999951,
            "velocity": 0.3937007874015748
          },
          {
            "duration": 0.10869550000000316,
            "durationTicks": 96,
            "midi": 39,
            "name": "D#2",
            "ticks": 31008,
            "time": 35.1086465,
            "velocity": 0.3937007874015748
          },
          {
            "duration": 0.10869550000000316,
            "durationTicks": 96,
            "midi": 90,
            "name": "F#6",
            "ticks": 31008,
            "time": 35.1086465,
            "velocity": 0.3937007874015748
          },
          {
            "duration": 0.10869550000000316,
            "durationTicks": 96,
            "midi": 51,
            "name": "D#3",
            "ticks": 31008,
            "time": 35.1086465,
            "velocity": 0.3937007874015748
          },
          {
            "duration": 0.10869549999999606,
            "durationTicks": 96,
            "midi": 27,
            "name": "D#1",
            "ticks": 31104,
            "time": 35.217342,
            "velocity": 0.3937007874015748
          },
          {
            "duration": 0.10869549999999606,
            "durationTicks": 96,
            "midi": 39,
            "name": "D#2",
            "ticks": 31104,
            "time": 35.217342,
            "velocity": 0.3937007874015748
          },
          {
            "duration": 0.10869549999999606,
            "durationTicks": 96,
            "midi": 89,
            "name": "F6",
            "ticks": 31104,
            "time": 35.217342,
            "velocity": 0.3937007874015748
          },
          {
            "duration": 0.43478199999999845,
            "durationTicks": 384,
            "midi": 54,
            "name": "F#3",
            "ticks": 31104,
            "time": 35.217342,
            "velocity": 0.3937007874015748
          },
          {
            "duration": 0.43478199999999845,
            "durationTicks": 384,
            "midi": 63,
            "name": "D#4",
            "ticks": 31104,
            "time": 35.217342,
            "velocity": 0.3937007874015748
          },
          {
            "duration": 0.43478199999999845,
            "durationTicks": 384,
            "midi": 58,
            "name": "A#3",
            "ticks": 31104,
            "time": 35.217342,
            "velocity": 0.3937007874015748
          },
          {
            "duration": 0.21739099999999922,
            "durationTicks": 192,
            "midi": 34,
            "name": "A#1",
            "ticks": 31104,
            "time": 35.217342,
            "velocity": 0.3937007874015748
          },
          {
            "duration": 0.10869550000000316,
            "durationTicks": 96,
            "midi": 89,
            "name": "F6",
            "ticks": 31200,
            "time": 35.3260375,
            "velocity": 0.3937007874015748
          },
          {
            "duration": 0.10869550000000316,
            "durationTicks": 96,
            "midi": 39,
            "name": "D#2",
            "ticks": 31200,
            "time": 35.3260375,
            "velocity": 0.3937007874015748
          },
          {
            "duration": 0.10869550000000316,
            "durationTicks": 96,
            "midi": 51,
            "name": "D#3",
            "ticks": 31200,
            "time": 35.3260375,
            "velocity": 0.3937007874015748
          },
          {
            "duration": 0.10869549999999606,
            "durationTicks": 96,
            "midi": 88,
            "name": "E6",
            "ticks": 31296,
            "time": 35.434733,
            "velocity": 0.3937007874015748
          },
          {
            "duration": 0.10869549999999606,
            "durationTicks": 96,
            "midi": 49,
            "name": "C#3",
            "ticks": 31296,
            "time": 35.434733,
            "velocity": 0.3937007874015748
          },
          {
            "duration": 0.10869549999999606,
            "durationTicks": 96,
            "midi": 37,
            "name": "C#2",
            "ticks": 31296,
            "time": 35.434733,
            "velocity": 0.3937007874015748
          },
          {
            "duration": 0.10869550000000316,
            "durationTicks": 96,
            "midi": 51,
            "name": "D#3",
            "ticks": 31392,
            "time": 35.5434285,
            "velocity": 0.3937007874015748
          },
          {
            "duration": 0.10869550000000316,
            "durationTicks": 96,
            "midi": 88,
            "name": "E6",
            "ticks": 31392,
            "time": 35.5434285,
            "velocity": 0.3937007874015748
          },
          {
            "duration": 0.10869550000000316,
            "durationTicks": 96,
            "midi": 39,
            "name": "D#2",
            "ticks": 31392,
            "time": 35.5434285,
            "velocity": 0.3937007874015748
          },
          {
            "duration": 0.10869549999999606,
            "durationTicks": 96,
            "midi": 54,
            "name": "F#3",
            "ticks": 31488,
            "time": 35.652124,
            "velocity": 0.3937007874015748
          },
          {
            "duration": 0.10869549999999606,
            "durationTicks": 96,
            "midi": 87,
            "name": "D#6",
            "ticks": 31488,
            "time": 35.652124,
            "velocity": 0.3937007874015748
          },
          {
            "duration": 0.21739099999999922,
            "durationTicks": 192,
            "midi": 34,
            "name": "A#1",
            "ticks": 31488,
            "time": 35.652124,
            "velocity": 0.3937007874015748
          },
          {
            "duration": 0.43478199999999845,
            "durationTicks": 384,
            "midi": 61,
            "name": "C#4",
            "ticks": 31488,
            "time": 35.652124,
            "velocity": 0.3937007874015748
          },
          {
            "duration": 0.10869549999999606,
            "durationTicks": 96,
            "midi": 42,
            "name": "F#2",
            "ticks": 31488,
            "time": 35.652124,
            "velocity": 0.3937007874015748
          },
          {
            "duration": 0.43478199999999845,
            "durationTicks": 384,
            "midi": 58,
            "name": "A#3",
            "ticks": 31488,
            "time": 35.652124,
            "velocity": 0.3937007874015748
          },
          {
            "duration": 0.43478199999999845,
            "durationTicks": 384,
            "midi": 54,
            "name": "F#3",
            "ticks": 31488,
            "time": 35.652124,
            "velocity": 0.3937007874015748
          },
          {
            "duration": 0.10869550000000316,
            "durationTicks": 96,
            "midi": 87,
            "name": "D#6",
            "ticks": 31584,
            "time": 35.7608195,
            "velocity": 0.3937007874015748
          },
          {
            "duration": 0.10869550000000316,
            "durationTicks": 96,
            "midi": 51,
            "name": "D#3",
            "ticks": 31680,
            "time": 35.869515,
            "velocity": 0.3937007874015748
          },
          {
            "duration": 0.10869550000000316,
            "durationTicks": 96,
            "midi": 86,
            "name": "D6",
            "ticks": 31680,
            "time": 35.869515,
            "velocity": 0.3937007874015748
          },
          {
            "duration": 0.10869550000000316,
            "durationTicks": 96,
            "midi": 39,
            "name": "D#2",
            "ticks": 31680,
            "time": 35.869515,
            "velocity": 0.3937007874015748
          },
          {
            "duration": 0.10869549999999606,
            "durationTicks": 96,
            "midi": 54,
            "name": "F#3",
            "ticks": 31776,
            "time": 35.9782105,
            "velocity": 0.3937007874015748
          },
          {
            "duration": 0.10869549999999606,
            "durationTicks": 96,
            "midi": 86,
            "name": "D6",
            "ticks": 31776,
            "time": 35.9782105,
            "velocity": 0.3937007874015748
          },
          {
            "duration": 0.10869549999999606,
            "durationTicks": 96,
            "midi": 42,
            "name": "F#2",
            "ticks": 31776,
            "time": 35.9782105,
            "velocity": 0.3937007874015748
          },
          {
            "duration": 0.10869550000000316,
            "durationTicks": 96,
            "midi": 56,
            "name": "G#3",
            "ticks": 31872,
            "time": 36.086906,
            "velocity": 0.3937007874015748
          },
          {
            "duration": 0.10869550000000316,
            "durationTicks": 96,
            "midi": 44,
            "name": "G#2",
            "ticks": 31872,
            "time": 36.086906,
            "velocity": 0.3937007874015748
          },
          {
            "duration": 0.43478199999999845,
            "durationTicks": 384,
            "midi": 56,
            "name": "G#3",
            "ticks": 31872,
            "time": 36.086906,
            "velocity": 0.3937007874015748
          },
          {
            "duration": 0.43478199999999845,
            "durationTicks": 384,
            "midi": 59,
            "name": "B3",
            "ticks": 31872,
            "time": 36.086906,
            "velocity": 0.3937007874015748
          },
          {
            "duration": 0.21739099999999922,
            "durationTicks": 192,
            "midi": 34,
            "name": "A#1",
            "ticks": 31872,
            "time": 36.086906,
            "velocity": 0.3937007874015748
          },
          {
            "duration": 0.10869550000000316,
            "durationTicks": 96,
            "midi": 85,
            "name": "C#6",
            "ticks": 31872,
            "time": 36.086906,
            "velocity": 0.3937007874015748
          },
          {
            "duration": 0.43478199999999845,
            "durationTicks": 384,
            "midi": 63,
            "name": "D#4",
            "ticks": 31872,
            "time": 36.086906,
            "velocity": 0.3937007874015748
          },
          {
            "duration": 0.10869549999999606,
            "durationTicks": 96,
            "midi": 85,
            "name": "C#6",
            "ticks": 31968,
            "time": 36.1956015,
            "velocity": 0.3937007874015748
          },
          {
            "duration": 0.10869550000000316,
            "durationTicks": 96,
            "midi": 54,
            "name": "F#3",
            "ticks": 32064,
            "time": 36.304297,
            "velocity": 0.3937007874015748
          },
          {
            "duration": 0.10869550000000316,
            "durationTicks": 96,
            "midi": 42,
            "name": "F#2",
            "ticks": 32064,
            "time": 36.304297,
            "velocity": 0.3937007874015748
          },
          {
            "duration": 0.10869550000000316,
            "durationTicks": 96,
            "midi": 84,
            "name": "C6",
            "ticks": 32064,
            "time": 36.304297,
            "velocity": 0.3937007874015748
          },
          {
            "duration": 0.21739099999999922,
            "durationTicks": 192,
            "midi": 34,
            "name": "A#1",
            "ticks": 32064,
            "time": 36.304297,
            "velocity": 0.3937007874015748
          },
          {
            "duration": 0.10869549999999606,
            "durationTicks": 96,
            "midi": 44,
            "name": "G#2",
            "ticks": 32160,
            "time": 36.4129925,
            "velocity": 0.3937007874015748
          },
          {
            "duration": 0.10869549999999606,
            "durationTicks": 96,
            "midi": 56,
            "name": "G#3",
            "ticks": 32160,
            "time": 36.4129925,
            "velocity": 0.3937007874015748
          },
          {
            "duration": 0.10869549999999606,
            "durationTicks": 96,
            "midi": 84,
            "name": "C6",
            "ticks": 32160,
            "time": 36.4129925,
            "velocity": 0.3937007874015748
          },
          {
            "duration": 0.10869550000000316,
            "durationTicks": 96,
            "midi": 39,
            "name": "D#2",
            "ticks": 32256,
            "time": 36.521688,
            "velocity": 0.3937007874015748
          },
          {
            "duration": 0.43478200000000555,
            "durationTicks": 384,
            "midi": 63,
            "name": "D#4",
            "ticks": 32256,
            "time": 36.521688,
            "velocity": 0.3937007874015748
          },
          {
            "duration": 0.10869550000000316,
            "durationTicks": 96,
            "midi": 27,
            "name": "D#1",
            "ticks": 32256,
            "time": 36.521688,
            "velocity": 0.3937007874015748
          },
          {
            "duration": 0.43478200000000555,
            "durationTicks": 384,
            "midi": 54,
            "name": "F#3",
            "ticks": 32256,
            "time": 36.521688,
            "velocity": 0.3937007874015748
          },
          {
            "duration": 0.10869550000000316,
            "durationTicks": 96,
            "midi": 83,
            "name": "B5",
            "ticks": 32256,
            "time": 36.521688,
            "velocity": 0.3937007874015748
          },
          {
            "duration": 0.43478200000000555,
            "durationTicks": 384,
            "midi": 58,
            "name": "A#3",
            "ticks": 32256,
            "time": 36.521688,
            "velocity": 0.3937007874015748
          },
          {
            "duration": 0.21739099999999922,
            "durationTicks": 192,
            "midi": 34,
            "name": "A#1",
            "ticks": 32256,
            "time": 36.521688,
            "velocity": 0.3937007874015748
          },
          {
            "duration": 0.10869549999999606,
            "durationTicks": 96,
            "midi": 83,
            "name": "B5",
            "ticks": 32352,
            "time": 36.6303835,
            "velocity": 0.3937007874015748
          },
          {
            "duration": 0.10869550000000316,
            "durationTicks": 96,
            "midi": 51,
            "name": "D#3",
            "ticks": 32448,
            "time": 36.739079,
            "velocity": 0.3937007874015748
          },
          {
            "duration": 0.10869550000000316,
            "durationTicks": 96,
            "midi": 82,
            "name": "A#5",
            "ticks": 32448,
            "time": 36.739079,
            "velocity": 0.3937007874015748
          },
          {
            "duration": 0.10869550000000316,
            "durationTicks": 96,
            "midi": 39,
            "name": "D#2",
            "ticks": 32448,
            "time": 36.739079,
            "velocity": 0.3937007874015748
          },
          {
            "duration": 0.10869550000000316,
            "durationTicks": 96,
            "midi": 82,
            "name": "A#5",
            "ticks": 32544,
            "time": 36.8477745,
            "velocity": 0.3937007874015748
          },
          {
            "duration": 0.10869550000000316,
            "durationTicks": 96,
            "midi": 51,
            "name": "D#3",
            "ticks": 32544,
            "time": 36.8477745,
            "velocity": 0.3937007874015748
          },
          {
            "duration": 0.10869550000000316,
            "durationTicks": 96,
            "midi": 39,
            "name": "D#2",
            "ticks": 32544,
            "time": 36.8477745,
            "velocity": 0.3937007874015748
          },
          {
            "duration": 0.10869549999999606,
            "durationTicks": 96,
            "midi": 27,
            "name": "D#1",
            "ticks": 32640,
            "time": 36.95647,
            "velocity": 0.3937007874015748
          },
          {
            "duration": 0.10869549999999606,
            "durationTicks": 96,
            "midi": 39,
            "name": "D#2",
            "ticks": 32640,
            "time": 36.95647,
            "velocity": 0.3937007874015748
          },
          {
            "duration": 0.21739099999999922,
            "durationTicks": 192,
            "midi": 34,
            "name": "A#1",
            "ticks": 32640,
            "time": 36.95647,
            "velocity": 0.3937007874015748
          },
          {
            "duration": 0.43478199999999845,
            "durationTicks": 384,
            "midi": 58,
            "name": "A#3",
            "ticks": 32640,
            "time": 36.95647,
            "velocity": 0.3937007874015748
          },
          {
            "duration": 0.43478199999999845,
            "durationTicks": 384,
            "midi": 63,
            "name": "D#4",
            "ticks": 32640,
            "time": 36.95647,
            "velocity": 0.3937007874015748
          },
          {
            "duration": 0.43478199999999845,
            "durationTicks": 384,
            "midi": 54,
            "name": "F#3",
            "ticks": 32640,
            "time": 36.95647,
            "velocity": 0.3937007874015748
          },
          {
            "duration": 0.10869549999999606,
            "durationTicks": 96,
            "midi": 81,
            "name": "A5",
            "ticks": 32640,
            "time": 36.95647,
            "velocity": 0.3937007874015748
          },
          {
            "duration": 0.10869550000000316,
            "durationTicks": 96,
            "midi": 39,
            "name": "D#2",
            "ticks": 32736,
            "time": 37.0651655,
            "velocity": 0.3937007874015748
          },
          {
            "duration": 0.10869550000000316,
            "durationTicks": 96,
            "midi": 81,
            "name": "A5",
            "ticks": 32736,
            "time": 37.0651655,
            "velocity": 0.3937007874015748
          },
          {
            "duration": 0.10869550000000316,
            "durationTicks": 96,
            "midi": 51,
            "name": "D#3",
            "ticks": 32736,
            "time": 37.0651655,
            "velocity": 0.3937007874015748
          },
          {
            "duration": 0.10869549999999606,
            "durationTicks": 96,
            "midi": 37,
            "name": "C#2",
            "ticks": 32832,
            "time": 37.173861,
            "velocity": 0.3937007874015748
          },
          {
            "duration": 0.10869549999999606,
            "durationTicks": 96,
            "midi": 49,
            "name": "C#3",
            "ticks": 32832,
            "time": 37.173861,
            "velocity": 0.3937007874015748
          },
          {
            "duration": 0.10869549999999606,
            "durationTicks": 96,
            "midi": 80,
            "name": "G#5",
            "ticks": 32832,
            "time": 37.173861,
            "velocity": 0.3937007874015748
          },
          {
            "duration": 0.10869550000000316,
            "durationTicks": 96,
            "midi": 51,
            "name": "D#3",
            "ticks": 32928,
            "time": 37.2825565,
            "velocity": 0.3937007874015748
          },
          {
            "duration": 0.10869550000000316,
            "durationTicks": 96,
            "midi": 39,
            "name": "D#2",
            "ticks": 32928,
            "time": 37.2825565,
            "velocity": 0.3937007874015748
          },
          {
            "duration": 0.10869550000000316,
            "durationTicks": 96,
            "midi": 80,
            "name": "G#5",
            "ticks": 32928,
            "time": 37.2825565,
            "velocity": 0.3937007874015748
          },
          {
            "duration": 0.10869549999999606,
            "durationTicks": 96,
            "midi": 39,
            "name": "D#2",
            "ticks": 33024,
            "time": 37.391252,
            "velocity": 0.3937007874015748
          },
          {
            "duration": 0.10869549999999606,
            "durationTicks": 96,
            "midi": 79,
            "name": "G5",
            "ticks": 33024,
            "time": 37.391252,
            "velocity": 0.3937007874015748
          },
          {
            "duration": 0.21739099999999922,
            "durationTicks": 192,
            "midi": 34,
            "name": "A#1",
            "ticks": 33024,
            "time": 37.391252,
            "velocity": 0.3937007874015748
          },
          {
            "duration": 0.43478199999999845,
            "durationTicks": 384,
            "midi": 58,
            "name": "A#3",
            "ticks": 33024,
            "time": 37.391252,
            "velocity": 0.3937007874015748
          },
          {
            "duration": 0.43478199999999845,
            "durationTicks": 384,
            "midi": 63,
            "name": "D#4",
            "ticks": 33024,
            "time": 37.391252,
            "velocity": 0.3937007874015748
          },
          {
            "duration": 0.43478199999999845,
            "durationTicks": 384,
            "midi": 54,
            "name": "F#3",
            "ticks": 33024,
            "time": 37.391252,
            "velocity": 0.3937007874015748
          },
          {
            "duration": 0.10869549999999606,
            "durationTicks": 96,
            "midi": 27,
            "name": "D#1",
            "ticks": 33024,
            "time": 37.391252,
            "velocity": 0.3937007874015748
          },
          {
            "duration": 0.10869550000000316,
            "durationTicks": 96,
            "midi": 79,
            "name": "G5",
            "ticks": 33120,
            "time": 37.4999475,
            "velocity": 0.3937007874015748
          },
          {
            "duration": 0.10869549999999606,
            "durationTicks": 96,
            "midi": 78,
            "name": "F#5",
            "ticks": 33216,
            "time": 37.608643,
            "velocity": 0.3937007874015748
          },
          {
            "duration": 0.10869549999999606,
            "durationTicks": 96,
            "midi": 39,
            "name": "D#2",
            "ticks": 33216,
            "time": 37.608643,
            "velocity": 0.3937007874015748
          },
          {
            "duration": 0.10869549999999606,
            "durationTicks": 96,
            "midi": 51,
            "name": "D#3",
            "ticks": 33216,
            "time": 37.608643,
            "velocity": 0.3937007874015748
          },
          {
            "duration": 0.10869550000000316,
            "durationTicks": 96,
            "midi": 78,
            "name": "F#5",
            "ticks": 33312,
            "time": 37.7173385,
            "velocity": 0.3937007874015748
          },
          {
            "duration": 0.10869550000000316,
            "durationTicks": 96,
            "midi": 39,
            "name": "D#2",
            "ticks": 33312,
            "time": 37.7173385,
            "velocity": 0.3937007874015748
          },
          {
            "duration": 0.10869550000000316,
            "durationTicks": 96,
            "midi": 51,
            "name": "D#3",
            "ticks": 33312,
            "time": 37.7173385,
            "velocity": 0.3937007874015748
          },
          {
            "duration": 0.10869550000000316,
            "durationTicks": 96,
            "midi": 39,
            "name": "D#2",
            "ticks": 33408,
            "time": 37.826034,
            "velocity": 0.3937007874015748
          },
          {
            "duration": 0.43478199999999845,
            "durationTicks": 384,
            "midi": 63,
            "name": "D#4",
            "ticks": 33408,
            "time": 37.826034,
            "velocity": 0.3937007874015748
          },
          {
            "duration": 0.10869550000000316,
            "durationTicks": 96,
            "midi": 77,
            "name": "F5",
            "ticks": 33408,
            "time": 37.826034,
            "velocity": 0.3937007874015748
          },
          {
            "duration": 0.10869550000000316,
            "durationTicks": 96,
            "midi": 27,
            "name": "D#1",
            "ticks": 33408,
            "time": 37.826034,
            "velocity": 0.3937007874015748
          },
          {
            "duration": 0.21739099999999922,
            "durationTicks": 192,
            "midi": 34,
            "name": "A#1",
            "ticks": 33408,
            "time": 37.826034,
            "velocity": 0.3937007874015748
          },
          {
            "duration": 0.43478199999999845,
            "durationTicks": 384,
            "midi": 58,
            "name": "A#3",
            "ticks": 33408,
            "time": 37.826034,
            "velocity": 0.3937007874015748
          },
          {
            "duration": 0.43478199999999845,
            "durationTicks": 384,
            "midi": 54,
            "name": "F#3",
            "ticks": 33408,
            "time": 37.826034,
            "velocity": 0.3937007874015748
          },
          {
            "duration": 0.10869549999999606,
            "durationTicks": 96,
            "midi": 51,
            "name": "D#3",
            "ticks": 33504,
            "time": 37.9347295,
            "velocity": 0.3937007874015748
          },
          {
            "duration": 0.10869549999999606,
            "durationTicks": 96,
            "midi": 39,
            "name": "D#2",
            "ticks": 33504,
            "time": 37.9347295,
            "velocity": 0.3937007874015748
          },
          {
            "duration": 0.10869549999999606,
            "durationTicks": 96,
            "midi": 77,
            "name": "F5",
            "ticks": 33504,
            "time": 37.9347295,
            "velocity": 0.3937007874015748
          },
          {
            "duration": 0.10869550000000316,
            "durationTicks": 96,
            "midi": 76,
            "name": "E5",
            "ticks": 33600,
            "time": 38.043425,
            "velocity": 0.3937007874015748
          },
          {
            "duration": 0.10869550000000316,
            "durationTicks": 96,
            "midi": 49,
            "name": "C#3",
            "ticks": 33600,
            "time": 38.043425,
            "velocity": 0.3937007874015748
          },
          {
            "duration": 0.10869550000000316,
            "durationTicks": 96,
            "midi": 37,
            "name": "C#2",
            "ticks": 33600,
            "time": 38.043425,
            "velocity": 0.3937007874015748
          },
          {
            "duration": 0.10869549999999606,
            "durationTicks": 96,
            "midi": 76,
            "name": "E5",
            "ticks": 33696,
            "time": 38.1521205,
            "velocity": 0.3937007874015748
          },
          {
            "duration": 0.10869549999999606,
            "durationTicks": 96,
            "midi": 51,
            "name": "D#3",
            "ticks": 33696,
            "time": 38.1521205,
            "velocity": 0.3937007874015748
          },
          {
            "duration": 0.10869549999999606,
            "durationTicks": 96,
            "midi": 39,
            "name": "D#2",
            "ticks": 33696,
            "time": 38.1521205,
            "velocity": 0.3937007874015748
          },
          {
            "duration": 0.43478199999999845,
            "durationTicks": 384,
            "midi": 58,
            "name": "A#3",
            "ticks": 33792,
            "time": 38.260816,
            "velocity": 0.3937007874015748
          },
          {
            "duration": 0.43478199999999845,
            "durationTicks": 384,
            "midi": 63,
            "name": "D#4",
            "ticks": 33792,
            "time": 38.260816,
            "velocity": 0.3937007874015748
          },
          {
            "duration": 0.43478199999999845,
            "durationTicks": 384,
            "midi": 54,
            "name": "F#3",
            "ticks": 33792,
            "time": 38.260816,
            "velocity": 0.3937007874015748
          },
          {
            "duration": 0.21739099999999922,
            "durationTicks": 192,
            "midi": 34,
            "name": "A#1",
            "ticks": 33792,
            "time": 38.260816,
            "velocity": 0.3937007874015748
          },
          {
            "duration": 0.10869550000000316,
            "durationTicks": 96,
            "midi": 39,
            "name": "D#2",
            "ticks": 33792,
            "time": 38.260816,
            "velocity": 0.3937007874015748
          },
          {
            "duration": 0.10869550000000316,
            "durationTicks": 96,
            "midi": 75,
            "name": "D#5",
            "ticks": 33792,
            "time": 38.260816,
            "velocity": 0.3937007874015748
          },
          {
            "duration": 0.10869550000000316,
            "durationTicks": 96,
            "midi": 27,
            "name": "D#1",
            "ticks": 33792,
            "time": 38.260816,
            "velocity": 0.3937007874015748
          },
          {
            "duration": 0.10869549999999606,
            "durationTicks": 96,
            "midi": 75,
            "name": "D#5",
            "ticks": 33888,
            "time": 38.3695115,
            "velocity": 0.3937007874015748
          },
          {
            "duration": 0.10869550000000316,
            "durationTicks": 96,
            "midi": 39,
            "name": "D#2",
            "ticks": 33984,
            "time": 38.478207,
            "velocity": 0.3937007874015748
          },
          {
            "duration": 0.10869550000000316,
            "durationTicks": 96,
            "midi": 74,
            "name": "D5",
            "ticks": 33984,
            "time": 38.478207,
            "velocity": 0.3937007874015748
          },
          {
            "duration": 0.10869550000000316,
            "durationTicks": 96,
            "midi": 51,
            "name": "D#3",
            "ticks": 33984,
            "time": 38.478207,
            "velocity": 0.3937007874015748
          },
          {
            "duration": 0.10869549999999606,
            "durationTicks": 96,
            "midi": 39,
            "name": "D#2",
            "ticks": 34080,
            "time": 38.5869025,
            "velocity": 0.3937007874015748
          },
          {
            "duration": 0.10869549999999606,
            "durationTicks": 96,
            "midi": 74,
            "name": "D5",
            "ticks": 34080,
            "time": 38.5869025,
            "velocity": 0.3937007874015748
          },
          {
            "duration": 0.10869549999999606,
            "durationTicks": 96,
            "midi": 51,
            "name": "D#3",
            "ticks": 34080,
            "time": 38.5869025,
            "velocity": 0.3937007874015748
          },
          {
            "duration": 0.21739100000000633,
            "durationTicks": 192,
            "midi": 34,
            "name": "A#1",
            "ticks": 34176,
            "time": 38.695598,
            "velocity": 0.3937007874015748
          },
          {
            "duration": 0.10869550000000316,
            "durationTicks": 96,
            "midi": 27,
            "name": "D#1",
            "ticks": 34176,
            "time": 38.695598,
            "velocity": 0.3937007874015748
          },
          {
            "duration": 0.43478200000000555,
            "durationTicks": 384,
            "midi": 63,
            "name": "D#4",
            "ticks": 34176,
            "time": 38.695598,
            "velocity": 0.3937007874015748
          },
          {
            "duration": 0.43478200000000555,
            "durationTicks": 384,
            "midi": 54,
            "name": "F#3",
            "ticks": 34176,
            "time": 38.695598,
            "velocity": 0.3937007874015748
          },
          {
            "duration": 0.10869550000000316,
            "durationTicks": 96,
            "midi": 39,
            "name": "D#2",
            "ticks": 34176,
            "time": 38.695598,
            "velocity": 0.3937007874015748
          },
          {
            "duration": 0.43478200000000555,
            "durationTicks": 384,
            "midi": 58,
            "name": "A#3",
            "ticks": 34176,
            "time": 38.695598,
            "velocity": 0.3937007874015748
          },
          {
            "duration": 0.10869550000000316,
            "durationTicks": 96,
            "midi": 73,
            "name": "C#5",
            "ticks": 34176,
            "time": 38.695598,
            "velocity": 0.3937007874015748
          },
          {
            "duration": 0.10869550000000316,
            "durationTicks": 96,
            "midi": 39,
            "name": "D#2",
            "ticks": 34272,
            "time": 38.8042935,
            "velocity": 0.3937007874015748
          },
          {
            "duration": 0.10869550000000316,
            "durationTicks": 96,
            "midi": 73,
            "name": "C#5",
            "ticks": 34272,
            "time": 38.8042935,
            "velocity": 0.3937007874015748
          },
          {
            "duration": 0.10869550000000316,
            "durationTicks": 96,
            "midi": 51,
            "name": "D#3",
            "ticks": 34272,
            "time": 38.8042935,
            "velocity": 0.3937007874015748
          },
          {
            "duration": 0.10869549999999606,
            "durationTicks": 96,
            "midi": 37,
            "name": "C#2",
            "ticks": 34368,
            "time": 38.912989,
            "velocity": 0.3937007874015748
          },
          {
            "duration": 0.10869549999999606,
            "durationTicks": 96,
            "midi": 49,
            "name": "C#3",
            "ticks": 34368,
            "time": 38.912989,
            "velocity": 0.3937007874015748
          },
          {
            "duration": 0.10869549999999606,
            "durationTicks": 96,
            "midi": 72,
            "name": "C5",
            "ticks": 34368,
            "time": 38.912989,
            "velocity": 0.3937007874015748
          },
          {
            "duration": 0.10869550000000316,
            "durationTicks": 96,
            "midi": 39,
            "name": "D#2",
            "ticks": 34464,
            "time": 39.0216845,
            "velocity": 0.3937007874015748
          },
          {
            "duration": 0.10869550000000316,
            "durationTicks": 96,
            "midi": 72,
            "name": "C5",
            "ticks": 34464,
            "time": 39.0216845,
            "velocity": 0.3937007874015748
          },
          {
            "duration": 0.10869550000000316,
            "durationTicks": 96,
            "midi": 51,
            "name": "D#3",
            "ticks": 34464,
            "time": 39.0216845,
            "velocity": 0.3937007874015748
          },
          {
            "duration": 0.43478199999999845,
            "durationTicks": 384,
            "midi": 59,
            "name": "B3",
            "ticks": 34560,
            "time": 39.13038,
            "velocity": 0.3937007874015748
          },
          {
            "duration": 0.10869549999999606,
            "durationTicks": 96,
            "midi": 44,
            "name": "G#2",
            "ticks": 34560,
            "time": 39.13038,
            "velocity": 0.3937007874015748
          },
          {
            "duration": 0.43478199999999845,
            "durationTicks": 384,
            "midi": 63,
            "name": "D#4",
            "ticks": 34560,
            "time": 39.13038,
            "velocity": 0.3937007874015748
          },
          {
            "duration": 0.21739099999999922,
            "durationTicks": 192,
            "midi": 34,
            "name": "A#1",
            "ticks": 34560,
            "time": 39.13038,
            "velocity": 0.3937007874015748
          },
          {
            "duration": 0.10869549999999606,
            "durationTicks": 96,
            "midi": 71,
            "name": "B4",
            "ticks": 34560,
            "time": 39.13038,
            "velocity": 0.3937007874015748
          },
          {
            "duration": 0.10869549999999606,
            "durationTicks": 96,
            "midi": 56,
            "name": "G#3",
            "ticks": 34560,
            "time": 39.13038,
            "velocity": 0.3937007874015748
          },
          {
            "duration": 0.43478199999999845,
            "durationTicks": 384,
            "midi": 56,
            "name": "G#3",
            "ticks": 34560,
            "time": 39.13038,
            "velocity": 0.3937007874015748
          },
          {
            "duration": 0.10869550000000316,
            "durationTicks": 96,
            "midi": 71,
            "name": "B4",
            "ticks": 34656,
            "time": 39.2390755,
            "velocity": 0.3937007874015748
          },
          {
            "duration": 0.10869549999999606,
            "durationTicks": 96,
            "midi": 54,
            "name": "F#3",
            "ticks": 34752,
            "time": 39.347771,
            "velocity": 0.3937007874015748
          },
          {
            "duration": 0.10869549999999606,
            "durationTicks": 96,
            "midi": 42,
            "name": "F#2",
            "ticks": 34752,
            "time": 39.347771,
            "velocity": 0.3937007874015748
          },
          {
            "duration": 0.10869549999999606,
            "durationTicks": 96,
            "midi": 70,
            "name": "A#4",
            "ticks": 34752,
            "time": 39.347771,
            "velocity": 0.3937007874015748
          },
          {
            "duration": 0.10869550000000316,
            "durationTicks": 96,
            "midi": 70,
            "name": "A#4",
            "ticks": 34848,
            "time": 39.4564665,
            "velocity": 0.3937007874015748
          },
          {
            "duration": 0.10869550000000316,
            "durationTicks": 96,
            "midi": 56,
            "name": "G#3",
            "ticks": 34848,
            "time": 39.4564665,
            "velocity": 0.3937007874015748
          },
          {
            "duration": 0.10869550000000316,
            "durationTicks": 96,
            "midi": 44,
            "name": "G#2",
            "ticks": 34848,
            "time": 39.4564665,
            "velocity": 0.3937007874015748
          },
          {
            "duration": 0.43478199999999845,
            "durationTicks": 384,
            "midi": 61,
            "name": "C#4",
            "ticks": 34944,
            "time": 39.565162,
            "velocity": 0.3937007874015748
          },
          {
            "duration": 0.10869549999999606,
            "durationTicks": 96,
            "midi": 54,
            "name": "F#3",
            "ticks": 34944,
            "time": 39.565162,
            "velocity": 0.3937007874015748
          },
          {
            "duration": 0.10869549999999606,
            "durationTicks": 96,
            "midi": 42,
            "name": "F#2",
            "ticks": 34944,
            "time": 39.565162,
            "velocity": 0.3937007874015748
          },
          {
            "duration": 0.43478199999999845,
            "durationTicks": 384,
            "midi": 58,
            "name": "A#3",
            "ticks": 34944,
            "time": 39.565162,
            "velocity": 0.3937007874015748
          },
          {
            "duration": 0.21739099999999922,
            "durationTicks": 192,
            "midi": 34,
            "name": "A#1",
            "ticks": 34944,
            "time": 39.565162,
            "velocity": 0.3937007874015748
          },
          {
            "duration": 0.10869549999999606,
            "durationTicks": 96,
            "midi": 69,
            "name": "A4",
            "ticks": 34944,
            "time": 39.565162,
            "velocity": 0.3937007874015748
          },
          {
            "duration": 0.43478199999999845,
            "durationTicks": 384,
            "midi": 54,
            "name": "F#3",
            "ticks": 34944,
            "time": 39.565162,
            "velocity": 0.3937007874015748
          },
          {
            "duration": 0.10869550000000316,
            "durationTicks": 96,
            "midi": 69,
            "name": "A4",
            "ticks": 35040,
            "time": 39.6738575,
            "velocity": 0.3937007874015748
          },
          {
            "duration": 0.10869550000000316,
            "durationTicks": 96,
            "midi": 39,
            "name": "D#2",
            "ticks": 35136,
            "time": 39.782553,
            "velocity": 0.3937007874015748
          },
          {
            "duration": 0.10869550000000316,
            "durationTicks": 96,
            "midi": 51,
            "name": "D#3",
            "ticks": 35136,
            "time": 39.782553,
            "velocity": 0.3937007874015748
          },
          {
            "duration": 0.21739099999999922,
            "durationTicks": 192,
            "midi": 34,
            "name": "A#1",
            "ticks": 35136,
            "time": 39.782553,
            "velocity": 0.3937007874015748
          },
          {
            "duration": 0.10869550000000316,
            "durationTicks": 96,
            "midi": 68,
            "name": "G#4",
            "ticks": 35136,
            "time": 39.782553,
            "velocity": 0.3937007874015748
          },
          {
            "duration": 0.10869549999999606,
            "durationTicks": 96,
            "midi": 68,
            "name": "G#4",
            "ticks": 35232,
            "time": 39.8912485,
            "velocity": 0.3937007874015748
          },
          {
            "duration": 0.10869549999999606,
            "durationTicks": 96,
            "midi": 54,
            "name": "F#3",
            "ticks": 35232,
            "time": 39.8912485,
            "velocity": 0.3937007874015748
          },
          {
            "duration": 0.10869549999999606,
            "durationTicks": 96,
            "midi": 42,
            "name": "F#2",
            "ticks": 35232,
            "time": 39.8912485,
            "velocity": 0.3937007874015748
          },
          {
            "duration": 0.10869550000000316,
            "durationTicks": 96,
            "midi": 27,
            "name": "D#1",
            "ticks": 35328,
            "time": 39.999944,
            "velocity": 0.3937007874015748
          },
          {
            "duration": 0.10869550000000316,
            "durationTicks": 96,
            "midi": 39,
            "name": "D#2",
            "ticks": 35328,
            "time": 39.999944,
            "velocity": 0.3937007874015748
          },
          {
            "duration": 0.21739099999999922,
            "durationTicks": 192,
            "midi": 34,
            "name": "A#1",
            "ticks": 35328,
            "time": 39.999944,
            "velocity": 0.3937007874015748
          },
          {
            "duration": 0.43478199999999845,
            "durationTicks": 384,
            "midi": 63,
            "name": "D#4",
            "ticks": 35328,
            "time": 39.999944,
            "velocity": 0.3937007874015748
          },
          {
            "duration": 0.43478199999999845,
            "durationTicks": 384,
            "midi": 58,
            "name": "A#3",
            "ticks": 35328,
            "time": 39.999944,
            "velocity": 0.3937007874015748
          },
          {
            "duration": 0.43478199999999845,
            "durationTicks": 384,
            "midi": 54,
            "name": "F#3",
            "ticks": 35328,
            "time": 39.999944,
            "velocity": 0.3937007874015748
          },
          {
            "duration": 0.10869550000000316,
            "durationTicks": 96,
            "midi": 39,
            "name": "D#2",
            "ticks": 35520,
            "time": 40.217335,
            "velocity": 0.3937007874015748
          },
          {
            "duration": 0.10869550000000316,
            "durationTicks": 96,
            "midi": 51,
            "name": "D#3",
            "ticks": 35520,
            "time": 40.217335,
            "velocity": 0.3937007874015748
          },
          {
            "duration": 0.10869549999999606,
            "durationTicks": 96,
            "midi": 39,
            "name": "D#2",
            "ticks": 35616,
            "time": 40.3260305,
            "velocity": 0.3937007874015748
          },
          {
            "duration": 0.10869549999999606,
            "durationTicks": 96,
            "midi": 51,
            "name": "D#3",
            "ticks": 35616,
            "time": 40.3260305,
            "velocity": 0.3937007874015748
          },
          {
            "duration": 0.43478200000000555,
            "durationTicks": 384,
            "midi": 54,
            "name": "F#3",
            "ticks": 35712,
            "time": 40.434726,
            "velocity": 0.3937007874015748
          },
          {
            "duration": 0.10869550000000316,
            "durationTicks": 96,
            "midi": 39,
            "name": "D#2",
            "ticks": 35712,
            "time": 40.434726,
            "velocity": 0.3937007874015748
          },
          {
            "duration": 0.43478200000000555,
            "durationTicks": 384,
            "midi": 63,
            "name": "D#4",
            "ticks": 35712,
            "time": 40.434726,
            "velocity": 0.3937007874015748
          },
          {
            "duration": 0.43478200000000555,
            "durationTicks": 384,
            "midi": 58,
            "name": "A#3",
            "ticks": 35712,
            "time": 40.434726,
            "velocity": 0.3937007874015748
          },
          {
            "duration": 0.21739099999999922,
            "durationTicks": 192,
            "midi": 34,
            "name": "A#1",
            "ticks": 35712,
            "time": 40.434726,
            "velocity": 0.3937007874015748
          },
          {
            "duration": 0.10869550000000316,
            "durationTicks": 96,
            "midi": 27,
            "name": "D#1",
            "ticks": 35712,
            "time": 40.434726,
            "velocity": 0.3937007874015748
          },
          {
            "duration": 0.10869549999999606,
            "durationTicks": 96,
            "midi": 39,
            "name": "D#2",
            "ticks": 35808,
            "time": 40.5434215,
            "velocity": 0.3937007874015748
          },
          {
            "duration": 0.10869549999999606,
            "durationTicks": 96,
            "midi": 51,
            "name": "D#3",
            "ticks": 35808,
            "time": 40.5434215,
            "velocity": 0.3937007874015748
          },
          {
            "duration": 0.10869550000000316,
            "durationTicks": 96,
            "midi": 37,
            "name": "C#2",
            "ticks": 35904,
            "time": 40.652117,
            "velocity": 0.3937007874015748
          },
          {
            "duration": 0.10869550000000316,
            "durationTicks": 96,
            "midi": 49,
            "name": "C#3",
            "ticks": 35904,
            "time": 40.652117,
            "velocity": 0.3937007874015748
          },
          {
            "duration": 0.10869550000000316,
            "durationTicks": 96,
            "midi": 39,
            "name": "D#2",
            "ticks": 36000,
            "time": 40.7608125,
            "velocity": 0.3937007874015748
          },
          {
            "duration": 0.10869550000000316,
            "durationTicks": 96,
            "midi": 51,
            "name": "D#3",
            "ticks": 36000,
            "time": 40.7608125,
            "velocity": 0.3937007874015748
          },
          {
            "duration": 0.21739099999999922,
            "durationTicks": 192,
            "midi": 34,
            "name": "A#1",
            "ticks": 36096,
            "time": 40.869508,
            "velocity": 0.3937007874015748
          },
          {
            "duration": 0.43478199999999845,
            "durationTicks": 384,
            "midi": 54,
            "name": "F#3",
            "ticks": 36096,
            "time": 40.869508,
            "velocity": 0.3937007874015748
          },
          {
            "duration": 0.43478199999999845,
            "durationTicks": 384,
            "midi": 63,
            "name": "D#4",
            "ticks": 36096,
            "time": 40.869508,
            "velocity": 0.3937007874015748
          },
          {
            "duration": 0.43478199999999845,
            "durationTicks": 384,
            "midi": 58,
            "name": "A#3",
            "ticks": 36096,
            "time": 40.869508,
            "velocity": 0.3937007874015748
          },
          {
            "duration": 0.10869549999999606,
            "durationTicks": 96,
            "midi": 39,
            "name": "D#2",
            "ticks": 36096,
            "time": 40.869508,
            "velocity": 0.3937007874015748
          },
          {
            "duration": 0.10869549999999606,
            "durationTicks": 96,
            "midi": 27,
            "name": "D#1",
            "ticks": 36096,
            "time": 40.869508,
            "velocity": 0.3937007874015748
          },
          {
            "duration": 0.10869549999999606,
            "durationTicks": 96,
            "midi": 39,
            "name": "D#2",
            "ticks": 36288,
            "time": 41.086899,
            "velocity": 0.3937007874015748
          },
          {
            "duration": 0.10869549999999606,
            "durationTicks": 96,
            "midi": 51,
            "name": "D#3",
            "ticks": 36288,
            "time": 41.086899,
            "velocity": 0.3937007874015748
          },
          {
            "duration": 0.10869550000000316,
            "durationTicks": 96,
            "midi": 39,
            "name": "D#2",
            "ticks": 36384,
            "time": 41.1955945,
            "velocity": 0.3937007874015748
          },
          {
            "duration": 0.10869550000000316,
            "durationTicks": 96,
            "midi": 51,
            "name": "D#3",
            "ticks": 36384,
            "time": 41.1955945,
            "velocity": 0.3937007874015748
          },
          {
            "duration": 0.43478199999999845,
            "durationTicks": 384,
            "midi": 63,
            "name": "D#4",
            "ticks": 36480,
            "time": 41.30429,
            "velocity": 0.3937007874015748
          },
          {
            "duration": 0.21739099999999922,
            "durationTicks": 192,
            "midi": 34,
            "name": "A#1",
            "ticks": 36480,
            "time": 41.30429,
            "velocity": 0.3937007874015748
          },
          {
            "duration": 0.10869549999999606,
            "durationTicks": 96,
            "midi": 39,
            "name": "D#2",
            "ticks": 36480,
            "time": 41.30429,
            "velocity": 0.3937007874015748
          },
          {
            "duration": 0.10869549999999606,
            "durationTicks": 96,
            "midi": 27,
            "name": "D#1",
            "ticks": 36480,
            "time": 41.30429,
            "velocity": 0.3937007874015748
          },
          {
            "duration": 0.43478199999999845,
            "durationTicks": 384,
            "midi": 58,
            "name": "A#3",
            "ticks": 36480,
            "time": 41.30429,
            "velocity": 0.3937007874015748
          },
          {
            "duration": 0.43478199999999845,
            "durationTicks": 384,
            "midi": 54,
            "name": "F#3",
            "ticks": 36480,
            "time": 41.30429,
            "velocity": 0.3937007874015748
          },
          {
            "duration": 0.10869550000000316,
            "durationTicks": 96,
            "midi": 39,
            "name": "D#2",
            "ticks": 36576,
            "time": 41.4129855,
            "velocity": 0.3937007874015748
          },
          {
            "duration": 0.10869550000000316,
            "durationTicks": 96,
            "midi": 51,
            "name": "D#3",
            "ticks": 36576,
            "time": 41.4129855,
            "velocity": 0.3937007874015748
          },
          {
            "duration": 0.10869549999999606,
            "durationTicks": 96,
            "midi": 37,
            "name": "C#2",
            "ticks": 36672,
            "time": 41.521681,
            "velocity": 0.3937007874015748
          },
          {
            "duration": 0.10869549999999606,
            "durationTicks": 96,
            "midi": 49,
            "name": "C#3",
            "ticks": 36672,
            "time": 41.521681,
            "velocity": 0.3937007874015748
          },
          {
            "duration": 0.10869550000000316,
            "durationTicks": 96,
            "midi": 39,
            "name": "D#2",
            "ticks": 36768,
            "time": 41.6303765,
            "velocity": 0.3937007874015748
          },
          {
            "duration": 0.10869550000000316,
            "durationTicks": 96,
            "midi": 51,
            "name": "D#3",
            "ticks": 36768,
            "time": 41.6303765,
            "velocity": 0.3937007874015748
          },
          {
            "duration": 0.10869550000000316,
            "durationTicks": 96,
            "midi": 39,
            "name": "D#2",
            "ticks": 36864,
            "time": 41.739072,
            "velocity": 0.3937007874015748
          },
          {
            "duration": 0.43478199999999845,
            "durationTicks": 384,
            "midi": 58,
            "name": "A#3",
            "ticks": 36864,
            "time": 41.739072,
            "velocity": 0.3937007874015748
          },
          {
            "duration": 0.21739099999999922,
            "durationTicks": 192,
            "midi": 34,
            "name": "A#1",
            "ticks": 36864,
            "time": 41.739072,
            "velocity": 0.3937007874015748
          },
          {
            "duration": 0.43478199999999845,
            "durationTicks": 384,
            "midi": 54,
            "name": "F#3",
            "ticks": 36864,
            "time": 41.739072,
            "velocity": 0.3937007874015748
          },
          {
            "duration": 0.10869550000000316,
            "durationTicks": 96,
            "midi": 51,
            "name": "D#3",
            "ticks": 36864,
            "time": 41.739072,
            "velocity": 0.3937007874015748
          },
          {
            "duration": 0.43478199999999845,
            "durationTicks": 384,
            "midi": 63,
            "name": "D#4",
            "ticks": 36864,
            "time": 41.739072,
            "velocity": 0.3937007874015748
          },
          {
            "duration": 0.10869550000000316,
            "durationTicks": 96,
            "midi": 27,
            "name": "D#1",
            "ticks": 36864,
            "time": 41.739072,
            "velocity": 0.3937007874015748
          },
          {
            "duration": 0.10869550000000316,
            "durationTicks": 96,
            "midi": 39,
            "name": "D#2",
            "ticks": 37056,
            "time": 41.956463,
            "velocity": 0.3937007874015748
          },
          {
            "duration": 0.10869550000000316,
            "durationTicks": 96,
            "midi": 51,
            "name": "D#3",
            "ticks": 37056,
            "time": 41.956463,
            "velocity": 0.3937007874015748
          },
          {
            "duration": 0.10869549999999606,
            "durationTicks": 96,
            "midi": 39,
            "name": "D#2",
            "ticks": 37152,
            "time": 42.0651585,
            "velocity": 0.3937007874015748
          },
          {
            "duration": 0.10869549999999606,
            "durationTicks": 96,
            "midi": 51,
            "name": "D#3",
            "ticks": 37152,
            "time": 42.0651585,
            "velocity": 0.3937007874015748
          },
          {
            "duration": 0.10869550000000316,
            "durationTicks": 96,
            "midi": 39,
            "name": "D#2",
            "ticks": 37248,
            "time": 42.173854,
            "velocity": 0.3937007874015748
          },
          {
            "duration": 0.10869550000000316,
            "durationTicks": 96,
            "midi": 27,
            "name": "D#1",
            "ticks": 37248,
            "time": 42.173854,
            "velocity": 0.3937007874015748
          },
          {
            "duration": 0.43478199999999845,
            "durationTicks": 384,
            "midi": 63,
            "name": "D#4",
            "ticks": 37248,
            "time": 42.173854,
            "velocity": 0.3937007874015748
          },
          {
            "duration": 0.43478199999999845,
            "durationTicks": 384,
            "midi": 58,
            "name": "A#3",
            "ticks": 37248,
            "time": 42.173854,
            "velocity": 0.3937007874015748
          },
          {
            "duration": 0.21739099999999922,
            "durationTicks": 192,
            "midi": 34,
            "name": "A#1",
            "ticks": 37248,
            "time": 42.173854,
            "velocity": 0.3937007874015748
          },
          {
            "duration": 0.43478199999999845,
            "durationTicks": 384,
            "midi": 54,
            "name": "F#3",
            "ticks": 37248,
            "time": 42.173854,
            "velocity": 0.3937007874015748
          },
          {
            "duration": 0.10869549999999606,
            "durationTicks": 96,
            "midi": 51,
            "name": "D#3",
            "ticks": 37344,
            "time": 42.2825495,
            "velocity": 0.3937007874015748
          },
          {
            "duration": 0.10869549999999606,
            "durationTicks": 96,
            "midi": 39,
            "name": "D#2",
            "ticks": 37344,
            "time": 42.2825495,
            "velocity": 0.3937007874015748
          },
          {
            "duration": 0.10869550000000316,
            "durationTicks": 96,
            "midi": 37,
            "name": "C#2",
            "ticks": 37440,
            "time": 42.391245,
            "velocity": 0.3937007874015748
          },
          {
            "duration": 0.10869550000000316,
            "durationTicks": 96,
            "midi": 49,
            "name": "C#3",
            "ticks": 37440,
            "time": 42.391245,
            "velocity": 0.3937007874015748
          },
          {
            "duration": 0.10869549999999606,
            "durationTicks": 96,
            "midi": 39,
            "name": "D#2",
            "ticks": 37536,
            "time": 42.4999405,
            "velocity": 0.3937007874015748
          },
          {
            "duration": 0.10869549999999606,
            "durationTicks": 96,
            "midi": 51,
            "name": "D#3",
            "ticks": 37536,
            "time": 42.4999405,
            "velocity": 0.3937007874015748
          },
          {
            "duration": 0.21739100000000633,
            "durationTicks": 192,
            "midi": 34,
            "name": "A#1",
            "ticks": 37632,
            "time": 42.608636,
            "velocity": 0.3937007874015748
          },
          {
            "duration": 0.43478200000000555,
            "durationTicks": 384,
            "midi": 58,
            "name": "A#3",
            "ticks": 37632,
            "time": 42.608636,
            "velocity": 0.3937007874015748
          },
          {
            "duration": 0.10869550000000316,
            "durationTicks": 96,
            "midi": 54,
            "name": "F#3",
            "ticks": 37632,
            "time": 42.608636,
            "velocity": 0.3937007874015748
          },
          {
            "duration": 0.43478200000000555,
            "durationTicks": 384,
            "midi": 61,
            "name": "C#4",
            "ticks": 37632,
            "time": 42.608636,
            "velocity": 0.3937007874015748
          },
          {
            "duration": 0.43478200000000555,
            "durationTicks": 384,
            "midi": 54,
            "name": "F#3",
            "ticks": 37632,
            "time": 42.608636,
            "velocity": 0.3937007874015748
          },
          {
            "duration": 0.10869550000000316,
            "durationTicks": 96,
            "midi": 42,
            "name": "F#2",
            "ticks": 37632,
            "time": 42.608636,
            "velocity": 0.3937007874015748
          },
          {
            "duration": 0.10869549999999606,
            "durationTicks": 96,
            "midi": 51,
            "name": "D#3",
            "ticks": 37824,
            "time": 42.826027,
            "velocity": 0.3937007874015748
          },
          {
            "duration": 0.10869549999999606,
            "durationTicks": 96,
            "midi": 39,
            "name": "D#2",
            "ticks": 37824,
            "time": 42.826027,
            "velocity": 0.3937007874015748
          },
          {
            "duration": 0.10869550000000316,
            "durationTicks": 96,
            "midi": 54,
            "name": "F#3",
            "ticks": 37920,
            "time": 42.9347225,
            "velocity": 0.3937007874015748
          },
          {
            "duration": 0.10869550000000316,
            "durationTicks": 96,
            "midi": 42,
            "name": "F#2",
            "ticks": 37920,
            "time": 42.9347225,
            "velocity": 0.3937007874015748
          },
          {
            "duration": 0.10869549999999606,
            "durationTicks": 96,
            "midi": 44,
            "name": "G#2",
            "ticks": 38016,
            "time": 43.043418,
            "velocity": 0.3937007874015748
          },
          {
            "duration": 0.43478199999999845,
            "durationTicks": 384,
            "midi": 63,
            "name": "D#4",
            "ticks": 38016,
            "time": 43.043418,
            "velocity": 0.3937007874015748
          },
          {
            "duration": 0.21739099999999922,
            "durationTicks": 192,
            "midi": 34,
            "name": "A#1",
            "ticks": 38016,
            "time": 43.043418,
            "velocity": 0.3937007874015748
          },
          {
            "duration": 0.10869549999999606,
            "durationTicks": 96,
            "midi": 56,
            "name": "G#3",
            "ticks": 38016,
            "time": 43.043418,
            "velocity": 0.3937007874015748
          },
          {
            "duration": 0.43478199999999845,
            "durationTicks": 384,
            "midi": 59,
            "name": "B3",
            "ticks": 38016,
            "time": 43.043418,
            "velocity": 0.3937007874015748
          },
          {
            "duration": 0.43478199999999845,
            "durationTicks": 384,
            "midi": 56,
            "name": "G#3",
            "ticks": 38016,
            "time": 43.043418,
            "velocity": 0.3937007874015748
          },
          {
            "duration": 0.10869549999999606,
            "durationTicks": 96,
            "midi": 54,
            "name": "F#3",
            "ticks": 38208,
            "time": 43.260809,
            "velocity": 0.3937007874015748
          },
          {
            "duration": 0.21739099999999922,
            "durationTicks": 192,
            "midi": 34,
            "name": "A#1",
            "ticks": 38208,
            "time": 43.260809,
            "velocity": 0.3937007874015748
          },
          {
            "duration": 0.10869549999999606,
            "durationTicks": 96,
            "midi": 42,
            "name": "F#2",
            "ticks": 38208,
            "time": 43.260809,
            "velocity": 0.3937007874015748
          },
          {
            "duration": 0.10869550000000316,
            "durationTicks": 96,
            "midi": 44,
            "name": "G#2",
            "ticks": 38304,
            "time": 43.3695045,
            "velocity": 0.3937007874015748
          },
          {
            "duration": 0.10869550000000316,
            "durationTicks": 96,
            "midi": 56,
            "name": "G#3",
            "ticks": 38304,
            "time": 43.3695045,
            "velocity": 0.3937007874015748
          },
          {
            "duration": 0.10869549999999606,
            "durationTicks": 96,
            "midi": 27,
            "name": "D#1",
            "ticks": 38400,
            "time": 43.4782,
            "velocity": 0.3937007874015748
          },
          {
            "duration": 0.43478199999999845,
            "durationTicks": 384,
            "midi": 54,
            "name": "F#3",
            "ticks": 38400,
            "time": 43.4782,
            "velocity": 0.3937007874015748
          },
          {
            "duration": 0.43478199999999845,
            "durationTicks": 384,
            "midi": 63,
            "name": "D#4",
            "ticks": 38400,
            "time": 43.4782,
            "velocity": 0.3937007874015748
          },
          {
            "duration": 0.43478199999999845,
            "durationTicks": 384,
            "midi": 58,
            "name": "A#3",
            "ticks": 38400,
            "time": 43.4782,
            "velocity": 0.3937007874015748
          },
          {
            "duration": 0.21739099999999922,
            "durationTicks": 192,
            "midi": 34,
            "name": "A#1",
            "ticks": 38400,
            "time": 43.4782,
            "velocity": 0.3937007874015748
          },
          {
            "duration": 0.10869549999999606,
            "durationTicks": 96,
            "midi": 39,
            "name": "D#2",
            "ticks": 38400,
            "time": 43.4782,
            "velocity": 0.3937007874015748
          },
          {
            "duration": 0.10869550000000316,
            "durationTicks": 96,
            "midi": 51,
            "name": "D#3",
            "ticks": 38592,
            "time": 43.695591,
            "velocity": 0.3937007874015748
          },
          {
            "duration": 0.10869550000000316,
            "durationTicks": 96,
            "midi": 39,
            "name": "D#2",
            "ticks": 38592,
            "time": 43.695591,
            "velocity": 0.3937007874015748
          },
          {
            "duration": 0.10869549999999606,
            "durationTicks": 96,
            "midi": 51,
            "name": "D#3",
            "ticks": 38688,
            "time": 43.8042865,
            "velocity": 0.3937007874015748
          },
          {
            "duration": 0.10869549999999606,
            "durationTicks": 96,
            "midi": 39,
            "name": "D#2",
            "ticks": 38688,
            "time": 43.8042865,
            "velocity": 0.3937007874015748
          },
          {
            "duration": 0.43478199999999845,
            "durationTicks": 384,
            "midi": 58,
            "name": "A#3",
            "ticks": 38784,
            "time": 43.912982,
            "velocity": 0.3937007874015748
          },
          {
            "duration": 0.43478199999999845,
            "durationTicks": 384,
            "midi": 54,
            "name": "F#3",
            "ticks": 38784,
            "time": 43.912982,
            "velocity": 0.3937007874015748
          },
          {
            "duration": 0.43478199999999845,
            "durationTicks": 384,
            "midi": 63,
            "name": "D#4",
            "ticks": 38784,
            "time": 43.912982,
            "velocity": 0.3937007874015748
          },
          {
            "duration": 0.10869550000000316,
            "durationTicks": 96,
            "midi": 39,
            "name": "D#2",
            "ticks": 38784,
            "time": 43.912982,
            "velocity": 0.3937007874015748
          },
          {
            "duration": 0.10869550000000316,
            "durationTicks": 96,
            "midi": 27,
            "name": "D#1",
            "ticks": 38784,
            "time": 43.912982,
            "velocity": 0.3937007874015748
          },
          {
            "duration": 0.21739099999999922,
            "durationTicks": 192,
            "midi": 34,
            "name": "A#1",
            "ticks": 38784,
            "time": 43.912982,
            "velocity": 0.3937007874015748
          },
          {
            "duration": 0.10869549999999606,
            "durationTicks": 96,
            "midi": 51,
            "name": "D#3",
            "ticks": 38880,
            "time": 44.0216775,
            "velocity": 0.3937007874015748
          },
          {
            "duration": 0.10869549999999606,
            "durationTicks": 96,
            "midi": 39,
            "name": "D#2",
            "ticks": 38880,
            "time": 44.0216775,
            "velocity": 0.3937007874015748
          },
          {
            "duration": 0.10869550000000316,
            "durationTicks": 96,
            "midi": 49,
            "name": "C#3",
            "ticks": 38976,
            "time": 44.130373,
            "velocity": 0.3937007874015748
          },
          {
            "duration": 0.10869550000000316,
            "durationTicks": 96,
            "midi": 37,
            "name": "C#2",
            "ticks": 38976,
            "time": 44.130373,
            "velocity": 0.3937007874015748
          },
          {
            "duration": 0.10869549999999606,
            "durationTicks": 96,
            "midi": 39,
            "name": "D#2",
            "ticks": 39072,
            "time": 44.2390685,
            "velocity": 0.3937007874015748
          },
          {
            "duration": 0.10869549999999606,
            "durationTicks": 96,
            "midi": 51,
            "name": "D#3",
            "ticks": 39072,
            "time": 44.2390685,
            "velocity": 0.3937007874015748
          },
          {
            "duration": 0.10869550000000316,
            "durationTicks": 96,
            "midi": 27,
            "name": "D#1",
            "ticks": 39168,
            "time": 44.347764,
            "velocity": 0.3937007874015748
          },
          {
            "duration": 0.43478200000000555,
            "durationTicks": 384,
            "midi": 58,
            "name": "A#3",
            "ticks": 39168,
            "time": 44.347764,
            "velocity": 0.3937007874015748
          },
          {
            "duration": 0.10869550000000316,
            "durationTicks": 96,
            "midi": 39,
            "name": "D#2",
            "ticks": 39168,
            "time": 44.347764,
            "velocity": 0.3937007874015748
          },
          {
            "duration": 0.21739099999999922,
            "durationTicks": 192,
            "midi": 34,
            "name": "A#1",
            "ticks": 39168,
            "time": 44.347764,
            "velocity": 0.3937007874015748
          },
          {
            "duration": 0.43478200000000555,
            "durationTicks": 384,
            "midi": 54,
            "name": "F#3",
            "ticks": 39168,
            "time": 44.347764,
            "velocity": 0.3937007874015748
          },
          {
            "duration": 0.43478200000000555,
            "durationTicks": 384,
            "midi": 63,
            "name": "D#4",
            "ticks": 39168,
            "time": 44.347764,
            "velocity": 0.3937007874015748
          },
          {
            "duration": 0.10869550000000316,
            "durationTicks": 96,
            "midi": 39,
            "name": "D#2",
            "ticks": 39360,
            "time": 44.565155,
            "velocity": 0.3937007874015748
          },
          {
            "duration": 0.10869550000000316,
            "durationTicks": 96,
            "midi": 51,
            "name": "D#3",
            "ticks": 39360,
            "time": 44.565155,
            "velocity": 0.3937007874015748
          },
          {
            "duration": 0.10869550000000316,
            "durationTicks": 96,
            "midi": 39,
            "name": "D#2",
            "ticks": 39456,
            "time": 44.6738505,
            "velocity": 0.3937007874015748
          },
          {
            "duration": 0.10869550000000316,
            "durationTicks": 96,
            "midi": 51,
            "name": "D#3",
            "ticks": 39456,
            "time": 44.6738505,
            "velocity": 0.3937007874015748
          },
          {
            "duration": 0.43478199999999845,
            "durationTicks": 384,
            "midi": 63,
            "name": "D#4",
            "ticks": 39552,
            "time": 44.782546,
            "velocity": 0.3937007874015748
          },
          {
            "duration": 0.21739099999999922,
            "durationTicks": 192,
            "midi": 34,
            "name": "A#1",
            "ticks": 39552,
            "time": 44.782546,
            "velocity": 0.3937007874015748
          },
          {
            "duration": 0.43478199999999845,
            "durationTicks": 384,
            "midi": 54,
            "name": "F#3",
            "ticks": 39552,
            "time": 44.782546,
            "velocity": 0.3937007874015748
          },
          {
            "duration": 0.10869549999999606,
            "durationTicks": 96,
            "midi": 27,
            "name": "D#1",
            "ticks": 39552,
            "time": 44.782546,
            "velocity": 0.3937007874015748
          },
          {
            "duration": 0.10869549999999606,
            "durationTicks": 96,
            "midi": 39,
            "name": "D#2",
            "ticks": 39552,
            "time": 44.782546,
            "velocity": 0.3937007874015748
          },
          {
            "duration": 0.43478199999999845,
            "durationTicks": 384,
            "midi": 58,
            "name": "A#3",
            "ticks": 39552,
            "time": 44.782546,
            "velocity": 0.3937007874015748
          },
          {
            "duration": 0.10869550000000316,
            "durationTicks": 96,
            "midi": 39,
            "name": "D#2",
            "ticks": 39648,
            "time": 44.8912415,
            "velocity": 0.3937007874015748
          },
          {
            "duration": 0.10869550000000316,
            "durationTicks": 96,
            "midi": 51,
            "name": "D#3",
            "ticks": 39648,
            "time": 44.8912415,
            "velocity": 0.3937007874015748
          },
          {
            "duration": 0.10869549999999606,
            "durationTicks": 96,
            "midi": 37,
            "name": "C#2",
            "ticks": 39744,
            "time": 44.999937,
            "velocity": 0.3937007874015748
          },
          {
            "duration": 0.10869549999999606,
            "durationTicks": 96,
            "midi": 49,
            "name": "C#3",
            "ticks": 39744,
            "time": 44.999937,
            "velocity": 0.3937007874015748
          },
          {
            "duration": 0.10869550000000316,
            "durationTicks": 96,
            "midi": 39,
            "name": "D#2",
            "ticks": 39840,
            "time": 45.1086325,
            "velocity": 0.3937007874015748
          },
          {
            "duration": 0.10869550000000316,
            "durationTicks": 96,
            "midi": 51,
            "name": "D#3",
            "ticks": 39840,
            "time": 45.1086325,
            "velocity": 0.3937007874015748
          },
          {
            "duration": 0.43478199999999845,
            "durationTicks": 384,
            "midi": 63,
            "name": "D#4",
            "ticks": 39936,
            "time": 45.217328,
            "velocity": 0.3937007874015748
          },
          {
            "duration": 0.43478199999999845,
            "durationTicks": 384,
            "midi": 58,
            "name": "A#3",
            "ticks": 39936,
            "time": 45.217328,
            "velocity": 0.3937007874015748
          },
          {
            "duration": 0.21739099999999922,
            "durationTicks": 192,
            "midi": 34,
            "name": "A#1",
            "ticks": 39936,
            "time": 45.217328,
            "velocity": 0.3937007874015748
          },
          {
            "duration": 0.10869549999999606,
            "durationTicks": 96,
            "midi": 51,
            "name": "D#3",
            "ticks": 39936,
            "time": 45.217328,
            "velocity": 0.3937007874015748
          },
          {
            "duration": 0.43478199999999845,
            "durationTicks": 384,
            "midi": 54,
            "name": "F#3",
            "ticks": 39936,
            "time": 45.217328,
            "velocity": 0.3937007874015748
          },
          {
            "duration": 0.10869549999999606,
            "durationTicks": 96,
            "midi": 39,
            "name": "D#2",
            "ticks": 39936,
            "time": 45.217328,
            "velocity": 0.3937007874015748
          },
          {
            "duration": 0.10869549999999606,
            "durationTicks": 96,
            "midi": 27,
            "name": "D#1",
            "ticks": 39936,
            "time": 45.217328,
            "velocity": 0.3937007874015748
          },
          {
            "duration": 0.10869549999999606,
            "durationTicks": 96,
            "midi": 39,
            "name": "D#2",
            "ticks": 40128,
            "time": 45.434719,
            "velocity": 0.3937007874015748
          },
          {
            "duration": 0.10869549999999606,
            "durationTicks": 96,
            "midi": 51,
            "name": "D#3",
            "ticks": 40128,
            "time": 45.434719,
            "velocity": 0.3937007874015748
          },
          {
            "duration": 0.10869550000000316,
            "durationTicks": 96,
            "midi": 39,
            "name": "D#2",
            "ticks": 40224,
            "time": 45.5434145,
            "velocity": 0.3937007874015748
          },
          {
            "duration": 0.10869550000000316,
            "durationTicks": 96,
            "midi": 51,
            "name": "D#3",
            "ticks": 40224,
            "time": 45.5434145,
            "velocity": 0.3937007874015748
          },
          {
            "duration": 0.43478199999999845,
            "durationTicks": 384,
            "midi": 54,
            "name": "F#3",
            "ticks": 40320,
            "time": 45.65211,
            "velocity": 0.3937007874015748
          },
          {
            "duration": 0.21739099999999922,
            "durationTicks": 192,
            "midi": 34,
            "name": "A#1",
            "ticks": 40320,
            "time": 45.65211,
            "velocity": 0.3937007874015748
          },
          {
            "duration": 0.10869550000000316,
            "durationTicks": 96,
            "midi": 39,
            "name": "D#2",
            "ticks": 40320,
            "time": 45.65211,
            "velocity": 0.3937007874015748
          },
          {
            "duration": 0.10869550000000316,
            "durationTicks": 96,
            "midi": 27,
            "name": "D#1",
            "ticks": 40320,
            "time": 45.65211,
            "velocity": 0.3937007874015748
          },
          {
            "duration": 0.43478199999999845,
            "durationTicks": 384,
            "midi": 58,
            "name": "A#3",
            "ticks": 40320,
            "time": 45.65211,
            "velocity": 0.3937007874015748
          },
          {
            "duration": 0.43478199999999845,
            "durationTicks": 384,
            "midi": 63,
            "name": "D#4",
            "ticks": 40320,
            "time": 45.65211,
            "velocity": 0.3937007874015748
          },
          {
            "duration": 0.10869549999999606,
            "durationTicks": 96,
            "midi": 39,
            "name": "D#2",
            "ticks": 40416,
            "time": 45.760805500000004,
            "velocity": 0.3937007874015748
          },
          {
            "duration": 0.10869549999999606,
            "durationTicks": 96,
            "midi": 51,
            "name": "D#3",
            "ticks": 40416,
            "time": 45.760805500000004,
            "velocity": 0.3937007874015748
          },
          {
            "duration": 0.10869550000000316,
            "durationTicks": 96,
            "midi": 37,
            "name": "C#2",
            "ticks": 40512,
            "time": 45.869501,
            "velocity": 0.3937007874015748
          },
          {
            "duration": 0.10869550000000316,
            "durationTicks": 96,
            "midi": 49,
            "name": "C#3",
            "ticks": 40512,
            "time": 45.869501,
            "velocity": 0.3937007874015748
          },
          {
            "duration": 0.10869549999999606,
            "durationTicks": 96,
            "midi": 51,
            "name": "D#3",
            "ticks": 40608,
            "time": 45.9781965,
            "velocity": 0.3937007874015748
          },
          {
            "duration": 0.10869549999999606,
            "durationTicks": 96,
            "midi": 39,
            "name": "D#2",
            "ticks": 40608,
            "time": 45.9781965,
            "velocity": 0.3937007874015748
          },
          {
            "duration": 0.10869550000000316,
            "durationTicks": 96,
            "midi": 56,
            "name": "G#3",
            "ticks": 40704,
            "time": 46.086892,
            "velocity": 0.3937007874015748
          },
          {
            "duration": 0.10869550000000316,
            "durationTicks": 96,
            "midi": 63,
            "name": "D#4",
            "ticks": 40704,
            "time": 46.086892,
            "velocity": 0.3937007874015748
          },
          {
            "duration": 0.10869550000000316,
            "durationTicks": 96,
            "midi": 59,
            "name": "B3",
            "ticks": 40704,
            "time": 46.086892,
            "velocity": 0.3937007874015748
          },
          {
            "duration": 0.10869550000000316,
            "durationTicks": 96,
            "midi": 44,
            "name": "G#2",
            "ticks": 40704,
            "time": 46.086892,
            "velocity": 0.3937007874015748
          },
          {
            "duration": 0.10869550000000316,
            "durationTicks": 96,
            "midi": 56,
            "name": "G#3",
            "ticks": 40704,
            "time": 46.086892,
            "velocity": 0.3937007874015748
          },
          {
            "duration": 0.10869550000000316,
            "durationTicks": 96,
            "midi": 34,
            "name": "A#1",
            "ticks": 40704,
            "time": 46.086892,
            "velocity": 0.3937007874015748
          },
          {
            "duration": 0.10869549999999606,
            "durationTicks": 96,
            "midi": 63,
            "name": "D#4",
            "ticks": 40832,
            "time": 46.231819333333334,
            "velocity": 0.3937007874015748
          },
          {
            "duration": 0.10869549999999606,
            "durationTicks": 96,
            "midi": 34,
            "name": "A#1",
            "ticks": 40832,
            "time": 46.231819333333334,
            "velocity": 0.3937007874015748
          },
          {
            "duration": 0.10869549999999606,
            "durationTicks": 96,
            "midi": 59,
            "name": "B3",
            "ticks": 40832,
            "time": 46.231819333333334,
            "velocity": 0.3937007874015748
          },
          {
            "duration": 0.10869549999999606,
            "durationTicks": 96,
            "midi": 54,
            "name": "F#3",
            "ticks": 40832,
            "time": 46.231819333333334,
            "velocity": 0.3937007874015748
          },
          {
            "duration": 0.10869549999999606,
            "durationTicks": 96,
            "midi": 42,
            "name": "F#2",
            "ticks": 40832,
            "time": 46.231819333333334,
            "velocity": 0.3937007874015748
          },
          {
            "duration": 0.10869549999999606,
            "durationTicks": 96,
            "midi": 56,
            "name": "G#3",
            "ticks": 40832,
            "time": 46.231819333333334,
            "velocity": 0.3937007874015748
          },
          {
            "duration": 0.10869549999999606,
            "durationTicks": 96,
            "midi": 34,
            "name": "A#1",
            "ticks": 40961,
            "time": 46.37787891145833,
            "velocity": 0.3937007874015748
          },
          {
            "duration": 0.10869549999999606,
            "durationTicks": 96,
            "midi": 56,
            "name": "G#3",
            "ticks": 40961,
            "time": 46.37787891145833,
            "velocity": 0.3937007874015748
          },
          {
            "duration": 0.10869549999999606,
            "durationTicks": 96,
            "midi": 63,
            "name": "D#4",
            "ticks": 40961,
            "time": 46.37787891145833,
            "velocity": 0.3937007874015748
          },
          {
            "duration": 0.10869549999999606,
            "durationTicks": 96,
            "midi": 44,
            "name": "G#2",
            "ticks": 40961,
            "time": 46.37787891145833,
            "velocity": 0.3937007874015748
          },
          {
            "duration": 0.10869549999999606,
            "durationTicks": 96,
            "midi": 59,
            "name": "B3",
            "ticks": 40961,
            "time": 46.37787891145833,
            "velocity": 0.3937007874015748
          },
          {
            "duration": 0.10869549999999606,
            "durationTicks": 96,
            "midi": 56,
            "name": "G#3",
            "ticks": 40961,
            "time": 46.37787891145833,
            "velocity": 0.3937007874015748
          },
          {
            "duration": 0.10869550000000316,
            "durationTicks": 96,
            "midi": 54,
            "name": "F#3",
            "ticks": 41089,
            "time": 46.52280624479167,
            "velocity": 0.3937007874015748
          },
          {
            "duration": 0.10869550000000316,
            "durationTicks": 96,
            "midi": 54,
            "name": "F#3",
            "ticks": 41089,
            "time": 46.52280624479167,
            "velocity": 0.3937007874015748
          },
          {
            "duration": 0.10869550000000316,
            "durationTicks": 96,
            "midi": 61,
            "name": "C#4",
            "ticks": 41089,
            "time": 46.52280624479167,
            "velocity": 0.3937007874015748
          },
          {
            "duration": 0.10869550000000316,
            "durationTicks": 96,
            "midi": 34,
            "name": "A#1",
            "ticks": 41089,
            "time": 46.52280624479167,
            "velocity": 0.3937007874015748
          },
          {
            "duration": 0.10869550000000316,
            "durationTicks": 96,
            "midi": 58,
            "name": "A#3",
            "ticks": 41089,
            "time": 46.52280624479167,
            "velocity": 0.3937007874015748
          },
          {
            "duration": 0.10869550000000316,
            "durationTicks": 96,
            "midi": 42,
            "name": "F#2",
            "ticks": 41089,
            "time": 46.52280624479167,
            "velocity": 0.3937007874015748
          },
          {
            "duration": 0.10869549999999606,
            "durationTicks": 96,
            "midi": 34,
            "name": "A#1",
            "ticks": 41217,
            "time": 46.667733578125,
            "velocity": 0.3937007874015748
          },
          {
            "duration": 0.10869549999999606,
            "durationTicks": 96,
            "midi": 58,
            "name": "A#3",
            "ticks": 41217,
            "time": 46.667733578125,
            "velocity": 0.3937007874015748
          },
          {
            "duration": 0.10869549999999606,
            "durationTicks": 96,
            "midi": 54,
            "name": "F#3",
            "ticks": 41217,
            "time": 46.667733578125,
            "velocity": 0.3937007874015748
          },
          {
            "duration": 0.10869549999999606,
            "durationTicks": 96,
            "midi": 61,
            "name": "C#4",
            "ticks": 41217,
            "time": 46.667733578125,
            "velocity": 0.3937007874015748
          },
          {
            "duration": 0.10869549999999606,
            "durationTicks": 96,
            "midi": 39,
            "name": "D#2",
            "ticks": 41217,
            "time": 46.667733578125,
            "velocity": 0.3937007874015748
          },
          {
            "duration": 0.10869549999999606,
            "durationTicks": 96,
            "midi": 51,
            "name": "D#3",
            "ticks": 41217,
            "time": 46.667733578125,
            "velocity": 0.3937007874015748
          },
          {
            "duration": 0.10869550000000316,
            "durationTicks": 96,
            "midi": 54,
            "name": "F#3",
            "ticks": 41346,
            "time": 46.81379315625,
            "velocity": 0.3937007874015748
          },
          {
            "duration": 0.10869550000000316,
            "durationTicks": 96,
            "midi": 54,
            "name": "F#3",
            "ticks": 41346,
            "time": 46.81379315625,
            "velocity": 0.3937007874015748
          },
          {
            "duration": 0.10869550000000316,
            "durationTicks": 96,
            "midi": 34,
            "name": "A#1",
            "ticks": 41346,
            "time": 46.81379315625,
            "velocity": 0.3937007874015748
          },
          {
            "duration": 0.10869550000000316,
            "durationTicks": 96,
            "midi": 42,
            "name": "F#2",
            "ticks": 41346,
            "time": 46.81379315625,
            "velocity": 0.3937007874015748
          },
          {
            "duration": 0.10869550000000316,
            "durationTicks": 96,
            "midi": 58,
            "name": "A#3",
            "ticks": 41346,
            "time": 46.81379315625,
            "velocity": 0.3937007874015748
          },
          {
            "duration": 0.10869550000000316,
            "durationTicks": 96,
            "midi": 61,
            "name": "C#4",
            "ticks": 41346,
            "time": 46.81379315625,
            "velocity": 0.3937007874015748
          },
          {
            "duration": 0.10869550000000316,
            "durationTicks": 96,
            "midi": 51,
            "name": "D#3",
            "ticks": 41474,
            "time": 46.95872048958333,
            "velocity": 0.3937007874015748
          },
          {
            "duration": 0.10869550000000316,
            "durationTicks": 96,
            "midi": 27,
            "name": "D#1",
            "ticks": 41474,
            "time": 46.95872048958333,
            "velocity": 0.3937007874015748
          },
          {
            "duration": 0.3260865000000024,
            "durationTicks": 288,
            "midi": 63,
            "name": "D#4",
            "ticks": 41474,
            "time": 46.95872048958333,
            "velocity": 0.3937007874015748
          },
          {
            "duration": 0.10869550000000316,
            "durationTicks": 96,
            "midi": 39,
            "name": "D#2",
            "ticks": 41474,
            "time": 46.95872048958333,
            "velocity": 0.3937007874015748
          },
          {
            "duration": 0.21739100000000633,
            "durationTicks": 192,
            "midi": 34,
            "name": "A#1",
            "ticks": 41474,
            "time": 46.95872048958333,
            "velocity": 0.3937007874015748
          },
          {
            "duration": 0.43478200000000555,
            "durationTicks": 384,
            "midi": 58,
            "name": "A#3",
            "ticks": 41474,
            "time": 46.95872048958333,
            "velocity": 0.3937007874015748
          },
          {
            "duration": 0.43478200000000555,
            "durationTicks": 384,
            "midi": 54,
            "name": "F#3",
            "ticks": 41474,
            "time": 46.95872048958333,
            "velocity": 0.3937007874015748
          },
          {
            "duration": 0.10869549999999606,
            "durationTicks": 96,
            "midi": 51,
            "name": "D#3",
            "ticks": 41666,
            "time": 47.176111489583334,
            "velocity": 0.3937007874015748
          },
          {
            "duration": 0.10869549999999606,
            "durationTicks": 96,
            "midi": 39,
            "name": "D#2",
            "ticks": 41666,
            "time": 47.176111489583334,
            "velocity": 0.3937007874015748
          },
          {
            "duration": 0.21739099999999922,
            "durationTicks": 192,
            "midi": 63,
            "name": "D#4",
            "ticks": 41666,
            "time": 47.176111489583334,
            "velocity": 0.3937007874015748
          },
          {
            "duration": 0.10869550000000316,
            "durationTicks": 96,
            "midi": 63,
            "name": "D#4",
            "ticks": 41762,
            "time": 47.28480698958333,
            "velocity": 0.3937007874015748
          },
          {
            "duration": 0.10869550000000316,
            "durationTicks": 96,
            "midi": 51,
            "name": "D#3",
            "ticks": 41762,
            "time": 47.28480698958333,
            "velocity": 0.3937007874015748
          },
          {
            "duration": 0.10869550000000316,
            "durationTicks": 96,
            "midi": 39,
            "name": "D#2",
            "ticks": 41762,
            "time": 47.28480698958333,
            "velocity": 0.3937007874015748
          },
          {
            "duration": 0.10869549999999606,
            "durationTicks": 96,
            "midi": 27,
            "name": "D#1",
            "ticks": 41858,
            "time": 47.393502489583334,
            "velocity": 0.3937007874015748
          },
          {
            "duration": 0.10869549999999606,
            "durationTicks": 96,
            "midi": 39,
            "name": "D#2",
            "ticks": 41858,
            "time": 47.393502489583334,
            "velocity": 0.3937007874015748
          },
          {
            "duration": 0.43478199999999845,
            "durationTicks": 384,
            "midi": 54,
            "name": "F#3",
            "ticks": 41858,
            "time": 47.393502489583334,
            "velocity": 0.3937007874015748
          },
          {
            "duration": 0.43478199999999845,
            "durationTicks": 384,
            "midi": 58,
            "name": "A#3",
            "ticks": 41858,
            "time": 47.393502489583334,
            "velocity": 0.3937007874015748
          },
          {
            "duration": 0.10869549999999606,
            "durationTicks": 96,
            "midi": 51,
            "name": "D#3",
            "ticks": 41858,
            "time": 47.393502489583334,
            "velocity": 0.3937007874015748
          },
          {
            "duration": 0.21739099999999922,
            "durationTicks": 192,
            "midi": 63,
            "name": "D#4",
            "ticks": 41858,
            "time": 47.393502489583334,
            "velocity": 0.3937007874015748
          },
          {
            "duration": 0.21739099999999922,
            "durationTicks": 192,
            "midi": 34,
            "name": "A#1",
            "ticks": 41858,
            "time": 47.393502489583334,
            "velocity": 0.3937007874015748
          },
          {
            "duration": 0.10869550000000316,
            "durationTicks": 96,
            "midi": 39,
            "name": "D#2",
            "ticks": 41954,
            "time": 47.50219798958333,
            "velocity": 0.3937007874015748
          },
          {
            "duration": 0.3260865000000024,
            "durationTicks": 288,
            "midi": 63,
            "name": "D#4",
            "ticks": 41954,
            "time": 47.50219798958333,
            "velocity": 0.3937007874015748
          },
          {
            "duration": 0.10869550000000316,
            "durationTicks": 96,
            "midi": 51,
            "name": "D#3",
            "ticks": 41954,
            "time": 47.50219798958333,
            "velocity": 0.3937007874015748
          },
          {
            "duration": 0.10869549999999606,
            "durationTicks": 96,
            "midi": 49,
            "name": "C#3",
            "ticks": 42050,
            "time": 47.61089348958333,
            "velocity": 0.3937007874015748
          },
          {
            "duration": 0.10869549999999606,
            "durationTicks": 96,
            "midi": 37,
            "name": "C#2",
            "ticks": 42050,
            "time": 47.61089348958333,
            "velocity": 0.3937007874015748
          },
          {
            "duration": 0.10869549999999606,
            "durationTicks": 96,
            "midi": 61,
            "name": "C#4",
            "ticks": 42050,
            "time": 47.61089348958333,
            "velocity": 0.3937007874015748
          },
          {
            "duration": 0.10869550000000316,
            "durationTicks": 96,
            "midi": 51,
            "name": "D#3",
            "ticks": 42146,
            "time": 47.71958898958333,
            "velocity": 0.3937007874015748
          },
          {
            "duration": 0.10869550000000316,
            "durationTicks": 96,
            "midi": 39,
            "name": "D#2",
            "ticks": 42146,
            "time": 47.71958898958333,
            "velocity": 0.3937007874015748
          },
          {
            "duration": 0.10869550000000316,
            "durationTicks": 96,
            "midi": 63,
            "name": "D#4",
            "ticks": 42146,
            "time": 47.71958898958333,
            "velocity": 0.3937007874015748
          },
          {
            "duration": 0.10869549999999606,
            "durationTicks": 96,
            "midi": 27,
            "name": "D#1",
            "ticks": 42242,
            "time": 47.82828448958333,
            "velocity": 0.3937007874015748
          },
          {
            "duration": 0.3260865000000024,
            "durationTicks": 288,
            "midi": 63,
            "name": "D#4",
            "ticks": 42242,
            "time": 47.82828448958333,
            "velocity": 0.3937007874015748
          },
          {
            "duration": 0.21739099999999922,
            "durationTicks": 192,
            "midi": 34,
            "name": "A#1",
            "ticks": 42242,
            "time": 47.82828448958333,
            "velocity": 0.3937007874015748
          },
          {
            "duration": 0.10869549999999606,
            "durationTicks": 96,
            "midi": 51,
            "name": "D#3",
            "ticks": 42242,
            "time": 47.82828448958333,
            "velocity": 0.3937007874015748
          },
          {
            "duration": 0.43478199999999845,
            "durationTicks": 384,
            "midi": 58,
            "name": "A#3",
            "ticks": 42242,
            "time": 47.82828448958333,
            "velocity": 0.3937007874015748
          },
          {
            "duration": 0.43478199999999845,
            "durationTicks": 384,
            "midi": 54,
            "name": "F#3",
            "ticks": 42242,
            "time": 47.82828448958333,
            "velocity": 0.3937007874015748
          },
          {
            "duration": 0.10869549999999606,
            "durationTicks": 96,
            "midi": 39,
            "name": "D#2",
            "ticks": 42242,
            "time": 47.82828448958333,
            "velocity": 0.3937007874015748
          },
          {
            "duration": 0.10869550000000316,
            "durationTicks": 96,
            "midi": 51,
            "name": "D#3",
            "ticks": 42434,
            "time": 48.04567548958333,
            "velocity": 0.3937007874015748
          },
          {
            "duration": 0.10869550000000316,
            "durationTicks": 96,
            "midi": 39,
            "name": "D#2",
            "ticks": 42434,
            "time": 48.04567548958333,
            "velocity": 0.3937007874015748
          },
          {
            "duration": 0.21739099999999922,
            "durationTicks": 192,
            "midi": 63,
            "name": "D#4",
            "ticks": 42434,
            "time": 48.04567548958333,
            "velocity": 0.3937007874015748
          },
          {
            "duration": 0.10869549999999606,
            "durationTicks": 96,
            "midi": 63,
            "name": "D#4",
            "ticks": 42530,
            "time": 48.154370989583335,
            "velocity": 0.3937007874015748
          },
          {
            "duration": 0.10869549999999606,
            "durationTicks": 96,
            "midi": 39,
            "name": "D#2",
            "ticks": 42530,
            "time": 48.154370989583335,
            "velocity": 0.3937007874015748
          },
          {
            "duration": 0.10869549999999606,
            "durationTicks": 96,
            "midi": 51,
            "name": "D#3",
            "ticks": 42530,
            "time": 48.154370989583335,
            "velocity": 0.3937007874015748
          },
          {
            "duration": 0.10869550000000316,
            "durationTicks": 96,
            "midi": 39,
            "name": "D#2",
            "ticks": 42626,
            "time": 48.26306648958333,
            "velocity": 0.3937007874015748
          },
          {
            "duration": 0.10869550000000316,
            "durationTicks": 96,
            "midi": 51,
            "name": "D#3",
            "ticks": 42626,
            "time": 48.26306648958333,
            "velocity": 0.3937007874015748
          },
          {
            "duration": 0.43478199999999845,
            "durationTicks": 384,
            "midi": 54,
            "name": "F#3",
            "ticks": 42626,
            "time": 48.26306648958333,
            "velocity": 0.3937007874015748
          },
          {
            "duration": 0.43478199999999845,
            "durationTicks": 384,
            "midi": 58,
            "name": "A#3",
            "ticks": 42626,
            "time": 48.26306648958333,
            "velocity": 0.3937007874015748
          },
          {
            "duration": 0.10869550000000316,
            "durationTicks": 96,
            "midi": 27,
            "name": "D#1",
            "ticks": 42626,
            "time": 48.26306648958333,
            "velocity": 0.3937007874015748
          },
          {
            "duration": 0.21739099999999922,
            "durationTicks": 192,
            "midi": 34,
            "name": "A#1",
            "ticks": 42626,
            "time": 48.26306648958333,
            "velocity": 0.3937007874015748
          },
          {
            "duration": 0.21739099999999922,
            "durationTicks": 192,
            "midi": 63,
            "name": "D#4",
            "ticks": 42626,
            "time": 48.26306648958333,
            "velocity": 0.3937007874015748
          },
          {
            "duration": 0.10869549999999606,
            "durationTicks": 96,
            "midi": 39,
            "name": "D#2",
            "ticks": 42722,
            "time": 48.371761989583334,
            "velocity": 0.3937007874015748
          },
          {
            "duration": 0.3260864999999953,
            "durationTicks": 288,
            "midi": 63,
            "name": "D#4",
            "ticks": 42722,
            "time": 48.371761989583334,
            "velocity": 0.3937007874015748
          },
          {
            "duration": 0.10869549999999606,
            "durationTicks": 96,
            "midi": 51,
            "name": "D#3",
            "ticks": 42722,
            "time": 48.371761989583334,
            "velocity": 0.3937007874015748
          },
          {
            "duration": 0.10869550000000316,
            "durationTicks": 96,
            "midi": 37,
            "name": "C#2",
            "ticks": 42818,
            "time": 48.48045748958333,
            "velocity": 0.3937007874015748
          },
          {
            "duration": 0.10869550000000316,
            "durationTicks": 96,
            "midi": 49,
            "name": "C#3",
            "ticks": 42818,
            "time": 48.48045748958333,
            "velocity": 0.3937007874015748
          },
          {
            "duration": 0.10869550000000316,
            "durationTicks": 96,
            "midi": 61,
            "name": "C#4",
            "ticks": 42818,
            "time": 48.48045748958333,
            "velocity": 0.3937007874015748
          },
          {
            "duration": 0.10869549999999606,
            "durationTicks": 96,
            "midi": 51,
            "name": "D#3",
            "ticks": 42914,
            "time": 48.58915298958333,
            "velocity": 0.3937007874015748
          },
          {
            "duration": 0.10869549999999606,
            "durationTicks": 96,
            "midi": 63,
            "name": "D#4",
            "ticks": 42914,
            "time": 48.58915298958333,
            "velocity": 0.3937007874015748
          },
          {
            "duration": 0.10869549999999606,
            "durationTicks": 96,
            "midi": 39,
            "name": "D#2",
            "ticks": 42914,
            "time": 48.58915298958333,
            "velocity": 0.3937007874015748
          },
          {
            "duration": 0.21739099999999922,
            "durationTicks": 192,
            "midi": 34,
            "name": "A#1",
            "ticks": 43010,
            "time": 48.69784848958333,
            "velocity": 0.3937007874015748
          },
          {
            "duration": 0.43478200000000555,
            "durationTicks": 384,
            "midi": 54,
            "name": "F#3",
            "ticks": 43010,
            "time": 48.69784848958333,
            "velocity": 0.3937007874015748
          },
          {
            "duration": 0.10869550000000316,
            "durationTicks": 96,
            "midi": 27,
            "name": "D#1",
            "ticks": 43010,
            "time": 48.69784848958333,
            "velocity": 0.3937007874015748
          },
          {
            "duration": 0.43478200000000555,
            "durationTicks": 384,
            "midi": 58,
            "name": "A#3",
            "ticks": 43010,
            "time": 48.69784848958333,
            "velocity": 0.3937007874015748
          },
          {
            "duration": 0.10869550000000316,
            "durationTicks": 96,
            "midi": 39,
            "name": "D#2",
            "ticks": 43010,
            "time": 48.69784848958333,
            "velocity": 0.3937007874015748
          },
          {
            "duration": 0.3260865000000024,
            "durationTicks": 288,
            "midi": 63,
            "name": "D#4",
            "ticks": 43010,
            "time": 48.69784848958333,
            "velocity": 0.3937007874015748
          },
          {
            "duration": 0.10869550000000316,
            "durationTicks": 96,
            "midi": 51,
            "name": "D#3",
            "ticks": 43010,
            "time": 48.69784848958333,
            "velocity": 0.3937007874015748
          },
          {
            "duration": 0.21739100000000633,
            "durationTicks": 192,
            "midi": 63,
            "name": "D#4",
            "ticks": 43202,
            "time": 48.91523948958333,
            "velocity": 0.3937007874015748
          },
          {
            "duration": 0.10869550000000316,
            "durationTicks": 96,
            "midi": 51,
            "name": "D#3",
            "ticks": 43202,
            "time": 48.91523948958333,
            "velocity": 0.3937007874015748
          },
          {
            "duration": 0.10869550000000316,
            "durationTicks": 96,
            "midi": 39,
            "name": "D#2",
            "ticks": 43202,
            "time": 48.91523948958333,
            "velocity": 0.3937007874015748
          },
          {
            "duration": 0.10869550000000316,
            "durationTicks": 96,
            "midi": 39,
            "name": "D#2",
            "ticks": 43298,
            "time": 49.02393498958333,
            "velocity": 0.3937007874015748
          },
          {
            "duration": 0.10869550000000316,
            "durationTicks": 96,
            "midi": 51,
            "name": "D#3",
            "ticks": 43298,
            "time": 49.02393498958333,
            "velocity": 0.3937007874015748
          },
          {
            "duration": 0.10869550000000316,
            "durationTicks": 96,
            "midi": 63,
            "name": "D#4",
            "ticks": 43298,
            "time": 49.02393498958333,
            "velocity": 0.3937007874015748
          },
          {
            "duration": 0.43478199999999845,
            "durationTicks": 384,
            "midi": 58,
            "name": "A#3",
            "ticks": 43394,
            "time": 49.132630489583335,
            "velocity": 0.3937007874015748
          },
          {
            "duration": 0.21739099999999922,
            "durationTicks": 192,
            "midi": 63,
            "name": "D#4",
            "ticks": 43394,
            "time": 49.132630489583335,
            "velocity": 0.3937007874015748
          },
          {
            "duration": 0.21739099999999922,
            "durationTicks": 192,
            "midi": 34,
            "name": "A#1",
            "ticks": 43394,
            "time": 49.132630489583335,
            "velocity": 0.3937007874015748
          },
          {
            "duration": 0.10869549999999606,
            "durationTicks": 96,
            "midi": 51,
            "name": "D#3",
            "ticks": 43394,
            "time": 49.132630489583335,
            "velocity": 0.3937007874015748
          },
          {
            "duration": 0.10869549999999606,
            "durationTicks": 96,
            "midi": 39,
            "name": "D#2",
            "ticks": 43394,
            "time": 49.132630489583335,
            "velocity": 0.3937007874015748
          },
          {
            "duration": 0.10869549999999606,
            "durationTicks": 96,
            "midi": 27,
            "name": "D#1",
            "ticks": 43394,
            "time": 49.132630489583335,
            "velocity": 0.3937007874015748
          },
          {
            "duration": 0.43478199999999845,
            "durationTicks": 384,
            "midi": 54,
            "name": "F#3",
            "ticks": 43394,
            "time": 49.132630489583335,
            "velocity": 0.3937007874015748
          },
          {
            "duration": 0.3260865000000024,
            "durationTicks": 288,
            "midi": 63,
            "name": "D#4",
            "ticks": 43490,
            "time": 49.24132598958333,
            "velocity": 0.3937007874015748
          },
          {
            "duration": 0.10869550000000316,
            "durationTicks": 96,
            "midi": 39,
            "name": "D#2",
            "ticks": 43490,
            "time": 49.24132598958333,
            "velocity": 0.3937007874015748
          },
          {
            "duration": 0.10869550000000316,
            "durationTicks": 96,
            "midi": 51,
            "name": "D#3",
            "ticks": 43490,
            "time": 49.24132598958333,
            "velocity": 0.3937007874015748
          },
          {
            "duration": 0.10869549999999606,
            "durationTicks": 96,
            "midi": 37,
            "name": "C#2",
            "ticks": 43586,
            "time": 49.350021489583334,
            "velocity": 0.3937007874015748
          },
          {
            "duration": 0.10869549999999606,
            "durationTicks": 96,
            "midi": 49,
            "name": "C#3",
            "ticks": 43586,
            "time": 49.350021489583334,
            "velocity": 0.3937007874015748
          },
          {
            "duration": 0.10869549999999606,
            "durationTicks": 96,
            "midi": 61,
            "name": "C#4",
            "ticks": 43586,
            "time": 49.350021489583334,
            "velocity": 0.3937007874015748
          },
          {
            "duration": 0.10869550000000316,
            "durationTicks": 96,
            "midi": 63,
            "name": "D#4",
            "ticks": 43682,
            "time": 49.45871698958333,
            "velocity": 0.3937007874015748
          },
          {
            "duration": 0.10869550000000316,
            "durationTicks": 96,
            "midi": 39,
            "name": "D#2",
            "ticks": 43682,
            "time": 49.45871698958333,
            "velocity": 0.3937007874015748
          },
          {
            "duration": 0.10869550000000316,
            "durationTicks": 96,
            "midi": 51,
            "name": "D#3",
            "ticks": 43682,
            "time": 49.45871698958333,
            "velocity": 0.3937007874015748
          },
          {
            "duration": 0.43478199999999845,
            "durationTicks": 384,
            "midi": 58,
            "name": "A#3",
            "ticks": 43778,
            "time": 49.56741248958333,
            "velocity": 0.3937007874015748
          },
          {
            "duration": 0.43478199999999845,
            "durationTicks": 384,
            "midi": 61,
            "name": "C#4",
            "ticks": 43778,
            "time": 49.56741248958333,
            "velocity": 0.3937007874015748
          },
          {
            "duration": 0.10869549999999606,
            "durationTicks": 96,
            "midi": 42,
            "name": "F#2",
            "ticks": 43778,
            "time": 49.56741248958333,
            "velocity": 0.3937007874015748
          },
          {
            "duration": 0.10869549999999606,
            "durationTicks": 96,
            "midi": 66,
            "name": "F#4",
            "ticks": 43778,
            "time": 49.56741248958333,
            "velocity": 0.3937007874015748
          },
          {
            "duration": 0.10869549999999606,
            "durationTicks": 96,
            "midi": 54,
            "name": "F#3",
            "ticks": 43778,
            "time": 49.56741248958333,
            "velocity": 0.3937007874015748
          },
          {
            "duration": 0.43478199999999845,
            "durationTicks": 384,
            "midi": 54,
            "name": "F#3",
            "ticks": 43778,
            "time": 49.56741248958333,
            "velocity": 0.3937007874015748
          },
          {
            "duration": 0.21739099999999922,
            "durationTicks": 192,
            "midi": 34,
            "name": "A#1",
            "ticks": 43778,
            "time": 49.56741248958333,
            "velocity": 0.3937007874015748
          },
          {
            "duration": 0.10869549999999606,
            "durationTicks": 96,
            "midi": 63,
            "name": "D#4",
            "ticks": 43970,
            "time": 49.78480348958333,
            "velocity": 0.3937007874015748
          },
          {
            "duration": 0.10869549999999606,
            "durationTicks": 96,
            "midi": 39,
            "name": "D#2",
            "ticks": 43970,
            "time": 49.78480348958333,
            "velocity": 0.3937007874015748
          },
          {
            "duration": 0.10869549999999606,
            "durationTicks": 96,
            "midi": 51,
            "name": "D#3",
            "ticks": 43970,
            "time": 49.78480348958333,
            "velocity": 0.3937007874015748
          },
          {
            "duration": 0.10869550000000316,
            "durationTicks": 96,
            "midi": 42,
            "name": "F#2",
            "ticks": 44066,
            "time": 49.89349898958333,
            "velocity": 0.3937007874015748
          },
          {
            "duration": 0.10869550000000316,
            "durationTicks": 96,
            "midi": 54,
            "name": "F#3",
            "ticks": 44066,
            "time": 49.89349898958333,
            "velocity": 0.3937007874015748
          },
          {
            "duration": 0.10869550000000316,
            "durationTicks": 96,
            "midi": 66,
            "name": "F#4",
            "ticks": 44066,
            "time": 49.89349898958333,
            "velocity": 0.3937007874015748
          },
          {
            "duration": 0.43478199999999845,
            "durationTicks": 384,
            "midi": 63,
            "name": "D#4",
            "ticks": 44162,
            "time": 50.00219448958333,
            "velocity": 0.3937007874015748
          },
          {
            "duration": 0.10869550000000316,
            "durationTicks": 96,
            "midi": 56,
            "name": "G#3",
            "ticks": 44162,
            "time": 50.00219448958333,
            "velocity": 0.3937007874015748
          },
          {
            "duration": 0.43478199999999845,
            "durationTicks": 384,
            "midi": 56,
            "name": "G#3",
            "ticks": 44162,
            "time": 50.00219448958333,
            "velocity": 0.3937007874015748
          },
          {
            "duration": 0.10869550000000316,
            "durationTicks": 96,
            "midi": 68,
            "name": "G#4",
            "ticks": 44162,
            "time": 50.00219448958333,
            "velocity": 0.3937007874015748
          },
          {
            "duration": 0.10869550000000316,
            "durationTicks": 96,
            "midi": 44,
            "name": "G#2",
            "ticks": 44162,
            "time": 50.00219448958333,
            "velocity": 0.3937007874015748
          },
          {
            "duration": 0.21739099999999922,
            "durationTicks": 192,
            "midi": 34,
            "name": "A#1",
            "ticks": 44162,
            "time": 50.00219448958333,
            "velocity": 0.3937007874015748
          },
          {
            "duration": 0.43478199999999845,
            "durationTicks": 384,
            "midi": 59,
            "name": "B3",
            "ticks": 44162,
            "time": 50.00219448958333,
            "velocity": 0.3937007874015748
          },
          {
            "duration": 0.10869550000000316,
            "durationTicks": 96,
            "midi": 42,
            "name": "F#2",
            "ticks": 44354,
            "time": 50.21958548958333,
            "velocity": 0.3937007874015748
          },
          {
            "duration": 0.21739099999999922,
            "durationTicks": 192,
            "midi": 34,
            "name": "A#1",
            "ticks": 44354,
            "time": 50.21958548958333,
            "velocity": 0.3937007874015748
          },
          {
            "duration": 0.10869550000000316,
            "durationTicks": 96,
            "midi": 54,
            "name": "F#3",
            "ticks": 44354,
            "time": 50.21958548958333,
            "velocity": 0.3937007874015748
          },
          {
            "duration": 0.10869550000000316,
            "durationTicks": 96,
            "midi": 66,
            "name": "F#4",
            "ticks": 44354,
            "time": 50.21958548958333,
            "velocity": 0.3937007874015748
          },
          {
            "duration": 0.10869549999999606,
            "durationTicks": 96,
            "midi": 44,
            "name": "G#2",
            "ticks": 44450,
            "time": 50.328280989583334,
            "velocity": 0.3937007874015748
          },
          {
            "duration": 0.10869549999999606,
            "durationTicks": 96,
            "midi": 56,
            "name": "G#3",
            "ticks": 44450,
            "time": 50.328280989583334,
            "velocity": 0.3937007874015748
          },
          {
            "duration": 0.10869549999999606,
            "durationTicks": 96,
            "midi": 68,
            "name": "G#4",
            "ticks": 44450,
            "time": 50.328280989583334,
            "velocity": 0.3937007874015748
          },
          {
            "duration": 0.21739099999999922,
            "durationTicks": 192,
            "midi": 34,
            "name": "A#1",
            "ticks": 44546,
            "time": 50.43697648958333,
            "velocity": 0.3937007874015748
          },
          {
            "duration": 0.43478199999999845,
            "durationTicks": 384,
            "midi": 58,
            "name": "A#3",
            "ticks": 44546,
            "time": 50.43697648958333,
            "velocity": 0.3937007874015748
          },
          {
            "duration": 0.3260865000000024,
            "durationTicks": 288,
            "midi": 63,
            "name": "D#4",
            "ticks": 44546,
            "time": 50.43697648958333,
            "velocity": 0.3937007874015748
          },
          {
            "duration": 0.10869550000000316,
            "durationTicks": 96,
            "midi": 51,
            "name": "D#3",
            "ticks": 44546,
            "time": 50.43697648958333,
            "velocity": 0.3937007874015748
          },
          {
            "duration": 0.10869550000000316,
            "durationTicks": 96,
            "midi": 39,
            "name": "D#2",
            "ticks": 44546,
            "time": 50.43697648958333,
            "velocity": 0.3937007874015748
          },
          {
            "duration": 0.10869550000000316,
            "durationTicks": 96,
            "midi": 27,
            "name": "D#1",
            "ticks": 44546,
            "time": 50.43697648958333,
            "velocity": 0.3937007874015748
          },
          {
            "duration": 0.43478199999999845,
            "durationTicks": 384,
            "midi": 54,
            "name": "F#3",
            "ticks": 44546,
            "time": 50.43697648958333,
            "velocity": 0.3937007874015748
          },
          {
            "duration": 0.10869550000000316,
            "durationTicks": 96,
            "midi": 39,
            "name": "D#2",
            "ticks": 44738,
            "time": 50.65436748958333,
            "velocity": 0.3937007874015748
          },
          {
            "duration": 0.10869550000000316,
            "durationTicks": 96,
            "midi": 51,
            "name": "D#3",
            "ticks": 44738,
            "time": 50.65436748958333,
            "velocity": 0.3937007874015748
          },
          {
            "duration": 0.21739099999999922,
            "durationTicks": 192,
            "midi": 63,
            "name": "D#4",
            "ticks": 44738,
            "time": 50.65436748958333,
            "velocity": 0.3937007874015748
          },
          {
            "duration": 0.10869549999999606,
            "durationTicks": 96,
            "midi": 51,
            "name": "D#3",
            "ticks": 44834,
            "time": 50.76306298958333,
            "velocity": 0.3937007874015748
          },
          {
            "duration": 0.10869549999999606,
            "durationTicks": 96,
            "midi": 63,
            "name": "D#4",
            "ticks": 44834,
            "time": 50.76306298958333,
            "velocity": 0.3937007874015748
          },
          {
            "duration": 0.10869549999999606,
            "durationTicks": 96,
            "midi": 39,
            "name": "D#2",
            "ticks": 44834,
            "time": 50.76306298958333,
            "velocity": 0.3937007874015748
          },
          {
            "duration": 0.10869550000000316,
            "durationTicks": 96,
            "midi": 51,
            "name": "D#3",
            "ticks": 44930,
            "time": 50.87175848958333,
            "velocity": 0.3937007874015748
          },
          {
            "duration": 0.43478200000000555,
            "durationTicks": 384,
            "midi": 54,
            "name": "F#3",
            "ticks": 44930,
            "time": 50.87175848958333,
            "velocity": 0.3937007874015748
          },
          {
            "duration": 0.10869550000000316,
            "durationTicks": 96,
            "midi": 27,
            "name": "D#1",
            "ticks": 44930,
            "time": 50.87175848958333,
            "velocity": 0.3937007874015748
          },
          {
            "duration": 0.21739100000000633,
            "durationTicks": 192,
            "midi": 34,
            "name": "A#1",
            "ticks": 44930,
            "time": 50.87175848958333,
            "velocity": 0.3937007874015748
          },
          {
            "duration": 0.10869550000000316,
            "durationTicks": 96,
            "midi": 39,
            "name": "D#2",
            "ticks": 44930,
            "time": 50.87175848958333,
            "velocity": 0.3937007874015748
          },
          {
            "duration": 0.43478200000000555,
            "durationTicks": 384,
            "midi": 58,
            "name": "A#3",
            "ticks": 44930,
            "time": 50.87175848958333,
            "velocity": 0.3937007874015748
          },
          {
            "duration": 0.21739100000000633,
            "durationTicks": 192,
            "midi": 63,
            "name": "D#4",
            "ticks": 44930,
            "time": 50.87175848958333,
            "velocity": 0.3937007874015748
          },
          {
            "duration": 0.3260865000000024,
            "durationTicks": 288,
            "midi": 63,
            "name": "D#4",
            "ticks": 45026,
            "time": 50.98045398958333,
            "velocity": 0.3937007874015748
          },
          {
            "duration": 0.10869550000000316,
            "durationTicks": 96,
            "midi": 39,
            "name": "D#2",
            "ticks": 45026,
            "time": 50.98045398958333,
            "velocity": 0.3937007874015748
          },
          {
            "duration": 0.10869550000000316,
            "durationTicks": 96,
            "midi": 51,
            "name": "D#3",
            "ticks": 45026,
            "time": 50.98045398958333,
            "velocity": 0.3937007874015748
          },
          {
            "duration": 0.10869549999999606,
            "durationTicks": 96,
            "midi": 49,
            "name": "C#3",
            "ticks": 45122,
            "time": 51.089149489583335,
            "velocity": 0.3937007874015748
          },
          {
            "duration": 0.10869549999999606,
            "durationTicks": 96,
            "midi": 61,
            "name": "C#4",
            "ticks": 45122,
            "time": 51.089149489583335,
            "velocity": 0.3937007874015748
          },
          {
            "duration": 0.10869549999999606,
            "durationTicks": 96,
            "midi": 37,
            "name": "C#2",
            "ticks": 45122,
            "time": 51.089149489583335,
            "velocity": 0.3937007874015748
          },
          {
            "duration": 0.10869550000000316,
            "durationTicks": 96,
            "midi": 63,
            "name": "D#4",
            "ticks": 45218,
            "time": 51.19784498958333,
            "velocity": 0.3937007874015748
          },
          {
            "duration": 0.10869550000000316,
            "durationTicks": 96,
            "midi": 39,
            "name": "D#2",
            "ticks": 45218,
            "time": 51.19784498958333,
            "velocity": 0.3937007874015748
          },
          {
            "duration": 0.10869550000000316,
            "durationTicks": 96,
            "midi": 51,
            "name": "D#3",
            "ticks": 45218,
            "time": 51.19784498958333,
            "velocity": 0.3937007874015748
          },
          {
            "duration": 0.10869549999999606,
            "durationTicks": 96,
            "midi": 51,
            "name": "D#3",
            "ticks": 45314,
            "time": 51.306540489583334,
            "velocity": 0.3937007874015748
          },
          {
            "duration": 0.43478199999999845,
            "durationTicks": 384,
            "midi": 58,
            "name": "A#3",
            "ticks": 45314,
            "time": 51.306540489583334,
            "velocity": 0.3937007874015748
          },
          {
            "duration": 0.10869549999999606,
            "durationTicks": 96,
            "midi": 39,
            "name": "D#2",
            "ticks": 45314,
            "time": 51.306540489583334,
            "velocity": 0.3937007874015748
          },
          {
            "duration": 0.10869549999999606,
            "durationTicks": 96,
            "midi": 27,
            "name": "D#1",
            "ticks": 45314,
            "time": 51.306540489583334,
            "velocity": 0.3937007874015748
          },
          {
            "duration": 0.3260864999999953,
            "durationTicks": 288,
            "midi": 63,
            "name": "D#4",
            "ticks": 45314,
            "time": 51.306540489583334,
            "velocity": 0.3937007874015748
          },
          {
            "duration": 0.21739099999999922,
            "durationTicks": 192,
            "midi": 34,
            "name": "A#1",
            "ticks": 45314,
            "time": 51.306540489583334,
            "velocity": 0.3937007874015748
          },
          {
            "duration": 0.43478199999999845,
            "durationTicks": 384,
            "midi": 54,
            "name": "F#3",
            "ticks": 45314,
            "time": 51.306540489583334,
            "velocity": 0.3937007874015748
          },
          {
            "duration": 0.21739099999999922,
            "durationTicks": 192,
            "midi": 63,
            "name": "D#4",
            "ticks": 45506,
            "time": 51.52393148958333,
            "velocity": 0.3937007874015748
          },
          {
            "duration": 0.10869549999999606,
            "durationTicks": 96,
            "midi": 51,
            "name": "D#3",
            "ticks": 45506,
            "time": 51.52393148958333,
            "velocity": 0.3937007874015748
          },
          {
            "duration": 0.10869549999999606,
            "durationTicks": 96,
            "midi": 39,
            "name": "D#2",
            "ticks": 45506,
            "time": 51.52393148958333,
            "velocity": 0.3937007874015748
          },
          {
            "duration": 0.10869550000000316,
            "durationTicks": 96,
            "midi": 39,
            "name": "D#2",
            "ticks": 45602,
            "time": 51.63262698958333,
            "velocity": 0.3937007874015748
          },
          {
            "duration": 0.10869550000000316,
            "durationTicks": 96,
            "midi": 51,
            "name": "D#3",
            "ticks": 45602,
            "time": 51.63262698958333,
            "velocity": 0.3937007874015748
          },
          {
            "duration": 0.10869550000000316,
            "durationTicks": 96,
            "midi": 63,
            "name": "D#4",
            "ticks": 45602,
            "time": 51.63262698958333,
            "velocity": 0.3937007874015748
          },
          {
            "duration": 0.10869549999999606,
            "durationTicks": 96,
            "midi": 27,
            "name": "D#1",
            "ticks": 45698,
            "time": 51.74132248958333,
            "velocity": 0.3937007874015748
          },
          {
            "duration": 0.10869549999999606,
            "durationTicks": 96,
            "midi": 39,
            "name": "D#2",
            "ticks": 45698,
            "time": 51.74132248958333,
            "velocity": 0.3937007874015748
          },
          {
            "duration": 0.43478199999999845,
            "durationTicks": 384,
            "midi": 58,
            "name": "A#3",
            "ticks": 45698,
            "time": 51.74132248958333,
            "velocity": 0.3937007874015748
          },
          {
            "duration": 0.21739099999999922,
            "durationTicks": 192,
            "midi": 34,
            "name": "A#1",
            "ticks": 45698,
            "time": 51.74132248958333,
            "velocity": 0.3937007874015748
          },
          {
            "duration": 0.21739099999999922,
            "durationTicks": 192,
            "midi": 63,
            "name": "D#4",
            "ticks": 45698,
            "time": 51.74132248958333,
            "velocity": 0.3937007874015748
          },
          {
            "duration": 0.10869549999999606,
            "durationTicks": 96,
            "midi": 51,
            "name": "D#3",
            "ticks": 45698,
            "time": 51.74132248958333,
            "velocity": 0.3937007874015748
          },
          {
            "duration": 0.43478199999999845,
            "durationTicks": 384,
            "midi": 54,
            "name": "F#3",
            "ticks": 45698,
            "time": 51.74132248958333,
            "velocity": 0.3937007874015748
          },
          {
            "duration": 0.10869550000000316,
            "durationTicks": 96,
            "midi": 39,
            "name": "D#2",
            "ticks": 45794,
            "time": 51.85001798958333,
            "velocity": 0.3937007874015748
          },
          {
            "duration": 0.10869550000000316,
            "durationTicks": 96,
            "midi": 51,
            "name": "D#3",
            "ticks": 45794,
            "time": 51.85001798958333,
            "velocity": 0.3937007874015748
          },
          {
            "duration": 0.3260865000000024,
            "durationTicks": 288,
            "midi": 63,
            "name": "D#4",
            "ticks": 45794,
            "time": 51.85001798958333,
            "velocity": 0.3937007874015748
          },
          {
            "duration": 0.10869550000000316,
            "durationTicks": 96,
            "midi": 49,
            "name": "C#3",
            "ticks": 45890,
            "time": 51.95871348958333,
            "velocity": 0.3937007874015748
          },
          {
            "duration": 0.10869550000000316,
            "durationTicks": 96,
            "midi": 37,
            "name": "C#2",
            "ticks": 45890,
            "time": 51.95871348958333,
            "velocity": 0.3937007874015748
          },
          {
            "duration": 0.10869550000000316,
            "durationTicks": 96,
            "midi": 61,
            "name": "C#4",
            "ticks": 45890,
            "time": 51.95871348958333,
            "velocity": 0.3937007874015748
          },
          {
            "duration": 0.10869549999999606,
            "durationTicks": 96,
            "midi": 51,
            "name": "D#3",
            "ticks": 45986,
            "time": 52.067408989583335,
            "velocity": 0.3937007874015748
          },
          {
            "duration": 0.10869549999999606,
            "durationTicks": 96,
            "midi": 63,
            "name": "D#4",
            "ticks": 45986,
            "time": 52.067408989583335,
            "velocity": 0.3937007874015748
          },
          {
            "duration": 0.10869549999999606,
            "durationTicks": 96,
            "midi": 39,
            "name": "D#2",
            "ticks": 45986,
            "time": 52.067408989583335,
            "velocity": 0.3937007874015748
          },
          {
            "duration": 0.21739099999999922,
            "durationTicks": 192,
            "midi": 34,
            "name": "A#1",
            "ticks": 46082,
            "time": 52.17610448958333,
            "velocity": 0.3937007874015748
          },
          {
            "duration": 0.43478199999999845,
            "durationTicks": 384,
            "midi": 58,
            "name": "A#3",
            "ticks": 46082,
            "time": 52.17610448958333,
            "velocity": 0.3937007874015748
          },
          {
            "duration": 0.43478199999999845,
            "durationTicks": 384,
            "midi": 54,
            "name": "F#3",
            "ticks": 46082,
            "time": 52.17610448958333,
            "velocity": 0.3937007874015748
          },
          {
            "duration": 0.10869550000000316,
            "durationTicks": 96,
            "midi": 51,
            "name": "D#3",
            "ticks": 46082,
            "time": 52.17610448958333,
            "velocity": 0.3937007874015748
          },
          {
            "duration": 0.3260865000000024,
            "durationTicks": 288,
            "midi": 63,
            "name": "D#4",
            "ticks": 46082,
            "time": 52.17610448958333,
            "velocity": 0.3937007874015748
          },
          {
            "duration": 0.10869550000000316,
            "durationTicks": 96,
            "midi": 39,
            "name": "D#2",
            "ticks": 46082,
            "time": 52.17610448958333,
            "velocity": 0.3937007874015748
          },
          {
            "duration": 0.10869550000000316,
            "durationTicks": 96,
            "midi": 27,
            "name": "D#1",
            "ticks": 46082,
            "time": 52.17610448958333,
            "velocity": 0.3937007874015748
          },
          {
            "duration": 0.21739099999999922,
            "durationTicks": 192,
            "midi": 63,
            "name": "D#4",
            "ticks": 46274,
            "time": 52.39349548958333,
            "velocity": 0.3937007874015748
          },
          {
            "duration": 0.10869550000000316,
            "durationTicks": 96,
            "midi": 39,
            "name": "D#2",
            "ticks": 46274,
            "time": 52.39349548958333,
            "velocity": 0.3937007874015748
          },
          {
            "duration": 0.10869550000000316,
            "durationTicks": 96,
            "midi": 51,
            "name": "D#3",
            "ticks": 46274,
            "time": 52.39349548958333,
            "velocity": 0.3937007874015748
          },
          {
            "duration": 0.10869549999999606,
            "durationTicks": 96,
            "midi": 63,
            "name": "D#4",
            "ticks": 46370,
            "time": 52.50219098958333,
            "velocity": 0.3937007874015748
          },
          {
            "duration": 0.10869549999999606,
            "durationTicks": 96,
            "midi": 39,
            "name": "D#2",
            "ticks": 46370,
            "time": 52.50219098958333,
            "velocity": 0.3937007874015748
          },
          {
            "duration": 0.10869549999999606,
            "durationTicks": 96,
            "midi": 51,
            "name": "D#3",
            "ticks": 46370,
            "time": 52.50219098958333,
            "velocity": 0.3937007874015748
          },
          {
            "duration": 0.10869550000000316,
            "durationTicks": 96,
            "midi": 51,
            "name": "D#3",
            "ticks": 46466,
            "time": 52.61088648958333,
            "velocity": 0.3937007874015748
          },
          {
            "duration": 0.21739099999999922,
            "durationTicks": 192,
            "midi": 34,
            "name": "A#1",
            "ticks": 46466,
            "time": 52.61088648958333,
            "velocity": 0.3937007874015748
          },
          {
            "duration": 0.43478200000000555,
            "durationTicks": 384,
            "midi": 58,
            "name": "A#3",
            "ticks": 46466,
            "time": 52.61088648958333,
            "velocity": 0.3937007874015748
          },
          {
            "duration": 0.43478200000000555,
            "durationTicks": 384,
            "midi": 54,
            "name": "F#3",
            "ticks": 46466,
            "time": 52.61088648958333,
            "velocity": 0.3937007874015748
          },
          {
            "duration": 0.10869550000000316,
            "durationTicks": 96,
            "midi": 27,
            "name": "D#1",
            "ticks": 46466,
            "time": 52.61088648958333,
            "velocity": 0.3937007874015748
          },
          {
            "duration": 0.10869550000000316,
            "durationTicks": 96,
            "midi": 39,
            "name": "D#2",
            "ticks": 46466,
            "time": 52.61088648958333,
            "velocity": 0.3937007874015748
          },
          {
            "duration": 0.21739099999999922,
            "durationTicks": 192,
            "midi": 63,
            "name": "D#4",
            "ticks": 46466,
            "time": 52.61088648958333,
            "velocity": 0.3937007874015748
          },
          {
            "duration": 0.10869549999999606,
            "durationTicks": 96,
            "midi": 51,
            "name": "D#3",
            "ticks": 46562,
            "time": 52.71958198958333,
            "velocity": 0.3937007874015748
          },
          {
            "duration": 0.10869549999999606,
            "durationTicks": 96,
            "midi": 39,
            "name": "D#2",
            "ticks": 46562,
            "time": 52.71958198958333,
            "velocity": 0.3937007874015748
          },
          {
            "duration": 0.3260865000000024,
            "durationTicks": 288,
            "midi": 63,
            "name": "D#4",
            "ticks": 46562,
            "time": 52.71958198958333,
            "velocity": 0.3937007874015748
          },
          {
            "duration": 0.10869550000000316,
            "durationTicks": 96,
            "midi": 37,
            "name": "C#2",
            "ticks": 46658,
            "time": 52.82827748958333,
            "velocity": 0.3937007874015748
          },
          {
            "duration": 0.10869550000000316,
            "durationTicks": 96,
            "midi": 61,
            "name": "C#4",
            "ticks": 46658,
            "time": 52.82827748958333,
            "velocity": 0.3937007874015748
          },
          {
            "duration": 0.10869550000000316,
            "durationTicks": 96,
            "midi": 49,
            "name": "C#3",
            "ticks": 46658,
            "time": 52.82827748958333,
            "velocity": 0.3937007874015748
          },
          {
            "duration": 0.10869550000000316,
            "durationTicks": 96,
            "midi": 39,
            "name": "D#2",
            "ticks": 46754,
            "time": 52.93697298958333,
            "velocity": 0.3937007874015748
          },
          {
            "duration": 0.10869550000000316,
            "durationTicks": 96,
            "midi": 51,
            "name": "D#3",
            "ticks": 46754,
            "time": 52.93697298958333,
            "velocity": 0.3937007874015748
          },
          {
            "duration": 0.10869550000000316,
            "durationTicks": 96,
            "midi": 63,
            "name": "D#4",
            "ticks": 46754,
            "time": 52.93697298958333,
            "velocity": 0.3937007874015748
          },
          {
            "duration": 0.21739099999999922,
            "durationTicks": 192,
            "midi": 34,
            "name": "A#1",
            "ticks": 46850,
            "time": 53.045668489583335,
            "velocity": 0.3937007874015748
          },
          {
            "duration": 0.10869549999999606,
            "durationTicks": 96,
            "midi": 56,
            "name": "G#3",
            "ticks": 46850,
            "time": 53.045668489583335,
            "velocity": 0.3937007874015748
          },
          {
            "duration": 0.43478199999999845,
            "durationTicks": 384,
            "midi": 56,
            "name": "G#3",
            "ticks": 46850,
            "time": 53.045668489583335,
            "velocity": 0.3937007874015748
          },
          {
            "duration": 0.43478199999999845,
            "durationTicks": 384,
            "midi": 59,
            "name": "B3",
            "ticks": 46850,
            "time": 53.045668489583335,
            "velocity": 0.3937007874015748
          },
          {
            "duration": 0.43478199999999845,
            "durationTicks": 384,
            "midi": 63,
            "name": "D#4",
            "ticks": 46850,
            "time": 53.045668489583335,
            "velocity": 0.3937007874015748
          },
          {
            "duration": 0.10869549999999606,
            "durationTicks": 96,
            "midi": 44,
            "name": "G#2",
            "ticks": 46850,
            "time": 53.045668489583335,
            "velocity": 0.3937007874015748
          },
          {
            "duration": 0.10869549999999606,
            "durationTicks": 96,
            "midi": 68,
            "name": "G#4",
            "ticks": 46850,
            "time": 53.045668489583335,
            "velocity": 0.3937007874015748
          },
          {
            "duration": 0.10869549999999606,
            "durationTicks": 96,
            "midi": 42,
            "name": "F#2",
            "ticks": 47042,
            "time": 53.263059489583334,
            "velocity": 0.3937007874015748
          },
          {
            "duration": 0.10869549999999606,
            "durationTicks": 96,
            "midi": 54,
            "name": "F#3",
            "ticks": 47042,
            "time": 53.263059489583334,
            "velocity": 0.3937007874015748
          },
          {
            "duration": 0.10869549999999606,
            "durationTicks": 96,
            "midi": 66,
            "name": "F#4",
            "ticks": 47042,
            "time": 53.263059489583334,
            "velocity": 0.3937007874015748
          },
          {
            "duration": 0.10869550000000316,
            "durationTicks": 96,
            "midi": 56,
            "name": "G#3",
            "ticks": 47138,
            "time": 53.37175498958333,
            "velocity": 0.3937007874015748
          },
          {
            "duration": 0.10869550000000316,
            "durationTicks": 96,
            "midi": 44,
            "name": "G#2",
            "ticks": 47138,
            "time": 53.37175498958333,
            "velocity": 0.3937007874015748
          },
          {
            "duration": 0.10869550000000316,
            "durationTicks": 96,
            "midi": 68,
            "name": "G#4",
            "ticks": 47138,
            "time": 53.37175498958333,
            "velocity": 0.3937007874015748
          },
          {
            "duration": 0.10869549999999606,
            "durationTicks": 96,
            "midi": 66,
            "name": "F#4",
            "ticks": 47234,
            "time": 53.48045048958333,
            "velocity": 0.3937007874015748
          },
          {
            "duration": 0.10869549999999606,
            "durationTicks": 96,
            "midi": 54,
            "name": "F#3",
            "ticks": 47234,
            "time": 53.48045048958333,
            "velocity": 0.3937007874015748
          },
          {
            "duration": 0.43478199999999845,
            "durationTicks": 384,
            "midi": 58,
            "name": "A#3",
            "ticks": 47234,
            "time": 53.48045048958333,
            "velocity": 0.3937007874015748
          },
          {
            "duration": 0.43478199999999845,
            "durationTicks": 384,
            "midi": 54,
            "name": "F#3",
            "ticks": 47234,
            "time": 53.48045048958333,
            "velocity": 0.3937007874015748
          },
          {
            "duration": 0.10869549999999606,
            "durationTicks": 96,
            "midi": 42,
            "name": "F#2",
            "ticks": 47234,
            "time": 53.48045048958333,
            "velocity": 0.3937007874015748
          },
          {
            "duration": 0.21739099999999922,
            "durationTicks": 192,
            "midi": 34,
            "name": "A#1",
            "ticks": 47234,
            "time": 53.48045048958333,
            "velocity": 0.3937007874015748
          },
          {
            "duration": 0.43478199999999845,
            "durationTicks": 384,
            "midi": 61,
            "name": "C#4",
            "ticks": 47234,
            "time": 53.48045048958333,
            "velocity": 0.3937007874015748
          },
          {
            "duration": 0.10869549999999606,
            "durationTicks": 96,
            "midi": 39,
            "name": "D#2",
            "ticks": 47426,
            "time": 53.69784148958333,
            "velocity": 0.3937007874015748
          },
          {
            "duration": 0.10869549999999606,
            "durationTicks": 96,
            "midi": 51,
            "name": "D#3",
            "ticks": 47426,
            "time": 53.69784148958333,
            "velocity": 0.3937007874015748
          },
          {
            "duration": 0.21739099999999922,
            "durationTicks": 192,
            "midi": 34,
            "name": "A#1",
            "ticks": 47426,
            "time": 53.69784148958333,
            "velocity": 0.3937007874015748
          },
          {
            "duration": 0.10869549999999606,
            "durationTicks": 96,
            "midi": 63,
            "name": "D#4",
            "ticks": 47426,
            "time": 53.69784148958333,
            "velocity": 0.3937007874015748
          },
          {
            "duration": 0.10869550000000316,
            "durationTicks": 96,
            "midi": 66,
            "name": "F#4",
            "ticks": 47522,
            "time": 53.80653698958333,
            "velocity": 0.3937007874015748
          },
          {
            "duration": 0.10869550000000316,
            "durationTicks": 96,
            "midi": 54,
            "name": "F#3",
            "ticks": 47522,
            "time": 53.80653698958333,
            "velocity": 0.3937007874015748
          },
          {
            "duration": 0.10869550000000316,
            "durationTicks": 96,
            "midi": 42,
            "name": "F#2",
            "ticks": 47522,
            "time": 53.80653698958333,
            "velocity": 0.3937007874015748
          },
          {
            "duration": 0.21739099999999922,
            "durationTicks": 192,
            "midi": 34,
            "name": "A#1",
            "ticks": 47618,
            "time": 53.91523248958333,
            "velocity": 0.3937007874015748
          },
          {
            "duration": 0.10869550000000316,
            "durationTicks": 96,
            "midi": 27,
            "name": "D#1",
            "ticks": 47618,
            "time": 53.91523248958333,
            "velocity": 0.3937007874015748
          },
          {
            "duration": 0.43478199999999845,
            "durationTicks": 384,
            "midi": 58,
            "name": "A#3",
            "ticks": 47618,
            "time": 53.91523248958333,
            "velocity": 0.3937007874015748
          },
          {
            "duration": 0.10869550000000316,
            "durationTicks": 96,
            "midi": 39,
            "name": "D#2",
            "ticks": 47618,
            "time": 53.91523248958333,
            "velocity": 0.3937007874015748
          },
          {
            "duration": 0.10869550000000316,
            "durationTicks": 96,
            "midi": 51,
            "name": "D#3",
            "ticks": 47618,
            "time": 53.91523248958333,
            "velocity": 0.3937007874015748
          },
          {
            "duration": 0.3260865000000024,
            "durationTicks": 288,
            "midi": 63,
            "name": "D#4",
            "ticks": 47618,
            "time": 53.91523248958333,
            "velocity": 0.3937007874015748
          },
          {
            "duration": 0.43478199999999845,
            "durationTicks": 384,
            "midi": 54,
            "name": "F#3",
            "ticks": 47618,
            "time": 53.91523248958333,
            "velocity": 0.3937007874015748
          },
          {
            "duration": 0.10869550000000316,
            "durationTicks": 96,
            "midi": 51,
            "name": "D#3",
            "ticks": 47810,
            "time": 54.13262348958333,
            "velocity": 0.3937007874015748
          },
          {
            "duration": 0.21739099999999922,
            "durationTicks": 192,
            "midi": 63,
            "name": "D#4",
            "ticks": 47810,
            "time": 54.13262348958333,
            "velocity": 0.3937007874015748
          },
          {
            "duration": 0.10869550000000316,
            "durationTicks": 96,
            "midi": 39,
            "name": "D#2",
            "ticks": 47810,
            "time": 54.13262348958333,
            "velocity": 0.3937007874015748
          },
          {
            "duration": 0.10869549999999606,
            "durationTicks": 96,
            "midi": 51,
            "name": "D#3",
            "ticks": 47906,
            "time": 54.241318989583334,
            "velocity": 0.3937007874015748
          },
          {
            "duration": 0.10869549999999606,
            "durationTicks": 96,
            "midi": 39,
            "name": "D#2",
            "ticks": 47906,
            "time": 54.241318989583334,
            "velocity": 0.3937007874015748
          },
          {
            "duration": 0.10869549999999606,
            "durationTicks": 96,
            "midi": 63,
            "name": "D#4",
            "ticks": 47906,
            "time": 54.241318989583334,
            "velocity": 0.3937007874015748
          },
          {
            "duration": 0.10869550000000316,
            "durationTicks": 96,
            "midi": 27,
            "name": "D#1",
            "ticks": 48002,
            "time": 54.35001448958333,
            "velocity": 0.3937007874015748
          },
          {
            "duration": 0.21739099999999922,
            "durationTicks": 192,
            "midi": 63,
            "name": "D#4",
            "ticks": 48002,
            "time": 54.35001448958333,
            "velocity": 0.3937007874015748
          },
          {
            "duration": 0.21739099999999922,
            "durationTicks": 192,
            "midi": 34,
            "name": "A#1",
            "ticks": 48002,
            "time": 54.35001448958333,
            "velocity": 0.3937007874015748
          },
          {
            "duration": 0.10869550000000316,
            "durationTicks": 96,
            "midi": 51,
            "name": "D#3",
            "ticks": 48002,
            "time": 54.35001448958333,
            "velocity": 0.3937007874015748
          },
          {
            "duration": 0.10869550000000316,
            "durationTicks": 96,
            "midi": 39,
            "name": "D#2",
            "ticks": 48002,
            "time": 54.35001448958333,
            "velocity": 0.3937007874015748
          },
          {
            "duration": 0.43478199999999845,
            "durationTicks": 384,
            "midi": 58,
            "name": "A#3",
            "ticks": 48002,
            "time": 54.35001448958333,
            "velocity": 0.3937007874015748
          },
          {
            "duration": 0.43478199999999845,
            "durationTicks": 384,
            "midi": 54,
            "name": "F#3",
            "ticks": 48002,
            "time": 54.35001448958333,
            "velocity": 0.3937007874015748
          },
          {
            "duration": 0.3260864999999953,
            "durationTicks": 288,
            "midi": 63,
            "name": "D#4",
            "ticks": 48098,
            "time": 54.45870998958333,
            "velocity": 0.3937007874015748
          },
          {
            "duration": 0.10869549999999606,
            "durationTicks": 96,
            "midi": 51,
            "name": "D#3",
            "ticks": 48098,
            "time": 54.45870998958333,
            "velocity": 0.3937007874015748
          },
          {
            "duration": 0.10869549999999606,
            "durationTicks": 96,
            "midi": 39,
            "name": "D#2",
            "ticks": 48098,
            "time": 54.45870998958333,
            "velocity": 0.3937007874015748
          },
          {
            "duration": 0.10869550000000316,
            "durationTicks": 96,
            "midi": 37,
            "name": "C#2",
            "ticks": 48194,
            "time": 54.56740548958333,
            "velocity": 0.3937007874015748
          },
          {
            "duration": 0.10869550000000316,
            "durationTicks": 96,
            "midi": 49,
            "name": "C#3",
            "ticks": 48194,
            "time": 54.56740548958333,
            "velocity": 0.3937007874015748
          },
          {
            "duration": 0.10869550000000316,
            "durationTicks": 96,
            "midi": 61,
            "name": "C#4",
            "ticks": 48194,
            "time": 54.56740548958333,
            "velocity": 0.3937007874015748
          },
          {
            "duration": 0.10869549999999606,
            "durationTicks": 96,
            "midi": 51,
            "name": "D#3",
            "ticks": 48290,
            "time": 54.67610098958333,
            "velocity": 0.3937007874015748
          },
          {
            "duration": 0.10869549999999606,
            "durationTicks": 96,
            "midi": 63,
            "name": "D#4",
            "ticks": 48290,
            "time": 54.67610098958333,
            "velocity": 0.3937007874015748
          },
          {
            "duration": 0.10869549999999606,
            "durationTicks": 96,
            "midi": 39,
            "name": "D#2",
            "ticks": 48290,
            "time": 54.67610098958333,
            "velocity": 0.3937007874015748
          },
          {
            "duration": 0.10869550000000316,
            "durationTicks": 96,
            "midi": 39,
            "name": "D#2",
            "ticks": 48386,
            "time": 54.78479648958333,
            "velocity": 0.3937007874015748
          },
          {
            "duration": 0.10869550000000316,
            "durationTicks": 96,
            "midi": 51,
            "name": "D#3",
            "ticks": 48386,
            "time": 54.78479648958333,
            "velocity": 0.3937007874015748
          },
          {
            "duration": 0.3260865000000024,
            "durationTicks": 288,
            "midi": 63,
            "name": "D#4",
            "ticks": 48386,
            "time": 54.78479648958333,
            "velocity": 0.3937007874015748
          },
          {
            "duration": 0.10869550000000316,
            "durationTicks": 96,
            "midi": 27,
            "name": "D#1",
            "ticks": 48386,
            "time": 54.78479648958333,
            "velocity": 0.3937007874015748
          },
          {
            "duration": 0.43478200000000555,
            "durationTicks": 384,
            "midi": 54,
            "name": "F#3",
            "ticks": 48386,
            "time": 54.78479648958333,
            "velocity": 0.3937007874015748
          },
          {
            "duration": 0.21739100000000633,
            "durationTicks": 192,
            "midi": 34,
            "name": "A#1",
            "ticks": 48386,
            "time": 54.78479648958333,
            "velocity": 0.3937007874015748
          },
          {
            "duration": 0.43478200000000555,
            "durationTicks": 384,
            "midi": 58,
            "name": "A#3",
            "ticks": 48386,
            "time": 54.78479648958333,
            "velocity": 0.3937007874015748
          },
          {
            "duration": 0.10869549999999606,
            "durationTicks": 96,
            "midi": 39,
            "name": "D#2",
            "ticks": 48578,
            "time": 55.002187489583335,
            "velocity": 0.3937007874015748
          },
          {
            "duration": 0.10869549999999606,
            "durationTicks": 96,
            "midi": 51,
            "name": "D#3",
            "ticks": 48578,
            "time": 55.002187489583335,
            "velocity": 0.3937007874015748
          },
          {
            "duration": 0.21739099999999922,
            "durationTicks": 192,
            "midi": 63,
            "name": "D#4",
            "ticks": 48578,
            "time": 55.002187489583335,
            "velocity": 0.3937007874015748
          },
          {
            "duration": 0.10869550000000316,
            "durationTicks": 96,
            "midi": 51,
            "name": "D#3",
            "ticks": 48674,
            "time": 55.11088298958333,
            "velocity": 0.3937007874015748
          },
          {
            "duration": 0.10869550000000316,
            "durationTicks": 96,
            "midi": 39,
            "name": "D#2",
            "ticks": 48674,
            "time": 55.11088298958333,
            "velocity": 0.3937007874015748
          },
          {
            "duration": 0.10869550000000316,
            "durationTicks": 96,
            "midi": 63,
            "name": "D#4",
            "ticks": 48674,
            "time": 55.11088298958333,
            "velocity": 0.3937007874015748
          },
          {
            "duration": 0.21739099999999922,
            "durationTicks": 192,
            "midi": 63,
            "name": "D#4",
            "ticks": 48770,
            "time": 55.219578489583334,
            "velocity": 0.3937007874015748
          },
          {
            "duration": 0.10869549999999606,
            "durationTicks": 96,
            "midi": 51,
            "name": "D#3",
            "ticks": 48770,
            "time": 55.219578489583334,
            "velocity": 0.3937007874015748
          },
          {
            "duration": 0.21739099999999922,
            "durationTicks": 192,
            "midi": 34,
            "name": "A#1",
            "ticks": 48770,
            "time": 55.219578489583334,
            "velocity": 0.3937007874015748
          },
          {
            "duration": 0.10869549999999606,
            "durationTicks": 96,
            "midi": 27,
            "name": "D#1",
            "ticks": 48770,
            "time": 55.219578489583334,
            "velocity": 0.3937007874015748
          },
          {
            "duration": 0.43478200000000555,
            "durationTicks": 384,
            "midi": 54,
            "name": "F#3",
            "ticks": 48770,
            "time": 55.219578489583334,
            "velocity": 0.3937007874015748
          },
          {
            "duration": 0.43478200000000555,
            "durationTicks": 384,
            "midi": 58,
            "name": "A#3",
            "ticks": 48770,
            "time": 55.219578489583334,
            "velocity": 0.3937007874015748
          },
          {
            "duration": 0.10869549999999606,
            "durationTicks": 96,
            "midi": 39,
            "name": "D#2",
            "ticks": 48770,
            "time": 55.219578489583334,
            "velocity": 0.3937007874015748
          },
          {
            "duration": 0.3260865000000095,
            "durationTicks": 288,
            "midi": 63,
            "name": "D#4",
            "ticks": 48866,
            "time": 55.32827398958333,
            "velocity": 0.3937007874015748
          },
          {
            "duration": 0.10869550000000316,
            "durationTicks": 96,
            "midi": 51,
            "name": "D#3",
            "ticks": 48866,
            "time": 55.32827398958333,
            "velocity": 0.3937007874015748
          },
          {
            "duration": 0.10869550000000316,
            "durationTicks": 96,
            "midi": 39,
            "name": "D#2",
            "ticks": 48866,
            "time": 55.32827398958333,
            "velocity": 0.3937007874015748
          },
          {
            "duration": 0.10869549999999606,
            "durationTicks": 96,
            "midi": 49,
            "name": "C#3",
            "ticks": 48962,
            "time": 55.43696948958333,
            "velocity": 0.3937007874015748
          },
          {
            "duration": 0.10869549999999606,
            "durationTicks": 96,
            "midi": 37,
            "name": "C#2",
            "ticks": 48962,
            "time": 55.43696948958333,
            "velocity": 0.3937007874015748
          },
          {
            "duration": 0.10869549999999606,
            "durationTicks": 96,
            "midi": 61,
            "name": "C#4",
            "ticks": 48962,
            "time": 55.43696948958333,
            "velocity": 0.3937007874015748
          },
          {
            "duration": 0.10869550000001027,
            "durationTicks": 96,
            "midi": 39,
            "name": "D#2",
            "ticks": 49058,
            "time": 55.54566498958333,
            "velocity": 0.3937007874015748
          },
          {
            "duration": 0.10869550000001027,
            "durationTicks": 96,
            "midi": 63,
            "name": "D#4",
            "ticks": 49058,
            "time": 55.54566498958333,
            "velocity": 0.3937007874015748
          },
          {
            "duration": 0.10869550000001027,
            "durationTicks": 96,
            "midi": 51,
            "name": "D#3",
            "ticks": 49058,
            "time": 55.54566498958333,
            "velocity": 0.3937007874015748
          },
          {
            "duration": 0.10869549999999606,
            "durationTicks": 96,
            "midi": 39,
            "name": "D#2",
            "ticks": 49154,
            "time": 55.65436048958334,
            "velocity": 0.3937007874015748
          },
          {
            "duration": 0.10869549999999606,
            "durationTicks": 96,
            "midi": 27,
            "name": "D#1",
            "ticks": 49154,
            "time": 55.65436048958334,
            "velocity": 0.3937007874015748
          },
          {
            "duration": 0.3260864999999953,
            "durationTicks": 288,
            "midi": 63,
            "name": "D#4",
            "ticks": 49154,
            "time": 55.65436048958334,
            "velocity": 0.3937007874015748
          },
          {
            "duration": 0.43478199999999845,
            "durationTicks": 384,
            "midi": 58,
            "name": "A#3",
            "ticks": 49154,
            "time": 55.65436048958334,
            "velocity": 0.3937007874015748
          },
          {
            "duration": 0.10869549999999606,
            "durationTicks": 96,
            "midi": 51,
            "name": "D#3",
            "ticks": 49154,
            "time": 55.65436048958334,
            "velocity": 0.3937007874015748
          },
          {
            "duration": 0.21739099999999922,
            "durationTicks": 192,
            "midi": 34,
            "name": "A#1",
            "ticks": 49154,
            "time": 55.65436048958334,
            "velocity": 0.3937007874015748
          },
          {
            "duration": 0.43478199999999845,
            "durationTicks": 384,
            "midi": 54,
            "name": "F#3",
            "ticks": 49154,
            "time": 55.65436048958334,
            "velocity": 0.3937007874015748
          },
          {
            "duration": 0.10869549999999606,
            "durationTicks": 96,
            "midi": 39,
            "name": "D#2",
            "ticks": 49346,
            "time": 55.87175148958334,
            "velocity": 0.3937007874015748
          },
          {
            "duration": 0.10869549999999606,
            "durationTicks": 96,
            "midi": 51,
            "name": "D#3",
            "ticks": 49346,
            "time": 55.87175148958334,
            "velocity": 0.3937007874015748
          },
          {
            "duration": 0.21739099999999922,
            "durationTicks": 192,
            "midi": 63,
            "name": "D#4",
            "ticks": 49346,
            "time": 55.87175148958334,
            "velocity": 0.3937007874015748
          },
          {
            "duration": 0.10869550000000316,
            "durationTicks": 96,
            "midi": 63,
            "name": "D#4",
            "ticks": 49442,
            "time": 55.980446989583335,
            "velocity": 0.3937007874015748
          },
          {
            "duration": 0.10869550000000316,
            "durationTicks": 96,
            "midi": 39,
            "name": "D#2",
            "ticks": 49442,
            "time": 55.980446989583335,
            "velocity": 0.3937007874015748
          },
          {
            "duration": 0.10869550000000316,
            "durationTicks": 96,
            "midi": 51,
            "name": "D#3",
            "ticks": 49442,
            "time": 55.980446989583335,
            "velocity": 0.3937007874015748
          },
          {
            "duration": 0.21739099999999922,
            "durationTicks": 192,
            "midi": 63,
            "name": "D#4",
            "ticks": 49538,
            "time": 56.08914248958334,
            "velocity": 0.3937007874015748
          },
          {
            "duration": 0.21739099999999922,
            "durationTicks": 192,
            "midi": 34,
            "name": "A#1",
            "ticks": 49538,
            "time": 56.08914248958334,
            "velocity": 0.3937007874015748
          },
          {
            "duration": 0.10869549999999606,
            "durationTicks": 96,
            "midi": 27,
            "name": "D#1",
            "ticks": 49538,
            "time": 56.08914248958334,
            "velocity": 0.3937007874015748
          },
          {
            "duration": 0.10869549999999606,
            "durationTicks": 96,
            "midi": 51,
            "name": "D#3",
            "ticks": 49538,
            "time": 56.08914248958334,
            "velocity": 0.3937007874015748
          },
          {
            "duration": 0.10869549999999606,
            "durationTicks": 96,
            "midi": 39,
            "name": "D#2",
            "ticks": 49538,
            "time": 56.08914248958334,
            "velocity": 0.3937007874015748
          },
          {
            "duration": 0.43478199999999845,
            "durationTicks": 384,
            "midi": 58,
            "name": "A#3",
            "ticks": 49538,
            "time": 56.08914248958334,
            "velocity": 0.3937007874015748
          },
          {
            "duration": 0.43478199999999845,
            "durationTicks": 384,
            "midi": 54,
            "name": "F#3",
            "ticks": 49538,
            "time": 56.08914248958334,
            "velocity": 0.3937007874015748
          },
          {
            "duration": 0.10869550000000316,
            "durationTicks": 96,
            "midi": 51,
            "name": "D#3",
            "ticks": 49634,
            "time": 56.197837989583334,
            "velocity": 0.3937007874015748
          },
          {
            "duration": 0.10869550000000316,
            "durationTicks": 96,
            "midi": 39,
            "name": "D#2",
            "ticks": 49634,
            "time": 56.197837989583334,
            "velocity": 0.3937007874015748
          },
          {
            "duration": 0.3260865000000024,
            "durationTicks": 288,
            "midi": 63,
            "name": "D#4",
            "ticks": 49634,
            "time": 56.197837989583334,
            "velocity": 0.3937007874015748
          },
          {
            "duration": 0.10869550000000316,
            "durationTicks": 96,
            "midi": 37,
            "name": "C#2",
            "ticks": 49730,
            "time": 56.30653348958334,
            "velocity": 0.3937007874015748
          },
          {
            "duration": 0.10869550000000316,
            "durationTicks": 96,
            "midi": 49,
            "name": "C#3",
            "ticks": 49730,
            "time": 56.30653348958334,
            "velocity": 0.3937007874015748
          },
          {
            "duration": 0.10869550000000316,
            "durationTicks": 96,
            "midi": 61,
            "name": "C#4",
            "ticks": 49730,
            "time": 56.30653348958334,
            "velocity": 0.3937007874015748
          },
          {
            "duration": 0.10869549999999606,
            "durationTicks": 96,
            "midi": 51,
            "name": "D#3",
            "ticks": 49826,
            "time": 56.41522898958334,
            "velocity": 0.3937007874015748
          },
          {
            "duration": 0.10869549999999606,
            "durationTicks": 96,
            "midi": 63,
            "name": "D#4",
            "ticks": 49826,
            "time": 56.41522898958334,
            "velocity": 0.3937007874015748
          },
          {
            "duration": 0.10869549999999606,
            "durationTicks": 96,
            "midi": 39,
            "name": "D#2",
            "ticks": 49826,
            "time": 56.41522898958334,
            "velocity": 0.3937007874015748
          },
          {
            "duration": 0.10869550000000316,
            "durationTicks": 96,
            "midi": 66,
            "name": "F#4",
            "ticks": 49922,
            "time": 56.52392448958334,
            "velocity": 0.3937007874015748
          },
          {
            "duration": 0.43478199999999845,
            "durationTicks": 384,
            "midi": 61,
            "name": "C#4",
            "ticks": 49922,
            "time": 56.52392448958334,
            "velocity": 0.3937007874015748
          },
          {
            "duration": 0.43478199999999845,
            "durationTicks": 384,
            "midi": 58,
            "name": "A#3",
            "ticks": 49922,
            "time": 56.52392448958334,
            "velocity": 0.3937007874015748
          },
          {
            "duration": 0.10869550000000316,
            "durationTicks": 96,
            "midi": 54,
            "name": "F#3",
            "ticks": 49922,
            "time": 56.52392448958334,
            "velocity": 0.3937007874015748
          },
          {
            "duration": 0.21739099999999922,
            "durationTicks": 192,
            "midi": 34,
            "name": "A#1",
            "ticks": 49922,
            "time": 56.52392448958334,
            "velocity": 0.3937007874015748
          },
          {
            "duration": 0.43478199999999845,
            "durationTicks": 384,
            "midi": 54,
            "name": "F#3",
            "ticks": 49922,
            "time": 56.52392448958334,
            "velocity": 0.3937007874015748
          },
          {
            "duration": 0.10869550000000316,
            "durationTicks": 96,
            "midi": 42,
            "name": "F#2",
            "ticks": 49922,
            "time": 56.52392448958334,
            "velocity": 0.3937007874015748
          },
          {
            "duration": 0.10869550000000316,
            "durationTicks": 96,
            "midi": 39,
            "name": "D#2",
            "ticks": 50114,
            "time": 56.741315489583336,
            "velocity": 0.3937007874015748
          },
          {
            "duration": 0.10869550000000316,
            "durationTicks": 96,
            "midi": 63,
            "name": "D#4",
            "ticks": 50114,
            "time": 56.741315489583336,
            "velocity": 0.3937007874015748
          },
          {
            "duration": 0.10869550000000316,
            "durationTicks": 96,
            "midi": 51,
            "name": "D#3",
            "ticks": 50114,
            "time": 56.741315489583336,
            "velocity": 0.3937007874015748
          },
          {
            "duration": 0.10869549999999606,
            "durationTicks": 96,
            "midi": 66,
            "name": "F#4",
            "ticks": 50210,
            "time": 56.85001098958334,
            "velocity": 0.3937007874015748
          },
          {
            "duration": 0.10869549999999606,
            "durationTicks": 96,
            "midi": 54,
            "name": "F#3",
            "ticks": 50210,
            "time": 56.85001098958334,
            "velocity": 0.3937007874015748
          },
          {
            "duration": 0.10869549999999606,
            "durationTicks": 96,
            "midi": 42,
            "name": "F#2",
            "ticks": 50210,
            "time": 56.85001098958334,
            "velocity": 0.3937007874015748
          },
          {
            "duration": 0.43478200000000555,
            "durationTicks": 384,
            "midi": 63,
            "name": "D#4",
            "ticks": 50306,
            "time": 56.958706489583335,
            "velocity": 0.3937007874015748
          },
          {
            "duration": 0.21739099999999922,
            "durationTicks": 192,
            "midi": 34,
            "name": "A#1",
            "ticks": 50306,
            "time": 56.958706489583335,
            "velocity": 0.3937007874015748
          },
          {
            "duration": 0.10869550000000316,
            "durationTicks": 96,
            "midi": 56,
            "name": "G#3",
            "ticks": 50306,
            "time": 56.958706489583335,
            "velocity": 0.3937007874015748
          },
          {
            "duration": 0.10869550000000316,
            "durationTicks": 96,
            "midi": 44,
            "name": "G#2",
            "ticks": 50306,
            "time": 56.958706489583335,
            "velocity": 0.3937007874015748
          },
          {
            "duration": 0.10869550000000316,
            "durationTicks": 96,
            "midi": 68,
            "name": "G#4",
            "ticks": 50306,
            "time": 56.958706489583335,
            "velocity": 0.3937007874015748
          },
          {
            "duration": 0.43478200000000555,
            "durationTicks": 384,
            "midi": 56,
            "name": "G#3",
            "ticks": 50306,
            "time": 56.958706489583335,
            "velocity": 0.3937007874015748
          },
          {
            "duration": 0.43478200000000555,
            "durationTicks": 384,
            "midi": 59,
            "name": "B3",
            "ticks": 50306,
            "time": 56.958706489583335,
            "velocity": 0.3937007874015748
          },
          {
            "duration": 0.10869550000000316,
            "durationTicks": 96,
            "midi": 66,
            "name": "F#4",
            "ticks": 50498,
            "time": 57.176097489583334,
            "velocity": 0.3937007874015748
          },
          {
            "duration": 0.10869550000000316,
            "durationTicks": 96,
            "midi": 54,
            "name": "F#3",
            "ticks": 50498,
            "time": 57.176097489583334,
            "velocity": 0.3937007874015748
          },
          {
            "duration": 0.21739100000000633,
            "durationTicks": 192,
            "midi": 34,
            "name": "A#1",
            "ticks": 50498,
            "time": 57.176097489583334,
            "velocity": 0.3937007874015748
          },
          {
            "duration": 0.10869550000000316,
            "durationTicks": 96,
            "midi": 42,
            "name": "F#2",
            "ticks": 50498,
            "time": 57.176097489583334,
            "velocity": 0.3937007874015748
          },
          {
            "duration": 0.10869550000000316,
            "durationTicks": 96,
            "midi": 68,
            "name": "G#4",
            "ticks": 50594,
            "time": 57.28479298958334,
            "velocity": 0.3937007874015748
          },
          {
            "duration": 0.10869550000000316,
            "durationTicks": 96,
            "midi": 44,
            "name": "G#2",
            "ticks": 50594,
            "time": 57.28479298958334,
            "velocity": 0.3937007874015748
          },
          {
            "duration": 0.10869550000000316,
            "durationTicks": 96,
            "midi": 56,
            "name": "G#3",
            "ticks": 50594,
            "time": 57.28479298958334,
            "velocity": 0.3937007874015748
          },
          {
            "duration": 0.10869549999999606,
            "durationTicks": 96,
            "midi": 39,
            "name": "D#2",
            "ticks": 50690,
            "time": 57.39348848958334,
            "velocity": 0.3937007874015748
          },
          {
            "duration": 0.10869549999999606,
            "durationTicks": 96,
            "midi": 27,
            "name": "D#1",
            "ticks": 50690,
            "time": 57.39348848958334,
            "velocity": 0.3937007874015748
          },
          {
            "duration": 0.3260864999999953,
            "durationTicks": 288,
            "midi": 63,
            "name": "D#4",
            "ticks": 50690,
            "time": 57.39348848958334,
            "velocity": 0.3937007874015748
          },
          {
            "duration": 0.43478199999999845,
            "durationTicks": 384,
            "midi": 54,
            "name": "F#3",
            "ticks": 50690,
            "time": 57.39348848958334,
            "velocity": 0.3937007874015748
          },
          {
            "duration": 0.43478199999999845,
            "durationTicks": 384,
            "midi": 58,
            "name": "A#3",
            "ticks": 50690,
            "time": 57.39348848958334,
            "velocity": 0.3937007874015748
          },
          {
            "duration": 0.21739099999999922,
            "durationTicks": 192,
            "midi": 34,
            "name": "A#1",
            "ticks": 50690,
            "time": 57.39348848958334,
            "velocity": 0.3937007874015748
          },
          {
            "duration": 0.10869549999999606,
            "durationTicks": 96,
            "midi": 51,
            "name": "D#3",
            "ticks": 50690,
            "time": 57.39348848958334,
            "velocity": 0.3937007874015748
          },
          {
            "duration": 0.10869549999999606,
            "durationTicks": 96,
            "midi": 51,
            "name": "D#3",
            "ticks": 50882,
            "time": 57.61087948958334,
            "velocity": 0.3937007874015748
          },
          {
            "duration": 0.10869549999999606,
            "durationTicks": 96,
            "midi": 39,
            "name": "D#2",
            "ticks": 50882,
            "time": 57.61087948958334,
            "velocity": 0.3937007874015748
          },
          {
            "duration": 0.21739099999999922,
            "durationTicks": 192,
            "midi": 63,
            "name": "D#4",
            "ticks": 50882,
            "time": 57.61087948958334,
            "velocity": 0.3937007874015748
          },
          {
            "duration": 0.10869550000000316,
            "durationTicks": 96,
            "midi": 51,
            "name": "D#3",
            "ticks": 50978,
            "time": 57.719574989583336,
            "velocity": 0.3937007874015748
          },
          {
            "duration": 0.10869550000000316,
            "durationTicks": 96,
            "midi": 63,
            "name": "D#4",
            "ticks": 50978,
            "time": 57.719574989583336,
            "velocity": 0.3937007874015748
          },
          {
            "duration": 0.10869550000000316,
            "durationTicks": 96,
            "midi": 39,
            "name": "D#2",
            "ticks": 50978,
            "time": 57.719574989583336,
            "velocity": 0.3937007874015748
          },
          {
            "duration": 0.21739099999999922,
            "durationTicks": 192,
            "midi": 63,
            "name": "D#4",
            "ticks": 51074,
            "time": 57.82827048958334,
            "velocity": 0.3937007874015748
          },
          {
            "duration": 0.21739099999999922,
            "durationTicks": 192,
            "midi": 34,
            "name": "A#1",
            "ticks": 51074,
            "time": 57.82827048958334,
            "velocity": 0.3937007874015748
          },
          {
            "duration": 0.10869549999999606,
            "durationTicks": 96,
            "midi": 51,
            "name": "D#3",
            "ticks": 51074,
            "time": 57.82827048958334,
            "velocity": 0.3937007874015748
          },
          {
            "duration": 0.43478199999999845,
            "durationTicks": 384,
            "midi": 54,
            "name": "F#3",
            "ticks": 51074,
            "time": 57.82827048958334,
            "velocity": 0.3937007874015748
          },
          {
            "duration": 0.10869549999999606,
            "durationTicks": 96,
            "midi": 39,
            "name": "D#2",
            "ticks": 51074,
            "time": 57.82827048958334,
            "velocity": 0.3937007874015748
          },
          {
            "duration": 0.10869549999999606,
            "durationTicks": 96,
            "midi": 27,
            "name": "D#1",
            "ticks": 51074,
            "time": 57.82827048958334,
            "velocity": 0.3937007874015748
          },
          {
            "duration": 0.43478199999999845,
            "durationTicks": 384,
            "midi": 58,
            "name": "A#3",
            "ticks": 51074,
            "time": 57.82827048958334,
            "velocity": 0.3937007874015748
          },
          {
            "duration": 0.3260865000000024,
            "durationTicks": 288,
            "midi": 63,
            "name": "D#4",
            "ticks": 51170,
            "time": 57.936965989583335,
            "velocity": 0.3937007874015748
          },
          {
            "duration": 0.10869550000000316,
            "durationTicks": 96,
            "midi": 51,
            "name": "D#3",
            "ticks": 51170,
            "time": 57.936965989583335,
            "velocity": 0.3937007874015748
          },
          {
            "duration": 0.10869550000000316,
            "durationTicks": 96,
            "midi": 39,
            "name": "D#2",
            "ticks": 51170,
            "time": 57.936965989583335,
            "velocity": 0.3937007874015748
          },
          {
            "duration": 0.10869549999999606,
            "durationTicks": 96,
            "midi": 61,
            "name": "C#4",
            "ticks": 51266,
            "time": 58.04566148958334,
            "velocity": 0.3937007874015748
          },
          {
            "duration": 0.10869549999999606,
            "durationTicks": 96,
            "midi": 49,
            "name": "C#3",
            "ticks": 51266,
            "time": 58.04566148958334,
            "velocity": 0.3937007874015748
          },
          {
            "duration": 0.10869549999999606,
            "durationTicks": 96,
            "midi": 37,
            "name": "C#2",
            "ticks": 51266,
            "time": 58.04566148958334,
            "velocity": 0.3937007874015748
          },
          {
            "duration": 0.10869550000000316,
            "durationTicks": 96,
            "midi": 39,
            "name": "D#2",
            "ticks": 51362,
            "time": 58.154356989583334,
            "velocity": 0.3937007874015748
          },
          {
            "duration": 0.10869550000000316,
            "durationTicks": 96,
            "midi": 51,
            "name": "D#3",
            "ticks": 51362,
            "time": 58.154356989583334,
            "velocity": 0.3937007874015748
          },
          {
            "duration": 0.10869550000000316,
            "durationTicks": 96,
            "midi": 63,
            "name": "D#4",
            "ticks": 51362,
            "time": 58.154356989583334,
            "velocity": 0.3937007874015748
          },
          {
            "duration": 0.21739099999999922,
            "durationTicks": 192,
            "midi": 34,
            "name": "A#1",
            "ticks": 51458,
            "time": 58.26305248958334,
            "velocity": 0.3937007874015748
          },
          {
            "duration": 0.10869550000000316,
            "durationTicks": 96,
            "midi": 51,
            "name": "D#3",
            "ticks": 51458,
            "time": 58.26305248958334,
            "velocity": 0.3937007874015748
          },
          {
            "duration": 0.43478199999999845,
            "durationTicks": 384,
            "midi": 54,
            "name": "F#3",
            "ticks": 51458,
            "time": 58.26305248958334,
            "velocity": 0.3937007874015748
          },
          {
            "duration": 0.10869550000000316,
            "durationTicks": 96,
            "midi": 27,
            "name": "D#1",
            "ticks": 51458,
            "time": 58.26305248958334,
            "velocity": 0.3937007874015748
          },
          {
            "duration": 0.3260865000000024,
            "durationTicks": 288,
            "midi": 63,
            "name": "D#4",
            "ticks": 51458,
            "time": 58.26305248958334,
            "velocity": 0.3937007874015748
          },
          {
            "duration": 0.10869550000000316,
            "durationTicks": 96,
            "midi": 39,
            "name": "D#2",
            "ticks": 51458,
            "time": 58.26305248958334,
            "velocity": 0.3937007874015748
          },
          {
            "duration": 0.43478199999999845,
            "durationTicks": 384,
            "midi": 58,
            "name": "A#3",
            "ticks": 51458,
            "time": 58.26305248958334,
            "velocity": 0.3937007874015748
          },
          {
            "duration": 0.21739099999999922,
            "durationTicks": 192,
            "midi": 63,
            "name": "D#4",
            "ticks": 51650,
            "time": 58.48044348958334,
            "velocity": 0.3937007874015748
          },
          {
            "duration": 0.10869550000000316,
            "durationTicks": 96,
            "midi": 51,
            "name": "D#3",
            "ticks": 51650,
            "time": 58.48044348958334,
            "velocity": 0.3937007874015748
          },
          {
            "duration": 0.10869550000000316,
            "durationTicks": 96,
            "midi": 39,
            "name": "D#2",
            "ticks": 51650,
            "time": 58.48044348958334,
            "velocity": 0.3937007874015748
          },
          {
            "duration": 0.10869549999999606,
            "durationTicks": 96,
            "midi": 63,
            "name": "D#4",
            "ticks": 51746,
            "time": 58.58913898958334,
            "velocity": 0.3937007874015748
          },
          {
            "duration": 0.10869549999999606,
            "durationTicks": 96,
            "midi": 51,
            "name": "D#3",
            "ticks": 51746,
            "time": 58.58913898958334,
            "velocity": 0.3937007874015748
          },
          {
            "duration": 0.10869549999999606,
            "durationTicks": 96,
            "midi": 39,
            "name": "D#2",
            "ticks": 51746,
            "time": 58.58913898958334,
            "velocity": 0.3937007874015748
          },
          {
            "duration": 0.10869550000000316,
            "durationTicks": 96,
            "midi": 27,
            "name": "D#1",
            "ticks": 51842,
            "time": 58.697834489583336,
            "velocity": 0.3937007874015748
          },
          {
            "duration": 0.43478199999999845,
            "durationTicks": 384,
            "midi": 54,
            "name": "F#3",
            "ticks": 51842,
            "time": 58.697834489583336,
            "velocity": 0.3937007874015748
          },
          {
            "duration": 0.10869550000000316,
            "durationTicks": 96,
            "midi": 51,
            "name": "D#3",
            "ticks": 51842,
            "time": 58.697834489583336,
            "velocity": 0.3937007874015748
          },
          {
            "duration": 0.43478199999999845,
            "durationTicks": 384,
            "midi": 58,
            "name": "A#3",
            "ticks": 51842,
            "time": 58.697834489583336,
            "velocity": 0.3937007874015748
          },
          {
            "duration": 0.10869550000000316,
            "durationTicks": 96,
            "midi": 39,
            "name": "D#2",
            "ticks": 51842,
            "time": 58.697834489583336,
            "velocity": 0.3937007874015748
          },
          {
            "duration": 0.21739099999999922,
            "durationTicks": 192,
            "midi": 34,
            "name": "A#1",
            "ticks": 51842,
            "time": 58.697834489583336,
            "velocity": 0.3937007874015748
          },
          {
            "duration": 0.21739099999999922,
            "durationTicks": 192,
            "midi": 63,
            "name": "D#4",
            "ticks": 51842,
            "time": 58.697834489583336,
            "velocity": 0.3937007874015748
          },
          {
            "duration": 0.10869549999999606,
            "durationTicks": 96,
            "midi": 51,
            "name": "D#3",
            "ticks": 51938,
            "time": 58.80652998958334,
            "velocity": 0.3937007874015748
          },
          {
            "duration": 0.3260864999999953,
            "durationTicks": 288,
            "midi": 63,
            "name": "D#4",
            "ticks": 51938,
            "time": 58.80652998958334,
            "velocity": 0.3937007874015748
          },
          {
            "duration": 0.10869549999999606,
            "durationTicks": 96,
            "midi": 39,
            "name": "D#2",
            "ticks": 51938,
            "time": 58.80652998958334,
            "velocity": 0.3937007874015748
          },
          {
            "duration": 0.10869550000000316,
            "durationTicks": 96,
            "midi": 37,
            "name": "C#2",
            "ticks": 52034,
            "time": 58.915225489583335,
            "velocity": 0.3937007874015748
          },
          {
            "duration": 0.10869550000000316,
            "durationTicks": 96,
            "midi": 49,
            "name": "C#3",
            "ticks": 52034,
            "time": 58.915225489583335,
            "velocity": 0.3937007874015748
          },
          {
            "duration": 0.10869550000000316,
            "durationTicks": 96,
            "midi": 61,
            "name": "C#4",
            "ticks": 52034,
            "time": 58.915225489583335,
            "velocity": 0.3937007874015748
          },
          {
            "duration": 0.10869549999999606,
            "durationTicks": 96,
            "midi": 51,
            "name": "D#3",
            "ticks": 52130,
            "time": 59.02392098958334,
            "velocity": 0.3937007874015748
          },
          {
            "duration": 0.10869549999999606,
            "durationTicks": 96,
            "midi": 63,
            "name": "D#4",
            "ticks": 52130,
            "time": 59.02392098958334,
            "velocity": 0.3937007874015748
          },
          {
            "duration": 0.10869549999999606,
            "durationTicks": 96,
            "midi": 39,
            "name": "D#2",
            "ticks": 52130,
            "time": 59.02392098958334,
            "velocity": 0.3937007874015748
          },
          {
            "duration": 0.10869550000000316,
            "durationTicks": 96,
            "midi": 27,
            "name": "D#1",
            "ticks": 52226,
            "time": 59.132616489583334,
            "velocity": 0.3937007874015748
          },
          {
            "duration": 0.3260865000000024,
            "durationTicks": 288,
            "midi": 63,
            "name": "D#4",
            "ticks": 52226,
            "time": 59.132616489583334,
            "velocity": 0.3937007874015748
          },
          {
            "duration": 0.10869550000000316,
            "durationTicks": 96,
            "midi": 39,
            "name": "D#2",
            "ticks": 52226,
            "time": 59.132616489583334,
            "velocity": 0.3937007874015748
          },
          {
            "duration": 0.10869550000000316,
            "durationTicks": 96,
            "midi": 51,
            "name": "D#3",
            "ticks": 52226,
            "time": 59.132616489583334,
            "velocity": 0.3937007874015748
          },
          {
            "duration": 0.43478200000000555,
            "durationTicks": 384,
            "midi": 58,
            "name": "A#3",
            "ticks": 52226,
            "time": 59.132616489583334,
            "velocity": 0.3937007874015748
          },
          {
            "duration": 0.43478200000000555,
            "durationTicks": 384,
            "midi": 54,
            "name": "F#3",
            "ticks": 52226,
            "time": 59.132616489583334,
            "velocity": 0.3937007874015748
          },
          {
            "duration": 0.21739100000000633,
            "durationTicks": 192,
            "midi": 34,
            "name": "A#1",
            "ticks": 52226,
            "time": 59.132616489583334,
            "velocity": 0.3937007874015748
          },
          {
            "duration": 0.10869549999999606,
            "durationTicks": 96,
            "midi": 39,
            "name": "D#2",
            "ticks": 52418,
            "time": 59.35000748958334,
            "velocity": 0.3937007874015748
          },
          {
            "duration": 0.21739099999999922,
            "durationTicks": 192,
            "midi": 63,
            "name": "D#4",
            "ticks": 52418,
            "time": 59.35000748958334,
            "velocity": 0.3937007874015748
          },
          {
            "duration": 0.10869549999999606,
            "durationTicks": 96,
            "midi": 51,
            "name": "D#3",
            "ticks": 52418,
            "time": 59.35000748958334,
            "velocity": 0.3937007874015748
          },
          {
            "duration": 0.10869550000000316,
            "durationTicks": 96,
            "midi": 51,
            "name": "D#3",
            "ticks": 52514,
            "time": 59.45870298958334,
            "velocity": 0.3937007874015748
          },
          {
            "duration": 0.10869550000000316,
            "durationTicks": 96,
            "midi": 39,
            "name": "D#2",
            "ticks": 52514,
            "time": 59.45870298958334,
            "velocity": 0.3937007874015748
          },
          {
            "duration": 0.10869550000000316,
            "durationTicks": 96,
            "midi": 63,
            "name": "D#4",
            "ticks": 52514,
            "time": 59.45870298958334,
            "velocity": 0.3937007874015748
          },
          {
            "duration": 0.43478199999999845,
            "durationTicks": 384,
            "midi": 54,
            "name": "F#3",
            "ticks": 52610,
            "time": 59.56739848958334,
            "velocity": 0.3937007874015748
          },
          {
            "duration": 0.43478199999999845,
            "durationTicks": 384,
            "midi": 58,
            "name": "A#3",
            "ticks": 52610,
            "time": 59.56739848958334,
            "velocity": 0.3937007874015748
          },
          {
            "duration": 0.21739099999999922,
            "durationTicks": 192,
            "midi": 34,
            "name": "A#1",
            "ticks": 52610,
            "time": 59.56739848958334,
            "velocity": 0.3937007874015748
          },
          {
            "duration": 0.10869549999999606,
            "durationTicks": 96,
            "midi": 51,
            "name": "D#3",
            "ticks": 52610,
            "time": 59.56739848958334,
            "velocity": 0.3937007874015748
          },
          {
            "duration": 0.21739099999999922,
            "durationTicks": 192,
            "midi": 63,
            "name": "D#4",
            "ticks": 52610,
            "time": 59.56739848958334,
            "velocity": 0.3937007874015748
          },
          {
            "duration": 0.10869549999999606,
            "durationTicks": 96,
            "midi": 39,
            "name": "D#2",
            "ticks": 52610,
            "time": 59.56739848958334,
            "velocity": 0.3937007874015748
          },
          {
            "duration": 0.10869549999999606,
            "durationTicks": 96,
            "midi": 27,
            "name": "D#1",
            "ticks": 52610,
            "time": 59.56739848958334,
            "velocity": 0.3937007874015748
          },
          {
            "duration": 0.3260865000000024,
            "durationTicks": 288,
            "midi": 63,
            "name": "D#4",
            "ticks": 52706,
            "time": 59.676093989583336,
            "velocity": 0.3937007874015748
          },
          {
            "duration": 0.10869550000000316,
            "durationTicks": 96,
            "midi": 39,
            "name": "D#2",
            "ticks": 52706,
            "time": 59.676093989583336,
            "velocity": 0.3937007874015748
          },
          {
            "duration": 0.10869550000000316,
            "durationTicks": 96,
            "midi": 51,
            "name": "D#3",
            "ticks": 52706,
            "time": 59.676093989583336,
            "velocity": 0.3937007874015748
          },
          {
            "duration": 0.10869549999999606,
            "durationTicks": 96,
            "midi": 49,
            "name": "C#3",
            "ticks": 52802,
            "time": 59.78478948958334,
            "velocity": 0.3937007874015748
          },
          {
            "duration": 0.10869549999999606,
            "durationTicks": 96,
            "midi": 37,
            "name": "C#2",
            "ticks": 52802,
            "time": 59.78478948958334,
            "velocity": 0.3937007874015748
          },
          {
            "duration": 0.10869549999999606,
            "durationTicks": 96,
            "midi": 61,
            "name": "C#4",
            "ticks": 52802,
            "time": 59.78478948958334,
            "velocity": 0.3937007874015748
          },
          {
            "duration": 0.10869550000000316,
            "durationTicks": 96,
            "midi": 39,
            "name": "D#2",
            "ticks": 52898,
            "time": 59.893484989583335,
            "velocity": 0.3937007874015748
          },
          {
            "duration": 0.10869550000000316,
            "durationTicks": 96,
            "midi": 63,
            "name": "D#4",
            "ticks": 52898,
            "time": 59.893484989583335,
            "velocity": 0.3937007874015748
          },
          {
            "duration": 0.10869550000000316,
            "durationTicks": 96,
            "midi": 51,
            "name": "D#3",
            "ticks": 52898,
            "time": 59.893484989583335,
            "velocity": 0.3937007874015748
          },
          {
            "duration": 0.10869549999999606,
            "durationTicks": 96,
            "midi": 63,
            "name": "D#4",
            "ticks": 52994,
            "time": 60.00218048958334,
            "velocity": 0.3937007874015748
          },
          {
            "duration": 0.10869549999999606,
            "durationTicks": 96,
            "midi": 59,
            "name": "B3",
            "ticks": 52994,
            "time": 60.00218048958334,
            "velocity": 0.3937007874015748
          },
          {
            "duration": 0.10869549999999606,
            "durationTicks": 96,
            "midi": 56,
            "name": "G#3",
            "ticks": 52994,
            "time": 60.00218048958334,
            "velocity": 0.3937007874015748
          },
          {
            "duration": 0.10869549999999606,
            "durationTicks": 96,
            "midi": 44,
            "name": "G#2",
            "ticks": 52994,
            "time": 60.00218048958334,
            "velocity": 0.3937007874015748
          },
          {
            "duration": 0.10869549999999606,
            "durationTicks": 96,
            "midi": 34,
            "name": "A#1",
            "ticks": 52994,
            "time": 60.00218048958334,
            "velocity": 0.3937007874015748
          },
          {
            "duration": 0.10869549999999606,
            "durationTicks": 96,
            "midi": 68,
            "name": "G#4",
            "ticks": 52994,
            "time": 60.00218048958334,
            "velocity": 0.3937007874015748
          },
          {
            "duration": 0.10869549999999606,
            "durationTicks": 96,
            "midi": 56,
            "name": "G#3",
            "ticks": 52994,
            "time": 60.00218048958334,
            "velocity": 0.3937007874015748
          },
          {
            "duration": 0.10869550000000316,
            "durationTicks": 96,
            "midi": 54,
            "name": "F#3",
            "ticks": 53122,
            "time": 60.14710782291666,
            "velocity": 0.3937007874015748
          },
          {
            "duration": 0.10869550000000316,
            "durationTicks": 96,
            "midi": 56,
            "name": "G#3",
            "ticks": 53122,
            "time": 60.14710782291666,
            "velocity": 0.3937007874015748
          },
          {
            "duration": 0.10869550000000316,
            "durationTicks": 96,
            "midi": 63,
            "name": "D#4",
            "ticks": 53122,
            "time": 60.14710782291666,
            "velocity": 0.3937007874015748
          },
          {
            "duration": 0.10869550000000316,
            "durationTicks": 96,
            "midi": 66,
            "name": "F#4",
            "ticks": 53122,
            "time": 60.14710782291666,
            "velocity": 0.3937007874015748
          },
          {
            "duration": 0.10869550000000316,
            "durationTicks": 96,
            "midi": 59,
            "name": "B3",
            "ticks": 53122,
            "time": 60.14710782291666,
            "velocity": 0.3937007874015748
          },
          {
            "duration": 0.10869550000000316,
            "durationTicks": 96,
            "midi": 42,
            "name": "F#2",
            "ticks": 53122,
            "time": 60.14710782291666,
            "velocity": 0.3937007874015748
          },
          {
            "duration": 0.10869550000000316,
            "durationTicks": 96,
            "midi": 34,
            "name": "A#1",
            "ticks": 53122,
            "time": 60.14710782291666,
            "velocity": 0.3937007874015748
          },
          {
            "duration": 0.10869549999999606,
            "durationTicks": 96,
            "midi": 56,
            "name": "G#3",
            "ticks": 53251,
            "time": 60.293167401041664,
            "velocity": 0.3937007874015748
          },
          {
            "duration": 0.10869549999999606,
            "durationTicks": 96,
            "midi": 59,
            "name": "B3",
            "ticks": 53251,
            "time": 60.293167401041664,
            "velocity": 0.3937007874015748
          },
          {
            "duration": 0.10869549999999606,
            "durationTicks": 96,
            "midi": 56,
            "name": "G#3",
            "ticks": 53251,
            "time": 60.293167401041664,
            "velocity": 0.3937007874015748
          },
          {
            "duration": 0.10869549999999606,
            "durationTicks": 96,
            "midi": 34,
            "name": "A#1",
            "ticks": 53251,
            "time": 60.293167401041664,
            "velocity": 0.3937007874015748
          },
          {
            "duration": 0.10869549999999606,
            "durationTicks": 96,
            "midi": 68,
            "name": "G#4",
            "ticks": 53251,
            "time": 60.293167401041664,
            "velocity": 0.3937007874015748
          },
          {
            "duration": 0.10869549999999606,
            "durationTicks": 96,
            "midi": 44,
            "name": "G#2",
            "ticks": 53251,
            "time": 60.293167401041664,
            "velocity": 0.3937007874015748
          },
          {
            "duration": 0.10869549999999606,
            "durationTicks": 96,
            "midi": 63,
            "name": "D#4",
            "ticks": 53251,
            "time": 60.293167401041664,
            "velocity": 0.3937007874015748
          },
          {
            "duration": 0.10869550000000316,
            "durationTicks": 96,
            "midi": 66,
            "name": "F#4",
            "ticks": 53379,
            "time": 60.438094734375,
            "velocity": 0.3937007874015748
          },
          {
            "duration": 0.10869550000000316,
            "durationTicks": 96,
            "midi": 54,
            "name": "F#3",
            "ticks": 53379,
            "time": 60.438094734375,
            "velocity": 0.3937007874015748
          },
          {
            "duration": 0.10869550000000316,
            "durationTicks": 96,
            "midi": 34,
            "name": "A#1",
            "ticks": 53379,
            "time": 60.438094734375,
            "velocity": 0.3937007874015748
          },
          {
            "duration": 0.10869550000000316,
            "durationTicks": 96,
            "midi": 58,
            "name": "A#3",
            "ticks": 53379,
            "time": 60.438094734375,
            "velocity": 0.3937007874015748
          },
          {
            "duration": 0.10869550000000316,
            "durationTicks": 96,
            "midi": 61,
            "name": "C#4",
            "ticks": 53379,
            "time": 60.438094734375,
            "velocity": 0.3937007874015748
          },
          {
            "duration": 0.10869550000000316,
            "durationTicks": 96,
            "midi": 42,
            "name": "F#2",
            "ticks": 53379,
            "time": 60.438094734375,
            "velocity": 0.3937007874015748
          },
          {
            "duration": 0.10869550000000316,
            "durationTicks": 96,
            "midi": 54,
            "name": "F#3",
            "ticks": 53379,
            "time": 60.438094734375,
            "velocity": 0.3937007874015748
          },
          {
            "duration": 0.10869550000000316,
            "durationTicks": 96,
            "midi": 51,
            "name": "D#3",
            "ticks": 53507,
            "time": 60.583022067708335,
            "velocity": 0.3937007874015748
          },
          {
            "duration": 0.10869550000000316,
            "durationTicks": 96,
            "midi": 61,
            "name": "C#4",
            "ticks": 53507,
            "time": 60.583022067708335,
            "velocity": 0.3937007874015748
          },
          {
            "duration": 0.10869550000000316,
            "durationTicks": 96,
            "midi": 63,
            "name": "D#4",
            "ticks": 53507,
            "time": 60.583022067708335,
            "velocity": 0.3937007874015748
          },
          {
            "duration": 0.10869550000000316,
            "durationTicks": 96,
            "midi": 34,
            "name": "A#1",
            "ticks": 53507,
            "time": 60.583022067708335,
            "velocity": 0.3937007874015748
          },
          {
            "duration": 0.10869550000000316,
            "durationTicks": 96,
            "midi": 39,
            "name": "D#2",
            "ticks": 53507,
            "time": 60.583022067708335,
            "velocity": 0.3937007874015748
          },
          {
            "duration": 0.10869550000000316,
            "durationTicks": 96,
            "midi": 58,
            "name": "A#3",
            "ticks": 53507,
            "time": 60.583022067708335,
            "velocity": 0.3937007874015748
          },
          {
            "duration": 0.10869550000000316,
            "durationTicks": 96,
            "midi": 54,
            "name": "F#3",
            "ticks": 53507,
            "time": 60.583022067708335,
            "velocity": 0.3937007874015748
          },
          {
            "duration": 0.10869549999999606,
            "durationTicks": 96,
            "midi": 61,
            "name": "C#4",
            "ticks": 53636,
            "time": 60.72908164583334,
            "velocity": 0.3937007874015748
          },
          {
            "duration": 0.10869549999999606,
            "durationTicks": 96,
            "midi": 66,
            "name": "F#4",
            "ticks": 53636,
            "time": 60.72908164583334,
            "velocity": 0.3937007874015748
          },
          {
            "duration": 0.10869549999999606,
            "durationTicks": 96,
            "midi": 34,
            "name": "A#1",
            "ticks": 53636,
            "time": 60.72908164583334,
            "velocity": 0.3937007874015748
          },
          {
            "duration": 0.10869549999999606,
            "durationTicks": 96,
            "midi": 58,
            "name": "A#3",
            "ticks": 53636,
            "time": 60.72908164583334,
            "velocity": 0.3937007874015748
          },
          {
            "duration": 0.10869549999999606,
            "durationTicks": 96,
            "midi": 54,
            "name": "F#3",
            "ticks": 53636,
            "time": 60.72908164583334,
            "velocity": 0.3937007874015748
          },
          {
            "duration": 0.10869549999999606,
            "durationTicks": 96,
            "midi": 42,
            "name": "F#2",
            "ticks": 53636,
            "time": 60.72908164583334,
            "velocity": 0.3937007874015748
          },
          {
            "duration": 0.10869549999999606,
            "durationTicks": 96,
            "midi": 54,
            "name": "F#3",
            "ticks": 53636,
            "time": 60.72908164583334,
            "velocity": 0.3937007874015748
          },
          {
            "duration": 0.9782595000000001,
            "durationTicks": 864,
            "midi": 63,
            "name": "D#4",
            "ticks": 54148,
            "time": 61.308790979166666,
            "velocity": 0.3937007874015748
          },
          {
            "duration": 0.8695639999999969,
            "durationTicks": 768,
            "midi": 51,
            "name": "D#3",
            "ticks": 54148,
            "time": 61.308790979166666,
            "velocity": 0.3937007874015748
          },
          {
            "duration": 0.8695639999999969,
            "durationTicks": 768,
            "midi": 39,
            "name": "D#2",
            "ticks": 54148,
            "time": 61.308790979166666,
            "velocity": 0.3937007874015748
          },
          {
            "duration": 0.10869550000000316,
            "durationTicks": 96,
            "midi": 39,
            "name": "D#2",
            "ticks": 54916,
            "time": 62.17835497916666,
            "velocity": 0.3937007874015748
          },
          {
            "duration": 0.10869550000000316,
            "durationTicks": 96,
            "midi": 51,
            "name": "D#3",
            "ticks": 54916,
            "time": 62.17835497916666,
            "velocity": 0.3937007874015748
          },
          {
            "duration": 0.10869550000000316,
            "durationTicks": 96,
            "midi": 75,
            "name": "D#5",
            "ticks": 54916,
            "time": 62.17835497916666,
            "velocity": 0.3937007874015748
          },
          {
            "duration": 0.25362283333333835,
            "durationTicks": 224,
            "midi": 63,
            "name": "D#4",
            "ticks": 54916,
            "time": 62.17835497916666,
            "velocity": 0.3937007874015748
          },
          {
            "duration": 0.10869550000000316,
            "durationTicks": 96,
            "midi": 51,
            "name": "D#3",
            "ticks": 55044,
            "time": 62.3232823125,
            "velocity": 0.3937007874015748
          },
          {
            "duration": 0.10869550000000316,
            "durationTicks": 96,
            "midi": 75,
            "name": "D#5",
            "ticks": 55044,
            "time": 62.3232823125,
            "velocity": 0.3937007874015748
          },
          {
            "duration": 0.254755078125001,
            "durationTicks": 225,
            "midi": 63,
            "name": "D#4",
            "ticks": 55044,
            "time": 62.3232823125,
            "velocity": 0.3937007874015748
          },
          {
            "duration": 0.10869550000000316,
            "durationTicks": 96,
            "midi": 34,
            "name": "A#1",
            "ticks": 55044,
            "time": 62.3232823125,
            "velocity": 0.3937007874015748
          },
          {
            "duration": 0.10869550000000316,
            "durationTicks": 96,
            "midi": 39,
            "name": "D#2",
            "ticks": 55044,
            "time": 62.3232823125,
            "velocity": 0.3937007874015748
          },
          {
            "duration": 0.10869549999999606,
            "durationTicks": 96,
            "midi": 39,
            "name": "D#2",
            "ticks": 55173,
            "time": 62.469341890625,
            "velocity": 0.3937007874015748
          },
          {
            "duration": 0.10869549999999606,
            "durationTicks": 96,
            "midi": 51,
            "name": "D#3",
            "ticks": 55173,
            "time": 62.469341890625,
            "velocity": 0.3937007874015748
          },
          {
            "duration": 0.25362283333333124,
            "durationTicks": 224,
            "midi": 63,
            "name": "D#4",
            "ticks": 55173,
            "time": 62.469341890625,
            "velocity": 0.3937007874015748
          },
          {
            "duration": 0.10869549999999606,
            "durationTicks": 96,
            "midi": 75,
            "name": "D#5",
            "ticks": 55173,
            "time": 62.469341890625,
            "velocity": 0.3937007874015748
          },
          {
            "duration": 0.10869549999999606,
            "durationTicks": 96,
            "midi": 34,
            "name": "A#1",
            "ticks": 55173,
            "time": 62.469341890625,
            "velocity": 0.3937007874015748
          },
          {
            "duration": 0.10869549999999606,
            "durationTicks": 96,
            "midi": 39,
            "name": "D#2",
            "ticks": 55301,
            "time": 62.61426922395834,
            "velocity": 0.3937007874015748
          },
          {
            "duration": 0.10869549999999606,
            "durationTicks": 96,
            "midi": 34,
            "name": "A#1",
            "ticks": 55301,
            "time": 62.61426922395834,
            "velocity": 0.3937007874015748
          },
          {
            "duration": 0.21739099999999922,
            "durationTicks": 192,
            "midi": 63,
            "name": "D#4",
            "ticks": 55301,
            "time": 62.61426922395834,
            "velocity": 0.3937007874015748
          },
          {
            "duration": 0.10869549999999606,
            "durationTicks": 96,
            "midi": 75,
            "name": "D#5",
            "ticks": 55301,
            "time": 62.61426922395834,
            "velocity": 0.3937007874015748
          },
          {
            "duration": 0.10869549999999606,
            "durationTicks": 96,
            "midi": 51,
            "name": "D#3",
            "ticks": 55301,
            "time": 62.61426922395834,
            "velocity": 0.3937007874015748
          },
          {
            "duration": 0.10869549999999606,
            "durationTicks": 96,
            "midi": 51,
            "name": "D#3",
            "ticks": 55429,
            "time": 62.759196557291666,
            "velocity": 0.3937007874015748
          },
          {
            "duration": 0.10869549999999606,
            "durationTicks": 96,
            "midi": 75,
            "name": "D#5",
            "ticks": 55429,
            "time": 62.759196557291666,
            "velocity": 0.3937007874015748
          },
          {
            "duration": 0.10869549999999606,
            "durationTicks": 96,
            "midi": 34,
            "name": "A#1",
            "ticks": 55429,
            "time": 62.759196557291666,
            "velocity": 0.3937007874015748
          },
          {
            "duration": 0.10869549999999606,
            "durationTicks": 96,
            "midi": 39,
            "name": "D#2",
            "ticks": 55429,
            "time": 62.759196557291666,
            "velocity": 0.3937007874015748
          },
          {
            "duration": 0.10869549999999606,
            "durationTicks": 96,
            "midi": 63,
            "name": "D#4",
            "ticks": 55429,
            "time": 62.759196557291666,
            "velocity": 0.3937007874015748
          },
          {
            "duration": 0.10869549999999606,
            "durationTicks": 96,
            "midi": 51,
            "name": "D#3",
            "ticks": 55558,
            "time": 62.905256135416664,
            "velocity": 0.3937007874015748
          },
          {
            "duration": 0.10869549999999606,
            "durationTicks": 96,
            "midi": 75,
            "name": "D#5",
            "ticks": 55558,
            "time": 62.905256135416664,
            "velocity": 0.3937007874015748
          },
          {
            "duration": 0.10869549999999606,
            "durationTicks": 96,
            "midi": 39,
            "name": "D#2",
            "ticks": 55558,
            "time": 62.905256135416664,
            "velocity": 0.3937007874015748
          },
          {
            "duration": 0.10869549999999606,
            "durationTicks": 96,
            "midi": 63,
            "name": "D#4",
            "ticks": 55558,
            "time": 62.905256135416664,
            "velocity": 0.3937007874015748
          },
          {
            "duration": 0.10869549999999606,
            "durationTicks": 96,
            "midi": 34,
            "name": "A#1",
            "ticks": 55558,
            "time": 62.905256135416664,
            "velocity": 0.3937007874015748
          },
          {
            "duration": 0.21739099999999922,
            "durationTicks": 192,
            "midi": 63,
            "name": "D#4",
            "ticks": 55686,
            "time": 63.05018346875,
            "velocity": 0.3937007874015748
          },
          {
            "duration": 0.10869550000000316,
            "durationTicks": 96,
            "midi": 39,
            "name": "D#2",
            "ticks": 55686,
            "time": 63.05018346875,
            "velocity": 0.3937007874015748
          },
          {
            "duration": 0.21739099999999922,
            "durationTicks": 192,
            "midi": 54,
            "name": "F#3",
            "ticks": 55686,
            "time": 63.05018346875,
            "velocity": 0.3937007874015748
          },
          {
            "duration": 0.21739099999999922,
            "durationTicks": 192,
            "midi": 75,
            "name": "D#5",
            "ticks": 55686,
            "time": 63.05018346875,
            "velocity": 0.3937007874015748
          },
          {
            "duration": 0.10869550000000316,
            "durationTicks": 96,
            "midi": 87,
            "name": "D#6",
            "ticks": 55686,
            "time": 63.05018346875,
            "velocity": 0.3937007874015748
          },
          {
            "duration": 0.3260865000000024,
            "durationTicks": 288,
            "midi": 58,
            "name": "A#3",
            "ticks": 55686,
            "time": 63.05018346875,
            "velocity": 0.3937007874015748
          },
          {
            "duration": 0.10869550000000316,
            "durationTicks": 96,
            "midi": 27,
            "name": "D#1",
            "ticks": 55686,
            "time": 63.05018346875,
            "velocity": 0.3937007874015748
          },
          {
            "duration": 0.10869550000000316,
            "durationTicks": 96,
            "midi": 51,
            "name": "D#3",
            "ticks": 55686,
            "time": 63.05018346875,
            "velocity": 0.3937007874015748
          },
          {
            "duration": 0.43478199999999845,
            "durationTicks": 384,
            "midi": 63,
            "name": "D#4",
            "ticks": 55686,
            "time": 63.05018346875,
            "velocity": 0.3937007874015748
          },
          {
            "duration": 0.21739099999999922,
            "durationTicks": 192,
            "midi": 34,
            "name": "A#1",
            "ticks": 55686,
            "time": 63.05018346875,
            "velocity": 0.3937007874015748
          },
          {
            "duration": 0.10869549999999606,
            "durationTicks": 96,
            "midi": 87,
            "name": "D#6",
            "ticks": 55782,
            "time": 63.15887896875,
            "velocity": 0.3937007874015748
          },
          {
            "duration": 0.3260864999999953,
            "durationTicks": 288,
            "midi": 54,
            "name": "F#3",
            "ticks": 55782,
            "time": 63.15887896875,
            "velocity": 0.3937007874015748
          },
          {
            "duration": 0.21739099999999922,
            "durationTicks": 192,
            "midi": 65,
            "name": "F4",
            "ticks": 55878,
            "time": 63.26757446875,
            "velocity": 0.3937007874015748
          },
          {
            "duration": 0.10869550000000316,
            "durationTicks": 96,
            "midi": 51,
            "name": "D#3",
            "ticks": 55878,
            "time": 63.26757446875,
            "velocity": 0.3937007874015748
          },
          {
            "duration": 0.21739099999999922,
            "durationTicks": 192,
            "midi": 58,
            "name": "A#3",
            "ticks": 55878,
            "time": 63.26757446875,
            "velocity": 0.3937007874015748
          },
          {
            "duration": 0.10869550000000316,
            "durationTicks": 96,
            "midi": 39,
            "name": "D#2",
            "ticks": 55878,
            "time": 63.26757446875,
            "velocity": 0.3937007874015748
          },
          {
            "duration": 0.21739099999999922,
            "durationTicks": 192,
            "midi": 77,
            "name": "F5",
            "ticks": 55878,
            "time": 63.26757446875,
            "velocity": 0.3937007874015748
          },
          {
            "duration": 0.10869550000000316,
            "durationTicks": 96,
            "midi": 86,
            "name": "D6",
            "ticks": 55878,
            "time": 63.26757446875,
            "velocity": 0.3937007874015748
          },
          {
            "duration": 0.10869549999999606,
            "durationTicks": 96,
            "midi": 86,
            "name": "D6",
            "ticks": 55974,
            "time": 63.37626996875,
            "velocity": 0.3937007874015748
          },
          {
            "duration": 0.10869549999999606,
            "durationTicks": 96,
            "midi": 63,
            "name": "D#4",
            "ticks": 55974,
            "time": 63.37626996875,
            "velocity": 0.3937007874015748
          },
          {
            "duration": 0.10869549999999606,
            "durationTicks": 96,
            "midi": 51,
            "name": "D#3",
            "ticks": 55974,
            "time": 63.37626996875,
            "velocity": 0.3937007874015748
          },
          {
            "duration": 0.10869549999999606,
            "durationTicks": 96,
            "midi": 39,
            "name": "D#2",
            "ticks": 55974,
            "time": 63.37626996875,
            "velocity": 0.3937007874015748
          },
          {
            "duration": 0.10869550000000316,
            "durationTicks": 96,
            "midi": 66,
            "name": "F#4",
            "ticks": 56070,
            "time": 63.48496546875,
            "velocity": 0.3937007874015748
          },
          {
            "duration": 0.10869550000000316,
            "durationTicks": 96,
            "midi": 39,
            "name": "D#2",
            "ticks": 56070,
            "time": 63.48496546875,
            "velocity": 0.3937007874015748
          },
          {
            "duration": 0.21739099999999922,
            "durationTicks": 192,
            "midi": 78,
            "name": "F#5",
            "ticks": 56070,
            "time": 63.48496546875,
            "velocity": 0.3937007874015748
          },
          {
            "duration": 0.43478200000000555,
            "durationTicks": 384,
            "midi": 58,
            "name": "A#3",
            "ticks": 56070,
            "time": 63.48496546875,
            "velocity": 0.3937007874015748
          },
          {
            "duration": 0.10869550000000316,
            "durationTicks": 96,
            "midi": 85,
            "name": "C#6",
            "ticks": 56070,
            "time": 63.48496546875,
            "velocity": 0.3937007874015748
          },
          {
            "duration": 0.43478200000000555,
            "durationTicks": 384,
            "midi": 54,
            "name": "F#3",
            "ticks": 56070,
            "time": 63.48496546875,
            "velocity": 0.3937007874015748
          },
          {
            "duration": 0.10869550000000316,
            "durationTicks": 96,
            "midi": 27,
            "name": "D#1",
            "ticks": 56070,
            "time": 63.48496546875,
            "velocity": 0.3937007874015748
          },
          {
            "duration": 0.21739099999999922,
            "durationTicks": 192,
            "midi": 34,
            "name": "A#1",
            "ticks": 56070,
            "time": 63.48496546875,
            "velocity": 0.3937007874015748
          },
          {
            "duration": 0.43478200000000555,
            "durationTicks": 384,
            "midi": 63,
            "name": "D#4",
            "ticks": 56070,
            "time": 63.48496546875,
            "velocity": 0.3937007874015748
          },
          {
            "duration": 0.21739099999999922,
            "durationTicks": 192,
            "midi": 66,
            "name": "F#4",
            "ticks": 56070,
            "time": 63.48496546875,
            "velocity": 0.3937007874015748
          },
          {
            "duration": 0.10869549999999606,
            "durationTicks": 96,
            "midi": 70,
            "name": "A#4",
            "ticks": 56166,
            "time": 63.59366096875,
            "velocity": 0.3937007874015748
          },
          {
            "duration": 0.10869549999999606,
            "durationTicks": 96,
            "midi": 51,
            "name": "D#3",
            "ticks": 56166,
            "time": 63.59366096875,
            "velocity": 0.3937007874015748
          },
          {
            "duration": 0.10869549999999606,
            "durationTicks": 96,
            "midi": 39,
            "name": "D#2",
            "ticks": 56166,
            "time": 63.59366096875,
            "velocity": 0.3937007874015748
          },
          {
            "duration": 0.10869549999999606,
            "durationTicks": 96,
            "midi": 85,
            "name": "C#6",
            "ticks": 56166,
            "time": 63.59366096875,
            "velocity": 0.3937007874015748
          },
          {
            "duration": 0.10869550000000316,
            "durationTicks": 96,
            "midi": 49,
            "name": "C#3",
            "ticks": 56262,
            "time": 63.70235646875,
            "velocity": 0.3937007874015748
          },
          {
            "duration": 0.10869550000000316,
            "durationTicks": 96,
            "midi": 75,
            "name": "D#5",
            "ticks": 56262,
            "time": 63.70235646875,
            "velocity": 0.3937007874015748
          },
          {
            "duration": 0.21739100000000633,
            "durationTicks": 192,
            "midi": 68,
            "name": "G#4",
            "ticks": 56262,
            "time": 63.70235646875,
            "velocity": 0.3937007874015748
          },
          {
            "duration": 0.21739100000000633,
            "durationTicks": 192,
            "midi": 80,
            "name": "G#5",
            "ticks": 56262,
            "time": 63.70235646875,
            "velocity": 0.3937007874015748
          },
          {
            "duration": 0.10869550000000316,
            "durationTicks": 96,
            "midi": 37,
            "name": "C#2",
            "ticks": 56262,
            "time": 63.70235646875,
            "velocity": 0.3937007874015748
          },
          {
            "duration": 0.10869550000000316,
            "durationTicks": 96,
            "midi": 84,
            "name": "C6",
            "ticks": 56262,
            "time": 63.70235646875,
            "velocity": 0.3937007874015748
          },
          {
            "duration": 0.10869550000000316,
            "durationTicks": 96,
            "midi": 39,
            "name": "D#2",
            "ticks": 56358,
            "time": 63.81105196875,
            "velocity": 0.3937007874015748
          },
          {
            "duration": 0.10869550000000316,
            "durationTicks": 96,
            "midi": 84,
            "name": "C6",
            "ticks": 56358,
            "time": 63.81105196875,
            "velocity": 0.3937007874015748
          },
          {
            "duration": 0.10869550000000316,
            "durationTicks": 96,
            "midi": 78,
            "name": "F#5",
            "ticks": 56358,
            "time": 63.81105196875,
            "velocity": 0.3937007874015748
          },
          {
            "duration": 0.10869550000000316,
            "durationTicks": 96,
            "midi": 51,
            "name": "D#3",
            "ticks": 56358,
            "time": 63.81105196875,
            "velocity": 0.3937007874015748
          },
          {
            "duration": 0.43478199999999845,
            "durationTicks": 384,
            "midi": 82,
            "name": "A#5",
            "ticks": 56454,
            "time": 63.91974746875,
            "velocity": 0.3937007874015748
          },
          {
            "duration": 0.10869549999999606,
            "durationTicks": 96,
            "midi": 39,
            "name": "D#2",
            "ticks": 56454,
            "time": 63.91974746875,
            "velocity": 0.3937007874015748
          },
          {
            "duration": 0.10869549999999606,
            "durationTicks": 96,
            "midi": 95,
            "name": "B6",
            "ticks": 56454,
            "time": 63.91974746875,
            "velocity": 0.3937007874015748
          },
          {
            "duration": 0.10869549999999606,
            "durationTicks": 96,
            "midi": 27,
            "name": "D#1",
            "ticks": 56454,
            "time": 63.91974746875,
            "velocity": 0.3937007874015748
          },
          {
            "duration": 0.43478199999999845,
            "durationTicks": 384,
            "midi": 70,
            "name": "A#4",
            "ticks": 56454,
            "time": 63.91974746875,
            "velocity": 0.3937007874015748
          },
          {
            "duration": 0.21739099999999212,
            "durationTicks": 192,
            "midi": 54,
            "name": "F#3",
            "ticks": 56454,
            "time": 63.91974746875,
            "velocity": 0.3937007874015748
          },
          {
            "duration": 0.10869549999999606,
            "durationTicks": 96,
            "midi": 51,
            "name": "D#3",
            "ticks": 56454,
            "time": 63.91974746875,
            "velocity": 0.3937007874015748
          },
          {
            "duration": 0.21739099999999212,
            "durationTicks": 192,
            "midi": 34,
            "name": "A#1",
            "ticks": 56454,
            "time": 63.91974746875,
            "velocity": 0.3937007874015748
          },
          {
            "duration": 0.43478199999999845,
            "durationTicks": 384,
            "midi": 63,
            "name": "D#4",
            "ticks": 56454,
            "time": 63.91974746875,
            "velocity": 0.3937007874015748
          },
          {
            "duration": 0.3260865000000024,
            "durationTicks": 288,
            "midi": 58,
            "name": "A#3",
            "ticks": 56454,
            "time": 63.91974746875,
            "velocity": 0.3937007874015748
          },
          {
            "duration": 0.10869549999999606,
            "durationTicks": 96,
            "midi": 95,
            "name": "B6",
            "ticks": 56550,
            "time": 64.02844296875,
            "velocity": 0.3937007874015748
          },
          {
            "duration": 0.3260865000000024,
            "durationTicks": 288,
            "midi": 54,
            "name": "F#3",
            "ticks": 56550,
            "time": 64.02844296875,
            "velocity": 0.3937007874015748
          },
          {
            "duration": 0.10869550000001027,
            "durationTicks": 96,
            "midi": 94,
            "name": "A#6",
            "ticks": 56646,
            "time": 64.13713846875,
            "velocity": 0.3937007874015748
          },
          {
            "duration": 0.21739100000000633,
            "durationTicks": 192,
            "midi": 58,
            "name": "A#3",
            "ticks": 56646,
            "time": 64.13713846875,
            "velocity": 0.3937007874015748
          },
          {
            "duration": 0.10869550000001027,
            "durationTicks": 96,
            "midi": 39,
            "name": "D#2",
            "ticks": 56646,
            "time": 64.13713846875,
            "velocity": 0.3937007874015748
          },
          {
            "duration": 0.10869550000001027,
            "durationTicks": 96,
            "midi": 51,
            "name": "D#3",
            "ticks": 56646,
            "time": 64.13713846875,
            "velocity": 0.3937007874015748
          },
          {
            "duration": 0.10869549999999606,
            "durationTicks": 96,
            "midi": 51,
            "name": "D#3",
            "ticks": 56742,
            "time": 64.24583396875,
            "velocity": 0.3937007874015748
          },
          {
            "duration": 0.10869549999999606,
            "durationTicks": 96,
            "midi": 39,
            "name": "D#2",
            "ticks": 56742,
            "time": 64.24583396875,
            "velocity": 0.3937007874015748
          },
          {
            "duration": 0.10869549999999606,
            "durationTicks": 96,
            "midi": 94,
            "name": "A#6",
            "ticks": 56742,
            "time": 64.24583396875,
            "velocity": 0.3937007874015748
          },
          {
            "duration": 0.10869549999999606,
            "durationTicks": 96,
            "midi": 63,
            "name": "D#4",
            "ticks": 56742,
            "time": 64.24583396875,
            "velocity": 0.3937007874015748
          },
          {
            "duration": 0.43478199999999845,
            "durationTicks": 384,
            "midi": 58,
            "name": "A#3",
            "ticks": 56838,
            "time": 64.35452946875,
            "velocity": 0.3937007874015748
          },
          {
            "duration": 0.21739099999999212,
            "durationTicks": 192,
            "midi": 34,
            "name": "A#1",
            "ticks": 56838,
            "time": 64.35452946875,
            "velocity": 0.3937007874015748
          },
          {
            "duration": 0.10869549999999606,
            "durationTicks": 96,
            "midi": 27,
            "name": "D#1",
            "ticks": 56838,
            "time": 64.35452946875,
            "velocity": 0.3937007874015748
          },
          {
            "duration": 0.43478199999999845,
            "durationTicks": 384,
            "midi": 63,
            "name": "D#4",
            "ticks": 56838,
            "time": 64.35452946875,
            "velocity": 0.3937007874015748
          },
          {
            "duration": 0.10869549999999606,
            "durationTicks": 96,
            "midi": 93,
            "name": "A6",
            "ticks": 56838,
            "time": 64.35452946875,
            "velocity": 0.3937007874015748
          },
          {
            "duration": 0.21739099999999212,
            "durationTicks": 192,
            "midi": 75,
            "name": "D#5",
            "ticks": 56838,
            "time": 64.35452946875,
            "velocity": 0.3937007874015748
          },
          {
            "duration": 0.10869549999999606,
            "durationTicks": 96,
            "midi": 66,
            "name": "F#4",
            "ticks": 56838,
            "time": 64.35452946875,
            "velocity": 0.3937007874015748
          },
          {
            "duration": 0.21739099999999212,
            "durationTicks": 192,
            "midi": 87,
            "name": "D#6",
            "ticks": 56838,
            "time": 64.35452946875,
            "velocity": 0.3937007874015748
          },
          {
            "duration": 0.10869549999999606,
            "durationTicks": 96,
            "midi": 39,
            "name": "D#2",
            "ticks": 56838,
            "time": 64.35452946875,
            "velocity": 0.3937007874015748
          },
          {
            "duration": 0.43478199999999845,
            "durationTicks": 384,
            "midi": 54,
            "name": "F#3",
            "ticks": 56838,
            "time": 64.35452946875,
            "velocity": 0.3937007874015748
          },
          {
            "duration": 0.10869549999999606,
            "durationTicks": 96,
            "midi": 39,
            "name": "D#2",
            "ticks": 56934,
            "time": 64.46322496875,
            "velocity": 0.3937007874015748
          },
          {
            "duration": 0.10869549999999606,
            "durationTicks": 96,
            "midi": 51,
            "name": "D#3",
            "ticks": 56934,
            "time": 64.46322496875,
            "velocity": 0.3937007874015748
          },
          {
            "duration": 0.10869549999999606,
            "durationTicks": 96,
            "midi": 70,
            "name": "A#4",
            "ticks": 56934,
            "time": 64.46322496875,
            "velocity": 0.3937007874015748
          },
          {
            "duration": 0.10869549999999606,
            "durationTicks": 96,
            "midi": 93,
            "name": "A6",
            "ticks": 56934,
            "time": 64.46322496875,
            "velocity": 0.3937007874015748
          },
          {
            "duration": 0.10869550000001027,
            "durationTicks": 96,
            "midi": 92,
            "name": "G#6",
            "ticks": 57030,
            "time": 64.57192046875,
            "velocity": 0.3937007874015748
          },
          {
            "duration": 0.10869550000001027,
            "durationTicks": 96,
            "midi": 49,
            "name": "C#3",
            "ticks": 57030,
            "time": 64.57192046875,
            "velocity": 0.3937007874015748
          },
          {
            "duration": 0.10869550000001027,
            "durationTicks": 96,
            "midi": 75,
            "name": "D#5",
            "ticks": 57030,
            "time": 64.57192046875,
            "velocity": 0.3937007874015748
          },
          {
            "duration": 0.21739100000000633,
            "durationTicks": 192,
            "midi": 73,
            "name": "C#5",
            "ticks": 57030,
            "time": 64.57192046875,
            "velocity": 0.3937007874015748
          },
          {
            "duration": 0.21739100000000633,
            "durationTicks": 192,
            "midi": 85,
            "name": "C#6",
            "ticks": 57030,
            "time": 64.57192046875,
            "velocity": 0.3937007874015748
          },
          {
            "duration": 0.10869550000001027,
            "durationTicks": 96,
            "midi": 37,
            "name": "C#2",
            "ticks": 57030,
            "time": 64.57192046875,
            "velocity": 0.3937007874015748
          },
          {
            "duration": 0.10869549999999606,
            "durationTicks": 96,
            "midi": 39,
            "name": "D#2",
            "ticks": 57126,
            "time": 64.68061596875,
            "velocity": 0.3937007874015748
          },
          {
            "duration": 0.10869549999999606,
            "durationTicks": 96,
            "midi": 51,
            "name": "D#3",
            "ticks": 57126,
            "time": 64.68061596875,
            "velocity": 0.3937007874015748
          },
          {
            "duration": 0.10869549999999606,
            "durationTicks": 96,
            "midi": 92,
            "name": "G#6",
            "ticks": 57126,
            "time": 64.68061596875,
            "velocity": 0.3937007874015748
          },
          {
            "duration": 0.10869549999999606,
            "durationTicks": 96,
            "midi": 78,
            "name": "F#5",
            "ticks": 57126,
            "time": 64.68061596875,
            "velocity": 0.3937007874015748
          },
          {
            "duration": 0.10869549999999606,
            "durationTicks": 96,
            "midi": 91,
            "name": "G6",
            "ticks": 57222,
            "time": 64.78931146875,
            "velocity": 0.3937007874015748
          },
          {
            "duration": 0.3260865000000024,
            "durationTicks": 288,
            "midi": 58,
            "name": "A#3",
            "ticks": 57222,
            "time": 64.78931146875,
            "velocity": 0.3937007874015748
          },
          {
            "duration": 0.10869549999999606,
            "durationTicks": 96,
            "midi": 51,
            "name": "D#3",
            "ticks": 57222,
            "time": 64.78931146875,
            "velocity": 0.3937007874015748
          },
          {
            "duration": 0.10869549999999606,
            "durationTicks": 96,
            "midi": 39,
            "name": "D#2",
            "ticks": 57222,
            "time": 64.78931146875,
            "velocity": 0.3937007874015748
          },
          {
            "duration": 0.21739100000000633,
            "durationTicks": 192,
            "midi": 34,
            "name": "A#1",
            "ticks": 57222,
            "time": 64.78931146875,
            "velocity": 0.3937007874015748
          },
          {
            "duration": 0.43478199999999845,
            "durationTicks": 384,
            "midi": 70,
            "name": "A#4",
            "ticks": 57222,
            "time": 64.78931146875,
            "velocity": 0.3937007874015748
          },
          {
            "duration": 0.10869549999999606,
            "durationTicks": 96,
            "midi": 27,
            "name": "D#1",
            "ticks": 57222,
            "time": 64.78931146875,
            "velocity": 0.3937007874015748
          },
          {
            "duration": 0.43478199999999845,
            "durationTicks": 384,
            "midi": 82,
            "name": "A#5",
            "ticks": 57222,
            "time": 64.78931146875,
            "velocity": 0.3937007874015748
          },
          {
            "duration": 0.43478199999999845,
            "durationTicks": 384,
            "midi": 63,
            "name": "D#4",
            "ticks": 57222,
            "time": 64.78931146875,
            "velocity": 0.3937007874015748
          },
          {
            "duration": 0.21739100000000633,
            "durationTicks": 192,
            "midi": 54,
            "name": "F#3",
            "ticks": 57222,
            "time": 64.78931146875,
            "velocity": 0.3937007874015748
          },
          {
            "duration": 0.10869550000001027,
            "durationTicks": 96,
            "midi": 91,
            "name": "G6",
            "ticks": 57318,
            "time": 64.89800696875,
            "velocity": 0.3937007874015748
          },
          {
            "duration": 0.3260865000000024,
            "durationTicks": 288,
            "midi": 54,
            "name": "F#3",
            "ticks": 57318,
            "time": 64.89800696875,
            "velocity": 0.3937007874015748
          },
          {
            "duration": 0.10869549999999606,
            "durationTicks": 96,
            "midi": 90,
            "name": "F#6",
            "ticks": 57414,
            "time": 65.00670246875,
            "velocity": 0.3937007874015748
          },
          {
            "duration": 0.10869549999999606,
            "durationTicks": 96,
            "midi": 39,
            "name": "D#2",
            "ticks": 57414,
            "time": 65.00670246875,
            "velocity": 0.3937007874015748
          },
          {
            "duration": 0.21739099999999212,
            "durationTicks": 192,
            "midi": 58,
            "name": "A#3",
            "ticks": 57414,
            "time": 65.00670246875,
            "velocity": 0.3937007874015748
          },
          {
            "duration": 0.10869549999999606,
            "durationTicks": 96,
            "midi": 51,
            "name": "D#3",
            "ticks": 57414,
            "time": 65.00670246875,
            "velocity": 0.3937007874015748
          },
          {
            "duration": 0.10869549999999606,
            "durationTicks": 96,
            "midi": 39,
            "name": "D#2",
            "ticks": 57510,
            "time": 65.11539796875,
            "velocity": 0.3937007874015748
          },
          {
            "duration": 0.10869549999999606,
            "durationTicks": 96,
            "midi": 90,
            "name": "F#6",
            "ticks": 57510,
            "time": 65.11539796875,
            "velocity": 0.3937007874015748
          },
          {
            "duration": 0.10869549999999606,
            "durationTicks": 96,
            "midi": 63,
            "name": "D#4",
            "ticks": 57510,
            "time": 65.11539796875,
            "velocity": 0.3937007874015748
          },
          {
            "duration": 0.10869549999999606,
            "durationTicks": 96,
            "midi": 51,
            "name": "D#3",
            "ticks": 57510,
            "time": 65.11539796875,
            "velocity": 0.3937007874015748
          },
          {
            "duration": 0.43478199999999845,
            "durationTicks": 384,
            "midi": 54,
            "name": "F#3",
            "ticks": 57606,
            "time": 65.22409346875,
            "velocity": 0.3937007874015748
          },
          {
            "duration": 0.10869549999999606,
            "durationTicks": 96,
            "midi": 89,
            "name": "F6",
            "ticks": 57606,
            "time": 65.22409346875,
            "velocity": 0.3937007874015748
          },
          {
            "duration": 0.43478199999999845,
            "durationTicks": 384,
            "midi": 63,
            "name": "D#4",
            "ticks": 57606,
            "time": 65.22409346875,
            "velocity": 0.3937007874015748
          },
          {
            "duration": 0.43478199999999845,
            "durationTicks": 384,
            "midi": 63,
            "name": "D#4",
            "ticks": 57606,
            "time": 65.22409346875,
            "velocity": 0.3937007874015748
          },
          {
            "duration": 0.43478199999999845,
            "durationTicks": 384,
            "midi": 58,
            "name": "A#3",
            "ticks": 57606,
            "time": 65.22409346875,
            "velocity": 0.3937007874015748
          },
          {
            "duration": 0.3260865000000024,
            "durationTicks": 288,
            "midi": 75,
            "name": "D#5",
            "ticks": 57606,
            "time": 65.22409346875,
            "velocity": 0.3937007874015748
          },
          {
            "duration": 0.10869549999999606,
            "durationTicks": 96,
            "midi": 66,
            "name": "F#4",
            "ticks": 57606,
            "time": 65.22409346875,
            "velocity": 0.3937007874015748
          },
          {
            "duration": 0.10869549999999606,
            "durationTicks": 96,
            "midi": 39,
            "name": "D#2",
            "ticks": 57606,
            "time": 65.22409346875,
            "velocity": 0.3937007874015748
          },
          {
            "duration": 0.10869549999999606,
            "durationTicks": 96,
            "midi": 27,
            "name": "D#1",
            "ticks": 57606,
            "time": 65.22409346875,
            "velocity": 0.3937007874015748
          },
          {
            "duration": 0.21739100000000633,
            "durationTicks": 192,
            "midi": 34,
            "name": "A#1",
            "ticks": 57606,
            "time": 65.22409346875,
            "velocity": 0.3937007874015748
          },
          {
            "duration": 0.10869550000001027,
            "durationTicks": 96,
            "midi": 39,
            "name": "D#2",
            "ticks": 57702,
            "time": 65.33278896875,
            "velocity": 0.3937007874015748
          },
          {
            "duration": 0.10869550000001027,
            "durationTicks": 96,
            "midi": 51,
            "name": "D#3",
            "ticks": 57702,
            "time": 65.33278896875,
            "velocity": 0.3937007874015748
          },
          {
            "duration": 0.10869550000001027,
            "durationTicks": 96,
            "midi": 70,
            "name": "A#4",
            "ticks": 57702,
            "time": 65.33278896875,
            "velocity": 0.3937007874015748
          },
          {
            "duration": 0.10869550000001027,
            "durationTicks": 96,
            "midi": 89,
            "name": "F6",
            "ticks": 57702,
            "time": 65.33278896875,
            "velocity": 0.3937007874015748
          },
          {
            "duration": 0.21739099999999212,
            "durationTicks": 192,
            "midi": 75,
            "name": "D#5",
            "ticks": 57798,
            "time": 65.44148446875,
            "velocity": 0.3937007874015748
          },
          {
            "duration": 0.10869549999999606,
            "durationTicks": 96,
            "midi": 88,
            "name": "E6",
            "ticks": 57798,
            "time": 65.44148446875,
            "velocity": 0.3937007874015748
          },
          {
            "duration": 0.10869549999999606,
            "durationTicks": 96,
            "midi": 37,
            "name": "C#2",
            "ticks": 57798,
            "time": 65.44148446875,
            "velocity": 0.3937007874015748
          },
          {
            "duration": 0.10869549999999606,
            "durationTicks": 96,
            "midi": 49,
            "name": "C#3",
            "ticks": 57798,
            "time": 65.44148446875,
            "velocity": 0.3937007874015748
          },
          {
            "duration": 0.10869549999999606,
            "durationTicks": 96,
            "midi": 51,
            "name": "D#3",
            "ticks": 57894,
            "time": 65.55017996875,
            "velocity": 0.3937007874015748
          },
          {
            "duration": 0.10869549999999606,
            "durationTicks": 96,
            "midi": 88,
            "name": "E6",
            "ticks": 57894,
            "time": 65.55017996875,
            "velocity": 0.3937007874015748
          },
          {
            "duration": 0.10869549999999606,
            "durationTicks": 96,
            "midi": 39,
            "name": "D#2",
            "ticks": 57894,
            "time": 65.55017996875,
            "velocity": 0.3937007874015748
          },
          {
            "duration": 0.10869549999999606,
            "durationTicks": 96,
            "midi": 78,
            "name": "F#5",
            "ticks": 57894,
            "time": 65.55017996875,
            "velocity": 0.3937007874015748
          },
          {
            "duration": 0.10869549999999606,
            "durationTicks": 96,
            "midi": 54,
            "name": "F#3",
            "ticks": 57990,
            "time": 65.65887546875,
            "velocity": 0.3937007874015748
          },
          {
            "duration": 0.21739100000000633,
            "durationTicks": 192,
            "midi": 54,
            "name": "F#3",
            "ticks": 57990,
            "time": 65.65887546875,
            "velocity": 0.3937007874015748
          },
          {
            "duration": 0.21739100000000633,
            "durationTicks": 192,
            "midi": 70,
            "name": "A#4",
            "ticks": 57990,
            "time": 65.65887546875,
            "velocity": 0.3937007874015748
          },
          {
            "duration": 0.43478199999999845,
            "durationTicks": 384,
            "midi": 63,
            "name": "D#4",
            "ticks": 57990,
            "time": 65.65887546875,
            "velocity": 0.3937007874015748
          },
          {
            "duration": 0.21739100000000633,
            "durationTicks": 192,
            "midi": 82,
            "name": "A#5",
            "ticks": 57990,
            "time": 65.65887546875,
            "velocity": 0.3937007874015748
          },
          {
            "duration": 0.3260865000000024,
            "durationTicks": 288,
            "midi": 58,
            "name": "A#3",
            "ticks": 57990,
            "time": 65.65887546875,
            "velocity": 0.3937007874015748
          },
          {
            "duration": 0.10869549999999606,
            "durationTicks": 96,
            "midi": 51,
            "name": "D#3",
            "ticks": 57990,
            "time": 65.65887546875,
            "velocity": 0.3937007874015748
          },
          {
            "duration": 0.10869549999999606,
            "durationTicks": 96,
            "midi": 42,
            "name": "F#2",
            "ticks": 57990,
            "time": 65.65887546875,
            "velocity": 0.3937007874015748
          },
          {
            "duration": 0.21739100000000633,
            "durationTicks": 192,
            "midi": 34,
            "name": "A#1",
            "ticks": 57990,
            "time": 65.65887546875,
            "velocity": 0.3937007874015748
          },
          {
            "duration": 0.10869549999999606,
            "durationTicks": 96,
            "midi": 87,
            "name": "D#6",
            "ticks": 57990,
            "time": 65.65887546875,
            "velocity": 0.3937007874015748
          },
          {
            "duration": 0.3260865000000024,
            "durationTicks": 288,
            "midi": 54,
            "name": "F#3",
            "ticks": 58086,
            "time": 65.76757096875,
            "velocity": 0.3937007874015748
          },
          {
            "duration": 0.10869550000001027,
            "durationTicks": 96,
            "midi": 87,
            "name": "D#6",
            "ticks": 58086,
            "time": 65.76757096875,
            "velocity": 0.3937007874015748
          },
          {
            "duration": 0.21739099999999212,
            "durationTicks": 192,
            "midi": 80,
            "name": "G#5",
            "ticks": 58182,
            "time": 65.87626646875,
            "velocity": 0.3937007874015748
          },
          {
            "duration": 0.21739099999999212,
            "durationTicks": 192,
            "midi": 58,
            "name": "A#3",
            "ticks": 58182,
            "time": 65.87626646875,
            "velocity": 0.3937007874015748
          },
          {
            "duration": 0.10869549999999606,
            "durationTicks": 96,
            "midi": 51,
            "name": "D#3",
            "ticks": 58182,
            "time": 65.87626646875,
            "velocity": 0.3937007874015748
          },
          {
            "duration": 0.21739099999999212,
            "durationTicks": 192,
            "midi": 68,
            "name": "G#4",
            "ticks": 58182,
            "time": 65.87626646875,
            "velocity": 0.3937007874015748
          },
          {
            "duration": 0.10869549999999606,
            "durationTicks": 96,
            "midi": 86,
            "name": "D6",
            "ticks": 58182,
            "time": 65.87626646875,
            "velocity": 0.3937007874015748
          },
          {
            "duration": 0.10869549999999606,
            "durationTicks": 96,
            "midi": 39,
            "name": "D#2",
            "ticks": 58182,
            "time": 65.87626646875,
            "velocity": 0.3937007874015748
          },
          {
            "duration": 0.10869549999999606,
            "durationTicks": 96,
            "midi": 54,
            "name": "F#3",
            "ticks": 58278,
            "time": 65.98496196875,
            "velocity": 0.3937007874015748
          },
          {
            "duration": 0.10869549999999606,
            "durationTicks": 96,
            "midi": 86,
            "name": "D6",
            "ticks": 58278,
            "time": 65.98496196875,
            "velocity": 0.3937007874015748
          },
          {
            "duration": 0.10869549999999606,
            "durationTicks": 96,
            "midi": 42,
            "name": "F#2",
            "ticks": 58278,
            "time": 65.98496196875,
            "velocity": 0.3937007874015748
          },
          {
            "duration": 0.10869549999999606,
            "durationTicks": 96,
            "midi": 63,
            "name": "D#4",
            "ticks": 58278,
            "time": 65.98496196875,
            "velocity": 0.3937007874015748
          },
          {
            "duration": 0.10869550000001027,
            "durationTicks": 96,
            "midi": 66,
            "name": "F#4",
            "ticks": 58374,
            "time": 66.09365746875,
            "velocity": 0.3937007874015748
          },
          {
            "duration": 0.21739100000000633,
            "durationTicks": 192,
            "midi": 78,
            "name": "F#5",
            "ticks": 58374,
            "time": 66.09365746875,
            "velocity": 0.3937007874015748
          },
          {
            "duration": 0.43478199999999845,
            "durationTicks": 384,
            "midi": 58,
            "name": "A#3",
            "ticks": 58374,
            "time": 66.09365746875,
            "velocity": 0.3937007874015748
          },
          {
            "duration": 0.10869550000001027,
            "durationTicks": 96,
            "midi": 44,
            "name": "G#2",
            "ticks": 58374,
            "time": 66.09365746875,
            "velocity": 0.3937007874015748
          },
          {
            "duration": 0.10869550000001027,
            "durationTicks": 96,
            "midi": 56,
            "name": "G#3",
            "ticks": 58374,
            "time": 66.09365746875,
            "velocity": 0.3937007874015748
          },
          {
            "duration": 0.43478199999999845,
            "durationTicks": 384,
            "midi": 63,
            "name": "D#4",
            "ticks": 58374,
            "time": 66.09365746875,
            "velocity": 0.3937007874015748
          },
          {
            "duration": 0.21739100000000633,
            "durationTicks": 192,
            "midi": 66,
            "name": "F#4",
            "ticks": 58374,
            "time": 66.09365746875,
            "velocity": 0.3937007874015748
          },
          {
            "duration": 0.21739100000000633,
            "durationTicks": 192,
            "midi": 34,
            "name": "A#1",
            "ticks": 58374,
            "time": 66.09365746875,
            "velocity": 0.3937007874015748
          },
          {
            "duration": 0.3260865000000024,
            "durationTicks": 288,
            "midi": 54,
            "name": "F#3",
            "ticks": 58374,
            "time": 66.09365746875,
            "velocity": 0.3937007874015748
          },
          {
            "duration": 0.10869550000001027,
            "durationTicks": 96,
            "midi": 85,
            "name": "C#6",
            "ticks": 58374,
            "time": 66.09365746875,
            "velocity": 0.3937007874015748
          },
          {
            "duration": 0.10869549999999606,
            "durationTicks": 96,
            "midi": 85,
            "name": "C#6",
            "ticks": 58470,
            "time": 66.20235296875,
            "velocity": 0.3937007874015748
          },
          {
            "duration": 0.10869549999999606,
            "durationTicks": 96,
            "midi": 70,
            "name": "A#4",
            "ticks": 58470,
            "time": 66.20235296875,
            "velocity": 0.3937007874015748
          },
          {
            "duration": 0.21739099999999212,
            "durationTicks": 192,
            "midi": 34,
            "name": "A#1",
            "ticks": 58566,
            "time": 66.31104846875,
            "velocity": 0.3937007874015748
          },
          {
            "duration": 0.10869549999999606,
            "durationTicks": 96,
            "midi": 42,
            "name": "F#2",
            "ticks": 58566,
            "time": 66.31104846875,
            "velocity": 0.3937007874015748
          },
          {
            "duration": 0.10869549999999606,
            "durationTicks": 96,
            "midi": 75,
            "name": "D#5",
            "ticks": 58566,
            "time": 66.31104846875,
            "velocity": 0.3937007874015748
          },
          {
            "duration": 0.21739099999999212,
            "durationTicks": 192,
            "midi": 54,
            "name": "F#3",
            "ticks": 58566,
            "time": 66.31104846875,
            "velocity": 0.3937007874015748
          },
          {
            "duration": 0.10869549999999606,
            "durationTicks": 96,
            "midi": 84,
            "name": "C6",
            "ticks": 58566,
            "time": 66.31104846875,
            "velocity": 0.3937007874015748
          },
          {
            "duration": 0.21739099999999212,
            "durationTicks": 192,
            "midi": 77,
            "name": "F5",
            "ticks": 58566,
            "time": 66.31104846875,
            "velocity": 0.3937007874015748
          },
          {
            "duration": 0.21739099999999212,
            "durationTicks": 192,
            "midi": 65,
            "name": "F4",
            "ticks": 58566,
            "time": 66.31104846875,
            "velocity": 0.3937007874015748
          },
          {
            "duration": 0.10869549999999606,
            "durationTicks": 96,
            "midi": 84,
            "name": "C6",
            "ticks": 58662,
            "time": 66.41974396875,
            "velocity": 0.3937007874015748
          },
          {
            "duration": 0.10869549999999606,
            "durationTicks": 96,
            "midi": 56,
            "name": "G#3",
            "ticks": 58662,
            "time": 66.41974396875,
            "velocity": 0.3937007874015748
          },
          {
            "duration": 0.10869549999999606,
            "durationTicks": 96,
            "midi": 44,
            "name": "G#2",
            "ticks": 58662,
            "time": 66.41974396875,
            "velocity": 0.3937007874015748
          },
          {
            "duration": 0.10869549999999606,
            "durationTicks": 96,
            "midi": 78,
            "name": "F#5",
            "ticks": 58662,
            "time": 66.41974396875,
            "velocity": 0.3937007874015748
          },
          {
            "duration": 0.3260865000000024,
            "durationTicks": 288,
            "midi": 59,
            "name": "B3",
            "ticks": 58758,
            "time": 66.52843946875,
            "velocity": 0.3937007874015748
          },
          {
            "duration": 0.10869550000001027,
            "durationTicks": 96,
            "midi": 83,
            "name": "B5",
            "ticks": 58758,
            "time": 66.52843946875,
            "velocity": 0.3937007874015748
          },
          {
            "duration": 0.21739100000000633,
            "durationTicks": 192,
            "midi": 34,
            "name": "A#1",
            "ticks": 58758,
            "time": 66.52843946875,
            "velocity": 0.3937007874015748
          },
          {
            "duration": 0.21739100000000633,
            "durationTicks": 192,
            "midi": 63,
            "name": "D#4",
            "ticks": 58758,
            "time": 66.52843946875,
            "velocity": 0.3937007874015748
          },
          {
            "duration": 0.10869550000001027,
            "durationTicks": 96,
            "midi": 51,
            "name": "D#3",
            "ticks": 58758,
            "time": 66.52843946875,
            "velocity": 0.3937007874015748
          },
          {
            "duration": 0.21739100000000633,
            "durationTicks": 192,
            "midi": 75,
            "name": "D#5",
            "ticks": 58758,
            "time": 66.52843946875,
            "velocity": 0.3937007874015748
          },
          {
            "duration": 0.43478200000001266,
            "durationTicks": 384,
            "midi": 63,
            "name": "D#4",
            "ticks": 58758,
            "time": 66.52843946875,
            "velocity": 0.3937007874015748
          },
          {
            "duration": 0.21739100000000633,
            "durationTicks": 192,
            "midi": 54,
            "name": "F#3",
            "ticks": 58758,
            "time": 66.52843946875,
            "velocity": 0.3937007874015748
          },
          {
            "duration": 0.10869550000001027,
            "durationTicks": 96,
            "midi": 35,
            "name": "B1",
            "ticks": 58758,
            "time": 66.52843946875,
            "velocity": 0.3937007874015748
          },
          {
            "duration": 0.10869550000001027,
            "durationTicks": 96,
            "midi": 35,
            "name": "B1",
            "ticks": 58758,
            "time": 66.52843946875,
            "velocity": 0.3937007874015748
          },
          {
            "duration": 0.10869549999999606,
            "durationTicks": 96,
            "midi": 83,
            "name": "B5",
            "ticks": 58854,
            "time": 66.63713496875,
            "velocity": 0.3937007874015748
          },
          {
            "duration": 0.3260865000000024,
            "durationTicks": 288,
            "midi": 54,
            "name": "F#3",
            "ticks": 58854,
            "time": 66.63713496875,
            "velocity": 0.3937007874015748
          },
          {
            "duration": 0.21739100000000633,
            "durationTicks": 192,
            "midi": 59,
            "name": "B3",
            "ticks": 58950,
            "time": 66.74583046875,
            "velocity": 0.3937007874015748
          },
          {
            "duration": 0.10869549999999606,
            "durationTicks": 96,
            "midi": 47,
            "name": "B2",
            "ticks": 58950,
            "time": 66.74583046875,
            "velocity": 0.3937007874015748
          },
          {
            "duration": 0.10869549999999606,
            "durationTicks": 96,
            "midi": 82,
            "name": "A#5",
            "ticks": 58950,
            "time": 66.74583046875,
            "velocity": 0.3937007874015748
          },
          {
            "duration": 0.21739100000000633,
            "durationTicks": 192,
            "midi": 65,
            "name": "F4",
            "ticks": 58950,
            "time": 66.74583046875,
            "velocity": 0.3937007874015748
          },
          {
            "duration": 0.10869549999999606,
            "durationTicks": 96,
            "midi": 35,
            "name": "B1",
            "ticks": 58950,
            "time": 66.74583046875,
            "velocity": 0.3937007874015748
          },
          {
            "duration": 0.21739100000000633,
            "durationTicks": 192,
            "midi": 77,
            "name": "F5",
            "ticks": 58950,
            "time": 66.74583046875,
            "velocity": 0.3937007874015748
          },
          {
            "duration": 0.10869550000001027,
            "durationTicks": 96,
            "midi": 82,
            "name": "A#5",
            "ticks": 59046,
            "time": 66.85452596875,
            "velocity": 0.3937007874015748
          },
          {
            "duration": 0.10869550000001027,
            "durationTicks": 96,
            "midi": 47,
            "name": "B2",
            "ticks": 59046,
            "time": 66.85452596875,
            "velocity": 0.3937007874015748
          },
          {
            "duration": 0.10869550000001027,
            "durationTicks": 96,
            "midi": 35,
            "name": "B1",
            "ticks": 59046,
            "time": 66.85452596875,
            "velocity": 0.3937007874015748
          },
          {
            "duration": 0.10869550000001027,
            "durationTicks": 96,
            "midi": 63,
            "name": "D#4",
            "ticks": 59046,
            "time": 66.85452596875,
            "velocity": 0.3937007874015748
          },
          {
            "duration": 0.43478199999999845,
            "durationTicks": 384,
            "midi": 54,
            "name": "F#3",
            "ticks": 59142,
            "time": 66.96322146875,
            "velocity": 0.3937007874015748
          },
          {
            "duration": 0.10869549999999606,
            "durationTicks": 96,
            "midi": 81,
            "name": "A5",
            "ticks": 59142,
            "time": 66.96322146875,
            "velocity": 0.3937007874015748
          },
          {
            "duration": 0.10869549999999606,
            "durationTicks": 96,
            "midi": 35,
            "name": "B1",
            "ticks": 59142,
            "time": 66.96322146875,
            "velocity": 0.3937007874015748
          },
          {
            "duration": 0.21739099999999212,
            "durationTicks": 192,
            "midi": 34,
            "name": "A#1",
            "ticks": 59142,
            "time": 66.96322146875,
            "velocity": 0.3937007874015748
          },
          {
            "duration": 0.10869549999999606,
            "durationTicks": 96,
            "midi": 66,
            "name": "F#4",
            "ticks": 59142,
            "time": 66.96322146875,
            "velocity": 0.3937007874015748
          },
          {
            "duration": 0.21739099999999212,
            "durationTicks": 192,
            "midi": 78,
            "name": "F#5",
            "ticks": 59142,
            "time": 66.96322146875,
            "velocity": 0.3937007874015748
          },
          {
            "duration": 0.43478199999999845,
            "durationTicks": 384,
            "midi": 63,
            "name": "D#4",
            "ticks": 59142,
            "time": 66.96322146875,
            "velocity": 0.3937007874015748
          },
          {
            "duration": 0.21739099999999212,
            "durationTicks": 192,
            "midi": 66,
            "name": "F#4",
            "ticks": 59142,
            "time": 66.96322146875,
            "velocity": 0.3937007874015748
          },
          {
            "duration": 0.43478199999999845,
            "durationTicks": 384,
            "midi": 59,
            "name": "B3",
            "ticks": 59142,
            "time": 66.96322146875,
            "velocity": 0.3937007874015748
          },
          {
            "duration": 0.10869549999999606,
            "durationTicks": 96,
            "midi": 35,
            "name": "B1",
            "ticks": 59142,
            "time": 66.96322146875,
            "velocity": 0.3937007874015748
          },
          {
            "duration": 0.10869549999999606,
            "durationTicks": 96,
            "midi": 71,
            "name": "B4",
            "ticks": 59238,
            "time": 67.07191696875,
            "velocity": 0.3937007874015748
          },
          {
            "duration": 0.10869549999999606,
            "durationTicks": 96,
            "midi": 35,
            "name": "B1",
            "ticks": 59238,
            "time": 67.07191696875,
            "velocity": 0.3937007874015748
          },
          {
            "duration": 0.10869549999999606,
            "durationTicks": 96,
            "midi": 47,
            "name": "B2",
            "ticks": 59238,
            "time": 67.07191696875,
            "velocity": 0.3937007874015748
          },
          {
            "duration": 0.10869549999999606,
            "durationTicks": 96,
            "midi": 81,
            "name": "A5",
            "ticks": 59238,
            "time": 67.07191696875,
            "velocity": 0.3937007874015748
          },
          {
            "duration": 0.10869549999999606,
            "durationTicks": 96,
            "midi": 34,
            "name": "A#1",
            "ticks": 59334,
            "time": 67.18061246875,
            "velocity": 0.3937007874015748
          },
          {
            "duration": 0.10869549999999606,
            "durationTicks": 96,
            "midi": 80,
            "name": "G#5",
            "ticks": 59334,
            "time": 67.18061246875,
            "velocity": 0.3937007874015748
          },
          {
            "duration": 0.10869549999999606,
            "durationTicks": 96,
            "midi": 46,
            "name": "A#2",
            "ticks": 59334,
            "time": 67.18061246875,
            "velocity": 0.3937007874015748
          },
          {
            "duration": 0.10869549999999606,
            "durationTicks": 96,
            "midi": 75,
            "name": "D#5",
            "ticks": 59334,
            "time": 67.18061246875,
            "velocity": 0.3937007874015748
          },
          {
            "duration": 0.21739100000000633,
            "durationTicks": 192,
            "midi": 68,
            "name": "G#4",
            "ticks": 59334,
            "time": 67.18061246875,
            "velocity": 0.3937007874015748
          },
          {
            "duration": 0.21739100000000633,
            "durationTicks": 192,
            "midi": 80,
            "name": "G#5",
            "ticks": 59334,
            "time": 67.18061246875,
            "velocity": 0.3937007874015748
          },
          {
            "duration": 0.10869550000001027,
            "durationTicks": 96,
            "midi": 35,
            "name": "B1",
            "ticks": 59430,
            "time": 67.28930796875,
            "velocity": 0.3937007874015748
          },
          {
            "duration": 0.10869550000001027,
            "durationTicks": 96,
            "midi": 80,
            "name": "G#5",
            "ticks": 59430,
            "time": 67.28930796875,
            "velocity": 0.3937007874015748
          },
          {
            "duration": 0.10869550000001027,
            "durationTicks": 96,
            "midi": 47,
            "name": "B2",
            "ticks": 59430,
            "time": 67.28930796875,
            "velocity": 0.3937007874015748
          },
          {
            "duration": 0.10869550000001027,
            "durationTicks": 96,
            "midi": 78,
            "name": "F#5",
            "ticks": 59430,
            "time": 67.28930796875,
            "velocity": 0.3937007874015748
          },
          {
            "duration": 0.21739099999999212,
            "durationTicks": 192,
            "midi": 70,
            "name": "A#4",
            "ticks": 59526,
            "time": 67.39800346875,
            "velocity": 0.3937007874015748
          },
          {
            "duration": 0.21739099999999212,
            "durationTicks": 192,
            "midi": 82,
            "name": "A#5",
            "ticks": 59526,
            "time": 67.39800346875,
            "velocity": 0.3937007874015748
          },
          {
            "duration": 0.10869549999999606,
            "durationTicks": 96,
            "midi": 79,
            "name": "G5",
            "ticks": 59526,
            "time": 67.39800346875,
            "velocity": 0.3937007874015748
          },
          {
            "duration": 0.10869549999999606,
            "durationTicks": 96,
            "midi": 35,
            "name": "B1",
            "ticks": 59526,
            "time": 67.39800346875,
            "velocity": 0.3937007874015748
          },
          {
            "duration": 0.3260864999999882,
            "durationTicks": 288,
            "midi": 59,
            "name": "B3",
            "ticks": 59526,
            "time": 67.39800346875,
            "velocity": 0.3937007874015748
          },
          {
            "duration": 0.10869549999999606,
            "durationTicks": 96,
            "midi": 51,
            "name": "D#3",
            "ticks": 59526,
            "time": 67.39800346875,
            "velocity": 0.3937007874015748
          },
          {
            "duration": 0.21739099999999212,
            "durationTicks": 192,
            "midi": 34,
            "name": "A#1",
            "ticks": 59526,
            "time": 67.39800346875,
            "velocity": 0.3937007874015748
          },
          {
            "duration": 0.43478199999999845,
            "durationTicks": 384,
            "midi": 63,
            "name": "D#4",
            "ticks": 59526,
            "time": 67.39800346875,
            "velocity": 0.3937007874015748
          },
          {
            "duration": 0.21739099999999212,
            "durationTicks": 192,
            "midi": 54,
            "name": "F#3",
            "ticks": 59526,
            "time": 67.39800346875,
            "velocity": 0.3937007874015748
          },
          {
            "duration": 0.10869549999999606,
            "durationTicks": 96,
            "midi": 35,
            "name": "B1",
            "ticks": 59526,
            "time": 67.39800346875,
            "velocity": 0.3937007874015748
          },
          {
            "duration": 0.10869549999999606,
            "durationTicks": 96,
            "midi": 79,
            "name": "G5",
            "ticks": 59622,
            "time": 67.50669896875,
            "velocity": 0.3937007874015748
          },
          {
            "duration": 0.3260865000000024,
            "durationTicks": 288,
            "midi": 54,
            "name": "F#3",
            "ticks": 59622,
            "time": 67.50669896875,
            "velocity": 0.3937007874015748
          },
          {
            "duration": 0.10869549999999606,
            "durationTicks": 96,
            "midi": 47,
            "name": "B2",
            "ticks": 59718,
            "time": 67.61539446875,
            "velocity": 0.3937007874015748
          },
          {
            "duration": 0.10869549999999606,
            "durationTicks": 96,
            "midi": 78,
            "name": "F#5",
            "ticks": 59718,
            "time": 67.61539446875,
            "velocity": 0.3937007874015748
          },
          {
            "duration": 0.21739100000000633,
            "durationTicks": 192,
            "midi": 59,
            "name": "B3",
            "ticks": 59718,
            "time": 67.61539446875,
            "velocity": 0.3937007874015748
          },
          {
            "duration": 0.10869549999999606,
            "durationTicks": 96,
            "midi": 35,
            "name": "B1",
            "ticks": 59718,
            "time": 67.61539446875,
            "velocity": 0.3937007874015748
          },
          {
            "duration": 0.10869550000001027,
            "durationTicks": 96,
            "midi": 47,
            "name": "B2",
            "ticks": 59814,
            "time": 67.72408996875,
            "velocity": 0.3937007874015748
          },
          {
            "duration": 0.10869550000001027,
            "durationTicks": 96,
            "midi": 63,
            "name": "D#4",
            "ticks": 59814,
            "time": 67.72408996875,
            "velocity": 0.3937007874015748
          },
          {
            "duration": 0.10869550000001027,
            "durationTicks": 96,
            "midi": 35,
            "name": "B1",
            "ticks": 59814,
            "time": 67.72408996875,
            "velocity": 0.3937007874015748
          },
          {
            "duration": 0.10869550000001027,
            "durationTicks": 96,
            "midi": 78,
            "name": "F#5",
            "ticks": 59814,
            "time": 67.72408996875,
            "velocity": 0.3937007874015748
          },
          {
            "duration": 0.10869549999999606,
            "durationTicks": 96,
            "midi": 35,
            "name": "B1",
            "ticks": 59910,
            "time": 67.83278546875,
            "velocity": 0.3937007874015748
          },
          {
            "duration": 0.10869549999999606,
            "durationTicks": 96,
            "midi": 66,
            "name": "F#4",
            "ticks": 59910,
            "time": 67.83278546875,
            "velocity": 0.3937007874015748
          },
          {
            "duration": 0.10869549999999606,
            "durationTicks": 96,
            "midi": 77,
            "name": "F5",
            "ticks": 59910,
            "time": 67.83278546875,
            "velocity": 0.3937007874015748
          },
          {
            "duration": 0.21739099999999212,
            "durationTicks": 192,
            "midi": 34,
            "name": "A#1",
            "ticks": 59910,
            "time": 67.83278546875,
            "velocity": 0.3937007874015748
          },
          {
            "duration": 0.21739099999999212,
            "durationTicks": 192,
            "midi": 68,
            "name": "G#4",
            "ticks": 59910,
            "time": 67.83278546875,
            "velocity": 0.3937007874015748
          },
          {
            "duration": 0.10869549999999606,
            "durationTicks": 96,
            "midi": 35,
            "name": "B1",
            "ticks": 59910,
            "time": 67.83278546875,
            "velocity": 0.3937007874015748
          },
          {
            "duration": 0.43478199999999845,
            "durationTicks": 384,
            "midi": 59,
            "name": "B3",
            "ticks": 59910,
            "time": 67.83278546875,
            "velocity": 0.3937007874015748
          },
          {
            "duration": 0.43478199999999845,
            "durationTicks": 384,
            "midi": 54,
            "name": "F#3",
            "ticks": 59910,
            "time": 67.83278546875,
            "velocity": 0.3937007874015748
          },
          {
            "duration": 0.21739099999999212,
            "durationTicks": 192,
            "midi": 80,
            "name": "G#5",
            "ticks": 59910,
            "time": 67.83278546875,
            "velocity": 0.3937007874015748
          },
          {
            "duration": 0.43478199999999845,
            "durationTicks": 384,
            "midi": 63,
            "name": "D#4",
            "ticks": 59910,
            "time": 67.83278546875,
            "velocity": 0.3937007874015748
          },
          {
            "duration": 0.10869549999999606,
            "durationTicks": 96,
            "midi": 71,
            "name": "B4",
            "ticks": 60006,
            "time": 67.94148096875,
            "velocity": 0.3937007874015748
          },
          {
            "duration": 0.10869549999999606,
            "durationTicks": 96,
            "midi": 35,
            "name": "B1",
            "ticks": 60006,
            "time": 67.94148096875,
            "velocity": 0.3937007874015748
          },
          {
            "duration": 0.10869549999999606,
            "durationTicks": 96,
            "midi": 47,
            "name": "B2",
            "ticks": 60006,
            "time": 67.94148096875,
            "velocity": 0.3937007874015748
          },
          {
            "duration": 0.10869549999999606,
            "durationTicks": 96,
            "midi": 77,
            "name": "F5",
            "ticks": 60006,
            "time": 67.94148096875,
            "velocity": 0.3937007874015748
          },
          {
            "duration": 0.10869550000001027,
            "durationTicks": 96,
            "midi": 76,
            "name": "E5",
            "ticks": 60102,
            "time": 68.05017646875,
            "velocity": 0.3937007874015748
          },
          {
            "duration": 0.10869550000001027,
            "durationTicks": 96,
            "midi": 75,
            "name": "D#5",
            "ticks": 60102,
            "time": 68.05017646875,
            "velocity": 0.3937007874015748
          },
          {
            "duration": 0.10869550000001027,
            "durationTicks": 96,
            "midi": 46,
            "name": "A#2",
            "ticks": 60102,
            "time": 68.05017646875,
            "velocity": 0.3937007874015748
          },
          {
            "duration": 0.21739100000000633,
            "durationTicks": 192,
            "midi": 66,
            "name": "F#4",
            "ticks": 60102,
            "time": 68.05017646875,
            "velocity": 0.3937007874015748
          },
          {
            "duration": 0.21739100000000633,
            "durationTicks": 192,
            "midi": 78,
            "name": "F#5",
            "ticks": 60102,
            "time": 68.05017646875,
            "velocity": 0.3937007874015748
          },
          {
            "duration": 0.10869550000001027,
            "durationTicks": 96,
            "midi": 34,
            "name": "A#1",
            "ticks": 60102,
            "time": 68.05017646875,
            "velocity": 0.3937007874015748
          },
          {
            "duration": 0.10869549999999606,
            "durationTicks": 96,
            "midi": 78,
            "name": "F#5",
            "ticks": 60198,
            "time": 68.15887196875,
            "velocity": 0.3937007874015748
          },
          {
            "duration": 0.10869549999999606,
            "durationTicks": 96,
            "midi": 76,
            "name": "E5",
            "ticks": 60198,
            "time": 68.15887196875,
            "velocity": 0.3937007874015748
          },
          {
            "duration": 0.10869549999999606,
            "durationTicks": 96,
            "midi": 47,
            "name": "B2",
            "ticks": 60198,
            "time": 68.15887196875,
            "velocity": 0.3937007874015748
          },
          {
            "duration": 0.10869549999999606,
            "durationTicks": 96,
            "midi": 35,
            "name": "B1",
            "ticks": 60198,
            "time": 68.15887196875,
            "velocity": 0.3937007874015748
          },
          {
            "duration": 0.43478199999999845,
            "durationTicks": 384,
            "midi": 61,
            "name": "C#4",
            "ticks": 60294,
            "time": 68.26756746875,
            "velocity": 0.3937007874015748
          },
          {
            "duration": 0.21739099999999212,
            "durationTicks": 192,
            "midi": 65,
            "name": "F4",
            "ticks": 60294,
            "time": 68.26756746875,
            "velocity": 0.3937007874015748
          },
          {
            "duration": 0.21739099999999212,
            "durationTicks": 192,
            "midi": 34,
            "name": "A#1",
            "ticks": 60294,
            "time": 68.26756746875,
            "velocity": 0.3937007874015748
          },
          {
            "duration": 0.3260865000000024,
            "durationTicks": 288,
            "midi": 56,
            "name": "G#3",
            "ticks": 60294,
            "time": 68.26756746875,
            "velocity": 0.3937007874015748
          },
          {
            "duration": 0.21739099999999212,
            "durationTicks": 192,
            "midi": 77,
            "name": "F5",
            "ticks": 60294,
            "time": 68.26756746875,
            "velocity": 0.3937007874015748
          },
          {
            "duration": 0.10869549999999606,
            "durationTicks": 96,
            "midi": 49,
            "name": "C#3",
            "ticks": 60294,
            "time": 68.26756746875,
            "velocity": 0.3937007874015748
          },
          {
            "duration": 0.10869549999999606,
            "durationTicks": 96,
            "midi": 37,
            "name": "C#2",
            "ticks": 60294,
            "time": 68.26756746875,
            "velocity": 0.3937007874015748
          },
          {
            "duration": 0.21739099999999212,
            "durationTicks": 192,
            "midi": 53,
            "name": "F3",
            "ticks": 60294,
            "time": 68.26756746875,
            "velocity": 0.3937007874015748
          },
          {
            "duration": 0.10869549999999606,
            "durationTicks": 96,
            "midi": 75,
            "name": "D#5",
            "ticks": 60294,
            "time": 68.26756746875,
            "velocity": 0.3937007874015748
          },
          {
            "duration": 0.10869549999999606,
            "durationTicks": 96,
            "midi": 25,
            "name": "C#1",
            "ticks": 60294,
            "time": 68.26756746875,
            "velocity": 0.3937007874015748
          },
          {
            "duration": 0.3260865000000024,
            "durationTicks": 288,
            "midi": 53,
            "name": "F3",
            "ticks": 60390,
            "time": 68.37626296875,
            "velocity": 0.3937007874015748
          },
          {
            "duration": 0.10869549999999606,
            "durationTicks": 96,
            "midi": 75,
            "name": "D#5",
            "ticks": 60390,
            "time": 68.37626296875,
            "velocity": 0.3937007874015748
          },
          {
            "duration": 0.10869550000001027,
            "durationTicks": 96,
            "midi": 74,
            "name": "D5",
            "ticks": 60486,
            "time": 68.48495846875,
            "velocity": 0.3937007874015748
          },
          {
            "duration": 0.10869550000001027,
            "durationTicks": 96,
            "midi": 37,
            "name": "C#2",
            "ticks": 60486,
            "time": 68.48495846875,
            "velocity": 0.3937007874015748
          },
          {
            "duration": 0.21739100000000633,
            "durationTicks": 192,
            "midi": 56,
            "name": "G#3",
            "ticks": 60486,
            "time": 68.48495846875,
            "velocity": 0.3937007874015748
          },
          {
            "duration": 0.21739100000000633,
            "durationTicks": 192,
            "midi": 63,
            "name": "D#4",
            "ticks": 60486,
            "time": 68.48495846875,
            "velocity": 0.3937007874015748
          },
          {
            "duration": 0.21739100000000633,
            "durationTicks": 192,
            "midi": 75,
            "name": "D#5",
            "ticks": 60486,
            "time": 68.48495846875,
            "velocity": 0.3937007874015748
          },
          {
            "duration": 0.10869550000001027,
            "durationTicks": 96,
            "midi": 49,
            "name": "C#3",
            "ticks": 60486,
            "time": 68.48495846875,
            "velocity": 0.3937007874015748
          },
          {
            "duration": 0.10869549999999606,
            "durationTicks": 96,
            "midi": 49,
            "name": "C#3",
            "ticks": 60582,
            "time": 68.59365396875,
            "velocity": 0.3937007874015748
          },
          {
            "duration": 0.10869549999999606,
            "durationTicks": 96,
            "midi": 37,
            "name": "C#2",
            "ticks": 60582,
            "time": 68.59365396875,
            "velocity": 0.3937007874015748
          },
          {
            "duration": 0.10869549999999606,
            "durationTicks": 96,
            "midi": 61,
            "name": "C#4",
            "ticks": 60582,
            "time": 68.59365396875,
            "velocity": 0.3937007874015748
          },
          {
            "duration": 0.10869549999999606,
            "durationTicks": 96,
            "midi": 74,
            "name": "D5",
            "ticks": 60582,
            "time": 68.59365396875,
            "velocity": 0.3937007874015748
          },
          {
            "duration": 0.21739100000000633,
            "durationTicks": 192,
            "midi": 34,
            "name": "A#1",
            "ticks": 60678,
            "time": 68.70234946875,
            "velocity": 0.3937007874015748
          },
          {
            "duration": 0.43478199999999845,
            "durationTicks": 384,
            "midi": 53,
            "name": "F3",
            "ticks": 60678,
            "time": 68.70234946875,
            "velocity": 0.3937007874015748
          },
          {
            "duration": 0.10869549999999606,
            "durationTicks": 96,
            "midi": 65,
            "name": "F4",
            "ticks": 60678,
            "time": 68.70234946875,
            "velocity": 0.3937007874015748
          },
          {
            "duration": 0.10869549999999606,
            "durationTicks": 96,
            "midi": 37,
            "name": "C#2",
            "ticks": 60678,
            "time": 68.70234946875,
            "velocity": 0.3937007874015748
          },
          {
            "duration": 0.43478199999999845,
            "durationTicks": 384,
            "midi": 56,
            "name": "G#3",
            "ticks": 60678,
            "time": 68.70234946875,
            "velocity": 0.3937007874015748
          },
          {
            "duration": 0.21739100000000633,
            "durationTicks": 192,
            "midi": 65,
            "name": "F4",
            "ticks": 60678,
            "time": 68.70234946875,
            "velocity": 0.3937007874015748
          },
          {
            "duration": 0.43478199999999845,
            "durationTicks": 384,
            "midi": 61,
            "name": "C#4",
            "ticks": 60678,
            "time": 68.70234946875,
            "velocity": 0.3937007874015748
          },
          {
            "duration": 0.10869549999999606,
            "durationTicks": 96,
            "midi": 25,
            "name": "C#1",
            "ticks": 60678,
            "time": 68.70234946875,
            "velocity": 0.3937007874015748
          },
          {
            "duration": 0.10869549999999606,
            "durationTicks": 96,
            "midi": 73,
            "name": "C#5",
            "ticks": 60678,
            "time": 68.70234946875,
            "velocity": 0.3937007874015748
          },
          {
            "duration": 0.21739100000000633,
            "durationTicks": 192,
            "midi": 77,
            "name": "F5",
            "ticks": 60678,
            "time": 68.70234946875,
            "velocity": 0.3937007874015748
          },
          {
            "duration": 0.10869550000001027,
            "durationTicks": 96,
            "midi": 49,
            "name": "C#3",
            "ticks": 60774,
            "time": 68.81104496875,
            "velocity": 0.3937007874015748
          },
          {
            "duration": 0.10869550000001027,
            "durationTicks": 96,
            "midi": 68,
            "name": "G#4",
            "ticks": 60774,
            "time": 68.81104496875,
            "velocity": 0.3937007874015748
          },
          {
            "duration": 0.10869550000001027,
            "durationTicks": 96,
            "midi": 73,
            "name": "C#5",
            "ticks": 60774,
            "time": 68.81104496875,
            "velocity": 0.3937007874015748
          },
          {
            "duration": 0.10869550000001027,
            "durationTicks": 96,
            "midi": 37,
            "name": "C#2",
            "ticks": 60774,
            "time": 68.81104496875,
            "velocity": 0.3937007874015748
          },
          {
            "duration": 0.10869549999999606,
            "durationTicks": 96,
            "midi": 72,
            "name": "C5",
            "ticks": 60870,
            "time": 68.91974046875,
            "velocity": 0.3937007874015748
          },
          {
            "duration": 0.10869549999999606,
            "durationTicks": 96,
            "midi": 73,
            "name": "C#5",
            "ticks": 60870,
            "time": 68.91974046875,
            "velocity": 0.3937007874015748
          },
          {
            "duration": 0.21739099999999212,
            "durationTicks": 192,
            "midi": 66,
            "name": "F#4",
            "ticks": 60870,
            "time": 68.91974046875,
            "velocity": 0.3937007874015748
          },
          {
            "duration": 0.10869549999999606,
            "durationTicks": 96,
            "midi": 35,
            "name": "B1",
            "ticks": 60870,
            "time": 68.91974046875,
            "velocity": 0.3937007874015748
          },
          {
            "duration": 0.21739099999999212,
            "durationTicks": 192,
            "midi": 78,
            "name": "F#5",
            "ticks": 60870,
            "time": 68.91974046875,
            "velocity": 0.3937007874015748
          },
          {
            "duration": 0.10869549999999606,
            "durationTicks": 96,
            "midi": 47,
            "name": "B2",
            "ticks": 60870,
            "time": 68.91974046875,
            "velocity": 0.3937007874015748
          },
          {
            "duration": 0.10869549999999606,
            "durationTicks": 96,
            "midi": 72,
            "name": "C5",
            "ticks": 60966,
            "time": 69.02843596875,
            "velocity": 0.3937007874015748
          },
          {
            "duration": 0.10869549999999606,
            "durationTicks": 96,
            "midi": 49,
            "name": "C#3",
            "ticks": 60966,
            "time": 69.02843596875,
            "velocity": 0.3937007874015748
          },
          {
            "duration": 0.10869549999999606,
            "durationTicks": 96,
            "midi": 37,
            "name": "C#2",
            "ticks": 60966,
            "time": 69.02843596875,
            "velocity": 0.3937007874015748
          },
          {
            "duration": 0.10869549999999606,
            "durationTicks": 96,
            "midi": 77,
            "name": "F5",
            "ticks": 60966,
            "time": 69.02843596875,
            "velocity": 0.3937007874015748
          },
          {
            "duration": 0.21739100000000633,
            "durationTicks": 192,
            "midi": 77,
            "name": "F5",
            "ticks": 61062,
            "time": 69.13713146875,
            "velocity": 0.3937007874015748
          },
          {
            "duration": 0.3260865000000024,
            "durationTicks": 288,
            "midi": 58,
            "name": "A#3",
            "ticks": 61062,
            "time": 69.13713146875,
            "velocity": 0.3937007874015748
          },
          {
            "duration": 0.21739100000000633,
            "durationTicks": 192,
            "midi": 65,
            "name": "F4",
            "ticks": 61062,
            "time": 69.13713146875,
            "velocity": 0.3937007874015748
          },
          {
            "duration": 0.10869549999999606,
            "durationTicks": 96,
            "midi": 50,
            "name": "D3",
            "ticks": 61062,
            "time": 69.13713146875,
            "velocity": 0.3937007874015748
          },
          {
            "duration": 0.21739100000000633,
            "durationTicks": 192,
            "midi": 34,
            "name": "A#1",
            "ticks": 61062,
            "time": 69.13713146875,
            "velocity": 0.3937007874015748
          },
          {
            "duration": 0.21739100000000633,
            "durationTicks": 192,
            "midi": 53,
            "name": "F3",
            "ticks": 61062,
            "time": 69.13713146875,
            "velocity": 0.3937007874015748
          },
          {
            "duration": 0.10869549999999606,
            "durationTicks": 96,
            "midi": 38,
            "name": "D2",
            "ticks": 61062,
            "time": 69.13713146875,
            "velocity": 0.3937007874015748
          },
          {
            "duration": 0.43478199999999845,
            "durationTicks": 384,
            "midi": 62,
            "name": "D4",
            "ticks": 61062,
            "time": 69.13713146875,
            "velocity": 0.3937007874015748
          },
          {
            "duration": 0.10869549999999606,
            "durationTicks": 96,
            "midi": 71,
            "name": "B4",
            "ticks": 61062,
            "time": 69.13713146875,
            "velocity": 0.3937007874015748
          },
          {
            "duration": 0.10869549999999606,
            "durationTicks": 96,
            "midi": 50,
            "name": "D3",
            "ticks": 61062,
            "time": 69.13713146875,
            "velocity": 0.3937007874015748
          },
          {
            "duration": 0.10869550000001027,
            "durationTicks": 96,
            "midi": 71,
            "name": "B4",
            "ticks": 61158,
            "time": 69.24582696875,
            "velocity": 0.3937007874015748
          },
          {
            "duration": 0.3260865000000024,
            "durationTicks": 288,
            "midi": 53,
            "name": "F3",
            "ticks": 61158,
            "time": 69.24582696875,
            "velocity": 0.3937007874015748
          },
          {
            "duration": 0.10869549999999606,
            "durationTicks": 96,
            "midi": 70,
            "name": "A#4",
            "ticks": 61254,
            "time": 69.35452246875,
            "velocity": 0.3937007874015748
          },
          {
            "duration": 0.21739099999999212,
            "durationTicks": 192,
            "midi": 58,
            "name": "A#3",
            "ticks": 61254,
            "time": 69.35452246875,
            "velocity": 0.3937007874015748
          },
          {
            "duration": 0.21739099999999212,
            "durationTicks": 192,
            "midi": 34,
            "name": "A#1",
            "ticks": 61254,
            "time": 69.35452246875,
            "velocity": 0.3937007874015748
          },
          {
            "duration": 0.21739099999999212,
            "durationTicks": 192,
            "midi": 75,
            "name": "D#5",
            "ticks": 61254,
            "time": 69.35452246875,
            "velocity": 0.3937007874015748
          },
          {
            "duration": 0.21739099999999212,
            "durationTicks": 192,
            "midi": 63,
            "name": "D#4",
            "ticks": 61254,
            "time": 69.35452246875,
            "velocity": 0.3937007874015748
          },
          {
            "duration": 0.10869549999999606,
            "durationTicks": 96,
            "midi": 36,
            "name": "C2",
            "ticks": 61254,
            "time": 69.35452246875,
            "velocity": 0.3937007874015748
          },
          {
            "duration": 0.10869549999999606,
            "durationTicks": 96,
            "midi": 48,
            "name": "C3",
            "ticks": 61254,
            "time": 69.35452246875,
            "velocity": 0.3937007874015748
          },
          {
            "duration": 0.10869549999999606,
            "durationTicks": 96,
            "midi": 70,
            "name": "A#4",
            "ticks": 61350,
            "time": 69.46321796875,
            "velocity": 0.3937007874015748
          },
          {
            "duration": 0.10869549999999606,
            "durationTicks": 96,
            "midi": 38,
            "name": "D2",
            "ticks": 61350,
            "time": 69.46321796875,
            "velocity": 0.3937007874015748
          },
          {
            "duration": 0.10869549999999606,
            "durationTicks": 96,
            "midi": 62,
            "name": "D4",
            "ticks": 61350,
            "time": 69.46321796875,
            "velocity": 0.3937007874015748
          },
          {
            "duration": 0.10869549999999606,
            "durationTicks": 96,
            "midi": 50,
            "name": "D3",
            "ticks": 61350,
            "time": 69.46321796875,
            "velocity": 0.3937007874015748
          },
          {
            "duration": 0.10869549999999606,
            "durationTicks": 96,
            "midi": 53,
            "name": "F3",
            "ticks": 61446,
            "time": 69.57191346875,
            "velocity": 0.3937007874015748
          },
          {
            "duration": 0.10869549999999606,
            "durationTicks": 96,
            "midi": 65,
            "name": "F4",
            "ticks": 61446,
            "time": 69.57191346875,
            "velocity": 0.3937007874015748
          },
          {
            "duration": 0.21739100000000633,
            "durationTicks": 192,
            "midi": 62,
            "name": "D4",
            "ticks": 61446,
            "time": 69.57191346875,
            "velocity": 0.3937007874015748
          },
          {
            "duration": 0.21739100000000633,
            "durationTicks": 192,
            "midi": 74,
            "name": "D5",
            "ticks": 61446,
            "time": 69.57191346875,
            "velocity": 0.3937007874015748
          },
          {
            "duration": 0.43478199999999845,
            "durationTicks": 384,
            "midi": 58,
            "name": "A#3",
            "ticks": 61446,
            "time": 69.57191346875,
            "velocity": 0.3937007874015748
          },
          {
            "duration": 0.10869549999999606,
            "durationTicks": 96,
            "midi": 41,
            "name": "F2",
            "ticks": 61446,
            "time": 69.57191346875,
            "velocity": 0.3937007874015748
          },
          {
            "duration": 0.21739100000000633,
            "durationTicks": 192,
            "midi": 34,
            "name": "A#1",
            "ticks": 61446,
            "time": 69.57191346875,
            "velocity": 0.3937007874015748
          },
          {
            "duration": 0.43478199999999845,
            "durationTicks": 384,
            "midi": 53,
            "name": "F3",
            "ticks": 61446,
            "time": 69.57191346875,
            "velocity": 0.3937007874015748
          },
          {
            "duration": 0.10869549999999606,
            "durationTicks": 96,
            "midi": 69,
            "name": "A4",
            "ticks": 61446,
            "time": 69.57191346875,
            "velocity": 0.3937007874015748
          },
          {
            "duration": 0.43478199999999845,
            "durationTicks": 384,
            "midi": 62,
            "name": "D4",
            "ticks": 61446,
            "time": 69.57191346875,
            "velocity": 0.3937007874015748
          },
          {
            "duration": 0.10869550000001027,
            "durationTicks": 96,
            "midi": 70,
            "name": "A#4",
            "ticks": 61542,
            "time": 69.68060896875,
            "velocity": 0.3937007874015748
          },
          {
            "duration": 0.10869550000001027,
            "durationTicks": 96,
            "midi": 69,
            "name": "A4",
            "ticks": 61542,
            "time": 69.68060896875,
            "velocity": 0.3937007874015748
          },
          {
            "duration": 0.10869549999999606,
            "durationTicks": 96,
            "midi": 51,
            "name": "D#3",
            "ticks": 61638,
            "time": 69.78930446875,
            "velocity": 0.3937007874015748
          },
          {
            "duration": 0.10869549999999606,
            "durationTicks": 96,
            "midi": 68,
            "name": "G#4",
            "ticks": 61638,
            "time": 69.78930446875,
            "velocity": 0.3937007874015748
          },
          {
            "duration": 0.21739099999999212,
            "durationTicks": 192,
            "midi": 77,
            "name": "F5",
            "ticks": 61638,
            "time": 69.78930446875,
            "velocity": 0.3937007874015748
          },
          {
            "duration": 0.10869549999999606,
            "durationTicks": 96,
            "midi": 74,
            "name": "D5",
            "ticks": 61638,
            "time": 69.78930446875,
            "velocity": 0.3937007874015748
          },
          {
            "duration": 0.21739099999999212,
            "durationTicks": 192,
            "midi": 65,
            "name": "F4",
            "ticks": 61638,
            "time": 69.78930446875,
            "velocity": 0.3937007874015748
          },
          {
            "duration": 0.10869549999999606,
            "durationTicks": 96,
            "midi": 39,
            "name": "D#2",
            "ticks": 61638,
            "time": 69.78930446875,
            "velocity": 0.3937007874015748
          },
          {
            "duration": 0.10869549999999606,
            "durationTicks": 96,
            "midi": 41,
            "name": "F2",
            "ticks": 61734,
            "time": 69.89799996875,
            "velocity": 0.3937007874015748
          },
          {
            "duration": 0.10869549999999606,
            "durationTicks": 96,
            "midi": 68,
            "name": "G#4",
            "ticks": 61734,
            "time": 69.89799996875,
            "velocity": 0.3937007874015748
          },
          {
            "duration": 0.10869549999999606,
            "durationTicks": 96,
            "midi": 53,
            "name": "F3",
            "ticks": 61734,
            "time": 69.89799996875,
            "velocity": 0.3937007874015748
          },
          {
            "duration": 0.10869549999999606,
            "durationTicks": 96,
            "midi": 77,
            "name": "F5",
            "ticks": 61734,
            "time": 69.89799996875,
            "velocity": 0.3937007874015748
          },
          {
            "duration": 0.21739100000000633,
            "durationTicks": 192,
            "midi": 75,
            "name": "D#5",
            "ticks": 61830,
            "time": 70.00669546875,
            "velocity": 0.3937007874015748
          },
          {
            "duration": 0.21739100000000633,
            "durationTicks": 192,
            "midi": 63,
            "name": "D#4",
            "ticks": 61830,
            "time": 70.00669546875,
            "velocity": 0.3937007874015748
          },
          {
            "duration": 0.21739100000000633,
            "durationTicks": 192,
            "midi": 54,
            "name": "F#3",
            "ticks": 61830,
            "time": 70.00669546875,
            "velocity": 0.3937007874015748
          },
          {
            "duration": 0.10869550000001027,
            "durationTicks": 96,
            "midi": 51,
            "name": "D#3",
            "ticks": 61830,
            "time": 70.00669546875,
            "velocity": 0.3937007874015748
          },
          {
            "duration": 0.43478199999999845,
            "durationTicks": 384,
            "midi": 63,
            "name": "D#4",
            "ticks": 61830,
            "time": 70.00669546875,
            "velocity": 0.3937007874015748
          },
          {
            "duration": 0.10869550000001027,
            "durationTicks": 96,
            "midi": 39,
            "name": "D#2",
            "ticks": 61830,
            "time": 70.00669546875,
            "velocity": 0.3937007874015748
          },
          {
            "duration": 0.10869550000001027,
            "durationTicks": 96,
            "midi": 27,
            "name": "D#1",
            "ticks": 61830,
            "time": 70.00669546875,
            "velocity": 0.3937007874015748
          },
          {
            "duration": 0.21739100000000633,
            "durationTicks": 192,
            "midi": 34,
            "name": "A#1",
            "ticks": 61830,
            "time": 70.00669546875,
            "velocity": 0.3937007874015748
          },
          {
            "duration": 0.3260865000000024,
            "durationTicks": 288,
            "midi": 58,
            "name": "A#3",
            "ticks": 61830,
            "time": 70.00669546875,
            "velocity": 0.3937007874015748
          },
          {
            "duration": 0.3260864999999882,
            "durationTicks": 288,
            "midi": 54,
            "name": "F#3",
            "ticks": 61926,
            "time": 70.11539096875,
            "velocity": 0.3937007874015748
          },
          {
            "duration": 0.10869549999999606,
            "durationTicks": 96,
            "midi": 39,
            "name": "D#2",
            "ticks": 62022,
            "time": 70.22408646875,
            "velocity": 0.3937007874015748
          },
          {
            "duration": 0.10869549999999606,
            "durationTicks": 96,
            "midi": 51,
            "name": "D#3",
            "ticks": 62022,
            "time": 70.22408646875,
            "velocity": 0.3937007874015748
          },
          {
            "duration": 0.21739099999999212,
            "durationTicks": 192,
            "midi": 58,
            "name": "A#3",
            "ticks": 62022,
            "time": 70.22408646875,
            "velocity": 0.3937007874015748
          },
          {
            "duration": 0.21739099999999212,
            "durationTicks": 192,
            "midi": 77,
            "name": "F5",
            "ticks": 62022,
            "time": 70.22408646875,
            "velocity": 0.3937007874015748
          },
          {
            "duration": 0.21739099999999212,
            "durationTicks": 192,
            "midi": 65,
            "name": "F4",
            "ticks": 62022,
            "time": 70.22408646875,
            "velocity": 0.3937007874015748
          },
          {
            "duration": 0.10869549999999606,
            "durationTicks": 96,
            "midi": 63,
            "name": "D#4",
            "ticks": 62118,
            "time": 70.33278196875,
            "velocity": 0.3937007874015748
          },
          {
            "duration": 0.10869549999999606,
            "durationTicks": 96,
            "midi": 51,
            "name": "D#3",
            "ticks": 62118,
            "time": 70.33278196875,
            "velocity": 0.3937007874015748
          },
          {
            "duration": 0.10869549999999606,
            "durationTicks": 96,
            "midi": 39,
            "name": "D#2",
            "ticks": 62118,
            "time": 70.33278196875,
            "velocity": 0.3937007874015748
          },
          {
            "duration": 0.21739100000000633,
            "durationTicks": 192,
            "midi": 78,
            "name": "F#5",
            "ticks": 62214,
            "time": 70.44147746875,
            "velocity": 0.3937007874015748
          },
          {
            "duration": 0.10869550000001027,
            "durationTicks": 96,
            "midi": 39,
            "name": "D#2",
            "ticks": 62214,
            "time": 70.44147746875,
            "velocity": 0.3937007874015748
          },
          {
            "duration": 0.43478200000001266,
            "durationTicks": 384,
            "midi": 58,
            "name": "A#3",
            "ticks": 62214,
            "time": 70.44147746875,
            "velocity": 0.3937007874015748
          },
          {
            "duration": 0.10869550000001027,
            "durationTicks": 96,
            "midi": 66,
            "name": "F#4",
            "ticks": 62214,
            "time": 70.44147746875,
            "velocity": 0.3937007874015748
          },
          {
            "duration": 0.43478200000001266,
            "durationTicks": 384,
            "midi": 63,
            "name": "D#4",
            "ticks": 62214,
            "time": 70.44147746875,
            "velocity": 0.3937007874015748
          },
          {
            "duration": 0.10869550000001027,
            "durationTicks": 96,
            "midi": 27,
            "name": "D#1",
            "ticks": 62214,
            "time": 70.44147746875,
            "velocity": 0.3937007874015748
          },
          {
            "duration": 0.21739100000000633,
            "durationTicks": 192,
            "midi": 34,
            "name": "A#1",
            "ticks": 62214,
            "time": 70.44147746875,
            "velocity": 0.3937007874015748
          },
          {
            "duration": 0.21739100000000633,
            "durationTicks": 192,
            "midi": 66,
            "name": "F#4",
            "ticks": 62214,
            "time": 70.44147746875,
            "velocity": 0.3937007874015748
          },
          {
            "duration": 0.43478200000001266,
            "durationTicks": 384,
            "midi": 54,
            "name": "F#3",
            "ticks": 62214,
            "time": 70.44147746875,
            "velocity": 0.3937007874015748
          },
          {
            "duration": 0.10869549999999606,
            "durationTicks": 96,
            "midi": 51,
            "name": "D#3",
            "ticks": 62310,
            "time": 70.55017296875,
            "velocity": 0.3937007874015748
          },
          {
            "duration": 0.10869549999999606,
            "durationTicks": 96,
            "midi": 39,
            "name": "D#2",
            "ticks": 62310,
            "time": 70.55017296875,
            "velocity": 0.3937007874015748
          },
          {
            "duration": 0.10869549999999606,
            "durationTicks": 96,
            "midi": 70,
            "name": "A#4",
            "ticks": 62310,
            "time": 70.55017296875,
            "velocity": 0.3937007874015748
          },
          {
            "duration": 0.10869549999999606,
            "durationTicks": 96,
            "midi": 37,
            "name": "C#2",
            "ticks": 62406,
            "time": 70.65886846875,
            "velocity": 0.3937007874015748
          },
          {
            "duration": 0.10869549999999606,
            "durationTicks": 96,
            "midi": 49,
            "name": "C#3",
            "ticks": 62406,
            "time": 70.65886846875,
            "velocity": 0.3937007874015748
          },
          {
            "duration": 0.10869549999999606,
            "durationTicks": 96,
            "midi": 75,
            "name": "D#5",
            "ticks": 62406,
            "time": 70.65886846875,
            "velocity": 0.3937007874015748
          },
          {
            "duration": 0.21739100000000633,
            "durationTicks": 192,
            "midi": 80,
            "name": "G#5",
            "ticks": 62406,
            "time": 70.65886846875,
            "velocity": 0.3937007874015748
          },
          {
            "duration": 0.21739100000000633,
            "durationTicks": 192,
            "midi": 68,
            "name": "G#4",
            "ticks": 62406,
            "time": 70.65886846875,
            "velocity": 0.3937007874015748
          },
          {
            "duration": 0.10869550000001027,
            "durationTicks": 96,
            "midi": 51,
            "name": "D#3",
            "ticks": 62502,
            "time": 70.76756396875,
            "velocity": 0.3937007874015748
          },
          {
            "duration": 0.10869550000001027,
            "durationTicks": 96,
            "midi": 78,
            "name": "F#5",
            "ticks": 62502,
            "time": 70.76756396875,
            "velocity": 0.3937007874015748
          },
          {
            "duration": 0.10869550000001027,
            "durationTicks": 96,
            "midi": 39,
            "name": "D#2",
            "ticks": 62502,
            "time": 70.76756396875,
            "velocity": 0.3937007874015748
          },
          {
            "duration": 0.43478199999999845,
            "durationTicks": 384,
            "midi": 63,
            "name": "D#4",
            "ticks": 62598,
            "time": 70.87625946875,
            "velocity": 0.3937007874015748
          },
          {
            "duration": 0.21739099999999212,
            "durationTicks": 192,
            "midi": 34,
            "name": "A#1",
            "ticks": 62598,
            "time": 70.87625946875,
            "velocity": 0.3937007874015748
          },
          {
            "duration": 0.21739099999999212,
            "durationTicks": 192,
            "midi": 54,
            "name": "F#3",
            "ticks": 62598,
            "time": 70.87625946875,
            "velocity": 0.3937007874015748
          },
          {
            "duration": 0.10869549999999606,
            "durationTicks": 96,
            "midi": 39,
            "name": "D#2",
            "ticks": 62598,
            "time": 70.87625946875,
            "velocity": 0.3937007874015748
          },
          {
            "duration": 0.10869549999999606,
            "durationTicks": 96,
            "midi": 51,
            "name": "D#3",
            "ticks": 62598,
            "time": 70.87625946875,
            "velocity": 0.3937007874015748
          },
          {
            "duration": 0.3260864999999882,
            "durationTicks": 288,
            "midi": 58,
            "name": "A#3",
            "ticks": 62598,
            "time": 70.87625946875,
            "velocity": 0.3937007874015748
          },
          {
            "duration": 0.10869549999999606,
            "durationTicks": 96,
            "midi": 27,
            "name": "D#1",
            "ticks": 62598,
            "time": 70.87625946875,
            "velocity": 0.3937007874015748
          },
          {
            "duration": 0.21739099999999212,
            "durationTicks": 192,
            "midi": 82,
            "name": "A#5",
            "ticks": 62598,
            "time": 70.87625946875,
            "velocity": 0.3937007874015748
          },
          {
            "duration": 0.21739099999999212,
            "durationTicks": 192,
            "midi": 70,
            "name": "A#4",
            "ticks": 62598,
            "time": 70.87625946875,
            "velocity": 0.3937007874015748
          },
          {
            "duration": 0.3260865000000024,
            "durationTicks": 288,
            "midi": 54,
            "name": "F#3",
            "ticks": 62694,
            "time": 70.98495496875,
            "velocity": 0.3937007874015748
          },
          {
            "duration": 0.21739100000000633,
            "durationTicks": 192,
            "midi": 58,
            "name": "A#3",
            "ticks": 62790,
            "time": 71.09365046875,
            "velocity": 0.3937007874015748
          },
          {
            "duration": 0.10869549999999606,
            "durationTicks": 96,
            "midi": 51,
            "name": "D#3",
            "ticks": 62790,
            "time": 71.09365046875,
            "velocity": 0.3937007874015748
          },
          {
            "duration": 0.10869549999999606,
            "durationTicks": 96,
            "midi": 39,
            "name": "D#2",
            "ticks": 62790,
            "time": 71.09365046875,
            "velocity": 0.3937007874015748
          },
          {
            "duration": 0.10869550000001027,
            "durationTicks": 96,
            "midi": 39,
            "name": "D#2",
            "ticks": 62886,
            "time": 71.20234596875,
            "velocity": 0.3937007874015748
          },
          {
            "duration": 0.10869550000001027,
            "durationTicks": 96,
            "midi": 63,
            "name": "D#4",
            "ticks": 62886,
            "time": 71.20234596875,
            "velocity": 0.3937007874015748
          },
          {
            "duration": 0.10869550000001027,
            "durationTicks": 96,
            "midi": 51,
            "name": "D#3",
            "ticks": 62886,
            "time": 71.20234596875,
            "velocity": 0.3937007874015748
          },
          {
            "duration": 0.21739099999999212,
            "durationTicks": 192,
            "midi": 75,
            "name": "D#5",
            "ticks": 62982,
            "time": 71.31104146875,
            "velocity": 0.3937007874015748
          },
          {
            "duration": 0.10869549999999606,
            "durationTicks": 96,
            "midi": 66,
            "name": "F#4",
            "ticks": 62982,
            "time": 71.31104146875,
            "velocity": 0.3937007874015748
          },
          {
            "duration": 0.10869549999999606,
            "durationTicks": 96,
            "midi": 27,
            "name": "D#1",
            "ticks": 62982,
            "time": 71.31104146875,
            "velocity": 0.3937007874015748
          },
          {
            "duration": 0.43478199999999845,
            "durationTicks": 384,
            "midi": 63,
            "name": "D#4",
            "ticks": 62982,
            "time": 71.31104146875,
            "velocity": 0.3937007874015748
          },
          {
            "duration": 0.43478199999999845,
            "durationTicks": 384,
            "midi": 58,
            "name": "A#3",
            "ticks": 62982,
            "time": 71.31104146875,
            "velocity": 0.3937007874015748
          },
          {
            "duration": 0.21739099999999212,
            "durationTicks": 192,
            "midi": 87,
            "name": "D#6",
            "ticks": 62982,
            "time": 71.31104146875,
            "velocity": 0.3937007874015748
          },
          {
            "duration": 0.43478199999999845,
            "durationTicks": 384,
            "midi": 54,
            "name": "F#3",
            "ticks": 62982,
            "time": 71.31104146875,
            "velocity": 0.3937007874015748
          },
          {
            "duration": 0.10869549999999606,
            "durationTicks": 96,
            "midi": 39,
            "name": "D#2",
            "ticks": 62982,
            "time": 71.31104146875,
            "velocity": 0.3937007874015748
          },
          {
            "duration": 0.21739099999999212,
            "durationTicks": 192,
            "midi": 34,
            "name": "A#1",
            "ticks": 62982,
            "time": 71.31104146875,
            "velocity": 0.3937007874015748
          },
          {
            "duration": 0.10869549999999606,
            "durationTicks": 96,
            "midi": 51,
            "name": "D#3",
            "ticks": 63078,
            "time": 71.41973696875,
            "velocity": 0.3937007874015748
          },
          {
            "duration": 0.10869549999999606,
            "durationTicks": 96,
            "midi": 39,
            "name": "D#2",
            "ticks": 63078,
            "time": 71.41973696875,
            "velocity": 0.3937007874015748
          },
          {
            "duration": 0.10869549999999606,
            "durationTicks": 96,
            "midi": 70,
            "name": "A#4",
            "ticks": 63078,
            "time": 71.41973696875,
            "velocity": 0.3937007874015748
          },
          {
            "duration": 0.21739100000000633,
            "durationTicks": 192,
            "midi": 73,
            "name": "C#5",
            "ticks": 63174,
            "time": 71.52843246875,
            "velocity": 0.3937007874015748
          },
          {
            "duration": 0.10869549999999606,
            "durationTicks": 96,
            "midi": 75,
            "name": "D#5",
            "ticks": 63174,
            "time": 71.52843246875,
            "velocity": 0.3937007874015748
          },
          {
            "duration": 0.10869549999999606,
            "durationTicks": 96,
            "midi": 49,
            "name": "C#3",
            "ticks": 63174,
            "time": 71.52843246875,
            "velocity": 0.3937007874015748
          },
          {
            "duration": 0.10869549999999606,
            "durationTicks": 96,
            "midi": 37,
            "name": "C#2",
            "ticks": 63174,
            "time": 71.52843246875,
            "velocity": 0.3937007874015748
          },
          {
            "duration": 0.21739100000000633,
            "durationTicks": 192,
            "midi": 85,
            "name": "C#6",
            "ticks": 63174,
            "time": 71.52843246875,
            "velocity": 0.3937007874015748
          },
          {
            "duration": 0.10869550000001027,
            "durationTicks": 96,
            "midi": 51,
            "name": "D#3",
            "ticks": 63270,
            "time": 71.63712796875,
            "velocity": 0.3937007874015748
          },
          {
            "duration": 0.10869550000001027,
            "durationTicks": 96,
            "midi": 39,
            "name": "D#2",
            "ticks": 63270,
            "time": 71.63712796875,
            "velocity": 0.3937007874015748
          },
          {
            "duration": 0.10869550000001027,
            "durationTicks": 96,
            "midi": 78,
            "name": "F#5",
            "ticks": 63270,
            "time": 71.63712796875,
            "velocity": 0.3937007874015748
          },
          {
            "duration": 0.21739099999999212,
            "durationTicks": 192,
            "midi": 34,
            "name": "A#1",
            "ticks": 63366,
            "time": 71.74582346875,
            "velocity": 0.3937007874015748
          },
          {
            "duration": 0.10869549999999606,
            "durationTicks": 96,
            "midi": 51,
            "name": "D#3",
            "ticks": 63366,
            "time": 71.74582346875,
            "velocity": 0.3937007874015748
          },
          {
            "duration": 0.43478199999999845,
            "durationTicks": 384,
            "midi": 63,
            "name": "D#4",
            "ticks": 63366,
            "time": 71.74582346875,
            "velocity": 0.3937007874015748
          },
          {
            "duration": 0.43478199999999845,
            "durationTicks": 384,
            "midi": 70,
            "name": "A#4",
            "ticks": 63366,
            "time": 71.74582346875,
            "velocity": 0.3937007874015748
          },
          {
            "duration": 0.10869549999999606,
            "durationTicks": 96,
            "midi": 27,
            "name": "D#1",
            "ticks": 63366,
            "time": 71.74582346875,
            "velocity": 0.3937007874015748
          },
          {
            "duration": 0.43478199999999845,
            "durationTicks": 384,
            "midi": 82,
            "name": "A#5",
            "ticks": 63366,
            "time": 71.74582346875,
            "velocity": 0.3937007874015748
          },
          {
            "duration": 0.3260865000000024,
            "durationTicks": 288,
            "midi": 58,
            "name": "A#3",
            "ticks": 63366,
            "time": 71.74582346875,
            "velocity": 0.3937007874015748
          },
          {
            "duration": 0.10869549999999606,
            "durationTicks": 96,
            "midi": 39,
            "name": "D#2",
            "ticks": 63366,
            "time": 71.74582346875,
            "velocity": 0.3937007874015748
          },
          {
            "duration": 0.21739099999999212,
            "durationTicks": 192,
            "midi": 54,
            "name": "F#3",
            "ticks": 63366,
            "time": 71.74582346875,
            "velocity": 0.3937007874015748
          },
          {
            "duration": 0.3260865000000024,
            "durationTicks": 288,
            "midi": 54,
            "name": "F#3",
            "ticks": 63462,
            "time": 71.85451896875,
            "velocity": 0.3937007874015748
          },
          {
            "duration": 0.21739100000000633,
            "durationTicks": 192,
            "midi": 58,
            "name": "A#3",
            "ticks": 63558,
            "time": 71.96321446875,
            "velocity": 0.3937007874015748
          },
          {
            "duration": 0.10869550000001027,
            "durationTicks": 96,
            "midi": 51,
            "name": "D#3",
            "ticks": 63558,
            "time": 71.96321446875,
            "velocity": 0.3937007874015748
          },
          {
            "duration": 0.10869550000001027,
            "durationTicks": 96,
            "midi": 39,
            "name": "D#2",
            "ticks": 63558,
            "time": 71.96321446875,
            "velocity": 0.3937007874015748
          },
          {
            "duration": 0.10869549999999606,
            "durationTicks": 96,
            "midi": 63,
            "name": "D#4",
            "ticks": 63654,
            "time": 72.07190996875,
            "velocity": 0.3937007874015748
          },
          {
            "duration": 0.10869549999999606,
            "durationTicks": 96,
            "midi": 51,
            "name": "D#3",
            "ticks": 63654,
            "time": 72.07190996875,
            "velocity": 0.3937007874015748
          },
          {
            "duration": 0.10869549999999606,
            "durationTicks": 96,
            "midi": 39,
            "name": "D#2",
            "ticks": 63654,
            "time": 72.07190996875,
            "velocity": 0.3937007874015748
          },
          {
            "duration": 0.43478199999999845,
            "durationTicks": 384,
            "midi": 63,
            "name": "D#4",
            "ticks": 63750,
            "time": 72.18060546875,
            "velocity": 0.3937007874015748
          },
          {
            "duration": 0.21739099999999212,
            "durationTicks": 192,
            "midi": 34,
            "name": "A#1",
            "ticks": 63750,
            "time": 72.18060546875,
            "velocity": 0.3937007874015748
          },
          {
            "duration": 0.10869549999999606,
            "durationTicks": 96,
            "midi": 27,
            "name": "D#1",
            "ticks": 63750,
            "time": 72.18060546875,
            "velocity": 0.3937007874015748
          },
          {
            "duration": 0.10869549999999606,
            "durationTicks": 96,
            "midi": 39,
            "name": "D#2",
            "ticks": 63750,
            "time": 72.18060546875,
            "velocity": 0.3937007874015748
          },
          {
            "duration": 0.43478199999999845,
            "durationTicks": 384,
            "midi": 54,
            "name": "F#3",
            "ticks": 63750,
            "time": 72.18060546875,
            "velocity": 0.3937007874015748
          },
          {
            "duration": 0.43478199999999845,
            "durationTicks": 384,
            "midi": 58,
            "name": "A#3",
            "ticks": 63750,
            "time": 72.18060546875,
            "velocity": 0.3937007874015748
          },
          {
            "duration": 0.43478199999999845,
            "durationTicks": 384,
            "midi": 63,
            "name": "D#4",
            "ticks": 63750,
            "time": 72.18060546875,
            "velocity": 0.3937007874015748
          },
          {
            "duration": 0.10869549999999606,
            "durationTicks": 96,
            "midi": 66,
            "name": "F#4",
            "ticks": 63750,
            "time": 72.18060546875,
            "velocity": 0.3937007874015748
          },
          {
            "duration": 0.3260865000000024,
            "durationTicks": 288,
            "midi": 75,
            "name": "D#5",
            "ticks": 63750,
            "time": 72.18060546875,
            "velocity": 0.3937007874015748
          },
          {
            "duration": 0.10869549999999606,
            "durationTicks": 96,
            "midi": 51,
            "name": "D#3",
            "ticks": 63846,
            "time": 72.28930096875,
            "velocity": 0.3937007874015748
          },
          {
            "duration": 0.10869549999999606,
            "durationTicks": 96,
            "midi": 70,
            "name": "A#4",
            "ticks": 63846,
            "time": 72.28930096875,
            "velocity": 0.3937007874015748
          },
          {
            "duration": 0.10869549999999606,
            "durationTicks": 96,
            "midi": 39,
            "name": "D#2",
            "ticks": 63846,
            "time": 72.28930096875,
            "velocity": 0.3937007874015748
          },
          {
            "duration": 0.21739100000000633,
            "durationTicks": 192,
            "midi": 75,
            "name": "D#5",
            "ticks": 63942,
            "time": 72.39799646875,
            "velocity": 0.3937007874015748
          },
          {
            "duration": 0.10869550000001027,
            "durationTicks": 96,
            "midi": 37,
            "name": "C#2",
            "ticks": 63942,
            "time": 72.39799646875,
            "velocity": 0.3937007874015748
          },
          {
            "duration": 0.10869550000001027,
            "durationTicks": 96,
            "midi": 49,
            "name": "C#3",
            "ticks": 63942,
            "time": 72.39799646875,
            "velocity": 0.3937007874015748
          },
          {
            "duration": 0.10869549999999606,
            "durationTicks": 96,
            "midi": 78,
            "name": "F#5",
            "ticks": 64038,
            "time": 72.50669196875,
            "velocity": 0.3937007874015748
          },
          {
            "duration": 0.10869549999999606,
            "durationTicks": 96,
            "midi": 39,
            "name": "D#2",
            "ticks": 64038,
            "time": 72.50669196875,
            "velocity": 0.3937007874015748
          },
          {
            "duration": 0.10869549999999606,
            "durationTicks": 96,
            "midi": 51,
            "name": "D#3",
            "ticks": 64038,
            "time": 72.50669196875,
            "velocity": 0.3937007874015748
          },
          {
            "duration": 0.10869549999999606,
            "durationTicks": 96,
            "midi": 51,
            "name": "D#3",
            "ticks": 64134,
            "time": 72.61538746875,
            "velocity": 0.3937007874015748
          },
          {
            "duration": 0.10869549999999606,
            "durationTicks": 96,
            "midi": 54,
            "name": "F#3",
            "ticks": 64134,
            "time": 72.61538746875,
            "velocity": 0.3937007874015748
          },
          {
            "duration": 0.43478199999999845,
            "durationTicks": 384,
            "midi": 63,
            "name": "D#4",
            "ticks": 64134,
            "time": 72.61538746875,
            "velocity": 0.3937007874015748
          },
          {
            "duration": 0.10869549999999606,
            "durationTicks": 96,
            "midi": 42,
            "name": "F#2",
            "ticks": 64134,
            "time": 72.61538746875,
            "velocity": 0.3937007874015748
          },
          {
            "duration": 0.21739100000000633,
            "durationTicks": 192,
            "midi": 34,
            "name": "A#1",
            "ticks": 64134,
            "time": 72.61538746875,
            "velocity": 0.3937007874015748
          },
          {
            "duration": 0.3260865000000024,
            "durationTicks": 288,
            "midi": 58,
            "name": "A#3",
            "ticks": 64134,
            "time": 72.61538746875,
            "velocity": 0.3937007874015748
          },
          {
            "duration": 0.21739100000000633,
            "durationTicks": 192,
            "midi": 70,
            "name": "A#4",
            "ticks": 64134,
            "time": 72.61538746875,
            "velocity": 0.3937007874015748
          },
          {
            "duration": 0.21739100000000633,
            "durationTicks": 192,
            "midi": 54,
            "name": "F#3",
            "ticks": 64134,
            "time": 72.61538746875,
            "velocity": 0.3937007874015748
          },
          {
            "duration": 0.21739100000000633,
            "durationTicks": 192,
            "midi": 82,
            "name": "A#5",
            "ticks": 64134,
            "time": 72.61538746875,
            "velocity": 0.3937007874015748
          },
          {
            "duration": 0.3260865000000024,
            "durationTicks": 288,
            "midi": 54,
            "name": "F#3",
            "ticks": 64230,
            "time": 72.72408296875,
            "velocity": 0.3937007874015748
          },
          {
            "duration": 0.10869549999999606,
            "durationTicks": 96,
            "midi": 51,
            "name": "D#3",
            "ticks": 64326,
            "time": 72.83277846875,
            "velocity": 0.3937007874015748
          },
          {
            "duration": 0.21739099999999212,
            "durationTicks": 192,
            "midi": 80,
            "name": "G#5",
            "ticks": 64326,
            "time": 72.83277846875,
            "velocity": 0.3937007874015748
          },
          {
            "duration": 0.21739099999999212,
            "durationTicks": 192,
            "midi": 58,
            "name": "A#3",
            "ticks": 64326,
            "time": 72.83277846875,
            "velocity": 0.3937007874015748
          },
          {
            "duration": 0.21739099999999212,
            "durationTicks": 192,
            "midi": 68,
            "name": "G#4",
            "ticks": 64326,
            "time": 72.83277846875,
            "velocity": 0.3937007874015748
          },
          {
            "duration": 0.10869549999999606,
            "durationTicks": 96,
            "midi": 39,
            "name": "D#2",
            "ticks": 64326,
            "time": 72.83277846875,
            "velocity": 0.3937007874015748
          },
          {
            "duration": 0.10869549999999606,
            "durationTicks": 96,
            "midi": 42,
            "name": "F#2",
            "ticks": 64422,
            "time": 72.94147396875,
            "velocity": 0.3937007874015748
          },
          {
            "duration": 0.10869549999999606,
            "durationTicks": 96,
            "midi": 54,
            "name": "F#3",
            "ticks": 64422,
            "time": 72.94147396875,
            "velocity": 0.3937007874015748
          },
          {
            "duration": 0.10869549999999606,
            "durationTicks": 96,
            "midi": 63,
            "name": "D#4",
            "ticks": 64422,
            "time": 72.94147396875,
            "velocity": 0.3937007874015748
          },
          {
            "duration": 0.43478199999999845,
            "durationTicks": 384,
            "midi": 63,
            "name": "D#4",
            "ticks": 64518,
            "time": 73.05016946875,
            "velocity": 0.3937007874015748
          },
          {
            "duration": 0.43478199999999845,
            "durationTicks": 384,
            "midi": 58,
            "name": "A#3",
            "ticks": 64518,
            "time": 73.05016946875,
            "velocity": 0.3937007874015748
          },
          {
            "duration": 0.21739100000000633,
            "durationTicks": 192,
            "midi": 34,
            "name": "A#1",
            "ticks": 64518,
            "time": 73.05016946875,
            "velocity": 0.3937007874015748
          },
          {
            "duration": 0.10869549999999606,
            "durationTicks": 96,
            "midi": 66,
            "name": "F#4",
            "ticks": 64518,
            "time": 73.05016946875,
            "velocity": 0.3937007874015748
          },
          {
            "duration": 0.3260865000000024,
            "durationTicks": 288,
            "midi": 54,
            "name": "F#3",
            "ticks": 64518,
            "time": 73.05016946875,
            "velocity": 0.3937007874015748
          },
          {
            "duration": 0.21739100000000633,
            "durationTicks": 192,
            "midi": 66,
            "name": "F#4",
            "ticks": 64518,
            "time": 73.05016946875,
            "velocity": 0.3937007874015748
          },
          {
            "duration": 0.10869549999999606,
            "durationTicks": 96,
            "midi": 56,
            "name": "G#3",
            "ticks": 64518,
            "time": 73.05016946875,
            "velocity": 0.3937007874015748
          },
          {
            "duration": 0.10869549999999606,
            "durationTicks": 96,
            "midi": 44,
            "name": "G#2",
            "ticks": 64518,
            "time": 73.05016946875,
            "velocity": 0.3937007874015748
          },
          {
            "duration": 0.21739100000000633,
            "durationTicks": 192,
            "midi": 78,
            "name": "F#5",
            "ticks": 64518,
            "time": 73.05016946875,
            "velocity": 0.3937007874015748
          },
          {
            "duration": 0.10869550000001027,
            "durationTicks": 96,
            "midi": 70,
            "name": "A#4",
            "ticks": 64614,
            "time": 73.15886496875,
            "velocity": 0.3937007874015748
          },
          {
            "duration": 0.21739099999999212,
            "durationTicks": 192,
            "midi": 65,
            "name": "F4",
            "ticks": 64710,
            "time": 73.26756046875,
            "velocity": 0.3937007874015748
          },
          {
            "duration": 0.21739099999999212,
            "durationTicks": 192,
            "midi": 54,
            "name": "F#3",
            "ticks": 64710,
            "time": 73.26756046875,
            "velocity": 0.3937007874015748
          },
          {
            "duration": 0.21739099999999212,
            "durationTicks": 192,
            "midi": 77,
            "name": "F5",
            "ticks": 64710,
            "time": 73.26756046875,
            "velocity": 0.3937007874015748
          },
          {
            "duration": 0.10869549999999606,
            "durationTicks": 96,
            "midi": 75,
            "name": "D#5",
            "ticks": 64710,
            "time": 73.26756046875,
            "velocity": 0.3937007874015748
          },
          {
            "duration": 0.21739099999999212,
            "durationTicks": 192,
            "midi": 34,
            "name": "A#1",
            "ticks": 64710,
            "time": 73.26756046875,
            "velocity": 0.3937007874015748
          },
          {
            "duration": 0.10869549999999606,
            "durationTicks": 96,
            "midi": 42,
            "name": "F#2",
            "ticks": 64710,
            "time": 73.26756046875,
            "velocity": 0.3937007874015748
          },
          {
            "duration": 0.10869549999999606,
            "durationTicks": 96,
            "midi": 78,
            "name": "F#5",
            "ticks": 64806,
            "time": 73.37625596875,
            "velocity": 0.3937007874015748
          },
          {
            "duration": 0.10869549999999606,
            "durationTicks": 96,
            "midi": 56,
            "name": "G#3",
            "ticks": 64806,
            "time": 73.37625596875,
            "velocity": 0.3937007874015748
          },
          {
            "duration": 0.10869549999999606,
            "durationTicks": 96,
            "midi": 44,
            "name": "G#2",
            "ticks": 64806,
            "time": 73.37625596875,
            "velocity": 0.3937007874015748
          },
          {
            "duration": 0.10869549999999606,
            "durationTicks": 96,
            "midi": 35,
            "name": "B1",
            "ticks": 64902,
            "time": 73.48495146875,
            "velocity": 0.3937007874015748
          },
          {
            "duration": 0.10869549999999606,
            "durationTicks": 96,
            "midi": 35,
            "name": "B1",
            "ticks": 64902,
            "time": 73.48495146875,
            "velocity": 0.3937007874015748
          },
          {
            "duration": 0.21739100000000633,
            "durationTicks": 192,
            "midi": 54,
            "name": "F#3",
            "ticks": 64902,
            "time": 73.48495146875,
            "velocity": 0.3937007874015748
          },
          {
            "duration": 0.21739100000000633,
            "durationTicks": 192,
            "midi": 34,
            "name": "A#1",
            "ticks": 64902,
            "time": 73.48495146875,
            "velocity": 0.3937007874015748
          },
          {
            "duration": 0.21739100000000633,
            "durationTicks": 192,
            "midi": 63,
            "name": "D#4",
            "ticks": 64902,
            "time": 73.48495146875,
            "velocity": 0.3937007874015748
          },
          {
            "duration": 0.21739100000000633,
            "durationTicks": 192,
            "midi": 75,
            "name": "D#5",
            "ticks": 64902,
            "time": 73.48495146875,
            "velocity": 0.3937007874015748
          },
          {
            "duration": 0.3260865000000024,
            "durationTicks": 288,
            "midi": 59,
            "name": "B3",
            "ticks": 64902,
            "time": 73.48495146875,
            "velocity": 0.3937007874015748
          },
          {
            "duration": 0.43478199999999845,
            "durationTicks": 384,
            "midi": 63,
            "name": "D#4",
            "ticks": 64902,
            "time": 73.48495146875,
            "velocity": 0.3937007874015748
          },
          {
            "duration": 0.10869549999999606,
            "durationTicks": 96,
            "midi": 51,
            "name": "D#3",
            "ticks": 64902,
            "time": 73.48495146875,
            "velocity": 0.3937007874015748
          },
          {
            "duration": 0.3260865000000024,
            "durationTicks": 288,
            "midi": 54,
            "name": "F#3",
            "ticks": 64998,
            "time": 73.59364696875,
            "velocity": 0.3937007874015748
          },
          {
            "duration": 0.21739099999999212,
            "durationTicks": 192,
            "midi": 59,
            "name": "B3",
            "ticks": 65094,
            "time": 73.70234246875,
            "velocity": 0.3937007874015748
          },
          {
            "duration": 0.21739099999999212,
            "durationTicks": 192,
            "midi": 65,
            "name": "F4",
            "ticks": 65094,
            "time": 73.70234246875,
            "velocity": 0.3937007874015748
          },
          {
            "duration": 0.10869549999999606,
            "durationTicks": 96,
            "midi": 47,
            "name": "B2",
            "ticks": 65094,
            "time": 73.70234246875,
            "velocity": 0.3937007874015748
          },
          {
            "duration": 0.10869549999999606,
            "durationTicks": 96,
            "midi": 35,
            "name": "B1",
            "ticks": 65094,
            "time": 73.70234246875,
            "velocity": 0.3937007874015748
          },
          {
            "duration": 0.21739099999999212,
            "durationTicks": 192,
            "midi": 77,
            "name": "F5",
            "ticks": 65094,
            "time": 73.70234246875,
            "velocity": 0.3937007874015748
          },
          {
            "duration": 0.10869549999999606,
            "durationTicks": 96,
            "midi": 47,
            "name": "B2",
            "ticks": 65190,
            "time": 73.81103796875,
            "velocity": 0.3937007874015748
          },
          {
            "duration": 0.10869549999999606,
            "durationTicks": 96,
            "midi": 35,
            "name": "B1",
            "ticks": 65190,
            "time": 73.81103796875,
            "velocity": 0.3937007874015748
          },
          {
            "duration": 0.10869549999999606,
            "durationTicks": 96,
            "midi": 63,
            "name": "D#4",
            "ticks": 65190,
            "time": 73.81103796875,
            "velocity": 0.3937007874015748
          },
          {
            "duration": 0.10869550000001027,
            "durationTicks": 96,
            "midi": 66,
            "name": "F#4",
            "ticks": 65286,
            "time": 73.91973346875,
            "velocity": 0.3937007874015748
          },
          {
            "duration": 0.10869550000001027,
            "durationTicks": 96,
            "midi": 35,
            "name": "B1",
            "ticks": 65286,
            "time": 73.91973346875,
            "velocity": 0.3937007874015748
          },
          {
            "duration": 0.10869550000001027,
            "durationTicks": 96,
            "midi": 35,
            "name": "B1",
            "ticks": 65286,
            "time": 73.91973346875,
            "velocity": 0.3937007874015748
          },
          {
            "duration": 0.43478199999999845,
            "durationTicks": 384,
            "midi": 54,
            "name": "F#3",
            "ticks": 65286,
            "time": 73.91973346875,
            "velocity": 0.3937007874015748
          },
          {
            "duration": 0.21739100000000633,
            "durationTicks": 192,
            "midi": 34,
            "name": "A#1",
            "ticks": 65286,
            "time": 73.91973346875,
            "velocity": 0.3937007874015748
          },
          {
            "duration": 0.21739100000000633,
            "durationTicks": 192,
            "midi": 66,
            "name": "F#4",
            "ticks": 65286,
            "time": 73.91973346875,
            "velocity": 0.3937007874015748
          },
          {
            "duration": 0.21739100000000633,
            "durationTicks": 192,
            "midi": 78,
            "name": "F#5",
            "ticks": 65286,
            "time": 73.91973346875,
            "velocity": 0.3937007874015748
          },
          {
            "duration": 0.43478199999999845,
            "durationTicks": 384,
            "midi": 59,
            "name": "B3",
            "ticks": 65286,
            "time": 73.91973346875,
            "velocity": 0.3937007874015748
          },
          {
            "duration": 0.43478199999999845,
            "durationTicks": 384,
            "midi": 63,
            "name": "D#4",
            "ticks": 65286,
            "time": 73.91973346875,
            "velocity": 0.3937007874015748
          },
          {
            "duration": 0.10869549999999606,
            "durationTicks": 96,
            "midi": 47,
            "name": "B2",
            "ticks": 65382,
            "time": 74.02842896875,
            "velocity": 0.3937007874015748
          },
          {
            "duration": 0.10869549999999606,
            "durationTicks": 96,
            "midi": 71,
            "name": "B4",
            "ticks": 65382,
            "time": 74.02842896875,
            "velocity": 0.3937007874015748
          },
          {
            "duration": 0.10869549999999606,
            "durationTicks": 96,
            "midi": 35,
            "name": "B1",
            "ticks": 65382,
            "time": 74.02842896875,
            "velocity": 0.3937007874015748
          },
          {
            "duration": 0.10869549999999606,
            "durationTicks": 96,
            "midi": 46,
            "name": "A#2",
            "ticks": 65478,
            "time": 74.13712446875,
            "velocity": 0.3937007874015748
          },
          {
            "duration": 0.10869549999999606,
            "durationTicks": 96,
            "midi": 75,
            "name": "D#5",
            "ticks": 65478,
            "time": 74.13712446875,
            "velocity": 0.3937007874015748
          },
          {
            "duration": 0.10869549999999606,
            "durationTicks": 96,
            "midi": 34,
            "name": "A#1",
            "ticks": 65478,
            "time": 74.13712446875,
            "velocity": 0.3937007874015748
          },
          {
            "duration": 0.21739099999999212,
            "durationTicks": 192,
            "midi": 68,
            "name": "G#4",
            "ticks": 65478,
            "time": 74.13712446875,
            "velocity": 0.3937007874015748
          },
          {
            "duration": 0.21739099999999212,
            "durationTicks": 192,
            "midi": 80,
            "name": "G#5",
            "ticks": 65478,
            "time": 74.13712446875,
            "velocity": 0.3937007874015748
          },
          {
            "duration": 0.10869549999999606,
            "durationTicks": 96,
            "midi": 47,
            "name": "B2",
            "ticks": 65574,
            "time": 74.24581996875,
            "velocity": 0.3937007874015748
          },
          {
            "duration": 0.10869549999999606,
            "durationTicks": 96,
            "midi": 35,
            "name": "B1",
            "ticks": 65574,
            "time": 74.24581996875,
            "velocity": 0.3937007874015748
          },
          {
            "duration": 0.10869549999999606,
            "durationTicks": 96,
            "midi": 78,
            "name": "F#5",
            "ticks": 65574,
            "time": 74.24581996875,
            "velocity": 0.3937007874015748
          },
          {
            "duration": 0.10869550000001027,
            "durationTicks": 96,
            "midi": 35,
            "name": "B1",
            "ticks": 65670,
            "time": 74.35451546875,
            "velocity": 0.3937007874015748
          },
          {
            "duration": 0.10869550000001027,
            "durationTicks": 96,
            "midi": 35,
            "name": "B1",
            "ticks": 65670,
            "time": 74.35451546875,
            "velocity": 0.3937007874015748
          },
          {
            "duration": 0.21739100000000633,
            "durationTicks": 192,
            "midi": 34,
            "name": "A#1",
            "ticks": 65670,
            "time": 74.35451546875,
            "velocity": 0.3937007874015748
          },
          {
            "duration": 0.21739100000000633,
            "durationTicks": 192,
            "midi": 70,
            "name": "A#4",
            "ticks": 65670,
            "time": 74.35451546875,
            "velocity": 0.3937007874015748
          },
          {
            "duration": 0.10869550000001027,
            "durationTicks": 96,
            "midi": 51,
            "name": "D#3",
            "ticks": 65670,
            "time": 74.35451546875,
            "velocity": 0.3937007874015748
          },
          {
            "duration": 0.21739100000000633,
            "durationTicks": 192,
            "midi": 82,
            "name": "A#5",
            "ticks": 65670,
            "time": 74.35451546875,
            "velocity": 0.3937007874015748
          },
          {
            "duration": 0.3260865000000024,
            "durationTicks": 288,
            "midi": 59,
            "name": "B3",
            "ticks": 65670,
            "time": 74.35451546875,
            "velocity": 0.3937007874015748
          },
          {
            "duration": 0.43478200000001266,
            "durationTicks": 384,
            "midi": 63,
            "name": "D#4",
            "ticks": 65670,
            "time": 74.35451546875,
            "velocity": 0.3937007874015748
          },
          {
            "duration": 0.21739100000000633,
            "durationTicks": 192,
            "midi": 54,
            "name": "F#3",
            "ticks": 65670,
            "time": 74.35451546875,
            "velocity": 0.3937007874015748
          },
          {
            "duration": 0.3260865000000024,
            "durationTicks": 288,
            "midi": 54,
            "name": "F#3",
            "ticks": 65766,
            "time": 74.46321096875,
            "velocity": 0.3937007874015748
          },
          {
            "duration": 0.10869549999999606,
            "durationTicks": 96,
            "midi": 47,
            "name": "B2",
            "ticks": 65862,
            "time": 74.57190646875,
            "velocity": 0.3937007874015748
          },
          {
            "duration": 0.10869549999999606,
            "durationTicks": 96,
            "midi": 35,
            "name": "B1",
            "ticks": 65862,
            "time": 74.57190646875,
            "velocity": 0.3937007874015748
          },
          {
            "duration": 0.21739100000000633,
            "durationTicks": 192,
            "midi": 59,
            "name": "B3",
            "ticks": 65862,
            "time": 74.57190646875,
            "velocity": 0.3937007874015748
          },
          {
            "duration": 0.10869550000001027,
            "durationTicks": 96,
            "midi": 47,
            "name": "B2",
            "ticks": 65958,
            "time": 74.68060196875,
            "velocity": 0.3937007874015748
          },
          {
            "duration": 0.10869550000001027,
            "durationTicks": 96,
            "midi": 63,
            "name": "D#4",
            "ticks": 65958,
            "time": 74.68060196875,
            "velocity": 0.3937007874015748
          },
          {
            "duration": 0.10869550000001027,
            "durationTicks": 96,
            "midi": 35,
            "name": "B1",
            "ticks": 65958,
            "time": 74.68060196875,
            "velocity": 0.3937007874015748
          },
          {
            "duration": 0.21739099999999212,
            "durationTicks": 192,
            "midi": 34,
            "name": "A#1",
            "ticks": 66054,
            "time": 74.78929746875001,
            "velocity": 0.3937007874015748
          },
          {
            "duration": 0.10869549999999606,
            "durationTicks": 96,
            "midi": 35,
            "name": "B1",
            "ticks": 66054,
            "time": 74.78929746875001,
            "velocity": 0.3937007874015748
          },
          {
            "duration": 0.10869549999999606,
            "durationTicks": 96,
            "midi": 35,
            "name": "B1",
            "ticks": 66054,
            "time": 74.78929746875001,
            "velocity": 0.3937007874015748
          },
          {
            "duration": 0.43478199999999845,
            "durationTicks": 384,
            "midi": 54,
            "name": "F#3",
            "ticks": 66054,
            "time": 74.78929746875001,
            "velocity": 0.3937007874015748
          },
          {
            "duration": 0.21739099999999212,
            "durationTicks": 192,
            "midi": 68,
            "name": "G#4",
            "ticks": 66054,
            "time": 74.78929746875001,
            "velocity": 0.3937007874015748
          },
          {
            "duration": 0.43478199999999845,
            "durationTicks": 384,
            "midi": 63,
            "name": "D#4",
            "ticks": 66054,
            "time": 74.78929746875001,
            "velocity": 0.3937007874015748
          },
          {
            "duration": 0.21739099999999212,
            "durationTicks": 192,
            "midi": 80,
            "name": "G#5",
            "ticks": 66054,
            "time": 74.78929746875001,
            "velocity": 0.3937007874015748
          },
          {
            "duration": 0.43478199999999845,
            "durationTicks": 384,
            "midi": 59,
            "name": "B3",
            "ticks": 66054,
            "time": 74.78929746875001,
            "velocity": 0.3937007874015748
          },
          {
            "duration": 0.10869549999999606,
            "durationTicks": 96,
            "midi": 66,
            "name": "F#4",
            "ticks": 66054,
            "time": 74.78929746875001,
            "velocity": 0.3937007874015748
          },
          {
            "duration": 0.10869549999999606,
            "durationTicks": 96,
            "midi": 71,
            "name": "B4",
            "ticks": 66150,
            "time": 74.89799296875,
            "velocity": 0.3937007874015748
          },
          {
            "duration": 0.10869549999999606,
            "durationTicks": 96,
            "midi": 47,
            "name": "B2",
            "ticks": 66150,
            "time": 74.89799296875,
            "velocity": 0.3937007874015748
          },
          {
            "duration": 0.10869549999999606,
            "durationTicks": 96,
            "midi": 35,
            "name": "B1",
            "ticks": 66150,
            "time": 74.89799296875,
            "velocity": 0.3937007874015748
          },
          {
            "duration": 0.10869549999999606,
            "durationTicks": 96,
            "midi": 46,
            "name": "A#2",
            "ticks": 66246,
            "time": 75.00668846875,
            "velocity": 0.3937007874015748
          },
          {
            "duration": 0.10869549999999606,
            "durationTicks": 96,
            "midi": 75,
            "name": "D#5",
            "ticks": 66246,
            "time": 75.00668846875,
            "velocity": 0.3937007874015748
          },
          {
            "duration": 0.10869549999999606,
            "durationTicks": 96,
            "midi": 34,
            "name": "A#1",
            "ticks": 66246,
            "time": 75.00668846875,
            "velocity": 0.3937007874015748
          },
          {
            "duration": 0.21739100000000633,
            "durationTicks": 192,
            "midi": 78,
            "name": "F#5",
            "ticks": 66246,
            "time": 75.00668846875,
            "velocity": 0.3937007874015748
          },
          {
            "duration": 0.21739100000000633,
            "durationTicks": 192,
            "midi": 66,
            "name": "F#4",
            "ticks": 66246,
            "time": 75.00668846875,
            "velocity": 0.3937007874015748
          },
          {
            "duration": 0.10869550000001027,
            "durationTicks": 96,
            "midi": 35,
            "name": "B1",
            "ticks": 66342,
            "time": 75.11538396875,
            "velocity": 0.3937007874015748
          },
          {
            "duration": 0.10869550000001027,
            "durationTicks": 96,
            "midi": 47,
            "name": "B2",
            "ticks": 66342,
            "time": 75.11538396875,
            "velocity": 0.3937007874015748
          },
          {
            "duration": 0.10869550000001027,
            "durationTicks": 96,
            "midi": 78,
            "name": "F#5",
            "ticks": 66342,
            "time": 75.11538396875,
            "velocity": 0.3937007874015748
          },
          {
            "duration": 0.10869549999999606,
            "durationTicks": 96,
            "midi": 49,
            "name": "C#3",
            "ticks": 66438,
            "time": 75.22407946875,
            "velocity": 0.3937007874015748
          },
          {
            "duration": 0.21739099999999212,
            "durationTicks": 192,
            "midi": 53,
            "name": "F3",
            "ticks": 66438,
            "time": 75.22407946875,
            "velocity": 0.3937007874015748
          },
          {
            "duration": 0.21739099999999212,
            "durationTicks": 192,
            "midi": 65,
            "name": "F4",
            "ticks": 66438,
            "time": 75.22407946875,
            "velocity": 0.3937007874015748
          },
          {
            "duration": 0.10869549999999606,
            "durationTicks": 96,
            "midi": 37,
            "name": "C#2",
            "ticks": 66438,
            "time": 75.22407946875,
            "velocity": 0.3937007874015748
          },
          {
            "duration": 0.10869549999999606,
            "durationTicks": 96,
            "midi": 25,
            "name": "C#1",
            "ticks": 66438,
            "time": 75.22407946875,
            "velocity": 0.3937007874015748
          },
          {
            "duration": 0.43478199999999845,
            "durationTicks": 384,
            "midi": 61,
            "name": "C#4",
            "ticks": 66438,
            "time": 75.22407946875,
            "velocity": 0.3937007874015748
          },
          {
            "duration": 0.3260864999999882,
            "durationTicks": 288,
            "midi": 56,
            "name": "G#3",
            "ticks": 66438,
            "time": 75.22407946875,
            "velocity": 0.3937007874015748
          },
          {
            "duration": 0.21739099999999212,
            "durationTicks": 192,
            "midi": 77,
            "name": "F5",
            "ticks": 66438,
            "time": 75.22407946875,
            "velocity": 0.3937007874015748
          },
          {
            "duration": 0.21739099999999212,
            "durationTicks": 192,
            "midi": 34,
            "name": "A#1",
            "ticks": 66438,
            "time": 75.22407946875,
            "velocity": 0.3937007874015748
          },
          {
            "duration": 0.3260865000000024,
            "durationTicks": 288,
            "midi": 53,
            "name": "F3",
            "ticks": 66534,
            "time": 75.33277496875,
            "velocity": 0.3937007874015748
          },
          {
            "duration": 0.10869549999999606,
            "durationTicks": 96,
            "midi": 37,
            "name": "C#2",
            "ticks": 66630,
            "time": 75.44147046875,
            "velocity": 0.3937007874015748
          },
          {
            "duration": 0.10869549999999606,
            "durationTicks": 96,
            "midi": 49,
            "name": "C#3",
            "ticks": 66630,
            "time": 75.44147046875,
            "velocity": 0.3937007874015748
          },
          {
            "duration": 0.21739100000000633,
            "durationTicks": 192,
            "midi": 56,
            "name": "G#3",
            "ticks": 66630,
            "time": 75.44147046875,
            "velocity": 0.3937007874015748
          },
          {
            "duration": 0.10869550000001027,
            "durationTicks": 96,
            "midi": 49,
            "name": "C#3",
            "ticks": 66726,
            "time": 75.55016596875,
            "velocity": 0.3937007874015748
          },
          {
            "duration": 0.10869550000001027,
            "durationTicks": 96,
            "midi": 37,
            "name": "C#2",
            "ticks": 66726,
            "time": 75.55016596875,
            "velocity": 0.3937007874015748
          },
          {
            "duration": 0.10869550000001027,
            "durationTicks": 96,
            "midi": 61,
            "name": "C#4",
            "ticks": 66726,
            "time": 75.55016596875,
            "velocity": 0.3937007874015748
          },
          {
            "duration": 0.10869549999999606,
            "durationTicks": 96,
            "midi": 37,
            "name": "C#2",
            "ticks": 66822,
            "time": 75.65886146875,
            "velocity": 0.3937007874015748
          },
          {
            "duration": 0.21739099999999212,
            "durationTicks": 192,
            "midi": 34,
            "name": "A#1",
            "ticks": 66822,
            "time": 75.65886146875,
            "velocity": 0.3937007874015748
          },
          {
            "duration": 0.43478199999999845,
            "durationTicks": 384,
            "midi": 53,
            "name": "F3",
            "ticks": 66822,
            "time": 75.65886146875,
            "velocity": 0.3937007874015748
          },
          {
            "duration": 0.43478199999999845,
            "durationTicks": 384,
            "midi": 56,
            "name": "G#3",
            "ticks": 66822,
            "time": 75.65886146875,
            "velocity": 0.3937007874015748
          },
          {
            "duration": 0.43478199999999845,
            "durationTicks": 384,
            "midi": 66,
            "name": "F#4",
            "ticks": 66822,
            "time": 75.65886146875,
            "velocity": 0.3937007874015748
          },
          {
            "duration": 0.43478199999999845,
            "durationTicks": 384,
            "midi": 78,
            "name": "F#5",
            "ticks": 66822,
            "time": 75.65886146875,
            "velocity": 0.3937007874015748
          },
          {
            "duration": 0.10869549999999606,
            "durationTicks": 96,
            "midi": 65,
            "name": "F4",
            "ticks": 66822,
            "time": 75.65886146875,
            "velocity": 0.3937007874015748
          },
          {
            "duration": 0.43478199999999845,
            "durationTicks": 384,
            "midi": 61,
            "name": "C#4",
            "ticks": 66822,
            "time": 75.65886146875,
            "velocity": 0.3937007874015748
          },
          {
            "duration": 0.10869549999999606,
            "durationTicks": 96,
            "midi": 25,
            "name": "C#1",
            "ticks": 66822,
            "time": 75.65886146875,
            "velocity": 0.3937007874015748
          },
          {
            "duration": 0.10869549999999606,
            "durationTicks": 96,
            "midi": 68,
            "name": "G#4",
            "ticks": 66918,
            "time": 75.76755696875,
            "velocity": 0.3937007874015748
          },
          {
            "duration": 0.10869549999999606,
            "durationTicks": 96,
            "midi": 49,
            "name": "C#3",
            "ticks": 66918,
            "time": 75.76755696875,
            "velocity": 0.3937007874015748
          },
          {
            "duration": 0.10869549999999606,
            "durationTicks": 96,
            "midi": 37,
            "name": "C#2",
            "ticks": 66918,
            "time": 75.76755696875,
            "velocity": 0.3937007874015748
          },
          {
            "duration": 0.10869550000001027,
            "durationTicks": 96,
            "midi": 35,
            "name": "B1",
            "ticks": 67014,
            "time": 75.87625246875,
            "velocity": 0.3937007874015748
          },
          {
            "duration": 0.10869550000001027,
            "durationTicks": 96,
            "midi": 47,
            "name": "B2",
            "ticks": 67014,
            "time": 75.87625246875,
            "velocity": 0.3937007874015748
          },
          {
            "duration": 0.10869550000001027,
            "durationTicks": 96,
            "midi": 73,
            "name": "C#5",
            "ticks": 67014,
            "time": 75.87625246875,
            "velocity": 0.3937007874015748
          },
          {
            "duration": 0.10869549999999606,
            "durationTicks": 96,
            "midi": 49,
            "name": "C#3",
            "ticks": 67110,
            "time": 75.98494796875,
            "velocity": 0.3937007874015748
          },
          {
            "duration": 0.10869549999999606,
            "durationTicks": 96,
            "midi": 77,
            "name": "F5",
            "ticks": 67110,
            "time": 75.98494796875,
            "velocity": 0.3937007874015748
          },
          {
            "duration": 0.10869549999999606,
            "durationTicks": 96,
            "midi": 37,
            "name": "C#2",
            "ticks": 67110,
            "time": 75.98494796875,
            "velocity": 0.3937007874015748
          },
          {
            "duration": 0.10869549999999606,
            "durationTicks": 96,
            "midi": 58,
            "name": "A#3",
            "ticks": 67206,
            "time": 76.09364346875,
            "velocity": 0.3937007874015748
          },
          {
            "duration": 0.10869549999999606,
            "durationTicks": 96,
            "midi": 50,
            "name": "D3",
            "ticks": 67206,
            "time": 76.09364346875,
            "velocity": 0.3937007874015748
          },
          {
            "duration": 0.4359142447916611,
            "durationTicks": 385,
            "midi": 68,
            "name": "G#4",
            "ticks": 67206,
            "time": 76.09364346875,
            "velocity": 0.3937007874015748
          },
          {
            "duration": 0.10869549999999606,
            "durationTicks": 96,
            "midi": 53,
            "name": "F3",
            "ticks": 67206,
            "time": 76.09364346875,
            "velocity": 0.3937007874015748
          },
          {
            "duration": 0.10869549999999606,
            "durationTicks": 96,
            "midi": 38,
            "name": "D2",
            "ticks": 67206,
            "time": 76.09364346875,
            "velocity": 0.3937007874015748
          },
          {
            "duration": 0.10869549999999606,
            "durationTicks": 96,
            "midi": 50,
            "name": "D3",
            "ticks": 67206,
            "time": 76.09364346875,
            "velocity": 0.3937007874015748
          },
          {
            "duration": 0.6533052447916674,
            "durationTicks": 577,
            "midi": 87,
            "name": "D#6",
            "ticks": 67206,
            "time": 76.09364346875,
            "velocity": 0.3937007874015748
          },
          {
            "duration": 0.10869549999999606,
            "durationTicks": 96,
            "midi": 62,
            "name": "D4",
            "ticks": 67206,
            "time": 76.09364346875,
            "velocity": 0.3937007874015748
          },
          {
            "duration": 0.10869549999999606,
            "durationTicks": 96,
            "midi": 34,
            "name": "A#1",
            "ticks": 67206,
            "time": 76.09364346875,
            "velocity": 0.3937007874015748
          },
          {
            "duration": 0.4359142447916611,
            "durationTicks": 385,
            "midi": 80,
            "name": "G#5",
            "ticks": 67206,
            "time": 76.09364346875,
            "velocity": 0.3937007874015748
          },
          {
            "duration": 0.10869549999999606,
            "durationTicks": 96,
            "midi": 53,
            "name": "F3",
            "ticks": 67302,
            "time": 76.20233896875,
            "velocity": 0.3937007874015748
          },
          {
            "duration": 0.10869549999999606,
            "durationTicks": 96,
            "midi": 34,
            "name": "A#1",
            "ticks": 67334,
            "time": 76.23857080208334,
            "velocity": 0.3937007874015748
          },
          {
            "duration": 0.10869549999999606,
            "durationTicks": 96,
            "midi": 62,
            "name": "D4",
            "ticks": 67334,
            "time": 76.23857080208334,
            "velocity": 0.3937007874015748
          },
          {
            "duration": 0.10869549999999606,
            "durationTicks": 96,
            "midi": 53,
            "name": "F3",
            "ticks": 67334,
            "time": 76.23857080208334,
            "velocity": 0.3937007874015748
          },
          {
            "duration": 0.10869549999999606,
            "durationTicks": 96,
            "midi": 58,
            "name": "A#3",
            "ticks": 67334,
            "time": 76.23857080208334,
            "velocity": 0.3937007874015748
          },
          {
            "duration": 0.1098277447916729,
            "durationTicks": 97,
            "midi": 48,
            "name": "C3",
            "ticks": 67398,
            "time": 76.31103446875,
            "velocity": 0.3937007874015748
          },
          {
            "duration": 0.1098277447916729,
            "durationTicks": 97,
            "midi": 36,
            "name": "C2",
            "ticks": 67398,
            "time": 76.31103446875,
            "velocity": 0.3937007874015748
          },
          {
            "duration": 0.1098277447916729,
            "durationTicks": 97,
            "midi": 58,
            "name": "A#3",
            "ticks": 67398,
            "time": 76.31103446875,
            "velocity": 0.3937007874015748
          },
          {
            "duration": 0.10869549999999606,
            "durationTicks": 96,
            "midi": 34,
            "name": "A#1",
            "ticks": 67463,
            "time": 76.38463038020834,
            "velocity": 0.3937007874015748
          },
          {
            "duration": 0.10869549999999606,
            "durationTicks": 96,
            "midi": 62,
            "name": "D4",
            "ticks": 67463,
            "time": 76.38463038020834,
            "velocity": 0.3937007874015748
          },
          {
            "duration": 0.10869549999999606,
            "durationTicks": 96,
            "midi": 53,
            "name": "F3",
            "ticks": 67463,
            "time": 76.38463038020834,
            "velocity": 0.3937007874015748
          },
          {
            "duration": 0.10869549999999606,
            "durationTicks": 96,
            "midi": 58,
            "name": "A#3",
            "ticks": 67463,
            "time": 76.38463038020834,
            "velocity": 0.3937007874015748
          },
          {
            "duration": 0.10869549999999606,
            "durationTicks": 96,
            "midi": 38,
            "name": "D2",
            "ticks": 67495,
            "time": 76.42086221354167,
            "velocity": 0.3937007874015748
          },
          {
            "duration": 0.10869549999999606,
            "durationTicks": 96,
            "midi": 50,
            "name": "D3",
            "ticks": 67495,
            "time": 76.42086221354167,
            "velocity": 0.3937007874015748
          },
          {
            "duration": 0.10869549999999606,
            "durationTicks": 96,
            "midi": 62,
            "name": "D4",
            "ticks": 67495,
            "time": 76.42086221354167,
            "velocity": 0.3937007874015748
          },
          {
            "duration": 0.10869549999999606,
            "durationTicks": 96,
            "midi": 62,
            "name": "D4",
            "ticks": 67591,
            "time": 76.52955771354166,
            "velocity": 0.3937007874015748
          },
          {
            "duration": 0.10869549999999606,
            "durationTicks": 96,
            "midi": 65,
            "name": "F4",
            "ticks": 67591,
            "time": 76.52955771354166,
            "velocity": 0.3937007874015748
          },
          {
            "duration": 0.10869549999999606,
            "durationTicks": 96,
            "midi": 41,
            "name": "F2",
            "ticks": 67591,
            "time": 76.52955771354166,
            "velocity": 0.3937007874015748
          },
          {
            "duration": 0.10869549999999606,
            "durationTicks": 96,
            "midi": 53,
            "name": "F3",
            "ticks": 67591,
            "time": 76.52955771354166,
            "velocity": 0.3937007874015748
          },
          {
            "duration": 0.10869549999999606,
            "durationTicks": 96,
            "midi": 53,
            "name": "F3",
            "ticks": 67591,
            "time": 76.52955771354166,
            "velocity": 0.3937007874015748
          },
          {
            "duration": 0.10869549999999606,
            "durationTicks": 96,
            "midi": 34,
            "name": "A#1",
            "ticks": 67591,
            "time": 76.52955771354166,
            "velocity": 0.3937007874015748
          },
          {
            "duration": 0.21739100000000633,
            "durationTicks": 192,
            "midi": 70,
            "name": "A#4",
            "ticks": 67591,
            "time": 76.52955771354166,
            "velocity": 0.3937007874015748
          },
          {
            "duration": 0.10869549999999606,
            "durationTicks": 96,
            "midi": 58,
            "name": "A#3",
            "ticks": 67591,
            "time": 76.52955771354166,
            "velocity": 0.3937007874015748
          },
          {
            "duration": 0.4359142447916753,
            "durationTicks": 385,
            "midi": 82,
            "name": "A#5",
            "ticks": 67591,
            "time": 76.52955771354166,
            "velocity": 0.3937007874015748
          },
          {
            "duration": 0.32721874479167923,
            "durationTicks": 289,
            "midi": 70,
            "name": "A#4",
            "ticks": 67687,
            "time": 76.63825321354166,
            "velocity": 0.3937007874015748
          },
          {
            "duration": 0.10869549999999606,
            "durationTicks": 96,
            "midi": 58,
            "name": "A#3",
            "ticks": 67719,
            "time": 76.674485046875,
            "velocity": 0.3937007874015748
          },
          {
            "duration": 0.10869549999999606,
            "durationTicks": 96,
            "midi": 53,
            "name": "F3",
            "ticks": 67719,
            "time": 76.674485046875,
            "velocity": 0.3937007874015748
          },
          {
            "duration": 0.10869549999999606,
            "durationTicks": 96,
            "midi": 62,
            "name": "D4",
            "ticks": 67719,
            "time": 76.674485046875,
            "velocity": 0.3937007874015748
          },
          {
            "duration": 0.10869549999999606,
            "durationTicks": 96,
            "midi": 34,
            "name": "A#1",
            "ticks": 67719,
            "time": 76.674485046875,
            "velocity": 0.3937007874015748
          },
          {
            "duration": 0.1098277447916729,
            "durationTicks": 97,
            "midi": 39,
            "name": "D#2",
            "ticks": 67783,
            "time": 76.74694871354167,
            "velocity": 0.3937007874015748
          },
          {
            "duration": 0.1098277447916729,
            "durationTicks": 97,
            "midi": 74,
            "name": "D5",
            "ticks": 67783,
            "time": 76.74694871354167,
            "velocity": 0.3937007874015748
          },
          {
            "duration": 0.1098277447916729,
            "durationTicks": 97,
            "midi": 51,
            "name": "D#3",
            "ticks": 67783,
            "time": 76.74694871354167,
            "velocity": 0.3937007874015748
          },
          {
            "duration": 0.10869550000001027,
            "durationTicks": 96,
            "midi": 62,
            "name": "D4",
            "ticks": 67848,
            "time": 76.820544625,
            "velocity": 0.3937007874015748
          },
          {
            "duration": 0.10869550000001027,
            "durationTicks": 96,
            "midi": 58,
            "name": "A#3",
            "ticks": 67848,
            "time": 76.820544625,
            "velocity": 0.3937007874015748
          },
          {
            "duration": 0.10869550000001027,
            "durationTicks": 96,
            "midi": 34,
            "name": "A#1",
            "ticks": 67848,
            "time": 76.820544625,
            "velocity": 0.3937007874015748
          },
          {
            "duration": 0.10869550000001027,
            "durationTicks": 96,
            "midi": 53,
            "name": "F3",
            "ticks": 67848,
            "time": 76.820544625,
            "velocity": 0.3937007874015748
          },
          {
            "duration": 0.10869549999999606,
            "durationTicks": 96,
            "midi": 41,
            "name": "F2",
            "ticks": 67880,
            "time": 76.85677645833334,
            "velocity": 0.3937007874015748
          },
          {
            "duration": 0.10869549999999606,
            "durationTicks": 96,
            "midi": 77,
            "name": "F5",
            "ticks": 67880,
            "time": 76.85677645833334,
            "velocity": 0.3937007874015748
          },
          {
            "duration": 0.10869549999999606,
            "durationTicks": 96,
            "midi": 53,
            "name": "F3",
            "ticks": 67880,
            "time": 76.85677645833334,
            "velocity": 0.3937007874015748
          },
          {
            "duration": 0.21739099999999212,
            "durationTicks": 192,
            "midi": 54,
            "name": "F#3",
            "ticks": 67976,
            "time": 76.96547195833334,
            "velocity": 0.3937007874015748
          },
          {
            "duration": 0.21739099999999212,
            "durationTicks": 192,
            "midi": 58,
            "name": "A#3",
            "ticks": 67976,
            "time": 76.96547195833334,
            "velocity": 0.3937007874015748
          },
          {
            "duration": 0.10869549999999606,
            "durationTicks": 96,
            "midi": 27,
            "name": "D#1",
            "ticks": 67976,
            "time": 76.96547195833334,
            "velocity": 0.3937007874015748
          },
          {
            "duration": 0.21739099999999212,
            "durationTicks": 192,
            "midi": 75,
            "name": "D#5",
            "ticks": 67976,
            "time": 76.96547195833334,
            "velocity": 0.3937007874015748
          },
          {
            "duration": 0.21739099999999212,
            "durationTicks": 192,
            "midi": 34,
            "name": "A#1",
            "ticks": 67976,
            "time": 76.96547195833334,
            "velocity": 0.3937007874015748
          },
          {
            "duration": 0.21739099999999212,
            "durationTicks": 192,
            "midi": 63,
            "name": "D#4",
            "ticks": 67976,
            "time": 76.96547195833334,
            "velocity": 0.3937007874015748
          },
          {
            "duration": 0.43478199999999845,
            "durationTicks": 384,
            "midi": 63,
            "name": "D#4",
            "ticks": 67976,
            "time": 76.96547195833334,
            "velocity": 0.3937007874015748
          },
          {
            "duration": 0.10869549999999606,
            "durationTicks": 96,
            "midi": 39,
            "name": "D#2",
            "ticks": 67976,
            "time": 76.96547195833334,
            "velocity": 0.3937007874015748
          },
          {
            "duration": 0.10869549999999606,
            "durationTicks": 96,
            "midi": 51,
            "name": "D#3",
            "ticks": 67976,
            "time": 76.96547195833334,
            "velocity": 0.3937007874015748
          },
          {
            "duration": 0.3260865000000024,
            "durationTicks": 288,
            "midi": 58,
            "name": "A#3",
            "ticks": 67976,
            "time": 76.96547195833334,
            "velocity": 0.3937007874015748
          },
          {
            "duration": 0.21739099999999212,
            "durationTicks": 192,
            "midi": 70,
            "name": "A#4",
            "ticks": 67976,
            "time": 76.96547195833334,
            "velocity": 0.3937007874015748
          },
          {
            "duration": 0.3260865000000024,
            "durationTicks": 288,
            "midi": 54,
            "name": "F#3",
            "ticks": 68072,
            "time": 77.07416745833333,
            "velocity": 0.3937007874015748
          },
          {
            "duration": 0.21739100000000633,
            "durationTicks": 192,
            "midi": 77,
            "name": "F5",
            "ticks": 68168,
            "time": 77.18286295833333,
            "velocity": 0.3937007874015748
          },
          {
            "duration": 0.10869550000001027,
            "durationTicks": 96,
            "midi": 51,
            "name": "D#3",
            "ticks": 68168,
            "time": 77.18286295833333,
            "velocity": 0.3937007874015748
          },
          {
            "duration": 0.21739100000000633,
            "durationTicks": 192,
            "midi": 65,
            "name": "F4",
            "ticks": 68168,
            "time": 77.18286295833333,
            "velocity": 0.3937007874015748
          },
          {
            "duration": 0.21739100000000633,
            "durationTicks": 192,
            "midi": 73,
            "name": "C#5",
            "ticks": 68168,
            "time": 77.18286295833333,
            "velocity": 0.3937007874015748
          },
          {
            "duration": 0.21739100000000633,
            "durationTicks": 192,
            "midi": 61,
            "name": "C#4",
            "ticks": 68168,
            "time": 77.18286295833333,
            "velocity": 0.3937007874015748
          },
          {
            "duration": 0.21739100000000633,
            "durationTicks": 192,
            "midi": 58,
            "name": "A#3",
            "ticks": 68168,
            "time": 77.18286295833333,
            "velocity": 0.3937007874015748
          },
          {
            "duration": 0.10869550000001027,
            "durationTicks": 96,
            "midi": 39,
            "name": "D#2",
            "ticks": 68168,
            "time": 77.18286295833333,
            "velocity": 0.3937007874015748
          },
          {
            "duration": 0.10869549999999606,
            "durationTicks": 96,
            "midi": 51,
            "name": "D#3",
            "ticks": 68264,
            "time": 77.29155845833334,
            "velocity": 0.3937007874015748
          },
          {
            "duration": 0.10869549999999606,
            "durationTicks": 96,
            "midi": 39,
            "name": "D#2",
            "ticks": 68264,
            "time": 77.29155845833334,
            "velocity": 0.3937007874015748
          },
          {
            "duration": 0.10869549999999606,
            "durationTicks": 96,
            "midi": 63,
            "name": "D#4",
            "ticks": 68264,
            "time": 77.29155845833334,
            "velocity": 0.3937007874015748
          },
          {
            "duration": 0.43478199999999845,
            "durationTicks": 384,
            "midi": 54,
            "name": "F#3",
            "ticks": 68360,
            "time": 77.40025395833334,
            "velocity": 0.3937007874015748
          },
          {
            "duration": 0.21739100000000633,
            "durationTicks": 192,
            "midi": 63,
            "name": "D#4",
            "ticks": 68360,
            "time": 77.40025395833334,
            "velocity": 0.3937007874015748
          },
          {
            "duration": 0.43478199999999845,
            "durationTicks": 384,
            "midi": 58,
            "name": "A#3",
            "ticks": 68360,
            "time": 77.40025395833334,
            "velocity": 0.3937007874015748
          },
          {
            "duration": 0.21739100000000633,
            "durationTicks": 192,
            "midi": 78,
            "name": "F#5",
            "ticks": 68360,
            "time": 77.40025395833334,
            "velocity": 0.3937007874015748
          },
          {
            "duration": 0.10869549999999606,
            "durationTicks": 96,
            "midi": 27,
            "name": "D#1",
            "ticks": 68360,
            "time": 77.40025395833334,
            "velocity": 0.3937007874015748
          },
          {
            "duration": 0.21739100000000633,
            "durationTicks": 192,
            "midi": 75,
            "name": "D#5",
            "ticks": 68360,
            "time": 77.40025395833334,
            "velocity": 0.3937007874015748
          },
          {
            "duration": 0.10869549999999606,
            "durationTicks": 96,
            "midi": 39,
            "name": "D#2",
            "ticks": 68360,
            "time": 77.40025395833334,
            "velocity": 0.3937007874015748
          },
          {
            "duration": 0.21739100000000633,
            "durationTicks": 192,
            "midi": 34,
            "name": "A#1",
            "ticks": 68360,
            "time": 77.40025395833334,
            "velocity": 0.3937007874015748
          },
          {
            "duration": 0.10869549999999606,
            "durationTicks": 96,
            "midi": 66,
            "name": "F#4",
            "ticks": 68360,
            "time": 77.40025395833334,
            "velocity": 0.3937007874015748
          },
          {
            "duration": 0.43478199999999845,
            "durationTicks": 384,
            "midi": 63,
            "name": "D#4",
            "ticks": 68360,
            "time": 77.40025395833334,
            "velocity": 0.3937007874015748
          },
          {
            "duration": 0.21739100000000633,
            "durationTicks": 192,
            "midi": 66,
            "name": "F#4",
            "ticks": 68360,
            "time": 77.40025395833334,
            "velocity": 0.3937007874015748
          },
          {
            "duration": 0.10869550000001027,
            "durationTicks": 96,
            "midi": 51,
            "name": "D#3",
            "ticks": 68456,
            "time": 77.50894945833333,
            "velocity": 0.3937007874015748
          },
          {
            "duration": 0.10869550000001027,
            "durationTicks": 96,
            "midi": 70,
            "name": "A#4",
            "ticks": 68456,
            "time": 77.50894945833333,
            "velocity": 0.3937007874015748
          },
          {
            "duration": 0.10869550000001027,
            "durationTicks": 96,
            "midi": 39,
            "name": "D#2",
            "ticks": 68456,
            "time": 77.50894945833333,
            "velocity": 0.3937007874015748
          },
          {
            "duration": 0.21739099999999212,
            "durationTicks": 192,
            "midi": 77,
            "name": "F5",
            "ticks": 68552,
            "time": 77.61764495833334,
            "velocity": 0.3937007874015748
          },
          {
            "duration": 0.21739099999999212,
            "durationTicks": 192,
            "midi": 68,
            "name": "G#4",
            "ticks": 68552,
            "time": 77.61764495833334,
            "velocity": 0.3937007874015748
          },
          {
            "duration": 0.10869549999999606,
            "durationTicks": 96,
            "midi": 49,
            "name": "C#3",
            "ticks": 68552,
            "time": 77.61764495833334,
            "velocity": 0.3937007874015748
          },
          {
            "duration": 0.21739099999999212,
            "durationTicks": 192,
            "midi": 65,
            "name": "F4",
            "ticks": 68552,
            "time": 77.61764495833334,
            "velocity": 0.3937007874015748
          },
          {
            "duration": 0.10869549999999606,
            "durationTicks": 96,
            "midi": 37,
            "name": "C#2",
            "ticks": 68552,
            "time": 77.61764495833334,
            "velocity": 0.3937007874015748
          },
          {
            "duration": 0.10869549999999606,
            "durationTicks": 96,
            "midi": 75,
            "name": "D#5",
            "ticks": 68552,
            "time": 77.61764495833334,
            "velocity": 0.3937007874015748
          },
          {
            "duration": 0.21739099999999212,
            "durationTicks": 192,
            "midi": 80,
            "name": "G#5",
            "ticks": 68552,
            "time": 77.61764495833334,
            "velocity": 0.3937007874015748
          },
          {
            "duration": 0.10869549999999606,
            "durationTicks": 96,
            "midi": 78,
            "name": "F#5",
            "ticks": 68648,
            "time": 77.72634045833334,
            "velocity": 0.3937007874015748
          },
          {
            "duration": 0.10869549999999606,
            "durationTicks": 96,
            "midi": 39,
            "name": "D#2",
            "ticks": 68648,
            "time": 77.72634045833334,
            "velocity": 0.3937007874015748
          },
          {
            "duration": 0.10869549999999606,
            "durationTicks": 96,
            "midi": 51,
            "name": "D#3",
            "ticks": 68648,
            "time": 77.72634045833334,
            "velocity": 0.3937007874015748
          },
          {
            "duration": 0.10869549999999606,
            "durationTicks": 96,
            "midi": 27,
            "name": "D#1",
            "ticks": 68744,
            "time": 77.83503595833334,
            "velocity": 0.3937007874015748
          },
          {
            "duration": 0.10869549999999606,
            "durationTicks": 96,
            "midi": 39,
            "name": "D#2",
            "ticks": 68744,
            "time": 77.83503595833334,
            "velocity": 0.3937007874015748
          },
          {
            "duration": 0.21739100000000633,
            "durationTicks": 192,
            "midi": 34,
            "name": "A#1",
            "ticks": 68744,
            "time": 77.83503595833334,
            "velocity": 0.3937007874015748
          },
          {
            "duration": 0.10869549999999606,
            "durationTicks": 96,
            "midi": 51,
            "name": "D#3",
            "ticks": 68744,
            "time": 77.83503595833334,
            "velocity": 0.3937007874015748
          },
          {
            "duration": 0.21739100000000633,
            "durationTicks": 192,
            "midi": 82,
            "name": "A#5",
            "ticks": 68744,
            "time": 77.83503595833334,
            "velocity": 0.3937007874015748
          },
          {
            "duration": 0.21739100000000633,
            "durationTicks": 192,
            "midi": 70,
            "name": "A#4",
            "ticks": 68744,
            "time": 77.83503595833334,
            "velocity": 0.3937007874015748
          },
          {
            "duration": 0.21739100000000633,
            "durationTicks": 192,
            "midi": 78,
            "name": "F#5",
            "ticks": 68744,
            "time": 77.83503595833334,
            "velocity": 0.3937007874015748
          },
          {
            "duration": 0.21739100000000633,
            "durationTicks": 192,
            "midi": 66,
            "name": "F#4",
            "ticks": 68744,
            "time": 77.83503595833334,
            "velocity": 0.3937007874015748
          },
          {
            "duration": 0.21739100000000633,
            "durationTicks": 192,
            "midi": 54,
            "name": "F#3",
            "ticks": 68744,
            "time": 77.83503595833334,
            "velocity": 0.3937007874015748
          },
          {
            "duration": 0.43478199999999845,
            "durationTicks": 384,
            "midi": 63,
            "name": "D#4",
            "ticks": 68744,
            "time": 77.83503595833334,
            "velocity": 0.3937007874015748
          },
          {
            "duration": 0.3260865000000024,
            "durationTicks": 288,
            "midi": 58,
            "name": "A#3",
            "ticks": 68744,
            "time": 77.83503595833334,
            "velocity": 0.3937007874015748
          },
          {
            "duration": 0.3260865000000024,
            "durationTicks": 288,
            "midi": 54,
            "name": "F#3",
            "ticks": 68840,
            "time": 77.94373145833333,
            "velocity": 0.3937007874015748
          },
          {
            "duration": 0.10869549999999606,
            "durationTicks": 96,
            "midi": 39,
            "name": "D#2",
            "ticks": 68936,
            "time": 78.05242695833334,
            "velocity": 0.3937007874015748
          },
          {
            "duration": 0.21739099999999212,
            "durationTicks": 192,
            "midi": 58,
            "name": "A#3",
            "ticks": 68936,
            "time": 78.05242695833334,
            "velocity": 0.3937007874015748
          },
          {
            "duration": 0.10869549999999606,
            "durationTicks": 96,
            "midi": 51,
            "name": "D#3",
            "ticks": 68936,
            "time": 78.05242695833334,
            "velocity": 0.3937007874015748
          },
          {
            "duration": 0.10869549999999606,
            "durationTicks": 96,
            "midi": 63,
            "name": "D#4",
            "ticks": 69032,
            "time": 78.16112245833334,
            "velocity": 0.3937007874015748
          },
          {
            "duration": 0.10869549999999606,
            "durationTicks": 96,
            "midi": 51,
            "name": "D#3",
            "ticks": 69032,
            "time": 78.16112245833334,
            "velocity": 0.3937007874015748
          },
          {
            "duration": 0.10869549999999606,
            "durationTicks": 96,
            "midi": 39,
            "name": "D#2",
            "ticks": 69032,
            "time": 78.16112245833334,
            "velocity": 0.3937007874015748
          },
          {
            "duration": 0.21739100000000633,
            "durationTicks": 192,
            "midi": 75,
            "name": "D#5",
            "ticks": 69128,
            "time": 78.26981795833333,
            "velocity": 0.3937007874015748
          },
          {
            "duration": 0.21739100000000633,
            "durationTicks": 192,
            "midi": 70,
            "name": "A#4",
            "ticks": 69128,
            "time": 78.26981795833333,
            "velocity": 0.3937007874015748
          },
          {
            "duration": 0.43478199999999845,
            "durationTicks": 384,
            "midi": 58,
            "name": "A#3",
            "ticks": 69128,
            "time": 78.26981795833333,
            "velocity": 0.3937007874015748
          },
          {
            "duration": 0.43478199999999845,
            "durationTicks": 384,
            "midi": 63,
            "name": "D#4",
            "ticks": 69128,
            "time": 78.26981795833333,
            "velocity": 0.3937007874015748
          },
          {
            "duration": 0.10869550000001027,
            "durationTicks": 96,
            "midi": 27,
            "name": "D#1",
            "ticks": 69128,
            "time": 78.26981795833333,
            "velocity": 0.3937007874015748
          },
          {
            "duration": 0.21739100000000633,
            "durationTicks": 192,
            "midi": 34,
            "name": "A#1",
            "ticks": 69128,
            "time": 78.26981795833333,
            "velocity": 0.3937007874015748
          },
          {
            "duration": 0.10869550000001027,
            "durationTicks": 96,
            "midi": 39,
            "name": "D#2",
            "ticks": 69128,
            "time": 78.26981795833333,
            "velocity": 0.3937007874015748
          },
          {
            "duration": 0.21739100000000633,
            "durationTicks": 192,
            "midi": 87,
            "name": "D#6",
            "ticks": 69128,
            "time": 78.26981795833333,
            "velocity": 0.3937007874015748
          },
          {
            "duration": 0.21739100000000633,
            "durationTicks": 192,
            "midi": 82,
            "name": "A#5",
            "ticks": 69128,
            "time": 78.26981795833333,
            "velocity": 0.3937007874015748
          },
          {
            "duration": 0.43478199999999845,
            "durationTicks": 384,
            "midi": 54,
            "name": "F#3",
            "ticks": 69128,
            "time": 78.26981795833333,
            "velocity": 0.3937007874015748
          },
          {
            "duration": 0.10869550000001027,
            "durationTicks": 96,
            "midi": 66,
            "name": "F#4",
            "ticks": 69128,
            "time": 78.26981795833333,
            "velocity": 0.3937007874015748
          },
          {
            "duration": 0.10869549999999606,
            "durationTicks": 96,
            "midi": 70,
            "name": "A#4",
            "ticks": 69224,
            "time": 78.37851345833334,
            "velocity": 0.3937007874015748
          },
          {
            "duration": 0.10869549999999606,
            "durationTicks": 96,
            "midi": 51,
            "name": "D#3",
            "ticks": 69224,
            "time": 78.37851345833334,
            "velocity": 0.3937007874015748
          },
          {
            "duration": 0.10869549999999606,
            "durationTicks": 96,
            "midi": 39,
            "name": "D#2",
            "ticks": 69224,
            "time": 78.37851345833334,
            "velocity": 0.3937007874015748
          },
          {
            "duration": 0.10869549999999606,
            "durationTicks": 96,
            "midi": 37,
            "name": "C#2",
            "ticks": 69320,
            "time": 78.48720895833334,
            "velocity": 0.3937007874015748
          },
          {
            "duration": 0.21739099999999212,
            "durationTicks": 192,
            "midi": 80,
            "name": "G#5",
            "ticks": 69320,
            "time": 78.48720895833334,
            "velocity": 0.3937007874015748
          },
          {
            "duration": 0.21739099999999212,
            "durationTicks": 192,
            "midi": 68,
            "name": "G#4",
            "ticks": 69320,
            "time": 78.48720895833334,
            "velocity": 0.3937007874015748
          },
          {
            "duration": 0.10869549999999606,
            "durationTicks": 96,
            "midi": 49,
            "name": "C#3",
            "ticks": 69320,
            "time": 78.48720895833334,
            "velocity": 0.3937007874015748
          },
          {
            "duration": 0.10869549999999606,
            "durationTicks": 96,
            "midi": 75,
            "name": "D#5",
            "ticks": 69320,
            "time": 78.48720895833334,
            "velocity": 0.3937007874015748
          },
          {
            "duration": 0.21739099999999212,
            "durationTicks": 192,
            "midi": 73,
            "name": "C#5",
            "ticks": 69320,
            "time": 78.48720895833334,
            "velocity": 0.3937007874015748
          },
          {
            "duration": 0.21739099999999212,
            "durationTicks": 192,
            "midi": 85,
            "name": "C#6",
            "ticks": 69320,
            "time": 78.48720895833334,
            "velocity": 0.3937007874015748
          },
          {
            "duration": 0.10869549999999606,
            "durationTicks": 96,
            "midi": 78,
            "name": "F#5",
            "ticks": 69416,
            "time": 78.59590445833334,
            "velocity": 0.3937007874015748
          },
          {
            "duration": 0.10869549999999606,
            "durationTicks": 96,
            "midi": 51,
            "name": "D#3",
            "ticks": 69416,
            "time": 78.59590445833334,
            "velocity": 0.3937007874015748
          },
          {
            "duration": 0.10869549999999606,
            "durationTicks": 96,
            "midi": 39,
            "name": "D#2",
            "ticks": 69416,
            "time": 78.59590445833334,
            "velocity": 0.3937007874015748
          },
          {
            "duration": 0.21739100000000633,
            "durationTicks": 192,
            "midi": 34,
            "name": "A#1",
            "ticks": 69512,
            "time": 78.70459995833333,
            "velocity": 0.3937007874015748
          },
          {
            "duration": 0.10869550000001027,
            "durationTicks": 96,
            "midi": 39,
            "name": "D#2",
            "ticks": 69512,
            "time": 78.70459995833333,
            "velocity": 0.3937007874015748
          },
          {
            "duration": 0.10869550000001027,
            "durationTicks": 96,
            "midi": 51,
            "name": "D#3",
            "ticks": 69512,
            "time": 78.70459995833333,
            "velocity": 0.3937007874015748
          },
          {
            "duration": 0.21739100000000633,
            "durationTicks": 192,
            "midi": 54,
            "name": "F#3",
            "ticks": 69512,
            "time": 78.70459995833333,
            "velocity": 0.3937007874015748
          },
          {
            "duration": 0.43478199999999845,
            "durationTicks": 384,
            "midi": 82,
            "name": "A#5",
            "ticks": 69512,
            "time": 78.70459995833333,
            "velocity": 0.3937007874015748
          },
          {
            "duration": 0.43478199999999845,
            "durationTicks": 384,
            "midi": 63,
            "name": "D#4",
            "ticks": 69512,
            "time": 78.70459995833333,
            "velocity": 0.3937007874015748
          },
          {
            "duration": 0.43478199999999845,
            "durationTicks": 384,
            "midi": 70,
            "name": "A#4",
            "ticks": 69512,
            "time": 78.70459995833333,
            "velocity": 0.3937007874015748
          },
          {
            "duration": 0.3260865000000024,
            "durationTicks": 288,
            "midi": 58,
            "name": "A#3",
            "ticks": 69512,
            "time": 78.70459995833333,
            "velocity": 0.3937007874015748
          },
          {
            "duration": 0.43478199999999845,
            "durationTicks": 384,
            "midi": 66,
            "name": "F#4",
            "ticks": 69512,
            "time": 78.70459995833333,
            "velocity": 0.3937007874015748
          },
          {
            "duration": 0.43478199999999845,
            "durationTicks": 384,
            "midi": 78,
            "name": "F#5",
            "ticks": 69512,
            "time": 78.70459995833333,
            "velocity": 0.3937007874015748
          },
          {
            "duration": 0.10869550000001027,
            "durationTicks": 96,
            "midi": 27,
            "name": "D#1",
            "ticks": 69512,
            "time": 78.70459995833333,
            "velocity": 0.3937007874015748
          },
          {
            "duration": 0.3260864999999882,
            "durationTicks": 288,
            "midi": 54,
            "name": "F#3",
            "ticks": 69608,
            "time": 78.81329545833334,
            "velocity": 0.3937007874015748
          },
          {
            "duration": 0.21739099999999212,
            "durationTicks": 192,
            "midi": 58,
            "name": "A#3",
            "ticks": 69704,
            "time": 78.92199095833334,
            "velocity": 0.3937007874015748
          },
          {
            "duration": 0.10869549999999606,
            "durationTicks": 96,
            "midi": 51,
            "name": "D#3",
            "ticks": 69704,
            "time": 78.92199095833334,
            "velocity": 0.3937007874015748
          },
          {
            "duration": 0.10869549999999606,
            "durationTicks": 96,
            "midi": 39,
            "name": "D#2",
            "ticks": 69704,
            "time": 78.92199095833334,
            "velocity": 0.3937007874015748
          },
          {
            "duration": 0.10869549999999606,
            "durationTicks": 96,
            "midi": 39,
            "name": "D#2",
            "ticks": 69800,
            "time": 79.03068645833334,
            "velocity": 0.3937007874015748
          },
          {
            "duration": 0.10869549999999606,
            "durationTicks": 96,
            "midi": 51,
            "name": "D#3",
            "ticks": 69800,
            "time": 79.03068645833334,
            "velocity": 0.3937007874015748
          },
          {
            "duration": 0.10869549999999606,
            "durationTicks": 96,
            "midi": 63,
            "name": "D#4",
            "ticks": 69800,
            "time": 79.03068645833334,
            "velocity": 0.3937007874015748
          },
          {
            "duration": 0.21739100000000633,
            "durationTicks": 192,
            "midi": 70,
            "name": "A#4",
            "ticks": 69896,
            "time": 79.13938195833333,
            "velocity": 0.3937007874015748
          },
          {
            "duration": 0.43478200000001266,
            "durationTicks": 384,
            "midi": 54,
            "name": "F#3",
            "ticks": 69896,
            "time": 79.13938195833333,
            "velocity": 0.3937007874015748
          },
          {
            "duration": 0.43478200000001266,
            "durationTicks": 384,
            "midi": 63,
            "name": "D#4",
            "ticks": 69896,
            "time": 79.13938195833333,
            "velocity": 0.3937007874015748
          },
          {
            "duration": 0.43478200000001266,
            "durationTicks": 384,
            "midi": 58,
            "name": "A#3",
            "ticks": 69896,
            "time": 79.13938195833333,
            "velocity": 0.3937007874015748
          },
          {
            "duration": 0.10869550000001027,
            "durationTicks": 96,
            "midi": 27,
            "name": "D#1",
            "ticks": 69896,
            "time": 79.13938195833333,
            "velocity": 0.3937007874015748
          },
          {
            "duration": 0.10869550000001027,
            "durationTicks": 96,
            "midi": 66,
            "name": "F#4",
            "ticks": 69896,
            "time": 79.13938195833333,
            "velocity": 0.3937007874015748
          },
          {
            "duration": 0.10869550000001027,
            "durationTicks": 96,
            "midi": 39,
            "name": "D#2",
            "ticks": 69896,
            "time": 79.13938195833333,
            "velocity": 0.3937007874015748
          },
          {
            "duration": 0.43478200000001266,
            "durationTicks": 384,
            "midi": 58,
            "name": "A#3",
            "ticks": 69896,
            "time": 79.13938195833333,
            "velocity": 0.3937007874015748
          },
          {
            "duration": 0.21739100000000633,
            "durationTicks": 192,
            "midi": 34,
            "name": "A#1",
            "ticks": 69896,
            "time": 79.13938195833333,
            "velocity": 0.3937007874015748
          },
          {
            "duration": 0.43478200000001266,
            "durationTicks": 384,
            "midi": 63,
            "name": "D#4",
            "ticks": 69896,
            "time": 79.13938195833333,
            "velocity": 0.3937007874015748
          },
          {
            "duration": 0.3260865000000024,
            "durationTicks": 288,
            "midi": 75,
            "name": "D#5",
            "ticks": 69896,
            "time": 79.13938195833333,
            "velocity": 0.3937007874015748
          },
          {
            "duration": 0.3260865000000024,
            "durationTicks": 288,
            "midi": 70,
            "name": "A#4",
            "ticks": 69992,
            "time": 79.24807745833334,
            "velocity": 0.3937007874015748
          },
          {
            "duration": 0.10869549999999606,
            "durationTicks": 96,
            "midi": 51,
            "name": "D#3",
            "ticks": 69992,
            "time": 79.24807745833334,
            "velocity": 0.3937007874015748
          },
          {
            "duration": 0.10869549999999606,
            "durationTicks": 96,
            "midi": 39,
            "name": "D#2",
            "ticks": 69992,
            "time": 79.24807745833334,
            "velocity": 0.3937007874015748
          },
          {
            "duration": 0.10869549999999606,
            "durationTicks": 96,
            "midi": 49,
            "name": "C#3",
            "ticks": 70088,
            "time": 79.35677295833334,
            "velocity": 0.3937007874015748
          },
          {
            "duration": 0.21739100000000633,
            "durationTicks": 192,
            "midi": 75,
            "name": "D#5",
            "ticks": 70088,
            "time": 79.35677295833334,
            "velocity": 0.3937007874015748
          },
          {
            "duration": 0.10869549999999606,
            "durationTicks": 96,
            "midi": 37,
            "name": "C#2",
            "ticks": 70088,
            "time": 79.35677295833334,
            "velocity": 0.3937007874015748
          },
          {
            "duration": 0.10869550000001027,
            "durationTicks": 96,
            "midi": 78,
            "name": "F#5",
            "ticks": 70184,
            "time": 79.46546845833333,
            "velocity": 0.3937007874015748
          },
          {
            "duration": 0.10869550000001027,
            "durationTicks": 96,
            "midi": 51,
            "name": "D#3",
            "ticks": 70184,
            "time": 79.46546845833333,
            "velocity": 0.3937007874015748
          },
          {
            "duration": 0.10869550000001027,
            "durationTicks": 96,
            "midi": 39,
            "name": "D#2",
            "ticks": 70184,
            "time": 79.46546845833333,
            "velocity": 0.3937007874015748
          },
          {
            "duration": 0.10869549999999606,
            "durationTicks": 96,
            "midi": 54,
            "name": "F#3",
            "ticks": 70280,
            "time": 79.57416395833334,
            "velocity": 0.3937007874015748
          },
          {
            "duration": 0.21739099999999212,
            "durationTicks": 192,
            "midi": 78,
            "name": "F#5",
            "ticks": 70280,
            "time": 79.57416395833334,
            "velocity": 0.3937007874015748
          },
          {
            "duration": 0.43478199999999845,
            "durationTicks": 384,
            "midi": 63,
            "name": "D#4",
            "ticks": 70280,
            "time": 79.57416395833334,
            "velocity": 0.3937007874015748
          },
          {
            "duration": 0.21739099999999212,
            "durationTicks": 192,
            "midi": 34,
            "name": "A#1",
            "ticks": 70280,
            "time": 79.57416395833334,
            "velocity": 0.3937007874015748
          },
          {
            "duration": 0.21739099999999212,
            "durationTicks": 192,
            "midi": 54,
            "name": "F#3",
            "ticks": 70280,
            "time": 79.57416395833334,
            "velocity": 0.3937007874015748
          },
          {
            "duration": 0.10869549999999606,
            "durationTicks": 96,
            "midi": 51,
            "name": "D#3",
            "ticks": 70280,
            "time": 79.57416395833334,
            "velocity": 0.3937007874015748
          },
          {
            "duration": 0.10869549999999606,
            "durationTicks": 96,
            "midi": 42,
            "name": "F#2",
            "ticks": 70280,
            "time": 79.57416395833334,
            "velocity": 0.3937007874015748
          },
          {
            "duration": 0.21739099999999212,
            "durationTicks": 192,
            "midi": 70,
            "name": "A#4",
            "ticks": 70280,
            "time": 79.57416395833334,
            "velocity": 0.3937007874015748
          },
          {
            "duration": 0.21739099999999212,
            "durationTicks": 192,
            "midi": 82,
            "name": "A#5",
            "ticks": 70280,
            "time": 79.57416395833334,
            "velocity": 0.3937007874015748
          },
          {
            "duration": 0.21739099999999212,
            "durationTicks": 192,
            "midi": 66,
            "name": "F#4",
            "ticks": 70280,
            "time": 79.57416395833334,
            "velocity": 0.3937007874015748
          },
          {
            "duration": 0.3260864999999882,
            "durationTicks": 288,
            "midi": 58,
            "name": "A#3",
            "ticks": 70280,
            "time": 79.57416395833334,
            "velocity": 0.3937007874015748
          },
          {
            "duration": 0.3260865000000024,
            "durationTicks": 288,
            "midi": 54,
            "name": "F#3",
            "ticks": 70376,
            "time": 79.68285945833334,
            "velocity": 0.3937007874015748
          },
          {
            "duration": 0.21739100000000633,
            "durationTicks": 192,
            "midi": 58,
            "name": "A#3",
            "ticks": 70472,
            "time": 79.79155495833334,
            "velocity": 0.3937007874015748
          },
          {
            "duration": 0.10869549999999606,
            "durationTicks": 96,
            "midi": 51,
            "name": "D#3",
            "ticks": 70472,
            "time": 79.79155495833334,
            "velocity": 0.3937007874015748
          },
          {
            "duration": 0.21739100000000633,
            "durationTicks": 192,
            "midi": 68,
            "name": "G#4",
            "ticks": 70472,
            "time": 79.79155495833334,
            "velocity": 0.3937007874015748
          },
          {
            "duration": 0.21739100000000633,
            "durationTicks": 192,
            "midi": 77,
            "name": "F5",
            "ticks": 70472,
            "time": 79.79155495833334,
            "velocity": 0.3937007874015748
          },
          {
            "duration": 0.21739100000000633,
            "durationTicks": 192,
            "midi": 80,
            "name": "G#5",
            "ticks": 70472,
            "time": 79.79155495833334,
            "velocity": 0.3937007874015748
          },
          {
            "duration": 0.10869549999999606,
            "durationTicks": 96,
            "midi": 39,
            "name": "D#2",
            "ticks": 70472,
            "time": 79.79155495833334,
            "velocity": 0.3937007874015748
          },
          {
            "duration": 0.21739100000000633,
            "durationTicks": 192,
            "midi": 65,
            "name": "F4",
            "ticks": 70472,
            "time": 79.79155495833334,
            "velocity": 0.3937007874015748
          },
          {
            "duration": 0.10869550000001027,
            "durationTicks": 96,
            "midi": 63,
            "name": "D#4",
            "ticks": 70568,
            "time": 79.90025045833333,
            "velocity": 0.3937007874015748
          },
          {
            "duration": 0.10869550000001027,
            "durationTicks": 96,
            "midi": 42,
            "name": "F#2",
            "ticks": 70568,
            "time": 79.90025045833333,
            "velocity": 0.3937007874015748
          },
          {
            "duration": 0.10869550000001027,
            "durationTicks": 96,
            "midi": 54,
            "name": "F#3",
            "ticks": 70568,
            "time": 79.90025045833333,
            "velocity": 0.3937007874015748
          },
          {
            "duration": 0.10869549999999606,
            "durationTicks": 96,
            "midi": 66,
            "name": "F#4",
            "ticks": 70664,
            "time": 80.00894595833334,
            "velocity": 0.3937007874015748
          },
          {
            "duration": 0.21739099999999212,
            "durationTicks": 192,
            "midi": 63,
            "name": "D#4",
            "ticks": 70664,
            "time": 80.00894595833334,
            "velocity": 0.3937007874015748
          },
          {
            "duration": 0.21739099999999212,
            "durationTicks": 192,
            "midi": 78,
            "name": "F#5",
            "ticks": 70664,
            "time": 80.00894595833334,
            "velocity": 0.3937007874015748
          },
          {
            "duration": 0.43478199999999845,
            "durationTicks": 384,
            "midi": 63,
            "name": "D#4",
            "ticks": 70664,
            "time": 80.00894595833334,
            "velocity": 0.3937007874015748
          },
          {
            "duration": 0.10869549999999606,
            "durationTicks": 96,
            "midi": 56,
            "name": "G#3",
            "ticks": 70664,
            "time": 80.00894595833334,
            "velocity": 0.3937007874015748
          },
          {
            "duration": 0.10869549999999606,
            "durationTicks": 96,
            "midi": 44,
            "name": "G#2",
            "ticks": 70664,
            "time": 80.00894595833334,
            "velocity": 0.3937007874015748
          },
          {
            "duration": 0.21739099999999212,
            "durationTicks": 192,
            "midi": 66,
            "name": "F#4",
            "ticks": 70664,
            "time": 80.00894595833334,
            "velocity": 0.3937007874015748
          },
          {
            "duration": 0.21739099999999212,
            "durationTicks": 192,
            "midi": 34,
            "name": "A#1",
            "ticks": 70664,
            "time": 80.00894595833334,
            "velocity": 0.3937007874015748
          },
          {
            "duration": 0.3260865000000024,
            "durationTicks": 288,
            "midi": 54,
            "name": "F#3",
            "ticks": 70664,
            "time": 80.00894595833334,
            "velocity": 0.3937007874015748
          },
          {
            "duration": 0.43478199999999845,
            "durationTicks": 384,
            "midi": 58,
            "name": "A#3",
            "ticks": 70664,
            "time": 80.00894595833334,
            "velocity": 0.3937007874015748
          },
          {
            "duration": 0.21739099999999212,
            "durationTicks": 192,
            "midi": 75,
            "name": "D#5",
            "ticks": 70664,
            "time": 80.00894595833334,
            "velocity": 0.3937007874015748
          },
          {
            "duration": 0.10869549999999606,
            "durationTicks": 96,
            "midi": 70,
            "name": "A#4",
            "ticks": 70760,
            "time": 80.11764145833334,
            "velocity": 0.3937007874015748
          },
          {
            "duration": 0.21739100000000633,
            "durationTicks": 192,
            "midi": 73,
            "name": "C#5",
            "ticks": 70856,
            "time": 80.22633695833333,
            "velocity": 0.3937007874015748
          },
          {
            "duration": 0.21739100000000633,
            "durationTicks": 192,
            "midi": 54,
            "name": "F#3",
            "ticks": 70856,
            "time": 80.22633695833333,
            "velocity": 0.3937007874015748
          },
          {
            "duration": 0.21739100000000633,
            "durationTicks": 192,
            "midi": 61,
            "name": "C#4",
            "ticks": 70856,
            "time": 80.22633695833333,
            "velocity": 0.3937007874015748
          },
          {
            "duration": 0.21739100000000633,
            "durationTicks": 192,
            "midi": 65,
            "name": "F4",
            "ticks": 70856,
            "time": 80.22633695833333,
            "velocity": 0.3937007874015748
          },
          {
            "duration": 0.10869550000001027,
            "durationTicks": 96,
            "midi": 42,
            "name": "F#2",
            "ticks": 70856,
            "time": 80.22633695833333,
            "velocity": 0.3937007874015748
          },
          {
            "duration": 0.21739100000000633,
            "durationTicks": 192,
            "midi": 34,
            "name": "A#1",
            "ticks": 70856,
            "time": 80.22633695833333,
            "velocity": 0.3937007874015748
          },
          {
            "duration": 0.21739100000000633,
            "durationTicks": 192,
            "midi": 77,
            "name": "F5",
            "ticks": 70856,
            "time": 80.22633695833333,
            "velocity": 0.3937007874015748
          },
          {
            "duration": 0.10869550000001027,
            "durationTicks": 96,
            "midi": 75,
            "name": "D#5",
            "ticks": 70856,
            "time": 80.22633695833333,
            "velocity": 0.3937007874015748
          },
          {
            "duration": 0.10869549999999606,
            "durationTicks": 96,
            "midi": 44,
            "name": "G#2",
            "ticks": 70952,
            "time": 80.33503245833334,
            "velocity": 0.3937007874015748
          },
          {
            "duration": 0.10869549999999606,
            "durationTicks": 96,
            "midi": 78,
            "name": "F#5",
            "ticks": 70952,
            "time": 80.33503245833334,
            "velocity": 0.3937007874015748
          },
          {
            "duration": 0.10869549999999606,
            "durationTicks": 96,
            "midi": 56,
            "name": "G#3",
            "ticks": 70952,
            "time": 80.33503245833334,
            "velocity": 0.3937007874015748
          },
          {
            "duration": 0.10869549999999606,
            "durationTicks": 96,
            "midi": 51,
            "name": "D#3",
            "ticks": 71048,
            "time": 80.44372795833334,
            "velocity": 0.3937007874015748
          },
          {
            "duration": 0.21739099999999212,
            "durationTicks": 192,
            "midi": 34,
            "name": "A#1",
            "ticks": 71048,
            "time": 80.44372795833334,
            "velocity": 0.3937007874015748
          },
          {
            "duration": 0.3260865000000024,
            "durationTicks": 288,
            "midi": 59,
            "name": "B3",
            "ticks": 71048,
            "time": 80.44372795833334,
            "velocity": 0.3937007874015748
          },
          {
            "duration": 0.21739099999999212,
            "durationTicks": 192,
            "midi": 63,
            "name": "D#4",
            "ticks": 71048,
            "time": 80.44372795833334,
            "velocity": 0.3937007874015748
          },
          {
            "duration": 0.21739099999999212,
            "durationTicks": 192,
            "midi": 70,
            "name": "A#4",
            "ticks": 71048,
            "time": 80.44372795833334,
            "velocity": 0.3937007874015748
          },
          {
            "duration": 0.21739099999999212,
            "durationTicks": 192,
            "midi": 75,
            "name": "D#5",
            "ticks": 71048,
            "time": 80.44372795833334,
            "velocity": 0.3937007874015748
          },
          {
            "duration": 0.10869549999999606,
            "durationTicks": 96,
            "midi": 35,
            "name": "B1",
            "ticks": 71048,
            "time": 80.44372795833334,
            "velocity": 0.3937007874015748
          },
          {
            "duration": 0.21739099999999212,
            "durationTicks": 192,
            "midi": 58,
            "name": "A#3",
            "ticks": 71048,
            "time": 80.44372795833334,
            "velocity": 0.3937007874015748
          },
          {
            "duration": 0.10869549999999606,
            "durationTicks": 96,
            "midi": 35,
            "name": "B1",
            "ticks": 71048,
            "time": 80.44372795833334,
            "velocity": 0.3937007874015748
          },
          {
            "duration": 0.21739099999999212,
            "durationTicks": 192,
            "midi": 54,
            "name": "F#3",
            "ticks": 71048,
            "time": 80.44372795833334,
            "velocity": 0.3937007874015748
          },
          {
            "duration": 0.43478199999999845,
            "durationTicks": 384,
            "midi": 63,
            "name": "D#4",
            "ticks": 71048,
            "time": 80.44372795833334,
            "velocity": 0.3937007874015748
          },
          {
            "duration": 0.3260865000000024,
            "durationTicks": 288,
            "midi": 54,
            "name": "F#3",
            "ticks": 71144,
            "time": 80.55242345833334,
            "velocity": 0.3937007874015748
          },
          {
            "duration": 0.21739100000000633,
            "durationTicks": 192,
            "midi": 73,
            "name": "C#5",
            "ticks": 71240,
            "time": 80.66111895833333,
            "velocity": 0.3937007874015748
          },
          {
            "duration": 0.21739100000000633,
            "durationTicks": 192,
            "midi": 61,
            "name": "C#4",
            "ticks": 71240,
            "time": 80.66111895833333,
            "velocity": 0.3937007874015748
          },
          {
            "duration": 0.10869550000001027,
            "durationTicks": 96,
            "midi": 35,
            "name": "B1",
            "ticks": 71240,
            "time": 80.66111895833333,
            "velocity": 0.3937007874015748
          },
          {
            "duration": 0.10869550000001027,
            "durationTicks": 96,
            "midi": 47,
            "name": "B2",
            "ticks": 71240,
            "time": 80.66111895833333,
            "velocity": 0.3937007874015748
          },
          {
            "duration": 0.21739100000000633,
            "durationTicks": 192,
            "midi": 59,
            "name": "B3",
            "ticks": 71240,
            "time": 80.66111895833333,
            "velocity": 0.3937007874015748
          },
          {
            "duration": 0.21739100000000633,
            "durationTicks": 192,
            "midi": 77,
            "name": "F5",
            "ticks": 71240,
            "time": 80.66111895833333,
            "velocity": 0.3937007874015748
          },
          {
            "duration": 0.21739100000000633,
            "durationTicks": 192,
            "midi": 65,
            "name": "F4",
            "ticks": 71240,
            "time": 80.66111895833333,
            "velocity": 0.3937007874015748
          },
          {
            "duration": 0.10869549999999606,
            "durationTicks": 96,
            "midi": 35,
            "name": "B1",
            "ticks": 71336,
            "time": 80.76981445833334,
            "velocity": 0.3937007874015748
          },
          {
            "duration": 0.10869549999999606,
            "durationTicks": 96,
            "midi": 63,
            "name": "D#4",
            "ticks": 71336,
            "time": 80.76981445833334,
            "velocity": 0.3937007874015748
          },
          {
            "duration": 0.10869549999999606,
            "durationTicks": 96,
            "midi": 47,
            "name": "B2",
            "ticks": 71336,
            "time": 80.76981445833334,
            "velocity": 0.3937007874015748
          },
          {
            "duration": 0.21739099999999212,
            "durationTicks": 192,
            "midi": 75,
            "name": "D#5",
            "ticks": 71432,
            "time": 80.87850995833334,
            "velocity": 0.3937007874015748
          },
          {
            "duration": 0.21739099999999212,
            "durationTicks": 192,
            "midi": 78,
            "name": "F#5",
            "ticks": 71432,
            "time": 80.87850995833334,
            "velocity": 0.3937007874015748
          },
          {
            "duration": 0.21739099999999212,
            "durationTicks": 192,
            "midi": 34,
            "name": "A#1",
            "ticks": 71432,
            "time": 80.87850995833334,
            "velocity": 0.3937007874015748
          },
          {
            "duration": 0.21739099999999212,
            "durationTicks": 192,
            "midi": 63,
            "name": "D#4",
            "ticks": 71432,
            "time": 80.87850995833334,
            "velocity": 0.3937007874015748
          },
          {
            "duration": 0.10869549999999606,
            "durationTicks": 96,
            "midi": 35,
            "name": "B1",
            "ticks": 71432,
            "time": 80.87850995833334,
            "velocity": 0.3937007874015748
          },
          {
            "duration": 0.10869549999999606,
            "durationTicks": 96,
            "midi": 66,
            "name": "F#4",
            "ticks": 71432,
            "time": 80.87850995833334,
            "velocity": 0.3937007874015748
          },
          {
            "duration": 0.43478199999999845,
            "durationTicks": 384,
            "midi": 59,
            "name": "B3",
            "ticks": 71432,
            "time": 80.87850995833334,
            "velocity": 0.3937007874015748
          },
          {
            "duration": 0.21739099999999212,
            "durationTicks": 192,
            "midi": 66,
            "name": "F#4",
            "ticks": 71432,
            "time": 80.87850995833334,
            "velocity": 0.3937007874015748
          },
          {
            "duration": 0.43478199999999845,
            "durationTicks": 384,
            "midi": 63,
            "name": "D#4",
            "ticks": 71432,
            "time": 80.87850995833334,
            "velocity": 0.3937007874015748
          },
          {
            "duration": 0.43478199999999845,
            "durationTicks": 384,
            "midi": 54,
            "name": "F#3",
            "ticks": 71432,
            "time": 80.87850995833334,
            "velocity": 0.3937007874015748
          },
          {
            "duration": 0.10869549999999606,
            "durationTicks": 96,
            "midi": 35,
            "name": "B1",
            "ticks": 71432,
            "time": 80.87850995833334,
            "velocity": 0.3937007874015748
          },
          {
            "duration": 0.10869549999999606,
            "durationTicks": 96,
            "midi": 47,
            "name": "B2",
            "ticks": 71528,
            "time": 80.98720545833334,
            "velocity": 0.3937007874015748
          },
          {
            "duration": 0.10869549999999606,
            "durationTicks": 96,
            "midi": 71,
            "name": "B4",
            "ticks": 71528,
            "time": 80.98720545833334,
            "velocity": 0.3937007874015748
          },
          {
            "duration": 0.10869549999999606,
            "durationTicks": 96,
            "midi": 35,
            "name": "B1",
            "ticks": 71528,
            "time": 80.98720545833334,
            "velocity": 0.3937007874015748
          },
          {
            "duration": 0.21739100000000633,
            "durationTicks": 192,
            "midi": 77,
            "name": "F5",
            "ticks": 71624,
            "time": 81.09590095833333,
            "velocity": 0.3937007874015748
          },
          {
            "duration": 0.21739100000000633,
            "durationTicks": 192,
            "midi": 65,
            "name": "F4",
            "ticks": 71624,
            "time": 81.09590095833333,
            "velocity": 0.3937007874015748
          },
          {
            "duration": 0.10869550000001027,
            "durationTicks": 96,
            "midi": 75,
            "name": "D#5",
            "ticks": 71624,
            "time": 81.09590095833333,
            "velocity": 0.3937007874015748
          },
          {
            "duration": 0.10869550000001027,
            "durationTicks": 96,
            "midi": 34,
            "name": "A#1",
            "ticks": 71624,
            "time": 81.09590095833333,
            "velocity": 0.3937007874015748
          },
          {
            "duration": 0.21739100000000633,
            "durationTicks": 192,
            "midi": 80,
            "name": "G#5",
            "ticks": 71624,
            "time": 81.09590095833333,
            "velocity": 0.3937007874015748
          },
          {
            "duration": 0.21739100000000633,
            "durationTicks": 192,
            "midi": 68,
            "name": "G#4",
            "ticks": 71624,
            "time": 81.09590095833333,
            "velocity": 0.3937007874015748
          },
          {
            "duration": 0.10869550000001027,
            "durationTicks": 96,
            "midi": 46,
            "name": "A#2",
            "ticks": 71624,
            "time": 81.09590095833333,
            "velocity": 0.3937007874015748
          },
          {
            "duration": 0.10869549999999606,
            "durationTicks": 96,
            "midi": 78,
            "name": "F#5",
            "ticks": 71720,
            "time": 81.20459645833334,
            "velocity": 0.3937007874015748
          },
          {
            "duration": 0.10869549999999606,
            "durationTicks": 96,
            "midi": 35,
            "name": "B1",
            "ticks": 71720,
            "time": 81.20459645833334,
            "velocity": 0.3937007874015748
          },
          {
            "duration": 0.10869549999999606,
            "durationTicks": 96,
            "midi": 47,
            "name": "B2",
            "ticks": 71720,
            "time": 81.20459645833334,
            "velocity": 0.3937007874015748
          },
          {
            "duration": 0.21739100000000633,
            "durationTicks": 192,
            "midi": 34,
            "name": "A#1",
            "ticks": 71816,
            "time": 81.31329195833334,
            "velocity": 0.3937007874015748
          },
          {
            "duration": 0.43478199999999845,
            "durationTicks": 384,
            "midi": 63,
            "name": "D#4",
            "ticks": 71816,
            "time": 81.31329195833334,
            "velocity": 0.3937007874015748
          },
          {
            "duration": 0.10869549999999606,
            "durationTicks": 96,
            "midi": 35,
            "name": "B1",
            "ticks": 71816,
            "time": 81.31329195833334,
            "velocity": 0.3937007874015748
          },
          {
            "duration": 0.21739100000000633,
            "durationTicks": 192,
            "midi": 54,
            "name": "F#3",
            "ticks": 71816,
            "time": 81.31329195833334,
            "velocity": 0.3937007874015748
          },
          {
            "duration": 0.10869549999999606,
            "durationTicks": 96,
            "midi": 51,
            "name": "D#3",
            "ticks": 71816,
            "time": 81.31329195833334,
            "velocity": 0.3937007874015748
          },
          {
            "duration": 0.3260865000000024,
            "durationTicks": 288,
            "midi": 59,
            "name": "B3",
            "ticks": 71816,
            "time": 81.31329195833334,
            "velocity": 0.3937007874015748
          },
          {
            "duration": 0.21739100000000633,
            "durationTicks": 192,
            "midi": 66,
            "name": "F#4",
            "ticks": 71816,
            "time": 81.31329195833334,
            "velocity": 0.3937007874015748
          },
          {
            "duration": 0.10869549999999606,
            "durationTicks": 96,
            "midi": 35,
            "name": "B1",
            "ticks": 71816,
            "time": 81.31329195833334,
            "velocity": 0.3937007874015748
          },
          {
            "duration": 0.21739100000000633,
            "durationTicks": 192,
            "midi": 82,
            "name": "A#5",
            "ticks": 71816,
            "time": 81.31329195833334,
            "velocity": 0.3937007874015748
          },
          {
            "duration": 0.21739100000000633,
            "durationTicks": 192,
            "midi": 78,
            "name": "F#5",
            "ticks": 71816,
            "time": 81.31329195833334,
            "velocity": 0.3937007874015748
          },
          {
            "duration": 0.21739100000000633,
            "durationTicks": 192,
            "midi": 70,
            "name": "A#4",
            "ticks": 71816,
            "time": 81.31329195833334,
            "velocity": 0.3937007874015748
          },
          {
            "duration": 0.3260865000000024,
            "durationTicks": 288,
            "midi": 54,
            "name": "F#3",
            "ticks": 71912,
            "time": 81.42198745833333,
            "velocity": 0.3937007874015748
          },
          {
            "duration": 0.10869549999999606,
            "durationTicks": 96,
            "midi": 35,
            "name": "B1",
            "ticks": 72008,
            "time": 81.53068295833334,
            "velocity": 0.3937007874015748
          },
          {
            "duration": 0.21739099999999212,
            "durationTicks": 192,
            "midi": 59,
            "name": "B3",
            "ticks": 72008,
            "time": 81.53068295833334,
            "velocity": 0.3937007874015748
          },
          {
            "duration": 0.10869549999999606,
            "durationTicks": 96,
            "midi": 47,
            "name": "B2",
            "ticks": 72008,
            "time": 81.53068295833334,
            "velocity": 0.3937007874015748
          },
          {
            "duration": 0.10869549999999606,
            "durationTicks": 96,
            "midi": 63,
            "name": "D#4",
            "ticks": 72104,
            "time": 81.63937845833334,
            "velocity": 0.3937007874015748
          },
          {
            "duration": 0.10869549999999606,
            "durationTicks": 96,
            "midi": 35,
            "name": "B1",
            "ticks": 72104,
            "time": 81.63937845833334,
            "velocity": 0.3937007874015748
          },
          {
            "duration": 0.10869549999999606,
            "durationTicks": 96,
            "midi": 47,
            "name": "B2",
            "ticks": 72104,
            "time": 81.63937845833334,
            "velocity": 0.3937007874015748
          },
          {
            "duration": 0.43478199999999845,
            "durationTicks": 384,
            "midi": 59,
            "name": "B3",
            "ticks": 72200,
            "time": 81.74807395833334,
            "velocity": 0.3937007874015748
          },
          {
            "duration": 0.10869549999999606,
            "durationTicks": 96,
            "midi": 35,
            "name": "B1",
            "ticks": 72200,
            "time": 81.74807395833334,
            "velocity": 0.3937007874015748
          },
          {
            "duration": 0.43478199999999845,
            "durationTicks": 384,
            "midi": 63,
            "name": "D#4",
            "ticks": 72200,
            "time": 81.74807395833334,
            "velocity": 0.3937007874015748
          },
          {
            "duration": 0.10869549999999606,
            "durationTicks": 96,
            "midi": 66,
            "name": "F#4",
            "ticks": 72200,
            "time": 81.74807395833334,
            "velocity": 0.3937007874015748
          },
          {
            "duration": 0.21739100000000633,
            "durationTicks": 192,
            "midi": 68,
            "name": "G#4",
            "ticks": 72200,
            "time": 81.74807395833334,
            "velocity": 0.3937007874015748
          },
          {
            "duration": 0.43478199999999845,
            "durationTicks": 384,
            "midi": 54,
            "name": "F#3",
            "ticks": 72200,
            "time": 81.74807395833334,
            "velocity": 0.3937007874015748
          },
          {
            "duration": 0.21739100000000633,
            "durationTicks": 192,
            "midi": 34,
            "name": "A#1",
            "ticks": 72200,
            "time": 81.74807395833334,
            "velocity": 0.3937007874015748
          },
          {
            "duration": 0.21739100000000633,
            "durationTicks": 192,
            "midi": 80,
            "name": "G#5",
            "ticks": 72200,
            "time": 81.74807395833334,
            "velocity": 0.3937007874015748
          },
          {
            "duration": 0.10869549999999606,
            "durationTicks": 96,
            "midi": 35,
            "name": "B1",
            "ticks": 72200,
            "time": 81.74807395833334,
            "velocity": 0.3937007874015748
          },
          {
            "duration": 0.21739100000000633,
            "durationTicks": 192,
            "midi": 65,
            "name": "F4",
            "ticks": 72200,
            "time": 81.74807395833334,
            "velocity": 0.3937007874015748
          },
          {
            "duration": 0.21739100000000633,
            "durationTicks": 192,
            "midi": 77,
            "name": "F5",
            "ticks": 72200,
            "time": 81.74807395833334,
            "velocity": 0.3937007874015748
          },
          {
            "duration": 0.10869550000001027,
            "durationTicks": 96,
            "midi": 35,
            "name": "B1",
            "ticks": 72296,
            "time": 81.85676945833333,
            "velocity": 0.3937007874015748
          },
          {
            "duration": 0.10869550000001027,
            "durationTicks": 96,
            "midi": 47,
            "name": "B2",
            "ticks": 72296,
            "time": 81.85676945833333,
            "velocity": 0.3937007874015748
          },
          {
            "duration": 0.10869550000001027,
            "durationTicks": 96,
            "midi": 71,
            "name": "B4",
            "ticks": 72296,
            "time": 81.85676945833333,
            "velocity": 0.3937007874015748
          },
          {
            "duration": 0.21739099999999212,
            "durationTicks": 192,
            "midi": 78,
            "name": "F#5",
            "ticks": 72392,
            "time": 81.96546495833334,
            "velocity": 0.3937007874015748
          },
          {
            "duration": 0.10869549999999606,
            "durationTicks": 96,
            "midi": 46,
            "name": "A#2",
            "ticks": 72392,
            "time": 81.96546495833334,
            "velocity": 0.3937007874015748
          },
          {
            "duration": 0.10869549999999606,
            "durationTicks": 96,
            "midi": 75,
            "name": "D#5",
            "ticks": 72392,
            "time": 81.96546495833334,
            "velocity": 0.3937007874015748
          },
          {
            "duration": 0.21739099999999212,
            "durationTicks": 192,
            "midi": 75,
            "name": "D#5",
            "ticks": 72392,
            "time": 81.96546495833334,
            "velocity": 0.3937007874015748
          },
          {
            "duration": 0.10869549999999606,
            "durationTicks": 96,
            "midi": 34,
            "name": "A#1",
            "ticks": 72392,
            "time": 81.96546495833334,
            "velocity": 0.3937007874015748
          },
          {
            "duration": 0.21739099999999212,
            "durationTicks": 192,
            "midi": 63,
            "name": "D#4",
            "ticks": 72392,
            "time": 81.96546495833334,
            "velocity": 0.3937007874015748
          },
          {
            "duration": 0.21739099999999212,
            "durationTicks": 192,
            "midi": 66,
            "name": "F#4",
            "ticks": 72392,
            "time": 81.96546495833334,
            "velocity": 0.3937007874015748
          },
          {
            "duration": 0.10869549999999606,
            "durationTicks": 96,
            "midi": 47,
            "name": "B2",
            "ticks": 72488,
            "time": 82.07416045833334,
            "velocity": 0.3937007874015748
          },
          {
            "duration": 0.10869549999999606,
            "durationTicks": 96,
            "midi": 35,
            "name": "B1",
            "ticks": 72488,
            "time": 82.07416045833334,
            "velocity": 0.3937007874015748
          },
          {
            "duration": 0.10869549999999606,
            "durationTicks": 96,
            "midi": 78,
            "name": "F#5",
            "ticks": 72488,
            "time": 82.07416045833334,
            "velocity": 0.3937007874015748
          },
          {
            "duration": 0.21739100000000633,
            "durationTicks": 192,
            "midi": 65,
            "name": "F4",
            "ticks": 72584,
            "time": 82.18285595833333,
            "velocity": 0.3937007874015748
          },
          {
            "duration": 0.21739100000000633,
            "durationTicks": 192,
            "midi": 53,
            "name": "F3",
            "ticks": 72584,
            "time": 82.18285595833333,
            "velocity": 0.3937007874015748
          },
          {
            "duration": 0.10869550000001027,
            "durationTicks": 96,
            "midi": 25,
            "name": "C#1",
            "ticks": 72584,
            "time": 82.18285595833333,
            "velocity": 0.3937007874015748
          },
          {
            "duration": 0.21739100000000633,
            "durationTicks": 192,
            "midi": 61,
            "name": "C#4",
            "ticks": 72584,
            "time": 82.18285595833333,
            "velocity": 0.3937007874015748
          },
          {
            "duration": 0.21739100000000633,
            "durationTicks": 192,
            "midi": 34,
            "name": "A#1",
            "ticks": 72584,
            "time": 82.18285595833333,
            "velocity": 0.3937007874015748
          },
          {
            "duration": 0.21739100000000633,
            "durationTicks": 192,
            "midi": 77,
            "name": "F5",
            "ticks": 72584,
            "time": 82.18285595833333,
            "velocity": 0.3937007874015748
          },
          {
            "duration": 0.10869550000001027,
            "durationTicks": 96,
            "midi": 37,
            "name": "C#2",
            "ticks": 72584,
            "time": 82.18285595833333,
            "velocity": 0.3937007874015748
          },
          {
            "duration": 0.3260865000000024,
            "durationTicks": 288,
            "midi": 56,
            "name": "G#3",
            "ticks": 72584,
            "time": 82.18285595833333,
            "velocity": 0.3937007874015748
          },
          {
            "duration": 0.10869550000001027,
            "durationTicks": 96,
            "midi": 49,
            "name": "C#3",
            "ticks": 72584,
            "time": 82.18285595833333,
            "velocity": 0.3937007874015748
          },
          {
            "duration": 0.43478199999999845,
            "durationTicks": 384,
            "midi": 61,
            "name": "C#4",
            "ticks": 72584,
            "time": 82.18285595833333,
            "velocity": 0.3937007874015748
          },
          {
            "duration": 0.21739100000000633,
            "durationTicks": 192,
            "midi": 73,
            "name": "C#5",
            "ticks": 72584,
            "time": 82.18285595833333,
            "velocity": 0.3937007874015748
          },
          {
            "duration": 0.3260864999999882,
            "durationTicks": 288,
            "midi": 53,
            "name": "F3",
            "ticks": 72680,
            "time": 82.29155145833334,
            "velocity": 0.3937007874015748
          },
          {
            "duration": 0.10869549999999606,
            "durationTicks": 96,
            "midi": 37,
            "name": "C#2",
            "ticks": 72776,
            "time": 82.40024695833334,
            "velocity": 0.3937007874015748
          },
          {
            "duration": 0.21739099999999212,
            "durationTicks": 192,
            "midi": 63,
            "name": "D#4",
            "ticks": 72776,
            "time": 82.40024695833334,
            "velocity": 0.3937007874015748
          },
          {
            "duration": 0.10869549999999606,
            "durationTicks": 96,
            "midi": 49,
            "name": "C#3",
            "ticks": 72776,
            "time": 82.40024695833334,
            "velocity": 0.3937007874015748
          },
          {
            "duration": 0.21739099999999212,
            "durationTicks": 192,
            "midi": 56,
            "name": "G#3",
            "ticks": 72776,
            "time": 82.40024695833334,
            "velocity": 0.3937007874015748
          },
          {
            "duration": 0.21739099999999212,
            "durationTicks": 192,
            "midi": 70,
            "name": "A#4",
            "ticks": 72776,
            "time": 82.40024695833334,
            "velocity": 0.3937007874015748
          },
          {
            "duration": 0.21739099999999212,
            "durationTicks": 192,
            "midi": 58,
            "name": "A#3",
            "ticks": 72776,
            "time": 82.40024695833334,
            "velocity": 0.3937007874015748
          },
          {
            "duration": 0.21739099999999212,
            "durationTicks": 192,
            "midi": 75,
            "name": "D#5",
            "ticks": 72776,
            "time": 82.40024695833334,
            "velocity": 0.3937007874015748
          },
          {
            "duration": 0.10869549999999606,
            "durationTicks": 96,
            "midi": 61,
            "name": "C#4",
            "ticks": 72872,
            "time": 82.50894245833334,
            "velocity": 0.3937007874015748
          },
          {
            "duration": 0.10869549999999606,
            "durationTicks": 96,
            "midi": 49,
            "name": "C#3",
            "ticks": 72872,
            "time": 82.50894245833334,
            "velocity": 0.3937007874015748
          },
          {
            "duration": 0.10869549999999606,
            "durationTicks": 96,
            "midi": 37,
            "name": "C#2",
            "ticks": 72872,
            "time": 82.50894245833334,
            "velocity": 0.3937007874015748
          },
          {
            "duration": 0.21739100000000633,
            "durationTicks": 192,
            "midi": 34,
            "name": "A#1",
            "ticks": 72968,
            "time": 82.61763795833333,
            "velocity": 0.3937007874015748
          },
          {
            "duration": 0.10869550000001027,
            "durationTicks": 96,
            "midi": 65,
            "name": "F4",
            "ticks": 72968,
            "time": 82.61763795833333,
            "velocity": 0.3937007874015748
          },
          {
            "duration": 0.10869550000001027,
            "durationTicks": 96,
            "midi": 37,
            "name": "C#2",
            "ticks": 72968,
            "time": 82.61763795833333,
            "velocity": 0.3937007874015748
          },
          {
            "duration": 0.43478199999999845,
            "durationTicks": 384,
            "midi": 56,
            "name": "G#3",
            "ticks": 72968,
            "time": 82.61763795833333,
            "velocity": 0.3937007874015748
          },
          {
            "duration": 0.21739100000000633,
            "durationTicks": 192,
            "midi": 65,
            "name": "F4",
            "ticks": 72968,
            "time": 82.61763795833333,
            "velocity": 0.3937007874015748
          },
          {
            "duration": 0.43478199999999845,
            "durationTicks": 384,
            "midi": 53,
            "name": "F3",
            "ticks": 72968,
            "time": 82.61763795833333,
            "velocity": 0.3937007874015748
          },
          {
            "duration": 0.10869550000001027,
            "durationTicks": 96,
            "midi": 25,
            "name": "C#1",
            "ticks": 72968,
            "time": 82.61763795833333,
            "velocity": 0.3937007874015748
          },
          {
            "duration": 0.21739100000000633,
            "durationTicks": 192,
            "midi": 73,
            "name": "C#5",
            "ticks": 72968,
            "time": 82.61763795833333,
            "velocity": 0.3937007874015748
          },
          {
            "duration": 0.21739100000000633,
            "durationTicks": 192,
            "midi": 77,
            "name": "F5",
            "ticks": 72968,
            "time": 82.61763795833333,
            "velocity": 0.3937007874015748
          },
          {
            "duration": 0.21739100000000633,
            "durationTicks": 192,
            "midi": 61,
            "name": "C#4",
            "ticks": 72968,
            "time": 82.61763795833333,
            "velocity": 0.3937007874015748
          },
          {
            "duration": 0.43478199999999845,
            "durationTicks": 384,
            "midi": 61,
            "name": "C#4",
            "ticks": 72968,
            "time": 82.61763795833333,
            "velocity": 0.3937007874015748
          },
          {
            "duration": 0.10869549999999606,
            "durationTicks": 96,
            "midi": 68,
            "name": "G#4",
            "ticks": 73064,
            "time": 82.72633345833334,
            "velocity": 0.3937007874015748
          },
          {
            "duration": 0.10869549999999606,
            "durationTicks": 96,
            "midi": 49,
            "name": "C#3",
            "ticks": 73064,
            "time": 82.72633345833334,
            "velocity": 0.3937007874015748
          },
          {
            "duration": 0.10869549999999606,
            "durationTicks": 96,
            "midi": 37,
            "name": "C#2",
            "ticks": 73064,
            "time": 82.72633345833334,
            "velocity": 0.3937007874015748
          },
          {
            "duration": 0.10869549999999606,
            "durationTicks": 96,
            "midi": 73,
            "name": "C#5",
            "ticks": 73160,
            "time": 82.83502895833334,
            "velocity": 0.3937007874015748
          },
          {
            "duration": 0.21739099999999212,
            "durationTicks": 192,
            "midi": 75,
            "name": "D#5",
            "ticks": 73160,
            "time": 82.83502895833334,
            "velocity": 0.3937007874015748
          },
          {
            "duration": 0.21739099999999212,
            "durationTicks": 192,
            "midi": 78,
            "name": "F#5",
            "ticks": 73160,
            "time": 82.83502895833334,
            "velocity": 0.3937007874015748
          },
          {
            "duration": 0.21739099999999212,
            "durationTicks": 192,
            "midi": 66,
            "name": "F#4",
            "ticks": 73160,
            "time": 82.83502895833334,
            "velocity": 0.3937007874015748
          },
          {
            "duration": 0.21739099999999212,
            "durationTicks": 192,
            "midi": 63,
            "name": "D#4",
            "ticks": 73160,
            "time": 82.83502895833334,
            "velocity": 0.3937007874015748
          },
          {
            "duration": 0.10869549999999606,
            "durationTicks": 96,
            "midi": 47,
            "name": "B2",
            "ticks": 73160,
            "time": 82.83502895833334,
            "velocity": 0.3937007874015748
          },
          {
            "duration": 0.10869549999999606,
            "durationTicks": 96,
            "midi": 35,
            "name": "B1",
            "ticks": 73160,
            "time": 82.83502895833334,
            "velocity": 0.3937007874015748
          },
          {
            "duration": 0.10869549999999606,
            "durationTicks": 96,
            "midi": 37,
            "name": "C#2",
            "ticks": 73256,
            "time": 82.94372445833334,
            "velocity": 0.3937007874015748
          },
          {
            "duration": 0.10869549999999606,
            "durationTicks": 96,
            "midi": 77,
            "name": "F5",
            "ticks": 73256,
            "time": 82.94372445833334,
            "velocity": 0.3937007874015748
          },
          {
            "duration": 0.10869549999999606,
            "durationTicks": 96,
            "midi": 49,
            "name": "C#3",
            "ticks": 73256,
            "time": 82.94372445833334,
            "velocity": 0.3937007874015748
          },
          {
            "duration": 0.10869550000001027,
            "durationTicks": 96,
            "midi": 38,
            "name": "D2",
            "ticks": 73352,
            "time": 83.05241995833333,
            "velocity": 0.3937007874015748
          },
          {
            "duration": 0.21739100000000633,
            "durationTicks": 192,
            "midi": 34,
            "name": "A#1",
            "ticks": 73352,
            "time": 83.05241995833333,
            "velocity": 0.3937007874015748
          },
          {
            "duration": 0.21739100000000633,
            "durationTicks": 192,
            "midi": 53,
            "name": "F3",
            "ticks": 73352,
            "time": 83.05241995833333,
            "velocity": 0.3937007874015748
          },
          {
            "duration": 0.21739100000000633,
            "durationTicks": 192,
            "midi": 65,
            "name": "F4",
            "ticks": 73352,
            "time": 83.05241995833333,
            "velocity": 0.3937007874015748
          },
          {
            "duration": 0.21739100000000633,
            "durationTicks": 192,
            "midi": 62,
            "name": "D4",
            "ticks": 73352,
            "time": 83.05241995833333,
            "velocity": 0.3937007874015748
          },
          {
            "duration": 0.21739100000000633,
            "durationTicks": 192,
            "midi": 74,
            "name": "D5",
            "ticks": 73352,
            "time": 83.05241995833333,
            "velocity": 0.3937007874015748
          },
          {
            "duration": 0.21739100000000633,
            "durationTicks": 192,
            "midi": 77,
            "name": "F5",
            "ticks": 73352,
            "time": 83.05241995833333,
            "velocity": 0.3937007874015748
          },
          {
            "duration": 0.10869550000001027,
            "durationTicks": 96,
            "midi": 50,
            "name": "D3",
            "ticks": 73352,
            "time": 83.05241995833333,
            "velocity": 0.3937007874015748
          },
          {
            "duration": 0.43478200000001266,
            "durationTicks": 384,
            "midi": 62,
            "name": "D4",
            "ticks": 73352,
            "time": 83.05241995833333,
            "velocity": 0.3937007874015748
          },
          {
            "duration": 0.10869550000001027,
            "durationTicks": 96,
            "midi": 50,
            "name": "D3",
            "ticks": 73352,
            "time": 83.05241995833333,
            "velocity": 0.3937007874015748
          },
          {
            "duration": 0.3260865000000024,
            "durationTicks": 288,
            "midi": 58,
            "name": "A#3",
            "ticks": 73352,
            "time": 83.05241995833333,
            "velocity": 0.3937007874015748
          },
          {
            "duration": 0.3260865000000024,
            "durationTicks": 288,
            "midi": 53,
            "name": "F3",
            "ticks": 73448,
            "time": 83.16111545833334,
            "velocity": 0.3937007874015748
          },
          {
            "duration": 0.21739100000000633,
            "durationTicks": 192,
            "midi": 75,
            "name": "D#5",
            "ticks": 73544,
            "time": 83.26981095833334,
            "velocity": 0.3937007874015748
          },
          {
            "duration": 0.21739100000000633,
            "durationTicks": 192,
            "midi": 34,
            "name": "A#1",
            "ticks": 73544,
            "time": 83.26981095833334,
            "velocity": 0.3937007874015748
          },
          {
            "duration": 0.21739100000000633,
            "durationTicks": 192,
            "midi": 70,
            "name": "A#4",
            "ticks": 73544,
            "time": 83.26981095833334,
            "velocity": 0.3937007874015748
          },
          {
            "duration": 0.21739100000000633,
            "durationTicks": 192,
            "midi": 63,
            "name": "D#4",
            "ticks": 73544,
            "time": 83.26981095833334,
            "velocity": 0.3937007874015748
          },
          {
            "duration": 0.21739100000000633,
            "durationTicks": 192,
            "midi": 58,
            "name": "A#3",
            "ticks": 73544,
            "time": 83.26981095833334,
            "velocity": 0.3937007874015748
          },
          {
            "duration": 0.21739100000000633,
            "durationTicks": 192,
            "midi": 58,
            "name": "A#3",
            "ticks": 73544,
            "time": 83.26981095833334,
            "velocity": 0.3937007874015748
          },
          {
            "duration": 0.10869549999999606,
            "durationTicks": 96,
            "midi": 36,
            "name": "C2",
            "ticks": 73544,
            "time": 83.26981095833334,
            "velocity": 0.3937007874015748
          },
          {
            "duration": 0.10869549999999606,
            "durationTicks": 96,
            "midi": 48,
            "name": "C3",
            "ticks": 73544,
            "time": 83.26981095833334,
            "velocity": 0.3937007874015748
          },
          {
            "duration": 0.10869550000001027,
            "durationTicks": 96,
            "midi": 38,
            "name": "D2",
            "ticks": 73640,
            "time": 83.37850645833333,
            "velocity": 0.3937007874015748
          },
          {
            "duration": 0.10869550000001027,
            "durationTicks": 96,
            "midi": 50,
            "name": "D3",
            "ticks": 73640,
            "time": 83.37850645833333,
            "velocity": 0.3937007874015748
          },
          {
            "duration": 0.10869550000001027,
            "durationTicks": 96,
            "midi": 62,
            "name": "D4",
            "ticks": 73640,
            "time": 83.37850645833333,
            "velocity": 0.3937007874015748
          },
          {
            "duration": 0.21739099999999212,
            "durationTicks": 192,
            "midi": 74,
            "name": "D5",
            "ticks": 73736,
            "time": 83.48720195833334,
            "velocity": 0.3937007874015748
          },
          {
            "duration": 0.10869549999999606,
            "durationTicks": 96,
            "midi": 65,
            "name": "F4",
            "ticks": 73736,
            "time": 83.48720195833334,
            "velocity": 0.3937007874015748
          },
          {
            "duration": 0.21739099999999212,
            "durationTicks": 192,
            "midi": 34,
            "name": "A#1",
            "ticks": 73736,
            "time": 83.48720195833334,
            "velocity": 0.3937007874015748
          },
          {
            "duration": 0.10869549999999606,
            "durationTicks": 96,
            "midi": 53,
            "name": "F3",
            "ticks": 73736,
            "time": 83.48720195833334,
            "velocity": 0.3937007874015748
          },
          {
            "duration": 0.21739099999999212,
            "durationTicks": 192,
            "midi": 69,
            "name": "A4",
            "ticks": 73736,
            "time": 83.48720195833334,
            "velocity": 0.3937007874015748
          },
          {
            "duration": 0.10869549999999606,
            "durationTicks": 96,
            "midi": 41,
            "name": "F2",
            "ticks": 73736,
            "time": 83.48720195833334,
            "velocity": 0.3937007874015748
          },
          {
            "duration": 0.43478199999999845,
            "durationTicks": 384,
            "midi": 53,
            "name": "F3",
            "ticks": 73736,
            "time": 83.48720195833334,
            "velocity": 0.3937007874015748
          },
          {
            "duration": 0.21739099999999212,
            "durationTicks": 192,
            "midi": 62,
            "name": "D4",
            "ticks": 73736,
            "time": 83.48720195833334,
            "velocity": 0.3937007874015748
          },
          {
            "duration": 0.21739099999999212,
            "durationTicks": 192,
            "midi": 57,
            "name": "A3",
            "ticks": 73736,
            "time": 83.48720195833334,
            "velocity": 0.3937007874015748
          },
          {
            "duration": 0.43478199999999845,
            "durationTicks": 384,
            "midi": 62,
            "name": "D4",
            "ticks": 73736,
            "time": 83.48720195833334,
            "velocity": 0.3937007874015748
          },
          {
            "duration": 0.43478199999999845,
            "durationTicks": 384,
            "midi": 58,
            "name": "A#3",
            "ticks": 73736,
            "time": 83.48720195833334,
            "velocity": 0.3937007874015748
          },
          {
            "duration": 0.10869549999999606,
            "durationTicks": 96,
            "midi": 70,
            "name": "A#4",
            "ticks": 73832,
            "time": 83.59589745833334,
            "velocity": 0.3937007874015748
          },
          {
            "duration": 0.10869549999999606,
            "durationTicks": 96,
            "midi": 51,
            "name": "D#3",
            "ticks": 73928,
            "time": 83.70459295833334,
            "velocity": 0.3937007874015748
          },
          {
            "duration": 0.21739100000000633,
            "durationTicks": 192,
            "midi": 77,
            "name": "F5",
            "ticks": 73928,
            "time": 83.70459295833334,
            "velocity": 0.3937007874015748
          },
          {
            "duration": 0.21739100000000633,
            "durationTicks": 192,
            "midi": 60,
            "name": "C4",
            "ticks": 73928,
            "time": 83.70459295833334,
            "velocity": 0.3937007874015748
          },
          {
            "duration": 0.10869549999999606,
            "durationTicks": 96,
            "midi": 74,
            "name": "D5",
            "ticks": 73928,
            "time": 83.70459295833334,
            "velocity": 0.3937007874015748
          },
          {
            "duration": 0.21739100000000633,
            "durationTicks": 192,
            "midi": 65,
            "name": "F4",
            "ticks": 73928,
            "time": 83.70459295833334,
            "velocity": 0.3937007874015748
          },
          {
            "duration": 0.21739100000000633,
            "durationTicks": 192,
            "midi": 72,
            "name": "C5",
            "ticks": 73928,
            "time": 83.70459295833334,
            "velocity": 0.3937007874015748
          },
          {
            "duration": 0.10869549999999606,
            "durationTicks": 96,
            "midi": 39,
            "name": "D#2",
            "ticks": 73928,
            "time": 83.70459295833334,
            "velocity": 0.3937007874015748
          },
          {
            "duration": 0.10869550000001027,
            "durationTicks": 96,
            "midi": 41,
            "name": "F2",
            "ticks": 74024,
            "time": 83.81328845833333,
            "velocity": 0.3937007874015748
          },
          {
            "duration": 0.10869550000001027,
            "durationTicks": 96,
            "midi": 53,
            "name": "F3",
            "ticks": 74024,
            "time": 83.81328845833333,
            "velocity": 0.3937007874015748
          },
          {
            "duration": 0.10869550000001027,
            "durationTicks": 96,
            "midi": 77,
            "name": "F5",
            "ticks": 74024,
            "time": 83.81328845833333,
            "velocity": 0.3937007874015748
          },
          {
            "duration": 0.10869549999999606,
            "durationTicks": 96,
            "midi": 51,
            "name": "D#3",
            "ticks": 74120,
            "time": 83.92198395833334,
            "velocity": 0.3937007874015748
          },
          {
            "duration": 0.21739099999999212,
            "durationTicks": 192,
            "midi": 54,
            "name": "F#3",
            "ticks": 74120,
            "time": 83.92198395833334,
            "velocity": 0.3937007874015748
          },
          {
            "duration": 0.21739099999999212,
            "durationTicks": 192,
            "midi": 63,
            "name": "D#4",
            "ticks": 74120,
            "time": 83.92198395833334,
            "velocity": 0.3937007874015748
          },
          {
            "duration": 0.43478199999999845,
            "durationTicks": 384,
            "midi": 63,
            "name": "D#4",
            "ticks": 74120,
            "time": 83.92198395833334,
            "velocity": 0.3937007874015748
          },
          {
            "duration": 0.10869549999999606,
            "durationTicks": 96,
            "midi": 27,
            "name": "D#1",
            "ticks": 74120,
            "time": 83.92198395833334,
            "velocity": 0.3937007874015748
          },
          {
            "duration": 0.21739099999999212,
            "durationTicks": 192,
            "midi": 75,
            "name": "D#5",
            "ticks": 74120,
            "time": 83.92198395833334,
            "velocity": 0.3937007874015748
          },
          {
            "duration": 0.21739099999999212,
            "durationTicks": 192,
            "midi": 58,
            "name": "A#3",
            "ticks": 74120,
            "time": 83.92198395833334,
            "velocity": 0.3937007874015748
          },
          {
            "duration": 0.21739099999999212,
            "durationTicks": 192,
            "midi": 34,
            "name": "A#1",
            "ticks": 74120,
            "time": 83.92198395833334,
            "velocity": 0.3937007874015748
          },
          {
            "duration": 0.3260865000000024,
            "durationTicks": 288,
            "midi": 58,
            "name": "A#3",
            "ticks": 74120,
            "time": 83.92198395833334,
            "velocity": 0.3937007874015748
          },
          {
            "duration": 0.10869549999999606,
            "durationTicks": 96,
            "midi": 39,
            "name": "D#2",
            "ticks": 74120,
            "time": 83.92198395833334,
            "velocity": 0.3937007874015748
          },
          {
            "duration": 0.21739099999999212,
            "durationTicks": 192,
            "midi": 70,
            "name": "A#4",
            "ticks": 74120,
            "time": 83.92198395833334,
            "velocity": 0.3937007874015748
          },
          {
            "duration": 0.3260865000000024,
            "durationTicks": 288,
            "midi": 54,
            "name": "F#3",
            "ticks": 74216,
            "time": 84.03067945833334,
            "velocity": 0.3937007874015748
          },
          {
            "duration": 0.21739100000000633,
            "durationTicks": 192,
            "midi": 61,
            "name": "C#4",
            "ticks": 74312,
            "time": 84.13937495833333,
            "velocity": 0.3937007874015748
          },
          {
            "duration": 0.21739100000000633,
            "durationTicks": 192,
            "midi": 58,
            "name": "A#3",
            "ticks": 74312,
            "time": 84.13937495833333,
            "velocity": 0.3937007874015748
          },
          {
            "duration": 0.21739100000000633,
            "durationTicks": 192,
            "midi": 77,
            "name": "F5",
            "ticks": 74312,
            "time": 84.13937495833333,
            "velocity": 0.3937007874015748
          },
          {
            "duration": 0.10869550000001027,
            "durationTicks": 96,
            "midi": 51,
            "name": "D#3",
            "ticks": 74312,
            "time": 84.13937495833333,
            "velocity": 0.3937007874015748
          },
          {
            "duration": 0.21739100000000633,
            "durationTicks": 192,
            "midi": 73,
            "name": "C#5",
            "ticks": 74312,
            "time": 84.13937495833333,
            "velocity": 0.3937007874015748
          },
          {
            "duration": 0.21739100000000633,
            "durationTicks": 192,
            "midi": 65,
            "name": "F4",
            "ticks": 74312,
            "time": 84.13937495833333,
            "velocity": 0.3937007874015748
          },
          {
            "duration": 0.10869550000001027,
            "durationTicks": 96,
            "midi": 39,
            "name": "D#2",
            "ticks": 74312,
            "time": 84.13937495833333,
            "velocity": 0.3937007874015748
          },
          {
            "duration": 0.10869549999999606,
            "durationTicks": 96,
            "midi": 63,
            "name": "D#4",
            "ticks": 74408,
            "time": 84.24807045833334,
            "velocity": 0.3937007874015748
          },
          {
            "duration": 0.10869549999999606,
            "durationTicks": 96,
            "midi": 51,
            "name": "D#3",
            "ticks": 74408,
            "time": 84.24807045833334,
            "velocity": 0.3937007874015748
          },
          {
            "duration": 0.10869549999999606,
            "durationTicks": 96,
            "midi": 39,
            "name": "D#2",
            "ticks": 74408,
            "time": 84.24807045833334,
            "velocity": 0.3937007874015748
          },
          {
            "duration": 0.10869549999999606,
            "durationTicks": 96,
            "midi": 27,
            "name": "D#1",
            "ticks": 74504,
            "time": 84.35676595833334,
            "velocity": 0.3937007874015748
          },
          {
            "duration": 0.21739099999999212,
            "durationTicks": 192,
            "midi": 63,
            "name": "D#4",
            "ticks": 74504,
            "time": 84.35676595833334,
            "velocity": 0.3937007874015748
          },
          {
            "duration": 0.43478199999999845,
            "durationTicks": 384,
            "midi": 54,
            "name": "F#3",
            "ticks": 74504,
            "time": 84.35676595833334,
            "velocity": 0.3937007874015748
          },
          {
            "duration": 0.43478199999999845,
            "durationTicks": 384,
            "midi": 63,
            "name": "D#4",
            "ticks": 74504,
            "time": 84.35676595833334,
            "velocity": 0.3937007874015748
          },
          {
            "duration": 0.10869549999999606,
            "durationTicks": 96,
            "midi": 66,
            "name": "F#4",
            "ticks": 74504,
            "time": 84.35676595833334,
            "velocity": 0.3937007874015748
          },
          {
            "duration": 0.43478199999999845,
            "durationTicks": 384,
            "midi": 58,
            "name": "A#3",
            "ticks": 74504,
            "time": 84.35676595833334,
            "velocity": 0.3937007874015748
          },
          {
            "duration": 0.21739099999999212,
            "durationTicks": 192,
            "midi": 75,
            "name": "D#5",
            "ticks": 74504,
            "time": 84.35676595833334,
            "velocity": 0.3937007874015748
          },
          {
            "duration": 0.21739099999999212,
            "durationTicks": 192,
            "midi": 34,
            "name": "A#1",
            "ticks": 74504,
            "time": 84.35676595833334,
            "velocity": 0.3937007874015748
          },
          {
            "duration": 0.21739099999999212,
            "durationTicks": 192,
            "midi": 78,
            "name": "F#5",
            "ticks": 74504,
            "time": 84.35676595833334,
            "velocity": 0.3937007874015748
          },
          {
            "duration": 0.21739099999999212,
            "durationTicks": 192,
            "midi": 66,
            "name": "F#4",
            "ticks": 74504,
            "time": 84.35676595833334,
            "velocity": 0.3937007874015748
          },
          {
            "duration": 0.10869549999999606,
            "durationTicks": 96,
            "midi": 39,
            "name": "D#2",
            "ticks": 74504,
            "time": 84.35676595833334,
            "velocity": 0.3937007874015748
          },
          {
            "duration": 0.10869549999999606,
            "durationTicks": 96,
            "midi": 70,
            "name": "A#4",
            "ticks": 74600,
            "time": 84.46546145833334,
            "velocity": 0.3937007874015748
          },
          {
            "duration": 0.10869549999999606,
            "durationTicks": 96,
            "midi": 51,
            "name": "D#3",
            "ticks": 74600,
            "time": 84.46546145833334,
            "velocity": 0.3937007874015748
          },
          {
            "duration": 0.10869549999999606,
            "durationTicks": 96,
            "midi": 39,
            "name": "D#2",
            "ticks": 74600,
            "time": 84.46546145833334,
            "velocity": 0.3937007874015748
          },
          {
            "duration": 0.10869550000001027,
            "durationTicks": 96,
            "midi": 37,
            "name": "C#2",
            "ticks": 74696,
            "time": 84.57415695833333,
            "velocity": 0.3937007874015748
          },
          {
            "duration": 0.10869550000001027,
            "durationTicks": 96,
            "midi": 49,
            "name": "C#3",
            "ticks": 74696,
            "time": 84.57415695833333,
            "velocity": 0.3937007874015748
          },
          {
            "duration": 0.21739100000000633,
            "durationTicks": 192,
            "midi": 77,
            "name": "F5",
            "ticks": 74696,
            "time": 84.57415695833333,
            "velocity": 0.3937007874015748
          },
          {
            "duration": 0.21739100000000633,
            "durationTicks": 192,
            "midi": 68,
            "name": "G#4",
            "ticks": 74696,
            "time": 84.57415695833333,
            "velocity": 0.3937007874015748
          },
          {
            "duration": 0.10869550000001027,
            "durationTicks": 96,
            "midi": 75,
            "name": "D#5",
            "ticks": 74696,
            "time": 84.57415695833333,
            "velocity": 0.3937007874015748
          },
          {
            "duration": 0.21739100000000633,
            "durationTicks": 192,
            "midi": 65,
            "name": "F4",
            "ticks": 74696,
            "time": 84.57415695833333,
            "velocity": 0.3937007874015748
          },
          {
            "duration": 0.21739100000000633,
            "durationTicks": 192,
            "midi": 80,
            "name": "G#5",
            "ticks": 74696,
            "time": 84.57415695833333,
            "velocity": 0.3937007874015748
          },
          {
            "duration": 0.10869549999999606,
            "durationTicks": 96,
            "midi": 39,
            "name": "D#2",
            "ticks": 74792,
            "time": 84.68285245833334,
            "velocity": 0.3937007874015748
          },
          {
            "duration": 0.10869549999999606,
            "durationTicks": 96,
            "midi": 78,
            "name": "F#5",
            "ticks": 74792,
            "time": 84.68285245833334,
            "velocity": 0.3937007874015748
          },
          {
            "duration": 0.10869549999999606,
            "durationTicks": 96,
            "midi": 51,
            "name": "D#3",
            "ticks": 74792,
            "time": 84.68285245833334,
            "velocity": 0.3937007874015748
          },
          {
            "duration": 0.43478199999999845,
            "durationTicks": 384,
            "midi": 63,
            "name": "D#4",
            "ticks": 74888,
            "time": 84.79154795833334,
            "velocity": 0.3937007874015748
          },
          {
            "duration": 0.21739099999999212,
            "durationTicks": 192,
            "midi": 70,
            "name": "A#4",
            "ticks": 74888,
            "time": 84.79154795833334,
            "velocity": 0.3937007874015748
          },
          {
            "duration": 0.21739099999999212,
            "durationTicks": 192,
            "midi": 34,
            "name": "A#1",
            "ticks": 74888,
            "time": 84.79154795833334,
            "velocity": 0.3937007874015748
          },
          {
            "duration": 0.10869549999999606,
            "durationTicks": 96,
            "midi": 39,
            "name": "D#2",
            "ticks": 74888,
            "time": 84.79154795833334,
            "velocity": 0.3937007874015748
          },
          {
            "duration": 0.3260865000000024,
            "durationTicks": 288,
            "midi": 58,
            "name": "A#3",
            "ticks": 74888,
            "time": 84.79154795833334,
            "velocity": 0.3937007874015748
          },
          {
            "duration": 0.21739099999999212,
            "durationTicks": 192,
            "midi": 78,
            "name": "F#5",
            "ticks": 74888,
            "time": 84.79154795833334,
            "velocity": 0.3937007874015748
          },
          {
            "duration": 0.10869549999999606,
            "durationTicks": 96,
            "midi": 51,
            "name": "D#3",
            "ticks": 74888,
            "time": 84.79154795833334,
            "velocity": 0.3937007874015748
          },
          {
            "duration": 0.21739099999999212,
            "durationTicks": 192,
            "midi": 54,
            "name": "F#3",
            "ticks": 74888,
            "time": 84.79154795833334,
            "velocity": 0.3937007874015748
          },
          {
            "duration": 0.21739099999999212,
            "durationTicks": 192,
            "midi": 66,
            "name": "F#4",
            "ticks": 74888,
            "time": 84.79154795833334,
            "velocity": 0.3937007874015748
          },
          {
            "duration": 0.21739099999999212,
            "durationTicks": 192,
            "midi": 82,
            "name": "A#5",
            "ticks": 74888,
            "time": 84.79154795833334,
            "velocity": 0.3937007874015748
          },
          {
            "duration": 0.10869549999999606,
            "durationTicks": 96,
            "midi": 27,
            "name": "D#1",
            "ticks": 74888,
            "time": 84.79154795833334,
            "velocity": 0.3937007874015748
          },
          {
            "duration": 0.3260865000000024,
            "durationTicks": 288,
            "midi": 54,
            "name": "F#3",
            "ticks": 74984,
            "time": 84.90024345833334,
            "velocity": 0.3937007874015748
          },
          {
            "duration": 0.21739100000000633,
            "durationTicks": 192,
            "midi": 58,
            "name": "A#3",
            "ticks": 75080,
            "time": 85.00893895833333,
            "velocity": 0.3937007874015748
          },
          {
            "duration": 0.10869550000001027,
            "durationTicks": 96,
            "midi": 51,
            "name": "D#3",
            "ticks": 75080,
            "time": 85.00893895833333,
            "velocity": 0.3937007874015748
          },
          {
            "duration": 0.10869550000001027,
            "durationTicks": 96,
            "midi": 39,
            "name": "D#2",
            "ticks": 75080,
            "time": 85.00893895833333,
            "velocity": 0.3937007874015748
          },
          {
            "duration": 0.10869549999999606,
            "durationTicks": 96,
            "midi": 39,
            "name": "D#2",
            "ticks": 75176,
            "time": 85.11763445833334,
            "velocity": 0.3937007874015748
          },
          {
            "duration": 0.10869549999999606,
            "durationTicks": 96,
            "midi": 63,
            "name": "D#4",
            "ticks": 75176,
            "time": 85.11763445833334,
            "velocity": 0.3937007874015748
          },
          {
            "duration": 0.10869549999999606,
            "durationTicks": 96,
            "midi": 51,
            "name": "D#3",
            "ticks": 75176,
            "time": 85.11763445833334,
            "velocity": 0.3937007874015748
          },
          {
            "duration": 0.21739100000000633,
            "durationTicks": 192,
            "midi": 70,
            "name": "A#4",
            "ticks": 75272,
            "time": 85.22632995833334,
            "velocity": 0.3937007874015748
          },
          {
            "duration": 0.10869549999999606,
            "durationTicks": 96,
            "midi": 66,
            "name": "F#4",
            "ticks": 75272,
            "time": 85.22632995833334,
            "velocity": 0.3937007874015748
          },
          {
            "duration": 0.43478199999999845,
            "durationTicks": 384,
            "midi": 63,
            "name": "D#4",
            "ticks": 75272,
            "time": 85.22632995833334,
            "velocity": 0.3937007874015748
          },
          {
            "duration": 0.21739100000000633,
            "durationTicks": 192,
            "midi": 87,
            "name": "D#6",
            "ticks": 75272,
            "time": 85.22632995833334,
            "velocity": 0.3937007874015748
          },
          {
            "duration": 0.21739100000000633,
            "durationTicks": 192,
            "midi": 34,
            "name": "A#1",
            "ticks": 75272,
            "time": 85.22632995833334,
            "velocity": 0.3937007874015748
          },
          {
            "duration": 0.21739100000000633,
            "durationTicks": 192,
            "midi": 75,
            "name": "D#5",
            "ticks": 75272,
            "time": 85.22632995833334,
            "velocity": 0.3937007874015748
          },
          {
            "duration": 0.21739100000000633,
            "durationTicks": 192,
            "midi": 82,
            "name": "A#5",
            "ticks": 75272,
            "time": 85.22632995833334,
            "velocity": 0.3937007874015748
          },
          {
            "duration": 0.10869549999999606,
            "durationTicks": 96,
            "midi": 39,
            "name": "D#2",
            "ticks": 75272,
            "time": 85.22632995833334,
            "velocity": 0.3937007874015748
          },
          {
            "duration": 0.43478199999999845,
            "durationTicks": 384,
            "midi": 58,
            "name": "A#3",
            "ticks": 75272,
            "time": 85.22632995833334,
            "velocity": 0.3937007874015748
          },
          {
            "duration": 0.10869549999999606,
            "durationTicks": 96,
            "midi": 27,
            "name": "D#1",
            "ticks": 75272,
            "time": 85.22632995833334,
            "velocity": 0.3937007874015748
          },
          {
            "duration": 0.43478199999999845,
            "durationTicks": 384,
            "midi": 54,
            "name": "F#3",
            "ticks": 75272,
            "time": 85.22632995833334,
            "velocity": 0.3937007874015748
          },
          {
            "duration": 0.10869550000001027,
            "durationTicks": 96,
            "midi": 39,
            "name": "D#2",
            "ticks": 75368,
            "time": 85.33502545833333,
            "velocity": 0.3937007874015748
          },
          {
            "duration": 0.10869550000001027,
            "durationTicks": 96,
            "midi": 51,
            "name": "D#3",
            "ticks": 75368,
            "time": 85.33502545833333,
            "velocity": 0.3937007874015748
          },
          {
            "duration": 0.10869550000001027,
            "durationTicks": 96,
            "midi": 70,
            "name": "A#4",
            "ticks": 75368,
            "time": 85.33502545833333,
            "velocity": 0.3937007874015748
          },
          {
            "duration": 0.21739099999999212,
            "durationTicks": 192,
            "midi": 73,
            "name": "C#5",
            "ticks": 75464,
            "time": 85.44372095833334,
            "velocity": 0.3937007874015748
          },
          {
            "duration": 0.21739099999999212,
            "durationTicks": 192,
            "midi": 80,
            "name": "G#5",
            "ticks": 75464,
            "time": 85.44372095833334,
            "velocity": 0.3937007874015748
          },
          {
            "duration": 0.10869549999999606,
            "durationTicks": 96,
            "midi": 49,
            "name": "C#3",
            "ticks": 75464,
            "time": 85.44372095833334,
            "velocity": 0.3937007874015748
          },
          {
            "duration": 0.10869549999999606,
            "durationTicks": 96,
            "midi": 75,
            "name": "D#5",
            "ticks": 75464,
            "time": 85.44372095833334,
            "velocity": 0.3937007874015748
          },
          {
            "duration": 0.10869549999999606,
            "durationTicks": 96,
            "midi": 37,
            "name": "C#2",
            "ticks": 75464,
            "time": 85.44372095833334,
            "velocity": 0.3937007874015748
          },
          {
            "duration": 0.21739099999999212,
            "durationTicks": 192,
            "midi": 85,
            "name": "C#6",
            "ticks": 75464,
            "time": 85.44372095833334,
            "velocity": 0.3937007874015748
          },
          {
            "duration": 0.21739099999999212,
            "durationTicks": 192,
            "midi": 68,
            "name": "G#4",
            "ticks": 75464,
            "time": 85.44372095833334,
            "velocity": 0.3937007874015748
          },
          {
            "duration": 0.10869549999999606,
            "durationTicks": 96,
            "midi": 39,
            "name": "D#2",
            "ticks": 75560,
            "time": 85.55241645833334,
            "velocity": 0.3937007874015748
          },
          {
            "duration": 0.10869549999999606,
            "durationTicks": 96,
            "midi": 78,
            "name": "F#5",
            "ticks": 75560,
            "time": 85.55241645833334,
            "velocity": 0.3937007874015748
          },
          {
            "duration": 0.10869549999999606,
            "durationTicks": 96,
            "midi": 51,
            "name": "D#3",
            "ticks": 75560,
            "time": 85.55241645833334,
            "velocity": 0.3937007874015748
          },
          {
            "duration": 0.21739100000000633,
            "durationTicks": 192,
            "midi": 70,
            "name": "A#4",
            "ticks": 75656,
            "time": 85.66111195833334,
            "velocity": 0.3937007874015748
          },
          {
            "duration": 0.21739100000000633,
            "durationTicks": 192,
            "midi": 54,
            "name": "F#3",
            "ticks": 75656,
            "time": 85.66111195833334,
            "velocity": 0.3937007874015748
          },
          {
            "duration": 0.43478199999999845,
            "durationTicks": 384,
            "midi": 63,
            "name": "D#4",
            "ticks": 75656,
            "time": 85.66111195833334,
            "velocity": 0.3937007874015748
          },
          {
            "duration": 0.10869549999999606,
            "durationTicks": 96,
            "midi": 51,
            "name": "D#3",
            "ticks": 75656,
            "time": 85.66111195833334,
            "velocity": 0.3937007874015748
          },
          {
            "duration": 0.21739100000000633,
            "durationTicks": 192,
            "midi": 34,
            "name": "A#1",
            "ticks": 75656,
            "time": 85.66111195833334,
            "velocity": 0.3937007874015748
          },
          {
            "duration": 0.10869549999999606,
            "durationTicks": 96,
            "midi": 27,
            "name": "D#1",
            "ticks": 75656,
            "time": 85.66111195833334,
            "velocity": 0.3937007874015748
          },
          {
            "duration": 0.10869549999999606,
            "durationTicks": 96,
            "midi": 39,
            "name": "D#2",
            "ticks": 75656,
            "time": 85.66111195833334,
            "velocity": 0.3937007874015748
          },
          {
            "duration": 0.21739100000000633,
            "durationTicks": 192,
            "midi": 82,
            "name": "A#5",
            "ticks": 75656,
            "time": 85.66111195833334,
            "velocity": 0.3937007874015748
          },
          {
            "duration": 0.21739100000000633,
            "durationTicks": 192,
            "midi": 66,
            "name": "F#4",
            "ticks": 75656,
            "time": 85.66111195833334,
            "velocity": 0.3937007874015748
          },
          {
            "duration": 0.3260865000000024,
            "durationTicks": 288,
            "midi": 58,
            "name": "A#3",
            "ticks": 75656,
            "time": 85.66111195833334,
            "velocity": 0.3937007874015748
          },
          {
            "duration": 0.21739100000000633,
            "durationTicks": 192,
            "midi": 78,
            "name": "F#5",
            "ticks": 75656,
            "time": 85.66111195833334,
            "velocity": 0.3937007874015748
          },
          {
            "duration": 0.3260865000000024,
            "durationTicks": 288,
            "midi": 54,
            "name": "F#3",
            "ticks": 75752,
            "time": 85.76980745833333,
            "velocity": 0.3937007874015748
          },
          {
            "duration": 0.21739099999999212,
            "durationTicks": 192,
            "midi": 58,
            "name": "A#3",
            "ticks": 75848,
            "time": 85.87850295833334,
            "velocity": 0.3937007874015748
          },
          {
            "duration": 0.10869549999999606,
            "durationTicks": 96,
            "midi": 51,
            "name": "D#3",
            "ticks": 75848,
            "time": 85.87850295833334,
            "velocity": 0.3937007874015748
          },
          {
            "duration": 0.10869549999999606,
            "durationTicks": 96,
            "midi": 39,
            "name": "D#2",
            "ticks": 75848,
            "time": 85.87850295833334,
            "velocity": 0.3937007874015748
          },
          {
            "duration": 0.10869549999999606,
            "durationTicks": 96,
            "midi": 51,
            "name": "D#3",
            "ticks": 75944,
            "time": 85.98719845833334,
            "velocity": 0.3937007874015748
          },
          {
            "duration": 0.10869549999999606,
            "durationTicks": 96,
            "midi": 39,
            "name": "D#2",
            "ticks": 75944,
            "time": 85.98719845833334,
            "velocity": 0.3937007874015748
          },
          {
            "duration": 0.10869549999999606,
            "durationTicks": 96,
            "midi": 63,
            "name": "D#4",
            "ticks": 75944,
            "time": 85.98719845833334,
            "velocity": 0.3937007874015748
          },
          {
            "duration": 0.21739100000000633,
            "durationTicks": 192,
            "midi": 63,
            "name": "D#4",
            "ticks": 76040,
            "time": 86.09589395833333,
            "velocity": 0.3937007874015748
          },
          {
            "duration": 0.21739100000000633,
            "durationTicks": 192,
            "midi": 75,
            "name": "D#5",
            "ticks": 76040,
            "time": 86.09589395833333,
            "velocity": 0.3937007874015748
          },
          {
            "duration": 0.10869549999999606,
            "durationTicks": 96,
            "midi": 66,
            "name": "F#4",
            "ticks": 76040,
            "time": 86.09589395833333,
            "velocity": 0.3937007874015748
          },
          {
            "duration": 0.21739100000000633,
            "durationTicks": 192,
            "midi": 34,
            "name": "A#1",
            "ticks": 76040,
            "time": 86.09589395833333,
            "velocity": 0.3937007874015748
          },
          {
            "duration": 0.21739100000000633,
            "durationTicks": 192,
            "midi": 70,
            "name": "A#4",
            "ticks": 76040,
            "time": 86.09589395833333,
            "velocity": 0.3937007874015748
          },
          {
            "duration": 0.43478199999999845,
            "durationTicks": 384,
            "midi": 63,
            "name": "D#4",
            "ticks": 76040,
            "time": 86.09589395833333,
            "velocity": 0.3937007874015748
          },
          {
            "duration": 0.10869549999999606,
            "durationTicks": 96,
            "midi": 27,
            "name": "D#1",
            "ticks": 76040,
            "time": 86.09589395833333,
            "velocity": 0.3937007874015748
          },
          {
            "duration": 0.43478199999999845,
            "durationTicks": 384,
            "midi": 54,
            "name": "F#3",
            "ticks": 76040,
            "time": 86.09589395833333,
            "velocity": 0.3937007874015748
          },
          {
            "duration": 0.21739100000000633,
            "durationTicks": 192,
            "midi": 58,
            "name": "A#3",
            "ticks": 76040,
            "time": 86.09589395833333,
            "velocity": 0.3937007874015748
          },
          {
            "duration": 0.10869549999999606,
            "durationTicks": 96,
            "midi": 39,
            "name": "D#2",
            "ticks": 76040,
            "time": 86.09589395833333,
            "velocity": 0.3937007874015748
          },
          {
            "duration": 0.43478199999999845,
            "durationTicks": 384,
            "midi": 58,
            "name": "A#3",
            "ticks": 76040,
            "time": 86.09589395833333,
            "velocity": 0.3937007874015748
          },
          {
            "duration": 0.10869550000001027,
            "durationTicks": 96,
            "midi": 39,
            "name": "D#2",
            "ticks": 76136,
            "time": 86.20458945833333,
            "velocity": 0.3937007874015748
          },
          {
            "duration": 0.10869550000001027,
            "durationTicks": 96,
            "midi": 51,
            "name": "D#3",
            "ticks": 76136,
            "time": 86.20458945833333,
            "velocity": 0.3937007874015748
          },
          {
            "duration": 0.10869550000001027,
            "durationTicks": 96,
            "midi": 70,
            "name": "A#4",
            "ticks": 76136,
            "time": 86.20458945833333,
            "velocity": 0.3937007874015748
          },
          {
            "duration": 0.10869549999999606,
            "durationTicks": 96,
            "midi": 49,
            "name": "C#3",
            "ticks": 76232,
            "time": 86.31328495833334,
            "velocity": 0.3937007874015748
          },
          {
            "duration": 0.10869549999999606,
            "durationTicks": 96,
            "midi": 37,
            "name": "C#2",
            "ticks": 76232,
            "time": 86.31328495833334,
            "velocity": 0.3937007874015748
          },
          {
            "duration": 0.10869549999999606,
            "durationTicks": 96,
            "midi": 75,
            "name": "D#5",
            "ticks": 76232,
            "time": 86.31328495833334,
            "velocity": 0.3937007874015748
          },
          {
            "duration": 0.10869549999999606,
            "durationTicks": 96,
            "midi": 78,
            "name": "F#5",
            "ticks": 76328,
            "time": 86.42198045833334,
            "velocity": 0.3937007874015748
          },
          {
            "duration": 0.10869549999999606,
            "durationTicks": 96,
            "midi": 51,
            "name": "D#3",
            "ticks": 76328,
            "time": 86.42198045833334,
            "velocity": 0.3937007874015748
          },
          {
            "duration": 0.10869549999999606,
            "durationTicks": 96,
            "midi": 39,
            "name": "D#2",
            "ticks": 76328,
            "time": 86.42198045833334,
            "velocity": 0.3937007874015748
          },
          {
            "duration": 0.10869550000001027,
            "durationTicks": 96,
            "midi": 54,
            "name": "F#3",
            "ticks": 76424,
            "time": 86.53067595833333,
            "velocity": 0.3937007874015748
          },
          {
            "duration": 0.21739100000000633,
            "durationTicks": 192,
            "midi": 34,
            "name": "A#1",
            "ticks": 76424,
            "time": 86.53067595833333,
            "velocity": 0.3937007874015748
          },
          {
            "duration": 0.3260865000000024,
            "durationTicks": 288,
            "midi": 58,
            "name": "A#3",
            "ticks": 76424,
            "time": 86.53067595833333,
            "velocity": 0.3937007874015748
          },
          {
            "duration": 0.10869550000001027,
            "durationTicks": 96,
            "midi": 51,
            "name": "D#3",
            "ticks": 76424,
            "time": 86.53067595833333,
            "velocity": 0.3937007874015748
          },
          {
            "duration": 0.10869550000001027,
            "durationTicks": 96,
            "midi": 42,
            "name": "F#2",
            "ticks": 76424,
            "time": 86.53067595833333,
            "velocity": 0.3937007874015748
          },
          {
            "duration": 0.21739100000000633,
            "durationTicks": 192,
            "midi": 82,
            "name": "A#5",
            "ticks": 76424,
            "time": 86.53067595833333,
            "velocity": 0.3937007874015748
          },
          {
            "duration": 0.21739100000000633,
            "durationTicks": 192,
            "midi": 78,
            "name": "F#5",
            "ticks": 76424,
            "time": 86.53067595833333,
            "velocity": 0.3937007874015748
          },
          {
            "duration": 0.21739100000000633,
            "durationTicks": 192,
            "midi": 70,
            "name": "A#4",
            "ticks": 76424,
            "time": 86.53067595833333,
            "velocity": 0.3937007874015748
          },
          {
            "duration": 0.21739100000000633,
            "durationTicks": 192,
            "midi": 66,
            "name": "F#4",
            "ticks": 76424,
            "time": 86.53067595833333,
            "velocity": 0.3937007874015748
          },
          {
            "duration": 0.21739100000000633,
            "durationTicks": 192,
            "midi": 54,
            "name": "F#3",
            "ticks": 76424,
            "time": 86.53067595833333,
            "velocity": 0.3937007874015748
          },
          {
            "duration": 0.43478199999999845,
            "durationTicks": 384,
            "midi": 63,
            "name": "D#4",
            "ticks": 76424,
            "time": 86.53067595833333,
            "velocity": 0.3937007874015748
          },
          {
            "duration": 0.3260864999999882,
            "durationTicks": 288,
            "midi": 54,
            "name": "F#3",
            "ticks": 76520,
            "time": 86.63937145833334,
            "velocity": 0.3937007874015748
          },
          {
            "duration": 0.21739099999999212,
            "durationTicks": 192,
            "midi": 68,
            "name": "G#4",
            "ticks": 76616,
            "time": 86.74806695833334,
            "velocity": 0.3937007874015748
          },
          {
            "duration": 0.10869549999999606,
            "durationTicks": 96,
            "midi": 39,
            "name": "D#2",
            "ticks": 76616,
            "time": 86.74806695833334,
            "velocity": 0.3937007874015748
          },
          {
            "duration": 0.21739099999999212,
            "durationTicks": 192,
            "midi": 65,
            "name": "F4",
            "ticks": 76616,
            "time": 86.74806695833334,
            "velocity": 0.3937007874015748
          },
          {
            "duration": 0.21739099999999212,
            "durationTicks": 192,
            "midi": 58,
            "name": "A#3",
            "ticks": 76616,
            "time": 86.74806695833334,
            "velocity": 0.3937007874015748
          },
          {
            "duration": 0.21739099999999212,
            "durationTicks": 192,
            "midi": 80,
            "name": "G#5",
            "ticks": 76616,
            "time": 86.74806695833334,
            "velocity": 0.3937007874015748
          },
          {
            "duration": 0.10869549999999606,
            "durationTicks": 96,
            "midi": 51,
            "name": "D#3",
            "ticks": 76616,
            "time": 86.74806695833334,
            "velocity": 0.3937007874015748
          },
          {
            "duration": 0.21739099999999212,
            "durationTicks": 192,
            "midi": 77,
            "name": "F5",
            "ticks": 76616,
            "time": 86.74806695833334,
            "velocity": 0.3937007874015748
          },
          {
            "duration": 0.10869549999999606,
            "durationTicks": 96,
            "midi": 54,
            "name": "F#3",
            "ticks": 76712,
            "time": 86.85676245833334,
            "velocity": 0.3937007874015748
          },
          {
            "duration": 0.10869549999999606,
            "durationTicks": 96,
            "midi": 42,
            "name": "F#2",
            "ticks": 76712,
            "time": 86.85676245833334,
            "velocity": 0.3937007874015748
          },
          {
            "duration": 0.10869549999999606,
            "durationTicks": 96,
            "midi": 63,
            "name": "D#4",
            "ticks": 76712,
            "time": 86.85676245833334,
            "velocity": 0.3937007874015748
          },
          {
            "duration": 0.10869550000001027,
            "durationTicks": 96,
            "midi": 66,
            "name": "F#4",
            "ticks": 76808,
            "time": 86.96545795833333,
            "velocity": 0.3937007874015748
          },
          {
            "duration": 0.10869550000001027,
            "durationTicks": 96,
            "midi": 44,
            "name": "G#2",
            "ticks": 76808,
            "time": 86.96545795833333,
            "velocity": 0.3937007874015748
          },
          {
            "duration": 0.21739100000000633,
            "durationTicks": 192,
            "midi": 75,
            "name": "D#5",
            "ticks": 76808,
            "time": 86.96545795833333,
            "velocity": 0.3937007874015748
          },
          {
            "duration": 0.21739100000000633,
            "durationTicks": 192,
            "midi": 34,
            "name": "A#1",
            "ticks": 76808,
            "time": 86.96545795833333,
            "velocity": 0.3937007874015748
          },
          {
            "duration": 0.21739100000000633,
            "durationTicks": 192,
            "midi": 63,
            "name": "D#4",
            "ticks": 76808,
            "time": 86.96545795833333,
            "velocity": 0.3937007874015748
          },
          {
            "duration": 0.10869550000001027,
            "durationTicks": 96,
            "midi": 56,
            "name": "G#3",
            "ticks": 76808,
            "time": 86.96545795833333,
            "velocity": 0.3937007874015748
          },
          {
            "duration": 0.43478200000001266,
            "durationTicks": 384,
            "midi": 58,
            "name": "A#3",
            "ticks": 76808,
            "time": 86.96545795833333,
            "velocity": 0.3937007874015748
          },
          {
            "duration": 0.21739100000000633,
            "durationTicks": 192,
            "midi": 66,
            "name": "F#4",
            "ticks": 76808,
            "time": 86.96545795833333,
            "velocity": 0.3937007874015748
          },
          {
            "duration": 0.3260865000000024,
            "durationTicks": 288,
            "midi": 54,
            "name": "F#3",
            "ticks": 76808,
            "time": 86.96545795833333,
            "velocity": 0.3937007874015748
          },
          {
            "duration": 0.21739100000000633,
            "durationTicks": 192,
            "midi": 78,
            "name": "F#5",
            "ticks": 76808,
            "time": 86.96545795833333,
            "velocity": 0.3937007874015748
          },
          {
            "duration": 0.43478200000001266,
            "durationTicks": 384,
            "midi": 63,
            "name": "D#4",
            "ticks": 76808,
            "time": 86.96545795833333,
            "velocity": 0.3937007874015748
          },
          {
            "duration": 0.10869549999999606,
            "durationTicks": 96,
            "midi": 70,
            "name": "A#4",
            "ticks": 76904,
            "time": 87.07415345833334,
            "velocity": 0.3937007874015748
          },
          {
            "duration": 0.21739100000000633,
            "durationTicks": 192,
            "midi": 54,
            "name": "F#3",
            "ticks": 77000,
            "time": 87.18284895833334,
            "velocity": 0.3937007874015748
          },
          {
            "duration": 0.21739100000000633,
            "durationTicks": 192,
            "midi": 77,
            "name": "F5",
            "ticks": 77000,
            "time": 87.18284895833334,
            "velocity": 0.3937007874015748
          },
          {
            "duration": 0.21739100000000633,
            "durationTicks": 192,
            "midi": 34,
            "name": "A#1",
            "ticks": 77000,
            "time": 87.18284895833334,
            "velocity": 0.3937007874015748
          },
          {
            "duration": 0.10869549999999606,
            "durationTicks": 96,
            "midi": 42,
            "name": "F#2",
            "ticks": 77000,
            "time": 87.18284895833334,
            "velocity": 0.3937007874015748
          },
          {
            "duration": 0.21739100000000633,
            "durationTicks": 192,
            "midi": 65,
            "name": "F4",
            "ticks": 77000,
            "time": 87.18284895833334,
            "velocity": 0.3937007874015748
          },
          {
            "duration": 0.10869549999999606,
            "durationTicks": 96,
            "midi": 75,
            "name": "D#5",
            "ticks": 77000,
            "time": 87.18284895833334,
            "velocity": 0.3937007874015748
          },
          {
            "duration": 0.21739100000000633,
            "durationTicks": 192,
            "midi": 73,
            "name": "C#5",
            "ticks": 77000,
            "time": 87.18284895833334,
            "velocity": 0.3937007874015748
          },
          {
            "duration": 0.21739100000000633,
            "durationTicks": 192,
            "midi": 61,
            "name": "C#4",
            "ticks": 77000,
            "time": 87.18284895833334,
            "velocity": 0.3937007874015748
          },
          {
            "duration": 0.10869550000001027,
            "durationTicks": 96,
            "midi": 56,
            "name": "G#3",
            "ticks": 77096,
            "time": 87.29154445833333,
            "velocity": 0.3937007874015748
          },
          {
            "duration": 0.10869550000001027,
            "durationTicks": 96,
            "midi": 78,
            "name": "F#5",
            "ticks": 77096,
            "time": 87.29154445833333,
            "velocity": 0.3937007874015748
          },
          {
            "duration": 0.10869550000001027,
            "durationTicks": 96,
            "midi": 44,
            "name": "G#2",
            "ticks": 77096,
            "time": 87.29154445833333,
            "velocity": 0.3937007874015748
          },
          {
            "duration": 0.21739099999999212,
            "durationTicks": 192,
            "midi": 75,
            "name": "D#5",
            "ticks": 77192,
            "time": 87.40023995833334,
            "velocity": 0.3937007874015748
          },
          {
            "duration": 0.21739099999999212,
            "durationTicks": 192,
            "midi": 70,
            "name": "A#4",
            "ticks": 77192,
            "time": 87.40023995833334,
            "velocity": 0.3937007874015748
          },
          {
            "duration": 0.21739099999999212,
            "durationTicks": 192,
            "midi": 63,
            "name": "D#4",
            "ticks": 77192,
            "time": 87.40023995833334,
            "velocity": 0.3937007874015748
          },
          {
            "duration": 0.21739099999999212,
            "durationTicks": 192,
            "midi": 54,
            "name": "F#3",
            "ticks": 77192,
            "time": 87.40023995833334,
            "velocity": 0.3937007874015748
          },
          {
            "duration": 0.43478199999999845,
            "durationTicks": 384,
            "midi": 63,
            "name": "D#4",
            "ticks": 77192,
            "time": 87.40023995833334,
            "velocity": 0.3937007874015748
          },
          {
            "duration": 0.10869549999999606,
            "durationTicks": 96,
            "midi": 51,
            "name": "D#3",
            "ticks": 77192,
            "time": 87.40023995833334,
            "velocity": 0.3937007874015748
          },
          {
            "duration": 0.21739099999999212,
            "durationTicks": 192,
            "midi": 34,
            "name": "A#1",
            "ticks": 77192,
            "time": 87.40023995833334,
            "velocity": 0.3937007874015748
          },
          {
            "duration": 0.10869549999999606,
            "durationTicks": 96,
            "midi": 35,
            "name": "B1",
            "ticks": 77192,
            "time": 87.40023995833334,
            "velocity": 0.3937007874015748
          },
          {
            "duration": 0.10869549999999606,
            "durationTicks": 96,
            "midi": 35,
            "name": "B1",
            "ticks": 77192,
            "time": 87.40023995833334,
            "velocity": 0.3937007874015748
          },
          {
            "duration": 0.21739099999999212,
            "durationTicks": 192,
            "midi": 58,
            "name": "A#3",
            "ticks": 77192,
            "time": 87.40023995833334,
            "velocity": 0.3937007874015748
          },
          {
            "duration": 0.3260864999999882,
            "durationTicks": 288,
            "midi": 59,
            "name": "B3",
            "ticks": 77192,
            "time": 87.40023995833334,
            "velocity": 0.3937007874015748
          },
          {
            "duration": 0.3260865000000024,
            "durationTicks": 288,
            "midi": 54,
            "name": "F#3",
            "ticks": 77288,
            "time": 87.50893545833334,
            "velocity": 0.3937007874015748
          },
          {
            "duration": 0.21739100000000633,
            "durationTicks": 192,
            "midi": 59,
            "name": "B3",
            "ticks": 77384,
            "time": 87.61763095833334,
            "velocity": 0.3937007874015748
          },
          {
            "duration": 0.21739100000000633,
            "durationTicks": 192,
            "midi": 77,
            "name": "F5",
            "ticks": 77384,
            "time": 87.61763095833334,
            "velocity": 0.3937007874015748
          },
          {
            "duration": 0.21739100000000633,
            "durationTicks": 192,
            "midi": 73,
            "name": "C#5",
            "ticks": 77384,
            "time": 87.61763095833334,
            "velocity": 0.3937007874015748
          },
          {
            "duration": 0.21739100000000633,
            "durationTicks": 192,
            "midi": 61,
            "name": "C#4",
            "ticks": 77384,
            "time": 87.61763095833334,
            "velocity": 0.3937007874015748
          },
          {
            "duration": 0.10869549999999606,
            "durationTicks": 96,
            "midi": 35,
            "name": "B1",
            "ticks": 77384,
            "time": 87.61763095833334,
            "velocity": 0.3937007874015748
          },
          {
            "duration": 0.10869549999999606,
            "durationTicks": 96,
            "midi": 47,
            "name": "B2",
            "ticks": 77384,
            "time": 87.61763095833334,
            "velocity": 0.3937007874015748
          },
          {
            "duration": 0.21739100000000633,
            "durationTicks": 192,
            "midi": 65,
            "name": "F4",
            "ticks": 77384,
            "time": 87.61763095833334,
            "velocity": 0.3937007874015748
          },
          {
            "duration": 0.10869550000001027,
            "durationTicks": 96,
            "midi": 35,
            "name": "B1",
            "ticks": 77480,
            "time": 87.72632645833333,
            "velocity": 0.3937007874015748
          },
          {
            "duration": 0.10869550000001027,
            "durationTicks": 96,
            "midi": 47,
            "name": "B2",
            "ticks": 77480,
            "time": 87.72632645833333,
            "velocity": 0.3937007874015748
          },
          {
            "duration": 0.10869550000001027,
            "durationTicks": 96,
            "midi": 63,
            "name": "D#4",
            "ticks": 77480,
            "time": 87.72632645833333,
            "velocity": 0.3937007874015748
          },
          {
            "duration": 0.21739099999999212,
            "durationTicks": 192,
            "midi": 34,
            "name": "A#1",
            "ticks": 77576,
            "time": 87.83502195833334,
            "velocity": 0.3937007874015748
          },
          {
            "duration": 0.21739099999999212,
            "durationTicks": 192,
            "midi": 75,
            "name": "D#5",
            "ticks": 77576,
            "time": 87.83502195833334,
            "velocity": 0.3937007874015748
          },
          {
            "duration": 0.21739099999999212,
            "durationTicks": 192,
            "midi": 78,
            "name": "F#5",
            "ticks": 77576,
            "time": 87.83502195833334,
            "velocity": 0.3937007874015748
          },
          {
            "duration": 0.21739099999999212,
            "durationTicks": 192,
            "midi": 63,
            "name": "D#4",
            "ticks": 77576,
            "time": 87.83502195833334,
            "velocity": 0.3937007874015748
          },
          {
            "duration": 0.10869549999999606,
            "durationTicks": 96,
            "midi": 66,
            "name": "F#4",
            "ticks": 77576,
            "time": 87.83502195833334,
            "velocity": 0.3937007874015748
          },
          {
            "duration": 0.43478199999999845,
            "durationTicks": 384,
            "midi": 63,
            "name": "D#4",
            "ticks": 77576,
            "time": 87.83502195833334,
            "velocity": 0.3937007874015748
          },
          {
            "duration": 0.43478199999999845,
            "durationTicks": 384,
            "midi": 54,
            "name": "F#3",
            "ticks": 77576,
            "time": 87.83502195833334,
            "velocity": 0.3937007874015748
          },
          {
            "duration": 0.21739099999999212,
            "durationTicks": 192,
            "midi": 66,
            "name": "F#4",
            "ticks": 77576,
            "time": 87.83502195833334,
            "velocity": 0.3937007874015748
          },
          {
            "duration": 0.10869549999999606,
            "durationTicks": 96,
            "midi": 35,
            "name": "B1",
            "ticks": 77576,
            "time": 87.83502195833334,
            "velocity": 0.3937007874015748
          },
          {
            "duration": 0.10869549999999606,
            "durationTicks": 96,
            "midi": 35,
            "name": "B1",
            "ticks": 77576,
            "time": 87.83502195833334,
            "velocity": 0.3937007874015748
          },
          {
            "duration": 0.43478199999999845,
            "durationTicks": 384,
            "midi": 59,
            "name": "B3",
            "ticks": 77576,
            "time": 87.83502195833334,
            "velocity": 0.3937007874015748
          },
          {
            "duration": 0.10869549999999606,
            "durationTicks": 96,
            "midi": 71,
            "name": "B4",
            "ticks": 77672,
            "time": 87.94371745833334,
            "velocity": 0.3937007874015748
          },
          {
            "duration": 0.10869549999999606,
            "durationTicks": 96,
            "midi": 35,
            "name": "B1",
            "ticks": 77672,
            "time": 87.94371745833334,
            "velocity": 0.3937007874015748
          },
          {
            "duration": 0.10869549999999606,
            "durationTicks": 96,
            "midi": 47,
            "name": "B2",
            "ticks": 77672,
            "time": 87.94371745833334,
            "velocity": 0.3937007874015748
          },
          {
            "duration": 0.10869549999999606,
            "durationTicks": 96,
            "midi": 34,
            "name": "A#1",
            "ticks": 77768,
            "time": 88.05241295833333,
            "velocity": 0.3937007874015748
          },
          {
            "duration": 0.21739100000000633,
            "durationTicks": 192,
            "midi": 77,
            "name": "F5",
            "ticks": 77768,
            "time": 88.05241295833333,
            "velocity": 0.3937007874015748
          },
          {
            "duration": 0.21739100000000633,
            "durationTicks": 192,
            "midi": 68,
            "name": "G#4",
            "ticks": 77768,
            "time": 88.05241295833333,
            "velocity": 0.3937007874015748
          },
          {
            "duration": 0.21739100000000633,
            "durationTicks": 192,
            "midi": 65,
            "name": "F4",
            "ticks": 77768,
            "time": 88.05241295833333,
            "velocity": 0.3937007874015748
          },
          {
            "duration": 0.10869549999999606,
            "durationTicks": 96,
            "midi": 46,
            "name": "A#2",
            "ticks": 77768,
            "time": 88.05241295833333,
            "velocity": 0.3937007874015748
          },
          {
            "duration": 0.10869549999999606,
            "durationTicks": 96,
            "midi": 75,
            "name": "D#5",
            "ticks": 77768,
            "time": 88.05241295833333,
            "velocity": 0.3937007874015748
          },
          {
            "duration": 0.21739100000000633,
            "durationTicks": 192,
            "midi": 80,
            "name": "G#5",
            "ticks": 77768,
            "time": 88.05241295833333,
            "velocity": 0.3937007874015748
          },
          {
            "duration": 0.10869550000001027,
            "durationTicks": 96,
            "midi": 35,
            "name": "B1",
            "ticks": 77864,
            "time": 88.16110845833333,
            "velocity": 0.3937007874015748
          },
          {
            "duration": 0.10869550000001027,
            "durationTicks": 96,
            "midi": 78,
            "name": "F#5",
            "ticks": 77864,
            "time": 88.16110845833333,
            "velocity": 0.3937007874015748
          },
          {
            "duration": 0.10869550000001027,
            "durationTicks": 96,
            "midi": 47,
            "name": "B2",
            "ticks": 77864,
            "time": 88.16110845833333,
            "velocity": 0.3937007874015748
          },
          {
            "duration": 0.21739099999999212,
            "durationTicks": 192,
            "midi": 34,
            "name": "A#1",
            "ticks": 77960,
            "time": 88.26980395833334,
            "velocity": 0.3937007874015748
          },
          {
            "duration": 0.43478199999999845,
            "durationTicks": 384,
            "midi": 78,
            "name": "F#5",
            "ticks": 77960,
            "time": 88.26980395833334,
            "velocity": 0.3937007874015748
          },
          {
            "duration": 0.3260865000000024,
            "durationTicks": 288,
            "midi": 59,
            "name": "B3",
            "ticks": 77960,
            "time": 88.26980395833334,
            "velocity": 0.3937007874015748
          },
          {
            "duration": 0.43478199999999845,
            "durationTicks": 384,
            "midi": 70,
            "name": "A#4",
            "ticks": 77960,
            "time": 88.26980395833334,
            "velocity": 0.3937007874015748
          },
          {
            "duration": 0.43478199999999845,
            "durationTicks": 384,
            "midi": 66,
            "name": "F#4",
            "ticks": 77960,
            "time": 88.26980395833334,
            "velocity": 0.3937007874015748
          },
          {
            "duration": 0.10869549999999606,
            "durationTicks": 96,
            "midi": 35,
            "name": "B1",
            "ticks": 77960,
            "time": 88.26980395833334,
            "velocity": 0.3937007874015748
          },
          {
            "duration": 0.10869549999999606,
            "durationTicks": 96,
            "midi": 51,
            "name": "D#3",
            "ticks": 77960,
            "time": 88.26980395833334,
            "velocity": 0.3937007874015748
          },
          {
            "duration": 0.21739099999999212,
            "durationTicks": 192,
            "midi": 54,
            "name": "F#3",
            "ticks": 77960,
            "time": 88.26980395833334,
            "velocity": 0.3937007874015748
          },
          {
            "duration": 0.43478199999999845,
            "durationTicks": 384,
            "midi": 63,
            "name": "D#4",
            "ticks": 77960,
            "time": 88.26980395833334,
            "velocity": 0.3937007874015748
          },
          {
            "duration": 0.10869549999999606,
            "durationTicks": 96,
            "midi": 35,
            "name": "B1",
            "ticks": 77960,
            "time": 88.26980395833334,
            "velocity": 0.3937007874015748
          },
          {
            "duration": 0.43478199999999845,
            "durationTicks": 384,
            "midi": 82,
            "name": "A#5",
            "ticks": 77960,
            "time": 88.26980395833334,
            "velocity": 0.3937007874015748
          },
          {
            "duration": 0.3260865000000024,
            "durationTicks": 288,
            "midi": 54,
            "name": "F#3",
            "ticks": 78056,
            "time": 88.37849945833334,
            "velocity": 0.3937007874015748
          },
          {
            "duration": 0.10869550000001027,
            "durationTicks": 96,
            "midi": 35,
            "name": "B1",
            "ticks": 78152,
            "time": 88.48719495833333,
            "velocity": 0.3937007874015748
          },
          {
            "duration": 0.10869550000001027,
            "durationTicks": 96,
            "midi": 47,
            "name": "B2",
            "ticks": 78152,
            "time": 88.48719495833333,
            "velocity": 0.3937007874015748
          },
          {
            "duration": 0.21739100000000633,
            "durationTicks": 192,
            "midi": 59,
            "name": "B3",
            "ticks": 78152,
            "time": 88.48719495833333,
            "velocity": 0.3937007874015748
          },
          {
            "duration": 0.10869549999999606,
            "durationTicks": 96,
            "midi": 35,
            "name": "B1",
            "ticks": 78248,
            "time": 88.59589045833334,
            "velocity": 0.3937007874015748
          },
          {
            "duration": 0.10869549999999606,
            "durationTicks": 96,
            "midi": 47,
            "name": "B2",
            "ticks": 78248,
            "time": 88.59589045833334,
            "velocity": 0.3937007874015748
          },
          {
            "duration": 0.10869549999999606,
            "durationTicks": 96,
            "midi": 63,
            "name": "D#4",
            "ticks": 78248,
            "time": 88.59589045833334,
            "velocity": 0.3937007874015748
          },
          {
            "duration": 0.43478199999999845,
            "durationTicks": 384,
            "midi": 54,
            "name": "F#3",
            "ticks": 78344,
            "time": 88.70458595833334,
            "velocity": 0.3937007874015748
          },
          {
            "duration": 0.43478199999999845,
            "durationTicks": 384,
            "midi": 63,
            "name": "D#4",
            "ticks": 78344,
            "time": 88.70458595833334,
            "velocity": 0.3937007874015748
          },
          {
            "duration": 0.10869549999999606,
            "durationTicks": 96,
            "midi": 35,
            "name": "B1",
            "ticks": 78344,
            "time": 88.70458595833334,
            "velocity": 0.3937007874015748
          },
          {
            "duration": 0.43478199999999845,
            "durationTicks": 384,
            "midi": 59,
            "name": "B3",
            "ticks": 78344,
            "time": 88.70458595833334,
            "velocity": 0.3937007874015748
          },
          {
            "duration": 0.10869549999999606,
            "durationTicks": 96,
            "midi": 35,
            "name": "B1",
            "ticks": 78344,
            "time": 88.70458595833334,
            "velocity": 0.3937007874015748
          },
          {
            "duration": 0.21739099999999212,
            "durationTicks": 192,
            "midi": 68,
            "name": "G#4",
            "ticks": 78344,
            "time": 88.70458595833334,
            "velocity": 0.3937007874015748
          },
          {
            "duration": 0.21739099999999212,
            "durationTicks": 192,
            "midi": 34,
            "name": "A#1",
            "ticks": 78344,
            "time": 88.70458595833334,
            "velocity": 0.3937007874015748
          },
          {
            "duration": 0.21739099999999212,
            "durationTicks": 192,
            "midi": 65,
            "name": "F4",
            "ticks": 78344,
            "time": 88.70458595833334,
            "velocity": 0.3937007874015748
          },
          {
            "duration": 0.21739099999999212,
            "durationTicks": 192,
            "midi": 80,
            "name": "G#5",
            "ticks": 78344,
            "time": 88.70458595833334,
            "velocity": 0.3937007874015748
          },
          {
            "duration": 0.10869549999999606,
            "durationTicks": 96,
            "midi": 66,
            "name": "F#4",
            "ticks": 78344,
            "time": 88.70458595833334,
            "velocity": 0.3937007874015748
          },
          {
            "duration": 0.21739099999999212,
            "durationTicks": 192,
            "midi": 77,
            "name": "F5",
            "ticks": 78344,
            "time": 88.70458595833334,
            "velocity": 0.3937007874015748
          },
          {
            "duration": 0.10869549999999606,
            "durationTicks": 96,
            "midi": 71,
            "name": "B4",
            "ticks": 78440,
            "time": 88.81328145833334,
            "velocity": 0.3937007874015748
          },
          {
            "duration": 0.10869549999999606,
            "durationTicks": 96,
            "midi": 35,
            "name": "B1",
            "ticks": 78440,
            "time": 88.81328145833334,
            "velocity": 0.3937007874015748
          },
          {
            "duration": 0.10869549999999606,
            "durationTicks": 96,
            "midi": 47,
            "name": "B2",
            "ticks": 78440,
            "time": 88.81328145833334,
            "velocity": 0.3937007874015748
          },
          {
            "duration": 0.21739100000000633,
            "durationTicks": 192,
            "midi": 78,
            "name": "F#5",
            "ticks": 78536,
            "time": 88.92197695833333,
            "velocity": 0.3937007874015748
          },
          {
            "duration": 0.10869550000001027,
            "durationTicks": 96,
            "midi": 34,
            "name": "A#1",
            "ticks": 78536,
            "time": 88.92197695833333,
            "velocity": 0.3937007874015748
          },
          {
            "duration": 0.10869550000001027,
            "durationTicks": 96,
            "midi": 75,
            "name": "D#5",
            "ticks": 78536,
            "time": 88.92197695833333,
            "velocity": 0.3937007874015748
          },
          {
            "duration": 0.21739100000000633,
            "durationTicks": 192,
            "midi": 63,
            "name": "D#4",
            "ticks": 78536,
            "time": 88.92197695833333,
            "velocity": 0.3937007874015748
          },
          {
            "duration": 0.21739100000000633,
            "durationTicks": 192,
            "midi": 66,
            "name": "F#4",
            "ticks": 78536,
            "time": 88.92197695833333,
            "velocity": 0.3937007874015748
          },
          {
            "duration": 0.10869550000001027,
            "durationTicks": 96,
            "midi": 46,
            "name": "A#2",
            "ticks": 78536,
            "time": 88.92197695833333,
            "velocity": 0.3937007874015748
          },
          {
            "duration": 0.21739100000000633,
            "durationTicks": 192,
            "midi": 75,
            "name": "D#5",
            "ticks": 78536,
            "time": 88.92197695833333,
            "velocity": 0.3937007874015748
          },
          {
            "duration": 0.10869549999999606,
            "durationTicks": 96,
            "midi": 78,
            "name": "F#5",
            "ticks": 78632,
            "time": 89.03067245833334,
            "velocity": 0.3937007874015748
          },
          {
            "duration": 0.10869549999999606,
            "durationTicks": 96,
            "midi": 47,
            "name": "B2",
            "ticks": 78632,
            "time": 89.03067245833334,
            "velocity": 0.3937007874015748
          },
          {
            "duration": 0.10869549999999606,
            "durationTicks": 96,
            "midi": 35,
            "name": "B1",
            "ticks": 78632,
            "time": 89.03067245833334,
            "velocity": 0.3937007874015748
          },
          {
            "duration": 0.6521730000000048,
            "durationTicks": 576,
            "midi": 87,
            "name": "D#6",
            "ticks": 78680,
            "time": 89.08502020833333,
            "velocity": 0.3937007874015748
          },
          {
            "duration": 0.21739100000000633,
            "durationTicks": 192,
            "midi": 65,
            "name": "F4",
            "ticks": 78728,
            "time": 89.13936795833334,
            "velocity": 0.3937007874015748
          },
          {
            "duration": 0.10869549999999606,
            "durationTicks": 96,
            "midi": 25,
            "name": "C#1",
            "ticks": 78728,
            "time": 89.13936795833334,
            "velocity": 0.3937007874015748
          },
          {
            "duration": 0.21739100000000633,
            "durationTicks": 192,
            "midi": 77,
            "name": "F5",
            "ticks": 78728,
            "time": 89.13936795833334,
            "velocity": 0.3937007874015748
          },
          {
            "duration": 0.21739100000000633,
            "durationTicks": 192,
            "midi": 53,
            "name": "F3",
            "ticks": 78728,
            "time": 89.13936795833334,
            "velocity": 0.3937007874015748
          },
          {
            "duration": 0.21739100000000633,
            "durationTicks": 192,
            "midi": 73,
            "name": "C#5",
            "ticks": 78728,
            "time": 89.13936795833334,
            "velocity": 0.3937007874015748
          },
          {
            "duration": 0.21739100000000633,
            "durationTicks": 192,
            "midi": 61,
            "name": "C#4",
            "ticks": 78728,
            "time": 89.13936795833334,
            "velocity": 0.3937007874015748
          },
          {
            "duration": 0.43478199999999845,
            "durationTicks": 384,
            "midi": 61,
            "name": "C#4",
            "ticks": 78728,
            "time": 89.13936795833334,
            "velocity": 0.3937007874015748
          },
          {
            "duration": 0.10869549999999606,
            "durationTicks": 96,
            "midi": 37,
            "name": "C#2",
            "ticks": 78728,
            "time": 89.13936795833334,
            "velocity": 0.3937007874015748
          },
          {
            "duration": 0.21739100000000633,
            "durationTicks": 192,
            "midi": 34,
            "name": "A#1",
            "ticks": 78728,
            "time": 89.13936795833334,
            "velocity": 0.3937007874015748
          },
          {
            "duration": 0.10869549999999606,
            "durationTicks": 96,
            "midi": 49,
            "name": "C#3",
            "ticks": 78728,
            "time": 89.13936795833334,
            "velocity": 0.3937007874015748
          },
          {
            "duration": 0.3260865000000024,
            "durationTicks": 288,
            "midi": 56,
            "name": "G#3",
            "ticks": 78728,
            "time": 89.13936795833334,
            "velocity": 0.3937007874015748
          },
          {
            "duration": 0.3260865000000024,
            "durationTicks": 288,
            "midi": 53,
            "name": "F3",
            "ticks": 78824,
            "time": 89.24806345833333,
            "velocity": 0.3937007874015748
          },
          {
            "duration": 0.10869549999999606,
            "durationTicks": 96,
            "midi": 37,
            "name": "C#2",
            "ticks": 78920,
            "time": 89.35675895833334,
            "velocity": 0.3937007874015748
          },
          {
            "duration": 0.10869549999999606,
            "durationTicks": 96,
            "midi": 49,
            "name": "C#3",
            "ticks": 78920,
            "time": 89.35675895833334,
            "velocity": 0.3937007874015748
          },
          {
            "duration": 0.21739099999999212,
            "durationTicks": 192,
            "midi": 56,
            "name": "G#3",
            "ticks": 78920,
            "time": 89.35675895833334,
            "velocity": 0.3937007874015748
          },
          {
            "duration": 0.10869549999999606,
            "durationTicks": 96,
            "midi": 49,
            "name": "C#3",
            "ticks": 79016,
            "time": 89.46545445833334,
            "velocity": 0.3937007874015748
          },
          {
            "duration": 0.10869549999999606,
            "durationTicks": 96,
            "midi": 37,
            "name": "C#2",
            "ticks": 79016,
            "time": 89.46545445833334,
            "velocity": 0.3937007874015748
          },
          {
            "duration": 0.10869549999999606,
            "durationTicks": 96,
            "midi": 61,
            "name": "C#4",
            "ticks": 79016,
            "time": 89.46545445833334,
            "velocity": 0.3937007874015748
          },
          {
            "duration": 0.21739100000000633,
            "durationTicks": 192,
            "midi": 78,
            "name": "F#5",
            "ticks": 79112,
            "time": 89.57414995833334,
            "velocity": 0.3937007874015748
          },
          {
            "duration": 0.21739100000000633,
            "durationTicks": 192,
            "midi": 75,
            "name": "D#5",
            "ticks": 79112,
            "time": 89.57414995833334,
            "velocity": 0.3937007874015748
          },
          {
            "duration": 0.10869549999999606,
            "durationTicks": 96,
            "midi": 37,
            "name": "C#2",
            "ticks": 79112,
            "time": 89.57414995833334,
            "velocity": 0.3937007874015748
          },
          {
            "duration": 0.43478199999999845,
            "durationTicks": 384,
            "midi": 56,
            "name": "G#3",
            "ticks": 79112,
            "time": 89.57414995833334,
            "velocity": 0.3937007874015748
          },
          {
            "duration": 0.21739100000000633,
            "durationTicks": 192,
            "midi": 34,
            "name": "A#1",
            "ticks": 79112,
            "time": 89.57414995833334,
            "velocity": 0.3937007874015748
          },
          {
            "duration": 0.43478199999999845,
            "durationTicks": 384,
            "midi": 61,
            "name": "C#4",
            "ticks": 79112,
            "time": 89.57414995833334,
            "velocity": 0.3937007874015748
          },
          {
            "duration": 0.43478199999999845,
            "durationTicks": 384,
            "midi": 53,
            "name": "F3",
            "ticks": 79112,
            "time": 89.57414995833334,
            "velocity": 0.3937007874015748
          },
          {
            "duration": 0.10869549999999606,
            "durationTicks": 96,
            "midi": 25,
            "name": "C#1",
            "ticks": 79112,
            "time": 89.57414995833334,
            "velocity": 0.3937007874015748
          },
          {
            "duration": 0.21739100000000633,
            "durationTicks": 192,
            "midi": 66,
            "name": "F#4",
            "ticks": 79112,
            "time": 89.57414995833334,
            "velocity": 0.3937007874015748
          },
          {
            "duration": 0.10869549999999606,
            "durationTicks": 96,
            "midi": 65,
            "name": "F4",
            "ticks": 79112,
            "time": 89.57414995833334,
            "velocity": 0.3937007874015748
          },
          {
            "duration": 0.21739100000000633,
            "durationTicks": 192,
            "midi": 63,
            "name": "D#4",
            "ticks": 79112,
            "time": 89.57414995833334,
            "velocity": 0.3937007874015748
          },
          {
            "duration": 0.10869550000001027,
            "durationTicks": 96,
            "midi": 37,
            "name": "C#2",
            "ticks": 79208,
            "time": 89.68284545833333,
            "velocity": 0.3937007874015748
          },
          {
            "duration": 0.10869550000001027,
            "durationTicks": 96,
            "midi": 68,
            "name": "G#4",
            "ticks": 79208,
            "time": 89.68284545833333,
            "velocity": 0.3937007874015748
          },
          {
            "duration": 0.10869550000001027,
            "durationTicks": 96,
            "midi": 49,
            "name": "C#3",
            "ticks": 79208,
            "time": 89.68284545833333,
            "velocity": 0.3937007874015748
          },
          {
            "duration": 0.10869549999999606,
            "durationTicks": 96,
            "midi": 47,
            "name": "B2",
            "ticks": 79304,
            "time": 89.79154095833334,
            "velocity": 0.3937007874015748
          },
          {
            "duration": 0.10869549999999606,
            "durationTicks": 96,
            "midi": 35,
            "name": "B1",
            "ticks": 79304,
            "time": 89.79154095833334,
            "velocity": 0.3937007874015748
          },
          {
            "duration": 0.10869549999999606,
            "durationTicks": 96,
            "midi": 73,
            "name": "C#5",
            "ticks": 79304,
            "time": 89.79154095833334,
            "velocity": 0.3937007874015748
          },
          {
            "duration": 0.10869549999999606,
            "durationTicks": 96,
            "midi": 77,
            "name": "F5",
            "ticks": 79400,
            "time": 89.90023645833334,
            "velocity": 0.3937007874015748
          },
          {
            "duration": 0.10869549999999606,
            "durationTicks": 96,
            "midi": 37,
            "name": "C#2",
            "ticks": 79400,
            "time": 89.90023645833334,
            "velocity": 0.3937007874015748
          },
          {
            "duration": 0.10869549999999606,
            "durationTicks": 96,
            "midi": 49,
            "name": "C#3",
            "ticks": 79400,
            "time": 89.90023645833334,
            "velocity": 0.3937007874015748
          },
          {
            "duration": 0.4359142447916611,
            "durationTicks": 385,
            "midi": 65,
            "name": "F4",
            "ticks": 79496,
            "time": 90.00893195833333,
            "velocity": 0.3937007874015748
          },
          {
            "duration": 0.10869549999999606,
            "durationTicks": 96,
            "midi": 50,
            "name": "D3",
            "ticks": 79496,
            "time": 90.00893195833333,
            "velocity": 0.3937007874015748
          },
          {
            "duration": 0.4359142447916611,
            "durationTicks": 385,
            "midi": 77,
            "name": "F5",
            "ticks": 79496,
            "time": 90.00893195833333,
            "velocity": 0.3937007874015748
          },
          {
            "duration": 0.21739100000000633,
            "durationTicks": 192,
            "midi": 34,
            "name": "A#1",
            "ticks": 79496,
            "time": 90.00893195833333,
            "velocity": 0.3937007874015748
          },
          {
            "duration": 0.4359142447916611,
            "durationTicks": 385,
            "midi": 80,
            "name": "G#5",
            "ticks": 79496,
            "time": 90.00893195833333,
            "velocity": 0.3937007874015748
          },
          {
            "duration": 0.4359142447916611,
            "durationTicks": 385,
            "midi": 68,
            "name": "G#4",
            "ticks": 79496,
            "time": 90.00893195833333,
            "velocity": 0.3937007874015748
          },
          {
            "duration": 0.10869549999999606,
            "durationTicks": 96,
            "midi": 50,
            "name": "D3",
            "ticks": 79496,
            "time": 90.00893195833333,
            "velocity": 0.3937007874015748
          },
          {
            "duration": 0.10869549999999606,
            "durationTicks": 96,
            "midi": 58,
            "name": "A#3",
            "ticks": 79496,
            "time": 90.00893195833333,
            "velocity": 0.3937007874015748
          },
          {
            "duration": 0.10869549999999606,
            "durationTicks": 96,
            "midi": 62,
            "name": "D4",
            "ticks": 79496,
            "time": 90.00893195833333,
            "velocity": 0.3937007874015748
          },
          {
            "duration": 0.10869549999999606,
            "durationTicks": 96,
            "midi": 53,
            "name": "F3",
            "ticks": 79496,
            "time": 90.00893195833333,
            "velocity": 0.3937007874015748
          },
          {
            "duration": 0.10869549999999606,
            "durationTicks": 96,
            "midi": 38,
            "name": "D2",
            "ticks": 79496,
            "time": 90.00893195833333,
            "velocity": 0.3937007874015748
          },
          {
            "duration": 0.10869550000001027,
            "durationTicks": 96,
            "midi": 53,
            "name": "F3",
            "ticks": 79592,
            "time": 90.11762745833333,
            "velocity": 0.3937007874015748
          },
          {
            "duration": 0.10869549999999606,
            "durationTicks": 96,
            "midi": 62,
            "name": "D4",
            "ticks": 79624,
            "time": 90.15385929166666,
            "velocity": 0.3937007874015748
          },
          {
            "duration": 0.10869549999999606,
            "durationTicks": 96,
            "midi": 58,
            "name": "A#3",
            "ticks": 79624,
            "time": 90.15385929166666,
            "velocity": 0.3937007874015748
          },
          {
            "duration": 0.10869549999999606,
            "durationTicks": 96,
            "midi": 53,
            "name": "F3",
            "ticks": 79624,
            "time": 90.15385929166666,
            "velocity": 0.3937007874015748
          },
          {
            "duration": 0.10982774479165869,
            "durationTicks": 97,
            "midi": 58,
            "name": "A#3",
            "ticks": 79688,
            "time": 90.22632295833334,
            "velocity": 0.3937007874015748
          },
          {
            "duration": 0.10982774479165869,
            "durationTicks": 97,
            "midi": 36,
            "name": "C2",
            "ticks": 79688,
            "time": 90.22632295833334,
            "velocity": 0.3937007874015748
          },
          {
            "duration": 0.10982774479165869,
            "durationTicks": 97,
            "midi": 48,
            "name": "C3",
            "ticks": 79688,
            "time": 90.22632295833334,
            "velocity": 0.3937007874015748
          },
          {
            "duration": 0.10869549999999606,
            "durationTicks": 96,
            "midi": 62,
            "name": "D4",
            "ticks": 79753,
            "time": 90.29991886979167,
            "velocity": 0.3937007874015748
          },
          {
            "duration": 0.10869549999999606,
            "durationTicks": 96,
            "midi": 53,
            "name": "F3",
            "ticks": 79753,
            "time": 90.29991886979167,
            "velocity": 0.3937007874015748
          },
          {
            "duration": 0.10869549999999606,
            "durationTicks": 96,
            "midi": 58,
            "name": "A#3",
            "ticks": 79753,
            "time": 90.29991886979167,
            "velocity": 0.3937007874015748
          },
          {
            "duration": 0.10869549999999606,
            "durationTicks": 96,
            "midi": 50,
            "name": "D3",
            "ticks": 79785,
            "time": 90.336150703125,
            "velocity": 0.3937007874015748
          },
          {
            "duration": 0.10869549999999606,
            "durationTicks": 96,
            "midi": 38,
            "name": "D2",
            "ticks": 79785,
            "time": 90.336150703125,
            "velocity": 0.3937007874015748
          },
          {
            "duration": 0.10869549999999606,
            "durationTicks": 96,
            "midi": 62,
            "name": "D4",
            "ticks": 79785,
            "time": 90.336150703125,
            "velocity": 0.3937007874015748
          },
          {
            "duration": 0.10869550000001027,
            "durationTicks": 96,
            "midi": 58,
            "name": "A#3",
            "ticks": 79881,
            "time": 90.444846203125,
            "velocity": 0.3937007874015748
          },
          {
            "duration": 0.10869550000001027,
            "durationTicks": 96,
            "midi": 53,
            "name": "F3",
            "ticks": 79881,
            "time": 90.444846203125,
            "velocity": 0.3937007874015748
          },
          {
            "duration": 0.4359142447916611,
            "durationTicks": 385,
            "midi": 66,
            "name": "F#4",
            "ticks": 79881,
            "time": 90.444846203125,
            "velocity": 0.3937007874015748
          },
          {
            "duration": 0.10869550000001027,
            "durationTicks": 96,
            "midi": 41,
            "name": "F2",
            "ticks": 79881,
            "time": 90.444846203125,
            "velocity": 0.3937007874015748
          },
          {
            "duration": 0.21739100000000633,
            "durationTicks": 192,
            "midi": 70,
            "name": "A#4",
            "ticks": 79881,
            "time": 90.444846203125,
            "velocity": 0.3937007874015748
          },
          {
            "duration": 0.10869550000001027,
            "durationTicks": 96,
            "midi": 53,
            "name": "F3",
            "ticks": 79881,
            "time": 90.444846203125,
            "velocity": 0.3937007874015748
          },
          {
            "duration": 0.4359142447916611,
            "durationTicks": 385,
            "midi": 78,
            "name": "F#5",
            "ticks": 79881,
            "time": 90.444846203125,
            "velocity": 0.3937007874015748
          },
          {
            "duration": 0.4359142447916611,
            "durationTicks": 385,
            "midi": 82,
            "name": "A#5",
            "ticks": 79881,
            "time": 90.444846203125,
            "velocity": 0.3937007874015748
          },
          {
            "duration": 0.10869550000001027,
            "durationTicks": 96,
            "midi": 65,
            "name": "F4",
            "ticks": 79881,
            "time": 90.444846203125,
            "velocity": 0.3937007874015748
          },
          {
            "duration": 0.21739100000000633,
            "durationTicks": 192,
            "midi": 34,
            "name": "A#1",
            "ticks": 79881,
            "time": 90.444846203125,
            "velocity": 0.3937007874015748
          },
          {
            "duration": 0.10869550000001027,
            "durationTicks": 96,
            "midi": 62,
            "name": "D4",
            "ticks": 79881,
            "time": 90.444846203125,
            "velocity": 0.3937007874015748
          },
          {
            "duration": 0.3272187447916508,
            "durationTicks": 289,
            "midi": 70,
            "name": "A#4",
            "ticks": 79977,
            "time": 90.553541703125,
            "velocity": 0.3937007874015748
          },
          {
            "duration": 0.10869549999999606,
            "durationTicks": 96,
            "midi": 58,
            "name": "A#3",
            "ticks": 80009,
            "time": 90.58977353645834,
            "velocity": 0.3937007874015748
          },
          {
            "duration": 0.10869549999999606,
            "durationTicks": 96,
            "midi": 53,
            "name": "F3",
            "ticks": 80009,
            "time": 90.58977353645834,
            "velocity": 0.3937007874015748
          },
          {
            "duration": 0.10869549999999606,
            "durationTicks": 96,
            "midi": 62,
            "name": "D4",
            "ticks": 80009,
            "time": 90.58977353645834,
            "velocity": 0.3937007874015748
          },
          {
            "duration": 0.10982774479165869,
            "durationTicks": 97,
            "midi": 51,
            "name": "D#3",
            "ticks": 80073,
            "time": 90.662237203125,
            "velocity": 0.3937007874015748
          },
          {
            "duration": 0.10982774479165869,
            "durationTicks": 97,
            "midi": 74,
            "name": "D5",
            "ticks": 80073,
            "time": 90.662237203125,
            "velocity": 0.3937007874015748
          },
          {
            "duration": 0.10982774479165869,
            "durationTicks": 97,
            "midi": 39,
            "name": "D#2",
            "ticks": 80073,
            "time": 90.662237203125,
            "velocity": 0.3937007874015748
          },
          {
            "duration": 0.10869549999999606,
            "durationTicks": 96,
            "midi": 58,
            "name": "A#3",
            "ticks": 80138,
            "time": 90.73583311458334,
            "velocity": 0.3937007874015748
          },
          {
            "duration": 0.10869549999999606,
            "durationTicks": 96,
            "midi": 53,
            "name": "F3",
            "ticks": 80138,
            "time": 90.73583311458334,
            "velocity": 0.3937007874015748
          },
          {
            "duration": 0.10869549999999606,
            "durationTicks": 96,
            "midi": 62,
            "name": "D4",
            "ticks": 80138,
            "time": 90.73583311458334,
            "velocity": 0.3937007874015748
          },
          {
            "duration": 0.10869549999999606,
            "durationTicks": 96,
            "midi": 77,
            "name": "F5",
            "ticks": 80170,
            "time": 90.77206494791666,
            "velocity": 0.3937007874015748
          },
          {
            "duration": 0.10869549999999606,
            "durationTicks": 96,
            "midi": 41,
            "name": "F2",
            "ticks": 80170,
            "time": 90.77206494791666,
            "velocity": 0.3937007874015748
          },
          {
            "duration": 0.10869549999999606,
            "durationTicks": 96,
            "midi": 53,
            "name": "F3",
            "ticks": 80170,
            "time": 90.77206494791666,
            "velocity": 0.3937007874015748
          },
          {
            "duration": 0.10869550000001027,
            "durationTicks": 96,
            "midi": 47,
            "name": "B2",
            "ticks": 80266,
            "time": 90.88076044791666,
            "velocity": 0.3937007874015748
          },
          {
            "duration": 0.21739100000000633,
            "durationTicks": 192,
            "midi": 73,
            "name": "C#5",
            "ticks": 80266,
            "time": 90.88076044791666,
            "velocity": 0.3937007874015748
          },
          {
            "duration": 0.21739100000000633,
            "durationTicks": 192,
            "midi": 34,
            "name": "A#1",
            "ticks": 80266,
            "time": 90.88076044791666,
            "velocity": 0.3937007874015748
          },
          {
            "duration": 0.21739100000000633,
            "durationTicks": 192,
            "midi": 68,
            "name": "G#4",
            "ticks": 80266,
            "time": 90.88076044791666,
            "velocity": 0.3937007874015748
          },
          {
            "duration": 0.10869550000001027,
            "durationTicks": 96,
            "midi": 35,
            "name": "B1",
            "ticks": 80266,
            "time": 90.88076044791666,
            "velocity": 0.3937007874015748
          },
          {
            "duration": 0.10869550000001027,
            "durationTicks": 96,
            "midi": 87,
            "name": "D#6",
            "ticks": 80266,
            "time": 90.88076044791666,
            "velocity": 0.3937007874015748
          },
          {
            "duration": 0.21739100000000633,
            "durationTicks": 192,
            "midi": 80,
            "name": "G#5",
            "ticks": 80266,
            "time": 90.88076044791666,
            "velocity": 0.3937007874015748
          },
          {
            "duration": 0.10869550000001027,
            "durationTicks": 96,
            "midi": 35,
            "name": "B1",
            "ticks": 80266,
            "time": 90.88076044791666,
            "velocity": 0.3937007874015748
          },
          {
            "duration": 0.3260865000000024,
            "durationTicks": 288,
            "midi": 54,
            "name": "F#3",
            "ticks": 80266,
            "time": 90.88076044791666,
            "velocity": 0.3937007874015748
          },
          {
            "duration": 0.21739100000000633,
            "durationTicks": 192,
            "midi": 51,
            "name": "D#3",
            "ticks": 80266,
            "time": 90.88076044791666,
            "velocity": 0.3937007874015748
          },
          {
            "duration": 0.21739100000000633,
            "durationTicks": 192,
            "midi": 85,
            "name": "C#6",
            "ticks": 80266,
            "time": 90.88076044791666,
            "velocity": 0.3937007874015748
          },
          {
            "duration": 0.43478200000001266,
            "durationTicks": 384,
            "midi": 59,
            "name": "B3",
            "ticks": 80266,
            "time": 90.88076044791666,
            "velocity": 0.3937007874015748
          },
          {
            "duration": 0.10869549999999606,
            "durationTicks": 96,
            "midi": 87,
            "name": "D#6",
            "ticks": 80362,
            "time": 90.98945594791667,
            "velocity": 0.3937007874015748
          },
          {
            "duration": 0.3260865000000024,
            "durationTicks": 288,
            "midi": 51,
            "name": "D#3",
            "ticks": 80362,
            "time": 90.98945594791667,
            "velocity": 0.3937007874015748
          },
          {
            "duration": 0.21739100000000633,
            "durationTicks": 192,
            "midi": 75,
            "name": "D#5",
            "ticks": 80458,
            "time": 91.09815144791666,
            "velocity": 0.3937007874015748
          },
          {
            "duration": 0.21739100000000633,
            "durationTicks": 192,
            "midi": 82,
            "name": "A#5",
            "ticks": 80458,
            "time": 91.09815144791666,
            "velocity": 0.3937007874015748
          },
          {
            "duration": 0.10869549999999606,
            "durationTicks": 96,
            "midi": 47,
            "name": "B2",
            "ticks": 80458,
            "time": 91.09815144791666,
            "velocity": 0.3937007874015748
          },
          {
            "duration": 0.10869549999999606,
            "durationTicks": 96,
            "midi": 86,
            "name": "D6",
            "ticks": 80458,
            "time": 91.09815144791666,
            "velocity": 0.3937007874015748
          },
          {
            "duration": 0.21739100000000633,
            "durationTicks": 192,
            "midi": 87,
            "name": "D#6",
            "ticks": 80458,
            "time": 91.09815144791666,
            "velocity": 0.3937007874015748
          },
          {
            "duration": 0.10869549999999606,
            "durationTicks": 96,
            "midi": 35,
            "name": "B1",
            "ticks": 80458,
            "time": 91.09815144791666,
            "velocity": 0.3937007874015748
          },
          {
            "duration": 0.21739100000000633,
            "durationTicks": 192,
            "midi": 70,
            "name": "A#4",
            "ticks": 80458,
            "time": 91.09815144791666,
            "velocity": 0.3937007874015748
          },
          {
            "duration": 0.21739100000000633,
            "durationTicks": 192,
            "midi": 54,
            "name": "F#3",
            "ticks": 80458,
            "time": 91.09815144791666,
            "velocity": 0.3937007874015748
          },
          {
            "duration": 0.10869550000001027,
            "durationTicks": 96,
            "midi": 35,
            "name": "B1",
            "ticks": 80554,
            "time": 91.20684694791666,
            "velocity": 0.3937007874015748
          },
          {
            "duration": 0.10869550000001027,
            "durationTicks": 96,
            "midi": 47,
            "name": "B2",
            "ticks": 80554,
            "time": 91.20684694791666,
            "velocity": 0.3937007874015748
          },
          {
            "duration": 0.10869550000001027,
            "durationTicks": 96,
            "midi": 59,
            "name": "B3",
            "ticks": 80554,
            "time": 91.20684694791666,
            "velocity": 0.3937007874015748
          },
          {
            "duration": 0.10869550000001027,
            "durationTicks": 96,
            "midi": 86,
            "name": "D6",
            "ticks": 80554,
            "time": 91.20684694791666,
            "velocity": 0.3937007874015748
          },
          {
            "duration": 0.10869549999999606,
            "durationTicks": 96,
            "midi": 85,
            "name": "C#6",
            "ticks": 80650,
            "time": 91.31554244791667,
            "velocity": 0.3937007874015748
          },
          {
            "duration": 0.10869549999999606,
            "durationTicks": 96,
            "midi": 35,
            "name": "B1",
            "ticks": 80650,
            "time": 91.31554244791667,
            "velocity": 0.3937007874015748
          },
          {
            "duration": 0.21739099999999212,
            "durationTicks": 192,
            "midi": 34,
            "name": "A#1",
            "ticks": 80650,
            "time": 91.31554244791667,
            "velocity": 0.3937007874015748
          },
          {
            "duration": 0.21739099999999212,
            "durationTicks": 192,
            "midi": 70,
            "name": "A#4",
            "ticks": 80650,
            "time": 91.31554244791667,
            "velocity": 0.3937007874015748
          },
          {
            "duration": 0.21739099999999212,
            "durationTicks": 192,
            "midi": 66,
            "name": "F#4",
            "ticks": 80650,
            "time": 91.31554244791667,
            "velocity": 0.3937007874015748
          },
          {
            "duration": 0.43478199999999845,
            "durationTicks": 384,
            "midi": 51,
            "name": "D#3",
            "ticks": 80650,
            "time": 91.31554244791667,
            "velocity": 0.3937007874015748
          },
          {
            "duration": 0.10869549999999606,
            "durationTicks": 96,
            "midi": 63,
            "name": "D#4",
            "ticks": 80650,
            "time": 91.31554244791667,
            "velocity": 0.3937007874015748
          },
          {
            "duration": 0.43478199999999845,
            "durationTicks": 384,
            "midi": 59,
            "name": "B3",
            "ticks": 80650,
            "time": 91.31554244791667,
            "velocity": 0.3937007874015748
          },
          {
            "duration": 0.21739099999999212,
            "durationTicks": 192,
            "midi": 78,
            "name": "F#5",
            "ticks": 80650,
            "time": 91.31554244791667,
            "velocity": 0.3937007874015748
          },
          {
            "duration": 0.43478199999999845,
            "durationTicks": 384,
            "midi": 54,
            "name": "F#3",
            "ticks": 80650,
            "time": 91.31554244791667,
            "velocity": 0.3937007874015748
          },
          {
            "duration": 0.10869549999999606,
            "durationTicks": 96,
            "midi": 35,
            "name": "B1",
            "ticks": 80650,
            "time": 91.31554244791667,
            "velocity": 0.3937007874015748
          },
          {
            "duration": 0.21739099999999212,
            "durationTicks": 192,
            "midi": 82,
            "name": "A#5",
            "ticks": 80650,
            "time": 91.31554244791667,
            "velocity": 0.3937007874015748
          },
          {
            "duration": 0.10869549999999606,
            "durationTicks": 96,
            "midi": 47,
            "name": "B2",
            "ticks": 80746,
            "time": 91.42423794791667,
            "velocity": 0.3937007874015748
          },
          {
            "duration": 0.10869549999999606,
            "durationTicks": 96,
            "midi": 35,
            "name": "B1",
            "ticks": 80746,
            "time": 91.42423794791667,
            "velocity": 0.3937007874015748
          },
          {
            "duration": 0.10869549999999606,
            "durationTicks": 96,
            "midi": 66,
            "name": "F#4",
            "ticks": 80746,
            "time": 91.42423794791667,
            "velocity": 0.3937007874015748
          },
          {
            "duration": 0.10869549999999606,
            "durationTicks": 96,
            "midi": 85,
            "name": "C#6",
            "ticks": 80746,
            "time": 91.42423794791667,
            "velocity": 0.3937007874015748
          },
          {
            "duration": 0.10869549999999606,
            "durationTicks": 96,
            "midi": 84,
            "name": "C6",
            "ticks": 80842,
            "time": 91.53293344791666,
            "velocity": 0.3937007874015748
          },
          {
            "duration": 0.21739100000000633,
            "durationTicks": 192,
            "midi": 68,
            "name": "G#4",
            "ticks": 80842,
            "time": 91.53293344791666,
            "velocity": 0.3937007874015748
          },
          {
            "duration": 0.21739100000000633,
            "durationTicks": 192,
            "midi": 65,
            "name": "F4",
            "ticks": 80842,
            "time": 91.53293344791666,
            "velocity": 0.3937007874015748
          },
          {
            "duration": 0.10869549999999606,
            "durationTicks": 96,
            "midi": 71,
            "name": "B4",
            "ticks": 80842,
            "time": 91.53293344791666,
            "velocity": 0.3937007874015748
          },
          {
            "duration": 0.21739100000000633,
            "durationTicks": 192,
            "midi": 80,
            "name": "G#5",
            "ticks": 80842,
            "time": 91.53293344791666,
            "velocity": 0.3937007874015748
          },
          {
            "duration": 0.10869549999999606,
            "durationTicks": 96,
            "midi": 46,
            "name": "A#2",
            "ticks": 80842,
            "time": 91.53293344791666,
            "velocity": 0.3937007874015748
          },
          {
            "duration": 0.21739100000000633,
            "durationTicks": 192,
            "midi": 77,
            "name": "F5",
            "ticks": 80842,
            "time": 91.53293344791666,
            "velocity": 0.3937007874015748
          },
          {
            "duration": 0.10869549999999606,
            "durationTicks": 96,
            "midi": 34,
            "name": "A#1",
            "ticks": 80842,
            "time": 91.53293344791666,
            "velocity": 0.3937007874015748
          },
          {
            "duration": 0.10869550000001027,
            "durationTicks": 96,
            "midi": 75,
            "name": "D#5",
            "ticks": 80938,
            "time": 91.64162894791666,
            "velocity": 0.3937007874015748
          },
          {
            "duration": 0.10869550000001027,
            "durationTicks": 96,
            "midi": 84,
            "name": "C6",
            "ticks": 80938,
            "time": 91.64162894791666,
            "velocity": 0.3937007874015748
          },
          {
            "duration": 0.10869550000001027,
            "durationTicks": 96,
            "midi": 47,
            "name": "B2",
            "ticks": 80938,
            "time": 91.64162894791666,
            "velocity": 0.3937007874015748
          },
          {
            "duration": 0.10869550000001027,
            "durationTicks": 96,
            "midi": 35,
            "name": "B1",
            "ticks": 80938,
            "time": 91.64162894791666,
            "velocity": 0.3937007874015748
          },
          {
            "duration": 0.21739099999999212,
            "durationTicks": 192,
            "midi": 66,
            "name": "F#4",
            "ticks": 81034,
            "time": 91.75032444791667,
            "velocity": 0.3937007874015748
          },
          {
            "duration": 0.43478199999999845,
            "durationTicks": 384,
            "midi": 59,
            "name": "B3",
            "ticks": 81034,
            "time": 91.75032444791667,
            "velocity": 0.3937007874015748
          },
          {
            "duration": 0.21739099999999212,
            "durationTicks": 192,
            "midi": 70,
            "name": "A#4",
            "ticks": 81034,
            "time": 91.75032444791667,
            "velocity": 0.3937007874015748
          },
          {
            "duration": 0.21739099999999212,
            "durationTicks": 192,
            "midi": 82,
            "name": "A#5",
            "ticks": 81034,
            "time": 91.75032444791667,
            "velocity": 0.3937007874015748
          },
          {
            "duration": 0.10869549999999606,
            "durationTicks": 96,
            "midi": 47,
            "name": "B2",
            "ticks": 81034,
            "time": 91.75032444791667,
            "velocity": 0.3937007874015748
          },
          {
            "duration": 0.21739099999999212,
            "durationTicks": 192,
            "midi": 51,
            "name": "D#3",
            "ticks": 81034,
            "time": 91.75032444791667,
            "velocity": 0.3937007874015748
          },
          {
            "duration": 0.10869549999999606,
            "durationTicks": 96,
            "midi": 95,
            "name": "B6",
            "ticks": 81034,
            "time": 91.75032444791667,
            "velocity": 0.3937007874015748
          },
          {
            "duration": 0.10869549999999606,
            "durationTicks": 96,
            "midi": 35,
            "name": "B1",
            "ticks": 81034,
            "time": 91.75032444791667,
            "velocity": 0.3937007874015748
          },
          {
            "duration": 0.21739099999999212,
            "durationTicks": 192,
            "midi": 34,
            "name": "A#1",
            "ticks": 81034,
            "time": 91.75032444791667,
            "velocity": 0.3937007874015748
          },
          {
            "duration": 0.3260864999999882,
            "durationTicks": 288,
            "midi": 54,
            "name": "F#3",
            "ticks": 81034,
            "time": 91.75032444791667,
            "velocity": 0.3937007874015748
          },
          {
            "duration": 0.10869549999999606,
            "durationTicks": 96,
            "midi": 35,
            "name": "B1",
            "ticks": 81034,
            "time": 91.75032444791667,
            "velocity": 0.3937007874015748
          },
          {
            "duration": 0.21739099999999212,
            "durationTicks": 192,
            "midi": 78,
            "name": "F#5",
            "ticks": 81034,
            "time": 91.75032444791667,
            "velocity": 0.3937007874015748
          },
          {
            "duration": 0.3260865000000024,
            "durationTicks": 288,
            "midi": 51,
            "name": "D#3",
            "ticks": 81130,
            "time": 91.85901994791666,
            "velocity": 0.3937007874015748
          },
          {
            "duration": 0.10869549999999606,
            "durationTicks": 96,
            "midi": 95,
            "name": "B6",
            "ticks": 81130,
            "time": 91.85901994791666,
            "velocity": 0.3937007874015748
          },
          {
            "duration": 0.10869549999999606,
            "durationTicks": 96,
            "midi": 35,
            "name": "B1",
            "ticks": 81226,
            "time": 91.96771544791666,
            "velocity": 0.3937007874015748
          },
          {
            "duration": 0.10869549999999606,
            "durationTicks": 96,
            "midi": 94,
            "name": "A#6",
            "ticks": 81226,
            "time": 91.96771544791666,
            "velocity": 0.3937007874015748
          },
          {
            "duration": 0.21739100000000633,
            "durationTicks": 192,
            "midi": 54,
            "name": "F#3",
            "ticks": 81226,
            "time": 91.96771544791666,
            "velocity": 0.3937007874015748
          },
          {
            "duration": 0.10869549999999606,
            "durationTicks": 96,
            "midi": 47,
            "name": "B2",
            "ticks": 81226,
            "time": 91.96771544791666,
            "velocity": 0.3937007874015748
          },
          {
            "duration": 0.10869550000001027,
            "durationTicks": 96,
            "midi": 59,
            "name": "B3",
            "ticks": 81322,
            "time": 92.07641094791666,
            "velocity": 0.3937007874015748
          },
          {
            "duration": 0.10869550000001027,
            "durationTicks": 96,
            "midi": 94,
            "name": "A#6",
            "ticks": 81322,
            "time": 92.07641094791666,
            "velocity": 0.3937007874015748
          },
          {
            "duration": 0.10869550000001027,
            "durationTicks": 96,
            "midi": 47,
            "name": "B2",
            "ticks": 81322,
            "time": 92.07641094791666,
            "velocity": 0.3937007874015748
          },
          {
            "duration": 0.10869550000001027,
            "durationTicks": 96,
            "midi": 35,
            "name": "B1",
            "ticks": 81322,
            "time": 92.07641094791666,
            "velocity": 0.3937007874015748
          },
          {
            "duration": 0.10869549999999606,
            "durationTicks": 96,
            "midi": 63,
            "name": "D#4",
            "ticks": 81418,
            "time": 92.18510644791667,
            "velocity": 0.3937007874015748
          },
          {
            "duration": 0.43478199999999845,
            "durationTicks": 384,
            "midi": 51,
            "name": "D#3",
            "ticks": 81418,
            "time": 92.18510644791667,
            "velocity": 0.3937007874015748
          },
          {
            "duration": 0.21739099999999212,
            "durationTicks": 192,
            "midi": 80,
            "name": "G#5",
            "ticks": 81418,
            "time": 92.18510644791667,
            "velocity": 0.3937007874015748
          },
          {
            "duration": 0.43478199999999845,
            "durationTicks": 384,
            "midi": 54,
            "name": "F#3",
            "ticks": 81418,
            "time": 92.18510644791667,
            "velocity": 0.3937007874015748
          },
          {
            "duration": 0.21739099999999212,
            "durationTicks": 192,
            "midi": 34,
            "name": "A#1",
            "ticks": 81418,
            "time": 92.18510644791667,
            "velocity": 0.3937007874015748
          },
          {
            "duration": 0.10869549999999606,
            "durationTicks": 96,
            "midi": 93,
            "name": "A6",
            "ticks": 81418,
            "time": 92.18510644791667,
            "velocity": 0.3937007874015748
          },
          {
            "duration": 0.10869549999999606,
            "durationTicks": 96,
            "midi": 35,
            "name": "B1",
            "ticks": 81418,
            "time": 92.18510644791667,
            "velocity": 0.3937007874015748
          },
          {
            "duration": 0.43478199999999845,
            "durationTicks": 384,
            "midi": 59,
            "name": "B3",
            "ticks": 81418,
            "time": 92.18510644791667,
            "velocity": 0.3937007874015748
          },
          {
            "duration": 0.10869549999999606,
            "durationTicks": 96,
            "midi": 35,
            "name": "B1",
            "ticks": 81418,
            "time": 92.18510644791667,
            "velocity": 0.3937007874015748
          },
          {
            "duration": 0.21739099999999212,
            "durationTicks": 192,
            "midi": 68,
            "name": "G#4",
            "ticks": 81418,
            "time": 92.18510644791667,
            "velocity": 0.3937007874015748
          },
          {
            "duration": 0.21739099999999212,
            "durationTicks": 192,
            "midi": 77,
            "name": "F5",
            "ticks": 81418,
            "time": 92.18510644791667,
            "velocity": 0.3937007874015748
          },
          {
            "duration": 0.21739099999999212,
            "durationTicks": 192,
            "midi": 65,
            "name": "F4",
            "ticks": 81418,
            "time": 92.18510644791667,
            "velocity": 0.3937007874015748
          },
          {
            "duration": 0.10869549999999606,
            "durationTicks": 96,
            "midi": 35,
            "name": "B1",
            "ticks": 81514,
            "time": 92.29380194791666,
            "velocity": 0.3937007874015748
          },
          {
            "duration": 0.10869549999999606,
            "durationTicks": 96,
            "midi": 47,
            "name": "B2",
            "ticks": 81514,
            "time": 92.29380194791666,
            "velocity": 0.3937007874015748
          },
          {
            "duration": 0.10869549999999606,
            "durationTicks": 96,
            "midi": 93,
            "name": "A6",
            "ticks": 81514,
            "time": 92.29380194791666,
            "velocity": 0.3937007874015748
          },
          {
            "duration": 0.10869549999999606,
            "durationTicks": 96,
            "midi": 66,
            "name": "F#4",
            "ticks": 81514,
            "time": 92.29380194791666,
            "velocity": 0.3937007874015748
          },
          {
            "duration": 0.21739100000000633,
            "durationTicks": 192,
            "midi": 70,
            "name": "A#4",
            "ticks": 81610,
            "time": 92.40249744791666,
            "velocity": 0.3937007874015748
          },
          {
            "duration": 0.10869550000001027,
            "durationTicks": 96,
            "midi": 46,
            "name": "A#2",
            "ticks": 81610,
            "time": 92.40249744791666,
            "velocity": 0.3937007874015748
          },
          {
            "duration": 0.10869550000001027,
            "durationTicks": 96,
            "midi": 92,
            "name": "G#6",
            "ticks": 81610,
            "time": 92.40249744791666,
            "velocity": 0.3937007874015748
          },
          {
            "duration": 0.10869550000001027,
            "durationTicks": 96,
            "midi": 34,
            "name": "A#1",
            "ticks": 81610,
            "time": 92.40249744791666,
            "velocity": 0.3937007874015748
          },
          {
            "duration": 0.21739100000000633,
            "durationTicks": 192,
            "midi": 66,
            "name": "F#4",
            "ticks": 81610,
            "time": 92.40249744791666,
            "velocity": 0.3937007874015748
          },
          {
            "duration": 0.10869550000001027,
            "durationTicks": 96,
            "midi": 71,
            "name": "B4",
            "ticks": 81610,
            "time": 92.40249744791666,
            "velocity": 0.3937007874015748
          },
          {
            "duration": 0.21739100000000633,
            "durationTicks": 192,
            "midi": 82,
            "name": "A#5",
            "ticks": 81610,
            "time": 92.40249744791666,
            "velocity": 0.3937007874015748
          },
          {
            "duration": 0.21739100000000633,
            "durationTicks": 192,
            "midi": 78,
            "name": "F#5",
            "ticks": 81610,
            "time": 92.40249744791666,
            "velocity": 0.3937007874015748
          },
          {
            "duration": 0.10869549999999606,
            "durationTicks": 96,
            "midi": 92,
            "name": "G#6",
            "ticks": 81706,
            "time": 92.51119294791667,
            "velocity": 0.3937007874015748
          },
          {
            "duration": 0.10869549999999606,
            "durationTicks": 96,
            "midi": 35,
            "name": "B1",
            "ticks": 81706,
            "time": 92.51119294791667,
            "velocity": 0.3937007874015748
          },
          {
            "duration": 0.10869549999999606,
            "durationTicks": 96,
            "midi": 75,
            "name": "D#5",
            "ticks": 81706,
            "time": 92.51119294791667,
            "velocity": 0.3937007874015748
          },
          {
            "duration": 0.10869549999999606,
            "durationTicks": 96,
            "midi": 47,
            "name": "B2",
            "ticks": 81706,
            "time": 92.51119294791667,
            "velocity": 0.3937007874015748
          },
          {
            "duration": 0.10869549999999606,
            "durationTicks": 96,
            "midi": 25,
            "name": "C#1",
            "ticks": 81802,
            "time": 92.61988844791667,
            "velocity": 0.3937007874015748
          },
          {
            "duration": 0.21739099999999212,
            "durationTicks": 192,
            "midi": 34,
            "name": "A#1",
            "ticks": 81802,
            "time": 92.61988844791667,
            "velocity": 0.3937007874015748
          },
          {
            "duration": 0.21739099999999212,
            "durationTicks": 192,
            "midi": 53,
            "name": "F3",
            "ticks": 81802,
            "time": 92.61988844791667,
            "velocity": 0.3937007874015748
          },
          {
            "duration": 0.10869549999999606,
            "durationTicks": 96,
            "midi": 91,
            "name": "G6",
            "ticks": 81802,
            "time": 92.61988844791667,
            "velocity": 0.3937007874015748
          },
          {
            "duration": 0.21739099999999212,
            "durationTicks": 192,
            "midi": 68,
            "name": "G#4",
            "ticks": 81802,
            "time": 92.61988844791667,
            "velocity": 0.3937007874015748
          },
          {
            "duration": 0.43478199999999845,
            "durationTicks": 384,
            "midi": 61,
            "name": "C#4",
            "ticks": 81802,
            "time": 92.61988844791667,
            "velocity": 0.3937007874015748
          },
          {
            "duration": 0.21739099999999212,
            "durationTicks": 192,
            "midi": 80,
            "name": "G#5",
            "ticks": 81802,
            "time": 92.61988844791667,
            "velocity": 0.3937007874015748
          },
          {
            "duration": 0.10869549999999606,
            "durationTicks": 96,
            "midi": 49,
            "name": "C#3",
            "ticks": 81802,
            "time": 92.61988844791667,
            "velocity": 0.3937007874015748
          },
          {
            "duration": 0.3260865000000024,
            "durationTicks": 288,
            "midi": 56,
            "name": "G#3",
            "ticks": 81802,
            "time": 92.61988844791667,
            "velocity": 0.3937007874015748
          },
          {
            "duration": 0.21739099999999212,
            "durationTicks": 192,
            "midi": 73,
            "name": "C#5",
            "ticks": 81802,
            "time": 92.61988844791667,
            "velocity": 0.3937007874015748
          },
          {
            "duration": 0.10869549999999606,
            "durationTicks": 96,
            "midi": 37,
            "name": "C#2",
            "ticks": 81802,
            "time": 92.61988844791667,
            "velocity": 0.3937007874015748
          },
          {
            "duration": 0.21739099999999212,
            "durationTicks": 192,
            "midi": 85,
            "name": "C#6",
            "ticks": 81802,
            "time": 92.61988844791667,
            "velocity": 0.3937007874015748
          },
          {
            "duration": 0.3260865000000024,
            "durationTicks": 288,
            "midi": 53,
            "name": "F3",
            "ticks": 81898,
            "time": 92.72858394791666,
            "velocity": 0.3937007874015748
          },
          {
            "duration": 0.10869549999999606,
            "durationTicks": 96,
            "midi": 91,
            "name": "G6",
            "ticks": 81898,
            "time": 92.72858394791666,
            "velocity": 0.3937007874015748
          },
          {
            "duration": 0.21739100000000633,
            "durationTicks": 192,
            "midi": 75,
            "name": "D#5",
            "ticks": 81994,
            "time": 92.83727944791666,
            "velocity": 0.3937007874015748
          },
          {
            "duration": 0.10869550000001027,
            "durationTicks": 96,
            "midi": 37,
            "name": "C#2",
            "ticks": 81994,
            "time": 92.83727944791666,
            "velocity": 0.3937007874015748
          },
          {
            "duration": 0.21739100000000633,
            "durationTicks": 192,
            "midi": 70,
            "name": "A#4",
            "ticks": 81994,
            "time": 92.83727944791666,
            "velocity": 0.3937007874015748
          },
          {
            "duration": 0.21739100000000633,
            "durationTicks": 192,
            "midi": 87,
            "name": "D#6",
            "ticks": 81994,
            "time": 92.83727944791666,
            "velocity": 0.3937007874015748
          },
          {
            "duration": 0.21739100000000633,
            "durationTicks": 192,
            "midi": 56,
            "name": "G#3",
            "ticks": 81994,
            "time": 92.83727944791666,
            "velocity": 0.3937007874015748
          },
          {
            "duration": 0.21739100000000633,
            "durationTicks": 192,
            "midi": 82,
            "name": "A#5",
            "ticks": 81994,
            "time": 92.83727944791666,
            "velocity": 0.3937007874015748
          },
          {
            "duration": 0.10869550000001027,
            "durationTicks": 96,
            "midi": 90,
            "name": "F#6",
            "ticks": 81994,
            "time": 92.83727944791666,
            "velocity": 0.3937007874015748
          },
          {
            "duration": 0.10869550000001027,
            "durationTicks": 96,
            "midi": 49,
            "name": "C#3",
            "ticks": 81994,
            "time": 92.83727944791666,
            "velocity": 0.3937007874015748
          },
          {
            "duration": 0.10869549999999606,
            "durationTicks": 96,
            "midi": 90,
            "name": "F#6",
            "ticks": 82090,
            "time": 92.94597494791667,
            "velocity": 0.3937007874015748
          },
          {
            "duration": 0.10869549999999606,
            "durationTicks": 96,
            "midi": 61,
            "name": "C#4",
            "ticks": 82090,
            "time": 92.94597494791667,
            "velocity": 0.3937007874015748
          },
          {
            "duration": 0.10869549999999606,
            "durationTicks": 96,
            "midi": 49,
            "name": "C#3",
            "ticks": 82090,
            "time": 92.94597494791667,
            "velocity": 0.3937007874015748
          },
          {
            "duration": 0.10869549999999606,
            "durationTicks": 96,
            "midi": 37,
            "name": "C#2",
            "ticks": 82090,
            "time": 92.94597494791667,
            "velocity": 0.3937007874015748
          },
          {
            "duration": 0.10869549999999606,
            "durationTicks": 96,
            "midi": 89,
            "name": "F6",
            "ticks": 82186,
            "time": 93.05467044791666,
            "velocity": 0.3937007874015748
          },
          {
            "duration": 0.21739100000000633,
            "durationTicks": 192,
            "midi": 78,
            "name": "F#5",
            "ticks": 82186,
            "time": 93.05467044791666,
            "velocity": 0.3937007874015748
          },
          {
            "duration": 0.43478199999999845,
            "durationTicks": 384,
            "midi": 61,
            "name": "C#4",
            "ticks": 82186,
            "time": 93.05467044791666,
            "velocity": 0.3937007874015748
          },
          {
            "duration": 0.10869549999999606,
            "durationTicks": 96,
            "midi": 25,
            "name": "C#1",
            "ticks": 82186,
            "time": 93.05467044791666,
            "velocity": 0.3937007874015748
          },
          {
            "duration": 0.21739100000000633,
            "durationTicks": 192,
            "midi": 66,
            "name": "F#4",
            "ticks": 82186,
            "time": 93.05467044791666,
            "velocity": 0.3937007874015748
          },
          {
            "duration": 0.43478199999999845,
            "durationTicks": 384,
            "midi": 56,
            "name": "G#3",
            "ticks": 82186,
            "time": 93.05467044791666,
            "velocity": 0.3937007874015748
          },
          {
            "duration": 0.21739100000000633,
            "durationTicks": 192,
            "midi": 82,
            "name": "A#5",
            "ticks": 82186,
            "time": 93.05467044791666,
            "velocity": 0.3937007874015748
          },
          {
            "duration": 0.21739100000000633,
            "durationTicks": 192,
            "midi": 34,
            "name": "A#1",
            "ticks": 82186,
            "time": 93.05467044791666,
            "velocity": 0.3937007874015748
          },
          {
            "duration": 0.21739100000000633,
            "durationTicks": 192,
            "midi": 70,
            "name": "A#4",
            "ticks": 82186,
            "time": 93.05467044791666,
            "velocity": 0.3937007874015748
          },
          {
            "duration": 0.10869549999999606,
            "durationTicks": 96,
            "midi": 65,
            "name": "F4",
            "ticks": 82186,
            "time": 93.05467044791666,
            "velocity": 0.3937007874015748
          },
          {
            "duration": 0.10869549999999606,
            "durationTicks": 96,
            "midi": 37,
            "name": "C#2",
            "ticks": 82186,
            "time": 93.05467044791666,
            "velocity": 0.3937007874015748
          },
          {
            "duration": 0.43478199999999845,
            "durationTicks": 384,
            "midi": 53,
            "name": "F3",
            "ticks": 82186,
            "time": 93.05467044791666,
            "velocity": 0.3937007874015748
          },
          {
            "duration": 0.10869550000001027,
            "durationTicks": 96,
            "midi": 68,
            "name": "G#4",
            "ticks": 82282,
            "time": 93.16336594791666,
            "velocity": 0.3937007874015748
          },
          {
            "duration": 0.10869550000001027,
            "durationTicks": 96,
            "midi": 49,
            "name": "C#3",
            "ticks": 82282,
            "time": 93.16336594791666,
            "velocity": 0.3937007874015748
          },
          {
            "duration": 0.10869550000001027,
            "durationTicks": 96,
            "midi": 37,
            "name": "C#2",
            "ticks": 82282,
            "time": 93.16336594791666,
            "velocity": 0.3937007874015748
          },
          {
            "duration": 0.10869550000001027,
            "durationTicks": 96,
            "midi": 89,
            "name": "F6",
            "ticks": 82282,
            "time": 93.16336594791666,
            "velocity": 0.3937007874015748
          },
          {
            "duration": 0.10869549999999606,
            "durationTicks": 96,
            "midi": 88,
            "name": "E6",
            "ticks": 82378,
            "time": 93.27206144791667,
            "velocity": 0.3937007874015748
          },
          {
            "duration": 0.21739099999999212,
            "durationTicks": 192,
            "midi": 68,
            "name": "G#4",
            "ticks": 82378,
            "time": 93.27206144791667,
            "velocity": 0.3937007874015748
          },
          {
            "duration": 0.10869549999999606,
            "durationTicks": 96,
            "midi": 47,
            "name": "B2",
            "ticks": 82378,
            "time": 93.27206144791667,
            "velocity": 0.3937007874015748
          },
          {
            "duration": 0.21739099999999212,
            "durationTicks": 192,
            "midi": 65,
            "name": "F4",
            "ticks": 82378,
            "time": 93.27206144791667,
            "velocity": 0.3937007874015748
          },
          {
            "duration": 0.21739099999999212,
            "durationTicks": 192,
            "midi": 80,
            "name": "G#5",
            "ticks": 82378,
            "time": 93.27206144791667,
            "velocity": 0.3937007874015748
          },
          {
            "duration": 0.10869549999999606,
            "durationTicks": 96,
            "midi": 73,
            "name": "C#5",
            "ticks": 82378,
            "time": 93.27206144791667,
            "velocity": 0.3937007874015748
          },
          {
            "duration": 0.10869549999999606,
            "durationTicks": 96,
            "midi": 35,
            "name": "B1",
            "ticks": 82378,
            "time": 93.27206144791667,
            "velocity": 0.3937007874015748
          },
          {
            "duration": 0.21739099999999212,
            "durationTicks": 192,
            "midi": 77,
            "name": "F5",
            "ticks": 82378,
            "time": 93.27206144791667,
            "velocity": 0.3937007874015748
          },
          {
            "duration": 0.10869549999999606,
            "durationTicks": 96,
            "midi": 77,
            "name": "F5",
            "ticks": 82474,
            "time": 93.38075694791667,
            "velocity": 0.3937007874015748
          },
          {
            "duration": 0.10869549999999606,
            "durationTicks": 96,
            "midi": 49,
            "name": "C#3",
            "ticks": 82474,
            "time": 93.38075694791667,
            "velocity": 0.3937007874015748
          },
          {
            "duration": 0.10869549999999606,
            "durationTicks": 96,
            "midi": 88,
            "name": "E6",
            "ticks": 82474,
            "time": 93.38075694791667,
            "velocity": 0.3937007874015748
          },
          {
            "duration": 0.10869549999999606,
            "durationTicks": 96,
            "midi": 37,
            "name": "C#2",
            "ticks": 82474,
            "time": 93.38075694791667,
            "velocity": 0.3937007874015748
          },
          {
            "duration": 0.10869549999999606,
            "durationTicks": 96,
            "midi": 49,
            "name": "C#3",
            "ticks": 82570,
            "time": 93.48945244791666,
            "velocity": 0.3937007874015748
          },
          {
            "duration": 0.21739100000000633,
            "durationTicks": 192,
            "midi": 34,
            "name": "A#1",
            "ticks": 82570,
            "time": 93.48945244791666,
            "velocity": 0.3937007874015748
          },
          {
            "duration": 0.21739100000000633,
            "durationTicks": 192,
            "midi": 66,
            "name": "F#4",
            "ticks": 82570,
            "time": 93.48945244791666,
            "velocity": 0.3937007874015748
          },
          {
            "duration": 0.10869549999999606,
            "durationTicks": 96,
            "midi": 87,
            "name": "D#6",
            "ticks": 82570,
            "time": 93.48945244791666,
            "velocity": 0.3937007874015748
          },
          {
            "duration": 0.3260865000000024,
            "durationTicks": 288,
            "midi": 56,
            "name": "G#3",
            "ticks": 82570,
            "time": 93.48945244791666,
            "velocity": 0.3937007874015748
          },
          {
            "duration": 0.21739100000000633,
            "durationTicks": 192,
            "midi": 82,
            "name": "A#5",
            "ticks": 82570,
            "time": 93.48945244791666,
            "velocity": 0.3937007874015748
          },
          {
            "duration": 0.21739100000000633,
            "durationTicks": 192,
            "midi": 53,
            "name": "F3",
            "ticks": 82570,
            "time": 93.48945244791666,
            "velocity": 0.3937007874015748
          },
          {
            "duration": 0.21739100000000633,
            "durationTicks": 192,
            "midi": 70,
            "name": "A#4",
            "ticks": 82570,
            "time": 93.48945244791666,
            "velocity": 0.3937007874015748
          },
          {
            "duration": 0.10869549999999606,
            "durationTicks": 96,
            "midi": 25,
            "name": "C#1",
            "ticks": 82570,
            "time": 93.48945244791666,
            "velocity": 0.3937007874015748
          },
          {
            "duration": 0.10869549999999606,
            "durationTicks": 96,
            "midi": 37,
            "name": "C#2",
            "ticks": 82570,
            "time": 93.48945244791666,
            "velocity": 0.3937007874015748
          },
          {
            "duration": 0.43478199999999845,
            "durationTicks": 384,
            "midi": 61,
            "name": "C#4",
            "ticks": 82570,
            "time": 93.48945244791666,
            "velocity": 0.3937007874015748
          },
          {
            "duration": 0.21739100000000633,
            "durationTicks": 192,
            "midi": 78,
            "name": "F#5",
            "ticks": 82570,
            "time": 93.48945244791666,
            "velocity": 0.3937007874015748
          },
          {
            "duration": 0.3260865000000024,
            "durationTicks": 288,
            "midi": 53,
            "name": "F3",
            "ticks": 82666,
            "time": 93.59814794791666,
            "velocity": 0.3937007874015748
          },
          {
            "duration": 0.10869550000001027,
            "durationTicks": 96,
            "midi": 87,
            "name": "D#6",
            "ticks": 82666,
            "time": 93.59814794791666,
            "velocity": 0.3937007874015748
          },
          {
            "duration": 0.10869549999999606,
            "durationTicks": 96,
            "midi": 37,
            "name": "C#2",
            "ticks": 82762,
            "time": 93.70684344791667,
            "velocity": 0.3937007874015748
          },
          {
            "duration": 0.10869549999999606,
            "durationTicks": 96,
            "midi": 49,
            "name": "C#3",
            "ticks": 82762,
            "time": 93.70684344791667,
            "velocity": 0.3937007874015748
          },
          {
            "duration": 0.21739099999999212,
            "durationTicks": 192,
            "midi": 56,
            "name": "G#3",
            "ticks": 82762,
            "time": 93.70684344791667,
            "velocity": 0.3937007874015748
          },
          {
            "duration": 0.10869549999999606,
            "durationTicks": 96,
            "midi": 86,
            "name": "D6",
            "ticks": 82762,
            "time": 93.70684344791667,
            "velocity": 0.3937007874015748
          },
          {
            "duration": 0.10869549999999606,
            "durationTicks": 96,
            "midi": 37,
            "name": "C#2",
            "ticks": 82858,
            "time": 93.81553894791666,
            "velocity": 0.3937007874015748
          },
          {
            "duration": 0.10869549999999606,
            "durationTicks": 96,
            "midi": 86,
            "name": "D6",
            "ticks": 82858,
            "time": 93.81553894791666,
            "velocity": 0.3937007874015748
          },
          {
            "duration": 0.10869549999999606,
            "durationTicks": 96,
            "midi": 61,
            "name": "C#4",
            "ticks": 82858,
            "time": 93.81553894791666,
            "velocity": 0.3937007874015748
          },
          {
            "duration": 0.10869549999999606,
            "durationTicks": 96,
            "midi": 49,
            "name": "C#3",
            "ticks": 82858,
            "time": 93.81553894791666,
            "velocity": 0.3937007874015748
          },
          {
            "duration": 0.43478199999999845,
            "durationTicks": 384,
            "midi": 53,
            "name": "F3",
            "ticks": 82954,
            "time": 93.92423444791666,
            "velocity": 0.3937007874015748
          },
          {
            "duration": 0.10869549999999606,
            "durationTicks": 96,
            "midi": 65,
            "name": "F4",
            "ticks": 82954,
            "time": 93.92423444791666,
            "velocity": 0.3937007874015748
          },
          {
            "duration": 0.21739100000000633,
            "durationTicks": 192,
            "midi": 34,
            "name": "A#1",
            "ticks": 82954,
            "time": 93.92423444791666,
            "velocity": 0.3937007874015748
          },
          {
            "duration": 0.21739100000000633,
            "durationTicks": 192,
            "midi": 65,
            "name": "F4",
            "ticks": 82954,
            "time": 93.92423444791666,
            "velocity": 0.3937007874015748
          },
          {
            "duration": 0.21739100000000633,
            "durationTicks": 192,
            "midi": 80,
            "name": "G#5",
            "ticks": 82954,
            "time": 93.92423444791666,
            "velocity": 0.3937007874015748
          },
          {
            "duration": 0.21739100000000633,
            "durationTicks": 192,
            "midi": 77,
            "name": "F5",
            "ticks": 82954,
            "time": 93.92423444791666,
            "velocity": 0.3937007874015748
          },
          {
            "duration": 0.10869549999999606,
            "durationTicks": 96,
            "midi": 85,
            "name": "C#6",
            "ticks": 82954,
            "time": 93.92423444791666,
            "velocity": 0.3937007874015748
          },
          {
            "duration": 0.10869549999999606,
            "durationTicks": 96,
            "midi": 25,
            "name": "C#1",
            "ticks": 82954,
            "time": 93.92423444791666,
            "velocity": 0.3937007874015748
          },
          {
            "duration": 0.21739100000000633,
            "durationTicks": 192,
            "midi": 68,
            "name": "G#4",
            "ticks": 82954,
            "time": 93.92423444791666,
            "velocity": 0.3937007874015748
          },
          {
            "duration": 0.43478199999999845,
            "durationTicks": 384,
            "midi": 61,
            "name": "C#4",
            "ticks": 82954,
            "time": 93.92423444791666,
            "velocity": 0.3937007874015748
          },
          {
            "duration": 0.10869549999999606,
            "durationTicks": 96,
            "midi": 37,
            "name": "C#2",
            "ticks": 82954,
            "time": 93.92423444791666,
            "velocity": 0.3937007874015748
          },
          {
            "duration": 0.43478199999999845,
            "durationTicks": 384,
            "midi": 56,
            "name": "G#3",
            "ticks": 82954,
            "time": 93.92423444791666,
            "velocity": 0.3937007874015748
          },
          {
            "duration": 0.10869550000001027,
            "durationTicks": 96,
            "midi": 68,
            "name": "G#4",
            "ticks": 83050,
            "time": 94.03292994791666,
            "velocity": 0.3937007874015748
          },
          {
            "duration": 0.10869550000001027,
            "durationTicks": 96,
            "midi": 49,
            "name": "C#3",
            "ticks": 83050,
            "time": 94.03292994791666,
            "velocity": 0.3937007874015748
          },
          {
            "duration": 0.10869550000001027,
            "durationTicks": 96,
            "midi": 85,
            "name": "C#6",
            "ticks": 83050,
            "time": 94.03292994791666,
            "velocity": 0.3937007874015748
          },
          {
            "duration": 0.10869550000001027,
            "durationTicks": 96,
            "midi": 37,
            "name": "C#2",
            "ticks": 83050,
            "time": 94.03292994791666,
            "velocity": 0.3937007874015748
          },
          {
            "duration": 0.21739099999999212,
            "durationTicks": 192,
            "midi": 66,
            "name": "F#4",
            "ticks": 83146,
            "time": 94.14162544791667,
            "velocity": 0.3937007874015748
          },
          {
            "duration": 0.10869549999999606,
            "durationTicks": 96,
            "midi": 84,
            "name": "C6",
            "ticks": 83146,
            "time": 94.14162544791667,
            "velocity": 0.3937007874015748
          },
          {
            "duration": 0.21739099999999212,
            "durationTicks": 192,
            "midi": 70,
            "name": "A#4",
            "ticks": 83146,
            "time": 94.14162544791667,
            "velocity": 0.3937007874015748
          },
          {
            "duration": 0.10869549999999606,
            "durationTicks": 96,
            "midi": 73,
            "name": "C#5",
            "ticks": 83146,
            "time": 94.14162544791667,
            "velocity": 0.3937007874015748
          },
          {
            "duration": 0.21739099999999212,
            "durationTicks": 192,
            "midi": 78,
            "name": "F#5",
            "ticks": 83146,
            "time": 94.14162544791667,
            "velocity": 0.3937007874015748
          },
          {
            "duration": 0.21739099999999212,
            "durationTicks": 192,
            "midi": 34,
            "name": "A#1",
            "ticks": 83146,
            "time": 94.14162544791667,
            "velocity": 0.3937007874015748
          },
          {
            "duration": 0.10869549999999606,
            "durationTicks": 96,
            "midi": 35,
            "name": "B1",
            "ticks": 83146,
            "time": 94.14162544791667,
            "velocity": 0.3937007874015748
          },
          {
            "duration": 0.21739099999999212,
            "durationTicks": 192,
            "midi": 82,
            "name": "A#5",
            "ticks": 83146,
            "time": 94.14162544791667,
            "velocity": 0.3937007874015748
          },
          {
            "duration": 0.10869549999999606,
            "durationTicks": 96,
            "midi": 47,
            "name": "B2",
            "ticks": 83146,
            "time": 94.14162544791667,
            "velocity": 0.3937007874015748
          },
          {
            "duration": 0.10869549999999606,
            "durationTicks": 96,
            "midi": 49,
            "name": "C#3",
            "ticks": 83242,
            "time": 94.25032094791666,
            "velocity": 0.3937007874015748
          },
          {
            "duration": 0.10869549999999606,
            "durationTicks": 96,
            "midi": 37,
            "name": "C#2",
            "ticks": 83242,
            "time": 94.25032094791666,
            "velocity": 0.3937007874015748
          },
          {
            "duration": 0.10869549999999606,
            "durationTicks": 96,
            "midi": 84,
            "name": "C6",
            "ticks": 83242,
            "time": 94.25032094791666,
            "velocity": 0.3937007874015748
          },
          {
            "duration": 0.10869549999999606,
            "durationTicks": 96,
            "midi": 77,
            "name": "F5",
            "ticks": 83242,
            "time": 94.25032094791666,
            "velocity": 0.3937007874015748
          },
          {
            "duration": 0.10869550000001027,
            "durationTicks": 96,
            "midi": 39,
            "name": "D#2",
            "ticks": 83338,
            "time": 94.35901644791666,
            "velocity": 0.3937007874015748
          },
          {
            "duration": 0.21739100000000633,
            "durationTicks": 192,
            "midi": 77,
            "name": "F5",
            "ticks": 83338,
            "time": 94.35901644791666,
            "velocity": 0.3937007874015748
          },
          {
            "duration": 0.10869550000001027,
            "durationTicks": 96,
            "midi": 27,
            "name": "D#1",
            "ticks": 83338,
            "time": 94.35901644791666,
            "velocity": 0.3937007874015748
          },
          {
            "duration": 0.21739100000000633,
            "durationTicks": 192,
            "midi": 80,
            "name": "G#5",
            "ticks": 83338,
            "time": 94.35901644791666,
            "velocity": 0.3937007874015748
          },
          {
            "duration": 0.21739100000000633,
            "durationTicks": 192,
            "midi": 68,
            "name": "G#4",
            "ticks": 83338,
            "time": 94.35901644791666,
            "velocity": 0.3937007874015748
          },
          {
            "duration": 0.21739100000000633,
            "durationTicks": 192,
            "midi": 34,
            "name": "A#1",
            "ticks": 83338,
            "time": 94.35901644791666,
            "velocity": 0.3937007874015748
          },
          {
            "duration": 0.21739100000000633,
            "durationTicks": 192,
            "midi": 65,
            "name": "F4",
            "ticks": 83338,
            "time": 94.35901644791666,
            "velocity": 0.3937007874015748
          },
          {
            "duration": 0.10869550000001027,
            "durationTicks": 96,
            "midi": 83,
            "name": "B5",
            "ticks": 83338,
            "time": 94.35901644791666,
            "velocity": 0.3937007874015748
          },
          {
            "duration": 0.43478199999999845,
            "durationTicks": 384,
            "midi": 63,
            "name": "D#4",
            "ticks": 83338,
            "time": 94.35901644791666,
            "velocity": 0.3937007874015748
          },
          {
            "duration": 0.10869550000001027,
            "durationTicks": 96,
            "midi": 51,
            "name": "D#3",
            "ticks": 83338,
            "time": 94.35901644791666,
            "velocity": 0.3937007874015748
          },
          {
            "duration": 0.3260865000000024,
            "durationTicks": 288,
            "midi": 58,
            "name": "A#3",
            "ticks": 83338,
            "time": 94.35901644791666,
            "velocity": 0.3937007874015748
          },
          {
            "duration": 0.21739100000000633,
            "durationTicks": 192,
            "midi": 54,
            "name": "F#3",
            "ticks": 83338,
            "time": 94.35901644791666,
            "velocity": 0.3937007874015748
          },
          {
            "duration": 0.3260864999999882,
            "durationTicks": 288,
            "midi": 54,
            "name": "F#3",
            "ticks": 83434,
            "time": 94.46771194791667,
            "velocity": 0.3937007874015748
          },
          {
            "duration": 0.10869549999999606,
            "durationTicks": 96,
            "midi": 83,
            "name": "B5",
            "ticks": 83434,
            "time": 94.46771194791667,
            "velocity": 0.3937007874015748
          },
          {
            "duration": 0.21739099999999212,
            "durationTicks": 192,
            "midi": 63,
            "name": "D#4",
            "ticks": 83530,
            "time": 94.57640744791667,
            "velocity": 0.3937007874015748
          },
          {
            "duration": 0.21739099999999212,
            "durationTicks": 192,
            "midi": 58,
            "name": "A#3",
            "ticks": 83530,
            "time": 94.57640744791667,
            "velocity": 0.3937007874015748
          },
          {
            "duration": 0.21739099999999212,
            "durationTicks": 192,
            "midi": 78,
            "name": "F#5",
            "ticks": 83530,
            "time": 94.57640744791667,
            "velocity": 0.3937007874015748
          },
          {
            "duration": 0.21739099999999212,
            "durationTicks": 192,
            "midi": 66,
            "name": "F#4",
            "ticks": 83530,
            "time": 94.57640744791667,
            "velocity": 0.3937007874015748
          },
          {
            "duration": 0.10869549999999606,
            "durationTicks": 96,
            "midi": 39,
            "name": "D#2",
            "ticks": 83530,
            "time": 94.57640744791667,
            "velocity": 0.3937007874015748
          },
          {
            "duration": 0.10869549999999606,
            "durationTicks": 96,
            "midi": 51,
            "name": "D#3",
            "ticks": 83530,
            "time": 94.57640744791667,
            "velocity": 0.3937007874015748
          },
          {
            "duration": 0.10869549999999606,
            "durationTicks": 96,
            "midi": 82,
            "name": "A#5",
            "ticks": 83530,
            "time": 94.57640744791667,
            "velocity": 0.3937007874015748
          },
          {
            "duration": 0.21739099999999212,
            "durationTicks": 192,
            "midi": 75,
            "name": "D#5",
            "ticks": 83530,
            "time": 94.57640744791667,
            "velocity": 0.3937007874015748
          },
          {
            "duration": 0.10869549999999606,
            "durationTicks": 96,
            "midi": 51,
            "name": "D#3",
            "ticks": 83626,
            "time": 94.68510294791666,
            "velocity": 0.3937007874015748
          },
          {
            "duration": 0.10869549999999606,
            "durationTicks": 96,
            "midi": 39,
            "name": "D#2",
            "ticks": 83626,
            "time": 94.68510294791666,
            "velocity": 0.3937007874015748
          },
          {
            "duration": 0.10869549999999606,
            "durationTicks": 96,
            "midi": 82,
            "name": "A#5",
            "ticks": 83626,
            "time": 94.68510294791666,
            "velocity": 0.3937007874015748
          },
          {
            "duration": 0.10869549999999606,
            "durationTicks": 96,
            "midi": 63,
            "name": "D#4",
            "ticks": 83626,
            "time": 94.68510294791666,
            "velocity": 0.3937007874015748
          },
          {
            "duration": 0.10869550000001027,
            "durationTicks": 96,
            "midi": 27,
            "name": "D#1",
            "ticks": 83722,
            "time": 94.79379844791666,
            "velocity": 0.3937007874015748
          },
          {
            "duration": 0.21739100000000633,
            "durationTicks": 192,
            "midi": 65,
            "name": "F4",
            "ticks": 83722,
            "time": 94.79379844791666,
            "velocity": 0.3937007874015748
          },
          {
            "duration": 0.43478200000001266,
            "durationTicks": 384,
            "midi": 58,
            "name": "A#3",
            "ticks": 83722,
            "time": 94.79379844791666,
            "velocity": 0.3937007874015748
          },
          {
            "duration": 0.10869550000001027,
            "durationTicks": 96,
            "midi": 39,
            "name": "D#2",
            "ticks": 83722,
            "time": 94.79379844791666,
            "velocity": 0.3937007874015748
          },
          {
            "duration": 0.43478200000001266,
            "durationTicks": 384,
            "midi": 54,
            "name": "F#3",
            "ticks": 83722,
            "time": 94.79379844791666,
            "velocity": 0.3937007874015748
          },
          {
            "duration": 0.21739100000000633,
            "durationTicks": 192,
            "midi": 77,
            "name": "F5",
            "ticks": 83722,
            "time": 94.79379844791666,
            "velocity": 0.3937007874015748
          },
          {
            "duration": 0.21739100000000633,
            "durationTicks": 192,
            "midi": 61,
            "name": "C#4",
            "ticks": 83722,
            "time": 94.79379844791666,
            "velocity": 0.3937007874015748
          },
          {
            "duration": 0.43478200000001266,
            "durationTicks": 384,
            "midi": 63,
            "name": "D#4",
            "ticks": 83722,
            "time": 94.79379844791666,
            "velocity": 0.3937007874015748
          },
          {
            "duration": 0.21739100000000633,
            "durationTicks": 192,
            "midi": 73,
            "name": "C#5",
            "ticks": 83722,
            "time": 94.79379844791666,
            "velocity": 0.3937007874015748
          },
          {
            "duration": 0.10869550000001027,
            "durationTicks": 96,
            "midi": 66,
            "name": "F#4",
            "ticks": 83722,
            "time": 94.79379844791666,
            "velocity": 0.3937007874015748
          },
          {
            "duration": 0.10869550000001027,
            "durationTicks": 96,
            "midi": 81,
            "name": "A5",
            "ticks": 83722,
            "time": 94.79379844791666,
            "velocity": 0.3937007874015748
          },
          {
            "duration": 0.21739100000000633,
            "durationTicks": 192,
            "midi": 34,
            "name": "A#1",
            "ticks": 83722,
            "time": 94.79379844791666,
            "velocity": 0.3937007874015748
          },
          {
            "duration": 0.10869549999999606,
            "durationTicks": 96,
            "midi": 81,
            "name": "A5",
            "ticks": 83818,
            "time": 94.90249394791667,
            "velocity": 0.3937007874015748
          },
          {
            "duration": 0.10869549999999606,
            "durationTicks": 96,
            "midi": 39,
            "name": "D#2",
            "ticks": 83818,
            "time": 94.90249394791667,
            "velocity": 0.3937007874015748
          },
          {
            "duration": 0.10869549999999606,
            "durationTicks": 96,
            "midi": 51,
            "name": "D#3",
            "ticks": 83818,
            "time": 94.90249394791667,
            "velocity": 0.3937007874015748
          },
          {
            "duration": 0.10869549999999606,
            "durationTicks": 96,
            "midi": 70,
            "name": "A#4",
            "ticks": 83818,
            "time": 94.90249394791667,
            "velocity": 0.3937007874015748
          },
          {
            "duration": 0.10869549999999606,
            "durationTicks": 96,
            "midi": 80,
            "name": "G#5",
            "ticks": 83914,
            "time": 95.01118944791666,
            "velocity": 0.3937007874015748
          },
          {
            "duration": 0.10869549999999606,
            "durationTicks": 96,
            "midi": 75,
            "name": "D#5",
            "ticks": 83914,
            "time": 95.01118944791666,
            "velocity": 0.3937007874015748
          },
          {
            "duration": 0.21739100000000633,
            "durationTicks": 192,
            "midi": 73,
            "name": "C#5",
            "ticks": 83914,
            "time": 95.01118944791666,
            "velocity": 0.3937007874015748
          },
          {
            "duration": 0.10869549999999606,
            "durationTicks": 96,
            "midi": 37,
            "name": "C#2",
            "ticks": 83914,
            "time": 95.01118944791666,
            "velocity": 0.3937007874015748
          },
          {
            "duration": 0.10869549999999606,
            "durationTicks": 96,
            "midi": 49,
            "name": "C#3",
            "ticks": 83914,
            "time": 95.01118944791666,
            "velocity": 0.3937007874015748
          },
          {
            "duration": 0.21739100000000633,
            "durationTicks": 192,
            "midi": 61,
            "name": "C#4",
            "ticks": 83914,
            "time": 95.01118944791666,
            "velocity": 0.3937007874015748
          },
          {
            "duration": 0.21739100000000633,
            "durationTicks": 192,
            "midi": 56,
            "name": "G#3",
            "ticks": 83914,
            "time": 95.01118944791666,
            "velocity": 0.3937007874015748
          },
          {
            "duration": 0.21739100000000633,
            "durationTicks": 192,
            "midi": 68,
            "name": "G#4",
            "ticks": 83914,
            "time": 95.01118944791666,
            "velocity": 0.3937007874015748
          },
          {
            "duration": 0.10869550000001027,
            "durationTicks": 96,
            "midi": 51,
            "name": "D#3",
            "ticks": 84010,
            "time": 95.11988494791666,
            "velocity": 0.3937007874015748
          },
          {
            "duration": 0.10869550000001027,
            "durationTicks": 96,
            "midi": 80,
            "name": "G#5",
            "ticks": 84010,
            "time": 95.11988494791666,
            "velocity": 0.3937007874015748
          },
          {
            "duration": 0.10869550000001027,
            "durationTicks": 96,
            "midi": 78,
            "name": "F#5",
            "ticks": 84010,
            "time": 95.11988494791666,
            "velocity": 0.3937007874015748
          },
          {
            "duration": 0.10869550000001027,
            "durationTicks": 96,
            "midi": 39,
            "name": "D#2",
            "ticks": 84010,
            "time": 95.11988494791666,
            "velocity": 0.3937007874015748
          },
          {
            "duration": 0.10869549999999606,
            "durationTicks": 96,
            "midi": 79,
            "name": "G5",
            "ticks": 84106,
            "time": 95.22858044791667,
            "velocity": 0.3937007874015748
          },
          {
            "duration": 0.10869549999999606,
            "durationTicks": 96,
            "midi": 39,
            "name": "D#2",
            "ticks": 84106,
            "time": 95.22858044791667,
            "velocity": 0.3937007874015748
          },
          {
            "duration": 0.21739099999999212,
            "durationTicks": 192,
            "midi": 75,
            "name": "D#5",
            "ticks": 84106,
            "time": 95.22858044791667,
            "velocity": 0.3937007874015748
          },
          {
            "duration": 0.21739099999999212,
            "durationTicks": 192,
            "midi": 63,
            "name": "D#4",
            "ticks": 84106,
            "time": 95.22858044791667,
            "velocity": 0.3937007874015748
          },
          {
            "duration": 0.21739099999999212,
            "durationTicks": 192,
            "midi": 54,
            "name": "F#3",
            "ticks": 84106,
            "time": 95.22858044791667,
            "velocity": 0.3937007874015748
          },
          {
            "duration": 0.10869549999999606,
            "durationTicks": 96,
            "midi": 51,
            "name": "D#3",
            "ticks": 84106,
            "time": 95.22858044791667,
            "velocity": 0.3937007874015748
          },
          {
            "duration": 0.10869549999999606,
            "durationTicks": 96,
            "midi": 27,
            "name": "D#1",
            "ticks": 84106,
            "time": 95.22858044791667,
            "velocity": 0.3937007874015748
          },
          {
            "duration": 0.21739099999999212,
            "durationTicks": 192,
            "midi": 58,
            "name": "A#3",
            "ticks": 84106,
            "time": 95.22858044791667,
            "velocity": 0.3937007874015748
          },
          {
            "duration": 0.3260864999999882,
            "durationTicks": 288,
            "midi": 58,
            "name": "A#3",
            "ticks": 84106,
            "time": 95.22858044791667,
            "velocity": 0.3937007874015748
          },
          {
            "duration": 0.21739099999999212,
            "durationTicks": 192,
            "midi": 34,
            "name": "A#1",
            "ticks": 84106,
            "time": 95.22858044791667,
            "velocity": 0.3937007874015748
          },
          {
            "duration": 0.21739099999999212,
            "durationTicks": 192,
            "midi": 70,
            "name": "A#4",
            "ticks": 84106,
            "time": 95.22858044791667,
            "velocity": 0.3937007874015748
          },
          {
            "duration": 0.43478199999999845,
            "durationTicks": 384,
            "midi": 63,
            "name": "D#4",
            "ticks": 84106,
            "time": 95.22858044791667,
            "velocity": 0.3937007874015748
          },
          {
            "duration": 0.10869549999999606,
            "durationTicks": 96,
            "midi": 79,
            "name": "G5",
            "ticks": 84202,
            "time": 95.33727594791667,
            "velocity": 0.3937007874015748
          },
          {
            "duration": 0.3260865000000024,
            "durationTicks": 288,
            "midi": 54,
            "name": "F#3",
            "ticks": 84202,
            "time": 95.33727594791667,
            "velocity": 0.3937007874015748
          },
          {
            "duration": 0.10869549999999606,
            "durationTicks": 96,
            "midi": 39,
            "name": "D#2",
            "ticks": 84298,
            "time": 95.44597144791666,
            "velocity": 0.3937007874015748
          },
          {
            "duration": 0.10869549999999606,
            "durationTicks": 96,
            "midi": 51,
            "name": "D#3",
            "ticks": 84298,
            "time": 95.44597144791666,
            "velocity": 0.3937007874015748
          },
          {
            "duration": 0.21739100000000633,
            "durationTicks": 192,
            "midi": 58,
            "name": "A#3",
            "ticks": 84298,
            "time": 95.44597144791666,
            "velocity": 0.3937007874015748
          },
          {
            "duration": 0.10869549999999606,
            "durationTicks": 96,
            "midi": 78,
            "name": "F#5",
            "ticks": 84298,
            "time": 95.44597144791666,
            "velocity": 0.3937007874015748
          },
          {
            "duration": 0.10869550000001027,
            "durationTicks": 96,
            "midi": 39,
            "name": "D#2",
            "ticks": 84394,
            "time": 95.55466694791666,
            "velocity": 0.3937007874015748
          },
          {
            "duration": 0.10869550000001027,
            "durationTicks": 96,
            "midi": 63,
            "name": "D#4",
            "ticks": 84394,
            "time": 95.55466694791666,
            "velocity": 0.3937007874015748
          },
          {
            "duration": 0.10869550000001027,
            "durationTicks": 96,
            "midi": 51,
            "name": "D#3",
            "ticks": 84394,
            "time": 95.55466694791666,
            "velocity": 0.3937007874015748
          },
          {
            "duration": 0.10869550000001027,
            "durationTicks": 96,
            "midi": 78,
            "name": "F#5",
            "ticks": 84394,
            "time": 95.55466694791666,
            "velocity": 0.3937007874015748
          },
          {
            "duration": 0.10869549999999606,
            "durationTicks": 96,
            "midi": 27,
            "name": "D#1",
            "ticks": 84490,
            "time": 95.66336244791667,
            "velocity": 0.3937007874015748
          },
          {
            "duration": 0.21739099999999212,
            "durationTicks": 192,
            "midi": 56,
            "name": "G#3",
            "ticks": 84490,
            "time": 95.66336244791667,
            "velocity": 0.3937007874015748
          },
          {
            "duration": 0.43478199999999845,
            "durationTicks": 384,
            "midi": 63,
            "name": "D#4",
            "ticks": 84490,
            "time": 95.66336244791667,
            "velocity": 0.3937007874015748
          },
          {
            "duration": 0.21739099999999212,
            "durationTicks": 192,
            "midi": 61,
            "name": "C#4",
            "ticks": 84490,
            "time": 95.66336244791667,
            "velocity": 0.3937007874015748
          },
          {
            "duration": 0.43478199999999845,
            "durationTicks": 384,
            "midi": 58,
            "name": "A#3",
            "ticks": 84490,
            "time": 95.66336244791667,
            "velocity": 0.3937007874015748
          },
          {
            "duration": 0.21739099999999212,
            "durationTicks": 192,
            "midi": 68,
            "name": "G#4",
            "ticks": 84490,
            "time": 95.66336244791667,
            "velocity": 0.3937007874015748
          },
          {
            "duration": 0.43478199999999845,
            "durationTicks": 384,
            "midi": 54,
            "name": "F#3",
            "ticks": 84490,
            "time": 95.66336244791667,
            "velocity": 0.3937007874015748
          },
          {
            "duration": 0.21739099999999212,
            "durationTicks": 192,
            "midi": 73,
            "name": "C#5",
            "ticks": 84490,
            "time": 95.66336244791667,
            "velocity": 0.3937007874015748
          },
          {
            "duration": 0.21739099999999212,
            "durationTicks": 192,
            "midi": 34,
            "name": "A#1",
            "ticks": 84490,
            "time": 95.66336244791667,
            "velocity": 0.3937007874015748
          },
          {
            "duration": 0.10869549999999606,
            "durationTicks": 96,
            "midi": 39,
            "name": "D#2",
            "ticks": 84490,
            "time": 95.66336244791667,
            "velocity": 0.3937007874015748
          },
          {
            "duration": 0.10869549999999606,
            "durationTicks": 96,
            "midi": 77,
            "name": "F5",
            "ticks": 84490,
            "time": 95.66336244791667,
            "velocity": 0.3937007874015748
          },
          {
            "duration": 0.10869549999999606,
            "durationTicks": 96,
            "midi": 66,
            "name": "F#4",
            "ticks": 84490,
            "time": 95.66336244791667,
            "velocity": 0.3937007874015748
          },
          {
            "duration": 0.10869549999999606,
            "durationTicks": 96,
            "midi": 39,
            "name": "D#2",
            "ticks": 84586,
            "time": 95.77205794791666,
            "velocity": 0.3937007874015748
          },
          {
            "duration": 0.10869549999999606,
            "durationTicks": 96,
            "midi": 77,
            "name": "F5",
            "ticks": 84586,
            "time": 95.77205794791666,
            "velocity": 0.3937007874015748
          },
          {
            "duration": 0.10869549999999606,
            "durationTicks": 96,
            "midi": 51,
            "name": "D#3",
            "ticks": 84586,
            "time": 95.77205794791666,
            "velocity": 0.3937007874015748
          },
          {
            "duration": 0.10869549999999606,
            "durationTicks": 96,
            "midi": 70,
            "name": "A#4",
            "ticks": 84586,
            "time": 95.77205794791666,
            "velocity": 0.3937007874015748
          },
          {
            "duration": 0.21739100000000633,
            "durationTicks": 192,
            "midi": 70,
            "name": "A#4",
            "ticks": 84682,
            "time": 95.88075344791666,
            "velocity": 0.3937007874015748
          },
          {
            "duration": 0.10869549999999606,
            "durationTicks": 96,
            "midi": 75,
            "name": "D#5",
            "ticks": 84682,
            "time": 95.88075344791666,
            "velocity": 0.3937007874015748
          },
          {
            "duration": 0.21739100000000633,
            "durationTicks": 192,
            "midi": 75,
            "name": "D#5",
            "ticks": 84682,
            "time": 95.88075344791666,
            "velocity": 0.3937007874015748
          },
          {
            "duration": 0.21739100000000633,
            "durationTicks": 192,
            "midi": 58,
            "name": "A#3",
            "ticks": 84682,
            "time": 95.88075344791666,
            "velocity": 0.3937007874015748
          },
          {
            "duration": 0.10869549999999606,
            "durationTicks": 96,
            "midi": 49,
            "name": "C#3",
            "ticks": 84682,
            "time": 95.88075344791666,
            "velocity": 0.3937007874015748
          },
          {
            "duration": 0.10869549999999606,
            "durationTicks": 96,
            "midi": 37,
            "name": "C#2",
            "ticks": 84682,
            "time": 95.88075344791666,
            "velocity": 0.3937007874015748
          },
          {
            "duration": 0.21739100000000633,
            "durationTicks": 192,
            "midi": 63,
            "name": "D#4",
            "ticks": 84682,
            "time": 95.88075344791666,
            "velocity": 0.3937007874015748
          },
          {
            "duration": 0.10869549999999606,
            "durationTicks": 96,
            "midi": 76,
            "name": "E5",
            "ticks": 84682,
            "time": 95.88075344791666,
            "velocity": 0.3937007874015748
          },
          {
            "duration": 0.10869550000001027,
            "durationTicks": 96,
            "midi": 78,
            "name": "F#5",
            "ticks": 84778,
            "time": 95.98944894791666,
            "velocity": 0.3937007874015748
          },
          {
            "duration": 0.10869550000001027,
            "durationTicks": 96,
            "midi": 39,
            "name": "D#2",
            "ticks": 84778,
            "time": 95.98944894791666,
            "velocity": 0.3937007874015748
          },
          {
            "duration": 0.10869550000001027,
            "durationTicks": 96,
            "midi": 51,
            "name": "D#3",
            "ticks": 84778,
            "time": 95.98944894791666,
            "velocity": 0.3937007874015748
          },
          {
            "duration": 0.10869550000001027,
            "durationTicks": 96,
            "midi": 76,
            "name": "E5",
            "ticks": 84778,
            "time": 95.98944894791666,
            "velocity": 0.3937007874015748
          },
          {
            "duration": 0.10869549999999606,
            "durationTicks": 96,
            "midi": 39,
            "name": "D#2",
            "ticks": 84874,
            "time": 96.09814444791667,
            "velocity": 0.3937007874015748
          },
          {
            "duration": 0.43478199999999845,
            "durationTicks": 384,
            "midi": 63,
            "name": "D#4",
            "ticks": 84874,
            "time": 96.09814444791667,
            "velocity": 0.3937007874015748
          },
          {
            "duration": 0.3260865000000024,
            "durationTicks": 288,
            "midi": 58,
            "name": "A#3",
            "ticks": 84874,
            "time": 96.09814444791667,
            "velocity": 0.3937007874015748
          },
          {
            "duration": 0.10869549999999606,
            "durationTicks": 96,
            "midi": 27,
            "name": "D#1",
            "ticks": 84874,
            "time": 96.09814444791667,
            "velocity": 0.3937007874015748
          },
          {
            "duration": 0.10869549999999606,
            "durationTicks": 96,
            "midi": 75,
            "name": "D#5",
            "ticks": 84874,
            "time": 96.09814444791667,
            "velocity": 0.3937007874015748
          },
          {
            "duration": 0.21739099999999212,
            "durationTicks": 192,
            "midi": 34,
            "name": "A#1",
            "ticks": 84874,
            "time": 96.09814444791667,
            "velocity": 0.3937007874015748
          },
          {
            "duration": 0.21739099999999212,
            "durationTicks": 192,
            "midi": 73,
            "name": "C#5",
            "ticks": 84874,
            "time": 96.09814444791667,
            "velocity": 0.3937007874015748
          },
          {
            "duration": 0.21739099999999212,
            "durationTicks": 192,
            "midi": 65,
            "name": "F4",
            "ticks": 84874,
            "time": 96.09814444791667,
            "velocity": 0.3937007874015748
          },
          {
            "duration": 0.21739099999999212,
            "durationTicks": 192,
            "midi": 61,
            "name": "C#4",
            "ticks": 84874,
            "time": 96.09814444791667,
            "velocity": 0.3937007874015748
          },
          {
            "duration": 0.10869549999999606,
            "durationTicks": 96,
            "midi": 51,
            "name": "D#3",
            "ticks": 84874,
            "time": 96.09814444791667,
            "velocity": 0.3937007874015748
          },
          {
            "duration": 0.21739099999999212,
            "durationTicks": 192,
            "midi": 54,
            "name": "F#3",
            "ticks": 84874,
            "time": 96.09814444791667,
            "velocity": 0.3937007874015748
          },
          {
            "duration": 0.21739099999999212,
            "durationTicks": 192,
            "midi": 77,
            "name": "F5",
            "ticks": 84874,
            "time": 96.09814444791667,
            "velocity": 0.3937007874015748
          },
          {
            "duration": 0.3260865000000024,
            "durationTicks": 288,
            "midi": 54,
            "name": "F#3",
            "ticks": 84970,
            "time": 96.20683994791666,
            "velocity": 0.3937007874015748
          },
          {
            "duration": 0.10869549999999606,
            "durationTicks": 96,
            "midi": 75,
            "name": "D#5",
            "ticks": 84970,
            "time": 96.20683994791666,
            "velocity": 0.3937007874015748
          },
          {
            "duration": 0.21739100000000633,
            "durationTicks": 192,
            "midi": 78,
            "name": "F#5",
            "ticks": 85066,
            "time": 96.31553544791666,
            "velocity": 0.3937007874015748
          },
          {
            "duration": 0.21739100000000633,
            "durationTicks": 192,
            "midi": 75,
            "name": "D#5",
            "ticks": 85066,
            "time": 96.31553544791666,
            "velocity": 0.3937007874015748
          },
          {
            "duration": 0.21739100000000633,
            "durationTicks": 192,
            "midi": 58,
            "name": "A#3",
            "ticks": 85066,
            "time": 96.31553544791666,
            "velocity": 0.3937007874015748
          },
          {
            "duration": 0.10869550000001027,
            "durationTicks": 96,
            "midi": 39,
            "name": "D#2",
            "ticks": 85066,
            "time": 96.31553544791666,
            "velocity": 0.3937007874015748
          },
          {
            "duration": 0.10869550000001027,
            "durationTicks": 96,
            "midi": 74,
            "name": "D5",
            "ticks": 85066,
            "time": 96.31553544791666,
            "velocity": 0.3937007874015748
          },
          {
            "duration": 0.10869550000001027,
            "durationTicks": 96,
            "midi": 51,
            "name": "D#3",
            "ticks": 85066,
            "time": 96.31553544791666,
            "velocity": 0.3937007874015748
          },
          {
            "duration": 0.21739100000000633,
            "durationTicks": 192,
            "midi": 63,
            "name": "D#4",
            "ticks": 85066,
            "time": 96.31553544791666,
            "velocity": 0.3937007874015748
          },
          {
            "duration": 0.21739100000000633,
            "durationTicks": 192,
            "midi": 66,
            "name": "F#4",
            "ticks": 85066,
            "time": 96.31553544791666,
            "velocity": 0.3937007874015748
          },
          {
            "duration": 0.10869549999999606,
            "durationTicks": 96,
            "midi": 74,
            "name": "D5",
            "ticks": 85162,
            "time": 96.42423094791667,
            "velocity": 0.3937007874015748
          },
          {
            "duration": 0.10869549999999606,
            "durationTicks": 96,
            "midi": 63,
            "name": "D#4",
            "ticks": 85162,
            "time": 96.42423094791667,
            "velocity": 0.3937007874015748
          },
          {
            "duration": 0.10869549999999606,
            "durationTicks": 96,
            "midi": 51,
            "name": "D#3",
            "ticks": 85162,
            "time": 96.42423094791667,
            "velocity": 0.3937007874015748
          },
          {
            "duration": 0.10869549999999606,
            "durationTicks": 96,
            "midi": 39,
            "name": "D#2",
            "ticks": 85162,
            "time": 96.42423094791667,
            "velocity": 0.3937007874015748
          },
          {
            "duration": 0.10869549999999606,
            "durationTicks": 96,
            "midi": 39,
            "name": "D#2",
            "ticks": 85258,
            "time": 96.53292644791667,
            "velocity": 0.3937007874015748
          },
          {
            "duration": 0.10869549999999606,
            "durationTicks": 96,
            "midi": 66,
            "name": "F#4",
            "ticks": 85258,
            "time": 96.53292644791667,
            "velocity": 0.3937007874015748
          },
          {
            "duration": 0.21739099999999212,
            "durationTicks": 192,
            "midi": 80,
            "name": "G#5",
            "ticks": 85258,
            "time": 96.53292644791667,
            "velocity": 0.3937007874015748
          },
          {
            "duration": 0.43478199999999845,
            "durationTicks": 384,
            "midi": 58,
            "name": "A#3",
            "ticks": 85258,
            "time": 96.53292644791667,
            "velocity": 0.3937007874015748
          },
          {
            "duration": 0.10869549999999606,
            "durationTicks": 96,
            "midi": 27,
            "name": "D#1",
            "ticks": 85258,
            "time": 96.53292644791667,
            "velocity": 0.3937007874015748
          },
          {
            "duration": 0.21739099999999212,
            "durationTicks": 192,
            "midi": 34,
            "name": "A#1",
            "ticks": 85258,
            "time": 96.53292644791667,
            "velocity": 0.3937007874015748
          },
          {
            "duration": 0.10869549999999606,
            "durationTicks": 96,
            "midi": 73,
            "name": "C#5",
            "ticks": 85258,
            "time": 96.53292644791667,
            "velocity": 0.3937007874015748
          },
          {
            "duration": 0.43478199999999845,
            "durationTicks": 384,
            "midi": 54,
            "name": "F#3",
            "ticks": 85258,
            "time": 96.53292644791667,
            "velocity": 0.3937007874015748
          },
          {
            "duration": 0.21739099999999212,
            "durationTicks": 192,
            "midi": 68,
            "name": "G#4",
            "ticks": 85258,
            "time": 96.53292644791667,
            "velocity": 0.3937007874015748
          },
          {
            "duration": 0.21739099999999212,
            "durationTicks": 192,
            "midi": 65,
            "name": "F4",
            "ticks": 85258,
            "time": 96.53292644791667,
            "velocity": 0.3937007874015748
          },
          {
            "duration": 0.43478199999999845,
            "durationTicks": 384,
            "midi": 63,
            "name": "D#4",
            "ticks": 85258,
            "time": 96.53292644791667,
            "velocity": 0.3937007874015748
          },
          {
            "duration": 0.21739099999999212,
            "durationTicks": 192,
            "midi": 77,
            "name": "F5",
            "ticks": 85258,
            "time": 96.53292644791667,
            "velocity": 0.3937007874015748
          },
          {
            "duration": 0.10869549999999606,
            "durationTicks": 96,
            "midi": 70,
            "name": "A#4",
            "ticks": 85354,
            "time": 96.64162194791666,
            "velocity": 0.3937007874015748
          },
          {
            "duration": 0.10869549999999606,
            "durationTicks": 96,
            "midi": 39,
            "name": "D#2",
            "ticks": 85354,
            "time": 96.64162194791666,
            "velocity": 0.3937007874015748
          },
          {
            "duration": 0.10869549999999606,
            "durationTicks": 96,
            "midi": 73,
            "name": "C#5",
            "ticks": 85354,
            "time": 96.64162194791666,
            "velocity": 0.3937007874015748
          },
          {
            "duration": 0.10869549999999606,
            "durationTicks": 96,
            "midi": 51,
            "name": "D#3",
            "ticks": 85354,
            "time": 96.64162194791666,
            "velocity": 0.3937007874015748
          },
          {
            "duration": 0.21739100000000633,
            "durationTicks": 192,
            "midi": 78,
            "name": "F#5",
            "ticks": 85450,
            "time": 96.75031744791666,
            "velocity": 0.3937007874015748
          },
          {
            "duration": 0.21739100000000633,
            "durationTicks": 192,
            "midi": 82,
            "name": "A#5",
            "ticks": 85450,
            "time": 96.75031744791666,
            "velocity": 0.3937007874015748
          },
          {
            "duration": 0.10869550000001027,
            "durationTicks": 96,
            "midi": 37,
            "name": "C#2",
            "ticks": 85450,
            "time": 96.75031744791666,
            "velocity": 0.3937007874015748
          },
          {
            "duration": 0.21739100000000633,
            "durationTicks": 192,
            "midi": 70,
            "name": "A#4",
            "ticks": 85450,
            "time": 96.75031744791666,
            "velocity": 0.3937007874015748
          },
          {
            "duration": 0.10869550000001027,
            "durationTicks": 96,
            "midi": 72,
            "name": "C5",
            "ticks": 85450,
            "time": 96.75031744791666,
            "velocity": 0.3937007874015748
          },
          {
            "duration": 0.10869550000001027,
            "durationTicks": 96,
            "midi": 49,
            "name": "C#3",
            "ticks": 85450,
            "time": 96.75031744791666,
            "velocity": 0.3937007874015748
          },
          {
            "duration": 0.21739100000000633,
            "durationTicks": 192,
            "midi": 66,
            "name": "F#4",
            "ticks": 85450,
            "time": 96.75031744791666,
            "velocity": 0.3937007874015748
          },
          {
            "duration": 0.10869550000001027,
            "durationTicks": 96,
            "midi": 75,
            "name": "D#5",
            "ticks": 85450,
            "time": 96.75031744791666,
            "velocity": 0.3937007874015748
          },
          {
            "duration": 0.10869549999999606,
            "durationTicks": 96,
            "midi": 78,
            "name": "F#5",
            "ticks": 85546,
            "time": 96.85901294791667,
            "velocity": 0.3937007874015748
          },
          {
            "duration": 0.10869549999999606,
            "durationTicks": 96,
            "midi": 39,
            "name": "D#2",
            "ticks": 85546,
            "time": 96.85901294791667,
            "velocity": 0.3937007874015748
          },
          {
            "duration": 0.10869549999999606,
            "durationTicks": 96,
            "midi": 72,
            "name": "C5",
            "ticks": 85546,
            "time": 96.85901294791667,
            "velocity": 0.3937007874015748
          },
          {
            "duration": 0.10869549999999606,
            "durationTicks": 96,
            "midi": 51,
            "name": "D#3",
            "ticks": 85546,
            "time": 96.85901294791667,
            "velocity": 0.3937007874015748
          },
          {
            "duration": 0.21739099999999212,
            "durationTicks": 192,
            "midi": 58,
            "name": "A#3",
            "ticks": 85642,
            "time": 96.96770844791666,
            "velocity": 0.3937007874015748
          },
          {
            "duration": 0.10869549999999606,
            "durationTicks": 96,
            "midi": 61,
            "name": "C#4",
            "ticks": 85642,
            "time": 96.96770844791666,
            "velocity": 0.3937007874015748
          },
          {
            "duration": 0.21739099999999212,
            "durationTicks": 192,
            "midi": 75,
            "name": "D#5",
            "ticks": 85642,
            "time": 96.96770844791666,
            "velocity": 0.3937007874015748
          },
          {
            "duration": 0.10869549999999606,
            "durationTicks": 96,
            "midi": 71,
            "name": "B4",
            "ticks": 85642,
            "time": 96.96770844791666,
            "velocity": 0.3937007874015748
          },
          {
            "duration": 0.21739099999999212,
            "durationTicks": 192,
            "midi": 34,
            "name": "A#1",
            "ticks": 85642,
            "time": 96.96770844791666,
            "velocity": 0.3937007874015748
          },
          {
            "duration": 0.21739099999999212,
            "durationTicks": 192,
            "midi": 63,
            "name": "D#4",
            "ticks": 85642,
            "time": 96.96770844791666,
            "velocity": 0.3937007874015748
          },
          {
            "duration": 0.21739099999999212,
            "durationTicks": 192,
            "midi": 70,
            "name": "A#4",
            "ticks": 85642,
            "time": 96.96770844791666,
            "velocity": 0.3937007874015748
          },
          {
            "duration": 0.43478199999999845,
            "durationTicks": 384,
            "midi": 58,
            "name": "A#3",
            "ticks": 85642,
            "time": 96.96770844791666,
            "velocity": 0.3937007874015748
          },
          {
            "duration": 0.10869549999999606,
            "durationTicks": 96,
            "midi": 51,
            "name": "D#3",
            "ticks": 85642,
            "time": 96.96770844791666,
            "velocity": 0.3937007874015748
          },
          {
            "duration": 0.43478199999999845,
            "durationTicks": 384,
            "midi": 54,
            "name": "F#3",
            "ticks": 85642,
            "time": 96.96770844791666,
            "velocity": 0.3937007874015748
          },
          {
            "duration": 0.43478199999999845,
            "durationTicks": 384,
            "midi": 61,
            "name": "C#4",
            "ticks": 85642,
            "time": 96.96770844791666,
            "velocity": 0.3937007874015748
          },
          {
            "duration": 0.10869549999999606,
            "durationTicks": 96,
            "midi": 39,
            "name": "D#2",
            "ticks": 85642,
            "time": 96.96770844791666,
            "velocity": 0.3937007874015748
          },
          {
            "duration": 0.10869549999999606,
            "durationTicks": 96,
            "midi": 66,
            "name": "F#4",
            "ticks": 85738,
            "time": 97.07640394791666,
            "velocity": 0.3937007874015748
          },
          {
            "duration": 0.10869549999999606,
            "durationTicks": 96,
            "midi": 71,
            "name": "B4",
            "ticks": 85738,
            "time": 97.07640394791666,
            "velocity": 0.3937007874015748
          },
          {
            "duration": 0.10869550000001027,
            "durationTicks": 96,
            "midi": 46,
            "name": "A#2",
            "ticks": 85834,
            "time": 97.18509944791666,
            "velocity": 0.3937007874015748
          },
          {
            "duration": 0.10869550000001027,
            "durationTicks": 96,
            "midi": 34,
            "name": "A#1",
            "ticks": 85834,
            "time": 97.18509944791666,
            "velocity": 0.3937007874015748
          },
          {
            "duration": 0.10869550000001027,
            "durationTicks": 96,
            "midi": 70,
            "name": "A#4",
            "ticks": 85834,
            "time": 97.18509944791666,
            "velocity": 0.3937007874015748
          },
          {
            "duration": 0.10869550000001027,
            "durationTicks": 96,
            "midi": 70,
            "name": "A#4",
            "ticks": 85834,
            "time": 97.18509944791666,
            "velocity": 0.3937007874015748
          },
          {
            "duration": 0.21739100000000633,
            "durationTicks": 192,
            "midi": 34,
            "name": "A#1",
            "ticks": 85834,
            "time": 97.18509944791666,
            "velocity": 0.3937007874015748
          },
          {
            "duration": 0.10869549999999606,
            "durationTicks": 96,
            "midi": 49,
            "name": "C#3",
            "ticks": 85930,
            "time": 97.29379494791667,
            "velocity": 0.3937007874015748
          },
          {
            "duration": 0.10869549999999606,
            "durationTicks": 96,
            "midi": 37,
            "name": "C#2",
            "ticks": 85930,
            "time": 97.29379494791667,
            "velocity": 0.3937007874015748
          },
          {
            "duration": 0.10869549999999606,
            "durationTicks": 96,
            "midi": 70,
            "name": "A#4",
            "ticks": 85930,
            "time": 97.29379494791667,
            "velocity": 0.3937007874015748
          },
          {
            "duration": 0.10869549999999606,
            "durationTicks": 96,
            "midi": 73,
            "name": "C#5",
            "ticks": 85930,
            "time": 97.29379494791667,
            "velocity": 0.3937007874015748
          },
          {
            "duration": 0.10869549999999606,
            "durationTicks": 96,
            "midi": 69,
            "name": "A4",
            "ticks": 86026,
            "time": 97.40249044791666,
            "velocity": 0.3937007874015748
          },
          {
            "duration": 0.21739100000000633,
            "durationTicks": 192,
            "midi": 34,
            "name": "A#1",
            "ticks": 86026,
            "time": 97.40249044791666,
            "velocity": 0.3937007874015748
          },
          {
            "duration": 0.10869549999999606,
            "durationTicks": 96,
            "midi": 44,
            "name": "G#2",
            "ticks": 86026,
            "time": 97.40249044791666,
            "velocity": 0.3937007874015748
          },
          {
            "duration": 0.21739100000000633,
            "durationTicks": 192,
            "midi": 82,
            "name": "A#5",
            "ticks": 86026,
            "time": 97.40249044791666,
            "velocity": 0.3937007874015748
          },
          {
            "duration": 0.21739100000000633,
            "durationTicks": 192,
            "midi": 70,
            "name": "A#4",
            "ticks": 86026,
            "time": 97.40249044791666,
            "velocity": 0.3937007874015748
          },
          {
            "duration": 0.21739100000000633,
            "durationTicks": 192,
            "midi": 78,
            "name": "F#5",
            "ticks": 86026,
            "time": 97.40249044791666,
            "velocity": 0.3937007874015748
          },
          {
            "duration": 0.43478199999999845,
            "durationTicks": 384,
            "midi": 51,
            "name": "D#3",
            "ticks": 86026,
            "time": 97.40249044791666,
            "velocity": 0.3937007874015748
          },
          {
            "duration": 0.10869549999999606,
            "durationTicks": 96,
            "midi": 60,
            "name": "C4",
            "ticks": 86026,
            "time": 97.40249044791666,
            "velocity": 0.3937007874015748
          },
          {
            "duration": 0.43478199999999845,
            "durationTicks": 384,
            "midi": 60,
            "name": "C4",
            "ticks": 86026,
            "time": 97.40249044791666,
            "velocity": 0.3937007874015748
          },
          {
            "duration": 0.43478199999999845,
            "durationTicks": 384,
            "midi": 56,
            "name": "G#3",
            "ticks": 86026,
            "time": 97.40249044791666,
            "velocity": 0.3937007874015748
          },
          {
            "duration": 0.10869549999999606,
            "durationTicks": 96,
            "midi": 32,
            "name": "G#1",
            "ticks": 86026,
            "time": 97.40249044791666,
            "velocity": 0.3937007874015748
          },
          {
            "duration": 0.21739100000000633,
            "durationTicks": 192,
            "midi": 66,
            "name": "F#4",
            "ticks": 86026,
            "time": 97.40249044791666,
            "velocity": 0.3937007874015748
          },
          {
            "duration": 0.10869550000001027,
            "durationTicks": 96,
            "midi": 63,
            "name": "D#4",
            "ticks": 86122,
            "time": 97.51118594791666,
            "velocity": 0.3937007874015748
          },
          {
            "duration": 0.10869550000001027,
            "durationTicks": 96,
            "midi": 69,
            "name": "A4",
            "ticks": 86122,
            "time": 97.51118594791666,
            "velocity": 0.3937007874015748
          },
          {
            "duration": 0.10869549999999606,
            "durationTicks": 96,
            "midi": 68,
            "name": "G#4",
            "ticks": 86218,
            "time": 97.61988144791667,
            "velocity": 0.3937007874015748
          },
          {
            "duration": 0.10869549999999606,
            "durationTicks": 96,
            "midi": 30,
            "name": "F#1",
            "ticks": 86218,
            "time": 97.61988144791667,
            "velocity": 0.3937007874015748
          },
          {
            "duration": 0.21739099999999212,
            "durationTicks": 192,
            "midi": 80,
            "name": "G#5",
            "ticks": 86218,
            "time": 97.61988144791667,
            "velocity": 0.3937007874015748
          },
          {
            "duration": 0.21739099999999212,
            "durationTicks": 192,
            "midi": 85,
            "name": "C#6",
            "ticks": 86218,
            "time": 97.61988144791667,
            "velocity": 0.3937007874015748
          },
          {
            "duration": 0.21739099999999212,
            "durationTicks": 192,
            "midi": 73,
            "name": "C#5",
            "ticks": 86218,
            "time": 97.61988144791667,
            "velocity": 0.3937007874015748
          },
          {
            "duration": 0.10869549999999606,
            "durationTicks": 96,
            "midi": 68,
            "name": "G#4",
            "ticks": 86218,
            "time": 97.61988144791667,
            "velocity": 0.3937007874015748
          },
          {
            "duration": 0.21739099999999212,
            "durationTicks": 192,
            "midi": 68,
            "name": "G#4",
            "ticks": 86218,
            "time": 97.61988144791667,
            "velocity": 0.3937007874015748
          },
          {
            "duration": 0.10869549999999606,
            "durationTicks": 96,
            "midi": 42,
            "name": "F#2",
            "ticks": 86218,
            "time": 97.61988144791667,
            "velocity": 0.3937007874015748
          },
          {
            "duration": 0.10869549999999606,
            "durationTicks": 96,
            "midi": 72,
            "name": "C5",
            "ticks": 86314,
            "time": 97.72857694791666,
            "velocity": 0.3937007874015748
          },
          {
            "duration": 0.10869549999999606,
            "durationTicks": 96,
            "midi": 44,
            "name": "G#2",
            "ticks": 86314,
            "time": 97.72857694791666,
            "velocity": 0.3937007874015748
          },
          {
            "duration": 0.10869549999999606,
            "durationTicks": 96,
            "midi": 68,
            "name": "G#4",
            "ticks": 86314,
            "time": 97.72857694791666,
            "velocity": 0.3937007874015748
          },
          {
            "duration": 0.10869549999999606,
            "durationTicks": 96,
            "midi": 32,
            "name": "G#1",
            "ticks": 86314,
            "time": 97.72857694791666,
            "velocity": 0.3937007874015748
          },
          {
            "duration": 0.10869549999999606,
            "durationTicks": 96,
            "midi": 35,
            "name": "B1",
            "ticks": 86410,
            "time": 97.83727244791666,
            "velocity": 0.3937007874015748
          },
          {
            "duration": 0.10869549999999606,
            "durationTicks": 96,
            "midi": 47,
            "name": "B2",
            "ticks": 86410,
            "time": 97.83727244791666,
            "velocity": 0.3937007874015748
          },
          {
            "duration": 0.21739100000000633,
            "durationTicks": 192,
            "midi": 51,
            "name": "D#3",
            "ticks": 86410,
            "time": 97.83727244791666,
            "velocity": 0.3937007874015748
          },
          {
            "duration": 0.3260865000000024,
            "durationTicks": 288,
            "midi": 54,
            "name": "F#3",
            "ticks": 86410,
            "time": 97.83727244791666,
            "velocity": 0.3937007874015748
          },
          {
            "duration": 0.21739100000000633,
            "durationTicks": 192,
            "midi": 73,
            "name": "C#5",
            "ticks": 86410,
            "time": 97.83727244791666,
            "velocity": 0.3937007874015748
          },
          {
            "duration": 0.21739100000000633,
            "durationTicks": 192,
            "midi": 80,
            "name": "G#5",
            "ticks": 86410,
            "time": 97.83727244791666,
            "velocity": 0.3937007874015748
          },
          {
            "duration": 0.21739100000000633,
            "durationTicks": 192,
            "midi": 34,
            "name": "A#1",
            "ticks": 86410,
            "time": 97.83727244791666,
            "velocity": 0.3937007874015748
          },
          {
            "duration": 0.10869549999999606,
            "durationTicks": 96,
            "midi": 35,
            "name": "B1",
            "ticks": 86410,
            "time": 97.83727244791666,
            "velocity": 0.3937007874015748
          },
          {
            "duration": 0.21739100000000633,
            "durationTicks": 192,
            "midi": 85,
            "name": "C#6",
            "ticks": 86410,
            "time": 97.83727244791666,
            "velocity": 0.3937007874015748
          },
          {
            "duration": 0.43478199999999845,
            "durationTicks": 384,
            "midi": 59,
            "name": "B3",
            "ticks": 86410,
            "time": 97.83727244791666,
            "velocity": 0.3937007874015748
          },
          {
            "duration": 0.21739100000000633,
            "durationTicks": 192,
            "midi": 68,
            "name": "G#4",
            "ticks": 86410,
            "time": 97.83727244791666,
            "velocity": 0.3937007874015748
          },
          {
            "duration": 0.3260865000000024,
            "durationTicks": 288,
            "midi": 51,
            "name": "D#3",
            "ticks": 86506,
            "time": 97.94596794791666,
            "velocity": 0.3937007874015748
          },
          {
            "duration": 0.10869549999999606,
            "durationTicks": 96,
            "midi": 35,
            "name": "B1",
            "ticks": 86602,
            "time": 98.05466344791667,
            "velocity": 0.3937007874015748
          },
          {
            "duration": 0.21739099999999212,
            "durationTicks": 192,
            "midi": 70,
            "name": "A#4",
            "ticks": 86602,
            "time": 98.05466344791667,
            "velocity": 0.3937007874015748
          },
          {
            "duration": 0.21739099999999212,
            "durationTicks": 192,
            "midi": 54,
            "name": "F#3",
            "ticks": 86602,
            "time": 98.05466344791667,
            "velocity": 0.3937007874015748
          },
          {
            "duration": 0.10869549999999606,
            "durationTicks": 96,
            "midi": 47,
            "name": "B2",
            "ticks": 86602,
            "time": 98.05466344791667,
            "velocity": 0.3937007874015748
          },
          {
            "duration": 0.21739099999999212,
            "durationTicks": 192,
            "midi": 82,
            "name": "A#5",
            "ticks": 86602,
            "time": 98.05466344791667,
            "velocity": 0.3937007874015748
          },
          {
            "duration": 0.21739099999999212,
            "durationTicks": 192,
            "midi": 75,
            "name": "D#5",
            "ticks": 86602,
            "time": 98.05466344791667,
            "velocity": 0.3937007874015748
          },
          {
            "duration": 0.21739099999999212,
            "durationTicks": 192,
            "midi": 87,
            "name": "D#6",
            "ticks": 86602,
            "time": 98.05466344791667,
            "velocity": 0.3937007874015748
          },
          {
            "duration": 0.10869549999999606,
            "durationTicks": 96,
            "midi": 59,
            "name": "B3",
            "ticks": 86698,
            "time": 98.16335894791666,
            "velocity": 0.3937007874015748
          },
          {
            "duration": 0.10869549999999606,
            "durationTicks": 96,
            "midi": 35,
            "name": "B1",
            "ticks": 86698,
            "time": 98.16335894791666,
            "velocity": 0.3937007874015748
          },
          {
            "duration": 0.10869549999999606,
            "durationTicks": 96,
            "midi": 47,
            "name": "B2",
            "ticks": 86698,
            "time": 98.16335894791666,
            "velocity": 0.3937007874015748
          },
          {
            "duration": 0.21739100000000633,
            "durationTicks": 192,
            "midi": 78,
            "name": "F#5",
            "ticks": 86794,
            "time": 98.27205444791666,
            "velocity": 0.3937007874015748
          },
          {
            "duration": 0.10869550000001027,
            "durationTicks": 96,
            "midi": 35,
            "name": "B1",
            "ticks": 86794,
            "time": 98.27205444791666,
            "velocity": 0.3937007874015748
          },
          {
            "duration": 0.21739100000000633,
            "durationTicks": 192,
            "midi": 66,
            "name": "F#4",
            "ticks": 86794,
            "time": 98.27205444791666,
            "velocity": 0.3937007874015748
          },
          {
            "duration": 0.21739100000000633,
            "durationTicks": 192,
            "midi": 34,
            "name": "A#1",
            "ticks": 86794,
            "time": 98.27205444791666,
            "velocity": 0.3937007874015748
          },
          {
            "duration": 0.43478199999999845,
            "durationTicks": 384,
            "midi": 54,
            "name": "F#3",
            "ticks": 86794,
            "time": 98.27205444791666,
            "velocity": 0.3937007874015748
          },
          {
            "duration": 0.43478199999999845,
            "durationTicks": 384,
            "midi": 59,
            "name": "B3",
            "ticks": 86794,
            "time": 98.27205444791666,
            "velocity": 0.3937007874015748
          },
          {
            "duration": 0.10869550000001027,
            "durationTicks": 96,
            "midi": 35,
            "name": "B1",
            "ticks": 86794,
            "time": 98.27205444791666,
            "velocity": 0.3937007874015748
          },
          {
            "duration": 0.43478199999999845,
            "durationTicks": 384,
            "midi": 51,
            "name": "D#3",
            "ticks": 86794,
            "time": 98.27205444791666,
            "velocity": 0.3937007874015748
          },
          {
            "duration": 0.21739100000000633,
            "durationTicks": 192,
            "midi": 70,
            "name": "A#4",
            "ticks": 86794,
            "time": 98.27205444791666,
            "velocity": 0.3937007874015748
          },
          {
            "duration": 0.21739100000000633,
            "durationTicks": 192,
            "midi": 82,
            "name": "A#5",
            "ticks": 86794,
            "time": 98.27205444791666,
            "velocity": 0.3937007874015748
          },
          {
            "duration": 0.10869550000001027,
            "durationTicks": 96,
            "midi": 63,
            "name": "D#4",
            "ticks": 86794,
            "time": 98.27205444791666,
            "velocity": 0.3937007874015748
          },
          {
            "duration": 0.10869549999999606,
            "durationTicks": 96,
            "midi": 35,
            "name": "B1",
            "ticks": 86890,
            "time": 98.38074994791667,
            "velocity": 0.3937007874015748
          },
          {
            "duration": 0.10869549999999606,
            "durationTicks": 96,
            "midi": 66,
            "name": "F#4",
            "ticks": 86890,
            "time": 98.38074994791667,
            "velocity": 0.3937007874015748
          },
          {
            "duration": 0.10869549999999606,
            "durationTicks": 96,
            "midi": 47,
            "name": "B2",
            "ticks": 86890,
            "time": 98.38074994791667,
            "velocity": 0.3937007874015748
          },
          {
            "duration": 0.10869549999999606,
            "durationTicks": 96,
            "midi": 34,
            "name": "A#1",
            "ticks": 86986,
            "time": 98.48944544791667,
            "velocity": 0.3937007874015748
          },
          {
            "duration": 0.21739099999999212,
            "durationTicks": 192,
            "midi": 77,
            "name": "F5",
            "ticks": 86986,
            "time": 98.48944544791667,
            "velocity": 0.3937007874015748
          },
          {
            "duration": 0.10869549999999606,
            "durationTicks": 96,
            "midi": 46,
            "name": "A#2",
            "ticks": 86986,
            "time": 98.48944544791667,
            "velocity": 0.3937007874015748
          },
          {
            "duration": 0.10869549999999606,
            "durationTicks": 96,
            "midi": 71,
            "name": "B4",
            "ticks": 86986,
            "time": 98.48944544791667,
            "velocity": 0.3937007874015748
          },
          {
            "duration": 0.21739099999999212,
            "durationTicks": 192,
            "midi": 65,
            "name": "F4",
            "ticks": 86986,
            "time": 98.48944544791667,
            "velocity": 0.3937007874015748
          },
          {
            "duration": 0.21739099999999212,
            "durationTicks": 192,
            "midi": 68,
            "name": "G#4",
            "ticks": 86986,
            "time": 98.48944544791667,
            "velocity": 0.3937007874015748
          },
          {
            "duration": 0.21739099999999212,
            "durationTicks": 192,
            "midi": 80,
            "name": "G#5",
            "ticks": 86986,
            "time": 98.48944544791667,
            "velocity": 0.3937007874015748
          },
          {
            "duration": 0.10869549999999606,
            "durationTicks": 96,
            "midi": 75,
            "name": "D#5",
            "ticks": 87082,
            "time": 98.59814094791666,
            "velocity": 0.3937007874015748
          },
          {
            "duration": 0.10869549999999606,
            "durationTicks": 96,
            "midi": 35,
            "name": "B1",
            "ticks": 87082,
            "time": 98.59814094791666,
            "velocity": 0.3937007874015748
          },
          {
            "duration": 0.10869549999999606,
            "durationTicks": 96,
            "midi": 47,
            "name": "B2",
            "ticks": 87082,
            "time": 98.59814094791666,
            "velocity": 0.3937007874015748
          },
          {
            "duration": 0.21739100000000633,
            "durationTicks": 192,
            "midi": 78,
            "name": "F#5",
            "ticks": 87178,
            "time": 98.70683644791666,
            "velocity": 0.3937007874015748
          },
          {
            "duration": 0.21739100000000633,
            "durationTicks": 192,
            "midi": 66,
            "name": "F#4",
            "ticks": 87178,
            "time": 98.70683644791666,
            "velocity": 0.3937007874015748
          },
          {
            "duration": 0.10869550000001027,
            "durationTicks": 96,
            "midi": 47,
            "name": "B2",
            "ticks": 87178,
            "time": 98.70683644791666,
            "velocity": 0.3937007874015748
          },
          {
            "duration": 0.21739100000000633,
            "durationTicks": 192,
            "midi": 34,
            "name": "A#1",
            "ticks": 87178,
            "time": 98.70683644791666,
            "velocity": 0.3937007874015748
          },
          {
            "duration": 0.43478199999999845,
            "durationTicks": 384,
            "midi": 59,
            "name": "B3",
            "ticks": 87178,
            "time": 98.70683644791666,
            "velocity": 0.3937007874015748
          },
          {
            "duration": 0.10869550000001027,
            "durationTicks": 96,
            "midi": 35,
            "name": "B1",
            "ticks": 87178,
            "time": 98.70683644791666,
            "velocity": 0.3937007874015748
          },
          {
            "duration": 0.3260865000000024,
            "durationTicks": 288,
            "midi": 54,
            "name": "F#3",
            "ticks": 87178,
            "time": 98.70683644791666,
            "velocity": 0.3937007874015748
          },
          {
            "duration": 0.21739100000000633,
            "durationTicks": 192,
            "midi": 82,
            "name": "A#5",
            "ticks": 87178,
            "time": 98.70683644791666,
            "velocity": 0.3937007874015748
          },
          {
            "duration": 0.21739100000000633,
            "durationTicks": 192,
            "midi": 51,
            "name": "D#3",
            "ticks": 87178,
            "time": 98.70683644791666,
            "velocity": 0.3937007874015748
          },
          {
            "duration": 0.10869550000001027,
            "durationTicks": 96,
            "midi": 35,
            "name": "B1",
            "ticks": 87178,
            "time": 98.70683644791666,
            "velocity": 0.3937007874015748
          },
          {
            "duration": 0.21739100000000633,
            "durationTicks": 192,
            "midi": 70,
            "name": "A#4",
            "ticks": 87178,
            "time": 98.70683644791666,
            "velocity": 0.3937007874015748
          },
          {
            "duration": 0.3260864999999882,
            "durationTicks": 288,
            "midi": 51,
            "name": "D#3",
            "ticks": 87274,
            "time": 98.81553194791667,
            "velocity": 0.3937007874015748
          },
          {
            "duration": 0.10869549999999606,
            "durationTicks": 96,
            "midi": 47,
            "name": "B2",
            "ticks": 87370,
            "time": 98.92422744791666,
            "velocity": 0.3937007874015748
          },
          {
            "duration": 0.10869549999999606,
            "durationTicks": 96,
            "midi": 35,
            "name": "B1",
            "ticks": 87370,
            "time": 98.92422744791666,
            "velocity": 0.3937007874015748
          },
          {
            "duration": 0.21739099999999212,
            "durationTicks": 192,
            "midi": 54,
            "name": "F#3",
            "ticks": 87370,
            "time": 98.92422744791666,
            "velocity": 0.3937007874015748
          },
          {
            "duration": 0.10869549999999606,
            "durationTicks": 96,
            "midi": 47,
            "name": "B2",
            "ticks": 87466,
            "time": 99.03292294791666,
            "velocity": 0.3937007874015748
          },
          {
            "duration": 0.10869549999999606,
            "durationTicks": 96,
            "midi": 35,
            "name": "B1",
            "ticks": 87466,
            "time": 99.03292294791666,
            "velocity": 0.3937007874015748
          },
          {
            "duration": 0.10869549999999606,
            "durationTicks": 96,
            "midi": 59,
            "name": "B3",
            "ticks": 87466,
            "time": 99.03292294791666,
            "velocity": 0.3937007874015748
          },
          {
            "duration": 0.43478200000001266,
            "durationTicks": 384,
            "midi": 54,
            "name": "F#3",
            "ticks": 87562,
            "time": 99.14161844791666,
            "velocity": 0.3937007874015748
          },
          {
            "duration": 0.21739100000000633,
            "durationTicks": 192,
            "midi": 80,
            "name": "G#5",
            "ticks": 87562,
            "time": 99.14161844791666,
            "velocity": 0.3937007874015748
          },
          {
            "duration": 0.10869550000001027,
            "durationTicks": 96,
            "midi": 35,
            "name": "B1",
            "ticks": 87562,
            "time": 99.14161844791666,
            "velocity": 0.3937007874015748
          },
          {
            "duration": 0.43478200000001266,
            "durationTicks": 384,
            "midi": 51,
            "name": "D#3",
            "ticks": 87562,
            "time": 99.14161844791666,
            "velocity": 0.3937007874015748
          },
          {
            "duration": 0.21739100000000633,
            "durationTicks": 192,
            "midi": 65,
            "name": "F4",
            "ticks": 87562,
            "time": 99.14161844791666,
            "velocity": 0.3937007874015748
          },
          {
            "duration": 0.43478200000001266,
            "durationTicks": 384,
            "midi": 59,
            "name": "B3",
            "ticks": 87562,
            "time": 99.14161844791666,
            "velocity": 0.3937007874015748
          },
          {
            "duration": 0.21739100000000633,
            "durationTicks": 192,
            "midi": 77,
            "name": "F5",
            "ticks": 87562,
            "time": 99.14161844791666,
            "velocity": 0.3937007874015748
          },
          {
            "duration": 0.10869550000001027,
            "durationTicks": 96,
            "midi": 35,
            "name": "B1",
            "ticks": 87562,
            "time": 99.14161844791666,
            "velocity": 0.3937007874015748
          },
          {
            "duration": 0.10869550000001027,
            "durationTicks": 96,
            "midi": 63,
            "name": "D#4",
            "ticks": 87562,
            "time": 99.14161844791666,
            "velocity": 0.3937007874015748
          },
          {
            "duration": 0.21739100000000633,
            "durationTicks": 192,
            "midi": 68,
            "name": "G#4",
            "ticks": 87562,
            "time": 99.14161844791666,
            "velocity": 0.3937007874015748
          },
          {
            "duration": 0.21739100000000633,
            "durationTicks": 192,
            "midi": 34,
            "name": "A#1",
            "ticks": 87562,
            "time": 99.14161844791666,
            "velocity": 0.3937007874015748
          },
          {
            "duration": 0.10869549999999606,
            "durationTicks": 96,
            "midi": 66,
            "name": "F#4",
            "ticks": 87658,
            "time": 99.25031394791667,
            "velocity": 0.3937007874015748
          },
          {
            "duration": 0.10869549999999606,
            "durationTicks": 96,
            "midi": 35,
            "name": "B1",
            "ticks": 87658,
            "time": 99.25031394791667,
            "velocity": 0.3937007874015748
          },
          {
            "duration": 0.10869549999999606,
            "durationTicks": 96,
            "midi": 47,
            "name": "B2",
            "ticks": 87658,
            "time": 99.25031394791667,
            "velocity": 0.3937007874015748
          },
          {
            "duration": 0.10869549999999606,
            "durationTicks": 96,
            "midi": 34,
            "name": "A#1",
            "ticks": 87754,
            "time": 99.35900944791666,
            "velocity": 0.3937007874015748
          },
          {
            "duration": 0.10869549999999606,
            "durationTicks": 96,
            "midi": 46,
            "name": "A#2",
            "ticks": 87754,
            "time": 99.35900944791666,
            "velocity": 0.3937007874015748
          },
          {
            "duration": 0.21739100000000633,
            "durationTicks": 192,
            "midi": 66,
            "name": "F#4",
            "ticks": 87754,
            "time": 99.35900944791666,
            "velocity": 0.3937007874015748
          },
          {
            "duration": 0.21739100000000633,
            "durationTicks": 192,
            "midi": 70,
            "name": "A#4",
            "ticks": 87754,
            "time": 99.35900944791666,
            "velocity": 0.3937007874015748
          },
          {
            "duration": 0.21739100000000633,
            "durationTicks": 192,
            "midi": 82,
            "name": "A#5",
            "ticks": 87754,
            "time": 99.35900944791666,
            "velocity": 0.3937007874015748
          },
          {
            "duration": 0.10869549999999606,
            "durationTicks": 96,
            "midi": 71,
            "name": "B4",
            "ticks": 87754,
            "time": 99.35900944791666,
            "velocity": 0.3937007874015748
          },
          {
            "duration": 0.21739100000000633,
            "durationTicks": 192,
            "midi": 78,
            "name": "F#5",
            "ticks": 87754,
            "time": 99.35900944791666,
            "velocity": 0.3937007874015748
          },
          {
            "duration": 0.10869550000001027,
            "durationTicks": 96,
            "midi": 35,
            "name": "B1",
            "ticks": 87850,
            "time": 99.46770494791666,
            "velocity": 0.3937007874015748
          },
          {
            "duration": 0.10869550000001027,
            "durationTicks": 96,
            "midi": 75,
            "name": "D#5",
            "ticks": 87850,
            "time": 99.46770494791666,
            "velocity": 0.3937007874015748
          },
          {
            "duration": 0.10869550000001027,
            "durationTicks": 96,
            "midi": 47,
            "name": "B2",
            "ticks": 87850,
            "time": 99.46770494791666,
            "velocity": 0.3937007874015748
          },
          {
            "duration": 0.10869549999999606,
            "durationTicks": 96,
            "midi": 49,
            "name": "C#3",
            "ticks": 87946,
            "time": 99.57640044791667,
            "velocity": 0.3937007874015748
          },
          {
            "duration": 0.43478199999999845,
            "durationTicks": 384,
            "midi": 61,
            "name": "C#4",
            "ticks": 87946,
            "time": 99.57640044791667,
            "velocity": 0.3937007874015748
          },
          {
            "duration": 0.10869549999999606,
            "durationTicks": 96,
            "midi": 37,
            "name": "C#2",
            "ticks": 87946,
            "time": 99.57640044791667,
            "velocity": 0.3937007874015748
          },
          {
            "duration": 0.21739099999999212,
            "durationTicks": 192,
            "midi": 68,
            "name": "G#4",
            "ticks": 87946,
            "time": 99.57640044791667,
            "velocity": 0.3937007874015748
          },
          {
            "duration": 0.3260864999999882,
            "durationTicks": 288,
            "midi": 56,
            "name": "G#3",
            "ticks": 87946,
            "time": 99.57640044791667,
            "velocity": 0.3937007874015748
          },
          {
            "duration": 0.21739099999999212,
            "durationTicks": 192,
            "midi": 85,
            "name": "C#6",
            "ticks": 87946,
            "time": 99.57640044791667,
            "velocity": 0.3937007874015748
          },
          {
            "duration": 0.10869549999999606,
            "durationTicks": 96,
            "midi": 25,
            "name": "C#1",
            "ticks": 87946,
            "time": 99.57640044791667,
            "velocity": 0.3937007874015748
          },
          {
            "duration": 0.21739099999999212,
            "durationTicks": 192,
            "midi": 80,
            "name": "G#5",
            "ticks": 87946,
            "time": 99.57640044791667,
            "velocity": 0.3937007874015748
          },
          {
            "duration": 0.21739099999999212,
            "durationTicks": 192,
            "midi": 34,
            "name": "A#1",
            "ticks": 87946,
            "time": 99.57640044791667,
            "velocity": 0.3937007874015748
          },
          {
            "duration": 0.21739099999999212,
            "durationTicks": 192,
            "midi": 53,
            "name": "F3",
            "ticks": 87946,
            "time": 99.57640044791667,
            "velocity": 0.3937007874015748
          },
          {
            "duration": 0.21739099999999212,
            "durationTicks": 192,
            "midi": 73,
            "name": "C#5",
            "ticks": 87946,
            "time": 99.57640044791667,
            "velocity": 0.3937007874015748
          },
          {
            "duration": 0.3260865000000024,
            "durationTicks": 288,
            "midi": 53,
            "name": "F3",
            "ticks": 88042,
            "time": 99.68509594791666,
            "velocity": 0.3937007874015748
          },
          {
            "duration": 0.10869549999999606,
            "durationTicks": 96,
            "midi": 37,
            "name": "C#2",
            "ticks": 88138,
            "time": 99.79379144791666,
            "velocity": 0.3937007874015748
          },
          {
            "duration": 0.10869549999999606,
            "durationTicks": 96,
            "midi": 49,
            "name": "C#3",
            "ticks": 88138,
            "time": 99.79379144791666,
            "velocity": 0.3937007874015748
          },
          {
            "duration": 0.21739100000000633,
            "durationTicks": 192,
            "midi": 56,
            "name": "G#3",
            "ticks": 88138,
            "time": 99.79379144791666,
            "velocity": 0.3937007874015748
          },
          {
            "duration": 0.21739100000000633,
            "durationTicks": 192,
            "midi": 82,
            "name": "A#5",
            "ticks": 88138,
            "time": 99.79379144791666,
            "velocity": 0.3937007874015748
          },
          {
            "duration": 0.21739100000000633,
            "durationTicks": 192,
            "midi": 75,
            "name": "D#5",
            "ticks": 88138,
            "time": 99.79379144791666,
            "velocity": 0.3937007874015748
          },
          {
            "duration": 0.21739100000000633,
            "durationTicks": 192,
            "midi": 70,
            "name": "A#4",
            "ticks": 88138,
            "time": 99.79379144791666,
            "velocity": 0.3937007874015748
          },
          {
            "duration": 0.21739100000000633,
            "durationTicks": 192,
            "midi": 87,
            "name": "D#6",
            "ticks": 88138,
            "time": 99.79379144791666,
            "velocity": 0.3937007874015748
          },
          {
            "duration": 0.10869550000001027,
            "durationTicks": 96,
            "midi": 49,
            "name": "C#3",
            "ticks": 88234,
            "time": 99.90248694791666,
            "velocity": 0.3937007874015748
          },
          {
            "duration": 0.10869550000001027,
            "durationTicks": 96,
            "midi": 61,
            "name": "C#4",
            "ticks": 88234,
            "time": 99.90248694791666,
            "velocity": 0.3937007874015748
          },
          {
            "duration": 0.10869550000001027,
            "durationTicks": 96,
            "midi": 37,
            "name": "C#2",
            "ticks": 88234,
            "time": 99.90248694791666,
            "velocity": 0.3937007874015748
          },
          {
            "duration": 0.43478199999999845,
            "durationTicks": 384,
            "midi": 53,
            "name": "F3",
            "ticks": 88330,
            "time": 100.01118244791667,
            "velocity": 0.3937007874015748
          },
          {
            "duration": 0.21739099999999212,
            "durationTicks": 192,
            "midi": 78,
            "name": "F#5",
            "ticks": 88330,
            "time": 100.01118244791667,
            "velocity": 0.3937007874015748
          },
          {
            "duration": 0.21739099999999212,
            "durationTicks": 192,
            "midi": 34,
            "name": "A#1",
            "ticks": 88330,
            "time": 100.01118244791667,
            "velocity": 0.3937007874015748
          },
          {
            "duration": 0.10869549999999606,
            "durationTicks": 96,
            "midi": 37,
            "name": "C#2",
            "ticks": 88330,
            "time": 100.01118244791667,
            "velocity": 0.3937007874015748
          },
          {
            "duration": 0.21739099999999212,
            "durationTicks": 192,
            "midi": 70,
            "name": "A#4",
            "ticks": 88330,
            "time": 100.01118244791667,
            "velocity": 0.3937007874015748
          },
          {
            "duration": 0.21739099999999212,
            "durationTicks": 192,
            "midi": 66,
            "name": "F#4",
            "ticks": 88330,
            "time": 100.01118244791667,
            "velocity": 0.3937007874015748
          },
          {
            "duration": 0.10869549999999606,
            "durationTicks": 96,
            "midi": 25,
            "name": "C#1",
            "ticks": 88330,
            "time": 100.01118244791667,
            "velocity": 0.3937007874015748
          },
          {
            "duration": 0.10869549999999606,
            "durationTicks": 96,
            "midi": 65,
            "name": "F4",
            "ticks": 88330,
            "time": 100.01118244791667,
            "velocity": 0.3937007874015748
          },
          {
            "duration": 0.21739099999999212,
            "durationTicks": 192,
            "midi": 82,
            "name": "A#5",
            "ticks": 88330,
            "time": 100.01118244791667,
            "velocity": 0.3937007874015748
          },
          {
            "duration": 0.43478199999999845,
            "durationTicks": 384,
            "midi": 61,
            "name": "C#4",
            "ticks": 88330,
            "time": 100.01118244791667,
            "velocity": 0.3937007874015748
          },
          {
            "duration": 0.43478199999999845,
            "durationTicks": 384,
            "midi": 56,
            "name": "G#3",
            "ticks": 88330,
            "time": 100.01118244791667,
            "velocity": 0.3937007874015748
          },
          {
            "duration": 0.10869549999999606,
            "durationTicks": 96,
            "midi": 49,
            "name": "C#3",
            "ticks": 88426,
            "time": 100.11987794791666,
            "velocity": 0.3937007874015748
          },
          {
            "duration": 0.10869549999999606,
            "durationTicks": 96,
            "midi": 68,
            "name": "G#4",
            "ticks": 88426,
            "time": 100.11987794791666,
            "velocity": 0.3937007874015748
          },
          {
            "duration": 0.10869549999999606,
            "durationTicks": 96,
            "midi": 37,
            "name": "C#2",
            "ticks": 88426,
            "time": 100.11987794791666,
            "velocity": 0.3937007874015748
          },
          {
            "duration": 0.10869550000001027,
            "durationTicks": 96,
            "midi": 73,
            "name": "C#5",
            "ticks": 88522,
            "time": 100.22857344791666,
            "velocity": 0.3937007874015748
          },
          {
            "duration": 0.21739100000000633,
            "durationTicks": 192,
            "midi": 65,
            "name": "F4",
            "ticks": 88522,
            "time": 100.22857344791666,
            "velocity": 0.3937007874015748
          },
          {
            "duration": 0.10869550000001027,
            "durationTicks": 96,
            "midi": 47,
            "name": "B2",
            "ticks": 88522,
            "time": 100.22857344791666,
            "velocity": 0.3937007874015748
          },
          {
            "duration": 0.21739100000000633,
            "durationTicks": 192,
            "midi": 80,
            "name": "G#5",
            "ticks": 88522,
            "time": 100.22857344791666,
            "velocity": 0.3937007874015748
          },
          {
            "duration": 0.21739100000000633,
            "durationTicks": 192,
            "midi": 77,
            "name": "F5",
            "ticks": 88522,
            "time": 100.22857344791666,
            "velocity": 0.3937007874015748
          },
          {
            "duration": 0.10869550000001027,
            "durationTicks": 96,
            "midi": 35,
            "name": "B1",
            "ticks": 88522,
            "time": 100.22857344791666,
            "velocity": 0.3937007874015748
          },
          {
            "duration": 0.21739100000000633,
            "durationTicks": 192,
            "midi": 68,
            "name": "G#4",
            "ticks": 88522,
            "time": 100.22857344791666,
            "velocity": 0.3937007874015748
          },
          {
            "duration": 0.10869549999999606,
            "durationTicks": 96,
            "midi": 77,
            "name": "F5",
            "ticks": 88618,
            "time": 100.33726894791667,
            "velocity": 0.3937007874015748
          },
          {
            "duration": 0.10869549999999606,
            "durationTicks": 96,
            "midi": 49,
            "name": "C#3",
            "ticks": 88618,
            "time": 100.33726894791667,
            "velocity": 0.3937007874015748
          },
          {
            "duration": 0.10869549999999606,
            "durationTicks": 96,
            "midi": 37,
            "name": "C#2",
            "ticks": 88618,
            "time": 100.33726894791667,
            "velocity": 0.3937007874015748
          },
          {
            "duration": 0.10869549999999606,
            "durationTicks": 96,
            "midi": 25,
            "name": "C#1",
            "ticks": 88714,
            "time": 100.44596444791667,
            "velocity": 0.3937007874015748
          },
          {
            "duration": 0.10869549999999606,
            "durationTicks": 96,
            "midi": 37,
            "name": "C#2",
            "ticks": 88714,
            "time": 100.44596444791667,
            "velocity": 0.3937007874015748
          },
          {
            "duration": 0.3260865000000024,
            "durationTicks": 288,
            "midi": 56,
            "name": "G#3",
            "ticks": 88714,
            "time": 100.44596444791667,
            "velocity": 0.3937007874015748
          },
          {
            "duration": 0.21739099999999212,
            "durationTicks": 192,
            "midi": 53,
            "name": "F3",
            "ticks": 88714,
            "time": 100.44596444791667,
            "velocity": 0.3937007874015748
          },
          {
            "duration": 0.21739099999999212,
            "durationTicks": 192,
            "midi": 70,
            "name": "A#4",
            "ticks": 88714,
            "time": 100.44596444791667,
            "velocity": 0.3937007874015748
          },
          {
            "duration": 0.21739099999999212,
            "durationTicks": 192,
            "midi": 78,
            "name": "F#5",
            "ticks": 88714,
            "time": 100.44596444791667,
            "velocity": 0.3937007874015748
          },
          {
            "duration": 0.21739099999999212,
            "durationTicks": 192,
            "midi": 66,
            "name": "F#4",
            "ticks": 88714,
            "time": 100.44596444791667,
            "velocity": 0.3937007874015748
          },
          {
            "duration": 0.10869549999999606,
            "durationTicks": 96,
            "midi": 49,
            "name": "C#3",
            "ticks": 88714,
            "time": 100.44596444791667,
            "velocity": 0.3937007874015748
          },
          {
            "duration": 0.21739099999999212,
            "durationTicks": 192,
            "midi": 34,
            "name": "A#1",
            "ticks": 88714,
            "time": 100.44596444791667,
            "velocity": 0.3937007874015748
          },
          {
            "duration": 0.21739099999999212,
            "durationTicks": 192,
            "midi": 82,
            "name": "A#5",
            "ticks": 88714,
            "time": 100.44596444791667,
            "velocity": 0.3937007874015748
          },
          {
            "duration": 0.43478199999999845,
            "durationTicks": 384,
            "midi": 61,
            "name": "C#4",
            "ticks": 88714,
            "time": 100.44596444791667,
            "velocity": 0.3937007874015748
          },
          {
            "duration": 0.3260865000000024,
            "durationTicks": 288,
            "midi": 53,
            "name": "F3",
            "ticks": 88810,
            "time": 100.55465994791666,
            "velocity": 0.3937007874015748
          },
          {
            "duration": 0.10869550000001027,
            "durationTicks": 96,
            "midi": 37,
            "name": "C#2",
            "ticks": 88906,
            "time": 100.66335544791666,
            "velocity": 0.3937007874015748
          },
          {
            "duration": 0.10869550000001027,
            "durationTicks": 96,
            "midi": 49,
            "name": "C#3",
            "ticks": 88906,
            "time": 100.66335544791666,
            "velocity": 0.3937007874015748
          },
          {
            "duration": 0.21739100000000633,
            "durationTicks": 192,
            "midi": 56,
            "name": "G#3",
            "ticks": 88906,
            "time": 100.66335544791666,
            "velocity": 0.3937007874015748
          },
          {
            "duration": 0.10869549999999606,
            "durationTicks": 96,
            "midi": 61,
            "name": "C#4",
            "ticks": 89002,
            "time": 100.77205094791667,
            "velocity": 0.3937007874015748
          },
          {
            "duration": 0.10869549999999606,
            "durationTicks": 96,
            "midi": 37,
            "name": "C#2",
            "ticks": 89002,
            "time": 100.77205094791667,
            "velocity": 0.3937007874015748
          },
          {
            "duration": 0.10869549999999606,
            "durationTicks": 96,
            "midi": 49,
            "name": "C#3",
            "ticks": 89002,
            "time": 100.77205094791667,
            "velocity": 0.3937007874015748
          },
          {
            "duration": 0.10869549999999606,
            "durationTicks": 96,
            "midi": 25,
            "name": "C#1",
            "ticks": 89098,
            "time": 100.88074644791666,
            "velocity": 0.3937007874015748
          },
          {
            "duration": 0.43478199999999845,
            "durationTicks": 384,
            "midi": 61,
            "name": "C#4",
            "ticks": 89098,
            "time": 100.88074644791666,
            "velocity": 0.3937007874015748
          },
          {
            "duration": 0.21739099999999212,
            "durationTicks": 192,
            "midi": 68,
            "name": "G#4",
            "ticks": 89098,
            "time": 100.88074644791666,
            "velocity": 0.3937007874015748
          },
          {
            "duration": 0.10869549999999606,
            "durationTicks": 96,
            "midi": 65,
            "name": "F4",
            "ticks": 89098,
            "time": 100.88074644791666,
            "velocity": 0.3937007874015748
          },
          {
            "duration": 0.21739099999999212,
            "durationTicks": 192,
            "midi": 65,
            "name": "F4",
            "ticks": 89098,
            "time": 100.88074644791666,
            "velocity": 0.3937007874015748
          },
          {
            "duration": 0.21739099999999212,
            "durationTicks": 192,
            "midi": 80,
            "name": "G#5",
            "ticks": 89098,
            "time": 100.88074644791666,
            "velocity": 0.3937007874015748
          },
          {
            "duration": 0.21739099999999212,
            "durationTicks": 192,
            "midi": 34,
            "name": "A#1",
            "ticks": 89098,
            "time": 100.88074644791666,
            "velocity": 0.3937007874015748
          },
          {
            "duration": 0.21739099999999212,
            "durationTicks": 192,
            "midi": 77,
            "name": "F5",
            "ticks": 89098,
            "time": 100.88074644791666,
            "velocity": 0.3937007874015748
          },
          {
            "duration": 0.10869549999999606,
            "durationTicks": 96,
            "midi": 37,
            "name": "C#2",
            "ticks": 89098,
            "time": 100.88074644791666,
            "velocity": 0.3937007874015748
          },
          {
            "duration": 0.43478199999999845,
            "durationTicks": 384,
            "midi": 56,
            "name": "G#3",
            "ticks": 89098,
            "time": 100.88074644791666,
            "velocity": 0.3937007874015748
          },
          {
            "duration": 0.43478199999999845,
            "durationTicks": 384,
            "midi": 53,
            "name": "F3",
            "ticks": 89098,
            "time": 100.88074644791666,
            "velocity": 0.3937007874015748
          },
          {
            "duration": 0.10869549999999606,
            "durationTicks": 96,
            "midi": 68,
            "name": "G#4",
            "ticks": 89194,
            "time": 100.98944194791666,
            "velocity": 0.3937007874015748
          },
          {
            "duration": 0.10869549999999606,
            "durationTicks": 96,
            "midi": 37,
            "name": "C#2",
            "ticks": 89194,
            "time": 100.98944194791666,
            "velocity": 0.3937007874015748
          },
          {
            "duration": 0.10869549999999606,
            "durationTicks": 96,
            "midi": 49,
            "name": "C#3",
            "ticks": 89194,
            "time": 100.98944194791666,
            "velocity": 0.3937007874015748
          },
          {
            "duration": 0.21739100000000633,
            "durationTicks": 192,
            "midi": 34,
            "name": "A#1",
            "ticks": 89290,
            "time": 101.09813744791666,
            "velocity": 0.3937007874015748
          },
          {
            "duration": 0.21739100000000633,
            "durationTicks": 192,
            "midi": 82,
            "name": "A#5",
            "ticks": 89290,
            "time": 101.09813744791666,
            "velocity": 0.3937007874015748
          },
          {
            "duration": 0.21739100000000633,
            "durationTicks": 192,
            "midi": 70,
            "name": "A#4",
            "ticks": 89290,
            "time": 101.09813744791666,
            "velocity": 0.3937007874015748
          },
          {
            "duration": 0.10869550000001027,
            "durationTicks": 96,
            "midi": 35,
            "name": "B1",
            "ticks": 89290,
            "time": 101.09813744791666,
            "velocity": 0.3937007874015748
          },
          {
            "duration": 0.10869550000001027,
            "durationTicks": 96,
            "midi": 73,
            "name": "C#5",
            "ticks": 89290,
            "time": 101.09813744791666,
            "velocity": 0.3937007874015748
          },
          {
            "duration": 0.10869550000001027,
            "durationTicks": 96,
            "midi": 47,
            "name": "B2",
            "ticks": 89290,
            "time": 101.09813744791666,
            "velocity": 0.3937007874015748
          },
          {
            "duration": 0.21739100000000633,
            "durationTicks": 192,
            "midi": 78,
            "name": "F#5",
            "ticks": 89290,
            "time": 101.09813744791666,
            "velocity": 0.3937007874015748
          },
          {
            "duration": 0.21739100000000633,
            "durationTicks": 192,
            "midi": 66,
            "name": "F#4",
            "ticks": 89290,
            "time": 101.09813744791666,
            "velocity": 0.3937007874015748
          },
          {
            "duration": 0.10869549999999606,
            "durationTicks": 96,
            "midi": 37,
            "name": "C#2",
            "ticks": 89386,
            "time": 101.20683294791667,
            "velocity": 0.3937007874015748
          },
          {
            "duration": 0.10869549999999606,
            "durationTicks": 96,
            "midi": 77,
            "name": "F5",
            "ticks": 89386,
            "time": 101.20683294791667,
            "velocity": 0.3937007874015748
          },
          {
            "duration": 0.10869549999999606,
            "durationTicks": 96,
            "midi": 49,
            "name": "C#3",
            "ticks": 89386,
            "time": 101.20683294791667,
            "velocity": 0.3937007874015748
          },
          {
            "duration": 0.43478199999999845,
            "durationTicks": 384,
            "midi": 63,
            "name": "D#4",
            "ticks": 89482,
            "time": 101.31552844791666,
            "velocity": 0.3937007874015748
          },
          {
            "duration": 0.21739100000000633,
            "durationTicks": 192,
            "midi": 77,
            "name": "F5",
            "ticks": 89482,
            "time": 101.31552844791666,
            "velocity": 0.3937007874015748
          },
          {
            "duration": 0.3260865000000024,
            "durationTicks": 288,
            "midi": 58,
            "name": "A#3",
            "ticks": 89482,
            "time": 101.31552844791666,
            "velocity": 0.3937007874015748
          },
          {
            "duration": 0.21739100000000633,
            "durationTicks": 192,
            "midi": 80,
            "name": "G#5",
            "ticks": 89482,
            "time": 101.31552844791666,
            "velocity": 0.3937007874015748
          },
          {
            "duration": 0.21739100000000633,
            "durationTicks": 192,
            "midi": 65,
            "name": "F4",
            "ticks": 89482,
            "time": 101.31552844791666,
            "velocity": 0.3937007874015748
          },
          {
            "duration": 0.10869549999999606,
            "durationTicks": 96,
            "midi": 39,
            "name": "D#2",
            "ticks": 89482,
            "time": 101.31552844791666,
            "velocity": 0.3937007874015748
          },
          {
            "duration": 0.10869549999999606,
            "durationTicks": 96,
            "midi": 27,
            "name": "D#1",
            "ticks": 89482,
            "time": 101.31552844791666,
            "velocity": 0.3937007874015748
          },
          {
            "duration": 0.10869549999999606,
            "durationTicks": 96,
            "midi": 51,
            "name": "D#3",
            "ticks": 89482,
            "time": 101.31552844791666,
            "velocity": 0.3937007874015748
          },
          {
            "duration": 0.21739100000000633,
            "durationTicks": 192,
            "midi": 68,
            "name": "G#4",
            "ticks": 89482,
            "time": 101.31552844791666,
            "velocity": 0.3937007874015748
          },
          {
            "duration": 0.21739100000000633,
            "durationTicks": 192,
            "midi": 34,
            "name": "A#1",
            "ticks": 89482,
            "time": 101.31552844791666,
            "velocity": 0.3937007874015748
          },
          {
            "duration": 0.21739100000000633,
            "durationTicks": 192,
            "midi": 54,
            "name": "F#3",
            "ticks": 89482,
            "time": 101.31552844791666,
            "velocity": 0.3937007874015748
          },
          {
            "duration": 0.3260865000000024,
            "durationTicks": 288,
            "midi": 54,
            "name": "F#3",
            "ticks": 89578,
            "time": 101.42422394791666,
            "velocity": 0.3937007874015748
          },
          {
            "duration": 0.21739099999999212,
            "durationTicks": 192,
            "midi": 63,
            "name": "D#4",
            "ticks": 89674,
            "time": 101.53291944791667,
            "velocity": 0.3937007874015748
          },
          {
            "duration": 0.10869549999999606,
            "durationTicks": 96,
            "midi": 51,
            "name": "D#3",
            "ticks": 89674,
            "time": 101.53291944791667,
            "velocity": 0.3937007874015748
          },
          {
            "duration": 0.21739099999999212,
            "durationTicks": 192,
            "midi": 66,
            "name": "F#4",
            "ticks": 89674,
            "time": 101.53291944791667,
            "velocity": 0.3937007874015748
          },
          {
            "duration": 0.10869549999999606,
            "durationTicks": 96,
            "midi": 39,
            "name": "D#2",
            "ticks": 89674,
            "time": 101.53291944791667,
            "velocity": 0.3937007874015748
          },
          {
            "duration": 0.21739099999999212,
            "durationTicks": 192,
            "midi": 75,
            "name": "D#5",
            "ticks": 89674,
            "time": 101.53291944791667,
            "velocity": 0.3937007874015748
          },
          {
            "duration": 0.21739099999999212,
            "durationTicks": 192,
            "midi": 78,
            "name": "F#5",
            "ticks": 89674,
            "time": 101.53291944791667,
            "velocity": 0.3937007874015748
          },
          {
            "duration": 0.21739099999999212,
            "durationTicks": 192,
            "midi": 58,
            "name": "A#3",
            "ticks": 89674,
            "time": 101.53291944791667,
            "velocity": 0.3937007874015748
          },
          {
            "duration": 0.10869549999999606,
            "durationTicks": 96,
            "midi": 39,
            "name": "D#2",
            "ticks": 89770,
            "time": 101.64161494791666,
            "velocity": 0.3937007874015748
          },
          {
            "duration": 0.10869549999999606,
            "durationTicks": 96,
            "midi": 51,
            "name": "D#3",
            "ticks": 89770,
            "time": 101.64161494791666,
            "velocity": 0.3937007874015748
          },
          {
            "duration": 0.10869549999999606,
            "durationTicks": 96,
            "midi": 63,
            "name": "D#4",
            "ticks": 89770,
            "time": 101.64161494791666,
            "velocity": 0.3937007874015748
          },
          {
            "duration": 0.43478199999999845,
            "durationTicks": 384,
            "midi": 63,
            "name": "D#4",
            "ticks": 89866,
            "time": 101.75031044791666,
            "velocity": 0.3937007874015748
          },
          {
            "duration": 0.10869549999999606,
            "durationTicks": 96,
            "midi": 66,
            "name": "F#4",
            "ticks": 89866,
            "time": 101.75031044791666,
            "velocity": 0.3937007874015748
          },
          {
            "duration": 0.43478199999999845,
            "durationTicks": 384,
            "midi": 58,
            "name": "A#3",
            "ticks": 89866,
            "time": 101.75031044791666,
            "velocity": 0.3937007874015748
          },
          {
            "duration": 0.43478199999999845,
            "durationTicks": 384,
            "midi": 54,
            "name": "F#3",
            "ticks": 89866,
            "time": 101.75031044791666,
            "velocity": 0.3937007874015748
          },
          {
            "duration": 0.21739100000000633,
            "durationTicks": 192,
            "midi": 61,
            "name": "C#4",
            "ticks": 89866,
            "time": 101.75031044791666,
            "velocity": 0.3937007874015748
          },
          {
            "duration": 0.10869549999999606,
            "durationTicks": 96,
            "midi": 39,
            "name": "D#2",
            "ticks": 89866,
            "time": 101.75031044791666,
            "velocity": 0.3937007874015748
          },
          {
            "duration": 0.21739100000000633,
            "durationTicks": 192,
            "midi": 34,
            "name": "A#1",
            "ticks": 89866,
            "time": 101.75031044791666,
            "velocity": 0.3937007874015748
          },
          {
            "duration": 0.21739100000000633,
            "durationTicks": 192,
            "midi": 77,
            "name": "F5",
            "ticks": 89866,
            "time": 101.75031044791666,
            "velocity": 0.3937007874015748
          },
          {
            "duration": 0.21739100000000633,
            "durationTicks": 192,
            "midi": 65,
            "name": "F4",
            "ticks": 89866,
            "time": 101.75031044791666,
            "velocity": 0.3937007874015748
          },
          {
            "duration": 0.10869549999999606,
            "durationTicks": 96,
            "midi": 27,
            "name": "D#1",
            "ticks": 89866,
            "time": 101.75031044791666,
            "velocity": 0.3937007874015748
          },
          {
            "duration": 0.21739100000000633,
            "durationTicks": 192,
            "midi": 73,
            "name": "C#5",
            "ticks": 89866,
            "time": 101.75031044791666,
            "velocity": 0.3937007874015748
          },
          {
            "duration": 0.10869550000001027,
            "durationTicks": 96,
            "midi": 51,
            "name": "D#3",
            "ticks": 89962,
            "time": 101.85900594791666,
            "velocity": 0.3937007874015748
          },
          {
            "duration": 0.10869550000001027,
            "durationTicks": 96,
            "midi": 39,
            "name": "D#2",
            "ticks": 89962,
            "time": 101.85900594791666,
            "velocity": 0.3937007874015748
          },
          {
            "duration": 0.10869550000001027,
            "durationTicks": 96,
            "midi": 70,
            "name": "A#4",
            "ticks": 89962,
            "time": 101.85900594791666,
            "velocity": 0.3937007874015748
          },
          {
            "duration": 0.21739099999999212,
            "durationTicks": 192,
            "midi": 68,
            "name": "G#4",
            "ticks": 90058,
            "time": 101.96770144791667,
            "velocity": 0.3937007874015748
          },
          {
            "duration": 0.10869549999999606,
            "durationTicks": 96,
            "midi": 37,
            "name": "C#2",
            "ticks": 90058,
            "time": 101.96770144791667,
            "velocity": 0.3937007874015748
          },
          {
            "duration": 0.10869549999999606,
            "durationTicks": 96,
            "midi": 75,
            "name": "D#5",
            "ticks": 90058,
            "time": 101.96770144791667,
            "velocity": 0.3937007874015748
          },
          {
            "duration": 0.21739099999999212,
            "durationTicks": 192,
            "midi": 56,
            "name": "G#3",
            "ticks": 90058,
            "time": 101.96770144791667,
            "velocity": 0.3937007874015748
          },
          {
            "duration": 0.21739099999999212,
            "durationTicks": 192,
            "midi": 61,
            "name": "C#4",
            "ticks": 90058,
            "time": 101.96770144791667,
            "velocity": 0.3937007874015748
          },
          {
            "duration": 0.21739099999999212,
            "durationTicks": 192,
            "midi": 73,
            "name": "C#5",
            "ticks": 90058,
            "time": 101.96770144791667,
            "velocity": 0.3937007874015748
          },
          {
            "duration": 0.10869549999999606,
            "durationTicks": 96,
            "midi": 49,
            "name": "C#3",
            "ticks": 90058,
            "time": 101.96770144791667,
            "velocity": 0.3937007874015748
          },
          {
            "duration": 0.10869549999999606,
            "durationTicks": 96,
            "midi": 51,
            "name": "D#3",
            "ticks": 90154,
            "time": 102.07639694791666,
            "velocity": 0.3937007874015748
          },
          {
            "duration": 0.10869549999999606,
            "durationTicks": 96,
            "midi": 78,
            "name": "F#5",
            "ticks": 90154,
            "time": 102.07639694791666,
            "velocity": 0.3937007874015748
          },
          {
            "duration": 0.10869549999999606,
            "durationTicks": 96,
            "midi": 39,
            "name": "D#2",
            "ticks": 90154,
            "time": 102.07639694791666,
            "velocity": 0.3937007874015748
          },
          {
            "duration": 0.21739100000000633,
            "durationTicks": 192,
            "midi": 63,
            "name": "D#4",
            "ticks": 90250,
            "time": 102.18509244791666,
            "velocity": 0.3937007874015748
          },
          {
            "duration": 0.21739100000000633,
            "durationTicks": 192,
            "midi": 75,
            "name": "D#5",
            "ticks": 90250,
            "time": 102.18509244791666,
            "velocity": 0.3937007874015748
          },
          {
            "duration": 0.21739100000000633,
            "durationTicks": 192,
            "midi": 58,
            "name": "A#3",
            "ticks": 90250,
            "time": 102.18509244791666,
            "velocity": 0.3937007874015748
          },
          {
            "duration": 0.3260865000000024,
            "durationTicks": 288,
            "midi": 58,
            "name": "A#3",
            "ticks": 90250,
            "time": 102.18509244791666,
            "velocity": 0.3937007874015748
          },
          {
            "duration": 0.43478199999999845,
            "durationTicks": 384,
            "midi": 63,
            "name": "D#4",
            "ticks": 90250,
            "time": 102.18509244791666,
            "velocity": 0.3937007874015748
          },
          {
            "duration": 0.21739100000000633,
            "durationTicks": 192,
            "midi": 34,
            "name": "A#1",
            "ticks": 90250,
            "time": 102.18509244791666,
            "velocity": 0.3937007874015748
          },
          {
            "duration": 0.10869550000001027,
            "durationTicks": 96,
            "midi": 39,
            "name": "D#2",
            "ticks": 90250,
            "time": 102.18509244791666,
            "velocity": 0.3937007874015748
          },
          {
            "duration": 0.21739100000000633,
            "durationTicks": 192,
            "midi": 54,
            "name": "F#3",
            "ticks": 90250,
            "time": 102.18509244791666,
            "velocity": 0.3937007874015748
          },
          {
            "duration": 0.21739100000000633,
            "durationTicks": 192,
            "midi": 70,
            "name": "A#4",
            "ticks": 90250,
            "time": 102.18509244791666,
            "velocity": 0.3937007874015748
          },
          {
            "duration": 0.10869550000001027,
            "durationTicks": 96,
            "midi": 51,
            "name": "D#3",
            "ticks": 90250,
            "time": 102.18509244791666,
            "velocity": 0.3937007874015748
          },
          {
            "duration": 0.10869550000001027,
            "durationTicks": 96,
            "midi": 27,
            "name": "D#1",
            "ticks": 90250,
            "time": 102.18509244791666,
            "velocity": 0.3937007874015748
          },
          {
            "duration": 0.3260864999999882,
            "durationTicks": 288,
            "midi": 54,
            "name": "F#3",
            "ticks": 90346,
            "time": 102.29378794791667,
            "velocity": 0.3937007874015748
          },
          {
            "duration": 0.21739099999999212,
            "durationTicks": 192,
            "midi": 58,
            "name": "A#3",
            "ticks": 90442,
            "time": 102.40248344791667,
            "velocity": 0.3937007874015748
          },
          {
            "duration": 0.10869549999999606,
            "durationTicks": 96,
            "midi": 51,
            "name": "D#3",
            "ticks": 90442,
            "time": 102.40248344791667,
            "velocity": 0.3937007874015748
          },
          {
            "duration": 0.10869549999999606,
            "durationTicks": 96,
            "midi": 39,
            "name": "D#2",
            "ticks": 90442,
            "time": 102.40248344791667,
            "velocity": 0.3937007874015748
          },
          {
            "duration": 0.10869549999999606,
            "durationTicks": 96,
            "midi": 51,
            "name": "D#3",
            "ticks": 90538,
            "time": 102.51117894791666,
            "velocity": 0.3937007874015748
          },
          {
            "duration": 0.10869549999999606,
            "durationTicks": 96,
            "midi": 39,
            "name": "D#2",
            "ticks": 90538,
            "time": 102.51117894791666,
            "velocity": 0.3937007874015748
          },
          {
            "duration": 0.10869549999999606,
            "durationTicks": 96,
            "midi": 63,
            "name": "D#4",
            "ticks": 90538,
            "time": 102.51117894791666,
            "velocity": 0.3937007874015748
          },
          {
            "duration": 0.21739100000000633,
            "durationTicks": 192,
            "midi": 68,
            "name": "G#4",
            "ticks": 90634,
            "time": 102.61987444791666,
            "velocity": 0.3937007874015748
          },
          {
            "duration": 0.43478199999999845,
            "durationTicks": 384,
            "midi": 63,
            "name": "D#4",
            "ticks": 90634,
            "time": 102.61987444791666,
            "velocity": 0.3937007874015748
          },
          {
            "duration": 0.43478199999999845,
            "durationTicks": 384,
            "midi": 58,
            "name": "A#3",
            "ticks": 90634,
            "time": 102.61987444791666,
            "velocity": 0.3937007874015748
          },
          {
            "duration": 0.10869550000001027,
            "durationTicks": 96,
            "midi": 39,
            "name": "D#2",
            "ticks": 90634,
            "time": 102.61987444791666,
            "velocity": 0.3937007874015748
          },
          {
            "duration": 0.10869550000001027,
            "durationTicks": 96,
            "midi": 27,
            "name": "D#1",
            "ticks": 90634,
            "time": 102.61987444791666,
            "velocity": 0.3937007874015748
          },
          {
            "duration": 0.21739100000000633,
            "durationTicks": 192,
            "midi": 56,
            "name": "G#3",
            "ticks": 90634,
            "time": 102.61987444791666,
            "velocity": 0.3937007874015748
          },
          {
            "duration": 0.21739100000000633,
            "durationTicks": 192,
            "midi": 61,
            "name": "C#4",
            "ticks": 90634,
            "time": 102.61987444791666,
            "velocity": 0.3937007874015748
          },
          {
            "duration": 0.21739100000000633,
            "durationTicks": 192,
            "midi": 73,
            "name": "C#5",
            "ticks": 90634,
            "time": 102.61987444791666,
            "velocity": 0.3937007874015748
          },
          {
            "duration": 0.21739100000000633,
            "durationTicks": 192,
            "midi": 34,
            "name": "A#1",
            "ticks": 90634,
            "time": 102.61987444791666,
            "velocity": 0.3937007874015748
          },
          {
            "duration": 0.43478199999999845,
            "durationTicks": 384,
            "midi": 54,
            "name": "F#3",
            "ticks": 90634,
            "time": 102.61987444791666,
            "velocity": 0.3937007874015748
          },
          {
            "duration": 0.10869550000001027,
            "durationTicks": 96,
            "midi": 66,
            "name": "F#4",
            "ticks": 90634,
            "time": 102.61987444791666,
            "velocity": 0.3937007874015748
          },
          {
            "duration": 0.10869549999999606,
            "durationTicks": 96,
            "midi": 39,
            "name": "D#2",
            "ticks": 90730,
            "time": 102.72856994791667,
            "velocity": 0.3937007874015748
          },
          {
            "duration": 0.10869549999999606,
            "durationTicks": 96,
            "midi": 70,
            "name": "A#4",
            "ticks": 90730,
            "time": 102.72856994791667,
            "velocity": 0.3937007874015748
          },
          {
            "duration": 0.10869549999999606,
            "durationTicks": 96,
            "midi": 51,
            "name": "D#3",
            "ticks": 90730,
            "time": 102.72856994791667,
            "velocity": 0.3937007874015748
          },
          {
            "duration": 0.10869549999999606,
            "durationTicks": 96,
            "midi": 49,
            "name": "C#3",
            "ticks": 90826,
            "time": 102.83726544791666,
            "velocity": 0.3937007874015748
          },
          {
            "duration": 0.10869549999999606,
            "durationTicks": 96,
            "midi": 37,
            "name": "C#2",
            "ticks": 90826,
            "time": 102.83726544791666,
            "velocity": 0.3937007874015748
          },
          {
            "duration": 0.21739099999999212,
            "durationTicks": 192,
            "midi": 70,
            "name": "A#4",
            "ticks": 90826,
            "time": 102.83726544791666,
            "velocity": 0.3937007874015748
          },
          {
            "duration": 0.21739099999999212,
            "durationTicks": 192,
            "midi": 58,
            "name": "A#3",
            "ticks": 90826,
            "time": 102.83726544791666,
            "velocity": 0.3937007874015748
          },
          {
            "duration": 0.10869549999999606,
            "durationTicks": 96,
            "midi": 75,
            "name": "D#5",
            "ticks": 90826,
            "time": 102.83726544791666,
            "velocity": 0.3937007874015748
          },
          {
            "duration": 0.21739099999999212,
            "durationTicks": 192,
            "midi": 75,
            "name": "D#5",
            "ticks": 90826,
            "time": 102.83726544791666,
            "velocity": 0.3937007874015748
          },
          {
            "duration": 0.21739099999999212,
            "durationTicks": 192,
            "midi": 63,
            "name": "D#4",
            "ticks": 90826,
            "time": 102.83726544791666,
            "velocity": 0.3937007874015748
          },
          {
            "duration": 0.10869549999999606,
            "durationTicks": 96,
            "midi": 51,
            "name": "D#3",
            "ticks": 90922,
            "time": 102.94596094791666,
            "velocity": 0.3937007874015748
          },
          {
            "duration": 0.10869549999999606,
            "durationTicks": 96,
            "midi": 78,
            "name": "F#5",
            "ticks": 90922,
            "time": 102.94596094791666,
            "velocity": 0.3937007874015748
          },
          {
            "duration": 0.10869549999999606,
            "durationTicks": 96,
            "midi": 39,
            "name": "D#2",
            "ticks": 90922,
            "time": 102.94596094791666,
            "velocity": 0.3937007874015748
          },
          {
            "duration": 0.10869550000001027,
            "durationTicks": 96,
            "midi": 51,
            "name": "D#3",
            "ticks": 91018,
            "time": 103.05465644791666,
            "velocity": 0.3937007874015748
          },
          {
            "duration": 0.21739100000000633,
            "durationTicks": 192,
            "midi": 61,
            "name": "C#4",
            "ticks": 91018,
            "time": 103.05465644791666,
            "velocity": 0.3937007874015748
          },
          {
            "duration": 0.10869550000001027,
            "durationTicks": 96,
            "midi": 39,
            "name": "D#2",
            "ticks": 91018,
            "time": 103.05465644791666,
            "velocity": 0.3937007874015748
          },
          {
            "duration": 0.10869550000001027,
            "durationTicks": 96,
            "midi": 27,
            "name": "D#1",
            "ticks": 91018,
            "time": 103.05465644791666,
            "velocity": 0.3937007874015748
          },
          {
            "duration": 0.21739100000000633,
            "durationTicks": 192,
            "midi": 34,
            "name": "A#1",
            "ticks": 91018,
            "time": 103.05465644791666,
            "velocity": 0.3937007874015748
          },
          {
            "duration": 0.21739100000000633,
            "durationTicks": 192,
            "midi": 73,
            "name": "C#5",
            "ticks": 91018,
            "time": 103.05465644791666,
            "velocity": 0.3937007874015748
          },
          {
            "duration": 0.3260865000000024,
            "durationTicks": 288,
            "midi": 58,
            "name": "A#3",
            "ticks": 91018,
            "time": 103.05465644791666,
            "velocity": 0.3937007874015748
          },
          {
            "duration": 0.21739100000000633,
            "durationTicks": 192,
            "midi": 54,
            "name": "F#3",
            "ticks": 91018,
            "time": 103.05465644791666,
            "velocity": 0.3937007874015748
          },
          {
            "duration": 0.21739100000000633,
            "durationTicks": 192,
            "midi": 65,
            "name": "F4",
            "ticks": 91018,
            "time": 103.05465644791666,
            "velocity": 0.3937007874015748
          },
          {
            "duration": 0.21739100000000633,
            "durationTicks": 192,
            "midi": 77,
            "name": "F5",
            "ticks": 91018,
            "time": 103.05465644791666,
            "velocity": 0.3937007874015748
          },
          {
            "duration": 0.43478200000001266,
            "durationTicks": 384,
            "midi": 63,
            "name": "D#4",
            "ticks": 91018,
            "time": 103.05465644791666,
            "velocity": 0.3937007874015748
          },
          {
            "duration": 0.3260865000000024,
            "durationTicks": 288,
            "midi": 54,
            "name": "F#3",
            "ticks": 91114,
            "time": 103.16335194791667,
            "velocity": 0.3937007874015748
          },
          {
            "duration": 0.10869549999999606,
            "durationTicks": 96,
            "midi": 39,
            "name": "D#2",
            "ticks": 91210,
            "time": 103.27204744791666,
            "velocity": 0.3937007874015748
          },
          {
            "duration": 0.10869549999999606,
            "durationTicks": 96,
            "midi": 51,
            "name": "D#3",
            "ticks": 91210,
            "time": 103.27204744791666,
            "velocity": 0.3937007874015748
          },
          {
            "duration": 0.21739100000000633,
            "durationTicks": 192,
            "midi": 78,
            "name": "F#5",
            "ticks": 91210,
            "time": 103.27204744791666,
            "velocity": 0.3937007874015748
          },
          {
            "duration": 0.21739100000000633,
            "durationTicks": 192,
            "midi": 63,
            "name": "D#4",
            "ticks": 91210,
            "time": 103.27204744791666,
            "velocity": 0.3937007874015748
          },
          {
            "duration": 0.21739100000000633,
            "durationTicks": 192,
            "midi": 75,
            "name": "D#5",
            "ticks": 91210,
            "time": 103.27204744791666,
            "velocity": 0.3937007874015748
          },
          {
            "duration": 0.21739100000000633,
            "durationTicks": 192,
            "midi": 66,
            "name": "F#4",
            "ticks": 91210,
            "time": 103.27204744791666,
            "velocity": 0.3937007874015748
          },
          {
            "duration": 0.21739100000000633,
            "durationTicks": 192,
            "midi": 58,
            "name": "A#3",
            "ticks": 91210,
            "time": 103.27204744791666,
            "velocity": 0.3937007874015748
          },
          {
            "duration": 0.10869550000001027,
            "durationTicks": 96,
            "midi": 51,
            "name": "D#3",
            "ticks": 91306,
            "time": 103.38074294791666,
            "velocity": 0.3937007874015748
          },
          {
            "duration": 0.10869550000001027,
            "durationTicks": 96,
            "midi": 39,
            "name": "D#2",
            "ticks": 91306,
            "time": 103.38074294791666,
            "velocity": 0.3937007874015748
          },
          {
            "duration": 0.10869550000001027,
            "durationTicks": 96,
            "midi": 63,
            "name": "D#4",
            "ticks": 91306,
            "time": 103.38074294791666,
            "velocity": 0.3937007874015748
          },
          {
            "duration": 0.43478199999999845,
            "durationTicks": 384,
            "midi": 63,
            "name": "D#4",
            "ticks": 91402,
            "time": 103.48943844791667,
            "velocity": 0.3937007874015748
          },
          {
            "duration": 0.43478199999999845,
            "durationTicks": 384,
            "midi": 54,
            "name": "F#3",
            "ticks": 91402,
            "time": 103.48943844791667,
            "velocity": 0.3937007874015748
          },
          {
            "duration": 0.21739099999999212,
            "durationTicks": 192,
            "midi": 65,
            "name": "F4",
            "ticks": 91402,
            "time": 103.48943844791667,
            "velocity": 0.3937007874015748
          },
          {
            "duration": 0.43478199999999845,
            "durationTicks": 384,
            "midi": 58,
            "name": "A#3",
            "ticks": 91402,
            "time": 103.48943844791667,
            "velocity": 0.3937007874015748
          },
          {
            "duration": 0.10869549999999606,
            "durationTicks": 96,
            "midi": 27,
            "name": "D#1",
            "ticks": 91402,
            "time": 103.48943844791667,
            "velocity": 0.3937007874015748
          },
          {
            "duration": 0.10869549999999606,
            "durationTicks": 96,
            "midi": 39,
            "name": "D#2",
            "ticks": 91402,
            "time": 103.48943844791667,
            "velocity": 0.3937007874015748
          },
          {
            "duration": 0.10869549999999606,
            "durationTicks": 96,
            "midi": 66,
            "name": "F#4",
            "ticks": 91402,
            "time": 103.48943844791667,
            "velocity": 0.3937007874015748
          },
          {
            "duration": 0.21739099999999212,
            "durationTicks": 192,
            "midi": 77,
            "name": "F5",
            "ticks": 91402,
            "time": 103.48943844791667,
            "velocity": 0.3937007874015748
          },
          {
            "duration": 0.21739099999999212,
            "durationTicks": 192,
            "midi": 80,
            "name": "G#5",
            "ticks": 91402,
            "time": 103.48943844791667,
            "velocity": 0.3937007874015748
          },
          {
            "duration": 0.21739099999999212,
            "durationTicks": 192,
            "midi": 68,
            "name": "G#4",
            "ticks": 91402,
            "time": 103.48943844791667,
            "velocity": 0.3937007874015748
          },
          {
            "duration": 0.21739099999999212,
            "durationTicks": 192,
            "midi": 34,
            "name": "A#1",
            "ticks": 91402,
            "time": 103.48943844791667,
            "velocity": 0.3937007874015748
          },
          {
            "duration": 0.10869549999999606,
            "durationTicks": 96,
            "midi": 70,
            "name": "A#4",
            "ticks": 91498,
            "time": 103.59813394791666,
            "velocity": 0.3937007874015748
          },
          {
            "duration": 0.10869549999999606,
            "durationTicks": 96,
            "midi": 51,
            "name": "D#3",
            "ticks": 91498,
            "time": 103.59813394791666,
            "velocity": 0.3937007874015748
          },
          {
            "duration": 0.10869549999999606,
            "durationTicks": 96,
            "midi": 39,
            "name": "D#2",
            "ticks": 91498,
            "time": 103.59813394791666,
            "velocity": 0.3937007874015748
          },
          {
            "duration": 0.10869549999999606,
            "durationTicks": 96,
            "midi": 75,
            "name": "D#5",
            "ticks": 91594,
            "time": 103.70682944791666,
            "velocity": 0.3937007874015748
          },
          {
            "duration": 0.21739100000000633,
            "durationTicks": 192,
            "midi": 78,
            "name": "F#5",
            "ticks": 91594,
            "time": 103.70682944791666,
            "velocity": 0.3937007874015748
          },
          {
            "duration": 0.21739100000000633,
            "durationTicks": 192,
            "midi": 66,
            "name": "F#4",
            "ticks": 91594,
            "time": 103.70682944791666,
            "velocity": 0.3937007874015748
          },
          {
            "duration": 0.21739100000000633,
            "durationTicks": 192,
            "midi": 82,
            "name": "A#5",
            "ticks": 91594,
            "time": 103.70682944791666,
            "velocity": 0.3937007874015748
          },
          {
            "duration": 0.10869549999999606,
            "durationTicks": 96,
            "midi": 37,
            "name": "C#2",
            "ticks": 91594,
            "time": 103.70682944791666,
            "velocity": 0.3937007874015748
          },
          {
            "duration": 0.10869549999999606,
            "durationTicks": 96,
            "midi": 49,
            "name": "C#3",
            "ticks": 91594,
            "time": 103.70682944791666,
            "velocity": 0.3937007874015748
          },
          {
            "duration": 0.21739100000000633,
            "durationTicks": 192,
            "midi": 70,
            "name": "A#4",
            "ticks": 91594,
            "time": 103.70682944791666,
            "velocity": 0.3937007874015748
          },
          {
            "duration": 0.10869550000001027,
            "durationTicks": 96,
            "midi": 51,
            "name": "D#3",
            "ticks": 91690,
            "time": 103.81552494791666,
            "velocity": 0.3937007874015748
          },
          {
            "duration": 0.10869550000001027,
            "durationTicks": 96,
            "midi": 78,
            "name": "F#5",
            "ticks": 91690,
            "time": 103.81552494791666,
            "velocity": 0.3937007874015748
          },
          {
            "duration": 0.10869550000001027,
            "durationTicks": 96,
            "midi": 39,
            "name": "D#2",
            "ticks": 91690,
            "time": 103.81552494791666,
            "velocity": 0.3937007874015748
          },
          {
            "duration": 0.10869549999999606,
            "durationTicks": 96,
            "midi": 61,
            "name": "C#4",
            "ticks": 91786,
            "time": 103.92422044791667,
            "velocity": 0.3937007874015748
          },
          {
            "duration": 0.10869549999999606,
            "durationTicks": 96,
            "midi": 51,
            "name": "D#3",
            "ticks": 91786,
            "time": 103.92422044791667,
            "velocity": 0.3937007874015748
          },
          {
            "duration": 0.10869549999999606,
            "durationTicks": 96,
            "midi": 39,
            "name": "D#2",
            "ticks": 91786,
            "time": 103.92422044791667,
            "velocity": 0.3937007874015748
          },
          {
            "duration": 0.21739099999999212,
            "durationTicks": 192,
            "midi": 75,
            "name": "D#5",
            "ticks": 91786,
            "time": 103.92422044791667,
            "velocity": 0.3937007874015748
          },
          {
            "duration": 0.21739099999999212,
            "durationTicks": 192,
            "midi": 63,
            "name": "D#4",
            "ticks": 91786,
            "time": 103.92422044791667,
            "velocity": 0.3937007874015748
          },
          {
            "duration": 0.4359142447916753,
            "durationTicks": 385,
            "midi": 54,
            "name": "F#3",
            "ticks": 91786,
            "time": 103.92422044791667,
            "velocity": 0.3937007874015748
          },
          {
            "duration": 0.10869549999999606,
            "durationTicks": 96,
            "midi": 34,
            "name": "A#1",
            "ticks": 91786,
            "time": 103.92422044791667,
            "velocity": 0.3937007874015748
          },
          {
            "duration": 0.21739099999999212,
            "durationTicks": 192,
            "midi": 58,
            "name": "A#3",
            "ticks": 91786,
            "time": 103.92422044791667,
            "velocity": 0.3937007874015748
          },
          {
            "duration": 0.21739099999999212,
            "durationTicks": 192,
            "midi": 70,
            "name": "A#4",
            "ticks": 91786,
            "time": 103.92422044791667,
            "velocity": 0.3937007874015748
          },
          {
            "duration": 0.4359142447916753,
            "durationTicks": 385,
            "midi": 58,
            "name": "A#3",
            "ticks": 91786,
            "time": 103.92422044791667,
            "velocity": 0.3937007874015748
          },
          {
            "duration": 0.4359142447916753,
            "durationTicks": 385,
            "midi": 61,
            "name": "C#4",
            "ticks": 91786,
            "time": 103.92422044791667,
            "velocity": 0.3937007874015748
          },
          {
            "duration": 0.10869549999999606,
            "durationTicks": 96,
            "midi": 66,
            "name": "F#4",
            "ticks": 91882,
            "time": 104.03291594791666,
            "velocity": 0.3937007874015748
          },
          {
            "duration": 0.10869550000001027,
            "durationTicks": 96,
            "midi": 34,
            "name": "A#1",
            "ticks": 91914,
            "time": 104.06914778125,
            "velocity": 0.3937007874015748
          },
          {
            "duration": 0.1098277447916729,
            "durationTicks": 97,
            "midi": 34,
            "name": "A#1",
            "ticks": 91978,
            "time": 104.14161144791666,
            "velocity": 0.3937007874015748
          },
          {
            "duration": 0.1098277447916729,
            "durationTicks": 97,
            "midi": 46,
            "name": "A#2",
            "ticks": 91978,
            "time": 104.14161144791666,
            "velocity": 0.3937007874015748
          },
          {
            "duration": 0.1098277447916729,
            "durationTicks": 97,
            "midi": 70,
            "name": "A#4",
            "ticks": 91978,
            "time": 104.14161144791666,
            "velocity": 0.3937007874015748
          },
          {
            "duration": 0.10869549999999606,
            "durationTicks": 96,
            "midi": 34,
            "name": "A#1",
            "ticks": 92043,
            "time": 104.215207359375,
            "velocity": 0.3937007874015748
          },
          {
            "duration": 0.10869550000001027,
            "durationTicks": 96,
            "midi": 37,
            "name": "C#2",
            "ticks": 92075,
            "time": 104.25143919270833,
            "velocity": 0.3937007874015748
          },
          {
            "duration": 0.10869550000001027,
            "durationTicks": 96,
            "midi": 73,
            "name": "C#5",
            "ticks": 92075,
            "time": 104.25143919270833,
            "velocity": 0.3937007874015748
          },
          {
            "duration": 0.10869550000001027,
            "durationTicks": 96,
            "midi": 49,
            "name": "C#3",
            "ticks": 92075,
            "time": 104.25143919270833,
            "velocity": 0.3937007874015748
          },
          {
            "duration": 0.21739099999999212,
            "durationTicks": 192,
            "midi": 66,
            "name": "F#4",
            "ticks": 92171,
            "time": 104.36013469270834,
            "velocity": 0.3937007874015748
          },
          {
            "duration": 0.10869549999999606,
            "durationTicks": 96,
            "midi": 60,
            "name": "C4",
            "ticks": 92171,
            "time": 104.36013469270834,
            "velocity": 0.3937007874015748
          },
          {
            "duration": 0.21739099999999212,
            "durationTicks": 192,
            "midi": 82,
            "name": "A#5",
            "ticks": 92171,
            "time": 104.36013469270834,
            "velocity": 0.3937007874015748
          },
          {
            "duration": 0.4359142447916611,
            "durationTicks": 385,
            "midi": 60,
            "name": "C4",
            "ticks": 92171,
            "time": 104.36013469270834,
            "velocity": 0.3937007874015748
          },
          {
            "duration": 0.10869549999999606,
            "durationTicks": 96,
            "midi": 34,
            "name": "A#1",
            "ticks": 92171,
            "time": 104.36013469270834,
            "velocity": 0.3937007874015748
          },
          {
            "duration": 0.21739099999999212,
            "durationTicks": 192,
            "midi": 78,
            "name": "F#5",
            "ticks": 92171,
            "time": 104.36013469270834,
            "velocity": 0.3937007874015748
          },
          {
            "duration": 0.10869549999999606,
            "durationTicks": 96,
            "midi": 44,
            "name": "G#2",
            "ticks": 92171,
            "time": 104.36013469270834,
            "velocity": 0.3937007874015748
          },
          {
            "duration": 0.4359142447916611,
            "durationTicks": 385,
            "midi": 56,
            "name": "G#3",
            "ticks": 92171,
            "time": 104.36013469270834,
            "velocity": 0.3937007874015748
          },
          {
            "duration": 0.4359142447916611,
            "durationTicks": 385,
            "midi": 51,
            "name": "D#3",
            "ticks": 92171,
            "time": 104.36013469270834,
            "velocity": 0.3937007874015748
          },
          {
            "duration": 0.10869549999999606,
            "durationTicks": 96,
            "midi": 32,
            "name": "G#1",
            "ticks": 92171,
            "time": 104.36013469270834,
            "velocity": 0.3937007874015748
          },
          {
            "duration": 0.21739099999999212,
            "durationTicks": 192,
            "midi": 70,
            "name": "A#4",
            "ticks": 92171,
            "time": 104.36013469270834,
            "velocity": 0.3937007874015748
          },
          {
            "duration": 0.10869549999999606,
            "durationTicks": 96,
            "midi": 63,
            "name": "D#4",
            "ticks": 92267,
            "time": 104.46883019270834,
            "velocity": 0.3937007874015748
          },
          {
            "duration": 0.10869550000001027,
            "durationTicks": 96,
            "midi": 34,
            "name": "A#1",
            "ticks": 92299,
            "time": 104.50506202604166,
            "velocity": 0.3937007874015748
          },
          {
            "duration": 0.10982774479165869,
            "durationTicks": 97,
            "midi": 68,
            "name": "G#4",
            "ticks": 92363,
            "time": 104.57752569270833,
            "velocity": 0.3937007874015748
          },
          {
            "duration": 0.10982774479165869,
            "durationTicks": 97,
            "midi": 42,
            "name": "F#2",
            "ticks": 92363,
            "time": 104.57752569270833,
            "velocity": 0.3937007874015748
          },
          {
            "duration": 0.21852324479166896,
            "durationTicks": 193,
            "midi": 80,
            "name": "G#5",
            "ticks": 92363,
            "time": 104.57752569270833,
            "velocity": 0.3937007874015748
          },
          {
            "duration": 0.21852324479166896,
            "durationTicks": 193,
            "midi": 85,
            "name": "C#6",
            "ticks": 92363,
            "time": 104.57752569270833,
            "velocity": 0.3937007874015748
          },
          {
            "duration": 0.21852324479166896,
            "durationTicks": 193,
            "midi": 68,
            "name": "G#4",
            "ticks": 92363,
            "time": 104.57752569270833,
            "velocity": 0.3937007874015748
          },
          {
            "duration": 0.21852324479166896,
            "durationTicks": 193,
            "midi": 73,
            "name": "C#5",
            "ticks": 92363,
            "time": 104.57752569270833,
            "velocity": 0.3937007874015748
          },
          {
            "duration": 0.10982774479165869,
            "durationTicks": 97,
            "midi": 30,
            "name": "F#1",
            "ticks": 92363,
            "time": 104.57752569270833,
            "velocity": 0.3937007874015748
          },
          {
            "duration": 0.10869549999999606,
            "durationTicks": 96,
            "midi": 34,
            "name": "A#1",
            "ticks": 92428,
            "time": 104.65112160416666,
            "velocity": 0.3937007874015748
          },
          {
            "duration": 0.10869550000001027,
            "durationTicks": 96,
            "midi": 32,
            "name": "G#1",
            "ticks": 92460,
            "time": 104.6873534375,
            "velocity": 0.3937007874015748
          },
          {
            "duration": 0.10869550000001027,
            "durationTicks": 96,
            "midi": 72,
            "name": "C5",
            "ticks": 92460,
            "time": 104.6873534375,
            "velocity": 0.3937007874015748
          },
          {
            "duration": 0.10869550000001027,
            "durationTicks": 96,
            "midi": 44,
            "name": "G#2",
            "ticks": 92460,
            "time": 104.6873534375,
            "velocity": 0.3937007874015748
          },
          {
            "duration": 0.4891297500000036,
            "durationTicks": 432,
            "midi": 87,
            "name": "D#6",
            "ticks": 92508,
            "time": 104.7417011875,
            "velocity": 0.3937007874015748
          },
          {
            "duration": 0.10869549999999606,
            "durationTicks": 96,
            "midi": 35,
            "name": "B1",
            "ticks": 92556,
            "time": 104.7960489375,
            "velocity": 0.3937007874015748
          },
          {
            "duration": 0.10869549999999606,
            "durationTicks": 96,
            "midi": 35,
            "name": "B1",
            "ticks": 92556,
            "time": 104.7960489375,
            "velocity": 0.3937007874015748
          },
          {
            "duration": 0.21739099999999212,
            "durationTicks": 192,
            "midi": 85,
            "name": "C#6",
            "ticks": 92556,
            "time": 104.7960489375,
            "velocity": 0.3937007874015748
          },
          {
            "duration": 0.3260865000000024,
            "durationTicks": 288,
            "midi": 54,
            "name": "F#3",
            "ticks": 92556,
            "time": 104.7960489375,
            "velocity": 0.3937007874015748
          },
          {
            "duration": 0.21739099999999212,
            "durationTicks": 192,
            "midi": 73,
            "name": "C#5",
            "ticks": 92556,
            "time": 104.7960489375,
            "velocity": 0.3937007874015748
          },
          {
            "duration": 0.43478199999999845,
            "durationTicks": 384,
            "midi": 59,
            "name": "B3",
            "ticks": 92556,
            "time": 104.7960489375,
            "velocity": 0.3937007874015748
          },
          {
            "duration": 0.21739099999999212,
            "durationTicks": 192,
            "midi": 34,
            "name": "A#1",
            "ticks": 92556,
            "time": 104.7960489375,
            "velocity": 0.3937007874015748
          },
          {
            "duration": 0.21739099999999212,
            "durationTicks": 192,
            "midi": 51,
            "name": "D#3",
            "ticks": 92556,
            "time": 104.7960489375,
            "velocity": 0.3937007874015748
          },
          {
            "duration": 0.10869549999999606,
            "durationTicks": 96,
            "midi": 47,
            "name": "B2",
            "ticks": 92556,
            "time": 104.7960489375,
            "velocity": 0.3937007874015748
          },
          {
            "duration": 0.21739099999999212,
            "durationTicks": 192,
            "midi": 68,
            "name": "G#4",
            "ticks": 92556,
            "time": 104.7960489375,
            "velocity": 0.3937007874015748
          },
          {
            "duration": 0.21739099999999212,
            "durationTicks": 192,
            "midi": 80,
            "name": "G#5",
            "ticks": 92556,
            "time": 104.7960489375,
            "velocity": 0.3937007874015748
          },
          {
            "duration": 0.3260865000000024,
            "durationTicks": 288,
            "midi": 51,
            "name": "D#3",
            "ticks": 92652,
            "time": 104.9047444375,
            "velocity": 0.3937007874015748
          },
          {
            "duration": 0.21739100000000633,
            "durationTicks": 192,
            "midi": 75,
            "name": "D#5",
            "ticks": 92748,
            "time": 105.0134399375,
            "velocity": 0.3937007874015748
          },
          {
            "duration": 0.10869550000001027,
            "durationTicks": 96,
            "midi": 35,
            "name": "B1",
            "ticks": 92748,
            "time": 105.0134399375,
            "velocity": 0.3937007874015748
          },
          {
            "duration": 0.10869550000001027,
            "durationTicks": 96,
            "midi": 47,
            "name": "B2",
            "ticks": 92748,
            "time": 105.0134399375,
            "velocity": 0.3937007874015748
          },
          {
            "duration": 0.3804342500000075,
            "durationTicks": 336,
            "midi": 87,
            "name": "D#6",
            "ticks": 92748,
            "time": 105.0134399375,
            "velocity": 0.3937007874015748
          },
          {
            "duration": 0.21739100000000633,
            "durationTicks": 192,
            "midi": 82,
            "name": "A#5",
            "ticks": 92748,
            "time": 105.0134399375,
            "velocity": 0.3937007874015748
          },
          {
            "duration": 0.21739100000000633,
            "durationTicks": 192,
            "midi": 70,
            "name": "A#4",
            "ticks": 92748,
            "time": 105.0134399375,
            "velocity": 0.3937007874015748
          },
          {
            "duration": 0.21739100000000633,
            "durationTicks": 192,
            "midi": 54,
            "name": "F#3",
            "ticks": 92748,
            "time": 105.0134399375,
            "velocity": 0.3937007874015748
          },
          {
            "duration": 0.10869549999999606,
            "durationTicks": 96,
            "midi": 59,
            "name": "B3",
            "ticks": 92844,
            "time": 105.1221354375,
            "velocity": 0.3937007874015748
          },
          {
            "duration": 0.10869549999999606,
            "durationTicks": 96,
            "midi": 47,
            "name": "B2",
            "ticks": 92844,
            "time": 105.1221354375,
            "velocity": 0.3937007874015748
          },
          {
            "duration": 0.10869549999999606,
            "durationTicks": 96,
            "midi": 35,
            "name": "B1",
            "ticks": 92844,
            "time": 105.1221354375,
            "velocity": 0.3937007874015748
          },
          {
            "duration": 0.10869549999999606,
            "durationTicks": 96,
            "midi": 63,
            "name": "D#4",
            "ticks": 92940,
            "time": 105.2308309375,
            "velocity": 0.3937007874015748
          },
          {
            "duration": 0.21739099999999212,
            "durationTicks": 192,
            "midi": 34,
            "name": "A#1",
            "ticks": 92940,
            "time": 105.2308309375,
            "velocity": 0.3937007874015748
          },
          {
            "duration": 0.10869549999999606,
            "durationTicks": 96,
            "midi": 35,
            "name": "B1",
            "ticks": 92940,
            "time": 105.2308309375,
            "velocity": 0.3937007874015748
          },
          {
            "duration": 0.43478199999999845,
            "durationTicks": 384,
            "midi": 51,
            "name": "D#3",
            "ticks": 92940,
            "time": 105.2308309375,
            "velocity": 0.3937007874015748
          },
          {
            "duration": 0.21739099999999212,
            "durationTicks": 192,
            "midi": 66,
            "name": "F#4",
            "ticks": 92940,
            "time": 105.2308309375,
            "velocity": 0.3937007874015748
          },
          {
            "duration": 0.10869549999999606,
            "durationTicks": 96,
            "midi": 35,
            "name": "B1",
            "ticks": 92940,
            "time": 105.2308309375,
            "velocity": 0.3937007874015748
          },
          {
            "duration": 0.21739099999999212,
            "durationTicks": 192,
            "midi": 78,
            "name": "F#5",
            "ticks": 92940,
            "time": 105.2308309375,
            "velocity": 0.3937007874015748
          },
          {
            "duration": 0.21739099999999212,
            "durationTicks": 192,
            "midi": 82,
            "name": "A#5",
            "ticks": 92940,
            "time": 105.2308309375,
            "velocity": 0.3937007874015748
          },
          {
            "duration": 0.21739099999999212,
            "durationTicks": 192,
            "midi": 70,
            "name": "A#4",
            "ticks": 92940,
            "time": 105.2308309375,
            "velocity": 0.3937007874015748
          },
          {
            "duration": 0.43478199999999845,
            "durationTicks": 384,
            "midi": 54,
            "name": "F#3",
            "ticks": 92940,
            "time": 105.2308309375,
            "velocity": 0.3937007874015748
          },
          {
            "duration": 0.43478199999999845,
            "durationTicks": 384,
            "midi": 59,
            "name": "B3",
            "ticks": 92940,
            "time": 105.2308309375,
            "velocity": 0.3937007874015748
          },
          {
            "duration": 0.10869549999999606,
            "durationTicks": 96,
            "midi": 35,
            "name": "B1",
            "ticks": 93036,
            "time": 105.3395264375,
            "velocity": 0.3937007874015748
          },
          {
            "duration": 0.10869549999999606,
            "durationTicks": 96,
            "midi": 47,
            "name": "B2",
            "ticks": 93036,
            "time": 105.3395264375,
            "velocity": 0.3937007874015748
          },
          {
            "duration": 0.10869549999999606,
            "durationTicks": 96,
            "midi": 66,
            "name": "F#4",
            "ticks": 93036,
            "time": 105.3395264375,
            "velocity": 0.3937007874015748
          },
          {
            "duration": 0.10869550000001027,
            "durationTicks": 96,
            "midi": 46,
            "name": "A#2",
            "ticks": 93132,
            "time": 105.4482219375,
            "velocity": 0.3937007874015748
          },
          {
            "duration": 0.10869550000001027,
            "durationTicks": 96,
            "midi": 71,
            "name": "B4",
            "ticks": 93132,
            "time": 105.4482219375,
            "velocity": 0.3937007874015748
          },
          {
            "duration": 0.21739100000000633,
            "durationTicks": 192,
            "midi": 68,
            "name": "G#4",
            "ticks": 93132,
            "time": 105.4482219375,
            "velocity": 0.3937007874015748
          },
          {
            "duration": 0.10869550000001027,
            "durationTicks": 96,
            "midi": 34,
            "name": "A#1",
            "ticks": 93132,
            "time": 105.4482219375,
            "velocity": 0.3937007874015748
          },
          {
            "duration": 0.21739100000000633,
            "durationTicks": 192,
            "midi": 65,
            "name": "F4",
            "ticks": 93132,
            "time": 105.4482219375,
            "velocity": 0.3937007874015748
          },
          {
            "duration": 0.21739100000000633,
            "durationTicks": 192,
            "midi": 80,
            "name": "G#5",
            "ticks": 93132,
            "time": 105.4482219375,
            "velocity": 0.3937007874015748
          },
          {
            "duration": 0.21739100000000633,
            "durationTicks": 192,
            "midi": 77,
            "name": "F5",
            "ticks": 93132,
            "time": 105.4482219375,
            "velocity": 0.3937007874015748
          },
          {
            "duration": 0.10869549999999606,
            "durationTicks": 96,
            "midi": 35,
            "name": "B1",
            "ticks": 93228,
            "time": 105.5569174375,
            "velocity": 0.3937007874015748
          },
          {
            "duration": 0.10869549999999606,
            "durationTicks": 96,
            "midi": 47,
            "name": "B2",
            "ticks": 93228,
            "time": 105.5569174375,
            "velocity": 0.3937007874015748
          },
          {
            "duration": 0.10869549999999606,
            "durationTicks": 96,
            "midi": 75,
            "name": "D#5",
            "ticks": 93228,
            "time": 105.5569174375,
            "velocity": 0.3937007874015748
          },
          {
            "duration": 0.10869549999999606,
            "durationTicks": 96,
            "midi": 35,
            "name": "B1",
            "ticks": 93324,
            "time": 105.6656129375,
            "velocity": 0.3937007874015748
          },
          {
            "duration": 0.10869549999999606,
            "durationTicks": 96,
            "midi": 35,
            "name": "B1",
            "ticks": 93324,
            "time": 105.6656129375,
            "velocity": 0.3937007874015748
          },
          {
            "duration": 0.21739100000000633,
            "durationTicks": 192,
            "midi": 82,
            "name": "A#5",
            "ticks": 93324,
            "time": 105.6656129375,
            "velocity": 0.3937007874015748
          },
          {
            "duration": 0.21739100000000633,
            "durationTicks": 192,
            "midi": 70,
            "name": "A#4",
            "ticks": 93324,
            "time": 105.6656129375,
            "velocity": 0.3937007874015748
          },
          {
            "duration": 0.43478199999999845,
            "durationTicks": 384,
            "midi": 59,
            "name": "B3",
            "ticks": 93324,
            "time": 105.6656129375,
            "velocity": 0.3937007874015748
          },
          {
            "duration": 0.21739100000000633,
            "durationTicks": 192,
            "midi": 34,
            "name": "A#1",
            "ticks": 93324,
            "time": 105.6656129375,
            "velocity": 0.3937007874015748
          },
          {
            "duration": 0.21739100000000633,
            "durationTicks": 192,
            "midi": 66,
            "name": "F#4",
            "ticks": 93324,
            "time": 105.6656129375,
            "velocity": 0.3937007874015748
          },
          {
            "duration": 0.21739100000000633,
            "durationTicks": 192,
            "midi": 78,
            "name": "F#5",
            "ticks": 93324,
            "time": 105.6656129375,
            "velocity": 0.3937007874015748
          },
          {
            "duration": 0.10869549999999606,
            "durationTicks": 96,
            "midi": 47,
            "name": "B2",
            "ticks": 93324,
            "time": 105.6656129375,
            "velocity": 0.3937007874015748
          },
          {
            "duration": 0.21739100000000633,
            "durationTicks": 192,
            "midi": 51,
            "name": "D#3",
            "ticks": 93324,
            "time": 105.6656129375,
            "velocity": 0.3937007874015748
          },
          {
            "duration": 0.3260865000000024,
            "durationTicks": 288,
            "midi": 54,
            "name": "F#3",
            "ticks": 93324,
            "time": 105.6656129375,
            "velocity": 0.3937007874015748
          },
          {
            "duration": 0.3260865000000024,
            "durationTicks": 288,
            "midi": 51,
            "name": "D#3",
            "ticks": 93420,
            "time": 105.7743084375,
            "velocity": 0.3937007874015748
          },
          {
            "duration": 0.10869549999999606,
            "durationTicks": 96,
            "midi": 35,
            "name": "B1",
            "ticks": 93516,
            "time": 105.8830039375,
            "velocity": 0.3937007874015748
          },
          {
            "duration": 0.21739099999999212,
            "durationTicks": 192,
            "midi": 54,
            "name": "F#3",
            "ticks": 93516,
            "time": 105.8830039375,
            "velocity": 0.3937007874015748
          },
          {
            "duration": 0.10869549999999606,
            "durationTicks": 96,
            "midi": 47,
            "name": "B2",
            "ticks": 93516,
            "time": 105.8830039375,
            "velocity": 0.3937007874015748
          },
          {
            "duration": 0.10869549999999606,
            "durationTicks": 96,
            "midi": 59,
            "name": "B3",
            "ticks": 93612,
            "time": 105.9916994375,
            "velocity": 0.3937007874015748
          },
          {
            "duration": 0.10869549999999606,
            "durationTicks": 96,
            "midi": 35,
            "name": "B1",
            "ticks": 93612,
            "time": 105.9916994375,
            "velocity": 0.3937007874015748
          },
          {
            "duration": 0.10869549999999606,
            "durationTicks": 96,
            "midi": 47,
            "name": "B2",
            "ticks": 93612,
            "time": 105.9916994375,
            "velocity": 0.3937007874015748
          },
          {
            "duration": 0.21739100000000633,
            "durationTicks": 192,
            "midi": 34,
            "name": "A#1",
            "ticks": 93708,
            "time": 106.1003949375,
            "velocity": 0.3937007874015748
          },
          {
            "duration": 0.21739100000000633,
            "durationTicks": 192,
            "midi": 65,
            "name": "F4",
            "ticks": 93708,
            "time": 106.1003949375,
            "velocity": 0.3937007874015748
          },
          {
            "duration": 0.21739100000000633,
            "durationTicks": 192,
            "midi": 68,
            "name": "G#4",
            "ticks": 93708,
            "time": 106.1003949375,
            "velocity": 0.3937007874015748
          },
          {
            "duration": 0.21739100000000633,
            "durationTicks": 192,
            "midi": 80,
            "name": "G#5",
            "ticks": 93708,
            "time": 106.1003949375,
            "velocity": 0.3937007874015748
          },
          {
            "duration": 0.10869549999999606,
            "durationTicks": 96,
            "midi": 35,
            "name": "B1",
            "ticks": 93708,
            "time": 106.1003949375,
            "velocity": 0.3937007874015748
          },
          {
            "duration": 0.43478199999999845,
            "durationTicks": 384,
            "midi": 59,
            "name": "B3",
            "ticks": 93708,
            "time": 106.1003949375,
            "velocity": 0.3937007874015748
          },
          {
            "duration": 0.10869549999999606,
            "durationTicks": 96,
            "midi": 35,
            "name": "B1",
            "ticks": 93708,
            "time": 106.1003949375,
            "velocity": 0.3937007874015748
          },
          {
            "duration": 0.43478199999999845,
            "durationTicks": 384,
            "midi": 51,
            "name": "D#3",
            "ticks": 93708,
            "time": 106.1003949375,
            "velocity": 0.3937007874015748
          },
          {
            "duration": 0.21739100000000633,
            "durationTicks": 192,
            "midi": 77,
            "name": "F5",
            "ticks": 93708,
            "time": 106.1003949375,
            "velocity": 0.3937007874015748
          },
          {
            "duration": 0.43478199999999845,
            "durationTicks": 384,
            "midi": 54,
            "name": "F#3",
            "ticks": 93708,
            "time": 106.1003949375,
            "velocity": 0.3937007874015748
          },
          {
            "duration": 0.10869549999999606,
            "durationTicks": 96,
            "midi": 63,
            "name": "D#4",
            "ticks": 93708,
            "time": 106.1003949375,
            "velocity": 0.3937007874015748
          },
          {
            "duration": 0.10869550000001027,
            "durationTicks": 96,
            "midi": 35,
            "name": "B1",
            "ticks": 93804,
            "time": 106.2090904375,
            "velocity": 0.3937007874015748
          },
          {
            "duration": 0.10869550000001027,
            "durationTicks": 96,
            "midi": 66,
            "name": "F#4",
            "ticks": 93804,
            "time": 106.2090904375,
            "velocity": 0.3937007874015748
          },
          {
            "duration": 0.10869550000001027,
            "durationTicks": 96,
            "midi": 47,
            "name": "B2",
            "ticks": 93804,
            "time": 106.2090904375,
            "velocity": 0.3937007874015748
          },
          {
            "duration": 0.10869549999999606,
            "durationTicks": 96,
            "midi": 46,
            "name": "A#2",
            "ticks": 93900,
            "time": 106.3177859375,
            "velocity": 0.3937007874015748
          },
          {
            "duration": 0.10869549999999606,
            "durationTicks": 96,
            "midi": 71,
            "name": "B4",
            "ticks": 93900,
            "time": 106.3177859375,
            "velocity": 0.3937007874015748
          },
          {
            "duration": 0.21739099999999212,
            "durationTicks": 192,
            "midi": 82,
            "name": "A#5",
            "ticks": 93900,
            "time": 106.3177859375,
            "velocity": 0.3937007874015748
          },
          {
            "duration": 0.10869549999999606,
            "durationTicks": 96,
            "midi": 34,
            "name": "A#1",
            "ticks": 93900,
            "time": 106.3177859375,
            "velocity": 0.3937007874015748
          },
          {
            "duration": 0.21739099999999212,
            "durationTicks": 192,
            "midi": 70,
            "name": "A#4",
            "ticks": 93900,
            "time": 106.3177859375,
            "velocity": 0.3937007874015748
          },
          {
            "duration": 0.21739099999999212,
            "durationTicks": 192,
            "midi": 66,
            "name": "F#4",
            "ticks": 93900,
            "time": 106.3177859375,
            "velocity": 0.3937007874015748
          },
          {
            "duration": 0.21739099999999212,
            "durationTicks": 192,
            "midi": 78,
            "name": "F#5",
            "ticks": 93900,
            "time": 106.3177859375,
            "velocity": 0.3937007874015748
          },
          {
            "duration": 0.10869549999999606,
            "durationTicks": 96,
            "midi": 75,
            "name": "D#5",
            "ticks": 93996,
            "time": 106.4264814375,
            "velocity": 0.3937007874015748
          },
          {
            "duration": 0.10869549999999606,
            "durationTicks": 96,
            "midi": 47,
            "name": "B2",
            "ticks": 93996,
            "time": 106.4264814375,
            "velocity": 0.3937007874015748
          },
          {
            "duration": 0.10869549999999606,
            "durationTicks": 96,
            "midi": 35,
            "name": "B1",
            "ticks": 93996,
            "time": 106.4264814375,
            "velocity": 0.3937007874015748
          },
          {
            "duration": 0.21739100000000633,
            "durationTicks": 192,
            "midi": 80,
            "name": "G#5",
            "ticks": 94092,
            "time": 106.5351769375,
            "velocity": 0.3937007874015748
          },
          {
            "duration": 0.21739100000000633,
            "durationTicks": 192,
            "midi": 68,
            "name": "G#4",
            "ticks": 94092,
            "time": 106.5351769375,
            "velocity": 0.3937007874015748
          },
          {
            "duration": 0.3260865000000024,
            "durationTicks": 288,
            "midi": 56,
            "name": "G#3",
            "ticks": 94092,
            "time": 106.5351769375,
            "velocity": 0.3937007874015748
          },
          {
            "duration": 0.21739100000000633,
            "durationTicks": 192,
            "midi": 73,
            "name": "C#5",
            "ticks": 94092,
            "time": 106.5351769375,
            "velocity": 0.3937007874015748
          },
          {
            "duration": 0.10869549999999606,
            "durationTicks": 96,
            "midi": 25,
            "name": "C#1",
            "ticks": 94092,
            "time": 106.5351769375,
            "velocity": 0.3937007874015748
          },
          {
            "duration": 0.21739100000000633,
            "durationTicks": 192,
            "midi": 85,
            "name": "C#6",
            "ticks": 94092,
            "time": 106.5351769375,
            "velocity": 0.3937007874015748
          },
          {
            "duration": 0.10869549999999606,
            "durationTicks": 96,
            "midi": 49,
            "name": "C#3",
            "ticks": 94092,
            "time": 106.5351769375,
            "velocity": 0.3937007874015748
          },
          {
            "duration": 0.21739100000000633,
            "durationTicks": 192,
            "midi": 34,
            "name": "A#1",
            "ticks": 94092,
            "time": 106.5351769375,
            "velocity": 0.3937007874015748
          },
          {
            "duration": 0.43478199999999845,
            "durationTicks": 384,
            "midi": 61,
            "name": "C#4",
            "ticks": 94092,
            "time": 106.5351769375,
            "velocity": 0.3937007874015748
          },
          {
            "duration": 0.10869549999999606,
            "durationTicks": 96,
            "midi": 37,
            "name": "C#2",
            "ticks": 94092,
            "time": 106.5351769375,
            "velocity": 0.3937007874015748
          },
          {
            "duration": 0.21739100000000633,
            "durationTicks": 192,
            "midi": 53,
            "name": "F3",
            "ticks": 94092,
            "time": 106.5351769375,
            "velocity": 0.3937007874015748
          },
          {
            "duration": 0.3260865000000024,
            "durationTicks": 288,
            "midi": 53,
            "name": "F3",
            "ticks": 94188,
            "time": 106.6438724375,
            "velocity": 0.3937007874015748
          },
          {
            "duration": 0.21739099999999212,
            "durationTicks": 192,
            "midi": 87,
            "name": "D#6",
            "ticks": 94284,
            "time": 106.7525679375,
            "velocity": 0.3937007874015748
          },
          {
            "duration": 0.21739099999999212,
            "durationTicks": 192,
            "midi": 75,
            "name": "D#5",
            "ticks": 94284,
            "time": 106.7525679375,
            "velocity": 0.3937007874015748
          },
          {
            "duration": 0.10869549999999606,
            "durationTicks": 96,
            "midi": 37,
            "name": "C#2",
            "ticks": 94284,
            "time": 106.7525679375,
            "velocity": 0.3937007874015748
          },
          {
            "duration": 0.21739099999999212,
            "durationTicks": 192,
            "midi": 56,
            "name": "G#3",
            "ticks": 94284,
            "time": 106.7525679375,
            "velocity": 0.3937007874015748
          },
          {
            "duration": 0.21739099999999212,
            "durationTicks": 192,
            "midi": 70,
            "name": "A#4",
            "ticks": 94284,
            "time": 106.7525679375,
            "velocity": 0.3937007874015748
          },
          {
            "duration": 0.10869549999999606,
            "durationTicks": 96,
            "midi": 49,
            "name": "C#3",
            "ticks": 94284,
            "time": 106.7525679375,
            "velocity": 0.3937007874015748
          },
          {
            "duration": 0.21739099999999212,
            "durationTicks": 192,
            "midi": 82,
            "name": "A#5",
            "ticks": 94284,
            "time": 106.7525679375,
            "velocity": 0.3937007874015748
          },
          {
            "duration": 0.10869549999999606,
            "durationTicks": 96,
            "midi": 61,
            "name": "C#4",
            "ticks": 94380,
            "time": 106.8612634375,
            "velocity": 0.3937007874015748
          },
          {
            "duration": 0.10869549999999606,
            "durationTicks": 96,
            "midi": 49,
            "name": "C#3",
            "ticks": 94380,
            "time": 106.8612634375,
            "velocity": 0.3937007874015748
          },
          {
            "duration": 0.10869549999999606,
            "durationTicks": 96,
            "midi": 37,
            "name": "C#2",
            "ticks": 94380,
            "time": 106.8612634375,
            "velocity": 0.3937007874015748
          },
          {
            "duration": 0.10869550000001027,
            "durationTicks": 96,
            "midi": 37,
            "name": "C#2",
            "ticks": 94476,
            "time": 106.9699589375,
            "velocity": 0.3937007874015748
          },
          {
            "duration": 0.10869550000001027,
            "durationTicks": 96,
            "midi": 65,
            "name": "F4",
            "ticks": 94476,
            "time": 106.9699589375,
            "velocity": 0.3937007874015748
          },
          {
            "duration": 0.10869550000001027,
            "durationTicks": 96,
            "midi": 25,
            "name": "C#1",
            "ticks": 94476,
            "time": 106.9699589375,
            "velocity": 0.3937007874015748
          },
          {
            "duration": 0.43478199999999845,
            "durationTicks": 384,
            "midi": 56,
            "name": "G#3",
            "ticks": 94476,
            "time": 106.9699589375,
            "velocity": 0.3937007874015748
          },
          {
            "duration": 0.21739100000000633,
            "durationTicks": 192,
            "midi": 78,
            "name": "F#5",
            "ticks": 94476,
            "time": 106.9699589375,
            "velocity": 0.3937007874015748
          },
          {
            "duration": 0.21739100000000633,
            "durationTicks": 192,
            "midi": 66,
            "name": "F#4",
            "ticks": 94476,
            "time": 106.9699589375,
            "velocity": 0.3937007874015748
          },
          {
            "duration": 0.21739100000000633,
            "durationTicks": 192,
            "midi": 34,
            "name": "A#1",
            "ticks": 94476,
            "time": 106.9699589375,
            "velocity": 0.3937007874015748
          },
          {
            "duration": 0.21739100000000633,
            "durationTicks": 192,
            "midi": 82,
            "name": "A#5",
            "ticks": 94476,
            "time": 106.9699589375,
            "velocity": 0.3937007874015748
          },
          {
            "duration": 0.43478199999999845,
            "durationTicks": 384,
            "midi": 61,
            "name": "C#4",
            "ticks": 94476,
            "time": 106.9699589375,
            "velocity": 0.3937007874015748
          },
          {
            "duration": 0.21739100000000633,
            "durationTicks": 192,
            "midi": 70,
            "name": "A#4",
            "ticks": 94476,
            "time": 106.9699589375,
            "velocity": 0.3937007874015748
          },
          {
            "duration": 0.43478199999999845,
            "durationTicks": 384,
            "midi": 53,
            "name": "F3",
            "ticks": 94476,
            "time": 106.9699589375,
            "velocity": 0.3937007874015748
          },
          {
            "duration": 0.10869549999999606,
            "durationTicks": 96,
            "midi": 49,
            "name": "C#3",
            "ticks": 94572,
            "time": 107.0786544375,
            "velocity": 0.3937007874015748
          },
          {
            "duration": 0.10869549999999606,
            "durationTicks": 96,
            "midi": 68,
            "name": "G#4",
            "ticks": 94572,
            "time": 107.0786544375,
            "velocity": 0.3937007874015748
          },
          {
            "duration": 0.10869549999999606,
            "durationTicks": 96,
            "midi": 37,
            "name": "C#2",
            "ticks": 94572,
            "time": 107.0786544375,
            "velocity": 0.3937007874015748
          },
          {
            "duration": 0.21739099999999212,
            "durationTicks": 192,
            "midi": 65,
            "name": "F4",
            "ticks": 94668,
            "time": 107.1873499375,
            "velocity": 0.3937007874015748
          },
          {
            "duration": 0.21739099999999212,
            "durationTicks": 192,
            "midi": 77,
            "name": "F5",
            "ticks": 94668,
            "time": 107.1873499375,
            "velocity": 0.3937007874015748
          },
          {
            "duration": 0.21739099999999212,
            "durationTicks": 192,
            "midi": 68,
            "name": "G#4",
            "ticks": 94668,
            "time": 107.1873499375,
            "velocity": 0.3937007874015748
          },
          {
            "duration": 0.10869549999999606,
            "durationTicks": 96,
            "midi": 47,
            "name": "B2",
            "ticks": 94668,
            "time": 107.1873499375,
            "velocity": 0.3937007874015748
          },
          {
            "duration": 0.10869549999999606,
            "durationTicks": 96,
            "midi": 35,
            "name": "B1",
            "ticks": 94668,
            "time": 107.1873499375,
            "velocity": 0.3937007874015748
          },
          {
            "duration": 0.10869549999999606,
            "durationTicks": 96,
            "midi": 73,
            "name": "C#5",
            "ticks": 94668,
            "time": 107.1873499375,
            "velocity": 0.3937007874015748
          },
          {
            "duration": 0.21739099999999212,
            "durationTicks": 192,
            "midi": 80,
            "name": "G#5",
            "ticks": 94668,
            "time": 107.1873499375,
            "velocity": 0.3937007874015748
          },
          {
            "duration": 0.10869549999999606,
            "durationTicks": 96,
            "midi": 49,
            "name": "C#3",
            "ticks": 94764,
            "time": 107.2960454375,
            "velocity": 0.3937007874015748
          },
          {
            "duration": 0.10869549999999606,
            "durationTicks": 96,
            "midi": 77,
            "name": "F5",
            "ticks": 94764,
            "time": 107.2960454375,
            "velocity": 0.3937007874015748
          },
          {
            "duration": 0.10869549999999606,
            "durationTicks": 96,
            "midi": 37,
            "name": "C#2",
            "ticks": 94764,
            "time": 107.2960454375,
            "velocity": 0.3937007874015748
          },
          {
            "duration": 0.21739100000000633,
            "durationTicks": 192,
            "midi": 66,
            "name": "F#4",
            "ticks": 94860,
            "time": 107.4047409375,
            "velocity": 0.3937007874015748
          },
          {
            "duration": 0.10869550000001027,
            "durationTicks": 96,
            "midi": 49,
            "name": "C#3",
            "ticks": 94860,
            "time": 107.4047409375,
            "velocity": 0.3937007874015748
          },
          {
            "duration": 0.10869550000001027,
            "durationTicks": 96,
            "midi": 37,
            "name": "C#2",
            "ticks": 94860,
            "time": 107.4047409375,
            "velocity": 0.3937007874015748
          },
          {
            "duration": 0.21739100000000633,
            "durationTicks": 192,
            "midi": 34,
            "name": "A#1",
            "ticks": 94860,
            "time": 107.4047409375,
            "velocity": 0.3937007874015748
          },
          {
            "duration": 0.3260865000000024,
            "durationTicks": 288,
            "midi": 56,
            "name": "G#3",
            "ticks": 94860,
            "time": 107.4047409375,
            "velocity": 0.3937007874015748
          },
          {
            "duration": 0.21739100000000633,
            "durationTicks": 192,
            "midi": 78,
            "name": "F#5",
            "ticks": 94860,
            "time": 107.4047409375,
            "velocity": 0.3937007874015748
          },
          {
            "duration": 0.21739100000000633,
            "durationTicks": 192,
            "midi": 53,
            "name": "F3",
            "ticks": 94860,
            "time": 107.4047409375,
            "velocity": 0.3937007874015748
          },
          {
            "duration": 0.21739100000000633,
            "durationTicks": 192,
            "midi": 70,
            "name": "A#4",
            "ticks": 94860,
            "time": 107.4047409375,
            "velocity": 0.3937007874015748
          },
          {
            "duration": 0.10869550000001027,
            "durationTicks": 96,
            "midi": 25,
            "name": "C#1",
            "ticks": 94860,
            "time": 107.4047409375,
            "velocity": 0.3937007874015748
          },
          {
            "duration": 0.21739100000000633,
            "durationTicks": 192,
            "midi": 82,
            "name": "A#5",
            "ticks": 94860,
            "time": 107.4047409375,
            "velocity": 0.3937007874015748
          },
          {
            "duration": 0.43478200000001266,
            "durationTicks": 384,
            "midi": 61,
            "name": "C#4",
            "ticks": 94860,
            "time": 107.4047409375,
            "velocity": 0.3937007874015748
          },
          {
            "duration": 0.3260865000000024,
            "durationTicks": 288,
            "midi": 53,
            "name": "F3",
            "ticks": 94956,
            "time": 107.5134364375,
            "velocity": 0.3937007874015748
          },
          {
            "duration": 0.10869549999999606,
            "durationTicks": 96,
            "midi": 49,
            "name": "C#3",
            "ticks": 95052,
            "time": 107.6221319375,
            "velocity": 0.3937007874015748
          },
          {
            "duration": 0.10869549999999606,
            "durationTicks": 96,
            "midi": 37,
            "name": "C#2",
            "ticks": 95052,
            "time": 107.6221319375,
            "velocity": 0.3937007874015748
          },
          {
            "duration": 0.21739100000000633,
            "durationTicks": 192,
            "midi": 56,
            "name": "G#3",
            "ticks": 95052,
            "time": 107.6221319375,
            "velocity": 0.3937007874015748
          },
          {
            "duration": 0.10869550000001027,
            "durationTicks": 96,
            "midi": 49,
            "name": "C#3",
            "ticks": 95148,
            "time": 107.7308274375,
            "velocity": 0.3937007874015748
          },
          {
            "duration": 0.10869550000001027,
            "durationTicks": 96,
            "midi": 37,
            "name": "C#2",
            "ticks": 95148,
            "time": 107.7308274375,
            "velocity": 0.3937007874015748
          },
          {
            "duration": 0.10869550000001027,
            "durationTicks": 96,
            "midi": 61,
            "name": "C#4",
            "ticks": 95148,
            "time": 107.7308274375,
            "velocity": 0.3937007874015748
          },
          {
            "duration": 0.21739099999999212,
            "durationTicks": 192,
            "midi": 34,
            "name": "A#1",
            "ticks": 95244,
            "time": 107.8395229375,
            "velocity": 0.3937007874015748
          },
          {
            "duration": 0.10869549999999606,
            "durationTicks": 96,
            "midi": 65,
            "name": "F4",
            "ticks": 95244,
            "time": 107.8395229375,
            "velocity": 0.3937007874015748
          },
          {
            "duration": 0.43478199999999845,
            "durationTicks": 384,
            "midi": 56,
            "name": "G#3",
            "ticks": 95244,
            "time": 107.8395229375,
            "velocity": 0.3937007874015748
          },
          {
            "duration": 0.43478199999999845,
            "durationTicks": 384,
            "midi": 53,
            "name": "F3",
            "ticks": 95244,
            "time": 107.8395229375,
            "velocity": 0.3937007874015748
          },
          {
            "duration": 0.10869549999999606,
            "durationTicks": 96,
            "midi": 25,
            "name": "C#1",
            "ticks": 95244,
            "time": 107.8395229375,
            "velocity": 0.3937007874015748
          },
          {
            "duration": 0.43478199999999845,
            "durationTicks": 384,
            "midi": 61,
            "name": "C#4",
            "ticks": 95244,
            "time": 107.8395229375,
            "velocity": 0.3937007874015748
          },
          {
            "duration": 0.21739099999999212,
            "durationTicks": 192,
            "midi": 80,
            "name": "G#5",
            "ticks": 95244,
            "time": 107.8395229375,
            "velocity": 0.3937007874015748
          },
          {
            "duration": 0.10869549999999606,
            "durationTicks": 96,
            "midi": 37,
            "name": "C#2",
            "ticks": 95244,
            "time": 107.8395229375,
            "velocity": 0.3937007874015748
          },
          {
            "duration": 0.21739099999999212,
            "durationTicks": 192,
            "midi": 77,
            "name": "F5",
            "ticks": 95244,
            "time": 107.8395229375,
            "velocity": 0.3937007874015748
          },
          {
            "duration": 0.21739099999999212,
            "durationTicks": 192,
            "midi": 68,
            "name": "G#4",
            "ticks": 95244,
            "time": 107.8395229375,
            "velocity": 0.3937007874015748
          },
          {
            "duration": 0.21739099999999212,
            "durationTicks": 192,
            "midi": 65,
            "name": "F4",
            "ticks": 95244,
            "time": 107.8395229375,
            "velocity": 0.3937007874015748
          },
          {
            "duration": 0.10869549999999606,
            "durationTicks": 96,
            "midi": 37,
            "name": "C#2",
            "ticks": 95340,
            "time": 107.9482184375,
            "velocity": 0.3937007874015748
          },
          {
            "duration": 0.10869549999999606,
            "durationTicks": 96,
            "midi": 68,
            "name": "G#4",
            "ticks": 95340,
            "time": 107.9482184375,
            "velocity": 0.3937007874015748
          },
          {
            "duration": 0.10869549999999606,
            "durationTicks": 96,
            "midi": 49,
            "name": "C#3",
            "ticks": 95340,
            "time": 107.9482184375,
            "velocity": 0.3937007874015748
          },
          {
            "duration": 0.10869549999999606,
            "durationTicks": 96,
            "midi": 73,
            "name": "C#5",
            "ticks": 95436,
            "time": 108.0569139375,
            "velocity": 0.3937007874015748
          },
          {
            "duration": 0.21739100000000633,
            "durationTicks": 192,
            "midi": 82,
            "name": "A#5",
            "ticks": 95436,
            "time": 108.0569139375,
            "velocity": 0.3937007874015748
          },
          {
            "duration": 0.10869549999999606,
            "durationTicks": 96,
            "midi": 47,
            "name": "B2",
            "ticks": 95436,
            "time": 108.0569139375,
            "velocity": 0.3937007874015748
          },
          {
            "duration": 0.21739100000000633,
            "durationTicks": 192,
            "midi": 66,
            "name": "F#4",
            "ticks": 95436,
            "time": 108.0569139375,
            "velocity": 0.3937007874015748
          },
          {
            "duration": 0.21739100000000633,
            "durationTicks": 192,
            "midi": 34,
            "name": "A#1",
            "ticks": 95436,
            "time": 108.0569139375,
            "velocity": 0.3937007874015748
          },
          {
            "duration": 0.10869549999999606,
            "durationTicks": 96,
            "midi": 35,
            "name": "B1",
            "ticks": 95436,
            "time": 108.0569139375,
            "velocity": 0.3937007874015748
          },
          {
            "duration": 0.21739100000000633,
            "durationTicks": 192,
            "midi": 78,
            "name": "F#5",
            "ticks": 95436,
            "time": 108.0569139375,
            "velocity": 0.3937007874015748
          },
          {
            "duration": 0.21739100000000633,
            "durationTicks": 192,
            "midi": 70,
            "name": "A#4",
            "ticks": 95436,
            "time": 108.0569139375,
            "velocity": 0.3937007874015748
          },
          {
            "duration": 0.10869550000001027,
            "durationTicks": 96,
            "midi": 37,
            "name": "C#2",
            "ticks": 95532,
            "time": 108.1656094375,
            "velocity": 0.3937007874015748
          },
          {
            "duration": 0.10869550000001027,
            "durationTicks": 96,
            "midi": 77,
            "name": "F5",
            "ticks": 95532,
            "time": 108.1656094375,
            "velocity": 0.3937007874015748
          },
          {
            "duration": 0.10869550000001027,
            "durationTicks": 96,
            "midi": 49,
            "name": "C#3",
            "ticks": 95532,
            "time": 108.1656094375,
            "velocity": 0.3937007874015748
          },
          {
            "duration": 0.10869549999999606,
            "durationTicks": 96,
            "midi": 27,
            "name": "D#1",
            "ticks": 95628,
            "time": 108.2743049375,
            "velocity": 0.3937007874015748
          },
          {
            "duration": 0.10869549999999606,
            "durationTicks": 96,
            "midi": 39,
            "name": "D#2",
            "ticks": 95628,
            "time": 108.2743049375,
            "velocity": 0.3937007874015748
          },
          {
            "duration": 0.21739099999999212,
            "durationTicks": 192,
            "midi": 34,
            "name": "A#1",
            "ticks": 95628,
            "time": 108.2743049375,
            "velocity": 0.3937007874015748
          },
          {
            "duration": 0.10869549999999606,
            "durationTicks": 96,
            "midi": 51,
            "name": "D#3",
            "ticks": 95628,
            "time": 108.2743049375,
            "velocity": 0.3937007874015748
          },
          {
            "duration": 0.43478199999999845,
            "durationTicks": 384,
            "midi": 63,
            "name": "D#4",
            "ticks": 95628,
            "time": 108.2743049375,
            "velocity": 0.3937007874015748
          },
          {
            "duration": 0.3260864999999882,
            "durationTicks": 288,
            "midi": 58,
            "name": "A#3",
            "ticks": 95628,
            "time": 108.2743049375,
            "velocity": 0.3937007874015748
          },
          {
            "duration": 0.21739099999999212,
            "durationTicks": 192,
            "midi": 65,
            "name": "F4",
            "ticks": 95628,
            "time": 108.2743049375,
            "velocity": 0.3937007874015748
          },
          {
            "duration": 0.21739099999999212,
            "durationTicks": 192,
            "midi": 77,
            "name": "F5",
            "ticks": 95628,
            "time": 108.2743049375,
            "velocity": 0.3937007874015748
          },
          {
            "duration": 0.21739099999999212,
            "durationTicks": 192,
            "midi": 54,
            "name": "F#3",
            "ticks": 95628,
            "time": 108.2743049375,
            "velocity": 0.3937007874015748
          },
          {
            "duration": 0.21739099999999212,
            "durationTicks": 192,
            "midi": 80,
            "name": "G#5",
            "ticks": 95628,
            "time": 108.2743049375,
            "velocity": 0.3937007874015748
          },
          {
            "duration": 0.21739099999999212,
            "durationTicks": 192,
            "midi": 68,
            "name": "G#4",
            "ticks": 95628,
            "time": 108.2743049375,
            "velocity": 0.3937007874015748
          },
          {
            "duration": 0.3260865000000024,
            "durationTicks": 288,
            "midi": 54,
            "name": "F#3",
            "ticks": 95724,
            "time": 108.3830004375,
            "velocity": 0.3937007874015748
          },
          {
            "duration": 0.21739100000000633,
            "durationTicks": 192,
            "midi": 58,
            "name": "A#3",
            "ticks": 95820,
            "time": 108.4916959375,
            "velocity": 0.3937007874015748
          },
          {
            "duration": 0.21739100000000633,
            "durationTicks": 192,
            "midi": 78,
            "name": "F#5",
            "ticks": 95820,
            "time": 108.4916959375,
            "velocity": 0.3937007874015748
          },
          {
            "duration": 0.21739100000000633,
            "durationTicks": 192,
            "midi": 66,
            "name": "F#4",
            "ticks": 95820,
            "time": 108.4916959375,
            "velocity": 0.3937007874015748
          },
          {
            "duration": 0.21739100000000633,
            "durationTicks": 192,
            "midi": 63,
            "name": "D#4",
            "ticks": 95820,
            "time": 108.4916959375,
            "velocity": 0.3937007874015748
          },
          {
            "duration": 0.21739100000000633,
            "durationTicks": 192,
            "midi": 75,
            "name": "D#5",
            "ticks": 95820,
            "time": 108.4916959375,
            "velocity": 0.3937007874015748
          },
          {
            "duration": 0.10869549999999606,
            "durationTicks": 96,
            "midi": 51,
            "name": "D#3",
            "ticks": 95820,
            "time": 108.4916959375,
            "velocity": 0.3937007874015748
          },
          {
            "duration": 0.10869549999999606,
            "durationTicks": 96,
            "midi": 39,
            "name": "D#2",
            "ticks": 95820,
            "time": 108.4916959375,
            "velocity": 0.3937007874015748
          },
          {
            "duration": 0.10869550000001027,
            "durationTicks": 96,
            "midi": 51,
            "name": "D#3",
            "ticks": 95916,
            "time": 108.6003914375,
            "velocity": 0.3937007874015748
          },
          {
            "duration": 0.10869550000001027,
            "durationTicks": 96,
            "midi": 63,
            "name": "D#4",
            "ticks": 95916,
            "time": 108.6003914375,
            "velocity": 0.3937007874015748
          },
          {
            "duration": 0.10869550000001027,
            "durationTicks": 96,
            "midi": 39,
            "name": "D#2",
            "ticks": 95916,
            "time": 108.6003914375,
            "velocity": 0.3937007874015748
          },
          {
            "duration": 0.21739099999999212,
            "durationTicks": 192,
            "midi": 65,
            "name": "F4",
            "ticks": 96012,
            "time": 108.7090869375,
            "velocity": 0.3937007874015748
          },
          {
            "duration": 0.10869549999999606,
            "durationTicks": 96,
            "midi": 39,
            "name": "D#2",
            "ticks": 96012,
            "time": 108.7090869375,
            "velocity": 0.3937007874015748
          },
          {
            "duration": 0.21739099999999212,
            "durationTicks": 192,
            "midi": 34,
            "name": "A#1",
            "ticks": 96012,
            "time": 108.7090869375,
            "velocity": 0.3937007874015748
          },
          {
            "duration": 0.10869549999999606,
            "durationTicks": 96,
            "midi": 27,
            "name": "D#1",
            "ticks": 96012,
            "time": 108.7090869375,
            "velocity": 0.3937007874015748
          },
          {
            "duration": 0.43478199999999845,
            "durationTicks": 384,
            "midi": 58,
            "name": "A#3",
            "ticks": 96012,
            "time": 108.7090869375,
            "velocity": 0.3937007874015748
          },
          {
            "duration": 0.21739099999999212,
            "durationTicks": 192,
            "midi": 61,
            "name": "C#4",
            "ticks": 96012,
            "time": 108.7090869375,
            "velocity": 0.3937007874015748
          },
          {
            "duration": 0.43478199999999845,
            "durationTicks": 384,
            "midi": 63,
            "name": "D#4",
            "ticks": 96012,
            "time": 108.7090869375,
            "velocity": 0.3937007874015748
          },
          {
            "duration": 0.21739099999999212,
            "durationTicks": 192,
            "midi": 77,
            "name": "F5",
            "ticks": 96012,
            "time": 108.7090869375,
            "velocity": 0.3937007874015748
          },
          {
            "duration": 0.21739099999999212,
            "durationTicks": 192,
            "midi": 73,
            "name": "C#5",
            "ticks": 96012,
            "time": 108.7090869375,
            "velocity": 0.3937007874015748
          },
          {
            "duration": 0.10869549999999606,
            "durationTicks": 96,
            "midi": 66,
            "name": "F#4",
            "ticks": 96012,
            "time": 108.7090869375,
            "velocity": 0.3937007874015748
          },
          {
            "duration": 0.43478199999999845,
            "durationTicks": 384,
            "midi": 54,
            "name": "F#3",
            "ticks": 96012,
            "time": 108.7090869375,
            "velocity": 0.3937007874015748
          },
          {
            "duration": 0.10869549999999606,
            "durationTicks": 96,
            "midi": 39,
            "name": "D#2",
            "ticks": 96108,
            "time": 108.8177824375,
            "velocity": 0.3937007874015748
          },
          {
            "duration": 0.10869549999999606,
            "durationTicks": 96,
            "midi": 51,
            "name": "D#3",
            "ticks": 96108,
            "time": 108.8177824375,
            "velocity": 0.3937007874015748
          },
          {
            "duration": 0.10869549999999606,
            "durationTicks": 96,
            "midi": 70,
            "name": "A#4",
            "ticks": 96108,
            "time": 108.8177824375,
            "velocity": 0.3937007874015748
          },
          {
            "duration": 0.21739100000000633,
            "durationTicks": 192,
            "midi": 68,
            "name": "G#4",
            "ticks": 96204,
            "time": 108.9264779375,
            "velocity": 0.3937007874015748
          },
          {
            "duration": 0.21739100000000633,
            "durationTicks": 192,
            "midi": 56,
            "name": "G#3",
            "ticks": 96204,
            "time": 108.9264779375,
            "velocity": 0.3937007874015748
          },
          {
            "duration": 0.10869550000001027,
            "durationTicks": 96,
            "midi": 49,
            "name": "C#3",
            "ticks": 96204,
            "time": 108.9264779375,
            "velocity": 0.3937007874015748
          },
          {
            "duration": 0.21739100000000633,
            "durationTicks": 192,
            "midi": 73,
            "name": "C#5",
            "ticks": 96204,
            "time": 108.9264779375,
            "velocity": 0.3937007874015748
          },
          {
            "duration": 0.10869550000001027,
            "durationTicks": 96,
            "midi": 37,
            "name": "C#2",
            "ticks": 96204,
            "time": 108.9264779375,
            "velocity": 0.3937007874015748
          },
          {
            "duration": 0.21739100000000633,
            "durationTicks": 192,
            "midi": 61,
            "name": "C#4",
            "ticks": 96204,
            "time": 108.9264779375,
            "velocity": 0.3937007874015748
          },
          {
            "duration": 0.10869550000001027,
            "durationTicks": 96,
            "midi": 75,
            "name": "D#5",
            "ticks": 96204,
            "time": 108.9264779375,
            "velocity": 0.3937007874015748
          },
          {
            "duration": 0.10869549999999606,
            "durationTicks": 96,
            "midi": 78,
            "name": "F#5",
            "ticks": 96300,
            "time": 109.0351734375,
            "velocity": 0.3937007874015748
          },
          {
            "duration": 0.10869549999999606,
            "durationTicks": 96,
            "midi": 39,
            "name": "D#2",
            "ticks": 96300,
            "time": 109.0351734375,
            "velocity": 0.3937007874015748
          },
          {
            "duration": 0.10869549999999606,
            "durationTicks": 96,
            "midi": 51,
            "name": "D#3",
            "ticks": 96300,
            "time": 109.0351734375,
            "velocity": 0.3937007874015748
          },
          {
            "duration": 0.21739099999999212,
            "durationTicks": 192,
            "midi": 58,
            "name": "A#3",
            "ticks": 96396,
            "time": 109.1438689375,
            "velocity": 0.3937007874015748
          },
          {
            "duration": 0.10869549999999606,
            "durationTicks": 96,
            "midi": 27,
            "name": "D#1",
            "ticks": 96396,
            "time": 109.1438689375,
            "velocity": 0.3937007874015748
          },
          {
            "duration": 0.21739099999999212,
            "durationTicks": 192,
            "midi": 63,
            "name": "D#4",
            "ticks": 96396,
            "time": 109.1438689375,
            "velocity": 0.3937007874015748
          },
          {
            "duration": 0.21739099999999212,
            "durationTicks": 192,
            "midi": 34,
            "name": "A#1",
            "ticks": 96396,
            "time": 109.1438689375,
            "velocity": 0.3937007874015748
          },
          {
            "duration": 0.10869549999999606,
            "durationTicks": 96,
            "midi": 51,
            "name": "D#3",
            "ticks": 96396,
            "time": 109.1438689375,
            "velocity": 0.3937007874015748
          },
          {
            "duration": 0.21739099999999212,
            "durationTicks": 192,
            "midi": 54,
            "name": "F#3",
            "ticks": 96396,
            "time": 109.1438689375,
            "velocity": 0.3937007874015748
          },
          {
            "duration": 0.43478199999999845,
            "durationTicks": 384,
            "midi": 63,
            "name": "D#4",
            "ticks": 96396,
            "time": 109.1438689375,
            "velocity": 0.3937007874015748
          },
          {
            "duration": 0.21739099999999212,
            "durationTicks": 192,
            "midi": 75,
            "name": "D#5",
            "ticks": 96396,
            "time": 109.1438689375,
            "velocity": 0.3937007874015748
          },
          {
            "duration": 0.3260865000000024,
            "durationTicks": 288,
            "midi": 58,
            "name": "A#3",
            "ticks": 96396,
            "time": 109.1438689375,
            "velocity": 0.3937007874015748
          },
          {
            "duration": 0.21739099999999212,
            "durationTicks": 192,
            "midi": 70,
            "name": "A#4",
            "ticks": 96396,
            "time": 109.1438689375,
            "velocity": 0.3937007874015748
          },
          {
            "duration": 0.10869549999999606,
            "durationTicks": 96,
            "midi": 39,
            "name": "D#2",
            "ticks": 96396,
            "time": 109.1438689375,
            "velocity": 0.3937007874015748
          },
          {
            "duration": 0.3260865000000024,
            "durationTicks": 288,
            "midi": 54,
            "name": "F#3",
            "ticks": 96492,
            "time": 109.2525644375,
            "velocity": 0.3937007874015748
          },
          {
            "duration": 0.10869550000001027,
            "durationTicks": 96,
            "midi": 39,
            "name": "D#2",
            "ticks": 96588,
            "time": 109.3612599375,
            "velocity": 0.3937007874015748
          },
          {
            "duration": 0.21739100000000633,
            "durationTicks": 192,
            "midi": 58,
            "name": "A#3",
            "ticks": 96588,
            "time": 109.3612599375,
            "velocity": 0.3937007874015748
          },
          {
            "duration": 0.10869550000001027,
            "durationTicks": 96,
            "midi": 51,
            "name": "D#3",
            "ticks": 96588,
            "time": 109.3612599375,
            "velocity": 0.3937007874015748
          },
          {
            "duration": 0.10869549999999606,
            "durationTicks": 96,
            "midi": 39,
            "name": "D#2",
            "ticks": 96684,
            "time": 109.4699554375,
            "velocity": 0.3937007874015748
          },
          {
            "duration": 0.10869549999999606,
            "durationTicks": 96,
            "midi": 63,
            "name": "D#4",
            "ticks": 96684,
            "time": 109.4699554375,
            "velocity": 0.3937007874015748
          },
          {
            "duration": 0.10869549999999606,
            "durationTicks": 96,
            "midi": 51,
            "name": "D#3",
            "ticks": 96684,
            "time": 109.4699554375,
            "velocity": 0.3937007874015748
          },
          {
            "duration": 0.21739100000000633,
            "durationTicks": 192,
            "midi": 61,
            "name": "C#4",
            "ticks": 96780,
            "time": 109.5786509375,
            "velocity": 0.3937007874015748
          },
          {
            "duration": 0.21739100000000633,
            "durationTicks": 192,
            "midi": 56,
            "name": "G#3",
            "ticks": 96780,
            "time": 109.5786509375,
            "velocity": 0.3937007874015748
          },
          {
            "duration": 0.10869549999999606,
            "durationTicks": 96,
            "midi": 66,
            "name": "F#4",
            "ticks": 96780,
            "time": 109.5786509375,
            "velocity": 0.3937007874015748
          },
          {
            "duration": 0.10869549999999606,
            "durationTicks": 96,
            "midi": 39,
            "name": "D#2",
            "ticks": 96780,
            "time": 109.5786509375,
            "velocity": 0.3937007874015748
          },
          {
            "duration": 0.43478199999999845,
            "durationTicks": 384,
            "midi": 58,
            "name": "A#3",
            "ticks": 96780,
            "time": 109.5786509375,
            "velocity": 0.3937007874015748
          },
          {
            "duration": 0.21739100000000633,
            "durationTicks": 192,
            "midi": 68,
            "name": "G#4",
            "ticks": 96780,
            "time": 109.5786509375,
            "velocity": 0.3937007874015748
          },
          {
            "duration": 0.43478199999999845,
            "durationTicks": 384,
            "midi": 63,
            "name": "D#4",
            "ticks": 96780,
            "time": 109.5786509375,
            "velocity": 0.3937007874015748
          },
          {
            "duration": 0.43478199999999845,
            "durationTicks": 384,
            "midi": 54,
            "name": "F#3",
            "ticks": 96780,
            "time": 109.5786509375,
            "velocity": 0.3937007874015748
          },
          {
            "duration": 0.21739100000000633,
            "durationTicks": 192,
            "midi": 34,
            "name": "A#1",
            "ticks": 96780,
            "time": 109.5786509375,
            "velocity": 0.3937007874015748
          },
          {
            "duration": 0.21739100000000633,
            "durationTicks": 192,
            "midi": 73,
            "name": "C#5",
            "ticks": 96780,
            "time": 109.5786509375,
            "velocity": 0.3937007874015748
          },
          {
            "duration": 0.10869549999999606,
            "durationTicks": 96,
            "midi": 27,
            "name": "D#1",
            "ticks": 96780,
            "time": 109.5786509375,
            "velocity": 0.3937007874015748
          },
          {
            "duration": 0.10869550000001027,
            "durationTicks": 96,
            "midi": 70,
            "name": "A#4",
            "ticks": 96876,
            "time": 109.6873464375,
            "velocity": 0.3937007874015748
          },
          {
            "duration": 0.10869550000001027,
            "durationTicks": 96,
            "midi": 51,
            "name": "D#3",
            "ticks": 96876,
            "time": 109.6873464375,
            "velocity": 0.3937007874015748
          },
          {
            "duration": 0.10869550000001027,
            "durationTicks": 96,
            "midi": 39,
            "name": "D#2",
            "ticks": 96876,
            "time": 109.6873464375,
            "velocity": 0.3937007874015748
          },
          {
            "duration": 0.21739099999999212,
            "durationTicks": 192,
            "midi": 70,
            "name": "A#4",
            "ticks": 96972,
            "time": 109.79604193750001,
            "velocity": 0.3937007874015748
          },
          {
            "duration": 0.10869549999999606,
            "durationTicks": 96,
            "midi": 75,
            "name": "D#5",
            "ticks": 96972,
            "time": 109.79604193750001,
            "velocity": 0.3937007874015748
          },
          {
            "duration": 0.10869549999999606,
            "durationTicks": 96,
            "midi": 49,
            "name": "C#3",
            "ticks": 96972,
            "time": 109.79604193750001,
            "velocity": 0.3937007874015748
          },
          {
            "duration": 0.21739099999999212,
            "durationTicks": 192,
            "midi": 75,
            "name": "D#5",
            "ticks": 96972,
            "time": 109.79604193750001,
            "velocity": 0.3937007874015748
          },
          {
            "duration": 0.21739099999999212,
            "durationTicks": 192,
            "midi": 63,
            "name": "D#4",
            "ticks": 96972,
            "time": 109.79604193750001,
            "velocity": 0.3937007874015748
          },
          {
            "duration": 0.21739099999999212,
            "durationTicks": 192,
            "midi": 58,
            "name": "A#3",
            "ticks": 96972,
            "time": 109.79604193750001,
            "velocity": 0.3937007874015748
          },
          {
            "duration": 0.10869549999999606,
            "durationTicks": 96,
            "midi": 37,
            "name": "C#2",
            "ticks": 96972,
            "time": 109.79604193750001,
            "velocity": 0.3937007874015748
          },
          {
            "duration": 0.10869549999999606,
            "durationTicks": 96,
            "midi": 39,
            "name": "D#2",
            "ticks": 97068,
            "time": 109.9047374375,
            "velocity": 0.3937007874015748
          },
          {
            "duration": 0.10869549999999606,
            "durationTicks": 96,
            "midi": 78,
            "name": "F#5",
            "ticks": 97068,
            "time": 109.9047374375,
            "velocity": 0.3937007874015748
          },
          {
            "duration": 0.10869549999999606,
            "durationTicks": 96,
            "midi": 51,
            "name": "D#3",
            "ticks": 97068,
            "time": 109.9047374375,
            "velocity": 0.3937007874015748
          },
          {
            "duration": 0.10869549999999606,
            "durationTicks": 96,
            "midi": 51,
            "name": "D#3",
            "ticks": 97164,
            "time": 110.0134329375,
            "velocity": 0.3937007874015748
          },
          {
            "duration": 0.21739100000000633,
            "durationTicks": 192,
            "midi": 34,
            "name": "A#1",
            "ticks": 97164,
            "time": 110.0134329375,
            "velocity": 0.3937007874015748
          },
          {
            "duration": 0.21739100000000633,
            "durationTicks": 192,
            "midi": 65,
            "name": "F4",
            "ticks": 97164,
            "time": 110.0134329375,
            "velocity": 0.3937007874015748
          },
          {
            "duration": 0.21739100000000633,
            "durationTicks": 192,
            "midi": 73,
            "name": "C#5",
            "ticks": 97164,
            "time": 110.0134329375,
            "velocity": 0.3937007874015748
          },
          {
            "duration": 0.21739100000000633,
            "durationTicks": 192,
            "midi": 77,
            "name": "F5",
            "ticks": 97164,
            "time": 110.0134329375,
            "velocity": 0.3937007874015748
          },
          {
            "duration": 0.21739100000000633,
            "durationTicks": 192,
            "midi": 54,
            "name": "F#3",
            "ticks": 97164,
            "time": 110.0134329375,
            "velocity": 0.3937007874015748
          },
          {
            "duration": 0.3260865000000024,
            "durationTicks": 288,
            "midi": 58,
            "name": "A#3",
            "ticks": 97164,
            "time": 110.0134329375,
            "velocity": 0.3937007874015748
          },
          {
            "duration": 0.10869549999999606,
            "durationTicks": 96,
            "midi": 39,
            "name": "D#2",
            "ticks": 97164,
            "time": 110.0134329375,
            "velocity": 0.3937007874015748
          },
          {
            "duration": 0.43478199999999845,
            "durationTicks": 384,
            "midi": 63,
            "name": "D#4",
            "ticks": 97164,
            "time": 110.0134329375,
            "velocity": 0.3937007874015748
          },
          {
            "duration": 0.21739100000000633,
            "durationTicks": 192,
            "midi": 61,
            "name": "C#4",
            "ticks": 97164,
            "time": 110.0134329375,
            "velocity": 0.3937007874015748
          },
          {
            "duration": 0.10869549999999606,
            "durationTicks": 96,
            "midi": 27,
            "name": "D#1",
            "ticks": 97164,
            "time": 110.0134329375,
            "velocity": 0.3937007874015748
          },
          {
            "duration": 0.3260865000000024,
            "durationTicks": 288,
            "midi": 54,
            "name": "F#3",
            "ticks": 97260,
            "time": 110.1221284375,
            "velocity": 0.3937007874015748
          },
          {
            "duration": 0.21739099999999212,
            "durationTicks": 192,
            "midi": 78,
            "name": "F#5",
            "ticks": 97356,
            "time": 110.2308239375,
            "velocity": 0.3937007874015748
          },
          {
            "duration": 0.21739099999999212,
            "durationTicks": 192,
            "midi": 58,
            "name": "A#3",
            "ticks": 97356,
            "time": 110.2308239375,
            "velocity": 0.3937007874015748
          },
          {
            "duration": 0.10869549999999606,
            "durationTicks": 96,
            "midi": 51,
            "name": "D#3",
            "ticks": 97356,
            "time": 110.2308239375,
            "velocity": 0.3937007874015748
          },
          {
            "duration": 0.10869549999999606,
            "durationTicks": 96,
            "midi": 39,
            "name": "D#2",
            "ticks": 97356,
            "time": 110.2308239375,
            "velocity": 0.3937007874015748
          },
          {
            "duration": 0.21739099999999212,
            "durationTicks": 192,
            "midi": 66,
            "name": "F#4",
            "ticks": 97356,
            "time": 110.2308239375,
            "velocity": 0.3937007874015748
          },
          {
            "duration": 0.21739099999999212,
            "durationTicks": 192,
            "midi": 63,
            "name": "D#4",
            "ticks": 97356,
            "time": 110.2308239375,
            "velocity": 0.3937007874015748
          },
          {
            "duration": 0.21739099999999212,
            "durationTicks": 192,
            "midi": 75,
            "name": "D#5",
            "ticks": 97356,
            "time": 110.2308239375,
            "velocity": 0.3937007874015748
          },
          {
            "duration": 0.10869549999999606,
            "durationTicks": 96,
            "midi": 39,
            "name": "D#2",
            "ticks": 97452,
            "time": 110.3395194375,
            "velocity": 0.3937007874015748
          },
          {
            "duration": 0.10869549999999606,
            "durationTicks": 96,
            "midi": 63,
            "name": "D#4",
            "ticks": 97452,
            "time": 110.3395194375,
            "velocity": 0.3937007874015748
          },
          {
            "duration": 0.10869549999999606,
            "durationTicks": 96,
            "midi": 51,
            "name": "D#3",
            "ticks": 97452,
            "time": 110.3395194375,
            "velocity": 0.3937007874015748
          },
          {
            "duration": 0.43478199999999845,
            "durationTicks": 384,
            "midi": 63,
            "name": "D#4",
            "ticks": 97548,
            "time": 110.4482149375,
            "velocity": 0.3937007874015748
          },
          {
            "duration": 0.21739100000000633,
            "durationTicks": 192,
            "midi": 80,
            "name": "G#5",
            "ticks": 97548,
            "time": 110.4482149375,
            "velocity": 0.3937007874015748
          },
          {
            "duration": 0.43478199999999845,
            "durationTicks": 384,
            "midi": 58,
            "name": "A#3",
            "ticks": 97548,
            "time": 110.4482149375,
            "velocity": 0.3937007874015748
          },
          {
            "duration": 0.21739100000000633,
            "durationTicks": 192,
            "midi": 77,
            "name": "F5",
            "ticks": 97548,
            "time": 110.4482149375,
            "velocity": 0.3937007874015748
          },
          {
            "duration": 0.21739100000000633,
            "durationTicks": 192,
            "midi": 68,
            "name": "G#4",
            "ticks": 97548,
            "time": 110.4482149375,
            "velocity": 0.3937007874015748
          },
          {
            "duration": 0.21739100000000633,
            "durationTicks": 192,
            "midi": 34,
            "name": "A#1",
            "ticks": 97548,
            "time": 110.4482149375,
            "velocity": 0.3937007874015748
          },
          {
            "duration": 0.21739100000000633,
            "durationTicks": 192,
            "midi": 65,
            "name": "F4",
            "ticks": 97548,
            "time": 110.4482149375,
            "velocity": 0.3937007874015748
          },
          {
            "duration": 0.10869549999999606,
            "durationTicks": 96,
            "midi": 39,
            "name": "D#2",
            "ticks": 97548,
            "time": 110.4482149375,
            "velocity": 0.3937007874015748
          },
          {
            "duration": 0.10869549999999606,
            "durationTicks": 96,
            "midi": 66,
            "name": "F#4",
            "ticks": 97548,
            "time": 110.4482149375,
            "velocity": 0.3937007874015748
          },
          {
            "duration": 0.43478199999999845,
            "durationTicks": 384,
            "midi": 54,
            "name": "F#3",
            "ticks": 97548,
            "time": 110.4482149375,
            "velocity": 0.3937007874015748
          },
          {
            "duration": 0.10869549999999606,
            "durationTicks": 96,
            "midi": 27,
            "name": "D#1",
            "ticks": 97548,
            "time": 110.4482149375,
            "velocity": 0.3937007874015748
          },
          {
            "duration": 0.10869550000001027,
            "durationTicks": 96,
            "midi": 70,
            "name": "A#4",
            "ticks": 97644,
            "time": 110.5569104375,
            "velocity": 0.3937007874015748
          },
          {
            "duration": 0.10869550000001027,
            "durationTicks": 96,
            "midi": 39,
            "name": "D#2",
            "ticks": 97644,
            "time": 110.5569104375,
            "velocity": 0.3937007874015748
          },
          {
            "duration": 0.10869550000001027,
            "durationTicks": 96,
            "midi": 51,
            "name": "D#3",
            "ticks": 97644,
            "time": 110.5569104375,
            "velocity": 0.3937007874015748
          },
          {
            "duration": 0.21739099999999212,
            "durationTicks": 192,
            "midi": 66,
            "name": "F#4",
            "ticks": 97740,
            "time": 110.6656059375,
            "velocity": 0.3937007874015748
          },
          {
            "duration": 0.10869549999999606,
            "durationTicks": 96,
            "midi": 49,
            "name": "C#3",
            "ticks": 97740,
            "time": 110.6656059375,
            "velocity": 0.3937007874015748
          },
          {
            "duration": 0.10869549999999606,
            "durationTicks": 96,
            "midi": 75,
            "name": "D#5",
            "ticks": 97740,
            "time": 110.6656059375,
            "velocity": 0.3937007874015748
          },
          {
            "duration": 0.10869549999999606,
            "durationTicks": 96,
            "midi": 37,
            "name": "C#2",
            "ticks": 97740,
            "time": 110.6656059375,
            "velocity": 0.3937007874015748
          },
          {
            "duration": 0.21739099999999212,
            "durationTicks": 192,
            "midi": 78,
            "name": "F#5",
            "ticks": 97740,
            "time": 110.6656059375,
            "velocity": 0.3937007874015748
          },
          {
            "duration": 0.21739099999999212,
            "durationTicks": 192,
            "midi": 82,
            "name": "A#5",
            "ticks": 97740,
            "time": 110.6656059375,
            "velocity": 0.3937007874015748
          },
          {
            "duration": 0.21739099999999212,
            "durationTicks": 192,
            "midi": 70,
            "name": "A#4",
            "ticks": 97740,
            "time": 110.6656059375,
            "velocity": 0.3937007874015748
          },
          {
            "duration": 0.10869549999999606,
            "durationTicks": 96,
            "midi": 39,
            "name": "D#2",
            "ticks": 97836,
            "time": 110.7743014375,
            "velocity": 0.3937007874015748
          },
          {
            "duration": 0.10869549999999606,
            "durationTicks": 96,
            "midi": 78,
            "name": "F#5",
            "ticks": 97836,
            "time": 110.7743014375,
            "velocity": 0.3937007874015748
          },
          {
            "duration": 0.10869549999999606,
            "durationTicks": 96,
            "midi": 51,
            "name": "D#3",
            "ticks": 97836,
            "time": 110.7743014375,
            "velocity": 0.3937007874015748
          },
          {
            "duration": 0.21739100000000633,
            "durationTicks": 192,
            "midi": 58,
            "name": "A#3",
            "ticks": 97932,
            "time": 110.8829969375,
            "velocity": 0.3937007874015748
          },
          {
            "duration": 0.10869550000001027,
            "durationTicks": 96,
            "midi": 39,
            "name": "D#2",
            "ticks": 97932,
            "time": 110.8829969375,
            "velocity": 0.3937007874015748
          },
          {
            "duration": 0.21739100000000633,
            "durationTicks": 192,
            "midi": 70,
            "name": "A#4",
            "ticks": 97932,
            "time": 110.8829969375,
            "velocity": 0.3937007874015748
          },
          {
            "duration": 0.21739100000000633,
            "durationTicks": 192,
            "midi": 63,
            "name": "D#4",
            "ticks": 97932,
            "time": 110.8829969375,
            "velocity": 0.3937007874015748
          },
          {
            "duration": 0.10869550000001027,
            "durationTicks": 96,
            "midi": 61,
            "name": "C#4",
            "ticks": 97932,
            "time": 110.8829969375,
            "velocity": 0.3937007874015748
          },
          {
            "duration": 0.43478199999999845,
            "durationTicks": 384,
            "midi": 54,
            "name": "F#3",
            "ticks": 97932,
            "time": 110.8829969375,
            "velocity": 0.3937007874015748
          },
          {
            "duration": 0.43478199999999845,
            "durationTicks": 384,
            "midi": 61,
            "name": "C#4",
            "ticks": 97932,
            "time": 110.8829969375,
            "velocity": 0.3937007874015748
          },
          {
            "duration": 0.21739100000000633,
            "durationTicks": 192,
            "midi": 75,
            "name": "D#5",
            "ticks": 97932,
            "time": 110.8829969375,
            "velocity": 0.3937007874015748
          },
          {
            "duration": 0.21739100000000633,
            "durationTicks": 192,
            "midi": 34,
            "name": "A#1",
            "ticks": 97932,
            "time": 110.8829969375,
            "velocity": 0.3937007874015748
          },
          {
            "duration": 0.10869550000001027,
            "durationTicks": 96,
            "midi": 51,
            "name": "D#3",
            "ticks": 97932,
            "time": 110.8829969375,
            "velocity": 0.3937007874015748
          },
          {
            "duration": 0.43478199999999845,
            "durationTicks": 384,
            "midi": 58,
            "name": "A#3",
            "ticks": 97932,
            "time": 110.8829969375,
            "velocity": 0.3937007874015748
          },
          {
            "duration": 0.10869549999999606,
            "durationTicks": 96,
            "midi": 66,
            "name": "F#4",
            "ticks": 98028,
            "time": 110.9916924375,
            "velocity": 0.3937007874015748
          },
          {
            "duration": 0.10869549999999606,
            "durationTicks": 96,
            "midi": 34,
            "name": "A#1",
            "ticks": 98124,
            "time": 111.1003879375,
            "velocity": 0.3937007874015748
          },
          {
            "duration": 0.10869549999999606,
            "durationTicks": 96,
            "midi": 70,
            "name": "A#4",
            "ticks": 98124,
            "time": 111.1003879375,
            "velocity": 0.3937007874015748
          },
          {
            "duration": 0.10869549999999606,
            "durationTicks": 96,
            "midi": 46,
            "name": "A#2",
            "ticks": 98124,
            "time": 111.1003879375,
            "velocity": 0.3937007874015748
          },
          {
            "duration": 0.21739099999999212,
            "durationTicks": 192,
            "midi": 34,
            "name": "A#1",
            "ticks": 98124,
            "time": 111.1003879375,
            "velocity": 0.3937007874015748
          },
          {
            "duration": 0.10869549999999606,
            "durationTicks": 96,
            "midi": 49,
            "name": "C#3",
            "ticks": 98220,
            "time": 111.2090834375,
            "velocity": 0.3937007874015748
          },
          {
            "duration": 0.10869549999999606,
            "durationTicks": 96,
            "midi": 73,
            "name": "C#5",
            "ticks": 98220,
            "time": 111.2090834375,
            "velocity": 0.3937007874015748
          },
          {
            "duration": 0.10869549999999606,
            "durationTicks": 96,
            "midi": 37,
            "name": "C#2",
            "ticks": 98220,
            "time": 111.2090834375,
            "velocity": 0.3937007874015748
          },
          {
            "duration": 0.10869550000001027,
            "durationTicks": 96,
            "midi": 60,
            "name": "C4",
            "ticks": 98316,
            "time": 111.3177789375,
            "velocity": 0.3937007874015748
          },
          {
            "duration": 0.43478200000001266,
            "durationTicks": 384,
            "midi": 51,
            "name": "D#3",
            "ticks": 98316,
            "time": 111.3177789375,
            "velocity": 0.3937007874015748
          },
          {
            "duration": 0.21739100000000633,
            "durationTicks": 192,
            "midi": 78,
            "name": "F#5",
            "ticks": 98316,
            "time": 111.3177789375,
            "velocity": 0.3937007874015748
          },
          {
            "duration": 0.43478200000001266,
            "durationTicks": 384,
            "midi": 56,
            "name": "G#3",
            "ticks": 98316,
            "time": 111.3177789375,
            "velocity": 0.3937007874015748
          },
          {
            "duration": 0.21739100000000633,
            "durationTicks": 192,
            "midi": 70,
            "name": "A#4",
            "ticks": 98316,
            "time": 111.3177789375,
            "velocity": 0.3937007874015748
          },
          {
            "duration": 0.21739100000000633,
            "durationTicks": 192,
            "midi": 66,
            "name": "F#4",
            "ticks": 98316,
            "time": 111.3177789375,
            "velocity": 0.3937007874015748
          },
          {
            "duration": 0.10869550000001027,
            "durationTicks": 96,
            "midi": 44,
            "name": "G#2",
            "ticks": 98316,
            "time": 111.3177789375,
            "velocity": 0.3937007874015748
          },
          {
            "duration": 0.21739100000000633,
            "durationTicks": 192,
            "midi": 34,
            "name": "A#1",
            "ticks": 98316,
            "time": 111.3177789375,
            "velocity": 0.3937007874015748
          },
          {
            "duration": 0.43478200000001266,
            "durationTicks": 384,
            "midi": 60,
            "name": "C4",
            "ticks": 98316,
            "time": 111.3177789375,
            "velocity": 0.3937007874015748
          },
          {
            "duration": 0.10869550000001027,
            "durationTicks": 96,
            "midi": 32,
            "name": "G#1",
            "ticks": 98316,
            "time": 111.3177789375,
            "velocity": 0.3937007874015748
          },
          {
            "duration": 0.21739100000000633,
            "durationTicks": 192,
            "midi": 82,
            "name": "A#5",
            "ticks": 98316,
            "time": 111.3177789375,
            "velocity": 0.3937007874015748
          },
          {
            "duration": 0.10869549999999606,
            "durationTicks": 96,
            "midi": 63,
            "name": "D#4",
            "ticks": 98412,
            "time": 111.4264744375,
            "velocity": 0.3937007874015748
          },
          {
            "duration": 0.21739100000000633,
            "durationTicks": 192,
            "midi": 73,
            "name": "C#5",
            "ticks": 98508,
            "time": 111.5351699375,
            "velocity": 0.3937007874015748
          },
          {
            "duration": 0.10869549999999606,
            "durationTicks": 96,
            "midi": 42,
            "name": "F#2",
            "ticks": 98508,
            "time": 111.5351699375,
            "velocity": 0.3937007874015748
          },
          {
            "duration": 0.10869549999999606,
            "durationTicks": 96,
            "midi": 68,
            "name": "G#4",
            "ticks": 98508,
            "time": 111.5351699375,
            "velocity": 0.3937007874015748
          },
          {
            "duration": 0.21739100000000633,
            "durationTicks": 192,
            "midi": 68,
            "name": "G#4",
            "ticks": 98508,
            "time": 111.5351699375,
            "velocity": 0.3937007874015748
          },
          {
            "duration": 0.21739100000000633,
            "durationTicks": 192,
            "midi": 85,
            "name": "C#6",
            "ticks": 98508,
            "time": 111.5351699375,
            "velocity": 0.3937007874015748
          },
          {
            "duration": 0.21739100000000633,
            "durationTicks": 192,
            "midi": 80,
            "name": "G#5",
            "ticks": 98508,
            "time": 111.5351699375,
            "velocity": 0.3937007874015748
          },
          {
            "duration": 0.10869549999999606,
            "durationTicks": 96,
            "midi": 30,
            "name": "F#1",
            "ticks": 98508,
            "time": 111.5351699375,
            "velocity": 0.3937007874015748
          },
          {
            "duration": 0.10869550000001027,
            "durationTicks": 96,
            "midi": 32,
            "name": "G#1",
            "ticks": 98604,
            "time": 111.6438654375,
            "velocity": 0.3937007874015748
          },
          {
            "duration": 0.10869550000001027,
            "durationTicks": 96,
            "midi": 72,
            "name": "C5",
            "ticks": 98604,
            "time": 111.6438654375,
            "velocity": 0.3937007874015748
          },
          {
            "duration": 0.10869550000001027,
            "durationTicks": 96,
            "midi": 44,
            "name": "G#2",
            "ticks": 98604,
            "time": 111.6438654375,
            "velocity": 0.3937007874015748
          },
          {
            "duration": 0.10869549999999606,
            "durationTicks": 96,
            "midi": 35,
            "name": "B1",
            "ticks": 98700,
            "time": 111.75256093750001,
            "velocity": 0.3937007874015748
          },
          {
            "duration": 0.3260864999999882,
            "durationTicks": 288,
            "midi": 54,
            "name": "F#3",
            "ticks": 98700,
            "time": 111.75256093750001,
            "velocity": 0.3937007874015748
          },
          {
            "duration": 0.21739099999999212,
            "durationTicks": 192,
            "midi": 80,
            "name": "G#5",
            "ticks": 98700,
            "time": 111.75256093750001,
            "velocity": 0.3937007874015748
          },
          {
            "duration": 0.21739099999999212,
            "durationTicks": 192,
            "midi": 85,
            "name": "C#6",
            "ticks": 98700,
            "time": 111.75256093750001,
            "velocity": 0.3937007874015748
          },
          {
            "duration": 0.10869549999999606,
            "durationTicks": 96,
            "midi": 35,
            "name": "B1",
            "ticks": 98700,
            "time": 111.75256093750001,
            "velocity": 0.3937007874015748
          },
          {
            "duration": 0.10869549999999606,
            "durationTicks": 96,
            "midi": 47,
            "name": "B2",
            "ticks": 98700,
            "time": 111.75256093750001,
            "velocity": 0.3937007874015748
          },
          {
            "duration": 0.21739099999999212,
            "durationTicks": 192,
            "midi": 34,
            "name": "A#1",
            "ticks": 98700,
            "time": 111.75256093750001,
            "velocity": 0.3937007874015748
          },
          {
            "duration": 0.21739099999999212,
            "durationTicks": 192,
            "midi": 68,
            "name": "G#4",
            "ticks": 98700,
            "time": 111.75256093750001,
            "velocity": 0.3937007874015748
          },
          {
            "duration": 0.43478199999999845,
            "durationTicks": 384,
            "midi": 59,
            "name": "B3",
            "ticks": 98700,
            "time": 111.75256093750001,
            "velocity": 0.3937007874015748
          },
          {
            "duration": 0.21739099999999212,
            "durationTicks": 192,
            "midi": 73,
            "name": "C#5",
            "ticks": 98700,
            "time": 111.75256093750001,
            "velocity": 0.3937007874015748
          },
          {
            "duration": 0.21739099999999212,
            "durationTicks": 192,
            "midi": 51,
            "name": "D#3",
            "ticks": 98700,
            "time": 111.75256093750001,
            "velocity": 0.3937007874015748
          },
          {
            "duration": 0.3260865000000024,
            "durationTicks": 288,
            "midi": 51,
            "name": "D#3",
            "ticks": 98796,
            "time": 111.8612564375,
            "velocity": 0.3937007874015748
          },
          {
            "duration": 0.21739100000000633,
            "durationTicks": 192,
            "midi": 87,
            "name": "D#6",
            "ticks": 98892,
            "time": 111.9699519375,
            "velocity": 0.3937007874015748
          },
          {
            "duration": 0.10869549999999606,
            "durationTicks": 96,
            "midi": 47,
            "name": "B2",
            "ticks": 98892,
            "time": 111.9699519375,
            "velocity": 0.3937007874015748
          },
          {
            "duration": 0.21739100000000633,
            "durationTicks": 192,
            "midi": 75,
            "name": "D#5",
            "ticks": 98892,
            "time": 111.9699519375,
            "velocity": 0.3937007874015748
          },
          {
            "duration": 0.21739100000000633,
            "durationTicks": 192,
            "midi": 82,
            "name": "A#5",
            "ticks": 98892,
            "time": 111.9699519375,
            "velocity": 0.3937007874015748
          },
          {
            "duration": 0.10869549999999606,
            "durationTicks": 96,
            "midi": 35,
            "name": "B1",
            "ticks": 98892,
            "time": 111.9699519375,
            "velocity": 0.3937007874015748
          },
          {
            "duration": 0.21739100000000633,
            "durationTicks": 192,
            "midi": 54,
            "name": "F#3",
            "ticks": 98892,
            "time": 111.9699519375,
            "velocity": 0.3937007874015748
          },
          {
            "duration": 0.21739100000000633,
            "durationTicks": 192,
            "midi": 70,
            "name": "A#4",
            "ticks": 98892,
            "time": 111.9699519375,
            "velocity": 0.3937007874015748
          },
          {
            "duration": 0.10869550000001027,
            "durationTicks": 96,
            "midi": 47,
            "name": "B2",
            "ticks": 98988,
            "time": 112.0786474375,
            "velocity": 0.3937007874015748
          },
          {
            "duration": 0.10869550000001027,
            "durationTicks": 96,
            "midi": 35,
            "name": "B1",
            "ticks": 98988,
            "time": 112.0786474375,
            "velocity": 0.3937007874015748
          },
          {
            "duration": 0.10869550000001027,
            "durationTicks": 96,
            "midi": 59,
            "name": "B3",
            "ticks": 98988,
            "time": 112.0786474375,
            "velocity": 0.3937007874015748
          },
          {
            "duration": 0.21739099999999212,
            "durationTicks": 192,
            "midi": 82,
            "name": "A#5",
            "ticks": 99084,
            "time": 112.1873429375,
            "velocity": 0.3937007874015748
          },
          {
            "duration": 0.21739099999999212,
            "durationTicks": 192,
            "midi": 78,
            "name": "F#5",
            "ticks": 99084,
            "time": 112.1873429375,
            "velocity": 0.3937007874015748
          },
          {
            "duration": 0.21739099999999212,
            "durationTicks": 192,
            "midi": 66,
            "name": "F#4",
            "ticks": 99084,
            "time": 112.1873429375,
            "velocity": 0.3937007874015748
          },
          {
            "duration": 0.43478199999999845,
            "durationTicks": 384,
            "midi": 59,
            "name": "B3",
            "ticks": 99084,
            "time": 112.1873429375,
            "velocity": 0.3937007874015748
          },
          {
            "duration": 0.10869549999999606,
            "durationTicks": 96,
            "midi": 35,
            "name": "B1",
            "ticks": 99084,
            "time": 112.1873429375,
            "velocity": 0.3937007874015748
          },
          {
            "duration": 0.21739099999999212,
            "durationTicks": 192,
            "midi": 34,
            "name": "A#1",
            "ticks": 99084,
            "time": 112.1873429375,
            "velocity": 0.3937007874015748
          },
          {
            "duration": 0.10869549999999606,
            "durationTicks": 96,
            "midi": 35,
            "name": "B1",
            "ticks": 99084,
            "time": 112.1873429375,
            "velocity": 0.3937007874015748
          },
          {
            "duration": 0.21739099999999212,
            "durationTicks": 192,
            "midi": 70,
            "name": "A#4",
            "ticks": 99084,
            "time": 112.1873429375,
            "velocity": 0.3937007874015748
          },
          {
            "duration": 0.43478199999999845,
            "durationTicks": 384,
            "midi": 54,
            "name": "F#3",
            "ticks": 99084,
            "time": 112.1873429375,
            "velocity": 0.3937007874015748
          },
          {
            "duration": 0.43478199999999845,
            "durationTicks": 384,
            "midi": 51,
            "name": "D#3",
            "ticks": 99084,
            "time": 112.1873429375,
            "velocity": 0.3937007874015748
          },
          {
            "duration": 0.10869549999999606,
            "durationTicks": 96,
            "midi": 63,
            "name": "D#4",
            "ticks": 99084,
            "time": 112.1873429375,
            "velocity": 0.3937007874015748
          },
          {
            "duration": 0.10869549999999606,
            "durationTicks": 96,
            "midi": 66,
            "name": "F#4",
            "ticks": 99180,
            "time": 112.2960384375,
            "velocity": 0.3937007874015748
          },
          {
            "duration": 0.10869549999999606,
            "durationTicks": 96,
            "midi": 35,
            "name": "B1",
            "ticks": 99180,
            "time": 112.2960384375,
            "velocity": 0.3937007874015748
          },
          {
            "duration": 0.10869549999999606,
            "durationTicks": 96,
            "midi": 47,
            "name": "B2",
            "ticks": 99180,
            "time": 112.2960384375,
            "velocity": 0.3937007874015748
          },
          {
            "duration": 0.21739100000000633,
            "durationTicks": 192,
            "midi": 80,
            "name": "G#5",
            "ticks": 99276,
            "time": 112.4047339375,
            "velocity": 0.3937007874015748
          },
          {
            "duration": 0.21739100000000633,
            "durationTicks": 192,
            "midi": 65,
            "name": "F4",
            "ticks": 99276,
            "time": 112.4047339375,
            "velocity": 0.3937007874015748
          },
          {
            "duration": 0.10869549999999606,
            "durationTicks": 96,
            "midi": 34,
            "name": "A#1",
            "ticks": 99276,
            "time": 112.4047339375,
            "velocity": 0.3937007874015748
          },
          {
            "duration": 0.10869549999999606,
            "durationTicks": 96,
            "midi": 71,
            "name": "B4",
            "ticks": 99276,
            "time": 112.4047339375,
            "velocity": 0.3937007874015748
          },
          {
            "duration": 0.21739100000000633,
            "durationTicks": 192,
            "midi": 68,
            "name": "G#4",
            "ticks": 99276,
            "time": 112.4047339375,
            "velocity": 0.3937007874015748
          },
          {
            "duration": 0.21739100000000633,
            "durationTicks": 192,
            "midi": 77,
            "name": "F5",
            "ticks": 99276,
            "time": 112.4047339375,
            "velocity": 0.3937007874015748
          },
          {
            "duration": 0.10869549999999606,
            "durationTicks": 96,
            "midi": 46,
            "name": "A#2",
            "ticks": 99276,
            "time": 112.4047339375,
            "velocity": 0.3937007874015748
          },
          {
            "duration": 0.10869550000001027,
            "durationTicks": 96,
            "midi": 75,
            "name": "D#5",
            "ticks": 99372,
            "time": 112.5134294375,
            "velocity": 0.3937007874015748
          },
          {
            "duration": 0.10869550000001027,
            "durationTicks": 96,
            "midi": 35,
            "name": "B1",
            "ticks": 99372,
            "time": 112.5134294375,
            "velocity": 0.3937007874015748
          },
          {
            "duration": 0.10869550000001027,
            "durationTicks": 96,
            "midi": 47,
            "name": "B2",
            "ticks": 99372,
            "time": 112.5134294375,
            "velocity": 0.3937007874015748
          },
          {
            "duration": 0.21739099999999212,
            "durationTicks": 192,
            "midi": 34,
            "name": "A#1",
            "ticks": 99468,
            "time": 112.6221249375,
            "velocity": 0.3937007874015748
          },
          {
            "duration": 0.21739099999999212,
            "durationTicks": 192,
            "midi": 82,
            "name": "A#5",
            "ticks": 99468,
            "time": 112.6221249375,
            "velocity": 0.3937007874015748
          },
          {
            "duration": 0.43478199999999845,
            "durationTicks": 384,
            "midi": 59,
            "name": "B3",
            "ticks": 99468,
            "time": 112.6221249375,
            "velocity": 0.3937007874015748
          },
          {
            "duration": 0.10869549999999606,
            "durationTicks": 96,
            "midi": 35,
            "name": "B1",
            "ticks": 99468,
            "time": 112.6221249375,
            "velocity": 0.3937007874015748
          },
          {
            "duration": 0.21739099999999212,
            "durationTicks": 192,
            "midi": 70,
            "name": "A#4",
            "ticks": 99468,
            "time": 112.6221249375,
            "velocity": 0.3937007874015748
          },
          {
            "duration": 0.21739099999999212,
            "durationTicks": 192,
            "midi": 66,
            "name": "F#4",
            "ticks": 99468,
            "time": 112.6221249375,
            "velocity": 0.3937007874015748
          },
          {
            "duration": 0.21739099999999212,
            "durationTicks": 192,
            "midi": 78,
            "name": "F#5",
            "ticks": 99468,
            "time": 112.6221249375,
            "velocity": 0.3937007874015748
          },
          {
            "duration": 0.10869549999999606,
            "durationTicks": 96,
            "midi": 47,
            "name": "B2",
            "ticks": 99468,
            "time": 112.6221249375,
            "velocity": 0.3937007874015748
          },
          {
            "duration": 0.10869549999999606,
            "durationTicks": 96,
            "midi": 35,
            "name": "B1",
            "ticks": 99468,
            "time": 112.6221249375,
            "velocity": 0.3937007874015748
          },
          {
            "duration": 0.3260865000000024,
            "durationTicks": 288,
            "midi": 54,
            "name": "F#3",
            "ticks": 99468,
            "time": 112.6221249375,
            "velocity": 0.3937007874015748
          },
          {
            "duration": 0.21739099999999212,
            "durationTicks": 192,
            "midi": 51,
            "name": "D#3",
            "ticks": 99468,
            "time": 112.6221249375,
            "velocity": 0.3937007874015748
          },
          {
            "duration": 0.3260865000000024,
            "durationTicks": 288,
            "midi": 51,
            "name": "D#3",
            "ticks": 99564,
            "time": 112.7308204375,
            "velocity": 0.3937007874015748
          },
          {
            "duration": 0.10869550000001027,
            "durationTicks": 96,
            "midi": 35,
            "name": "B1",
            "ticks": 99660,
            "time": 112.8395159375,
            "velocity": 0.3937007874015748
          },
          {
            "duration": 0.21739100000000633,
            "durationTicks": 192,
            "midi": 54,
            "name": "F#3",
            "ticks": 99660,
            "time": 112.8395159375,
            "velocity": 0.3937007874015748
          },
          {
            "duration": 0.10869550000001027,
            "durationTicks": 96,
            "midi": 47,
            "name": "B2",
            "ticks": 99660,
            "time": 112.8395159375,
            "velocity": 0.3937007874015748
          },
          {
            "duration": 0.10869549999999606,
            "durationTicks": 96,
            "midi": 35,
            "name": "B1",
            "ticks": 99756,
            "time": 112.9482114375,
            "velocity": 0.3937007874015748
          },
          {
            "duration": 0.10869549999999606,
            "durationTicks": 96,
            "midi": 47,
            "name": "B2",
            "ticks": 99756,
            "time": 112.9482114375,
            "velocity": 0.3937007874015748
          },
          {
            "duration": 0.10869549999999606,
            "durationTicks": 96,
            "midi": 59,
            "name": "B3",
            "ticks": 99756,
            "time": 112.9482114375,
            "velocity": 0.3937007874015748
          },
          {
            "duration": 0.10869549999999606,
            "durationTicks": 96,
            "midi": 63,
            "name": "D#4",
            "ticks": 99852,
            "time": 113.0569069375,
            "velocity": 0.3937007874015748
          },
          {
            "duration": 0.10869549999999606,
            "durationTicks": 96,
            "midi": 35,
            "name": "B1",
            "ticks": 99852,
            "time": 113.0569069375,
            "velocity": 0.3937007874015748
          },
          {
            "duration": 0.43478199999999845,
            "durationTicks": 384,
            "midi": 59,
            "name": "B3",
            "ticks": 99852,
            "time": 113.0569069375,
            "velocity": 0.3937007874015748
          },
          {
            "duration": 0.43478199999999845,
            "durationTicks": 384,
            "midi": 54,
            "name": "F#3",
            "ticks": 99852,
            "time": 113.0569069375,
            "velocity": 0.3937007874015748
          },
          {
            "duration": 0.21739099999999212,
            "durationTicks": 192,
            "midi": 68,
            "name": "G#4",
            "ticks": 99852,
            "time": 113.0569069375,
            "velocity": 0.3937007874015748
          },
          {
            "duration": 0.21739099999999212,
            "durationTicks": 192,
            "midi": 77,
            "name": "F5",
            "ticks": 99852,
            "time": 113.0569069375,
            "velocity": 0.3937007874015748
          },
          {
            "duration": 0.21739099999999212,
            "durationTicks": 192,
            "midi": 34,
            "name": "A#1",
            "ticks": 99852,
            "time": 113.0569069375,
            "velocity": 0.3937007874015748
          },
          {
            "duration": 0.21739099999999212,
            "durationTicks": 192,
            "midi": 80,
            "name": "G#5",
            "ticks": 99852,
            "time": 113.0569069375,
            "velocity": 0.3937007874015748
          },
          {
            "duration": 0.10869549999999606,
            "durationTicks": 96,
            "midi": 35,
            "name": "B1",
            "ticks": 99852,
            "time": 113.0569069375,
            "velocity": 0.3937007874015748
          },
          {
            "duration": 0.43478199999999845,
            "durationTicks": 384,
            "midi": 51,
            "name": "D#3",
            "ticks": 99852,
            "time": 113.0569069375,
            "velocity": 0.3937007874015748
          },
          {
            "duration": 0.21739099999999212,
            "durationTicks": 192,
            "midi": 65,
            "name": "F4",
            "ticks": 99852,
            "time": 113.0569069375,
            "velocity": 0.3937007874015748
          },
          {
            "duration": 0.10869549999999606,
            "durationTicks": 96,
            "midi": 47,
            "name": "B2",
            "ticks": 99948,
            "time": 113.1656024375,
            "velocity": 0.3937007874015748
          },
          {
            "duration": 0.10869549999999606,
            "durationTicks": 96,
            "midi": 66,
            "name": "F#4",
            "ticks": 99948,
            "time": 113.1656024375,
            "velocity": 0.3937007874015748
          },
          {
            "duration": 0.10869549999999606,
            "durationTicks": 96,
            "midi": 35,
            "name": "B1",
            "ticks": 99948,
            "time": 113.1656024375,
            "velocity": 0.3937007874015748
          },
          {
            "duration": 0.10869550000001027,
            "durationTicks": 96,
            "midi": 46,
            "name": "A#2",
            "ticks": 100044,
            "time": 113.2742979375,
            "velocity": 0.3937007874015748
          },
          {
            "duration": 0.21739100000000633,
            "durationTicks": 192,
            "midi": 78,
            "name": "F#5",
            "ticks": 100044,
            "time": 113.2742979375,
            "velocity": 0.3937007874015748
          },
          {
            "duration": 0.21739100000000633,
            "durationTicks": 192,
            "midi": 70,
            "name": "A#4",
            "ticks": 100044,
            "time": 113.2742979375,
            "velocity": 0.3937007874015748
          },
          {
            "duration": 0.21739100000000633,
            "durationTicks": 192,
            "midi": 82,
            "name": "A#5",
            "ticks": 100044,
            "time": 113.2742979375,
            "velocity": 0.3937007874015748
          },
          {
            "duration": 0.21739100000000633,
            "durationTicks": 192,
            "midi": 66,
            "name": "F#4",
            "ticks": 100044,
            "time": 113.2742979375,
            "velocity": 0.3937007874015748
          },
          {
            "duration": 0.10869550000001027,
            "durationTicks": 96,
            "midi": 71,
            "name": "B4",
            "ticks": 100044,
            "time": 113.2742979375,
            "velocity": 0.3937007874015748
          },
          {
            "duration": 0.10869550000001027,
            "durationTicks": 96,
            "midi": 34,
            "name": "A#1",
            "ticks": 100044,
            "time": 113.2742979375,
            "velocity": 0.3937007874015748
          },
          {
            "duration": 0.10869549999999606,
            "durationTicks": 96,
            "midi": 35,
            "name": "B1",
            "ticks": 100140,
            "time": 113.3829934375,
            "velocity": 0.3937007874015748
          },
          {
            "duration": 0.10869549999999606,
            "durationTicks": 96,
            "midi": 47,
            "name": "B2",
            "ticks": 100140,
            "time": 113.3829934375,
            "velocity": 0.3937007874015748
          },
          {
            "duration": 0.10869549999999606,
            "durationTicks": 96,
            "midi": 75,
            "name": "D#5",
            "ticks": 100140,
            "time": 113.3829934375,
            "velocity": 0.3937007874015748
          },
          {
            "duration": 0.21739100000000633,
            "durationTicks": 192,
            "midi": 73,
            "name": "C#5",
            "ticks": 100236,
            "time": 113.4916889375,
            "velocity": 0.3937007874015748
          },
          {
            "duration": 0.10869549999999606,
            "durationTicks": 96,
            "midi": 25,
            "name": "C#1",
            "ticks": 100236,
            "time": 113.4916889375,
            "velocity": 0.3937007874015748
          },
          {
            "duration": 0.21739100000000633,
            "durationTicks": 192,
            "midi": 85,
            "name": "C#6",
            "ticks": 100236,
            "time": 113.4916889375,
            "velocity": 0.3937007874015748
          },
          {
            "duration": 0.21739100000000633,
            "durationTicks": 192,
            "midi": 80,
            "name": "G#5",
            "ticks": 100236,
            "time": 113.4916889375,
            "velocity": 0.3937007874015748
          },
          {
            "duration": 0.3260865000000024,
            "durationTicks": 288,
            "midi": 56,
            "name": "G#3",
            "ticks": 100236,
            "time": 113.4916889375,
            "velocity": 0.3937007874015748
          },
          {
            "duration": 0.10869549999999606,
            "durationTicks": 96,
            "midi": 49,
            "name": "C#3",
            "ticks": 100236,
            "time": 113.4916889375,
            "velocity": 0.3937007874015748
          },
          {
            "duration": 0.21739100000000633,
            "durationTicks": 192,
            "midi": 34,
            "name": "A#1",
            "ticks": 100236,
            "time": 113.4916889375,
            "velocity": 0.3937007874015748
          },
          {
            "duration": 0.21739100000000633,
            "durationTicks": 192,
            "midi": 68,
            "name": "G#4",
            "ticks": 100236,
            "time": 113.4916889375,
            "velocity": 0.3937007874015748
          },
          {
            "duration": 0.10869549999999606,
            "durationTicks": 96,
            "midi": 37,
            "name": "C#2",
            "ticks": 100236,
            "time": 113.4916889375,
            "velocity": 0.3937007874015748
          },
          {
            "duration": 0.43478199999999845,
            "durationTicks": 384,
            "midi": 61,
            "name": "C#4",
            "ticks": 100236,
            "time": 113.4916889375,
            "velocity": 0.3937007874015748
          },
          {
            "duration": 0.21739100000000633,
            "durationTicks": 192,
            "midi": 53,
            "name": "F3",
            "ticks": 100236,
            "time": 113.4916889375,
            "velocity": 0.3937007874015748
          },
          {
            "duration": 0.3260865000000024,
            "durationTicks": 288,
            "midi": 53,
            "name": "F3",
            "ticks": 100332,
            "time": 113.6003844375,
            "velocity": 0.3937007874015748
          },
          {
            "duration": 0.21739099999999212,
            "durationTicks": 192,
            "midi": 82,
            "name": "A#5",
            "ticks": 100428,
            "time": 113.70907993750001,
            "velocity": 0.3937007874015748
          },
          {
            "duration": 0.10869549999999606,
            "durationTicks": 96,
            "midi": 49,
            "name": "C#3",
            "ticks": 100428,
            "time": 113.70907993750001,
            "velocity": 0.3937007874015748
          },
          {
            "duration": 0.21739099999999212,
            "durationTicks": 192,
            "midi": 87,
            "name": "D#6",
            "ticks": 100428,
            "time": 113.70907993750001,
            "velocity": 0.3937007874015748
          },
          {
            "duration": 0.21739099999999212,
            "durationTicks": 192,
            "midi": 75,
            "name": "D#5",
            "ticks": 100428,
            "time": 113.70907993750001,
            "velocity": 0.3937007874015748
          },
          {
            "duration": 0.21739099999999212,
            "durationTicks": 192,
            "midi": 56,
            "name": "G#3",
            "ticks": 100428,
            "time": 113.70907993750001,
            "velocity": 0.3937007874015748
          },
          {
            "duration": 0.21739099999999212,
            "durationTicks": 192,
            "midi": 70,
            "name": "A#4",
            "ticks": 100428,
            "time": 113.70907993750001,
            "velocity": 0.3937007874015748
          },
          {
            "duration": 0.10869549999999606,
            "durationTicks": 96,
            "midi": 37,
            "name": "C#2",
            "ticks": 100428,
            "time": 113.70907993750001,
            "velocity": 0.3937007874015748
          },
          {
            "duration": 0.10869549999999606,
            "durationTicks": 96,
            "midi": 61,
            "name": "C#4",
            "ticks": 100524,
            "time": 113.8177754375,
            "velocity": 0.3937007874015748
          },
          {
            "duration": 0.10869549999999606,
            "durationTicks": 96,
            "midi": 49,
            "name": "C#3",
            "ticks": 100524,
            "time": 113.8177754375,
            "velocity": 0.3937007874015748
          },
          {
            "duration": 0.10869549999999606,
            "durationTicks": 96,
            "midi": 37,
            "name": "C#2",
            "ticks": 100524,
            "time": 113.8177754375,
            "velocity": 0.3937007874015748
          },
          {
            "duration": 0.21739100000000633,
            "durationTicks": 192,
            "midi": 34,
            "name": "A#1",
            "ticks": 100620,
            "time": 113.9264709375,
            "velocity": 0.3937007874015748
          },
          {
            "duration": 0.21739100000000633,
            "durationTicks": 192,
            "midi": 66,
            "name": "F#4",
            "ticks": 100620,
            "time": 113.9264709375,
            "velocity": 0.3937007874015748
          },
          {
            "duration": 0.10869549999999606,
            "durationTicks": 96,
            "midi": 25,
            "name": "C#1",
            "ticks": 100620,
            "time": 113.9264709375,
            "velocity": 0.3937007874015748
          },
          {
            "duration": 0.43478199999999845,
            "durationTicks": 384,
            "midi": 53,
            "name": "F3",
            "ticks": 100620,
            "time": 113.9264709375,
            "velocity": 0.3937007874015748
          },
          {
            "duration": 0.21739100000000633,
            "durationTicks": 192,
            "midi": 78,
            "name": "F#5",
            "ticks": 100620,
            "time": 113.9264709375,
            "velocity": 0.3937007874015748
          },
          {
            "duration": 0.10869549999999606,
            "durationTicks": 96,
            "midi": 37,
            "name": "C#2",
            "ticks": 100620,
            "time": 113.9264709375,
            "velocity": 0.3937007874015748
          },
          {
            "duration": 0.43478199999999845,
            "durationTicks": 384,
            "midi": 56,
            "name": "G#3",
            "ticks": 100620,
            "time": 113.9264709375,
            "velocity": 0.3937007874015748
          },
          {
            "duration": 0.21739100000000633,
            "durationTicks": 192,
            "midi": 70,
            "name": "A#4",
            "ticks": 100620,
            "time": 113.9264709375,
            "velocity": 0.3937007874015748
          },
          {
            "duration": 0.43478199999999845,
            "durationTicks": 384,
            "midi": 61,
            "name": "C#4",
            "ticks": 100620,
            "time": 113.9264709375,
            "velocity": 0.3937007874015748
          },
          {
            "duration": 0.10869549999999606,
            "durationTicks": 96,
            "midi": 65,
            "name": "F4",
            "ticks": 100620,
            "time": 113.9264709375,
            "velocity": 0.3937007874015748
          },
          {
            "duration": 0.21739100000000633,
            "durationTicks": 192,
            "midi": 82,
            "name": "A#5",
            "ticks": 100620,
            "time": 113.9264709375,
            "velocity": 0.3937007874015748
          },
          {
            "duration": 0.10869550000001027,
            "durationTicks": 96,
            "midi": 37,
            "name": "C#2",
            "ticks": 100716,
            "time": 114.0351664375,
            "velocity": 0.3937007874015748
          },
          {
            "duration": 0.10869550000001027,
            "durationTicks": 96,
            "midi": 49,
            "name": "C#3",
            "ticks": 100716,
            "time": 114.0351664375,
            "velocity": 0.3937007874015748
          },
          {
            "duration": 0.10869550000001027,
            "durationTicks": 96,
            "midi": 68,
            "name": "G#4",
            "ticks": 100716,
            "time": 114.0351664375,
            "velocity": 0.3937007874015748
          },
          {
            "duration": 0.21739099999999212,
            "durationTicks": 192,
            "midi": 65,
            "name": "F4",
            "ticks": 100812,
            "time": 114.1438619375,
            "velocity": 0.3937007874015748
          },
          {
            "duration": 0.10869549999999606,
            "durationTicks": 96,
            "midi": 73,
            "name": "C#5",
            "ticks": 100812,
            "time": 114.1438619375,
            "velocity": 0.3937007874015748
          },
          {
            "duration": 0.21739099999999212,
            "durationTicks": 192,
            "midi": 77,
            "name": "F5",
            "ticks": 100812,
            "time": 114.1438619375,
            "velocity": 0.3937007874015748
          },
          {
            "duration": 0.21739099999999212,
            "durationTicks": 192,
            "midi": 68,
            "name": "G#4",
            "ticks": 100812,
            "time": 114.1438619375,
            "velocity": 0.3937007874015748
          },
          {
            "duration": 0.10869549999999606,
            "durationTicks": 96,
            "midi": 35,
            "name": "B1",
            "ticks": 100812,
            "time": 114.1438619375,
            "velocity": 0.3937007874015748
          },
          {
            "duration": 0.10869549999999606,
            "durationTicks": 96,
            "midi": 47,
            "name": "B2",
            "ticks": 100812,
            "time": 114.1438619375,
            "velocity": 0.3937007874015748
          },
          {
            "duration": 0.21739099999999212,
            "durationTicks": 192,
            "midi": 80,
            "name": "G#5",
            "ticks": 100812,
            "time": 114.1438619375,
            "velocity": 0.3937007874015748
          },
          {
            "duration": 0.10869549999999606,
            "durationTicks": 96,
            "midi": 49,
            "name": "C#3",
            "ticks": 100908,
            "time": 114.2525574375,
            "velocity": 0.3937007874015748
          },
          {
            "duration": 0.10869549999999606,
            "durationTicks": 96,
            "midi": 37,
            "name": "C#2",
            "ticks": 100908,
            "time": 114.2525574375,
            "velocity": 0.3937007874015748
          },
          {
            "duration": 0.10869549999999606,
            "durationTicks": 96,
            "midi": 77,
            "name": "F5",
            "ticks": 100908,
            "time": 114.2525574375,
            "velocity": 0.3937007874015748
          },
          {
            "duration": 0.10869549999999606,
            "durationTicks": 96,
            "midi": 37,
            "name": "C#2",
            "ticks": 101004,
            "time": 114.3612529375,
            "velocity": 0.3937007874015748
          },
          {
            "duration": 0.21739100000000633,
            "durationTicks": 192,
            "midi": 70,
            "name": "A#4",
            "ticks": 101004,
            "time": 114.3612529375,
            "velocity": 0.3937007874015748
          },
          {
            "duration": 0.21739100000000633,
            "durationTicks": 192,
            "midi": 78,
            "name": "F#5",
            "ticks": 101004,
            "time": 114.3612529375,
            "velocity": 0.3937007874015748
          },
          {
            "duration": 0.10869549999999606,
            "durationTicks": 96,
            "midi": 25,
            "name": "C#1",
            "ticks": 101004,
            "time": 114.3612529375,
            "velocity": 0.3937007874015748
          },
          {
            "duration": 0.21739100000000633,
            "durationTicks": 192,
            "midi": 34,
            "name": "A#1",
            "ticks": 101004,
            "time": 114.3612529375,
            "velocity": 0.3937007874015748
          },
          {
            "duration": 0.43478199999999845,
            "durationTicks": 384,
            "midi": 61,
            "name": "C#4",
            "ticks": 101004,
            "time": 114.3612529375,
            "velocity": 0.3937007874015748
          },
          {
            "duration": 0.21739100000000633,
            "durationTicks": 192,
            "midi": 66,
            "name": "F#4",
            "ticks": 101004,
            "time": 114.3612529375,
            "velocity": 0.3937007874015748
          },
          {
            "duration": 0.21739100000000633,
            "durationTicks": 192,
            "midi": 82,
            "name": "A#5",
            "ticks": 101004,
            "time": 114.3612529375,
            "velocity": 0.3937007874015748
          },
          {
            "duration": 0.21739100000000633,
            "durationTicks": 192,
            "midi": 53,
            "name": "F3",
            "ticks": 101004,
            "time": 114.3612529375,
            "velocity": 0.3937007874015748
          },
          {
            "duration": 0.3260865000000024,
            "durationTicks": 288,
            "midi": 56,
            "name": "G#3",
            "ticks": 101004,
            "time": 114.3612529375,
            "velocity": 0.3937007874015748
          },
          {
            "duration": 0.10869549999999606,
            "durationTicks": 96,
            "midi": 49,
            "name": "C#3",
            "ticks": 101004,
            "time": 114.3612529375,
            "velocity": 0.3937007874015748
          },
          {
            "duration": 0.3260865000000024,
            "durationTicks": 288,
            "midi": 53,
            "name": "F3",
            "ticks": 101100,
            "time": 114.4699484375,
            "velocity": 0.3937007874015748
          },
          {
            "duration": 0.21739099999999212,
            "durationTicks": 192,
            "midi": 56,
            "name": "G#3",
            "ticks": 101196,
            "time": 114.5786439375,
            "velocity": 0.3937007874015748
          },
          {
            "duration": 0.10869549999999606,
            "durationTicks": 96,
            "midi": 37,
            "name": "C#2",
            "ticks": 101196,
            "time": 114.5786439375,
            "velocity": 0.3937007874015748
          },
          {
            "duration": 0.10869549999999606,
            "durationTicks": 96,
            "midi": 49,
            "name": "C#3",
            "ticks": 101196,
            "time": 114.5786439375,
            "velocity": 0.3937007874015748
          },
          {
            "duration": 0.10869549999999606,
            "durationTicks": 96,
            "midi": 37,
            "name": "C#2",
            "ticks": 101292,
            "time": 114.6873394375,
            "velocity": 0.3937007874015748
          },
          {
            "duration": 0.10869549999999606,
            "durationTicks": 96,
            "midi": 61,
            "name": "C#4",
            "ticks": 101292,
            "time": 114.6873394375,
            "velocity": 0.3937007874015748
          },
          {
            "duration": 0.10869549999999606,
            "durationTicks": 96,
            "midi": 49,
            "name": "C#3",
            "ticks": 101292,
            "time": 114.6873394375,
            "velocity": 0.3937007874015748
          },
          {
            "duration": 0.21739100000000633,
            "durationTicks": 192,
            "midi": 87,
            "name": "D#6",
            "ticks": 101388,
            "time": 114.7960349375,
            "velocity": 0.3937007874015748
          },
          {
            "duration": 0.21739100000000633,
            "durationTicks": 192,
            "midi": 82,
            "name": "A#5",
            "ticks": 101388,
            "time": 114.7960349375,
            "velocity": 0.3937007874015748
          },
          {
            "duration": 0.43478199999999845,
            "durationTicks": 384,
            "midi": 61,
            "name": "C#4",
            "ticks": 101388,
            "time": 114.7960349375,
            "velocity": 0.3937007874015748
          },
          {
            "duration": 0.43478199999999845,
            "durationTicks": 384,
            "midi": 53,
            "name": "F3",
            "ticks": 101388,
            "time": 114.7960349375,
            "velocity": 0.3937007874015748
          },
          {
            "duration": 0.21739100000000633,
            "durationTicks": 192,
            "midi": 70,
            "name": "A#4",
            "ticks": 101388,
            "time": 114.7960349375,
            "velocity": 0.3937007874015748
          },
          {
            "duration": 0.21739100000000633,
            "durationTicks": 192,
            "midi": 75,
            "name": "D#5",
            "ticks": 101388,
            "time": 114.7960349375,
            "velocity": 0.3937007874015748
          },
          {
            "duration": 0.21739100000000633,
            "durationTicks": 192,
            "midi": 34,
            "name": "A#1",
            "ticks": 101388,
            "time": 114.7960349375,
            "velocity": 0.3937007874015748
          },
          {
            "duration": 0.10869550000001027,
            "durationTicks": 96,
            "midi": 37,
            "name": "C#2",
            "ticks": 101388,
            "time": 114.7960349375,
            "velocity": 0.3937007874015748
          },
          {
            "duration": 0.10869550000001027,
            "durationTicks": 96,
            "midi": 65,
            "name": "F4",
            "ticks": 101388,
            "time": 114.7960349375,
            "velocity": 0.3937007874015748
          },
          {
            "duration": 0.10869550000001027,
            "durationTicks": 96,
            "midi": 25,
            "name": "C#1",
            "ticks": 101388,
            "time": 114.7960349375,
            "velocity": 0.3937007874015748
          },
          {
            "duration": 0.43478199999999845,
            "durationTicks": 384,
            "midi": 56,
            "name": "G#3",
            "ticks": 101388,
            "time": 114.7960349375,
            "velocity": 0.3937007874015748
          },
          {
            "duration": 0.10869549999999606,
            "durationTicks": 96,
            "midi": 49,
            "name": "C#3",
            "ticks": 101484,
            "time": 114.9047304375,
            "velocity": 0.3937007874015748
          },
          {
            "duration": 0.10869549999999606,
            "durationTicks": 96,
            "midi": 68,
            "name": "G#4",
            "ticks": 101484,
            "time": 114.9047304375,
            "velocity": 0.3937007874015748
          },
          {
            "duration": 0.10869549999999606,
            "durationTicks": 96,
            "midi": 37,
            "name": "C#2",
            "ticks": 101484,
            "time": 114.9047304375,
            "velocity": 0.3937007874015748
          },
          {
            "duration": 0.10869549999999606,
            "durationTicks": 96,
            "midi": 47,
            "name": "B2",
            "ticks": 101580,
            "time": 115.0134259375,
            "velocity": 0.3937007874015748
          },
          {
            "duration": 0.21739099999999212,
            "durationTicks": 192,
            "midi": 85,
            "name": "C#6",
            "ticks": 101580,
            "time": 115.0134259375,
            "velocity": 0.3937007874015748
          },
          {
            "duration": 0.10869549999999606,
            "durationTicks": 96,
            "midi": 73,
            "name": "C#5",
            "ticks": 101580,
            "time": 115.0134259375,
            "velocity": 0.3937007874015748
          },
          {
            "duration": 0.21739099999999212,
            "durationTicks": 192,
            "midi": 73,
            "name": "C#5",
            "ticks": 101580,
            "time": 115.0134259375,
            "velocity": 0.3937007874015748
          },
          {
            "duration": 0.21739099999999212,
            "durationTicks": 192,
            "midi": 77,
            "name": "F5",
            "ticks": 101580,
            "time": 115.0134259375,
            "velocity": 0.3937007874015748
          },
          {
            "duration": 0.21739099999999212,
            "durationTicks": 192,
            "midi": 34,
            "name": "A#1",
            "ticks": 101580,
            "time": 115.0134259375,
            "velocity": 0.3937007874015748
          },
          {
            "duration": 0.10869549999999606,
            "durationTicks": 96,
            "midi": 35,
            "name": "B1",
            "ticks": 101580,
            "time": 115.0134259375,
            "velocity": 0.3937007874015748
          },
          {
            "duration": 0.21739099999999212,
            "durationTicks": 192,
            "midi": 89,
            "name": "F6",
            "ticks": 101580,
            "time": 115.0134259375,
            "velocity": 0.3937007874015748
          },
          {
            "duration": 0.10869549999999606,
            "durationTicks": 96,
            "midi": 37,
            "name": "C#2",
            "ticks": 101676,
            "time": 115.1221214375,
            "velocity": 0.3937007874015748
          },
          {
            "duration": 0.10869549999999606,
            "durationTicks": 96,
            "midi": 49,
            "name": "C#3",
            "ticks": 101676,
            "time": 115.1221214375,
            "velocity": 0.3937007874015748
          },
          {
            "duration": 0.10869549999999606,
            "durationTicks": 96,
            "midi": 77,
            "name": "F5",
            "ticks": 101676,
            "time": 115.1221214375,
            "velocity": 0.3937007874015748
          },
          {
            "duration": 0.10869550000001027,
            "durationTicks": 96,
            "midi": 39,
            "name": "D#2",
            "ticks": 101772,
            "time": 115.2308169375,
            "velocity": 0.3937007874015748
          },
          {
            "duration": 0.10869550000001027,
            "durationTicks": 96,
            "midi": 27,
            "name": "D#1",
            "ticks": 101772,
            "time": 115.2308169375,
            "velocity": 0.3937007874015748
          },
          {
            "duration": 0.21739100000000633,
            "durationTicks": 192,
            "midi": 54,
            "name": "F#3",
            "ticks": 101772,
            "time": 115.2308169375,
            "velocity": 0.3937007874015748
          },
          {
            "duration": 0.21739100000000633,
            "durationTicks": 192,
            "midi": 90,
            "name": "F#6",
            "ticks": 101772,
            "time": 115.2308169375,
            "velocity": 0.3937007874015748
          },
          {
            "duration": 0.21739100000000633,
            "durationTicks": 192,
            "midi": 87,
            "name": "D#6",
            "ticks": 101772,
            "time": 115.2308169375,
            "velocity": 0.3937007874015748
          },
          {
            "duration": 0.21739100000000633,
            "durationTicks": 192,
            "midi": 75,
            "name": "D#5",
            "ticks": 101772,
            "time": 115.2308169375,
            "velocity": 0.3937007874015748
          },
          {
            "duration": 0.21739100000000633,
            "durationTicks": 192,
            "midi": 34,
            "name": "A#1",
            "ticks": 101772,
            "time": 115.2308169375,
            "velocity": 0.3937007874015748
          },
          {
            "duration": 0.21739100000000633,
            "durationTicks": 192,
            "midi": 78,
            "name": "F#5",
            "ticks": 101772,
            "time": 115.2308169375,
            "velocity": 0.3937007874015748
          },
          {
            "duration": 0.3260865000000024,
            "durationTicks": 288,
            "midi": 58,
            "name": "A#3",
            "ticks": 101772,
            "time": 115.2308169375,
            "velocity": 0.3937007874015748
          },
          {
            "duration": 0.43478200000001266,
            "durationTicks": 384,
            "midi": 63,
            "name": "D#4",
            "ticks": 101772,
            "time": 115.2308169375,
            "velocity": 0.3937007874015748
          },
          {
            "duration": 0.10869550000001027,
            "durationTicks": 96,
            "midi": 51,
            "name": "D#3",
            "ticks": 101772,
            "time": 115.2308169375,
            "velocity": 0.3937007874015748
          },
          {
            "duration": 0.3260865000000024,
            "durationTicks": 288,
            "midi": 54,
            "name": "F#3",
            "ticks": 101868,
            "time": 115.3395124375,
            "velocity": 0.3937007874015748
          },
          {
            "duration": 0.21739100000000633,
            "durationTicks": 192,
            "midi": 73,
            "name": "C#5",
            "ticks": 101964,
            "time": 115.4482079375,
            "velocity": 0.3937007874015748
          },
          {
            "duration": 0.21739100000000633,
            "durationTicks": 192,
            "midi": 58,
            "name": "A#3",
            "ticks": 101964,
            "time": 115.4482079375,
            "velocity": 0.3937007874015748
          },
          {
            "duration": 0.21739100000000633,
            "durationTicks": 192,
            "midi": 77,
            "name": "F5",
            "ticks": 101964,
            "time": 115.4482079375,
            "velocity": 0.3937007874015748
          },
          {
            "duration": 0.21739100000000633,
            "durationTicks": 192,
            "midi": 89,
            "name": "F6",
            "ticks": 101964,
            "time": 115.4482079375,
            "velocity": 0.3937007874015748
          },
          {
            "duration": 0.21739100000000633,
            "durationTicks": 192,
            "midi": 85,
            "name": "C#6",
            "ticks": 101964,
            "time": 115.4482079375,
            "velocity": 0.3937007874015748
          },
          {
            "duration": 0.10869549999999606,
            "durationTicks": 96,
            "midi": 39,
            "name": "D#2",
            "ticks": 101964,
            "time": 115.4482079375,
            "velocity": 0.3937007874015748
          },
          {
            "duration": 0.10869549999999606,
            "durationTicks": 96,
            "midi": 51,
            "name": "D#3",
            "ticks": 101964,
            "time": 115.4482079375,
            "velocity": 0.3937007874015748
          },
          {
            "duration": 0.10869550000001027,
            "durationTicks": 96,
            "midi": 63,
            "name": "D#4",
            "ticks": 102060,
            "time": 115.5569034375,
            "velocity": 0.3937007874015748
          },
          {
            "duration": 0.10869550000001027,
            "durationTicks": 96,
            "midi": 39,
            "name": "D#2",
            "ticks": 102060,
            "time": 115.5569034375,
            "velocity": 0.3937007874015748
          },
          {
            "duration": 0.10869550000001027,
            "durationTicks": 96,
            "midi": 51,
            "name": "D#3",
            "ticks": 102060,
            "time": 115.5569034375,
            "velocity": 0.3937007874015748
          },
          {
            "duration": 0.43478199999999845,
            "durationTicks": 384,
            "midi": 54,
            "name": "F#3",
            "ticks": 102156,
            "time": 115.66559893750001,
            "velocity": 0.3937007874015748
          },
          {
            "duration": 0.10869549999999606,
            "durationTicks": 96,
            "midi": 66,
            "name": "F#4",
            "ticks": 102156,
            "time": 115.66559893750001,
            "velocity": 0.3937007874015748
          },
          {
            "duration": 0.43478199999999845,
            "durationTicks": 384,
            "midi": 63,
            "name": "D#4",
            "ticks": 102156,
            "time": 115.66559893750001,
            "velocity": 0.3937007874015748
          },
          {
            "duration": 0.43478199999999845,
            "durationTicks": 384,
            "midi": 58,
            "name": "A#3",
            "ticks": 102156,
            "time": 115.66559893750001,
            "velocity": 0.3937007874015748
          },
          {
            "duration": 0.10869549999999606,
            "durationTicks": 96,
            "midi": 39,
            "name": "D#2",
            "ticks": 102156,
            "time": 115.66559893750001,
            "velocity": 0.3937007874015748
          },
          {
            "duration": 0.21739099999999212,
            "durationTicks": 192,
            "midi": 70,
            "name": "A#4",
            "ticks": 102156,
            "time": 115.66559893750001,
            "velocity": 0.3937007874015748
          },
          {
            "duration": 0.21739099999999212,
            "durationTicks": 192,
            "midi": 87,
            "name": "D#6",
            "ticks": 102156,
            "time": 115.66559893750001,
            "velocity": 0.3937007874015748
          },
          {
            "duration": 0.21739099999999212,
            "durationTicks": 192,
            "midi": 75,
            "name": "D#5",
            "ticks": 102156,
            "time": 115.66559893750001,
            "velocity": 0.3937007874015748
          },
          {
            "duration": 0.21739099999999212,
            "durationTicks": 192,
            "midi": 34,
            "name": "A#1",
            "ticks": 102156,
            "time": 115.66559893750001,
            "velocity": 0.3937007874015748
          },
          {
            "duration": 0.10869549999999606,
            "durationTicks": 96,
            "midi": 27,
            "name": "D#1",
            "ticks": 102156,
            "time": 115.66559893750001,
            "velocity": 0.3937007874015748
          },
          {
            "duration": 0.21739099999999212,
            "durationTicks": 192,
            "midi": 82,
            "name": "A#5",
            "ticks": 102156,
            "time": 115.66559893750001,
            "velocity": 0.3937007874015748
          },
          {
            "duration": 0.10869549999999606,
            "durationTicks": 96,
            "midi": 51,
            "name": "D#3",
            "ticks": 102252,
            "time": 115.7742944375,
            "velocity": 0.3937007874015748
          },
          {
            "duration": 0.10869549999999606,
            "durationTicks": 96,
            "midi": 70,
            "name": "A#4",
            "ticks": 102252,
            "time": 115.7742944375,
            "velocity": 0.3937007874015748
          },
          {
            "duration": 0.10869549999999606,
            "durationTicks": 96,
            "midi": 39,
            "name": "D#2",
            "ticks": 102252,
            "time": 115.7742944375,
            "velocity": 0.3937007874015748
          },
          {
            "duration": 0.21739100000000633,
            "durationTicks": 192,
            "midi": 80,
            "name": "G#5",
            "ticks": 102348,
            "time": 115.8829899375,
            "velocity": 0.3937007874015748
          },
          {
            "duration": 0.10869549999999606,
            "durationTicks": 96,
            "midi": 75,
            "name": "D#5",
            "ticks": 102348,
            "time": 115.8829899375,
            "velocity": 0.3937007874015748
          },
          {
            "duration": 0.21739100000000633,
            "durationTicks": 192,
            "midi": 85,
            "name": "C#6",
            "ticks": 102348,
            "time": 115.8829899375,
            "velocity": 0.3937007874015748
          },
          {
            "duration": 0.10869549999999606,
            "durationTicks": 96,
            "midi": 49,
            "name": "C#3",
            "ticks": 102348,
            "time": 115.8829899375,
            "velocity": 0.3937007874015748
          },
          {
            "duration": 0.21739100000000633,
            "durationTicks": 192,
            "midi": 68,
            "name": "G#4",
            "ticks": 102348,
            "time": 115.8829899375,
            "velocity": 0.3937007874015748
          },
          {
            "duration": 0.21739100000000633,
            "durationTicks": 192,
            "midi": 73,
            "name": "C#5",
            "ticks": 102348,
            "time": 115.8829899375,
            "velocity": 0.3937007874015748
          },
          {
            "duration": 0.10869549999999606,
            "durationTicks": 96,
            "midi": 37,
            "name": "C#2",
            "ticks": 102348,
            "time": 115.8829899375,
            "velocity": 0.3937007874015748
          },
          {
            "duration": 0.10869550000001027,
            "durationTicks": 96,
            "midi": 39,
            "name": "D#2",
            "ticks": 102444,
            "time": 115.9916854375,
            "velocity": 0.3937007874015748
          },
          {
            "duration": 0.10869550000001027,
            "durationTicks": 96,
            "midi": 78,
            "name": "F#5",
            "ticks": 102444,
            "time": 115.9916854375,
            "velocity": 0.3937007874015748
          },
          {
            "duration": 0.10869550000001027,
            "durationTicks": 96,
            "midi": 51,
            "name": "D#3",
            "ticks": 102444,
            "time": 115.9916854375,
            "velocity": 0.3937007874015748
          },
          {
            "duration": 0.43478199999999845,
            "durationTicks": 384,
            "midi": 78,
            "name": "F#5",
            "ticks": 102540,
            "time": 116.1003809375,
            "velocity": 0.3937007874015748
          },
          {
            "duration": 0.10869549999999606,
            "durationTicks": 96,
            "midi": 51,
            "name": "D#3",
            "ticks": 102540,
            "time": 116.1003809375,
            "velocity": 0.3937007874015748
          },
          {
            "duration": 0.43478199999999845,
            "durationTicks": 384,
            "midi": 82,
            "name": "A#5",
            "ticks": 102540,
            "time": 116.1003809375,
            "velocity": 0.3937007874015748
          },
          {
            "duration": 0.43478199999999845,
            "durationTicks": 384,
            "midi": 63,
            "name": "D#4",
            "ticks": 102540,
            "time": 116.1003809375,
            "velocity": 0.3937007874015748
          },
          {
            "duration": 0.43478199999999845,
            "durationTicks": 384,
            "midi": 70,
            "name": "A#4",
            "ticks": 102540,
            "time": 116.1003809375,
            "velocity": 0.3937007874015748
          },
          {
            "duration": 0.10869549999999606,
            "durationTicks": 96,
            "midi": 39,
            "name": "D#2",
            "ticks": 102540,
            "time": 116.1003809375,
            "velocity": 0.3937007874015748
          },
          {
            "duration": 0.21739099999999212,
            "durationTicks": 192,
            "midi": 54,
            "name": "F#3",
            "ticks": 102540,
            "time": 116.1003809375,
            "velocity": 0.3937007874015748
          },
          {
            "duration": 0.21739099999999212,
            "durationTicks": 192,
            "midi": 34,
            "name": "A#1",
            "ticks": 102540,
            "time": 116.1003809375,
            "velocity": 0.3937007874015748
          },
          {
            "duration": 0.10869549999999606,
            "durationTicks": 96,
            "midi": 27,
            "name": "D#1",
            "ticks": 102540,
            "time": 116.1003809375,
            "velocity": 0.3937007874015748
          },
          {
            "duration": 0.43478199999999845,
            "durationTicks": 384,
            "midi": 66,
            "name": "F#4",
            "ticks": 102540,
            "time": 116.1003809375,
            "velocity": 0.3937007874015748
          },
          {
            "duration": 0.3260864999999882,
            "durationTicks": 288,
            "midi": 58,
            "name": "A#3",
            "ticks": 102540,
            "time": 116.1003809375,
            "velocity": 0.3937007874015748
          },
          {
            "duration": 0.3260865000000024,
            "durationTicks": 288,
            "midi": 54,
            "name": "F#3",
            "ticks": 102636,
            "time": 116.2090764375,
            "velocity": 0.3937007874015748
          },
          {
            "duration": 0.10869549999999606,
            "durationTicks": 96,
            "midi": 51,
            "name": "D#3",
            "ticks": 102732,
            "time": 116.3177719375,
            "velocity": 0.3937007874015748
          },
          {
            "duration": 0.21739100000000633,
            "durationTicks": 192,
            "midi": 58,
            "name": "A#3",
            "ticks": 102732,
            "time": 116.3177719375,
            "velocity": 0.3937007874015748
          },
          {
            "duration": 0.10869549999999606,
            "durationTicks": 96,
            "midi": 39,
            "name": "D#2",
            "ticks": 102732,
            "time": 116.3177719375,
            "velocity": 0.3937007874015748
          },
          {
            "duration": 0.10869550000001027,
            "durationTicks": 96,
            "midi": 51,
            "name": "D#3",
            "ticks": 102828,
            "time": 116.4264674375,
            "velocity": 0.3937007874015748
          },
          {
            "duration": 0.10869550000001027,
            "durationTicks": 96,
            "midi": 39,
            "name": "D#2",
            "ticks": 102828,
            "time": 116.4264674375,
            "velocity": 0.3937007874015748
          },
          {
            "duration": 0.10869550000001027,
            "durationTicks": 96,
            "midi": 63,
            "name": "D#4",
            "ticks": 102828,
            "time": 116.4264674375,
            "velocity": 0.3937007874015748
          },
          {
            "duration": 0.43478199999999845,
            "durationTicks": 384,
            "midi": 58,
            "name": "A#3",
            "ticks": 102924,
            "time": 116.5351629375,
            "velocity": 0.3937007874015748
          },
          {
            "duration": 0.10869549999999606,
            "durationTicks": 96,
            "midi": 39,
            "name": "D#2",
            "ticks": 102924,
            "time": 116.5351629375,
            "velocity": 0.3937007874015748
          },
          {
            "duration": 0.10869549999999606,
            "durationTicks": 96,
            "midi": 27,
            "name": "D#1",
            "ticks": 102924,
            "time": 116.5351629375,
            "velocity": 0.3937007874015748
          },
          {
            "duration": 0.21739099999999212,
            "durationTicks": 192,
            "midi": 80,
            "name": "G#5",
            "ticks": 102924,
            "time": 116.5351629375,
            "velocity": 0.3937007874015748
          },
          {
            "duration": 0.21739099999999212,
            "durationTicks": 192,
            "midi": 34,
            "name": "A#1",
            "ticks": 102924,
            "time": 116.5351629375,
            "velocity": 0.3937007874015748
          },
          {
            "duration": 0.21739099999999212,
            "durationTicks": 192,
            "midi": 65,
            "name": "F4",
            "ticks": 102924,
            "time": 116.5351629375,
            "velocity": 0.3937007874015748
          },
          {
            "duration": 0.43478199999999845,
            "durationTicks": 384,
            "midi": 54,
            "name": "F#3",
            "ticks": 102924,
            "time": 116.5351629375,
            "velocity": 0.3937007874015748
          },
          {
            "duration": 0.21739099999999212,
            "durationTicks": 192,
            "midi": 68,
            "name": "G#4",
            "ticks": 102924,
            "time": 116.5351629375,
            "velocity": 0.3937007874015748
          },
          {
            "duration": 0.43478199999999845,
            "durationTicks": 384,
            "midi": 63,
            "name": "D#4",
            "ticks": 102924,
            "time": 116.5351629375,
            "velocity": 0.3937007874015748
          },
          {
            "duration": 0.21739099999999212,
            "durationTicks": 192,
            "midi": 77,
            "name": "F5",
            "ticks": 102924,
            "time": 116.5351629375,
            "velocity": 0.3937007874015748
          },
          {
            "duration": 0.10869549999999606,
            "durationTicks": 96,
            "midi": 66,
            "name": "F#4",
            "ticks": 102924,
            "time": 116.5351629375,
            "velocity": 0.3937007874015748
          },
          {
            "duration": 0.10869549999999606,
            "durationTicks": 96,
            "midi": 39,
            "name": "D#2",
            "ticks": 103020,
            "time": 116.6438584375,
            "velocity": 0.3937007874015748
          },
          {
            "duration": 0.10869549999999606,
            "durationTicks": 96,
            "midi": 70,
            "name": "A#4",
            "ticks": 103020,
            "time": 116.6438584375,
            "velocity": 0.3937007874015748
          },
          {
            "duration": 0.10869549999999606,
            "durationTicks": 96,
            "midi": 51,
            "name": "D#3",
            "ticks": 103020,
            "time": 116.6438584375,
            "velocity": 0.3937007874015748
          },
          {
            "duration": 0.21739100000000633,
            "durationTicks": 192,
            "midi": 78,
            "name": "F#5",
            "ticks": 103116,
            "time": 116.7525539375,
            "velocity": 0.3937007874015748
          },
          {
            "duration": 0.10869550000001027,
            "durationTicks": 96,
            "midi": 49,
            "name": "C#3",
            "ticks": 103116,
            "time": 116.7525539375,
            "velocity": 0.3937007874015748
          },
          {
            "duration": 0.21739100000000633,
            "durationTicks": 192,
            "midi": 82,
            "name": "A#5",
            "ticks": 103116,
            "time": 116.7525539375,
            "velocity": 0.3937007874015748
          },
          {
            "duration": 0.10869550000001027,
            "durationTicks": 96,
            "midi": 75,
            "name": "D#5",
            "ticks": 103116,
            "time": 116.7525539375,
            "velocity": 0.3937007874015748
          },
          {
            "duration": 0.21739100000000633,
            "durationTicks": 192,
            "midi": 66,
            "name": "F#4",
            "ticks": 103116,
            "time": 116.7525539375,
            "velocity": 0.3937007874015748
          },
          {
            "duration": 0.10869550000001027,
            "durationTicks": 96,
            "midi": 37,
            "name": "C#2",
            "ticks": 103116,
            "time": 116.7525539375,
            "velocity": 0.3937007874015748
          },
          {
            "duration": 0.21739100000000633,
            "durationTicks": 192,
            "midi": 70,
            "name": "A#4",
            "ticks": 103116,
            "time": 116.7525539375,
            "velocity": 0.3937007874015748
          },
          {
            "duration": 0.10869549999999606,
            "durationTicks": 96,
            "midi": 78,
            "name": "F#5",
            "ticks": 103212,
            "time": 116.8612494375,
            "velocity": 0.3937007874015748
          },
          {
            "duration": 0.10869549999999606,
            "durationTicks": 96,
            "midi": 51,
            "name": "D#3",
            "ticks": 103212,
            "time": 116.8612494375,
            "velocity": 0.3937007874015748
          },
          {
            "duration": 0.10869549999999606,
            "durationTicks": 96,
            "midi": 39,
            "name": "D#2",
            "ticks": 103212,
            "time": 116.8612494375,
            "velocity": 0.3937007874015748
          },
          {
            "duration": 0.21739099999999212,
            "durationTicks": 192,
            "midi": 77,
            "name": "F5",
            "ticks": 103308,
            "time": 116.9699449375,
            "velocity": 0.3937007874015748
          },
          {
            "duration": 0.3260865000000024,
            "durationTicks": 288,
            "midi": 58,
            "name": "A#3",
            "ticks": 103308,
            "time": 116.9699449375,
            "velocity": 0.3937007874015748
          },
          {
            "duration": 0.21739099999999212,
            "durationTicks": 192,
            "midi": 34,
            "name": "A#1",
            "ticks": 103308,
            "time": 116.9699449375,
            "velocity": 0.3937007874015748
          },
          {
            "duration": 0.21739099999999212,
            "durationTicks": 192,
            "midi": 68,
            "name": "G#4",
            "ticks": 103308,
            "time": 116.9699449375,
            "velocity": 0.3937007874015748
          },
          {
            "duration": 0.10869549999999606,
            "durationTicks": 96,
            "midi": 51,
            "name": "D#3",
            "ticks": 103308,
            "time": 116.9699449375,
            "velocity": 0.3937007874015748
          },
          {
            "duration": 0.21739099999999212,
            "durationTicks": 192,
            "midi": 65,
            "name": "F4",
            "ticks": 103308,
            "time": 116.9699449375,
            "velocity": 0.3937007874015748
          },
          {
            "duration": 0.21739099999999212,
            "durationTicks": 192,
            "midi": 80,
            "name": "G#5",
            "ticks": 103308,
            "time": 116.9699449375,
            "velocity": 0.3937007874015748
          },
          {
            "duration": 0.21739099999999212,
            "durationTicks": 192,
            "midi": 54,
            "name": "F#3",
            "ticks": 103308,
            "time": 116.9699449375,
            "velocity": 0.3937007874015748
          },
          {
            "duration": 0.10869549999999606,
            "durationTicks": 96,
            "midi": 27,
            "name": "D#1",
            "ticks": 103308,
            "time": 116.9699449375,
            "velocity": 0.3937007874015748
          },
          {
            "duration": 0.43478199999999845,
            "durationTicks": 384,
            "midi": 63,
            "name": "D#4",
            "ticks": 103308,
            "time": 116.9699449375,
            "velocity": 0.3937007874015748
          },
          {
            "duration": 0.10869549999999606,
            "durationTicks": 96,
            "midi": 39,
            "name": "D#2",
            "ticks": 103308,
            "time": 116.9699449375,
            "velocity": 0.3937007874015748
          },
          {
            "duration": 0.3260865000000024,
            "durationTicks": 288,
            "midi": 54,
            "name": "F#3",
            "ticks": 103404,
            "time": 117.0786404375,
            "velocity": 0.3937007874015748
          },
          {
            "duration": 0.21739100000000633,
            "durationTicks": 192,
            "midi": 66,
            "name": "F#4",
            "ticks": 103500,
            "time": 117.1873359375,
            "velocity": 0.3937007874015748
          },
          {
            "duration": 0.10869550000001027,
            "durationTicks": 96,
            "midi": 51,
            "name": "D#3",
            "ticks": 103500,
            "time": 117.1873359375,
            "velocity": 0.3937007874015748
          },
          {
            "duration": 0.21739100000000633,
            "durationTicks": 192,
            "midi": 75,
            "name": "D#5",
            "ticks": 103500,
            "time": 117.1873359375,
            "velocity": 0.3937007874015748
          },
          {
            "duration": 0.10869550000001027,
            "durationTicks": 96,
            "midi": 39,
            "name": "D#2",
            "ticks": 103500,
            "time": 117.1873359375,
            "velocity": 0.3937007874015748
          },
          {
            "duration": 0.21739100000000633,
            "durationTicks": 192,
            "midi": 78,
            "name": "F#5",
            "ticks": 103500,
            "time": 117.1873359375,
            "velocity": 0.3937007874015748
          },
          {
            "duration": 0.21739100000000633,
            "durationTicks": 192,
            "midi": 63,
            "name": "D#4",
            "ticks": 103500,
            "time": 117.1873359375,
            "velocity": 0.3937007874015748
          },
          {
            "duration": 0.21739100000000633,
            "durationTicks": 192,
            "midi": 58,
            "name": "A#3",
            "ticks": 103500,
            "time": 117.1873359375,
            "velocity": 0.3937007874015748
          },
          {
            "duration": 0.10869549999999606,
            "durationTicks": 96,
            "midi": 39,
            "name": "D#2",
            "ticks": 103596,
            "time": 117.2960314375,
            "velocity": 0.3937007874015748
          },
          {
            "duration": 0.10869549999999606,
            "durationTicks": 96,
            "midi": 63,
            "name": "D#4",
            "ticks": 103596,
            "time": 117.2960314375,
            "velocity": 0.3937007874015748
          },
          {
            "duration": 0.10869549999999606,
            "durationTicks": 96,
            "midi": 51,
            "name": "D#3",
            "ticks": 103596,
            "time": 117.2960314375,
            "velocity": 0.3937007874015748
          },
          {
            "duration": 0.43478199999999845,
            "durationTicks": 384,
            "midi": 63,
            "name": "D#4",
            "ticks": 103692,
            "time": 117.4047269375,
            "velocity": 0.3937007874015748
          },
          {
            "duration": 0.21739099999999212,
            "durationTicks": 192,
            "midi": 34,
            "name": "A#1",
            "ticks": 103692,
            "time": 117.4047269375,
            "velocity": 0.3937007874015748
          },
          {
            "duration": 0.21739099999999212,
            "durationTicks": 192,
            "midi": 77,
            "name": "F5",
            "ticks": 103692,
            "time": 117.4047269375,
            "velocity": 0.3937007874015748
          },
          {
            "duration": 0.21739099999999212,
            "durationTicks": 192,
            "midi": 73,
            "name": "C#5",
            "ticks": 103692,
            "time": 117.4047269375,
            "velocity": 0.3937007874015748
          },
          {
            "duration": 0.10869549999999606,
            "durationTicks": 96,
            "midi": 27,
            "name": "D#1",
            "ticks": 103692,
            "time": 117.4047269375,
            "velocity": 0.3937007874015748
          },
          {
            "duration": 0.21739099999999212,
            "durationTicks": 192,
            "midi": 65,
            "name": "F4",
            "ticks": 103692,
            "time": 117.4047269375,
            "velocity": 0.3937007874015748
          },
          {
            "duration": 0.43478199999999845,
            "durationTicks": 384,
            "midi": 54,
            "name": "F#3",
            "ticks": 103692,
            "time": 117.4047269375,
            "velocity": 0.3937007874015748
          },
          {
            "duration": 0.21739099999999212,
            "durationTicks": 192,
            "midi": 61,
            "name": "C#4",
            "ticks": 103692,
            "time": 117.4047269375,
            "velocity": 0.3937007874015748
          },
          {
            "duration": 0.10869549999999606,
            "durationTicks": 96,
            "midi": 66,
            "name": "F#4",
            "ticks": 103692,
            "time": 117.4047269375,
            "velocity": 0.3937007874015748
          },
          {
            "duration": 0.10869549999999606,
            "durationTicks": 96,
            "midi": 39,
            "name": "D#2",
            "ticks": 103692,
            "time": 117.4047269375,
            "velocity": 0.3937007874015748
          },
          {
            "duration": 0.43478199999999845,
            "durationTicks": 384,
            "midi": 58,
            "name": "A#3",
            "ticks": 103692,
            "time": 117.4047269375,
            "velocity": 0.3937007874015748
          },
          {
            "duration": 0.10869549999999606,
            "durationTicks": 96,
            "midi": 51,
            "name": "D#3",
            "ticks": 103788,
            "time": 117.5134224375,
            "velocity": 0.3937007874015748
          },
          {
            "duration": 0.10869549999999606,
            "durationTicks": 96,
            "midi": 39,
            "name": "D#2",
            "ticks": 103788,
            "time": 117.5134224375,
            "velocity": 0.3937007874015748
          },
          {
            "duration": 0.10869549999999606,
            "durationTicks": 96,
            "midi": 70,
            "name": "A#4",
            "ticks": 103788,
            "time": 117.5134224375,
            "velocity": 0.3937007874015748
          },
          {
            "duration": 0.10869550000001027,
            "durationTicks": 96,
            "midi": 37,
            "name": "C#2",
            "ticks": 103884,
            "time": 117.6221179375,
            "velocity": 0.3937007874015748
          },
          {
            "duration": 0.21739100000000633,
            "durationTicks": 192,
            "midi": 61,
            "name": "C#4",
            "ticks": 103884,
            "time": 117.6221179375,
            "velocity": 0.3937007874015748
          },
          {
            "duration": 0.21739100000000633,
            "durationTicks": 192,
            "midi": 68,
            "name": "G#4",
            "ticks": 103884,
            "time": 117.6221179375,
            "velocity": 0.3937007874015748
          },
          {
            "duration": 0.21739100000000633,
            "durationTicks": 192,
            "midi": 73,
            "name": "C#5",
            "ticks": 103884,
            "time": 117.6221179375,
            "velocity": 0.3937007874015748
          },
          {
            "duration": 0.10869550000001027,
            "durationTicks": 96,
            "midi": 75,
            "name": "D#5",
            "ticks": 103884,
            "time": 117.6221179375,
            "velocity": 0.3937007874015748
          },
          {
            "duration": 0.10869550000001027,
            "durationTicks": 96,
            "midi": 49,
            "name": "C#3",
            "ticks": 103884,
            "time": 117.6221179375,
            "velocity": 0.3937007874015748
          },
          {
            "duration": 0.21739100000000633,
            "durationTicks": 192,
            "midi": 56,
            "name": "G#3",
            "ticks": 103884,
            "time": 117.6221179375,
            "velocity": 0.3937007874015748
          },
          {
            "duration": 0.10869549999999606,
            "durationTicks": 96,
            "midi": 39,
            "name": "D#2",
            "ticks": 103980,
            "time": 117.7308134375,
            "velocity": 0.3937007874015748
          },
          {
            "duration": 0.10869549999999606,
            "durationTicks": 96,
            "midi": 51,
            "name": "D#3",
            "ticks": 103980,
            "time": 117.7308134375,
            "velocity": 0.3937007874015748
          },
          {
            "duration": 0.10869549999999606,
            "durationTicks": 96,
            "midi": 78,
            "name": "F#5",
            "ticks": 103980,
            "time": 117.7308134375,
            "velocity": 0.3937007874015748
          },
          {
            "duration": 0.10869549999999606,
            "durationTicks": 96,
            "midi": 51,
            "name": "D#3",
            "ticks": 104076,
            "time": 117.8395089375,
            "velocity": 0.3937007874015748
          },
          {
            "duration": 0.21739100000000633,
            "durationTicks": 192,
            "midi": 70,
            "name": "A#4",
            "ticks": 104076,
            "time": 117.8395089375,
            "velocity": 0.3937007874015748
          },
          {
            "duration": 0.10869549999999606,
            "durationTicks": 96,
            "midi": 39,
            "name": "D#2",
            "ticks": 104076,
            "time": 117.8395089375,
            "velocity": 0.3937007874015748
          },
          {
            "duration": 0.4359142447916753,
            "durationTicks": 385,
            "midi": 54,
            "name": "F#3",
            "ticks": 104076,
            "time": 117.8395089375,
            "velocity": 0.3937007874015748
          },
          {
            "duration": 0.10869549999999606,
            "durationTicks": 96,
            "midi": 34,
            "name": "A#1",
            "ticks": 104076,
            "time": 117.8395089375,
            "velocity": 0.3937007874015748
          },
          {
            "duration": 0.21739100000000633,
            "durationTicks": 192,
            "midi": 63,
            "name": "D#4",
            "ticks": 104076,
            "time": 117.8395089375,
            "velocity": 0.3937007874015748
          },
          {
            "duration": 0.10869549999999606,
            "durationTicks": 96,
            "midi": 61,
            "name": "C#4",
            "ticks": 104076,
            "time": 117.8395089375,
            "velocity": 0.3937007874015748
          },
          {
            "duration": 0.21739100000000633,
            "durationTicks": 192,
            "midi": 58,
            "name": "A#3",
            "ticks": 104076,
            "time": 117.8395089375,
            "velocity": 0.3937007874015748
          },
          {
            "duration": 0.4359142447916753,
            "durationTicks": 385,
            "midi": 58,
            "name": "A#3",
            "ticks": 104076,
            "time": 117.8395089375,
            "velocity": 0.3937007874015748
          },
          {
            "duration": 0.4359142447916753,
            "durationTicks": 385,
            "midi": 61,
            "name": "C#4",
            "ticks": 104076,
            "time": 117.8395089375,
            "velocity": 0.3937007874015748
          },
          {
            "duration": 0.21739100000000633,
            "durationTicks": 192,
            "midi": 75,
            "name": "D#5",
            "ticks": 104076,
            "time": 117.8395089375,
            "velocity": 0.3937007874015748
          },
          {
            "duration": 0.6533052447916816,
            "durationTicks": 577,
            "midi": 87,
            "name": "D#6",
            "ticks": 104076,
            "time": 117.8395089375,
            "velocity": 0.3937007874015748
          },
          {
            "duration": 0.10869550000001027,
            "durationTicks": 96,
            "midi": 66,
            "name": "F#4",
            "ticks": 104172,
            "time": 117.9482044375,
            "velocity": 0.3937007874015748
          },
          {
            "duration": 0.10869549999999606,
            "durationTicks": 96,
            "midi": 34,
            "name": "A#1",
            "ticks": 104204,
            "time": 117.98443627083333,
            "velocity": 0.3937007874015748
          },
          {
            "duration": 0.1098277447916729,
            "durationTicks": 97,
            "midi": 70,
            "name": "A#4",
            "ticks": 104268,
            "time": 118.0568999375,
            "velocity": 0.3937007874015748
          },
          {
            "duration": 0.1098277447916729,
            "durationTicks": 97,
            "midi": 46,
            "name": "A#2",
            "ticks": 104268,
            "time": 118.0568999375,
            "velocity": 0.3937007874015748
          },
          {
            "duration": 0.1098277447916729,
            "durationTicks": 97,
            "midi": 34,
            "name": "A#1",
            "ticks": 104268,
            "time": 118.0568999375,
            "velocity": 0.3937007874015748
          },
          {
            "duration": 0.10869550000001027,
            "durationTicks": 96,
            "midi": 34,
            "name": "A#1",
            "ticks": 104333,
            "time": 118.13049584895832,
            "velocity": 0.3937007874015748
          },
          {
            "duration": 0.10869549999999606,
            "durationTicks": 96,
            "midi": 37,
            "name": "C#2",
            "ticks": 104365,
            "time": 118.16672768229168,
            "velocity": 0.3937007874015748
          },
          {
            "duration": 0.10869549999999606,
            "durationTicks": 96,
            "midi": 73,
            "name": "C#5",
            "ticks": 104365,
            "time": 118.16672768229168,
            "velocity": 0.3937007874015748
          },
          {
            "duration": 0.10869549999999606,
            "durationTicks": 96,
            "midi": 49,
            "name": "C#3",
            "ticks": 104365,
            "time": 118.16672768229168,
            "velocity": 0.3937007874015748
          },
          {
            "duration": 0.10869549999999606,
            "durationTicks": 96,
            "midi": 44,
            "name": "G#2",
            "ticks": 104461,
            "time": 118.27542318229168,
            "velocity": 0.3937007874015748
          },
          {
            "duration": 0.21739100000000633,
            "durationTicks": 192,
            "midi": 66,
            "name": "F#4",
            "ticks": 104461,
            "time": 118.27542318229168,
            "velocity": 0.3937007874015748
          },
          {
            "duration": 0.21739100000000633,
            "durationTicks": 192,
            "midi": 78,
            "name": "F#5",
            "ticks": 104461,
            "time": 118.27542318229168,
            "velocity": 0.3937007874015748
          },
          {
            "duration": 0.43591424479164687,
            "durationTicks": 385,
            "midi": 51,
            "name": "D#3",
            "ticks": 104461,
            "time": 118.27542318229168,
            "velocity": 0.3937007874015748
          },
          {
            "duration": 0.21739100000000633,
            "durationTicks": 192,
            "midi": 82,
            "name": "A#5",
            "ticks": 104461,
            "time": 118.27542318229168,
            "velocity": 0.3937007874015748
          },
          {
            "duration": 0.43591424479164687,
            "durationTicks": 385,
            "midi": 56,
            "name": "G#3",
            "ticks": 104461,
            "time": 118.27542318229168,
            "velocity": 0.3937007874015748
          },
          {
            "duration": 0.10869549999999606,
            "durationTicks": 96,
            "midi": 32,
            "name": "G#1",
            "ticks": 104461,
            "time": 118.27542318229168,
            "velocity": 0.3937007874015748
          },
          {
            "duration": 0.10869549999999606,
            "durationTicks": 96,
            "midi": 60,
            "name": "C4",
            "ticks": 104461,
            "time": 118.27542318229168,
            "velocity": 0.3937007874015748
          },
          {
            "duration": 0.21739100000000633,
            "durationTicks": 192,
            "midi": 70,
            "name": "A#4",
            "ticks": 104461,
            "time": 118.27542318229168,
            "velocity": 0.3937007874015748
          },
          {
            "duration": 0.10869549999999606,
            "durationTicks": 96,
            "midi": 34,
            "name": "A#1",
            "ticks": 104461,
            "time": 118.27542318229168,
            "velocity": 0.3937007874015748
          },
          {
            "duration": 0.43591424479164687,
            "durationTicks": 385,
            "midi": 60,
            "name": "C4",
            "ticks": 104461,
            "time": 118.27542318229168,
            "velocity": 0.3937007874015748
          },
          {
            "duration": 0.10869550000001027,
            "durationTicks": 96,
            "midi": 63,
            "name": "D#4",
            "ticks": 104557,
            "time": 118.38411868229167,
            "velocity": 0.3937007874015748
          },
          {
            "duration": 0.10869549999999606,
            "durationTicks": 96,
            "midi": 34,
            "name": "A#1",
            "ticks": 104589,
            "time": 118.420350515625,
            "velocity": 0.3937007874015748
          },
          {
            "duration": 0.21852324479164054,
            "durationTicks": 193,
            "midi": 73,
            "name": "C#5",
            "ticks": 104653,
            "time": 118.49281418229168,
            "velocity": 0.3937007874015748
          },
          {
            "duration": 0.10982774479164448,
            "durationTicks": 97,
            "midi": 68,
            "name": "G#4",
            "ticks": 104653,
            "time": 118.49281418229168,
            "velocity": 0.3937007874015748
          },
          {
            "duration": 0.21852324479164054,
            "durationTicks": 193,
            "midi": 85,
            "name": "C#6",
            "ticks": 104653,
            "time": 118.49281418229168,
            "velocity": 0.3937007874015748
          },
          {
            "duration": 0.10982774479164448,
            "durationTicks": 97,
            "midi": 42,
            "name": "F#2",
            "ticks": 104653,
            "time": 118.49281418229168,
            "velocity": 0.3937007874015748
          },
          {
            "duration": 0.21852324479164054,
            "durationTicks": 193,
            "midi": 68,
            "name": "G#4",
            "ticks": 104653,
            "time": 118.49281418229168,
            "velocity": 0.3937007874015748
          },
          {
            "duration": 0.10982774479164448,
            "durationTicks": 97,
            "midi": 30,
            "name": "F#1",
            "ticks": 104653,
            "time": 118.49281418229168,
            "velocity": 0.3937007874015748
          },
          {
            "duration": 0.21852324479164054,
            "durationTicks": 193,
            "midi": 80,
            "name": "G#5",
            "ticks": 104653,
            "time": 118.49281418229168,
            "velocity": 0.3937007874015748
          },
          {
            "duration": 0.10869550000001027,
            "durationTicks": 96,
            "midi": 34,
            "name": "A#1",
            "ticks": 104718,
            "time": 118.56641009375,
            "velocity": 0.3937007874015748
          },
          {
            "duration": 0.10869549999999606,
            "durationTicks": 96,
            "midi": 44,
            "name": "G#2",
            "ticks": 104750,
            "time": 118.60264192708333,
            "velocity": 0.3937007874015748
          },
          {
            "duration": 0.10869549999999606,
            "durationTicks": 96,
            "midi": 72,
            "name": "C5",
            "ticks": 104750,
            "time": 118.60264192708333,
            "velocity": 0.3937007874015748
          },
          {
            "duration": 0.10869549999999606,
            "durationTicks": 96,
            "midi": 32,
            "name": "G#1",
            "ticks": 104750,
            "time": 118.60264192708333,
            "velocity": 0.3937007874015748
          },
          {
            "duration": 0.21739100000000633,
            "durationTicks": 192,
            "midi": 59,
            "name": "B3",
            "ticks": 104846,
            "time": 118.71133742708332,
            "velocity": 0.3937007874015748
          },
          {
            "duration": 0.21739100000000633,
            "durationTicks": 192,
            "midi": 85,
            "name": "C#6",
            "ticks": 104846,
            "time": 118.71133742708332,
            "velocity": 0.3937007874015748
          },
          {
            "duration": 0.10869550000001027,
            "durationTicks": 96,
            "midi": 47,
            "name": "B2",
            "ticks": 104846,
            "time": 118.71133742708332,
            "velocity": 0.3937007874015748
          },
          {
            "duration": 1.739128000000008,
            "durationTicks": 1536,
            "midi": 35,
            "name": "B1",
            "ticks": 104846,
            "time": 118.71133742708332,
            "velocity": 0.3937007874015748
          },
          {
            "duration": 0.21739100000000633,
            "durationTicks": 192,
            "midi": 68,
            "name": "G#4",
            "ticks": 104846,
            "time": 118.71133742708332,
            "velocity": 0.3937007874015748
          },
          {
            "duration": 1.739128000000008,
            "durationTicks": 1536,
            "midi": 30,
            "name": "F#1",
            "ticks": 104846,
            "time": 118.71133742708332,
            "velocity": 0.3937007874015748
          },
          {
            "duration": 0.21739100000000633,
            "durationTicks": 192,
            "midi": 80,
            "name": "G#5",
            "ticks": 104846,
            "time": 118.71133742708332,
            "velocity": 0.3937007874015748
          },
          {
            "duration": 0.21739100000000633,
            "durationTicks": 192,
            "midi": 54,
            "name": "F#3",
            "ticks": 104846,
            "time": 118.71133742708332,
            "velocity": 0.3937007874015748
          },
          {
            "duration": 0.21739100000000633,
            "durationTicks": 192,
            "midi": 73,
            "name": "C#5",
            "ticks": 104846,
            "time": 118.71133742708332,
            "velocity": 0.3937007874015748
          },
          {
            "duration": 0.21739100000000633,
            "durationTicks": 192,
            "midi": 51,
            "name": "D#3",
            "ticks": 104846,
            "time": 118.71133742708332,
            "velocity": 0.3937007874015748
          },
          {
            "duration": 0.9782595000000072,
            "durationTicks": 864,
            "midi": 47,
            "name": "B2",
            "ticks": 104846,
            "time": 118.71133742708332,
            "velocity": 0.3937007874015748
          },
          {
            "duration": 1.739128000000008,
            "durationTicks": 1536,
            "midi": 42,
            "name": "F#2",
            "ticks": 104846,
            "time": 118.71133742708332,
            "velocity": 0.3937007874015748
          },
          {
            "duration": 0.10869549999999606,
            "durationTicks": 96,
            "midi": 51,
            "name": "D#3",
            "ticks": 104942,
            "time": 118.82003292708333,
            "velocity": 0.3937007874015748
          },
          {
            "duration": 0.3260865000000024,
            "durationTicks": 288,
            "midi": 51,
            "name": "D#3",
            "ticks": 105038,
            "time": 118.92872842708333,
            "velocity": 0.3937007874015748
          },
          {
            "duration": 0.21739099999999212,
            "durationTicks": 192,
            "midi": 70,
            "name": "A#4",
            "ticks": 105038,
            "time": 118.92872842708333,
            "velocity": 0.3937007874015748
          },
          {
            "duration": 0.21739099999999212,
            "durationTicks": 192,
            "midi": 87,
            "name": "D#6",
            "ticks": 105038,
            "time": 118.92872842708333,
            "velocity": 0.3937007874015748
          },
          {
            "duration": 0.10869549999999606,
            "durationTicks": 96,
            "midi": 54,
            "name": "F#3",
            "ticks": 105038,
            "time": 118.92872842708333,
            "velocity": 0.3937007874015748
          },
          {
            "duration": 0.3260865000000024,
            "durationTicks": 288,
            "midi": 54,
            "name": "F#3",
            "ticks": 105038,
            "time": 118.92872842708333,
            "velocity": 0.3937007874015748
          },
          {
            "duration": 0.21739099999999212,
            "durationTicks": 192,
            "midi": 82,
            "name": "A#5",
            "ticks": 105038,
            "time": 118.92872842708333,
            "velocity": 0.3937007874015748
          },
          {
            "duration": 0.21739099999999212,
            "durationTicks": 192,
            "midi": 59,
            "name": "B3",
            "ticks": 105038,
            "time": 118.92872842708333,
            "velocity": 0.3937007874015748
          },
          {
            "duration": 0.21739099999999212,
            "durationTicks": 192,
            "midi": 75,
            "name": "D#5",
            "ticks": 105038,
            "time": 118.92872842708333,
            "velocity": 0.3937007874015748
          },
          {
            "duration": 0.21739100000000633,
            "durationTicks": 192,
            "midi": 59,
            "name": "B3",
            "ticks": 105134,
            "time": 119.03742392708332,
            "velocity": 0.3937007874015748
          },
          {
            "duration": 0.10869550000001027,
            "durationTicks": 96,
            "midi": 63,
            "name": "D#4",
            "ticks": 105230,
            "time": 119.14611942708332,
            "velocity": 0.3937007874015748
          },
          {
            "duration": 0.21739100000000633,
            "durationTicks": 192,
            "midi": 70,
            "name": "A#4",
            "ticks": 105230,
            "time": 119.14611942708332,
            "velocity": 0.3937007874015748
          },
          {
            "duration": 0.21739100000000633,
            "durationTicks": 192,
            "midi": 82,
            "name": "A#5",
            "ticks": 105230,
            "time": 119.14611942708332,
            "velocity": 0.3937007874015748
          },
          {
            "duration": 0.21739100000000633,
            "durationTicks": 192,
            "midi": 66,
            "name": "F#4",
            "ticks": 105230,
            "time": 119.14611942708332,
            "velocity": 0.3937007874015748
          },
          {
            "duration": 0.21739100000000633,
            "durationTicks": 192,
            "midi": 78,
            "name": "F#5",
            "ticks": 105230,
            "time": 119.14611942708332,
            "velocity": 0.3937007874015748
          },
          {
            "duration": 0.3260864999999882,
            "durationTicks": 288,
            "midi": 59,
            "name": "B3",
            "ticks": 105326,
            "time": 119.25481492708333,
            "velocity": 0.3937007874015748
          },
          {
            "duration": 0.10869549999999606,
            "durationTicks": 96,
            "midi": 66,
            "name": "F#4",
            "ticks": 105326,
            "time": 119.25481492708333,
            "velocity": 0.3937007874015748
          },
          {
            "duration": 0.3260864999999882,
            "durationTicks": 288,
            "midi": 54,
            "name": "F#3",
            "ticks": 105326,
            "time": 119.25481492708333,
            "velocity": 0.3937007874015748
          },
          {
            "duration": 0.3260864999999882,
            "durationTicks": 288,
            "midi": 51,
            "name": "D#3",
            "ticks": 105326,
            "time": 119.25481492708333,
            "velocity": 0.3937007874015748
          },
          {
            "duration": 0.10869549999999606,
            "durationTicks": 96,
            "midi": 71,
            "name": "B4",
            "ticks": 105422,
            "time": 119.36351042708333,
            "velocity": 0.3937007874015748
          },
          {
            "duration": 0.21739099999999212,
            "durationTicks": 192,
            "midi": 68,
            "name": "G#4",
            "ticks": 105422,
            "time": 119.36351042708333,
            "velocity": 0.3937007874015748
          },
          {
            "duration": 0.21739099999999212,
            "durationTicks": 192,
            "midi": 65,
            "name": "F4",
            "ticks": 105422,
            "time": 119.36351042708333,
            "velocity": 0.3937007874015748
          },
          {
            "duration": 0.21739099999999212,
            "durationTicks": 192,
            "midi": 80,
            "name": "G#5",
            "ticks": 105422,
            "time": 119.36351042708333,
            "velocity": 0.3937007874015748
          },
          {
            "duration": 0.21739099999999212,
            "durationTicks": 192,
            "midi": 77,
            "name": "F5",
            "ticks": 105422,
            "time": 119.36351042708333,
            "velocity": 0.3937007874015748
          },
          {
            "duration": 0.10869549999999606,
            "durationTicks": 96,
            "midi": 75,
            "name": "D#5",
            "ticks": 105518,
            "time": 119.47220592708332,
            "velocity": 0.3937007874015748
          },
          {
            "duration": 0.21739100000000633,
            "durationTicks": 192,
            "midi": 78,
            "name": "F#5",
            "ticks": 105614,
            "time": 119.58090142708332,
            "velocity": 0.3937007874015748
          },
          {
            "duration": 0.21739100000000633,
            "durationTicks": 192,
            "midi": 66,
            "name": "F#4",
            "ticks": 105614,
            "time": 119.58090142708332,
            "velocity": 0.3937007874015748
          },
          {
            "duration": 0.21739100000000633,
            "durationTicks": 192,
            "midi": 51,
            "name": "D#3",
            "ticks": 105614,
            "time": 119.58090142708332,
            "velocity": 0.3937007874015748
          },
          {
            "duration": 0.8695640000000111,
            "durationTicks": 768,
            "midi": 47,
            "name": "B2",
            "ticks": 105614,
            "time": 119.58090142708332,
            "velocity": 0.3937007874015748
          },
          {
            "duration": 0.21739100000000633,
            "durationTicks": 192,
            "midi": 59,
            "name": "B3",
            "ticks": 105614,
            "time": 119.58090142708332,
            "velocity": 0.3937007874015748
          },
          {
            "duration": 0.21739100000000633,
            "durationTicks": 192,
            "midi": 54,
            "name": "F#3",
            "ticks": 105614,
            "time": 119.58090142708332,
            "velocity": 0.3937007874015748
          },
          {
            "duration": 0.21739100000000633,
            "durationTicks": 192,
            "midi": 70,
            "name": "A#4",
            "ticks": 105614,
            "time": 119.58090142708332,
            "velocity": 0.3937007874015748
          },
          {
            "duration": 0.21739100000000633,
            "durationTicks": 192,
            "midi": 82,
            "name": "A#5",
            "ticks": 105614,
            "time": 119.58090142708332,
            "velocity": 0.3937007874015748
          },
          {
            "duration": 0.10869549999999606,
            "durationTicks": 96,
            "midi": 51,
            "name": "D#3",
            "ticks": 105710,
            "time": 119.68959692708333,
            "velocity": 0.3937007874015748
          },
          {
            "duration": 0.21739100000000633,
            "durationTicks": 192,
            "midi": 59,
            "name": "B3",
            "ticks": 105806,
            "time": 119.79829242708333,
            "velocity": 0.3937007874015748
          },
          {
            "duration": 0.10869549999999606,
            "durationTicks": 96,
            "midi": 54,
            "name": "F#3",
            "ticks": 105806,
            "time": 119.79829242708333,
            "velocity": 0.3937007874015748
          },
          {
            "duration": 0.3260865000000024,
            "durationTicks": 288,
            "midi": 54,
            "name": "F#3",
            "ticks": 105806,
            "time": 119.79829242708333,
            "velocity": 0.3937007874015748
          },
          {
            "duration": 0.3260865000000024,
            "durationTicks": 288,
            "midi": 51,
            "name": "D#3",
            "ticks": 105806,
            "time": 119.79829242708333,
            "velocity": 0.3937007874015748
          },
          {
            "duration": 0.21739100000000633,
            "durationTicks": 192,
            "midi": 59,
            "name": "B3",
            "ticks": 105902,
            "time": 119.90698792708332,
            "velocity": 0.3937007874015748
          },
          {
            "duration": 0.21739099999999212,
            "durationTicks": 192,
            "midi": 65,
            "name": "F4",
            "ticks": 105998,
            "time": 120.01568342708333,
            "velocity": 0.3937007874015748
          },
          {
            "duration": 0.21739099999999212,
            "durationTicks": 192,
            "midi": 80,
            "name": "G#5",
            "ticks": 105998,
            "time": 120.01568342708333,
            "velocity": 0.3937007874015748
          },
          {
            "duration": 0.21739099999999212,
            "durationTicks": 192,
            "midi": 77,
            "name": "F5",
            "ticks": 105998,
            "time": 120.01568342708333,
            "velocity": 0.3937007874015748
          },
          {
            "duration": 0.21739099999999212,
            "durationTicks": 192,
            "midi": 68,
            "name": "G#4",
            "ticks": 105998,
            "time": 120.01568342708333,
            "velocity": 0.3937007874015748
          },
          {
            "duration": 0.10869549999999606,
            "durationTicks": 96,
            "midi": 63,
            "name": "D#4",
            "ticks": 105998,
            "time": 120.01568342708333,
            "velocity": 0.3937007874015748
          },
          {
            "duration": 0.10869549999999606,
            "durationTicks": 96,
            "midi": 66,
            "name": "F#4",
            "ticks": 106094,
            "time": 120.12437892708333,
            "velocity": 0.3937007874015748
          },
          {
            "duration": 0.3260865000000024,
            "durationTicks": 288,
            "midi": 54,
            "name": "F#3",
            "ticks": 106094,
            "time": 120.12437892708333,
            "velocity": 0.3937007874015748
          },
          {
            "duration": 0.3260865000000024,
            "durationTicks": 288,
            "midi": 51,
            "name": "D#3",
            "ticks": 106094,
            "time": 120.12437892708333,
            "velocity": 0.3937007874015748
          },
          {
            "duration": 0.3260865000000024,
            "durationTicks": 288,
            "midi": 59,
            "name": "B3",
            "ticks": 106094,
            "time": 120.12437892708333,
            "velocity": 0.3937007874015748
          },
          {
            "duration": 0.21739100000000633,
            "durationTicks": 192,
            "midi": 70,
            "name": "A#4",
            "ticks": 106190,
            "time": 120.23307442708332,
            "velocity": 0.3937007874015748
          },
          {
            "duration": 0.21739100000000633,
            "durationTicks": 192,
            "midi": 78,
            "name": "F#5",
            "ticks": 106190,
            "time": 120.23307442708332,
            "velocity": 0.3937007874015748
          },
          {
            "duration": 0.21739100000000633,
            "durationTicks": 192,
            "midi": 66,
            "name": "F#4",
            "ticks": 106190,
            "time": 120.23307442708332,
            "velocity": 0.3937007874015748
          },
          {
            "duration": 0.10869549999999606,
            "durationTicks": 96,
            "midi": 71,
            "name": "B4",
            "ticks": 106190,
            "time": 120.23307442708332,
            "velocity": 0.3937007874015748
          },
          {
            "duration": 0.21739100000000633,
            "durationTicks": 192,
            "midi": 82,
            "name": "A#5",
            "ticks": 106190,
            "time": 120.23307442708332,
            "velocity": 0.3937007874015748
          },
          {
            "duration": 0.10869550000001027,
            "durationTicks": 96,
            "midi": 75,
            "name": "D#5",
            "ticks": 106286,
            "time": 120.34176992708332,
            "velocity": 0.3937007874015748
          },
          {
            "duration": 0.21739099999999212,
            "durationTicks": 192,
            "midi": 73,
            "name": "C#5",
            "ticks": 106382,
            "time": 120.45046542708333,
            "velocity": 0.3937007874015748
          },
          {
            "duration": 0.21739099999999212,
            "durationTicks": 192,
            "midi": 68,
            "name": "G#4",
            "ticks": 106382,
            "time": 120.45046542708333,
            "velocity": 0.3937007874015748
          },
          {
            "duration": 0.21739099999999212,
            "durationTicks": 192,
            "midi": 61,
            "name": "C#4",
            "ticks": 106382,
            "time": 120.45046542708333,
            "velocity": 0.3937007874015748
          },
          {
            "duration": 0.21739099999999212,
            "durationTicks": 192,
            "midi": 56,
            "name": "G#3",
            "ticks": 106382,
            "time": 120.45046542708333,
            "velocity": 0.3937007874015748
          },
          {
            "duration": 0.21739099999999212,
            "durationTicks": 192,
            "midi": 85,
            "name": "C#6",
            "ticks": 106382,
            "time": 120.45046542708333,
            "velocity": 0.3937007874015748
          },
          {
            "duration": 1.7391279999999938,
            "durationTicks": 1536,
            "midi": 32,
            "name": "G#1",
            "ticks": 106382,
            "time": 120.45046542708333,
            "velocity": 0.3937007874015748
          },
          {
            "duration": 1.7391279999999938,
            "durationTicks": 1536,
            "midi": 44,
            "name": "G#2",
            "ticks": 106382,
            "time": 120.45046542708333,
            "velocity": 0.3937007874015748
          },
          {
            "duration": 0.10869549999999606,
            "durationTicks": 96,
            "midi": 49,
            "name": "C#3",
            "ticks": 106382,
            "time": 120.45046542708333,
            "velocity": 0.3937007874015748
          },
          {
            "duration": 0.978259499999993,
            "durationTicks": 864,
            "midi": 49,
            "name": "C#3",
            "ticks": 106382,
            "time": 120.45046542708333,
            "velocity": 0.3937007874015748
          },
          {
            "duration": 0.21739099999999212,
            "durationTicks": 192,
            "midi": 80,
            "name": "G#5",
            "ticks": 106382,
            "time": 120.45046542708333,
            "velocity": 0.3937007874015748
          },
          {
            "duration": 1.7391279999999938,
            "durationTicks": 1536,
            "midi": 37,
            "name": "C#2",
            "ticks": 106382,
            "time": 120.45046542708333,
            "velocity": 0.3937007874015748
          },
          {
            "duration": 0.21739099999999212,
            "durationTicks": 192,
            "midi": 53,
            "name": "F3",
            "ticks": 106382,
            "time": 120.45046542708333,
            "velocity": 0.3937007874015748
          },
          {
            "duration": 0.10869549999999606,
            "durationTicks": 96,
            "midi": 53,
            "name": "F3",
            "ticks": 106478,
            "time": 120.55916092708333,
            "velocity": 0.3937007874015748
          },
          {
            "duration": 0.21739100000000633,
            "durationTicks": 192,
            "midi": 82,
            "name": "A#5",
            "ticks": 106574,
            "time": 120.66785642708332,
            "velocity": 0.3937007874015748
          },
          {
            "duration": 0.21739100000000633,
            "durationTicks": 192,
            "midi": 87,
            "name": "D#6",
            "ticks": 106574,
            "time": 120.66785642708332,
            "velocity": 0.3937007874015748
          },
          {
            "duration": 0.21739100000000633,
            "durationTicks": 192,
            "midi": 70,
            "name": "A#4",
            "ticks": 106574,
            "time": 120.66785642708332,
            "velocity": 0.3937007874015748
          },
          {
            "duration": 0.10869550000001027,
            "durationTicks": 96,
            "midi": 56,
            "name": "G#3",
            "ticks": 106574,
            "time": 120.66785642708332,
            "velocity": 0.3937007874015748
          },
          {
            "duration": 0.3260865000000024,
            "durationTicks": 288,
            "midi": 53,
            "name": "F3",
            "ticks": 106574,
            "time": 120.66785642708332,
            "velocity": 0.3937007874015748
          },
          {
            "duration": 0.21739100000000633,
            "durationTicks": 192,
            "midi": 75,
            "name": "D#5",
            "ticks": 106574,
            "time": 120.66785642708332,
            "velocity": 0.3937007874015748
          },
          {
            "duration": 0.3260865000000024,
            "durationTicks": 288,
            "midi": 56,
            "name": "G#3",
            "ticks": 106574,
            "time": 120.66785642708332,
            "velocity": 0.3937007874015748
          },
          {
            "duration": 0.21739100000000633,
            "durationTicks": 192,
            "midi": 61,
            "name": "C#4",
            "ticks": 106574,
            "time": 120.66785642708332,
            "velocity": 0.3937007874015748
          },
          {
            "duration": 0.21739099999999212,
            "durationTicks": 192,
            "midi": 61,
            "name": "C#4",
            "ticks": 106670,
            "time": 120.77655192708333,
            "velocity": 0.3937007874015748
          },
          {
            "duration": 0.21739099999999212,
            "durationTicks": 192,
            "midi": 66,
            "name": "F#4",
            "ticks": 106766,
            "time": 120.88524742708333,
            "velocity": 0.3937007874015748
          },
          {
            "duration": 0.21739099999999212,
            "durationTicks": 192,
            "midi": 70,
            "name": "A#4",
            "ticks": 106766,
            "time": 120.88524742708333,
            "velocity": 0.3937007874015748
          },
          {
            "duration": 0.10869549999999606,
            "durationTicks": 96,
            "midi": 65,
            "name": "F4",
            "ticks": 106766,
            "time": 120.88524742708333,
            "velocity": 0.3937007874015748
          },
          {
            "duration": 0.21739099999999212,
            "durationTicks": 192,
            "midi": 78,
            "name": "F#5",
            "ticks": 106766,
            "time": 120.88524742708333,
            "velocity": 0.3937007874015748
          },
          {
            "duration": 0.21739099999999212,
            "durationTicks": 192,
            "midi": 82,
            "name": "A#5",
            "ticks": 106766,
            "time": 120.88524742708333,
            "velocity": 0.3937007874015748
          },
          {
            "duration": 0.3260865000000024,
            "durationTicks": 288,
            "midi": 56,
            "name": "G#3",
            "ticks": 106862,
            "time": 120.99394292708332,
            "velocity": 0.3937007874015748
          },
          {
            "duration": 0.3260865000000024,
            "durationTicks": 288,
            "midi": 61,
            "name": "C#4",
            "ticks": 106862,
            "time": 120.99394292708332,
            "velocity": 0.3937007874015748
          },
          {
            "duration": 0.3260865000000024,
            "durationTicks": 288,
            "midi": 53,
            "name": "F3",
            "ticks": 106862,
            "time": 120.99394292708332,
            "velocity": 0.3937007874015748
          },
          {
            "duration": 0.10869549999999606,
            "durationTicks": 96,
            "midi": 68,
            "name": "G#4",
            "ticks": 106862,
            "time": 120.99394292708332,
            "velocity": 0.3937007874015748
          },
          {
            "duration": 0.10869550000001027,
            "durationTicks": 96,
            "midi": 73,
            "name": "C#5",
            "ticks": 106958,
            "time": 121.10263842708332,
            "velocity": 0.3937007874015748
          },
          {
            "duration": 0.21739100000000633,
            "durationTicks": 192,
            "midi": 68,
            "name": "G#4",
            "ticks": 106958,
            "time": 121.10263842708332,
            "velocity": 0.3937007874015748
          },
          {
            "duration": 0.21739100000000633,
            "durationTicks": 192,
            "midi": 77,
            "name": "F5",
            "ticks": 106958,
            "time": 121.10263842708332,
            "velocity": 0.3937007874015748
          },
          {
            "duration": 0.21739100000000633,
            "durationTicks": 192,
            "midi": 65,
            "name": "F4",
            "ticks": 106958,
            "time": 121.10263842708332,
            "velocity": 0.3937007874015748
          },
          {
            "duration": 0.21739100000000633,
            "durationTicks": 192,
            "midi": 80,
            "name": "G#5",
            "ticks": 106958,
            "time": 121.10263842708332,
            "velocity": 0.3937007874015748
          },
          {
            "duration": 0.10869549999999606,
            "durationTicks": 96,
            "midi": 77,
            "name": "F5",
            "ticks": 107054,
            "time": 121.21133392708333,
            "velocity": 0.3937007874015748
          },
          {
            "duration": 0.21739099999999212,
            "durationTicks": 192,
            "midi": 53,
            "name": "F3",
            "ticks": 107150,
            "time": 121.32002942708333,
            "velocity": 0.3937007874015748
          },
          {
            "duration": 0.21739099999999212,
            "durationTicks": 192,
            "midi": 56,
            "name": "G#3",
            "ticks": 107150,
            "time": 121.32002942708333,
            "velocity": 0.3937007874015748
          },
          {
            "duration": 0.21739099999999212,
            "durationTicks": 192,
            "midi": 82,
            "name": "A#5",
            "ticks": 107150,
            "time": 121.32002942708333,
            "velocity": 0.3937007874015748
          },
          {
            "duration": 0.21739099999999212,
            "durationTicks": 192,
            "midi": 78,
            "name": "F#5",
            "ticks": 107150,
            "time": 121.32002942708333,
            "velocity": 0.3937007874015748
          },
          {
            "duration": 0.21739099999999212,
            "durationTicks": 192,
            "midi": 61,
            "name": "C#4",
            "ticks": 107150,
            "time": 121.32002942708333,
            "velocity": 0.3937007874015748
          },
          {
            "duration": 0.21739099999999212,
            "durationTicks": 192,
            "midi": 70,
            "name": "A#4",
            "ticks": 107150,
            "time": 121.32002942708333,
            "velocity": 0.3937007874015748
          },
          {
            "duration": 0.21739099999999212,
            "durationTicks": 192,
            "midi": 66,
            "name": "F#4",
            "ticks": 107150,
            "time": 121.32002942708333,
            "velocity": 0.3937007874015748
          },
          {
            "duration": 0.8695639999999969,
            "durationTicks": 768,
            "midi": 49,
            "name": "C#3",
            "ticks": 107150,
            "time": 121.32002942708333,
            "velocity": 0.3937007874015748
          },
          {
            "duration": 0.10869549999999606,
            "durationTicks": 96,
            "midi": 53,
            "name": "F3",
            "ticks": 107246,
            "time": 121.42872492708332,
            "velocity": 0.3937007874015748
          },
          {
            "duration": 0.21739100000000633,
            "durationTicks": 192,
            "midi": 61,
            "name": "C#4",
            "ticks": 107342,
            "time": 121.53742042708332,
            "velocity": 0.3937007874015748
          },
          {
            "duration": 0.10869550000001027,
            "durationTicks": 96,
            "midi": 56,
            "name": "G#3",
            "ticks": 107342,
            "time": 121.53742042708332,
            "velocity": 0.3937007874015748
          },
          {
            "duration": 0.3260865000000024,
            "durationTicks": 288,
            "midi": 53,
            "name": "F3",
            "ticks": 107342,
            "time": 121.53742042708332,
            "velocity": 0.3937007874015748
          },
          {
            "duration": 0.3260865000000024,
            "durationTicks": 288,
            "midi": 56,
            "name": "G#3",
            "ticks": 107342,
            "time": 121.53742042708332,
            "velocity": 0.3937007874015748
          },
          {
            "duration": 0.21739099999999212,
            "durationTicks": 192,
            "midi": 61,
            "name": "C#4",
            "ticks": 107438,
            "time": 121.64611592708333,
            "velocity": 0.3937007874015748
          },
          {
            "duration": 0.21739100000000633,
            "durationTicks": 192,
            "midi": 68,
            "name": "G#4",
            "ticks": 107534,
            "time": 121.75481142708333,
            "velocity": 0.3937007874015748
          },
          {
            "duration": 0.10869549999999606,
            "durationTicks": 96,
            "midi": 65,
            "name": "F4",
            "ticks": 107534,
            "time": 121.75481142708333,
            "velocity": 0.3937007874015748
          },
          {
            "duration": 0.21739100000000633,
            "durationTicks": 192,
            "midi": 80,
            "name": "G#5",
            "ticks": 107534,
            "time": 121.75481142708333,
            "velocity": 0.3937007874015748
          },
          {
            "duration": 0.21739100000000633,
            "durationTicks": 192,
            "midi": 77,
            "name": "F5",
            "ticks": 107534,
            "time": 121.75481142708333,
            "velocity": 0.3937007874015748
          },
          {
            "duration": 0.21739100000000633,
            "durationTicks": 192,
            "midi": 65,
            "name": "F4",
            "ticks": 107534,
            "time": 121.75481142708333,
            "velocity": 0.3937007874015748
          },
          {
            "duration": 0.10869550000001027,
            "durationTicks": 96,
            "midi": 68,
            "name": "G#4",
            "ticks": 107630,
            "time": 121.86350692708332,
            "velocity": 0.3937007874015748
          },
          {
            "duration": 0.3260865000000024,
            "durationTicks": 288,
            "midi": 56,
            "name": "G#3",
            "ticks": 107630,
            "time": 121.86350692708332,
            "velocity": 0.3937007874015748
          },
          {
            "duration": 0.3260865000000024,
            "durationTicks": 288,
            "midi": 61,
            "name": "C#4",
            "ticks": 107630,
            "time": 121.86350692708332,
            "velocity": 0.3937007874015748
          },
          {
            "duration": 0.3260865000000024,
            "durationTicks": 288,
            "midi": 53,
            "name": "F3",
            "ticks": 107630,
            "time": 121.86350692708332,
            "velocity": 0.3937007874015748
          },
          {
            "duration": 0.21739099999999212,
            "durationTicks": 192,
            "midi": 70,
            "name": "A#4",
            "ticks": 107726,
            "time": 121.97220242708333,
            "velocity": 0.3937007874015748
          },
          {
            "duration": 0.21739099999999212,
            "durationTicks": 192,
            "midi": 66,
            "name": "F#4",
            "ticks": 107726,
            "time": 121.97220242708333,
            "velocity": 0.3937007874015748
          },
          {
            "duration": 0.21739099999999212,
            "durationTicks": 192,
            "midi": 82,
            "name": "A#5",
            "ticks": 107726,
            "time": 121.97220242708333,
            "velocity": 0.3937007874015748
          },
          {
            "duration": 0.21739099999999212,
            "durationTicks": 192,
            "midi": 78,
            "name": "F#5",
            "ticks": 107726,
            "time": 121.97220242708333,
            "velocity": 0.3937007874015748
          },
          {
            "duration": 0.10869549999999606,
            "durationTicks": 96,
            "midi": 73,
            "name": "C#5",
            "ticks": 107726,
            "time": 121.97220242708333,
            "velocity": 0.3937007874015748
          },
          {
            "duration": 0.10869549999999606,
            "durationTicks": 96,
            "midi": 77,
            "name": "F5",
            "ticks": 107822,
            "time": 122.08089792708333,
            "velocity": 0.3937007874015748
          },
          {
            "duration": 0.21739100000000633,
            "durationTicks": 192,
            "midi": 68,
            "name": "G#4",
            "ticks": 107918,
            "time": 122.18959342708332,
            "velocity": 0.3937007874015748
          },
          {
            "duration": 0.21739100000000633,
            "durationTicks": 192,
            "midi": 80,
            "name": "G#5",
            "ticks": 107918,
            "time": 122.18959342708332,
            "velocity": 0.3937007874015748
          },
          {
            "duration": 0.10869549999999606,
            "durationTicks": 96,
            "midi": 51,
            "name": "D#3",
            "ticks": 107918,
            "time": 122.18959342708332,
            "velocity": 0.3937007874015748
          },
          {
            "duration": 1.739128000000008,
            "durationTicks": 1536,
            "midi": 46,
            "name": "A#2",
            "ticks": 107918,
            "time": 122.18959342708332,
            "velocity": 0.3937007874015748
          },
          {
            "duration": 0.21739100000000633,
            "durationTicks": 192,
            "midi": 65,
            "name": "F4",
            "ticks": 107918,
            "time": 122.18959342708332,
            "velocity": 0.3937007874015748
          },
          {
            "duration": 0.21739100000000633,
            "durationTicks": 192,
            "midi": 63,
            "name": "D#4",
            "ticks": 107918,
            "time": 122.18959342708332,
            "velocity": 0.3937007874015748
          },
          {
            "duration": 1.739128000000008,
            "durationTicks": 1536,
            "midi": 34,
            "name": "A#1",
            "ticks": 107918,
            "time": 122.18959342708332,
            "velocity": 0.3937007874015748
          },
          {
            "duration": 0.21739100000000633,
            "durationTicks": 192,
            "midi": 58,
            "name": "A#3",
            "ticks": 107918,
            "time": 122.18959342708332,
            "velocity": 0.3937007874015748
          },
          {
            "duration": 1.739128000000008,
            "durationTicks": 1536,
            "midi": 39,
            "name": "D#2",
            "ticks": 107918,
            "time": 122.18959342708332,
            "velocity": 0.3937007874015748
          },
          {
            "duration": 0.21739100000000633,
            "durationTicks": 192,
            "midi": 54,
            "name": "F#3",
            "ticks": 107918,
            "time": 122.18959342708332,
            "velocity": 0.3937007874015748
          },
          {
            "duration": 0.21739100000000633,
            "durationTicks": 192,
            "midi": 77,
            "name": "F5",
            "ticks": 107918,
            "time": 122.18959342708332,
            "velocity": 0.3937007874015748
          },
          {
            "duration": 0.9782595000000072,
            "durationTicks": 864,
            "midi": 51,
            "name": "D#3",
            "ticks": 107918,
            "time": 122.18959342708332,
            "velocity": 0.3937007874015748
          },
          {
            "duration": 0.10869550000001027,
            "durationTicks": 96,
            "midi": 54,
            "name": "F#3",
            "ticks": 108014,
            "time": 122.29828892708332,
            "velocity": 0.3937007874015748
          },
          {
            "duration": 0.21739099999999212,
            "durationTicks": 192,
            "midi": 63,
            "name": "D#4",
            "ticks": 108110,
            "time": 122.40698442708333,
            "velocity": 0.3937007874015748
          },
          {
            "duration": 0.21739099999999212,
            "durationTicks": 192,
            "midi": 75,
            "name": "D#5",
            "ticks": 108110,
            "time": 122.40698442708333,
            "velocity": 0.3937007874015748
          },
          {
            "duration": 0.10869549999999606,
            "durationTicks": 96,
            "midi": 58,
            "name": "A#3",
            "ticks": 108110,
            "time": 122.40698442708333,
            "velocity": 0.3937007874015748
          },
          {
            "duration": 0.3260865000000024,
            "durationTicks": 288,
            "midi": 54,
            "name": "F#3",
            "ticks": 108110,
            "time": 122.40698442708333,
            "velocity": 0.3937007874015748
          },
          {
            "duration": 0.21739099999999212,
            "durationTicks": 192,
            "midi": 78,
            "name": "F#5",
            "ticks": 108110,
            "time": 122.40698442708333,
            "velocity": 0.3937007874015748
          },
          {
            "duration": 0.3260865000000024,
            "durationTicks": 288,
            "midi": 58,
            "name": "A#3",
            "ticks": 108110,
            "time": 122.40698442708333,
            "velocity": 0.3937007874015748
          },
          {
            "duration": 0.21739099999999212,
            "durationTicks": 192,
            "midi": 66,
            "name": "F#4",
            "ticks": 108110,
            "time": 122.40698442708333,
            "velocity": 0.3937007874015748
          },
          {
            "duration": 0.21739099999999212,
            "durationTicks": 192,
            "midi": 63,
            "name": "D#4",
            "ticks": 108110,
            "time": 122.40698442708333,
            "velocity": 0.3937007874015748
          },
          {
            "duration": 0.21739100000000633,
            "durationTicks": 192,
            "midi": 63,
            "name": "D#4",
            "ticks": 108206,
            "time": 122.51567992708333,
            "velocity": 0.3937007874015748
          },
          {
            "duration": 0.21739100000000633,
            "durationTicks": 192,
            "midi": 61,
            "name": "C#4",
            "ticks": 108302,
            "time": 122.62437542708332,
            "velocity": 0.3937007874015748
          },
          {
            "duration": 0.21739100000000633,
            "durationTicks": 192,
            "midi": 65,
            "name": "F4",
            "ticks": 108302,
            "time": 122.62437542708332,
            "velocity": 0.3937007874015748
          },
          {
            "duration": 0.10869550000001027,
            "durationTicks": 96,
            "midi": 66,
            "name": "F#4",
            "ticks": 108302,
            "time": 122.62437542708332,
            "velocity": 0.3937007874015748
          },
          {
            "duration": 0.21739100000000633,
            "durationTicks": 192,
            "midi": 73,
            "name": "C#5",
            "ticks": 108302,
            "time": 122.62437542708332,
            "velocity": 0.3937007874015748
          },
          {
            "duration": 0.21739100000000633,
            "durationTicks": 192,
            "midi": 77,
            "name": "F5",
            "ticks": 108302,
            "time": 122.62437542708332,
            "velocity": 0.3937007874015748
          },
          {
            "duration": 0.3260864999999882,
            "durationTicks": 288,
            "midi": 54,
            "name": "F#3",
            "ticks": 108398,
            "time": 122.73307092708333,
            "velocity": 0.3937007874015748
          },
          {
            "duration": 0.3260864999999882,
            "durationTicks": 288,
            "midi": 63,
            "name": "D#4",
            "ticks": 108398,
            "time": 122.73307092708333,
            "velocity": 0.3937007874015748
          },
          {
            "duration": 0.3260864999999882,
            "durationTicks": 288,
            "midi": 58,
            "name": "A#3",
            "ticks": 108398,
            "time": 122.73307092708333,
            "velocity": 0.3937007874015748
          },
          {
            "duration": 0.10869549999999606,
            "durationTicks": 96,
            "midi": 70,
            "name": "A#4",
            "ticks": 108398,
            "time": 122.73307092708333,
            "velocity": 0.3937007874015748
          },
          {
            "duration": 0.10869549999999606,
            "durationTicks": 96,
            "midi": 75,
            "name": "D#5",
            "ticks": 108494,
            "time": 122.84176642708333,
            "velocity": 0.3937007874015748
          },
          {
            "duration": 0.21739099999999212,
            "durationTicks": 192,
            "midi": 68,
            "name": "G#4",
            "ticks": 108494,
            "time": 122.84176642708333,
            "velocity": 0.3937007874015748
          },
          {
            "duration": 0.21739099999999212,
            "durationTicks": 192,
            "midi": 61,
            "name": "C#4",
            "ticks": 108494,
            "time": 122.84176642708333,
            "velocity": 0.3937007874015748
          },
          {
            "duration": 0.21739099999999212,
            "durationTicks": 192,
            "midi": 56,
            "name": "G#3",
            "ticks": 108494,
            "time": 122.84176642708333,
            "velocity": 0.3937007874015748
          },
          {
            "duration": 0.21739099999999212,
            "durationTicks": 192,
            "midi": 73,
            "name": "C#5",
            "ticks": 108494,
            "time": 122.84176642708333,
            "velocity": 0.3937007874015748
          },
          {
            "duration": 0.10869549999999606,
            "durationTicks": 96,
            "midi": 78,
            "name": "F#5",
            "ticks": 108590,
            "time": 122.95046192708332,
            "velocity": 0.3937007874015748
          },
          {
            "duration": 0.21739100000000633,
            "durationTicks": 192,
            "midi": 63,
            "name": "D#4",
            "ticks": 108686,
            "time": 123.05915742708332,
            "velocity": 0.3937007874015748
          },
          {
            "duration": 0.21739100000000633,
            "durationTicks": 192,
            "midi": 58,
            "name": "A#3",
            "ticks": 108686,
            "time": 123.05915742708332,
            "velocity": 0.3937007874015748
          },
          {
            "duration": 0.21739100000000633,
            "durationTicks": 192,
            "midi": 54,
            "name": "F#3",
            "ticks": 108686,
            "time": 123.05915742708332,
            "velocity": 0.3937007874015748
          },
          {
            "duration": 0.21739100000000633,
            "durationTicks": 192,
            "midi": 70,
            "name": "A#4",
            "ticks": 108686,
            "time": 123.05915742708332,
            "velocity": 0.3937007874015748
          },
          {
            "duration": 0.21739100000000633,
            "durationTicks": 192,
            "midi": 63,
            "name": "D#4",
            "ticks": 108686,
            "time": 123.05915742708332,
            "velocity": 0.3937007874015748
          },
          {
            "duration": 0.8695640000000111,
            "durationTicks": 768,
            "midi": 51,
            "name": "D#3",
            "ticks": 108686,
            "time": 123.05915742708332,
            "velocity": 0.3937007874015748
          },
          {
            "duration": 0.21739100000000633,
            "durationTicks": 192,
            "midi": 58,
            "name": "A#3",
            "ticks": 108686,
            "time": 123.05915742708332,
            "velocity": 0.3937007874015748
          },
          {
            "duration": 0.21739100000000633,
            "durationTicks": 192,
            "midi": 75,
            "name": "D#5",
            "ticks": 108686,
            "time": 123.05915742708332,
            "velocity": 0.3937007874015748
          },
          {
            "duration": 0.10869549999999606,
            "durationTicks": 96,
            "midi": 54,
            "name": "F#3",
            "ticks": 108782,
            "time": 123.16785292708333,
            "velocity": 0.3937007874015748
          },
          {
            "duration": 0.10869549999999606,
            "durationTicks": 96,
            "midi": 58,
            "name": "A#3",
            "ticks": 108878,
            "time": 123.27654842708333,
            "velocity": 0.3937007874015748
          },
          {
            "duration": 0.21739099999999212,
            "durationTicks": 192,
            "midi": 63,
            "name": "D#4",
            "ticks": 108878,
            "time": 123.27654842708333,
            "velocity": 0.3937007874015748
          },
          {
            "duration": 0.3260865000000024,
            "durationTicks": 288,
            "midi": 54,
            "name": "F#3",
            "ticks": 108878,
            "time": 123.27654842708333,
            "velocity": 0.3937007874015748
          },
          {
            "duration": 0.3260865000000024,
            "durationTicks": 288,
            "midi": 58,
            "name": "A#3",
            "ticks": 108878,
            "time": 123.27654842708333,
            "velocity": 0.3937007874015748
          },
          {
            "duration": 0.21739100000000633,
            "durationTicks": 192,
            "midi": 63,
            "name": "D#4",
            "ticks": 108974,
            "time": 123.38524392708332,
            "velocity": 0.3937007874015748
          },
          {
            "duration": 0.21739100000000633,
            "durationTicks": 192,
            "midi": 73,
            "name": "C#5",
            "ticks": 109070,
            "time": 123.49393942708332,
            "velocity": 0.3937007874015748
          },
          {
            "duration": 0.21739100000000633,
            "durationTicks": 192,
            "midi": 61,
            "name": "C#4",
            "ticks": 109070,
            "time": 123.49393942708332,
            "velocity": 0.3937007874015748
          },
          {
            "duration": 0.21739100000000633,
            "durationTicks": 192,
            "midi": 56,
            "name": "G#3",
            "ticks": 109070,
            "time": 123.49393942708332,
            "velocity": 0.3937007874015748
          },
          {
            "duration": 0.10869550000001027,
            "durationTicks": 96,
            "midi": 66,
            "name": "F#4",
            "ticks": 109070,
            "time": 123.49393942708332,
            "velocity": 0.3937007874015748
          },
          {
            "duration": 0.21739100000000633,
            "durationTicks": 192,
            "midi": 68,
            "name": "G#4",
            "ticks": 109070,
            "time": 123.49393942708332,
            "velocity": 0.3937007874015748
          },
          {
            "duration": 0.3260865000000024,
            "durationTicks": 288,
            "midi": 63,
            "name": "D#4",
            "ticks": 109166,
            "time": 123.60263492708333,
            "velocity": 0.3937007874015748
          },
          {
            "duration": 0.10869549999999606,
            "durationTicks": 96,
            "midi": 70,
            "name": "A#4",
            "ticks": 109166,
            "time": 123.60263492708333,
            "velocity": 0.3937007874015748
          },
          {
            "duration": 0.3260865000000024,
            "durationTicks": 288,
            "midi": 58,
            "name": "A#3",
            "ticks": 109166,
            "time": 123.60263492708333,
            "velocity": 0.3937007874015748
          },
          {
            "duration": 0.3260865000000024,
            "durationTicks": 288,
            "midi": 54,
            "name": "F#3",
            "ticks": 109166,
            "time": 123.60263492708333,
            "velocity": 0.3937007874015748
          },
          {
            "duration": 0.21739100000000633,
            "durationTicks": 192,
            "midi": 70,
            "name": "A#4",
            "ticks": 109262,
            "time": 123.71133042708333,
            "velocity": 0.3937007874015748
          },
          {
            "duration": 0.21739100000000633,
            "durationTicks": 192,
            "midi": 58,
            "name": "A#3",
            "ticks": 109262,
            "time": 123.71133042708333,
            "velocity": 0.3937007874015748
          },
          {
            "duration": 0.21739100000000633,
            "durationTicks": 192,
            "midi": 63,
            "name": "D#4",
            "ticks": 109262,
            "time": 123.71133042708333,
            "velocity": 0.3937007874015748
          },
          {
            "duration": 0.10869549999999606,
            "durationTicks": 96,
            "midi": 75,
            "name": "D#5",
            "ticks": 109262,
            "time": 123.71133042708333,
            "velocity": 0.3937007874015748
          },
          {
            "duration": 0.21739100000000633,
            "durationTicks": 192,
            "midi": 75,
            "name": "D#5",
            "ticks": 109262,
            "time": 123.71133042708333,
            "velocity": 0.3937007874015748
          },
          {
            "duration": 0.10869550000001027,
            "durationTicks": 96,
            "midi": 78,
            "name": "F#5",
            "ticks": 109358,
            "time": 123.82002592708332,
            "velocity": 0.3937007874015748
          },
          {
            "duration": 0.10869549999999606,
            "durationTicks": 96,
            "midi": 51,
            "name": "D#3",
            "ticks": 109454,
            "time": 123.92872142708333,
            "velocity": 0.3937007874015748
          },
          {
            "duration": 1.7391279999999938,
            "durationTicks": 1536,
            "midi": 34,
            "name": "A#1",
            "ticks": 109454,
            "time": 123.92872142708333,
            "velocity": 0.3937007874015748
          },
          {
            "duration": 1.7391279999999938,
            "durationTicks": 1536,
            "midi": 46,
            "name": "A#2",
            "ticks": 109454,
            "time": 123.92872142708333,
            "velocity": 0.3937007874015748
          },
          {
            "duration": 0.21739099999999212,
            "durationTicks": 192,
            "midi": 77,
            "name": "F5",
            "ticks": 109454,
            "time": 123.92872142708333,
            "velocity": 0.3937007874015748
          },
          {
            "duration": 1.7391279999999938,
            "durationTicks": 1536,
            "midi": 39,
            "name": "D#2",
            "ticks": 109454,
            "time": 123.92872142708333,
            "velocity": 0.3937007874015748
          },
          {
            "duration": 0.978259499999993,
            "durationTicks": 864,
            "midi": 51,
            "name": "D#3",
            "ticks": 109454,
            "time": 123.92872142708333,
            "velocity": 0.3937007874015748
          },
          {
            "duration": 0.21739099999999212,
            "durationTicks": 192,
            "midi": 61,
            "name": "C#4",
            "ticks": 109454,
            "time": 123.92872142708333,
            "velocity": 0.3937007874015748
          },
          {
            "duration": 0.21739099999999212,
            "durationTicks": 192,
            "midi": 58,
            "name": "A#3",
            "ticks": 109454,
            "time": 123.92872142708333,
            "velocity": 0.3937007874015748
          },
          {
            "duration": 0.21739099999999212,
            "durationTicks": 192,
            "midi": 63,
            "name": "D#4",
            "ticks": 109454,
            "time": 123.92872142708333,
            "velocity": 0.3937007874015748
          },
          {
            "duration": 0.21739099999999212,
            "durationTicks": 192,
            "midi": 73,
            "name": "C#5",
            "ticks": 109454,
            "time": 123.92872142708333,
            "velocity": 0.3937007874015748
          },
          {
            "duration": 0.21739099999999212,
            "durationTicks": 192,
            "midi": 54,
            "name": "F#3",
            "ticks": 109454,
            "time": 123.92872142708333,
            "velocity": 0.3937007874015748
          },
          {
            "duration": 0.21739099999999212,
            "durationTicks": 192,
            "midi": 65,
            "name": "F4",
            "ticks": 109454,
            "time": 123.92872142708333,
            "velocity": 0.3937007874015748
          },
          {
            "duration": 0.10869549999999606,
            "durationTicks": 96,
            "midi": 54,
            "name": "F#3",
            "ticks": 109550,
            "time": 124.03741692708333,
            "velocity": 0.3937007874015748
          },
          {
            "duration": 0.21739100000000633,
            "durationTicks": 192,
            "midi": 66,
            "name": "F#4",
            "ticks": 109646,
            "time": 124.14611242708332,
            "velocity": 0.3937007874015748
          },
          {
            "duration": 0.21739100000000633,
            "durationTicks": 192,
            "midi": 63,
            "name": "D#4",
            "ticks": 109646,
            "time": 124.14611242708332,
            "velocity": 0.3937007874015748
          },
          {
            "duration": 0.21739100000000633,
            "durationTicks": 192,
            "midi": 63,
            "name": "D#4",
            "ticks": 109646,
            "time": 124.14611242708332,
            "velocity": 0.3937007874015748
          },
          {
            "duration": 0.10869549999999606,
            "durationTicks": 96,
            "midi": 58,
            "name": "A#3",
            "ticks": 109646,
            "time": 124.14611242708332,
            "velocity": 0.3937007874015748
          },
          {
            "duration": 0.21739100000000633,
            "durationTicks": 192,
            "midi": 75,
            "name": "D#5",
            "ticks": 109646,
            "time": 124.14611242708332,
            "velocity": 0.3937007874015748
          },
          {
            "duration": 0.3260865000000024,
            "durationTicks": 288,
            "midi": 54,
            "name": "F#3",
            "ticks": 109646,
            "time": 124.14611242708332,
            "velocity": 0.3937007874015748
          },
          {
            "duration": 0.3260865000000024,
            "durationTicks": 288,
            "midi": 58,
            "name": "A#3",
            "ticks": 109646,
            "time": 124.14611242708332,
            "velocity": 0.3937007874015748
          },
          {
            "duration": 0.21739100000000633,
            "durationTicks": 192,
            "midi": 78,
            "name": "F#5",
            "ticks": 109646,
            "time": 124.14611242708332,
            "velocity": 0.3937007874015748
          },
          {
            "duration": 0.21739100000000633,
            "durationTicks": 192,
            "midi": 63,
            "name": "D#4",
            "ticks": 109742,
            "time": 124.25480792708332,
            "velocity": 0.3937007874015748
          },
          {
            "duration": 0.10869549999999606,
            "durationTicks": 96,
            "midi": 66,
            "name": "F#4",
            "ticks": 109838,
            "time": 124.36350342708333,
            "velocity": 0.3937007874015748
          },
          {
            "duration": 0.21739099999999212,
            "durationTicks": 192,
            "midi": 65,
            "name": "F4",
            "ticks": 109838,
            "time": 124.36350342708333,
            "velocity": 0.3937007874015748
          },
          {
            "duration": 0.21739099999999212,
            "durationTicks": 192,
            "midi": 80,
            "name": "G#5",
            "ticks": 109838,
            "time": 124.36350342708333,
            "velocity": 0.3937007874015748
          },
          {
            "duration": 0.21739099999999212,
            "durationTicks": 192,
            "midi": 77,
            "name": "F5",
            "ticks": 109838,
            "time": 124.36350342708333,
            "velocity": 0.3937007874015748
          },
          {
            "duration": 0.21739099999999212,
            "durationTicks": 192,
            "midi": 68,
            "name": "G#4",
            "ticks": 109838,
            "time": 124.36350342708333,
            "velocity": 0.3937007874015748
          },
          {
            "duration": 0.3260865000000024,
            "durationTicks": 288,
            "midi": 63,
            "name": "D#4",
            "ticks": 109934,
            "time": 124.47219892708333,
            "velocity": 0.3937007874015748
          },
          {
            "duration": 0.3260865000000024,
            "durationTicks": 288,
            "midi": 54,
            "name": "F#3",
            "ticks": 109934,
            "time": 124.47219892708333,
            "velocity": 0.3937007874015748
          },
          {
            "duration": 0.3260865000000024,
            "durationTicks": 288,
            "midi": 58,
            "name": "A#3",
            "ticks": 109934,
            "time": 124.47219892708333,
            "velocity": 0.3937007874015748
          },
          {
            "duration": 0.10869549999999606,
            "durationTicks": 96,
            "midi": 70,
            "name": "A#4",
            "ticks": 109934,
            "time": 124.47219892708333,
            "velocity": 0.3937007874015748
          },
          {
            "duration": 0.21739100000000633,
            "durationTicks": 192,
            "midi": 78,
            "name": "F#5",
            "ticks": 110030,
            "time": 124.58089442708332,
            "velocity": 0.3937007874015748
          },
          {
            "duration": 0.21739100000000633,
            "durationTicks": 192,
            "midi": 82,
            "name": "A#5",
            "ticks": 110030,
            "time": 124.58089442708332,
            "velocity": 0.3937007874015748
          },
          {
            "duration": 0.21739100000000633,
            "durationTicks": 192,
            "midi": 70,
            "name": "A#4",
            "ticks": 110030,
            "time": 124.58089442708332,
            "velocity": 0.3937007874015748
          },
          {
            "duration": 0.21739100000000633,
            "durationTicks": 192,
            "midi": 66,
            "name": "F#4",
            "ticks": 110030,
            "time": 124.58089442708332,
            "velocity": 0.3937007874015748
          },
          {
            "duration": 0.10869550000001027,
            "durationTicks": 96,
            "midi": 75,
            "name": "D#5",
            "ticks": 110030,
            "time": 124.58089442708332,
            "velocity": 0.3937007874015748
          },
          {
            "duration": 0.10869549999999606,
            "durationTicks": 96,
            "midi": 78,
            "name": "F#5",
            "ticks": 110126,
            "time": 124.68958992708333,
            "velocity": 0.3937007874015748
          },
          {
            "duration": 0.8695639999999969,
            "durationTicks": 768,
            "midi": 51,
            "name": "D#3",
            "ticks": 110222,
            "time": 124.79828542708333,
            "velocity": 0.3937007874015748
          },
          {
            "duration": 0.21739099999999212,
            "durationTicks": 192,
            "midi": 63,
            "name": "D#4",
            "ticks": 110222,
            "time": 124.79828542708333,
            "velocity": 0.3937007874015748
          },
          {
            "duration": 0.21739099999999212,
            "durationTicks": 192,
            "midi": 70,
            "name": "A#4",
            "ticks": 110222,
            "time": 124.79828542708333,
            "velocity": 0.3937007874015748
          },
          {
            "duration": 0.21739099999999212,
            "durationTicks": 192,
            "midi": 54,
            "name": "F#3",
            "ticks": 110222,
            "time": 124.79828542708333,
            "velocity": 0.3937007874015748
          },
          {
            "duration": 0.21739099999999212,
            "durationTicks": 192,
            "midi": 63,
            "name": "D#4",
            "ticks": 110222,
            "time": 124.79828542708333,
            "velocity": 0.3937007874015748
          },
          {
            "duration": 0.21739099999999212,
            "durationTicks": 192,
            "midi": 75,
            "name": "D#5",
            "ticks": 110222,
            "time": 124.79828542708333,
            "velocity": 0.3937007874015748
          },
          {
            "duration": 0.21739099999999212,
            "durationTicks": 192,
            "midi": 58,
            "name": "A#3",
            "ticks": 110222,
            "time": 124.79828542708333,
            "velocity": 0.3937007874015748
          },
          {
            "duration": 0.21739099999999212,
            "durationTicks": 192,
            "midi": 58,
            "name": "A#3",
            "ticks": 110222,
            "time": 124.79828542708333,
            "velocity": 0.3937007874015748
          },
          {
            "duration": 0.10869549999999606,
            "durationTicks": 96,
            "midi": 54,
            "name": "F#3",
            "ticks": 110318,
            "time": 124.90698092708332,
            "velocity": 0.3937007874015748
          },
          {
            "duration": 0.10869550000001027,
            "durationTicks": 96,
            "midi": 58,
            "name": "A#3",
            "ticks": 110414,
            "time": 125.01567642708332,
            "velocity": 0.3937007874015748
          },
          {
            "duration": 0.3260865000000024,
            "durationTicks": 288,
            "midi": 58,
            "name": "A#3",
            "ticks": 110414,
            "time": 125.01567642708332,
            "velocity": 0.3937007874015748
          },
          {
            "duration": 0.21739100000000633,
            "durationTicks": 192,
            "midi": 63,
            "name": "D#4",
            "ticks": 110414,
            "time": 125.01567642708332,
            "velocity": 0.3937007874015748
          },
          {
            "duration": 0.3260865000000024,
            "durationTicks": 288,
            "midi": 54,
            "name": "F#3",
            "ticks": 110414,
            "time": 125.01567642708332,
            "velocity": 0.3937007874015748
          },
          {
            "duration": 0.21739099999999212,
            "durationTicks": 192,
            "midi": 63,
            "name": "D#4",
            "ticks": 110510,
            "time": 125.12437192708333,
            "velocity": 0.3937007874015748
          },
          {
            "duration": 0.10869549999999606,
            "durationTicks": 96,
            "midi": 66,
            "name": "F#4",
            "ticks": 110606,
            "time": 125.23306742708333,
            "velocity": 0.3937007874015748
          },
          {
            "duration": 0.21739099999999212,
            "durationTicks": 192,
            "midi": 78,
            "name": "F#5",
            "ticks": 110606,
            "time": 125.23306742708333,
            "velocity": 0.3937007874015748
          },
          {
            "duration": 0.21739099999999212,
            "durationTicks": 192,
            "midi": 82,
            "name": "A#5",
            "ticks": 110606,
            "time": 125.23306742708333,
            "velocity": 0.3937007874015748
          },
          {
            "duration": 0.21739099999999212,
            "durationTicks": 192,
            "midi": 66,
            "name": "F#4",
            "ticks": 110606,
            "time": 125.23306742708333,
            "velocity": 0.3937007874015748
          },
          {
            "duration": 0.21739099999999212,
            "durationTicks": 192,
            "midi": 70,
            "name": "A#4",
            "ticks": 110606,
            "time": 125.23306742708333,
            "velocity": 0.3937007874015748
          },
          {
            "duration": 0.10869549999999606,
            "durationTicks": 96,
            "midi": 70,
            "name": "A#4",
            "ticks": 110702,
            "time": 125.34176292708332,
            "velocity": 0.3937007874015748
          },
          {
            "duration": 0.3260865000000024,
            "durationTicks": 288,
            "midi": 54,
            "name": "F#3",
            "ticks": 110702,
            "time": 125.34176292708332,
            "velocity": 0.3937007874015748
          },
          {
            "duration": 0.3260865000000024,
            "durationTicks": 288,
            "midi": 63,
            "name": "D#4",
            "ticks": 110702,
            "time": 125.34176292708332,
            "velocity": 0.3937007874015748
          },
          {
            "duration": 0.3260865000000024,
            "durationTicks": 288,
            "midi": 58,
            "name": "A#3",
            "ticks": 110702,
            "time": 125.34176292708332,
            "velocity": 0.3937007874015748
          },
          {
            "duration": 0.21739100000000633,
            "durationTicks": 192,
            "midi": 85,
            "name": "C#6",
            "ticks": 110798,
            "time": 125.45045842708332,
            "velocity": 0.3937007874015748
          },
          {
            "duration": 0.21739100000000633,
            "durationTicks": 192,
            "midi": 68,
            "name": "G#4",
            "ticks": 110798,
            "time": 125.45045842708332,
            "velocity": 0.3937007874015748
          },
          {
            "duration": 0.10869550000001027,
            "durationTicks": 96,
            "midi": 75,
            "name": "D#5",
            "ticks": 110798,
            "time": 125.45045842708332,
            "velocity": 0.3937007874015748
          },
          {
            "duration": 0.21739100000000633,
            "durationTicks": 192,
            "midi": 80,
            "name": "G#5",
            "ticks": 110798,
            "time": 125.45045842708332,
            "velocity": 0.3937007874015748
          },
          {
            "duration": 0.21739100000000633,
            "durationTicks": 192,
            "midi": 73,
            "name": "C#5",
            "ticks": 110798,
            "time": 125.45045842708332,
            "velocity": 0.3937007874015748
          },
          {
            "duration": 0.10869549999999606,
            "durationTicks": 96,
            "midi": 78,
            "name": "F#5",
            "ticks": 110894,
            "time": 125.55915392708333,
            "velocity": 0.3937007874015748
          },
          {
            "duration": 1.7391279999999938,
            "durationTicks": 1536,
            "midi": 42,
            "name": "F#2",
            "ticks": 110990,
            "time": 125.66784942708333,
            "velocity": 0.3937007874015748
          },
          {
            "duration": 0.21739100000000633,
            "durationTicks": 192,
            "midi": 80,
            "name": "G#5",
            "ticks": 110990,
            "time": 125.66784942708333,
            "velocity": 0.3937007874015748
          },
          {
            "duration": 1.7391279999999938,
            "durationTicks": 1536,
            "midi": 30,
            "name": "F#1",
            "ticks": 110990,
            "time": 125.66784942708333,
            "velocity": 0.3937007874015748
          },
          {
            "duration": 1.7391279999999938,
            "durationTicks": 1536,
            "midi": 35,
            "name": "B1",
            "ticks": 110990,
            "time": 125.66784942708333,
            "velocity": 0.3937007874015748
          },
          {
            "duration": 0.21739100000000633,
            "durationTicks": 192,
            "midi": 54,
            "name": "F#3",
            "ticks": 110990,
            "time": 125.66784942708333,
            "velocity": 0.3937007874015748
          },
          {
            "duration": 0.10869549999999606,
            "durationTicks": 96,
            "midi": 47,
            "name": "B2",
            "ticks": 110990,
            "time": 125.66784942708333,
            "velocity": 0.3937007874015748
          },
          {
            "duration": 0.9782595000000072,
            "durationTicks": 864,
            "midi": 47,
            "name": "B2",
            "ticks": 110990,
            "time": 125.66784942708333,
            "velocity": 0.3937007874015748
          },
          {
            "duration": 0.21739100000000633,
            "durationTicks": 192,
            "midi": 73,
            "name": "C#5",
            "ticks": 110990,
            "time": 125.66784942708333,
            "velocity": 0.3937007874015748
          },
          {
            "duration": 0.21739100000000633,
            "durationTicks": 192,
            "midi": 51,
            "name": "D#3",
            "ticks": 110990,
            "time": 125.66784942708333,
            "velocity": 0.3937007874015748
          },
          {
            "duration": 0.21739100000000633,
            "durationTicks": 192,
            "midi": 68,
            "name": "G#4",
            "ticks": 110990,
            "time": 125.66784942708333,
            "velocity": 0.3937007874015748
          },
          {
            "duration": 0.21739100000000633,
            "durationTicks": 192,
            "midi": 59,
            "name": "B3",
            "ticks": 110990,
            "time": 125.66784942708333,
            "velocity": 0.3937007874015748
          },
          {
            "duration": 0.21739100000000633,
            "durationTicks": 192,
            "midi": 85,
            "name": "C#6",
            "ticks": 110990,
            "time": 125.66784942708333,
            "velocity": 0.3937007874015748
          },
          {
            "duration": 0.10869550000001027,
            "durationTicks": 96,
            "midi": 51,
            "name": "D#3",
            "ticks": 111086,
            "time": 125.77654492708332,
            "velocity": 0.3937007874015748
          },
          {
            "duration": 0.10869549999999606,
            "durationTicks": 96,
            "midi": 54,
            "name": "F#3",
            "ticks": 111182,
            "time": 125.88524042708333,
            "velocity": 0.3937007874015748
          },
          {
            "duration": 0.21739099999999212,
            "durationTicks": 192,
            "midi": 82,
            "name": "A#5",
            "ticks": 111182,
            "time": 125.88524042708333,
            "velocity": 0.3937007874015748
          },
          {
            "duration": 0.21739099999999212,
            "durationTicks": 192,
            "midi": 75,
            "name": "D#5",
            "ticks": 111182,
            "time": 125.88524042708333,
            "velocity": 0.3937007874015748
          },
          {
            "duration": 0.3260864999999882,
            "durationTicks": 288,
            "midi": 54,
            "name": "F#3",
            "ticks": 111182,
            "time": 125.88524042708333,
            "velocity": 0.3937007874015748
          },
          {
            "duration": 0.21739099999999212,
            "durationTicks": 192,
            "midi": 70,
            "name": "A#4",
            "ticks": 111182,
            "time": 125.88524042708333,
            "velocity": 0.3937007874015748
          },
          {
            "duration": 0.21739099999999212,
            "durationTicks": 192,
            "midi": 87,
            "name": "D#6",
            "ticks": 111182,
            "time": 125.88524042708333,
            "velocity": 0.3937007874015748
          },
          {
            "duration": 0.3260864999999882,
            "durationTicks": 288,
            "midi": 51,
            "name": "D#3",
            "ticks": 111182,
            "time": 125.88524042708333,
            "velocity": 0.3937007874015748
          },
          {
            "duration": 0.21739099999999212,
            "durationTicks": 192,
            "midi": 59,
            "name": "B3",
            "ticks": 111182,
            "time": 125.88524042708333,
            "velocity": 0.3937007874015748
          },
          {
            "duration": 0.21739099999999212,
            "durationTicks": 192,
            "midi": 59,
            "name": "B3",
            "ticks": 111278,
            "time": 125.99393592708333,
            "velocity": 0.3937007874015748
          },
          {
            "duration": 0.21739100000000633,
            "durationTicks": 192,
            "midi": 82,
            "name": "A#5",
            "ticks": 111374,
            "time": 126.10263142708332,
            "velocity": 0.3937007874015748
          },
          {
            "duration": 0.21739100000000633,
            "durationTicks": 192,
            "midi": 66,
            "name": "F#4",
            "ticks": 111374,
            "time": 126.10263142708332,
            "velocity": 0.3937007874015748
          },
          {
            "duration": 0.21739100000000633,
            "durationTicks": 192,
            "midi": 78,
            "name": "F#5",
            "ticks": 111374,
            "time": 126.10263142708332,
            "velocity": 0.3937007874015748
          },
          {
            "duration": 0.21739100000000633,
            "durationTicks": 192,
            "midi": 70,
            "name": "A#4",
            "ticks": 111374,
            "time": 126.10263142708332,
            "velocity": 0.3937007874015748
          },
          {
            "duration": 0.10869549999999606,
            "durationTicks": 96,
            "midi": 63,
            "name": "D#4",
            "ticks": 111374,
            "time": 126.10263142708332,
            "velocity": 0.3937007874015748
          },
          {
            "duration": 0.3260865000000024,
            "durationTicks": 288,
            "midi": 51,
            "name": "D#3",
            "ticks": 111470,
            "time": 126.21132692708332,
            "velocity": 0.3937007874015748
          },
          {
            "duration": 0.3260865000000024,
            "durationTicks": 288,
            "midi": 54,
            "name": "F#3",
            "ticks": 111470,
            "time": 126.21132692708332,
            "velocity": 0.3937007874015748
          },
          {
            "duration": 0.3260865000000024,
            "durationTicks": 288,
            "midi": 59,
            "name": "B3",
            "ticks": 111470,
            "time": 126.21132692708332,
            "velocity": 0.3937007874015748
          },
          {
            "duration": 0.10869550000001027,
            "durationTicks": 96,
            "midi": 66,
            "name": "F#4",
            "ticks": 111470,
            "time": 126.21132692708332,
            "velocity": 0.3937007874015748
          },
          {
            "duration": 0.21739099999999212,
            "durationTicks": 192,
            "midi": 77,
            "name": "F5",
            "ticks": 111566,
            "time": 126.32002242708333,
            "velocity": 0.3937007874015748
          },
          {
            "duration": 0.10869549999999606,
            "durationTicks": 96,
            "midi": 71,
            "name": "B4",
            "ticks": 111566,
            "time": 126.32002242708333,
            "velocity": 0.3937007874015748
          },
          {
            "duration": 0.21739099999999212,
            "durationTicks": 192,
            "midi": 68,
            "name": "G#4",
            "ticks": 111566,
            "time": 126.32002242708333,
            "velocity": 0.3937007874015748
          },
          {
            "duration": 0.21739099999999212,
            "durationTicks": 192,
            "midi": 80,
            "name": "G#5",
            "ticks": 111566,
            "time": 126.32002242708333,
            "velocity": 0.3937007874015748
          },
          {
            "duration": 0.21739099999999212,
            "durationTicks": 192,
            "midi": 65,
            "name": "F4",
            "ticks": 111566,
            "time": 126.32002242708333,
            "velocity": 0.3937007874015748
          },
          {
            "duration": 0.10869549999999606,
            "durationTicks": 96,
            "midi": 75,
            "name": "D#5",
            "ticks": 111662,
            "time": 126.42871792708333,
            "velocity": 0.3937007874015748
          },
          {
            "duration": 0.21739100000000633,
            "durationTicks": 192,
            "midi": 82,
            "name": "A#5",
            "ticks": 111758,
            "time": 126.53741342708332,
            "velocity": 0.3937007874015748
          },
          {
            "duration": 0.21739100000000633,
            "durationTicks": 192,
            "midi": 70,
            "name": "A#4",
            "ticks": 111758,
            "time": 126.53741342708332,
            "velocity": 0.3937007874015748
          },
          {
            "duration": 0.21739100000000633,
            "durationTicks": 192,
            "midi": 59,
            "name": "B3",
            "ticks": 111758,
            "time": 126.53741342708332,
            "velocity": 0.3937007874015748
          },
          {
            "duration": 0.21739100000000633,
            "durationTicks": 192,
            "midi": 51,
            "name": "D#3",
            "ticks": 111758,
            "time": 126.53741342708332,
            "velocity": 0.3937007874015748
          },
          {
            "duration": 0.21739100000000633,
            "durationTicks": 192,
            "midi": 54,
            "name": "F#3",
            "ticks": 111758,
            "time": 126.53741342708332,
            "velocity": 0.3937007874015748
          },
          {
            "duration": 0.21739100000000633,
            "durationTicks": 192,
            "midi": 66,
            "name": "F#4",
            "ticks": 111758,
            "time": 126.53741342708332,
            "velocity": 0.3937007874015748
          },
          {
            "duration": 0.21739100000000633,
            "durationTicks": 192,
            "midi": 78,
            "name": "F#5",
            "ticks": 111758,
            "time": 126.53741342708332,
            "velocity": 0.3937007874015748
          },
          {
            "duration": 0.8695639999999969,
            "durationTicks": 768,
            "midi": 47,
            "name": "B2",
            "ticks": 111758,
            "time": 126.53741342708332,
            "velocity": 0.3937007874015748
          },
          {
            "duration": 0.10869549999999606,
            "durationTicks": 96,
            "midi": 51,
            "name": "D#3",
            "ticks": 111854,
            "time": 126.64610892708333,
            "velocity": 0.3937007874015748
          },
          {
            "duration": 0.10869549999999606,
            "durationTicks": 96,
            "midi": 54,
            "name": "F#3",
            "ticks": 111950,
            "time": 126.75480442708333,
            "velocity": 0.3937007874015748
          },
          {
            "duration": 0.21739099999999212,
            "durationTicks": 192,
            "midi": 59,
            "name": "B3",
            "ticks": 111950,
            "time": 126.75480442708333,
            "velocity": 0.3937007874015748
          },
          {
            "duration": 0.3260865000000024,
            "durationTicks": 288,
            "midi": 54,
            "name": "F#3",
            "ticks": 111950,
            "time": 126.75480442708333,
            "velocity": 0.3937007874015748
          },
          {
            "duration": 0.3260865000000024,
            "durationTicks": 288,
            "midi": 51,
            "name": "D#3",
            "ticks": 111950,
            "time": 126.75480442708333,
            "velocity": 0.3937007874015748
          },
          {
            "duration": 0.21739100000000633,
            "durationTicks": 192,
            "midi": 59,
            "name": "B3",
            "ticks": 112046,
            "time": 126.86349992708332,
            "velocity": 0.3937007874015748
          },
          {
            "duration": 0.21739100000000633,
            "durationTicks": 192,
            "midi": 68,
            "name": "G#4",
            "ticks": 112142,
            "time": 126.97219542708332,
            "velocity": 0.3937007874015748
          },
          {
            "duration": 0.21739100000000633,
            "durationTicks": 192,
            "midi": 65,
            "name": "F4",
            "ticks": 112142,
            "time": 126.97219542708332,
            "velocity": 0.3937007874015748
          },
          {
            "duration": 0.10869550000001027,
            "durationTicks": 96,
            "midi": 63,
            "name": "D#4",
            "ticks": 112142,
            "time": 126.97219542708332,
            "velocity": 0.3937007874015748
          },
          {
            "duration": 0.21739100000000633,
            "durationTicks": 192,
            "midi": 77,
            "name": "F5",
            "ticks": 112142,
            "time": 126.97219542708332,
            "velocity": 0.3937007874015748
          },
          {
            "duration": 0.21739100000000633,
            "durationTicks": 192,
            "midi": 80,
            "name": "G#5",
            "ticks": 112142,
            "time": 126.97219542708332,
            "velocity": 0.3937007874015748
          },
          {
            "duration": 0.3260864999999882,
            "durationTicks": 288,
            "midi": 59,
            "name": "B3",
            "ticks": 112238,
            "time": 127.08089092708333,
            "velocity": 0.3937007874015748
          },
          {
            "duration": 0.3260864999999882,
            "durationTicks": 288,
            "midi": 54,
            "name": "F#3",
            "ticks": 112238,
            "time": 127.08089092708333,
            "velocity": 0.3937007874015748
          },
          {
            "duration": 0.10869549999999606,
            "durationTicks": 96,
            "midi": 66,
            "name": "F#4",
            "ticks": 112238,
            "time": 127.08089092708333,
            "velocity": 0.3937007874015748
          },
          {
            "duration": 0.3260864999999882,
            "durationTicks": 288,
            "midi": 51,
            "name": "D#3",
            "ticks": 112238,
            "time": 127.08089092708333,
            "velocity": 0.3937007874015748
          },
          {
            "duration": 0.10869549999999606,
            "durationTicks": 96,
            "midi": 71,
            "name": "B4",
            "ticks": 112334,
            "time": 127.18958642708333,
            "velocity": 0.3937007874015748
          },
          {
            "duration": 0.21739099999999212,
            "durationTicks": 192,
            "midi": 70,
            "name": "A#4",
            "ticks": 112334,
            "time": 127.18958642708333,
            "velocity": 0.3937007874015748
          },
          {
            "duration": 0.21739099999999212,
            "durationTicks": 192,
            "midi": 66,
            "name": "F#4",
            "ticks": 112334,
            "time": 127.18958642708333,
            "velocity": 0.3937007874015748
          },
          {
            "duration": 0.21739099999999212,
            "durationTicks": 192,
            "midi": 78,
            "name": "F#5",
            "ticks": 112334,
            "time": 127.18958642708333,
            "velocity": 0.3937007874015748
          },
          {
            "duration": 0.21739099999999212,
            "durationTicks": 192,
            "midi": 82,
            "name": "A#5",
            "ticks": 112334,
            "time": 127.18958642708333,
            "velocity": 0.3937007874015748
          },
          {
            "duration": 0.10869549999999606,
            "durationTicks": 96,
            "midi": 75,
            "name": "D#5",
            "ticks": 112430,
            "time": 127.29828192708332,
            "velocity": 0.3937007874015748
          },
          {
            "duration": 0.21739100000000633,
            "durationTicks": 192,
            "midi": 68,
            "name": "G#4",
            "ticks": 112526,
            "time": 127.40697742708332,
            "velocity": 0.3937007874015748
          },
          {
            "duration": 1.7391279999999938,
            "durationTicks": 1536,
            "midi": 37,
            "name": "C#2",
            "ticks": 112526,
            "time": 127.40697742708332,
            "velocity": 0.3937007874015748
          },
          {
            "duration": 0.21739100000000633,
            "durationTicks": 192,
            "midi": 80,
            "name": "G#5",
            "ticks": 112526,
            "time": 127.40697742708332,
            "velocity": 0.3937007874015748
          },
          {
            "duration": 0.10869550000001027,
            "durationTicks": 96,
            "midi": 49,
            "name": "C#3",
            "ticks": 112526,
            "time": 127.40697742708332,
            "velocity": 0.3937007874015748
          },
          {
            "duration": 0.21739100000000633,
            "durationTicks": 192,
            "midi": 85,
            "name": "C#6",
            "ticks": 112526,
            "time": 127.40697742708332,
            "velocity": 0.3937007874015748
          },
          {
            "duration": 0.21739100000000633,
            "durationTicks": 192,
            "midi": 61,
            "name": "C#4",
            "ticks": 112526,
            "time": 127.40697742708332,
            "velocity": 0.3937007874015748
          },
          {
            "duration": 0.21739100000000633,
            "durationTicks": 192,
            "midi": 73,
            "name": "C#5",
            "ticks": 112526,
            "time": 127.40697742708332,
            "velocity": 0.3937007874015748
          },
          {
            "duration": 0.9782595000000072,
            "durationTicks": 864,
            "midi": 49,
            "name": "C#3",
            "ticks": 112526,
            "time": 127.40697742708332,
            "velocity": 0.3937007874015748
          },
          {
            "duration": 0.21739100000000633,
            "durationTicks": 192,
            "midi": 53,
            "name": "F3",
            "ticks": 112526,
            "time": 127.40697742708332,
            "velocity": 0.3937007874015748
          },
          {
            "duration": 1.7391279999999938,
            "durationTicks": 1536,
            "midi": 32,
            "name": "G#1",
            "ticks": 112526,
            "time": 127.40697742708332,
            "velocity": 0.3937007874015748
          },
          {
            "duration": 0.21739100000000633,
            "durationTicks": 192,
            "midi": 56,
            "name": "G#3",
            "ticks": 112526,
            "time": 127.40697742708332,
            "velocity": 0.3937007874015748
          },
          {
            "duration": 1.7391279999999938,
            "durationTicks": 1536,
            "midi": 44,
            "name": "G#2",
            "ticks": 112526,
            "time": 127.40697742708332,
            "velocity": 0.3937007874015748
          },
          {
            "duration": 0.10869549999999606,
            "durationTicks": 96,
            "midi": 53,
            "name": "F3",
            "ticks": 112622,
            "time": 127.51567292708333,
            "velocity": 0.3937007874015748
          },
          {
            "duration": 0.10869549999999606,
            "durationTicks": 96,
            "midi": 56,
            "name": "G#3",
            "ticks": 112718,
            "time": 127.62436842708333,
            "velocity": 0.3937007874015748
          },
          {
            "duration": 0.21739100000000633,
            "durationTicks": 192,
            "midi": 61,
            "name": "C#4",
            "ticks": 112718,
            "time": 127.62436842708333,
            "velocity": 0.3937007874015748
          },
          {
            "duration": 0.21739100000000633,
            "durationTicks": 192,
            "midi": 82,
            "name": "A#5",
            "ticks": 112718,
            "time": 127.62436842708333,
            "velocity": 0.3937007874015748
          },
          {
            "duration": 0.21739100000000633,
            "durationTicks": 192,
            "midi": 87,
            "name": "D#6",
            "ticks": 112718,
            "time": 127.62436842708333,
            "velocity": 0.3937007874015748
          },
          {
            "duration": 0.3260865000000024,
            "durationTicks": 288,
            "midi": 56,
            "name": "G#3",
            "ticks": 112718,
            "time": 127.62436842708333,
            "velocity": 0.3937007874015748
          },
          {
            "duration": 0.21739100000000633,
            "durationTicks": 192,
            "midi": 75,
            "name": "D#5",
            "ticks": 112718,
            "time": 127.62436842708333,
            "velocity": 0.3937007874015748
          },
          {
            "duration": 0.3260865000000024,
            "durationTicks": 288,
            "midi": 53,
            "name": "F3",
            "ticks": 112718,
            "time": 127.62436842708333,
            "velocity": 0.3937007874015748
          },
          {
            "duration": 0.21739100000000633,
            "durationTicks": 192,
            "midi": 70,
            "name": "A#4",
            "ticks": 112718,
            "time": 127.62436842708333,
            "velocity": 0.3937007874015748
          },
          {
            "duration": 0.21739100000000633,
            "durationTicks": 192,
            "midi": 61,
            "name": "C#4",
            "ticks": 112814,
            "time": 127.73306392708332,
            "velocity": 0.3937007874015748
          },
          {
            "duration": 0.21739099999999212,
            "durationTicks": 192,
            "midi": 78,
            "name": "F#5",
            "ticks": 112910,
            "time": 127.84175942708333,
            "velocity": 0.3937007874015748
          },
          {
            "duration": 0.10869549999999606,
            "durationTicks": 96,
            "midi": 65,
            "name": "F4",
            "ticks": 112910,
            "time": 127.84175942708333,
            "velocity": 0.3937007874015748
          },
          {
            "duration": 0.21739099999999212,
            "durationTicks": 192,
            "midi": 82,
            "name": "A#5",
            "ticks": 112910,
            "time": 127.84175942708333,
            "velocity": 0.3937007874015748
          },
          {
            "duration": 0.21739099999999212,
            "durationTicks": 192,
            "midi": 70,
            "name": "A#4",
            "ticks": 112910,
            "time": 127.84175942708333,
            "velocity": 0.3937007874015748
          },
          {
            "duration": 0.21739099999999212,
            "durationTicks": 192,
            "midi": 66,
            "name": "F#4",
            "ticks": 112910,
            "time": 127.84175942708333,
            "velocity": 0.3937007874015748
          },
          {
            "duration": 0.3260864999999882,
            "durationTicks": 288,
            "midi": 61,
            "name": "C#4",
            "ticks": 113006,
            "time": 127.95045492708333,
            "velocity": 0.3937007874015748
          },
          {
            "duration": 0.3260864999999882,
            "durationTicks": 288,
            "midi": 56,
            "name": "G#3",
            "ticks": 113006,
            "time": 127.95045492708333,
            "velocity": 0.3937007874015748
          },
          {
            "duration": 0.10869549999999606,
            "durationTicks": 96,
            "midi": 68,
            "name": "G#4",
            "ticks": 113006,
            "time": 127.95045492708333,
            "velocity": 0.3937007874015748
          },
          {
            "duration": 0.3260864999999882,
            "durationTicks": 288,
            "midi": 53,
            "name": "F3",
            "ticks": 113006,
            "time": 127.95045492708333,
            "velocity": 0.3937007874015748
          },
          {
            "duration": 0.10869550000001027,
            "durationTicks": 96,
            "midi": 73,
            "name": "C#5",
            "ticks": 113102,
            "time": 128.05915042708332,
            "velocity": 0.3937007874015748
          },
          {
            "duration": 0.21739099999999212,
            "durationTicks": 192,
            "midi": 65,
            "name": "F4",
            "ticks": 113102,
            "time": 128.05915042708332,
            "velocity": 0.3937007874015748
          },
          {
            "duration": 0.21739099999999212,
            "durationTicks": 192,
            "midi": 77,
            "name": "F5",
            "ticks": 113102,
            "time": 128.05915042708332,
            "velocity": 0.3937007874015748
          },
          {
            "duration": 0.21739099999999212,
            "durationTicks": 192,
            "midi": 68,
            "name": "G#4",
            "ticks": 113102,
            "time": 128.05915042708332,
            "velocity": 0.3937007874015748
          },
          {
            "duration": 0.21739099999999212,
            "durationTicks": 192,
            "midi": 80,
            "name": "G#5",
            "ticks": 113102,
            "time": 128.05915042708332,
            "velocity": 0.3937007874015748
          },
          {
            "duration": 0.10869549999998185,
            "durationTicks": 96,
            "midi": 77,
            "name": "F5",
            "ticks": 113198,
            "time": 128.16784592708333,
            "velocity": 0.3937007874015748
          },
          {
            "duration": 0.21739100000002054,
            "durationTicks": 192,
            "midi": 78,
            "name": "F#5",
            "ticks": 113294,
            "time": 128.27654142708332,
            "velocity": 0.3937007874015748
          },
          {
            "duration": 0.21739100000002054,
            "durationTicks": 192,
            "midi": 53,
            "name": "F3",
            "ticks": 113294,
            "time": 128.27654142708332,
            "velocity": 0.3937007874015748
          },
          {
            "duration": 0.21739100000002054,
            "durationTicks": 192,
            "midi": 66,
            "name": "F#4",
            "ticks": 113294,
            "time": 128.27654142708332,
            "velocity": 0.3937007874015748
          },
          {
            "duration": 0.21739100000002054,
            "durationTicks": 192,
            "midi": 82,
            "name": "A#5",
            "ticks": 113294,
            "time": 128.27654142708332,
            "velocity": 0.3937007874015748
          },
          {
            "duration": 0.8695639999999969,
            "durationTicks": 768,
            "midi": 49,
            "name": "C#3",
            "ticks": 113294,
            "time": 128.27654142708332,
            "velocity": 0.3937007874015748
          },
          {
            "duration": 0.21739100000002054,
            "durationTicks": 192,
            "midi": 70,
            "name": "A#4",
            "ticks": 113294,
            "time": 128.27654142708332,
            "velocity": 0.3937007874015748
          },
          {
            "duration": 0.21739100000002054,
            "durationTicks": 192,
            "midi": 61,
            "name": "C#4",
            "ticks": 113294,
            "time": 128.27654142708332,
            "velocity": 0.3937007874015748
          },
          {
            "duration": 0.21739100000002054,
            "durationTicks": 192,
            "midi": 56,
            "name": "G#3",
            "ticks": 113294,
            "time": 128.27654142708332,
            "velocity": 0.3937007874015748
          },
          {
            "duration": 0.10869550000001027,
            "durationTicks": 96,
            "midi": 53,
            "name": "F3",
            "ticks": 113390,
            "time": 128.38523692708333,
            "velocity": 0.3937007874015748
          },
          {
            "duration": 0.10869549999998185,
            "durationTicks": 96,
            "midi": 56,
            "name": "G#3",
            "ticks": 113486,
            "time": 128.49393242708334,
            "velocity": 0.3937007874015748
          },
          {
            "duration": 0.3260865000000024,
            "durationTicks": 288,
            "midi": 53,
            "name": "F3",
            "ticks": 113486,
            "time": 128.49393242708334,
            "velocity": 0.3937007874015748
          },
          {
            "duration": 0.3260865000000024,
            "durationTicks": 288,
            "midi": 56,
            "name": "G#3",
            "ticks": 113486,
            "time": 128.49393242708334,
            "velocity": 0.3937007874015748
          },
          {
            "duration": 0.21739099999999212,
            "durationTicks": 192,
            "midi": 61,
            "name": "C#4",
            "ticks": 113486,
            "time": 128.49393242708334,
            "velocity": 0.3937007874015748
          },
          {
            "duration": 0.21739100000002054,
            "durationTicks": 192,
            "midi": 61,
            "name": "C#4",
            "ticks": 113582,
            "time": 128.60262792708332,
            "velocity": 0.3937007874015748
          },
          {
            "duration": 0.21739099999999212,
            "durationTicks": 192,
            "midi": 68,
            "name": "G#4",
            "ticks": 113678,
            "time": 128.71132342708333,
            "velocity": 0.3937007874015748
          },
          {
            "duration": 0.21739099999999212,
            "durationTicks": 192,
            "midi": 80,
            "name": "G#5",
            "ticks": 113678,
            "time": 128.71132342708333,
            "velocity": 0.3937007874015748
          },
          {
            "duration": 0.10869550000001027,
            "durationTicks": 96,
            "midi": 65,
            "name": "F4",
            "ticks": 113678,
            "time": 128.71132342708333,
            "velocity": 0.3937007874015748
          },
          {
            "duration": 0.21739099999999212,
            "durationTicks": 192,
            "midi": 65,
            "name": "F4",
            "ticks": 113678,
            "time": 128.71132342708333,
            "velocity": 0.3937007874015748
          },
          {
            "duration": 0.21739099999999212,
            "durationTicks": 192,
            "midi": 77,
            "name": "F5",
            "ticks": 113678,
            "time": 128.71132342708333,
            "velocity": 0.3937007874015748
          },
          {
            "duration": 0.32608649999997397,
            "durationTicks": 288,
            "midi": 53,
            "name": "F3",
            "ticks": 113774,
            "time": 128.82001892708334,
            "velocity": 0.3937007874015748
          },
          {
            "duration": 0.32608649999997397,
            "durationTicks": 288,
            "midi": 56,
            "name": "G#3",
            "ticks": 113774,
            "time": 128.82001892708334,
            "velocity": 0.3937007874015748
          },
          {
            "duration": 0.10869549999998185,
            "durationTicks": 96,
            "midi": 68,
            "name": "G#4",
            "ticks": 113774,
            "time": 128.82001892708334,
            "velocity": 0.3937007874015748
          },
          {
            "duration": 0.32608649999997397,
            "durationTicks": 288,
            "midi": 61,
            "name": "C#4",
            "ticks": 113774,
            "time": 128.82001892708334,
            "velocity": 0.3937007874015748
          },
          {
            "duration": 0.21739099999999212,
            "durationTicks": 192,
            "midi": 66,
            "name": "F#4",
            "ticks": 113870,
            "time": 128.92871442708332,
            "velocity": 0.3937007874015748
          },
          {
            "duration": 0.10869550000001027,
            "durationTicks": 96,
            "midi": 73,
            "name": "C#5",
            "ticks": 113870,
            "time": 128.92871442708332,
            "velocity": 0.3937007874015748
          },
          {
            "duration": 0.21739099999999212,
            "durationTicks": 192,
            "midi": 82,
            "name": "A#5",
            "ticks": 113870,
            "time": 128.92871442708332,
            "velocity": 0.3937007874015748
          },
          {
            "duration": 0.21739099999999212,
            "durationTicks": 192,
            "midi": 70,
            "name": "A#4",
            "ticks": 113870,
            "time": 128.92871442708332,
            "velocity": 0.3937007874015748
          },
          {
            "duration": 0.21739099999999212,
            "durationTicks": 192,
            "midi": 78,
            "name": "F#5",
            "ticks": 113870,
            "time": 128.92871442708332,
            "velocity": 0.3937007874015748
          },
          {
            "duration": 0.10869549999998185,
            "durationTicks": 96,
            "midi": 77,
            "name": "F5",
            "ticks": 113966,
            "time": 129.03740992708333,
            "velocity": 0.3937007874015748
          },
          {
            "duration": 0.21739100000002054,
            "durationTicks": 192,
            "midi": 77,
            "name": "F5",
            "ticks": 114062,
            "time": 129.1461054270833,
            "velocity": 0.3937007874015748
          },
          {
            "duration": 0.21739100000002054,
            "durationTicks": 192,
            "midi": 80,
            "name": "G#5",
            "ticks": 114062,
            "time": 129.1461054270833,
            "velocity": 0.3937007874015748
          },
          {
            "duration": 1.7391280000000222,
            "durationTicks": 1536,
            "midi": 46,
            "name": "A#2",
            "ticks": 114062,
            "time": 129.1461054270833,
            "velocity": 0.3937007874015748
          },
          {
            "duration": 0.10869550000001027,
            "durationTicks": 96,
            "midi": 51,
            "name": "D#3",
            "ticks": 114062,
            "time": 129.1461054270833,
            "velocity": 0.3937007874015748
          },
          {
            "duration": 0.21739100000002054,
            "durationTicks": 192,
            "midi": 68,
            "name": "G#4",
            "ticks": 114062,
            "time": 129.1461054270833,
            "velocity": 0.3937007874015748
          },
          {
            "duration": 1.7391280000000222,
            "durationTicks": 1536,
            "midi": 34,
            "name": "A#1",
            "ticks": 114062,
            "time": 129.1461054270833,
            "velocity": 0.3937007874015748
          },
          {
            "duration": 1.7391280000000222,
            "durationTicks": 1536,
            "midi": 39,
            "name": "D#2",
            "ticks": 114062,
            "time": 129.1461054270833,
            "velocity": 0.3937007874015748
          },
          {
            "duration": 0.9782595000000072,
            "durationTicks": 864,
            "midi": 51,
            "name": "D#3",
            "ticks": 114062,
            "time": 129.1461054270833,
            "velocity": 0.3937007874015748
          },
          {
            "duration": 0.21739100000002054,
            "durationTicks": 192,
            "midi": 63,
            "name": "D#4",
            "ticks": 114062,
            "time": 129.1461054270833,
            "velocity": 0.3937007874015748
          },
          {
            "duration": 0.21739100000002054,
            "durationTicks": 192,
            "midi": 65,
            "name": "F4",
            "ticks": 114062,
            "time": 129.1461054270833,
            "velocity": 0.3937007874015748
          },
          {
            "duration": 0.21739100000002054,
            "durationTicks": 192,
            "midi": 58,
            "name": "A#3",
            "ticks": 114062,
            "time": 129.1461054270833,
            "velocity": 0.3937007874015748
          },
          {
            "duration": 0.21739100000002054,
            "durationTicks": 192,
            "midi": 54,
            "name": "F#3",
            "ticks": 114062,
            "time": 129.1461054270833,
            "velocity": 0.3937007874015748
          },
          {
            "duration": 0.10869550000001027,
            "durationTicks": 96,
            "midi": 54,
            "name": "F#3",
            "ticks": 114158,
            "time": 129.25480092708332,
            "velocity": 0.3937007874015748
          },
          {
            "duration": 0.10869549999998185,
            "durationTicks": 96,
            "midi": 58,
            "name": "A#3",
            "ticks": 114254,
            "time": 129.36349642708333,
            "velocity": 0.3937007874015748
          },
          {
            "duration": 0.21739099999999212,
            "durationTicks": 192,
            "midi": 78,
            "name": "F#5",
            "ticks": 114254,
            "time": 129.36349642708333,
            "velocity": 0.3937007874015748
          },
          {
            "duration": 0.21739099999999212,
            "durationTicks": 192,
            "midi": 66,
            "name": "F#4",
            "ticks": 114254,
            "time": 129.36349642708333,
            "velocity": 0.3937007874015748
          },
          {
            "duration": 0.3260865000000024,
            "durationTicks": 288,
            "midi": 54,
            "name": "F#3",
            "ticks": 114254,
            "time": 129.36349642708333,
            "velocity": 0.3937007874015748
          },
          {
            "duration": 0.21739099999999212,
            "durationTicks": 192,
            "midi": 63,
            "name": "D#4",
            "ticks": 114254,
            "time": 129.36349642708333,
            "velocity": 0.3937007874015748
          },
          {
            "duration": 0.3260865000000024,
            "durationTicks": 288,
            "midi": 58,
            "name": "A#3",
            "ticks": 114254,
            "time": 129.36349642708333,
            "velocity": 0.3937007874015748
          },
          {
            "duration": 0.21739099999999212,
            "durationTicks": 192,
            "midi": 63,
            "name": "D#4",
            "ticks": 114254,
            "time": 129.36349642708333,
            "velocity": 0.3937007874015748
          },
          {
            "duration": 0.21739099999999212,
            "durationTicks": 192,
            "midi": 75,
            "name": "D#5",
            "ticks": 114254,
            "time": 129.36349642708333,
            "velocity": 0.3937007874015748
          },
          {
            "duration": 0.21739100000002054,
            "durationTicks": 192,
            "midi": 63,
            "name": "D#4",
            "ticks": 114350,
            "time": 129.47219192708332,
            "velocity": 0.3937007874015748
          },
          {
            "duration": 0.21739099999999212,
            "durationTicks": 192,
            "midi": 77,
            "name": "F5",
            "ticks": 114446,
            "time": 129.58088742708333,
            "velocity": 0.3937007874015748
          },
          {
            "duration": 0.21739099999999212,
            "durationTicks": 192,
            "midi": 73,
            "name": "C#5",
            "ticks": 114446,
            "time": 129.58088742708333,
            "velocity": 0.3937007874015748
          },
          {
            "duration": 0.21739099999999212,
            "durationTicks": 192,
            "midi": 65,
            "name": "F4",
            "ticks": 114446,
            "time": 129.58088742708333,
            "velocity": 0.3937007874015748
          },
          {
            "duration": 0.10869550000001027,
            "durationTicks": 96,
            "midi": 66,
            "name": "F#4",
            "ticks": 114446,
            "time": 129.58088742708333,
            "velocity": 0.3937007874015748
          },
          {
            "duration": 0.21739099999999212,
            "durationTicks": 192,
            "midi": 61,
            "name": "C#4",
            "ticks": 114446,
            "time": 129.58088742708333,
            "velocity": 0.3937007874015748
          },
          {
            "duration": 0.3260865000000024,
            "durationTicks": 288,
            "midi": 58,
            "name": "A#3",
            "ticks": 114542,
            "time": 129.68958292708334,
            "velocity": 0.3937007874015748
          },
          {
            "duration": 0.10869549999998185,
            "durationTicks": 96,
            "midi": 70,
            "name": "A#4",
            "ticks": 114542,
            "time": 129.68958292708334,
            "velocity": 0.3937007874015748
          },
          {
            "duration": 0.3260865000000024,
            "durationTicks": 288,
            "midi": 54,
            "name": "F#3",
            "ticks": 114542,
            "time": 129.68958292708334,
            "velocity": 0.3937007874015748
          },
          {
            "duration": 0.3260865000000024,
            "durationTicks": 288,
            "midi": 63,
            "name": "D#4",
            "ticks": 114542,
            "time": 129.68958292708334,
            "velocity": 0.3937007874015748
          },
          {
            "duration": 0.10869550000001027,
            "durationTicks": 96,
            "midi": 75,
            "name": "D#5",
            "ticks": 114638,
            "time": 129.79827842708332,
            "velocity": 0.3937007874015748
          },
          {
            "duration": 0.21739100000002054,
            "durationTicks": 192,
            "midi": 68,
            "name": "G#4",
            "ticks": 114638,
            "time": 129.79827842708332,
            "velocity": 0.3937007874015748
          },
          {
            "duration": 0.21739100000002054,
            "durationTicks": 192,
            "midi": 73,
            "name": "C#5",
            "ticks": 114638,
            "time": 129.79827842708332,
            "velocity": 0.3937007874015748
          },
          {
            "duration": 0.21739100000002054,
            "durationTicks": 192,
            "midi": 61,
            "name": "C#4",
            "ticks": 114638,
            "time": 129.79827842708332,
            "velocity": 0.3937007874015748
          },
          {
            "duration": 0.21739100000002054,
            "durationTicks": 192,
            "midi": 56,
            "name": "G#3",
            "ticks": 114638,
            "time": 129.79827842708332,
            "velocity": 0.3937007874015748
          },
          {
            "duration": 0.10869550000001027,
            "durationTicks": 96,
            "midi": 78,
            "name": "F#5",
            "ticks": 114734,
            "time": 129.90697392708333,
            "velocity": 0.3937007874015748
          },
          {
            "duration": 0.21739099999999212,
            "durationTicks": 192,
            "midi": 63,
            "name": "D#4",
            "ticks": 114830,
            "time": 130.01566942708334,
            "velocity": 0.3937007874015748
          },
          {
            "duration": 0.21739099999999212,
            "durationTicks": 192,
            "midi": 58,
            "name": "A#3",
            "ticks": 114830,
            "time": 130.01566942708334,
            "velocity": 0.3937007874015748
          },
          {
            "duration": 0.21739099999999212,
            "durationTicks": 192,
            "midi": 63,
            "name": "D#4",
            "ticks": 114830,
            "time": 130.01566942708334,
            "velocity": 0.3937007874015748
          },
          {
            "duration": 0.21739099999999212,
            "durationTicks": 192,
            "midi": 58,
            "name": "A#3",
            "ticks": 114830,
            "time": 130.01566942708334,
            "velocity": 0.3937007874015748
          },
          {
            "duration": 0.8695639999999969,
            "durationTicks": 768,
            "midi": 51,
            "name": "D#3",
            "ticks": 114830,
            "time": 130.01566942708334,
            "velocity": 0.3937007874015748
          },
          {
            "duration": 0.21739099999999212,
            "durationTicks": 192,
            "midi": 70,
            "name": "A#4",
            "ticks": 114830,
            "time": 130.01566942708334,
            "velocity": 0.3937007874015748
          },
          {
            "duration": 0.21739099999999212,
            "durationTicks": 192,
            "midi": 54,
            "name": "F#3",
            "ticks": 114830,
            "time": 130.01566942708334,
            "velocity": 0.3937007874015748
          },
          {
            "duration": 0.21739099999999212,
            "durationTicks": 192,
            "midi": 75,
            "name": "D#5",
            "ticks": 114830,
            "time": 130.01566942708334,
            "velocity": 0.3937007874015748
          },
          {
            "duration": 0.10869550000001027,
            "durationTicks": 96,
            "midi": 54,
            "name": "F#3",
            "ticks": 114926,
            "time": 130.12436492708332,
            "velocity": 0.3937007874015748
          },
          {
            "duration": 0.3260865000000024,
            "durationTicks": 288,
            "midi": 54,
            "name": "F#3",
            "ticks": 115022,
            "time": 130.23306042708333,
            "velocity": 0.3937007874015748
          },
          {
            "duration": 0.10869549999998185,
            "durationTicks": 96,
            "midi": 58,
            "name": "A#3",
            "ticks": 115022,
            "time": 130.23306042708333,
            "velocity": 0.3937007874015748
          },
          {
            "duration": 0.21739099999999212,
            "durationTicks": 192,
            "midi": 63,
            "name": "D#4",
            "ticks": 115022,
            "time": 130.23306042708333,
            "velocity": 0.3937007874015748
          },
          {
            "duration": 0.3260865000000024,
            "durationTicks": 288,
            "midi": 58,
            "name": "A#3",
            "ticks": 115022,
            "time": 130.23306042708333,
            "velocity": 0.3937007874015748
          },
          {
            "duration": 0.21739100000002054,
            "durationTicks": 192,
            "midi": 63,
            "name": "D#4",
            "ticks": 115118,
            "time": 130.3417559270833,
            "velocity": 0.3937007874015748
          },
          {
            "duration": 0.21739099999999212,
            "durationTicks": 192,
            "midi": 73,
            "name": "C#5",
            "ticks": 115214,
            "time": 130.45045142708332,
            "velocity": 0.3937007874015748
          },
          {
            "duration": 0.21739099999999212,
            "durationTicks": 192,
            "midi": 56,
            "name": "G#3",
            "ticks": 115214,
            "time": 130.45045142708332,
            "velocity": 0.3937007874015748
          },
          {
            "duration": 0.21739099999999212,
            "durationTicks": 192,
            "midi": 68,
            "name": "G#4",
            "ticks": 115214,
            "time": 130.45045142708332,
            "velocity": 0.3937007874015748
          },
          {
            "duration": 0.10869550000001027,
            "durationTicks": 96,
            "midi": 66,
            "name": "F#4",
            "ticks": 115214,
            "time": 130.45045142708332,
            "velocity": 0.3937007874015748
          },
          {
            "duration": 0.21739099999999212,
            "durationTicks": 192,
            "midi": 61,
            "name": "C#4",
            "ticks": 115214,
            "time": 130.45045142708332,
            "velocity": 0.3937007874015748
          },
          {
            "duration": 0.10869549999998185,
            "durationTicks": 96,
            "midi": 70,
            "name": "A#4",
            "ticks": 115310,
            "time": 130.55914692708333,
            "velocity": 0.3937007874015748
          },
          {
            "duration": 0.3260865000000024,
            "durationTicks": 288,
            "midi": 63,
            "name": "D#4",
            "ticks": 115310,
            "time": 130.55914692708333,
            "velocity": 0.3937007874015748
          },
          {
            "duration": 0.3260865000000024,
            "durationTicks": 288,
            "midi": 54,
            "name": "F#3",
            "ticks": 115310,
            "time": 130.55914692708333,
            "velocity": 0.3937007874015748
          },
          {
            "duration": 0.3260865000000024,
            "durationTicks": 288,
            "midi": 58,
            "name": "A#3",
            "ticks": 115310,
            "time": 130.55914692708333,
            "velocity": 0.3937007874015748
          },
          {
            "duration": 0.10869550000001027,
            "durationTicks": 96,
            "midi": 75,
            "name": "D#5",
            "ticks": 115406,
            "time": 130.66784242708331,
            "velocity": 0.3937007874015748
          },
          {
            "duration": 0.21739100000002054,
            "durationTicks": 192,
            "midi": 63,
            "name": "D#4",
            "ticks": 115406,
            "time": 130.66784242708331,
            "velocity": 0.3937007874015748
          },
          {
            "duration": 0.21739100000002054,
            "durationTicks": 192,
            "midi": 58,
            "name": "A#3",
            "ticks": 115406,
            "time": 130.66784242708331,
            "velocity": 0.3937007874015748
          },
          {
            "duration": 0.21739100000002054,
            "durationTicks": 192,
            "midi": 75,
            "name": "D#5",
            "ticks": 115406,
            "time": 130.66784242708331,
            "velocity": 0.3937007874015748
          },
          {
            "duration": 0.21739100000002054,
            "durationTicks": 192,
            "midi": 70,
            "name": "A#4",
            "ticks": 115406,
            "time": 130.66784242708331,
            "velocity": 0.3937007874015748
          },
          {
            "duration": 0.10869550000001027,
            "durationTicks": 96,
            "midi": 78,
            "name": "F#5",
            "ticks": 115502,
            "time": 130.77653792708333,
            "velocity": 0.3937007874015748
          },
          {
            "duration": 1.7391279999999938,
            "durationTicks": 1536,
            "midi": 34,
            "name": "A#1",
            "ticks": 115598,
            "time": 130.88523342708334,
            "velocity": 0.3937007874015748
          },
          {
            "duration": 0.21739099999999212,
            "durationTicks": 192,
            "midi": 54,
            "name": "F#3",
            "ticks": 115598,
            "time": 130.88523342708334,
            "velocity": 0.3937007874015748
          },
          {
            "duration": 1.7391279999999938,
            "durationTicks": 1536,
            "midi": 39,
            "name": "D#2",
            "ticks": 115598,
            "time": 130.88523342708334,
            "velocity": 0.3937007874015748
          },
          {
            "duration": 0.21739099999999212,
            "durationTicks": 192,
            "midi": 58,
            "name": "A#3",
            "ticks": 115598,
            "time": 130.88523342708334,
            "velocity": 0.3937007874015748
          },
          {
            "duration": 0.21739099999999212,
            "durationTicks": 192,
            "midi": 63,
            "name": "D#4",
            "ticks": 115598,
            "time": 130.88523342708334,
            "velocity": 0.3937007874015748
          },
          {
            "duration": 1.7391279999999938,
            "durationTicks": 1536,
            "midi": 46,
            "name": "A#2",
            "ticks": 115598,
            "time": 130.88523342708334,
            "velocity": 0.3937007874015748
          },
          {
            "duration": 0.21739099999999212,
            "durationTicks": 192,
            "midi": 61,
            "name": "C#4",
            "ticks": 115598,
            "time": 130.88523342708334,
            "velocity": 0.3937007874015748
          },
          {
            "duration": 0.21739099999999212,
            "durationTicks": 192,
            "midi": 77,
            "name": "F5",
            "ticks": 115598,
            "time": 130.88523342708334,
            "velocity": 0.3937007874015748
          },
          {
            "duration": 0.10869549999998185,
            "durationTicks": 96,
            "midi": 51,
            "name": "D#3",
            "ticks": 115598,
            "time": 130.88523342708334,
            "velocity": 0.3937007874015748
          },
          {
            "duration": 0.21739099999999212,
            "durationTicks": 192,
            "midi": 65,
            "name": "F4",
            "ticks": 115598,
            "time": 130.88523342708334,
            "velocity": 0.3937007874015748
          },
          {
            "duration": 0.21739099999999212,
            "durationTicks": 192,
            "midi": 73,
            "name": "C#5",
            "ticks": 115598,
            "time": 130.88523342708334,
            "velocity": 0.3937007874015748
          },
          {
            "duration": 0.9782594999999787,
            "durationTicks": 864,
            "midi": 51,
            "name": "D#3",
            "ticks": 115598,
            "time": 130.88523342708334,
            "velocity": 0.3937007874015748
          },
          {
            "duration": 0.10869550000001027,
            "durationTicks": 96,
            "midi": 54,
            "name": "F#3",
            "ticks": 115694,
            "time": 130.99392892708332,
            "velocity": 0.3937007874015748
          },
          {
            "duration": 0.21739099999999212,
            "durationTicks": 192,
            "midi": 78,
            "name": "F#5",
            "ticks": 115790,
            "time": 131.10262442708333,
            "velocity": 0.3937007874015748
          },
          {
            "duration": 0.21739099999999212,
            "durationTicks": 192,
            "midi": 66,
            "name": "F#4",
            "ticks": 115790,
            "time": 131.10262442708333,
            "velocity": 0.3937007874015748
          },
          {
            "duration": 0.3260865000000024,
            "durationTicks": 288,
            "midi": 54,
            "name": "F#3",
            "ticks": 115790,
            "time": 131.10262442708333,
            "velocity": 0.3937007874015748
          },
          {
            "duration": 0.21739099999999212,
            "durationTicks": 192,
            "midi": 75,
            "name": "D#5",
            "ticks": 115790,
            "time": 131.10262442708333,
            "velocity": 0.3937007874015748
          },
          {
            "duration": 0.10869550000001027,
            "durationTicks": 96,
            "midi": 58,
            "name": "A#3",
            "ticks": 115790,
            "time": 131.10262442708333,
            "velocity": 0.3937007874015748
          },
          {
            "duration": 0.21739099999999212,
            "durationTicks": 192,
            "midi": 63,
            "name": "D#4",
            "ticks": 115790,
            "time": 131.10262442708333,
            "velocity": 0.3937007874015748
          },
          {
            "duration": 0.21739099999999212,
            "durationTicks": 192,
            "midi": 63,
            "name": "D#4",
            "ticks": 115790,
            "time": 131.10262442708333,
            "velocity": 0.3937007874015748
          },
          {
            "duration": 0.3260865000000024,
            "durationTicks": 288,
            "midi": 58,
            "name": "A#3",
            "ticks": 115790,
            "time": 131.10262442708333,
            "velocity": 0.3937007874015748
          },
          {
            "duration": 0.21739099999999212,
            "durationTicks": 192,
            "midi": 63,
            "name": "D#4",
            "ticks": 115886,
            "time": 131.21131992708334,
            "velocity": 0.3937007874015748
          },
          {
            "duration": 0.21739099999999212,
            "durationTicks": 192,
            "midi": 80,
            "name": "G#5",
            "ticks": 115982,
            "time": 131.32001542708332,
            "velocity": 0.3937007874015748
          },
          {
            "duration": 0.10869550000001027,
            "durationTicks": 96,
            "midi": 66,
            "name": "F#4",
            "ticks": 115982,
            "time": 131.32001542708332,
            "velocity": 0.3937007874015748
          },
          {
            "duration": 0.21739099999999212,
            "durationTicks": 192,
            "midi": 77,
            "name": "F5",
            "ticks": 115982,
            "time": 131.32001542708332,
            "velocity": 0.3937007874015748
          },
          {
            "duration": 0.21739099999999212,
            "durationTicks": 192,
            "midi": 68,
            "name": "G#4",
            "ticks": 115982,
            "time": 131.32001542708332,
            "velocity": 0.3937007874015748
          },
          {
            "duration": 0.21739099999999212,
            "durationTicks": 192,
            "midi": 65,
            "name": "F4",
            "ticks": 115982,
            "time": 131.32001542708332,
            "velocity": 0.3937007874015748
          },
          {
            "duration": 0.10869549999998185,
            "durationTicks": 96,
            "midi": 70,
            "name": "A#4",
            "ticks": 116078,
            "time": 131.42871092708333,
            "velocity": 0.3937007874015748
          },
          {
            "duration": 0.3260865000000024,
            "durationTicks": 288,
            "midi": 63,
            "name": "D#4",
            "ticks": 116078,
            "time": 131.42871092708333,
            "velocity": 0.3937007874015748
          },
          {
            "duration": 0.3260865000000024,
            "durationTicks": 288,
            "midi": 54,
            "name": "F#3",
            "ticks": 116078,
            "time": 131.42871092708333,
            "velocity": 0.3937007874015748
          },
          {
            "duration": 0.3260865000000024,
            "durationTicks": 288,
            "midi": 58,
            "name": "A#3",
            "ticks": 116078,
            "time": 131.42871092708333,
            "velocity": 0.3937007874015748
          },
          {
            "duration": 0.21739100000002054,
            "durationTicks": 192,
            "midi": 66,
            "name": "F#4",
            "ticks": 116174,
            "time": 131.5374064270833,
            "velocity": 0.3937007874015748
          },
          {
            "duration": 0.21739100000002054,
            "durationTicks": 192,
            "midi": 82,
            "name": "A#5",
            "ticks": 116174,
            "time": 131.5374064270833,
            "velocity": 0.3937007874015748
          },
          {
            "duration": 0.10869550000001027,
            "durationTicks": 96,
            "midi": 75,
            "name": "D#5",
            "ticks": 116174,
            "time": 131.5374064270833,
            "velocity": 0.3937007874015748
          },
          {
            "duration": 0.21739100000002054,
            "durationTicks": 192,
            "midi": 78,
            "name": "F#5",
            "ticks": 116174,
            "time": 131.5374064270833,
            "velocity": 0.3937007874015748
          },
          {
            "duration": 0.21739100000002054,
            "durationTicks": 192,
            "midi": 70,
            "name": "A#4",
            "ticks": 116174,
            "time": 131.5374064270833,
            "velocity": 0.3937007874015748
          },
          {
            "duration": 0.10869550000001027,
            "durationTicks": 96,
            "midi": 78,
            "name": "F#5",
            "ticks": 116270,
            "time": 131.64610192708332,
            "velocity": 0.3937007874015748
          },
          {
            "duration": 0.21739099999999212,
            "durationTicks": 192,
            "midi": 70,
            "name": "A#4",
            "ticks": 116366,
            "time": 131.75479742708333,
            "velocity": 0.3937007874015748
          },
          {
            "duration": 0.21739099999999212,
            "durationTicks": 192,
            "midi": 58,
            "name": "A#3",
            "ticks": 116366,
            "time": 131.75479742708333,
            "velocity": 0.3937007874015748
          },
          {
            "duration": 0.21739099999999212,
            "durationTicks": 192,
            "midi": 54,
            "name": "F#3",
            "ticks": 116366,
            "time": 131.75479742708333,
            "velocity": 0.3937007874015748
          },
          {
            "duration": 0.21739099999999212,
            "durationTicks": 192,
            "midi": 75,
            "name": "D#5",
            "ticks": 116366,
            "time": 131.75479742708333,
            "velocity": 0.3937007874015748
          },
          {
            "duration": 0.8695639999999969,
            "durationTicks": 768,
            "midi": 51,
            "name": "D#3",
            "ticks": 116366,
            "time": 131.75479742708333,
            "velocity": 0.3937007874015748
          },
          {
            "duration": 0.21739099999999212,
            "durationTicks": 192,
            "midi": 63,
            "name": "D#4",
            "ticks": 116366,
            "time": 131.75479742708333,
            "velocity": 0.3937007874015748
          },
          {
            "duration": 0.21739099999999212,
            "durationTicks": 192,
            "midi": 63,
            "name": "D#4",
            "ticks": 116366,
            "time": 131.75479742708333,
            "velocity": 0.3937007874015748
          },
          {
            "duration": 0.21739099999999212,
            "durationTicks": 192,
            "midi": 58,
            "name": "A#3",
            "ticks": 116366,
            "time": 131.75479742708333,
            "velocity": 0.3937007874015748
          },
          {
            "duration": 0.10869550000001027,
            "durationTicks": 96,
            "midi": 54,
            "name": "F#3",
            "ticks": 116462,
            "time": 131.8634929270833,
            "velocity": 0.3937007874015748
          },
          {
            "duration": 0.10869550000001027,
            "durationTicks": 96,
            "midi": 58,
            "name": "A#3",
            "ticks": 116558,
            "time": 131.97218842708332,
            "velocity": 0.3937007874015748
          },
          {
            "duration": 0.21739099999999212,
            "durationTicks": 192,
            "midi": 63,
            "name": "D#4",
            "ticks": 116558,
            "time": 131.97218842708332,
            "velocity": 0.3937007874015748
          },
          {
            "duration": 0.3260865000000024,
            "durationTicks": 288,
            "midi": 58,
            "name": "A#3",
            "ticks": 116558,
            "time": 131.97218842708332,
            "velocity": 0.3937007874015748
          },
          {
            "duration": 0.3260865000000024,
            "durationTicks": 288,
            "midi": 54,
            "name": "F#3",
            "ticks": 116558,
            "time": 131.97218842708332,
            "velocity": 0.3937007874015748
          },
          {
            "duration": 0.21739099999999212,
            "durationTicks": 192,
            "midi": 63,
            "name": "D#4",
            "ticks": 116654,
            "time": 132.08088392708333,
            "velocity": 0.3937007874015748
          },
          {
            "duration": 0.21739100000002054,
            "durationTicks": 192,
            "midi": 70,
            "name": "A#4",
            "ticks": 116750,
            "time": 132.18957942708332,
            "velocity": 0.3937007874015748
          },
          {
            "duration": 0.10869550000001027,
            "durationTicks": 96,
            "midi": 66,
            "name": "F#4",
            "ticks": 116750,
            "time": 132.18957942708332,
            "velocity": 0.3937007874015748
          },
          {
            "duration": 0.21739100000002054,
            "durationTicks": 192,
            "midi": 66,
            "name": "F#4",
            "ticks": 116750,
            "time": 132.18957942708332,
            "velocity": 0.3937007874015748
          },
          {
            "duration": 0.21739100000002054,
            "durationTicks": 192,
            "midi": 78,
            "name": "F#5",
            "ticks": 116750,
            "time": 132.18957942708332,
            "velocity": 0.3937007874015748
          },
          {
            "duration": 0.21739100000002054,
            "durationTicks": 192,
            "midi": 82,
            "name": "A#5",
            "ticks": 116750,
            "time": 132.18957942708332,
            "velocity": 0.3937007874015748
          },
          {
            "duration": 0.10869550000001027,
            "durationTicks": 96,
            "midi": 70,
            "name": "A#4",
            "ticks": 116846,
            "time": 132.29827492708333,
            "velocity": 0.3937007874015748
          },
          {
            "duration": 0.3260865000000024,
            "durationTicks": 288,
            "midi": 58,
            "name": "A#3",
            "ticks": 116846,
            "time": 132.29827492708333,
            "velocity": 0.3937007874015748
          },
          {
            "duration": 0.3260865000000024,
            "durationTicks": 288,
            "midi": 63,
            "name": "D#4",
            "ticks": 116846,
            "time": 132.29827492708333,
            "velocity": 0.3937007874015748
          },
          {
            "duration": 0.3260865000000024,
            "durationTicks": 288,
            "midi": 54,
            "name": "F#3",
            "ticks": 116846,
            "time": 132.29827492708333,
            "velocity": 0.3937007874015748
          },
          {
            "duration": 0.21739099999999212,
            "durationTicks": 192,
            "midi": 80,
            "name": "G#5",
            "ticks": 116942,
            "time": 132.40697042708334,
            "velocity": 0.3937007874015748
          },
          {
            "duration": 0.21739099999999212,
            "durationTicks": 192,
            "midi": 73,
            "name": "C#5",
            "ticks": 116942,
            "time": 132.40697042708334,
            "velocity": 0.3937007874015748
          },
          {
            "duration": 0.21739099999999212,
            "durationTicks": 192,
            "midi": 85,
            "name": "C#6",
            "ticks": 116942,
            "time": 132.40697042708334,
            "velocity": 0.3937007874015748
          },
          {
            "duration": 0.21739099999999212,
            "durationTicks": 192,
            "midi": 68,
            "name": "G#4",
            "ticks": 116942,
            "time": 132.40697042708334,
            "velocity": 0.3937007874015748
          },
          {
            "duration": 0.10869549999998185,
            "durationTicks": 96,
            "midi": 75,
            "name": "D#5",
            "ticks": 116942,
            "time": 132.40697042708334,
            "velocity": 0.3937007874015748
          },
          {
            "duration": 0.10869550000001027,
            "durationTicks": 96,
            "midi": 78,
            "name": "F#5",
            "ticks": 117038,
            "time": 132.51566592708332,
            "velocity": 0.3937007874015748
          },
          {
            "duration": 0.21739099999999212,
            "durationTicks": 192,
            "midi": 54,
            "name": "F#3",
            "ticks": 117134,
            "time": 132.62436142708333,
            "velocity": 0.3937007874015748
          },
          {
            "duration": 0.21739099999999212,
            "durationTicks": 192,
            "midi": 80,
            "name": "G#5",
            "ticks": 117134,
            "time": 132.62436142708333,
            "velocity": 0.3937007874015748
          },
          {
            "duration": 1.7391279999999938,
            "durationTicks": 1536,
            "midi": 30,
            "name": "F#1",
            "ticks": 117134,
            "time": 132.62436142708333,
            "velocity": 0.3937007874015748
          },
          {
            "duration": 0.21739099999999212,
            "durationTicks": 192,
            "midi": 59,
            "name": "B3",
            "ticks": 117134,
            "time": 132.62436142708333,
            "velocity": 0.3937007874015748
          },
          {
            "duration": 0.21739099999999212,
            "durationTicks": 192,
            "midi": 68,
            "name": "G#4",
            "ticks": 117134,
            "time": 132.62436142708333,
            "velocity": 0.3937007874015748
          },
          {
            "duration": 0.21739099999999212,
            "durationTicks": 192,
            "midi": 51,
            "name": "D#3",
            "ticks": 117134,
            "time": 132.62436142708333,
            "velocity": 0.3937007874015748
          },
          {
            "duration": 0.21739099999999212,
            "durationTicks": 192,
            "midi": 73,
            "name": "C#5",
            "ticks": 117134,
            "time": 132.62436142708333,
            "velocity": 0.3937007874015748
          },
          {
            "duration": 0.10869550000001027,
            "durationTicks": 96,
            "midi": 47,
            "name": "B2",
            "ticks": 117134,
            "time": 132.62436142708333,
            "velocity": 0.3937007874015748
          },
          {
            "duration": 0.21739099999999212,
            "durationTicks": 192,
            "midi": 85,
            "name": "C#6",
            "ticks": 117134,
            "time": 132.62436142708333,
            "velocity": 0.3937007874015748
          },
          {
            "duration": 0.9782595000000072,
            "durationTicks": 864,
            "midi": 47,
            "name": "B2",
            "ticks": 117134,
            "time": 132.62436142708333,
            "velocity": 0.3937007874015748
          },
          {
            "duration": 1.7391279999999938,
            "durationTicks": 1536,
            "midi": 35,
            "name": "B1",
            "ticks": 117134,
            "time": 132.62436142708333,
            "velocity": 0.3937007874015748
          },
          {
            "duration": 1.7391279999999938,
            "durationTicks": 1536,
            "midi": 42,
            "name": "F#2",
            "ticks": 117134,
            "time": 132.62436142708333,
            "velocity": 0.3937007874015748
          },
          {
            "duration": 0.10869549999998185,
            "durationTicks": 96,
            "midi": 51,
            "name": "D#3",
            "ticks": 117230,
            "time": 132.73305692708334,
            "velocity": 0.3937007874015748
          },
          {
            "duration": 0.21739099999999212,
            "durationTicks": 192,
            "midi": 87,
            "name": "D#6",
            "ticks": 117326,
            "time": 132.84175242708332,
            "velocity": 0.3937007874015748
          },
          {
            "duration": 0.10869550000001027,
            "durationTicks": 96,
            "midi": 54,
            "name": "F#3",
            "ticks": 117326,
            "time": 132.84175242708332,
            "velocity": 0.3937007874015748
          },
          {
            "duration": 0.21739099999999212,
            "durationTicks": 192,
            "midi": 59,
            "name": "B3",
            "ticks": 117326,
            "time": 132.84175242708332,
            "velocity": 0.3937007874015748
          },
          {
            "duration": 0.21739099999999212,
            "durationTicks": 192,
            "midi": 70,
            "name": "A#4",
            "ticks": 117326,
            "time": 132.84175242708332,
            "velocity": 0.3937007874015748
          },
          {
            "duration": 0.3260865000000024,
            "durationTicks": 288,
            "midi": 51,
            "name": "D#3",
            "ticks": 117326,
            "time": 132.84175242708332,
            "velocity": 0.3937007874015748
          },
          {
            "duration": 0.21739099999999212,
            "durationTicks": 192,
            "midi": 75,
            "name": "D#5",
            "ticks": 117326,
            "time": 132.84175242708332,
            "velocity": 0.3937007874015748
          },
          {
            "duration": 0.21739099999999212,
            "durationTicks": 192,
            "midi": 82,
            "name": "A#5",
            "ticks": 117326,
            "time": 132.84175242708332,
            "velocity": 0.3937007874015748
          },
          {
            "duration": 0.3260865000000024,
            "durationTicks": 288,
            "midi": 54,
            "name": "F#3",
            "ticks": 117326,
            "time": 132.84175242708332,
            "velocity": 0.3937007874015748
          },
          {
            "duration": 0.21739099999999212,
            "durationTicks": 192,
            "midi": 59,
            "name": "B3",
            "ticks": 117422,
            "time": 132.95044792708333,
            "velocity": 0.3937007874015748
          },
          {
            "duration": 0.21739100000002054,
            "durationTicks": 192,
            "midi": 82,
            "name": "A#5",
            "ticks": 117518,
            "time": 133.0591434270833,
            "velocity": 0.3937007874015748
          },
          {
            "duration": 0.21739100000002054,
            "durationTicks": 192,
            "midi": 78,
            "name": "F#5",
            "ticks": 117518,
            "time": 133.0591434270833,
            "velocity": 0.3937007874015748
          },
          {
            "duration": 0.21739100000002054,
            "durationTicks": 192,
            "midi": 66,
            "name": "F#4",
            "ticks": 117518,
            "time": 133.0591434270833,
            "velocity": 0.3937007874015748
          },
          {
            "duration": 0.10869550000001027,
            "durationTicks": 96,
            "midi": 63,
            "name": "D#4",
            "ticks": 117518,
            "time": 133.0591434270833,
            "velocity": 0.3937007874015748
          },
          {
            "duration": 0.21739100000002054,
            "durationTicks": 192,
            "midi": 70,
            "name": "A#4",
            "ticks": 117518,
            "time": 133.0591434270833,
            "velocity": 0.3937007874015748
          },
          {
            "duration": 0.3260865000000024,
            "durationTicks": 288,
            "midi": 59,
            "name": "B3",
            "ticks": 117614,
            "time": 133.16783892708332,
            "velocity": 0.3937007874015748
          },
          {
            "duration": 0.3260865000000024,
            "durationTicks": 288,
            "midi": 51,
            "name": "D#3",
            "ticks": 117614,
            "time": 133.16783892708332,
            "velocity": 0.3937007874015748
          },
          {
            "duration": 0.10869550000001027,
            "durationTicks": 96,
            "midi": 66,
            "name": "F#4",
            "ticks": 117614,
            "time": 133.16783892708332,
            "velocity": 0.3937007874015748
          },
          {
            "duration": 0.3260865000000024,
            "durationTicks": 288,
            "midi": 54,
            "name": "F#3",
            "ticks": 117614,
            "time": 133.16783892708332,
            "velocity": 0.3937007874015748
          },
          {
            "duration": 0.21739099999999212,
            "durationTicks": 192,
            "midi": 77,
            "name": "F5",
            "ticks": 117710,
            "time": 133.27653442708333,
            "velocity": 0.3937007874015748
          },
          {
            "duration": 0.10869549999998185,
            "durationTicks": 96,
            "midi": 71,
            "name": "B4",
            "ticks": 117710,
            "time": 133.27653442708333,
            "velocity": 0.3937007874015748
          },
          {
            "duration": 0.21739099999999212,
            "durationTicks": 192,
            "midi": 80,
            "name": "G#5",
            "ticks": 117710,
            "time": 133.27653442708333,
            "velocity": 0.3937007874015748
          },
          {
            "duration": 0.21739099999999212,
            "durationTicks": 192,
            "midi": 65,
            "name": "F4",
            "ticks": 117710,
            "time": 133.27653442708333,
            "velocity": 0.3937007874015748
          },
          {
            "duration": 0.21739099999999212,
            "durationTicks": 192,
            "midi": 68,
            "name": "G#4",
            "ticks": 117710,
            "time": 133.27653442708333,
            "velocity": 0.3937007874015748
          },
          {
            "duration": 0.10869550000001027,
            "durationTicks": 96,
            "midi": 75,
            "name": "D#5",
            "ticks": 117806,
            "time": 133.38522992708332,
            "velocity": 0.3937007874015748
          },
          {
            "duration": 0.8695639999999969,
            "durationTicks": 768,
            "midi": 47,
            "name": "B2",
            "ticks": 117902,
            "time": 133.49392542708333,
            "velocity": 0.3937007874015748
          },
          {
            "duration": 0.21739099999999212,
            "durationTicks": 192,
            "midi": 78,
            "name": "F#5",
            "ticks": 117902,
            "time": 133.49392542708333,
            "velocity": 0.3937007874015748
          },
          {
            "duration": 0.21739099999999212,
            "durationTicks": 192,
            "midi": 51,
            "name": "D#3",
            "ticks": 117902,
            "time": 133.49392542708333,
            "velocity": 0.3937007874015748
          },
          {
            "duration": 0.21739099999999212,
            "durationTicks": 192,
            "midi": 82,
            "name": "A#5",
            "ticks": 117902,
            "time": 133.49392542708333,
            "velocity": 0.3937007874015748
          },
          {
            "duration": 0.21739099999999212,
            "durationTicks": 192,
            "midi": 66,
            "name": "F#4",
            "ticks": 117902,
            "time": 133.49392542708333,
            "velocity": 0.3937007874015748
          },
          {
            "duration": 0.21739099999999212,
            "durationTicks": 192,
            "midi": 54,
            "name": "F#3",
            "ticks": 117902,
            "time": 133.49392542708333,
            "velocity": 0.3937007874015748
          },
          {
            "duration": 0.21739099999999212,
            "durationTicks": 192,
            "midi": 59,
            "name": "B3",
            "ticks": 117902,
            "time": 133.49392542708333,
            "velocity": 0.3937007874015748
          },
          {
            "duration": 0.21739099999999212,
            "durationTicks": 192,
            "midi": 70,
            "name": "A#4",
            "ticks": 117902,
            "time": 133.49392542708333,
            "velocity": 0.3937007874015748
          },
          {
            "duration": 0.10869549999998185,
            "durationTicks": 96,
            "midi": 51,
            "name": "D#3",
            "ticks": 117998,
            "time": 133.60262092708334,
            "velocity": 0.3937007874015748
          },
          {
            "duration": 0.3260865000000024,
            "durationTicks": 288,
            "midi": 51,
            "name": "D#3",
            "ticks": 118094,
            "time": 133.71131642708332,
            "velocity": 0.3937007874015748
          },
          {
            "duration": 0.21739100000002054,
            "durationTicks": 192,
            "midi": 59,
            "name": "B3",
            "ticks": 118094,
            "time": 133.71131642708332,
            "velocity": 0.3937007874015748
          },
          {
            "duration": 0.10869550000001027,
            "durationTicks": 96,
            "midi": 54,
            "name": "F#3",
            "ticks": 118094,
            "time": 133.71131642708332,
            "velocity": 0.3937007874015748
          },
          {
            "duration": 0.3260865000000024,
            "durationTicks": 288,
            "midi": 54,
            "name": "F#3",
            "ticks": 118094,
            "time": 133.71131642708332,
            "velocity": 0.3937007874015748
          },
          {
            "duration": 0.21739099999999212,
            "durationTicks": 192,
            "midi": 59,
            "name": "B3",
            "ticks": 118190,
            "time": 133.82001192708333,
            "velocity": 0.3937007874015748
          },
          {
            "duration": 0.21739099999999212,
            "durationTicks": 192,
            "midi": 77,
            "name": "F5",
            "ticks": 118286,
            "time": 133.92870742708334,
            "velocity": 0.3937007874015748
          },
          {
            "duration": 0.21739099999999212,
            "durationTicks": 192,
            "midi": 68,
            "name": "G#4",
            "ticks": 118286,
            "time": 133.92870742708334,
            "velocity": 0.3937007874015748
          },
          {
            "duration": 0.21739099999999212,
            "durationTicks": 192,
            "midi": 65,
            "name": "F4",
            "ticks": 118286,
            "time": 133.92870742708334,
            "velocity": 0.3937007874015748
          },
          {
            "duration": 0.10869549999998185,
            "durationTicks": 96,
            "midi": 63,
            "name": "D#4",
            "ticks": 118286,
            "time": 133.92870742708334,
            "velocity": 0.3937007874015748
          },
          {
            "duration": 0.21739099999999212,
            "durationTicks": 192,
            "midi": 80,
            "name": "G#5",
            "ticks": 118286,
            "time": 133.92870742708334,
            "velocity": 0.3937007874015748
          },
          {
            "duration": 0.3260865000000024,
            "durationTicks": 288,
            "midi": 54,
            "name": "F#3",
            "ticks": 118382,
            "time": 134.03740292708332,
            "velocity": 0.3937007874015748
          },
          {
            "duration": 0.3260865000000024,
            "durationTicks": 288,
            "midi": 59,
            "name": "B3",
            "ticks": 118382,
            "time": 134.03740292708332,
            "velocity": 0.3937007874015748
          },
          {
            "duration": 0.10869550000001027,
            "durationTicks": 96,
            "midi": 66,
            "name": "F#4",
            "ticks": 118382,
            "time": 134.03740292708332,
            "velocity": 0.3937007874015748
          },
          {
            "duration": 0.3260865000000024,
            "durationTicks": 288,
            "midi": 51,
            "name": "D#3",
            "ticks": 118382,
            "time": 134.03740292708332,
            "velocity": 0.3937007874015748
          },
          {
            "duration": 0.21739099999999212,
            "durationTicks": 192,
            "midi": 66,
            "name": "F#4",
            "ticks": 118478,
            "time": 134.14609842708333,
            "velocity": 0.3937007874015748
          },
          {
            "duration": 0.21739099999999212,
            "durationTicks": 192,
            "midi": 78,
            "name": "F#5",
            "ticks": 118478,
            "time": 134.14609842708333,
            "velocity": 0.3937007874015748
          },
          {
            "duration": 0.21739099999999212,
            "durationTicks": 192,
            "midi": 70,
            "name": "A#4",
            "ticks": 118478,
            "time": 134.14609842708333,
            "velocity": 0.3937007874015748
          },
          {
            "duration": 0.10869549999998185,
            "durationTicks": 96,
            "midi": 71,
            "name": "B4",
            "ticks": 118478,
            "time": 134.14609842708333,
            "velocity": 0.3937007874015748
          },
          {
            "duration": 0.21739099999999212,
            "durationTicks": 192,
            "midi": 82,
            "name": "A#5",
            "ticks": 118478,
            "time": 134.14609842708333,
            "velocity": 0.3937007874015748
          },
          {
            "duration": 0.10869550000001027,
            "durationTicks": 96,
            "midi": 75,
            "name": "D#5",
            "ticks": 118574,
            "time": 134.2547939270833,
            "velocity": 0.3937007874015748
          },
          {
            "duration": 0.10869550000001027,
            "durationTicks": 96,
            "midi": 49,
            "name": "C#3",
            "ticks": 118670,
            "time": 134.36348942708332,
            "velocity": 0.3937007874015748
          },
          {
            "duration": 0.21739099999999212,
            "durationTicks": 192,
            "midi": 53,
            "name": "F3",
            "ticks": 118670,
            "time": 134.36348942708332,
            "velocity": 0.3937007874015748
          },
          {
            "duration": 1.7391279999999938,
            "durationTicks": 1536,
            "midi": 44,
            "name": "G#2",
            "ticks": 118670,
            "time": 134.36348942708332,
            "velocity": 0.3937007874015748
          },
          {
            "duration": 0.21739099999999212,
            "durationTicks": 192,
            "midi": 73,
            "name": "C#5",
            "ticks": 118670,
            "time": 134.36348942708332,
            "velocity": 0.3937007874015748
          },
          {
            "duration": 1.7391279999999938,
            "durationTicks": 1536,
            "midi": 37,
            "name": "C#2",
            "ticks": 118670,
            "time": 134.36348942708332,
            "velocity": 0.3937007874015748
          },
          {
            "duration": 0.21739099999999212,
            "durationTicks": 192,
            "midi": 68,
            "name": "G#4",
            "ticks": 118670,
            "time": 134.36348942708332,
            "velocity": 0.3937007874015748
          },
          {
            "duration": 0.21739099999999212,
            "durationTicks": 192,
            "midi": 61,
            "name": "C#4",
            "ticks": 118670,
            "time": 134.36348942708332,
            "velocity": 0.3937007874015748
          },
          {
            "duration": 0.21739099999999212,
            "durationTicks": 192,
            "midi": 85,
            "name": "C#6",
            "ticks": 118670,
            "time": 134.36348942708332,
            "velocity": 0.3937007874015748
          },
          {
            "duration": 0.9782595000000072,
            "durationTicks": 864,
            "midi": 49,
            "name": "C#3",
            "ticks": 118670,
            "time": 134.36348942708332,
            "velocity": 0.3937007874015748
          },
          {
            "duration": 1.7391279999999938,
            "durationTicks": 1536,
            "midi": 32,
            "name": "G#1",
            "ticks": 118670,
            "time": 134.36348942708332,
            "velocity": 0.3937007874015748
          },
          {
            "duration": 0.21739099999999212,
            "durationTicks": 192,
            "midi": 56,
            "name": "G#3",
            "ticks": 118670,
            "time": 134.36348942708332,
            "velocity": 0.3937007874015748
          },
          {
            "duration": 0.21739099999999212,
            "durationTicks": 192,
            "midi": 80,
            "name": "G#5",
            "ticks": 118670,
            "time": 134.36348942708332,
            "velocity": 0.3937007874015748
          },
          {
            "duration": 0.10869549999998185,
            "durationTicks": 96,
            "midi": 53,
            "name": "F3",
            "ticks": 118766,
            "time": 134.47218492708333,
            "velocity": 0.3937007874015748
          },
          {
            "duration": 0.10869550000001027,
            "durationTicks": 96,
            "midi": 56,
            "name": "G#3",
            "ticks": 118862,
            "time": 134.58088042708331,
            "velocity": 0.3937007874015748
          },
          {
            "duration": 0.3260865000000024,
            "durationTicks": 288,
            "midi": 56,
            "name": "G#3",
            "ticks": 118862,
            "time": 134.58088042708331,
            "velocity": 0.3937007874015748
          },
          {
            "duration": 0.21739100000002054,
            "durationTicks": 192,
            "midi": 70,
            "name": "A#4",
            "ticks": 118862,
            "time": 134.58088042708331,
            "velocity": 0.3937007874015748
          },
          {
            "duration": 0.21739100000002054,
            "durationTicks": 192,
            "midi": 75,
            "name": "D#5",
            "ticks": 118862,
            "time": 134.58088042708331,
            "velocity": 0.3937007874015748
          },
          {
            "duration": 0.21739100000002054,
            "durationTicks": 192,
            "midi": 87,
            "name": "D#6",
            "ticks": 118862,
            "time": 134.58088042708331,
            "velocity": 0.3937007874015748
          },
          {
            "duration": 0.21739100000002054,
            "durationTicks": 192,
            "midi": 82,
            "name": "A#5",
            "ticks": 118862,
            "time": 134.58088042708331,
            "velocity": 0.3937007874015748
          },
          {
            "duration": 0.3260865000000024,
            "durationTicks": 288,
            "midi": 53,
            "name": "F3",
            "ticks": 118862,
            "time": 134.58088042708331,
            "velocity": 0.3937007874015748
          },
          {
            "duration": 0.21739100000002054,
            "durationTicks": 192,
            "midi": 61,
            "name": "C#4",
            "ticks": 118862,
            "time": 134.58088042708331,
            "velocity": 0.3937007874015748
          },
          {
            "duration": 0.21739099999999212,
            "durationTicks": 192,
            "midi": 61,
            "name": "C#4",
            "ticks": 118958,
            "time": 134.68957592708333,
            "velocity": 0.3937007874015748
          },
          {
            "duration": 0.21739099999999212,
            "durationTicks": 192,
            "midi": 82,
            "name": "A#5",
            "ticks": 119054,
            "time": 134.79827142708334,
            "velocity": 0.3937007874015748
          },
          {
            "duration": 0.21739099999999212,
            "durationTicks": 192,
            "midi": 70,
            "name": "A#4",
            "ticks": 119054,
            "time": 134.79827142708334,
            "velocity": 0.3937007874015748
          },
          {
            "duration": 0.21739099999999212,
            "durationTicks": 192,
            "midi": 78,
            "name": "F#5",
            "ticks": 119054,
            "time": 134.79827142708334,
            "velocity": 0.3937007874015748
          },
          {
            "duration": 0.10869549999998185,
            "durationTicks": 96,
            "midi": 65,
            "name": "F4",
            "ticks": 119054,
            "time": 134.79827142708334,
            "velocity": 0.3937007874015748
          },
          {
            "duration": 0.21739099999999212,
            "durationTicks": 192,
            "midi": 66,
            "name": "F#4",
            "ticks": 119054,
            "time": 134.79827142708334,
            "velocity": 0.3937007874015748
          },
          {
            "duration": 0.3260865000000024,
            "durationTicks": 288,
            "midi": 56,
            "name": "G#3",
            "ticks": 119150,
            "time": 134.90696692708332,
            "velocity": 0.3937007874015748
          },
          {
            "duration": 0.3260865000000024,
            "durationTicks": 288,
            "midi": 61,
            "name": "C#4",
            "ticks": 119150,
            "time": 134.90696692708332,
            "velocity": 0.3937007874015748
          },
          {
            "duration": 0.3260865000000024,
            "durationTicks": 288,
            "midi": 53,
            "name": "F3",
            "ticks": 119150,
            "time": 134.90696692708332,
            "velocity": 0.3937007874015748
          },
          {
            "duration": 0.10869550000001027,
            "durationTicks": 96,
            "midi": 68,
            "name": "G#4",
            "ticks": 119150,
            "time": 134.90696692708332,
            "velocity": 0.3937007874015748
          },
          {
            "duration": 0.21739099999999212,
            "durationTicks": 192,
            "midi": 65,
            "name": "F4",
            "ticks": 119246,
            "time": 135.01566242708333,
            "velocity": 0.3937007874015748
          },
          {
            "duration": 0.21739099999999212,
            "durationTicks": 192,
            "midi": 77,
            "name": "F5",
            "ticks": 119246,
            "time": 135.01566242708333,
            "velocity": 0.3937007874015748
          },
          {
            "duration": 0.21739099999999212,
            "durationTicks": 192,
            "midi": 80,
            "name": "G#5",
            "ticks": 119246,
            "time": 135.01566242708333,
            "velocity": 0.3937007874015748
          },
          {
            "duration": 0.10869550000001027,
            "durationTicks": 96,
            "midi": 73,
            "name": "C#5",
            "ticks": 119246,
            "time": 135.01566242708333,
            "velocity": 0.3937007874015748
          },
          {
            "duration": 0.21739099999999212,
            "durationTicks": 192,
            "midi": 68,
            "name": "G#4",
            "ticks": 119246,
            "time": 135.01566242708333,
            "velocity": 0.3937007874015748
          },
          {
            "duration": 0.10869549999998185,
            "durationTicks": 96,
            "midi": 77,
            "name": "F5",
            "ticks": 119342,
            "time": 135.12435792708334,
            "velocity": 0.3937007874015748
          },
          {
            "duration": 0.21739099999999212,
            "durationTicks": 192,
            "midi": 56,
            "name": "G#3",
            "ticks": 119438,
            "time": 135.23305342708332,
            "velocity": 0.3937007874015748
          },
          {
            "duration": 0.21739099999999212,
            "durationTicks": 192,
            "midi": 78,
            "name": "F#5",
            "ticks": 119438,
            "time": 135.23305342708332,
            "velocity": 0.3937007874015748
          },
          {
            "duration": 0.21739099999999212,
            "durationTicks": 192,
            "midi": 82,
            "name": "A#5",
            "ticks": 119438,
            "time": 135.23305342708332,
            "velocity": 0.3937007874015748
          },
          {
            "duration": 0.21739099999999212,
            "durationTicks": 192,
            "midi": 61,
            "name": "C#4",
            "ticks": 119438,
            "time": 135.23305342708332,
            "velocity": 0.3937007874015748
          },
          {
            "duration": 0.21739099999999212,
            "durationTicks": 192,
            "midi": 66,
            "name": "F#4",
            "ticks": 119438,
            "time": 135.23305342708332,
            "velocity": 0.3937007874015748
          },
          {
            "duration": 0.21739099999999212,
            "durationTicks": 192,
            "midi": 70,
            "name": "A#4",
            "ticks": 119438,
            "time": 135.23305342708332,
            "velocity": 0.3937007874015748
          },
          {
            "duration": 0.21739099999999212,
            "durationTicks": 192,
            "midi": 53,
            "name": "F3",
            "ticks": 119438,
            "time": 135.23305342708332,
            "velocity": 0.3937007874015748
          },
          {
            "duration": 0.8695639999999969,
            "durationTicks": 768,
            "midi": 49,
            "name": "C#3",
            "ticks": 119438,
            "time": 135.23305342708332,
            "velocity": 0.3937007874015748
          },
          {
            "duration": 0.10869549999998185,
            "durationTicks": 96,
            "midi": 53,
            "name": "F3",
            "ticks": 119534,
            "time": 135.34174892708333,
            "velocity": 0.3937007874015748
          },
          {
            "duration": 0.10869550000001027,
            "durationTicks": 96,
            "midi": 56,
            "name": "G#3",
            "ticks": 119630,
            "time": 135.4504444270833,
            "velocity": 0.3937007874015748
          },
          {
            "duration": 0.3260865000000024,
            "durationTicks": 288,
            "midi": 53,
            "name": "F3",
            "ticks": 119630,
            "time": 135.4504444270833,
            "velocity": 0.3937007874015748
          },
          {
            "duration": 0.3260865000000024,
            "durationTicks": 288,
            "midi": 56,
            "name": "G#3",
            "ticks": 119630,
            "time": 135.4504444270833,
            "velocity": 0.3937007874015748
          },
          {
            "duration": 0.21739100000002054,
            "durationTicks": 192,
            "midi": 61,
            "name": "C#4",
            "ticks": 119630,
            "time": 135.4504444270833,
            "velocity": 0.3937007874015748
          },
          {
            "duration": 0.21739099999999212,
            "durationTicks": 192,
            "midi": 61,
            "name": "C#4",
            "ticks": 119726,
            "time": 135.55913992708332,
            "velocity": 0.3937007874015748
          },
          {
            "duration": 0.10869549999998185,
            "durationTicks": 96,
            "midi": 65,
            "name": "F4",
            "ticks": 119822,
            "time": 135.66783542708333,
            "velocity": 0.3937007874015748
          },
          {
            "duration": 0.21739099999999212,
            "durationTicks": 192,
            "midi": 80,
            "name": "G#5",
            "ticks": 119822,
            "time": 135.66783542708333,
            "velocity": 0.3937007874015748
          },
          {
            "duration": 0.21739099999999212,
            "durationTicks": 192,
            "midi": 68,
            "name": "G#4",
            "ticks": 119822,
            "time": 135.66783542708333,
            "velocity": 0.3937007874015748
          },
          {
            "duration": 0.21739099999999212,
            "durationTicks": 192,
            "midi": 65,
            "name": "F4",
            "ticks": 119822,
            "time": 135.66783542708333,
            "velocity": 0.3937007874015748
          },
          {
            "duration": 0.21739099999999212,
            "durationTicks": 192,
            "midi": 77,
            "name": "F5",
            "ticks": 119822,
            "time": 135.66783542708333,
            "velocity": 0.3937007874015748
          },
          {
            "duration": 0.10869550000001027,
            "durationTicks": 96,
            "midi": 68,
            "name": "G#4",
            "ticks": 119918,
            "time": 135.77653092708331,
            "velocity": 0.3937007874015748
          },
          {
            "duration": 0.3260865000000024,
            "durationTicks": 288,
            "midi": 56,
            "name": "G#3",
            "ticks": 119918,
            "time": 135.77653092708331,
            "velocity": 0.3937007874015748
          },
          {
            "duration": 0.3260865000000024,
            "durationTicks": 288,
            "midi": 61,
            "name": "C#4",
            "ticks": 119918,
            "time": 135.77653092708331,
            "velocity": 0.3937007874015748
          },
          {
            "duration": 0.3260865000000024,
            "durationTicks": 288,
            "midi": 53,
            "name": "F3",
            "ticks": 119918,
            "time": 135.77653092708331,
            "velocity": 0.3937007874015748
          },
          {
            "duration": 0.21739099999999212,
            "durationTicks": 192,
            "midi": 70,
            "name": "A#4",
            "ticks": 120014,
            "time": 135.88522642708332,
            "velocity": 0.3937007874015748
          },
          {
            "duration": 0.10869550000001027,
            "durationTicks": 96,
            "midi": 73,
            "name": "C#5",
            "ticks": 120014,
            "time": 135.88522642708332,
            "velocity": 0.3937007874015748
          },
          {
            "duration": 0.21739099999999212,
            "durationTicks": 192,
            "midi": 66,
            "name": "F#4",
            "ticks": 120014,
            "time": 135.88522642708332,
            "velocity": 0.3937007874015748
          },
          {
            "duration": 0.21739099999999212,
            "durationTicks": 192,
            "midi": 78,
            "name": "F#5",
            "ticks": 120014,
            "time": 135.88522642708332,
            "velocity": 0.3937007874015748
          },
          {
            "duration": 0.21739099999999212,
            "durationTicks": 192,
            "midi": 82,
            "name": "A#5",
            "ticks": 120014,
            "time": 135.88522642708332,
            "velocity": 0.3937007874015748
          },
          {
            "duration": 0.10869549999998185,
            "durationTicks": 96,
            "midi": 77,
            "name": "F5",
            "ticks": 120110,
            "time": 135.99392192708333,
            "velocity": 0.3937007874015748
          },
          {
            "duration": 1.7391280000000222,
            "durationTicks": 1536,
            "midi": 34,
            "name": "A#1",
            "ticks": 120206,
            "time": 136.10261742708332,
            "velocity": 0.3937007874015748
          },
          {
            "duration": 0.21739100000002054,
            "durationTicks": 192,
            "midi": 58,
            "name": "A#3",
            "ticks": 120206,
            "time": 136.10261742708332,
            "velocity": 0.3937007874015748
          },
          {
            "duration": 0.21739100000002054,
            "durationTicks": 192,
            "midi": 68,
            "name": "G#4",
            "ticks": 120206,
            "time": 136.10261742708332,
            "velocity": 0.3937007874015748
          },
          {
            "duration": 0.21739100000002054,
            "durationTicks": 192,
            "midi": 54,
            "name": "F#3",
            "ticks": 120206,
            "time": 136.10261742708332,
            "velocity": 0.3937007874015748
          },
          {
            "duration": 0.10869550000001027,
            "durationTicks": 96,
            "midi": 51,
            "name": "D#3",
            "ticks": 120206,
            "time": 136.10261742708332,
            "velocity": 0.3937007874015748
          },
          {
            "duration": 0.21739100000002054,
            "durationTicks": 192,
            "midi": 65,
            "name": "F4",
            "ticks": 120206,
            "time": 136.10261742708332,
            "velocity": 0.3937007874015748
          },
          {
            "duration": 0.21739100000002054,
            "durationTicks": 192,
            "midi": 80,
            "name": "G#5",
            "ticks": 120206,
            "time": 136.10261742708332,
            "velocity": 0.3937007874015748
          },
          {
            "duration": 0.21739100000002054,
            "durationTicks": 192,
            "midi": 63,
            "name": "D#4",
            "ticks": 120206,
            "time": 136.10261742708332,
            "velocity": 0.3937007874015748
          },
          {
            "duration": 1.7391280000000222,
            "durationTicks": 1536,
            "midi": 46,
            "name": "A#2",
            "ticks": 120206,
            "time": 136.10261742708332,
            "velocity": 0.3937007874015748
          },
          {
            "duration": 0.9782595000000072,
            "durationTicks": 864,
            "midi": 51,
            "name": "D#3",
            "ticks": 120206,
            "time": 136.10261742708332,
            "velocity": 0.3937007874015748
          },
          {
            "duration": 0.21739100000002054,
            "durationTicks": 192,
            "midi": 77,
            "name": "F5",
            "ticks": 120206,
            "time": 136.10261742708332,
            "velocity": 0.3937007874015748
          },
          {
            "duration": 1.7391280000000222,
            "durationTicks": 1536,
            "midi": 39,
            "name": "D#2",
            "ticks": 120206,
            "time": 136.10261742708332,
            "velocity": 0.3937007874015748
          },
          {
            "duration": 0.10869550000001027,
            "durationTicks": 96,
            "midi": 54,
            "name": "F#3",
            "ticks": 120302,
            "time": 136.21131292708333,
            "velocity": 0.3937007874015748
          },
          {
            "duration": 0.21739099999999212,
            "durationTicks": 192,
            "midi": 78,
            "name": "F#5",
            "ticks": 120398,
            "time": 136.32000842708334,
            "velocity": 0.3937007874015748
          },
          {
            "duration": 0.21739099999999212,
            "durationTicks": 192,
            "midi": 75,
            "name": "D#5",
            "ticks": 120398,
            "time": 136.32000842708334,
            "velocity": 0.3937007874015748
          },
          {
            "duration": 0.21739099999999212,
            "durationTicks": 192,
            "midi": 63,
            "name": "D#4",
            "ticks": 120398,
            "time": 136.32000842708334,
            "velocity": 0.3937007874015748
          },
          {
            "duration": 0.10869549999998185,
            "durationTicks": 96,
            "midi": 58,
            "name": "A#3",
            "ticks": 120398,
            "time": 136.32000842708334,
            "velocity": 0.3937007874015748
          },
          {
            "duration": 0.3260865000000024,
            "durationTicks": 288,
            "midi": 54,
            "name": "F#3",
            "ticks": 120398,
            "time": 136.32000842708334,
            "velocity": 0.3937007874015748
          },
          {
            "duration": 0.3260865000000024,
            "durationTicks": 288,
            "midi": 58,
            "name": "A#3",
            "ticks": 120398,
            "time": 136.32000842708334,
            "velocity": 0.3937007874015748
          },
          {
            "duration": 0.21739099999999212,
            "durationTicks": 192,
            "midi": 66,
            "name": "F#4",
            "ticks": 120398,
            "time": 136.32000842708334,
            "velocity": 0.3937007874015748
          },
          {
            "duration": 0.21739099999999212,
            "durationTicks": 192,
            "midi": 63,
            "name": "D#4",
            "ticks": 120398,
            "time": 136.32000842708334,
            "velocity": 0.3937007874015748
          },
          {
            "duration": 0.21739100000002054,
            "durationTicks": 192,
            "midi": 63,
            "name": "D#4",
            "ticks": 120494,
            "time": 136.42870392708332,
            "velocity": 0.3937007874015748
          },
          {
            "duration": 0.21739099999999212,
            "durationTicks": 192,
            "midi": 61,
            "name": "C#4",
            "ticks": 120590,
            "time": 136.53739942708333,
            "velocity": 0.3937007874015748
          },
          {
            "duration": 0.10869550000001027,
            "durationTicks": 96,
            "midi": 66,
            "name": "F#4",
            "ticks": 120590,
            "time": 136.53739942708333,
            "velocity": 0.3937007874015748
          },
          {
            "duration": 0.21739099999999212,
            "durationTicks": 192,
            "midi": 73,
            "name": "C#5",
            "ticks": 120590,
            "time": 136.53739942708333,
            "velocity": 0.3937007874015748
          },
          {
            "duration": 0.21739099999999212,
            "durationTicks": 192,
            "midi": 65,
            "name": "F4",
            "ticks": 120590,
            "time": 136.53739942708333,
            "velocity": 0.3937007874015748
          },
          {
            "duration": 0.21739099999999212,
            "durationTicks": 192,
            "midi": 77,
            "name": "F5",
            "ticks": 120590,
            "time": 136.53739942708333,
            "velocity": 0.3937007874015748
          },
          {
            "duration": 0.32608649999997397,
            "durationTicks": 288,
            "midi": 58,
            "name": "A#3",
            "ticks": 120686,
            "time": 136.64609492708334,
            "velocity": 0.3937007874015748
          },
          {
            "duration": 0.10869549999998185,
            "durationTicks": 96,
            "midi": 70,
            "name": "A#4",
            "ticks": 120686,
            "time": 136.64609492708334,
            "velocity": 0.3937007874015748
          },
          {
            "duration": 0.32608649999997397,
            "durationTicks": 288,
            "midi": 54,
            "name": "F#3",
            "ticks": 120686,
            "time": 136.64609492708334,
            "velocity": 0.3937007874015748
          },
          {
            "duration": 0.32608649999997397,
            "durationTicks": 288,
            "midi": 63,
            "name": "D#4",
            "ticks": 120686,
            "time": 136.64609492708334,
            "velocity": 0.3937007874015748
          },
          {
            "duration": 0.21739099999999212,
            "durationTicks": 192,
            "midi": 73,
            "name": "C#5",
            "ticks": 120782,
            "time": 136.75479042708332,
            "velocity": 0.3937007874015748
          },
          {
            "duration": 0.21739099999999212,
            "durationTicks": 192,
            "midi": 56,
            "name": "G#3",
            "ticks": 120782,
            "time": 136.75479042708332,
            "velocity": 0.3937007874015748
          },
          {
            "duration": 0.21739099999999212,
            "durationTicks": 192,
            "midi": 68,
            "name": "G#4",
            "ticks": 120782,
            "time": 136.75479042708332,
            "velocity": 0.3937007874015748
          },
          {
            "duration": 0.21739099999999212,
            "durationTicks": 192,
            "midi": 61,
            "name": "C#4",
            "ticks": 120782,
            "time": 136.75479042708332,
            "velocity": 0.3937007874015748
          },
          {
            "duration": 0.10869550000001027,
            "durationTicks": 96,
            "midi": 75,
            "name": "D#5",
            "ticks": 120782,
            "time": 136.75479042708332,
            "velocity": 0.3937007874015748
          },
          {
            "duration": 0.10869549999998185,
            "durationTicks": 96,
            "midi": 78,
            "name": "F#5",
            "ticks": 120878,
            "time": 136.86348592708333,
            "velocity": 0.3937007874015748
          },
          {
            "duration": 0.8695640000000253,
            "durationTicks": 768,
            "midi": 51,
            "name": "D#3",
            "ticks": 120974,
            "time": 136.9721814270833,
            "velocity": 0.3937007874015748
          },
          {
            "duration": 0.21739100000002054,
            "durationTicks": 192,
            "midi": 54,
            "name": "F#3",
            "ticks": 120974,
            "time": 136.9721814270833,
            "velocity": 0.3937007874015748
          },
          {
            "duration": 0.21739100000002054,
            "durationTicks": 192,
            "midi": 58,
            "name": "A#3",
            "ticks": 120974,
            "time": 136.9721814270833,
            "velocity": 0.3937007874015748
          },
          {
            "duration": 0.21739100000002054,
            "durationTicks": 192,
            "midi": 75,
            "name": "D#5",
            "ticks": 120974,
            "time": 136.9721814270833,
            "velocity": 0.3937007874015748
          },
          {
            "duration": 0.21739100000002054,
            "durationTicks": 192,
            "midi": 63,
            "name": "D#4",
            "ticks": 120974,
            "time": 136.9721814270833,
            "velocity": 0.3937007874015748
          },
          {
            "duration": 0.21739100000002054,
            "durationTicks": 192,
            "midi": 58,
            "name": "A#3",
            "ticks": 120974,
            "time": 136.9721814270833,
            "velocity": 0.3937007874015748
          },
          {
            "duration": 0.21739100000002054,
            "durationTicks": 192,
            "midi": 70,
            "name": "A#4",
            "ticks": 120974,
            "time": 136.9721814270833,
            "velocity": 0.3937007874015748
          },
          {
            "duration": 0.21739100000002054,
            "durationTicks": 192,
            "midi": 63,
            "name": "D#4",
            "ticks": 120974,
            "time": 136.9721814270833,
            "velocity": 0.3937007874015748
          },
          {
            "duration": 0.10869550000001027,
            "durationTicks": 96,
            "midi": 54,
            "name": "F#3",
            "ticks": 121070,
            "time": 137.08087692708332,
            "velocity": 0.3937007874015748
          },
          {
            "duration": 0.3260865000000024,
            "durationTicks": 288,
            "midi": 54,
            "name": "F#3",
            "ticks": 121166,
            "time": 137.18957242708333,
            "velocity": 0.3937007874015748
          },
          {
            "duration": 0.10869549999998185,
            "durationTicks": 96,
            "midi": 58,
            "name": "A#3",
            "ticks": 121166,
            "time": 137.18957242708333,
            "velocity": 0.3937007874015748
          },
          {
            "duration": 0.21739099999999212,
            "durationTicks": 192,
            "midi": 63,
            "name": "D#4",
            "ticks": 121166,
            "time": 137.18957242708333,
            "velocity": 0.3937007874015748
          },
          {
            "duration": 0.3260865000000024,
            "durationTicks": 288,
            "midi": 58,
            "name": "A#3",
            "ticks": 121166,
            "time": 137.18957242708333,
            "velocity": 0.3937007874015748
          },
          {
            "duration": 0.21739100000002054,
            "durationTicks": 192,
            "midi": 63,
            "name": "D#4",
            "ticks": 121262,
            "time": 137.29826792708332,
            "velocity": 0.3937007874015748
          },
          {
            "duration": 0.21739099999999212,
            "durationTicks": 192,
            "midi": 56,
            "name": "G#3",
            "ticks": 121358,
            "time": 137.40696342708333,
            "velocity": 0.3937007874015748
          },
          {
            "duration": 0.21739099999999212,
            "durationTicks": 192,
            "midi": 68,
            "name": "G#4",
            "ticks": 121358,
            "time": 137.40696342708333,
            "velocity": 0.3937007874015748
          },
          {
            "duration": 0.21739099999999212,
            "durationTicks": 192,
            "midi": 61,
            "name": "C#4",
            "ticks": 121358,
            "time": 137.40696342708333,
            "velocity": 0.3937007874015748
          },
          {
            "duration": 0.10869550000001027,
            "durationTicks": 96,
            "midi": 66,
            "name": "F#4",
            "ticks": 121358,
            "time": 137.40696342708333,
            "velocity": 0.3937007874015748
          },
          {
            "duration": 0.21739099999999212,
            "durationTicks": 192,
            "midi": 73,
            "name": "C#5",
            "ticks": 121358,
            "time": 137.40696342708333,
            "velocity": 0.3937007874015748
          },
          {
            "duration": 0.10869549999998185,
            "durationTicks": 96,
            "midi": 70,
            "name": "A#4",
            "ticks": 121454,
            "time": 137.51565892708334,
            "velocity": 0.3937007874015748
          },
          {
            "duration": 0.3260865000000024,
            "durationTicks": 288,
            "midi": 58,
            "name": "A#3",
            "ticks": 121454,
            "time": 137.51565892708334,
            "velocity": 0.3937007874015748
          },
          {
            "duration": 0.3260865000000024,
            "durationTicks": 288,
            "midi": 54,
            "name": "F#3",
            "ticks": 121454,
            "time": 137.51565892708334,
            "velocity": 0.3937007874015748
          },
          {
            "duration": 0.3260865000000024,
            "durationTicks": 288,
            "midi": 63,
            "name": "D#4",
            "ticks": 121454,
            "time": 137.51565892708334,
            "velocity": 0.3937007874015748
          },
          {
            "duration": 0.10869550000001027,
            "durationTicks": 96,
            "midi": 75,
            "name": "D#5",
            "ticks": 121550,
            "time": 137.62435442708332,
            "velocity": 0.3937007874015748
          },
          {
            "duration": 0.21739100000002054,
            "durationTicks": 192,
            "midi": 58,
            "name": "A#3",
            "ticks": 121550,
            "time": 137.62435442708332,
            "velocity": 0.3937007874015748
          },
          {
            "duration": 0.21739100000002054,
            "durationTicks": 192,
            "midi": 63,
            "name": "D#4",
            "ticks": 121550,
            "time": 137.62435442708332,
            "velocity": 0.3937007874015748
          },
          {
            "duration": 0.21739100000002054,
            "durationTicks": 192,
            "midi": 75,
            "name": "D#5",
            "ticks": 121550,
            "time": 137.62435442708332,
            "velocity": 0.3937007874015748
          },
          {
            "duration": 0.21739100000002054,
            "durationTicks": 192,
            "midi": 70,
            "name": "A#4",
            "ticks": 121550,
            "time": 137.62435442708332,
            "velocity": 0.3937007874015748
          },
          {
            "duration": 0.10869550000001027,
            "durationTicks": 96,
            "midi": 78,
            "name": "F#5",
            "ticks": 121646,
            "time": 137.73304992708333,
            "velocity": 0.3937007874015748
          },
          {
            "duration": 0.21739099999999212,
            "durationTicks": 192,
            "midi": 58,
            "name": "A#3",
            "ticks": 121742,
            "time": 137.84174542708334,
            "velocity": 0.3937007874015748
          },
          {
            "duration": 0.21739099999999212,
            "durationTicks": 192,
            "midi": 63,
            "name": "D#4",
            "ticks": 121742,
            "time": 137.84174542708334,
            "velocity": 0.3937007874015748
          },
          {
            "duration": 1.7391279999999938,
            "durationTicks": 1536,
            "midi": 46,
            "name": "A#2",
            "ticks": 121742,
            "time": 137.84174542708334,
            "velocity": 0.3937007874015748
          },
          {
            "duration": 0.10869549999998185,
            "durationTicks": 96,
            "midi": 51,
            "name": "D#3",
            "ticks": 121742,
            "time": 137.84174542708334,
            "velocity": 0.3937007874015748
          },
          {
            "duration": 0.21739099999999212,
            "durationTicks": 192,
            "midi": 73,
            "name": "C#5",
            "ticks": 121742,
            "time": 137.84174542708334,
            "velocity": 0.3937007874015748
          },
          {
            "duration": 0.21739099999999212,
            "durationTicks": 192,
            "midi": 65,
            "name": "F4",
            "ticks": 121742,
            "time": 137.84174542708334,
            "velocity": 0.3937007874015748
          },
          {
            "duration": 1.7391279999999938,
            "durationTicks": 1536,
            "midi": 34,
            "name": "A#1",
            "ticks": 121742,
            "time": 137.84174542708334,
            "velocity": 0.3937007874015748
          },
          {
            "duration": 0.21739099999999212,
            "durationTicks": 192,
            "midi": 54,
            "name": "F#3",
            "ticks": 121742,
            "time": 137.84174542708334,
            "velocity": 0.3937007874015748
          },
          {
            "duration": 0.21739099999999212,
            "durationTicks": 192,
            "midi": 61,
            "name": "C#4",
            "ticks": 121742,
            "time": 137.84174542708334,
            "velocity": 0.3937007874015748
          },
          {
            "duration": 1.7391279999999938,
            "durationTicks": 1536,
            "midi": 39,
            "name": "D#2",
            "ticks": 121742,
            "time": 137.84174542708334,
            "velocity": 0.3937007874015748
          },
          {
            "duration": 0.21739099999999212,
            "durationTicks": 192,
            "midi": 77,
            "name": "F5",
            "ticks": 121742,
            "time": 137.84174542708334,
            "velocity": 0.3937007874015748
          },
          {
            "duration": 0.9782594999999787,
            "durationTicks": 864,
            "midi": 51,
            "name": "D#3",
            "ticks": 121742,
            "time": 137.84174542708334,
            "velocity": 0.3937007874015748
          },
          {
            "duration": 0.10869550000001027,
            "durationTicks": 96,
            "midi": 54,
            "name": "F#3",
            "ticks": 121838,
            "time": 137.95044092708332,
            "velocity": 0.3937007874015748
          },
          {
            "duration": 0.21739099999999212,
            "durationTicks": 192,
            "midi": 63,
            "name": "D#4",
            "ticks": 121934,
            "time": 138.05913642708333,
            "velocity": 0.3937007874015748
          },
          {
            "duration": 0.21739099999999212,
            "durationTicks": 192,
            "midi": 75,
            "name": "D#5",
            "ticks": 121934,
            "time": 138.05913642708333,
            "velocity": 0.3937007874015748
          },
          {
            "duration": 0.10869549999998185,
            "durationTicks": 96,
            "midi": 58,
            "name": "A#3",
            "ticks": 121934,
            "time": 138.05913642708333,
            "velocity": 0.3937007874015748
          },
          {
            "duration": 0.3260865000000024,
            "durationTicks": 288,
            "midi": 54,
            "name": "F#3",
            "ticks": 121934,
            "time": 138.05913642708333,
            "velocity": 0.3937007874015748
          },
          {
            "duration": 0.3260865000000024,
            "durationTicks": 288,
            "midi": 58,
            "name": "A#3",
            "ticks": 121934,
            "time": 138.05913642708333,
            "velocity": 0.3937007874015748
          },
          {
            "duration": 0.21739099999999212,
            "durationTicks": 192,
            "midi": 66,
            "name": "F#4",
            "ticks": 121934,
            "time": 138.05913642708333,
            "velocity": 0.3937007874015748
          },
          {
            "duration": 0.21739099999999212,
            "durationTicks": 192,
            "midi": 63,
            "name": "D#4",
            "ticks": 121934,
            "time": 138.05913642708333,
            "velocity": 0.3937007874015748
          },
          {
            "duration": 0.21739099999999212,
            "durationTicks": 192,
            "midi": 78,
            "name": "F#5",
            "ticks": 121934,
            "time": 138.05913642708333,
            "velocity": 0.3937007874015748
          },
          {
            "duration": 0.21739100000002054,
            "durationTicks": 192,
            "midi": 63,
            "name": "D#4",
            "ticks": 122030,
            "time": 138.1678319270833,
            "velocity": 0.3937007874015748
          },
          {
            "duration": 0.21739099999999212,
            "durationTicks": 192,
            "midi": 68,
            "name": "G#4",
            "ticks": 122126,
            "time": 138.27652742708332,
            "velocity": 0.3937007874015748
          },
          {
            "duration": 0.10869550000001027,
            "durationTicks": 96,
            "midi": 66,
            "name": "F#4",
            "ticks": 122126,
            "time": 138.27652742708332,
            "velocity": 0.3937007874015748
          },
          {
            "duration": 0.21739099999999212,
            "durationTicks": 192,
            "midi": 80,
            "name": "G#5",
            "ticks": 122126,
            "time": 138.27652742708332,
            "velocity": 0.3937007874015748
          },
          {
            "duration": 0.21739099999999212,
            "durationTicks": 192,
            "midi": 65,
            "name": "F4",
            "ticks": 122126,
            "time": 138.27652742708332,
            "velocity": 0.3937007874015748
          },
          {
            "duration": 0.21739099999999212,
            "durationTicks": 192,
            "midi": 77,
            "name": "F5",
            "ticks": 122126,
            "time": 138.27652742708332,
            "velocity": 0.3937007874015748
          },
          {
            "duration": 0.10869549999998185,
            "durationTicks": 96,
            "midi": 70,
            "name": "A#4",
            "ticks": 122222,
            "time": 138.38522292708333,
            "velocity": 0.3937007874015748
          },
          {
            "duration": 0.3260865000000024,
            "durationTicks": 288,
            "midi": 58,
            "name": "A#3",
            "ticks": 122222,
            "time": 138.38522292708333,
            "velocity": 0.3937007874015748
          },
          {
            "duration": 0.3260865000000024,
            "durationTicks": 288,
            "midi": 54,
            "name": "F#3",
            "ticks": 122222,
            "time": 138.38522292708333,
            "velocity": 0.3937007874015748
          },
          {
            "duration": 0.3260865000000024,
            "durationTicks": 288,
            "midi": 63,
            "name": "D#4",
            "ticks": 122222,
            "time": 138.38522292708333,
            "velocity": 0.3937007874015748
          },
          {
            "duration": 0.21739100000002054,
            "durationTicks": 192,
            "midi": 78,
            "name": "F#5",
            "ticks": 122318,
            "time": 138.49391842708332,
            "velocity": 0.3937007874015748
          },
          {
            "duration": 0.21739100000002054,
            "durationTicks": 192,
            "midi": 70,
            "name": "A#4",
            "ticks": 122318,
            "time": 138.49391842708332,
            "velocity": 0.3937007874015748
          },
          {
            "duration": 0.10869550000001027,
            "durationTicks": 96,
            "midi": 75,
            "name": "D#5",
            "ticks": 122318,
            "time": 138.49391842708332,
            "velocity": 0.3937007874015748
          },
          {
            "duration": 0.21739100000002054,
            "durationTicks": 192,
            "midi": 82,
            "name": "A#5",
            "ticks": 122318,
            "time": 138.49391842708332,
            "velocity": 0.3937007874015748
          },
          {
            "duration": 0.21739100000002054,
            "durationTicks": 192,
            "midi": 66,
            "name": "F#4",
            "ticks": 122318,
            "time": 138.49391842708332,
            "velocity": 0.3937007874015748
          },
          {
            "duration": 0.10869550000001027,
            "durationTicks": 96,
            "midi": 78,
            "name": "F#5",
            "ticks": 122414,
            "time": 138.60261392708333,
            "velocity": 0.3937007874015748
          },
          {
            "duration": 0.21739099999999212,
            "durationTicks": 192,
            "midi": 75,
            "name": "D#5",
            "ticks": 122510,
            "time": 138.71130942708334,
            "velocity": 0.3937007874015748
          },
          {
            "duration": 0.21739099999999212,
            "durationTicks": 192,
            "midi": 58,
            "name": "A#3",
            "ticks": 122510,
            "time": 138.71130942708334,
            "velocity": 0.3937007874015748
          },
          {
            "duration": 0.21739099999999212,
            "durationTicks": 192,
            "midi": 54,
            "name": "F#3",
            "ticks": 122510,
            "time": 138.71130942708334,
            "velocity": 0.3937007874015748
          },
          {
            "duration": 0.21739099999999212,
            "durationTicks": 192,
            "midi": 58,
            "name": "A#3",
            "ticks": 122510,
            "time": 138.71130942708334,
            "velocity": 0.3937007874015748
          },
          {
            "duration": 0.21739099999999212,
            "durationTicks": 192,
            "midi": 63,
            "name": "D#4",
            "ticks": 122510,
            "time": 138.71130942708334,
            "velocity": 0.3937007874015748
          },
          {
            "duration": 0.8695639999999969,
            "durationTicks": 768,
            "midi": 51,
            "name": "D#3",
            "ticks": 122510,
            "time": 138.71130942708334,
            "velocity": 0.3937007874015748
          },
          {
            "duration": 0.21739099999999212,
            "durationTicks": 192,
            "midi": 63,
            "name": "D#4",
            "ticks": 122510,
            "time": 138.71130942708334,
            "velocity": 0.3937007874015748
          },
          {
            "duration": 0.21739099999999212,
            "durationTicks": 192,
            "midi": 70,
            "name": "A#4",
            "ticks": 122510,
            "time": 138.71130942708334,
            "velocity": 0.3937007874015748
          },
          {
            "duration": 0.10869550000001027,
            "durationTicks": 96,
            "midi": 54,
            "name": "F#3",
            "ticks": 122606,
            "time": 138.82000492708332,
            "velocity": 0.3937007874015748
          },
          {
            "duration": 0.10869550000001027,
            "durationTicks": 96,
            "midi": 58,
            "name": "A#3",
            "ticks": 122702,
            "time": 138.92870042708333,
            "velocity": 0.3937007874015748
          },
          {
            "duration": 0.21739099999999212,
            "durationTicks": 192,
            "midi": 63,
            "name": "D#4",
            "ticks": 122702,
            "time": 138.92870042708333,
            "velocity": 0.3937007874015748
          },
          {
            "duration": 0.3260865000000024,
            "durationTicks": 288,
            "midi": 58,
            "name": "A#3",
            "ticks": 122702,
            "time": 138.92870042708333,
            "velocity": 0.3937007874015748
          },
          {
            "duration": 0.3260865000000024,
            "durationTicks": 288,
            "midi": 54,
            "name": "F#3",
            "ticks": 122702,
            "time": 138.92870042708333,
            "velocity": 0.3937007874015748
          },
          {
            "duration": 0.21739099999999212,
            "durationTicks": 192,
            "midi": 63,
            "name": "D#4",
            "ticks": 122798,
            "time": 139.03739592708334,
            "velocity": 0.3937007874015748
          },
          {
            "duration": 0.10869550000001027,
            "durationTicks": 96,
            "midi": 66,
            "name": "F#4",
            "ticks": 122894,
            "time": 139.14609142708332,
            "velocity": 0.3937007874015748
          },
          {
            "duration": 0.21739099999999212,
            "durationTicks": 192,
            "midi": 78,
            "name": "F#5",
            "ticks": 122894,
            "time": 139.14609142708332,
            "velocity": 0.3937007874015748
          },
          {
            "duration": 0.21739099999999212,
            "durationTicks": 192,
            "midi": 66,
            "name": "F#4",
            "ticks": 122894,
            "time": 139.14609142708332,
            "velocity": 0.3937007874015748
          },
          {
            "duration": 0.21739099999999212,
            "durationTicks": 192,
            "midi": 70,
            "name": "A#4",
            "ticks": 122894,
            "time": 139.14609142708332,
            "velocity": 0.3937007874015748
          },
          {
            "duration": 0.21739099999999212,
            "durationTicks": 192,
            "midi": 82,
            "name": "A#5",
            "ticks": 122894,
            "time": 139.14609142708332,
            "velocity": 0.3937007874015748
          },
          {
            "duration": 0.10869549999998185,
            "durationTicks": 96,
            "midi": 70,
            "name": "A#4",
            "ticks": 122990,
            "time": 139.25478692708333,
            "velocity": 0.3937007874015748
          },
          {
            "duration": 0.3260865000000024,
            "durationTicks": 288,
            "midi": 58,
            "name": "A#3",
            "ticks": 122990,
            "time": 139.25478692708333,
            "velocity": 0.3937007874015748
          },
          {
            "duration": 0.3260865000000024,
            "durationTicks": 288,
            "midi": 63,
            "name": "D#4",
            "ticks": 122990,
            "time": 139.25478692708333,
            "velocity": 0.3937007874015748
          },
          {
            "duration": 0.3260865000000024,
            "durationTicks": 288,
            "midi": 54,
            "name": "F#3",
            "ticks": 122990,
            "time": 139.25478692708333,
            "velocity": 0.3937007874015748
          },
          {
            "duration": 0.21739100000002054,
            "durationTicks": 192,
            "midi": 68,
            "name": "G#4",
            "ticks": 123086,
            "time": 139.3634824270833,
            "velocity": 0.3937007874015748
          },
          {
            "duration": 0.21739100000002054,
            "durationTicks": 192,
            "midi": 80,
            "name": "G#5",
            "ticks": 123086,
            "time": 139.3634824270833,
            "velocity": 0.3937007874015748
          },
          {
            "duration": 0.21739100000002054,
            "durationTicks": 192,
            "midi": 85,
            "name": "C#6",
            "ticks": 123086,
            "time": 139.3634824270833,
            "velocity": 0.3937007874015748
          },
          {
            "duration": 0.10869550000001027,
            "durationTicks": 96,
            "midi": 75,
            "name": "D#5",
            "ticks": 123086,
            "time": 139.3634824270833,
            "velocity": 0.3937007874015748
          },
          {
            "duration": 0.21739100000002054,
            "durationTicks": 192,
            "midi": 73,
            "name": "C#5",
            "ticks": 123086,
            "time": 139.3634824270833,
            "velocity": 0.3937007874015748
          },
          {
            "duration": 0.10869550000001027,
            "durationTicks": 96,
            "midi": 78,
            "name": "F#5",
            "ticks": 123182,
            "time": 139.47217792708332,
            "velocity": 0.3937007874015748
          },
          {
            "duration": 0.21739099999999212,
            "durationTicks": 192,
            "midi": 73,
            "name": "C#5",
            "ticks": 123278,
            "time": 139.58087342708333,
            "velocity": 0.3937007874015748
          },
          {
            "duration": 1.7391279999999938,
            "durationTicks": 1536,
            "midi": 35,
            "name": "B1",
            "ticks": 123278,
            "time": 139.58087342708333,
            "velocity": 0.3937007874015748
          },
          {
            "duration": 0.21739099999999212,
            "durationTicks": 192,
            "midi": 51,
            "name": "D#3",
            "ticks": 123278,
            "time": 139.58087342708333,
            "velocity": 0.3937007874015748
          },
          {
            "duration": 0.21739099999999212,
            "durationTicks": 192,
            "midi": 85,
            "name": "C#6",
            "ticks": 123278,
            "time": 139.58087342708333,
            "velocity": 0.3937007874015748
          },
          {
            "duration": 0.10869549999998185,
            "durationTicks": 96,
            "midi": 47,
            "name": "B2",
            "ticks": 123278,
            "time": 139.58087342708333,
            "velocity": 0.3937007874015748
          },
          {
            "duration": 1.7391279999999938,
            "durationTicks": 1536,
            "midi": 42,
            "name": "F#2",
            "ticks": 123278,
            "time": 139.58087342708333,
            "velocity": 0.3937007874015748
          },
          {
            "duration": 1.7391279999999938,
            "durationTicks": 1536,
            "midi": 30,
            "name": "F#1",
            "ticks": 123278,
            "time": 139.58087342708333,
            "velocity": 0.3937007874015748
          },
          {
            "duration": 0.21739099999999212,
            "durationTicks": 192,
            "midi": 68,
            "name": "G#4",
            "ticks": 123278,
            "time": 139.58087342708333,
            "velocity": 0.3937007874015748
          },
          {
            "duration": 0.9782595000000072,
            "durationTicks": 864,
            "midi": 47,
            "name": "B2",
            "ticks": 123278,
            "time": 139.58087342708333,
            "velocity": 0.3937007874015748
          },
          {
            "duration": 0.21739099999999212,
            "durationTicks": 192,
            "midi": 59,
            "name": "B3",
            "ticks": 123278,
            "time": 139.58087342708333,
            "velocity": 0.3937007874015748
          },
          {
            "duration": 0.21739099999999212,
            "durationTicks": 192,
            "midi": 80,
            "name": "G#5",
            "ticks": 123278,
            "time": 139.58087342708333,
            "velocity": 0.3937007874015748
          },
          {
            "duration": 0.21739099999999212,
            "durationTicks": 192,
            "midi": 54,
            "name": "F#3",
            "ticks": 123278,
            "time": 139.58087342708333,
            "velocity": 0.3937007874015748
          },
          {
            "duration": 0.10869550000001027,
            "durationTicks": 96,
            "midi": 51,
            "name": "D#3",
            "ticks": 123374,
            "time": 139.68956892708331,
            "velocity": 0.3937007874015748
          },
          {
            "duration": 0.3260865000000024,
            "durationTicks": 288,
            "midi": 51,
            "name": "D#3",
            "ticks": 123470,
            "time": 139.79826442708332,
            "velocity": 0.3937007874015748
          },
          {
            "duration": 0.21739099999999212,
            "durationTicks": 192,
            "midi": 59,
            "name": "B3",
            "ticks": 123470,
            "time": 139.79826442708332,
            "velocity": 0.3937007874015748
          },
          {
            "duration": 0.10869550000001027,
            "durationTicks": 96,
            "midi": 54,
            "name": "F#3",
            "ticks": 123470,
            "time": 139.79826442708332,
            "velocity": 0.3937007874015748
          },
          {
            "duration": 0.21739099999999212,
            "durationTicks": 192,
            "midi": 87,
            "name": "D#6",
            "ticks": 123470,
            "time": 139.79826442708332,
            "velocity": 0.3937007874015748
          },
          {
            "duration": 0.3260865000000024,
            "durationTicks": 288,
            "midi": 54,
            "name": "F#3",
            "ticks": 123470,
            "time": 139.79826442708332,
            "velocity": 0.3937007874015748
          },
          {
            "duration": 0.21739099999999212,
            "durationTicks": 192,
            "midi": 75,
            "name": "D#5",
            "ticks": 123470,
            "time": 139.79826442708332,
            "velocity": 0.3937007874015748
          },
          {
            "duration": 0.21739099999999212,
            "durationTicks": 192,
            "midi": 70,
            "name": "A#4",
            "ticks": 123470,
            "time": 139.79826442708332,
            "velocity": 0.3937007874015748
          },
          {
            "duration": 0.21739099999999212,
            "durationTicks": 192,
            "midi": 82,
            "name": "A#5",
            "ticks": 123470,
            "time": 139.79826442708332,
            "velocity": 0.3937007874015748
          },
          {
            "duration": 0.21739099999999212,
            "durationTicks": 192,
            "midi": 59,
            "name": "B3",
            "ticks": 123566,
            "time": 139.90695992708334,
            "velocity": 0.3937007874015748
          },
          {
            "duration": 0.21739100000002054,
            "durationTicks": 192,
            "midi": 66,
            "name": "F#4",
            "ticks": 123662,
            "time": 140.01565542708332,
            "velocity": 0.3937007874015748
          },
          {
            "duration": 0.21739100000002054,
            "durationTicks": 192,
            "midi": 82,
            "name": "A#5",
            "ticks": 123662,
            "time": 140.01565542708332,
            "velocity": 0.3937007874015748
          },
          {
            "duration": 0.21739100000002054,
            "durationTicks": 192,
            "midi": 78,
            "name": "F#5",
            "ticks": 123662,
            "time": 140.01565542708332,
            "velocity": 0.3937007874015748
          },
          {
            "duration": 0.21739100000002054,
            "durationTicks": 192,
            "midi": 70,
            "name": "A#4",
            "ticks": 123662,
            "time": 140.01565542708332,
            "velocity": 0.3937007874015748
          },
          {
            "duration": 0.10869550000001027,
            "durationTicks": 96,
            "midi": 63,
            "name": "D#4",
            "ticks": 123662,
            "time": 140.01565542708332,
            "velocity": 0.3937007874015748
          },
          {
            "duration": 0.10869550000001027,
            "durationTicks": 96,
            "midi": 66,
            "name": "F#4",
            "ticks": 123758,
            "time": 140.12435092708333,
            "velocity": 0.3937007874015748
          },
          {
            "duration": 0.3260865000000024,
            "durationTicks": 288,
            "midi": 54,
            "name": "F#3",
            "ticks": 123758,
            "time": 140.12435092708333,
            "velocity": 0.3937007874015748
          },
          {
            "duration": 0.3260865000000024,
            "durationTicks": 288,
            "midi": 51,
            "name": "D#3",
            "ticks": 123758,
            "time": 140.12435092708333,
            "velocity": 0.3937007874015748
          },
          {
            "duration": 0.3260865000000024,
            "durationTicks": 288,
            "midi": 59,
            "name": "B3",
            "ticks": 123758,
            "time": 140.12435092708333,
            "velocity": 0.3937007874015748
          },
          {
            "duration": 0.21739099999999212,
            "durationTicks": 192,
            "midi": 68,
            "name": "G#4",
            "ticks": 123854,
            "time": 140.23304642708334,
            "velocity": 0.3937007874015748
          },
          {
            "duration": 0.21739099999999212,
            "durationTicks": 192,
            "midi": 77,
            "name": "F5",
            "ticks": 123854,
            "time": 140.23304642708334,
            "velocity": 0.3937007874015748
          },
          {
            "duration": 0.21739099999999212,
            "durationTicks": 192,
            "midi": 80,
            "name": "G#5",
            "ticks": 123854,
            "time": 140.23304642708334,
            "velocity": 0.3937007874015748
          },
          {
            "duration": 0.10869549999998185,
            "durationTicks": 96,
            "midi": 71,
            "name": "B4",
            "ticks": 123854,
            "time": 140.23304642708334,
            "velocity": 0.3937007874015748
          },
          {
            "duration": 0.21739099999999212,
            "durationTicks": 192,
            "midi": 65,
            "name": "F4",
            "ticks": 123854,
            "time": 140.23304642708334,
            "velocity": 0.3937007874015748
          },
          {
            "duration": 0.10869550000001027,
            "durationTicks": 96,
            "midi": 75,
            "name": "D#5",
            "ticks": 123950,
            "time": 140.34174192708332,
            "velocity": 0.3937007874015748
          },
          {
            "duration": 0.8695639999999969,
            "durationTicks": 768,
            "midi": 47,
            "name": "B2",
            "ticks": 124046,
            "time": 140.45043742708333,
            "velocity": 0.3937007874015748
          },
          {
            "duration": 0.21739099999999212,
            "durationTicks": 192,
            "midi": 59,
            "name": "B3",
            "ticks": 124046,
            "time": 140.45043742708333,
            "velocity": 0.3937007874015748
          },
          {
            "duration": 0.21739099999999212,
            "durationTicks": 192,
            "midi": 51,
            "name": "D#3",
            "ticks": 124046,
            "time": 140.45043742708333,
            "velocity": 0.3937007874015748
          },
          {
            "duration": 0.21739099999999212,
            "durationTicks": 192,
            "midi": 78,
            "name": "F#5",
            "ticks": 124046,
            "time": 140.45043742708333,
            "velocity": 0.3937007874015748
          },
          {
            "duration": 0.21739099999999212,
            "durationTicks": 192,
            "midi": 54,
            "name": "F#3",
            "ticks": 124046,
            "time": 140.45043742708333,
            "velocity": 0.3937007874015748
          },
          {
            "duration": 0.21739099999999212,
            "durationTicks": 192,
            "midi": 70,
            "name": "A#4",
            "ticks": 124046,
            "time": 140.45043742708333,
            "velocity": 0.3937007874015748
          },
          {
            "duration": 0.21739099999999212,
            "durationTicks": 192,
            "midi": 66,
            "name": "F#4",
            "ticks": 124046,
            "time": 140.45043742708333,
            "velocity": 0.3937007874015748
          },
          {
            "duration": 0.21739099999999212,
            "durationTicks": 192,
            "midi": 82,
            "name": "A#5",
            "ticks": 124046,
            "time": 140.45043742708333,
            "velocity": 0.3937007874015748
          },
          {
            "duration": 0.10869549999998185,
            "durationTicks": 96,
            "midi": 51,
            "name": "D#3",
            "ticks": 124142,
            "time": 140.55913292708334,
            "velocity": 0.3937007874015748
          },
          {
            "duration": 0.21739099999999212,
            "durationTicks": 192,
            "midi": 59,
            "name": "B3",
            "ticks": 124238,
            "time": 140.66782842708332,
            "velocity": 0.3937007874015748
          },
          {
            "duration": 0.10869550000001027,
            "durationTicks": 96,
            "midi": 54,
            "name": "F#3",
            "ticks": 124238,
            "time": 140.66782842708332,
            "velocity": 0.3937007874015748
          },
          {
            "duration": 0.3260865000000024,
            "durationTicks": 288,
            "midi": 54,
            "name": "F#3",
            "ticks": 124238,
            "time": 140.66782842708332,
            "velocity": 0.3937007874015748
          },
          {
            "duration": 0.3260865000000024,
            "durationTicks": 288,
            "midi": 51,
            "name": "D#3",
            "ticks": 124238,
            "time": 140.66782842708332,
            "velocity": 0.3937007874015748
          },
          {
            "duration": 0.21739099999999212,
            "durationTicks": 192,
            "midi": 59,
            "name": "B3",
            "ticks": 124334,
            "time": 140.77652392708333,
            "velocity": 0.3937007874015748
          },
          {
            "duration": 0.10869550000001027,
            "durationTicks": 96,
            "midi": 63,
            "name": "D#4",
            "ticks": 124430,
            "time": 140.8852194270833,
            "velocity": 0.3937007874015748
          },
          {
            "duration": 0.21739100000002054,
            "durationTicks": 192,
            "midi": 68,
            "name": "G#4",
            "ticks": 124430,
            "time": 140.8852194270833,
            "velocity": 0.3937007874015748
          },
          {
            "duration": 0.21739100000002054,
            "durationTicks": 192,
            "midi": 65,
            "name": "F4",
            "ticks": 124430,
            "time": 140.8852194270833,
            "velocity": 0.3937007874015748
          },
          {
            "duration": 0.21739100000002054,
            "durationTicks": 192,
            "midi": 77,
            "name": "F5",
            "ticks": 124430,
            "time": 140.8852194270833,
            "velocity": 0.3937007874015748
          },
          {
            "duration": 0.21739100000002054,
            "durationTicks": 192,
            "midi": 80,
            "name": "G#5",
            "ticks": 124430,
            "time": 140.8852194270833,
            "velocity": 0.3937007874015748
          },
          {
            "duration": 0.3260865000000024,
            "durationTicks": 288,
            "midi": 51,
            "name": "D#3",
            "ticks": 124526,
            "time": 140.99391492708332,
            "velocity": 0.3937007874015748
          },
          {
            "duration": 0.3260865000000024,
            "durationTicks": 288,
            "midi": 54,
            "name": "F#3",
            "ticks": 124526,
            "time": 140.99391492708332,
            "velocity": 0.3937007874015748
          },
          {
            "duration": 0.10869550000001027,
            "durationTicks": 96,
            "midi": 66,
            "name": "F#4",
            "ticks": 124526,
            "time": 140.99391492708332,
            "velocity": 0.3937007874015748
          },
          {
            "duration": 0.3260865000000024,
            "durationTicks": 288,
            "midi": 59,
            "name": "B3",
            "ticks": 124526,
            "time": 140.99391492708332,
            "velocity": 0.3937007874015748
          },
          {
            "duration": 0.21739099999999212,
            "durationTicks": 192,
            "midi": 78,
            "name": "F#5",
            "ticks": 124622,
            "time": 141.10261042708333,
            "velocity": 0.3937007874015748
          },
          {
            "duration": 0.10869549999998185,
            "durationTicks": 96,
            "midi": 71,
            "name": "B4",
            "ticks": 124622,
            "time": 141.10261042708333,
            "velocity": 0.3937007874015748
          },
          {
            "duration": 0.21739099999999212,
            "durationTicks": 192,
            "midi": 82,
            "name": "A#5",
            "ticks": 124622,
            "time": 141.10261042708333,
            "velocity": 0.3937007874015748
          },
          {
            "duration": 0.21739099999999212,
            "durationTicks": 192,
            "midi": 66,
            "name": "F#4",
            "ticks": 124622,
            "time": 141.10261042708333,
            "velocity": 0.3937007874015748
          },
          {
            "duration": 0.21739099999999212,
            "durationTicks": 192,
            "midi": 70,
            "name": "A#4",
            "ticks": 124622,
            "time": 141.10261042708333,
            "velocity": 0.3937007874015748
          },
          {
            "duration": 0.10869550000001027,
            "durationTicks": 96,
            "midi": 75,
            "name": "D#5",
            "ticks": 124718,
            "time": 141.21130592708332,
            "velocity": 0.3937007874015748
          },
          {
            "duration": 0.10869550000001027,
            "durationTicks": 96,
            "midi": 49,
            "name": "C#3",
            "ticks": 124814,
            "time": 141.32000142708333,
            "velocity": 0.3937007874015748
          },
          {
            "duration": 0.21739099999999212,
            "durationTicks": 192,
            "midi": 73,
            "name": "C#5",
            "ticks": 124814,
            "time": 141.32000142708333,
            "velocity": 0.3937007874015748
          },
          {
            "duration": 0.21739099999999212,
            "durationTicks": 192,
            "midi": 53,
            "name": "F3",
            "ticks": 124814,
            "time": 141.32000142708333,
            "velocity": 0.3937007874015748
          },
          {
            "duration": 1.7391279999999938,
            "durationTicks": 1536,
            "midi": 44,
            "name": "G#2",
            "ticks": 124814,
            "time": 141.32000142708333,
            "velocity": 0.3937007874015748
          },
          {
            "duration": 1.7391279999999938,
            "durationTicks": 1536,
            "midi": 37,
            "name": "C#2",
            "ticks": 124814,
            "time": 141.32000142708333,
            "velocity": 0.3937007874015748
          },
          {
            "duration": 0.21739099999999212,
            "durationTicks": 192,
            "midi": 56,
            "name": "G#3",
            "ticks": 124814,
            "time": 141.32000142708333,
            "velocity": 0.3937007874015748
          },
          {
            "duration": 0.21739099999999212,
            "durationTicks": 192,
            "midi": 68,
            "name": "G#4",
            "ticks": 124814,
            "time": 141.32000142708333,
            "velocity": 0.3937007874015748
          },
          {
            "duration": 1.7391279999999938,
            "durationTicks": 1536,
            "midi": 32,
            "name": "G#1",
            "ticks": 124814,
            "time": 141.32000142708333,
            "velocity": 0.3937007874015748
          },
          {
            "duration": 0.21739099999999212,
            "durationTicks": 192,
            "midi": 61,
            "name": "C#4",
            "ticks": 124814,
            "time": 141.32000142708333,
            "velocity": 0.3937007874015748
          },
          {
            "duration": 0.21739099999999212,
            "durationTicks": 192,
            "midi": 85,
            "name": "C#6",
            "ticks": 124814,
            "time": 141.32000142708333,
            "velocity": 0.3937007874015748
          },
          {
            "duration": 0.9782595000000072,
            "durationTicks": 864,
            "midi": 49,
            "name": "C#3",
            "ticks": 124814,
            "time": 141.32000142708333,
            "velocity": 0.3937007874015748
          },
          {
            "duration": 0.21739099999999212,
            "durationTicks": 192,
            "midi": 80,
            "name": "G#5",
            "ticks": 124814,
            "time": 141.32000142708333,
            "velocity": 0.3937007874015748
          },
          {
            "duration": 0.10869549999998185,
            "durationTicks": 96,
            "midi": 53,
            "name": "F3",
            "ticks": 124910,
            "time": 141.42869692708334,
            "velocity": 0.3937007874015748
          },
          {
            "duration": 0.21739100000002054,
            "durationTicks": 192,
            "midi": 70,
            "name": "A#4",
            "ticks": 125006,
            "time": 141.53739242708332,
            "velocity": 0.3937007874015748
          },
          {
            "duration": 0.3260865000000024,
            "durationTicks": 288,
            "midi": 53,
            "name": "F3",
            "ticks": 125006,
            "time": 141.53739242708332,
            "velocity": 0.3937007874015748
          },
          {
            "duration": 0.10869550000001027,
            "durationTicks": 96,
            "midi": 56,
            "name": "G#3",
            "ticks": 125006,
            "time": 141.53739242708332,
            "velocity": 0.3937007874015748
          },
          {
            "duration": 0.21739100000002054,
            "durationTicks": 192,
            "midi": 75,
            "name": "D#5",
            "ticks": 125006,
            "time": 141.53739242708332,
            "velocity": 0.3937007874015748
          },
          {
            "duration": 0.21739100000002054,
            "durationTicks": 192,
            "midi": 61,
            "name": "C#4",
            "ticks": 125006,
            "time": 141.53739242708332,
            "velocity": 0.3937007874015748
          },
          {
            "duration": 0.21739100000002054,
            "durationTicks": 192,
            "midi": 87,
            "name": "D#6",
            "ticks": 125006,
            "time": 141.53739242708332,
            "velocity": 0.3937007874015748
          },
          {
            "duration": 0.21739100000002054,
            "durationTicks": 192,
            "midi": 82,
            "name": "A#5",
            "ticks": 125006,
            "time": 141.53739242708332,
            "velocity": 0.3937007874015748
          },
          {
            "duration": 0.3260865000000024,
            "durationTicks": 288,
            "midi": 56,
            "name": "G#3",
            "ticks": 125006,
            "time": 141.53739242708332,
            "velocity": 0.3937007874015748
          },
          {
            "duration": 0.21739099999999212,
            "durationTicks": 192,
            "midi": 61,
            "name": "C#4",
            "ticks": 125102,
            "time": 141.64608792708333,
            "velocity": 0.3937007874015748
          },
          {
            "duration": 0.21739099999999212,
            "durationTicks": 192,
            "midi": 82,
            "name": "A#5",
            "ticks": 125198,
            "time": 141.75478342708334,
            "velocity": 0.3937007874015748
          },
          {
            "duration": 0.21739099999999212,
            "durationTicks": 192,
            "midi": 66,
            "name": "F#4",
            "ticks": 125198,
            "time": 141.75478342708334,
            "velocity": 0.3937007874015748
          },
          {
            "duration": 0.21739099999999212,
            "durationTicks": 192,
            "midi": 78,
            "name": "F#5",
            "ticks": 125198,
            "time": 141.75478342708334,
            "velocity": 0.3937007874015748
          },
          {
            "duration": 0.10869549999998185,
            "durationTicks": 96,
            "midi": 65,
            "name": "F4",
            "ticks": 125198,
            "time": 141.75478342708334,
            "velocity": 0.3937007874015748
          },
          {
            "duration": 0.21739099999999212,
            "durationTicks": 192,
            "midi": 70,
            "name": "A#4",
            "ticks": 125198,
            "time": 141.75478342708334,
            "velocity": 0.3937007874015748
          },
          {
            "duration": 0.3260865000000024,
            "durationTicks": 288,
            "midi": 56,
            "name": "G#3",
            "ticks": 125294,
            "time": 141.86347892708332,
            "velocity": 0.3937007874015748
          },
          {
            "duration": 0.3260865000000024,
            "durationTicks": 288,
            "midi": 53,
            "name": "F3",
            "ticks": 125294,
            "time": 141.86347892708332,
            "velocity": 0.3937007874015748
          },
          {
            "duration": 0.10869550000001027,
            "durationTicks": 96,
            "midi": 68,
            "name": "G#4",
            "ticks": 125294,
            "time": 141.86347892708332,
            "velocity": 0.3937007874015748
          },
          {
            "duration": 0.3260865000000024,
            "durationTicks": 288,
            "midi": 61,
            "name": "C#4",
            "ticks": 125294,
            "time": 141.86347892708332,
            "velocity": 0.3937007874015748
          },
          {
            "duration": 0.21739099999999212,
            "durationTicks": 192,
            "midi": 68,
            "name": "G#4",
            "ticks": 125390,
            "time": 141.97217442708333,
            "velocity": 0.3937007874015748
          },
          {
            "duration": 0.21739099999999212,
            "durationTicks": 192,
            "midi": 80,
            "name": "G#5",
            "ticks": 125390,
            "time": 141.97217442708333,
            "velocity": 0.3937007874015748
          },
          {
            "duration": 0.21739099999999212,
            "durationTicks": 192,
            "midi": 65,
            "name": "F4",
            "ticks": 125390,
            "time": 141.97217442708333,
            "velocity": 0.3937007874015748
          },
          {
            "duration": 0.21739099999999212,
            "durationTicks": 192,
            "midi": 77,
            "name": "F5",
            "ticks": 125390,
            "time": 141.97217442708333,
            "velocity": 0.3937007874015748
          },
          {
            "duration": 0.10869549999998185,
            "durationTicks": 96,
            "midi": 73,
            "name": "C#5",
            "ticks": 125390,
            "time": 141.97217442708333,
            "velocity": 0.3937007874015748
          },
          {
            "duration": 0.10869550000001027,
            "durationTicks": 96,
            "midi": 77,
            "name": "F5",
            "ticks": 125486,
            "time": 142.0808699270833,
            "velocity": 0.3937007874015748
          },
          {
            "duration": 0.21739099999999212,
            "durationTicks": 192,
            "midi": 66,
            "name": "F#4",
            "ticks": 125582,
            "time": 142.18956542708332,
            "velocity": 0.3937007874015748
          },
          {
            "duration": 0.21739099999999212,
            "durationTicks": 192,
            "midi": 53,
            "name": "F3",
            "ticks": 125582,
            "time": 142.18956542708332,
            "velocity": 0.3937007874015748
          },
          {
            "duration": 0.21739099999999212,
            "durationTicks": 192,
            "midi": 78,
            "name": "F#5",
            "ticks": 125582,
            "time": 142.18956542708332,
            "velocity": 0.3937007874015748
          },
          {
            "duration": 0.21739099999999212,
            "durationTicks": 192,
            "midi": 82,
            "name": "A#5",
            "ticks": 125582,
            "time": 142.18956542708332,
            "velocity": 0.3937007874015748
          },
          {
            "duration": 0.8695639999999969,
            "durationTicks": 768,
            "midi": 49,
            "name": "C#3",
            "ticks": 125582,
            "time": 142.18956542708332,
            "velocity": 0.3937007874015748
          },
          {
            "duration": 0.21739099999999212,
            "durationTicks": 192,
            "midi": 61,
            "name": "C#4",
            "ticks": 125582,
            "time": 142.18956542708332,
            "velocity": 0.3937007874015748
          },
          {
            "duration": 0.21739099999999212,
            "durationTicks": 192,
            "midi": 56,
            "name": "G#3",
            "ticks": 125582,
            "time": 142.18956542708332,
            "velocity": 0.3937007874015748
          },
          {
            "duration": 0.21739099999999212,
            "durationTicks": 192,
            "midi": 70,
            "name": "A#4",
            "ticks": 125582,
            "time": 142.18956542708332,
            "velocity": 0.3937007874015748
          },
          {
            "duration": 0.10869549999998185,
            "durationTicks": 96,
            "midi": 53,
            "name": "F3",
            "ticks": 125678,
            "time": 142.29826092708333,
            "velocity": 0.3937007874015748
          },
          {
            "duration": 0.10869550000001027,
            "durationTicks": 96,
            "midi": 56,
            "name": "G#3",
            "ticks": 125774,
            "time": 142.40695642708332,
            "velocity": 0.3937007874015748
          },
          {
            "duration": 0.3260865000000024,
            "durationTicks": 288,
            "midi": 53,
            "name": "F3",
            "ticks": 125774,
            "time": 142.40695642708332,
            "velocity": 0.3937007874015748
          },
          {
            "duration": 0.21739100000002054,
            "durationTicks": 192,
            "midi": 61,
            "name": "C#4",
            "ticks": 125774,
            "time": 142.40695642708332,
            "velocity": 0.3937007874015748
          },
          {
            "duration": 0.3260865000000024,
            "durationTicks": 288,
            "midi": 56,
            "name": "G#3",
            "ticks": 125774,
            "time": 142.40695642708332,
            "velocity": 0.3937007874015748
          },
          {
            "duration": 0.21739099999999212,
            "durationTicks": 192,
            "midi": 61,
            "name": "C#4",
            "ticks": 125870,
            "time": 142.51565192708333,
            "velocity": 0.3937007874015748
          },
          {
            "duration": 0.21739099999999212,
            "durationTicks": 192,
            "midi": 75,
            "name": "D#5",
            "ticks": 125966,
            "time": 142.62434742708334,
            "velocity": 0.3937007874015748
          },
          {
            "duration": 0.21739099999999212,
            "durationTicks": 192,
            "midi": 70,
            "name": "A#4",
            "ticks": 125966,
            "time": 142.62434742708334,
            "velocity": 0.3937007874015748
          },
          {
            "duration": 0.21739099999999212,
            "durationTicks": 192,
            "midi": 87,
            "name": "D#6",
            "ticks": 125966,
            "time": 142.62434742708334,
            "velocity": 0.3937007874015748
          },
          {
            "duration": 0.21739099999999212,
            "durationTicks": 192,
            "midi": 82,
            "name": "A#5",
            "ticks": 125966,
            "time": 142.62434742708334,
            "velocity": 0.3937007874015748
          },
          {
            "duration": 0.10869549999998185,
            "durationTicks": 96,
            "midi": 65,
            "name": "F4",
            "ticks": 125966,
            "time": 142.62434742708334,
            "velocity": 0.3937007874015748
          },
          {
            "duration": 0.3260865000000024,
            "durationTicks": 288,
            "midi": 56,
            "name": "G#3",
            "ticks": 126062,
            "time": 142.73304292708332,
            "velocity": 0.3937007874015748
          },
          {
            "duration": 0.3260865000000024,
            "durationTicks": 288,
            "midi": 61,
            "name": "C#4",
            "ticks": 126062,
            "time": 142.73304292708332,
            "velocity": 0.3937007874015748
          },
          {
            "duration": 0.3260865000000024,
            "durationTicks": 288,
            "midi": 53,
            "name": "F3",
            "ticks": 126062,
            "time": 142.73304292708332,
            "velocity": 0.3937007874015748
          },
          {
            "duration": 0.10869550000001027,
            "durationTicks": 96,
            "midi": 68,
            "name": "G#4",
            "ticks": 126062,
            "time": 142.73304292708332,
            "velocity": 0.3937007874015748
          },
          {
            "duration": 0.10869550000001027,
            "durationTicks": 96,
            "midi": 73,
            "name": "C#5",
            "ticks": 126158,
            "time": 142.84173842708333,
            "velocity": 0.3937007874015748
          },
          {
            "duration": 0.21739099999999212,
            "durationTicks": 192,
            "midi": 85,
            "name": "C#6",
            "ticks": 126158,
            "time": 142.84173842708333,
            "velocity": 0.3937007874015748
          },
          {
            "duration": 0.21739099999999212,
            "durationTicks": 192,
            "midi": 73,
            "name": "C#5",
            "ticks": 126158,
            "time": 142.84173842708333,
            "velocity": 0.3937007874015748
          },
          {
            "duration": 0.21739099999999212,
            "durationTicks": 192,
            "midi": 77,
            "name": "F5",
            "ticks": 126158,
            "time": 142.84173842708333,
            "velocity": 0.3937007874015748
          },
          {
            "duration": 0.21739099999999212,
            "durationTicks": 192,
            "midi": 89,
            "name": "F6",
            "ticks": 126158,
            "time": 142.84173842708333,
            "velocity": 0.3937007874015748
          },
          {
            "duration": 0.10869549999998185,
            "durationTicks": 96,
            "midi": 77,
            "name": "F5",
            "ticks": 126254,
            "time": 142.95043392708334,
            "velocity": 0.3937007874015748
          },
          {
            "duration": 0.21739099999999212,
            "durationTicks": 192,
            "midi": 54,
            "name": "F#3",
            "ticks": 126350,
            "time": 143.05912942708332,
            "velocity": 0.3937007874015748
          },
          {
            "duration": 1.7391279999999938,
            "durationTicks": 1536,
            "midi": 34,
            "name": "A#1",
            "ticks": 126350,
            "time": 143.05912942708332,
            "velocity": 0.3937007874015748
          },
          {
            "duration": 0.21739099999999212,
            "durationTicks": 192,
            "midi": 90,
            "name": "F#6",
            "ticks": 126350,
            "time": 143.05912942708332,
            "velocity": 0.3937007874015748
          },
          {
            "duration": 0.21739099999999212,
            "durationTicks": 192,
            "midi": 58,
            "name": "A#3",
            "ticks": 126350,
            "time": 143.05912942708332,
            "velocity": 0.3937007874015748
          },
          {
            "duration": 0.21739099999999212,
            "durationTicks": 192,
            "midi": 87,
            "name": "D#6",
            "ticks": 126350,
            "time": 143.05912942708332,
            "velocity": 0.3937007874015748
          },
          {
            "duration": 0.21739099999999212,
            "durationTicks": 192,
            "midi": 78,
            "name": "F#5",
            "ticks": 126350,
            "time": 143.05912942708332,
            "velocity": 0.3937007874015748
          },
          {
            "duration": 0.21739099999999212,
            "durationTicks": 192,
            "midi": 75,
            "name": "D#5",
            "ticks": 126350,
            "time": 143.05912942708332,
            "velocity": 0.3937007874015748
          },
          {
            "duration": 0.10869550000001027,
            "durationTicks": 96,
            "midi": 51,
            "name": "D#3",
            "ticks": 126350,
            "time": 143.05912942708332,
            "velocity": 0.3937007874015748
          },
          {
            "duration": 1.7391279999999938,
            "durationTicks": 1536,
            "midi": 39,
            "name": "D#2",
            "ticks": 126350,
            "time": 143.05912942708332,
            "velocity": 0.3937007874015748
          },
          {
            "duration": 1.7391279999999938,
            "durationTicks": 1536,
            "midi": 46,
            "name": "A#2",
            "ticks": 126350,
            "time": 143.05912942708332,
            "velocity": 0.3937007874015748
          },
          {
            "duration": 0.21739099999999212,
            "durationTicks": 192,
            "midi": 63,
            "name": "D#4",
            "ticks": 126350,
            "time": 143.05912942708332,
            "velocity": 0.3937007874015748
          },
          {
            "duration": 0.9782595000000072,
            "durationTicks": 864,
            "midi": 51,
            "name": "D#3",
            "ticks": 126350,
            "time": 143.05912942708332,
            "velocity": 0.3937007874015748
          },
          {
            "duration": 0.10869549999998185,
            "durationTicks": 96,
            "midi": 54,
            "name": "F#3",
            "ticks": 126446,
            "time": 143.16782492708333,
            "velocity": 0.3937007874015748
          },
          {
            "duration": 0.21739100000002054,
            "durationTicks": 192,
            "midi": 73,
            "name": "C#5",
            "ticks": 126542,
            "time": 143.2765204270833,
            "velocity": 0.3937007874015748
          },
          {
            "duration": 0.10869550000001027,
            "durationTicks": 96,
            "midi": 58,
            "name": "A#3",
            "ticks": 126542,
            "time": 143.2765204270833,
            "velocity": 0.3937007874015748
          },
          {
            "duration": 0.21739100000002054,
            "durationTicks": 192,
            "midi": 77,
            "name": "F5",
            "ticks": 126542,
            "time": 143.2765204270833,
            "velocity": 0.3937007874015748
          },
          {
            "duration": 0.21739100000002054,
            "durationTicks": 192,
            "midi": 63,
            "name": "D#4",
            "ticks": 126542,
            "time": 143.2765204270833,
            "velocity": 0.3937007874015748
          },
          {
            "duration": 0.21739100000002054,
            "durationTicks": 192,
            "midi": 85,
            "name": "C#6",
            "ticks": 126542,
            "time": 143.2765204270833,
            "velocity": 0.3937007874015748
          },
          {
            "duration": 0.21739100000002054,
            "durationTicks": 192,
            "midi": 89,
            "name": "F6",
            "ticks": 126542,
            "time": 143.2765204270833,
            "velocity": 0.3937007874015748
          },
          {
            "duration": 0.3260865000000024,
            "durationTicks": 288,
            "midi": 54,
            "name": "F#3",
            "ticks": 126542,
            "time": 143.2765204270833,
            "velocity": 0.3937007874015748
          },
          {
            "duration": 0.3260865000000024,
            "durationTicks": 288,
            "midi": 58,
            "name": "A#3",
            "ticks": 126542,
            "time": 143.2765204270833,
            "velocity": 0.3937007874015748
          },
          {
            "duration": 0.21739099999999212,
            "durationTicks": 192,
            "midi": 63,
            "name": "D#4",
            "ticks": 126638,
            "time": 143.38521592708332,
            "velocity": 0.3937007874015748
          },
          {
            "duration": 0.21739099999999212,
            "durationTicks": 192,
            "midi": 82,
            "name": "A#5",
            "ticks": 126734,
            "time": 143.49391142708333,
            "velocity": 0.3937007874015748
          },
          {
            "duration": 0.21739099999999212,
            "durationTicks": 192,
            "midi": 87,
            "name": "D#6",
            "ticks": 126734,
            "time": 143.49391142708333,
            "velocity": 0.3937007874015748
          },
          {
            "duration": 0.21739099999999212,
            "durationTicks": 192,
            "midi": 75,
            "name": "D#5",
            "ticks": 126734,
            "time": 143.49391142708333,
            "velocity": 0.3937007874015748
          },
          {
            "duration": 0.10869549999998185,
            "durationTicks": 96,
            "midi": 66,
            "name": "F#4",
            "ticks": 126734,
            "time": 143.49391142708333,
            "velocity": 0.3937007874015748
          },
          {
            "duration": 0.21739099999999212,
            "durationTicks": 192,
            "midi": 70,
            "name": "A#4",
            "ticks": 126734,
            "time": 143.49391142708333,
            "velocity": 0.3937007874015748
          },
          {
            "duration": 0.3260865000000024,
            "durationTicks": 288,
            "midi": 58,
            "name": "A#3",
            "ticks": 126830,
            "time": 143.60260692708331,
            "velocity": 0.3937007874015748
          },
          {
            "duration": 0.3260865000000024,
            "durationTicks": 288,
            "midi": 54,
            "name": "F#3",
            "ticks": 126830,
            "time": 143.60260692708331,
            "velocity": 0.3937007874015748
          },
          {
            "duration": 0.3260865000000024,
            "durationTicks": 288,
            "midi": 63,
            "name": "D#4",
            "ticks": 126830,
            "time": 143.60260692708331,
            "velocity": 0.3937007874015748
          },
          {
            "duration": 0.10869550000001027,
            "durationTicks": 96,
            "midi": 70,
            "name": "A#4",
            "ticks": 126830,
            "time": 143.60260692708331,
            "velocity": 0.3937007874015748
          },
          {
            "duration": 0.10869550000001027,
            "durationTicks": 96,
            "midi": 75,
            "name": "D#5",
            "ticks": 126926,
            "time": 143.71130242708333,
            "velocity": 0.3937007874015748
          },
          {
            "duration": 0.21739099999999212,
            "durationTicks": 192,
            "midi": 85,
            "name": "C#6",
            "ticks": 126926,
            "time": 143.71130242708333,
            "velocity": 0.3937007874015748
          },
          {
            "duration": 0.21739099999999212,
            "durationTicks": 192,
            "midi": 73,
            "name": "C#5",
            "ticks": 126926,
            "time": 143.71130242708333,
            "velocity": 0.3937007874015748
          },
          {
            "duration": 0.21739099999999212,
            "durationTicks": 192,
            "midi": 68,
            "name": "G#4",
            "ticks": 126926,
            "time": 143.71130242708333,
            "velocity": 0.3937007874015748
          },
          {
            "duration": 0.21739099999999212,
            "durationTicks": 192,
            "midi": 80,
            "name": "G#5",
            "ticks": 126926,
            "time": 143.71130242708333,
            "velocity": 0.3937007874015748
          },
          {
            "duration": 0.10869549999998185,
            "durationTicks": 96,
            "midi": 78,
            "name": "F#5",
            "ticks": 127022,
            "time": 143.81999792708334,
            "velocity": 0.3937007874015748
          },
          {
            "duration": 0.8695639999999969,
            "durationTicks": 768,
            "midi": 51,
            "name": "D#3",
            "ticks": 127118,
            "time": 143.92869342708332,
            "velocity": 0.3937007874015748
          },
          {
            "duration": 0.21739100000002054,
            "durationTicks": 192,
            "midi": 63,
            "name": "D#4",
            "ticks": 127118,
            "time": 143.92869342708332,
            "velocity": 0.3937007874015748
          },
          {
            "duration": 0.43478200000001266,
            "durationTicks": 384,
            "midi": 82,
            "name": "A#5",
            "ticks": 127118,
            "time": 143.92869342708332,
            "velocity": 0.3937007874015748
          },
          {
            "duration": 0.43478200000001266,
            "durationTicks": 384,
            "midi": 66,
            "name": "F#4",
            "ticks": 127118,
            "time": 143.92869342708332,
            "velocity": 0.3937007874015748
          },
          {
            "duration": 0.21739100000002054,
            "durationTicks": 192,
            "midi": 58,
            "name": "A#3",
            "ticks": 127118,
            "time": 143.92869342708332,
            "velocity": 0.3937007874015748
          },
          {
            "duration": 0.21739100000002054,
            "durationTicks": 192,
            "midi": 54,
            "name": "F#3",
            "ticks": 127118,
            "time": 143.92869342708332,
            "velocity": 0.3937007874015748
          },
          {
            "duration": 0.43478200000001266,
            "durationTicks": 384,
            "midi": 70,
            "name": "A#4",
            "ticks": 127118,
            "time": 143.92869342708332,
            "velocity": 0.3937007874015748
          },
          {
            "duration": 0.43478200000001266,
            "durationTicks": 384,
            "midi": 78,
            "name": "F#5",
            "ticks": 127118,
            "time": 143.92869342708332,
            "velocity": 0.3937007874015748
          },
          {
            "duration": 0.10869550000001027,
            "durationTicks": 96,
            "midi": 54,
            "name": "F#3",
            "ticks": 127214,
            "time": 144.03738892708333,
            "velocity": 0.3937007874015748
          },
          {
            "duration": 0.10869549999998185,
            "durationTicks": 96,
            "midi": 58,
            "name": "A#3",
            "ticks": 127310,
            "time": 144.14608442708334,
            "velocity": 0.3937007874015748
          },
          {
            "duration": 0.32608649999997397,
            "durationTicks": 288,
            "midi": 58,
            "name": "A#3",
            "ticks": 127310,
            "time": 144.14608442708334,
            "velocity": 0.3937007874015748
          },
          {
            "duration": 0.21739099999999212,
            "durationTicks": 192,
            "midi": 63,
            "name": "D#4",
            "ticks": 127310,
            "time": 144.14608442708334,
            "velocity": 0.3937007874015748
          },
          {
            "duration": 0.32608649999997397,
            "durationTicks": 288,
            "midi": 54,
            "name": "F#3",
            "ticks": 127310,
            "time": 144.14608442708334,
            "velocity": 0.3937007874015748
          },
          {
            "duration": 0.21739099999999212,
            "durationTicks": 192,
            "midi": 63,
            "name": "D#4",
            "ticks": 127406,
            "time": 144.25477992708332,
            "velocity": 0.3937007874015748
          },
          {
            "duration": 0.21739099999999212,
            "durationTicks": 192,
            "midi": 68,
            "name": "G#4",
            "ticks": 127502,
            "time": 144.36347542708333,
            "velocity": 0.3937007874015748
          },
          {
            "duration": 0.21739099999999212,
            "durationTicks": 192,
            "midi": 80,
            "name": "G#5",
            "ticks": 127502,
            "time": 144.36347542708333,
            "velocity": 0.3937007874015748
          },
          {
            "duration": 0.21739099999999212,
            "durationTicks": 192,
            "midi": 65,
            "name": "F4",
            "ticks": 127502,
            "time": 144.36347542708333,
            "velocity": 0.3937007874015748
          },
          {
            "duration": 0.21739099999999212,
            "durationTicks": 192,
            "midi": 77,
            "name": "F5",
            "ticks": 127502,
            "time": 144.36347542708333,
            "velocity": 0.3937007874015748
          },
          {
            "duration": 0.10869549999998185,
            "durationTicks": 96,
            "midi": 66,
            "name": "F#4",
            "ticks": 127502,
            "time": 144.36347542708333,
            "velocity": 0.3937007874015748
          },
          {
            "duration": 0.3260865000000024,
            "durationTicks": 288,
            "midi": 54,
            "name": "F#3",
            "ticks": 127598,
            "time": 144.4721709270833,
            "velocity": 0.3937007874015748
          },
          {
            "duration": 0.3260865000000024,
            "durationTicks": 288,
            "midi": 58,
            "name": "A#3",
            "ticks": 127598,
            "time": 144.4721709270833,
            "velocity": 0.3937007874015748
          },
          {
            "duration": 0.10869550000001027,
            "durationTicks": 96,
            "midi": 70,
            "name": "A#4",
            "ticks": 127598,
            "time": 144.4721709270833,
            "velocity": 0.3937007874015748
          },
          {
            "duration": 0.3260865000000024,
            "durationTicks": 288,
            "midi": 63,
            "name": "D#4",
            "ticks": 127598,
            "time": 144.4721709270833,
            "velocity": 0.3937007874015748
          },
          {
            "duration": 0.21739099999999212,
            "durationTicks": 192,
            "midi": 82,
            "name": "A#5",
            "ticks": 127694,
            "time": 144.58086642708332,
            "velocity": 0.3937007874015748
          },
          {
            "duration": 0.10869550000001027,
            "durationTicks": 96,
            "midi": 75,
            "name": "D#5",
            "ticks": 127694,
            "time": 144.58086642708332,
            "velocity": 0.3937007874015748
          },
          {
            "duration": 0.21739099999999212,
            "durationTicks": 192,
            "midi": 66,
            "name": "F#4",
            "ticks": 127694,
            "time": 144.58086642708332,
            "velocity": 0.3937007874015748
          },
          {
            "duration": 0.21739099999999212,
            "durationTicks": 192,
            "midi": 70,
            "name": "A#4",
            "ticks": 127694,
            "time": 144.58086642708332,
            "velocity": 0.3937007874015748
          },
          {
            "duration": 0.21739099999999212,
            "durationTicks": 192,
            "midi": 78,
            "name": "F#5",
            "ticks": 127694,
            "time": 144.58086642708332,
            "velocity": 0.3937007874015748
          },
          {
            "duration": 0.10869549999998185,
            "durationTicks": 96,
            "midi": 78,
            "name": "F#5",
            "ticks": 127790,
            "time": 144.68956192708333,
            "velocity": 0.3937007874015748
          },
          {
            "duration": 0.21739100000002054,
            "durationTicks": 192,
            "midi": 80,
            "name": "G#5",
            "ticks": 127886,
            "time": 144.7982574270833,
            "velocity": 0.3937007874015748
          },
          {
            "duration": 0.21739100000002054,
            "durationTicks": 192,
            "midi": 65,
            "name": "F4",
            "ticks": 127886,
            "time": 144.7982574270833,
            "velocity": 0.3937007874015748
          },
          {
            "duration": 0.21739100000002054,
            "durationTicks": 192,
            "midi": 77,
            "name": "F5",
            "ticks": 127886,
            "time": 144.7982574270833,
            "velocity": 0.3937007874015748
          },
          {
            "duration": 0.21739100000002054,
            "durationTicks": 192,
            "midi": 68,
            "name": "G#4",
            "ticks": 127886,
            "time": 144.7982574270833,
            "velocity": 0.3937007874015748
          },
          {
            "duration": 0.21739099999999212,
            "durationTicks": 192,
            "midi": 63,
            "name": "D#4",
            "ticks": 128078,
            "time": 145.01564842708333,
            "velocity": 0.3937007874015748
          },
          {
            "duration": 0.21739099999999212,
            "durationTicks": 192,
            "midi": 78,
            "name": "F#5",
            "ticks": 128078,
            "time": 145.01564842708333,
            "velocity": 0.3937007874015748
          },
          {
            "duration": 0.21739099999999212,
            "durationTicks": 192,
            "midi": 75,
            "name": "D#5",
            "ticks": 128078,
            "time": 145.01564842708333,
            "velocity": 0.3937007874015748
          },
          {
            "duration": 0.21739099999999212,
            "durationTicks": 192,
            "midi": 66,
            "name": "F#4",
            "ticks": 128078,
            "time": 145.01564842708333,
            "velocity": 0.3937007874015748
          },
          {
            "duration": 0.21739099999999212,
            "durationTicks": 192,
            "midi": 65,
            "name": "F4",
            "ticks": 128270,
            "time": 145.23303942708333,
            "velocity": 0.3937007874015748
          },
          {
            "duration": 0.21739099999999212,
            "durationTicks": 192,
            "midi": 61,
            "name": "C#4",
            "ticks": 128270,
            "time": 145.23303942708333,
            "velocity": 0.3937007874015748
          },
          {
            "duration": 0.21739099999999212,
            "durationTicks": 192,
            "midi": 77,
            "name": "F5",
            "ticks": 128270,
            "time": 145.23303942708333,
            "velocity": 0.3937007874015748
          },
          {
            "duration": 0.21739099999999212,
            "durationTicks": 192,
            "midi": 73,
            "name": "C#5",
            "ticks": 128270,
            "time": 145.23303942708333,
            "velocity": 0.3937007874015748
          },
          {
            "duration": 0.21739100000002054,
            "durationTicks": 192,
            "midi": 68,
            "name": "G#4",
            "ticks": 128462,
            "time": 145.45043042708332,
            "velocity": 0.3937007874015748
          },
          {
            "duration": 0.21739100000002054,
            "durationTicks": 192,
            "midi": 56,
            "name": "G#3",
            "ticks": 128462,
            "time": 145.45043042708332,
            "velocity": 0.3937007874015748
          },
          {
            "duration": 0.21739100000002054,
            "durationTicks": 192,
            "midi": 73,
            "name": "C#5",
            "ticks": 128462,
            "time": 145.45043042708332,
            "velocity": 0.3937007874015748
          },
          {
            "duration": 0.21739100000002054,
            "durationTicks": 192,
            "midi": 61,
            "name": "C#4",
            "ticks": 128462,
            "time": 145.45043042708332,
            "velocity": 0.3937007874015748
          },
          {
            "duration": 0.21739099999999212,
            "durationTicks": 192,
            "midi": 63,
            "name": "D#4",
            "ticks": 128654,
            "time": 145.66782142708334,
            "velocity": 0.3937007874015748
          },
          {
            "duration": 0.43478199999998424,
            "durationTicks": 384,
            "midi": 44,
            "name": "G#2",
            "ticks": 128654,
            "time": 145.66782142708334,
            "velocity": 0.3937007874015748
          },
          {
            "duration": 0.21739099999999212,
            "durationTicks": 192,
            "midi": 34,
            "name": "A#1",
            "ticks": 128654,
            "time": 145.66782142708334,
            "velocity": 0.3937007874015748
          },
          {
            "duration": 0.21739099999999212,
            "durationTicks": 192,
            "midi": 58,
            "name": "A#3",
            "ticks": 128654,
            "time": 145.66782142708334,
            "velocity": 0.3937007874015748
          },
          {
            "duration": 0.21739099999999212,
            "durationTicks": 192,
            "midi": 75,
            "name": "D#5",
            "ticks": 128654,
            "time": 145.66782142708334,
            "velocity": 0.3937007874015748
          },
          {
            "duration": 0.43478199999998424,
            "durationTicks": 384,
            "midi": 39,
            "name": "D#2",
            "ticks": 128654,
            "time": 145.66782142708334,
            "velocity": 0.3937007874015748
          },
          {
            "duration": 0.43478199999998424,
            "durationTicks": 384,
            "midi": 51,
            "name": "D#3",
            "ticks": 128654,
            "time": 145.66782142708334,
            "velocity": 0.3937007874015748
          },
          {
            "duration": 0.21739099999999212,
            "durationTicks": 192,
            "midi": 70,
            "name": "A#4",
            "ticks": 128654,
            "time": 145.66782142708334,
            "velocity": 0.3937007874015748
          },
          {
            "duration": 0.43478199999998424,
            "durationTicks": 384,
            "midi": 56,
            "name": "G#3",
            "ticks": 128654,
            "time": 145.66782142708334,
            "velocity": 0.3937007874015748
          },
          {
            "duration": 0.43478199999998424,
            "durationTicks": 384,
            "midi": 60,
            "name": "C4",
            "ticks": 128654,
            "time": 145.66782142708334,
            "velocity": 0.3937007874015748
          },
          {
            "duration": 0.43478199999998424,
            "durationTicks": 384,
            "midi": 68,
            "name": "G#4",
            "ticks": 128654,
            "time": 145.66782142708334,
            "velocity": 0.3937007874015748
          },
          {
            "duration": 0.43478199999998424,
            "durationTicks": 384,
            "midi": 63,
            "name": "D#4",
            "ticks": 128654,
            "time": 145.66782142708334,
            "velocity": 0.3937007874015748
          },
          {
            "duration": 0.43478200000001266,
            "durationTicks": 384,
            "midi": 61,
            "name": "C#4",
            "ticks": 129038,
            "time": 146.10260342708332,
            "velocity": 0.3937007874015748
          },
          {
            "duration": 0.43478200000001266,
            "durationTicks": 384,
            "midi": 42,
            "name": "F#2",
            "ticks": 129038,
            "time": 146.10260342708332,
            "velocity": 0.3937007874015748
          },
          {
            "duration": 0.43478200000001266,
            "durationTicks": 384,
            "midi": 37,
            "name": "C#2",
            "ticks": 129038,
            "time": 146.10260342708332,
            "velocity": 0.3937007874015748
          },
          {
            "duration": 0.43478200000001266,
            "durationTicks": 384,
            "midi": 54,
            "name": "F#3",
            "ticks": 129038,
            "time": 146.10260342708332,
            "velocity": 0.3937007874015748
          },
          {
            "duration": 0.43478200000001266,
            "durationTicks": 384,
            "midi": 66,
            "name": "F#4",
            "ticks": 129038,
            "time": 146.10260342708332,
            "velocity": 0.3937007874015748
          },
          {
            "duration": 0.43478200000001266,
            "durationTicks": 384,
            "midi": 49,
            "name": "C#3",
            "ticks": 129038,
            "time": 146.10260342708332,
            "velocity": 0.3937007874015748
          },
          {
            "duration": 0.21739099999999212,
            "durationTicks": 192,
            "midi": 34,
            "name": "A#1",
            "ticks": 129038,
            "time": 146.10260342708332,
            "velocity": 0.3937007874015748
          },
          {
            "duration": 0.43478200000001266,
            "durationTicks": 384,
            "midi": 58,
            "name": "A#3",
            "ticks": 129038,
            "time": 146.10260342708332,
            "velocity": 0.3937007874015748
          },
          {
            "duration": 0.10869549999998185,
            "durationTicks": 96,
            "midi": 63,
            "name": "D#4",
            "ticks": 129422,
            "time": 146.53738542708334,
            "velocity": 0.3937007874015748
          },
          {
            "duration": 0.43478199999998424,
            "durationTicks": 384,
            "midi": 54,
            "name": "F#3",
            "ticks": 129422,
            "time": 146.53738542708334,
            "velocity": 0.3937007874015748
          },
          {
            "duration": 0.10869549999998185,
            "durationTicks": 96,
            "midi": 87,
            "name": "D#6",
            "ticks": 129422,
            "time": 146.53738542708334,
            "velocity": 0.3937007874015748
          },
          {
            "duration": 0.21739099999999212,
            "durationTicks": 192,
            "midi": 34,
            "name": "A#1",
            "ticks": 129422,
            "time": 146.53738542708334,
            "velocity": 0.3937007874015748
          },
          {
            "duration": 0.10869549999998185,
            "durationTicks": 96,
            "midi": 39,
            "name": "D#2",
            "ticks": 129422,
            "time": 146.53738542708334,
            "velocity": 0.3937007874015748
          },
          {
            "duration": 0.10869549999998185,
            "durationTicks": 96,
            "midi": 27,
            "name": "D#1",
            "ticks": 129422,
            "time": 146.53738542708334,
            "velocity": 0.3937007874015748
          },
          {
            "duration": 0.43478199999998424,
            "durationTicks": 384,
            "midi": 58,
            "name": "A#3",
            "ticks": 129422,
            "time": 146.53738542708334,
            "velocity": 0.3937007874015748
          },
          {
            "duration": 0.10869549999998185,
            "durationTicks": 96,
            "midi": 51,
            "name": "D#3",
            "ticks": 129422,
            "time": 146.53738542708334,
            "velocity": 0.3937007874015748
          },
          {
            "duration": 0.3260865000000024,
            "durationTicks": 288,
            "midi": 63,
            "name": "D#4",
            "ticks": 129422,
            "time": 146.53738542708334,
            "velocity": 0.3937007874015748
          },
          {
            "duration": 0.10869550000001027,
            "durationTicks": 96,
            "midi": 87,
            "name": "D#6",
            "ticks": 129518,
            "time": 146.64608092708332,
            "velocity": 0.3937007874015748
          },
          {
            "duration": 0.21739099999999212,
            "durationTicks": 192,
            "midi": 63,
            "name": "D#4",
            "ticks": 129614,
            "time": 146.75477642708333,
            "velocity": 0.3937007874015748
          },
          {
            "duration": 0.10869550000001027,
            "durationTicks": 96,
            "midi": 39,
            "name": "D#2",
            "ticks": 129614,
            "time": 146.75477642708333,
            "velocity": 0.3937007874015748
          },
          {
            "duration": 0.10869550000001027,
            "durationTicks": 96,
            "midi": 86,
            "name": "D6",
            "ticks": 129614,
            "time": 146.75477642708333,
            "velocity": 0.3937007874015748
          },
          {
            "duration": 0.10869550000001027,
            "durationTicks": 96,
            "midi": 51,
            "name": "D#3",
            "ticks": 129614,
            "time": 146.75477642708333,
            "velocity": 0.3937007874015748
          },
          {
            "duration": 0.10869550000001027,
            "durationTicks": 96,
            "midi": 75,
            "name": "D#5",
            "ticks": 129614,
            "time": 146.75477642708333,
            "velocity": 0.3937007874015748
          },
          {
            "duration": 0.10869549999998185,
            "durationTicks": 96,
            "midi": 86,
            "name": "D6",
            "ticks": 129710,
            "time": 146.86347192708334,
            "velocity": 0.3937007874015748
          },
          {
            "duration": 0.10869549999998185,
            "durationTicks": 96,
            "midi": 51,
            "name": "D#3",
            "ticks": 129710,
            "time": 146.86347192708334,
            "velocity": 0.3937007874015748
          },
          {
            "duration": 0.10869549999998185,
            "durationTicks": 96,
            "midi": 39,
            "name": "D#2",
            "ticks": 129710,
            "time": 146.86347192708334,
            "velocity": 0.3937007874015748
          },
          {
            "duration": 0.10869549999998185,
            "durationTicks": 96,
            "midi": 75,
            "name": "D#5",
            "ticks": 129710,
            "time": 146.86347192708334,
            "velocity": 0.3937007874015748
          },
          {
            "duration": 0.10869549999998185,
            "durationTicks": 96,
            "midi": 63,
            "name": "D#4",
            "ticks": 129710,
            "time": 146.86347192708334,
            "velocity": 0.3937007874015748
          },
          {
            "duration": 0.10869550000001027,
            "durationTicks": 96,
            "midi": 39,
            "name": "D#2",
            "ticks": 129806,
            "time": 146.97216742708332,
            "velocity": 0.3937007874015748
          },
          {
            "duration": 0.10869550000001027,
            "durationTicks": 96,
            "midi": 27,
            "name": "D#1",
            "ticks": 129806,
            "time": 146.97216742708332,
            "velocity": 0.3937007874015748
          },
          {
            "duration": 0.43478200000001266,
            "durationTicks": 384,
            "midi": 58,
            "name": "A#3",
            "ticks": 129806,
            "time": 146.97216742708332,
            "velocity": 0.3937007874015748
          },
          {
            "duration": 0.43478200000001266,
            "durationTicks": 384,
            "midi": 54,
            "name": "F#3",
            "ticks": 129806,
            "time": 146.97216742708332,
            "velocity": 0.3937007874015748
          },
          {
            "duration": 0.10869550000001027,
            "durationTicks": 96,
            "midi": 51,
            "name": "D#3",
            "ticks": 129806,
            "time": 146.97216742708332,
            "velocity": 0.3937007874015748
          },
          {
            "duration": 0.10869550000001027,
            "durationTicks": 96,
            "midi": 63,
            "name": "D#4",
            "ticks": 129806,
            "time": 146.97216742708332,
            "velocity": 0.3937007874015748
          },
          {
            "duration": 0.21739099999999212,
            "durationTicks": 192,
            "midi": 63,
            "name": "D#4",
            "ticks": 129806,
            "time": 146.97216742708332,
            "velocity": 0.3937007874015748
          },
          {
            "duration": 0.21739099999999212,
            "durationTicks": 192,
            "midi": 34,
            "name": "A#1",
            "ticks": 129806,
            "time": 146.97216742708332,
            "velocity": 0.3937007874015748
          },
          {
            "duration": 0.10869550000001027,
            "durationTicks": 96,
            "midi": 85,
            "name": "C#6",
            "ticks": 129806,
            "time": 146.97216742708332,
            "velocity": 0.3937007874015748
          },
          {
            "duration": 0.10869549999998185,
            "durationTicks": 96,
            "midi": 51,
            "name": "D#3",
            "ticks": 129902,
            "time": 147.08086292708333,
            "velocity": 0.3937007874015748
          },
          {
            "duration": 0.10869549999998185,
            "durationTicks": 96,
            "midi": 85,
            "name": "C#6",
            "ticks": 129902,
            "time": 147.08086292708333,
            "velocity": 0.3937007874015748
          },
          {
            "duration": 0.3260865000000024,
            "durationTicks": 288,
            "midi": 63,
            "name": "D#4",
            "ticks": 129902,
            "time": 147.08086292708333,
            "velocity": 0.3937007874015748
          },
          {
            "duration": 0.10869549999998185,
            "durationTicks": 96,
            "midi": 39,
            "name": "D#2",
            "ticks": 129902,
            "time": 147.08086292708333,
            "velocity": 0.3937007874015748
          },
          {
            "duration": 0.10869549999998185,
            "durationTicks": 96,
            "midi": 75,
            "name": "D#5",
            "ticks": 129902,
            "time": 147.08086292708333,
            "velocity": 0.3937007874015748
          },
          {
            "duration": 0.10869550000001027,
            "durationTicks": 96,
            "midi": 37,
            "name": "C#2",
            "ticks": 129998,
            "time": 147.1895584270833,
            "velocity": 0.3937007874015748
          },
          {
            "duration": 0.10869550000001027,
            "durationTicks": 96,
            "midi": 49,
            "name": "C#3",
            "ticks": 129998,
            "time": 147.1895584270833,
            "velocity": 0.3937007874015748
          },
          {
            "duration": 0.10869550000001027,
            "durationTicks": 96,
            "midi": 84,
            "name": "C6",
            "ticks": 129998,
            "time": 147.1895584270833,
            "velocity": 0.3937007874015748
          },
          {
            "duration": 0.10869550000001027,
            "durationTicks": 96,
            "midi": 61,
            "name": "C#4",
            "ticks": 129998,
            "time": 147.1895584270833,
            "velocity": 0.3937007874015748
          },
          {
            "duration": 0.10869550000001027,
            "durationTicks": 96,
            "midi": 73,
            "name": "C#5",
            "ticks": 129998,
            "time": 147.1895584270833,
            "velocity": 0.3937007874015748
          },
          {
            "duration": 0.10869550000001027,
            "durationTicks": 96,
            "midi": 63,
            "name": "D#4",
            "ticks": 130094,
            "time": 147.29825392708332,
            "velocity": 0.3937007874015748
          },
          {
            "duration": 0.10869550000001027,
            "durationTicks": 96,
            "midi": 39,
            "name": "D#2",
            "ticks": 130094,
            "time": 147.29825392708332,
            "velocity": 0.3937007874015748
          },
          {
            "duration": 0.10869550000001027,
            "durationTicks": 96,
            "midi": 84,
            "name": "C6",
            "ticks": 130094,
            "time": 147.29825392708332,
            "velocity": 0.3937007874015748
          },
          {
            "duration": 0.10869550000001027,
            "durationTicks": 96,
            "midi": 75,
            "name": "D#5",
            "ticks": 130094,
            "time": 147.29825392708332,
            "velocity": 0.3937007874015748
          },
          {
            "duration": 0.10869550000001027,
            "durationTicks": 96,
            "midi": 51,
            "name": "D#3",
            "ticks": 130094,
            "time": 147.29825392708332,
            "velocity": 0.3937007874015748
          },
          {
            "duration": 0.10869549999998185,
            "durationTicks": 96,
            "midi": 51,
            "name": "D#3",
            "ticks": 130190,
            "time": 147.40694942708333,
            "velocity": 0.3937007874015748
          },
          {
            "duration": 0.10869549999998185,
            "durationTicks": 96,
            "midi": 63,
            "name": "D#4",
            "ticks": 130190,
            "time": 147.40694942708333,
            "velocity": 0.3937007874015748
          },
          {
            "duration": 0.10869549999998185,
            "durationTicks": 96,
            "midi": 39,
            "name": "D#2",
            "ticks": 130190,
            "time": 147.40694942708333,
            "velocity": 0.3937007874015748
          },
          {
            "duration": 0.10869549999998185,
            "durationTicks": 96,
            "midi": 95,
            "name": "B6",
            "ticks": 130190,
            "time": 147.40694942708333,
            "velocity": 0.3937007874015748
          },
          {
            "duration": 0.43478199999998424,
            "durationTicks": 384,
            "midi": 54,
            "name": "F#3",
            "ticks": 130190,
            "time": 147.40694942708333,
            "velocity": 0.3937007874015748
          },
          {
            "duration": 0.43478199999998424,
            "durationTicks": 384,
            "midi": 58,
            "name": "A#3",
            "ticks": 130190,
            "time": 147.40694942708333,
            "velocity": 0.3937007874015748
          },
          {
            "duration": 0.10869549999998185,
            "durationTicks": 96,
            "midi": 27,
            "name": "D#1",
            "ticks": 130190,
            "time": 147.40694942708333,
            "velocity": 0.3937007874015748
          },
          {
            "duration": 0.21739099999999212,
            "durationTicks": 192,
            "midi": 34,
            "name": "A#1",
            "ticks": 130190,
            "time": 147.40694942708333,
            "velocity": 0.3937007874015748
          },
          {
            "duration": 0.3260865000000024,
            "durationTicks": 288,
            "midi": 63,
            "name": "D#4",
            "ticks": 130190,
            "time": 147.40694942708333,
            "velocity": 0.3937007874015748
          },
          {
            "duration": 0.10869550000001027,
            "durationTicks": 96,
            "midi": 95,
            "name": "B6",
            "ticks": 130286,
            "time": 147.51564492708331,
            "velocity": 0.3937007874015748
          },
          {
            "duration": 0.21739099999999212,
            "durationTicks": 192,
            "midi": 63,
            "name": "D#4",
            "ticks": 130382,
            "time": 147.62434042708333,
            "velocity": 0.3937007874015748
          },
          {
            "duration": 0.10869550000001027,
            "durationTicks": 96,
            "midi": 39,
            "name": "D#2",
            "ticks": 130382,
            "time": 147.62434042708333,
            "velocity": 0.3937007874015748
          },
          {
            "duration": 0.10869550000001027,
            "durationTicks": 96,
            "midi": 75,
            "name": "D#5",
            "ticks": 130382,
            "time": 147.62434042708333,
            "velocity": 0.3937007874015748
          },
          {
            "duration": 0.10869550000001027,
            "durationTicks": 96,
            "midi": 51,
            "name": "D#3",
            "ticks": 130382,
            "time": 147.62434042708333,
            "velocity": 0.3937007874015748
          },
          {
            "duration": 0.10869550000001027,
            "durationTicks": 96,
            "midi": 94,
            "name": "A#6",
            "ticks": 130382,
            "time": 147.62434042708333,
            "velocity": 0.3937007874015748
          },
          {
            "duration": 0.10869549999998185,
            "durationTicks": 96,
            "midi": 75,
            "name": "D#5",
            "ticks": 130478,
            "time": 147.73303592708334,
            "velocity": 0.3937007874015748
          },
          {
            "duration": 0.10869549999998185,
            "durationTicks": 96,
            "midi": 94,
            "name": "A#6",
            "ticks": 130478,
            "time": 147.73303592708334,
            "velocity": 0.3937007874015748
          },
          {
            "duration": 0.10869549999998185,
            "durationTicks": 96,
            "midi": 63,
            "name": "D#4",
            "ticks": 130478,
            "time": 147.73303592708334,
            "velocity": 0.3937007874015748
          },
          {
            "duration": 0.10869549999998185,
            "durationTicks": 96,
            "midi": 39,
            "name": "D#2",
            "ticks": 130478,
            "time": 147.73303592708334,
            "velocity": 0.3937007874015748
          },
          {
            "duration": 0.10869549999998185,
            "durationTicks": 96,
            "midi": 51,
            "name": "D#3",
            "ticks": 130478,
            "time": 147.73303592708334,
            "velocity": 0.3937007874015748
          },
          {
            "duration": 0.10869550000001027,
            "durationTicks": 96,
            "midi": 51,
            "name": "D#3",
            "ticks": 130574,
            "time": 147.84173142708332,
            "velocity": 0.3937007874015748
          },
          {
            "duration": 0.10869550000001027,
            "durationTicks": 96,
            "midi": 93,
            "name": "A6",
            "ticks": 130574,
            "time": 147.84173142708332,
            "velocity": 0.3937007874015748
          },
          {
            "duration": 0.43478200000001266,
            "durationTicks": 384,
            "midi": 58,
            "name": "A#3",
            "ticks": 130574,
            "time": 147.84173142708332,
            "velocity": 0.3937007874015748
          },
          {
            "duration": 0.21739100000002054,
            "durationTicks": 192,
            "midi": 34,
            "name": "A#1",
            "ticks": 130574,
            "time": 147.84173142708332,
            "velocity": 0.3937007874015748
          },
          {
            "duration": 0.10869550000001027,
            "durationTicks": 96,
            "midi": 63,
            "name": "D#4",
            "ticks": 130574,
            "time": 147.84173142708332,
            "velocity": 0.3937007874015748
          },
          {
            "duration": 0.43478200000001266,
            "durationTicks": 384,
            "midi": 54,
            "name": "F#3",
            "ticks": 130574,
            "time": 147.84173142708332,
            "velocity": 0.3937007874015748
          },
          {
            "duration": 0.21739100000002054,
            "durationTicks": 192,
            "midi": 63,
            "name": "D#4",
            "ticks": 130574,
            "time": 147.84173142708332,
            "velocity": 0.3937007874015748
          },
          {
            "duration": 0.10869550000001027,
            "durationTicks": 96,
            "midi": 27,
            "name": "D#1",
            "ticks": 130574,
            "time": 147.84173142708332,
            "velocity": 0.3937007874015748
          },
          {
            "duration": 0.10869550000001027,
            "durationTicks": 96,
            "midi": 39,
            "name": "D#2",
            "ticks": 130574,
            "time": 147.84173142708332,
            "velocity": 0.3937007874015748
          },
          {
            "duration": 0.10869550000001027,
            "durationTicks": 96,
            "midi": 39,
            "name": "D#2",
            "ticks": 130670,
            "time": 147.95042692708333,
            "velocity": 0.3937007874015748
          },
          {
            "duration": 0.10869550000001027,
            "durationTicks": 96,
            "midi": 75,
            "name": "D#5",
            "ticks": 130670,
            "time": 147.95042692708333,
            "velocity": 0.3937007874015748
          },
          {
            "duration": 0.3260865000000024,
            "durationTicks": 288,
            "midi": 63,
            "name": "D#4",
            "ticks": 130670,
            "time": 147.95042692708333,
            "velocity": 0.3937007874015748
          },
          {
            "duration": 0.10869550000001027,
            "durationTicks": 96,
            "midi": 93,
            "name": "A6",
            "ticks": 130670,
            "time": 147.95042692708333,
            "velocity": 0.3937007874015748
          },
          {
            "duration": 0.10869550000001027,
            "durationTicks": 96,
            "midi": 51,
            "name": "D#3",
            "ticks": 130670,
            "time": 147.95042692708333,
            "velocity": 0.3937007874015748
          },
          {
            "duration": 0.10869549999998185,
            "durationTicks": 96,
            "midi": 92,
            "name": "G#6",
            "ticks": 130766,
            "time": 148.05912242708334,
            "velocity": 0.3937007874015748
          },
          {
            "duration": 0.10869549999998185,
            "durationTicks": 96,
            "midi": 37,
            "name": "C#2",
            "ticks": 130766,
            "time": 148.05912242708334,
            "velocity": 0.3937007874015748
          },
          {
            "duration": 0.10869549999998185,
            "durationTicks": 96,
            "midi": 61,
            "name": "C#4",
            "ticks": 130766,
            "time": 148.05912242708334,
            "velocity": 0.3937007874015748
          },
          {
            "duration": 0.10869549999998185,
            "durationTicks": 96,
            "midi": 49,
            "name": "C#3",
            "ticks": 130766,
            "time": 148.05912242708334,
            "velocity": 0.3937007874015748
          },
          {
            "duration": 0.10869549999998185,
            "durationTicks": 96,
            "midi": 73,
            "name": "C#5",
            "ticks": 130766,
            "time": 148.05912242708334,
            "velocity": 0.3937007874015748
          },
          {
            "duration": 0.10869550000001027,
            "durationTicks": 96,
            "midi": 92,
            "name": "G#6",
            "ticks": 130862,
            "time": 148.16781792708332,
            "velocity": 0.3937007874015748
          },
          {
            "duration": 0.10869550000001027,
            "durationTicks": 96,
            "midi": 51,
            "name": "D#3",
            "ticks": 130862,
            "time": 148.16781792708332,
            "velocity": 0.3937007874015748
          },
          {
            "duration": 0.10869550000001027,
            "durationTicks": 96,
            "midi": 75,
            "name": "D#5",
            "ticks": 130862,
            "time": 148.16781792708332,
            "velocity": 0.3937007874015748
          },
          {
            "duration": 0.10869550000001027,
            "durationTicks": 96,
            "midi": 39,
            "name": "D#2",
            "ticks": 130862,
            "time": 148.16781792708332,
            "velocity": 0.3937007874015748
          },
          {
            "duration": 0.10869550000001027,
            "durationTicks": 96,
            "midi": 63,
            "name": "D#4",
            "ticks": 130862,
            "time": 148.16781792708332,
            "velocity": 0.3937007874015748
          },
          {
            "duration": 0.10869549999998185,
            "durationTicks": 96,
            "midi": 91,
            "name": "G6",
            "ticks": 130958,
            "time": 148.27651342708333,
            "velocity": 0.3937007874015748
          },
          {
            "duration": 0.21739099999999212,
            "durationTicks": 192,
            "midi": 34,
            "name": "A#1",
            "ticks": 130958,
            "time": 148.27651342708333,
            "velocity": 0.3937007874015748
          },
          {
            "duration": 0.10869549999998185,
            "durationTicks": 96,
            "midi": 51,
            "name": "D#3",
            "ticks": 130958,
            "time": 148.27651342708333,
            "velocity": 0.3937007874015748
          },
          {
            "duration": 0.10869549999998185,
            "durationTicks": 96,
            "midi": 27,
            "name": "D#1",
            "ticks": 130958,
            "time": 148.27651342708333,
            "velocity": 0.3937007874015748
          },
          {
            "duration": 0.10869549999998185,
            "durationTicks": 96,
            "midi": 63,
            "name": "D#4",
            "ticks": 130958,
            "time": 148.27651342708333,
            "velocity": 0.3937007874015748
          },
          {
            "duration": 0.43478199999998424,
            "durationTicks": 384,
            "midi": 58,
            "name": "A#3",
            "ticks": 130958,
            "time": 148.27651342708333,
            "velocity": 0.3937007874015748
          },
          {
            "duration": 0.3260865000000024,
            "durationTicks": 288,
            "midi": 63,
            "name": "D#4",
            "ticks": 130958,
            "time": 148.27651342708333,
            "velocity": 0.3937007874015748
          },
          {
            "duration": 0.43478199999998424,
            "durationTicks": 384,
            "midi": 54,
            "name": "F#3",
            "ticks": 130958,
            "time": 148.27651342708333,
            "velocity": 0.3937007874015748
          },
          {
            "duration": 0.10869549999998185,
            "durationTicks": 96,
            "midi": 39,
            "name": "D#2",
            "ticks": 130958,
            "time": 148.27651342708333,
            "velocity": 0.3937007874015748
          },
          {
            "duration": 0.10869550000001027,
            "durationTicks": 96,
            "midi": 91,
            "name": "G6",
            "ticks": 131054,
            "time": 148.3852089270833,
            "velocity": 0.3937007874015748
          },
          {
            "duration": 0.10869550000001027,
            "durationTicks": 96,
            "midi": 39,
            "name": "D#2",
            "ticks": 131150,
            "time": 148.49390442708332,
            "velocity": 0.3937007874015748
          },
          {
            "duration": 0.10869550000001027,
            "durationTicks": 96,
            "midi": 51,
            "name": "D#3",
            "ticks": 131150,
            "time": 148.49390442708332,
            "velocity": 0.3937007874015748
          },
          {
            "duration": 0.10869550000001027,
            "durationTicks": 96,
            "midi": 75,
            "name": "D#5",
            "ticks": 131150,
            "time": 148.49390442708332,
            "velocity": 0.3937007874015748
          },
          {
            "duration": 0.10869550000001027,
            "durationTicks": 96,
            "midi": 90,
            "name": "F#6",
            "ticks": 131150,
            "time": 148.49390442708332,
            "velocity": 0.3937007874015748
          },
          {
            "duration": 0.21739099999999212,
            "durationTicks": 192,
            "midi": 63,
            "name": "D#4",
            "ticks": 131150,
            "time": 148.49390442708332,
            "velocity": 0.3937007874015748
          },
          {
            "duration": 0.10869549999998185,
            "durationTicks": 96,
            "midi": 63,
            "name": "D#4",
            "ticks": 131246,
            "time": 148.60259992708333,
            "velocity": 0.3937007874015748
          },
          {
            "duration": 0.10869549999998185,
            "durationTicks": 96,
            "midi": 90,
            "name": "F#6",
            "ticks": 131246,
            "time": 148.60259992708333,
            "velocity": 0.3937007874015748
          },
          {
            "duration": 0.10869549999998185,
            "durationTicks": 96,
            "midi": 75,
            "name": "D#5",
            "ticks": 131246,
            "time": 148.60259992708333,
            "velocity": 0.3937007874015748
          },
          {
            "duration": 0.10869549999998185,
            "durationTicks": 96,
            "midi": 39,
            "name": "D#2",
            "ticks": 131246,
            "time": 148.60259992708333,
            "velocity": 0.3937007874015748
          },
          {
            "duration": 0.10869549999998185,
            "durationTicks": 96,
            "midi": 51,
            "name": "D#3",
            "ticks": 131246,
            "time": 148.60259992708333,
            "velocity": 0.3937007874015748
          },
          {
            "duration": 0.21739100000002054,
            "durationTicks": 192,
            "midi": 34,
            "name": "A#1",
            "ticks": 131342,
            "time": 148.71129542708331,
            "velocity": 0.3937007874015748
          },
          {
            "duration": 0.10869550000001027,
            "durationTicks": 96,
            "midi": 39,
            "name": "D#2",
            "ticks": 131342,
            "time": 148.71129542708331,
            "velocity": 0.3937007874015748
          },
          {
            "duration": 0.10869550000001027,
            "durationTicks": 96,
            "midi": 27,
            "name": "D#1",
            "ticks": 131342,
            "time": 148.71129542708331,
            "velocity": 0.3937007874015748
          },
          {
            "duration": 0.10869550000001027,
            "durationTicks": 96,
            "midi": 63,
            "name": "D#4",
            "ticks": 131342,
            "time": 148.71129542708331,
            "velocity": 0.3937007874015748
          },
          {
            "duration": 0.10869550000001027,
            "durationTicks": 96,
            "midi": 89,
            "name": "F6",
            "ticks": 131342,
            "time": 148.71129542708331,
            "velocity": 0.3937007874015748
          },
          {
            "duration": 0.10869550000001027,
            "durationTicks": 96,
            "midi": 51,
            "name": "D#3",
            "ticks": 131342,
            "time": 148.71129542708331,
            "velocity": 0.3937007874015748
          },
          {
            "duration": 0.43478200000001266,
            "durationTicks": 384,
            "midi": 58,
            "name": "A#3",
            "ticks": 131342,
            "time": 148.71129542708331,
            "velocity": 0.3937007874015748
          },
          {
            "duration": 0.43478200000001266,
            "durationTicks": 384,
            "midi": 54,
            "name": "F#3",
            "ticks": 131342,
            "time": 148.71129542708331,
            "velocity": 0.3937007874015748
          },
          {
            "duration": 0.21739100000002054,
            "durationTicks": 192,
            "midi": 63,
            "name": "D#4",
            "ticks": 131342,
            "time": 148.71129542708331,
            "velocity": 0.3937007874015748
          },
          {
            "duration": 0.10869550000001027,
            "durationTicks": 96,
            "midi": 51,
            "name": "D#3",
            "ticks": 131438,
            "time": 148.81999092708332,
            "velocity": 0.3937007874015748
          },
          {
            "duration": 0.3260865000000024,
            "durationTicks": 288,
            "midi": 63,
            "name": "D#4",
            "ticks": 131438,
            "time": 148.81999092708332,
            "velocity": 0.3937007874015748
          },
          {
            "duration": 0.10869550000001027,
            "durationTicks": 96,
            "midi": 89,
            "name": "F6",
            "ticks": 131438,
            "time": 148.81999092708332,
            "velocity": 0.3937007874015748
          },
          {
            "duration": 0.10869550000001027,
            "durationTicks": 96,
            "midi": 75,
            "name": "D#5",
            "ticks": 131438,
            "time": 148.81999092708332,
            "velocity": 0.3937007874015748
          },
          {
            "duration": 0.10869550000001027,
            "durationTicks": 96,
            "midi": 39,
            "name": "D#2",
            "ticks": 131438,
            "time": 148.81999092708332,
            "velocity": 0.3937007874015748
          },
          {
            "duration": 0.10869549999998185,
            "durationTicks": 96,
            "midi": 73,
            "name": "C#5",
            "ticks": 131534,
            "time": 148.92868642708333,
            "velocity": 0.3937007874015748
          },
          {
            "duration": 0.10869549999998185,
            "durationTicks": 96,
            "midi": 61,
            "name": "C#4",
            "ticks": 131534,
            "time": 148.92868642708333,
            "velocity": 0.3937007874015748
          },
          {
            "duration": 0.10869549999998185,
            "durationTicks": 96,
            "midi": 37,
            "name": "C#2",
            "ticks": 131534,
            "time": 148.92868642708333,
            "velocity": 0.3937007874015748
          },
          {
            "duration": 0.10869549999998185,
            "durationTicks": 96,
            "midi": 49,
            "name": "C#3",
            "ticks": 131534,
            "time": 148.92868642708333,
            "velocity": 0.3937007874015748
          },
          {
            "duration": 0.10869549999998185,
            "durationTicks": 96,
            "midi": 88,
            "name": "E6",
            "ticks": 131534,
            "time": 148.92868642708333,
            "velocity": 0.3937007874015748
          },
          {
            "duration": 0.10869550000001027,
            "durationTicks": 96,
            "midi": 63,
            "name": "D#4",
            "ticks": 131630,
            "time": 149.03738192708332,
            "velocity": 0.3937007874015748
          },
          {
            "duration": 0.10869550000001027,
            "durationTicks": 96,
            "midi": 51,
            "name": "D#3",
            "ticks": 131630,
            "time": 149.03738192708332,
            "velocity": 0.3937007874015748
          },
          {
            "duration": 0.10869550000001027,
            "durationTicks": 96,
            "midi": 75,
            "name": "D#5",
            "ticks": 131630,
            "time": 149.03738192708332,
            "velocity": 0.3937007874015748
          },
          {
            "duration": 0.10869550000001027,
            "durationTicks": 96,
            "midi": 39,
            "name": "D#2",
            "ticks": 131630,
            "time": 149.03738192708332,
            "velocity": 0.3937007874015748
          },
          {
            "duration": 0.10869550000001027,
            "durationTicks": 96,
            "midi": 88,
            "name": "E6",
            "ticks": 131630,
            "time": 149.03738192708332,
            "velocity": 0.3937007874015748
          },
          {
            "duration": 0.10869550000001027,
            "durationTicks": 96,
            "midi": 54,
            "name": "F#3",
            "ticks": 131726,
            "time": 149.14607742708333,
            "velocity": 0.3937007874015748
          },
          {
            "duration": 0.43478200000001266,
            "durationTicks": 384,
            "midi": 61,
            "name": "C#4",
            "ticks": 131726,
            "time": 149.14607742708333,
            "velocity": 0.3937007874015748
          },
          {
            "duration": 0.10869550000001027,
            "durationTicks": 96,
            "midi": 66,
            "name": "F#4",
            "ticks": 131726,
            "time": 149.14607742708333,
            "velocity": 0.3937007874015748
          },
          {
            "duration": 0.10869550000001027,
            "durationTicks": 96,
            "midi": 42,
            "name": "F#2",
            "ticks": 131726,
            "time": 149.14607742708333,
            "velocity": 0.3937007874015748
          },
          {
            "duration": 0.43478200000001266,
            "durationTicks": 384,
            "midi": 54,
            "name": "F#3",
            "ticks": 131726,
            "time": 149.14607742708333,
            "velocity": 0.3937007874015748
          },
          {
            "duration": 0.21739099999999212,
            "durationTicks": 192,
            "midi": 34,
            "name": "A#1",
            "ticks": 131726,
            "time": 149.14607742708333,
            "velocity": 0.3937007874015748
          },
          {
            "duration": 0.10869550000001027,
            "durationTicks": 96,
            "midi": 87,
            "name": "D#6",
            "ticks": 131726,
            "time": 149.14607742708333,
            "velocity": 0.3937007874015748
          },
          {
            "duration": 0.10869550000001027,
            "durationTicks": 96,
            "midi": 78,
            "name": "F#5",
            "ticks": 131726,
            "time": 149.14607742708333,
            "velocity": 0.3937007874015748
          },
          {
            "duration": 0.43478200000001266,
            "durationTicks": 384,
            "midi": 58,
            "name": "A#3",
            "ticks": 131726,
            "time": 149.14607742708333,
            "velocity": 0.3937007874015748
          },
          {
            "duration": 0.10869549999998185,
            "durationTicks": 96,
            "midi": 87,
            "name": "D#6",
            "ticks": 131822,
            "time": 149.25477292708334,
            "velocity": 0.3937007874015748
          },
          {
            "duration": 0.10869550000001027,
            "durationTicks": 96,
            "midi": 86,
            "name": "D6",
            "ticks": 131918,
            "time": 149.36346842708332,
            "velocity": 0.3937007874015748
          },
          {
            "duration": 0.10869550000001027,
            "durationTicks": 96,
            "midi": 63,
            "name": "D#4",
            "ticks": 131918,
            "time": 149.36346842708332,
            "velocity": 0.3937007874015748
          },
          {
            "duration": 0.10869550000001027,
            "durationTicks": 96,
            "midi": 39,
            "name": "D#2",
            "ticks": 131918,
            "time": 149.36346842708332,
            "velocity": 0.3937007874015748
          },
          {
            "duration": 0.10869550000001027,
            "durationTicks": 96,
            "midi": 75,
            "name": "D#5",
            "ticks": 131918,
            "time": 149.36346842708332,
            "velocity": 0.3937007874015748
          },
          {
            "duration": 0.10869550000001027,
            "durationTicks": 96,
            "midi": 51,
            "name": "D#3",
            "ticks": 131918,
            "time": 149.36346842708332,
            "velocity": 0.3937007874015748
          },
          {
            "duration": 0.10869550000001027,
            "durationTicks": 96,
            "midi": 78,
            "name": "F#5",
            "ticks": 132014,
            "time": 149.47216392708333,
            "velocity": 0.3937007874015748
          },
          {
            "duration": 0.10869550000001027,
            "durationTicks": 96,
            "midi": 42,
            "name": "F#2",
            "ticks": 132014,
            "time": 149.47216392708333,
            "velocity": 0.3937007874015748
          },
          {
            "duration": 0.10869550000001027,
            "durationTicks": 96,
            "midi": 54,
            "name": "F#3",
            "ticks": 132014,
            "time": 149.47216392708333,
            "velocity": 0.3937007874015748
          },
          {
            "duration": 0.10869550000001027,
            "durationTicks": 96,
            "midi": 66,
            "name": "F#4",
            "ticks": 132014,
            "time": 149.47216392708333,
            "velocity": 0.3937007874015748
          },
          {
            "duration": 0.10869550000001027,
            "durationTicks": 96,
            "midi": 86,
            "name": "D6",
            "ticks": 132014,
            "time": 149.47216392708333,
            "velocity": 0.3937007874015748
          },
          {
            "duration": 0.10869549999998185,
            "durationTicks": 96,
            "midi": 85,
            "name": "C#6",
            "ticks": 132110,
            "time": 149.58085942708334,
            "velocity": 0.3937007874015748
          },
          {
            "duration": 0.10869549999998185,
            "durationTicks": 96,
            "midi": 68,
            "name": "G#4",
            "ticks": 132110,
            "time": 149.58085942708334,
            "velocity": 0.3937007874015748
          },
          {
            "duration": 0.10869549999998185,
            "durationTicks": 96,
            "midi": 44,
            "name": "G#2",
            "ticks": 132110,
            "time": 149.58085942708334,
            "velocity": 0.3937007874015748
          },
          {
            "duration": 0.21739099999999212,
            "durationTicks": 192,
            "midi": 34,
            "name": "A#1",
            "ticks": 132110,
            "time": 149.58085942708334,
            "velocity": 0.3937007874015748
          },
          {
            "duration": 0.43478199999998424,
            "durationTicks": 384,
            "midi": 59,
            "name": "B3",
            "ticks": 132110,
            "time": 149.58085942708334,
            "velocity": 0.3937007874015748
          },
          {
            "duration": 0.10869549999998185,
            "durationTicks": 96,
            "midi": 56,
            "name": "G#3",
            "ticks": 132110,
            "time": 149.58085942708334,
            "velocity": 0.3937007874015748
          },
          {
            "duration": 0.43478199999998424,
            "durationTicks": 384,
            "midi": 56,
            "name": "G#3",
            "ticks": 132110,
            "time": 149.58085942708334,
            "velocity": 0.3937007874015748
          },
          {
            "duration": 0.43478199999998424,
            "durationTicks": 384,
            "midi": 63,
            "name": "D#4",
            "ticks": 132110,
            "time": 149.58085942708334,
            "velocity": 0.3937007874015748
          },
          {
            "duration": 0.10869549999998185,
            "durationTicks": 96,
            "midi": 80,
            "name": "G#5",
            "ticks": 132110,
            "time": 149.58085942708334,
            "velocity": 0.3937007874015748
          },
          {
            "duration": 0.10869550000001027,
            "durationTicks": 96,
            "midi": 85,
            "name": "C#6",
            "ticks": 132206,
            "time": 149.68955492708332,
            "velocity": 0.3937007874015748
          },
          {
            "duration": 0.10869549999998185,
            "durationTicks": 96,
            "midi": 54,
            "name": "F#3",
            "ticks": 132302,
            "time": 149.79825042708333,
            "velocity": 0.3937007874015748
          },
          {
            "duration": 0.10869549999998185,
            "durationTicks": 96,
            "midi": 78,
            "name": "F#5",
            "ticks": 132302,
            "time": 149.79825042708333,
            "velocity": 0.3937007874015748
          },
          {
            "duration": 0.10869549999998185,
            "durationTicks": 96,
            "midi": 42,
            "name": "F#2",
            "ticks": 132302,
            "time": 149.79825042708333,
            "velocity": 0.3937007874015748
          },
          {
            "duration": 0.10869549999998185,
            "durationTicks": 96,
            "midi": 66,
            "name": "F#4",
            "ticks": 132302,
            "time": 149.79825042708333,
            "velocity": 0.3937007874015748
          },
          {
            "duration": 0.10869549999998185,
            "durationTicks": 96,
            "midi": 84,
            "name": "C6",
            "ticks": 132302,
            "time": 149.79825042708333,
            "velocity": 0.3937007874015748
          },
          {
            "duration": 0.21739099999999212,
            "durationTicks": 192,
            "midi": 34,
            "name": "A#1",
            "ticks": 132302,
            "time": 149.79825042708333,
            "velocity": 0.3937007874015748
          },
          {
            "duration": 0.10869550000001027,
            "durationTicks": 96,
            "midi": 68,
            "name": "G#4",
            "ticks": 132398,
            "time": 149.9069459270833,
            "velocity": 0.3937007874015748
          },
          {
            "duration": 0.10869550000001027,
            "durationTicks": 96,
            "midi": 44,
            "name": "G#2",
            "ticks": 132398,
            "time": 149.9069459270833,
            "velocity": 0.3937007874015748
          },
          {
            "duration": 0.10869550000001027,
            "durationTicks": 96,
            "midi": 56,
            "name": "G#3",
            "ticks": 132398,
            "time": 149.9069459270833,
            "velocity": 0.3937007874015748
          },
          {
            "duration": 0.10869550000001027,
            "durationTicks": 96,
            "midi": 84,
            "name": "C6",
            "ticks": 132398,
            "time": 149.9069459270833,
            "velocity": 0.3937007874015748
          },
          {
            "duration": 0.10869550000001027,
            "durationTicks": 96,
            "midi": 80,
            "name": "G#5",
            "ticks": 132398,
            "time": 149.9069459270833,
            "velocity": 0.3937007874015748
          },
          {
            "duration": 0.10869550000001027,
            "durationTicks": 96,
            "midi": 63,
            "name": "D#4",
            "ticks": 132494,
            "time": 150.01564142708332,
            "velocity": 0.3937007874015748
          },
          {
            "duration": 0.10869550000001027,
            "durationTicks": 96,
            "midi": 27,
            "name": "D#1",
            "ticks": 132494,
            "time": 150.01564142708332,
            "velocity": 0.3937007874015748
          },
          {
            "duration": 0.10869550000001027,
            "durationTicks": 96,
            "midi": 83,
            "name": "B5",
            "ticks": 132494,
            "time": 150.01564142708332,
            "velocity": 0.3937007874015748
          },
          {
            "duration": 0.43478200000001266,
            "durationTicks": 384,
            "midi": 58,
            "name": "A#3",
            "ticks": 132494,
            "time": 150.01564142708332,
            "velocity": 0.3937007874015748
          },
          {
            "duration": 0.10869550000001027,
            "durationTicks": 96,
            "midi": 39,
            "name": "D#2",
            "ticks": 132494,
            "time": 150.01564142708332,
            "velocity": 0.3937007874015748
          },
          {
            "duration": 0.43478200000001266,
            "durationTicks": 384,
            "midi": 54,
            "name": "F#3",
            "ticks": 132494,
            "time": 150.01564142708332,
            "velocity": 0.3937007874015748
          },
          {
            "duration": 0.10869550000001027,
            "durationTicks": 96,
            "midi": 51,
            "name": "D#3",
            "ticks": 132494,
            "time": 150.01564142708332,
            "velocity": 0.3937007874015748
          },
          {
            "duration": 0.3260865000000024,
            "durationTicks": 288,
            "midi": 63,
            "name": "D#4",
            "ticks": 132494,
            "time": 150.01564142708332,
            "velocity": 0.3937007874015748
          },
          {
            "duration": 0.21739099999999212,
            "durationTicks": 192,
            "midi": 34,
            "name": "A#1",
            "ticks": 132494,
            "time": 150.01564142708332,
            "velocity": 0.3937007874015748
          },
          {
            "duration": 0.10869549999998185,
            "durationTicks": 96,
            "midi": 83,
            "name": "B5",
            "ticks": 132590,
            "time": 150.12433692708333,
            "velocity": 0.3937007874015748
          },
          {
            "duration": 0.10869550000001027,
            "durationTicks": 96,
            "midi": 39,
            "name": "D#2",
            "ticks": 132686,
            "time": 150.23303242708332,
            "velocity": 0.3937007874015748
          },
          {
            "duration": 0.10869550000001027,
            "durationTicks": 96,
            "midi": 75,
            "name": "D#5",
            "ticks": 132686,
            "time": 150.23303242708332,
            "velocity": 0.3937007874015748
          },
          {
            "duration": 0.21739100000002054,
            "durationTicks": 192,
            "midi": 63,
            "name": "D#4",
            "ticks": 132686,
            "time": 150.23303242708332,
            "velocity": 0.3937007874015748
          },
          {
            "duration": 0.10869550000001027,
            "durationTicks": 96,
            "midi": 51,
            "name": "D#3",
            "ticks": 132686,
            "time": 150.23303242708332,
            "velocity": 0.3937007874015748
          },
          {
            "duration": 0.10869550000001027,
            "durationTicks": 96,
            "midi": 82,
            "name": "A#5",
            "ticks": 132686,
            "time": 150.23303242708332,
            "velocity": 0.3937007874015748
          },
          {
            "duration": 0.10869550000001027,
            "durationTicks": 96,
            "midi": 51,
            "name": "D#3",
            "ticks": 132782,
            "time": 150.34172792708333,
            "velocity": 0.3937007874015748
          },
          {
            "duration": 0.10869550000001027,
            "durationTicks": 96,
            "midi": 75,
            "name": "D#5",
            "ticks": 132782,
            "time": 150.34172792708333,
            "velocity": 0.3937007874015748
          },
          {
            "duration": 0.10869550000001027,
            "durationTicks": 96,
            "midi": 82,
            "name": "A#5",
            "ticks": 132782,
            "time": 150.34172792708333,
            "velocity": 0.3937007874015748
          },
          {
            "duration": 0.10869550000001027,
            "durationTicks": 96,
            "midi": 39,
            "name": "D#2",
            "ticks": 132782,
            "time": 150.34172792708333,
            "velocity": 0.3937007874015748
          },
          {
            "duration": 0.10869550000001027,
            "durationTicks": 96,
            "midi": 63,
            "name": "D#4",
            "ticks": 132782,
            "time": 150.34172792708333,
            "velocity": 0.3937007874015748
          },
          {
            "duration": 0.10869549999998185,
            "durationTicks": 96,
            "midi": 27,
            "name": "D#1",
            "ticks": 132878,
            "time": 150.45042342708334,
            "velocity": 0.3937007874015748
          },
          {
            "duration": 0.10869549999998185,
            "durationTicks": 96,
            "midi": 51,
            "name": "D#3",
            "ticks": 132878,
            "time": 150.45042342708334,
            "velocity": 0.3937007874015748
          },
          {
            "duration": 0.43478199999998424,
            "durationTicks": 384,
            "midi": 54,
            "name": "F#3",
            "ticks": 132878,
            "time": 150.45042342708334,
            "velocity": 0.3937007874015748
          },
          {
            "duration": 0.10869549999998185,
            "durationTicks": 96,
            "midi": 81,
            "name": "A5",
            "ticks": 132878,
            "time": 150.45042342708334,
            "velocity": 0.3937007874015748
          },
          {
            "duration": 0.10869549999998185,
            "durationTicks": 96,
            "midi": 63,
            "name": "D#4",
            "ticks": 132878,
            "time": 150.45042342708334,
            "velocity": 0.3937007874015748
          },
          {
            "duration": 0.10869549999998185,
            "durationTicks": 96,
            "midi": 39,
            "name": "D#2",
            "ticks": 132878,
            "time": 150.45042342708334,
            "velocity": 0.3937007874015748
          },
          {
            "duration": 0.21739099999999212,
            "durationTicks": 192,
            "midi": 34,
            "name": "A#1",
            "ticks": 132878,
            "time": 150.45042342708334,
            "velocity": 0.3937007874015748
          },
          {
            "duration": 0.43478199999998424,
            "durationTicks": 384,
            "midi": 58,
            "name": "A#3",
            "ticks": 132878,
            "time": 150.45042342708334,
            "velocity": 0.3937007874015748
          },
          {
            "duration": 0.21739099999999212,
            "durationTicks": 192,
            "midi": 63,
            "name": "D#4",
            "ticks": 132878,
            "time": 150.45042342708334,
            "velocity": 0.3937007874015748
          },
          {
            "duration": 0.10869550000001027,
            "durationTicks": 96,
            "midi": 75,
            "name": "D#5",
            "ticks": 132974,
            "time": 150.55911892708332,
            "velocity": 0.3937007874015748
          },
          {
            "duration": 0.10869550000001027,
            "durationTicks": 96,
            "midi": 39,
            "name": "D#2",
            "ticks": 132974,
            "time": 150.55911892708332,
            "velocity": 0.3937007874015748
          },
          {
            "duration": 0.3260865000000024,
            "durationTicks": 288,
            "midi": 63,
            "name": "D#4",
            "ticks": 132974,
            "time": 150.55911892708332,
            "velocity": 0.3937007874015748
          },
          {
            "duration": 0.10869550000001027,
            "durationTicks": 96,
            "midi": 51,
            "name": "D#3",
            "ticks": 132974,
            "time": 150.55911892708332,
            "velocity": 0.3937007874015748
          },
          {
            "duration": 0.10869550000001027,
            "durationTicks": 96,
            "midi": 81,
            "name": "A5",
            "ticks": 132974,
            "time": 150.55911892708332,
            "velocity": 0.3937007874015748
          },
          {
            "duration": 0.10869550000001027,
            "durationTicks": 96,
            "midi": 49,
            "name": "C#3",
            "ticks": 133070,
            "time": 150.66781442708333,
            "velocity": 0.3937007874015748
          },
          {
            "duration": 0.10869550000001027,
            "durationTicks": 96,
            "midi": 37,
            "name": "C#2",
            "ticks": 133070,
            "time": 150.66781442708333,
            "velocity": 0.3937007874015748
          },
          {
            "duration": 0.10869550000001027,
            "durationTicks": 96,
            "midi": 61,
            "name": "C#4",
            "ticks": 133070,
            "time": 150.66781442708333,
            "velocity": 0.3937007874015748
          },
          {
            "duration": 0.10869550000001027,
            "durationTicks": 96,
            "midi": 73,
            "name": "C#5",
            "ticks": 133070,
            "time": 150.66781442708333,
            "velocity": 0.3937007874015748
          },
          {
            "duration": 0.10869550000001027,
            "durationTicks": 96,
            "midi": 80,
            "name": "G#5",
            "ticks": 133070,
            "time": 150.66781442708333,
            "velocity": 0.3937007874015748
          },
          {
            "duration": 0.10869549999998185,
            "durationTicks": 96,
            "midi": 75,
            "name": "D#5",
            "ticks": 133166,
            "time": 150.77650992708334,
            "velocity": 0.3937007874015748
          },
          {
            "duration": 0.10869549999998185,
            "durationTicks": 96,
            "midi": 51,
            "name": "D#3",
            "ticks": 133166,
            "time": 150.77650992708334,
            "velocity": 0.3937007874015748
          },
          {
            "duration": 0.10869549999998185,
            "durationTicks": 96,
            "midi": 63,
            "name": "D#4",
            "ticks": 133166,
            "time": 150.77650992708334,
            "velocity": 0.3937007874015748
          },
          {
            "duration": 0.10869549999998185,
            "durationTicks": 96,
            "midi": 39,
            "name": "D#2",
            "ticks": 133166,
            "time": 150.77650992708334,
            "velocity": 0.3937007874015748
          },
          {
            "duration": 0.10869549999998185,
            "durationTicks": 96,
            "midi": 80,
            "name": "G#5",
            "ticks": 133166,
            "time": 150.77650992708334,
            "velocity": 0.3937007874015748
          },
          {
            "duration": 0.43478200000001266,
            "durationTicks": 384,
            "midi": 54,
            "name": "F#3",
            "ticks": 133262,
            "time": 150.88520542708332,
            "velocity": 0.3937007874015748
          },
          {
            "duration": 0.10869550000001027,
            "durationTicks": 96,
            "midi": 79,
            "name": "G5",
            "ticks": 133262,
            "time": 150.88520542708332,
            "velocity": 0.3937007874015748
          },
          {
            "duration": 0.43478200000001266,
            "durationTicks": 384,
            "midi": 58,
            "name": "A#3",
            "ticks": 133262,
            "time": 150.88520542708332,
            "velocity": 0.3937007874015748
          },
          {
            "duration": 0.10869550000001027,
            "durationTicks": 96,
            "midi": 63,
            "name": "D#4",
            "ticks": 133262,
            "time": 150.88520542708332,
            "velocity": 0.3937007874015748
          },
          {
            "duration": 0.10869550000001027,
            "durationTicks": 96,
            "midi": 39,
            "name": "D#2",
            "ticks": 133262,
            "time": 150.88520542708332,
            "velocity": 0.3937007874015748
          },
          {
            "duration": 0.10869550000001027,
            "durationTicks": 96,
            "midi": 27,
            "name": "D#1",
            "ticks": 133262,
            "time": 150.88520542708332,
            "velocity": 0.3937007874015748
          },
          {
            "duration": 0.21739099999999212,
            "durationTicks": 192,
            "midi": 34,
            "name": "A#1",
            "ticks": 133262,
            "time": 150.88520542708332,
            "velocity": 0.3937007874015748
          },
          {
            "duration": 0.10869550000001027,
            "durationTicks": 96,
            "midi": 51,
            "name": "D#3",
            "ticks": 133262,
            "time": 150.88520542708332,
            "velocity": 0.3937007874015748
          },
          {
            "duration": 0.3260865000000024,
            "durationTicks": 288,
            "midi": 63,
            "name": "D#4",
            "ticks": 133262,
            "time": 150.88520542708332,
            "velocity": 0.3937007874015748
          },
          {
            "duration": 0.10869549999998185,
            "durationTicks": 96,
            "midi": 79,
            "name": "G5",
            "ticks": 133358,
            "time": 150.99390092708333,
            "velocity": 0.3937007874015748
          },
          {
            "duration": 0.10869550000001027,
            "durationTicks": 96,
            "midi": 78,
            "name": "F#5",
            "ticks": 133454,
            "time": 151.1025964270833,
            "velocity": 0.3937007874015748
          },
          {
            "duration": 0.10869550000001027,
            "durationTicks": 96,
            "midi": 75,
            "name": "D#5",
            "ticks": 133454,
            "time": 151.1025964270833,
            "velocity": 0.3937007874015748
          },
          {
            "duration": 0.10869550000001027,
            "durationTicks": 96,
            "midi": 39,
            "name": "D#2",
            "ticks": 133454,
            "time": 151.1025964270833,
            "velocity": 0.3937007874015748
          },
          {
            "duration": 0.10869550000001027,
            "durationTicks": 96,
            "midi": 51,
            "name": "D#3",
            "ticks": 133454,
            "time": 151.1025964270833,
            "velocity": 0.3937007874015748
          },
          {
            "duration": 0.21739100000002054,
            "durationTicks": 192,
            "midi": 63,
            "name": "D#4",
            "ticks": 133454,
            "time": 151.1025964270833,
            "velocity": 0.3937007874015748
          },
          {
            "duration": 0.10869550000001027,
            "durationTicks": 96,
            "midi": 78,
            "name": "F#5",
            "ticks": 133550,
            "time": 151.21129192708332,
            "velocity": 0.3937007874015748
          },
          {
            "duration": 0.10869550000001027,
            "durationTicks": 96,
            "midi": 51,
            "name": "D#3",
            "ticks": 133550,
            "time": 151.21129192708332,
            "velocity": 0.3937007874015748
          },
          {
            "duration": 0.10869550000001027,
            "durationTicks": 96,
            "midi": 75,
            "name": "D#5",
            "ticks": 133550,
            "time": 151.21129192708332,
            "velocity": 0.3937007874015748
          },
          {
            "duration": 0.10869550000001027,
            "durationTicks": 96,
            "midi": 63,
            "name": "D#4",
            "ticks": 133550,
            "time": 151.21129192708332,
            "velocity": 0.3937007874015748
          },
          {
            "duration": 0.10869550000001027,
            "durationTicks": 96,
            "midi": 39,
            "name": "D#2",
            "ticks": 133550,
            "time": 151.21129192708332,
            "velocity": 0.3937007874015748
          },
          {
            "duration": 0.43478199999998424,
            "durationTicks": 384,
            "midi": 58,
            "name": "A#3",
            "ticks": 133646,
            "time": 151.31998742708333,
            "velocity": 0.3937007874015748
          },
          {
            "duration": 0.43478199999998424,
            "durationTicks": 384,
            "midi": 54,
            "name": "F#3",
            "ticks": 133646,
            "time": 151.31998742708333,
            "velocity": 0.3937007874015748
          },
          {
            "duration": 0.10869549999998185,
            "durationTicks": 96,
            "midi": 39,
            "name": "D#2",
            "ticks": 133646,
            "time": 151.31998742708333,
            "velocity": 0.3937007874015748
          },
          {
            "duration": 0.21739099999999212,
            "durationTicks": 192,
            "midi": 34,
            "name": "A#1",
            "ticks": 133646,
            "time": 151.31998742708333,
            "velocity": 0.3937007874015748
          },
          {
            "duration": 0.10869549999998185,
            "durationTicks": 96,
            "midi": 63,
            "name": "D#4",
            "ticks": 133646,
            "time": 151.31998742708333,
            "velocity": 0.3937007874015748
          },
          {
            "duration": 0.10869549999998185,
            "durationTicks": 96,
            "midi": 77,
            "name": "F5",
            "ticks": 133646,
            "time": 151.31998742708333,
            "velocity": 0.3937007874015748
          },
          {
            "duration": 0.21739099999999212,
            "durationTicks": 192,
            "midi": 63,
            "name": "D#4",
            "ticks": 133646,
            "time": 151.31998742708333,
            "velocity": 0.3937007874015748
          },
          {
            "duration": 0.10869549999998185,
            "durationTicks": 96,
            "midi": 51,
            "name": "D#3",
            "ticks": 133646,
            "time": 151.31998742708333,
            "velocity": 0.3937007874015748
          },
          {
            "duration": 0.10869549999998185,
            "durationTicks": 96,
            "midi": 27,
            "name": "D#1",
            "ticks": 133646,
            "time": 151.31998742708333,
            "velocity": 0.3937007874015748
          },
          {
            "duration": 0.10869550000001027,
            "durationTicks": 96,
            "midi": 51,
            "name": "D#3",
            "ticks": 133742,
            "time": 151.42868292708332,
            "velocity": 0.3937007874015748
          },
          {
            "duration": 0.10869550000001027,
            "durationTicks": 96,
            "midi": 77,
            "name": "F5",
            "ticks": 133742,
            "time": 151.42868292708332,
            "velocity": 0.3937007874015748
          },
          {
            "duration": 0.10869550000001027,
            "durationTicks": 96,
            "midi": 75,
            "name": "D#5",
            "ticks": 133742,
            "time": 151.42868292708332,
            "velocity": 0.3937007874015748
          },
          {
            "duration": 0.3260865000000024,
            "durationTicks": 288,
            "midi": 63,
            "name": "D#4",
            "ticks": 133742,
            "time": 151.42868292708332,
            "velocity": 0.3937007874015748
          },
          {
            "duration": 0.10869550000001027,
            "durationTicks": 96,
            "midi": 39,
            "name": "D#2",
            "ticks": 133742,
            "time": 151.42868292708332,
            "velocity": 0.3937007874015748
          },
          {
            "duration": 0.10869550000001027,
            "durationTicks": 96,
            "midi": 37,
            "name": "C#2",
            "ticks": 133838,
            "time": 151.53737842708333,
            "velocity": 0.3937007874015748
          },
          {
            "duration": 0.10869550000001027,
            "durationTicks": 96,
            "midi": 61,
            "name": "C#4",
            "ticks": 133838,
            "time": 151.53737842708333,
            "velocity": 0.3937007874015748
          },
          {
            "duration": 0.10869550000001027,
            "durationTicks": 96,
            "midi": 73,
            "name": "C#5",
            "ticks": 133838,
            "time": 151.53737842708333,
            "velocity": 0.3937007874015748
          },
          {
            "duration": 0.10869550000001027,
            "durationTicks": 96,
            "midi": 76,
            "name": "E5",
            "ticks": 133838,
            "time": 151.53737842708333,
            "velocity": 0.3937007874015748
          },
          {
            "duration": 0.10869550000001027,
            "durationTicks": 96,
            "midi": 49,
            "name": "C#3",
            "ticks": 133838,
            "time": 151.53737842708333,
            "velocity": 0.3937007874015748
          },
          {
            "duration": 0.10869549999998185,
            "durationTicks": 96,
            "midi": 76,
            "name": "E5",
            "ticks": 133934,
            "time": 151.64607392708334,
            "velocity": 0.3937007874015748
          },
          {
            "duration": 0.10869549999998185,
            "durationTicks": 96,
            "midi": 75,
            "name": "D#5",
            "ticks": 133934,
            "time": 151.64607392708334,
            "velocity": 0.3937007874015748
          },
          {
            "duration": 0.10869549999998185,
            "durationTicks": 96,
            "midi": 51,
            "name": "D#3",
            "ticks": 133934,
            "time": 151.64607392708334,
            "velocity": 0.3937007874015748
          },
          {
            "duration": 0.10869549999998185,
            "durationTicks": 96,
            "midi": 39,
            "name": "D#2",
            "ticks": 133934,
            "time": 151.64607392708334,
            "velocity": 0.3937007874015748
          },
          {
            "duration": 0.10869549999998185,
            "durationTicks": 96,
            "midi": 63,
            "name": "D#4",
            "ticks": 133934,
            "time": 151.64607392708334,
            "velocity": 0.3937007874015748
          },
          {
            "duration": 0.43478200000001266,
            "durationTicks": 384,
            "midi": 54,
            "name": "F#3",
            "ticks": 134030,
            "time": 151.75476942708332,
            "velocity": 0.3937007874015748
          },
          {
            "duration": 0.10869550000001027,
            "durationTicks": 96,
            "midi": 51,
            "name": "D#3",
            "ticks": 134030,
            "time": 151.75476942708332,
            "velocity": 0.3937007874015748
          },
          {
            "duration": 0.10869550000001027,
            "durationTicks": 96,
            "midi": 27,
            "name": "D#1",
            "ticks": 134030,
            "time": 151.75476942708332,
            "velocity": 0.3937007874015748
          },
          {
            "duration": 0.21739100000002054,
            "durationTicks": 192,
            "midi": 34,
            "name": "A#1",
            "ticks": 134030,
            "time": 151.75476942708332,
            "velocity": 0.3937007874015748
          },
          {
            "duration": 0.10869550000001027,
            "durationTicks": 96,
            "midi": 39,
            "name": "D#2",
            "ticks": 134030,
            "time": 151.75476942708332,
            "velocity": 0.3937007874015748
          },
          {
            "duration": 0.43478200000001266,
            "durationTicks": 384,
            "midi": 58,
            "name": "A#3",
            "ticks": 134030,
            "time": 151.75476942708332,
            "velocity": 0.3937007874015748
          },
          {
            "duration": 0.10869550000001027,
            "durationTicks": 96,
            "midi": 63,
            "name": "D#4",
            "ticks": 134030,
            "time": 151.75476942708332,
            "velocity": 0.3937007874015748
          },
          {
            "duration": 0.10869550000001027,
            "durationTicks": 96,
            "midi": 75,
            "name": "D#5",
            "ticks": 134030,
            "time": 151.75476942708332,
            "velocity": 0.3937007874015748
          },
          {
            "duration": 0.3260865000000024,
            "durationTicks": 288,
            "midi": 63,
            "name": "D#4",
            "ticks": 134030,
            "time": 151.75476942708332,
            "velocity": 0.3937007874015748
          },
          {
            "duration": 0.10869550000001027,
            "durationTicks": 96,
            "midi": 75,
            "name": "D#5",
            "ticks": 134126,
            "time": 151.86346492708333,
            "velocity": 0.3937007874015748
          },
          {
            "duration": 0.10869549999998185,
            "durationTicks": 96,
            "midi": 74,
            "name": "D5",
            "ticks": 134222,
            "time": 151.97216042708334,
            "velocity": 0.3937007874015748
          },
          {
            "duration": 0.10869549999998185,
            "durationTicks": 96,
            "midi": 51,
            "name": "D#3",
            "ticks": 134222,
            "time": 151.97216042708334,
            "velocity": 0.3937007874015748
          },
          {
            "duration": 0.10869549999998185,
            "durationTicks": 96,
            "midi": 39,
            "name": "D#2",
            "ticks": 134222,
            "time": 151.97216042708334,
            "velocity": 0.3937007874015748
          },
          {
            "duration": 0.10869549999998185,
            "durationTicks": 96,
            "midi": 75,
            "name": "D#5",
            "ticks": 134222,
            "time": 151.97216042708334,
            "velocity": 0.3937007874015748
          },
          {
            "duration": 0.21739099999999212,
            "durationTicks": 192,
            "midi": 63,
            "name": "D#4",
            "ticks": 134222,
            "time": 151.97216042708334,
            "velocity": 0.3937007874015748
          },
          {
            "duration": 0.10869550000001027,
            "durationTicks": 96,
            "midi": 51,
            "name": "D#3",
            "ticks": 134318,
            "time": 152.08085592708332,
            "velocity": 0.3937007874015748
          },
          {
            "duration": 0.10869550000001027,
            "durationTicks": 96,
            "midi": 75,
            "name": "D#5",
            "ticks": 134318,
            "time": 152.08085592708332,
            "velocity": 0.3937007874015748
          },
          {
            "duration": 0.10869550000001027,
            "durationTicks": 96,
            "midi": 39,
            "name": "D#2",
            "ticks": 134318,
            "time": 152.08085592708332,
            "velocity": 0.3937007874015748
          },
          {
            "duration": 0.10869550000001027,
            "durationTicks": 96,
            "midi": 74,
            "name": "D5",
            "ticks": 134318,
            "time": 152.08085592708332,
            "velocity": 0.3937007874015748
          },
          {
            "duration": 0.10869550000001027,
            "durationTicks": 96,
            "midi": 63,
            "name": "D#4",
            "ticks": 134318,
            "time": 152.08085592708332,
            "velocity": 0.3937007874015748
          },
          {
            "duration": 0.10869549999998185,
            "durationTicks": 96,
            "midi": 73,
            "name": "C#5",
            "ticks": 134414,
            "time": 152.18955142708333,
            "velocity": 0.3937007874015748
          },
          {
            "duration": 0.43478199999998424,
            "durationTicks": 384,
            "midi": 54,
            "name": "F#3",
            "ticks": 134414,
            "time": 152.18955142708333,
            "velocity": 0.3937007874015748
          },
          {
            "duration": 0.10869549999998185,
            "durationTicks": 96,
            "midi": 63,
            "name": "D#4",
            "ticks": 134414,
            "time": 152.18955142708333,
            "velocity": 0.3937007874015748
          },
          {
            "duration": 0.21739099999999212,
            "durationTicks": 192,
            "midi": 63,
            "name": "D#4",
            "ticks": 134414,
            "time": 152.18955142708333,
            "velocity": 0.3937007874015748
          },
          {
            "duration": 0.10869549999998185,
            "durationTicks": 96,
            "midi": 51,
            "name": "D#3",
            "ticks": 134414,
            "time": 152.18955142708333,
            "velocity": 0.3937007874015748
          },
          {
            "duration": 0.43478199999998424,
            "durationTicks": 384,
            "midi": 58,
            "name": "A#3",
            "ticks": 134414,
            "time": 152.18955142708333,
            "velocity": 0.3937007874015748
          },
          {
            "duration": 0.10869549999998185,
            "durationTicks": 96,
            "midi": 39,
            "name": "D#2",
            "ticks": 134414,
            "time": 152.18955142708333,
            "velocity": 0.3937007874015748
          },
          {
            "duration": 0.21739099999999212,
            "durationTicks": 192,
            "midi": 34,
            "name": "A#1",
            "ticks": 134414,
            "time": 152.18955142708333,
            "velocity": 0.3937007874015748
          },
          {
            "duration": 0.10869549999998185,
            "durationTicks": 96,
            "midi": 27,
            "name": "D#1",
            "ticks": 134414,
            "time": 152.18955142708333,
            "velocity": 0.3937007874015748
          },
          {
            "duration": 0.3260865000000024,
            "durationTicks": 288,
            "midi": 63,
            "name": "D#4",
            "ticks": 134510,
            "time": 152.2982469270833,
            "velocity": 0.3937007874015748
          },
          {
            "duration": 0.10869550000001027,
            "durationTicks": 96,
            "midi": 75,
            "name": "D#5",
            "ticks": 134510,
            "time": 152.2982469270833,
            "velocity": 0.3937007874015748
          },
          {
            "duration": 0.10869550000001027,
            "durationTicks": 96,
            "midi": 51,
            "name": "D#3",
            "ticks": 134510,
            "time": 152.2982469270833,
            "velocity": 0.3937007874015748
          },
          {
            "duration": 0.10869550000001027,
            "durationTicks": 96,
            "midi": 39,
            "name": "D#2",
            "ticks": 134510,
            "time": 152.2982469270833,
            "velocity": 0.3937007874015748
          },
          {
            "duration": 0.10869550000001027,
            "durationTicks": 96,
            "midi": 73,
            "name": "C#5",
            "ticks": 134510,
            "time": 152.2982469270833,
            "velocity": 0.3937007874015748
          },
          {
            "duration": 0.10869550000001027,
            "durationTicks": 96,
            "midi": 73,
            "name": "C#5",
            "ticks": 134606,
            "time": 152.40694242708332,
            "velocity": 0.3937007874015748
          },
          {
            "duration": 0.10869550000001027,
            "durationTicks": 96,
            "midi": 72,
            "name": "C5",
            "ticks": 134606,
            "time": 152.40694242708332,
            "velocity": 0.3937007874015748
          },
          {
            "duration": 0.10869550000001027,
            "durationTicks": 96,
            "midi": 37,
            "name": "C#2",
            "ticks": 134606,
            "time": 152.40694242708332,
            "velocity": 0.3937007874015748
          },
          {
            "duration": 0.10869550000001027,
            "durationTicks": 96,
            "midi": 61,
            "name": "C#4",
            "ticks": 134606,
            "time": 152.40694242708332,
            "velocity": 0.3937007874015748
          },
          {
            "duration": 0.10869550000001027,
            "durationTicks": 96,
            "midi": 49,
            "name": "C#3",
            "ticks": 134606,
            "time": 152.40694242708332,
            "velocity": 0.3937007874015748
          },
          {
            "duration": 0.10869549999998185,
            "durationTicks": 96,
            "midi": 39,
            "name": "D#2",
            "ticks": 134702,
            "time": 152.51563792708333,
            "velocity": 0.3937007874015748
          },
          {
            "duration": 0.10869549999998185,
            "durationTicks": 96,
            "midi": 75,
            "name": "D#5",
            "ticks": 134702,
            "time": 152.51563792708333,
            "velocity": 0.3937007874015748
          },
          {
            "duration": 0.10869549999998185,
            "durationTicks": 96,
            "midi": 51,
            "name": "D#3",
            "ticks": 134702,
            "time": 152.51563792708333,
            "velocity": 0.3937007874015748
          },
          {
            "duration": 0.10869549999998185,
            "durationTicks": 96,
            "midi": 63,
            "name": "D#4",
            "ticks": 134702,
            "time": 152.51563792708333,
            "velocity": 0.3937007874015748
          },
          {
            "duration": 0.10869549999998185,
            "durationTicks": 96,
            "midi": 72,
            "name": "C5",
            "ticks": 134702,
            "time": 152.51563792708333,
            "velocity": 0.3937007874015748
          },
          {
            "duration": 0.10869550000001027,
            "durationTicks": 96,
            "midi": 68,
            "name": "G#4",
            "ticks": 134798,
            "time": 152.62433342708331,
            "velocity": 0.3937007874015748
          },
          {
            "duration": 0.43478200000001266,
            "durationTicks": 384,
            "midi": 63,
            "name": "D#4",
            "ticks": 134798,
            "time": 152.62433342708331,
            "velocity": 0.3937007874015748
          },
          {
            "duration": 0.10869550000001027,
            "durationTicks": 96,
            "midi": 80,
            "name": "G#5",
            "ticks": 134798,
            "time": 152.62433342708331,
            "velocity": 0.3937007874015748
          },
          {
            "duration": 0.10869550000001027,
            "durationTicks": 96,
            "midi": 44,
            "name": "G#2",
            "ticks": 134798,
            "time": 152.62433342708331,
            "velocity": 0.3937007874015748
          },
          {
            "duration": 0.21739100000002054,
            "durationTicks": 192,
            "midi": 34,
            "name": "A#1",
            "ticks": 134798,
            "time": 152.62433342708331,
            "velocity": 0.3937007874015748
          },
          {
            "duration": 0.10869550000001027,
            "durationTicks": 96,
            "midi": 56,
            "name": "G#3",
            "ticks": 134798,
            "time": 152.62433342708331,
            "velocity": 0.3937007874015748
          },
          {
            "duration": 0.43478200000001266,
            "durationTicks": 384,
            "midi": 56,
            "name": "G#3",
            "ticks": 134798,
            "time": 152.62433342708331,
            "velocity": 0.3937007874015748
          },
          {
            "duration": 0.43478200000001266,
            "durationTicks": 384,
            "midi": 59,
            "name": "B3",
            "ticks": 134798,
            "time": 152.62433342708331,
            "velocity": 0.3937007874015748
          },
          {
            "duration": 0.10869550000001027,
            "durationTicks": 96,
            "midi": 71,
            "name": "B4",
            "ticks": 134798,
            "time": 152.62433342708331,
            "velocity": 0.3937007874015748
          },
          {
            "duration": 0.10869550000001027,
            "durationTicks": 96,
            "midi": 71,
            "name": "B4",
            "ticks": 134894,
            "time": 152.73302892708332,
            "velocity": 0.3937007874015748
          },
          {
            "duration": 0.10869549999998185,
            "durationTicks": 96,
            "midi": 42,
            "name": "F#2",
            "ticks": 134990,
            "time": 152.84172442708334,
            "velocity": 0.3937007874015748
          },
          {
            "duration": 0.10869549999998185,
            "durationTicks": 96,
            "midi": 54,
            "name": "F#3",
            "ticks": 134990,
            "time": 152.84172442708334,
            "velocity": 0.3937007874015748
          },
          {
            "duration": 0.10869549999998185,
            "durationTicks": 96,
            "midi": 70,
            "name": "A#4",
            "ticks": 134990,
            "time": 152.84172442708334,
            "velocity": 0.3937007874015748
          },
          {
            "duration": 0.10869549999998185,
            "durationTicks": 96,
            "midi": 66,
            "name": "F#4",
            "ticks": 134990,
            "time": 152.84172442708334,
            "velocity": 0.3937007874015748
          },
          {
            "duration": 0.10869549999998185,
            "durationTicks": 96,
            "midi": 78,
            "name": "F#5",
            "ticks": 134990,
            "time": 152.84172442708334,
            "velocity": 0.3937007874015748
          },
          {
            "duration": 0.10869550000001027,
            "durationTicks": 96,
            "midi": 68,
            "name": "G#4",
            "ticks": 135086,
            "time": 152.95041992708332,
            "velocity": 0.3937007874015748
          },
          {
            "duration": 0.10869550000001027,
            "durationTicks": 96,
            "midi": 44,
            "name": "G#2",
            "ticks": 135086,
            "time": 152.95041992708332,
            "velocity": 0.3937007874015748
          },
          {
            "duration": 0.10869550000001027,
            "durationTicks": 96,
            "midi": 70,
            "name": "A#4",
            "ticks": 135086,
            "time": 152.95041992708332,
            "velocity": 0.3937007874015748
          },
          {
            "duration": 0.10869550000001027,
            "durationTicks": 96,
            "midi": 56,
            "name": "G#3",
            "ticks": 135086,
            "time": 152.95041992708332,
            "velocity": 0.3937007874015748
          },
          {
            "duration": 0.10869550000001027,
            "durationTicks": 96,
            "midi": 80,
            "name": "G#5",
            "ticks": 135086,
            "time": 152.95041992708332,
            "velocity": 0.3937007874015748
          },
          {
            "duration": 0.10869550000001027,
            "durationTicks": 96,
            "midi": 78,
            "name": "F#5",
            "ticks": 135182,
            "time": 153.05911542708333,
            "velocity": 0.3937007874015748
          },
          {
            "duration": 0.21739099999999212,
            "durationTicks": 192,
            "midi": 34,
            "name": "A#1",
            "ticks": 135182,
            "time": 153.05911542708333,
            "velocity": 0.3937007874015748
          },
          {
            "duration": 0.10869550000001027,
            "durationTicks": 96,
            "midi": 69,
            "name": "A4",
            "ticks": 135182,
            "time": 153.05911542708333,
            "velocity": 0.3937007874015748
          },
          {
            "duration": 0.10869550000001027,
            "durationTicks": 96,
            "midi": 42,
            "name": "F#2",
            "ticks": 135182,
            "time": 153.05911542708333,
            "velocity": 0.3937007874015748
          },
          {
            "duration": 0.10869550000001027,
            "durationTicks": 96,
            "midi": 54,
            "name": "F#3",
            "ticks": 135182,
            "time": 153.05911542708333,
            "velocity": 0.3937007874015748
          },
          {
            "duration": 0.10869550000001027,
            "durationTicks": 96,
            "midi": 66,
            "name": "F#4",
            "ticks": 135182,
            "time": 153.05911542708333,
            "velocity": 0.3937007874015748
          },
          {
            "duration": 0.43478200000001266,
            "durationTicks": 384,
            "midi": 61,
            "name": "C#4",
            "ticks": 135182,
            "time": 153.05911542708333,
            "velocity": 0.3937007874015748
          },
          {
            "duration": 0.43478200000001266,
            "durationTicks": 384,
            "midi": 58,
            "name": "A#3",
            "ticks": 135182,
            "time": 153.05911542708333,
            "velocity": 0.3937007874015748
          },
          {
            "duration": 0.43478200000001266,
            "durationTicks": 384,
            "midi": 54,
            "name": "F#3",
            "ticks": 135182,
            "time": 153.05911542708333,
            "velocity": 0.3937007874015748
          },
          {
            "duration": 0.10869549999998185,
            "durationTicks": 96,
            "midi": 69,
            "name": "A4",
            "ticks": 135278,
            "time": 153.16781092708334,
            "velocity": 0.3937007874015748
          },
          {
            "duration": 0.10869550000001027,
            "durationTicks": 96,
            "midi": 39,
            "name": "D#2",
            "ticks": 135374,
            "time": 153.27650642708332,
            "velocity": 0.3937007874015748
          },
          {
            "duration": 0.21739100000002054,
            "durationTicks": 192,
            "midi": 34,
            "name": "A#1",
            "ticks": 135374,
            "time": 153.27650642708332,
            "velocity": 0.3937007874015748
          },
          {
            "duration": 0.10869550000001027,
            "durationTicks": 96,
            "midi": 63,
            "name": "D#4",
            "ticks": 135374,
            "time": 153.27650642708332,
            "velocity": 0.3937007874015748
          },
          {
            "duration": 0.10869550000001027,
            "durationTicks": 96,
            "midi": 75,
            "name": "D#5",
            "ticks": 135374,
            "time": 153.27650642708332,
            "velocity": 0.3937007874015748
          },
          {
            "duration": 0.10869550000001027,
            "durationTicks": 96,
            "midi": 68,
            "name": "G#4",
            "ticks": 135374,
            "time": 153.27650642708332,
            "velocity": 0.3937007874015748
          },
          {
            "duration": 0.10869550000001027,
            "durationTicks": 96,
            "midi": 51,
            "name": "D#3",
            "ticks": 135374,
            "time": 153.27650642708332,
            "velocity": 0.3937007874015748
          },
          {
            "duration": 0.10869550000001027,
            "durationTicks": 96,
            "midi": 78,
            "name": "F#5",
            "ticks": 135470,
            "time": 153.38520192708333,
            "velocity": 0.3937007874015748
          },
          {
            "duration": 0.10869550000001027,
            "durationTicks": 96,
            "midi": 54,
            "name": "F#3",
            "ticks": 135470,
            "time": 153.38520192708333,
            "velocity": 0.3937007874015748
          },
          {
            "duration": 0.10869550000001027,
            "durationTicks": 96,
            "midi": 42,
            "name": "F#2",
            "ticks": 135470,
            "time": 153.38520192708333,
            "velocity": 0.3937007874015748
          },
          {
            "duration": 0.10869550000001027,
            "durationTicks": 96,
            "midi": 66,
            "name": "F#4",
            "ticks": 135470,
            "time": 153.38520192708333,
            "velocity": 0.3937007874015748
          },
          {
            "duration": 0.10869550000001027,
            "durationTicks": 96,
            "midi": 68,
            "name": "G#4",
            "ticks": 135470,
            "time": 153.38520192708333,
            "velocity": 0.3937007874015748
          },
          {
            "duration": 0.21739099999999212,
            "durationTicks": 192,
            "midi": 34,
            "name": "A#1",
            "ticks": 135566,
            "time": 153.49389742708334,
            "velocity": 0.3937007874015748
          },
          {
            "duration": 0.10869549999998185,
            "durationTicks": 96,
            "midi": 63,
            "name": "D#4",
            "ticks": 135566,
            "time": 153.49389742708334,
            "velocity": 0.3937007874015748
          },
          {
            "duration": 0.10869549999998185,
            "durationTicks": 96,
            "midi": 27,
            "name": "D#1",
            "ticks": 135566,
            "time": 153.49389742708334,
            "velocity": 0.3937007874015748
          },
          {
            "duration": 0.10869549999998185,
            "durationTicks": 96,
            "midi": 39,
            "name": "D#2",
            "ticks": 135566,
            "time": 153.49389742708334,
            "velocity": 0.3937007874015748
          },
          {
            "duration": 0.32608649999997397,
            "durationTicks": 288,
            "midi": 63,
            "name": "D#4",
            "ticks": 135566,
            "time": 153.49389742708334,
            "velocity": 0.3937007874015748
          },
          {
            "duration": 0.43478199999998424,
            "durationTicks": 384,
            "midi": 54,
            "name": "F#3",
            "ticks": 135566,
            "time": 153.49389742708334,
            "velocity": 0.3937007874015748
          },
          {
            "duration": 0.43478199999998424,
            "durationTicks": 384,
            "midi": 58,
            "name": "A#3",
            "ticks": 135566,
            "time": 153.49389742708334,
            "velocity": 0.3937007874015748
          },
          {
            "duration": 0.10869549999998185,
            "durationTicks": 96,
            "midi": 51,
            "name": "D#3",
            "ticks": 135566,
            "time": 153.49389742708334,
            "velocity": 0.3937007874015748
          },
          {
            "duration": 0.10869549999998185,
            "durationTicks": 96,
            "midi": 39,
            "name": "D#2",
            "ticks": 135758,
            "time": 153.71128842708333,
            "velocity": 0.3937007874015748
          },
          {
            "duration": 0.10869549999998185,
            "durationTicks": 96,
            "midi": 75,
            "name": "D#5",
            "ticks": 135758,
            "time": 153.71128842708333,
            "velocity": 0.3937007874015748
          },
          {
            "duration": 0.10869549999998185,
            "durationTicks": 96,
            "midi": 51,
            "name": "D#3",
            "ticks": 135758,
            "time": 153.71128842708333,
            "velocity": 0.3937007874015748
          },
          {
            "duration": 0.21739099999999212,
            "durationTicks": 192,
            "midi": 63,
            "name": "D#4",
            "ticks": 135758,
            "time": 153.71128842708333,
            "velocity": 0.3937007874015748
          },
          {
            "duration": 0.10869550000001027,
            "durationTicks": 96,
            "midi": 39,
            "name": "D#2",
            "ticks": 135854,
            "time": 153.8199839270833,
            "velocity": 0.3937007874015748
          },
          {
            "duration": 0.10869550000001027,
            "durationTicks": 96,
            "midi": 51,
            "name": "D#3",
            "ticks": 135854,
            "time": 153.8199839270833,
            "velocity": 0.3937007874015748
          },
          {
            "duration": 0.10869550000001027,
            "durationTicks": 96,
            "midi": 63,
            "name": "D#4",
            "ticks": 135854,
            "time": 153.8199839270833,
            "velocity": 0.3937007874015748
          },
          {
            "duration": 0.10869550000001027,
            "durationTicks": 96,
            "midi": 75,
            "name": "D#5",
            "ticks": 135854,
            "time": 153.8199839270833,
            "velocity": 0.3937007874015748
          },
          {
            "duration": 0.10869550000001027,
            "durationTicks": 96,
            "midi": 63,
            "name": "D#4",
            "ticks": 135950,
            "time": 153.92867942708332,
            "velocity": 0.3937007874015748
          },
          {
            "duration": 0.10869550000001027,
            "durationTicks": 96,
            "midi": 39,
            "name": "D#2",
            "ticks": 135950,
            "time": 153.92867942708332,
            "velocity": 0.3937007874015748
          },
          {
            "duration": 0.43478200000001266,
            "durationTicks": 384,
            "midi": 54,
            "name": "F#3",
            "ticks": 135950,
            "time": 153.92867942708332,
            "velocity": 0.3937007874015748
          },
          {
            "duration": 0.21739099999999212,
            "durationTicks": 192,
            "midi": 63,
            "name": "D#4",
            "ticks": 135950,
            "time": 153.92867942708332,
            "velocity": 0.3937007874015748
          },
          {
            "duration": 0.10869550000001027,
            "durationTicks": 96,
            "midi": 27,
            "name": "D#1",
            "ticks": 135950,
            "time": 153.92867942708332,
            "velocity": 0.3937007874015748
          },
          {
            "duration": 0.21739099999999212,
            "durationTicks": 192,
            "midi": 34,
            "name": "A#1",
            "ticks": 135950,
            "time": 153.92867942708332,
            "velocity": 0.3937007874015748
          },
          {
            "duration": 0.43478200000001266,
            "durationTicks": 384,
            "midi": 58,
            "name": "A#3",
            "ticks": 135950,
            "time": 153.92867942708332,
            "velocity": 0.3937007874015748
          },
          {
            "duration": 0.10869550000001027,
            "durationTicks": 96,
            "midi": 51,
            "name": "D#3",
            "ticks": 135950,
            "time": 153.92867942708332,
            "velocity": 0.3937007874015748
          },
          {
            "duration": 0.10869549999998185,
            "durationTicks": 96,
            "midi": 51,
            "name": "D#3",
            "ticks": 136046,
            "time": 154.03737492708333,
            "velocity": 0.3937007874015748
          },
          {
            "duration": 0.10869549999998185,
            "durationTicks": 96,
            "midi": 39,
            "name": "D#2",
            "ticks": 136046,
            "time": 154.03737492708333,
            "velocity": 0.3937007874015748
          },
          {
            "duration": 0.10869549999998185,
            "durationTicks": 96,
            "midi": 75,
            "name": "D#5",
            "ticks": 136046,
            "time": 154.03737492708333,
            "velocity": 0.3937007874015748
          },
          {
            "duration": 0.3260865000000024,
            "durationTicks": 288,
            "midi": 63,
            "name": "D#4",
            "ticks": 136046,
            "time": 154.03737492708333,
            "velocity": 0.3937007874015748
          },
          {
            "duration": 0.10869550000001027,
            "durationTicks": 96,
            "midi": 37,
            "name": "C#2",
            "ticks": 136142,
            "time": 154.14607042708332,
            "velocity": 0.3937007874015748
          },
          {
            "duration": 0.10869550000001027,
            "durationTicks": 96,
            "midi": 73,
            "name": "C#5",
            "ticks": 136142,
            "time": 154.14607042708332,
            "velocity": 0.3937007874015748
          },
          {
            "duration": 0.10869550000001027,
            "durationTicks": 96,
            "midi": 61,
            "name": "C#4",
            "ticks": 136142,
            "time": 154.14607042708332,
            "velocity": 0.3937007874015748
          },
          {
            "duration": 0.10869550000001027,
            "durationTicks": 96,
            "midi": 49,
            "name": "C#3",
            "ticks": 136142,
            "time": 154.14607042708332,
            "velocity": 0.3937007874015748
          },
          {
            "duration": 0.10869550000001027,
            "durationTicks": 96,
            "midi": 51,
            "name": "D#3",
            "ticks": 136238,
            "time": 154.25476592708333,
            "velocity": 0.3937007874015748
          },
          {
            "duration": 0.10869550000001027,
            "durationTicks": 96,
            "midi": 39,
            "name": "D#2",
            "ticks": 136238,
            "time": 154.25476592708333,
            "velocity": 0.3937007874015748
          },
          {
            "duration": 0.10869550000001027,
            "durationTicks": 96,
            "midi": 63,
            "name": "D#4",
            "ticks": 136238,
            "time": 154.25476592708333,
            "velocity": 0.3937007874015748
          },
          {
            "duration": 0.10869550000001027,
            "durationTicks": 96,
            "midi": 75,
            "name": "D#5",
            "ticks": 136238,
            "time": 154.25476592708333,
            "velocity": 0.3937007874015748
          },
          {
            "duration": 0.43478199999998424,
            "durationTicks": 384,
            "midi": 58,
            "name": "A#3",
            "ticks": 136334,
            "time": 154.36346142708334,
            "velocity": 0.3937007874015748
          },
          {
            "duration": 0.21739099999999212,
            "durationTicks": 192,
            "midi": 34,
            "name": "A#1",
            "ticks": 136334,
            "time": 154.36346142708334,
            "velocity": 0.3937007874015748
          },
          {
            "duration": 0.10869549999998185,
            "durationTicks": 96,
            "midi": 51,
            "name": "D#3",
            "ticks": 136334,
            "time": 154.36346142708334,
            "velocity": 0.3937007874015748
          },
          {
            "duration": 0.10869549999998185,
            "durationTicks": 96,
            "midi": 63,
            "name": "D#4",
            "ticks": 136334,
            "time": 154.36346142708334,
            "velocity": 0.3937007874015748
          },
          {
            "duration": 0.10869549999998185,
            "durationTicks": 96,
            "midi": 27,
            "name": "D#1",
            "ticks": 136334,
            "time": 154.36346142708334,
            "velocity": 0.3937007874015748
          },
          {
            "duration": 0.3260865000000024,
            "durationTicks": 288,
            "midi": 63,
            "name": "D#4",
            "ticks": 136334,
            "time": 154.36346142708334,
            "velocity": 0.3937007874015748
          },
          {
            "duration": 0.10869549999998185,
            "durationTicks": 96,
            "midi": 39,
            "name": "D#2",
            "ticks": 136334,
            "time": 154.36346142708334,
            "velocity": 0.3937007874015748
          },
          {
            "duration": 0.43478199999998424,
            "durationTicks": 384,
            "midi": 54,
            "name": "F#3",
            "ticks": 136334,
            "time": 154.36346142708334,
            "velocity": 0.3937007874015748
          },
          {
            "duration": 0.21739099999999212,
            "durationTicks": 192,
            "midi": 63,
            "name": "D#4",
            "ticks": 136526,
            "time": 154.58085242708333,
            "velocity": 0.3937007874015748
          },
          {
            "duration": 0.10869550000001027,
            "durationTicks": 96,
            "midi": 75,
            "name": "D#5",
            "ticks": 136526,
            "time": 154.58085242708333,
            "velocity": 0.3937007874015748
          },
          {
            "duration": 0.10869550000001027,
            "durationTicks": 96,
            "midi": 51,
            "name": "D#3",
            "ticks": 136526,
            "time": 154.58085242708333,
            "velocity": 0.3937007874015748
          },
          {
            "duration": 0.10869550000001027,
            "durationTicks": 96,
            "midi": 39,
            "name": "D#2",
            "ticks": 136526,
            "time": 154.58085242708333,
            "velocity": 0.3937007874015748
          },
          {
            "duration": 0.10869549999998185,
            "durationTicks": 96,
            "midi": 63,
            "name": "D#4",
            "ticks": 136622,
            "time": 154.68954792708334,
            "velocity": 0.3937007874015748
          },
          {
            "duration": 0.10869549999998185,
            "durationTicks": 96,
            "midi": 39,
            "name": "D#2",
            "ticks": 136622,
            "time": 154.68954792708334,
            "velocity": 0.3937007874015748
          },
          {
            "duration": 0.10869549999998185,
            "durationTicks": 96,
            "midi": 75,
            "name": "D#5",
            "ticks": 136622,
            "time": 154.68954792708334,
            "velocity": 0.3937007874015748
          },
          {
            "duration": 0.10869549999998185,
            "durationTicks": 96,
            "midi": 51,
            "name": "D#3",
            "ticks": 136622,
            "time": 154.68954792708334,
            "velocity": 0.3937007874015748
          },
          {
            "duration": 0.10869550000001027,
            "durationTicks": 96,
            "midi": 39,
            "name": "D#2",
            "ticks": 136718,
            "time": 154.79824342708332,
            "velocity": 0.3937007874015748
          },
          {
            "duration": 0.43478200000001266,
            "durationTicks": 384,
            "midi": 54,
            "name": "F#3",
            "ticks": 136718,
            "time": 154.79824342708332,
            "velocity": 0.3937007874015748
          },
          {
            "duration": 0.10869550000001027,
            "durationTicks": 96,
            "midi": 63,
            "name": "D#4",
            "ticks": 136718,
            "time": 154.79824342708332,
            "velocity": 0.3937007874015748
          },
          {
            "duration": 0.21739099999999212,
            "durationTicks": 192,
            "midi": 34,
            "name": "A#1",
            "ticks": 136718,
            "time": 154.79824342708332,
            "velocity": 0.3937007874015748
          },
          {
            "duration": 0.10869550000001027,
            "durationTicks": 96,
            "midi": 51,
            "name": "D#3",
            "ticks": 136718,
            "time": 154.79824342708332,
            "velocity": 0.3937007874015748
          },
          {
            "duration": 0.21739099999999212,
            "durationTicks": 192,
            "midi": 63,
            "name": "D#4",
            "ticks": 136718,
            "time": 154.79824342708332,
            "velocity": 0.3937007874015748
          },
          {
            "duration": 0.10869550000001027,
            "durationTicks": 96,
            "midi": 27,
            "name": "D#1",
            "ticks": 136718,
            "time": 154.79824342708332,
            "velocity": 0.3937007874015748
          },
          {
            "duration": 0.43478200000001266,
            "durationTicks": 384,
            "midi": 58,
            "name": "A#3",
            "ticks": 136718,
            "time": 154.79824342708332,
            "velocity": 0.3937007874015748
          },
          {
            "duration": 0.3260865000000024,
            "durationTicks": 288,
            "midi": 63,
            "name": "D#4",
            "ticks": 136814,
            "time": 154.90693892708333,
            "velocity": 0.3937007874015748
          },
          {
            "duration": 0.10869549999998185,
            "durationTicks": 96,
            "midi": 51,
            "name": "D#3",
            "ticks": 136814,
            "time": 154.90693892708333,
            "velocity": 0.3937007874015748
          },
          {
            "duration": 0.10869549999998185,
            "durationTicks": 96,
            "midi": 39,
            "name": "D#2",
            "ticks": 136814,
            "time": 154.90693892708333,
            "velocity": 0.3937007874015748
          },
          {
            "duration": 0.10869549999998185,
            "durationTicks": 96,
            "midi": 75,
            "name": "D#5",
            "ticks": 136814,
            "time": 154.90693892708333,
            "velocity": 0.3937007874015748
          },
          {
            "duration": 0.10869550000001027,
            "durationTicks": 96,
            "midi": 49,
            "name": "C#3",
            "ticks": 136910,
            "time": 155.0156344270833,
            "velocity": 0.3937007874015748
          },
          {
            "duration": 0.10869550000001027,
            "durationTicks": 96,
            "midi": 37,
            "name": "C#2",
            "ticks": 136910,
            "time": 155.0156344270833,
            "velocity": 0.3937007874015748
          },
          {
            "duration": 0.10869550000001027,
            "durationTicks": 96,
            "midi": 61,
            "name": "C#4",
            "ticks": 136910,
            "time": 155.0156344270833,
            "velocity": 0.3937007874015748
          },
          {
            "duration": 0.10869550000001027,
            "durationTicks": 96,
            "midi": 73,
            "name": "C#5",
            "ticks": 136910,
            "time": 155.0156344270833,
            "velocity": 0.3937007874015748
          },
          {
            "duration": 0.10869550000001027,
            "durationTicks": 96,
            "midi": 75,
            "name": "D#5",
            "ticks": 137006,
            "time": 155.12432992708332,
            "velocity": 0.3937007874015748
          },
          {
            "duration": 0.10869550000001027,
            "durationTicks": 96,
            "midi": 51,
            "name": "D#3",
            "ticks": 137006,
            "time": 155.12432992708332,
            "velocity": 0.3937007874015748
          },
          {
            "duration": 0.10869550000001027,
            "durationTicks": 96,
            "midi": 39,
            "name": "D#2",
            "ticks": 137006,
            "time": 155.12432992708332,
            "velocity": 0.3937007874015748
          },
          {
            "duration": 0.10869550000001027,
            "durationTicks": 96,
            "midi": 63,
            "name": "D#4",
            "ticks": 137006,
            "time": 155.12432992708332,
            "velocity": 0.3937007874015748
          },
          {
            "duration": 0.10869549999998185,
            "durationTicks": 96,
            "midi": 63,
            "name": "D#4",
            "ticks": 137102,
            "time": 155.23302542708333,
            "velocity": 0.3937007874015748
          },
          {
            "duration": 0.3260865000000024,
            "durationTicks": 288,
            "midi": 63,
            "name": "D#4",
            "ticks": 137102,
            "time": 155.23302542708333,
            "velocity": 0.3937007874015748
          },
          {
            "duration": 0.10869549999998185,
            "durationTicks": 96,
            "midi": 39,
            "name": "D#2",
            "ticks": 137102,
            "time": 155.23302542708333,
            "velocity": 0.3937007874015748
          },
          {
            "duration": 0.43478199999998424,
            "durationTicks": 384,
            "midi": 54,
            "name": "F#3",
            "ticks": 137102,
            "time": 155.23302542708333,
            "velocity": 0.3937007874015748
          },
          {
            "duration": 0.10869549999998185,
            "durationTicks": 96,
            "midi": 51,
            "name": "D#3",
            "ticks": 137102,
            "time": 155.23302542708333,
            "velocity": 0.3937007874015748
          },
          {
            "duration": 0.21739099999999212,
            "durationTicks": 192,
            "midi": 34,
            "name": "A#1",
            "ticks": 137102,
            "time": 155.23302542708333,
            "velocity": 0.3937007874015748
          },
          {
            "duration": 0.10869549999998185,
            "durationTicks": 96,
            "midi": 27,
            "name": "D#1",
            "ticks": 137102,
            "time": 155.23302542708333,
            "velocity": 0.3937007874015748
          },
          {
            "duration": 0.43478199999998424,
            "durationTicks": 384,
            "midi": 58,
            "name": "A#3",
            "ticks": 137102,
            "time": 155.23302542708333,
            "velocity": 0.3937007874015748
          },
          {
            "duration": 0.10869550000001027,
            "durationTicks": 96,
            "midi": 75,
            "name": "D#5",
            "ticks": 137294,
            "time": 155.45041642708333,
            "velocity": 0.3937007874015748
          },
          {
            "duration": 0.10869550000001027,
            "durationTicks": 96,
            "midi": 39,
            "name": "D#2",
            "ticks": 137294,
            "time": 155.45041642708333,
            "velocity": 0.3937007874015748
          },
          {
            "duration": 0.21739099999999212,
            "durationTicks": 192,
            "midi": 63,
            "name": "D#4",
            "ticks": 137294,
            "time": 155.45041642708333,
            "velocity": 0.3937007874015748
          },
          {
            "duration": 0.10869550000001027,
            "durationTicks": 96,
            "midi": 51,
            "name": "D#3",
            "ticks": 137294,
            "time": 155.45041642708333,
            "velocity": 0.3937007874015748
          },
          {
            "duration": 0.10869549999998185,
            "durationTicks": 96,
            "midi": 63,
            "name": "D#4",
            "ticks": 137390,
            "time": 155.55911192708334,
            "velocity": 0.3937007874015748
          },
          {
            "duration": 0.10869549999998185,
            "durationTicks": 96,
            "midi": 39,
            "name": "D#2",
            "ticks": 137390,
            "time": 155.55911192708334,
            "velocity": 0.3937007874015748
          },
          {
            "duration": 0.10869549999998185,
            "durationTicks": 96,
            "midi": 75,
            "name": "D#5",
            "ticks": 137390,
            "time": 155.55911192708334,
            "velocity": 0.3937007874015748
          },
          {
            "duration": 0.10869549999998185,
            "durationTicks": 96,
            "midi": 51,
            "name": "D#3",
            "ticks": 137390,
            "time": 155.55911192708334,
            "velocity": 0.3937007874015748
          },
          {
            "duration": 0.10869550000001027,
            "durationTicks": 96,
            "midi": 63,
            "name": "D#4",
            "ticks": 137486,
            "time": 155.66780742708332,
            "velocity": 0.3937007874015748
          },
          {
            "duration": 0.21739100000002054,
            "durationTicks": 192,
            "midi": 34,
            "name": "A#1",
            "ticks": 137486,
            "time": 155.66780742708332,
            "velocity": 0.3937007874015748
          },
          {
            "duration": 0.10869550000001027,
            "durationTicks": 96,
            "midi": 51,
            "name": "D#3",
            "ticks": 137486,
            "time": 155.66780742708332,
            "velocity": 0.3937007874015748
          },
          {
            "duration": 0.10869550000001027,
            "durationTicks": 96,
            "midi": 39,
            "name": "D#2",
            "ticks": 137486,
            "time": 155.66780742708332,
            "velocity": 0.3937007874015748
          },
          {
            "duration": 0.43478200000001266,
            "durationTicks": 384,
            "midi": 54,
            "name": "F#3",
            "ticks": 137486,
            "time": 155.66780742708332,
            "velocity": 0.3937007874015748
          },
          {
            "duration": 0.43478200000001266,
            "durationTicks": 384,
            "midi": 58,
            "name": "A#3",
            "ticks": 137486,
            "time": 155.66780742708332,
            "velocity": 0.3937007874015748
          },
          {
            "duration": 0.10869550000001027,
            "durationTicks": 96,
            "midi": 27,
            "name": "D#1",
            "ticks": 137486,
            "time": 155.66780742708332,
            "velocity": 0.3937007874015748
          },
          {
            "duration": 0.21739100000002054,
            "durationTicks": 192,
            "midi": 63,
            "name": "D#4",
            "ticks": 137486,
            "time": 155.66780742708332,
            "velocity": 0.3937007874015748
          },
          {
            "duration": 0.10869550000001027,
            "durationTicks": 96,
            "midi": 51,
            "name": "D#3",
            "ticks": 137582,
            "time": 155.77650292708333,
            "velocity": 0.3937007874015748
          },
          {
            "duration": 0.10869550000001027,
            "durationTicks": 96,
            "midi": 75,
            "name": "D#5",
            "ticks": 137582,
            "time": 155.77650292708333,
            "velocity": 0.3937007874015748
          },
          {
            "duration": 0.3260865000000024,
            "durationTicks": 288,
            "midi": 63,
            "name": "D#4",
            "ticks": 137582,
            "time": 155.77650292708333,
            "velocity": 0.3937007874015748
          },
          {
            "duration": 0.10869550000001027,
            "durationTicks": 96,
            "midi": 39,
            "name": "D#2",
            "ticks": 137582,
            "time": 155.77650292708333,
            "velocity": 0.3937007874015748
          },
          {
            "duration": 0.10869549999998185,
            "durationTicks": 96,
            "midi": 73,
            "name": "C#5",
            "ticks": 137678,
            "time": 155.88519842708334,
            "velocity": 0.3937007874015748
          },
          {
            "duration": 0.10869549999998185,
            "durationTicks": 96,
            "midi": 61,
            "name": "C#4",
            "ticks": 137678,
            "time": 155.88519842708334,
            "velocity": 0.3937007874015748
          },
          {
            "duration": 0.10869549999998185,
            "durationTicks": 96,
            "midi": 37,
            "name": "C#2",
            "ticks": 137678,
            "time": 155.88519842708334,
            "velocity": 0.3937007874015748
          },
          {
            "duration": 0.10869549999998185,
            "durationTicks": 96,
            "midi": 49,
            "name": "C#3",
            "ticks": 137678,
            "time": 155.88519842708334,
            "velocity": 0.3937007874015748
          },
          {
            "duration": 0.10869550000001027,
            "durationTicks": 96,
            "midi": 51,
            "name": "D#3",
            "ticks": 137774,
            "time": 155.99389392708332,
            "velocity": 0.3937007874015748
          },
          {
            "duration": 0.10869550000001027,
            "durationTicks": 96,
            "midi": 63,
            "name": "D#4",
            "ticks": 137774,
            "time": 155.99389392708332,
            "velocity": 0.3937007874015748
          },
          {
            "duration": 0.10869550000001027,
            "durationTicks": 96,
            "midi": 39,
            "name": "D#2",
            "ticks": 137774,
            "time": 155.99389392708332,
            "velocity": 0.3937007874015748
          },
          {
            "duration": 0.10869550000001027,
            "durationTicks": 96,
            "midi": 75,
            "name": "D#5",
            "ticks": 137774,
            "time": 155.99389392708332,
            "velocity": 0.3937007874015748
          },
          {
            "duration": 0.43478199999998424,
            "durationTicks": 384,
            "midi": 61,
            "name": "C#4",
            "ticks": 137870,
            "time": 156.10258942708333,
            "velocity": 0.3937007874015748
          },
          {
            "duration": 0.43478199999998424,
            "durationTicks": 384,
            "midi": 58,
            "name": "A#3",
            "ticks": 137870,
            "time": 156.10258942708333,
            "velocity": 0.3937007874015748
          },
          {
            "duration": 0.10869549999998185,
            "durationTicks": 96,
            "midi": 42,
            "name": "F#2",
            "ticks": 137870,
            "time": 156.10258942708333,
            "velocity": 0.3937007874015748
          },
          {
            "duration": 0.10869549999998185,
            "durationTicks": 96,
            "midi": 54,
            "name": "F#3",
            "ticks": 137870,
            "time": 156.10258942708333,
            "velocity": 0.3937007874015748
          },
          {
            "duration": 0.21739099999999212,
            "durationTicks": 192,
            "midi": 34,
            "name": "A#1",
            "ticks": 137870,
            "time": 156.10258942708333,
            "velocity": 0.3937007874015748
          },
          {
            "duration": 0.10869549999998185,
            "durationTicks": 96,
            "midi": 66,
            "name": "F#4",
            "ticks": 137870,
            "time": 156.10258942708333,
            "velocity": 0.3937007874015748
          },
          {
            "duration": 0.10869549999998185,
            "durationTicks": 96,
            "midi": 78,
            "name": "F#5",
            "ticks": 137870,
            "time": 156.10258942708333,
            "velocity": 0.3937007874015748
          },
          {
            "duration": 0.43478199999998424,
            "durationTicks": 384,
            "midi": 54,
            "name": "F#3",
            "ticks": 137870,
            "time": 156.10258942708333,
            "velocity": 0.3937007874015748
          },
          {
            "duration": 0.10869550000001027,
            "durationTicks": 96,
            "midi": 39,
            "name": "D#2",
            "ticks": 138062,
            "time": 156.31998042708332,
            "velocity": 0.3937007874015748
          },
          {
            "duration": 0.10869550000001027,
            "durationTicks": 96,
            "midi": 51,
            "name": "D#3",
            "ticks": 138062,
            "time": 156.31998042708332,
            "velocity": 0.3937007874015748
          },
          {
            "duration": 0.10869550000001027,
            "durationTicks": 96,
            "midi": 63,
            "name": "D#4",
            "ticks": 138062,
            "time": 156.31998042708332,
            "velocity": 0.3937007874015748
          },
          {
            "duration": 0.10869550000001027,
            "durationTicks": 96,
            "midi": 75,
            "name": "D#5",
            "ticks": 138062,
            "time": 156.31998042708332,
            "velocity": 0.3937007874015748
          },
          {
            "duration": 0.10869549999998185,
            "durationTicks": 96,
            "midi": 54,
            "name": "F#3",
            "ticks": 138158,
            "time": 156.42867592708333,
            "velocity": 0.3937007874015748
          },
          {
            "duration": 0.10869549999998185,
            "durationTicks": 96,
            "midi": 42,
            "name": "F#2",
            "ticks": 138158,
            "time": 156.42867592708333,
            "velocity": 0.3937007874015748
          },
          {
            "duration": 0.10869549999998185,
            "durationTicks": 96,
            "midi": 78,
            "name": "F#5",
            "ticks": 138158,
            "time": 156.42867592708333,
            "velocity": 0.3937007874015748
          },
          {
            "duration": 0.10869549999998185,
            "durationTicks": 96,
            "midi": 66,
            "name": "F#4",
            "ticks": 138158,
            "time": 156.42867592708333,
            "velocity": 0.3937007874015748
          },
          {
            "duration": 0.21739100000002054,
            "durationTicks": 192,
            "midi": 34,
            "name": "A#1",
            "ticks": 138254,
            "time": 156.53737142708331,
            "velocity": 0.3937007874015748
          },
          {
            "duration": 0.43478200000001266,
            "durationTicks": 384,
            "midi": 63,
            "name": "D#4",
            "ticks": 138254,
            "time": 156.53737142708331,
            "velocity": 0.3937007874015748
          },
          {
            "duration": 0.10869550000001027,
            "durationTicks": 96,
            "midi": 44,
            "name": "G#2",
            "ticks": 138254,
            "time": 156.53737142708331,
            "velocity": 0.3937007874015748
          },
          {
            "duration": 0.10869550000001027,
            "durationTicks": 96,
            "midi": 56,
            "name": "G#3",
            "ticks": 138254,
            "time": 156.53737142708331,
            "velocity": 0.3937007874015748
          },
          {
            "duration": 0.10869550000001027,
            "durationTicks": 96,
            "midi": 80,
            "name": "G#5",
            "ticks": 138254,
            "time": 156.53737142708331,
            "velocity": 0.3937007874015748
          },
          {
            "duration": 0.43478200000001266,
            "durationTicks": 384,
            "midi": 59,
            "name": "B3",
            "ticks": 138254,
            "time": 156.53737142708331,
            "velocity": 0.3937007874015748
          },
          {
            "duration": 0.43478200000001266,
            "durationTicks": 384,
            "midi": 56,
            "name": "G#3",
            "ticks": 138254,
            "time": 156.53737142708331,
            "velocity": 0.3937007874015748
          },
          {
            "duration": 0.10869550000001027,
            "durationTicks": 96,
            "midi": 68,
            "name": "G#4",
            "ticks": 138254,
            "time": 156.53737142708331,
            "velocity": 0.3937007874015748
          },
          {
            "duration": 0.21739099999999212,
            "durationTicks": 192,
            "midi": 34,
            "name": "A#1",
            "ticks": 138446,
            "time": 156.75476242708334,
            "velocity": 0.3937007874015748
          },
          {
            "duration": 0.10869549999998185,
            "durationTicks": 96,
            "midi": 54,
            "name": "F#3",
            "ticks": 138446,
            "time": 156.75476242708334,
            "velocity": 0.3937007874015748
          },
          {
            "duration": 0.10869549999998185,
            "durationTicks": 96,
            "midi": 42,
            "name": "F#2",
            "ticks": 138446,
            "time": 156.75476242708334,
            "velocity": 0.3937007874015748
          },
          {
            "duration": 0.10869549999998185,
            "durationTicks": 96,
            "midi": 78,
            "name": "F#5",
            "ticks": 138446,
            "time": 156.75476242708334,
            "velocity": 0.3937007874015748
          },
          {
            "duration": 0.10869549999998185,
            "durationTicks": 96,
            "midi": 66,
            "name": "F#4",
            "ticks": 138446,
            "time": 156.75476242708334,
            "velocity": 0.3937007874015748
          },
          {
            "duration": 0.10869550000001027,
            "durationTicks": 96,
            "midi": 44,
            "name": "G#2",
            "ticks": 138542,
            "time": 156.86345792708332,
            "velocity": 0.3937007874015748
          },
          {
            "duration": 0.10869550000001027,
            "durationTicks": 96,
            "midi": 68,
            "name": "G#4",
            "ticks": 138542,
            "time": 156.86345792708332,
            "velocity": 0.3937007874015748
          },
          {
            "duration": 0.10869550000001027,
            "durationTicks": 96,
            "midi": 56,
            "name": "G#3",
            "ticks": 138542,
            "time": 156.86345792708332,
            "velocity": 0.3937007874015748
          },
          {
            "duration": 0.10869550000001027,
            "durationTicks": 96,
            "midi": 80,
            "name": "G#5",
            "ticks": 138542,
            "time": 156.86345792708332,
            "velocity": 0.3937007874015748
          },
          {
            "duration": 0.21739099999999212,
            "durationTicks": 192,
            "midi": 34,
            "name": "A#1",
            "ticks": 138638,
            "time": 156.97215342708333,
            "velocity": 0.3937007874015748
          },
          {
            "duration": 0.43478199999998424,
            "durationTicks": 384,
            "midi": 54,
            "name": "F#3",
            "ticks": 138638,
            "time": 156.97215342708333,
            "velocity": 0.3937007874015748
          },
          {
            "duration": 0.10869550000001027,
            "durationTicks": 96,
            "midi": 63,
            "name": "D#4",
            "ticks": 138638,
            "time": 156.97215342708333,
            "velocity": 0.3937007874015748
          },
          {
            "duration": 0.43478199999998424,
            "durationTicks": 384,
            "midi": 58,
            "name": "A#3",
            "ticks": 138638,
            "time": 156.97215342708333,
            "velocity": 0.3937007874015748
          },
          {
            "duration": 0.10869550000001027,
            "durationTicks": 96,
            "midi": 27,
            "name": "D#1",
            "ticks": 138638,
            "time": 156.97215342708333,
            "velocity": 0.3937007874015748
          },
          {
            "duration": 0.10869550000001027,
            "durationTicks": 96,
            "midi": 39,
            "name": "D#2",
            "ticks": 138638,
            "time": 156.97215342708333,
            "velocity": 0.3937007874015748
          },
          {
            "duration": 0.3260865000000024,
            "durationTicks": 288,
            "midi": 63,
            "name": "D#4",
            "ticks": 138638,
            "time": 156.97215342708333,
            "velocity": 0.3937007874015748
          },
          {
            "duration": 0.10869550000001027,
            "durationTicks": 96,
            "midi": 51,
            "name": "D#3",
            "ticks": 138638,
            "time": 156.97215342708333,
            "velocity": 0.3937007874015748
          },
          {
            "duration": 0.10869550000001027,
            "durationTicks": 96,
            "midi": 75,
            "name": "D#5",
            "ticks": 138830,
            "time": 157.18954442708332,
            "velocity": 0.3937007874015748
          },
          {
            "duration": 0.21739099999999212,
            "durationTicks": 192,
            "midi": 63,
            "name": "D#4",
            "ticks": 138830,
            "time": 157.18954442708332,
            "velocity": 0.3937007874015748
          },
          {
            "duration": 0.10869550000001027,
            "durationTicks": 96,
            "midi": 51,
            "name": "D#3",
            "ticks": 138830,
            "time": 157.18954442708332,
            "velocity": 0.3937007874015748
          },
          {
            "duration": 0.10869550000001027,
            "durationTicks": 96,
            "midi": 39,
            "name": "D#2",
            "ticks": 138830,
            "time": 157.18954442708332,
            "velocity": 0.3937007874015748
          },
          {
            "duration": 0.10869549999998185,
            "durationTicks": 96,
            "midi": 51,
            "name": "D#3",
            "ticks": 138926,
            "time": 157.29823992708333,
            "velocity": 0.3937007874015748
          },
          {
            "duration": 0.10869549999998185,
            "durationTicks": 96,
            "midi": 39,
            "name": "D#2",
            "ticks": 138926,
            "time": 157.29823992708333,
            "velocity": 0.3937007874015748
          },
          {
            "duration": 0.10869549999998185,
            "durationTicks": 96,
            "midi": 75,
            "name": "D#5",
            "ticks": 138926,
            "time": 157.29823992708333,
            "velocity": 0.3937007874015748
          },
          {
            "duration": 0.10869549999998185,
            "durationTicks": 96,
            "midi": 63,
            "name": "D#4",
            "ticks": 138926,
            "time": 157.29823992708333,
            "velocity": 0.3937007874015748
          },
          {
            "duration": 0.10869550000001027,
            "durationTicks": 96,
            "midi": 27,
            "name": "D#1",
            "ticks": 139022,
            "time": 157.4069354270833,
            "velocity": 0.3937007874015748
          },
          {
            "duration": 0.21739100000002054,
            "durationTicks": 192,
            "midi": 34,
            "name": "A#1",
            "ticks": 139022,
            "time": 157.4069354270833,
            "velocity": 0.3937007874015748
          },
          {
            "duration": 0.10869550000001027,
            "durationTicks": 96,
            "midi": 39,
            "name": "D#2",
            "ticks": 139022,
            "time": 157.4069354270833,
            "velocity": 0.3937007874015748
          },
          {
            "duration": 0.10869550000001027,
            "durationTicks": 96,
            "midi": 63,
            "name": "D#4",
            "ticks": 139022,
            "time": 157.4069354270833,
            "velocity": 0.3937007874015748
          },
          {
            "duration": 0.21739100000002054,
            "durationTicks": 192,
            "midi": 63,
            "name": "D#4",
            "ticks": 139022,
            "time": 157.4069354270833,
            "velocity": 0.3937007874015748
          },
          {
            "duration": 0.43478200000001266,
            "durationTicks": 384,
            "midi": 58,
            "name": "A#3",
            "ticks": 139022,
            "time": 157.4069354270833,
            "velocity": 0.3937007874015748
          },
          {
            "duration": 0.43478200000001266,
            "durationTicks": 384,
            "midi": 54,
            "name": "F#3",
            "ticks": 139022,
            "time": 157.4069354270833,
            "velocity": 0.3937007874015748
          },
          {
            "duration": 0.10869550000001027,
            "durationTicks": 96,
            "midi": 51,
            "name": "D#3",
            "ticks": 139022,
            "time": 157.4069354270833,
            "velocity": 0.3937007874015748
          },
          {
            "duration": 0.10869550000001027,
            "durationTicks": 96,
            "midi": 39,
            "name": "D#2",
            "ticks": 139118,
            "time": 157.51563092708332,
            "velocity": 0.3937007874015748
          },
          {
            "duration": 0.10869550000001027,
            "durationTicks": 96,
            "midi": 51,
            "name": "D#3",
            "ticks": 139118,
            "time": 157.51563092708332,
            "velocity": 0.3937007874015748
          },
          {
            "duration": 0.10869550000001027,
            "durationTicks": 96,
            "midi": 75,
            "name": "D#5",
            "ticks": 139118,
            "time": 157.51563092708332,
            "velocity": 0.3937007874015748
          },
          {
            "duration": 0.3260865000000024,
            "durationTicks": 288,
            "midi": 63,
            "name": "D#4",
            "ticks": 139118,
            "time": 157.51563092708332,
            "velocity": 0.3937007874015748
          },
          {
            "duration": 0.10869549999998185,
            "durationTicks": 96,
            "midi": 49,
            "name": "C#3",
            "ticks": 139214,
            "time": 157.62432642708333,
            "velocity": 0.3937007874015748
          },
          {
            "duration": 0.10869549999998185,
            "durationTicks": 96,
            "midi": 61,
            "name": "C#4",
            "ticks": 139214,
            "time": 157.62432642708333,
            "velocity": 0.3937007874015748
          },
          {
            "duration": 0.10869549999998185,
            "durationTicks": 96,
            "midi": 37,
            "name": "C#2",
            "ticks": 139214,
            "time": 157.62432642708333,
            "velocity": 0.3937007874015748
          },
          {
            "duration": 0.10869549999998185,
            "durationTicks": 96,
            "midi": 73,
            "name": "C#5",
            "ticks": 139214,
            "time": 157.62432642708333,
            "velocity": 0.3937007874015748
          },
          {
            "duration": 0.10869550000001027,
            "durationTicks": 96,
            "midi": 75,
            "name": "D#5",
            "ticks": 139310,
            "time": 157.7330219270833,
            "velocity": 0.3937007874015748
          },
          {
            "duration": 0.10869550000001027,
            "durationTicks": 96,
            "midi": 51,
            "name": "D#3",
            "ticks": 139310,
            "time": 157.7330219270833,
            "velocity": 0.3937007874015748
          },
          {
            "duration": 0.10869550000001027,
            "durationTicks": 96,
            "midi": 63,
            "name": "D#4",
            "ticks": 139310,
            "time": 157.7330219270833,
            "velocity": 0.3937007874015748
          },
          {
            "duration": 0.10869550000001027,
            "durationTicks": 96,
            "midi": 39,
            "name": "D#2",
            "ticks": 139310,
            "time": 157.7330219270833,
            "velocity": 0.3937007874015748
          },
          {
            "duration": 0.10869550000001027,
            "durationTicks": 96,
            "midi": 63,
            "name": "D#4",
            "ticks": 139406,
            "time": 157.84171742708332,
            "velocity": 0.3937007874015748
          },
          {
            "duration": 0.21739099999999212,
            "durationTicks": 192,
            "midi": 34,
            "name": "A#1",
            "ticks": 139406,
            "time": 157.84171742708332,
            "velocity": 0.3937007874015748
          },
          {
            "duration": 0.43478200000001266,
            "durationTicks": 384,
            "midi": 58,
            "name": "A#3",
            "ticks": 139406,
            "time": 157.84171742708332,
            "velocity": 0.3937007874015748
          },
          {
            "duration": 0.10869550000001027,
            "durationTicks": 96,
            "midi": 39,
            "name": "D#2",
            "ticks": 139406,
            "time": 157.84171742708332,
            "velocity": 0.3937007874015748
          },
          {
            "duration": 0.10869550000001027,
            "durationTicks": 96,
            "midi": 27,
            "name": "D#1",
            "ticks": 139406,
            "time": 157.84171742708332,
            "velocity": 0.3937007874015748
          },
          {
            "duration": 0.3260865000000024,
            "durationTicks": 288,
            "midi": 63,
            "name": "D#4",
            "ticks": 139406,
            "time": 157.84171742708332,
            "velocity": 0.3937007874015748
          },
          {
            "duration": 0.43478200000001266,
            "durationTicks": 384,
            "midi": 54,
            "name": "F#3",
            "ticks": 139406,
            "time": 157.84171742708332,
            "velocity": 0.3937007874015748
          },
          {
            "duration": 0.10869550000001027,
            "durationTicks": 96,
            "midi": 51,
            "name": "D#3",
            "ticks": 139406,
            "time": 157.84171742708332,
            "velocity": 0.3937007874015748
          },
          {
            "duration": 0.21739100000002054,
            "durationTicks": 192,
            "midi": 63,
            "name": "D#4",
            "ticks": 139598,
            "time": 158.05910842708332,
            "velocity": 0.3937007874015748
          },
          {
            "duration": 0.10869550000001027,
            "durationTicks": 96,
            "midi": 51,
            "name": "D#3",
            "ticks": 139598,
            "time": 158.05910842708332,
            "velocity": 0.3937007874015748
          },
          {
            "duration": 0.10869550000001027,
            "durationTicks": 96,
            "midi": 75,
            "name": "D#5",
            "ticks": 139598,
            "time": 158.05910842708332,
            "velocity": 0.3937007874015748
          },
          {
            "duration": 0.10869550000001027,
            "durationTicks": 96,
            "midi": 39,
            "name": "D#2",
            "ticks": 139598,
            "time": 158.05910842708332,
            "velocity": 0.3937007874015748
          },
          {
            "duration": 0.10869550000001027,
            "durationTicks": 96,
            "midi": 39,
            "name": "D#2",
            "ticks": 139694,
            "time": 158.16780392708333,
            "velocity": 0.3937007874015748
          },
          {
            "duration": 0.10869550000001027,
            "durationTicks": 96,
            "midi": 63,
            "name": "D#4",
            "ticks": 139694,
            "time": 158.16780392708333,
            "velocity": 0.3937007874015748
          },
          {
            "duration": 0.10869550000001027,
            "durationTicks": 96,
            "midi": 75,
            "name": "D#5",
            "ticks": 139694,
            "time": 158.16780392708333,
            "velocity": 0.3937007874015748
          },
          {
            "duration": 0.10869550000001027,
            "durationTicks": 96,
            "midi": 51,
            "name": "D#3",
            "ticks": 139694,
            "time": 158.16780392708333,
            "velocity": 0.3937007874015748
          },
          {
            "duration": 0.43478199999998424,
            "durationTicks": 384,
            "midi": 58,
            "name": "A#3",
            "ticks": 139790,
            "time": 158.27649942708334,
            "velocity": 0.3937007874015748
          },
          {
            "duration": 0.10869549999998185,
            "durationTicks": 96,
            "midi": 27,
            "name": "D#1",
            "ticks": 139790,
            "time": 158.27649942708334,
            "velocity": 0.3937007874015748
          },
          {
            "duration": 0.10869549999998185,
            "durationTicks": 96,
            "midi": 39,
            "name": "D#2",
            "ticks": 139790,
            "time": 158.27649942708334,
            "velocity": 0.3937007874015748
          },
          {
            "duration": 0.10869549999998185,
            "durationTicks": 96,
            "midi": 63,
            "name": "D#4",
            "ticks": 139790,
            "time": 158.27649942708334,
            "velocity": 0.3937007874015748
          },
          {
            "duration": 0.21739099999999212,
            "durationTicks": 192,
            "midi": 63,
            "name": "D#4",
            "ticks": 139790,
            "time": 158.27649942708334,
            "velocity": 0.3937007874015748
          },
          {
            "duration": 0.21739099999999212,
            "durationTicks": 192,
            "midi": 34,
            "name": "A#1",
            "ticks": 139790,
            "time": 158.27649942708334,
            "velocity": 0.3937007874015748
          },
          {
            "duration": 0.10869549999998185,
            "durationTicks": 96,
            "midi": 51,
            "name": "D#3",
            "ticks": 139790,
            "time": 158.27649942708334,
            "velocity": 0.3937007874015748
          },
          {
            "duration": 0.43478199999998424,
            "durationTicks": 384,
            "midi": 54,
            "name": "F#3",
            "ticks": 139790,
            "time": 158.27649942708334,
            "velocity": 0.3937007874015748
          },
          {
            "duration": 0.10869550000001027,
            "durationTicks": 96,
            "midi": 75,
            "name": "D#5",
            "ticks": 139886,
            "time": 158.38519492708332,
            "velocity": 0.3937007874015748
          },
          {
            "duration": 0.10869550000001027,
            "durationTicks": 96,
            "midi": 39,
            "name": "D#2",
            "ticks": 139886,
            "time": 158.38519492708332,
            "velocity": 0.3937007874015748
          },
          {
            "duration": 0.10869550000001027,
            "durationTicks": 96,
            "midi": 51,
            "name": "D#3",
            "ticks": 139886,
            "time": 158.38519492708332,
            "velocity": 0.3937007874015748
          },
          {
            "duration": 0.3260865000000024,
            "durationTicks": 288,
            "midi": 63,
            "name": "D#4",
            "ticks": 139886,
            "time": 158.38519492708332,
            "velocity": 0.3937007874015748
          },
          {
            "duration": 0.10869550000001027,
            "durationTicks": 96,
            "midi": 37,
            "name": "C#2",
            "ticks": 139982,
            "time": 158.49389042708333,
            "velocity": 0.3937007874015748
          },
          {
            "duration": 0.10869550000001027,
            "durationTicks": 96,
            "midi": 61,
            "name": "C#4",
            "ticks": 139982,
            "time": 158.49389042708333,
            "velocity": 0.3937007874015748
          },
          {
            "duration": 0.10869550000001027,
            "durationTicks": 96,
            "midi": 49,
            "name": "C#3",
            "ticks": 139982,
            "time": 158.49389042708333,
            "velocity": 0.3937007874015748
          },
          {
            "duration": 0.10869550000001027,
            "durationTicks": 96,
            "midi": 73,
            "name": "C#5",
            "ticks": 139982,
            "time": 158.49389042708333,
            "velocity": 0.3937007874015748
          },
          {
            "duration": 0.10869549999998185,
            "durationTicks": 96,
            "midi": 51,
            "name": "D#3",
            "ticks": 140078,
            "time": 158.60258592708334,
            "velocity": 0.3937007874015748
          },
          {
            "duration": 0.10869549999998185,
            "durationTicks": 96,
            "midi": 63,
            "name": "D#4",
            "ticks": 140078,
            "time": 158.60258592708334,
            "velocity": 0.3937007874015748
          },
          {
            "duration": 0.10869549999998185,
            "durationTicks": 96,
            "midi": 39,
            "name": "D#2",
            "ticks": 140078,
            "time": 158.60258592708334,
            "velocity": 0.3937007874015748
          },
          {
            "duration": 0.10869549999998185,
            "durationTicks": 96,
            "midi": 75,
            "name": "D#5",
            "ticks": 140078,
            "time": 158.60258592708334,
            "velocity": 0.3937007874015748
          },
          {
            "duration": 0.10869550000001027,
            "durationTicks": 96,
            "midi": 51,
            "name": "D#3",
            "ticks": 140174,
            "time": 158.71128142708332,
            "velocity": 0.3937007874015748
          },
          {
            "duration": 0.10869550000001027,
            "durationTicks": 96,
            "midi": 63,
            "name": "D#4",
            "ticks": 140174,
            "time": 158.71128142708332,
            "velocity": 0.3937007874015748
          },
          {
            "duration": 0.10869550000001027,
            "durationTicks": 96,
            "midi": 27,
            "name": "D#1",
            "ticks": 140174,
            "time": 158.71128142708332,
            "velocity": 0.3937007874015748
          },
          {
            "duration": 0.21739099999999212,
            "durationTicks": 192,
            "midi": 34,
            "name": "A#1",
            "ticks": 140174,
            "time": 158.71128142708332,
            "velocity": 0.3937007874015748
          },
          {
            "duration": 0.10869550000001027,
            "durationTicks": 96,
            "midi": 39,
            "name": "D#2",
            "ticks": 140174,
            "time": 158.71128142708332,
            "velocity": 0.3937007874015748
          },
          {
            "duration": 0.43478200000001266,
            "durationTicks": 384,
            "midi": 58,
            "name": "A#3",
            "ticks": 140174,
            "time": 158.71128142708332,
            "velocity": 0.3937007874015748
          },
          {
            "duration": 0.43478200000001266,
            "durationTicks": 384,
            "midi": 54,
            "name": "F#3",
            "ticks": 140174,
            "time": 158.71128142708332,
            "velocity": 0.3937007874015748
          },
          {
            "duration": 0.3260865000000024,
            "durationTicks": 288,
            "midi": 63,
            "name": "D#4",
            "ticks": 140174,
            "time": 158.71128142708332,
            "velocity": 0.3937007874015748
          },
          {
            "duration": 0.21739100000002054,
            "durationTicks": 192,
            "midi": 63,
            "name": "D#4",
            "ticks": 140366,
            "time": 158.9286724270833,
            "velocity": 0.3937007874015748
          },
          {
            "duration": 0.10869550000001027,
            "durationTicks": 96,
            "midi": 39,
            "name": "D#2",
            "ticks": 140366,
            "time": 158.9286724270833,
            "velocity": 0.3937007874015748
          },
          {
            "duration": 0.10869550000001027,
            "durationTicks": 96,
            "midi": 75,
            "name": "D#5",
            "ticks": 140366,
            "time": 158.9286724270833,
            "velocity": 0.3937007874015748
          },
          {
            "duration": 0.10869550000001027,
            "durationTicks": 96,
            "midi": 51,
            "name": "D#3",
            "ticks": 140366,
            "time": 158.9286724270833,
            "velocity": 0.3937007874015748
          },
          {
            "duration": 0.10869550000001027,
            "durationTicks": 96,
            "midi": 75,
            "name": "D#5",
            "ticks": 140462,
            "time": 159.03736792708332,
            "velocity": 0.3937007874015748
          },
          {
            "duration": 0.10869550000001027,
            "durationTicks": 96,
            "midi": 39,
            "name": "D#2",
            "ticks": 140462,
            "time": 159.03736792708332,
            "velocity": 0.3937007874015748
          },
          {
            "duration": 0.10869550000001027,
            "durationTicks": 96,
            "midi": 63,
            "name": "D#4",
            "ticks": 140462,
            "time": 159.03736792708332,
            "velocity": 0.3937007874015748
          },
          {
            "duration": 0.10869550000001027,
            "durationTicks": 96,
            "midi": 51,
            "name": "D#3",
            "ticks": 140462,
            "time": 159.03736792708332,
            "velocity": 0.3937007874015748
          },
          {
            "duration": 0.43478199999998424,
            "durationTicks": 384,
            "midi": 58,
            "name": "A#3",
            "ticks": 140558,
            "time": 159.14606342708333,
            "velocity": 0.3937007874015748
          },
          {
            "duration": 0.10869549999998185,
            "durationTicks": 96,
            "midi": 63,
            "name": "D#4",
            "ticks": 140558,
            "time": 159.14606342708333,
            "velocity": 0.3937007874015748
          },
          {
            "duration": 0.21739099999999212,
            "durationTicks": 192,
            "midi": 63,
            "name": "D#4",
            "ticks": 140558,
            "time": 159.14606342708333,
            "velocity": 0.3937007874015748
          },
          {
            "duration": 0.10869549999998185,
            "durationTicks": 96,
            "midi": 39,
            "name": "D#2",
            "ticks": 140558,
            "time": 159.14606342708333,
            "velocity": 0.3937007874015748
          },
          {
            "duration": 0.10869549999998185,
            "durationTicks": 96,
            "midi": 27,
            "name": "D#1",
            "ticks": 140558,
            "time": 159.14606342708333,
            "velocity": 0.3937007874015748
          },
          {
            "duration": 0.21739099999999212,
            "durationTicks": 192,
            "midi": 34,
            "name": "A#1",
            "ticks": 140558,
            "time": 159.14606342708333,
            "velocity": 0.3937007874015748
          },
          {
            "duration": 0.43478199999998424,
            "durationTicks": 384,
            "midi": 54,
            "name": "F#3",
            "ticks": 140558,
            "time": 159.14606342708333,
            "velocity": 0.3937007874015748
          },
          {
            "duration": 0.10869549999998185,
            "durationTicks": 96,
            "midi": 51,
            "name": "D#3",
            "ticks": 140558,
            "time": 159.14606342708333,
            "velocity": 0.3937007874015748
          },
          {
            "duration": 0.3260865000000024,
            "durationTicks": 288,
            "midi": 63,
            "name": "D#4",
            "ticks": 140654,
            "time": 159.25475892708332,
            "velocity": 0.3937007874015748
          },
          {
            "duration": 0.10869550000001027,
            "durationTicks": 96,
            "midi": 51,
            "name": "D#3",
            "ticks": 140654,
            "time": 159.25475892708332,
            "velocity": 0.3937007874015748
          },
          {
            "duration": 0.10869550000001027,
            "durationTicks": 96,
            "midi": 39,
            "name": "D#2",
            "ticks": 140654,
            "time": 159.25475892708332,
            "velocity": 0.3937007874015748
          },
          {
            "duration": 0.10869550000001027,
            "durationTicks": 96,
            "midi": 75,
            "name": "D#5",
            "ticks": 140654,
            "time": 159.25475892708332,
            "velocity": 0.3937007874015748
          },
          {
            "duration": 0.10869550000001027,
            "durationTicks": 96,
            "midi": 61,
            "name": "C#4",
            "ticks": 140750,
            "time": 159.36345442708333,
            "velocity": 0.3937007874015748
          },
          {
            "duration": 0.10869550000001027,
            "durationTicks": 96,
            "midi": 37,
            "name": "C#2",
            "ticks": 140750,
            "time": 159.36345442708333,
            "velocity": 0.3937007874015748
          },
          {
            "duration": 0.10869550000001027,
            "durationTicks": 96,
            "midi": 49,
            "name": "C#3",
            "ticks": 140750,
            "time": 159.36345442708333,
            "velocity": 0.3937007874015748
          },
          {
            "duration": 0.10869550000001027,
            "durationTicks": 96,
            "midi": 73,
            "name": "C#5",
            "ticks": 140750,
            "time": 159.36345442708333,
            "velocity": 0.3937007874015748
          },
          {
            "duration": 0.10869549999998185,
            "durationTicks": 96,
            "midi": 63,
            "name": "D#4",
            "ticks": 140846,
            "time": 159.47214992708334,
            "velocity": 0.3937007874015748
          },
          {
            "duration": 0.10869549999998185,
            "durationTicks": 96,
            "midi": 51,
            "name": "D#3",
            "ticks": 140846,
            "time": 159.47214992708334,
            "velocity": 0.3937007874015748
          },
          {
            "duration": 0.10869549999998185,
            "durationTicks": 96,
            "midi": 75,
            "name": "D#5",
            "ticks": 140846,
            "time": 159.47214992708334,
            "velocity": 0.3937007874015748
          },
          {
            "duration": 0.10869549999998185,
            "durationTicks": 96,
            "midi": 39,
            "name": "D#2",
            "ticks": 140846,
            "time": 159.47214992708334,
            "velocity": 0.3937007874015748
          },
          {
            "duration": 0.10869550000001027,
            "durationTicks": 96,
            "midi": 44,
            "name": "G#2",
            "ticks": 140942,
            "time": 159.58084542708332,
            "velocity": 0.3937007874015748
          },
          {
            "duration": 0.10869550000001027,
            "durationTicks": 96,
            "midi": 68,
            "name": "G#4",
            "ticks": 140942,
            "time": 159.58084542708332,
            "velocity": 0.3937007874015748
          },
          {
            "duration": 0.10869550000001027,
            "durationTicks": 96,
            "midi": 56,
            "name": "G#3",
            "ticks": 140942,
            "time": 159.58084542708332,
            "velocity": 0.3937007874015748
          },
          {
            "duration": 0.10869550000001027,
            "durationTicks": 96,
            "midi": 63,
            "name": "D#4",
            "ticks": 140942,
            "time": 159.58084542708332,
            "velocity": 0.3937007874015748
          },
          {
            "duration": 0.10869550000001027,
            "durationTicks": 96,
            "midi": 56,
            "name": "G#3",
            "ticks": 140942,
            "time": 159.58084542708332,
            "velocity": 0.3937007874015748
          },
          {
            "duration": 0.10869550000001027,
            "durationTicks": 96,
            "midi": 80,
            "name": "G#5",
            "ticks": 140942,
            "time": 159.58084542708332,
            "velocity": 0.3937007874015748
          },
          {
            "duration": 0.10869550000001027,
            "durationTicks": 96,
            "midi": 59,
            "name": "B3",
            "ticks": 140942,
            "time": 159.58084542708332,
            "velocity": 0.3937007874015748
          },
          {
            "duration": 0.10869550000001027,
            "durationTicks": 96,
            "midi": 34,
            "name": "A#1",
            "ticks": 140942,
            "time": 159.58084542708332,
            "velocity": 0.3937007874015748
          },
          {
            "duration": 0.10869550000001027,
            "durationTicks": 96,
            "midi": 54,
            "name": "F#3",
            "ticks": 141070,
            "time": 159.72577276041667,
            "velocity": 0.3937007874015748
          },
          {
            "duration": 0.10869550000001027,
            "durationTicks": 96,
            "midi": 42,
            "name": "F#2",
            "ticks": 141070,
            "time": 159.72577276041667,
            "velocity": 0.3937007874015748
          },
          {
            "duration": 0.10869550000001027,
            "durationTicks": 96,
            "midi": 59,
            "name": "B3",
            "ticks": 141070,
            "time": 159.72577276041667,
            "velocity": 0.3937007874015748
          },
          {
            "duration": 0.10869550000001027,
            "durationTicks": 96,
            "midi": 34,
            "name": "A#1",
            "ticks": 141070,
            "time": 159.72577276041667,
            "velocity": 0.3937007874015748
          },
          {
            "duration": 0.10869550000001027,
            "durationTicks": 96,
            "midi": 78,
            "name": "F#5",
            "ticks": 141070,
            "time": 159.72577276041667,
            "velocity": 0.3937007874015748
          },
          {
            "duration": 0.10869550000001027,
            "durationTicks": 96,
            "midi": 66,
            "name": "F#4",
            "ticks": 141070,
            "time": 159.72577276041667,
            "velocity": 0.3937007874015748
          },
          {
            "duration": 0.10869550000001027,
            "durationTicks": 96,
            "midi": 56,
            "name": "G#3",
            "ticks": 141070,
            "time": 159.72577276041667,
            "velocity": 0.3937007874015748
          },
          {
            "duration": 0.10869550000001027,
            "durationTicks": 96,
            "midi": 63,
            "name": "D#4",
            "ticks": 141070,
            "time": 159.72577276041667,
            "velocity": 0.3937007874015748
          },
          {
            "duration": 0.10869549999998185,
            "durationTicks": 96,
            "midi": 44,
            "name": "G#2",
            "ticks": 141199,
            "time": 159.87183233854168,
            "velocity": 0.3937007874015748
          },
          {
            "duration": 0.10869549999998185,
            "durationTicks": 96,
            "midi": 63,
            "name": "D#4",
            "ticks": 141199,
            "time": 159.87183233854168,
            "velocity": 0.3937007874015748
          },
          {
            "duration": 0.10869549999998185,
            "durationTicks": 96,
            "midi": 56,
            "name": "G#3",
            "ticks": 141199,
            "time": 159.87183233854168,
            "velocity": 0.3937007874015748
          },
          {
            "duration": 0.10869549999998185,
            "durationTicks": 96,
            "midi": 80,
            "name": "G#5",
            "ticks": 141199,
            "time": 159.87183233854168,
            "velocity": 0.3937007874015748
          },
          {
            "duration": 0.10869549999998185,
            "durationTicks": 96,
            "midi": 34,
            "name": "A#1",
            "ticks": 141199,
            "time": 159.87183233854168,
            "velocity": 0.3937007874015748
          },
          {
            "duration": 0.10869549999998185,
            "durationTicks": 96,
            "midi": 56,
            "name": "G#3",
            "ticks": 141199,
            "time": 159.87183233854168,
            "velocity": 0.3937007874015748
          },
          {
            "duration": 0.10869549999998185,
            "durationTicks": 96,
            "midi": 68,
            "name": "G#4",
            "ticks": 141199,
            "time": 159.87183233854168,
            "velocity": 0.3937007874015748
          },
          {
            "duration": 0.10869549999998185,
            "durationTicks": 96,
            "midi": 59,
            "name": "B3",
            "ticks": 141199,
            "time": 159.87183233854168,
            "velocity": 0.3937007874015748
          },
          {
            "duration": 0.10869549999998185,
            "durationTicks": 96,
            "midi": 34,
            "name": "A#1",
            "ticks": 141327,
            "time": 160.016759671875,
            "velocity": 0.3937007874015748
          },
          {
            "duration": 0.10869549999998185,
            "durationTicks": 96,
            "midi": 58,
            "name": "A#3",
            "ticks": 141327,
            "time": 160.016759671875,
            "velocity": 0.3937007874015748
          },
          {
            "duration": 0.10869549999998185,
            "durationTicks": 96,
            "midi": 78,
            "name": "F#5",
            "ticks": 141327,
            "time": 160.016759671875,
            "velocity": 0.3937007874015748
          },
          {
            "duration": 0.10869549999998185,
            "durationTicks": 96,
            "midi": 61,
            "name": "C#4",
            "ticks": 141327,
            "time": 160.016759671875,
            "velocity": 0.3937007874015748
          },
          {
            "duration": 0.10869549999998185,
            "durationTicks": 96,
            "midi": 54,
            "name": "F#3",
            "ticks": 141327,
            "time": 160.016759671875,
            "velocity": 0.3937007874015748
          },
          {
            "duration": 0.10869549999998185,
            "durationTicks": 96,
            "midi": 66,
            "name": "F#4",
            "ticks": 141327,
            "time": 160.016759671875,
            "velocity": 0.3937007874015748
          },
          {
            "duration": 0.10869549999998185,
            "durationTicks": 96,
            "midi": 42,
            "name": "F#2",
            "ticks": 141327,
            "time": 160.016759671875,
            "velocity": 0.3937007874015748
          },
          {
            "duration": 0.10869549999998185,
            "durationTicks": 96,
            "midi": 54,
            "name": "F#3",
            "ticks": 141327,
            "time": 160.016759671875,
            "velocity": 0.3937007874015748
          },
          {
            "duration": 0.10869549999998185,
            "durationTicks": 96,
            "midi": 54,
            "name": "F#3",
            "ticks": 141455,
            "time": 160.16168700520834,
            "velocity": 0.3937007874015748
          },
          {
            "duration": 0.10869549999998185,
            "durationTicks": 96,
            "midi": 61,
            "name": "C#4",
            "ticks": 141455,
            "time": 160.16168700520834,
            "velocity": 0.3937007874015748
          },
          {
            "duration": 0.10869549999998185,
            "durationTicks": 96,
            "midi": 58,
            "name": "A#3",
            "ticks": 141455,
            "time": 160.16168700520834,
            "velocity": 0.3937007874015748
          },
          {
            "duration": 0.10869549999998185,
            "durationTicks": 96,
            "midi": 39,
            "name": "D#2",
            "ticks": 141455,
            "time": 160.16168700520834,
            "velocity": 0.3937007874015748
          },
          {
            "duration": 0.10869549999998185,
            "durationTicks": 96,
            "midi": 51,
            "name": "D#3",
            "ticks": 141455,
            "time": 160.16168700520834,
            "velocity": 0.3937007874015748
          },
          {
            "duration": 0.10869549999998185,
            "durationTicks": 96,
            "midi": 63,
            "name": "D#4",
            "ticks": 141455,
            "time": 160.16168700520834,
            "velocity": 0.3937007874015748
          },
          {
            "duration": 0.10869549999998185,
            "durationTicks": 96,
            "midi": 75,
            "name": "D#5",
            "ticks": 141455,
            "time": 160.16168700520834,
            "velocity": 0.3937007874015748
          },
          {
            "duration": 0.10869549999998185,
            "durationTicks": 96,
            "midi": 34,
            "name": "A#1",
            "ticks": 141455,
            "time": 160.16168700520834,
            "velocity": 0.3937007874015748
          },
          {
            "duration": 0.10869550000001027,
            "durationTicks": 96,
            "midi": 78,
            "name": "F#5",
            "ticks": 141584,
            "time": 160.3077465833333,
            "velocity": 0.3937007874015748
          },
          {
            "duration": 0.10869550000001027,
            "durationTicks": 96,
            "midi": 61,
            "name": "C#4",
            "ticks": 141584,
            "time": 160.3077465833333,
            "velocity": 0.3937007874015748
          },
          {
            "duration": 0.10869550000001027,
            "durationTicks": 96,
            "midi": 42,
            "name": "F#2",
            "ticks": 141584,
            "time": 160.3077465833333,
            "velocity": 0.3937007874015748
          },
          {
            "duration": 0.10869550000001027,
            "durationTicks": 96,
            "midi": 54,
            "name": "F#3",
            "ticks": 141584,
            "time": 160.3077465833333,
            "velocity": 0.3937007874015748
          },
          {
            "duration": 0.10869550000001027,
            "durationTicks": 96,
            "midi": 66,
            "name": "F#4",
            "ticks": 141584,
            "time": 160.3077465833333,
            "velocity": 0.3937007874015748
          },
          {
            "duration": 0.10869550000001027,
            "durationTicks": 96,
            "midi": 34,
            "name": "A#1",
            "ticks": 141584,
            "time": 160.3077465833333,
            "velocity": 0.3937007874015748
          },
          {
            "duration": 0.10869550000001027,
            "durationTicks": 96,
            "midi": 54,
            "name": "F#3",
            "ticks": 141584,
            "time": 160.3077465833333,
            "velocity": 0.3937007874015748
          },
          {
            "duration": 0.10869550000001027,
            "durationTicks": 96,
            "midi": 58,
            "name": "A#3",
            "ticks": 141584,
            "time": 160.3077465833333,
            "velocity": 0.3937007874015748
          },
          {
            "duration": 0.10869550000001027,
            "durationTicks": 96,
            "midi": 39,
            "name": "D#2",
            "ticks": 141712,
            "time": 160.45267391666667,
            "velocity": 0.3937007874015748
          },
          {
            "duration": 0.10869550000001027,
            "durationTicks": 96,
            "midi": 51,
            "name": "D#3",
            "ticks": 141712,
            "time": 160.45267391666667,
            "velocity": 0.3937007874015748
          },
          {
            "duration": 0.21739100000002054,
            "durationTicks": 192,
            "midi": 54,
            "name": "F#3",
            "ticks": 141712,
            "time": 160.45267391666667,
            "velocity": 0.3937007874015748
          },
          {
            "duration": 0.10869550000001027,
            "durationTicks": 96,
            "midi": 63,
            "name": "D#4",
            "ticks": 141712,
            "time": 160.45267391666667,
            "velocity": 0.3937007874015748
          },
          {
            "duration": 0.10869550000001027,
            "durationTicks": 96,
            "midi": 27,
            "name": "D#1",
            "ticks": 141712,
            "time": 160.45267391666667,
            "velocity": 0.3937007874015748
          },
          {
            "duration": 0.21739100000002054,
            "durationTicks": 192,
            "midi": 34,
            "name": "A#1",
            "ticks": 141712,
            "time": 160.45267391666667,
            "velocity": 0.3937007874015748
          },
          {
            "duration": 0.21739100000002054,
            "durationTicks": 192,
            "midi": 58,
            "name": "A#3",
            "ticks": 141712,
            "time": 160.45267391666667,
            "velocity": 0.3937007874015748
          },
          {
            "duration": 0.21739100000002054,
            "durationTicks": 192,
            "midi": 63,
            "name": "D#4",
            "ticks": 141712,
            "time": 160.45267391666667,
            "velocity": 0.3937007874015748
          },
          {
            "duration": 0.21739100000002054,
            "durationTicks": 192,
            "midi": 33,
            "name": "A1",
            "ticks": 141712,
            "time": 160.45267391666667,
            "velocity": 0.3937007874015748
          },
          {
            "duration": 0.21739100000002054,
            "durationTicks": 192,
            "midi": 33,
            "name": "A1",
            "ticks": 141712,
            "time": 160.45267391666667,
            "velocity": 0.3937007874015748
          },
          {
            "duration": 0.10869550000001027,
            "durationTicks": 96,
            "midi": 27,
            "name": "D#1",
            "ticks": 141808,
            "time": 160.56136941666668,
            "velocity": 0.3937007874015748
          },
          {
            "duration": 0.10869549999998185,
            "durationTicks": 96,
            "midi": 27,
            "name": "D#1",
            "ticks": 141904,
            "time": 160.6700649166667,
            "velocity": 0.3937007874015748
          },
          {
            "duration": 0.21739099999999212,
            "durationTicks": 192,
            "midi": 34,
            "name": "A#1",
            "ticks": 141904,
            "time": 160.6700649166667,
            "velocity": 0.3937007874015748
          },
          {
            "duration": 0.10869549999998185,
            "durationTicks": 96,
            "midi": 63,
            "name": "D#4",
            "ticks": 141904,
            "time": 160.6700649166667,
            "velocity": 0.3937007874015748
          },
          {
            "duration": 0.10869549999998185,
            "durationTicks": 96,
            "midi": 51,
            "name": "D#3",
            "ticks": 141904,
            "time": 160.6700649166667,
            "velocity": 0.3937007874015748
          },
          {
            "duration": 0.21739099999999212,
            "durationTicks": 192,
            "midi": 58,
            "name": "A#3",
            "ticks": 141904,
            "time": 160.6700649166667,
            "velocity": 0.3937007874015748
          },
          {
            "duration": 0.10869549999998185,
            "durationTicks": 96,
            "midi": 75,
            "name": "D#5",
            "ticks": 141904,
            "time": 160.6700649166667,
            "velocity": 0.3937007874015748
          },
          {
            "duration": 0.21739099999999212,
            "durationTicks": 192,
            "midi": 34,
            "name": "A#1",
            "ticks": 141904,
            "time": 160.6700649166667,
            "velocity": 0.3937007874015748
          },
          {
            "duration": 0.21739099999999212,
            "durationTicks": 192,
            "midi": 54,
            "name": "F#3",
            "ticks": 141904,
            "time": 160.6700649166667,
            "velocity": 0.3937007874015748
          },
          {
            "duration": 0.21739099999999212,
            "durationTicks": 192,
            "midi": 63,
            "name": "D#4",
            "ticks": 141904,
            "time": 160.6700649166667,
            "velocity": 0.3937007874015748
          },
          {
            "duration": 0.10869549999998185,
            "durationTicks": 96,
            "midi": 39,
            "name": "D#2",
            "ticks": 141904,
            "time": 160.6700649166667,
            "velocity": 0.3937007874015748
          },
          {
            "duration": 0.10869550000001027,
            "durationTicks": 96,
            "midi": 27,
            "name": "D#1",
            "ticks": 142000,
            "time": 160.77876041666667,
            "velocity": 0.3937007874015748
          },
          {
            "duration": 0.10869550000001027,
            "durationTicks": 96,
            "midi": 63,
            "name": "D#4",
            "ticks": 142000,
            "time": 160.77876041666667,
            "velocity": 0.3937007874015748
          },
          {
            "duration": 0.10869550000001027,
            "durationTicks": 96,
            "midi": 39,
            "name": "D#2",
            "ticks": 142000,
            "time": 160.77876041666667,
            "velocity": 0.3937007874015748
          },
          {
            "duration": 0.10869550000001027,
            "durationTicks": 96,
            "midi": 75,
            "name": "D#5",
            "ticks": 142000,
            "time": 160.77876041666667,
            "velocity": 0.3937007874015748
          },
          {
            "duration": 0.10869550000001027,
            "durationTicks": 96,
            "midi": 51,
            "name": "D#3",
            "ticks": 142000,
            "time": 160.77876041666667,
            "velocity": 0.3937007874015748
          },
          {
            "duration": 0.10869549999998185,
            "durationTicks": 96,
            "midi": 63,
            "name": "D#4",
            "ticks": 142096,
            "time": 160.88745591666668,
            "velocity": 0.3937007874015748
          },
          {
            "duration": 0.21739099999999212,
            "durationTicks": 192,
            "midi": 58,
            "name": "A#3",
            "ticks": 142096,
            "time": 160.88745591666668,
            "velocity": 0.3937007874015748
          },
          {
            "duration": 0.10869549999998185,
            "durationTicks": 96,
            "midi": 51,
            "name": "D#3",
            "ticks": 142096,
            "time": 160.88745591666668,
            "velocity": 0.3937007874015748
          },
          {
            "duration": 0.10869549999998185,
            "durationTicks": 96,
            "midi": 27,
            "name": "D#1",
            "ticks": 142096,
            "time": 160.88745591666668,
            "velocity": 0.3937007874015748
          },
          {
            "duration": 0.21739099999999212,
            "durationTicks": 192,
            "midi": 34,
            "name": "A#1",
            "ticks": 142096,
            "time": 160.88745591666668,
            "velocity": 0.3937007874015748
          },
          {
            "duration": 0.21739099999999212,
            "durationTicks": 192,
            "midi": 63,
            "name": "D#4",
            "ticks": 142096,
            "time": 160.88745591666668,
            "velocity": 0.3937007874015748
          },
          {
            "duration": 0.21739099999999212,
            "durationTicks": 192,
            "midi": 54,
            "name": "F#3",
            "ticks": 142096,
            "time": 160.88745591666668,
            "velocity": 0.3937007874015748
          },
          {
            "duration": 0.21739099999999212,
            "durationTicks": 192,
            "midi": 35,
            "name": "B1",
            "ticks": 142096,
            "time": 160.88745591666668,
            "velocity": 0.3937007874015748
          },
          {
            "duration": 0.10869549999998185,
            "durationTicks": 96,
            "midi": 39,
            "name": "D#2",
            "ticks": 142096,
            "time": 160.88745591666668,
            "velocity": 0.3937007874015748
          },
          {
            "duration": 0.21739099999999212,
            "durationTicks": 192,
            "midi": 35,
            "name": "B1",
            "ticks": 142096,
            "time": 160.88745591666668,
            "velocity": 0.3937007874015748
          },
          {
            "duration": 0.10869550000001027,
            "durationTicks": 96,
            "midi": 39,
            "name": "D#2",
            "ticks": 142192,
            "time": 160.99615141666666,
            "velocity": 0.3937007874015748
          },
          {
            "duration": 0.10869550000001027,
            "durationTicks": 96,
            "midi": 27,
            "name": "D#1",
            "ticks": 142192,
            "time": 160.99615141666666,
            "velocity": 0.3937007874015748
          },
          {
            "duration": 0.10869550000001027,
            "durationTicks": 96,
            "midi": 51,
            "name": "D#3",
            "ticks": 142192,
            "time": 160.99615141666666,
            "velocity": 0.3937007874015748
          },
          {
            "duration": 0.10869550000001027,
            "durationTicks": 96,
            "midi": 63,
            "name": "D#4",
            "ticks": 142192,
            "time": 160.99615141666666,
            "velocity": 0.3937007874015748
          },
          {
            "duration": 0.10869550000001027,
            "durationTicks": 96,
            "midi": 75,
            "name": "D#5",
            "ticks": 142192,
            "time": 160.99615141666666,
            "velocity": 0.3937007874015748
          },
          {
            "duration": 0.21739099999999212,
            "durationTicks": 192,
            "midi": 54,
            "name": "F#3",
            "ticks": 142288,
            "time": 161.10484691666667,
            "velocity": 0.3937007874015748
          },
          {
            "duration": 0.21739099999999212,
            "durationTicks": 192,
            "midi": 58,
            "name": "A#3",
            "ticks": 142288,
            "time": 161.10484691666667,
            "velocity": 0.3937007874015748
          },
          {
            "duration": 0.21739099999999212,
            "durationTicks": 192,
            "midi": 63,
            "name": "D#4",
            "ticks": 142288,
            "time": 161.10484691666667,
            "velocity": 0.3937007874015748
          },
          {
            "duration": 0.10869550000001027,
            "durationTicks": 96,
            "midi": 37,
            "name": "C#2",
            "ticks": 142288,
            "time": 161.10484691666667,
            "velocity": 0.3937007874015748
          },
          {
            "duration": 0.10869550000001027,
            "durationTicks": 96,
            "midi": 73,
            "name": "C#5",
            "ticks": 142288,
            "time": 161.10484691666667,
            "velocity": 0.3937007874015748
          },
          {
            "duration": 0.21739099999999212,
            "durationTicks": 192,
            "midi": 36,
            "name": "C2",
            "ticks": 142288,
            "time": 161.10484691666667,
            "velocity": 0.3937007874015748
          },
          {
            "duration": 0.10869550000001027,
            "durationTicks": 96,
            "midi": 61,
            "name": "C#4",
            "ticks": 142288,
            "time": 161.10484691666667,
            "velocity": 0.3937007874015748
          },
          {
            "duration": 0.21739099999999212,
            "durationTicks": 192,
            "midi": 24,
            "name": "C1",
            "ticks": 142288,
            "time": 161.10484691666667,
            "velocity": 0.3937007874015748
          },
          {
            "duration": 0.10869550000001027,
            "durationTicks": 96,
            "midi": 27,
            "name": "D#1",
            "ticks": 142288,
            "time": 161.10484691666667,
            "velocity": 0.3937007874015748
          },
          {
            "duration": 0.10869550000001027,
            "durationTicks": 96,
            "midi": 49,
            "name": "C#3",
            "ticks": 142288,
            "time": 161.10484691666667,
            "velocity": 0.3937007874015748
          },
          {
            "duration": 0.10869549999998185,
            "durationTicks": 96,
            "midi": 51,
            "name": "D#3",
            "ticks": 142384,
            "time": 161.21354241666668,
            "velocity": 0.3937007874015748
          },
          {
            "duration": 0.10869549999998185,
            "durationTicks": 96,
            "midi": 27,
            "name": "D#1",
            "ticks": 142384,
            "time": 161.21354241666668,
            "velocity": 0.3937007874015748
          },
          {
            "duration": 0.10869549999998185,
            "durationTicks": 96,
            "midi": 75,
            "name": "D#5",
            "ticks": 142384,
            "time": 161.21354241666668,
            "velocity": 0.3937007874015748
          },
          {
            "duration": 0.10869549999998185,
            "durationTicks": 96,
            "midi": 63,
            "name": "D#4",
            "ticks": 142384,
            "time": 161.21354241666668,
            "velocity": 0.3937007874015748
          },
          {
            "duration": 0.10869549999998185,
            "durationTicks": 96,
            "midi": 39,
            "name": "D#2",
            "ticks": 142384,
            "time": 161.21354241666668,
            "velocity": 0.3937007874015748
          },
          {
            "duration": 0.10869550000001027,
            "durationTicks": 96,
            "midi": 25,
            "name": "C#1",
            "ticks": 142480,
            "time": 161.32223791666667,
            "velocity": 0.3937007874015748
          },
          {
            "duration": 0.21739100000002054,
            "durationTicks": 192,
            "midi": 54,
            "name": "F#3",
            "ticks": 142480,
            "time": 161.32223791666667,
            "velocity": 0.3937007874015748
          },
          {
            "duration": 0.21739100000002054,
            "durationTicks": 192,
            "midi": 58,
            "name": "A#3",
            "ticks": 142480,
            "time": 161.32223791666667,
            "velocity": 0.3937007874015748
          },
          {
            "duration": 0.10869550000001027,
            "durationTicks": 96,
            "midi": 51,
            "name": "D#3",
            "ticks": 142480,
            "time": 161.32223791666667,
            "velocity": 0.3937007874015748
          },
          {
            "duration": 0.10869550000001027,
            "durationTicks": 96,
            "midi": 63,
            "name": "D#4",
            "ticks": 142480,
            "time": 161.32223791666667,
            "velocity": 0.3937007874015748
          },
          {
            "duration": 0.21739100000002054,
            "durationTicks": 192,
            "midi": 34,
            "name": "A#1",
            "ticks": 142480,
            "time": 161.32223791666667,
            "velocity": 0.3937007874015748
          },
          {
            "duration": 0.21739100000002054,
            "durationTicks": 192,
            "midi": 37,
            "name": "C#2",
            "ticks": 142480,
            "time": 161.32223791666667,
            "velocity": 0.3937007874015748
          },
          {
            "duration": 0.21739100000002054,
            "durationTicks": 192,
            "midi": 63,
            "name": "D#4",
            "ticks": 142480,
            "time": 161.32223791666667,
            "velocity": 0.3937007874015748
          },
          {
            "duration": 0.10869550000001027,
            "durationTicks": 96,
            "midi": 27,
            "name": "D#1",
            "ticks": 142480,
            "time": 161.32223791666667,
            "velocity": 0.3937007874015748
          },
          {
            "duration": 0.10869550000001027,
            "durationTicks": 96,
            "midi": 39,
            "name": "D#2",
            "ticks": 142480,
            "time": 161.32223791666667,
            "velocity": 0.3937007874015748
          },
          {
            "duration": 0.10869550000001027,
            "durationTicks": 96,
            "midi": 26,
            "name": "D1",
            "ticks": 142576,
            "time": 161.43093341666668,
            "velocity": 0.3937007874015748
          },
          {
            "duration": 0.10869550000001027,
            "durationTicks": 96,
            "midi": 27,
            "name": "D#1",
            "ticks": 142576,
            "time": 161.43093341666668,
            "velocity": 0.3937007874015748
          },
          {
            "duration": 0.10869549999998185,
            "durationTicks": 96,
            "midi": 27,
            "name": "D#1",
            "ticks": 142672,
            "time": 161.5396289166667,
            "velocity": 0.3937007874015748
          },
          {
            "duration": 0.10869549999998185,
            "durationTicks": 96,
            "midi": 75,
            "name": "D#5",
            "ticks": 142672,
            "time": 161.5396289166667,
            "velocity": 0.3937007874015748
          },
          {
            "duration": 0.10869549999998185,
            "durationTicks": 96,
            "midi": 63,
            "name": "D#4",
            "ticks": 142672,
            "time": 161.5396289166667,
            "velocity": 0.3937007874015748
          },
          {
            "duration": 0.21739099999999212,
            "durationTicks": 192,
            "midi": 63,
            "name": "D#4",
            "ticks": 142672,
            "time": 161.5396289166667,
            "velocity": 0.3937007874015748
          },
          {
            "duration": 0.10869549999998185,
            "durationTicks": 96,
            "midi": 51,
            "name": "D#3",
            "ticks": 142672,
            "time": 161.5396289166667,
            "velocity": 0.3937007874015748
          },
          {
            "duration": 0.21739099999999212,
            "durationTicks": 192,
            "midi": 58,
            "name": "A#3",
            "ticks": 142672,
            "time": 161.5396289166667,
            "velocity": 0.3937007874015748
          },
          {
            "duration": 0.21739099999999212,
            "durationTicks": 192,
            "midi": 54,
            "name": "F#3",
            "ticks": 142672,
            "time": 161.5396289166667,
            "velocity": 0.3937007874015748
          },
          {
            "duration": 0.10869549999998185,
            "durationTicks": 96,
            "midi": 39,
            "name": "D#2",
            "ticks": 142672,
            "time": 161.5396289166667,
            "velocity": 0.3937007874015748
          },
          {
            "duration": 0.10869549999998185,
            "durationTicks": 96,
            "midi": 27,
            "name": "D#1",
            "ticks": 142672,
            "time": 161.5396289166667,
            "velocity": 0.3937007874015748
          },
          {
            "duration": 0.21739099999999212,
            "durationTicks": 192,
            "midi": 38,
            "name": "D2",
            "ticks": 142672,
            "time": 161.5396289166667,
            "velocity": 0.3937007874015748
          },
          {
            "duration": 0.10869550000001027,
            "durationTicks": 96,
            "midi": 51,
            "name": "D#3",
            "ticks": 142768,
            "time": 161.64832441666667,
            "velocity": 0.3937007874015748
          },
          {
            "duration": 0.10869550000001027,
            "durationTicks": 96,
            "midi": 27,
            "name": "D#1",
            "ticks": 142768,
            "time": 161.64832441666667,
            "velocity": 0.3937007874015748
          },
          {
            "duration": 0.10869550000001027,
            "durationTicks": 96,
            "midi": 75,
            "name": "D#5",
            "ticks": 142768,
            "time": 161.64832441666667,
            "velocity": 0.3937007874015748
          },
          {
            "duration": 0.10869550000001027,
            "durationTicks": 96,
            "midi": 28,
            "name": "E1",
            "ticks": 142768,
            "time": 161.64832441666667,
            "velocity": 0.3937007874015748
          },
          {
            "duration": 0.10869550000001027,
            "durationTicks": 96,
            "midi": 39,
            "name": "D#2",
            "ticks": 142768,
            "time": 161.64832441666667,
            "velocity": 0.3937007874015748
          },
          {
            "duration": 0.10869550000001027,
            "durationTicks": 96,
            "midi": 63,
            "name": "D#4",
            "ticks": 142768,
            "time": 161.64832441666667,
            "velocity": 0.3937007874015748
          },
          {
            "duration": 0.21739099999999212,
            "durationTicks": 192,
            "midi": 58,
            "name": "A#3",
            "ticks": 142864,
            "time": 161.75701991666668,
            "velocity": 0.3937007874015748
          },
          {
            "duration": 0.10869550000001027,
            "durationTicks": 96,
            "midi": 63,
            "name": "D#4",
            "ticks": 142864,
            "time": 161.75701991666668,
            "velocity": 0.3937007874015748
          },
          {
            "duration": 0.10869550000001027,
            "durationTicks": 96,
            "midi": 39,
            "name": "D#2",
            "ticks": 142864,
            "time": 161.75701991666668,
            "velocity": 0.3937007874015748
          },
          {
            "duration": 0.10869550000001027,
            "durationTicks": 96,
            "midi": 27,
            "name": "D#1",
            "ticks": 142864,
            "time": 161.75701991666668,
            "velocity": 0.3937007874015748
          },
          {
            "duration": 0.21739099999999212,
            "durationTicks": 192,
            "midi": 39,
            "name": "D#2",
            "ticks": 142864,
            "time": 161.75701991666668,
            "velocity": 0.3937007874015748
          },
          {
            "duration": 0.10869550000001027,
            "durationTicks": 96,
            "midi": 29,
            "name": "F1",
            "ticks": 142864,
            "time": 161.75701991666668,
            "velocity": 0.3937007874015748
          },
          {
            "duration": 0.21739099999999212,
            "durationTicks": 192,
            "midi": 34,
            "name": "A#1",
            "ticks": 142864,
            "time": 161.75701991666668,
            "velocity": 0.3937007874015748
          },
          {
            "duration": 0.10869550000001027,
            "durationTicks": 96,
            "midi": 51,
            "name": "D#3",
            "ticks": 142864,
            "time": 161.75701991666668,
            "velocity": 0.3937007874015748
          },
          {
            "duration": 0.21739099999999212,
            "durationTicks": 192,
            "midi": 63,
            "name": "D#4",
            "ticks": 142864,
            "time": 161.75701991666668,
            "velocity": 0.3937007874015748
          },
          {
            "duration": 0.21739099999999212,
            "durationTicks": 192,
            "midi": 54,
            "name": "F#3",
            "ticks": 142864,
            "time": 161.75701991666668,
            "velocity": 0.3937007874015748
          },
          {
            "duration": 0.10869549999998185,
            "durationTicks": 96,
            "midi": 75,
            "name": "D#5",
            "ticks": 142960,
            "time": 161.8657154166667,
            "velocity": 0.3937007874015748
          },
          {
            "duration": 0.10869549999998185,
            "durationTicks": 96,
            "midi": 30,
            "name": "F#1",
            "ticks": 142960,
            "time": 161.8657154166667,
            "velocity": 0.3937007874015748
          },
          {
            "duration": 0.10869549999998185,
            "durationTicks": 96,
            "midi": 51,
            "name": "D#3",
            "ticks": 142960,
            "time": 161.8657154166667,
            "velocity": 0.3937007874015748
          },
          {
            "duration": 0.10869549999998185,
            "durationTicks": 96,
            "midi": 27,
            "name": "D#1",
            "ticks": 142960,
            "time": 161.8657154166667,
            "velocity": 0.3937007874015748
          },
          {
            "duration": 0.10869549999998185,
            "durationTicks": 96,
            "midi": 63,
            "name": "D#4",
            "ticks": 142960,
            "time": 161.8657154166667,
            "velocity": 0.3937007874015748
          },
          {
            "duration": 0.10869549999998185,
            "durationTicks": 96,
            "midi": 39,
            "name": "D#2",
            "ticks": 142960,
            "time": 161.8657154166667,
            "velocity": 0.3937007874015748
          },
          {
            "duration": 0.10869550000001027,
            "durationTicks": 96,
            "midi": 61,
            "name": "C#4",
            "ticks": 143056,
            "time": 161.97441091666667,
            "velocity": 0.3937007874015748
          },
          {
            "duration": 0.10869550000001027,
            "durationTicks": 96,
            "midi": 31,
            "name": "G1",
            "ticks": 143056,
            "time": 161.97441091666667,
            "velocity": 0.3937007874015748
          },
          {
            "duration": 0.21739099999999212,
            "durationTicks": 192,
            "midi": 54,
            "name": "F#3",
            "ticks": 143056,
            "time": 161.97441091666667,
            "velocity": 0.3937007874015748
          },
          {
            "duration": 0.10869550000001027,
            "durationTicks": 96,
            "midi": 73,
            "name": "C#5",
            "ticks": 143056,
            "time": 161.97441091666667,
            "velocity": 0.3937007874015748
          },
          {
            "duration": 0.21739099999999212,
            "durationTicks": 192,
            "midi": 63,
            "name": "D#4",
            "ticks": 143056,
            "time": 161.97441091666667,
            "velocity": 0.3937007874015748
          },
          {
            "duration": 0.21739099999999212,
            "durationTicks": 192,
            "midi": 40,
            "name": "E2",
            "ticks": 143056,
            "time": 161.97441091666667,
            "velocity": 0.3937007874015748
          },
          {
            "duration": 0.10869550000001027,
            "durationTicks": 96,
            "midi": 49,
            "name": "C#3",
            "ticks": 143056,
            "time": 161.97441091666667,
            "velocity": 0.3937007874015748
          },
          {
            "duration": 0.10869550000001027,
            "durationTicks": 96,
            "midi": 27,
            "name": "D#1",
            "ticks": 143056,
            "time": 161.97441091666667,
            "velocity": 0.3937007874015748
          },
          {
            "duration": 0.10869550000001027,
            "durationTicks": 96,
            "midi": 37,
            "name": "C#2",
            "ticks": 143056,
            "time": 161.97441091666667,
            "velocity": 0.3937007874015748
          },
          {
            "duration": 0.21739099999999212,
            "durationTicks": 192,
            "midi": 58,
            "name": "A#3",
            "ticks": 143056,
            "time": 161.97441091666667,
            "velocity": 0.3937007874015748
          },
          {
            "duration": 0.10869549999998185,
            "durationTicks": 96,
            "midi": 32,
            "name": "G#1",
            "ticks": 143152,
            "time": 162.08310641666668,
            "velocity": 0.3937007874015748
          },
          {
            "duration": 0.10869549999998185,
            "durationTicks": 96,
            "midi": 27,
            "name": "D#1",
            "ticks": 143152,
            "time": 162.08310641666668,
            "velocity": 0.3937007874015748
          },
          {
            "duration": 0.10869549999998185,
            "durationTicks": 96,
            "midi": 51,
            "name": "D#3",
            "ticks": 143152,
            "time": 162.08310641666668,
            "velocity": 0.3937007874015748
          },
          {
            "duration": 0.10869549999998185,
            "durationTicks": 96,
            "midi": 39,
            "name": "D#2",
            "ticks": 143152,
            "time": 162.08310641666668,
            "velocity": 0.3937007874015748
          },
          {
            "duration": 0.10869549999998185,
            "durationTicks": 96,
            "midi": 63,
            "name": "D#4",
            "ticks": 143152,
            "time": 162.08310641666668,
            "velocity": 0.3937007874015748
          },
          {
            "duration": 0.10869549999998185,
            "durationTicks": 96,
            "midi": 75,
            "name": "D#5",
            "ticks": 143152,
            "time": 162.08310641666668,
            "velocity": 0.3937007874015748
          },
          {
            "duration": 0.21739100000002054,
            "durationTicks": 192,
            "midi": 41,
            "name": "F2",
            "ticks": 143248,
            "time": 162.19180191666666,
            "velocity": 0.3937007874015748
          },
          {
            "duration": 0.10869550000001027,
            "durationTicks": 96,
            "midi": 51,
            "name": "D#3",
            "ticks": 143248,
            "time": 162.19180191666666,
            "velocity": 0.3937007874015748
          },
          {
            "duration": 0.10869550000001027,
            "durationTicks": 96,
            "midi": 33,
            "name": "A1",
            "ticks": 143248,
            "time": 162.19180191666666,
            "velocity": 0.3937007874015748
          },
          {
            "duration": 0.10869550000001027,
            "durationTicks": 96,
            "midi": 39,
            "name": "D#2",
            "ticks": 143248,
            "time": 162.19180191666666,
            "velocity": 0.3937007874015748
          },
          {
            "duration": 0.10869550000001027,
            "durationTicks": 96,
            "midi": 63,
            "name": "D#4",
            "ticks": 143248,
            "time": 162.19180191666666,
            "velocity": 0.3937007874015748
          },
          {
            "duration": 0.21739100000002054,
            "durationTicks": 192,
            "midi": 58,
            "name": "A#3",
            "ticks": 143248,
            "time": 162.19180191666666,
            "velocity": 0.3937007874015748
          },
          {
            "duration": 0.10869550000001027,
            "durationTicks": 96,
            "midi": 27,
            "name": "D#1",
            "ticks": 143248,
            "time": 162.19180191666666,
            "velocity": 0.3937007874015748
          },
          {
            "duration": 0.21739100000002054,
            "durationTicks": 192,
            "midi": 63,
            "name": "D#4",
            "ticks": 143248,
            "time": 162.19180191666666,
            "velocity": 0.3937007874015748
          },
          {
            "duration": 0.21739100000002054,
            "durationTicks": 192,
            "midi": 34,
            "name": "A#1",
            "ticks": 143248,
            "time": 162.19180191666666,
            "velocity": 0.3937007874015748
          },
          {
            "duration": 0.21739100000002054,
            "durationTicks": 192,
            "midi": 54,
            "name": "F#3",
            "ticks": 143248,
            "time": 162.19180191666666,
            "velocity": 0.3937007874015748
          },
          {
            "duration": 0.10869550000001027,
            "durationTicks": 96,
            "midi": 27,
            "name": "D#1",
            "ticks": 143344,
            "time": 162.30049741666667,
            "velocity": 0.3937007874015748
          },
          {
            "duration": 0.10869550000001027,
            "durationTicks": 96,
            "midi": 34,
            "name": "A#1",
            "ticks": 143344,
            "time": 162.30049741666667,
            "velocity": 0.3937007874015748
          },
          {
            "duration": 0.10869549999998185,
            "durationTicks": 96,
            "midi": 27,
            "name": "D#1",
            "ticks": 143440,
            "time": 162.40919291666668,
            "velocity": 0.3937007874015748
          },
          {
            "duration": 0.21739099999999212,
            "durationTicks": 192,
            "midi": 42,
            "name": "F#2",
            "ticks": 143440,
            "time": 162.40919291666668,
            "velocity": 0.3937007874015748
          },
          {
            "duration": 0.10869549999998185,
            "durationTicks": 96,
            "midi": 63,
            "name": "D#4",
            "ticks": 143440,
            "time": 162.40919291666668,
            "velocity": 0.3937007874015748
          },
          {
            "duration": 0.10869549999998185,
            "durationTicks": 96,
            "midi": 51,
            "name": "D#3",
            "ticks": 143440,
            "time": 162.40919291666668,
            "velocity": 0.3937007874015748
          },
          {
            "duration": 0.21739099999999212,
            "durationTicks": 192,
            "midi": 63,
            "name": "D#4",
            "ticks": 143440,
            "time": 162.40919291666668,
            "velocity": 0.3937007874015748
          },
          {
            "duration": 0.21739099999999212,
            "durationTicks": 192,
            "midi": 58,
            "name": "A#3",
            "ticks": 143440,
            "time": 162.40919291666668,
            "velocity": 0.3937007874015748
          },
          {
            "duration": 0.21739099999999212,
            "durationTicks": 192,
            "midi": 54,
            "name": "F#3",
            "ticks": 143440,
            "time": 162.40919291666668,
            "velocity": 0.3937007874015748
          },
          {
            "duration": 0.10869549999998185,
            "durationTicks": 96,
            "midi": 75,
            "name": "D#5",
            "ticks": 143440,
            "time": 162.40919291666668,
            "velocity": 0.3937007874015748
          },
          {
            "duration": 0.10869549999998185,
            "durationTicks": 96,
            "midi": 35,
            "name": "B1",
            "ticks": 143440,
            "time": 162.40919291666668,
            "velocity": 0.3937007874015748
          },
          {
            "duration": 0.10869549999998185,
            "durationTicks": 96,
            "midi": 39,
            "name": "D#2",
            "ticks": 143440,
            "time": 162.40919291666668,
            "velocity": 0.3937007874015748
          },
          {
            "duration": 0.10869550000001027,
            "durationTicks": 96,
            "midi": 51,
            "name": "D#3",
            "ticks": 143536,
            "time": 162.51788841666666,
            "velocity": 0.3937007874015748
          },
          {
            "duration": 0.10869550000001027,
            "durationTicks": 96,
            "midi": 27,
            "name": "D#1",
            "ticks": 143536,
            "time": 162.51788841666666,
            "velocity": 0.3937007874015748
          },
          {
            "duration": 0.10869550000001027,
            "durationTicks": 96,
            "midi": 39,
            "name": "D#2",
            "ticks": 143536,
            "time": 162.51788841666666,
            "velocity": 0.3937007874015748
          },
          {
            "duration": 0.10869550000001027,
            "durationTicks": 96,
            "midi": 36,
            "name": "C2",
            "ticks": 143536,
            "time": 162.51788841666666,
            "velocity": 0.3937007874015748
          },
          {
            "duration": 0.10869550000001027,
            "durationTicks": 96,
            "midi": 63,
            "name": "D#4",
            "ticks": 143536,
            "time": 162.51788841666666,
            "velocity": 0.3937007874015748
          },
          {
            "duration": 0.10869550000001027,
            "durationTicks": 96,
            "midi": 75,
            "name": "D#5",
            "ticks": 143536,
            "time": 162.51788841666666,
            "velocity": 0.3937007874015748
          },
          {
            "duration": 0.10869550000001027,
            "durationTicks": 96,
            "midi": 27,
            "name": "D#1",
            "ticks": 143632,
            "time": 162.62658391666668,
            "velocity": 0.3937007874015748
          },
          {
            "duration": 0.21739099999999212,
            "durationTicks": 192,
            "midi": 34,
            "name": "A#1",
            "ticks": 143632,
            "time": 162.62658391666668,
            "velocity": 0.3937007874015748
          },
          {
            "duration": 0.10869550000001027,
            "durationTicks": 96,
            "midi": 51,
            "name": "D#3",
            "ticks": 143632,
            "time": 162.62658391666668,
            "velocity": 0.3937007874015748
          },
          {
            "duration": 0.21739099999999212,
            "durationTicks": 192,
            "midi": 54,
            "name": "F#3",
            "ticks": 143632,
            "time": 162.62658391666668,
            "velocity": 0.3937007874015748
          },
          {
            "duration": 0.10869550000001027,
            "durationTicks": 96,
            "midi": 63,
            "name": "D#4",
            "ticks": 143632,
            "time": 162.62658391666668,
            "velocity": 0.3937007874015748
          },
          {
            "duration": 0.21739099999999212,
            "durationTicks": 192,
            "midi": 63,
            "name": "D#4",
            "ticks": 143632,
            "time": 162.62658391666668,
            "velocity": 0.3937007874015748
          },
          {
            "duration": 0.10869550000001027,
            "durationTicks": 96,
            "midi": 39,
            "name": "D#2",
            "ticks": 143632,
            "time": 162.62658391666668,
            "velocity": 0.3937007874015748
          },
          {
            "duration": 0.21739099999999212,
            "durationTicks": 192,
            "midi": 43,
            "name": "G2",
            "ticks": 143632,
            "time": 162.62658391666668,
            "velocity": 0.3937007874015748
          },
          {
            "duration": 0.10869550000001027,
            "durationTicks": 96,
            "midi": 37,
            "name": "C#2",
            "ticks": 143632,
            "time": 162.62658391666668,
            "velocity": 0.3937007874015748
          },
          {
            "duration": 0.21739099999999212,
            "durationTicks": 192,
            "midi": 58,
            "name": "A#3",
            "ticks": 143632,
            "time": 162.62658391666668,
            "velocity": 0.3937007874015748
          },
          {
            "duration": 0.10869549999998185,
            "durationTicks": 96,
            "midi": 38,
            "name": "D2",
            "ticks": 143728,
            "time": 162.73527941666669,
            "velocity": 0.3937007874015748
          },
          {
            "duration": 0.10869549999998185,
            "durationTicks": 96,
            "midi": 63,
            "name": "D#4",
            "ticks": 143728,
            "time": 162.73527941666669,
            "velocity": 0.3937007874015748
          },
          {
            "duration": 0.10869549999998185,
            "durationTicks": 96,
            "midi": 75,
            "name": "D#5",
            "ticks": 143728,
            "time": 162.73527941666669,
            "velocity": 0.3937007874015748
          },
          {
            "duration": 0.10869549999998185,
            "durationTicks": 96,
            "midi": 27,
            "name": "D#1",
            "ticks": 143728,
            "time": 162.73527941666669,
            "velocity": 0.3937007874015748
          },
          {
            "duration": 0.10869549999998185,
            "durationTicks": 96,
            "midi": 51,
            "name": "D#3",
            "ticks": 143728,
            "time": 162.73527941666669,
            "velocity": 0.3937007874015748
          },
          {
            "duration": 0.10869549999998185,
            "durationTicks": 96,
            "midi": 39,
            "name": "D#2",
            "ticks": 143728,
            "time": 162.73527941666669,
            "velocity": 0.3937007874015748
          },
          {
            "duration": 0.10869550000001027,
            "durationTicks": 96,
            "midi": 39,
            "name": "D#2",
            "ticks": 143824,
            "time": 162.84397491666667,
            "velocity": 0.3937007874015748
          },
          {
            "duration": 0.10869550000001027,
            "durationTicks": 96,
            "midi": 49,
            "name": "C#3",
            "ticks": 143824,
            "time": 162.84397491666667,
            "velocity": 0.3937007874015748
          },
          {
            "duration": 0.10869550000001027,
            "durationTicks": 96,
            "midi": 27,
            "name": "D#1",
            "ticks": 143824,
            "time": 162.84397491666667,
            "velocity": 0.3937007874015748
          },
          {
            "duration": 0.21739100000002054,
            "durationTicks": 192,
            "midi": 58,
            "name": "A#3",
            "ticks": 143824,
            "time": 162.84397491666667,
            "velocity": 0.3937007874015748
          },
          {
            "duration": 0.10869550000001027,
            "durationTicks": 96,
            "midi": 73,
            "name": "C#5",
            "ticks": 143824,
            "time": 162.84397491666667,
            "velocity": 0.3937007874015748
          },
          {
            "duration": 0.21739100000002054,
            "durationTicks": 192,
            "midi": 63,
            "name": "D#4",
            "ticks": 143824,
            "time": 162.84397491666667,
            "velocity": 0.3937007874015748
          },
          {
            "duration": 0.10869550000001027,
            "durationTicks": 96,
            "midi": 37,
            "name": "C#2",
            "ticks": 143824,
            "time": 162.84397491666667,
            "velocity": 0.3937007874015748
          },
          {
            "duration": 0.10869550000001027,
            "durationTicks": 96,
            "midi": 61,
            "name": "C#4",
            "ticks": 143824,
            "time": 162.84397491666667,
            "velocity": 0.3937007874015748
          },
          {
            "duration": 0.21739100000002054,
            "durationTicks": 192,
            "midi": 44,
            "name": "G#2",
            "ticks": 143824,
            "time": 162.84397491666667,
            "velocity": 0.3937007874015748
          },
          {
            "duration": 0.21739100000002054,
            "durationTicks": 192,
            "midi": 54,
            "name": "F#3",
            "ticks": 143824,
            "time": 162.84397491666667,
            "velocity": 0.3937007874015748
          },
          {
            "duration": 0.10869550000001027,
            "durationTicks": 96,
            "midi": 27,
            "name": "D#1",
            "ticks": 143920,
            "time": 162.95267041666668,
            "velocity": 0.3937007874015748
          },
          {
            "duration": 0.10869550000001027,
            "durationTicks": 96,
            "midi": 51,
            "name": "D#3",
            "ticks": 143920,
            "time": 162.95267041666668,
            "velocity": 0.3937007874015748
          },
          {
            "duration": 0.10869550000001027,
            "durationTicks": 96,
            "midi": 39,
            "name": "D#2",
            "ticks": 143920,
            "time": 162.95267041666668,
            "velocity": 0.3937007874015748
          },
          {
            "duration": 0.10869550000001027,
            "durationTicks": 96,
            "midi": 63,
            "name": "D#4",
            "ticks": 143920,
            "time": 162.95267041666668,
            "velocity": 0.3937007874015748
          },
          {
            "duration": 0.10869550000001027,
            "durationTicks": 96,
            "midi": 75,
            "name": "D#5",
            "ticks": 143920,
            "time": 162.95267041666668,
            "velocity": 0.3937007874015748
          },
          {
            "duration": 0.10869550000001027,
            "durationTicks": 96,
            "midi": 40,
            "name": "E2",
            "ticks": 143920,
            "time": 162.95267041666668,
            "velocity": 0.3937007874015748
          },
          {
            "duration": 0.10869549999998185,
            "durationTicks": 96,
            "midi": 27,
            "name": "D#1",
            "ticks": 144016,
            "time": 163.0613659166667,
            "velocity": 0.3937007874015748
          },
          {
            "duration": 0.10869549999998185,
            "durationTicks": 96,
            "midi": 54,
            "name": "F#3",
            "ticks": 144016,
            "time": 163.0613659166667,
            "velocity": 0.3937007874015748
          },
          {
            "duration": 0.21739099999999212,
            "durationTicks": 192,
            "midi": 54,
            "name": "F#3",
            "ticks": 144016,
            "time": 163.0613659166667,
            "velocity": 0.3937007874015748
          },
          {
            "duration": 0.21739099999999212,
            "durationTicks": 192,
            "midi": 61,
            "name": "C#4",
            "ticks": 144016,
            "time": 163.0613659166667,
            "velocity": 0.3937007874015748
          },
          {
            "duration": 0.10869549999998185,
            "durationTicks": 96,
            "midi": 66,
            "name": "F#4",
            "ticks": 144016,
            "time": 163.0613659166667,
            "velocity": 0.3937007874015748
          },
          {
            "duration": 0.10869549999998185,
            "durationTicks": 96,
            "midi": 78,
            "name": "F#5",
            "ticks": 144016,
            "time": 163.0613659166667,
            "velocity": 0.3937007874015748
          },
          {
            "duration": 0.21739099999999212,
            "durationTicks": 192,
            "midi": 34,
            "name": "A#1",
            "ticks": 144016,
            "time": 163.0613659166667,
            "velocity": 0.3937007874015748
          },
          {
            "duration": 0.21739099999999212,
            "durationTicks": 192,
            "midi": 45,
            "name": "A2",
            "ticks": 144016,
            "time": 163.0613659166667,
            "velocity": 0.3937007874015748
          },
          {
            "duration": 0.10869549999998185,
            "durationTicks": 96,
            "midi": 41,
            "name": "F2",
            "ticks": 144016,
            "time": 163.0613659166667,
            "velocity": 0.3937007874015748
          },
          {
            "duration": 0.10869549999998185,
            "durationTicks": 96,
            "midi": 42,
            "name": "F#2",
            "ticks": 144016,
            "time": 163.0613659166667,
            "velocity": 0.3937007874015748
          },
          {
            "duration": 0.21739099999999212,
            "durationTicks": 192,
            "midi": 58,
            "name": "A#3",
            "ticks": 144016,
            "time": 163.0613659166667,
            "velocity": 0.3937007874015748
          },
          {
            "duration": 0.10869550000001027,
            "durationTicks": 96,
            "midi": 42,
            "name": "F#2",
            "ticks": 144112,
            "time": 163.17006141666667,
            "velocity": 0.3937007874015748
          },
          {
            "duration": 0.10869550000001027,
            "durationTicks": 96,
            "midi": 27,
            "name": "D#1",
            "ticks": 144112,
            "time": 163.17006141666667,
            "velocity": 0.3937007874015748
          },
          {
            "duration": 0.10869549999998185,
            "durationTicks": 96,
            "midi": 39,
            "name": "D#2",
            "ticks": 144208,
            "time": 163.27875691666668,
            "velocity": 0.3937007874015748
          },
          {
            "duration": 0.21739099999999212,
            "durationTicks": 192,
            "midi": 46,
            "name": "A#2",
            "ticks": 144208,
            "time": 163.27875691666668,
            "velocity": 0.3937007874015748
          },
          {
            "duration": 0.10869549999998185,
            "durationTicks": 96,
            "midi": 43,
            "name": "G2",
            "ticks": 144208,
            "time": 163.27875691666668,
            "velocity": 0.3937007874015748
          },
          {
            "duration": 0.21739099999999212,
            "durationTicks": 192,
            "midi": 61,
            "name": "C#4",
            "ticks": 144208,
            "time": 163.27875691666668,
            "velocity": 0.3937007874015748
          },
          {
            "duration": 0.21739099999999212,
            "durationTicks": 192,
            "midi": 58,
            "name": "A#3",
            "ticks": 144208,
            "time": 163.27875691666668,
            "velocity": 0.3937007874015748
          },
          {
            "duration": 0.10869549999998185,
            "durationTicks": 96,
            "midi": 51,
            "name": "D#3",
            "ticks": 144208,
            "time": 163.27875691666668,
            "velocity": 0.3937007874015748
          },
          {
            "duration": 0.10869549999998185,
            "durationTicks": 96,
            "midi": 63,
            "name": "D#4",
            "ticks": 144208,
            "time": 163.27875691666668,
            "velocity": 0.3937007874015748
          },
          {
            "duration": 0.21739099999999212,
            "durationTicks": 192,
            "midi": 54,
            "name": "F#3",
            "ticks": 144208,
            "time": 163.27875691666668,
            "velocity": 0.3937007874015748
          },
          {
            "duration": 0.10869549999998185,
            "durationTicks": 96,
            "midi": 27,
            "name": "D#1",
            "ticks": 144208,
            "time": 163.27875691666668,
            "velocity": 0.3937007874015748
          },
          {
            "duration": 0.10869549999998185,
            "durationTicks": 96,
            "midi": 75,
            "name": "D#5",
            "ticks": 144208,
            "time": 163.27875691666668,
            "velocity": 0.3937007874015748
          },
          {
            "duration": 0.10869550000001027,
            "durationTicks": 96,
            "midi": 44,
            "name": "G#2",
            "ticks": 144304,
            "time": 163.38745241666666,
            "velocity": 0.3937007874015748
          },
          {
            "duration": 0.10869550000001027,
            "durationTicks": 96,
            "midi": 78,
            "name": "F#5",
            "ticks": 144304,
            "time": 163.38745241666666,
            "velocity": 0.3937007874015748
          },
          {
            "duration": 0.10869550000001027,
            "durationTicks": 96,
            "midi": 54,
            "name": "F#3",
            "ticks": 144304,
            "time": 163.38745241666666,
            "velocity": 0.3937007874015748
          },
          {
            "duration": 0.10869550000001027,
            "durationTicks": 96,
            "midi": 66,
            "name": "F#4",
            "ticks": 144304,
            "time": 163.38745241666666,
            "velocity": 0.3937007874015748
          },
          {
            "duration": 0.10869550000001027,
            "durationTicks": 96,
            "midi": 27,
            "name": "D#1",
            "ticks": 144304,
            "time": 163.38745241666666,
            "velocity": 0.3937007874015748
          },
          {
            "duration": 0.10869550000001027,
            "durationTicks": 96,
            "midi": 42,
            "name": "F#2",
            "ticks": 144304,
            "time": 163.38745241666666,
            "velocity": 0.3937007874015748
          },
          {
            "duration": 0.10869550000001027,
            "durationTicks": 96,
            "midi": 68,
            "name": "G#4",
            "ticks": 144400,
            "time": 163.49614791666667,
            "velocity": 0.3937007874015748
          },
          {
            "duration": 0.21739099999999212,
            "durationTicks": 192,
            "midi": 59,
            "name": "B3",
            "ticks": 144400,
            "time": 163.49614791666667,
            "velocity": 0.3937007874015748
          },
          {
            "duration": 0.10869550000001027,
            "durationTicks": 96,
            "midi": 44,
            "name": "G#2",
            "ticks": 144400,
            "time": 163.49614791666667,
            "velocity": 0.3937007874015748
          },
          {
            "duration": 0.10869550000001027,
            "durationTicks": 96,
            "midi": 27,
            "name": "D#1",
            "ticks": 144400,
            "time": 163.49614791666667,
            "velocity": 0.3937007874015748
          },
          {
            "duration": 0.10869550000001027,
            "durationTicks": 96,
            "midi": 56,
            "name": "G#3",
            "ticks": 144400,
            "time": 163.49614791666667,
            "velocity": 0.3937007874015748
          },
          {
            "duration": 0.10869550000001027,
            "durationTicks": 96,
            "midi": 45,
            "name": "A2",
            "ticks": 144400,
            "time": 163.49614791666667,
            "velocity": 0.3937007874015748
          },
          {
            "duration": 0.21739099999999212,
            "durationTicks": 192,
            "midi": 34,
            "name": "A#1",
            "ticks": 144400,
            "time": 163.49614791666667,
            "velocity": 0.3937007874015748
          },
          {
            "duration": 0.21739099999999212,
            "durationTicks": 192,
            "midi": 63,
            "name": "D#4",
            "ticks": 144400,
            "time": 163.49614791666667,
            "velocity": 0.3937007874015748
          },
          {
            "duration": 0.21739099999999212,
            "durationTicks": 192,
            "midi": 47,
            "name": "B2",
            "ticks": 144400,
            "time": 163.49614791666667,
            "velocity": 0.3937007874015748
          },
          {
            "duration": 0.21739099999999212,
            "durationTicks": 192,
            "midi": 56,
            "name": "G#3",
            "ticks": 144400,
            "time": 163.49614791666667,
            "velocity": 0.3937007874015748
          },
          {
            "duration": 0.10869550000001027,
            "durationTicks": 96,
            "midi": 80,
            "name": "G#5",
            "ticks": 144400,
            "time": 163.49614791666667,
            "velocity": 0.3937007874015748
          },
          {
            "duration": 0.10869549999998185,
            "durationTicks": 96,
            "midi": 46,
            "name": "A#2",
            "ticks": 144496,
            "time": 163.60484341666668,
            "velocity": 0.3937007874015748
          },
          {
            "duration": 0.10869549999998185,
            "durationTicks": 96,
            "midi": 27,
            "name": "D#1",
            "ticks": 144496,
            "time": 163.60484341666668,
            "velocity": 0.3937007874015748
          },
          {
            "duration": 0.21739100000002054,
            "durationTicks": 192,
            "midi": 34,
            "name": "A#1",
            "ticks": 144592,
            "time": 163.71353891666666,
            "velocity": 0.3937007874015748
          },
          {
            "duration": 0.10869550000001027,
            "durationTicks": 96,
            "midi": 78,
            "name": "F#5",
            "ticks": 144592,
            "time": 163.71353891666666,
            "velocity": 0.3937007874015748
          },
          {
            "duration": 0.10869550000001027,
            "durationTicks": 96,
            "midi": 27,
            "name": "D#1",
            "ticks": 144592,
            "time": 163.71353891666666,
            "velocity": 0.3937007874015748
          },
          {
            "duration": 0.10869550000001027,
            "durationTicks": 96,
            "midi": 47,
            "name": "B2",
            "ticks": 144592,
            "time": 163.71353891666666,
            "velocity": 0.3937007874015748
          },
          {
            "duration": 0.21739100000002054,
            "durationTicks": 192,
            "midi": 63,
            "name": "D#4",
            "ticks": 144592,
            "time": 163.71353891666666,
            "velocity": 0.3937007874015748
          },
          {
            "duration": 0.10869550000001027,
            "durationTicks": 96,
            "midi": 66,
            "name": "F#4",
            "ticks": 144592,
            "time": 163.71353891666666,
            "velocity": 0.3937007874015748
          },
          {
            "duration": 0.10869550000001027,
            "durationTicks": 96,
            "midi": 48,
            "name": "C3",
            "ticks": 144592,
            "time": 163.71353891666666,
            "velocity": 0.3937007874015748
          },
          {
            "duration": 0.10869550000001027,
            "durationTicks": 96,
            "midi": 54,
            "name": "F#3",
            "ticks": 144592,
            "time": 163.71353891666666,
            "velocity": 0.3937007874015748
          },
          {
            "duration": 0.21739100000002054,
            "durationTicks": 192,
            "midi": 56,
            "name": "G#3",
            "ticks": 144592,
            "time": 163.71353891666666,
            "velocity": 0.3937007874015748
          },
          {
            "duration": 0.21739100000002054,
            "durationTicks": 192,
            "midi": 59,
            "name": "B3",
            "ticks": 144592,
            "time": 163.71353891666666,
            "velocity": 0.3937007874015748
          },
          {
            "duration": 0.10869550000001027,
            "durationTicks": 96,
            "midi": 42,
            "name": "F#2",
            "ticks": 144592,
            "time": 163.71353891666666,
            "velocity": 0.3937007874015748
          },
          {
            "duration": 0.10869550000001027,
            "durationTicks": 96,
            "midi": 48,
            "name": "C3",
            "ticks": 144688,
            "time": 163.82223441666667,
            "velocity": 0.3937007874015748
          },
          {
            "duration": 0.10869550000001027,
            "durationTicks": 96,
            "midi": 27,
            "name": "D#1",
            "ticks": 144688,
            "time": 163.82223441666667,
            "velocity": 0.3937007874015748
          },
          {
            "duration": 0.10869550000001027,
            "durationTicks": 96,
            "midi": 68,
            "name": "G#4",
            "ticks": 144688,
            "time": 163.82223441666667,
            "velocity": 0.3937007874015748
          },
          {
            "duration": 0.10869550000001027,
            "durationTicks": 96,
            "midi": 80,
            "name": "G#5",
            "ticks": 144688,
            "time": 163.82223441666667,
            "velocity": 0.3937007874015748
          },
          {
            "duration": 0.10869550000001027,
            "durationTicks": 96,
            "midi": 44,
            "name": "G#2",
            "ticks": 144688,
            "time": 163.82223441666667,
            "velocity": 0.3937007874015748
          },
          {
            "duration": 0.10869550000001027,
            "durationTicks": 96,
            "midi": 56,
            "name": "G#3",
            "ticks": 144688,
            "time": 163.82223441666667,
            "velocity": 0.3937007874015748
          },
          {
            "duration": 0.10869549999998185,
            "durationTicks": 96,
            "midi": 39,
            "name": "D#2",
            "ticks": 144784,
            "time": 163.93092991666668,
            "velocity": 0.3937007874015748
          },
          {
            "duration": 0.10869549999998185,
            "durationTicks": 96,
            "midi": 51,
            "name": "D#3",
            "ticks": 144784,
            "time": 163.93092991666668,
            "velocity": 0.3937007874015748
          },
          {
            "duration": 0.10869549999998185,
            "durationTicks": 96,
            "midi": 63,
            "name": "D#4",
            "ticks": 144784,
            "time": 163.93092991666668,
            "velocity": 0.3937007874015748
          },
          {
            "duration": 0.10869549999998185,
            "durationTicks": 96,
            "midi": 27,
            "name": "D#1",
            "ticks": 144784,
            "time": 163.93092991666668,
            "velocity": 0.3937007874015748
          },
          {
            "duration": 0.21739099999999212,
            "durationTicks": 192,
            "midi": 49,
            "name": "C#3",
            "ticks": 144784,
            "time": 163.93092991666668,
            "velocity": 0.3937007874015748
          },
          {
            "duration": 0.21739099999999212,
            "durationTicks": 192,
            "midi": 58,
            "name": "A#3",
            "ticks": 144784,
            "time": 163.93092991666668,
            "velocity": 0.3937007874015748
          },
          {
            "duration": 0.21739099999999212,
            "durationTicks": 192,
            "midi": 34,
            "name": "A#1",
            "ticks": 144784,
            "time": 163.93092991666668,
            "velocity": 0.3937007874015748
          },
          {
            "duration": 0.21739099999999212,
            "durationTicks": 192,
            "midi": 63,
            "name": "D#4",
            "ticks": 144784,
            "time": 163.93092991666668,
            "velocity": 0.3937007874015748
          },
          {
            "duration": 0.21739099999999212,
            "durationTicks": 192,
            "midi": 54,
            "name": "F#3",
            "ticks": 144784,
            "time": 163.93092991666668,
            "velocity": 0.3937007874015748
          },
          {
            "duration": 0.10869550000001027,
            "durationTicks": 96,
            "midi": 27,
            "name": "D#1",
            "ticks": 144880,
            "time": 164.03962541666667,
            "velocity": 0.3937007874015748
          },
          {
            "duration": 0.10869550000001027,
            "durationTicks": 96,
            "midi": 63,
            "name": "D#4",
            "ticks": 144976,
            "time": 164.14832091666668,
            "velocity": 0.3937007874015748
          },
          {
            "duration": 0.21739099999999212,
            "durationTicks": 192,
            "midi": 58,
            "name": "A#3",
            "ticks": 144976,
            "time": 164.14832091666668,
            "velocity": 0.3937007874015748
          },
          {
            "duration": 0.21739099999999212,
            "durationTicks": 192,
            "midi": 54,
            "name": "F#3",
            "ticks": 144976,
            "time": 164.14832091666668,
            "velocity": 0.3937007874015748
          },
          {
            "duration": 0.10869550000001027,
            "durationTicks": 96,
            "midi": 51,
            "name": "D#3",
            "ticks": 144976,
            "time": 164.14832091666668,
            "velocity": 0.3937007874015748
          },
          {
            "duration": 0.21739099999999212,
            "durationTicks": 192,
            "midi": 63,
            "name": "D#4",
            "ticks": 144976,
            "time": 164.14832091666668,
            "velocity": 0.3937007874015748
          },
          {
            "duration": 0.10869550000001027,
            "durationTicks": 96,
            "midi": 27,
            "name": "D#1",
            "ticks": 144976,
            "time": 164.14832091666668,
            "velocity": 0.3937007874015748
          },
          {
            "duration": 0.21739099999999212,
            "durationTicks": 192,
            "midi": 50,
            "name": "D3",
            "ticks": 144976,
            "time": 164.14832091666668,
            "velocity": 0.3937007874015748
          },
          {
            "duration": 0.10869550000001027,
            "durationTicks": 96,
            "midi": 39,
            "name": "D#2",
            "ticks": 144976,
            "time": 164.14832091666668,
            "velocity": 0.3937007874015748
          },
          {
            "duration": 0.10869550000001027,
            "durationTicks": 96,
            "midi": 75,
            "name": "D#5",
            "ticks": 144976,
            "time": 164.14832091666668,
            "velocity": 0.3937007874015748
          },
          {
            "duration": 0.10869549999998185,
            "durationTicks": 96,
            "midi": 51,
            "name": "D#3",
            "ticks": 145072,
            "time": 164.2570164166667,
            "velocity": 0.3937007874015748
          },
          {
            "duration": 0.10869549999998185,
            "durationTicks": 96,
            "midi": 39,
            "name": "D#2",
            "ticks": 145072,
            "time": 164.2570164166667,
            "velocity": 0.3937007874015748
          },
          {
            "duration": 0.10869549999998185,
            "durationTicks": 96,
            "midi": 63,
            "name": "D#4",
            "ticks": 145072,
            "time": 164.2570164166667,
            "velocity": 0.3937007874015748
          },
          {
            "duration": 0.10869549999998185,
            "durationTicks": 96,
            "midi": 75,
            "name": "D#5",
            "ticks": 145072,
            "time": 164.2570164166667,
            "velocity": 0.3937007874015748
          },
          {
            "duration": 0.10869549999998185,
            "durationTicks": 96,
            "midi": 27,
            "name": "D#1",
            "ticks": 145072,
            "time": 164.2570164166667,
            "velocity": 0.3937007874015748
          },
          {
            "duration": 0.10869550000001027,
            "durationTicks": 96,
            "midi": 51,
            "name": "D#3",
            "ticks": 145168,
            "time": 164.36571191666667,
            "velocity": 0.3937007874015748
          },
          {
            "duration": 0.10869550000001027,
            "durationTicks": 96,
            "midi": 27,
            "name": "D#1",
            "ticks": 145168,
            "time": 164.36571191666667,
            "velocity": 0.3937007874015748
          },
          {
            "duration": 0.21739100000002054,
            "durationTicks": 192,
            "midi": 54,
            "name": "F#3",
            "ticks": 145168,
            "time": 164.36571191666667,
            "velocity": 0.3937007874015748
          },
          {
            "duration": 0.21739100000002054,
            "durationTicks": 192,
            "midi": 58,
            "name": "A#3",
            "ticks": 145168,
            "time": 164.36571191666667,
            "velocity": 0.3937007874015748
          },
          {
            "duration": 0.10869550000001027,
            "durationTicks": 96,
            "midi": 63,
            "name": "D#4",
            "ticks": 145168,
            "time": 164.36571191666667,
            "velocity": 0.3937007874015748
          },
          {
            "duration": 0.21739100000002054,
            "durationTicks": 192,
            "midi": 51,
            "name": "D#3",
            "ticks": 145168,
            "time": 164.36571191666667,
            "velocity": 0.3937007874015748
          },
          {
            "duration": 0.21739100000002054,
            "durationTicks": 192,
            "midi": 34,
            "name": "A#1",
            "ticks": 145168,
            "time": 164.36571191666667,
            "velocity": 0.3937007874015748
          },
          {
            "duration": 0.21739100000002054,
            "durationTicks": 192,
            "midi": 63,
            "name": "D#4",
            "ticks": 145168,
            "time": 164.36571191666667,
            "velocity": 0.3937007874015748
          },
          {
            "duration": 0.10869550000001027,
            "durationTicks": 96,
            "midi": 39,
            "name": "D#2",
            "ticks": 145168,
            "time": 164.36571191666667,
            "velocity": 0.3937007874015748
          },
          {
            "duration": 0.10869550000001027,
            "durationTicks": 96,
            "midi": 27,
            "name": "D#1",
            "ticks": 145264,
            "time": 164.47440741666668,
            "velocity": 0.3937007874015748
          },
          {
            "duration": 0.10869550000001027,
            "durationTicks": 96,
            "midi": 51,
            "name": "D#3",
            "ticks": 145264,
            "time": 164.47440741666668,
            "velocity": 0.3937007874015748
          },
          {
            "duration": 0.10869550000001027,
            "durationTicks": 96,
            "midi": 63,
            "name": "D#4",
            "ticks": 145264,
            "time": 164.47440741666668,
            "velocity": 0.3937007874015748
          },
          {
            "duration": 0.10869550000001027,
            "durationTicks": 96,
            "midi": 39,
            "name": "D#2",
            "ticks": 145264,
            "time": 164.47440741666668,
            "velocity": 0.3937007874015748
          },
          {
            "duration": 0.10869550000001027,
            "durationTicks": 96,
            "midi": 75,
            "name": "D#5",
            "ticks": 145264,
            "time": 164.47440741666668,
            "velocity": 0.3937007874015748
          },
          {
            "duration": 0.21739099999999212,
            "durationTicks": 192,
            "midi": 52,
            "name": "E3",
            "ticks": 145360,
            "time": 164.5831029166667,
            "velocity": 0.3937007874015748
          },
          {
            "duration": 0.10869549999998185,
            "durationTicks": 96,
            "midi": 61,
            "name": "C#4",
            "ticks": 145360,
            "time": 164.5831029166667,
            "velocity": 0.3937007874015748
          },
          {
            "duration": 0.10869549999998185,
            "durationTicks": 96,
            "midi": 73,
            "name": "C#5",
            "ticks": 145360,
            "time": 164.5831029166667,
            "velocity": 0.3937007874015748
          },
          {
            "duration": 0.10869549999998185,
            "durationTicks": 96,
            "midi": 37,
            "name": "C#2",
            "ticks": 145360,
            "time": 164.5831029166667,
            "velocity": 0.3937007874015748
          },
          {
            "duration": 0.10869549999998185,
            "durationTicks": 96,
            "midi": 49,
            "name": "C#3",
            "ticks": 145360,
            "time": 164.5831029166667,
            "velocity": 0.3937007874015748
          },
          {
            "duration": 0.21739099999999212,
            "durationTicks": 192,
            "midi": 58,
            "name": "A#3",
            "ticks": 145360,
            "time": 164.5831029166667,
            "velocity": 0.3937007874015748
          },
          {
            "duration": 0.21739099999999212,
            "durationTicks": 192,
            "midi": 63,
            "name": "D#4",
            "ticks": 145360,
            "time": 164.5831029166667,
            "velocity": 0.3937007874015748
          },
          {
            "duration": 0.21739099999999212,
            "durationTicks": 192,
            "midi": 54,
            "name": "F#3",
            "ticks": 145360,
            "time": 164.5831029166667,
            "velocity": 0.3937007874015748
          },
          {
            "duration": 0.10869549999998185,
            "durationTicks": 96,
            "midi": 27,
            "name": "D#1",
            "ticks": 145360,
            "time": 164.5831029166667,
            "velocity": 0.3937007874015748
          },
          {
            "duration": 0.10869550000001027,
            "durationTicks": 96,
            "midi": 51,
            "name": "D#3",
            "ticks": 145456,
            "time": 164.69179841666667,
            "velocity": 0.3937007874015748
          },
          {
            "duration": 0.10869550000001027,
            "durationTicks": 96,
            "midi": 39,
            "name": "D#2",
            "ticks": 145456,
            "time": 164.69179841666667,
            "velocity": 0.3937007874015748
          },
          {
            "duration": 0.10869550000001027,
            "durationTicks": 96,
            "midi": 75,
            "name": "D#5",
            "ticks": 145456,
            "time": 164.69179841666667,
            "velocity": 0.3937007874015748
          },
          {
            "duration": 0.10869550000001027,
            "durationTicks": 96,
            "midi": 63,
            "name": "D#4",
            "ticks": 145456,
            "time": 164.69179841666667,
            "velocity": 0.3937007874015748
          },
          {
            "duration": 0.10869550000001027,
            "durationTicks": 96,
            "midi": 27,
            "name": "D#1",
            "ticks": 145456,
            "time": 164.69179841666667,
            "velocity": 0.3937007874015748
          },
          {
            "duration": 0.10869549999998185,
            "durationTicks": 96,
            "midi": 51,
            "name": "D#3",
            "ticks": 145552,
            "time": 164.80049391666668,
            "velocity": 0.3937007874015748
          },
          {
            "duration": 0.10869549999998185,
            "durationTicks": 96,
            "midi": 39,
            "name": "D#2",
            "ticks": 145552,
            "time": 164.80049391666668,
            "velocity": 0.3937007874015748
          },
          {
            "duration": 0.21739099999999212,
            "durationTicks": 192,
            "midi": 53,
            "name": "F3",
            "ticks": 145552,
            "time": 164.80049391666668,
            "velocity": 0.3937007874015748
          },
          {
            "duration": 0.21739099999999212,
            "durationTicks": 192,
            "midi": 34,
            "name": "A#1",
            "ticks": 145552,
            "time": 164.80049391666668,
            "velocity": 0.3937007874015748
          },
          {
            "duration": 0.10869549999998185,
            "durationTicks": 96,
            "midi": 27,
            "name": "D#1",
            "ticks": 145552,
            "time": 164.80049391666668,
            "velocity": 0.3937007874015748
          },
          {
            "duration": 0.21739099999999212,
            "durationTicks": 192,
            "midi": 54,
            "name": "F#3",
            "ticks": 145552,
            "time": 164.80049391666668,
            "velocity": 0.3937007874015748
          },
          {
            "duration": 0.10869549999998185,
            "durationTicks": 96,
            "midi": 63,
            "name": "D#4",
            "ticks": 145552,
            "time": 164.80049391666668,
            "velocity": 0.3937007874015748
          },
          {
            "duration": 0.21739099999999212,
            "durationTicks": 192,
            "midi": 63,
            "name": "D#4",
            "ticks": 145552,
            "time": 164.80049391666668,
            "velocity": 0.3937007874015748
          },
          {
            "duration": 0.21739099999999212,
            "durationTicks": 192,
            "midi": 58,
            "name": "A#3",
            "ticks": 145552,
            "time": 164.80049391666668,
            "velocity": 0.3937007874015748
          },
          {
            "duration": 0.10869550000001027,
            "durationTicks": 96,
            "midi": 27,
            "name": "D#1",
            "ticks": 145648,
            "time": 164.90918941666666,
            "velocity": 0.3937007874015748
          },
          {
            "duration": 0.10869550000001027,
            "durationTicks": 96,
            "midi": 54,
            "name": "F#3",
            "ticks": 145648,
            "time": 164.90918941666666,
            "velocity": 0.3937007874015748
          },
          {
            "duration": 0.10869550000001027,
            "durationTicks": 96,
            "midi": 75,
            "name": "D#5",
            "ticks": 145744,
            "time": 165.01788491666667,
            "velocity": 0.3937007874015748
          },
          {
            "duration": 0.10869550000001027,
            "durationTicks": 96,
            "midi": 55,
            "name": "G3",
            "ticks": 145744,
            "time": 165.01788491666667,
            "velocity": 0.3937007874015748
          },
          {
            "duration": 0.10869550000001027,
            "durationTicks": 96,
            "midi": 63,
            "name": "D#4",
            "ticks": 145744,
            "time": 165.01788491666667,
            "velocity": 0.3937007874015748
          },
          {
            "duration": 0.21739099999999212,
            "durationTicks": 192,
            "midi": 54,
            "name": "F#3",
            "ticks": 145744,
            "time": 165.01788491666667,
            "velocity": 0.3937007874015748
          },
          {
            "duration": 0.21739099999999212,
            "durationTicks": 192,
            "midi": 58,
            "name": "A#3",
            "ticks": 145744,
            "time": 165.01788491666667,
            "velocity": 0.3937007874015748
          },
          {
            "duration": 0.10869550000001027,
            "durationTicks": 96,
            "midi": 27,
            "name": "D#1",
            "ticks": 145744,
            "time": 165.01788491666667,
            "velocity": 0.3937007874015748
          },
          {
            "duration": 0.10869550000001027,
            "durationTicks": 96,
            "midi": 51,
            "name": "D#3",
            "ticks": 145744,
            "time": 165.01788491666667,
            "velocity": 0.3937007874015748
          },
          {
            "duration": 0.21739099999999212,
            "durationTicks": 192,
            "midi": 63,
            "name": "D#4",
            "ticks": 145744,
            "time": 165.01788491666667,
            "velocity": 0.3937007874015748
          },
          {
            "duration": 0.10869550000001027,
            "durationTicks": 96,
            "midi": 39,
            "name": "D#2",
            "ticks": 145744,
            "time": 165.01788491666667,
            "velocity": 0.3937007874015748
          },
          {
            "duration": 0.21739099999999212,
            "durationTicks": 192,
            "midi": 54,
            "name": "F#3",
            "ticks": 145744,
            "time": 165.01788491666667,
            "velocity": 0.3937007874015748
          },
          {
            "duration": 0.10869549999998185,
            "durationTicks": 96,
            "midi": 27,
            "name": "D#1",
            "ticks": 145840,
            "time": 165.12658041666668,
            "velocity": 0.3937007874015748
          },
          {
            "duration": 0.10869549999998185,
            "durationTicks": 96,
            "midi": 63,
            "name": "D#4",
            "ticks": 145840,
            "time": 165.12658041666668,
            "velocity": 0.3937007874015748
          },
          {
            "duration": 0.10869549999998185,
            "durationTicks": 96,
            "midi": 75,
            "name": "D#5",
            "ticks": 145840,
            "time": 165.12658041666668,
            "velocity": 0.3937007874015748
          },
          {
            "duration": 0.10869549999998185,
            "durationTicks": 96,
            "midi": 56,
            "name": "G#3",
            "ticks": 145840,
            "time": 165.12658041666668,
            "velocity": 0.3937007874015748
          },
          {
            "duration": 0.10869549999998185,
            "durationTicks": 96,
            "midi": 39,
            "name": "D#2",
            "ticks": 145840,
            "time": 165.12658041666668,
            "velocity": 0.3937007874015748
          },
          {
            "duration": 0.10869549999998185,
            "durationTicks": 96,
            "midi": 51,
            "name": "D#3",
            "ticks": 145840,
            "time": 165.12658041666668,
            "velocity": 0.3937007874015748
          },
          {
            "duration": 0.10869550000001027,
            "durationTicks": 96,
            "midi": 57,
            "name": "A3",
            "ticks": 145936,
            "time": 165.23527591666667,
            "velocity": 0.3937007874015748
          },
          {
            "duration": 0.21739100000002054,
            "durationTicks": 192,
            "midi": 54,
            "name": "F#3",
            "ticks": 145936,
            "time": 165.23527591666667,
            "velocity": 0.3937007874015748
          },
          {
            "duration": 0.10869550000001027,
            "durationTicks": 96,
            "midi": 63,
            "name": "D#4",
            "ticks": 145936,
            "time": 165.23527591666667,
            "velocity": 0.3937007874015748
          },
          {
            "duration": 0.21739100000002054,
            "durationTicks": 192,
            "midi": 58,
            "name": "A#3",
            "ticks": 145936,
            "time": 165.23527591666667,
            "velocity": 0.3937007874015748
          },
          {
            "duration": 0.21739100000002054,
            "durationTicks": 192,
            "midi": 63,
            "name": "D#4",
            "ticks": 145936,
            "time": 165.23527591666667,
            "velocity": 0.3937007874015748
          },
          {
            "duration": 0.21739100000002054,
            "durationTicks": 192,
            "midi": 55,
            "name": "G3",
            "ticks": 145936,
            "time": 165.23527591666667,
            "velocity": 0.3937007874015748
          },
          {
            "duration": 0.21739100000002054,
            "durationTicks": 192,
            "midi": 34,
            "name": "A#1",
            "ticks": 145936,
            "time": 165.23527591666667,
            "velocity": 0.3937007874015748
          },
          {
            "duration": 0.10869550000001027,
            "durationTicks": 96,
            "midi": 51,
            "name": "D#3",
            "ticks": 145936,
            "time": 165.23527591666667,
            "velocity": 0.3937007874015748
          },
          {
            "duration": 0.10869550000001027,
            "durationTicks": 96,
            "midi": 27,
            "name": "D#1",
            "ticks": 145936,
            "time": 165.23527591666667,
            "velocity": 0.3937007874015748
          },
          {
            "duration": 0.10869550000001027,
            "durationTicks": 96,
            "midi": 39,
            "name": "D#2",
            "ticks": 145936,
            "time": 165.23527591666667,
            "velocity": 0.3937007874015748
          },
          {
            "duration": 0.10869550000001027,
            "durationTicks": 96,
            "midi": 39,
            "name": "D#2",
            "ticks": 146032,
            "time": 165.34397141666668,
            "velocity": 0.3937007874015748
          },
          {
            "duration": 0.10869550000001027,
            "durationTicks": 96,
            "midi": 58,
            "name": "A#3",
            "ticks": 146032,
            "time": 165.34397141666668,
            "velocity": 0.3937007874015748
          },
          {
            "duration": 0.10869550000001027,
            "durationTicks": 96,
            "midi": 27,
            "name": "D#1",
            "ticks": 146032,
            "time": 165.34397141666668,
            "velocity": 0.3937007874015748
          },
          {
            "duration": 0.10869550000001027,
            "durationTicks": 96,
            "midi": 75,
            "name": "D#5",
            "ticks": 146032,
            "time": 165.34397141666668,
            "velocity": 0.3937007874015748
          },
          {
            "duration": 0.10869550000001027,
            "durationTicks": 96,
            "midi": 63,
            "name": "D#4",
            "ticks": 146032,
            "time": 165.34397141666668,
            "velocity": 0.3937007874015748
          },
          {
            "duration": 0.10869550000001027,
            "durationTicks": 96,
            "midi": 51,
            "name": "D#3",
            "ticks": 146032,
            "time": 165.34397141666668,
            "velocity": 0.3937007874015748
          },
          {
            "duration": 0.21739099999999212,
            "durationTicks": 192,
            "midi": 63,
            "name": "D#4",
            "ticks": 146128,
            "time": 165.4526669166667,
            "velocity": 0.3937007874015748
          },
          {
            "duration": 0.10869549999998185,
            "durationTicks": 96,
            "midi": 27,
            "name": "D#1",
            "ticks": 146128,
            "time": 165.4526669166667,
            "velocity": 0.3937007874015748
          },
          {
            "duration": 0.10869549999998185,
            "durationTicks": 96,
            "midi": 37,
            "name": "C#2",
            "ticks": 146128,
            "time": 165.4526669166667,
            "velocity": 0.3937007874015748
          },
          {
            "duration": 0.21739099999999212,
            "durationTicks": 192,
            "midi": 54,
            "name": "F#3",
            "ticks": 146128,
            "time": 165.4526669166667,
            "velocity": 0.3937007874015748
          },
          {
            "duration": 0.10869549999998185,
            "durationTicks": 96,
            "midi": 73,
            "name": "C#5",
            "ticks": 146128,
            "time": 165.4526669166667,
            "velocity": 0.3937007874015748
          },
          {
            "duration": 0.10869549999998185,
            "durationTicks": 96,
            "midi": 49,
            "name": "C#3",
            "ticks": 146128,
            "time": 165.4526669166667,
            "velocity": 0.3937007874015748
          },
          {
            "duration": 0.10869549999998185,
            "durationTicks": 96,
            "midi": 61,
            "name": "C#4",
            "ticks": 146128,
            "time": 165.4526669166667,
            "velocity": 0.3937007874015748
          },
          {
            "duration": 0.10869549999998185,
            "durationTicks": 96,
            "midi": 59,
            "name": "B3",
            "ticks": 146128,
            "time": 165.4526669166667,
            "velocity": 0.3937007874015748
          },
          {
            "duration": 0.21739099999999212,
            "durationTicks": 192,
            "midi": 56,
            "name": "G#3",
            "ticks": 146128,
            "time": 165.4526669166667,
            "velocity": 0.3937007874015748
          },
          {
            "duration": 0.21739099999999212,
            "durationTicks": 192,
            "midi": 58,
            "name": "A#3",
            "ticks": 146128,
            "time": 165.4526669166667,
            "velocity": 0.3937007874015748
          },
          {
            "duration": 0.10869550000001027,
            "durationTicks": 96,
            "midi": 39,
            "name": "D#2",
            "ticks": 146224,
            "time": 165.56136241666667,
            "velocity": 0.3937007874015748
          },
          {
            "duration": 0.10869550000001027,
            "durationTicks": 96,
            "midi": 51,
            "name": "D#3",
            "ticks": 146224,
            "time": 165.56136241666667,
            "velocity": 0.3937007874015748
          },
          {
            "duration": 0.10869550000001027,
            "durationTicks": 96,
            "midi": 63,
            "name": "D#4",
            "ticks": 146224,
            "time": 165.56136241666667,
            "velocity": 0.3937007874015748
          },
          {
            "duration": 0.10869550000001027,
            "durationTicks": 96,
            "midi": 60,
            "name": "C4",
            "ticks": 146224,
            "time": 165.56136241666667,
            "velocity": 0.3937007874015748
          },
          {
            "duration": 0.10869550000001027,
            "durationTicks": 96,
            "midi": 27,
            "name": "D#1",
            "ticks": 146224,
            "time": 165.56136241666667,
            "velocity": 0.3937007874015748
          },
          {
            "duration": 0.10869550000001027,
            "durationTicks": 96,
            "midi": 75,
            "name": "D#5",
            "ticks": 146224,
            "time": 165.56136241666667,
            "velocity": 0.3937007874015748
          },
          {
            "duration": 0.21739099999999212,
            "durationTicks": 192,
            "midi": 34,
            "name": "A#1",
            "ticks": 146320,
            "time": 165.67005791666668,
            "velocity": 0.3937007874015748
          },
          {
            "duration": 0.21739099999999212,
            "durationTicks": 192,
            "midi": 58,
            "name": "A#3",
            "ticks": 146320,
            "time": 165.67005791666668,
            "velocity": 0.3937007874015748
          },
          {
            "duration": 0.10869550000001027,
            "durationTicks": 96,
            "midi": 63,
            "name": "D#4",
            "ticks": 146320,
            "time": 165.67005791666668,
            "velocity": 0.3937007874015748
          },
          {
            "duration": 0.21739099999999212,
            "durationTicks": 192,
            "midi": 54,
            "name": "F#3",
            "ticks": 146320,
            "time": 165.67005791666668,
            "velocity": 0.3937007874015748
          },
          {
            "duration": 0.10869550000001027,
            "durationTicks": 96,
            "midi": 61,
            "name": "C#4",
            "ticks": 146320,
            "time": 165.67005791666668,
            "velocity": 0.3937007874015748
          },
          {
            "duration": 0.21739099999999212,
            "durationTicks": 192,
            "midi": 63,
            "name": "D#4",
            "ticks": 146320,
            "time": 165.67005791666668,
            "velocity": 0.3937007874015748
          },
          {
            "duration": 0.10869550000001027,
            "durationTicks": 96,
            "midi": 39,
            "name": "D#2",
            "ticks": 146320,
            "time": 165.67005791666668,
            "velocity": 0.3937007874015748
          },
          {
            "duration": 0.10869550000001027,
            "durationTicks": 96,
            "midi": 27,
            "name": "D#1",
            "ticks": 146320,
            "time": 165.67005791666668,
            "velocity": 0.3937007874015748
          },
          {
            "duration": 0.10869550000001027,
            "durationTicks": 96,
            "midi": 51,
            "name": "D#3",
            "ticks": 146320,
            "time": 165.67005791666668,
            "velocity": 0.3937007874015748
          },
          {
            "duration": 0.21739099999999212,
            "durationTicks": 192,
            "midi": 57,
            "name": "A3",
            "ticks": 146320,
            "time": 165.67005791666668,
            "velocity": 0.3937007874015748
          },
          {
            "duration": 0.10869549999998185,
            "durationTicks": 96,
            "midi": 27,
            "name": "D#1",
            "ticks": 146416,
            "time": 165.7787534166667,
            "velocity": 0.3937007874015748
          },
          {
            "duration": 0.10869549999998185,
            "durationTicks": 96,
            "midi": 62,
            "name": "D4",
            "ticks": 146416,
            "time": 165.7787534166667,
            "velocity": 0.3937007874015748
          },
          {
            "duration": 0.21739099999999212,
            "durationTicks": 192,
            "midi": 54,
            "name": "F#3",
            "ticks": 146512,
            "time": 165.88744891666667,
            "velocity": 0.3937007874015748
          },
          {
            "duration": 0.21739099999999212,
            "durationTicks": 192,
            "midi": 58,
            "name": "A#3",
            "ticks": 146512,
            "time": 165.88744891666667,
            "velocity": 0.3937007874015748
          },
          {
            "duration": 0.10869550000001027,
            "durationTicks": 96,
            "midi": 39,
            "name": "D#2",
            "ticks": 146512,
            "time": 165.88744891666667,
            "velocity": 0.3937007874015748
          },
          {
            "duration": 0.10869550000001027,
            "durationTicks": 96,
            "midi": 63,
            "name": "D#4",
            "ticks": 146512,
            "time": 165.88744891666667,
            "velocity": 0.3937007874015748
          },
          {
            "duration": 0.10869550000001027,
            "durationTicks": 96,
            "midi": 27,
            "name": "D#1",
            "ticks": 146512,
            "time": 165.88744891666667,
            "velocity": 0.3937007874015748
          },
          {
            "duration": 0.10869550000001027,
            "durationTicks": 96,
            "midi": 63,
            "name": "D#4",
            "ticks": 146512,
            "time": 165.88744891666667,
            "velocity": 0.3937007874015748
          },
          {
            "duration": 0.10869550000001027,
            "durationTicks": 96,
            "midi": 75,
            "name": "D#5",
            "ticks": 146512,
            "time": 165.88744891666667,
            "velocity": 0.3937007874015748
          },
          {
            "duration": 0.21739099999999212,
            "durationTicks": 192,
            "midi": 63,
            "name": "D#4",
            "ticks": 146512,
            "time": 165.88744891666667,
            "velocity": 0.3937007874015748
          },
          {
            "duration": 0.10869550000001027,
            "durationTicks": 96,
            "midi": 51,
            "name": "D#3",
            "ticks": 146512,
            "time": 165.88744891666667,
            "velocity": 0.3937007874015748
          },
          {
            "duration": 0.21739099999999212,
            "durationTicks": 192,
            "midi": 58,
            "name": "A#3",
            "ticks": 146512,
            "time": 165.88744891666667,
            "velocity": 0.3937007874015748
          },
          {
            "duration": 0.10869549999998185,
            "durationTicks": 96,
            "midi": 75,
            "name": "D#5",
            "ticks": 146608,
            "time": 165.99614441666668,
            "velocity": 0.3937007874015748
          },
          {
            "duration": 0.10869549999998185,
            "durationTicks": 96,
            "midi": 27,
            "name": "D#1",
            "ticks": 146608,
            "time": 165.99614441666668,
            "velocity": 0.3937007874015748
          },
          {
            "duration": 0.10869549999998185,
            "durationTicks": 96,
            "midi": 63,
            "name": "D#4",
            "ticks": 146608,
            "time": 165.99614441666668,
            "velocity": 0.3937007874015748
          },
          {
            "duration": 0.10869549999998185,
            "durationTicks": 96,
            "midi": 64,
            "name": "E4",
            "ticks": 146608,
            "time": 165.99614441666668,
            "velocity": 0.3937007874015748
          },
          {
            "duration": 0.10869549999998185,
            "durationTicks": 96,
            "midi": 51,
            "name": "D#3",
            "ticks": 146608,
            "time": 165.99614441666668,
            "velocity": 0.3937007874015748
          },
          {
            "duration": 0.10869549999998185,
            "durationTicks": 96,
            "midi": 39,
            "name": "D#2",
            "ticks": 146608,
            "time": 165.99614441666668,
            "velocity": 0.3937007874015748
          },
          {
            "duration": 0.21739100000002054,
            "durationTicks": 192,
            "midi": 54,
            "name": "F#3",
            "ticks": 146704,
            "time": 166.10483991666666,
            "velocity": 0.3937007874015748
          },
          {
            "duration": 0.21739100000002054,
            "durationTicks": 192,
            "midi": 58,
            "name": "A#3",
            "ticks": 146704,
            "time": 166.10483991666666,
            "velocity": 0.3937007874015748
          },
          {
            "duration": 0.10869550000001027,
            "durationTicks": 96,
            "midi": 27,
            "name": "D#1",
            "ticks": 146704,
            "time": 166.10483991666666,
            "velocity": 0.3937007874015748
          },
          {
            "duration": 0.10869550000001027,
            "durationTicks": 96,
            "midi": 63,
            "name": "D#4",
            "ticks": 146704,
            "time": 166.10483991666666,
            "velocity": 0.3937007874015748
          },
          {
            "duration": 0.10869550000001027,
            "durationTicks": 96,
            "midi": 39,
            "name": "D#2",
            "ticks": 146704,
            "time": 166.10483991666666,
            "velocity": 0.3937007874015748
          },
          {
            "duration": 0.21739100000002054,
            "durationTicks": 192,
            "midi": 59,
            "name": "B3",
            "ticks": 146704,
            "time": 166.10483991666666,
            "velocity": 0.3937007874015748
          },
          {
            "duration": 0.21739100000002054,
            "durationTicks": 192,
            "midi": 63,
            "name": "D#4",
            "ticks": 146704,
            "time": 166.10483991666666,
            "velocity": 0.3937007874015748
          },
          {
            "duration": 0.10869550000001027,
            "durationTicks": 96,
            "midi": 65,
            "name": "F4",
            "ticks": 146704,
            "time": 166.10483991666666,
            "velocity": 0.3937007874015748
          },
          {
            "duration": 0.10869550000001027,
            "durationTicks": 96,
            "midi": 51,
            "name": "D#3",
            "ticks": 146704,
            "time": 166.10483991666666,
            "velocity": 0.3937007874015748
          },
          {
            "duration": 0.21739100000002054,
            "durationTicks": 192,
            "midi": 34,
            "name": "A#1",
            "ticks": 146704,
            "time": 166.10483991666666,
            "velocity": 0.3937007874015748
          },
          {
            "duration": 0.10869550000001027,
            "durationTicks": 96,
            "midi": 51,
            "name": "D#3",
            "ticks": 146800,
            "time": 166.21353541666667,
            "velocity": 0.3937007874015748
          },
          {
            "duration": 0.10869550000001027,
            "durationTicks": 96,
            "midi": 27,
            "name": "D#1",
            "ticks": 146800,
            "time": 166.21353541666667,
            "velocity": 0.3937007874015748
          },
          {
            "duration": 0.10869550000001027,
            "durationTicks": 96,
            "midi": 63,
            "name": "D#4",
            "ticks": 146800,
            "time": 166.21353541666667,
            "velocity": 0.3937007874015748
          },
          {
            "duration": 0.10869550000001027,
            "durationTicks": 96,
            "midi": 75,
            "name": "D#5",
            "ticks": 146800,
            "time": 166.21353541666667,
            "velocity": 0.3937007874015748
          },
          {
            "duration": 0.10869550000001027,
            "durationTicks": 96,
            "midi": 39,
            "name": "D#2",
            "ticks": 146800,
            "time": 166.21353541666667,
            "velocity": 0.3937007874015748
          },
          {
            "duration": 0.10869550000001027,
            "durationTicks": 96,
            "midi": 66,
            "name": "F#4",
            "ticks": 146800,
            "time": 166.21353541666667,
            "velocity": 0.3937007874015748
          },
          {
            "duration": 0.10869549999998185,
            "durationTicks": 96,
            "midi": 27,
            "name": "D#1",
            "ticks": 146896,
            "time": 166.32223091666668,
            "velocity": 0.3937007874015748
          },
          {
            "duration": 0.21739099999999212,
            "durationTicks": 192,
            "midi": 58,
            "name": "A#3",
            "ticks": 146896,
            "time": 166.32223091666668,
            "velocity": 0.3937007874015748
          },
          {
            "duration": 0.21739099999999212,
            "durationTicks": 192,
            "midi": 54,
            "name": "F#3",
            "ticks": 146896,
            "time": 166.32223091666668,
            "velocity": 0.3937007874015748
          },
          {
            "duration": 0.10869549999998185,
            "durationTicks": 96,
            "midi": 67,
            "name": "G4",
            "ticks": 146896,
            "time": 166.32223091666668,
            "velocity": 0.3937007874015748
          },
          {
            "duration": 0.10869549999998185,
            "durationTicks": 96,
            "midi": 61,
            "name": "C#4",
            "ticks": 146896,
            "time": 166.32223091666668,
            "velocity": 0.3937007874015748
          },
          {
            "duration": 0.21739099999999212,
            "durationTicks": 192,
            "midi": 60,
            "name": "C4",
            "ticks": 146896,
            "time": 166.32223091666668,
            "velocity": 0.3937007874015748
          },
          {
            "duration": 0.10869549999998185,
            "durationTicks": 96,
            "midi": 37,
            "name": "C#2",
            "ticks": 146896,
            "time": 166.32223091666668,
            "velocity": 0.3937007874015748
          },
          {
            "duration": 0.21739099999999212,
            "durationTicks": 192,
            "midi": 63,
            "name": "D#4",
            "ticks": 146896,
            "time": 166.32223091666668,
            "velocity": 0.3937007874015748
          },
          {
            "duration": 0.10869549999998185,
            "durationTicks": 96,
            "midi": 49,
            "name": "C#3",
            "ticks": 146896,
            "time": 166.32223091666668,
            "velocity": 0.3937007874015748
          },
          {
            "duration": 0.10869549999998185,
            "durationTicks": 96,
            "midi": 73,
            "name": "C#5",
            "ticks": 146896,
            "time": 166.32223091666668,
            "velocity": 0.3937007874015748
          },
          {
            "duration": 0.10869550000001027,
            "durationTicks": 96,
            "midi": 63,
            "name": "D#4",
            "ticks": 146992,
            "time": 166.43092641666667,
            "velocity": 0.3937007874015748
          },
          {
            "duration": 0.10869550000001027,
            "durationTicks": 96,
            "midi": 27,
            "name": "D#1",
            "ticks": 146992,
            "time": 166.43092641666667,
            "velocity": 0.3937007874015748
          },
          {
            "duration": 0.10869550000001027,
            "durationTicks": 96,
            "midi": 75,
            "name": "D#5",
            "ticks": 146992,
            "time": 166.43092641666667,
            "velocity": 0.3937007874015748
          },
          {
            "duration": 0.10869550000001027,
            "durationTicks": 96,
            "midi": 39,
            "name": "D#2",
            "ticks": 146992,
            "time": 166.43092641666667,
            "velocity": 0.3937007874015748
          },
          {
            "duration": 0.10869550000001027,
            "durationTicks": 96,
            "midi": 51,
            "name": "D#3",
            "ticks": 146992,
            "time": 166.43092641666667,
            "velocity": 0.3937007874015748
          },
          {
            "duration": 0.10869550000001027,
            "durationTicks": 96,
            "midi": 68,
            "name": "G#4",
            "ticks": 146992,
            "time": 166.43092641666667,
            "velocity": 0.3937007874015748
          },
          {
            "duration": 0.21739099999999212,
            "durationTicks": 192,
            "midi": 34,
            "name": "A#1",
            "ticks": 147088,
            "time": 166.53962191666668,
            "velocity": 0.3937007874015748
          },
          {
            "duration": 0.10869550000001027,
            "durationTicks": 96,
            "midi": 27,
            "name": "D#1",
            "ticks": 147088,
            "time": 166.53962191666668,
            "velocity": 0.3937007874015748
          },
          {
            "duration": 0.10869550000001027,
            "durationTicks": 96,
            "midi": 44,
            "name": "G#2",
            "ticks": 147088,
            "time": 166.53962191666668,
            "velocity": 0.3937007874015748
          },
          {
            "duration": 0.10869550000001027,
            "durationTicks": 96,
            "midi": 69,
            "name": "A4",
            "ticks": 147088,
            "time": 166.53962191666668,
            "velocity": 0.3937007874015748
          },
          {
            "duration": 0.21739099999999212,
            "durationTicks": 192,
            "midi": 59,
            "name": "B3",
            "ticks": 147088,
            "time": 166.53962191666668,
            "velocity": 0.3937007874015748
          },
          {
            "duration": 0.21739099999999212,
            "durationTicks": 192,
            "midi": 63,
            "name": "D#4",
            "ticks": 147088,
            "time": 166.53962191666668,
            "velocity": 0.3937007874015748
          },
          {
            "duration": 0.10869550000001027,
            "durationTicks": 96,
            "midi": 68,
            "name": "G#4",
            "ticks": 147088,
            "time": 166.53962191666668,
            "velocity": 0.3937007874015748
          },
          {
            "duration": 0.10869550000001027,
            "durationTicks": 96,
            "midi": 80,
            "name": "G#5",
            "ticks": 147088,
            "time": 166.53962191666668,
            "velocity": 0.3937007874015748
          },
          {
            "duration": 0.21739099999999212,
            "durationTicks": 192,
            "midi": 61,
            "name": "C#4",
            "ticks": 147088,
            "time": 166.53962191666668,
            "velocity": 0.3937007874015748
          },
          {
            "duration": 0.10869550000001027,
            "durationTicks": 96,
            "midi": 56,
            "name": "G#3",
            "ticks": 147088,
            "time": 166.53962191666668,
            "velocity": 0.3937007874015748
          },
          {
            "duration": 0.21739099999999212,
            "durationTicks": 192,
            "midi": 56,
            "name": "G#3",
            "ticks": 147088,
            "time": 166.53962191666668,
            "velocity": 0.3937007874015748
          },
          {
            "duration": 0.10869549999998185,
            "durationTicks": 96,
            "midi": 27,
            "name": "D#1",
            "ticks": 147184,
            "time": 166.64831741666669,
            "velocity": 0.3937007874015748
          },
          {
            "duration": 0.10869549999998185,
            "durationTicks": 96,
            "midi": 70,
            "name": "A#4",
            "ticks": 147184,
            "time": 166.64831741666669,
            "velocity": 0.3937007874015748
          },
          {
            "duration": 0.21739100000002054,
            "durationTicks": 192,
            "midi": 59,
            "name": "B3",
            "ticks": 147280,
            "time": 166.75701291666667,
            "velocity": 0.3937007874015748
          },
          {
            "duration": 0.21739100000002054,
            "durationTicks": 192,
            "midi": 56,
            "name": "G#3",
            "ticks": 147280,
            "time": 166.75701291666667,
            "velocity": 0.3937007874015748
          },
          {
            "duration": 0.10869550000001027,
            "durationTicks": 96,
            "midi": 71,
            "name": "B4",
            "ticks": 147280,
            "time": 166.75701291666667,
            "velocity": 0.3937007874015748
          },
          {
            "duration": 0.10869550000001027,
            "durationTicks": 96,
            "midi": 42,
            "name": "F#2",
            "ticks": 147280,
            "time": 166.75701291666667,
            "velocity": 0.3937007874015748
          },
          {
            "duration": 0.10869550000001027,
            "durationTicks": 96,
            "midi": 27,
            "name": "D#1",
            "ticks": 147280,
            "time": 166.75701291666667,
            "velocity": 0.3937007874015748
          },
          {
            "duration": 0.21739100000002054,
            "durationTicks": 192,
            "midi": 62,
            "name": "D4",
            "ticks": 147280,
            "time": 166.75701291666667,
            "velocity": 0.3937007874015748
          },
          {
            "duration": 0.10869550000001027,
            "durationTicks": 96,
            "midi": 54,
            "name": "F#3",
            "ticks": 147280,
            "time": 166.75701291666667,
            "velocity": 0.3937007874015748
          },
          {
            "duration": 0.21739100000002054,
            "durationTicks": 192,
            "midi": 63,
            "name": "D#4",
            "ticks": 147280,
            "time": 166.75701291666667,
            "velocity": 0.3937007874015748
          },
          {
            "duration": 0.10869550000001027,
            "durationTicks": 96,
            "midi": 66,
            "name": "F#4",
            "ticks": 147280,
            "time": 166.75701291666667,
            "velocity": 0.3937007874015748
          },
          {
            "duration": 0.10869550000001027,
            "durationTicks": 96,
            "midi": 78,
            "name": "F#5",
            "ticks": 147280,
            "time": 166.75701291666667,
            "velocity": 0.3937007874015748
          },
          {
            "duration": 0.10869550000001027,
            "durationTicks": 96,
            "midi": 44,
            "name": "G#2",
            "ticks": 147376,
            "time": 166.86570841666668,
            "velocity": 0.3937007874015748
          },
          {
            "duration": 0.10869550000001027,
            "durationTicks": 96,
            "midi": 27,
            "name": "D#1",
            "ticks": 147376,
            "time": 166.86570841666668,
            "velocity": 0.3937007874015748
          },
          {
            "duration": 0.10869550000001027,
            "durationTicks": 96,
            "midi": 72,
            "name": "C5",
            "ticks": 147376,
            "time": 166.86570841666668,
            "velocity": 0.3937007874015748
          },
          {
            "duration": 0.10869550000001027,
            "durationTicks": 96,
            "midi": 56,
            "name": "G#3",
            "ticks": 147376,
            "time": 166.86570841666668,
            "velocity": 0.3937007874015748
          },
          {
            "duration": 0.10869550000001027,
            "durationTicks": 96,
            "midi": 68,
            "name": "G#4",
            "ticks": 147376,
            "time": 166.86570841666668,
            "velocity": 0.3937007874015748
          },
          {
            "duration": 0.10869550000001027,
            "durationTicks": 96,
            "midi": 80,
            "name": "G#5",
            "ticks": 147376,
            "time": 166.86570841666668,
            "velocity": 0.3937007874015748
          },
          {
            "duration": 0.21739099999999212,
            "durationTicks": 192,
            "midi": 34,
            "name": "A#1",
            "ticks": 147472,
            "time": 166.9744039166667,
            "velocity": 0.3937007874015748
          },
          {
            "duration": 0.10869549999998185,
            "durationTicks": 96,
            "midi": 73,
            "name": "C#5",
            "ticks": 147472,
            "time": 166.9744039166667,
            "velocity": 0.3937007874015748
          },
          {
            "duration": 0.10869549999998185,
            "durationTicks": 96,
            "midi": 78,
            "name": "F#5",
            "ticks": 147472,
            "time": 166.9744039166667,
            "velocity": 0.3937007874015748
          },
          {
            "duration": 0.21739099999999212,
            "durationTicks": 192,
            "midi": 63,
            "name": "D#4",
            "ticks": 147472,
            "time": 166.9744039166667,
            "velocity": 0.3937007874015748
          },
          {
            "duration": 0.10869549999998185,
            "durationTicks": 96,
            "midi": 42,
            "name": "F#2",
            "ticks": 147472,
            "time": 166.9744039166667,
            "velocity": 0.3937007874015748
          },
          {
            "duration": 0.10869549999998185,
            "durationTicks": 96,
            "midi": 54,
            "name": "F#3",
            "ticks": 147472,
            "time": 166.9744039166667,
            "velocity": 0.3937007874015748
          },
          {
            "duration": 0.21739099999999212,
            "durationTicks": 192,
            "midi": 61,
            "name": "C#4",
            "ticks": 147472,
            "time": 166.9744039166667,
            "velocity": 0.3937007874015748
          },
          {
            "duration": 0.10869549999998185,
            "durationTicks": 96,
            "midi": 27,
            "name": "D#1",
            "ticks": 147472,
            "time": 166.9744039166667,
            "velocity": 0.3937007874015748
          },
          {
            "duration": 0.21739099999999212,
            "durationTicks": 192,
            "midi": 58,
            "name": "A#3",
            "ticks": 147472,
            "time": 166.9744039166667,
            "velocity": 0.3937007874015748
          },
          {
            "duration": 0.10869549999998185,
            "durationTicks": 96,
            "midi": 66,
            "name": "F#4",
            "ticks": 147472,
            "time": 166.9744039166667,
            "velocity": 0.3937007874015748
          },
          {
            "duration": 0.21739099999999212,
            "durationTicks": 192,
            "midi": 54,
            "name": "F#3",
            "ticks": 147472,
            "time": 166.9744039166667,
            "velocity": 0.3937007874015748
          },
          {
            "duration": 0.10869550000001027,
            "durationTicks": 96,
            "midi": 74,
            "name": "D5",
            "ticks": 147568,
            "time": 167.08309941666667,
            "velocity": 0.3937007874015748
          },
          {
            "duration": 0.10869550000001027,
            "durationTicks": 96,
            "midi": 27,
            "name": "D#1",
            "ticks": 147568,
            "time": 167.08309941666667,
            "velocity": 0.3937007874015748
          },
          {
            "duration": 0.10869549999998185,
            "durationTicks": 96,
            "midi": 63,
            "name": "D#4",
            "ticks": 147664,
            "time": 167.19179491666668,
            "velocity": 0.3937007874015748
          },
          {
            "duration": 0.21739099999999212,
            "durationTicks": 192,
            "midi": 58,
            "name": "A#3",
            "ticks": 147664,
            "time": 167.19179491666668,
            "velocity": 0.3937007874015748
          },
          {
            "duration": 0.10869549999998185,
            "durationTicks": 96,
            "midi": 39,
            "name": "D#2",
            "ticks": 147664,
            "time": 167.19179491666668,
            "velocity": 0.3937007874015748
          },
          {
            "duration": 0.10869549999998185,
            "durationTicks": 96,
            "midi": 51,
            "name": "D#3",
            "ticks": 147664,
            "time": 167.19179491666668,
            "velocity": 0.3937007874015748
          },
          {
            "duration": 0.21739099999999212,
            "durationTicks": 192,
            "midi": 61,
            "name": "C#4",
            "ticks": 147664,
            "time": 167.19179491666668,
            "velocity": 0.3937007874015748
          },
          {
            "duration": 0.21739099999999212,
            "durationTicks": 192,
            "midi": 64,
            "name": "E4",
            "ticks": 147664,
            "time": 167.19179491666668,
            "velocity": 0.3937007874015748
          },
          {
            "duration": 0.10869549999998185,
            "durationTicks": 96,
            "midi": 27,
            "name": "D#1",
            "ticks": 147664,
            "time": 167.19179491666668,
            "velocity": 0.3937007874015748
          },
          {
            "duration": 0.21739099999999212,
            "durationTicks": 192,
            "midi": 54,
            "name": "F#3",
            "ticks": 147664,
            "time": 167.19179491666668,
            "velocity": 0.3937007874015748
          },
          {
            "duration": 0.10869549999998185,
            "durationTicks": 96,
            "midi": 75,
            "name": "D#5",
            "ticks": 147664,
            "time": 167.19179491666668,
            "velocity": 0.3937007874015748
          },
          {
            "duration": 0.10869549999998185,
            "durationTicks": 96,
            "midi": 75,
            "name": "D#5",
            "ticks": 147664,
            "time": 167.19179491666668,
            "velocity": 0.3937007874015748
          },
          {
            "duration": 0.21739099999999212,
            "durationTicks": 192,
            "midi": 34,
            "name": "A#1",
            "ticks": 147664,
            "time": 167.19179491666668,
            "velocity": 0.3937007874015748
          },
          {
            "duration": 0.10869550000001027,
            "durationTicks": 96,
            "midi": 42,
            "name": "F#2",
            "ticks": 147760,
            "time": 167.30049041666666,
            "velocity": 0.3937007874015748
          },
          {
            "duration": 0.10869550000001027,
            "durationTicks": 96,
            "midi": 27,
            "name": "D#1",
            "ticks": 147760,
            "time": 167.30049041666666,
            "velocity": 0.3937007874015748
          },
          {
            "duration": 0.10869550000001027,
            "durationTicks": 96,
            "midi": 76,
            "name": "E5",
            "ticks": 147760,
            "time": 167.30049041666666,
            "velocity": 0.3937007874015748
          },
          {
            "duration": 0.10869550000001027,
            "durationTicks": 96,
            "midi": 66,
            "name": "F#4",
            "ticks": 147760,
            "time": 167.30049041666666,
            "velocity": 0.3937007874015748
          },
          {
            "duration": 0.10869550000001027,
            "durationTicks": 96,
            "midi": 54,
            "name": "F#3",
            "ticks": 147760,
            "time": 167.30049041666666,
            "velocity": 0.3937007874015748
          },
          {
            "duration": 0.10869550000001027,
            "durationTicks": 96,
            "midi": 78,
            "name": "F#5",
            "ticks": 147760,
            "time": 167.30049041666666,
            "velocity": 0.3937007874015748
          },
          {
            "duration": 0.10869550000001027,
            "durationTicks": 96,
            "midi": 39,
            "name": "D#2",
            "ticks": 147856,
            "time": 167.40918591666667,
            "velocity": 0.3937007874015748
          },
          {
            "duration": 0.21739099999999212,
            "durationTicks": 192,
            "midi": 54,
            "name": "F#3",
            "ticks": 147856,
            "time": 167.40918591666667,
            "velocity": 0.3937007874015748
          },
          {
            "duration": 0.21739099999999212,
            "durationTicks": 192,
            "midi": 58,
            "name": "A#3",
            "ticks": 147856,
            "time": 167.40918591666667,
            "velocity": 0.3937007874015748
          },
          {
            "duration": 0.10869550000001027,
            "durationTicks": 96,
            "midi": 77,
            "name": "F5",
            "ticks": 147856,
            "time": 167.40918591666667,
            "velocity": 0.3937007874015748
          },
          {
            "duration": 0.10869550000001027,
            "durationTicks": 96,
            "midi": 63,
            "name": "D#4",
            "ticks": 147856,
            "time": 167.40918591666667,
            "velocity": 0.3937007874015748
          },
          {
            "duration": 0.21739099999999212,
            "durationTicks": 192,
            "midi": 65,
            "name": "F4",
            "ticks": 147856,
            "time": 167.40918591666667,
            "velocity": 0.3937007874015748
          },
          {
            "duration": 0.21739099999999212,
            "durationTicks": 192,
            "midi": 63,
            "name": "D#4",
            "ticks": 147856,
            "time": 167.40918591666667,
            "velocity": 0.3937007874015748
          },
          {
            "duration": 0.21739099999999212,
            "durationTicks": 192,
            "midi": 34,
            "name": "A#1",
            "ticks": 147856,
            "time": 167.40918591666667,
            "velocity": 0.3937007874015748
          },
          {
            "duration": 0.10869550000001027,
            "durationTicks": 96,
            "midi": 51,
            "name": "D#3",
            "ticks": 147856,
            "time": 167.40918591666667,
            "velocity": 0.3937007874015748
          },
          {
            "duration": 0.10869549999998185,
            "durationTicks": 96,
            "midi": 78,
            "name": "F#5",
            "ticks": 147952,
            "time": 167.51788141666668,
            "velocity": 0.3937007874015748
          },
          {
            "duration": 0.10869550000001027,
            "durationTicks": 96,
            "midi": 39,
            "name": "D#2",
            "ticks": 148048,
            "time": 167.62657691666666,
            "velocity": 0.3937007874015748
          },
          {
            "duration": 0.21739100000002054,
            "durationTicks": 192,
            "midi": 78,
            "name": "F#5",
            "ticks": 148048,
            "time": 167.62657691666666,
            "velocity": 0.3937007874015748
          },
          {
            "duration": 0.10869550000001027,
            "durationTicks": 96,
            "midi": 79,
            "name": "G5",
            "ticks": 148048,
            "time": 167.62657691666666,
            "velocity": 0.3937007874015748
          },
          {
            "duration": 0.21739100000002054,
            "durationTicks": 192,
            "midi": 66,
            "name": "F#4",
            "ticks": 148048,
            "time": 167.62657691666666,
            "velocity": 0.3937007874015748
          },
          {
            "duration": 0.10869550000001027,
            "durationTicks": 96,
            "midi": 51,
            "name": "D#3",
            "ticks": 148048,
            "time": 167.62657691666666,
            "velocity": 0.3937007874015748
          },
          {
            "duration": 0.21739100000002054,
            "durationTicks": 192,
            "midi": 54,
            "name": "F#3",
            "ticks": 148048,
            "time": 167.62657691666666,
            "velocity": 0.3937007874015748
          },
          {
            "duration": 0.10869550000001027,
            "durationTicks": 96,
            "midi": 63,
            "name": "D#4",
            "ticks": 148048,
            "time": 167.62657691666666,
            "velocity": 0.3937007874015748
          },
          {
            "duration": 0.21739100000002054,
            "durationTicks": 192,
            "midi": 63,
            "name": "D#4",
            "ticks": 148048,
            "time": 167.62657691666666,
            "velocity": 0.3937007874015748
          },
          {
            "duration": 0.21739100000002054,
            "durationTicks": 192,
            "midi": 58,
            "name": "A#3",
            "ticks": 148048,
            "time": 167.62657691666666,
            "velocity": 0.3937007874015748
          },
          {
            "duration": 0.10869550000001027,
            "durationTicks": 96,
            "midi": 75,
            "name": "D#5",
            "ticks": 148048,
            "time": 167.62657691666666,
            "velocity": 0.3937007874015748
          },
          {
            "duration": 0.10869550000001027,
            "durationTicks": 96,
            "midi": 63,
            "name": "D#4",
            "ticks": 148144,
            "time": 167.73527241666667,
            "velocity": 0.3937007874015748
          },
          {
            "duration": 0.10869550000001027,
            "durationTicks": 96,
            "midi": 75,
            "name": "D#5",
            "ticks": 148144,
            "time": 167.73527241666667,
            "velocity": 0.3937007874015748
          },
          {
            "duration": 0.10869550000001027,
            "durationTicks": 96,
            "midi": 51,
            "name": "D#3",
            "ticks": 148144,
            "time": 167.73527241666667,
            "velocity": 0.3937007874015748
          },
          {
            "duration": 0.10869550000001027,
            "durationTicks": 96,
            "midi": 80,
            "name": "G#5",
            "ticks": 148144,
            "time": 167.73527241666667,
            "velocity": 0.3937007874015748
          },
          {
            "duration": 0.10869550000001027,
            "durationTicks": 96,
            "midi": 39,
            "name": "D#2",
            "ticks": 148144,
            "time": 167.73527241666667,
            "velocity": 0.3937007874015748
          },
          {
            "duration": 0.10869549999998185,
            "durationTicks": 96,
            "midi": 81,
            "name": "A5",
            "ticks": 148240,
            "time": 167.84396791666668,
            "velocity": 0.3937007874015748
          },
          {
            "duration": 0.10869549999998185,
            "durationTicks": 96,
            "midi": 39,
            "name": "D#2",
            "ticks": 148240,
            "time": 167.84396791666668,
            "velocity": 0.3937007874015748
          },
          {
            "duration": 0.21739099999999212,
            "durationTicks": 192,
            "midi": 34,
            "name": "A#1",
            "ticks": 148240,
            "time": 167.84396791666668,
            "velocity": 0.3937007874015748
          },
          {
            "duration": 0.10869549999998185,
            "durationTicks": 96,
            "midi": 51,
            "name": "D#3",
            "ticks": 148240,
            "time": 167.84396791666668,
            "velocity": 0.3937007874015748
          },
          {
            "duration": 0.21739099999999212,
            "durationTicks": 192,
            "midi": 54,
            "name": "F#3",
            "ticks": 148240,
            "time": 167.84396791666668,
            "velocity": 0.3937007874015748
          },
          {
            "duration": 0.10869549999998185,
            "durationTicks": 96,
            "midi": 63,
            "name": "D#4",
            "ticks": 148240,
            "time": 167.84396791666668,
            "velocity": 0.3937007874015748
          },
          {
            "duration": 0.21739099999999212,
            "durationTicks": 192,
            "midi": 63,
            "name": "D#4",
            "ticks": 148240,
            "time": 167.84396791666668,
            "velocity": 0.3937007874015748
          },
          {
            "duration": 0.21739099999999212,
            "durationTicks": 192,
            "midi": 58,
            "name": "A#3",
            "ticks": 148240,
            "time": 167.84396791666668,
            "velocity": 0.3937007874015748
          },
          {
            "duration": 0.21739099999999212,
            "durationTicks": 192,
            "midi": 67,
            "name": "G4",
            "ticks": 148240,
            "time": 167.84396791666668,
            "velocity": 0.3937007874015748
          },
          {
            "duration": 0.21739099999999212,
            "durationTicks": 192,
            "midi": 79,
            "name": "G5",
            "ticks": 148240,
            "time": 167.84396791666668,
            "velocity": 0.3937007874015748
          },
          {
            "duration": 0.10869550000001027,
            "durationTicks": 96,
            "midi": 82,
            "name": "A#5",
            "ticks": 148336,
            "time": 167.95266341666667,
            "velocity": 0.3937007874015748
          },
          {
            "duration": 0.10869550000001027,
            "durationTicks": 96,
            "midi": 51,
            "name": "D#3",
            "ticks": 148336,
            "time": 167.95266341666667,
            "velocity": 0.3937007874015748
          },
          {
            "duration": 0.10869550000001027,
            "durationTicks": 96,
            "midi": 63,
            "name": "D#4",
            "ticks": 148336,
            "time": 167.95266341666667,
            "velocity": 0.3937007874015748
          },
          {
            "duration": 0.10869550000001027,
            "durationTicks": 96,
            "midi": 39,
            "name": "D#2",
            "ticks": 148336,
            "time": 167.95266341666667,
            "velocity": 0.3937007874015748
          },
          {
            "duration": 0.10869550000001027,
            "durationTicks": 96,
            "midi": 75,
            "name": "D#5",
            "ticks": 148336,
            "time": 167.95266341666667,
            "velocity": 0.3937007874015748
          },
          {
            "duration": 0.10869550000001027,
            "durationTicks": 96,
            "midi": 37,
            "name": "C#2",
            "ticks": 148432,
            "time": 168.06135891666668,
            "velocity": 0.3937007874015748
          },
          {
            "duration": 0.21739099999999212,
            "durationTicks": 192,
            "midi": 63,
            "name": "D#4",
            "ticks": 148432,
            "time": 168.06135891666668,
            "velocity": 0.3937007874015748
          },
          {
            "duration": 0.10869550000001027,
            "durationTicks": 96,
            "midi": 73,
            "name": "C#5",
            "ticks": 148432,
            "time": 168.06135891666668,
            "velocity": 0.3937007874015748
          },
          {
            "duration": 0.10869550000001027,
            "durationTicks": 96,
            "midi": 83,
            "name": "B5",
            "ticks": 148432,
            "time": 168.06135891666668,
            "velocity": 0.3937007874015748
          },
          {
            "duration": 0.10869550000001027,
            "durationTicks": 96,
            "midi": 61,
            "name": "C#4",
            "ticks": 148432,
            "time": 168.06135891666668,
            "velocity": 0.3937007874015748
          },
          {
            "duration": 0.21739099999999212,
            "durationTicks": 192,
            "midi": 58,
            "name": "A#3",
            "ticks": 148432,
            "time": 168.06135891666668,
            "velocity": 0.3937007874015748
          },
          {
            "duration": 0.10869550000001027,
            "durationTicks": 96,
            "midi": 49,
            "name": "C#3",
            "ticks": 148432,
            "time": 168.06135891666668,
            "velocity": 0.3937007874015748
          },
          {
            "duration": 0.21739099999999212,
            "durationTicks": 192,
            "midi": 68,
            "name": "G#4",
            "ticks": 148432,
            "time": 168.06135891666668,
            "velocity": 0.3937007874015748
          },
          {
            "duration": 0.21739099999999212,
            "durationTicks": 192,
            "midi": 80,
            "name": "G#5",
            "ticks": 148432,
            "time": 168.06135891666668,
            "velocity": 0.3937007874015748
          },
          {
            "duration": 0.21739099999999212,
            "durationTicks": 192,
            "midi": 54,
            "name": "F#3",
            "ticks": 148432,
            "time": 168.06135891666668,
            "velocity": 0.3937007874015748
          },
          {
            "duration": 0.10869549999998185,
            "durationTicks": 96,
            "midi": 51,
            "name": "D#3",
            "ticks": 148528,
            "time": 168.1700544166667,
            "velocity": 0.3937007874015748
          },
          {
            "duration": 0.10869549999998185,
            "durationTicks": 96,
            "midi": 84,
            "name": "C6",
            "ticks": 148528,
            "time": 168.1700544166667,
            "velocity": 0.3937007874015748
          },
          {
            "duration": 0.10869549999998185,
            "durationTicks": 96,
            "midi": 63,
            "name": "D#4",
            "ticks": 148528,
            "time": 168.1700544166667,
            "velocity": 0.3937007874015748
          },
          {
            "duration": 0.10869549999998185,
            "durationTicks": 96,
            "midi": 39,
            "name": "D#2",
            "ticks": 148528,
            "time": 168.1700544166667,
            "velocity": 0.3937007874015748
          },
          {
            "duration": 0.10869549999998185,
            "durationTicks": 96,
            "midi": 75,
            "name": "D#5",
            "ticks": 148528,
            "time": 168.1700544166667,
            "velocity": 0.3937007874015748
          },
          {
            "duration": 0.10869550000001027,
            "durationTicks": 96,
            "midi": 63,
            "name": "D#4",
            "ticks": 148624,
            "time": 168.27874991666667,
            "velocity": 0.3937007874015748
          },
          {
            "duration": 0.21739100000002054,
            "durationTicks": 192,
            "midi": 34,
            "name": "A#1",
            "ticks": 148624,
            "time": 168.27874991666667,
            "velocity": 0.3937007874015748
          },
          {
            "duration": 0.21739100000002054,
            "durationTicks": 192,
            "midi": 81,
            "name": "A5",
            "ticks": 148624,
            "time": 168.27874991666667,
            "velocity": 0.3937007874015748
          },
          {
            "duration": 0.21739100000002054,
            "durationTicks": 192,
            "midi": 54,
            "name": "F#3",
            "ticks": 148624,
            "time": 168.27874991666667,
            "velocity": 0.3937007874015748
          },
          {
            "duration": 0.21739100000002054,
            "durationTicks": 192,
            "midi": 69,
            "name": "A4",
            "ticks": 148624,
            "time": 168.27874991666667,
            "velocity": 0.3937007874015748
          },
          {
            "duration": 0.10869550000001027,
            "durationTicks": 96,
            "midi": 39,
            "name": "D#2",
            "ticks": 148624,
            "time": 168.27874991666667,
            "velocity": 0.3937007874015748
          },
          {
            "duration": 0.21739100000002054,
            "durationTicks": 192,
            "midi": 58,
            "name": "A#3",
            "ticks": 148624,
            "time": 168.27874991666667,
            "velocity": 0.3937007874015748
          },
          {
            "duration": 0.21739100000002054,
            "durationTicks": 192,
            "midi": 63,
            "name": "D#4",
            "ticks": 148624,
            "time": 168.27874991666667,
            "velocity": 0.3937007874015748
          },
          {
            "duration": 0.10869550000001027,
            "durationTicks": 96,
            "midi": 51,
            "name": "D#3",
            "ticks": 148624,
            "time": 168.27874991666667,
            "velocity": 0.3937007874015748
          },
          {
            "duration": 0.10869550000001027,
            "durationTicks": 96,
            "midi": 85,
            "name": "C#6",
            "ticks": 148624,
            "time": 168.27874991666667,
            "velocity": 0.3937007874015748
          },
          {
            "duration": 0.10869550000001027,
            "durationTicks": 96,
            "midi": 86,
            "name": "D6",
            "ticks": 148720,
            "time": 168.38744541666668,
            "velocity": 0.3937007874015748
          },
          {
            "duration": 0.10869549999998185,
            "durationTicks": 96,
            "midi": 63,
            "name": "D#4",
            "ticks": 148816,
            "time": 168.4961409166667,
            "velocity": 0.3937007874015748
          },
          {
            "duration": 0.10869549999998185,
            "durationTicks": 96,
            "midi": 75,
            "name": "D#5",
            "ticks": 148816,
            "time": 168.4961409166667,
            "velocity": 0.3937007874015748
          },
          {
            "duration": 0.10869549999998185,
            "durationTicks": 96,
            "midi": 87,
            "name": "D#6",
            "ticks": 148816,
            "time": 168.4961409166667,
            "velocity": 0.3937007874015748
          },
          {
            "duration": 0.21739099999999212,
            "durationTicks": 192,
            "midi": 58,
            "name": "A#3",
            "ticks": 148816,
            "time": 168.4961409166667,
            "velocity": 0.3937007874015748
          },
          {
            "duration": 0.21739099999999212,
            "durationTicks": 192,
            "midi": 63,
            "name": "D#4",
            "ticks": 148816,
            "time": 168.4961409166667,
            "velocity": 0.3937007874015748
          },
          {
            "duration": 0.21739099999999212,
            "durationTicks": 192,
            "midi": 70,
            "name": "A#4",
            "ticks": 148816,
            "time": 168.4961409166667,
            "velocity": 0.3937007874015748
          },
          {
            "duration": 0.10869549999998185,
            "durationTicks": 96,
            "midi": 51,
            "name": "D#3",
            "ticks": 148816,
            "time": 168.4961409166667,
            "velocity": 0.3937007874015748
          },
          {
            "duration": 0.21739099999999212,
            "durationTicks": 192,
            "midi": 54,
            "name": "F#3",
            "ticks": 148816,
            "time": 168.4961409166667,
            "velocity": 0.3937007874015748
          },
          {
            "duration": 0.21739099999999212,
            "durationTicks": 192,
            "midi": 82,
            "name": "A#5",
            "ticks": 148816,
            "time": 168.4961409166667,
            "velocity": 0.3937007874015748
          },
          {
            "duration": 0.10869549999998185,
            "durationTicks": 96,
            "midi": 39,
            "name": "D#2",
            "ticks": 148816,
            "time": 168.4961409166667,
            "velocity": 0.3937007874015748
          },
          {
            "duration": 0.10869550000001027,
            "durationTicks": 96,
            "midi": 75,
            "name": "D#5",
            "ticks": 148912,
            "time": 168.60483641666667,
            "velocity": 0.3937007874015748
          },
          {
            "duration": 0.10869550000001027,
            "durationTicks": 96,
            "midi": 63,
            "name": "D#4",
            "ticks": 148912,
            "time": 168.60483641666667,
            "velocity": 0.3937007874015748
          },
          {
            "duration": 0.10869550000001027,
            "durationTicks": 96,
            "midi": 88,
            "name": "E6",
            "ticks": 148912,
            "time": 168.60483641666667,
            "velocity": 0.3937007874015748
          },
          {
            "duration": 0.10869550000001027,
            "durationTicks": 96,
            "midi": 39,
            "name": "D#2",
            "ticks": 148912,
            "time": 168.60483641666667,
            "velocity": 0.3937007874015748
          },
          {
            "duration": 0.10869550000001027,
            "durationTicks": 96,
            "midi": 51,
            "name": "D#3",
            "ticks": 148912,
            "time": 168.60483641666667,
            "velocity": 0.3937007874015748
          },
          {
            "duration": 0.10869549999998185,
            "durationTicks": 96,
            "midi": 39,
            "name": "D#2",
            "ticks": 149008,
            "time": 168.71353191666668,
            "velocity": 0.3937007874015748
          },
          {
            "duration": 0.10869549999998185,
            "durationTicks": 96,
            "midi": 89,
            "name": "F6",
            "ticks": 149008,
            "time": 168.71353191666668,
            "velocity": 0.3937007874015748
          },
          {
            "duration": 0.10869549999998185,
            "durationTicks": 96,
            "midi": 51,
            "name": "D#3",
            "ticks": 149008,
            "time": 168.71353191666668,
            "velocity": 0.3937007874015748
          },
          {
            "duration": 0.10869549999998185,
            "durationTicks": 96,
            "midi": 63,
            "name": "D#4",
            "ticks": 149008,
            "time": 168.71353191666668,
            "velocity": 0.3937007874015748
          },
          {
            "duration": 0.21739099999999212,
            "durationTicks": 192,
            "midi": 71,
            "name": "B4",
            "ticks": 149008,
            "time": 168.71353191666668,
            "velocity": 0.3937007874015748
          },
          {
            "duration": 0.21739099999999212,
            "durationTicks": 192,
            "midi": 63,
            "name": "D#4",
            "ticks": 149008,
            "time": 168.71353191666668,
            "velocity": 0.3937007874015748
          },
          {
            "duration": 0.21739099999999212,
            "durationTicks": 192,
            "midi": 58,
            "name": "A#3",
            "ticks": 149008,
            "time": 168.71353191666668,
            "velocity": 0.3937007874015748
          },
          {
            "duration": 0.21739099999999212,
            "durationTicks": 192,
            "midi": 83,
            "name": "B5",
            "ticks": 149008,
            "time": 168.71353191666668,
            "velocity": 0.3937007874015748
          },
          {
            "duration": 0.21739099999999212,
            "durationTicks": 192,
            "midi": 54,
            "name": "F#3",
            "ticks": 149008,
            "time": 168.71353191666668,
            "velocity": 0.3937007874015748
          },
          {
            "duration": 0.21739099999999212,
            "durationTicks": 192,
            "midi": 34,
            "name": "A#1",
            "ticks": 149008,
            "time": 168.71353191666668,
            "velocity": 0.3937007874015748
          },
          {
            "duration": 0.10869550000001027,
            "durationTicks": 96,
            "midi": 90,
            "name": "F#6",
            "ticks": 149104,
            "time": 168.82222741666666,
            "velocity": 0.3937007874015748
          },
          {
            "duration": 0.10869550000001027,
            "durationTicks": 96,
            "midi": 63,
            "name": "D#4",
            "ticks": 149104,
            "time": 168.82222741666666,
            "velocity": 0.3937007874015748
          },
          {
            "duration": 0.10869550000001027,
            "durationTicks": 96,
            "midi": 51,
            "name": "D#3",
            "ticks": 149104,
            "time": 168.82222741666666,
            "velocity": 0.3937007874015748
          },
          {
            "duration": 0.10869550000001027,
            "durationTicks": 96,
            "midi": 39,
            "name": "D#2",
            "ticks": 149104,
            "time": 168.82222741666666,
            "velocity": 0.3937007874015748
          },
          {
            "duration": 0.10869550000001027,
            "durationTicks": 96,
            "midi": 75,
            "name": "D#5",
            "ticks": 149104,
            "time": 168.82222741666666,
            "velocity": 0.3937007874015748
          },
          {
            "duration": 0.10869550000001027,
            "durationTicks": 96,
            "midi": 61,
            "name": "C#4",
            "ticks": 149200,
            "time": 168.93092291666667,
            "velocity": 0.3937007874015748
          },
          {
            "duration": 0.21739099999999212,
            "durationTicks": 192,
            "midi": 54,
            "name": "F#3",
            "ticks": 149200,
            "time": 168.93092291666667,
            "velocity": 0.3937007874015748
          },
          {
            "duration": 0.10869550000001027,
            "durationTicks": 96,
            "midi": 73,
            "name": "C#5",
            "ticks": 149200,
            "time": 168.93092291666667,
            "velocity": 0.3937007874015748
          },
          {
            "duration": 0.21739099999999212,
            "durationTicks": 192,
            "midi": 84,
            "name": "C6",
            "ticks": 149200,
            "time": 168.93092291666667,
            "velocity": 0.3937007874015748
          },
          {
            "duration": 0.10869550000001027,
            "durationTicks": 96,
            "midi": 37,
            "name": "C#2",
            "ticks": 149200,
            "time": 168.93092291666667,
            "velocity": 0.3937007874015748
          },
          {
            "duration": 0.21739099999999212,
            "durationTicks": 192,
            "midi": 58,
            "name": "A#3",
            "ticks": 149200,
            "time": 168.93092291666667,
            "velocity": 0.3937007874015748
          },
          {
            "duration": 0.21739099999999212,
            "durationTicks": 192,
            "midi": 63,
            "name": "D#4",
            "ticks": 149200,
            "time": 168.93092291666667,
            "velocity": 0.3937007874015748
          },
          {
            "duration": 0.10869550000001027,
            "durationTicks": 96,
            "midi": 49,
            "name": "C#3",
            "ticks": 149200,
            "time": 168.93092291666667,
            "velocity": 0.3937007874015748
          },
          {
            "duration": 0.10869550000001027,
            "durationTicks": 96,
            "midi": 91,
            "name": "G6",
            "ticks": 149200,
            "time": 168.93092291666667,
            "velocity": 0.3937007874015748
          },
          {
            "duration": 0.21739099999999212,
            "durationTicks": 192,
            "midi": 72,
            "name": "C5",
            "ticks": 149200,
            "time": 168.93092291666667,
            "velocity": 0.3937007874015748
          },
          {
            "duration": 0.10869549999998185,
            "durationTicks": 96,
            "midi": 39,
            "name": "D#2",
            "ticks": 149296,
            "time": 169.03961841666668,
            "velocity": 0.3937007874015748
          },
          {
            "duration": 0.10869549999998185,
            "durationTicks": 96,
            "midi": 51,
            "name": "D#3",
            "ticks": 149296,
            "time": 169.03961841666668,
            "velocity": 0.3937007874015748
          },
          {
            "duration": 0.10869549999998185,
            "durationTicks": 96,
            "midi": 92,
            "name": "G#6",
            "ticks": 149296,
            "time": 169.03961841666668,
            "velocity": 0.3937007874015748
          },
          {
            "duration": 0.10869549999998185,
            "durationTicks": 96,
            "midi": 63,
            "name": "D#4",
            "ticks": 149296,
            "time": 169.03961841666668,
            "velocity": 0.3937007874015748
          },
          {
            "duration": 0.10869549999998185,
            "durationTicks": 96,
            "midi": 75,
            "name": "D#5",
            "ticks": 149296,
            "time": 169.03961841666668,
            "velocity": 0.3937007874015748
          },
          {
            "duration": 0.10869550000001027,
            "durationTicks": 96,
            "midi": 39,
            "name": "D#2",
            "ticks": 149392,
            "time": 169.14831391666667,
            "velocity": 0.3937007874015748
          },
          {
            "duration": 0.10869550000001027,
            "durationTicks": 96,
            "midi": 51,
            "name": "D#3",
            "ticks": 149392,
            "time": 169.14831391666667,
            "velocity": 0.3937007874015748
          },
          {
            "duration": 0.21739100000002054,
            "durationTicks": 192,
            "midi": 34,
            "name": "A#1",
            "ticks": 149392,
            "time": 169.14831391666667,
            "velocity": 0.3937007874015748
          },
          {
            "duration": 0.21739100000002054,
            "durationTicks": 192,
            "midi": 58,
            "name": "A#3",
            "ticks": 149392,
            "time": 169.14831391666667,
            "velocity": 0.3937007874015748
          },
          {
            "duration": 0.10869550000001027,
            "durationTicks": 96,
            "midi": 63,
            "name": "D#4",
            "ticks": 149392,
            "time": 169.14831391666667,
            "velocity": 0.3937007874015748
          },
          {
            "duration": 0.21739100000002054,
            "durationTicks": 192,
            "midi": 63,
            "name": "D#4",
            "ticks": 149392,
            "time": 169.14831391666667,
            "velocity": 0.3937007874015748
          },
          {
            "duration": 0.21739100000002054,
            "durationTicks": 192,
            "midi": 85,
            "name": "C#6",
            "ticks": 149392,
            "time": 169.14831391666667,
            "velocity": 0.3937007874015748
          },
          {
            "duration": 0.21739100000002054,
            "durationTicks": 192,
            "midi": 73,
            "name": "C#5",
            "ticks": 149392,
            "time": 169.14831391666667,
            "velocity": 0.3937007874015748
          },
          {
            "duration": 0.21739100000002054,
            "durationTicks": 192,
            "midi": 54,
            "name": "F#3",
            "ticks": 149392,
            "time": 169.14831391666667,
            "velocity": 0.3937007874015748
          },
          {
            "duration": 0.10869550000001027,
            "durationTicks": 96,
            "midi": 93,
            "name": "A6",
            "ticks": 149392,
            "time": 169.14831391666667,
            "velocity": 0.3937007874015748
          },
          {
            "duration": 0.10869550000001027,
            "durationTicks": 96,
            "midi": 94,
            "name": "A#6",
            "ticks": 149488,
            "time": 169.25700941666668,
            "velocity": 0.3937007874015748
          },
          {
            "duration": 0.10869549999998185,
            "durationTicks": 96,
            "midi": 39,
            "name": "D#2",
            "ticks": 149584,
            "time": 169.3657049166667,
            "velocity": 0.3937007874015748
          },
          {
            "duration": 0.10869549999998185,
            "durationTicks": 96,
            "midi": 63,
            "name": "D#4",
            "ticks": 149584,
            "time": 169.3657049166667,
            "velocity": 0.3937007874015748
          },
          {
            "duration": 0.10869549999998185,
            "durationTicks": 96,
            "midi": 75,
            "name": "D#5",
            "ticks": 149584,
            "time": 169.3657049166667,
            "velocity": 0.3937007874015748
          },
          {
            "duration": 0.21739099999999212,
            "durationTicks": 192,
            "midi": 58,
            "name": "A#3",
            "ticks": 149584,
            "time": 169.3657049166667,
            "velocity": 0.3937007874015748
          },
          {
            "duration": 0.21739099999999212,
            "durationTicks": 192,
            "midi": 74,
            "name": "D5",
            "ticks": 149584,
            "time": 169.3657049166667,
            "velocity": 0.3937007874015748
          },
          {
            "duration": 0.21739099999999212,
            "durationTicks": 192,
            "midi": 63,
            "name": "D#4",
            "ticks": 149584,
            "time": 169.3657049166667,
            "velocity": 0.3937007874015748
          },
          {
            "duration": 0.10869549999998185,
            "durationTicks": 96,
            "midi": 95,
            "name": "B6",
            "ticks": 149584,
            "time": 169.3657049166667,
            "velocity": 0.3937007874015748
          },
          {
            "duration": 0.21739099999999212,
            "durationTicks": 192,
            "midi": 54,
            "name": "F#3",
            "ticks": 149584,
            "time": 169.3657049166667,
            "velocity": 0.3937007874015748
          },
          {
            "duration": 0.21739099999999212,
            "durationTicks": 192,
            "midi": 86,
            "name": "D6",
            "ticks": 149584,
            "time": 169.3657049166667,
            "velocity": 0.3937007874015748
          },
          {
            "duration": 0.10869549999998185,
            "durationTicks": 96,
            "midi": 51,
            "name": "D#3",
            "ticks": 149584,
            "time": 169.3657049166667,
            "velocity": 0.3937007874015748
          },
          {
            "duration": 0.10869550000001027,
            "durationTicks": 96,
            "midi": 75,
            "name": "D#5",
            "ticks": 149680,
            "time": 169.47440041666667,
            "velocity": 0.3937007874015748
          },
          {
            "duration": 0.10869550000001027,
            "durationTicks": 96,
            "midi": 63,
            "name": "D#4",
            "ticks": 149680,
            "time": 169.47440041666667,
            "velocity": 0.3937007874015748
          },
          {
            "duration": 0.10869550000001027,
            "durationTicks": 96,
            "midi": 84,
            "name": "C6",
            "ticks": 149680,
            "time": 169.47440041666667,
            "velocity": 0.3937007874015748
          },
          {
            "duration": 0.10869550000001027,
            "durationTicks": 96,
            "midi": 39,
            "name": "D#2",
            "ticks": 149680,
            "time": 169.47440041666667,
            "velocity": 0.3937007874015748
          },
          {
            "duration": 0.10869550000001027,
            "durationTicks": 96,
            "midi": 51,
            "name": "D#3",
            "ticks": 149680,
            "time": 169.47440041666667,
            "velocity": 0.3937007874015748
          },
          {
            "duration": 0.10869550000001027,
            "durationTicks": 96,
            "midi": 51,
            "name": "D#3",
            "ticks": 149776,
            "time": 169.58309591666668,
            "velocity": 0.3937007874015748
          },
          {
            "duration": 0.10869550000001027,
            "durationTicks": 96,
            "midi": 63,
            "name": "D#4",
            "ticks": 149776,
            "time": 169.58309591666668,
            "velocity": 0.3937007874015748
          },
          {
            "duration": 0.21739099999999212,
            "durationTicks": 192,
            "midi": 75,
            "name": "D#5",
            "ticks": 149776,
            "time": 169.58309591666668,
            "velocity": 0.3937007874015748
          },
          {
            "duration": 0.10869550000001027,
            "durationTicks": 96,
            "midi": 39,
            "name": "D#2",
            "ticks": 149776,
            "time": 169.58309591666668,
            "velocity": 0.3937007874015748
          },
          {
            "duration": 0.21739099999999212,
            "durationTicks": 192,
            "midi": 58,
            "name": "A#3",
            "ticks": 149776,
            "time": 169.58309591666668,
            "velocity": 0.3937007874015748
          },
          {
            "duration": 0.21739099999999212,
            "durationTicks": 192,
            "midi": 34,
            "name": "A#1",
            "ticks": 149776,
            "time": 169.58309591666668,
            "velocity": 0.3937007874015748
          },
          {
            "duration": 0.21739099999999212,
            "durationTicks": 192,
            "midi": 63,
            "name": "D#4",
            "ticks": 149776,
            "time": 169.58309591666668,
            "velocity": 0.3937007874015748
          },
          {
            "duration": 0.21739099999999212,
            "durationTicks": 192,
            "midi": 87,
            "name": "D#6",
            "ticks": 149776,
            "time": 169.58309591666668,
            "velocity": 0.3937007874015748
          },
          {
            "duration": 0.21739099999999212,
            "durationTicks": 192,
            "midi": 54,
            "name": "F#3",
            "ticks": 149776,
            "time": 169.58309591666668,
            "velocity": 0.3937007874015748
          },
          {
            "duration": 0.10869550000001027,
            "durationTicks": 96,
            "midi": 85,
            "name": "C#6",
            "ticks": 149776,
            "time": 169.58309591666668,
            "velocity": 0.3937007874015748
          },
          {
            "duration": 0.10869549999998185,
            "durationTicks": 96,
            "midi": 63,
            "name": "D#4",
            "ticks": 149872,
            "time": 169.6917914166667,
            "velocity": 0.3937007874015748
          },
          {
            "duration": 0.10869549999998185,
            "durationTicks": 96,
            "midi": 51,
            "name": "D#3",
            "ticks": 149872,
            "time": 169.6917914166667,
            "velocity": 0.3937007874015748
          },
          {
            "duration": 0.10869549999998185,
            "durationTicks": 96,
            "midi": 86,
            "name": "D6",
            "ticks": 149872,
            "time": 169.6917914166667,
            "velocity": 0.3937007874015748
          },
          {
            "duration": 0.10869549999998185,
            "durationTicks": 96,
            "midi": 39,
            "name": "D#2",
            "ticks": 149872,
            "time": 169.6917914166667,
            "velocity": 0.3937007874015748
          },
          {
            "duration": 0.10869549999998185,
            "durationTicks": 96,
            "midi": 75,
            "name": "D#5",
            "ticks": 149872,
            "time": 169.6917914166667,
            "velocity": 0.3937007874015748
          },
          {
            "duration": 0.21739099999999212,
            "durationTicks": 192,
            "midi": 63,
            "name": "D#4",
            "ticks": 149968,
            "time": 169.80048691666667,
            "velocity": 0.3937007874015748
          },
          {
            "duration": 0.10869550000001027,
            "durationTicks": 96,
            "midi": 61,
            "name": "C#4",
            "ticks": 149968,
            "time": 169.80048691666667,
            "velocity": 0.3937007874015748
          },
          {
            "duration": 0.21739099999999212,
            "durationTicks": 192,
            "midi": 54,
            "name": "F#3",
            "ticks": 149968,
            "time": 169.80048691666667,
            "velocity": 0.3937007874015748
          },
          {
            "duration": 0.21739099999999212,
            "durationTicks": 192,
            "midi": 58,
            "name": "A#3",
            "ticks": 149968,
            "time": 169.80048691666667,
            "velocity": 0.3937007874015748
          },
          {
            "duration": 0.10869550000001027,
            "durationTicks": 96,
            "midi": 87,
            "name": "D#6",
            "ticks": 149968,
            "time": 169.80048691666667,
            "velocity": 0.3937007874015748
          },
          {
            "duration": 0.21739099999999212,
            "durationTicks": 192,
            "midi": 76,
            "name": "E5",
            "ticks": 149968,
            "time": 169.80048691666667,
            "velocity": 0.3937007874015748
          },
          {
            "duration": 0.10869550000001027,
            "durationTicks": 96,
            "midi": 49,
            "name": "C#3",
            "ticks": 149968,
            "time": 169.80048691666667,
            "velocity": 0.3937007874015748
          },
          {
            "duration": 0.10869550000001027,
            "durationTicks": 96,
            "midi": 37,
            "name": "C#2",
            "ticks": 149968,
            "time": 169.80048691666667,
            "velocity": 0.3937007874015748
          },
          {
            "duration": 0.10869550000001027,
            "durationTicks": 96,
            "midi": 73,
            "name": "C#5",
            "ticks": 149968,
            "time": 169.80048691666667,
            "velocity": 0.3937007874015748
          },
          {
            "duration": 0.21739099999999212,
            "durationTicks": 192,
            "midi": 88,
            "name": "E6",
            "ticks": 149968,
            "time": 169.80048691666667,
            "velocity": 0.3937007874015748
          },
          {
            "duration": 0.10869549999998185,
            "durationTicks": 96,
            "midi": 88,
            "name": "E6",
            "ticks": 150064,
            "time": 169.90918241666668,
            "velocity": 0.3937007874015748
          },
          {
            "duration": 0.10869549999998185,
            "durationTicks": 96,
            "midi": 39,
            "name": "D#2",
            "ticks": 150064,
            "time": 169.90918241666668,
            "velocity": 0.3937007874015748
          },
          {
            "duration": 0.10869549999998185,
            "durationTicks": 96,
            "midi": 63,
            "name": "D#4",
            "ticks": 150064,
            "time": 169.90918241666668,
            "velocity": 0.3937007874015748
          },
          {
            "duration": 0.10869549999998185,
            "durationTicks": 96,
            "midi": 75,
            "name": "D#5",
            "ticks": 150064,
            "time": 169.90918241666668,
            "velocity": 0.3937007874015748
          },
          {
            "duration": 0.10869549999998185,
            "durationTicks": 96,
            "midi": 51,
            "name": "D#3",
            "ticks": 150064,
            "time": 169.90918241666668,
            "velocity": 0.3937007874015748
          },
          {
            "duration": 0.21739100000002054,
            "durationTicks": 192,
            "midi": 34,
            "name": "A#1",
            "ticks": 150160,
            "time": 170.01787791666666,
            "velocity": 0.3937007874015748
          },
          {
            "duration": 0.10869550000001027,
            "durationTicks": 96,
            "midi": 89,
            "name": "F6",
            "ticks": 150160,
            "time": 170.01787791666666,
            "velocity": 0.3937007874015748
          },
          {
            "duration": 0.10869550000001027,
            "durationTicks": 96,
            "midi": 54,
            "name": "F#3",
            "ticks": 150160,
            "time": 170.01787791666666,
            "velocity": 0.3937007874015748
          },
          {
            "duration": 0.21739100000002054,
            "durationTicks": 192,
            "midi": 58,
            "name": "A#3",
            "ticks": 150160,
            "time": 170.01787791666666,
            "velocity": 0.3937007874015748
          },
          {
            "duration": 0.21739100000002054,
            "durationTicks": 192,
            "midi": 61,
            "name": "C#4",
            "ticks": 150160,
            "time": 170.01787791666666,
            "velocity": 0.3937007874015748
          },
          {
            "duration": 0.21739100000002054,
            "durationTicks": 192,
            "midi": 54,
            "name": "F#3",
            "ticks": 150160,
            "time": 170.01787791666666,
            "velocity": 0.3937007874015748
          },
          {
            "duration": 0.10869550000001027,
            "durationTicks": 96,
            "midi": 42,
            "name": "F#2",
            "ticks": 150160,
            "time": 170.01787791666666,
            "velocity": 0.3937007874015748
          },
          {
            "duration": 0.21739100000002054,
            "durationTicks": 192,
            "midi": 89,
            "name": "F6",
            "ticks": 150160,
            "time": 170.01787791666666,
            "velocity": 0.3937007874015748
          },
          {
            "duration": 0.21739100000002054,
            "durationTicks": 192,
            "midi": 77,
            "name": "F5",
            "ticks": 150160,
            "time": 170.01787791666666,
            "velocity": 0.3937007874015748
          },
          {
            "duration": 0.10869550000001027,
            "durationTicks": 96,
            "midi": 78,
            "name": "F#5",
            "ticks": 150160,
            "time": 170.01787791666666,
            "velocity": 0.3937007874015748
          },
          {
            "duration": 0.10869550000001027,
            "durationTicks": 96,
            "midi": 66,
            "name": "F#4",
            "ticks": 150160,
            "time": 170.01787791666666,
            "velocity": 0.3937007874015748
          },
          {
            "duration": 0.10869550000001027,
            "durationTicks": 96,
            "midi": 90,
            "name": "F#6",
            "ticks": 150256,
            "time": 170.12657341666667,
            "velocity": 0.3937007874015748
          },
          {
            "duration": 0.10869549999998185,
            "durationTicks": 96,
            "midi": 51,
            "name": "D#3",
            "ticks": 150352,
            "time": 170.23526891666668,
            "velocity": 0.3937007874015748
          },
          {
            "duration": 0.10869549999998185,
            "durationTicks": 96,
            "midi": 39,
            "name": "D#2",
            "ticks": 150352,
            "time": 170.23526891666668,
            "velocity": 0.3937007874015748
          },
          {
            "duration": 0.21739099999999212,
            "durationTicks": 192,
            "midi": 78,
            "name": "F#5",
            "ticks": 150352,
            "time": 170.23526891666668,
            "velocity": 0.3937007874015748
          },
          {
            "duration": 0.21739099999999212,
            "durationTicks": 192,
            "midi": 90,
            "name": "F#6",
            "ticks": 150352,
            "time": 170.23526891666668,
            "velocity": 0.3937007874015748
          },
          {
            "duration": 0.21739099999999212,
            "durationTicks": 192,
            "midi": 61,
            "name": "C#4",
            "ticks": 150352,
            "time": 170.23526891666668,
            "velocity": 0.3937007874015748
          },
          {
            "duration": 0.10869549999998185,
            "durationTicks": 96,
            "midi": 91,
            "name": "G6",
            "ticks": 150352,
            "time": 170.23526891666668,
            "velocity": 0.3937007874015748
          },
          {
            "duration": 0.21739099999999212,
            "durationTicks": 192,
            "midi": 54,
            "name": "F#3",
            "ticks": 150352,
            "time": 170.23526891666668,
            "velocity": 0.3937007874015748
          },
          {
            "duration": 0.10869549999998185,
            "durationTicks": 96,
            "midi": 75,
            "name": "D#5",
            "ticks": 150352,
            "time": 170.23526891666668,
            "velocity": 0.3937007874015748
          },
          {
            "duration": 0.10869549999998185,
            "durationTicks": 96,
            "midi": 63,
            "name": "D#4",
            "ticks": 150352,
            "time": 170.23526891666668,
            "velocity": 0.3937007874015748
          },
          {
            "duration": 0.21739099999999212,
            "durationTicks": 192,
            "midi": 58,
            "name": "A#3",
            "ticks": 150352,
            "time": 170.23526891666668,
            "velocity": 0.3937007874015748
          },
          {
            "duration": 0.10869550000001027,
            "durationTicks": 96,
            "midi": 42,
            "name": "F#2",
            "ticks": 150448,
            "time": 170.34396441666667,
            "velocity": 0.3937007874015748
          },
          {
            "duration": 0.10869550000001027,
            "durationTicks": 96,
            "midi": 92,
            "name": "G#6",
            "ticks": 150448,
            "time": 170.34396441666667,
            "velocity": 0.3937007874015748
          },
          {
            "duration": 0.10869550000001027,
            "durationTicks": 96,
            "midi": 66,
            "name": "F#4",
            "ticks": 150448,
            "time": 170.34396441666667,
            "velocity": 0.3937007874015748
          },
          {
            "duration": 0.10869550000001027,
            "durationTicks": 96,
            "midi": 54,
            "name": "F#3",
            "ticks": 150448,
            "time": 170.34396441666667,
            "velocity": 0.3937007874015748
          },
          {
            "duration": 0.10869550000001027,
            "durationTicks": 96,
            "midi": 78,
            "name": "F#5",
            "ticks": 150448,
            "time": 170.34396441666667,
            "velocity": 0.3937007874015748
          },
          {
            "duration": 0.10869550000001027,
            "durationTicks": 96,
            "midi": 56,
            "name": "G#3",
            "ticks": 150544,
            "time": 170.45265991666668,
            "velocity": 0.3937007874015748
          },
          {
            "duration": 0.21739099999999212,
            "durationTicks": 192,
            "midi": 34,
            "name": "A#1",
            "ticks": 150544,
            "time": 170.45265991666668,
            "velocity": 0.3937007874015748
          },
          {
            "duration": 0.10869550000001027,
            "durationTicks": 96,
            "midi": 80,
            "name": "G#5",
            "ticks": 150544,
            "time": 170.45265991666668,
            "velocity": 0.3937007874015748
          },
          {
            "duration": 0.10869550000001027,
            "durationTicks": 96,
            "midi": 93,
            "name": "A6",
            "ticks": 150544,
            "time": 170.45265991666668,
            "velocity": 0.3937007874015748
          },
          {
            "duration": 0.21739099999999212,
            "durationTicks": 192,
            "midi": 91,
            "name": "G6",
            "ticks": 150544,
            "time": 170.45265991666668,
            "velocity": 0.3937007874015748
          },
          {
            "duration": 0.21739099999999212,
            "durationTicks": 192,
            "midi": 59,
            "name": "B3",
            "ticks": 150544,
            "time": 170.45265991666668,
            "velocity": 0.3937007874015748
          },
          {
            "duration": 0.10869550000001027,
            "durationTicks": 96,
            "midi": 68,
            "name": "G#4",
            "ticks": 150544,
            "time": 170.45265991666668,
            "velocity": 0.3937007874015748
          },
          {
            "duration": 0.21739099999999212,
            "durationTicks": 192,
            "midi": 79,
            "name": "G5",
            "ticks": 150544,
            "time": 170.45265991666668,
            "velocity": 0.3937007874015748
          },
          {
            "duration": 0.21739099999999212,
            "durationTicks": 192,
            "midi": 56,
            "name": "G#3",
            "ticks": 150544,
            "time": 170.45265991666668,
            "velocity": 0.3937007874015748
          },
          {
            "duration": 0.10869550000001027,
            "durationTicks": 96,
            "midi": 44,
            "name": "G#2",
            "ticks": 150544,
            "time": 170.45265991666668,
            "velocity": 0.3937007874015748
          },
          {
            "duration": 0.21739099999999212,
            "durationTicks": 192,
            "midi": 63,
            "name": "D#4",
            "ticks": 150544,
            "time": 170.45265991666668,
            "velocity": 0.3937007874015748
          },
          {
            "duration": 0.10869549999998185,
            "durationTicks": 96,
            "midi": 94,
            "name": "A#6",
            "ticks": 150640,
            "time": 170.5613554166667,
            "velocity": 0.3937007874015748
          },
          {
            "duration": 0.21739100000002054,
            "durationTicks": 192,
            "midi": 92,
            "name": "G#6",
            "ticks": 150736,
            "time": 170.67005091666667,
            "velocity": 0.3937007874015748
          },
          {
            "duration": 0.21739100000002054,
            "durationTicks": 192,
            "midi": 34,
            "name": "A#1",
            "ticks": 150736,
            "time": 170.67005091666667,
            "velocity": 0.3937007874015748
          },
          {
            "duration": 0.21739100000002054,
            "durationTicks": 192,
            "midi": 56,
            "name": "G#3",
            "ticks": 150736,
            "time": 170.67005091666667,
            "velocity": 0.3937007874015748
          },
          {
            "duration": 0.10869550000001027,
            "durationTicks": 96,
            "midi": 95,
            "name": "B6",
            "ticks": 150736,
            "time": 170.67005091666667,
            "velocity": 0.3937007874015748
          },
          {
            "duration": 0.21739100000002054,
            "durationTicks": 192,
            "midi": 59,
            "name": "B3",
            "ticks": 150736,
            "time": 170.67005091666667,
            "velocity": 0.3937007874015748
          },
          {
            "duration": 0.10869550000001027,
            "durationTicks": 96,
            "midi": 54,
            "name": "F#3",
            "ticks": 150736,
            "time": 170.67005091666667,
            "velocity": 0.3937007874015748
          },
          {
            "duration": 0.21739100000002054,
            "durationTicks": 192,
            "midi": 80,
            "name": "G#5",
            "ticks": 150736,
            "time": 170.67005091666667,
            "velocity": 0.3937007874015748
          },
          {
            "duration": 0.10869550000001027,
            "durationTicks": 96,
            "midi": 42,
            "name": "F#2",
            "ticks": 150736,
            "time": 170.67005091666667,
            "velocity": 0.3937007874015748
          },
          {
            "duration": 0.10869550000001027,
            "durationTicks": 96,
            "midi": 66,
            "name": "F#4",
            "ticks": 150736,
            "time": 170.67005091666667,
            "velocity": 0.3937007874015748
          },
          {
            "duration": 0.10869550000001027,
            "durationTicks": 96,
            "midi": 78,
            "name": "F#5",
            "ticks": 150736,
            "time": 170.67005091666667,
            "velocity": 0.3937007874015748
          },
          {
            "duration": 0.21739100000002054,
            "durationTicks": 192,
            "midi": 63,
            "name": "D#4",
            "ticks": 150736,
            "time": 170.67005091666667,
            "velocity": 0.3937007874015748
          },
          {
            "duration": 0.10869550000001027,
            "durationTicks": 96,
            "midi": 68,
            "name": "G#4",
            "ticks": 150832,
            "time": 170.77874641666668,
            "velocity": 0.3937007874015748
          },
          {
            "duration": 0.10869550000001027,
            "durationTicks": 96,
            "midi": 44,
            "name": "G#2",
            "ticks": 150832,
            "time": 170.77874641666668,
            "velocity": 0.3937007874015748
          },
          {
            "duration": 0.10869550000001027,
            "durationTicks": 96,
            "midi": 56,
            "name": "G#3",
            "ticks": 150832,
            "time": 170.77874641666668,
            "velocity": 0.3937007874015748
          },
          {
            "duration": 0.10869550000001027,
            "durationTicks": 96,
            "midi": 80,
            "name": "G#5",
            "ticks": 150832,
            "time": 170.77874641666668,
            "velocity": 0.3937007874015748
          },
          {
            "duration": 0.10869550000001027,
            "durationTicks": 96,
            "midi": 84,
            "name": "C6",
            "ticks": 150832,
            "time": 170.77874641666668,
            "velocity": 0.3937007874015748
          },
          {
            "duration": 0.21739099999999212,
            "durationTicks": 192,
            "midi": 34,
            "name": "A#1",
            "ticks": 150928,
            "time": 170.8874419166667,
            "velocity": 0.3937007874015748
          },
          {
            "duration": 0.10869549999998185,
            "durationTicks": 96,
            "midi": 63,
            "name": "D#4",
            "ticks": 150928,
            "time": 170.8874419166667,
            "velocity": 0.3937007874015748
          },
          {
            "duration": 0.10869549999998185,
            "durationTicks": 96,
            "midi": 95,
            "name": "B6",
            "ticks": 150928,
            "time": 170.8874419166667,
            "velocity": 0.3937007874015748
          },
          {
            "duration": 0.10869549999998185,
            "durationTicks": 96,
            "midi": 39,
            "name": "D#2",
            "ticks": 150928,
            "time": 170.8874419166667,
            "velocity": 0.3937007874015748
          },
          {
            "duration": 0.10869549999998185,
            "durationTicks": 96,
            "midi": 51,
            "name": "D#3",
            "ticks": 150928,
            "time": 170.8874419166667,
            "velocity": 0.3937007874015748
          },
          {
            "duration": 0.21739099999999212,
            "durationTicks": 192,
            "midi": 58,
            "name": "A#3",
            "ticks": 150928,
            "time": 170.8874419166667,
            "velocity": 0.3937007874015748
          },
          {
            "duration": 0.21739099999999212,
            "durationTicks": 192,
            "midi": 81,
            "name": "A5",
            "ticks": 150928,
            "time": 170.8874419166667,
            "velocity": 0.3937007874015748
          },
          {
            "duration": 0.21739099999999212,
            "durationTicks": 192,
            "midi": 54,
            "name": "F#3",
            "ticks": 150928,
            "time": 170.8874419166667,
            "velocity": 0.3937007874015748
          },
          {
            "duration": 0.21739099999999212,
            "durationTicks": 192,
            "midi": 63,
            "name": "D#4",
            "ticks": 150928,
            "time": 170.8874419166667,
            "velocity": 0.3937007874015748
          },
          {
            "duration": 0.21739099999999212,
            "durationTicks": 192,
            "midi": 93,
            "name": "A6",
            "ticks": 150928,
            "time": 170.8874419166667,
            "velocity": 0.3937007874015748
          },
          {
            "duration": 0.10869550000001027,
            "durationTicks": 96,
            "midi": 94,
            "name": "A#6",
            "ticks": 150976,
            "time": 170.94178966666666,
            "velocity": 0.3937007874015748
          },
          {
            "duration": 0.10869550000001027,
            "durationTicks": 96,
            "midi": 93,
            "name": "A6",
            "ticks": 151024,
            "time": 170.99613741666667,
            "velocity": 0.3937007874015748
          },
          {
            "duration": 0.10869550000001027,
            "durationTicks": 96,
            "midi": 92,
            "name": "G#6",
            "ticks": 151072,
            "time": 171.05048516666668,
            "velocity": 0.3937007874015748
          },
          {
            "duration": 0.10869549999998185,
            "durationTicks": 96,
            "midi": 63,
            "name": "D#4",
            "ticks": 151120,
            "time": 171.10483291666668,
            "velocity": 0.3937007874015748
          },
          {
            "duration": 0.10869549999998185,
            "durationTicks": 96,
            "midi": 51,
            "name": "D#3",
            "ticks": 151120,
            "time": 171.10483291666668,
            "velocity": 0.3937007874015748
          },
          {
            "duration": 0.21739099999999212,
            "durationTicks": 192,
            "midi": 58,
            "name": "A#3",
            "ticks": 151120,
            "time": 171.10483291666668,
            "velocity": 0.3937007874015748
          },
          {
            "duration": 0.10869549999998185,
            "durationTicks": 96,
            "midi": 75,
            "name": "D#5",
            "ticks": 151120,
            "time": 171.10483291666668,
            "velocity": 0.3937007874015748
          },
          {
            "duration": 0.21739099999999212,
            "durationTicks": 192,
            "midi": 54,
            "name": "F#3",
            "ticks": 151120,
            "time": 171.10483291666668,
            "velocity": 0.3937007874015748
          },
          {
            "duration": 0.10869549999998185,
            "durationTicks": 96,
            "midi": 39,
            "name": "D#2",
            "ticks": 151120,
            "time": 171.10483291666668,
            "velocity": 0.3937007874015748
          },
          {
            "duration": 0.21739099999999212,
            "durationTicks": 192,
            "midi": 94,
            "name": "A#6",
            "ticks": 151120,
            "time": 171.10483291666668,
            "velocity": 0.3937007874015748
          },
          {
            "duration": 0.10869549999998185,
            "durationTicks": 96,
            "midi": 91,
            "name": "G6",
            "ticks": 151120,
            "time": 171.10483291666668,
            "velocity": 0.3937007874015748
          },
          {
            "duration": 0.21739099999999212,
            "durationTicks": 192,
            "midi": 82,
            "name": "A#5",
            "ticks": 151120,
            "time": 171.10483291666668,
            "velocity": 0.3937007874015748
          },
          {
            "duration": 0.21739099999999212,
            "durationTicks": 192,
            "midi": 63,
            "name": "D#4",
            "ticks": 151120,
            "time": 171.10483291666668,
            "velocity": 0.3937007874015748
          },
          {
            "duration": 0.10869549999998185,
            "durationTicks": 96,
            "midi": 90,
            "name": "F#6",
            "ticks": 151168,
            "time": 171.15918066666669,
            "velocity": 0.3937007874015748
          },
          {
            "duration": 0.10869550000001027,
            "durationTicks": 96,
            "midi": 51,
            "name": "D#3",
            "ticks": 151216,
            "time": 171.21352841666666,
            "velocity": 0.3937007874015748
          },
          {
            "duration": 0.10869550000001027,
            "durationTicks": 96,
            "midi": 39,
            "name": "D#2",
            "ticks": 151216,
            "time": 171.21352841666666,
            "velocity": 0.3937007874015748
          },
          {
            "duration": 0.10869550000001027,
            "durationTicks": 96,
            "midi": 75,
            "name": "D#5",
            "ticks": 151216,
            "time": 171.21352841666666,
            "velocity": 0.3937007874015748
          },
          {
            "duration": 0.10869550000001027,
            "durationTicks": 96,
            "midi": 63,
            "name": "D#4",
            "ticks": 151216,
            "time": 171.21352841666666,
            "velocity": 0.3937007874015748
          },
          {
            "duration": 0.10869550000001027,
            "durationTicks": 96,
            "midi": 89,
            "name": "F6",
            "ticks": 151216,
            "time": 171.21352841666666,
            "velocity": 0.3937007874015748
          },
          {
            "duration": 0.10869550000001027,
            "durationTicks": 96,
            "midi": 88,
            "name": "E6",
            "ticks": 151264,
            "time": 171.26787616666667,
            "velocity": 0.3937007874015748
          },
          {
            "duration": 0.21739099999999212,
            "durationTicks": 192,
            "midi": 83,
            "name": "B5",
            "ticks": 151312,
            "time": 171.32222391666667,
            "velocity": 0.3937007874015748
          },
          {
            "duration": 0.10869550000001027,
            "durationTicks": 96,
            "midi": 87,
            "name": "D#6",
            "ticks": 151312,
            "time": 171.32222391666667,
            "velocity": 0.3937007874015748
          },
          {
            "duration": 0.21739099999999212,
            "durationTicks": 192,
            "midi": 58,
            "name": "A#3",
            "ticks": 151312,
            "time": 171.32222391666667,
            "velocity": 0.3937007874015748
          },
          {
            "duration": 0.10869550000001027,
            "durationTicks": 96,
            "midi": 51,
            "name": "D#3",
            "ticks": 151312,
            "time": 171.32222391666667,
            "velocity": 0.3937007874015748
          },
          {
            "duration": 0.21739099999999212,
            "durationTicks": 192,
            "midi": 54,
            "name": "F#3",
            "ticks": 151312,
            "time": 171.32222391666667,
            "velocity": 0.3937007874015748
          },
          {
            "duration": 0.10869550000001027,
            "durationTicks": 96,
            "midi": 63,
            "name": "D#4",
            "ticks": 151312,
            "time": 171.32222391666667,
            "velocity": 0.3937007874015748
          },
          {
            "duration": 0.21739099999999212,
            "durationTicks": 192,
            "midi": 63,
            "name": "D#4",
            "ticks": 151312,
            "time": 171.32222391666667,
            "velocity": 0.3937007874015748
          },
          {
            "duration": 0.10869550000001027,
            "durationTicks": 96,
            "midi": 39,
            "name": "D#2",
            "ticks": 151312,
            "time": 171.32222391666667,
            "velocity": 0.3937007874015748
          },
          {
            "duration": 0.21739099999999212,
            "durationTicks": 192,
            "midi": 34,
            "name": "A#1",
            "ticks": 151312,
            "time": 171.32222391666667,
            "velocity": 0.3937007874015748
          },
          {
            "duration": 0.21739099999999212,
            "durationTicks": 192,
            "midi": 95,
            "name": "B6",
            "ticks": 151312,
            "time": 171.32222391666667,
            "velocity": 0.3937007874015748
          },
          {
            "duration": 0.10869550000001027,
            "durationTicks": 96,
            "midi": 86,
            "name": "D6",
            "ticks": 151360,
            "time": 171.37657166666668,
            "velocity": 0.3937007874015748
          },
          {
            "duration": 0.10869549999998185,
            "durationTicks": 96,
            "midi": 85,
            "name": "C#6",
            "ticks": 151408,
            "time": 171.43091941666668,
            "velocity": 0.3937007874015748
          },
          {
            "duration": 0.10869549999998185,
            "durationTicks": 96,
            "midi": 51,
            "name": "D#3",
            "ticks": 151408,
            "time": 171.43091941666668,
            "velocity": 0.3937007874015748
          },
          {
            "duration": 0.10869549999998185,
            "durationTicks": 96,
            "midi": 75,
            "name": "D#5",
            "ticks": 151408,
            "time": 171.43091941666668,
            "velocity": 0.3937007874015748
          },
          {
            "duration": 0.10869549999998185,
            "durationTicks": 96,
            "midi": 39,
            "name": "D#2",
            "ticks": 151408,
            "time": 171.43091941666668,
            "velocity": 0.3937007874015748
          },
          {
            "duration": 0.10869549999998185,
            "durationTicks": 96,
            "midi": 63,
            "name": "D#4",
            "ticks": 151408,
            "time": 171.43091941666668,
            "velocity": 0.3937007874015748
          },
          {
            "duration": 0.10869549999998185,
            "durationTicks": 96,
            "midi": 84,
            "name": "C6",
            "ticks": 151456,
            "time": 171.4852671666667,
            "velocity": 0.3937007874015748
          },
          {
            "duration": 0.21739100000002054,
            "durationTicks": 192,
            "midi": 58,
            "name": "A#3",
            "ticks": 151504,
            "time": 171.53961491666666,
            "velocity": 0.3937007874015748
          },
          {
            "duration": 0.10869550000001027,
            "durationTicks": 96,
            "midi": 95,
            "name": "B6",
            "ticks": 151504,
            "time": 171.53961491666666,
            "velocity": 0.3937007874015748
          },
          {
            "duration": 0.10869550000001027,
            "durationTicks": 96,
            "midi": 73,
            "name": "C#5",
            "ticks": 151504,
            "time": 171.53961491666666,
            "velocity": 0.3937007874015748
          },
          {
            "duration": 0.21739100000002054,
            "durationTicks": 192,
            "midi": 54,
            "name": "F#3",
            "ticks": 151504,
            "time": 171.53961491666666,
            "velocity": 0.3937007874015748
          },
          {
            "duration": 0.10869550000001027,
            "durationTicks": 96,
            "midi": 49,
            "name": "C#3",
            "ticks": 151504,
            "time": 171.53961491666666,
            "velocity": 0.3937007874015748
          },
          {
            "duration": 0.21739100000002054,
            "durationTicks": 192,
            "midi": 84,
            "name": "C6",
            "ticks": 151504,
            "time": 171.53961491666666,
            "velocity": 0.3937007874015748
          },
          {
            "duration": 0.10869550000001027,
            "durationTicks": 96,
            "midi": 37,
            "name": "C#2",
            "ticks": 151504,
            "time": 171.53961491666666,
            "velocity": 0.3937007874015748
          },
          {
            "duration": 0.21739100000002054,
            "durationTicks": 192,
            "midi": 63,
            "name": "D#4",
            "ticks": 151504,
            "time": 171.53961491666666,
            "velocity": 0.3937007874015748
          },
          {
            "duration": 0.21739100000002054,
            "durationTicks": 192,
            "midi": 84,
            "name": "C6",
            "ticks": 151504,
            "time": 171.53961491666666,
            "velocity": 0.3937007874015748
          },
          {
            "duration": 0.10869550000001027,
            "durationTicks": 96,
            "midi": 61,
            "name": "C#4",
            "ticks": 151504,
            "time": 171.53961491666666,
            "velocity": 0.3937007874015748
          },
          {
            "duration": 0.10869550000001027,
            "durationTicks": 96,
            "midi": 94,
            "name": "A#6",
            "ticks": 151552,
            "time": 171.59396266666667,
            "velocity": 0.3937007874015748
          },
          {
            "duration": 0.10869550000001027,
            "durationTicks": 96,
            "midi": 93,
            "name": "A6",
            "ticks": 151600,
            "time": 171.64831041666667,
            "velocity": 0.3937007874015748
          },
          {
            "duration": 0.10869550000001027,
            "durationTicks": 96,
            "midi": 51,
            "name": "D#3",
            "ticks": 151600,
            "time": 171.64831041666667,
            "velocity": 0.3937007874015748
          },
          {
            "duration": 0.10869550000001027,
            "durationTicks": 96,
            "midi": 63,
            "name": "D#4",
            "ticks": 151600,
            "time": 171.64831041666667,
            "velocity": 0.3937007874015748
          },
          {
            "duration": 0.10869550000001027,
            "durationTicks": 96,
            "midi": 75,
            "name": "D#5",
            "ticks": 151600,
            "time": 171.64831041666667,
            "velocity": 0.3937007874015748
          },
          {
            "duration": 0.10869550000001027,
            "durationTicks": 96,
            "midi": 39,
            "name": "D#2",
            "ticks": 151600,
            "time": 171.64831041666667,
            "velocity": 0.3937007874015748
          },
          {
            "duration": 0.10869549999998185,
            "durationTicks": 96,
            "midi": 92,
            "name": "G#6",
            "ticks": 151648,
            "time": 171.70265816666668,
            "velocity": 0.3937007874015748
          },
          {
            "duration": 0.21739099999999212,
            "durationTicks": 192,
            "midi": 58,
            "name": "A#3",
            "ticks": 151696,
            "time": 171.75700591666669,
            "velocity": 0.3937007874015748
          },
          {
            "duration": 0.10869549999998185,
            "durationTicks": 96,
            "midi": 39,
            "name": "D#2",
            "ticks": 151696,
            "time": 171.75700591666669,
            "velocity": 0.3937007874015748
          },
          {
            "duration": 0.21739099999999212,
            "durationTicks": 192,
            "midi": 85,
            "name": "C#6",
            "ticks": 151696,
            "time": 171.75700591666669,
            "velocity": 0.3937007874015748
          },
          {
            "duration": 0.10869549999998185,
            "durationTicks": 96,
            "midi": 91,
            "name": "G6",
            "ticks": 151696,
            "time": 171.75700591666669,
            "velocity": 0.3937007874015748
          },
          {
            "duration": 0.21739099999999212,
            "durationTicks": 192,
            "midi": 85,
            "name": "C#6",
            "ticks": 151696,
            "time": 171.75700591666669,
            "velocity": 0.3937007874015748
          },
          {
            "duration": 0.21739099999999212,
            "durationTicks": 192,
            "midi": 34,
            "name": "A#1",
            "ticks": 151696,
            "time": 171.75700591666669,
            "velocity": 0.3937007874015748
          },
          {
            "duration": 0.21739099999999212,
            "durationTicks": 192,
            "midi": 54,
            "name": "F#3",
            "ticks": 151696,
            "time": 171.75700591666669,
            "velocity": 0.3937007874015748
          },
          {
            "duration": 0.10869549999998185,
            "durationTicks": 96,
            "midi": 63,
            "name": "D#4",
            "ticks": 151696,
            "time": 171.75700591666669,
            "velocity": 0.3937007874015748
          },
          {
            "duration": 0.21739099999999212,
            "durationTicks": 192,
            "midi": 63,
            "name": "D#4",
            "ticks": 151696,
            "time": 171.75700591666669,
            "velocity": 0.3937007874015748
          },
          {
            "duration": 0.10869549999998185,
            "durationTicks": 96,
            "midi": 51,
            "name": "D#3",
            "ticks": 151696,
            "time": 171.75700591666669,
            "velocity": 0.3937007874015748
          },
          {
            "duration": 0.10869550000001027,
            "durationTicks": 96,
            "midi": 90,
            "name": "F#6",
            "ticks": 151744,
            "time": 171.81135366666666,
            "velocity": 0.3937007874015748
          },
          {
            "duration": 0.10869550000001027,
            "durationTicks": 96,
            "midi": 89,
            "name": "F6",
            "ticks": 151792,
            "time": 171.86570141666667,
            "velocity": 0.3937007874015748
          },
          {
            "duration": 0.10869550000001027,
            "durationTicks": 96,
            "midi": 88,
            "name": "E6",
            "ticks": 151840,
            "time": 171.92004916666667,
            "velocity": 0.3937007874015748
          },
          {
            "duration": 0.10869550000001027,
            "durationTicks": 96,
            "midi": 86,
            "name": "D6",
            "ticks": 151888,
            "time": 171.97439691666668,
            "velocity": 0.3937007874015748
          },
          {
            "duration": 0.10869550000001027,
            "durationTicks": 96,
            "midi": 39,
            "name": "D#2",
            "ticks": 151888,
            "time": 171.97439691666668,
            "velocity": 0.3937007874015748
          },
          {
            "duration": 0.10869550000001027,
            "durationTicks": 96,
            "midi": 51,
            "name": "D#3",
            "ticks": 151888,
            "time": 171.97439691666668,
            "velocity": 0.3937007874015748
          },
          {
            "duration": 0.10869550000001027,
            "durationTicks": 96,
            "midi": 75,
            "name": "D#5",
            "ticks": 151888,
            "time": 171.97439691666668,
            "velocity": 0.3937007874015748
          },
          {
            "duration": 0.21739099999999212,
            "durationTicks": 192,
            "midi": 86,
            "name": "D6",
            "ticks": 151888,
            "time": 171.97439691666668,
            "velocity": 0.3937007874015748
          },
          {
            "duration": 0.10869550000001027,
            "durationTicks": 96,
            "midi": 87,
            "name": "D#6",
            "ticks": 151888,
            "time": 171.97439691666668,
            "velocity": 0.3937007874015748
          },
          {
            "duration": 0.10869550000001027,
            "durationTicks": 96,
            "midi": 63,
            "name": "D#4",
            "ticks": 151888,
            "time": 171.97439691666668,
            "velocity": 0.3937007874015748
          },
          {
            "duration": 0.21739099999999212,
            "durationTicks": 192,
            "midi": 54,
            "name": "F#3",
            "ticks": 151888,
            "time": 171.97439691666668,
            "velocity": 0.3937007874015748
          },
          {
            "duration": 0.21739099999999212,
            "durationTicks": 192,
            "midi": 63,
            "name": "D#4",
            "ticks": 151888,
            "time": 171.97439691666668,
            "velocity": 0.3937007874015748
          },
          {
            "duration": 0.21739099999999212,
            "durationTicks": 192,
            "midi": 58,
            "name": "A#3",
            "ticks": 151888,
            "time": 171.97439691666668,
            "velocity": 0.3937007874015748
          },
          {
            "duration": 0.21739099999999212,
            "durationTicks": 192,
            "midi": 86,
            "name": "D6",
            "ticks": 151936,
            "time": 172.02874466666668,
            "velocity": 0.3937007874015748
          },
          {
            "duration": 0.10869549999998185,
            "durationTicks": 96,
            "midi": 75,
            "name": "D#5",
            "ticks": 151984,
            "time": 172.0830924166667,
            "velocity": 0.3937007874015748
          },
          {
            "duration": 0.10869549999998185,
            "durationTicks": 96,
            "midi": 51,
            "name": "D#3",
            "ticks": 151984,
            "time": 172.0830924166667,
            "velocity": 0.3937007874015748
          },
          {
            "duration": 0.10869549999998185,
            "durationTicks": 96,
            "midi": 85,
            "name": "C#6",
            "ticks": 151984,
            "time": 172.0830924166667,
            "velocity": 0.3937007874015748
          },
          {
            "duration": 0.10869549999998185,
            "durationTicks": 96,
            "midi": 39,
            "name": "D#2",
            "ticks": 151984,
            "time": 172.0830924166667,
            "velocity": 0.3937007874015748
          },
          {
            "duration": 0.10869549999998185,
            "durationTicks": 96,
            "midi": 63,
            "name": "D#4",
            "ticks": 151984,
            "time": 172.0830924166667,
            "velocity": 0.3937007874015748
          },
          {
            "duration": 0.10869550000001027,
            "durationTicks": 96,
            "midi": 84,
            "name": "C6",
            "ticks": 152032,
            "time": 172.13744016666666,
            "velocity": 0.3937007874015748
          },
          {
            "duration": 0.21739099999999212,
            "durationTicks": 192,
            "midi": 54,
            "name": "F#3",
            "ticks": 152080,
            "time": 172.19178791666667,
            "velocity": 0.3937007874015748
          },
          {
            "duration": 0.21739099999999212,
            "durationTicks": 192,
            "midi": 34,
            "name": "A#1",
            "ticks": 152080,
            "time": 172.19178791666667,
            "velocity": 0.3937007874015748
          },
          {
            "duration": 0.21739099999999212,
            "durationTicks": 192,
            "midi": 58,
            "name": "A#3",
            "ticks": 152080,
            "time": 172.19178791666667,
            "velocity": 0.3937007874015748
          },
          {
            "duration": 0.10869550000001027,
            "durationTicks": 96,
            "midi": 39,
            "name": "D#2",
            "ticks": 152080,
            "time": 172.19178791666667,
            "velocity": 0.3937007874015748
          },
          {
            "duration": 0.10869550000001027,
            "durationTicks": 96,
            "midi": 63,
            "name": "D#4",
            "ticks": 152080,
            "time": 172.19178791666667,
            "velocity": 0.3937007874015748
          },
          {
            "duration": 0.21739099999999212,
            "durationTicks": 192,
            "midi": 63,
            "name": "D#4",
            "ticks": 152080,
            "time": 172.19178791666667,
            "velocity": 0.3937007874015748
          },
          {
            "duration": 0.21739099999999212,
            "durationTicks": 192,
            "midi": 87,
            "name": "D#6",
            "ticks": 152080,
            "time": 172.19178791666667,
            "velocity": 0.3937007874015748
          },
          {
            "duration": 0.10869550000001027,
            "durationTicks": 96,
            "midi": 83,
            "name": "B5",
            "ticks": 152080,
            "time": 172.19178791666667,
            "velocity": 0.3937007874015748
          },
          {
            "duration": 0.10869550000001027,
            "durationTicks": 96,
            "midi": 51,
            "name": "D#3",
            "ticks": 152080,
            "time": 172.19178791666667,
            "velocity": 0.3937007874015748
          },
          {
            "duration": 0.21739099999999212,
            "durationTicks": 192,
            "midi": 87,
            "name": "D#6",
            "ticks": 152080,
            "time": 172.19178791666667,
            "velocity": 0.3937007874015748
          },
          {
            "duration": 0.10869550000001027,
            "durationTicks": 96,
            "midi": 82,
            "name": "A#5",
            "ticks": 152128,
            "time": 172.24613566666667,
            "velocity": 0.3937007874015748
          },
          {
            "duration": 0.10869549999998185,
            "durationTicks": 96,
            "midi": 81,
            "name": "A5",
            "ticks": 152176,
            "time": 172.30048341666668,
            "velocity": 0.3937007874015748
          },
          {
            "duration": 0.10869549999998185,
            "durationTicks": 96,
            "midi": 63,
            "name": "D#4",
            "ticks": 152176,
            "time": 172.30048341666668,
            "velocity": 0.3937007874015748
          },
          {
            "duration": 0.10869549999998185,
            "durationTicks": 96,
            "midi": 75,
            "name": "D#5",
            "ticks": 152176,
            "time": 172.30048341666668,
            "velocity": 0.3937007874015748
          },
          {
            "duration": 0.10869549999998185,
            "durationTicks": 96,
            "midi": 51,
            "name": "D#3",
            "ticks": 152176,
            "time": 172.30048341666668,
            "velocity": 0.3937007874015748
          },
          {
            "duration": 0.10869549999998185,
            "durationTicks": 96,
            "midi": 39,
            "name": "D#2",
            "ticks": 152176,
            "time": 172.30048341666668,
            "velocity": 0.3937007874015748
          },
          {
            "duration": 0.10869549999998185,
            "durationTicks": 96,
            "midi": 80,
            "name": "G#5",
            "ticks": 152224,
            "time": 172.35483116666668,
            "velocity": 0.3937007874015748
          },
          {
            "duration": 0.10869550000001027,
            "durationTicks": 96,
            "midi": 73,
            "name": "C#5",
            "ticks": 152272,
            "time": 172.40917891666666,
            "velocity": 0.3937007874015748
          },
          {
            "duration": 0.21739100000002054,
            "durationTicks": 192,
            "midi": 58,
            "name": "A#3",
            "ticks": 152272,
            "time": 172.40917891666666,
            "velocity": 0.3937007874015748
          },
          {
            "duration": 0.21739100000002054,
            "durationTicks": 192,
            "midi": 88,
            "name": "E6",
            "ticks": 152272,
            "time": 172.40917891666666,
            "velocity": 0.3937007874015748
          },
          {
            "duration": 0.10869550000001027,
            "durationTicks": 96,
            "midi": 37,
            "name": "C#2",
            "ticks": 152272,
            "time": 172.40917891666666,
            "velocity": 0.3937007874015748
          },
          {
            "duration": 0.10869550000001027,
            "durationTicks": 96,
            "midi": 79,
            "name": "G5",
            "ticks": 152272,
            "time": 172.40917891666666,
            "velocity": 0.3937007874015748
          },
          {
            "duration": 0.21739100000002054,
            "durationTicks": 192,
            "midi": 54,
            "name": "F#3",
            "ticks": 152272,
            "time": 172.40917891666666,
            "velocity": 0.3937007874015748
          },
          {
            "duration": 0.21739100000002054,
            "durationTicks": 192,
            "midi": 63,
            "name": "D#4",
            "ticks": 152272,
            "time": 172.40917891666666,
            "velocity": 0.3937007874015748
          },
          {
            "duration": 0.21739100000002054,
            "durationTicks": 192,
            "midi": 88,
            "name": "E6",
            "ticks": 152272,
            "time": 172.40917891666666,
            "velocity": 0.3937007874015748
          },
          {
            "duration": 0.10869550000001027,
            "durationTicks": 96,
            "midi": 80,
            "name": "G#5",
            "ticks": 152272,
            "time": 172.40917891666666,
            "velocity": 0.3937007874015748
          },
          {
            "duration": 0.10869550000001027,
            "durationTicks": 96,
            "midi": 61,
            "name": "C#4",
            "ticks": 152272,
            "time": 172.40917891666666,
            "velocity": 0.3937007874015748
          },
          {
            "duration": 0.10869550000001027,
            "durationTicks": 96,
            "midi": 49,
            "name": "C#3",
            "ticks": 152272,
            "time": 172.40917891666666,
            "velocity": 0.3937007874015748
          },
          {
            "duration": 0.10869550000001027,
            "durationTicks": 96,
            "midi": 78,
            "name": "F#5",
            "ticks": 152320,
            "time": 172.46352666666667,
            "velocity": 0.3937007874015748
          },
          {
            "duration": 0.10869550000001027,
            "durationTicks": 96,
            "midi": 81,
            "name": "A5",
            "ticks": 152320,
            "time": 172.46352666666667,
            "velocity": 0.3937007874015748
          },
          {
            "duration": 0.10869550000001027,
            "durationTicks": 96,
            "midi": 77,
            "name": "F5",
            "ticks": 152368,
            "time": 172.51787441666667,
            "velocity": 0.3937007874015748
          },
          {
            "duration": 0.10869550000001027,
            "durationTicks": 96,
            "midi": 39,
            "name": "D#2",
            "ticks": 152368,
            "time": 172.51787441666667,
            "velocity": 0.3937007874015748
          },
          {
            "duration": 0.10869550000001027,
            "durationTicks": 96,
            "midi": 63,
            "name": "D#4",
            "ticks": 152368,
            "time": 172.51787441666667,
            "velocity": 0.3937007874015748
          },
          {
            "duration": 0.10869550000001027,
            "durationTicks": 96,
            "midi": 51,
            "name": "D#3",
            "ticks": 152368,
            "time": 172.51787441666667,
            "velocity": 0.3937007874015748
          },
          {
            "duration": 0.10869550000001027,
            "durationTicks": 96,
            "midi": 75,
            "name": "D#5",
            "ticks": 152368,
            "time": 172.51787441666667,
            "velocity": 0.3937007874015748
          },
          {
            "duration": 0.10869550000001027,
            "durationTicks": 96,
            "midi": 82,
            "name": "A#5",
            "ticks": 152368,
            "time": 172.51787441666667,
            "velocity": 0.3937007874015748
          },
          {
            "duration": 0.10869550000001027,
            "durationTicks": 96,
            "midi": 76,
            "name": "E5",
            "ticks": 152416,
            "time": 172.57222216666668,
            "velocity": 0.3937007874015748
          },
          {
            "duration": 0.10869550000001027,
            "durationTicks": 96,
            "midi": 83,
            "name": "B5",
            "ticks": 152416,
            "time": 172.57222216666668,
            "velocity": 0.3937007874015748
          },
          {
            "duration": 0.10869549999998185,
            "durationTicks": 96,
            "midi": 75,
            "name": "D#5",
            "ticks": 152464,
            "time": 172.62656991666668,
            "velocity": 0.3937007874015748
          },
          {
            "duration": 0.21739099999999212,
            "durationTicks": 192,
            "midi": 89,
            "name": "F6",
            "ticks": 152464,
            "time": 172.62656991666668,
            "velocity": 0.3937007874015748
          },
          {
            "duration": 0.21739099999999212,
            "durationTicks": 192,
            "midi": 89,
            "name": "F6",
            "ticks": 152464,
            "time": 172.62656991666668,
            "velocity": 0.3937007874015748
          },
          {
            "duration": 0.10869549999998185,
            "durationTicks": 96,
            "midi": 51,
            "name": "D#3",
            "ticks": 152464,
            "time": 172.62656991666668,
            "velocity": 0.3937007874015748
          },
          {
            "duration": 0.21739099999999212,
            "durationTicks": 192,
            "midi": 54,
            "name": "F#3",
            "ticks": 152464,
            "time": 172.62656991666668,
            "velocity": 0.3937007874015748
          },
          {
            "duration": 0.10869549999998185,
            "durationTicks": 96,
            "midi": 84,
            "name": "C6",
            "ticks": 152464,
            "time": 172.62656991666668,
            "velocity": 0.3937007874015748
          },
          {
            "duration": 0.10869549999998185,
            "durationTicks": 96,
            "midi": 63,
            "name": "D#4",
            "ticks": 152464,
            "time": 172.62656991666668,
            "velocity": 0.3937007874015748
          },
          {
            "duration": 0.21739099999999212,
            "durationTicks": 192,
            "midi": 58,
            "name": "A#3",
            "ticks": 152464,
            "time": 172.62656991666668,
            "velocity": 0.3937007874015748
          },
          {
            "duration": 0.21739099999999212,
            "durationTicks": 192,
            "midi": 34,
            "name": "A#1",
            "ticks": 152464,
            "time": 172.62656991666668,
            "velocity": 0.3937007874015748
          },
          {
            "duration": 0.21739099999999212,
            "durationTicks": 192,
            "midi": 63,
            "name": "D#4",
            "ticks": 152464,
            "time": 172.62656991666668,
            "velocity": 0.3937007874015748
          },
          {
            "duration": 0.10869549999998185,
            "durationTicks": 96,
            "midi": 85,
            "name": "C#6",
            "ticks": 152512,
            "time": 172.6809176666667,
            "velocity": 0.3937007874015748
          },
          {
            "duration": 0.10869549999998185,
            "durationTicks": 96,
            "midi": 74,
            "name": "D5",
            "ticks": 152512,
            "time": 172.6809176666667,
            "velocity": 0.3937007874015748
          },
          {
            "duration": 0.10869550000001027,
            "durationTicks": 96,
            "midi": 73,
            "name": "C#5",
            "ticks": 152560,
            "time": 172.73526541666666,
            "velocity": 0.3937007874015748
          },
          {
            "duration": 0.10869550000001027,
            "durationTicks": 96,
            "midi": 86,
            "name": "D6",
            "ticks": 152560,
            "time": 172.73526541666666,
            "velocity": 0.3937007874015748
          },
          {
            "duration": 0.10869550000001027,
            "durationTicks": 96,
            "midi": 87,
            "name": "D#6",
            "ticks": 152608,
            "time": 172.78961316666667,
            "velocity": 0.3937007874015748
          },
          {
            "duration": 0.10869550000001027,
            "durationTicks": 96,
            "midi": 72,
            "name": "C5",
            "ticks": 152608,
            "time": 172.78961316666667,
            "velocity": 0.3937007874015748
          },
          {
            "duration": 0.10869550000001027,
            "durationTicks": 96,
            "midi": 75,
            "name": "D#5",
            "ticks": 152656,
            "time": 172.84396091666667,
            "velocity": 0.3937007874015748
          },
          {
            "duration": 0.10869550000001027,
            "durationTicks": 96,
            "midi": 63,
            "name": "D#4",
            "ticks": 152656,
            "time": 172.84396091666667,
            "velocity": 0.3937007874015748
          },
          {
            "duration": 0.21739099999999212,
            "durationTicks": 192,
            "midi": 63,
            "name": "D#4",
            "ticks": 152656,
            "time": 172.84396091666667,
            "velocity": 0.3937007874015748
          },
          {
            "duration": 0.21739099999999212,
            "durationTicks": 192,
            "midi": 58,
            "name": "A#3",
            "ticks": 152656,
            "time": 172.84396091666667,
            "velocity": 0.3937007874015748
          },
          {
            "duration": 0.10869550000001027,
            "durationTicks": 96,
            "midi": 51,
            "name": "D#3",
            "ticks": 152656,
            "time": 172.84396091666667,
            "velocity": 0.3937007874015748
          },
          {
            "duration": 0.10869550000001027,
            "durationTicks": 96,
            "midi": 71,
            "name": "B4",
            "ticks": 152656,
            "time": 172.84396091666667,
            "velocity": 0.3937007874015748
          },
          {
            "duration": 0.21739099999999212,
            "durationTicks": 192,
            "midi": 54,
            "name": "F#3",
            "ticks": 152656,
            "time": 172.84396091666667,
            "velocity": 0.3937007874015748
          },
          {
            "duration": 0.10869550000001027,
            "durationTicks": 96,
            "midi": 88,
            "name": "E6",
            "ticks": 152656,
            "time": 172.84396091666667,
            "velocity": 0.3937007874015748
          },
          {
            "duration": 0.10869550000001027,
            "durationTicks": 96,
            "midi": 90,
            "name": "F#6",
            "ticks": 152656,
            "time": 172.84396091666667,
            "velocity": 0.3937007874015748
          },
          {
            "duration": 0.21739099999999212,
            "durationTicks": 192,
            "midi": 90,
            "name": "F#6",
            "ticks": 152656,
            "time": 172.84396091666667,
            "velocity": 0.3937007874015748
          },
          {
            "duration": 0.10869550000001027,
            "durationTicks": 96,
            "midi": 70,
            "name": "A#4",
            "ticks": 152704,
            "time": 172.89830866666668,
            "velocity": 0.3937007874015748
          },
          {
            "duration": 0.10869550000001027,
            "durationTicks": 96,
            "midi": 89,
            "name": "F6",
            "ticks": 152704,
            "time": 172.89830866666668,
            "velocity": 0.3937007874015748
          },
          {
            "duration": 0.10869549999998185,
            "durationTicks": 96,
            "midi": 69,
            "name": "A4",
            "ticks": 152752,
            "time": 172.95265641666668,
            "velocity": 0.3937007874015748
          },
          {
            "duration": 0.10869549999998185,
            "durationTicks": 96,
            "midi": 51,
            "name": "D#3",
            "ticks": 152752,
            "time": 172.95265641666668,
            "velocity": 0.3937007874015748
          },
          {
            "duration": 0.10869549999998185,
            "durationTicks": 96,
            "midi": 75,
            "name": "D#5",
            "ticks": 152752,
            "time": 172.95265641666668,
            "velocity": 0.3937007874015748
          },
          {
            "duration": 0.10869549999998185,
            "durationTicks": 96,
            "midi": 90,
            "name": "F#6",
            "ticks": 152752,
            "time": 172.95265641666668,
            "velocity": 0.3937007874015748
          },
          {
            "duration": 0.10869549999998185,
            "durationTicks": 96,
            "midi": 63,
            "name": "D#4",
            "ticks": 152752,
            "time": 172.95265641666668,
            "velocity": 0.3937007874015748
          },
          {
            "duration": 0.10869549999998185,
            "durationTicks": 96,
            "midi": 68,
            "name": "G#4",
            "ticks": 152800,
            "time": 173.0070041666667,
            "velocity": 0.3937007874015748
          },
          {
            "duration": 0.10869549999998185,
            "durationTicks": 96,
            "midi": 91,
            "name": "G6",
            "ticks": 152800,
            "time": 173.0070041666667,
            "velocity": 0.3937007874015748
          },
          {
            "duration": 0.10869550000001027,
            "durationTicks": 96,
            "midi": 63,
            "name": "D#4",
            "ticks": 152848,
            "time": 173.06135191666667,
            "velocity": 0.3937007874015748
          },
          {
            "duration": 0.21739100000002054,
            "durationTicks": 192,
            "midi": 91,
            "name": "G6",
            "ticks": 152848,
            "time": 173.06135191666667,
            "velocity": 0.3937007874015748
          },
          {
            "duration": 0.21739100000002054,
            "durationTicks": 192,
            "midi": 58,
            "name": "A#3",
            "ticks": 152848,
            "time": 173.06135191666667,
            "velocity": 0.3937007874015748
          },
          {
            "duration": 0.21739100000002054,
            "durationTicks": 192,
            "midi": 91,
            "name": "G6",
            "ticks": 152848,
            "time": 173.06135191666667,
            "velocity": 0.3937007874015748
          },
          {
            "duration": 0.10869550000001027,
            "durationTicks": 96,
            "midi": 67,
            "name": "G4",
            "ticks": 152848,
            "time": 173.06135191666667,
            "velocity": 0.3937007874015748
          },
          {
            "duration": 0.21739100000002054,
            "durationTicks": 192,
            "midi": 63,
            "name": "D#4",
            "ticks": 152848,
            "time": 173.06135191666667,
            "velocity": 0.3937007874015748
          },
          {
            "duration": 0.10869550000001027,
            "durationTicks": 96,
            "midi": 92,
            "name": "G#6",
            "ticks": 152848,
            "time": 173.06135191666667,
            "velocity": 0.3937007874015748
          },
          {
            "duration": 0.10869550000001027,
            "durationTicks": 96,
            "midi": 51,
            "name": "D#3",
            "ticks": 152848,
            "time": 173.06135191666667,
            "velocity": 0.3937007874015748
          },
          {
            "duration": 0.21739100000002054,
            "durationTicks": 192,
            "midi": 34,
            "name": "A#1",
            "ticks": 152848,
            "time": 173.06135191666667,
            "velocity": 0.3937007874015748
          },
          {
            "duration": 0.21739100000002054,
            "durationTicks": 192,
            "midi": 54,
            "name": "F#3",
            "ticks": 152848,
            "time": 173.06135191666667,
            "velocity": 0.3937007874015748
          },
          {
            "duration": 0.10869550000001027,
            "durationTicks": 96,
            "midi": 66,
            "name": "F#4",
            "ticks": 152896,
            "time": 173.11569966666667,
            "velocity": 0.3937007874015748
          },
          {
            "duration": 0.10869550000001027,
            "durationTicks": 96,
            "midi": 93,
            "name": "A6",
            "ticks": 152896,
            "time": 173.11569966666667,
            "velocity": 0.3937007874015748
          },
          {
            "duration": 0.10869550000001027,
            "durationTicks": 96,
            "midi": 51,
            "name": "D#3",
            "ticks": 152944,
            "time": 173.17004741666668,
            "velocity": 0.3937007874015748
          },
          {
            "duration": 0.10869550000001027,
            "durationTicks": 96,
            "midi": 63,
            "name": "D#4",
            "ticks": 152944,
            "time": 173.17004741666668,
            "velocity": 0.3937007874015748
          },
          {
            "duration": 0.10869550000001027,
            "durationTicks": 96,
            "midi": 75,
            "name": "D#5",
            "ticks": 152944,
            "time": 173.17004741666668,
            "velocity": 0.3937007874015748
          },
          {
            "duration": 0.10869550000001027,
            "durationTicks": 96,
            "midi": 65,
            "name": "F4",
            "ticks": 152944,
            "time": 173.17004741666668,
            "velocity": 0.3937007874015748
          },
          {
            "duration": 0.10869550000001027,
            "durationTicks": 96,
            "midi": 94,
            "name": "A#6",
            "ticks": 152944,
            "time": 173.17004741666668,
            "velocity": 0.3937007874015748
          },
          {
            "duration": 0.10869549999998185,
            "durationTicks": 96,
            "midi": 64,
            "name": "E4",
            "ticks": 152992,
            "time": 173.22439516666668,
            "velocity": 0.3937007874015748
          },
          {
            "duration": 0.10869549999998185,
            "durationTicks": 96,
            "midi": 95,
            "name": "B6",
            "ticks": 152992,
            "time": 173.22439516666668,
            "velocity": 0.3937007874015748
          },
          {
            "duration": 0.10869549999998185,
            "durationTicks": 96,
            "midi": 61,
            "name": "C#4",
            "ticks": 153040,
            "time": 173.2787429166667,
            "velocity": 0.3937007874015748
          },
          {
            "duration": 0.10869549999998185,
            "durationTicks": 96,
            "midi": 49,
            "name": "C#3",
            "ticks": 153040,
            "time": 173.2787429166667,
            "velocity": 0.3937007874015748
          },
          {
            "duration": 0.10869549999998185,
            "durationTicks": 96,
            "midi": 37,
            "name": "C#2",
            "ticks": 153040,
            "time": 173.2787429166667,
            "velocity": 0.3937007874015748
          },
          {
            "duration": 0.10869549999998185,
            "durationTicks": 96,
            "midi": 84,
            "name": "C6",
            "ticks": 153040,
            "time": 173.2787429166667,
            "velocity": 0.3937007874015748
          },
          {
            "duration": 0.21739099999999212,
            "durationTicks": 192,
            "midi": 92,
            "name": "G#6",
            "ticks": 153040,
            "time": 173.2787429166667,
            "velocity": 0.3937007874015748
          },
          {
            "duration": 0.10869549999998185,
            "durationTicks": 96,
            "midi": 63,
            "name": "D#4",
            "ticks": 153040,
            "time": 173.2787429166667,
            "velocity": 0.3937007874015748
          },
          {
            "duration": 0.10869549999998185,
            "durationTicks": 96,
            "midi": 73,
            "name": "C#5",
            "ticks": 153040,
            "time": 173.2787429166667,
            "velocity": 0.3937007874015748
          },
          {
            "duration": 0.21739099999999212,
            "durationTicks": 192,
            "midi": 54,
            "name": "F#3",
            "ticks": 153040,
            "time": 173.2787429166667,
            "velocity": 0.3937007874015748
          },
          {
            "duration": 0.21739099999999212,
            "durationTicks": 192,
            "midi": 92,
            "name": "G#6",
            "ticks": 153040,
            "time": 173.2787429166667,
            "velocity": 0.3937007874015748
          },
          {
            "duration": 0.21739099999999212,
            "durationTicks": 192,
            "midi": 58,
            "name": "A#3",
            "ticks": 153040,
            "time": 173.2787429166667,
            "velocity": 0.3937007874015748
          },
          {
            "duration": 0.21739099999999212,
            "durationTicks": 192,
            "midi": 63,
            "name": "D#4",
            "ticks": 153040,
            "time": 173.2787429166667,
            "velocity": 0.3937007874015748
          },
          {
            "duration": 0.10869550000001027,
            "durationTicks": 96,
            "midi": 85,
            "name": "C#6",
            "ticks": 153088,
            "time": 173.33309066666666,
            "velocity": 0.3937007874015748
          },
          {
            "duration": 0.10869550000001027,
            "durationTicks": 96,
            "midi": 62,
            "name": "D4",
            "ticks": 153088,
            "time": 173.33309066666666,
            "velocity": 0.3937007874015748
          },
          {
            "duration": 0.10869550000001027,
            "durationTicks": 96,
            "midi": 63,
            "name": "D#4",
            "ticks": 153136,
            "time": 173.38743841666667,
            "velocity": 0.3937007874015748
          },
          {
            "duration": 0.10869550000001027,
            "durationTicks": 96,
            "midi": 86,
            "name": "D6",
            "ticks": 153136,
            "time": 173.38743841666667,
            "velocity": 0.3937007874015748
          },
          {
            "duration": 0.10869550000001027,
            "durationTicks": 96,
            "midi": 61,
            "name": "C#4",
            "ticks": 153136,
            "time": 173.38743841666667,
            "velocity": 0.3937007874015748
          },
          {
            "duration": 0.10869550000001027,
            "durationTicks": 96,
            "midi": 51,
            "name": "D#3",
            "ticks": 153136,
            "time": 173.38743841666667,
            "velocity": 0.3937007874015748
          },
          {
            "duration": 0.10869550000001027,
            "durationTicks": 96,
            "midi": 75,
            "name": "D#5",
            "ticks": 153136,
            "time": 173.38743841666667,
            "velocity": 0.3937007874015748
          },
          {
            "duration": 0.10869550000001027,
            "durationTicks": 96,
            "midi": 60,
            "name": "C4",
            "ticks": 153184,
            "time": 173.44178616666667,
            "velocity": 0.3937007874015748
          },
          {
            "duration": 0.10869550000001027,
            "durationTicks": 96,
            "midi": 87,
            "name": "D#6",
            "ticks": 153184,
            "time": 173.44178616666667,
            "velocity": 0.3937007874015748
          },
          {
            "duration": 0.10869550000001027,
            "durationTicks": 96,
            "midi": 44,
            "name": "G#2",
            "ticks": 153232,
            "time": 173.49613391666668,
            "velocity": 0.3937007874015748
          },
          {
            "duration": 0.10869550000001027,
            "durationTicks": 96,
            "midi": 56,
            "name": "G#3",
            "ticks": 153232,
            "time": 173.49613391666668,
            "velocity": 0.3937007874015748
          },
          {
            "duration": 0.21739099999999212,
            "durationTicks": 192,
            "midi": 93,
            "name": "A6",
            "ticks": 153232,
            "time": 173.49613391666668,
            "velocity": 0.3937007874015748
          },
          {
            "duration": 0.10869550000001027,
            "durationTicks": 96,
            "midi": 34,
            "name": "A#1",
            "ticks": 153232,
            "time": 173.49613391666668,
            "velocity": 0.3937007874015748
          },
          {
            "duration": 0.21739099999999212,
            "durationTicks": 192,
            "midi": 93,
            "name": "A6",
            "ticks": 153232,
            "time": 173.49613391666668,
            "velocity": 0.3937007874015748
          },
          {
            "duration": 0.10869550000001027,
            "durationTicks": 96,
            "midi": 80,
            "name": "G#5",
            "ticks": 153232,
            "time": 173.49613391666668,
            "velocity": 0.3937007874015748
          },
          {
            "duration": 0.10869550000001027,
            "durationTicks": 96,
            "midi": 56,
            "name": "G#3",
            "ticks": 153232,
            "time": 173.49613391666668,
            "velocity": 0.3937007874015748
          },
          {
            "duration": 0.10869550000001027,
            "durationTicks": 96,
            "midi": 68,
            "name": "G#4",
            "ticks": 153232,
            "time": 173.49613391666668,
            "velocity": 0.3937007874015748
          },
          {
            "duration": 0.10869550000001027,
            "durationTicks": 96,
            "midi": 63,
            "name": "D#4",
            "ticks": 153232,
            "time": 173.49613391666668,
            "velocity": 0.3937007874015748
          },
          {
            "duration": 0.10869550000001027,
            "durationTicks": 96,
            "midi": 88,
            "name": "E6",
            "ticks": 153232,
            "time": 173.49613391666668,
            "velocity": 0.3937007874015748
          },
          {
            "duration": 0.10869550000001027,
            "durationTicks": 96,
            "midi": 59,
            "name": "B3",
            "ticks": 153232,
            "time": 173.49613391666668,
            "velocity": 0.3937007874015748
          },
          {
            "duration": 0.10869550000001027,
            "durationTicks": 96,
            "midi": 59,
            "name": "B3",
            "ticks": 153232,
            "time": 173.49613391666668,
            "velocity": 0.3937007874015748
          },
          {
            "duration": 0.10869549999998185,
            "durationTicks": 96,
            "midi": 58,
            "name": "A#3",
            "ticks": 153280,
            "time": 173.55048166666668,
            "velocity": 0.3937007874015748
          },
          {
            "duration": 0.10869549999998185,
            "durationTicks": 96,
            "midi": 89,
            "name": "F6",
            "ticks": 153280,
            "time": 173.55048166666668,
            "velocity": 0.3937007874015748
          },
          {
            "duration": 0.10869550000001027,
            "durationTicks": 96,
            "midi": 59,
            "name": "B3",
            "ticks": 153296,
            "time": 173.56859758333331,
            "velocity": 0.3937007874015748
          },
          {
            "duration": 0.10869550000001027,
            "durationTicks": 96,
            "midi": 56,
            "name": "G#3",
            "ticks": 153296,
            "time": 173.56859758333331,
            "velocity": 0.3937007874015748
          },
          {
            "duration": 0.10869550000001027,
            "durationTicks": 96,
            "midi": 63,
            "name": "D#4",
            "ticks": 153296,
            "time": 173.56859758333331,
            "velocity": 0.3937007874015748
          },
          {
            "duration": 0.10869549999998185,
            "durationTicks": 96,
            "midi": 90,
            "name": "F#6",
            "ticks": 153328,
            "time": 173.6048294166667,
            "velocity": 0.3937007874015748
          },
          {
            "duration": 0.10869549999998185,
            "durationTicks": 96,
            "midi": 57,
            "name": "A3",
            "ticks": 153328,
            "time": 173.6048294166667,
            "velocity": 0.3937007874015748
          },
          {
            "duration": 0.10869549999998185,
            "durationTicks": 96,
            "midi": 63,
            "name": "D#4",
            "ticks": 153360,
            "time": 173.64106125,
            "velocity": 0.3937007874015748
          },
          {
            "duration": 0.10869549999998185,
            "durationTicks": 96,
            "midi": 66,
            "name": "F#4",
            "ticks": 153360,
            "time": 173.64106125,
            "velocity": 0.3937007874015748
          },
          {
            "duration": 0.10869549999998185,
            "durationTicks": 96,
            "midi": 59,
            "name": "B3",
            "ticks": 153360,
            "time": 173.64106125,
            "velocity": 0.3937007874015748
          },
          {
            "duration": 0.10869549999998185,
            "durationTicks": 96,
            "midi": 54,
            "name": "F#3",
            "ticks": 153360,
            "time": 173.64106125,
            "velocity": 0.3937007874015748
          },
          {
            "duration": 0.10869549999998185,
            "durationTicks": 96,
            "midi": 56,
            "name": "G#3",
            "ticks": 153360,
            "time": 173.64106125,
            "velocity": 0.3937007874015748
          },
          {
            "duration": 0.10869549999998185,
            "durationTicks": 96,
            "midi": 78,
            "name": "F#5",
            "ticks": 153360,
            "time": 173.64106125,
            "velocity": 0.3937007874015748
          },
          {
            "duration": 0.10869549999998185,
            "durationTicks": 96,
            "midi": 34,
            "name": "A#1",
            "ticks": 153360,
            "time": 173.64106125,
            "velocity": 0.3937007874015748
          },
          {
            "duration": 0.10869550000001027,
            "durationTicks": 96,
            "midi": 91,
            "name": "G6",
            "ticks": 153376,
            "time": 173.65917716666667,
            "velocity": 0.3937007874015748
          },
          {
            "duration": 0.10869550000001027,
            "durationTicks": 96,
            "midi": 56,
            "name": "G#3",
            "ticks": 153376,
            "time": 173.65917716666667,
            "velocity": 0.3937007874015748
          },
          {
            "duration": 0.10869550000001027,
            "durationTicks": 96,
            "midi": 94,
            "name": "A#6",
            "ticks": 153424,
            "time": 173.71352491666667,
            "velocity": 0.3937007874015748
          },
          {
            "duration": 0.10869550000001027,
            "durationTicks": 96,
            "midi": 56,
            "name": "G#3",
            "ticks": 153424,
            "time": 173.71352491666667,
            "velocity": 0.3937007874015748
          },
          {
            "duration": 0.10869550000001027,
            "durationTicks": 96,
            "midi": 63,
            "name": "D#4",
            "ticks": 153424,
            "time": 173.71352491666667,
            "velocity": 0.3937007874015748
          },
          {
            "duration": 0.10869550000001027,
            "durationTicks": 96,
            "midi": 59,
            "name": "B3",
            "ticks": 153424,
            "time": 173.71352491666667,
            "velocity": 0.3937007874015748
          },
          {
            "duration": 0.10869550000001027,
            "durationTicks": 96,
            "midi": 92,
            "name": "G#6",
            "ticks": 153424,
            "time": 173.71352491666667,
            "velocity": 0.3937007874015748
          },
          {
            "duration": 0.10869550000001027,
            "durationTicks": 96,
            "midi": 55,
            "name": "G3",
            "ticks": 153424,
            "time": 173.71352491666667,
            "velocity": 0.3937007874015748
          },
          {
            "duration": 0.21739099999999212,
            "durationTicks": 192,
            "midi": 94,
            "name": "A#6",
            "ticks": 153424,
            "time": 173.71352491666667,
            "velocity": 0.3937007874015748
          },
          {
            "duration": 0.10869550000001027,
            "durationTicks": 96,
            "midi": 54,
            "name": "F#3",
            "ticks": 153472,
            "time": 173.76787266666668,
            "velocity": 0.3937007874015748
          },
          {
            "duration": 0.10869550000001027,
            "durationTicks": 96,
            "midi": 93,
            "name": "A6",
            "ticks": 153472,
            "time": 173.76787266666668,
            "velocity": 0.3937007874015748
          },
          {
            "duration": 0.10869549999998185,
            "durationTicks": 96,
            "midi": 56,
            "name": "G#3",
            "ticks": 153488,
            "time": 173.78598858333334,
            "velocity": 0.3937007874015748
          },
          {
            "duration": 0.10869549999998185,
            "durationTicks": 96,
            "midi": 63,
            "name": "D#4",
            "ticks": 153488,
            "time": 173.78598858333334,
            "velocity": 0.3937007874015748
          },
          {
            "duration": 0.10869549999998185,
            "durationTicks": 96,
            "midi": 59,
            "name": "B3",
            "ticks": 153488,
            "time": 173.78598858333334,
            "velocity": 0.3937007874015748
          },
          {
            "duration": 0.10869549999998185,
            "durationTicks": 96,
            "midi": 56,
            "name": "G#3",
            "ticks": 153488,
            "time": 173.78598858333334,
            "velocity": 0.3937007874015748
          },
          {
            "duration": 0.10869549999998185,
            "durationTicks": 96,
            "midi": 68,
            "name": "G#4",
            "ticks": 153488,
            "time": 173.78598858333334,
            "velocity": 0.3937007874015748
          },
          {
            "duration": 0.10869549999998185,
            "durationTicks": 96,
            "midi": 44,
            "name": "G#2",
            "ticks": 153488,
            "time": 173.78598858333334,
            "velocity": 0.3937007874015748
          },
          {
            "duration": 0.10869549999998185,
            "durationTicks": 96,
            "midi": 80,
            "name": "G#5",
            "ticks": 153488,
            "time": 173.78598858333334,
            "velocity": 0.3937007874015748
          },
          {
            "duration": 0.10869549999998185,
            "durationTicks": 96,
            "midi": 34,
            "name": "A#1",
            "ticks": 153488,
            "time": 173.78598858333334,
            "velocity": 0.3937007874015748
          },
          {
            "duration": 0.10869549999998185,
            "durationTicks": 96,
            "midi": 94,
            "name": "A#6",
            "ticks": 153520,
            "time": 173.82222041666668,
            "velocity": 0.3937007874015748
          },
          {
            "duration": 0.10869549999998185,
            "durationTicks": 96,
            "midi": 53,
            "name": "F3",
            "ticks": 153520,
            "time": 173.82222041666668,
            "velocity": 0.3937007874015748
          },
          {
            "duration": 0.10869550000001027,
            "durationTicks": 96,
            "midi": 63,
            "name": "D#4",
            "ticks": 153552,
            "time": 173.85845225,
            "velocity": 0.3937007874015748
          },
          {
            "duration": 0.10869550000001027,
            "durationTicks": 96,
            "midi": 59,
            "name": "B3",
            "ticks": 153552,
            "time": 173.85845225,
            "velocity": 0.3937007874015748
          },
          {
            "duration": 0.10869550000001027,
            "durationTicks": 96,
            "midi": 56,
            "name": "G#3",
            "ticks": 153552,
            "time": 173.85845225,
            "velocity": 0.3937007874015748
          },
          {
            "duration": 0.10869549999998185,
            "durationTicks": 96,
            "midi": 95,
            "name": "B6",
            "ticks": 153568,
            "time": 173.8765681666667,
            "velocity": 0.3937007874015748
          },
          {
            "duration": 0.10869549999998185,
            "durationTicks": 96,
            "midi": 52,
            "name": "E3",
            "ticks": 153568,
            "time": 173.8765681666667,
            "velocity": 0.3937007874015748
          },
          {
            "duration": 0.10869550000001027,
            "durationTicks": 96,
            "midi": 54,
            "name": "F#3",
            "ticks": 153616,
            "time": 173.93091591666666,
            "velocity": 0.3937007874015748
          },
          {
            "duration": 0.10869550000001027,
            "durationTicks": 96,
            "midi": 95,
            "name": "B6",
            "ticks": 153616,
            "time": 173.93091591666666,
            "velocity": 0.3937007874015748
          },
          {
            "duration": 0.21739100000002054,
            "durationTicks": 192,
            "midi": 95,
            "name": "B6",
            "ticks": 153616,
            "time": 173.93091591666666,
            "velocity": 0.3937007874015748
          },
          {
            "duration": 0.10869550000001027,
            "durationTicks": 96,
            "midi": 54,
            "name": "F#3",
            "ticks": 153616,
            "time": 173.93091591666666,
            "velocity": 0.3937007874015748
          },
          {
            "duration": 0.10869550000001027,
            "durationTicks": 96,
            "midi": 78,
            "name": "F#5",
            "ticks": 153616,
            "time": 173.93091591666666,
            "velocity": 0.3937007874015748
          },
          {
            "duration": 0.10869550000001027,
            "durationTicks": 96,
            "midi": 34,
            "name": "A#1",
            "ticks": 153616,
            "time": 173.93091591666666,
            "velocity": 0.3937007874015748
          },
          {
            "duration": 0.10869550000001027,
            "durationTicks": 96,
            "midi": 66,
            "name": "F#4",
            "ticks": 153616,
            "time": 173.93091591666666,
            "velocity": 0.3937007874015748
          },
          {
            "duration": 0.10869550000001027,
            "durationTicks": 96,
            "midi": 61,
            "name": "C#4",
            "ticks": 153616,
            "time": 173.93091591666666,
            "velocity": 0.3937007874015748
          },
          {
            "duration": 0.10869550000001027,
            "durationTicks": 96,
            "midi": 84,
            "name": "C6",
            "ticks": 153616,
            "time": 173.93091591666666,
            "velocity": 0.3937007874015748
          },
          {
            "duration": 0.10869550000001027,
            "durationTicks": 96,
            "midi": 51,
            "name": "D#3",
            "ticks": 153616,
            "time": 173.93091591666666,
            "velocity": 0.3937007874015748
          },
          {
            "duration": 0.10869550000001027,
            "durationTicks": 96,
            "midi": 58,
            "name": "A#3",
            "ticks": 153616,
            "time": 173.93091591666666,
            "velocity": 0.3937007874015748
          },
          {
            "duration": 0.10869550000001027,
            "durationTicks": 96,
            "midi": 94,
            "name": "A#6",
            "ticks": 153616,
            "time": 173.93091591666666,
            "velocity": 0.3937007874015748
          },
          {
            "duration": 0.10869550000001027,
            "durationTicks": 96,
            "midi": 50,
            "name": "D3",
            "ticks": 153664,
            "time": 173.98526366666667,
            "velocity": 0.3937007874015748
          },
          {
            "duration": 0.10869550000001027,
            "durationTicks": 96,
            "midi": 93,
            "name": "A6",
            "ticks": 153664,
            "time": 173.98526366666667,
            "velocity": 0.3937007874015748
          },
          {
            "duration": 0.10869550000001027,
            "durationTicks": 96,
            "midi": 91,
            "name": "G6",
            "ticks": 153664,
            "time": 173.98526366666667,
            "velocity": 0.3937007874015748
          },
          {
            "duration": 0.10869550000001027,
            "durationTicks": 96,
            "midi": 92,
            "name": "G#6",
            "ticks": 153664,
            "time": 173.98526366666667,
            "velocity": 0.3937007874015748
          },
          {
            "duration": 0.10869550000001027,
            "durationTicks": 96,
            "midi": 90,
            "name": "F#6",
            "ticks": 153664,
            "time": 173.98526366666667,
            "velocity": 0.3937007874015748
          },
          {
            "duration": 0.10869550000001027,
            "durationTicks": 96,
            "midi": 61,
            "name": "C#4",
            "ticks": 153680,
            "time": 174.00337958333333,
            "velocity": 0.3937007874015748
          },
          {
            "duration": 0.10869550000001027,
            "durationTicks": 96,
            "midi": 54,
            "name": "F#3",
            "ticks": 153680,
            "time": 174.00337958333333,
            "velocity": 0.3937007874015748
          },
          {
            "duration": 0.10869550000001027,
            "durationTicks": 96,
            "midi": 58,
            "name": "A#3",
            "ticks": 153680,
            "time": 174.00337958333333,
            "velocity": 0.3937007874015748
          },
          {
            "duration": 0.10869550000001027,
            "durationTicks": 96,
            "midi": 89,
            "name": "F6",
            "ticks": 153712,
            "time": 174.03961141666667,
            "velocity": 0.3937007874015748
          },
          {
            "duration": 0.10869550000001027,
            "durationTicks": 96,
            "midi": 86,
            "name": "D6",
            "ticks": 153712,
            "time": 174.03961141666667,
            "velocity": 0.3937007874015748
          },
          {
            "duration": 0.10869550000001027,
            "durationTicks": 96,
            "midi": 85,
            "name": "C#6",
            "ticks": 153712,
            "time": 174.03961141666667,
            "velocity": 0.3937007874015748
          },
          {
            "duration": 0.10869550000001027,
            "durationTicks": 96,
            "midi": 88,
            "name": "E6",
            "ticks": 153712,
            "time": 174.03961141666667,
            "velocity": 0.3937007874015748
          },
          {
            "duration": 0.10869550000001027,
            "durationTicks": 96,
            "midi": 87,
            "name": "D#6",
            "ticks": 153712,
            "time": 174.03961141666667,
            "velocity": 0.3937007874015748
          },
          {
            "duration": 0.10869550000001027,
            "durationTicks": 96,
            "midi": 49,
            "name": "C#3",
            "ticks": 153712,
            "time": 174.03961141666667,
            "velocity": 0.3937007874015748
          },
          {
            "duration": 0.10869550000001027,
            "durationTicks": 96,
            "midi": 54,
            "name": "F#3",
            "ticks": 153744,
            "time": 174.07584325,
            "velocity": 0.3937007874015748
          },
          {
            "duration": 0.10869550000001027,
            "durationTicks": 96,
            "midi": 51,
            "name": "D#3",
            "ticks": 153744,
            "time": 174.07584325,
            "velocity": 0.3937007874015748
          },
          {
            "duration": 0.10869550000001027,
            "durationTicks": 96,
            "midi": 61,
            "name": "C#4",
            "ticks": 153744,
            "time": 174.07584325,
            "velocity": 0.3937007874015748
          },
          {
            "duration": 0.10869550000001027,
            "durationTicks": 96,
            "midi": 34,
            "name": "A#1",
            "ticks": 153744,
            "time": 174.07584325,
            "velocity": 0.3937007874015748
          },
          {
            "duration": 0.10869550000001027,
            "durationTicks": 96,
            "midi": 63,
            "name": "D#4",
            "ticks": 153744,
            "time": 174.07584325,
            "velocity": 0.3937007874015748
          },
          {
            "duration": 0.10869550000001027,
            "durationTicks": 96,
            "midi": 75,
            "name": "D#5",
            "ticks": 153744,
            "time": 174.07584325,
            "velocity": 0.3937007874015748
          },
          {
            "duration": 0.10869550000001027,
            "durationTicks": 96,
            "midi": 58,
            "name": "A#3",
            "ticks": 153744,
            "time": 174.07584325,
            "velocity": 0.3937007874015748
          },
          {
            "duration": 0.10869550000001027,
            "durationTicks": 96,
            "midi": 95,
            "name": "B6",
            "ticks": 153760,
            "time": 174.09395916666668,
            "velocity": 0.3937007874015748
          },
          {
            "duration": 0.10869550000001027,
            "durationTicks": 96,
            "midi": 48,
            "name": "C3",
            "ticks": 153760,
            "time": 174.09395916666668,
            "velocity": 0.3937007874015748
          },
          {
            "duration": 0.10869550000001027,
            "durationTicks": 96,
            "midi": 91,
            "name": "G6",
            "ticks": 153760,
            "time": 174.09395916666668,
            "velocity": 0.3937007874015748
          },
          {
            "duration": 0.10869550000001027,
            "durationTicks": 96,
            "midi": 84,
            "name": "C6",
            "ticks": 153760,
            "time": 174.09395916666668,
            "velocity": 0.3937007874015748
          },
          {
            "duration": 0.10869550000001027,
            "durationTicks": 96,
            "midi": 92,
            "name": "G#6",
            "ticks": 153760,
            "time": 174.09395916666668,
            "velocity": 0.3937007874015748
          },
          {
            "duration": 0.10869550000001027,
            "durationTicks": 96,
            "midi": 94,
            "name": "A#6",
            "ticks": 153760,
            "time": 174.09395916666668,
            "velocity": 0.3937007874015748
          },
          {
            "duration": 0.10869550000001027,
            "durationTicks": 96,
            "midi": 93,
            "name": "A6",
            "ticks": 153760,
            "time": 174.09395916666668,
            "velocity": 0.3937007874015748
          },
          {
            "duration": 0.10869549999998185,
            "durationTicks": 96,
            "midi": 86,
            "name": "D6",
            "ticks": 153808,
            "time": 174.14830691666668,
            "velocity": 0.3937007874015748
          },
          {
            "duration": 0.10869549999998185,
            "durationTicks": 96,
            "midi": 88,
            "name": "E6",
            "ticks": 153808,
            "time": 174.14830691666668,
            "velocity": 0.3937007874015748
          },
          {
            "duration": 0.10869549999998185,
            "durationTicks": 96,
            "midi": 58,
            "name": "A#3",
            "ticks": 153808,
            "time": 174.14830691666668,
            "velocity": 0.3937007874015748
          },
          {
            "duration": 0.10869549999998185,
            "durationTicks": 96,
            "midi": 47,
            "name": "B2",
            "ticks": 153808,
            "time": 174.14830691666668,
            "velocity": 0.3937007874015748
          },
          {
            "duration": 0.10869549999998185,
            "durationTicks": 96,
            "midi": 54,
            "name": "F#3",
            "ticks": 153808,
            "time": 174.14830691666668,
            "velocity": 0.3937007874015748
          },
          {
            "duration": 0.10869549999998185,
            "durationTicks": 96,
            "midi": 61,
            "name": "C#4",
            "ticks": 153808,
            "time": 174.14830691666668,
            "velocity": 0.3937007874015748
          },
          {
            "duration": 0.10869549999998185,
            "durationTicks": 96,
            "midi": 84,
            "name": "C6",
            "ticks": 153808,
            "time": 174.14830691666668,
            "velocity": 0.3937007874015748
          },
          {
            "duration": 0.10869549999998185,
            "durationTicks": 96,
            "midi": 90,
            "name": "F#6",
            "ticks": 153808,
            "time": 174.14830691666668,
            "velocity": 0.3937007874015748
          },
          {
            "duration": 0.10869549999998185,
            "durationTicks": 96,
            "midi": 85,
            "name": "C#6",
            "ticks": 153808,
            "time": 174.14830691666668,
            "velocity": 0.3937007874015748
          },
          {
            "duration": 0.10869549999998185,
            "durationTicks": 96,
            "midi": 89,
            "name": "F6",
            "ticks": 153808,
            "time": 174.14830691666668,
            "velocity": 0.3937007874015748
          },
          {
            "duration": 0.10869549999998185,
            "durationTicks": 96,
            "midi": 87,
            "name": "D#6",
            "ticks": 153808,
            "time": 174.14830691666668,
            "velocity": 0.3937007874015748
          },
          {
            "duration": 0.10869549999998185,
            "durationTicks": 96,
            "midi": 46,
            "name": "A#2",
            "ticks": 153856,
            "time": 174.2026546666667,
            "velocity": 0.3937007874015748
          },
          {
            "duration": 0.10869549999998185,
            "durationTicks": 96,
            "midi": 83,
            "name": "B5",
            "ticks": 153856,
            "time": 174.2026546666667,
            "velocity": 0.3937007874015748
          },
          {
            "duration": 0.10869549999998185,
            "durationTicks": 96,
            "midi": 82,
            "name": "A#5",
            "ticks": 153856,
            "time": 174.2026546666667,
            "velocity": 0.3937007874015748
          },
          {
            "duration": 0.10869549999998185,
            "durationTicks": 96,
            "midi": 77,
            "name": "F5",
            "ticks": 153856,
            "time": 174.2026546666667,
            "velocity": 0.3937007874015748
          },
          {
            "duration": 0.10869549999998185,
            "durationTicks": 96,
            "midi": 78,
            "name": "F#5",
            "ticks": 153856,
            "time": 174.2026546666667,
            "velocity": 0.3937007874015748
          },
          {
            "duration": 0.10869549999998185,
            "durationTicks": 96,
            "midi": 81,
            "name": "A5",
            "ticks": 153856,
            "time": 174.2026546666667,
            "velocity": 0.3937007874015748
          },
          {
            "duration": 0.10869549999998185,
            "durationTicks": 96,
            "midi": 79,
            "name": "G5",
            "ticks": 153856,
            "time": 174.2026546666667,
            "velocity": 0.3937007874015748
          },
          {
            "duration": 0.10869549999998185,
            "durationTicks": 96,
            "midi": 80,
            "name": "G#5",
            "ticks": 153856,
            "time": 174.2026546666667,
            "velocity": 0.3937007874015748
          },
          {
            "duration": 0.10869549999998185,
            "durationTicks": 96,
            "midi": 76,
            "name": "E5",
            "ticks": 153856,
            "time": 174.2026546666667,
            "velocity": 0.3937007874015748
          },
          {
            "duration": 0.10869550000001027,
            "durationTicks": 96,
            "midi": 54,
            "name": "F#3",
            "ticks": 153872,
            "time": 174.22077058333332,
            "velocity": 0.3937007874015748
          },
          {
            "duration": 0.10869550000001027,
            "durationTicks": 96,
            "midi": 34,
            "name": "A#1",
            "ticks": 153872,
            "time": 174.22077058333332,
            "velocity": 0.3937007874015748
          },
          {
            "duration": 0.10869550000001027,
            "durationTicks": 96,
            "midi": 58,
            "name": "A#3",
            "ticks": 153872,
            "time": 174.22077058333332,
            "velocity": 0.3937007874015748
          },
          {
            "duration": 0.10869550000001027,
            "durationTicks": 96,
            "midi": 61,
            "name": "C#4",
            "ticks": 153872,
            "time": 174.22077058333332,
            "velocity": 0.3937007874015748
          },
          {
            "duration": 0.10869550000001027,
            "durationTicks": 96,
            "midi": 78,
            "name": "F#5",
            "ticks": 153872,
            "time": 174.22077058333332,
            "velocity": 0.3937007874015748
          },
          {
            "duration": 0.10869550000001027,
            "durationTicks": 96,
            "midi": 54,
            "name": "F#3",
            "ticks": 153872,
            "time": 174.22077058333332,
            "velocity": 0.3937007874015748
          },
          {
            "duration": 0.10869550000001027,
            "durationTicks": 96,
            "midi": 66,
            "name": "F#4",
            "ticks": 153872,
            "time": 174.22077058333332,
            "velocity": 0.3937007874015748
          },
          {
            "duration": 0.10869550000001027,
            "durationTicks": 96,
            "midi": 68,
            "name": "G#4",
            "ticks": 153904,
            "time": 174.25700241666667,
            "velocity": 0.3937007874015748
          },
          {
            "duration": 0.10869550000001027,
            "durationTicks": 96,
            "midi": 69,
            "name": "A4",
            "ticks": 153904,
            "time": 174.25700241666667,
            "velocity": 0.3937007874015748
          },
          {
            "duration": 0.10869550000001027,
            "durationTicks": 96,
            "midi": 67,
            "name": "G4",
            "ticks": 153904,
            "time": 174.25700241666667,
            "velocity": 0.3937007874015748
          },
          {
            "duration": 0.10869550000001027,
            "durationTicks": 96,
            "midi": 45,
            "name": "A2",
            "ticks": 153904,
            "time": 174.25700241666667,
            "velocity": 0.3937007874015748
          },
          {
            "duration": 0.10869550000001027,
            "durationTicks": 96,
            "midi": 70,
            "name": "A#4",
            "ticks": 153904,
            "time": 174.25700241666667,
            "velocity": 0.3937007874015748
          },
          {
            "duration": 0.10869550000001027,
            "durationTicks": 96,
            "midi": 71,
            "name": "B4",
            "ticks": 153904,
            "time": 174.25700241666667,
            "velocity": 0.3937007874015748
          },
          {
            "duration": 0.10869550000001027,
            "durationTicks": 96,
            "midi": 72,
            "name": "C5",
            "ticks": 153904,
            "time": 174.25700241666667,
            "velocity": 0.3937007874015748
          },
          {
            "duration": 0.10869550000001027,
            "durationTicks": 96,
            "midi": 73,
            "name": "C#5",
            "ticks": 153904,
            "time": 174.25700241666667,
            "velocity": 0.3937007874015748
          },
          {
            "duration": 0.10869550000001027,
            "durationTicks": 96,
            "midi": 74,
            "name": "D5",
            "ticks": 153904,
            "time": 174.25700241666667,
            "velocity": 0.3937007874015748
          },
          {
            "duration": 0.10869550000001027,
            "durationTicks": 96,
            "midi": 75,
            "name": "D#5",
            "ticks": 153904,
            "time": 174.25700241666667,
            "velocity": 0.3937007874015748
          },
          {
            "duration": 0.10869549999998185,
            "durationTicks": 96,
            "midi": 61,
            "name": "C#4",
            "ticks": 153936,
            "time": 174.29323425,
            "velocity": 0.3937007874015748
          },
          {
            "duration": 0.10869549999998185,
            "durationTicks": 96,
            "midi": 58,
            "name": "A#3",
            "ticks": 153936,
            "time": 174.29323425,
            "velocity": 0.3937007874015748
          },
          {
            "duration": 0.10869549999998185,
            "durationTicks": 96,
            "midi": 54,
            "name": "F#3",
            "ticks": 153936,
            "time": 174.29323425,
            "velocity": 0.3937007874015748
          },
          {
            "duration": 0.10869550000001027,
            "durationTicks": 96,
            "midi": 62,
            "name": "D4",
            "ticks": 153952,
            "time": 174.31135016666667,
            "velocity": 0.3937007874015748
          },
          {
            "duration": 0.10869550000001027,
            "durationTicks": 96,
            "midi": 60,
            "name": "C4",
            "ticks": 153952,
            "time": 174.31135016666667,
            "velocity": 0.3937007874015748
          },
          {
            "duration": 0.10869550000001027,
            "durationTicks": 96,
            "midi": 59,
            "name": "B3",
            "ticks": 153952,
            "time": 174.31135016666667,
            "velocity": 0.3937007874015748
          },
          {
            "duration": 0.10869550000001027,
            "durationTicks": 96,
            "midi": 57,
            "name": "A3",
            "ticks": 153952,
            "time": 174.31135016666667,
            "velocity": 0.3937007874015748
          },
          {
            "duration": 0.10869550000001027,
            "durationTicks": 96,
            "midi": 63,
            "name": "D#4",
            "ticks": 153952,
            "time": 174.31135016666667,
            "velocity": 0.3937007874015748
          },
          {
            "duration": 0.10869550000001027,
            "durationTicks": 96,
            "midi": 58,
            "name": "A#3",
            "ticks": 153952,
            "time": 174.31135016666667,
            "velocity": 0.3937007874015748
          },
          {
            "duration": 0.10869550000001027,
            "durationTicks": 96,
            "midi": 65,
            "name": "F4",
            "ticks": 153952,
            "time": 174.31135016666667,
            "velocity": 0.3937007874015748
          },
          {
            "duration": 0.10869550000001027,
            "durationTicks": 96,
            "midi": 64,
            "name": "E4",
            "ticks": 153952,
            "time": 174.31135016666667,
            "velocity": 0.3937007874015748
          },
          {
            "duration": 0.10869550000001027,
            "durationTicks": 96,
            "midi": 44,
            "name": "G#2",
            "ticks": 153952,
            "time": 174.31135016666667,
            "velocity": 0.3937007874015748
          },
          {
            "duration": 0.10869550000001027,
            "durationTicks": 96,
            "midi": 61,
            "name": "C#4",
            "ticks": 153952,
            "time": 174.31135016666667,
            "velocity": 0.3937007874015748
          },
          {
            "duration": 0.10869550000001027,
            "durationTicks": 96,
            "midi": 66,
            "name": "F#4",
            "ticks": 153952,
            "time": 174.31135016666667,
            "velocity": 0.3937007874015748
          },
          {
            "duration": 0.10869550000001027,
            "durationTicks": 96,
            "midi": 54,
            "name": "F#3",
            "ticks": 154000,
            "time": 174.36569791666668,
            "velocity": 0.3937007874015748
          },
          {
            "duration": 0.10869550000001027,
            "durationTicks": 96,
            "midi": 48,
            "name": "C3",
            "ticks": 154000,
            "time": 174.36569791666668,
            "velocity": 0.3937007874015748
          },
          {
            "duration": 0.10869550000001027,
            "durationTicks": 96,
            "midi": 52,
            "name": "E3",
            "ticks": 154000,
            "time": 174.36569791666668,
            "velocity": 0.3937007874015748
          },
          {
            "duration": 0.21739099999999212,
            "durationTicks": 192,
            "midi": 58,
            "name": "A#3",
            "ticks": 154000,
            "time": 174.36569791666668,
            "velocity": 0.3937007874015748
          },
          {
            "duration": 0.21739099999999212,
            "durationTicks": 192,
            "midi": 75,
            "name": "D#5",
            "ticks": 154000,
            "time": 174.36569791666668,
            "velocity": 0.3937007874015748
          },
          {
            "duration": 0.10869550000001027,
            "durationTicks": 96,
            "midi": 55,
            "name": "G3",
            "ticks": 154000,
            "time": 174.36569791666668,
            "velocity": 0.3937007874015748
          },
          {
            "duration": 0.21739099999999212,
            "durationTicks": 192,
            "midi": 70,
            "name": "A#4",
            "ticks": 154000,
            "time": 174.36569791666668,
            "velocity": 0.3937007874015748
          },
          {
            "duration": 0.10869550000001027,
            "durationTicks": 96,
            "midi": 50,
            "name": "D3",
            "ticks": 154000,
            "time": 174.36569791666668,
            "velocity": 0.3937007874015748
          },
          {
            "duration": 0.21739099999999212,
            "durationTicks": 192,
            "midi": 63,
            "name": "D#4",
            "ticks": 154000,
            "time": 174.36569791666668,
            "velocity": 0.3937007874015748
          },
          {
            "duration": 0.10869550000001027,
            "durationTicks": 96,
            "midi": 43,
            "name": "G2",
            "ticks": 154000,
            "time": 174.36569791666668,
            "velocity": 0.3937007874015748
          },
          {
            "duration": 0.21739099999999212,
            "durationTicks": 192,
            "midi": 58,
            "name": "A#3",
            "ticks": 154000,
            "time": 174.36569791666668,
            "velocity": 0.3937007874015748
          },
          {
            "duration": 0.10869550000001027,
            "durationTicks": 96,
            "midi": 39,
            "name": "D#2",
            "ticks": 154000,
            "time": 174.36569791666668,
            "velocity": 0.3937007874015748
          },
          {
            "duration": 0.10869550000001027,
            "durationTicks": 96,
            "midi": 49,
            "name": "C#3",
            "ticks": 154000,
            "time": 174.36569791666668,
            "velocity": 0.3937007874015748
          },
          {
            "duration": 0.10869550000001027,
            "durationTicks": 96,
            "midi": 46,
            "name": "A#2",
            "ticks": 154000,
            "time": 174.36569791666668,
            "velocity": 0.3937007874015748
          },
          {
            "duration": 0.10869550000001027,
            "durationTicks": 96,
            "midi": 51,
            "name": "D#3",
            "ticks": 154000,
            "time": 174.36569791666668,
            "velocity": 0.3937007874015748
          },
          {
            "duration": 0.10869550000001027,
            "durationTicks": 96,
            "midi": 47,
            "name": "B2",
            "ticks": 154000,
            "time": 174.36569791666668,
            "velocity": 0.3937007874015748
          },
          {
            "duration": 0.10869550000001027,
            "durationTicks": 96,
            "midi": 27,
            "name": "D#1",
            "ticks": 154000,
            "time": 174.36569791666668,
            "velocity": 0.3937007874015748
          },
          {
            "duration": 0.10869550000001027,
            "durationTicks": 96,
            "midi": 56,
            "name": "G#3",
            "ticks": 154000,
            "time": 174.36569791666668,
            "velocity": 0.3937007874015748
          },
          {
            "duration": 0.10869550000001027,
            "durationTicks": 96,
            "midi": 87,
            "name": "D#6",
            "ticks": 154000,
            "time": 174.36569791666668,
            "velocity": 0.3937007874015748
          },
          {
            "duration": 0.21739099999999212,
            "durationTicks": 192,
            "midi": 54,
            "name": "F#3",
            "ticks": 154000,
            "time": 174.36569791666668,
            "velocity": 0.3937007874015748
          },
          {
            "duration": 0.21739099999999212,
            "durationTicks": 192,
            "midi": 63,
            "name": "D#4",
            "ticks": 154000,
            "time": 174.36569791666668,
            "velocity": 0.3937007874015748
          },
          {
            "duration": 0.16304324999998698,
            "durationTicks": 144,
            "midi": 34,
            "name": "A#1",
            "ticks": 154000,
            "time": 174.36569791666668,
            "velocity": 0.3937007874015748
          },
          {
            "duration": 0.10869550000001027,
            "durationTicks": 96,
            "midi": 53,
            "name": "F3",
            "ticks": 154000,
            "time": 174.36569791666668,
            "velocity": 0.3937007874015748
          },
          {
            "duration": 0.10869550000001027,
            "durationTicks": 96,
            "midi": 51,
            "name": "D#3",
            "ticks": 154000,
            "time": 174.36569791666668,
            "velocity": 0.3937007874015748
          },
          {
            "duration": 0.10869549999998185,
            "durationTicks": 96,
            "midi": 35,
            "name": "B1",
            "ticks": 154048,
            "time": 174.42004566666668,
            "velocity": 0.3937007874015748
          },
          {
            "duration": 0.10869549999998185,
            "durationTicks": 96,
            "midi": 44,
            "name": "G#2",
            "ticks": 154048,
            "time": 174.42004566666668,
            "velocity": 0.3937007874015748
          },
          {
            "duration": 0.10869549999998185,
            "durationTicks": 96,
            "midi": 36,
            "name": "C2",
            "ticks": 154048,
            "time": 174.42004566666668,
            "velocity": 0.3937007874015748
          },
          {
            "duration": 0.10869549999998185,
            "durationTicks": 96,
            "midi": 41,
            "name": "F2",
            "ticks": 154048,
            "time": 174.42004566666668,
            "velocity": 0.3937007874015748
          },
          {
            "duration": 0.10869549999998185,
            "durationTicks": 96,
            "midi": 38,
            "name": "D2",
            "ticks": 154048,
            "time": 174.42004566666668,
            "velocity": 0.3937007874015748
          },
          {
            "duration": 0.10869549999998185,
            "durationTicks": 96,
            "midi": 40,
            "name": "E2",
            "ticks": 154048,
            "time": 174.42004566666668,
            "velocity": 0.3937007874015748
          },
          {
            "duration": 0.10869549999998185,
            "durationTicks": 96,
            "midi": 45,
            "name": "A2",
            "ticks": 154048,
            "time": 174.42004566666668,
            "velocity": 0.3937007874015748
          },
          {
            "duration": 0.10869549999998185,
            "durationTicks": 96,
            "midi": 39,
            "name": "D#2",
            "ticks": 154048,
            "time": 174.42004566666668,
            "velocity": 0.3937007874015748
          },
          {
            "duration": 0.16304324999998698,
            "durationTicks": 144,
            "midi": 34,
            "name": "A#1",
            "ticks": 154048,
            "time": 174.42004566666668,
            "velocity": 0.3937007874015748
          },
          {
            "duration": 0.10869549999998185,
            "durationTicks": 96,
            "midi": 43,
            "name": "G2",
            "ticks": 154048,
            "time": 174.42004566666668,
            "velocity": 0.3937007874015748
          },
          {
            "duration": 0.10869549999998185,
            "durationTicks": 96,
            "midi": 37,
            "name": "C#2",
            "ticks": 154048,
            "time": 174.42004566666668,
            "velocity": 0.3937007874015748
          },
          {
            "duration": 0.10869549999998185,
            "durationTicks": 96,
            "midi": 42,
            "name": "F#2",
            "ticks": 154048,
            "time": 174.42004566666668,
            "velocity": 0.3937007874015748
          },
          {
            "duration": 0.10869549999998185,
            "durationTicks": 96,
            "midi": 33,
            "name": "A1",
            "ticks": 154096,
            "time": 174.4743934166667,
            "velocity": 0.3937007874015748
          },
          {
            "duration": 0.10869549999998185,
            "durationTicks": 96,
            "midi": 32,
            "name": "G#1",
            "ticks": 154096,
            "time": 174.4743934166667,
            "velocity": 0.3937007874015748
          },
          {
            "duration": 0.10869549999998185,
            "durationTicks": 96,
            "midi": 31,
            "name": "G1",
            "ticks": 154096,
            "time": 174.4743934166667,
            "velocity": 0.3937007874015748
          },
          {
            "duration": 0.10869549999998185,
            "durationTicks": 96,
            "midi": 54,
            "name": "F#3",
            "ticks": 154096,
            "time": 174.4743934166667,
            "velocity": 0.3937007874015748
          },
          {
            "duration": 0.10869549999998185,
            "durationTicks": 96,
            "midi": 24,
            "name": "C1",
            "ticks": 154096,
            "time": 174.4743934166667,
            "velocity": 0.3937007874015748
          },
          {
            "duration": 0.10869549999998185,
            "durationTicks": 96,
            "midi": 35,
            "name": "B1",
            "ticks": 154096,
            "time": 174.4743934166667,
            "velocity": 0.3937007874015748
          },
          {
            "duration": 0.10869549999998185,
            "durationTicks": 96,
            "midi": 34,
            "name": "A#1",
            "ticks": 154096,
            "time": 174.4743934166667,
            "velocity": 0.3937007874015748
          },
          {
            "duration": 0.10869549999998185,
            "durationTicks": 96,
            "midi": 29,
            "name": "F1",
            "ticks": 154096,
            "time": 174.4743934166667,
            "velocity": 0.3937007874015748
          },
          {
            "duration": 0.10869549999998185,
            "durationTicks": 96,
            "midi": 28,
            "name": "E1",
            "ticks": 154096,
            "time": 174.4743934166667,
            "velocity": 0.3937007874015748
          },
          {
            "duration": 0.10869549999998185,
            "durationTicks": 96,
            "midi": 30,
            "name": "F#1",
            "ticks": 154096,
            "time": 174.4743934166667,
            "velocity": 0.3937007874015748
          },
          {
            "duration": 0.10869549999998185,
            "durationTicks": 96,
            "midi": 33,
            "name": "A1",
            "ticks": 154096,
            "time": 174.4743934166667,
            "velocity": 0.3937007874015748
          },
          {
            "duration": 0.10869549999998185,
            "durationTicks": 96,
            "midi": 87,
            "name": "D#6",
            "ticks": 154096,
            "time": 174.4743934166667,
            "velocity": 0.3937007874015748
          },
          {
            "duration": 0.10869549999998185,
            "durationTicks": 96,
            "midi": 27,
            "name": "D#1",
            "ticks": 154096,
            "time": 174.4743934166667,
            "velocity": 0.3937007874015748
          },
          {
            "duration": 0.10869549999998185,
            "durationTicks": 96,
            "midi": 26,
            "name": "D1",
            "ticks": 154096,
            "time": 174.4743934166667,
            "velocity": 0.3937007874015748
          },
          {
            "duration": 0.10869549999998185,
            "durationTicks": 96,
            "midi": 25,
            "name": "C#1",
            "ticks": 154096,
            "time": 174.4743934166667,
            "velocity": 0.3937007874015748
          },
          {
            "duration": 0.21739100000002054,
            "durationTicks": 192,
            "midi": 61,
            "name": "C#4",
            "ticks": 154192,
            "time": 174.58308891666667,
            "velocity": 0.3937007874015748
          },
          {
            "duration": 0.21739100000002054,
            "durationTicks": 192,
            "midi": 73,
            "name": "C#5",
            "ticks": 154192,
            "time": 174.58308891666667,
            "velocity": 0.3937007874015748
          },
          {
            "duration": 0.21739100000002054,
            "durationTicks": 192,
            "midi": 77,
            "name": "F5",
            "ticks": 154192,
            "time": 174.58308891666667,
            "velocity": 0.3937007874015748
          },
          {
            "duration": 0.21739100000002054,
            "durationTicks": 192,
            "midi": 63,
            "name": "D#4",
            "ticks": 154192,
            "time": 174.58308891666667,
            "velocity": 0.3937007874015748
          },
          {
            "duration": 0.21739100000002054,
            "durationTicks": 192,
            "midi": 54,
            "name": "F#3",
            "ticks": 154192,
            "time": 174.58308891666667,
            "velocity": 0.3937007874015748
          },
          {
            "duration": 0.10869550000001027,
            "durationTicks": 96,
            "midi": 39,
            "name": "D#2",
            "ticks": 154192,
            "time": 174.58308891666667,
            "velocity": 0.3937007874015748
          },
          {
            "duration": 0.10869550000001027,
            "durationTicks": 96,
            "midi": 86,
            "name": "D6",
            "ticks": 154192,
            "time": 174.58308891666667,
            "velocity": 0.3937007874015748
          },
          {
            "duration": 0.10869550000001027,
            "durationTicks": 96,
            "midi": 51,
            "name": "D#3",
            "ticks": 154192,
            "time": 174.58308891666667,
            "velocity": 0.3937007874015748
          },
          {
            "duration": 0.10869550000001027,
            "durationTicks": 96,
            "midi": 58,
            "name": "A#3",
            "ticks": 154192,
            "time": 174.58308891666667,
            "velocity": 0.3937007874015748
          },
          {
            "duration": 0.21739100000002054,
            "durationTicks": 192,
            "midi": 65,
            "name": "F4",
            "ticks": 154192,
            "time": 174.58308891666667,
            "velocity": 0.3937007874015748
          },
          {
            "duration": 0.21739100000002054,
            "durationTicks": 192,
            "midi": 58,
            "name": "A#3",
            "ticks": 154192,
            "time": 174.58308891666667,
            "velocity": 0.3937007874015748
          },
          {
            "duration": 0.10869550000001027,
            "durationTicks": 96,
            "midi": 63,
            "name": "D#4",
            "ticks": 154288,
            "time": 174.69178441666668,
            "velocity": 0.3937007874015748
          },
          {
            "duration": 0.10869550000001027,
            "durationTicks": 96,
            "midi": 86,
            "name": "D6",
            "ticks": 154288,
            "time": 174.69178441666668,
            "velocity": 0.3937007874015748
          },
          {
            "duration": 0.10869550000001027,
            "durationTicks": 96,
            "midi": 39,
            "name": "D#2",
            "ticks": 154288,
            "time": 174.69178441666668,
            "velocity": 0.3937007874015748
          },
          {
            "duration": 0.10869550000001027,
            "durationTicks": 96,
            "midi": 51,
            "name": "D#3",
            "ticks": 154288,
            "time": 174.69178441666668,
            "velocity": 0.3937007874015748
          },
          {
            "duration": 0.21739099999999212,
            "durationTicks": 192,
            "midi": 75,
            "name": "D#5",
            "ticks": 154384,
            "time": 174.8004799166667,
            "velocity": 0.3937007874015748
          },
          {
            "duration": 0.10869549999998185,
            "durationTicks": 96,
            "midi": 66,
            "name": "F#4",
            "ticks": 154384,
            "time": 174.8004799166667,
            "velocity": 0.3937007874015748
          },
          {
            "duration": 0.21739099999999212,
            "durationTicks": 192,
            "midi": 54,
            "name": "F#3",
            "ticks": 154384,
            "time": 174.8004799166667,
            "velocity": 0.3937007874015748
          },
          {
            "duration": 0.10869549999998185,
            "durationTicks": 96,
            "midi": 27,
            "name": "D#1",
            "ticks": 154384,
            "time": 174.8004799166667,
            "velocity": 0.3937007874015748
          },
          {
            "duration": 0.21739099999999212,
            "durationTicks": 192,
            "midi": 66,
            "name": "F#4",
            "ticks": 154384,
            "time": 174.8004799166667,
            "velocity": 0.3937007874015748
          },
          {
            "duration": 0.21739099999999212,
            "durationTicks": 192,
            "midi": 58,
            "name": "A#3",
            "ticks": 154384,
            "time": 174.8004799166667,
            "velocity": 0.3937007874015748
          },
          {
            "duration": 0.21739099999999212,
            "durationTicks": 192,
            "midi": 63,
            "name": "D#4",
            "ticks": 154384,
            "time": 174.8004799166667,
            "velocity": 0.3937007874015748
          },
          {
            "duration": 0.10869549999998185,
            "durationTicks": 96,
            "midi": 85,
            "name": "C#6",
            "ticks": 154384,
            "time": 174.8004799166667,
            "velocity": 0.3937007874015748
          },
          {
            "duration": 0.21739099999999212,
            "durationTicks": 192,
            "midi": 78,
            "name": "F#5",
            "ticks": 154384,
            "time": 174.8004799166667,
            "velocity": 0.3937007874015748
          },
          {
            "duration": 0.21739099999999212,
            "durationTicks": 192,
            "midi": 34,
            "name": "A#1",
            "ticks": 154384,
            "time": 174.8004799166667,
            "velocity": 0.3937007874015748
          },
          {
            "duration": 0.10869549999998185,
            "durationTicks": 96,
            "midi": 39,
            "name": "D#2",
            "ticks": 154384,
            "time": 174.8004799166667,
            "velocity": 0.3937007874015748
          },
          {
            "duration": 0.21739099999999212,
            "durationTicks": 192,
            "midi": 63,
            "name": "D#4",
            "ticks": 154384,
            "time": 174.8004799166667,
            "velocity": 0.3937007874015748
          },
          {
            "duration": 0.10869550000001027,
            "durationTicks": 96,
            "midi": 39,
            "name": "D#2",
            "ticks": 154480,
            "time": 174.90917541666667,
            "velocity": 0.3937007874015748
          },
          {
            "duration": 0.10869550000001027,
            "durationTicks": 96,
            "midi": 85,
            "name": "C#6",
            "ticks": 154480,
            "time": 174.90917541666667,
            "velocity": 0.3937007874015748
          },
          {
            "duration": 0.10869550000001027,
            "durationTicks": 96,
            "midi": 51,
            "name": "D#3",
            "ticks": 154480,
            "time": 174.90917541666667,
            "velocity": 0.3937007874015748
          },
          {
            "duration": 0.10869550000001027,
            "durationTicks": 96,
            "midi": 70,
            "name": "A#4",
            "ticks": 154480,
            "time": 174.90917541666667,
            "velocity": 0.3937007874015748
          },
          {
            "duration": 0.21739099999999212,
            "durationTicks": 192,
            "midi": 68,
            "name": "G#4",
            "ticks": 154576,
            "time": 175.01787091666668,
            "velocity": 0.3937007874015748
          },
          {
            "duration": 0.21739099999999212,
            "durationTicks": 192,
            "midi": 63,
            "name": "D#4",
            "ticks": 154576,
            "time": 175.01787091666668,
            "velocity": 0.3937007874015748
          },
          {
            "duration": 0.10869549999998185,
            "durationTicks": 96,
            "midi": 49,
            "name": "C#3",
            "ticks": 154576,
            "time": 175.01787091666668,
            "velocity": 0.3937007874015748
          },
          {
            "duration": 0.21739099999999212,
            "durationTicks": 192,
            "midi": 77,
            "name": "F5",
            "ticks": 154576,
            "time": 175.01787091666668,
            "velocity": 0.3937007874015748
          },
          {
            "duration": 0.10869549999998185,
            "durationTicks": 96,
            "midi": 75,
            "name": "D#5",
            "ticks": 154576,
            "time": 175.01787091666668,
            "velocity": 0.3937007874015748
          },
          {
            "duration": 0.10869549999998185,
            "durationTicks": 96,
            "midi": 37,
            "name": "C#2",
            "ticks": 154576,
            "time": 175.01787091666668,
            "velocity": 0.3937007874015748
          },
          {
            "duration": 0.10869549999998185,
            "durationTicks": 96,
            "midi": 84,
            "name": "C6",
            "ticks": 154576,
            "time": 175.01787091666668,
            "velocity": 0.3937007874015748
          },
          {
            "duration": 0.21739099999999212,
            "durationTicks": 192,
            "midi": 54,
            "name": "F#3",
            "ticks": 154576,
            "time": 175.01787091666668,
            "velocity": 0.3937007874015748
          },
          {
            "duration": 0.21739099999999212,
            "durationTicks": 192,
            "midi": 65,
            "name": "F4",
            "ticks": 154576,
            "time": 175.01787091666668,
            "velocity": 0.3937007874015748
          },
          {
            "duration": 0.21739099999999212,
            "durationTicks": 192,
            "midi": 58,
            "name": "A#3",
            "ticks": 154576,
            "time": 175.01787091666668,
            "velocity": 0.3937007874015748
          },
          {
            "duration": 0.21739099999999212,
            "durationTicks": 192,
            "midi": 80,
            "name": "G#5",
            "ticks": 154576,
            "time": 175.01787091666668,
            "velocity": 0.3937007874015748
          },
          {
            "duration": 0.10869550000001027,
            "durationTicks": 96,
            "midi": 78,
            "name": "F#5",
            "ticks": 154672,
            "time": 175.12656641666666,
            "velocity": 0.3937007874015748
          },
          {
            "duration": 0.10869550000001027,
            "durationTicks": 96,
            "midi": 51,
            "name": "D#3",
            "ticks": 154672,
            "time": 175.12656641666666,
            "velocity": 0.3937007874015748
          },
          {
            "duration": 0.10869550000001027,
            "durationTicks": 96,
            "midi": 39,
            "name": "D#2",
            "ticks": 154672,
            "time": 175.12656641666666,
            "velocity": 0.3937007874015748
          },
          {
            "duration": 0.10869550000001027,
            "durationTicks": 96,
            "midi": 84,
            "name": "C6",
            "ticks": 154672,
            "time": 175.12656641666666,
            "velocity": 0.3937007874015748
          },
          {
            "duration": 0.10869550000001027,
            "durationTicks": 96,
            "midi": 95,
            "name": "B6",
            "ticks": 154768,
            "time": 175.23526191666667,
            "velocity": 0.3937007874015748
          },
          {
            "duration": 0.10869550000001027,
            "durationTicks": 96,
            "midi": 27,
            "name": "D#1",
            "ticks": 154768,
            "time": 175.23526191666667,
            "velocity": 0.3937007874015748
          },
          {
            "duration": 0.21739099999999212,
            "durationTicks": 192,
            "midi": 58,
            "name": "A#3",
            "ticks": 154768,
            "time": 175.23526191666667,
            "velocity": 0.3937007874015748
          },
          {
            "duration": 0.10869550000001027,
            "durationTicks": 96,
            "midi": 39,
            "name": "D#2",
            "ticks": 154768,
            "time": 175.23526191666667,
            "velocity": 0.3937007874015748
          },
          {
            "duration": 0.10869550000001027,
            "durationTicks": 96,
            "midi": 51,
            "name": "D#3",
            "ticks": 154768,
            "time": 175.23526191666667,
            "velocity": 0.3937007874015748
          },
          {
            "duration": 0.21739099999999212,
            "durationTicks": 192,
            "midi": 63,
            "name": "D#4",
            "ticks": 154768,
            "time": 175.23526191666667,
            "velocity": 0.3937007874015748
          },
          {
            "duration": 0.21739099999999212,
            "durationTicks": 192,
            "midi": 34,
            "name": "A#1",
            "ticks": 154768,
            "time": 175.23526191666667,
            "velocity": 0.3937007874015748
          },
          {
            "duration": 0.43478200000001266,
            "durationTicks": 384,
            "midi": 82,
            "name": "A#5",
            "ticks": 154768,
            "time": 175.23526191666667,
            "velocity": 0.3937007874015748
          },
          {
            "duration": 0.21739099999999212,
            "durationTicks": 192,
            "midi": 54,
            "name": "F#3",
            "ticks": 154768,
            "time": 175.23526191666667,
            "velocity": 0.3937007874015748
          },
          {
            "duration": 0.43478200000001266,
            "durationTicks": 384,
            "midi": 70,
            "name": "A#4",
            "ticks": 154768,
            "time": 175.23526191666667,
            "velocity": 0.3937007874015748
          },
          {
            "duration": 0.43478200000001266,
            "durationTicks": 384,
            "midi": 66,
            "name": "F#4",
            "ticks": 154768,
            "time": 175.23526191666667,
            "velocity": 0.3937007874015748
          },
          {
            "duration": 0.43478200000001266,
            "durationTicks": 384,
            "midi": 78,
            "name": "F#5",
            "ticks": 154768,
            "time": 175.23526191666667,
            "velocity": 0.3937007874015748
          },
          {
            "duration": 0.10869549999998185,
            "durationTicks": 96,
            "midi": 95,
            "name": "B6",
            "ticks": 154864,
            "time": 175.34395741666668,
            "velocity": 0.3937007874015748
          },
          {
            "duration": 0.10869549999998185,
            "durationTicks": 96,
            "midi": 54,
            "name": "F#3",
            "ticks": 154864,
            "time": 175.34395741666668,
            "velocity": 0.3937007874015748
          },
          {
            "duration": 0.10869550000001027,
            "durationTicks": 96,
            "midi": 58,
            "name": "A#3",
            "ticks": 154960,
            "time": 175.45265291666666,
            "velocity": 0.3937007874015748
          },
          {
            "duration": 0.10869550000001027,
            "durationTicks": 96,
            "midi": 94,
            "name": "A#6",
            "ticks": 154960,
            "time": 175.45265291666666,
            "velocity": 0.3937007874015748
          },
          {
            "duration": 0.21739100000002054,
            "durationTicks": 192,
            "midi": 63,
            "name": "D#4",
            "ticks": 154960,
            "time": 175.45265291666666,
            "velocity": 0.3937007874015748
          },
          {
            "duration": 0.21739100000002054,
            "durationTicks": 192,
            "midi": 58,
            "name": "A#3",
            "ticks": 154960,
            "time": 175.45265291666666,
            "velocity": 0.3937007874015748
          },
          {
            "duration": 0.10869550000001027,
            "durationTicks": 96,
            "midi": 51,
            "name": "D#3",
            "ticks": 154960,
            "time": 175.45265291666666,
            "velocity": 0.3937007874015748
          },
          {
            "duration": 0.21739100000002054,
            "durationTicks": 192,
            "midi": 54,
            "name": "F#3",
            "ticks": 154960,
            "time": 175.45265291666666,
            "velocity": 0.3937007874015748
          },
          {
            "duration": 0.10869550000001027,
            "durationTicks": 96,
            "midi": 39,
            "name": "D#2",
            "ticks": 154960,
            "time": 175.45265291666666,
            "velocity": 0.3937007874015748
          },
          {
            "duration": 0.10869550000001027,
            "durationTicks": 96,
            "midi": 51,
            "name": "D#3",
            "ticks": 155056,
            "time": 175.56134841666668,
            "velocity": 0.3937007874015748
          },
          {
            "duration": 0.10869550000001027,
            "durationTicks": 96,
            "midi": 94,
            "name": "A#6",
            "ticks": 155056,
            "time": 175.56134841666668,
            "velocity": 0.3937007874015748
          },
          {
            "duration": 0.10869550000001027,
            "durationTicks": 96,
            "midi": 63,
            "name": "D#4",
            "ticks": 155056,
            "time": 175.56134841666668,
            "velocity": 0.3937007874015748
          },
          {
            "duration": 0.10869550000001027,
            "durationTicks": 96,
            "midi": 39,
            "name": "D#2",
            "ticks": 155056,
            "time": 175.56134841666668,
            "velocity": 0.3937007874015748
          },
          {
            "duration": 0.10869549999998185,
            "durationTicks": 96,
            "midi": 66,
            "name": "F#4",
            "ticks": 155152,
            "time": 175.67004391666669,
            "velocity": 0.3937007874015748
          },
          {
            "duration": 0.21739099999999212,
            "durationTicks": 192,
            "midi": 75,
            "name": "D#5",
            "ticks": 155152,
            "time": 175.67004391666669,
            "velocity": 0.3937007874015748
          },
          {
            "duration": 0.21739099999999212,
            "durationTicks": 192,
            "midi": 58,
            "name": "A#3",
            "ticks": 155152,
            "time": 175.67004391666669,
            "velocity": 0.3937007874015748
          },
          {
            "duration": 0.21739099999999212,
            "durationTicks": 192,
            "midi": 63,
            "name": "D#4",
            "ticks": 155152,
            "time": 175.67004391666669,
            "velocity": 0.3937007874015748
          },
          {
            "duration": 0.10869549999998185,
            "durationTicks": 96,
            "midi": 39,
            "name": "D#2",
            "ticks": 155152,
            "time": 175.67004391666669,
            "velocity": 0.3937007874015748
          },
          {
            "duration": 0.21739099999999212,
            "durationTicks": 192,
            "midi": 34,
            "name": "A#1",
            "ticks": 155152,
            "time": 175.67004391666669,
            "velocity": 0.3937007874015748
          },
          {
            "duration": 0.10869549999998185,
            "durationTicks": 96,
            "midi": 93,
            "name": "A6",
            "ticks": 155152,
            "time": 175.67004391666669,
            "velocity": 0.3937007874015748
          },
          {
            "duration": 0.21739099999999212,
            "durationTicks": 192,
            "midi": 82,
            "name": "A#5",
            "ticks": 155152,
            "time": 175.67004391666669,
            "velocity": 0.3937007874015748
          },
          {
            "duration": 0.21739099999999212,
            "durationTicks": 192,
            "midi": 54,
            "name": "F#3",
            "ticks": 155152,
            "time": 175.67004391666669,
            "velocity": 0.3937007874015748
          },
          {
            "duration": 0.21739099999999212,
            "durationTicks": 192,
            "midi": 87,
            "name": "D#6",
            "ticks": 155152,
            "time": 175.67004391666669,
            "velocity": 0.3937007874015748
          },
          {
            "duration": 0.10869549999998185,
            "durationTicks": 96,
            "midi": 27,
            "name": "D#1",
            "ticks": 155152,
            "time": 175.67004391666669,
            "velocity": 0.3937007874015748
          },
          {
            "duration": 0.21739099999999212,
            "durationTicks": 192,
            "midi": 70,
            "name": "A#4",
            "ticks": 155152,
            "time": 175.67004391666669,
            "velocity": 0.3937007874015748
          },
          {
            "duration": 0.10869550000001027,
            "durationTicks": 96,
            "midi": 70,
            "name": "A#4",
            "ticks": 155248,
            "time": 175.77873941666667,
            "velocity": 0.3937007874015748
          },
          {
            "duration": 0.10869550000001027,
            "durationTicks": 96,
            "midi": 93,
            "name": "A6",
            "ticks": 155248,
            "time": 175.77873941666667,
            "velocity": 0.3937007874015748
          },
          {
            "duration": 0.10869550000001027,
            "durationTicks": 96,
            "midi": 39,
            "name": "D#2",
            "ticks": 155248,
            "time": 175.77873941666667,
            "velocity": 0.3937007874015748
          },
          {
            "duration": 0.10869550000001027,
            "durationTicks": 96,
            "midi": 51,
            "name": "D#3",
            "ticks": 155248,
            "time": 175.77873941666667,
            "velocity": 0.3937007874015748
          },
          {
            "duration": 0.10869550000001027,
            "durationTicks": 96,
            "midi": 37,
            "name": "C#2",
            "ticks": 155344,
            "time": 175.88743491666668,
            "velocity": 0.3937007874015748
          },
          {
            "duration": 0.21739099999999212,
            "durationTicks": 192,
            "midi": 54,
            "name": "F#3",
            "ticks": 155344,
            "time": 175.88743491666668,
            "velocity": 0.3937007874015748
          },
          {
            "duration": 0.21739099999999212,
            "durationTicks": 192,
            "midi": 85,
            "name": "C#6",
            "ticks": 155344,
            "time": 175.88743491666668,
            "velocity": 0.3937007874015748
          },
          {
            "duration": 0.21739099999999212,
            "durationTicks": 192,
            "midi": 58,
            "name": "A#3",
            "ticks": 155344,
            "time": 175.88743491666668,
            "velocity": 0.3937007874015748
          },
          {
            "duration": 0.21739099999999212,
            "durationTicks": 192,
            "midi": 80,
            "name": "G#5",
            "ticks": 155344,
            "time": 175.88743491666668,
            "velocity": 0.3937007874015748
          },
          {
            "duration": 0.10869550000001027,
            "durationTicks": 96,
            "midi": 49,
            "name": "C#3",
            "ticks": 155344,
            "time": 175.88743491666668,
            "velocity": 0.3937007874015748
          },
          {
            "duration": 0.21739099999999212,
            "durationTicks": 192,
            "midi": 73,
            "name": "C#5",
            "ticks": 155344,
            "time": 175.88743491666668,
            "velocity": 0.3937007874015748
          },
          {
            "duration": 0.21739099999999212,
            "durationTicks": 192,
            "midi": 68,
            "name": "G#4",
            "ticks": 155344,
            "time": 175.88743491666668,
            "velocity": 0.3937007874015748
          },
          {
            "duration": 0.10869550000001027,
            "durationTicks": 96,
            "midi": 92,
            "name": "G#6",
            "ticks": 155344,
            "time": 175.88743491666668,
            "velocity": 0.3937007874015748
          },
          {
            "duration": 0.21739099999999212,
            "durationTicks": 192,
            "midi": 63,
            "name": "D#4",
            "ticks": 155344,
            "time": 175.88743491666668,
            "velocity": 0.3937007874015748
          },
          {
            "duration": 0.10869550000001027,
            "durationTicks": 96,
            "midi": 75,
            "name": "D#5",
            "ticks": 155344,
            "time": 175.88743491666668,
            "velocity": 0.3937007874015748
          },
          {
            "duration": 0.10869549999998185,
            "durationTicks": 96,
            "midi": 78,
            "name": "F#5",
            "ticks": 155440,
            "time": 175.9961304166667,
            "velocity": 0.3937007874015748
          },
          {
            "duration": 0.10869549999998185,
            "durationTicks": 96,
            "midi": 39,
            "name": "D#2",
            "ticks": 155440,
            "time": 175.9961304166667,
            "velocity": 0.3937007874015748
          },
          {
            "duration": 0.10869549999998185,
            "durationTicks": 96,
            "midi": 51,
            "name": "D#3",
            "ticks": 155440,
            "time": 175.9961304166667,
            "velocity": 0.3937007874015748
          },
          {
            "duration": 0.10869549999998185,
            "durationTicks": 96,
            "midi": 92,
            "name": "G#6",
            "ticks": 155440,
            "time": 175.9961304166667,
            "velocity": 0.3937007874015748
          },
          {
            "duration": 0.10869550000001027,
            "durationTicks": 96,
            "midi": 51,
            "name": "D#3",
            "ticks": 155536,
            "time": 176.10482591666667,
            "velocity": 0.3937007874015748
          },
          {
            "duration": 0.10869550000001027,
            "durationTicks": 96,
            "midi": 91,
            "name": "G6",
            "ticks": 155536,
            "time": 176.10482591666667,
            "velocity": 0.3937007874015748
          },
          {
            "duration": 0.21739099999999212,
            "durationTicks": 192,
            "midi": 70,
            "name": "A#4",
            "ticks": 155536,
            "time": 176.10482591666667,
            "velocity": 0.3937007874015748
          },
          {
            "duration": 0.21739099999999212,
            "durationTicks": 192,
            "midi": 82,
            "name": "A#5",
            "ticks": 155536,
            "time": 176.10482591666667,
            "velocity": 0.3937007874015748
          },
          {
            "duration": 0.21739099999999212,
            "durationTicks": 192,
            "midi": 66,
            "name": "F#4",
            "ticks": 155536,
            "time": 176.10482591666667,
            "velocity": 0.3937007874015748
          },
          {
            "duration": 0.21739099999999212,
            "durationTicks": 192,
            "midi": 63,
            "name": "D#4",
            "ticks": 155536,
            "time": 176.10482591666667,
            "velocity": 0.3937007874015748
          },
          {
            "duration": 0.21739099999999212,
            "durationTicks": 192,
            "midi": 78,
            "name": "F#5",
            "ticks": 155536,
            "time": 176.10482591666667,
            "velocity": 0.3937007874015748
          },
          {
            "duration": 0.21739099999999212,
            "durationTicks": 192,
            "midi": 54,
            "name": "F#3",
            "ticks": 155536,
            "time": 176.10482591666667,
            "velocity": 0.3937007874015748
          },
          {
            "duration": 0.10869550000001027,
            "durationTicks": 96,
            "midi": 39,
            "name": "D#2",
            "ticks": 155536,
            "time": 176.10482591666667,
            "velocity": 0.3937007874015748
          },
          {
            "duration": 0.10869550000001027,
            "durationTicks": 96,
            "midi": 27,
            "name": "D#1",
            "ticks": 155536,
            "time": 176.10482591666667,
            "velocity": 0.3937007874015748
          },
          {
            "duration": 0.21739099999999212,
            "durationTicks": 192,
            "midi": 58,
            "name": "A#3",
            "ticks": 155536,
            "time": 176.10482591666667,
            "velocity": 0.3937007874015748
          },
          {
            "duration": 0.21739099999999212,
            "durationTicks": 192,
            "midi": 34,
            "name": "A#1",
            "ticks": 155536,
            "time": 176.10482591666667,
            "velocity": 0.3937007874015748
          },
          {
            "duration": 0.10869549999998185,
            "durationTicks": 96,
            "midi": 91,
            "name": "G6",
            "ticks": 155632,
            "time": 176.21352141666668,
            "velocity": 0.3937007874015748
          },
          {
            "duration": 0.10869549999998185,
            "durationTicks": 96,
            "midi": 54,
            "name": "F#3",
            "ticks": 155632,
            "time": 176.21352141666668,
            "velocity": 0.3937007874015748
          },
          {
            "duration": 0.10869550000001027,
            "durationTicks": 96,
            "midi": 58,
            "name": "A#3",
            "ticks": 155728,
            "time": 176.32221691666666,
            "velocity": 0.3937007874015748
          },
          {
            "duration": 0.21739100000002054,
            "durationTicks": 192,
            "midi": 63,
            "name": "D#4",
            "ticks": 155728,
            "time": 176.32221691666666,
            "velocity": 0.3937007874015748
          },
          {
            "duration": 0.10869550000001027,
            "durationTicks": 96,
            "midi": 51,
            "name": "D#3",
            "ticks": 155728,
            "time": 176.32221691666666,
            "velocity": 0.3937007874015748
          },
          {
            "duration": 0.21739100000002054,
            "durationTicks": 192,
            "midi": 58,
            "name": "A#3",
            "ticks": 155728,
            "time": 176.32221691666666,
            "velocity": 0.3937007874015748
          },
          {
            "duration": 0.10869550000001027,
            "durationTicks": 96,
            "midi": 90,
            "name": "F#6",
            "ticks": 155728,
            "time": 176.32221691666666,
            "velocity": 0.3937007874015748
          },
          {
            "duration": 0.21739100000002054,
            "durationTicks": 192,
            "midi": 54,
            "name": "F#3",
            "ticks": 155728,
            "time": 176.32221691666666,
            "velocity": 0.3937007874015748
          },
          {
            "duration": 0.10869550000001027,
            "durationTicks": 96,
            "midi": 39,
            "name": "D#2",
            "ticks": 155728,
            "time": 176.32221691666666,
            "velocity": 0.3937007874015748
          },
          {
            "duration": 0.10869550000001027,
            "durationTicks": 96,
            "midi": 90,
            "name": "F#6",
            "ticks": 155824,
            "time": 176.43091241666667,
            "velocity": 0.3937007874015748
          },
          {
            "duration": 0.10869550000001027,
            "durationTicks": 96,
            "midi": 39,
            "name": "D#2",
            "ticks": 155824,
            "time": 176.43091241666667,
            "velocity": 0.3937007874015748
          },
          {
            "duration": 0.10869550000001027,
            "durationTicks": 96,
            "midi": 51,
            "name": "D#3",
            "ticks": 155824,
            "time": 176.43091241666667,
            "velocity": 0.3937007874015748
          },
          {
            "duration": 0.10869550000001027,
            "durationTicks": 96,
            "midi": 63,
            "name": "D#4",
            "ticks": 155824,
            "time": 176.43091241666667,
            "velocity": 0.3937007874015748
          },
          {
            "duration": 0.21739099999999212,
            "durationTicks": 192,
            "midi": 54,
            "name": "F#3",
            "ticks": 155920,
            "time": 176.53960791666668,
            "velocity": 0.3937007874015748
          },
          {
            "duration": 0.10869549999998185,
            "durationTicks": 96,
            "midi": 39,
            "name": "D#2",
            "ticks": 155920,
            "time": 176.53960791666668,
            "velocity": 0.3937007874015748
          },
          {
            "duration": 0.3260865000000024,
            "durationTicks": 288,
            "midi": 75,
            "name": "D#5",
            "ticks": 155920,
            "time": 176.53960791666668,
            "velocity": 0.3937007874015748
          },
          {
            "duration": 0.21739099999999212,
            "durationTicks": 192,
            "midi": 34,
            "name": "A#1",
            "ticks": 155920,
            "time": 176.53960791666668,
            "velocity": 0.3937007874015748
          },
          {
            "duration": 0.21739099999999212,
            "durationTicks": 192,
            "midi": 63,
            "name": "D#4",
            "ticks": 155920,
            "time": 176.53960791666668,
            "velocity": 0.3937007874015748
          },
          {
            "duration": 0.10869549999998185,
            "durationTicks": 96,
            "midi": 89,
            "name": "F6",
            "ticks": 155920,
            "time": 176.53960791666668,
            "velocity": 0.3937007874015748
          },
          {
            "duration": 0.21739099999999212,
            "durationTicks": 192,
            "midi": 58,
            "name": "A#3",
            "ticks": 155920,
            "time": 176.53960791666668,
            "velocity": 0.3937007874015748
          },
          {
            "duration": 0.43478199999998424,
            "durationTicks": 384,
            "midi": 63,
            "name": "D#4",
            "ticks": 155920,
            "time": 176.53960791666668,
            "velocity": 0.3937007874015748
          },
          {
            "duration": 0.43478199999998424,
            "durationTicks": 384,
            "midi": 58,
            "name": "A#3",
            "ticks": 155920,
            "time": 176.53960791666668,
            "velocity": 0.3937007874015748
          },
          {
            "duration": 0.10869549999998185,
            "durationTicks": 96,
            "midi": 27,
            "name": "D#1",
            "ticks": 155920,
            "time": 176.53960791666668,
            "velocity": 0.3937007874015748
          },
          {
            "duration": 0.21739099999999212,
            "durationTicks": 192,
            "midi": 70,
            "name": "A#4",
            "ticks": 155920,
            "time": 176.53960791666668,
            "velocity": 0.3937007874015748
          },
          {
            "duration": 0.10869549999998185,
            "durationTicks": 96,
            "midi": 66,
            "name": "F#4",
            "ticks": 155920,
            "time": 176.53960791666668,
            "velocity": 0.3937007874015748
          },
          {
            "duration": 0.3260865000000024,
            "durationTicks": 288,
            "midi": 70,
            "name": "A#4",
            "ticks": 156016,
            "time": 176.64830341666666,
            "velocity": 0.3937007874015748
          },
          {
            "duration": 0.10869550000001027,
            "durationTicks": 96,
            "midi": 89,
            "name": "F6",
            "ticks": 156016,
            "time": 176.64830341666666,
            "velocity": 0.3937007874015748
          },
          {
            "duration": 0.10869550000001027,
            "durationTicks": 96,
            "midi": 39,
            "name": "D#2",
            "ticks": 156016,
            "time": 176.64830341666666,
            "velocity": 0.3937007874015748
          },
          {
            "duration": 0.10869550000001027,
            "durationTicks": 96,
            "midi": 51,
            "name": "D#3",
            "ticks": 156016,
            "time": 176.64830341666666,
            "velocity": 0.3937007874015748
          },
          {
            "duration": 0.10869550000001027,
            "durationTicks": 96,
            "midi": 88,
            "name": "E6",
            "ticks": 156112,
            "time": 176.75699891666667,
            "velocity": 0.3937007874015748
          },
          {
            "duration": 0.10869550000001027,
            "durationTicks": 96,
            "midi": 37,
            "name": "C#2",
            "ticks": 156112,
            "time": 176.75699891666667,
            "velocity": 0.3937007874015748
          },
          {
            "duration": 0.21739099999999212,
            "durationTicks": 192,
            "midi": 54,
            "name": "F#3",
            "ticks": 156112,
            "time": 176.75699891666667,
            "velocity": 0.3937007874015748
          },
          {
            "duration": 0.21739099999999212,
            "durationTicks": 192,
            "midi": 58,
            "name": "A#3",
            "ticks": 156112,
            "time": 176.75699891666667,
            "velocity": 0.3937007874015748
          },
          {
            "duration": 0.10869550000001027,
            "durationTicks": 96,
            "midi": 49,
            "name": "C#3",
            "ticks": 156112,
            "time": 176.75699891666667,
            "velocity": 0.3937007874015748
          },
          {
            "duration": 0.21739099999999212,
            "durationTicks": 192,
            "midi": 75,
            "name": "D#5",
            "ticks": 156112,
            "time": 176.75699891666667,
            "velocity": 0.3937007874015748
          },
          {
            "duration": 0.21739099999999212,
            "durationTicks": 192,
            "midi": 63,
            "name": "D#4",
            "ticks": 156112,
            "time": 176.75699891666667,
            "velocity": 0.3937007874015748
          },
          {
            "duration": 0.10869549999998185,
            "durationTicks": 96,
            "midi": 88,
            "name": "E6",
            "ticks": 156208,
            "time": 176.86569441666668,
            "velocity": 0.3937007874015748
          },
          {
            "duration": 0.10869549999998185,
            "durationTicks": 96,
            "midi": 39,
            "name": "D#2",
            "ticks": 156208,
            "time": 176.86569441666668,
            "velocity": 0.3937007874015748
          },
          {
            "duration": 0.10869549999998185,
            "durationTicks": 96,
            "midi": 51,
            "name": "D#3",
            "ticks": 156208,
            "time": 176.86569441666668,
            "velocity": 0.3937007874015748
          },
          {
            "duration": 0.10869549999998185,
            "durationTicks": 96,
            "midi": 78,
            "name": "F#5",
            "ticks": 156208,
            "time": 176.86569441666668,
            "velocity": 0.3937007874015748
          },
          {
            "duration": 0.10869550000001027,
            "durationTicks": 96,
            "midi": 51,
            "name": "D#3",
            "ticks": 156304,
            "time": 176.97438991666667,
            "velocity": 0.3937007874015748
          },
          {
            "duration": 0.21739100000002054,
            "durationTicks": 192,
            "midi": 78,
            "name": "F#5",
            "ticks": 156304,
            "time": 176.97438991666667,
            "velocity": 0.3937007874015748
          },
          {
            "duration": 0.21739100000002054,
            "durationTicks": 192,
            "midi": 66,
            "name": "F#4",
            "ticks": 156304,
            "time": 176.97438991666667,
            "velocity": 0.3937007874015748
          },
          {
            "duration": 0.10869550000001027,
            "durationTicks": 96,
            "midi": 54,
            "name": "F#3",
            "ticks": 156304,
            "time": 176.97438991666667,
            "velocity": 0.3937007874015748
          },
          {
            "duration": 0.10869550000001027,
            "durationTicks": 96,
            "midi": 42,
            "name": "F#2",
            "ticks": 156304,
            "time": 176.97438991666667,
            "velocity": 0.3937007874015748
          },
          {
            "duration": 0.21739100000002054,
            "durationTicks": 192,
            "midi": 82,
            "name": "A#5",
            "ticks": 156304,
            "time": 176.97438991666667,
            "velocity": 0.3937007874015748
          },
          {
            "duration": 0.21739100000002054,
            "durationTicks": 192,
            "midi": 54,
            "name": "F#3",
            "ticks": 156304,
            "time": 176.97438991666667,
            "velocity": 0.3937007874015748
          },
          {
            "duration": 0.21739100000002054,
            "durationTicks": 192,
            "midi": 58,
            "name": "A#3",
            "ticks": 156304,
            "time": 176.97438991666667,
            "velocity": 0.3937007874015748
          },
          {
            "duration": 0.21739100000002054,
            "durationTicks": 192,
            "midi": 34,
            "name": "A#1",
            "ticks": 156304,
            "time": 176.97438991666667,
            "velocity": 0.3937007874015748
          },
          {
            "duration": 0.21739100000002054,
            "durationTicks": 192,
            "midi": 63,
            "name": "D#4",
            "ticks": 156304,
            "time": 176.97438991666667,
            "velocity": 0.3937007874015748
          },
          {
            "duration": 0.21739100000002054,
            "durationTicks": 192,
            "midi": 70,
            "name": "A#4",
            "ticks": 156304,
            "time": 176.97438991666667,
            "velocity": 0.3937007874015748
          },
          {
            "duration": 0.10869550000001027,
            "durationTicks": 96,
            "midi": 87,
            "name": "D#6",
            "ticks": 156304,
            "time": 176.97438991666667,
            "velocity": 0.3937007874015748
          },
          {
            "duration": 0.10869550000001027,
            "durationTicks": 96,
            "midi": 87,
            "name": "D#6",
            "ticks": 156400,
            "time": 177.08308541666668,
            "velocity": 0.3937007874015748
          },
          {
            "duration": 0.10869550000001027,
            "durationTicks": 96,
            "midi": 54,
            "name": "F#3",
            "ticks": 156400,
            "time": 177.08308541666668,
            "velocity": 0.3937007874015748
          },
          {
            "duration": 0.21739099999999212,
            "durationTicks": 192,
            "midi": 65,
            "name": "F4",
            "ticks": 156496,
            "time": 177.1917809166667,
            "velocity": 0.3937007874015748
          },
          {
            "duration": 0.21739099999999212,
            "durationTicks": 192,
            "midi": 68,
            "name": "G#4",
            "ticks": 156496,
            "time": 177.1917809166667,
            "velocity": 0.3937007874015748
          },
          {
            "duration": 0.21739099999999212,
            "durationTicks": 192,
            "midi": 54,
            "name": "F#3",
            "ticks": 156496,
            "time": 177.1917809166667,
            "velocity": 0.3937007874015748
          },
          {
            "duration": 0.21739099999999212,
            "durationTicks": 192,
            "midi": 80,
            "name": "G#5",
            "ticks": 156496,
            "time": 177.1917809166667,
            "velocity": 0.3937007874015748
          },
          {
            "duration": 0.21739099999999212,
            "durationTicks": 192,
            "midi": 63,
            "name": "D#4",
            "ticks": 156496,
            "time": 177.1917809166667,
            "velocity": 0.3937007874015748
          },
          {
            "duration": 0.10869549999998185,
            "durationTicks": 96,
            "midi": 58,
            "name": "A#3",
            "ticks": 156496,
            "time": 177.1917809166667,
            "velocity": 0.3937007874015748
          },
          {
            "duration": 0.10869549999998185,
            "durationTicks": 96,
            "midi": 51,
            "name": "D#3",
            "ticks": 156496,
            "time": 177.1917809166667,
            "velocity": 0.3937007874015748
          },
          {
            "duration": 0.10869549999998185,
            "durationTicks": 96,
            "midi": 86,
            "name": "D6",
            "ticks": 156496,
            "time": 177.1917809166667,
            "velocity": 0.3937007874015748
          },
          {
            "duration": 0.10869549999998185,
            "durationTicks": 96,
            "midi": 39,
            "name": "D#2",
            "ticks": 156496,
            "time": 177.1917809166667,
            "velocity": 0.3937007874015748
          },
          {
            "duration": 0.21739099999999212,
            "durationTicks": 192,
            "midi": 58,
            "name": "A#3",
            "ticks": 156496,
            "time": 177.1917809166667,
            "velocity": 0.3937007874015748
          },
          {
            "duration": 0.21739099999999212,
            "durationTicks": 192,
            "midi": 77,
            "name": "F5",
            "ticks": 156496,
            "time": 177.1917809166667,
            "velocity": 0.3937007874015748
          },
          {
            "duration": 0.10869550000001027,
            "durationTicks": 96,
            "midi": 86,
            "name": "D6",
            "ticks": 156592,
            "time": 177.30047641666667,
            "velocity": 0.3937007874015748
          },
          {
            "duration": 0.10869550000001027,
            "durationTicks": 96,
            "midi": 63,
            "name": "D#4",
            "ticks": 156592,
            "time": 177.30047641666667,
            "velocity": 0.3937007874015748
          },
          {
            "duration": 0.10869550000001027,
            "durationTicks": 96,
            "midi": 54,
            "name": "F#3",
            "ticks": 156592,
            "time": 177.30047641666667,
            "velocity": 0.3937007874015748
          },
          {
            "duration": 0.10869550000001027,
            "durationTicks": 96,
            "midi": 42,
            "name": "F#2",
            "ticks": 156592,
            "time": 177.30047641666667,
            "velocity": 0.3937007874015748
          },
          {
            "duration": 0.10869550000001027,
            "durationTicks": 96,
            "midi": 44,
            "name": "G#2",
            "ticks": 156688,
            "time": 177.40917191666668,
            "velocity": 0.3937007874015748
          },
          {
            "duration": 0.21739099999999212,
            "durationTicks": 192,
            "midi": 75,
            "name": "D#5",
            "ticks": 156688,
            "time": 177.40917191666668,
            "velocity": 0.3937007874015748
          },
          {
            "duration": 0.10869550000001027,
            "durationTicks": 96,
            "midi": 66,
            "name": "F#4",
            "ticks": 156688,
            "time": 177.40917191666668,
            "velocity": 0.3937007874015748
          },
          {
            "duration": 0.21739099999999212,
            "durationTicks": 192,
            "midi": 34,
            "name": "A#1",
            "ticks": 156688,
            "time": 177.40917191666668,
            "velocity": 0.3937007874015748
          },
          {
            "duration": 0.10869550000001027,
            "durationTicks": 96,
            "midi": 56,
            "name": "G#3",
            "ticks": 156688,
            "time": 177.40917191666668,
            "velocity": 0.3937007874015748
          },
          {
            "duration": 0.21739099999999212,
            "durationTicks": 192,
            "midi": 58,
            "name": "A#3",
            "ticks": 156688,
            "time": 177.40917191666668,
            "velocity": 0.3937007874015748
          },
          {
            "duration": 0.21739099999999212,
            "durationTicks": 192,
            "midi": 63,
            "name": "D#4",
            "ticks": 156688,
            "time": 177.40917191666668,
            "velocity": 0.3937007874015748
          },
          {
            "duration": 0.21739099999999212,
            "durationTicks": 192,
            "midi": 54,
            "name": "F#3",
            "ticks": 156688,
            "time": 177.40917191666668,
            "velocity": 0.3937007874015748
          },
          {
            "duration": 0.21739099999999212,
            "durationTicks": 192,
            "midi": 78,
            "name": "F#5",
            "ticks": 156688,
            "time": 177.40917191666668,
            "velocity": 0.3937007874015748
          },
          {
            "duration": 0.10869550000001027,
            "durationTicks": 96,
            "midi": 85,
            "name": "C#6",
            "ticks": 156688,
            "time": 177.40917191666668,
            "velocity": 0.3937007874015748
          },
          {
            "duration": 0.21739099999999212,
            "durationTicks": 192,
            "midi": 63,
            "name": "D#4",
            "ticks": 156688,
            "time": 177.40917191666668,
            "velocity": 0.3937007874015748
          },
          {
            "duration": 0.21739099999999212,
            "durationTicks": 192,
            "midi": 66,
            "name": "F#4",
            "ticks": 156688,
            "time": 177.40917191666668,
            "velocity": 0.3937007874015748
          },
          {
            "duration": 0.10869549999998185,
            "durationTicks": 96,
            "midi": 85,
            "name": "C#6",
            "ticks": 156784,
            "time": 177.5178674166667,
            "velocity": 0.3937007874015748
          },
          {
            "duration": 0.10869549999998185,
            "durationTicks": 96,
            "midi": 70,
            "name": "A#4",
            "ticks": 156784,
            "time": 177.5178674166667,
            "velocity": 0.3937007874015748
          },
          {
            "duration": 0.21739099999999212,
            "durationTicks": 192,
            "midi": 58,
            "name": "A#3",
            "ticks": 156880,
            "time": 177.62656291666667,
            "velocity": 0.3937007874015748
          },
          {
            "duration": 0.21739099999999212,
            "durationTicks": 192,
            "midi": 65,
            "name": "F4",
            "ticks": 156880,
            "time": 177.62656291666667,
            "velocity": 0.3937007874015748
          },
          {
            "duration": 0.21739099999999212,
            "durationTicks": 192,
            "midi": 77,
            "name": "F5",
            "ticks": 156880,
            "time": 177.62656291666667,
            "velocity": 0.3937007874015748
          },
          {
            "duration": 0.10869550000001027,
            "durationTicks": 96,
            "midi": 84,
            "name": "C6",
            "ticks": 156880,
            "time": 177.62656291666667,
            "velocity": 0.3937007874015748
          },
          {
            "duration": 0.21739099999999212,
            "durationTicks": 192,
            "midi": 63,
            "name": "D#4",
            "ticks": 156880,
            "time": 177.62656291666667,
            "velocity": 0.3937007874015748
          },
          {
            "duration": 0.21739099999999212,
            "durationTicks": 192,
            "midi": 34,
            "name": "A#1",
            "ticks": 156880,
            "time": 177.62656291666667,
            "velocity": 0.3937007874015748
          },
          {
            "duration": 0.21739099999999212,
            "durationTicks": 192,
            "midi": 73,
            "name": "C#5",
            "ticks": 156880,
            "time": 177.62656291666667,
            "velocity": 0.3937007874015748
          },
          {
            "duration": 0.10869550000001027,
            "durationTicks": 96,
            "midi": 54,
            "name": "F#3",
            "ticks": 156880,
            "time": 177.62656291666667,
            "velocity": 0.3937007874015748
          },
          {
            "duration": 0.21739099999999212,
            "durationTicks": 192,
            "midi": 54,
            "name": "F#3",
            "ticks": 156880,
            "time": 177.62656291666667,
            "velocity": 0.3937007874015748
          },
          {
            "duration": 0.21739099999999212,
            "durationTicks": 192,
            "midi": 61,
            "name": "C#4",
            "ticks": 156880,
            "time": 177.62656291666667,
            "velocity": 0.3937007874015748
          },
          {
            "duration": 0.10869550000001027,
            "durationTicks": 96,
            "midi": 75,
            "name": "D#5",
            "ticks": 156880,
            "time": 177.62656291666667,
            "velocity": 0.3937007874015748
          },
          {
            "duration": 0.10869550000001027,
            "durationTicks": 96,
            "midi": 42,
            "name": "F#2",
            "ticks": 156880,
            "time": 177.62656291666667,
            "velocity": 0.3937007874015748
          },
          {
            "duration": 0.10869549999998185,
            "durationTicks": 96,
            "midi": 78,
            "name": "F#5",
            "ticks": 156976,
            "time": 177.73525841666668,
            "velocity": 0.3937007874015748
          },
          {
            "duration": 0.10869549999998185,
            "durationTicks": 96,
            "midi": 56,
            "name": "G#3",
            "ticks": 156976,
            "time": 177.73525841666668,
            "velocity": 0.3937007874015748
          },
          {
            "duration": 0.10869549999998185,
            "durationTicks": 96,
            "midi": 44,
            "name": "G#2",
            "ticks": 156976,
            "time": 177.73525841666668,
            "velocity": 0.3937007874015748
          },
          {
            "duration": 0.10869549999998185,
            "durationTicks": 96,
            "midi": 84,
            "name": "C6",
            "ticks": 156976,
            "time": 177.73525841666668,
            "velocity": 0.3937007874015748
          },
          {
            "duration": 0.10869550000001027,
            "durationTicks": 96,
            "midi": 51,
            "name": "D#3",
            "ticks": 157072,
            "time": 177.84395391666666,
            "velocity": 0.3937007874015748
          },
          {
            "duration": 0.21739100000002054,
            "durationTicks": 192,
            "midi": 70,
            "name": "A#4",
            "ticks": 157072,
            "time": 177.84395391666666,
            "velocity": 0.3937007874015748
          },
          {
            "duration": 0.21739100000002054,
            "durationTicks": 192,
            "midi": 75,
            "name": "D#5",
            "ticks": 157072,
            "time": 177.84395391666666,
            "velocity": 0.3937007874015748
          },
          {
            "duration": 0.10869550000001027,
            "durationTicks": 96,
            "midi": 35,
            "name": "B1",
            "ticks": 157072,
            "time": 177.84395391666666,
            "velocity": 0.3937007874015748
          },
          {
            "duration": 0.21739100000002054,
            "durationTicks": 192,
            "midi": 54,
            "name": "F#3",
            "ticks": 157072,
            "time": 177.84395391666666,
            "velocity": 0.3937007874015748
          },
          {
            "duration": 0.10869550000001027,
            "durationTicks": 96,
            "midi": 83,
            "name": "B5",
            "ticks": 157072,
            "time": 177.84395391666666,
            "velocity": 0.3937007874015748
          },
          {
            "duration": 0.21739100000002054,
            "durationTicks": 192,
            "midi": 34,
            "name": "A#1",
            "ticks": 157072,
            "time": 177.84395391666666,
            "velocity": 0.3937007874015748
          },
          {
            "duration": 0.21739100000002054,
            "durationTicks": 192,
            "midi": 58,
            "name": "A#3",
            "ticks": 157072,
            "time": 177.84395391666666,
            "velocity": 0.3937007874015748
          },
          {
            "duration": 0.10869550000001027,
            "durationTicks": 96,
            "midi": 35,
            "name": "B1",
            "ticks": 157072,
            "time": 177.84395391666666,
            "velocity": 0.3937007874015748
          },
          {
            "duration": 0.21739100000002054,
            "durationTicks": 192,
            "midi": 59,
            "name": "B3",
            "ticks": 157072,
            "time": 177.84395391666666,
            "velocity": 0.3937007874015748
          },
          {
            "duration": 0.21739100000002054,
            "durationTicks": 192,
            "midi": 63,
            "name": "D#4",
            "ticks": 157072,
            "time": 177.84395391666666,
            "velocity": 0.3937007874015748
          },
          {
            "duration": 0.21739100000002054,
            "durationTicks": 192,
            "midi": 63,
            "name": "D#4",
            "ticks": 157072,
            "time": 177.84395391666666,
            "velocity": 0.3937007874015748
          },
          {
            "duration": 0.10869550000001027,
            "durationTicks": 96,
            "midi": 83,
            "name": "B5",
            "ticks": 157168,
            "time": 177.95264941666667,
            "velocity": 0.3937007874015748
          },
          {
            "duration": 0.10869550000001027,
            "durationTicks": 96,
            "midi": 54,
            "name": "F#3",
            "ticks": 157168,
            "time": 177.95264941666667,
            "velocity": 0.3937007874015748
          },
          {
            "duration": 0.10869549999998185,
            "durationTicks": 96,
            "midi": 59,
            "name": "B3",
            "ticks": 157264,
            "time": 178.06134491666668,
            "velocity": 0.3937007874015748
          },
          {
            "duration": 0.21739099999999212,
            "durationTicks": 192,
            "midi": 63,
            "name": "D#4",
            "ticks": 157264,
            "time": 178.06134491666668,
            "velocity": 0.3937007874015748
          },
          {
            "duration": 0.21739099999999212,
            "durationTicks": 192,
            "midi": 65,
            "name": "F4",
            "ticks": 157264,
            "time": 178.06134491666668,
            "velocity": 0.3937007874015748
          },
          {
            "duration": 0.21739099999999212,
            "durationTicks": 192,
            "midi": 77,
            "name": "F5",
            "ticks": 157264,
            "time": 178.06134491666668,
            "velocity": 0.3937007874015748
          },
          {
            "duration": 0.21739099999999212,
            "durationTicks": 192,
            "midi": 73,
            "name": "C#5",
            "ticks": 157264,
            "time": 178.06134491666668,
            "velocity": 0.3937007874015748
          },
          {
            "duration": 0.10869549999998185,
            "durationTicks": 96,
            "midi": 47,
            "name": "B2",
            "ticks": 157264,
            "time": 178.06134491666668,
            "velocity": 0.3937007874015748
          },
          {
            "duration": 0.10869549999998185,
            "durationTicks": 96,
            "midi": 82,
            "name": "A#5",
            "ticks": 157264,
            "time": 178.06134491666668,
            "velocity": 0.3937007874015748
          },
          {
            "duration": 0.21739099999999212,
            "durationTicks": 192,
            "midi": 59,
            "name": "B3",
            "ticks": 157264,
            "time": 178.06134491666668,
            "velocity": 0.3937007874015748
          },
          {
            "duration": 0.21739099999999212,
            "durationTicks": 192,
            "midi": 61,
            "name": "C#4",
            "ticks": 157264,
            "time": 178.06134491666668,
            "velocity": 0.3937007874015748
          },
          {
            "duration": 0.10869549999998185,
            "durationTicks": 96,
            "midi": 35,
            "name": "B1",
            "ticks": 157264,
            "time": 178.06134491666668,
            "velocity": 0.3937007874015748
          },
          {
            "duration": 0.21739099999999212,
            "durationTicks": 192,
            "midi": 54,
            "name": "F#3",
            "ticks": 157264,
            "time": 178.06134491666668,
            "velocity": 0.3937007874015748
          },
          {
            "duration": 0.10869550000001027,
            "durationTicks": 96,
            "midi": 82,
            "name": "A#5",
            "ticks": 157360,
            "time": 178.17004041666667,
            "velocity": 0.3937007874015748
          },
          {
            "duration": 0.10869550000001027,
            "durationTicks": 96,
            "midi": 63,
            "name": "D#4",
            "ticks": 157360,
            "time": 178.17004041666667,
            "velocity": 0.3937007874015748
          },
          {
            "duration": 0.10869550000001027,
            "durationTicks": 96,
            "midi": 47,
            "name": "B2",
            "ticks": 157360,
            "time": 178.17004041666667,
            "velocity": 0.3937007874015748
          },
          {
            "duration": 0.10869550000001027,
            "durationTicks": 96,
            "midi": 35,
            "name": "B1",
            "ticks": 157360,
            "time": 178.17004041666667,
            "velocity": 0.3937007874015748
          },
          {
            "duration": 0.10869550000001027,
            "durationTicks": 96,
            "midi": 35,
            "name": "B1",
            "ticks": 157456,
            "time": 178.27873591666668,
            "velocity": 0.3937007874015748
          },
          {
            "duration": 0.10869550000001027,
            "durationTicks": 96,
            "midi": 66,
            "name": "F#4",
            "ticks": 157456,
            "time": 178.27873591666668,
            "velocity": 0.3937007874015748
          },
          {
            "duration": 0.21739099999999212,
            "durationTicks": 192,
            "midi": 54,
            "name": "F#3",
            "ticks": 157456,
            "time": 178.27873591666668,
            "velocity": 0.3937007874015748
          },
          {
            "duration": 0.21739099999999212,
            "durationTicks": 192,
            "midi": 34,
            "name": "A#1",
            "ticks": 157456,
            "time": 178.27873591666668,
            "velocity": 0.3937007874015748
          },
          {
            "duration": 0.21739099999999212,
            "durationTicks": 192,
            "midi": 63,
            "name": "D#4",
            "ticks": 157456,
            "time": 178.27873591666668,
            "velocity": 0.3937007874015748
          },
          {
            "duration": 0.21739099999999212,
            "durationTicks": 192,
            "midi": 78,
            "name": "F#5",
            "ticks": 157456,
            "time": 178.27873591666668,
            "velocity": 0.3937007874015748
          },
          {
            "duration": 0.21739099999999212,
            "durationTicks": 192,
            "midi": 63,
            "name": "D#4",
            "ticks": 157456,
            "time": 178.27873591666668,
            "velocity": 0.3937007874015748
          },
          {
            "duration": 0.21739099999999212,
            "durationTicks": 192,
            "midi": 75,
            "name": "D#5",
            "ticks": 157456,
            "time": 178.27873591666668,
            "velocity": 0.3937007874015748
          },
          {
            "duration": 0.10869550000001027,
            "durationTicks": 96,
            "midi": 35,
            "name": "B1",
            "ticks": 157456,
            "time": 178.27873591666668,
            "velocity": 0.3937007874015748
          },
          {
            "duration": 0.21739099999999212,
            "durationTicks": 192,
            "midi": 66,
            "name": "F#4",
            "ticks": 157456,
            "time": 178.27873591666668,
            "velocity": 0.3937007874015748
          },
          {
            "duration": 0.10869550000001027,
            "durationTicks": 96,
            "midi": 81,
            "name": "A5",
            "ticks": 157456,
            "time": 178.27873591666668,
            "velocity": 0.3937007874015748
          },
          {
            "duration": 0.21739099999999212,
            "durationTicks": 192,
            "midi": 59,
            "name": "B3",
            "ticks": 157456,
            "time": 178.27873591666668,
            "velocity": 0.3937007874015748
          },
          {
            "duration": 0.10869549999998185,
            "durationTicks": 96,
            "midi": 35,
            "name": "B1",
            "ticks": 157552,
            "time": 178.3874314166667,
            "velocity": 0.3937007874015748
          },
          {
            "duration": 0.10869549999998185,
            "durationTicks": 96,
            "midi": 81,
            "name": "A5",
            "ticks": 157552,
            "time": 178.3874314166667,
            "velocity": 0.3937007874015748
          },
          {
            "duration": 0.10869549999998185,
            "durationTicks": 96,
            "midi": 71,
            "name": "B4",
            "ticks": 157552,
            "time": 178.3874314166667,
            "velocity": 0.3937007874015748
          },
          {
            "duration": 0.10869549999998185,
            "durationTicks": 96,
            "midi": 47,
            "name": "B2",
            "ticks": 157552,
            "time": 178.3874314166667,
            "velocity": 0.3937007874015748
          },
          {
            "duration": 0.21739100000002054,
            "durationTicks": 192,
            "midi": 65,
            "name": "F4",
            "ticks": 157648,
            "time": 178.49612691666667,
            "velocity": 0.3937007874015748
          },
          {
            "duration": 0.21739100000002054,
            "durationTicks": 192,
            "midi": 63,
            "name": "D#4",
            "ticks": 157648,
            "time": 178.49612691666667,
            "velocity": 0.3937007874015748
          },
          {
            "duration": 0.10869550000001027,
            "durationTicks": 96,
            "midi": 46,
            "name": "A#2",
            "ticks": 157648,
            "time": 178.49612691666667,
            "velocity": 0.3937007874015748
          },
          {
            "duration": 0.21739100000002054,
            "durationTicks": 192,
            "midi": 68,
            "name": "G#4",
            "ticks": 157648,
            "time": 178.49612691666667,
            "velocity": 0.3937007874015748
          },
          {
            "duration": 0.21739100000002054,
            "durationTicks": 192,
            "midi": 59,
            "name": "B3",
            "ticks": 157648,
            "time": 178.49612691666667,
            "velocity": 0.3937007874015748
          },
          {
            "duration": 0.10869550000001027,
            "durationTicks": 96,
            "midi": 80,
            "name": "G#5",
            "ticks": 157648,
            "time": 178.49612691666667,
            "velocity": 0.3937007874015748
          },
          {
            "duration": 0.21739100000002054,
            "durationTicks": 192,
            "midi": 54,
            "name": "F#3",
            "ticks": 157648,
            "time": 178.49612691666667,
            "velocity": 0.3937007874015748
          },
          {
            "duration": 0.10869550000001027,
            "durationTicks": 96,
            "midi": 34,
            "name": "A#1",
            "ticks": 157648,
            "time": 178.49612691666667,
            "velocity": 0.3937007874015748
          },
          {
            "duration": 0.21739100000002054,
            "durationTicks": 192,
            "midi": 77,
            "name": "F5",
            "ticks": 157648,
            "time": 178.49612691666667,
            "velocity": 0.3937007874015748
          },
          {
            "duration": 0.21739100000002054,
            "durationTicks": 192,
            "midi": 80,
            "name": "G#5",
            "ticks": 157648,
            "time": 178.49612691666667,
            "velocity": 0.3937007874015748
          },
          {
            "duration": 0.10869550000001027,
            "durationTicks": 96,
            "midi": 75,
            "name": "D#5",
            "ticks": 157648,
            "time": 178.49612691666667,
            "velocity": 0.3937007874015748
          },
          {
            "duration": 0.10869550000001027,
            "durationTicks": 96,
            "midi": 78,
            "name": "F#5",
            "ticks": 157744,
            "time": 178.60482241666668,
            "velocity": 0.3937007874015748
          },
          {
            "duration": 0.10869550000001027,
            "durationTicks": 96,
            "midi": 47,
            "name": "B2",
            "ticks": 157744,
            "time": 178.60482241666668,
            "velocity": 0.3937007874015748
          },
          {
            "duration": 0.10869550000001027,
            "durationTicks": 96,
            "midi": 35,
            "name": "B1",
            "ticks": 157744,
            "time": 178.60482241666668,
            "velocity": 0.3937007874015748
          },
          {
            "duration": 0.10869550000001027,
            "durationTicks": 96,
            "midi": 80,
            "name": "G#5",
            "ticks": 157744,
            "time": 178.60482241666668,
            "velocity": 0.3937007874015748
          },
          {
            "duration": 0.10869549999998185,
            "durationTicks": 96,
            "midi": 35,
            "name": "B1",
            "ticks": 157840,
            "time": 178.7135179166667,
            "velocity": 0.3937007874015748
          },
          {
            "duration": 0.21739099999999212,
            "durationTicks": 192,
            "midi": 59,
            "name": "B3",
            "ticks": 157840,
            "time": 178.7135179166667,
            "velocity": 0.3937007874015748
          },
          {
            "duration": 0.21739099999999212,
            "durationTicks": 192,
            "midi": 54,
            "name": "F#3",
            "ticks": 157840,
            "time": 178.7135179166667,
            "velocity": 0.3937007874015748
          },
          {
            "duration": 0.21739099999999212,
            "durationTicks": 192,
            "midi": 63,
            "name": "D#4",
            "ticks": 157840,
            "time": 178.7135179166667,
            "velocity": 0.3937007874015748
          },
          {
            "duration": 0.10869549999998185,
            "durationTicks": 96,
            "midi": 79,
            "name": "G5",
            "ticks": 157840,
            "time": 178.7135179166667,
            "velocity": 0.3937007874015748
          },
          {
            "duration": 0.21739099999999212,
            "durationTicks": 192,
            "midi": 82,
            "name": "A#5",
            "ticks": 157840,
            "time": 178.7135179166667,
            "velocity": 0.3937007874015748
          },
          {
            "duration": 0.10869549999998185,
            "durationTicks": 96,
            "midi": 35,
            "name": "B1",
            "ticks": 157840,
            "time": 178.7135179166667,
            "velocity": 0.3937007874015748
          },
          {
            "duration": 0.21739099999999212,
            "durationTicks": 192,
            "midi": 78,
            "name": "F#5",
            "ticks": 157840,
            "time": 178.7135179166667,
            "velocity": 0.3937007874015748
          },
          {
            "duration": 0.21739099999999212,
            "durationTicks": 192,
            "midi": 70,
            "name": "A#4",
            "ticks": 157840,
            "time": 178.7135179166667,
            "velocity": 0.3937007874015748
          },
          {
            "duration": 0.21739099999999212,
            "durationTicks": 192,
            "midi": 34,
            "name": "A#1",
            "ticks": 157840,
            "time": 178.7135179166667,
            "velocity": 0.3937007874015748
          },
          {
            "duration": 0.21739099999999212,
            "durationTicks": 192,
            "midi": 66,
            "name": "F#4",
            "ticks": 157840,
            "time": 178.7135179166667,
            "velocity": 0.3937007874015748
          },
          {
            "duration": 0.10869549999998185,
            "durationTicks": 96,
            "midi": 51,
            "name": "D#3",
            "ticks": 157840,
            "time": 178.7135179166667,
            "velocity": 0.3937007874015748
          },
          {
            "duration": 0.10869550000001027,
            "durationTicks": 96,
            "midi": 79,
            "name": "G5",
            "ticks": 157936,
            "time": 178.82221341666667,
            "velocity": 0.3937007874015748
          },
          {
            "duration": 0.10869550000001027,
            "durationTicks": 96,
            "midi": 54,
            "name": "F#3",
            "ticks": 157936,
            "time": 178.82221341666667,
            "velocity": 0.3937007874015748
          },
          {
            "duration": 0.10869549999998185,
            "durationTicks": 96,
            "midi": 47,
            "name": "B2",
            "ticks": 158032,
            "time": 178.93090891666668,
            "velocity": 0.3937007874015748
          },
          {
            "duration": 0.10869549999998185,
            "durationTicks": 96,
            "midi": 59,
            "name": "B3",
            "ticks": 158032,
            "time": 178.93090891666668,
            "velocity": 0.3937007874015748
          },
          {
            "duration": 0.10869549999998185,
            "durationTicks": 96,
            "midi": 35,
            "name": "B1",
            "ticks": 158032,
            "time": 178.93090891666668,
            "velocity": 0.3937007874015748
          },
          {
            "duration": 0.10869549999998185,
            "durationTicks": 96,
            "midi": 78,
            "name": "F#5",
            "ticks": 158032,
            "time": 178.93090891666668,
            "velocity": 0.3937007874015748
          },
          {
            "duration": 0.21739099999999212,
            "durationTicks": 192,
            "midi": 54,
            "name": "F#3",
            "ticks": 158032,
            "time": 178.93090891666668,
            "velocity": 0.3937007874015748
          },
          {
            "duration": 0.21739099999999212,
            "durationTicks": 192,
            "midi": 63,
            "name": "D#4",
            "ticks": 158032,
            "time": 178.93090891666668,
            "velocity": 0.3937007874015748
          },
          {
            "duration": 0.21739099999999212,
            "durationTicks": 192,
            "midi": 59,
            "name": "B3",
            "ticks": 158032,
            "time": 178.93090891666668,
            "velocity": 0.3937007874015748
          },
          {
            "duration": 0.10869550000001027,
            "durationTicks": 96,
            "midi": 78,
            "name": "F#5",
            "ticks": 158128,
            "time": 179.03960441666666,
            "velocity": 0.3937007874015748
          },
          {
            "duration": 0.10869550000001027,
            "durationTicks": 96,
            "midi": 47,
            "name": "B2",
            "ticks": 158128,
            "time": 179.03960441666666,
            "velocity": 0.3937007874015748
          },
          {
            "duration": 0.10869550000001027,
            "durationTicks": 96,
            "midi": 63,
            "name": "D#4",
            "ticks": 158128,
            "time": 179.03960441666666,
            "velocity": 0.3937007874015748
          },
          {
            "duration": 0.10869550000001027,
            "durationTicks": 96,
            "midi": 35,
            "name": "B1",
            "ticks": 158128,
            "time": 179.03960441666666,
            "velocity": 0.3937007874015748
          },
          {
            "duration": 0.21739099999999212,
            "durationTicks": 192,
            "midi": 59,
            "name": "B3",
            "ticks": 158224,
            "time": 179.14829991666667,
            "velocity": 0.3937007874015748
          },
          {
            "duration": 0.21739099999999212,
            "durationTicks": 192,
            "midi": 54,
            "name": "F#3",
            "ticks": 158224,
            "time": 179.14829991666667,
            "velocity": 0.3937007874015748
          },
          {
            "duration": 0.21739099999999212,
            "durationTicks": 192,
            "midi": 63,
            "name": "D#4",
            "ticks": 158224,
            "time": 179.14829991666667,
            "velocity": 0.3937007874015748
          },
          {
            "duration": 0.10869550000001027,
            "durationTicks": 96,
            "midi": 35,
            "name": "B1",
            "ticks": 158224,
            "time": 179.14829991666667,
            "velocity": 0.3937007874015748
          },
          {
            "duration": 0.10869550000001027,
            "durationTicks": 96,
            "midi": 66,
            "name": "F#4",
            "ticks": 158224,
            "time": 179.14829991666667,
            "velocity": 0.3937007874015748
          },
          {
            "duration": 0.21739099999999212,
            "durationTicks": 192,
            "midi": 34,
            "name": "A#1",
            "ticks": 158224,
            "time": 179.14829991666667,
            "velocity": 0.3937007874015748
          },
          {
            "duration": 0.21739099999999212,
            "durationTicks": 192,
            "midi": 65,
            "name": "F4",
            "ticks": 158224,
            "time": 179.14829991666667,
            "velocity": 0.3937007874015748
          },
          {
            "duration": 0.10869550000001027,
            "durationTicks": 96,
            "midi": 35,
            "name": "B1",
            "ticks": 158224,
            "time": 179.14829991666667,
            "velocity": 0.3937007874015748
          },
          {
            "duration": 0.21739099999999212,
            "durationTicks": 192,
            "midi": 68,
            "name": "G#4",
            "ticks": 158224,
            "time": 179.14829991666667,
            "velocity": 0.3937007874015748
          },
          {
            "duration": 0.10869550000001027,
            "durationTicks": 96,
            "midi": 77,
            "name": "F5",
            "ticks": 158224,
            "time": 179.14829991666667,
            "velocity": 0.3937007874015748
          },
          {
            "duration": 0.21739099999999212,
            "durationTicks": 192,
            "midi": 80,
            "name": "G#5",
            "ticks": 158224,
            "time": 179.14829991666667,
            "velocity": 0.3937007874015748
          },
          {
            "duration": 0.21739099999999212,
            "durationTicks": 192,
            "midi": 77,
            "name": "F5",
            "ticks": 158224,
            "time": 179.14829991666667,
            "velocity": 0.3937007874015748
          },
          {
            "duration": 0.10869549999998185,
            "durationTicks": 96,
            "midi": 77,
            "name": "F5",
            "ticks": 158320,
            "time": 179.25699541666668,
            "velocity": 0.3937007874015748
          },
          {
            "duration": 0.10869549999998185,
            "durationTicks": 96,
            "midi": 35,
            "name": "B1",
            "ticks": 158320,
            "time": 179.25699541666668,
            "velocity": 0.3937007874015748
          },
          {
            "duration": 0.10869549999998185,
            "durationTicks": 96,
            "midi": 47,
            "name": "B2",
            "ticks": 158320,
            "time": 179.25699541666668,
            "velocity": 0.3937007874015748
          },
          {
            "duration": 0.10869549999998185,
            "durationTicks": 96,
            "midi": 71,
            "name": "B4",
            "ticks": 158320,
            "time": 179.25699541666668,
            "velocity": 0.3937007874015748
          },
          {
            "duration": 0.10869550000001027,
            "durationTicks": 96,
            "midi": 34,
            "name": "A#1",
            "ticks": 158416,
            "time": 179.36569091666667,
            "velocity": 0.3937007874015748
          },
          {
            "duration": 0.21739100000002054,
            "durationTicks": 192,
            "midi": 54,
            "name": "F#3",
            "ticks": 158416,
            "time": 179.36569091666667,
            "velocity": 0.3937007874015748
          },
          {
            "duration": 0.10869550000001027,
            "durationTicks": 96,
            "midi": 46,
            "name": "A#2",
            "ticks": 158416,
            "time": 179.36569091666667,
            "velocity": 0.3937007874015748
          },
          {
            "duration": 0.10869550000001027,
            "durationTicks": 96,
            "midi": 76,
            "name": "E5",
            "ticks": 158416,
            "time": 179.36569091666667,
            "velocity": 0.3937007874015748
          },
          {
            "duration": 0.21739100000002054,
            "durationTicks": 192,
            "midi": 59,
            "name": "B3",
            "ticks": 158416,
            "time": 179.36569091666667,
            "velocity": 0.3937007874015748
          },
          {
            "duration": 0.21739100000002054,
            "durationTicks": 192,
            "midi": 63,
            "name": "D#4",
            "ticks": 158416,
            "time": 179.36569091666667,
            "velocity": 0.3937007874015748
          },
          {
            "duration": 0.10869550000001027,
            "durationTicks": 96,
            "midi": 75,
            "name": "D#5",
            "ticks": 158416,
            "time": 179.36569091666667,
            "velocity": 0.3937007874015748
          },
          {
            "duration": 0.21739100000002054,
            "durationTicks": 192,
            "midi": 78,
            "name": "F#5",
            "ticks": 158416,
            "time": 179.36569091666667,
            "velocity": 0.3937007874015748
          },
          {
            "duration": 0.21739100000002054,
            "durationTicks": 192,
            "midi": 63,
            "name": "D#4",
            "ticks": 158416,
            "time": 179.36569091666667,
            "velocity": 0.3937007874015748
          },
          {
            "duration": 0.21739100000002054,
            "durationTicks": 192,
            "midi": 66,
            "name": "F#4",
            "ticks": 158416,
            "time": 179.36569091666667,
            "velocity": 0.3937007874015748
          },
          {
            "duration": 0.21739100000002054,
            "durationTicks": 192,
            "midi": 75,
            "name": "D#5",
            "ticks": 158416,
            "time": 179.36569091666667,
            "velocity": 0.3937007874015748
          },
          {
            "duration": 0.10869550000001027,
            "durationTicks": 96,
            "midi": 76,
            "name": "E5",
            "ticks": 158512,
            "time": 179.47438641666668,
            "velocity": 0.3937007874015748
          },
          {
            "duration": 0.10869550000001027,
            "durationTicks": 96,
            "midi": 78,
            "name": "F#5",
            "ticks": 158512,
            "time": 179.47438641666668,
            "velocity": 0.3937007874015748
          },
          {
            "duration": 0.10869550000001027,
            "durationTicks": 96,
            "midi": 35,
            "name": "B1",
            "ticks": 158512,
            "time": 179.47438641666668,
            "velocity": 0.3937007874015748
          },
          {
            "duration": 0.10869550000001027,
            "durationTicks": 96,
            "midi": 47,
            "name": "B2",
            "ticks": 158512,
            "time": 179.47438641666668,
            "velocity": 0.3937007874015748
          },
          {
            "duration": 0.10869549999998185,
            "durationTicks": 96,
            "midi": 37,
            "name": "C#2",
            "ticks": 158608,
            "time": 179.58308191666669,
            "velocity": 0.3937007874015748
          },
          {
            "duration": 0.10869549999998185,
            "durationTicks": 96,
            "midi": 75,
            "name": "D#5",
            "ticks": 158608,
            "time": 179.58308191666669,
            "velocity": 0.3937007874015748
          },
          {
            "duration": 0.21739099999999212,
            "durationTicks": 192,
            "midi": 56,
            "name": "G#3",
            "ticks": 158608,
            "time": 179.58308191666669,
            "velocity": 0.3937007874015748
          },
          {
            "duration": 0.21739099999999212,
            "durationTicks": 192,
            "midi": 34,
            "name": "A#1",
            "ticks": 158608,
            "time": 179.58308191666669,
            "velocity": 0.3937007874015748
          },
          {
            "duration": 0.21739099999999212,
            "durationTicks": 192,
            "midi": 61,
            "name": "C#4",
            "ticks": 158608,
            "time": 179.58308191666669,
            "velocity": 0.3937007874015748
          },
          {
            "duration": 0.21739099999999212,
            "durationTicks": 192,
            "midi": 53,
            "name": "F3",
            "ticks": 158608,
            "time": 179.58308191666669,
            "velocity": 0.3937007874015748
          },
          {
            "duration": 0.10869549999998185,
            "durationTicks": 96,
            "midi": 49,
            "name": "C#3",
            "ticks": 158608,
            "time": 179.58308191666669,
            "velocity": 0.3937007874015748
          },
          {
            "duration": 0.21739099999999212,
            "durationTicks": 192,
            "midi": 73,
            "name": "C#5",
            "ticks": 158608,
            "time": 179.58308191666669,
            "velocity": 0.3937007874015748
          },
          {
            "duration": 0.10869549999998185,
            "durationTicks": 96,
            "midi": 25,
            "name": "C#1",
            "ticks": 158608,
            "time": 179.58308191666669,
            "velocity": 0.3937007874015748
          },
          {
            "duration": 0.21739099999999212,
            "durationTicks": 192,
            "midi": 77,
            "name": "F5",
            "ticks": 158608,
            "time": 179.58308191666669,
            "velocity": 0.3937007874015748
          },
          {
            "duration": 0.21739099999999212,
            "durationTicks": 192,
            "midi": 61,
            "name": "C#4",
            "ticks": 158608,
            "time": 179.58308191666669,
            "velocity": 0.3937007874015748
          },
          {
            "duration": 0.21739099999999212,
            "durationTicks": 192,
            "midi": 65,
            "name": "F4",
            "ticks": 158608,
            "time": 179.58308191666669,
            "velocity": 0.3937007874015748
          },
          {
            "duration": 0.10869550000001027,
            "durationTicks": 96,
            "midi": 53,
            "name": "F3",
            "ticks": 158704,
            "time": 179.69177741666667,
            "velocity": 0.3937007874015748
          },
          {
            "duration": 0.10869550000001027,
            "durationTicks": 96,
            "midi": 75,
            "name": "D#5",
            "ticks": 158704,
            "time": 179.69177741666667,
            "velocity": 0.3937007874015748
          },
          {
            "duration": 0.21739099999999212,
            "durationTicks": 192,
            "midi": 63,
            "name": "D#4",
            "ticks": 158800,
            "time": 179.80047291666668,
            "velocity": 0.3937007874015748
          },
          {
            "duration": 0.10869550000001027,
            "durationTicks": 96,
            "midi": 74,
            "name": "D5",
            "ticks": 158800,
            "time": 179.80047291666668,
            "velocity": 0.3937007874015748
          },
          {
            "duration": 0.21739099999999212,
            "durationTicks": 192,
            "midi": 75,
            "name": "D#5",
            "ticks": 158800,
            "time": 179.80047291666668,
            "velocity": 0.3937007874015748
          },
          {
            "duration": 0.10869550000001027,
            "durationTicks": 96,
            "midi": 49,
            "name": "C#3",
            "ticks": 158800,
            "time": 179.80047291666668,
            "velocity": 0.3937007874015748
          },
          {
            "duration": 0.10869550000001027,
            "durationTicks": 96,
            "midi": 56,
            "name": "G#3",
            "ticks": 158800,
            "time": 179.80047291666668,
            "velocity": 0.3937007874015748
          },
          {
            "duration": 0.21739099999999212,
            "durationTicks": 192,
            "midi": 56,
            "name": "G#3",
            "ticks": 158800,
            "time": 179.80047291666668,
            "velocity": 0.3937007874015748
          },
          {
            "duration": 0.21739099999999212,
            "durationTicks": 192,
            "midi": 53,
            "name": "F3",
            "ticks": 158800,
            "time": 179.80047291666668,
            "velocity": 0.3937007874015748
          },
          {
            "duration": 0.21739099999999212,
            "durationTicks": 192,
            "midi": 61,
            "name": "C#4",
            "ticks": 158800,
            "time": 179.80047291666668,
            "velocity": 0.3937007874015748
          },
          {
            "duration": 0.21739099999999212,
            "durationTicks": 192,
            "midi": 58,
            "name": "A#3",
            "ticks": 158800,
            "time": 179.80047291666668,
            "velocity": 0.3937007874015748
          },
          {
            "duration": 0.10869550000001027,
            "durationTicks": 96,
            "midi": 37,
            "name": "C#2",
            "ticks": 158800,
            "time": 179.80047291666668,
            "velocity": 0.3937007874015748
          },
          {
            "duration": 0.21739099999999212,
            "durationTicks": 192,
            "midi": 70,
            "name": "A#4",
            "ticks": 158800,
            "time": 179.80047291666668,
            "velocity": 0.3937007874015748
          },
          {
            "duration": 0.10869549999998185,
            "durationTicks": 96,
            "midi": 61,
            "name": "C#4",
            "ticks": 158896,
            "time": 179.9091684166667,
            "velocity": 0.3937007874015748
          },
          {
            "duration": 0.10869549999998185,
            "durationTicks": 96,
            "midi": 37,
            "name": "C#2",
            "ticks": 158896,
            "time": 179.9091684166667,
            "velocity": 0.3937007874015748
          },
          {
            "duration": 0.10869549999998185,
            "durationTicks": 96,
            "midi": 74,
            "name": "D5",
            "ticks": 158896,
            "time": 179.9091684166667,
            "velocity": 0.3937007874015748
          },
          {
            "duration": 0.10869549999998185,
            "durationTicks": 96,
            "midi": 49,
            "name": "C#3",
            "ticks": 158896,
            "time": 179.9091684166667,
            "velocity": 0.3937007874015748
          },
          {
            "duration": 0.21739099999999212,
            "durationTicks": 192,
            "midi": 56,
            "name": "G#3",
            "ticks": 158992,
            "time": 180.01786391666667,
            "velocity": 0.3937007874015748
          },
          {
            "duration": 0.10869550000001027,
            "durationTicks": 96,
            "midi": 73,
            "name": "C#5",
            "ticks": 158992,
            "time": 180.01786391666667,
            "velocity": 0.3937007874015748
          },
          {
            "duration": 0.10869550000001027,
            "durationTicks": 96,
            "midi": 65,
            "name": "F4",
            "ticks": 158992,
            "time": 180.01786391666667,
            "velocity": 0.3937007874015748
          },
          {
            "duration": 0.10869550000001027,
            "durationTicks": 96,
            "midi": 25,
            "name": "C#1",
            "ticks": 158992,
            "time": 180.01786391666667,
            "velocity": 0.3937007874015748
          },
          {
            "duration": 0.10869550000001027,
            "durationTicks": 96,
            "midi": 37,
            "name": "C#2",
            "ticks": 158992,
            "time": 180.01786391666667,
            "velocity": 0.3937007874015748
          },
          {
            "duration": 0.21739099999999212,
            "durationTicks": 192,
            "midi": 61,
            "name": "C#4",
            "ticks": 158992,
            "time": 180.01786391666667,
            "velocity": 0.3937007874015748
          },
          {
            "duration": 0.21739099999999212,
            "durationTicks": 192,
            "midi": 73,
            "name": "C#5",
            "ticks": 158992,
            "time": 180.01786391666667,
            "velocity": 0.3937007874015748
          },
          {
            "duration": 0.21739099999999212,
            "durationTicks": 192,
            "midi": 53,
            "name": "F3",
            "ticks": 158992,
            "time": 180.01786391666667,
            "velocity": 0.3937007874015748
          },
          {
            "duration": 0.21739099999999212,
            "durationTicks": 192,
            "midi": 34,
            "name": "A#1",
            "ticks": 158992,
            "time": 180.01786391666667,
            "velocity": 0.3937007874015748
          },
          {
            "duration": 0.21739099999999212,
            "durationTicks": 192,
            "midi": 61,
            "name": "C#4",
            "ticks": 158992,
            "time": 180.01786391666667,
            "velocity": 0.3937007874015748
          },
          {
            "duration": 0.21739099999999212,
            "durationTicks": 192,
            "midi": 65,
            "name": "F4",
            "ticks": 158992,
            "time": 180.01786391666667,
            "velocity": 0.3937007874015748
          },
          {
            "duration": 0.21739099999999212,
            "durationTicks": 192,
            "midi": 77,
            "name": "F5",
            "ticks": 158992,
            "time": 180.01786391666667,
            "velocity": 0.3937007874015748
          },
          {
            "duration": 0.10869549999998185,
            "durationTicks": 96,
            "midi": 49,
            "name": "C#3",
            "ticks": 159088,
            "time": 180.12655941666668,
            "velocity": 0.3937007874015748
          },
          {
            "duration": 0.10869549999998185,
            "durationTicks": 96,
            "midi": 37,
            "name": "C#2",
            "ticks": 159088,
            "time": 180.12655941666668,
            "velocity": 0.3937007874015748
          },
          {
            "duration": 0.10869549999998185,
            "durationTicks": 96,
            "midi": 73,
            "name": "C#5",
            "ticks": 159088,
            "time": 180.12655941666668,
            "velocity": 0.3937007874015748
          },
          {
            "duration": 0.10869549999998185,
            "durationTicks": 96,
            "midi": 68,
            "name": "G#4",
            "ticks": 159088,
            "time": 180.12655941666668,
            "velocity": 0.3937007874015748
          },
          {
            "duration": 0.21739100000002054,
            "durationTicks": 192,
            "midi": 75,
            "name": "D#5",
            "ticks": 159184,
            "time": 180.23525491666666,
            "velocity": 0.3937007874015748
          },
          {
            "duration": 0.10869550000001027,
            "durationTicks": 96,
            "midi": 73,
            "name": "C#5",
            "ticks": 159184,
            "time": 180.23525491666666,
            "velocity": 0.3937007874015748
          },
          {
            "duration": 0.21739100000002054,
            "durationTicks": 192,
            "midi": 56,
            "name": "G#3",
            "ticks": 159184,
            "time": 180.23525491666666,
            "velocity": 0.3937007874015748
          },
          {
            "duration": 0.10869550000001027,
            "durationTicks": 96,
            "midi": 47,
            "name": "B2",
            "ticks": 159184,
            "time": 180.23525491666666,
            "velocity": 0.3937007874015748
          },
          {
            "duration": 0.10869550000001027,
            "durationTicks": 96,
            "midi": 72,
            "name": "C5",
            "ticks": 159184,
            "time": 180.23525491666666,
            "velocity": 0.3937007874015748
          },
          {
            "duration": 0.10869550000001027,
            "durationTicks": 96,
            "midi": 35,
            "name": "B1",
            "ticks": 159184,
            "time": 180.23525491666666,
            "velocity": 0.3937007874015748
          },
          {
            "duration": 0.21739100000002054,
            "durationTicks": 192,
            "midi": 66,
            "name": "F#4",
            "ticks": 159184,
            "time": 180.23525491666666,
            "velocity": 0.3937007874015748
          },
          {
            "duration": 0.21739100000002054,
            "durationTicks": 192,
            "midi": 63,
            "name": "D#4",
            "ticks": 159184,
            "time": 180.23525491666666,
            "velocity": 0.3937007874015748
          },
          {
            "duration": 0.21739100000002054,
            "durationTicks": 192,
            "midi": 78,
            "name": "F#5",
            "ticks": 159184,
            "time": 180.23525491666666,
            "velocity": 0.3937007874015748
          },
          {
            "duration": 0.21739100000002054,
            "durationTicks": 192,
            "midi": 61,
            "name": "C#4",
            "ticks": 159184,
            "time": 180.23525491666666,
            "velocity": 0.3937007874015748
          },
          {
            "duration": 0.21739100000002054,
            "durationTicks": 192,
            "midi": 53,
            "name": "F3",
            "ticks": 159184,
            "time": 180.23525491666666,
            "velocity": 0.3937007874015748
          },
          {
            "duration": 0.10869550000001027,
            "durationTicks": 96,
            "midi": 72,
            "name": "C5",
            "ticks": 159280,
            "time": 180.34395041666667,
            "velocity": 0.3937007874015748
          },
          {
            "duration": 0.10869550000001027,
            "durationTicks": 96,
            "midi": 49,
            "name": "C#3",
            "ticks": 159280,
            "time": 180.34395041666667,
            "velocity": 0.3937007874015748
          },
          {
            "duration": 0.10869550000001027,
            "durationTicks": 96,
            "midi": 37,
            "name": "C#2",
            "ticks": 159280,
            "time": 180.34395041666667,
            "velocity": 0.3937007874015748
          },
          {
            "duration": 0.10869550000001027,
            "durationTicks": 96,
            "midi": 77,
            "name": "F5",
            "ticks": 159280,
            "time": 180.34395041666667,
            "velocity": 0.3937007874015748
          },
          {
            "duration": 0.10869549999998185,
            "durationTicks": 96,
            "midi": 38,
            "name": "D2",
            "ticks": 159376,
            "time": 180.45264591666668,
            "velocity": 0.3937007874015748
          },
          {
            "duration": 0.10869549999998185,
            "durationTicks": 96,
            "midi": 50,
            "name": "D3",
            "ticks": 159376,
            "time": 180.45264591666668,
            "velocity": 0.3937007874015748
          },
          {
            "duration": 0.21739099999999212,
            "durationTicks": 192,
            "midi": 34,
            "name": "A#1",
            "ticks": 159376,
            "time": 180.45264591666668,
            "velocity": 0.3937007874015748
          },
          {
            "duration": 0.21739099999999212,
            "durationTicks": 192,
            "midi": 53,
            "name": "F3",
            "ticks": 159376,
            "time": 180.45264591666668,
            "velocity": 0.3937007874015748
          },
          {
            "duration": 0.10869549999998185,
            "durationTicks": 96,
            "midi": 50,
            "name": "D3",
            "ticks": 159376,
            "time": 180.45264591666668,
            "velocity": 0.3937007874015748
          },
          {
            "duration": 0.21739099999999212,
            "durationTicks": 192,
            "midi": 74,
            "name": "D5",
            "ticks": 159376,
            "time": 180.45264591666668,
            "velocity": 0.3937007874015748
          },
          {
            "duration": 0.21739099999999212,
            "durationTicks": 192,
            "midi": 77,
            "name": "F5",
            "ticks": 159376,
            "time": 180.45264591666668,
            "velocity": 0.3937007874015748
          },
          {
            "duration": 0.21739099999999212,
            "durationTicks": 192,
            "midi": 65,
            "name": "F4",
            "ticks": 159376,
            "time": 180.45264591666668,
            "velocity": 0.3937007874015748
          },
          {
            "duration": 0.21739099999999212,
            "durationTicks": 192,
            "midi": 62,
            "name": "D4",
            "ticks": 159376,
            "time": 180.45264591666668,
            "velocity": 0.3937007874015748
          },
          {
            "duration": 0.21739099999999212,
            "durationTicks": 192,
            "midi": 58,
            "name": "A#3",
            "ticks": 159376,
            "time": 180.45264591666668,
            "velocity": 0.3937007874015748
          },
          {
            "duration": 0.10869549999998185,
            "durationTicks": 96,
            "midi": 71,
            "name": "B4",
            "ticks": 159376,
            "time": 180.45264591666668,
            "velocity": 0.3937007874015748
          },
          {
            "duration": 0.21739099999999212,
            "durationTicks": 192,
            "midi": 62,
            "name": "D4",
            "ticks": 159376,
            "time": 180.45264591666668,
            "velocity": 0.3937007874015748
          },
          {
            "duration": 0.10869550000001027,
            "durationTicks": 96,
            "midi": 71,
            "name": "B4",
            "ticks": 159472,
            "time": 180.56134141666666,
            "velocity": 0.3937007874015748
          },
          {
            "duration": 0.10869550000001027,
            "durationTicks": 96,
            "midi": 53,
            "name": "F3",
            "ticks": 159472,
            "time": 180.56134141666666,
            "velocity": 0.3937007874015748
          },
          {
            "duration": 0.10869550000001027,
            "durationTicks": 96,
            "midi": 58,
            "name": "A#3",
            "ticks": 159568,
            "time": 180.67003691666667,
            "velocity": 0.3937007874015748
          },
          {
            "duration": 0.10869550000001027,
            "durationTicks": 96,
            "midi": 36,
            "name": "C2",
            "ticks": 159568,
            "time": 180.67003691666667,
            "velocity": 0.3937007874015748
          },
          {
            "duration": 0.10869550000001027,
            "durationTicks": 96,
            "midi": 48,
            "name": "C3",
            "ticks": 159568,
            "time": 180.67003691666667,
            "velocity": 0.3937007874015748
          },
          {
            "duration": 0.21739099999999212,
            "durationTicks": 192,
            "midi": 58,
            "name": "A#3",
            "ticks": 159568,
            "time": 180.67003691666667,
            "velocity": 0.3937007874015748
          },
          {
            "duration": 0.21739099999999212,
            "durationTicks": 192,
            "midi": 58,
            "name": "A#3",
            "ticks": 159568,
            "time": 180.67003691666667,
            "velocity": 0.3937007874015748
          },
          {
            "duration": 0.21739099999999212,
            "durationTicks": 192,
            "midi": 75,
            "name": "D#5",
            "ticks": 159568,
            "time": 180.67003691666667,
            "velocity": 0.3937007874015748
          },
          {
            "duration": 0.21739099999999212,
            "durationTicks": 192,
            "midi": 53,
            "name": "F3",
            "ticks": 159568,
            "time": 180.67003691666667,
            "velocity": 0.3937007874015748
          },
          {
            "duration": 0.10869550000001027,
            "durationTicks": 96,
            "midi": 70,
            "name": "A#4",
            "ticks": 159568,
            "time": 180.67003691666667,
            "velocity": 0.3937007874015748
          },
          {
            "duration": 0.21739099999999212,
            "durationTicks": 192,
            "midi": 62,
            "name": "D4",
            "ticks": 159568,
            "time": 180.67003691666667,
            "velocity": 0.3937007874015748
          },
          {
            "duration": 0.21739099999999212,
            "durationTicks": 192,
            "midi": 70,
            "name": "A#4",
            "ticks": 159568,
            "time": 180.67003691666667,
            "velocity": 0.3937007874015748
          },
          {
            "duration": 0.21739099999999212,
            "durationTicks": 192,
            "midi": 34,
            "name": "A#1",
            "ticks": 159568,
            "time": 180.67003691666667,
            "velocity": 0.3937007874015748
          },
          {
            "duration": 0.21739099999999212,
            "durationTicks": 192,
            "midi": 63,
            "name": "D#4",
            "ticks": 159568,
            "time": 180.67003691666667,
            "velocity": 0.3937007874015748
          },
          {
            "duration": 0.10869549999998185,
            "durationTicks": 96,
            "midi": 50,
            "name": "D3",
            "ticks": 159664,
            "time": 180.77873241666668,
            "velocity": 0.3937007874015748
          },
          {
            "duration": 0.10869549999998185,
            "durationTicks": 96,
            "midi": 70,
            "name": "A#4",
            "ticks": 159664,
            "time": 180.77873241666668,
            "velocity": 0.3937007874015748
          },
          {
            "duration": 0.10869549999998185,
            "durationTicks": 96,
            "midi": 38,
            "name": "D2",
            "ticks": 159664,
            "time": 180.77873241666668,
            "velocity": 0.3937007874015748
          },
          {
            "duration": 0.10869549999998185,
            "durationTicks": 96,
            "midi": 62,
            "name": "D4",
            "ticks": 159664,
            "time": 180.77873241666668,
            "velocity": 0.3937007874015748
          },
          {
            "duration": 0.21739100000002054,
            "durationTicks": 192,
            "midi": 74,
            "name": "D5",
            "ticks": 159760,
            "time": 180.88742791666667,
            "velocity": 0.3937007874015748
          },
          {
            "duration": 0.10869550000001027,
            "durationTicks": 96,
            "midi": 69,
            "name": "A4",
            "ticks": 159760,
            "time": 180.88742791666667,
            "velocity": 0.3937007874015748
          },
          {
            "duration": 0.21739100000002054,
            "durationTicks": 192,
            "midi": 57,
            "name": "A3",
            "ticks": 159760,
            "time": 180.88742791666667,
            "velocity": 0.3937007874015748
          },
          {
            "duration": 0.10869550000001027,
            "durationTicks": 96,
            "midi": 53,
            "name": "F3",
            "ticks": 159760,
            "time": 180.88742791666667,
            "velocity": 0.3937007874015748
          },
          {
            "duration": 0.21739100000002054,
            "durationTicks": 192,
            "midi": 58,
            "name": "A#3",
            "ticks": 159760,
            "time": 180.88742791666667,
            "velocity": 0.3937007874015748
          },
          {
            "duration": 0.10869550000001027,
            "durationTicks": 96,
            "midi": 65,
            "name": "F4",
            "ticks": 159760,
            "time": 180.88742791666667,
            "velocity": 0.3937007874015748
          },
          {
            "duration": 0.10869550000001027,
            "durationTicks": 96,
            "midi": 41,
            "name": "F2",
            "ticks": 159760,
            "time": 180.88742791666667,
            "velocity": 0.3937007874015748
          },
          {
            "duration": 0.21739100000002054,
            "durationTicks": 192,
            "midi": 34,
            "name": "A#1",
            "ticks": 159760,
            "time": 180.88742791666667,
            "velocity": 0.3937007874015748
          },
          {
            "duration": 0.21739100000002054,
            "durationTicks": 192,
            "midi": 53,
            "name": "F3",
            "ticks": 159760,
            "time": 180.88742791666667,
            "velocity": 0.3937007874015748
          },
          {
            "duration": 0.21739100000002054,
            "durationTicks": 192,
            "midi": 69,
            "name": "A4",
            "ticks": 159760,
            "time": 180.88742791666667,
            "velocity": 0.3937007874015748
          },
          {
            "duration": 0.21739100000002054,
            "durationTicks": 192,
            "midi": 62,
            "name": "D4",
            "ticks": 159760,
            "time": 180.88742791666667,
            "velocity": 0.3937007874015748
          },
          {
            "duration": 0.21739100000002054,
            "durationTicks": 192,
            "midi": 62,
            "name": "D4",
            "ticks": 159760,
            "time": 180.88742791666667,
            "velocity": 0.3937007874015748
          },
          {
            "duration": 0.10869550000001027,
            "durationTicks": 96,
            "midi": 70,
            "name": "A#4",
            "ticks": 159856,
            "time": 180.99612341666668,
            "velocity": 0.3937007874015748
          },
          {
            "duration": 0.10869550000001027,
            "durationTicks": 96,
            "midi": 69,
            "name": "A4",
            "ticks": 159856,
            "time": 180.99612341666668,
            "velocity": 0.3937007874015748
          },
          {
            "duration": 0.21739099999999212,
            "durationTicks": 192,
            "midi": 72,
            "name": "C5",
            "ticks": 159952,
            "time": 181.1048189166667,
            "velocity": 0.3937007874015748
          },
          {
            "duration": 0.21739099999999212,
            "durationTicks": 192,
            "midi": 62,
            "name": "D4",
            "ticks": 159952,
            "time": 181.1048189166667,
            "velocity": 0.3937007874015748
          },
          {
            "duration": 0.21739099999999212,
            "durationTicks": 192,
            "midi": 65,
            "name": "F4",
            "ticks": 159952,
            "time": 181.1048189166667,
            "velocity": 0.3937007874015748
          },
          {
            "duration": 0.10869549999998185,
            "durationTicks": 96,
            "midi": 74,
            "name": "D5",
            "ticks": 159952,
            "time": 181.1048189166667,
            "velocity": 0.3937007874015748
          },
          {
            "duration": 0.21739099999999212,
            "durationTicks": 192,
            "midi": 77,
            "name": "F5",
            "ticks": 159952,
            "time": 181.1048189166667,
            "velocity": 0.3937007874015748
          },
          {
            "duration": 0.21739099999999212,
            "durationTicks": 192,
            "midi": 58,
            "name": "A#3",
            "ticks": 159952,
            "time": 181.1048189166667,
            "velocity": 0.3937007874015748
          },
          {
            "duration": 0.10869549999998185,
            "durationTicks": 96,
            "midi": 51,
            "name": "D#3",
            "ticks": 159952,
            "time": 181.1048189166667,
            "velocity": 0.3937007874015748
          },
          {
            "duration": 0.10869549999998185,
            "durationTicks": 96,
            "midi": 68,
            "name": "G#4",
            "ticks": 159952,
            "time": 181.1048189166667,
            "velocity": 0.3937007874015748
          },
          {
            "duration": 0.10869549999998185,
            "durationTicks": 96,
            "midi": 39,
            "name": "D#2",
            "ticks": 159952,
            "time": 181.1048189166667,
            "velocity": 0.3937007874015748
          },
          {
            "duration": 0.21739099999999212,
            "durationTicks": 192,
            "midi": 53,
            "name": "F3",
            "ticks": 159952,
            "time": 181.1048189166667,
            "velocity": 0.3937007874015748
          },
          {
            "duration": 0.21739099999999212,
            "durationTicks": 192,
            "midi": 60,
            "name": "C4",
            "ticks": 159952,
            "time": 181.1048189166667,
            "velocity": 0.3937007874015748
          },
          {
            "duration": 0.10869550000001027,
            "durationTicks": 96,
            "midi": 77,
            "name": "F5",
            "ticks": 160048,
            "time": 181.21351441666667,
            "velocity": 0.3937007874015748
          },
          {
            "duration": 0.10869550000001027,
            "durationTicks": 96,
            "midi": 41,
            "name": "F2",
            "ticks": 160048,
            "time": 181.21351441666667,
            "velocity": 0.3937007874015748
          },
          {
            "duration": 0.10869550000001027,
            "durationTicks": 96,
            "midi": 68,
            "name": "G#4",
            "ticks": 160048,
            "time": 181.21351441666667,
            "velocity": 0.3937007874015748
          },
          {
            "duration": 0.10869550000001027,
            "durationTicks": 96,
            "midi": 53,
            "name": "F3",
            "ticks": 160048,
            "time": 181.21351441666667,
            "velocity": 0.3937007874015748
          },
          {
            "duration": 0.10869550000001027,
            "durationTicks": 96,
            "midi": 39,
            "name": "D#2",
            "ticks": 160144,
            "time": 181.32220991666668,
            "velocity": 0.3937007874015748
          },
          {
            "duration": 0.10869550000001027,
            "durationTicks": 96,
            "midi": 27,
            "name": "D#1",
            "ticks": 160144,
            "time": 181.32220991666668,
            "velocity": 0.3937007874015748
          },
          {
            "duration": 0.21739099999999212,
            "durationTicks": 192,
            "midi": 63,
            "name": "D#4",
            "ticks": 160144,
            "time": 181.32220991666668,
            "velocity": 0.3937007874015748
          },
          {
            "duration": 0.10869550000001027,
            "durationTicks": 96,
            "midi": 51,
            "name": "D#3",
            "ticks": 160144,
            "time": 181.32220991666668,
            "velocity": 0.3937007874015748
          },
          {
            "duration": 0.21739099999999212,
            "durationTicks": 192,
            "midi": 34,
            "name": "A#1",
            "ticks": 160144,
            "time": 181.32220991666668,
            "velocity": 0.3937007874015748
          },
          {
            "duration": 0.21739099999999212,
            "durationTicks": 192,
            "midi": 70,
            "name": "A#4",
            "ticks": 160144,
            "time": 181.32220991666668,
            "velocity": 0.3937007874015748
          },
          {
            "duration": 0.21739099999999212,
            "durationTicks": 192,
            "midi": 58,
            "name": "A#3",
            "ticks": 160144,
            "time": 181.32220991666668,
            "velocity": 0.3937007874015748
          },
          {
            "duration": 0.21739099999999212,
            "durationTicks": 192,
            "midi": 75,
            "name": "D#5",
            "ticks": 160144,
            "time": 181.32220991666668,
            "velocity": 0.3937007874015748
          },
          {
            "duration": 0.21739099999999212,
            "durationTicks": 192,
            "midi": 58,
            "name": "A#3",
            "ticks": 160144,
            "time": 181.32220991666668,
            "velocity": 0.3937007874015748
          },
          {
            "duration": 0.21739099999999212,
            "durationTicks": 192,
            "midi": 54,
            "name": "F#3",
            "ticks": 160144,
            "time": 181.32220991666668,
            "velocity": 0.3937007874015748
          },
          {
            "duration": 0.21739099999999212,
            "durationTicks": 192,
            "midi": 63,
            "name": "D#4",
            "ticks": 160144,
            "time": 181.32220991666668,
            "velocity": 0.3937007874015748
          },
          {
            "duration": 0.10869549999998185,
            "durationTicks": 96,
            "midi": 54,
            "name": "F#3",
            "ticks": 160240,
            "time": 181.4309054166667,
            "velocity": 0.3937007874015748
          },
          {
            "duration": 0.10869550000001027,
            "durationTicks": 96,
            "midi": 51,
            "name": "D#3",
            "ticks": 160336,
            "time": 181.53960091666667,
            "velocity": 0.3937007874015748
          },
          {
            "duration": 0.21739099999999212,
            "durationTicks": 192,
            "midi": 65,
            "name": "F4",
            "ticks": 160336,
            "time": 181.53960091666667,
            "velocity": 0.3937007874015748
          },
          {
            "duration": 0.10869550000001027,
            "durationTicks": 96,
            "midi": 58,
            "name": "A#3",
            "ticks": 160336,
            "time": 181.53960091666667,
            "velocity": 0.3937007874015748
          },
          {
            "duration": 0.21739099999999212,
            "durationTicks": 192,
            "midi": 73,
            "name": "C#5",
            "ticks": 160336,
            "time": 181.53960091666667,
            "velocity": 0.3937007874015748
          },
          {
            "duration": 0.10869550000001027,
            "durationTicks": 96,
            "midi": 39,
            "name": "D#2",
            "ticks": 160336,
            "time": 181.53960091666667,
            "velocity": 0.3937007874015748
          },
          {
            "duration": 0.21739099999999212,
            "durationTicks": 192,
            "midi": 54,
            "name": "F#3",
            "ticks": 160336,
            "time": 181.53960091666667,
            "velocity": 0.3937007874015748
          },
          {
            "duration": 0.21739099999999212,
            "durationTicks": 192,
            "midi": 63,
            "name": "D#4",
            "ticks": 160336,
            "time": 181.53960091666667,
            "velocity": 0.3937007874015748
          },
          {
            "duration": 0.21739099999999212,
            "durationTicks": 192,
            "midi": 61,
            "name": "C#4",
            "ticks": 160336,
            "time": 181.53960091666667,
            "velocity": 0.3937007874015748
          },
          {
            "duration": 0.21739099999999212,
            "durationTicks": 192,
            "midi": 58,
            "name": "A#3",
            "ticks": 160336,
            "time": 181.53960091666667,
            "velocity": 0.3937007874015748
          },
          {
            "duration": 0.21739099999999212,
            "durationTicks": 192,
            "midi": 77,
            "name": "F5",
            "ticks": 160336,
            "time": 181.53960091666667,
            "velocity": 0.3937007874015748
          },
          {
            "duration": 0.10869549999998185,
            "durationTicks": 96,
            "midi": 39,
            "name": "D#2",
            "ticks": 160432,
            "time": 181.64829641666668,
            "velocity": 0.3937007874015748
          },
          {
            "duration": 0.10869549999998185,
            "durationTicks": 96,
            "midi": 63,
            "name": "D#4",
            "ticks": 160432,
            "time": 181.64829641666668,
            "velocity": 0.3937007874015748
          },
          {
            "duration": 0.10869549999998185,
            "durationTicks": 96,
            "midi": 51,
            "name": "D#3",
            "ticks": 160432,
            "time": 181.64829641666668,
            "velocity": 0.3937007874015748
          },
          {
            "duration": 0.21739100000002054,
            "durationTicks": 192,
            "midi": 63,
            "name": "D#4",
            "ticks": 160528,
            "time": 181.75699191666666,
            "velocity": 0.3937007874015748
          },
          {
            "duration": 0.21739100000002054,
            "durationTicks": 192,
            "midi": 58,
            "name": "A#3",
            "ticks": 160528,
            "time": 181.75699191666666,
            "velocity": 0.3937007874015748
          },
          {
            "duration": 0.10869550000001027,
            "durationTicks": 96,
            "midi": 27,
            "name": "D#1",
            "ticks": 160528,
            "time": 181.75699191666666,
            "velocity": 0.3937007874015748
          },
          {
            "duration": 0.21739100000002054,
            "durationTicks": 192,
            "midi": 63,
            "name": "D#4",
            "ticks": 160528,
            "time": 181.75699191666666,
            "velocity": 0.3937007874015748
          },
          {
            "duration": 0.10869550000001027,
            "durationTicks": 96,
            "midi": 39,
            "name": "D#2",
            "ticks": 160528,
            "time": 181.75699191666666,
            "velocity": 0.3937007874015748
          },
          {
            "duration": 0.21739100000002054,
            "durationTicks": 192,
            "midi": 78,
            "name": "F#5",
            "ticks": 160528,
            "time": 181.75699191666666,
            "velocity": 0.3937007874015748
          },
          {
            "duration": 0.21739100000002054,
            "durationTicks": 192,
            "midi": 54,
            "name": "F#3",
            "ticks": 160528,
            "time": 181.75699191666666,
            "velocity": 0.3937007874015748
          },
          {
            "duration": 0.21739100000002054,
            "durationTicks": 192,
            "midi": 75,
            "name": "D#5",
            "ticks": 160528,
            "time": 181.75699191666666,
            "velocity": 0.3937007874015748
          },
          {
            "duration": 0.10869550000001027,
            "durationTicks": 96,
            "midi": 66,
            "name": "F#4",
            "ticks": 160528,
            "time": 181.75699191666666,
            "velocity": 0.3937007874015748
          },
          {
            "duration": 0.21739100000002054,
            "durationTicks": 192,
            "midi": 34,
            "name": "A#1",
            "ticks": 160528,
            "time": 181.75699191666666,
            "velocity": 0.3937007874015748
          },
          {
            "duration": 0.21739100000002054,
            "durationTicks": 192,
            "midi": 66,
            "name": "F#4",
            "ticks": 160528,
            "time": 181.75699191666666,
            "velocity": 0.3937007874015748
          },
          {
            "duration": 0.10869550000001027,
            "durationTicks": 96,
            "midi": 39,
            "name": "D#2",
            "ticks": 160624,
            "time": 181.86568741666667,
            "velocity": 0.3937007874015748
          },
          {
            "duration": 0.10869550000001027,
            "durationTicks": 96,
            "midi": 51,
            "name": "D#3",
            "ticks": 160624,
            "time": 181.86568741666667,
            "velocity": 0.3937007874015748
          },
          {
            "duration": 0.10869550000001027,
            "durationTicks": 96,
            "midi": 70,
            "name": "A#4",
            "ticks": 160624,
            "time": 181.86568741666667,
            "velocity": 0.3937007874015748
          },
          {
            "duration": 0.21739099999999212,
            "durationTicks": 192,
            "midi": 80,
            "name": "G#5",
            "ticks": 160720,
            "time": 181.97438291666668,
            "velocity": 0.3937007874015748
          },
          {
            "duration": 0.21739099999999212,
            "durationTicks": 192,
            "midi": 63,
            "name": "D#4",
            "ticks": 160720,
            "time": 181.97438291666668,
            "velocity": 0.3937007874015748
          },
          {
            "duration": 0.21739099999999212,
            "durationTicks": 192,
            "midi": 65,
            "name": "F4",
            "ticks": 160720,
            "time": 181.97438291666668,
            "velocity": 0.3937007874015748
          },
          {
            "duration": 0.21739099999999212,
            "durationTicks": 192,
            "midi": 54,
            "name": "F#3",
            "ticks": 160720,
            "time": 181.97438291666668,
            "velocity": 0.3937007874015748
          },
          {
            "duration": 0.10869549999998185,
            "durationTicks": 96,
            "midi": 37,
            "name": "C#2",
            "ticks": 160720,
            "time": 181.97438291666668,
            "velocity": 0.3937007874015748
          },
          {
            "duration": 0.10869549999998185,
            "durationTicks": 96,
            "midi": 75,
            "name": "D#5",
            "ticks": 160720,
            "time": 181.97438291666668,
            "velocity": 0.3937007874015748
          },
          {
            "duration": 0.10869549999998185,
            "durationTicks": 96,
            "midi": 49,
            "name": "C#3",
            "ticks": 160720,
            "time": 181.97438291666668,
            "velocity": 0.3937007874015748
          },
          {
            "duration": 0.21739099999999212,
            "durationTicks": 192,
            "midi": 58,
            "name": "A#3",
            "ticks": 160720,
            "time": 181.97438291666668,
            "velocity": 0.3937007874015748
          },
          {
            "duration": 0.21739099999999212,
            "durationTicks": 192,
            "midi": 77,
            "name": "F5",
            "ticks": 160720,
            "time": 181.97438291666668,
            "velocity": 0.3937007874015748
          },
          {
            "duration": 0.21739099999999212,
            "durationTicks": 192,
            "midi": 68,
            "name": "G#4",
            "ticks": 160720,
            "time": 181.97438291666668,
            "velocity": 0.3937007874015748
          },
          {
            "duration": 0.10869550000001027,
            "durationTicks": 96,
            "midi": 39,
            "name": "D#2",
            "ticks": 160816,
            "time": 182.08307841666667,
            "velocity": 0.3937007874015748
          },
          {
            "duration": 0.10869550000001027,
            "durationTicks": 96,
            "midi": 51,
            "name": "D#3",
            "ticks": 160816,
            "time": 182.08307841666667,
            "velocity": 0.3937007874015748
          },
          {
            "duration": 0.10869550000001027,
            "durationTicks": 96,
            "midi": 78,
            "name": "F#5",
            "ticks": 160816,
            "time": 182.08307841666667,
            "velocity": 0.3937007874015748
          },
          {
            "duration": 0.21739099999999212,
            "durationTicks": 192,
            "midi": 66,
            "name": "F#4",
            "ticks": 160912,
            "time": 182.19177391666668,
            "velocity": 0.3937007874015748
          },
          {
            "duration": 0.21739099999999212,
            "durationTicks": 192,
            "midi": 54,
            "name": "F#3",
            "ticks": 160912,
            "time": 182.19177391666668,
            "velocity": 0.3937007874015748
          },
          {
            "duration": 0.10869550000001027,
            "durationTicks": 96,
            "midi": 51,
            "name": "D#3",
            "ticks": 160912,
            "time": 182.19177391666668,
            "velocity": 0.3937007874015748
          },
          {
            "duration": 0.21739099999999212,
            "durationTicks": 192,
            "midi": 78,
            "name": "F#5",
            "ticks": 160912,
            "time": 182.19177391666668,
            "velocity": 0.3937007874015748
          },
          {
            "duration": 0.21739099999999212,
            "durationTicks": 192,
            "midi": 70,
            "name": "A#4",
            "ticks": 160912,
            "time": 182.19177391666668,
            "velocity": 0.3937007874015748
          },
          {
            "duration": 0.10869550000001027,
            "durationTicks": 96,
            "midi": 27,
            "name": "D#1",
            "ticks": 160912,
            "time": 182.19177391666668,
            "velocity": 0.3937007874015748
          },
          {
            "duration": 0.10869550000001027,
            "durationTicks": 96,
            "midi": 39,
            "name": "D#2",
            "ticks": 160912,
            "time": 182.19177391666668,
            "velocity": 0.3937007874015748
          },
          {
            "duration": 0.21739099999999212,
            "durationTicks": 192,
            "midi": 34,
            "name": "A#1",
            "ticks": 160912,
            "time": 182.19177391666668,
            "velocity": 0.3937007874015748
          },
          {
            "duration": 0.21739099999999212,
            "durationTicks": 192,
            "midi": 58,
            "name": "A#3",
            "ticks": 160912,
            "time": 182.19177391666668,
            "velocity": 0.3937007874015748
          },
          {
            "duration": 0.21739099999999212,
            "durationTicks": 192,
            "midi": 63,
            "name": "D#4",
            "ticks": 160912,
            "time": 182.19177391666668,
            "velocity": 0.3937007874015748
          },
          {
            "duration": 0.21739099999999212,
            "durationTicks": 192,
            "midi": 82,
            "name": "A#5",
            "ticks": 160912,
            "time": 182.19177391666668,
            "velocity": 0.3937007874015748
          },
          {
            "duration": 0.10869549999998185,
            "durationTicks": 96,
            "midi": 54,
            "name": "F#3",
            "ticks": 161008,
            "time": 182.3004694166667,
            "velocity": 0.3937007874015748
          },
          {
            "duration": 0.10869550000001027,
            "durationTicks": 96,
            "midi": 58,
            "name": "A#3",
            "ticks": 161104,
            "time": 182.40916491666667,
            "velocity": 0.3937007874015748
          },
          {
            "duration": 0.21739100000002054,
            "durationTicks": 192,
            "midi": 54,
            "name": "F#3",
            "ticks": 161104,
            "time": 182.40916491666667,
            "velocity": 0.3937007874015748
          },
          {
            "duration": 0.10869550000001027,
            "durationTicks": 96,
            "midi": 51,
            "name": "D#3",
            "ticks": 161104,
            "time": 182.40916491666667,
            "velocity": 0.3937007874015748
          },
          {
            "duration": 0.21739100000002054,
            "durationTicks": 192,
            "midi": 63,
            "name": "D#4",
            "ticks": 161104,
            "time": 182.40916491666667,
            "velocity": 0.3937007874015748
          },
          {
            "duration": 0.21739100000002054,
            "durationTicks": 192,
            "midi": 58,
            "name": "A#3",
            "ticks": 161104,
            "time": 182.40916491666667,
            "velocity": 0.3937007874015748
          },
          {
            "duration": 0.10869550000001027,
            "durationTicks": 96,
            "midi": 39,
            "name": "D#2",
            "ticks": 161104,
            "time": 182.40916491666667,
            "velocity": 0.3937007874015748
          },
          {
            "duration": 0.10869550000001027,
            "durationTicks": 96,
            "midi": 51,
            "name": "D#3",
            "ticks": 161200,
            "time": 182.51786041666668,
            "velocity": 0.3937007874015748
          },
          {
            "duration": 0.10869550000001027,
            "durationTicks": 96,
            "midi": 39,
            "name": "D#2",
            "ticks": 161200,
            "time": 182.51786041666668,
            "velocity": 0.3937007874015748
          },
          {
            "duration": 0.10869550000001027,
            "durationTicks": 96,
            "midi": 63,
            "name": "D#4",
            "ticks": 161200,
            "time": 182.51786041666668,
            "velocity": 0.3937007874015748
          },
          {
            "duration": 0.21739099999999212,
            "durationTicks": 192,
            "midi": 75,
            "name": "D#5",
            "ticks": 161296,
            "time": 182.6265559166667,
            "velocity": 0.3937007874015748
          },
          {
            "duration": 0.21739099999999212,
            "durationTicks": 192,
            "midi": 87,
            "name": "D#6",
            "ticks": 161296,
            "time": 182.6265559166667,
            "velocity": 0.3937007874015748
          },
          {
            "duration": 0.21739099999999212,
            "durationTicks": 192,
            "midi": 70,
            "name": "A#4",
            "ticks": 161296,
            "time": 182.6265559166667,
            "velocity": 0.3937007874015748
          },
          {
            "duration": 0.21739099999999212,
            "durationTicks": 192,
            "midi": 54,
            "name": "F#3",
            "ticks": 161296,
            "time": 182.6265559166667,
            "velocity": 0.3937007874015748
          },
          {
            "duration": 0.10869549999998185,
            "durationTicks": 96,
            "midi": 27,
            "name": "D#1",
            "ticks": 161296,
            "time": 182.6265559166667,
            "velocity": 0.3937007874015748
          },
          {
            "duration": 0.21739099999999212,
            "durationTicks": 192,
            "midi": 34,
            "name": "A#1",
            "ticks": 161296,
            "time": 182.6265559166667,
            "velocity": 0.3937007874015748
          },
          {
            "duration": 0.21739099999999212,
            "durationTicks": 192,
            "midi": 58,
            "name": "A#3",
            "ticks": 161296,
            "time": 182.6265559166667,
            "velocity": 0.3937007874015748
          },
          {
            "duration": 0.10869549999998185,
            "durationTicks": 96,
            "midi": 66,
            "name": "F#4",
            "ticks": 161296,
            "time": 182.6265559166667,
            "velocity": 0.3937007874015748
          },
          {
            "duration": 0.10869549999998185,
            "durationTicks": 96,
            "midi": 39,
            "name": "D#2",
            "ticks": 161296,
            "time": 182.6265559166667,
            "velocity": 0.3937007874015748
          },
          {
            "duration": 0.21739099999999212,
            "durationTicks": 192,
            "midi": 63,
            "name": "D#4",
            "ticks": 161296,
            "time": 182.6265559166667,
            "velocity": 0.3937007874015748
          },
          {
            "duration": 0.21739099999999212,
            "durationTicks": 192,
            "midi": 82,
            "name": "A#5",
            "ticks": 161296,
            "time": 182.6265559166667,
            "velocity": 0.3937007874015748
          },
          {
            "duration": 0.10869550000001027,
            "durationTicks": 96,
            "midi": 39,
            "name": "D#2",
            "ticks": 161392,
            "time": 182.73525141666667,
            "velocity": 0.3937007874015748
          },
          {
            "duration": 0.10869550000001027,
            "durationTicks": 96,
            "midi": 70,
            "name": "A#4",
            "ticks": 161392,
            "time": 182.73525141666667,
            "velocity": 0.3937007874015748
          },
          {
            "duration": 0.10869550000001027,
            "durationTicks": 96,
            "midi": 51,
            "name": "D#3",
            "ticks": 161392,
            "time": 182.73525141666667,
            "velocity": 0.3937007874015748
          },
          {
            "duration": 0.21739099999999212,
            "durationTicks": 192,
            "midi": 80,
            "name": "G#5",
            "ticks": 161488,
            "time": 182.84394691666668,
            "velocity": 0.3937007874015748
          },
          {
            "duration": 0.21739099999999212,
            "durationTicks": 192,
            "midi": 85,
            "name": "C#6",
            "ticks": 161488,
            "time": 182.84394691666668,
            "velocity": 0.3937007874015748
          },
          {
            "duration": 0.21739099999999212,
            "durationTicks": 192,
            "midi": 63,
            "name": "D#4",
            "ticks": 161488,
            "time": 182.84394691666668,
            "velocity": 0.3937007874015748
          },
          {
            "duration": 0.10869549999998185,
            "durationTicks": 96,
            "midi": 37,
            "name": "C#2",
            "ticks": 161488,
            "time": 182.84394691666668,
            "velocity": 0.3937007874015748
          },
          {
            "duration": 0.21739099999999212,
            "durationTicks": 192,
            "midi": 58,
            "name": "A#3",
            "ticks": 161488,
            "time": 182.84394691666668,
            "velocity": 0.3937007874015748
          },
          {
            "duration": 0.10869549999998185,
            "durationTicks": 96,
            "midi": 49,
            "name": "C#3",
            "ticks": 161488,
            "time": 182.84394691666668,
            "velocity": 0.3937007874015748
          },
          {
            "duration": 0.21739099999999212,
            "durationTicks": 192,
            "midi": 73,
            "name": "C#5",
            "ticks": 161488,
            "time": 182.84394691666668,
            "velocity": 0.3937007874015748
          },
          {
            "duration": 0.21739099999999212,
            "durationTicks": 192,
            "midi": 54,
            "name": "F#3",
            "ticks": 161488,
            "time": 182.84394691666668,
            "velocity": 0.3937007874015748
          },
          {
            "duration": 0.10869549999998185,
            "durationTicks": 96,
            "midi": 75,
            "name": "D#5",
            "ticks": 161488,
            "time": 182.84394691666668,
            "velocity": 0.3937007874015748
          },
          {
            "duration": 0.21739099999999212,
            "durationTicks": 192,
            "midi": 68,
            "name": "G#4",
            "ticks": 161488,
            "time": 182.84394691666668,
            "velocity": 0.3937007874015748
          },
          {
            "duration": 0.10869550000001027,
            "durationTicks": 96,
            "midi": 78,
            "name": "F#5",
            "ticks": 161584,
            "time": 182.95264241666666,
            "velocity": 0.3937007874015748
          },
          {
            "duration": 0.10869550000001027,
            "durationTicks": 96,
            "midi": 51,
            "name": "D#3",
            "ticks": 161584,
            "time": 182.95264241666666,
            "velocity": 0.3937007874015748
          },
          {
            "duration": 0.10869550000001027,
            "durationTicks": 96,
            "midi": 39,
            "name": "D#2",
            "ticks": 161584,
            "time": 182.95264241666666,
            "velocity": 0.3937007874015748
          },
          {
            "duration": 0.10869550000001027,
            "durationTicks": 96,
            "midi": 39,
            "name": "D#2",
            "ticks": 161680,
            "time": 183.06133791666667,
            "velocity": 0.3937007874015748
          },
          {
            "duration": 0.21739099999999212,
            "durationTicks": 192,
            "midi": 58,
            "name": "A#3",
            "ticks": 161680,
            "time": 183.06133791666667,
            "velocity": 0.3937007874015748
          },
          {
            "duration": 0.43478200000001266,
            "durationTicks": 384,
            "midi": 70,
            "name": "A#4",
            "ticks": 161680,
            "time": 183.06133791666667,
            "velocity": 0.3937007874015748
          },
          {
            "duration": 0.10869550000001027,
            "durationTicks": 96,
            "midi": 51,
            "name": "D#3",
            "ticks": 161680,
            "time": 183.06133791666667,
            "velocity": 0.3937007874015748
          },
          {
            "duration": 0.10869550000001027,
            "durationTicks": 96,
            "midi": 27,
            "name": "D#1",
            "ticks": 161680,
            "time": 183.06133791666667,
            "velocity": 0.3937007874015748
          },
          {
            "duration": 0.21739099999999212,
            "durationTicks": 192,
            "midi": 54,
            "name": "F#3",
            "ticks": 161680,
            "time": 183.06133791666667,
            "velocity": 0.3937007874015748
          },
          {
            "duration": 0.43478200000001266,
            "durationTicks": 384,
            "midi": 66,
            "name": "F#4",
            "ticks": 161680,
            "time": 183.06133791666667,
            "velocity": 0.3937007874015748
          },
          {
            "duration": 0.43478200000001266,
            "durationTicks": 384,
            "midi": 78,
            "name": "F#5",
            "ticks": 161680,
            "time": 183.06133791666667,
            "velocity": 0.3937007874015748
          },
          {
            "duration": 0.21739099999999212,
            "durationTicks": 192,
            "midi": 63,
            "name": "D#4",
            "ticks": 161680,
            "time": 183.06133791666667,
            "velocity": 0.3937007874015748
          },
          {
            "duration": 0.43478200000001266,
            "durationTicks": 384,
            "midi": 82,
            "name": "A#5",
            "ticks": 161680,
            "time": 183.06133791666667,
            "velocity": 0.3937007874015748
          },
          {
            "duration": 0.21739099999999212,
            "durationTicks": 192,
            "midi": 34,
            "name": "A#1",
            "ticks": 161680,
            "time": 183.06133791666667,
            "velocity": 0.3937007874015748
          },
          {
            "duration": 0.10869549999998185,
            "durationTicks": 96,
            "midi": 54,
            "name": "F#3",
            "ticks": 161776,
            "time": 183.17003341666668,
            "velocity": 0.3937007874015748
          },
          {
            "duration": 0.10869550000001027,
            "durationTicks": 96,
            "midi": 51,
            "name": "D#3",
            "ticks": 161872,
            "time": 183.27872891666667,
            "velocity": 0.3937007874015748
          },
          {
            "duration": 0.10869550000001027,
            "durationTicks": 96,
            "midi": 39,
            "name": "D#2",
            "ticks": 161872,
            "time": 183.27872891666667,
            "velocity": 0.3937007874015748
          },
          {
            "duration": 0.21739100000002054,
            "durationTicks": 192,
            "midi": 54,
            "name": "F#3",
            "ticks": 161872,
            "time": 183.27872891666667,
            "velocity": 0.3937007874015748
          },
          {
            "duration": 0.21739100000002054,
            "durationTicks": 192,
            "midi": 63,
            "name": "D#4",
            "ticks": 161872,
            "time": 183.27872891666667,
            "velocity": 0.3937007874015748
          },
          {
            "duration": 0.10869550000001027,
            "durationTicks": 96,
            "midi": 58,
            "name": "A#3",
            "ticks": 161872,
            "time": 183.27872891666667,
            "velocity": 0.3937007874015748
          },
          {
            "duration": 0.21739100000002054,
            "durationTicks": 192,
            "midi": 58,
            "name": "A#3",
            "ticks": 161872,
            "time": 183.27872891666667,
            "velocity": 0.3937007874015748
          },
          {
            "duration": 0.10869550000001027,
            "durationTicks": 96,
            "midi": 39,
            "name": "D#2",
            "ticks": 161968,
            "time": 183.38742441666668,
            "velocity": 0.3937007874015748
          },
          {
            "duration": 0.10869550000001027,
            "durationTicks": 96,
            "midi": 63,
            "name": "D#4",
            "ticks": 161968,
            "time": 183.38742441666668,
            "velocity": 0.3937007874015748
          },
          {
            "duration": 0.10869550000001027,
            "durationTicks": 96,
            "midi": 51,
            "name": "D#3",
            "ticks": 161968,
            "time": 183.38742441666668,
            "velocity": 0.3937007874015748
          },
          {
            "duration": 0.21739099999999212,
            "durationTicks": 192,
            "midi": 70,
            "name": "A#4",
            "ticks": 162064,
            "time": 183.4961199166667,
            "velocity": 0.3937007874015748
          },
          {
            "duration": 0.10869549999998185,
            "durationTicks": 96,
            "midi": 66,
            "name": "F#4",
            "ticks": 162064,
            "time": 183.4961199166667,
            "velocity": 0.3937007874015748
          },
          {
            "duration": 0.21739099999999212,
            "durationTicks": 192,
            "midi": 54,
            "name": "F#3",
            "ticks": 162064,
            "time": 183.4961199166667,
            "velocity": 0.3937007874015748
          },
          {
            "duration": 0.21739099999999212,
            "durationTicks": 192,
            "midi": 58,
            "name": "A#3",
            "ticks": 162064,
            "time": 183.4961199166667,
            "velocity": 0.3937007874015748
          },
          {
            "duration": 0.10869549999998185,
            "durationTicks": 96,
            "midi": 39,
            "name": "D#2",
            "ticks": 162064,
            "time": 183.4961199166667,
            "velocity": 0.3937007874015748
          },
          {
            "duration": 0.21739099999999212,
            "durationTicks": 192,
            "midi": 63,
            "name": "D#4",
            "ticks": 162064,
            "time": 183.4961199166667,
            "velocity": 0.3937007874015748
          },
          {
            "duration": 0.10869549999998185,
            "durationTicks": 96,
            "midi": 27,
            "name": "D#1",
            "ticks": 162064,
            "time": 183.4961199166667,
            "velocity": 0.3937007874015748
          },
          {
            "duration": 0.43478199999998424,
            "durationTicks": 384,
            "midi": 58,
            "name": "A#3",
            "ticks": 162064,
            "time": 183.4961199166667,
            "velocity": 0.3937007874015748
          },
          {
            "duration": 0.21739099999999212,
            "durationTicks": 192,
            "midi": 34,
            "name": "A#1",
            "ticks": 162064,
            "time": 183.4961199166667,
            "velocity": 0.3937007874015748
          },
          {
            "duration": 0.43478199999998424,
            "durationTicks": 384,
            "midi": 63,
            "name": "D#4",
            "ticks": 162064,
            "time": 183.4961199166667,
            "velocity": 0.3937007874015748
          },
          {
            "duration": 0.3260865000000024,
            "durationTicks": 288,
            "midi": 75,
            "name": "D#5",
            "ticks": 162064,
            "time": 183.4961199166667,
            "velocity": 0.3937007874015748
          },
          {
            "duration": 0.10869550000001027,
            "durationTicks": 96,
            "midi": 39,
            "name": "D#2",
            "ticks": 162160,
            "time": 183.60481541666667,
            "velocity": 0.3937007874015748
          },
          {
            "duration": 0.3260865000000024,
            "durationTicks": 288,
            "midi": 70,
            "name": "A#4",
            "ticks": 162160,
            "time": 183.60481541666667,
            "velocity": 0.3937007874015748
          },
          {
            "duration": 0.10869550000001027,
            "durationTicks": 96,
            "midi": 51,
            "name": "D#3",
            "ticks": 162160,
            "time": 183.60481541666667,
            "velocity": 0.3937007874015748
          },
          {
            "duration": 0.10869550000001027,
            "durationTicks": 96,
            "midi": 49,
            "name": "C#3",
            "ticks": 162256,
            "time": 183.71351091666668,
            "velocity": 0.3937007874015748
          },
          {
            "duration": 0.21739099999999212,
            "durationTicks": 192,
            "midi": 58,
            "name": "A#3",
            "ticks": 162256,
            "time": 183.71351091666668,
            "velocity": 0.3937007874015748
          },
          {
            "duration": 0.10869550000001027,
            "durationTicks": 96,
            "midi": 37,
            "name": "C#2",
            "ticks": 162256,
            "time": 183.71351091666668,
            "velocity": 0.3937007874015748
          },
          {
            "duration": 0.21739099999999212,
            "durationTicks": 192,
            "midi": 75,
            "name": "D#5",
            "ticks": 162256,
            "time": 183.71351091666668,
            "velocity": 0.3937007874015748
          },
          {
            "duration": 0.21739099999999212,
            "durationTicks": 192,
            "midi": 54,
            "name": "F#3",
            "ticks": 162256,
            "time": 183.71351091666668,
            "velocity": 0.3937007874015748
          },
          {
            "duration": 0.21739099999999212,
            "durationTicks": 192,
            "midi": 63,
            "name": "D#4",
            "ticks": 162256,
            "time": 183.71351091666668,
            "velocity": 0.3937007874015748
          },
          {
            "duration": 0.10869549999998185,
            "durationTicks": 96,
            "midi": 39,
            "name": "D#2",
            "ticks": 162352,
            "time": 183.8222064166667,
            "velocity": 0.3937007874015748
          },
          {
            "duration": 0.10869549999998185,
            "durationTicks": 96,
            "midi": 51,
            "name": "D#3",
            "ticks": 162352,
            "time": 183.8222064166667,
            "velocity": 0.3937007874015748
          },
          {
            "duration": 0.10869549999998185,
            "durationTicks": 96,
            "midi": 78,
            "name": "F#5",
            "ticks": 162352,
            "time": 183.8222064166667,
            "velocity": 0.3937007874015748
          },
          {
            "duration": 0.10869550000001027,
            "durationTicks": 96,
            "midi": 42,
            "name": "F#2",
            "ticks": 162448,
            "time": 183.93090191666667,
            "velocity": 0.3937007874015748
          },
          {
            "duration": 0.10869550000001027,
            "durationTicks": 96,
            "midi": 54,
            "name": "F#3",
            "ticks": 162448,
            "time": 183.93090191666667,
            "velocity": 0.3937007874015748
          },
          {
            "duration": 0.21739099999999212,
            "durationTicks": 192,
            "midi": 66,
            "name": "F#4",
            "ticks": 162448,
            "time": 183.93090191666667,
            "velocity": 0.3937007874015748
          },
          {
            "duration": 0.21739099999999212,
            "durationTicks": 192,
            "midi": 70,
            "name": "A#4",
            "ticks": 162448,
            "time": 183.93090191666667,
            "velocity": 0.3937007874015748
          },
          {
            "duration": 0.21739099999999212,
            "durationTicks": 192,
            "midi": 58,
            "name": "A#3",
            "ticks": 162448,
            "time": 183.93090191666667,
            "velocity": 0.3937007874015748
          },
          {
            "duration": 0.21739099999999212,
            "durationTicks": 192,
            "midi": 82,
            "name": "A#5",
            "ticks": 162448,
            "time": 183.93090191666667,
            "velocity": 0.3937007874015748
          },
          {
            "duration": 0.21739099999999212,
            "durationTicks": 192,
            "midi": 34,
            "name": "A#1",
            "ticks": 162448,
            "time": 183.93090191666667,
            "velocity": 0.3937007874015748
          },
          {
            "duration": 0.21739099999999212,
            "durationTicks": 192,
            "midi": 54,
            "name": "F#3",
            "ticks": 162448,
            "time": 183.93090191666667,
            "velocity": 0.3937007874015748
          },
          {
            "duration": 0.21739099999999212,
            "durationTicks": 192,
            "midi": 78,
            "name": "F#5",
            "ticks": 162448,
            "time": 183.93090191666667,
            "velocity": 0.3937007874015748
          },
          {
            "duration": 0.21739099999999212,
            "durationTicks": 192,
            "midi": 63,
            "name": "D#4",
            "ticks": 162448,
            "time": 183.93090191666667,
            "velocity": 0.3937007874015748
          },
          {
            "duration": 0.10869550000001027,
            "durationTicks": 96,
            "midi": 51,
            "name": "D#3",
            "ticks": 162448,
            "time": 183.93090191666667,
            "velocity": 0.3937007874015748
          },
          {
            "duration": 0.10869549999998185,
            "durationTicks": 96,
            "midi": 54,
            "name": "F#3",
            "ticks": 162544,
            "time": 184.03959741666668,
            "velocity": 0.3937007874015748
          },
          {
            "duration": 0.21739100000002054,
            "durationTicks": 192,
            "midi": 80,
            "name": "G#5",
            "ticks": 162640,
            "time": 184.14829291666666,
            "velocity": 0.3937007874015748
          },
          {
            "duration": 0.21739100000002054,
            "durationTicks": 192,
            "midi": 65,
            "name": "F4",
            "ticks": 162640,
            "time": 184.14829291666666,
            "velocity": 0.3937007874015748
          },
          {
            "duration": 0.21739100000002054,
            "durationTicks": 192,
            "midi": 77,
            "name": "F5",
            "ticks": 162640,
            "time": 184.14829291666666,
            "velocity": 0.3937007874015748
          },
          {
            "duration": 0.21739100000002054,
            "durationTicks": 192,
            "midi": 68,
            "name": "G#4",
            "ticks": 162640,
            "time": 184.14829291666666,
            "velocity": 0.3937007874015748
          },
          {
            "duration": 0.10869550000001027,
            "durationTicks": 96,
            "midi": 39,
            "name": "D#2",
            "ticks": 162640,
            "time": 184.14829291666666,
            "velocity": 0.3937007874015748
          },
          {
            "duration": 0.10869550000001027,
            "durationTicks": 96,
            "midi": 51,
            "name": "D#3",
            "ticks": 162640,
            "time": 184.14829291666666,
            "velocity": 0.3937007874015748
          },
          {
            "duration": 0.21739100000002054,
            "durationTicks": 192,
            "midi": 54,
            "name": "F#3",
            "ticks": 162640,
            "time": 184.14829291666666,
            "velocity": 0.3937007874015748
          },
          {
            "duration": 0.10869550000001027,
            "durationTicks": 96,
            "midi": 58,
            "name": "A#3",
            "ticks": 162640,
            "time": 184.14829291666666,
            "velocity": 0.3937007874015748
          },
          {
            "duration": 0.21739100000002054,
            "durationTicks": 192,
            "midi": 63,
            "name": "D#4",
            "ticks": 162640,
            "time": 184.14829291666666,
            "velocity": 0.3937007874015748
          },
          {
            "duration": 0.21739100000002054,
            "durationTicks": 192,
            "midi": 58,
            "name": "A#3",
            "ticks": 162640,
            "time": 184.14829291666666,
            "velocity": 0.3937007874015748
          },
          {
            "duration": 0.10869550000001027,
            "durationTicks": 96,
            "midi": 63,
            "name": "D#4",
            "ticks": 162736,
            "time": 184.25698841666667,
            "velocity": 0.3937007874015748
          },
          {
            "duration": 0.10869550000001027,
            "durationTicks": 96,
            "midi": 54,
            "name": "F#3",
            "ticks": 162736,
            "time": 184.25698841666667,
            "velocity": 0.3937007874015748
          },
          {
            "duration": 0.10869550000001027,
            "durationTicks": 96,
            "midi": 42,
            "name": "F#2",
            "ticks": 162736,
            "time": 184.25698841666667,
            "velocity": 0.3937007874015748
          },
          {
            "duration": 0.21739099999999212,
            "durationTicks": 192,
            "midi": 34,
            "name": "A#1",
            "ticks": 162832,
            "time": 184.36568391666668,
            "velocity": 0.3937007874015748
          },
          {
            "duration": 0.21739099999999212,
            "durationTicks": 192,
            "midi": 54,
            "name": "F#3",
            "ticks": 162832,
            "time": 184.36568391666668,
            "velocity": 0.3937007874015748
          },
          {
            "duration": 0.10869549999998185,
            "durationTicks": 96,
            "midi": 44,
            "name": "G#2",
            "ticks": 162832,
            "time": 184.36568391666668,
            "velocity": 0.3937007874015748
          },
          {
            "duration": 0.10869549999998185,
            "durationTicks": 96,
            "midi": 66,
            "name": "F#4",
            "ticks": 162832,
            "time": 184.36568391666668,
            "velocity": 0.3937007874015748
          },
          {
            "duration": 0.21739099999999212,
            "durationTicks": 192,
            "midi": 63,
            "name": "D#4",
            "ticks": 162832,
            "time": 184.36568391666668,
            "velocity": 0.3937007874015748
          },
          {
            "duration": 0.21739099999999212,
            "durationTicks": 192,
            "midi": 63,
            "name": "D#4",
            "ticks": 162832,
            "time": 184.36568391666668,
            "velocity": 0.3937007874015748
          },
          {
            "duration": 0.21739099999999212,
            "durationTicks": 192,
            "midi": 78,
            "name": "F#5",
            "ticks": 162832,
            "time": 184.36568391666668,
            "velocity": 0.3937007874015748
          },
          {
            "duration": 0.21739099999999212,
            "durationTicks": 192,
            "midi": 66,
            "name": "F#4",
            "ticks": 162832,
            "time": 184.36568391666668,
            "velocity": 0.3937007874015748
          },
          {
            "duration": 0.21739099999999212,
            "durationTicks": 192,
            "midi": 58,
            "name": "A#3",
            "ticks": 162832,
            "time": 184.36568391666668,
            "velocity": 0.3937007874015748
          },
          {
            "duration": 0.21739099999999212,
            "durationTicks": 192,
            "midi": 75,
            "name": "D#5",
            "ticks": 162832,
            "time": 184.36568391666668,
            "velocity": 0.3937007874015748
          },
          {
            "duration": 0.10869549999998185,
            "durationTicks": 96,
            "midi": 56,
            "name": "G#3",
            "ticks": 162832,
            "time": 184.36568391666668,
            "velocity": 0.3937007874015748
          },
          {
            "duration": 0.10869550000001027,
            "durationTicks": 96,
            "midi": 70,
            "name": "A#4",
            "ticks": 162928,
            "time": 184.47437941666666,
            "velocity": 0.3937007874015748
          },
          {
            "duration": 0.21739099999999212,
            "durationTicks": 192,
            "midi": 77,
            "name": "F5",
            "ticks": 163024,
            "time": 184.58307491666667,
            "velocity": 0.3937007874015748
          },
          {
            "duration": 0.10869550000001027,
            "durationTicks": 96,
            "midi": 75,
            "name": "D#5",
            "ticks": 163024,
            "time": 184.58307491666667,
            "velocity": 0.3937007874015748
          },
          {
            "duration": 0.21739099999999212,
            "durationTicks": 192,
            "midi": 73,
            "name": "C#5",
            "ticks": 163024,
            "time": 184.58307491666667,
            "velocity": 0.3937007874015748
          },
          {
            "duration": 0.21739099999999212,
            "durationTicks": 192,
            "midi": 58,
            "name": "A#3",
            "ticks": 163024,
            "time": 184.58307491666667,
            "velocity": 0.3937007874015748
          },
          {
            "duration": 0.21739099999999212,
            "durationTicks": 192,
            "midi": 34,
            "name": "A#1",
            "ticks": 163024,
            "time": 184.58307491666667,
            "velocity": 0.3937007874015748
          },
          {
            "duration": 0.10869550000001027,
            "durationTicks": 96,
            "midi": 42,
            "name": "F#2",
            "ticks": 163024,
            "time": 184.58307491666667,
            "velocity": 0.3937007874015748
          },
          {
            "duration": 0.10869550000001027,
            "durationTicks": 96,
            "midi": 54,
            "name": "F#3",
            "ticks": 163024,
            "time": 184.58307491666667,
            "velocity": 0.3937007874015748
          },
          {
            "duration": 0.21739099999999212,
            "durationTicks": 192,
            "midi": 63,
            "name": "D#4",
            "ticks": 163024,
            "time": 184.58307491666667,
            "velocity": 0.3937007874015748
          },
          {
            "duration": 0.21739099999999212,
            "durationTicks": 192,
            "midi": 61,
            "name": "C#4",
            "ticks": 163024,
            "time": 184.58307491666667,
            "velocity": 0.3937007874015748
          },
          {
            "duration": 0.21739099999999212,
            "durationTicks": 192,
            "midi": 54,
            "name": "F#3",
            "ticks": 163024,
            "time": 184.58307491666667,
            "velocity": 0.3937007874015748
          },
          {
            "duration": 0.21739099999999212,
            "durationTicks": 192,
            "midi": 65,
            "name": "F4",
            "ticks": 163024,
            "time": 184.58307491666667,
            "velocity": 0.3937007874015748
          },
          {
            "duration": 0.10869549999998185,
            "durationTicks": 96,
            "midi": 56,
            "name": "G#3",
            "ticks": 163120,
            "time": 184.69177041666669,
            "velocity": 0.3937007874015748
          },
          {
            "duration": 0.10869549999998185,
            "durationTicks": 96,
            "midi": 78,
            "name": "F#5",
            "ticks": 163120,
            "time": 184.69177041666669,
            "velocity": 0.3937007874015748
          },
          {
            "duration": 0.10869549999998185,
            "durationTicks": 96,
            "midi": 44,
            "name": "G#2",
            "ticks": 163120,
            "time": 184.69177041666669,
            "velocity": 0.3937007874015748
          },
          {
            "duration": 0.21739100000002054,
            "durationTicks": 192,
            "midi": 34,
            "name": "A#1",
            "ticks": 163216,
            "time": 184.80046591666667,
            "velocity": 0.3937007874015748
          },
          {
            "duration": 0.10869550000001027,
            "durationTicks": 96,
            "midi": 35,
            "name": "B1",
            "ticks": 163216,
            "time": 184.80046591666667,
            "velocity": 0.3937007874015748
          },
          {
            "duration": 0.21739100000002054,
            "durationTicks": 192,
            "midi": 54,
            "name": "F#3",
            "ticks": 163216,
            "time": 184.80046591666667,
            "velocity": 0.3937007874015748
          },
          {
            "duration": 0.21739100000002054,
            "durationTicks": 192,
            "midi": 70,
            "name": "A#4",
            "ticks": 163216,
            "time": 184.80046591666667,
            "velocity": 0.3937007874015748
          },
          {
            "duration": 0.21739100000002054,
            "durationTicks": 192,
            "midi": 63,
            "name": "D#4",
            "ticks": 163216,
            "time": 184.80046591666667,
            "velocity": 0.3937007874015748
          },
          {
            "duration": 0.21739100000002054,
            "durationTicks": 192,
            "midi": 58,
            "name": "A#3",
            "ticks": 163216,
            "time": 184.80046591666667,
            "velocity": 0.3937007874015748
          },
          {
            "duration": 0.21739100000002054,
            "durationTicks": 192,
            "midi": 59,
            "name": "B3",
            "ticks": 163216,
            "time": 184.80046591666667,
            "velocity": 0.3937007874015748
          },
          {
            "duration": 0.21739100000002054,
            "durationTicks": 192,
            "midi": 63,
            "name": "D#4",
            "ticks": 163216,
            "time": 184.80046591666667,
            "velocity": 0.3937007874015748
          },
          {
            "duration": 0.10869550000001027,
            "durationTicks": 96,
            "midi": 51,
            "name": "D#3",
            "ticks": 163216,
            "time": 184.80046591666667,
            "velocity": 0.3937007874015748
          },
          {
            "duration": 0.21739100000002054,
            "durationTicks": 192,
            "midi": 75,
            "name": "D#5",
            "ticks": 163216,
            "time": 184.80046591666667,
            "velocity": 0.3937007874015748
          },
          {
            "duration": 0.10869550000001027,
            "durationTicks": 96,
            "midi": 35,
            "name": "B1",
            "ticks": 163216,
            "time": 184.80046591666667,
            "velocity": 0.3937007874015748
          },
          {
            "duration": 0.10869550000001027,
            "durationTicks": 96,
            "midi": 54,
            "name": "F#3",
            "ticks": 163312,
            "time": 184.90916141666668,
            "velocity": 0.3937007874015748
          },
          {
            "duration": 0.10869549999998185,
            "durationTicks": 96,
            "midi": 59,
            "name": "B3",
            "ticks": 163408,
            "time": 185.0178569166667,
            "velocity": 0.3937007874015748
          },
          {
            "duration": 0.21739099999999212,
            "durationTicks": 192,
            "midi": 59,
            "name": "B3",
            "ticks": 163408,
            "time": 185.0178569166667,
            "velocity": 0.3937007874015748
          },
          {
            "duration": 0.21739099999999212,
            "durationTicks": 192,
            "midi": 63,
            "name": "D#4",
            "ticks": 163408,
            "time": 185.0178569166667,
            "velocity": 0.3937007874015748
          },
          {
            "duration": 0.21739099999999212,
            "durationTicks": 192,
            "midi": 65,
            "name": "F4",
            "ticks": 163408,
            "time": 185.0178569166667,
            "velocity": 0.3937007874015748
          },
          {
            "duration": 0.21739099999999212,
            "durationTicks": 192,
            "midi": 61,
            "name": "C#4",
            "ticks": 163408,
            "time": 185.0178569166667,
            "velocity": 0.3937007874015748
          },
          {
            "duration": 0.21739099999999212,
            "durationTicks": 192,
            "midi": 77,
            "name": "F5",
            "ticks": 163408,
            "time": 185.0178569166667,
            "velocity": 0.3937007874015748
          },
          {
            "duration": 0.21739099999999212,
            "durationTicks": 192,
            "midi": 73,
            "name": "C#5",
            "ticks": 163408,
            "time": 185.0178569166667,
            "velocity": 0.3937007874015748
          },
          {
            "duration": 0.21739099999999212,
            "durationTicks": 192,
            "midi": 54,
            "name": "F#3",
            "ticks": 163408,
            "time": 185.0178569166667,
            "velocity": 0.3937007874015748
          },
          {
            "duration": 0.10869549999998185,
            "durationTicks": 96,
            "midi": 47,
            "name": "B2",
            "ticks": 163408,
            "time": 185.0178569166667,
            "velocity": 0.3937007874015748
          },
          {
            "duration": 0.10869549999998185,
            "durationTicks": 96,
            "midi": 35,
            "name": "B1",
            "ticks": 163408,
            "time": 185.0178569166667,
            "velocity": 0.3937007874015748
          },
          {
            "duration": 0.10869550000001027,
            "durationTicks": 96,
            "midi": 47,
            "name": "B2",
            "ticks": 163504,
            "time": 185.12655241666667,
            "velocity": 0.3937007874015748
          },
          {
            "duration": 0.10869550000001027,
            "durationTicks": 96,
            "midi": 63,
            "name": "D#4",
            "ticks": 163504,
            "time": 185.12655241666667,
            "velocity": 0.3937007874015748
          },
          {
            "duration": 0.10869550000001027,
            "durationTicks": 96,
            "midi": 35,
            "name": "B1",
            "ticks": 163504,
            "time": 185.12655241666667,
            "velocity": 0.3937007874015748
          },
          {
            "duration": 0.21739099999999212,
            "durationTicks": 192,
            "midi": 78,
            "name": "F#5",
            "ticks": 163600,
            "time": 185.23524791666668,
            "velocity": 0.3937007874015748
          },
          {
            "duration": 0.21739099999999212,
            "durationTicks": 192,
            "midi": 63,
            "name": "D#4",
            "ticks": 163600,
            "time": 185.23524791666668,
            "velocity": 0.3937007874015748
          },
          {
            "duration": 0.10869549999998185,
            "durationTicks": 96,
            "midi": 35,
            "name": "B1",
            "ticks": 163600,
            "time": 185.23524791666668,
            "velocity": 0.3937007874015748
          },
          {
            "duration": 0.10869549999998185,
            "durationTicks": 96,
            "midi": 35,
            "name": "B1",
            "ticks": 163600,
            "time": 185.23524791666668,
            "velocity": 0.3937007874015748
          },
          {
            "duration": 0.21739099999999212,
            "durationTicks": 192,
            "midi": 75,
            "name": "D#5",
            "ticks": 163600,
            "time": 185.23524791666668,
            "velocity": 0.3937007874015748
          },
          {
            "duration": 0.10869549999998185,
            "durationTicks": 96,
            "midi": 66,
            "name": "F#4",
            "ticks": 163600,
            "time": 185.23524791666668,
            "velocity": 0.3937007874015748
          },
          {
            "duration": 0.21739099999999212,
            "durationTicks": 192,
            "midi": 66,
            "name": "F#4",
            "ticks": 163600,
            "time": 185.23524791666668,
            "velocity": 0.3937007874015748
          },
          {
            "duration": 0.21739099999999212,
            "durationTicks": 192,
            "midi": 34,
            "name": "A#1",
            "ticks": 163600,
            "time": 185.23524791666668,
            "velocity": 0.3937007874015748
          },
          {
            "duration": 0.21739099999999212,
            "durationTicks": 192,
            "midi": 63,
            "name": "D#4",
            "ticks": 163600,
            "time": 185.23524791666668,
            "velocity": 0.3937007874015748
          },
          {
            "duration": 0.21739099999999212,
            "durationTicks": 192,
            "midi": 59,
            "name": "B3",
            "ticks": 163600,
            "time": 185.23524791666668,
            "velocity": 0.3937007874015748
          },
          {
            "duration": 0.21739099999999212,
            "durationTicks": 192,
            "midi": 54,
            "name": "F#3",
            "ticks": 163600,
            "time": 185.23524791666668,
            "velocity": 0.3937007874015748
          },
          {
            "duration": 0.10869550000001027,
            "durationTicks": 96,
            "midi": 35,
            "name": "B1",
            "ticks": 163696,
            "time": 185.34394341666666,
            "velocity": 0.3937007874015748
          },
          {
            "duration": 0.10869550000001027,
            "durationTicks": 96,
            "midi": 71,
            "name": "B4",
            "ticks": 163696,
            "time": 185.34394341666666,
            "velocity": 0.3937007874015748
          },
          {
            "duration": 0.10869550000001027,
            "durationTicks": 96,
            "midi": 47,
            "name": "B2",
            "ticks": 163696,
            "time": 185.34394341666666,
            "velocity": 0.3937007874015748
          },
          {
            "duration": 0.21739099999999212,
            "durationTicks": 192,
            "midi": 65,
            "name": "F4",
            "ticks": 163792,
            "time": 185.45263891666667,
            "velocity": 0.3937007874015748
          },
          {
            "duration": 0.10869550000001027,
            "durationTicks": 96,
            "midi": 46,
            "name": "A#2",
            "ticks": 163792,
            "time": 185.45263891666667,
            "velocity": 0.3937007874015748
          },
          {
            "duration": 0.21739099999999212,
            "durationTicks": 192,
            "midi": 77,
            "name": "F5",
            "ticks": 163792,
            "time": 185.45263891666667,
            "velocity": 0.3937007874015748
          },
          {
            "duration": 0.21739099999999212,
            "durationTicks": 192,
            "midi": 63,
            "name": "D#4",
            "ticks": 163792,
            "time": 185.45263891666667,
            "velocity": 0.3937007874015748
          },
          {
            "duration": 0.21739099999999212,
            "durationTicks": 192,
            "midi": 54,
            "name": "F#3",
            "ticks": 163792,
            "time": 185.45263891666667,
            "velocity": 0.3937007874015748
          },
          {
            "duration": 0.21739099999999212,
            "durationTicks": 192,
            "midi": 68,
            "name": "G#4",
            "ticks": 163792,
            "time": 185.45263891666667,
            "velocity": 0.3937007874015748
          },
          {
            "duration": 0.21739099999999212,
            "durationTicks": 192,
            "midi": 80,
            "name": "G#5",
            "ticks": 163792,
            "time": 185.45263891666667,
            "velocity": 0.3937007874015748
          },
          {
            "duration": 0.10869550000001027,
            "durationTicks": 96,
            "midi": 75,
            "name": "D#5",
            "ticks": 163792,
            "time": 185.45263891666667,
            "velocity": 0.3937007874015748
          },
          {
            "duration": 0.10869550000001027,
            "durationTicks": 96,
            "midi": 34,
            "name": "A#1",
            "ticks": 163792,
            "time": 185.45263891666667,
            "velocity": 0.3937007874015748
          },
          {
            "duration": 0.21739099999999212,
            "durationTicks": 192,
            "midi": 59,
            "name": "B3",
            "ticks": 163792,
            "time": 185.45263891666667,
            "velocity": 0.3937007874015748
          },
          {
            "duration": 0.10869549999998185,
            "durationTicks": 96,
            "midi": 35,
            "name": "B1",
            "ticks": 163888,
            "time": 185.56133441666668,
            "velocity": 0.3937007874015748
          },
          {
            "duration": 0.10869549999998185,
            "durationTicks": 96,
            "midi": 78,
            "name": "F#5",
            "ticks": 163888,
            "time": 185.56133441666668,
            "velocity": 0.3937007874015748
          },
          {
            "duration": 0.10869549999998185,
            "durationTicks": 96,
            "midi": 47,
            "name": "B2",
            "ticks": 163888,
            "time": 185.56133441666668,
            "velocity": 0.3937007874015748
          },
          {
            "duration": 0.21739100000002054,
            "durationTicks": 192,
            "midi": 63,
            "name": "D#4",
            "ticks": 163984,
            "time": 185.67002991666666,
            "velocity": 0.3937007874015748
          },
          {
            "duration": 0.21739100000002054,
            "durationTicks": 192,
            "midi": 34,
            "name": "A#1",
            "ticks": 163984,
            "time": 185.67002991666666,
            "velocity": 0.3937007874015748
          },
          {
            "duration": 0.21739100000002054,
            "durationTicks": 192,
            "midi": 54,
            "name": "F#3",
            "ticks": 163984,
            "time": 185.67002991666666,
            "velocity": 0.3937007874015748
          },
          {
            "duration": 0.21739100000002054,
            "durationTicks": 192,
            "midi": 82,
            "name": "A#5",
            "ticks": 163984,
            "time": 185.67002991666666,
            "velocity": 0.3937007874015748
          },
          {
            "duration": 0.10869550000001027,
            "durationTicks": 96,
            "midi": 35,
            "name": "B1",
            "ticks": 163984,
            "time": 185.67002991666666,
            "velocity": 0.3937007874015748
          },
          {
            "duration": 0.21739100000002054,
            "durationTicks": 192,
            "midi": 66,
            "name": "F#4",
            "ticks": 163984,
            "time": 185.67002991666666,
            "velocity": 0.3937007874015748
          },
          {
            "duration": 0.21739100000002054,
            "durationTicks": 192,
            "midi": 78,
            "name": "F#5",
            "ticks": 163984,
            "time": 185.67002991666666,
            "velocity": 0.3937007874015748
          },
          {
            "duration": 0.21739100000002054,
            "durationTicks": 192,
            "midi": 70,
            "name": "A#4",
            "ticks": 163984,
            "time": 185.67002991666666,
            "velocity": 0.3937007874015748
          },
          {
            "duration": 0.21739100000002054,
            "durationTicks": 192,
            "midi": 59,
            "name": "B3",
            "ticks": 163984,
            "time": 185.67002991666666,
            "velocity": 0.3937007874015748
          },
          {
            "duration": 0.10869550000001027,
            "durationTicks": 96,
            "midi": 35,
            "name": "B1",
            "ticks": 163984,
            "time": 185.67002991666666,
            "velocity": 0.3937007874015748
          },
          {
            "duration": 0.10869550000001027,
            "durationTicks": 96,
            "midi": 51,
            "name": "D#3",
            "ticks": 163984,
            "time": 185.67002991666666,
            "velocity": 0.3937007874015748
          },
          {
            "duration": 0.10869550000001027,
            "durationTicks": 96,
            "midi": 54,
            "name": "F#3",
            "ticks": 164080,
            "time": 185.77872541666667,
            "velocity": 0.3937007874015748
          },
          {
            "duration": 0.10869549999998185,
            "durationTicks": 96,
            "midi": 59,
            "name": "B3",
            "ticks": 164176,
            "time": 185.88742091666668,
            "velocity": 0.3937007874015748
          },
          {
            "duration": 0.21739099999999212,
            "durationTicks": 192,
            "midi": 59,
            "name": "B3",
            "ticks": 164176,
            "time": 185.88742091666668,
            "velocity": 0.3937007874015748
          },
          {
            "duration": 0.21739099999999212,
            "durationTicks": 192,
            "midi": 63,
            "name": "D#4",
            "ticks": 164176,
            "time": 185.88742091666668,
            "velocity": 0.3937007874015748
          },
          {
            "duration": 0.21739099999999212,
            "durationTicks": 192,
            "midi": 54,
            "name": "F#3",
            "ticks": 164176,
            "time": 185.88742091666668,
            "velocity": 0.3937007874015748
          },
          {
            "duration": 0.10869549999998185,
            "durationTicks": 96,
            "midi": 47,
            "name": "B2",
            "ticks": 164176,
            "time": 185.88742091666668,
            "velocity": 0.3937007874015748
          },
          {
            "duration": 0.10869549999998185,
            "durationTicks": 96,
            "midi": 35,
            "name": "B1",
            "ticks": 164176,
            "time": 185.88742091666668,
            "velocity": 0.3937007874015748
          },
          {
            "duration": 0.10869550000001027,
            "durationTicks": 96,
            "midi": 47,
            "name": "B2",
            "ticks": 164272,
            "time": 185.99611641666667,
            "velocity": 0.3937007874015748
          },
          {
            "duration": 0.10869550000001027,
            "durationTicks": 96,
            "midi": 63,
            "name": "D#4",
            "ticks": 164272,
            "time": 185.99611641666667,
            "velocity": 0.3937007874015748
          },
          {
            "duration": 0.10869550000001027,
            "durationTicks": 96,
            "midi": 35,
            "name": "B1",
            "ticks": 164272,
            "time": 185.99611641666667,
            "velocity": 0.3937007874015748
          },
          {
            "duration": 0.21739099999999212,
            "durationTicks": 192,
            "midi": 59,
            "name": "B3",
            "ticks": 164368,
            "time": 186.10481191666668,
            "velocity": 0.3937007874015748
          },
          {
            "duration": 0.21739099999999212,
            "durationTicks": 192,
            "midi": 63,
            "name": "D#4",
            "ticks": 164368,
            "time": 186.10481191666668,
            "velocity": 0.3937007874015748
          },
          {
            "duration": 0.10869550000001027,
            "durationTicks": 96,
            "midi": 66,
            "name": "F#4",
            "ticks": 164368,
            "time": 186.10481191666668,
            "velocity": 0.3937007874015748
          },
          {
            "duration": 0.10869550000001027,
            "durationTicks": 96,
            "midi": 35,
            "name": "B1",
            "ticks": 164368,
            "time": 186.10481191666668,
            "velocity": 0.3937007874015748
          },
          {
            "duration": 0.21739099999999212,
            "durationTicks": 192,
            "midi": 77,
            "name": "F5",
            "ticks": 164368,
            "time": 186.10481191666668,
            "velocity": 0.3937007874015748
          },
          {
            "duration": 0.21739099999999212,
            "durationTicks": 192,
            "midi": 65,
            "name": "F4",
            "ticks": 164368,
            "time": 186.10481191666668,
            "velocity": 0.3937007874015748
          },
          {
            "duration": 0.21739099999999212,
            "durationTicks": 192,
            "midi": 54,
            "name": "F#3",
            "ticks": 164368,
            "time": 186.10481191666668,
            "velocity": 0.3937007874015748
          },
          {
            "duration": 0.21739099999999212,
            "durationTicks": 192,
            "midi": 68,
            "name": "G#4",
            "ticks": 164368,
            "time": 186.10481191666668,
            "velocity": 0.3937007874015748
          },
          {
            "duration": 0.21739099999999212,
            "durationTicks": 192,
            "midi": 80,
            "name": "G#5",
            "ticks": 164368,
            "time": 186.10481191666668,
            "velocity": 0.3937007874015748
          },
          {
            "duration": 0.21739099999999212,
            "durationTicks": 192,
            "midi": 34,
            "name": "A#1",
            "ticks": 164368,
            "time": 186.10481191666668,
            "velocity": 0.3937007874015748
          },
          {
            "duration": 0.10869550000001027,
            "durationTicks": 96,
            "midi": 35,
            "name": "B1",
            "ticks": 164368,
            "time": 186.10481191666668,
            "velocity": 0.3937007874015748
          },
          {
            "duration": 0.10869549999998185,
            "durationTicks": 96,
            "midi": 71,
            "name": "B4",
            "ticks": 164464,
            "time": 186.2135074166667,
            "velocity": 0.3937007874015748
          },
          {
            "duration": 0.10869549999998185,
            "durationTicks": 96,
            "midi": 35,
            "name": "B1",
            "ticks": 164464,
            "time": 186.2135074166667,
            "velocity": 0.3937007874015748
          },
          {
            "duration": 0.10869549999998185,
            "durationTicks": 96,
            "midi": 47,
            "name": "B2",
            "ticks": 164464,
            "time": 186.2135074166667,
            "velocity": 0.3937007874015748
          },
          {
            "duration": 0.10869550000001027,
            "durationTicks": 96,
            "midi": 75,
            "name": "D#5",
            "ticks": 164560,
            "time": 186.32220291666667,
            "velocity": 0.3937007874015748
          },
          {
            "duration": 0.21739100000002054,
            "durationTicks": 192,
            "midi": 78,
            "name": "F#5",
            "ticks": 164560,
            "time": 186.32220291666667,
            "velocity": 0.3937007874015748
          },
          {
            "duration": 0.21739100000002054,
            "durationTicks": 192,
            "midi": 66,
            "name": "F#4",
            "ticks": 164560,
            "time": 186.32220291666667,
            "velocity": 0.3937007874015748
          },
          {
            "duration": 0.21739100000002054,
            "durationTicks": 192,
            "midi": 63,
            "name": "D#4",
            "ticks": 164560,
            "time": 186.32220291666667,
            "velocity": 0.3937007874015748
          },
          {
            "duration": 0.21739100000002054,
            "durationTicks": 192,
            "midi": 63,
            "name": "D#4",
            "ticks": 164560,
            "time": 186.32220291666667,
            "velocity": 0.3937007874015748
          },
          {
            "duration": 0.10869550000001027,
            "durationTicks": 96,
            "midi": 34,
            "name": "A#1",
            "ticks": 164560,
            "time": 186.32220291666667,
            "velocity": 0.3937007874015748
          },
          {
            "duration": 0.10869550000001027,
            "durationTicks": 96,
            "midi": 46,
            "name": "A#2",
            "ticks": 164560,
            "time": 186.32220291666667,
            "velocity": 0.3937007874015748
          },
          {
            "duration": 0.21739100000002054,
            "durationTicks": 192,
            "midi": 59,
            "name": "B3",
            "ticks": 164560,
            "time": 186.32220291666667,
            "velocity": 0.3937007874015748
          },
          {
            "duration": 0.21739100000002054,
            "durationTicks": 192,
            "midi": 75,
            "name": "D#5",
            "ticks": 164560,
            "time": 186.32220291666667,
            "velocity": 0.3937007874015748
          },
          {
            "duration": 0.21739100000002054,
            "durationTicks": 192,
            "midi": 54,
            "name": "F#3",
            "ticks": 164560,
            "time": 186.32220291666667,
            "velocity": 0.3937007874015748
          },
          {
            "duration": 0.10869550000001027,
            "durationTicks": 96,
            "midi": 35,
            "name": "B1",
            "ticks": 164656,
            "time": 186.43089841666668,
            "velocity": 0.3937007874015748
          },
          {
            "duration": 0.10869550000001027,
            "durationTicks": 96,
            "midi": 78,
            "name": "F#5",
            "ticks": 164656,
            "time": 186.43089841666668,
            "velocity": 0.3937007874015748
          },
          {
            "duration": 0.10869550000001027,
            "durationTicks": 96,
            "midi": 47,
            "name": "B2",
            "ticks": 164656,
            "time": 186.43089841666668,
            "velocity": 0.3937007874015748
          },
          {
            "duration": 0.21739099999999212,
            "durationTicks": 192,
            "midi": 77,
            "name": "F5",
            "ticks": 164752,
            "time": 186.5395939166667,
            "velocity": 0.3937007874015748
          },
          {
            "duration": 0.10869549999998185,
            "durationTicks": 96,
            "midi": 49,
            "name": "C#3",
            "ticks": 164752,
            "time": 186.5395939166667,
            "velocity": 0.3937007874015748
          },
          {
            "duration": 0.21739099999999212,
            "durationTicks": 192,
            "midi": 56,
            "name": "G#3",
            "ticks": 164752,
            "time": 186.5395939166667,
            "velocity": 0.3937007874015748
          },
          {
            "duration": 0.21739099999999212,
            "durationTicks": 192,
            "midi": 61,
            "name": "C#4",
            "ticks": 164752,
            "time": 186.5395939166667,
            "velocity": 0.3937007874015748
          },
          {
            "duration": 0.21739099999999212,
            "durationTicks": 192,
            "midi": 65,
            "name": "F4",
            "ticks": 164752,
            "time": 186.5395939166667,
            "velocity": 0.3937007874015748
          },
          {
            "duration": 0.10869549999998185,
            "durationTicks": 96,
            "midi": 25,
            "name": "C#1",
            "ticks": 164752,
            "time": 186.5395939166667,
            "velocity": 0.3937007874015748
          },
          {
            "duration": 0.21739099999999212,
            "durationTicks": 192,
            "midi": 53,
            "name": "F3",
            "ticks": 164752,
            "time": 186.5395939166667,
            "velocity": 0.3937007874015748
          },
          {
            "duration": 0.21739099999999212,
            "durationTicks": 192,
            "midi": 34,
            "name": "A#1",
            "ticks": 164752,
            "time": 186.5395939166667,
            "velocity": 0.3937007874015748
          },
          {
            "duration": 0.21739099999999212,
            "durationTicks": 192,
            "midi": 61,
            "name": "C#4",
            "ticks": 164752,
            "time": 186.5395939166667,
            "velocity": 0.3937007874015748
          },
          {
            "duration": 0.10869549999998185,
            "durationTicks": 96,
            "midi": 37,
            "name": "C#2",
            "ticks": 164752,
            "time": 186.5395939166667,
            "velocity": 0.3937007874015748
          },
          {
            "duration": 0.21739099999999212,
            "durationTicks": 192,
            "midi": 73,
            "name": "C#5",
            "ticks": 164752,
            "time": 186.5395939166667,
            "velocity": 0.3937007874015748
          },
          {
            "duration": 0.10869550000001027,
            "durationTicks": 96,
            "midi": 53,
            "name": "F3",
            "ticks": 164848,
            "time": 186.64828941666667,
            "velocity": 0.3937007874015748
          },
          {
            "duration": 0.10869549999998185,
            "durationTicks": 96,
            "midi": 56,
            "name": "G#3",
            "ticks": 164944,
            "time": 186.75698491666668,
            "velocity": 0.3937007874015748
          },
          {
            "duration": 0.10869549999998185,
            "durationTicks": 96,
            "midi": 49,
            "name": "C#3",
            "ticks": 164944,
            "time": 186.75698491666668,
            "velocity": 0.3937007874015748
          },
          {
            "duration": 0.21739099999999212,
            "durationTicks": 192,
            "midi": 61,
            "name": "C#4",
            "ticks": 164944,
            "time": 186.75698491666668,
            "velocity": 0.3937007874015748
          },
          {
            "duration": 0.21739099999999212,
            "durationTicks": 192,
            "midi": 53,
            "name": "F3",
            "ticks": 164944,
            "time": 186.75698491666668,
            "velocity": 0.3937007874015748
          },
          {
            "duration": 0.10869549999998185,
            "durationTicks": 96,
            "midi": 37,
            "name": "C#2",
            "ticks": 164944,
            "time": 186.75698491666668,
            "velocity": 0.3937007874015748
          },
          {
            "duration": 0.21739099999999212,
            "durationTicks": 192,
            "midi": 56,
            "name": "G#3",
            "ticks": 164944,
            "time": 186.75698491666668,
            "velocity": 0.3937007874015748
          },
          {
            "duration": 0.10869550000001027,
            "durationTicks": 96,
            "midi": 49,
            "name": "C#3",
            "ticks": 165040,
            "time": 186.86568041666666,
            "velocity": 0.3937007874015748
          },
          {
            "duration": 0.10869550000001027,
            "durationTicks": 96,
            "midi": 37,
            "name": "C#2",
            "ticks": 165040,
            "time": 186.86568041666666,
            "velocity": 0.3937007874015748
          },
          {
            "duration": 0.10869550000001027,
            "durationTicks": 96,
            "midi": 61,
            "name": "C#4",
            "ticks": 165040,
            "time": 186.86568041666666,
            "velocity": 0.3937007874015748
          },
          {
            "duration": 0.43478200000001266,
            "durationTicks": 384,
            "midi": 78,
            "name": "F#5",
            "ticks": 165136,
            "time": 186.97437591666667,
            "velocity": 0.3937007874015748
          },
          {
            "duration": 0.21739099999999212,
            "durationTicks": 192,
            "midi": 61,
            "name": "C#4",
            "ticks": 165136,
            "time": 186.97437591666667,
            "velocity": 0.3937007874015748
          },
          {
            "duration": 0.43478200000001266,
            "durationTicks": 384,
            "midi": 66,
            "name": "F#4",
            "ticks": 165136,
            "time": 186.97437591666667,
            "velocity": 0.3937007874015748
          },
          {
            "duration": 0.10869550000001027,
            "durationTicks": 96,
            "midi": 25,
            "name": "C#1",
            "ticks": 165136,
            "time": 186.97437591666667,
            "velocity": 0.3937007874015748
          },
          {
            "duration": 0.10869550000001027,
            "durationTicks": 96,
            "midi": 37,
            "name": "C#2",
            "ticks": 165136,
            "time": 186.97437591666667,
            "velocity": 0.3937007874015748
          },
          {
            "duration": 0.21739099999999212,
            "durationTicks": 192,
            "midi": 34,
            "name": "A#1",
            "ticks": 165136,
            "time": 186.97437591666667,
            "velocity": 0.3937007874015748
          },
          {
            "duration": 0.43478200000001266,
            "durationTicks": 384,
            "midi": 63,
            "name": "D#4",
            "ticks": 165136,
            "time": 186.97437591666667,
            "velocity": 0.3937007874015748
          },
          {
            "duration": 0.21739099999999212,
            "durationTicks": 192,
            "midi": 53,
            "name": "F3",
            "ticks": 165136,
            "time": 186.97437591666667,
            "velocity": 0.3937007874015748
          },
          {
            "duration": 0.10869550000001027,
            "durationTicks": 96,
            "midi": 65,
            "name": "F4",
            "ticks": 165136,
            "time": 186.97437591666667,
            "velocity": 0.3937007874015748
          },
          {
            "duration": 0.43478200000001266,
            "durationTicks": 384,
            "midi": 75,
            "name": "D#5",
            "ticks": 165136,
            "time": 186.97437591666667,
            "velocity": 0.3937007874015748
          },
          {
            "duration": 0.21739099999999212,
            "durationTicks": 192,
            "midi": 56,
            "name": "G#3",
            "ticks": 165136,
            "time": 186.97437591666667,
            "velocity": 0.3937007874015748
          },
          {
            "duration": 0.10869549999998185,
            "durationTicks": 96,
            "midi": 68,
            "name": "G#4",
            "ticks": 165232,
            "time": 187.08307141666668,
            "velocity": 0.3937007874015748
          },
          {
            "duration": 0.10869549999998185,
            "durationTicks": 96,
            "midi": 37,
            "name": "C#2",
            "ticks": 165232,
            "time": 187.08307141666668,
            "velocity": 0.3937007874015748
          },
          {
            "duration": 0.10869549999998185,
            "durationTicks": 96,
            "midi": 49,
            "name": "C#3",
            "ticks": 165232,
            "time": 187.08307141666668,
            "velocity": 0.3937007874015748
          },
          {
            "duration": 0.21739100000002054,
            "durationTicks": 192,
            "midi": 61,
            "name": "C#4",
            "ticks": 165328,
            "time": 187.19176691666667,
            "velocity": 0.3937007874015748
          },
          {
            "duration": 0.10869550000001027,
            "durationTicks": 96,
            "midi": 35,
            "name": "B1",
            "ticks": 165328,
            "time": 187.19176691666667,
            "velocity": 0.3937007874015748
          },
          {
            "duration": 0.21739100000002054,
            "durationTicks": 192,
            "midi": 53,
            "name": "F3",
            "ticks": 165328,
            "time": 187.19176691666667,
            "velocity": 0.3937007874015748
          },
          {
            "duration": 0.10869550000001027,
            "durationTicks": 96,
            "midi": 73,
            "name": "C#5",
            "ticks": 165328,
            "time": 187.19176691666667,
            "velocity": 0.3937007874015748
          },
          {
            "duration": 0.10869550000001027,
            "durationTicks": 96,
            "midi": 47,
            "name": "B2",
            "ticks": 165328,
            "time": 187.19176691666667,
            "velocity": 0.3937007874015748
          },
          {
            "duration": 0.21739100000002054,
            "durationTicks": 192,
            "midi": 56,
            "name": "G#3",
            "ticks": 165328,
            "time": 187.19176691666667,
            "velocity": 0.3937007874015748
          },
          {
            "duration": 0.10869550000001027,
            "durationTicks": 96,
            "midi": 37,
            "name": "C#2",
            "ticks": 165424,
            "time": 187.30046241666668,
            "velocity": 0.3937007874015748
          },
          {
            "duration": 0.10869550000001027,
            "durationTicks": 96,
            "midi": 77,
            "name": "F5",
            "ticks": 165424,
            "time": 187.30046241666668,
            "velocity": 0.3937007874015748
          },
          {
            "duration": 0.10869550000001027,
            "durationTicks": 96,
            "midi": 49,
            "name": "C#3",
            "ticks": 165424,
            "time": 187.30046241666668,
            "velocity": 0.3937007874015748
          },
          {
            "duration": 0.10869549999998185,
            "durationTicks": 96,
            "midi": 50,
            "name": "D3",
            "ticks": 165520,
            "time": 187.4091579166667,
            "velocity": 0.3937007874015748
          },
          {
            "duration": 0.10869549999998185,
            "durationTicks": 96,
            "midi": 50,
            "name": "D3",
            "ticks": 165520,
            "time": 187.4091579166667,
            "velocity": 0.3937007874015748
          },
          {
            "duration": 0.6533052447916532,
            "durationTicks": 577,
            "midi": 87,
            "name": "D#6",
            "ticks": 165520,
            "time": 187.4091579166667,
            "velocity": 0.3937007874015748
          },
          {
            "duration": 0.10869549999998185,
            "durationTicks": 96,
            "midi": 58,
            "name": "A#3",
            "ticks": 165520,
            "time": 187.4091579166667,
            "velocity": 0.3937007874015748
          },
          {
            "duration": 0.43591424479163265,
            "durationTicks": 385,
            "midi": 68,
            "name": "G#4",
            "ticks": 165520,
            "time": 187.4091579166667,
            "velocity": 0.3937007874015748
          },
          {
            "duration": 0.10869549999998185,
            "durationTicks": 96,
            "midi": 34,
            "name": "A#1",
            "ticks": 165520,
            "time": 187.4091579166667,
            "velocity": 0.3937007874015748
          },
          {
            "duration": 0.10869549999998185,
            "durationTicks": 96,
            "midi": 38,
            "name": "D2",
            "ticks": 165520,
            "time": 187.4091579166667,
            "velocity": 0.3937007874015748
          },
          {
            "duration": 0.10869549999998185,
            "durationTicks": 96,
            "midi": 53,
            "name": "F3",
            "ticks": 165520,
            "time": 187.4091579166667,
            "velocity": 0.3937007874015748
          },
          {
            "duration": 0.43591424479163265,
            "durationTicks": 385,
            "midi": 80,
            "name": "G#5",
            "ticks": 165520,
            "time": 187.4091579166667,
            "velocity": 0.3937007874015748
          },
          {
            "duration": 0.10869549999998185,
            "durationTicks": 96,
            "midi": 62,
            "name": "D4",
            "ticks": 165520,
            "time": 187.4091579166667,
            "velocity": 0.3937007874015748
          },
          {
            "duration": 0.43591424479163265,
            "durationTicks": 385,
            "midi": 77,
            "name": "F5",
            "ticks": 165520,
            "time": 187.4091579166667,
            "velocity": 0.3937007874015748
          },
          {
            "duration": 0.43591424479163265,
            "durationTicks": 385,
            "midi": 65,
            "name": "F4",
            "ticks": 165520,
            "time": 187.4091579166667,
            "velocity": 0.3937007874015748
          },
          {
            "duration": 0.10869550000001027,
            "durationTicks": 96,
            "midi": 53,
            "name": "F3",
            "ticks": 165616,
            "time": 187.51785341666667,
            "velocity": 0.3937007874015748
          },
          {
            "duration": 0.10869549999998185,
            "durationTicks": 96,
            "midi": 53,
            "name": "F3",
            "ticks": 165648,
            "time": 187.55408525,
            "velocity": 0.3937007874015748
          },
          {
            "duration": 0.10869549999998185,
            "durationTicks": 96,
            "midi": 58,
            "name": "A#3",
            "ticks": 165648,
            "time": 187.55408525,
            "velocity": 0.3937007874015748
          },
          {
            "duration": 0.10869549999998185,
            "durationTicks": 96,
            "midi": 34,
            "name": "A#1",
            "ticks": 165648,
            "time": 187.55408525,
            "velocity": 0.3937007874015748
          },
          {
            "duration": 0.10869549999998185,
            "durationTicks": 96,
            "midi": 62,
            "name": "D4",
            "ticks": 165648,
            "time": 187.55408525,
            "velocity": 0.3937007874015748
          },
          {
            "duration": 0.10982774479165869,
            "durationTicks": 97,
            "midi": 58,
            "name": "A#3",
            "ticks": 165712,
            "time": 187.62654891666668,
            "velocity": 0.3937007874015748
          },
          {
            "duration": 0.10982774479165869,
            "durationTicks": 97,
            "midi": 36,
            "name": "C2",
            "ticks": 165712,
            "time": 187.62654891666668,
            "velocity": 0.3937007874015748
          },
          {
            "duration": 0.10982774479165869,
            "durationTicks": 97,
            "midi": 48,
            "name": "C3",
            "ticks": 165712,
            "time": 187.62654891666668,
            "velocity": 0.3937007874015748
          },
          {
            "duration": 0.10869550000001027,
            "durationTicks": 96,
            "midi": 58,
            "name": "A#3",
            "ticks": 165777,
            "time": 187.700144828125,
            "velocity": 0.3937007874015748
          },
          {
            "duration": 0.10869550000001027,
            "durationTicks": 96,
            "midi": 62,
            "name": "D4",
            "ticks": 165777,
            "time": 187.700144828125,
            "velocity": 0.3937007874015748
          },
          {
            "duration": 0.10869550000001027,
            "durationTicks": 96,
            "midi": 34,
            "name": "A#1",
            "ticks": 165777,
            "time": 187.700144828125,
            "velocity": 0.3937007874015748
          },
          {
            "duration": 0.10869550000001027,
            "durationTicks": 96,
            "midi": 53,
            "name": "F3",
            "ticks": 165777,
            "time": 187.700144828125,
            "velocity": 0.3937007874015748
          },
          {
            "duration": 0.10869549999998185,
            "durationTicks": 96,
            "midi": 38,
            "name": "D2",
            "ticks": 165809,
            "time": 187.73637666145834,
            "velocity": 0.3937007874015748
          },
          {
            "duration": 0.10869549999998185,
            "durationTicks": 96,
            "midi": 62,
            "name": "D4",
            "ticks": 165809,
            "time": 187.73637666145834,
            "velocity": 0.3937007874015748
          },
          {
            "duration": 0.10869549999998185,
            "durationTicks": 96,
            "midi": 50,
            "name": "D3",
            "ticks": 165809,
            "time": 187.73637666145834,
            "velocity": 0.3937007874015748
          },
          {
            "duration": 0.10869550000001027,
            "durationTicks": 96,
            "midi": 41,
            "name": "F2",
            "ticks": 165905,
            "time": 187.84507216145832,
            "velocity": 0.3937007874015748
          },
          {
            "duration": 0.4359142447916895,
            "durationTicks": 385,
            "midi": 66,
            "name": "F#4",
            "ticks": 165905,
            "time": 187.84507216145832,
            "velocity": 0.3937007874015748
          },
          {
            "duration": 0.21739100000002054,
            "durationTicks": 192,
            "midi": 70,
            "name": "A#4",
            "ticks": 165905,
            "time": 187.84507216145832,
            "velocity": 0.3937007874015748
          },
          {
            "duration": 0.4359142447916895,
            "durationTicks": 385,
            "midi": 82,
            "name": "A#5",
            "ticks": 165905,
            "time": 187.84507216145832,
            "velocity": 0.3937007874015748
          },
          {
            "duration": 0.10869550000001027,
            "durationTicks": 96,
            "midi": 62,
            "name": "D4",
            "ticks": 165905,
            "time": 187.84507216145832,
            "velocity": 0.3937007874015748
          },
          {
            "duration": 0.10869550000001027,
            "durationTicks": 96,
            "midi": 34,
            "name": "A#1",
            "ticks": 165905,
            "time": 187.84507216145832,
            "velocity": 0.3937007874015748
          },
          {
            "duration": 0.4359142447916895,
            "durationTicks": 385,
            "midi": 78,
            "name": "F#5",
            "ticks": 165905,
            "time": 187.84507216145832,
            "velocity": 0.3937007874015748
          },
          {
            "duration": 0.10869550000001027,
            "durationTicks": 96,
            "midi": 58,
            "name": "A#3",
            "ticks": 165905,
            "time": 187.84507216145832,
            "velocity": 0.3937007874015748
          },
          {
            "duration": 0.10869550000001027,
            "durationTicks": 96,
            "midi": 53,
            "name": "F3",
            "ticks": 165905,
            "time": 187.84507216145832,
            "velocity": 0.3937007874015748
          },
          {
            "duration": 0.10869550000001027,
            "durationTicks": 96,
            "midi": 53,
            "name": "F3",
            "ticks": 165905,
            "time": 187.84507216145832,
            "velocity": 0.3937007874015748
          },
          {
            "duration": 0.10869550000001027,
            "durationTicks": 96,
            "midi": 65,
            "name": "F4",
            "ticks": 165905,
            "time": 187.84507216145832,
            "velocity": 0.3937007874015748
          },
          {
            "duration": 0.32721874479167923,
            "durationTicks": 289,
            "midi": 70,
            "name": "A#4",
            "ticks": 166001,
            "time": 187.95376766145833,
            "velocity": 0.3937007874015748
          },
          {
            "duration": 0.10869550000001027,
            "durationTicks": 96,
            "midi": 58,
            "name": "A#3",
            "ticks": 166033,
            "time": 187.98999949479168,
            "velocity": 0.3937007874015748
          },
          {
            "duration": 0.10869550000001027,
            "durationTicks": 96,
            "midi": 34,
            "name": "A#1",
            "ticks": 166033,
            "time": 187.98999949479168,
            "velocity": 0.3937007874015748
          },
          {
            "duration": 0.10869550000001027,
            "durationTicks": 96,
            "midi": 53,
            "name": "F3",
            "ticks": 166033,
            "time": 187.98999949479168,
            "velocity": 0.3937007874015748
          },
          {
            "duration": 0.10869550000001027,
            "durationTicks": 96,
            "midi": 62,
            "name": "D4",
            "ticks": 166033,
            "time": 187.98999949479168,
            "velocity": 0.3937007874015748
          },
          {
            "duration": 0.10982774479165869,
            "durationTicks": 97,
            "midi": 74,
            "name": "D5",
            "ticks": 166097,
            "time": 188.06246316145834,
            "velocity": 0.3937007874015748
          },
          {
            "duration": 0.10982774479165869,
            "durationTicks": 97,
            "midi": 39,
            "name": "D#2",
            "ticks": 166097,
            "time": 188.06246316145834,
            "velocity": 0.3937007874015748
          },
          {
            "duration": 0.10982774479165869,
            "durationTicks": 97,
            "midi": 51,
            "name": "D#3",
            "ticks": 166097,
            "time": 188.06246316145834,
            "velocity": 0.3937007874015748
          },
          {
            "duration": 0.10869549999998185,
            "durationTicks": 96,
            "midi": 34,
            "name": "A#1",
            "ticks": 166162,
            "time": 188.13605907291668,
            "velocity": 0.3937007874015748
          },
          {
            "duration": 0.10869549999998185,
            "durationTicks": 96,
            "midi": 53,
            "name": "F3",
            "ticks": 166162,
            "time": 188.13605907291668,
            "velocity": 0.3937007874015748
          },
          {
            "duration": 0.10869549999998185,
            "durationTicks": 96,
            "midi": 62,
            "name": "D4",
            "ticks": 166162,
            "time": 188.13605907291668,
            "velocity": 0.3937007874015748
          },
          {
            "duration": 0.10869549999998185,
            "durationTicks": 96,
            "midi": 58,
            "name": "A#3",
            "ticks": 166162,
            "time": 188.13605907291668,
            "velocity": 0.3937007874015748
          },
          {
            "duration": 0.10869550000001027,
            "durationTicks": 96,
            "midi": 41,
            "name": "F2",
            "ticks": 166194,
            "time": 188.17229090625,
            "velocity": 0.3937007874015748
          },
          {
            "duration": 0.10869550000001027,
            "durationTicks": 96,
            "midi": 77,
            "name": "F5",
            "ticks": 166194,
            "time": 188.17229090625,
            "velocity": 0.3937007874015748
          },
          {
            "duration": 0.10869550000001027,
            "durationTicks": 96,
            "midi": 53,
            "name": "F3",
            "ticks": 166194,
            "time": 188.17229090625,
            "velocity": 0.3937007874015748
          },
          {
            "duration": 0.10869549999998185,
            "durationTicks": 96,
            "midi": 27,
            "name": "D#1",
            "ticks": 166290,
            "time": 188.28098640625,
            "velocity": 0.3937007874015748
          },
          {
            "duration": 0.10869549999998185,
            "durationTicks": 96,
            "midi": 39,
            "name": "D#2",
            "ticks": 166290,
            "time": 188.28098640625,
            "velocity": 0.3937007874015748
          },
          {
            "duration": 0.21739099999999212,
            "durationTicks": 192,
            "midi": 58,
            "name": "A#3",
            "ticks": 166290,
            "time": 188.28098640625,
            "velocity": 0.3937007874015748
          },
          {
            "duration": 0.21739099999999212,
            "durationTicks": 192,
            "midi": 70,
            "name": "A#4",
            "ticks": 166290,
            "time": 188.28098640625,
            "velocity": 0.3937007874015748
          },
          {
            "duration": 0.21739099999999212,
            "durationTicks": 192,
            "midi": 54,
            "name": "F#3",
            "ticks": 166290,
            "time": 188.28098640625,
            "velocity": 0.3937007874015748
          },
          {
            "duration": 0.21739099999999212,
            "durationTicks": 192,
            "midi": 34,
            "name": "A#1",
            "ticks": 166290,
            "time": 188.28098640625,
            "velocity": 0.3937007874015748
          },
          {
            "duration": 0.21739099999999212,
            "durationTicks": 192,
            "midi": 63,
            "name": "D#4",
            "ticks": 166290,
            "time": 188.28098640625,
            "velocity": 0.3937007874015748
          },
          {
            "duration": 0.21739099999999212,
            "durationTicks": 192,
            "midi": 58,
            "name": "A#3",
            "ticks": 166290,
            "time": 188.28098640625,
            "velocity": 0.3937007874015748
          },
          {
            "duration": 0.21739099999999212,
            "durationTicks": 192,
            "midi": 63,
            "name": "D#4",
            "ticks": 166290,
            "time": 188.28098640625,
            "velocity": 0.3937007874015748
          },
          {
            "duration": 0.10869549999998185,
            "durationTicks": 96,
            "midi": 51,
            "name": "D#3",
            "ticks": 166290,
            "time": 188.28098640625,
            "velocity": 0.3937007874015748
          },
          {
            "duration": 0.21739099999999212,
            "durationTicks": 192,
            "midi": 75,
            "name": "D#5",
            "ticks": 166290,
            "time": 188.28098640625,
            "velocity": 0.3937007874015748
          },
          {
            "duration": 0.10869550000001027,
            "durationTicks": 96,
            "midi": 54,
            "name": "F#3",
            "ticks": 166386,
            "time": 188.38968190625,
            "velocity": 0.3937007874015748
          },
          {
            "duration": 0.21739099999999212,
            "durationTicks": 192,
            "midi": 65,
            "name": "F4",
            "ticks": 166482,
            "time": 188.49837740625,
            "velocity": 0.3937007874015748
          },
          {
            "duration": 0.21739099999999212,
            "durationTicks": 192,
            "midi": 61,
            "name": "C#4",
            "ticks": 166482,
            "time": 188.49837740625,
            "velocity": 0.3937007874015748
          },
          {
            "duration": 0.10869550000001027,
            "durationTicks": 96,
            "midi": 39,
            "name": "D#2",
            "ticks": 166482,
            "time": 188.49837740625,
            "velocity": 0.3937007874015748
          },
          {
            "duration": 0.10869550000001027,
            "durationTicks": 96,
            "midi": 58,
            "name": "A#3",
            "ticks": 166482,
            "time": 188.49837740625,
            "velocity": 0.3937007874015748
          },
          {
            "duration": 0.10869550000001027,
            "durationTicks": 96,
            "midi": 51,
            "name": "D#3",
            "ticks": 166482,
            "time": 188.49837740625,
            "velocity": 0.3937007874015748
          },
          {
            "duration": 0.21739099999999212,
            "durationTicks": 192,
            "midi": 54,
            "name": "F#3",
            "ticks": 166482,
            "time": 188.49837740625,
            "velocity": 0.3937007874015748
          },
          {
            "duration": 0.21739099999999212,
            "durationTicks": 192,
            "midi": 63,
            "name": "D#4",
            "ticks": 166482,
            "time": 188.49837740625,
            "velocity": 0.3937007874015748
          },
          {
            "duration": 0.21739099999999212,
            "durationTicks": 192,
            "midi": 73,
            "name": "C#5",
            "ticks": 166482,
            "time": 188.49837740625,
            "velocity": 0.3937007874015748
          },
          {
            "duration": 0.21739099999999212,
            "durationTicks": 192,
            "midi": 58,
            "name": "A#3",
            "ticks": 166482,
            "time": 188.49837740625,
            "velocity": 0.3937007874015748
          },
          {
            "duration": 0.21739099999999212,
            "durationTicks": 192,
            "midi": 77,
            "name": "F5",
            "ticks": 166482,
            "time": 188.49837740625,
            "velocity": 0.3937007874015748
          },
          {
            "duration": 0.10869549999998185,
            "durationTicks": 96,
            "midi": 63,
            "name": "D#4",
            "ticks": 166578,
            "time": 188.60707290625,
            "velocity": 0.3937007874015748
          },
          {
            "duration": 0.10869549999998185,
            "durationTicks": 96,
            "midi": 39,
            "name": "D#2",
            "ticks": 166578,
            "time": 188.60707290625,
            "velocity": 0.3937007874015748
          },
          {
            "duration": 0.10869549999998185,
            "durationTicks": 96,
            "midi": 51,
            "name": "D#3",
            "ticks": 166578,
            "time": 188.60707290625,
            "velocity": 0.3937007874015748
          },
          {
            "duration": 0.21739100000002054,
            "durationTicks": 192,
            "midi": 63,
            "name": "D#4",
            "ticks": 166674,
            "time": 188.71576840625,
            "velocity": 0.3937007874015748
          },
          {
            "duration": 0.10869550000001027,
            "durationTicks": 96,
            "midi": 66,
            "name": "F#4",
            "ticks": 166674,
            "time": 188.71576840625,
            "velocity": 0.3937007874015748
          },
          {
            "duration": 0.21739100000002054,
            "durationTicks": 192,
            "midi": 63,
            "name": "D#4",
            "ticks": 166674,
            "time": 188.71576840625,
            "velocity": 0.3937007874015748
          },
          {
            "duration": 0.21739100000002054,
            "durationTicks": 192,
            "midi": 54,
            "name": "F#3",
            "ticks": 166674,
            "time": 188.71576840625,
            "velocity": 0.3937007874015748
          },
          {
            "duration": 0.21739100000002054,
            "durationTicks": 192,
            "midi": 34,
            "name": "A#1",
            "ticks": 166674,
            "time": 188.71576840625,
            "velocity": 0.3937007874015748
          },
          {
            "duration": 0.10869550000001027,
            "durationTicks": 96,
            "midi": 27,
            "name": "D#1",
            "ticks": 166674,
            "time": 188.71576840625,
            "velocity": 0.3937007874015748
          },
          {
            "duration": 0.21739100000002054,
            "durationTicks": 192,
            "midi": 58,
            "name": "A#3",
            "ticks": 166674,
            "time": 188.71576840625,
            "velocity": 0.3937007874015748
          },
          {
            "duration": 0.21739100000002054,
            "durationTicks": 192,
            "midi": 66,
            "name": "F#4",
            "ticks": 166674,
            "time": 188.71576840625,
            "velocity": 0.3937007874015748
          },
          {
            "duration": 0.10869550000001027,
            "durationTicks": 96,
            "midi": 39,
            "name": "D#2",
            "ticks": 166674,
            "time": 188.71576840625,
            "velocity": 0.3937007874015748
          },
          {
            "duration": 0.21739100000002054,
            "durationTicks": 192,
            "midi": 75,
            "name": "D#5",
            "ticks": 166674,
            "time": 188.71576840625,
            "velocity": 0.3937007874015748
          },
          {
            "duration": 0.21739100000002054,
            "durationTicks": 192,
            "midi": 78,
            "name": "F#5",
            "ticks": 166674,
            "time": 188.71576840625,
            "velocity": 0.3937007874015748
          },
          {
            "duration": 0.10869550000001027,
            "durationTicks": 96,
            "midi": 70,
            "name": "A#4",
            "ticks": 166770,
            "time": 188.82446390625,
            "velocity": 0.3937007874015748
          },
          {
            "duration": 0.10869550000001027,
            "durationTicks": 96,
            "midi": 39,
            "name": "D#2",
            "ticks": 166770,
            "time": 188.82446390625,
            "velocity": 0.3937007874015748
          },
          {
            "duration": 0.10869550000001027,
            "durationTicks": 96,
            "midi": 51,
            "name": "D#3",
            "ticks": 166770,
            "time": 188.82446390625,
            "velocity": 0.3937007874015748
          },
          {
            "duration": 0.21739099999999212,
            "durationTicks": 192,
            "midi": 68,
            "name": "G#4",
            "ticks": 166866,
            "time": 188.93315940625,
            "velocity": 0.3937007874015748
          },
          {
            "duration": 0.21739099999999212,
            "durationTicks": 192,
            "midi": 58,
            "name": "A#3",
            "ticks": 166866,
            "time": 188.93315940625,
            "velocity": 0.3937007874015748
          },
          {
            "duration": 0.10869549999998185,
            "durationTicks": 96,
            "midi": 75,
            "name": "D#5",
            "ticks": 166866,
            "time": 188.93315940625,
            "velocity": 0.3937007874015748
          },
          {
            "duration": 0.21739099999999212,
            "durationTicks": 192,
            "midi": 63,
            "name": "D#4",
            "ticks": 166866,
            "time": 188.93315940625,
            "velocity": 0.3937007874015748
          },
          {
            "duration": 0.21739099999999212,
            "durationTicks": 192,
            "midi": 65,
            "name": "F4",
            "ticks": 166866,
            "time": 188.93315940625,
            "velocity": 0.3937007874015748
          },
          {
            "duration": 0.21739099999999212,
            "durationTicks": 192,
            "midi": 54,
            "name": "F#3",
            "ticks": 166866,
            "time": 188.93315940625,
            "velocity": 0.3937007874015748
          },
          {
            "duration": 0.10869549999998185,
            "durationTicks": 96,
            "midi": 49,
            "name": "C#3",
            "ticks": 166866,
            "time": 188.93315940625,
            "velocity": 0.3937007874015748
          },
          {
            "duration": 0.21739099999999212,
            "durationTicks": 192,
            "midi": 77,
            "name": "F5",
            "ticks": 166866,
            "time": 188.93315940625,
            "velocity": 0.3937007874015748
          },
          {
            "duration": 0.10869549999998185,
            "durationTicks": 96,
            "midi": 37,
            "name": "C#2",
            "ticks": 166866,
            "time": 188.93315940625,
            "velocity": 0.3937007874015748
          },
          {
            "duration": 0.21739099999999212,
            "durationTicks": 192,
            "midi": 80,
            "name": "G#5",
            "ticks": 166866,
            "time": 188.93315940625,
            "velocity": 0.3937007874015748
          },
          {
            "duration": 0.10869550000001027,
            "durationTicks": 96,
            "midi": 39,
            "name": "D#2",
            "ticks": 166962,
            "time": 189.04185490625,
            "velocity": 0.3937007874015748
          },
          {
            "duration": 0.10869550000001027,
            "durationTicks": 96,
            "midi": 51,
            "name": "D#3",
            "ticks": 166962,
            "time": 189.04185490625,
            "velocity": 0.3937007874015748
          },
          {
            "duration": 0.10869550000001027,
            "durationTicks": 96,
            "midi": 78,
            "name": "F#5",
            "ticks": 166962,
            "time": 189.04185490625,
            "velocity": 0.3937007874015748
          },
          {
            "duration": 0.21739099999999212,
            "durationTicks": 192,
            "midi": 58,
            "name": "A#3",
            "ticks": 167058,
            "time": 189.15055040625,
            "velocity": 0.3937007874015748
          },
          {
            "duration": 0.10869549999998185,
            "durationTicks": 96,
            "midi": 39,
            "name": "D#2",
            "ticks": 167058,
            "time": 189.15055040625,
            "velocity": 0.3937007874015748
          },
          {
            "duration": 0.10869549999998185,
            "durationTicks": 96,
            "midi": 27,
            "name": "D#1",
            "ticks": 167058,
            "time": 189.15055040625,
            "velocity": 0.3937007874015748
          },
          {
            "duration": 0.21739099999999212,
            "durationTicks": 192,
            "midi": 54,
            "name": "F#3",
            "ticks": 167058,
            "time": 189.15055040625,
            "velocity": 0.3937007874015748
          },
          {
            "duration": 0.21739099999999212,
            "durationTicks": 192,
            "midi": 78,
            "name": "F#5",
            "ticks": 167058,
            "time": 189.15055040625,
            "velocity": 0.3937007874015748
          },
          {
            "duration": 0.21739099999999212,
            "durationTicks": 192,
            "midi": 82,
            "name": "A#5",
            "ticks": 167058,
            "time": 189.15055040625,
            "velocity": 0.3937007874015748
          },
          {
            "duration": 0.21739099999999212,
            "durationTicks": 192,
            "midi": 70,
            "name": "A#4",
            "ticks": 167058,
            "time": 189.15055040625,
            "velocity": 0.3937007874015748
          },
          {
            "duration": 0.10869549999998185,
            "durationTicks": 96,
            "midi": 51,
            "name": "D#3",
            "ticks": 167058,
            "time": 189.15055040625,
            "velocity": 0.3937007874015748
          },
          {
            "duration": 0.21739099999999212,
            "durationTicks": 192,
            "midi": 66,
            "name": "F#4",
            "ticks": 167058,
            "time": 189.15055040625,
            "velocity": 0.3937007874015748
          },
          {
            "duration": 0.21739099999999212,
            "durationTicks": 192,
            "midi": 34,
            "name": "A#1",
            "ticks": 167058,
            "time": 189.15055040625,
            "velocity": 0.3937007874015748
          },
          {
            "duration": 0.21739099999999212,
            "durationTicks": 192,
            "midi": 63,
            "name": "D#4",
            "ticks": 167058,
            "time": 189.15055040625,
            "velocity": 0.3937007874015748
          },
          {
            "duration": 0.10869550000001027,
            "durationTicks": 96,
            "midi": 54,
            "name": "F#3",
            "ticks": 167154,
            "time": 189.25924590625,
            "velocity": 0.3937007874015748
          },
          {
            "duration": 0.10869550000001027,
            "durationTicks": 96,
            "midi": 58,
            "name": "A#3",
            "ticks": 167250,
            "time": 189.36794140625,
            "velocity": 0.3937007874015748
          },
          {
            "duration": 0.21739099999999212,
            "durationTicks": 192,
            "midi": 63,
            "name": "D#4",
            "ticks": 167250,
            "time": 189.36794140625,
            "velocity": 0.3937007874015748
          },
          {
            "duration": 0.10869550000001027,
            "durationTicks": 96,
            "midi": 51,
            "name": "D#3",
            "ticks": 167250,
            "time": 189.36794140625,
            "velocity": 0.3937007874015748
          },
          {
            "duration": 0.21739099999999212,
            "durationTicks": 192,
            "midi": 54,
            "name": "F#3",
            "ticks": 167250,
            "time": 189.36794140625,
            "velocity": 0.3937007874015748
          },
          {
            "duration": 0.21739099999999212,
            "durationTicks": 192,
            "midi": 58,
            "name": "A#3",
            "ticks": 167250,
            "time": 189.36794140625,
            "velocity": 0.3937007874015748
          },
          {
            "duration": 0.10869550000001027,
            "durationTicks": 96,
            "midi": 39,
            "name": "D#2",
            "ticks": 167250,
            "time": 189.36794140625,
            "velocity": 0.3937007874015748
          },
          {
            "duration": 0.10869549999998185,
            "durationTicks": 96,
            "midi": 39,
            "name": "D#2",
            "ticks": 167346,
            "time": 189.47663690625,
            "velocity": 0.3937007874015748
          },
          {
            "duration": 0.10869549999998185,
            "durationTicks": 96,
            "midi": 51,
            "name": "D#3",
            "ticks": 167346,
            "time": 189.47663690625,
            "velocity": 0.3937007874015748
          },
          {
            "duration": 0.10869549999998185,
            "durationTicks": 96,
            "midi": 63,
            "name": "D#4",
            "ticks": 167346,
            "time": 189.47663690625,
            "velocity": 0.3937007874015748
          },
          {
            "duration": 0.21739100000002054,
            "durationTicks": 192,
            "midi": 75,
            "name": "D#5",
            "ticks": 167442,
            "time": 189.58533240625,
            "velocity": 0.3937007874015748
          },
          {
            "duration": 0.21739100000002054,
            "durationTicks": 192,
            "midi": 34,
            "name": "A#1",
            "ticks": 167442,
            "time": 189.58533240625,
            "velocity": 0.3937007874015748
          },
          {
            "duration": 0.10869550000001027,
            "durationTicks": 96,
            "midi": 39,
            "name": "D#2",
            "ticks": 167442,
            "time": 189.58533240625,
            "velocity": 0.3937007874015748
          },
          {
            "duration": 0.21739100000002054,
            "durationTicks": 192,
            "midi": 82,
            "name": "A#5",
            "ticks": 167442,
            "time": 189.58533240625,
            "velocity": 0.3937007874015748
          },
          {
            "duration": 0.21739100000002054,
            "durationTicks": 192,
            "midi": 87,
            "name": "D#6",
            "ticks": 167442,
            "time": 189.58533240625,
            "velocity": 0.3937007874015748
          },
          {
            "duration": 0.10869550000001027,
            "durationTicks": 96,
            "midi": 66,
            "name": "F#4",
            "ticks": 167442,
            "time": 189.58533240625,
            "velocity": 0.3937007874015748
          },
          {
            "duration": 0.21739100000002054,
            "durationTicks": 192,
            "midi": 54,
            "name": "F#3",
            "ticks": 167442,
            "time": 189.58533240625,
            "velocity": 0.3937007874015748
          },
          {
            "duration": 0.21739100000002054,
            "durationTicks": 192,
            "midi": 70,
            "name": "A#4",
            "ticks": 167442,
            "time": 189.58533240625,
            "velocity": 0.3937007874015748
          },
          {
            "duration": 0.21739100000002054,
            "durationTicks": 192,
            "midi": 63,
            "name": "D#4",
            "ticks": 167442,
            "time": 189.58533240625,
            "velocity": 0.3937007874015748
          },
          {
            "duration": 0.21739100000002054,
            "durationTicks": 192,
            "midi": 58,
            "name": "A#3",
            "ticks": 167442,
            "time": 189.58533240625,
            "velocity": 0.3937007874015748
          },
          {
            "duration": 0.10869550000001027,
            "durationTicks": 96,
            "midi": 27,
            "name": "D#1",
            "ticks": 167442,
            "time": 189.58533240625,
            "velocity": 0.3937007874015748
          },
          {
            "duration": 0.10869550000001027,
            "durationTicks": 96,
            "midi": 70,
            "name": "A#4",
            "ticks": 167538,
            "time": 189.69402790625,
            "velocity": 0.3937007874015748
          },
          {
            "duration": 0.10869550000001027,
            "durationTicks": 96,
            "midi": 39,
            "name": "D#2",
            "ticks": 167538,
            "time": 189.69402790625,
            "velocity": 0.3937007874015748
          },
          {
            "duration": 0.10869550000001027,
            "durationTicks": 96,
            "midi": 51,
            "name": "D#3",
            "ticks": 167538,
            "time": 189.69402790625,
            "velocity": 0.3937007874015748
          },
          {
            "duration": 0.10869549999998185,
            "durationTicks": 96,
            "midi": 37,
            "name": "C#2",
            "ticks": 167634,
            "time": 189.80272340625,
            "velocity": 0.3937007874015748
          },
          {
            "duration": 0.10869549999998185,
            "durationTicks": 96,
            "midi": 49,
            "name": "C#3",
            "ticks": 167634,
            "time": 189.80272340625,
            "velocity": 0.3937007874015748
          },
          {
            "duration": 0.21739099999999212,
            "durationTicks": 192,
            "midi": 68,
            "name": "G#4",
            "ticks": 167634,
            "time": 189.80272340625,
            "velocity": 0.3937007874015748
          },
          {
            "duration": 0.21739099999999212,
            "durationTicks": 192,
            "midi": 80,
            "name": "G#5",
            "ticks": 167634,
            "time": 189.80272340625,
            "velocity": 0.3937007874015748
          },
          {
            "duration": 0.21739099999999212,
            "durationTicks": 192,
            "midi": 73,
            "name": "C#5",
            "ticks": 167634,
            "time": 189.80272340625,
            "velocity": 0.3937007874015748
          },
          {
            "duration": 0.21739099999999212,
            "durationTicks": 192,
            "midi": 54,
            "name": "F#3",
            "ticks": 167634,
            "time": 189.80272340625,
            "velocity": 0.3937007874015748
          },
          {
            "duration": 0.21739099999999212,
            "durationTicks": 192,
            "midi": 63,
            "name": "D#4",
            "ticks": 167634,
            "time": 189.80272340625,
            "velocity": 0.3937007874015748
          },
          {
            "duration": 0.10869549999998185,
            "durationTicks": 96,
            "midi": 75,
            "name": "D#5",
            "ticks": 167634,
            "time": 189.80272340625,
            "velocity": 0.3937007874015748
          },
          {
            "duration": 0.21739099999999212,
            "durationTicks": 192,
            "midi": 58,
            "name": "A#3",
            "ticks": 167634,
            "time": 189.80272340625,
            "velocity": 0.3937007874015748
          },
          {
            "duration": 0.21739099999999212,
            "durationTicks": 192,
            "midi": 85,
            "name": "C#6",
            "ticks": 167634,
            "time": 189.80272340625,
            "velocity": 0.3937007874015748
          },
          {
            "duration": 0.10869550000001027,
            "durationTicks": 96,
            "midi": 39,
            "name": "D#2",
            "ticks": 167730,
            "time": 189.91141890625,
            "velocity": 0.3937007874015748
          },
          {
            "duration": 0.10869550000001027,
            "durationTicks": 96,
            "midi": 51,
            "name": "D#3",
            "ticks": 167730,
            "time": 189.91141890625,
            "velocity": 0.3937007874015748
          },
          {
            "duration": 0.10869550000001027,
            "durationTicks": 96,
            "midi": 78,
            "name": "F#5",
            "ticks": 167730,
            "time": 189.91141890625,
            "velocity": 0.3937007874015748
          },
          {
            "duration": 0.10869550000001027,
            "durationTicks": 96,
            "midi": 39,
            "name": "D#2",
            "ticks": 167826,
            "time": 190.02011440625,
            "velocity": 0.3937007874015748
          },
          {
            "duration": 0.10869550000001027,
            "durationTicks": 96,
            "midi": 27,
            "name": "D#1",
            "ticks": 167826,
            "time": 190.02011440625,
            "velocity": 0.3937007874015748
          },
          {
            "duration": 0.43478200000001266,
            "durationTicks": 384,
            "midi": 82,
            "name": "A#5",
            "ticks": 167826,
            "time": 190.02011440625,
            "velocity": 0.3937007874015748
          },
          {
            "duration": 0.10869550000001027,
            "durationTicks": 96,
            "midi": 51,
            "name": "D#3",
            "ticks": 167826,
            "time": 190.02011440625,
            "velocity": 0.3937007874015748
          },
          {
            "duration": 0.21739099999999212,
            "durationTicks": 192,
            "midi": 34,
            "name": "A#1",
            "ticks": 167826,
            "time": 190.02011440625,
            "velocity": 0.3937007874015748
          },
          {
            "duration": 0.21739099999999212,
            "durationTicks": 192,
            "midi": 54,
            "name": "F#3",
            "ticks": 167826,
            "time": 190.02011440625,
            "velocity": 0.3937007874015748
          },
          {
            "duration": 0.43478200000001266,
            "durationTicks": 384,
            "midi": 78,
            "name": "F#5",
            "ticks": 167826,
            "time": 190.02011440625,
            "velocity": 0.3937007874015748
          },
          {
            "duration": 0.21739099999999212,
            "durationTicks": 192,
            "midi": 63,
            "name": "D#4",
            "ticks": 167826,
            "time": 190.02011440625,
            "velocity": 0.3937007874015748
          },
          {
            "duration": 0.43478200000001266,
            "durationTicks": 384,
            "midi": 66,
            "name": "F#4",
            "ticks": 167826,
            "time": 190.02011440625,
            "velocity": 0.3937007874015748
          },
          {
            "duration": 0.43478200000001266,
            "durationTicks": 384,
            "midi": 70,
            "name": "A#4",
            "ticks": 167826,
            "time": 190.02011440625,
            "velocity": 0.3937007874015748
          },
          {
            "duration": 0.21739099999999212,
            "durationTicks": 192,
            "midi": 58,
            "name": "A#3",
            "ticks": 167826,
            "time": 190.02011440625,
            "velocity": 0.3937007874015748
          },
          {
            "duration": 0.10869549999998185,
            "durationTicks": 96,
            "midi": 54,
            "name": "F#3",
            "ticks": 167922,
            "time": 190.12880990625,
            "velocity": 0.3937007874015748
          },
          {
            "duration": 0.21739100000002054,
            "durationTicks": 192,
            "midi": 63,
            "name": "D#4",
            "ticks": 168018,
            "time": 190.23750540625,
            "velocity": 0.3937007874015748
          },
          {
            "duration": 0.10869550000001027,
            "durationTicks": 96,
            "midi": 39,
            "name": "D#2",
            "ticks": 168018,
            "time": 190.23750540625,
            "velocity": 0.3937007874015748
          },
          {
            "duration": 0.21739100000002054,
            "durationTicks": 192,
            "midi": 54,
            "name": "F#3",
            "ticks": 168018,
            "time": 190.23750540625,
            "velocity": 0.3937007874015748
          },
          {
            "duration": 0.10869550000001027,
            "durationTicks": 96,
            "midi": 51,
            "name": "D#3",
            "ticks": 168018,
            "time": 190.23750540625,
            "velocity": 0.3937007874015748
          },
          {
            "duration": 0.10869550000001027,
            "durationTicks": 96,
            "midi": 58,
            "name": "A#3",
            "ticks": 168018,
            "time": 190.23750540625,
            "velocity": 0.3937007874015748
          },
          {
            "duration": 0.21739100000002054,
            "durationTicks": 192,
            "midi": 58,
            "name": "A#3",
            "ticks": 168018,
            "time": 190.23750540625,
            "velocity": 0.3937007874015748
          },
          {
            "duration": 0.10869550000001027,
            "durationTicks": 96,
            "midi": 51,
            "name": "D#3",
            "ticks": 168114,
            "time": 190.34620090625,
            "velocity": 0.3937007874015748
          },
          {
            "duration": 0.10869550000001027,
            "durationTicks": 96,
            "midi": 63,
            "name": "D#4",
            "ticks": 168114,
            "time": 190.34620090625,
            "velocity": 0.3937007874015748
          },
          {
            "duration": 0.10869550000001027,
            "durationTicks": 96,
            "midi": 39,
            "name": "D#2",
            "ticks": 168114,
            "time": 190.34620090625,
            "velocity": 0.3937007874015748
          },
          {
            "duration": 0.21739099999999212,
            "durationTicks": 192,
            "midi": 63,
            "name": "D#4",
            "ticks": 168210,
            "time": 190.45489640625001,
            "velocity": 0.3937007874015748
          },
          {
            "duration": 0.32608649999997397,
            "durationTicks": 288,
            "midi": 75,
            "name": "D#5",
            "ticks": 168210,
            "time": 190.45489640625001,
            "velocity": 0.3937007874015748
          },
          {
            "duration": 0.21739099999999212,
            "durationTicks": 192,
            "midi": 54,
            "name": "F#3",
            "ticks": 168210,
            "time": 190.45489640625001,
            "velocity": 0.3937007874015748
          },
          {
            "duration": 0.21739099999999212,
            "durationTicks": 192,
            "midi": 34,
            "name": "A#1",
            "ticks": 168210,
            "time": 190.45489640625001,
            "velocity": 0.3937007874015748
          },
          {
            "duration": 0.43478199999998424,
            "durationTicks": 384,
            "midi": 63,
            "name": "D#4",
            "ticks": 168210,
            "time": 190.45489640625001,
            "velocity": 0.3937007874015748
          },
          {
            "duration": 0.21739099999999212,
            "durationTicks": 192,
            "midi": 70,
            "name": "A#4",
            "ticks": 168210,
            "time": 190.45489640625001,
            "velocity": 0.3937007874015748
          },
          {
            "duration": 0.21739099999999212,
            "durationTicks": 192,
            "midi": 58,
            "name": "A#3",
            "ticks": 168210,
            "time": 190.45489640625001,
            "velocity": 0.3937007874015748
          },
          {
            "duration": 0.10869549999998185,
            "durationTicks": 96,
            "midi": 39,
            "name": "D#2",
            "ticks": 168210,
            "time": 190.45489640625001,
            "velocity": 0.3937007874015748
          },
          {
            "duration": 0.10869549999998185,
            "durationTicks": 96,
            "midi": 27,
            "name": "D#1",
            "ticks": 168210,
            "time": 190.45489640625001,
            "velocity": 0.3937007874015748
          },
          {
            "duration": 0.43478199999998424,
            "durationTicks": 384,
            "midi": 58,
            "name": "A#3",
            "ticks": 168210,
            "time": 190.45489640625001,
            "velocity": 0.3937007874015748
          },
          {
            "duration": 0.10869549999998185,
            "durationTicks": 96,
            "midi": 66,
            "name": "F#4",
            "ticks": 168210,
            "time": 190.45489640625001,
            "velocity": 0.3937007874015748
          },
          {
            "duration": 0.10869550000001027,
            "durationTicks": 96,
            "midi": 51,
            "name": "D#3",
            "ticks": 168306,
            "time": 190.56359190625,
            "velocity": 0.3937007874015748
          },
          {
            "duration": 0.10869550000001027,
            "durationTicks": 96,
            "midi": 39,
            "name": "D#2",
            "ticks": 168306,
            "time": 190.56359190625,
            "velocity": 0.3937007874015748
          },
          {
            "duration": 0.3260865000000024,
            "durationTicks": 288,
            "midi": 70,
            "name": "A#4",
            "ticks": 168306,
            "time": 190.56359190625,
            "velocity": 0.3937007874015748
          },
          {
            "duration": 0.21739099999999212,
            "durationTicks": 192,
            "midi": 63,
            "name": "D#4",
            "ticks": 168402,
            "time": 190.67228740625,
            "velocity": 0.3937007874015748
          },
          {
            "duration": 0.10869549999998185,
            "durationTicks": 96,
            "midi": 49,
            "name": "C#3",
            "ticks": 168402,
            "time": 190.67228740625,
            "velocity": 0.3937007874015748
          },
          {
            "duration": 0.21739099999999212,
            "durationTicks": 192,
            "midi": 75,
            "name": "D#5",
            "ticks": 168402,
            "time": 190.67228740625,
            "velocity": 0.3937007874015748
          },
          {
            "duration": 0.10869549999998185,
            "durationTicks": 96,
            "midi": 37,
            "name": "C#2",
            "ticks": 168402,
            "time": 190.67228740625,
            "velocity": 0.3937007874015748
          },
          {
            "duration": 0.21739099999999212,
            "durationTicks": 192,
            "midi": 58,
            "name": "A#3",
            "ticks": 168402,
            "time": 190.67228740625,
            "velocity": 0.3937007874015748
          },
          {
            "duration": 0.21739099999999212,
            "durationTicks": 192,
            "midi": 54,
            "name": "F#3",
            "ticks": 168402,
            "time": 190.67228740625,
            "velocity": 0.3937007874015748
          },
          {
            "duration": 0.10869550000001027,
            "durationTicks": 96,
            "midi": 51,
            "name": "D#3",
            "ticks": 168498,
            "time": 190.78098290625,
            "velocity": 0.3937007874015748
          },
          {
            "duration": 0.10869550000001027,
            "durationTicks": 96,
            "midi": 78,
            "name": "F#5",
            "ticks": 168498,
            "time": 190.78098290625,
            "velocity": 0.3937007874015748
          },
          {
            "duration": 0.10869550000001027,
            "durationTicks": 96,
            "midi": 39,
            "name": "D#2",
            "ticks": 168498,
            "time": 190.78098290625,
            "velocity": 0.3937007874015748
          },
          {
            "duration": 0.10869550000001027,
            "durationTicks": 96,
            "midi": 51,
            "name": "D#3",
            "ticks": 168594,
            "time": 190.88967840625,
            "velocity": 0.3937007874015748
          },
          {
            "duration": 0.21739099999999212,
            "durationTicks": 192,
            "midi": 63,
            "name": "D#4",
            "ticks": 168594,
            "time": 190.88967840625,
            "velocity": 0.3937007874015748
          },
          {
            "duration": 0.21739099999999212,
            "durationTicks": 192,
            "midi": 66,
            "name": "F#4",
            "ticks": 168594,
            "time": 190.88967840625,
            "velocity": 0.3937007874015748
          },
          {
            "duration": 0.10869550000001027,
            "durationTicks": 96,
            "midi": 54,
            "name": "F#3",
            "ticks": 168594,
            "time": 190.88967840625,
            "velocity": 0.3937007874015748
          },
          {
            "duration": 0.21739099999999212,
            "durationTicks": 192,
            "midi": 34,
            "name": "A#1",
            "ticks": 168594,
            "time": 190.88967840625,
            "velocity": 0.3937007874015748
          },
          {
            "duration": 0.21739099999999212,
            "durationTicks": 192,
            "midi": 58,
            "name": "A#3",
            "ticks": 168594,
            "time": 190.88967840625,
            "velocity": 0.3937007874015748
          },
          {
            "duration": 0.21739099999999212,
            "durationTicks": 192,
            "midi": 82,
            "name": "A#5",
            "ticks": 168594,
            "time": 190.88967840625,
            "velocity": 0.3937007874015748
          },
          {
            "duration": 0.21739099999999212,
            "durationTicks": 192,
            "midi": 78,
            "name": "F#5",
            "ticks": 168594,
            "time": 190.88967840625,
            "velocity": 0.3937007874015748
          },
          {
            "duration": 0.21739099999999212,
            "durationTicks": 192,
            "midi": 70,
            "name": "A#4",
            "ticks": 168594,
            "time": 190.88967840625,
            "velocity": 0.3937007874015748
          },
          {
            "duration": 0.10869550000001027,
            "durationTicks": 96,
            "midi": 42,
            "name": "F#2",
            "ticks": 168594,
            "time": 190.88967840625,
            "velocity": 0.3937007874015748
          },
          {
            "duration": 0.21739099999999212,
            "durationTicks": 192,
            "midi": 54,
            "name": "F#3",
            "ticks": 168594,
            "time": 190.88967840625,
            "velocity": 0.3937007874015748
          },
          {
            "duration": 0.10869549999998185,
            "durationTicks": 96,
            "midi": 54,
            "name": "F#3",
            "ticks": 168690,
            "time": 190.99837390625,
            "velocity": 0.3937007874015748
          },
          {
            "duration": 0.10869550000001027,
            "durationTicks": 96,
            "midi": 39,
            "name": "D#2",
            "ticks": 168786,
            "time": 191.10706940625,
            "velocity": 0.3937007874015748
          },
          {
            "duration": 0.10869550000001027,
            "durationTicks": 96,
            "midi": 51,
            "name": "D#3",
            "ticks": 168786,
            "time": 191.10706940625,
            "velocity": 0.3937007874015748
          },
          {
            "duration": 0.21739100000002054,
            "durationTicks": 192,
            "midi": 77,
            "name": "F5",
            "ticks": 168786,
            "time": 191.10706940625,
            "velocity": 0.3937007874015748
          },
          {
            "duration": 0.10869550000001027,
            "durationTicks": 96,
            "midi": 58,
            "name": "A#3",
            "ticks": 168786,
            "time": 191.10706940625,
            "velocity": 0.3937007874015748
          },
          {
            "duration": 0.21739100000002054,
            "durationTicks": 192,
            "midi": 54,
            "name": "F#3",
            "ticks": 168786,
            "time": 191.10706940625,
            "velocity": 0.3937007874015748
          },
          {
            "duration": 0.21739100000002054,
            "durationTicks": 192,
            "midi": 80,
            "name": "G#5",
            "ticks": 168786,
            "time": 191.10706940625,
            "velocity": 0.3937007874015748
          },
          {
            "duration": 0.21739100000002054,
            "durationTicks": 192,
            "midi": 58,
            "name": "A#3",
            "ticks": 168786,
            "time": 191.10706940625,
            "velocity": 0.3937007874015748
          },
          {
            "duration": 0.21739100000002054,
            "durationTicks": 192,
            "midi": 65,
            "name": "F4",
            "ticks": 168786,
            "time": 191.10706940625,
            "velocity": 0.3937007874015748
          },
          {
            "duration": 0.21739100000002054,
            "durationTicks": 192,
            "midi": 68,
            "name": "G#4",
            "ticks": 168786,
            "time": 191.10706940625,
            "velocity": 0.3937007874015748
          },
          {
            "duration": 0.21739100000002054,
            "durationTicks": 192,
            "midi": 63,
            "name": "D#4",
            "ticks": 168786,
            "time": 191.10706940625,
            "velocity": 0.3937007874015748
          },
          {
            "duration": 0.10869550000001027,
            "durationTicks": 96,
            "midi": 63,
            "name": "D#4",
            "ticks": 168882,
            "time": 191.21576490625,
            "velocity": 0.3937007874015748
          },
          {
            "duration": 0.10869550000001027,
            "durationTicks": 96,
            "midi": 42,
            "name": "F#2",
            "ticks": 168882,
            "time": 191.21576490625,
            "velocity": 0.3937007874015748
          },
          {
            "duration": 0.10869550000001027,
            "durationTicks": 96,
            "midi": 54,
            "name": "F#3",
            "ticks": 168882,
            "time": 191.21576490625,
            "velocity": 0.3937007874015748
          },
          {
            "duration": 0.10869549999998185,
            "durationTicks": 96,
            "midi": 66,
            "name": "F#4",
            "ticks": 168978,
            "time": 191.32446040625,
            "velocity": 0.3937007874015748
          },
          {
            "duration": 0.21739099999999212,
            "durationTicks": 192,
            "midi": 78,
            "name": "F#5",
            "ticks": 168978,
            "time": 191.32446040625,
            "velocity": 0.3937007874015748
          },
          {
            "duration": 0.21739099999999212,
            "durationTicks": 192,
            "midi": 54,
            "name": "F#3",
            "ticks": 168978,
            "time": 191.32446040625,
            "velocity": 0.3937007874015748
          },
          {
            "duration": 0.21739099999999212,
            "durationTicks": 192,
            "midi": 66,
            "name": "F#4",
            "ticks": 168978,
            "time": 191.32446040625,
            "velocity": 0.3937007874015748
          },
          {
            "duration": 0.21739099999999212,
            "durationTicks": 192,
            "midi": 34,
            "name": "A#1",
            "ticks": 168978,
            "time": 191.32446040625,
            "velocity": 0.3937007874015748
          },
          {
            "duration": 0.21739099999999212,
            "durationTicks": 192,
            "midi": 75,
            "name": "D#5",
            "ticks": 168978,
            "time": 191.32446040625,
            "velocity": 0.3937007874015748
          },
          {
            "duration": 0.10869549999998185,
            "durationTicks": 96,
            "midi": 56,
            "name": "G#3",
            "ticks": 168978,
            "time": 191.32446040625,
            "velocity": 0.3937007874015748
          },
          {
            "duration": 0.10869549999998185,
            "durationTicks": 96,
            "midi": 44,
            "name": "G#2",
            "ticks": 168978,
            "time": 191.32446040625,
            "velocity": 0.3937007874015748
          },
          {
            "duration": 0.21739099999999212,
            "durationTicks": 192,
            "midi": 63,
            "name": "D#4",
            "ticks": 168978,
            "time": 191.32446040625,
            "velocity": 0.3937007874015748
          },
          {
            "duration": 0.21739099999999212,
            "durationTicks": 192,
            "midi": 63,
            "name": "D#4",
            "ticks": 168978,
            "time": 191.32446040625,
            "velocity": 0.3937007874015748
          },
          {
            "duration": 0.21739099999999212,
            "durationTicks": 192,
            "midi": 58,
            "name": "A#3",
            "ticks": 168978,
            "time": 191.32446040625,
            "velocity": 0.3937007874015748
          },
          {
            "duration": 0.10869550000001027,
            "durationTicks": 96,
            "midi": 70,
            "name": "A#4",
            "ticks": 169074,
            "time": 191.43315590625,
            "velocity": 0.3937007874015748
          },
          {
            "duration": 0.10869550000001027,
            "durationTicks": 96,
            "midi": 42,
            "name": "F#2",
            "ticks": 169170,
            "time": 191.54185140625,
            "velocity": 0.3937007874015748
          },
          {
            "duration": 0.21739099999999212,
            "durationTicks": 192,
            "midi": 73,
            "name": "C#5",
            "ticks": 169170,
            "time": 191.54185140625,
            "velocity": 0.3937007874015748
          },
          {
            "duration": 0.21739099999999212,
            "durationTicks": 192,
            "midi": 65,
            "name": "F4",
            "ticks": 169170,
            "time": 191.54185140625,
            "velocity": 0.3937007874015748
          },
          {
            "duration": 0.10869550000001027,
            "durationTicks": 96,
            "midi": 54,
            "name": "F#3",
            "ticks": 169170,
            "time": 191.54185140625,
            "velocity": 0.3937007874015748
          },
          {
            "duration": 0.21739099999999212,
            "durationTicks": 192,
            "midi": 63,
            "name": "D#4",
            "ticks": 169170,
            "time": 191.54185140625,
            "velocity": 0.3937007874015748
          },
          {
            "duration": 0.21739099999999212,
            "durationTicks": 192,
            "midi": 61,
            "name": "C#4",
            "ticks": 169170,
            "time": 191.54185140625,
            "velocity": 0.3937007874015748
          },
          {
            "duration": 0.10869550000001027,
            "durationTicks": 96,
            "midi": 75,
            "name": "D#5",
            "ticks": 169170,
            "time": 191.54185140625,
            "velocity": 0.3937007874015748
          },
          {
            "duration": 0.21739099999999212,
            "durationTicks": 192,
            "midi": 77,
            "name": "F5",
            "ticks": 169170,
            "time": 191.54185140625,
            "velocity": 0.3937007874015748
          },
          {
            "duration": 0.21739099999999212,
            "durationTicks": 192,
            "midi": 54,
            "name": "F#3",
            "ticks": 169170,
            "time": 191.54185140625,
            "velocity": 0.3937007874015748
          },
          {
            "duration": 0.21739099999999212,
            "durationTicks": 192,
            "midi": 34,
            "name": "A#1",
            "ticks": 169170,
            "time": 191.54185140625,
            "velocity": 0.3937007874015748
          },
          {
            "duration": 0.21739099999999212,
            "durationTicks": 192,
            "midi": 58,
            "name": "A#3",
            "ticks": 169170,
            "time": 191.54185140625,
            "velocity": 0.3937007874015748
          },
          {
            "duration": 0.10869549999998185,
            "durationTicks": 96,
            "midi": 44,
            "name": "G#2",
            "ticks": 169266,
            "time": 191.65054690625,
            "velocity": 0.3937007874015748
          },
          {
            "duration": 0.10869549999998185,
            "durationTicks": 96,
            "midi": 78,
            "name": "F#5",
            "ticks": 169266,
            "time": 191.65054690625,
            "velocity": 0.3937007874015748
          },
          {
            "duration": 0.10869549999998185,
            "durationTicks": 96,
            "midi": 56,
            "name": "G#3",
            "ticks": 169266,
            "time": 191.65054690625,
            "velocity": 0.3937007874015748
          },
          {
            "duration": 0.21739099999999212,
            "durationTicks": 192,
            "midi": 58,
            "name": "A#3",
            "ticks": 169362,
            "time": 191.75924240625,
            "velocity": 0.3937007874015748
          },
          {
            "duration": 0.10869550000001027,
            "durationTicks": 96,
            "midi": 51,
            "name": "D#3",
            "ticks": 169362,
            "time": 191.75924240625,
            "velocity": 0.3937007874015748
          },
          {
            "duration": 0.21739099999999212,
            "durationTicks": 192,
            "midi": 54,
            "name": "F#3",
            "ticks": 169362,
            "time": 191.75924240625,
            "velocity": 0.3937007874015748
          },
          {
            "duration": 0.21739099999999212,
            "durationTicks": 192,
            "midi": 63,
            "name": "D#4",
            "ticks": 169362,
            "time": 191.75924240625,
            "velocity": 0.3937007874015748
          },
          {
            "duration": 0.21739099999999212,
            "durationTicks": 192,
            "midi": 63,
            "name": "D#4",
            "ticks": 169362,
            "time": 191.75924240625,
            "velocity": 0.3937007874015748
          },
          {
            "duration": 0.21739099999999212,
            "durationTicks": 192,
            "midi": 34,
            "name": "A#1",
            "ticks": 169362,
            "time": 191.75924240625,
            "velocity": 0.3937007874015748
          },
          {
            "duration": 0.21739099999999212,
            "durationTicks": 192,
            "midi": 59,
            "name": "B3",
            "ticks": 169362,
            "time": 191.75924240625,
            "velocity": 0.3937007874015748
          },
          {
            "duration": 0.10869550000001027,
            "durationTicks": 96,
            "midi": 35,
            "name": "B1",
            "ticks": 169362,
            "time": 191.75924240625,
            "velocity": 0.3937007874015748
          },
          {
            "duration": 0.10869550000001027,
            "durationTicks": 96,
            "midi": 35,
            "name": "B1",
            "ticks": 169362,
            "time": 191.75924240625,
            "velocity": 0.3937007874015748
          },
          {
            "duration": 0.21739099999999212,
            "durationTicks": 192,
            "midi": 75,
            "name": "D#5",
            "ticks": 169362,
            "time": 191.75924240625,
            "velocity": 0.3937007874015748
          },
          {
            "duration": 0.21739099999999212,
            "durationTicks": 192,
            "midi": 70,
            "name": "A#4",
            "ticks": 169362,
            "time": 191.75924240625,
            "velocity": 0.3937007874015748
          },
          {
            "duration": 0.10869549999998185,
            "durationTicks": 96,
            "midi": 54,
            "name": "F#3",
            "ticks": 169458,
            "time": 191.86793790625,
            "velocity": 0.3937007874015748
          },
          {
            "duration": 0.21739100000002054,
            "durationTicks": 192,
            "midi": 54,
            "name": "F#3",
            "ticks": 169554,
            "time": 191.97663340625,
            "velocity": 0.3937007874015748
          },
          {
            "duration": 0.21739100000002054,
            "durationTicks": 192,
            "midi": 63,
            "name": "D#4",
            "ticks": 169554,
            "time": 191.97663340625,
            "velocity": 0.3937007874015748
          },
          {
            "duration": 0.21739100000002054,
            "durationTicks": 192,
            "midi": 73,
            "name": "C#5",
            "ticks": 169554,
            "time": 191.97663340625,
            "velocity": 0.3937007874015748
          },
          {
            "duration": 0.21739100000002054,
            "durationTicks": 192,
            "midi": 65,
            "name": "F4",
            "ticks": 169554,
            "time": 191.97663340625,
            "velocity": 0.3937007874015748
          },
          {
            "duration": 0.21739100000002054,
            "durationTicks": 192,
            "midi": 77,
            "name": "F5",
            "ticks": 169554,
            "time": 191.97663340625,
            "velocity": 0.3937007874015748
          },
          {
            "duration": 0.21739100000002054,
            "durationTicks": 192,
            "midi": 61,
            "name": "C#4",
            "ticks": 169554,
            "time": 191.97663340625,
            "velocity": 0.3937007874015748
          },
          {
            "duration": 0.10869550000001027,
            "durationTicks": 96,
            "midi": 59,
            "name": "B3",
            "ticks": 169554,
            "time": 191.97663340625,
            "velocity": 0.3937007874015748
          },
          {
            "duration": 0.10869550000001027,
            "durationTicks": 96,
            "midi": 35,
            "name": "B1",
            "ticks": 169554,
            "time": 191.97663340625,
            "velocity": 0.3937007874015748
          },
          {
            "duration": 0.10869550000001027,
            "durationTicks": 96,
            "midi": 47,
            "name": "B2",
            "ticks": 169554,
            "time": 191.97663340625,
            "velocity": 0.3937007874015748
          },
          {
            "duration": 0.21739100000002054,
            "durationTicks": 192,
            "midi": 59,
            "name": "B3",
            "ticks": 169554,
            "time": 191.97663340625,
            "velocity": 0.3937007874015748
          },
          {
            "duration": 0.10869550000001027,
            "durationTicks": 96,
            "midi": 47,
            "name": "B2",
            "ticks": 169650,
            "time": 192.08532890625,
            "velocity": 0.3937007874015748
          },
          {
            "duration": 0.10869550000001027,
            "durationTicks": 96,
            "midi": 35,
            "name": "B1",
            "ticks": 169650,
            "time": 192.08532890625,
            "velocity": 0.3937007874015748
          },
          {
            "duration": 0.10869550000001027,
            "durationTicks": 96,
            "midi": 63,
            "name": "D#4",
            "ticks": 169650,
            "time": 192.08532890625,
            "velocity": 0.3937007874015748
          },
          {
            "duration": 0.10869549999998185,
            "durationTicks": 96,
            "midi": 35,
            "name": "B1",
            "ticks": 169746,
            "time": 192.19402440625,
            "velocity": 0.3937007874015748
          },
          {
            "duration": 0.10869549999998185,
            "durationTicks": 96,
            "midi": 35,
            "name": "B1",
            "ticks": 169746,
            "time": 192.19402440625,
            "velocity": 0.3937007874015748
          },
          {
            "duration": 0.10869549999998185,
            "durationTicks": 96,
            "midi": 66,
            "name": "F#4",
            "ticks": 169746,
            "time": 192.19402440625,
            "velocity": 0.3937007874015748
          },
          {
            "duration": 0.21739099999999212,
            "durationTicks": 192,
            "midi": 63,
            "name": "D#4",
            "ticks": 169746,
            "time": 192.19402440625,
            "velocity": 0.3937007874015748
          },
          {
            "duration": 0.21739099999999212,
            "durationTicks": 192,
            "midi": 34,
            "name": "A#1",
            "ticks": 169746,
            "time": 192.19402440625,
            "velocity": 0.3937007874015748
          },
          {
            "duration": 0.21739099999999212,
            "durationTicks": 192,
            "midi": 78,
            "name": "F#5",
            "ticks": 169746,
            "time": 192.19402440625,
            "velocity": 0.3937007874015748
          },
          {
            "duration": 0.21739099999999212,
            "durationTicks": 192,
            "midi": 66,
            "name": "F#4",
            "ticks": 169746,
            "time": 192.19402440625,
            "velocity": 0.3937007874015748
          },
          {
            "duration": 0.21739099999999212,
            "durationTicks": 192,
            "midi": 63,
            "name": "D#4",
            "ticks": 169746,
            "time": 192.19402440625,
            "velocity": 0.3937007874015748
          },
          {
            "duration": 0.21739099999999212,
            "durationTicks": 192,
            "midi": 59,
            "name": "B3",
            "ticks": 169746,
            "time": 192.19402440625,
            "velocity": 0.3937007874015748
          },
          {
            "duration": 0.21739099999999212,
            "durationTicks": 192,
            "midi": 54,
            "name": "F#3",
            "ticks": 169746,
            "time": 192.19402440625,
            "velocity": 0.3937007874015748
          },
          {
            "duration": 0.21739099999999212,
            "durationTicks": 192,
            "midi": 75,
            "name": "D#5",
            "ticks": 169746,
            "time": 192.19402440625,
            "velocity": 0.3937007874015748
          },
          {
            "duration": 0.10869550000001027,
            "durationTicks": 96,
            "midi": 47,
            "name": "B2",
            "ticks": 169842,
            "time": 192.30271990625,
            "velocity": 0.3937007874015748
          },
          {
            "duration": 0.10869550000001027,
            "durationTicks": 96,
            "midi": 71,
            "name": "B4",
            "ticks": 169842,
            "time": 192.30271990625,
            "velocity": 0.3937007874015748
          },
          {
            "duration": 0.10869550000001027,
            "durationTicks": 96,
            "midi": 35,
            "name": "B1",
            "ticks": 169842,
            "time": 192.30271990625,
            "velocity": 0.3937007874015748
          },
          {
            "duration": 0.10869550000001027,
            "durationTicks": 96,
            "midi": 34,
            "name": "A#1",
            "ticks": 169938,
            "time": 192.41141540625,
            "velocity": 0.3937007874015748
          },
          {
            "duration": 0.10869550000001027,
            "durationTicks": 96,
            "midi": 46,
            "name": "A#2",
            "ticks": 169938,
            "time": 192.41141540625,
            "velocity": 0.3937007874015748
          },
          {
            "duration": 0.21739099999999212,
            "durationTicks": 192,
            "midi": 77,
            "name": "F5",
            "ticks": 169938,
            "time": 192.41141540625,
            "velocity": 0.3937007874015748
          },
          {
            "duration": 0.21739099999999212,
            "durationTicks": 192,
            "midi": 54,
            "name": "F#3",
            "ticks": 169938,
            "time": 192.41141540625,
            "velocity": 0.3937007874015748
          },
          {
            "duration": 0.21739099999999212,
            "durationTicks": 192,
            "midi": 59,
            "name": "B3",
            "ticks": 169938,
            "time": 192.41141540625,
            "velocity": 0.3937007874015748
          },
          {
            "duration": 0.21739099999999212,
            "durationTicks": 192,
            "midi": 68,
            "name": "G#4",
            "ticks": 169938,
            "time": 192.41141540625,
            "velocity": 0.3937007874015748
          },
          {
            "duration": 0.21739099999999212,
            "durationTicks": 192,
            "midi": 80,
            "name": "G#5",
            "ticks": 169938,
            "time": 192.41141540625,
            "velocity": 0.3937007874015748
          },
          {
            "duration": 0.10869550000001027,
            "durationTicks": 96,
            "midi": 75,
            "name": "D#5",
            "ticks": 169938,
            "time": 192.41141540625,
            "velocity": 0.3937007874015748
          },
          {
            "duration": 0.21739099999999212,
            "durationTicks": 192,
            "midi": 65,
            "name": "F4",
            "ticks": 169938,
            "time": 192.41141540625,
            "velocity": 0.3937007874015748
          },
          {
            "duration": 0.21739099999999212,
            "durationTicks": 192,
            "midi": 63,
            "name": "D#4",
            "ticks": 169938,
            "time": 192.41141540625,
            "velocity": 0.3937007874015748
          },
          {
            "duration": 0.10869549999998185,
            "durationTicks": 96,
            "midi": 47,
            "name": "B2",
            "ticks": 170034,
            "time": 192.52011090625,
            "velocity": 0.3937007874015748
          },
          {
            "duration": 0.10869549999998185,
            "durationTicks": 96,
            "midi": 35,
            "name": "B1",
            "ticks": 170034,
            "time": 192.52011090625,
            "velocity": 0.3937007874015748
          },
          {
            "duration": 0.10869549999998185,
            "durationTicks": 96,
            "midi": 78,
            "name": "F#5",
            "ticks": 170034,
            "time": 192.52011090625,
            "velocity": 0.3937007874015748
          },
          {
            "duration": 0.21739100000002054,
            "durationTicks": 192,
            "midi": 34,
            "name": "A#1",
            "ticks": 170130,
            "time": 192.62880640625,
            "velocity": 0.3937007874015748
          },
          {
            "duration": 0.21739100000002054,
            "durationTicks": 192,
            "midi": 78,
            "name": "F#5",
            "ticks": 170130,
            "time": 192.62880640625,
            "velocity": 0.3937007874015748
          },
          {
            "duration": 0.21739100000002054,
            "durationTicks": 192,
            "midi": 63,
            "name": "D#4",
            "ticks": 170130,
            "time": 192.62880640625,
            "velocity": 0.3937007874015748
          },
          {
            "duration": 0.21739100000002054,
            "durationTicks": 192,
            "midi": 70,
            "name": "A#4",
            "ticks": 170130,
            "time": 192.62880640625,
            "velocity": 0.3937007874015748
          },
          {
            "duration": 0.10869550000001027,
            "durationTicks": 96,
            "midi": 35,
            "name": "B1",
            "ticks": 170130,
            "time": 192.62880640625,
            "velocity": 0.3937007874015748
          },
          {
            "duration": 0.10869550000001027,
            "durationTicks": 96,
            "midi": 51,
            "name": "D#3",
            "ticks": 170130,
            "time": 192.62880640625,
            "velocity": 0.3937007874015748
          },
          {
            "duration": 0.21739100000002054,
            "durationTicks": 192,
            "midi": 59,
            "name": "B3",
            "ticks": 170130,
            "time": 192.62880640625,
            "velocity": 0.3937007874015748
          },
          {
            "duration": 0.10869550000001027,
            "durationTicks": 96,
            "midi": 35,
            "name": "B1",
            "ticks": 170130,
            "time": 192.62880640625,
            "velocity": 0.3937007874015748
          },
          {
            "duration": 0.21739100000002054,
            "durationTicks": 192,
            "midi": 54,
            "name": "F#3",
            "ticks": 170130,
            "time": 192.62880640625,
            "velocity": 0.3937007874015748
          },
          {
            "duration": 0.21739100000002054,
            "durationTicks": 192,
            "midi": 66,
            "name": "F#4",
            "ticks": 170130,
            "time": 192.62880640625,
            "velocity": 0.3937007874015748
          },
          {
            "duration": 0.21739100000002054,
            "durationTicks": 192,
            "midi": 82,
            "name": "A#5",
            "ticks": 170130,
            "time": 192.62880640625,
            "velocity": 0.3937007874015748
          },
          {
            "duration": 0.10869550000001027,
            "durationTicks": 96,
            "midi": 54,
            "name": "F#3",
            "ticks": 170226,
            "time": 192.73750190625,
            "velocity": 0.3937007874015748
          },
          {
            "duration": 0.10869549999998185,
            "durationTicks": 96,
            "midi": 59,
            "name": "B3",
            "ticks": 170322,
            "time": 192.84619740625,
            "velocity": 0.3937007874015748
          },
          {
            "duration": 0.10869549999998185,
            "durationTicks": 96,
            "midi": 47,
            "name": "B2",
            "ticks": 170322,
            "time": 192.84619740625,
            "velocity": 0.3937007874015748
          },
          {
            "duration": 0.10869549999998185,
            "durationTicks": 96,
            "midi": 35,
            "name": "B1",
            "ticks": 170322,
            "time": 192.84619740625,
            "velocity": 0.3937007874015748
          },
          {
            "duration": 0.21739099999999212,
            "durationTicks": 192,
            "midi": 63,
            "name": "D#4",
            "ticks": 170322,
            "time": 192.84619740625,
            "velocity": 0.3937007874015748
          },
          {
            "duration": 0.21739099999999212,
            "durationTicks": 192,
            "midi": 59,
            "name": "B3",
            "ticks": 170322,
            "time": 192.84619740625,
            "velocity": 0.3937007874015748
          },
          {
            "duration": 0.21739099999999212,
            "durationTicks": 192,
            "midi": 54,
            "name": "F#3",
            "ticks": 170322,
            "time": 192.84619740625,
            "velocity": 0.3937007874015748
          },
          {
            "duration": 0.10869550000001027,
            "durationTicks": 96,
            "midi": 63,
            "name": "D#4",
            "ticks": 170418,
            "time": 192.95489290625,
            "velocity": 0.3937007874015748
          },
          {
            "duration": 0.10869550000001027,
            "durationTicks": 96,
            "midi": 35,
            "name": "B1",
            "ticks": 170418,
            "time": 192.95489290625,
            "velocity": 0.3937007874015748
          },
          {
            "duration": 0.10869550000001027,
            "durationTicks": 96,
            "midi": 47,
            "name": "B2",
            "ticks": 170418,
            "time": 192.95489290625,
            "velocity": 0.3937007874015748
          },
          {
            "duration": 0.10869549999998185,
            "durationTicks": 96,
            "midi": 35,
            "name": "B1",
            "ticks": 170514,
            "time": 193.06358840625,
            "velocity": 0.3937007874015748
          },
          {
            "duration": 0.10869549999998185,
            "durationTicks": 96,
            "midi": 35,
            "name": "B1",
            "ticks": 170514,
            "time": 193.06358840625,
            "velocity": 0.3937007874015748
          },
          {
            "duration": 0.21739099999999212,
            "durationTicks": 192,
            "midi": 80,
            "name": "G#5",
            "ticks": 170514,
            "time": 193.06358840625,
            "velocity": 0.3937007874015748
          },
          {
            "duration": 0.21739099999999212,
            "durationTicks": 192,
            "midi": 65,
            "name": "F4",
            "ticks": 170514,
            "time": 193.06358840625,
            "velocity": 0.3937007874015748
          },
          {
            "duration": 0.21739099999999212,
            "durationTicks": 192,
            "midi": 63,
            "name": "D#4",
            "ticks": 170514,
            "time": 193.06358840625,
            "velocity": 0.3937007874015748
          },
          {
            "duration": 0.21739099999999212,
            "durationTicks": 192,
            "midi": 34,
            "name": "A#1",
            "ticks": 170514,
            "time": 193.06358840625,
            "velocity": 0.3937007874015748
          },
          {
            "duration": 0.10869549999998185,
            "durationTicks": 96,
            "midi": 66,
            "name": "F#4",
            "ticks": 170514,
            "time": 193.06358840625,
            "velocity": 0.3937007874015748
          },
          {
            "duration": 0.21739099999999212,
            "durationTicks": 192,
            "midi": 59,
            "name": "B3",
            "ticks": 170514,
            "time": 193.06358840625,
            "velocity": 0.3937007874015748
          },
          {
            "duration": 0.21739099999999212,
            "durationTicks": 192,
            "midi": 77,
            "name": "F5",
            "ticks": 170514,
            "time": 193.06358840625,
            "velocity": 0.3937007874015748
          },
          {
            "duration": 0.21739099999999212,
            "durationTicks": 192,
            "midi": 54,
            "name": "F#3",
            "ticks": 170514,
            "time": 193.06358840625,
            "velocity": 0.3937007874015748
          },
          {
            "duration": 0.21739099999999212,
            "durationTicks": 192,
            "midi": 68,
            "name": "G#4",
            "ticks": 170514,
            "time": 193.06358840625,
            "velocity": 0.3937007874015748
          },
          {
            "duration": 0.10869550000001027,
            "durationTicks": 96,
            "midi": 71,
            "name": "B4",
            "ticks": 170610,
            "time": 193.17228390625,
            "velocity": 0.3937007874015748
          },
          {
            "duration": 0.10869550000001027,
            "durationTicks": 96,
            "midi": 35,
            "name": "B1",
            "ticks": 170610,
            "time": 193.17228390625,
            "velocity": 0.3937007874015748
          },
          {
            "duration": 0.10869550000001027,
            "durationTicks": 96,
            "midi": 47,
            "name": "B2",
            "ticks": 170610,
            "time": 193.17228390625,
            "velocity": 0.3937007874015748
          },
          {
            "duration": 0.10869550000001027,
            "durationTicks": 96,
            "midi": 75,
            "name": "D#5",
            "ticks": 170706,
            "time": 193.28097940625,
            "velocity": 0.3937007874015748
          },
          {
            "duration": 0.21739099999999212,
            "durationTicks": 192,
            "midi": 75,
            "name": "D#5",
            "ticks": 170706,
            "time": 193.28097940625,
            "velocity": 0.3937007874015748
          },
          {
            "duration": 0.21739099999999212,
            "durationTicks": 192,
            "midi": 66,
            "name": "F#4",
            "ticks": 170706,
            "time": 193.28097940625,
            "velocity": 0.3937007874015748
          },
          {
            "duration": 0.21739099999999212,
            "durationTicks": 192,
            "midi": 59,
            "name": "B3",
            "ticks": 170706,
            "time": 193.28097940625,
            "velocity": 0.3937007874015748
          },
          {
            "duration": 0.21739099999999212,
            "durationTicks": 192,
            "midi": 63,
            "name": "D#4",
            "ticks": 170706,
            "time": 193.28097940625,
            "velocity": 0.3937007874015748
          },
          {
            "duration": 0.21739099999999212,
            "durationTicks": 192,
            "midi": 78,
            "name": "F#5",
            "ticks": 170706,
            "time": 193.28097940625,
            "velocity": 0.3937007874015748
          },
          {
            "duration": 0.10869550000001027,
            "durationTicks": 96,
            "midi": 34,
            "name": "A#1",
            "ticks": 170706,
            "time": 193.28097940625,
            "velocity": 0.3937007874015748
          },
          {
            "duration": 0.21739099999999212,
            "durationTicks": 192,
            "midi": 63,
            "name": "D#4",
            "ticks": 170706,
            "time": 193.28097940625,
            "velocity": 0.3937007874015748
          },
          {
            "duration": 0.21739099999999212,
            "durationTicks": 192,
            "midi": 54,
            "name": "F#3",
            "ticks": 170706,
            "time": 193.28097940625,
            "velocity": 0.3937007874015748
          },
          {
            "duration": 0.10869550000001027,
            "durationTicks": 96,
            "midi": 46,
            "name": "A#2",
            "ticks": 170706,
            "time": 193.28097940625,
            "velocity": 0.3937007874015748
          },
          {
            "duration": 0.10869549999998185,
            "durationTicks": 96,
            "midi": 47,
            "name": "B2",
            "ticks": 170802,
            "time": 193.38967490625,
            "velocity": 0.3937007874015748
          },
          {
            "duration": 0.10869549999998185,
            "durationTicks": 96,
            "midi": 78,
            "name": "F#5",
            "ticks": 170802,
            "time": 193.38967490625,
            "velocity": 0.3937007874015748
          },
          {
            "duration": 0.10869549999998185,
            "durationTicks": 96,
            "midi": 35,
            "name": "B1",
            "ticks": 170802,
            "time": 193.38967490625,
            "velocity": 0.3937007874015748
          },
          {
            "duration": 0.10869550000001027,
            "durationTicks": 96,
            "midi": 25,
            "name": "C#1",
            "ticks": 170898,
            "time": 193.49837040625,
            "velocity": 0.3937007874015748
          },
          {
            "duration": 0.10869550000001027,
            "durationTicks": 96,
            "midi": 49,
            "name": "C#3",
            "ticks": 170898,
            "time": 193.49837040625,
            "velocity": 0.3937007874015748
          },
          {
            "duration": 0.21739100000002054,
            "durationTicks": 192,
            "midi": 73,
            "name": "C#5",
            "ticks": 170898,
            "time": 193.49837040625,
            "velocity": 0.3937007874015748
          },
          {
            "duration": 0.21739100000002054,
            "durationTicks": 192,
            "midi": 34,
            "name": "A#1",
            "ticks": 170898,
            "time": 193.49837040625,
            "velocity": 0.3937007874015748
          },
          {
            "duration": 0.21739100000002054,
            "durationTicks": 192,
            "midi": 77,
            "name": "F5",
            "ticks": 170898,
            "time": 193.49837040625,
            "velocity": 0.3937007874015748
          },
          {
            "duration": 0.21739100000002054,
            "durationTicks": 192,
            "midi": 61,
            "name": "C#4",
            "ticks": 170898,
            "time": 193.49837040625,
            "velocity": 0.3937007874015748
          },
          {
            "duration": 0.10869550000001027,
            "durationTicks": 96,
            "midi": 37,
            "name": "C#2",
            "ticks": 170898,
            "time": 193.49837040625,
            "velocity": 0.3937007874015748
          },
          {
            "duration": 0.21739100000002054,
            "durationTicks": 192,
            "midi": 65,
            "name": "F4",
            "ticks": 170898,
            "time": 193.49837040625,
            "velocity": 0.3937007874015748
          },
          {
            "duration": 0.21739100000002054,
            "durationTicks": 192,
            "midi": 53,
            "name": "F3",
            "ticks": 170898,
            "time": 193.49837040625,
            "velocity": 0.3937007874015748
          },
          {
            "duration": 0.21739100000002054,
            "durationTicks": 192,
            "midi": 56,
            "name": "G#3",
            "ticks": 170898,
            "time": 193.49837040625,
            "velocity": 0.3937007874015748
          },
          {
            "duration": 0.21739100000002054,
            "durationTicks": 192,
            "midi": 61,
            "name": "C#4",
            "ticks": 170898,
            "time": 193.49837040625,
            "velocity": 0.3937007874015748
          },
          {
            "duration": 0.10869550000001027,
            "durationTicks": 96,
            "midi": 53,
            "name": "F3",
            "ticks": 170994,
            "time": 193.60706590625,
            "velocity": 0.3937007874015748
          },
          {
            "duration": 0.21739099999999212,
            "durationTicks": 192,
            "midi": 75,
            "name": "D#5",
            "ticks": 171090,
            "time": 193.71576140625,
            "velocity": 0.3937007874015748
          },
          {
            "duration": 0.21739099999999212,
            "durationTicks": 192,
            "midi": 70,
            "name": "A#4",
            "ticks": 171090,
            "time": 193.71576140625,
            "velocity": 0.3937007874015748
          },
          {
            "duration": 0.21739099999999212,
            "durationTicks": 192,
            "midi": 63,
            "name": "D#4",
            "ticks": 171090,
            "time": 193.71576140625,
            "velocity": 0.3937007874015748
          },
          {
            "duration": 0.21739099999999212,
            "durationTicks": 192,
            "midi": 53,
            "name": "F3",
            "ticks": 171090,
            "time": 193.71576140625,
            "velocity": 0.3937007874015748
          },
          {
            "duration": 0.10869549999998185,
            "durationTicks": 96,
            "midi": 49,
            "name": "C#3",
            "ticks": 171090,
            "time": 193.71576140625,
            "velocity": 0.3937007874015748
          },
          {
            "duration": 0.10869549999998185,
            "durationTicks": 96,
            "midi": 37,
            "name": "C#2",
            "ticks": 171090,
            "time": 193.71576140625,
            "velocity": 0.3937007874015748
          },
          {
            "duration": 0.10869549999998185,
            "durationTicks": 96,
            "midi": 56,
            "name": "G#3",
            "ticks": 171090,
            "time": 193.71576140625,
            "velocity": 0.3937007874015748
          },
          {
            "duration": 0.21739099999999212,
            "durationTicks": 192,
            "midi": 61,
            "name": "C#4",
            "ticks": 171090,
            "time": 193.71576140625,
            "velocity": 0.3937007874015748
          },
          {
            "duration": 0.21739099999999212,
            "durationTicks": 192,
            "midi": 58,
            "name": "A#3",
            "ticks": 171090,
            "time": 193.71576140625,
            "velocity": 0.3937007874015748
          },
          {
            "duration": 0.21739099999999212,
            "durationTicks": 192,
            "midi": 56,
            "name": "G#3",
            "ticks": 171090,
            "time": 193.71576140625,
            "velocity": 0.3937007874015748
          },
          {
            "duration": 0.10869550000001027,
            "durationTicks": 96,
            "midi": 61,
            "name": "C#4",
            "ticks": 171186,
            "time": 193.82445690625,
            "velocity": 0.3937007874015748
          },
          {
            "duration": 0.10869550000001027,
            "durationTicks": 96,
            "midi": 49,
            "name": "C#3",
            "ticks": 171186,
            "time": 193.82445690625,
            "velocity": 0.3937007874015748
          },
          {
            "duration": 0.10869550000001027,
            "durationTicks": 96,
            "midi": 37,
            "name": "C#2",
            "ticks": 171186,
            "time": 193.82445690625,
            "velocity": 0.3937007874015748
          },
          {
            "duration": 0.21739099999999212,
            "durationTicks": 192,
            "midi": 34,
            "name": "A#1",
            "ticks": 171282,
            "time": 193.93315240625,
            "velocity": 0.3937007874015748
          },
          {
            "duration": 0.21739099999999212,
            "durationTicks": 192,
            "midi": 73,
            "name": "C#5",
            "ticks": 171282,
            "time": 193.93315240625,
            "velocity": 0.3937007874015748
          },
          {
            "duration": 0.10869550000001027,
            "durationTicks": 96,
            "midi": 65,
            "name": "F4",
            "ticks": 171282,
            "time": 193.93315240625,
            "velocity": 0.3937007874015748
          },
          {
            "duration": 0.21739099999999212,
            "durationTicks": 192,
            "midi": 77,
            "name": "F5",
            "ticks": 171282,
            "time": 193.93315240625,
            "velocity": 0.3937007874015748
          },
          {
            "duration": 0.21739099999999212,
            "durationTicks": 192,
            "midi": 53,
            "name": "F3",
            "ticks": 171282,
            "time": 193.93315240625,
            "velocity": 0.3937007874015748
          },
          {
            "duration": 0.21739099999999212,
            "durationTicks": 192,
            "midi": 56,
            "name": "G#3",
            "ticks": 171282,
            "time": 193.93315240625,
            "velocity": 0.3937007874015748
          },
          {
            "duration": 0.21739099999999212,
            "durationTicks": 192,
            "midi": 65,
            "name": "F4",
            "ticks": 171282,
            "time": 193.93315240625,
            "velocity": 0.3937007874015748
          },
          {
            "duration": 0.21739099999999212,
            "durationTicks": 192,
            "midi": 61,
            "name": "C#4",
            "ticks": 171282,
            "time": 193.93315240625,
            "velocity": 0.3937007874015748
          },
          {
            "duration": 0.10869550000001027,
            "durationTicks": 96,
            "midi": 37,
            "name": "C#2",
            "ticks": 171282,
            "time": 193.93315240625,
            "velocity": 0.3937007874015748
          },
          {
            "duration": 0.21739099999999212,
            "durationTicks": 192,
            "midi": 61,
            "name": "C#4",
            "ticks": 171282,
            "time": 193.93315240625,
            "velocity": 0.3937007874015748
          },
          {
            "duration": 0.10869550000001027,
            "durationTicks": 96,
            "midi": 25,
            "name": "C#1",
            "ticks": 171282,
            "time": 193.93315240625,
            "velocity": 0.3937007874015748
          },
          {
            "duration": 0.10869549999998185,
            "durationTicks": 96,
            "midi": 37,
            "name": "C#2",
            "ticks": 171378,
            "time": 194.04184790625,
            "velocity": 0.3937007874015748
          },
          {
            "duration": 0.10869549999998185,
            "durationTicks": 96,
            "midi": 49,
            "name": "C#3",
            "ticks": 171378,
            "time": 194.04184790625,
            "velocity": 0.3937007874015748
          },
          {
            "duration": 0.10869549999998185,
            "durationTicks": 96,
            "midi": 68,
            "name": "G#4",
            "ticks": 171378,
            "time": 194.04184790625,
            "velocity": 0.3937007874015748
          },
          {
            "duration": 0.21739100000002054,
            "durationTicks": 192,
            "midi": 66,
            "name": "F#4",
            "ticks": 171474,
            "time": 194.15054340625,
            "velocity": 0.3937007874015748
          },
          {
            "duration": 0.10869550000001027,
            "durationTicks": 96,
            "midi": 47,
            "name": "B2",
            "ticks": 171474,
            "time": 194.15054340625,
            "velocity": 0.3937007874015748
          },
          {
            "duration": 0.10869550000001027,
            "durationTicks": 96,
            "midi": 35,
            "name": "B1",
            "ticks": 171474,
            "time": 194.15054340625,
            "velocity": 0.3937007874015748
          },
          {
            "duration": 0.21739100000002054,
            "durationTicks": 192,
            "midi": 63,
            "name": "D#4",
            "ticks": 171474,
            "time": 194.15054340625,
            "velocity": 0.3937007874015748
          },
          {
            "duration": 0.21739100000002054,
            "durationTicks": 192,
            "midi": 53,
            "name": "F3",
            "ticks": 171474,
            "time": 194.15054340625,
            "velocity": 0.3937007874015748
          },
          {
            "duration": 0.21739100000002054,
            "durationTicks": 192,
            "midi": 75,
            "name": "D#5",
            "ticks": 171474,
            "time": 194.15054340625,
            "velocity": 0.3937007874015748
          },
          {
            "duration": 0.21739100000002054,
            "durationTicks": 192,
            "midi": 61,
            "name": "C#4",
            "ticks": 171474,
            "time": 194.15054340625,
            "velocity": 0.3937007874015748
          },
          {
            "duration": 0.21739100000002054,
            "durationTicks": 192,
            "midi": 56,
            "name": "G#3",
            "ticks": 171474,
            "time": 194.15054340625,
            "velocity": 0.3937007874015748
          },
          {
            "duration": 0.21739100000002054,
            "durationTicks": 192,
            "midi": 78,
            "name": "F#5",
            "ticks": 171474,
            "time": 194.15054340625,
            "velocity": 0.3937007874015748
          },
          {
            "duration": 0.10869550000001027,
            "durationTicks": 96,
            "midi": 73,
            "name": "C#5",
            "ticks": 171474,
            "time": 194.15054340625,
            "velocity": 0.3937007874015748
          },
          {
            "duration": 0.10869550000001027,
            "durationTicks": 96,
            "midi": 49,
            "name": "C#3",
            "ticks": 171570,
            "time": 194.25923890625,
            "velocity": 0.3937007874015748
          },
          {
            "duration": 0.10869550000001027,
            "durationTicks": 96,
            "midi": 37,
            "name": "C#2",
            "ticks": 171570,
            "time": 194.25923890625,
            "velocity": 0.3937007874015748
          },
          {
            "duration": 0.10869550000001027,
            "durationTicks": 96,
            "midi": 77,
            "name": "F5",
            "ticks": 171570,
            "time": 194.25923890625,
            "velocity": 0.3937007874015748
          },
          {
            "duration": 0.21739099999999212,
            "durationTicks": 192,
            "midi": 53,
            "name": "F3",
            "ticks": 171666,
            "time": 194.36793440625001,
            "velocity": 0.3937007874015748
          },
          {
            "duration": 0.10869549999998185,
            "durationTicks": 96,
            "midi": 50,
            "name": "D3",
            "ticks": 171666,
            "time": 194.36793440625001,
            "velocity": 0.3937007874015748
          },
          {
            "duration": 0.21739099999999212,
            "durationTicks": 192,
            "midi": 62,
            "name": "D4",
            "ticks": 171666,
            "time": 194.36793440625001,
            "velocity": 0.3937007874015748
          },
          {
            "duration": 0.21739099999999212,
            "durationTicks": 192,
            "midi": 65,
            "name": "F4",
            "ticks": 171666,
            "time": 194.36793440625001,
            "velocity": 0.3937007874015748
          },
          {
            "duration": 0.10869549999998185,
            "durationTicks": 96,
            "midi": 50,
            "name": "D3",
            "ticks": 171666,
            "time": 194.36793440625001,
            "velocity": 0.3937007874015748
          },
          {
            "duration": 0.21739099999999212,
            "durationTicks": 192,
            "midi": 74,
            "name": "D5",
            "ticks": 171666,
            "time": 194.36793440625001,
            "velocity": 0.3937007874015748
          },
          {
            "duration": 0.21739099999999212,
            "durationTicks": 192,
            "midi": 34,
            "name": "A#1",
            "ticks": 171666,
            "time": 194.36793440625001,
            "velocity": 0.3937007874015748
          },
          {
            "duration": 0.21739099999999212,
            "durationTicks": 192,
            "midi": 58,
            "name": "A#3",
            "ticks": 171666,
            "time": 194.36793440625001,
            "velocity": 0.3937007874015748
          },
          {
            "duration": 0.10869549999998185,
            "durationTicks": 96,
            "midi": 38,
            "name": "D2",
            "ticks": 171666,
            "time": 194.36793440625001,
            "velocity": 0.3937007874015748
          },
          {
            "duration": 0.21739099999999212,
            "durationTicks": 192,
            "midi": 77,
            "name": "F5",
            "ticks": 171666,
            "time": 194.36793440625001,
            "velocity": 0.3937007874015748
          },
          {
            "duration": 0.21739099999999212,
            "durationTicks": 192,
            "midi": 62,
            "name": "D4",
            "ticks": 171666,
            "time": 194.36793440625001,
            "velocity": 0.3937007874015748
          },
          {
            "duration": 0.10869550000001027,
            "durationTicks": 96,
            "midi": 53,
            "name": "F3",
            "ticks": 171762,
            "time": 194.47662990625,
            "velocity": 0.3937007874015748
          },
          {
            "duration": 0.10869549999998185,
            "durationTicks": 96,
            "midi": 58,
            "name": "A#3",
            "ticks": 171858,
            "time": 194.58532540625,
            "velocity": 0.3937007874015748
          },
          {
            "duration": 0.10869549999998185,
            "durationTicks": 96,
            "midi": 48,
            "name": "C3",
            "ticks": 171858,
            "time": 194.58532540625,
            "velocity": 0.3937007874015748
          },
          {
            "duration": 0.21739099999999212,
            "durationTicks": 192,
            "midi": 70,
            "name": "A#4",
            "ticks": 171858,
            "time": 194.58532540625,
            "velocity": 0.3937007874015748
          },
          {
            "duration": 0.21739099999999212,
            "durationTicks": 192,
            "midi": 53,
            "name": "F3",
            "ticks": 171858,
            "time": 194.58532540625,
            "velocity": 0.3937007874015748
          },
          {
            "duration": 0.21739099999999212,
            "durationTicks": 192,
            "midi": 75,
            "name": "D#5",
            "ticks": 171858,
            "time": 194.58532540625,
            "velocity": 0.3937007874015748
          },
          {
            "duration": 0.21739099999999212,
            "durationTicks": 192,
            "midi": 58,
            "name": "A#3",
            "ticks": 171858,
            "time": 194.58532540625,
            "velocity": 0.3937007874015748
          },
          {
            "duration": 0.21739099999999212,
            "durationTicks": 192,
            "midi": 58,
            "name": "A#3",
            "ticks": 171858,
            "time": 194.58532540625,
            "velocity": 0.3937007874015748
          },
          {
            "duration": 0.21739099999999212,
            "durationTicks": 192,
            "midi": 34,
            "name": "A#1",
            "ticks": 171858,
            "time": 194.58532540625,
            "velocity": 0.3937007874015748
          },
          {
            "duration": 0.21739099999999212,
            "durationTicks": 192,
            "midi": 63,
            "name": "D#4",
            "ticks": 171858,
            "time": 194.58532540625,
            "velocity": 0.3937007874015748
          },
          {
            "duration": 0.21739099999999212,
            "durationTicks": 192,
            "midi": 62,
            "name": "D4",
            "ticks": 171858,
            "time": 194.58532540625,
            "velocity": 0.3937007874015748
          },
          {
            "duration": 0.10869549999998185,
            "durationTicks": 96,
            "midi": 36,
            "name": "C2",
            "ticks": 171858,
            "time": 194.58532540625,
            "velocity": 0.3937007874015748
          },
          {
            "duration": 0.10869550000001027,
            "durationTicks": 96,
            "midi": 62,
            "name": "D4",
            "ticks": 171954,
            "time": 194.69402090625,
            "velocity": 0.3937007874015748
          },
          {
            "duration": 0.10869550000001027,
            "durationTicks": 96,
            "midi": 38,
            "name": "D2",
            "ticks": 171954,
            "time": 194.69402090625,
            "velocity": 0.3937007874015748
          },
          {
            "duration": 0.10869550000001027,
            "durationTicks": 96,
            "midi": 50,
            "name": "D3",
            "ticks": 171954,
            "time": 194.69402090625,
            "velocity": 0.3937007874015748
          },
          {
            "duration": 0.21739099999999212,
            "durationTicks": 192,
            "midi": 34,
            "name": "A#1",
            "ticks": 172050,
            "time": 194.80271640625,
            "velocity": 0.3937007874015748
          },
          {
            "duration": 0.21739099999999212,
            "durationTicks": 192,
            "midi": 57,
            "name": "A3",
            "ticks": 172050,
            "time": 194.80271640625,
            "velocity": 0.3937007874015748
          },
          {
            "duration": 0.21739099999999212,
            "durationTicks": 192,
            "midi": 62,
            "name": "D4",
            "ticks": 172050,
            "time": 194.80271640625,
            "velocity": 0.3937007874015748
          },
          {
            "duration": 0.21739099999999212,
            "durationTicks": 192,
            "midi": 58,
            "name": "A#3",
            "ticks": 172050,
            "time": 194.80271640625,
            "velocity": 0.3937007874015748
          },
          {
            "duration": 0.10869550000001027,
            "durationTicks": 96,
            "midi": 53,
            "name": "F3",
            "ticks": 172050,
            "time": 194.80271640625,
            "velocity": 0.3937007874015748
          },
          {
            "duration": 0.21739099999999212,
            "durationTicks": 192,
            "midi": 62,
            "name": "D4",
            "ticks": 172050,
            "time": 194.80271640625,
            "velocity": 0.3937007874015748
          },
          {
            "duration": 0.10869550000001027,
            "durationTicks": 96,
            "midi": 65,
            "name": "F4",
            "ticks": 172050,
            "time": 194.80271640625,
            "velocity": 0.3937007874015748
          },
          {
            "duration": 0.10869550000001027,
            "durationTicks": 96,
            "midi": 41,
            "name": "F2",
            "ticks": 172050,
            "time": 194.80271640625,
            "velocity": 0.3937007874015748
          },
          {
            "duration": 0.21739099999999212,
            "durationTicks": 192,
            "midi": 69,
            "name": "A4",
            "ticks": 172050,
            "time": 194.80271640625,
            "velocity": 0.3937007874015748
          },
          {
            "duration": 0.21739099999999212,
            "durationTicks": 192,
            "midi": 74,
            "name": "D5",
            "ticks": 172050,
            "time": 194.80271640625,
            "velocity": 0.3937007874015748
          },
          {
            "duration": 0.21739099999999212,
            "durationTicks": 192,
            "midi": 53,
            "name": "F3",
            "ticks": 172050,
            "time": 194.80271640625,
            "velocity": 0.3937007874015748
          },
          {
            "duration": 0.10869549999998185,
            "durationTicks": 96,
            "midi": 70,
            "name": "A#4",
            "ticks": 172146,
            "time": 194.91141190625,
            "velocity": 0.3937007874015748
          },
          {
            "duration": 0.21739100000002054,
            "durationTicks": 192,
            "midi": 65,
            "name": "F4",
            "ticks": 172242,
            "time": 195.02010740625,
            "velocity": 0.3937007874015748
          },
          {
            "duration": 0.21739100000002054,
            "durationTicks": 192,
            "midi": 72,
            "name": "C5",
            "ticks": 172242,
            "time": 195.02010740625,
            "velocity": 0.3937007874015748
          },
          {
            "duration": 0.10869550000001027,
            "durationTicks": 96,
            "midi": 51,
            "name": "D#3",
            "ticks": 172242,
            "time": 195.02010740625,
            "velocity": 0.3937007874015748
          },
          {
            "duration": 0.21739100000002054,
            "durationTicks": 192,
            "midi": 77,
            "name": "F5",
            "ticks": 172242,
            "time": 195.02010740625,
            "velocity": 0.3937007874015748
          },
          {
            "duration": 0.10869550000001027,
            "durationTicks": 96,
            "midi": 39,
            "name": "D#2",
            "ticks": 172242,
            "time": 195.02010740625,
            "velocity": 0.3937007874015748
          },
          {
            "duration": 0.10869550000001027,
            "durationTicks": 96,
            "midi": 74,
            "name": "D5",
            "ticks": 172242,
            "time": 195.02010740625,
            "velocity": 0.3937007874015748
          },
          {
            "duration": 0.21739100000002054,
            "durationTicks": 192,
            "midi": 60,
            "name": "C4",
            "ticks": 172242,
            "time": 195.02010740625,
            "velocity": 0.3937007874015748
          },
          {
            "duration": 0.21739100000002054,
            "durationTicks": 192,
            "midi": 62,
            "name": "D4",
            "ticks": 172242,
            "time": 195.02010740625,
            "velocity": 0.3937007874015748
          },
          {
            "duration": 0.21739100000002054,
            "durationTicks": 192,
            "midi": 58,
            "name": "A#3",
            "ticks": 172242,
            "time": 195.02010740625,
            "velocity": 0.3937007874015748
          },
          {
            "duration": 0.21739100000002054,
            "durationTicks": 192,
            "midi": 53,
            "name": "F3",
            "ticks": 172242,
            "time": 195.02010740625,
            "velocity": 0.3937007874015748
          },
          {
            "duration": 0.10869550000001027,
            "durationTicks": 96,
            "midi": 53,
            "name": "F3",
            "ticks": 172338,
            "time": 195.12880290625,
            "velocity": 0.3937007874015748
          },
          {
            "duration": 0.10869550000001027,
            "durationTicks": 96,
            "midi": 41,
            "name": "F2",
            "ticks": 172338,
            "time": 195.12880290625,
            "velocity": 0.3937007874015748
          },
          {
            "duration": 0.10869550000001027,
            "durationTicks": 96,
            "midi": 77,
            "name": "F5",
            "ticks": 172338,
            "time": 195.12880290625,
            "velocity": 0.3937007874015748
          },
          {
            "duration": 0.21739099999999212,
            "durationTicks": 192,
            "midi": 54,
            "name": "F#3",
            "ticks": 172434,
            "time": 195.23749840625,
            "velocity": 0.3937007874015748
          },
          {
            "duration": 0.21739099999999212,
            "durationTicks": 192,
            "midi": 63,
            "name": "D#4",
            "ticks": 172434,
            "time": 195.23749840625,
            "velocity": 0.3937007874015748
          },
          {
            "duration": 0.10869549999998185,
            "durationTicks": 96,
            "midi": 27,
            "name": "D#1",
            "ticks": 172434,
            "time": 195.23749840625,
            "velocity": 0.3937007874015748
          },
          {
            "duration": 0.21739099999999212,
            "durationTicks": 192,
            "midi": 58,
            "name": "A#3",
            "ticks": 172434,
            "time": 195.23749840625,
            "velocity": 0.3937007874015748
          },
          {
            "duration": 0.21739099999999212,
            "durationTicks": 192,
            "midi": 75,
            "name": "D#5",
            "ticks": 172434,
            "time": 195.23749840625,
            "velocity": 0.3937007874015748
          },
          {
            "duration": 0.21739099999999212,
            "durationTicks": 192,
            "midi": 70,
            "name": "A#4",
            "ticks": 172434,
            "time": 195.23749840625,
            "velocity": 0.3937007874015748
          },
          {
            "duration": 0.10869549999998185,
            "durationTicks": 96,
            "midi": 39,
            "name": "D#2",
            "ticks": 172434,
            "time": 195.23749840625,
            "velocity": 0.3937007874015748
          },
          {
            "duration": 0.21739099999999212,
            "durationTicks": 192,
            "midi": 34,
            "name": "A#1",
            "ticks": 172434,
            "time": 195.23749840625,
            "velocity": 0.3937007874015748
          },
          {
            "duration": 0.10869549999998185,
            "durationTicks": 96,
            "midi": 51,
            "name": "D#3",
            "ticks": 172434,
            "time": 195.23749840625,
            "velocity": 0.3937007874015748
          },
          {
            "duration": 0.21739099999999212,
            "durationTicks": 192,
            "midi": 58,
            "name": "A#3",
            "ticks": 172434,
            "time": 195.23749840625,
            "velocity": 0.3937007874015748
          },
          {
            "duration": 0.21739099999999212,
            "durationTicks": 192,
            "midi": 63,
            "name": "D#4",
            "ticks": 172434,
            "time": 195.23749840625,
            "velocity": 0.3937007874015748
          },
          {
            "duration": 0.10869550000001027,
            "durationTicks": 96,
            "midi": 54,
            "name": "F#3",
            "ticks": 172530,
            "time": 195.34619390625,
            "velocity": 0.3937007874015748
          },
          {
            "duration": 0.10869550000001027,
            "durationTicks": 96,
            "midi": 51,
            "name": "D#3",
            "ticks": 172626,
            "time": 195.45488940625,
            "velocity": 0.3937007874015748
          },
          {
            "duration": 0.10869550000001027,
            "durationTicks": 96,
            "midi": 39,
            "name": "D#2",
            "ticks": 172626,
            "time": 195.45488940625,
            "velocity": 0.3937007874015748
          },
          {
            "duration": 0.21739099999999212,
            "durationTicks": 192,
            "midi": 63,
            "name": "D#4",
            "ticks": 172626,
            "time": 195.45488940625,
            "velocity": 0.3937007874015748
          },
          {
            "duration": 0.21739099999999212,
            "durationTicks": 192,
            "midi": 54,
            "name": "F#3",
            "ticks": 172626,
            "time": 195.45488940625,
            "velocity": 0.3937007874015748
          },
          {
            "duration": 0.21739099999999212,
            "durationTicks": 192,
            "midi": 77,
            "name": "F5",
            "ticks": 172626,
            "time": 195.45488940625,
            "velocity": 0.3937007874015748
          },
          {
            "duration": 0.21739099999999212,
            "durationTicks": 192,
            "midi": 61,
            "name": "C#4",
            "ticks": 172626,
            "time": 195.45488940625,
            "velocity": 0.3937007874015748
          },
          {
            "duration": 0.10869550000001027,
            "durationTicks": 96,
            "midi": 58,
            "name": "A#3",
            "ticks": 172626,
            "time": 195.45488940625,
            "velocity": 0.3937007874015748
          },
          {
            "duration": 0.21739099999999212,
            "durationTicks": 192,
            "midi": 65,
            "name": "F4",
            "ticks": 172626,
            "time": 195.45488940625,
            "velocity": 0.3937007874015748
          },
          {
            "duration": 0.21739099999999212,
            "durationTicks": 192,
            "midi": 73,
            "name": "C#5",
            "ticks": 172626,
            "time": 195.45488940625,
            "velocity": 0.3937007874015748
          },
          {
            "duration": 0.21739099999999212,
            "durationTicks": 192,
            "midi": 58,
            "name": "A#3",
            "ticks": 172626,
            "time": 195.45488940625,
            "velocity": 0.3937007874015748
          },
          {
            "duration": 0.10869549999998185,
            "durationTicks": 96,
            "midi": 63,
            "name": "D#4",
            "ticks": 172722,
            "time": 195.56358490625001,
            "velocity": 0.3937007874015748
          },
          {
            "duration": 0.10869549999998185,
            "durationTicks": 96,
            "midi": 51,
            "name": "D#3",
            "ticks": 172722,
            "time": 195.56358490625001,
            "velocity": 0.3937007874015748
          },
          {
            "duration": 0.10869549999998185,
            "durationTicks": 96,
            "midi": 39,
            "name": "D#2",
            "ticks": 172722,
            "time": 195.56358490625001,
            "velocity": 0.3937007874015748
          },
          {
            "duration": 0.10869550000001027,
            "durationTicks": 96,
            "midi": 66,
            "name": "F#4",
            "ticks": 172818,
            "time": 195.67228040625,
            "velocity": 0.3937007874015748
          },
          {
            "duration": 0.21739099999999212,
            "durationTicks": 192,
            "midi": 34,
            "name": "A#1",
            "ticks": 172818,
            "time": 195.67228040625,
            "velocity": 0.3937007874015748
          },
          {
            "duration": 0.21739099999999212,
            "durationTicks": 192,
            "midi": 54,
            "name": "F#3",
            "ticks": 172818,
            "time": 195.67228040625,
            "velocity": 0.3937007874015748
          },
          {
            "duration": 0.21739099999999212,
            "durationTicks": 192,
            "midi": 58,
            "name": "A#3",
            "ticks": 172818,
            "time": 195.67228040625,
            "velocity": 0.3937007874015748
          },
          {
            "duration": 0.21739099999999212,
            "durationTicks": 192,
            "midi": 63,
            "name": "D#4",
            "ticks": 172818,
            "time": 195.67228040625,
            "velocity": 0.3937007874015748
          },
          {
            "duration": 0.21739099999999212,
            "durationTicks": 192,
            "midi": 66,
            "name": "F#4",
            "ticks": 172818,
            "time": 195.67228040625,
            "velocity": 0.3937007874015748
          },
          {
            "duration": 0.10869550000001027,
            "durationTicks": 96,
            "midi": 27,
            "name": "D#1",
            "ticks": 172818,
            "time": 195.67228040625,
            "velocity": 0.3937007874015748
          },
          {
            "duration": 0.21739099999999212,
            "durationTicks": 192,
            "midi": 75,
            "name": "D#5",
            "ticks": 172818,
            "time": 195.67228040625,
            "velocity": 0.3937007874015748
          },
          {
            "duration": 0.10869550000001027,
            "durationTicks": 96,
            "midi": 39,
            "name": "D#2",
            "ticks": 172818,
            "time": 195.67228040625,
            "velocity": 0.3937007874015748
          },
          {
            "duration": 0.21739099999999212,
            "durationTicks": 192,
            "midi": 63,
            "name": "D#4",
            "ticks": 172818,
            "time": 195.67228040625,
            "velocity": 0.3937007874015748
          },
          {
            "duration": 0.21739099999999212,
            "durationTicks": 192,
            "midi": 78,
            "name": "F#5",
            "ticks": 172818,
            "time": 195.67228040625,
            "velocity": 0.3937007874015748
          },
          {
            "duration": 0.10869549999998185,
            "durationTicks": 96,
            "midi": 70,
            "name": "A#4",
            "ticks": 172914,
            "time": 195.78097590625,
            "velocity": 0.3937007874015748
          },
          {
            "duration": 0.10869549999998185,
            "durationTicks": 96,
            "midi": 39,
            "name": "D#2",
            "ticks": 172914,
            "time": 195.78097590625,
            "velocity": 0.3937007874015748
          },
          {
            "duration": 0.10869549999998185,
            "durationTicks": 96,
            "midi": 51,
            "name": "D#3",
            "ticks": 172914,
            "time": 195.78097590625,
            "velocity": 0.3937007874015748
          },
          {
            "duration": 0.21739100000002054,
            "durationTicks": 192,
            "midi": 80,
            "name": "G#5",
            "ticks": 173010,
            "time": 195.88967140625,
            "velocity": 0.3937007874015748
          },
          {
            "duration": 0.21739100000002054,
            "durationTicks": 192,
            "midi": 54,
            "name": "F#3",
            "ticks": 173010,
            "time": 195.88967140625,
            "velocity": 0.3937007874015748
          },
          {
            "duration": 0.21739100000002054,
            "durationTicks": 192,
            "midi": 68,
            "name": "G#4",
            "ticks": 173010,
            "time": 195.88967140625,
            "velocity": 0.3937007874015748
          },
          {
            "duration": 0.10869550000001027,
            "durationTicks": 96,
            "midi": 75,
            "name": "D#5",
            "ticks": 173010,
            "time": 195.88967140625,
            "velocity": 0.3937007874015748
          },
          {
            "duration": 0.21739100000002054,
            "durationTicks": 192,
            "midi": 65,
            "name": "F4",
            "ticks": 173010,
            "time": 195.88967140625,
            "velocity": 0.3937007874015748
          },
          {
            "duration": 0.10869550000001027,
            "durationTicks": 96,
            "midi": 49,
            "name": "C#3",
            "ticks": 173010,
            "time": 195.88967140625,
            "velocity": 0.3937007874015748
          },
          {
            "duration": 0.21739100000002054,
            "durationTicks": 192,
            "midi": 77,
            "name": "F5",
            "ticks": 173010,
            "time": 195.88967140625,
            "velocity": 0.3937007874015748
          },
          {
            "duration": 0.10869550000001027,
            "durationTicks": 96,
            "midi": 37,
            "name": "C#2",
            "ticks": 173010,
            "time": 195.88967140625,
            "velocity": 0.3937007874015748
          },
          {
            "duration": 0.21739100000002054,
            "durationTicks": 192,
            "midi": 58,
            "name": "A#3",
            "ticks": 173010,
            "time": 195.88967140625,
            "velocity": 0.3937007874015748
          },
          {
            "duration": 0.21739100000002054,
            "durationTicks": 192,
            "midi": 63,
            "name": "D#4",
            "ticks": 173010,
            "time": 195.88967140625,
            "velocity": 0.3937007874015748
          },
          {
            "duration": 0.10869550000001027,
            "durationTicks": 96,
            "midi": 39,
            "name": "D#2",
            "ticks": 173106,
            "time": 195.99836690625,
            "velocity": 0.3937007874015748
          },
          {
            "duration": 0.10869550000001027,
            "durationTicks": 96,
            "midi": 78,
            "name": "F#5",
            "ticks": 173106,
            "time": 195.99836690625,
            "velocity": 0.3937007874015748
          },
          {
            "duration": 0.10869550000001027,
            "durationTicks": 96,
            "midi": 51,
            "name": "D#3",
            "ticks": 173106,
            "time": 195.99836690625,
            "velocity": 0.3937007874015748
          },
          {
            "duration": 0.21739099999999212,
            "durationTicks": 192,
            "midi": 82,
            "name": "A#5",
            "ticks": 173202,
            "time": 196.10706240625,
            "velocity": 0.3937007874015748
          },
          {
            "duration": 0.21739099999999212,
            "durationTicks": 192,
            "midi": 78,
            "name": "F#5",
            "ticks": 173202,
            "time": 196.10706240625,
            "velocity": 0.3937007874015748
          },
          {
            "duration": 0.10869549999998185,
            "durationTicks": 96,
            "midi": 51,
            "name": "D#3",
            "ticks": 173202,
            "time": 196.10706240625,
            "velocity": 0.3937007874015748
          },
          {
            "duration": 0.21739099999999212,
            "durationTicks": 192,
            "midi": 34,
            "name": "A#1",
            "ticks": 173202,
            "time": 196.10706240625,
            "velocity": 0.3937007874015748
          },
          {
            "duration": 0.21739099999999212,
            "durationTicks": 192,
            "midi": 54,
            "name": "F#3",
            "ticks": 173202,
            "time": 196.10706240625,
            "velocity": 0.3937007874015748
          },
          {
            "duration": 0.10869549999998185,
            "durationTicks": 96,
            "midi": 27,
            "name": "D#1",
            "ticks": 173202,
            "time": 196.10706240625,
            "velocity": 0.3937007874015748
          },
          {
            "duration": 0.21739099999999212,
            "durationTicks": 192,
            "midi": 70,
            "name": "A#4",
            "ticks": 173202,
            "time": 196.10706240625,
            "velocity": 0.3937007874015748
          },
          {
            "duration": 0.10869549999998185,
            "durationTicks": 96,
            "midi": 39,
            "name": "D#2",
            "ticks": 173202,
            "time": 196.10706240625,
            "velocity": 0.3937007874015748
          },
          {
            "duration": 0.21739099999999212,
            "durationTicks": 192,
            "midi": 58,
            "name": "A#3",
            "ticks": 173202,
            "time": 196.10706240625,
            "velocity": 0.3937007874015748
          },
          {
            "duration": 0.21739099999999212,
            "durationTicks": 192,
            "midi": 66,
            "name": "F#4",
            "ticks": 173202,
            "time": 196.10706240625,
            "velocity": 0.3937007874015748
          },
          {
            "duration": 0.21739099999999212,
            "durationTicks": 192,
            "midi": 63,
            "name": "D#4",
            "ticks": 173202,
            "time": 196.10706240625,
            "velocity": 0.3937007874015748
          },
          {
            "duration": 0.10869550000001027,
            "durationTicks": 96,
            "midi": 54,
            "name": "F#3",
            "ticks": 173298,
            "time": 196.21575790625,
            "velocity": 0.3937007874015748
          },
          {
            "duration": 0.21739099999999212,
            "durationTicks": 192,
            "midi": 54,
            "name": "F#3",
            "ticks": 173394,
            "time": 196.32445340625,
            "velocity": 0.3937007874015748
          },
          {
            "duration": 0.10869550000001027,
            "durationTicks": 96,
            "midi": 58,
            "name": "A#3",
            "ticks": 173394,
            "time": 196.32445340625,
            "velocity": 0.3937007874015748
          },
          {
            "duration": 0.10869550000001027,
            "durationTicks": 96,
            "midi": 39,
            "name": "D#2",
            "ticks": 173394,
            "time": 196.32445340625,
            "velocity": 0.3937007874015748
          },
          {
            "duration": 0.10869550000001027,
            "durationTicks": 96,
            "midi": 51,
            "name": "D#3",
            "ticks": 173394,
            "time": 196.32445340625,
            "velocity": 0.3937007874015748
          },
          {
            "duration": 0.21739099999999212,
            "durationTicks": 192,
            "midi": 63,
            "name": "D#4",
            "ticks": 173394,
            "time": 196.32445340625,
            "velocity": 0.3937007874015748
          },
          {
            "duration": 0.21739099999999212,
            "durationTicks": 192,
            "midi": 58,
            "name": "A#3",
            "ticks": 173394,
            "time": 196.32445340625,
            "velocity": 0.3937007874015748
          },
          {
            "duration": 0.10869549999998185,
            "durationTicks": 96,
            "midi": 63,
            "name": "D#4",
            "ticks": 173490,
            "time": 196.43314890625,
            "velocity": 0.3937007874015748
          },
          {
            "duration": 0.10869549999998185,
            "durationTicks": 96,
            "midi": 39,
            "name": "D#2",
            "ticks": 173490,
            "time": 196.43314890625,
            "velocity": 0.3937007874015748
          },
          {
            "duration": 0.10869549999998185,
            "durationTicks": 96,
            "midi": 51,
            "name": "D#3",
            "ticks": 173490,
            "time": 196.43314890625,
            "velocity": 0.3937007874015748
          },
          {
            "duration": 0.21739100000002054,
            "durationTicks": 192,
            "midi": 34,
            "name": "A#1",
            "ticks": 173586,
            "time": 196.54184440625,
            "velocity": 0.3937007874015748
          },
          {
            "duration": 0.10869550000001027,
            "durationTicks": 96,
            "midi": 66,
            "name": "F#4",
            "ticks": 173586,
            "time": 196.54184440625,
            "velocity": 0.3937007874015748
          },
          {
            "duration": 0.21739100000002054,
            "durationTicks": 192,
            "midi": 54,
            "name": "F#3",
            "ticks": 173586,
            "time": 196.54184440625,
            "velocity": 0.3937007874015748
          },
          {
            "duration": 0.21739100000002054,
            "durationTicks": 192,
            "midi": 82,
            "name": "A#5",
            "ticks": 173586,
            "time": 196.54184440625,
            "velocity": 0.3937007874015748
          },
          {
            "duration": 0.21739100000002054,
            "durationTicks": 192,
            "midi": 58,
            "name": "A#3",
            "ticks": 173586,
            "time": 196.54184440625,
            "velocity": 0.3937007874015748
          },
          {
            "duration": 0.10869550000001027,
            "durationTicks": 96,
            "midi": 39,
            "name": "D#2",
            "ticks": 173586,
            "time": 196.54184440625,
            "velocity": 0.3937007874015748
          },
          {
            "duration": 0.21739100000002054,
            "durationTicks": 192,
            "midi": 70,
            "name": "A#4",
            "ticks": 173586,
            "time": 196.54184440625,
            "velocity": 0.3937007874015748
          },
          {
            "duration": 0.21739100000002054,
            "durationTicks": 192,
            "midi": 63,
            "name": "D#4",
            "ticks": 173586,
            "time": 196.54184440625,
            "velocity": 0.3937007874015748
          },
          {
            "duration": 0.10869550000001027,
            "durationTicks": 96,
            "midi": 27,
            "name": "D#1",
            "ticks": 173586,
            "time": 196.54184440625,
            "velocity": 0.3937007874015748
          },
          {
            "duration": 0.21739100000002054,
            "durationTicks": 192,
            "midi": 87,
            "name": "D#6",
            "ticks": 173586,
            "time": 196.54184440625,
            "velocity": 0.3937007874015748
          },
          {
            "duration": 0.21739100000002054,
            "durationTicks": 192,
            "midi": 75,
            "name": "D#5",
            "ticks": 173586,
            "time": 196.54184440625,
            "velocity": 0.3937007874015748
          },
          {
            "duration": 0.10869550000001027,
            "durationTicks": 96,
            "midi": 39,
            "name": "D#2",
            "ticks": 173682,
            "time": 196.65053990625,
            "velocity": 0.3937007874015748
          },
          {
            "duration": 0.10869550000001027,
            "durationTicks": 96,
            "midi": 70,
            "name": "A#4",
            "ticks": 173682,
            "time": 196.65053990625,
            "velocity": 0.3937007874015748
          },
          {
            "duration": 0.10869550000001027,
            "durationTicks": 96,
            "midi": 51,
            "name": "D#3",
            "ticks": 173682,
            "time": 196.65053990625,
            "velocity": 0.3937007874015748
          },
          {
            "duration": 0.21739099999999212,
            "durationTicks": 192,
            "midi": 68,
            "name": "G#4",
            "ticks": 173778,
            "time": 196.75923540625,
            "velocity": 0.3937007874015748
          },
          {
            "duration": 0.21739099999999212,
            "durationTicks": 192,
            "midi": 85,
            "name": "C#6",
            "ticks": 173778,
            "time": 196.75923540625,
            "velocity": 0.3937007874015748
          },
          {
            "duration": 0.10869549999998185,
            "durationTicks": 96,
            "midi": 49,
            "name": "C#3",
            "ticks": 173778,
            "time": 196.75923540625,
            "velocity": 0.3937007874015748
          },
          {
            "duration": 0.21739099999999212,
            "durationTicks": 192,
            "midi": 54,
            "name": "F#3",
            "ticks": 173778,
            "time": 196.75923540625,
            "velocity": 0.3937007874015748
          },
          {
            "duration": 0.21739099999999212,
            "durationTicks": 192,
            "midi": 63,
            "name": "D#4",
            "ticks": 173778,
            "time": 196.75923540625,
            "velocity": 0.3937007874015748
          },
          {
            "duration": 0.10869549999998185,
            "durationTicks": 96,
            "midi": 37,
            "name": "C#2",
            "ticks": 173778,
            "time": 196.75923540625,
            "velocity": 0.3937007874015748
          },
          {
            "duration": 0.21739099999999212,
            "durationTicks": 192,
            "midi": 58,
            "name": "A#3",
            "ticks": 173778,
            "time": 196.75923540625,
            "velocity": 0.3937007874015748
          },
          {
            "duration": 0.21739099999999212,
            "durationTicks": 192,
            "midi": 73,
            "name": "C#5",
            "ticks": 173778,
            "time": 196.75923540625,
            "velocity": 0.3937007874015748
          },
          {
            "duration": 0.10869549999998185,
            "durationTicks": 96,
            "midi": 75,
            "name": "D#5",
            "ticks": 173778,
            "time": 196.75923540625,
            "velocity": 0.3937007874015748
          },
          {
            "duration": 0.21739099999999212,
            "durationTicks": 192,
            "midi": 80,
            "name": "G#5",
            "ticks": 173778,
            "time": 196.75923540625,
            "velocity": 0.3937007874015748
          },
          {
            "duration": 0.10869550000001027,
            "durationTicks": 96,
            "midi": 39,
            "name": "D#2",
            "ticks": 173874,
            "time": 196.86793090625,
            "velocity": 0.3937007874015748
          },
          {
            "duration": 0.10869550000001027,
            "durationTicks": 96,
            "midi": 51,
            "name": "D#3",
            "ticks": 173874,
            "time": 196.86793090625,
            "velocity": 0.3937007874015748
          },
          {
            "duration": 0.10869550000001027,
            "durationTicks": 96,
            "midi": 78,
            "name": "F#5",
            "ticks": 173874,
            "time": 196.86793090625,
            "velocity": 0.3937007874015748
          },
          {
            "duration": 0.21739099999999212,
            "durationTicks": 192,
            "midi": 66,
            "name": "F#4",
            "ticks": 173970,
            "time": 196.97662640625,
            "velocity": 0.3937007874015748
          },
          {
            "duration": 0.21739099999999212,
            "durationTicks": 192,
            "midi": 78,
            "name": "F#5",
            "ticks": 173970,
            "time": 196.97662640625,
            "velocity": 0.3937007874015748
          },
          {
            "duration": 0.21739099999999212,
            "durationTicks": 192,
            "midi": 34,
            "name": "A#1",
            "ticks": 173970,
            "time": 196.97662640625,
            "velocity": 0.3937007874015748
          },
          {
            "duration": 0.10869549999998185,
            "durationTicks": 96,
            "midi": 39,
            "name": "D#2",
            "ticks": 173970,
            "time": 196.97662640625,
            "velocity": 0.3937007874015748
          },
          {
            "duration": 0.10869549999998185,
            "durationTicks": 96,
            "midi": 51,
            "name": "D#3",
            "ticks": 173970,
            "time": 196.97662640625,
            "velocity": 0.3937007874015748
          },
          {
            "duration": 0.21739099999999212,
            "durationTicks": 192,
            "midi": 54,
            "name": "F#3",
            "ticks": 173970,
            "time": 196.97662640625,
            "velocity": 0.3937007874015748
          },
          {
            "duration": 0.21739099999999212,
            "durationTicks": 192,
            "midi": 63,
            "name": "D#4",
            "ticks": 173970,
            "time": 196.97662640625,
            "velocity": 0.3937007874015748
          },
          {
            "duration": 0.21739099999999212,
            "durationTicks": 192,
            "midi": 58,
            "name": "A#3",
            "ticks": 173970,
            "time": 196.97662640625,
            "velocity": 0.3937007874015748
          },
          {
            "duration": 0.21739099999999212,
            "durationTicks": 192,
            "midi": 82,
            "name": "A#5",
            "ticks": 173970,
            "time": 196.97662640625,
            "velocity": 0.3937007874015748
          },
          {
            "duration": 0.21739099999999212,
            "durationTicks": 192,
            "midi": 70,
            "name": "A#4",
            "ticks": 173970,
            "time": 196.97662640625,
            "velocity": 0.3937007874015748
          },
          {
            "duration": 0.10869549999998185,
            "durationTicks": 96,
            "midi": 27,
            "name": "D#1",
            "ticks": 173970,
            "time": 196.97662640625,
            "velocity": 0.3937007874015748
          },
          {
            "duration": 0.10869550000001027,
            "durationTicks": 96,
            "midi": 54,
            "name": "F#3",
            "ticks": 174066,
            "time": 197.08532190625,
            "velocity": 0.3937007874015748
          },
          {
            "duration": 0.10869550000001027,
            "durationTicks": 96,
            "midi": 58,
            "name": "A#3",
            "ticks": 174162,
            "time": 197.19401740625,
            "velocity": 0.3937007874015748
          },
          {
            "duration": 0.21739099999999212,
            "durationTicks": 192,
            "midi": 63,
            "name": "D#4",
            "ticks": 174162,
            "time": 197.19401740625,
            "velocity": 0.3937007874015748
          },
          {
            "duration": 0.10869550000001027,
            "durationTicks": 96,
            "midi": 51,
            "name": "D#3",
            "ticks": 174162,
            "time": 197.19401740625,
            "velocity": 0.3937007874015748
          },
          {
            "duration": 0.10869550000001027,
            "durationTicks": 96,
            "midi": 39,
            "name": "D#2",
            "ticks": 174162,
            "time": 197.19401740625,
            "velocity": 0.3937007874015748
          },
          {
            "duration": 0.21739099999999212,
            "durationTicks": 192,
            "midi": 58,
            "name": "A#3",
            "ticks": 174162,
            "time": 197.19401740625,
            "velocity": 0.3937007874015748
          },
          {
            "duration": 0.21739099999999212,
            "durationTicks": 192,
            "midi": 54,
            "name": "F#3",
            "ticks": 174162,
            "time": 197.19401740625,
            "velocity": 0.3937007874015748
          },
          {
            "duration": 0.10869549999998185,
            "durationTicks": 96,
            "midi": 51,
            "name": "D#3",
            "ticks": 174258,
            "time": 197.30271290625,
            "velocity": 0.3937007874015748
          },
          {
            "duration": 0.10869549999998185,
            "durationTicks": 96,
            "midi": 63,
            "name": "D#4",
            "ticks": 174258,
            "time": 197.30271290625,
            "velocity": 0.3937007874015748
          },
          {
            "duration": 0.10869549999998185,
            "durationTicks": 96,
            "midi": 39,
            "name": "D#2",
            "ticks": 174258,
            "time": 197.30271290625,
            "velocity": 0.3937007874015748
          },
          {
            "duration": 0.10869550000001027,
            "durationTicks": 96,
            "midi": 66,
            "name": "F#4",
            "ticks": 174354,
            "time": 197.41140840625,
            "velocity": 0.3937007874015748
          },
          {
            "duration": 0.21739100000002054,
            "durationTicks": 192,
            "midi": 34,
            "name": "A#1",
            "ticks": 174354,
            "time": 197.41140840625,
            "velocity": 0.3937007874015748
          },
          {
            "duration": 0.10869550000001027,
            "durationTicks": 96,
            "midi": 27,
            "name": "D#1",
            "ticks": 174354,
            "time": 197.41140840625,
            "velocity": 0.3937007874015748
          },
          {
            "duration": 0.21739100000002054,
            "durationTicks": 192,
            "midi": 54,
            "name": "F#3",
            "ticks": 174354,
            "time": 197.41140840625,
            "velocity": 0.3937007874015748
          },
          {
            "duration": 0.10869550000001027,
            "durationTicks": 96,
            "midi": 39,
            "name": "D#2",
            "ticks": 174354,
            "time": 197.41140840625,
            "velocity": 0.3937007874015748
          },
          {
            "duration": 0.21739100000002054,
            "durationTicks": 192,
            "midi": 58,
            "name": "A#3",
            "ticks": 174354,
            "time": 197.41140840625,
            "velocity": 0.3937007874015748
          },
          {
            "duration": 0.21739100000002054,
            "durationTicks": 192,
            "midi": 70,
            "name": "A#4",
            "ticks": 174354,
            "time": 197.41140840625,
            "velocity": 0.3937007874015748
          },
          {
            "duration": 0.21739100000002054,
            "durationTicks": 192,
            "midi": 58,
            "name": "A#3",
            "ticks": 174354,
            "time": 197.41140840625,
            "velocity": 0.3937007874015748
          },
          {
            "duration": 0.21739100000002054,
            "durationTicks": 192,
            "midi": 63,
            "name": "D#4",
            "ticks": 174354,
            "time": 197.41140840625,
            "velocity": 0.3937007874015748
          },
          {
            "duration": 0.21739100000002054,
            "durationTicks": 192,
            "midi": 75,
            "name": "D#5",
            "ticks": 174354,
            "time": 197.41140840625,
            "velocity": 0.3937007874015748
          },
          {
            "duration": 0.21739100000002054,
            "durationTicks": 192,
            "midi": 63,
            "name": "D#4",
            "ticks": 174354,
            "time": 197.41140840625,
            "velocity": 0.3937007874015748
          },
          {
            "duration": 0.10869550000001027,
            "durationTicks": 96,
            "midi": 51,
            "name": "D#3",
            "ticks": 174450,
            "time": 197.52010390625,
            "velocity": 0.3937007874015748
          },
          {
            "duration": 0.10869550000001027,
            "durationTicks": 96,
            "midi": 39,
            "name": "D#2",
            "ticks": 174450,
            "time": 197.52010390625,
            "velocity": 0.3937007874015748
          },
          {
            "duration": 0.10869550000001027,
            "durationTicks": 96,
            "midi": 70,
            "name": "A#4",
            "ticks": 174450,
            "time": 197.52010390625,
            "velocity": 0.3937007874015748
          },
          {
            "duration": 0.21739099999999212,
            "durationTicks": 192,
            "midi": 54,
            "name": "F#3",
            "ticks": 174546,
            "time": 197.62879940625,
            "velocity": 0.3937007874015748
          },
          {
            "duration": 0.21739099999999212,
            "durationTicks": 192,
            "midi": 63,
            "name": "D#4",
            "ticks": 174546,
            "time": 197.62879940625,
            "velocity": 0.3937007874015748
          },
          {
            "duration": 0.10869549999998185,
            "durationTicks": 96,
            "midi": 37,
            "name": "C#2",
            "ticks": 174546,
            "time": 197.62879940625,
            "velocity": 0.3937007874015748
          },
          {
            "duration": 0.10869549999998185,
            "durationTicks": 96,
            "midi": 75,
            "name": "D#5",
            "ticks": 174546,
            "time": 197.62879940625,
            "velocity": 0.3937007874015748
          },
          {
            "duration": 0.10869549999998185,
            "durationTicks": 96,
            "midi": 49,
            "name": "C#3",
            "ticks": 174546,
            "time": 197.62879940625,
            "velocity": 0.3937007874015748
          },
          {
            "duration": 0.21739099999999212,
            "durationTicks": 192,
            "midi": 58,
            "name": "A#3",
            "ticks": 174546,
            "time": 197.62879940625,
            "velocity": 0.3937007874015748
          },
          {
            "duration": 0.10869550000001027,
            "durationTicks": 96,
            "midi": 51,
            "name": "D#3",
            "ticks": 174642,
            "time": 197.73749490625,
            "velocity": 0.3937007874015748
          },
          {
            "duration": 0.10869550000001027,
            "durationTicks": 96,
            "midi": 78,
            "name": "F#5",
            "ticks": 174642,
            "time": 197.73749490625,
            "velocity": 0.3937007874015748
          },
          {
            "duration": 0.10869550000001027,
            "durationTicks": 96,
            "midi": 39,
            "name": "D#2",
            "ticks": 174642,
            "time": 197.73749490625,
            "velocity": 0.3937007874015748
          },
          {
            "duration": 0.10869550000001027,
            "durationTicks": 96,
            "midi": 54,
            "name": "F#3",
            "ticks": 174738,
            "time": 197.84619040625,
            "velocity": 0.3937007874015748
          },
          {
            "duration": 0.10869550000001027,
            "durationTicks": 96,
            "midi": 42,
            "name": "F#2",
            "ticks": 174738,
            "time": 197.84619040625,
            "velocity": 0.3937007874015748
          },
          {
            "duration": 0.21739099999999212,
            "durationTicks": 192,
            "midi": 34,
            "name": "A#1",
            "ticks": 174738,
            "time": 197.84619040625,
            "velocity": 0.3937007874015748
          },
          {
            "duration": 0.21739099999999212,
            "durationTicks": 192,
            "midi": 78,
            "name": "F#5",
            "ticks": 174738,
            "time": 197.84619040625,
            "velocity": 0.3937007874015748
          },
          {
            "duration": 0.21739099999999212,
            "durationTicks": 192,
            "midi": 54,
            "name": "F#3",
            "ticks": 174738,
            "time": 197.84619040625,
            "velocity": 0.3937007874015748
          },
          {
            "duration": 0.21739099999999212,
            "durationTicks": 192,
            "midi": 58,
            "name": "A#3",
            "ticks": 174738,
            "time": 197.84619040625,
            "velocity": 0.3937007874015748
          },
          {
            "duration": 0.21739099999999212,
            "durationTicks": 192,
            "midi": 82,
            "name": "A#5",
            "ticks": 174738,
            "time": 197.84619040625,
            "velocity": 0.3937007874015748
          },
          {
            "duration": 0.21739099999999212,
            "durationTicks": 192,
            "midi": 66,
            "name": "F#4",
            "ticks": 174738,
            "time": 197.84619040625,
            "velocity": 0.3937007874015748
          },
          {
            "duration": 0.10869550000001027,
            "durationTicks": 96,
            "midi": 51,
            "name": "D#3",
            "ticks": 174738,
            "time": 197.84619040625,
            "velocity": 0.3937007874015748
          },
          {
            "duration": 0.21739099999999212,
            "durationTicks": 192,
            "midi": 70,
            "name": "A#4",
            "ticks": 174738,
            "time": 197.84619040625,
            "velocity": 0.3937007874015748
          },
          {
            "duration": 0.21739099999999212,
            "durationTicks": 192,
            "midi": 63,
            "name": "D#4",
            "ticks": 174738,
            "time": 197.84619040625,
            "velocity": 0.3937007874015748
          },
          {
            "duration": 0.10869549999998185,
            "durationTicks": 96,
            "midi": 54,
            "name": "F#3",
            "ticks": 174834,
            "time": 197.95488590625,
            "velocity": 0.3937007874015748
          },
          {
            "duration": 0.10869550000001027,
            "durationTicks": 96,
            "midi": 51,
            "name": "D#3",
            "ticks": 174930,
            "time": 198.06358140625,
            "velocity": 0.3937007874015748
          },
          {
            "duration": 0.21739099999999212,
            "durationTicks": 192,
            "midi": 77,
            "name": "F5",
            "ticks": 174930,
            "time": 198.06358140625,
            "velocity": 0.3937007874015748
          },
          {
            "duration": 0.21739099999999212,
            "durationTicks": 192,
            "midi": 54,
            "name": "F#3",
            "ticks": 174930,
            "time": 198.06358140625,
            "velocity": 0.3937007874015748
          },
          {
            "duration": 0.10869550000001027,
            "durationTicks": 96,
            "midi": 58,
            "name": "A#3",
            "ticks": 174930,
            "time": 198.06358140625,
            "velocity": 0.3937007874015748
          },
          {
            "duration": 0.10869550000001027,
            "durationTicks": 96,
            "midi": 39,
            "name": "D#2",
            "ticks": 174930,
            "time": 198.06358140625,
            "velocity": 0.3937007874015748
          },
          {
            "duration": 0.21739099999999212,
            "durationTicks": 192,
            "midi": 58,
            "name": "A#3",
            "ticks": 174930,
            "time": 198.06358140625,
            "velocity": 0.3937007874015748
          },
          {
            "duration": 0.21739099999999212,
            "durationTicks": 192,
            "midi": 63,
            "name": "D#4",
            "ticks": 174930,
            "time": 198.06358140625,
            "velocity": 0.3937007874015748
          },
          {
            "duration": 0.21739099999999212,
            "durationTicks": 192,
            "midi": 68,
            "name": "G#4",
            "ticks": 174930,
            "time": 198.06358140625,
            "velocity": 0.3937007874015748
          },
          {
            "duration": 0.21739099999999212,
            "durationTicks": 192,
            "midi": 65,
            "name": "F4",
            "ticks": 174930,
            "time": 198.06358140625,
            "velocity": 0.3937007874015748
          },
          {
            "duration": 0.21739099999999212,
            "durationTicks": 192,
            "midi": 80,
            "name": "G#5",
            "ticks": 174930,
            "time": 198.06358140625,
            "velocity": 0.3937007874015748
          },
          {
            "duration": 0.10869549999998185,
            "durationTicks": 96,
            "midi": 63,
            "name": "D#4",
            "ticks": 175026,
            "time": 198.17227690625,
            "velocity": 0.3937007874015748
          },
          {
            "duration": 0.10869549999998185,
            "durationTicks": 96,
            "midi": 42,
            "name": "F#2",
            "ticks": 175026,
            "time": 198.17227690625,
            "velocity": 0.3937007874015748
          },
          {
            "duration": 0.10869549999998185,
            "durationTicks": 96,
            "midi": 54,
            "name": "F#3",
            "ticks": 175026,
            "time": 198.17227690625,
            "velocity": 0.3937007874015748
          },
          {
            "duration": 0.10869550000001027,
            "durationTicks": 96,
            "midi": 56,
            "name": "G#3",
            "ticks": 175122,
            "time": 198.28097240625,
            "velocity": 0.3937007874015748
          },
          {
            "duration": 0.10869550000001027,
            "durationTicks": 96,
            "midi": 44,
            "name": "G#2",
            "ticks": 175122,
            "time": 198.28097240625,
            "velocity": 0.3937007874015748
          },
          {
            "duration": 0.10869550000001027,
            "durationTicks": 96,
            "midi": 66,
            "name": "F#4",
            "ticks": 175122,
            "time": 198.28097240625,
            "velocity": 0.3937007874015748
          },
          {
            "duration": 0.21739100000002054,
            "durationTicks": 192,
            "midi": 75,
            "name": "D#5",
            "ticks": 175122,
            "time": 198.28097240625,
            "velocity": 0.3937007874015748
          },
          {
            "duration": 0.21739100000002054,
            "durationTicks": 192,
            "midi": 63,
            "name": "D#4",
            "ticks": 175122,
            "time": 198.28097240625,
            "velocity": 0.3937007874015748
          },
          {
            "duration": 0.21739100000002054,
            "durationTicks": 192,
            "midi": 54,
            "name": "F#3",
            "ticks": 175122,
            "time": 198.28097240625,
            "velocity": 0.3937007874015748
          },
          {
            "duration": 0.21739100000002054,
            "durationTicks": 192,
            "midi": 66,
            "name": "F#4",
            "ticks": 175122,
            "time": 198.28097240625,
            "velocity": 0.3937007874015748
          },
          {
            "duration": 0.21739100000002054,
            "durationTicks": 192,
            "midi": 63,
            "name": "D#4",
            "ticks": 175122,
            "time": 198.28097240625,
            "velocity": 0.3937007874015748
          },
          {
            "duration": 0.21739100000002054,
            "durationTicks": 192,
            "midi": 58,
            "name": "A#3",
            "ticks": 175122,
            "time": 198.28097240625,
            "velocity": 0.3937007874015748
          },
          {
            "duration": 0.21739100000002054,
            "durationTicks": 192,
            "midi": 78,
            "name": "F#5",
            "ticks": 175122,
            "time": 198.28097240625,
            "velocity": 0.3937007874015748
          },
          {
            "duration": 0.21739100000002054,
            "durationTicks": 192,
            "midi": 34,
            "name": "A#1",
            "ticks": 175122,
            "time": 198.28097240625,
            "velocity": 0.3937007874015748
          },
          {
            "duration": 0.10869550000001027,
            "durationTicks": 96,
            "midi": 70,
            "name": "A#4",
            "ticks": 175218,
            "time": 198.38966790625,
            "velocity": 0.3937007874015748
          },
          {
            "duration": 0.10869549999998185,
            "durationTicks": 96,
            "midi": 75,
            "name": "D#5",
            "ticks": 175314,
            "time": 198.49836340625,
            "velocity": 0.3937007874015748
          },
          {
            "duration": 0.21739099999999212,
            "durationTicks": 192,
            "midi": 58,
            "name": "A#3",
            "ticks": 175314,
            "time": 198.49836340625,
            "velocity": 0.3937007874015748
          },
          {
            "duration": 0.21739099999999212,
            "durationTicks": 192,
            "midi": 73,
            "name": "C#5",
            "ticks": 175314,
            "time": 198.49836340625,
            "velocity": 0.3937007874015748
          },
          {
            "duration": 0.10869549999998185,
            "durationTicks": 96,
            "midi": 54,
            "name": "F#3",
            "ticks": 175314,
            "time": 198.49836340625,
            "velocity": 0.3937007874015748
          },
          {
            "duration": 0.21739099999999212,
            "durationTicks": 192,
            "midi": 34,
            "name": "A#1",
            "ticks": 175314,
            "time": 198.49836340625,
            "velocity": 0.3937007874015748
          },
          {
            "duration": 0.21739099999999212,
            "durationTicks": 192,
            "midi": 65,
            "name": "F4",
            "ticks": 175314,
            "time": 198.49836340625,
            "velocity": 0.3937007874015748
          },
          {
            "duration": 0.21739099999999212,
            "durationTicks": 192,
            "midi": 63,
            "name": "D#4",
            "ticks": 175314,
            "time": 198.49836340625,
            "velocity": 0.3937007874015748
          },
          {
            "duration": 0.21739099999999212,
            "durationTicks": 192,
            "midi": 77,
            "name": "F5",
            "ticks": 175314,
            "time": 198.49836340625,
            "velocity": 0.3937007874015748
          },
          {
            "duration": 0.21739099999999212,
            "durationTicks": 192,
            "midi": 54,
            "name": "F#3",
            "ticks": 175314,
            "time": 198.49836340625,
            "velocity": 0.3937007874015748
          },
          {
            "duration": 0.10869549999998185,
            "durationTicks": 96,
            "midi": 42,
            "name": "F#2",
            "ticks": 175314,
            "time": 198.49836340625,
            "velocity": 0.3937007874015748
          },
          {
            "duration": 0.21739099999999212,
            "durationTicks": 192,
            "midi": 61,
            "name": "C#4",
            "ticks": 175314,
            "time": 198.49836340625,
            "velocity": 0.3937007874015748
          },
          {
            "duration": 0.10869550000001027,
            "durationTicks": 96,
            "midi": 44,
            "name": "G#2",
            "ticks": 175410,
            "time": 198.60705890625,
            "velocity": 0.3937007874015748
          },
          {
            "duration": 0.10869550000001027,
            "durationTicks": 96,
            "midi": 56,
            "name": "G#3",
            "ticks": 175410,
            "time": 198.60705890625,
            "velocity": 0.3937007874015748
          },
          {
            "duration": 0.10869550000001027,
            "durationTicks": 96,
            "midi": 78,
            "name": "F#5",
            "ticks": 175410,
            "time": 198.60705890625,
            "velocity": 0.3937007874015748
          },
          {
            "duration": 0.21739099999999212,
            "durationTicks": 192,
            "midi": 63,
            "name": "D#4",
            "ticks": 175506,
            "time": 198.71575440625,
            "velocity": 0.3937007874015748
          },
          {
            "duration": 0.21739099999999212,
            "durationTicks": 192,
            "midi": 75,
            "name": "D#5",
            "ticks": 175506,
            "time": 198.71575440625,
            "velocity": 0.3937007874015748
          },
          {
            "duration": 0.21739099999999212,
            "durationTicks": 192,
            "midi": 59,
            "name": "B3",
            "ticks": 175506,
            "time": 198.71575440625,
            "velocity": 0.3937007874015748
          },
          {
            "duration": 0.21739099999999212,
            "durationTicks": 192,
            "midi": 70,
            "name": "A#4",
            "ticks": 175506,
            "time": 198.71575440625,
            "velocity": 0.3937007874015748
          },
          {
            "duration": 0.21739099999999212,
            "durationTicks": 192,
            "midi": 54,
            "name": "F#3",
            "ticks": 175506,
            "time": 198.71575440625,
            "velocity": 0.3937007874015748
          },
          {
            "duration": 0.21739099999999212,
            "durationTicks": 192,
            "midi": 34,
            "name": "A#1",
            "ticks": 175506,
            "time": 198.71575440625,
            "velocity": 0.3937007874015748
          },
          {
            "duration": 0.21739099999999212,
            "durationTicks": 192,
            "midi": 58,
            "name": "A#3",
            "ticks": 175506,
            "time": 198.71575440625,
            "velocity": 0.3937007874015748
          },
          {
            "duration": 0.10869550000001027,
            "durationTicks": 96,
            "midi": 51,
            "name": "D#3",
            "ticks": 175506,
            "time": 198.71575440625,
            "velocity": 0.3937007874015748
          },
          {
            "duration": 0.10869550000001027,
            "durationTicks": 96,
            "midi": 35,
            "name": "B1",
            "ticks": 175506,
            "time": 198.71575440625,
            "velocity": 0.3937007874015748
          },
          {
            "duration": 0.21739099999999212,
            "durationTicks": 192,
            "midi": 63,
            "name": "D#4",
            "ticks": 175506,
            "time": 198.71575440625,
            "velocity": 0.3937007874015748
          },
          {
            "duration": 0.10869550000001027,
            "durationTicks": 96,
            "midi": 35,
            "name": "B1",
            "ticks": 175506,
            "time": 198.71575440625,
            "velocity": 0.3937007874015748
          },
          {
            "duration": 0.10869549999998185,
            "durationTicks": 96,
            "midi": 54,
            "name": "F#3",
            "ticks": 175602,
            "time": 198.82444990625,
            "velocity": 0.3937007874015748
          },
          {
            "duration": 0.21739100000002054,
            "durationTicks": 192,
            "midi": 77,
            "name": "F5",
            "ticks": 175698,
            "time": 198.93314540625,
            "velocity": 0.3937007874015748
          },
          {
            "duration": 0.21739100000002054,
            "durationTicks": 192,
            "midi": 61,
            "name": "C#4",
            "ticks": 175698,
            "time": 198.93314540625,
            "velocity": 0.3937007874015748
          },
          {
            "duration": 0.21739100000002054,
            "durationTicks": 192,
            "midi": 54,
            "name": "F#3",
            "ticks": 175698,
            "time": 198.93314540625,
            "velocity": 0.3937007874015748
          },
          {
            "duration": 0.10869550000001027,
            "durationTicks": 96,
            "midi": 59,
            "name": "B3",
            "ticks": 175698,
            "time": 198.93314540625,
            "velocity": 0.3937007874015748
          },
          {
            "duration": 0.21739100000002054,
            "durationTicks": 192,
            "midi": 59,
            "name": "B3",
            "ticks": 175698,
            "time": 198.93314540625,
            "velocity": 0.3937007874015748
          },
          {
            "duration": 0.21739100000002054,
            "durationTicks": 192,
            "midi": 65,
            "name": "F4",
            "ticks": 175698,
            "time": 198.93314540625,
            "velocity": 0.3937007874015748
          },
          {
            "duration": 0.10869550000001027,
            "durationTicks": 96,
            "midi": 47,
            "name": "B2",
            "ticks": 175698,
            "time": 198.93314540625,
            "velocity": 0.3937007874015748
          },
          {
            "duration": 0.21739100000002054,
            "durationTicks": 192,
            "midi": 73,
            "name": "C#5",
            "ticks": 175698,
            "time": 198.93314540625,
            "velocity": 0.3937007874015748
          },
          {
            "duration": 0.10869550000001027,
            "durationTicks": 96,
            "midi": 35,
            "name": "B1",
            "ticks": 175698,
            "time": 198.93314540625,
            "velocity": 0.3937007874015748
          },
          {
            "duration": 0.21739100000002054,
            "durationTicks": 192,
            "midi": 63,
            "name": "D#4",
            "ticks": 175698,
            "time": 198.93314540625,
            "velocity": 0.3937007874015748
          },
          {
            "duration": 0.10869550000001027,
            "durationTicks": 96,
            "midi": 47,
            "name": "B2",
            "ticks": 175794,
            "time": 199.04184090625,
            "velocity": 0.3937007874015748
          },
          {
            "duration": 0.10869550000001027,
            "durationTicks": 96,
            "midi": 35,
            "name": "B1",
            "ticks": 175794,
            "time": 199.04184090625,
            "velocity": 0.3937007874015748
          },
          {
            "duration": 0.10869550000001027,
            "durationTicks": 96,
            "midi": 63,
            "name": "D#4",
            "ticks": 175794,
            "time": 199.04184090625,
            "velocity": 0.3937007874015748
          },
          {
            "duration": 0.21739099999999212,
            "durationTicks": 192,
            "midi": 63,
            "name": "D#4",
            "ticks": 175890,
            "time": 199.15053640625,
            "velocity": 0.3937007874015748
          },
          {
            "duration": 0.10869549999998185,
            "durationTicks": 96,
            "midi": 35,
            "name": "B1",
            "ticks": 175890,
            "time": 199.15053640625,
            "velocity": 0.3937007874015748
          },
          {
            "duration": 0.21739099999999212,
            "durationTicks": 192,
            "midi": 78,
            "name": "F#5",
            "ticks": 175890,
            "time": 199.15053640625,
            "velocity": 0.3937007874015748
          },
          {
            "duration": 0.21739099999999212,
            "durationTicks": 192,
            "midi": 34,
            "name": "A#1",
            "ticks": 175890,
            "time": 199.15053640625,
            "velocity": 0.3937007874015748
          },
          {
            "duration": 0.10869549999998185,
            "durationTicks": 96,
            "midi": 66,
            "name": "F#4",
            "ticks": 175890,
            "time": 199.15053640625,
            "velocity": 0.3937007874015748
          },
          {
            "duration": 0.21739099999999212,
            "durationTicks": 192,
            "midi": 66,
            "name": "F#4",
            "ticks": 175890,
            "time": 199.15053640625,
            "velocity": 0.3937007874015748
          },
          {
            "duration": 0.10869549999998185,
            "durationTicks": 96,
            "midi": 35,
            "name": "B1",
            "ticks": 175890,
            "time": 199.15053640625,
            "velocity": 0.3937007874015748
          },
          {
            "duration": 0.21739099999999212,
            "durationTicks": 192,
            "midi": 63,
            "name": "D#4",
            "ticks": 175890,
            "time": 199.15053640625,
            "velocity": 0.3937007874015748
          },
          {
            "duration": 0.21739099999999212,
            "durationTicks": 192,
            "midi": 54,
            "name": "F#3",
            "ticks": 175890,
            "time": 199.15053640625,
            "velocity": 0.3937007874015748
          },
          {
            "duration": 0.21739099999999212,
            "durationTicks": 192,
            "midi": 75,
            "name": "D#5",
            "ticks": 175890,
            "time": 199.15053640625,
            "velocity": 0.3937007874015748
          },
          {
            "duration": 0.21739099999999212,
            "durationTicks": 192,
            "midi": 59,
            "name": "B3",
            "ticks": 175890,
            "time": 199.15053640625,
            "velocity": 0.3937007874015748
          },
          {
            "duration": 0.10869550000001027,
            "durationTicks": 96,
            "midi": 71,
            "name": "B4",
            "ticks": 175986,
            "time": 199.25923190625,
            "velocity": 0.3937007874015748
          },
          {
            "duration": 0.10869550000001027,
            "durationTicks": 96,
            "midi": 35,
            "name": "B1",
            "ticks": 175986,
            "time": 199.25923190625,
            "velocity": 0.3937007874015748
          },
          {
            "duration": 0.10869550000001027,
            "durationTicks": 96,
            "midi": 47,
            "name": "B2",
            "ticks": 175986,
            "time": 199.25923190625,
            "velocity": 0.3937007874015748
          },
          {
            "duration": 0.21739099999999212,
            "durationTicks": 192,
            "midi": 80,
            "name": "G#5",
            "ticks": 176082,
            "time": 199.36792740625,
            "velocity": 0.3937007874015748
          },
          {
            "duration": 0.21739099999999212,
            "durationTicks": 192,
            "midi": 77,
            "name": "F5",
            "ticks": 176082,
            "time": 199.36792740625,
            "velocity": 0.3937007874015748
          },
          {
            "duration": 0.21739099999999212,
            "durationTicks": 192,
            "midi": 59,
            "name": "B3",
            "ticks": 176082,
            "time": 199.36792740625,
            "velocity": 0.3937007874015748
          },
          {
            "duration": 0.10869550000001027,
            "durationTicks": 96,
            "midi": 46,
            "name": "A#2",
            "ticks": 176082,
            "time": 199.36792740625,
            "velocity": 0.3937007874015748
          },
          {
            "duration": 0.10869550000001027,
            "durationTicks": 96,
            "midi": 34,
            "name": "A#1",
            "ticks": 176082,
            "time": 199.36792740625,
            "velocity": 0.3937007874015748
          },
          {
            "duration": 0.10869550000001027,
            "durationTicks": 96,
            "midi": 75,
            "name": "D#5",
            "ticks": 176082,
            "time": 199.36792740625,
            "velocity": 0.3937007874015748
          },
          {
            "duration": 0.21739099999999212,
            "durationTicks": 192,
            "midi": 54,
            "name": "F#3",
            "ticks": 176082,
            "time": 199.36792740625,
            "velocity": 0.3937007874015748
          },
          {
            "duration": 0.21739099999999212,
            "durationTicks": 192,
            "midi": 63,
            "name": "D#4",
            "ticks": 176082,
            "time": 199.36792740625,
            "velocity": 0.3937007874015748
          },
          {
            "duration": 0.21739099999999212,
            "durationTicks": 192,
            "midi": 68,
            "name": "G#4",
            "ticks": 176082,
            "time": 199.36792740625,
            "velocity": 0.3937007874015748
          },
          {
            "duration": 0.21739099999999212,
            "durationTicks": 192,
            "midi": 65,
            "name": "F4",
            "ticks": 176082,
            "time": 199.36792740625,
            "velocity": 0.3937007874015748
          },
          {
            "duration": 0.10869549999998185,
            "durationTicks": 96,
            "midi": 35,
            "name": "B1",
            "ticks": 176178,
            "time": 199.47662290625001,
            "velocity": 0.3937007874015748
          },
          {
            "duration": 0.10869549999998185,
            "durationTicks": 96,
            "midi": 78,
            "name": "F#5",
            "ticks": 176178,
            "time": 199.47662290625001,
            "velocity": 0.3937007874015748
          },
          {
            "duration": 0.10869549999998185,
            "durationTicks": 96,
            "midi": 47,
            "name": "B2",
            "ticks": 176178,
            "time": 199.47662290625001,
            "velocity": 0.3937007874015748
          },
          {
            "duration": 0.43478200000001266,
            "durationTicks": 384,
            "midi": 82,
            "name": "A#5",
            "ticks": 176274,
            "time": 199.58531840625,
            "velocity": 0.3937007874015748
          },
          {
            "duration": 0.21739099999999212,
            "durationTicks": 192,
            "midi": 63,
            "name": "D#4",
            "ticks": 176274,
            "time": 199.58531840625,
            "velocity": 0.3937007874015748
          },
          {
            "duration": 0.21739099999999212,
            "durationTicks": 192,
            "midi": 59,
            "name": "B3",
            "ticks": 176274,
            "time": 199.58531840625,
            "velocity": 0.3937007874015748
          },
          {
            "duration": 0.10869550000001027,
            "durationTicks": 96,
            "midi": 35,
            "name": "B1",
            "ticks": 176274,
            "time": 199.58531840625,
            "velocity": 0.3937007874015748
          },
          {
            "duration": 0.43478200000001266,
            "durationTicks": 384,
            "midi": 78,
            "name": "F#5",
            "ticks": 176274,
            "time": 199.58531840625,
            "velocity": 0.3937007874015748
          },
          {
            "duration": 0.10869550000001027,
            "durationTicks": 96,
            "midi": 51,
            "name": "D#3",
            "ticks": 176274,
            "time": 199.58531840625,
            "velocity": 0.3937007874015748
          },
          {
            "duration": 0.43478200000001266,
            "durationTicks": 384,
            "midi": 70,
            "name": "A#4",
            "ticks": 176274,
            "time": 199.58531840625,
            "velocity": 0.3937007874015748
          },
          {
            "duration": 0.21739099999999212,
            "durationTicks": 192,
            "midi": 54,
            "name": "F#3",
            "ticks": 176274,
            "time": 199.58531840625,
            "velocity": 0.3937007874015748
          },
          {
            "duration": 0.10869550000001027,
            "durationTicks": 96,
            "midi": 35,
            "name": "B1",
            "ticks": 176274,
            "time": 199.58531840625,
            "velocity": 0.3937007874015748
          },
          {
            "duration": 0.43478200000001266,
            "durationTicks": 384,
            "midi": 66,
            "name": "F#4",
            "ticks": 176274,
            "time": 199.58531840625,
            "velocity": 0.3937007874015748
          },
          {
            "duration": 0.21739099999999212,
            "durationTicks": 192,
            "midi": 34,
            "name": "A#1",
            "ticks": 176274,
            "time": 199.58531840625,
            "velocity": 0.3937007874015748
          },
          {
            "duration": 0.10869549999998185,
            "durationTicks": 96,
            "midi": 54,
            "name": "F#3",
            "ticks": 176370,
            "time": 199.69401390625,
            "velocity": 0.3937007874015748
          },
          {
            "duration": 0.21739100000002054,
            "durationTicks": 192,
            "midi": 63,
            "name": "D#4",
            "ticks": 176466,
            "time": 199.80270940625,
            "velocity": 0.3937007874015748
          },
          {
            "duration": 0.10869550000001027,
            "durationTicks": 96,
            "midi": 59,
            "name": "B3",
            "ticks": 176466,
            "time": 199.80270940625,
            "velocity": 0.3937007874015748
          },
          {
            "duration": 0.21739100000002054,
            "durationTicks": 192,
            "midi": 59,
            "name": "B3",
            "ticks": 176466,
            "time": 199.80270940625,
            "velocity": 0.3937007874015748
          },
          {
            "duration": 0.10869550000001027,
            "durationTicks": 96,
            "midi": 47,
            "name": "B2",
            "ticks": 176466,
            "time": 199.80270940625,
            "velocity": 0.3937007874015748
          },
          {
            "duration": 0.10869550000001027,
            "durationTicks": 96,
            "midi": 35,
            "name": "B1",
            "ticks": 176466,
            "time": 199.80270940625,
            "velocity": 0.3937007874015748
          },
          {
            "duration": 0.21739100000002054,
            "durationTicks": 192,
            "midi": 54,
            "name": "F#3",
            "ticks": 176466,
            "time": 199.80270940625,
            "velocity": 0.3937007874015748
          },
          {
            "duration": 0.10869550000001027,
            "durationTicks": 96,
            "midi": 35,
            "name": "B1",
            "ticks": 176562,
            "time": 199.91140490625,
            "velocity": 0.3937007874015748
          },
          {
            "duration": 0.10869550000001027,
            "durationTicks": 96,
            "midi": 47,
            "name": "B2",
            "ticks": 176562,
            "time": 199.91140490625,
            "velocity": 0.3937007874015748
          },
          {
            "duration": 0.10869550000001027,
            "durationTicks": 96,
            "midi": 63,
            "name": "D#4",
            "ticks": 176562,
            "time": 199.91140490625,
            "velocity": 0.3937007874015748
          },
          {
            "duration": 0.21739099999999212,
            "durationTicks": 192,
            "midi": 59,
            "name": "B3",
            "ticks": 176658,
            "time": 200.02010040625,
            "velocity": 0.3937007874015748
          },
          {
            "duration": 0.21739099999999212,
            "durationTicks": 192,
            "midi": 80,
            "name": "G#5",
            "ticks": 176658,
            "time": 200.02010040625,
            "velocity": 0.3937007874015748
          },
          {
            "duration": 0.21739099999999212,
            "durationTicks": 192,
            "midi": 65,
            "name": "F4",
            "ticks": 176658,
            "time": 200.02010040625,
            "velocity": 0.3937007874015748
          },
          {
            "duration": 0.21739099999999212,
            "durationTicks": 192,
            "midi": 34,
            "name": "A#1",
            "ticks": 176658,
            "time": 200.02010040625,
            "velocity": 0.3937007874015748
          },
          {
            "duration": 0.21739099999999212,
            "durationTicks": 192,
            "midi": 54,
            "name": "F#3",
            "ticks": 176658,
            "time": 200.02010040625,
            "velocity": 0.3937007874015748
          },
          {
            "duration": 0.21739099999999212,
            "durationTicks": 192,
            "midi": 63,
            "name": "D#4",
            "ticks": 176658,
            "time": 200.02010040625,
            "velocity": 0.3937007874015748
          },
          {
            "duration": 0.21739099999999212,
            "durationTicks": 192,
            "midi": 68,
            "name": "G#4",
            "ticks": 176658,
            "time": 200.02010040625,
            "velocity": 0.3937007874015748
          },
          {
            "duration": 0.10869549999998185,
            "durationTicks": 96,
            "midi": 35,
            "name": "B1",
            "ticks": 176658,
            "time": 200.02010040625,
            "velocity": 0.3937007874015748
          },
          {
            "duration": 0.21739099999999212,
            "durationTicks": 192,
            "midi": 77,
            "name": "F5",
            "ticks": 176658,
            "time": 200.02010040625,
            "velocity": 0.3937007874015748
          },
          {
            "duration": 0.10869549999998185,
            "durationTicks": 96,
            "midi": 35,
            "name": "B1",
            "ticks": 176658,
            "time": 200.02010040625,
            "velocity": 0.3937007874015748
          },
          {
            "duration": 0.10869549999998185,
            "durationTicks": 96,
            "midi": 66,
            "name": "F#4",
            "ticks": 176658,
            "time": 200.02010040625,
            "velocity": 0.3937007874015748
          },
          {
            "duration": 0.10869550000001027,
            "durationTicks": 96,
            "midi": 35,
            "name": "B1",
            "ticks": 176754,
            "time": 200.12879590625,
            "velocity": 0.3937007874015748
          },
          {
            "duration": 0.10869550000001027,
            "durationTicks": 96,
            "midi": 71,
            "name": "B4",
            "ticks": 176754,
            "time": 200.12879590625,
            "velocity": 0.3937007874015748
          },
          {
            "duration": 0.10869550000001027,
            "durationTicks": 96,
            "midi": 47,
            "name": "B2",
            "ticks": 176754,
            "time": 200.12879590625,
            "velocity": 0.3937007874015748
          },
          {
            "duration": 0.10869550000001027,
            "durationTicks": 96,
            "midi": 46,
            "name": "A#2",
            "ticks": 176850,
            "time": 200.23749140625,
            "velocity": 0.3937007874015748
          },
          {
            "duration": 0.21739099999999212,
            "durationTicks": 192,
            "midi": 63,
            "name": "D#4",
            "ticks": 176850,
            "time": 200.23749140625,
            "velocity": 0.3937007874015748
          },
          {
            "duration": 0.21739099999999212,
            "durationTicks": 192,
            "midi": 59,
            "name": "B3",
            "ticks": 176850,
            "time": 200.23749140625,
            "velocity": 0.3937007874015748
          },
          {
            "duration": 0.21739099999999212,
            "durationTicks": 192,
            "midi": 66,
            "name": "F#4",
            "ticks": 176850,
            "time": 200.23749140625,
            "velocity": 0.3937007874015748
          },
          {
            "duration": 0.21739099999999212,
            "durationTicks": 192,
            "midi": 63,
            "name": "D#4",
            "ticks": 176850,
            "time": 200.23749140625,
            "velocity": 0.3937007874015748
          },
          {
            "duration": 0.10869550000001027,
            "durationTicks": 96,
            "midi": 75,
            "name": "D#5",
            "ticks": 176850,
            "time": 200.23749140625,
            "velocity": 0.3937007874015748
          },
          {
            "duration": 0.21739099999999212,
            "durationTicks": 192,
            "midi": 54,
            "name": "F#3",
            "ticks": 176850,
            "time": 200.23749140625,
            "velocity": 0.3937007874015748
          },
          {
            "duration": 0.21739099999999212,
            "durationTicks": 192,
            "midi": 78,
            "name": "F#5",
            "ticks": 176850,
            "time": 200.23749140625,
            "velocity": 0.3937007874015748
          },
          {
            "duration": 0.21739099999999212,
            "durationTicks": 192,
            "midi": 75,
            "name": "D#5",
            "ticks": 176850,
            "time": 200.23749140625,
            "velocity": 0.3937007874015748
          },
          {
            "duration": 0.10869550000001027,
            "durationTicks": 96,
            "midi": 34,
            "name": "A#1",
            "ticks": 176850,
            "time": 200.23749140625,
            "velocity": 0.3937007874015748
          },
          {
            "duration": 0.10869549999998185,
            "durationTicks": 96,
            "midi": 47,
            "name": "B2",
            "ticks": 176946,
            "time": 200.34618690625,
            "velocity": 0.3937007874015748
          },
          {
            "duration": 0.10869549999998185,
            "durationTicks": 96,
            "midi": 78,
            "name": "F#5",
            "ticks": 176946,
            "time": 200.34618690625,
            "velocity": 0.3937007874015748
          },
          {
            "duration": 0.10869549999998185,
            "durationTicks": 96,
            "midi": 35,
            "name": "B1",
            "ticks": 176946,
            "time": 200.34618690625,
            "velocity": 0.3937007874015748
          },
          {
            "duration": 0.6521730000000048,
            "durationTicks": 576,
            "midi": 87,
            "name": "D#6",
            "ticks": 176994,
            "time": 200.40053465625,
            "velocity": 0.3937007874015748
          },
          {
            "duration": 0.21739100000002054,
            "durationTicks": 192,
            "midi": 77,
            "name": "F5",
            "ticks": 177042,
            "time": 200.45488240625,
            "velocity": 0.3937007874015748
          },
          {
            "duration": 0.21739100000002054,
            "durationTicks": 192,
            "midi": 34,
            "name": "A#1",
            "ticks": 177042,
            "time": 200.45488240625,
            "velocity": 0.3937007874015748
          },
          {
            "duration": 0.10869550000001027,
            "durationTicks": 96,
            "midi": 37,
            "name": "C#2",
            "ticks": 177042,
            "time": 200.45488240625,
            "velocity": 0.3937007874015748
          },
          {
            "duration": 0.21739100000002054,
            "durationTicks": 192,
            "midi": 65,
            "name": "F4",
            "ticks": 177042,
            "time": 200.45488240625,
            "velocity": 0.3937007874015748
          },
          {
            "duration": 0.10869550000001027,
            "durationTicks": 96,
            "midi": 25,
            "name": "C#1",
            "ticks": 177042,
            "time": 200.45488240625,
            "velocity": 0.3937007874015748
          },
          {
            "duration": 0.21739100000002054,
            "durationTicks": 192,
            "midi": 61,
            "name": "C#4",
            "ticks": 177042,
            "time": 200.45488240625,
            "velocity": 0.3937007874015748
          },
          {
            "duration": 0.10869550000001027,
            "durationTicks": 96,
            "midi": 49,
            "name": "C#3",
            "ticks": 177042,
            "time": 200.45488240625,
            "velocity": 0.3937007874015748
          },
          {
            "duration": 0.21739100000002054,
            "durationTicks": 192,
            "midi": 56,
            "name": "G#3",
            "ticks": 177042,
            "time": 200.45488240625,
            "velocity": 0.3937007874015748
          },
          {
            "duration": 0.21739100000002054,
            "durationTicks": 192,
            "midi": 73,
            "name": "C#5",
            "ticks": 177042,
            "time": 200.45488240625,
            "velocity": 0.3937007874015748
          },
          {
            "duration": 0.21739100000002054,
            "durationTicks": 192,
            "midi": 61,
            "name": "C#4",
            "ticks": 177042,
            "time": 200.45488240625,
            "velocity": 0.3937007874015748
          },
          {
            "duration": 0.21739100000002054,
            "durationTicks": 192,
            "midi": 53,
            "name": "F3",
            "ticks": 177042,
            "time": 200.45488240625,
            "velocity": 0.3937007874015748
          },
          {
            "duration": 0.10869550000001027,
            "durationTicks": 96,
            "midi": 53,
            "name": "F3",
            "ticks": 177138,
            "time": 200.56357790625,
            "velocity": 0.3937007874015748
          },
          {
            "duration": 0.21739099999999212,
            "durationTicks": 192,
            "midi": 61,
            "name": "C#4",
            "ticks": 177234,
            "time": 200.67227340625,
            "velocity": 0.3937007874015748
          },
          {
            "duration": 0.10869549999998185,
            "durationTicks": 96,
            "midi": 49,
            "name": "C#3",
            "ticks": 177234,
            "time": 200.67227340625,
            "velocity": 0.3937007874015748
          },
          {
            "duration": 0.21739099999999212,
            "durationTicks": 192,
            "midi": 53,
            "name": "F3",
            "ticks": 177234,
            "time": 200.67227340625,
            "velocity": 0.3937007874015748
          },
          {
            "duration": 0.10869549999998185,
            "durationTicks": 96,
            "midi": 37,
            "name": "C#2",
            "ticks": 177234,
            "time": 200.67227340625,
            "velocity": 0.3937007874015748
          },
          {
            "duration": 0.10869549999998185,
            "durationTicks": 96,
            "midi": 56,
            "name": "G#3",
            "ticks": 177234,
            "time": 200.67227340625,
            "velocity": 0.3937007874015748
          },
          {
            "duration": 0.21739099999999212,
            "durationTicks": 192,
            "midi": 56,
            "name": "G#3",
            "ticks": 177234,
            "time": 200.67227340625,
            "velocity": 0.3937007874015748
          },
          {
            "duration": 0.10869550000001027,
            "durationTicks": 96,
            "midi": 61,
            "name": "C#4",
            "ticks": 177330,
            "time": 200.78096890625,
            "velocity": 0.3937007874015748
          },
          {
            "duration": 0.10869550000001027,
            "durationTicks": 96,
            "midi": 37,
            "name": "C#2",
            "ticks": 177330,
            "time": 200.78096890625,
            "velocity": 0.3937007874015748
          },
          {
            "duration": 0.10869550000001027,
            "durationTicks": 96,
            "midi": 49,
            "name": "C#3",
            "ticks": 177330,
            "time": 200.78096890625,
            "velocity": 0.3937007874015748
          },
          {
            "duration": 0.21739099999999212,
            "durationTicks": 192,
            "midi": 56,
            "name": "G#3",
            "ticks": 177426,
            "time": 200.88966440625,
            "velocity": 0.3937007874015748
          },
          {
            "duration": 0.21739099999999212,
            "durationTicks": 192,
            "midi": 53,
            "name": "F3",
            "ticks": 177426,
            "time": 200.88966440625,
            "velocity": 0.3937007874015748
          },
          {
            "duration": 0.21739099999999212,
            "durationTicks": 192,
            "midi": 63,
            "name": "D#4",
            "ticks": 177426,
            "time": 200.88966440625,
            "velocity": 0.3937007874015748
          },
          {
            "duration": 0.21739099999999212,
            "durationTicks": 192,
            "midi": 75,
            "name": "D#5",
            "ticks": 177426,
            "time": 200.88966440625,
            "velocity": 0.3937007874015748
          },
          {
            "duration": 0.21739099999999212,
            "durationTicks": 192,
            "midi": 34,
            "name": "A#1",
            "ticks": 177426,
            "time": 200.88966440625,
            "velocity": 0.3937007874015748
          },
          {
            "duration": 0.10869549999998185,
            "durationTicks": 96,
            "midi": 37,
            "name": "C#2",
            "ticks": 177426,
            "time": 200.88966440625,
            "velocity": 0.3937007874015748
          },
          {
            "duration": 0.21739099999999212,
            "durationTicks": 192,
            "midi": 61,
            "name": "C#4",
            "ticks": 177426,
            "time": 200.88966440625,
            "velocity": 0.3937007874015748
          },
          {
            "duration": 0.10869549999998185,
            "durationTicks": 96,
            "midi": 65,
            "name": "F4",
            "ticks": 177426,
            "time": 200.88966440625,
            "velocity": 0.3937007874015748
          },
          {
            "duration": 0.21739099999999212,
            "durationTicks": 192,
            "midi": 78,
            "name": "F#5",
            "ticks": 177426,
            "time": 200.88966440625,
            "velocity": 0.3937007874015748
          },
          {
            "duration": 0.10869549999998185,
            "durationTicks": 96,
            "midi": 25,
            "name": "C#1",
            "ticks": 177426,
            "time": 200.88966440625,
            "velocity": 0.3937007874015748
          },
          {
            "duration": 0.21739099999999212,
            "durationTicks": 192,
            "midi": 66,
            "name": "F#4",
            "ticks": 177426,
            "time": 200.88966440625,
            "velocity": 0.3937007874015748
          },
          {
            "duration": 0.10869550000001027,
            "durationTicks": 96,
            "midi": 68,
            "name": "G#4",
            "ticks": 177522,
            "time": 200.99835990625,
            "velocity": 0.3937007874015748
          },
          {
            "duration": 0.10869550000001027,
            "durationTicks": 96,
            "midi": 49,
            "name": "C#3",
            "ticks": 177522,
            "time": 200.99835990625,
            "velocity": 0.3937007874015748
          },
          {
            "duration": 0.10869550000001027,
            "durationTicks": 96,
            "midi": 37,
            "name": "C#2",
            "ticks": 177522,
            "time": 200.99835990625,
            "velocity": 0.3937007874015748
          },
          {
            "duration": 0.10869550000001027,
            "durationTicks": 96,
            "midi": 47,
            "name": "B2",
            "ticks": 177618,
            "time": 201.10705540625,
            "velocity": 0.3937007874015748
          },
          {
            "duration": 0.10869550000001027,
            "durationTicks": 96,
            "midi": 73,
            "name": "C#5",
            "ticks": 177618,
            "time": 201.10705540625,
            "velocity": 0.3937007874015748
          },
          {
            "duration": 0.21739099999999212,
            "durationTicks": 192,
            "midi": 56,
            "name": "G#3",
            "ticks": 177618,
            "time": 201.10705540625,
            "velocity": 0.3937007874015748
          },
          {
            "duration": 0.10869550000001027,
            "durationTicks": 96,
            "midi": 35,
            "name": "B1",
            "ticks": 177618,
            "time": 201.10705540625,
            "velocity": 0.3937007874015748
          },
          {
            "duration": 0.21739099999999212,
            "durationTicks": 192,
            "midi": 53,
            "name": "F3",
            "ticks": 177618,
            "time": 201.10705540625,
            "velocity": 0.3937007874015748
          },
          {
            "duration": 0.21739099999999212,
            "durationTicks": 192,
            "midi": 61,
            "name": "C#4",
            "ticks": 177618,
            "time": 201.10705540625,
            "velocity": 0.3937007874015748
          },
          {
            "duration": 0.10869549999998185,
            "durationTicks": 96,
            "midi": 49,
            "name": "C#3",
            "ticks": 177714,
            "time": 201.21575090625,
            "velocity": 0.3937007874015748
          },
          {
            "duration": 0.10869549999998185,
            "durationTicks": 96,
            "midi": 37,
            "name": "C#2",
            "ticks": 177714,
            "time": 201.21575090625,
            "velocity": 0.3937007874015748
          },
          {
            "duration": 0.10869549999998185,
            "durationTicks": 96,
            "midi": 77,
            "name": "F5",
            "ticks": 177714,
            "time": 201.21575090625,
            "velocity": 0.3937007874015748
          },
          {
            "duration": 0.4359142447916895,
            "durationTicks": 385,
            "midi": 80,
            "name": "G#5",
            "ticks": 177810,
            "time": 201.32444640625,
            "velocity": 0.3937007874015748
          },
          {
            "duration": 0.4359142447916895,
            "durationTicks": 385,
            "midi": 77,
            "name": "F5",
            "ticks": 177810,
            "time": 201.32444640625,
            "velocity": 0.3937007874015748
          },
          {
            "duration": 0.10869550000001027,
            "durationTicks": 96,
            "midi": 62,
            "name": "D4",
            "ticks": 177810,
            "time": 201.32444640625,
            "velocity": 0.3937007874015748
          },
          {
            "duration": 0.10869550000001027,
            "durationTicks": 96,
            "midi": 53,
            "name": "F3",
            "ticks": 177810,
            "time": 201.32444640625,
            "velocity": 0.3937007874015748
          },
          {
            "duration": 0.10869550000001027,
            "durationTicks": 96,
            "midi": 50,
            "name": "D3",
            "ticks": 177810,
            "time": 201.32444640625,
            "velocity": 0.3937007874015748
          },
          {
            "duration": 0.4359142447916895,
            "durationTicks": 385,
            "midi": 68,
            "name": "G#4",
            "ticks": 177810,
            "time": 201.32444640625,
            "velocity": 0.3937007874015748
          },
          {
            "duration": 0.21739100000002054,
            "durationTicks": 192,
            "midi": 34,
            "name": "A#1",
            "ticks": 177810,
            "time": 201.32444640625,
            "velocity": 0.3937007874015748
          },
          {
            "duration": 0.10869550000001027,
            "durationTicks": 96,
            "midi": 58,
            "name": "A#3",
            "ticks": 177810,
            "time": 201.32444640625,
            "velocity": 0.3937007874015748
          },
          {
            "duration": 0.10869550000001027,
            "durationTicks": 96,
            "midi": 50,
            "name": "D3",
            "ticks": 177810,
            "time": 201.32444640625,
            "velocity": 0.3937007874015748
          },
          {
            "duration": 0.10869550000001027,
            "durationTicks": 96,
            "midi": 38,
            "name": "D2",
            "ticks": 177810,
            "time": 201.32444640625,
            "velocity": 0.3937007874015748
          },
          {
            "duration": 0.4359142447916895,
            "durationTicks": 385,
            "midi": 65,
            "name": "F4",
            "ticks": 177810,
            "time": 201.32444640625,
            "velocity": 0.3937007874015748
          },
          {
            "duration": 0.10869550000001027,
            "durationTicks": 96,
            "midi": 53,
            "name": "F3",
            "ticks": 177906,
            "time": 201.43314190625,
            "velocity": 0.3937007874015748
          },
          {
            "duration": 0.10869550000001027,
            "durationTicks": 96,
            "midi": 53,
            "name": "F3",
            "ticks": 177938,
            "time": 201.46937373958332,
            "velocity": 0.3937007874015748
          },
          {
            "duration": 0.10869550000001027,
            "durationTicks": 96,
            "midi": 62,
            "name": "D4",
            "ticks": 177938,
            "time": 201.46937373958332,
            "velocity": 0.3937007874015748
          },
          {
            "duration": 0.10869550000001027,
            "durationTicks": 96,
            "midi": 58,
            "name": "A#3",
            "ticks": 177938,
            "time": 201.46937373958332,
            "velocity": 0.3937007874015748
          },
          {
            "duration": 0.10982774479165869,
            "durationTicks": 97,
            "midi": 36,
            "name": "C2",
            "ticks": 178002,
            "time": 201.54183740625,
            "velocity": 0.3937007874015748
          },
          {
            "duration": 0.10982774479165869,
            "durationTicks": 97,
            "midi": 48,
            "name": "C3",
            "ticks": 178002,
            "time": 201.54183740625,
            "velocity": 0.3937007874015748
          },
          {
            "duration": 0.10982774479165869,
            "durationTicks": 97,
            "midi": 58,
            "name": "A#3",
            "ticks": 178002,
            "time": 201.54183740625,
            "velocity": 0.3937007874015748
          },
          {
            "duration": 0.10869550000001027,
            "durationTicks": 96,
            "midi": 53,
            "name": "F3",
            "ticks": 178067,
            "time": 201.61543331770832,
            "velocity": 0.3937007874015748
          },
          {
            "duration": 0.10869550000001027,
            "durationTicks": 96,
            "midi": 62,
            "name": "D4",
            "ticks": 178067,
            "time": 201.61543331770832,
            "velocity": 0.3937007874015748
          },
          {
            "duration": 0.10869550000001027,
            "durationTicks": 96,
            "midi": 58,
            "name": "A#3",
            "ticks": 178067,
            "time": 201.61543331770832,
            "velocity": 0.3937007874015748
          },
          {
            "duration": 0.10869550000001027,
            "durationTicks": 96,
            "midi": 62,
            "name": "D4",
            "ticks": 178099,
            "time": 201.65166515104167,
            "velocity": 0.3937007874015748
          },
          {
            "duration": 0.10869550000001027,
            "durationTicks": 96,
            "midi": 50,
            "name": "D3",
            "ticks": 178099,
            "time": 201.65166515104167,
            "velocity": 0.3937007874015748
          },
          {
            "duration": 0.10869550000001027,
            "durationTicks": 96,
            "midi": 38,
            "name": "D2",
            "ticks": 178099,
            "time": 201.65166515104167,
            "velocity": 0.3937007874015748
          },
          {
            "duration": 0.43591424479163265,
            "durationTicks": 385,
            "midi": 82,
            "name": "A#5",
            "ticks": 178195,
            "time": 201.76036065104168,
            "velocity": 0.3937007874015748
          },
          {
            "duration": 0.21739099999999212,
            "durationTicks": 192,
            "midi": 70,
            "name": "A#4",
            "ticks": 178195,
            "time": 201.76036065104168,
            "velocity": 0.3937007874015748
          },
          {
            "duration": 0.21739099999999212,
            "durationTicks": 192,
            "midi": 34,
            "name": "A#1",
            "ticks": 178195,
            "time": 201.76036065104168,
            "velocity": 0.3937007874015748
          },
          {
            "duration": 0.43591424479163265,
            "durationTicks": 385,
            "midi": 66,
            "name": "F#4",
            "ticks": 178195,
            "time": 201.76036065104168,
            "velocity": 0.3937007874015748
          },
          {
            "duration": 0.43591424479163265,
            "durationTicks": 385,
            "midi": 78,
            "name": "F#5",
            "ticks": 178195,
            "time": 201.76036065104168,
            "velocity": 0.3937007874015748
          },
          {
            "duration": 0.10869550000001027,
            "durationTicks": 96,
            "midi": 62,
            "name": "D4",
            "ticks": 178195,
            "time": 201.76036065104168,
            "velocity": 0.3937007874015748
          },
          {
            "duration": 0.10869550000001027,
            "durationTicks": 96,
            "midi": 41,
            "name": "F2",
            "ticks": 178195,
            "time": 201.76036065104168,
            "velocity": 0.3937007874015748
          },
          {
            "duration": 0.10869550000001027,
            "durationTicks": 96,
            "midi": 53,
            "name": "F3",
            "ticks": 178195,
            "time": 201.76036065104168,
            "velocity": 0.3937007874015748
          },
          {
            "duration": 0.10869550000001027,
            "durationTicks": 96,
            "midi": 65,
            "name": "F4",
            "ticks": 178195,
            "time": 201.76036065104168,
            "velocity": 0.3937007874015748
          },
          {
            "duration": 0.10869550000001027,
            "durationTicks": 96,
            "midi": 53,
            "name": "F3",
            "ticks": 178195,
            "time": 201.76036065104168,
            "velocity": 0.3937007874015748
          },
          {
            "duration": 0.10869550000001027,
            "durationTicks": 96,
            "midi": 58,
            "name": "A#3",
            "ticks": 178195,
            "time": 201.76036065104168,
            "velocity": 0.3937007874015748
          },
          {
            "duration": 0.3272187447916224,
            "durationTicks": 289,
            "midi": 70,
            "name": "A#4",
            "ticks": 178291,
            "time": 201.8690561510417,
            "velocity": 0.3937007874015748
          },
          {
            "duration": 0.10869549999998185,
            "durationTicks": 96,
            "midi": 53,
            "name": "F3",
            "ticks": 178323,
            "time": 201.905287984375,
            "velocity": 0.3937007874015748
          },
          {
            "duration": 0.10869549999998185,
            "durationTicks": 96,
            "midi": 62,
            "name": "D4",
            "ticks": 178323,
            "time": 201.905287984375,
            "velocity": 0.3937007874015748
          },
          {
            "duration": 0.10869549999998185,
            "durationTicks": 96,
            "midi": 58,
            "name": "A#3",
            "ticks": 178323,
            "time": 201.905287984375,
            "velocity": 0.3937007874015748
          },
          {
            "duration": 0.10982774479165869,
            "durationTicks": 97,
            "midi": 39,
            "name": "D#2",
            "ticks": 178387,
            "time": 201.97775165104167,
            "velocity": 0.3937007874015748
          },
          {
            "duration": 0.10982774479165869,
            "durationTicks": 97,
            "midi": 51,
            "name": "D#3",
            "ticks": 178387,
            "time": 201.97775165104167,
            "velocity": 0.3937007874015748
          },
          {
            "duration": 0.10982774479165869,
            "durationTicks": 97,
            "midi": 74,
            "name": "D5",
            "ticks": 178387,
            "time": 201.97775165104167,
            "velocity": 0.3937007874015748
          },
          {
            "duration": 0.10869549999998185,
            "durationTicks": 96,
            "midi": 53,
            "name": "F3",
            "ticks": 178452,
            "time": 202.0513475625,
            "velocity": 0.3937007874015748
          },
          {
            "duration": 0.10869549999998185,
            "durationTicks": 96,
            "midi": 62,
            "name": "D4",
            "ticks": 178452,
            "time": 202.0513475625,
            "velocity": 0.3937007874015748
          },
          {
            "duration": 0.10869549999998185,
            "durationTicks": 96,
            "midi": 58,
            "name": "A#3",
            "ticks": 178452,
            "time": 202.0513475625,
            "velocity": 0.3937007874015748
          },
          {
            "duration": 0.10869549999998185,
            "durationTicks": 96,
            "midi": 53,
            "name": "F3",
            "ticks": 178484,
            "time": 202.08757939583333,
            "velocity": 0.3937007874015748
          },
          {
            "duration": 0.10869549999998185,
            "durationTicks": 96,
            "midi": 41,
            "name": "F2",
            "ticks": 178484,
            "time": 202.08757939583333,
            "velocity": 0.3937007874015748
          },
          {
            "duration": 0.10869549999998185,
            "durationTicks": 96,
            "midi": 77,
            "name": "F5",
            "ticks": 178484,
            "time": 202.08757939583333,
            "velocity": 0.3937007874015748
          },
          {
            "duration": 0.10869550000001027,
            "durationTicks": 96,
            "midi": 87,
            "name": "D#6",
            "ticks": 178580,
            "time": 202.1962748958333,
            "velocity": 0.3937007874015748
          },
          {
            "duration": 0.21739100000002054,
            "durationTicks": 192,
            "midi": 85,
            "name": "C#6",
            "ticks": 178580,
            "time": 202.1962748958333,
            "velocity": 0.3937007874015748
          },
          {
            "duration": 0.10869550000001027,
            "durationTicks": 96,
            "midi": 35,
            "name": "B1",
            "ticks": 178580,
            "time": 202.1962748958333,
            "velocity": 0.3937007874015748
          },
          {
            "duration": 0.10869550000001027,
            "durationTicks": 96,
            "midi": 35,
            "name": "B1",
            "ticks": 178580,
            "time": 202.1962748958333,
            "velocity": 0.3937007874015748
          },
          {
            "duration": 0.10869550000001027,
            "durationTicks": 96,
            "midi": 47,
            "name": "B2",
            "ticks": 178580,
            "time": 202.1962748958333,
            "velocity": 0.3937007874015748
          },
          {
            "duration": 0.21739100000002054,
            "durationTicks": 192,
            "midi": 80,
            "name": "G#5",
            "ticks": 178580,
            "time": 202.1962748958333,
            "velocity": 0.3937007874015748
          },
          {
            "duration": 0.21739100000002054,
            "durationTicks": 192,
            "midi": 73,
            "name": "C#5",
            "ticks": 178580,
            "time": 202.1962748958333,
            "velocity": 0.3937007874015748
          },
          {
            "duration": 0.21739100000002054,
            "durationTicks": 192,
            "midi": 59,
            "name": "B3",
            "ticks": 178580,
            "time": 202.1962748958333,
            "velocity": 0.3937007874015748
          },
          {
            "duration": 0.21739100000002054,
            "durationTicks": 192,
            "midi": 54,
            "name": "F#3",
            "ticks": 178580,
            "time": 202.1962748958333,
            "velocity": 0.3937007874015748
          },
          {
            "duration": 0.21739100000002054,
            "durationTicks": 192,
            "midi": 34,
            "name": "A#1",
            "ticks": 178580,
            "time": 202.1962748958333,
            "velocity": 0.3937007874015748
          },
          {
            "duration": 0.21739100000002054,
            "durationTicks": 192,
            "midi": 51,
            "name": "D#3",
            "ticks": 178580,
            "time": 202.1962748958333,
            "velocity": 0.3937007874015748
          },
          {
            "duration": 0.21739100000002054,
            "durationTicks": 192,
            "midi": 68,
            "name": "G#4",
            "ticks": 178580,
            "time": 202.1962748958333,
            "velocity": 0.3937007874015748
          },
          {
            "duration": 0.10869550000001027,
            "durationTicks": 96,
            "midi": 51,
            "name": "D#3",
            "ticks": 178676,
            "time": 202.30497039583332,
            "velocity": 0.3937007874015748
          },
          {
            "duration": 0.10869550000001027,
            "durationTicks": 96,
            "midi": 87,
            "name": "D#6",
            "ticks": 178676,
            "time": 202.30497039583332,
            "velocity": 0.3937007874015748
          },
          {
            "duration": 0.21739099999999212,
            "durationTicks": 192,
            "midi": 70,
            "name": "A#4",
            "ticks": 178772,
            "time": 202.41366589583333,
            "velocity": 0.3937007874015748
          },
          {
            "duration": 0.21739099999999212,
            "durationTicks": 192,
            "midi": 75,
            "name": "D#5",
            "ticks": 178772,
            "time": 202.41366589583333,
            "velocity": 0.3937007874015748
          },
          {
            "duration": 0.21739099999999212,
            "durationTicks": 192,
            "midi": 87,
            "name": "D#6",
            "ticks": 178772,
            "time": 202.41366589583333,
            "velocity": 0.3937007874015748
          },
          {
            "duration": 0.21739099999999212,
            "durationTicks": 192,
            "midi": 51,
            "name": "D#3",
            "ticks": 178772,
            "time": 202.41366589583333,
            "velocity": 0.3937007874015748
          },
          {
            "duration": 0.21739099999999212,
            "durationTicks": 192,
            "midi": 82,
            "name": "A#5",
            "ticks": 178772,
            "time": 202.41366589583333,
            "velocity": 0.3937007874015748
          },
          {
            "duration": 0.21739099999999212,
            "durationTicks": 192,
            "midi": 59,
            "name": "B3",
            "ticks": 178772,
            "time": 202.41366589583333,
            "velocity": 0.3937007874015748
          },
          {
            "duration": 0.10869549999998185,
            "durationTicks": 96,
            "midi": 54,
            "name": "F#3",
            "ticks": 178772,
            "time": 202.41366589583333,
            "velocity": 0.3937007874015748
          },
          {
            "duration": 0.21739099999999212,
            "durationTicks": 192,
            "midi": 54,
            "name": "F#3",
            "ticks": 178772,
            "time": 202.41366589583333,
            "velocity": 0.3937007874015748
          },
          {
            "duration": 0.10869549999998185,
            "durationTicks": 96,
            "midi": 47,
            "name": "B2",
            "ticks": 178772,
            "time": 202.41366589583333,
            "velocity": 0.3937007874015748
          },
          {
            "duration": 0.10869549999998185,
            "durationTicks": 96,
            "midi": 86,
            "name": "D6",
            "ticks": 178772,
            "time": 202.41366589583333,
            "velocity": 0.3937007874015748
          },
          {
            "duration": 0.10869549999998185,
            "durationTicks": 96,
            "midi": 35,
            "name": "B1",
            "ticks": 178772,
            "time": 202.41366589583333,
            "velocity": 0.3937007874015748
          },
          {
            "duration": 0.10869550000001027,
            "durationTicks": 96,
            "midi": 47,
            "name": "B2",
            "ticks": 178868,
            "time": 202.52236139583331,
            "velocity": 0.3937007874015748
          },
          {
            "duration": 0.10869550000001027,
            "durationTicks": 96,
            "midi": 86,
            "name": "D6",
            "ticks": 178868,
            "time": 202.52236139583331,
            "velocity": 0.3937007874015748
          },
          {
            "duration": 0.10869550000001027,
            "durationTicks": 96,
            "midi": 59,
            "name": "B3",
            "ticks": 178868,
            "time": 202.52236139583331,
            "velocity": 0.3937007874015748
          },
          {
            "duration": 0.10869550000001027,
            "durationTicks": 96,
            "midi": 35,
            "name": "B1",
            "ticks": 178868,
            "time": 202.52236139583331,
            "velocity": 0.3937007874015748
          },
          {
            "duration": 0.10869550000001027,
            "durationTicks": 96,
            "midi": 63,
            "name": "D#4",
            "ticks": 178964,
            "time": 202.63105689583332,
            "velocity": 0.3937007874015748
          },
          {
            "duration": 0.21739099999999212,
            "durationTicks": 192,
            "midi": 78,
            "name": "F#5",
            "ticks": 178964,
            "time": 202.63105689583332,
            "velocity": 0.3937007874015748
          },
          {
            "duration": 0.21739099999999212,
            "durationTicks": 192,
            "midi": 51,
            "name": "D#3",
            "ticks": 178964,
            "time": 202.63105689583332,
            "velocity": 0.3937007874015748
          },
          {
            "duration": 0.10869550000001027,
            "durationTicks": 96,
            "midi": 35,
            "name": "B1",
            "ticks": 178964,
            "time": 202.63105689583332,
            "velocity": 0.3937007874015748
          },
          {
            "duration": 0.21739099999999212,
            "durationTicks": 192,
            "midi": 70,
            "name": "A#4",
            "ticks": 178964,
            "time": 202.63105689583332,
            "velocity": 0.3937007874015748
          },
          {
            "duration": 0.21739099999999212,
            "durationTicks": 192,
            "midi": 34,
            "name": "A#1",
            "ticks": 178964,
            "time": 202.63105689583332,
            "velocity": 0.3937007874015748
          },
          {
            "duration": 0.21739099999999212,
            "durationTicks": 192,
            "midi": 82,
            "name": "A#5",
            "ticks": 178964,
            "time": 202.63105689583332,
            "velocity": 0.3937007874015748
          },
          {
            "duration": 0.21739099999999212,
            "durationTicks": 192,
            "midi": 54,
            "name": "F#3",
            "ticks": 178964,
            "time": 202.63105689583332,
            "velocity": 0.3937007874015748
          },
          {
            "duration": 0.10869550000001027,
            "durationTicks": 96,
            "midi": 85,
            "name": "C#6",
            "ticks": 178964,
            "time": 202.63105689583332,
            "velocity": 0.3937007874015748
          },
          {
            "duration": 0.21739099999999212,
            "durationTicks": 192,
            "midi": 59,
            "name": "B3",
            "ticks": 178964,
            "time": 202.63105689583332,
            "velocity": 0.3937007874015748
          },
          {
            "duration": 0.21739099999999212,
            "durationTicks": 192,
            "midi": 66,
            "name": "F#4",
            "ticks": 178964,
            "time": 202.63105689583332,
            "velocity": 0.3937007874015748
          },
          {
            "duration": 0.10869550000001027,
            "durationTicks": 96,
            "midi": 35,
            "name": "B1",
            "ticks": 178964,
            "time": 202.63105689583332,
            "velocity": 0.3937007874015748
          },
          {
            "duration": 0.10869549999998185,
            "durationTicks": 96,
            "midi": 66,
            "name": "F#4",
            "ticks": 179060,
            "time": 202.73975239583334,
            "velocity": 0.3937007874015748
          },
          {
            "duration": 0.10869549999998185,
            "durationTicks": 96,
            "midi": 35,
            "name": "B1",
            "ticks": 179060,
            "time": 202.73975239583334,
            "velocity": 0.3937007874015748
          },
          {
            "duration": 0.10869549999998185,
            "durationTicks": 96,
            "midi": 85,
            "name": "C#6",
            "ticks": 179060,
            "time": 202.73975239583334,
            "velocity": 0.3937007874015748
          },
          {
            "duration": 0.10869549999998185,
            "durationTicks": 96,
            "midi": 47,
            "name": "B2",
            "ticks": 179060,
            "time": 202.73975239583334,
            "velocity": 0.3937007874015748
          },
          {
            "duration": 0.21739100000002054,
            "durationTicks": 192,
            "midi": 68,
            "name": "G#4",
            "ticks": 179156,
            "time": 202.84844789583332,
            "velocity": 0.3937007874015748
          },
          {
            "duration": 0.21739100000002054,
            "durationTicks": 192,
            "midi": 54,
            "name": "F#3",
            "ticks": 179156,
            "time": 202.84844789583332,
            "velocity": 0.3937007874015748
          },
          {
            "duration": 0.21739100000002054,
            "durationTicks": 192,
            "midi": 65,
            "name": "F4",
            "ticks": 179156,
            "time": 202.84844789583332,
            "velocity": 0.3937007874015748
          },
          {
            "duration": 0.21739100000002054,
            "durationTicks": 192,
            "midi": 59,
            "name": "B3",
            "ticks": 179156,
            "time": 202.84844789583332,
            "velocity": 0.3937007874015748
          },
          {
            "duration": 0.10869550000001027,
            "durationTicks": 96,
            "midi": 46,
            "name": "A#2",
            "ticks": 179156,
            "time": 202.84844789583332,
            "velocity": 0.3937007874015748
          },
          {
            "duration": 0.10869550000001027,
            "durationTicks": 96,
            "midi": 34,
            "name": "A#1",
            "ticks": 179156,
            "time": 202.84844789583332,
            "velocity": 0.3937007874015748
          },
          {
            "duration": 0.10869550000001027,
            "durationTicks": 96,
            "midi": 84,
            "name": "C6",
            "ticks": 179156,
            "time": 202.84844789583332,
            "velocity": 0.3937007874015748
          },
          {
            "duration": 0.10869550000001027,
            "durationTicks": 96,
            "midi": 71,
            "name": "B4",
            "ticks": 179156,
            "time": 202.84844789583332,
            "velocity": 0.3937007874015748
          },
          {
            "duration": 0.21739100000002054,
            "durationTicks": 192,
            "midi": 77,
            "name": "F5",
            "ticks": 179156,
            "time": 202.84844789583332,
            "velocity": 0.3937007874015748
          },
          {
            "duration": 0.21739100000002054,
            "durationTicks": 192,
            "midi": 51,
            "name": "D#3",
            "ticks": 179156,
            "time": 202.84844789583332,
            "velocity": 0.3937007874015748
          },
          {
            "duration": 0.21739100000002054,
            "durationTicks": 192,
            "midi": 80,
            "name": "G#5",
            "ticks": 179156,
            "time": 202.84844789583332,
            "velocity": 0.3937007874015748
          },
          {
            "duration": 0.10869550000001027,
            "durationTicks": 96,
            "midi": 47,
            "name": "B2",
            "ticks": 179252,
            "time": 202.95714339583333,
            "velocity": 0.3937007874015748
          },
          {
            "duration": 0.10869550000001027,
            "durationTicks": 96,
            "midi": 35,
            "name": "B1",
            "ticks": 179252,
            "time": 202.95714339583333,
            "velocity": 0.3937007874015748
          },
          {
            "duration": 0.10869550000001027,
            "durationTicks": 96,
            "midi": 75,
            "name": "D#5",
            "ticks": 179252,
            "time": 202.95714339583333,
            "velocity": 0.3937007874015748
          },
          {
            "duration": 0.10869550000001027,
            "durationTicks": 96,
            "midi": 84,
            "name": "C6",
            "ticks": 179252,
            "time": 202.95714339583333,
            "velocity": 0.3937007874015748
          },
          {
            "duration": 0.21739099999999212,
            "durationTicks": 192,
            "midi": 78,
            "name": "F#5",
            "ticks": 179348,
            "time": 203.06583889583334,
            "velocity": 0.3937007874015748
          },
          {
            "duration": 0.21739099999999212,
            "durationTicks": 192,
            "midi": 70,
            "name": "A#4",
            "ticks": 179348,
            "time": 203.06583889583334,
            "velocity": 0.3937007874015748
          },
          {
            "duration": 0.10869549999998185,
            "durationTicks": 96,
            "midi": 47,
            "name": "B2",
            "ticks": 179348,
            "time": 203.06583889583334,
            "velocity": 0.3937007874015748
          },
          {
            "duration": 0.10869549999998185,
            "durationTicks": 96,
            "midi": 35,
            "name": "B1",
            "ticks": 179348,
            "time": 203.06583889583334,
            "velocity": 0.3937007874015748
          },
          {
            "duration": 0.10869549999998185,
            "durationTicks": 96,
            "midi": 95,
            "name": "B6",
            "ticks": 179348,
            "time": 203.06583889583334,
            "velocity": 0.3937007874015748
          },
          {
            "duration": 0.21739099999999212,
            "durationTicks": 192,
            "midi": 59,
            "name": "B3",
            "ticks": 179348,
            "time": 203.06583889583334,
            "velocity": 0.3937007874015748
          },
          {
            "duration": 0.21739099999999212,
            "durationTicks": 192,
            "midi": 51,
            "name": "D#3",
            "ticks": 179348,
            "time": 203.06583889583334,
            "velocity": 0.3937007874015748
          },
          {
            "duration": 0.10869549999998185,
            "durationTicks": 96,
            "midi": 35,
            "name": "B1",
            "ticks": 179348,
            "time": 203.06583889583334,
            "velocity": 0.3937007874015748
          },
          {
            "duration": 0.21739099999999212,
            "durationTicks": 192,
            "midi": 54,
            "name": "F#3",
            "ticks": 179348,
            "time": 203.06583889583334,
            "velocity": 0.3937007874015748
          },
          {
            "duration": 0.21739099999999212,
            "durationTicks": 192,
            "midi": 34,
            "name": "A#1",
            "ticks": 179348,
            "time": 203.06583889583334,
            "velocity": 0.3937007874015748
          },
          {
            "duration": 0.21739099999999212,
            "durationTicks": 192,
            "midi": 82,
            "name": "A#5",
            "ticks": 179348,
            "time": 203.06583889583334,
            "velocity": 0.3937007874015748
          },
          {
            "duration": 0.21739099999999212,
            "durationTicks": 192,
            "midi": 66,
            "name": "F#4",
            "ticks": 179348,
            "time": 203.06583889583334,
            "velocity": 0.3937007874015748
          },
          {
            "duration": 0.10869550000001027,
            "durationTicks": 96,
            "midi": 95,
            "name": "B6",
            "ticks": 179444,
            "time": 203.17453439583332,
            "velocity": 0.3937007874015748
          },
          {
            "duration": 0.10869550000001027,
            "durationTicks": 96,
            "midi": 51,
            "name": "D#3",
            "ticks": 179444,
            "time": 203.17453439583332,
            "velocity": 0.3937007874015748
          },
          {
            "duration": 0.10869550000001027,
            "durationTicks": 96,
            "midi": 54,
            "name": "F#3",
            "ticks": 179540,
            "time": 203.28322989583333,
            "velocity": 0.3937007874015748
          },
          {
            "duration": 0.10869550000001027,
            "durationTicks": 96,
            "midi": 94,
            "name": "A#6",
            "ticks": 179540,
            "time": 203.28322989583333,
            "velocity": 0.3937007874015748
          },
          {
            "duration": 0.21739099999999212,
            "durationTicks": 192,
            "midi": 59,
            "name": "B3",
            "ticks": 179540,
            "time": 203.28322989583333,
            "velocity": 0.3937007874015748
          },
          {
            "duration": 0.21739099999999212,
            "durationTicks": 192,
            "midi": 54,
            "name": "F#3",
            "ticks": 179540,
            "time": 203.28322989583333,
            "velocity": 0.3937007874015748
          },
          {
            "duration": 0.10869550000001027,
            "durationTicks": 96,
            "midi": 35,
            "name": "B1",
            "ticks": 179540,
            "time": 203.28322989583333,
            "velocity": 0.3937007874015748
          },
          {
            "duration": 0.21739099999999212,
            "durationTicks": 192,
            "midi": 51,
            "name": "D#3",
            "ticks": 179540,
            "time": 203.28322989583333,
            "velocity": 0.3937007874015748
          },
          {
            "duration": 0.10869550000001027,
            "durationTicks": 96,
            "midi": 47,
            "name": "B2",
            "ticks": 179540,
            "time": 203.28322989583333,
            "velocity": 0.3937007874015748
          },
          {
            "duration": 0.10869549999998185,
            "durationTicks": 96,
            "midi": 35,
            "name": "B1",
            "ticks": 179636,
            "time": 203.39192539583334,
            "velocity": 0.3937007874015748
          },
          {
            "duration": 0.10869549999998185,
            "durationTicks": 96,
            "midi": 47,
            "name": "B2",
            "ticks": 179636,
            "time": 203.39192539583334,
            "velocity": 0.3937007874015748
          },
          {
            "duration": 0.10869549999998185,
            "durationTicks": 96,
            "midi": 59,
            "name": "B3",
            "ticks": 179636,
            "time": 203.39192539583334,
            "velocity": 0.3937007874015748
          },
          {
            "duration": 0.10869549999998185,
            "durationTicks": 96,
            "midi": 94,
            "name": "A#6",
            "ticks": 179636,
            "time": 203.39192539583334,
            "velocity": 0.3937007874015748
          },
          {
            "duration": 0.21739099999999212,
            "durationTicks": 192,
            "midi": 77,
            "name": "F5",
            "ticks": 179732,
            "time": 203.50062089583332,
            "velocity": 0.3937007874015748
          },
          {
            "duration": 0.21739099999999212,
            "durationTicks": 192,
            "midi": 68,
            "name": "G#4",
            "ticks": 179732,
            "time": 203.50062089583332,
            "velocity": 0.3937007874015748
          },
          {
            "duration": 0.21739099999999212,
            "durationTicks": 192,
            "midi": 65,
            "name": "F4",
            "ticks": 179732,
            "time": 203.50062089583332,
            "velocity": 0.3937007874015748
          },
          {
            "duration": 0.21739099999999212,
            "durationTicks": 192,
            "midi": 59,
            "name": "B3",
            "ticks": 179732,
            "time": 203.50062089583332,
            "velocity": 0.3937007874015748
          },
          {
            "duration": 0.21739099999999212,
            "durationTicks": 192,
            "midi": 51,
            "name": "D#3",
            "ticks": 179732,
            "time": 203.50062089583332,
            "velocity": 0.3937007874015748
          },
          {
            "duration": 0.10869550000001027,
            "durationTicks": 96,
            "midi": 93,
            "name": "A6",
            "ticks": 179732,
            "time": 203.50062089583332,
            "velocity": 0.3937007874015748
          },
          {
            "duration": 0.21739099999999212,
            "durationTicks": 192,
            "midi": 54,
            "name": "F#3",
            "ticks": 179732,
            "time": 203.50062089583332,
            "velocity": 0.3937007874015748
          },
          {
            "duration": 0.21739099999999212,
            "durationTicks": 192,
            "midi": 34,
            "name": "A#1",
            "ticks": 179732,
            "time": 203.50062089583332,
            "velocity": 0.3937007874015748
          },
          {
            "duration": 0.10869550000001027,
            "durationTicks": 96,
            "midi": 35,
            "name": "B1",
            "ticks": 179732,
            "time": 203.50062089583332,
            "velocity": 0.3937007874015748
          },
          {
            "duration": 0.10869550000001027,
            "durationTicks": 96,
            "midi": 35,
            "name": "B1",
            "ticks": 179732,
            "time": 203.50062089583332,
            "velocity": 0.3937007874015748
          },
          {
            "duration": 0.10869550000001027,
            "durationTicks": 96,
            "midi": 63,
            "name": "D#4",
            "ticks": 179732,
            "time": 203.50062089583332,
            "velocity": 0.3937007874015748
          },
          {
            "duration": 0.21739099999999212,
            "durationTicks": 192,
            "midi": 80,
            "name": "G#5",
            "ticks": 179732,
            "time": 203.50062089583332,
            "velocity": 0.3937007874015748
          },
          {
            "duration": 0.10869549999998185,
            "durationTicks": 96,
            "midi": 66,
            "name": "F#4",
            "ticks": 179828,
            "time": 203.60931639583333,
            "velocity": 0.3937007874015748
          },
          {
            "duration": 0.10869549999998185,
            "durationTicks": 96,
            "midi": 93,
            "name": "A6",
            "ticks": 179828,
            "time": 203.60931639583333,
            "velocity": 0.3937007874015748
          },
          {
            "duration": 0.10869549999998185,
            "durationTicks": 96,
            "midi": 47,
            "name": "B2",
            "ticks": 179828,
            "time": 203.60931639583333,
            "velocity": 0.3937007874015748
          },
          {
            "duration": 0.10869549999998185,
            "durationTicks": 96,
            "midi": 35,
            "name": "B1",
            "ticks": 179828,
            "time": 203.60931639583333,
            "velocity": 0.3937007874015748
          },
          {
            "duration": 0.10869550000001027,
            "durationTicks": 96,
            "midi": 71,
            "name": "B4",
            "ticks": 179924,
            "time": 203.7180118958333,
            "velocity": 0.3937007874015748
          },
          {
            "duration": 0.21739100000002054,
            "durationTicks": 192,
            "midi": 66,
            "name": "F#4",
            "ticks": 179924,
            "time": 203.7180118958333,
            "velocity": 0.3937007874015748
          },
          {
            "duration": 0.10869550000001027,
            "durationTicks": 96,
            "midi": 34,
            "name": "A#1",
            "ticks": 179924,
            "time": 203.7180118958333,
            "velocity": 0.3937007874015748
          },
          {
            "duration": 0.21739100000002054,
            "durationTicks": 192,
            "midi": 78,
            "name": "F#5",
            "ticks": 179924,
            "time": 203.7180118958333,
            "velocity": 0.3937007874015748
          },
          {
            "duration": 0.21739100000002054,
            "durationTicks": 192,
            "midi": 82,
            "name": "A#5",
            "ticks": 179924,
            "time": 203.7180118958333,
            "velocity": 0.3937007874015748
          },
          {
            "duration": 0.10869550000001027,
            "durationTicks": 96,
            "midi": 46,
            "name": "A#2",
            "ticks": 179924,
            "time": 203.7180118958333,
            "velocity": 0.3937007874015748
          },
          {
            "duration": 0.21739100000002054,
            "durationTicks": 192,
            "midi": 54,
            "name": "F#3",
            "ticks": 179924,
            "time": 203.7180118958333,
            "velocity": 0.3937007874015748
          },
          {
            "duration": 0.21739100000002054,
            "durationTicks": 192,
            "midi": 59,
            "name": "B3",
            "ticks": 179924,
            "time": 203.7180118958333,
            "velocity": 0.3937007874015748
          },
          {
            "duration": 0.21739100000002054,
            "durationTicks": 192,
            "midi": 70,
            "name": "A#4",
            "ticks": 179924,
            "time": 203.7180118958333,
            "velocity": 0.3937007874015748
          },
          {
            "duration": 0.21739100000002054,
            "durationTicks": 192,
            "midi": 51,
            "name": "D#3",
            "ticks": 179924,
            "time": 203.7180118958333,
            "velocity": 0.3937007874015748
          },
          {
            "duration": 0.10869550000001027,
            "durationTicks": 96,
            "midi": 92,
            "name": "G#6",
            "ticks": 179924,
            "time": 203.7180118958333,
            "velocity": 0.3937007874015748
          },
          {
            "duration": 0.10869550000001027,
            "durationTicks": 96,
            "midi": 47,
            "name": "B2",
            "ticks": 180020,
            "time": 203.82670739583332,
            "velocity": 0.3937007874015748
          },
          {
            "duration": 0.10869550000001027,
            "durationTicks": 96,
            "midi": 92,
            "name": "G#6",
            "ticks": 180020,
            "time": 203.82670739583332,
            "velocity": 0.3937007874015748
          },
          {
            "duration": 0.10869550000001027,
            "durationTicks": 96,
            "midi": 75,
            "name": "D#5",
            "ticks": 180020,
            "time": 203.82670739583332,
            "velocity": 0.3937007874015748
          },
          {
            "duration": 0.10869550000001027,
            "durationTicks": 96,
            "midi": 35,
            "name": "B1",
            "ticks": 180020,
            "time": 203.82670739583332,
            "velocity": 0.3937007874015748
          },
          {
            "duration": 0.10869549999998185,
            "durationTicks": 96,
            "midi": 25,
            "name": "C#1",
            "ticks": 180116,
            "time": 203.93540289583333,
            "velocity": 0.3937007874015748
          },
          {
            "duration": 0.10869549999998185,
            "durationTicks": 96,
            "midi": 49,
            "name": "C#3",
            "ticks": 180116,
            "time": 203.93540289583333,
            "velocity": 0.3937007874015748
          },
          {
            "duration": 0.21739099999999212,
            "durationTicks": 192,
            "midi": 68,
            "name": "G#4",
            "ticks": 180116,
            "time": 203.93540289583333,
            "velocity": 0.3937007874015748
          },
          {
            "duration": 0.21739099999999212,
            "durationTicks": 192,
            "midi": 56,
            "name": "G#3",
            "ticks": 180116,
            "time": 203.93540289583333,
            "velocity": 0.3937007874015748
          },
          {
            "duration": 0.21739099999999212,
            "durationTicks": 192,
            "midi": 53,
            "name": "F3",
            "ticks": 180116,
            "time": 203.93540289583333,
            "velocity": 0.3937007874015748
          },
          {
            "duration": 0.21739099999999212,
            "durationTicks": 192,
            "midi": 85,
            "name": "C#6",
            "ticks": 180116,
            "time": 203.93540289583333,
            "velocity": 0.3937007874015748
          },
          {
            "duration": 0.21739099999999212,
            "durationTicks": 192,
            "midi": 34,
            "name": "A#1",
            "ticks": 180116,
            "time": 203.93540289583333,
            "velocity": 0.3937007874015748
          },
          {
            "duration": 0.21739099999999212,
            "durationTicks": 192,
            "midi": 80,
            "name": "G#5",
            "ticks": 180116,
            "time": 203.93540289583333,
            "velocity": 0.3937007874015748
          },
          {
            "duration": 0.21739099999999212,
            "durationTicks": 192,
            "midi": 61,
            "name": "C#4",
            "ticks": 180116,
            "time": 203.93540289583333,
            "velocity": 0.3937007874015748
          },
          {
            "duration": 0.10869549999998185,
            "durationTicks": 96,
            "midi": 91,
            "name": "G6",
            "ticks": 180116,
            "time": 203.93540289583333,
            "velocity": 0.3937007874015748
          },
          {
            "duration": 0.10869549999998185,
            "durationTicks": 96,
            "midi": 37,
            "name": "C#2",
            "ticks": 180116,
            "time": 203.93540289583333,
            "velocity": 0.3937007874015748
          },
          {
            "duration": 0.21739099999999212,
            "durationTicks": 192,
            "midi": 73,
            "name": "C#5",
            "ticks": 180116,
            "time": 203.93540289583333,
            "velocity": 0.3937007874015748
          },
          {
            "duration": 0.10869550000001027,
            "durationTicks": 96,
            "midi": 53,
            "name": "F3",
            "ticks": 180212,
            "time": 204.04409839583332,
            "velocity": 0.3937007874015748
          },
          {
            "duration": 0.10869550000001027,
            "durationTicks": 96,
            "midi": 91,
            "name": "G6",
            "ticks": 180212,
            "time": 204.04409839583332,
            "velocity": 0.3937007874015748
          },
          {
            "duration": 0.21739099999999212,
            "durationTicks": 192,
            "midi": 82,
            "name": "A#5",
            "ticks": 180308,
            "time": 204.15279389583333,
            "velocity": 0.3937007874015748
          },
          {
            "duration": 0.21739099999999212,
            "durationTicks": 192,
            "midi": 87,
            "name": "D#6",
            "ticks": 180308,
            "time": 204.15279389583333,
            "velocity": 0.3937007874015748
          },
          {
            "duration": 0.10869550000001027,
            "durationTicks": 96,
            "midi": 49,
            "name": "C#3",
            "ticks": 180308,
            "time": 204.15279389583333,
            "velocity": 0.3937007874015748
          },
          {
            "duration": 0.21739099999999212,
            "durationTicks": 192,
            "midi": 53,
            "name": "F3",
            "ticks": 180308,
            "time": 204.15279389583333,
            "velocity": 0.3937007874015748
          },
          {
            "duration": 0.21739099999999212,
            "durationTicks": 192,
            "midi": 70,
            "name": "A#4",
            "ticks": 180308,
            "time": 204.15279389583333,
            "velocity": 0.3937007874015748
          },
          {
            "duration": 0.10869550000001027,
            "durationTicks": 96,
            "midi": 56,
            "name": "G#3",
            "ticks": 180308,
            "time": 204.15279389583333,
            "velocity": 0.3937007874015748
          },
          {
            "duration": 0.21739099999999212,
            "durationTicks": 192,
            "midi": 61,
            "name": "C#4",
            "ticks": 180308,
            "time": 204.15279389583333,
            "velocity": 0.3937007874015748
          },
          {
            "duration": 0.21739099999999212,
            "durationTicks": 192,
            "midi": 75,
            "name": "D#5",
            "ticks": 180308,
            "time": 204.15279389583333,
            "velocity": 0.3937007874015748
          },
          {
            "duration": 0.21739099999999212,
            "durationTicks": 192,
            "midi": 56,
            "name": "G#3",
            "ticks": 180308,
            "time": 204.15279389583333,
            "velocity": 0.3937007874015748
          },
          {
            "duration": 0.10869550000001027,
            "durationTicks": 96,
            "midi": 90,
            "name": "F#6",
            "ticks": 180308,
            "time": 204.15279389583333,
            "velocity": 0.3937007874015748
          },
          {
            "duration": 0.10869550000001027,
            "durationTicks": 96,
            "midi": 37,
            "name": "C#2",
            "ticks": 180308,
            "time": 204.15279389583333,
            "velocity": 0.3937007874015748
          },
          {
            "duration": 0.10869549999998185,
            "durationTicks": 96,
            "midi": 61,
            "name": "C#4",
            "ticks": 180404,
            "time": 204.26148939583334,
            "velocity": 0.3937007874015748
          },
          {
            "duration": 0.10869549999998185,
            "durationTicks": 96,
            "midi": 37,
            "name": "C#2",
            "ticks": 180404,
            "time": 204.26148939583334,
            "velocity": 0.3937007874015748
          },
          {
            "duration": 0.10869549999998185,
            "durationTicks": 96,
            "midi": 90,
            "name": "F#6",
            "ticks": 180404,
            "time": 204.26148939583334,
            "velocity": 0.3937007874015748
          },
          {
            "duration": 0.10869549999998185,
            "durationTicks": 96,
            "midi": 49,
            "name": "C#3",
            "ticks": 180404,
            "time": 204.26148939583334,
            "velocity": 0.3937007874015748
          },
          {
            "duration": 0.10869550000001027,
            "durationTicks": 96,
            "midi": 65,
            "name": "F4",
            "ticks": 180500,
            "time": 204.37018489583332,
            "velocity": 0.3937007874015748
          },
          {
            "duration": 0.21739100000002054,
            "durationTicks": 192,
            "midi": 56,
            "name": "G#3",
            "ticks": 180500,
            "time": 204.37018489583332,
            "velocity": 0.3937007874015748
          },
          {
            "duration": 0.21739100000002054,
            "durationTicks": 192,
            "midi": 78,
            "name": "F#5",
            "ticks": 180500,
            "time": 204.37018489583332,
            "velocity": 0.3937007874015748
          },
          {
            "duration": 0.21739100000002054,
            "durationTicks": 192,
            "midi": 70,
            "name": "A#4",
            "ticks": 180500,
            "time": 204.37018489583332,
            "velocity": 0.3937007874015748
          },
          {
            "duration": 0.21739100000002054,
            "durationTicks": 192,
            "midi": 53,
            "name": "F3",
            "ticks": 180500,
            "time": 204.37018489583332,
            "velocity": 0.3937007874015748
          },
          {
            "duration": 0.21739100000002054,
            "durationTicks": 192,
            "midi": 34,
            "name": "A#1",
            "ticks": 180500,
            "time": 204.37018489583332,
            "velocity": 0.3937007874015748
          },
          {
            "duration": 0.21739100000002054,
            "durationTicks": 192,
            "midi": 61,
            "name": "C#4",
            "ticks": 180500,
            "time": 204.37018489583332,
            "velocity": 0.3937007874015748
          },
          {
            "duration": 0.21739100000002054,
            "durationTicks": 192,
            "midi": 66,
            "name": "F#4",
            "ticks": 180500,
            "time": 204.37018489583332,
            "velocity": 0.3937007874015748
          },
          {
            "duration": 0.10869550000001027,
            "durationTicks": 96,
            "midi": 25,
            "name": "C#1",
            "ticks": 180500,
            "time": 204.37018489583332,
            "velocity": 0.3937007874015748
          },
          {
            "duration": 0.10869550000001027,
            "durationTicks": 96,
            "midi": 37,
            "name": "C#2",
            "ticks": 180500,
            "time": 204.37018489583332,
            "velocity": 0.3937007874015748
          },
          {
            "duration": 0.21739100000002054,
            "durationTicks": 192,
            "midi": 82,
            "name": "A#5",
            "ticks": 180500,
            "time": 204.37018489583332,
            "velocity": 0.3937007874015748
          },
          {
            "duration": 0.10869550000001027,
            "durationTicks": 96,
            "midi": 89,
            "name": "F6",
            "ticks": 180500,
            "time": 204.37018489583332,
            "velocity": 0.3937007874015748
          },
          {
            "duration": 0.10869550000001027,
            "durationTicks": 96,
            "midi": 89,
            "name": "F6",
            "ticks": 180596,
            "time": 204.47888039583333,
            "velocity": 0.3937007874015748
          },
          {
            "duration": 0.10869550000001027,
            "durationTicks": 96,
            "midi": 68,
            "name": "G#4",
            "ticks": 180596,
            "time": 204.47888039583333,
            "velocity": 0.3937007874015748
          },
          {
            "duration": 0.10869550000001027,
            "durationTicks": 96,
            "midi": 49,
            "name": "C#3",
            "ticks": 180596,
            "time": 204.47888039583333,
            "velocity": 0.3937007874015748
          },
          {
            "duration": 0.10869550000001027,
            "durationTicks": 96,
            "midi": 37,
            "name": "C#2",
            "ticks": 180596,
            "time": 204.47888039583333,
            "velocity": 0.3937007874015748
          },
          {
            "duration": 0.21739099999999212,
            "durationTicks": 192,
            "midi": 68,
            "name": "G#4",
            "ticks": 180692,
            "time": 204.58757589583334,
            "velocity": 0.3937007874015748
          },
          {
            "duration": 0.21739099999999212,
            "durationTicks": 192,
            "midi": 61,
            "name": "C#4",
            "ticks": 180692,
            "time": 204.58757589583334,
            "velocity": 0.3937007874015748
          },
          {
            "duration": 0.21739099999999212,
            "durationTicks": 192,
            "midi": 77,
            "name": "F5",
            "ticks": 180692,
            "time": 204.58757589583334,
            "velocity": 0.3937007874015748
          },
          {
            "duration": 0.21739099999999212,
            "durationTicks": 192,
            "midi": 80,
            "name": "G#5",
            "ticks": 180692,
            "time": 204.58757589583334,
            "velocity": 0.3937007874015748
          },
          {
            "duration": 0.21739099999999212,
            "durationTicks": 192,
            "midi": 56,
            "name": "G#3",
            "ticks": 180692,
            "time": 204.58757589583334,
            "velocity": 0.3937007874015748
          },
          {
            "duration": 0.10869549999998185,
            "durationTicks": 96,
            "midi": 35,
            "name": "B1",
            "ticks": 180692,
            "time": 204.58757589583334,
            "velocity": 0.3937007874015748
          },
          {
            "duration": 0.21739099999999212,
            "durationTicks": 192,
            "midi": 53,
            "name": "F3",
            "ticks": 180692,
            "time": 204.58757589583334,
            "velocity": 0.3937007874015748
          },
          {
            "duration": 0.10869549999998185,
            "durationTicks": 96,
            "midi": 47,
            "name": "B2",
            "ticks": 180692,
            "time": 204.58757589583334,
            "velocity": 0.3937007874015748
          },
          {
            "duration": 0.10869549999998185,
            "durationTicks": 96,
            "midi": 73,
            "name": "C#5",
            "ticks": 180692,
            "time": 204.58757589583334,
            "velocity": 0.3937007874015748
          },
          {
            "duration": 0.21739099999999212,
            "durationTicks": 192,
            "midi": 65,
            "name": "F4",
            "ticks": 180692,
            "time": 204.58757589583334,
            "velocity": 0.3937007874015748
          },
          {
            "duration": 0.10869549999998185,
            "durationTicks": 96,
            "midi": 88,
            "name": "E6",
            "ticks": 180692,
            "time": 204.58757589583334,
            "velocity": 0.3937007874015748
          },
          {
            "duration": 0.10869550000001027,
            "durationTicks": 96,
            "midi": 49,
            "name": "C#3",
            "ticks": 180788,
            "time": 204.69627139583332,
            "velocity": 0.3937007874015748
          },
          {
            "duration": 0.10869550000001027,
            "durationTicks": 96,
            "midi": 88,
            "name": "E6",
            "ticks": 180788,
            "time": 204.69627139583332,
            "velocity": 0.3937007874015748
          },
          {
            "duration": 0.10869550000001027,
            "durationTicks": 96,
            "midi": 37,
            "name": "C#2",
            "ticks": 180788,
            "time": 204.69627139583332,
            "velocity": 0.3937007874015748
          },
          {
            "duration": 0.10869550000001027,
            "durationTicks": 96,
            "midi": 77,
            "name": "F5",
            "ticks": 180788,
            "time": 204.69627139583332,
            "velocity": 0.3937007874015748
          },
          {
            "duration": 0.10869549999998185,
            "durationTicks": 96,
            "midi": 25,
            "name": "C#1",
            "ticks": 180884,
            "time": 204.80496689583333,
            "velocity": 0.3937007874015748
          },
          {
            "duration": 0.21739099999999212,
            "durationTicks": 192,
            "midi": 82,
            "name": "A#5",
            "ticks": 180884,
            "time": 204.80496689583333,
            "velocity": 0.3937007874015748
          },
          {
            "duration": 0.10869549999998185,
            "durationTicks": 96,
            "midi": 49,
            "name": "C#3",
            "ticks": 180884,
            "time": 204.80496689583333,
            "velocity": 0.3937007874015748
          },
          {
            "duration": 0.21739099999999212,
            "durationTicks": 192,
            "midi": 70,
            "name": "A#4",
            "ticks": 180884,
            "time": 204.80496689583333,
            "velocity": 0.3937007874015748
          },
          {
            "duration": 0.21739099999999212,
            "durationTicks": 192,
            "midi": 53,
            "name": "F3",
            "ticks": 180884,
            "time": 204.80496689583333,
            "velocity": 0.3937007874015748
          },
          {
            "duration": 0.21739099999999212,
            "durationTicks": 192,
            "midi": 66,
            "name": "F#4",
            "ticks": 180884,
            "time": 204.80496689583333,
            "velocity": 0.3937007874015748
          },
          {
            "duration": 0.10869549999998185,
            "durationTicks": 96,
            "midi": 37,
            "name": "C#2",
            "ticks": 180884,
            "time": 204.80496689583333,
            "velocity": 0.3937007874015748
          },
          {
            "duration": 0.21739099999999212,
            "durationTicks": 192,
            "midi": 56,
            "name": "G#3",
            "ticks": 180884,
            "time": 204.80496689583333,
            "velocity": 0.3937007874015748
          },
          {
            "duration": 0.21739099999999212,
            "durationTicks": 192,
            "midi": 34,
            "name": "A#1",
            "ticks": 180884,
            "time": 204.80496689583333,
            "velocity": 0.3937007874015748
          },
          {
            "duration": 0.10869549999998185,
            "durationTicks": 96,
            "midi": 87,
            "name": "D#6",
            "ticks": 180884,
            "time": 204.80496689583333,
            "velocity": 0.3937007874015748
          },
          {
            "duration": 0.21739099999999212,
            "durationTicks": 192,
            "midi": 61,
            "name": "C#4",
            "ticks": 180884,
            "time": 204.80496689583333,
            "velocity": 0.3937007874015748
          },
          {
            "duration": 0.21739099999999212,
            "durationTicks": 192,
            "midi": 78,
            "name": "F#5",
            "ticks": 180884,
            "time": 204.80496689583333,
            "velocity": 0.3937007874015748
          },
          {
            "duration": 0.10869550000001027,
            "durationTicks": 96,
            "midi": 87,
            "name": "D#6",
            "ticks": 180980,
            "time": 204.9136623958333,
            "velocity": 0.3937007874015748
          },
          {
            "duration": 0.10869550000001027,
            "durationTicks": 96,
            "midi": 53,
            "name": "F3",
            "ticks": 180980,
            "time": 204.9136623958333,
            "velocity": 0.3937007874015748
          },
          {
            "duration": 0.10869550000001027,
            "durationTicks": 96,
            "midi": 49,
            "name": "C#3",
            "ticks": 181076,
            "time": 205.02235789583332,
            "velocity": 0.3937007874015748
          },
          {
            "duration": 0.10869550000001027,
            "durationTicks": 96,
            "midi": 37,
            "name": "C#2",
            "ticks": 181076,
            "time": 205.02235789583332,
            "velocity": 0.3937007874015748
          },
          {
            "duration": 0.10869550000001027,
            "durationTicks": 96,
            "midi": 86,
            "name": "D6",
            "ticks": 181076,
            "time": 205.02235789583332,
            "velocity": 0.3937007874015748
          },
          {
            "duration": 0.10869550000001027,
            "durationTicks": 96,
            "midi": 56,
            "name": "G#3",
            "ticks": 181076,
            "time": 205.02235789583332,
            "velocity": 0.3937007874015748
          },
          {
            "duration": 0.21739099999999212,
            "durationTicks": 192,
            "midi": 61,
            "name": "C#4",
            "ticks": 181076,
            "time": 205.02235789583332,
            "velocity": 0.3937007874015748
          },
          {
            "duration": 0.21739099999999212,
            "durationTicks": 192,
            "midi": 53,
            "name": "F3",
            "ticks": 181076,
            "time": 205.02235789583332,
            "velocity": 0.3937007874015748
          },
          {
            "duration": 0.21739099999999212,
            "durationTicks": 192,
            "midi": 56,
            "name": "G#3",
            "ticks": 181076,
            "time": 205.02235789583332,
            "velocity": 0.3937007874015748
          },
          {
            "duration": 0.10869549999998185,
            "durationTicks": 96,
            "midi": 86,
            "name": "D6",
            "ticks": 181172,
            "time": 205.13105339583333,
            "velocity": 0.3937007874015748
          },
          {
            "duration": 0.10869549999998185,
            "durationTicks": 96,
            "midi": 61,
            "name": "C#4",
            "ticks": 181172,
            "time": 205.13105339583333,
            "velocity": 0.3937007874015748
          },
          {
            "duration": 0.10869549999998185,
            "durationTicks": 96,
            "midi": 49,
            "name": "C#3",
            "ticks": 181172,
            "time": 205.13105339583333,
            "velocity": 0.3937007874015748
          },
          {
            "duration": 0.10869549999998185,
            "durationTicks": 96,
            "midi": 37,
            "name": "C#2",
            "ticks": 181172,
            "time": 205.13105339583333,
            "velocity": 0.3937007874015748
          },
          {
            "duration": 0.21739100000002054,
            "durationTicks": 192,
            "midi": 34,
            "name": "A#1",
            "ticks": 181268,
            "time": 205.23974889583332,
            "velocity": 0.3937007874015748
          },
          {
            "duration": 0.21739100000002054,
            "durationTicks": 192,
            "midi": 53,
            "name": "F3",
            "ticks": 181268,
            "time": 205.23974889583332,
            "velocity": 0.3937007874015748
          },
          {
            "duration": 0.21739100000002054,
            "durationTicks": 192,
            "midi": 68,
            "name": "G#4",
            "ticks": 181268,
            "time": 205.23974889583332,
            "velocity": 0.3937007874015748
          },
          {
            "duration": 0.10869550000001027,
            "durationTicks": 96,
            "midi": 25,
            "name": "C#1",
            "ticks": 181268,
            "time": 205.23974889583332,
            "velocity": 0.3937007874015748
          },
          {
            "duration": 0.21739100000002054,
            "durationTicks": 192,
            "midi": 77,
            "name": "F5",
            "ticks": 181268,
            "time": 205.23974889583332,
            "velocity": 0.3937007874015748
          },
          {
            "duration": 0.10869550000001027,
            "durationTicks": 96,
            "midi": 65,
            "name": "F4",
            "ticks": 181268,
            "time": 205.23974889583332,
            "velocity": 0.3937007874015748
          },
          {
            "duration": 0.10869550000001027,
            "durationTicks": 96,
            "midi": 37,
            "name": "C#2",
            "ticks": 181268,
            "time": 205.23974889583332,
            "velocity": 0.3937007874015748
          },
          {
            "duration": 0.21739100000002054,
            "durationTicks": 192,
            "midi": 56,
            "name": "G#3",
            "ticks": 181268,
            "time": 205.23974889583332,
            "velocity": 0.3937007874015748
          },
          {
            "duration": 0.21739100000002054,
            "durationTicks": 192,
            "midi": 65,
            "name": "F4",
            "ticks": 181268,
            "time": 205.23974889583332,
            "velocity": 0.3937007874015748
          },
          {
            "duration": 0.10869550000001027,
            "durationTicks": 96,
            "midi": 85,
            "name": "C#6",
            "ticks": 181268,
            "time": 205.23974889583332,
            "velocity": 0.3937007874015748
          },
          {
            "duration": 0.21739100000002054,
            "durationTicks": 192,
            "midi": 61,
            "name": "C#4",
            "ticks": 181268,
            "time": 205.23974889583332,
            "velocity": 0.3937007874015748
          },
          {
            "duration": 0.21739100000002054,
            "durationTicks": 192,
            "midi": 80,
            "name": "G#5",
            "ticks": 181268,
            "time": 205.23974889583332,
            "velocity": 0.3937007874015748
          },
          {
            "duration": 0.10869550000001027,
            "durationTicks": 96,
            "midi": 85,
            "name": "C#6",
            "ticks": 181364,
            "time": 205.34844439583333,
            "velocity": 0.3937007874015748
          },
          {
            "duration": 0.10869550000001027,
            "durationTicks": 96,
            "midi": 49,
            "name": "C#3",
            "ticks": 181364,
            "time": 205.34844439583333,
            "velocity": 0.3937007874015748
          },
          {
            "duration": 0.10869550000001027,
            "durationTicks": 96,
            "midi": 68,
            "name": "G#4",
            "ticks": 181364,
            "time": 205.34844439583333,
            "velocity": 0.3937007874015748
          },
          {
            "duration": 0.10869550000001027,
            "durationTicks": 96,
            "midi": 37,
            "name": "C#2",
            "ticks": 181364,
            "time": 205.34844439583333,
            "velocity": 0.3937007874015748
          },
          {
            "duration": 0.10869549999998185,
            "durationTicks": 96,
            "midi": 47,
            "name": "B2",
            "ticks": 181460,
            "time": 205.45713989583334,
            "velocity": 0.3937007874015748
          },
          {
            "duration": 0.10869549999998185,
            "durationTicks": 96,
            "midi": 73,
            "name": "C#5",
            "ticks": 181460,
            "time": 205.45713989583334,
            "velocity": 0.3937007874015748
          },
          {
            "duration": 0.10869549999998185,
            "durationTicks": 96,
            "midi": 84,
            "name": "C6",
            "ticks": 181460,
            "time": 205.45713989583334,
            "velocity": 0.3937007874015748
          },
          {
            "duration": 0.21739099999999212,
            "durationTicks": 192,
            "midi": 82,
            "name": "A#5",
            "ticks": 181460,
            "time": 205.45713989583334,
            "velocity": 0.3937007874015748
          },
          {
            "duration": 0.21739099999999212,
            "durationTicks": 192,
            "midi": 78,
            "name": "F#5",
            "ticks": 181460,
            "time": 205.45713989583334,
            "velocity": 0.3937007874015748
          },
          {
            "duration": 0.21739099999999212,
            "durationTicks": 192,
            "midi": 56,
            "name": "G#3",
            "ticks": 181460,
            "time": 205.45713989583334,
            "velocity": 0.3937007874015748
          },
          {
            "duration": 0.21739099999999212,
            "durationTicks": 192,
            "midi": 66,
            "name": "F#4",
            "ticks": 181460,
            "time": 205.45713989583334,
            "velocity": 0.3937007874015748
          },
          {
            "duration": 0.21739099999999212,
            "durationTicks": 192,
            "midi": 53,
            "name": "F3",
            "ticks": 181460,
            "time": 205.45713989583334,
            "velocity": 0.3937007874015748
          },
          {
            "duration": 0.10869549999998185,
            "durationTicks": 96,
            "midi": 35,
            "name": "B1",
            "ticks": 181460,
            "time": 205.45713989583334,
            "velocity": 0.3937007874015748
          },
          {
            "duration": 0.21739099999999212,
            "durationTicks": 192,
            "midi": 70,
            "name": "A#4",
            "ticks": 181460,
            "time": 205.45713989583334,
            "velocity": 0.3937007874015748
          },
          {
            "duration": 0.21739099999999212,
            "durationTicks": 192,
            "midi": 34,
            "name": "A#1",
            "ticks": 181460,
            "time": 205.45713989583334,
            "velocity": 0.3937007874015748
          },
          {
            "duration": 0.21739099999999212,
            "durationTicks": 192,
            "midi": 61,
            "name": "C#4",
            "ticks": 181460,
            "time": 205.45713989583334,
            "velocity": 0.3937007874015748
          },
          {
            "duration": 0.10869550000001027,
            "durationTicks": 96,
            "midi": 84,
            "name": "C6",
            "ticks": 181556,
            "time": 205.56583539583332,
            "velocity": 0.3937007874015748
          },
          {
            "duration": 0.10869550000001027,
            "durationTicks": 96,
            "midi": 77,
            "name": "F5",
            "ticks": 181556,
            "time": 205.56583539583332,
            "velocity": 0.3937007874015748
          },
          {
            "duration": 0.10869550000001027,
            "durationTicks": 96,
            "midi": 37,
            "name": "C#2",
            "ticks": 181556,
            "time": 205.56583539583332,
            "velocity": 0.3937007874015748
          },
          {
            "duration": 0.10869550000001027,
            "durationTicks": 96,
            "midi": 49,
            "name": "C#3",
            "ticks": 181556,
            "time": 205.56583539583332,
            "velocity": 0.3937007874015748
          },
          {
            "duration": 0.10869550000001027,
            "durationTicks": 96,
            "midi": 27,
            "name": "D#1",
            "ticks": 181652,
            "time": 205.67453089583333,
            "velocity": 0.3937007874015748
          },
          {
            "duration": 0.10869550000001027,
            "durationTicks": 96,
            "midi": 39,
            "name": "D#2",
            "ticks": 181652,
            "time": 205.67453089583333,
            "velocity": 0.3937007874015748
          },
          {
            "duration": 0.10869550000001027,
            "durationTicks": 96,
            "midi": 83,
            "name": "B5",
            "ticks": 181652,
            "time": 205.67453089583333,
            "velocity": 0.3937007874015748
          },
          {
            "duration": 0.21739099999999212,
            "durationTicks": 192,
            "midi": 80,
            "name": "G#5",
            "ticks": 181652,
            "time": 205.67453089583333,
            "velocity": 0.3937007874015748
          },
          {
            "duration": 0.21739099999999212,
            "durationTicks": 192,
            "midi": 68,
            "name": "G#4",
            "ticks": 181652,
            "time": 205.67453089583333,
            "velocity": 0.3937007874015748
          },
          {
            "duration": 0.21739099999999212,
            "durationTicks": 192,
            "midi": 58,
            "name": "A#3",
            "ticks": 181652,
            "time": 205.67453089583333,
            "velocity": 0.3937007874015748
          },
          {
            "duration": 0.21739099999999212,
            "durationTicks": 192,
            "midi": 34,
            "name": "A#1",
            "ticks": 181652,
            "time": 205.67453089583333,
            "velocity": 0.3937007874015748
          },
          {
            "duration": 0.10869550000001027,
            "durationTicks": 96,
            "midi": 51,
            "name": "D#3",
            "ticks": 181652,
            "time": 205.67453089583333,
            "velocity": 0.3937007874015748
          },
          {
            "duration": 0.21739099999999212,
            "durationTicks": 192,
            "midi": 77,
            "name": "F5",
            "ticks": 181652,
            "time": 205.67453089583333,
            "velocity": 0.3937007874015748
          },
          {
            "duration": 0.21739099999999212,
            "durationTicks": 192,
            "midi": 63,
            "name": "D#4",
            "ticks": 181652,
            "time": 205.67453089583333,
            "velocity": 0.3937007874015748
          },
          {
            "duration": 0.21739099999999212,
            "durationTicks": 192,
            "midi": 54,
            "name": "F#3",
            "ticks": 181652,
            "time": 205.67453089583333,
            "velocity": 0.3937007874015748
          },
          {
            "duration": 0.21739099999999212,
            "durationTicks": 192,
            "midi": 65,
            "name": "F4",
            "ticks": 181652,
            "time": 205.67453089583333,
            "velocity": 0.3937007874015748
          },
          {
            "duration": 0.10869549999998185,
            "durationTicks": 96,
            "midi": 83,
            "name": "B5",
            "ticks": 181748,
            "time": 205.78322639583334,
            "velocity": 0.3937007874015748
          },
          {
            "duration": 0.10869549999998185,
            "durationTicks": 96,
            "midi": 54,
            "name": "F#3",
            "ticks": 181748,
            "time": 205.78322639583334,
            "velocity": 0.3937007874015748
          },
          {
            "duration": 0.10869550000001027,
            "durationTicks": 96,
            "midi": 58,
            "name": "A#3",
            "ticks": 181844,
            "time": 205.89192189583332,
            "velocity": 0.3937007874015748
          },
          {
            "duration": 0.21739099999999212,
            "durationTicks": 192,
            "midi": 63,
            "name": "D#4",
            "ticks": 181844,
            "time": 205.89192189583332,
            "velocity": 0.3937007874015748
          },
          {
            "duration": 0.21739099999999212,
            "durationTicks": 192,
            "midi": 58,
            "name": "A#3",
            "ticks": 181844,
            "time": 205.89192189583332,
            "velocity": 0.3937007874015748
          },
          {
            "duration": 0.21739099999999212,
            "durationTicks": 192,
            "midi": 75,
            "name": "D#5",
            "ticks": 181844,
            "time": 205.89192189583332,
            "velocity": 0.3937007874015748
          },
          {
            "duration": 0.21739099999999212,
            "durationTicks": 192,
            "midi": 54,
            "name": "F#3",
            "ticks": 181844,
            "time": 205.89192189583332,
            "velocity": 0.3937007874015748
          },
          {
            "duration": 0.10869550000001027,
            "durationTicks": 96,
            "midi": 51,
            "name": "D#3",
            "ticks": 181844,
            "time": 205.89192189583332,
            "velocity": 0.3937007874015748
          },
          {
            "duration": 0.10869550000001027,
            "durationTicks": 96,
            "midi": 82,
            "name": "A#5",
            "ticks": 181844,
            "time": 205.89192189583332,
            "velocity": 0.3937007874015748
          },
          {
            "duration": 0.21739099999999212,
            "durationTicks": 192,
            "midi": 66,
            "name": "F#4",
            "ticks": 181844,
            "time": 205.89192189583332,
            "velocity": 0.3937007874015748
          },
          {
            "duration": 0.10869550000001027,
            "durationTicks": 96,
            "midi": 39,
            "name": "D#2",
            "ticks": 181844,
            "time": 205.89192189583332,
            "velocity": 0.3937007874015748
          },
          {
            "duration": 0.21739099999999212,
            "durationTicks": 192,
            "midi": 63,
            "name": "D#4",
            "ticks": 181844,
            "time": 205.89192189583332,
            "velocity": 0.3937007874015748
          },
          {
            "duration": 0.21739099999999212,
            "durationTicks": 192,
            "midi": 78,
            "name": "F#5",
            "ticks": 181844,
            "time": 205.89192189583332,
            "velocity": 0.3937007874015748
          },
          {
            "duration": 0.10869549999998185,
            "durationTicks": 96,
            "midi": 51,
            "name": "D#3",
            "ticks": 181940,
            "time": 206.00061739583333,
            "velocity": 0.3937007874015748
          },
          {
            "duration": 0.10869549999998185,
            "durationTicks": 96,
            "midi": 63,
            "name": "D#4",
            "ticks": 181940,
            "time": 206.00061739583333,
            "velocity": 0.3937007874015748
          },
          {
            "duration": 0.10869549999998185,
            "durationTicks": 96,
            "midi": 82,
            "name": "A#5",
            "ticks": 181940,
            "time": 206.00061739583333,
            "velocity": 0.3937007874015748
          },
          {
            "duration": 0.10869549999998185,
            "durationTicks": 96,
            "midi": 39,
            "name": "D#2",
            "ticks": 181940,
            "time": 206.00061739583333,
            "velocity": 0.3937007874015748
          },
          {
            "duration": 0.21739100000002054,
            "durationTicks": 192,
            "midi": 63,
            "name": "D#4",
            "ticks": 182036,
            "time": 206.1093128958333,
            "velocity": 0.3937007874015748
          },
          {
            "duration": 0.21739100000002054,
            "durationTicks": 192,
            "midi": 54,
            "name": "F#3",
            "ticks": 182036,
            "time": 206.1093128958333,
            "velocity": 0.3937007874015748
          },
          {
            "duration": 0.21739100000002054,
            "durationTicks": 192,
            "midi": 58,
            "name": "A#3",
            "ticks": 182036,
            "time": 206.1093128958333,
            "velocity": 0.3937007874015748
          },
          {
            "duration": 0.21739100000002054,
            "durationTicks": 192,
            "midi": 34,
            "name": "A#1",
            "ticks": 182036,
            "time": 206.1093128958333,
            "velocity": 0.3937007874015748
          },
          {
            "duration": 0.10869550000001027,
            "durationTicks": 96,
            "midi": 66,
            "name": "F#4",
            "ticks": 182036,
            "time": 206.1093128958333,
            "velocity": 0.3937007874015748
          },
          {
            "duration": 0.21739100000002054,
            "durationTicks": 192,
            "midi": 73,
            "name": "C#5",
            "ticks": 182036,
            "time": 206.1093128958333,
            "velocity": 0.3937007874015748
          },
          {
            "duration": 0.21739100000002054,
            "durationTicks": 192,
            "midi": 65,
            "name": "F4",
            "ticks": 182036,
            "time": 206.1093128958333,
            "velocity": 0.3937007874015748
          },
          {
            "duration": 0.10869550000001027,
            "durationTicks": 96,
            "midi": 81,
            "name": "A5",
            "ticks": 182036,
            "time": 206.1093128958333,
            "velocity": 0.3937007874015748
          },
          {
            "duration": 0.21739100000002054,
            "durationTicks": 192,
            "midi": 77,
            "name": "F5",
            "ticks": 182036,
            "time": 206.1093128958333,
            "velocity": 0.3937007874015748
          },
          {
            "duration": 0.10869550000001027,
            "durationTicks": 96,
            "midi": 39,
            "name": "D#2",
            "ticks": 182036,
            "time": 206.1093128958333,
            "velocity": 0.3937007874015748
          },
          {
            "duration": 0.21739100000002054,
            "durationTicks": 192,
            "midi": 61,
            "name": "C#4",
            "ticks": 182036,
            "time": 206.1093128958333,
            "velocity": 0.3937007874015748
          },
          {
            "duration": 0.10869550000001027,
            "durationTicks": 96,
            "midi": 27,
            "name": "D#1",
            "ticks": 182036,
            "time": 206.1093128958333,
            "velocity": 0.3937007874015748
          },
          {
            "duration": 0.10869550000001027,
            "durationTicks": 96,
            "midi": 51,
            "name": "D#3",
            "ticks": 182132,
            "time": 206.21800839583332,
            "velocity": 0.3937007874015748
          },
          {
            "duration": 0.10869550000001027,
            "durationTicks": 96,
            "midi": 81,
            "name": "A5",
            "ticks": 182132,
            "time": 206.21800839583332,
            "velocity": 0.3937007874015748
          },
          {
            "duration": 0.10869550000001027,
            "durationTicks": 96,
            "midi": 70,
            "name": "A#4",
            "ticks": 182132,
            "time": 206.21800839583332,
            "velocity": 0.3937007874015748
          },
          {
            "duration": 0.10869550000001027,
            "durationTicks": 96,
            "midi": 39,
            "name": "D#2",
            "ticks": 182132,
            "time": 206.21800839583332,
            "velocity": 0.3937007874015748
          },
          {
            "duration": 0.21739099999999212,
            "durationTicks": 192,
            "midi": 54,
            "name": "F#3",
            "ticks": 182228,
            "time": 206.32670389583333,
            "velocity": 0.3937007874015748
          },
          {
            "duration": 0.10869549999998185,
            "durationTicks": 96,
            "midi": 75,
            "name": "D#5",
            "ticks": 182228,
            "time": 206.32670389583333,
            "velocity": 0.3937007874015748
          },
          {
            "duration": 0.21739099999999212,
            "durationTicks": 192,
            "midi": 61,
            "name": "C#4",
            "ticks": 182228,
            "time": 206.32670389583333,
            "velocity": 0.3937007874015748
          },
          {
            "duration": 0.10869549999998185,
            "durationTicks": 96,
            "midi": 80,
            "name": "G#5",
            "ticks": 182228,
            "time": 206.32670389583333,
            "velocity": 0.3937007874015748
          },
          {
            "duration": 0.21739099999999212,
            "durationTicks": 192,
            "midi": 56,
            "name": "G#3",
            "ticks": 182228,
            "time": 206.32670389583333,
            "velocity": 0.3937007874015748
          },
          {
            "duration": 0.21739099999999212,
            "durationTicks": 192,
            "midi": 68,
            "name": "G#4",
            "ticks": 182228,
            "time": 206.32670389583333,
            "velocity": 0.3937007874015748
          },
          {
            "duration": 0.10869549999998185,
            "durationTicks": 96,
            "midi": 37,
            "name": "C#2",
            "ticks": 182228,
            "time": 206.32670389583333,
            "velocity": 0.3937007874015748
          },
          {
            "duration": 0.21739099999999212,
            "durationTicks": 192,
            "midi": 73,
            "name": "C#5",
            "ticks": 182228,
            "time": 206.32670389583333,
            "velocity": 0.3937007874015748
          },
          {
            "duration": 0.10869549999998185,
            "durationTicks": 96,
            "midi": 49,
            "name": "C#3",
            "ticks": 182228,
            "time": 206.32670389583333,
            "velocity": 0.3937007874015748
          },
          {
            "duration": 0.21739099999999212,
            "durationTicks": 192,
            "midi": 58,
            "name": "A#3",
            "ticks": 182228,
            "time": 206.32670389583333,
            "velocity": 0.3937007874015748
          },
          {
            "duration": 0.21739099999999212,
            "durationTicks": 192,
            "midi": 63,
            "name": "D#4",
            "ticks": 182228,
            "time": 206.32670389583333,
            "velocity": 0.3937007874015748
          },
          {
            "duration": 0.10869550000001027,
            "durationTicks": 96,
            "midi": 78,
            "name": "F#5",
            "ticks": 182324,
            "time": 206.43539939583331,
            "velocity": 0.3937007874015748
          },
          {
            "duration": 0.10869550000001027,
            "durationTicks": 96,
            "midi": 51,
            "name": "D#3",
            "ticks": 182324,
            "time": 206.43539939583331,
            "velocity": 0.3937007874015748
          },
          {
            "duration": 0.10869550000001027,
            "durationTicks": 96,
            "midi": 39,
            "name": "D#2",
            "ticks": 182324,
            "time": 206.43539939583331,
            "velocity": 0.3937007874015748
          },
          {
            "duration": 0.10869550000001027,
            "durationTicks": 96,
            "midi": 80,
            "name": "G#5",
            "ticks": 182324,
            "time": 206.43539939583331,
            "velocity": 0.3937007874015748
          },
          {
            "duration": 0.10869550000001027,
            "durationTicks": 96,
            "midi": 39,
            "name": "D#2",
            "ticks": 182420,
            "time": 206.54409489583333,
            "velocity": 0.3937007874015748
          },
          {
            "duration": 0.10869550000001027,
            "durationTicks": 96,
            "midi": 27,
            "name": "D#1",
            "ticks": 182420,
            "time": 206.54409489583333,
            "velocity": 0.3937007874015748
          },
          {
            "duration": 0.21739099999999212,
            "durationTicks": 192,
            "midi": 70,
            "name": "A#4",
            "ticks": 182420,
            "time": 206.54409489583333,
            "velocity": 0.3937007874015748
          },
          {
            "duration": 0.10869550000001027,
            "durationTicks": 96,
            "midi": 79,
            "name": "G5",
            "ticks": 182420,
            "time": 206.54409489583333,
            "velocity": 0.3937007874015748
          },
          {
            "duration": 0.21739099999999212,
            "durationTicks": 192,
            "midi": 75,
            "name": "D#5",
            "ticks": 182420,
            "time": 206.54409489583333,
            "velocity": 0.3937007874015748
          },
          {
            "duration": 0.21739099999999212,
            "durationTicks": 192,
            "midi": 58,
            "name": "A#3",
            "ticks": 182420,
            "time": 206.54409489583333,
            "velocity": 0.3937007874015748
          },
          {
            "duration": 0.21739099999999212,
            "durationTicks": 192,
            "midi": 54,
            "name": "F#3",
            "ticks": 182420,
            "time": 206.54409489583333,
            "velocity": 0.3937007874015748
          },
          {
            "duration": 0.10869550000001027,
            "durationTicks": 96,
            "midi": 51,
            "name": "D#3",
            "ticks": 182420,
            "time": 206.54409489583333,
            "velocity": 0.3937007874015748
          },
          {
            "duration": 0.21739099999999212,
            "durationTicks": 192,
            "midi": 63,
            "name": "D#4",
            "ticks": 182420,
            "time": 206.54409489583333,
            "velocity": 0.3937007874015748
          },
          {
            "duration": 0.21739099999999212,
            "durationTicks": 192,
            "midi": 63,
            "name": "D#4",
            "ticks": 182420,
            "time": 206.54409489583333,
            "velocity": 0.3937007874015748
          },
          {
            "duration": 0.21739099999999212,
            "durationTicks": 192,
            "midi": 34,
            "name": "A#1",
            "ticks": 182420,
            "time": 206.54409489583333,
            "velocity": 0.3937007874015748
          },
          {
            "duration": 0.21739099999999212,
            "durationTicks": 192,
            "midi": 58,
            "name": "A#3",
            "ticks": 182420,
            "time": 206.54409489583333,
            "velocity": 0.3937007874015748
          },
          {
            "duration": 0.10869549999998185,
            "durationTicks": 96,
            "midi": 54,
            "name": "F#3",
            "ticks": 182516,
            "time": 206.65279039583334,
            "velocity": 0.3937007874015748
          },
          {
            "duration": 0.10869549999998185,
            "durationTicks": 96,
            "midi": 79,
            "name": "G5",
            "ticks": 182516,
            "time": 206.65279039583334,
            "velocity": 0.3937007874015748
          },
          {
            "duration": 0.10869550000001027,
            "durationTicks": 96,
            "midi": 39,
            "name": "D#2",
            "ticks": 182612,
            "time": 206.76148589583332,
            "velocity": 0.3937007874015748
          },
          {
            "duration": 0.10869550000001027,
            "durationTicks": 96,
            "midi": 51,
            "name": "D#3",
            "ticks": 182612,
            "time": 206.76148589583332,
            "velocity": 0.3937007874015748
          },
          {
            "duration": 0.10869550000001027,
            "durationTicks": 96,
            "midi": 78,
            "name": "F#5",
            "ticks": 182612,
            "time": 206.76148589583332,
            "velocity": 0.3937007874015748
          },
          {
            "duration": 0.10869550000001027,
            "durationTicks": 96,
            "midi": 58,
            "name": "A#3",
            "ticks": 182612,
            "time": 206.76148589583332,
            "velocity": 0.3937007874015748
          },
          {
            "duration": 0.21739100000002054,
            "durationTicks": 192,
            "midi": 58,
            "name": "A#3",
            "ticks": 182612,
            "time": 206.76148589583332,
            "velocity": 0.3937007874015748
          },
          {
            "duration": 0.21739100000002054,
            "durationTicks": 192,
            "midi": 63,
            "name": "D#4",
            "ticks": 182612,
            "time": 206.76148589583332,
            "velocity": 0.3937007874015748
          },
          {
            "duration": 0.21739100000002054,
            "durationTicks": 192,
            "midi": 54,
            "name": "F#3",
            "ticks": 182612,
            "time": 206.76148589583332,
            "velocity": 0.3937007874015748
          },
          {
            "duration": 0.10869550000001027,
            "durationTicks": 96,
            "midi": 51,
            "name": "D#3",
            "ticks": 182708,
            "time": 206.87018139583333,
            "velocity": 0.3937007874015748
          },
          {
            "duration": 0.10869550000001027,
            "durationTicks": 96,
            "midi": 78,
            "name": "F#5",
            "ticks": 182708,
            "time": 206.87018139583333,
            "velocity": 0.3937007874015748
          },
          {
            "duration": 0.10869550000001027,
            "durationTicks": 96,
            "midi": 39,
            "name": "D#2",
            "ticks": 182708,
            "time": 206.87018139583333,
            "velocity": 0.3937007874015748
          },
          {
            "duration": 0.10869550000001027,
            "durationTicks": 96,
            "midi": 63,
            "name": "D#4",
            "ticks": 182708,
            "time": 206.87018139583333,
            "velocity": 0.3937007874015748
          },
          {
            "duration": 0.10869549999998185,
            "durationTicks": 96,
            "midi": 66,
            "name": "F#4",
            "ticks": 182804,
            "time": 206.97887689583334,
            "velocity": 0.3937007874015748
          },
          {
            "duration": 0.21739099999999212,
            "durationTicks": 192,
            "midi": 63,
            "name": "D#4",
            "ticks": 182804,
            "time": 206.97887689583334,
            "velocity": 0.3937007874015748
          },
          {
            "duration": 0.21739099999999212,
            "durationTicks": 192,
            "midi": 68,
            "name": "G#4",
            "ticks": 182804,
            "time": 206.97887689583334,
            "velocity": 0.3937007874015748
          },
          {
            "duration": 0.10869549999998185,
            "durationTicks": 96,
            "midi": 27,
            "name": "D#1",
            "ticks": 182804,
            "time": 206.97887689583334,
            "velocity": 0.3937007874015748
          },
          {
            "duration": 0.21739099999999212,
            "durationTicks": 192,
            "midi": 34,
            "name": "A#1",
            "ticks": 182804,
            "time": 206.97887689583334,
            "velocity": 0.3937007874015748
          },
          {
            "duration": 0.21739099999999212,
            "durationTicks": 192,
            "midi": 56,
            "name": "G#3",
            "ticks": 182804,
            "time": 206.97887689583334,
            "velocity": 0.3937007874015748
          },
          {
            "duration": 0.21739099999999212,
            "durationTicks": 192,
            "midi": 61,
            "name": "C#4",
            "ticks": 182804,
            "time": 206.97887689583334,
            "velocity": 0.3937007874015748
          },
          {
            "duration": 0.21739099999999212,
            "durationTicks": 192,
            "midi": 54,
            "name": "F#3",
            "ticks": 182804,
            "time": 206.97887689583334,
            "velocity": 0.3937007874015748
          },
          {
            "duration": 0.21739099999999212,
            "durationTicks": 192,
            "midi": 73,
            "name": "C#5",
            "ticks": 182804,
            "time": 206.97887689583334,
            "velocity": 0.3937007874015748
          },
          {
            "duration": 0.10869549999998185,
            "durationTicks": 96,
            "midi": 77,
            "name": "F5",
            "ticks": 182804,
            "time": 206.97887689583334,
            "velocity": 0.3937007874015748
          },
          {
            "duration": 0.21739099999999212,
            "durationTicks": 192,
            "midi": 58,
            "name": "A#3",
            "ticks": 182804,
            "time": 206.97887689583334,
            "velocity": 0.3937007874015748
          },
          {
            "duration": 0.10869549999998185,
            "durationTicks": 96,
            "midi": 39,
            "name": "D#2",
            "ticks": 182804,
            "time": 206.97887689583334,
            "velocity": 0.3937007874015748
          },
          {
            "duration": 0.10869550000001027,
            "durationTicks": 96,
            "midi": 77,
            "name": "F5",
            "ticks": 182900,
            "time": 207.08757239583332,
            "velocity": 0.3937007874015748
          },
          {
            "duration": 0.10869550000001027,
            "durationTicks": 96,
            "midi": 70,
            "name": "A#4",
            "ticks": 182900,
            "time": 207.08757239583332,
            "velocity": 0.3937007874015748
          },
          {
            "duration": 0.10869550000001027,
            "durationTicks": 96,
            "midi": 51,
            "name": "D#3",
            "ticks": 182900,
            "time": 207.08757239583332,
            "velocity": 0.3937007874015748
          },
          {
            "duration": 0.10869550000001027,
            "durationTicks": 96,
            "midi": 39,
            "name": "D#2",
            "ticks": 182900,
            "time": 207.08757239583332,
            "velocity": 0.3937007874015748
          },
          {
            "duration": 0.10869549999998185,
            "durationTicks": 96,
            "midi": 75,
            "name": "D#5",
            "ticks": 182996,
            "time": 207.19626789583333,
            "velocity": 0.3937007874015748
          },
          {
            "duration": 0.21739099999999212,
            "durationTicks": 192,
            "midi": 70,
            "name": "A#4",
            "ticks": 182996,
            "time": 207.19626789583333,
            "velocity": 0.3937007874015748
          },
          {
            "duration": 0.21739099999999212,
            "durationTicks": 192,
            "midi": 63,
            "name": "D#4",
            "ticks": 182996,
            "time": 207.19626789583333,
            "velocity": 0.3937007874015748
          },
          {
            "duration": 0.10869549999998185,
            "durationTicks": 96,
            "midi": 37,
            "name": "C#2",
            "ticks": 182996,
            "time": 207.19626789583333,
            "velocity": 0.3937007874015748
          },
          {
            "duration": 0.21739099999999212,
            "durationTicks": 192,
            "midi": 58,
            "name": "A#3",
            "ticks": 182996,
            "time": 207.19626789583333,
            "velocity": 0.3937007874015748
          },
          {
            "duration": 0.10869549999998185,
            "durationTicks": 96,
            "midi": 49,
            "name": "C#3",
            "ticks": 182996,
            "time": 207.19626789583333,
            "velocity": 0.3937007874015748
          },
          {
            "duration": 0.10869549999998185,
            "durationTicks": 96,
            "midi": 76,
            "name": "E5",
            "ticks": 182996,
            "time": 207.19626789583333,
            "velocity": 0.3937007874015748
          },
          {
            "duration": 0.21739099999999212,
            "durationTicks": 192,
            "midi": 54,
            "name": "F#3",
            "ticks": 182996,
            "time": 207.19626789583333,
            "velocity": 0.3937007874015748
          },
          {
            "duration": 0.21739099999999212,
            "durationTicks": 192,
            "midi": 75,
            "name": "D#5",
            "ticks": 182996,
            "time": 207.19626789583333,
            "velocity": 0.3937007874015748
          },
          {
            "duration": 0.21739099999999212,
            "durationTicks": 192,
            "midi": 63,
            "name": "D#4",
            "ticks": 182996,
            "time": 207.19626789583333,
            "velocity": 0.3937007874015748
          },
          {
            "duration": 0.21739099999999212,
            "durationTicks": 192,
            "midi": 58,
            "name": "A#3",
            "ticks": 182996,
            "time": 207.19626789583333,
            "velocity": 0.3937007874015748
          },
          {
            "duration": 0.10869550000001027,
            "durationTicks": 96,
            "midi": 76,
            "name": "E5",
            "ticks": 183092,
            "time": 207.3049633958333,
            "velocity": 0.3937007874015748
          },
          {
            "duration": 0.10869550000001027,
            "durationTicks": 96,
            "midi": 39,
            "name": "D#2",
            "ticks": 183092,
            "time": 207.3049633958333,
            "velocity": 0.3937007874015748
          },
          {
            "duration": 0.10869550000001027,
            "durationTicks": 96,
            "midi": 51,
            "name": "D#3",
            "ticks": 183092,
            "time": 207.3049633958333,
            "velocity": 0.3937007874015748
          },
          {
            "duration": 0.10869550000001027,
            "durationTicks": 96,
            "midi": 78,
            "name": "F#5",
            "ticks": 183092,
            "time": 207.3049633958333,
            "velocity": 0.3937007874015748
          },
          {
            "duration": 0.21739099999999212,
            "durationTicks": 192,
            "midi": 61,
            "name": "C#4",
            "ticks": 183188,
            "time": 207.41365889583332,
            "velocity": 0.3937007874015748
          },
          {
            "duration": 0.21739099999999212,
            "durationTicks": 192,
            "midi": 34,
            "name": "A#1",
            "ticks": 183188,
            "time": 207.41365889583332,
            "velocity": 0.3937007874015748
          },
          {
            "duration": 0.21739099999999212,
            "durationTicks": 192,
            "midi": 63,
            "name": "D#4",
            "ticks": 183188,
            "time": 207.41365889583332,
            "velocity": 0.3937007874015748
          },
          {
            "duration": 0.21739099999999212,
            "durationTicks": 192,
            "midi": 58,
            "name": "A#3",
            "ticks": 183188,
            "time": 207.41365889583332,
            "velocity": 0.3937007874015748
          },
          {
            "duration": 0.10869550000001027,
            "durationTicks": 96,
            "midi": 75,
            "name": "D#5",
            "ticks": 183188,
            "time": 207.41365889583332,
            "velocity": 0.3937007874015748
          },
          {
            "duration": 0.21739099999999212,
            "durationTicks": 192,
            "midi": 65,
            "name": "F4",
            "ticks": 183188,
            "time": 207.41365889583332,
            "velocity": 0.3937007874015748
          },
          {
            "duration": 0.10869550000001027,
            "durationTicks": 96,
            "midi": 51,
            "name": "D#3",
            "ticks": 183188,
            "time": 207.41365889583332,
            "velocity": 0.3937007874015748
          },
          {
            "duration": 0.21739099999999212,
            "durationTicks": 192,
            "midi": 77,
            "name": "F5",
            "ticks": 183188,
            "time": 207.41365889583332,
            "velocity": 0.3937007874015748
          },
          {
            "duration": 0.21739099999999212,
            "durationTicks": 192,
            "midi": 73,
            "name": "C#5",
            "ticks": 183188,
            "time": 207.41365889583332,
            "velocity": 0.3937007874015748
          },
          {
            "duration": 0.10869550000001027,
            "durationTicks": 96,
            "midi": 39,
            "name": "D#2",
            "ticks": 183188,
            "time": 207.41365889583332,
            "velocity": 0.3937007874015748
          },
          {
            "duration": 0.10869550000001027,
            "durationTicks": 96,
            "midi": 27,
            "name": "D#1",
            "ticks": 183188,
            "time": 207.41365889583332,
            "velocity": 0.3937007874015748
          },
          {
            "duration": 0.21739099999999212,
            "durationTicks": 192,
            "midi": 54,
            "name": "F#3",
            "ticks": 183188,
            "time": 207.41365889583332,
            "velocity": 0.3937007874015748
          },
          {
            "duration": 0.10869549999998185,
            "durationTicks": 96,
            "midi": 54,
            "name": "F#3",
            "ticks": 183284,
            "time": 207.52235439583333,
            "velocity": 0.3937007874015748
          },
          {
            "duration": 0.10869549999998185,
            "durationTicks": 96,
            "midi": 75,
            "name": "D#5",
            "ticks": 183284,
            "time": 207.52235439583333,
            "velocity": 0.3937007874015748
          },
          {
            "duration": 0.21739100000002054,
            "durationTicks": 192,
            "midi": 63,
            "name": "D#4",
            "ticks": 183380,
            "time": 207.6310498958333,
            "velocity": 0.3937007874015748
          },
          {
            "duration": 0.10869550000001027,
            "durationTicks": 96,
            "midi": 74,
            "name": "D5",
            "ticks": 183380,
            "time": 207.6310498958333,
            "velocity": 0.3937007874015748
          },
          {
            "duration": 0.21739100000002054,
            "durationTicks": 192,
            "midi": 63,
            "name": "D#4",
            "ticks": 183380,
            "time": 207.6310498958333,
            "velocity": 0.3937007874015748
          },
          {
            "duration": 0.21739100000002054,
            "durationTicks": 192,
            "midi": 66,
            "name": "F#4",
            "ticks": 183380,
            "time": 207.6310498958333,
            "velocity": 0.3937007874015748
          },
          {
            "duration": 0.21739100000002054,
            "durationTicks": 192,
            "midi": 75,
            "name": "D#5",
            "ticks": 183380,
            "time": 207.6310498958333,
            "velocity": 0.3937007874015748
          },
          {
            "duration": 0.10869550000001027,
            "durationTicks": 96,
            "midi": 58,
            "name": "A#3",
            "ticks": 183380,
            "time": 207.6310498958333,
            "velocity": 0.3937007874015748
          },
          {
            "duration": 0.21739100000002054,
            "durationTicks": 192,
            "midi": 54,
            "name": "F#3",
            "ticks": 183380,
            "time": 207.6310498958333,
            "velocity": 0.3937007874015748
          },
          {
            "duration": 0.10869550000001027,
            "durationTicks": 96,
            "midi": 51,
            "name": "D#3",
            "ticks": 183380,
            "time": 207.6310498958333,
            "velocity": 0.3937007874015748
          },
          {
            "duration": 0.21739100000002054,
            "durationTicks": 192,
            "midi": 58,
            "name": "A#3",
            "ticks": 183380,
            "time": 207.6310498958333,
            "velocity": 0.3937007874015748
          },
          {
            "duration": 0.21739100000002054,
            "durationTicks": 192,
            "midi": 78,
            "name": "F#5",
            "ticks": 183380,
            "time": 207.6310498958333,
            "velocity": 0.3937007874015748
          },
          {
            "duration": 0.10869550000001027,
            "durationTicks": 96,
            "midi": 39,
            "name": "D#2",
            "ticks": 183380,
            "time": 207.6310498958333,
            "velocity": 0.3937007874015748
          },
          {
            "duration": 0.10869550000001027,
            "durationTicks": 96,
            "midi": 51,
            "name": "D#3",
            "ticks": 183476,
            "time": 207.73974539583332,
            "velocity": 0.3937007874015748
          },
          {
            "duration": 0.10869550000001027,
            "durationTicks": 96,
            "midi": 63,
            "name": "D#4",
            "ticks": 183476,
            "time": 207.73974539583332,
            "velocity": 0.3937007874015748
          },
          {
            "duration": 0.10869550000001027,
            "durationTicks": 96,
            "midi": 39,
            "name": "D#2",
            "ticks": 183476,
            "time": 207.73974539583332,
            "velocity": 0.3937007874015748
          },
          {
            "duration": 0.10869550000001027,
            "durationTicks": 96,
            "midi": 74,
            "name": "D5",
            "ticks": 183476,
            "time": 207.73974539583332,
            "velocity": 0.3937007874015748
          },
          {
            "duration": 0.10869549999998185,
            "durationTicks": 96,
            "midi": 73,
            "name": "C#5",
            "ticks": 183572,
            "time": 207.84844089583333,
            "velocity": 0.3937007874015748
          },
          {
            "duration": 0.21739099999999212,
            "durationTicks": 192,
            "midi": 68,
            "name": "G#4",
            "ticks": 183572,
            "time": 207.84844089583333,
            "velocity": 0.3937007874015748
          },
          {
            "duration": 0.21739099999999212,
            "durationTicks": 192,
            "midi": 63,
            "name": "D#4",
            "ticks": 183572,
            "time": 207.84844089583333,
            "velocity": 0.3937007874015748
          },
          {
            "duration": 0.21739099999999212,
            "durationTicks": 192,
            "midi": 65,
            "name": "F4",
            "ticks": 183572,
            "time": 207.84844089583333,
            "velocity": 0.3937007874015748
          },
          {
            "duration": 0.21739099999999212,
            "durationTicks": 192,
            "midi": 58,
            "name": "A#3",
            "ticks": 183572,
            "time": 207.84844089583333,
            "velocity": 0.3937007874015748
          },
          {
            "duration": 0.10869549999998185,
            "durationTicks": 96,
            "midi": 39,
            "name": "D#2",
            "ticks": 183572,
            "time": 207.84844089583333,
            "velocity": 0.3937007874015748
          },
          {
            "duration": 0.10869549999998185,
            "durationTicks": 96,
            "midi": 27,
            "name": "D#1",
            "ticks": 183572,
            "time": 207.84844089583333,
            "velocity": 0.3937007874015748
          },
          {
            "duration": 0.10869549999998185,
            "durationTicks": 96,
            "midi": 66,
            "name": "F#4",
            "ticks": 183572,
            "time": 207.84844089583333,
            "velocity": 0.3937007874015748
          },
          {
            "duration": 0.21739099999999212,
            "durationTicks": 192,
            "midi": 34,
            "name": "A#1",
            "ticks": 183572,
            "time": 207.84844089583333,
            "velocity": 0.3937007874015748
          },
          {
            "duration": 0.21739099999999212,
            "durationTicks": 192,
            "midi": 80,
            "name": "G#5",
            "ticks": 183572,
            "time": 207.84844089583333,
            "velocity": 0.3937007874015748
          },
          {
            "duration": 0.21739099999999212,
            "durationTicks": 192,
            "midi": 77,
            "name": "F5",
            "ticks": 183572,
            "time": 207.84844089583333,
            "velocity": 0.3937007874015748
          },
          {
            "duration": 0.21739099999999212,
            "durationTicks": 192,
            "midi": 54,
            "name": "F#3",
            "ticks": 183572,
            "time": 207.84844089583333,
            "velocity": 0.3937007874015748
          },
          {
            "duration": 0.10869550000001027,
            "durationTicks": 96,
            "midi": 70,
            "name": "A#4",
            "ticks": 183668,
            "time": 207.95713639583332,
            "velocity": 0.3937007874015748
          },
          {
            "duration": 0.10869550000001027,
            "durationTicks": 96,
            "midi": 73,
            "name": "C#5",
            "ticks": 183668,
            "time": 207.95713639583332,
            "velocity": 0.3937007874015748
          },
          {
            "duration": 0.10869550000001027,
            "durationTicks": 96,
            "midi": 39,
            "name": "D#2",
            "ticks": 183668,
            "time": 207.95713639583332,
            "velocity": 0.3937007874015748
          },
          {
            "duration": 0.10869550000001027,
            "durationTicks": 96,
            "midi": 51,
            "name": "D#3",
            "ticks": 183668,
            "time": 207.95713639583332,
            "velocity": 0.3937007874015748
          },
          {
            "duration": 0.21739099999999212,
            "durationTicks": 192,
            "midi": 54,
            "name": "F#3",
            "ticks": 183764,
            "time": 208.06583189583333,
            "velocity": 0.3937007874015748
          },
          {
            "duration": 0.21739099999999212,
            "durationTicks": 192,
            "midi": 66,
            "name": "F#4",
            "ticks": 183764,
            "time": 208.06583189583333,
            "velocity": 0.3937007874015748
          },
          {
            "duration": 0.10869550000001027,
            "durationTicks": 96,
            "midi": 72,
            "name": "C5",
            "ticks": 183764,
            "time": 208.06583189583333,
            "velocity": 0.3937007874015748
          },
          {
            "duration": 0.21739099999999212,
            "durationTicks": 192,
            "midi": 63,
            "name": "D#4",
            "ticks": 183764,
            "time": 208.06583189583333,
            "velocity": 0.3937007874015748
          },
          {
            "duration": 0.21739099999999212,
            "durationTicks": 192,
            "midi": 70,
            "name": "A#4",
            "ticks": 183764,
            "time": 208.06583189583333,
            "velocity": 0.3937007874015748
          },
          {
            "duration": 0.10869550000001027,
            "durationTicks": 96,
            "midi": 49,
            "name": "C#3",
            "ticks": 183764,
            "time": 208.06583189583333,
            "velocity": 0.3937007874015748
          },
          {
            "duration": 0.21739099999999212,
            "durationTicks": 192,
            "midi": 82,
            "name": "A#5",
            "ticks": 183764,
            "time": 208.06583189583333,
            "velocity": 0.3937007874015748
          },
          {
            "duration": 0.10869550000001027,
            "durationTicks": 96,
            "midi": 75,
            "name": "D#5",
            "ticks": 183764,
            "time": 208.06583189583333,
            "velocity": 0.3937007874015748
          },
          {
            "duration": 0.21739099999999212,
            "durationTicks": 192,
            "midi": 78,
            "name": "F#5",
            "ticks": 183764,
            "time": 208.06583189583333,
            "velocity": 0.3937007874015748
          },
          {
            "duration": 0.10869550000001027,
            "durationTicks": 96,
            "midi": 37,
            "name": "C#2",
            "ticks": 183764,
            "time": 208.06583189583333,
            "velocity": 0.3937007874015748
          },
          {
            "duration": 0.21739099999999212,
            "durationTicks": 192,
            "midi": 58,
            "name": "A#3",
            "ticks": 183764,
            "time": 208.06583189583333,
            "velocity": 0.3937007874015748
          },
          {
            "duration": 0.10869549999998185,
            "durationTicks": 96,
            "midi": 39,
            "name": "D#2",
            "ticks": 183860,
            "time": 208.17452739583334,
            "velocity": 0.3937007874015748
          },
          {
            "duration": 0.10869549999998185,
            "durationTicks": 96,
            "midi": 78,
            "name": "F#5",
            "ticks": 183860,
            "time": 208.17452739583334,
            "velocity": 0.3937007874015748
          },
          {
            "duration": 0.10869549999998185,
            "durationTicks": 96,
            "midi": 72,
            "name": "C5",
            "ticks": 183860,
            "time": 208.17452739583334,
            "velocity": 0.3937007874015748
          },
          {
            "duration": 0.10869549999998185,
            "durationTicks": 96,
            "midi": 51,
            "name": "D#3",
            "ticks": 183860,
            "time": 208.17452739583334,
            "velocity": 0.3937007874015748
          },
          {
            "duration": 0.21739100000002054,
            "durationTicks": 192,
            "midi": 58,
            "name": "A#3",
            "ticks": 183956,
            "time": 208.28322289583332,
            "velocity": 0.3937007874015748
          },
          {
            "duration": 0.21739100000002054,
            "durationTicks": 192,
            "midi": 34,
            "name": "A#1",
            "ticks": 183956,
            "time": 208.28322289583332,
            "velocity": 0.3937007874015748
          },
          {
            "duration": 0.21739100000002054,
            "durationTicks": 192,
            "midi": 63,
            "name": "D#4",
            "ticks": 183956,
            "time": 208.28322289583332,
            "velocity": 0.3937007874015748
          },
          {
            "duration": 0.10869550000001027,
            "durationTicks": 96,
            "midi": 51,
            "name": "D#3",
            "ticks": 183956,
            "time": 208.28322289583332,
            "velocity": 0.3937007874015748
          },
          {
            "duration": 0.21739100000002054,
            "durationTicks": 192,
            "midi": 58,
            "name": "A#3",
            "ticks": 183956,
            "time": 208.28322289583332,
            "velocity": 0.3937007874015748
          },
          {
            "duration": 0.10869550000001027,
            "durationTicks": 96,
            "midi": 71,
            "name": "B4",
            "ticks": 183956,
            "time": 208.28322289583332,
            "velocity": 0.3937007874015748
          },
          {
            "duration": 0.10869550000001027,
            "durationTicks": 96,
            "midi": 61,
            "name": "C#4",
            "ticks": 183956,
            "time": 208.28322289583332,
            "velocity": 0.3937007874015748
          },
          {
            "duration": 0.21739100000002054,
            "durationTicks": 192,
            "midi": 75,
            "name": "D#5",
            "ticks": 183956,
            "time": 208.28322289583332,
            "velocity": 0.3937007874015748
          },
          {
            "duration": 0.21739100000002054,
            "durationTicks": 192,
            "midi": 54,
            "name": "F#3",
            "ticks": 183956,
            "time": 208.28322289583332,
            "velocity": 0.3937007874015748
          },
          {
            "duration": 0.21739100000002054,
            "durationTicks": 192,
            "midi": 70,
            "name": "A#4",
            "ticks": 183956,
            "time": 208.28322289583332,
            "velocity": 0.3937007874015748
          },
          {
            "duration": 0.10869550000001027,
            "durationTicks": 96,
            "midi": 39,
            "name": "D#2",
            "ticks": 183956,
            "time": 208.28322289583332,
            "velocity": 0.3937007874015748
          },
          {
            "duration": 0.21739100000002054,
            "durationTicks": 192,
            "midi": 61,
            "name": "C#4",
            "ticks": 183956,
            "time": 208.28322289583332,
            "velocity": 0.3937007874015748
          },
          {
            "duration": 0.10869550000001027,
            "durationTicks": 96,
            "midi": 66,
            "name": "F#4",
            "ticks": 184052,
            "time": 208.39191839583333,
            "velocity": 0.3937007874015748
          },
          {
            "duration": 0.10869550000001027,
            "durationTicks": 96,
            "midi": 71,
            "name": "B4",
            "ticks": 184052,
            "time": 208.39191839583333,
            "velocity": 0.3937007874015748
          },
          {
            "duration": 0.10869549999998185,
            "durationTicks": 96,
            "midi": 34,
            "name": "A#1",
            "ticks": 184148,
            "time": 208.50061389583334,
            "velocity": 0.3937007874015748
          },
          {
            "duration": 0.10869549999998185,
            "durationTicks": 96,
            "midi": 46,
            "name": "A#2",
            "ticks": 184148,
            "time": 208.50061389583334,
            "velocity": 0.3937007874015748
          },
          {
            "duration": 0.10869549999998185,
            "durationTicks": 96,
            "midi": 70,
            "name": "A#4",
            "ticks": 184148,
            "time": 208.50061389583334,
            "velocity": 0.3937007874015748
          },
          {
            "duration": 0.21739099999999212,
            "durationTicks": 192,
            "midi": 61,
            "name": "C#4",
            "ticks": 184148,
            "time": 208.50061389583334,
            "velocity": 0.3937007874015748
          },
          {
            "duration": 0.21739099999999212,
            "durationTicks": 192,
            "midi": 34,
            "name": "A#1",
            "ticks": 184148,
            "time": 208.50061389583334,
            "velocity": 0.3937007874015748
          },
          {
            "duration": 0.21739099999999212,
            "durationTicks": 192,
            "midi": 58,
            "name": "A#3",
            "ticks": 184148,
            "time": 208.50061389583334,
            "velocity": 0.3937007874015748
          },
          {
            "duration": 0.10869549999998185,
            "durationTicks": 96,
            "midi": 70,
            "name": "A#4",
            "ticks": 184148,
            "time": 208.50061389583334,
            "velocity": 0.3937007874015748
          },
          {
            "duration": 0.21739099999999212,
            "durationTicks": 192,
            "midi": 54,
            "name": "F#3",
            "ticks": 184148,
            "time": 208.50061389583334,
            "velocity": 0.3937007874015748
          },
          {
            "duration": 0.10869550000001027,
            "durationTicks": 96,
            "midi": 73,
            "name": "C#5",
            "ticks": 184244,
            "time": 208.60930939583332,
            "velocity": 0.3937007874015748
          },
          {
            "duration": 0.10869550000001027,
            "durationTicks": 96,
            "midi": 37,
            "name": "C#2",
            "ticks": 184244,
            "time": 208.60930939583332,
            "velocity": 0.3937007874015748
          },
          {
            "duration": 0.10869550000001027,
            "durationTicks": 96,
            "midi": 70,
            "name": "A#4",
            "ticks": 184244,
            "time": 208.60930939583332,
            "velocity": 0.3937007874015748
          },
          {
            "duration": 0.10869550000001027,
            "durationTicks": 96,
            "midi": 49,
            "name": "C#3",
            "ticks": 184244,
            "time": 208.60930939583332,
            "velocity": 0.3937007874015748
          },
          {
            "duration": 0.21739099999999212,
            "durationTicks": 192,
            "midi": 78,
            "name": "F#5",
            "ticks": 184340,
            "time": 208.71800489583333,
            "velocity": 0.3937007874015748
          },
          {
            "duration": 0.21739099999999212,
            "durationTicks": 192,
            "midi": 56,
            "name": "G#3",
            "ticks": 184340,
            "time": 208.71800489583333,
            "velocity": 0.3937007874015748
          },
          {
            "duration": 0.10869549999998185,
            "durationTicks": 96,
            "midi": 69,
            "name": "A4",
            "ticks": 184340,
            "time": 208.71800489583333,
            "velocity": 0.3937007874015748
          },
          {
            "duration": 0.21739099999999212,
            "durationTicks": 192,
            "midi": 34,
            "name": "A#1",
            "ticks": 184340,
            "time": 208.71800489583333,
            "velocity": 0.3937007874015748
          },
          {
            "duration": 0.21739099999999212,
            "durationTicks": 192,
            "midi": 66,
            "name": "F#4",
            "ticks": 184340,
            "time": 208.71800489583333,
            "velocity": 0.3937007874015748
          },
          {
            "duration": 0.10869549999998185,
            "durationTicks": 96,
            "midi": 32,
            "name": "G#1",
            "ticks": 184340,
            "time": 208.71800489583333,
            "velocity": 0.3937007874015748
          },
          {
            "duration": 0.21739099999999212,
            "durationTicks": 192,
            "midi": 51,
            "name": "D#3",
            "ticks": 184340,
            "time": 208.71800489583333,
            "velocity": 0.3937007874015748
          },
          {
            "duration": 0.21739099999999212,
            "durationTicks": 192,
            "midi": 70,
            "name": "A#4",
            "ticks": 184340,
            "time": 208.71800489583333,
            "velocity": 0.3937007874015748
          },
          {
            "duration": 0.10869549999998185,
            "durationTicks": 96,
            "midi": 60,
            "name": "C4",
            "ticks": 184340,
            "time": 208.71800489583333,
            "velocity": 0.3937007874015748
          },
          {
            "duration": 0.21739099999999212,
            "durationTicks": 192,
            "midi": 60,
            "name": "C4",
            "ticks": 184340,
            "time": 208.71800489583333,
            "velocity": 0.3937007874015748
          },
          {
            "duration": 0.10869549999998185,
            "durationTicks": 96,
            "midi": 44,
            "name": "G#2",
            "ticks": 184340,
            "time": 208.71800489583333,
            "velocity": 0.3937007874015748
          },
          {
            "duration": 0.21739099999999212,
            "durationTicks": 192,
            "midi": 82,
            "name": "A#5",
            "ticks": 184340,
            "time": 208.71800489583333,
            "velocity": 0.3937007874015748
          },
          {
            "duration": 0.10869550000001027,
            "durationTicks": 96,
            "midi": 63,
            "name": "D#4",
            "ticks": 184436,
            "time": 208.8267003958333,
            "velocity": 0.3937007874015748
          },
          {
            "duration": 0.10869550000001027,
            "durationTicks": 96,
            "midi": 69,
            "name": "A4",
            "ticks": 184436,
            "time": 208.8267003958333,
            "velocity": 0.3937007874015748
          },
          {
            "duration": 0.10869550000001027,
            "durationTicks": 96,
            "midi": 68,
            "name": "G#4",
            "ticks": 184532,
            "time": 208.93539589583332,
            "velocity": 0.3937007874015748
          },
          {
            "duration": 0.10869550000001027,
            "durationTicks": 96,
            "midi": 68,
            "name": "G#4",
            "ticks": 184532,
            "time": 208.93539589583332,
            "velocity": 0.3937007874015748
          },
          {
            "duration": 0.21739099999999212,
            "durationTicks": 192,
            "midi": 68,
            "name": "G#4",
            "ticks": 184532,
            "time": 208.93539589583332,
            "velocity": 0.3937007874015748
          },
          {
            "duration": 0.10869550000001027,
            "durationTicks": 96,
            "midi": 30,
            "name": "F#1",
            "ticks": 184532,
            "time": 208.93539589583332,
            "velocity": 0.3937007874015748
          },
          {
            "duration": 0.21739099999999212,
            "durationTicks": 192,
            "midi": 85,
            "name": "C#6",
            "ticks": 184532,
            "time": 208.93539589583332,
            "velocity": 0.3937007874015748
          },
          {
            "duration": 0.21739099999999212,
            "durationTicks": 192,
            "midi": 51,
            "name": "D#3",
            "ticks": 184532,
            "time": 208.93539589583332,
            "velocity": 0.3937007874015748
          },
          {
            "duration": 0.21739099999999212,
            "durationTicks": 192,
            "midi": 56,
            "name": "G#3",
            "ticks": 184532,
            "time": 208.93539589583332,
            "velocity": 0.3937007874015748
          },
          {
            "duration": 0.21739099999999212,
            "durationTicks": 192,
            "midi": 80,
            "name": "G#5",
            "ticks": 184532,
            "time": 208.93539589583332,
            "velocity": 0.3937007874015748
          },
          {
            "duration": 0.21739099999999212,
            "durationTicks": 192,
            "midi": 60,
            "name": "C4",
            "ticks": 184532,
            "time": 208.93539589583332,
            "velocity": 0.3937007874015748
          },
          {
            "duration": 0.21739099999999212,
            "durationTicks": 192,
            "midi": 73,
            "name": "C#5",
            "ticks": 184532,
            "time": 208.93539589583332,
            "velocity": 0.3937007874015748
          },
          {
            "duration": 0.10869550000001027,
            "durationTicks": 96,
            "midi": 42,
            "name": "F#2",
            "ticks": 184532,
            "time": 208.93539589583332,
            "velocity": 0.3937007874015748
          },
          {
            "duration": 0.10869549999998185,
            "durationTicks": 96,
            "midi": 72,
            "name": "C5",
            "ticks": 184628,
            "time": 209.04409139583333,
            "velocity": 0.3937007874015748
          },
          {
            "duration": 0.10869549999998185,
            "durationTicks": 96,
            "midi": 44,
            "name": "G#2",
            "ticks": 184628,
            "time": 209.04409139583333,
            "velocity": 0.3937007874015748
          },
          {
            "duration": 0.10869549999998185,
            "durationTicks": 96,
            "midi": 32,
            "name": "G#1",
            "ticks": 184628,
            "time": 209.04409139583333,
            "velocity": 0.3937007874015748
          },
          {
            "duration": 0.10869549999998185,
            "durationTicks": 96,
            "midi": 68,
            "name": "G#4",
            "ticks": 184628,
            "time": 209.04409139583333,
            "velocity": 0.3937007874015748
          },
          {
            "duration": 0.10869550000001027,
            "durationTicks": 96,
            "midi": 35,
            "name": "B1",
            "ticks": 184724,
            "time": 209.15278689583332,
            "velocity": 0.3937007874015748
          },
          {
            "duration": 0.21739100000002054,
            "durationTicks": 192,
            "midi": 85,
            "name": "C#6",
            "ticks": 184724,
            "time": 209.15278689583332,
            "velocity": 0.3937007874015748
          },
          {
            "duration": 0.10869550000001027,
            "durationTicks": 96,
            "midi": 47,
            "name": "B2",
            "ticks": 184724,
            "time": 209.15278689583332,
            "velocity": 0.3937007874015748
          },
          {
            "duration": 0.21739100000002054,
            "durationTicks": 192,
            "midi": 68,
            "name": "G#4",
            "ticks": 184724,
            "time": 209.15278689583332,
            "velocity": 0.3937007874015748
          },
          {
            "duration": 0.21739100000002054,
            "durationTicks": 192,
            "midi": 34,
            "name": "A#1",
            "ticks": 184724,
            "time": 209.15278689583332,
            "velocity": 0.3937007874015748
          },
          {
            "duration": 0.21739100000002054,
            "durationTicks": 192,
            "midi": 73,
            "name": "C#5",
            "ticks": 184724,
            "time": 209.15278689583332,
            "velocity": 0.3937007874015748
          },
          {
            "duration": 0.21739100000002054,
            "durationTicks": 192,
            "midi": 54,
            "name": "F#3",
            "ticks": 184724,
            "time": 209.15278689583332,
            "velocity": 0.3937007874015748
          },
          {
            "duration": 0.10869550000001027,
            "durationTicks": 96,
            "midi": 35,
            "name": "B1",
            "ticks": 184724,
            "time": 209.15278689583332,
            "velocity": 0.3937007874015748
          },
          {
            "duration": 0.21739100000002054,
            "durationTicks": 192,
            "midi": 51,
            "name": "D#3",
            "ticks": 184724,
            "time": 209.15278689583332,
            "velocity": 0.3937007874015748
          },
          {
            "duration": 0.21739100000002054,
            "durationTicks": 192,
            "midi": 80,
            "name": "G#5",
            "ticks": 184724,
            "time": 209.15278689583332,
            "velocity": 0.3937007874015748
          },
          {
            "duration": 0.21739100000002054,
            "durationTicks": 192,
            "midi": 59,
            "name": "B3",
            "ticks": 184724,
            "time": 209.15278689583332,
            "velocity": 0.3937007874015748
          },
          {
            "duration": 0.10869550000001027,
            "durationTicks": 96,
            "midi": 51,
            "name": "D#3",
            "ticks": 184820,
            "time": 209.26148239583333,
            "velocity": 0.3937007874015748
          },
          {
            "duration": 0.10869549999998185,
            "durationTicks": 96,
            "midi": 54,
            "name": "F#3",
            "ticks": 184916,
            "time": 209.37017789583334,
            "velocity": 0.3937007874015748
          },
          {
            "duration": 0.21739099999999212,
            "durationTicks": 192,
            "midi": 87,
            "name": "D#6",
            "ticks": 184916,
            "time": 209.37017789583334,
            "velocity": 0.3937007874015748
          },
          {
            "duration": 0.21739099999999212,
            "durationTicks": 192,
            "midi": 54,
            "name": "F#3",
            "ticks": 184916,
            "time": 209.37017789583334,
            "velocity": 0.3937007874015748
          },
          {
            "duration": 0.21739099999999212,
            "durationTicks": 192,
            "midi": 59,
            "name": "B3",
            "ticks": 184916,
            "time": 209.37017789583334,
            "velocity": 0.3937007874015748
          },
          {
            "duration": 0.21739099999999212,
            "durationTicks": 192,
            "midi": 75,
            "name": "D#5",
            "ticks": 184916,
            "time": 209.37017789583334,
            "velocity": 0.3937007874015748
          },
          {
            "duration": 0.21739099999999212,
            "durationTicks": 192,
            "midi": 51,
            "name": "D#3",
            "ticks": 184916,
            "time": 209.37017789583334,
            "velocity": 0.3937007874015748
          },
          {
            "duration": 0.21739099999999212,
            "durationTicks": 192,
            "midi": 82,
            "name": "A#5",
            "ticks": 184916,
            "time": 209.37017789583334,
            "velocity": 0.3937007874015748
          },
          {
            "duration": 0.10869549999998185,
            "durationTicks": 96,
            "midi": 47,
            "name": "B2",
            "ticks": 184916,
            "time": 209.37017789583334,
            "velocity": 0.3937007874015748
          },
          {
            "duration": 0.10869549999998185,
            "durationTicks": 96,
            "midi": 35,
            "name": "B1",
            "ticks": 184916,
            "time": 209.37017789583334,
            "velocity": 0.3937007874015748
          },
          {
            "duration": 0.21739099999999212,
            "durationTicks": 192,
            "midi": 70,
            "name": "A#4",
            "ticks": 184916,
            "time": 209.37017789583334,
            "velocity": 0.3937007874015748
          },
          {
            "duration": 0.10869550000001027,
            "durationTicks": 96,
            "midi": 59,
            "name": "B3",
            "ticks": 185012,
            "time": 209.47887339583332,
            "velocity": 0.3937007874015748
          },
          {
            "duration": 0.10869550000001027,
            "durationTicks": 96,
            "midi": 47,
            "name": "B2",
            "ticks": 185012,
            "time": 209.47887339583332,
            "velocity": 0.3937007874015748
          },
          {
            "duration": 0.10869550000001027,
            "durationTicks": 96,
            "midi": 35,
            "name": "B1",
            "ticks": 185012,
            "time": 209.47887339583332,
            "velocity": 0.3937007874015748
          },
          {
            "duration": 0.21739099999999212,
            "durationTicks": 192,
            "midi": 54,
            "name": "F#3",
            "ticks": 185108,
            "time": 209.58756889583333,
            "velocity": 0.3937007874015748
          },
          {
            "duration": 0.21739099999999212,
            "durationTicks": 192,
            "midi": 78,
            "name": "F#5",
            "ticks": 185108,
            "time": 209.58756889583333,
            "velocity": 0.3937007874015748
          },
          {
            "duration": 0.21739099999999212,
            "durationTicks": 192,
            "midi": 82,
            "name": "A#5",
            "ticks": 185108,
            "time": 209.58756889583333,
            "velocity": 0.3937007874015748
          },
          {
            "duration": 0.21739099999999212,
            "durationTicks": 192,
            "midi": 51,
            "name": "D#3",
            "ticks": 185108,
            "time": 209.58756889583333,
            "velocity": 0.3937007874015748
          },
          {
            "duration": 0.21739099999999212,
            "durationTicks": 192,
            "midi": 70,
            "name": "A#4",
            "ticks": 185108,
            "time": 209.58756889583333,
            "velocity": 0.3937007874015748
          },
          {
            "duration": 0.10869550000001027,
            "durationTicks": 96,
            "midi": 35,
            "name": "B1",
            "ticks": 185108,
            "time": 209.58756889583333,
            "velocity": 0.3937007874015748
          },
          {
            "duration": 0.10869550000001027,
            "durationTicks": 96,
            "midi": 35,
            "name": "B1",
            "ticks": 185108,
            "time": 209.58756889583333,
            "velocity": 0.3937007874015748
          },
          {
            "duration": 0.21739099999999212,
            "durationTicks": 192,
            "midi": 66,
            "name": "F#4",
            "ticks": 185108,
            "time": 209.58756889583333,
            "velocity": 0.3937007874015748
          },
          {
            "duration": 0.21739099999999212,
            "durationTicks": 192,
            "midi": 34,
            "name": "A#1",
            "ticks": 185108,
            "time": 209.58756889583333,
            "velocity": 0.3937007874015748
          },
          {
            "duration": 0.21739099999999212,
            "durationTicks": 192,
            "midi": 59,
            "name": "B3",
            "ticks": 185108,
            "time": 209.58756889583333,
            "velocity": 0.3937007874015748
          },
          {
            "duration": 0.10869550000001027,
            "durationTicks": 96,
            "midi": 63,
            "name": "D#4",
            "ticks": 185108,
            "time": 209.58756889583333,
            "velocity": 0.3937007874015748
          },
          {
            "duration": 0.10869549999998185,
            "durationTicks": 96,
            "midi": 66,
            "name": "F#4",
            "ticks": 185204,
            "time": 209.69626439583334,
            "velocity": 0.3937007874015748
          },
          {
            "duration": 0.10869549999998185,
            "durationTicks": 96,
            "midi": 47,
            "name": "B2",
            "ticks": 185204,
            "time": 209.69626439583334,
            "velocity": 0.3937007874015748
          },
          {
            "duration": 0.10869549999998185,
            "durationTicks": 96,
            "midi": 35,
            "name": "B1",
            "ticks": 185204,
            "time": 209.69626439583334,
            "velocity": 0.3937007874015748
          },
          {
            "duration": 0.21739099999999212,
            "durationTicks": 192,
            "midi": 68,
            "name": "G#4",
            "ticks": 185300,
            "time": 209.80495989583332,
            "velocity": 0.3937007874015748
          },
          {
            "duration": 0.21739099999999212,
            "durationTicks": 192,
            "midi": 80,
            "name": "G#5",
            "ticks": 185300,
            "time": 209.80495989583332,
            "velocity": 0.3937007874015748
          },
          {
            "duration": 0.10869550000001027,
            "durationTicks": 96,
            "midi": 46,
            "name": "A#2",
            "ticks": 185300,
            "time": 209.80495989583332,
            "velocity": 0.3937007874015748
          },
          {
            "duration": 0.21739099999999212,
            "durationTicks": 192,
            "midi": 54,
            "name": "F#3",
            "ticks": 185300,
            "time": 209.80495989583332,
            "velocity": 0.3937007874015748
          },
          {
            "duration": 0.10869550000001027,
            "durationTicks": 96,
            "midi": 34,
            "name": "A#1",
            "ticks": 185300,
            "time": 209.80495989583332,
            "velocity": 0.3937007874015748
          },
          {
            "duration": 0.21739099999999212,
            "durationTicks": 192,
            "midi": 59,
            "name": "B3",
            "ticks": 185300,
            "time": 209.80495989583332,
            "velocity": 0.3937007874015748
          },
          {
            "duration": 0.21739099999999212,
            "durationTicks": 192,
            "midi": 65,
            "name": "F4",
            "ticks": 185300,
            "time": 209.80495989583332,
            "velocity": 0.3937007874015748
          },
          {
            "duration": 0.21739099999999212,
            "durationTicks": 192,
            "midi": 51,
            "name": "D#3",
            "ticks": 185300,
            "time": 209.80495989583332,
            "velocity": 0.3937007874015748
          },
          {
            "duration": 0.21739099999999212,
            "durationTicks": 192,
            "midi": 77,
            "name": "F5",
            "ticks": 185300,
            "time": 209.80495989583332,
            "velocity": 0.3937007874015748
          },
          {
            "duration": 0.10869550000001027,
            "durationTicks": 96,
            "midi": 71,
            "name": "B4",
            "ticks": 185300,
            "time": 209.80495989583332,
            "velocity": 0.3937007874015748
          },
          {
            "duration": 0.10869549999998185,
            "durationTicks": 96,
            "midi": 47,
            "name": "B2",
            "ticks": 185396,
            "time": 209.91365539583333,
            "velocity": 0.3937007874015748
          },
          {
            "duration": 0.10869549999998185,
            "durationTicks": 96,
            "midi": 75,
            "name": "D#5",
            "ticks": 185396,
            "time": 209.91365539583333,
            "velocity": 0.3937007874015748
          },
          {
            "duration": 0.10869549999998185,
            "durationTicks": 96,
            "midi": 35,
            "name": "B1",
            "ticks": 185396,
            "time": 209.91365539583333,
            "velocity": 0.3937007874015748
          },
          {
            "duration": 0.10869550000001027,
            "durationTicks": 96,
            "midi": 47,
            "name": "B2",
            "ticks": 185492,
            "time": 210.0223508958333,
            "velocity": 0.3937007874015748
          },
          {
            "duration": 0.21739100000002054,
            "durationTicks": 192,
            "midi": 51,
            "name": "D#3",
            "ticks": 185492,
            "time": 210.0223508958333,
            "velocity": 0.3937007874015748
          },
          {
            "duration": 0.21739100000002054,
            "durationTicks": 192,
            "midi": 66,
            "name": "F#4",
            "ticks": 185492,
            "time": 210.0223508958333,
            "velocity": 0.3937007874015748
          },
          {
            "duration": 0.21739100000002054,
            "durationTicks": 192,
            "midi": 82,
            "name": "A#5",
            "ticks": 185492,
            "time": 210.0223508958333,
            "velocity": 0.3937007874015748
          },
          {
            "duration": 0.21739100000002054,
            "durationTicks": 192,
            "midi": 59,
            "name": "B3",
            "ticks": 185492,
            "time": 210.0223508958333,
            "velocity": 0.3937007874015748
          },
          {
            "duration": 0.21739100000002054,
            "durationTicks": 192,
            "midi": 70,
            "name": "A#4",
            "ticks": 185492,
            "time": 210.0223508958333,
            "velocity": 0.3937007874015748
          },
          {
            "duration": 0.21739100000002054,
            "durationTicks": 192,
            "midi": 34,
            "name": "A#1",
            "ticks": 185492,
            "time": 210.0223508958333,
            "velocity": 0.3937007874015748
          },
          {
            "duration": 0.10869550000001027,
            "durationTicks": 96,
            "midi": 35,
            "name": "B1",
            "ticks": 185492,
            "time": 210.0223508958333,
            "velocity": 0.3937007874015748
          },
          {
            "duration": 0.21739100000002054,
            "durationTicks": 192,
            "midi": 54,
            "name": "F#3",
            "ticks": 185492,
            "time": 210.0223508958333,
            "velocity": 0.3937007874015748
          },
          {
            "duration": 0.10869550000001027,
            "durationTicks": 96,
            "midi": 35,
            "name": "B1",
            "ticks": 185492,
            "time": 210.0223508958333,
            "velocity": 0.3937007874015748
          },
          {
            "duration": 0.21739100000002054,
            "durationTicks": 192,
            "midi": 78,
            "name": "F#5",
            "ticks": 185492,
            "time": 210.0223508958333,
            "velocity": 0.3937007874015748
          },
          {
            "duration": 0.10869550000001027,
            "durationTicks": 96,
            "midi": 51,
            "name": "D#3",
            "ticks": 185588,
            "time": 210.13104639583332,
            "velocity": 0.3937007874015748
          },
          {
            "duration": 0.10869549999998185,
            "durationTicks": 96,
            "midi": 54,
            "name": "F#3",
            "ticks": 185684,
            "time": 210.23974189583333,
            "velocity": 0.3937007874015748
          },
          {
            "duration": 0.21739099999999212,
            "durationTicks": 192,
            "midi": 59,
            "name": "B3",
            "ticks": 185684,
            "time": 210.23974189583333,
            "velocity": 0.3937007874015748
          },
          {
            "duration": 0.21739099999999212,
            "durationTicks": 192,
            "midi": 51,
            "name": "D#3",
            "ticks": 185684,
            "time": 210.23974189583333,
            "velocity": 0.3937007874015748
          },
          {
            "duration": 0.10869549999998185,
            "durationTicks": 96,
            "midi": 35,
            "name": "B1",
            "ticks": 185684,
            "time": 210.23974189583333,
            "velocity": 0.3937007874015748
          },
          {
            "duration": 0.10869549999998185,
            "durationTicks": 96,
            "midi": 47,
            "name": "B2",
            "ticks": 185684,
            "time": 210.23974189583333,
            "velocity": 0.3937007874015748
          },
          {
            "duration": 0.21739099999999212,
            "durationTicks": 192,
            "midi": 54,
            "name": "F#3",
            "ticks": 185684,
            "time": 210.23974189583333,
            "velocity": 0.3937007874015748
          },
          {
            "duration": 0.10869550000001027,
            "durationTicks": 96,
            "midi": 59,
            "name": "B3",
            "ticks": 185780,
            "time": 210.34843739583332,
            "velocity": 0.3937007874015748
          },
          {
            "duration": 0.10869550000001027,
            "durationTicks": 96,
            "midi": 47,
            "name": "B2",
            "ticks": 185780,
            "time": 210.34843739583332,
            "velocity": 0.3937007874015748
          },
          {
            "duration": 0.10869550000001027,
            "durationTicks": 96,
            "midi": 35,
            "name": "B1",
            "ticks": 185780,
            "time": 210.34843739583332,
            "velocity": 0.3937007874015748
          },
          {
            "duration": 0.21739099999999212,
            "durationTicks": 192,
            "midi": 34,
            "name": "A#1",
            "ticks": 185876,
            "time": 210.45713289583333,
            "velocity": 0.3937007874015748
          },
          {
            "duration": 0.21739099999999212,
            "durationTicks": 192,
            "midi": 59,
            "name": "B3",
            "ticks": 185876,
            "time": 210.45713289583333,
            "velocity": 0.3937007874015748
          },
          {
            "duration": 0.21739099999999212,
            "durationTicks": 192,
            "midi": 80,
            "name": "G#5",
            "ticks": 185876,
            "time": 210.45713289583333,
            "velocity": 0.3937007874015748
          },
          {
            "duration": 0.10869550000001027,
            "durationTicks": 96,
            "midi": 63,
            "name": "D#4",
            "ticks": 185876,
            "time": 210.45713289583333,
            "velocity": 0.3937007874015748
          },
          {
            "duration": 0.21739099999999212,
            "durationTicks": 192,
            "midi": 68,
            "name": "G#4",
            "ticks": 185876,
            "time": 210.45713289583333,
            "velocity": 0.3937007874015748
          },
          {
            "duration": 0.21739099999999212,
            "durationTicks": 192,
            "midi": 65,
            "name": "F4",
            "ticks": 185876,
            "time": 210.45713289583333,
            "velocity": 0.3937007874015748
          },
          {
            "duration": 0.21739099999999212,
            "durationTicks": 192,
            "midi": 51,
            "name": "D#3",
            "ticks": 185876,
            "time": 210.45713289583333,
            "velocity": 0.3937007874015748
          },
          {
            "duration": 0.10869550000001027,
            "durationTicks": 96,
            "midi": 35,
            "name": "B1",
            "ticks": 185876,
            "time": 210.45713289583333,
            "velocity": 0.3937007874015748
          },
          {
            "duration": 0.10869550000001027,
            "durationTicks": 96,
            "midi": 35,
            "name": "B1",
            "ticks": 185876,
            "time": 210.45713289583333,
            "velocity": 0.3937007874015748
          },
          {
            "duration": 0.21739099999999212,
            "durationTicks": 192,
            "midi": 54,
            "name": "F#3",
            "ticks": 185876,
            "time": 210.45713289583333,
            "velocity": 0.3937007874015748
          },
          {
            "duration": 0.21739099999999212,
            "durationTicks": 192,
            "midi": 77,
            "name": "F5",
            "ticks": 185876,
            "time": 210.45713289583333,
            "velocity": 0.3937007874015748
          },
          {
            "duration": 0.10869549999998185,
            "durationTicks": 96,
            "midi": 66,
            "name": "F#4",
            "ticks": 185972,
            "time": 210.56582839583334,
            "velocity": 0.3937007874015748
          },
          {
            "duration": 0.10869549999998185,
            "durationTicks": 96,
            "midi": 47,
            "name": "B2",
            "ticks": 185972,
            "time": 210.56582839583334,
            "velocity": 0.3937007874015748
          },
          {
            "duration": 0.10869549999998185,
            "durationTicks": 96,
            "midi": 35,
            "name": "B1",
            "ticks": 185972,
            "time": 210.56582839583334,
            "velocity": 0.3937007874015748
          },
          {
            "duration": 0.21739100000002054,
            "durationTicks": 192,
            "midi": 82,
            "name": "A#5",
            "ticks": 186068,
            "time": 210.67452389583332,
            "velocity": 0.3937007874015748
          },
          {
            "duration": 0.21739100000002054,
            "durationTicks": 192,
            "midi": 54,
            "name": "F#3",
            "ticks": 186068,
            "time": 210.67452389583332,
            "velocity": 0.3937007874015748
          },
          {
            "duration": 0.21739100000002054,
            "durationTicks": 192,
            "midi": 66,
            "name": "F#4",
            "ticks": 186068,
            "time": 210.67452389583332,
            "velocity": 0.3937007874015748
          },
          {
            "duration": 0.21739100000002054,
            "durationTicks": 192,
            "midi": 70,
            "name": "A#4",
            "ticks": 186068,
            "time": 210.67452389583332,
            "velocity": 0.3937007874015748
          },
          {
            "duration": 0.10869550000001027,
            "durationTicks": 96,
            "midi": 71,
            "name": "B4",
            "ticks": 186068,
            "time": 210.67452389583332,
            "velocity": 0.3937007874015748
          },
          {
            "duration": 0.21739100000002054,
            "durationTicks": 192,
            "midi": 51,
            "name": "D#3",
            "ticks": 186068,
            "time": 210.67452389583332,
            "velocity": 0.3937007874015748
          },
          {
            "duration": 0.21739100000002054,
            "durationTicks": 192,
            "midi": 59,
            "name": "B3",
            "ticks": 186068,
            "time": 210.67452389583332,
            "velocity": 0.3937007874015748
          },
          {
            "duration": 0.10869550000001027,
            "durationTicks": 96,
            "midi": 34,
            "name": "A#1",
            "ticks": 186068,
            "time": 210.67452389583332,
            "velocity": 0.3937007874015748
          },
          {
            "duration": 0.21739100000002054,
            "durationTicks": 192,
            "midi": 78,
            "name": "F#5",
            "ticks": 186068,
            "time": 210.67452389583332,
            "velocity": 0.3937007874015748
          },
          {
            "duration": 0.10869550000001027,
            "durationTicks": 96,
            "midi": 46,
            "name": "A#2",
            "ticks": 186068,
            "time": 210.67452389583332,
            "velocity": 0.3937007874015748
          },
          {
            "duration": 0.10869550000001027,
            "durationTicks": 96,
            "midi": 47,
            "name": "B2",
            "ticks": 186164,
            "time": 210.78321939583333,
            "velocity": 0.3937007874015748
          },
          {
            "duration": 0.10869550000001027,
            "durationTicks": 96,
            "midi": 35,
            "name": "B1",
            "ticks": 186164,
            "time": 210.78321939583333,
            "velocity": 0.3937007874015748
          },
          {
            "duration": 0.10869550000001027,
            "durationTicks": 96,
            "midi": 75,
            "name": "D#5",
            "ticks": 186164,
            "time": 210.78321939583333,
            "velocity": 0.3937007874015748
          },
          {
            "duration": 0.10869549999998185,
            "durationTicks": 96,
            "midi": 49,
            "name": "C#3",
            "ticks": 186260,
            "time": 210.89191489583334,
            "velocity": 0.3937007874015748
          },
          {
            "duration": 0.21739099999999212,
            "durationTicks": 192,
            "midi": 73,
            "name": "C#5",
            "ticks": 186260,
            "time": 210.89191489583334,
            "velocity": 0.3937007874015748
          },
          {
            "duration": 0.21739099999999212,
            "durationTicks": 192,
            "midi": 56,
            "name": "G#3",
            "ticks": 186260,
            "time": 210.89191489583334,
            "velocity": 0.3937007874015748
          },
          {
            "duration": 0.21739099999999212,
            "durationTicks": 192,
            "midi": 61,
            "name": "C#4",
            "ticks": 186260,
            "time": 210.89191489583334,
            "velocity": 0.3937007874015748
          },
          {
            "duration": 0.21739099999999212,
            "durationTicks": 192,
            "midi": 80,
            "name": "G#5",
            "ticks": 186260,
            "time": 210.89191489583334,
            "velocity": 0.3937007874015748
          },
          {
            "duration": 0.10869549999998185,
            "durationTicks": 96,
            "midi": 25,
            "name": "C#1",
            "ticks": 186260,
            "time": 210.89191489583334,
            "velocity": 0.3937007874015748
          },
          {
            "duration": 0.10869549999998185,
            "durationTicks": 96,
            "midi": 37,
            "name": "C#2",
            "ticks": 186260,
            "time": 210.89191489583334,
            "velocity": 0.3937007874015748
          },
          {
            "duration": 0.21739099999999212,
            "durationTicks": 192,
            "midi": 85,
            "name": "C#6",
            "ticks": 186260,
            "time": 210.89191489583334,
            "velocity": 0.3937007874015748
          },
          {
            "duration": 0.21739099999999212,
            "durationTicks": 192,
            "midi": 53,
            "name": "F3",
            "ticks": 186260,
            "time": 210.89191489583334,
            "velocity": 0.3937007874015748
          },
          {
            "duration": 0.21739099999999212,
            "durationTicks": 192,
            "midi": 68,
            "name": "G#4",
            "ticks": 186260,
            "time": 210.89191489583334,
            "velocity": 0.3937007874015748
          },
          {
            "duration": 0.21739099999999212,
            "durationTicks": 192,
            "midi": 34,
            "name": "A#1",
            "ticks": 186260,
            "time": 210.89191489583334,
            "velocity": 0.3937007874015748
          },
          {
            "duration": 0.10869550000001027,
            "durationTicks": 96,
            "midi": 53,
            "name": "F3",
            "ticks": 186356,
            "time": 211.00061039583332,
            "velocity": 0.3937007874015748
          },
          {
            "duration": 0.21739099999999212,
            "durationTicks": 192,
            "midi": 75,
            "name": "D#5",
            "ticks": 186452,
            "time": 211.10930589583333,
            "velocity": 0.3937007874015748
          },
          {
            "duration": 0.21739099999999212,
            "durationTicks": 192,
            "midi": 87,
            "name": "D#6",
            "ticks": 186452,
            "time": 211.10930589583333,
            "velocity": 0.3937007874015748
          },
          {
            "duration": 0.21739099999999212,
            "durationTicks": 192,
            "midi": 70,
            "name": "A#4",
            "ticks": 186452,
            "time": 211.10930589583333,
            "velocity": 0.3937007874015748
          },
          {
            "duration": 0.10869549999998185,
            "durationTicks": 96,
            "midi": 56,
            "name": "G#3",
            "ticks": 186452,
            "time": 211.10930589583333,
            "velocity": 0.3937007874015748
          },
          {
            "duration": 0.10869549999998185,
            "durationTicks": 96,
            "midi": 37,
            "name": "C#2",
            "ticks": 186452,
            "time": 211.10930589583333,
            "velocity": 0.3937007874015748
          },
          {
            "duration": 0.21739099999999212,
            "durationTicks": 192,
            "midi": 56,
            "name": "G#3",
            "ticks": 186452,
            "time": 211.10930589583333,
            "velocity": 0.3937007874015748
          },
          {
            "duration": 0.21739099999999212,
            "durationTicks": 192,
            "midi": 61,
            "name": "C#4",
            "ticks": 186452,
            "time": 211.10930589583333,
            "velocity": 0.3937007874015748
          },
          {
            "duration": 0.21739099999999212,
            "durationTicks": 192,
            "midi": 82,
            "name": "A#5",
            "ticks": 186452,
            "time": 211.10930589583333,
            "velocity": 0.3937007874015748
          },
          {
            "duration": 0.10869549999998185,
            "durationTicks": 96,
            "midi": 49,
            "name": "C#3",
            "ticks": 186452,
            "time": 211.10930589583333,
            "velocity": 0.3937007874015748
          },
          {
            "duration": 0.21739099999999212,
            "durationTicks": 192,
            "midi": 53,
            "name": "F3",
            "ticks": 186452,
            "time": 211.10930589583333,
            "velocity": 0.3937007874015748
          },
          {
            "duration": 0.10869550000001027,
            "durationTicks": 96,
            "midi": 61,
            "name": "C#4",
            "ticks": 186548,
            "time": 211.2180013958333,
            "velocity": 0.3937007874015748
          },
          {
            "duration": 0.10869550000001027,
            "durationTicks": 96,
            "midi": 37,
            "name": "C#2",
            "ticks": 186548,
            "time": 211.2180013958333,
            "velocity": 0.3937007874015748
          },
          {
            "duration": 0.10869550000001027,
            "durationTicks": 96,
            "midi": 49,
            "name": "C#3",
            "ticks": 186548,
            "time": 211.2180013958333,
            "velocity": 0.3937007874015748
          },
          {
            "duration": 0.21739099999999212,
            "durationTicks": 192,
            "midi": 78,
            "name": "F#5",
            "ticks": 186644,
            "time": 211.32669689583332,
            "velocity": 0.3937007874015748
          },
          {
            "duration": 0.10869550000001027,
            "durationTicks": 96,
            "midi": 65,
            "name": "F4",
            "ticks": 186644,
            "time": 211.32669689583332,
            "velocity": 0.3937007874015748
          },
          {
            "duration": 0.10869550000001027,
            "durationTicks": 96,
            "midi": 25,
            "name": "C#1",
            "ticks": 186644,
            "time": 211.32669689583332,
            "velocity": 0.3937007874015748
          },
          {
            "duration": 0.21739099999999212,
            "durationTicks": 192,
            "midi": 34,
            "name": "A#1",
            "ticks": 186644,
            "time": 211.32669689583332,
            "velocity": 0.3937007874015748
          },
          {
            "duration": 0.10869550000001027,
            "durationTicks": 96,
            "midi": 37,
            "name": "C#2",
            "ticks": 186644,
            "time": 211.32669689583332,
            "velocity": 0.3937007874015748
          },
          {
            "duration": 0.21739099999999212,
            "durationTicks": 192,
            "midi": 82,
            "name": "A#5",
            "ticks": 186644,
            "time": 211.32669689583332,
            "velocity": 0.3937007874015748
          },
          {
            "duration": 0.21739099999999212,
            "durationTicks": 192,
            "midi": 61,
            "name": "C#4",
            "ticks": 186644,
            "time": 211.32669689583332,
            "velocity": 0.3937007874015748
          },
          {
            "duration": 0.21739099999999212,
            "durationTicks": 192,
            "midi": 66,
            "name": "F#4",
            "ticks": 186644,
            "time": 211.32669689583332,
            "velocity": 0.3937007874015748
          },
          {
            "duration": 0.21739099999999212,
            "durationTicks": 192,
            "midi": 70,
            "name": "A#4",
            "ticks": 186644,
            "time": 211.32669689583332,
            "velocity": 0.3937007874015748
          },
          {
            "duration": 0.21739099999999212,
            "durationTicks": 192,
            "midi": 56,
            "name": "G#3",
            "ticks": 186644,
            "time": 211.32669689583332,
            "velocity": 0.3937007874015748
          },
          {
            "duration": 0.21739099999999212,
            "durationTicks": 192,
            "midi": 53,
            "name": "F3",
            "ticks": 186644,
            "time": 211.32669689583332,
            "velocity": 0.3937007874015748
          },
          {
            "duration": 0.10869549999998185,
            "durationTicks": 96,
            "midi": 37,
            "name": "C#2",
            "ticks": 186740,
            "time": 211.43539239583333,
            "velocity": 0.3937007874015748
          },
          {
            "duration": 0.10869549999998185,
            "durationTicks": 96,
            "midi": 49,
            "name": "C#3",
            "ticks": 186740,
            "time": 211.43539239583333,
            "velocity": 0.3937007874015748
          },
          {
            "duration": 0.10869549999998185,
            "durationTicks": 96,
            "midi": 68,
            "name": "G#4",
            "ticks": 186740,
            "time": 211.43539239583333,
            "velocity": 0.3937007874015748
          },
          {
            "duration": 0.21739100000002054,
            "durationTicks": 192,
            "midi": 56,
            "name": "G#3",
            "ticks": 186836,
            "time": 211.54408789583331,
            "velocity": 0.3937007874015748
          },
          {
            "duration": 0.21739100000002054,
            "durationTicks": 192,
            "midi": 80,
            "name": "G#5",
            "ticks": 186836,
            "time": 211.54408789583331,
            "velocity": 0.3937007874015748
          },
          {
            "duration": 0.21739100000002054,
            "durationTicks": 192,
            "midi": 68,
            "name": "G#4",
            "ticks": 186836,
            "time": 211.54408789583331,
            "velocity": 0.3937007874015748
          },
          {
            "duration": 0.21739100000002054,
            "durationTicks": 192,
            "midi": 53,
            "name": "F3",
            "ticks": 186836,
            "time": 211.54408789583331,
            "velocity": 0.3937007874015748
          },
          {
            "duration": 0.21739100000002054,
            "durationTicks": 192,
            "midi": 77,
            "name": "F5",
            "ticks": 186836,
            "time": 211.54408789583331,
            "velocity": 0.3937007874015748
          },
          {
            "duration": 0.21739100000002054,
            "durationTicks": 192,
            "midi": 61,
            "name": "C#4",
            "ticks": 186836,
            "time": 211.54408789583331,
            "velocity": 0.3937007874015748
          },
          {
            "duration": 0.10869550000001027,
            "durationTicks": 96,
            "midi": 73,
            "name": "C#5",
            "ticks": 186836,
            "time": 211.54408789583331,
            "velocity": 0.3937007874015748
          },
          {
            "duration": 0.10869550000001027,
            "durationTicks": 96,
            "midi": 47,
            "name": "B2",
            "ticks": 186836,
            "time": 211.54408789583331,
            "velocity": 0.3937007874015748
          },
          {
            "duration": 0.10869550000001027,
            "durationTicks": 96,
            "midi": 35,
            "name": "B1",
            "ticks": 186836,
            "time": 211.54408789583331,
            "velocity": 0.3937007874015748
          },
          {
            "duration": 0.21739100000002054,
            "durationTicks": 192,
            "midi": 65,
            "name": "F4",
            "ticks": 186836,
            "time": 211.54408789583331,
            "velocity": 0.3937007874015748
          },
          {
            "duration": 0.10869550000001027,
            "durationTicks": 96,
            "midi": 77,
            "name": "F5",
            "ticks": 186932,
            "time": 211.65278339583332,
            "velocity": 0.3937007874015748
          },
          {
            "duration": 0.10869550000001027,
            "durationTicks": 96,
            "midi": 49,
            "name": "C#3",
            "ticks": 186932,
            "time": 211.65278339583332,
            "velocity": 0.3937007874015748
          },
          {
            "duration": 0.10869550000001027,
            "durationTicks": 96,
            "midi": 37,
            "name": "C#2",
            "ticks": 186932,
            "time": 211.65278339583332,
            "velocity": 0.3937007874015748
          },
          {
            "duration": 0.21739099999999212,
            "durationTicks": 192,
            "midi": 34,
            "name": "A#1",
            "ticks": 187028,
            "time": 211.76147889583333,
            "velocity": 0.3937007874015748
          },
          {
            "duration": 0.10869549999998185,
            "durationTicks": 96,
            "midi": 49,
            "name": "C#3",
            "ticks": 187028,
            "time": 211.76147889583333,
            "velocity": 0.3937007874015748
          },
          {
            "duration": 0.10869549999998185,
            "durationTicks": 96,
            "midi": 25,
            "name": "C#1",
            "ticks": 187028,
            "time": 211.76147889583333,
            "velocity": 0.3937007874015748
          },
          {
            "duration": 0.21739099999999212,
            "durationTicks": 192,
            "midi": 61,
            "name": "C#4",
            "ticks": 187028,
            "time": 211.76147889583333,
            "velocity": 0.3937007874015748
          },
          {
            "duration": 0.21739099999999212,
            "durationTicks": 192,
            "midi": 56,
            "name": "G#3",
            "ticks": 187028,
            "time": 211.76147889583333,
            "velocity": 0.3937007874015748
          },
          {
            "duration": 0.10869549999998185,
            "durationTicks": 96,
            "midi": 37,
            "name": "C#2",
            "ticks": 187028,
            "time": 211.76147889583333,
            "velocity": 0.3937007874015748
          },
          {
            "duration": 0.21739099999999212,
            "durationTicks": 192,
            "midi": 53,
            "name": "F3",
            "ticks": 187028,
            "time": 211.76147889583333,
            "velocity": 0.3937007874015748
          },
          {
            "duration": 0.21739099999999212,
            "durationTicks": 192,
            "midi": 82,
            "name": "A#5",
            "ticks": 187028,
            "time": 211.76147889583333,
            "velocity": 0.3937007874015748
          },
          {
            "duration": 0.21739099999999212,
            "durationTicks": 192,
            "midi": 66,
            "name": "F#4",
            "ticks": 187028,
            "time": 211.76147889583333,
            "velocity": 0.3937007874015748
          },
          {
            "duration": 0.21739099999999212,
            "durationTicks": 192,
            "midi": 70,
            "name": "A#4",
            "ticks": 187028,
            "time": 211.76147889583333,
            "velocity": 0.3937007874015748
          },
          {
            "duration": 0.21739099999999212,
            "durationTicks": 192,
            "midi": 78,
            "name": "F#5",
            "ticks": 187028,
            "time": 211.76147889583333,
            "velocity": 0.3937007874015748
          },
          {
            "duration": 0.10869550000001027,
            "durationTicks": 96,
            "midi": 53,
            "name": "F3",
            "ticks": 187124,
            "time": 211.87017439583332,
            "velocity": 0.3937007874015748
          },
          {
            "duration": 0.21739099999999212,
            "durationTicks": 192,
            "midi": 53,
            "name": "F3",
            "ticks": 187220,
            "time": 211.97886989583333,
            "velocity": 0.3937007874015748
          },
          {
            "duration": 0.10869550000001027,
            "durationTicks": 96,
            "midi": 37,
            "name": "C#2",
            "ticks": 187220,
            "time": 211.97886989583333,
            "velocity": 0.3937007874015748
          },
          {
            "duration": 0.10869550000001027,
            "durationTicks": 96,
            "midi": 56,
            "name": "G#3",
            "ticks": 187220,
            "time": 211.97886989583333,
            "velocity": 0.3937007874015748
          },
          {
            "duration": 0.21739099999999212,
            "durationTicks": 192,
            "midi": 61,
            "name": "C#4",
            "ticks": 187220,
            "time": 211.97886989583333,
            "velocity": 0.3937007874015748
          },
          {
            "duration": 0.21739099999999212,
            "durationTicks": 192,
            "midi": 56,
            "name": "G#3",
            "ticks": 187220,
            "time": 211.97886989583333,
            "velocity": 0.3937007874015748
          },
          {
            "duration": 0.10869550000001027,
            "durationTicks": 96,
            "midi": 49,
            "name": "C#3",
            "ticks": 187220,
            "time": 211.97886989583333,
            "velocity": 0.3937007874015748
          },
          {
            "duration": 0.10869549999998185,
            "durationTicks": 96,
            "midi": 61,
            "name": "C#4",
            "ticks": 187316,
            "time": 212.08756539583334,
            "velocity": 0.3937007874015748
          },
          {
            "duration": 0.10869549999998185,
            "durationTicks": 96,
            "midi": 37,
            "name": "C#2",
            "ticks": 187316,
            "time": 212.08756539583334,
            "velocity": 0.3937007874015748
          },
          {
            "duration": 0.10869549999998185,
            "durationTicks": 96,
            "midi": 49,
            "name": "C#3",
            "ticks": 187316,
            "time": 212.08756539583334,
            "velocity": 0.3937007874015748
          },
          {
            "duration": 0.21739100000002054,
            "durationTicks": 192,
            "midi": 53,
            "name": "F3",
            "ticks": 187412,
            "time": 212.19626089583332,
            "velocity": 0.3937007874015748
          },
          {
            "duration": 0.21739100000002054,
            "durationTicks": 192,
            "midi": 77,
            "name": "F5",
            "ticks": 187412,
            "time": 212.19626089583332,
            "velocity": 0.3937007874015748
          },
          {
            "duration": 0.21739100000002054,
            "durationTicks": 192,
            "midi": 34,
            "name": "A#1",
            "ticks": 187412,
            "time": 212.19626089583332,
            "velocity": 0.3937007874015748
          },
          {
            "duration": 0.21739100000002054,
            "durationTicks": 192,
            "midi": 68,
            "name": "G#4",
            "ticks": 187412,
            "time": 212.19626089583332,
            "velocity": 0.3937007874015748
          },
          {
            "duration": 0.21739100000002054,
            "durationTicks": 192,
            "midi": 61,
            "name": "C#4",
            "ticks": 187412,
            "time": 212.19626089583332,
            "velocity": 0.3937007874015748
          },
          {
            "duration": 0.21739100000002054,
            "durationTicks": 192,
            "midi": 56,
            "name": "G#3",
            "ticks": 187412,
            "time": 212.19626089583332,
            "velocity": 0.3937007874015748
          },
          {
            "duration": 0.21739100000002054,
            "durationTicks": 192,
            "midi": 80,
            "name": "G#5",
            "ticks": 187412,
            "time": 212.19626089583332,
            "velocity": 0.3937007874015748
          },
          {
            "duration": 0.10869550000001027,
            "durationTicks": 96,
            "midi": 65,
            "name": "F4",
            "ticks": 187412,
            "time": 212.19626089583332,
            "velocity": 0.3937007874015748
          },
          {
            "duration": 0.21739100000002054,
            "durationTicks": 192,
            "midi": 65,
            "name": "F4",
            "ticks": 187412,
            "time": 212.19626089583332,
            "velocity": 0.3937007874015748
          },
          {
            "duration": 0.10869550000001027,
            "durationTicks": 96,
            "midi": 25,
            "name": "C#1",
            "ticks": 187412,
            "time": 212.19626089583332,
            "velocity": 0.3937007874015748
          },
          {
            "duration": 0.10869550000001027,
            "durationTicks": 96,
            "midi": 37,
            "name": "C#2",
            "ticks": 187412,
            "time": 212.19626089583332,
            "velocity": 0.3937007874015748
          },
          {
            "duration": 0.10869550000001027,
            "durationTicks": 96,
            "midi": 49,
            "name": "C#3",
            "ticks": 187508,
            "time": 212.30495639583333,
            "velocity": 0.3937007874015748
          },
          {
            "duration": 0.10869550000001027,
            "durationTicks": 96,
            "midi": 68,
            "name": "G#4",
            "ticks": 187508,
            "time": 212.30495639583333,
            "velocity": 0.3937007874015748
          },
          {
            "duration": 0.10869550000001027,
            "durationTicks": 96,
            "midi": 37,
            "name": "C#2",
            "ticks": 187508,
            "time": 212.30495639583333,
            "velocity": 0.3937007874015748
          },
          {
            "duration": 0.21739099999999212,
            "durationTicks": 192,
            "midi": 61,
            "name": "C#4",
            "ticks": 187604,
            "time": 212.41365189583334,
            "velocity": 0.3937007874015748
          },
          {
            "duration": 0.21739099999999212,
            "durationTicks": 192,
            "midi": 70,
            "name": "A#4",
            "ticks": 187604,
            "time": 212.41365189583334,
            "velocity": 0.3937007874015748
          },
          {
            "duration": 0.21739099999999212,
            "durationTicks": 192,
            "midi": 56,
            "name": "G#3",
            "ticks": 187604,
            "time": 212.41365189583334,
            "velocity": 0.3937007874015748
          },
          {
            "duration": 0.21739099999999212,
            "durationTicks": 192,
            "midi": 82,
            "name": "A#5",
            "ticks": 187604,
            "time": 212.41365189583334,
            "velocity": 0.3937007874015748
          },
          {
            "duration": 0.21739099999999212,
            "durationTicks": 192,
            "midi": 53,
            "name": "F3",
            "ticks": 187604,
            "time": 212.41365189583334,
            "velocity": 0.3937007874015748
          },
          {
            "duration": 0.10869549999998185,
            "durationTicks": 96,
            "midi": 47,
            "name": "B2",
            "ticks": 187604,
            "time": 212.41365189583334,
            "velocity": 0.3937007874015748
          },
          {
            "duration": 0.21739099999999212,
            "durationTicks": 192,
            "midi": 34,
            "name": "A#1",
            "ticks": 187604,
            "time": 212.41365189583334,
            "velocity": 0.3937007874015748
          },
          {
            "duration": 0.21739099999999212,
            "durationTicks": 192,
            "midi": 66,
            "name": "F#4",
            "ticks": 187604,
            "time": 212.41365189583334,
            "velocity": 0.3937007874015748
          },
          {
            "duration": 0.21739099999999212,
            "durationTicks": 192,
            "midi": 78,
            "name": "F#5",
            "ticks": 187604,
            "time": 212.41365189583334,
            "velocity": 0.3937007874015748
          },
          {
            "duration": 0.10869549999998185,
            "durationTicks": 96,
            "midi": 35,
            "name": "B1",
            "ticks": 187604,
            "time": 212.41365189583334,
            "velocity": 0.3937007874015748
          },
          {
            "duration": 0.10869549999998185,
            "durationTicks": 96,
            "midi": 73,
            "name": "C#5",
            "ticks": 187604,
            "time": 212.41365189583334,
            "velocity": 0.3937007874015748
          },
          {
            "duration": 0.10869550000001027,
            "durationTicks": 96,
            "midi": 77,
            "name": "F5",
            "ticks": 187700,
            "time": 212.52234739583332,
            "velocity": 0.3937007874015748
          },
          {
            "duration": 0.10869550000001027,
            "durationTicks": 96,
            "midi": 37,
            "name": "C#2",
            "ticks": 187700,
            "time": 212.52234739583332,
            "velocity": 0.3937007874015748
          },
          {
            "duration": 0.10869550000001027,
            "durationTicks": 96,
            "midi": 49,
            "name": "C#3",
            "ticks": 187700,
            "time": 212.52234739583332,
            "velocity": 0.3937007874015748
          },
          {
            "duration": 0.10869549999998185,
            "durationTicks": 96,
            "midi": 27,
            "name": "D#1",
            "ticks": 187796,
            "time": 212.63104289583333,
            "velocity": 0.3937007874015748
          },
          {
            "duration": 0.21739099999999212,
            "durationTicks": 192,
            "midi": 65,
            "name": "F4",
            "ticks": 187796,
            "time": 212.63104289583333,
            "velocity": 0.3937007874015748
          },
          {
            "duration": 0.21739099999999212,
            "durationTicks": 192,
            "midi": 63,
            "name": "D#4",
            "ticks": 187796,
            "time": 212.63104289583333,
            "velocity": 0.3937007874015748
          },
          {
            "duration": 0.10869549999998185,
            "durationTicks": 96,
            "midi": 39,
            "name": "D#2",
            "ticks": 187796,
            "time": 212.63104289583333,
            "velocity": 0.3937007874015748
          },
          {
            "duration": 0.10869549999998185,
            "durationTicks": 96,
            "midi": 51,
            "name": "D#3",
            "ticks": 187796,
            "time": 212.63104289583333,
            "velocity": 0.3937007874015748
          },
          {
            "duration": 0.21739099999999212,
            "durationTicks": 192,
            "midi": 80,
            "name": "G#5",
            "ticks": 187796,
            "time": 212.63104289583333,
            "velocity": 0.3937007874015748
          },
          {
            "duration": 0.21739099999999212,
            "durationTicks": 192,
            "midi": 54,
            "name": "F#3",
            "ticks": 187796,
            "time": 212.63104289583333,
            "velocity": 0.3937007874015748
          },
          {
            "duration": 0.21739099999999212,
            "durationTicks": 192,
            "midi": 77,
            "name": "F5",
            "ticks": 187796,
            "time": 212.63104289583333,
            "velocity": 0.3937007874015748
          },
          {
            "duration": 0.21739099999999212,
            "durationTicks": 192,
            "midi": 68,
            "name": "G#4",
            "ticks": 187796,
            "time": 212.63104289583333,
            "velocity": 0.3937007874015748
          },
          {
            "duration": 0.21739099999999212,
            "durationTicks": 192,
            "midi": 58,
            "name": "A#3",
            "ticks": 187796,
            "time": 212.63104289583333,
            "velocity": 0.3937007874015748
          },
          {
            "duration": 0.21739099999999212,
            "durationTicks": 192,
            "midi": 34,
            "name": "A#1",
            "ticks": 187796,
            "time": 212.63104289583333,
            "velocity": 0.3937007874015748
          },
          {
            "duration": 0.10869550000001027,
            "durationTicks": 96,
            "midi": 54,
            "name": "F#3",
            "ticks": 187892,
            "time": 212.7397383958333,
            "velocity": 0.3937007874015748
          },
          {
            "duration": 0.10869550000001027,
            "durationTicks": 96,
            "midi": 39,
            "name": "D#2",
            "ticks": 187988,
            "time": 212.84843389583332,
            "velocity": 0.3937007874015748
          },
          {
            "duration": 0.10869550000001027,
            "durationTicks": 96,
            "midi": 51,
            "name": "D#3",
            "ticks": 187988,
            "time": 212.84843389583332,
            "velocity": 0.3937007874015748
          },
          {
            "duration": 0.21739099999999212,
            "durationTicks": 192,
            "midi": 75,
            "name": "D#5",
            "ticks": 187988,
            "time": 212.84843389583332,
            "velocity": 0.3937007874015748
          },
          {
            "duration": 0.10869550000001027,
            "durationTicks": 96,
            "midi": 58,
            "name": "A#3",
            "ticks": 187988,
            "time": 212.84843389583332,
            "velocity": 0.3937007874015748
          },
          {
            "duration": 0.21739099999999212,
            "durationTicks": 192,
            "midi": 78,
            "name": "F#5",
            "ticks": 187988,
            "time": 212.84843389583332,
            "velocity": 0.3937007874015748
          },
          {
            "duration": 0.21739099999999212,
            "durationTicks": 192,
            "midi": 63,
            "name": "D#4",
            "ticks": 187988,
            "time": 212.84843389583332,
            "velocity": 0.3937007874015748
          },
          {
            "duration": 0.21739099999999212,
            "durationTicks": 192,
            "midi": 66,
            "name": "F#4",
            "ticks": 187988,
            "time": 212.84843389583332,
            "velocity": 0.3937007874015748
          },
          {
            "duration": 0.21739099999999212,
            "durationTicks": 192,
            "midi": 58,
            "name": "A#3",
            "ticks": 187988,
            "time": 212.84843389583332,
            "velocity": 0.3937007874015748
          },
          {
            "duration": 0.21739099999999212,
            "durationTicks": 192,
            "midi": 63,
            "name": "D#4",
            "ticks": 187988,
            "time": 212.84843389583332,
            "velocity": 0.3937007874015748
          },
          {
            "duration": 0.21739099999999212,
            "durationTicks": 192,
            "midi": 54,
            "name": "F#3",
            "ticks": 187988,
            "time": 212.84843389583332,
            "velocity": 0.3937007874015748
          },
          {
            "duration": 0.10869549999998185,
            "durationTicks": 96,
            "midi": 63,
            "name": "D#4",
            "ticks": 188084,
            "time": 212.95712939583333,
            "velocity": 0.3937007874015748
          },
          {
            "duration": 0.10869549999998185,
            "durationTicks": 96,
            "midi": 39,
            "name": "D#2",
            "ticks": 188084,
            "time": 212.95712939583333,
            "velocity": 0.3937007874015748
          },
          {
            "duration": 0.10869549999998185,
            "durationTicks": 96,
            "midi": 51,
            "name": "D#3",
            "ticks": 188084,
            "time": 212.95712939583333,
            "velocity": 0.3937007874015748
          },
          {
            "duration": 0.21739100000002054,
            "durationTicks": 192,
            "midi": 73,
            "name": "C#5",
            "ticks": 188180,
            "time": 213.06582489583332,
            "velocity": 0.3937007874015748
          },
          {
            "duration": 0.21739100000002054,
            "durationTicks": 192,
            "midi": 77,
            "name": "F5",
            "ticks": 188180,
            "time": 213.06582489583332,
            "velocity": 0.3937007874015748
          },
          {
            "duration": 0.21739100000002054,
            "durationTicks": 192,
            "midi": 63,
            "name": "D#4",
            "ticks": 188180,
            "time": 213.06582489583332,
            "velocity": 0.3937007874015748
          },
          {
            "duration": 0.10869550000001027,
            "durationTicks": 96,
            "midi": 27,
            "name": "D#1",
            "ticks": 188180,
            "time": 213.06582489583332,
            "velocity": 0.3937007874015748
          },
          {
            "duration": 0.21739100000002054,
            "durationTicks": 192,
            "midi": 61,
            "name": "C#4",
            "ticks": 188180,
            "time": 213.06582489583332,
            "velocity": 0.3937007874015748
          },
          {
            "duration": 0.10869550000001027,
            "durationTicks": 96,
            "midi": 39,
            "name": "D#2",
            "ticks": 188180,
            "time": 213.06582489583332,
            "velocity": 0.3937007874015748
          },
          {
            "duration": 0.10869550000001027,
            "durationTicks": 96,
            "midi": 66,
            "name": "F#4",
            "ticks": 188180,
            "time": 213.06582489583332,
            "velocity": 0.3937007874015748
          },
          {
            "duration": 0.21739100000002054,
            "durationTicks": 192,
            "midi": 58,
            "name": "A#3",
            "ticks": 188180,
            "time": 213.06582489583332,
            "velocity": 0.3937007874015748
          },
          {
            "duration": 0.21739100000002054,
            "durationTicks": 192,
            "midi": 54,
            "name": "F#3",
            "ticks": 188180,
            "time": 213.06582489583332,
            "velocity": 0.3937007874015748
          },
          {
            "duration": 0.21739100000002054,
            "durationTicks": 192,
            "midi": 34,
            "name": "A#1",
            "ticks": 188180,
            "time": 213.06582489583332,
            "velocity": 0.3937007874015748
          },
          {
            "duration": 0.21739100000002054,
            "durationTicks": 192,
            "midi": 65,
            "name": "F4",
            "ticks": 188180,
            "time": 213.06582489583332,
            "velocity": 0.3937007874015748
          },
          {
            "duration": 0.10869550000001027,
            "durationTicks": 96,
            "midi": 51,
            "name": "D#3",
            "ticks": 188276,
            "time": 213.17452039583333,
            "velocity": 0.3937007874015748
          },
          {
            "duration": 0.10869550000001027,
            "durationTicks": 96,
            "midi": 70,
            "name": "A#4",
            "ticks": 188276,
            "time": 213.17452039583333,
            "velocity": 0.3937007874015748
          },
          {
            "duration": 0.10869550000001027,
            "durationTicks": 96,
            "midi": 39,
            "name": "D#2",
            "ticks": 188276,
            "time": 213.17452039583333,
            "velocity": 0.3937007874015748
          },
          {
            "duration": 0.21739099999999212,
            "durationTicks": 192,
            "midi": 54,
            "name": "F#3",
            "ticks": 188372,
            "time": 213.28321589583334,
            "velocity": 0.3937007874015748
          },
          {
            "duration": 0.21739099999999212,
            "durationTicks": 192,
            "midi": 63,
            "name": "D#4",
            "ticks": 188372,
            "time": 213.28321589583334,
            "velocity": 0.3937007874015748
          },
          {
            "duration": 0.21739099999999212,
            "durationTicks": 192,
            "midi": 68,
            "name": "G#4",
            "ticks": 188372,
            "time": 213.28321589583334,
            "velocity": 0.3937007874015748
          },
          {
            "duration": 0.21739099999999212,
            "durationTicks": 192,
            "midi": 58,
            "name": "A#3",
            "ticks": 188372,
            "time": 213.28321589583334,
            "velocity": 0.3937007874015748
          },
          {
            "duration": 0.10869549999998185,
            "durationTicks": 96,
            "midi": 75,
            "name": "D#5",
            "ticks": 188372,
            "time": 213.28321589583334,
            "velocity": 0.3937007874015748
          },
          {
            "duration": 0.21739099999999212,
            "durationTicks": 192,
            "midi": 73,
            "name": "C#5",
            "ticks": 188372,
            "time": 213.28321589583334,
            "velocity": 0.3937007874015748
          },
          {
            "duration": 0.21739099999999212,
            "durationTicks": 192,
            "midi": 56,
            "name": "G#3",
            "ticks": 188372,
            "time": 213.28321589583334,
            "velocity": 0.3937007874015748
          },
          {
            "duration": 0.21739099999999212,
            "durationTicks": 192,
            "midi": 61,
            "name": "C#4",
            "ticks": 188372,
            "time": 213.28321589583334,
            "velocity": 0.3937007874015748
          },
          {
            "duration": 0.10869549999998185,
            "durationTicks": 96,
            "midi": 37,
            "name": "C#2",
            "ticks": 188372,
            "time": 213.28321589583334,
            "velocity": 0.3937007874015748
          },
          {
            "duration": 0.10869549999998185,
            "durationTicks": 96,
            "midi": 49,
            "name": "C#3",
            "ticks": 188372,
            "time": 213.28321589583334,
            "velocity": 0.3937007874015748
          },
          {
            "duration": 0.10869550000001027,
            "durationTicks": 96,
            "midi": 39,
            "name": "D#2",
            "ticks": 188468,
            "time": 213.39191139583332,
            "velocity": 0.3937007874015748
          },
          {
            "duration": 0.10869550000001027,
            "durationTicks": 96,
            "midi": 51,
            "name": "D#3",
            "ticks": 188468,
            "time": 213.39191139583332,
            "velocity": 0.3937007874015748
          },
          {
            "duration": 0.10869550000001027,
            "durationTicks": 96,
            "midi": 78,
            "name": "F#5",
            "ticks": 188468,
            "time": 213.39191139583332,
            "velocity": 0.3937007874015748
          },
          {
            "duration": 0.21739099999999212,
            "durationTicks": 192,
            "midi": 54,
            "name": "F#3",
            "ticks": 188564,
            "time": 213.50060689583333,
            "velocity": 0.3937007874015748
          },
          {
            "duration": 0.21739099999999212,
            "durationTicks": 192,
            "midi": 58,
            "name": "A#3",
            "ticks": 188564,
            "time": 213.50060689583333,
            "velocity": 0.3937007874015748
          },
          {
            "duration": 0.21739099999999212,
            "durationTicks": 192,
            "midi": 34,
            "name": "A#1",
            "ticks": 188564,
            "time": 213.50060689583333,
            "velocity": 0.3937007874015748
          },
          {
            "duration": 0.21739099999999212,
            "durationTicks": 192,
            "midi": 58,
            "name": "A#3",
            "ticks": 188564,
            "time": 213.50060689583333,
            "velocity": 0.3937007874015748
          },
          {
            "duration": 0.21739099999999212,
            "durationTicks": 192,
            "midi": 63,
            "name": "D#4",
            "ticks": 188564,
            "time": 213.50060689583333,
            "velocity": 0.3937007874015748
          },
          {
            "duration": 0.21739099999999212,
            "durationTicks": 192,
            "midi": 63,
            "name": "D#4",
            "ticks": 188564,
            "time": 213.50060689583333,
            "velocity": 0.3937007874015748
          },
          {
            "duration": 0.10869550000001027,
            "durationTicks": 96,
            "midi": 51,
            "name": "D#3",
            "ticks": 188564,
            "time": 213.50060689583333,
            "velocity": 0.3937007874015748
          },
          {
            "duration": 0.10869550000001027,
            "durationTicks": 96,
            "midi": 39,
            "name": "D#2",
            "ticks": 188564,
            "time": 213.50060689583333,
            "velocity": 0.3937007874015748
          },
          {
            "duration": 0.21739099999999212,
            "durationTicks": 192,
            "midi": 75,
            "name": "D#5",
            "ticks": 188564,
            "time": 213.50060689583333,
            "velocity": 0.3937007874015748
          },
          {
            "duration": 0.21739099999999212,
            "durationTicks": 192,
            "midi": 70,
            "name": "A#4",
            "ticks": 188564,
            "time": 213.50060689583333,
            "velocity": 0.3937007874015748
          },
          {
            "duration": 0.10869550000001027,
            "durationTicks": 96,
            "midi": 27,
            "name": "D#1",
            "ticks": 188564,
            "time": 213.50060689583333,
            "velocity": 0.3937007874015748
          },
          {
            "duration": 0.10869549999998185,
            "durationTicks": 96,
            "midi": 54,
            "name": "F#3",
            "ticks": 188660,
            "time": 213.60930239583334,
            "velocity": 0.3937007874015748
          },
          {
            "duration": 0.21739099999999212,
            "durationTicks": 192,
            "midi": 54,
            "name": "F#3",
            "ticks": 188756,
            "time": 213.71799789583332,
            "velocity": 0.3937007874015748
          },
          {
            "duration": 0.10869550000001027,
            "durationTicks": 96,
            "midi": 58,
            "name": "A#3",
            "ticks": 188756,
            "time": 213.71799789583332,
            "velocity": 0.3937007874015748
          },
          {
            "duration": 0.21739099999999212,
            "durationTicks": 192,
            "midi": 58,
            "name": "A#3",
            "ticks": 188756,
            "time": 213.71799789583332,
            "velocity": 0.3937007874015748
          },
          {
            "duration": 0.10869550000001027,
            "durationTicks": 96,
            "midi": 51,
            "name": "D#3",
            "ticks": 188756,
            "time": 213.71799789583332,
            "velocity": 0.3937007874015748
          },
          {
            "duration": 0.10869550000001027,
            "durationTicks": 96,
            "midi": 39,
            "name": "D#2",
            "ticks": 188756,
            "time": 213.71799789583332,
            "velocity": 0.3937007874015748
          },
          {
            "duration": 0.21739099999999212,
            "durationTicks": 192,
            "midi": 63,
            "name": "D#4",
            "ticks": 188756,
            "time": 213.71799789583332,
            "velocity": 0.3937007874015748
          },
          {
            "duration": 0.10869549999998185,
            "durationTicks": 96,
            "midi": 39,
            "name": "D#2",
            "ticks": 188852,
            "time": 213.82669339583333,
            "velocity": 0.3937007874015748
          },
          {
            "duration": 0.10869549999998185,
            "durationTicks": 96,
            "midi": 63,
            "name": "D#4",
            "ticks": 188852,
            "time": 213.82669339583333,
            "velocity": 0.3937007874015748
          },
          {
            "duration": 0.10869549999998185,
            "durationTicks": 96,
            "midi": 51,
            "name": "D#3",
            "ticks": 188852,
            "time": 213.82669339583333,
            "velocity": 0.3937007874015748
          },
          {
            "duration": 0.21739100000002054,
            "durationTicks": 192,
            "midi": 54,
            "name": "F#3",
            "ticks": 188948,
            "time": 213.9353888958333,
            "velocity": 0.3937007874015748
          },
          {
            "duration": 0.21739100000002054,
            "durationTicks": 192,
            "midi": 73,
            "name": "C#5",
            "ticks": 188948,
            "time": 213.9353888958333,
            "velocity": 0.3937007874015748
          },
          {
            "duration": 0.21739100000002054,
            "durationTicks": 192,
            "midi": 68,
            "name": "G#4",
            "ticks": 188948,
            "time": 213.9353888958333,
            "velocity": 0.3937007874015748
          },
          {
            "duration": 0.21739100000002054,
            "durationTicks": 192,
            "midi": 61,
            "name": "C#4",
            "ticks": 188948,
            "time": 213.9353888958333,
            "velocity": 0.3937007874015748
          },
          {
            "duration": 0.21739100000002054,
            "durationTicks": 192,
            "midi": 56,
            "name": "G#3",
            "ticks": 188948,
            "time": 213.9353888958333,
            "velocity": 0.3937007874015748
          },
          {
            "duration": 0.21739100000002054,
            "durationTicks": 192,
            "midi": 34,
            "name": "A#1",
            "ticks": 188948,
            "time": 213.9353888958333,
            "velocity": 0.3937007874015748
          },
          {
            "duration": 0.21739100000002054,
            "durationTicks": 192,
            "midi": 63,
            "name": "D#4",
            "ticks": 188948,
            "time": 213.9353888958333,
            "velocity": 0.3937007874015748
          },
          {
            "duration": 0.10869550000001027,
            "durationTicks": 96,
            "midi": 39,
            "name": "D#2",
            "ticks": 188948,
            "time": 213.9353888958333,
            "velocity": 0.3937007874015748
          },
          {
            "duration": 0.10869550000001027,
            "durationTicks": 96,
            "midi": 66,
            "name": "F#4",
            "ticks": 188948,
            "time": 213.9353888958333,
            "velocity": 0.3937007874015748
          },
          {
            "duration": 0.21739100000002054,
            "durationTicks": 192,
            "midi": 58,
            "name": "A#3",
            "ticks": 188948,
            "time": 213.9353888958333,
            "velocity": 0.3937007874015748
          },
          {
            "duration": 0.10869550000001027,
            "durationTicks": 96,
            "midi": 27,
            "name": "D#1",
            "ticks": 188948,
            "time": 213.9353888958333,
            "velocity": 0.3937007874015748
          },
          {
            "duration": 0.10869550000001027,
            "durationTicks": 96,
            "midi": 70,
            "name": "A#4",
            "ticks": 189044,
            "time": 214.04408439583332,
            "velocity": 0.3937007874015748
          },
          {
            "duration": 0.10869550000001027,
            "durationTicks": 96,
            "midi": 51,
            "name": "D#3",
            "ticks": 189044,
            "time": 214.04408439583332,
            "velocity": 0.3937007874015748
          },
          {
            "duration": 0.10869550000001027,
            "durationTicks": 96,
            "midi": 39,
            "name": "D#2",
            "ticks": 189044,
            "time": 214.04408439583332,
            "velocity": 0.3937007874015748
          },
          {
            "duration": 0.10869549999998185,
            "durationTicks": 96,
            "midi": 37,
            "name": "C#2",
            "ticks": 189140,
            "time": 214.15277989583333,
            "velocity": 0.3937007874015748
          },
          {
            "duration": 0.10869549999998185,
            "durationTicks": 96,
            "midi": 49,
            "name": "C#3",
            "ticks": 189140,
            "time": 214.15277989583333,
            "velocity": 0.3937007874015748
          },
          {
            "duration": 0.21739099999999212,
            "durationTicks": 192,
            "midi": 63,
            "name": "D#4",
            "ticks": 189140,
            "time": 214.15277989583333,
            "velocity": 0.3937007874015748
          },
          {
            "duration": 0.10869549999998185,
            "durationTicks": 96,
            "midi": 75,
            "name": "D#5",
            "ticks": 189140,
            "time": 214.15277989583333,
            "velocity": 0.3937007874015748
          },
          {
            "duration": 0.21739099999999212,
            "durationTicks": 192,
            "midi": 70,
            "name": "A#4",
            "ticks": 189140,
            "time": 214.15277989583333,
            "velocity": 0.3937007874015748
          },
          {
            "duration": 0.21739099999999212,
            "durationTicks": 192,
            "midi": 75,
            "name": "D#5",
            "ticks": 189140,
            "time": 214.15277989583333,
            "velocity": 0.3937007874015748
          },
          {
            "duration": 0.21739099999999212,
            "durationTicks": 192,
            "midi": 63,
            "name": "D#4",
            "ticks": 189140,
            "time": 214.15277989583333,
            "velocity": 0.3937007874015748
          },
          {
            "duration": 0.21739099999999212,
            "durationTicks": 192,
            "midi": 58,
            "name": "A#3",
            "ticks": 189140,
            "time": 214.15277989583333,
            "velocity": 0.3937007874015748
          },
          {
            "duration": 0.21739099999999212,
            "durationTicks": 192,
            "midi": 58,
            "name": "A#3",
            "ticks": 189140,
            "time": 214.15277989583333,
            "velocity": 0.3937007874015748
          },
          {
            "duration": 0.21739099999999212,
            "durationTicks": 192,
            "midi": 54,
            "name": "F#3",
            "ticks": 189140,
            "time": 214.15277989583333,
            "velocity": 0.3937007874015748
          },
          {
            "duration": 0.10869550000001027,
            "durationTicks": 96,
            "midi": 39,
            "name": "D#2",
            "ticks": 189236,
            "time": 214.26147539583332,
            "velocity": 0.3937007874015748
          },
          {
            "duration": 0.10869550000001027,
            "durationTicks": 96,
            "midi": 78,
            "name": "F#5",
            "ticks": 189236,
            "time": 214.26147539583332,
            "velocity": 0.3937007874015748
          },
          {
            "duration": 0.10869550000001027,
            "durationTicks": 96,
            "midi": 51,
            "name": "D#3",
            "ticks": 189236,
            "time": 214.26147539583332,
            "velocity": 0.3937007874015748
          },
          {
            "duration": 0.21739099999999212,
            "durationTicks": 192,
            "midi": 63,
            "name": "D#4",
            "ticks": 189332,
            "time": 214.37017089583333,
            "velocity": 0.3937007874015748
          },
          {
            "duration": 0.21739099999999212,
            "durationTicks": 192,
            "midi": 61,
            "name": "C#4",
            "ticks": 189332,
            "time": 214.37017089583333,
            "velocity": 0.3937007874015748
          },
          {
            "duration": 0.21739099999999212,
            "durationTicks": 192,
            "midi": 34,
            "name": "A#1",
            "ticks": 189332,
            "time": 214.37017089583333,
            "velocity": 0.3937007874015748
          },
          {
            "duration": 0.10869550000001027,
            "durationTicks": 96,
            "midi": 51,
            "name": "D#3",
            "ticks": 189332,
            "time": 214.37017089583333,
            "velocity": 0.3937007874015748
          },
          {
            "duration": 0.10869550000001027,
            "durationTicks": 96,
            "midi": 27,
            "name": "D#1",
            "ticks": 189332,
            "time": 214.37017089583333,
            "velocity": 0.3937007874015748
          },
          {
            "duration": 0.21739099999999212,
            "durationTicks": 192,
            "midi": 65,
            "name": "F4",
            "ticks": 189332,
            "time": 214.37017089583333,
            "velocity": 0.3937007874015748
          },
          {
            "duration": 0.21739099999999212,
            "durationTicks": 192,
            "midi": 77,
            "name": "F5",
            "ticks": 189332,
            "time": 214.37017089583333,
            "velocity": 0.3937007874015748
          },
          {
            "duration": 0.10869550000001027,
            "durationTicks": 96,
            "midi": 39,
            "name": "D#2",
            "ticks": 189332,
            "time": 214.37017089583333,
            "velocity": 0.3937007874015748
          },
          {
            "duration": 0.21739099999999212,
            "durationTicks": 192,
            "midi": 54,
            "name": "F#3",
            "ticks": 189332,
            "time": 214.37017089583333,
            "velocity": 0.3937007874015748
          },
          {
            "duration": 0.21739099999999212,
            "durationTicks": 192,
            "midi": 73,
            "name": "C#5",
            "ticks": 189332,
            "time": 214.37017089583333,
            "velocity": 0.3937007874015748
          },
          {
            "duration": 0.21739099999999212,
            "durationTicks": 192,
            "midi": 58,
            "name": "A#3",
            "ticks": 189332,
            "time": 214.37017089583333,
            "velocity": 0.3937007874015748
          },
          {
            "duration": 0.10869549999998185,
            "durationTicks": 96,
            "midi": 54,
            "name": "F#3",
            "ticks": 189428,
            "time": 214.47886639583334,
            "velocity": 0.3937007874015748
          },
          {
            "duration": 0.21739100000002054,
            "durationTicks": 192,
            "midi": 75,
            "name": "D#5",
            "ticks": 189524,
            "time": 214.58756189583332,
            "velocity": 0.3937007874015748
          },
          {
            "duration": 0.21739100000002054,
            "durationTicks": 192,
            "midi": 63,
            "name": "D#4",
            "ticks": 189524,
            "time": 214.58756189583332,
            "velocity": 0.3937007874015748
          },
          {
            "duration": 0.21739100000002054,
            "durationTicks": 192,
            "midi": 78,
            "name": "F#5",
            "ticks": 189524,
            "time": 214.58756189583332,
            "velocity": 0.3937007874015748
          },
          {
            "duration": 0.21739100000002054,
            "durationTicks": 192,
            "midi": 54,
            "name": "F#3",
            "ticks": 189524,
            "time": 214.58756189583332,
            "velocity": 0.3937007874015748
          },
          {
            "duration": 0.10869550000001027,
            "durationTicks": 96,
            "midi": 58,
            "name": "A#3",
            "ticks": 189524,
            "time": 214.58756189583332,
            "velocity": 0.3937007874015748
          },
          {
            "duration": 0.21739100000002054,
            "durationTicks": 192,
            "midi": 63,
            "name": "D#4",
            "ticks": 189524,
            "time": 214.58756189583332,
            "velocity": 0.3937007874015748
          },
          {
            "duration": 0.21739100000002054,
            "durationTicks": 192,
            "midi": 58,
            "name": "A#3",
            "ticks": 189524,
            "time": 214.58756189583332,
            "velocity": 0.3937007874015748
          },
          {
            "duration": 0.10869550000001027,
            "durationTicks": 96,
            "midi": 39,
            "name": "D#2",
            "ticks": 189524,
            "time": 214.58756189583332,
            "velocity": 0.3937007874015748
          },
          {
            "duration": 0.10869550000001027,
            "durationTicks": 96,
            "midi": 51,
            "name": "D#3",
            "ticks": 189524,
            "time": 214.58756189583332,
            "velocity": 0.3937007874015748
          },
          {
            "duration": 0.21739100000002054,
            "durationTicks": 192,
            "midi": 66,
            "name": "F#4",
            "ticks": 189524,
            "time": 214.58756189583332,
            "velocity": 0.3937007874015748
          },
          {
            "duration": 0.10869550000001027,
            "durationTicks": 96,
            "midi": 51,
            "name": "D#3",
            "ticks": 189620,
            "time": 214.69625739583333,
            "velocity": 0.3937007874015748
          },
          {
            "duration": 0.10869550000001027,
            "durationTicks": 96,
            "midi": 63,
            "name": "D#4",
            "ticks": 189620,
            "time": 214.69625739583333,
            "velocity": 0.3937007874015748
          },
          {
            "duration": 0.10869550000001027,
            "durationTicks": 96,
            "midi": 39,
            "name": "D#2",
            "ticks": 189620,
            "time": 214.69625739583333,
            "velocity": 0.3937007874015748
          },
          {
            "duration": 0.21739099999999212,
            "durationTicks": 192,
            "midi": 34,
            "name": "A#1",
            "ticks": 189716,
            "time": 214.80495289583334,
            "velocity": 0.3937007874015748
          },
          {
            "duration": 0.21739099999999212,
            "durationTicks": 192,
            "midi": 63,
            "name": "D#4",
            "ticks": 189716,
            "time": 214.80495289583334,
            "velocity": 0.3937007874015748
          },
          {
            "duration": 0.21739099999999212,
            "durationTicks": 192,
            "midi": 54,
            "name": "F#3",
            "ticks": 189716,
            "time": 214.80495289583334,
            "velocity": 0.3937007874015748
          },
          {
            "duration": 0.21739099999999212,
            "durationTicks": 192,
            "midi": 58,
            "name": "A#3",
            "ticks": 189716,
            "time": 214.80495289583334,
            "velocity": 0.3937007874015748
          },
          {
            "duration": 0.10869549999998185,
            "durationTicks": 96,
            "midi": 66,
            "name": "F#4",
            "ticks": 189716,
            "time": 214.80495289583334,
            "velocity": 0.3937007874015748
          },
          {
            "duration": 0.21739099999999212,
            "durationTicks": 192,
            "midi": 68,
            "name": "G#4",
            "ticks": 189716,
            "time": 214.80495289583334,
            "velocity": 0.3937007874015748
          },
          {
            "duration": 0.21739099999999212,
            "durationTicks": 192,
            "midi": 65,
            "name": "F4",
            "ticks": 189716,
            "time": 214.80495289583334,
            "velocity": 0.3937007874015748
          },
          {
            "duration": 0.10869549999998185,
            "durationTicks": 96,
            "midi": 39,
            "name": "D#2",
            "ticks": 189716,
            "time": 214.80495289583334,
            "velocity": 0.3937007874015748
          },
          {
            "duration": 0.10869549999998185,
            "durationTicks": 96,
            "midi": 27,
            "name": "D#1",
            "ticks": 189716,
            "time": 214.80495289583334,
            "velocity": 0.3937007874015748
          },
          {
            "duration": 0.21739099999999212,
            "durationTicks": 192,
            "midi": 77,
            "name": "F5",
            "ticks": 189716,
            "time": 214.80495289583334,
            "velocity": 0.3937007874015748
          },
          {
            "duration": 0.21739099999999212,
            "durationTicks": 192,
            "midi": 80,
            "name": "G#5",
            "ticks": 189716,
            "time": 214.80495289583334,
            "velocity": 0.3937007874015748
          },
          {
            "duration": 0.10869550000001027,
            "durationTicks": 96,
            "midi": 39,
            "name": "D#2",
            "ticks": 189812,
            "time": 214.91364839583332,
            "velocity": 0.3937007874015748
          },
          {
            "duration": 0.10869550000001027,
            "durationTicks": 96,
            "midi": 70,
            "name": "A#4",
            "ticks": 189812,
            "time": 214.91364839583332,
            "velocity": 0.3937007874015748
          },
          {
            "duration": 0.10869550000001027,
            "durationTicks": 96,
            "midi": 51,
            "name": "D#3",
            "ticks": 189812,
            "time": 214.91364839583332,
            "velocity": 0.3937007874015748
          },
          {
            "duration": 0.10869549999998185,
            "durationTicks": 96,
            "midi": 37,
            "name": "C#2",
            "ticks": 189908,
            "time": 215.02234389583333,
            "velocity": 0.3937007874015748
          },
          {
            "duration": 0.21739099999999212,
            "durationTicks": 192,
            "midi": 78,
            "name": "F#5",
            "ticks": 189908,
            "time": 215.02234389583333,
            "velocity": 0.3937007874015748
          },
          {
            "duration": 0.21739099999999212,
            "durationTicks": 192,
            "midi": 70,
            "name": "A#4",
            "ticks": 189908,
            "time": 215.02234389583333,
            "velocity": 0.3937007874015748
          },
          {
            "duration": 0.10869549999998185,
            "durationTicks": 96,
            "midi": 75,
            "name": "D#5",
            "ticks": 189908,
            "time": 215.02234389583333,
            "velocity": 0.3937007874015748
          },
          {
            "duration": 0.21739099999999212,
            "durationTicks": 192,
            "midi": 66,
            "name": "F#4",
            "ticks": 189908,
            "time": 215.02234389583333,
            "velocity": 0.3937007874015748
          },
          {
            "duration": 0.21739099999999212,
            "durationTicks": 192,
            "midi": 63,
            "name": "D#4",
            "ticks": 189908,
            "time": 215.02234389583333,
            "velocity": 0.3937007874015748
          },
          {
            "duration": 0.21739099999999212,
            "durationTicks": 192,
            "midi": 54,
            "name": "F#3",
            "ticks": 189908,
            "time": 215.02234389583333,
            "velocity": 0.3937007874015748
          },
          {
            "duration": 0.21739099999999212,
            "durationTicks": 192,
            "midi": 58,
            "name": "A#3",
            "ticks": 189908,
            "time": 215.02234389583333,
            "velocity": 0.3937007874015748
          },
          {
            "duration": 0.21739099999999212,
            "durationTicks": 192,
            "midi": 82,
            "name": "A#5",
            "ticks": 189908,
            "time": 215.02234389583333,
            "velocity": 0.3937007874015748
          },
          {
            "duration": 0.10869549999998185,
            "durationTicks": 96,
            "midi": 49,
            "name": "C#3",
            "ticks": 189908,
            "time": 215.02234389583333,
            "velocity": 0.3937007874015748
          },
          {
            "duration": 0.10869550000001027,
            "durationTicks": 96,
            "midi": 39,
            "name": "D#2",
            "ticks": 190004,
            "time": 215.1310393958333,
            "velocity": 0.3937007874015748
          },
          {
            "duration": 0.10869550000001027,
            "durationTicks": 96,
            "midi": 51,
            "name": "D#3",
            "ticks": 190004,
            "time": 215.1310393958333,
            "velocity": 0.3937007874015748
          },
          {
            "duration": 0.10869550000001027,
            "durationTicks": 96,
            "midi": 78,
            "name": "F#5",
            "ticks": 190004,
            "time": 215.1310393958333,
            "velocity": 0.3937007874015748
          },
          {
            "duration": 0.21739099999999212,
            "durationTicks": 192,
            "midi": 75,
            "name": "D#5",
            "ticks": 190100,
            "time": 215.23973489583332,
            "velocity": 0.3937007874015748
          },
          {
            "duration": 0.10869550000001027,
            "durationTicks": 96,
            "midi": 34,
            "name": "A#1",
            "ticks": 190100,
            "time": 215.23973489583332,
            "velocity": 0.3937007874015748
          },
          {
            "duration": 0.10869550000001027,
            "durationTicks": 96,
            "midi": 51,
            "name": "D#3",
            "ticks": 190100,
            "time": 215.23973489583332,
            "velocity": 0.3937007874015748
          },
          {
            "duration": 0.21739099999999212,
            "durationTicks": 192,
            "midi": 63,
            "name": "D#4",
            "ticks": 190100,
            "time": 215.23973489583332,
            "velocity": 0.3937007874015748
          },
          {
            "duration": 0.10869550000001027,
            "durationTicks": 96,
            "midi": 61,
            "name": "C#4",
            "ticks": 190100,
            "time": 215.23973489583332,
            "velocity": 0.3937007874015748
          },
          {
            "duration": 0.21739099999999212,
            "durationTicks": 192,
            "midi": 58,
            "name": "A#3",
            "ticks": 190100,
            "time": 215.23973489583332,
            "velocity": 0.3937007874015748
          },
          {
            "duration": 0.10869550000001027,
            "durationTicks": 96,
            "midi": 39,
            "name": "D#2",
            "ticks": 190100,
            "time": 215.23973489583332,
            "velocity": 0.3937007874015748
          },
          {
            "duration": 0.21739099999999212,
            "durationTicks": 192,
            "midi": 54,
            "name": "F#3",
            "ticks": 190100,
            "time": 215.23973489583332,
            "velocity": 0.3937007874015748
          },
          {
            "duration": 0.21739099999999212,
            "durationTicks": 192,
            "midi": 61,
            "name": "C#4",
            "ticks": 190100,
            "time": 215.23973489583332,
            "velocity": 0.3937007874015748
          },
          {
            "duration": 0.21739099999999212,
            "durationTicks": 192,
            "midi": 70,
            "name": "A#4",
            "ticks": 190100,
            "time": 215.23973489583332,
            "velocity": 0.3937007874015748
          },
          {
            "duration": 0.21739099999999212,
            "durationTicks": 192,
            "midi": 58,
            "name": "A#3",
            "ticks": 190100,
            "time": 215.23973489583332,
            "velocity": 0.3937007874015748
          },
          {
            "duration": 0.10869549999998185,
            "durationTicks": 96,
            "midi": 66,
            "name": "F#4",
            "ticks": 190196,
            "time": 215.34843039583333,
            "velocity": 0.3937007874015748
          },
          {
            "duration": 0.10869550000001027,
            "durationTicks": 96,
            "midi": 34,
            "name": "A#1",
            "ticks": 190228,
            "time": 215.38466222916668,
            "velocity": 0.3937007874015748
          },
          {
            "duration": 0.21852324479169738,
            "durationTicks": 193,
            "midi": 54,
            "name": "F#3",
            "ticks": 190292,
            "time": 215.45712589583331,
            "velocity": 0.3937007874015748
          },
          {
            "duration": 0.21852324479169738,
            "durationTicks": 193,
            "midi": 58,
            "name": "A#3",
            "ticks": 190292,
            "time": 215.45712589583331,
            "velocity": 0.3937007874015748
          },
          {
            "duration": 0.10982774479168711,
            "durationTicks": 97,
            "midi": 70,
            "name": "A#4",
            "ticks": 190292,
            "time": 215.45712589583331,
            "velocity": 0.3937007874015748
          },
          {
            "duration": 0.10982774479168711,
            "durationTicks": 97,
            "midi": 46,
            "name": "A#2",
            "ticks": 190292,
            "time": 215.45712589583331,
            "velocity": 0.3937007874015748
          },
          {
            "duration": 0.21852324479169738,
            "durationTicks": 193,
            "midi": 61,
            "name": "C#4",
            "ticks": 190292,
            "time": 215.45712589583331,
            "velocity": 0.3937007874015748
          },
          {
            "duration": 0.10982774479168711,
            "durationTicks": 97,
            "midi": 34,
            "name": "A#1",
            "ticks": 190292,
            "time": 215.45712589583331,
            "velocity": 0.3937007874015748
          },
          {
            "duration": 0.10869549999998185,
            "durationTicks": 96,
            "midi": 34,
            "name": "A#1",
            "ticks": 190357,
            "time": 215.53072180729168,
            "velocity": 0.3937007874015748
          },
          {
            "duration": 0.10869550000001027,
            "durationTicks": 96,
            "midi": 49,
            "name": "C#3",
            "ticks": 190389,
            "time": 215.566953640625,
            "velocity": 0.3937007874015748
          },
          {
            "duration": 0.10869550000001027,
            "durationTicks": 96,
            "midi": 37,
            "name": "C#2",
            "ticks": 190389,
            "time": 215.566953640625,
            "velocity": 0.3937007874015748
          },
          {
            "duration": 0.10869550000001027,
            "durationTicks": 96,
            "midi": 73,
            "name": "C#5",
            "ticks": 190389,
            "time": 215.566953640625,
            "velocity": 0.3937007874015748
          },
          {
            "duration": 0.21739099999999212,
            "durationTicks": 192,
            "midi": 82,
            "name": "A#5",
            "ticks": 190485,
            "time": 215.675649140625,
            "velocity": 0.3937007874015748
          },
          {
            "duration": 0.21739099999999212,
            "durationTicks": 192,
            "midi": 70,
            "name": "A#4",
            "ticks": 190485,
            "time": 215.675649140625,
            "velocity": 0.3937007874015748
          },
          {
            "duration": 0.21739099999999212,
            "durationTicks": 192,
            "midi": 56,
            "name": "G#3",
            "ticks": 190485,
            "time": 215.675649140625,
            "velocity": 0.3937007874015748
          },
          {
            "duration": 0.10869549999998185,
            "durationTicks": 96,
            "midi": 60,
            "name": "C4",
            "ticks": 190485,
            "time": 215.675649140625,
            "velocity": 0.3937007874015748
          },
          {
            "duration": 0.21739099999999212,
            "durationTicks": 192,
            "midi": 51,
            "name": "D#3",
            "ticks": 190485,
            "time": 215.675649140625,
            "velocity": 0.3937007874015748
          },
          {
            "duration": 0.10869549999998185,
            "durationTicks": 96,
            "midi": 34,
            "name": "A#1",
            "ticks": 190485,
            "time": 215.675649140625,
            "velocity": 0.3937007874015748
          },
          {
            "duration": 0.21739099999999212,
            "durationTicks": 192,
            "midi": 60,
            "name": "C4",
            "ticks": 190485,
            "time": 215.675649140625,
            "velocity": 0.3937007874015748
          },
          {
            "duration": 0.10869549999998185,
            "durationTicks": 96,
            "midi": 32,
            "name": "G#1",
            "ticks": 190485,
            "time": 215.675649140625,
            "velocity": 0.3937007874015748
          },
          {
            "duration": 0.21739099999999212,
            "durationTicks": 192,
            "midi": 78,
            "name": "F#5",
            "ticks": 190485,
            "time": 215.675649140625,
            "velocity": 0.3937007874015748
          },
          {
            "duration": 0.21739099999999212,
            "durationTicks": 192,
            "midi": 66,
            "name": "F#4",
            "ticks": 190485,
            "time": 215.675649140625,
            "velocity": 0.3937007874015748
          },
          {
            "duration": 0.10869549999998185,
            "durationTicks": 96,
            "midi": 44,
            "name": "G#2",
            "ticks": 190485,
            "time": 215.675649140625,
            "velocity": 0.3937007874015748
          },
          {
            "duration": 0.10869550000001027,
            "durationTicks": 96,
            "midi": 63,
            "name": "D#4",
            "ticks": 190581,
            "time": 215.784344640625,
            "velocity": 0.3937007874015748
          },
          {
            "duration": 0.10869549999998185,
            "durationTicks": 96,
            "midi": 34,
            "name": "A#1",
            "ticks": 190613,
            "time": 215.82057647395834,
            "velocity": 0.3937007874015748
          },
          {
            "duration": 0.10982774479165869,
            "durationTicks": 97,
            "midi": 68,
            "name": "G#4",
            "ticks": 190677,
            "time": 215.893040140625,
            "velocity": 0.3937007874015748
          },
          {
            "duration": 0.21852324479166896,
            "durationTicks": 193,
            "midi": 80,
            "name": "G#5",
            "ticks": 190677,
            "time": 215.893040140625,
            "velocity": 0.3937007874015748
          },
          {
            "duration": 0.21852324479166896,
            "durationTicks": 193,
            "midi": 68,
            "name": "G#4",
            "ticks": 190677,
            "time": 215.893040140625,
            "velocity": 0.3937007874015748
          },
          {
            "duration": 0.21852324479166896,
            "durationTicks": 193,
            "midi": 85,
            "name": "C#6",
            "ticks": 190677,
            "time": 215.893040140625,
            "velocity": 0.3937007874015748
          },
          {
            "duration": 0.21852324479166896,
            "durationTicks": 193,
            "midi": 51,
            "name": "D#3",
            "ticks": 190677,
            "time": 215.893040140625,
            "velocity": 0.3937007874015748
          },
          {
            "duration": 0.10982774479165869,
            "durationTicks": 97,
            "midi": 42,
            "name": "F#2",
            "ticks": 190677,
            "time": 215.893040140625,
            "velocity": 0.3937007874015748
          },
          {
            "duration": 0.10982774479165869,
            "durationTicks": 97,
            "midi": 30,
            "name": "F#1",
            "ticks": 190677,
            "time": 215.893040140625,
            "velocity": 0.3937007874015748
          },
          {
            "duration": 0.21852324479166896,
            "durationTicks": 193,
            "midi": 56,
            "name": "G#3",
            "ticks": 190677,
            "time": 215.893040140625,
            "velocity": 0.3937007874015748
          },
          {
            "duration": 0.21852324479166896,
            "durationTicks": 193,
            "midi": 60,
            "name": "C4",
            "ticks": 190677,
            "time": 215.893040140625,
            "velocity": 0.3937007874015748
          },
          {
            "duration": 0.21852324479166896,
            "durationTicks": 193,
            "midi": 73,
            "name": "C#5",
            "ticks": 190677,
            "time": 215.893040140625,
            "velocity": 0.3937007874015748
          },
          {
            "duration": 0.10869550000001027,
            "durationTicks": 96,
            "midi": 34,
            "name": "A#1",
            "ticks": 190742,
            "time": 215.96663605208332,
            "velocity": 0.3937007874015748
          },
          {
            "duration": 0.10869550000001027,
            "durationTicks": 96,
            "midi": 32,
            "name": "G#1",
            "ticks": 190774,
            "time": 216.00286788541666,
            "velocity": 0.3937007874015748
          },
          {
            "duration": 0.10869550000001027,
            "durationTicks": 96,
            "midi": 44,
            "name": "G#2",
            "ticks": 190774,
            "time": 216.00286788541666,
            "velocity": 0.3937007874015748
          },
          {
            "duration": 0.10869550000001027,
            "durationTicks": 96,
            "midi": 72,
            "name": "C5",
            "ticks": 190774,
            "time": 216.00286788541666,
            "velocity": 0.3937007874015748
          },
          {
            "duration": 0.4891297500000178,
            "durationTicks": 432,
            "midi": 87,
            "name": "D#6",
            "ticks": 190822,
            "time": 216.05721563541667,
            "velocity": 0.3937007874015748
          },
          {
            "duration": 0.21739099999999212,
            "durationTicks": 192,
            "midi": 80,
            "name": "G#5",
            "ticks": 190870,
            "time": 216.11156338541667,
            "velocity": 0.3937007874015748
          },
          {
            "duration": 0.21739099999999212,
            "durationTicks": 192,
            "midi": 51,
            "name": "D#3",
            "ticks": 190870,
            "time": 216.11156338541667,
            "velocity": 0.3937007874015748
          },
          {
            "duration": 0.21739099999999212,
            "durationTicks": 192,
            "midi": 73,
            "name": "C#5",
            "ticks": 190870,
            "time": 216.11156338541667,
            "velocity": 0.3937007874015748
          },
          {
            "duration": 0.10869550000001027,
            "durationTicks": 96,
            "midi": 35,
            "name": "B1",
            "ticks": 190870,
            "time": 216.11156338541667,
            "velocity": 0.3937007874015748
          },
          {
            "duration": 0.10869550000001027,
            "durationTicks": 96,
            "midi": 35,
            "name": "B1",
            "ticks": 190870,
            "time": 216.11156338541667,
            "velocity": 0.3937007874015748
          },
          {
            "duration": 0.21739099999999212,
            "durationTicks": 192,
            "midi": 68,
            "name": "G#4",
            "ticks": 190870,
            "time": 216.11156338541667,
            "velocity": 0.3937007874015748
          },
          {
            "duration": 0.21739099999999212,
            "durationTicks": 192,
            "midi": 85,
            "name": "C#6",
            "ticks": 190870,
            "time": 216.11156338541667,
            "velocity": 0.3937007874015748
          },
          {
            "duration": 0.10869550000001027,
            "durationTicks": 96,
            "midi": 47,
            "name": "B2",
            "ticks": 190870,
            "time": 216.11156338541667,
            "velocity": 0.3937007874015748
          },
          {
            "duration": 0.21739099999999212,
            "durationTicks": 192,
            "midi": 54,
            "name": "F#3",
            "ticks": 190870,
            "time": 216.11156338541667,
            "velocity": 0.3937007874015748
          },
          {
            "duration": 0.21739099999999212,
            "durationTicks": 192,
            "midi": 34,
            "name": "A#1",
            "ticks": 190870,
            "time": 216.11156338541667,
            "velocity": 0.3937007874015748
          },
          {
            "duration": 0.21739099999999212,
            "durationTicks": 192,
            "midi": 59,
            "name": "B3",
            "ticks": 190870,
            "time": 216.11156338541667,
            "velocity": 0.3937007874015748
          },
          {
            "duration": 0.10869549999998185,
            "durationTicks": 96,
            "midi": 51,
            "name": "D#3",
            "ticks": 190966,
            "time": 216.22025888541668,
            "velocity": 0.3937007874015748
          },
          {
            "duration": 0.21739100000002054,
            "durationTicks": 192,
            "midi": 75,
            "name": "D#5",
            "ticks": 191062,
            "time": 216.32895438541667,
            "velocity": 0.3937007874015748
          },
          {
            "duration": 0.10869550000001027,
            "durationTicks": 96,
            "midi": 54,
            "name": "F#3",
            "ticks": 191062,
            "time": 216.32895438541667,
            "velocity": 0.3937007874015748
          },
          {
            "duration": 0.10869550000001027,
            "durationTicks": 96,
            "midi": 47,
            "name": "B2",
            "ticks": 191062,
            "time": 216.32895438541667,
            "velocity": 0.3937007874015748
          },
          {
            "duration": 0.10869550000001027,
            "durationTicks": 96,
            "midi": 35,
            "name": "B1",
            "ticks": 191062,
            "time": 216.32895438541667,
            "velocity": 0.3937007874015748
          },
          {
            "duration": 0.21739100000002054,
            "durationTicks": 192,
            "midi": 54,
            "name": "F#3",
            "ticks": 191062,
            "time": 216.32895438541667,
            "velocity": 0.3937007874015748
          },
          {
            "duration": 0.3804342500000075,
            "durationTicks": 336,
            "midi": 87,
            "name": "D#6",
            "ticks": 191062,
            "time": 216.32895438541667,
            "velocity": 0.3937007874015748
          },
          {
            "duration": 0.21739100000002054,
            "durationTicks": 192,
            "midi": 82,
            "name": "A#5",
            "ticks": 191062,
            "time": 216.32895438541667,
            "velocity": 0.3937007874015748
          },
          {
            "duration": 0.21739100000002054,
            "durationTicks": 192,
            "midi": 59,
            "name": "B3",
            "ticks": 191062,
            "time": 216.32895438541667,
            "velocity": 0.3937007874015748
          },
          {
            "duration": 0.21739100000002054,
            "durationTicks": 192,
            "midi": 70,
            "name": "A#4",
            "ticks": 191062,
            "time": 216.32895438541667,
            "velocity": 0.3937007874015748
          },
          {
            "duration": 0.21739100000002054,
            "durationTicks": 192,
            "midi": 51,
            "name": "D#3",
            "ticks": 191062,
            "time": 216.32895438541667,
            "velocity": 0.3937007874015748
          },
          {
            "duration": 0.10869550000001027,
            "durationTicks": 96,
            "midi": 59,
            "name": "B3",
            "ticks": 191158,
            "time": 216.43764988541668,
            "velocity": 0.3937007874015748
          },
          {
            "duration": 0.10869550000001027,
            "durationTicks": 96,
            "midi": 35,
            "name": "B1",
            "ticks": 191158,
            "time": 216.43764988541668,
            "velocity": 0.3937007874015748
          },
          {
            "duration": 0.10869550000001027,
            "durationTicks": 96,
            "midi": 47,
            "name": "B2",
            "ticks": 191158,
            "time": 216.43764988541668,
            "velocity": 0.3937007874015748
          },
          {
            "duration": 0.21739099999999212,
            "durationTicks": 192,
            "midi": 82,
            "name": "A#5",
            "ticks": 191254,
            "time": 216.54634538541669,
            "velocity": 0.3937007874015748
          },
          {
            "duration": 0.21739099999999212,
            "durationTicks": 192,
            "midi": 78,
            "name": "F#5",
            "ticks": 191254,
            "time": 216.54634538541669,
            "velocity": 0.3937007874015748
          },
          {
            "duration": 0.21739099999999212,
            "durationTicks": 192,
            "midi": 59,
            "name": "B3",
            "ticks": 191254,
            "time": 216.54634538541669,
            "velocity": 0.3937007874015748
          },
          {
            "duration": 0.21739099999999212,
            "durationTicks": 192,
            "midi": 34,
            "name": "A#1",
            "ticks": 191254,
            "time": 216.54634538541669,
            "velocity": 0.3937007874015748
          },
          {
            "duration": 0.10869549999998185,
            "durationTicks": 96,
            "midi": 35,
            "name": "B1",
            "ticks": 191254,
            "time": 216.54634538541669,
            "velocity": 0.3937007874015748
          },
          {
            "duration": 0.21739099999999212,
            "durationTicks": 192,
            "midi": 51,
            "name": "D#3",
            "ticks": 191254,
            "time": 216.54634538541669,
            "velocity": 0.3937007874015748
          },
          {
            "duration": 0.21739099999999212,
            "durationTicks": 192,
            "midi": 66,
            "name": "F#4",
            "ticks": 191254,
            "time": 216.54634538541669,
            "velocity": 0.3937007874015748
          },
          {
            "duration": 0.10869549999998185,
            "durationTicks": 96,
            "midi": 35,
            "name": "B1",
            "ticks": 191254,
            "time": 216.54634538541669,
            "velocity": 0.3937007874015748
          },
          {
            "duration": 0.10869549999998185,
            "durationTicks": 96,
            "midi": 63,
            "name": "D#4",
            "ticks": 191254,
            "time": 216.54634538541669,
            "velocity": 0.3937007874015748
          },
          {
            "duration": 0.21739099999999212,
            "durationTicks": 192,
            "midi": 70,
            "name": "A#4",
            "ticks": 191254,
            "time": 216.54634538541669,
            "velocity": 0.3937007874015748
          },
          {
            "duration": 0.21739099999999212,
            "durationTicks": 192,
            "midi": 54,
            "name": "F#3",
            "ticks": 191254,
            "time": 216.54634538541669,
            "velocity": 0.3937007874015748
          },
          {
            "duration": 0.10869550000001027,
            "durationTicks": 96,
            "midi": 47,
            "name": "B2",
            "ticks": 191350,
            "time": 216.65504088541667,
            "velocity": 0.3937007874015748
          },
          {
            "duration": 0.10869550000001027,
            "durationTicks": 96,
            "midi": 66,
            "name": "F#4",
            "ticks": 191350,
            "time": 216.65504088541667,
            "velocity": 0.3937007874015748
          },
          {
            "duration": 0.10869550000001027,
            "durationTicks": 96,
            "midi": 35,
            "name": "B1",
            "ticks": 191350,
            "time": 216.65504088541667,
            "velocity": 0.3937007874015748
          },
          {
            "duration": 0.21739099999999212,
            "durationTicks": 192,
            "midi": 51,
            "name": "D#3",
            "ticks": 191446,
            "time": 216.76373638541668,
            "velocity": 0.3937007874015748
          },
          {
            "duration": 0.21739099999999212,
            "durationTicks": 192,
            "midi": 68,
            "name": "G#4",
            "ticks": 191446,
            "time": 216.76373638541668,
            "velocity": 0.3937007874015748
          },
          {
            "duration": 0.21739099999999212,
            "durationTicks": 192,
            "midi": 65,
            "name": "F4",
            "ticks": 191446,
            "time": 216.76373638541668,
            "velocity": 0.3937007874015748
          },
          {
            "duration": 0.21739099999999212,
            "durationTicks": 192,
            "midi": 80,
            "name": "G#5",
            "ticks": 191446,
            "time": 216.76373638541668,
            "velocity": 0.3937007874015748
          },
          {
            "duration": 0.21739099999999212,
            "durationTicks": 192,
            "midi": 59,
            "name": "B3",
            "ticks": 191446,
            "time": 216.76373638541668,
            "velocity": 0.3937007874015748
          },
          {
            "duration": 0.10869550000001027,
            "durationTicks": 96,
            "midi": 46,
            "name": "A#2",
            "ticks": 191446,
            "time": 216.76373638541668,
            "velocity": 0.3937007874015748
          },
          {
            "duration": 0.21739099999999212,
            "durationTicks": 192,
            "midi": 77,
            "name": "F5",
            "ticks": 191446,
            "time": 216.76373638541668,
            "velocity": 0.3937007874015748
          },
          {
            "duration": 0.21739099999999212,
            "durationTicks": 192,
            "midi": 54,
            "name": "F#3",
            "ticks": 191446,
            "time": 216.76373638541668,
            "velocity": 0.3937007874015748
          },
          {
            "duration": 0.10869550000001027,
            "durationTicks": 96,
            "midi": 71,
            "name": "B4",
            "ticks": 191446,
            "time": 216.76373638541668,
            "velocity": 0.3937007874015748
          },
          {
            "duration": 0.10869550000001027,
            "durationTicks": 96,
            "midi": 34,
            "name": "A#1",
            "ticks": 191446,
            "time": 216.76373638541668,
            "velocity": 0.3937007874015748
          },
          {
            "duration": 0.10869549999998185,
            "durationTicks": 96,
            "midi": 35,
            "name": "B1",
            "ticks": 191542,
            "time": 216.8724318854167,
            "velocity": 0.3937007874015748
          },
          {
            "duration": 0.10869549999998185,
            "durationTicks": 96,
            "midi": 47,
            "name": "B2",
            "ticks": 191542,
            "time": 216.8724318854167,
            "velocity": 0.3937007874015748
          },
          {
            "duration": 0.10869549999998185,
            "durationTicks": 96,
            "midi": 75,
            "name": "D#5",
            "ticks": 191542,
            "time": 216.8724318854167,
            "velocity": 0.3937007874015748
          },
          {
            "duration": 0.21739099999999212,
            "durationTicks": 192,
            "midi": 34,
            "name": "A#1",
            "ticks": 191638,
            "time": 216.98112738541667,
            "velocity": 0.3937007874015748
          },
          {
            "duration": 0.21739099999999212,
            "durationTicks": 192,
            "midi": 78,
            "name": "F#5",
            "ticks": 191638,
            "time": 216.98112738541667,
            "velocity": 0.3937007874015748
          },
          {
            "duration": 0.21739099999999212,
            "durationTicks": 192,
            "midi": 70,
            "name": "A#4",
            "ticks": 191638,
            "time": 216.98112738541667,
            "velocity": 0.3937007874015748
          },
          {
            "duration": 0.21739099999999212,
            "durationTicks": 192,
            "midi": 54,
            "name": "F#3",
            "ticks": 191638,
            "time": 216.98112738541667,
            "velocity": 0.3937007874015748
          },
          {
            "duration": 0.21739099999999212,
            "durationTicks": 192,
            "midi": 51,
            "name": "D#3",
            "ticks": 191638,
            "time": 216.98112738541667,
            "velocity": 0.3937007874015748
          },
          {
            "duration": 0.10869550000001027,
            "durationTicks": 96,
            "midi": 47,
            "name": "B2",
            "ticks": 191638,
            "time": 216.98112738541667,
            "velocity": 0.3937007874015748
          },
          {
            "duration": 0.21739099999999212,
            "durationTicks": 192,
            "midi": 59,
            "name": "B3",
            "ticks": 191638,
            "time": 216.98112738541667,
            "velocity": 0.3937007874015748
          },
          {
            "duration": 0.21739099999999212,
            "durationTicks": 192,
            "midi": 82,
            "name": "A#5",
            "ticks": 191638,
            "time": 216.98112738541667,
            "velocity": 0.3937007874015748
          },
          {
            "duration": 0.10869550000001027,
            "durationTicks": 96,
            "midi": 35,
            "name": "B1",
            "ticks": 191638,
            "time": 216.98112738541667,
            "velocity": 0.3937007874015748
          },
          {
            "duration": 0.21739099999999212,
            "durationTicks": 192,
            "midi": 66,
            "name": "F#4",
            "ticks": 191638,
            "time": 216.98112738541667,
            "velocity": 0.3937007874015748
          },
          {
            "duration": 0.10869550000001027,
            "durationTicks": 96,
            "midi": 35,
            "name": "B1",
            "ticks": 191638,
            "time": 216.98112738541667,
            "velocity": 0.3937007874015748
          },
          {
            "duration": 0.10869549999998185,
            "durationTicks": 96,
            "midi": 51,
            "name": "D#3",
            "ticks": 191734,
            "time": 217.08982288541668,
            "velocity": 0.3937007874015748
          },
          {
            "duration": 0.10869550000001027,
            "durationTicks": 96,
            "midi": 35,
            "name": "B1",
            "ticks": 191830,
            "time": 217.19851838541666,
            "velocity": 0.3937007874015748
          },
          {
            "duration": 0.21739100000002054,
            "durationTicks": 192,
            "midi": 59,
            "name": "B3",
            "ticks": 191830,
            "time": 217.19851838541666,
            "velocity": 0.3937007874015748
          },
          {
            "duration": 0.10869550000001027,
            "durationTicks": 96,
            "midi": 54,
            "name": "F#3",
            "ticks": 191830,
            "time": 217.19851838541666,
            "velocity": 0.3937007874015748
          },
          {
            "duration": 0.10869550000001027,
            "durationTicks": 96,
            "midi": 47,
            "name": "B2",
            "ticks": 191830,
            "time": 217.19851838541666,
            "velocity": 0.3937007874015748
          },
          {
            "duration": 0.21739100000002054,
            "durationTicks": 192,
            "midi": 51,
            "name": "D#3",
            "ticks": 191830,
            "time": 217.19851838541666,
            "velocity": 0.3937007874015748
          },
          {
            "duration": 0.21739100000002054,
            "durationTicks": 192,
            "midi": 54,
            "name": "F#3",
            "ticks": 191830,
            "time": 217.19851838541666,
            "velocity": 0.3937007874015748
          },
          {
            "duration": 0.10869550000001027,
            "durationTicks": 96,
            "midi": 47,
            "name": "B2",
            "ticks": 191926,
            "time": 217.30721388541667,
            "velocity": 0.3937007874015748
          },
          {
            "duration": 0.10869550000001027,
            "durationTicks": 96,
            "midi": 35,
            "name": "B1",
            "ticks": 191926,
            "time": 217.30721388541667,
            "velocity": 0.3937007874015748
          },
          {
            "duration": 0.10869550000001027,
            "durationTicks": 96,
            "midi": 59,
            "name": "B3",
            "ticks": 191926,
            "time": 217.30721388541667,
            "velocity": 0.3937007874015748
          },
          {
            "duration": 0.21739099999999212,
            "durationTicks": 192,
            "midi": 34,
            "name": "A#1",
            "ticks": 192022,
            "time": 217.41590938541668,
            "velocity": 0.3937007874015748
          },
          {
            "duration": 0.21739099999999212,
            "durationTicks": 192,
            "midi": 59,
            "name": "B3",
            "ticks": 192022,
            "time": 217.41590938541668,
            "velocity": 0.3937007874015748
          },
          {
            "duration": 0.10869549999998185,
            "durationTicks": 96,
            "midi": 63,
            "name": "D#4",
            "ticks": 192022,
            "time": 217.41590938541668,
            "velocity": 0.3937007874015748
          },
          {
            "duration": 0.21739099999999212,
            "durationTicks": 192,
            "midi": 77,
            "name": "F5",
            "ticks": 192022,
            "time": 217.41590938541668,
            "velocity": 0.3937007874015748
          },
          {
            "duration": 0.21739099999999212,
            "durationTicks": 192,
            "midi": 51,
            "name": "D#3",
            "ticks": 192022,
            "time": 217.41590938541668,
            "velocity": 0.3937007874015748
          },
          {
            "duration": 0.21739099999999212,
            "durationTicks": 192,
            "midi": 68,
            "name": "G#4",
            "ticks": 192022,
            "time": 217.41590938541668,
            "velocity": 0.3937007874015748
          },
          {
            "duration": 0.21739099999999212,
            "durationTicks": 192,
            "midi": 80,
            "name": "G#5",
            "ticks": 192022,
            "time": 217.41590938541668,
            "velocity": 0.3937007874015748
          },
          {
            "duration": 0.21739099999999212,
            "durationTicks": 192,
            "midi": 65,
            "name": "F4",
            "ticks": 192022,
            "time": 217.41590938541668,
            "velocity": 0.3937007874015748
          },
          {
            "duration": 0.21739099999999212,
            "durationTicks": 192,
            "midi": 54,
            "name": "F#3",
            "ticks": 192022,
            "time": 217.41590938541668,
            "velocity": 0.3937007874015748
          },
          {
            "duration": 0.10869549999998185,
            "durationTicks": 96,
            "midi": 35,
            "name": "B1",
            "ticks": 192022,
            "time": 217.41590938541668,
            "velocity": 0.3937007874015748
          },
          {
            "duration": 0.10869549999998185,
            "durationTicks": 96,
            "midi": 35,
            "name": "B1",
            "ticks": 192022,
            "time": 217.41590938541668,
            "velocity": 0.3937007874015748
          },
          {
            "duration": 0.10869550000001027,
            "durationTicks": 96,
            "midi": 66,
            "name": "F#4",
            "ticks": 192118,
            "time": 217.52460488541666,
            "velocity": 0.3937007874015748
          },
          {
            "duration": 0.10869550000001027,
            "durationTicks": 96,
            "midi": 35,
            "name": "B1",
            "ticks": 192118,
            "time": 217.52460488541666,
            "velocity": 0.3937007874015748
          },
          {
            "duration": 0.10869550000001027,
            "durationTicks": 96,
            "midi": 47,
            "name": "B2",
            "ticks": 192118,
            "time": 217.52460488541666,
            "velocity": 0.3937007874015748
          },
          {
            "duration": 0.21739099999999212,
            "durationTicks": 192,
            "midi": 59,
            "name": "B3",
            "ticks": 192214,
            "time": 217.63330038541667,
            "velocity": 0.3937007874015748
          },
          {
            "duration": 0.21739099999999212,
            "durationTicks": 192,
            "midi": 51,
            "name": "D#3",
            "ticks": 192214,
            "time": 217.63330038541667,
            "velocity": 0.3937007874015748
          },
          {
            "duration": 0.10869550000001027,
            "durationTicks": 96,
            "midi": 46,
            "name": "A#2",
            "ticks": 192214,
            "time": 217.63330038541667,
            "velocity": 0.3937007874015748
          },
          {
            "duration": 0.21739099999999212,
            "durationTicks": 192,
            "midi": 70,
            "name": "A#4",
            "ticks": 192214,
            "time": 217.63330038541667,
            "velocity": 0.3937007874015748
          },
          {
            "duration": 0.21739099999999212,
            "durationTicks": 192,
            "midi": 78,
            "name": "F#5",
            "ticks": 192214,
            "time": 217.63330038541667,
            "velocity": 0.3937007874015748
          },
          {
            "duration": 0.21739099999999212,
            "durationTicks": 192,
            "midi": 66,
            "name": "F#4",
            "ticks": 192214,
            "time": 217.63330038541667,
            "velocity": 0.3937007874015748
          },
          {
            "duration": 0.10869550000001027,
            "durationTicks": 96,
            "midi": 71,
            "name": "B4",
            "ticks": 192214,
            "time": 217.63330038541667,
            "velocity": 0.3937007874015748
          },
          {
            "duration": 0.21739099999999212,
            "durationTicks": 192,
            "midi": 82,
            "name": "A#5",
            "ticks": 192214,
            "time": 217.63330038541667,
            "velocity": 0.3937007874015748
          },
          {
            "duration": 0.21739099999999212,
            "durationTicks": 192,
            "midi": 54,
            "name": "F#3",
            "ticks": 192214,
            "time": 217.63330038541667,
            "velocity": 0.3937007874015748
          },
          {
            "duration": 0.10869550000001027,
            "durationTicks": 96,
            "midi": 34,
            "name": "A#1",
            "ticks": 192214,
            "time": 217.63330038541667,
            "velocity": 0.3937007874015748
          },
          {
            "duration": 0.10869549999998185,
            "durationTicks": 96,
            "midi": 75,
            "name": "D#5",
            "ticks": 192310,
            "time": 217.74199588541669,
            "velocity": 0.3937007874015748
          },
          {
            "duration": 0.10869549999998185,
            "durationTicks": 96,
            "midi": 47,
            "name": "B2",
            "ticks": 192310,
            "time": 217.74199588541669,
            "velocity": 0.3937007874015748
          },
          {
            "duration": 0.10869549999998185,
            "durationTicks": 96,
            "midi": 35,
            "name": "B1",
            "ticks": 192310,
            "time": 217.74199588541669,
            "velocity": 0.3937007874015748
          },
          {
            "duration": 0.21739100000002054,
            "durationTicks": 192,
            "midi": 85,
            "name": "C#6",
            "ticks": 192406,
            "time": 217.85069138541667,
            "velocity": 0.3937007874015748
          },
          {
            "duration": 0.10869550000001027,
            "durationTicks": 96,
            "midi": 37,
            "name": "C#2",
            "ticks": 192406,
            "time": 217.85069138541667,
            "velocity": 0.3937007874015748
          },
          {
            "duration": 0.21739100000002054,
            "durationTicks": 192,
            "midi": 34,
            "name": "A#1",
            "ticks": 192406,
            "time": 217.85069138541667,
            "velocity": 0.3937007874015748
          },
          {
            "duration": 0.21739100000002054,
            "durationTicks": 192,
            "midi": 80,
            "name": "G#5",
            "ticks": 192406,
            "time": 217.85069138541667,
            "velocity": 0.3937007874015748
          },
          {
            "duration": 0.21739100000002054,
            "durationTicks": 192,
            "midi": 56,
            "name": "G#3",
            "ticks": 192406,
            "time": 217.85069138541667,
            "velocity": 0.3937007874015748
          },
          {
            "duration": 0.21739100000002054,
            "durationTicks": 192,
            "midi": 68,
            "name": "G#4",
            "ticks": 192406,
            "time": 217.85069138541667,
            "velocity": 0.3937007874015748
          },
          {
            "duration": 0.10869550000001027,
            "durationTicks": 96,
            "midi": 25,
            "name": "C#1",
            "ticks": 192406,
            "time": 217.85069138541667,
            "velocity": 0.3937007874015748
          },
          {
            "duration": 0.10869550000001027,
            "durationTicks": 96,
            "midi": 49,
            "name": "C#3",
            "ticks": 192406,
            "time": 217.85069138541667,
            "velocity": 0.3937007874015748
          },
          {
            "duration": 0.21739100000002054,
            "durationTicks": 192,
            "midi": 53,
            "name": "F3",
            "ticks": 192406,
            "time": 217.85069138541667,
            "velocity": 0.3937007874015748
          },
          {
            "duration": 0.21739100000002054,
            "durationTicks": 192,
            "midi": 61,
            "name": "C#4",
            "ticks": 192406,
            "time": 217.85069138541667,
            "velocity": 0.3937007874015748
          },
          {
            "duration": 0.21739100000002054,
            "durationTicks": 192,
            "midi": 73,
            "name": "C#5",
            "ticks": 192406,
            "time": 217.85069138541667,
            "velocity": 0.3937007874015748
          },
          {
            "duration": 0.10869550000001027,
            "durationTicks": 96,
            "midi": 53,
            "name": "F3",
            "ticks": 192502,
            "time": 217.95938688541668,
            "velocity": 0.3937007874015748
          },
          {
            "duration": 0.21739099999999212,
            "durationTicks": 192,
            "midi": 70,
            "name": "A#4",
            "ticks": 192598,
            "time": 218.0680823854167,
            "velocity": 0.3937007874015748
          },
          {
            "duration": 0.21739099999999212,
            "durationTicks": 192,
            "midi": 82,
            "name": "A#5",
            "ticks": 192598,
            "time": 218.0680823854167,
            "velocity": 0.3937007874015748
          },
          {
            "duration": 0.21739099999999212,
            "durationTicks": 192,
            "midi": 75,
            "name": "D#5",
            "ticks": 192598,
            "time": 218.0680823854167,
            "velocity": 0.3937007874015748
          },
          {
            "duration": 0.10869549999998185,
            "durationTicks": 96,
            "midi": 49,
            "name": "C#3",
            "ticks": 192598,
            "time": 218.0680823854167,
            "velocity": 0.3937007874015748
          },
          {
            "duration": 0.10869549999998185,
            "durationTicks": 96,
            "midi": 37,
            "name": "C#2",
            "ticks": 192598,
            "time": 218.0680823854167,
            "velocity": 0.3937007874015748
          },
          {
            "duration": 0.10869549999998185,
            "durationTicks": 96,
            "midi": 56,
            "name": "G#3",
            "ticks": 192598,
            "time": 218.0680823854167,
            "velocity": 0.3937007874015748
          },
          {
            "duration": 0.21739099999999212,
            "durationTicks": 192,
            "midi": 87,
            "name": "D#6",
            "ticks": 192598,
            "time": 218.0680823854167,
            "velocity": 0.3937007874015748
          },
          {
            "duration": 0.21739099999999212,
            "durationTicks": 192,
            "midi": 53,
            "name": "F3",
            "ticks": 192598,
            "time": 218.0680823854167,
            "velocity": 0.3937007874015748
          },
          {
            "duration": 0.21739099999999212,
            "durationTicks": 192,
            "midi": 61,
            "name": "C#4",
            "ticks": 192598,
            "time": 218.0680823854167,
            "velocity": 0.3937007874015748
          },
          {
            "duration": 0.21739099999999212,
            "durationTicks": 192,
            "midi": 56,
            "name": "G#3",
            "ticks": 192598,
            "time": 218.0680823854167,
            "velocity": 0.3937007874015748
          },
          {
            "duration": 0.10869550000001027,
            "durationTicks": 96,
            "midi": 49,
            "name": "C#3",
            "ticks": 192694,
            "time": 218.17677788541667,
            "velocity": 0.3937007874015748
          },
          {
            "duration": 0.10869550000001027,
            "durationTicks": 96,
            "midi": 37,
            "name": "C#2",
            "ticks": 192694,
            "time": 218.17677788541667,
            "velocity": 0.3937007874015748
          },
          {
            "duration": 0.10869550000001027,
            "durationTicks": 96,
            "midi": 61,
            "name": "C#4",
            "ticks": 192694,
            "time": 218.17677788541667,
            "velocity": 0.3937007874015748
          },
          {
            "duration": 0.21739099999999212,
            "durationTicks": 192,
            "midi": 66,
            "name": "F#4",
            "ticks": 192790,
            "time": 218.28547338541668,
            "velocity": 0.3937007874015748
          },
          {
            "duration": 0.21739099999999212,
            "durationTicks": 192,
            "midi": 70,
            "name": "A#4",
            "ticks": 192790,
            "time": 218.28547338541668,
            "velocity": 0.3937007874015748
          },
          {
            "duration": 0.21739099999999212,
            "durationTicks": 192,
            "midi": 34,
            "name": "A#1",
            "ticks": 192790,
            "time": 218.28547338541668,
            "velocity": 0.3937007874015748
          },
          {
            "duration": 0.21739099999999212,
            "durationTicks": 192,
            "midi": 82,
            "name": "A#5",
            "ticks": 192790,
            "time": 218.28547338541668,
            "velocity": 0.3937007874015748
          },
          {
            "duration": 0.21739099999999212,
            "durationTicks": 192,
            "midi": 53,
            "name": "F3",
            "ticks": 192790,
            "time": 218.28547338541668,
            "velocity": 0.3937007874015748
          },
          {
            "duration": 0.10869550000001027,
            "durationTicks": 96,
            "midi": 37,
            "name": "C#2",
            "ticks": 192790,
            "time": 218.28547338541668,
            "velocity": 0.3937007874015748
          },
          {
            "duration": 0.21739099999999212,
            "durationTicks": 192,
            "midi": 61,
            "name": "C#4",
            "ticks": 192790,
            "time": 218.28547338541668,
            "velocity": 0.3937007874015748
          },
          {
            "duration": 0.10869550000001027,
            "durationTicks": 96,
            "midi": 65,
            "name": "F4",
            "ticks": 192790,
            "time": 218.28547338541668,
            "velocity": 0.3937007874015748
          },
          {
            "duration": 0.10869550000001027,
            "durationTicks": 96,
            "midi": 25,
            "name": "C#1",
            "ticks": 192790,
            "time": 218.28547338541668,
            "velocity": 0.3937007874015748
          },
          {
            "duration": 0.21739099999999212,
            "durationTicks": 192,
            "midi": 56,
            "name": "G#3",
            "ticks": 192790,
            "time": 218.28547338541668,
            "velocity": 0.3937007874015748
          },
          {
            "duration": 0.21739099999999212,
            "durationTicks": 192,
            "midi": 78,
            "name": "F#5",
            "ticks": 192790,
            "time": 218.28547338541668,
            "velocity": 0.3937007874015748
          },
          {
            "duration": 0.10869549999998185,
            "durationTicks": 96,
            "midi": 49,
            "name": "C#3",
            "ticks": 192886,
            "time": 218.3941688854167,
            "velocity": 0.3937007874015748
          },
          {
            "duration": 0.10869549999998185,
            "durationTicks": 96,
            "midi": 37,
            "name": "C#2",
            "ticks": 192886,
            "time": 218.3941688854167,
            "velocity": 0.3937007874015748
          },
          {
            "duration": 0.10869549999998185,
            "durationTicks": 96,
            "midi": 68,
            "name": "G#4",
            "ticks": 192886,
            "time": 218.3941688854167,
            "velocity": 0.3937007874015748
          },
          {
            "duration": 0.21739099999999212,
            "durationTicks": 192,
            "midi": 77,
            "name": "F5",
            "ticks": 192982,
            "time": 218.50286438541667,
            "velocity": 0.3937007874015748
          },
          {
            "duration": 0.21739099999999212,
            "durationTicks": 192,
            "midi": 80,
            "name": "G#5",
            "ticks": 192982,
            "time": 218.50286438541667,
            "velocity": 0.3937007874015748
          },
          {
            "duration": 0.21739099999999212,
            "durationTicks": 192,
            "midi": 56,
            "name": "G#3",
            "ticks": 192982,
            "time": 218.50286438541667,
            "velocity": 0.3937007874015748
          },
          {
            "duration": 0.21739099999999212,
            "durationTicks": 192,
            "midi": 65,
            "name": "F4",
            "ticks": 192982,
            "time": 218.50286438541667,
            "velocity": 0.3937007874015748
          },
          {
            "duration": 0.21739099999999212,
            "durationTicks": 192,
            "midi": 61,
            "name": "C#4",
            "ticks": 192982,
            "time": 218.50286438541667,
            "velocity": 0.3937007874015748
          },
          {
            "duration": 0.10869550000001027,
            "durationTicks": 96,
            "midi": 35,
            "name": "B1",
            "ticks": 192982,
            "time": 218.50286438541667,
            "velocity": 0.3937007874015748
          },
          {
            "duration": 0.10869550000001027,
            "durationTicks": 96,
            "midi": 47,
            "name": "B2",
            "ticks": 192982,
            "time": 218.50286438541667,
            "velocity": 0.3937007874015748
          },
          {
            "duration": 0.21739099999999212,
            "durationTicks": 192,
            "midi": 53,
            "name": "F3",
            "ticks": 192982,
            "time": 218.50286438541667,
            "velocity": 0.3937007874015748
          },
          {
            "duration": 0.21739099999999212,
            "durationTicks": 192,
            "midi": 68,
            "name": "G#4",
            "ticks": 192982,
            "time": 218.50286438541667,
            "velocity": 0.3937007874015748
          },
          {
            "duration": 0.10869550000001027,
            "durationTicks": 96,
            "midi": 73,
            "name": "C#5",
            "ticks": 192982,
            "time": 218.50286438541667,
            "velocity": 0.3937007874015748
          },
          {
            "duration": 0.10869549999998185,
            "durationTicks": 96,
            "midi": 37,
            "name": "C#2",
            "ticks": 193078,
            "time": 218.61155988541668,
            "velocity": 0.3937007874015748
          },
          {
            "duration": 0.10869549999998185,
            "durationTicks": 96,
            "midi": 77,
            "name": "F5",
            "ticks": 193078,
            "time": 218.61155988541668,
            "velocity": 0.3937007874015748
          },
          {
            "duration": 0.10869549999998185,
            "durationTicks": 96,
            "midi": 49,
            "name": "C#3",
            "ticks": 193078,
            "time": 218.61155988541668,
            "velocity": 0.3937007874015748
          },
          {
            "duration": 0.21739100000002054,
            "durationTicks": 192,
            "midi": 66,
            "name": "F#4",
            "ticks": 193174,
            "time": 218.72025538541666,
            "velocity": 0.3937007874015748
          },
          {
            "duration": 0.10869550000001027,
            "durationTicks": 96,
            "midi": 49,
            "name": "C#3",
            "ticks": 193174,
            "time": 218.72025538541666,
            "velocity": 0.3937007874015748
          },
          {
            "duration": 0.10869550000001027,
            "durationTicks": 96,
            "midi": 37,
            "name": "C#2",
            "ticks": 193174,
            "time": 218.72025538541666,
            "velocity": 0.3937007874015748
          },
          {
            "duration": 0.21739100000002054,
            "durationTicks": 192,
            "midi": 53,
            "name": "F3",
            "ticks": 193174,
            "time": 218.72025538541666,
            "velocity": 0.3937007874015748
          },
          {
            "duration": 0.21739100000002054,
            "durationTicks": 192,
            "midi": 34,
            "name": "A#1",
            "ticks": 193174,
            "time": 218.72025538541666,
            "velocity": 0.3937007874015748
          },
          {
            "duration": 0.21739100000002054,
            "durationTicks": 192,
            "midi": 56,
            "name": "G#3",
            "ticks": 193174,
            "time": 218.72025538541666,
            "velocity": 0.3937007874015748
          },
          {
            "duration": 0.10869550000001027,
            "durationTicks": 96,
            "midi": 25,
            "name": "C#1",
            "ticks": 193174,
            "time": 218.72025538541666,
            "velocity": 0.3937007874015748
          },
          {
            "duration": 0.21739100000002054,
            "durationTicks": 192,
            "midi": 61,
            "name": "C#4",
            "ticks": 193174,
            "time": 218.72025538541666,
            "velocity": 0.3937007874015748
          },
          {
            "duration": 0.21739100000002054,
            "durationTicks": 192,
            "midi": 82,
            "name": "A#5",
            "ticks": 193174,
            "time": 218.72025538541666,
            "velocity": 0.3937007874015748
          },
          {
            "duration": 0.21739100000002054,
            "durationTicks": 192,
            "midi": 78,
            "name": "F#5",
            "ticks": 193174,
            "time": 218.72025538541666,
            "velocity": 0.3937007874015748
          },
          {
            "duration": 0.21739100000002054,
            "durationTicks": 192,
            "midi": 70,
            "name": "A#4",
            "ticks": 193174,
            "time": 218.72025538541666,
            "velocity": 0.3937007874015748
          },
          {
            "duration": 0.10869550000001027,
            "durationTicks": 96,
            "midi": 53,
            "name": "F3",
            "ticks": 193270,
            "time": 218.82895088541667,
            "velocity": 0.3937007874015748
          },
          {
            "duration": 0.10869549999998185,
            "durationTicks": 96,
            "midi": 37,
            "name": "C#2",
            "ticks": 193366,
            "time": 218.93764638541668,
            "velocity": 0.3937007874015748
          },
          {
            "duration": 0.21739099999999212,
            "durationTicks": 192,
            "midi": 53,
            "name": "F3",
            "ticks": 193366,
            "time": 218.93764638541668,
            "velocity": 0.3937007874015748
          },
          {
            "duration": 0.10869549999998185,
            "durationTicks": 96,
            "midi": 49,
            "name": "C#3",
            "ticks": 193366,
            "time": 218.93764638541668,
            "velocity": 0.3937007874015748
          },
          {
            "duration": 0.10869549999998185,
            "durationTicks": 96,
            "midi": 56,
            "name": "G#3",
            "ticks": 193366,
            "time": 218.93764638541668,
            "velocity": 0.3937007874015748
          },
          {
            "duration": 0.21739099999999212,
            "durationTicks": 192,
            "midi": 61,
            "name": "C#4",
            "ticks": 193366,
            "time": 218.93764638541668,
            "velocity": 0.3937007874015748
          },
          {
            "duration": 0.21739099999999212,
            "durationTicks": 192,
            "midi": 56,
            "name": "G#3",
            "ticks": 193366,
            "time": 218.93764638541668,
            "velocity": 0.3937007874015748
          },
          {
            "duration": 0.10869550000001027,
            "durationTicks": 96,
            "midi": 61,
            "name": "C#4",
            "ticks": 193462,
            "time": 219.04634188541667,
            "velocity": 0.3937007874015748
          },
          {
            "duration": 0.10869550000001027,
            "durationTicks": 96,
            "midi": 37,
            "name": "C#2",
            "ticks": 193462,
            "time": 219.04634188541667,
            "velocity": 0.3937007874015748
          },
          {
            "duration": 0.10869550000001027,
            "durationTicks": 96,
            "midi": 49,
            "name": "C#3",
            "ticks": 193462,
            "time": 219.04634188541667,
            "velocity": 0.3937007874015748
          },
          {
            "duration": 0.21739099999999212,
            "durationTicks": 192,
            "midi": 77,
            "name": "F5",
            "ticks": 193558,
            "time": 219.15503738541668,
            "velocity": 0.3937007874015748
          },
          {
            "duration": 0.21739099999999212,
            "durationTicks": 192,
            "midi": 68,
            "name": "G#4",
            "ticks": 193558,
            "time": 219.15503738541668,
            "velocity": 0.3937007874015748
          },
          {
            "duration": 0.10869550000001027,
            "durationTicks": 96,
            "midi": 65,
            "name": "F4",
            "ticks": 193558,
            "time": 219.15503738541668,
            "velocity": 0.3937007874015748
          },
          {
            "duration": 0.21739099999999212,
            "durationTicks": 192,
            "midi": 56,
            "name": "G#3",
            "ticks": 193558,
            "time": 219.15503738541668,
            "velocity": 0.3937007874015748
          },
          {
            "duration": 0.21739099999999212,
            "durationTicks": 192,
            "midi": 34,
            "name": "A#1",
            "ticks": 193558,
            "time": 219.15503738541668,
            "velocity": 0.3937007874015748
          },
          {
            "duration": 0.21739099999999212,
            "durationTicks": 192,
            "midi": 61,
            "name": "C#4",
            "ticks": 193558,
            "time": 219.15503738541668,
            "velocity": 0.3937007874015748
          },
          {
            "duration": 0.21739099999999212,
            "durationTicks": 192,
            "midi": 80,
            "name": "G#5",
            "ticks": 193558,
            "time": 219.15503738541668,
            "velocity": 0.3937007874015748
          },
          {
            "duration": 0.21739099999999212,
            "durationTicks": 192,
            "midi": 53,
            "name": "F3",
            "ticks": 193558,
            "time": 219.15503738541668,
            "velocity": 0.3937007874015748
          },
          {
            "duration": 0.21739099999999212,
            "durationTicks": 192,
            "midi": 65,
            "name": "F4",
            "ticks": 193558,
            "time": 219.15503738541668,
            "velocity": 0.3937007874015748
          },
          {
            "duration": 0.10869550000001027,
            "durationTicks": 96,
            "midi": 25,
            "name": "C#1",
            "ticks": 193558,
            "time": 219.15503738541668,
            "velocity": 0.3937007874015748
          },
          {
            "duration": 0.10869550000001027,
            "durationTicks": 96,
            "midi": 37,
            "name": "C#2",
            "ticks": 193558,
            "time": 219.15503738541668,
            "velocity": 0.3937007874015748
          },
          {
            "duration": 0.10869549999998185,
            "durationTicks": 96,
            "midi": 49,
            "name": "C#3",
            "ticks": 193654,
            "time": 219.2637328854167,
            "velocity": 0.3937007874015748
          },
          {
            "duration": 0.10869549999998185,
            "durationTicks": 96,
            "midi": 68,
            "name": "G#4",
            "ticks": 193654,
            "time": 219.2637328854167,
            "velocity": 0.3937007874015748
          },
          {
            "duration": 0.10869549999998185,
            "durationTicks": 96,
            "midi": 37,
            "name": "C#2",
            "ticks": 193654,
            "time": 219.2637328854167,
            "velocity": 0.3937007874015748
          },
          {
            "duration": 0.10869550000001027,
            "durationTicks": 96,
            "midi": 73,
            "name": "C#5",
            "ticks": 193750,
            "time": 219.37242838541667,
            "velocity": 0.3937007874015748
          },
          {
            "duration": 0.21739100000002054,
            "durationTicks": 192,
            "midi": 82,
            "name": "A#5",
            "ticks": 193750,
            "time": 219.37242838541667,
            "velocity": 0.3937007874015748
          },
          {
            "duration": 0.10869550000001027,
            "durationTicks": 96,
            "midi": 35,
            "name": "B1",
            "ticks": 193750,
            "time": 219.37242838541667,
            "velocity": 0.3937007874015748
          },
          {
            "duration": 0.21739100000002054,
            "durationTicks": 192,
            "midi": 78,
            "name": "F#5",
            "ticks": 193750,
            "time": 219.37242838541667,
            "velocity": 0.3937007874015748
          },
          {
            "duration": 0.21739100000002054,
            "durationTicks": 192,
            "midi": 66,
            "name": "F#4",
            "ticks": 193750,
            "time": 219.37242838541667,
            "velocity": 0.3937007874015748
          },
          {
            "duration": 0.21739100000002054,
            "durationTicks": 192,
            "midi": 70,
            "name": "A#4",
            "ticks": 193750,
            "time": 219.37242838541667,
            "velocity": 0.3937007874015748
          },
          {
            "duration": 0.21739100000002054,
            "durationTicks": 192,
            "midi": 53,
            "name": "F3",
            "ticks": 193750,
            "time": 219.37242838541667,
            "velocity": 0.3937007874015748
          },
          {
            "duration": 0.10869550000001027,
            "durationTicks": 96,
            "midi": 47,
            "name": "B2",
            "ticks": 193750,
            "time": 219.37242838541667,
            "velocity": 0.3937007874015748
          },
          {
            "duration": 0.21739100000002054,
            "durationTicks": 192,
            "midi": 56,
            "name": "G#3",
            "ticks": 193750,
            "time": 219.37242838541667,
            "velocity": 0.3937007874015748
          },
          {
            "duration": 0.21739100000002054,
            "durationTicks": 192,
            "midi": 61,
            "name": "C#4",
            "ticks": 193750,
            "time": 219.37242838541667,
            "velocity": 0.3937007874015748
          },
          {
            "duration": 0.21739100000002054,
            "durationTicks": 192,
            "midi": 34,
            "name": "A#1",
            "ticks": 193750,
            "time": 219.37242838541667,
            "velocity": 0.3937007874015748
          },
          {
            "duration": 0.10869550000001027,
            "durationTicks": 96,
            "midi": 37,
            "name": "C#2",
            "ticks": 193846,
            "time": 219.48112388541668,
            "velocity": 0.3937007874015748
          },
          {
            "duration": 0.10869550000001027,
            "durationTicks": 96,
            "midi": 49,
            "name": "C#3",
            "ticks": 193846,
            "time": 219.48112388541668,
            "velocity": 0.3937007874015748
          },
          {
            "duration": 0.10869550000001027,
            "durationTicks": 96,
            "midi": 77,
            "name": "F5",
            "ticks": 193846,
            "time": 219.48112388541668,
            "velocity": 0.3937007874015748
          },
          {
            "duration": 0.21739099999999212,
            "durationTicks": 192,
            "midi": 77,
            "name": "F5",
            "ticks": 193942,
            "time": 219.5898193854167,
            "velocity": 0.3937007874015748
          },
          {
            "duration": 0.21739099999999212,
            "durationTicks": 192,
            "midi": 54,
            "name": "F#3",
            "ticks": 193942,
            "time": 219.5898193854167,
            "velocity": 0.3937007874015748
          },
          {
            "duration": 0.10869549999998185,
            "durationTicks": 96,
            "midi": 27,
            "name": "D#1",
            "ticks": 193942,
            "time": 219.5898193854167,
            "velocity": 0.3937007874015748
          },
          {
            "duration": 0.21739099999999212,
            "durationTicks": 192,
            "midi": 63,
            "name": "D#4",
            "ticks": 193942,
            "time": 219.5898193854167,
            "velocity": 0.3937007874015748
          },
          {
            "duration": 0.10869549999998185,
            "durationTicks": 96,
            "midi": 39,
            "name": "D#2",
            "ticks": 193942,
            "time": 219.5898193854167,
            "velocity": 0.3937007874015748
          },
          {
            "duration": 0.21739099999999212,
            "durationTicks": 192,
            "midi": 80,
            "name": "G#5",
            "ticks": 193942,
            "time": 219.5898193854167,
            "velocity": 0.3937007874015748
          },
          {
            "duration": 0.21739099999999212,
            "durationTicks": 192,
            "midi": 58,
            "name": "A#3",
            "ticks": 193942,
            "time": 219.5898193854167,
            "velocity": 0.3937007874015748
          },
          {
            "duration": 0.10869549999998185,
            "durationTicks": 96,
            "midi": 51,
            "name": "D#3",
            "ticks": 193942,
            "time": 219.5898193854167,
            "velocity": 0.3937007874015748
          },
          {
            "duration": 0.21739099999999212,
            "durationTicks": 192,
            "midi": 34,
            "name": "A#1",
            "ticks": 193942,
            "time": 219.5898193854167,
            "velocity": 0.3937007874015748
          },
          {
            "duration": 0.21739099999999212,
            "durationTicks": 192,
            "midi": 65,
            "name": "F4",
            "ticks": 193942,
            "time": 219.5898193854167,
            "velocity": 0.3937007874015748
          },
          {
            "duration": 0.21739099999999212,
            "durationTicks": 192,
            "midi": 68,
            "name": "G#4",
            "ticks": 193942,
            "time": 219.5898193854167,
            "velocity": 0.3937007874015748
          },
          {
            "duration": 0.10869550000001027,
            "durationTicks": 96,
            "midi": 54,
            "name": "F#3",
            "ticks": 194038,
            "time": 219.69851488541667,
            "velocity": 0.3937007874015748
          },
          {
            "duration": 0.10869549999998185,
            "durationTicks": 96,
            "midi": 39,
            "name": "D#2",
            "ticks": 194134,
            "time": 219.80721038541668,
            "velocity": 0.3937007874015748
          },
          {
            "duration": 0.21739099999999212,
            "durationTicks": 192,
            "midi": 78,
            "name": "F#5",
            "ticks": 194134,
            "time": 219.80721038541668,
            "velocity": 0.3937007874015748
          },
          {
            "duration": 0.10869549999998185,
            "durationTicks": 96,
            "midi": 51,
            "name": "D#3",
            "ticks": 194134,
            "time": 219.80721038541668,
            "velocity": 0.3937007874015748
          },
          {
            "duration": 0.10869549999998185,
            "durationTicks": 96,
            "midi": 58,
            "name": "A#3",
            "ticks": 194134,
            "time": 219.80721038541668,
            "velocity": 0.3937007874015748
          },
          {
            "duration": 0.21739099999999212,
            "durationTicks": 192,
            "midi": 54,
            "name": "F#3",
            "ticks": 194134,
            "time": 219.80721038541668,
            "velocity": 0.3937007874015748
          },
          {
            "duration": 0.21739099999999212,
            "durationTicks": 192,
            "midi": 63,
            "name": "D#4",
            "ticks": 194134,
            "time": 219.80721038541668,
            "velocity": 0.3937007874015748
          },
          {
            "duration": 0.21739099999999212,
            "durationTicks": 192,
            "midi": 75,
            "name": "D#5",
            "ticks": 194134,
            "time": 219.80721038541668,
            "velocity": 0.3937007874015748
          },
          {
            "duration": 0.21739099999999212,
            "durationTicks": 192,
            "midi": 58,
            "name": "A#3",
            "ticks": 194134,
            "time": 219.80721038541668,
            "velocity": 0.3937007874015748
          },
          {
            "duration": 0.21739099999999212,
            "durationTicks": 192,
            "midi": 63,
            "name": "D#4",
            "ticks": 194134,
            "time": 219.80721038541668,
            "velocity": 0.3937007874015748
          },
          {
            "duration": 0.21739099999999212,
            "durationTicks": 192,
            "midi": 66,
            "name": "F#4",
            "ticks": 194134,
            "time": 219.80721038541668,
            "velocity": 0.3937007874015748
          },
          {
            "duration": 0.10869550000001027,
            "durationTicks": 96,
            "midi": 63,
            "name": "D#4",
            "ticks": 194230,
            "time": 219.91590588541666,
            "velocity": 0.3937007874015748
          },
          {
            "duration": 0.10869550000001027,
            "durationTicks": 96,
            "midi": 39,
            "name": "D#2",
            "ticks": 194230,
            "time": 219.91590588541666,
            "velocity": 0.3937007874015748
          },
          {
            "duration": 0.10869550000001027,
            "durationTicks": 96,
            "midi": 51,
            "name": "D#3",
            "ticks": 194230,
            "time": 219.91590588541666,
            "velocity": 0.3937007874015748
          },
          {
            "duration": 0.21739099999999212,
            "durationTicks": 192,
            "midi": 61,
            "name": "C#4",
            "ticks": 194326,
            "time": 220.02460138541667,
            "velocity": 0.3937007874015748
          },
          {
            "duration": 0.10869550000001027,
            "durationTicks": 96,
            "midi": 39,
            "name": "D#2",
            "ticks": 194326,
            "time": 220.02460138541667,
            "velocity": 0.3937007874015748
          },
          {
            "duration": 0.10869550000001027,
            "durationTicks": 96,
            "midi": 66,
            "name": "F#4",
            "ticks": 194326,
            "time": 220.02460138541667,
            "velocity": 0.3937007874015748
          },
          {
            "duration": 0.21739099999999212,
            "durationTicks": 192,
            "midi": 63,
            "name": "D#4",
            "ticks": 194326,
            "time": 220.02460138541667,
            "velocity": 0.3937007874015748
          },
          {
            "duration": 0.21739099999999212,
            "durationTicks": 192,
            "midi": 34,
            "name": "A#1",
            "ticks": 194326,
            "time": 220.02460138541667,
            "velocity": 0.3937007874015748
          },
          {
            "duration": 0.21739099999999212,
            "durationTicks": 192,
            "midi": 77,
            "name": "F5",
            "ticks": 194326,
            "time": 220.02460138541667,
            "velocity": 0.3937007874015748
          },
          {
            "duration": 0.21739099999999212,
            "durationTicks": 192,
            "midi": 54,
            "name": "F#3",
            "ticks": 194326,
            "time": 220.02460138541667,
            "velocity": 0.3937007874015748
          },
          {
            "duration": 0.21739099999999212,
            "durationTicks": 192,
            "midi": 58,
            "name": "A#3",
            "ticks": 194326,
            "time": 220.02460138541667,
            "velocity": 0.3937007874015748
          },
          {
            "duration": 0.21739099999999212,
            "durationTicks": 192,
            "midi": 73,
            "name": "C#5",
            "ticks": 194326,
            "time": 220.02460138541667,
            "velocity": 0.3937007874015748
          },
          {
            "duration": 0.21739099999999212,
            "durationTicks": 192,
            "midi": 65,
            "name": "F4",
            "ticks": 194326,
            "time": 220.02460138541667,
            "velocity": 0.3937007874015748
          },
          {
            "duration": 0.10869550000001027,
            "durationTicks": 96,
            "midi": 27,
            "name": "D#1",
            "ticks": 194326,
            "time": 220.02460138541667,
            "velocity": 0.3937007874015748
          },
          {
            "duration": 0.10869549999998185,
            "durationTicks": 96,
            "midi": 70,
            "name": "A#4",
            "ticks": 194422,
            "time": 220.13329688541668,
            "velocity": 0.3937007874015748
          },
          {
            "duration": 0.10869549999998185,
            "durationTicks": 96,
            "midi": 39,
            "name": "D#2",
            "ticks": 194422,
            "time": 220.13329688541668,
            "velocity": 0.3937007874015748
          },
          {
            "duration": 0.10869549999998185,
            "durationTicks": 96,
            "midi": 51,
            "name": "D#3",
            "ticks": 194422,
            "time": 220.13329688541668,
            "velocity": 0.3937007874015748
          },
          {
            "duration": 0.21739100000002054,
            "durationTicks": 192,
            "midi": 68,
            "name": "G#4",
            "ticks": 194518,
            "time": 220.24199238541667,
            "velocity": 0.3937007874015748
          },
          {
            "duration": 0.21739100000002054,
            "durationTicks": 192,
            "midi": 56,
            "name": "G#3",
            "ticks": 194518,
            "time": 220.24199238541667,
            "velocity": 0.3937007874015748
          },
          {
            "duration": 0.10869550000001027,
            "durationTicks": 96,
            "midi": 37,
            "name": "C#2",
            "ticks": 194518,
            "time": 220.24199238541667,
            "velocity": 0.3937007874015748
          },
          {
            "duration": 0.10869550000001027,
            "durationTicks": 96,
            "midi": 49,
            "name": "C#3",
            "ticks": 194518,
            "time": 220.24199238541667,
            "velocity": 0.3937007874015748
          },
          {
            "duration": 0.21739100000002054,
            "durationTicks": 192,
            "midi": 63,
            "name": "D#4",
            "ticks": 194518,
            "time": 220.24199238541667,
            "velocity": 0.3937007874015748
          },
          {
            "duration": 0.21739100000002054,
            "durationTicks": 192,
            "midi": 73,
            "name": "C#5",
            "ticks": 194518,
            "time": 220.24199238541667,
            "velocity": 0.3937007874015748
          },
          {
            "duration": 0.21739100000002054,
            "durationTicks": 192,
            "midi": 58,
            "name": "A#3",
            "ticks": 194518,
            "time": 220.24199238541667,
            "velocity": 0.3937007874015748
          },
          {
            "duration": 0.21739100000002054,
            "durationTicks": 192,
            "midi": 61,
            "name": "C#4",
            "ticks": 194518,
            "time": 220.24199238541667,
            "velocity": 0.3937007874015748
          },
          {
            "duration": 0.21739100000002054,
            "durationTicks": 192,
            "midi": 54,
            "name": "F#3",
            "ticks": 194518,
            "time": 220.24199238541667,
            "velocity": 0.3937007874015748
          },
          {
            "duration": 0.10869550000001027,
            "durationTicks": 96,
            "midi": 75,
            "name": "D#5",
            "ticks": 194518,
            "time": 220.24199238541667,
            "velocity": 0.3937007874015748
          },
          {
            "duration": 0.10869550000001027,
            "durationTicks": 96,
            "midi": 78,
            "name": "F#5",
            "ticks": 194614,
            "time": 220.35068788541668,
            "velocity": 0.3937007874015748
          },
          {
            "duration": 0.10869550000001027,
            "durationTicks": 96,
            "midi": 51,
            "name": "D#3",
            "ticks": 194614,
            "time": 220.35068788541668,
            "velocity": 0.3937007874015748
          },
          {
            "duration": 0.10869550000001027,
            "durationTicks": 96,
            "midi": 39,
            "name": "D#2",
            "ticks": 194614,
            "time": 220.35068788541668,
            "velocity": 0.3937007874015748
          },
          {
            "duration": 0.10869549999998185,
            "durationTicks": 96,
            "midi": 27,
            "name": "D#1",
            "ticks": 194710,
            "time": 220.4593833854167,
            "velocity": 0.3937007874015748
          },
          {
            "duration": 0.21739099999999212,
            "durationTicks": 192,
            "midi": 34,
            "name": "A#1",
            "ticks": 194710,
            "time": 220.4593833854167,
            "velocity": 0.3937007874015748
          },
          {
            "duration": 0.10869549999998185,
            "durationTicks": 96,
            "midi": 39,
            "name": "D#2",
            "ticks": 194710,
            "time": 220.4593833854167,
            "velocity": 0.3937007874015748
          },
          {
            "duration": 0.21739099999999212,
            "durationTicks": 192,
            "midi": 58,
            "name": "A#3",
            "ticks": 194710,
            "time": 220.4593833854167,
            "velocity": 0.3937007874015748
          },
          {
            "duration": 0.21739099999999212,
            "durationTicks": 192,
            "midi": 75,
            "name": "D#5",
            "ticks": 194710,
            "time": 220.4593833854167,
            "velocity": 0.3937007874015748
          },
          {
            "duration": 0.21739099999999212,
            "durationTicks": 192,
            "midi": 63,
            "name": "D#4",
            "ticks": 194710,
            "time": 220.4593833854167,
            "velocity": 0.3937007874015748
          },
          {
            "duration": 0.10869549999998185,
            "durationTicks": 96,
            "midi": 51,
            "name": "D#3",
            "ticks": 194710,
            "time": 220.4593833854167,
            "velocity": 0.3937007874015748
          },
          {
            "duration": 0.21739099999999212,
            "durationTicks": 192,
            "midi": 70,
            "name": "A#4",
            "ticks": 194710,
            "time": 220.4593833854167,
            "velocity": 0.3937007874015748
          },
          {
            "duration": 0.21739099999999212,
            "durationTicks": 192,
            "midi": 54,
            "name": "F#3",
            "ticks": 194710,
            "time": 220.4593833854167,
            "velocity": 0.3937007874015748
          },
          {
            "duration": 0.21739099999999212,
            "durationTicks": 192,
            "midi": 58,
            "name": "A#3",
            "ticks": 194710,
            "time": 220.4593833854167,
            "velocity": 0.3937007874015748
          },
          {
            "duration": 0.21739099999999212,
            "durationTicks": 192,
            "midi": 63,
            "name": "D#4",
            "ticks": 194710,
            "time": 220.4593833854167,
            "velocity": 0.3937007874015748
          },
          {
            "duration": 0.10869550000001027,
            "durationTicks": 96,
            "midi": 54,
            "name": "F#3",
            "ticks": 194806,
            "time": 220.56807888541667,
            "velocity": 0.3937007874015748
          },
          {
            "duration": 0.10869550000001027,
            "durationTicks": 96,
            "midi": 51,
            "name": "D#3",
            "ticks": 194902,
            "time": 220.67677438541668,
            "velocity": 0.3937007874015748
          },
          {
            "duration": 0.21739099999999212,
            "durationTicks": 192,
            "midi": 54,
            "name": "F#3",
            "ticks": 194902,
            "time": 220.67677438541668,
            "velocity": 0.3937007874015748
          },
          {
            "duration": 0.10869550000001027,
            "durationTicks": 96,
            "midi": 58,
            "name": "A#3",
            "ticks": 194902,
            "time": 220.67677438541668,
            "velocity": 0.3937007874015748
          },
          {
            "duration": 0.21739099999999212,
            "durationTicks": 192,
            "midi": 58,
            "name": "A#3",
            "ticks": 194902,
            "time": 220.67677438541668,
            "velocity": 0.3937007874015748
          },
          {
            "duration": 0.10869550000001027,
            "durationTicks": 96,
            "midi": 39,
            "name": "D#2",
            "ticks": 194902,
            "time": 220.67677438541668,
            "velocity": 0.3937007874015748
          },
          {
            "duration": 0.21739099999999212,
            "durationTicks": 192,
            "midi": 63,
            "name": "D#4",
            "ticks": 194902,
            "time": 220.67677438541668,
            "velocity": 0.3937007874015748
          },
          {
            "duration": 0.10869549999998185,
            "durationTicks": 96,
            "midi": 39,
            "name": "D#2",
            "ticks": 194998,
            "time": 220.7854698854167,
            "velocity": 0.3937007874015748
          },
          {
            "duration": 0.10869549999998185,
            "durationTicks": 96,
            "midi": 63,
            "name": "D#4",
            "ticks": 194998,
            "time": 220.7854698854167,
            "velocity": 0.3937007874015748
          },
          {
            "duration": 0.10869549999998185,
            "durationTicks": 96,
            "midi": 51,
            "name": "D#3",
            "ticks": 194998,
            "time": 220.7854698854167,
            "velocity": 0.3937007874015748
          },
          {
            "duration": 0.10869550000001027,
            "durationTicks": 96,
            "midi": 27,
            "name": "D#1",
            "ticks": 195094,
            "time": 220.89416538541667,
            "velocity": 0.3937007874015748
          },
          {
            "duration": 0.10869550000001027,
            "durationTicks": 96,
            "midi": 66,
            "name": "F#4",
            "ticks": 195094,
            "time": 220.89416538541667,
            "velocity": 0.3937007874015748
          },
          {
            "duration": 0.21739099999999212,
            "durationTicks": 192,
            "midi": 73,
            "name": "C#5",
            "ticks": 195094,
            "time": 220.89416538541667,
            "velocity": 0.3937007874015748
          },
          {
            "duration": 0.21739099999999212,
            "durationTicks": 192,
            "midi": 58,
            "name": "A#3",
            "ticks": 195094,
            "time": 220.89416538541667,
            "velocity": 0.3937007874015748
          },
          {
            "duration": 0.21739099999999212,
            "durationTicks": 192,
            "midi": 68,
            "name": "G#4",
            "ticks": 195094,
            "time": 220.89416538541667,
            "velocity": 0.3937007874015748
          },
          {
            "duration": 0.21739099999999212,
            "durationTicks": 192,
            "midi": 34,
            "name": "A#1",
            "ticks": 195094,
            "time": 220.89416538541667,
            "velocity": 0.3937007874015748
          },
          {
            "duration": 0.10869550000001027,
            "durationTicks": 96,
            "midi": 39,
            "name": "D#2",
            "ticks": 195094,
            "time": 220.89416538541667,
            "velocity": 0.3937007874015748
          },
          {
            "duration": 0.21739099999999212,
            "durationTicks": 192,
            "midi": 56,
            "name": "G#3",
            "ticks": 195094,
            "time": 220.89416538541667,
            "velocity": 0.3937007874015748
          },
          {
            "duration": 0.21739099999999212,
            "durationTicks": 192,
            "midi": 63,
            "name": "D#4",
            "ticks": 195094,
            "time": 220.89416538541667,
            "velocity": 0.3937007874015748
          },
          {
            "duration": 0.21739099999999212,
            "durationTicks": 192,
            "midi": 61,
            "name": "C#4",
            "ticks": 195094,
            "time": 220.89416538541667,
            "velocity": 0.3937007874015748
          },
          {
            "duration": 0.21739099999999212,
            "durationTicks": 192,
            "midi": 54,
            "name": "F#3",
            "ticks": 195094,
            "time": 220.89416538541667,
            "velocity": 0.3937007874015748
          },
          {
            "duration": 0.10869549999998185,
            "durationTicks": 96,
            "midi": 70,
            "name": "A#4",
            "ticks": 195190,
            "time": 221.00286088541668,
            "velocity": 0.3937007874015748
          },
          {
            "duration": 0.10869549999998185,
            "durationTicks": 96,
            "midi": 39,
            "name": "D#2",
            "ticks": 195190,
            "time": 221.00286088541668,
            "velocity": 0.3937007874015748
          },
          {
            "duration": 0.10869549999998185,
            "durationTicks": 96,
            "midi": 51,
            "name": "D#3",
            "ticks": 195190,
            "time": 221.00286088541668,
            "velocity": 0.3937007874015748
          },
          {
            "duration": 0.10869550000001027,
            "durationTicks": 96,
            "midi": 75,
            "name": "D#5",
            "ticks": 195286,
            "time": 221.11155638541666,
            "velocity": 0.3937007874015748
          },
          {
            "duration": 0.21739100000002054,
            "durationTicks": 192,
            "midi": 75,
            "name": "D#5",
            "ticks": 195286,
            "time": 221.11155638541666,
            "velocity": 0.3937007874015748
          },
          {
            "duration": 0.10869550000001027,
            "durationTicks": 96,
            "midi": 37,
            "name": "C#2",
            "ticks": 195286,
            "time": 221.11155638541666,
            "velocity": 0.3937007874015748
          },
          {
            "duration": 0.21739100000002054,
            "durationTicks": 192,
            "midi": 63,
            "name": "D#4",
            "ticks": 195286,
            "time": 221.11155638541666,
            "velocity": 0.3937007874015748
          },
          {
            "duration": 0.21739100000002054,
            "durationTicks": 192,
            "midi": 63,
            "name": "D#4",
            "ticks": 195286,
            "time": 221.11155638541666,
            "velocity": 0.3937007874015748
          },
          {
            "duration": 0.21739100000002054,
            "durationTicks": 192,
            "midi": 58,
            "name": "A#3",
            "ticks": 195286,
            "time": 221.11155638541666,
            "velocity": 0.3937007874015748
          },
          {
            "duration": 0.21739100000002054,
            "durationTicks": 192,
            "midi": 70,
            "name": "A#4",
            "ticks": 195286,
            "time": 221.11155638541666,
            "velocity": 0.3937007874015748
          },
          {
            "duration": 0.21739100000002054,
            "durationTicks": 192,
            "midi": 54,
            "name": "F#3",
            "ticks": 195286,
            "time": 221.11155638541666,
            "velocity": 0.3937007874015748
          },
          {
            "duration": 0.10869550000001027,
            "durationTicks": 96,
            "midi": 49,
            "name": "C#3",
            "ticks": 195286,
            "time": 221.11155638541666,
            "velocity": 0.3937007874015748
          },
          {
            "duration": 0.21739100000002054,
            "durationTicks": 192,
            "midi": 58,
            "name": "A#3",
            "ticks": 195286,
            "time": 221.11155638541666,
            "velocity": 0.3937007874015748
          },
          {
            "duration": 0.10869550000001027,
            "durationTicks": 96,
            "midi": 39,
            "name": "D#2",
            "ticks": 195382,
            "time": 221.22025188541667,
            "velocity": 0.3937007874015748
          },
          {
            "duration": 0.10869550000001027,
            "durationTicks": 96,
            "midi": 78,
            "name": "F#5",
            "ticks": 195382,
            "time": 221.22025188541667,
            "velocity": 0.3937007874015748
          },
          {
            "duration": 0.10869550000001027,
            "durationTicks": 96,
            "midi": 51,
            "name": "D#3",
            "ticks": 195382,
            "time": 221.22025188541667,
            "velocity": 0.3937007874015748
          },
          {
            "duration": 0.21739099999999212,
            "durationTicks": 192,
            "midi": 63,
            "name": "D#4",
            "ticks": 195478,
            "time": 221.32894738541668,
            "velocity": 0.3937007874015748
          },
          {
            "duration": 0.10869549999998185,
            "durationTicks": 96,
            "midi": 27,
            "name": "D#1",
            "ticks": 195478,
            "time": 221.32894738541668,
            "velocity": 0.3937007874015748
          },
          {
            "duration": 0.10869549999998185,
            "durationTicks": 96,
            "midi": 39,
            "name": "D#2",
            "ticks": 195478,
            "time": 221.32894738541668,
            "velocity": 0.3937007874015748
          },
          {
            "duration": 0.21739099999999212,
            "durationTicks": 192,
            "midi": 34,
            "name": "A#1",
            "ticks": 195478,
            "time": 221.32894738541668,
            "velocity": 0.3937007874015748
          },
          {
            "duration": 0.21739099999999212,
            "durationTicks": 192,
            "midi": 73,
            "name": "C#5",
            "ticks": 195478,
            "time": 221.32894738541668,
            "velocity": 0.3937007874015748
          },
          {
            "duration": 0.21739099999999212,
            "durationTicks": 192,
            "midi": 61,
            "name": "C#4",
            "ticks": 195478,
            "time": 221.32894738541668,
            "velocity": 0.3937007874015748
          },
          {
            "duration": 0.10869549999998185,
            "durationTicks": 96,
            "midi": 51,
            "name": "D#3",
            "ticks": 195478,
            "time": 221.32894738541668,
            "velocity": 0.3937007874015748
          },
          {
            "duration": 0.21739099999999212,
            "durationTicks": 192,
            "midi": 65,
            "name": "F4",
            "ticks": 195478,
            "time": 221.32894738541668,
            "velocity": 0.3937007874015748
          },
          {
            "duration": 0.21739099999999212,
            "durationTicks": 192,
            "midi": 77,
            "name": "F5",
            "ticks": 195478,
            "time": 221.32894738541668,
            "velocity": 0.3937007874015748
          },
          {
            "duration": 0.21739099999999212,
            "durationTicks": 192,
            "midi": 58,
            "name": "A#3",
            "ticks": 195478,
            "time": 221.32894738541668,
            "velocity": 0.3937007874015748
          },
          {
            "duration": 0.21739099999999212,
            "durationTicks": 192,
            "midi": 54,
            "name": "F#3",
            "ticks": 195478,
            "time": 221.32894738541668,
            "velocity": 0.3937007874015748
          },
          {
            "duration": 0.10869550000001027,
            "durationTicks": 96,
            "midi": 54,
            "name": "F#3",
            "ticks": 195574,
            "time": 221.43764288541666,
            "velocity": 0.3937007874015748
          },
          {
            "duration": 0.10869550000001027,
            "durationTicks": 96,
            "midi": 51,
            "name": "D#3",
            "ticks": 195670,
            "time": 221.54633838541668,
            "velocity": 0.3937007874015748
          },
          {
            "duration": 0.10869550000001027,
            "durationTicks": 96,
            "midi": 39,
            "name": "D#2",
            "ticks": 195670,
            "time": 221.54633838541668,
            "velocity": 0.3937007874015748
          },
          {
            "duration": 0.21739099999999212,
            "durationTicks": 192,
            "midi": 78,
            "name": "F#5",
            "ticks": 195670,
            "time": 221.54633838541668,
            "velocity": 0.3937007874015748
          },
          {
            "duration": 0.21739099999999212,
            "durationTicks": 192,
            "midi": 54,
            "name": "F#3",
            "ticks": 195670,
            "time": 221.54633838541668,
            "velocity": 0.3937007874015748
          },
          {
            "duration": 0.10869550000001027,
            "durationTicks": 96,
            "midi": 58,
            "name": "A#3",
            "ticks": 195670,
            "time": 221.54633838541668,
            "velocity": 0.3937007874015748
          },
          {
            "duration": 0.21739099999999212,
            "durationTicks": 192,
            "midi": 66,
            "name": "F#4",
            "ticks": 195670,
            "time": 221.54633838541668,
            "velocity": 0.3937007874015748
          },
          {
            "duration": 0.21739099999999212,
            "durationTicks": 192,
            "midi": 63,
            "name": "D#4",
            "ticks": 195670,
            "time": 221.54633838541668,
            "velocity": 0.3937007874015748
          },
          {
            "duration": 0.21739099999999212,
            "durationTicks": 192,
            "midi": 63,
            "name": "D#4",
            "ticks": 195670,
            "time": 221.54633838541668,
            "velocity": 0.3937007874015748
          },
          {
            "duration": 0.21739099999999212,
            "durationTicks": 192,
            "midi": 75,
            "name": "D#5",
            "ticks": 195670,
            "time": 221.54633838541668,
            "velocity": 0.3937007874015748
          },
          {
            "duration": 0.21739099999999212,
            "durationTicks": 192,
            "midi": 58,
            "name": "A#3",
            "ticks": 195670,
            "time": 221.54633838541668,
            "velocity": 0.3937007874015748
          },
          {
            "duration": 0.10869549999998185,
            "durationTicks": 96,
            "midi": 63,
            "name": "D#4",
            "ticks": 195766,
            "time": 221.65503388541669,
            "velocity": 0.3937007874015748
          },
          {
            "duration": 0.10869549999998185,
            "durationTicks": 96,
            "midi": 39,
            "name": "D#2",
            "ticks": 195766,
            "time": 221.65503388541669,
            "velocity": 0.3937007874015748
          },
          {
            "duration": 0.10869549999998185,
            "durationTicks": 96,
            "midi": 51,
            "name": "D#3",
            "ticks": 195766,
            "time": 221.65503388541669,
            "velocity": 0.3937007874015748
          },
          {
            "duration": 0.21739100000002054,
            "durationTicks": 192,
            "midi": 54,
            "name": "F#3",
            "ticks": 195862,
            "time": 221.76372938541667,
            "velocity": 0.3937007874015748
          },
          {
            "duration": 0.10869550000001027,
            "durationTicks": 96,
            "midi": 27,
            "name": "D#1",
            "ticks": 195862,
            "time": 221.76372938541667,
            "velocity": 0.3937007874015748
          },
          {
            "duration": 0.21739100000002054,
            "durationTicks": 192,
            "midi": 58,
            "name": "A#3",
            "ticks": 195862,
            "time": 221.76372938541667,
            "velocity": 0.3937007874015748
          },
          {
            "duration": 0.21739100000002054,
            "durationTicks": 192,
            "midi": 77,
            "name": "F5",
            "ticks": 195862,
            "time": 221.76372938541667,
            "velocity": 0.3937007874015748
          },
          {
            "duration": 0.21739100000002054,
            "durationTicks": 192,
            "midi": 34,
            "name": "A#1",
            "ticks": 195862,
            "time": 221.76372938541667,
            "velocity": 0.3937007874015748
          },
          {
            "duration": 0.21739100000002054,
            "durationTicks": 192,
            "midi": 63,
            "name": "D#4",
            "ticks": 195862,
            "time": 221.76372938541667,
            "velocity": 0.3937007874015748
          },
          {
            "duration": 0.21739100000002054,
            "durationTicks": 192,
            "midi": 65,
            "name": "F4",
            "ticks": 195862,
            "time": 221.76372938541667,
            "velocity": 0.3937007874015748
          },
          {
            "duration": 0.10869550000001027,
            "durationTicks": 96,
            "midi": 66,
            "name": "F#4",
            "ticks": 195862,
            "time": 221.76372938541667,
            "velocity": 0.3937007874015748
          },
          {
            "duration": 0.10869550000001027,
            "durationTicks": 96,
            "midi": 39,
            "name": "D#2",
            "ticks": 195862,
            "time": 221.76372938541667,
            "velocity": 0.3937007874015748
          },
          {
            "duration": 0.21739100000002054,
            "durationTicks": 192,
            "midi": 68,
            "name": "G#4",
            "ticks": 195862,
            "time": 221.76372938541667,
            "velocity": 0.3937007874015748
          },
          {
            "duration": 0.21739100000002054,
            "durationTicks": 192,
            "midi": 80,
            "name": "G#5",
            "ticks": 195862,
            "time": 221.76372938541667,
            "velocity": 0.3937007874015748
          },
          {
            "duration": 0.10869550000001027,
            "durationTicks": 96,
            "midi": 70,
            "name": "A#4",
            "ticks": 195958,
            "time": 221.87242488541668,
            "velocity": 0.3937007874015748
          },
          {
            "duration": 0.10869550000001027,
            "durationTicks": 96,
            "midi": 51,
            "name": "D#3",
            "ticks": 195958,
            "time": 221.87242488541668,
            "velocity": 0.3937007874015748
          },
          {
            "duration": 0.10869550000001027,
            "durationTicks": 96,
            "midi": 39,
            "name": "D#2",
            "ticks": 195958,
            "time": 221.87242488541668,
            "velocity": 0.3937007874015748
          },
          {
            "duration": 0.21739099999999212,
            "durationTicks": 192,
            "midi": 82,
            "name": "A#5",
            "ticks": 196054,
            "time": 221.9811203854167,
            "velocity": 0.3937007874015748
          },
          {
            "duration": 0.21739099999999212,
            "durationTicks": 192,
            "midi": 78,
            "name": "F#5",
            "ticks": 196054,
            "time": 221.9811203854167,
            "velocity": 0.3937007874015748
          },
          {
            "duration": 0.21739099999999212,
            "durationTicks": 192,
            "midi": 54,
            "name": "F#3",
            "ticks": 196054,
            "time": 221.9811203854167,
            "velocity": 0.3937007874015748
          },
          {
            "duration": 0.10869549999998185,
            "durationTicks": 96,
            "midi": 75,
            "name": "D#5",
            "ticks": 196054,
            "time": 221.9811203854167,
            "velocity": 0.3937007874015748
          },
          {
            "duration": 0.10869549999998185,
            "durationTicks": 96,
            "midi": 37,
            "name": "C#2",
            "ticks": 196054,
            "time": 221.9811203854167,
            "velocity": 0.3937007874015748
          },
          {
            "duration": 0.21739099999999212,
            "durationTicks": 192,
            "midi": 58,
            "name": "A#3",
            "ticks": 196054,
            "time": 221.9811203854167,
            "velocity": 0.3937007874015748
          },
          {
            "duration": 0.10869549999998185,
            "durationTicks": 96,
            "midi": 49,
            "name": "C#3",
            "ticks": 196054,
            "time": 221.9811203854167,
            "velocity": 0.3937007874015748
          },
          {
            "duration": 0.21739099999999212,
            "durationTicks": 192,
            "midi": 63,
            "name": "D#4",
            "ticks": 196054,
            "time": 221.9811203854167,
            "velocity": 0.3937007874015748
          },
          {
            "duration": 0.21739099999999212,
            "durationTicks": 192,
            "midi": 70,
            "name": "A#4",
            "ticks": 196054,
            "time": 221.9811203854167,
            "velocity": 0.3937007874015748
          },
          {
            "duration": 0.21739099999999212,
            "durationTicks": 192,
            "midi": 66,
            "name": "F#4",
            "ticks": 196054,
            "time": 221.9811203854167,
            "velocity": 0.3937007874015748
          },
          {
            "duration": 0.10869550000001027,
            "durationTicks": 96,
            "midi": 39,
            "name": "D#2",
            "ticks": 196150,
            "time": 222.08981588541667,
            "velocity": 0.3937007874015748
          },
          {
            "duration": 0.10869550000001027,
            "durationTicks": 96,
            "midi": 51,
            "name": "D#3",
            "ticks": 196150,
            "time": 222.08981588541667,
            "velocity": 0.3937007874015748
          },
          {
            "duration": 0.10869550000001027,
            "durationTicks": 96,
            "midi": 78,
            "name": "F#5",
            "ticks": 196150,
            "time": 222.08981588541667,
            "velocity": 0.3937007874015748
          },
          {
            "duration": 0.10869549999998185,
            "durationTicks": 96,
            "midi": 51,
            "name": "D#3",
            "ticks": 196246,
            "time": 222.19851138541668,
            "velocity": 0.3937007874015748
          },
          {
            "duration": 0.21739099999999212,
            "durationTicks": 192,
            "midi": 63,
            "name": "D#4",
            "ticks": 196246,
            "time": 222.19851138541668,
            "velocity": 0.3937007874015748
          },
          {
            "duration": 0.21739099999999212,
            "durationTicks": 192,
            "midi": 58,
            "name": "A#3",
            "ticks": 196246,
            "time": 222.19851138541668,
            "velocity": 0.3937007874015748
          },
          {
            "duration": 0.10869549999998185,
            "durationTicks": 96,
            "midi": 39,
            "name": "D#2",
            "ticks": 196246,
            "time": 222.19851138541668,
            "velocity": 0.3937007874015748
          },
          {
            "duration": 0.21739099999999212,
            "durationTicks": 192,
            "midi": 34,
            "name": "A#1",
            "ticks": 196246,
            "time": 222.19851138541668,
            "velocity": 0.3937007874015748
          },
          {
            "duration": 0.10869549999998185,
            "durationTicks": 96,
            "midi": 61,
            "name": "C#4",
            "ticks": 196246,
            "time": 222.19851138541668,
            "velocity": 0.3937007874015748
          },
          {
            "duration": 0.21739099999999212,
            "durationTicks": 192,
            "midi": 54,
            "name": "F#3",
            "ticks": 196246,
            "time": 222.19851138541668,
            "velocity": 0.3937007874015748
          },
          {
            "duration": 0.21739099999999212,
            "durationTicks": 192,
            "midi": 70,
            "name": "A#4",
            "ticks": 196246,
            "time": 222.19851138541668,
            "velocity": 0.3937007874015748
          },
          {
            "duration": 0.21739099999999212,
            "durationTicks": 192,
            "midi": 58,
            "name": "A#3",
            "ticks": 196246,
            "time": 222.19851138541668,
            "velocity": 0.3937007874015748
          },
          {
            "duration": 0.21739099999999212,
            "durationTicks": 192,
            "midi": 75,
            "name": "D#5",
            "ticks": 196246,
            "time": 222.19851138541668,
            "velocity": 0.3937007874015748
          },
          {
            "duration": 0.21739099999999212,
            "durationTicks": 192,
            "midi": 61,
            "name": "C#4",
            "ticks": 196246,
            "time": 222.19851138541668,
            "velocity": 0.3937007874015748
          },
          {
            "duration": 0.10869550000001027,
            "durationTicks": 96,
            "midi": 66,
            "name": "F#4",
            "ticks": 196342,
            "time": 222.30720688541666,
            "velocity": 0.3937007874015748
          },
          {
            "duration": 0.10869550000001027,
            "durationTicks": 96,
            "midi": 70,
            "name": "A#4",
            "ticks": 196438,
            "time": 222.41590238541667,
            "velocity": 0.3937007874015748
          },
          {
            "duration": 0.21739099999999212,
            "durationTicks": 192,
            "midi": 58,
            "name": "A#3",
            "ticks": 196438,
            "time": 222.41590238541667,
            "velocity": 0.3937007874015748
          },
          {
            "duration": 0.10869550000001027,
            "durationTicks": 96,
            "midi": 46,
            "name": "A#2",
            "ticks": 196438,
            "time": 222.41590238541667,
            "velocity": 0.3937007874015748
          },
          {
            "duration": 0.10869550000001027,
            "durationTicks": 96,
            "midi": 34,
            "name": "A#1",
            "ticks": 196438,
            "time": 222.41590238541667,
            "velocity": 0.3937007874015748
          },
          {
            "duration": 0.21739099999999212,
            "durationTicks": 192,
            "midi": 34,
            "name": "A#1",
            "ticks": 196438,
            "time": 222.41590238541667,
            "velocity": 0.3937007874015748
          },
          {
            "duration": 0.21739099999999212,
            "durationTicks": 192,
            "midi": 61,
            "name": "C#4",
            "ticks": 196438,
            "time": 222.41590238541667,
            "velocity": 0.3937007874015748
          },
          {
            "duration": 0.21739099999999212,
            "durationTicks": 192,
            "midi": 54,
            "name": "F#3",
            "ticks": 196438,
            "time": 222.41590238541667,
            "velocity": 0.3937007874015748
          },
          {
            "duration": 0.10869549999998185,
            "durationTicks": 96,
            "midi": 37,
            "name": "C#2",
            "ticks": 196534,
            "time": 222.52459788541668,
            "velocity": 0.3937007874015748
          },
          {
            "duration": 0.10869549999998185,
            "durationTicks": 96,
            "midi": 73,
            "name": "C#5",
            "ticks": 196534,
            "time": 222.52459788541668,
            "velocity": 0.3937007874015748
          },
          {
            "duration": 0.10869549999998185,
            "durationTicks": 96,
            "midi": 49,
            "name": "C#3",
            "ticks": 196534,
            "time": 222.52459788541668,
            "velocity": 0.3937007874015748
          },
          {
            "duration": 0.21739099999999212,
            "durationTicks": 192,
            "midi": 51,
            "name": "D#3",
            "ticks": 196630,
            "time": 222.63329338541666,
            "velocity": 0.3937007874015748
          },
          {
            "duration": 0.21739099999999212,
            "durationTicks": 192,
            "midi": 56,
            "name": "G#3",
            "ticks": 196630,
            "time": 222.63329338541666,
            "velocity": 0.3937007874015748
          },
          {
            "duration": 0.10869549999998185,
            "durationTicks": 96,
            "midi": 32,
            "name": "G#1",
            "ticks": 196630,
            "time": 222.63329338541666,
            "velocity": 0.3937007874015748
          },
          {
            "duration": 0.10869549999998185,
            "durationTicks": 96,
            "midi": 60,
            "name": "C4",
            "ticks": 196630,
            "time": 222.63329338541666,
            "velocity": 0.3937007874015748
          },
          {
            "duration": 0.10869549999998185,
            "durationTicks": 96,
            "midi": 44,
            "name": "G#2",
            "ticks": 196630,
            "time": 222.63329338541666,
            "velocity": 0.3937007874015748
          },
          {
            "duration": 0.21739099999999212,
            "durationTicks": 192,
            "midi": 82,
            "name": "A#5",
            "ticks": 196630,
            "time": 222.63329338541666,
            "velocity": 0.3937007874015748
          },
          {
            "duration": 0.21739099999999212,
            "durationTicks": 192,
            "midi": 70,
            "name": "A#4",
            "ticks": 196630,
            "time": 222.63329338541666,
            "velocity": 0.3937007874015748
          },
          {
            "duration": 0.21739099999999212,
            "durationTicks": 192,
            "midi": 60,
            "name": "C4",
            "ticks": 196630,
            "time": 222.63329338541666,
            "velocity": 0.3937007874015748
          },
          {
            "duration": 0.21739099999999212,
            "durationTicks": 192,
            "midi": 34,
            "name": "A#1",
            "ticks": 196630,
            "time": 222.63329338541666,
            "velocity": 0.3937007874015748
          },
          {
            "duration": 0.21739099999999212,
            "durationTicks": 192,
            "midi": 66,
            "name": "F#4",
            "ticks": 196630,
            "time": 222.63329338541666,
            "velocity": 0.3937007874015748
          },
          {
            "duration": 0.21739099999999212,
            "durationTicks": 192,
            "midi": 78,
            "name": "F#5",
            "ticks": 196630,
            "time": 222.63329338541666,
            "velocity": 0.3937007874015748
          },
          {
            "duration": 0.10869550000001027,
            "durationTicks": 96,
            "midi": 63,
            "name": "D#4",
            "ticks": 196726,
            "time": 222.74198888541665,
            "velocity": 0.3937007874015748
          },
          {
            "duration": 0.10869549999998185,
            "durationTicks": 96,
            "midi": 30,
            "name": "F#1",
            "ticks": 196822,
            "time": 222.85068438541666,
            "velocity": 0.3937007874015748
          },
          {
            "duration": 0.10869549999998185,
            "durationTicks": 96,
            "midi": 42,
            "name": "F#2",
            "ticks": 196822,
            "time": 222.85068438541666,
            "velocity": 0.3937007874015748
          },
          {
            "duration": 0.21739099999999212,
            "durationTicks": 192,
            "midi": 56,
            "name": "G#3",
            "ticks": 196822,
            "time": 222.85068438541666,
            "velocity": 0.3937007874015748
          },
          {
            "duration": 0.21739099999999212,
            "durationTicks": 192,
            "midi": 80,
            "name": "G#5",
            "ticks": 196822,
            "time": 222.85068438541666,
            "velocity": 0.3937007874015748
          },
          {
            "duration": 0.21739099999999212,
            "durationTicks": 192,
            "midi": 51,
            "name": "D#3",
            "ticks": 196822,
            "time": 222.85068438541666,
            "velocity": 0.3937007874015748
          },
          {
            "duration": 0.10869549999998185,
            "durationTicks": 96,
            "midi": 68,
            "name": "G#4",
            "ticks": 196822,
            "time": 222.85068438541666,
            "velocity": 0.3937007874015748
          },
          {
            "duration": 0.21739099999999212,
            "durationTicks": 192,
            "midi": 68,
            "name": "G#4",
            "ticks": 196822,
            "time": 222.85068438541666,
            "velocity": 0.3937007874015748
          },
          {
            "duration": 0.21739099999999212,
            "durationTicks": 192,
            "midi": 73,
            "name": "C#5",
            "ticks": 196822,
            "time": 222.85068438541666,
            "velocity": 0.3937007874015748
          },
          {
            "duration": 0.21739099999999212,
            "durationTicks": 192,
            "midi": 85,
            "name": "C#6",
            "ticks": 196822,
            "time": 222.85068438541666,
            "velocity": 0.3937007874015748
          },
          {
            "duration": 0.21739099999999212,
            "durationTicks": 192,
            "midi": 60,
            "name": "C4",
            "ticks": 196822,
            "time": 222.85068438541666,
            "velocity": 0.3937007874015748
          },
          {
            "duration": 0.10869550000001027,
            "durationTicks": 96,
            "midi": 44,
            "name": "G#2",
            "ticks": 196918,
            "time": 222.95937988541664,
            "velocity": 0.3937007874015748
          },
          {
            "duration": 0.10869550000001027,
            "durationTicks": 96,
            "midi": 32,
            "name": "G#1",
            "ticks": 196918,
            "time": 222.95937988541664,
            "velocity": 0.3937007874015748
          },
          {
            "duration": 0.10869550000001027,
            "durationTicks": 96,
            "midi": 72,
            "name": "C5",
            "ticks": 196918,
            "time": 222.95937988541664,
            "velocity": 0.3937007874015748
          },
          {
            "duration": 0.21739099999999212,
            "durationTicks": 192,
            "midi": 73,
            "name": "C#5",
            "ticks": 197014,
            "time": 223.06807538541665,
            "velocity": 0.3937007874015748
          },
          {
            "duration": 0.21739099999999212,
            "durationTicks": 192,
            "midi": 51,
            "name": "D#3",
            "ticks": 197014,
            "time": 223.06807538541665,
            "velocity": 0.3937007874015748
          },
          {
            "duration": 0.21739099999999212,
            "durationTicks": 192,
            "midi": 68,
            "name": "G#4",
            "ticks": 197014,
            "time": 223.06807538541665,
            "velocity": 0.3937007874015748
          },
          {
            "duration": 0.10869550000001027,
            "durationTicks": 96,
            "midi": 35,
            "name": "B1",
            "ticks": 197014,
            "time": 223.06807538541665,
            "velocity": 0.3937007874015748
          },
          {
            "duration": 0.21739099999999212,
            "durationTicks": 192,
            "midi": 54,
            "name": "F#3",
            "ticks": 197014,
            "time": 223.06807538541665,
            "velocity": 0.3937007874015748
          },
          {
            "duration": 0.10869550000001027,
            "durationTicks": 96,
            "midi": 47,
            "name": "B2",
            "ticks": 197014,
            "time": 223.06807538541665,
            "velocity": 0.3937007874015748
          },
          {
            "duration": 0.21739099999999212,
            "durationTicks": 192,
            "midi": 34,
            "name": "A#1",
            "ticks": 197014,
            "time": 223.06807538541665,
            "velocity": 0.3937007874015748
          },
          {
            "duration": 0.21739099999999212,
            "durationTicks": 192,
            "midi": 59,
            "name": "B3",
            "ticks": 197014,
            "time": 223.06807538541665,
            "velocity": 0.3937007874015748
          },
          {
            "duration": 0.10869550000001027,
            "durationTicks": 96,
            "midi": 35,
            "name": "B1",
            "ticks": 197014,
            "time": 223.06807538541665,
            "velocity": 0.3937007874015748
          },
          {
            "duration": 0.21739099999999212,
            "durationTicks": 192,
            "midi": 80,
            "name": "G#5",
            "ticks": 197014,
            "time": 223.06807538541665,
            "velocity": 0.3937007874015748
          },
          {
            "duration": 0.21739099999999212,
            "durationTicks": 192,
            "midi": 85,
            "name": "C#6",
            "ticks": 197014,
            "time": 223.06807538541665,
            "velocity": 0.3937007874015748
          },
          {
            "duration": 0.10869549999998185,
            "durationTicks": 96,
            "midi": 51,
            "name": "D#3",
            "ticks": 197110,
            "time": 223.17677088541666,
            "velocity": 0.3937007874015748
          },
          {
            "duration": 0.10869550000001027,
            "durationTicks": 96,
            "midi": 54,
            "name": "F#3",
            "ticks": 197206,
            "time": 223.28546638541664,
            "velocity": 0.3937007874015748
          },
          {
            "duration": 0.21739100000002054,
            "durationTicks": 192,
            "midi": 54,
            "name": "F#3",
            "ticks": 197206,
            "time": 223.28546638541664,
            "velocity": 0.3937007874015748
          },
          {
            "duration": 0.21739100000002054,
            "durationTicks": 192,
            "midi": 82,
            "name": "A#5",
            "ticks": 197206,
            "time": 223.28546638541664,
            "velocity": 0.3937007874015748
          },
          {
            "duration": 0.21739100000002054,
            "durationTicks": 192,
            "midi": 59,
            "name": "B3",
            "ticks": 197206,
            "time": 223.28546638541664,
            "velocity": 0.3937007874015748
          },
          {
            "duration": 0.10869550000001027,
            "durationTicks": 96,
            "midi": 35,
            "name": "B1",
            "ticks": 197206,
            "time": 223.28546638541664,
            "velocity": 0.3937007874015748
          },
          {
            "duration": 0.21739100000002054,
            "durationTicks": 192,
            "midi": 70,
            "name": "A#4",
            "ticks": 197206,
            "time": 223.28546638541664,
            "velocity": 0.3937007874015748
          },
          {
            "duration": 0.21739100000002054,
            "durationTicks": 192,
            "midi": 87,
            "name": "D#6",
            "ticks": 197206,
            "time": 223.28546638541664,
            "velocity": 0.3937007874015748
          },
          {
            "duration": 0.10869550000001027,
            "durationTicks": 96,
            "midi": 47,
            "name": "B2",
            "ticks": 197206,
            "time": 223.28546638541664,
            "velocity": 0.3937007874015748
          },
          {
            "duration": 0.21739100000002054,
            "durationTicks": 192,
            "midi": 51,
            "name": "D#3",
            "ticks": 197206,
            "time": 223.28546638541664,
            "velocity": 0.3937007874015748
          },
          {
            "duration": 0.21739100000002054,
            "durationTicks": 192,
            "midi": 75,
            "name": "D#5",
            "ticks": 197206,
            "time": 223.28546638541664,
            "velocity": 0.3937007874015748
          },
          {
            "duration": 0.10869550000001027,
            "durationTicks": 96,
            "midi": 35,
            "name": "B1",
            "ticks": 197302,
            "time": 223.39416188541665,
            "velocity": 0.3937007874015748
          },
          {
            "duration": 0.10869550000001027,
            "durationTicks": 96,
            "midi": 47,
            "name": "B2",
            "ticks": 197302,
            "time": 223.39416188541665,
            "velocity": 0.3937007874015748
          },
          {
            "duration": 0.10869550000001027,
            "durationTicks": 96,
            "midi": 59,
            "name": "B3",
            "ticks": 197302,
            "time": 223.39416188541665,
            "velocity": 0.3937007874015748
          },
          {
            "duration": 0.21739099999999212,
            "durationTicks": 192,
            "midi": 66,
            "name": "F#4",
            "ticks": 197398,
            "time": 223.50285738541666,
            "velocity": 0.3937007874015748
          },
          {
            "duration": 0.10869549999998185,
            "durationTicks": 96,
            "midi": 35,
            "name": "B1",
            "ticks": 197398,
            "time": 223.50285738541666,
            "velocity": 0.3937007874015748
          },
          {
            "duration": 0.10869549999998185,
            "durationTicks": 96,
            "midi": 35,
            "name": "B1",
            "ticks": 197398,
            "time": 223.50285738541666,
            "velocity": 0.3937007874015748
          },
          {
            "duration": 0.21739099999999212,
            "durationTicks": 192,
            "midi": 78,
            "name": "F#5",
            "ticks": 197398,
            "time": 223.50285738541666,
            "velocity": 0.3937007874015748
          },
          {
            "duration": 0.21739099999999212,
            "durationTicks": 192,
            "midi": 51,
            "name": "D#3",
            "ticks": 197398,
            "time": 223.50285738541666,
            "velocity": 0.3937007874015748
          },
          {
            "duration": 0.21739099999999212,
            "durationTicks": 192,
            "midi": 34,
            "name": "A#1",
            "ticks": 197398,
            "time": 223.50285738541666,
            "velocity": 0.3937007874015748
          },
          {
            "duration": 0.21739099999999212,
            "durationTicks": 192,
            "midi": 82,
            "name": "A#5",
            "ticks": 197398,
            "time": 223.50285738541666,
            "velocity": 0.3937007874015748
          },
          {
            "duration": 0.21739099999999212,
            "durationTicks": 192,
            "midi": 59,
            "name": "B3",
            "ticks": 197398,
            "time": 223.50285738541666,
            "velocity": 0.3937007874015748
          },
          {
            "duration": 0.10869549999998185,
            "durationTicks": 96,
            "midi": 63,
            "name": "D#4",
            "ticks": 197398,
            "time": 223.50285738541666,
            "velocity": 0.3937007874015748
          },
          {
            "duration": 0.21739099999999212,
            "durationTicks": 192,
            "midi": 54,
            "name": "F#3",
            "ticks": 197398,
            "time": 223.50285738541666,
            "velocity": 0.3937007874015748
          },
          {
            "duration": 0.21739099999999212,
            "durationTicks": 192,
            "midi": 70,
            "name": "A#4",
            "ticks": 197398,
            "time": 223.50285738541666,
            "velocity": 0.3937007874015748
          },
          {
            "duration": 0.10869550000001027,
            "durationTicks": 96,
            "midi": 47,
            "name": "B2",
            "ticks": 197494,
            "time": 223.61155288541664,
            "velocity": 0.3937007874015748
          },
          {
            "duration": 0.10869550000001027,
            "durationTicks": 96,
            "midi": 66,
            "name": "F#4",
            "ticks": 197494,
            "time": 223.61155288541664,
            "velocity": 0.3937007874015748
          },
          {
            "duration": 0.10869550000001027,
            "durationTicks": 96,
            "midi": 35,
            "name": "B1",
            "ticks": 197494,
            "time": 223.61155288541664,
            "velocity": 0.3937007874015748
          },
          {
            "duration": 0.21739099999999212,
            "durationTicks": 192,
            "midi": 77,
            "name": "F5",
            "ticks": 197590,
            "time": 223.72024838541665,
            "velocity": 0.3937007874015748
          },
          {
            "duration": 0.21739099999999212,
            "durationTicks": 192,
            "midi": 80,
            "name": "G#5",
            "ticks": 197590,
            "time": 223.72024838541665,
            "velocity": 0.3937007874015748
          },
          {
            "duration": 0.21739099999999212,
            "durationTicks": 192,
            "midi": 68,
            "name": "G#4",
            "ticks": 197590,
            "time": 223.72024838541665,
            "velocity": 0.3937007874015748
          },
          {
            "duration": 0.10869550000001027,
            "durationTicks": 96,
            "midi": 34,
            "name": "A#1",
            "ticks": 197590,
            "time": 223.72024838541665,
            "velocity": 0.3937007874015748
          },
          {
            "duration": 0.10869550000001027,
            "durationTicks": 96,
            "midi": 46,
            "name": "A#2",
            "ticks": 197590,
            "time": 223.72024838541665,
            "velocity": 0.3937007874015748
          },
          {
            "duration": 0.10869550000001027,
            "durationTicks": 96,
            "midi": 71,
            "name": "B4",
            "ticks": 197590,
            "time": 223.72024838541665,
            "velocity": 0.3937007874015748
          },
          {
            "duration": 0.21739099999999212,
            "durationTicks": 192,
            "midi": 65,
            "name": "F4",
            "ticks": 197590,
            "time": 223.72024838541665,
            "velocity": 0.3937007874015748
          },
          {
            "duration": 0.21739099999999212,
            "durationTicks": 192,
            "midi": 59,
            "name": "B3",
            "ticks": 197590,
            "time": 223.72024838541665,
            "velocity": 0.3937007874015748
          },
          {
            "duration": 0.21739099999999212,
            "durationTicks": 192,
            "midi": 51,
            "name": "D#3",
            "ticks": 197590,
            "time": 223.72024838541665,
            "velocity": 0.3937007874015748
          },
          {
            "duration": 0.21739099999999212,
            "durationTicks": 192,
            "midi": 54,
            "name": "F#3",
            "ticks": 197590,
            "time": 223.72024838541665,
            "velocity": 0.3937007874015748
          },
          {
            "duration": 0.10869549999998185,
            "durationTicks": 96,
            "midi": 75,
            "name": "D#5",
            "ticks": 197686,
            "time": 223.82894388541666,
            "velocity": 0.3937007874015748
          },
          {
            "duration": 0.10869549999998185,
            "durationTicks": 96,
            "midi": 47,
            "name": "B2",
            "ticks": 197686,
            "time": 223.82894388541666,
            "velocity": 0.3937007874015748
          },
          {
            "duration": 0.10869549999998185,
            "durationTicks": 96,
            "midi": 35,
            "name": "B1",
            "ticks": 197686,
            "time": 223.82894388541666,
            "velocity": 0.3937007874015748
          },
          {
            "duration": 0.21739099999999212,
            "durationTicks": 192,
            "midi": 70,
            "name": "A#4",
            "ticks": 197782,
            "time": 223.93763938541665,
            "velocity": 0.3937007874015748
          },
          {
            "duration": 0.21739099999999212,
            "durationTicks": 192,
            "midi": 66,
            "name": "F#4",
            "ticks": 197782,
            "time": 223.93763938541665,
            "velocity": 0.3937007874015748
          },
          {
            "duration": 0.21739099999999212,
            "durationTicks": 192,
            "midi": 34,
            "name": "A#1",
            "ticks": 197782,
            "time": 223.93763938541665,
            "velocity": 0.3937007874015748
          },
          {
            "duration": 0.21739099999999212,
            "durationTicks": 192,
            "midi": 51,
            "name": "D#3",
            "ticks": 197782,
            "time": 223.93763938541665,
            "velocity": 0.3937007874015748
          },
          {
            "duration": 0.21739099999999212,
            "durationTicks": 192,
            "midi": 54,
            "name": "F#3",
            "ticks": 197782,
            "time": 223.93763938541665,
            "velocity": 0.3937007874015748
          },
          {
            "duration": 0.10869550000001027,
            "durationTicks": 96,
            "midi": 35,
            "name": "B1",
            "ticks": 197782,
            "time": 223.93763938541665,
            "velocity": 0.3937007874015748
          },
          {
            "duration": 0.10869550000001027,
            "durationTicks": 96,
            "midi": 35,
            "name": "B1",
            "ticks": 197782,
            "time": 223.93763938541665,
            "velocity": 0.3937007874015748
          },
          {
            "duration": 0.10869550000001027,
            "durationTicks": 96,
            "midi": 47,
            "name": "B2",
            "ticks": 197782,
            "time": 223.93763938541665,
            "velocity": 0.3937007874015748
          },
          {
            "duration": 0.21739099999999212,
            "durationTicks": 192,
            "midi": 78,
            "name": "F#5",
            "ticks": 197782,
            "time": 223.93763938541665,
            "velocity": 0.3937007874015748
          },
          {
            "duration": 0.21739099999999212,
            "durationTicks": 192,
            "midi": 59,
            "name": "B3",
            "ticks": 197782,
            "time": 223.93763938541665,
            "velocity": 0.3937007874015748
          },
          {
            "duration": 0.21739099999999212,
            "durationTicks": 192,
            "midi": 82,
            "name": "A#5",
            "ticks": 197782,
            "time": 223.93763938541665,
            "velocity": 0.3937007874015748
          },
          {
            "duration": 0.10869549999998185,
            "durationTicks": 96,
            "midi": 51,
            "name": "D#3",
            "ticks": 197878,
            "time": 224.04633488541666,
            "velocity": 0.3937007874015748
          },
          {
            "duration": 0.10869550000001027,
            "durationTicks": 96,
            "midi": 47,
            "name": "B2",
            "ticks": 197974,
            "time": 224.15503038541664,
            "velocity": 0.3937007874015748
          },
          {
            "duration": 0.21739100000002054,
            "durationTicks": 192,
            "midi": 59,
            "name": "B3",
            "ticks": 197974,
            "time": 224.15503038541664,
            "velocity": 0.3937007874015748
          },
          {
            "duration": 0.21739100000002054,
            "durationTicks": 192,
            "midi": 51,
            "name": "D#3",
            "ticks": 197974,
            "time": 224.15503038541664,
            "velocity": 0.3937007874015748
          },
          {
            "duration": 0.10869550000001027,
            "durationTicks": 96,
            "midi": 54,
            "name": "F#3",
            "ticks": 197974,
            "time": 224.15503038541664,
            "velocity": 0.3937007874015748
          },
          {
            "duration": 0.21739100000002054,
            "durationTicks": 192,
            "midi": 54,
            "name": "F#3",
            "ticks": 197974,
            "time": 224.15503038541664,
            "velocity": 0.3937007874015748
          },
          {
            "duration": 0.10869550000001027,
            "durationTicks": 96,
            "midi": 35,
            "name": "B1",
            "ticks": 197974,
            "time": 224.15503038541664,
            "velocity": 0.3937007874015748
          },
          {
            "duration": 0.10869550000001027,
            "durationTicks": 96,
            "midi": 59,
            "name": "B3",
            "ticks": 198070,
            "time": 224.26372588541665,
            "velocity": 0.3937007874015748
          },
          {
            "duration": 0.10869550000001027,
            "durationTicks": 96,
            "midi": 47,
            "name": "B2",
            "ticks": 198070,
            "time": 224.26372588541665,
            "velocity": 0.3937007874015748
          },
          {
            "duration": 0.10869550000001027,
            "durationTicks": 96,
            "midi": 35,
            "name": "B1",
            "ticks": 198070,
            "time": 224.26372588541665,
            "velocity": 0.3937007874015748
          },
          {
            "duration": 0.21739099999999212,
            "durationTicks": 192,
            "midi": 54,
            "name": "F#3",
            "ticks": 198166,
            "time": 224.37242138541666,
            "velocity": 0.3937007874015748
          },
          {
            "duration": 0.21739099999999212,
            "durationTicks": 192,
            "midi": 59,
            "name": "B3",
            "ticks": 198166,
            "time": 224.37242138541666,
            "velocity": 0.3937007874015748
          },
          {
            "duration": 0.10869549999998185,
            "durationTicks": 96,
            "midi": 35,
            "name": "B1",
            "ticks": 198166,
            "time": 224.37242138541666,
            "velocity": 0.3937007874015748
          },
          {
            "duration": 0.21739099999999212,
            "durationTicks": 192,
            "midi": 65,
            "name": "F4",
            "ticks": 198166,
            "time": 224.37242138541666,
            "velocity": 0.3937007874015748
          },
          {
            "duration": 0.21739099999999212,
            "durationTicks": 192,
            "midi": 80,
            "name": "G#5",
            "ticks": 198166,
            "time": 224.37242138541666,
            "velocity": 0.3937007874015748
          },
          {
            "duration": 0.21739099999999212,
            "durationTicks": 192,
            "midi": 34,
            "name": "A#1",
            "ticks": 198166,
            "time": 224.37242138541666,
            "velocity": 0.3937007874015748
          },
          {
            "duration": 0.10869549999998185,
            "durationTicks": 96,
            "midi": 63,
            "name": "D#4",
            "ticks": 198166,
            "time": 224.37242138541666,
            "velocity": 0.3937007874015748
          },
          {
            "duration": 0.21739099999999212,
            "durationTicks": 192,
            "midi": 51,
            "name": "D#3",
            "ticks": 198166,
            "time": 224.37242138541666,
            "velocity": 0.3937007874015748
          },
          {
            "duration": 0.21739099999999212,
            "durationTicks": 192,
            "midi": 77,
            "name": "F5",
            "ticks": 198166,
            "time": 224.37242138541666,
            "velocity": 0.3937007874015748
          },
          {
            "duration": 0.21739099999999212,
            "durationTicks": 192,
            "midi": 68,
            "name": "G#4",
            "ticks": 198166,
            "time": 224.37242138541666,
            "velocity": 0.3937007874015748
          },
          {
            "duration": 0.10869549999998185,
            "durationTicks": 96,
            "midi": 35,
            "name": "B1",
            "ticks": 198166,
            "time": 224.37242138541666,
            "velocity": 0.3937007874015748
          },
          {
            "duration": 0.10869550000001027,
            "durationTicks": 96,
            "midi": 66,
            "name": "F#4",
            "ticks": 198262,
            "time": 224.48111688541664,
            "velocity": 0.3937007874015748
          },
          {
            "duration": 0.10869550000001027,
            "durationTicks": 96,
            "midi": 47,
            "name": "B2",
            "ticks": 198262,
            "time": 224.48111688541664,
            "velocity": 0.3937007874015748
          },
          {
            "duration": 0.10869550000001027,
            "durationTicks": 96,
            "midi": 35,
            "name": "B1",
            "ticks": 198262,
            "time": 224.48111688541664,
            "velocity": 0.3937007874015748
          },
          {
            "duration": 0.21739099999999212,
            "durationTicks": 192,
            "midi": 51,
            "name": "D#3",
            "ticks": 198358,
            "time": 224.58981238541665,
            "velocity": 0.3937007874015748
          },
          {
            "duration": 0.21739099999999212,
            "durationTicks": 192,
            "midi": 59,
            "name": "B3",
            "ticks": 198358,
            "time": 224.58981238541665,
            "velocity": 0.3937007874015748
          },
          {
            "duration": 0.21739099999999212,
            "durationTicks": 192,
            "midi": 54,
            "name": "F#3",
            "ticks": 198358,
            "time": 224.58981238541665,
            "velocity": 0.3937007874015748
          },
          {
            "duration": 0.21739099999999212,
            "durationTicks": 192,
            "midi": 70,
            "name": "A#4",
            "ticks": 198358,
            "time": 224.58981238541665,
            "velocity": 0.3937007874015748
          },
          {
            "duration": 0.10869550000001027,
            "durationTicks": 96,
            "midi": 71,
            "name": "B4",
            "ticks": 198358,
            "time": 224.58981238541665,
            "velocity": 0.3937007874015748
          },
          {
            "duration": 0.21739099999999212,
            "durationTicks": 192,
            "midi": 66,
            "name": "F#4",
            "ticks": 198358,
            "time": 224.58981238541665,
            "velocity": 0.3937007874015748
          },
          {
            "duration": 0.10869550000001027,
            "durationTicks": 96,
            "midi": 34,
            "name": "A#1",
            "ticks": 198358,
            "time": 224.58981238541665,
            "velocity": 0.3937007874015748
          },
          {
            "duration": 0.10869550000001027,
            "durationTicks": 96,
            "midi": 46,
            "name": "A#2",
            "ticks": 198358,
            "time": 224.58981238541665,
            "velocity": 0.3937007874015748
          },
          {
            "duration": 0.21739099999999212,
            "durationTicks": 192,
            "midi": 78,
            "name": "F#5",
            "ticks": 198358,
            "time": 224.58981238541665,
            "velocity": 0.3937007874015748
          },
          {
            "duration": 0.21739099999999212,
            "durationTicks": 192,
            "midi": 82,
            "name": "A#5",
            "ticks": 198358,
            "time": 224.58981238541665,
            "velocity": 0.3937007874015748
          },
          {
            "duration": 0.10869549999998185,
            "durationTicks": 96,
            "midi": 47,
            "name": "B2",
            "ticks": 198454,
            "time": 224.69850788541666,
            "velocity": 0.3937007874015748
          },
          {
            "duration": 0.10869549999998185,
            "durationTicks": 96,
            "midi": 35,
            "name": "B1",
            "ticks": 198454,
            "time": 224.69850788541666,
            "velocity": 0.3937007874015748
          },
          {
            "duration": 0.10869549999998185,
            "durationTicks": 96,
            "midi": 75,
            "name": "D#5",
            "ticks": 198454,
            "time": 224.69850788541666,
            "velocity": 0.3937007874015748
          },
          {
            "duration": 0.21739100000002054,
            "durationTicks": 192,
            "midi": 80,
            "name": "G#5",
            "ticks": 198550,
            "time": 224.80720338541664,
            "velocity": 0.3937007874015748
          },
          {
            "duration": 0.21739100000002054,
            "durationTicks": 192,
            "midi": 34,
            "name": "A#1",
            "ticks": 198550,
            "time": 224.80720338541664,
            "velocity": 0.3937007874015748
          },
          {
            "duration": 0.21739100000002054,
            "durationTicks": 192,
            "midi": 56,
            "name": "G#3",
            "ticks": 198550,
            "time": 224.80720338541664,
            "velocity": 0.3937007874015748
          },
          {
            "duration": 0.21739100000002054,
            "durationTicks": 192,
            "midi": 85,
            "name": "C#6",
            "ticks": 198550,
            "time": 224.80720338541664,
            "velocity": 0.3937007874015748
          },
          {
            "duration": 0.21739100000002054,
            "durationTicks": 192,
            "midi": 61,
            "name": "C#4",
            "ticks": 198550,
            "time": 224.80720338541664,
            "velocity": 0.3937007874015748
          },
          {
            "duration": 0.10869550000001027,
            "durationTicks": 96,
            "midi": 49,
            "name": "C#3",
            "ticks": 198550,
            "time": 224.80720338541664,
            "velocity": 0.3937007874015748
          },
          {
            "duration": 0.10869550000001027,
            "durationTicks": 96,
            "midi": 37,
            "name": "C#2",
            "ticks": 198550,
            "time": 224.80720338541664,
            "velocity": 0.3937007874015748
          },
          {
            "duration": 0.21739100000002054,
            "durationTicks": 192,
            "midi": 73,
            "name": "C#5",
            "ticks": 198550,
            "time": 224.80720338541664,
            "velocity": 0.3937007874015748
          },
          {
            "duration": 0.21739100000002054,
            "durationTicks": 192,
            "midi": 68,
            "name": "G#4",
            "ticks": 198550,
            "time": 224.80720338541664,
            "velocity": 0.3937007874015748
          },
          {
            "duration": 0.10869550000001027,
            "durationTicks": 96,
            "midi": 25,
            "name": "C#1",
            "ticks": 198550,
            "time": 224.80720338541664,
            "velocity": 0.3937007874015748
          },
          {
            "duration": 0.21739100000002054,
            "durationTicks": 192,
            "midi": 53,
            "name": "F3",
            "ticks": 198550,
            "time": 224.80720338541664,
            "velocity": 0.3937007874015748
          },
          {
            "duration": 0.10869550000001027,
            "durationTicks": 96,
            "midi": 53,
            "name": "F3",
            "ticks": 198646,
            "time": 224.91589888541665,
            "velocity": 0.3937007874015748
          },
          {
            "duration": 0.21739099999999212,
            "durationTicks": 192,
            "midi": 87,
            "name": "D#6",
            "ticks": 198742,
            "time": 225.02459438541666,
            "velocity": 0.3937007874015748
          },
          {
            "duration": 0.21739099999999212,
            "durationTicks": 192,
            "midi": 70,
            "name": "A#4",
            "ticks": 198742,
            "time": 225.02459438541666,
            "velocity": 0.3937007874015748
          },
          {
            "duration": 0.21739099999999212,
            "durationTicks": 192,
            "midi": 53,
            "name": "F3",
            "ticks": 198742,
            "time": 225.02459438541666,
            "velocity": 0.3937007874015748
          },
          {
            "duration": 0.10869549999998185,
            "durationTicks": 96,
            "midi": 56,
            "name": "G#3",
            "ticks": 198742,
            "time": 225.02459438541666,
            "velocity": 0.3937007874015748
          },
          {
            "duration": 0.21739099999999212,
            "durationTicks": 192,
            "midi": 82,
            "name": "A#5",
            "ticks": 198742,
            "time": 225.02459438541666,
            "velocity": 0.3937007874015748
          },
          {
            "duration": 0.21739099999999212,
            "durationTicks": 192,
            "midi": 56,
            "name": "G#3",
            "ticks": 198742,
            "time": 225.02459438541666,
            "velocity": 0.3937007874015748
          },
          {
            "duration": 0.10869549999998185,
            "durationTicks": 96,
            "midi": 49,
            "name": "C#3",
            "ticks": 198742,
            "time": 225.02459438541666,
            "velocity": 0.3937007874015748
          },
          {
            "duration": 0.10869549999998185,
            "durationTicks": 96,
            "midi": 37,
            "name": "C#2",
            "ticks": 198742,
            "time": 225.02459438541666,
            "velocity": 0.3937007874015748
          },
          {
            "duration": 0.21739099999999212,
            "durationTicks": 192,
            "midi": 61,
            "name": "C#4",
            "ticks": 198742,
            "time": 225.02459438541666,
            "velocity": 0.3937007874015748
          },
          {
            "duration": 0.21739099999999212,
            "durationTicks": 192,
            "midi": 75,
            "name": "D#5",
            "ticks": 198742,
            "time": 225.02459438541666,
            "velocity": 0.3937007874015748
          },
          {
            "duration": 0.10869550000001027,
            "durationTicks": 96,
            "midi": 37,
            "name": "C#2",
            "ticks": 198838,
            "time": 225.13328988541664,
            "velocity": 0.3937007874015748
          },
          {
            "duration": 0.10869550000001027,
            "durationTicks": 96,
            "midi": 49,
            "name": "C#3",
            "ticks": 198838,
            "time": 225.13328988541664,
            "velocity": 0.3937007874015748
          },
          {
            "duration": 0.10869550000001027,
            "durationTicks": 96,
            "midi": 61,
            "name": "C#4",
            "ticks": 198838,
            "time": 225.13328988541664,
            "velocity": 0.3937007874015748
          },
          {
            "duration": 0.21739099999999212,
            "durationTicks": 192,
            "midi": 56,
            "name": "G#3",
            "ticks": 198934,
            "time": 225.24198538541665,
            "velocity": 0.3937007874015748
          },
          {
            "duration": 0.21739099999999212,
            "durationTicks": 192,
            "midi": 53,
            "name": "F3",
            "ticks": 198934,
            "time": 225.24198538541665,
            "velocity": 0.3937007874015748
          },
          {
            "duration": 0.10869550000001027,
            "durationTicks": 96,
            "midi": 37,
            "name": "C#2",
            "ticks": 198934,
            "time": 225.24198538541665,
            "velocity": 0.3937007874015748
          },
          {
            "duration": 0.21739099999999212,
            "durationTicks": 192,
            "midi": 66,
            "name": "F#4",
            "ticks": 198934,
            "time": 225.24198538541665,
            "velocity": 0.3937007874015748
          },
          {
            "duration": 0.21739099999999212,
            "durationTicks": 192,
            "midi": 34,
            "name": "A#1",
            "ticks": 198934,
            "time": 225.24198538541665,
            "velocity": 0.3937007874015748
          },
          {
            "duration": 0.21739099999999212,
            "durationTicks": 192,
            "midi": 82,
            "name": "A#5",
            "ticks": 198934,
            "time": 225.24198538541665,
            "velocity": 0.3937007874015748
          },
          {
            "duration": 0.21739099999999212,
            "durationTicks": 192,
            "midi": 78,
            "name": "F#5",
            "ticks": 198934,
            "time": 225.24198538541665,
            "velocity": 0.3937007874015748
          },
          {
            "duration": 0.10869550000001027,
            "durationTicks": 96,
            "midi": 25,
            "name": "C#1",
            "ticks": 198934,
            "time": 225.24198538541665,
            "velocity": 0.3937007874015748
          },
          {
            "duration": 0.21739099999999212,
            "durationTicks": 192,
            "midi": 70,
            "name": "A#4",
            "ticks": 198934,
            "time": 225.24198538541665,
            "velocity": 0.3937007874015748
          },
          {
            "duration": 0.21739099999999212,
            "durationTicks": 192,
            "midi": 61,
            "name": "C#4",
            "ticks": 198934,
            "time": 225.24198538541665,
            "velocity": 0.3937007874015748
          },
          {
            "duration": 0.10869550000001027,
            "durationTicks": 96,
            "midi": 65,
            "name": "F4",
            "ticks": 198934,
            "time": 225.24198538541665,
            "velocity": 0.3937007874015748
          },
          {
            "duration": 0.10869549999998185,
            "durationTicks": 96,
            "midi": 49,
            "name": "C#3",
            "ticks": 199030,
            "time": 225.35068088541666,
            "velocity": 0.3937007874015748
          },
          {
            "duration": 0.10869549999998185,
            "durationTicks": 96,
            "midi": 68,
            "name": "G#4",
            "ticks": 199030,
            "time": 225.35068088541666,
            "velocity": 0.3937007874015748
          },
          {
            "duration": 0.10869549999998185,
            "durationTicks": 96,
            "midi": 37,
            "name": "C#2",
            "ticks": 199030,
            "time": 225.35068088541666,
            "velocity": 0.3937007874015748
          },
          {
            "duration": 0.21739099999999212,
            "durationTicks": 192,
            "midi": 53,
            "name": "F3",
            "ticks": 199126,
            "time": 225.45937638541665,
            "velocity": 0.3937007874015748
          },
          {
            "duration": 0.10869550000001027,
            "durationTicks": 96,
            "midi": 47,
            "name": "B2",
            "ticks": 199126,
            "time": 225.45937638541665,
            "velocity": 0.3937007874015748
          },
          {
            "duration": 0.21739099999999212,
            "durationTicks": 192,
            "midi": 80,
            "name": "G#5",
            "ticks": 199126,
            "time": 225.45937638541665,
            "velocity": 0.3937007874015748
          },
          {
            "duration": 0.21739099999999212,
            "durationTicks": 192,
            "midi": 56,
            "name": "G#3",
            "ticks": 199126,
            "time": 225.45937638541665,
            "velocity": 0.3937007874015748
          },
          {
            "duration": 0.21739099999999212,
            "durationTicks": 192,
            "midi": 68,
            "name": "G#4",
            "ticks": 199126,
            "time": 225.45937638541665,
            "velocity": 0.3937007874015748
          },
          {
            "duration": 0.21739099999999212,
            "durationTicks": 192,
            "midi": 77,
            "name": "F5",
            "ticks": 199126,
            "time": 225.45937638541665,
            "velocity": 0.3937007874015748
          },
          {
            "duration": 0.21739099999999212,
            "durationTicks": 192,
            "midi": 65,
            "name": "F4",
            "ticks": 199126,
            "time": 225.45937638541665,
            "velocity": 0.3937007874015748
          },
          {
            "duration": 0.21739099999999212,
            "durationTicks": 192,
            "midi": 61,
            "name": "C#4",
            "ticks": 199126,
            "time": 225.45937638541665,
            "velocity": 0.3937007874015748
          },
          {
            "duration": 0.10869550000001027,
            "durationTicks": 96,
            "midi": 73,
            "name": "C#5",
            "ticks": 199126,
            "time": 225.45937638541665,
            "velocity": 0.3937007874015748
          },
          {
            "duration": 0.10869550000001027,
            "durationTicks": 96,
            "midi": 35,
            "name": "B1",
            "ticks": 199126,
            "time": 225.45937638541665,
            "velocity": 0.3937007874015748
          },
          {
            "duration": 0.10869549999998185,
            "durationTicks": 96,
            "midi": 49,
            "name": "C#3",
            "ticks": 199222,
            "time": 225.56807188541666,
            "velocity": 0.3937007874015748
          },
          {
            "duration": 0.10869549999998185,
            "durationTicks": 96,
            "midi": 37,
            "name": "C#2",
            "ticks": 199222,
            "time": 225.56807188541666,
            "velocity": 0.3937007874015748
          },
          {
            "duration": 0.10869549999998185,
            "durationTicks": 96,
            "midi": 77,
            "name": "F5",
            "ticks": 199222,
            "time": 225.56807188541666,
            "velocity": 0.3937007874015748
          },
          {
            "duration": 0.21739100000002054,
            "durationTicks": 192,
            "midi": 56,
            "name": "G#3",
            "ticks": 199318,
            "time": 225.67676738541664,
            "velocity": 0.3937007874015748
          },
          {
            "duration": 0.21739100000002054,
            "durationTicks": 192,
            "midi": 61,
            "name": "C#4",
            "ticks": 199318,
            "time": 225.67676738541664,
            "velocity": 0.3937007874015748
          },
          {
            "duration": 0.21739100000002054,
            "durationTicks": 192,
            "midi": 53,
            "name": "F3",
            "ticks": 199318,
            "time": 225.67676738541664,
            "velocity": 0.3937007874015748
          },
          {
            "duration": 0.10869550000001027,
            "durationTicks": 96,
            "midi": 37,
            "name": "C#2",
            "ticks": 199318,
            "time": 225.67676738541664,
            "velocity": 0.3937007874015748
          },
          {
            "duration": 0.21739100000002054,
            "durationTicks": 192,
            "midi": 70,
            "name": "A#4",
            "ticks": 199318,
            "time": 225.67676738541664,
            "velocity": 0.3937007874015748
          },
          {
            "duration": 0.21739100000002054,
            "durationTicks": 192,
            "midi": 78,
            "name": "F#5",
            "ticks": 199318,
            "time": 225.67676738541664,
            "velocity": 0.3937007874015748
          },
          {
            "duration": 0.21739100000002054,
            "durationTicks": 192,
            "midi": 82,
            "name": "A#5",
            "ticks": 199318,
            "time": 225.67676738541664,
            "velocity": 0.3937007874015748
          },
          {
            "duration": 0.21739100000002054,
            "durationTicks": 192,
            "midi": 66,
            "name": "F#4",
            "ticks": 199318,
            "time": 225.67676738541664,
            "velocity": 0.3937007874015748
          },
          {
            "duration": 0.10869550000001027,
            "durationTicks": 96,
            "midi": 49,
            "name": "C#3",
            "ticks": 199318,
            "time": 225.67676738541664,
            "velocity": 0.3937007874015748
          },
          {
            "duration": 0.21739100000002054,
            "durationTicks": 192,
            "midi": 34,
            "name": "A#1",
            "ticks": 199318,
            "time": 225.67676738541664,
            "velocity": 0.3937007874015748
          },
          {
            "duration": 0.10869550000001027,
            "durationTicks": 96,
            "midi": 25,
            "name": "C#1",
            "ticks": 199318,
            "time": 225.67676738541664,
            "velocity": 0.3937007874015748
          },
          {
            "duration": 0.10869550000001027,
            "durationTicks": 96,
            "midi": 53,
            "name": "F3",
            "ticks": 199414,
            "time": 225.78546288541665,
            "velocity": 0.3937007874015748
          },
          {
            "duration": 0.21739099999999212,
            "durationTicks": 192,
            "midi": 53,
            "name": "F3",
            "ticks": 199510,
            "time": 225.89415838541666,
            "velocity": 0.3937007874015748
          },
          {
            "duration": 0.10869549999998185,
            "durationTicks": 96,
            "midi": 37,
            "name": "C#2",
            "ticks": 199510,
            "time": 225.89415838541666,
            "velocity": 0.3937007874015748
          },
          {
            "duration": 0.21739099999999212,
            "durationTicks": 192,
            "midi": 61,
            "name": "C#4",
            "ticks": 199510,
            "time": 225.89415838541666,
            "velocity": 0.3937007874015748
          },
          {
            "duration": 0.10869549999998185,
            "durationTicks": 96,
            "midi": 56,
            "name": "G#3",
            "ticks": 199510,
            "time": 225.89415838541666,
            "velocity": 0.3937007874015748
          },
          {
            "duration": 0.21739099999999212,
            "durationTicks": 192,
            "midi": 56,
            "name": "G#3",
            "ticks": 199510,
            "time": 225.89415838541666,
            "velocity": 0.3937007874015748
          },
          {
            "duration": 0.10869549999998185,
            "durationTicks": 96,
            "midi": 49,
            "name": "C#3",
            "ticks": 199510,
            "time": 225.89415838541666,
            "velocity": 0.3937007874015748
          },
          {
            "duration": 0.10869550000001027,
            "durationTicks": 96,
            "midi": 37,
            "name": "C#2",
            "ticks": 199606,
            "time": 226.00285388541664,
            "velocity": 0.3937007874015748
          },
          {
            "duration": 0.10869550000001027,
            "durationTicks": 96,
            "midi": 61,
            "name": "C#4",
            "ticks": 199606,
            "time": 226.00285388541664,
            "velocity": 0.3937007874015748
          },
          {
            "duration": 0.10869550000001027,
            "durationTicks": 96,
            "midi": 49,
            "name": "C#3",
            "ticks": 199606,
            "time": 226.00285388541664,
            "velocity": 0.3937007874015748
          },
          {
            "duration": 0.21739099999999212,
            "durationTicks": 192,
            "midi": 70,
            "name": "A#4",
            "ticks": 199702,
            "time": 226.11154938541665,
            "velocity": 0.3937007874015748
          },
          {
            "duration": 0.21739099999999212,
            "durationTicks": 192,
            "midi": 75,
            "name": "D#5",
            "ticks": 199702,
            "time": 226.11154938541665,
            "velocity": 0.3937007874015748
          },
          {
            "duration": 0.21739099999999212,
            "durationTicks": 192,
            "midi": 34,
            "name": "A#1",
            "ticks": 199702,
            "time": 226.11154938541665,
            "velocity": 0.3937007874015748
          },
          {
            "duration": 0.10869550000001027,
            "durationTicks": 96,
            "midi": 65,
            "name": "F4",
            "ticks": 199702,
            "time": 226.11154938541665,
            "velocity": 0.3937007874015748
          },
          {
            "duration": 0.21739099999999212,
            "durationTicks": 192,
            "midi": 82,
            "name": "A#5",
            "ticks": 199702,
            "time": 226.11154938541665,
            "velocity": 0.3937007874015748
          },
          {
            "duration": 0.21739099999999212,
            "durationTicks": 192,
            "midi": 87,
            "name": "D#6",
            "ticks": 199702,
            "time": 226.11154938541665,
            "velocity": 0.3937007874015748
          },
          {
            "duration": 0.10869550000001027,
            "durationTicks": 96,
            "midi": 25,
            "name": "C#1",
            "ticks": 199702,
            "time": 226.11154938541665,
            "velocity": 0.3937007874015748
          },
          {
            "duration": 0.21739099999999212,
            "durationTicks": 192,
            "midi": 53,
            "name": "F3",
            "ticks": 199702,
            "time": 226.11154938541665,
            "velocity": 0.3937007874015748
          },
          {
            "duration": 0.21739099999999212,
            "durationTicks": 192,
            "midi": 61,
            "name": "C#4",
            "ticks": 199702,
            "time": 226.11154938541665,
            "velocity": 0.3937007874015748
          },
          {
            "duration": 0.10869550000001027,
            "durationTicks": 96,
            "midi": 37,
            "name": "C#2",
            "ticks": 199702,
            "time": 226.11154938541665,
            "velocity": 0.3937007874015748
          },
          {
            "duration": 0.21739099999999212,
            "durationTicks": 192,
            "midi": 56,
            "name": "G#3",
            "ticks": 199702,
            "time": 226.11154938541665,
            "velocity": 0.3937007874015748
          },
          {
            "duration": 0.10869549999998185,
            "durationTicks": 96,
            "midi": 49,
            "name": "C#3",
            "ticks": 199798,
            "time": 226.22024488541666,
            "velocity": 0.3937007874015748
          },
          {
            "duration": 0.10869549999998185,
            "durationTicks": 96,
            "midi": 37,
            "name": "C#2",
            "ticks": 199798,
            "time": 226.22024488541666,
            "velocity": 0.3937007874015748
          },
          {
            "duration": 0.10869549999998185,
            "durationTicks": 96,
            "midi": 68,
            "name": "G#4",
            "ticks": 199798,
            "time": 226.22024488541666,
            "velocity": 0.3937007874015748
          },
          {
            "duration": 0.10869550000001027,
            "durationTicks": 96,
            "midi": 47,
            "name": "B2",
            "ticks": 199894,
            "time": 226.32894038541664,
            "velocity": 0.3937007874015748
          },
          {
            "duration": 0.21739100000002054,
            "durationTicks": 192,
            "midi": 85,
            "name": "C#6",
            "ticks": 199894,
            "time": 226.32894038541664,
            "velocity": 0.3937007874015748
          },
          {
            "duration": 0.10869550000001027,
            "durationTicks": 96,
            "midi": 73,
            "name": "C#5",
            "ticks": 199894,
            "time": 226.32894038541664,
            "velocity": 0.3937007874015748
          },
          {
            "duration": 0.10869550000001027,
            "durationTicks": 96,
            "midi": 35,
            "name": "B1",
            "ticks": 199894,
            "time": 226.32894038541664,
            "velocity": 0.3937007874015748
          },
          {
            "duration": 0.21739100000002054,
            "durationTicks": 192,
            "midi": 73,
            "name": "C#5",
            "ticks": 199894,
            "time": 226.32894038541664,
            "velocity": 0.3937007874015748
          },
          {
            "duration": 0.21739100000002054,
            "durationTicks": 192,
            "midi": 61,
            "name": "C#4",
            "ticks": 199894,
            "time": 226.32894038541664,
            "velocity": 0.3937007874015748
          },
          {
            "duration": 0.21739100000002054,
            "durationTicks": 192,
            "midi": 89,
            "name": "F6",
            "ticks": 199894,
            "time": 226.32894038541664,
            "velocity": 0.3937007874015748
          },
          {
            "duration": 0.21739100000002054,
            "durationTicks": 192,
            "midi": 53,
            "name": "F3",
            "ticks": 199894,
            "time": 226.32894038541664,
            "velocity": 0.3937007874015748
          },
          {
            "duration": 0.21739100000002054,
            "durationTicks": 192,
            "midi": 34,
            "name": "A#1",
            "ticks": 199894,
            "time": 226.32894038541664,
            "velocity": 0.3937007874015748
          },
          {
            "duration": 0.21739100000002054,
            "durationTicks": 192,
            "midi": 56,
            "name": "G#3",
            "ticks": 199894,
            "time": 226.32894038541664,
            "velocity": 0.3937007874015748
          },
          {
            "duration": 0.21739100000002054,
            "durationTicks": 192,
            "midi": 77,
            "name": "F5",
            "ticks": 199894,
            "time": 226.32894038541664,
            "velocity": 0.3937007874015748
          },
          {
            "duration": 0.10869550000001027,
            "durationTicks": 96,
            "midi": 77,
            "name": "F5",
            "ticks": 199990,
            "time": 226.43763588541665,
            "velocity": 0.3937007874015748
          },
          {
            "duration": 0.10869550000001027,
            "durationTicks": 96,
            "midi": 37,
            "name": "C#2",
            "ticks": 199990,
            "time": 226.43763588541665,
            "velocity": 0.3937007874015748
          },
          {
            "duration": 0.10869550000001027,
            "durationTicks": 96,
            "midi": 49,
            "name": "C#3",
            "ticks": 199990,
            "time": 226.43763588541665,
            "velocity": 0.3937007874015748
          },
          {
            "duration": 0.21739099999999212,
            "durationTicks": 192,
            "midi": 58,
            "name": "A#3",
            "ticks": 200086,
            "time": 226.54633138541666,
            "velocity": 0.3937007874015748
          },
          {
            "duration": 0.10869549999998185,
            "durationTicks": 96,
            "midi": 39,
            "name": "D#2",
            "ticks": 200086,
            "time": 226.54633138541666,
            "velocity": 0.3937007874015748
          },
          {
            "duration": 0.10869549999998185,
            "durationTicks": 96,
            "midi": 27,
            "name": "D#1",
            "ticks": 200086,
            "time": 226.54633138541666,
            "velocity": 0.3937007874015748
          },
          {
            "duration": 0.10869549999998185,
            "durationTicks": 96,
            "midi": 51,
            "name": "D#3",
            "ticks": 200086,
            "time": 226.54633138541666,
            "velocity": 0.3937007874015748
          },
          {
            "duration": 0.21739099999999212,
            "durationTicks": 192,
            "midi": 54,
            "name": "F#3",
            "ticks": 200086,
            "time": 226.54633138541666,
            "velocity": 0.3937007874015748
          },
          {
            "duration": 0.21739099999999212,
            "durationTicks": 192,
            "midi": 34,
            "name": "A#1",
            "ticks": 200086,
            "time": 226.54633138541666,
            "velocity": 0.3937007874015748
          },
          {
            "duration": 0.21739099999999212,
            "durationTicks": 192,
            "midi": 90,
            "name": "F#6",
            "ticks": 200086,
            "time": 226.54633138541666,
            "velocity": 0.3937007874015748
          },
          {
            "duration": 0.21739099999999212,
            "durationTicks": 192,
            "midi": 87,
            "name": "D#6",
            "ticks": 200086,
            "time": 226.54633138541666,
            "velocity": 0.3937007874015748
          },
          {
            "duration": 0.21739099999999212,
            "durationTicks": 192,
            "midi": 63,
            "name": "D#4",
            "ticks": 200086,
            "time": 226.54633138541666,
            "velocity": 0.3937007874015748
          },
          {
            "duration": 0.21739099999999212,
            "durationTicks": 192,
            "midi": 78,
            "name": "F#5",
            "ticks": 200086,
            "time": 226.54633138541666,
            "velocity": 0.3937007874015748
          },
          {
            "duration": 0.21739099999999212,
            "durationTicks": 192,
            "midi": 75,
            "name": "D#5",
            "ticks": 200086,
            "time": 226.54633138541666,
            "velocity": 0.3937007874015748
          },
          {
            "duration": 0.10869550000001027,
            "durationTicks": 96,
            "midi": 54,
            "name": "F#3",
            "ticks": 200182,
            "time": 226.65502688541665,
            "velocity": 0.3937007874015748
          },
          {
            "duration": 0.10869549999998185,
            "durationTicks": 96,
            "midi": 39,
            "name": "D#2",
            "ticks": 200278,
            "time": 226.76372238541666,
            "velocity": 0.3937007874015748
          },
          {
            "duration": 0.21739099999999212,
            "durationTicks": 192,
            "midi": 77,
            "name": "F5",
            "ticks": 200278,
            "time": 226.76372238541666,
            "velocity": 0.3937007874015748
          },
          {
            "duration": 0.21739099999999212,
            "durationTicks": 192,
            "midi": 85,
            "name": "C#6",
            "ticks": 200278,
            "time": 226.76372238541666,
            "velocity": 0.3937007874015748
          },
          {
            "duration": 0.21739099999999212,
            "durationTicks": 192,
            "midi": 73,
            "name": "C#5",
            "ticks": 200278,
            "time": 226.76372238541666,
            "velocity": 0.3937007874015748
          },
          {
            "duration": 0.21739099999999212,
            "durationTicks": 192,
            "midi": 54,
            "name": "F#3",
            "ticks": 200278,
            "time": 226.76372238541666,
            "velocity": 0.3937007874015748
          },
          {
            "duration": 0.10869549999998185,
            "durationTicks": 96,
            "midi": 58,
            "name": "A#3",
            "ticks": 200278,
            "time": 226.76372238541666,
            "velocity": 0.3937007874015748
          },
          {
            "duration": 0.21739099999999212,
            "durationTicks": 192,
            "midi": 63,
            "name": "D#4",
            "ticks": 200278,
            "time": 226.76372238541666,
            "velocity": 0.3937007874015748
          },
          {
            "duration": 0.21739099999999212,
            "durationTicks": 192,
            "midi": 89,
            "name": "F6",
            "ticks": 200278,
            "time": 226.76372238541666,
            "velocity": 0.3937007874015748
          },
          {
            "duration": 0.21739099999999212,
            "durationTicks": 192,
            "midi": 58,
            "name": "A#3",
            "ticks": 200278,
            "time": 226.76372238541666,
            "velocity": 0.3937007874015748
          },
          {
            "duration": 0.10869549999998185,
            "durationTicks": 96,
            "midi": 51,
            "name": "D#3",
            "ticks": 200278,
            "time": 226.76372238541666,
            "velocity": 0.3937007874015748
          },
          {
            "duration": 0.10869550000001027,
            "durationTicks": 96,
            "midi": 63,
            "name": "D#4",
            "ticks": 200374,
            "time": 226.87241788541664,
            "velocity": 0.3937007874015748
          },
          {
            "duration": 0.10869550000001027,
            "durationTicks": 96,
            "midi": 39,
            "name": "D#2",
            "ticks": 200374,
            "time": 226.87241788541664,
            "velocity": 0.3937007874015748
          },
          {
            "duration": 0.10869550000001027,
            "durationTicks": 96,
            "midi": 51,
            "name": "D#3",
            "ticks": 200374,
            "time": 226.87241788541664,
            "velocity": 0.3937007874015748
          },
          {
            "duration": 0.21739099999999212,
            "durationTicks": 192,
            "midi": 63,
            "name": "D#4",
            "ticks": 200470,
            "time": 226.98111338541665,
            "velocity": 0.3937007874015748
          },
          {
            "duration": 0.21739099999999212,
            "durationTicks": 192,
            "midi": 58,
            "name": "A#3",
            "ticks": 200470,
            "time": 226.98111338541665,
            "velocity": 0.3937007874015748
          },
          {
            "duration": 0.21739099999999212,
            "durationTicks": 192,
            "midi": 70,
            "name": "A#4",
            "ticks": 200470,
            "time": 226.98111338541665,
            "velocity": 0.3937007874015748
          },
          {
            "duration": 0.10869550000001027,
            "durationTicks": 96,
            "midi": 27,
            "name": "D#1",
            "ticks": 200470,
            "time": 226.98111338541665,
            "velocity": 0.3937007874015748
          },
          {
            "duration": 0.21739099999999212,
            "durationTicks": 192,
            "midi": 87,
            "name": "D#6",
            "ticks": 200470,
            "time": 226.98111338541665,
            "velocity": 0.3937007874015748
          },
          {
            "duration": 0.21739099999999212,
            "durationTicks": 192,
            "midi": 54,
            "name": "F#3",
            "ticks": 200470,
            "time": 226.98111338541665,
            "velocity": 0.3937007874015748
          },
          {
            "duration": 0.10869550000001027,
            "durationTicks": 96,
            "midi": 66,
            "name": "F#4",
            "ticks": 200470,
            "time": 226.98111338541665,
            "velocity": 0.3937007874015748
          },
          {
            "duration": 0.21739099999999212,
            "durationTicks": 192,
            "midi": 34,
            "name": "A#1",
            "ticks": 200470,
            "time": 226.98111338541665,
            "velocity": 0.3937007874015748
          },
          {
            "duration": 0.21739099999999212,
            "durationTicks": 192,
            "midi": 82,
            "name": "A#5",
            "ticks": 200470,
            "time": 226.98111338541665,
            "velocity": 0.3937007874015748
          },
          {
            "duration": 0.21739099999999212,
            "durationTicks": 192,
            "midi": 75,
            "name": "D#5",
            "ticks": 200470,
            "time": 226.98111338541665,
            "velocity": 0.3937007874015748
          },
          {
            "duration": 0.10869550000001027,
            "durationTicks": 96,
            "midi": 39,
            "name": "D#2",
            "ticks": 200470,
            "time": 226.98111338541665,
            "velocity": 0.3937007874015748
          },
          {
            "duration": 0.10869549999998185,
            "durationTicks": 96,
            "midi": 51,
            "name": "D#3",
            "ticks": 200566,
            "time": 227.08980888541666,
            "velocity": 0.3937007874015748
          },
          {
            "duration": 0.10869549999998185,
            "durationTicks": 96,
            "midi": 70,
            "name": "A#4",
            "ticks": 200566,
            "time": 227.08980888541666,
            "velocity": 0.3937007874015748
          },
          {
            "duration": 0.10869549999998185,
            "durationTicks": 96,
            "midi": 39,
            "name": "D#2",
            "ticks": 200566,
            "time": 227.08980888541666,
            "velocity": 0.3937007874015748
          },
          {
            "duration": 0.10869550000001027,
            "durationTicks": 96,
            "midi": 49,
            "name": "C#3",
            "ticks": 200662,
            "time": 227.19850438541664,
            "velocity": 0.3937007874015748
          },
          {
            "duration": 0.21739100000002054,
            "durationTicks": 192,
            "midi": 85,
            "name": "C#6",
            "ticks": 200662,
            "time": 227.19850438541664,
            "velocity": 0.3937007874015748
          },
          {
            "duration": 0.21739100000002054,
            "durationTicks": 192,
            "midi": 54,
            "name": "F#3",
            "ticks": 200662,
            "time": 227.19850438541664,
            "velocity": 0.3937007874015748
          },
          {
            "duration": 0.21739100000002054,
            "durationTicks": 192,
            "midi": 73,
            "name": "C#5",
            "ticks": 200662,
            "time": 227.19850438541664,
            "velocity": 0.3937007874015748
          },
          {
            "duration": 0.21739100000002054,
            "durationTicks": 192,
            "midi": 58,
            "name": "A#3",
            "ticks": 200662,
            "time": 227.19850438541664,
            "velocity": 0.3937007874015748
          },
          {
            "duration": 0.10869550000001027,
            "durationTicks": 96,
            "midi": 37,
            "name": "C#2",
            "ticks": 200662,
            "time": 227.19850438541664,
            "velocity": 0.3937007874015748
          },
          {
            "duration": 0.21739100000002054,
            "durationTicks": 192,
            "midi": 63,
            "name": "D#4",
            "ticks": 200662,
            "time": 227.19850438541664,
            "velocity": 0.3937007874015748
          },
          {
            "duration": 0.21739100000002054,
            "durationTicks": 192,
            "midi": 80,
            "name": "G#5",
            "ticks": 200662,
            "time": 227.19850438541664,
            "velocity": 0.3937007874015748
          },
          {
            "duration": 0.21739100000002054,
            "durationTicks": 192,
            "midi": 68,
            "name": "G#4",
            "ticks": 200662,
            "time": 227.19850438541664,
            "velocity": 0.3937007874015748
          },
          {
            "duration": 0.10869550000001027,
            "durationTicks": 96,
            "midi": 75,
            "name": "D#5",
            "ticks": 200662,
            "time": 227.19850438541664,
            "velocity": 0.3937007874015748
          },
          {
            "duration": 0.10869550000001027,
            "durationTicks": 96,
            "midi": 51,
            "name": "D#3",
            "ticks": 200758,
            "time": 227.30719988541665,
            "velocity": 0.3937007874015748
          },
          {
            "duration": 0.10869550000001027,
            "durationTicks": 96,
            "midi": 78,
            "name": "F#5",
            "ticks": 200758,
            "time": 227.30719988541665,
            "velocity": 0.3937007874015748
          },
          {
            "duration": 0.10869550000001027,
            "durationTicks": 96,
            "midi": 39,
            "name": "D#2",
            "ticks": 200758,
            "time": 227.30719988541665,
            "velocity": 0.3937007874015748
          },
          {
            "duration": 0.21739099999999212,
            "durationTicks": 192,
            "midi": 34,
            "name": "A#1",
            "ticks": 200854,
            "time": 227.41589538541666,
            "velocity": 0.3937007874015748
          },
          {
            "duration": 0.21739099999999212,
            "durationTicks": 192,
            "midi": 58,
            "name": "A#3",
            "ticks": 200854,
            "time": 227.41589538541666,
            "velocity": 0.3937007874015748
          },
          {
            "duration": 0.43478199999998424,
            "durationTicks": 384,
            "midi": 78,
            "name": "F#5",
            "ticks": 200854,
            "time": 227.41589538541666,
            "velocity": 0.3937007874015748
          },
          {
            "duration": 0.43478199999998424,
            "durationTicks": 384,
            "midi": 70,
            "name": "A#4",
            "ticks": 200854,
            "time": 227.41589538541666,
            "velocity": 0.3937007874015748
          },
          {
            "duration": 0.10869549999998185,
            "durationTicks": 96,
            "midi": 27,
            "name": "D#1",
            "ticks": 200854,
            "time": 227.41589538541666,
            "velocity": 0.3937007874015748
          },
          {
            "duration": 0.10869549999998185,
            "durationTicks": 96,
            "midi": 39,
            "name": "D#2",
            "ticks": 200854,
            "time": 227.41589538541666,
            "velocity": 0.3937007874015748
          },
          {
            "duration": 0.21739099999999212,
            "durationTicks": 192,
            "midi": 54,
            "name": "F#3",
            "ticks": 200854,
            "time": 227.41589538541666,
            "velocity": 0.3937007874015748
          },
          {
            "duration": 0.43478199999998424,
            "durationTicks": 384,
            "midi": 82,
            "name": "A#5",
            "ticks": 200854,
            "time": 227.41589538541666,
            "velocity": 0.3937007874015748
          },
          {
            "duration": 0.10869549999998185,
            "durationTicks": 96,
            "midi": 51,
            "name": "D#3",
            "ticks": 200854,
            "time": 227.41589538541666,
            "velocity": 0.3937007874015748
          },
          {
            "duration": 0.43478199999998424,
            "durationTicks": 384,
            "midi": 66,
            "name": "F#4",
            "ticks": 200854,
            "time": 227.41589538541666,
            "velocity": 0.3937007874015748
          },
          {
            "duration": 0.21739099999999212,
            "durationTicks": 192,
            "midi": 63,
            "name": "D#4",
            "ticks": 200854,
            "time": 227.41589538541666,
            "velocity": 0.3937007874015748
          },
          {
            "duration": 0.10869550000001027,
            "durationTicks": 96,
            "midi": 54,
            "name": "F#3",
            "ticks": 200950,
            "time": 227.52459088541664,
            "velocity": 0.3937007874015748
          },
          {
            "duration": 0.10869550000001027,
            "durationTicks": 96,
            "midi": 51,
            "name": "D#3",
            "ticks": 201046,
            "time": 227.63328638541665,
            "velocity": 0.3937007874015748
          },
          {
            "duration": 0.21739099999999212,
            "durationTicks": 192,
            "midi": 63,
            "name": "D#4",
            "ticks": 201046,
            "time": 227.63328638541665,
            "velocity": 0.3937007874015748
          },
          {
            "duration": 0.10869550000001027,
            "durationTicks": 96,
            "midi": 39,
            "name": "D#2",
            "ticks": 201046,
            "time": 227.63328638541665,
            "velocity": 0.3937007874015748
          },
          {
            "duration": 0.10869550000001027,
            "durationTicks": 96,
            "midi": 58,
            "name": "A#3",
            "ticks": 201046,
            "time": 227.63328638541665,
            "velocity": 0.3937007874015748
          },
          {
            "duration": 0.21739099999999212,
            "durationTicks": 192,
            "midi": 54,
            "name": "F#3",
            "ticks": 201046,
            "time": 227.63328638541665,
            "velocity": 0.3937007874015748
          },
          {
            "duration": 0.21739099999999212,
            "durationTicks": 192,
            "midi": 58,
            "name": "A#3",
            "ticks": 201046,
            "time": 227.63328638541665,
            "velocity": 0.3937007874015748
          },
          {
            "duration": 0.10869549999998185,
            "durationTicks": 96,
            "midi": 63,
            "name": "D#4",
            "ticks": 201142,
            "time": 227.74198188541666,
            "velocity": 0.3937007874015748
          },
          {
            "duration": 0.10869549999998185,
            "durationTicks": 96,
            "midi": 51,
            "name": "D#3",
            "ticks": 201142,
            "time": 227.74198188541666,
            "velocity": 0.3937007874015748
          },
          {
            "duration": 0.10869549999998185,
            "durationTicks": 96,
            "midi": 39,
            "name": "D#2",
            "ticks": 201142,
            "time": 227.74198188541666,
            "velocity": 0.3937007874015748
          },
          {
            "duration": 0.10869550000001027,
            "durationTicks": 96,
            "midi": 39,
            "name": "D#2",
            "ticks": 201238,
            "time": 227.85067738541665,
            "velocity": 0.3937007874015748
          },
          {
            "duration": 0.10869550000001027,
            "durationTicks": 96,
            "midi": 27,
            "name": "D#1",
            "ticks": 201238,
            "time": 227.85067738541665,
            "velocity": 0.3937007874015748
          },
          {
            "duration": 0.21739099999999212,
            "durationTicks": 192,
            "midi": 58,
            "name": "A#3",
            "ticks": 201238,
            "time": 227.85067738541665,
            "velocity": 0.3937007874015748
          },
          {
            "duration": 0.21739099999999212,
            "durationTicks": 192,
            "midi": 65,
            "name": "F4",
            "ticks": 201238,
            "time": 227.85067738541665,
            "velocity": 0.3937007874015748
          },
          {
            "duration": 0.21739099999999212,
            "durationTicks": 192,
            "midi": 68,
            "name": "G#4",
            "ticks": 201238,
            "time": 227.85067738541665,
            "velocity": 0.3937007874015748
          },
          {
            "duration": 0.21739099999999212,
            "durationTicks": 192,
            "midi": 54,
            "name": "F#3",
            "ticks": 201238,
            "time": 227.85067738541665,
            "velocity": 0.3937007874015748
          },
          {
            "duration": 0.21739099999999212,
            "durationTicks": 192,
            "midi": 63,
            "name": "D#4",
            "ticks": 201238,
            "time": 227.85067738541665,
            "velocity": 0.3937007874015748
          },
          {
            "duration": 0.21739099999999212,
            "durationTicks": 192,
            "midi": 77,
            "name": "F5",
            "ticks": 201238,
            "time": 227.85067738541665,
            "velocity": 0.3937007874015748
          },
          {
            "duration": 0.10869550000001027,
            "durationTicks": 96,
            "midi": 66,
            "name": "F#4",
            "ticks": 201238,
            "time": 227.85067738541665,
            "velocity": 0.3937007874015748
          },
          {
            "duration": 0.21739099999999212,
            "durationTicks": 192,
            "midi": 34,
            "name": "A#1",
            "ticks": 201238,
            "time": 227.85067738541665,
            "velocity": 0.3937007874015748
          },
          {
            "duration": 0.21739099999999212,
            "durationTicks": 192,
            "midi": 80,
            "name": "G#5",
            "ticks": 201238,
            "time": 227.85067738541665,
            "velocity": 0.3937007874015748
          },
          {
            "duration": 0.10869549999998185,
            "durationTicks": 96,
            "midi": 70,
            "name": "A#4",
            "ticks": 201334,
            "time": 227.95937288541666,
            "velocity": 0.3937007874015748
          },
          {
            "duration": 0.10869549999998185,
            "durationTicks": 96,
            "midi": 51,
            "name": "D#3",
            "ticks": 201334,
            "time": 227.95937288541666,
            "velocity": 0.3937007874015748
          },
          {
            "duration": 0.10869549999998185,
            "durationTicks": 96,
            "midi": 39,
            "name": "D#2",
            "ticks": 201334,
            "time": 227.95937288541666,
            "velocity": 0.3937007874015748
          },
          {
            "duration": 0.10869550000001027,
            "durationTicks": 96,
            "midi": 37,
            "name": "C#2",
            "ticks": 201430,
            "time": 228.06806838541664,
            "velocity": 0.3937007874015748
          },
          {
            "duration": 0.10869550000001027,
            "durationTicks": 96,
            "midi": 49,
            "name": "C#3",
            "ticks": 201430,
            "time": 228.06806838541664,
            "velocity": 0.3937007874015748
          },
          {
            "duration": 0.21739100000002054,
            "durationTicks": 192,
            "midi": 63,
            "name": "D#4",
            "ticks": 201430,
            "time": 228.06806838541664,
            "velocity": 0.3937007874015748
          },
          {
            "duration": 0.10869550000001027,
            "durationTicks": 96,
            "midi": 75,
            "name": "D#5",
            "ticks": 201430,
            "time": 228.06806838541664,
            "velocity": 0.3937007874015748
          },
          {
            "duration": 0.21739100000002054,
            "durationTicks": 192,
            "midi": 54,
            "name": "F#3",
            "ticks": 201430,
            "time": 228.06806838541664,
            "velocity": 0.3937007874015748
          },
          {
            "duration": 0.21739100000002054,
            "durationTicks": 192,
            "midi": 58,
            "name": "A#3",
            "ticks": 201430,
            "time": 228.06806838541664,
            "velocity": 0.3937007874015748
          },
          {
            "duration": 0.21739100000002054,
            "durationTicks": 192,
            "midi": 66,
            "name": "F#4",
            "ticks": 201430,
            "time": 228.06806838541664,
            "velocity": 0.3937007874015748
          },
          {
            "duration": 0.21739100000002054,
            "durationTicks": 192,
            "midi": 82,
            "name": "A#5",
            "ticks": 201430,
            "time": 228.06806838541664,
            "velocity": 0.3937007874015748
          },
          {
            "duration": 0.21739100000002054,
            "durationTicks": 192,
            "midi": 70,
            "name": "A#4",
            "ticks": 201430,
            "time": 228.06806838541664,
            "velocity": 0.3937007874015748
          },
          {
            "duration": 0.21739100000002054,
            "durationTicks": 192,
            "midi": 78,
            "name": "F#5",
            "ticks": 201430,
            "time": 228.06806838541664,
            "velocity": 0.3937007874015748
          },
          {
            "duration": 0.10869550000001027,
            "durationTicks": 96,
            "midi": 51,
            "name": "D#3",
            "ticks": 201526,
            "time": 228.17676388541665,
            "velocity": 0.3937007874015748
          },
          {
            "duration": 0.10869550000001027,
            "durationTicks": 96,
            "midi": 39,
            "name": "D#2",
            "ticks": 201526,
            "time": 228.17676388541665,
            "velocity": 0.3937007874015748
          },
          {
            "duration": 0.10869550000001027,
            "durationTicks": 96,
            "midi": 78,
            "name": "F#5",
            "ticks": 201526,
            "time": 228.17676388541665,
            "velocity": 0.3937007874015748
          },
          {
            "duration": 0.21739099999999212,
            "durationTicks": 192,
            "midi": 58,
            "name": "A#3",
            "ticks": 201622,
            "time": 228.28545938541666,
            "velocity": 0.3937007874015748
          },
          {
            "duration": 0.21739099999999212,
            "durationTicks": 192,
            "midi": 68,
            "name": "G#4",
            "ticks": 201622,
            "time": 228.28545938541666,
            "velocity": 0.3937007874015748
          },
          {
            "duration": 0.21739099999999212,
            "durationTicks": 192,
            "midi": 80,
            "name": "G#5",
            "ticks": 201622,
            "time": 228.28545938541666,
            "velocity": 0.3937007874015748
          },
          {
            "duration": 0.21739099999999212,
            "durationTicks": 192,
            "midi": 63,
            "name": "D#4",
            "ticks": 201622,
            "time": 228.28545938541666,
            "velocity": 0.3937007874015748
          },
          {
            "duration": 0.21739099999999212,
            "durationTicks": 192,
            "midi": 77,
            "name": "F5",
            "ticks": 201622,
            "time": 228.28545938541666,
            "velocity": 0.3937007874015748
          },
          {
            "duration": 0.21739099999999212,
            "durationTicks": 192,
            "midi": 34,
            "name": "A#1",
            "ticks": 201622,
            "time": 228.28545938541666,
            "velocity": 0.3937007874015748
          },
          {
            "duration": 0.10869549999998185,
            "durationTicks": 96,
            "midi": 51,
            "name": "D#3",
            "ticks": 201622,
            "time": 228.28545938541666,
            "velocity": 0.3937007874015748
          },
          {
            "duration": 0.21739099999999212,
            "durationTicks": 192,
            "midi": 54,
            "name": "F#3",
            "ticks": 201622,
            "time": 228.28545938541666,
            "velocity": 0.3937007874015748
          },
          {
            "duration": 0.21739099999999212,
            "durationTicks": 192,
            "midi": 65,
            "name": "F4",
            "ticks": 201622,
            "time": 228.28545938541666,
            "velocity": 0.3937007874015748
          },
          {
            "duration": 0.10869549999998185,
            "durationTicks": 96,
            "midi": 39,
            "name": "D#2",
            "ticks": 201622,
            "time": 228.28545938541666,
            "velocity": 0.3937007874015748
          },
          {
            "duration": 0.10869549999998185,
            "durationTicks": 96,
            "midi": 27,
            "name": "D#1",
            "ticks": 201622,
            "time": 228.28545938541666,
            "velocity": 0.3937007874015748
          },
          {
            "duration": 0.10869550000001027,
            "durationTicks": 96,
            "midi": 54,
            "name": "F#3",
            "ticks": 201718,
            "time": 228.39415488541664,
            "velocity": 0.3937007874015748
          },
          {
            "duration": 0.10869550000001027,
            "durationTicks": 96,
            "midi": 58,
            "name": "A#3",
            "ticks": 201814,
            "time": 228.50285038541665,
            "velocity": 0.3937007874015748
          },
          {
            "duration": 0.21739099999999212,
            "durationTicks": 192,
            "midi": 78,
            "name": "F#5",
            "ticks": 201814,
            "time": 228.50285038541665,
            "velocity": 0.3937007874015748
          },
          {
            "duration": 0.21739099999999212,
            "durationTicks": 192,
            "midi": 75,
            "name": "D#5",
            "ticks": 201814,
            "time": 228.50285038541665,
            "velocity": 0.3937007874015748
          },
          {
            "duration": 0.21739099999999212,
            "durationTicks": 192,
            "midi": 63,
            "name": "D#4",
            "ticks": 201814,
            "time": 228.50285038541665,
            "velocity": 0.3937007874015748
          },
          {
            "duration": 0.10869550000001027,
            "durationTicks": 96,
            "midi": 51,
            "name": "D#3",
            "ticks": 201814,
            "time": 228.50285038541665,
            "velocity": 0.3937007874015748
          },
          {
            "duration": 0.21739099999999212,
            "durationTicks": 192,
            "midi": 58,
            "name": "A#3",
            "ticks": 201814,
            "time": 228.50285038541665,
            "velocity": 0.3937007874015748
          },
          {
            "duration": 0.21739099999999212,
            "durationTicks": 192,
            "midi": 66,
            "name": "F#4",
            "ticks": 201814,
            "time": 228.50285038541665,
            "velocity": 0.3937007874015748
          },
          {
            "duration": 0.21739099999999212,
            "durationTicks": 192,
            "midi": 63,
            "name": "D#4",
            "ticks": 201814,
            "time": 228.50285038541665,
            "velocity": 0.3937007874015748
          },
          {
            "duration": 0.10869550000001027,
            "durationTicks": 96,
            "midi": 39,
            "name": "D#2",
            "ticks": 201814,
            "time": 228.50285038541665,
            "velocity": 0.3937007874015748
          },
          {
            "duration": 0.21739099999999212,
            "durationTicks": 192,
            "midi": 54,
            "name": "F#3",
            "ticks": 201814,
            "time": 228.50285038541665,
            "velocity": 0.3937007874015748
          },
          {
            "duration": 0.10869549999998185,
            "durationTicks": 96,
            "midi": 63,
            "name": "D#4",
            "ticks": 201910,
            "time": 228.61154588541666,
            "velocity": 0.3937007874015748
          },
          {
            "duration": 0.10869549999998185,
            "durationTicks": 96,
            "midi": 51,
            "name": "D#3",
            "ticks": 201910,
            "time": 228.61154588541666,
            "velocity": 0.3937007874015748
          },
          {
            "duration": 0.10869549999998185,
            "durationTicks": 96,
            "midi": 39,
            "name": "D#2",
            "ticks": 201910,
            "time": 228.61154588541666,
            "velocity": 0.3937007874015748
          },
          {
            "duration": 0.21739100000002054,
            "durationTicks": 192,
            "midi": 65,
            "name": "F4",
            "ticks": 202006,
            "time": 228.72024138541664,
            "velocity": 0.3937007874015748
          },
          {
            "duration": 0.21739100000002054,
            "durationTicks": 192,
            "midi": 61,
            "name": "C#4",
            "ticks": 202006,
            "time": 228.72024138541664,
            "velocity": 0.3937007874015748
          },
          {
            "duration": 0.21739100000002054,
            "durationTicks": 192,
            "midi": 58,
            "name": "A#3",
            "ticks": 202006,
            "time": 228.72024138541664,
            "velocity": 0.3937007874015748
          },
          {
            "duration": 0.10869550000001027,
            "durationTicks": 96,
            "midi": 27,
            "name": "D#1",
            "ticks": 202006,
            "time": 228.72024138541664,
            "velocity": 0.3937007874015748
          },
          {
            "duration": 0.21739100000002054,
            "durationTicks": 192,
            "midi": 77,
            "name": "F5",
            "ticks": 202006,
            "time": 228.72024138541664,
            "velocity": 0.3937007874015748
          },
          {
            "duration": 0.10869550000001027,
            "durationTicks": 96,
            "midi": 66,
            "name": "F#4",
            "ticks": 202006,
            "time": 228.72024138541664,
            "velocity": 0.3937007874015748
          },
          {
            "duration": 0.21739100000002054,
            "durationTicks": 192,
            "midi": 34,
            "name": "A#1",
            "ticks": 202006,
            "time": 228.72024138541664,
            "velocity": 0.3937007874015748
          },
          {
            "duration": 0.21739100000002054,
            "durationTicks": 192,
            "midi": 73,
            "name": "C#5",
            "ticks": 202006,
            "time": 228.72024138541664,
            "velocity": 0.3937007874015748
          },
          {
            "duration": 0.21739100000002054,
            "durationTicks": 192,
            "midi": 54,
            "name": "F#3",
            "ticks": 202006,
            "time": 228.72024138541664,
            "velocity": 0.3937007874015748
          },
          {
            "duration": 0.21739100000002054,
            "durationTicks": 192,
            "midi": 63,
            "name": "D#4",
            "ticks": 202006,
            "time": 228.72024138541664,
            "velocity": 0.3937007874015748
          },
          {
            "duration": 0.10869550000001027,
            "durationTicks": 96,
            "midi": 39,
            "name": "D#2",
            "ticks": 202006,
            "time": 228.72024138541664,
            "velocity": 0.3937007874015748
          },
          {
            "duration": 0.10869550000001027,
            "durationTicks": 96,
            "midi": 70,
            "name": "A#4",
            "ticks": 202102,
            "time": 228.82893688541665,
            "velocity": 0.3937007874015748
          },
          {
            "duration": 0.10869550000001027,
            "durationTicks": 96,
            "midi": 39,
            "name": "D#2",
            "ticks": 202102,
            "time": 228.82893688541665,
            "velocity": 0.3937007874015748
          },
          {
            "duration": 0.10869550000001027,
            "durationTicks": 96,
            "midi": 51,
            "name": "D#3",
            "ticks": 202102,
            "time": 228.82893688541665,
            "velocity": 0.3937007874015748
          },
          {
            "duration": 0.21739099999999212,
            "durationTicks": 192,
            "midi": 68,
            "name": "G#4",
            "ticks": 202198,
            "time": 228.93763238541666,
            "velocity": 0.3937007874015748
          },
          {
            "duration": 0.10869549999998185,
            "durationTicks": 96,
            "midi": 75,
            "name": "D#5",
            "ticks": 202198,
            "time": 228.93763238541666,
            "velocity": 0.3937007874015748
          },
          {
            "duration": 0.21739099999999212,
            "durationTicks": 192,
            "midi": 54,
            "name": "F#3",
            "ticks": 202198,
            "time": 228.93763238541666,
            "velocity": 0.3937007874015748
          },
          {
            "duration": 0.21739099999999212,
            "durationTicks": 192,
            "midi": 61,
            "name": "C#4",
            "ticks": 202198,
            "time": 228.93763238541666,
            "velocity": 0.3937007874015748
          },
          {
            "duration": 0.21739099999999212,
            "durationTicks": 192,
            "midi": 58,
            "name": "A#3",
            "ticks": 202198,
            "time": 228.93763238541666,
            "velocity": 0.3937007874015748
          },
          {
            "duration": 0.10869549999998185,
            "durationTicks": 96,
            "midi": 49,
            "name": "C#3",
            "ticks": 202198,
            "time": 228.93763238541666,
            "velocity": 0.3937007874015748
          },
          {
            "duration": 0.10869549999998185,
            "durationTicks": 96,
            "midi": 37,
            "name": "C#2",
            "ticks": 202198,
            "time": 228.93763238541666,
            "velocity": 0.3937007874015748
          },
          {
            "duration": 0.21739099999999212,
            "durationTicks": 192,
            "midi": 63,
            "name": "D#4",
            "ticks": 202198,
            "time": 228.93763238541666,
            "velocity": 0.3937007874015748
          },
          {
            "duration": 0.21739099999999212,
            "durationTicks": 192,
            "midi": 56,
            "name": "G#3",
            "ticks": 202198,
            "time": 228.93763238541666,
            "velocity": 0.3937007874015748
          },
          {
            "duration": 0.21739099999999212,
            "durationTicks": 192,
            "midi": 73,
            "name": "C#5",
            "ticks": 202198,
            "time": 228.93763238541666,
            "velocity": 0.3937007874015748
          },
          {
            "duration": 0.10869550000001027,
            "durationTicks": 96,
            "midi": 39,
            "name": "D#2",
            "ticks": 202294,
            "time": 229.04632788541664,
            "velocity": 0.3937007874015748
          },
          {
            "duration": 0.10869550000001027,
            "durationTicks": 96,
            "midi": 51,
            "name": "D#3",
            "ticks": 202294,
            "time": 229.04632788541664,
            "velocity": 0.3937007874015748
          },
          {
            "duration": 0.10869550000001027,
            "durationTicks": 96,
            "midi": 78,
            "name": "F#5",
            "ticks": 202294,
            "time": 229.04632788541664,
            "velocity": 0.3937007874015748
          },
          {
            "duration": 0.43478199999998424,
            "durationTicks": 384,
            "midi": 60,
            "name": "C4",
            "ticks": 202390,
            "time": 229.15502338541665,
            "velocity": 0.3937007874015748
          },
          {
            "duration": 0.43478199999998424,
            "durationTicks": 384,
            "midi": 68,
            "name": "G#4",
            "ticks": 202390,
            "time": 229.15502338541665,
            "velocity": 0.3937007874015748
          },
          {
            "duration": 0.43478199999998424,
            "durationTicks": 384,
            "midi": 51,
            "name": "D#3",
            "ticks": 202390,
            "time": 229.15502338541665,
            "velocity": 0.3937007874015748
          },
          {
            "duration": 0.6521730000000048,
            "durationTicks": 576,
            "midi": 87,
            "name": "D#6",
            "ticks": 202390,
            "time": 229.15502338541665,
            "velocity": 0.3937007874015748
          },
          {
            "duration": 0.43478199999998424,
            "durationTicks": 384,
            "midi": 44,
            "name": "G#2",
            "ticks": 202390,
            "time": 229.15502338541665,
            "velocity": 0.3937007874015748
          },
          {
            "duration": 0.21739099999999212,
            "durationTicks": 192,
            "midi": 75,
            "name": "D#5",
            "ticks": 202390,
            "time": 229.15502338541665,
            "velocity": 0.3937007874015748
          },
          {
            "duration": 0.43478199999998424,
            "durationTicks": 384,
            "midi": 39,
            "name": "D#2",
            "ticks": 202390,
            "time": 229.15502338541665,
            "velocity": 0.3937007874015748
          },
          {
            "duration": 0.21739099999999212,
            "durationTicks": 192,
            "midi": 63,
            "name": "D#4",
            "ticks": 202390,
            "time": 229.15502338541665,
            "velocity": 0.3937007874015748
          },
          {
            "duration": 0.21739099999999212,
            "durationTicks": 192,
            "midi": 34,
            "name": "A#1",
            "ticks": 202390,
            "time": 229.15502338541665,
            "velocity": 0.3937007874015748
          },
          {
            "duration": 0.43478199999998424,
            "durationTicks": 384,
            "midi": 56,
            "name": "G#3",
            "ticks": 202390,
            "time": 229.15502338541665,
            "velocity": 0.3937007874015748
          },
          {
            "duration": 0.21739099999999212,
            "durationTicks": 192,
            "midi": 70,
            "name": "A#4",
            "ticks": 202390,
            "time": 229.15502338541665,
            "velocity": 0.3937007874015748
          },
          {
            "duration": 0.21739099999999212,
            "durationTicks": 192,
            "midi": 58,
            "name": "A#3",
            "ticks": 202390,
            "time": 229.15502338541665,
            "velocity": 0.3937007874015748
          },
          {
            "duration": 0.43478199999998424,
            "durationTicks": 384,
            "midi": 63,
            "name": "D#4",
            "ticks": 202390,
            "time": 229.15502338541665,
            "velocity": 0.3937007874015748
          },
          {
            "duration": 0.21739100000002054,
            "durationTicks": 192,
            "midi": 34,
            "name": "A#1",
            "ticks": 202774,
            "time": 229.58980538541664,
            "velocity": 0.3937007874015748
          },
          {
            "duration": 0.43478200000001266,
            "durationTicks": 384,
            "midi": 37,
            "name": "C#2",
            "ticks": 202774,
            "time": 229.58980538541664,
            "velocity": 0.3937007874015748
          },
          {
            "duration": 0.43478200000001266,
            "durationTicks": 384,
            "midi": 54,
            "name": "F#3",
            "ticks": 202774,
            "time": 229.58980538541664,
            "velocity": 0.3937007874015748
          },
          {
            "duration": 0.21739100000002054,
            "durationTicks": 192,
            "midi": 82,
            "name": "A#5",
            "ticks": 202774,
            "time": 229.58980538541664,
            "velocity": 0.3937007874015748
          },
          {
            "duration": 0.21739100000002054,
            "durationTicks": 192,
            "midi": 70,
            "name": "A#4",
            "ticks": 202774,
            "time": 229.58980538541664,
            "velocity": 0.3937007874015748
          },
          {
            "duration": 0.43478200000001266,
            "durationTicks": 384,
            "midi": 49,
            "name": "C#3",
            "ticks": 202774,
            "time": 229.58980538541664,
            "velocity": 0.3937007874015748
          },
          {
            "duration": 0.43478200000001266,
            "durationTicks": 384,
            "midi": 42,
            "name": "F#2",
            "ticks": 202774,
            "time": 229.58980538541664,
            "velocity": 0.3937007874015748
          },
          {
            "duration": 0.21739100000002054,
            "durationTicks": 192,
            "midi": 66,
            "name": "F#4",
            "ticks": 202774,
            "time": 229.58980538541664,
            "velocity": 0.3937007874015748
          },
          {
            "duration": 0.43478200000001266,
            "durationTicks": 384,
            "midi": 66,
            "name": "F#4",
            "ticks": 202774,
            "time": 229.58980538541664,
            "velocity": 0.3937007874015748
          },
          {
            "duration": 0.43478200000001266,
            "durationTicks": 384,
            "midi": 61,
            "name": "C#4",
            "ticks": 202774,
            "time": 229.58980538541664,
            "velocity": 0.3937007874015748
          },
          {
            "duration": 0.43478200000001266,
            "durationTicks": 384,
            "midi": 58,
            "name": "A#3",
            "ticks": 202774,
            "time": 229.58980538541664,
            "velocity": 0.3937007874015748
          },
          {
            "duration": 0.21739100000002054,
            "durationTicks": 192,
            "midi": 78,
            "name": "F#5",
            "ticks": 202774,
            "time": 229.58980538541664,
            "velocity": 0.3937007874015748
          },
          {
            "duration": 0.21739099999999212,
            "durationTicks": 192,
            "midi": 68,
            "name": "G#4",
            "ticks": 202966,
            "time": 229.80719638541666,
            "velocity": 0.3937007874015748
          },
          {
            "duration": 0.21739099999999212,
            "durationTicks": 192,
            "midi": 80,
            "name": "G#5",
            "ticks": 202966,
            "time": 229.80719638541666,
            "velocity": 0.3937007874015748
          },
          {
            "duration": 0.21739099999999212,
            "durationTicks": 192,
            "midi": 85,
            "name": "C#6",
            "ticks": 202966,
            "time": 229.80719638541666,
            "velocity": 0.3937007874015748
          },
          {
            "duration": 0.21739099999999212,
            "durationTicks": 192,
            "midi": 73,
            "name": "C#5",
            "ticks": 202966,
            "time": 229.80719638541666,
            "velocity": 0.3937007874015748
          },
          {
            "duration": 0.21739099999999212,
            "durationTicks": 192,
            "midi": 68,
            "name": "G#4",
            "ticks": 203158,
            "time": 230.02458738541665,
            "velocity": 0.3937007874015748
          },
          {
            "duration": 0.21739099999999212,
            "durationTicks": 192,
            "midi": 80,
            "name": "G#5",
            "ticks": 203158,
            "time": 230.02458738541665,
            "velocity": 0.3937007874015748
          },
          {
            "duration": 1.7391279999999938,
            "durationTicks": 1536,
            "midi": 42,
            "name": "F#2",
            "ticks": 203158,
            "time": 230.02458738541665,
            "velocity": 0.3937007874015748
          },
          {
            "duration": 0.10869550000001027,
            "durationTicks": 96,
            "midi": 47,
            "name": "B2",
            "ticks": 203158,
            "time": 230.02458738541665,
            "velocity": 0.3937007874015748
          },
          {
            "duration": 0.9782595000000072,
            "durationTicks": 864,
            "midi": 47,
            "name": "B2",
            "ticks": 203158,
            "time": 230.02458738541665,
            "velocity": 0.3937007874015748
          },
          {
            "duration": 0.21739099999999212,
            "durationTicks": 192,
            "midi": 85,
            "name": "C#6",
            "ticks": 203158,
            "time": 230.02458738541665,
            "velocity": 0.3937007874015748
          },
          {
            "duration": 0.21739099999999212,
            "durationTicks": 192,
            "midi": 51,
            "name": "D#3",
            "ticks": 203158,
            "time": 230.02458738541665,
            "velocity": 0.3937007874015748
          },
          {
            "duration": 1.7391279999999938,
            "durationTicks": 1536,
            "midi": 35,
            "name": "B1",
            "ticks": 203158,
            "time": 230.02458738541665,
            "velocity": 0.3937007874015748
          },
          {
            "duration": 0.21739099999999212,
            "durationTicks": 192,
            "midi": 34,
            "name": "A#1",
            "ticks": 203158,
            "time": 230.02458738541665,
            "velocity": 0.3937007874015748
          },
          {
            "duration": 0.21739099999999212,
            "durationTicks": 192,
            "midi": 73,
            "name": "C#5",
            "ticks": 203158,
            "time": 230.02458738541665,
            "velocity": 0.3937007874015748
          },
          {
            "duration": 1.7391279999999938,
            "durationTicks": 1536,
            "midi": 30,
            "name": "F#1",
            "ticks": 203158,
            "time": 230.02458738541665,
            "velocity": 0.3937007874015748
          },
          {
            "duration": 0.21739099999999212,
            "durationTicks": 192,
            "midi": 54,
            "name": "F#3",
            "ticks": 203158,
            "time": 230.02458738541665,
            "velocity": 0.3937007874015748
          },
          {
            "duration": 0.21739099999999212,
            "durationTicks": 192,
            "midi": 59,
            "name": "B3",
            "ticks": 203158,
            "time": 230.02458738541665,
            "velocity": 0.3937007874015748
          },
          {
            "duration": 0.10869549999998185,
            "durationTicks": 96,
            "midi": 51,
            "name": "D#3",
            "ticks": 203254,
            "time": 230.13328288541666,
            "velocity": 0.3937007874015748
          },
          {
            "duration": 0.10869550000001027,
            "durationTicks": 96,
            "midi": 54,
            "name": "F#3",
            "ticks": 203350,
            "time": 230.24197838541664,
            "velocity": 0.3937007874015748
          },
          {
            "duration": 0.21739100000002054,
            "durationTicks": 192,
            "midi": 75,
            "name": "D#5",
            "ticks": 203350,
            "time": 230.24197838541664,
            "velocity": 0.3937007874015748
          },
          {
            "duration": 0.21739100000002054,
            "durationTicks": 192,
            "midi": 59,
            "name": "B3",
            "ticks": 203350,
            "time": 230.24197838541664,
            "velocity": 0.3937007874015748
          },
          {
            "duration": 0.21739100000002054,
            "durationTicks": 192,
            "midi": 87,
            "name": "D#6",
            "ticks": 203350,
            "time": 230.24197838541664,
            "velocity": 0.3937007874015748
          },
          {
            "duration": 0.3260865000000024,
            "durationTicks": 288,
            "midi": 54,
            "name": "F#3",
            "ticks": 203350,
            "time": 230.24197838541664,
            "velocity": 0.3937007874015748
          },
          {
            "duration": 0.3260865000000024,
            "durationTicks": 288,
            "midi": 51,
            "name": "D#3",
            "ticks": 203350,
            "time": 230.24197838541664,
            "velocity": 0.3937007874015748
          },
          {
            "duration": 0.21739100000002054,
            "durationTicks": 192,
            "midi": 70,
            "name": "A#4",
            "ticks": 203350,
            "time": 230.24197838541664,
            "velocity": 0.3937007874015748
          },
          {
            "duration": 0.21739100000002054,
            "durationTicks": 192,
            "midi": 82,
            "name": "A#5",
            "ticks": 203350,
            "time": 230.24197838541664,
            "velocity": 0.3937007874015748
          },
          {
            "duration": 0.21739099999999212,
            "durationTicks": 192,
            "midi": 59,
            "name": "B3",
            "ticks": 203446,
            "time": 230.35067388541665,
            "velocity": 0.3937007874015748
          },
          {
            "duration": 0.21739099999999212,
            "durationTicks": 192,
            "midi": 82,
            "name": "A#5",
            "ticks": 203542,
            "time": 230.45936938541666,
            "velocity": 0.3937007874015748
          },
          {
            "duration": 0.10869549999998185,
            "durationTicks": 96,
            "midi": 63,
            "name": "D#4",
            "ticks": 203542,
            "time": 230.45936938541666,
            "velocity": 0.3937007874015748
          },
          {
            "duration": 0.21739099999999212,
            "durationTicks": 192,
            "midi": 78,
            "name": "F#5",
            "ticks": 203542,
            "time": 230.45936938541666,
            "velocity": 0.3937007874015748
          },
          {
            "duration": 0.21739099999999212,
            "durationTicks": 192,
            "midi": 70,
            "name": "A#4",
            "ticks": 203542,
            "time": 230.45936938541666,
            "velocity": 0.3937007874015748
          },
          {
            "duration": 0.21739099999999212,
            "durationTicks": 192,
            "midi": 66,
            "name": "F#4",
            "ticks": 203542,
            "time": 230.45936938541666,
            "velocity": 0.3937007874015748
          },
          {
            "duration": 0.3260865000000024,
            "durationTicks": 288,
            "midi": 59,
            "name": "B3",
            "ticks": 203638,
            "time": 230.56806488541665,
            "velocity": 0.3937007874015748
          },
          {
            "duration": 0.3260865000000024,
            "durationTicks": 288,
            "midi": 51,
            "name": "D#3",
            "ticks": 203638,
            "time": 230.56806488541665,
            "velocity": 0.3937007874015748
          },
          {
            "duration": 0.10869550000001027,
            "durationTicks": 96,
            "midi": 66,
            "name": "F#4",
            "ticks": 203638,
            "time": 230.56806488541665,
            "velocity": 0.3937007874015748
          },
          {
            "duration": 0.3260865000000024,
            "durationTicks": 288,
            "midi": 54,
            "name": "F#3",
            "ticks": 203638,
            "time": 230.56806488541665,
            "velocity": 0.3937007874015748
          },
          {
            "duration": 0.21739099999999212,
            "durationTicks": 192,
            "midi": 77,
            "name": "F5",
            "ticks": 203734,
            "time": 230.67676038541666,
            "velocity": 0.3937007874015748
          },
          {
            "duration": 0.21739099999999212,
            "durationTicks": 192,
            "midi": 65,
            "name": "F4",
            "ticks": 203734,
            "time": 230.67676038541666,
            "velocity": 0.3937007874015748
          },
          {
            "duration": 0.10869549999998185,
            "durationTicks": 96,
            "midi": 71,
            "name": "B4",
            "ticks": 203734,
            "time": 230.67676038541666,
            "velocity": 0.3937007874015748
          },
          {
            "duration": 0.21739099999999212,
            "durationTicks": 192,
            "midi": 68,
            "name": "G#4",
            "ticks": 203734,
            "time": 230.67676038541666,
            "velocity": 0.3937007874015748
          },
          {
            "duration": 0.21739099999999212,
            "durationTicks": 192,
            "midi": 80,
            "name": "G#5",
            "ticks": 203734,
            "time": 230.67676038541666,
            "velocity": 0.3937007874015748
          },
          {
            "duration": 0.10869550000001027,
            "durationTicks": 96,
            "midi": 75,
            "name": "D#5",
            "ticks": 203830,
            "time": 230.78545588541664,
            "velocity": 0.3937007874015748
          },
          {
            "duration": 0.21739099999999212,
            "durationTicks": 192,
            "midi": 54,
            "name": "F#3",
            "ticks": 203926,
            "time": 230.89415138541665,
            "velocity": 0.3937007874015748
          },
          {
            "duration": 0.21739099999999212,
            "durationTicks": 192,
            "midi": 70,
            "name": "A#4",
            "ticks": 203926,
            "time": 230.89415138541665,
            "velocity": 0.3937007874015748
          },
          {
            "duration": 0.21739099999999212,
            "durationTicks": 192,
            "midi": 51,
            "name": "D#3",
            "ticks": 203926,
            "time": 230.89415138541665,
            "velocity": 0.3937007874015748
          },
          {
            "duration": 0.21739099999999212,
            "durationTicks": 192,
            "midi": 82,
            "name": "A#5",
            "ticks": 203926,
            "time": 230.89415138541665,
            "velocity": 0.3937007874015748
          },
          {
            "duration": 0.21739099999999212,
            "durationTicks": 192,
            "midi": 78,
            "name": "F#5",
            "ticks": 203926,
            "time": 230.89415138541665,
            "velocity": 0.3937007874015748
          },
          {
            "duration": 0.21739099999999212,
            "durationTicks": 192,
            "midi": 59,
            "name": "B3",
            "ticks": 203926,
            "time": 230.89415138541665,
            "velocity": 0.3937007874015748
          },
          {
            "duration": 0.21739099999999212,
            "durationTicks": 192,
            "midi": 66,
            "name": "F#4",
            "ticks": 203926,
            "time": 230.89415138541665,
            "velocity": 0.3937007874015748
          },
          {
            "duration": 0.8695639999999969,
            "durationTicks": 768,
            "midi": 47,
            "name": "B2",
            "ticks": 203926,
            "time": 230.89415138541665,
            "velocity": 0.3937007874015748
          },
          {
            "duration": 0.10869549999998185,
            "durationTicks": 96,
            "midi": 51,
            "name": "D#3",
            "ticks": 204022,
            "time": 231.00284688541666,
            "velocity": 0.3937007874015748
          },
          {
            "duration": 0.10869550000001027,
            "durationTicks": 96,
            "midi": 54,
            "name": "F#3",
            "ticks": 204118,
            "time": 231.11154238541664,
            "velocity": 0.3937007874015748
          },
          {
            "duration": 0.3260865000000024,
            "durationTicks": 288,
            "midi": 51,
            "name": "D#3",
            "ticks": 204118,
            "time": 231.11154238541664,
            "velocity": 0.3937007874015748
          },
          {
            "duration": 0.3260865000000024,
            "durationTicks": 288,
            "midi": 54,
            "name": "F#3",
            "ticks": 204118,
            "time": 231.11154238541664,
            "velocity": 0.3937007874015748
          },
          {
            "duration": 0.21739100000002054,
            "durationTicks": 192,
            "midi": 59,
            "name": "B3",
            "ticks": 204118,
            "time": 231.11154238541664,
            "velocity": 0.3937007874015748
          },
          {
            "duration": 0.21739099999999212,
            "durationTicks": 192,
            "midi": 59,
            "name": "B3",
            "ticks": 204214,
            "time": 231.22023788541665,
            "velocity": 0.3937007874015748
          },
          {
            "duration": 0.21739099999999212,
            "durationTicks": 192,
            "midi": 68,
            "name": "G#4",
            "ticks": 204310,
            "time": 231.32893338541666,
            "velocity": 0.3937007874015748
          },
          {
            "duration": 0.21739099999999212,
            "durationTicks": 192,
            "midi": 65,
            "name": "F4",
            "ticks": 204310,
            "time": 231.32893338541666,
            "velocity": 0.3937007874015748
          },
          {
            "duration": 0.21739099999999212,
            "durationTicks": 192,
            "midi": 77,
            "name": "F5",
            "ticks": 204310,
            "time": 231.32893338541666,
            "velocity": 0.3937007874015748
          },
          {
            "duration": 0.10869549999998185,
            "durationTicks": 96,
            "midi": 63,
            "name": "D#4",
            "ticks": 204310,
            "time": 231.32893338541666,
            "velocity": 0.3937007874015748
          },
          {
            "duration": 0.21739099999999212,
            "durationTicks": 192,
            "midi": 80,
            "name": "G#5",
            "ticks": 204310,
            "time": 231.32893338541666,
            "velocity": 0.3937007874015748
          },
          {
            "duration": 0.3260865000000024,
            "durationTicks": 288,
            "midi": 54,
            "name": "F#3",
            "ticks": 204406,
            "time": 231.43762888541664,
            "velocity": 0.3937007874015748
          },
          {
            "duration": 0.3260865000000024,
            "durationTicks": 288,
            "midi": 51,
            "name": "D#3",
            "ticks": 204406,
            "time": 231.43762888541664,
            "velocity": 0.3937007874015748
          },
          {
            "duration": 0.3260865000000024,
            "durationTicks": 288,
            "midi": 59,
            "name": "B3",
            "ticks": 204406,
            "time": 231.43762888541664,
            "velocity": 0.3937007874015748
          },
          {
            "duration": 0.10869550000001027,
            "durationTicks": 96,
            "midi": 66,
            "name": "F#4",
            "ticks": 204406,
            "time": 231.43762888541664,
            "velocity": 0.3937007874015748
          },
          {
            "duration": 0.21739099999999212,
            "durationTicks": 192,
            "midi": 70,
            "name": "A#4",
            "ticks": 204502,
            "time": 231.54632438541665,
            "velocity": 0.3937007874015748
          },
          {
            "duration": 0.10869550000001027,
            "durationTicks": 96,
            "midi": 71,
            "name": "B4",
            "ticks": 204502,
            "time": 231.54632438541665,
            "velocity": 0.3937007874015748
          },
          {
            "duration": 0.21739099999999212,
            "durationTicks": 192,
            "midi": 82,
            "name": "A#5",
            "ticks": 204502,
            "time": 231.54632438541665,
            "velocity": 0.3937007874015748
          },
          {
            "duration": 0.21739099999999212,
            "durationTicks": 192,
            "midi": 66,
            "name": "F#4",
            "ticks": 204502,
            "time": 231.54632438541665,
            "velocity": 0.3937007874015748
          },
          {
            "duration": 0.21739099999999212,
            "durationTicks": 192,
            "midi": 78,
            "name": "F#5",
            "ticks": 204502,
            "time": 231.54632438541665,
            "velocity": 0.3937007874015748
          },
          {
            "duration": 0.10869549999998185,
            "durationTicks": 96,
            "midi": 75,
            "name": "D#5",
            "ticks": 204598,
            "time": 231.65501988541666,
            "velocity": 0.3937007874015748
          },
          {
            "duration": 1.7391279999999938,
            "durationTicks": 1536,
            "midi": 44,
            "name": "G#2",
            "ticks": 204694,
            "time": 231.76371538541665,
            "velocity": 0.3937007874015748
          },
          {
            "duration": 1.7391279999999938,
            "durationTicks": 1536,
            "midi": 32,
            "name": "G#1",
            "ticks": 204694,
            "time": 231.76371538541665,
            "velocity": 0.3937007874015748
          },
          {
            "duration": 1.7391279999999938,
            "durationTicks": 1536,
            "midi": 37,
            "name": "C#2",
            "ticks": 204694,
            "time": 231.76371538541665,
            "velocity": 0.3937007874015748
          },
          {
            "duration": 0.10869550000001027,
            "durationTicks": 96,
            "midi": 49,
            "name": "C#3",
            "ticks": 204694,
            "time": 231.76371538541665,
            "velocity": 0.3937007874015748
          },
          {
            "duration": 0.21739099999999212,
            "durationTicks": 192,
            "midi": 73,
            "name": "C#5",
            "ticks": 204694,
            "time": 231.76371538541665,
            "velocity": 0.3937007874015748
          },
          {
            "duration": 0.21739099999999212,
            "durationTicks": 192,
            "midi": 53,
            "name": "F3",
            "ticks": 204694,
            "time": 231.76371538541665,
            "velocity": 0.3937007874015748
          },
          {
            "duration": 0.21739099999999212,
            "durationTicks": 192,
            "midi": 85,
            "name": "C#6",
            "ticks": 204694,
            "time": 231.76371538541665,
            "velocity": 0.3937007874015748
          },
          {
            "duration": 0.21739099999999212,
            "durationTicks": 192,
            "midi": 68,
            "name": "G#4",
            "ticks": 204694,
            "time": 231.76371538541665,
            "velocity": 0.3937007874015748
          },
          {
            "duration": 0.21739099999999212,
            "durationTicks": 192,
            "midi": 80,
            "name": "G#5",
            "ticks": 204694,
            "time": 231.76371538541665,
            "velocity": 0.3937007874015748
          },
          {
            "duration": 0.21739099999999212,
            "durationTicks": 192,
            "midi": 56,
            "name": "G#3",
            "ticks": 204694,
            "time": 231.76371538541665,
            "velocity": 0.3937007874015748
          },
          {
            "duration": 0.21739099999999212,
            "durationTicks": 192,
            "midi": 61,
            "name": "C#4",
            "ticks": 204694,
            "time": 231.76371538541665,
            "velocity": 0.3937007874015748
          },
          {
            "duration": 0.9782595000000072,
            "durationTicks": 864,
            "midi": 49,
            "name": "C#3",
            "ticks": 204694,
            "time": 231.76371538541665,
            "velocity": 0.3937007874015748
          },
          {
            "duration": 0.10869549999998185,
            "durationTicks": 96,
            "midi": 53,
            "name": "F3",
            "ticks": 204790,
            "time": 231.87241088541666,
            "velocity": 0.3937007874015748
          },
          {
            "duration": 0.10869550000001027,
            "durationTicks": 96,
            "midi": 56,
            "name": "G#3",
            "ticks": 204886,
            "time": 231.98110638541664,
            "velocity": 0.3937007874015748
          },
          {
            "duration": 0.21739100000002054,
            "durationTicks": 192,
            "midi": 70,
            "name": "A#4",
            "ticks": 204886,
            "time": 231.98110638541664,
            "velocity": 0.3937007874015748
          },
          {
            "duration": 0.21739100000002054,
            "durationTicks": 192,
            "midi": 87,
            "name": "D#6",
            "ticks": 204886,
            "time": 231.98110638541664,
            "velocity": 0.3937007874015748
          },
          {
            "duration": 0.3260865000000024,
            "durationTicks": 288,
            "midi": 56,
            "name": "G#3",
            "ticks": 204886,
            "time": 231.98110638541664,
            "velocity": 0.3937007874015748
          },
          {
            "duration": 0.21739100000002054,
            "durationTicks": 192,
            "midi": 82,
            "name": "A#5",
            "ticks": 204886,
            "time": 231.98110638541664,
            "velocity": 0.3937007874015748
          },
          {
            "duration": 0.3260865000000024,
            "durationTicks": 288,
            "midi": 53,
            "name": "F3",
            "ticks": 204886,
            "time": 231.98110638541664,
            "velocity": 0.3937007874015748
          },
          {
            "duration": 0.21739100000002054,
            "durationTicks": 192,
            "midi": 75,
            "name": "D#5",
            "ticks": 204886,
            "time": 231.98110638541664,
            "velocity": 0.3937007874015748
          },
          {
            "duration": 0.21739100000002054,
            "durationTicks": 192,
            "midi": 61,
            "name": "C#4",
            "ticks": 204886,
            "time": 231.98110638541664,
            "velocity": 0.3937007874015748
          },
          {
            "duration": 0.21739099999999212,
            "durationTicks": 192,
            "midi": 61,
            "name": "C#4",
            "ticks": 204982,
            "time": 232.08980188541665,
            "velocity": 0.3937007874015748
          },
          {
            "duration": 0.21739099999999212,
            "durationTicks": 192,
            "midi": 66,
            "name": "F#4",
            "ticks": 205078,
            "time": 232.19849738541666,
            "velocity": 0.3937007874015748
          },
          {
            "duration": 0.10869549999998185,
            "durationTicks": 96,
            "midi": 65,
            "name": "F4",
            "ticks": 205078,
            "time": 232.19849738541666,
            "velocity": 0.3937007874015748
          },
          {
            "duration": 0.21739099999999212,
            "durationTicks": 192,
            "midi": 78,
            "name": "F#5",
            "ticks": 205078,
            "time": 232.19849738541666,
            "velocity": 0.3937007874015748
          },
          {
            "duration": 0.21739099999999212,
            "durationTicks": 192,
            "midi": 82,
            "name": "A#5",
            "ticks": 205078,
            "time": 232.19849738541666,
            "velocity": 0.3937007874015748
          },
          {
            "duration": 0.21739099999999212,
            "durationTicks": 192,
            "midi": 70,
            "name": "A#4",
            "ticks": 205078,
            "time": 232.19849738541666,
            "velocity": 0.3937007874015748
          },
          {
            "duration": 0.3260865000000024,
            "durationTicks": 288,
            "midi": 53,
            "name": "F3",
            "ticks": 205174,
            "time": 232.30719288541664,
            "velocity": 0.3937007874015748
          },
          {
            "duration": 0.3260865000000024,
            "durationTicks": 288,
            "midi": 56,
            "name": "G#3",
            "ticks": 205174,
            "time": 232.30719288541664,
            "velocity": 0.3937007874015748
          },
          {
            "duration": 0.10869550000001027,
            "durationTicks": 96,
            "midi": 68,
            "name": "G#4",
            "ticks": 205174,
            "time": 232.30719288541664,
            "velocity": 0.3937007874015748
          },
          {
            "duration": 0.3260865000000024,
            "durationTicks": 288,
            "midi": 61,
            "name": "C#4",
            "ticks": 205174,
            "time": 232.30719288541664,
            "velocity": 0.3937007874015748
          },
          {
            "duration": 0.10869550000001027,
            "durationTicks": 96,
            "midi": 73,
            "name": "C#5",
            "ticks": 205270,
            "time": 232.41588838541665,
            "velocity": 0.3937007874015748
          },
          {
            "duration": 0.21739099999999212,
            "durationTicks": 192,
            "midi": 77,
            "name": "F5",
            "ticks": 205270,
            "time": 232.41588838541665,
            "velocity": 0.3937007874015748
          },
          {
            "duration": 0.21739099999999212,
            "durationTicks": 192,
            "midi": 80,
            "name": "G#5",
            "ticks": 205270,
            "time": 232.41588838541665,
            "velocity": 0.3937007874015748
          },
          {
            "duration": 0.21739099999999212,
            "durationTicks": 192,
            "midi": 65,
            "name": "F4",
            "ticks": 205270,
            "time": 232.41588838541665,
            "velocity": 0.3937007874015748
          },
          {
            "duration": 0.21739099999999212,
            "durationTicks": 192,
            "midi": 68,
            "name": "G#4",
            "ticks": 205270,
            "time": 232.41588838541665,
            "velocity": 0.3937007874015748
          },
          {
            "duration": 0.10869549999998185,
            "durationTicks": 96,
            "midi": 77,
            "name": "F5",
            "ticks": 205366,
            "time": 232.52458388541666,
            "velocity": 0.3937007874015748
          },
          {
            "duration": 0.21739100000002054,
            "durationTicks": 192,
            "midi": 70,
            "name": "A#4",
            "ticks": 205462,
            "time": 232.63327938541664,
            "velocity": 0.3937007874015748
          },
          {
            "duration": 0.21739100000002054,
            "durationTicks": 192,
            "midi": 61,
            "name": "C#4",
            "ticks": 205462,
            "time": 232.63327938541664,
            "velocity": 0.3937007874015748
          },
          {
            "duration": 0.21739100000002054,
            "durationTicks": 192,
            "midi": 78,
            "name": "F#5",
            "ticks": 205462,
            "time": 232.63327938541664,
            "velocity": 0.3937007874015748
          },
          {
            "duration": 0.8695639999999969,
            "durationTicks": 768,
            "midi": 49,
            "name": "C#3",
            "ticks": 205462,
            "time": 232.63327938541664,
            "velocity": 0.3937007874015748
          },
          {
            "duration": 0.21739100000002054,
            "durationTicks": 192,
            "midi": 82,
            "name": "A#5",
            "ticks": 205462,
            "time": 232.63327938541664,
            "velocity": 0.3937007874015748
          },
          {
            "duration": 0.21739100000002054,
            "durationTicks": 192,
            "midi": 53,
            "name": "F3",
            "ticks": 205462,
            "time": 232.63327938541664,
            "velocity": 0.3937007874015748
          },
          {
            "duration": 0.21739100000002054,
            "durationTicks": 192,
            "midi": 66,
            "name": "F#4",
            "ticks": 205462,
            "time": 232.63327938541664,
            "velocity": 0.3937007874015748
          },
          {
            "duration": 0.21739100000002054,
            "durationTicks": 192,
            "midi": 56,
            "name": "G#3",
            "ticks": 205462,
            "time": 232.63327938541664,
            "velocity": 0.3937007874015748
          },
          {
            "duration": 0.10869550000001027,
            "durationTicks": 96,
            "midi": 53,
            "name": "F3",
            "ticks": 205558,
            "time": 232.74197488541665,
            "velocity": 0.3937007874015748
          },
          {
            "duration": 0.10869549999998185,
            "durationTicks": 96,
            "midi": 56,
            "name": "G#3",
            "ticks": 205654,
            "time": 232.85067038541666,
            "velocity": 0.3937007874015748
          },
          {
            "duration": 0.32608649999997397,
            "durationTicks": 288,
            "midi": 56,
            "name": "G#3",
            "ticks": 205654,
            "time": 232.85067038541666,
            "velocity": 0.3937007874015748
          },
          {
            "duration": 0.32608649999997397,
            "durationTicks": 288,
            "midi": 53,
            "name": "F3",
            "ticks": 205654,
            "time": 232.85067038541666,
            "velocity": 0.3937007874015748
          },
          {
            "duration": 0.21739099999999212,
            "durationTicks": 192,
            "midi": 61,
            "name": "C#4",
            "ticks": 205654,
            "time": 232.85067038541666,
            "velocity": 0.3937007874015748
          },
          {
            "duration": 0.21739099999999212,
            "durationTicks": 192,
            "midi": 61,
            "name": "C#4",
            "ticks": 205750,
            "time": 232.95936588541664,
            "velocity": 0.3937007874015748
          },
          {
            "duration": 0.21739099999999212,
            "durationTicks": 192,
            "midi": 68,
            "name": "G#4",
            "ticks": 205846,
            "time": 233.06806138541666,
            "velocity": 0.3937007874015748
          },
          {
            "duration": 0.21739099999999212,
            "durationTicks": 192,
            "midi": 77,
            "name": "F5",
            "ticks": 205846,
            "time": 233.06806138541666,
            "velocity": 0.3937007874015748
          },
          {
            "duration": 0.21739099999999212,
            "durationTicks": 192,
            "midi": 80,
            "name": "G#5",
            "ticks": 205846,
            "time": 233.06806138541666,
            "velocity": 0.3937007874015748
          },
          {
            "duration": 0.10869549999998185,
            "durationTicks": 96,
            "midi": 65,
            "name": "F4",
            "ticks": 205846,
            "time": 233.06806138541666,
            "velocity": 0.3937007874015748
          },
          {
            "duration": 0.21739099999999212,
            "durationTicks": 192,
            "midi": 65,
            "name": "F4",
            "ticks": 205846,
            "time": 233.06806138541666,
            "velocity": 0.3937007874015748
          },
          {
            "duration": 0.10869550000001027,
            "durationTicks": 96,
            "midi": 68,
            "name": "G#4",
            "ticks": 205942,
            "time": 233.17675688541664,
            "velocity": 0.3937007874015748
          },
          {
            "duration": 0.3260865000000024,
            "durationTicks": 288,
            "midi": 61,
            "name": "C#4",
            "ticks": 205942,
            "time": 233.17675688541664,
            "velocity": 0.3937007874015748
          },
          {
            "duration": 0.3260865000000024,
            "durationTicks": 288,
            "midi": 56,
            "name": "G#3",
            "ticks": 205942,
            "time": 233.17675688541664,
            "velocity": 0.3937007874015748
          },
          {
            "duration": 0.3260865000000024,
            "durationTicks": 288,
            "midi": 53,
            "name": "F3",
            "ticks": 205942,
            "time": 233.17675688541664,
            "velocity": 0.3937007874015748
          },
          {
            "duration": 0.21739099999999212,
            "durationTicks": 192,
            "midi": 66,
            "name": "F#4",
            "ticks": 206038,
            "time": 233.28545238541665,
            "velocity": 0.3937007874015748
          },
          {
            "duration": 0.21739099999999212,
            "durationTicks": 192,
            "midi": 78,
            "name": "F#5",
            "ticks": 206038,
            "time": 233.28545238541665,
            "velocity": 0.3937007874015748
          },
          {
            "duration": 0.21739099999999212,
            "durationTicks": 192,
            "midi": 70,
            "name": "A#4",
            "ticks": 206038,
            "time": 233.28545238541665,
            "velocity": 0.3937007874015748
          },
          {
            "duration": 0.10869550000001027,
            "durationTicks": 96,
            "midi": 73,
            "name": "C#5",
            "ticks": 206038,
            "time": 233.28545238541665,
            "velocity": 0.3937007874015748
          },
          {
            "duration": 0.21739099999999212,
            "durationTicks": 192,
            "midi": 82,
            "name": "A#5",
            "ticks": 206038,
            "time": 233.28545238541665,
            "velocity": 0.3937007874015748
          },
          {
            "duration": 0.10869549999998185,
            "durationTicks": 96,
            "midi": 77,
            "name": "F5",
            "ticks": 206134,
            "time": 233.39414788541666,
            "velocity": 0.3937007874015748
          },
          {
            "duration": 1.7391280000000222,
            "durationTicks": 1536,
            "midi": 46,
            "name": "A#2",
            "ticks": 206230,
            "time": 233.50284338541664,
            "velocity": 0.3937007874015748
          },
          {
            "duration": 0.21739100000002054,
            "durationTicks": 192,
            "midi": 54,
            "name": "F#3",
            "ticks": 206230,
            "time": 233.50284338541664,
            "velocity": 0.3937007874015748
          },
          {
            "duration": 0.10869550000001027,
            "durationTicks": 96,
            "midi": 51,
            "name": "D#3",
            "ticks": 206230,
            "time": 233.50284338541664,
            "velocity": 0.3937007874015748
          },
          {
            "duration": 1.7391280000000222,
            "durationTicks": 1536,
            "midi": 34,
            "name": "A#1",
            "ticks": 206230,
            "time": 233.50284338541664,
            "velocity": 0.3937007874015748
          },
          {
            "duration": 0.21739100000002054,
            "durationTicks": 192,
            "midi": 68,
            "name": "G#4",
            "ticks": 206230,
            "time": 233.50284338541664,
            "velocity": 0.3937007874015748
          },
          {
            "duration": 0.21739100000002054,
            "durationTicks": 192,
            "midi": 77,
            "name": "F5",
            "ticks": 206230,
            "time": 233.50284338541664,
            "velocity": 0.3937007874015748
          },
          {
            "duration": 0.21739100000002054,
            "durationTicks": 192,
            "midi": 65,
            "name": "F4",
            "ticks": 206230,
            "time": 233.50284338541664,
            "velocity": 0.3937007874015748
          },
          {
            "duration": 0.21739100000002054,
            "durationTicks": 192,
            "midi": 80,
            "name": "G#5",
            "ticks": 206230,
            "time": 233.50284338541664,
            "velocity": 0.3937007874015748
          },
          {
            "duration": 0.9782595000000072,
            "durationTicks": 864,
            "midi": 51,
            "name": "D#3",
            "ticks": 206230,
            "time": 233.50284338541664,
            "velocity": 0.3937007874015748
          },
          {
            "duration": 0.21739100000002054,
            "durationTicks": 192,
            "midi": 63,
            "name": "D#4",
            "ticks": 206230,
            "time": 233.50284338541664,
            "velocity": 0.3937007874015748
          },
          {
            "duration": 0.21739100000002054,
            "durationTicks": 192,
            "midi": 58,
            "name": "A#3",
            "ticks": 206230,
            "time": 233.50284338541664,
            "velocity": 0.3937007874015748
          },
          {
            "duration": 1.7391280000000222,
            "durationTicks": 1536,
            "midi": 39,
            "name": "D#2",
            "ticks": 206230,
            "time": 233.50284338541664,
            "velocity": 0.3937007874015748
          },
          {
            "duration": 0.10869550000001027,
            "durationTicks": 96,
            "midi": 54,
            "name": "F#3",
            "ticks": 206326,
            "time": 233.61153888541665,
            "velocity": 0.3937007874015748
          },
          {
            "duration": 0.21739099999999212,
            "durationTicks": 192,
            "midi": 75,
            "name": "D#5",
            "ticks": 206422,
            "time": 233.72023438541666,
            "velocity": 0.3937007874015748
          },
          {
            "duration": 0.10869549999998185,
            "durationTicks": 96,
            "midi": 58,
            "name": "A#3",
            "ticks": 206422,
            "time": 233.72023438541666,
            "velocity": 0.3937007874015748
          },
          {
            "duration": 0.21739099999999212,
            "durationTicks": 192,
            "midi": 78,
            "name": "F#5",
            "ticks": 206422,
            "time": 233.72023438541666,
            "velocity": 0.3937007874015748
          },
          {
            "duration": 0.3260865000000024,
            "durationTicks": 288,
            "midi": 54,
            "name": "F#3",
            "ticks": 206422,
            "time": 233.72023438541666,
            "velocity": 0.3937007874015748
          },
          {
            "duration": 0.21739099999999212,
            "durationTicks": 192,
            "midi": 63,
            "name": "D#4",
            "ticks": 206422,
            "time": 233.72023438541666,
            "velocity": 0.3937007874015748
          },
          {
            "duration": 0.21739099999999212,
            "durationTicks": 192,
            "midi": 66,
            "name": "F#4",
            "ticks": 206422,
            "time": 233.72023438541666,
            "velocity": 0.3937007874015748
          },
          {
            "duration": 0.3260865000000024,
            "durationTicks": 288,
            "midi": 58,
            "name": "A#3",
            "ticks": 206422,
            "time": 233.72023438541666,
            "velocity": 0.3937007874015748
          },
          {
            "duration": 0.21739099999999212,
            "durationTicks": 192,
            "midi": 63,
            "name": "D#4",
            "ticks": 206422,
            "time": 233.72023438541666,
            "velocity": 0.3937007874015748
          },
          {
            "duration": 0.21739100000002054,
            "durationTicks": 192,
            "midi": 63,
            "name": "D#4",
            "ticks": 206518,
            "time": 233.82892988541664,
            "velocity": 0.3937007874015748
          },
          {
            "duration": 0.21739099999999212,
            "durationTicks": 192,
            "midi": 65,
            "name": "F4",
            "ticks": 206614,
            "time": 233.93762538541665,
            "velocity": 0.3937007874015748
          },
          {
            "duration": 0.21739099999999212,
            "durationTicks": 192,
            "midi": 61,
            "name": "C#4",
            "ticks": 206614,
            "time": 233.93762538541665,
            "velocity": 0.3937007874015748
          },
          {
            "duration": 0.21739099999999212,
            "durationTicks": 192,
            "midi": 73,
            "name": "C#5",
            "ticks": 206614,
            "time": 233.93762538541665,
            "velocity": 0.3937007874015748
          },
          {
            "duration": 0.21739099999999212,
            "durationTicks": 192,
            "midi": 77,
            "name": "F5",
            "ticks": 206614,
            "time": 233.93762538541665,
            "velocity": 0.3937007874015748
          },
          {
            "duration": 0.10869550000001027,
            "durationTicks": 96,
            "midi": 66,
            "name": "F#4",
            "ticks": 206614,
            "time": 233.93762538541665,
            "velocity": 0.3937007874015748
          },
          {
            "duration": 0.3260865000000024,
            "durationTicks": 288,
            "midi": 63,
            "name": "D#4",
            "ticks": 206710,
            "time": 234.04632088541666,
            "velocity": 0.3937007874015748
          },
          {
            "duration": 0.3260865000000024,
            "durationTicks": 288,
            "midi": 54,
            "name": "F#3",
            "ticks": 206710,
            "time": 234.04632088541666,
            "velocity": 0.3937007874015748
          },
          {
            "duration": 0.10869549999998185,
            "durationTicks": 96,
            "midi": 70,
            "name": "A#4",
            "ticks": 206710,
            "time": 234.04632088541666,
            "velocity": 0.3937007874015748
          },
          {
            "duration": 0.3260865000000024,
            "durationTicks": 288,
            "midi": 58,
            "name": "A#3",
            "ticks": 206710,
            "time": 234.04632088541666,
            "velocity": 0.3937007874015748
          },
          {
            "duration": 0.10869550000001027,
            "durationTicks": 96,
            "midi": 75,
            "name": "D#5",
            "ticks": 206806,
            "time": 234.15501638541664,
            "velocity": 0.3937007874015748
          },
          {
            "duration": 0.21739100000002054,
            "durationTicks": 192,
            "midi": 56,
            "name": "G#3",
            "ticks": 206806,
            "time": 234.15501638541664,
            "velocity": 0.3937007874015748
          },
          {
            "duration": 0.21739100000002054,
            "durationTicks": 192,
            "midi": 68,
            "name": "G#4",
            "ticks": 206806,
            "time": 234.15501638541664,
            "velocity": 0.3937007874015748
          },
          {
            "duration": 0.21739100000002054,
            "durationTicks": 192,
            "midi": 61,
            "name": "C#4",
            "ticks": 206806,
            "time": 234.15501638541664,
            "velocity": 0.3937007874015748
          },
          {
            "duration": 0.21739100000002054,
            "durationTicks": 192,
            "midi": 73,
            "name": "C#5",
            "ticks": 206806,
            "time": 234.15501638541664,
            "velocity": 0.3937007874015748
          },
          {
            "duration": 0.10869550000001027,
            "durationTicks": 96,
            "midi": 78,
            "name": "F#5",
            "ticks": 206902,
            "time": 234.26371188541665,
            "velocity": 0.3937007874015748
          },
          {
            "duration": 0.21739099999999212,
            "durationTicks": 192,
            "midi": 58,
            "name": "A#3",
            "ticks": 206998,
            "time": 234.37240738541666,
            "velocity": 0.3937007874015748
          },
          {
            "duration": 0.21739099999999212,
            "durationTicks": 192,
            "midi": 63,
            "name": "D#4",
            "ticks": 206998,
            "time": 234.37240738541666,
            "velocity": 0.3937007874015748
          },
          {
            "duration": 0.21739099999999212,
            "durationTicks": 192,
            "midi": 75,
            "name": "D#5",
            "ticks": 206998,
            "time": 234.37240738541666,
            "velocity": 0.3937007874015748
          },
          {
            "duration": 0.8695639999999969,
            "durationTicks": 768,
            "midi": 51,
            "name": "D#3",
            "ticks": 206998,
            "time": 234.37240738541666,
            "velocity": 0.3937007874015748
          },
          {
            "duration": 0.21739099999999212,
            "durationTicks": 192,
            "midi": 54,
            "name": "F#3",
            "ticks": 206998,
            "time": 234.37240738541666,
            "velocity": 0.3937007874015748
          },
          {
            "duration": 0.21739099999999212,
            "durationTicks": 192,
            "midi": 63,
            "name": "D#4",
            "ticks": 206998,
            "time": 234.37240738541666,
            "velocity": 0.3937007874015748
          },
          {
            "duration": 0.21739099999999212,
            "durationTicks": 192,
            "midi": 58,
            "name": "A#3",
            "ticks": 206998,
            "time": 234.37240738541666,
            "velocity": 0.3937007874015748
          },
          {
            "duration": 0.21739099999999212,
            "durationTicks": 192,
            "midi": 70,
            "name": "A#4",
            "ticks": 206998,
            "time": 234.37240738541666,
            "velocity": 0.3937007874015748
          },
          {
            "duration": 0.10869550000001027,
            "durationTicks": 96,
            "midi": 54,
            "name": "F#3",
            "ticks": 207094,
            "time": 234.48110288541665,
            "velocity": 0.3937007874015748
          },
          {
            "duration": 0.21739099999999212,
            "durationTicks": 192,
            "midi": 63,
            "name": "D#4",
            "ticks": 207190,
            "time": 234.58979838541666,
            "velocity": 0.3937007874015748
          },
          {
            "duration": 0.10869549999998185,
            "durationTicks": 96,
            "midi": 58,
            "name": "A#3",
            "ticks": 207190,
            "time": 234.58979838541666,
            "velocity": 0.3937007874015748
          },
          {
            "duration": 0.3260865000000024,
            "durationTicks": 288,
            "midi": 54,
            "name": "F#3",
            "ticks": 207190,
            "time": 234.58979838541666,
            "velocity": 0.3937007874015748
          },
          {
            "duration": 0.3260865000000024,
            "durationTicks": 288,
            "midi": 58,
            "name": "A#3",
            "ticks": 207190,
            "time": 234.58979838541666,
            "velocity": 0.3937007874015748
          },
          {
            "duration": 0.21739100000002054,
            "durationTicks": 192,
            "midi": 63,
            "name": "D#4",
            "ticks": 207286,
            "time": 234.69849388541664,
            "velocity": 0.3937007874015748
          },
          {
            "duration": 0.21739099999999212,
            "durationTicks": 192,
            "midi": 61,
            "name": "C#4",
            "ticks": 207382,
            "time": 234.80718938541665,
            "velocity": 0.3937007874015748
          },
          {
            "duration": 0.10869550000001027,
            "durationTicks": 96,
            "midi": 66,
            "name": "F#4",
            "ticks": 207382,
            "time": 234.80718938541665,
            "velocity": 0.3937007874015748
          },
          {
            "duration": 0.21739099999999212,
            "durationTicks": 192,
            "midi": 56,
            "name": "G#3",
            "ticks": 207382,
            "time": 234.80718938541665,
            "velocity": 0.3937007874015748
          },
          {
            "duration": 0.21739099999999212,
            "durationTicks": 192,
            "midi": 73,
            "name": "C#5",
            "ticks": 207382,
            "time": 234.80718938541665,
            "velocity": 0.3937007874015748
          },
          {
            "duration": 0.21739099999999212,
            "durationTicks": 192,
            "midi": 68,
            "name": "G#4",
            "ticks": 207382,
            "time": 234.80718938541665,
            "velocity": 0.3937007874015748
          },
          {
            "duration": 0.3260865000000024,
            "durationTicks": 288,
            "midi": 54,
            "name": "F#3",
            "ticks": 207478,
            "time": 234.91588488541666,
            "velocity": 0.3937007874015748
          },
          {
            "duration": 0.3260865000000024,
            "durationTicks": 288,
            "midi": 63,
            "name": "D#4",
            "ticks": 207478,
            "time": 234.91588488541666,
            "velocity": 0.3937007874015748
          },
          {
            "duration": 0.10869549999998185,
            "durationTicks": 96,
            "midi": 70,
            "name": "A#4",
            "ticks": 207478,
            "time": 234.91588488541666,
            "velocity": 0.3937007874015748
          },
          {
            "duration": 0.3260865000000024,
            "durationTicks": 288,
            "midi": 58,
            "name": "A#3",
            "ticks": 207478,
            "time": 234.91588488541666,
            "velocity": 0.3937007874015748
          },
          {
            "duration": 0.10869550000001027,
            "durationTicks": 96,
            "midi": 75,
            "name": "D#5",
            "ticks": 207574,
            "time": 235.02458038541664,
            "velocity": 0.3937007874015748
          },
          {
            "duration": 0.21739100000002054,
            "durationTicks": 192,
            "midi": 63,
            "name": "D#4",
            "ticks": 207574,
            "time": 235.02458038541664,
            "velocity": 0.3937007874015748
          },
          {
            "duration": 0.21739100000002054,
            "durationTicks": 192,
            "midi": 75,
            "name": "D#5",
            "ticks": 207574,
            "time": 235.02458038541664,
            "velocity": 0.3937007874015748
          },
          {
            "duration": 0.21739100000002054,
            "durationTicks": 192,
            "midi": 58,
            "name": "A#3",
            "ticks": 207574,
            "time": 235.02458038541664,
            "velocity": 0.3937007874015748
          },
          {
            "duration": 0.21739100000002054,
            "durationTicks": 192,
            "midi": 70,
            "name": "A#4",
            "ticks": 207574,
            "time": 235.02458038541664,
            "velocity": 0.3937007874015748
          },
          {
            "duration": 0.10869550000001027,
            "durationTicks": 96,
            "midi": 78,
            "name": "F#5",
            "ticks": 207670,
            "time": 235.13327588541665,
            "velocity": 0.3937007874015748
          },
          {
            "duration": 1.7391279999999938,
            "durationTicks": 1536,
            "midi": 34,
            "name": "A#1",
            "ticks": 207766,
            "time": 235.24197138541666,
            "velocity": 0.3937007874015748
          },
          {
            "duration": 0.21739099999999212,
            "durationTicks": 192,
            "midi": 77,
            "name": "F5",
            "ticks": 207766,
            "time": 235.24197138541666,
            "velocity": 0.3937007874015748
          },
          {
            "duration": 0.21739099999999212,
            "durationTicks": 192,
            "midi": 58,
            "name": "A#3",
            "ticks": 207766,
            "time": 235.24197138541666,
            "velocity": 0.3937007874015748
          },
          {
            "duration": 0.21739099999999212,
            "durationTicks": 192,
            "midi": 73,
            "name": "C#5",
            "ticks": 207766,
            "time": 235.24197138541666,
            "velocity": 0.3937007874015748
          },
          {
            "duration": 0.10869549999998185,
            "durationTicks": 96,
            "midi": 51,
            "name": "D#3",
            "ticks": 207766,
            "time": 235.24197138541666,
            "velocity": 0.3937007874015748
          },
          {
            "duration": 0.21739099999999212,
            "durationTicks": 192,
            "midi": 54,
            "name": "F#3",
            "ticks": 207766,
            "time": 235.24197138541666,
            "velocity": 0.3937007874015748
          },
          {
            "duration": 0.21739099999999212,
            "durationTicks": 192,
            "midi": 61,
            "name": "C#4",
            "ticks": 207766,
            "time": 235.24197138541666,
            "velocity": 0.3937007874015748
          },
          {
            "duration": 0.21739099999999212,
            "durationTicks": 192,
            "midi": 63,
            "name": "D#4",
            "ticks": 207766,
            "time": 235.24197138541666,
            "velocity": 0.3937007874015748
          },
          {
            "duration": 0.9782594999999787,
            "durationTicks": 864,
            "midi": 51,
            "name": "D#3",
            "ticks": 207766,
            "time": 235.24197138541666,
            "velocity": 0.3937007874015748
          },
          {
            "duration": 0.21739099999999212,
            "durationTicks": 192,
            "midi": 65,
            "name": "F4",
            "ticks": 207766,
            "time": 235.24197138541666,
            "velocity": 0.3937007874015748
          },
          {
            "duration": 1.7391279999999938,
            "durationTicks": 1536,
            "midi": 46,
            "name": "A#2",
            "ticks": 207766,
            "time": 235.24197138541666,
            "velocity": 0.3937007874015748
          },
          {
            "duration": 1.7391279999999938,
            "durationTicks": 1536,
            "midi": 39,
            "name": "D#2",
            "ticks": 207766,
            "time": 235.24197138541666,
            "velocity": 0.3937007874015748
          },
          {
            "duration": 0.10869550000001027,
            "durationTicks": 96,
            "midi": 54,
            "name": "F#3",
            "ticks": 207862,
            "time": 235.35066688541664,
            "velocity": 0.3937007874015748
          },
          {
            "duration": 0.21739099999999212,
            "durationTicks": 192,
            "midi": 66,
            "name": "F#4",
            "ticks": 207958,
            "time": 235.45936238541665,
            "velocity": 0.3937007874015748
          },
          {
            "duration": 0.21739099999999212,
            "durationTicks": 192,
            "midi": 75,
            "name": "D#5",
            "ticks": 207958,
            "time": 235.45936238541665,
            "velocity": 0.3937007874015748
          },
          {
            "duration": 0.21739099999999212,
            "durationTicks": 192,
            "midi": 63,
            "name": "D#4",
            "ticks": 207958,
            "time": 235.45936238541665,
            "velocity": 0.3937007874015748
          },
          {
            "duration": 0.10869550000001027,
            "durationTicks": 96,
            "midi": 58,
            "name": "A#3",
            "ticks": 207958,
            "time": 235.45936238541665,
            "velocity": 0.3937007874015748
          },
          {
            "duration": 0.21739099999999212,
            "durationTicks": 192,
            "midi": 78,
            "name": "F#5",
            "ticks": 207958,
            "time": 235.45936238541665,
            "velocity": 0.3937007874015748
          },
          {
            "duration": 0.21739099999999212,
            "durationTicks": 192,
            "midi": 63,
            "name": "D#4",
            "ticks": 207958,
            "time": 235.45936238541665,
            "velocity": 0.3937007874015748
          },
          {
            "duration": 0.3260865000000024,
            "durationTicks": 288,
            "midi": 54,
            "name": "F#3",
            "ticks": 207958,
            "time": 235.45936238541665,
            "velocity": 0.3937007874015748
          },
          {
            "duration": 0.3260865000000024,
            "durationTicks": 288,
            "midi": 58,
            "name": "A#3",
            "ticks": 207958,
            "time": 235.45936238541665,
            "velocity": 0.3937007874015748
          },
          {
            "duration": 0.21739099999999212,
            "durationTicks": 192,
            "midi": 63,
            "name": "D#4",
            "ticks": 208054,
            "time": 235.56805788541666,
            "velocity": 0.3937007874015748
          },
          {
            "duration": 0.21739099999999212,
            "durationTicks": 192,
            "midi": 77,
            "name": "F5",
            "ticks": 208150,
            "time": 235.67675338541665,
            "velocity": 0.3937007874015748
          },
          {
            "duration": 0.10869550000001027,
            "durationTicks": 96,
            "midi": 66,
            "name": "F#4",
            "ticks": 208150,
            "time": 235.67675338541665,
            "velocity": 0.3937007874015748
          },
          {
            "duration": 0.21739099999999212,
            "durationTicks": 192,
            "midi": 80,
            "name": "G#5",
            "ticks": 208150,
            "time": 235.67675338541665,
            "velocity": 0.3937007874015748
          },
          {
            "duration": 0.21739099999999212,
            "durationTicks": 192,
            "midi": 65,
            "name": "F4",
            "ticks": 208150,
            "time": 235.67675338541665,
            "velocity": 0.3937007874015748
          },
          {
            "duration": 0.21739099999999212,
            "durationTicks": 192,
            "midi": 68,
            "name": "G#4",
            "ticks": 208150,
            "time": 235.67675338541665,
            "velocity": 0.3937007874015748
          },
          {
            "duration": 0.10869549999998185,
            "durationTicks": 96,
            "midi": 70,
            "name": "A#4",
            "ticks": 208246,
            "time": 235.78544888541666,
            "velocity": 0.3937007874015748
          },
          {
            "duration": 0.3260865000000024,
            "durationTicks": 288,
            "midi": 63,
            "name": "D#4",
            "ticks": 208246,
            "time": 235.78544888541666,
            "velocity": 0.3937007874015748
          },
          {
            "duration": 0.3260865000000024,
            "durationTicks": 288,
            "midi": 58,
            "name": "A#3",
            "ticks": 208246,
            "time": 235.78544888541666,
            "velocity": 0.3937007874015748
          },
          {
            "duration": 0.3260865000000024,
            "durationTicks": 288,
            "midi": 54,
            "name": "F#3",
            "ticks": 208246,
            "time": 235.78544888541666,
            "velocity": 0.3937007874015748
          },
          {
            "duration": 0.10869550000001027,
            "durationTicks": 96,
            "midi": 75,
            "name": "D#5",
            "ticks": 208342,
            "time": 235.89414438541664,
            "velocity": 0.3937007874015748
          },
          {
            "duration": 0.21739100000002054,
            "durationTicks": 192,
            "midi": 66,
            "name": "F#4",
            "ticks": 208342,
            "time": 235.89414438541664,
            "velocity": 0.3937007874015748
          },
          {
            "duration": 0.21739100000002054,
            "durationTicks": 192,
            "midi": 70,
            "name": "A#4",
            "ticks": 208342,
            "time": 235.89414438541664,
            "velocity": 0.3937007874015748
          },
          {
            "duration": 0.21739100000002054,
            "durationTicks": 192,
            "midi": 78,
            "name": "F#5",
            "ticks": 208342,
            "time": 235.89414438541664,
            "velocity": 0.3937007874015748
          },
          {
            "duration": 0.21739100000002054,
            "durationTicks": 192,
            "midi": 82,
            "name": "A#5",
            "ticks": 208342,
            "time": 235.89414438541664,
            "velocity": 0.3937007874015748
          },
          {
            "duration": 0.10869550000001027,
            "durationTicks": 96,
            "midi": 78,
            "name": "F#5",
            "ticks": 208438,
            "time": 236.00283988541665,
            "velocity": 0.3937007874015748
          },
          {
            "duration": 0.21739099999999212,
            "durationTicks": 192,
            "midi": 54,
            "name": "F#3",
            "ticks": 208534,
            "time": 236.11153538541666,
            "velocity": 0.3937007874015748
          },
          {
            "duration": 0.21739099999999212,
            "durationTicks": 192,
            "midi": 58,
            "name": "A#3",
            "ticks": 208534,
            "time": 236.11153538541666,
            "velocity": 0.3937007874015748
          },
          {
            "duration": 0.21739099999999212,
            "durationTicks": 192,
            "midi": 63,
            "name": "D#4",
            "ticks": 208534,
            "time": 236.11153538541666,
            "velocity": 0.3937007874015748
          },
          {
            "duration": 0.8695639999999969,
            "durationTicks": 768,
            "midi": 51,
            "name": "D#3",
            "ticks": 208534,
            "time": 236.11153538541666,
            "velocity": 0.3937007874015748
          },
          {
            "duration": 0.21739099999999212,
            "durationTicks": 192,
            "midi": 63,
            "name": "D#4",
            "ticks": 208534,
            "time": 236.11153538541666,
            "velocity": 0.3937007874015748
          },
          {
            "duration": 0.21739099999999212,
            "durationTicks": 192,
            "midi": 70,
            "name": "A#4",
            "ticks": 208534,
            "time": 236.11153538541666,
            "velocity": 0.3937007874015748
          },
          {
            "duration": 0.21739099999999212,
            "durationTicks": 192,
            "midi": 58,
            "name": "A#3",
            "ticks": 208534,
            "time": 236.11153538541666,
            "velocity": 0.3937007874015748
          },
          {
            "duration": 0.21739099999999212,
            "durationTicks": 192,
            "midi": 75,
            "name": "D#5",
            "ticks": 208534,
            "time": 236.11153538541666,
            "velocity": 0.3937007874015748
          },
          {
            "duration": 0.10869550000001027,
            "durationTicks": 96,
            "midi": 54,
            "name": "F#3",
            "ticks": 208630,
            "time": 236.22023088541664,
            "velocity": 0.3937007874015748
          },
          {
            "duration": 0.3260865000000024,
            "durationTicks": 288,
            "midi": 54,
            "name": "F#3",
            "ticks": 208726,
            "time": 236.32892638541665,
            "velocity": 0.3937007874015748
          },
          {
            "duration": 0.21739099999999212,
            "durationTicks": 192,
            "midi": 63,
            "name": "D#4",
            "ticks": 208726,
            "time": 236.32892638541665,
            "velocity": 0.3937007874015748
          },
          {
            "duration": 0.10869550000001027,
            "durationTicks": 96,
            "midi": 58,
            "name": "A#3",
            "ticks": 208726,
            "time": 236.32892638541665,
            "velocity": 0.3937007874015748
          },
          {
            "duration": 0.3260865000000024,
            "durationTicks": 288,
            "midi": 58,
            "name": "A#3",
            "ticks": 208726,
            "time": 236.32892638541665,
            "velocity": 0.3937007874015748
          },
          {
            "duration": 0.21739099999999212,
            "durationTicks": 192,
            "midi": 63,
            "name": "D#4",
            "ticks": 208822,
            "time": 236.43762188541666,
            "velocity": 0.3937007874015748
          },
          {
            "duration": 0.21739100000002054,
            "durationTicks": 192,
            "midi": 78,
            "name": "F#5",
            "ticks": 208918,
            "time": 236.54631738541664,
            "velocity": 0.3937007874015748
          },
          {
            "duration": 0.21739100000002054,
            "durationTicks": 192,
            "midi": 82,
            "name": "A#5",
            "ticks": 208918,
            "time": 236.54631738541664,
            "velocity": 0.3937007874015748
          },
          {
            "duration": 0.21739100000002054,
            "durationTicks": 192,
            "midi": 70,
            "name": "A#4",
            "ticks": 208918,
            "time": 236.54631738541664,
            "velocity": 0.3937007874015748
          },
          {
            "duration": 0.10869550000001027,
            "durationTicks": 96,
            "midi": 66,
            "name": "F#4",
            "ticks": 208918,
            "time": 236.54631738541664,
            "velocity": 0.3937007874015748
          },
          {
            "duration": 0.21739100000002054,
            "durationTicks": 192,
            "midi": 66,
            "name": "F#4",
            "ticks": 208918,
            "time": 236.54631738541664,
            "velocity": 0.3937007874015748
          },
          {
            "duration": 0.3260865000000024,
            "durationTicks": 288,
            "midi": 58,
            "name": "A#3",
            "ticks": 209014,
            "time": 236.65501288541665,
            "velocity": 0.3937007874015748
          },
          {
            "duration": 0.10869550000001027,
            "durationTicks": 96,
            "midi": 70,
            "name": "A#4",
            "ticks": 209014,
            "time": 236.65501288541665,
            "velocity": 0.3937007874015748
          },
          {
            "duration": 0.3260865000000024,
            "durationTicks": 288,
            "midi": 54,
            "name": "F#3",
            "ticks": 209014,
            "time": 236.65501288541665,
            "velocity": 0.3937007874015748
          },
          {
            "duration": 0.3260865000000024,
            "durationTicks": 288,
            "midi": 63,
            "name": "D#4",
            "ticks": 209014,
            "time": 236.65501288541665,
            "velocity": 0.3937007874015748
          },
          {
            "duration": 0.21739099999999212,
            "durationTicks": 192,
            "midi": 73,
            "name": "C#5",
            "ticks": 209110,
            "time": 236.76370838541666,
            "velocity": 0.3937007874015748
          },
          {
            "duration": 0.21739099999999212,
            "durationTicks": 192,
            "midi": 68,
            "name": "G#4",
            "ticks": 209110,
            "time": 236.76370838541666,
            "velocity": 0.3937007874015748
          },
          {
            "duration": 0.21739099999999212,
            "durationTicks": 192,
            "midi": 80,
            "name": "G#5",
            "ticks": 209110,
            "time": 236.76370838541666,
            "velocity": 0.3937007874015748
          },
          {
            "duration": 0.10869549999998185,
            "durationTicks": 96,
            "midi": 75,
            "name": "D#5",
            "ticks": 209110,
            "time": 236.76370838541666,
            "velocity": 0.3937007874015748
          },
          {
            "duration": 0.21739099999999212,
            "durationTicks": 192,
            "midi": 85,
            "name": "C#6",
            "ticks": 209110,
            "time": 236.76370838541666,
            "velocity": 0.3937007874015748
          },
          {
            "duration": 0.10869550000001027,
            "durationTicks": 96,
            "midi": 78,
            "name": "F#5",
            "ticks": 209206,
            "time": 236.87240388541665,
            "velocity": 0.3937007874015748
          },
          {
            "duration": 0.21739099999999212,
            "durationTicks": 192,
            "midi": 68,
            "name": "G#4",
            "ticks": 209302,
            "time": 236.98109938541666,
            "velocity": 0.3937007874015748
          },
          {
            "duration": 1.7391279999999938,
            "durationTicks": 1536,
            "midi": 30,
            "name": "F#1",
            "ticks": 209302,
            "time": 236.98109938541666,
            "velocity": 0.3937007874015748
          },
          {
            "duration": 0.10869549999998185,
            "durationTicks": 96,
            "midi": 47,
            "name": "B2",
            "ticks": 209302,
            "time": 236.98109938541666,
            "velocity": 0.3937007874015748
          },
          {
            "duration": 1.7391279999999938,
            "durationTicks": 1536,
            "midi": 35,
            "name": "B1",
            "ticks": 209302,
            "time": 236.98109938541666,
            "velocity": 0.3937007874015748
          },
          {
            "duration": 0.21739099999999212,
            "durationTicks": 192,
            "midi": 51,
            "name": "D#3",
            "ticks": 209302,
            "time": 236.98109938541666,
            "velocity": 0.3937007874015748
          },
          {
            "duration": 0.21739099999999212,
            "durationTicks": 192,
            "midi": 85,
            "name": "C#6",
            "ticks": 209302,
            "time": 236.98109938541666,
            "velocity": 0.3937007874015748
          },
          {
            "duration": 0.21739099999999212,
            "durationTicks": 192,
            "midi": 54,
            "name": "F#3",
            "ticks": 209302,
            "time": 236.98109938541666,
            "velocity": 0.3937007874015748
          },
          {
            "duration": 0.21739099999999212,
            "durationTicks": 192,
            "midi": 73,
            "name": "C#5",
            "ticks": 209302,
            "time": 236.98109938541666,
            "velocity": 0.3937007874015748
          },
          {
            "duration": 0.21739099999999212,
            "durationTicks": 192,
            "midi": 59,
            "name": "B3",
            "ticks": 209302,
            "time": 236.98109938541666,
            "velocity": 0.3937007874015748
          },
          {
            "duration": 0.21739099999999212,
            "durationTicks": 192,
            "midi": 80,
            "name": "G#5",
            "ticks": 209302,
            "time": 236.98109938541666,
            "velocity": 0.3937007874015748
          },
          {
            "duration": 0.9782595000000072,
            "durationTicks": 864,
            "midi": 47,
            "name": "B2",
            "ticks": 209302,
            "time": 236.98109938541666,
            "velocity": 0.3937007874015748
          },
          {
            "duration": 1.7391279999999938,
            "durationTicks": 1536,
            "midi": 42,
            "name": "F#2",
            "ticks": 209302,
            "time": 236.98109938541666,
            "velocity": 0.3937007874015748
          },
          {
            "duration": 0.10869550000001027,
            "durationTicks": 96,
            "midi": 51,
            "name": "D#3",
            "ticks": 209398,
            "time": 237.08979488541664,
            "velocity": 0.3937007874015748
          },
          {
            "duration": 0.3260865000000024,
            "durationTicks": 288,
            "midi": 51,
            "name": "D#3",
            "ticks": 209494,
            "time": 237.19849038541665,
            "velocity": 0.3937007874015748
          },
          {
            "duration": 0.21739099999999212,
            "durationTicks": 192,
            "midi": 87,
            "name": "D#6",
            "ticks": 209494,
            "time": 237.19849038541665,
            "velocity": 0.3937007874015748
          },
          {
            "duration": 0.21739099999999212,
            "durationTicks": 192,
            "midi": 75,
            "name": "D#5",
            "ticks": 209494,
            "time": 237.19849038541665,
            "velocity": 0.3937007874015748
          },
          {
            "duration": 0.21739099999999212,
            "durationTicks": 192,
            "midi": 59,
            "name": "B3",
            "ticks": 209494,
            "time": 237.19849038541665,
            "velocity": 0.3937007874015748
          },
          {
            "duration": 0.21739099999999212,
            "durationTicks": 192,
            "midi": 70,
            "name": "A#4",
            "ticks": 209494,
            "time": 237.19849038541665,
            "velocity": 0.3937007874015748
          },
          {
            "duration": 0.10869550000001027,
            "durationTicks": 96,
            "midi": 54,
            "name": "F#3",
            "ticks": 209494,
            "time": 237.19849038541665,
            "velocity": 0.3937007874015748
          },
          {
            "duration": 0.21739099999999212,
            "durationTicks": 192,
            "midi": 82,
            "name": "A#5",
            "ticks": 209494,
            "time": 237.19849038541665,
            "velocity": 0.3937007874015748
          },
          {
            "duration": 0.3260865000000024,
            "durationTicks": 288,
            "midi": 54,
            "name": "F#3",
            "ticks": 209494,
            "time": 237.19849038541665,
            "velocity": 0.3937007874015748
          },
          {
            "duration": 0.21739099999999212,
            "durationTicks": 192,
            "midi": 59,
            "name": "B3",
            "ticks": 209590,
            "time": 237.30718588541666,
            "velocity": 0.3937007874015748
          },
          {
            "duration": 0.21739100000002054,
            "durationTicks": 192,
            "midi": 66,
            "name": "F#4",
            "ticks": 209686,
            "time": 237.41588138541664,
            "velocity": 0.3937007874015748
          },
          {
            "duration": 0.21739100000002054,
            "durationTicks": 192,
            "midi": 82,
            "name": "A#5",
            "ticks": 209686,
            "time": 237.41588138541664,
            "velocity": 0.3937007874015748
          },
          {
            "duration": 0.21739100000002054,
            "durationTicks": 192,
            "midi": 70,
            "name": "A#4",
            "ticks": 209686,
            "time": 237.41588138541664,
            "velocity": 0.3937007874015748
          },
          {
            "duration": 0.10869550000001027,
            "durationTicks": 96,
            "midi": 63,
            "name": "D#4",
            "ticks": 209686,
            "time": 237.41588138541664,
            "velocity": 0.3937007874015748
          },
          {
            "duration": 0.21739100000002054,
            "durationTicks": 192,
            "midi": 78,
            "name": "F#5",
            "ticks": 209686,
            "time": 237.41588138541664,
            "velocity": 0.3937007874015748
          },
          {
            "duration": 0.3260865000000024,
            "durationTicks": 288,
            "midi": 59,
            "name": "B3",
            "ticks": 209782,
            "time": 237.52457688541665,
            "velocity": 0.3937007874015748
          },
          {
            "duration": 0.10869550000001027,
            "durationTicks": 96,
            "midi": 66,
            "name": "F#4",
            "ticks": 209782,
            "time": 237.52457688541665,
            "velocity": 0.3937007874015748
          },
          {
            "duration": 0.3260865000000024,
            "durationTicks": 288,
            "midi": 54,
            "name": "F#3",
            "ticks": 209782,
            "time": 237.52457688541665,
            "velocity": 0.3937007874015748
          },
          {
            "duration": 0.3260865000000024,
            "durationTicks": 288,
            "midi": 51,
            "name": "D#3",
            "ticks": 209782,
            "time": 237.52457688541665,
            "velocity": 0.3937007874015748
          },
          {
            "duration": 0.21739099999999212,
            "durationTicks": 192,
            "midi": 65,
            "name": "F4",
            "ticks": 209878,
            "time": 237.63327238541666,
            "velocity": 0.3937007874015748
          },
          {
            "duration": 0.21739099999999212,
            "durationTicks": 192,
            "midi": 77,
            "name": "F5",
            "ticks": 209878,
            "time": 237.63327238541666,
            "velocity": 0.3937007874015748
          },
          {
            "duration": 0.10869549999998185,
            "durationTicks": 96,
            "midi": 71,
            "name": "B4",
            "ticks": 209878,
            "time": 237.63327238541666,
            "velocity": 0.3937007874015748
          },
          {
            "duration": 0.21739099999999212,
            "durationTicks": 192,
            "midi": 80,
            "name": "G#5",
            "ticks": 209878,
            "time": 237.63327238541666,
            "velocity": 0.3937007874015748
          },
          {
            "duration": 0.21739099999999212,
            "durationTicks": 192,
            "midi": 68,
            "name": "G#4",
            "ticks": 209878,
            "time": 237.63327238541666,
            "velocity": 0.3937007874015748
          },
          {
            "duration": 0.10869550000001027,
            "durationTicks": 96,
            "midi": 75,
            "name": "D#5",
            "ticks": 209974,
            "time": 237.74196788541664,
            "velocity": 0.3937007874015748
          },
          {
            "duration": 0.21739099999999212,
            "durationTicks": 192,
            "midi": 82,
            "name": "A#5",
            "ticks": 210070,
            "time": 237.85066338541665,
            "velocity": 0.3937007874015748
          },
          {
            "duration": 0.21739099999999212,
            "durationTicks": 192,
            "midi": 59,
            "name": "B3",
            "ticks": 210070,
            "time": 237.85066338541665,
            "velocity": 0.3937007874015748
          },
          {
            "duration": 0.21739099999999212,
            "durationTicks": 192,
            "midi": 70,
            "name": "A#4",
            "ticks": 210070,
            "time": 237.85066338541665,
            "velocity": 0.3937007874015748
          },
          {
            "duration": 0.21739099999999212,
            "durationTicks": 192,
            "midi": 51,
            "name": "D#3",
            "ticks": 210070,
            "time": 237.85066338541665,
            "velocity": 0.3937007874015748
          },
          {
            "duration": 0.21739099999999212,
            "durationTicks": 192,
            "midi": 78,
            "name": "F#5",
            "ticks": 210070,
            "time": 237.85066338541665,
            "velocity": 0.3937007874015748
          },
          {
            "duration": 0.21739099999999212,
            "durationTicks": 192,
            "midi": 54,
            "name": "F#3",
            "ticks": 210070,
            "time": 237.85066338541665,
            "velocity": 0.3937007874015748
          },
          {
            "duration": 0.21739099999999212,
            "durationTicks": 192,
            "midi": 66,
            "name": "F#4",
            "ticks": 210070,
            "time": 237.85066338541665,
            "velocity": 0.3937007874015748
          },
          {
            "duration": 0.8695639999999969,
            "durationTicks": 768,
            "midi": 47,
            "name": "B2",
            "ticks": 210070,
            "time": 237.85066338541665,
            "velocity": 0.3937007874015748
          },
          {
            "duration": 0.10869549999998185,
            "durationTicks": 96,
            "midi": 51,
            "name": "D#3",
            "ticks": 210166,
            "time": 237.95935888541666,
            "velocity": 0.3937007874015748
          },
          {
            "duration": 0.10869550000001027,
            "durationTicks": 96,
            "midi": 54,
            "name": "F#3",
            "ticks": 210262,
            "time": 238.06805438541664,
            "velocity": 0.3937007874015748
          },
          {
            "duration": 0.3260865000000024,
            "durationTicks": 288,
            "midi": 54,
            "name": "F#3",
            "ticks": 210262,
            "time": 238.06805438541664,
            "velocity": 0.3937007874015748
          },
          {
            "duration": 0.21739100000002054,
            "durationTicks": 192,
            "midi": 59,
            "name": "B3",
            "ticks": 210262,
            "time": 238.06805438541664,
            "velocity": 0.3937007874015748
          },
          {
            "duration": 0.3260865000000024,
            "durationTicks": 288,
            "midi": 51,
            "name": "D#3",
            "ticks": 210262,
            "time": 238.06805438541664,
            "velocity": 0.3937007874015748
          },
          {
            "duration": 0.21739099999999212,
            "durationTicks": 192,
            "midi": 59,
            "name": "B3",
            "ticks": 210358,
            "time": 238.17674988541665,
            "velocity": 0.3937007874015748
          },
          {
            "duration": 0.21739099999999212,
            "durationTicks": 192,
            "midi": 77,
            "name": "F5",
            "ticks": 210454,
            "time": 238.28544538541666,
            "velocity": 0.3937007874015748
          },
          {
            "duration": 0.10869549999998185,
            "durationTicks": 96,
            "midi": 63,
            "name": "D#4",
            "ticks": 210454,
            "time": 238.28544538541666,
            "velocity": 0.3937007874015748
          },
          {
            "duration": 0.21739099999999212,
            "durationTicks": 192,
            "midi": 80,
            "name": "G#5",
            "ticks": 210454,
            "time": 238.28544538541666,
            "velocity": 0.3937007874015748
          },
          {
            "duration": 0.21739099999999212,
            "durationTicks": 192,
            "midi": 65,
            "name": "F4",
            "ticks": 210454,
            "time": 238.28544538541666,
            "velocity": 0.3937007874015748
          },
          {
            "duration": 0.21739099999999212,
            "durationTicks": 192,
            "midi": 68,
            "name": "G#4",
            "ticks": 210454,
            "time": 238.28544538541666,
            "velocity": 0.3937007874015748
          },
          {
            "duration": 0.3260865000000024,
            "durationTicks": 288,
            "midi": 51,
            "name": "D#3",
            "ticks": 210550,
            "time": 238.39414088541665,
            "velocity": 0.3937007874015748
          },
          {
            "duration": 0.10869550000001027,
            "durationTicks": 96,
            "midi": 66,
            "name": "F#4",
            "ticks": 210550,
            "time": 238.39414088541665,
            "velocity": 0.3937007874015748
          },
          {
            "duration": 0.3260865000000024,
            "durationTicks": 288,
            "midi": 54,
            "name": "F#3",
            "ticks": 210550,
            "time": 238.39414088541665,
            "velocity": 0.3937007874015748
          },
          {
            "duration": 0.3260865000000024,
            "durationTicks": 288,
            "midi": 59,
            "name": "B3",
            "ticks": 210550,
            "time": 238.39414088541665,
            "velocity": 0.3937007874015748
          },
          {
            "duration": 0.21739099999999212,
            "durationTicks": 192,
            "midi": 66,
            "name": "F#4",
            "ticks": 210646,
            "time": 238.50283638541666,
            "velocity": 0.3937007874015748
          },
          {
            "duration": 0.21739099999999212,
            "durationTicks": 192,
            "midi": 78,
            "name": "F#5",
            "ticks": 210646,
            "time": 238.50283638541666,
            "velocity": 0.3937007874015748
          },
          {
            "duration": 0.21739099999999212,
            "durationTicks": 192,
            "midi": 70,
            "name": "A#4",
            "ticks": 210646,
            "time": 238.50283638541666,
            "velocity": 0.3937007874015748
          },
          {
            "duration": 0.10869549999998185,
            "durationTicks": 96,
            "midi": 71,
            "name": "B4",
            "ticks": 210646,
            "time": 238.50283638541666,
            "velocity": 0.3937007874015748
          },
          {
            "duration": 0.21739099999999212,
            "durationTicks": 192,
            "midi": 82,
            "name": "A#5",
            "ticks": 210646,
            "time": 238.50283638541666,
            "velocity": 0.3937007874015748
          },
          {
            "duration": 0.10869550000001027,
            "durationTicks": 96,
            "midi": 75,
            "name": "D#5",
            "ticks": 210742,
            "time": 238.61153188541664,
            "velocity": 0.3937007874015748
          },
          {
            "duration": 0.21739099999999212,
            "durationTicks": 192,
            "midi": 53,
            "name": "F3",
            "ticks": 210838,
            "time": 238.72022738541665,
            "velocity": 0.3937007874015748
          },
          {
            "duration": 0.21739099999999212,
            "durationTicks": 192,
            "midi": 85,
            "name": "C#6",
            "ticks": 210838,
            "time": 238.72022738541665,
            "velocity": 0.3937007874015748
          },
          {
            "duration": 0.10869550000001027,
            "durationTicks": 96,
            "midi": 49,
            "name": "C#3",
            "ticks": 210838,
            "time": 238.72022738541665,
            "velocity": 0.3937007874015748
          },
          {
            "duration": 1.7391279999999938,
            "durationTicks": 1536,
            "midi": 37,
            "name": "C#2",
            "ticks": 210838,
            "time": 238.72022738541665,
            "velocity": 0.3937007874015748
          },
          {
            "duration": 1.7391279999999938,
            "durationTicks": 1536,
            "midi": 44,
            "name": "G#2",
            "ticks": 210838,
            "time": 238.72022738541665,
            "velocity": 0.3937007874015748
          },
          {
            "duration": 0.21739099999999212,
            "durationTicks": 192,
            "midi": 56,
            "name": "G#3",
            "ticks": 210838,
            "time": 238.72022738541665,
            "velocity": 0.3937007874015748
          },
          {
            "duration": 0.21739099999999212,
            "durationTicks": 192,
            "midi": 80,
            "name": "G#5",
            "ticks": 210838,
            "time": 238.72022738541665,
            "velocity": 0.3937007874015748
          },
          {
            "duration": 0.21739099999999212,
            "durationTicks": 192,
            "midi": 61,
            "name": "C#4",
            "ticks": 210838,
            "time": 238.72022738541665,
            "velocity": 0.3937007874015748
          },
          {
            "duration": 0.21739099999999212,
            "durationTicks": 192,
            "midi": 68,
            "name": "G#4",
            "ticks": 210838,
            "time": 238.72022738541665,
            "velocity": 0.3937007874015748
          },
          {
            "duration": 0.9782595000000072,
            "durationTicks": 864,
            "midi": 49,
            "name": "C#3",
            "ticks": 210838,
            "time": 238.72022738541665,
            "velocity": 0.3937007874015748
          },
          {
            "duration": 0.21739099999999212,
            "durationTicks": 192,
            "midi": 73,
            "name": "C#5",
            "ticks": 210838,
            "time": 238.72022738541665,
            "velocity": 0.3937007874015748
          },
          {
            "duration": 1.7391279999999938,
            "durationTicks": 1536,
            "midi": 32,
            "name": "G#1",
            "ticks": 210838,
            "time": 238.72022738541665,
            "velocity": 0.3937007874015748
          },
          {
            "duration": 0.10869549999998185,
            "durationTicks": 96,
            "midi": 53,
            "name": "F3",
            "ticks": 210934,
            "time": 238.82892288541666,
            "velocity": 0.3937007874015748
          },
          {
            "duration": 0.21739100000002054,
            "durationTicks": 192,
            "midi": 61,
            "name": "C#4",
            "ticks": 211030,
            "time": 238.93761838541664,
            "velocity": 0.3937007874015748
          },
          {
            "duration": 0.21739100000002054,
            "durationTicks": 192,
            "midi": 75,
            "name": "D#5",
            "ticks": 211030,
            "time": 238.93761838541664,
            "velocity": 0.3937007874015748
          },
          {
            "duration": 0.10869550000001027,
            "durationTicks": 96,
            "midi": 56,
            "name": "G#3",
            "ticks": 211030,
            "time": 238.93761838541664,
            "velocity": 0.3937007874015748
          },
          {
            "duration": 0.21739100000002054,
            "durationTicks": 192,
            "midi": 82,
            "name": "A#5",
            "ticks": 211030,
            "time": 238.93761838541664,
            "velocity": 0.3937007874015748
          },
          {
            "duration": 0.3260865000000024,
            "durationTicks": 288,
            "midi": 53,
            "name": "F3",
            "ticks": 211030,
            "time": 238.93761838541664,
            "velocity": 0.3937007874015748
          },
          {
            "duration": 0.21739100000002054,
            "durationTicks": 192,
            "midi": 87,
            "name": "D#6",
            "ticks": 211030,
            "time": 238.93761838541664,
            "velocity": 0.3937007874015748
          },
          {
            "duration": 0.21739100000002054,
            "durationTicks": 192,
            "midi": 70,
            "name": "A#4",
            "ticks": 211030,
            "time": 238.93761838541664,
            "velocity": 0.3937007874015748
          },
          {
            "duration": 0.3260865000000024,
            "durationTicks": 288,
            "midi": 56,
            "name": "G#3",
            "ticks": 211030,
            "time": 238.93761838541664,
            "velocity": 0.3937007874015748
          },
          {
            "duration": 0.21739099999999212,
            "durationTicks": 192,
            "midi": 61,
            "name": "C#4",
            "ticks": 211126,
            "time": 239.04631388541665,
            "velocity": 0.3937007874015748
          },
          {
            "duration": 0.21739099999999212,
            "durationTicks": 192,
            "midi": 66,
            "name": "F#4",
            "ticks": 211222,
            "time": 239.15500938541666,
            "velocity": 0.3937007874015748
          },
          {
            "duration": 0.21739099999999212,
            "durationTicks": 192,
            "midi": 70,
            "name": "A#4",
            "ticks": 211222,
            "time": 239.15500938541666,
            "velocity": 0.3937007874015748
          },
          {
            "duration": 0.21739099999999212,
            "durationTicks": 192,
            "midi": 78,
            "name": "F#5",
            "ticks": 211222,
            "time": 239.15500938541666,
            "velocity": 0.3937007874015748
          },
          {
            "duration": 0.21739099999999212,
            "durationTicks": 192,
            "midi": 82,
            "name": "A#5",
            "ticks": 211222,
            "time": 239.15500938541666,
            "velocity": 0.3937007874015748
          },
          {
            "duration": 0.10869549999998185,
            "durationTicks": 96,
            "midi": 65,
            "name": "F4",
            "ticks": 211222,
            "time": 239.15500938541666,
            "velocity": 0.3937007874015748
          },
          {
            "duration": 0.10869550000001027,
            "durationTicks": 96,
            "midi": 68,
            "name": "G#4",
            "ticks": 211318,
            "time": 239.26370488541664,
            "velocity": 0.3937007874015748
          },
          {
            "duration": 0.3260865000000024,
            "durationTicks": 288,
            "midi": 61,
            "name": "C#4",
            "ticks": 211318,
            "time": 239.26370488541664,
            "velocity": 0.3937007874015748
          },
          {
            "duration": 0.3260865000000024,
            "durationTicks": 288,
            "midi": 53,
            "name": "F3",
            "ticks": 211318,
            "time": 239.26370488541664,
            "velocity": 0.3937007874015748
          },
          {
            "duration": 0.3260865000000024,
            "durationTicks": 288,
            "midi": 56,
            "name": "G#3",
            "ticks": 211318,
            "time": 239.26370488541664,
            "velocity": 0.3937007874015748
          },
          {
            "duration": 0.21739099999999212,
            "durationTicks": 192,
            "midi": 77,
            "name": "F5",
            "ticks": 211414,
            "time": 239.37240038541665,
            "velocity": 0.3937007874015748
          },
          {
            "duration": 0.21739099999999212,
            "durationTicks": 192,
            "midi": 80,
            "name": "G#5",
            "ticks": 211414,
            "time": 239.37240038541665,
            "velocity": 0.3937007874015748
          },
          {
            "duration": 0.21739099999999212,
            "durationTicks": 192,
            "midi": 65,
            "name": "F4",
            "ticks": 211414,
            "time": 239.37240038541665,
            "velocity": 0.3937007874015748
          },
          {
            "duration": 0.10869550000001027,
            "durationTicks": 96,
            "midi": 73,
            "name": "C#5",
            "ticks": 211414,
            "time": 239.37240038541665,
            "velocity": 0.3937007874015748
          },
          {
            "duration": 0.21739099999999212,
            "durationTicks": 192,
            "midi": 68,
            "name": "G#4",
            "ticks": 211414,
            "time": 239.37240038541665,
            "velocity": 0.3937007874015748
          },
          {
            "duration": 0.10869549999998185,
            "durationTicks": 96,
            "midi": 77,
            "name": "F5",
            "ticks": 211510,
            "time": 239.48109588541666,
            "velocity": 0.3937007874015748
          },
          {
            "duration": 0.21739099999999212,
            "durationTicks": 192,
            "midi": 56,
            "name": "G#3",
            "ticks": 211606,
            "time": 239.58979138541665,
            "velocity": 0.3937007874015748
          },
          {
            "duration": 0.21739099999999212,
            "durationTicks": 192,
            "midi": 66,
            "name": "F#4",
            "ticks": 211606,
            "time": 239.58979138541665,
            "velocity": 0.3937007874015748
          },
          {
            "duration": 0.21739099999999212,
            "durationTicks": 192,
            "midi": 61,
            "name": "C#4",
            "ticks": 211606,
            "time": 239.58979138541665,
            "velocity": 0.3937007874015748
          },
          {
            "duration": 0.21739099999999212,
            "durationTicks": 192,
            "midi": 70,
            "name": "A#4",
            "ticks": 211606,
            "time": 239.58979138541665,
            "velocity": 0.3937007874015748
          },
          {
            "duration": 0.21739099999999212,
            "durationTicks": 192,
            "midi": 53,
            "name": "F3",
            "ticks": 211606,
            "time": 239.58979138541665,
            "velocity": 0.3937007874015748
          },
          {
            "duration": 0.21739099999999212,
            "durationTicks": 192,
            "midi": 78,
            "name": "F#5",
            "ticks": 211606,
            "time": 239.58979138541665,
            "velocity": 0.3937007874015748
          },
          {
            "duration": 0.8695639999999969,
            "durationTicks": 768,
            "midi": 49,
            "name": "C#3",
            "ticks": 211606,
            "time": 239.58979138541665,
            "velocity": 0.3937007874015748
          },
          {
            "duration": 0.21739099999999212,
            "durationTicks": 192,
            "midi": 82,
            "name": "A#5",
            "ticks": 211606,
            "time": 239.58979138541665,
            "velocity": 0.3937007874015748
          },
          {
            "duration": 0.10869549999998185,
            "durationTicks": 96,
            "midi": 53,
            "name": "F3",
            "ticks": 211702,
            "time": 239.69848688541666,
            "velocity": 0.3937007874015748
          },
          {
            "duration": 0.10869550000001027,
            "durationTicks": 96,
            "midi": 56,
            "name": "G#3",
            "ticks": 211798,
            "time": 239.80718238541664,
            "velocity": 0.3937007874015748
          },
          {
            "duration": 0.3260865000000024,
            "durationTicks": 288,
            "midi": 53,
            "name": "F3",
            "ticks": 211798,
            "time": 239.80718238541664,
            "velocity": 0.3937007874015748
          },
          {
            "duration": 0.3260865000000024,
            "durationTicks": 288,
            "midi": 56,
            "name": "G#3",
            "ticks": 211798,
            "time": 239.80718238541664,
            "velocity": 0.3937007874015748
          },
          {
            "duration": 0.21739100000002054,
            "durationTicks": 192,
            "midi": 61,
            "name": "C#4",
            "ticks": 211798,
            "time": 239.80718238541664,
            "velocity": 0.3937007874015748
          },
          {
            "duration": 0.21739099999999212,
            "durationTicks": 192,
            "midi": 61,
            "name": "C#4",
            "ticks": 211894,
            "time": 239.91587788541665,
            "velocity": 0.3937007874015748
          },
          {
            "duration": 0.21739099999999212,
            "durationTicks": 192,
            "midi": 68,
            "name": "G#4",
            "ticks": 211990,
            "time": 240.02457338541666,
            "velocity": 0.3937007874015748
          },
          {
            "duration": 0.21739099999999212,
            "durationTicks": 192,
            "midi": 80,
            "name": "G#5",
            "ticks": 211990,
            "time": 240.02457338541666,
            "velocity": 0.3937007874015748
          },
          {
            "duration": 0.10869549999998185,
            "durationTicks": 96,
            "midi": 65,
            "name": "F4",
            "ticks": 211990,
            "time": 240.02457338541666,
            "velocity": 0.3937007874015748
          },
          {
            "duration": 0.21739099999999212,
            "durationTicks": 192,
            "midi": 65,
            "name": "F4",
            "ticks": 211990,
            "time": 240.02457338541666,
            "velocity": 0.3937007874015748
          },
          {
            "duration": 0.21739099999999212,
            "durationTicks": 192,
            "midi": 77,
            "name": "F5",
            "ticks": 211990,
            "time": 240.02457338541666,
            "velocity": 0.3937007874015748
          },
          {
            "duration": 0.3260865000000024,
            "durationTicks": 288,
            "midi": 53,
            "name": "F3",
            "ticks": 212086,
            "time": 240.13326888541664,
            "velocity": 0.3937007874015748
          },
          {
            "duration": 0.3260865000000024,
            "durationTicks": 288,
            "midi": 61,
            "name": "C#4",
            "ticks": 212086,
            "time": 240.13326888541664,
            "velocity": 0.3937007874015748
          },
          {
            "duration": 0.3260865000000024,
            "durationTicks": 288,
            "midi": 56,
            "name": "G#3",
            "ticks": 212086,
            "time": 240.13326888541664,
            "velocity": 0.3937007874015748
          },
          {
            "duration": 0.10869550000001027,
            "durationTicks": 96,
            "midi": 68,
            "name": "G#4",
            "ticks": 212086,
            "time": 240.13326888541664,
            "velocity": 0.3937007874015748
          },
          {
            "duration": 0.10869550000001027,
            "durationTicks": 96,
            "midi": 73,
            "name": "C#5",
            "ticks": 212182,
            "time": 240.24196438541665,
            "velocity": 0.3937007874015748
          },
          {
            "duration": 0.21739099999999212,
            "durationTicks": 192,
            "midi": 82,
            "name": "A#5",
            "ticks": 212182,
            "time": 240.24196438541665,
            "velocity": 0.3937007874015748
          },
          {
            "duration": 0.21739099999999212,
            "durationTicks": 192,
            "midi": 70,
            "name": "A#4",
            "ticks": 212182,
            "time": 240.24196438541665,
            "velocity": 0.3937007874015748
          },
          {
            "duration": 0.21739099999999212,
            "durationTicks": 192,
            "midi": 78,
            "name": "F#5",
            "ticks": 212182,
            "time": 240.24196438541665,
            "velocity": 0.3937007874015748
          },
          {
            "duration": 0.21739099999999212,
            "durationTicks": 192,
            "midi": 66,
            "name": "F#4",
            "ticks": 212182,
            "time": 240.24196438541665,
            "velocity": 0.3937007874015748
          },
          {
            "duration": 0.10869549999998185,
            "durationTicks": 96,
            "midi": 77,
            "name": "F5",
            "ticks": 212278,
            "time": 240.35065988541666,
            "velocity": 0.3937007874015748
          },
          {
            "duration": 1.7391280000000222,
            "durationTicks": 1536,
            "midi": 39,
            "name": "D#2",
            "ticks": 212374,
            "time": 240.45935538541664,
            "velocity": 0.3937007874015748
          },
          {
            "duration": 1.7391280000000222,
            "durationTicks": 1536,
            "midi": 34,
            "name": "A#1",
            "ticks": 212374,
            "time": 240.45935538541664,
            "velocity": 0.3937007874015748
          },
          {
            "duration": 0.21739100000002054,
            "durationTicks": 192,
            "midi": 58,
            "name": "A#3",
            "ticks": 212374,
            "time": 240.45935538541664,
            "velocity": 0.3937007874015748
          },
          {
            "duration": 1.7391280000000222,
            "durationTicks": 1536,
            "midi": 46,
            "name": "A#2",
            "ticks": 212374,
            "time": 240.45935538541664,
            "velocity": 0.3937007874015748
          },
          {
            "duration": 0.21739100000002054,
            "durationTicks": 192,
            "midi": 80,
            "name": "G#5",
            "ticks": 212374,
            "time": 240.45935538541664,
            "velocity": 0.3937007874015748
          },
          {
            "duration": 0.10869550000001027,
            "durationTicks": 96,
            "midi": 51,
            "name": "D#3",
            "ticks": 212374,
            "time": 240.45935538541664,
            "velocity": 0.3937007874015748
          },
          {
            "duration": 0.21739100000002054,
            "durationTicks": 192,
            "midi": 65,
            "name": "F4",
            "ticks": 212374,
            "time": 240.45935538541664,
            "velocity": 0.3937007874015748
          },
          {
            "duration": 0.21739100000002054,
            "durationTicks": 192,
            "midi": 54,
            "name": "F#3",
            "ticks": 212374,
            "time": 240.45935538541664,
            "velocity": 0.3937007874015748
          },
          {
            "duration": 0.21739100000002054,
            "durationTicks": 192,
            "midi": 68,
            "name": "G#4",
            "ticks": 212374,
            "time": 240.45935538541664,
            "velocity": 0.3937007874015748
          },
          {
            "duration": 0.9782595000000072,
            "durationTicks": 864,
            "midi": 51,
            "name": "D#3",
            "ticks": 212374,
            "time": 240.45935538541664,
            "velocity": 0.3937007874015748
          },
          {
            "duration": 0.21739100000002054,
            "durationTicks": 192,
            "midi": 63,
            "name": "D#4",
            "ticks": 212374,
            "time": 240.45935538541664,
            "velocity": 0.3937007874015748
          },
          {
            "duration": 0.21739100000002054,
            "durationTicks": 192,
            "midi": 77,
            "name": "F5",
            "ticks": 212374,
            "time": 240.45935538541664,
            "velocity": 0.3937007874015748
          },
          {
            "duration": 0.10869550000001027,
            "durationTicks": 96,
            "midi": 54,
            "name": "F#3",
            "ticks": 212470,
            "time": 240.56805088541665,
            "velocity": 0.3937007874015748
          },
          {
            "duration": 0.32608649999997397,
            "durationTicks": 288,
            "midi": 54,
            "name": "F#3",
            "ticks": 212566,
            "time": 240.67674638541666,
            "velocity": 0.3937007874015748
          },
          {
            "duration": 0.21739099999999212,
            "durationTicks": 192,
            "midi": 78,
            "name": "F#5",
            "ticks": 212566,
            "time": 240.67674638541666,
            "velocity": 0.3937007874015748
          },
          {
            "duration": 0.21739099999999212,
            "durationTicks": 192,
            "midi": 66,
            "name": "F#4",
            "ticks": 212566,
            "time": 240.67674638541666,
            "velocity": 0.3937007874015748
          },
          {
            "duration": 0.10869549999998185,
            "durationTicks": 96,
            "midi": 58,
            "name": "A#3",
            "ticks": 212566,
            "time": 240.67674638541666,
            "velocity": 0.3937007874015748
          },
          {
            "duration": 0.21739099999999212,
            "durationTicks": 192,
            "midi": 75,
            "name": "D#5",
            "ticks": 212566,
            "time": 240.67674638541666,
            "velocity": 0.3937007874015748
          },
          {
            "duration": 0.21739099999999212,
            "durationTicks": 192,
            "midi": 63,
            "name": "D#4",
            "ticks": 212566,
            "time": 240.67674638541666,
            "velocity": 0.3937007874015748
          },
          {
            "duration": 0.21739099999999212,
            "durationTicks": 192,
            "midi": 63,
            "name": "D#4",
            "ticks": 212566,
            "time": 240.67674638541666,
            "velocity": 0.3937007874015748
          },
          {
            "duration": 0.32608649999997397,
            "durationTicks": 288,
            "midi": 58,
            "name": "A#3",
            "ticks": 212566,
            "time": 240.67674638541666,
            "velocity": 0.3937007874015748
          },
          {
            "duration": 0.21739099999999212,
            "durationTicks": 192,
            "midi": 63,
            "name": "D#4",
            "ticks": 212662,
            "time": 240.78544188541665,
            "velocity": 0.3937007874015748
          },
          {
            "duration": 0.10869549999998185,
            "durationTicks": 96,
            "midi": 66,
            "name": "F#4",
            "ticks": 212758,
            "time": 240.89413738541666,
            "velocity": 0.3937007874015748
          },
          {
            "duration": 0.21739099999999212,
            "durationTicks": 192,
            "midi": 65,
            "name": "F4",
            "ticks": 212758,
            "time": 240.89413738541666,
            "velocity": 0.3937007874015748
          },
          {
            "duration": 0.21739099999999212,
            "durationTicks": 192,
            "midi": 61,
            "name": "C#4",
            "ticks": 212758,
            "time": 240.89413738541666,
            "velocity": 0.3937007874015748
          },
          {
            "duration": 0.21739099999999212,
            "durationTicks": 192,
            "midi": 77,
            "name": "F5",
            "ticks": 212758,
            "time": 240.89413738541666,
            "velocity": 0.3937007874015748
          },
          {
            "duration": 0.21739099999999212,
            "durationTicks": 192,
            "midi": 73,
            "name": "C#5",
            "ticks": 212758,
            "time": 240.89413738541666,
            "velocity": 0.3937007874015748
          },
          {
            "duration": 0.10869550000001027,
            "durationTicks": 96,
            "midi": 70,
            "name": "A#4",
            "ticks": 212854,
            "time": 241.00283288541664,
            "velocity": 0.3937007874015748
          },
          {
            "duration": 0.3260865000000024,
            "durationTicks": 288,
            "midi": 54,
            "name": "F#3",
            "ticks": 212854,
            "time": 241.00283288541664,
            "velocity": 0.3937007874015748
          },
          {
            "duration": 0.3260865000000024,
            "durationTicks": 288,
            "midi": 58,
            "name": "A#3",
            "ticks": 212854,
            "time": 241.00283288541664,
            "velocity": 0.3937007874015748
          },
          {
            "duration": 0.3260865000000024,
            "durationTicks": 288,
            "midi": 63,
            "name": "D#4",
            "ticks": 212854,
            "time": 241.00283288541664,
            "velocity": 0.3937007874015748
          },
          {
            "duration": 0.21739099999999212,
            "durationTicks": 192,
            "midi": 61,
            "name": "C#4",
            "ticks": 212950,
            "time": 241.11152838541665,
            "velocity": 0.3937007874015748
          },
          {
            "duration": 0.21739099999999212,
            "durationTicks": 192,
            "midi": 68,
            "name": "G#4",
            "ticks": 212950,
            "time": 241.11152838541665,
            "velocity": 0.3937007874015748
          },
          {
            "duration": 0.10869550000001027,
            "durationTicks": 96,
            "midi": 75,
            "name": "D#5",
            "ticks": 212950,
            "time": 241.11152838541665,
            "velocity": 0.3937007874015748
          },
          {
            "duration": 0.21739099999999212,
            "durationTicks": 192,
            "midi": 73,
            "name": "C#5",
            "ticks": 212950,
            "time": 241.11152838541665,
            "velocity": 0.3937007874015748
          },
          {
            "duration": 0.21739099999999212,
            "durationTicks": 192,
            "midi": 56,
            "name": "G#3",
            "ticks": 212950,
            "time": 241.11152838541665,
            "velocity": 0.3937007874015748
          },
          {
            "duration": 0.10869549999998185,
            "durationTicks": 96,
            "midi": 78,
            "name": "F#5",
            "ticks": 213046,
            "time": 241.22022388541666,
            "velocity": 0.3937007874015748
          },
          {
            "duration": 0.43478200000001266,
            "durationTicks": 384,
            "midi": 70,
            "name": "A#4",
            "ticks": 213142,
            "time": 241.32891938541664,
            "velocity": 0.3937007874015748
          },
          {
            "duration": 0.8695640000000253,
            "durationTicks": 768,
            "midi": 51,
            "name": "D#3",
            "ticks": 213142,
            "time": 241.32891938541664,
            "velocity": 0.3937007874015748
          },
          {
            "duration": 0.21739100000002054,
            "durationTicks": 192,
            "midi": 58,
            "name": "A#3",
            "ticks": 213142,
            "time": 241.32891938541664,
            "velocity": 0.3937007874015748
          },
          {
            "duration": 0.21739100000002054,
            "durationTicks": 192,
            "midi": 54,
            "name": "F#3",
            "ticks": 213142,
            "time": 241.32891938541664,
            "velocity": 0.3937007874015748
          },
          {
            "duration": 0.21739100000002054,
            "durationTicks": 192,
            "midi": 63,
            "name": "D#4",
            "ticks": 213142,
            "time": 241.32891938541664,
            "velocity": 0.3937007874015748
          },
          {
            "duration": 0.3260865000000024,
            "durationTicks": 288,
            "midi": 58,
            "name": "A#3",
            "ticks": 213142,
            "time": 241.32891938541664,
            "velocity": 0.3937007874015748
          },
          {
            "duration": 0.43478200000001266,
            "durationTicks": 384,
            "midi": 63,
            "name": "D#4",
            "ticks": 213142,
            "time": 241.32891938541664,
            "velocity": 0.3937007874015748
          },
          {
            "duration": 0.43478200000001266,
            "durationTicks": 384,
            "midi": 75,
            "name": "D#5",
            "ticks": 213142,
            "time": 241.32891938541664,
            "velocity": 0.3937007874015748
          },
          {
            "duration": 0.10869550000001027,
            "durationTicks": 96,
            "midi": 54,
            "name": "F#3",
            "ticks": 213238,
            "time": 241.43761488541665,
            "velocity": 0.3937007874015748
          },
          {
            "duration": 0.21739099999999212,
            "durationTicks": 192,
            "midi": 58,
            "name": "A#3",
            "ticks": 213334,
            "time": 241.54631038541666,
            "velocity": 0.3937007874015748
          },
          {
            "duration": 0.3260865000000024,
            "durationTicks": 288,
            "midi": 54,
            "name": "F#3",
            "ticks": 213334,
            "time": 241.54631038541666,
            "velocity": 0.3937007874015748
          },
          {
            "duration": 0.21739099999999212,
            "durationTicks": 192,
            "midi": 63,
            "name": "D#4",
            "ticks": 213334,
            "time": 241.54631038541666,
            "velocity": 0.3937007874015748
          },
          {
            "duration": 0.3260865000000024,
            "durationTicks": 288,
            "midi": 58,
            "name": "A#3",
            "ticks": 213334,
            "time": 241.54631038541666,
            "velocity": 0.3937007874015748
          },
          {
            "duration": 0.21739100000002054,
            "durationTicks": 192,
            "midi": 63,
            "name": "D#4",
            "ticks": 213430,
            "time": 241.65500588541664,
            "velocity": 0.3937007874015748
          },
          {
            "duration": 0.10869550000001027,
            "durationTicks": 96,
            "midi": 66,
            "name": "F#4",
            "ticks": 213526,
            "time": 241.76370138541665,
            "velocity": 0.3937007874015748
          },
          {
            "duration": 0.21739099999999212,
            "durationTicks": 192,
            "midi": 68,
            "name": "G#4",
            "ticks": 213526,
            "time": 241.76370138541665,
            "velocity": 0.3937007874015748
          },
          {
            "duration": 0.21739099999999212,
            "durationTicks": 192,
            "midi": 56,
            "name": "G#3",
            "ticks": 213526,
            "time": 241.76370138541665,
            "velocity": 0.3937007874015748
          },
          {
            "duration": 0.21739099999999212,
            "durationTicks": 192,
            "midi": 73,
            "name": "C#5",
            "ticks": 213526,
            "time": 241.76370138541665,
            "velocity": 0.3937007874015748
          },
          {
            "duration": 0.21739099999999212,
            "durationTicks": 192,
            "midi": 61,
            "name": "C#4",
            "ticks": 213526,
            "time": 241.76370138541665,
            "velocity": 0.3937007874015748
          },
          {
            "duration": 0.3260865000000024,
            "durationTicks": 288,
            "midi": 63,
            "name": "D#4",
            "ticks": 213622,
            "time": 241.87239688541666,
            "velocity": 0.3937007874015748
          },
          {
            "duration": 0.10869549999998185,
            "durationTicks": 96,
            "midi": 70,
            "name": "A#4",
            "ticks": 213622,
            "time": 241.87239688541666,
            "velocity": 0.3937007874015748
          },
          {
            "duration": 0.3260865000000024,
            "durationTicks": 288,
            "midi": 54,
            "name": "F#3",
            "ticks": 213622,
            "time": 241.87239688541666,
            "velocity": 0.3937007874015748
          },
          {
            "duration": 0.3260865000000024,
            "durationTicks": 288,
            "midi": 58,
            "name": "A#3",
            "ticks": 213622,
            "time": 241.87239688541666,
            "velocity": 0.3937007874015748
          },
          {
            "duration": 0.10869550000001027,
            "durationTicks": 96,
            "midi": 75,
            "name": "D#5",
            "ticks": 213718,
            "time": 241.98109238541664,
            "velocity": 0.3937007874015748
          },
          {
            "duration": 0.21739100000002054,
            "durationTicks": 192,
            "midi": 58,
            "name": "A#3",
            "ticks": 213718,
            "time": 241.98109238541664,
            "velocity": 0.3937007874015748
          },
          {
            "duration": 0.21739100000002054,
            "durationTicks": 192,
            "midi": 63,
            "name": "D#4",
            "ticks": 213718,
            "time": 241.98109238541664,
            "velocity": 0.3937007874015748
          },
          {
            "duration": 0.21739100000002054,
            "durationTicks": 192,
            "midi": 75,
            "name": "D#5",
            "ticks": 213718,
            "time": 241.98109238541664,
            "velocity": 0.3937007874015748
          },
          {
            "duration": 0.21739100000002054,
            "durationTicks": 192,
            "midi": 70,
            "name": "A#4",
            "ticks": 213718,
            "time": 241.98109238541664,
            "velocity": 0.3937007874015748
          },
          {
            "duration": 0.10869550000001027,
            "durationTicks": 96,
            "midi": 78,
            "name": "F#5",
            "ticks": 213814,
            "time": 242.08978788541665,
            "velocity": 0.3937007874015748
          },
          {
            "duration": 0.21739099999999212,
            "durationTicks": 192,
            "midi": 53,
            "name": "F3",
            "ticks": 213910,
            "time": 242.19848338541667,
            "velocity": 0.3937007874015748
          },
          {
            "duration": 0.21739099999999212,
            "durationTicks": 192,
            "midi": 65,
            "name": "F4",
            "ticks": 213910,
            "time": 242.19848338541667,
            "velocity": 0.3937007874015748
          },
          {
            "duration": 0.21739099999999212,
            "durationTicks": 192,
            "midi": 77,
            "name": "F5",
            "ticks": 213910,
            "time": 242.19848338541667,
            "velocity": 0.3937007874015748
          },
          {
            "duration": 0.21739099999999212,
            "durationTicks": 192,
            "midi": 78,
            "name": "F#5",
            "ticks": 214102,
            "time": 242.41587438541666,
            "velocity": 0.3937007874015748
          },
          {
            "duration": 0.21739099999999212,
            "durationTicks": 192,
            "midi": 66,
            "name": "F#4",
            "ticks": 214102,
            "time": 242.41587438541666,
            "velocity": 0.3937007874015748
          },
          {
            "duration": 0.21739099999999212,
            "durationTicks": 192,
            "midi": 54,
            "name": "F#3",
            "ticks": 214102,
            "time": 242.41587438541666,
            "velocity": 0.3937007874015748
          },
          {
            "duration": 0.21739099999999212,
            "durationTicks": 192,
            "midi": 56,
            "name": "G#3",
            "ticks": 214294,
            "time": 242.63326538541665,
            "velocity": 0.3937007874015748
          },
          {
            "duration": 0.21739099999999212,
            "durationTicks": 192,
            "midi": 68,
            "name": "G#4",
            "ticks": 214294,
            "time": 242.63326538541665,
            "velocity": 0.3937007874015748
          },
          {
            "duration": 0.21739099999999212,
            "durationTicks": 192,
            "midi": 80,
            "name": "G#5",
            "ticks": 214294,
            "time": 242.63326538541665,
            "velocity": 0.3937007874015748
          },
          {
            "duration": 0.21739100000002054,
            "durationTicks": 192,
            "midi": 82,
            "name": "A#5",
            "ticks": 214486,
            "time": 242.85065638541664,
            "velocity": 0.3937007874015748
          },
          {
            "duration": 0.21739100000002054,
            "durationTicks": 192,
            "midi": 70,
            "name": "A#4",
            "ticks": 214486,
            "time": 242.85065638541664,
            "velocity": 0.3937007874015748
          },
          {
            "duration": 0.21739100000002054,
            "durationTicks": 192,
            "midi": 58,
            "name": "A#3",
            "ticks": 214486,
            "time": 242.85065638541664,
            "velocity": 0.3937007874015748
          },
          {
            "duration": 0.21739099999999212,
            "durationTicks": 192,
            "midi": 63,
            "name": "D#4",
            "ticks": 214678,
            "time": 243.06804738541666,
            "velocity": 0.3937007874015748
          },
          {
            "duration": 0.21739099999999212,
            "durationTicks": 192,
            "midi": 75,
            "name": "D#5",
            "ticks": 214678,
            "time": 243.06804738541666,
            "velocity": 0.3937007874015748
          },
          {
            "duration": 0.21739099999999212,
            "durationTicks": 192,
            "midi": 51,
            "name": "D#3",
            "ticks": 214678,
            "time": 243.06804738541666,
            "velocity": 0.3937007874015748
          },
          {
            "duration": 0.21739099999999212,
            "durationTicks": 192,
            "midi": 71,
            "name": "B4",
            "ticks": 215062,
            "time": 243.50282938541665,
            "velocity": 0.3937007874015748
          },
          {
            "duration": 0.21739099999999212,
            "durationTicks": 192,
            "midi": 67,
            "name": "G4",
            "ticks": 215062,
            "time": 243.50282938541665,
            "velocity": 0.3937007874015748
          },
          {
            "duration": 0.21739099999999212,
            "durationTicks": 192,
            "midi": 79,
            "name": "G5",
            "ticks": 215062,
            "time": 243.50282938541665,
            "velocity": 0.3937007874015748
          },
          {
            "duration": 0.21739099999999212,
            "durationTicks": 192,
            "midi": 83,
            "name": "B5",
            "ticks": 215062,
            "time": 243.50282938541665,
            "velocity": 0.3937007874015748
          },
          {
            "duration": 0.21739100000002054,
            "durationTicks": 192,
            "midi": 81,
            "name": "A5",
            "ticks": 215254,
            "time": 243.72022038541664,
            "velocity": 0.3937007874015748
          },
          {
            "duration": 0.21739100000002054,
            "durationTicks": 192,
            "midi": 69,
            "name": "A4",
            "ticks": 215254,
            "time": 243.72022038541664,
            "velocity": 0.3937007874015748
          },
          {
            "duration": 0.21739100000002054,
            "durationTicks": 192,
            "midi": 74,
            "name": "D5",
            "ticks": 215254,
            "time": 243.72022038541664,
            "velocity": 0.3937007874015748
          },
          {
            "duration": 0.21739100000002054,
            "durationTicks": 192,
            "midi": 86,
            "name": "D6",
            "ticks": 215254,
            "time": 243.72022038541664,
            "velocity": 0.3937007874015748
          },
          {
            "duration": 0.21739099999999212,
            "durationTicks": 192,
            "midi": 81,
            "name": "A5",
            "ticks": 215446,
            "time": 243.93761138541666,
            "velocity": 0.3937007874015748
          },
          {
            "duration": 0.21739099999999212,
            "durationTicks": 192,
            "midi": 86,
            "name": "D6",
            "ticks": 215446,
            "time": 243.93761138541666,
            "velocity": 0.3937007874015748
          },
          {
            "duration": 0.21739099999999212,
            "durationTicks": 192,
            "midi": 69,
            "name": "A4",
            "ticks": 215446,
            "time": 243.93761138541666,
            "velocity": 0.3937007874015748
          },
          {
            "duration": 0.21739099999999212,
            "durationTicks": 192,
            "midi": 35,
            "name": "B1",
            "ticks": 215446,
            "time": 243.93761138541666,
            "velocity": 0.3937007874015748
          },
          {
            "duration": 1.7391279999999938,
            "durationTicks": 1536,
            "midi": 31,
            "name": "G1",
            "ticks": 215446,
            "time": 243.93761138541666,
            "velocity": 0.3937007874015748
          },
          {
            "duration": 0.21739099999999212,
            "durationTicks": 192,
            "midi": 52,
            "name": "E3",
            "ticks": 215446,
            "time": 243.93761138541666,
            "velocity": 0.3937007874015748
          },
          {
            "duration": 1.7391279999999938,
            "durationTicks": 1536,
            "midi": 36,
            "name": "C2",
            "ticks": 215446,
            "time": 243.93761138541666,
            "velocity": 0.3937007874015748
          },
          {
            "duration": 1.7391279999999938,
            "durationTicks": 1536,
            "midi": 43,
            "name": "G2",
            "ticks": 215446,
            "time": 243.93761138541666,
            "velocity": 0.3937007874015748
          },
          {
            "duration": 0.21739099999999212,
            "durationTicks": 192,
            "midi": 55,
            "name": "G3",
            "ticks": 215446,
            "time": 243.93761138541666,
            "velocity": 0.3937007874015748
          },
          {
            "duration": 0.10869549999998185,
            "durationTicks": 96,
            "midi": 48,
            "name": "C3",
            "ticks": 215446,
            "time": 243.93761138541666,
            "velocity": 0.3937007874015748
          },
          {
            "duration": 0.9782594999999787,
            "durationTicks": 864,
            "midi": 48,
            "name": "C3",
            "ticks": 215446,
            "time": 243.93761138541666,
            "velocity": 0.3937007874015748
          },
          {
            "duration": 0.21739099999999212,
            "durationTicks": 192,
            "midi": 60,
            "name": "C4",
            "ticks": 215446,
            "time": 243.93761138541666,
            "velocity": 0.3937007874015748
          },
          {
            "duration": 0.21739099999999212,
            "durationTicks": 192,
            "midi": 74,
            "name": "D5",
            "ticks": 215446,
            "time": 243.93761138541666,
            "velocity": 0.3937007874015748
          },
          {
            "duration": 0.10869550000001027,
            "durationTicks": 96,
            "midi": 52,
            "name": "E3",
            "ticks": 215542,
            "time": 244.04630688541664,
            "velocity": 0.3937007874015748
          },
          {
            "duration": 0.21739099999999212,
            "durationTicks": 192,
            "midi": 83,
            "name": "B5",
            "ticks": 215638,
            "time": 244.15500238541665,
            "velocity": 0.3937007874015748
          },
          {
            "duration": 0.21739099999999212,
            "durationTicks": 192,
            "midi": 88,
            "name": "E6",
            "ticks": 215638,
            "time": 244.15500238541665,
            "velocity": 0.3937007874015748
          },
          {
            "duration": 0.3260865000000024,
            "durationTicks": 288,
            "midi": 52,
            "name": "E3",
            "ticks": 215638,
            "time": 244.15500238541665,
            "velocity": 0.3937007874015748
          },
          {
            "duration": 0.21739099999999212,
            "durationTicks": 192,
            "midi": 71,
            "name": "B4",
            "ticks": 215638,
            "time": 244.15500238541665,
            "velocity": 0.3937007874015748
          },
          {
            "duration": 0.10869550000001027,
            "durationTicks": 96,
            "midi": 55,
            "name": "G3",
            "ticks": 215638,
            "time": 244.15500238541665,
            "velocity": 0.3937007874015748
          },
          {
            "duration": 0.21739099999999212,
            "durationTicks": 192,
            "midi": 60,
            "name": "C4",
            "ticks": 215638,
            "time": 244.15500238541665,
            "velocity": 0.3937007874015748
          },
          {
            "duration": 0.3260865000000024,
            "durationTicks": 288,
            "midi": 55,
            "name": "G3",
            "ticks": 215638,
            "time": 244.15500238541665,
            "velocity": 0.3937007874015748
          },
          {
            "duration": 0.21739099999999212,
            "durationTicks": 192,
            "midi": 76,
            "name": "E5",
            "ticks": 215638,
            "time": 244.15500238541665,
            "velocity": 0.3937007874015748
          },
          {
            "duration": 0.21739099999999212,
            "durationTicks": 192,
            "midi": 60,
            "name": "C4",
            "ticks": 215734,
            "time": 244.26369788541666,
            "velocity": 0.3937007874015748
          },
          {
            "duration": 0.21739100000002054,
            "durationTicks": 192,
            "midi": 71,
            "name": "B4",
            "ticks": 215830,
            "time": 244.37239338541664,
            "velocity": 0.3937007874015748
          },
          {
            "duration": 0.21739100000002054,
            "durationTicks": 192,
            "midi": 67,
            "name": "G4",
            "ticks": 215830,
            "time": 244.37239338541664,
            "velocity": 0.3937007874015748
          },
          {
            "duration": 0.21739100000002054,
            "durationTicks": 192,
            "midi": 83,
            "name": "B5",
            "ticks": 215830,
            "time": 244.37239338541664,
            "velocity": 0.3937007874015748
          },
          {
            "duration": 0.10869550000001027,
            "durationTicks": 96,
            "midi": 64,
            "name": "E4",
            "ticks": 215830,
            "time": 244.37239338541664,
            "velocity": 0.3937007874015748
          },
          {
            "duration": 0.21739100000002054,
            "durationTicks": 192,
            "midi": 79,
            "name": "G5",
            "ticks": 215830,
            "time": 244.37239338541664,
            "velocity": 0.3937007874015748
          },
          {
            "duration": 0.3260865000000024,
            "durationTicks": 288,
            "midi": 52,
            "name": "E3",
            "ticks": 215926,
            "time": 244.48108888541665,
            "velocity": 0.3937007874015748
          },
          {
            "duration": 0.3260865000000024,
            "durationTicks": 288,
            "midi": 60,
            "name": "C4",
            "ticks": 215926,
            "time": 244.48108888541665,
            "velocity": 0.3937007874015748
          },
          {
            "duration": 0.10869550000001027,
            "durationTicks": 96,
            "midi": 67,
            "name": "G4",
            "ticks": 215926,
            "time": 244.48108888541665,
            "velocity": 0.3937007874015748
          },
          {
            "duration": 0.3260865000000024,
            "durationTicks": 288,
            "midi": 55,
            "name": "G3",
            "ticks": 215926,
            "time": 244.48108888541665,
            "velocity": 0.3937007874015748
          },
          {
            "duration": 0.10869549999998185,
            "durationTicks": 96,
            "midi": 72,
            "name": "C5",
            "ticks": 216022,
            "time": 244.58978438541666,
            "velocity": 0.3937007874015748
          },
          {
            "duration": 0.21739099999999212,
            "durationTicks": 192,
            "midi": 81,
            "name": "A5",
            "ticks": 216022,
            "time": 244.58978438541666,
            "velocity": 0.3937007874015748
          },
          {
            "duration": 0.21739099999999212,
            "durationTicks": 192,
            "midi": 78,
            "name": "F#5",
            "ticks": 216022,
            "time": 244.58978438541666,
            "velocity": 0.3937007874015748
          },
          {
            "duration": 0.21739099999999212,
            "durationTicks": 192,
            "midi": 66,
            "name": "F#4",
            "ticks": 216022,
            "time": 244.58978438541666,
            "velocity": 0.3937007874015748
          },
          {
            "duration": 0.21739099999999212,
            "durationTicks": 192,
            "midi": 69,
            "name": "A4",
            "ticks": 216022,
            "time": 244.58978438541666,
            "velocity": 0.3937007874015748
          },
          {
            "duration": 0.10869550000001027,
            "durationTicks": 96,
            "midi": 76,
            "name": "E5",
            "ticks": 216118,
            "time": 244.69847988541665,
            "velocity": 0.3937007874015748
          },
          {
            "duration": 0.21739099999999212,
            "durationTicks": 192,
            "midi": 67,
            "name": "G4",
            "ticks": 216214,
            "time": 244.80717538541666,
            "velocity": 0.3937007874015748
          },
          {
            "duration": 0.21739099999999212,
            "durationTicks": 192,
            "midi": 71,
            "name": "B4",
            "ticks": 216214,
            "time": 244.80717538541666,
            "velocity": 0.3937007874015748
          },
          {
            "duration": 0.21739099999999212,
            "durationTicks": 192,
            "midi": 79,
            "name": "G5",
            "ticks": 216214,
            "time": 244.80717538541666,
            "velocity": 0.3937007874015748
          },
          {
            "duration": 0.21739099999999212,
            "durationTicks": 192,
            "midi": 83,
            "name": "B5",
            "ticks": 216214,
            "time": 244.80717538541666,
            "velocity": 0.3937007874015748
          },
          {
            "duration": 0.21739099999999212,
            "durationTicks": 192,
            "midi": 52,
            "name": "E3",
            "ticks": 216214,
            "time": 244.80717538541666,
            "velocity": 0.3937007874015748
          },
          {
            "duration": 0.21739099999999212,
            "durationTicks": 192,
            "midi": 55,
            "name": "G3",
            "ticks": 216214,
            "time": 244.80717538541666,
            "velocity": 0.3937007874015748
          },
          {
            "duration": 0.8695639999999969,
            "durationTicks": 768,
            "midi": 48,
            "name": "C3",
            "ticks": 216214,
            "time": 244.80717538541666,
            "velocity": 0.3937007874015748
          },
          {
            "duration": 0.21739099999999212,
            "durationTicks": 192,
            "midi": 60,
            "name": "C4",
            "ticks": 216214,
            "time": 244.80717538541666,
            "velocity": 0.3937007874015748
          },
          {
            "duration": 0.10869550000001027,
            "durationTicks": 96,
            "midi": 52,
            "name": "E3",
            "ticks": 216310,
            "time": 244.91587088541664,
            "velocity": 0.3937007874015748
          },
          {
            "duration": 0.10869550000001027,
            "durationTicks": 96,
            "midi": 55,
            "name": "G3",
            "ticks": 216406,
            "time": 245.02456638541665,
            "velocity": 0.3937007874015748
          },
          {
            "duration": 0.3260865000000024,
            "durationTicks": 288,
            "midi": 52,
            "name": "E3",
            "ticks": 216406,
            "time": 245.02456638541665,
            "velocity": 0.3937007874015748
          },
          {
            "duration": 0.3260865000000024,
            "durationTicks": 288,
            "midi": 55,
            "name": "G3",
            "ticks": 216406,
            "time": 245.02456638541665,
            "velocity": 0.3937007874015748
          },
          {
            "duration": 0.21739099999999212,
            "durationTicks": 192,
            "midi": 60,
            "name": "C4",
            "ticks": 216406,
            "time": 245.02456638541665,
            "velocity": 0.3937007874015748
          },
          {
            "duration": 0.21739099999999212,
            "durationTicks": 192,
            "midi": 60,
            "name": "C4",
            "ticks": 216502,
            "time": 245.13326188541666,
            "velocity": 0.3937007874015748
          },
          {
            "duration": 0.21739100000002054,
            "durationTicks": 192,
            "midi": 69,
            "name": "A4",
            "ticks": 216598,
            "time": 245.24195738541664,
            "velocity": 0.3937007874015748
          },
          {
            "duration": 0.10869550000001027,
            "durationTicks": 96,
            "midi": 64,
            "name": "E4",
            "ticks": 216598,
            "time": 245.24195738541664,
            "velocity": 0.3937007874015748
          },
          {
            "duration": 0.21739100000002054,
            "durationTicks": 192,
            "midi": 78,
            "name": "F#5",
            "ticks": 216598,
            "time": 245.24195738541664,
            "velocity": 0.3937007874015748
          },
          {
            "duration": 0.21739100000002054,
            "durationTicks": 192,
            "midi": 81,
            "name": "A5",
            "ticks": 216598,
            "time": 245.24195738541664,
            "velocity": 0.3937007874015748
          },
          {
            "duration": 0.21739100000002054,
            "durationTicks": 192,
            "midi": 66,
            "name": "F#4",
            "ticks": 216598,
            "time": 245.24195738541664,
            "velocity": 0.3937007874015748
          },
          {
            "duration": 0.3260865000000024,
            "durationTicks": 288,
            "midi": 55,
            "name": "G3",
            "ticks": 216694,
            "time": 245.35065288541665,
            "velocity": 0.3937007874015748
          },
          {
            "duration": 0.10869550000001027,
            "durationTicks": 96,
            "midi": 67,
            "name": "G4",
            "ticks": 216694,
            "time": 245.35065288541665,
            "velocity": 0.3937007874015748
          },
          {
            "duration": 0.3260865000000024,
            "durationTicks": 288,
            "midi": 52,
            "name": "E3",
            "ticks": 216694,
            "time": 245.35065288541665,
            "velocity": 0.3937007874015748
          },
          {
            "duration": 0.3260865000000024,
            "durationTicks": 288,
            "midi": 60,
            "name": "C4",
            "ticks": 216694,
            "time": 245.35065288541665,
            "velocity": 0.3937007874015748
          },
          {
            "duration": 0.10869549999998185,
            "durationTicks": 96,
            "midi": 72,
            "name": "C5",
            "ticks": 216790,
            "time": 245.45934838541666,
            "velocity": 0.3937007874015748
          },
          {
            "duration": 0.21739099999999212,
            "durationTicks": 192,
            "midi": 67,
            "name": "G4",
            "ticks": 216790,
            "time": 245.45934838541666,
            "velocity": 0.3937007874015748
          },
          {
            "duration": 0.21739099999999212,
            "durationTicks": 192,
            "midi": 71,
            "name": "B4",
            "ticks": 216790,
            "time": 245.45934838541666,
            "velocity": 0.3937007874015748
          },
          {
            "duration": 0.21739099999999212,
            "durationTicks": 192,
            "midi": 79,
            "name": "G5",
            "ticks": 216790,
            "time": 245.45934838541666,
            "velocity": 0.3937007874015748
          },
          {
            "duration": 0.21739099999999212,
            "durationTicks": 192,
            "midi": 83,
            "name": "B5",
            "ticks": 216790,
            "time": 245.45934838541666,
            "velocity": 0.3937007874015748
          },
          {
            "duration": 0.21739099999999212,
            "durationTicks": 192,
            "midi": 35,
            "name": "B1",
            "ticks": 216790,
            "time": 245.45934838541666,
            "velocity": 0.3937007874015748
          },
          {
            "duration": 0.10869550000001027,
            "durationTicks": 96,
            "midi": 76,
            "name": "E5",
            "ticks": 216886,
            "time": 245.56804388541664,
            "velocity": 0.3937007874015748
          },
          {
            "duration": 0.21739099999999212,
            "durationTicks": 192,
            "midi": 54,
            "name": "F#3",
            "ticks": 216982,
            "time": 245.67673938541665,
            "velocity": 0.3937007874015748
          },
          {
            "duration": 0.21739099999999212,
            "durationTicks": 192,
            "midi": 57,
            "name": "A3",
            "ticks": 216982,
            "time": 245.67673938541665,
            "velocity": 0.3937007874015748
          },
          {
            "duration": 0.21739099999999212,
            "durationTicks": 192,
            "midi": 86,
            "name": "D6",
            "ticks": 216982,
            "time": 245.67673938541665,
            "velocity": 0.3937007874015748
          },
          {
            "duration": 0.21739099999999212,
            "durationTicks": 192,
            "midi": 74,
            "name": "D5",
            "ticks": 216982,
            "time": 245.67673938541665,
            "velocity": 0.3937007874015748
          },
          {
            "duration": 0.21739099999999212,
            "durationTicks": 192,
            "midi": 62,
            "name": "D4",
            "ticks": 216982,
            "time": 245.67673938541665,
            "velocity": 0.3937007874015748
          },
          {
            "duration": 0.21739099999999212,
            "durationTicks": 192,
            "midi": 69,
            "name": "A4",
            "ticks": 216982,
            "time": 245.67673938541665,
            "velocity": 0.3937007874015748
          },
          {
            "duration": 1.7391279999999938,
            "durationTicks": 1536,
            "midi": 45,
            "name": "A2",
            "ticks": 216982,
            "time": 245.67673938541665,
            "velocity": 0.3937007874015748
          },
          {
            "duration": 0.21739099999999212,
            "durationTicks": 192,
            "midi": 81,
            "name": "A5",
            "ticks": 216982,
            "time": 245.67673938541665,
            "velocity": 0.3937007874015748
          },
          {
            "duration": 0.21739099999999212,
            "durationTicks": 192,
            "midi": 35,
            "name": "B1",
            "ticks": 216982,
            "time": 245.67673938541665,
            "velocity": 0.3937007874015748
          },
          {
            "duration": 0.10869550000001027,
            "durationTicks": 96,
            "midi": 50,
            "name": "D3",
            "ticks": 216982,
            "time": 245.67673938541665,
            "velocity": 0.3937007874015748
          },
          {
            "duration": 1.7391279999999938,
            "durationTicks": 1536,
            "midi": 33,
            "name": "A1",
            "ticks": 216982,
            "time": 245.67673938541665,
            "velocity": 0.3937007874015748
          },
          {
            "duration": 0.9782595000000072,
            "durationTicks": 864,
            "midi": 50,
            "name": "D3",
            "ticks": 216982,
            "time": 245.67673938541665,
            "velocity": 0.3937007874015748
          },
          {
            "duration": 1.7391279999999938,
            "durationTicks": 1536,
            "midi": 38,
            "name": "D2",
            "ticks": 216982,
            "time": 245.67673938541665,
            "velocity": 0.3937007874015748
          },
          {
            "duration": 0.10869549999998185,
            "durationTicks": 96,
            "midi": 54,
            "name": "F#3",
            "ticks": 217078,
            "time": 245.78543488541666,
            "velocity": 0.3937007874015748
          },
          {
            "duration": 0.21739099999999212,
            "durationTicks": 192,
            "midi": 62,
            "name": "D4",
            "ticks": 217174,
            "time": 245.89413038541664,
            "velocity": 0.3937007874015748
          },
          {
            "duration": 0.21739099999999212,
            "durationTicks": 192,
            "midi": 76,
            "name": "E5",
            "ticks": 217174,
            "time": 245.89413038541664,
            "velocity": 0.3937007874015748
          },
          {
            "duration": 0.10869550000001027,
            "durationTicks": 96,
            "midi": 57,
            "name": "A3",
            "ticks": 217174,
            "time": 245.89413038541664,
            "velocity": 0.3937007874015748
          },
          {
            "duration": 0.21739099999999212,
            "durationTicks": 192,
            "midi": 71,
            "name": "B4",
            "ticks": 217174,
            "time": 245.89413038541664,
            "velocity": 0.3937007874015748
          },
          {
            "duration": 0.21739099999999212,
            "durationTicks": 192,
            "midi": 88,
            "name": "E6",
            "ticks": 217174,
            "time": 245.89413038541664,
            "velocity": 0.3937007874015748
          },
          {
            "duration": 0.21739099999999212,
            "durationTicks": 192,
            "midi": 83,
            "name": "B5",
            "ticks": 217174,
            "time": 245.89413038541664,
            "velocity": 0.3937007874015748
          },
          {
            "duration": 0.3260865000000024,
            "durationTicks": 288,
            "midi": 54,
            "name": "F#3",
            "ticks": 217174,
            "time": 245.89413038541664,
            "velocity": 0.3937007874015748
          },
          {
            "duration": 0.3260865000000024,
            "durationTicks": 288,
            "midi": 57,
            "name": "A3",
            "ticks": 217174,
            "time": 245.89413038541664,
            "velocity": 0.3937007874015748
          },
          {
            "duration": 0.21739099999999212,
            "durationTicks": 192,
            "midi": 62,
            "name": "D4",
            "ticks": 217270,
            "time": 246.00282588541666,
            "velocity": 0.3937007874015748
          },
          {
            "duration": 0.21739100000002054,
            "durationTicks": 192,
            "midi": 67,
            "name": "G4",
            "ticks": 217366,
            "time": 246.11152138541664,
            "velocity": 0.3937007874015748
          },
          {
            "duration": 0.21739100000002054,
            "durationTicks": 192,
            "midi": 83,
            "name": "B5",
            "ticks": 217366,
            "time": 246.11152138541664,
            "velocity": 0.3937007874015748
          },
          {
            "duration": 0.21739100000002054,
            "durationTicks": 192,
            "midi": 71,
            "name": "B4",
            "ticks": 217366,
            "time": 246.11152138541664,
            "velocity": 0.3937007874015748
          },
          {
            "duration": 0.21739100000002054,
            "durationTicks": 192,
            "midi": 79,
            "name": "G5",
            "ticks": 217366,
            "time": 246.11152138541664,
            "velocity": 0.3937007874015748
          },
          {
            "duration": 0.10869550000001027,
            "durationTicks": 96,
            "midi": 66,
            "name": "F#4",
            "ticks": 217366,
            "time": 246.11152138541664,
            "velocity": 0.3937007874015748
          },
          {
            "duration": 0.3260865000000024,
            "durationTicks": 288,
            "midi": 54,
            "name": "F#3",
            "ticks": 217462,
            "time": 246.22021688541665,
            "velocity": 0.3937007874015748
          },
          {
            "duration": 0.10869550000001027,
            "durationTicks": 96,
            "midi": 69,
            "name": "A4",
            "ticks": 217462,
            "time": 246.22021688541665,
            "velocity": 0.3937007874015748
          },
          {
            "duration": 0.3260865000000024,
            "durationTicks": 288,
            "midi": 62,
            "name": "D4",
            "ticks": 217462,
            "time": 246.22021688541665,
            "velocity": 0.3937007874015748
          },
          {
            "duration": 0.3260865000000024,
            "durationTicks": 288,
            "midi": 57,
            "name": "A3",
            "ticks": 217462,
            "time": 246.22021688541665,
            "velocity": 0.3937007874015748
          },
          {
            "duration": 0.21739099999999212,
            "durationTicks": 192,
            "midi": 69,
            "name": "A4",
            "ticks": 217558,
            "time": 246.32891238541666,
            "velocity": 0.3937007874015748
          },
          {
            "duration": 0.21739099999999212,
            "durationTicks": 192,
            "midi": 66,
            "name": "F#4",
            "ticks": 217558,
            "time": 246.32891238541666,
            "velocity": 0.3937007874015748
          },
          {
            "duration": 0.10869549999998185,
            "durationTicks": 96,
            "midi": 74,
            "name": "D5",
            "ticks": 217558,
            "time": 246.32891238541666,
            "velocity": 0.3937007874015748
          },
          {
            "duration": 0.21739099999999212,
            "durationTicks": 192,
            "midi": 81,
            "name": "A5",
            "ticks": 217558,
            "time": 246.32891238541666,
            "velocity": 0.3937007874015748
          },
          {
            "duration": 0.21739099999999212,
            "durationTicks": 192,
            "midi": 78,
            "name": "F#5",
            "ticks": 217558,
            "time": 246.32891238541666,
            "velocity": 0.3937007874015748
          },
          {
            "duration": 0.10869550000001027,
            "durationTicks": 96,
            "midi": 78,
            "name": "F#5",
            "ticks": 217654,
            "time": 246.43760788541664,
            "velocity": 0.3937007874015748
          },
          {
            "duration": 0.21739099999999212,
            "durationTicks": 192,
            "midi": 83,
            "name": "B5",
            "ticks": 217750,
            "time": 246.54630338541665,
            "velocity": 0.3937007874015748
          },
          {
            "duration": 0.21739099999999212,
            "durationTicks": 192,
            "midi": 57,
            "name": "A3",
            "ticks": 217750,
            "time": 246.54630338541665,
            "velocity": 0.3937007874015748
          },
          {
            "duration": 0.21739099999999212,
            "durationTicks": 192,
            "midi": 62,
            "name": "D4",
            "ticks": 217750,
            "time": 246.54630338541665,
            "velocity": 0.3937007874015748
          },
          {
            "duration": 0.21739099999999212,
            "durationTicks": 192,
            "midi": 67,
            "name": "G4",
            "ticks": 217750,
            "time": 246.54630338541665,
            "velocity": 0.3937007874015748
          },
          {
            "duration": 0.21739099999999212,
            "durationTicks": 192,
            "midi": 71,
            "name": "B4",
            "ticks": 217750,
            "time": 246.54630338541665,
            "velocity": 0.3937007874015748
          },
          {
            "duration": 0.21739099999999212,
            "durationTicks": 192,
            "midi": 79,
            "name": "G5",
            "ticks": 217750,
            "time": 246.54630338541665,
            "velocity": 0.3937007874015748
          },
          {
            "duration": 0.21739099999999212,
            "durationTicks": 192,
            "midi": 54,
            "name": "F#3",
            "ticks": 217750,
            "time": 246.54630338541665,
            "velocity": 0.3937007874015748
          },
          {
            "duration": 0.8695639999999969,
            "durationTicks": 768,
            "midi": 50,
            "name": "D3",
            "ticks": 217750,
            "time": 246.54630338541665,
            "velocity": 0.3937007874015748
          },
          {
            "duration": 0.10869549999998185,
            "durationTicks": 96,
            "midi": 54,
            "name": "F#3",
            "ticks": 217846,
            "time": 246.65499888541666,
            "velocity": 0.3937007874015748
          },
          {
            "duration": 0.10869550000001027,
            "durationTicks": 96,
            "midi": 57,
            "name": "A3",
            "ticks": 217942,
            "time": 246.76369438541664,
            "velocity": 0.3937007874015748
          },
          {
            "duration": 0.3260865000000024,
            "durationTicks": 288,
            "midi": 57,
            "name": "A3",
            "ticks": 217942,
            "time": 246.76369438541664,
            "velocity": 0.3937007874015748
          },
          {
            "duration": 0.3260865000000024,
            "durationTicks": 288,
            "midi": 54,
            "name": "F#3",
            "ticks": 217942,
            "time": 246.76369438541664,
            "velocity": 0.3937007874015748
          },
          {
            "duration": 0.21739100000002054,
            "durationTicks": 192,
            "midi": 62,
            "name": "D4",
            "ticks": 217942,
            "time": 246.76369438541664,
            "velocity": 0.3937007874015748
          },
          {
            "duration": 0.21739099999999212,
            "durationTicks": 192,
            "midi": 62,
            "name": "D4",
            "ticks": 218038,
            "time": 246.87238988541665,
            "velocity": 0.3937007874015748
          },
          {
            "duration": 0.10869549999998185,
            "durationTicks": 96,
            "midi": 66,
            "name": "F#4",
            "ticks": 218134,
            "time": 246.98108538541666,
            "velocity": 0.3937007874015748
          },
          {
            "duration": 0.21739099999999212,
            "durationTicks": 192,
            "midi": 66,
            "name": "F#4",
            "ticks": 218134,
            "time": 246.98108538541666,
            "velocity": 0.3937007874015748
          },
          {
            "duration": 0.21739099999999212,
            "durationTicks": 192,
            "midi": 78,
            "name": "F#5",
            "ticks": 218134,
            "time": 246.98108538541666,
            "velocity": 0.3937007874015748
          },
          {
            "duration": 0.21739099999999212,
            "durationTicks": 192,
            "midi": 81,
            "name": "A5",
            "ticks": 218134,
            "time": 246.98108538541666,
            "velocity": 0.3937007874015748
          },
          {
            "duration": 0.21739099999999212,
            "durationTicks": 192,
            "midi": 69,
            "name": "A4",
            "ticks": 218134,
            "time": 246.98108538541666,
            "velocity": 0.3937007874015748
          },
          {
            "duration": 0.3260865000000024,
            "durationTicks": 288,
            "midi": 54,
            "name": "F#3",
            "ticks": 218230,
            "time": 247.08978088541664,
            "velocity": 0.3937007874015748
          },
          {
            "duration": 0.10869550000001027,
            "durationTicks": 96,
            "midi": 69,
            "name": "A4",
            "ticks": 218230,
            "time": 247.08978088541664,
            "velocity": 0.3937007874015748
          },
          {
            "duration": 0.3260865000000024,
            "durationTicks": 288,
            "midi": 57,
            "name": "A3",
            "ticks": 218230,
            "time": 247.08978088541664,
            "velocity": 0.3937007874015748
          },
          {
            "duration": 0.3260865000000024,
            "durationTicks": 288,
            "midi": 62,
            "name": "D4",
            "ticks": 218230,
            "time": 247.08978088541664,
            "velocity": 0.3937007874015748
          },
          {
            "duration": 0.21739099999999212,
            "durationTicks": 192,
            "midi": 83,
            "name": "B5",
            "ticks": 218326,
            "time": 247.19847638541665,
            "velocity": 0.3937007874015748
          },
          {
            "duration": 0.21739099999999212,
            "durationTicks": 192,
            "midi": 79,
            "name": "G5",
            "ticks": 218326,
            "time": 247.19847638541665,
            "velocity": 0.3937007874015748
          },
          {
            "duration": 0.10869550000001027,
            "durationTicks": 96,
            "midi": 74,
            "name": "D5",
            "ticks": 218326,
            "time": 247.19847638541665,
            "velocity": 0.3937007874015748
          },
          {
            "duration": 0.21739099999999212,
            "durationTicks": 192,
            "midi": 71,
            "name": "B4",
            "ticks": 218326,
            "time": 247.19847638541665,
            "velocity": 0.3937007874015748
          },
          {
            "duration": 0.21739099999999212,
            "durationTicks": 192,
            "midi": 67,
            "name": "G4",
            "ticks": 218326,
            "time": 247.19847638541665,
            "velocity": 0.3937007874015748
          },
          {
            "duration": 0.10869549999998185,
            "durationTicks": 96,
            "midi": 78,
            "name": "F#5",
            "ticks": 218422,
            "time": 247.30717188541666,
            "velocity": 0.3937007874015748
          },
          {
            "duration": 0.21739099999999212,
            "durationTicks": 192,
            "midi": 81,
            "name": "A5",
            "ticks": 218518,
            "time": 247.41586738541665,
            "velocity": 0.3937007874015748
          },
          {
            "duration": 1.7391279999999938,
            "durationTicks": 1536,
            "midi": 40,
            "name": "E2",
            "ticks": 218518,
            "time": 247.41586738541665,
            "velocity": 0.3937007874015748
          },
          {
            "duration": 0.21739099999999212,
            "durationTicks": 192,
            "midi": 66,
            "name": "F#4",
            "ticks": 218518,
            "time": 247.41586738541665,
            "velocity": 0.3937007874015748
          },
          {
            "duration": 0.21739099999999212,
            "durationTicks": 192,
            "midi": 35,
            "name": "B1",
            "ticks": 218518,
            "time": 247.41586738541665,
            "velocity": 0.3937007874015748
          },
          {
            "duration": 0.21739099999999212,
            "durationTicks": 192,
            "midi": 78,
            "name": "F#5",
            "ticks": 218518,
            "time": 247.41586738541665,
            "velocity": 0.3937007874015748
          },
          {
            "duration": 0.21739099999999212,
            "durationTicks": 192,
            "midi": 59,
            "name": "B3",
            "ticks": 218518,
            "time": 247.41586738541665,
            "velocity": 0.3937007874015748
          },
          {
            "duration": 1.7391279999999938,
            "durationTicks": 1536,
            "midi": 47,
            "name": "B2",
            "ticks": 218518,
            "time": 247.41586738541665,
            "velocity": 0.3937007874015748
          },
          {
            "duration": 0.21739099999999212,
            "durationTicks": 192,
            "midi": 64,
            "name": "E4",
            "ticks": 218518,
            "time": 247.41586738541665,
            "velocity": 0.3937007874015748
          },
          {
            "duration": 0.10869550000001027,
            "durationTicks": 96,
            "midi": 52,
            "name": "E3",
            "ticks": 218518,
            "time": 247.41586738541665,
            "velocity": 0.3937007874015748
          },
          {
            "duration": 1.7391279999999938,
            "durationTicks": 1536,
            "midi": 35,
            "name": "B1",
            "ticks": 218518,
            "time": 247.41586738541665,
            "velocity": 0.3937007874015748
          },
          {
            "duration": 0.21739099999999212,
            "durationTicks": 192,
            "midi": 55,
            "name": "G3",
            "ticks": 218518,
            "time": 247.41586738541665,
            "velocity": 0.3937007874015748
          },
          {
            "duration": 0.21739099999999212,
            "durationTicks": 192,
            "midi": 69,
            "name": "A4",
            "ticks": 218518,
            "time": 247.41586738541665,
            "velocity": 0.3937007874015748
          },
          {
            "duration": 0.9782595000000072,
            "durationTicks": 864,
            "midi": 52,
            "name": "E3",
            "ticks": 218518,
            "time": 247.41586738541665,
            "velocity": 0.3937007874015748
          },
          {
            "duration": 0.10869549999998185,
            "durationTicks": 96,
            "midi": 55,
            "name": "G3",
            "ticks": 218614,
            "time": 247.52456288541666,
            "velocity": 0.3937007874015748
          },
          {
            "duration": 0.10869550000001027,
            "durationTicks": 96,
            "midi": 59,
            "name": "B3",
            "ticks": 218710,
            "time": 247.63325838541664,
            "velocity": 0.3937007874015748
          },
          {
            "duration": 0.21739100000002054,
            "durationTicks": 192,
            "midi": 76,
            "name": "E5",
            "ticks": 218710,
            "time": 247.63325838541664,
            "velocity": 0.3937007874015748
          },
          {
            "duration": 0.21739100000002054,
            "durationTicks": 192,
            "midi": 64,
            "name": "E4",
            "ticks": 218710,
            "time": 247.63325838541664,
            "velocity": 0.3937007874015748
          },
          {
            "duration": 0.21739100000002054,
            "durationTicks": 192,
            "midi": 64,
            "name": "E4",
            "ticks": 218710,
            "time": 247.63325838541664,
            "velocity": 0.3937007874015748
          },
          {
            "duration": 0.21739100000002054,
            "durationTicks": 192,
            "midi": 79,
            "name": "G5",
            "ticks": 218710,
            "time": 247.63325838541664,
            "velocity": 0.3937007874015748
          },
          {
            "duration": 0.21739100000002054,
            "durationTicks": 192,
            "midi": 67,
            "name": "G4",
            "ticks": 218710,
            "time": 247.63325838541664,
            "velocity": 0.3937007874015748
          },
          {
            "duration": 0.3260865000000024,
            "durationTicks": 288,
            "midi": 59,
            "name": "B3",
            "ticks": 218710,
            "time": 247.63325838541664,
            "velocity": 0.3937007874015748
          },
          {
            "duration": 0.3260865000000024,
            "durationTicks": 288,
            "midi": 55,
            "name": "G3",
            "ticks": 218710,
            "time": 247.63325838541664,
            "velocity": 0.3937007874015748
          },
          {
            "duration": 0.21739099999999212,
            "durationTicks": 192,
            "midi": 64,
            "name": "E4",
            "ticks": 218806,
            "time": 247.74195388541665,
            "velocity": 0.3937007874015748
          },
          {
            "duration": 0.10869549999998185,
            "durationTicks": 96,
            "midi": 67,
            "name": "G4",
            "ticks": 218902,
            "time": 247.85064938541666,
            "velocity": 0.3937007874015748
          },
          {
            "duration": 0.21739099999999212,
            "durationTicks": 192,
            "midi": 66,
            "name": "F#4",
            "ticks": 218902,
            "time": 247.85064938541666,
            "velocity": 0.3937007874015748
          },
          {
            "duration": 0.21739099999999212,
            "durationTicks": 192,
            "midi": 62,
            "name": "D4",
            "ticks": 218902,
            "time": 247.85064938541666,
            "velocity": 0.3937007874015748
          },
          {
            "duration": 0.21739099999999212,
            "durationTicks": 192,
            "midi": 78,
            "name": "F#5",
            "ticks": 218902,
            "time": 247.85064938541666,
            "velocity": 0.3937007874015748
          },
          {
            "duration": 0.21739099999999212,
            "durationTicks": 192,
            "midi": 74,
            "name": "D5",
            "ticks": 218902,
            "time": 247.85064938541666,
            "velocity": 0.3937007874015748
          },
          {
            "duration": 0.10869550000001027,
            "durationTicks": 96,
            "midi": 71,
            "name": "B4",
            "ticks": 218998,
            "time": 247.95934488541664,
            "velocity": 0.3937007874015748
          },
          {
            "duration": 0.3260865000000024,
            "durationTicks": 288,
            "midi": 55,
            "name": "G3",
            "ticks": 218998,
            "time": 247.95934488541664,
            "velocity": 0.3937007874015748
          },
          {
            "duration": 0.3260865000000024,
            "durationTicks": 288,
            "midi": 59,
            "name": "B3",
            "ticks": 218998,
            "time": 247.95934488541664,
            "velocity": 0.3937007874015748
          },
          {
            "duration": 0.3260865000000024,
            "durationTicks": 288,
            "midi": 64,
            "name": "E4",
            "ticks": 218998,
            "time": 247.95934488541664,
            "velocity": 0.3937007874015748
          },
          {
            "duration": 0.21739099999999212,
            "durationTicks": 192,
            "midi": 74,
            "name": "D5",
            "ticks": 219094,
            "time": 248.06804038541665,
            "velocity": 0.3937007874015748
          },
          {
            "duration": 0.21739099999999212,
            "durationTicks": 192,
            "midi": 69,
            "name": "A4",
            "ticks": 219094,
            "time": 248.06804038541665,
            "velocity": 0.3937007874015748
          },
          {
            "duration": 0.10869550000001027,
            "durationTicks": 96,
            "midi": 76,
            "name": "E5",
            "ticks": 219094,
            "time": 248.06804038541665,
            "velocity": 0.3937007874015748
          },
          {
            "duration": 0.21739099999999212,
            "durationTicks": 192,
            "midi": 62,
            "name": "D4",
            "ticks": 219094,
            "time": 248.06804038541665,
            "velocity": 0.3937007874015748
          },
          {
            "duration": 0.21739099999999212,
            "durationTicks": 192,
            "midi": 57,
            "name": "A3",
            "ticks": 219094,
            "time": 248.06804038541665,
            "velocity": 0.3937007874015748
          },
          {
            "duration": 0.10869549999998185,
            "durationTicks": 96,
            "midi": 79,
            "name": "G5",
            "ticks": 219190,
            "time": 248.17673588541666,
            "velocity": 0.3937007874015748
          },
          {
            "duration": 0.21739100000002054,
            "durationTicks": 192,
            "midi": 76,
            "name": "E5",
            "ticks": 219286,
            "time": 248.28543138541664,
            "velocity": 0.3937007874015748
          },
          {
            "duration": 0.21739100000002054,
            "durationTicks": 192,
            "midi": 64,
            "name": "E4",
            "ticks": 219286,
            "time": 248.28543138541664,
            "velocity": 0.3937007874015748
          },
          {
            "duration": 0.8695639999999969,
            "durationTicks": 768,
            "midi": 52,
            "name": "E3",
            "ticks": 219286,
            "time": 248.28543138541664,
            "velocity": 0.3937007874015748
          },
          {
            "duration": 0.21739100000002054,
            "durationTicks": 192,
            "midi": 59,
            "name": "B3",
            "ticks": 219286,
            "time": 248.28543138541664,
            "velocity": 0.3937007874015748
          },
          {
            "duration": 0.21739100000002054,
            "durationTicks": 192,
            "midi": 71,
            "name": "B4",
            "ticks": 219286,
            "time": 248.28543138541664,
            "velocity": 0.3937007874015748
          },
          {
            "duration": 0.21739100000002054,
            "durationTicks": 192,
            "midi": 59,
            "name": "B3",
            "ticks": 219286,
            "time": 248.28543138541664,
            "velocity": 0.3937007874015748
          },
          {
            "duration": 0.21739100000002054,
            "durationTicks": 192,
            "midi": 64,
            "name": "E4",
            "ticks": 219286,
            "time": 248.28543138541664,
            "velocity": 0.3937007874015748
          },
          {
            "duration": 0.21739100000002054,
            "durationTicks": 192,
            "midi": 55,
            "name": "G3",
            "ticks": 219286,
            "time": 248.28543138541664,
            "velocity": 0.3937007874015748
          },
          {
            "duration": 0.10869550000001027,
            "durationTicks": 96,
            "midi": 55,
            "name": "G3",
            "ticks": 219382,
            "time": 248.39412688541665,
            "velocity": 0.3937007874015748
          },
          {
            "duration": 0.32608649999997397,
            "durationTicks": 288,
            "midi": 55,
            "name": "G3",
            "ticks": 219478,
            "time": 248.50282238541666,
            "velocity": 0.3937007874015748
          },
          {
            "duration": 0.10869549999998185,
            "durationTicks": 96,
            "midi": 59,
            "name": "B3",
            "ticks": 219478,
            "time": 248.50282238541666,
            "velocity": 0.3937007874015748
          },
          {
            "duration": 0.32608649999997397,
            "durationTicks": 288,
            "midi": 59,
            "name": "B3",
            "ticks": 219478,
            "time": 248.50282238541666,
            "velocity": 0.3937007874015748
          },
          {
            "duration": 0.21739099999999212,
            "durationTicks": 192,
            "midi": 64,
            "name": "E4",
            "ticks": 219478,
            "time": 248.50282238541666,
            "velocity": 0.3937007874015748
          },
          {
            "duration": 0.21739099999999212,
            "durationTicks": 192,
            "midi": 64,
            "name": "E4",
            "ticks": 219574,
            "time": 248.61151788541665,
            "velocity": 0.3937007874015748
          },
          {
            "duration": 0.10869549999998185,
            "durationTicks": 96,
            "midi": 67,
            "name": "G4",
            "ticks": 219670,
            "time": 248.72021338541666,
            "velocity": 0.3937007874015748
          },
          {
            "duration": 0.21739099999999212,
            "durationTicks": 192,
            "midi": 57,
            "name": "A3",
            "ticks": 219670,
            "time": 248.72021338541666,
            "velocity": 0.3937007874015748
          },
          {
            "duration": 0.21739099999999212,
            "durationTicks": 192,
            "midi": 69,
            "name": "A4",
            "ticks": 219670,
            "time": 248.72021338541666,
            "velocity": 0.3937007874015748
          },
          {
            "duration": 0.21739099999999212,
            "durationTicks": 192,
            "midi": 74,
            "name": "D5",
            "ticks": 219670,
            "time": 248.72021338541666,
            "velocity": 0.3937007874015748
          },
          {
            "duration": 0.21739099999999212,
            "durationTicks": 192,
            "midi": 62,
            "name": "D4",
            "ticks": 219670,
            "time": 248.72021338541666,
            "velocity": 0.3937007874015748
          },
          {
            "duration": 0.3260865000000024,
            "durationTicks": 288,
            "midi": 55,
            "name": "G3",
            "ticks": 219766,
            "time": 248.82890888541664,
            "velocity": 0.3937007874015748
          },
          {
            "duration": 0.10869550000001027,
            "durationTicks": 96,
            "midi": 71,
            "name": "B4",
            "ticks": 219766,
            "time": 248.82890888541664,
            "velocity": 0.3937007874015748
          },
          {
            "duration": 0.3260865000000024,
            "durationTicks": 288,
            "midi": 64,
            "name": "E4",
            "ticks": 219766,
            "time": 248.82890888541664,
            "velocity": 0.3937007874015748
          },
          {
            "duration": 0.3260865000000024,
            "durationTicks": 288,
            "midi": 59,
            "name": "B3",
            "ticks": 219766,
            "time": 248.82890888541664,
            "velocity": 0.3937007874015748
          },
          {
            "duration": 0.10869550000001027,
            "durationTicks": 96,
            "midi": 76,
            "name": "E5",
            "ticks": 219862,
            "time": 248.93760438541665,
            "velocity": 0.3937007874015748
          },
          {
            "duration": 0.21739099999999212,
            "durationTicks": 192,
            "midi": 71,
            "name": "B4",
            "ticks": 219862,
            "time": 248.93760438541665,
            "velocity": 0.3937007874015748
          },
          {
            "duration": 0.21739099999999212,
            "durationTicks": 192,
            "midi": 35,
            "name": "B1",
            "ticks": 219862,
            "time": 248.93760438541665,
            "velocity": 0.3937007874015748
          },
          {
            "duration": 0.21739099999999212,
            "durationTicks": 192,
            "midi": 64,
            "name": "E4",
            "ticks": 219862,
            "time": 248.93760438541665,
            "velocity": 0.3937007874015748
          },
          {
            "duration": 0.21739099999999212,
            "durationTicks": 192,
            "midi": 59,
            "name": "B3",
            "ticks": 219862,
            "time": 248.93760438541665,
            "velocity": 0.3937007874015748
          },
          {
            "duration": 0.21739099999999212,
            "durationTicks": 192,
            "midi": 76,
            "name": "E5",
            "ticks": 219862,
            "time": 248.93760438541665,
            "velocity": 0.3937007874015748
          },
          {
            "duration": 0.10869549999998185,
            "durationTicks": 96,
            "midi": 79,
            "name": "G5",
            "ticks": 219958,
            "time": 249.04629988541666,
            "velocity": 0.3937007874015748
          },
          {
            "duration": 0.10869550000001027,
            "durationTicks": 96,
            "midi": 52,
            "name": "E3",
            "ticks": 220054,
            "time": 249.15499538541664,
            "velocity": 0.3937007874015748
          },
          {
            "duration": 0.21739100000002054,
            "durationTicks": 192,
            "midi": 35,
            "name": "B1",
            "ticks": 220054,
            "time": 249.15499538541664,
            "velocity": 0.3937007874015748
          },
          {
            "duration": 0.21739100000002054,
            "durationTicks": 192,
            "midi": 74,
            "name": "D5",
            "ticks": 220054,
            "time": 249.15499538541664,
            "velocity": 0.3937007874015748
          },
          {
            "duration": 0.6521730000000048,
            "durationTicks": 576,
            "midi": 52,
            "name": "E3",
            "ticks": 220054,
            "time": 249.15499538541664,
            "velocity": 0.3937007874015748
          },
          {
            "duration": 0.21739100000002054,
            "durationTicks": 192,
            "midi": 66,
            "name": "F#4",
            "ticks": 220054,
            "time": 249.15499538541664,
            "velocity": 0.3937007874015748
          },
          {
            "duration": 0.6521730000000048,
            "durationTicks": 576,
            "midi": 40,
            "name": "E2",
            "ticks": 220054,
            "time": 249.15499538541664,
            "velocity": 0.3937007874015748
          },
          {
            "duration": 0.6521730000000048,
            "durationTicks": 576,
            "midi": 35,
            "name": "B1",
            "ticks": 220054,
            "time": 249.15499538541664,
            "velocity": 0.3937007874015748
          },
          {
            "duration": 0.21739100000002054,
            "durationTicks": 192,
            "midi": 64,
            "name": "E4",
            "ticks": 220054,
            "time": 249.15499538541664,
            "velocity": 0.3937007874015748
          },
          {
            "duration": 0.21739100000002054,
            "durationTicks": 192,
            "midi": 59,
            "name": "B3",
            "ticks": 220054,
            "time": 249.15499538541664,
            "velocity": 0.3937007874015748
          },
          {
            "duration": 0.21739100000002054,
            "durationTicks": 192,
            "midi": 55,
            "name": "G3",
            "ticks": 220054,
            "time": 249.15499538541664,
            "velocity": 0.3937007874015748
          },
          {
            "duration": 0.6521730000000048,
            "durationTicks": 576,
            "midi": 47,
            "name": "B2",
            "ticks": 220054,
            "time": 249.15499538541664,
            "velocity": 0.3937007874015748
          },
          {
            "duration": 0.21739100000002054,
            "durationTicks": 192,
            "midi": 62,
            "name": "D4",
            "ticks": 220054,
            "time": 249.15499538541664,
            "velocity": 0.3937007874015748
          },
          {
            "duration": 0.21739100000002054,
            "durationTicks": 192,
            "midi": 78,
            "name": "F#5",
            "ticks": 220054,
            "time": 249.15499538541664,
            "velocity": 0.3937007874015748
          },
          {
            "duration": 0.10869550000001027,
            "durationTicks": 96,
            "midi": 55,
            "name": "G3",
            "ticks": 220150,
            "time": 249.26369088541665,
            "velocity": 0.3937007874015748
          },
          {
            "duration": 0.21739099999999212,
            "durationTicks": 192,
            "midi": 67,
            "name": "G4",
            "ticks": 220246,
            "time": 249.37238638541666,
            "velocity": 0.3937007874015748
          },
          {
            "duration": 0.21739099999999212,
            "durationTicks": 192,
            "midi": 64,
            "name": "E4",
            "ticks": 220246,
            "time": 249.37238638541666,
            "velocity": 0.3937007874015748
          },
          {
            "duration": 0.21739099999999212,
            "durationTicks": 192,
            "midi": 64,
            "name": "E4",
            "ticks": 220246,
            "time": 249.37238638541666,
            "velocity": 0.3937007874015748
          },
          {
            "duration": 0.21739099999999212,
            "durationTicks": 192,
            "midi": 79,
            "name": "G5",
            "ticks": 220246,
            "time": 249.37238638541666,
            "velocity": 0.3937007874015748
          },
          {
            "duration": 0.10869549999998185,
            "durationTicks": 96,
            "midi": 59,
            "name": "B3",
            "ticks": 220246,
            "time": 249.37238638541666,
            "velocity": 0.3937007874015748
          },
          {
            "duration": 0.21739099999999212,
            "durationTicks": 192,
            "midi": 76,
            "name": "E5",
            "ticks": 220246,
            "time": 249.37238638541666,
            "velocity": 0.3937007874015748
          },
          {
            "duration": 0.3260865000000024,
            "durationTicks": 288,
            "midi": 55,
            "name": "G3",
            "ticks": 220246,
            "time": 249.37238638541666,
            "velocity": 0.3937007874015748
          },
          {
            "duration": 0.3260865000000024,
            "durationTicks": 288,
            "midi": 59,
            "name": "B3",
            "ticks": 220246,
            "time": 249.37238638541666,
            "velocity": 0.3937007874015748
          },
          {
            "duration": 0.21739100000002054,
            "durationTicks": 192,
            "midi": 64,
            "name": "E4",
            "ticks": 220342,
            "time": 249.48108188541664,
            "velocity": 0.3937007874015748
          },
          {
            "duration": 0.21739099999999212,
            "durationTicks": 192,
            "midi": 81,
            "name": "A5",
            "ticks": 220438,
            "time": 249.58977738541665,
            "velocity": 0.3937007874015748
          },
          {
            "duration": 0.21739099999999212,
            "durationTicks": 192,
            "midi": 69,
            "name": "A4",
            "ticks": 220438,
            "time": 249.58977738541665,
            "velocity": 0.3937007874015748
          },
          {
            "duration": 0.10869550000001027,
            "durationTicks": 96,
            "midi": 67,
            "name": "G4",
            "ticks": 220438,
            "time": 249.58977738541665,
            "velocity": 0.3937007874015748
          },
          {
            "duration": 0.21739099999999212,
            "durationTicks": 192,
            "midi": 78,
            "name": "F#5",
            "ticks": 220438,
            "time": 249.58977738541665,
            "velocity": 0.3937007874015748
          },
          {
            "duration": 0.21739099999999212,
            "durationTicks": 192,
            "midi": 66,
            "name": "F#4",
            "ticks": 220438,
            "time": 249.58977738541665,
            "velocity": 0.3937007874015748
          },
          {
            "duration": 0.32608649999997397,
            "durationTicks": 288,
            "midi": 59,
            "name": "B3",
            "ticks": 220534,
            "time": 249.69847288541666,
            "velocity": 0.3937007874015748
          },
          {
            "duration": 0.32608649999997397,
            "durationTicks": 288,
            "midi": 64,
            "name": "E4",
            "ticks": 220534,
            "time": 249.69847288541666,
            "velocity": 0.3937007874015748
          },
          {
            "duration": 0.32608649999997397,
            "durationTicks": 288,
            "midi": 55,
            "name": "G3",
            "ticks": 220534,
            "time": 249.69847288541666,
            "velocity": 0.3937007874015748
          },
          {
            "duration": 0.10869549999998185,
            "durationTicks": 96,
            "midi": 71,
            "name": "B4",
            "ticks": 220534,
            "time": 249.69847288541666,
            "velocity": 0.3937007874015748
          },
          {
            "duration": 0.21739099999999212,
            "durationTicks": 192,
            "midi": 79,
            "name": "G5",
            "ticks": 220630,
            "time": 249.80716838541665,
            "velocity": 0.3937007874015748
          },
          {
            "duration": 0.10869550000001027,
            "durationTicks": 96,
            "midi": 76,
            "name": "E5",
            "ticks": 220630,
            "time": 249.80716838541665,
            "velocity": 0.3937007874015748
          },
          {
            "duration": 0.21739099999999212,
            "durationTicks": 192,
            "midi": 67,
            "name": "G4",
            "ticks": 220630,
            "time": 249.80716838541665,
            "velocity": 0.3937007874015748
          },
          {
            "duration": 0.21739099999999212,
            "durationTicks": 192,
            "midi": 71,
            "name": "B4",
            "ticks": 220630,
            "time": 249.80716838541665,
            "velocity": 0.3937007874015748
          },
          {
            "duration": 0.21739099999999212,
            "durationTicks": 192,
            "midi": 83,
            "name": "B5",
            "ticks": 220630,
            "time": 249.80716838541665,
            "velocity": 0.3937007874015748
          },
          {
            "duration": 0.10869549999998185,
            "durationTicks": 96,
            "midi": 79,
            "name": "G5",
            "ticks": 220726,
            "time": 249.91586388541666,
            "velocity": 0.3937007874015748
          },
          {
            "duration": 0.43478200000001266,
            "durationTicks": 384,
            "midi": 45,
            "name": "A2",
            "ticks": 220822,
            "time": 250.02455938541664,
            "velocity": 0.3937007874015748
          },
          {
            "duration": 0.43478200000001266,
            "durationTicks": 384,
            "midi": 57,
            "name": "A3",
            "ticks": 220822,
            "time": 250.02455938541664,
            "velocity": 0.3937007874015748
          },
          {
            "duration": 0.10869550000001027,
            "durationTicks": 96,
            "midi": 52,
            "name": "E3",
            "ticks": 220822,
            "time": 250.02455938541664,
            "velocity": 0.3937007874015748
          },
          {
            "duration": 0.21739100000002054,
            "durationTicks": 192,
            "midi": 55,
            "name": "G3",
            "ticks": 220822,
            "time": 250.02455938541664,
            "velocity": 0.3937007874015748
          },
          {
            "duration": 0.43478200000001266,
            "durationTicks": 384,
            "midi": 52,
            "name": "E3",
            "ticks": 220822,
            "time": 250.02455938541664,
            "velocity": 0.3937007874015748
          },
          {
            "duration": 0.21739100000002054,
            "durationTicks": 192,
            "midi": 64,
            "name": "E4",
            "ticks": 220822,
            "time": 250.02455938541664,
            "velocity": 0.3937007874015748
          },
          {
            "duration": 0.21739100000002054,
            "durationTicks": 192,
            "midi": 64,
            "name": "E4",
            "ticks": 220822,
            "time": 250.02455938541664,
            "velocity": 0.3937007874015748
          },
          {
            "duration": 0.21739100000002054,
            "durationTicks": 192,
            "midi": 71,
            "name": "B4",
            "ticks": 220822,
            "time": 250.02455938541664,
            "velocity": 0.3937007874015748
          },
          {
            "duration": 0.21739100000002054,
            "durationTicks": 192,
            "midi": 76,
            "name": "E5",
            "ticks": 220822,
            "time": 250.02455938541664,
            "velocity": 0.3937007874015748
          },
          {
            "duration": 0.43478200000001266,
            "durationTicks": 384,
            "midi": 40,
            "name": "E2",
            "ticks": 220822,
            "time": 250.02455938541664,
            "velocity": 0.3937007874015748
          },
          {
            "duration": 0.21739100000002054,
            "durationTicks": 192,
            "midi": 59,
            "name": "B3",
            "ticks": 220822,
            "time": 250.02455938541664,
            "velocity": 0.3937007874015748
          },
          {
            "duration": 0.21739100000002054,
            "durationTicks": 192,
            "midi": 59,
            "name": "B3",
            "ticks": 220822,
            "time": 250.02455938541664,
            "velocity": 0.3937007874015748
          },
          {
            "duration": 0.10869550000001027,
            "durationTicks": 96,
            "midi": 55,
            "name": "G3",
            "ticks": 220918,
            "time": 250.13325488541665,
            "velocity": 0.3937007874015748
          },
          {
            "duration": 0.3260865000000024,
            "durationTicks": 288,
            "midi": 55,
            "name": "G3",
            "ticks": 221014,
            "time": 250.24195038541666,
            "velocity": 0.3937007874015748
          },
          {
            "duration": 0.10869549999998185,
            "durationTicks": 96,
            "midi": 59,
            "name": "B3",
            "ticks": 221014,
            "time": 250.24195038541666,
            "velocity": 0.3937007874015748
          },
          {
            "duration": 0.21739099999999212,
            "durationTicks": 192,
            "midi": 64,
            "name": "E4",
            "ticks": 221014,
            "time": 250.24195038541666,
            "velocity": 0.3937007874015748
          },
          {
            "duration": 0.3260865000000024,
            "durationTicks": 288,
            "midi": 59,
            "name": "B3",
            "ticks": 221014,
            "time": 250.24195038541666,
            "velocity": 0.3937007874015748
          },
          {
            "duration": 0.21739100000002054,
            "durationTicks": 192,
            "midi": 64,
            "name": "E4",
            "ticks": 221110,
            "time": 250.35064588541664,
            "velocity": 0.3937007874015748
          },
          {
            "duration": 0.43478200000001266,
            "durationTicks": 384,
            "midi": 50,
            "name": "D3",
            "ticks": 221206,
            "time": 250.45934138541665,
            "velocity": 0.3937007874015748
          },
          {
            "duration": 0.43478200000001266,
            "durationTicks": 384,
            "midi": 43,
            "name": "G2",
            "ticks": 221206,
            "time": 250.45934138541665,
            "velocity": 0.3937007874015748
          },
          {
            "duration": 0.21739099999999212,
            "durationTicks": 192,
            "midi": 71,
            "name": "B4",
            "ticks": 221206,
            "time": 250.45934138541665,
            "velocity": 0.3937007874015748
          },
          {
            "duration": 0.43478200000001266,
            "durationTicks": 384,
            "midi": 38,
            "name": "D2",
            "ticks": 221206,
            "time": 250.45934138541665,
            "velocity": 0.3937007874015748
          },
          {
            "duration": 0.10869550000001027,
            "durationTicks": 96,
            "midi": 67,
            "name": "G4",
            "ticks": 221206,
            "time": 250.45934138541665,
            "velocity": 0.3937007874015748
          },
          {
            "duration": 0.43478200000001266,
            "durationTicks": 384,
            "midi": 55,
            "name": "G3",
            "ticks": 221206,
            "time": 250.45934138541665,
            "velocity": 0.3937007874015748
          },
          {
            "duration": 0.21739099999999212,
            "durationTicks": 192,
            "midi": 83,
            "name": "B5",
            "ticks": 221206,
            "time": 250.45934138541665,
            "velocity": 0.3937007874015748
          },
          {
            "duration": 0.21739099999999212,
            "durationTicks": 192,
            "midi": 79,
            "name": "G5",
            "ticks": 221206,
            "time": 250.45934138541665,
            "velocity": 0.3937007874015748
          },
          {
            "duration": 0.21739099999999212,
            "durationTicks": 192,
            "midi": 67,
            "name": "G4",
            "ticks": 221206,
            "time": 250.45934138541665,
            "velocity": 0.3937007874015748
          },
          {
            "duration": 0.10869549999998185,
            "durationTicks": 96,
            "midi": 71,
            "name": "B4",
            "ticks": 221302,
            "time": 250.56803688541666,
            "velocity": 0.3937007874015748
          },
          {
            "duration": 0.3260865000000024,
            "durationTicks": 288,
            "midi": 64,
            "name": "E4",
            "ticks": 221302,
            "time": 250.56803688541666,
            "velocity": 0.3937007874015748
          },
          {
            "duration": 0.3260865000000024,
            "durationTicks": 288,
            "midi": 59,
            "name": "B3",
            "ticks": 221302,
            "time": 250.56803688541666,
            "velocity": 0.3937007874015748
          },
          {
            "duration": 0.3260865000000024,
            "durationTicks": 288,
            "midi": 55,
            "name": "G3",
            "ticks": 221302,
            "time": 250.56803688541666,
            "velocity": 0.3937007874015748
          },
          {
            "duration": 0.10869550000001027,
            "durationTicks": 96,
            "midi": 76,
            "name": "E5",
            "ticks": 221398,
            "time": 250.67673238541664,
            "velocity": 0.3937007874015748
          },
          {
            "duration": 0.21739100000002054,
            "durationTicks": 192,
            "midi": 69,
            "name": "A4",
            "ticks": 221398,
            "time": 250.67673238541664,
            "velocity": 0.3937007874015748
          },
          {
            "duration": 0.21739100000002054,
            "durationTicks": 192,
            "midi": 81,
            "name": "A5",
            "ticks": 221398,
            "time": 250.67673238541664,
            "velocity": 0.3937007874015748
          },
          {
            "duration": 0.21739100000002054,
            "durationTicks": 192,
            "midi": 74,
            "name": "D5",
            "ticks": 221398,
            "time": 250.67673238541664,
            "velocity": 0.3937007874015748
          },
          {
            "duration": 0.21739100000002054,
            "durationTicks": 192,
            "midi": 86,
            "name": "D6",
            "ticks": 221398,
            "time": 250.67673238541664,
            "velocity": 0.3937007874015748
          },
          {
            "duration": 0.10869550000001027,
            "durationTicks": 96,
            "midi": 79,
            "name": "G5",
            "ticks": 221494,
            "time": 250.78542788541665,
            "velocity": 0.3937007874015748
          },
          {
            "duration": 0.21739099999999212,
            "durationTicks": 192,
            "midi": 35,
            "name": "B1",
            "ticks": 221590,
            "time": 250.89412338541666,
            "velocity": 0.3937007874015748
          },
          {
            "duration": 0.21739099999999212,
            "durationTicks": 192,
            "midi": 55,
            "name": "G3",
            "ticks": 221590,
            "time": 250.89412338541666,
            "velocity": 0.3937007874015748
          },
          {
            "duration": 0.21739099999999212,
            "durationTicks": 192,
            "midi": 60,
            "name": "C4",
            "ticks": 221590,
            "time": 250.89412338541666,
            "velocity": 0.3937007874015748
          },
          {
            "duration": 0.10869549999998185,
            "durationTicks": 96,
            "midi": 48,
            "name": "C3",
            "ticks": 221590,
            "time": 250.89412338541666,
            "velocity": 0.3937007874015748
          },
          {
            "duration": 0.21739099999999212,
            "durationTicks": 192,
            "midi": 86,
            "name": "D6",
            "ticks": 221590,
            "time": 250.89412338541666,
            "velocity": 0.3937007874015748
          },
          {
            "duration": 1.7391279999999938,
            "durationTicks": 1536,
            "midi": 31,
            "name": "G1",
            "ticks": 221590,
            "time": 250.89412338541666,
            "velocity": 0.3937007874015748
          },
          {
            "duration": 0.21739099999999212,
            "durationTicks": 192,
            "midi": 69,
            "name": "A4",
            "ticks": 221590,
            "time": 250.89412338541666,
            "velocity": 0.3937007874015748
          },
          {
            "duration": 1.7391279999999938,
            "durationTicks": 1536,
            "midi": 43,
            "name": "G2",
            "ticks": 221590,
            "time": 250.89412338541666,
            "velocity": 0.3937007874015748
          },
          {
            "duration": 1.7391279999999938,
            "durationTicks": 1536,
            "midi": 36,
            "name": "C2",
            "ticks": 221590,
            "time": 250.89412338541666,
            "velocity": 0.3937007874015748
          },
          {
            "duration": 0.21739099999999212,
            "durationTicks": 192,
            "midi": 52,
            "name": "E3",
            "ticks": 221590,
            "time": 250.89412338541666,
            "velocity": 0.3937007874015748
          },
          {
            "duration": 0.21739099999999212,
            "durationTicks": 192,
            "midi": 74,
            "name": "D5",
            "ticks": 221590,
            "time": 250.89412338541666,
            "velocity": 0.3937007874015748
          },
          {
            "duration": 0.9782594999999787,
            "durationTicks": 864,
            "midi": 48,
            "name": "C3",
            "ticks": 221590,
            "time": 250.89412338541666,
            "velocity": 0.3937007874015748
          },
          {
            "duration": 0.21739099999999212,
            "durationTicks": 192,
            "midi": 81,
            "name": "A5",
            "ticks": 221590,
            "time": 250.89412338541666,
            "velocity": 0.3937007874015748
          },
          {
            "duration": 0.10869550000001027,
            "durationTicks": 96,
            "midi": 52,
            "name": "E3",
            "ticks": 221686,
            "time": 251.00281888541664,
            "velocity": 0.3937007874015748
          },
          {
            "duration": 0.21739099999999212,
            "durationTicks": 192,
            "midi": 60,
            "name": "C4",
            "ticks": 221782,
            "time": 251.11151438541665,
            "velocity": 0.3937007874015748
          },
          {
            "duration": 0.3260865000000024,
            "durationTicks": 288,
            "midi": 52,
            "name": "E3",
            "ticks": 221782,
            "time": 251.11151438541665,
            "velocity": 0.3937007874015748
          },
          {
            "duration": 0.10869550000001027,
            "durationTicks": 96,
            "midi": 55,
            "name": "G3",
            "ticks": 221782,
            "time": 251.11151438541665,
            "velocity": 0.3937007874015748
          },
          {
            "duration": 0.21739099999999212,
            "durationTicks": 192,
            "midi": 76,
            "name": "E5",
            "ticks": 221782,
            "time": 251.11151438541665,
            "velocity": 0.3937007874015748
          },
          {
            "duration": 0.3260865000000024,
            "durationTicks": 288,
            "midi": 55,
            "name": "G3",
            "ticks": 221782,
            "time": 251.11151438541665,
            "velocity": 0.3937007874015748
          },
          {
            "duration": 0.21739099999999212,
            "durationTicks": 192,
            "midi": 71,
            "name": "B4",
            "ticks": 221782,
            "time": 251.11151438541665,
            "velocity": 0.3937007874015748
          },
          {
            "duration": 0.21739099999999212,
            "durationTicks": 192,
            "midi": 88,
            "name": "E6",
            "ticks": 221782,
            "time": 251.11151438541665,
            "velocity": 0.3937007874015748
          },
          {
            "duration": 0.21739099999999212,
            "durationTicks": 192,
            "midi": 83,
            "name": "B5",
            "ticks": 221782,
            "time": 251.11151438541665,
            "velocity": 0.3937007874015748
          },
          {
            "duration": 0.21739099999999212,
            "durationTicks": 192,
            "midi": 60,
            "name": "C4",
            "ticks": 221878,
            "time": 251.22020988541666,
            "velocity": 0.3937007874015748
          },
          {
            "duration": 0.21739099999999212,
            "durationTicks": 192,
            "midi": 71,
            "name": "B4",
            "ticks": 221974,
            "time": 251.32890538541665,
            "velocity": 0.3937007874015748
          },
          {
            "duration": 0.21739099999999212,
            "durationTicks": 192,
            "midi": 83,
            "name": "B5",
            "ticks": 221974,
            "time": 251.32890538541665,
            "velocity": 0.3937007874015748
          },
          {
            "duration": 0.21739099999999212,
            "durationTicks": 192,
            "midi": 79,
            "name": "G5",
            "ticks": 221974,
            "time": 251.32890538541665,
            "velocity": 0.3937007874015748
          },
          {
            "duration": 0.10869550000001027,
            "durationTicks": 96,
            "midi": 64,
            "name": "E4",
            "ticks": 221974,
            "time": 251.32890538541665,
            "velocity": 0.3937007874015748
          },
          {
            "duration": 0.21739099999999212,
            "durationTicks": 192,
            "midi": 67,
            "name": "G4",
            "ticks": 221974,
            "time": 251.32890538541665,
            "velocity": 0.3937007874015748
          },
          {
            "duration": 0.3260865000000024,
            "durationTicks": 288,
            "midi": 55,
            "name": "G3",
            "ticks": 222070,
            "time": 251.43760088541666,
            "velocity": 0.3937007874015748
          },
          {
            "duration": 0.10869549999998185,
            "durationTicks": 96,
            "midi": 67,
            "name": "G4",
            "ticks": 222070,
            "time": 251.43760088541666,
            "velocity": 0.3937007874015748
          },
          {
            "duration": 0.3260865000000024,
            "durationTicks": 288,
            "midi": 60,
            "name": "C4",
            "ticks": 222070,
            "time": 251.43760088541666,
            "velocity": 0.3937007874015748
          },
          {
            "duration": 0.3260865000000024,
            "durationTicks": 288,
            "midi": 52,
            "name": "E3",
            "ticks": 222070,
            "time": 251.43760088541666,
            "velocity": 0.3937007874015748
          },
          {
            "duration": 0.21739100000002054,
            "durationTicks": 192,
            "midi": 69,
            "name": "A4",
            "ticks": 222166,
            "time": 251.54629638541664,
            "velocity": 0.3937007874015748
          },
          {
            "duration": 0.21739100000002054,
            "durationTicks": 192,
            "midi": 66,
            "name": "F#4",
            "ticks": 222166,
            "time": 251.54629638541664,
            "velocity": 0.3937007874015748
          },
          {
            "duration": 0.21739100000002054,
            "durationTicks": 192,
            "midi": 78,
            "name": "F#5",
            "ticks": 222166,
            "time": 251.54629638541664,
            "velocity": 0.3937007874015748
          },
          {
            "duration": 0.10869550000001027,
            "durationTicks": 96,
            "midi": 72,
            "name": "C5",
            "ticks": 222166,
            "time": 251.54629638541664,
            "velocity": 0.3937007874015748
          },
          {
            "duration": 0.21739100000002054,
            "durationTicks": 192,
            "midi": 81,
            "name": "A5",
            "ticks": 222166,
            "time": 251.54629638541664,
            "velocity": 0.3937007874015748
          },
          {
            "duration": 0.10869550000001027,
            "durationTicks": 96,
            "midi": 76,
            "name": "E5",
            "ticks": 222262,
            "time": 251.65499188541665,
            "velocity": 0.3937007874015748
          },
          {
            "duration": 0.21739099999999212,
            "durationTicks": 192,
            "midi": 79,
            "name": "G5",
            "ticks": 222358,
            "time": 251.76368738541666,
            "velocity": 0.3937007874015748
          },
          {
            "duration": 0.21739099999999212,
            "durationTicks": 192,
            "midi": 52,
            "name": "E3",
            "ticks": 222358,
            "time": 251.76368738541666,
            "velocity": 0.3937007874015748
          },
          {
            "duration": 0.8695639999999969,
            "durationTicks": 768,
            "midi": 48,
            "name": "C3",
            "ticks": 222358,
            "time": 251.76368738541666,
            "velocity": 0.3937007874015748
          },
          {
            "duration": 0.21739099999999212,
            "durationTicks": 192,
            "midi": 71,
            "name": "B4",
            "ticks": 222358,
            "time": 251.76368738541666,
            "velocity": 0.3937007874015748
          },
          {
            "duration": 0.21739099999999212,
            "durationTicks": 192,
            "midi": 55,
            "name": "G3",
            "ticks": 222358,
            "time": 251.76368738541666,
            "velocity": 0.3937007874015748
          },
          {
            "duration": 0.21739099999999212,
            "durationTicks": 192,
            "midi": 67,
            "name": "G4",
            "ticks": 222358,
            "time": 251.76368738541666,
            "velocity": 0.3937007874015748
          },
          {
            "duration": 0.21739099999999212,
            "durationTicks": 192,
            "midi": 83,
            "name": "B5",
            "ticks": 222358,
            "time": 251.76368738541666,
            "velocity": 0.3937007874015748
          },
          {
            "duration": 0.21739099999999212,
            "durationTicks": 192,
            "midi": 60,
            "name": "C4",
            "ticks": 222358,
            "time": 251.76368738541666,
            "velocity": 0.3937007874015748
          },
          {
            "duration": 0.10869550000001027,
            "durationTicks": 96,
            "midi": 52,
            "name": "E3",
            "ticks": 222454,
            "time": 251.87238288541664,
            "velocity": 0.3937007874015748
          },
          {
            "duration": 0.21739099999999212,
            "durationTicks": 192,
            "midi": 60,
            "name": "C4",
            "ticks": 222550,
            "time": 251.98107838541665,
            "velocity": 0.3937007874015748
          },
          {
            "duration": 0.10869550000001027,
            "durationTicks": 96,
            "midi": 55,
            "name": "G3",
            "ticks": 222550,
            "time": 251.98107838541665,
            "velocity": 0.3937007874015748
          },
          {
            "duration": 0.3260865000000024,
            "durationTicks": 288,
            "midi": 52,
            "name": "E3",
            "ticks": 222550,
            "time": 251.98107838541665,
            "velocity": 0.3937007874015748
          },
          {
            "duration": 0.3260865000000024,
            "durationTicks": 288,
            "midi": 55,
            "name": "G3",
            "ticks": 222550,
            "time": 251.98107838541665,
            "velocity": 0.3937007874015748
          },
          {
            "duration": 0.21739099999999212,
            "durationTicks": 192,
            "midi": 60,
            "name": "C4",
            "ticks": 222646,
            "time": 252.08977388541666,
            "velocity": 0.3937007874015748
          },
          {
            "duration": 0.21739100000002054,
            "durationTicks": 192,
            "midi": 78,
            "name": "F#5",
            "ticks": 222742,
            "time": 252.19846938541664,
            "velocity": 0.3937007874015748
          },
          {
            "duration": 0.21739100000002054,
            "durationTicks": 192,
            "midi": 66,
            "name": "F#4",
            "ticks": 222742,
            "time": 252.19846938541664,
            "velocity": 0.3937007874015748
          },
          {
            "duration": 0.10869550000001027,
            "durationTicks": 96,
            "midi": 64,
            "name": "E4",
            "ticks": 222742,
            "time": 252.19846938541664,
            "velocity": 0.3937007874015748
          },
          {
            "duration": 0.21739100000002054,
            "durationTicks": 192,
            "midi": 69,
            "name": "A4",
            "ticks": 222742,
            "time": 252.19846938541664,
            "velocity": 0.3937007874015748
          },
          {
            "duration": 0.21739100000002054,
            "durationTicks": 192,
            "midi": 81,
            "name": "A5",
            "ticks": 222742,
            "time": 252.19846938541664,
            "velocity": 0.3937007874015748
          },
          {
            "duration": 0.3260865000000024,
            "durationTicks": 288,
            "midi": 52,
            "name": "E3",
            "ticks": 222838,
            "time": 252.30716488541665,
            "velocity": 0.3937007874015748
          },
          {
            "duration": 0.3260865000000024,
            "durationTicks": 288,
            "midi": 55,
            "name": "G3",
            "ticks": 222838,
            "time": 252.30716488541665,
            "velocity": 0.3937007874015748
          },
          {
            "duration": 0.3260865000000024,
            "durationTicks": 288,
            "midi": 60,
            "name": "C4",
            "ticks": 222838,
            "time": 252.30716488541665,
            "velocity": 0.3937007874015748
          },
          {
            "duration": 0.10869550000001027,
            "durationTicks": 96,
            "midi": 67,
            "name": "G4",
            "ticks": 222838,
            "time": 252.30716488541665,
            "velocity": 0.3937007874015748
          },
          {
            "duration": 0.21739099999999212,
            "durationTicks": 192,
            "midi": 79,
            "name": "G5",
            "ticks": 222934,
            "time": 252.41586038541666,
            "velocity": 0.3937007874015748
          },
          {
            "duration": 0.21739099999999212,
            "durationTicks": 192,
            "midi": 83,
            "name": "B5",
            "ticks": 222934,
            "time": 252.41586038541666,
            "velocity": 0.3937007874015748
          },
          {
            "duration": 0.10869549999998185,
            "durationTicks": 96,
            "midi": 72,
            "name": "C5",
            "ticks": 222934,
            "time": 252.41586038541666,
            "velocity": 0.3937007874015748
          },
          {
            "duration": 0.21739099999999212,
            "durationTicks": 192,
            "midi": 71,
            "name": "B4",
            "ticks": 222934,
            "time": 252.41586038541666,
            "velocity": 0.3937007874015748
          },
          {
            "duration": 0.21739099999999212,
            "durationTicks": 192,
            "midi": 67,
            "name": "G4",
            "ticks": 222934,
            "time": 252.41586038541666,
            "velocity": 0.3937007874015748
          },
          {
            "duration": 0.21739099999999212,
            "durationTicks": 192,
            "midi": 35,
            "name": "B1",
            "ticks": 222934,
            "time": 252.41586038541666,
            "velocity": 0.3937007874015748
          },
          {
            "duration": 0.10869550000001027,
            "durationTicks": 96,
            "midi": 76,
            "name": "E5",
            "ticks": 223030,
            "time": 252.52455588541665,
            "velocity": 0.3937007874015748
          },
          {
            "duration": 1.7391279999999938,
            "durationTicks": 1536,
            "midi": 33,
            "name": "A1",
            "ticks": 223126,
            "time": 252.63325138541666,
            "velocity": 0.3937007874015748
          },
          {
            "duration": 0.21739099999999212,
            "durationTicks": 192,
            "midi": 54,
            "name": "F#3",
            "ticks": 223126,
            "time": 252.63325138541666,
            "velocity": 0.3937007874015748
          },
          {
            "duration": 0.21739099999999212,
            "durationTicks": 192,
            "midi": 62,
            "name": "D4",
            "ticks": 223126,
            "time": 252.63325138541666,
            "velocity": 0.3937007874015748
          },
          {
            "duration": 1.7391279999999938,
            "durationTicks": 1536,
            "midi": 38,
            "name": "D2",
            "ticks": 223126,
            "time": 252.63325138541666,
            "velocity": 0.3937007874015748
          },
          {
            "duration": 1.7391279999999938,
            "durationTicks": 1536,
            "midi": 45,
            "name": "A2",
            "ticks": 223126,
            "time": 252.63325138541666,
            "velocity": 0.3937007874015748
          },
          {
            "duration": 0.10869549999998185,
            "durationTicks": 96,
            "midi": 50,
            "name": "D3",
            "ticks": 223126,
            "time": 252.63325138541666,
            "velocity": 0.3937007874015748
          },
          {
            "duration": 0.21739099999999212,
            "durationTicks": 192,
            "midi": 57,
            "name": "A3",
            "ticks": 223126,
            "time": 252.63325138541666,
            "velocity": 0.3937007874015748
          },
          {
            "duration": 0.9782595000000072,
            "durationTicks": 864,
            "midi": 50,
            "name": "D3",
            "ticks": 223126,
            "time": 252.63325138541666,
            "velocity": 0.3937007874015748
          },
          {
            "duration": 0.21739099999999212,
            "durationTicks": 192,
            "midi": 74,
            "name": "D5",
            "ticks": 223126,
            "time": 252.63325138541666,
            "velocity": 0.3937007874015748
          },
          {
            "duration": 0.21739099999999212,
            "durationTicks": 192,
            "midi": 81,
            "name": "A5",
            "ticks": 223126,
            "time": 252.63325138541666,
            "velocity": 0.3937007874015748
          },
          {
            "duration": 0.21739099999999212,
            "durationTicks": 192,
            "midi": 35,
            "name": "B1",
            "ticks": 223126,
            "time": 252.63325138541666,
            "velocity": 0.3937007874015748
          },
          {
            "duration": 0.21739099999999212,
            "durationTicks": 192,
            "midi": 86,
            "name": "D6",
            "ticks": 223126,
            "time": 252.63325138541666,
            "velocity": 0.3937007874015748
          },
          {
            "duration": 0.21739099999999212,
            "durationTicks": 192,
            "midi": 69,
            "name": "A4",
            "ticks": 223126,
            "time": 252.63325138541666,
            "velocity": 0.3937007874015748
          },
          {
            "duration": 0.10869550000001027,
            "durationTicks": 96,
            "midi": 54,
            "name": "F#3",
            "ticks": 223222,
            "time": 252.74194688541664,
            "velocity": 0.3937007874015748
          },
          {
            "duration": 0.21739099999999212,
            "durationTicks": 192,
            "midi": 76,
            "name": "E5",
            "ticks": 223318,
            "time": 252.85064238541665,
            "velocity": 0.3937007874015748
          },
          {
            "duration": 0.3260865000000024,
            "durationTicks": 288,
            "midi": 54,
            "name": "F#3",
            "ticks": 223318,
            "time": 252.85064238541665,
            "velocity": 0.3937007874015748
          },
          {
            "duration": 0.10869550000001027,
            "durationTicks": 96,
            "midi": 57,
            "name": "A3",
            "ticks": 223318,
            "time": 252.85064238541665,
            "velocity": 0.3937007874015748
          },
          {
            "duration": 0.3260865000000024,
            "durationTicks": 288,
            "midi": 57,
            "name": "A3",
            "ticks": 223318,
            "time": 252.85064238541665,
            "velocity": 0.3937007874015748
          },
          {
            "duration": 0.21739099999999212,
            "durationTicks": 192,
            "midi": 62,
            "name": "D4",
            "ticks": 223318,
            "time": 252.85064238541665,
            "velocity": 0.3937007874015748
          },
          {
            "duration": 0.21739099999999212,
            "durationTicks": 192,
            "midi": 88,
            "name": "E6",
            "ticks": 223318,
            "time": 252.85064238541665,
            "velocity": 0.3937007874015748
          },
          {
            "duration": 0.21739099999999212,
            "durationTicks": 192,
            "midi": 71,
            "name": "B4",
            "ticks": 223318,
            "time": 252.85064238541665,
            "velocity": 0.3937007874015748
          },
          {
            "duration": 0.21739099999999212,
            "durationTicks": 192,
            "midi": 83,
            "name": "B5",
            "ticks": 223318,
            "time": 252.85064238541665,
            "velocity": 0.3937007874015748
          },
          {
            "duration": 0.21739099999999212,
            "durationTicks": 192,
            "midi": 62,
            "name": "D4",
            "ticks": 223414,
            "time": 252.95933788541666,
            "velocity": 0.3937007874015748
          },
          {
            "duration": 0.21739100000002054,
            "durationTicks": 192,
            "midi": 71,
            "name": "B4",
            "ticks": 223510,
            "time": 253.06803338541664,
            "velocity": 0.3937007874015748
          },
          {
            "duration": 0.21739100000002054,
            "durationTicks": 192,
            "midi": 83,
            "name": "B5",
            "ticks": 223510,
            "time": 253.06803338541664,
            "velocity": 0.3937007874015748
          },
          {
            "duration": 0.21739100000002054,
            "durationTicks": 192,
            "midi": 79,
            "name": "G5",
            "ticks": 223510,
            "time": 253.06803338541664,
            "velocity": 0.3937007874015748
          },
          {
            "duration": 0.21739100000002054,
            "durationTicks": 192,
            "midi": 67,
            "name": "G4",
            "ticks": 223510,
            "time": 253.06803338541664,
            "velocity": 0.3937007874015748
          },
          {
            "duration": 0.10869550000001027,
            "durationTicks": 96,
            "midi": 66,
            "name": "F#4",
            "ticks": 223510,
            "time": 253.06803338541664,
            "velocity": 0.3937007874015748
          },
          {
            "duration": 0.3260865000000024,
            "durationTicks": 288,
            "midi": 54,
            "name": "F#3",
            "ticks": 223606,
            "time": 253.17672888541665,
            "velocity": 0.3937007874015748
          },
          {
            "duration": 0.3260865000000024,
            "durationTicks": 288,
            "midi": 57,
            "name": "A3",
            "ticks": 223606,
            "time": 253.17672888541665,
            "velocity": 0.3937007874015748
          },
          {
            "duration": 0.10869550000001027,
            "durationTicks": 96,
            "midi": 69,
            "name": "A4",
            "ticks": 223606,
            "time": 253.17672888541665,
            "velocity": 0.3937007874015748
          },
          {
            "duration": 0.3260865000000024,
            "durationTicks": 288,
            "midi": 62,
            "name": "D4",
            "ticks": 223606,
            "time": 253.17672888541665,
            "velocity": 0.3937007874015748
          },
          {
            "duration": 0.21739099999999212,
            "durationTicks": 192,
            "midi": 81,
            "name": "A5",
            "ticks": 223702,
            "time": 253.28542438541666,
            "velocity": 0.3937007874015748
          },
          {
            "duration": 0.21739099999999212,
            "durationTicks": 192,
            "midi": 78,
            "name": "F#5",
            "ticks": 223702,
            "time": 253.28542438541666,
            "velocity": 0.3937007874015748
          },
          {
            "duration": 0.10869549999998185,
            "durationTicks": 96,
            "midi": 74,
            "name": "D5",
            "ticks": 223702,
            "time": 253.28542438541666,
            "velocity": 0.3937007874015748
          },
          {
            "duration": 0.21739099999999212,
            "durationTicks": 192,
            "midi": 69,
            "name": "A4",
            "ticks": 223702,
            "time": 253.28542438541666,
            "velocity": 0.3937007874015748
          },
          {
            "duration": 0.21739099999999212,
            "durationTicks": 192,
            "midi": 66,
            "name": "F#4",
            "ticks": 223702,
            "time": 253.28542438541666,
            "velocity": 0.3937007874015748
          },
          {
            "duration": 0.10869550000001027,
            "durationTicks": 96,
            "midi": 78,
            "name": "F#5",
            "ticks": 223798,
            "time": 253.39411988541664,
            "velocity": 0.3937007874015748
          },
          {
            "duration": 0.21739099999999212,
            "durationTicks": 192,
            "midi": 62,
            "name": "D4",
            "ticks": 223894,
            "time": 253.50281538541665,
            "velocity": 0.3937007874015748
          },
          {
            "duration": 0.8695639999999969,
            "durationTicks": 768,
            "midi": 50,
            "name": "D3",
            "ticks": 223894,
            "time": 253.50281538541665,
            "velocity": 0.3937007874015748
          },
          {
            "duration": 0.21739099999999212,
            "durationTicks": 192,
            "midi": 83,
            "name": "B5",
            "ticks": 223894,
            "time": 253.50281538541665,
            "velocity": 0.3937007874015748
          },
          {
            "duration": 0.21739099999999212,
            "durationTicks": 192,
            "midi": 71,
            "name": "B4",
            "ticks": 223894,
            "time": 253.50281538541665,
            "velocity": 0.3937007874015748
          },
          {
            "duration": 0.21739099999999212,
            "durationTicks": 192,
            "midi": 79,
            "name": "G5",
            "ticks": 223894,
            "time": 253.50281538541665,
            "velocity": 0.3937007874015748
          },
          {
            "duration": 0.21739099999999212,
            "durationTicks": 192,
            "midi": 57,
            "name": "A3",
            "ticks": 223894,
            "time": 253.50281538541665,
            "velocity": 0.3937007874015748
          },
          {
            "duration": 0.21739099999999212,
            "durationTicks": 192,
            "midi": 54,
            "name": "F#3",
            "ticks": 223894,
            "time": 253.50281538541665,
            "velocity": 0.3937007874015748
          },
          {
            "duration": 0.21739099999999212,
            "durationTicks": 192,
            "midi": 67,
            "name": "G4",
            "ticks": 223894,
            "time": 253.50281538541665,
            "velocity": 0.3937007874015748
          },
          {
            "duration": 0.10869549999998185,
            "durationTicks": 96,
            "midi": 54,
            "name": "F#3",
            "ticks": 223990,
            "time": 253.61151088541666,
            "velocity": 0.3937007874015748
          },
          {
            "duration": 0.3260865000000024,
            "durationTicks": 288,
            "midi": 54,
            "name": "F#3",
            "ticks": 224086,
            "time": 253.72020638541665,
            "velocity": 0.3937007874015748
          },
          {
            "duration": 0.10869550000001027,
            "durationTicks": 96,
            "midi": 57,
            "name": "A3",
            "ticks": 224086,
            "time": 253.72020638541665,
            "velocity": 0.3937007874015748
          },
          {
            "duration": 0.3260865000000024,
            "durationTicks": 288,
            "midi": 57,
            "name": "A3",
            "ticks": 224086,
            "time": 253.72020638541665,
            "velocity": 0.3937007874015748
          },
          {
            "duration": 0.21739099999999212,
            "durationTicks": 192,
            "midi": 62,
            "name": "D4",
            "ticks": 224086,
            "time": 253.72020638541665,
            "velocity": 0.3937007874015748
          },
          {
            "duration": 0.21739099999999212,
            "durationTicks": 192,
            "midi": 62,
            "name": "D4",
            "ticks": 224182,
            "time": 253.82890188541666,
            "velocity": 0.3937007874015748
          },
          {
            "duration": 0.21739100000002054,
            "durationTicks": 192,
            "midi": 83,
            "name": "B5",
            "ticks": 224278,
            "time": 253.93759738541664,
            "velocity": 0.3937007874015748
          },
          {
            "duration": 0.21739100000002054,
            "durationTicks": 192,
            "midi": 71,
            "name": "B4",
            "ticks": 224278,
            "time": 253.93759738541664,
            "velocity": 0.3937007874015748
          },
          {
            "duration": 0.21739100000002054,
            "durationTicks": 192,
            "midi": 88,
            "name": "E6",
            "ticks": 224278,
            "time": 253.93759738541664,
            "velocity": 0.3937007874015748
          },
          {
            "duration": 0.10869550000001027,
            "durationTicks": 96,
            "midi": 66,
            "name": "F#4",
            "ticks": 224278,
            "time": 253.93759738541664,
            "velocity": 0.3937007874015748
          },
          {
            "duration": 0.21739100000002054,
            "durationTicks": 192,
            "midi": 76,
            "name": "E5",
            "ticks": 224278,
            "time": 253.93759738541664,
            "velocity": 0.3937007874015748
          },
          {
            "duration": 0.10869550000001027,
            "durationTicks": 96,
            "midi": 69,
            "name": "A4",
            "ticks": 224374,
            "time": 254.04629288541665,
            "velocity": 0.3937007874015748
          },
          {
            "duration": 0.3260865000000024,
            "durationTicks": 288,
            "midi": 62,
            "name": "D4",
            "ticks": 224374,
            "time": 254.04629288541665,
            "velocity": 0.3937007874015748
          },
          {
            "duration": 0.3260865000000024,
            "durationTicks": 288,
            "midi": 54,
            "name": "F#3",
            "ticks": 224374,
            "time": 254.04629288541665,
            "velocity": 0.3937007874015748
          },
          {
            "duration": 0.3260865000000024,
            "durationTicks": 288,
            "midi": 57,
            "name": "A3",
            "ticks": 224374,
            "time": 254.04629288541665,
            "velocity": 0.3937007874015748
          },
          {
            "duration": 0.21739099999999212,
            "durationTicks": 192,
            "midi": 78,
            "name": "F#5",
            "ticks": 224470,
            "time": 254.15498838541666,
            "velocity": 0.3937007874015748
          },
          {
            "duration": 0.10869549999998185,
            "durationTicks": 96,
            "midi": 74,
            "name": "D5",
            "ticks": 224470,
            "time": 254.15498838541666,
            "velocity": 0.3937007874015748
          },
          {
            "duration": 0.21739099999999212,
            "durationTicks": 192,
            "midi": 35,
            "name": "B1",
            "ticks": 224470,
            "time": 254.15498838541666,
            "velocity": 0.3937007874015748
          },
          {
            "duration": 0.21739099999999212,
            "durationTicks": 192,
            "midi": 74,
            "name": "D5",
            "ticks": 224470,
            "time": 254.15498838541666,
            "velocity": 0.3937007874015748
          },
          {
            "duration": 0.21739099999999212,
            "durationTicks": 192,
            "midi": 90,
            "name": "F#6",
            "ticks": 224470,
            "time": 254.15498838541666,
            "velocity": 0.3937007874015748
          },
          {
            "duration": 0.21739099999999212,
            "durationTicks": 192,
            "midi": 86,
            "name": "D6",
            "ticks": 224470,
            "time": 254.15498838541666,
            "velocity": 0.3937007874015748
          },
          {
            "duration": 0.10869550000001027,
            "durationTicks": 96,
            "midi": 78,
            "name": "F#5",
            "ticks": 224566,
            "time": 254.26368388541664,
            "velocity": 0.3937007874015748
          },
          {
            "duration": 0.21739099999999212,
            "durationTicks": 192,
            "midi": 91,
            "name": "G6",
            "ticks": 224662,
            "time": 254.37237938541665,
            "velocity": 0.3937007874015748
          },
          {
            "duration": 0.21739099999999212,
            "durationTicks": 192,
            "midi": 35,
            "name": "B1",
            "ticks": 224662,
            "time": 254.37237938541665,
            "velocity": 0.3937007874015748
          },
          {
            "duration": 0.10869550000001027,
            "durationTicks": 96,
            "midi": 52,
            "name": "E3",
            "ticks": 224662,
            "time": 254.37237938541665,
            "velocity": 0.3937007874015748
          },
          {
            "duration": 0.21739099999999212,
            "durationTicks": 192,
            "midi": 88,
            "name": "E6",
            "ticks": 224662,
            "time": 254.37237938541665,
            "velocity": 0.3937007874015748
          },
          {
            "duration": 0.21739099999999212,
            "durationTicks": 192,
            "midi": 79,
            "name": "G5",
            "ticks": 224662,
            "time": 254.37237938541665,
            "velocity": 0.3937007874015748
          },
          {
            "duration": 0.21739099999999212,
            "durationTicks": 192,
            "midi": 76,
            "name": "E5",
            "ticks": 224662,
            "time": 254.37237938541665,
            "velocity": 0.3937007874015748
          },
          {
            "duration": 0.8695639999999969,
            "durationTicks": 768,
            "midi": 35,
            "name": "B1",
            "ticks": 224662,
            "time": 254.37237938541665,
            "velocity": 0.3937007874015748
          },
          {
            "duration": 0.21739099999999212,
            "durationTicks": 192,
            "midi": 59,
            "name": "B3",
            "ticks": 224662,
            "time": 254.37237938541665,
            "velocity": 0.3937007874015748
          },
          {
            "duration": 0.9782595000000072,
            "durationTicks": 864,
            "midi": 52,
            "name": "E3",
            "ticks": 224662,
            "time": 254.37237938541665,
            "velocity": 0.3937007874015748
          },
          {
            "duration": 0.21739099999999212,
            "durationTicks": 192,
            "midi": 64,
            "name": "E4",
            "ticks": 224662,
            "time": 254.37237938541665,
            "velocity": 0.3937007874015748
          },
          {
            "duration": 1.7391279999999938,
            "durationTicks": 1536,
            "midi": 47,
            "name": "B2",
            "ticks": 224662,
            "time": 254.37237938541665,
            "velocity": 0.3937007874015748
          },
          {
            "duration": 0.21739099999999212,
            "durationTicks": 192,
            "midi": 55,
            "name": "G3",
            "ticks": 224662,
            "time": 254.37237938541665,
            "velocity": 0.3937007874015748
          },
          {
            "duration": 1.7391279999999938,
            "durationTicks": 1536,
            "midi": 40,
            "name": "E2",
            "ticks": 224662,
            "time": 254.37237938541665,
            "velocity": 0.3937007874015748
          },
          {
            "duration": 0.10869549999998185,
            "durationTicks": 96,
            "midi": 55,
            "name": "G3",
            "ticks": 224758,
            "time": 254.48107488541666,
            "velocity": 0.3937007874015748
          },
          {
            "duration": 0.10869550000001027,
            "durationTicks": 96,
            "midi": 59,
            "name": "B3",
            "ticks": 224854,
            "time": 254.58977038541664,
            "velocity": 0.3937007874015748
          },
          {
            "duration": 0.21739100000002054,
            "durationTicks": 192,
            "midi": 90,
            "name": "F#6",
            "ticks": 224854,
            "time": 254.58977038541664,
            "velocity": 0.3937007874015748
          },
          {
            "duration": 0.21739100000002054,
            "durationTicks": 192,
            "midi": 78,
            "name": "F#5",
            "ticks": 224854,
            "time": 254.58977038541664,
            "velocity": 0.3937007874015748
          },
          {
            "duration": 0.21739100000002054,
            "durationTicks": 192,
            "midi": 74,
            "name": "D5",
            "ticks": 224854,
            "time": 254.58977038541664,
            "velocity": 0.3937007874015748
          },
          {
            "duration": 0.21739100000002054,
            "durationTicks": 192,
            "midi": 86,
            "name": "D6",
            "ticks": 224854,
            "time": 254.58977038541664,
            "velocity": 0.3937007874015748
          },
          {
            "duration": 0.21739100000002054,
            "durationTicks": 192,
            "midi": 64,
            "name": "E4",
            "ticks": 224854,
            "time": 254.58977038541664,
            "velocity": 0.3937007874015748
          },
          {
            "duration": 0.3260865000000024,
            "durationTicks": 288,
            "midi": 55,
            "name": "G3",
            "ticks": 224854,
            "time": 254.58977038541664,
            "velocity": 0.3937007874015748
          },
          {
            "duration": 0.3260865000000024,
            "durationTicks": 288,
            "midi": 59,
            "name": "B3",
            "ticks": 224854,
            "time": 254.58977038541664,
            "velocity": 0.3937007874015748
          },
          {
            "duration": 0.21739099999999212,
            "durationTicks": 192,
            "midi": 64,
            "name": "E4",
            "ticks": 224950,
            "time": 254.69846588541665,
            "velocity": 0.3937007874015748
          },
          {
            "duration": 0.21739099999999212,
            "durationTicks": 192,
            "midi": 88,
            "name": "E6",
            "ticks": 225046,
            "time": 254.80716138541666,
            "velocity": 0.3937007874015748
          },
          {
            "duration": 0.21739099999999212,
            "durationTicks": 192,
            "midi": 83,
            "name": "B5",
            "ticks": 225046,
            "time": 254.80716138541666,
            "velocity": 0.3937007874015748
          },
          {
            "duration": 0.10869549999998185,
            "durationTicks": 96,
            "midi": 67,
            "name": "G4",
            "ticks": 225046,
            "time": 254.80716138541666,
            "velocity": 0.3937007874015748
          },
          {
            "duration": 0.21739099999999212,
            "durationTicks": 192,
            "midi": 76,
            "name": "E5",
            "ticks": 225046,
            "time": 254.80716138541666,
            "velocity": 0.3937007874015748
          },
          {
            "duration": 0.21739099999999212,
            "durationTicks": 192,
            "midi": 71,
            "name": "B4",
            "ticks": 225046,
            "time": 254.80716138541666,
            "velocity": 0.3937007874015748
          },
          {
            "duration": 0.3260865000000024,
            "durationTicks": 288,
            "midi": 55,
            "name": "G3",
            "ticks": 225142,
            "time": 254.91585688541664,
            "velocity": 0.3937007874015748
          },
          {
            "duration": 0.3260865000000024,
            "durationTicks": 288,
            "midi": 64,
            "name": "E4",
            "ticks": 225142,
            "time": 254.91585688541664,
            "velocity": 0.3937007874015748
          },
          {
            "duration": 0.10869550000001027,
            "durationTicks": 96,
            "midi": 71,
            "name": "B4",
            "ticks": 225142,
            "time": 254.91585688541664,
            "velocity": 0.3937007874015748
          },
          {
            "duration": 0.3260865000000024,
            "durationTicks": 288,
            "midi": 59,
            "name": "B3",
            "ticks": 225142,
            "time": 254.91585688541664,
            "velocity": 0.3937007874015748
          },
          {
            "duration": 0.21739099999999212,
            "durationTicks": 192,
            "midi": 69,
            "name": "A4",
            "ticks": 225238,
            "time": 255.02455238541665,
            "velocity": 0.3937007874015748
          },
          {
            "duration": 0.21739099999999212,
            "durationTicks": 192,
            "midi": 74,
            "name": "D5",
            "ticks": 225238,
            "time": 255.02455238541665,
            "velocity": 0.3937007874015748
          },
          {
            "duration": 0.21739099999999212,
            "durationTicks": 192,
            "midi": 81,
            "name": "A5",
            "ticks": 225238,
            "time": 255.02455238541665,
            "velocity": 0.3937007874015748
          },
          {
            "duration": 0.21739099999999212,
            "durationTicks": 192,
            "midi": 86,
            "name": "D6",
            "ticks": 225238,
            "time": 255.02455238541665,
            "velocity": 0.3937007874015748
          },
          {
            "duration": 0.43478199999998424,
            "durationTicks": 384,
            "midi": 35,
            "name": "B1",
            "ticks": 225238,
            "time": 255.02455238541665,
            "velocity": 0.3937007874015748
          },
          {
            "duration": 0.10869550000001027,
            "durationTicks": 96,
            "midi": 76,
            "name": "E5",
            "ticks": 225238,
            "time": 255.02455238541665,
            "velocity": 0.3937007874015748
          },
          {
            "duration": 0.10869549999998185,
            "durationTicks": 96,
            "midi": 79,
            "name": "G5",
            "ticks": 225334,
            "time": 255.13324788541667,
            "velocity": 0.3937007874015748
          },
          {
            "duration": 0.21739099999999212,
            "durationTicks": 192,
            "midi": 64,
            "name": "E4",
            "ticks": 225430,
            "time": 255.24194338541665,
            "velocity": 0.3937007874015748
          },
          {
            "duration": 0.21739099999999212,
            "durationTicks": 192,
            "midi": 55,
            "name": "G3",
            "ticks": 225430,
            "time": 255.24194338541665,
            "velocity": 0.3937007874015748
          },
          {
            "duration": 0.21739099999999212,
            "durationTicks": 192,
            "midi": 59,
            "name": "B3",
            "ticks": 225430,
            "time": 255.24194338541665,
            "velocity": 0.3937007874015748
          },
          {
            "duration": 0.8695639999999969,
            "durationTicks": 768,
            "midi": 52,
            "name": "E3",
            "ticks": 225430,
            "time": 255.24194338541665,
            "velocity": 0.3937007874015748
          },
          {
            "duration": 0.8695639999999969,
            "durationTicks": 768,
            "midi": 35,
            "name": "B1",
            "ticks": 225430,
            "time": 255.24194338541665,
            "velocity": 0.3937007874015748
          },
          {
            "duration": 0.43478200000001266,
            "durationTicks": 384,
            "midi": 67,
            "name": "G4",
            "ticks": 225430,
            "time": 255.24194338541665,
            "velocity": 0.3937007874015748
          },
          {
            "duration": 0.43478200000001266,
            "durationTicks": 384,
            "midi": 83,
            "name": "B5",
            "ticks": 225430,
            "time": 255.24194338541665,
            "velocity": 0.3937007874015748
          },
          {
            "duration": 0.43478200000001266,
            "durationTicks": 384,
            "midi": 71,
            "name": "B4",
            "ticks": 225430,
            "time": 255.24194338541665,
            "velocity": 0.3937007874015748
          },
          {
            "duration": 0.43478200000001266,
            "durationTicks": 384,
            "midi": 79,
            "name": "G5",
            "ticks": 225430,
            "time": 255.24194338541665,
            "velocity": 0.3937007874015748
          },
          {
            "duration": 0.10869549999998185,
            "durationTicks": 96,
            "midi": 55,
            "name": "G3",
            "ticks": 225526,
            "time": 255.35063888541666,
            "velocity": 0.3937007874015748
          },
          {
            "duration": 0.21739100000002054,
            "durationTicks": 192,
            "midi": 64,
            "name": "E4",
            "ticks": 225622,
            "time": 255.45933438541664,
            "velocity": 0.3937007874015748
          },
          {
            "duration": 0.10869550000001027,
            "durationTicks": 96,
            "midi": 59,
            "name": "B3",
            "ticks": 225622,
            "time": 255.45933438541664,
            "velocity": 0.3937007874015748
          },
          {
            "duration": 0.3260865000000024,
            "durationTicks": 288,
            "midi": 59,
            "name": "B3",
            "ticks": 225622,
            "time": 255.45933438541664,
            "velocity": 0.3937007874015748
          },
          {
            "duration": 0.3260865000000024,
            "durationTicks": 288,
            "midi": 55,
            "name": "G3",
            "ticks": 225622,
            "time": 255.45933438541664,
            "velocity": 0.3937007874015748
          },
          {
            "duration": 0.21739099999999212,
            "durationTicks": 192,
            "midi": 64,
            "name": "E4",
            "ticks": 225718,
            "time": 255.56802988541665,
            "velocity": 0.3937007874015748
          },
          {
            "duration": 0.21739099999999212,
            "durationTicks": 192,
            "midi": 81,
            "name": "A5",
            "ticks": 225814,
            "time": 255.67672538541666,
            "velocity": 0.3937007874015748
          },
          {
            "duration": 0.10869549999998185,
            "durationTicks": 96,
            "midi": 67,
            "name": "G4",
            "ticks": 225814,
            "time": 255.67672538541666,
            "velocity": 0.3937007874015748
          },
          {
            "duration": 0.21739099999999212,
            "durationTicks": 192,
            "midi": 66,
            "name": "F#4",
            "ticks": 225814,
            "time": 255.67672538541666,
            "velocity": 0.3937007874015748
          },
          {
            "duration": 0.21739099999999212,
            "durationTicks": 192,
            "midi": 78,
            "name": "F#5",
            "ticks": 225814,
            "time": 255.67672538541666,
            "velocity": 0.3937007874015748
          },
          {
            "duration": 0.21739099999999212,
            "durationTicks": 192,
            "midi": 69,
            "name": "A4",
            "ticks": 225814,
            "time": 255.67672538541666,
            "velocity": 0.3937007874015748
          },
          {
            "duration": 0.10869550000001027,
            "durationTicks": 96,
            "midi": 71,
            "name": "B4",
            "ticks": 225910,
            "time": 255.78542088541664,
            "velocity": 0.3937007874015748
          },
          {
            "duration": 0.3260865000000024,
            "durationTicks": 288,
            "midi": 55,
            "name": "G3",
            "ticks": 225910,
            "time": 255.78542088541664,
            "velocity": 0.3937007874015748
          },
          {
            "duration": 0.3260865000000024,
            "durationTicks": 288,
            "midi": 59,
            "name": "B3",
            "ticks": 225910,
            "time": 255.78542088541664,
            "velocity": 0.3937007874015748
          },
          {
            "duration": 0.3260865000000024,
            "durationTicks": 288,
            "midi": 64,
            "name": "E4",
            "ticks": 225910,
            "time": 255.78542088541664,
            "velocity": 0.3937007874015748
          },
          {
            "duration": 0.21739099999999212,
            "durationTicks": 192,
            "midi": 71,
            "name": "B4",
            "ticks": 226006,
            "time": 255.89411638541665,
            "velocity": 0.3937007874015748
          },
          {
            "duration": 0.21739099999999212,
            "durationTicks": 192,
            "midi": 79,
            "name": "G5",
            "ticks": 226006,
            "time": 255.89411638541665,
            "velocity": 0.3937007874015748
          },
          {
            "duration": 0.21739099999999212,
            "durationTicks": 192,
            "midi": 35,
            "name": "B1",
            "ticks": 226006,
            "time": 255.89411638541665,
            "velocity": 0.3937007874015748
          },
          {
            "duration": 0.21739099999999212,
            "durationTicks": 192,
            "midi": 67,
            "name": "G4",
            "ticks": 226006,
            "time": 255.89411638541665,
            "velocity": 0.3937007874015748
          },
          {
            "duration": 0.21739099999999212,
            "durationTicks": 192,
            "midi": 83,
            "name": "B5",
            "ticks": 226006,
            "time": 255.89411638541665,
            "velocity": 0.3937007874015748
          },
          {
            "duration": 0.10869549999998185,
            "durationTicks": 96,
            "midi": 76,
            "name": "E5",
            "ticks": 226006,
            "time": 255.89411638541665,
            "velocity": 0.3937007874015748
          },
          {
            "duration": 0.10869550000001027,
            "durationTicks": 96,
            "midi": 79,
            "name": "G5",
            "ticks": 226102,
            "time": 256.00281188541663,
            "velocity": 0.3937007874015748
          },
          {
            "duration": 0.10869550000001027,
            "durationTicks": 96,
            "midi": 52,
            "name": "E3",
            "ticks": 226198,
            "time": 256.11150738541664,
            "velocity": 0.3937007874015748
          },
          {
            "duration": 0.21739100000002054,
            "durationTicks": 192,
            "midi": 81,
            "name": "A5",
            "ticks": 226198,
            "time": 256.11150738541664,
            "velocity": 0.3937007874015748
          },
          {
            "duration": 0.21739100000002054,
            "durationTicks": 192,
            "midi": 66,
            "name": "F#4",
            "ticks": 226198,
            "time": 256.11150738541664,
            "velocity": 0.3937007874015748
          },
          {
            "duration": 0.21739100000002054,
            "durationTicks": 192,
            "midi": 59,
            "name": "B3",
            "ticks": 226198,
            "time": 256.11150738541664,
            "velocity": 0.3937007874015748
          },
          {
            "duration": 0.21739100000002054,
            "durationTicks": 192,
            "midi": 78,
            "name": "F#5",
            "ticks": 226198,
            "time": 256.11150738541664,
            "velocity": 0.3937007874015748
          },
          {
            "duration": 0.21739100000002054,
            "durationTicks": 192,
            "midi": 55,
            "name": "G3",
            "ticks": 226198,
            "time": 256.11150738541664,
            "velocity": 0.3937007874015748
          },
          {
            "duration": 0.8695640000000253,
            "durationTicks": 768,
            "midi": 40,
            "name": "E2",
            "ticks": 226198,
            "time": 256.11150738541664,
            "velocity": 0.3937007874015748
          },
          {
            "duration": 0.8695640000000253,
            "durationTicks": 768,
            "midi": 52,
            "name": "E3",
            "ticks": 226198,
            "time": 256.11150738541664,
            "velocity": 0.3937007874015748
          },
          {
            "duration": 0.21739100000002054,
            "durationTicks": 192,
            "midi": 69,
            "name": "A4",
            "ticks": 226198,
            "time": 256.11150738541664,
            "velocity": 0.3937007874015748
          },
          {
            "duration": 0.21739100000002054,
            "durationTicks": 192,
            "midi": 35,
            "name": "B1",
            "ticks": 226198,
            "time": 256.11150738541664,
            "velocity": 0.3937007874015748
          },
          {
            "duration": 0.8695640000000253,
            "durationTicks": 768,
            "midi": 47,
            "name": "B2",
            "ticks": 226198,
            "time": 256.11150738541664,
            "velocity": 0.3937007874015748
          },
          {
            "duration": 0.8695640000000253,
            "durationTicks": 768,
            "midi": 35,
            "name": "B1",
            "ticks": 226198,
            "time": 256.11150738541664,
            "velocity": 0.3937007874015748
          },
          {
            "duration": 0.21739100000002054,
            "durationTicks": 192,
            "midi": 64,
            "name": "E4",
            "ticks": 226198,
            "time": 256.11150738541664,
            "velocity": 0.3937007874015748
          },
          {
            "duration": 0.10869550000001027,
            "durationTicks": 96,
            "midi": 55,
            "name": "G3",
            "ticks": 226294,
            "time": 256.22020288541665,
            "velocity": 0.3937007874015748
          },
          {
            "duration": 0.10869550000001027,
            "durationTicks": 96,
            "midi": 59,
            "name": "B3",
            "ticks": 226390,
            "time": 256.32889838541666,
            "velocity": 0.3937007874015748
          },
          {
            "duration": 0.2173909999999637,
            "durationTicks": 192,
            "midi": 64,
            "name": "E4",
            "ticks": 226390,
            "time": 256.32889838541666,
            "velocity": 0.3937007874015748
          },
          {
            "duration": 0.2173909999999637,
            "durationTicks": 192,
            "midi": 67,
            "name": "G4",
            "ticks": 226390,
            "time": 256.32889838541666,
            "velocity": 0.3937007874015748
          },
          {
            "duration": 0.32608649999997397,
            "durationTicks": 288,
            "midi": 55,
            "name": "G3",
            "ticks": 226390,
            "time": 256.32889838541666,
            "velocity": 0.3937007874015748
          },
          {
            "duration": 0.2173909999999637,
            "durationTicks": 192,
            "midi": 64,
            "name": "E4",
            "ticks": 226390,
            "time": 256.32889838541666,
            "velocity": 0.3937007874015748
          },
          {
            "duration": 0.32608649999997397,
            "durationTicks": 288,
            "midi": 59,
            "name": "B3",
            "ticks": 226390,
            "time": 256.32889838541666,
            "velocity": 0.3937007874015748
          },
          {
            "duration": 0.2173909999999637,
            "durationTicks": 192,
            "midi": 79,
            "name": "G5",
            "ticks": 226390,
            "time": 256.32889838541666,
            "velocity": 0.3937007874015748
          },
          {
            "duration": 0.2173909999999637,
            "durationTicks": 192,
            "midi": 76,
            "name": "E5",
            "ticks": 226390,
            "time": 256.32889838541666,
            "velocity": 0.3937007874015748
          },
          {
            "duration": 0.2173909999999637,
            "durationTicks": 192,
            "midi": 64,
            "name": "E4",
            "ticks": 226486,
            "time": 256.4375938854167,
            "velocity": 0.3937007874015748
          },
          {
            "duration": 0.10869550000001027,
            "durationTicks": 96,
            "midi": 67,
            "name": "G4",
            "ticks": 226582,
            "time": 256.5462893854166,
            "velocity": 0.3937007874015748
          },
          {
            "duration": 0.21739100000002054,
            "durationTicks": 192,
            "midi": 66,
            "name": "F#4",
            "ticks": 226582,
            "time": 256.5462893854166,
            "velocity": 0.3937007874015748
          },
          {
            "duration": 0.21739100000002054,
            "durationTicks": 192,
            "midi": 74,
            "name": "D5",
            "ticks": 226582,
            "time": 256.5462893854166,
            "velocity": 0.3937007874015748
          },
          {
            "duration": 0.21739100000002054,
            "durationTicks": 192,
            "midi": 62,
            "name": "D4",
            "ticks": 226582,
            "time": 256.5462893854166,
            "velocity": 0.3937007874015748
          },
          {
            "duration": 0.21739100000002054,
            "durationTicks": 192,
            "midi": 78,
            "name": "F#5",
            "ticks": 226582,
            "time": 256.5462893854166,
            "velocity": 0.3937007874015748
          },
          {
            "duration": 0.3260865000000308,
            "durationTicks": 288,
            "midi": 55,
            "name": "G3",
            "ticks": 226678,
            "time": 256.65498488541664,
            "velocity": 0.3937007874015748
          },
          {
            "duration": 0.10869550000001027,
            "durationTicks": 96,
            "midi": 71,
            "name": "B4",
            "ticks": 226678,
            "time": 256.65498488541664,
            "velocity": 0.3937007874015748
          },
          {
            "duration": 0.3260865000000308,
            "durationTicks": 288,
            "midi": 64,
            "name": "E4",
            "ticks": 226678,
            "time": 256.65498488541664,
            "velocity": 0.3937007874015748
          },
          {
            "duration": 0.3260865000000308,
            "durationTicks": 288,
            "midi": 59,
            "name": "B3",
            "ticks": 226678,
            "time": 256.65498488541664,
            "velocity": 0.3937007874015748
          },
          {
            "duration": 0.21739100000002054,
            "durationTicks": 192,
            "midi": 74,
            "name": "D5",
            "ticks": 226774,
            "time": 256.76368038541665,
            "velocity": 0.3937007874015748
          },
          {
            "duration": 0.21739100000002054,
            "durationTicks": 192,
            "midi": 69,
            "name": "A4",
            "ticks": 226774,
            "time": 256.76368038541665,
            "velocity": 0.3937007874015748
          },
          {
            "duration": 0.21739100000002054,
            "durationTicks": 192,
            "midi": 57,
            "name": "A3",
            "ticks": 226774,
            "time": 256.76368038541665,
            "velocity": 0.3937007874015748
          },
          {
            "duration": 0.21739100000002054,
            "durationTicks": 192,
            "midi": 62,
            "name": "D4",
            "ticks": 226774,
            "time": 256.76368038541665,
            "velocity": 0.3937007874015748
          },
          {
            "duration": 0.21739100000002054,
            "durationTicks": 192,
            "midi": 35,
            "name": "B1",
            "ticks": 226774,
            "time": 256.76368038541665,
            "velocity": 0.3937007874015748
          },
          {
            "duration": 0.10869550000001027,
            "durationTicks": 96,
            "midi": 76,
            "name": "E5",
            "ticks": 226774,
            "time": 256.76368038541665,
            "velocity": 0.3937007874015748
          },
          {
            "duration": 0.10869550000001027,
            "durationTicks": 96,
            "midi": 79,
            "name": "G5",
            "ticks": 226870,
            "time": 256.87237588541666,
            "velocity": 0.3937007874015748
          },
          {
            "duration": 0.2173909999999637,
            "durationTicks": 192,
            "midi": 35,
            "name": "B1",
            "ticks": 226966,
            "time": 256.98107138541667,
            "velocity": 0.3937007874015748
          },
          {
            "duration": 0.2173909999999637,
            "durationTicks": 192,
            "midi": 35,
            "name": "B1",
            "ticks": 226966,
            "time": 256.98107138541667,
            "velocity": 0.3937007874015748
          },
          {
            "duration": 0.2173909999999637,
            "durationTicks": 192,
            "midi": 76,
            "name": "E5",
            "ticks": 226966,
            "time": 256.98107138541667,
            "velocity": 0.3937007874015748
          },
          {
            "duration": 0.2173909999999637,
            "durationTicks": 192,
            "midi": 40,
            "name": "E2",
            "ticks": 226966,
            "time": 256.98107138541667,
            "velocity": 0.3937007874015748
          },
          {
            "duration": 0.2173909999999637,
            "durationTicks": 192,
            "midi": 71,
            "name": "B4",
            "ticks": 226966,
            "time": 256.98107138541667,
            "velocity": 0.3937007874015748
          },
          {
            "duration": 0.2173909999999637,
            "durationTicks": 192,
            "midi": 64,
            "name": "E4",
            "ticks": 226966,
            "time": 256.98107138541667,
            "velocity": 0.3937007874015748
          },
          {
            "duration": 0.2173909999999637,
            "durationTicks": 192,
            "midi": 88,
            "name": "E6",
            "ticks": 226966,
            "time": 256.98107138541667,
            "velocity": 0.3937007874015748
          },
          {
            "duration": 0.2173909999999637,
            "durationTicks": 192,
            "midi": 59,
            "name": "B3",
            "ticks": 226966,
            "time": 256.98107138541667,
            "velocity": 0.3937007874015748
          },
          {
            "duration": 0.2173909999999637,
            "durationTicks": 192,
            "midi": 55,
            "name": "G3",
            "ticks": 226966,
            "time": 256.98107138541667,
            "velocity": 0.3937007874015748
          },
          {
            "duration": 0.2173909999999637,
            "durationTicks": 192,
            "midi": 59,
            "name": "B3",
            "ticks": 226966,
            "time": 256.98107138541667,
            "velocity": 0.3937007874015748
          },
          {
            "duration": 0.2173909999999637,
            "durationTicks": 192,
            "midi": 52,
            "name": "E3",
            "ticks": 226966,
            "time": 256.98107138541667,
            "velocity": 0.3937007874015748
          },
          {
            "duration": 0.2173909999999637,
            "durationTicks": 192,
            "midi": 64,
            "name": "E4",
            "ticks": 226966,
            "time": 256.98107138541667,
            "velocity": 0.3937007874015748
          },
          {
            "duration": 0.2173909999999637,
            "durationTicks": 192,
            "midi": 47,
            "name": "B2",
            "ticks": 226966,
            "time": 256.98107138541667,
            "velocity": 0.3937007874015748
          },
          {
            "duration": 0.21739100000002054,
            "durationTicks": 192,
            "midi": 83,
            "name": "B5",
            "ticks": 227350,
            "time": 257.41585338541665,
            "velocity": 0.3937007874015748
          },
          {
            "duration": 0.21739100000002054,
            "durationTicks": 192,
            "midi": 71,
            "name": "B4",
            "ticks": 227350,
            "time": 257.41585338541665,
            "velocity": 0.3937007874015748
          },
          {
            "duration": 0.43478199999998424,
            "durationTicks": 384,
            "midi": 55,
            "name": "G3",
            "ticks": 227350,
            "time": 257.41585338541665,
            "velocity": 0.3937007874015748
          },
          {
            "duration": 0.21739100000002054,
            "durationTicks": 192,
            "midi": 35,
            "name": "B1",
            "ticks": 227350,
            "time": 257.41585338541665,
            "velocity": 0.3937007874015748
          },
          {
            "duration": 0.43478199999998424,
            "durationTicks": 384,
            "midi": 59,
            "name": "B3",
            "ticks": 227350,
            "time": 257.41585338541665,
            "velocity": 0.3937007874015748
          },
          {
            "duration": 0.21739100000002054,
            "durationTicks": 192,
            "midi": 67,
            "name": "G4",
            "ticks": 227350,
            "time": 257.41585338541665,
            "velocity": 0.3937007874015748
          },
          {
            "duration": 0.21739100000002054,
            "durationTicks": 192,
            "midi": 79,
            "name": "G5",
            "ticks": 227350,
            "time": 257.41585338541665,
            "velocity": 0.3937007874015748
          },
          {
            "duration": 0.43478199999998424,
            "durationTicks": 384,
            "midi": 64,
            "name": "E4",
            "ticks": 227350,
            "time": 257.41585338541665,
            "velocity": 0.3937007874015748
          },
          {
            "duration": 0.2173909999999637,
            "durationTicks": 192,
            "midi": 74,
            "name": "D5",
            "ticks": 227542,
            "time": 257.6332443854167,
            "velocity": 0.3937007874015748
          },
          {
            "duration": 0.2173909999999637,
            "durationTicks": 192,
            "midi": 86,
            "name": "D6",
            "ticks": 227542,
            "time": 257.6332443854167,
            "velocity": 0.3937007874015748
          },
          {
            "duration": 0.2173909999999637,
            "durationTicks": 192,
            "midi": 69,
            "name": "A4",
            "ticks": 227542,
            "time": 257.6332443854167,
            "velocity": 0.3937007874015748
          },
          {
            "duration": 0.2173909999999637,
            "durationTicks": 192,
            "midi": 81,
            "name": "A5",
            "ticks": 227542,
            "time": 257.6332443854167,
            "velocity": 0.3937007874015748
          },
          {
            "duration": 0.10869550000001027,
            "durationTicks": 96,
            "midi": 52,
            "name": "E3",
            "ticks": 227734,
            "time": 257.85063538541664,
            "velocity": 0.3937007874015748
          },
          {
            "duration": 0.21739100000002054,
            "durationTicks": 192,
            "midi": 81,
            "name": "A5",
            "ticks": 227734,
            "time": 257.85063538541664,
            "velocity": 0.3937007874015748
          },
          {
            "duration": 0.21739100000002054,
            "durationTicks": 192,
            "midi": 35,
            "name": "B1",
            "ticks": 227734,
            "time": 257.85063538541664,
            "velocity": 0.3937007874015748
          },
          {
            "duration": 0.10869550000001027,
            "durationTicks": 96,
            "midi": 55,
            "name": "G3",
            "ticks": 227734,
            "time": 257.85063538541664,
            "velocity": 0.3937007874015748
          },
          {
            "duration": 0.10869550000001027,
            "durationTicks": 96,
            "midi": 88,
            "name": "E6",
            "ticks": 227734,
            "time": 257.85063538541664,
            "velocity": 0.3937007874015748
          },
          {
            "duration": 0.10869550000001027,
            "durationTicks": 96,
            "midi": 60,
            "name": "C4",
            "ticks": 227734,
            "time": 257.85063538541664,
            "velocity": 0.3937007874015748
          },
          {
            "duration": 0.10869550000001027,
            "durationTicks": 96,
            "midi": 24,
            "name": "C1",
            "ticks": 227734,
            "time": 257.85063538541664,
            "velocity": 0.3937007874015748
          },
          {
            "duration": 0.10869550000001027,
            "durationTicks": 96,
            "midi": 36,
            "name": "C2",
            "ticks": 227734,
            "time": 257.85063538541664,
            "velocity": 0.3937007874015748
          },
          {
            "duration": 0.21739100000002054,
            "durationTicks": 192,
            "midi": 69,
            "name": "A4",
            "ticks": 227734,
            "time": 257.85063538541664,
            "velocity": 0.3937007874015748
          },
          {
            "duration": 0.21739100000002054,
            "durationTicks": 192,
            "midi": 86,
            "name": "D6",
            "ticks": 227734,
            "time": 257.85063538541664,
            "velocity": 0.3937007874015748
          },
          {
            "duration": 0.21739100000002054,
            "durationTicks": 192,
            "midi": 74,
            "name": "D5",
            "ticks": 227734,
            "time": 257.85063538541664,
            "velocity": 0.3937007874015748
          },
          {
            "duration": 0.10869550000001027,
            "durationTicks": 96,
            "midi": 88,
            "name": "E6",
            "ticks": 227830,
            "time": 257.95933088541665,
            "velocity": 0.3937007874015748
          },
          {
            "duration": 0.10869550000001027,
            "durationTicks": 96,
            "midi": 60,
            "name": "C4",
            "ticks": 227830,
            "time": 257.95933088541665,
            "velocity": 0.3937007874015748
          },
          {
            "duration": 0.10869550000001027,
            "durationTicks": 96,
            "midi": 55,
            "name": "G3",
            "ticks": 227830,
            "time": 257.95933088541665,
            "velocity": 0.3937007874015748
          },
          {
            "duration": 0.10869550000001027,
            "durationTicks": 96,
            "midi": 52,
            "name": "E3",
            "ticks": 227830,
            "time": 257.95933088541665,
            "velocity": 0.3937007874015748
          },
          {
            "duration": 0.10869550000001027,
            "durationTicks": 96,
            "midi": 55,
            "name": "G3",
            "ticks": 227926,
            "time": 258.06802638541666,
            "velocity": 0.3937007874015748
          },
          {
            "duration": 0.10869550000001027,
            "durationTicks": 96,
            "midi": 60,
            "name": "C4",
            "ticks": 227926,
            "time": 258.06802638541666,
            "velocity": 0.3937007874015748
          },
          {
            "duration": 0.10869550000001027,
            "durationTicks": 96,
            "midi": 36,
            "name": "C2",
            "ticks": 227926,
            "time": 258.06802638541666,
            "velocity": 0.3937007874015748
          },
          {
            "duration": 0.21739100000002054,
            "durationTicks": 192,
            "midi": 71,
            "name": "B4",
            "ticks": 227926,
            "time": 258.06802638541666,
            "velocity": 0.3937007874015748
          },
          {
            "duration": 0.21739100000002054,
            "durationTicks": 192,
            "midi": 88,
            "name": "E6",
            "ticks": 227926,
            "time": 258.06802638541666,
            "velocity": 0.3937007874015748
          },
          {
            "duration": 0.10869550000001027,
            "durationTicks": 96,
            "midi": 87,
            "name": "D#6",
            "ticks": 227926,
            "time": 258.06802638541666,
            "velocity": 0.3937007874015748
          },
          {
            "duration": 0.10869550000001027,
            "durationTicks": 96,
            "midi": 48,
            "name": "C3",
            "ticks": 227926,
            "time": 258.06802638541666,
            "velocity": 0.3937007874015748
          },
          {
            "duration": 0.21739100000002054,
            "durationTicks": 192,
            "midi": 76,
            "name": "E5",
            "ticks": 227926,
            "time": 258.06802638541666,
            "velocity": 0.3937007874015748
          },
          {
            "duration": 0.21739100000002054,
            "durationTicks": 192,
            "midi": 83,
            "name": "B5",
            "ticks": 227926,
            "time": 258.06802638541666,
            "velocity": 0.3937007874015748
          },
          {
            "duration": 0.10869550000001027,
            "durationTicks": 96,
            "midi": 52,
            "name": "E3",
            "ticks": 227926,
            "time": 258.06802638541666,
            "velocity": 0.3937007874015748
          },
          {
            "duration": 0.10869550000001027,
            "durationTicks": 96,
            "midi": 60,
            "name": "C4",
            "ticks": 228022,
            "time": 258.17672188541667,
            "velocity": 0.3937007874015748
          },
          {
            "duration": 0.10869550000001027,
            "durationTicks": 96,
            "midi": 87,
            "name": "D#6",
            "ticks": 228022,
            "time": 258.17672188541667,
            "velocity": 0.3937007874015748
          },
          {
            "duration": 0.10869550000001027,
            "durationTicks": 96,
            "midi": 55,
            "name": "G3",
            "ticks": 228022,
            "time": 258.17672188541667,
            "velocity": 0.3937007874015748
          },
          {
            "duration": 0.10869550000001027,
            "durationTicks": 96,
            "midi": 48,
            "name": "C3",
            "ticks": 228022,
            "time": 258.17672188541667,
            "velocity": 0.3937007874015748
          },
          {
            "duration": 0.10869550000001027,
            "durationTicks": 96,
            "midi": 52,
            "name": "E3",
            "ticks": 228022,
            "time": 258.17672188541667,
            "velocity": 0.3937007874015748
          },
          {
            "duration": 0.10869550000001027,
            "durationTicks": 96,
            "midi": 36,
            "name": "C2",
            "ticks": 228022,
            "time": 258.17672188541667,
            "velocity": 0.3937007874015748
          },
          {
            "duration": 0.10869549999995343,
            "durationTicks": 96,
            "midi": 86,
            "name": "D6",
            "ticks": 228118,
            "time": 258.2854173854167,
            "velocity": 0.3937007874015748
          },
          {
            "duration": 0.2173909999999637,
            "durationTicks": 192,
            "midi": 83,
            "name": "B5",
            "ticks": 228118,
            "time": 258.2854173854167,
            "velocity": 0.3937007874015748
          },
          {
            "duration": 0.10869549999995343,
            "durationTicks": 96,
            "midi": 36,
            "name": "C2",
            "ticks": 228118,
            "time": 258.2854173854167,
            "velocity": 0.3937007874015748
          },
          {
            "duration": 0.10869549999995343,
            "durationTicks": 96,
            "midi": 55,
            "name": "G3",
            "ticks": 228118,
            "time": 258.2854173854167,
            "velocity": 0.3937007874015748
          },
          {
            "duration": 0.10869549999995343,
            "durationTicks": 96,
            "midi": 24,
            "name": "C1",
            "ticks": 228118,
            "time": 258.2854173854167,
            "velocity": 0.3937007874015748
          },
          {
            "duration": 0.10869549999995343,
            "durationTicks": 96,
            "midi": 60,
            "name": "C4",
            "ticks": 228118,
            "time": 258.2854173854167,
            "velocity": 0.3937007874015748
          },
          {
            "duration": 0.10869549999995343,
            "durationTicks": 96,
            "midi": 52,
            "name": "E3",
            "ticks": 228118,
            "time": 258.2854173854167,
            "velocity": 0.3937007874015748
          },
          {
            "duration": 0.2173909999999637,
            "durationTicks": 192,
            "midi": 35,
            "name": "B1",
            "ticks": 228118,
            "time": 258.2854173854167,
            "velocity": 0.3937007874015748
          },
          {
            "duration": 0.2173909999999637,
            "durationTicks": 192,
            "midi": 67,
            "name": "G4",
            "ticks": 228118,
            "time": 258.2854173854167,
            "velocity": 0.3937007874015748
          },
          {
            "duration": 0.2173909999999637,
            "durationTicks": 192,
            "midi": 79,
            "name": "G5",
            "ticks": 228118,
            "time": 258.2854173854167,
            "velocity": 0.3937007874015748
          },
          {
            "duration": 0.2173909999999637,
            "durationTicks": 192,
            "midi": 71,
            "name": "B4",
            "ticks": 228118,
            "time": 258.2854173854167,
            "velocity": 0.3937007874015748
          },
          {
            "duration": 0.10869550000001027,
            "durationTicks": 96,
            "midi": 36,
            "name": "C2",
            "ticks": 228214,
            "time": 258.39411288541663,
            "velocity": 0.3937007874015748
          },
          {
            "duration": 0.10869550000001027,
            "durationTicks": 96,
            "midi": 60,
            "name": "C4",
            "ticks": 228214,
            "time": 258.39411288541663,
            "velocity": 0.3937007874015748
          },
          {
            "duration": 0.10869550000001027,
            "durationTicks": 96,
            "midi": 86,
            "name": "D6",
            "ticks": 228214,
            "time": 258.39411288541663,
            "velocity": 0.3937007874015748
          },
          {
            "duration": 0.10869550000001027,
            "durationTicks": 96,
            "midi": 48,
            "name": "C3",
            "ticks": 228214,
            "time": 258.39411288541663,
            "velocity": 0.3937007874015748
          },
          {
            "duration": 0.10869550000001027,
            "durationTicks": 96,
            "midi": 55,
            "name": "G3",
            "ticks": 228214,
            "time": 258.39411288541663,
            "velocity": 0.3937007874015748
          },
          {
            "duration": 0.10869550000001027,
            "durationTicks": 96,
            "midi": 52,
            "name": "E3",
            "ticks": 228214,
            "time": 258.39411288541663,
            "velocity": 0.3937007874015748
          },
          {
            "duration": 0.10869550000001027,
            "durationTicks": 96,
            "midi": 85,
            "name": "C#6",
            "ticks": 228310,
            "time": 258.50280838541664,
            "velocity": 0.3937007874015748
          },
          {
            "duration": 0.10869550000001027,
            "durationTicks": 96,
            "midi": 35,
            "name": "B1",
            "ticks": 228310,
            "time": 258.50280838541664,
            "velocity": 0.3937007874015748
          },
          {
            "duration": 0.21739100000002054,
            "durationTicks": 192,
            "midi": 81,
            "name": "A5",
            "ticks": 228310,
            "time": 258.50280838541664,
            "velocity": 0.3937007874015748
          },
          {
            "duration": 0.21739100000002054,
            "durationTicks": 192,
            "midi": 69,
            "name": "A4",
            "ticks": 228310,
            "time": 258.50280838541664,
            "velocity": 0.3937007874015748
          },
          {
            "duration": 0.21739100000002054,
            "durationTicks": 192,
            "midi": 66,
            "name": "F#4",
            "ticks": 228310,
            "time": 258.50280838541664,
            "velocity": 0.3937007874015748
          },
          {
            "duration": 0.10869550000001027,
            "durationTicks": 96,
            "midi": 52,
            "name": "E3",
            "ticks": 228310,
            "time": 258.50280838541664,
            "velocity": 0.3937007874015748
          },
          {
            "duration": 0.10869550000001027,
            "durationTicks": 96,
            "midi": 47,
            "name": "B2",
            "ticks": 228310,
            "time": 258.50280838541664,
            "velocity": 0.3937007874015748
          },
          {
            "duration": 0.10869550000001027,
            "durationTicks": 96,
            "midi": 55,
            "name": "G3",
            "ticks": 228310,
            "time": 258.50280838541664,
            "velocity": 0.3937007874015748
          },
          {
            "duration": 0.10869550000001027,
            "durationTicks": 96,
            "midi": 60,
            "name": "C4",
            "ticks": 228310,
            "time": 258.50280838541664,
            "velocity": 0.3937007874015748
          },
          {
            "duration": 0.21739100000002054,
            "durationTicks": 192,
            "midi": 78,
            "name": "F#5",
            "ticks": 228310,
            "time": 258.50280838541664,
            "velocity": 0.3937007874015748
          },
          {
            "duration": 0.10869550000001027,
            "durationTicks": 96,
            "midi": 36,
            "name": "C2",
            "ticks": 228406,
            "time": 258.61150388541665,
            "velocity": 0.3937007874015748
          },
          {
            "duration": 0.10869550000001027,
            "durationTicks": 96,
            "midi": 52,
            "name": "E3",
            "ticks": 228406,
            "time": 258.61150388541665,
            "velocity": 0.3937007874015748
          },
          {
            "duration": 0.10869550000001027,
            "durationTicks": 96,
            "midi": 48,
            "name": "C3",
            "ticks": 228406,
            "time": 258.61150388541665,
            "velocity": 0.3937007874015748
          },
          {
            "duration": 0.10869550000001027,
            "durationTicks": 96,
            "midi": 85,
            "name": "C#6",
            "ticks": 228406,
            "time": 258.61150388541665,
            "velocity": 0.3937007874015748
          },
          {
            "duration": 0.10869550000001027,
            "durationTicks": 96,
            "midi": 60,
            "name": "C4",
            "ticks": 228406,
            "time": 258.61150388541665,
            "velocity": 0.3937007874015748
          },
          {
            "duration": 0.10869550000001027,
            "durationTicks": 96,
            "midi": 55,
            "name": "G3",
            "ticks": 228406,
            "time": 258.61150388541665,
            "velocity": 0.3937007874015748
          },
          {
            "duration": 0.10869550000001027,
            "durationTicks": 96,
            "midi": 52,
            "name": "E3",
            "ticks": 228502,
            "time": 258.72019938541666,
            "velocity": 0.3937007874015748
          },
          {
            "duration": 0.10869550000001027,
            "durationTicks": 96,
            "midi": 84,
            "name": "C6",
            "ticks": 228502,
            "time": 258.72019938541666,
            "velocity": 0.3937007874015748
          },
          {
            "duration": 0.2173909999999637,
            "durationTicks": 192,
            "midi": 67,
            "name": "G4",
            "ticks": 228502,
            "time": 258.72019938541666,
            "velocity": 0.3937007874015748
          },
          {
            "duration": 0.10869550000001027,
            "durationTicks": 96,
            "midi": 24,
            "name": "C1",
            "ticks": 228502,
            "time": 258.72019938541666,
            "velocity": 0.3937007874015748
          },
          {
            "duration": 0.2173909999999637,
            "durationTicks": 192,
            "midi": 71,
            "name": "B4",
            "ticks": 228502,
            "time": 258.72019938541666,
            "velocity": 0.3937007874015748
          },
          {
            "duration": 0.2173909999999637,
            "durationTicks": 192,
            "midi": 83,
            "name": "B5",
            "ticks": 228502,
            "time": 258.72019938541666,
            "velocity": 0.3937007874015748
          },
          {
            "duration": 0.10869550000001027,
            "durationTicks": 96,
            "midi": 55,
            "name": "G3",
            "ticks": 228502,
            "time": 258.72019938541666,
            "velocity": 0.3937007874015748
          },
          {
            "duration": 0.2173909999999637,
            "durationTicks": 192,
            "midi": 79,
            "name": "G5",
            "ticks": 228502,
            "time": 258.72019938541666,
            "velocity": 0.3937007874015748
          },
          {
            "duration": 0.10869550000001027,
            "durationTicks": 96,
            "midi": 60,
            "name": "C4",
            "ticks": 228502,
            "time": 258.72019938541666,
            "velocity": 0.3937007874015748
          },
          {
            "duration": 0.2173909999999637,
            "durationTicks": 192,
            "midi": 35,
            "name": "B1",
            "ticks": 228502,
            "time": 258.72019938541666,
            "velocity": 0.3937007874015748
          },
          {
            "duration": 0.10869550000001027,
            "durationTicks": 96,
            "midi": 36,
            "name": "C2",
            "ticks": 228502,
            "time": 258.72019938541666,
            "velocity": 0.3937007874015748
          },
          {
            "duration": 0.10869549999995343,
            "durationTicks": 96,
            "midi": 60,
            "name": "C4",
            "ticks": 228598,
            "time": 258.8288948854167,
            "velocity": 0.3937007874015748
          },
          {
            "duration": 0.10869549999995343,
            "durationTicks": 96,
            "midi": 84,
            "name": "C6",
            "ticks": 228598,
            "time": 258.8288948854167,
            "velocity": 0.3937007874015748
          },
          {
            "duration": 0.10869549999995343,
            "durationTicks": 96,
            "midi": 52,
            "name": "E3",
            "ticks": 228598,
            "time": 258.8288948854167,
            "velocity": 0.3937007874015748
          },
          {
            "duration": 0.10869549999995343,
            "durationTicks": 96,
            "midi": 55,
            "name": "G3",
            "ticks": 228598,
            "time": 258.8288948854167,
            "velocity": 0.3937007874015748
          },
          {
            "duration": 0.10869550000001027,
            "durationTicks": 96,
            "midi": 48,
            "name": "C3",
            "ticks": 228694,
            "time": 258.9375903854166,
            "velocity": 0.3937007874015748
          },
          {
            "duration": 0.10869550000001027,
            "durationTicks": 96,
            "midi": 36,
            "name": "C2",
            "ticks": 228694,
            "time": 258.9375903854166,
            "velocity": 0.3937007874015748
          },
          {
            "duration": 0.10869550000001027,
            "durationTicks": 96,
            "midi": 60,
            "name": "C4",
            "ticks": 228694,
            "time": 258.9375903854166,
            "velocity": 0.3937007874015748
          },
          {
            "duration": 0.10869550000001027,
            "durationTicks": 96,
            "midi": 95,
            "name": "B6",
            "ticks": 228694,
            "time": 258.9375903854166,
            "velocity": 0.3937007874015748
          },
          {
            "duration": 0.10869550000001027,
            "durationTicks": 96,
            "midi": 52,
            "name": "E3",
            "ticks": 228694,
            "time": 258.9375903854166,
            "velocity": 0.3937007874015748
          },
          {
            "duration": 0.10869550000001027,
            "durationTicks": 96,
            "midi": 55,
            "name": "G3",
            "ticks": 228694,
            "time": 258.9375903854166,
            "velocity": 0.3937007874015748
          },
          {
            "duration": 0.10869550000001027,
            "durationTicks": 96,
            "midi": 36,
            "name": "C2",
            "ticks": 228790,
            "time": 259.04628588541664,
            "velocity": 0.3937007874015748
          },
          {
            "duration": 0.10869550000001027,
            "durationTicks": 96,
            "midi": 95,
            "name": "B6",
            "ticks": 228790,
            "time": 259.04628588541664,
            "velocity": 0.3937007874015748
          },
          {
            "duration": 0.10869550000001027,
            "durationTicks": 96,
            "midi": 48,
            "name": "C3",
            "ticks": 228790,
            "time": 259.04628588541664,
            "velocity": 0.3937007874015748
          },
          {
            "duration": 0.10869550000001027,
            "durationTicks": 96,
            "midi": 60,
            "name": "C4",
            "ticks": 228790,
            "time": 259.04628588541664,
            "velocity": 0.3937007874015748
          },
          {
            "duration": 0.10869550000001027,
            "durationTicks": 96,
            "midi": 52,
            "name": "E3",
            "ticks": 228790,
            "time": 259.04628588541664,
            "velocity": 0.3937007874015748
          },
          {
            "duration": 0.10869550000001027,
            "durationTicks": 96,
            "midi": 55,
            "name": "G3",
            "ticks": 228790,
            "time": 259.04628588541664,
            "velocity": 0.3937007874015748
          },
          {
            "duration": 0.10869550000001027,
            "durationTicks": 96,
            "midi": 94,
            "name": "A#6",
            "ticks": 228886,
            "time": 259.15498138541665,
            "velocity": 0.3937007874015748
          },
          {
            "duration": 0.21739100000002054,
            "durationTicks": 192,
            "midi": 66,
            "name": "F#4",
            "ticks": 228886,
            "time": 259.15498138541665,
            "velocity": 0.3937007874015748
          },
          {
            "duration": 0.10869550000001027,
            "durationTicks": 96,
            "midi": 35,
            "name": "B1",
            "ticks": 228886,
            "time": 259.15498138541665,
            "velocity": 0.3937007874015748
          },
          {
            "duration": 0.10869550000001027,
            "durationTicks": 96,
            "midi": 55,
            "name": "G3",
            "ticks": 228886,
            "time": 259.15498138541665,
            "velocity": 0.3937007874015748
          },
          {
            "duration": 0.21739100000002054,
            "durationTicks": 192,
            "midi": 81,
            "name": "A5",
            "ticks": 228886,
            "time": 259.15498138541665,
            "velocity": 0.3937007874015748
          },
          {
            "duration": 0.10869550000001027,
            "durationTicks": 96,
            "midi": 24,
            "name": "C1",
            "ticks": 228886,
            "time": 259.15498138541665,
            "velocity": 0.3937007874015748
          },
          {
            "duration": 0.10869550000001027,
            "durationTicks": 96,
            "midi": 36,
            "name": "C2",
            "ticks": 228886,
            "time": 259.15498138541665,
            "velocity": 0.3937007874015748
          },
          {
            "duration": 0.21739100000002054,
            "durationTicks": 192,
            "midi": 69,
            "name": "A4",
            "ticks": 228886,
            "time": 259.15498138541665,
            "velocity": 0.3937007874015748
          },
          {
            "duration": 0.10869550000001027,
            "durationTicks": 96,
            "midi": 52,
            "name": "E3",
            "ticks": 228886,
            "time": 259.15498138541665,
            "velocity": 0.3937007874015748
          },
          {
            "duration": 0.21739100000002054,
            "durationTicks": 192,
            "midi": 78,
            "name": "F#5",
            "ticks": 228886,
            "time": 259.15498138541665,
            "velocity": 0.3937007874015748
          },
          {
            "duration": 0.10869550000001027,
            "durationTicks": 96,
            "midi": 60,
            "name": "C4",
            "ticks": 228886,
            "time": 259.15498138541665,
            "velocity": 0.3937007874015748
          },
          {
            "duration": 0.10869550000001027,
            "durationTicks": 96,
            "midi": 60,
            "name": "C4",
            "ticks": 228982,
            "time": 259.26367688541666,
            "velocity": 0.3937007874015748
          },
          {
            "duration": 0.10869550000001027,
            "durationTicks": 96,
            "midi": 94,
            "name": "A#6",
            "ticks": 228982,
            "time": 259.26367688541666,
            "velocity": 0.3937007874015748
          },
          {
            "duration": 0.10869550000001027,
            "durationTicks": 96,
            "midi": 35,
            "name": "B1",
            "ticks": 228982,
            "time": 259.26367688541666,
            "velocity": 0.3937007874015748
          },
          {
            "duration": 0.10869550000001027,
            "durationTicks": 96,
            "midi": 36,
            "name": "C2",
            "ticks": 228982,
            "time": 259.26367688541666,
            "velocity": 0.3937007874015748
          },
          {
            "duration": 0.10869550000001027,
            "durationTicks": 96,
            "midi": 52,
            "name": "E3",
            "ticks": 228982,
            "time": 259.26367688541666,
            "velocity": 0.3937007874015748
          },
          {
            "duration": 0.10869550000001027,
            "durationTicks": 96,
            "midi": 55,
            "name": "G3",
            "ticks": 228982,
            "time": 259.26367688541666,
            "velocity": 0.3937007874015748
          },
          {
            "duration": 0.10869550000001027,
            "durationTicks": 96,
            "midi": 48,
            "name": "C3",
            "ticks": 228982,
            "time": 259.26367688541666,
            "velocity": 0.3937007874015748
          },
          {
            "duration": 0.10869550000001027,
            "durationTicks": 96,
            "midi": 55,
            "name": "G3",
            "ticks": 229078,
            "time": 259.37237238541667,
            "velocity": 0.3937007874015748
          },
          {
            "duration": 0.10869550000001027,
            "durationTicks": 96,
            "midi": 35,
            "name": "B1",
            "ticks": 229078,
            "time": 259.37237238541667,
            "velocity": 0.3937007874015748
          },
          {
            "duration": 0.10869550000001027,
            "durationTicks": 96,
            "midi": 60,
            "name": "C4",
            "ticks": 229078,
            "time": 259.37237238541667,
            "velocity": 0.3937007874015748
          },
          {
            "duration": 0.10869550000001027,
            "durationTicks": 96,
            "midi": 93,
            "name": "A6",
            "ticks": 229078,
            "time": 259.37237238541667,
            "velocity": 0.3937007874015748
          },
          {
            "duration": 0.2173909999999637,
            "durationTicks": 192,
            "midi": 71,
            "name": "B4",
            "ticks": 229078,
            "time": 259.37237238541667,
            "velocity": 0.3937007874015748
          },
          {
            "duration": 0.2173909999999637,
            "durationTicks": 192,
            "midi": 79,
            "name": "G5",
            "ticks": 229078,
            "time": 259.37237238541667,
            "velocity": 0.3937007874015748
          },
          {
            "duration": 0.10869550000001027,
            "durationTicks": 96,
            "midi": 47,
            "name": "B2",
            "ticks": 229078,
            "time": 259.37237238541667,
            "velocity": 0.3937007874015748
          },
          {
            "duration": 0.10869550000001027,
            "durationTicks": 96,
            "midi": 35,
            "name": "B1",
            "ticks": 229078,
            "time": 259.37237238541667,
            "velocity": 0.3937007874015748
          },
          {
            "duration": 0.2173909999999637,
            "durationTicks": 192,
            "midi": 67,
            "name": "G4",
            "ticks": 229078,
            "time": 259.37237238541667,
            "velocity": 0.3937007874015748
          },
          {
            "duration": 0.2173909999999637,
            "durationTicks": 192,
            "midi": 83,
            "name": "B5",
            "ticks": 229078,
            "time": 259.37237238541667,
            "velocity": 0.3937007874015748
          },
          {
            "duration": 0.10869550000001027,
            "durationTicks": 96,
            "midi": 52,
            "name": "E3",
            "ticks": 229078,
            "time": 259.37237238541667,
            "velocity": 0.3937007874015748
          },
          {
            "duration": 0.10869549999995343,
            "durationTicks": 96,
            "midi": 36,
            "name": "C2",
            "ticks": 229174,
            "time": 259.4810678854167,
            "velocity": 0.3937007874015748
          },
          {
            "duration": 0.10869549999995343,
            "durationTicks": 96,
            "midi": 48,
            "name": "C3",
            "ticks": 229174,
            "time": 259.4810678854167,
            "velocity": 0.3937007874015748
          },
          {
            "duration": 0.10869549999995343,
            "durationTicks": 96,
            "midi": 93,
            "name": "A6",
            "ticks": 229174,
            "time": 259.4810678854167,
            "velocity": 0.3937007874015748
          },
          {
            "duration": 0.10869549999995343,
            "durationTicks": 96,
            "midi": 55,
            "name": "G3",
            "ticks": 229174,
            "time": 259.4810678854167,
            "velocity": 0.3937007874015748
          },
          {
            "duration": 0.10869549999995343,
            "durationTicks": 96,
            "midi": 35,
            "name": "B1",
            "ticks": 229174,
            "time": 259.4810678854167,
            "velocity": 0.3937007874015748
          },
          {
            "duration": 0.10869549999995343,
            "durationTicks": 96,
            "midi": 52,
            "name": "E3",
            "ticks": 229174,
            "time": 259.4810678854167,
            "velocity": 0.3937007874015748
          },
          {
            "duration": 0.10869549999995343,
            "durationTicks": 96,
            "midi": 60,
            "name": "C4",
            "ticks": 229174,
            "time": 259.4810678854167,
            "velocity": 0.3937007874015748
          },
          {
            "duration": 0.10869550000001027,
            "durationTicks": 96,
            "midi": 54,
            "name": "F#3",
            "ticks": 229270,
            "time": 259.58976338541663,
            "velocity": 0.3937007874015748
          },
          {
            "duration": 0.10869550000001027,
            "durationTicks": 96,
            "midi": 92,
            "name": "G#6",
            "ticks": 229270,
            "time": 259.58976338541663,
            "velocity": 0.3937007874015748
          },
          {
            "duration": 0.10869550000001027,
            "durationTicks": 96,
            "midi": 38,
            "name": "D2",
            "ticks": 229270,
            "time": 259.58976338541663,
            "velocity": 0.3937007874015748
          },
          {
            "duration": 0.21739100000002054,
            "durationTicks": 192,
            "midi": 35,
            "name": "B1",
            "ticks": 229270,
            "time": 259.58976338541663,
            "velocity": 0.3937007874015748
          },
          {
            "duration": 0.10869550000001027,
            "durationTicks": 96,
            "midi": 62,
            "name": "D4",
            "ticks": 229270,
            "time": 259.58976338541663,
            "velocity": 0.3937007874015748
          },
          {
            "duration": 0.21739100000002054,
            "durationTicks": 192,
            "midi": 74,
            "name": "D5",
            "ticks": 229270,
            "time": 259.58976338541663,
            "velocity": 0.3937007874015748
          },
          {
            "duration": 0.21739100000002054,
            "durationTicks": 192,
            "midi": 81,
            "name": "A5",
            "ticks": 229270,
            "time": 259.58976338541663,
            "velocity": 0.3937007874015748
          },
          {
            "duration": 0.21739100000002054,
            "durationTicks": 192,
            "midi": 86,
            "name": "D6",
            "ticks": 229270,
            "time": 259.58976338541663,
            "velocity": 0.3937007874015748
          },
          {
            "duration": 0.10869550000001027,
            "durationTicks": 96,
            "midi": 57,
            "name": "A3",
            "ticks": 229270,
            "time": 259.58976338541663,
            "velocity": 0.3937007874015748
          },
          {
            "duration": 0.21739100000002054,
            "durationTicks": 192,
            "midi": 69,
            "name": "A4",
            "ticks": 229270,
            "time": 259.58976338541663,
            "velocity": 0.3937007874015748
          },
          {
            "duration": 0.10869550000001027,
            "durationTicks": 96,
            "midi": 26,
            "name": "D1",
            "ticks": 229270,
            "time": 259.58976338541663,
            "velocity": 0.3937007874015748
          },
          {
            "duration": 0.10869550000001027,
            "durationTicks": 96,
            "midi": 54,
            "name": "F#3",
            "ticks": 229366,
            "time": 259.69845888541664,
            "velocity": 0.3937007874015748
          },
          {
            "duration": 0.10869550000001027,
            "durationTicks": 96,
            "midi": 92,
            "name": "G#6",
            "ticks": 229366,
            "time": 259.69845888541664,
            "velocity": 0.3937007874015748
          },
          {
            "duration": 0.10869550000001027,
            "durationTicks": 96,
            "midi": 62,
            "name": "D4",
            "ticks": 229366,
            "time": 259.69845888541664,
            "velocity": 0.3937007874015748
          },
          {
            "duration": 0.10869550000001027,
            "durationTicks": 96,
            "midi": 57,
            "name": "A3",
            "ticks": 229366,
            "time": 259.69845888541664,
            "velocity": 0.3937007874015748
          },
          {
            "duration": 0.10869550000001027,
            "durationTicks": 96,
            "midi": 62,
            "name": "D4",
            "ticks": 229462,
            "time": 259.80715438541665,
            "velocity": 0.3937007874015748
          },
          {
            "duration": 0.21739100000002054,
            "durationTicks": 192,
            "midi": 76,
            "name": "E5",
            "ticks": 229462,
            "time": 259.80715438541665,
            "velocity": 0.3937007874015748
          },
          {
            "duration": 0.10869550000001027,
            "durationTicks": 96,
            "midi": 57,
            "name": "A3",
            "ticks": 229462,
            "time": 259.80715438541665,
            "velocity": 0.3937007874015748
          },
          {
            "duration": 0.21739100000002054,
            "durationTicks": 192,
            "midi": 71,
            "name": "B4",
            "ticks": 229462,
            "time": 259.80715438541665,
            "velocity": 0.3937007874015748
          },
          {
            "duration": 0.10869550000001027,
            "durationTicks": 96,
            "midi": 38,
            "name": "D2",
            "ticks": 229462,
            "time": 259.80715438541665,
            "velocity": 0.3937007874015748
          },
          {
            "duration": 0.21739100000002054,
            "durationTicks": 192,
            "midi": 88,
            "name": "E6",
            "ticks": 229462,
            "time": 259.80715438541665,
            "velocity": 0.3937007874015748
          },
          {
            "duration": 0.21739100000002054,
            "durationTicks": 192,
            "midi": 83,
            "name": "B5",
            "ticks": 229462,
            "time": 259.80715438541665,
            "velocity": 0.3937007874015748
          },
          {
            "duration": 0.10869550000001027,
            "durationTicks": 96,
            "midi": 50,
            "name": "D3",
            "ticks": 229462,
            "time": 259.80715438541665,
            "velocity": 0.3937007874015748
          },
          {
            "duration": 0.10869550000001027,
            "durationTicks": 96,
            "midi": 91,
            "name": "G6",
            "ticks": 229462,
            "time": 259.80715438541665,
            "velocity": 0.3937007874015748
          },
          {
            "duration": 0.10869550000001027,
            "durationTicks": 96,
            "midi": 54,
            "name": "F#3",
            "ticks": 229462,
            "time": 259.80715438541665,
            "velocity": 0.3937007874015748
          },
          {
            "duration": 0.10869550000001027,
            "durationTicks": 96,
            "midi": 57,
            "name": "A3",
            "ticks": 229558,
            "time": 259.91584988541666,
            "velocity": 0.3937007874015748
          },
          {
            "duration": 0.10869550000001027,
            "durationTicks": 96,
            "midi": 38,
            "name": "D2",
            "ticks": 229558,
            "time": 259.91584988541666,
            "velocity": 0.3937007874015748
          },
          {
            "duration": 0.10869550000001027,
            "durationTicks": 96,
            "midi": 91,
            "name": "G6",
            "ticks": 229558,
            "time": 259.91584988541666,
            "velocity": 0.3937007874015748
          },
          {
            "duration": 0.10869550000001027,
            "durationTicks": 96,
            "midi": 50,
            "name": "D3",
            "ticks": 229558,
            "time": 259.91584988541666,
            "velocity": 0.3937007874015748
          },
          {
            "duration": 0.10869550000001027,
            "durationTicks": 96,
            "midi": 54,
            "name": "F#3",
            "ticks": 229558,
            "time": 259.91584988541666,
            "velocity": 0.3937007874015748
          },
          {
            "duration": 0.10869550000001027,
            "durationTicks": 96,
            "midi": 62,
            "name": "D4",
            "ticks": 229558,
            "time": 259.91584988541666,
            "velocity": 0.3937007874015748
          },
          {
            "duration": 0.2173909999999637,
            "durationTicks": 192,
            "midi": 79,
            "name": "G5",
            "ticks": 229654,
            "time": 260.0245453854167,
            "velocity": 0.3937007874015748
          },
          {
            "duration": 0.2173909999999637,
            "durationTicks": 192,
            "midi": 67,
            "name": "G4",
            "ticks": 229654,
            "time": 260.0245453854167,
            "velocity": 0.3937007874015748
          },
          {
            "duration": 0.2173909999999637,
            "durationTicks": 192,
            "midi": 71,
            "name": "B4",
            "ticks": 229654,
            "time": 260.0245453854167,
            "velocity": 0.3937007874015748
          },
          {
            "duration": 0.10869549999995343,
            "durationTicks": 96,
            "midi": 38,
            "name": "D2",
            "ticks": 229654,
            "time": 260.0245453854167,
            "velocity": 0.3937007874015748
          },
          {
            "duration": 0.2173909999999637,
            "durationTicks": 192,
            "midi": 35,
            "name": "B1",
            "ticks": 229654,
            "time": 260.0245453854167,
            "velocity": 0.3937007874015748
          },
          {
            "duration": 0.10869549999995343,
            "durationTicks": 96,
            "midi": 54,
            "name": "F#3",
            "ticks": 229654,
            "time": 260.0245453854167,
            "velocity": 0.3937007874015748
          },
          {
            "duration": 0.10869549999995343,
            "durationTicks": 96,
            "midi": 62,
            "name": "D4",
            "ticks": 229654,
            "time": 260.0245453854167,
            "velocity": 0.3937007874015748
          },
          {
            "duration": 0.10869549999995343,
            "durationTicks": 96,
            "midi": 26,
            "name": "D1",
            "ticks": 229654,
            "time": 260.0245453854167,
            "velocity": 0.3937007874015748
          },
          {
            "duration": 0.10869549999995343,
            "durationTicks": 96,
            "midi": 57,
            "name": "A3",
            "ticks": 229654,
            "time": 260.0245453854167,
            "velocity": 0.3937007874015748
          },
          {
            "duration": 0.2173909999999637,
            "durationTicks": 192,
            "midi": 83,
            "name": "B5",
            "ticks": 229654,
            "time": 260.0245453854167,
            "velocity": 0.3937007874015748
          },
          {
            "duration": 0.10869549999995343,
            "durationTicks": 96,
            "midi": 90,
            "name": "F#6",
            "ticks": 229654,
            "time": 260.0245453854167,
            "velocity": 0.3937007874015748
          },
          {
            "duration": 0.10869550000001027,
            "durationTicks": 96,
            "midi": 90,
            "name": "F#6",
            "ticks": 229750,
            "time": 260.1332408854166,
            "velocity": 0.3937007874015748
          },
          {
            "duration": 0.10869550000001027,
            "durationTicks": 96,
            "midi": 50,
            "name": "D3",
            "ticks": 229750,
            "time": 260.1332408854166,
            "velocity": 0.3937007874015748
          },
          {
            "duration": 0.10869550000001027,
            "durationTicks": 96,
            "midi": 57,
            "name": "A3",
            "ticks": 229750,
            "time": 260.1332408854166,
            "velocity": 0.3937007874015748
          },
          {
            "duration": 0.10869550000001027,
            "durationTicks": 96,
            "midi": 38,
            "name": "D2",
            "ticks": 229750,
            "time": 260.1332408854166,
            "velocity": 0.3937007874015748
          },
          {
            "duration": 0.10869550000001027,
            "durationTicks": 96,
            "midi": 54,
            "name": "F#3",
            "ticks": 229750,
            "time": 260.1332408854166,
            "velocity": 0.3937007874015748
          },
          {
            "duration": 0.10869550000001027,
            "durationTicks": 96,
            "midi": 62,
            "name": "D4",
            "ticks": 229750,
            "time": 260.1332408854166,
            "velocity": 0.3937007874015748
          },
          {
            "duration": 0.21739100000002054,
            "durationTicks": 192,
            "midi": 66,
            "name": "F#4",
            "ticks": 229846,
            "time": 260.24193638541664,
            "velocity": 0.3937007874015748
          },
          {
            "duration": 0.10869550000001027,
            "durationTicks": 96,
            "midi": 48,
            "name": "C3",
            "ticks": 229846,
            "time": 260.24193638541664,
            "velocity": 0.3937007874015748
          },
          {
            "duration": 0.10869550000001027,
            "durationTicks": 96,
            "midi": 62,
            "name": "D4",
            "ticks": 229846,
            "time": 260.24193638541664,
            "velocity": 0.3937007874015748
          },
          {
            "duration": 0.21739100000002054,
            "durationTicks": 192,
            "midi": 78,
            "name": "F#5",
            "ticks": 229846,
            "time": 260.24193638541664,
            "velocity": 0.3937007874015748
          },
          {
            "duration": 0.21739100000002054,
            "durationTicks": 192,
            "midi": 81,
            "name": "A5",
            "ticks": 229846,
            "time": 260.24193638541664,
            "velocity": 0.3937007874015748
          },
          {
            "duration": 0.10869550000001027,
            "durationTicks": 96,
            "midi": 89,
            "name": "F6",
            "ticks": 229846,
            "time": 260.24193638541664,
            "velocity": 0.3937007874015748
          },
          {
            "duration": 0.10869550000001027,
            "durationTicks": 96,
            "midi": 54,
            "name": "F#3",
            "ticks": 229846,
            "time": 260.24193638541664,
            "velocity": 0.3937007874015748
          },
          {
            "duration": 0.21739100000002054,
            "durationTicks": 192,
            "midi": 69,
            "name": "A4",
            "ticks": 229846,
            "time": 260.24193638541664,
            "velocity": 0.3937007874015748
          },
          {
            "duration": 0.10869550000001027,
            "durationTicks": 96,
            "midi": 36,
            "name": "C2",
            "ticks": 229846,
            "time": 260.24193638541664,
            "velocity": 0.3937007874015748
          },
          {
            "duration": 0.10869550000001027,
            "durationTicks": 96,
            "midi": 57,
            "name": "A3",
            "ticks": 229846,
            "time": 260.24193638541664,
            "velocity": 0.3937007874015748
          },
          {
            "duration": 0.10869550000001027,
            "durationTicks": 96,
            "midi": 50,
            "name": "D3",
            "ticks": 229942,
            "time": 260.35063188541665,
            "velocity": 0.3937007874015748
          },
          {
            "duration": 0.10869550000001027,
            "durationTicks": 96,
            "midi": 57,
            "name": "A3",
            "ticks": 229942,
            "time": 260.35063188541665,
            "velocity": 0.3937007874015748
          },
          {
            "duration": 0.10869550000001027,
            "durationTicks": 96,
            "midi": 38,
            "name": "D2",
            "ticks": 229942,
            "time": 260.35063188541665,
            "velocity": 0.3937007874015748
          },
          {
            "duration": 0.10869550000001027,
            "durationTicks": 96,
            "midi": 62,
            "name": "D4",
            "ticks": 229942,
            "time": 260.35063188541665,
            "velocity": 0.3937007874015748
          },
          {
            "duration": 0.10869550000001027,
            "durationTicks": 96,
            "midi": 54,
            "name": "F#3",
            "ticks": 229942,
            "time": 260.35063188541665,
            "velocity": 0.3937007874015748
          },
          {
            "duration": 0.10869550000001027,
            "durationTicks": 96,
            "midi": 89,
            "name": "F6",
            "ticks": 229942,
            "time": 260.35063188541665,
            "velocity": 0.3937007874015748
          },
          {
            "duration": 0.21739100000002054,
            "durationTicks": 192,
            "midi": 35,
            "name": "B1",
            "ticks": 230038,
            "time": 260.45932738541666,
            "velocity": 0.3937007874015748
          },
          {
            "duration": 0.21739100000002054,
            "durationTicks": 192,
            "midi": 79,
            "name": "G5",
            "ticks": 230038,
            "time": 260.45932738541666,
            "velocity": 0.3937007874015748
          },
          {
            "duration": 0.21739100000002054,
            "durationTicks": 192,
            "midi": 83,
            "name": "B5",
            "ticks": 230038,
            "time": 260.45932738541666,
            "velocity": 0.3937007874015748
          },
          {
            "duration": 0.10869550000001027,
            "durationTicks": 96,
            "midi": 26,
            "name": "D1",
            "ticks": 230038,
            "time": 260.45932738541666,
            "velocity": 0.3937007874015748
          },
          {
            "duration": 0.10869550000001027,
            "durationTicks": 96,
            "midi": 54,
            "name": "F#3",
            "ticks": 230038,
            "time": 260.45932738541666,
            "velocity": 0.3937007874015748
          },
          {
            "duration": 0.10869550000001027,
            "durationTicks": 96,
            "midi": 88,
            "name": "E6",
            "ticks": 230038,
            "time": 260.45932738541666,
            "velocity": 0.3937007874015748
          },
          {
            "duration": 0.10869550000001027,
            "durationTicks": 96,
            "midi": 62,
            "name": "D4",
            "ticks": 230038,
            "time": 260.45932738541666,
            "velocity": 0.3937007874015748
          },
          {
            "duration": 0.21739100000002054,
            "durationTicks": 192,
            "midi": 71,
            "name": "B4",
            "ticks": 230038,
            "time": 260.45932738541666,
            "velocity": 0.3937007874015748
          },
          {
            "duration": 0.10869550000001027,
            "durationTicks": 96,
            "midi": 38,
            "name": "D2",
            "ticks": 230038,
            "time": 260.45932738541666,
            "velocity": 0.3937007874015748
          },
          {
            "duration": 0.21739100000002054,
            "durationTicks": 192,
            "midi": 67,
            "name": "G4",
            "ticks": 230038,
            "time": 260.45932738541666,
            "velocity": 0.3937007874015748
          },
          {
            "duration": 0.10869550000001027,
            "durationTicks": 96,
            "midi": 57,
            "name": "A3",
            "ticks": 230038,
            "time": 260.45932738541666,
            "velocity": 0.3937007874015748
          },
          {
            "duration": 0.10869550000001027,
            "durationTicks": 96,
            "midi": 57,
            "name": "A3",
            "ticks": 230134,
            "time": 260.56802288541667,
            "velocity": 0.3937007874015748
          },
          {
            "duration": 0.10869550000001027,
            "durationTicks": 96,
            "midi": 62,
            "name": "D4",
            "ticks": 230134,
            "time": 260.56802288541667,
            "velocity": 0.3937007874015748
          },
          {
            "duration": 0.10869550000001027,
            "durationTicks": 96,
            "midi": 54,
            "name": "F#3",
            "ticks": 230134,
            "time": 260.56802288541667,
            "velocity": 0.3937007874015748
          },
          {
            "duration": 0.10869550000001027,
            "durationTicks": 96,
            "midi": 88,
            "name": "E6",
            "ticks": 230134,
            "time": 260.56802288541667,
            "velocity": 0.3937007874015748
          },
          {
            "duration": 0.10869549999995343,
            "durationTicks": 96,
            "midi": 57,
            "name": "A3",
            "ticks": 230230,
            "time": 260.6767183854167,
            "velocity": 0.3937007874015748
          },
          {
            "duration": 0.10869549999995343,
            "durationTicks": 96,
            "midi": 87,
            "name": "D#6",
            "ticks": 230230,
            "time": 260.6767183854167,
            "velocity": 0.3937007874015748
          },
          {
            "duration": 0.10869549999995343,
            "durationTicks": 96,
            "midi": 54,
            "name": "F#3",
            "ticks": 230230,
            "time": 260.6767183854167,
            "velocity": 0.3937007874015748
          },
          {
            "duration": 0.10869549999995343,
            "durationTicks": 96,
            "midi": 38,
            "name": "D2",
            "ticks": 230230,
            "time": 260.6767183854167,
            "velocity": 0.3937007874015748
          },
          {
            "duration": 0.10869549999995343,
            "durationTicks": 96,
            "midi": 62,
            "name": "D4",
            "ticks": 230230,
            "time": 260.6767183854167,
            "velocity": 0.3937007874015748
          },
          {
            "duration": 0.10869549999995343,
            "durationTicks": 96,
            "midi": 50,
            "name": "D3",
            "ticks": 230230,
            "time": 260.6767183854167,
            "velocity": 0.3937007874015748
          },
          {
            "duration": 0.10869550000001027,
            "durationTicks": 96,
            "midi": 87,
            "name": "D#6",
            "ticks": 230326,
            "time": 260.78541388541663,
            "velocity": 0.3937007874015748
          },
          {
            "duration": 0.10869550000001027,
            "durationTicks": 96,
            "midi": 57,
            "name": "A3",
            "ticks": 230326,
            "time": 260.78541388541663,
            "velocity": 0.3937007874015748
          },
          {
            "duration": 0.10869550000001027,
            "durationTicks": 96,
            "midi": 50,
            "name": "D3",
            "ticks": 230326,
            "time": 260.78541388541663,
            "velocity": 0.3937007874015748
          },
          {
            "duration": 0.10869550000001027,
            "durationTicks": 96,
            "midi": 54,
            "name": "F#3",
            "ticks": 230326,
            "time": 260.78541388541663,
            "velocity": 0.3937007874015748
          },
          {
            "duration": 0.10869550000001027,
            "durationTicks": 96,
            "midi": 38,
            "name": "D2",
            "ticks": 230326,
            "time": 260.78541388541663,
            "velocity": 0.3937007874015748
          },
          {
            "duration": 0.10869550000001027,
            "durationTicks": 96,
            "midi": 62,
            "name": "D4",
            "ticks": 230326,
            "time": 260.78541388541663,
            "velocity": 0.3937007874015748
          },
          {
            "duration": 0.21739100000002054,
            "durationTicks": 192,
            "midi": 35,
            "name": "B1",
            "ticks": 230422,
            "time": 260.89410938541664,
            "velocity": 0.3937007874015748
          },
          {
            "duration": 0.10869550000001027,
            "durationTicks": 96,
            "midi": 26,
            "name": "D1",
            "ticks": 230422,
            "time": 260.89410938541664,
            "velocity": 0.3937007874015748
          },
          {
            "duration": 0.10869550000001027,
            "durationTicks": 96,
            "midi": 86,
            "name": "D6",
            "ticks": 230422,
            "time": 260.89410938541664,
            "velocity": 0.3937007874015748
          },
          {
            "duration": 0.21739100000002054,
            "durationTicks": 192,
            "midi": 81,
            "name": "A5",
            "ticks": 230422,
            "time": 260.89410938541664,
            "velocity": 0.3937007874015748
          },
          {
            "duration": 0.21739100000002054,
            "durationTicks": 192,
            "midi": 78,
            "name": "F#5",
            "ticks": 230422,
            "time": 260.89410938541664,
            "velocity": 0.3937007874015748
          },
          {
            "duration": 0.10869550000001027,
            "durationTicks": 96,
            "midi": 38,
            "name": "D2",
            "ticks": 230422,
            "time": 260.89410938541664,
            "velocity": 0.3937007874015748
          },
          {
            "duration": 0.10869550000001027,
            "durationTicks": 96,
            "midi": 62,
            "name": "D4",
            "ticks": 230422,
            "time": 260.89410938541664,
            "velocity": 0.3937007874015748
          },
          {
            "duration": 0.10869550000001027,
            "durationTicks": 96,
            "midi": 54,
            "name": "F#3",
            "ticks": 230422,
            "time": 260.89410938541664,
            "velocity": 0.3937007874015748
          },
          {
            "duration": 0.21739100000002054,
            "durationTicks": 192,
            "midi": 66,
            "name": "F#4",
            "ticks": 230422,
            "time": 260.89410938541664,
            "velocity": 0.3937007874015748
          },
          {
            "duration": 0.10869550000001027,
            "durationTicks": 96,
            "midi": 57,
            "name": "A3",
            "ticks": 230422,
            "time": 260.89410938541664,
            "velocity": 0.3937007874015748
          },
          {
            "duration": 0.21739100000002054,
            "durationTicks": 192,
            "midi": 69,
            "name": "A4",
            "ticks": 230422,
            "time": 260.89410938541664,
            "velocity": 0.3937007874015748
          },
          {
            "duration": 0.10869550000001027,
            "durationTicks": 96,
            "midi": 38,
            "name": "D2",
            "ticks": 230518,
            "time": 261.00280488541665,
            "velocity": 0.3937007874015748
          },
          {
            "duration": 0.10869550000001027,
            "durationTicks": 96,
            "midi": 50,
            "name": "D3",
            "ticks": 230518,
            "time": 261.00280488541665,
            "velocity": 0.3937007874015748
          },
          {
            "duration": 0.10869550000001027,
            "durationTicks": 96,
            "midi": 57,
            "name": "A3",
            "ticks": 230518,
            "time": 261.00280488541665,
            "velocity": 0.3937007874015748
          },
          {
            "duration": 0.10869550000001027,
            "durationTicks": 96,
            "midi": 62,
            "name": "D4",
            "ticks": 230518,
            "time": 261.00280488541665,
            "velocity": 0.3937007874015748
          },
          {
            "duration": 0.10869550000001027,
            "durationTicks": 96,
            "midi": 86,
            "name": "D6",
            "ticks": 230518,
            "time": 261.00280488541665,
            "velocity": 0.3937007874015748
          },
          {
            "duration": 0.10869550000001027,
            "durationTicks": 96,
            "midi": 54,
            "name": "F#3",
            "ticks": 230518,
            "time": 261.00280488541665,
            "velocity": 0.3937007874015748
          },
          {
            "duration": 0.10869550000001027,
            "durationTicks": 96,
            "midi": 54,
            "name": "F#3",
            "ticks": 230614,
            "time": 261.11150038541666,
            "velocity": 0.3937007874015748
          },
          {
            "duration": 0.10869550000001027,
            "durationTicks": 96,
            "midi": 36,
            "name": "C2",
            "ticks": 230614,
            "time": 261.11150038541666,
            "velocity": 0.3937007874015748
          },
          {
            "duration": 0.10869550000001027,
            "durationTicks": 96,
            "midi": 48,
            "name": "C3",
            "ticks": 230614,
            "time": 261.11150038541666,
            "velocity": 0.3937007874015748
          },
          {
            "duration": 0.2173909999999637,
            "durationTicks": 192,
            "midi": 35,
            "name": "B1",
            "ticks": 230614,
            "time": 261.11150038541666,
            "velocity": 0.3937007874015748
          },
          {
            "duration": 0.2173909999999637,
            "durationTicks": 192,
            "midi": 67,
            "name": "G4",
            "ticks": 230614,
            "time": 261.11150038541666,
            "velocity": 0.3937007874015748
          },
          {
            "duration": 0.2173909999999637,
            "durationTicks": 192,
            "midi": 79,
            "name": "G5",
            "ticks": 230614,
            "time": 261.11150038541666,
            "velocity": 0.3937007874015748
          },
          {
            "duration": 0.2173909999999637,
            "durationTicks": 192,
            "midi": 71,
            "name": "B4",
            "ticks": 230614,
            "time": 261.11150038541666,
            "velocity": 0.3937007874015748
          },
          {
            "duration": 0.10869550000001027,
            "durationTicks": 96,
            "midi": 85,
            "name": "C#6",
            "ticks": 230614,
            "time": 261.11150038541666,
            "velocity": 0.3937007874015748
          },
          {
            "duration": 0.2173909999999637,
            "durationTicks": 192,
            "midi": 83,
            "name": "B5",
            "ticks": 230614,
            "time": 261.11150038541666,
            "velocity": 0.3937007874015748
          },
          {
            "duration": 0.10869550000001027,
            "durationTicks": 96,
            "midi": 57,
            "name": "A3",
            "ticks": 230614,
            "time": 261.11150038541666,
            "velocity": 0.3937007874015748
          },
          {
            "duration": 0.10869550000001027,
            "durationTicks": 96,
            "midi": 62,
            "name": "D4",
            "ticks": 230614,
            "time": 261.11150038541666,
            "velocity": 0.3937007874015748
          },
          {
            "duration": 0.10869549999995343,
            "durationTicks": 96,
            "midi": 38,
            "name": "D2",
            "ticks": 230710,
            "time": 261.2201958854167,
            "velocity": 0.3937007874015748
          },
          {
            "duration": 0.10869549999995343,
            "durationTicks": 96,
            "midi": 62,
            "name": "D4",
            "ticks": 230710,
            "time": 261.2201958854167,
            "velocity": 0.3937007874015748
          },
          {
            "duration": 0.10869549999995343,
            "durationTicks": 96,
            "midi": 57,
            "name": "A3",
            "ticks": 230710,
            "time": 261.2201958854167,
            "velocity": 0.3937007874015748
          },
          {
            "duration": 0.10869549999995343,
            "durationTicks": 96,
            "midi": 54,
            "name": "F#3",
            "ticks": 230710,
            "time": 261.2201958854167,
            "velocity": 0.3937007874015748
          },
          {
            "duration": 0.10869549999995343,
            "durationTicks": 96,
            "midi": 85,
            "name": "C#6",
            "ticks": 230710,
            "time": 261.2201958854167,
            "velocity": 0.3937007874015748
          },
          {
            "duration": 0.10869549999995343,
            "durationTicks": 96,
            "midi": 50,
            "name": "D3",
            "ticks": 230710,
            "time": 261.2201958854167,
            "velocity": 0.3937007874015748
          },
          {
            "duration": 0.21739100000002054,
            "durationTicks": 192,
            "midi": 66,
            "name": "F#4",
            "ticks": 230806,
            "time": 261.3288913854166,
            "velocity": 0.3937007874015748
          },
          {
            "duration": 0.10869550000001027,
            "durationTicks": 96,
            "midi": 64,
            "name": "E4",
            "ticks": 230806,
            "time": 261.3288913854166,
            "velocity": 0.3937007874015748
          },
          {
            "duration": 0.10869550000001027,
            "durationTicks": 96,
            "midi": 28,
            "name": "E1",
            "ticks": 230806,
            "time": 261.3288913854166,
            "velocity": 0.3937007874015748
          },
          {
            "duration": 0.10869550000001027,
            "durationTicks": 96,
            "midi": 40,
            "name": "E2",
            "ticks": 230806,
            "time": 261.3288913854166,
            "velocity": 0.3937007874015748
          },
          {
            "duration": 0.21739100000002054,
            "durationTicks": 192,
            "midi": 35,
            "name": "B1",
            "ticks": 230806,
            "time": 261.3288913854166,
            "velocity": 0.3937007874015748
          },
          {
            "duration": 0.21739100000002054,
            "durationTicks": 192,
            "midi": 78,
            "name": "F#5",
            "ticks": 230806,
            "time": 261.3288913854166,
            "velocity": 0.3937007874015748
          },
          {
            "duration": 0.10869550000001027,
            "durationTicks": 96,
            "midi": 59,
            "name": "B3",
            "ticks": 230806,
            "time": 261.3288913854166,
            "velocity": 0.3937007874015748
          },
          {
            "duration": 0.10869550000001027,
            "durationTicks": 96,
            "midi": 84,
            "name": "C6",
            "ticks": 230806,
            "time": 261.3288913854166,
            "velocity": 0.3937007874015748
          },
          {
            "duration": 0.10869550000001027,
            "durationTicks": 96,
            "midi": 55,
            "name": "G3",
            "ticks": 230806,
            "time": 261.3288913854166,
            "velocity": 0.3937007874015748
          },
          {
            "duration": 0.21739100000002054,
            "durationTicks": 192,
            "midi": 81,
            "name": "A5",
            "ticks": 230806,
            "time": 261.3288913854166,
            "velocity": 0.3937007874015748
          },
          {
            "duration": 0.21739100000002054,
            "durationTicks": 192,
            "midi": 69,
            "name": "A4",
            "ticks": 230806,
            "time": 261.3288913854166,
            "velocity": 0.3937007874015748
          },
          {
            "duration": 0.10869550000001027,
            "durationTicks": 96,
            "midi": 55,
            "name": "G3",
            "ticks": 230902,
            "time": 261.43758688541664,
            "velocity": 0.3937007874015748
          },
          {
            "duration": 0.10869550000001027,
            "durationTicks": 96,
            "midi": 64,
            "name": "E4",
            "ticks": 230902,
            "time": 261.43758688541664,
            "velocity": 0.3937007874015748
          },
          {
            "duration": 0.10869550000001027,
            "durationTicks": 96,
            "midi": 84,
            "name": "C6",
            "ticks": 230902,
            "time": 261.43758688541664,
            "velocity": 0.3937007874015748
          },
          {
            "duration": 0.10869550000001027,
            "durationTicks": 96,
            "midi": 59,
            "name": "B3",
            "ticks": 230902,
            "time": 261.43758688541664,
            "velocity": 0.3937007874015748
          },
          {
            "duration": 0.10869550000001027,
            "durationTicks": 96,
            "midi": 52,
            "name": "E3",
            "ticks": 230998,
            "time": 261.54628238541665,
            "velocity": 0.3937007874015748
          },
          {
            "duration": 0.10869550000001027,
            "durationTicks": 96,
            "midi": 40,
            "name": "E2",
            "ticks": 230998,
            "time": 261.54628238541665,
            "velocity": 0.3937007874015748
          },
          {
            "duration": 0.10869550000001027,
            "durationTicks": 96,
            "midi": 64,
            "name": "E4",
            "ticks": 230998,
            "time": 261.54628238541665,
            "velocity": 0.3937007874015748
          },
          {
            "duration": 0.21739100000002054,
            "durationTicks": 192,
            "midi": 67,
            "name": "G4",
            "ticks": 230998,
            "time": 261.54628238541665,
            "velocity": 0.3937007874015748
          },
          {
            "duration": 0.21739100000002054,
            "durationTicks": 192,
            "midi": 79,
            "name": "G5",
            "ticks": 230998,
            "time": 261.54628238541665,
            "velocity": 0.3937007874015748
          },
          {
            "duration": 0.10869550000001027,
            "durationTicks": 96,
            "midi": 55,
            "name": "G3",
            "ticks": 230998,
            "time": 261.54628238541665,
            "velocity": 0.3937007874015748
          },
          {
            "duration": 0.10869550000001027,
            "durationTicks": 96,
            "midi": 59,
            "name": "B3",
            "ticks": 230998,
            "time": 261.54628238541665,
            "velocity": 0.3937007874015748
          },
          {
            "duration": 0.10869550000001027,
            "durationTicks": 96,
            "midi": 83,
            "name": "B5",
            "ticks": 230998,
            "time": 261.54628238541665,
            "velocity": 0.3937007874015748
          },
          {
            "duration": 0.21739100000002054,
            "durationTicks": 192,
            "midi": 64,
            "name": "E4",
            "ticks": 230998,
            "time": 261.54628238541665,
            "velocity": 0.3937007874015748
          },
          {
            "duration": 0.21739100000002054,
            "durationTicks": 192,
            "midi": 76,
            "name": "E5",
            "ticks": 230998,
            "time": 261.54628238541665,
            "velocity": 0.3937007874015748
          },
          {
            "duration": 0.10869550000001027,
            "durationTicks": 96,
            "midi": 52,
            "name": "E3",
            "ticks": 231094,
            "time": 261.65497788541666,
            "velocity": 0.3937007874015748
          },
          {
            "duration": 0.10869550000001027,
            "durationTicks": 96,
            "midi": 40,
            "name": "E2",
            "ticks": 231094,
            "time": 261.65497788541666,
            "velocity": 0.3937007874015748
          },
          {
            "duration": 0.10869550000001027,
            "durationTicks": 96,
            "midi": 64,
            "name": "E4",
            "ticks": 231094,
            "time": 261.65497788541666,
            "velocity": 0.3937007874015748
          },
          {
            "duration": 0.10869550000001027,
            "durationTicks": 96,
            "midi": 83,
            "name": "B5",
            "ticks": 231094,
            "time": 261.65497788541666,
            "velocity": 0.3937007874015748
          },
          {
            "duration": 0.10869550000001027,
            "durationTicks": 96,
            "midi": 59,
            "name": "B3",
            "ticks": 231094,
            "time": 261.65497788541666,
            "velocity": 0.3937007874015748
          },
          {
            "duration": 0.10869550000001027,
            "durationTicks": 96,
            "midi": 55,
            "name": "G3",
            "ticks": 231094,
            "time": 261.65497788541666,
            "velocity": 0.3937007874015748
          },
          {
            "duration": 0.2173909999999637,
            "durationTicks": 192,
            "midi": 35,
            "name": "B1",
            "ticks": 231190,
            "time": 261.76367338541667,
            "velocity": 0.3937007874015748
          },
          {
            "duration": 0.2173909999999637,
            "durationTicks": 192,
            "midi": 66,
            "name": "F#4",
            "ticks": 231190,
            "time": 261.76367338541667,
            "velocity": 0.3937007874015748
          },
          {
            "duration": 0.10869550000001027,
            "durationTicks": 96,
            "midi": 28,
            "name": "E1",
            "ticks": 231190,
            "time": 261.76367338541667,
            "velocity": 0.3937007874015748
          },
          {
            "duration": 0.10869550000001027,
            "durationTicks": 96,
            "midi": 64,
            "name": "E4",
            "ticks": 231190,
            "time": 261.76367338541667,
            "velocity": 0.3937007874015748
          },
          {
            "duration": 0.10869550000001027,
            "durationTicks": 96,
            "midi": 40,
            "name": "E2",
            "ticks": 231190,
            "time": 261.76367338541667,
            "velocity": 0.3937007874015748
          },
          {
            "duration": 0.10869550000001027,
            "durationTicks": 96,
            "midi": 59,
            "name": "B3",
            "ticks": 231190,
            "time": 261.76367338541667,
            "velocity": 0.3937007874015748
          },
          {
            "duration": 0.10869550000001027,
            "durationTicks": 96,
            "midi": 82,
            "name": "A#5",
            "ticks": 231190,
            "time": 261.76367338541667,
            "velocity": 0.3937007874015748
          },
          {
            "duration": 0.10869550000001027,
            "durationTicks": 96,
            "midi": 55,
            "name": "G3",
            "ticks": 231190,
            "time": 261.76367338541667,
            "velocity": 0.3937007874015748
          },
          {
            "duration": 0.2173909999999637,
            "durationTicks": 192,
            "midi": 78,
            "name": "F#5",
            "ticks": 231190,
            "time": 261.76367338541667,
            "velocity": 0.3937007874015748
          },
          {
            "duration": 0.2173909999999637,
            "durationTicks": 192,
            "midi": 74,
            "name": "D5",
            "ticks": 231190,
            "time": 261.76367338541667,
            "velocity": 0.3937007874015748
          },
          {
            "duration": 0.2173909999999637,
            "durationTicks": 192,
            "midi": 62,
            "name": "D4",
            "ticks": 231190,
            "time": 261.76367338541667,
            "velocity": 0.3937007874015748
          },
          {
            "duration": 0.10869549999995343,
            "durationTicks": 96,
            "midi": 59,
            "name": "B3",
            "ticks": 231286,
            "time": 261.8723688854167,
            "velocity": 0.3937007874015748
          },
          {
            "duration": 0.10869549999995343,
            "durationTicks": 96,
            "midi": 55,
            "name": "G3",
            "ticks": 231286,
            "time": 261.8723688854167,
            "velocity": 0.3937007874015748
          },
          {
            "duration": 0.10869549999995343,
            "durationTicks": 96,
            "midi": 40,
            "name": "E2",
            "ticks": 231286,
            "time": 261.8723688854167,
            "velocity": 0.3937007874015748
          },
          {
            "duration": 0.10869549999995343,
            "durationTicks": 96,
            "midi": 64,
            "name": "E4",
            "ticks": 231286,
            "time": 261.8723688854167,
            "velocity": 0.3937007874015748
          },
          {
            "duration": 0.10869549999995343,
            "durationTicks": 96,
            "midi": 82,
            "name": "A#5",
            "ticks": 231286,
            "time": 261.8723688854167,
            "velocity": 0.3937007874015748
          },
          {
            "duration": 0.10869549999995343,
            "durationTicks": 96,
            "midi": 52,
            "name": "E3",
            "ticks": 231286,
            "time": 261.8723688854167,
            "velocity": 0.3937007874015748
          },
          {
            "duration": 0.10869550000001027,
            "durationTicks": 96,
            "midi": 64,
            "name": "E4",
            "ticks": 231382,
            "time": 261.98106438541663,
            "velocity": 0.3937007874015748
          },
          {
            "duration": 0.10869550000001027,
            "durationTicks": 96,
            "midi": 81,
            "name": "A5",
            "ticks": 231382,
            "time": 261.98106438541663,
            "velocity": 0.3937007874015748
          },
          {
            "duration": 0.10869550000001027,
            "durationTicks": 96,
            "midi": 38,
            "name": "D2",
            "ticks": 231382,
            "time": 261.98106438541663,
            "velocity": 0.3937007874015748
          },
          {
            "duration": 0.21739100000002054,
            "durationTicks": 192,
            "midi": 62,
            "name": "D4",
            "ticks": 231382,
            "time": 261.98106438541663,
            "velocity": 0.3937007874015748
          },
          {
            "duration": 0.10869550000001027,
            "durationTicks": 96,
            "midi": 59,
            "name": "B3",
            "ticks": 231382,
            "time": 261.98106438541663,
            "velocity": 0.3937007874015748
          },
          {
            "duration": 0.21739100000002054,
            "durationTicks": 192,
            "midi": 57,
            "name": "A3",
            "ticks": 231382,
            "time": 261.98106438541663,
            "velocity": 0.3937007874015748
          },
          {
            "duration": 0.21739100000002054,
            "durationTicks": 192,
            "midi": 69,
            "name": "A4",
            "ticks": 231382,
            "time": 261.98106438541663,
            "velocity": 0.3937007874015748
          },
          {
            "duration": 0.21739100000002054,
            "durationTicks": 192,
            "midi": 74,
            "name": "D5",
            "ticks": 231382,
            "time": 261.98106438541663,
            "velocity": 0.3937007874015748
          },
          {
            "duration": 0.10869550000001027,
            "durationTicks": 96,
            "midi": 55,
            "name": "G3",
            "ticks": 231382,
            "time": 261.98106438541663,
            "velocity": 0.3937007874015748
          },
          {
            "duration": 0.10869550000001027,
            "durationTicks": 96,
            "midi": 50,
            "name": "D3",
            "ticks": 231382,
            "time": 261.98106438541663,
            "velocity": 0.3937007874015748
          },
          {
            "duration": 0.10869550000001027,
            "durationTicks": 96,
            "midi": 55,
            "name": "G3",
            "ticks": 231478,
            "time": 262.08975988541664,
            "velocity": 0.3937007874015748
          },
          {
            "duration": 0.10869550000001027,
            "durationTicks": 96,
            "midi": 59,
            "name": "B3",
            "ticks": 231478,
            "time": 262.08975988541664,
            "velocity": 0.3937007874015748
          },
          {
            "duration": 0.10869550000001027,
            "durationTicks": 96,
            "midi": 52,
            "name": "E3",
            "ticks": 231478,
            "time": 262.08975988541664,
            "velocity": 0.3937007874015748
          },
          {
            "duration": 0.10869550000001027,
            "durationTicks": 96,
            "midi": 64,
            "name": "E4",
            "ticks": 231478,
            "time": 262.08975988541664,
            "velocity": 0.3937007874015748
          },
          {
            "duration": 0.10869550000001027,
            "durationTicks": 96,
            "midi": 40,
            "name": "E2",
            "ticks": 231478,
            "time": 262.08975988541664,
            "velocity": 0.3937007874015748
          },
          {
            "duration": 0.10869550000001027,
            "durationTicks": 96,
            "midi": 81,
            "name": "A5",
            "ticks": 231478,
            "time": 262.08975988541664,
            "velocity": 0.3937007874015748
          },
          {
            "duration": 0.10869550000001027,
            "durationTicks": 96,
            "midi": 64,
            "name": "E4",
            "ticks": 231574,
            "time": 262.19845538541665,
            "velocity": 0.3937007874015748
          },
          {
            "duration": 0.10869550000001027,
            "durationTicks": 96,
            "midi": 59,
            "name": "B3",
            "ticks": 231574,
            "time": 262.19845538541665,
            "velocity": 0.3937007874015748
          },
          {
            "duration": 0.21739100000002054,
            "durationTicks": 192,
            "midi": 64,
            "name": "E4",
            "ticks": 231574,
            "time": 262.19845538541665,
            "velocity": 0.3937007874015748
          },
          {
            "duration": 0.10869550000001027,
            "durationTicks": 96,
            "midi": 28,
            "name": "E1",
            "ticks": 231574,
            "time": 262.19845538541665,
            "velocity": 0.3937007874015748
          },
          {
            "duration": 0.10869550000001027,
            "durationTicks": 96,
            "midi": 80,
            "name": "G#5",
            "ticks": 231574,
            "time": 262.19845538541665,
            "velocity": 0.3937007874015748
          },
          {
            "duration": 0.21739100000002054,
            "durationTicks": 192,
            "midi": 59,
            "name": "B3",
            "ticks": 231574,
            "time": 262.19845538541665,
            "velocity": 0.3937007874015748
          },
          {
            "duration": 0.10869550000001027,
            "durationTicks": 96,
            "midi": 40,
            "name": "E2",
            "ticks": 231574,
            "time": 262.19845538541665,
            "velocity": 0.3937007874015748
          },
          {
            "duration": 0.21739100000002054,
            "durationTicks": 192,
            "midi": 71,
            "name": "B4",
            "ticks": 231574,
            "time": 262.19845538541665,
            "velocity": 0.3937007874015748
          },
          {
            "duration": 0.21739100000002054,
            "durationTicks": 192,
            "midi": 76,
            "name": "E5",
            "ticks": 231574,
            "time": 262.19845538541665,
            "velocity": 0.3937007874015748
          },
          {
            "duration": 0.10869550000001027,
            "durationTicks": 96,
            "midi": 55,
            "name": "G3",
            "ticks": 231574,
            "time": 262.19845538541665,
            "velocity": 0.3937007874015748
          },
          {
            "duration": 0.21739100000002054,
            "durationTicks": 192,
            "midi": 35,
            "name": "B1",
            "ticks": 231574,
            "time": 262.19845538541665,
            "velocity": 0.3937007874015748
          },
          {
            "duration": 0.10869550000001027,
            "durationTicks": 96,
            "midi": 55,
            "name": "G3",
            "ticks": 231670,
            "time": 262.30715088541666,
            "velocity": 0.3937007874015748
          },
          {
            "duration": 0.10869550000001027,
            "durationTicks": 96,
            "midi": 59,
            "name": "B3",
            "ticks": 231670,
            "time": 262.30715088541666,
            "velocity": 0.3937007874015748
          },
          {
            "duration": 0.10869550000001027,
            "durationTicks": 96,
            "midi": 80,
            "name": "G#5",
            "ticks": 231670,
            "time": 262.30715088541666,
            "velocity": 0.3937007874015748
          },
          {
            "duration": 0.10869550000001027,
            "durationTicks": 96,
            "midi": 64,
            "name": "E4",
            "ticks": 231670,
            "time": 262.30715088541666,
            "velocity": 0.3937007874015748
          },
          {
            "duration": 0.10869549999995343,
            "durationTicks": 96,
            "midi": 64,
            "name": "E4",
            "ticks": 231766,
            "time": 262.41584638541667,
            "velocity": 0.3937007874015748
          },
          {
            "duration": 0.10869549999995343,
            "durationTicks": 96,
            "midi": 52,
            "name": "E3",
            "ticks": 231766,
            "time": 262.41584638541667,
            "velocity": 0.3937007874015748
          },
          {
            "duration": 0.10869549999995343,
            "durationTicks": 96,
            "midi": 59,
            "name": "B3",
            "ticks": 231766,
            "time": 262.41584638541667,
            "velocity": 0.3937007874015748
          },
          {
            "duration": 0.10869549999995343,
            "durationTicks": 96,
            "midi": 55,
            "name": "G3",
            "ticks": 231766,
            "time": 262.41584638541667,
            "velocity": 0.3937007874015748
          },
          {
            "duration": 0.10869549999995343,
            "durationTicks": 96,
            "midi": 40,
            "name": "E2",
            "ticks": 231766,
            "time": 262.41584638541667,
            "velocity": 0.3937007874015748
          },
          {
            "duration": 0.10869549999995343,
            "durationTicks": 96,
            "midi": 79,
            "name": "G5",
            "ticks": 231766,
            "time": 262.41584638541667,
            "velocity": 0.3937007874015748
          },
          {
            "duration": 0.10869550000001027,
            "durationTicks": 96,
            "midi": 64,
            "name": "E4",
            "ticks": 231862,
            "time": 262.5245418854166,
            "velocity": 0.3937007874015748
          },
          {
            "duration": 0.10869550000001027,
            "durationTicks": 96,
            "midi": 59,
            "name": "B3",
            "ticks": 231862,
            "time": 262.5245418854166,
            "velocity": 0.3937007874015748
          },
          {
            "duration": 0.10869550000001027,
            "durationTicks": 96,
            "midi": 40,
            "name": "E2",
            "ticks": 231862,
            "time": 262.5245418854166,
            "velocity": 0.3937007874015748
          },
          {
            "duration": 0.10869550000001027,
            "durationTicks": 96,
            "midi": 55,
            "name": "G3",
            "ticks": 231862,
            "time": 262.5245418854166,
            "velocity": 0.3937007874015748
          },
          {
            "duration": 0.10869550000001027,
            "durationTicks": 96,
            "midi": 79,
            "name": "G5",
            "ticks": 231862,
            "time": 262.5245418854166,
            "velocity": 0.3937007874015748
          },
          {
            "duration": 0.10869550000001027,
            "durationTicks": 96,
            "midi": 52,
            "name": "E3",
            "ticks": 231862,
            "time": 262.5245418854166,
            "velocity": 0.3937007874015748
          },
          {
            "duration": 0.10869550000001027,
            "durationTicks": 96,
            "midi": 40,
            "name": "E2",
            "ticks": 231958,
            "time": 262.63323738541663,
            "velocity": 0.3937007874015748
          },
          {
            "duration": 0.21739100000002054,
            "durationTicks": 192,
            "midi": 69,
            "name": "A4",
            "ticks": 231958,
            "time": 262.63323738541663,
            "velocity": 0.3937007874015748
          },
          {
            "duration": 0.21739100000002054,
            "durationTicks": 192,
            "midi": 57,
            "name": "A3",
            "ticks": 231958,
            "time": 262.63323738541663,
            "velocity": 0.3937007874015748
          },
          {
            "duration": 0.21739100000002054,
            "durationTicks": 192,
            "midi": 62,
            "name": "D4",
            "ticks": 231958,
            "time": 262.63323738541663,
            "velocity": 0.3937007874015748
          },
          {
            "duration": 0.10869550000001027,
            "durationTicks": 96,
            "midi": 55,
            "name": "G3",
            "ticks": 231958,
            "time": 262.63323738541663,
            "velocity": 0.3937007874015748
          },
          {
            "duration": 0.10869550000001027,
            "durationTicks": 96,
            "midi": 35,
            "name": "B1",
            "ticks": 231958,
            "time": 262.63323738541663,
            "velocity": 0.3937007874015748
          },
          {
            "duration": 0.10869550000001027,
            "durationTicks": 96,
            "midi": 64,
            "name": "E4",
            "ticks": 231958,
            "time": 262.63323738541663,
            "velocity": 0.3937007874015748
          },
          {
            "duration": 0.10869550000001027,
            "durationTicks": 96,
            "midi": 28,
            "name": "E1",
            "ticks": 231958,
            "time": 262.63323738541663,
            "velocity": 0.3937007874015748
          },
          {
            "duration": 0.10869550000001027,
            "durationTicks": 96,
            "midi": 59,
            "name": "B3",
            "ticks": 231958,
            "time": 262.63323738541663,
            "velocity": 0.3937007874015748
          },
          {
            "duration": 0.10869550000001027,
            "durationTicks": 96,
            "midi": 78,
            "name": "F#5",
            "ticks": 231958,
            "time": 262.63323738541663,
            "velocity": 0.3937007874015748
          },
          {
            "duration": 0.21739100000002054,
            "durationTicks": 192,
            "midi": 74,
            "name": "D5",
            "ticks": 231958,
            "time": 262.63323738541663,
            "velocity": 0.3937007874015748
          },
          {
            "duration": 0.10869550000001027,
            "durationTicks": 96,
            "midi": 64,
            "name": "E4",
            "ticks": 232054,
            "time": 262.74193288541665,
            "velocity": 0.3937007874015748
          },
          {
            "duration": 0.10869550000001027,
            "durationTicks": 96,
            "midi": 59,
            "name": "B3",
            "ticks": 232054,
            "time": 262.74193288541665,
            "velocity": 0.3937007874015748
          },
          {
            "duration": 0.10869550000001027,
            "durationTicks": 96,
            "midi": 55,
            "name": "G3",
            "ticks": 232054,
            "time": 262.74193288541665,
            "velocity": 0.3937007874015748
          },
          {
            "duration": 0.10869550000001027,
            "durationTicks": 96,
            "midi": 40,
            "name": "E2",
            "ticks": 232054,
            "time": 262.74193288541665,
            "velocity": 0.3937007874015748
          },
          {
            "duration": 0.10869550000001027,
            "durationTicks": 96,
            "midi": 52,
            "name": "E3",
            "ticks": 232054,
            "time": 262.74193288541665,
            "velocity": 0.3937007874015748
          },
          {
            "duration": 0.10869550000001027,
            "durationTicks": 96,
            "midi": 35,
            "name": "B1",
            "ticks": 232054,
            "time": 262.74193288541665,
            "velocity": 0.3937007874015748
          },
          {
            "duration": 0.10869550000001027,
            "durationTicks": 96,
            "midi": 78,
            "name": "F#5",
            "ticks": 232054,
            "time": 262.74193288541665,
            "velocity": 0.3937007874015748
          },
          {
            "duration": 0.10869550000001027,
            "durationTicks": 96,
            "midi": 64,
            "name": "E4",
            "ticks": 232150,
            "time": 262.85062838541666,
            "velocity": 0.3937007874015748
          },
          {
            "duration": 0.10869550000001027,
            "durationTicks": 96,
            "midi": 59,
            "name": "B3",
            "ticks": 232150,
            "time": 262.85062838541666,
            "velocity": 0.3937007874015748
          },
          {
            "duration": 0.10869550000001027,
            "durationTicks": 96,
            "midi": 38,
            "name": "D2",
            "ticks": 232150,
            "time": 262.85062838541666,
            "velocity": 0.3937007874015748
          },
          {
            "duration": 0.10869550000001027,
            "durationTicks": 96,
            "midi": 77,
            "name": "F5",
            "ticks": 232150,
            "time": 262.85062838541666,
            "velocity": 0.3937007874015748
          },
          {
            "duration": 0.21739100000002054,
            "durationTicks": 192,
            "midi": 76,
            "name": "E5",
            "ticks": 232150,
            "time": 262.85062838541666,
            "velocity": 0.3937007874015748
          },
          {
            "duration": 0.21739100000002054,
            "durationTicks": 192,
            "midi": 64,
            "name": "E4",
            "ticks": 232150,
            "time": 262.85062838541666,
            "velocity": 0.3937007874015748
          },
          {
            "duration": 0.21739100000002054,
            "durationTicks": 192,
            "midi": 59,
            "name": "B3",
            "ticks": 232150,
            "time": 262.85062838541666,
            "velocity": 0.3937007874015748
          },
          {
            "duration": 0.10869550000001027,
            "durationTicks": 96,
            "midi": 55,
            "name": "G3",
            "ticks": 232150,
            "time": 262.85062838541666,
            "velocity": 0.3937007874015748
          },
          {
            "duration": 0.10869550000001027,
            "durationTicks": 96,
            "midi": 35,
            "name": "B1",
            "ticks": 232150,
            "time": 262.85062838541666,
            "velocity": 0.3937007874015748
          },
          {
            "duration": 0.21739100000002054,
            "durationTicks": 192,
            "midi": 71,
            "name": "B4",
            "ticks": 232150,
            "time": 262.85062838541666,
            "velocity": 0.3937007874015748
          },
          {
            "duration": 0.10869550000001027,
            "durationTicks": 96,
            "midi": 50,
            "name": "D3",
            "ticks": 232150,
            "time": 262.85062838541666,
            "velocity": 0.3937007874015748
          },
          {
            "duration": 0.10869550000001027,
            "durationTicks": 96,
            "midi": 40,
            "name": "E2",
            "ticks": 232246,
            "time": 262.95932388541667,
            "velocity": 0.3937007874015748
          },
          {
            "duration": 0.10869550000001027,
            "durationTicks": 96,
            "midi": 55,
            "name": "G3",
            "ticks": 232246,
            "time": 262.95932388541667,
            "velocity": 0.3937007874015748
          },
          {
            "duration": 0.10869550000001027,
            "durationTicks": 96,
            "midi": 59,
            "name": "B3",
            "ticks": 232246,
            "time": 262.95932388541667,
            "velocity": 0.3937007874015748
          },
          {
            "duration": 0.10869550000001027,
            "durationTicks": 96,
            "midi": 64,
            "name": "E4",
            "ticks": 232246,
            "time": 262.95932388541667,
            "velocity": 0.3937007874015748
          },
          {
            "duration": 0.10869550000001027,
            "durationTicks": 96,
            "midi": 77,
            "name": "F5",
            "ticks": 232246,
            "time": 262.95932388541667,
            "velocity": 0.3937007874015748
          },
          {
            "duration": 0.10869550000001027,
            "durationTicks": 96,
            "midi": 35,
            "name": "B1",
            "ticks": 232246,
            "time": 262.95932388541667,
            "velocity": 0.3937007874015748
          },
          {
            "duration": 0.10869550000001027,
            "durationTicks": 96,
            "midi": 52,
            "name": "E3",
            "ticks": 232246,
            "time": 262.95932388541667,
            "velocity": 0.3937007874015748
          },
          {
            "duration": 0.10869549999995343,
            "durationTicks": 96,
            "midi": 40,
            "name": "E2",
            "ticks": 232342,
            "time": 263.0680193854167,
            "velocity": 0.3937007874015748
          },
          {
            "duration": 0.10869549999995343,
            "durationTicks": 96,
            "midi": 28,
            "name": "E1",
            "ticks": 232342,
            "time": 263.0680193854167,
            "velocity": 0.3937007874015748
          },
          {
            "duration": 0.2173909999999637,
            "durationTicks": 192,
            "midi": 62,
            "name": "D4",
            "ticks": 232342,
            "time": 263.0680193854167,
            "velocity": 0.3937007874015748
          },
          {
            "duration": 0.2173909999999637,
            "durationTicks": 192,
            "midi": 66,
            "name": "F#4",
            "ticks": 232342,
            "time": 263.0680193854167,
            "velocity": 0.3937007874015748
          },
          {
            "duration": 0.10869549999995343,
            "durationTicks": 96,
            "midi": 55,
            "name": "G3",
            "ticks": 232342,
            "time": 263.0680193854167,
            "velocity": 0.3937007874015748
          },
          {
            "duration": 0.2173909999999637,
            "durationTicks": 192,
            "midi": 78,
            "name": "F#5",
            "ticks": 232342,
            "time": 263.0680193854167,
            "velocity": 0.3937007874015748
          },
          {
            "duration": 0.2173909999999637,
            "durationTicks": 192,
            "midi": 35,
            "name": "B1",
            "ticks": 232342,
            "time": 263.0680193854167,
            "velocity": 0.3937007874015748
          },
          {
            "duration": 0.10869549999995343,
            "durationTicks": 96,
            "midi": 64,
            "name": "E4",
            "ticks": 232342,
            "time": 263.0680193854167,
            "velocity": 0.3937007874015748
          },
          {
            "duration": 0.10869549999995343,
            "durationTicks": 96,
            "midi": 59,
            "name": "B3",
            "ticks": 232342,
            "time": 263.0680193854167,
            "velocity": 0.3937007874015748
          },
          {
            "duration": 0.10869549999995343,
            "durationTicks": 96,
            "midi": 76,
            "name": "E5",
            "ticks": 232342,
            "time": 263.0680193854167,
            "velocity": 0.3937007874015748
          },
          {
            "duration": 0.2173909999999637,
            "durationTicks": 192,
            "midi": 74,
            "name": "D5",
            "ticks": 232342,
            "time": 263.0680193854167,
            "velocity": 0.3937007874015748
          },
          {
            "duration": 0.10869550000001027,
            "durationTicks": 96,
            "midi": 55,
            "name": "G3",
            "ticks": 232438,
            "time": 263.17671488541663,
            "velocity": 0.3937007874015748
          },
          {
            "duration": 0.10869550000001027,
            "durationTicks": 96,
            "midi": 59,
            "name": "B3",
            "ticks": 232438,
            "time": 263.17671488541663,
            "velocity": 0.3937007874015748
          },
          {
            "duration": 0.10869550000001027,
            "durationTicks": 96,
            "midi": 64,
            "name": "E4",
            "ticks": 232438,
            "time": 263.17671488541663,
            "velocity": 0.3937007874015748
          },
          {
            "duration": 0.10869550000001027,
            "durationTicks": 96,
            "midi": 76,
            "name": "E5",
            "ticks": 232438,
            "time": 263.17671488541663,
            "velocity": 0.3937007874015748
          },
          {
            "duration": 0.10869550000001027,
            "durationTicks": 96,
            "midi": 40,
            "name": "E2",
            "ticks": 232534,
            "time": 263.28541038541664,
            "velocity": 0.3937007874015748
          },
          {
            "duration": 0.21739100000002054,
            "durationTicks": 192,
            "midi": 67,
            "name": "G4",
            "ticks": 232534,
            "time": 263.28541038541664,
            "velocity": 0.3937007874015748
          },
          {
            "duration": 0.21739100000002054,
            "durationTicks": 192,
            "midi": 76,
            "name": "E5",
            "ticks": 232534,
            "time": 263.28541038541664,
            "velocity": 0.3937007874015748
          },
          {
            "duration": 0.10869550000001027,
            "durationTicks": 96,
            "midi": 64,
            "name": "E4",
            "ticks": 232534,
            "time": 263.28541038541664,
            "velocity": 0.3937007874015748
          },
          {
            "duration": 0.10869550000001027,
            "durationTicks": 96,
            "midi": 55,
            "name": "G3",
            "ticks": 232534,
            "time": 263.28541038541664,
            "velocity": 0.3937007874015748
          },
          {
            "duration": 0.21739100000002054,
            "durationTicks": 192,
            "midi": 64,
            "name": "E4",
            "ticks": 232534,
            "time": 263.28541038541664,
            "velocity": 0.3937007874015748
          },
          {
            "duration": 0.10869550000001027,
            "durationTicks": 96,
            "midi": 52,
            "name": "E3",
            "ticks": 232534,
            "time": 263.28541038541664,
            "velocity": 0.3937007874015748
          },
          {
            "duration": 0.10869550000001027,
            "durationTicks": 96,
            "midi": 59,
            "name": "B3",
            "ticks": 232534,
            "time": 263.28541038541664,
            "velocity": 0.3937007874015748
          },
          {
            "duration": 0.10869550000001027,
            "durationTicks": 96,
            "midi": 75,
            "name": "D#5",
            "ticks": 232534,
            "time": 263.28541038541664,
            "velocity": 0.3937007874015748
          },
          {
            "duration": 0.21739100000002054,
            "durationTicks": 192,
            "midi": 79,
            "name": "G5",
            "ticks": 232534,
            "time": 263.28541038541664,
            "velocity": 0.3937007874015748
          },
          {
            "duration": 0.10869550000001027,
            "durationTicks": 96,
            "midi": 40,
            "name": "E2",
            "ticks": 232630,
            "time": 263.39410588541665,
            "velocity": 0.3937007874015748
          },
          {
            "duration": 0.10869550000001027,
            "durationTicks": 96,
            "midi": 64,
            "name": "E4",
            "ticks": 232630,
            "time": 263.39410588541665,
            "velocity": 0.3937007874015748
          },
          {
            "duration": 0.10869550000001027,
            "durationTicks": 96,
            "midi": 75,
            "name": "D#5",
            "ticks": 232630,
            "time": 263.39410588541665,
            "velocity": 0.3937007874015748
          },
          {
            "duration": 0.10869550000001027,
            "durationTicks": 96,
            "midi": 55,
            "name": "G3",
            "ticks": 232630,
            "time": 263.39410588541665,
            "velocity": 0.3937007874015748
          },
          {
            "duration": 0.10869550000001027,
            "durationTicks": 96,
            "midi": 52,
            "name": "E3",
            "ticks": 232630,
            "time": 263.39410588541665,
            "velocity": 0.3937007874015748
          },
          {
            "duration": 0.10869550000001027,
            "durationTicks": 96,
            "midi": 59,
            "name": "B3",
            "ticks": 232630,
            "time": 263.39410588541665,
            "velocity": 0.3937007874015748
          },
          {
            "duration": 0.10869550000001027,
            "durationTicks": 96,
            "midi": 74,
            "name": "D5",
            "ticks": 232726,
            "time": 263.50280138541666,
            "velocity": 0.3937007874015748
          },
          {
            "duration": 0.10869550000001027,
            "durationTicks": 96,
            "midi": 59,
            "name": "B3",
            "ticks": 232726,
            "time": 263.50280138541666,
            "velocity": 0.3937007874015748
          },
          {
            "duration": 0.10869550000001027,
            "durationTicks": 96,
            "midi": 55,
            "name": "G3",
            "ticks": 232726,
            "time": 263.50280138541666,
            "velocity": 0.3937007874015748
          },
          {
            "duration": 0.2173909999999637,
            "durationTicks": 192,
            "midi": 69,
            "name": "A4",
            "ticks": 232726,
            "time": 263.50280138541666,
            "velocity": 0.3937007874015748
          },
          {
            "duration": 0.2173909999999637,
            "durationTicks": 192,
            "midi": 35,
            "name": "B1",
            "ticks": 232726,
            "time": 263.50280138541666,
            "velocity": 0.3937007874015748
          },
          {
            "duration": 0.2173909999999637,
            "durationTicks": 192,
            "midi": 78,
            "name": "F#5",
            "ticks": 232726,
            "time": 263.50280138541666,
            "velocity": 0.3937007874015748
          },
          {
            "duration": 0.10869550000001027,
            "durationTicks": 96,
            "midi": 28,
            "name": "E1",
            "ticks": 232726,
            "time": 263.50280138541666,
            "velocity": 0.3937007874015748
          },
          {
            "duration": 0.10869550000001027,
            "durationTicks": 96,
            "midi": 64,
            "name": "E4",
            "ticks": 232726,
            "time": 263.50280138541666,
            "velocity": 0.3937007874015748
          },
          {
            "duration": 0.10869550000001027,
            "durationTicks": 96,
            "midi": 40,
            "name": "E2",
            "ticks": 232726,
            "time": 263.50280138541666,
            "velocity": 0.3937007874015748
          },
          {
            "duration": 0.2173909999999637,
            "durationTicks": 192,
            "midi": 81,
            "name": "A5",
            "ticks": 232726,
            "time": 263.50280138541666,
            "velocity": 0.3937007874015748
          },
          {
            "duration": 0.2173909999999637,
            "durationTicks": 192,
            "midi": 66,
            "name": "F#4",
            "ticks": 232726,
            "time": 263.50280138541666,
            "velocity": 0.3937007874015748
          },
          {
            "duration": 0.10869549999995343,
            "durationTicks": 96,
            "midi": 74,
            "name": "D5",
            "ticks": 232822,
            "time": 263.61149688541667,
            "velocity": 0.3937007874015748
          },
          {
            "duration": 0.10869549999995343,
            "durationTicks": 96,
            "midi": 59,
            "name": "B3",
            "ticks": 232822,
            "time": 263.61149688541667,
            "velocity": 0.3937007874015748
          },
          {
            "duration": 0.10869549999995343,
            "durationTicks": 96,
            "midi": 55,
            "name": "G3",
            "ticks": 232822,
            "time": 263.61149688541667,
            "velocity": 0.3937007874015748
          },
          {
            "duration": 0.10869549999995343,
            "durationTicks": 96,
            "midi": 52,
            "name": "E3",
            "ticks": 232822,
            "time": 263.61149688541667,
            "velocity": 0.3937007874015748
          },
          {
            "duration": 0.10869549999995343,
            "durationTicks": 96,
            "midi": 64,
            "name": "E4",
            "ticks": 232822,
            "time": 263.61149688541667,
            "velocity": 0.3937007874015748
          },
          {
            "duration": 0.10869549999995343,
            "durationTicks": 96,
            "midi": 40,
            "name": "E2",
            "ticks": 232822,
            "time": 263.61149688541667,
            "velocity": 0.3937007874015748
          },
          {
            "duration": 0.10869550000001027,
            "durationTicks": 96,
            "midi": 38,
            "name": "D2",
            "ticks": 232918,
            "time": 263.7201923854166,
            "velocity": 0.3937007874015748
          },
          {
            "duration": 0.21739100000002054,
            "durationTicks": 192,
            "midi": 67,
            "name": "G4",
            "ticks": 232918,
            "time": 263.7201923854166,
            "velocity": 0.3937007874015748
          },
          {
            "duration": 0.10869550000001027,
            "durationTicks": 96,
            "midi": 50,
            "name": "D3",
            "ticks": 232918,
            "time": 263.7201923854166,
            "velocity": 0.3937007874015748
          },
          {
            "duration": 0.21739100000002054,
            "durationTicks": 192,
            "midi": 79,
            "name": "G5",
            "ticks": 232918,
            "time": 263.7201923854166,
            "velocity": 0.3937007874015748
          },
          {
            "duration": 0.10869550000001027,
            "durationTicks": 96,
            "midi": 59,
            "name": "B3",
            "ticks": 232918,
            "time": 263.7201923854166,
            "velocity": 0.3937007874015748
          },
          {
            "duration": 0.21739100000002054,
            "durationTicks": 192,
            "midi": 83,
            "name": "B5",
            "ticks": 232918,
            "time": 263.7201923854166,
            "velocity": 0.3937007874015748
          },
          {
            "duration": 0.10869550000001027,
            "durationTicks": 96,
            "midi": 73,
            "name": "C#5",
            "ticks": 232918,
            "time": 263.7201923854166,
            "velocity": 0.3937007874015748
          },
          {
            "duration": 0.10869550000001027,
            "durationTicks": 96,
            "midi": 55,
            "name": "G3",
            "ticks": 232918,
            "time": 263.7201923854166,
            "velocity": 0.3937007874015748
          },
          {
            "duration": 0.10869550000001027,
            "durationTicks": 96,
            "midi": 64,
            "name": "E4",
            "ticks": 232918,
            "time": 263.7201923854166,
            "velocity": 0.3937007874015748
          },
          {
            "duration": 0.21739100000002054,
            "durationTicks": 192,
            "midi": 71,
            "name": "B4",
            "ticks": 232918,
            "time": 263.7201923854166,
            "velocity": 0.3937007874015748
          },
          {
            "duration": 0.10869550000001027,
            "durationTicks": 96,
            "midi": 73,
            "name": "C#5",
            "ticks": 233014,
            "time": 263.82888788541663,
            "velocity": 0.3937007874015748
          },
          {
            "duration": 0.10869550000001027,
            "durationTicks": 96,
            "midi": 55,
            "name": "G3",
            "ticks": 233014,
            "time": 263.82888788541663,
            "velocity": 0.3937007874015748
          },
          {
            "duration": 0.10869550000001027,
            "durationTicks": 96,
            "midi": 52,
            "name": "E3",
            "ticks": 233014,
            "time": 263.82888788541663,
            "velocity": 0.3937007874015748
          },
          {
            "duration": 0.10869550000001027,
            "durationTicks": 96,
            "midi": 40,
            "name": "E2",
            "ticks": 233014,
            "time": 263.82888788541663,
            "velocity": 0.3937007874015748
          },
          {
            "duration": 0.10869550000001027,
            "durationTicks": 96,
            "midi": 64,
            "name": "E4",
            "ticks": 233014,
            "time": 263.82888788541663,
            "velocity": 0.3937007874015748
          },
          {
            "duration": 0.10869550000001027,
            "durationTicks": 96,
            "midi": 59,
            "name": "B3",
            "ticks": 233014,
            "time": 263.82888788541663,
            "velocity": 0.3937007874015748
          },
          {
            "duration": 0.10869550000001027,
            "durationTicks": 96,
            "midi": 64,
            "name": "E4",
            "ticks": 233110,
            "time": 263.93758338541664,
            "velocity": 0.3937007874015748
          },
          {
            "duration": 0.21739100000002054,
            "durationTicks": 192,
            "midi": 71,
            "name": "B4",
            "ticks": 233110,
            "time": 263.93758338541664,
            "velocity": 0.3937007874015748
          },
          {
            "duration": 0.10869550000001027,
            "durationTicks": 96,
            "midi": 59,
            "name": "B3",
            "ticks": 233110,
            "time": 263.93758338541664,
            "velocity": 0.3937007874015748
          },
          {
            "duration": 0.21739100000002054,
            "durationTicks": 192,
            "midi": 64,
            "name": "E4",
            "ticks": 233110,
            "time": 263.93758338541664,
            "velocity": 0.3937007874015748
          },
          {
            "duration": 0.10869550000001027,
            "durationTicks": 96,
            "midi": 72,
            "name": "C5",
            "ticks": 233110,
            "time": 263.93758338541664,
            "velocity": 0.3937007874015748
          },
          {
            "duration": 0.10869550000001027,
            "durationTicks": 96,
            "midi": 40,
            "name": "E2",
            "ticks": 233110,
            "time": 263.93758338541664,
            "velocity": 0.3937007874015748
          },
          {
            "duration": 0.21739100000002054,
            "durationTicks": 192,
            "midi": 59,
            "name": "B3",
            "ticks": 233110,
            "time": 263.93758338541664,
            "velocity": 0.3937007874015748
          },
          {
            "duration": 0.10869550000001027,
            "durationTicks": 96,
            "midi": 52,
            "name": "E3",
            "ticks": 233110,
            "time": 263.93758338541664,
            "velocity": 0.3937007874015748
          },
          {
            "duration": 0.21739100000002054,
            "durationTicks": 192,
            "midi": 35,
            "name": "B1",
            "ticks": 233110,
            "time": 263.93758338541664,
            "velocity": 0.3937007874015748
          },
          {
            "duration": 0.10869550000001027,
            "durationTicks": 96,
            "midi": 55,
            "name": "G3",
            "ticks": 233110,
            "time": 263.93758338541664,
            "velocity": 0.3937007874015748
          },
          {
            "duration": 0.21739100000002054,
            "durationTicks": 192,
            "midi": 76,
            "name": "E5",
            "ticks": 233110,
            "time": 263.93758338541664,
            "velocity": 0.3937007874015748
          },
          {
            "duration": 0.10869550000001027,
            "durationTicks": 96,
            "midi": 55,
            "name": "G3",
            "ticks": 233206,
            "time": 264.04627888541665,
            "velocity": 0.3937007874015748
          },
          {
            "duration": 0.10869550000001027,
            "durationTicks": 96,
            "midi": 59,
            "name": "B3",
            "ticks": 233206,
            "time": 264.04627888541665,
            "velocity": 0.3937007874015748
          },
          {
            "duration": 0.10869550000001027,
            "durationTicks": 96,
            "midi": 64,
            "name": "E4",
            "ticks": 233206,
            "time": 264.04627888541665,
            "velocity": 0.3937007874015748
          },
          {
            "duration": 0.10869550000001027,
            "durationTicks": 96,
            "midi": 72,
            "name": "C5",
            "ticks": 233206,
            "time": 264.04627888541665,
            "velocity": 0.3937007874015748
          },
          {
            "duration": 0.10869550000001027,
            "durationTicks": 96,
            "midi": 64,
            "name": "E4",
            "ticks": 233302,
            "time": 264.15497438541666,
            "velocity": 0.3937007874015748
          },
          {
            "duration": 0.10869550000001027,
            "durationTicks": 96,
            "midi": 47,
            "name": "B2",
            "ticks": 233302,
            "time": 264.15497438541666,
            "velocity": 0.3937007874015748
          },
          {
            "duration": 0.10869550000001027,
            "durationTicks": 96,
            "midi": 59,
            "name": "B3",
            "ticks": 233302,
            "time": 264.15497438541666,
            "velocity": 0.3937007874015748
          },
          {
            "duration": 0.10869550000001027,
            "durationTicks": 96,
            "midi": 55,
            "name": "G3",
            "ticks": 233302,
            "time": 264.15497438541666,
            "velocity": 0.3937007874015748
          },
          {
            "duration": 0.10869550000001027,
            "durationTicks": 96,
            "midi": 71,
            "name": "B4",
            "ticks": 233302,
            "time": 264.15497438541666,
            "velocity": 0.3937007874015748
          },
          {
            "duration": 0.10869550000001027,
            "durationTicks": 96,
            "midi": 35,
            "name": "B1",
            "ticks": 233302,
            "time": 264.15497438541666,
            "velocity": 0.3937007874015748
          },
          {
            "duration": 0.10869549999995343,
            "durationTicks": 96,
            "midi": 71,
            "name": "B4",
            "ticks": 233398,
            "time": 264.2636698854167,
            "velocity": 0.3937007874015748
          },
          {
            "duration": 0.10869549999995343,
            "durationTicks": 96,
            "midi": 38,
            "name": "D2",
            "ticks": 233398,
            "time": 264.2636698854167,
            "velocity": 0.3937007874015748
          },
          {
            "duration": 0.10869549999995343,
            "durationTicks": 96,
            "midi": 59,
            "name": "B3",
            "ticks": 233398,
            "time": 264.2636698854167,
            "velocity": 0.3937007874015748
          },
          {
            "duration": 0.10869549999995343,
            "durationTicks": 96,
            "midi": 50,
            "name": "D3",
            "ticks": 233398,
            "time": 264.2636698854167,
            "velocity": 0.3937007874015748
          },
          {
            "duration": 0.10869549999995343,
            "durationTicks": 96,
            "midi": 64,
            "name": "E4",
            "ticks": 233398,
            "time": 264.2636698854167,
            "velocity": 0.3937007874015748
          },
          {
            "duration": 0.10869549999995343,
            "durationTicks": 96,
            "midi": 55,
            "name": "G3",
            "ticks": 233398,
            "time": 264.2636698854167,
            "velocity": 0.3937007874015748
          },
          {
            "duration": 0.21739100000002054,
            "durationTicks": 192,
            "midi": 67,
            "name": "G4",
            "ticks": 233494,
            "time": 264.37236538541663,
            "velocity": 0.3937007874015748
          },
          {
            "duration": 0.21739100000002054,
            "durationTicks": 192,
            "midi": 83,
            "name": "B5",
            "ticks": 233494,
            "time": 264.37236538541663,
            "velocity": 0.3937007874015748
          },
          {
            "duration": 0.10869550000001027,
            "durationTicks": 96,
            "midi": 64,
            "name": "E4",
            "ticks": 233494,
            "time": 264.37236538541663,
            "velocity": 0.3937007874015748
          },
          {
            "duration": 0.10869550000001027,
            "durationTicks": 96,
            "midi": 59,
            "name": "B3",
            "ticks": 233494,
            "time": 264.37236538541663,
            "velocity": 0.3937007874015748
          },
          {
            "duration": 0.10869550000001027,
            "durationTicks": 96,
            "midi": 55,
            "name": "G3",
            "ticks": 233494,
            "time": 264.37236538541663,
            "velocity": 0.3937007874015748
          },
          {
            "duration": 0.10869550000001027,
            "durationTicks": 96,
            "midi": 45,
            "name": "A2",
            "ticks": 233494,
            "time": 264.37236538541663,
            "velocity": 0.3937007874015748
          },
          {
            "duration": 0.21739100000002054,
            "durationTicks": 192,
            "midi": 35,
            "name": "B1",
            "ticks": 233494,
            "time": 264.37236538541663,
            "velocity": 0.3937007874015748
          },
          {
            "duration": 0.10869550000001027,
            "durationTicks": 96,
            "midi": 70,
            "name": "A#4",
            "ticks": 233494,
            "time": 264.37236538541663,
            "velocity": 0.3937007874015748
          },
          {
            "duration": 0.21739100000002054,
            "durationTicks": 192,
            "midi": 71,
            "name": "B4",
            "ticks": 233494,
            "time": 264.37236538541663,
            "velocity": 0.3937007874015748
          },
          {
            "duration": 0.10869550000001027,
            "durationTicks": 96,
            "midi": 33,
            "name": "A1",
            "ticks": 233494,
            "time": 264.37236538541663,
            "velocity": 0.3937007874015748
          },
          {
            "duration": 0.21739100000002054,
            "durationTicks": 192,
            "midi": 79,
            "name": "G5",
            "ticks": 233494,
            "time": 264.37236538541663,
            "velocity": 0.3937007874015748
          },
          {
            "duration": 0.10869550000001027,
            "durationTicks": 96,
            "midi": 64,
            "name": "E4",
            "ticks": 233590,
            "time": 264.48106088541664,
            "velocity": 0.3937007874015748
          },
          {
            "duration": 0.10869550000001027,
            "durationTicks": 96,
            "midi": 70,
            "name": "A#4",
            "ticks": 233590,
            "time": 264.48106088541664,
            "velocity": 0.3937007874015748
          },
          {
            "duration": 0.10869550000001027,
            "durationTicks": 96,
            "midi": 59,
            "name": "B3",
            "ticks": 233590,
            "time": 264.48106088541664,
            "velocity": 0.3937007874015748
          },
          {
            "duration": 0.10869550000001027,
            "durationTicks": 96,
            "midi": 55,
            "name": "G3",
            "ticks": 233590,
            "time": 264.48106088541664,
            "velocity": 0.3937007874015748
          },
          {
            "duration": 0.10869550000001027,
            "durationTicks": 96,
            "midi": 31,
            "name": "G1",
            "ticks": 233686,
            "time": 264.58975638541665,
            "velocity": 0.3937007874015748
          },
          {
            "duration": 0.21739100000002054,
            "durationTicks": 192,
            "midi": 86,
            "name": "D6",
            "ticks": 233686,
            "time": 264.58975638541665,
            "velocity": 0.3937007874015748
          },
          {
            "duration": 0.10869550000001027,
            "durationTicks": 96,
            "midi": 69,
            "name": "A4",
            "ticks": 233686,
            "time": 264.58975638541665,
            "velocity": 0.3937007874015748
          },
          {
            "duration": 0.10869550000001027,
            "durationTicks": 96,
            "midi": 59,
            "name": "B3",
            "ticks": 233686,
            "time": 264.58975638541665,
            "velocity": 0.3937007874015748
          },
          {
            "duration": 0.21739100000002054,
            "durationTicks": 192,
            "midi": 69,
            "name": "A4",
            "ticks": 233686,
            "time": 264.58975638541665,
            "velocity": 0.3937007874015748
          },
          {
            "duration": 0.10869550000001027,
            "durationTicks": 96,
            "midi": 55,
            "name": "G3",
            "ticks": 233686,
            "time": 264.58975638541665,
            "velocity": 0.3937007874015748
          },
          {
            "duration": 0.21739100000002054,
            "durationTicks": 192,
            "midi": 35,
            "name": "B1",
            "ticks": 233686,
            "time": 264.58975638541665,
            "velocity": 0.3937007874015748
          },
          {
            "duration": 0.21739100000002054,
            "durationTicks": 192,
            "midi": 81,
            "name": "A5",
            "ticks": 233686,
            "time": 264.58975638541665,
            "velocity": 0.3937007874015748
          },
          {
            "duration": 0.10869550000001027,
            "durationTicks": 96,
            "midi": 64,
            "name": "E4",
            "ticks": 233686,
            "time": 264.58975638541665,
            "velocity": 0.3937007874015748
          },
          {
            "duration": 0.21739100000002054,
            "durationTicks": 192,
            "midi": 74,
            "name": "D5",
            "ticks": 233686,
            "time": 264.58975638541665,
            "velocity": 0.3937007874015748
          },
          {
            "duration": 0.10869550000001027,
            "durationTicks": 96,
            "midi": 43,
            "name": "G2",
            "ticks": 233686,
            "time": 264.58975638541665,
            "velocity": 0.3937007874015748
          },
          {
            "duration": 0.10869550000001027,
            "durationTicks": 96,
            "midi": 59,
            "name": "B3",
            "ticks": 233782,
            "time": 264.69845188541666,
            "velocity": 0.3937007874015748
          },
          {
            "duration": 0.10869550000001027,
            "durationTicks": 96,
            "midi": 45,
            "name": "A2",
            "ticks": 233782,
            "time": 264.69845188541666,
            "velocity": 0.3937007874015748
          },
          {
            "duration": 0.10869550000001027,
            "durationTicks": 96,
            "midi": 69,
            "name": "A4",
            "ticks": 233782,
            "time": 264.69845188541666,
            "velocity": 0.3937007874015748
          },
          {
            "duration": 0.10869550000001027,
            "durationTicks": 96,
            "midi": 33,
            "name": "A1",
            "ticks": 233782,
            "time": 264.69845188541666,
            "velocity": 0.3937007874015748
          },
          {
            "duration": 0.10869550000001027,
            "durationTicks": 96,
            "midi": 55,
            "name": "G3",
            "ticks": 233782,
            "time": 264.69845188541666,
            "velocity": 0.3937007874015748
          },
          {
            "duration": 0.10869550000001027,
            "durationTicks": 96,
            "midi": 64,
            "name": "E4",
            "ticks": 233782,
            "time": 264.69845188541666,
            "velocity": 0.3937007874015748
          },
          {
            "duration": 0.2173909999999637,
            "durationTicks": 192,
            "midi": 35,
            "name": "B1",
            "ticks": 233878,
            "time": 264.80714738541667,
            "velocity": 0.3937007874015748
          },
          {
            "duration": 0.2173909999999637,
            "durationTicks": 192,
            "midi": 86,
            "name": "D6",
            "ticks": 233878,
            "time": 264.80714738541667,
            "velocity": 0.3937007874015748
          },
          {
            "duration": 0.2173909999999637,
            "durationTicks": 192,
            "midi": 69,
            "name": "A4",
            "ticks": 233878,
            "time": 264.80714738541667,
            "velocity": 0.3937007874015748
          },
          {
            "duration": 0.10869549999995343,
            "durationTicks": 96,
            "midi": 36,
            "name": "C2",
            "ticks": 233878,
            "time": 264.80714738541667,
            "velocity": 0.3937007874015748
          },
          {
            "duration": 0.10869549999995343,
            "durationTicks": 96,
            "midi": 60,
            "name": "C4",
            "ticks": 233878,
            "time": 264.80714738541667,
            "velocity": 0.3937007874015748
          },
          {
            "duration": 0.2173909999999637,
            "durationTicks": 192,
            "midi": 81,
            "name": "A5",
            "ticks": 233878,
            "time": 264.80714738541667,
            "velocity": 0.3937007874015748
          },
          {
            "duration": 0.2173909999999637,
            "durationTicks": 192,
            "midi": 74,
            "name": "D5",
            "ticks": 233878,
            "time": 264.80714738541667,
            "velocity": 0.3937007874015748
          },
          {
            "duration": 0.10869549999995343,
            "durationTicks": 96,
            "midi": 52,
            "name": "E3",
            "ticks": 233878,
            "time": 264.80714738541667,
            "velocity": 0.3937007874015748
          },
          {
            "duration": 0.10869549999995343,
            "durationTicks": 96,
            "midi": 55,
            "name": "G3",
            "ticks": 233878,
            "time": 264.80714738541667,
            "velocity": 0.3937007874015748
          },
          {
            "duration": 0.10869549999995343,
            "durationTicks": 96,
            "midi": 24,
            "name": "C1",
            "ticks": 233878,
            "time": 264.80714738541667,
            "velocity": 0.3937007874015748
          },
          {
            "duration": 0.10869550000001027,
            "durationTicks": 96,
            "midi": 60,
            "name": "C4",
            "ticks": 233974,
            "time": 264.9158428854166,
            "velocity": 0.3937007874015748
          },
          {
            "duration": 0.10869550000001027,
            "durationTicks": 96,
            "midi": 52,
            "name": "E3",
            "ticks": 233974,
            "time": 264.9158428854166,
            "velocity": 0.3937007874015748
          },
          {
            "duration": 0.10869550000001027,
            "durationTicks": 96,
            "midi": 55,
            "name": "G3",
            "ticks": 233974,
            "time": 264.9158428854166,
            "velocity": 0.3937007874015748
          },
          {
            "duration": 0.21739100000002054,
            "durationTicks": 192,
            "midi": 88,
            "name": "E6",
            "ticks": 234070,
            "time": 265.02453838541663,
            "velocity": 0.3937007874015748
          },
          {
            "duration": 0.21739100000002054,
            "durationTicks": 192,
            "midi": 76,
            "name": "E5",
            "ticks": 234070,
            "time": 265.02453838541663,
            "velocity": 0.3937007874015748
          },
          {
            "duration": 0.10869550000001027,
            "durationTicks": 96,
            "midi": 55,
            "name": "G3",
            "ticks": 234070,
            "time": 265.02453838541663,
            "velocity": 0.3937007874015748
          },
          {
            "duration": 0.21739100000002054,
            "durationTicks": 192,
            "midi": 83,
            "name": "B5",
            "ticks": 234070,
            "time": 265.02453838541663,
            "velocity": 0.3937007874015748
          },
          {
            "duration": 0.10869550000001027,
            "durationTicks": 96,
            "midi": 60,
            "name": "C4",
            "ticks": 234070,
            "time": 265.02453838541663,
            "velocity": 0.3937007874015748
          },
          {
            "duration": 0.10869550000001027,
            "durationTicks": 96,
            "midi": 52,
            "name": "E3",
            "ticks": 234070,
            "time": 265.02453838541663,
            "velocity": 0.3937007874015748
          },
          {
            "duration": 0.21739100000002054,
            "durationTicks": 192,
            "midi": 71,
            "name": "B4",
            "ticks": 234070,
            "time": 265.02453838541663,
            "velocity": 0.3937007874015748
          },
          {
            "duration": 0.10869550000001027,
            "durationTicks": 96,
            "midi": 36,
            "name": "C2",
            "ticks": 234070,
            "time": 265.02453838541663,
            "velocity": 0.3937007874015748
          },
          {
            "duration": 0.10869550000001027,
            "durationTicks": 96,
            "midi": 48,
            "name": "C3",
            "ticks": 234070,
            "time": 265.02453838541663,
            "velocity": 0.3937007874015748
          },
          {
            "duration": 0.10869550000001027,
            "durationTicks": 96,
            "midi": 60,
            "name": "C4",
            "ticks": 234166,
            "time": 265.13323388541664,
            "velocity": 0.3937007874015748
          },
          {
            "duration": 0.10869550000001027,
            "durationTicks": 96,
            "midi": 36,
            "name": "C2",
            "ticks": 234166,
            "time": 265.13323388541664,
            "velocity": 0.3937007874015748
          },
          {
            "duration": 0.10869550000001027,
            "durationTicks": 96,
            "midi": 52,
            "name": "E3",
            "ticks": 234166,
            "time": 265.13323388541664,
            "velocity": 0.3937007874015748
          },
          {
            "duration": 0.10869550000001027,
            "durationTicks": 96,
            "midi": 48,
            "name": "C3",
            "ticks": 234166,
            "time": 265.13323388541664,
            "velocity": 0.3937007874015748
          },
          {
            "duration": 0.10869550000001027,
            "durationTicks": 96,
            "midi": 55,
            "name": "G3",
            "ticks": 234166,
            "time": 265.13323388541664,
            "velocity": 0.3937007874015748
          },
          {
            "duration": 0.21739100000002054,
            "durationTicks": 192,
            "midi": 71,
            "name": "B4",
            "ticks": 234262,
            "time": 265.24192938541665,
            "velocity": 0.3937007874015748
          },
          {
            "duration": 0.10869550000001027,
            "durationTicks": 96,
            "midi": 52,
            "name": "E3",
            "ticks": 234262,
            "time": 265.24192938541665,
            "velocity": 0.3937007874015748
          },
          {
            "duration": 0.21739100000002054,
            "durationTicks": 192,
            "midi": 79,
            "name": "G5",
            "ticks": 234262,
            "time": 265.24192938541665,
            "velocity": 0.3937007874015748
          },
          {
            "duration": 0.10869550000001027,
            "durationTicks": 96,
            "midi": 36,
            "name": "C2",
            "ticks": 234262,
            "time": 265.24192938541665,
            "velocity": 0.3937007874015748
          },
          {
            "duration": 0.10869550000001027,
            "durationTicks": 96,
            "midi": 55,
            "name": "G3",
            "ticks": 234262,
            "time": 265.24192938541665,
            "velocity": 0.3937007874015748
          },
          {
            "duration": 0.21739100000002054,
            "durationTicks": 192,
            "midi": 83,
            "name": "B5",
            "ticks": 234262,
            "time": 265.24192938541665,
            "velocity": 0.3937007874015748
          },
          {
            "duration": 0.21739100000002054,
            "durationTicks": 192,
            "midi": 35,
            "name": "B1",
            "ticks": 234262,
            "time": 265.24192938541665,
            "velocity": 0.3937007874015748
          },
          {
            "duration": 0.10869550000001027,
            "durationTicks": 96,
            "midi": 24,
            "name": "C1",
            "ticks": 234262,
            "time": 265.24192938541665,
            "velocity": 0.3937007874015748
          },
          {
            "duration": 0.10869550000001027,
            "durationTicks": 96,
            "midi": 60,
            "name": "C4",
            "ticks": 234262,
            "time": 265.24192938541665,
            "velocity": 0.3937007874015748
          },
          {
            "duration": 0.21739100000002054,
            "durationTicks": 192,
            "midi": 67,
            "name": "G4",
            "ticks": 234262,
            "time": 265.24192938541665,
            "velocity": 0.3937007874015748
          },
          {
            "duration": 0.10869550000001027,
            "durationTicks": 96,
            "midi": 36,
            "name": "C2",
            "ticks": 234358,
            "time": 265.35062488541666,
            "velocity": 0.3937007874015748
          },
          {
            "duration": 0.10869550000001027,
            "durationTicks": 96,
            "midi": 48,
            "name": "C3",
            "ticks": 234358,
            "time": 265.35062488541666,
            "velocity": 0.3937007874015748
          },
          {
            "duration": 0.10869550000001027,
            "durationTicks": 96,
            "midi": 60,
            "name": "C4",
            "ticks": 234358,
            "time": 265.35062488541666,
            "velocity": 0.3937007874015748
          },
          {
            "duration": 0.10869550000001027,
            "durationTicks": 96,
            "midi": 55,
            "name": "G3",
            "ticks": 234358,
            "time": 265.35062488541666,
            "velocity": 0.3937007874015748
          },
          {
            "duration": 0.10869550000001027,
            "durationTicks": 96,
            "midi": 52,
            "name": "E3",
            "ticks": 234358,
            "time": 265.35062488541666,
            "velocity": 0.3937007874015748
          },
          {
            "duration": 0.10869549999995343,
            "durationTicks": 96,
            "midi": 47,
            "name": "B2",
            "ticks": 234454,
            "time": 265.4593203854167,
            "velocity": 0.3937007874015748
          },
          {
            "duration": 0.2173909999999637,
            "durationTicks": 192,
            "midi": 66,
            "name": "F#4",
            "ticks": 234454,
            "time": 265.4593203854167,
            "velocity": 0.3937007874015748
          },
          {
            "duration": 0.2173909999999637,
            "durationTicks": 192,
            "midi": 81,
            "name": "A5",
            "ticks": 234454,
            "time": 265.4593203854167,
            "velocity": 0.3937007874015748
          },
          {
            "duration": 0.10869549999995343,
            "durationTicks": 96,
            "midi": 55,
            "name": "G3",
            "ticks": 234454,
            "time": 265.4593203854167,
            "velocity": 0.3937007874015748
          },
          {
            "duration": 0.2173909999999637,
            "durationTicks": 192,
            "midi": 78,
            "name": "F#5",
            "ticks": 234454,
            "time": 265.4593203854167,
            "velocity": 0.3937007874015748
          },
          {
            "duration": 0.10869549999995343,
            "durationTicks": 96,
            "midi": 60,
            "name": "C4",
            "ticks": 234454,
            "time": 265.4593203854167,
            "velocity": 0.3937007874015748
          },
          {
            "duration": 0.10869549999995343,
            "durationTicks": 96,
            "midi": 35,
            "name": "B1",
            "ticks": 234454,
            "time": 265.4593203854167,
            "velocity": 0.3937007874015748
          },
          {
            "duration": 0.10869549999995343,
            "durationTicks": 96,
            "midi": 52,
            "name": "E3",
            "ticks": 234454,
            "time": 265.4593203854167,
            "velocity": 0.3937007874015748
          },
          {
            "duration": 0.2173909999999637,
            "durationTicks": 192,
            "midi": 69,
            "name": "A4",
            "ticks": 234454,
            "time": 265.4593203854167,
            "velocity": 0.3937007874015748
          },
          {
            "duration": 0.10869550000001027,
            "durationTicks": 96,
            "midi": 36,
            "name": "C2",
            "ticks": 234550,
            "time": 265.5680158854166,
            "velocity": 0.3937007874015748
          },
          {
            "duration": 0.10869550000001027,
            "durationTicks": 96,
            "midi": 60,
            "name": "C4",
            "ticks": 234550,
            "time": 265.5680158854166,
            "velocity": 0.3937007874015748
          },
          {
            "duration": 0.10869550000001027,
            "durationTicks": 96,
            "midi": 48,
            "name": "C3",
            "ticks": 234550,
            "time": 265.5680158854166,
            "velocity": 0.3937007874015748
          },
          {
            "duration": 0.10869550000001027,
            "durationTicks": 96,
            "midi": 52,
            "name": "E3",
            "ticks": 234550,
            "time": 265.5680158854166,
            "velocity": 0.3937007874015748
          },
          {
            "duration": 0.10869550000001027,
            "durationTicks": 96,
            "midi": 55,
            "name": "G3",
            "ticks": 234550,
            "time": 265.5680158854166,
            "velocity": 0.3937007874015748
          },
          {
            "duration": 0.10869550000001027,
            "durationTicks": 96,
            "midi": 36,
            "name": "C2",
            "ticks": 234646,
            "time": 265.67671138541664,
            "velocity": 0.3937007874015748
          },
          {
            "duration": 0.10869550000001027,
            "durationTicks": 96,
            "midi": 60,
            "name": "C4",
            "ticks": 234646,
            "time": 265.67671138541664,
            "velocity": 0.3937007874015748
          },
          {
            "duration": 0.10869550000001027,
            "durationTicks": 96,
            "midi": 55,
            "name": "G3",
            "ticks": 234646,
            "time": 265.67671138541664,
            "velocity": 0.3937007874015748
          },
          {
            "duration": 0.21739100000002054,
            "durationTicks": 192,
            "midi": 83,
            "name": "B5",
            "ticks": 234646,
            "time": 265.67671138541664,
            "velocity": 0.3937007874015748
          },
          {
            "duration": 0.21739100000002054,
            "durationTicks": 192,
            "midi": 71,
            "name": "B4",
            "ticks": 234646,
            "time": 265.67671138541664,
            "velocity": 0.3937007874015748
          },
          {
            "duration": 0.21739100000002054,
            "durationTicks": 192,
            "midi": 79,
            "name": "G5",
            "ticks": 234646,
            "time": 265.67671138541664,
            "velocity": 0.3937007874015748
          },
          {
            "duration": 0.10869550000001027,
            "durationTicks": 96,
            "midi": 52,
            "name": "E3",
            "ticks": 234646,
            "time": 265.67671138541664,
            "velocity": 0.3937007874015748
          },
          {
            "duration": 0.21739100000002054,
            "durationTicks": 192,
            "midi": 35,
            "name": "B1",
            "ticks": 234646,
            "time": 265.67671138541664,
            "velocity": 0.3937007874015748
          },
          {
            "duration": 0.10869550000001027,
            "durationTicks": 96,
            "midi": 24,
            "name": "C1",
            "ticks": 234646,
            "time": 265.67671138541664,
            "velocity": 0.3937007874015748
          },
          {
            "duration": 0.21739100000002054,
            "durationTicks": 192,
            "midi": 67,
            "name": "G4",
            "ticks": 234646,
            "time": 265.67671138541664,
            "velocity": 0.3937007874015748
          },
          {
            "duration": 0.10869550000001027,
            "durationTicks": 96,
            "midi": 52,
            "name": "E3",
            "ticks": 234742,
            "time": 265.78540688541665,
            "velocity": 0.3937007874015748
          },
          {
            "duration": 0.10869550000001027,
            "durationTicks": 96,
            "midi": 55,
            "name": "G3",
            "ticks": 234742,
            "time": 265.78540688541665,
            "velocity": 0.3937007874015748
          },
          {
            "duration": 0.10869550000001027,
            "durationTicks": 96,
            "midi": 60,
            "name": "C4",
            "ticks": 234742,
            "time": 265.78540688541665,
            "velocity": 0.3937007874015748
          },
          {
            "duration": 0.10869550000001027,
            "durationTicks": 96,
            "midi": 36,
            "name": "C2",
            "ticks": 234838,
            "time": 265.89410238541666,
            "velocity": 0.3937007874015748
          },
          {
            "duration": 0.10869550000001027,
            "durationTicks": 96,
            "midi": 55,
            "name": "G3",
            "ticks": 234838,
            "time": 265.89410238541666,
            "velocity": 0.3937007874015748
          },
          {
            "duration": 0.10869550000001027,
            "durationTicks": 96,
            "midi": 52,
            "name": "E3",
            "ticks": 234838,
            "time": 265.89410238541666,
            "velocity": 0.3937007874015748
          },
          {
            "duration": 0.10869550000001027,
            "durationTicks": 96,
            "midi": 48,
            "name": "C3",
            "ticks": 234838,
            "time": 265.89410238541666,
            "velocity": 0.3937007874015748
          },
          {
            "duration": 0.10869550000001027,
            "durationTicks": 96,
            "midi": 60,
            "name": "C4",
            "ticks": 234838,
            "time": 265.89410238541666,
            "velocity": 0.3937007874015748
          },
          {
            "duration": 0.10869550000001027,
            "durationTicks": 96,
            "midi": 60,
            "name": "C4",
            "ticks": 234934,
            "time": 266.00279788541667,
            "velocity": 0.3937007874015748
          },
          {
            "duration": 0.10869550000001027,
            "durationTicks": 96,
            "midi": 52,
            "name": "E3",
            "ticks": 234934,
            "time": 266.00279788541667,
            "velocity": 0.3937007874015748
          },
          {
            "duration": 0.10869550000001027,
            "durationTicks": 96,
            "midi": 55,
            "name": "G3",
            "ticks": 234934,
            "time": 266.00279788541667,
            "velocity": 0.3937007874015748
          },
          {
            "duration": 0.10869550000001027,
            "durationTicks": 96,
            "midi": 48,
            "name": "C3",
            "ticks": 234934,
            "time": 266.00279788541667,
            "velocity": 0.3937007874015748
          },
          {
            "duration": 0.10869550000001027,
            "durationTicks": 96,
            "midi": 36,
            "name": "C2",
            "ticks": 234934,
            "time": 266.00279788541667,
            "velocity": 0.3937007874015748
          },
          {
            "duration": 0.10869549999995343,
            "durationTicks": 96,
            "midi": 35,
            "name": "B1",
            "ticks": 235030,
            "time": 266.1114933854167,
            "velocity": 0.3937007874015748
          },
          {
            "duration": 0.10869549999995343,
            "durationTicks": 96,
            "midi": 55,
            "name": "G3",
            "ticks": 235030,
            "time": 266.1114933854167,
            "velocity": 0.3937007874015748
          },
          {
            "duration": 0.10869549999995343,
            "durationTicks": 96,
            "midi": 24,
            "name": "C1",
            "ticks": 235030,
            "time": 266.1114933854167,
            "velocity": 0.3937007874015748
          },
          {
            "duration": 0.10869549999995343,
            "durationTicks": 96,
            "midi": 52,
            "name": "E3",
            "ticks": 235030,
            "time": 266.1114933854167,
            "velocity": 0.3937007874015748
          },
          {
            "duration": 0.2173909999999637,
            "durationTicks": 192,
            "midi": 78,
            "name": "F#5",
            "ticks": 235030,
            "time": 266.1114933854167,
            "velocity": 0.3937007874015748
          },
          {
            "duration": 0.2173909999999637,
            "durationTicks": 192,
            "midi": 66,
            "name": "F#4",
            "ticks": 235030,
            "time": 266.1114933854167,
            "velocity": 0.3937007874015748
          },
          {
            "duration": 0.10869549999995343,
            "durationTicks": 96,
            "midi": 60,
            "name": "C4",
            "ticks": 235030,
            "time": 266.1114933854167,
            "velocity": 0.3937007874015748
          },
          {
            "duration": 0.2173909999999637,
            "durationTicks": 192,
            "midi": 81,
            "name": "A5",
            "ticks": 235030,
            "time": 266.1114933854167,
            "velocity": 0.3937007874015748
          },
          {
            "duration": 0.2173909999999637,
            "durationTicks": 192,
            "midi": 69,
            "name": "A4",
            "ticks": 235030,
            "time": 266.1114933854167,
            "velocity": 0.3937007874015748
          },
          {
            "duration": 0.10869549999995343,
            "durationTicks": 96,
            "midi": 36,
            "name": "C2",
            "ticks": 235030,
            "time": 266.1114933854167,
            "velocity": 0.3937007874015748
          },
          {
            "duration": 0.10869550000001027,
            "durationTicks": 96,
            "midi": 60,
            "name": "C4",
            "ticks": 235126,
            "time": 266.22018888541663,
            "velocity": 0.3937007874015748
          },
          {
            "duration": 0.10869550000001027,
            "durationTicks": 96,
            "midi": 35,
            "name": "B1",
            "ticks": 235126,
            "time": 266.22018888541663,
            "velocity": 0.3937007874015748
          },
          {
            "duration": 0.10869550000001027,
            "durationTicks": 96,
            "midi": 52,
            "name": "E3",
            "ticks": 235126,
            "time": 266.22018888541663,
            "velocity": 0.3937007874015748
          },
          {
            "duration": 0.10869550000001027,
            "durationTicks": 96,
            "midi": 36,
            "name": "C2",
            "ticks": 235126,
            "time": 266.22018888541663,
            "velocity": 0.3937007874015748
          },
          {
            "duration": 0.10869550000001027,
            "durationTicks": 96,
            "midi": 55,
            "name": "G3",
            "ticks": 235126,
            "time": 266.22018888541663,
            "velocity": 0.3937007874015748
          },
          {
            "duration": 0.10869550000001027,
            "durationTicks": 96,
            "midi": 48,
            "name": "C3",
            "ticks": 235126,
            "time": 266.22018888541663,
            "velocity": 0.3937007874015748
          },
          {
            "duration": 0.21739100000002054,
            "durationTicks": 192,
            "midi": 67,
            "name": "G4",
            "ticks": 235222,
            "time": 266.32888438541664,
            "velocity": 0.3937007874015748
          },
          {
            "duration": 0.21739100000002054,
            "durationTicks": 192,
            "midi": 71,
            "name": "B4",
            "ticks": 235222,
            "time": 266.32888438541664,
            "velocity": 0.3937007874015748
          },
          {
            "duration": 0.21739100000002054,
            "durationTicks": 192,
            "midi": 83,
            "name": "B5",
            "ticks": 235222,
            "time": 266.32888438541664,
            "velocity": 0.3937007874015748
          },
          {
            "duration": 0.10869550000001027,
            "durationTicks": 96,
            "midi": 52,
            "name": "E3",
            "ticks": 235222,
            "time": 266.32888438541664,
            "velocity": 0.3937007874015748
          },
          {
            "duration": 0.10869550000001027,
            "durationTicks": 96,
            "midi": 55,
            "name": "G3",
            "ticks": 235222,
            "time": 266.32888438541664,
            "velocity": 0.3937007874015748
          },
          {
            "duration": 0.10869550000001027,
            "durationTicks": 96,
            "midi": 47,
            "name": "B2",
            "ticks": 235222,
            "time": 266.32888438541664,
            "velocity": 0.3937007874015748
          },
          {
            "duration": 0.21739100000002054,
            "durationTicks": 192,
            "midi": 79,
            "name": "G5",
            "ticks": 235222,
            "time": 266.32888438541664,
            "velocity": 0.3937007874015748
          },
          {
            "duration": 0.10869550000001027,
            "durationTicks": 96,
            "midi": 35,
            "name": "B1",
            "ticks": 235222,
            "time": 266.32888438541664,
            "velocity": 0.3937007874015748
          },
          {
            "duration": 0.10869550000001027,
            "durationTicks": 96,
            "midi": 35,
            "name": "B1",
            "ticks": 235222,
            "time": 266.32888438541664,
            "velocity": 0.3937007874015748
          },
          {
            "duration": 0.10869550000001027,
            "durationTicks": 96,
            "midi": 60,
            "name": "C4",
            "ticks": 235222,
            "time": 266.32888438541664,
            "velocity": 0.3937007874015748
          },
          {
            "duration": 0.10869550000001027,
            "durationTicks": 96,
            "midi": 52,
            "name": "E3",
            "ticks": 235318,
            "time": 266.43757988541665,
            "velocity": 0.3937007874015748
          },
          {
            "duration": 0.10869550000001027,
            "durationTicks": 96,
            "midi": 35,
            "name": "B1",
            "ticks": 235318,
            "time": 266.43757988541665,
            "velocity": 0.3937007874015748
          },
          {
            "duration": 0.10869550000001027,
            "durationTicks": 96,
            "midi": 55,
            "name": "G3",
            "ticks": 235318,
            "time": 266.43757988541665,
            "velocity": 0.3937007874015748
          },
          {
            "duration": 0.10869550000001027,
            "durationTicks": 96,
            "midi": 60,
            "name": "C4",
            "ticks": 235318,
            "time": 266.43757988541665,
            "velocity": 0.3937007874015748
          },
          {
            "duration": 0.10869550000001027,
            "durationTicks": 96,
            "midi": 48,
            "name": "C3",
            "ticks": 235318,
            "time": 266.43757988541665,
            "velocity": 0.3937007874015748
          },
          {
            "duration": 0.10869550000001027,
            "durationTicks": 96,
            "midi": 36,
            "name": "C2",
            "ticks": 235318,
            "time": 266.43757988541665,
            "velocity": 0.3937007874015748
          },
          {
            "duration": 0.2173909999999637,
            "durationTicks": 192,
            "midi": 35,
            "name": "B1",
            "ticks": 235414,
            "time": 266.54627538541666,
            "velocity": 0.3937007874015748
          },
          {
            "duration": 0.2173909999999637,
            "durationTicks": 192,
            "midi": 74,
            "name": "D5",
            "ticks": 235414,
            "time": 266.54627538541666,
            "velocity": 0.3937007874015748
          },
          {
            "duration": 0.2173909999999637,
            "durationTicks": 192,
            "midi": 86,
            "name": "D6",
            "ticks": 235414,
            "time": 266.54627538541666,
            "velocity": 0.3937007874015748
          },
          {
            "duration": 0.2173909999999637,
            "durationTicks": 192,
            "midi": 81,
            "name": "A5",
            "ticks": 235414,
            "time": 266.54627538541666,
            "velocity": 0.3937007874015748
          },
          {
            "duration": 0.10869550000001027,
            "durationTicks": 96,
            "midi": 57,
            "name": "A3",
            "ticks": 235414,
            "time": 266.54627538541666,
            "velocity": 0.3937007874015748
          },
          {
            "duration": 0.2173909999999637,
            "durationTicks": 192,
            "midi": 69,
            "name": "A4",
            "ticks": 235414,
            "time": 266.54627538541666,
            "velocity": 0.3937007874015748
          },
          {
            "duration": 0.10869550000001027,
            "durationTicks": 96,
            "midi": 62,
            "name": "D4",
            "ticks": 235414,
            "time": 266.54627538541666,
            "velocity": 0.3937007874015748
          },
          {
            "duration": 0.10869550000001027,
            "durationTicks": 96,
            "midi": 26,
            "name": "D1",
            "ticks": 235414,
            "time": 266.54627538541666,
            "velocity": 0.3937007874015748
          },
          {
            "duration": 0.10869550000001027,
            "durationTicks": 96,
            "midi": 38,
            "name": "D2",
            "ticks": 235414,
            "time": 266.54627538541666,
            "velocity": 0.3937007874015748
          },
          {
            "duration": 0.10869550000001027,
            "durationTicks": 96,
            "midi": 54,
            "name": "F#3",
            "ticks": 235414,
            "time": 266.54627538541666,
            "velocity": 0.3937007874015748
          },
          {
            "duration": 0.10869549999995343,
            "durationTicks": 96,
            "midi": 57,
            "name": "A3",
            "ticks": 235510,
            "time": 266.6549708854167,
            "velocity": 0.3937007874015748
          },
          {
            "duration": 0.10869549999995343,
            "durationTicks": 96,
            "midi": 62,
            "name": "D4",
            "ticks": 235510,
            "time": 266.6549708854167,
            "velocity": 0.3937007874015748
          },
          {
            "duration": 0.10869549999995343,
            "durationTicks": 96,
            "midi": 54,
            "name": "F#3",
            "ticks": 235510,
            "time": 266.6549708854167,
            "velocity": 0.3937007874015748
          },
          {
            "duration": 0.10869550000001027,
            "durationTicks": 96,
            "midi": 38,
            "name": "D2",
            "ticks": 235606,
            "time": 266.7636663854166,
            "velocity": 0.3937007874015748
          },
          {
            "duration": 0.21739100000002054,
            "durationTicks": 192,
            "midi": 76,
            "name": "E5",
            "ticks": 235606,
            "time": 266.7636663854166,
            "velocity": 0.3937007874015748
          },
          {
            "duration": 0.21739100000002054,
            "durationTicks": 192,
            "midi": 88,
            "name": "E6",
            "ticks": 235606,
            "time": 266.7636663854166,
            "velocity": 0.3937007874015748
          },
          {
            "duration": 0.10869550000001027,
            "durationTicks": 96,
            "midi": 54,
            "name": "F#3",
            "ticks": 235606,
            "time": 266.7636663854166,
            "velocity": 0.3937007874015748
          },
          {
            "duration": 0.21739100000002054,
            "durationTicks": 192,
            "midi": 71,
            "name": "B4",
            "ticks": 235606,
            "time": 266.7636663854166,
            "velocity": 0.3937007874015748
          },
          {
            "duration": 0.10869550000001027,
            "durationTicks": 96,
            "midi": 62,
            "name": "D4",
            "ticks": 235606,
            "time": 266.7636663854166,
            "velocity": 0.3937007874015748
          },
          {
            "duration": 0.10869550000001027,
            "durationTicks": 96,
            "midi": 57,
            "name": "A3",
            "ticks": 235606,
            "time": 266.7636663854166,
            "velocity": 0.3937007874015748
          },
          {
            "duration": 0.10869550000001027,
            "durationTicks": 96,
            "midi": 50,
            "name": "D3",
            "ticks": 235606,
            "time": 266.7636663854166,
            "velocity": 0.3937007874015748
          },
          {
            "duration": 0.21739100000002054,
            "durationTicks": 192,
            "midi": 83,
            "name": "B5",
            "ticks": 235606,
            "time": 266.7636663854166,
            "velocity": 0.3937007874015748
          },
          {
            "duration": 0.10869550000001027,
            "durationTicks": 96,
            "midi": 50,
            "name": "D3",
            "ticks": 235702,
            "time": 266.87236188541664,
            "velocity": 0.3937007874015748
          },
          {
            "duration": 0.10869550000001027,
            "durationTicks": 96,
            "midi": 57,
            "name": "A3",
            "ticks": 235702,
            "time": 266.87236188541664,
            "velocity": 0.3937007874015748
          },
          {
            "duration": 0.10869550000001027,
            "durationTicks": 96,
            "midi": 38,
            "name": "D2",
            "ticks": 235702,
            "time": 266.87236188541664,
            "velocity": 0.3937007874015748
          },
          {
            "duration": 0.10869550000001027,
            "durationTicks": 96,
            "midi": 62,
            "name": "D4",
            "ticks": 235702,
            "time": 266.87236188541664,
            "velocity": 0.3937007874015748
          },
          {
            "duration": 0.10869550000001027,
            "durationTicks": 96,
            "midi": 54,
            "name": "F#3",
            "ticks": 235702,
            "time": 266.87236188541664,
            "velocity": 0.3937007874015748
          },
          {
            "duration": 0.21739100000002054,
            "durationTicks": 192,
            "midi": 79,
            "name": "G5",
            "ticks": 235798,
            "time": 266.98105738541665,
            "velocity": 0.3937007874015748
          },
          {
            "duration": 0.10869550000001027,
            "durationTicks": 96,
            "midi": 26,
            "name": "D1",
            "ticks": 235798,
            "time": 266.98105738541665,
            "velocity": 0.3937007874015748
          },
          {
            "duration": 0.21739100000002054,
            "durationTicks": 192,
            "midi": 83,
            "name": "B5",
            "ticks": 235798,
            "time": 266.98105738541665,
            "velocity": 0.3937007874015748
          },
          {
            "duration": 0.21739100000002054,
            "durationTicks": 192,
            "midi": 67,
            "name": "G4",
            "ticks": 235798,
            "time": 266.98105738541665,
            "velocity": 0.3937007874015748
          },
          {
            "duration": 0.21739100000002054,
            "durationTicks": 192,
            "midi": 35,
            "name": "B1",
            "ticks": 235798,
            "time": 266.98105738541665,
            "velocity": 0.3937007874015748
          },
          {
            "duration": 0.10869550000001027,
            "durationTicks": 96,
            "midi": 57,
            "name": "A3",
            "ticks": 235798,
            "time": 266.98105738541665,
            "velocity": 0.3937007874015748
          },
          {
            "duration": 0.10869550000001027,
            "durationTicks": 96,
            "midi": 38,
            "name": "D2",
            "ticks": 235798,
            "time": 266.98105738541665,
            "velocity": 0.3937007874015748
          },
          {
            "duration": 0.10869550000001027,
            "durationTicks": 96,
            "midi": 62,
            "name": "D4",
            "ticks": 235798,
            "time": 266.98105738541665,
            "velocity": 0.3937007874015748
          },
          {
            "duration": 0.10869550000001027,
            "durationTicks": 96,
            "midi": 54,
            "name": "F#3",
            "ticks": 235798,
            "time": 266.98105738541665,
            "velocity": 0.3937007874015748
          },
          {
            "duration": 0.21739100000002054,
            "durationTicks": 192,
            "midi": 71,
            "name": "B4",
            "ticks": 235798,
            "time": 266.98105738541665,
            "velocity": 0.3937007874015748
          },
          {
            "duration": 0.10869550000001027,
            "durationTicks": 96,
            "midi": 54,
            "name": "F#3",
            "ticks": 235894,
            "time": 267.08975288541666,
            "velocity": 0.3937007874015748
          },
          {
            "duration": 0.10869550000001027,
            "durationTicks": 96,
            "midi": 62,
            "name": "D4",
            "ticks": 235894,
            "time": 267.08975288541666,
            "velocity": 0.3937007874015748
          },
          {
            "duration": 0.10869550000001027,
            "durationTicks": 96,
            "midi": 50,
            "name": "D3",
            "ticks": 235894,
            "time": 267.08975288541666,
            "velocity": 0.3937007874015748
          },
          {
            "duration": 0.10869550000001027,
            "durationTicks": 96,
            "midi": 38,
            "name": "D2",
            "ticks": 235894,
            "time": 267.08975288541666,
            "velocity": 0.3937007874015748
          },
          {
            "duration": 0.10869550000001027,
            "durationTicks": 96,
            "midi": 57,
            "name": "A3",
            "ticks": 235894,
            "time": 267.08975288541666,
            "velocity": 0.3937007874015748
          },
          {
            "duration": 0.10869550000001027,
            "durationTicks": 96,
            "midi": 57,
            "name": "A3",
            "ticks": 235990,
            "time": 267.19844838541667,
            "velocity": 0.3937007874015748
          },
          {
            "duration": 0.2173909999999637,
            "durationTicks": 192,
            "midi": 66,
            "name": "F#4",
            "ticks": 235990,
            "time": 267.19844838541667,
            "velocity": 0.3937007874015748
          },
          {
            "duration": 0.10869550000001027,
            "durationTicks": 96,
            "midi": 36,
            "name": "C2",
            "ticks": 235990,
            "time": 267.19844838541667,
            "velocity": 0.3937007874015748
          },
          {
            "duration": 0.2173909999999637,
            "durationTicks": 192,
            "midi": 69,
            "name": "A4",
            "ticks": 235990,
            "time": 267.19844838541667,
            "velocity": 0.3937007874015748
          },
          {
            "duration": 0.10869550000001027,
            "durationTicks": 96,
            "midi": 48,
            "name": "C3",
            "ticks": 235990,
            "time": 267.19844838541667,
            "velocity": 0.3937007874015748
          },
          {
            "duration": 0.2173909999999637,
            "durationTicks": 192,
            "midi": 81,
            "name": "A5",
            "ticks": 235990,
            "time": 267.19844838541667,
            "velocity": 0.3937007874015748
          },
          {
            "duration": 0.10869550000001027,
            "durationTicks": 96,
            "midi": 54,
            "name": "F#3",
            "ticks": 235990,
            "time": 267.19844838541667,
            "velocity": 0.3937007874015748
          },
          {
            "duration": 0.2173909999999637,
            "durationTicks": 192,
            "midi": 78,
            "name": "F#5",
            "ticks": 235990,
            "time": 267.19844838541667,
            "velocity": 0.3937007874015748
          },
          {
            "duration": 0.10869550000001027,
            "durationTicks": 96,
            "midi": 62,
            "name": "D4",
            "ticks": 235990,
            "time": 267.19844838541667,
            "velocity": 0.3937007874015748
          },
          {
            "duration": 0.10869549999995343,
            "durationTicks": 96,
            "midi": 62,
            "name": "D4",
            "ticks": 236086,
            "time": 267.3071438854167,
            "velocity": 0.3937007874015748
          },
          {
            "duration": 0.10869549999995343,
            "durationTicks": 96,
            "midi": 57,
            "name": "A3",
            "ticks": 236086,
            "time": 267.3071438854167,
            "velocity": 0.3937007874015748
          },
          {
            "duration": 0.10869549999995343,
            "durationTicks": 96,
            "midi": 54,
            "name": "F#3",
            "ticks": 236086,
            "time": 267.3071438854167,
            "velocity": 0.3937007874015748
          },
          {
            "duration": 0.10869549999995343,
            "durationTicks": 96,
            "midi": 50,
            "name": "D3",
            "ticks": 236086,
            "time": 267.3071438854167,
            "velocity": 0.3937007874015748
          },
          {
            "duration": 0.10869549999995343,
            "durationTicks": 96,
            "midi": 38,
            "name": "D2",
            "ticks": 236086,
            "time": 267.3071438854167,
            "velocity": 0.3937007874015748
          },
          {
            "duration": 0.21739100000002054,
            "durationTicks": 192,
            "midi": 83,
            "name": "B5",
            "ticks": 236182,
            "time": 267.41583938541663,
            "velocity": 0.3937007874015748
          },
          {
            "duration": 0.10869550000001027,
            "durationTicks": 96,
            "midi": 62,
            "name": "D4",
            "ticks": 236182,
            "time": 267.41583938541663,
            "velocity": 0.3937007874015748
          },
          {
            "duration": 0.10869550000001027,
            "durationTicks": 96,
            "midi": 57,
            "name": "A3",
            "ticks": 236182,
            "time": 267.41583938541663,
            "velocity": 0.3937007874015748
          },
          {
            "duration": 0.21739100000002054,
            "durationTicks": 192,
            "midi": 35,
            "name": "B1",
            "ticks": 236182,
            "time": 267.41583938541663,
            "velocity": 0.3937007874015748
          },
          {
            "duration": 0.21739100000002054,
            "durationTicks": 192,
            "midi": 79,
            "name": "G5",
            "ticks": 236182,
            "time": 267.41583938541663,
            "velocity": 0.3937007874015748
          },
          {
            "duration": 0.21739100000002054,
            "durationTicks": 192,
            "midi": 67,
            "name": "G4",
            "ticks": 236182,
            "time": 267.41583938541663,
            "velocity": 0.3937007874015748
          },
          {
            "duration": 0.10869550000001027,
            "durationTicks": 96,
            "midi": 26,
            "name": "D1",
            "ticks": 236182,
            "time": 267.41583938541663,
            "velocity": 0.3937007874015748
          },
          {
            "duration": 0.10869550000001027,
            "durationTicks": 96,
            "midi": 38,
            "name": "D2",
            "ticks": 236182,
            "time": 267.41583938541663,
            "velocity": 0.3937007874015748
          },
          {
            "duration": 0.21739100000002054,
            "durationTicks": 192,
            "midi": 71,
            "name": "B4",
            "ticks": 236182,
            "time": 267.41583938541663,
            "velocity": 0.3937007874015748
          },
          {
            "duration": 0.10869550000001027,
            "durationTicks": 96,
            "midi": 54,
            "name": "F#3",
            "ticks": 236182,
            "time": 267.41583938541663,
            "velocity": 0.3937007874015748
          },
          {
            "duration": 0.10869550000001027,
            "durationTicks": 96,
            "midi": 57,
            "name": "A3",
            "ticks": 236278,
            "time": 267.52453488541664,
            "velocity": 0.3937007874015748
          },
          {
            "duration": 0.10869550000001027,
            "durationTicks": 96,
            "midi": 54,
            "name": "F#3",
            "ticks": 236278,
            "time": 267.52453488541664,
            "velocity": 0.3937007874015748
          },
          {
            "duration": 0.10869550000001027,
            "durationTicks": 96,
            "midi": 62,
            "name": "D4",
            "ticks": 236278,
            "time": 267.52453488541664,
            "velocity": 0.3937007874015748
          },
          {
            "duration": 0.10869550000001027,
            "durationTicks": 96,
            "midi": 57,
            "name": "A3",
            "ticks": 236374,
            "time": 267.63323038541665,
            "velocity": 0.3937007874015748
          },
          {
            "duration": 0.10869550000001027,
            "durationTicks": 96,
            "midi": 54,
            "name": "F#3",
            "ticks": 236374,
            "time": 267.63323038541665,
            "velocity": 0.3937007874015748
          },
          {
            "duration": 0.10869550000001027,
            "durationTicks": 96,
            "midi": 38,
            "name": "D2",
            "ticks": 236374,
            "time": 267.63323038541665,
            "velocity": 0.3937007874015748
          },
          {
            "duration": 0.10869550000001027,
            "durationTicks": 96,
            "midi": 50,
            "name": "D3",
            "ticks": 236374,
            "time": 267.63323038541665,
            "velocity": 0.3937007874015748
          },
          {
            "duration": 0.10869550000001027,
            "durationTicks": 96,
            "midi": 62,
            "name": "D4",
            "ticks": 236374,
            "time": 267.63323038541665,
            "velocity": 0.3937007874015748
          },
          {
            "duration": 0.10869550000001027,
            "durationTicks": 96,
            "midi": 50,
            "name": "D3",
            "ticks": 236470,
            "time": 267.74192588541666,
            "velocity": 0.3937007874015748
          },
          {
            "duration": 0.10869550000001027,
            "durationTicks": 96,
            "midi": 38,
            "name": "D2",
            "ticks": 236470,
            "time": 267.74192588541666,
            "velocity": 0.3937007874015748
          },
          {
            "duration": 0.10869550000001027,
            "durationTicks": 96,
            "midi": 62,
            "name": "D4",
            "ticks": 236470,
            "time": 267.74192588541666,
            "velocity": 0.3937007874015748
          },
          {
            "duration": 0.10869550000001027,
            "durationTicks": 96,
            "midi": 57,
            "name": "A3",
            "ticks": 236470,
            "time": 267.74192588541666,
            "velocity": 0.3937007874015748
          },
          {
            "duration": 0.10869550000001027,
            "durationTicks": 96,
            "midi": 54,
            "name": "F#3",
            "ticks": 236470,
            "time": 267.74192588541666,
            "velocity": 0.3937007874015748
          },
          {
            "duration": 0.2173909999999637,
            "durationTicks": 192,
            "midi": 81,
            "name": "A5",
            "ticks": 236566,
            "time": 267.8506213854167,
            "velocity": 0.3937007874015748
          },
          {
            "duration": 0.2173909999999637,
            "durationTicks": 192,
            "midi": 78,
            "name": "F#5",
            "ticks": 236566,
            "time": 267.8506213854167,
            "velocity": 0.3937007874015748
          },
          {
            "duration": 0.2173909999999637,
            "durationTicks": 192,
            "midi": 69,
            "name": "A4",
            "ticks": 236566,
            "time": 267.8506213854167,
            "velocity": 0.3937007874015748
          },
          {
            "duration": 0.10869549999995343,
            "durationTicks": 96,
            "midi": 38,
            "name": "D2",
            "ticks": 236566,
            "time": 267.8506213854167,
            "velocity": 0.3937007874015748
          },
          {
            "duration": 0.10869549999995343,
            "durationTicks": 96,
            "midi": 26,
            "name": "D1",
            "ticks": 236566,
            "time": 267.8506213854167,
            "velocity": 0.3937007874015748
          },
          {
            "duration": 0.10869549999995343,
            "durationTicks": 96,
            "midi": 54,
            "name": "F#3",
            "ticks": 236566,
            "time": 267.8506213854167,
            "velocity": 0.3937007874015748
          },
          {
            "duration": 0.2173909999999637,
            "durationTicks": 192,
            "midi": 66,
            "name": "F#4",
            "ticks": 236566,
            "time": 267.8506213854167,
            "velocity": 0.3937007874015748
          },
          {
            "duration": 0.10869549999995343,
            "durationTicks": 96,
            "midi": 57,
            "name": "A3",
            "ticks": 236566,
            "time": 267.8506213854167,
            "velocity": 0.3937007874015748
          },
          {
            "duration": 0.2173909999999637,
            "durationTicks": 192,
            "midi": 35,
            "name": "B1",
            "ticks": 236566,
            "time": 267.8506213854167,
            "velocity": 0.3937007874015748
          },
          {
            "duration": 0.10869549999995343,
            "durationTicks": 96,
            "midi": 62,
            "name": "D4",
            "ticks": 236566,
            "time": 267.8506213854167,
            "velocity": 0.3937007874015748
          },
          {
            "duration": 0.10869550000001027,
            "durationTicks": 96,
            "midi": 54,
            "name": "F#3",
            "ticks": 236662,
            "time": 267.9593168854166,
            "velocity": 0.3937007874015748
          },
          {
            "duration": 0.10869550000001027,
            "durationTicks": 96,
            "midi": 62,
            "name": "D4",
            "ticks": 236662,
            "time": 267.9593168854166,
            "velocity": 0.3937007874015748
          },
          {
            "duration": 0.10869550000001027,
            "durationTicks": 96,
            "midi": 50,
            "name": "D3",
            "ticks": 236662,
            "time": 267.9593168854166,
            "velocity": 0.3937007874015748
          },
          {
            "duration": 0.10869550000001027,
            "durationTicks": 96,
            "midi": 38,
            "name": "D2",
            "ticks": 236662,
            "time": 267.9593168854166,
            "velocity": 0.3937007874015748
          },
          {
            "duration": 0.10869550000001027,
            "durationTicks": 96,
            "midi": 57,
            "name": "A3",
            "ticks": 236662,
            "time": 267.9593168854166,
            "velocity": 0.3937007874015748
          },
          {
            "duration": 0.10869550000001027,
            "durationTicks": 96,
            "midi": 48,
            "name": "C3",
            "ticks": 236758,
            "time": 268.06801238541664,
            "velocity": 0.3937007874015748
          },
          {
            "duration": 0.21739100000002054,
            "durationTicks": 192,
            "midi": 79,
            "name": "G5",
            "ticks": 236758,
            "time": 268.06801238541664,
            "velocity": 0.3937007874015748
          },
          {
            "duration": 0.10869550000001027,
            "durationTicks": 96,
            "midi": 57,
            "name": "A3",
            "ticks": 236758,
            "time": 268.06801238541664,
            "velocity": 0.3937007874015748
          },
          {
            "duration": 0.10869550000001027,
            "durationTicks": 96,
            "midi": 62,
            "name": "D4",
            "ticks": 236758,
            "time": 268.06801238541664,
            "velocity": 0.3937007874015748
          },
          {
            "duration": 0.21739100000002054,
            "durationTicks": 192,
            "midi": 71,
            "name": "B4",
            "ticks": 236758,
            "time": 268.06801238541664,
            "velocity": 0.3937007874015748
          },
          {
            "duration": 0.10869550000001027,
            "durationTicks": 96,
            "midi": 36,
            "name": "C2",
            "ticks": 236758,
            "time": 268.06801238541664,
            "velocity": 0.3937007874015748
          },
          {
            "duration": 0.10869550000001027,
            "durationTicks": 96,
            "midi": 54,
            "name": "F#3",
            "ticks": 236758,
            "time": 268.06801238541664,
            "velocity": 0.3937007874015748
          },
          {
            "duration": 0.21739100000002054,
            "durationTicks": 192,
            "midi": 83,
            "name": "B5",
            "ticks": 236758,
            "time": 268.06801238541664,
            "velocity": 0.3937007874015748
          },
          {
            "duration": 0.21739100000002054,
            "durationTicks": 192,
            "midi": 35,
            "name": "B1",
            "ticks": 236758,
            "time": 268.06801238541664,
            "velocity": 0.3937007874015748
          },
          {
            "duration": 0.21739100000002054,
            "durationTicks": 192,
            "midi": 67,
            "name": "G4",
            "ticks": 236758,
            "time": 268.06801238541664,
            "velocity": 0.3937007874015748
          },
          {
            "duration": 0.10869550000001027,
            "durationTicks": 96,
            "midi": 38,
            "name": "D2",
            "ticks": 236854,
            "time": 268.17670788541665,
            "velocity": 0.3937007874015748
          },
          {
            "duration": 0.10869550000001027,
            "durationTicks": 96,
            "midi": 50,
            "name": "D3",
            "ticks": 236854,
            "time": 268.17670788541665,
            "velocity": 0.3937007874015748
          },
          {
            "duration": 0.10869550000001027,
            "durationTicks": 96,
            "midi": 54,
            "name": "F#3",
            "ticks": 236854,
            "time": 268.17670788541665,
            "velocity": 0.3937007874015748
          },
          {
            "duration": 0.10869550000001027,
            "durationTicks": 96,
            "midi": 62,
            "name": "D4",
            "ticks": 236854,
            "time": 268.17670788541665,
            "velocity": 0.3937007874015748
          },
          {
            "duration": 0.10869550000001027,
            "durationTicks": 96,
            "midi": 57,
            "name": "A3",
            "ticks": 236854,
            "time": 268.17670788541665,
            "velocity": 0.3937007874015748
          },
          {
            "duration": 0.10869550000001027,
            "durationTicks": 96,
            "midi": 64,
            "name": "E4",
            "ticks": 236950,
            "time": 268.28540338541666,
            "velocity": 0.3937007874015748
          },
          {
            "duration": 0.10869550000001027,
            "durationTicks": 96,
            "midi": 59,
            "name": "B3",
            "ticks": 236950,
            "time": 268.28540338541666,
            "velocity": 0.3937007874015748
          },
          {
            "duration": 0.21739100000002054,
            "durationTicks": 192,
            "midi": 81,
            "name": "A5",
            "ticks": 236950,
            "time": 268.28540338541666,
            "velocity": 0.3937007874015748
          },
          {
            "duration": 0.10869550000001027,
            "durationTicks": 96,
            "midi": 28,
            "name": "E1",
            "ticks": 236950,
            "time": 268.28540338541666,
            "velocity": 0.3937007874015748
          },
          {
            "duration": 0.10869550000001027,
            "durationTicks": 96,
            "midi": 55,
            "name": "G3",
            "ticks": 236950,
            "time": 268.28540338541666,
            "velocity": 0.3937007874015748
          },
          {
            "duration": 0.21739100000002054,
            "durationTicks": 192,
            "midi": 35,
            "name": "B1",
            "ticks": 236950,
            "time": 268.28540338541666,
            "velocity": 0.3937007874015748
          },
          {
            "duration": 0.21739100000002054,
            "durationTicks": 192,
            "midi": 69,
            "name": "A4",
            "ticks": 236950,
            "time": 268.28540338541666,
            "velocity": 0.3937007874015748
          },
          {
            "duration": 0.21739100000002054,
            "durationTicks": 192,
            "midi": 66,
            "name": "F#4",
            "ticks": 236950,
            "time": 268.28540338541666,
            "velocity": 0.3937007874015748
          },
          {
            "duration": 0.10869550000001027,
            "durationTicks": 96,
            "midi": 40,
            "name": "E2",
            "ticks": 236950,
            "time": 268.28540338541666,
            "velocity": 0.3937007874015748
          },
          {
            "duration": 0.21739100000002054,
            "durationTicks": 192,
            "midi": 78,
            "name": "F#5",
            "ticks": 236950,
            "time": 268.28540338541666,
            "velocity": 0.3937007874015748
          },
          {
            "duration": 0.10869550000001027,
            "durationTicks": 96,
            "midi": 55,
            "name": "G3",
            "ticks": 237046,
            "time": 268.39409888541667,
            "velocity": 0.3937007874015748
          },
          {
            "duration": 0.10869550000001027,
            "durationTicks": 96,
            "midi": 64,
            "name": "E4",
            "ticks": 237046,
            "time": 268.39409888541667,
            "velocity": 0.3937007874015748
          },
          {
            "duration": 0.10869550000001027,
            "durationTicks": 96,
            "midi": 59,
            "name": "B3",
            "ticks": 237046,
            "time": 268.39409888541667,
            "velocity": 0.3937007874015748
          },
          {
            "duration": 0.2173909999999637,
            "durationTicks": 192,
            "midi": 79,
            "name": "G5",
            "ticks": 237142,
            "time": 268.5027943854167,
            "velocity": 0.3937007874015748
          },
          {
            "duration": 0.10869549999995343,
            "durationTicks": 96,
            "midi": 64,
            "name": "E4",
            "ticks": 237142,
            "time": 268.5027943854167,
            "velocity": 0.3937007874015748
          },
          {
            "duration": 0.2173909999999637,
            "durationTicks": 192,
            "midi": 64,
            "name": "E4",
            "ticks": 237142,
            "time": 268.5027943854167,
            "velocity": 0.3937007874015748
          },
          {
            "duration": 0.10869549999995343,
            "durationTicks": 96,
            "midi": 40,
            "name": "E2",
            "ticks": 237142,
            "time": 268.5027943854167,
            "velocity": 0.3937007874015748
          },
          {
            "duration": 0.10869549999995343,
            "durationTicks": 96,
            "midi": 52,
            "name": "E3",
            "ticks": 237142,
            "time": 268.5027943854167,
            "velocity": 0.3937007874015748
          },
          {
            "duration": 0.10869549999995343,
            "durationTicks": 96,
            "midi": 55,
            "name": "G3",
            "ticks": 237142,
            "time": 268.5027943854167,
            "velocity": 0.3937007874015748
          },
          {
            "duration": 0.2173909999999637,
            "durationTicks": 192,
            "midi": 76,
            "name": "E5",
            "ticks": 237142,
            "time": 268.5027943854167,
            "velocity": 0.3937007874015748
          },
          {
            "duration": 0.10869549999995343,
            "durationTicks": 96,
            "midi": 59,
            "name": "B3",
            "ticks": 237142,
            "time": 268.5027943854167,
            "velocity": 0.3937007874015748
          },
          {
            "duration": 0.2173909999999637,
            "durationTicks": 192,
            "midi": 67,
            "name": "G4",
            "ticks": 237142,
            "time": 268.5027943854167,
            "velocity": 0.3937007874015748
          },
          {
            "duration": 0.10869550000001027,
            "durationTicks": 96,
            "midi": 40,
            "name": "E2",
            "ticks": 237238,
            "time": 268.61148988541663,
            "velocity": 0.3937007874015748
          },
          {
            "duration": 0.10869550000001027,
            "durationTicks": 96,
            "midi": 55,
            "name": "G3",
            "ticks": 237238,
            "time": 268.61148988541663,
            "velocity": 0.3937007874015748
          },
          {
            "duration": 0.10869550000001027,
            "durationTicks": 96,
            "midi": 52,
            "name": "E3",
            "ticks": 237238,
            "time": 268.61148988541663,
            "velocity": 0.3937007874015748
          },
          {
            "duration": 0.10869550000001027,
            "durationTicks": 96,
            "midi": 59,
            "name": "B3",
            "ticks": 237238,
            "time": 268.61148988541663,
            "velocity": 0.3937007874015748
          },
          {
            "duration": 0.10869550000001027,
            "durationTicks": 96,
            "midi": 64,
            "name": "E4",
            "ticks": 237238,
            "time": 268.61148988541663,
            "velocity": 0.3937007874015748
          },
          {
            "duration": 0.10869550000001027,
            "durationTicks": 96,
            "midi": 59,
            "name": "B3",
            "ticks": 237334,
            "time": 268.72018538541664,
            "velocity": 0.3937007874015748
          },
          {
            "duration": 0.21739100000002054,
            "durationTicks": 192,
            "midi": 35,
            "name": "B1",
            "ticks": 237334,
            "time": 268.72018538541664,
            "velocity": 0.3937007874015748
          },
          {
            "duration": 0.21739100000002054,
            "durationTicks": 192,
            "midi": 66,
            "name": "F#4",
            "ticks": 237334,
            "time": 268.72018538541664,
            "velocity": 0.3937007874015748
          },
          {
            "duration": 0.10869550000001027,
            "durationTicks": 96,
            "midi": 55,
            "name": "G3",
            "ticks": 237334,
            "time": 268.72018538541664,
            "velocity": 0.3937007874015748
          },
          {
            "duration": 0.21739100000002054,
            "durationTicks": 192,
            "midi": 74,
            "name": "D5",
            "ticks": 237334,
            "time": 268.72018538541664,
            "velocity": 0.3937007874015748
          },
          {
            "duration": 0.10869550000001027,
            "durationTicks": 96,
            "midi": 64,
            "name": "E4",
            "ticks": 237334,
            "time": 268.72018538541664,
            "velocity": 0.3937007874015748
          },
          {
            "duration": 0.21739100000002054,
            "durationTicks": 192,
            "midi": 78,
            "name": "F#5",
            "ticks": 237334,
            "time": 268.72018538541664,
            "velocity": 0.3937007874015748
          },
          {
            "duration": 0.10869550000001027,
            "durationTicks": 96,
            "midi": 40,
            "name": "E2",
            "ticks": 237334,
            "time": 268.72018538541664,
            "velocity": 0.3937007874015748
          },
          {
            "duration": 0.21739100000002054,
            "durationTicks": 192,
            "midi": 62,
            "name": "D4",
            "ticks": 237334,
            "time": 268.72018538541664,
            "velocity": 0.3937007874015748
          },
          {
            "duration": 0.10869550000001027,
            "durationTicks": 96,
            "midi": 28,
            "name": "E1",
            "ticks": 237334,
            "time": 268.72018538541664,
            "velocity": 0.3937007874015748
          },
          {
            "duration": 0.10869550000001027,
            "durationTicks": 96,
            "midi": 52,
            "name": "E3",
            "ticks": 237430,
            "time": 268.82888088541665,
            "velocity": 0.3937007874015748
          },
          {
            "duration": 0.10869550000001027,
            "durationTicks": 96,
            "midi": 55,
            "name": "G3",
            "ticks": 237430,
            "time": 268.82888088541665,
            "velocity": 0.3937007874015748
          },
          {
            "duration": 0.10869550000001027,
            "durationTicks": 96,
            "midi": 40,
            "name": "E2",
            "ticks": 237430,
            "time": 268.82888088541665,
            "velocity": 0.3937007874015748
          },
          {
            "duration": 0.10869550000001027,
            "durationTicks": 96,
            "midi": 59,
            "name": "B3",
            "ticks": 237430,
            "time": 268.82888088541665,
            "velocity": 0.3937007874015748
          },
          {
            "duration": 0.10869550000001027,
            "durationTicks": 96,
            "midi": 64,
            "name": "E4",
            "ticks": 237430,
            "time": 268.82888088541665,
            "velocity": 0.3937007874015748
          },
          {
            "duration": 0.2173909999999637,
            "durationTicks": 192,
            "midi": 69,
            "name": "A4",
            "ticks": 237526,
            "time": 268.93757638541666,
            "velocity": 0.3937007874015748
          },
          {
            "duration": 0.10869550000001027,
            "durationTicks": 96,
            "midi": 59,
            "name": "B3",
            "ticks": 237526,
            "time": 268.93757638541666,
            "velocity": 0.3937007874015748
          },
          {
            "duration": 0.10869550000001027,
            "durationTicks": 96,
            "midi": 64,
            "name": "E4",
            "ticks": 237526,
            "time": 268.93757638541666,
            "velocity": 0.3937007874015748
          },
          {
            "duration": 0.10869550000001027,
            "durationTicks": 96,
            "midi": 55,
            "name": "G3",
            "ticks": 237526,
            "time": 268.93757638541666,
            "velocity": 0.3937007874015748
          },
          {
            "duration": 0.10869550000001027,
            "durationTicks": 96,
            "midi": 50,
            "name": "D3",
            "ticks": 237526,
            "time": 268.93757638541666,
            "velocity": 0.3937007874015748
          },
          {
            "duration": 0.2173909999999637,
            "durationTicks": 192,
            "midi": 74,
            "name": "D5",
            "ticks": 237526,
            "time": 268.93757638541666,
            "velocity": 0.3937007874015748
          },
          {
            "duration": 0.2173909999999637,
            "durationTicks": 192,
            "midi": 62,
            "name": "D4",
            "ticks": 237526,
            "time": 268.93757638541666,
            "velocity": 0.3937007874015748
          },
          {
            "duration": 0.2173909999999637,
            "durationTicks": 192,
            "midi": 57,
            "name": "A3",
            "ticks": 237526,
            "time": 268.93757638541666,
            "velocity": 0.3937007874015748
          },
          {
            "duration": 0.10869550000001027,
            "durationTicks": 96,
            "midi": 38,
            "name": "D2",
            "ticks": 237526,
            "time": 268.93757638541666,
            "velocity": 0.3937007874015748
          },
          {
            "duration": 0.10869549999995343,
            "durationTicks": 96,
            "midi": 52,
            "name": "E3",
            "ticks": 237622,
            "time": 269.0462718854167,
            "velocity": 0.3937007874015748
          },
          {
            "duration": 0.10869549999995343,
            "durationTicks": 96,
            "midi": 40,
            "name": "E2",
            "ticks": 237622,
            "time": 269.0462718854167,
            "velocity": 0.3937007874015748
          },
          {
            "duration": 0.10869549999995343,
            "durationTicks": 96,
            "midi": 55,
            "name": "G3",
            "ticks": 237622,
            "time": 269.0462718854167,
            "velocity": 0.3937007874015748
          },
          {
            "duration": 0.10869549999995343,
            "durationTicks": 96,
            "midi": 64,
            "name": "E4",
            "ticks": 237622,
            "time": 269.0462718854167,
            "velocity": 0.3937007874015748
          },
          {
            "duration": 0.10869549999995343,
            "durationTicks": 96,
            "midi": 59,
            "name": "B3",
            "ticks": 237622,
            "time": 269.0462718854167,
            "velocity": 0.3937007874015748
          },
          {
            "duration": 0.10869550000001027,
            "durationTicks": 96,
            "midi": 28,
            "name": "E1",
            "ticks": 237718,
            "time": 269.1549673854166,
            "velocity": 0.3937007874015748
          },
          {
            "duration": 0.10869550000001027,
            "durationTicks": 96,
            "midi": 59,
            "name": "B3",
            "ticks": 237718,
            "time": 269.1549673854166,
            "velocity": 0.3937007874015748
          },
          {
            "duration": 0.10869550000001027,
            "durationTicks": 96,
            "midi": 64,
            "name": "E4",
            "ticks": 237718,
            "time": 269.1549673854166,
            "velocity": 0.3937007874015748
          },
          {
            "duration": 0.21739100000002054,
            "durationTicks": 192,
            "midi": 59,
            "name": "B3",
            "ticks": 237718,
            "time": 269.1549673854166,
            "velocity": 0.3937007874015748
          },
          {
            "duration": 0.21739100000002054,
            "durationTicks": 192,
            "midi": 71,
            "name": "B4",
            "ticks": 237718,
            "time": 269.1549673854166,
            "velocity": 0.3937007874015748
          },
          {
            "duration": 0.21739100000002054,
            "durationTicks": 192,
            "midi": 76,
            "name": "E5",
            "ticks": 237718,
            "time": 269.1549673854166,
            "velocity": 0.3937007874015748
          },
          {
            "duration": 0.21739100000002054,
            "durationTicks": 192,
            "midi": 35,
            "name": "B1",
            "ticks": 237718,
            "time": 269.1549673854166,
            "velocity": 0.3937007874015748
          },
          {
            "duration": 0.21739100000002054,
            "durationTicks": 192,
            "midi": 64,
            "name": "E4",
            "ticks": 237718,
            "time": 269.1549673854166,
            "velocity": 0.3937007874015748
          },
          {
            "duration": 0.10869550000001027,
            "durationTicks": 96,
            "midi": 40,
            "name": "E2",
            "ticks": 237718,
            "time": 269.1549673854166,
            "velocity": 0.3937007874015748
          },
          {
            "duration": 0.10869550000001027,
            "durationTicks": 96,
            "midi": 55,
            "name": "G3",
            "ticks": 237718,
            "time": 269.1549673854166,
            "velocity": 0.3937007874015748
          },
          {
            "duration": 0.10869550000001027,
            "durationTicks": 96,
            "midi": 64,
            "name": "E4",
            "ticks": 237814,
            "time": 269.26366288541664,
            "velocity": 0.3937007874015748
          },
          {
            "duration": 0.10869550000001027,
            "durationTicks": 96,
            "midi": 59,
            "name": "B3",
            "ticks": 237814,
            "time": 269.26366288541664,
            "velocity": 0.3937007874015748
          },
          {
            "duration": 0.10869550000001027,
            "durationTicks": 96,
            "midi": 55,
            "name": "G3",
            "ticks": 237814,
            "time": 269.26366288541664,
            "velocity": 0.3937007874015748
          },
          {
            "duration": 0.10869550000001027,
            "durationTicks": 96,
            "midi": 40,
            "name": "E2",
            "ticks": 237910,
            "time": 269.37235838541665,
            "velocity": 0.3937007874015748
          },
          {
            "duration": 0.10869550000001027,
            "durationTicks": 96,
            "midi": 52,
            "name": "E3",
            "ticks": 237910,
            "time": 269.37235838541665,
            "velocity": 0.3937007874015748
          },
          {
            "duration": 0.10869550000001027,
            "durationTicks": 96,
            "midi": 59,
            "name": "B3",
            "ticks": 237910,
            "time": 269.37235838541665,
            "velocity": 0.3937007874015748
          },
          {
            "duration": 0.10869550000001027,
            "durationTicks": 96,
            "midi": 64,
            "name": "E4",
            "ticks": 237910,
            "time": 269.37235838541665,
            "velocity": 0.3937007874015748
          },
          {
            "duration": 0.10869550000001027,
            "durationTicks": 96,
            "midi": 55,
            "name": "G3",
            "ticks": 237910,
            "time": 269.37235838541665,
            "velocity": 0.3937007874015748
          },
          {
            "duration": 0.10869550000001027,
            "durationTicks": 96,
            "midi": 55,
            "name": "G3",
            "ticks": 238006,
            "time": 269.48105388541666,
            "velocity": 0.3937007874015748
          },
          {
            "duration": 0.10869550000001027,
            "durationTicks": 96,
            "midi": 64,
            "name": "E4",
            "ticks": 238006,
            "time": 269.48105388541666,
            "velocity": 0.3937007874015748
          },
          {
            "duration": 0.10869550000001027,
            "durationTicks": 96,
            "midi": 52,
            "name": "E3",
            "ticks": 238006,
            "time": 269.48105388541666,
            "velocity": 0.3937007874015748
          },
          {
            "duration": 0.10869550000001027,
            "durationTicks": 96,
            "midi": 40,
            "name": "E2",
            "ticks": 238006,
            "time": 269.48105388541666,
            "velocity": 0.3937007874015748
          },
          {
            "duration": 0.10869550000001027,
            "durationTicks": 96,
            "midi": 59,
            "name": "B3",
            "ticks": 238006,
            "time": 269.48105388541666,
            "velocity": 0.3937007874015748
          },
          {
            "duration": 0.10869550000001027,
            "durationTicks": 96,
            "midi": 55,
            "name": "G3",
            "ticks": 238102,
            "time": 269.58974938541667,
            "velocity": 0.3937007874015748
          },
          {
            "duration": 0.10869550000001027,
            "durationTicks": 96,
            "midi": 59,
            "name": "B3",
            "ticks": 238102,
            "time": 269.58974938541667,
            "velocity": 0.3937007874015748
          },
          {
            "duration": 0.2173909999999637,
            "durationTicks": 192,
            "midi": 69,
            "name": "A4",
            "ticks": 238102,
            "time": 269.58974938541667,
            "velocity": 0.3937007874015748
          },
          {
            "duration": 0.10869550000001027,
            "durationTicks": 96,
            "midi": 40,
            "name": "E2",
            "ticks": 238102,
            "time": 269.58974938541667,
            "velocity": 0.3937007874015748
          },
          {
            "duration": 0.2173909999999637,
            "durationTicks": 192,
            "midi": 74,
            "name": "D5",
            "ticks": 238102,
            "time": 269.58974938541667,
            "velocity": 0.3937007874015748
          },
          {
            "duration": 0.2173909999999637,
            "durationTicks": 192,
            "midi": 57,
            "name": "A3",
            "ticks": 238102,
            "time": 269.58974938541667,
            "velocity": 0.3937007874015748
          },
          {
            "duration": 0.2173909999999637,
            "durationTicks": 192,
            "midi": 62,
            "name": "D4",
            "ticks": 238102,
            "time": 269.58974938541667,
            "velocity": 0.3937007874015748
          },
          {
            "duration": 0.10869550000001027,
            "durationTicks": 96,
            "midi": 35,
            "name": "B1",
            "ticks": 238102,
            "time": 269.58974938541667,
            "velocity": 0.3937007874015748
          },
          {
            "duration": 0.10869550000001027,
            "durationTicks": 96,
            "midi": 28,
            "name": "E1",
            "ticks": 238102,
            "time": 269.58974938541667,
            "velocity": 0.3937007874015748
          },
          {
            "duration": 0.10869550000001027,
            "durationTicks": 96,
            "midi": 64,
            "name": "E4",
            "ticks": 238102,
            "time": 269.58974938541667,
            "velocity": 0.3937007874015748
          },
          {
            "duration": 0.10869549999995343,
            "durationTicks": 96,
            "midi": 40,
            "name": "E2",
            "ticks": 238198,
            "time": 269.6984448854167,
            "velocity": 0.3937007874015748
          },
          {
            "duration": 0.10869549999995343,
            "durationTicks": 96,
            "midi": 55,
            "name": "G3",
            "ticks": 238198,
            "time": 269.6984448854167,
            "velocity": 0.3937007874015748
          },
          {
            "duration": 0.10869549999995343,
            "durationTicks": 96,
            "midi": 52,
            "name": "E3",
            "ticks": 238198,
            "time": 269.6984448854167,
            "velocity": 0.3937007874015748
          },
          {
            "duration": 0.10869549999995343,
            "durationTicks": 96,
            "midi": 64,
            "name": "E4",
            "ticks": 238198,
            "time": 269.6984448854167,
            "velocity": 0.3937007874015748
          },
          {
            "duration": 0.10869549999995343,
            "durationTicks": 96,
            "midi": 35,
            "name": "B1",
            "ticks": 238198,
            "time": 269.6984448854167,
            "velocity": 0.3937007874015748
          },
          {
            "duration": 0.10869549999995343,
            "durationTicks": 96,
            "midi": 59,
            "name": "B3",
            "ticks": 238198,
            "time": 269.6984448854167,
            "velocity": 0.3937007874015748
          },
          {
            "duration": 0.10869550000001027,
            "durationTicks": 96,
            "midi": 55,
            "name": "G3",
            "ticks": 238294,
            "time": 269.80714038541663,
            "velocity": 0.3937007874015748
          },
          {
            "duration": 0.10869550000001027,
            "durationTicks": 96,
            "midi": 64,
            "name": "E4",
            "ticks": 238294,
            "time": 269.80714038541663,
            "velocity": 0.3937007874015748
          },
          {
            "duration": 0.10869550000001027,
            "durationTicks": 96,
            "midi": 35,
            "name": "B1",
            "ticks": 238294,
            "time": 269.80714038541663,
            "velocity": 0.3937007874015748
          },
          {
            "duration": 0.10869550000001027,
            "durationTicks": 96,
            "midi": 50,
            "name": "D3",
            "ticks": 238294,
            "time": 269.80714038541663,
            "velocity": 0.3937007874015748
          },
          {
            "duration": 0.10869550000001027,
            "durationTicks": 96,
            "midi": 59,
            "name": "B3",
            "ticks": 238294,
            "time": 269.80714038541663,
            "velocity": 0.3937007874015748
          },
          {
            "duration": 0.21739100000002054,
            "durationTicks": 192,
            "midi": 76,
            "name": "E5",
            "ticks": 238294,
            "time": 269.80714038541663,
            "velocity": 0.3937007874015748
          },
          {
            "duration": 0.10869550000001027,
            "durationTicks": 96,
            "midi": 38,
            "name": "D2",
            "ticks": 238294,
            "time": 269.80714038541663,
            "velocity": 0.3937007874015748
          },
          {
            "duration": 0.21739100000002054,
            "durationTicks": 192,
            "midi": 64,
            "name": "E4",
            "ticks": 238294,
            "time": 269.80714038541663,
            "velocity": 0.3937007874015748
          },
          {
            "duration": 0.21739100000002054,
            "durationTicks": 192,
            "midi": 59,
            "name": "B3",
            "ticks": 238294,
            "time": 269.80714038541663,
            "velocity": 0.3937007874015748
          },
          {
            "duration": 0.21739100000002054,
            "durationTicks": 192,
            "midi": 71,
            "name": "B4",
            "ticks": 238294,
            "time": 269.80714038541663,
            "velocity": 0.3937007874015748
          },
          {
            "duration": 0.10869550000001027,
            "durationTicks": 96,
            "midi": 55,
            "name": "G3",
            "ticks": 238390,
            "time": 269.91583588541664,
            "velocity": 0.3937007874015748
          },
          {
            "duration": 0.10869550000001027,
            "durationTicks": 96,
            "midi": 35,
            "name": "B1",
            "ticks": 238390,
            "time": 269.91583588541664,
            "velocity": 0.3937007874015748
          },
          {
            "duration": 0.10869550000001027,
            "durationTicks": 96,
            "midi": 52,
            "name": "E3",
            "ticks": 238390,
            "time": 269.91583588541664,
            "velocity": 0.3937007874015748
          },
          {
            "duration": 0.10869550000001027,
            "durationTicks": 96,
            "midi": 40,
            "name": "E2",
            "ticks": 238390,
            "time": 269.91583588541664,
            "velocity": 0.3937007874015748
          },
          {
            "duration": 0.10869550000001027,
            "durationTicks": 96,
            "midi": 59,
            "name": "B3",
            "ticks": 238390,
            "time": 269.91583588541664,
            "velocity": 0.3937007874015748
          },
          {
            "duration": 0.10869550000001027,
            "durationTicks": 96,
            "midi": 64,
            "name": "E4",
            "ticks": 238390,
            "time": 269.91583588541664,
            "velocity": 0.3937007874015748
          },
          {
            "duration": 0.21739100000002054,
            "durationTicks": 192,
            "midi": 74,
            "name": "D5",
            "ticks": 238486,
            "time": 270.02453138541665,
            "velocity": 0.3937007874015748
          },
          {
            "duration": 0.10869550000001027,
            "durationTicks": 96,
            "midi": 28,
            "name": "E1",
            "ticks": 238486,
            "time": 270.02453138541665,
            "velocity": 0.3937007874015748
          },
          {
            "duration": 0.21739100000002054,
            "durationTicks": 192,
            "midi": 35,
            "name": "B1",
            "ticks": 238486,
            "time": 270.02453138541665,
            "velocity": 0.3937007874015748
          },
          {
            "duration": 0.10869550000001027,
            "durationTicks": 96,
            "midi": 40,
            "name": "E2",
            "ticks": 238486,
            "time": 270.02453138541665,
            "velocity": 0.3937007874015748
          },
          {
            "duration": 0.21739100000002054,
            "durationTicks": 192,
            "midi": 78,
            "name": "F#5",
            "ticks": 238486,
            "time": 270.02453138541665,
            "velocity": 0.3937007874015748
          },
          {
            "duration": 0.10869550000001027,
            "durationTicks": 96,
            "midi": 64,
            "name": "E4",
            "ticks": 238486,
            "time": 270.02453138541665,
            "velocity": 0.3937007874015748
          },
          {
            "duration": 0.21739100000002054,
            "durationTicks": 192,
            "midi": 66,
            "name": "F#4",
            "ticks": 238486,
            "time": 270.02453138541665,
            "velocity": 0.3937007874015748
          },
          {
            "duration": 0.21739100000002054,
            "durationTicks": 192,
            "midi": 62,
            "name": "D4",
            "ticks": 238486,
            "time": 270.02453138541665,
            "velocity": 0.3937007874015748
          },
          {
            "duration": 0.10869550000001027,
            "durationTicks": 96,
            "midi": 55,
            "name": "G3",
            "ticks": 238486,
            "time": 270.02453138541665,
            "velocity": 0.3937007874015748
          },
          {
            "duration": 0.10869550000001027,
            "durationTicks": 96,
            "midi": 59,
            "name": "B3",
            "ticks": 238486,
            "time": 270.02453138541665,
            "velocity": 0.3937007874015748
          },
          {
            "duration": 0.10869550000001027,
            "durationTicks": 96,
            "midi": 64,
            "name": "E4",
            "ticks": 238582,
            "time": 270.13322688541666,
            "velocity": 0.3937007874015748
          },
          {
            "duration": 0.10869550000001027,
            "durationTicks": 96,
            "midi": 55,
            "name": "G3",
            "ticks": 238582,
            "time": 270.13322688541666,
            "velocity": 0.3937007874015748
          },
          {
            "duration": 0.10869550000001027,
            "durationTicks": 96,
            "midi": 59,
            "name": "B3",
            "ticks": 238582,
            "time": 270.13322688541666,
            "velocity": 0.3937007874015748
          },
          {
            "duration": 0.10869549999995343,
            "durationTicks": 96,
            "midi": 40,
            "name": "E2",
            "ticks": 238678,
            "time": 270.2419223854167,
            "velocity": 0.3937007874015748
          },
          {
            "duration": 0.2173909999999637,
            "durationTicks": 192,
            "midi": 79,
            "name": "G5",
            "ticks": 238678,
            "time": 270.2419223854167,
            "velocity": 0.3937007874015748
          },
          {
            "duration": 0.2173909999999637,
            "durationTicks": 192,
            "midi": 76,
            "name": "E5",
            "ticks": 238678,
            "time": 270.2419223854167,
            "velocity": 0.3937007874015748
          },
          {
            "duration": 0.10869549999995343,
            "durationTicks": 96,
            "midi": 64,
            "name": "E4",
            "ticks": 238678,
            "time": 270.2419223854167,
            "velocity": 0.3937007874015748
          },
          {
            "duration": 0.10869549999995343,
            "durationTicks": 96,
            "midi": 59,
            "name": "B3",
            "ticks": 238678,
            "time": 270.2419223854167,
            "velocity": 0.3937007874015748
          },
          {
            "duration": 0.2173909999999637,
            "durationTicks": 192,
            "midi": 64,
            "name": "E4",
            "ticks": 238678,
            "time": 270.2419223854167,
            "velocity": 0.3937007874015748
          },
          {
            "duration": 0.10869549999995343,
            "durationTicks": 96,
            "midi": 55,
            "name": "G3",
            "ticks": 238678,
            "time": 270.2419223854167,
            "velocity": 0.3937007874015748
          },
          {
            "duration": 0.10869549999995343,
            "durationTicks": 96,
            "midi": 52,
            "name": "E3",
            "ticks": 238678,
            "time": 270.2419223854167,
            "velocity": 0.3937007874015748
          },
          {
            "duration": 0.2173909999999637,
            "durationTicks": 192,
            "midi": 67,
            "name": "G4",
            "ticks": 238678,
            "time": 270.2419223854167,
            "velocity": 0.3937007874015748
          },
          {
            "duration": 0.10869550000001027,
            "durationTicks": 96,
            "midi": 52,
            "name": "E3",
            "ticks": 238774,
            "time": 270.3506178854166,
            "velocity": 0.3937007874015748
          },
          {
            "duration": 0.10869550000001027,
            "durationTicks": 96,
            "midi": 59,
            "name": "B3",
            "ticks": 238774,
            "time": 270.3506178854166,
            "velocity": 0.3937007874015748
          },
          {
            "duration": 0.10869550000001027,
            "durationTicks": 96,
            "midi": 64,
            "name": "E4",
            "ticks": 238774,
            "time": 270.3506178854166,
            "velocity": 0.3937007874015748
          },
          {
            "duration": 0.10869550000001027,
            "durationTicks": 96,
            "midi": 40,
            "name": "E2",
            "ticks": 238774,
            "time": 270.3506178854166,
            "velocity": 0.3937007874015748
          },
          {
            "duration": 0.10869550000001027,
            "durationTicks": 96,
            "midi": 55,
            "name": "G3",
            "ticks": 238774,
            "time": 270.3506178854166,
            "velocity": 0.3937007874015748
          },
          {
            "duration": 0.10869550000001027,
            "durationTicks": 96,
            "midi": 64,
            "name": "E4",
            "ticks": 238870,
            "time": 270.45931338541664,
            "velocity": 0.3937007874015748
          },
          {
            "duration": 0.21739100000002054,
            "durationTicks": 192,
            "midi": 35,
            "name": "B1",
            "ticks": 238870,
            "time": 270.45931338541664,
            "velocity": 0.3937007874015748
          },
          {
            "duration": 0.21739100000002054,
            "durationTicks": 192,
            "midi": 81,
            "name": "A5",
            "ticks": 238870,
            "time": 270.45931338541664,
            "velocity": 0.3937007874015748
          },
          {
            "duration": 0.21739100000002054,
            "durationTicks": 192,
            "midi": 78,
            "name": "F#5",
            "ticks": 238870,
            "time": 270.45931338541664,
            "velocity": 0.3937007874015748
          },
          {
            "duration": 0.21739100000002054,
            "durationTicks": 192,
            "midi": 69,
            "name": "A4",
            "ticks": 238870,
            "time": 270.45931338541664,
            "velocity": 0.3937007874015748
          },
          {
            "duration": 0.10869550000001027,
            "durationTicks": 96,
            "midi": 40,
            "name": "E2",
            "ticks": 238870,
            "time": 270.45931338541664,
            "velocity": 0.3937007874015748
          },
          {
            "duration": 0.10869550000001027,
            "durationTicks": 96,
            "midi": 28,
            "name": "E1",
            "ticks": 238870,
            "time": 270.45931338541664,
            "velocity": 0.3937007874015748
          },
          {
            "duration": 0.10869550000001027,
            "durationTicks": 96,
            "midi": 59,
            "name": "B3",
            "ticks": 238870,
            "time": 270.45931338541664,
            "velocity": 0.3937007874015748
          },
          {
            "duration": 0.21739100000002054,
            "durationTicks": 192,
            "midi": 66,
            "name": "F#4",
            "ticks": 238870,
            "time": 270.45931338541664,
            "velocity": 0.3937007874015748
          },
          {
            "duration": 0.10869550000001027,
            "durationTicks": 96,
            "midi": 55,
            "name": "G3",
            "ticks": 238870,
            "time": 270.45931338541664,
            "velocity": 0.3937007874015748
          },
          {
            "duration": 0.10869550000001027,
            "durationTicks": 96,
            "midi": 40,
            "name": "E2",
            "ticks": 238966,
            "time": 270.56800888541665,
            "velocity": 0.3937007874015748
          },
          {
            "duration": 0.10869550000001027,
            "durationTicks": 96,
            "midi": 55,
            "name": "G3",
            "ticks": 238966,
            "time": 270.56800888541665,
            "velocity": 0.3937007874015748
          },
          {
            "duration": 0.10869550000001027,
            "durationTicks": 96,
            "midi": 59,
            "name": "B3",
            "ticks": 238966,
            "time": 270.56800888541665,
            "velocity": 0.3937007874015748
          },
          {
            "duration": 0.10869550000001027,
            "durationTicks": 96,
            "midi": 52,
            "name": "E3",
            "ticks": 238966,
            "time": 270.56800888541665,
            "velocity": 0.3937007874015748
          },
          {
            "duration": 0.10869550000001027,
            "durationTicks": 96,
            "midi": 64,
            "name": "E4",
            "ticks": 238966,
            "time": 270.56800888541665,
            "velocity": 0.3937007874015748
          },
          {
            "duration": 0.10869550000001027,
            "durationTicks": 96,
            "midi": 64,
            "name": "E4",
            "ticks": 239062,
            "time": 270.67670438541666,
            "velocity": 0.3937007874015748
          },
          {
            "duration": 0.10869550000001027,
            "durationTicks": 96,
            "midi": 59,
            "name": "B3",
            "ticks": 239062,
            "time": 270.67670438541666,
            "velocity": 0.3937007874015748
          },
          {
            "duration": 0.10869550000001027,
            "durationTicks": 96,
            "midi": 38,
            "name": "D2",
            "ticks": 239062,
            "time": 270.67670438541666,
            "velocity": 0.3937007874015748
          },
          {
            "duration": 0.21739100000002054,
            "durationTicks": 192,
            "midi": 83,
            "name": "B5",
            "ticks": 239062,
            "time": 270.67670438541666,
            "velocity": 0.3937007874015748
          },
          {
            "duration": 0.10869550000001027,
            "durationTicks": 96,
            "midi": 55,
            "name": "G3",
            "ticks": 239062,
            "time": 270.67670438541666,
            "velocity": 0.3937007874015748
          },
          {
            "duration": 0.21739100000002054,
            "durationTicks": 192,
            "midi": 79,
            "name": "G5",
            "ticks": 239062,
            "time": 270.67670438541666,
            "velocity": 0.3937007874015748
          },
          {
            "duration": 0.21739100000002054,
            "durationTicks": 192,
            "midi": 67,
            "name": "G4",
            "ticks": 239062,
            "time": 270.67670438541666,
            "velocity": 0.3937007874015748
          },
          {
            "duration": 0.10869550000001027,
            "durationTicks": 96,
            "midi": 50,
            "name": "D3",
            "ticks": 239062,
            "time": 270.67670438541666,
            "velocity": 0.3937007874015748
          },
          {
            "duration": 0.21739100000002054,
            "durationTicks": 192,
            "midi": 71,
            "name": "B4",
            "ticks": 239062,
            "time": 270.67670438541666,
            "velocity": 0.3937007874015748
          },
          {
            "duration": 0.10869550000001027,
            "durationTicks": 96,
            "midi": 52,
            "name": "E3",
            "ticks": 239158,
            "time": 270.78539988541667,
            "velocity": 0.3937007874015748
          },
          {
            "duration": 0.10869550000001027,
            "durationTicks": 96,
            "midi": 40,
            "name": "E2",
            "ticks": 239158,
            "time": 270.78539988541667,
            "velocity": 0.3937007874015748
          },
          {
            "duration": 0.10869550000001027,
            "durationTicks": 96,
            "midi": 64,
            "name": "E4",
            "ticks": 239158,
            "time": 270.78539988541667,
            "velocity": 0.3937007874015748
          },
          {
            "duration": 0.10869550000001027,
            "durationTicks": 96,
            "midi": 55,
            "name": "G3",
            "ticks": 239158,
            "time": 270.78539988541667,
            "velocity": 0.3937007874015748
          },
          {
            "duration": 0.10869550000001027,
            "durationTicks": 96,
            "midi": 59,
            "name": "B3",
            "ticks": 239158,
            "time": 270.78539988541667,
            "velocity": 0.3937007874015748
          },
          {
            "duration": 0.10869549999995343,
            "durationTicks": 96,
            "midi": 55,
            "name": "G3",
            "ticks": 239254,
            "time": 270.8940953854167,
            "velocity": 0.3937007874015748
          },
          {
            "duration": 0.10869549999995343,
            "durationTicks": 96,
            "midi": 59,
            "name": "B3",
            "ticks": 239254,
            "time": 270.8940953854167,
            "velocity": 0.3937007874015748
          },
          {
            "duration": 0.10869549999995343,
            "durationTicks": 96,
            "midi": 64,
            "name": "E4",
            "ticks": 239254,
            "time": 270.8940953854167,
            "velocity": 0.3937007874015748
          },
          {
            "duration": 0.2173909999999637,
            "durationTicks": 192,
            "midi": 59,
            "name": "B3",
            "ticks": 239254,
            "time": 270.8940953854167,
            "velocity": 0.3937007874015748
          },
          {
            "duration": 0.2173909999999637,
            "durationTicks": 192,
            "midi": 76,
            "name": "E5",
            "ticks": 239254,
            "time": 270.8940953854167,
            "velocity": 0.3937007874015748
          },
          {
            "duration": 0.10869549999995343,
            "durationTicks": 96,
            "midi": 52,
            "name": "E3",
            "ticks": 239254,
            "time": 270.8940953854167,
            "velocity": 0.3937007874015748
          },
          {
            "duration": 0.2173909999999637,
            "durationTicks": 192,
            "midi": 71,
            "name": "B4",
            "ticks": 239254,
            "time": 270.8940953854167,
            "velocity": 0.3937007874015748
          },
          {
            "duration": 0.10869549999995343,
            "durationTicks": 96,
            "midi": 40,
            "name": "E2",
            "ticks": 239254,
            "time": 270.8940953854167,
            "velocity": 0.3937007874015748
          },
          {
            "duration": 0.2173909999999637,
            "durationTicks": 192,
            "midi": 64,
            "name": "E4",
            "ticks": 239254,
            "time": 270.8940953854167,
            "velocity": 0.3937007874015748
          },
          {
            "duration": 0.10869550000001027,
            "durationTicks": 96,
            "midi": 59,
            "name": "B3",
            "ticks": 239350,
            "time": 271.00279088541663,
            "velocity": 0.3937007874015748
          },
          {
            "duration": 0.10869550000001027,
            "durationTicks": 96,
            "midi": 55,
            "name": "G3",
            "ticks": 239350,
            "time": 271.00279088541663,
            "velocity": 0.3937007874015748
          },
          {
            "duration": 0.10869550000001027,
            "durationTicks": 96,
            "midi": 64,
            "name": "E4",
            "ticks": 239350,
            "time": 271.00279088541663,
            "velocity": 0.3937007874015748
          },
          {
            "duration": 0.10869550000001027,
            "durationTicks": 96,
            "midi": 55,
            "name": "G3",
            "ticks": 239446,
            "time": 271.11148638541664,
            "velocity": 0.3937007874015748
          },
          {
            "duration": 0.10869550000001027,
            "durationTicks": 96,
            "midi": 35,
            "name": "B1",
            "ticks": 239446,
            "time": 271.11148638541664,
            "velocity": 0.3937007874015748
          },
          {
            "duration": 0.10869550000001027,
            "durationTicks": 96,
            "midi": 59,
            "name": "B3",
            "ticks": 239446,
            "time": 271.11148638541664,
            "velocity": 0.3937007874015748
          },
          {
            "duration": 0.10869550000001027,
            "durationTicks": 96,
            "midi": 64,
            "name": "E4",
            "ticks": 239446,
            "time": 271.11148638541664,
            "velocity": 0.3937007874015748
          },
          {
            "duration": 0.10869550000001027,
            "durationTicks": 96,
            "midi": 47,
            "name": "B2",
            "ticks": 239446,
            "time": 271.11148638541664,
            "velocity": 0.3937007874015748
          },
          {
            "duration": 0.10869550000001027,
            "durationTicks": 96,
            "midi": 50,
            "name": "D3",
            "ticks": 239542,
            "time": 271.22018188541665,
            "velocity": 0.3937007874015748
          },
          {
            "duration": 0.10869550000001027,
            "durationTicks": 96,
            "midi": 55,
            "name": "G3",
            "ticks": 239542,
            "time": 271.22018188541665,
            "velocity": 0.3937007874015748
          },
          {
            "duration": 0.10869550000001027,
            "durationTicks": 96,
            "midi": 59,
            "name": "B3",
            "ticks": 239542,
            "time": 271.22018188541665,
            "velocity": 0.3937007874015748
          },
          {
            "duration": 0.10869550000001027,
            "durationTicks": 96,
            "midi": 64,
            "name": "E4",
            "ticks": 239542,
            "time": 271.22018188541665,
            "velocity": 0.3937007874015748
          },
          {
            "duration": 0.10869550000001027,
            "durationTicks": 96,
            "midi": 38,
            "name": "D2",
            "ticks": 239542,
            "time": 271.22018188541665,
            "velocity": 0.3937007874015748
          },
          {
            "duration": 0.2173909999999637,
            "durationTicks": 192,
            "midi": 71,
            "name": "B4",
            "ticks": 239638,
            "time": 271.32887738541666,
            "velocity": 0.3937007874015748
          },
          {
            "duration": 0.10869550000001027,
            "durationTicks": 96,
            "midi": 33,
            "name": "A1",
            "ticks": 239638,
            "time": 271.32887738541666,
            "velocity": 0.3937007874015748
          },
          {
            "duration": 0.10869550000001027,
            "durationTicks": 96,
            "midi": 45,
            "name": "A2",
            "ticks": 239638,
            "time": 271.32887738541666,
            "velocity": 0.3937007874015748
          },
          {
            "duration": 0.2173909999999637,
            "durationTicks": 192,
            "midi": 79,
            "name": "G5",
            "ticks": 239638,
            "time": 271.32887738541666,
            "velocity": 0.3937007874015748
          },
          {
            "duration": 0.10869550000001027,
            "durationTicks": 96,
            "midi": 55,
            "name": "G3",
            "ticks": 239638,
            "time": 271.32887738541666,
            "velocity": 0.3937007874015748
          },
          {
            "duration": 0.2173909999999637,
            "durationTicks": 192,
            "midi": 83,
            "name": "B5",
            "ticks": 239638,
            "time": 271.32887738541666,
            "velocity": 0.3937007874015748
          },
          {
            "duration": 0.10869550000001027,
            "durationTicks": 96,
            "midi": 59,
            "name": "B3",
            "ticks": 239638,
            "time": 271.32887738541666,
            "velocity": 0.3937007874015748
          },
          {
            "duration": 0.10869550000001027,
            "durationTicks": 96,
            "midi": 64,
            "name": "E4",
            "ticks": 239638,
            "time": 271.32887738541666,
            "velocity": 0.3937007874015748
          },
          {
            "duration": 0.2173909999999637,
            "durationTicks": 192,
            "midi": 67,
            "name": "G4",
            "ticks": 239638,
            "time": 271.32887738541666,
            "velocity": 0.3937007874015748
          },
          {
            "duration": 0.10869549999995343,
            "durationTicks": 96,
            "midi": 64,
            "name": "E4",
            "ticks": 239734,
            "time": 271.43757288541667,
            "velocity": 0.3937007874015748
          },
          {
            "duration": 0.10869549999995343,
            "durationTicks": 96,
            "midi": 55,
            "name": "G3",
            "ticks": 239734,
            "time": 271.43757288541667,
            "velocity": 0.3937007874015748
          },
          {
            "duration": 0.10869549999995343,
            "durationTicks": 96,
            "midi": 59,
            "name": "B3",
            "ticks": 239734,
            "time": 271.43757288541667,
            "velocity": 0.3937007874015748
          },
          {
            "duration": 0.10869550000001027,
            "durationTicks": 96,
            "midi": 55,
            "name": "G3",
            "ticks": 239830,
            "time": 271.5462683854166,
            "velocity": 0.3937007874015748
          },
          {
            "duration": 0.10869550000001027,
            "durationTicks": 96,
            "midi": 59,
            "name": "B3",
            "ticks": 239830,
            "time": 271.5462683854166,
            "velocity": 0.3937007874015748
          },
          {
            "duration": 0.10869550000001027,
            "durationTicks": 96,
            "midi": 64,
            "name": "E4",
            "ticks": 239830,
            "time": 271.5462683854166,
            "velocity": 0.3937007874015748
          },
          {
            "duration": 0.21739100000002054,
            "durationTicks": 192,
            "midi": 86,
            "name": "D6",
            "ticks": 239830,
            "time": 271.5462683854166,
            "velocity": 0.3937007874015748
          },
          {
            "duration": 0.10869550000001027,
            "durationTicks": 96,
            "midi": 31,
            "name": "G1",
            "ticks": 239830,
            "time": 271.5462683854166,
            "velocity": 0.3937007874015748
          },
          {
            "duration": 0.21739100000002054,
            "durationTicks": 192,
            "midi": 74,
            "name": "D5",
            "ticks": 239830,
            "time": 271.5462683854166,
            "velocity": 0.3937007874015748
          },
          {
            "duration": 0.21739100000002054,
            "durationTicks": 192,
            "midi": 69,
            "name": "A4",
            "ticks": 239830,
            "time": 271.5462683854166,
            "velocity": 0.3937007874015748
          },
          {
            "duration": 0.10869550000001027,
            "durationTicks": 96,
            "midi": 43,
            "name": "G2",
            "ticks": 239830,
            "time": 271.5462683854166,
            "velocity": 0.3937007874015748
          },
          {
            "duration": 0.21739100000002054,
            "durationTicks": 192,
            "midi": 81,
            "name": "A5",
            "ticks": 239830,
            "time": 271.5462683854166,
            "velocity": 0.3937007874015748
          },
          {
            "duration": 0.10869550000001027,
            "durationTicks": 96,
            "midi": 59,
            "name": "B3",
            "ticks": 239926,
            "time": 271.65496388541663,
            "velocity": 0.3937007874015748
          },
          {
            "duration": 0.10869550000001027,
            "durationTicks": 96,
            "midi": 45,
            "name": "A2",
            "ticks": 239926,
            "time": 271.65496388541663,
            "velocity": 0.3937007874015748
          },
          {
            "duration": 0.10869550000001027,
            "durationTicks": 96,
            "midi": 55,
            "name": "G3",
            "ticks": 239926,
            "time": 271.65496388541663,
            "velocity": 0.3937007874015748
          },
          {
            "duration": 0.10869550000001027,
            "durationTicks": 96,
            "midi": 64,
            "name": "E4",
            "ticks": 239926,
            "time": 271.65496388541663,
            "velocity": 0.3937007874015748
          },
          {
            "duration": 0.10869550000001027,
            "durationTicks": 96,
            "midi": 33,
            "name": "A1",
            "ticks": 239926,
            "time": 271.65496388541663,
            "velocity": 0.3937007874015748
          },
          {
            "duration": 0.48912974999996095,
            "durationTicks": 432,
            "midi": 88,
            "name": "E6",
            "ticks": 239974,
            "time": 271.70931163541667,
            "velocity": 0.3937007874015748
          },
          {
            "duration": 0.21739100000002054,
            "durationTicks": 192,
            "midi": 35,
            "name": "B1",
            "ticks": 240022,
            "time": 271.76365938541664,
            "velocity": 0.3937007874015748
          },
          {
            "duration": 0.10869550000001027,
            "durationTicks": 96,
            "midi": 24,
            "name": "C1",
            "ticks": 240022,
            "time": 271.76365938541664,
            "velocity": 0.3937007874015748
          },
          {
            "duration": 0.21739100000002054,
            "durationTicks": 192,
            "midi": 81,
            "name": "A5",
            "ticks": 240022,
            "time": 271.76365938541664,
            "velocity": 0.3937007874015748
          },
          {
            "duration": 0.10869550000001027,
            "durationTicks": 96,
            "midi": 55,
            "name": "G3",
            "ticks": 240022,
            "time": 271.76365938541664,
            "velocity": 0.3937007874015748
          },
          {
            "duration": 0.10869550000001027,
            "durationTicks": 96,
            "midi": 36,
            "name": "C2",
            "ticks": 240022,
            "time": 271.76365938541664,
            "velocity": 0.3937007874015748
          },
          {
            "duration": 0.21739100000002054,
            "durationTicks": 192,
            "midi": 69,
            "name": "A4",
            "ticks": 240022,
            "time": 271.76365938541664,
            "velocity": 0.3937007874015748
          },
          {
            "duration": 0.10869550000001027,
            "durationTicks": 96,
            "midi": 52,
            "name": "E3",
            "ticks": 240022,
            "time": 271.76365938541664,
            "velocity": 0.3937007874015748
          },
          {
            "duration": 0.21739100000002054,
            "durationTicks": 192,
            "midi": 86,
            "name": "D6",
            "ticks": 240022,
            "time": 271.76365938541664,
            "velocity": 0.3937007874015748
          },
          {
            "duration": 0.10869550000001027,
            "durationTicks": 96,
            "midi": 60,
            "name": "C4",
            "ticks": 240022,
            "time": 271.76365938541664,
            "velocity": 0.3937007874015748
          },
          {
            "duration": 0.21739100000002054,
            "durationTicks": 192,
            "midi": 74,
            "name": "D5",
            "ticks": 240022,
            "time": 271.76365938541664,
            "velocity": 0.3937007874015748
          },
          {
            "duration": 0.10869550000001027,
            "durationTicks": 96,
            "midi": 52,
            "name": "E3",
            "ticks": 240118,
            "time": 271.87235488541666,
            "velocity": 0.3937007874015748
          },
          {
            "duration": 0.10869550000001027,
            "durationTicks": 96,
            "midi": 60,
            "name": "C4",
            "ticks": 240118,
            "time": 271.87235488541666,
            "velocity": 0.3937007874015748
          },
          {
            "duration": 0.10869550000001027,
            "durationTicks": 96,
            "midi": 55,
            "name": "G3",
            "ticks": 240118,
            "time": 271.87235488541666,
            "velocity": 0.3937007874015748
          },
          {
            "duration": 0.2173909999999637,
            "durationTicks": 192,
            "midi": 83,
            "name": "B5",
            "ticks": 240214,
            "time": 271.98105038541667,
            "velocity": 0.3937007874015748
          },
          {
            "duration": 0.2173909999999637,
            "durationTicks": 192,
            "midi": 76,
            "name": "E5",
            "ticks": 240214,
            "time": 271.98105038541667,
            "velocity": 0.3937007874015748
          },
          {
            "duration": 0.10869550000001027,
            "durationTicks": 96,
            "midi": 36,
            "name": "C2",
            "ticks": 240214,
            "time": 271.98105038541667,
            "velocity": 0.3937007874015748
          },
          {
            "duration": 0.10869550000001027,
            "durationTicks": 96,
            "midi": 52,
            "name": "E3",
            "ticks": 240214,
            "time": 271.98105038541667,
            "velocity": 0.3937007874015748
          },
          {
            "duration": 0.10869550000001027,
            "durationTicks": 96,
            "midi": 48,
            "name": "C3",
            "ticks": 240214,
            "time": 271.98105038541667,
            "velocity": 0.3937007874015748
          },
          {
            "duration": 0.10869550000001027,
            "durationTicks": 96,
            "midi": 60,
            "name": "C4",
            "ticks": 240214,
            "time": 271.98105038541667,
            "velocity": 0.3937007874015748
          },
          {
            "duration": 0.10869550000001027,
            "durationTicks": 96,
            "midi": 55,
            "name": "G3",
            "ticks": 240214,
            "time": 271.98105038541667,
            "velocity": 0.3937007874015748
          },
          {
            "duration": 0.2173909999999637,
            "durationTicks": 192,
            "midi": 71,
            "name": "B4",
            "ticks": 240214,
            "time": 271.98105038541667,
            "velocity": 0.3937007874015748
          },
          {
            "duration": 0.3804342500000075,
            "durationTicks": 336,
            "midi": 88,
            "name": "E6",
            "ticks": 240214,
            "time": 271.98105038541667,
            "velocity": 0.3937007874015748
          },
          {
            "duration": 0.10869549999995343,
            "durationTicks": 96,
            "midi": 52,
            "name": "E3",
            "ticks": 240310,
            "time": 272.0897458854167,
            "velocity": 0.3937007874015748
          },
          {
            "duration": 0.10869549999995343,
            "durationTicks": 96,
            "midi": 55,
            "name": "G3",
            "ticks": 240310,
            "time": 272.0897458854167,
            "velocity": 0.3937007874015748
          },
          {
            "duration": 0.10869549999995343,
            "durationTicks": 96,
            "midi": 60,
            "name": "C4",
            "ticks": 240310,
            "time": 272.0897458854167,
            "velocity": 0.3937007874015748
          },
          {
            "duration": 0.10869549999995343,
            "durationTicks": 96,
            "midi": 48,
            "name": "C3",
            "ticks": 240310,
            "time": 272.0897458854167,
            "velocity": 0.3937007874015748
          },
          {
            "duration": 0.10869549999995343,
            "durationTicks": 96,
            "midi": 36,
            "name": "C2",
            "ticks": 240310,
            "time": 272.0897458854167,
            "velocity": 0.3937007874015748
          },
          {
            "duration": 0.10869550000001027,
            "durationTicks": 96,
            "midi": 24,
            "name": "C1",
            "ticks": 240406,
            "time": 272.19844138541663,
            "velocity": 0.3937007874015748
          },
          {
            "duration": 0.21739100000002054,
            "durationTicks": 192,
            "midi": 79,
            "name": "G5",
            "ticks": 240406,
            "time": 272.19844138541663,
            "velocity": 0.3937007874015748
          },
          {
            "duration": 0.21739100000002054,
            "durationTicks": 192,
            "midi": 35,
            "name": "B1",
            "ticks": 240406,
            "time": 272.19844138541663,
            "velocity": 0.3937007874015748
          },
          {
            "duration": 0.10869550000001027,
            "durationTicks": 96,
            "midi": 60,
            "name": "C4",
            "ticks": 240406,
            "time": 272.19844138541663,
            "velocity": 0.3937007874015748
          },
          {
            "duration": 0.10869550000001027,
            "durationTicks": 96,
            "midi": 55,
            "name": "G3",
            "ticks": 240406,
            "time": 272.19844138541663,
            "velocity": 0.3937007874015748
          },
          {
            "duration": 0.21739100000002054,
            "durationTicks": 192,
            "midi": 83,
            "name": "B5",
            "ticks": 240406,
            "time": 272.19844138541663,
            "velocity": 0.3937007874015748
          },
          {
            "duration": 0.10869550000001027,
            "durationTicks": 96,
            "midi": 52,
            "name": "E3",
            "ticks": 240406,
            "time": 272.19844138541663,
            "velocity": 0.3937007874015748
          },
          {
            "duration": 0.21739100000002054,
            "durationTicks": 192,
            "midi": 71,
            "name": "B4",
            "ticks": 240406,
            "time": 272.19844138541663,
            "velocity": 0.3937007874015748
          },
          {
            "duration": 0.10869550000001027,
            "durationTicks": 96,
            "midi": 36,
            "name": "C2",
            "ticks": 240406,
            "time": 272.19844138541663,
            "velocity": 0.3937007874015748
          },
          {
            "duration": 0.21739100000002054,
            "durationTicks": 192,
            "midi": 67,
            "name": "G4",
            "ticks": 240406,
            "time": 272.19844138541663,
            "velocity": 0.3937007874015748
          },
          {
            "duration": 0.10869550000001027,
            "durationTicks": 96,
            "midi": 36,
            "name": "C2",
            "ticks": 240502,
            "time": 272.30713688541664,
            "velocity": 0.3937007874015748
          },
          {
            "duration": 0.10869550000001027,
            "durationTicks": 96,
            "midi": 55,
            "name": "G3",
            "ticks": 240502,
            "time": 272.30713688541664,
            "velocity": 0.3937007874015748
          },
          {
            "duration": 0.10869550000001027,
            "durationTicks": 96,
            "midi": 52,
            "name": "E3",
            "ticks": 240502,
            "time": 272.30713688541664,
            "velocity": 0.3937007874015748
          },
          {
            "duration": 0.10869550000001027,
            "durationTicks": 96,
            "midi": 48,
            "name": "C3",
            "ticks": 240502,
            "time": 272.30713688541664,
            "velocity": 0.3937007874015748
          },
          {
            "duration": 0.10869550000001027,
            "durationTicks": 96,
            "midi": 60,
            "name": "C4",
            "ticks": 240502,
            "time": 272.30713688541664,
            "velocity": 0.3937007874015748
          },
          {
            "duration": 0.10869550000001027,
            "durationTicks": 96,
            "midi": 55,
            "name": "G3",
            "ticks": 240598,
            "time": 272.41583238541665,
            "velocity": 0.3937007874015748
          },
          {
            "duration": 0.10869550000001027,
            "durationTicks": 96,
            "midi": 52,
            "name": "E3",
            "ticks": 240598,
            "time": 272.41583238541665,
            "velocity": 0.3937007874015748
          },
          {
            "duration": 0.10869550000001027,
            "durationTicks": 96,
            "midi": 35,
            "name": "B1",
            "ticks": 240598,
            "time": 272.41583238541665,
            "velocity": 0.3937007874015748
          },
          {
            "duration": 0.21739100000002054,
            "durationTicks": 192,
            "midi": 66,
            "name": "F#4",
            "ticks": 240598,
            "time": 272.41583238541665,
            "velocity": 0.3937007874015748
          },
          {
            "duration": 0.21739100000002054,
            "durationTicks": 192,
            "midi": 78,
            "name": "F#5",
            "ticks": 240598,
            "time": 272.41583238541665,
            "velocity": 0.3937007874015748
          },
          {
            "duration": 0.21739100000002054,
            "durationTicks": 192,
            "midi": 69,
            "name": "A4",
            "ticks": 240598,
            "time": 272.41583238541665,
            "velocity": 0.3937007874015748
          },
          {
            "duration": 0.10869550000001027,
            "durationTicks": 96,
            "midi": 60,
            "name": "C4",
            "ticks": 240598,
            "time": 272.41583238541665,
            "velocity": 0.3937007874015748
          },
          {
            "duration": 0.21739100000002054,
            "durationTicks": 192,
            "midi": 81,
            "name": "A5",
            "ticks": 240598,
            "time": 272.41583238541665,
            "velocity": 0.3937007874015748
          },
          {
            "duration": 0.10869550000001027,
            "durationTicks": 96,
            "midi": 47,
            "name": "B2",
            "ticks": 240598,
            "time": 272.41583238541665,
            "velocity": 0.3937007874015748
          },
          {
            "duration": 0.10869550000001027,
            "durationTicks": 96,
            "midi": 36,
            "name": "C2",
            "ticks": 240694,
            "time": 272.52452788541666,
            "velocity": 0.3937007874015748
          },
          {
            "duration": 0.10869550000001027,
            "durationTicks": 96,
            "midi": 60,
            "name": "C4",
            "ticks": 240694,
            "time": 272.52452788541666,
            "velocity": 0.3937007874015748
          },
          {
            "duration": 0.10869550000001027,
            "durationTicks": 96,
            "midi": 52,
            "name": "E3",
            "ticks": 240694,
            "time": 272.52452788541666,
            "velocity": 0.3937007874015748
          },
          {
            "duration": 0.10869550000001027,
            "durationTicks": 96,
            "midi": 48,
            "name": "C3",
            "ticks": 240694,
            "time": 272.52452788541666,
            "velocity": 0.3937007874015748
          },
          {
            "duration": 0.10869550000001027,
            "durationTicks": 96,
            "midi": 55,
            "name": "G3",
            "ticks": 240694,
            "time": 272.52452788541666,
            "velocity": 0.3937007874015748
          },
          {
            "duration": 0.10869549999995343,
            "durationTicks": 96,
            "midi": 55,
            "name": "G3",
            "ticks": 240790,
            "time": 272.63322338541667,
            "velocity": 0.3937007874015748
          },
          {
            "duration": 0.10869549999995343,
            "durationTicks": 96,
            "midi": 52,
            "name": "E3",
            "ticks": 240790,
            "time": 272.63322338541667,
            "velocity": 0.3937007874015748
          },
          {
            "duration": 0.2173909999999637,
            "durationTicks": 192,
            "midi": 71,
            "name": "B4",
            "ticks": 240790,
            "time": 272.63322338541667,
            "velocity": 0.3937007874015748
          },
          {
            "duration": 0.2173909999999637,
            "durationTicks": 192,
            "midi": 35,
            "name": "B1",
            "ticks": 240790,
            "time": 272.63322338541667,
            "velocity": 0.3937007874015748
          },
          {
            "duration": 0.10869549999995343,
            "durationTicks": 96,
            "midi": 60,
            "name": "C4",
            "ticks": 240790,
            "time": 272.63322338541667,
            "velocity": 0.3937007874015748
          },
          {
            "duration": 0.2173909999999637,
            "durationTicks": 192,
            "midi": 79,
            "name": "G5",
            "ticks": 240790,
            "time": 272.63322338541667,
            "velocity": 0.3937007874015748
          },
          {
            "duration": 0.10869549999995343,
            "durationTicks": 96,
            "midi": 36,
            "name": "C2",
            "ticks": 240790,
            "time": 272.63322338541667,
            "velocity": 0.3937007874015748
          },
          {
            "duration": 0.2173909999999637,
            "durationTicks": 192,
            "midi": 83,
            "name": "B5",
            "ticks": 240790,
            "time": 272.63322338541667,
            "velocity": 0.3937007874015748
          },
          {
            "duration": 0.2173909999999637,
            "durationTicks": 192,
            "midi": 67,
            "name": "G4",
            "ticks": 240790,
            "time": 272.63322338541667,
            "velocity": 0.3937007874015748
          },
          {
            "duration": 0.10869549999995343,
            "durationTicks": 96,
            "midi": 24,
            "name": "C1",
            "ticks": 240790,
            "time": 272.63322338541667,
            "velocity": 0.3937007874015748
          },
          {
            "duration": 0.10869550000001027,
            "durationTicks": 96,
            "midi": 52,
            "name": "E3",
            "ticks": 240886,
            "time": 272.7419188854166,
            "velocity": 0.3937007874015748
          },
          {
            "duration": 0.10869550000001027,
            "durationTicks": 96,
            "midi": 55,
            "name": "G3",
            "ticks": 240886,
            "time": 272.7419188854166,
            "velocity": 0.3937007874015748
          },
          {
            "duration": 0.10869550000001027,
            "durationTicks": 96,
            "midi": 60,
            "name": "C4",
            "ticks": 240886,
            "time": 272.7419188854166,
            "velocity": 0.3937007874015748
          },
          {
            "duration": 0.10869550000001027,
            "durationTicks": 96,
            "midi": 55,
            "name": "G3",
            "ticks": 240982,
            "time": 272.85061438541663,
            "velocity": 0.3937007874015748
          },
          {
            "duration": 0.10869550000001027,
            "durationTicks": 96,
            "midi": 60,
            "name": "C4",
            "ticks": 240982,
            "time": 272.85061438541663,
            "velocity": 0.3937007874015748
          },
          {
            "duration": 0.10869550000001027,
            "durationTicks": 96,
            "midi": 48,
            "name": "C3",
            "ticks": 240982,
            "time": 272.85061438541663,
            "velocity": 0.3937007874015748
          },
          {
            "duration": 0.10869550000001027,
            "durationTicks": 96,
            "midi": 52,
            "name": "E3",
            "ticks": 240982,
            "time": 272.85061438541663,
            "velocity": 0.3937007874015748
          },
          {
            "duration": 0.10869550000001027,
            "durationTicks": 96,
            "midi": 36,
            "name": "C2",
            "ticks": 240982,
            "time": 272.85061438541663,
            "velocity": 0.3937007874015748
          },
          {
            "duration": 0.10869550000001027,
            "durationTicks": 96,
            "midi": 36,
            "name": "C2",
            "ticks": 241078,
            "time": 272.95930988541664,
            "velocity": 0.3937007874015748
          },
          {
            "duration": 0.10869550000001027,
            "durationTicks": 96,
            "midi": 60,
            "name": "C4",
            "ticks": 241078,
            "time": 272.95930988541664,
            "velocity": 0.3937007874015748
          },
          {
            "duration": 0.10869550000001027,
            "durationTicks": 96,
            "midi": 52,
            "name": "E3",
            "ticks": 241078,
            "time": 272.95930988541664,
            "velocity": 0.3937007874015748
          },
          {
            "duration": 0.10869550000001027,
            "durationTicks": 96,
            "midi": 55,
            "name": "G3",
            "ticks": 241078,
            "time": 272.95930988541664,
            "velocity": 0.3937007874015748
          },
          {
            "duration": 0.10869550000001027,
            "durationTicks": 96,
            "midi": 48,
            "name": "C3",
            "ticks": 241078,
            "time": 272.95930988541664,
            "velocity": 0.3937007874015748
          },
          {
            "duration": 0.10869550000001027,
            "durationTicks": 96,
            "midi": 36,
            "name": "C2",
            "ticks": 241174,
            "time": 273.06800538541665,
            "velocity": 0.3937007874015748
          },
          {
            "duration": 0.21739100000002054,
            "durationTicks": 192,
            "midi": 66,
            "name": "F#4",
            "ticks": 241174,
            "time": 273.06800538541665,
            "velocity": 0.3937007874015748
          },
          {
            "duration": 0.21739100000002054,
            "durationTicks": 192,
            "midi": 69,
            "name": "A4",
            "ticks": 241174,
            "time": 273.06800538541665,
            "velocity": 0.3937007874015748
          },
          {
            "duration": 0.10869550000001027,
            "durationTicks": 96,
            "midi": 55,
            "name": "G3",
            "ticks": 241174,
            "time": 273.06800538541665,
            "velocity": 0.3937007874015748
          },
          {
            "duration": 0.10869550000001027,
            "durationTicks": 96,
            "midi": 60,
            "name": "C4",
            "ticks": 241174,
            "time": 273.06800538541665,
            "velocity": 0.3937007874015748
          },
          {
            "duration": 0.10869550000001027,
            "durationTicks": 96,
            "midi": 52,
            "name": "E3",
            "ticks": 241174,
            "time": 273.06800538541665,
            "velocity": 0.3937007874015748
          },
          {
            "duration": 0.10869550000001027,
            "durationTicks": 96,
            "midi": 35,
            "name": "B1",
            "ticks": 241174,
            "time": 273.06800538541665,
            "velocity": 0.3937007874015748
          },
          {
            "duration": 0.10869550000001027,
            "durationTicks": 96,
            "midi": 24,
            "name": "C1",
            "ticks": 241174,
            "time": 273.06800538541665,
            "velocity": 0.3937007874015748
          },
          {
            "duration": 0.21739100000002054,
            "durationTicks": 192,
            "midi": 78,
            "name": "F#5",
            "ticks": 241174,
            "time": 273.06800538541665,
            "velocity": 0.3937007874015748
          },
          {
            "duration": 0.21739100000002054,
            "durationTicks": 192,
            "midi": 81,
            "name": "A5",
            "ticks": 241174,
            "time": 273.06800538541665,
            "velocity": 0.3937007874015748
          },
          {
            "duration": 0.10869550000001027,
            "durationTicks": 96,
            "midi": 55,
            "name": "G3",
            "ticks": 241270,
            "time": 273.17670088541666,
            "velocity": 0.3937007874015748
          },
          {
            "duration": 0.10869550000001027,
            "durationTicks": 96,
            "midi": 60,
            "name": "C4",
            "ticks": 241270,
            "time": 273.17670088541666,
            "velocity": 0.3937007874015748
          },
          {
            "duration": 0.10869550000001027,
            "durationTicks": 96,
            "midi": 48,
            "name": "C3",
            "ticks": 241270,
            "time": 273.17670088541666,
            "velocity": 0.3937007874015748
          },
          {
            "duration": 0.10869550000001027,
            "durationTicks": 96,
            "midi": 52,
            "name": "E3",
            "ticks": 241270,
            "time": 273.17670088541666,
            "velocity": 0.3937007874015748
          },
          {
            "duration": 0.10869550000001027,
            "durationTicks": 96,
            "midi": 36,
            "name": "C2",
            "ticks": 241270,
            "time": 273.17670088541666,
            "velocity": 0.3937007874015748
          },
          {
            "duration": 0.10869550000001027,
            "durationTicks": 96,
            "midi": 35,
            "name": "B1",
            "ticks": 241270,
            "time": 273.17670088541666,
            "velocity": 0.3937007874015748
          },
          {
            "duration": 0.10869549999995343,
            "durationTicks": 96,
            "midi": 47,
            "name": "B2",
            "ticks": 241366,
            "time": 273.2853963854167,
            "velocity": 0.3937007874015748
          },
          {
            "duration": 0.10869549999995343,
            "durationTicks": 96,
            "midi": 35,
            "name": "B1",
            "ticks": 241366,
            "time": 273.2853963854167,
            "velocity": 0.3937007874015748
          },
          {
            "duration": 0.10869549999995343,
            "durationTicks": 96,
            "midi": 52,
            "name": "E3",
            "ticks": 241366,
            "time": 273.2853963854167,
            "velocity": 0.3937007874015748
          },
          {
            "duration": 0.10869549999995343,
            "durationTicks": 96,
            "midi": 60,
            "name": "C4",
            "ticks": 241366,
            "time": 273.2853963854167,
            "velocity": 0.3937007874015748
          },
          {
            "duration": 0.10869549999995343,
            "durationTicks": 96,
            "midi": 35,
            "name": "B1",
            "ticks": 241366,
            "time": 273.2853963854167,
            "velocity": 0.3937007874015748
          },
          {
            "duration": 0.2173909999999637,
            "durationTicks": 192,
            "midi": 71,
            "name": "B4",
            "ticks": 241366,
            "time": 273.2853963854167,
            "velocity": 0.3937007874015748
          },
          {
            "duration": 0.10869549999995343,
            "durationTicks": 96,
            "midi": 55,
            "name": "G3",
            "ticks": 241366,
            "time": 273.2853963854167,
            "velocity": 0.3937007874015748
          },
          {
            "duration": 0.2173909999999637,
            "durationTicks": 192,
            "midi": 79,
            "name": "G5",
            "ticks": 241366,
            "time": 273.2853963854167,
            "velocity": 0.3937007874015748
          },
          {
            "duration": 0.2173909999999637,
            "durationTicks": 192,
            "midi": 67,
            "name": "G4",
            "ticks": 241366,
            "time": 273.2853963854167,
            "velocity": 0.3937007874015748
          },
          {
            "duration": 0.2173909999999637,
            "durationTicks": 192,
            "midi": 83,
            "name": "B5",
            "ticks": 241366,
            "time": 273.2853963854167,
            "velocity": 0.3937007874015748
          },
          {
            "duration": 0.10869550000001027,
            "durationTicks": 96,
            "midi": 52,
            "name": "E3",
            "ticks": 241462,
            "time": 273.39409188541663,
            "velocity": 0.3937007874015748
          },
          {
            "duration": 0.10869550000001027,
            "durationTicks": 96,
            "midi": 55,
            "name": "G3",
            "ticks": 241462,
            "time": 273.39409188541663,
            "velocity": 0.3937007874015748
          },
          {
            "duration": 0.10869550000001027,
            "durationTicks": 96,
            "midi": 35,
            "name": "B1",
            "ticks": 241462,
            "time": 273.39409188541663,
            "velocity": 0.3937007874015748
          },
          {
            "duration": 0.10869550000001027,
            "durationTicks": 96,
            "midi": 36,
            "name": "C2",
            "ticks": 241462,
            "time": 273.39409188541663,
            "velocity": 0.3937007874015748
          },
          {
            "duration": 0.10869550000001027,
            "durationTicks": 96,
            "midi": 60,
            "name": "C4",
            "ticks": 241462,
            "time": 273.39409188541663,
            "velocity": 0.3937007874015748
          },
          {
            "duration": 0.10869550000001027,
            "durationTicks": 96,
            "midi": 48,
            "name": "C3",
            "ticks": 241462,
            "time": 273.39409188541663,
            "velocity": 0.3937007874015748
          },
          {
            "duration": 0.21739100000002054,
            "durationTicks": 192,
            "midi": 35,
            "name": "B1",
            "ticks": 241558,
            "time": 273.50278738541664,
            "velocity": 0.3937007874015748
          },
          {
            "duration": 0.10869550000001027,
            "durationTicks": 96,
            "midi": 62,
            "name": "D4",
            "ticks": 241558,
            "time": 273.50278738541664,
            "velocity": 0.3937007874015748
          },
          {
            "duration": 0.21739100000002054,
            "durationTicks": 192,
            "midi": 69,
            "name": "A4",
            "ticks": 241558,
            "time": 273.50278738541664,
            "velocity": 0.3937007874015748
          },
          {
            "duration": 0.10869550000001027,
            "durationTicks": 96,
            "midi": 54,
            "name": "F#3",
            "ticks": 241558,
            "time": 273.50278738541664,
            "velocity": 0.3937007874015748
          },
          {
            "duration": 0.10869550000001027,
            "durationTicks": 96,
            "midi": 26,
            "name": "D1",
            "ticks": 241558,
            "time": 273.50278738541664,
            "velocity": 0.3937007874015748
          },
          {
            "duration": 0.21739100000002054,
            "durationTicks": 192,
            "midi": 74,
            "name": "D5",
            "ticks": 241558,
            "time": 273.50278738541664,
            "velocity": 0.3937007874015748
          },
          {
            "duration": 0.21739100000002054,
            "durationTicks": 192,
            "midi": 86,
            "name": "D6",
            "ticks": 241558,
            "time": 273.50278738541664,
            "velocity": 0.3937007874015748
          },
          {
            "duration": 0.10869550000001027,
            "durationTicks": 96,
            "midi": 38,
            "name": "D2",
            "ticks": 241558,
            "time": 273.50278738541664,
            "velocity": 0.3937007874015748
          },
          {
            "duration": 0.21739100000002054,
            "durationTicks": 192,
            "midi": 81,
            "name": "A5",
            "ticks": 241558,
            "time": 273.50278738541664,
            "velocity": 0.3937007874015748
          },
          {
            "duration": 0.10869550000001027,
            "durationTicks": 96,
            "midi": 57,
            "name": "A3",
            "ticks": 241558,
            "time": 273.50278738541664,
            "velocity": 0.3937007874015748
          },
          {
            "duration": 0.10869550000001027,
            "durationTicks": 96,
            "midi": 57,
            "name": "A3",
            "ticks": 241654,
            "time": 273.61148288541665,
            "velocity": 0.3937007874015748
          },
          {
            "duration": 0.10869550000001027,
            "durationTicks": 96,
            "midi": 54,
            "name": "F#3",
            "ticks": 241654,
            "time": 273.61148288541665,
            "velocity": 0.3937007874015748
          },
          {
            "duration": 0.10869550000001027,
            "durationTicks": 96,
            "midi": 62,
            "name": "D4",
            "ticks": 241654,
            "time": 273.61148288541665,
            "velocity": 0.3937007874015748
          },
          {
            "duration": 0.10869550000001027,
            "durationTicks": 96,
            "midi": 62,
            "name": "D4",
            "ticks": 241750,
            "time": 273.72017838541666,
            "velocity": 0.3937007874015748
          },
          {
            "duration": 0.10869550000001027,
            "durationTicks": 96,
            "midi": 50,
            "name": "D3",
            "ticks": 241750,
            "time": 273.72017838541666,
            "velocity": 0.3937007874015748
          },
          {
            "duration": 0.2173909999999637,
            "durationTicks": 192,
            "midi": 83,
            "name": "B5",
            "ticks": 241750,
            "time": 273.72017838541666,
            "velocity": 0.3937007874015748
          },
          {
            "duration": 0.2173909999999637,
            "durationTicks": 192,
            "midi": 88,
            "name": "E6",
            "ticks": 241750,
            "time": 273.72017838541666,
            "velocity": 0.3937007874015748
          },
          {
            "duration": 0.2173909999999637,
            "durationTicks": 192,
            "midi": 71,
            "name": "B4",
            "ticks": 241750,
            "time": 273.72017838541666,
            "velocity": 0.3937007874015748
          },
          {
            "duration": 0.10869550000001027,
            "durationTicks": 96,
            "midi": 57,
            "name": "A3",
            "ticks": 241750,
            "time": 273.72017838541666,
            "velocity": 0.3937007874015748
          },
          {
            "duration": 0.10869550000001027,
            "durationTicks": 96,
            "midi": 54,
            "name": "F#3",
            "ticks": 241750,
            "time": 273.72017838541666,
            "velocity": 0.3937007874015748
          },
          {
            "duration": 0.10869550000001027,
            "durationTicks": 96,
            "midi": 38,
            "name": "D2",
            "ticks": 241750,
            "time": 273.72017838541666,
            "velocity": 0.3937007874015748
          },
          {
            "duration": 0.2173909999999637,
            "durationTicks": 192,
            "midi": 76,
            "name": "E5",
            "ticks": 241750,
            "time": 273.72017838541666,
            "velocity": 0.3937007874015748
          },
          {
            "duration": 0.10869549999995343,
            "durationTicks": 96,
            "midi": 57,
            "name": "A3",
            "ticks": 241846,
            "time": 273.82887388541667,
            "velocity": 0.3937007874015748
          },
          {
            "duration": 0.10869549999995343,
            "durationTicks": 96,
            "midi": 62,
            "name": "D4",
            "ticks": 241846,
            "time": 273.82887388541667,
            "velocity": 0.3937007874015748
          },
          {
            "duration": 0.10869549999995343,
            "durationTicks": 96,
            "midi": 50,
            "name": "D3",
            "ticks": 241846,
            "time": 273.82887388541667,
            "velocity": 0.3937007874015748
          },
          {
            "duration": 0.10869549999995343,
            "durationTicks": 96,
            "midi": 38,
            "name": "D2",
            "ticks": 241846,
            "time": 273.82887388541667,
            "velocity": 0.3937007874015748
          },
          {
            "duration": 0.10869549999995343,
            "durationTicks": 96,
            "midi": 54,
            "name": "F#3",
            "ticks": 241846,
            "time": 273.82887388541667,
            "velocity": 0.3937007874015748
          },
          {
            "duration": 0.10869550000001027,
            "durationTicks": 96,
            "midi": 57,
            "name": "A3",
            "ticks": 241942,
            "time": 273.9375693854166,
            "velocity": 0.3937007874015748
          },
          {
            "duration": 0.21739100000002054,
            "durationTicks": 192,
            "midi": 67,
            "name": "G4",
            "ticks": 241942,
            "time": 273.9375693854166,
            "velocity": 0.3937007874015748
          },
          {
            "duration": 0.21739100000002054,
            "durationTicks": 192,
            "midi": 35,
            "name": "B1",
            "ticks": 241942,
            "time": 273.9375693854166,
            "velocity": 0.3937007874015748
          },
          {
            "duration": 0.10869550000001027,
            "durationTicks": 96,
            "midi": 38,
            "name": "D2",
            "ticks": 241942,
            "time": 273.9375693854166,
            "velocity": 0.3937007874015748
          },
          {
            "duration": 0.21739100000002054,
            "durationTicks": 192,
            "midi": 79,
            "name": "G5",
            "ticks": 241942,
            "time": 273.9375693854166,
            "velocity": 0.3937007874015748
          },
          {
            "duration": 0.21739100000002054,
            "durationTicks": 192,
            "midi": 71,
            "name": "B4",
            "ticks": 241942,
            "time": 273.9375693854166,
            "velocity": 0.3937007874015748
          },
          {
            "duration": 0.10869550000001027,
            "durationTicks": 96,
            "midi": 54,
            "name": "F#3",
            "ticks": 241942,
            "time": 273.9375693854166,
            "velocity": 0.3937007874015748
          },
          {
            "duration": 0.21739100000002054,
            "durationTicks": 192,
            "midi": 83,
            "name": "B5",
            "ticks": 241942,
            "time": 273.9375693854166,
            "velocity": 0.3937007874015748
          },
          {
            "duration": 0.10869550000001027,
            "durationTicks": 96,
            "midi": 62,
            "name": "D4",
            "ticks": 241942,
            "time": 273.9375693854166,
            "velocity": 0.3937007874015748
          },
          {
            "duration": 0.10869550000001027,
            "durationTicks": 96,
            "midi": 26,
            "name": "D1",
            "ticks": 241942,
            "time": 273.9375693854166,
            "velocity": 0.3937007874015748
          },
          {
            "duration": 0.10869550000001027,
            "durationTicks": 96,
            "midi": 62,
            "name": "D4",
            "ticks": 242038,
            "time": 274.04626488541663,
            "velocity": 0.3937007874015748
          },
          {
            "duration": 0.10869550000001027,
            "durationTicks": 96,
            "midi": 50,
            "name": "D3",
            "ticks": 242038,
            "time": 274.04626488541663,
            "velocity": 0.3937007874015748
          },
          {
            "duration": 0.10869550000001027,
            "durationTicks": 96,
            "midi": 38,
            "name": "D2",
            "ticks": 242038,
            "time": 274.04626488541663,
            "velocity": 0.3937007874015748
          },
          {
            "duration": 0.10869550000001027,
            "durationTicks": 96,
            "midi": 54,
            "name": "F#3",
            "ticks": 242038,
            "time": 274.04626488541663,
            "velocity": 0.3937007874015748
          },
          {
            "duration": 0.10869550000001027,
            "durationTicks": 96,
            "midi": 57,
            "name": "A3",
            "ticks": 242038,
            "time": 274.04626488541663,
            "velocity": 0.3937007874015748
          },
          {
            "duration": 0.21739100000002054,
            "durationTicks": 192,
            "midi": 81,
            "name": "A5",
            "ticks": 242134,
            "time": 274.15496038541664,
            "velocity": 0.3937007874015748
          },
          {
            "duration": 0.21739100000002054,
            "durationTicks": 192,
            "midi": 66,
            "name": "F#4",
            "ticks": 242134,
            "time": 274.15496038541664,
            "velocity": 0.3937007874015748
          },
          {
            "duration": 0.10869550000001027,
            "durationTicks": 96,
            "midi": 54,
            "name": "F#3",
            "ticks": 242134,
            "time": 274.15496038541664,
            "velocity": 0.3937007874015748
          },
          {
            "duration": 0.10869550000001027,
            "durationTicks": 96,
            "midi": 57,
            "name": "A3",
            "ticks": 242134,
            "time": 274.15496038541664,
            "velocity": 0.3937007874015748
          },
          {
            "duration": 0.10869550000001027,
            "durationTicks": 96,
            "midi": 48,
            "name": "C3",
            "ticks": 242134,
            "time": 274.15496038541664,
            "velocity": 0.3937007874015748
          },
          {
            "duration": 0.10869550000001027,
            "durationTicks": 96,
            "midi": 62,
            "name": "D4",
            "ticks": 242134,
            "time": 274.15496038541664,
            "velocity": 0.3937007874015748
          },
          {
            "duration": 0.10869550000001027,
            "durationTicks": 96,
            "midi": 36,
            "name": "C2",
            "ticks": 242134,
            "time": 274.15496038541664,
            "velocity": 0.3937007874015748
          },
          {
            "duration": 0.21739100000002054,
            "durationTicks": 192,
            "midi": 69,
            "name": "A4",
            "ticks": 242134,
            "time": 274.15496038541664,
            "velocity": 0.3937007874015748
          },
          {
            "duration": 0.21739100000002054,
            "durationTicks": 192,
            "midi": 78,
            "name": "F#5",
            "ticks": 242134,
            "time": 274.15496038541664,
            "velocity": 0.3937007874015748
          },
          {
            "duration": 0.10869550000001027,
            "durationTicks": 96,
            "midi": 62,
            "name": "D4",
            "ticks": 242230,
            "time": 274.26365588541665,
            "velocity": 0.3937007874015748
          },
          {
            "duration": 0.10869550000001027,
            "durationTicks": 96,
            "midi": 57,
            "name": "A3",
            "ticks": 242230,
            "time": 274.26365588541665,
            "velocity": 0.3937007874015748
          },
          {
            "duration": 0.10869550000001027,
            "durationTicks": 96,
            "midi": 50,
            "name": "D3",
            "ticks": 242230,
            "time": 274.26365588541665,
            "velocity": 0.3937007874015748
          },
          {
            "duration": 0.10869550000001027,
            "durationTicks": 96,
            "midi": 54,
            "name": "F#3",
            "ticks": 242230,
            "time": 274.26365588541665,
            "velocity": 0.3937007874015748
          },
          {
            "duration": 0.10869550000001027,
            "durationTicks": 96,
            "midi": 38,
            "name": "D2",
            "ticks": 242230,
            "time": 274.26365588541665,
            "velocity": 0.3937007874015748
          },
          {
            "duration": 0.2173909999999637,
            "durationTicks": 192,
            "midi": 35,
            "name": "B1",
            "ticks": 242326,
            "time": 274.37235138541666,
            "velocity": 0.3937007874015748
          },
          {
            "duration": 0.2173909999999637,
            "durationTicks": 192,
            "midi": 83,
            "name": "B5",
            "ticks": 242326,
            "time": 274.37235138541666,
            "velocity": 0.3937007874015748
          },
          {
            "duration": 0.10869550000001027,
            "durationTicks": 96,
            "midi": 62,
            "name": "D4",
            "ticks": 242326,
            "time": 274.37235138541666,
            "velocity": 0.3937007874015748
          },
          {
            "duration": 0.2173909999999637,
            "durationTicks": 192,
            "midi": 79,
            "name": "G5",
            "ticks": 242326,
            "time": 274.37235138541666,
            "velocity": 0.3937007874015748
          },
          {
            "duration": 0.10869550000001027,
            "durationTicks": 96,
            "midi": 26,
            "name": "D1",
            "ticks": 242326,
            "time": 274.37235138541666,
            "velocity": 0.3937007874015748
          },
          {
            "duration": 0.2173909999999637,
            "durationTicks": 192,
            "midi": 67,
            "name": "G4",
            "ticks": 242326,
            "time": 274.37235138541666,
            "velocity": 0.3937007874015748
          },
          {
            "duration": 0.10869550000001027,
            "durationTicks": 96,
            "midi": 57,
            "name": "A3",
            "ticks": 242326,
            "time": 274.37235138541666,
            "velocity": 0.3937007874015748
          },
          {
            "duration": 0.2173909999999637,
            "durationTicks": 192,
            "midi": 71,
            "name": "B4",
            "ticks": 242326,
            "time": 274.37235138541666,
            "velocity": 0.3937007874015748
          },
          {
            "duration": 0.10869550000001027,
            "durationTicks": 96,
            "midi": 54,
            "name": "F#3",
            "ticks": 242326,
            "time": 274.37235138541666,
            "velocity": 0.3937007874015748
          },
          {
            "duration": 0.10869550000001027,
            "durationTicks": 96,
            "midi": 38,
            "name": "D2",
            "ticks": 242326,
            "time": 274.37235138541666,
            "velocity": 0.3937007874015748
          },
          {
            "duration": 0.10869549999995343,
            "durationTicks": 96,
            "midi": 62,
            "name": "D4",
            "ticks": 242422,
            "time": 274.4810468854167,
            "velocity": 0.3937007874015748
          },
          {
            "duration": 0.10869549999995343,
            "durationTicks": 96,
            "midi": 57,
            "name": "A3",
            "ticks": 242422,
            "time": 274.4810468854167,
            "velocity": 0.3937007874015748
          },
          {
            "duration": 0.10869549999995343,
            "durationTicks": 96,
            "midi": 54,
            "name": "F#3",
            "ticks": 242422,
            "time": 274.4810468854167,
            "velocity": 0.3937007874015748
          },
          {
            "duration": 0.10869550000001027,
            "durationTicks": 96,
            "midi": 62,
            "name": "D4",
            "ticks": 242518,
            "time": 274.5897423854166,
            "velocity": 0.3937007874015748
          },
          {
            "duration": 0.10869550000001027,
            "durationTicks": 96,
            "midi": 54,
            "name": "F#3",
            "ticks": 242518,
            "time": 274.5897423854166,
            "velocity": 0.3937007874015748
          },
          {
            "duration": 0.10869550000001027,
            "durationTicks": 96,
            "midi": 57,
            "name": "A3",
            "ticks": 242518,
            "time": 274.5897423854166,
            "velocity": 0.3937007874015748
          },
          {
            "duration": 0.10869550000001027,
            "durationTicks": 96,
            "midi": 38,
            "name": "D2",
            "ticks": 242518,
            "time": 274.5897423854166,
            "velocity": 0.3937007874015748
          },
          {
            "duration": 0.10869550000001027,
            "durationTicks": 96,
            "midi": 50,
            "name": "D3",
            "ticks": 242518,
            "time": 274.5897423854166,
            "velocity": 0.3937007874015748
          },
          {
            "duration": 0.10869550000001027,
            "durationTicks": 96,
            "midi": 50,
            "name": "D3",
            "ticks": 242614,
            "time": 274.69843788541664,
            "velocity": 0.3937007874015748
          },
          {
            "duration": 0.10869550000001027,
            "durationTicks": 96,
            "midi": 57,
            "name": "A3",
            "ticks": 242614,
            "time": 274.69843788541664,
            "velocity": 0.3937007874015748
          },
          {
            "duration": 0.10869550000001027,
            "durationTicks": 96,
            "midi": 62,
            "name": "D4",
            "ticks": 242614,
            "time": 274.69843788541664,
            "velocity": 0.3937007874015748
          },
          {
            "duration": 0.10869550000001027,
            "durationTicks": 96,
            "midi": 38,
            "name": "D2",
            "ticks": 242614,
            "time": 274.69843788541664,
            "velocity": 0.3937007874015748
          },
          {
            "duration": 0.10869550000001027,
            "durationTicks": 96,
            "midi": 54,
            "name": "F#3",
            "ticks": 242614,
            "time": 274.69843788541664,
            "velocity": 0.3937007874015748
          },
          {
            "duration": 0.21739100000002054,
            "durationTicks": 192,
            "midi": 81,
            "name": "A5",
            "ticks": 242710,
            "time": 274.80713338541665,
            "velocity": 0.3937007874015748
          },
          {
            "duration": 0.10869550000001027,
            "durationTicks": 96,
            "midi": 26,
            "name": "D1",
            "ticks": 242710,
            "time": 274.80713338541665,
            "velocity": 0.3937007874015748
          },
          {
            "duration": 0.10869550000001027,
            "durationTicks": 96,
            "midi": 54,
            "name": "F#3",
            "ticks": 242710,
            "time": 274.80713338541665,
            "velocity": 0.3937007874015748
          },
          {
            "duration": 0.21739100000002054,
            "durationTicks": 192,
            "midi": 66,
            "name": "F#4",
            "ticks": 242710,
            "time": 274.80713338541665,
            "velocity": 0.3937007874015748
          },
          {
            "duration": 0.21739100000002054,
            "durationTicks": 192,
            "midi": 78,
            "name": "F#5",
            "ticks": 242710,
            "time": 274.80713338541665,
            "velocity": 0.3937007874015748
          },
          {
            "duration": 0.21739100000002054,
            "durationTicks": 192,
            "midi": 69,
            "name": "A4",
            "ticks": 242710,
            "time": 274.80713338541665,
            "velocity": 0.3937007874015748
          },
          {
            "duration": 0.10869550000001027,
            "durationTicks": 96,
            "midi": 57,
            "name": "A3",
            "ticks": 242710,
            "time": 274.80713338541665,
            "velocity": 0.3937007874015748
          },
          {
            "duration": 0.10869550000001027,
            "durationTicks": 96,
            "midi": 38,
            "name": "D2",
            "ticks": 242710,
            "time": 274.80713338541665,
            "velocity": 0.3937007874015748
          },
          {
            "duration": 0.10869550000001027,
            "durationTicks": 96,
            "midi": 62,
            "name": "D4",
            "ticks": 242710,
            "time": 274.80713338541665,
            "velocity": 0.3937007874015748
          },
          {
            "duration": 0.21739100000002054,
            "durationTicks": 192,
            "midi": 35,
            "name": "B1",
            "ticks": 242710,
            "time": 274.80713338541665,
            "velocity": 0.3937007874015748
          },
          {
            "duration": 0.10869550000001027,
            "durationTicks": 96,
            "midi": 62,
            "name": "D4",
            "ticks": 242806,
            "time": 274.91582888541666,
            "velocity": 0.3937007874015748
          },
          {
            "duration": 0.10869550000001027,
            "durationTicks": 96,
            "midi": 57,
            "name": "A3",
            "ticks": 242806,
            "time": 274.91582888541666,
            "velocity": 0.3937007874015748
          },
          {
            "duration": 0.10869550000001027,
            "durationTicks": 96,
            "midi": 38,
            "name": "D2",
            "ticks": 242806,
            "time": 274.91582888541666,
            "velocity": 0.3937007874015748
          },
          {
            "duration": 0.10869550000001027,
            "durationTicks": 96,
            "midi": 50,
            "name": "D3",
            "ticks": 242806,
            "time": 274.91582888541666,
            "velocity": 0.3937007874015748
          },
          {
            "duration": 0.10869550000001027,
            "durationTicks": 96,
            "midi": 54,
            "name": "F#3",
            "ticks": 242806,
            "time": 274.91582888541666,
            "velocity": 0.3937007874015748
          },
          {
            "duration": 0.2173909999999637,
            "durationTicks": 192,
            "midi": 83,
            "name": "B5",
            "ticks": 242902,
            "time": 275.02452438541667,
            "velocity": 0.3937007874015748
          },
          {
            "duration": 0.2173909999999637,
            "durationTicks": 192,
            "midi": 79,
            "name": "G5",
            "ticks": 242902,
            "time": 275.02452438541667,
            "velocity": 0.3937007874015748
          },
          {
            "duration": 0.2173909999999637,
            "durationTicks": 192,
            "midi": 35,
            "name": "B1",
            "ticks": 242902,
            "time": 275.02452438541667,
            "velocity": 0.3937007874015748
          },
          {
            "duration": 0.10869550000001027,
            "durationTicks": 96,
            "midi": 48,
            "name": "C3",
            "ticks": 242902,
            "time": 275.02452438541667,
            "velocity": 0.3937007874015748
          },
          {
            "duration": 0.2173909999999637,
            "durationTicks": 192,
            "midi": 67,
            "name": "G4",
            "ticks": 242902,
            "time": 275.02452438541667,
            "velocity": 0.3937007874015748
          },
          {
            "duration": 0.10869550000001027,
            "durationTicks": 96,
            "midi": 36,
            "name": "C2",
            "ticks": 242902,
            "time": 275.02452438541667,
            "velocity": 0.3937007874015748
          },
          {
            "duration": 0.10869550000001027,
            "durationTicks": 96,
            "midi": 62,
            "name": "D4",
            "ticks": 242902,
            "time": 275.02452438541667,
            "velocity": 0.3937007874015748
          },
          {
            "duration": 0.2173909999999637,
            "durationTicks": 192,
            "midi": 71,
            "name": "B4",
            "ticks": 242902,
            "time": 275.02452438541667,
            "velocity": 0.3937007874015748
          },
          {
            "duration": 0.10869550000001027,
            "durationTicks": 96,
            "midi": 57,
            "name": "A3",
            "ticks": 242902,
            "time": 275.02452438541667,
            "velocity": 0.3937007874015748
          },
          {
            "duration": 0.10869550000001027,
            "durationTicks": 96,
            "midi": 54,
            "name": "F#3",
            "ticks": 242902,
            "time": 275.02452438541667,
            "velocity": 0.3937007874015748
          },
          {
            "duration": 0.10869549999995343,
            "durationTicks": 96,
            "midi": 38,
            "name": "D2",
            "ticks": 242998,
            "time": 275.1332198854167,
            "velocity": 0.3937007874015748
          },
          {
            "duration": 0.10869549999995343,
            "durationTicks": 96,
            "midi": 50,
            "name": "D3",
            "ticks": 242998,
            "time": 275.1332198854167,
            "velocity": 0.3937007874015748
          },
          {
            "duration": 0.10869549999995343,
            "durationTicks": 96,
            "midi": 57,
            "name": "A3",
            "ticks": 242998,
            "time": 275.1332198854167,
            "velocity": 0.3937007874015748
          },
          {
            "duration": 0.10869549999995343,
            "durationTicks": 96,
            "midi": 62,
            "name": "D4",
            "ticks": 242998,
            "time": 275.1332198854167,
            "velocity": 0.3937007874015748
          },
          {
            "duration": 0.10869549999995343,
            "durationTicks": 96,
            "midi": 54,
            "name": "F#3",
            "ticks": 242998,
            "time": 275.1332198854167,
            "velocity": 0.3937007874015748
          },
          {
            "duration": 0.21739100000002054,
            "durationTicks": 192,
            "midi": 69,
            "name": "A4",
            "ticks": 243094,
            "time": 275.24191538541663,
            "velocity": 0.3937007874015748
          },
          {
            "duration": 0.21739100000002054,
            "durationTicks": 192,
            "midi": 35,
            "name": "B1",
            "ticks": 243094,
            "time": 275.24191538541663,
            "velocity": 0.3937007874015748
          },
          {
            "duration": 0.10869550000001027,
            "durationTicks": 96,
            "midi": 64,
            "name": "E4",
            "ticks": 243094,
            "time": 275.24191538541663,
            "velocity": 0.3937007874015748
          },
          {
            "duration": 0.10869550000001027,
            "durationTicks": 96,
            "midi": 40,
            "name": "E2",
            "ticks": 243094,
            "time": 275.24191538541663,
            "velocity": 0.3937007874015748
          },
          {
            "duration": 0.10869550000001027,
            "durationTicks": 96,
            "midi": 55,
            "name": "G3",
            "ticks": 243094,
            "time": 275.24191538541663,
            "velocity": 0.3937007874015748
          },
          {
            "duration": 0.21739100000002054,
            "durationTicks": 192,
            "midi": 78,
            "name": "F#5",
            "ticks": 243094,
            "time": 275.24191538541663,
            "velocity": 0.3937007874015748
          },
          {
            "duration": 0.10869550000001027,
            "durationTicks": 96,
            "midi": 28,
            "name": "E1",
            "ticks": 243094,
            "time": 275.24191538541663,
            "velocity": 0.3937007874015748
          },
          {
            "duration": 0.21739100000002054,
            "durationTicks": 192,
            "midi": 81,
            "name": "A5",
            "ticks": 243094,
            "time": 275.24191538541663,
            "velocity": 0.3937007874015748
          },
          {
            "duration": 0.21739100000002054,
            "durationTicks": 192,
            "midi": 66,
            "name": "F#4",
            "ticks": 243094,
            "time": 275.24191538541663,
            "velocity": 0.3937007874015748
          },
          {
            "duration": 0.10869550000001027,
            "durationTicks": 96,
            "midi": 59,
            "name": "B3",
            "ticks": 243094,
            "time": 275.24191538541663,
            "velocity": 0.3937007874015748
          },
          {
            "duration": 0.10869550000001027,
            "durationTicks": 96,
            "midi": 55,
            "name": "G3",
            "ticks": 243190,
            "time": 275.35061088541664,
            "velocity": 0.3937007874015748
          },
          {
            "duration": 0.10869550000001027,
            "durationTicks": 96,
            "midi": 59,
            "name": "B3",
            "ticks": 243190,
            "time": 275.35061088541664,
            "velocity": 0.3937007874015748
          },
          {
            "duration": 0.10869550000001027,
            "durationTicks": 96,
            "midi": 64,
            "name": "E4",
            "ticks": 243190,
            "time": 275.35061088541664,
            "velocity": 0.3937007874015748
          },
          {
            "duration": 0.21739100000002054,
            "durationTicks": 192,
            "midi": 76,
            "name": "E5",
            "ticks": 243286,
            "time": 275.45930638541665,
            "velocity": 0.3937007874015748
          },
          {
            "duration": 0.21739100000002054,
            "durationTicks": 192,
            "midi": 79,
            "name": "G5",
            "ticks": 243286,
            "time": 275.45930638541665,
            "velocity": 0.3937007874015748
          },
          {
            "duration": 0.10869550000001027,
            "durationTicks": 96,
            "midi": 52,
            "name": "E3",
            "ticks": 243286,
            "time": 275.45930638541665,
            "velocity": 0.3937007874015748
          },
          {
            "duration": 0.10869550000001027,
            "durationTicks": 96,
            "midi": 64,
            "name": "E4",
            "ticks": 243286,
            "time": 275.45930638541665,
            "velocity": 0.3937007874015748
          },
          {
            "duration": 0.21739100000002054,
            "durationTicks": 192,
            "midi": 67,
            "name": "G4",
            "ticks": 243286,
            "time": 275.45930638541665,
            "velocity": 0.3937007874015748
          },
          {
            "duration": 0.10869550000001027,
            "durationTicks": 96,
            "midi": 40,
            "name": "E2",
            "ticks": 243286,
            "time": 275.45930638541665,
            "velocity": 0.3937007874015748
          },
          {
            "duration": 0.21739100000002054,
            "durationTicks": 192,
            "midi": 64,
            "name": "E4",
            "ticks": 243286,
            "time": 275.45930638541665,
            "velocity": 0.3937007874015748
          },
          {
            "duration": 0.10869550000001027,
            "durationTicks": 96,
            "midi": 55,
            "name": "G3",
            "ticks": 243286,
            "time": 275.45930638541665,
            "velocity": 0.3937007874015748
          },
          {
            "duration": 0.10869550000001027,
            "durationTicks": 96,
            "midi": 59,
            "name": "B3",
            "ticks": 243286,
            "time": 275.45930638541665,
            "velocity": 0.3937007874015748
          },
          {
            "duration": 0.10869550000001027,
            "durationTicks": 96,
            "midi": 64,
            "name": "E4",
            "ticks": 243382,
            "time": 275.56800188541666,
            "velocity": 0.3937007874015748
          },
          {
            "duration": 0.10869550000001027,
            "durationTicks": 96,
            "midi": 40,
            "name": "E2",
            "ticks": 243382,
            "time": 275.56800188541666,
            "velocity": 0.3937007874015748
          },
          {
            "duration": 0.10869550000001027,
            "durationTicks": 96,
            "midi": 55,
            "name": "G3",
            "ticks": 243382,
            "time": 275.56800188541666,
            "velocity": 0.3937007874015748
          },
          {
            "duration": 0.10869550000001027,
            "durationTicks": 96,
            "midi": 59,
            "name": "B3",
            "ticks": 243382,
            "time": 275.56800188541666,
            "velocity": 0.3937007874015748
          },
          {
            "duration": 0.10869550000001027,
            "durationTicks": 96,
            "midi": 52,
            "name": "E3",
            "ticks": 243382,
            "time": 275.56800188541666,
            "velocity": 0.3937007874015748
          },
          {
            "duration": 0.2173909999999637,
            "durationTicks": 192,
            "midi": 78,
            "name": "F#5",
            "ticks": 243478,
            "time": 275.6766973854167,
            "velocity": 0.3937007874015748
          },
          {
            "duration": 0.2173909999999637,
            "durationTicks": 192,
            "midi": 62,
            "name": "D4",
            "ticks": 243478,
            "time": 275.6766973854167,
            "velocity": 0.3937007874015748
          },
          {
            "duration": 0.10869549999995343,
            "durationTicks": 96,
            "midi": 59,
            "name": "B3",
            "ticks": 243478,
            "time": 275.6766973854167,
            "velocity": 0.3937007874015748
          },
          {
            "duration": 0.10869549999995343,
            "durationTicks": 96,
            "midi": 40,
            "name": "E2",
            "ticks": 243478,
            "time": 275.6766973854167,
            "velocity": 0.3937007874015748
          },
          {
            "duration": 0.10869549999995343,
            "durationTicks": 96,
            "midi": 55,
            "name": "G3",
            "ticks": 243478,
            "time": 275.6766973854167,
            "velocity": 0.3937007874015748
          },
          {
            "duration": 0.2173909999999637,
            "durationTicks": 192,
            "midi": 66,
            "name": "F#4",
            "ticks": 243478,
            "time": 275.6766973854167,
            "velocity": 0.3937007874015748
          },
          {
            "duration": 0.10869549999995343,
            "durationTicks": 96,
            "midi": 64,
            "name": "E4",
            "ticks": 243478,
            "time": 275.6766973854167,
            "velocity": 0.3937007874015748
          },
          {
            "duration": 0.2173909999999637,
            "durationTicks": 192,
            "midi": 74,
            "name": "D5",
            "ticks": 243478,
            "time": 275.6766973854167,
            "velocity": 0.3937007874015748
          },
          {
            "duration": 0.10869549999995343,
            "durationTicks": 96,
            "midi": 28,
            "name": "E1",
            "ticks": 243478,
            "time": 275.6766973854167,
            "velocity": 0.3937007874015748
          },
          {
            "duration": 0.2173909999999637,
            "durationTicks": 192,
            "midi": 35,
            "name": "B1",
            "ticks": 243478,
            "time": 275.6766973854167,
            "velocity": 0.3937007874015748
          },
          {
            "duration": 0.10869550000001027,
            "durationTicks": 96,
            "midi": 52,
            "name": "E3",
            "ticks": 243574,
            "time": 275.7853928854166,
            "velocity": 0.3937007874015748
          },
          {
            "duration": 0.10869550000001027,
            "durationTicks": 96,
            "midi": 40,
            "name": "E2",
            "ticks": 243574,
            "time": 275.7853928854166,
            "velocity": 0.3937007874015748
          },
          {
            "duration": 0.10869550000001027,
            "durationTicks": 96,
            "midi": 59,
            "name": "B3",
            "ticks": 243574,
            "time": 275.7853928854166,
            "velocity": 0.3937007874015748
          },
          {
            "duration": 0.10869550000001027,
            "durationTicks": 96,
            "midi": 64,
            "name": "E4",
            "ticks": 243574,
            "time": 275.7853928854166,
            "velocity": 0.3937007874015748
          },
          {
            "duration": 0.10869550000001027,
            "durationTicks": 96,
            "midi": 55,
            "name": "G3",
            "ticks": 243574,
            "time": 275.7853928854166,
            "velocity": 0.3937007874015748
          },
          {
            "duration": 0.21739100000002054,
            "durationTicks": 192,
            "midi": 74,
            "name": "D5",
            "ticks": 243670,
            "time": 275.89408838541664,
            "velocity": 0.3937007874015748
          },
          {
            "duration": 0.10869550000001027,
            "durationTicks": 96,
            "midi": 50,
            "name": "D3",
            "ticks": 243670,
            "time": 275.89408838541664,
            "velocity": 0.3937007874015748
          },
          {
            "duration": 0.10869550000001027,
            "durationTicks": 96,
            "midi": 38,
            "name": "D2",
            "ticks": 243670,
            "time": 275.89408838541664,
            "velocity": 0.3937007874015748
          },
          {
            "duration": 0.10869550000001027,
            "durationTicks": 96,
            "midi": 55,
            "name": "G3",
            "ticks": 243670,
            "time": 275.89408838541664,
            "velocity": 0.3937007874015748
          },
          {
            "duration": 0.21739100000002054,
            "durationTicks": 192,
            "midi": 57,
            "name": "A3",
            "ticks": 243670,
            "time": 275.89408838541664,
            "velocity": 0.3937007874015748
          },
          {
            "duration": 0.21739100000002054,
            "durationTicks": 192,
            "midi": 69,
            "name": "A4",
            "ticks": 243670,
            "time": 275.89408838541664,
            "velocity": 0.3937007874015748
          },
          {
            "duration": 0.10869550000001027,
            "durationTicks": 96,
            "midi": 64,
            "name": "E4",
            "ticks": 243670,
            "time": 275.89408838541664,
            "velocity": 0.3937007874015748
          },
          {
            "duration": 0.10869550000001027,
            "durationTicks": 96,
            "midi": 59,
            "name": "B3",
            "ticks": 243670,
            "time": 275.89408838541664,
            "velocity": 0.3937007874015748
          },
          {
            "duration": 0.21739100000002054,
            "durationTicks": 192,
            "midi": 62,
            "name": "D4",
            "ticks": 243670,
            "time": 275.89408838541664,
            "velocity": 0.3937007874015748
          },
          {
            "duration": 0.10869550000001027,
            "durationTicks": 96,
            "midi": 64,
            "name": "E4",
            "ticks": 243766,
            "time": 276.00278388541665,
            "velocity": 0.3937007874015748
          },
          {
            "duration": 0.10869550000001027,
            "durationTicks": 96,
            "midi": 52,
            "name": "E3",
            "ticks": 243766,
            "time": 276.00278388541665,
            "velocity": 0.3937007874015748
          },
          {
            "duration": 0.10869550000001027,
            "durationTicks": 96,
            "midi": 55,
            "name": "G3",
            "ticks": 243766,
            "time": 276.00278388541665,
            "velocity": 0.3937007874015748
          },
          {
            "duration": 0.10869550000001027,
            "durationTicks": 96,
            "midi": 59,
            "name": "B3",
            "ticks": 243766,
            "time": 276.00278388541665,
            "velocity": 0.3937007874015748
          },
          {
            "duration": 0.10869550000001027,
            "durationTicks": 96,
            "midi": 40,
            "name": "E2",
            "ticks": 243766,
            "time": 276.00278388541665,
            "velocity": 0.3937007874015748
          },
          {
            "duration": 0.10869550000001027,
            "durationTicks": 96,
            "midi": 59,
            "name": "B3",
            "ticks": 243862,
            "time": 276.11147938541666,
            "velocity": 0.3937007874015748
          },
          {
            "duration": 0.10869550000001027,
            "durationTicks": 96,
            "midi": 55,
            "name": "G3",
            "ticks": 243862,
            "time": 276.11147938541666,
            "velocity": 0.3937007874015748
          },
          {
            "duration": 0.21739100000002054,
            "durationTicks": 192,
            "midi": 71,
            "name": "B4",
            "ticks": 243862,
            "time": 276.11147938541666,
            "velocity": 0.3937007874015748
          },
          {
            "duration": 0.10869550000001027,
            "durationTicks": 96,
            "midi": 28,
            "name": "E1",
            "ticks": 243862,
            "time": 276.11147938541666,
            "velocity": 0.3937007874015748
          },
          {
            "duration": 0.21739100000002054,
            "durationTicks": 192,
            "midi": 59,
            "name": "B3",
            "ticks": 243862,
            "time": 276.11147938541666,
            "velocity": 0.3937007874015748
          },
          {
            "duration": 0.10869550000001027,
            "durationTicks": 96,
            "midi": 40,
            "name": "E2",
            "ticks": 243862,
            "time": 276.11147938541666,
            "velocity": 0.3937007874015748
          },
          {
            "duration": 0.10869550000001027,
            "durationTicks": 96,
            "midi": 64,
            "name": "E4",
            "ticks": 243862,
            "time": 276.11147938541666,
            "velocity": 0.3937007874015748
          },
          {
            "duration": 0.21739100000002054,
            "durationTicks": 192,
            "midi": 76,
            "name": "E5",
            "ticks": 243862,
            "time": 276.11147938541666,
            "velocity": 0.3937007874015748
          },
          {
            "duration": 0.21739100000002054,
            "durationTicks": 192,
            "midi": 64,
            "name": "E4",
            "ticks": 243862,
            "time": 276.11147938541666,
            "velocity": 0.3937007874015748
          },
          {
            "duration": 0.21739100000002054,
            "durationTicks": 192,
            "midi": 35,
            "name": "B1",
            "ticks": 243862,
            "time": 276.11147938541666,
            "velocity": 0.3937007874015748
          },
          {
            "duration": 0.10869550000001027,
            "durationTicks": 96,
            "midi": 59,
            "name": "B3",
            "ticks": 243958,
            "time": 276.22017488541667,
            "velocity": 0.3937007874015748
          },
          {
            "duration": 0.10869550000001027,
            "durationTicks": 96,
            "midi": 55,
            "name": "G3",
            "ticks": 243958,
            "time": 276.22017488541667,
            "velocity": 0.3937007874015748
          },
          {
            "duration": 0.10869550000001027,
            "durationTicks": 96,
            "midi": 64,
            "name": "E4",
            "ticks": 243958,
            "time": 276.22017488541667,
            "velocity": 0.3937007874015748
          },
          {
            "duration": 0.10869549999995343,
            "durationTicks": 96,
            "midi": 40,
            "name": "E2",
            "ticks": 244054,
            "time": 276.3288703854167,
            "velocity": 0.3937007874015748
          },
          {
            "duration": 0.10869549999995343,
            "durationTicks": 96,
            "midi": 55,
            "name": "G3",
            "ticks": 244054,
            "time": 276.3288703854167,
            "velocity": 0.3937007874015748
          },
          {
            "duration": 0.10869549999995343,
            "durationTicks": 96,
            "midi": 52,
            "name": "E3",
            "ticks": 244054,
            "time": 276.3288703854167,
            "velocity": 0.3937007874015748
          },
          {
            "duration": 0.10869549999995343,
            "durationTicks": 96,
            "midi": 59,
            "name": "B3",
            "ticks": 244054,
            "time": 276.3288703854167,
            "velocity": 0.3937007874015748
          },
          {
            "duration": 0.10869549999995343,
            "durationTicks": 96,
            "midi": 64,
            "name": "E4",
            "ticks": 244054,
            "time": 276.3288703854167,
            "velocity": 0.3937007874015748
          },
          {
            "duration": 0.10869550000001027,
            "durationTicks": 96,
            "midi": 55,
            "name": "G3",
            "ticks": 244150,
            "time": 276.43756588541663,
            "velocity": 0.3937007874015748
          },
          {
            "duration": 0.10869550000001027,
            "durationTicks": 96,
            "midi": 64,
            "name": "E4",
            "ticks": 244150,
            "time": 276.43756588541663,
            "velocity": 0.3937007874015748
          },
          {
            "duration": 0.10869550000001027,
            "durationTicks": 96,
            "midi": 59,
            "name": "B3",
            "ticks": 244150,
            "time": 276.43756588541663,
            "velocity": 0.3937007874015748
          },
          {
            "duration": 0.10869550000001027,
            "durationTicks": 96,
            "midi": 52,
            "name": "E3",
            "ticks": 244150,
            "time": 276.43756588541663,
            "velocity": 0.3937007874015748
          },
          {
            "duration": 0.10869550000001027,
            "durationTicks": 96,
            "midi": 40,
            "name": "E2",
            "ticks": 244150,
            "time": 276.43756588541663,
            "velocity": 0.3937007874015748
          },
          {
            "duration": 0.10869550000001027,
            "durationTicks": 96,
            "midi": 64,
            "name": "E4",
            "ticks": 244246,
            "time": 276.54626138541664,
            "velocity": 0.3937007874015748
          },
          {
            "duration": 0.10869550000001027,
            "durationTicks": 96,
            "midi": 59,
            "name": "B3",
            "ticks": 244246,
            "time": 276.54626138541664,
            "velocity": 0.3937007874015748
          },
          {
            "duration": 0.10869550000001027,
            "durationTicks": 96,
            "midi": 35,
            "name": "B1",
            "ticks": 244246,
            "time": 276.54626138541664,
            "velocity": 0.3937007874015748
          },
          {
            "duration": 0.10869550000001027,
            "durationTicks": 96,
            "midi": 40,
            "name": "E2",
            "ticks": 244246,
            "time": 276.54626138541664,
            "velocity": 0.3937007874015748
          },
          {
            "duration": 0.21739100000002054,
            "durationTicks": 192,
            "midi": 62,
            "name": "D4",
            "ticks": 244246,
            "time": 276.54626138541664,
            "velocity": 0.3937007874015748
          },
          {
            "duration": 0.21739100000002054,
            "durationTicks": 192,
            "midi": 57,
            "name": "A3",
            "ticks": 244246,
            "time": 276.54626138541664,
            "velocity": 0.3937007874015748
          },
          {
            "duration": 0.10869550000001027,
            "durationTicks": 96,
            "midi": 28,
            "name": "E1",
            "ticks": 244246,
            "time": 276.54626138541664,
            "velocity": 0.3937007874015748
          },
          {
            "duration": 0.21739100000002054,
            "durationTicks": 192,
            "midi": 74,
            "name": "D5",
            "ticks": 244246,
            "time": 276.54626138541664,
            "velocity": 0.3937007874015748
          },
          {
            "duration": 0.21739100000002054,
            "durationTicks": 192,
            "midi": 69,
            "name": "A4",
            "ticks": 244246,
            "time": 276.54626138541664,
            "velocity": 0.3937007874015748
          },
          {
            "duration": 0.10869550000001027,
            "durationTicks": 96,
            "midi": 55,
            "name": "G3",
            "ticks": 244246,
            "time": 276.54626138541664,
            "velocity": 0.3937007874015748
          },
          {
            "duration": 0.10869550000001027,
            "durationTicks": 96,
            "midi": 35,
            "name": "B1",
            "ticks": 244342,
            "time": 276.65495688541665,
            "velocity": 0.3937007874015748
          },
          {
            "duration": 0.10869550000001027,
            "durationTicks": 96,
            "midi": 40,
            "name": "E2",
            "ticks": 244342,
            "time": 276.65495688541665,
            "velocity": 0.3937007874015748
          },
          {
            "duration": 0.10869550000001027,
            "durationTicks": 96,
            "midi": 59,
            "name": "B3",
            "ticks": 244342,
            "time": 276.65495688541665,
            "velocity": 0.3937007874015748
          },
          {
            "duration": 0.10869550000001027,
            "durationTicks": 96,
            "midi": 52,
            "name": "E3",
            "ticks": 244342,
            "time": 276.65495688541665,
            "velocity": 0.3937007874015748
          },
          {
            "duration": 0.10869550000001027,
            "durationTicks": 96,
            "midi": 55,
            "name": "G3",
            "ticks": 244342,
            "time": 276.65495688541665,
            "velocity": 0.3937007874015748
          },
          {
            "duration": 0.10869550000001027,
            "durationTicks": 96,
            "midi": 64,
            "name": "E4",
            "ticks": 244342,
            "time": 276.65495688541665,
            "velocity": 0.3937007874015748
          },
          {
            "duration": 0.10869550000001027,
            "durationTicks": 96,
            "midi": 59,
            "name": "B3",
            "ticks": 244438,
            "time": 276.76365238541666,
            "velocity": 0.3937007874015748
          },
          {
            "duration": 0.10869550000001027,
            "durationTicks": 96,
            "midi": 50,
            "name": "D3",
            "ticks": 244438,
            "time": 276.76365238541666,
            "velocity": 0.3937007874015748
          },
          {
            "duration": 0.10869550000001027,
            "durationTicks": 96,
            "midi": 64,
            "name": "E4",
            "ticks": 244438,
            "time": 276.76365238541666,
            "velocity": 0.3937007874015748
          },
          {
            "duration": 0.2173909999999637,
            "durationTicks": 192,
            "midi": 64,
            "name": "E4",
            "ticks": 244438,
            "time": 276.76365238541666,
            "velocity": 0.3937007874015748
          },
          {
            "duration": 0.2173909999999637,
            "durationTicks": 192,
            "midi": 71,
            "name": "B4",
            "ticks": 244438,
            "time": 276.76365238541666,
            "velocity": 0.3937007874015748
          },
          {
            "duration": 0.2173909999999637,
            "durationTicks": 192,
            "midi": 59,
            "name": "B3",
            "ticks": 244438,
            "time": 276.76365238541666,
            "velocity": 0.3937007874015748
          },
          {
            "duration": 0.2173909999999637,
            "durationTicks": 192,
            "midi": 76,
            "name": "E5",
            "ticks": 244438,
            "time": 276.76365238541666,
            "velocity": 0.3937007874015748
          },
          {
            "duration": 0.10869550000001027,
            "durationTicks": 96,
            "midi": 38,
            "name": "D2",
            "ticks": 244438,
            "time": 276.76365238541666,
            "velocity": 0.3937007874015748
          },
          {
            "duration": 0.10869550000001027,
            "durationTicks": 96,
            "midi": 55,
            "name": "G3",
            "ticks": 244438,
            "time": 276.76365238541666,
            "velocity": 0.3937007874015748
          },
          {
            "duration": 0.10869550000001027,
            "durationTicks": 96,
            "midi": 35,
            "name": "B1",
            "ticks": 244438,
            "time": 276.76365238541666,
            "velocity": 0.3937007874015748
          },
          {
            "duration": 0.10869549999995343,
            "durationTicks": 96,
            "midi": 59,
            "name": "B3",
            "ticks": 244534,
            "time": 276.8723478854167,
            "velocity": 0.3937007874015748
          },
          {
            "duration": 0.10869549999995343,
            "durationTicks": 96,
            "midi": 64,
            "name": "E4",
            "ticks": 244534,
            "time": 276.8723478854167,
            "velocity": 0.3937007874015748
          },
          {
            "duration": 0.10869549999995343,
            "durationTicks": 96,
            "midi": 52,
            "name": "E3",
            "ticks": 244534,
            "time": 276.8723478854167,
            "velocity": 0.3937007874015748
          },
          {
            "duration": 0.10869549999995343,
            "durationTicks": 96,
            "midi": 40,
            "name": "E2",
            "ticks": 244534,
            "time": 276.8723478854167,
            "velocity": 0.3937007874015748
          },
          {
            "duration": 0.10869549999995343,
            "durationTicks": 96,
            "midi": 35,
            "name": "B1",
            "ticks": 244534,
            "time": 276.8723478854167,
            "velocity": 0.3937007874015748
          },
          {
            "duration": 0.10869549999995343,
            "durationTicks": 96,
            "midi": 55,
            "name": "G3",
            "ticks": 244534,
            "time": 276.8723478854167,
            "velocity": 0.3937007874015748
          },
          {
            "duration": 0.21739100000002054,
            "durationTicks": 192,
            "midi": 62,
            "name": "D4",
            "ticks": 244630,
            "time": 276.9810433854166,
            "velocity": 0.3937007874015748
          },
          {
            "duration": 0.10869550000001027,
            "durationTicks": 96,
            "midi": 64,
            "name": "E4",
            "ticks": 244630,
            "time": 276.9810433854166,
            "velocity": 0.3937007874015748
          },
          {
            "duration": 0.10869550000001027,
            "durationTicks": 96,
            "midi": 59,
            "name": "B3",
            "ticks": 244630,
            "time": 276.9810433854166,
            "velocity": 0.3937007874015748
          },
          {
            "duration": 0.21739100000002054,
            "durationTicks": 192,
            "midi": 78,
            "name": "F#5",
            "ticks": 244630,
            "time": 276.9810433854166,
            "velocity": 0.3937007874015748
          },
          {
            "duration": 0.10869550000001027,
            "durationTicks": 96,
            "midi": 55,
            "name": "G3",
            "ticks": 244630,
            "time": 276.9810433854166,
            "velocity": 0.3937007874015748
          },
          {
            "duration": 0.10869550000001027,
            "durationTicks": 96,
            "midi": 40,
            "name": "E2",
            "ticks": 244630,
            "time": 276.9810433854166,
            "velocity": 0.3937007874015748
          },
          {
            "duration": 0.21739100000002054,
            "durationTicks": 192,
            "midi": 74,
            "name": "D5",
            "ticks": 244630,
            "time": 276.9810433854166,
            "velocity": 0.3937007874015748
          },
          {
            "duration": 0.21739100000002054,
            "durationTicks": 192,
            "midi": 66,
            "name": "F#4",
            "ticks": 244630,
            "time": 276.9810433854166,
            "velocity": 0.3937007874015748
          },
          {
            "duration": 0.21739100000002054,
            "durationTicks": 192,
            "midi": 35,
            "name": "B1",
            "ticks": 244630,
            "time": 276.9810433854166,
            "velocity": 0.3937007874015748
          },
          {
            "duration": 0.10869550000001027,
            "durationTicks": 96,
            "midi": 28,
            "name": "E1",
            "ticks": 244630,
            "time": 276.9810433854166,
            "velocity": 0.3937007874015748
          },
          {
            "duration": 0.10869550000001027,
            "durationTicks": 96,
            "midi": 55,
            "name": "G3",
            "ticks": 244726,
            "time": 277.08973888541664,
            "velocity": 0.3937007874015748
          },
          {
            "duration": 0.10869550000001027,
            "durationTicks": 96,
            "midi": 59,
            "name": "B3",
            "ticks": 244726,
            "time": 277.08973888541664,
            "velocity": 0.3937007874015748
          },
          {
            "duration": 0.10869550000001027,
            "durationTicks": 96,
            "midi": 64,
            "name": "E4",
            "ticks": 244726,
            "time": 277.08973888541664,
            "velocity": 0.3937007874015748
          },
          {
            "duration": 0.21739100000002054,
            "durationTicks": 192,
            "midi": 79,
            "name": "G5",
            "ticks": 244822,
            "time": 277.19843438541665,
            "velocity": 0.3937007874015748
          },
          {
            "duration": 0.10869550000001027,
            "durationTicks": 96,
            "midi": 59,
            "name": "B3",
            "ticks": 244822,
            "time": 277.19843438541665,
            "velocity": 0.3937007874015748
          },
          {
            "duration": 0.10869550000001027,
            "durationTicks": 96,
            "midi": 64,
            "name": "E4",
            "ticks": 244822,
            "time": 277.19843438541665,
            "velocity": 0.3937007874015748
          },
          {
            "duration": 0.21739100000002054,
            "durationTicks": 192,
            "midi": 67,
            "name": "G4",
            "ticks": 244822,
            "time": 277.19843438541665,
            "velocity": 0.3937007874015748
          },
          {
            "duration": 0.10869550000001027,
            "durationTicks": 96,
            "midi": 40,
            "name": "E2",
            "ticks": 244822,
            "time": 277.19843438541665,
            "velocity": 0.3937007874015748
          },
          {
            "duration": 0.10869550000001027,
            "durationTicks": 96,
            "midi": 52,
            "name": "E3",
            "ticks": 244822,
            "time": 277.19843438541665,
            "velocity": 0.3937007874015748
          },
          {
            "duration": 0.21739100000002054,
            "durationTicks": 192,
            "midi": 76,
            "name": "E5",
            "ticks": 244822,
            "time": 277.19843438541665,
            "velocity": 0.3937007874015748
          },
          {
            "duration": 0.21739100000002054,
            "durationTicks": 192,
            "midi": 64,
            "name": "E4",
            "ticks": 244822,
            "time": 277.19843438541665,
            "velocity": 0.3937007874015748
          },
          {
            "duration": 0.10869550000001027,
            "durationTicks": 96,
            "midi": 55,
            "name": "G3",
            "ticks": 244822,
            "time": 277.19843438541665,
            "velocity": 0.3937007874015748
          },
          {
            "duration": 0.10869550000001027,
            "durationTicks": 96,
            "midi": 55,
            "name": "G3",
            "ticks": 244918,
            "time": 277.30712988541666,
            "velocity": 0.3937007874015748
          },
          {
            "duration": 0.10869550000001027,
            "durationTicks": 96,
            "midi": 40,
            "name": "E2",
            "ticks": 244918,
            "time": 277.30712988541666,
            "velocity": 0.3937007874015748
          },
          {
            "duration": 0.10869550000001027,
            "durationTicks": 96,
            "midi": 52,
            "name": "E3",
            "ticks": 244918,
            "time": 277.30712988541666,
            "velocity": 0.3937007874015748
          },
          {
            "duration": 0.10869550000001027,
            "durationTicks": 96,
            "midi": 64,
            "name": "E4",
            "ticks": 244918,
            "time": 277.30712988541666,
            "velocity": 0.3937007874015748
          },
          {
            "duration": 0.10869550000001027,
            "durationTicks": 96,
            "midi": 59,
            "name": "B3",
            "ticks": 244918,
            "time": 277.30712988541666,
            "velocity": 0.3937007874015748
          },
          {
            "duration": 0.2173909999999637,
            "durationTicks": 192,
            "midi": 78,
            "name": "F#5",
            "ticks": 245014,
            "time": 277.41582538541667,
            "velocity": 0.3937007874015748
          },
          {
            "duration": 0.2173909999999637,
            "durationTicks": 192,
            "midi": 81,
            "name": "A5",
            "ticks": 245014,
            "time": 277.41582538541667,
            "velocity": 0.3937007874015748
          },
          {
            "duration": 0.10869550000001027,
            "durationTicks": 96,
            "midi": 59,
            "name": "B3",
            "ticks": 245014,
            "time": 277.41582538541667,
            "velocity": 0.3937007874015748
          },
          {
            "duration": 0.10869550000001027,
            "durationTicks": 96,
            "midi": 40,
            "name": "E2",
            "ticks": 245014,
            "time": 277.41582538541667,
            "velocity": 0.3937007874015748
          },
          {
            "duration": 0.2173909999999637,
            "durationTicks": 192,
            "midi": 69,
            "name": "A4",
            "ticks": 245014,
            "time": 277.41582538541667,
            "velocity": 0.3937007874015748
          },
          {
            "duration": 0.10869550000001027,
            "durationTicks": 96,
            "midi": 64,
            "name": "E4",
            "ticks": 245014,
            "time": 277.41582538541667,
            "velocity": 0.3937007874015748
          },
          {
            "duration": 0.2173909999999637,
            "durationTicks": 192,
            "midi": 66,
            "name": "F#4",
            "ticks": 245014,
            "time": 277.41582538541667,
            "velocity": 0.3937007874015748
          },
          {
            "duration": 0.10869550000001027,
            "durationTicks": 96,
            "midi": 55,
            "name": "G3",
            "ticks": 245014,
            "time": 277.41582538541667,
            "velocity": 0.3937007874015748
          },
          {
            "duration": 0.2173909999999637,
            "durationTicks": 192,
            "midi": 35,
            "name": "B1",
            "ticks": 245014,
            "time": 277.41582538541667,
            "velocity": 0.3937007874015748
          },
          {
            "duration": 0.10869550000001027,
            "durationTicks": 96,
            "midi": 28,
            "name": "E1",
            "ticks": 245014,
            "time": 277.41582538541667,
            "velocity": 0.3937007874015748
          },
          {
            "duration": 0.10869549999995343,
            "durationTicks": 96,
            "midi": 40,
            "name": "E2",
            "ticks": 245110,
            "time": 277.5245208854167,
            "velocity": 0.3937007874015748
          },
          {
            "duration": 0.10869549999995343,
            "durationTicks": 96,
            "midi": 52,
            "name": "E3",
            "ticks": 245110,
            "time": 277.5245208854167,
            "velocity": 0.3937007874015748
          },
          {
            "duration": 0.10869549999995343,
            "durationTicks": 96,
            "midi": 59,
            "name": "B3",
            "ticks": 245110,
            "time": 277.5245208854167,
            "velocity": 0.3937007874015748
          },
          {
            "duration": 0.10869549999995343,
            "durationTicks": 96,
            "midi": 64,
            "name": "E4",
            "ticks": 245110,
            "time": 277.5245208854167,
            "velocity": 0.3937007874015748
          },
          {
            "duration": 0.10869549999995343,
            "durationTicks": 96,
            "midi": 55,
            "name": "G3",
            "ticks": 245110,
            "time": 277.5245208854167,
            "velocity": 0.3937007874015748
          },
          {
            "duration": 0.10869550000001027,
            "durationTicks": 96,
            "midi": 59,
            "name": "B3",
            "ticks": 245206,
            "time": 277.63321638541663,
            "velocity": 0.3937007874015748
          },
          {
            "duration": 0.10869550000001027,
            "durationTicks": 96,
            "midi": 64,
            "name": "E4",
            "ticks": 245206,
            "time": 277.63321638541663,
            "velocity": 0.3937007874015748
          },
          {
            "duration": 0.21739100000002054,
            "durationTicks": 192,
            "midi": 71,
            "name": "B4",
            "ticks": 245206,
            "time": 277.63321638541663,
            "velocity": 0.3937007874015748
          },
          {
            "duration": 0.10869550000001027,
            "durationTicks": 96,
            "midi": 50,
            "name": "D3",
            "ticks": 245206,
            "time": 277.63321638541663,
            "velocity": 0.3937007874015748
          },
          {
            "duration": 0.21739100000002054,
            "durationTicks": 192,
            "midi": 79,
            "name": "G5",
            "ticks": 245206,
            "time": 277.63321638541663,
            "velocity": 0.3937007874015748
          },
          {
            "duration": 0.21739100000002054,
            "durationTicks": 192,
            "midi": 83,
            "name": "B5",
            "ticks": 245206,
            "time": 277.63321638541663,
            "velocity": 0.3937007874015748
          },
          {
            "duration": 0.10869550000001027,
            "durationTicks": 96,
            "midi": 55,
            "name": "G3",
            "ticks": 245206,
            "time": 277.63321638541663,
            "velocity": 0.3937007874015748
          },
          {
            "duration": 0.21739100000002054,
            "durationTicks": 192,
            "midi": 67,
            "name": "G4",
            "ticks": 245206,
            "time": 277.63321638541663,
            "velocity": 0.3937007874015748
          },
          {
            "duration": 0.10869550000001027,
            "durationTicks": 96,
            "midi": 38,
            "name": "D2",
            "ticks": 245206,
            "time": 277.63321638541663,
            "velocity": 0.3937007874015748
          },
          {
            "duration": 0.10869550000001027,
            "durationTicks": 96,
            "midi": 64,
            "name": "E4",
            "ticks": 245302,
            "time": 277.74191188541664,
            "velocity": 0.3937007874015748
          },
          {
            "duration": 0.10869550000001027,
            "durationTicks": 96,
            "midi": 52,
            "name": "E3",
            "ticks": 245302,
            "time": 277.74191188541664,
            "velocity": 0.3937007874015748
          },
          {
            "duration": 0.10869550000001027,
            "durationTicks": 96,
            "midi": 55,
            "name": "G3",
            "ticks": 245302,
            "time": 277.74191188541664,
            "velocity": 0.3937007874015748
          },
          {
            "duration": 0.10869550000001027,
            "durationTicks": 96,
            "midi": 40,
            "name": "E2",
            "ticks": 245302,
            "time": 277.74191188541664,
            "velocity": 0.3937007874015748
          },
          {
            "duration": 0.10869550000001027,
            "durationTicks": 96,
            "midi": 59,
            "name": "B3",
            "ticks": 245302,
            "time": 277.74191188541664,
            "velocity": 0.3937007874015748
          },
          {
            "duration": 0.10869550000001027,
            "durationTicks": 96,
            "midi": 64,
            "name": "E4",
            "ticks": 245398,
            "time": 277.85060738541665,
            "velocity": 0.3937007874015748
          },
          {
            "duration": 0.10869550000001027,
            "durationTicks": 96,
            "midi": 52,
            "name": "E3",
            "ticks": 245398,
            "time": 277.85060738541665,
            "velocity": 0.3937007874015748
          },
          {
            "duration": 0.10869550000001027,
            "durationTicks": 96,
            "midi": 59,
            "name": "B3",
            "ticks": 245398,
            "time": 277.85060738541665,
            "velocity": 0.3937007874015748
          },
          {
            "duration": 0.21739100000002054,
            "durationTicks": 192,
            "midi": 59,
            "name": "B3",
            "ticks": 245398,
            "time": 277.85060738541665,
            "velocity": 0.3937007874015748
          },
          {
            "duration": 0.10869550000001027,
            "durationTicks": 96,
            "midi": 40,
            "name": "E2",
            "ticks": 245398,
            "time": 277.85060738541665,
            "velocity": 0.3937007874015748
          },
          {
            "duration": 0.10869550000001027,
            "durationTicks": 96,
            "midi": 55,
            "name": "G3",
            "ticks": 245398,
            "time": 277.85060738541665,
            "velocity": 0.3937007874015748
          },
          {
            "duration": 0.21739100000002054,
            "durationTicks": 192,
            "midi": 35,
            "name": "B1",
            "ticks": 245398,
            "time": 277.85060738541665,
            "velocity": 0.3937007874015748
          },
          {
            "duration": 0.21739100000002054,
            "durationTicks": 192,
            "midi": 76,
            "name": "E5",
            "ticks": 245398,
            "time": 277.85060738541665,
            "velocity": 0.3937007874015748
          },
          {
            "duration": 0.21739100000002054,
            "durationTicks": 192,
            "midi": 64,
            "name": "E4",
            "ticks": 245398,
            "time": 277.85060738541665,
            "velocity": 0.3937007874015748
          },
          {
            "duration": 0.21739100000002054,
            "durationTicks": 192,
            "midi": 71,
            "name": "B4",
            "ticks": 245398,
            "time": 277.85060738541665,
            "velocity": 0.3937007874015748
          },
          {
            "duration": 0.10869550000001027,
            "durationTicks": 96,
            "midi": 55,
            "name": "G3",
            "ticks": 245494,
            "time": 277.95930288541666,
            "velocity": 0.3937007874015748
          },
          {
            "duration": 0.10869550000001027,
            "durationTicks": 96,
            "midi": 64,
            "name": "E4",
            "ticks": 245494,
            "time": 277.95930288541666,
            "velocity": 0.3937007874015748
          },
          {
            "duration": 0.10869550000001027,
            "durationTicks": 96,
            "midi": 59,
            "name": "B3",
            "ticks": 245494,
            "time": 277.95930288541666,
            "velocity": 0.3937007874015748
          },
          {
            "duration": 0.10869549999995343,
            "durationTicks": 96,
            "midi": 55,
            "name": "G3",
            "ticks": 245590,
            "time": 278.0679983854167,
            "velocity": 0.3937007874015748
          },
          {
            "duration": 0.10869549999995343,
            "durationTicks": 96,
            "midi": 47,
            "name": "B2",
            "ticks": 245590,
            "time": 278.0679983854167,
            "velocity": 0.3937007874015748
          },
          {
            "duration": 0.10869549999995343,
            "durationTicks": 96,
            "midi": 35,
            "name": "B1",
            "ticks": 245590,
            "time": 278.0679983854167,
            "velocity": 0.3937007874015748
          },
          {
            "duration": 0.10869549999995343,
            "durationTicks": 96,
            "midi": 59,
            "name": "B3",
            "ticks": 245590,
            "time": 278.0679983854167,
            "velocity": 0.3937007874015748
          },
          {
            "duration": 0.10869549999995343,
            "durationTicks": 96,
            "midi": 64,
            "name": "E4",
            "ticks": 245590,
            "time": 278.0679983854167,
            "velocity": 0.3937007874015748
          },
          {
            "duration": 0.10869550000001027,
            "durationTicks": 96,
            "midi": 64,
            "name": "E4",
            "ticks": 245686,
            "time": 278.1766938854166,
            "velocity": 0.3937007874015748
          },
          {
            "duration": 0.10869550000001027,
            "durationTicks": 96,
            "midi": 59,
            "name": "B3",
            "ticks": 245686,
            "time": 278.1766938854166,
            "velocity": 0.3937007874015748
          },
          {
            "duration": 0.10869550000001027,
            "durationTicks": 96,
            "midi": 55,
            "name": "G3",
            "ticks": 245686,
            "time": 278.1766938854166,
            "velocity": 0.3937007874015748
          },
          {
            "duration": 0.10869550000001027,
            "durationTicks": 96,
            "midi": 50,
            "name": "D3",
            "ticks": 245686,
            "time": 278.1766938854166,
            "velocity": 0.3937007874015748
          },
          {
            "duration": 0.10869550000001027,
            "durationTicks": 96,
            "midi": 38,
            "name": "D2",
            "ticks": 245686,
            "time": 278.1766938854166,
            "velocity": 0.3937007874015748
          },
          {
            "duration": 0.10869550000001027,
            "durationTicks": 96,
            "midi": 33,
            "name": "A1",
            "ticks": 245782,
            "time": 278.28538938541664,
            "velocity": 0.3937007874015748
          },
          {
            "duration": 0.10869550000001027,
            "durationTicks": 96,
            "midi": 45,
            "name": "A2",
            "ticks": 245782,
            "time": 278.28538938541664,
            "velocity": 0.3937007874015748
          },
          {
            "duration": 0.21739100000002054,
            "durationTicks": 192,
            "midi": 67,
            "name": "G4",
            "ticks": 245782,
            "time": 278.28538938541664,
            "velocity": 0.3937007874015748
          },
          {
            "duration": 0.21739100000002054,
            "durationTicks": 192,
            "midi": 83,
            "name": "B5",
            "ticks": 245782,
            "time": 278.28538938541664,
            "velocity": 0.3937007874015748
          },
          {
            "duration": 0.21739100000002054,
            "durationTicks": 192,
            "midi": 79,
            "name": "G5",
            "ticks": 245782,
            "time": 278.28538938541664,
            "velocity": 0.3937007874015748
          },
          {
            "duration": 0.21739100000002054,
            "durationTicks": 192,
            "midi": 71,
            "name": "B4",
            "ticks": 245782,
            "time": 278.28538938541664,
            "velocity": 0.3937007874015748
          },
          {
            "duration": 0.10869550000001027,
            "durationTicks": 96,
            "midi": 59,
            "name": "B3",
            "ticks": 245782,
            "time": 278.28538938541664,
            "velocity": 0.3937007874015748
          },
          {
            "duration": 0.10869550000001027,
            "durationTicks": 96,
            "midi": 64,
            "name": "E4",
            "ticks": 245782,
            "time": 278.28538938541664,
            "velocity": 0.3937007874015748
          },
          {
            "duration": 0.10869550000001027,
            "durationTicks": 96,
            "midi": 55,
            "name": "G3",
            "ticks": 245782,
            "time": 278.28538938541664,
            "velocity": 0.3937007874015748
          },
          {
            "duration": 0.21739100000002054,
            "durationTicks": 192,
            "midi": 35,
            "name": "B1",
            "ticks": 245782,
            "time": 278.28538938541664,
            "velocity": 0.3937007874015748
          },
          {
            "duration": 0.10869550000001027,
            "durationTicks": 96,
            "midi": 64,
            "name": "E4",
            "ticks": 245878,
            "time": 278.39408488541665,
            "velocity": 0.3937007874015748
          },
          {
            "duration": 0.10869550000001027,
            "durationTicks": 96,
            "midi": 55,
            "name": "G3",
            "ticks": 245878,
            "time": 278.39408488541665,
            "velocity": 0.3937007874015748
          },
          {
            "duration": 0.10869550000001027,
            "durationTicks": 96,
            "midi": 59,
            "name": "B3",
            "ticks": 245878,
            "time": 278.39408488541665,
            "velocity": 0.3937007874015748
          },
          {
            "duration": 0.10869550000001027,
            "durationTicks": 96,
            "midi": 43,
            "name": "G2",
            "ticks": 245974,
            "time": 278.50278038541666,
            "velocity": 0.3937007874015748
          },
          {
            "duration": 0.10869550000001027,
            "durationTicks": 96,
            "midi": 31,
            "name": "G1",
            "ticks": 245974,
            "time": 278.50278038541666,
            "velocity": 0.3937007874015748
          },
          {
            "duration": 0.21739100000002054,
            "durationTicks": 192,
            "midi": 35,
            "name": "B1",
            "ticks": 245974,
            "time": 278.50278038541666,
            "velocity": 0.3937007874015748
          },
          {
            "duration": 0.10869550000001027,
            "durationTicks": 96,
            "midi": 64,
            "name": "E4",
            "ticks": 245974,
            "time": 278.50278038541666,
            "velocity": 0.3937007874015748
          },
          {
            "duration": 0.21739100000002054,
            "durationTicks": 192,
            "midi": 86,
            "name": "D6",
            "ticks": 245974,
            "time": 278.50278038541666,
            "velocity": 0.3937007874015748
          },
          {
            "duration": 0.10869550000001027,
            "durationTicks": 96,
            "midi": 59,
            "name": "B3",
            "ticks": 245974,
            "time": 278.50278038541666,
            "velocity": 0.3937007874015748
          },
          {
            "duration": 0.21739100000002054,
            "durationTicks": 192,
            "midi": 69,
            "name": "A4",
            "ticks": 245974,
            "time": 278.50278038541666,
            "velocity": 0.3937007874015748
          },
          {
            "duration": 0.21739100000002054,
            "durationTicks": 192,
            "midi": 81,
            "name": "A5",
            "ticks": 245974,
            "time": 278.50278038541666,
            "velocity": 0.3937007874015748
          },
          {
            "duration": 0.21739100000002054,
            "durationTicks": 192,
            "midi": 74,
            "name": "D5",
            "ticks": 245974,
            "time": 278.50278038541666,
            "velocity": 0.3937007874015748
          },
          {
            "duration": 0.10869550000001027,
            "durationTicks": 96,
            "midi": 55,
            "name": "G3",
            "ticks": 245974,
            "time": 278.50278038541666,
            "velocity": 0.3937007874015748
          },
          {
            "duration": 0.10869550000001027,
            "durationTicks": 96,
            "midi": 45,
            "name": "A2",
            "ticks": 246070,
            "time": 278.61147588541667,
            "velocity": 0.3937007874015748
          },
          {
            "duration": 0.10869550000001027,
            "durationTicks": 96,
            "midi": 33,
            "name": "A1",
            "ticks": 246070,
            "time": 278.61147588541667,
            "velocity": 0.3937007874015748
          },
          {
            "duration": 0.10869550000001027,
            "durationTicks": 96,
            "midi": 64,
            "name": "E4",
            "ticks": 246070,
            "time": 278.61147588541667,
            "velocity": 0.3937007874015748
          },
          {
            "duration": 0.10869550000001027,
            "durationTicks": 96,
            "midi": 59,
            "name": "B3",
            "ticks": 246070,
            "time": 278.61147588541667,
            "velocity": 0.3937007874015748
          },
          {
            "duration": 0.10869550000001027,
            "durationTicks": 96,
            "midi": 55,
            "name": "G3",
            "ticks": 246070,
            "time": 278.61147588541667,
            "velocity": 0.3937007874015748
          },
          {
            "duration": 0.2173909999999637,
            "durationTicks": 192,
            "midi": 35,
            "name": "B1",
            "ticks": 246166,
            "time": 278.7201713854167,
            "velocity": 0.3937007874015748
          },
          {
            "duration": 0.10869549999995343,
            "durationTicks": 96,
            "midi": 36,
            "name": "C2",
            "ticks": 246166,
            "time": 278.7201713854167,
            "velocity": 0.3937007874015748
          },
          {
            "duration": 0.2173909999999637,
            "durationTicks": 192,
            "midi": 86,
            "name": "D6",
            "ticks": 246166,
            "time": 278.7201713854167,
            "velocity": 0.3937007874015748
          },
          {
            "duration": 0.2173909999999637,
            "durationTicks": 192,
            "midi": 81,
            "name": "A5",
            "ticks": 246166,
            "time": 278.7201713854167,
            "velocity": 0.3937007874015748
          },
          {
            "duration": 0.10869549999995343,
            "durationTicks": 96,
            "midi": 52,
            "name": "E3",
            "ticks": 246166,
            "time": 278.7201713854167,
            "velocity": 0.3937007874015748
          },
          {
            "duration": 0.10869549999995343,
            "durationTicks": 96,
            "midi": 24,
            "name": "C1",
            "ticks": 246166,
            "time": 278.7201713854167,
            "velocity": 0.3937007874015748
          },
          {
            "duration": 0.10869549999995343,
            "durationTicks": 96,
            "midi": 60,
            "name": "C4",
            "ticks": 246166,
            "time": 278.7201713854167,
            "velocity": 0.3937007874015748
          },
          {
            "duration": 0.10869549999995343,
            "durationTicks": 96,
            "midi": 55,
            "name": "G3",
            "ticks": 246166,
            "time": 278.7201713854167,
            "velocity": 0.3937007874015748
          },
          {
            "duration": 0.2173909999999637,
            "durationTicks": 192,
            "midi": 69,
            "name": "A4",
            "ticks": 246166,
            "time": 278.7201713854167,
            "velocity": 0.3937007874015748
          },
          {
            "duration": 0.2173909999999637,
            "durationTicks": 192,
            "midi": 74,
            "name": "D5",
            "ticks": 246166,
            "time": 278.7201713854167,
            "velocity": 0.3937007874015748
          },
          {
            "duration": 0.10869550000001027,
            "durationTicks": 96,
            "midi": 60,
            "name": "C4",
            "ticks": 246262,
            "time": 278.82886688541663,
            "velocity": 0.3937007874015748
          },
          {
            "duration": 0.10869550000001027,
            "durationTicks": 96,
            "midi": 55,
            "name": "G3",
            "ticks": 246262,
            "time": 278.82886688541663,
            "velocity": 0.3937007874015748
          },
          {
            "duration": 0.10869550000001027,
            "durationTicks": 96,
            "midi": 52,
            "name": "E3",
            "ticks": 246262,
            "time": 278.82886688541663,
            "velocity": 0.3937007874015748
          },
          {
            "duration": 0.10869550000001027,
            "durationTicks": 96,
            "midi": 48,
            "name": "C3",
            "ticks": 246358,
            "time": 278.93756238541664,
            "velocity": 0.3937007874015748
          },
          {
            "duration": 0.10869550000001027,
            "durationTicks": 96,
            "midi": 60,
            "name": "C4",
            "ticks": 246358,
            "time": 278.93756238541664,
            "velocity": 0.3937007874015748
          },
          {
            "duration": 0.21739100000002054,
            "durationTicks": 192,
            "midi": 88,
            "name": "E6",
            "ticks": 246358,
            "time": 278.93756238541664,
            "velocity": 0.3937007874015748
          },
          {
            "duration": 0.10869550000001027,
            "durationTicks": 96,
            "midi": 36,
            "name": "C2",
            "ticks": 246358,
            "time": 278.93756238541664,
            "velocity": 0.3937007874015748
          },
          {
            "duration": 0.10869550000001027,
            "durationTicks": 96,
            "midi": 52,
            "name": "E3",
            "ticks": 246358,
            "time": 278.93756238541664,
            "velocity": 0.3937007874015748
          },
          {
            "duration": 0.21739100000002054,
            "durationTicks": 192,
            "midi": 83,
            "name": "B5",
            "ticks": 246358,
            "time": 278.93756238541664,
            "velocity": 0.3937007874015748
          },
          {
            "duration": 0.21739100000002054,
            "durationTicks": 192,
            "midi": 71,
            "name": "B4",
            "ticks": 246358,
            "time": 278.93756238541664,
            "velocity": 0.3937007874015748
          },
          {
            "duration": 0.10869550000001027,
            "durationTicks": 96,
            "midi": 55,
            "name": "G3",
            "ticks": 246358,
            "time": 278.93756238541664,
            "velocity": 0.3937007874015748
          },
          {
            "duration": 0.21739100000002054,
            "durationTicks": 192,
            "midi": 76,
            "name": "E5",
            "ticks": 246358,
            "time": 278.93756238541664,
            "velocity": 0.3937007874015748
          },
          {
            "duration": 0.10869550000001027,
            "durationTicks": 96,
            "midi": 36,
            "name": "C2",
            "ticks": 246454,
            "time": 279.04625788541665,
            "velocity": 0.3937007874015748
          },
          {
            "duration": 0.10869550000001027,
            "durationTicks": 96,
            "midi": 55,
            "name": "G3",
            "ticks": 246454,
            "time": 279.04625788541665,
            "velocity": 0.3937007874015748
          },
          {
            "duration": 0.10869550000001027,
            "durationTicks": 96,
            "midi": 60,
            "name": "C4",
            "ticks": 246454,
            "time": 279.04625788541665,
            "velocity": 0.3937007874015748
          },
          {
            "duration": 0.10869550000001027,
            "durationTicks": 96,
            "midi": 48,
            "name": "C3",
            "ticks": 246454,
            "time": 279.04625788541665,
            "velocity": 0.3937007874015748
          },
          {
            "duration": 0.10869550000001027,
            "durationTicks": 96,
            "midi": 52,
            "name": "E3",
            "ticks": 246454,
            "time": 279.04625788541665,
            "velocity": 0.3937007874015748
          },
          {
            "duration": 0.2173909999999637,
            "durationTicks": 192,
            "midi": 71,
            "name": "B4",
            "ticks": 246550,
            "time": 279.15495338541666,
            "velocity": 0.3937007874015748
          },
          {
            "duration": 0.2173909999999637,
            "durationTicks": 192,
            "midi": 35,
            "name": "B1",
            "ticks": 246550,
            "time": 279.15495338541666,
            "velocity": 0.3937007874015748
          },
          {
            "duration": 0.2173909999999637,
            "durationTicks": 192,
            "midi": 83,
            "name": "B5",
            "ticks": 246550,
            "time": 279.15495338541666,
            "velocity": 0.3937007874015748
          },
          {
            "duration": 0.10869550000001027,
            "durationTicks": 96,
            "midi": 52,
            "name": "E3",
            "ticks": 246550,
            "time": 279.15495338541666,
            "velocity": 0.3937007874015748
          },
          {
            "duration": 0.2173909999999637,
            "durationTicks": 192,
            "midi": 67,
            "name": "G4",
            "ticks": 246550,
            "time": 279.15495338541666,
            "velocity": 0.3937007874015748
          },
          {
            "duration": 0.10869550000001027,
            "durationTicks": 96,
            "midi": 55,
            "name": "G3",
            "ticks": 246550,
            "time": 279.15495338541666,
            "velocity": 0.3937007874015748
          },
          {
            "duration": 0.2173909999999637,
            "durationTicks": 192,
            "midi": 79,
            "name": "G5",
            "ticks": 246550,
            "time": 279.15495338541666,
            "velocity": 0.3937007874015748
          },
          {
            "duration": 0.10869550000001027,
            "durationTicks": 96,
            "midi": 60,
            "name": "C4",
            "ticks": 246550,
            "time": 279.15495338541666,
            "velocity": 0.3937007874015748
          },
          {
            "duration": 0.10869550000001027,
            "durationTicks": 96,
            "midi": 24,
            "name": "C1",
            "ticks": 246550,
            "time": 279.15495338541666,
            "velocity": 0.3937007874015748
          },
          {
            "duration": 0.10869550000001027,
            "durationTicks": 96,
            "midi": 36,
            "name": "C2",
            "ticks": 246550,
            "time": 279.15495338541666,
            "velocity": 0.3937007874015748
          },
          {
            "duration": 0.10869549999995343,
            "durationTicks": 96,
            "midi": 48,
            "name": "C3",
            "ticks": 246646,
            "time": 279.26364888541667,
            "velocity": 0.3937007874015748
          },
          {
            "duration": 0.10869549999995343,
            "durationTicks": 96,
            "midi": 52,
            "name": "E3",
            "ticks": 246646,
            "time": 279.26364888541667,
            "velocity": 0.3937007874015748
          },
          {
            "duration": 0.10869549999995343,
            "durationTicks": 96,
            "midi": 60,
            "name": "C4",
            "ticks": 246646,
            "time": 279.26364888541667,
            "velocity": 0.3937007874015748
          },
          {
            "duration": 0.10869549999995343,
            "durationTicks": 96,
            "midi": 55,
            "name": "G3",
            "ticks": 246646,
            "time": 279.26364888541667,
            "velocity": 0.3937007874015748
          },
          {
            "duration": 0.10869549999995343,
            "durationTicks": 96,
            "midi": 36,
            "name": "C2",
            "ticks": 246646,
            "time": 279.26364888541667,
            "velocity": 0.3937007874015748
          },
          {
            "duration": 0.10869550000001027,
            "durationTicks": 96,
            "midi": 47,
            "name": "B2",
            "ticks": 246742,
            "time": 279.3723443854166,
            "velocity": 0.3937007874015748
          },
          {
            "duration": 0.10869550000001027,
            "durationTicks": 96,
            "midi": 35,
            "name": "B1",
            "ticks": 246742,
            "time": 279.3723443854166,
            "velocity": 0.3937007874015748
          },
          {
            "duration": 0.21739100000002054,
            "durationTicks": 192,
            "midi": 81,
            "name": "A5",
            "ticks": 246742,
            "time": 279.3723443854166,
            "velocity": 0.3937007874015748
          },
          {
            "duration": 0.21739100000002054,
            "durationTicks": 192,
            "midi": 69,
            "name": "A4",
            "ticks": 246742,
            "time": 279.3723443854166,
            "velocity": 0.3937007874015748
          },
          {
            "duration": 0.21739100000002054,
            "durationTicks": 192,
            "midi": 66,
            "name": "F#4",
            "ticks": 246742,
            "time": 279.3723443854166,
            "velocity": 0.3937007874015748
          },
          {
            "duration": 0.10869550000001027,
            "durationTicks": 96,
            "midi": 52,
            "name": "E3",
            "ticks": 246742,
            "time": 279.3723443854166,
            "velocity": 0.3937007874015748
          },
          {
            "duration": 0.21739100000002054,
            "durationTicks": 192,
            "midi": 78,
            "name": "F#5",
            "ticks": 246742,
            "time": 279.3723443854166,
            "velocity": 0.3937007874015748
          },
          {
            "duration": 0.10869550000001027,
            "durationTicks": 96,
            "midi": 55,
            "name": "G3",
            "ticks": 246742,
            "time": 279.3723443854166,
            "velocity": 0.3937007874015748
          },
          {
            "duration": 0.10869550000001027,
            "durationTicks": 96,
            "midi": 60,
            "name": "C4",
            "ticks": 246742,
            "time": 279.3723443854166,
            "velocity": 0.3937007874015748
          },
          {
            "duration": 0.10869550000001027,
            "durationTicks": 96,
            "midi": 52,
            "name": "E3",
            "ticks": 246838,
            "time": 279.48103988541664,
            "velocity": 0.3937007874015748
          },
          {
            "duration": 0.10869550000001027,
            "durationTicks": 96,
            "midi": 60,
            "name": "C4",
            "ticks": 246838,
            "time": 279.48103988541664,
            "velocity": 0.3937007874015748
          },
          {
            "duration": 0.10869550000001027,
            "durationTicks": 96,
            "midi": 36,
            "name": "C2",
            "ticks": 246838,
            "time": 279.48103988541664,
            "velocity": 0.3937007874015748
          },
          {
            "duration": 0.10869550000001027,
            "durationTicks": 96,
            "midi": 55,
            "name": "G3",
            "ticks": 246838,
            "time": 279.48103988541664,
            "velocity": 0.3937007874015748
          },
          {
            "duration": 0.10869550000001027,
            "durationTicks": 96,
            "midi": 48,
            "name": "C3",
            "ticks": 246838,
            "time": 279.48103988541664,
            "velocity": 0.3937007874015748
          },
          {
            "duration": 0.21739100000002054,
            "durationTicks": 192,
            "midi": 79,
            "name": "G5",
            "ticks": 246934,
            "time": 279.58973538541665,
            "velocity": 0.3937007874015748
          },
          {
            "duration": 0.10869550000001027,
            "durationTicks": 96,
            "midi": 52,
            "name": "E3",
            "ticks": 246934,
            "time": 279.58973538541665,
            "velocity": 0.3937007874015748
          },
          {
            "duration": 0.21739100000002054,
            "durationTicks": 192,
            "midi": 35,
            "name": "B1",
            "ticks": 246934,
            "time": 279.58973538541665,
            "velocity": 0.3937007874015748
          },
          {
            "duration": 0.21739100000002054,
            "durationTicks": 192,
            "midi": 67,
            "name": "G4",
            "ticks": 246934,
            "time": 279.58973538541665,
            "velocity": 0.3937007874015748
          },
          {
            "duration": 0.10869550000001027,
            "durationTicks": 96,
            "midi": 24,
            "name": "C1",
            "ticks": 246934,
            "time": 279.58973538541665,
            "velocity": 0.3937007874015748
          },
          {
            "duration": 0.10869550000001027,
            "durationTicks": 96,
            "midi": 55,
            "name": "G3",
            "ticks": 246934,
            "time": 279.58973538541665,
            "velocity": 0.3937007874015748
          },
          {
            "duration": 0.10869550000001027,
            "durationTicks": 96,
            "midi": 36,
            "name": "C2",
            "ticks": 246934,
            "time": 279.58973538541665,
            "velocity": 0.3937007874015748
          },
          {
            "duration": 0.21739100000002054,
            "durationTicks": 192,
            "midi": 83,
            "name": "B5",
            "ticks": 246934,
            "time": 279.58973538541665,
            "velocity": 0.3937007874015748
          },
          {
            "duration": 0.10869550000001027,
            "durationTicks": 96,
            "midi": 60,
            "name": "C4",
            "ticks": 246934,
            "time": 279.58973538541665,
            "velocity": 0.3937007874015748
          },
          {
            "duration": 0.21739100000002054,
            "durationTicks": 192,
            "midi": 71,
            "name": "B4",
            "ticks": 246934,
            "time": 279.58973538541665,
            "velocity": 0.3937007874015748
          },
          {
            "duration": 0.10869550000001027,
            "durationTicks": 96,
            "midi": 60,
            "name": "C4",
            "ticks": 247030,
            "time": 279.69843088541666,
            "velocity": 0.3937007874015748
          },
          {
            "duration": 0.10869550000001027,
            "durationTicks": 96,
            "midi": 52,
            "name": "E3",
            "ticks": 247030,
            "time": 279.69843088541666,
            "velocity": 0.3937007874015748
          },
          {
            "duration": 0.10869550000001027,
            "durationTicks": 96,
            "midi": 55,
            "name": "G3",
            "ticks": 247030,
            "time": 279.69843088541666,
            "velocity": 0.3937007874015748
          },
          {
            "duration": 0.10869550000001027,
            "durationTicks": 96,
            "midi": 60,
            "name": "C4",
            "ticks": 247126,
            "time": 279.80712638541667,
            "velocity": 0.3937007874015748
          },
          {
            "duration": 0.10869550000001027,
            "durationTicks": 96,
            "midi": 55,
            "name": "G3",
            "ticks": 247126,
            "time": 279.80712638541667,
            "velocity": 0.3937007874015748
          },
          {
            "duration": 0.10869550000001027,
            "durationTicks": 96,
            "midi": 36,
            "name": "C2",
            "ticks": 247126,
            "time": 279.80712638541667,
            "velocity": 0.3937007874015748
          },
          {
            "duration": 0.10869550000001027,
            "durationTicks": 96,
            "midi": 48,
            "name": "C3",
            "ticks": 247126,
            "time": 279.80712638541667,
            "velocity": 0.3937007874015748
          },
          {
            "duration": 0.10869550000001027,
            "durationTicks": 96,
            "midi": 52,
            "name": "E3",
            "ticks": 247126,
            "time": 279.80712638541667,
            "velocity": 0.3937007874015748
          },
          {
            "duration": 0.10869549999995343,
            "durationTicks": 96,
            "midi": 36,
            "name": "C2",
            "ticks": 247222,
            "time": 279.9158218854167,
            "velocity": 0.3937007874015748
          },
          {
            "duration": 0.10869549999995343,
            "durationTicks": 96,
            "midi": 48,
            "name": "C3",
            "ticks": 247222,
            "time": 279.9158218854167,
            "velocity": 0.3937007874015748
          },
          {
            "duration": 0.10869549999995343,
            "durationTicks": 96,
            "midi": 60,
            "name": "C4",
            "ticks": 247222,
            "time": 279.9158218854167,
            "velocity": 0.3937007874015748
          },
          {
            "duration": 0.10869549999995343,
            "durationTicks": 96,
            "midi": 52,
            "name": "E3",
            "ticks": 247222,
            "time": 279.9158218854167,
            "velocity": 0.3937007874015748
          },
          {
            "duration": 0.10869549999995343,
            "durationTicks": 96,
            "midi": 55,
            "name": "G3",
            "ticks": 247222,
            "time": 279.9158218854167,
            "velocity": 0.3937007874015748
          },
          {
            "duration": 0.10869550000001027,
            "durationTicks": 96,
            "midi": 55,
            "name": "G3",
            "ticks": 247318,
            "time": 280.02451738541663,
            "velocity": 0.3937007874015748
          },
          {
            "duration": 0.21739100000002054,
            "durationTicks": 192,
            "midi": 66,
            "name": "F#4",
            "ticks": 247318,
            "time": 280.02451738541663,
            "velocity": 0.3937007874015748
          },
          {
            "duration": 0.21739100000002054,
            "durationTicks": 192,
            "midi": 69,
            "name": "A4",
            "ticks": 247318,
            "time": 280.02451738541663,
            "velocity": 0.3937007874015748
          },
          {
            "duration": 0.10869550000001027,
            "durationTicks": 96,
            "midi": 35,
            "name": "B1",
            "ticks": 247318,
            "time": 280.02451738541663,
            "velocity": 0.3937007874015748
          },
          {
            "duration": 0.10869550000001027,
            "durationTicks": 96,
            "midi": 24,
            "name": "C1",
            "ticks": 247318,
            "time": 280.02451738541663,
            "velocity": 0.3937007874015748
          },
          {
            "duration": 0.21739100000002054,
            "durationTicks": 192,
            "midi": 81,
            "name": "A5",
            "ticks": 247318,
            "time": 280.02451738541663,
            "velocity": 0.3937007874015748
          },
          {
            "duration": 0.10869550000001027,
            "durationTicks": 96,
            "midi": 36,
            "name": "C2",
            "ticks": 247318,
            "time": 280.02451738541663,
            "velocity": 0.3937007874015748
          },
          {
            "duration": 0.10869550000001027,
            "durationTicks": 96,
            "midi": 60,
            "name": "C4",
            "ticks": 247318,
            "time": 280.02451738541663,
            "velocity": 0.3937007874015748
          },
          {
            "duration": 0.10869550000001027,
            "durationTicks": 96,
            "midi": 52,
            "name": "E3",
            "ticks": 247318,
            "time": 280.02451738541663,
            "velocity": 0.3937007874015748
          },
          {
            "duration": 0.21739100000002054,
            "durationTicks": 192,
            "midi": 78,
            "name": "F#5",
            "ticks": 247318,
            "time": 280.02451738541663,
            "velocity": 0.3937007874015748
          },
          {
            "duration": 0.10869550000001027,
            "durationTicks": 96,
            "midi": 60,
            "name": "C4",
            "ticks": 247414,
            "time": 280.13321288541664,
            "velocity": 0.3937007874015748
          },
          {
            "duration": 0.10869550000001027,
            "durationTicks": 96,
            "midi": 36,
            "name": "C2",
            "ticks": 247414,
            "time": 280.13321288541664,
            "velocity": 0.3937007874015748
          },
          {
            "duration": 0.10869550000001027,
            "durationTicks": 96,
            "midi": 52,
            "name": "E3",
            "ticks": 247414,
            "time": 280.13321288541664,
            "velocity": 0.3937007874015748
          },
          {
            "duration": 0.10869550000001027,
            "durationTicks": 96,
            "midi": 35,
            "name": "B1",
            "ticks": 247414,
            "time": 280.13321288541664,
            "velocity": 0.3937007874015748
          },
          {
            "duration": 0.10869550000001027,
            "durationTicks": 96,
            "midi": 48,
            "name": "C3",
            "ticks": 247414,
            "time": 280.13321288541664,
            "velocity": 0.3937007874015748
          },
          {
            "duration": 0.10869550000001027,
            "durationTicks": 96,
            "midi": 55,
            "name": "G3",
            "ticks": 247414,
            "time": 280.13321288541664,
            "velocity": 0.3937007874015748
          },
          {
            "duration": 0.10869550000001027,
            "durationTicks": 96,
            "midi": 60,
            "name": "C4",
            "ticks": 247510,
            "time": 280.24190838541665,
            "velocity": 0.3937007874015748
          },
          {
            "duration": 0.10869550000001027,
            "durationTicks": 96,
            "midi": 35,
            "name": "B1",
            "ticks": 247510,
            "time": 280.24190838541665,
            "velocity": 0.3937007874015748
          },
          {
            "duration": 0.10869550000001027,
            "durationTicks": 96,
            "midi": 35,
            "name": "B1",
            "ticks": 247510,
            "time": 280.24190838541665,
            "velocity": 0.3937007874015748
          },
          {
            "duration": 0.21739100000002054,
            "durationTicks": 192,
            "midi": 67,
            "name": "G4",
            "ticks": 247510,
            "time": 280.24190838541665,
            "velocity": 0.3937007874015748
          },
          {
            "duration": 0.10869550000001027,
            "durationTicks": 96,
            "midi": 52,
            "name": "E3",
            "ticks": 247510,
            "time": 280.24190838541665,
            "velocity": 0.3937007874015748
          },
          {
            "duration": 0.21739100000002054,
            "durationTicks": 192,
            "midi": 79,
            "name": "G5",
            "ticks": 247510,
            "time": 280.24190838541665,
            "velocity": 0.3937007874015748
          },
          {
            "duration": 0.21739100000002054,
            "durationTicks": 192,
            "midi": 71,
            "name": "B4",
            "ticks": 247510,
            "time": 280.24190838541665,
            "velocity": 0.3937007874015748
          },
          {
            "duration": 0.10869550000001027,
            "durationTicks": 96,
            "midi": 47,
            "name": "B2",
            "ticks": 247510,
            "time": 280.24190838541665,
            "velocity": 0.3937007874015748
          },
          {
            "duration": 0.10869550000001027,
            "durationTicks": 96,
            "midi": 55,
            "name": "G3",
            "ticks": 247510,
            "time": 280.24190838541665,
            "velocity": 0.3937007874015748
          },
          {
            "duration": 0.21739100000002054,
            "durationTicks": 192,
            "midi": 83,
            "name": "B5",
            "ticks": 247510,
            "time": 280.24190838541665,
            "velocity": 0.3937007874015748
          },
          {
            "duration": 0.10869550000001027,
            "durationTicks": 96,
            "midi": 48,
            "name": "C3",
            "ticks": 247606,
            "time": 280.35060388541666,
            "velocity": 0.3937007874015748
          },
          {
            "duration": 0.10869550000001027,
            "durationTicks": 96,
            "midi": 60,
            "name": "C4",
            "ticks": 247606,
            "time": 280.35060388541666,
            "velocity": 0.3937007874015748
          },
          {
            "duration": 0.10869550000001027,
            "durationTicks": 96,
            "midi": 36,
            "name": "C2",
            "ticks": 247606,
            "time": 280.35060388541666,
            "velocity": 0.3937007874015748
          },
          {
            "duration": 0.10869550000001027,
            "durationTicks": 96,
            "midi": 35,
            "name": "B1",
            "ticks": 247606,
            "time": 280.35060388541666,
            "velocity": 0.3937007874015748
          },
          {
            "duration": 0.10869550000001027,
            "durationTicks": 96,
            "midi": 55,
            "name": "G3",
            "ticks": 247606,
            "time": 280.35060388541666,
            "velocity": 0.3937007874015748
          },
          {
            "duration": 0.10869550000001027,
            "durationTicks": 96,
            "midi": 52,
            "name": "E3",
            "ticks": 247606,
            "time": 280.35060388541666,
            "velocity": 0.3937007874015748
          },
          {
            "duration": 0.2173909999999637,
            "durationTicks": 192,
            "midi": 69,
            "name": "A4",
            "ticks": 247702,
            "time": 280.45929938541667,
            "velocity": 0.3937007874015748
          },
          {
            "duration": 0.2173909999999637,
            "durationTicks": 192,
            "midi": 81,
            "name": "A5",
            "ticks": 247702,
            "time": 280.45929938541667,
            "velocity": 0.3937007874015748
          },
          {
            "duration": 0.10869549999995343,
            "durationTicks": 96,
            "midi": 54,
            "name": "F#3",
            "ticks": 247702,
            "time": 280.45929938541667,
            "velocity": 0.3937007874015748
          },
          {
            "duration": 0.10869549999995343,
            "durationTicks": 96,
            "midi": 38,
            "name": "D2",
            "ticks": 247702,
            "time": 280.45929938541667,
            "velocity": 0.3937007874015748
          },
          {
            "duration": 0.2173909999999637,
            "durationTicks": 192,
            "midi": 35,
            "name": "B1",
            "ticks": 247702,
            "time": 280.45929938541667,
            "velocity": 0.3937007874015748
          },
          {
            "duration": 0.10869549999995343,
            "durationTicks": 96,
            "midi": 62,
            "name": "D4",
            "ticks": 247702,
            "time": 280.45929938541667,
            "velocity": 0.3937007874015748
          },
          {
            "duration": 0.2173909999999637,
            "durationTicks": 192,
            "midi": 86,
            "name": "D6",
            "ticks": 247702,
            "time": 280.45929938541667,
            "velocity": 0.3937007874015748
          },
          {
            "duration": 0.10869549999995343,
            "durationTicks": 96,
            "midi": 57,
            "name": "A3",
            "ticks": 247702,
            "time": 280.45929938541667,
            "velocity": 0.3937007874015748
          },
          {
            "duration": 0.2173909999999637,
            "durationTicks": 192,
            "midi": 74,
            "name": "D5",
            "ticks": 247702,
            "time": 280.45929938541667,
            "velocity": 0.3937007874015748
          },
          {
            "duration": 0.10869549999995343,
            "durationTicks": 96,
            "midi": 26,
            "name": "D1",
            "ticks": 247702,
            "time": 280.45929938541667,
            "velocity": 0.3937007874015748
          },
          {
            "duration": 0.10869550000001027,
            "durationTicks": 96,
            "midi": 62,
            "name": "D4",
            "ticks": 247798,
            "time": 280.5679948854166,
            "velocity": 0.3937007874015748
          },
          {
            "duration": 0.10869550000001027,
            "durationTicks": 96,
            "midi": 54,
            "name": "F#3",
            "ticks": 247798,
            "time": 280.5679948854166,
            "velocity": 0.3937007874015748
          },
          {
            "duration": 0.10869550000001027,
            "durationTicks": 96,
            "midi": 57,
            "name": "A3",
            "ticks": 247798,
            "time": 280.5679948854166,
            "velocity": 0.3937007874015748
          },
          {
            "duration": 0.10869550000001027,
            "durationTicks": 96,
            "midi": 38,
            "name": "D2",
            "ticks": 247894,
            "time": 280.67669038541663,
            "velocity": 0.3937007874015748
          },
          {
            "duration": 0.21739100000002054,
            "durationTicks": 192,
            "midi": 76,
            "name": "E5",
            "ticks": 247894,
            "time": 280.67669038541663,
            "velocity": 0.3937007874015748
          },
          {
            "duration": 0.10869550000001027,
            "durationTicks": 96,
            "midi": 57,
            "name": "A3",
            "ticks": 247894,
            "time": 280.67669038541663,
            "velocity": 0.3937007874015748
          },
          {
            "duration": 0.21739100000002054,
            "durationTicks": 192,
            "midi": 83,
            "name": "B5",
            "ticks": 247894,
            "time": 280.67669038541663,
            "velocity": 0.3937007874015748
          },
          {
            "duration": 0.10869550000001027,
            "durationTicks": 96,
            "midi": 50,
            "name": "D3",
            "ticks": 247894,
            "time": 280.67669038541663,
            "velocity": 0.3937007874015748
          },
          {
            "duration": 0.10869550000001027,
            "durationTicks": 96,
            "midi": 62,
            "name": "D4",
            "ticks": 247894,
            "time": 280.67669038541663,
            "velocity": 0.3937007874015748
          },
          {
            "duration": 0.10869550000001027,
            "durationTicks": 96,
            "midi": 54,
            "name": "F#3",
            "ticks": 247894,
            "time": 280.67669038541663,
            "velocity": 0.3937007874015748
          },
          {
            "duration": 0.21739100000002054,
            "durationTicks": 192,
            "midi": 88,
            "name": "E6",
            "ticks": 247894,
            "time": 280.67669038541663,
            "velocity": 0.3937007874015748
          },
          {
            "duration": 0.21739100000002054,
            "durationTicks": 192,
            "midi": 71,
            "name": "B4",
            "ticks": 247894,
            "time": 280.67669038541663,
            "velocity": 0.3937007874015748
          },
          {
            "duration": 0.10869550000001027,
            "durationTicks": 96,
            "midi": 38,
            "name": "D2",
            "ticks": 247990,
            "time": 280.78538588541664,
            "velocity": 0.3937007874015748
          },
          {
            "duration": 0.10869550000001027,
            "durationTicks": 96,
            "midi": 54,
            "name": "F#3",
            "ticks": 247990,
            "time": 280.78538588541664,
            "velocity": 0.3937007874015748
          },
          {
            "duration": 0.10869550000001027,
            "durationTicks": 96,
            "midi": 62,
            "name": "D4",
            "ticks": 247990,
            "time": 280.78538588541664,
            "velocity": 0.3937007874015748
          },
          {
            "duration": 0.10869550000001027,
            "durationTicks": 96,
            "midi": 50,
            "name": "D3",
            "ticks": 247990,
            "time": 280.78538588541664,
            "velocity": 0.3937007874015748
          },
          {
            "duration": 0.10869550000001027,
            "durationTicks": 96,
            "midi": 57,
            "name": "A3",
            "ticks": 247990,
            "time": 280.78538588541664,
            "velocity": 0.3937007874015748
          },
          {
            "duration": 0.21739100000002054,
            "durationTicks": 192,
            "midi": 83,
            "name": "B5",
            "ticks": 248086,
            "time": 280.89408138541665,
            "velocity": 0.3937007874015748
          },
          {
            "duration": 0.21739100000002054,
            "durationTicks": 192,
            "midi": 79,
            "name": "G5",
            "ticks": 248086,
            "time": 280.89408138541665,
            "velocity": 0.3937007874015748
          },
          {
            "duration": 0.21739100000002054,
            "durationTicks": 192,
            "midi": 35,
            "name": "B1",
            "ticks": 248086,
            "time": 280.89408138541665,
            "velocity": 0.3937007874015748
          },
          {
            "duration": 0.21739100000002054,
            "durationTicks": 192,
            "midi": 67,
            "name": "G4",
            "ticks": 248086,
            "time": 280.89408138541665,
            "velocity": 0.3937007874015748
          },
          {
            "duration": 0.10869550000001027,
            "durationTicks": 96,
            "midi": 38,
            "name": "D2",
            "ticks": 248086,
            "time": 280.89408138541665,
            "velocity": 0.3937007874015748
          },
          {
            "duration": 0.10869550000001027,
            "durationTicks": 96,
            "midi": 62,
            "name": "D4",
            "ticks": 248086,
            "time": 280.89408138541665,
            "velocity": 0.3937007874015748
          },
          {
            "duration": 0.10869550000001027,
            "durationTicks": 96,
            "midi": 54,
            "name": "F#3",
            "ticks": 248086,
            "time": 280.89408138541665,
            "velocity": 0.3937007874015748
          },
          {
            "duration": 0.10869550000001027,
            "durationTicks": 96,
            "midi": 57,
            "name": "A3",
            "ticks": 248086,
            "time": 280.89408138541665,
            "velocity": 0.3937007874015748
          },
          {
            "duration": 0.10869550000001027,
            "durationTicks": 96,
            "midi": 26,
            "name": "D1",
            "ticks": 248086,
            "time": 280.89408138541665,
            "velocity": 0.3937007874015748
          },
          {
            "duration": 0.21739100000002054,
            "durationTicks": 192,
            "midi": 71,
            "name": "B4",
            "ticks": 248086,
            "time": 280.89408138541665,
            "velocity": 0.3937007874015748
          },
          {
            "duration": 0.10869550000001027,
            "durationTicks": 96,
            "midi": 54,
            "name": "F#3",
            "ticks": 248182,
            "time": 281.00277688541667,
            "velocity": 0.3937007874015748
          },
          {
            "duration": 0.10869550000001027,
            "durationTicks": 96,
            "midi": 62,
            "name": "D4",
            "ticks": 248182,
            "time": 281.00277688541667,
            "velocity": 0.3937007874015748
          },
          {
            "duration": 0.10869550000001027,
            "durationTicks": 96,
            "midi": 57,
            "name": "A3",
            "ticks": 248182,
            "time": 281.00277688541667,
            "velocity": 0.3937007874015748
          },
          {
            "duration": 0.10869550000001027,
            "durationTicks": 96,
            "midi": 50,
            "name": "D3",
            "ticks": 248182,
            "time": 281.00277688541667,
            "velocity": 0.3937007874015748
          },
          {
            "duration": 0.10869550000001027,
            "durationTicks": 96,
            "midi": 38,
            "name": "D2",
            "ticks": 248182,
            "time": 281.00277688541667,
            "velocity": 0.3937007874015748
          },
          {
            "duration": 0.2173909999999637,
            "durationTicks": 192,
            "midi": 81,
            "name": "A5",
            "ticks": 248278,
            "time": 281.1114723854167,
            "velocity": 0.3937007874015748
          },
          {
            "duration": 0.2173909999999637,
            "durationTicks": 192,
            "midi": 69,
            "name": "A4",
            "ticks": 248278,
            "time": 281.1114723854167,
            "velocity": 0.3937007874015748
          },
          {
            "duration": 0.10869549999995343,
            "durationTicks": 96,
            "midi": 36,
            "name": "C2",
            "ticks": 248278,
            "time": 281.1114723854167,
            "velocity": 0.3937007874015748
          },
          {
            "duration": 0.2173909999999637,
            "durationTicks": 192,
            "midi": 66,
            "name": "F#4",
            "ticks": 248278,
            "time": 281.1114723854167,
            "velocity": 0.3937007874015748
          },
          {
            "duration": 0.2173909999999637,
            "durationTicks": 192,
            "midi": 78,
            "name": "F#5",
            "ticks": 248278,
            "time": 281.1114723854167,
            "velocity": 0.3937007874015748
          },
          {
            "duration": 0.10869549999995343,
            "durationTicks": 96,
            "midi": 54,
            "name": "F#3",
            "ticks": 248278,
            "time": 281.1114723854167,
            "velocity": 0.3937007874015748
          },
          {
            "duration": 0.10869549999995343,
            "durationTicks": 96,
            "midi": 62,
            "name": "D4",
            "ticks": 248278,
            "time": 281.1114723854167,
            "velocity": 0.3937007874015748
          },
          {
            "duration": 0.10869549999995343,
            "durationTicks": 96,
            "midi": 57,
            "name": "A3",
            "ticks": 248278,
            "time": 281.1114723854167,
            "velocity": 0.3937007874015748
          },
          {
            "duration": 0.10869549999995343,
            "durationTicks": 96,
            "midi": 48,
            "name": "C3",
            "ticks": 248278,
            "time": 281.1114723854167,
            "velocity": 0.3937007874015748
          },
          {
            "duration": 0.10869550000001027,
            "durationTicks": 96,
            "midi": 38,
            "name": "D2",
            "ticks": 248374,
            "time": 281.22016788541663,
            "velocity": 0.3937007874015748
          },
          {
            "duration": 0.10869550000001027,
            "durationTicks": 96,
            "midi": 54,
            "name": "F#3",
            "ticks": 248374,
            "time": 281.22016788541663,
            "velocity": 0.3937007874015748
          },
          {
            "duration": 0.10869550000001027,
            "durationTicks": 96,
            "midi": 62,
            "name": "D4",
            "ticks": 248374,
            "time": 281.22016788541663,
            "velocity": 0.3937007874015748
          },
          {
            "duration": 0.10869550000001027,
            "durationTicks": 96,
            "midi": 50,
            "name": "D3",
            "ticks": 248374,
            "time": 281.22016788541663,
            "velocity": 0.3937007874015748
          },
          {
            "duration": 0.10869550000001027,
            "durationTicks": 96,
            "midi": 57,
            "name": "A3",
            "ticks": 248374,
            "time": 281.22016788541663,
            "velocity": 0.3937007874015748
          },
          {
            "duration": 0.10869550000001027,
            "durationTicks": 96,
            "midi": 38,
            "name": "D2",
            "ticks": 248470,
            "time": 281.32886338541664,
            "velocity": 0.3937007874015748
          },
          {
            "duration": 0.21739100000002054,
            "durationTicks": 192,
            "midi": 83,
            "name": "B5",
            "ticks": 248470,
            "time": 281.32886338541664,
            "velocity": 0.3937007874015748
          },
          {
            "duration": 0.21739100000002054,
            "durationTicks": 192,
            "midi": 79,
            "name": "G5",
            "ticks": 248470,
            "time": 281.32886338541664,
            "velocity": 0.3937007874015748
          },
          {
            "duration": 0.10869550000001027,
            "durationTicks": 96,
            "midi": 26,
            "name": "D1",
            "ticks": 248470,
            "time": 281.32886338541664,
            "velocity": 0.3937007874015748
          },
          {
            "duration": 0.10869550000001027,
            "durationTicks": 96,
            "midi": 54,
            "name": "F#3",
            "ticks": 248470,
            "time": 281.32886338541664,
            "velocity": 0.3937007874015748
          },
          {
            "duration": 0.21739100000002054,
            "durationTicks": 192,
            "midi": 67,
            "name": "G4",
            "ticks": 248470,
            "time": 281.32886338541664,
            "velocity": 0.3937007874015748
          },
          {
            "duration": 0.10869550000001027,
            "durationTicks": 96,
            "midi": 57,
            "name": "A3",
            "ticks": 248470,
            "time": 281.32886338541664,
            "velocity": 0.3937007874015748
          },
          {
            "duration": 0.10869550000001027,
            "durationTicks": 96,
            "midi": 62,
            "name": "D4",
            "ticks": 248470,
            "time": 281.32886338541664,
            "velocity": 0.3937007874015748
          },
          {
            "duration": 0.21739100000002054,
            "durationTicks": 192,
            "midi": 35,
            "name": "B1",
            "ticks": 248470,
            "time": 281.32886338541664,
            "velocity": 0.3937007874015748
          },
          {
            "duration": 0.21739100000002054,
            "durationTicks": 192,
            "midi": 71,
            "name": "B4",
            "ticks": 248470,
            "time": 281.32886338541664,
            "velocity": 0.3937007874015748
          },
          {
            "duration": 0.10869550000001027,
            "durationTicks": 96,
            "midi": 54,
            "name": "F#3",
            "ticks": 248566,
            "time": 281.43755888541665,
            "velocity": 0.3937007874015748
          },
          {
            "duration": 0.10869550000001027,
            "durationTicks": 96,
            "midi": 62,
            "name": "D4",
            "ticks": 248566,
            "time": 281.43755888541665,
            "velocity": 0.3937007874015748
          },
          {
            "duration": 0.10869550000001027,
            "durationTicks": 96,
            "midi": 57,
            "name": "A3",
            "ticks": 248566,
            "time": 281.43755888541665,
            "velocity": 0.3937007874015748
          },
          {
            "duration": 0.10869550000001027,
            "durationTicks": 96,
            "midi": 50,
            "name": "D3",
            "ticks": 248662,
            "time": 281.54625438541666,
            "velocity": 0.3937007874015748
          },
          {
            "duration": 0.10869550000001027,
            "durationTicks": 96,
            "midi": 38,
            "name": "D2",
            "ticks": 248662,
            "time": 281.54625438541666,
            "velocity": 0.3937007874015748
          },
          {
            "duration": 0.10869550000001027,
            "durationTicks": 96,
            "midi": 62,
            "name": "D4",
            "ticks": 248662,
            "time": 281.54625438541666,
            "velocity": 0.3937007874015748
          },
          {
            "duration": 0.10869550000001027,
            "durationTicks": 96,
            "midi": 57,
            "name": "A3",
            "ticks": 248662,
            "time": 281.54625438541666,
            "velocity": 0.3937007874015748
          },
          {
            "duration": 0.10869550000001027,
            "durationTicks": 96,
            "midi": 54,
            "name": "F#3",
            "ticks": 248662,
            "time": 281.54625438541666,
            "velocity": 0.3937007874015748
          },
          {
            "duration": 0.10869549999995343,
            "durationTicks": 96,
            "midi": 57,
            "name": "A3",
            "ticks": 248758,
            "time": 281.65494988541667,
            "velocity": 0.3937007874015748
          },
          {
            "duration": 0.10869549999995343,
            "durationTicks": 96,
            "midi": 38,
            "name": "D2",
            "ticks": 248758,
            "time": 281.65494988541667,
            "velocity": 0.3937007874015748
          },
          {
            "duration": 0.10869549999995343,
            "durationTicks": 96,
            "midi": 50,
            "name": "D3",
            "ticks": 248758,
            "time": 281.65494988541667,
            "velocity": 0.3937007874015748
          },
          {
            "duration": 0.10869549999995343,
            "durationTicks": 96,
            "midi": 54,
            "name": "F#3",
            "ticks": 248758,
            "time": 281.65494988541667,
            "velocity": 0.3937007874015748
          },
          {
            "duration": 0.10869549999995343,
            "durationTicks": 96,
            "midi": 62,
            "name": "D4",
            "ticks": 248758,
            "time": 281.65494988541667,
            "velocity": 0.3937007874015748
          },
          {
            "duration": 0.10869550000001027,
            "durationTicks": 96,
            "midi": 62,
            "name": "D4",
            "ticks": 248854,
            "time": 281.7636453854166,
            "velocity": 0.3937007874015748
          },
          {
            "duration": 0.10869550000001027,
            "durationTicks": 96,
            "midi": 57,
            "name": "A3",
            "ticks": 248854,
            "time": 281.7636453854166,
            "velocity": 0.3937007874015748
          },
          {
            "duration": 0.21739100000002054,
            "durationTicks": 192,
            "midi": 76,
            "name": "E5",
            "ticks": 248854,
            "time": 281.7636453854166,
            "velocity": 0.3937007874015748
          },
          {
            "duration": 0.10869550000001027,
            "durationTicks": 96,
            "midi": 26,
            "name": "D1",
            "ticks": 248854,
            "time": 281.7636453854166,
            "velocity": 0.3937007874015748
          },
          {
            "duration": 0.21739100000002054,
            "durationTicks": 192,
            "midi": 88,
            "name": "E6",
            "ticks": 248854,
            "time": 281.7636453854166,
            "velocity": 0.3937007874015748
          },
          {
            "duration": 0.21739100000002054,
            "durationTicks": 192,
            "midi": 71,
            "name": "B4",
            "ticks": 248854,
            "time": 281.7636453854166,
            "velocity": 0.3937007874015748
          },
          {
            "duration": 0.21739100000002054,
            "durationTicks": 192,
            "midi": 35,
            "name": "B1",
            "ticks": 248854,
            "time": 281.7636453854166,
            "velocity": 0.3937007874015748
          },
          {
            "duration": 0.10869550000001027,
            "durationTicks": 96,
            "midi": 54,
            "name": "F#3",
            "ticks": 248854,
            "time": 281.7636453854166,
            "velocity": 0.3937007874015748
          },
          {
            "duration": 0.10869550000001027,
            "durationTicks": 96,
            "midi": 38,
            "name": "D2",
            "ticks": 248854,
            "time": 281.7636453854166,
            "velocity": 0.3937007874015748
          },
          {
            "duration": 0.21739100000002054,
            "durationTicks": 192,
            "midi": 83,
            "name": "B5",
            "ticks": 248854,
            "time": 281.7636453854166,
            "velocity": 0.3937007874015748
          },
          {
            "duration": 0.10869550000001027,
            "durationTicks": 96,
            "midi": 38,
            "name": "D2",
            "ticks": 248950,
            "time": 281.87234088541663,
            "velocity": 0.3937007874015748
          },
          {
            "duration": 0.10869550000001027,
            "durationTicks": 96,
            "midi": 57,
            "name": "A3",
            "ticks": 248950,
            "time": 281.87234088541663,
            "velocity": 0.3937007874015748
          },
          {
            "duration": 0.10869550000001027,
            "durationTicks": 96,
            "midi": 62,
            "name": "D4",
            "ticks": 248950,
            "time": 281.87234088541663,
            "velocity": 0.3937007874015748
          },
          {
            "duration": 0.10869550000001027,
            "durationTicks": 96,
            "midi": 54,
            "name": "F#3",
            "ticks": 248950,
            "time": 281.87234088541663,
            "velocity": 0.3937007874015748
          },
          {
            "duration": 0.10869550000001027,
            "durationTicks": 96,
            "midi": 50,
            "name": "D3",
            "ticks": 248950,
            "time": 281.87234088541663,
            "velocity": 0.3937007874015748
          },
          {
            "duration": 0.10869550000001027,
            "durationTicks": 96,
            "midi": 57,
            "name": "A3",
            "ticks": 249046,
            "time": 281.98103638541664,
            "velocity": 0.3937007874015748
          },
          {
            "duration": 0.10869550000001027,
            "durationTicks": 96,
            "midi": 36,
            "name": "C2",
            "ticks": 249046,
            "time": 281.98103638541664,
            "velocity": 0.3937007874015748
          },
          {
            "duration": 0.21739100000002054,
            "durationTicks": 192,
            "midi": 74,
            "name": "D5",
            "ticks": 249046,
            "time": 281.98103638541664,
            "velocity": 0.3937007874015748
          },
          {
            "duration": 0.21739100000002054,
            "durationTicks": 192,
            "midi": 86,
            "name": "D6",
            "ticks": 249046,
            "time": 281.98103638541664,
            "velocity": 0.3937007874015748
          },
          {
            "duration": 0.10869550000001027,
            "durationTicks": 96,
            "midi": 54,
            "name": "F#3",
            "ticks": 249046,
            "time": 281.98103638541664,
            "velocity": 0.3937007874015748
          },
          {
            "duration": 0.21739100000002054,
            "durationTicks": 192,
            "midi": 78,
            "name": "F#5",
            "ticks": 249046,
            "time": 281.98103638541664,
            "velocity": 0.3937007874015748
          },
          {
            "duration": 0.21739100000002054,
            "durationTicks": 192,
            "midi": 35,
            "name": "B1",
            "ticks": 249046,
            "time": 281.98103638541664,
            "velocity": 0.3937007874015748
          },
          {
            "duration": 0.10869550000001027,
            "durationTicks": 96,
            "midi": 62,
            "name": "D4",
            "ticks": 249046,
            "time": 281.98103638541664,
            "velocity": 0.3937007874015748
          },
          {
            "duration": 0.10869550000001027,
            "durationTicks": 96,
            "midi": 48,
            "name": "C3",
            "ticks": 249046,
            "time": 281.98103638541664,
            "velocity": 0.3937007874015748
          },
          {
            "duration": 0.21739100000002054,
            "durationTicks": 192,
            "midi": 90,
            "name": "F#6",
            "ticks": 249046,
            "time": 281.98103638541664,
            "velocity": 0.3937007874015748
          },
          {
            "duration": 0.10869550000001027,
            "durationTicks": 96,
            "midi": 62,
            "name": "D4",
            "ticks": 249142,
            "time": 282.08973188541665,
            "velocity": 0.3937007874015748
          },
          {
            "duration": 0.10869550000001027,
            "durationTicks": 96,
            "midi": 54,
            "name": "F#3",
            "ticks": 249142,
            "time": 282.08973188541665,
            "velocity": 0.3937007874015748
          },
          {
            "duration": 0.10869550000001027,
            "durationTicks": 96,
            "midi": 38,
            "name": "D2",
            "ticks": 249142,
            "time": 282.08973188541665,
            "velocity": 0.3937007874015748
          },
          {
            "duration": 0.10869550000001027,
            "durationTicks": 96,
            "midi": 50,
            "name": "D3",
            "ticks": 249142,
            "time": 282.08973188541665,
            "velocity": 0.3937007874015748
          },
          {
            "duration": 0.10869550000001027,
            "durationTicks": 96,
            "midi": 57,
            "name": "A3",
            "ticks": 249142,
            "time": 282.08973188541665,
            "velocity": 0.3937007874015748
          },
          {
            "duration": 0.2173909999999637,
            "durationTicks": 192,
            "midi": 79,
            "name": "G5",
            "ticks": 249238,
            "time": 282.19842738541666,
            "velocity": 0.3937007874015748
          },
          {
            "duration": 0.2173909999999637,
            "durationTicks": 192,
            "midi": 76,
            "name": "E5",
            "ticks": 249238,
            "time": 282.19842738541666,
            "velocity": 0.3937007874015748
          },
          {
            "duration": 0.2173909999999637,
            "durationTicks": 192,
            "midi": 91,
            "name": "G6",
            "ticks": 249238,
            "time": 282.19842738541666,
            "velocity": 0.3937007874015748
          },
          {
            "duration": 0.2173909999999637,
            "durationTicks": 192,
            "midi": 35,
            "name": "B1",
            "ticks": 249238,
            "time": 282.19842738541666,
            "velocity": 0.3937007874015748
          },
          {
            "duration": 0.10869550000001027,
            "durationTicks": 96,
            "midi": 59,
            "name": "B3",
            "ticks": 249238,
            "time": 282.19842738541666,
            "velocity": 0.3937007874015748
          },
          {
            "duration": 0.10869550000001027,
            "durationTicks": 96,
            "midi": 64,
            "name": "E4",
            "ticks": 249238,
            "time": 282.19842738541666,
            "velocity": 0.3937007874015748
          },
          {
            "duration": 0.10869550000001027,
            "durationTicks": 96,
            "midi": 55,
            "name": "G3",
            "ticks": 249238,
            "time": 282.19842738541666,
            "velocity": 0.3937007874015748
          },
          {
            "duration": 0.2173909999999637,
            "durationTicks": 192,
            "midi": 88,
            "name": "E6",
            "ticks": 249238,
            "time": 282.19842738541666,
            "velocity": 0.3937007874015748
          },
          {
            "duration": 0.10869550000001027,
            "durationTicks": 96,
            "midi": 28,
            "name": "E1",
            "ticks": 249238,
            "time": 282.19842738541666,
            "velocity": 0.3937007874015748
          },
          {
            "duration": 0.10869550000001027,
            "durationTicks": 96,
            "midi": 40,
            "name": "E2",
            "ticks": 249238,
            "time": 282.19842738541666,
            "velocity": 0.3937007874015748
          },
          {
            "duration": 0.10869549999995343,
            "durationTicks": 96,
            "midi": 59,
            "name": "B3",
            "ticks": 249334,
            "time": 282.3071228854167,
            "velocity": 0.3937007874015748
          },
          {
            "duration": 0.10869549999995343,
            "durationTicks": 96,
            "midi": 55,
            "name": "G3",
            "ticks": 249334,
            "time": 282.3071228854167,
            "velocity": 0.3937007874015748
          },
          {
            "duration": 0.10869549999995343,
            "durationTicks": 96,
            "midi": 64,
            "name": "E4",
            "ticks": 249334,
            "time": 282.3071228854167,
            "velocity": 0.3937007874015748
          },
          {
            "duration": 0.10869550000001027,
            "durationTicks": 96,
            "midi": 52,
            "name": "E3",
            "ticks": 249430,
            "time": 282.4158183854166,
            "velocity": 0.3937007874015748
          },
          {
            "duration": 0.10869550000001027,
            "durationTicks": 96,
            "midi": 64,
            "name": "E4",
            "ticks": 249430,
            "time": 282.4158183854166,
            "velocity": 0.3937007874015748
          },
          {
            "duration": 0.10869550000001027,
            "durationTicks": 96,
            "midi": 59,
            "name": "B3",
            "ticks": 249430,
            "time": 282.4158183854166,
            "velocity": 0.3937007874015748
          },
          {
            "duration": 0.10869550000001027,
            "durationTicks": 96,
            "midi": 40,
            "name": "E2",
            "ticks": 249430,
            "time": 282.4158183854166,
            "velocity": 0.3937007874015748
          },
          {
            "duration": 0.21739100000002054,
            "durationTicks": 192,
            "midi": 86,
            "name": "D6",
            "ticks": 249430,
            "time": 282.4158183854166,
            "velocity": 0.3937007874015748
          },
          {
            "duration": 0.21739100000002054,
            "durationTicks": 192,
            "midi": 74,
            "name": "D5",
            "ticks": 249430,
            "time": 282.4158183854166,
            "velocity": 0.3937007874015748
          },
          {
            "duration": 0.21739100000002054,
            "durationTicks": 192,
            "midi": 90,
            "name": "F#6",
            "ticks": 249430,
            "time": 282.4158183854166,
            "velocity": 0.3937007874015748
          },
          {
            "duration": 0.10869550000001027,
            "durationTicks": 96,
            "midi": 55,
            "name": "G3",
            "ticks": 249430,
            "time": 282.4158183854166,
            "velocity": 0.3937007874015748
          },
          {
            "duration": 0.21739100000002054,
            "durationTicks": 192,
            "midi": 78,
            "name": "F#5",
            "ticks": 249430,
            "time": 282.4158183854166,
            "velocity": 0.3937007874015748
          },
          {
            "duration": 0.10869550000001027,
            "durationTicks": 96,
            "midi": 59,
            "name": "B3",
            "ticks": 249526,
            "time": 282.52451388541664,
            "velocity": 0.3937007874015748
          },
          {
            "duration": 0.10869550000001027,
            "durationTicks": 96,
            "midi": 64,
            "name": "E4",
            "ticks": 249526,
            "time": 282.52451388541664,
            "velocity": 0.3937007874015748
          },
          {
            "duration": 0.10869550000001027,
            "durationTicks": 96,
            "midi": 55,
            "name": "G3",
            "ticks": 249526,
            "time": 282.52451388541664,
            "velocity": 0.3937007874015748
          },
          {
            "duration": 0.10869550000001027,
            "durationTicks": 96,
            "midi": 52,
            "name": "E3",
            "ticks": 249526,
            "time": 282.52451388541664,
            "velocity": 0.3937007874015748
          },
          {
            "duration": 0.10869550000001027,
            "durationTicks": 96,
            "midi": 40,
            "name": "E2",
            "ticks": 249526,
            "time": 282.52451388541664,
            "velocity": 0.3937007874015748
          },
          {
            "duration": 0.21739100000002054,
            "durationTicks": 192,
            "midi": 35,
            "name": "B1",
            "ticks": 249622,
            "time": 282.63320938541665,
            "velocity": 0.3937007874015748
          },
          {
            "duration": 0.10869550000001027,
            "durationTicks": 96,
            "midi": 28,
            "name": "E1",
            "ticks": 249622,
            "time": 282.63320938541665,
            "velocity": 0.3937007874015748
          },
          {
            "duration": 0.21739100000002054,
            "durationTicks": 192,
            "midi": 76,
            "name": "E5",
            "ticks": 249622,
            "time": 282.63320938541665,
            "velocity": 0.3937007874015748
          },
          {
            "duration": 0.10869550000001027,
            "durationTicks": 96,
            "midi": 59,
            "name": "B3",
            "ticks": 249622,
            "time": 282.63320938541665,
            "velocity": 0.3937007874015748
          },
          {
            "duration": 0.21739100000002054,
            "durationTicks": 192,
            "midi": 71,
            "name": "B4",
            "ticks": 249622,
            "time": 282.63320938541665,
            "velocity": 0.3937007874015748
          },
          {
            "duration": 0.21739100000002054,
            "durationTicks": 192,
            "midi": 83,
            "name": "B5",
            "ticks": 249622,
            "time": 282.63320938541665,
            "velocity": 0.3937007874015748
          },
          {
            "duration": 0.10869550000001027,
            "durationTicks": 96,
            "midi": 64,
            "name": "E4",
            "ticks": 249622,
            "time": 282.63320938541665,
            "velocity": 0.3937007874015748
          },
          {
            "duration": 0.21739100000002054,
            "durationTicks": 192,
            "midi": 88,
            "name": "E6",
            "ticks": 249622,
            "time": 282.63320938541665,
            "velocity": 0.3937007874015748
          },
          {
            "duration": 0.10869550000001027,
            "durationTicks": 96,
            "midi": 55,
            "name": "G3",
            "ticks": 249622,
            "time": 282.63320938541665,
            "velocity": 0.3937007874015748
          },
          {
            "duration": 0.10869550000001027,
            "durationTicks": 96,
            "midi": 40,
            "name": "E2",
            "ticks": 249622,
            "time": 282.63320938541665,
            "velocity": 0.3937007874015748
          },
          {
            "duration": 0.10869550000001027,
            "durationTicks": 96,
            "midi": 52,
            "name": "E3",
            "ticks": 249718,
            "time": 282.74190488541666,
            "velocity": 0.3937007874015748
          },
          {
            "duration": 0.10869550000001027,
            "durationTicks": 96,
            "midi": 59,
            "name": "B3",
            "ticks": 249718,
            "time": 282.74190488541666,
            "velocity": 0.3937007874015748
          },
          {
            "duration": 0.10869550000001027,
            "durationTicks": 96,
            "midi": 55,
            "name": "G3",
            "ticks": 249718,
            "time": 282.74190488541666,
            "velocity": 0.3937007874015748
          },
          {
            "duration": 0.10869550000001027,
            "durationTicks": 96,
            "midi": 64,
            "name": "E4",
            "ticks": 249718,
            "time": 282.74190488541666,
            "velocity": 0.3937007874015748
          },
          {
            "duration": 0.10869550000001027,
            "durationTicks": 96,
            "midi": 40,
            "name": "E2",
            "ticks": 249718,
            "time": 282.74190488541666,
            "velocity": 0.3937007874015748
          },
          {
            "duration": 0.10869550000001027,
            "durationTicks": 96,
            "midi": 64,
            "name": "E4",
            "ticks": 249814,
            "time": 282.85060038541667,
            "velocity": 0.3937007874015748
          },
          {
            "duration": 0.10869550000001027,
            "durationTicks": 96,
            "midi": 59,
            "name": "B3",
            "ticks": 249814,
            "time": 282.85060038541667,
            "velocity": 0.3937007874015748
          },
          {
            "duration": 0.2173909999999637,
            "durationTicks": 192,
            "midi": 74,
            "name": "D5",
            "ticks": 249814,
            "time": 282.85060038541667,
            "velocity": 0.3937007874015748
          },
          {
            "duration": 0.10869550000001027,
            "durationTicks": 96,
            "midi": 55,
            "name": "G3",
            "ticks": 249814,
            "time": 282.85060038541667,
            "velocity": 0.3937007874015748
          },
          {
            "duration": 0.10869550000001027,
            "durationTicks": 96,
            "midi": 50,
            "name": "D3",
            "ticks": 249814,
            "time": 282.85060038541667,
            "velocity": 0.3937007874015748
          },
          {
            "duration": 0.2173909999999637,
            "durationTicks": 192,
            "midi": 81,
            "name": "A5",
            "ticks": 249814,
            "time": 282.85060038541667,
            "velocity": 0.3937007874015748
          },
          {
            "duration": 0.2173909999999637,
            "durationTicks": 192,
            "midi": 86,
            "name": "D6",
            "ticks": 249814,
            "time": 282.85060038541667,
            "velocity": 0.3937007874015748
          },
          {
            "duration": 0.2173909999999637,
            "durationTicks": 192,
            "midi": 69,
            "name": "A4",
            "ticks": 249814,
            "time": 282.85060038541667,
            "velocity": 0.3937007874015748
          },
          {
            "duration": 0.10869550000001027,
            "durationTicks": 96,
            "midi": 38,
            "name": "D2",
            "ticks": 249814,
            "time": 282.85060038541667,
            "velocity": 0.3937007874015748
          },
          {
            "duration": 0.10869549999995343,
            "durationTicks": 96,
            "midi": 52,
            "name": "E3",
            "ticks": 249910,
            "time": 282.9592958854167,
            "velocity": 0.3937007874015748
          },
          {
            "duration": 0.10869549999995343,
            "durationTicks": 96,
            "midi": 40,
            "name": "E2",
            "ticks": 249910,
            "time": 282.9592958854167,
            "velocity": 0.3937007874015748
          },
          {
            "duration": 0.10869549999995343,
            "durationTicks": 96,
            "midi": 55,
            "name": "G3",
            "ticks": 249910,
            "time": 282.9592958854167,
            "velocity": 0.3937007874015748
          },
          {
            "duration": 0.10869549999995343,
            "durationTicks": 96,
            "midi": 59,
            "name": "B3",
            "ticks": 249910,
            "time": 282.9592958854167,
            "velocity": 0.3937007874015748
          },
          {
            "duration": 0.10869549999995343,
            "durationTicks": 96,
            "midi": 64,
            "name": "E4",
            "ticks": 249910,
            "time": 282.9592958854167,
            "velocity": 0.3937007874015748
          },
          {
            "duration": 0.10869550000001027,
            "durationTicks": 96,
            "midi": 55,
            "name": "G3",
            "ticks": 250006,
            "time": 283.06799138541663,
            "velocity": 0.3937007874015748
          },
          {
            "duration": 0.4347820000000411,
            "durationTicks": 384,
            "midi": 67,
            "name": "G4",
            "ticks": 250006,
            "time": 283.06799138541663,
            "velocity": 0.3937007874015748
          },
          {
            "duration": 0.10869550000001027,
            "durationTicks": 96,
            "midi": 28,
            "name": "E1",
            "ticks": 250006,
            "time": 283.06799138541663,
            "velocity": 0.3937007874015748
          },
          {
            "duration": 0.10869550000001027,
            "durationTicks": 96,
            "midi": 40,
            "name": "E2",
            "ticks": 250006,
            "time": 283.06799138541663,
            "velocity": 0.3937007874015748
          },
          {
            "duration": 0.4347820000000411,
            "durationTicks": 384,
            "midi": 71,
            "name": "B4",
            "ticks": 250006,
            "time": 283.06799138541663,
            "velocity": 0.3937007874015748
          },
          {
            "duration": 0.21739100000002054,
            "durationTicks": 192,
            "midi": 35,
            "name": "B1",
            "ticks": 250006,
            "time": 283.06799138541663,
            "velocity": 0.3937007874015748
          },
          {
            "duration": 0.4347820000000411,
            "durationTicks": 384,
            "midi": 83,
            "name": "B5",
            "ticks": 250006,
            "time": 283.06799138541663,
            "velocity": 0.3937007874015748
          },
          {
            "duration": 0.10869550000001027,
            "durationTicks": 96,
            "midi": 64,
            "name": "E4",
            "ticks": 250006,
            "time": 283.06799138541663,
            "velocity": 0.3937007874015748
          },
          {
            "duration": 0.10869550000001027,
            "durationTicks": 96,
            "midi": 59,
            "name": "B3",
            "ticks": 250006,
            "time": 283.06799138541663,
            "velocity": 0.3937007874015748
          },
          {
            "duration": 0.4347820000000411,
            "durationTicks": 384,
            "midi": 79,
            "name": "G5",
            "ticks": 250006,
            "time": 283.06799138541663,
            "velocity": 0.3937007874015748
          },
          {
            "duration": 0.10869550000001027,
            "durationTicks": 96,
            "midi": 59,
            "name": "B3",
            "ticks": 250102,
            "time": 283.17668688541664,
            "velocity": 0.3937007874015748
          },
          {
            "duration": 0.10869550000001027,
            "durationTicks": 96,
            "midi": 64,
            "name": "E4",
            "ticks": 250102,
            "time": 283.17668688541664,
            "velocity": 0.3937007874015748
          },
          {
            "duration": 0.10869550000001027,
            "durationTicks": 96,
            "midi": 55,
            "name": "G3",
            "ticks": 250102,
            "time": 283.17668688541664,
            "velocity": 0.3937007874015748
          },
          {
            "duration": 0.10869550000001027,
            "durationTicks": 96,
            "midi": 55,
            "name": "G3",
            "ticks": 250198,
            "time": 283.28538238541665,
            "velocity": 0.3937007874015748
          },
          {
            "duration": 0.10869550000001027,
            "durationTicks": 96,
            "midi": 64,
            "name": "E4",
            "ticks": 250198,
            "time": 283.28538238541665,
            "velocity": 0.3937007874015748
          },
          {
            "duration": 0.10869550000001027,
            "durationTicks": 96,
            "midi": 52,
            "name": "E3",
            "ticks": 250198,
            "time": 283.28538238541665,
            "velocity": 0.3937007874015748
          },
          {
            "duration": 0.10869550000001027,
            "durationTicks": 96,
            "midi": 59,
            "name": "B3",
            "ticks": 250198,
            "time": 283.28538238541665,
            "velocity": 0.3937007874015748
          },
          {
            "duration": 0.10869550000001027,
            "durationTicks": 96,
            "midi": 40,
            "name": "E2",
            "ticks": 250198,
            "time": 283.28538238541665,
            "velocity": 0.3937007874015748
          },
          {
            "duration": 0.10869550000001027,
            "durationTicks": 96,
            "midi": 52,
            "name": "E3",
            "ticks": 250294,
            "time": 283.39407788541666,
            "velocity": 0.3937007874015748
          },
          {
            "duration": 0.10869550000001027,
            "durationTicks": 96,
            "midi": 64,
            "name": "E4",
            "ticks": 250294,
            "time": 283.39407788541666,
            "velocity": 0.3937007874015748
          },
          {
            "duration": 0.10869550000001027,
            "durationTicks": 96,
            "midi": 40,
            "name": "E2",
            "ticks": 250294,
            "time": 283.39407788541666,
            "velocity": 0.3937007874015748
          },
          {
            "duration": 0.10869550000001027,
            "durationTicks": 96,
            "midi": 55,
            "name": "G3",
            "ticks": 250294,
            "time": 283.39407788541666,
            "velocity": 0.3937007874015748
          },
          {
            "duration": 0.10869550000001027,
            "durationTicks": 96,
            "midi": 59,
            "name": "B3",
            "ticks": 250294,
            "time": 283.39407788541666,
            "velocity": 0.3937007874015748
          },
          {
            "duration": 0.10869549999995343,
            "durationTicks": 96,
            "midi": 28,
            "name": "E1",
            "ticks": 250390,
            "time": 283.5027733854167,
            "velocity": 0.3937007874015748
          },
          {
            "duration": 0.10869549999995343,
            "durationTicks": 96,
            "midi": 55,
            "name": "G3",
            "ticks": 250390,
            "time": 283.5027733854167,
            "velocity": 0.3937007874015748
          },
          {
            "duration": 0.2173909999999637,
            "durationTicks": 192,
            "midi": 66,
            "name": "F#4",
            "ticks": 250390,
            "time": 283.5027733854167,
            "velocity": 0.3937007874015748
          },
          {
            "duration": 0.10869549999995343,
            "durationTicks": 96,
            "midi": 35,
            "name": "B1",
            "ticks": 250390,
            "time": 283.5027733854167,
            "velocity": 0.3937007874015748
          },
          {
            "duration": 0.10869549999995343,
            "durationTicks": 96,
            "midi": 64,
            "name": "E4",
            "ticks": 250390,
            "time": 283.5027733854167,
            "velocity": 0.3937007874015748
          },
          {
            "duration": 0.2173909999999637,
            "durationTicks": 192,
            "midi": 78,
            "name": "F#5",
            "ticks": 250390,
            "time": 283.5027733854167,
            "velocity": 0.3937007874015748
          },
          {
            "duration": 0.2173909999999637,
            "durationTicks": 192,
            "midi": 69,
            "name": "A4",
            "ticks": 250390,
            "time": 283.5027733854167,
            "velocity": 0.3937007874015748
          },
          {
            "duration": 0.2173909999999637,
            "durationTicks": 192,
            "midi": 81,
            "name": "A5",
            "ticks": 250390,
            "time": 283.5027733854167,
            "velocity": 0.3937007874015748
          },
          {
            "duration": 0.10869549999995343,
            "durationTicks": 96,
            "midi": 40,
            "name": "E2",
            "ticks": 250390,
            "time": 283.5027733854167,
            "velocity": 0.3937007874015748
          },
          {
            "duration": 0.10869549999995343,
            "durationTicks": 96,
            "midi": 59,
            "name": "B3",
            "ticks": 250390,
            "time": 283.5027733854167,
            "velocity": 0.3937007874015748
          },
          {
            "duration": 0.10869550000001027,
            "durationTicks": 96,
            "midi": 40,
            "name": "E2",
            "ticks": 250486,
            "time": 283.6114688854166,
            "velocity": 0.3937007874015748
          },
          {
            "duration": 0.10869550000001027,
            "durationTicks": 96,
            "midi": 64,
            "name": "E4",
            "ticks": 250486,
            "time": 283.6114688854166,
            "velocity": 0.3937007874015748
          },
          {
            "duration": 0.10869550000001027,
            "durationTicks": 96,
            "midi": 59,
            "name": "B3",
            "ticks": 250486,
            "time": 283.6114688854166,
            "velocity": 0.3937007874015748
          },
          {
            "duration": 0.10869550000001027,
            "durationTicks": 96,
            "midi": 55,
            "name": "G3",
            "ticks": 250486,
            "time": 283.6114688854166,
            "velocity": 0.3937007874015748
          },
          {
            "duration": 0.10869550000001027,
            "durationTicks": 96,
            "midi": 35,
            "name": "B1",
            "ticks": 250486,
            "time": 283.6114688854166,
            "velocity": 0.3937007874015748
          },
          {
            "duration": 0.10869550000001027,
            "durationTicks": 96,
            "midi": 52,
            "name": "E3",
            "ticks": 250486,
            "time": 283.6114688854166,
            "velocity": 0.3937007874015748
          },
          {
            "duration": 0.21739100000002054,
            "durationTicks": 192,
            "midi": 83,
            "name": "B5",
            "ticks": 250582,
            "time": 283.72016438541664,
            "velocity": 0.3937007874015748
          },
          {
            "duration": 0.21739100000002054,
            "durationTicks": 192,
            "midi": 67,
            "name": "G4",
            "ticks": 250582,
            "time": 283.72016438541664,
            "velocity": 0.3937007874015748
          },
          {
            "duration": 0.10869550000001027,
            "durationTicks": 96,
            "midi": 50,
            "name": "D3",
            "ticks": 250582,
            "time": 283.72016438541664,
            "velocity": 0.3937007874015748
          },
          {
            "duration": 0.10869550000001027,
            "durationTicks": 96,
            "midi": 64,
            "name": "E4",
            "ticks": 250582,
            "time": 283.72016438541664,
            "velocity": 0.3937007874015748
          },
          {
            "duration": 0.10869550000001027,
            "durationTicks": 96,
            "midi": 35,
            "name": "B1",
            "ticks": 250582,
            "time": 283.72016438541664,
            "velocity": 0.3937007874015748
          },
          {
            "duration": 0.10869550000001027,
            "durationTicks": 96,
            "midi": 55,
            "name": "G3",
            "ticks": 250582,
            "time": 283.72016438541664,
            "velocity": 0.3937007874015748
          },
          {
            "duration": 0.21739100000002054,
            "durationTicks": 192,
            "midi": 79,
            "name": "G5",
            "ticks": 250582,
            "time": 283.72016438541664,
            "velocity": 0.3937007874015748
          },
          {
            "duration": 0.21739100000002054,
            "durationTicks": 192,
            "midi": 71,
            "name": "B4",
            "ticks": 250582,
            "time": 283.72016438541664,
            "velocity": 0.3937007874015748
          },
          {
            "duration": 0.10869550000001027,
            "durationTicks": 96,
            "midi": 38,
            "name": "D2",
            "ticks": 250582,
            "time": 283.72016438541664,
            "velocity": 0.3937007874015748
          },
          {
            "duration": 0.10869550000001027,
            "durationTicks": 96,
            "midi": 59,
            "name": "B3",
            "ticks": 250582,
            "time": 283.72016438541664,
            "velocity": 0.3937007874015748
          },
          {
            "duration": 0.10869550000001027,
            "durationTicks": 96,
            "midi": 64,
            "name": "E4",
            "ticks": 250678,
            "time": 283.82885988541665,
            "velocity": 0.3937007874015748
          },
          {
            "duration": 0.10869550000001027,
            "durationTicks": 96,
            "midi": 40,
            "name": "E2",
            "ticks": 250678,
            "time": 283.82885988541665,
            "velocity": 0.3937007874015748
          },
          {
            "duration": 0.10869550000001027,
            "durationTicks": 96,
            "midi": 52,
            "name": "E3",
            "ticks": 250678,
            "time": 283.82885988541665,
            "velocity": 0.3937007874015748
          },
          {
            "duration": 0.10869550000001027,
            "durationTicks": 96,
            "midi": 55,
            "name": "G3",
            "ticks": 250678,
            "time": 283.82885988541665,
            "velocity": 0.3937007874015748
          },
          {
            "duration": 0.10869550000001027,
            "durationTicks": 96,
            "midi": 35,
            "name": "B1",
            "ticks": 250678,
            "time": 283.82885988541665,
            "velocity": 0.3937007874015748
          },
          {
            "duration": 0.10869550000001027,
            "durationTicks": 96,
            "midi": 59,
            "name": "B3",
            "ticks": 250678,
            "time": 283.82885988541665,
            "velocity": 0.3937007874015748
          },
          {
            "duration": 0.10869550000001027,
            "durationTicks": 96,
            "midi": 28,
            "name": "E1",
            "ticks": 250774,
            "time": 283.93755538541666,
            "velocity": 0.3937007874015748
          },
          {
            "duration": 0.10869550000001027,
            "durationTicks": 96,
            "midi": 59,
            "name": "B3",
            "ticks": 250774,
            "time": 283.93755538541666,
            "velocity": 0.3937007874015748
          },
          {
            "duration": 0.10869550000001027,
            "durationTicks": 96,
            "midi": 64,
            "name": "E4",
            "ticks": 250774,
            "time": 283.93755538541666,
            "velocity": 0.3937007874015748
          },
          {
            "duration": 0.21739100000002054,
            "durationTicks": 192,
            "midi": 81,
            "name": "A5",
            "ticks": 250774,
            "time": 283.93755538541666,
            "velocity": 0.3937007874015748
          },
          {
            "duration": 0.21739100000002054,
            "durationTicks": 192,
            "midi": 69,
            "name": "A4",
            "ticks": 250774,
            "time": 283.93755538541666,
            "velocity": 0.3937007874015748
          },
          {
            "duration": 0.21739100000002054,
            "durationTicks": 192,
            "midi": 66,
            "name": "F#4",
            "ticks": 250774,
            "time": 283.93755538541666,
            "velocity": 0.3937007874015748
          },
          {
            "duration": 0.21739100000002054,
            "durationTicks": 192,
            "midi": 35,
            "name": "B1",
            "ticks": 250774,
            "time": 283.93755538541666,
            "velocity": 0.3937007874015748
          },
          {
            "duration": 0.10869550000001027,
            "durationTicks": 96,
            "midi": 55,
            "name": "G3",
            "ticks": 250774,
            "time": 283.93755538541666,
            "velocity": 0.3937007874015748
          },
          {
            "duration": 0.10869550000001027,
            "durationTicks": 96,
            "midi": 40,
            "name": "E2",
            "ticks": 250774,
            "time": 283.93755538541666,
            "velocity": 0.3937007874015748
          },
          {
            "duration": 0.21739100000002054,
            "durationTicks": 192,
            "midi": 78,
            "name": "F#5",
            "ticks": 250774,
            "time": 283.93755538541666,
            "velocity": 0.3937007874015748
          },
          {
            "duration": 0.10869550000001027,
            "durationTicks": 96,
            "midi": 59,
            "name": "B3",
            "ticks": 250870,
            "time": 284.04625088541667,
            "velocity": 0.3937007874015748
          },
          {
            "duration": 0.10869550000001027,
            "durationTicks": 96,
            "midi": 55,
            "name": "G3",
            "ticks": 250870,
            "time": 284.04625088541667,
            "velocity": 0.3937007874015748
          },
          {
            "duration": 0.10869550000001027,
            "durationTicks": 96,
            "midi": 64,
            "name": "E4",
            "ticks": 250870,
            "time": 284.04625088541667,
            "velocity": 0.3937007874015748
          },
          {
            "duration": 0.10869549999995343,
            "durationTicks": 96,
            "midi": 40,
            "name": "E2",
            "ticks": 250966,
            "time": 284.1549463854167,
            "velocity": 0.3937007874015748
          },
          {
            "duration": 0.10869549999995343,
            "durationTicks": 96,
            "midi": 59,
            "name": "B3",
            "ticks": 250966,
            "time": 284.1549463854167,
            "velocity": 0.3937007874015748
          },
          {
            "duration": 0.2173909999999637,
            "durationTicks": 192,
            "midi": 76,
            "name": "E5",
            "ticks": 250966,
            "time": 284.1549463854167,
            "velocity": 0.3937007874015748
          },
          {
            "duration": 0.10869549999995343,
            "durationTicks": 96,
            "midi": 64,
            "name": "E4",
            "ticks": 250966,
            "time": 284.1549463854167,
            "velocity": 0.3937007874015748
          },
          {
            "duration": 0.2173909999999637,
            "durationTicks": 192,
            "midi": 67,
            "name": "G4",
            "ticks": 250966,
            "time": 284.1549463854167,
            "velocity": 0.3937007874015748
          },
          {
            "duration": 0.2173909999999637,
            "durationTicks": 192,
            "midi": 64,
            "name": "E4",
            "ticks": 250966,
            "time": 284.1549463854167,
            "velocity": 0.3937007874015748
          },
          {
            "duration": 0.10869549999995343,
            "durationTicks": 96,
            "midi": 55,
            "name": "G3",
            "ticks": 250966,
            "time": 284.1549463854167,
            "velocity": 0.3937007874015748
          },
          {
            "duration": 0.10869549999995343,
            "durationTicks": 96,
            "midi": 52,
            "name": "E3",
            "ticks": 250966,
            "time": 284.1549463854167,
            "velocity": 0.3937007874015748
          },
          {
            "duration": 0.2173909999999637,
            "durationTicks": 192,
            "midi": 79,
            "name": "G5",
            "ticks": 250966,
            "time": 284.1549463854167,
            "velocity": 0.3937007874015748
          },
          {
            "duration": 0.10869550000001027,
            "durationTicks": 96,
            "midi": 59,
            "name": "B3",
            "ticks": 251062,
            "time": 284.26364188541663,
            "velocity": 0.3937007874015748
          },
          {
            "duration": 0.10869550000001027,
            "durationTicks": 96,
            "midi": 55,
            "name": "G3",
            "ticks": 251062,
            "time": 284.26364188541663,
            "velocity": 0.3937007874015748
          },
          {
            "duration": 0.10869550000001027,
            "durationTicks": 96,
            "midi": 64,
            "name": "E4",
            "ticks": 251062,
            "time": 284.26364188541663,
            "velocity": 0.3937007874015748
          },
          {
            "duration": 0.10869550000001027,
            "durationTicks": 96,
            "midi": 52,
            "name": "E3",
            "ticks": 251062,
            "time": 284.26364188541663,
            "velocity": 0.3937007874015748
          },
          {
            "duration": 0.10869550000001027,
            "durationTicks": 96,
            "midi": 40,
            "name": "E2",
            "ticks": 251062,
            "time": 284.26364188541663,
            "velocity": 0.3937007874015748
          },
          {
            "duration": 0.21739100000002054,
            "durationTicks": 192,
            "midi": 35,
            "name": "B1",
            "ticks": 251158,
            "time": 284.37233738541664,
            "velocity": 0.3937007874015748
          },
          {
            "duration": 0.10869550000001027,
            "durationTicks": 96,
            "midi": 64,
            "name": "E4",
            "ticks": 251158,
            "time": 284.37233738541664,
            "velocity": 0.3937007874015748
          },
          {
            "duration": 0.10869550000001027,
            "durationTicks": 96,
            "midi": 55,
            "name": "G3",
            "ticks": 251158,
            "time": 284.37233738541664,
            "velocity": 0.3937007874015748
          },
          {
            "duration": 0.10869550000001027,
            "durationTicks": 96,
            "midi": 59,
            "name": "B3",
            "ticks": 251158,
            "time": 284.37233738541664,
            "velocity": 0.3937007874015748
          },
          {
            "duration": 0.10869550000001027,
            "durationTicks": 96,
            "midi": 28,
            "name": "E1",
            "ticks": 251158,
            "time": 284.37233738541664,
            "velocity": 0.3937007874015748
          },
          {
            "duration": 0.21739100000002054,
            "durationTicks": 192,
            "midi": 78,
            "name": "F#5",
            "ticks": 251158,
            "time": 284.37233738541664,
            "velocity": 0.3937007874015748
          },
          {
            "duration": 0.21739100000002054,
            "durationTicks": 192,
            "midi": 62,
            "name": "D4",
            "ticks": 251158,
            "time": 284.37233738541664,
            "velocity": 0.3937007874015748
          },
          {
            "duration": 0.10869550000001027,
            "durationTicks": 96,
            "midi": 40,
            "name": "E2",
            "ticks": 251158,
            "time": 284.37233738541664,
            "velocity": 0.3937007874015748
          },
          {
            "duration": 0.21739100000002054,
            "durationTicks": 192,
            "midi": 66,
            "name": "F#4",
            "ticks": 251158,
            "time": 284.37233738541664,
            "velocity": 0.3937007874015748
          },
          {
            "duration": 0.21739100000002054,
            "durationTicks": 192,
            "midi": 74,
            "name": "D5",
            "ticks": 251158,
            "time": 284.37233738541664,
            "velocity": 0.3937007874015748
          },
          {
            "duration": 0.10869550000001027,
            "durationTicks": 96,
            "midi": 59,
            "name": "B3",
            "ticks": 251254,
            "time": 284.48103288541665,
            "velocity": 0.3937007874015748
          },
          {
            "duration": 0.10869550000001027,
            "durationTicks": 96,
            "midi": 55,
            "name": "G3",
            "ticks": 251254,
            "time": 284.48103288541665,
            "velocity": 0.3937007874015748
          },
          {
            "duration": 0.10869550000001027,
            "durationTicks": 96,
            "midi": 64,
            "name": "E4",
            "ticks": 251254,
            "time": 284.48103288541665,
            "velocity": 0.3937007874015748
          },
          {
            "duration": 0.10869550000001027,
            "durationTicks": 96,
            "midi": 52,
            "name": "E3",
            "ticks": 251254,
            "time": 284.48103288541665,
            "velocity": 0.3937007874015748
          },
          {
            "duration": 0.10869550000001027,
            "durationTicks": 96,
            "midi": 40,
            "name": "E2",
            "ticks": 251254,
            "time": 284.48103288541665,
            "velocity": 0.3937007874015748
          },
          {
            "duration": 0.10869550000001027,
            "durationTicks": 96,
            "midi": 38,
            "name": "D2",
            "ticks": 251350,
            "time": 284.58972838541666,
            "velocity": 0.3937007874015748
          },
          {
            "duration": 0.2173909999999637,
            "durationTicks": 192,
            "midi": 62,
            "name": "D4",
            "ticks": 251350,
            "time": 284.58972838541666,
            "velocity": 0.3937007874015748
          },
          {
            "duration": 0.2173909999999637,
            "durationTicks": 192,
            "midi": 57,
            "name": "A3",
            "ticks": 251350,
            "time": 284.58972838541666,
            "velocity": 0.3937007874015748
          },
          {
            "duration": 0.10869550000001027,
            "durationTicks": 96,
            "midi": 59,
            "name": "B3",
            "ticks": 251350,
            "time": 284.58972838541666,
            "velocity": 0.3937007874015748
          },
          {
            "duration": 0.10869550000001027,
            "durationTicks": 96,
            "midi": 50,
            "name": "D3",
            "ticks": 251350,
            "time": 284.58972838541666,
            "velocity": 0.3937007874015748
          },
          {
            "duration": 0.2173909999999637,
            "durationTicks": 192,
            "midi": 69,
            "name": "A4",
            "ticks": 251350,
            "time": 284.58972838541666,
            "velocity": 0.3937007874015748
          },
          {
            "duration": 0.10869550000001027,
            "durationTicks": 96,
            "midi": 64,
            "name": "E4",
            "ticks": 251350,
            "time": 284.58972838541666,
            "velocity": 0.3937007874015748
          },
          {
            "duration": 0.2173909999999637,
            "durationTicks": 192,
            "midi": 74,
            "name": "D5",
            "ticks": 251350,
            "time": 284.58972838541666,
            "velocity": 0.3937007874015748
          },
          {
            "duration": 0.10869550000001027,
            "durationTicks": 96,
            "midi": 55,
            "name": "G3",
            "ticks": 251350,
            "time": 284.58972838541666,
            "velocity": 0.3937007874015748
          },
          {
            "duration": 0.10869549999995343,
            "durationTicks": 96,
            "midi": 59,
            "name": "B3",
            "ticks": 251446,
            "time": 284.6984238854167,
            "velocity": 0.3937007874015748
          },
          {
            "duration": 0.10869549999995343,
            "durationTicks": 96,
            "midi": 64,
            "name": "E4",
            "ticks": 251446,
            "time": 284.6984238854167,
            "velocity": 0.3937007874015748
          },
          {
            "duration": 0.10869549999995343,
            "durationTicks": 96,
            "midi": 55,
            "name": "G3",
            "ticks": 251446,
            "time": 284.6984238854167,
            "velocity": 0.3937007874015748
          },
          {
            "duration": 0.10869549999995343,
            "durationTicks": 96,
            "midi": 40,
            "name": "E2",
            "ticks": 251446,
            "time": 284.6984238854167,
            "velocity": 0.3937007874015748
          },
          {
            "duration": 0.10869549999995343,
            "durationTicks": 96,
            "midi": 52,
            "name": "E3",
            "ticks": 251446,
            "time": 284.6984238854167,
            "velocity": 0.3937007874015748
          },
          {
            "duration": 0.21739100000002054,
            "durationTicks": 192,
            "midi": 76,
            "name": "E5",
            "ticks": 251542,
            "time": 284.8071193854166,
            "velocity": 0.3937007874015748
          },
          {
            "duration": 0.4347820000000411,
            "durationTicks": 384,
            "midi": 57,
            "name": "A3",
            "ticks": 251542,
            "time": 284.8071193854166,
            "velocity": 0.3937007874015748
          },
          {
            "duration": 0.21739100000002054,
            "durationTicks": 192,
            "midi": 64,
            "name": "E4",
            "ticks": 251542,
            "time": 284.8071193854166,
            "velocity": 0.3937007874015748
          },
          {
            "duration": 0.3804342500000075,
            "durationTicks": 336,
            "midi": 40,
            "name": "E2",
            "ticks": 251542,
            "time": 284.8071193854166,
            "velocity": 0.3937007874015748
          },
          {
            "duration": 0.4347820000000411,
            "durationTicks": 384,
            "midi": 52,
            "name": "E3",
            "ticks": 251542,
            "time": 284.8071193854166,
            "velocity": 0.3937007874015748
          },
          {
            "duration": 0.21739100000002054,
            "durationTicks": 192,
            "midi": 35,
            "name": "B1",
            "ticks": 251542,
            "time": 284.8071193854166,
            "velocity": 0.3937007874015748
          },
          {
            "duration": 0.3260865000000308,
            "durationTicks": 288,
            "midi": 33,
            "name": "A1",
            "ticks": 251542,
            "time": 284.8071193854166,
            "velocity": 0.3937007874015748
          },
          {
            "duration": 0.4347820000000411,
            "durationTicks": 384,
            "midi": 69,
            "name": "A4",
            "ticks": 251542,
            "time": 284.8071193854166,
            "velocity": 0.3937007874015748
          },
          {
            "duration": 0.21739100000002054,
            "durationTicks": 192,
            "midi": 71,
            "name": "B4",
            "ticks": 251542,
            "time": 284.8071193854166,
            "velocity": 0.3937007874015748
          },
          {
            "duration": 0.4347820000000411,
            "durationTicks": 384,
            "midi": 45,
            "name": "A2",
            "ticks": 251542,
            "time": 284.8071193854166,
            "velocity": 0.3937007874015748
          },
          {
            "duration": 0.4347820000000411,
            "durationTicks": 384,
            "midi": 64,
            "name": "E4",
            "ticks": 251542,
            "time": 284.8071193854166,
            "velocity": 0.3937007874015748
          },
          {
            "duration": 0.21739100000002054,
            "durationTicks": 192,
            "midi": 59,
            "name": "B3",
            "ticks": 251542,
            "time": 284.8071193854166,
            "velocity": 0.3937007874015748
          },
          {
            "duration": 0.6521730000000048,
            "durationTicks": 576,
            "midi": 88,
            "name": "E6",
            "ticks": 251542,
            "time": 284.8071193854166,
            "velocity": 0.3937007874015748
          },
          {
            "duration": 0.4347820000000411,
            "durationTicks": 384,
            "midi": 61,
            "name": "C#4",
            "ticks": 251542,
            "time": 284.8071193854166,
            "velocity": 0.3937007874015748
          },
          {
            "duration": 0.10869550000001027,
            "durationTicks": 96,
            "midi": 34,
            "name": "A#1",
            "ticks": 251734,
            "time": 285.02451038541665,
            "velocity": 0.3937007874015748
          },
          {
            "duration": 0.10869550000001027,
            "durationTicks": 96,
            "midi": 27,
            "name": "D#1",
            "ticks": 251734,
            "time": 285.02451038541665,
            "velocity": 0.3937007874015748
          },
          {
            "duration": 0.10869550000001027,
            "durationTicks": 96,
            "midi": 30,
            "name": "F#1",
            "ticks": 251734,
            "time": 285.02451038541665,
            "velocity": 0.3937007874015748
          },
          {
            "duration": 0.10869550000001027,
            "durationTicks": 96,
            "midi": 29,
            "name": "F1",
            "ticks": 251734,
            "time": 285.02451038541665,
            "velocity": 0.3937007874015748
          },
          {
            "duration": 0.10869550000001027,
            "durationTicks": 96,
            "midi": 31,
            "name": "G1",
            "ticks": 251734,
            "time": 285.02451038541665,
            "velocity": 0.3937007874015748
          },
          {
            "duration": 0.16304324999998698,
            "durationTicks": 144,
            "midi": 33,
            "name": "A1",
            "ticks": 251734,
            "time": 285.02451038541665,
            "velocity": 0.3937007874015748
          },
          {
            "duration": 0.10869550000001027,
            "durationTicks": 96,
            "midi": 35,
            "name": "B1",
            "ticks": 251734,
            "time": 285.02451038541665,
            "velocity": 0.3937007874015748
          },
          {
            "duration": 0.10869550000001027,
            "durationTicks": 96,
            "midi": 24,
            "name": "C1",
            "ticks": 251734,
            "time": 285.02451038541665,
            "velocity": 0.3937007874015748
          },
          {
            "duration": 0.10869550000001027,
            "durationTicks": 96,
            "midi": 25,
            "name": "C#1",
            "ticks": 251734,
            "time": 285.02451038541665,
            "velocity": 0.3937007874015748
          },
          {
            "duration": 0.10869550000001027,
            "durationTicks": 96,
            "midi": 26,
            "name": "D1",
            "ticks": 251734,
            "time": 285.02451038541665,
            "velocity": 0.3937007874015748
          },
          {
            "duration": 0.10869550000001027,
            "durationTicks": 96,
            "midi": 28,
            "name": "E1",
            "ticks": 251734,
            "time": 285.02451038541665,
            "velocity": 0.3937007874015748
          },
          {
            "duration": 0.10869550000001027,
            "durationTicks": 96,
            "midi": 36,
            "name": "C2",
            "ticks": 251782,
            "time": 285.0788581354166,
            "velocity": 0.3937007874015748
          },
          {
            "duration": 0.10869550000001027,
            "durationTicks": 96,
            "midi": 39,
            "name": "D#2",
            "ticks": 251782,
            "time": 285.0788581354166,
            "velocity": 0.3937007874015748
          },
          {
            "duration": 0.10869550000001027,
            "durationTicks": 96,
            "midi": 32,
            "name": "G#1",
            "ticks": 251782,
            "time": 285.0788581354166,
            "velocity": 0.3937007874015748
          },
          {
            "duration": 0.16304325000004383,
            "durationTicks": 144,
            "midi": 33,
            "name": "A1",
            "ticks": 251782,
            "time": 285.0788581354166,
            "velocity": 0.3937007874015748
          },
          {
            "duration": 0.10869550000001027,
            "durationTicks": 96,
            "midi": 34,
            "name": "A#1",
            "ticks": 251782,
            "time": 285.0788581354166,
            "velocity": 0.3937007874015748
          },
          {
            "duration": 0.10869550000001027,
            "durationTicks": 96,
            "midi": 42,
            "name": "F#2",
            "ticks": 251782,
            "time": 285.0788581354166,
            "velocity": 0.3937007874015748
          },
          {
            "duration": 0.10869550000001027,
            "durationTicks": 96,
            "midi": 35,
            "name": "B1",
            "ticks": 251782,
            "time": 285.0788581354166,
            "velocity": 0.3937007874015748
          },
          {
            "duration": 0.10869550000001027,
            "durationTicks": 96,
            "midi": 37,
            "name": "C#2",
            "ticks": 251782,
            "time": 285.0788581354166,
            "velocity": 0.3937007874015748
          },
          {
            "duration": 0.10869550000001027,
            "durationTicks": 96,
            "midi": 38,
            "name": "D2",
            "ticks": 251782,
            "time": 285.0788581354166,
            "velocity": 0.3937007874015748
          },
          {
            "duration": 0.10869550000001027,
            "durationTicks": 96,
            "midi": 41,
            "name": "F2",
            "ticks": 251782,
            "time": 285.0788581354166,
            "velocity": 0.3937007874015748
          },
          {
            "duration": 0.16304325000004383,
            "durationTicks": 144,
            "midi": 40,
            "name": "E2",
            "ticks": 251782,
            "time": 285.0788581354166,
            "velocity": 0.3937007874015748
          },
          {
            "duration": 0.10869550000001027,
            "durationTicks": 96,
            "midi": 46,
            "name": "A#2",
            "ticks": 251830,
            "time": 285.13320588541666,
            "velocity": 0.3937007874015748
          },
          {
            "duration": 0.10869550000001027,
            "durationTicks": 96,
            "midi": 43,
            "name": "G2",
            "ticks": 251830,
            "time": 285.13320588541666,
            "velocity": 0.3937007874015748
          },
          {
            "duration": 0.10869550000001027,
            "durationTicks": 96,
            "midi": 50,
            "name": "D3",
            "ticks": 251830,
            "time": 285.13320588541666,
            "velocity": 0.3937007874015748
          },
          {
            "duration": 0.10869550000001027,
            "durationTicks": 96,
            "midi": 45,
            "name": "A2",
            "ticks": 251830,
            "time": 285.13320588541666,
            "velocity": 0.3937007874015748
          },
          {
            "duration": 0.10869550000001027,
            "durationTicks": 96,
            "midi": 47,
            "name": "B2",
            "ticks": 251830,
            "time": 285.13320588541666,
            "velocity": 0.3937007874015748
          },
          {
            "duration": 0.10869550000001027,
            "durationTicks": 96,
            "midi": 48,
            "name": "C3",
            "ticks": 251830,
            "time": 285.13320588541666,
            "velocity": 0.3937007874015748
          },
          {
            "duration": 0.10869550000001027,
            "durationTicks": 96,
            "midi": 53,
            "name": "F3",
            "ticks": 251830,
            "time": 285.13320588541666,
            "velocity": 0.3937007874015748
          },
          {
            "duration": 0.10869550000001027,
            "durationTicks": 96,
            "midi": 52,
            "name": "E3",
            "ticks": 251830,
            "time": 285.13320588541666,
            "velocity": 0.3937007874015748
          },
          {
            "duration": 0.10869550000001027,
            "durationTicks": 96,
            "midi": 44,
            "name": "G#2",
            "ticks": 251830,
            "time": 285.13320588541666,
            "velocity": 0.3937007874015748
          },
          {
            "duration": 0.10869550000001027,
            "durationTicks": 96,
            "midi": 49,
            "name": "C#3",
            "ticks": 251830,
            "time": 285.13320588541666,
            "velocity": 0.3937007874015748
          },
          {
            "duration": 0.10869550000001027,
            "durationTicks": 96,
            "midi": 51,
            "name": "D#3",
            "ticks": 251830,
            "time": 285.13320588541666,
            "velocity": 0.3937007874015748
          },
          {
            "duration": 0.10869550000001027,
            "durationTicks": 96,
            "midi": 58,
            "name": "A#3",
            "ticks": 251878,
            "time": 285.18755363541663,
            "velocity": 0.3937007874015748
          },
          {
            "duration": 0.10869550000001027,
            "durationTicks": 96,
            "midi": 55,
            "name": "G3",
            "ticks": 251878,
            "time": 285.18755363541663,
            "velocity": 0.3937007874015748
          },
          {
            "duration": 0.10869550000001027,
            "durationTicks": 96,
            "midi": 61,
            "name": "C#4",
            "ticks": 251878,
            "time": 285.18755363541663,
            "velocity": 0.3937007874015748
          },
          {
            "duration": 0.10869550000001027,
            "durationTicks": 96,
            "midi": 54,
            "name": "F#3",
            "ticks": 251878,
            "time": 285.18755363541663,
            "velocity": 0.3937007874015748
          },
          {
            "duration": 0.10869550000001027,
            "durationTicks": 96,
            "midi": 56,
            "name": "G#3",
            "ticks": 251878,
            "time": 285.18755363541663,
            "velocity": 0.3937007874015748
          },
          {
            "duration": 0.10869550000001027,
            "durationTicks": 96,
            "midi": 62,
            "name": "D4",
            "ticks": 251878,
            "time": 285.18755363541663,
            "velocity": 0.3937007874015748
          },
          {
            "duration": 0.10869550000001027,
            "durationTicks": 96,
            "midi": 59,
            "name": "B3",
            "ticks": 251878,
            "time": 285.18755363541663,
            "velocity": 0.3937007874015748
          },
          {
            "duration": 0.10869550000001027,
            "durationTicks": 96,
            "midi": 64,
            "name": "E4",
            "ticks": 251878,
            "time": 285.18755363541663,
            "velocity": 0.3937007874015748
          },
          {
            "duration": 0.10869550000001027,
            "durationTicks": 96,
            "midi": 63,
            "name": "D#4",
            "ticks": 251878,
            "time": 285.18755363541663,
            "velocity": 0.3937007874015748
          },
          {
            "duration": 0.10869550000001027,
            "durationTicks": 96,
            "midi": 57,
            "name": "A3",
            "ticks": 251878,
            "time": 285.18755363541663,
            "velocity": 0.3937007874015748
          },
          {
            "duration": 0.10869550000001027,
            "durationTicks": 96,
            "midi": 60,
            "name": "C4",
            "ticks": 251878,
            "time": 285.18755363541663,
            "velocity": 0.3937007874015748
          },
          {
            "duration": 0.10869550000001027,
            "durationTicks": 96,
            "midi": 75,
            "name": "D#5",
            "ticks": 251926,
            "time": 285.24190138541667,
            "velocity": 0.3937007874015748
          },
          {
            "duration": 0.10869550000001027,
            "durationTicks": 96,
            "midi": 67,
            "name": "G4",
            "ticks": 251926,
            "time": 285.24190138541667,
            "velocity": 0.3937007874015748
          },
          {
            "duration": 0.10869550000001027,
            "durationTicks": 96,
            "midi": 65,
            "name": "F4",
            "ticks": 251926,
            "time": 285.24190138541667,
            "velocity": 0.3937007874015748
          },
          {
            "duration": 0.10869550000001027,
            "durationTicks": 96,
            "midi": 68,
            "name": "G#4",
            "ticks": 251926,
            "time": 285.24190138541667,
            "velocity": 0.3937007874015748
          },
          {
            "duration": 0.2173909999999637,
            "durationTicks": 192,
            "midi": 35,
            "name": "B1",
            "ticks": 251926,
            "time": 285.24190138541667,
            "velocity": 0.3937007874015748
          },
          {
            "duration": 0.2173909999999637,
            "durationTicks": 192,
            "midi": 91,
            "name": "G6",
            "ticks": 251926,
            "time": 285.24190138541667,
            "velocity": 0.3937007874015748
          },
          {
            "duration": 0.2173909999999637,
            "durationTicks": 192,
            "midi": 67,
            "name": "G4",
            "ticks": 251926,
            "time": 285.24190138541667,
            "velocity": 0.3937007874015748
          },
          {
            "duration": 0.43478199999998424,
            "durationTicks": 384,
            "midi": 59,
            "name": "B3",
            "ticks": 251926,
            "time": 285.24190138541667,
            "velocity": 0.3937007874015748
          },
          {
            "duration": 0.16304324999998698,
            "durationTicks": 144,
            "midi": 79,
            "name": "G5",
            "ticks": 251926,
            "time": 285.24190138541667,
            "velocity": 0.3937007874015748
          },
          {
            "duration": 0.10869550000001027,
            "durationTicks": 96,
            "midi": 70,
            "name": "A#4",
            "ticks": 251926,
            "time": 285.24190138541667,
            "velocity": 0.3937007874015748
          },
          {
            "duration": 0.10869550000001027,
            "durationTicks": 96,
            "midi": 71,
            "name": "B4",
            "ticks": 251926,
            "time": 285.24190138541667,
            "velocity": 0.3937007874015748
          },
          {
            "duration": 0.10869550000001027,
            "durationTicks": 96,
            "midi": 72,
            "name": "C5",
            "ticks": 251926,
            "time": 285.24190138541667,
            "velocity": 0.3937007874015748
          },
          {
            "duration": 0.10869550000001027,
            "durationTicks": 96,
            "midi": 74,
            "name": "D5",
            "ticks": 251926,
            "time": 285.24190138541667,
            "velocity": 0.3937007874015748
          },
          {
            "duration": 0.10869550000001027,
            "durationTicks": 96,
            "midi": 73,
            "name": "C#5",
            "ticks": 251926,
            "time": 285.24190138541667,
            "velocity": 0.3937007874015748
          },
          {
            "duration": 0.16304324999998698,
            "durationTicks": 144,
            "midi": 83,
            "name": "B5",
            "ticks": 251926,
            "time": 285.24190138541667,
            "velocity": 0.3937007874015748
          },
          {
            "duration": 0.2173909999999637,
            "durationTicks": 192,
            "midi": 71,
            "name": "B4",
            "ticks": 251926,
            "time": 285.24190138541667,
            "velocity": 0.3937007874015748
          },
          {
            "duration": 0.10869550000001027,
            "durationTicks": 96,
            "midi": 66,
            "name": "F#4",
            "ticks": 251926,
            "time": 285.24190138541667,
            "velocity": 0.3937007874015748
          },
          {
            "duration": 0.43478199999998424,
            "durationTicks": 384,
            "midi": 55,
            "name": "G3",
            "ticks": 251926,
            "time": 285.24190138541667,
            "velocity": 0.3937007874015748
          },
          {
            "duration": 0.43478199999998424,
            "durationTicks": 384,
            "midi": 62,
            "name": "D4",
            "ticks": 251926,
            "time": 285.24190138541667,
            "velocity": 0.3937007874015748
          },
          {
            "duration": 0.43478199999998424,
            "durationTicks": 384,
            "midi": 67,
            "name": "G4",
            "ticks": 251926,
            "time": 285.24190138541667,
            "velocity": 0.3937007874015748
          },
          {
            "duration": 0.2173909999999637,
            "durationTicks": 192,
            "midi": 95,
            "name": "B6",
            "ticks": 251926,
            "time": 285.24190138541667,
            "velocity": 0.3937007874015748
          },
          {
            "duration": 0.10869550000001027,
            "durationTicks": 96,
            "midi": 69,
            "name": "A4",
            "ticks": 251926,
            "time": 285.24190138541667,
            "velocity": 0.3937007874015748
          },
          {
            "duration": 0.10869550000001027,
            "durationTicks": 96,
            "midi": 82,
            "name": "A#5",
            "ticks": 251974,
            "time": 285.29624913541664,
            "velocity": 0.3937007874015748
          },
          {
            "duration": 0.10869550000001027,
            "durationTicks": 96,
            "midi": 76,
            "name": "E5",
            "ticks": 251974,
            "time": 285.29624913541664,
            "velocity": 0.3937007874015748
          },
          {
            "duration": 0.10869550000001027,
            "durationTicks": 96,
            "midi": 85,
            "name": "C#6",
            "ticks": 251974,
            "time": 285.29624913541664,
            "velocity": 0.3937007874015748
          },
          {
            "duration": 0.10869550000001027,
            "durationTicks": 96,
            "midi": 81,
            "name": "A5",
            "ticks": 251974,
            "time": 285.29624913541664,
            "velocity": 0.3937007874015748
          },
          {
            "duration": 0.10869550000001027,
            "durationTicks": 96,
            "midi": 80,
            "name": "G#5",
            "ticks": 251974,
            "time": 285.29624913541664,
            "velocity": 0.3937007874015748
          },
          {
            "duration": 0.16304324999998698,
            "durationTicks": 144,
            "midi": 79,
            "name": "G5",
            "ticks": 251974,
            "time": 285.29624913541664,
            "velocity": 0.3937007874015748
          },
          {
            "duration": 0.10869550000001027,
            "durationTicks": 96,
            "midi": 78,
            "name": "F#5",
            "ticks": 251974,
            "time": 285.29624913541664,
            "velocity": 0.3937007874015748
          },
          {
            "duration": 0.16304324999998698,
            "durationTicks": 144,
            "midi": 83,
            "name": "B5",
            "ticks": 251974,
            "time": 285.29624913541664,
            "velocity": 0.3937007874015748
          },
          {
            "duration": 0.10869550000001027,
            "durationTicks": 96,
            "midi": 77,
            "name": "F5",
            "ticks": 251974,
            "time": 285.29624913541664,
            "velocity": 0.3937007874015748
          },
          {
            "duration": 0.10869550000001027,
            "durationTicks": 96,
            "midi": 84,
            "name": "C6",
            "ticks": 251974,
            "time": 285.29624913541664,
            "velocity": 0.3937007874015748
          },
          {
            "duration": 0.10869550000001027,
            "durationTicks": 96,
            "midi": 86,
            "name": "D6",
            "ticks": 251974,
            "time": 285.29624913541664,
            "velocity": 0.3937007874015748
          },
          {
            "duration": 0.10869549999995343,
            "durationTicks": 96,
            "midi": 92,
            "name": "G#6",
            "ticks": 252022,
            "time": 285.3505968854167,
            "velocity": 0.3937007874015748
          },
          {
            "duration": 0.10869549999995343,
            "durationTicks": 96,
            "midi": 87,
            "name": "D#6",
            "ticks": 252022,
            "time": 285.3505968854167,
            "velocity": 0.3937007874015748
          },
          {
            "duration": 0.10869549999995343,
            "durationTicks": 96,
            "midi": 84,
            "name": "C6",
            "ticks": 252022,
            "time": 285.3505968854167,
            "velocity": 0.3937007874015748
          },
          {
            "duration": 0.10869549999995343,
            "durationTicks": 96,
            "midi": 88,
            "name": "E6",
            "ticks": 252022,
            "time": 285.3505968854167,
            "velocity": 0.3937007874015748
          },
          {
            "duration": 0.10869549999995343,
            "durationTicks": 96,
            "midi": 90,
            "name": "F#6",
            "ticks": 252022,
            "time": 285.3505968854167,
            "velocity": 0.3937007874015748
          },
          {
            "duration": 0.10869549999995343,
            "durationTicks": 96,
            "midi": 85,
            "name": "C#6",
            "ticks": 252022,
            "time": 285.3505968854167,
            "velocity": 0.3937007874015748
          },
          {
            "duration": 0.10869549999995343,
            "durationTicks": 96,
            "midi": 94,
            "name": "A#6",
            "ticks": 252022,
            "time": 285.3505968854167,
            "velocity": 0.3937007874015748
          },
          {
            "duration": 0.10869549999995343,
            "durationTicks": 96,
            "midi": 95,
            "name": "B6",
            "ticks": 252022,
            "time": 285.3505968854167,
            "velocity": 0.3937007874015748
          },
          {
            "duration": 0.10869549999995343,
            "durationTicks": 96,
            "midi": 89,
            "name": "F6",
            "ticks": 252022,
            "time": 285.3505968854167,
            "velocity": 0.3937007874015748
          },
          {
            "duration": 0.10869549999995343,
            "durationTicks": 96,
            "midi": 93,
            "name": "A6",
            "ticks": 252022,
            "time": 285.3505968854167,
            "velocity": 0.3937007874015748
          },
          {
            "duration": 0.10869549999995343,
            "durationTicks": 96,
            "midi": 91,
            "name": "G6",
            "ticks": 252022,
            "time": 285.3505968854167,
            "velocity": 0.3937007874015748
          },
          {
            "duration": 0.10869550000001027,
            "durationTicks": 96,
            "midi": 88,
            "name": "E6",
            "ticks": 252070,
            "time": 285.40494463541665,
            "velocity": 0.3937007874015748
          },
          {
            "duration": 0.10869550000001027,
            "durationTicks": 96,
            "midi": 86,
            "name": "D6",
            "ticks": 252070,
            "time": 285.40494463541665,
            "velocity": 0.3937007874015748
          },
          {
            "duration": 0.10869550000001027,
            "durationTicks": 96,
            "midi": 90,
            "name": "F#6",
            "ticks": 252070,
            "time": 285.40494463541665,
            "velocity": 0.3937007874015748
          },
          {
            "duration": 0.10869550000001027,
            "durationTicks": 96,
            "midi": 91,
            "name": "G6",
            "ticks": 252070,
            "time": 285.40494463541665,
            "velocity": 0.3937007874015748
          },
          {
            "duration": 0.10869550000001027,
            "durationTicks": 96,
            "midi": 92,
            "name": "G#6",
            "ticks": 252070,
            "time": 285.40494463541665,
            "velocity": 0.3937007874015748
          },
          {
            "duration": 0.10869550000001027,
            "durationTicks": 96,
            "midi": 89,
            "name": "F6",
            "ticks": 252070,
            "time": 285.40494463541665,
            "velocity": 0.3937007874015748
          },
          {
            "duration": 0.10869550000001027,
            "durationTicks": 96,
            "midi": 93,
            "name": "A6",
            "ticks": 252070,
            "time": 285.40494463541665,
            "velocity": 0.3937007874015748
          },
          {
            "duration": 0.10869550000001027,
            "durationTicks": 96,
            "midi": 84,
            "name": "C6",
            "ticks": 252070,
            "time": 285.40494463541665,
            "velocity": 0.3937007874015748
          },
          {
            "duration": 0.10869550000001027,
            "durationTicks": 96,
            "midi": 87,
            "name": "D#6",
            "ticks": 252070,
            "time": 285.40494463541665,
            "velocity": 0.3937007874015748
          },
          {
            "duration": 0.10869550000001027,
            "durationTicks": 96,
            "midi": 95,
            "name": "B6",
            "ticks": 252070,
            "time": 285.40494463541665,
            "velocity": 0.3937007874015748
          },
          {
            "duration": 0.10869550000001027,
            "durationTicks": 96,
            "midi": 94,
            "name": "A#6",
            "ticks": 252070,
            "time": 285.40494463541665,
            "velocity": 0.3937007874015748
          },
          {
            "duration": 0.16304325000004383,
            "durationTicks": 144,
            "midi": 86,
            "name": "D6",
            "ticks": 252118,
            "time": 285.45929238541663,
            "velocity": 0.3937007874015748
          },
          {
            "duration": 0.21739100000002054,
            "durationTicks": 192,
            "midi": 69,
            "name": "A4",
            "ticks": 252118,
            "time": 285.45929238541663,
            "velocity": 0.3937007874015748
          },
          {
            "duration": 0.10869550000001027,
            "durationTicks": 96,
            "midi": 85,
            "name": "C#6",
            "ticks": 252118,
            "time": 285.45929238541663,
            "velocity": 0.3937007874015748
          },
          {
            "duration": 0.10869550000001027,
            "durationTicks": 96,
            "midi": 94,
            "name": "A#6",
            "ticks": 252118,
            "time": 285.45929238541663,
            "velocity": 0.3937007874015748
          },
          {
            "duration": 0.10869550000001027,
            "durationTicks": 96,
            "midi": 91,
            "name": "G6",
            "ticks": 252118,
            "time": 285.45929238541663,
            "velocity": 0.3937007874015748
          },
          {
            "duration": 0.10869550000001027,
            "durationTicks": 96,
            "midi": 92,
            "name": "G#6",
            "ticks": 252118,
            "time": 285.45929238541663,
            "velocity": 0.3937007874015748
          },
          {
            "duration": 0.10869550000001027,
            "durationTicks": 96,
            "midi": 89,
            "name": "F6",
            "ticks": 252118,
            "time": 285.45929238541663,
            "velocity": 0.3937007874015748
          },
          {
            "duration": 0.10869550000001027,
            "durationTicks": 96,
            "midi": 90,
            "name": "F#6",
            "ticks": 252118,
            "time": 285.45929238541663,
            "velocity": 0.3937007874015748
          },
          {
            "duration": 0.21739100000002054,
            "durationTicks": 192,
            "midi": 74,
            "name": "D5",
            "ticks": 252118,
            "time": 285.45929238541663,
            "velocity": 0.3937007874015748
          },
          {
            "duration": 0.10869550000001027,
            "durationTicks": 96,
            "midi": 95,
            "name": "B6",
            "ticks": 252118,
            "time": 285.45929238541663,
            "velocity": 0.3937007874015748
          },
          {
            "duration": 0.16304325000004383,
            "durationTicks": 144,
            "midi": 81,
            "name": "A5",
            "ticks": 252118,
            "time": 285.45929238541663,
            "velocity": 0.3937007874015748
          },
          {
            "duration": 0.10869550000001027,
            "durationTicks": 96,
            "midi": 87,
            "name": "D#6",
            "ticks": 252118,
            "time": 285.45929238541663,
            "velocity": 0.3937007874015748
          },
          {
            "duration": 0.10869550000001027,
            "durationTicks": 96,
            "midi": 93,
            "name": "A6",
            "ticks": 252118,
            "time": 285.45929238541663,
            "velocity": 0.3937007874015748
          },
          {
            "duration": 0.21739100000002054,
            "durationTicks": 192,
            "midi": 86,
            "name": "D6",
            "ticks": 252118,
            "time": 285.45929238541663,
            "velocity": 0.3937007874015748
          },
          {
            "duration": 0.10869550000001027,
            "durationTicks": 96,
            "midi": 88,
            "name": "E6",
            "ticks": 252118,
            "time": 285.45929238541663,
            "velocity": 0.3937007874015748
          },
          {
            "duration": 0.10869550000001027,
            "durationTicks": 96,
            "midi": 84,
            "name": "C6",
            "ticks": 252118,
            "time": 285.45929238541663,
            "velocity": 0.3937007874015748
          },
          {
            "duration": 0.21739100000002054,
            "durationTicks": 192,
            "midi": 93,
            "name": "A6",
            "ticks": 252118,
            "time": 285.45929238541663,
            "velocity": 0.3937007874015748
          },
          {
            "duration": 0.10869550000001027,
            "durationTicks": 96,
            "midi": 76,
            "name": "E5",
            "ticks": 252166,
            "time": 285.51364013541667,
            "velocity": 0.3937007874015748
          },
          {
            "duration": 0.10869550000001027,
            "durationTicks": 96,
            "midi": 77,
            "name": "F5",
            "ticks": 252166,
            "time": 285.51364013541667,
            "velocity": 0.3937007874015748
          },
          {
            "duration": 0.10869550000001027,
            "durationTicks": 96,
            "midi": 83,
            "name": "B5",
            "ticks": 252166,
            "time": 285.51364013541667,
            "velocity": 0.3937007874015748
          },
          {
            "duration": 0.10869550000001027,
            "durationTicks": 96,
            "midi": 79,
            "name": "G5",
            "ticks": 252166,
            "time": 285.51364013541667,
            "velocity": 0.3937007874015748
          },
          {
            "duration": 0.16304324999998698,
            "durationTicks": 144,
            "midi": 81,
            "name": "A5",
            "ticks": 252166,
            "time": 285.51364013541667,
            "velocity": 0.3937007874015748
          },
          {
            "duration": 0.10869550000001027,
            "durationTicks": 96,
            "midi": 80,
            "name": "G#5",
            "ticks": 252166,
            "time": 285.51364013541667,
            "velocity": 0.3937007874015748
          },
          {
            "duration": 0.16304324999998698,
            "durationTicks": 144,
            "midi": 86,
            "name": "D6",
            "ticks": 252166,
            "time": 285.51364013541667,
            "velocity": 0.3937007874015748
          },
          {
            "duration": 0.10869550000001027,
            "durationTicks": 96,
            "midi": 78,
            "name": "F#5",
            "ticks": 252166,
            "time": 285.51364013541667,
            "velocity": 0.3937007874015748
          },
          {
            "duration": 0.10869550000001027,
            "durationTicks": 96,
            "midi": 82,
            "name": "A#5",
            "ticks": 252166,
            "time": 285.51364013541667,
            "velocity": 0.3937007874015748
          },
          {
            "duration": 0.10869550000001027,
            "durationTicks": 96,
            "midi": 85,
            "name": "C#6",
            "ticks": 252166,
            "time": 285.51364013541667,
            "velocity": 0.3937007874015748
          },
          {
            "duration": 0.10869550000001027,
            "durationTicks": 96,
            "midi": 84,
            "name": "C6",
            "ticks": 252166,
            "time": 285.51364013541667,
            "velocity": 0.3937007874015748
          },
          {
            "duration": 0.10869550000001027,
            "durationTicks": 96,
            "midi": 53,
            "name": "F3",
            "ticks": 252214,
            "time": 285.56798788541664,
            "velocity": 0.3937007874015748
          },
          {
            "duration": 0.10869550000001027,
            "durationTicks": 96,
            "midi": 71,
            "name": "B4",
            "ticks": 252214,
            "time": 285.56798788541664,
            "velocity": 0.3937007874015748
          },
          {
            "duration": 0.10869550000001027,
            "durationTicks": 96,
            "midi": 75,
            "name": "D#5",
            "ticks": 252214,
            "time": 285.56798788541664,
            "velocity": 0.3937007874015748
          },
          {
            "duration": 0.10869550000001027,
            "durationTicks": 96,
            "midi": 66,
            "name": "F#4",
            "ticks": 252214,
            "time": 285.56798788541664,
            "velocity": 0.3937007874015748
          },
          {
            "duration": 0.10869550000001027,
            "durationTicks": 96,
            "midi": 67,
            "name": "G4",
            "ticks": 252214,
            "time": 285.56798788541664,
            "velocity": 0.3937007874015748
          },
          {
            "duration": 0.10869550000001027,
            "durationTicks": 96,
            "midi": 69,
            "name": "A4",
            "ticks": 252214,
            "time": 285.56798788541664,
            "velocity": 0.3937007874015748
          },
          {
            "duration": 0.10869550000001027,
            "durationTicks": 96,
            "midi": 73,
            "name": "C#5",
            "ticks": 252214,
            "time": 285.56798788541664,
            "velocity": 0.3937007874015748
          },
          {
            "duration": 0.10869550000001027,
            "durationTicks": 96,
            "midi": 74,
            "name": "D5",
            "ticks": 252214,
            "time": 285.56798788541664,
            "velocity": 0.3937007874015748
          },
          {
            "duration": 0.10869550000001027,
            "durationTicks": 96,
            "midi": 68,
            "name": "G#4",
            "ticks": 252214,
            "time": 285.56798788541664,
            "velocity": 0.3937007874015748
          },
          {
            "duration": 0.10869550000001027,
            "durationTicks": 96,
            "midi": 70,
            "name": "A#4",
            "ticks": 252214,
            "time": 285.56798788541664,
            "velocity": 0.3937007874015748
          },
          {
            "duration": 0.10869550000001027,
            "durationTicks": 96,
            "midi": 65,
            "name": "F4",
            "ticks": 252214,
            "time": 285.56798788541664,
            "velocity": 0.3937007874015748
          },
          {
            "duration": 0.10869550000001027,
            "durationTicks": 96,
            "midi": 72,
            "name": "C5",
            "ticks": 252214,
            "time": 285.56798788541664,
            "velocity": 0.3937007874015748
          },
          {
            "duration": 0.10869549999995343,
            "durationTicks": 96,
            "midi": 63,
            "name": "D#4",
            "ticks": 252262,
            "time": 285.6223356354167,
            "velocity": 0.3937007874015748
          },
          {
            "duration": 0.10869549999995343,
            "durationTicks": 96,
            "midi": 54,
            "name": "F#3",
            "ticks": 252262,
            "time": 285.6223356354167,
            "velocity": 0.3937007874015748
          },
          {
            "duration": 0.10869549999995343,
            "durationTicks": 96,
            "midi": 55,
            "name": "G3",
            "ticks": 252262,
            "time": 285.6223356354167,
            "velocity": 0.3937007874015748
          },
          {
            "duration": 0.10869549999995343,
            "durationTicks": 96,
            "midi": 64,
            "name": "E4",
            "ticks": 252262,
            "time": 285.6223356354167,
            "velocity": 0.3937007874015748
          },
          {
            "duration": 0.10869549999995343,
            "durationTicks": 96,
            "midi": 59,
            "name": "B3",
            "ticks": 252262,
            "time": 285.6223356354167,
            "velocity": 0.3937007874015748
          },
          {
            "duration": 0.10869549999995343,
            "durationTicks": 96,
            "midi": 61,
            "name": "C#4",
            "ticks": 252262,
            "time": 285.6223356354167,
            "velocity": 0.3937007874015748
          },
          {
            "duration": 0.10869549999995343,
            "durationTicks": 96,
            "midi": 57,
            "name": "A3",
            "ticks": 252262,
            "time": 285.6223356354167,
            "velocity": 0.3937007874015748
          },
          {
            "duration": 0.10869549999995343,
            "durationTicks": 96,
            "midi": 56,
            "name": "G#3",
            "ticks": 252262,
            "time": 285.6223356354167,
            "velocity": 0.3937007874015748
          },
          {
            "duration": 0.10869549999995343,
            "durationTicks": 96,
            "midi": 60,
            "name": "C4",
            "ticks": 252262,
            "time": 285.6223356354167,
            "velocity": 0.3937007874015748
          },
          {
            "duration": 0.10869549999995343,
            "durationTicks": 96,
            "midi": 62,
            "name": "D4",
            "ticks": 252262,
            "time": 285.6223356354167,
            "velocity": 0.3937007874015748
          },
          {
            "duration": 0.10869549999995343,
            "durationTicks": 96,
            "midi": 58,
            "name": "A#3",
            "ticks": 252262,
            "time": 285.6223356354167,
            "velocity": 0.3937007874015748
          },
          {
            "duration": 0.21739100000002054,
            "durationTicks": 192,
            "midi": 81,
            "name": "A5",
            "ticks": 252310,
            "time": 285.67668338541665,
            "velocity": 0.3937007874015748
          },
          {
            "duration": 13.913024000000007,
            "durationTicks": 12288,
            "midi": 53,
            "name": "F3",
            "ticks": 252310,
            "time": 285.67668338541665,
            "velocity": 0.3937007874015748
          },
          {
            "duration": 0.21739100000002054,
            "durationTicks": 192,
            "midi": 86,
            "name": "D6",
            "ticks": 252310,
            "time": 285.67668338541665,
            "velocity": 0.3937007874015748
          },
          {
            "duration": 0.21739100000002054,
            "durationTicks": 192,
            "midi": 60,
            "name": "C4",
            "ticks": 252310,
            "time": 285.67668338541665,
            "velocity": 0.3937007874015748
          },
          {
            "duration": 0.21739100000002054,
            "durationTicks": 192,
            "midi": 55,
            "name": "G3",
            "ticks": 252310,
            "time": 285.67668338541665,
            "velocity": 0.3937007874015748
          },
          {
            "duration": 0.21739100000002054,
            "durationTicks": 192,
            "midi": 93,
            "name": "A6",
            "ticks": 252310,
            "time": 285.67668338541665,
            "velocity": 0.3937007874015748
          },
          {
            "duration": 0.21739100000002054,
            "durationTicks": 192,
            "midi": 74,
            "name": "D5",
            "ticks": 252310,
            "time": 285.67668338541665,
            "velocity": 0.3937007874015748
          },
          {
            "duration": 0.21739100000002054,
            "durationTicks": 192,
            "midi": 69,
            "name": "A4",
            "ticks": 252310,
            "time": 285.67668338541665,
            "velocity": 0.3937007874015748
          },
          {
            "duration": 0.21739100000002054,
            "durationTicks": 192,
            "midi": 86,
            "name": "D6",
            "ticks": 252310,
            "time": 285.67668338541665,
            "velocity": 0.3937007874015748
          },
          {
            "duration": 0.2173909999999637,
            "durationTicks": 192,
            "midi": 83,
            "name": "B5",
            "ticks": 252502,
            "time": 285.8940743854167,
            "velocity": 0.3937007874015748
          },
          {
            "duration": 0.2173909999999637,
            "durationTicks": 192,
            "midi": 88,
            "name": "E6",
            "ticks": 252502,
            "time": 285.8940743854167,
            "velocity": 0.3937007874015748
          },
          {
            "duration": 0.2173909999999637,
            "durationTicks": 192,
            "midi": 76,
            "name": "E5",
            "ticks": 252502,
            "time": 285.8940743854167,
            "velocity": 0.3937007874015748
          },
          {
            "duration": 0.32608649999997397,
            "durationTicks": 288,
            "midi": 55,
            "name": "G3",
            "ticks": 252502,
            "time": 285.8940743854167,
            "velocity": 0.3937007874015748
          },
          {
            "duration": 0.2173909999999637,
            "durationTicks": 192,
            "midi": 71,
            "name": "B4",
            "ticks": 252502,
            "time": 285.8940743854167,
            "velocity": 0.3937007874015748
          },
          {
            "duration": 0.32608649999997397,
            "durationTicks": 288,
            "midi": 60,
            "name": "C4",
            "ticks": 252502,
            "time": 285.8940743854167,
            "velocity": 0.3937007874015748
          },
          {
            "duration": 0.2173909999999637,
            "durationTicks": 192,
            "midi": 95,
            "name": "B6",
            "ticks": 252502,
            "time": 285.8940743854167,
            "velocity": 0.3937007874015748
          },
          {
            "duration": 0.2173909999999637,
            "durationTicks": 192,
            "midi": 88,
            "name": "E6",
            "ticks": 252502,
            "time": 285.8940743854167,
            "velocity": 0.3937007874015748
          },
          {
            "duration": 0.21739100000002054,
            "durationTicks": 192,
            "midi": 79,
            "name": "G5",
            "ticks": 252694,
            "time": 286.11146538541664,
            "velocity": 0.3937007874015748
          },
          {
            "duration": 0.21739100000002054,
            "durationTicks": 192,
            "midi": 71,
            "name": "B4",
            "ticks": 252694,
            "time": 286.11146538541664,
            "velocity": 0.3937007874015748
          },
          {
            "duration": 0.21739100000002054,
            "durationTicks": 192,
            "midi": 95,
            "name": "B6",
            "ticks": 252694,
            "time": 286.11146538541664,
            "velocity": 0.3937007874015748
          },
          {
            "duration": 0.21739100000002054,
            "durationTicks": 192,
            "midi": 67,
            "name": "G4",
            "ticks": 252694,
            "time": 286.11146538541664,
            "velocity": 0.3937007874015748
          },
          {
            "duration": 0.21739100000002054,
            "durationTicks": 192,
            "midi": 91,
            "name": "G6",
            "ticks": 252694,
            "time": 286.11146538541664,
            "velocity": 0.3937007874015748
          },
          {
            "duration": 0.21739100000002054,
            "durationTicks": 192,
            "midi": 83,
            "name": "B5",
            "ticks": 252694,
            "time": 286.11146538541664,
            "velocity": 0.3937007874015748
          },
          {
            "duration": 0.3260865000000308,
            "durationTicks": 288,
            "midi": 55,
            "name": "G3",
            "ticks": 252790,
            "time": 286.22016088541665,
            "velocity": 0.3937007874015748
          },
          {
            "duration": 0.3260865000000308,
            "durationTicks": 288,
            "midi": 60,
            "name": "C4",
            "ticks": 252790,
            "time": 286.22016088541665,
            "velocity": 0.3937007874015748
          },
          {
            "duration": 0.21739100000002054,
            "durationTicks": 192,
            "midi": 78,
            "name": "F#5",
            "ticks": 252886,
            "time": 286.32885638541666,
            "velocity": 0.3937007874015748
          },
          {
            "duration": 0.21739100000002054,
            "durationTicks": 192,
            "midi": 66,
            "name": "F#4",
            "ticks": 252886,
            "time": 286.32885638541666,
            "velocity": 0.3937007874015748
          },
          {
            "duration": 0.21739100000002054,
            "durationTicks": 192,
            "midi": 81,
            "name": "A5",
            "ticks": 252886,
            "time": 286.32885638541666,
            "velocity": 0.3937007874015748
          },
          {
            "duration": 0.21739100000002054,
            "durationTicks": 192,
            "midi": 69,
            "name": "A4",
            "ticks": 252886,
            "time": 286.32885638541666,
            "velocity": 0.3937007874015748
          },
          {
            "duration": 0.21739100000002054,
            "durationTicks": 192,
            "midi": 93,
            "name": "A6",
            "ticks": 252886,
            "time": 286.32885638541666,
            "velocity": 0.3937007874015748
          },
          {
            "duration": 0.21739100000002054,
            "durationTicks": 192,
            "midi": 90,
            "name": "F#6",
            "ticks": 252886,
            "time": 286.32885638541666,
            "velocity": 0.3937007874015748
          },
          {
            "duration": 0.2173909999999637,
            "durationTicks": 192,
            "midi": 91,
            "name": "G6",
            "ticks": 253078,
            "time": 286.5462473854167,
            "velocity": 0.3937007874015748
          },
          {
            "duration": 0.2173909999999637,
            "durationTicks": 192,
            "midi": 83,
            "name": "B5",
            "ticks": 253078,
            "time": 286.5462473854167,
            "velocity": 0.3937007874015748
          },
          {
            "duration": 0.2173909999999637,
            "durationTicks": 192,
            "midi": 79,
            "name": "G5",
            "ticks": 253078,
            "time": 286.5462473854167,
            "velocity": 0.3937007874015748
          },
          {
            "duration": 0.2173909999999637,
            "durationTicks": 192,
            "midi": 60,
            "name": "C4",
            "ticks": 253078,
            "time": 286.5462473854167,
            "velocity": 0.3937007874015748
          },
          {
            "duration": 0.2173909999999637,
            "durationTicks": 192,
            "midi": 67,
            "name": "G4",
            "ticks": 253078,
            "time": 286.5462473854167,
            "velocity": 0.3937007874015748
          },
          {
            "duration": 0.2173909999999637,
            "durationTicks": 192,
            "midi": 55,
            "name": "G3",
            "ticks": 253078,
            "time": 286.5462473854167,
            "velocity": 0.3937007874015748
          },
          {
            "duration": 0.2173909999999637,
            "durationTicks": 192,
            "midi": 71,
            "name": "B4",
            "ticks": 253078,
            "time": 286.5462473854167,
            "velocity": 0.3937007874015748
          },
          {
            "duration": 0.2173909999999637,
            "durationTicks": 192,
            "midi": 95,
            "name": "B6",
            "ticks": 253078,
            "time": 286.5462473854167,
            "velocity": 0.3937007874015748
          },
          {
            "duration": 0.3260865000000308,
            "durationTicks": 288,
            "midi": 60,
            "name": "C4",
            "ticks": 253270,
            "time": 286.76363838541664,
            "velocity": 0.3937007874015748
          },
          {
            "duration": 0.3260865000000308,
            "durationTicks": 288,
            "midi": 55,
            "name": "G3",
            "ticks": 253270,
            "time": 286.76363838541664,
            "velocity": 0.3937007874015748
          },
          {
            "duration": 0.2173909999999637,
            "durationTicks": 192,
            "midi": 93,
            "name": "A6",
            "ticks": 253462,
            "time": 286.98102938541666,
            "velocity": 0.3937007874015748
          },
          {
            "duration": 0.2173909999999637,
            "durationTicks": 192,
            "midi": 90,
            "name": "F#6",
            "ticks": 253462,
            "time": 286.98102938541666,
            "velocity": 0.3937007874015748
          },
          {
            "duration": 0.2173909999999637,
            "durationTicks": 192,
            "midi": 78,
            "name": "F#5",
            "ticks": 253462,
            "time": 286.98102938541666,
            "velocity": 0.3937007874015748
          },
          {
            "duration": 0.2173909999999637,
            "durationTicks": 192,
            "midi": 81,
            "name": "A5",
            "ticks": 253462,
            "time": 286.98102938541666,
            "velocity": 0.3937007874015748
          },
          {
            "duration": 0.2173909999999637,
            "durationTicks": 192,
            "midi": 66,
            "name": "F#4",
            "ticks": 253462,
            "time": 286.98102938541666,
            "velocity": 0.3937007874015748
          },
          {
            "duration": 0.2173909999999637,
            "durationTicks": 192,
            "midi": 69,
            "name": "A4",
            "ticks": 253462,
            "time": 286.98102938541666,
            "velocity": 0.3937007874015748
          },
          {
            "duration": 0.32608649999997397,
            "durationTicks": 288,
            "midi": 60,
            "name": "C4",
            "ticks": 253558,
            "time": 287.0897248854167,
            "velocity": 0.3937007874015748
          },
          {
            "duration": 0.32608649999997397,
            "durationTicks": 288,
            "midi": 55,
            "name": "G3",
            "ticks": 253558,
            "time": 287.0897248854167,
            "velocity": 0.3937007874015748
          },
          {
            "duration": 0.21739100000002054,
            "durationTicks": 192,
            "midi": 67,
            "name": "G4",
            "ticks": 253654,
            "time": 287.1984203854166,
            "velocity": 0.3937007874015748
          },
          {
            "duration": 0.21739100000002054,
            "durationTicks": 192,
            "midi": 83,
            "name": "B5",
            "ticks": 253654,
            "time": 287.1984203854166,
            "velocity": 0.3937007874015748
          },
          {
            "duration": 0.21739100000002054,
            "durationTicks": 192,
            "midi": 91,
            "name": "G6",
            "ticks": 253654,
            "time": 287.1984203854166,
            "velocity": 0.3937007874015748
          },
          {
            "duration": 0.21739100000002054,
            "durationTicks": 192,
            "midi": 95,
            "name": "B6",
            "ticks": 253654,
            "time": 287.1984203854166,
            "velocity": 0.3937007874015748
          },
          {
            "duration": 0.21739100000002054,
            "durationTicks": 192,
            "midi": 79,
            "name": "G5",
            "ticks": 253654,
            "time": 287.1984203854166,
            "velocity": 0.3937007874015748
          },
          {
            "duration": 0.21739100000002054,
            "durationTicks": 192,
            "midi": 71,
            "name": "B4",
            "ticks": 253654,
            "time": 287.1984203854166,
            "velocity": 0.3937007874015748
          },
          {
            "duration": 0.21739100000002054,
            "durationTicks": 192,
            "midi": 86,
            "name": "D6",
            "ticks": 253846,
            "time": 287.41581138541665,
            "velocity": 0.3937007874015748
          },
          {
            "duration": 0.21739100000002054,
            "durationTicks": 192,
            "midi": 57,
            "name": "A3",
            "ticks": 253846,
            "time": 287.41581138541665,
            "velocity": 0.3937007874015748
          },
          {
            "duration": 0.21739100000002054,
            "durationTicks": 192,
            "midi": 74,
            "name": "D5",
            "ticks": 253846,
            "time": 287.41581138541665,
            "velocity": 0.3937007874015748
          },
          {
            "duration": 0.21739100000002054,
            "durationTicks": 192,
            "midi": 62,
            "name": "D4",
            "ticks": 253846,
            "time": 287.41581138541665,
            "velocity": 0.3937007874015748
          },
          {
            "duration": 0.21739100000002054,
            "durationTicks": 192,
            "midi": 54,
            "name": "F#3",
            "ticks": 253846,
            "time": 287.41581138541665,
            "velocity": 0.3937007874015748
          },
          {
            "duration": 0.21739100000002054,
            "durationTicks": 192,
            "midi": 81,
            "name": "A5",
            "ticks": 253846,
            "time": 287.41581138541665,
            "velocity": 0.3937007874015748
          },
          {
            "duration": 0.21739100000002054,
            "durationTicks": 192,
            "midi": 69,
            "name": "A4",
            "ticks": 253846,
            "time": 287.41581138541665,
            "velocity": 0.3937007874015748
          },
          {
            "duration": 0.21739100000002054,
            "durationTicks": 192,
            "midi": 93,
            "name": "A6",
            "ticks": 253846,
            "time": 287.41581138541665,
            "velocity": 0.3937007874015748
          },
          {
            "duration": 0.21739100000002054,
            "durationTicks": 192,
            "midi": 86,
            "name": "D6",
            "ticks": 253846,
            "time": 287.41581138541665,
            "velocity": 0.3937007874015748
          },
          {
            "duration": 0.2173909999999637,
            "durationTicks": 192,
            "midi": 71,
            "name": "B4",
            "ticks": 254038,
            "time": 287.63320238541667,
            "velocity": 0.3937007874015748
          },
          {
            "duration": 0.32608649999997397,
            "durationTicks": 288,
            "midi": 54,
            "name": "F#3",
            "ticks": 254038,
            "time": 287.63320238541667,
            "velocity": 0.3937007874015748
          },
          {
            "duration": 0.2173909999999637,
            "durationTicks": 192,
            "midi": 88,
            "name": "E6",
            "ticks": 254038,
            "time": 287.63320238541667,
            "velocity": 0.3937007874015748
          },
          {
            "duration": 0.2173909999999637,
            "durationTicks": 192,
            "midi": 83,
            "name": "B5",
            "ticks": 254038,
            "time": 287.63320238541667,
            "velocity": 0.3937007874015748
          },
          {
            "duration": 0.32608649999997397,
            "durationTicks": 288,
            "midi": 62,
            "name": "D4",
            "ticks": 254038,
            "time": 287.63320238541667,
            "velocity": 0.3937007874015748
          },
          {
            "duration": 0.2173909999999637,
            "durationTicks": 192,
            "midi": 88,
            "name": "E6",
            "ticks": 254038,
            "time": 287.63320238541667,
            "velocity": 0.3937007874015748
          },
          {
            "duration": 0.32608649999997397,
            "durationTicks": 288,
            "midi": 57,
            "name": "A3",
            "ticks": 254038,
            "time": 287.63320238541667,
            "velocity": 0.3937007874015748
          },
          {
            "duration": 0.2173909999999637,
            "durationTicks": 192,
            "midi": 95,
            "name": "B6",
            "ticks": 254038,
            "time": 287.63320238541667,
            "velocity": 0.3937007874015748
          },
          {
            "duration": 0.2173909999999637,
            "durationTicks": 192,
            "midi": 76,
            "name": "E5",
            "ticks": 254038,
            "time": 287.63320238541667,
            "velocity": 0.3937007874015748
          },
          {
            "duration": 0.21739100000002054,
            "durationTicks": 192,
            "midi": 71,
            "name": "B4",
            "ticks": 254230,
            "time": 287.85059338541663,
            "velocity": 0.3937007874015748
          },
          {
            "duration": 0.21739100000002054,
            "durationTicks": 192,
            "midi": 83,
            "name": "B5",
            "ticks": 254230,
            "time": 287.85059338541663,
            "velocity": 0.3937007874015748
          },
          {
            "duration": 0.21739100000002054,
            "durationTicks": 192,
            "midi": 95,
            "name": "B6",
            "ticks": 254230,
            "time": 287.85059338541663,
            "velocity": 0.3937007874015748
          },
          {
            "duration": 0.21739100000002054,
            "durationTicks": 192,
            "midi": 91,
            "name": "G6",
            "ticks": 254230,
            "time": 287.85059338541663,
            "velocity": 0.3937007874015748
          },
          {
            "duration": 0.21739100000002054,
            "durationTicks": 192,
            "midi": 79,
            "name": "G5",
            "ticks": 254230,
            "time": 287.85059338541663,
            "velocity": 0.3937007874015748
          },
          {
            "duration": 0.21739100000002054,
            "durationTicks": 192,
            "midi": 67,
            "name": "G4",
            "ticks": 254230,
            "time": 287.85059338541663,
            "velocity": 0.3937007874015748
          },
          {
            "duration": 0.3260865000000308,
            "durationTicks": 288,
            "midi": 57,
            "name": "A3",
            "ticks": 254326,
            "time": 287.95928888541664,
            "velocity": 0.3937007874015748
          },
          {
            "duration": 0.3260865000000308,
            "durationTicks": 288,
            "midi": 54,
            "name": "F#3",
            "ticks": 254326,
            "time": 287.95928888541664,
            "velocity": 0.3937007874015748
          },
          {
            "duration": 0.3260865000000308,
            "durationTicks": 288,
            "midi": 62,
            "name": "D4",
            "ticks": 254326,
            "time": 287.95928888541664,
            "velocity": 0.3937007874015748
          },
          {
            "duration": 0.21739100000002054,
            "durationTicks": 192,
            "midi": 66,
            "name": "F#4",
            "ticks": 254422,
            "time": 288.06798438541665,
            "velocity": 0.3937007874015748
          },
          {
            "duration": 0.21739100000002054,
            "durationTicks": 192,
            "midi": 93,
            "name": "A6",
            "ticks": 254422,
            "time": 288.06798438541665,
            "velocity": 0.3937007874015748
          },
          {
            "duration": 0.21739100000002054,
            "durationTicks": 192,
            "midi": 81,
            "name": "A5",
            "ticks": 254422,
            "time": 288.06798438541665,
            "velocity": 0.3937007874015748
          },
          {
            "duration": 0.21739100000002054,
            "durationTicks": 192,
            "midi": 78,
            "name": "F#5",
            "ticks": 254422,
            "time": 288.06798438541665,
            "velocity": 0.3937007874015748
          },
          {
            "duration": 0.21739100000002054,
            "durationTicks": 192,
            "midi": 69,
            "name": "A4",
            "ticks": 254422,
            "time": 288.06798438541665,
            "velocity": 0.3937007874015748
          },
          {
            "duration": 0.21739100000002054,
            "durationTicks": 192,
            "midi": 90,
            "name": "F#6",
            "ticks": 254422,
            "time": 288.06798438541665,
            "velocity": 0.3937007874015748
          },
          {
            "duration": 0.2173909999999637,
            "durationTicks": 192,
            "midi": 79,
            "name": "G5",
            "ticks": 254614,
            "time": 288.28537538541667,
            "velocity": 0.3937007874015748
          },
          {
            "duration": 0.2173909999999637,
            "durationTicks": 192,
            "midi": 91,
            "name": "G6",
            "ticks": 254614,
            "time": 288.28537538541667,
            "velocity": 0.3937007874015748
          },
          {
            "duration": 0.2173909999999637,
            "durationTicks": 192,
            "midi": 67,
            "name": "G4",
            "ticks": 254614,
            "time": 288.28537538541667,
            "velocity": 0.3937007874015748
          },
          {
            "duration": 0.2173909999999637,
            "durationTicks": 192,
            "midi": 95,
            "name": "B6",
            "ticks": 254614,
            "time": 288.28537538541667,
            "velocity": 0.3937007874015748
          },
          {
            "duration": 0.2173909999999637,
            "durationTicks": 192,
            "midi": 62,
            "name": "D4",
            "ticks": 254614,
            "time": 288.28537538541667,
            "velocity": 0.3937007874015748
          },
          {
            "duration": 0.2173909999999637,
            "durationTicks": 192,
            "midi": 71,
            "name": "B4",
            "ticks": 254614,
            "time": 288.28537538541667,
            "velocity": 0.3937007874015748
          },
          {
            "duration": 0.2173909999999637,
            "durationTicks": 192,
            "midi": 57,
            "name": "A3",
            "ticks": 254614,
            "time": 288.28537538541667,
            "velocity": 0.3937007874015748
          },
          {
            "duration": 0.2173909999999637,
            "durationTicks": 192,
            "midi": 54,
            "name": "F#3",
            "ticks": 254614,
            "time": 288.28537538541667,
            "velocity": 0.3937007874015748
          },
          {
            "duration": 0.2173909999999637,
            "durationTicks": 192,
            "midi": 83,
            "name": "B5",
            "ticks": 254614,
            "time": 288.28537538541667,
            "velocity": 0.3937007874015748
          },
          {
            "duration": 0.3260865000000308,
            "durationTicks": 288,
            "midi": 54,
            "name": "F#3",
            "ticks": 254806,
            "time": 288.50276638541663,
            "velocity": 0.3937007874015748
          },
          {
            "duration": 0.3260865000000308,
            "durationTicks": 288,
            "midi": 62,
            "name": "D4",
            "ticks": 254806,
            "time": 288.50276638541663,
            "velocity": 0.3937007874015748
          },
          {
            "duration": 0.3260865000000308,
            "durationTicks": 288,
            "midi": 57,
            "name": "A3",
            "ticks": 254806,
            "time": 288.50276638541663,
            "velocity": 0.3937007874015748
          },
          {
            "duration": 0.21739100000002054,
            "durationTicks": 192,
            "midi": 69,
            "name": "A4",
            "ticks": 254998,
            "time": 288.72015738541666,
            "velocity": 0.3937007874015748
          },
          {
            "duration": 0.21739100000002054,
            "durationTicks": 192,
            "midi": 78,
            "name": "F#5",
            "ticks": 254998,
            "time": 288.72015738541666,
            "velocity": 0.3937007874015748
          },
          {
            "duration": 0.21739100000002054,
            "durationTicks": 192,
            "midi": 90,
            "name": "F#6",
            "ticks": 254998,
            "time": 288.72015738541666,
            "velocity": 0.3937007874015748
          },
          {
            "duration": 0.21739100000002054,
            "durationTicks": 192,
            "midi": 66,
            "name": "F#4",
            "ticks": 254998,
            "time": 288.72015738541666,
            "velocity": 0.3937007874015748
          },
          {
            "duration": 0.21739100000002054,
            "durationTicks": 192,
            "midi": 93,
            "name": "A6",
            "ticks": 254998,
            "time": 288.72015738541666,
            "velocity": 0.3937007874015748
          },
          {
            "duration": 0.21739100000002054,
            "durationTicks": 192,
            "midi": 81,
            "name": "A5",
            "ticks": 254998,
            "time": 288.72015738541666,
            "velocity": 0.3937007874015748
          },
          {
            "duration": 0.32608649999997397,
            "durationTicks": 288,
            "midi": 62,
            "name": "D4",
            "ticks": 255094,
            "time": 288.82885288541667,
            "velocity": 0.3937007874015748
          },
          {
            "duration": 0.32608649999997397,
            "durationTicks": 288,
            "midi": 57,
            "name": "A3",
            "ticks": 255094,
            "time": 288.82885288541667,
            "velocity": 0.3937007874015748
          },
          {
            "duration": 0.32608649999997397,
            "durationTicks": 288,
            "midi": 54,
            "name": "F#3",
            "ticks": 255094,
            "time": 288.82885288541667,
            "velocity": 0.3937007874015748
          },
          {
            "duration": 0.2173909999999637,
            "durationTicks": 192,
            "midi": 83,
            "name": "B5",
            "ticks": 255190,
            "time": 288.9375483854167,
            "velocity": 0.3937007874015748
          },
          {
            "duration": 0.2173909999999637,
            "durationTicks": 192,
            "midi": 95,
            "name": "B6",
            "ticks": 255190,
            "time": 288.9375483854167,
            "velocity": 0.3937007874015748
          },
          {
            "duration": 0.2173909999999637,
            "durationTicks": 192,
            "midi": 91,
            "name": "G6",
            "ticks": 255190,
            "time": 288.9375483854167,
            "velocity": 0.3937007874015748
          },
          {
            "duration": 0.2173909999999637,
            "durationTicks": 192,
            "midi": 67,
            "name": "G4",
            "ticks": 255190,
            "time": 288.9375483854167,
            "velocity": 0.3937007874015748
          },
          {
            "duration": 0.2173909999999637,
            "durationTicks": 192,
            "midi": 71,
            "name": "B4",
            "ticks": 255190,
            "time": 288.9375483854167,
            "velocity": 0.3937007874015748
          },
          {
            "duration": 0.2173909999999637,
            "durationTicks": 192,
            "midi": 79,
            "name": "G5",
            "ticks": 255190,
            "time": 288.9375483854167,
            "velocity": 0.3937007874015748
          },
          {
            "duration": 0.21739100000002054,
            "durationTicks": 192,
            "midi": 90,
            "name": "F#6",
            "ticks": 255382,
            "time": 289.15493938541664,
            "velocity": 0.3937007874015748
          },
          {
            "duration": 0.21739100000002054,
            "durationTicks": 192,
            "midi": 78,
            "name": "F#5",
            "ticks": 255382,
            "time": 289.15493938541664,
            "velocity": 0.3937007874015748
          },
          {
            "duration": 0.21739100000002054,
            "durationTicks": 192,
            "midi": 81,
            "name": "A5",
            "ticks": 255382,
            "time": 289.15493938541664,
            "velocity": 0.3937007874015748
          },
          {
            "duration": 0.21739100000002054,
            "durationTicks": 192,
            "midi": 59,
            "name": "B3",
            "ticks": 255382,
            "time": 289.15493938541664,
            "velocity": 0.3937007874015748
          },
          {
            "duration": 0.21739100000002054,
            "durationTicks": 192,
            "midi": 93,
            "name": "A6",
            "ticks": 255382,
            "time": 289.15493938541664,
            "velocity": 0.3937007874015748
          },
          {
            "duration": 0.21739100000002054,
            "durationTicks": 192,
            "midi": 64,
            "name": "E4",
            "ticks": 255382,
            "time": 289.15493938541664,
            "velocity": 0.3937007874015748
          },
          {
            "duration": 0.21739100000002054,
            "durationTicks": 192,
            "midi": 55,
            "name": "G3",
            "ticks": 255382,
            "time": 289.15493938541664,
            "velocity": 0.3937007874015748
          },
          {
            "duration": 0.21739100000002054,
            "durationTicks": 192,
            "midi": 66,
            "name": "F#4",
            "ticks": 255382,
            "time": 289.15493938541664,
            "velocity": 0.3937007874015748
          },
          {
            "duration": 0.21739100000002054,
            "durationTicks": 192,
            "midi": 69,
            "name": "A4",
            "ticks": 255382,
            "time": 289.15493938541664,
            "velocity": 0.3937007874015748
          },
          {
            "duration": 0.32608649999997397,
            "durationTicks": 288,
            "midi": 59,
            "name": "B3",
            "ticks": 255574,
            "time": 289.37233038541666,
            "velocity": 0.3937007874015748
          },
          {
            "duration": 0.2173909999999637,
            "durationTicks": 192,
            "midi": 76,
            "name": "E5",
            "ticks": 255574,
            "time": 289.37233038541666,
            "velocity": 0.3937007874015748
          },
          {
            "duration": 0.2173909999999637,
            "durationTicks": 192,
            "midi": 67,
            "name": "G4",
            "ticks": 255574,
            "time": 289.37233038541666,
            "velocity": 0.3937007874015748
          },
          {
            "duration": 0.2173909999999637,
            "durationTicks": 192,
            "midi": 64,
            "name": "E4",
            "ticks": 255574,
            "time": 289.37233038541666,
            "velocity": 0.3937007874015748
          },
          {
            "duration": 0.32608649999997397,
            "durationTicks": 288,
            "midi": 64,
            "name": "E4",
            "ticks": 255574,
            "time": 289.37233038541666,
            "velocity": 0.3937007874015748
          },
          {
            "duration": 0.32608649999997397,
            "durationTicks": 288,
            "midi": 55,
            "name": "G3",
            "ticks": 255574,
            "time": 289.37233038541666,
            "velocity": 0.3937007874015748
          },
          {
            "duration": 0.2173909999999637,
            "durationTicks": 192,
            "midi": 88,
            "name": "E6",
            "ticks": 255574,
            "time": 289.37233038541666,
            "velocity": 0.3937007874015748
          },
          {
            "duration": 0.2173909999999637,
            "durationTicks": 192,
            "midi": 91,
            "name": "G6",
            "ticks": 255574,
            "time": 289.37233038541666,
            "velocity": 0.3937007874015748
          },
          {
            "duration": 0.2173909999999637,
            "durationTicks": 192,
            "midi": 79,
            "name": "G5",
            "ticks": 255574,
            "time": 289.37233038541666,
            "velocity": 0.3937007874015748
          },
          {
            "duration": 0.21739100000002054,
            "durationTicks": 192,
            "midi": 62,
            "name": "D4",
            "ticks": 255766,
            "time": 289.5897213854166,
            "velocity": 0.3937007874015748
          },
          {
            "duration": 0.21739100000002054,
            "durationTicks": 192,
            "midi": 66,
            "name": "F#4",
            "ticks": 255766,
            "time": 289.5897213854166,
            "velocity": 0.3937007874015748
          },
          {
            "duration": 0.21739100000002054,
            "durationTicks": 192,
            "midi": 78,
            "name": "F#5",
            "ticks": 255766,
            "time": 289.5897213854166,
            "velocity": 0.3937007874015748
          },
          {
            "duration": 0.21739100000002054,
            "durationTicks": 192,
            "midi": 86,
            "name": "D6",
            "ticks": 255766,
            "time": 289.5897213854166,
            "velocity": 0.3937007874015748
          },
          {
            "duration": 0.21739100000002054,
            "durationTicks": 192,
            "midi": 74,
            "name": "D5",
            "ticks": 255766,
            "time": 289.5897213854166,
            "velocity": 0.3937007874015748
          },
          {
            "duration": 0.21739100000002054,
            "durationTicks": 192,
            "midi": 90,
            "name": "F#6",
            "ticks": 255766,
            "time": 289.5897213854166,
            "velocity": 0.3937007874015748
          },
          {
            "duration": 0.3260865000000308,
            "durationTicks": 288,
            "midi": 59,
            "name": "B3",
            "ticks": 255862,
            "time": 289.69841688541663,
            "velocity": 0.3937007874015748
          },
          {
            "duration": 0.3260865000000308,
            "durationTicks": 288,
            "midi": 64,
            "name": "E4",
            "ticks": 255862,
            "time": 289.69841688541663,
            "velocity": 0.3937007874015748
          },
          {
            "duration": 0.3260865000000308,
            "durationTicks": 288,
            "midi": 55,
            "name": "G3",
            "ticks": 255862,
            "time": 289.69841688541663,
            "velocity": 0.3937007874015748
          },
          {
            "duration": 0.21739100000002054,
            "durationTicks": 192,
            "midi": 69,
            "name": "A4",
            "ticks": 255958,
            "time": 289.80711238541664,
            "velocity": 0.3937007874015748
          },
          {
            "duration": 0.21739100000002054,
            "durationTicks": 192,
            "midi": 81,
            "name": "A5",
            "ticks": 255958,
            "time": 289.80711238541664,
            "velocity": 0.3937007874015748
          },
          {
            "duration": 0.21739100000002054,
            "durationTicks": 192,
            "midi": 57,
            "name": "A3",
            "ticks": 255958,
            "time": 289.80711238541664,
            "velocity": 0.3937007874015748
          },
          {
            "duration": 0.21739100000002054,
            "durationTicks": 192,
            "midi": 74,
            "name": "D5",
            "ticks": 255958,
            "time": 289.80711238541664,
            "velocity": 0.3937007874015748
          },
          {
            "duration": 0.21739100000002054,
            "durationTicks": 192,
            "midi": 62,
            "name": "D4",
            "ticks": 255958,
            "time": 289.80711238541664,
            "velocity": 0.3937007874015748
          },
          {
            "duration": 0.21739100000002054,
            "durationTicks": 192,
            "midi": 86,
            "name": "D6",
            "ticks": 255958,
            "time": 289.80711238541664,
            "velocity": 0.3937007874015748
          },
          {
            "duration": 0.2173909999999637,
            "durationTicks": 192,
            "midi": 64,
            "name": "E4",
            "ticks": 256150,
            "time": 290.02450338541666,
            "velocity": 0.3937007874015748
          },
          {
            "duration": 0.2173909999999637,
            "durationTicks": 192,
            "midi": 83,
            "name": "B5",
            "ticks": 256150,
            "time": 290.02450338541666,
            "velocity": 0.3937007874015748
          },
          {
            "duration": 0.2173909999999637,
            "durationTicks": 192,
            "midi": 71,
            "name": "B4",
            "ticks": 256150,
            "time": 290.02450338541666,
            "velocity": 0.3937007874015748
          },
          {
            "duration": 0.2173909999999637,
            "durationTicks": 192,
            "midi": 59,
            "name": "B3",
            "ticks": 256150,
            "time": 290.02450338541666,
            "velocity": 0.3937007874015748
          },
          {
            "duration": 0.2173909999999637,
            "durationTicks": 192,
            "midi": 59,
            "name": "B3",
            "ticks": 256150,
            "time": 290.02450338541666,
            "velocity": 0.3937007874015748
          },
          {
            "duration": 0.2173909999999637,
            "durationTicks": 192,
            "midi": 64,
            "name": "E4",
            "ticks": 256150,
            "time": 290.02450338541666,
            "velocity": 0.3937007874015748
          },
          {
            "duration": 0.2173909999999637,
            "durationTicks": 192,
            "midi": 55,
            "name": "G3",
            "ticks": 256150,
            "time": 290.02450338541666,
            "velocity": 0.3937007874015748
          },
          {
            "duration": 0.2173909999999637,
            "durationTicks": 192,
            "midi": 76,
            "name": "E5",
            "ticks": 256150,
            "time": 290.02450338541666,
            "velocity": 0.3937007874015748
          },
          {
            "duration": 0.2173909999999637,
            "durationTicks": 192,
            "midi": 88,
            "name": "E6",
            "ticks": 256150,
            "time": 290.02450338541666,
            "velocity": 0.3937007874015748
          },
          {
            "duration": 0.3260865000000308,
            "durationTicks": 288,
            "midi": 55,
            "name": "G3",
            "ticks": 256342,
            "time": 290.24189438541663,
            "velocity": 0.3937007874015748
          },
          {
            "duration": 0.3260865000000308,
            "durationTicks": 288,
            "midi": 64,
            "name": "E4",
            "ticks": 256342,
            "time": 290.24189438541663,
            "velocity": 0.3937007874015748
          },
          {
            "duration": 0.3260865000000308,
            "durationTicks": 288,
            "midi": 59,
            "name": "B3",
            "ticks": 256342,
            "time": 290.24189438541663,
            "velocity": 0.3937007874015748
          },
          {
            "duration": 0.21739100000002054,
            "durationTicks": 192,
            "midi": 86,
            "name": "D6",
            "ticks": 256534,
            "time": 290.45928538541665,
            "velocity": 0.3937007874015748
          },
          {
            "duration": 0.21739100000002054,
            "durationTicks": 192,
            "midi": 81,
            "name": "A5",
            "ticks": 256534,
            "time": 290.45928538541665,
            "velocity": 0.3937007874015748
          },
          {
            "duration": 0.21739100000002054,
            "durationTicks": 192,
            "midi": 74,
            "name": "D5",
            "ticks": 256534,
            "time": 290.45928538541665,
            "velocity": 0.3937007874015748
          },
          {
            "duration": 0.21739100000002054,
            "durationTicks": 192,
            "midi": 69,
            "name": "A4",
            "ticks": 256534,
            "time": 290.45928538541665,
            "velocity": 0.3937007874015748
          },
          {
            "duration": 0.21739100000002054,
            "durationTicks": 192,
            "midi": 57,
            "name": "A3",
            "ticks": 256534,
            "time": 290.45928538541665,
            "velocity": 0.3937007874015748
          },
          {
            "duration": 0.21739100000002054,
            "durationTicks": 192,
            "midi": 62,
            "name": "D4",
            "ticks": 256534,
            "time": 290.45928538541665,
            "velocity": 0.3937007874015748
          },
          {
            "duration": 0.32608649999997397,
            "durationTicks": 288,
            "midi": 64,
            "name": "E4",
            "ticks": 256630,
            "time": 290.56798088541666,
            "velocity": 0.3937007874015748
          },
          {
            "duration": 0.32608649999997397,
            "durationTicks": 288,
            "midi": 59,
            "name": "B3",
            "ticks": 256630,
            "time": 290.56798088541666,
            "velocity": 0.3937007874015748
          },
          {
            "duration": 0.32608649999997397,
            "durationTicks": 288,
            "midi": 55,
            "name": "G3",
            "ticks": 256630,
            "time": 290.56798088541666,
            "velocity": 0.3937007874015748
          },
          {
            "duration": 0.2173909999999637,
            "durationTicks": 192,
            "midi": 64,
            "name": "E4",
            "ticks": 256726,
            "time": 290.67667638541667,
            "velocity": 0.3937007874015748
          },
          {
            "duration": 0.2173909999999637,
            "durationTicks": 192,
            "midi": 88,
            "name": "E6",
            "ticks": 256726,
            "time": 290.67667638541667,
            "velocity": 0.3937007874015748
          },
          {
            "duration": 0.2173909999999637,
            "durationTicks": 192,
            "midi": 71,
            "name": "B4",
            "ticks": 256726,
            "time": 290.67667638541667,
            "velocity": 0.3937007874015748
          },
          {
            "duration": 0.2173909999999637,
            "durationTicks": 192,
            "midi": 76,
            "name": "E5",
            "ticks": 256726,
            "time": 290.67667638541667,
            "velocity": 0.3937007874015748
          },
          {
            "duration": 0.2173909999999637,
            "durationTicks": 192,
            "midi": 59,
            "name": "B3",
            "ticks": 256726,
            "time": 290.67667638541667,
            "velocity": 0.3937007874015748
          },
          {
            "duration": 0.2173909999999637,
            "durationTicks": 192,
            "midi": 83,
            "name": "B5",
            "ticks": 256726,
            "time": 290.67667638541667,
            "velocity": 0.3937007874015748
          },
          {
            "duration": 0.21739100000002054,
            "durationTicks": 192,
            "midi": 64,
            "name": "E4",
            "ticks": 256918,
            "time": 290.89406738541663,
            "velocity": 0.3937007874015748
          },
          {
            "duration": 0.21739100000002054,
            "durationTicks": 192,
            "midi": 59,
            "name": "B3",
            "ticks": 256918,
            "time": 290.89406738541663,
            "velocity": 0.3937007874015748
          },
          {
            "duration": 0.21739100000002054,
            "durationTicks": 192,
            "midi": 78,
            "name": "F#5",
            "ticks": 256918,
            "time": 290.89406738541663,
            "velocity": 0.3937007874015748
          },
          {
            "duration": 0.21739100000002054,
            "durationTicks": 192,
            "midi": 86,
            "name": "D6",
            "ticks": 256918,
            "time": 290.89406738541663,
            "velocity": 0.3937007874015748
          },
          {
            "duration": 0.21739100000002054,
            "durationTicks": 192,
            "midi": 66,
            "name": "F#4",
            "ticks": 256918,
            "time": 290.89406738541663,
            "velocity": 0.3937007874015748
          },
          {
            "duration": 0.21739100000002054,
            "durationTicks": 192,
            "midi": 62,
            "name": "D4",
            "ticks": 256918,
            "time": 290.89406738541663,
            "velocity": 0.3937007874015748
          },
          {
            "duration": 0.21739100000002054,
            "durationTicks": 192,
            "midi": 74,
            "name": "D5",
            "ticks": 256918,
            "time": 290.89406738541663,
            "velocity": 0.3937007874015748
          },
          {
            "duration": 0.21739100000002054,
            "durationTicks": 192,
            "midi": 55,
            "name": "G3",
            "ticks": 256918,
            "time": 290.89406738541663,
            "velocity": 0.3937007874015748
          },
          {
            "duration": 0.21739100000002054,
            "durationTicks": 192,
            "midi": 90,
            "name": "F#6",
            "ticks": 256918,
            "time": 290.89406738541663,
            "velocity": 0.3937007874015748
          },
          {
            "duration": 0.32608649999997397,
            "durationTicks": 288,
            "midi": 59,
            "name": "B3",
            "ticks": 257110,
            "time": 291.11145838541665,
            "velocity": 0.3937007874015748
          },
          {
            "duration": 0.21739100000002054,
            "durationTicks": 192,
            "midi": 91,
            "name": "G6",
            "ticks": 257110,
            "time": 291.11145838541665,
            "velocity": 0.3937007874015748
          },
          {
            "duration": 0.21739100000002054,
            "durationTicks": 192,
            "midi": 88,
            "name": "E6",
            "ticks": 257110,
            "time": 291.11145838541665,
            "velocity": 0.3937007874015748
          },
          {
            "duration": 0.21739100000002054,
            "durationTicks": 192,
            "midi": 64,
            "name": "E4",
            "ticks": 257110,
            "time": 291.11145838541665,
            "velocity": 0.3937007874015748
          },
          {
            "duration": 0.32608649999997397,
            "durationTicks": 288,
            "midi": 64,
            "name": "E4",
            "ticks": 257110,
            "time": 291.11145838541665,
            "velocity": 0.3937007874015748
          },
          {
            "duration": 0.21739100000002054,
            "durationTicks": 192,
            "midi": 76,
            "name": "E5",
            "ticks": 257110,
            "time": 291.11145838541665,
            "velocity": 0.3937007874015748
          },
          {
            "duration": 0.32608649999997397,
            "durationTicks": 288,
            "midi": 55,
            "name": "G3",
            "ticks": 257110,
            "time": 291.11145838541665,
            "velocity": 0.3937007874015748
          },
          {
            "duration": 0.21739100000002054,
            "durationTicks": 192,
            "midi": 67,
            "name": "G4",
            "ticks": 257110,
            "time": 291.11145838541665,
            "velocity": 0.3937007874015748
          },
          {
            "duration": 0.21739100000002054,
            "durationTicks": 192,
            "midi": 79,
            "name": "G5",
            "ticks": 257110,
            "time": 291.11145838541665,
            "velocity": 0.3937007874015748
          },
          {
            "duration": 0.2173909999999637,
            "durationTicks": 192,
            "midi": 78,
            "name": "F#5",
            "ticks": 257302,
            "time": 291.3288493854167,
            "velocity": 0.3937007874015748
          },
          {
            "duration": 0.2173909999999637,
            "durationTicks": 192,
            "midi": 90,
            "name": "F#6",
            "ticks": 257302,
            "time": 291.3288493854167,
            "velocity": 0.3937007874015748
          },
          {
            "duration": 0.2173909999999637,
            "durationTicks": 192,
            "midi": 93,
            "name": "A6",
            "ticks": 257302,
            "time": 291.3288493854167,
            "velocity": 0.3937007874015748
          },
          {
            "duration": 0.2173909999999637,
            "durationTicks": 192,
            "midi": 69,
            "name": "A4",
            "ticks": 257302,
            "time": 291.3288493854167,
            "velocity": 0.3937007874015748
          },
          {
            "duration": 0.2173909999999637,
            "durationTicks": 192,
            "midi": 81,
            "name": "A5",
            "ticks": 257302,
            "time": 291.3288493854167,
            "velocity": 0.3937007874015748
          },
          {
            "duration": 0.2173909999999637,
            "durationTicks": 192,
            "midi": 66,
            "name": "F#4",
            "ticks": 257302,
            "time": 291.3288493854167,
            "velocity": 0.3937007874015748
          },
          {
            "duration": 0.3260865000000308,
            "durationTicks": 288,
            "midi": 64,
            "name": "E4",
            "ticks": 257398,
            "time": 291.4375448854166,
            "velocity": 0.3937007874015748
          },
          {
            "duration": 0.3260865000000308,
            "durationTicks": 288,
            "midi": 59,
            "name": "B3",
            "ticks": 257398,
            "time": 291.4375448854166,
            "velocity": 0.3937007874015748
          },
          {
            "duration": 0.3260865000000308,
            "durationTicks": 288,
            "midi": 55,
            "name": "G3",
            "ticks": 257398,
            "time": 291.4375448854166,
            "velocity": 0.3937007874015748
          },
          {
            "duration": 0.21739100000002054,
            "durationTicks": 192,
            "midi": 83,
            "name": "B5",
            "ticks": 257494,
            "time": 291.54624038541664,
            "velocity": 0.3937007874015748
          },
          {
            "duration": 0.21739100000002054,
            "durationTicks": 192,
            "midi": 95,
            "name": "B6",
            "ticks": 257494,
            "time": 291.54624038541664,
            "velocity": 0.3937007874015748
          },
          {
            "duration": 0.21739100000002054,
            "durationTicks": 192,
            "midi": 79,
            "name": "G5",
            "ticks": 257494,
            "time": 291.54624038541664,
            "velocity": 0.3937007874015748
          },
          {
            "duration": 0.21739100000002054,
            "durationTicks": 192,
            "midi": 71,
            "name": "B4",
            "ticks": 257494,
            "time": 291.54624038541664,
            "velocity": 0.3937007874015748
          },
          {
            "duration": 0.21739100000002054,
            "durationTicks": 192,
            "midi": 91,
            "name": "G6",
            "ticks": 257494,
            "time": 291.54624038541664,
            "velocity": 0.3937007874015748
          },
          {
            "duration": 0.21739100000002054,
            "durationTicks": 192,
            "midi": 67,
            "name": "G4",
            "ticks": 257494,
            "time": 291.54624038541664,
            "velocity": 0.3937007874015748
          },
          {
            "duration": 0.21739100000002054,
            "durationTicks": 192,
            "midi": 59,
            "name": "B3",
            "ticks": 257686,
            "time": 291.76363138541666,
            "velocity": 0.3937007874015748
          },
          {
            "duration": 0.21739100000002054,
            "durationTicks": 192,
            "midi": 76,
            "name": "E5",
            "ticks": 257686,
            "time": 291.76363138541666,
            "velocity": 0.3937007874015748
          },
          {
            "duration": 0.21739100000002054,
            "durationTicks": 192,
            "midi": 64,
            "name": "E4",
            "ticks": 257686,
            "time": 291.76363138541666,
            "velocity": 0.3937007874015748
          },
          {
            "duration": 0.21739100000002054,
            "durationTicks": 192,
            "midi": 59,
            "name": "B3",
            "ticks": 257686,
            "time": 291.76363138541666,
            "velocity": 0.3937007874015748
          },
          {
            "duration": 0.21739100000002054,
            "durationTicks": 192,
            "midi": 64,
            "name": "E4",
            "ticks": 257686,
            "time": 291.76363138541666,
            "velocity": 0.3937007874015748
          },
          {
            "duration": 0.21739100000002054,
            "durationTicks": 192,
            "midi": 88,
            "name": "E6",
            "ticks": 257686,
            "time": 291.76363138541666,
            "velocity": 0.3937007874015748
          },
          {
            "duration": 0.21739100000002054,
            "durationTicks": 192,
            "midi": 55,
            "name": "G3",
            "ticks": 257686,
            "time": 291.76363138541666,
            "velocity": 0.3937007874015748
          },
          {
            "duration": 0.21739100000002054,
            "durationTicks": 192,
            "midi": 83,
            "name": "B5",
            "ticks": 257686,
            "time": 291.76363138541666,
            "velocity": 0.3937007874015748
          },
          {
            "duration": 0.21739100000002054,
            "durationTicks": 192,
            "midi": 71,
            "name": "B4",
            "ticks": 257686,
            "time": 291.76363138541666,
            "velocity": 0.3937007874015748
          },
          {
            "duration": 0.32608649999997397,
            "durationTicks": 288,
            "midi": 55,
            "name": "G3",
            "ticks": 257878,
            "time": 291.9810223854167,
            "velocity": 0.3937007874015748
          },
          {
            "duration": 0.32608649999997397,
            "durationTicks": 288,
            "midi": 64,
            "name": "E4",
            "ticks": 257878,
            "time": 291.9810223854167,
            "velocity": 0.3937007874015748
          },
          {
            "duration": 0.32608649999997397,
            "durationTicks": 288,
            "midi": 59,
            "name": "B3",
            "ticks": 257878,
            "time": 291.9810223854167,
            "velocity": 0.3937007874015748
          },
          {
            "duration": 0.21739100000002054,
            "durationTicks": 192,
            "midi": 67,
            "name": "G4",
            "ticks": 258070,
            "time": 292.19841338541664,
            "velocity": 0.3937007874015748
          },
          {
            "duration": 0.21739100000002054,
            "durationTicks": 192,
            "midi": 83,
            "name": "B5",
            "ticks": 258070,
            "time": 292.19841338541664,
            "velocity": 0.3937007874015748
          },
          {
            "duration": 0.21739100000002054,
            "durationTicks": 192,
            "midi": 91,
            "name": "G6",
            "ticks": 258070,
            "time": 292.19841338541664,
            "velocity": 0.3937007874015748
          },
          {
            "duration": 0.21739100000002054,
            "durationTicks": 192,
            "midi": 79,
            "name": "G5",
            "ticks": 258070,
            "time": 292.19841338541664,
            "velocity": 0.3937007874015748
          },
          {
            "duration": 0.21739100000002054,
            "durationTicks": 192,
            "midi": 95,
            "name": "B6",
            "ticks": 258070,
            "time": 292.19841338541664,
            "velocity": 0.3937007874015748
          },
          {
            "duration": 0.21739100000002054,
            "durationTicks": 192,
            "midi": 71,
            "name": "B4",
            "ticks": 258070,
            "time": 292.19841338541664,
            "velocity": 0.3937007874015748
          },
          {
            "duration": 0.32608649999997397,
            "durationTicks": 288,
            "midi": 64,
            "name": "E4",
            "ticks": 258166,
            "time": 292.30710888541665,
            "velocity": 0.3937007874015748
          },
          {
            "duration": 0.32608649999997397,
            "durationTicks": 288,
            "midi": 59,
            "name": "B3",
            "ticks": 258166,
            "time": 292.30710888541665,
            "velocity": 0.3937007874015748
          },
          {
            "duration": 0.32608649999997397,
            "durationTicks": 288,
            "midi": 55,
            "name": "G3",
            "ticks": 258166,
            "time": 292.30710888541665,
            "velocity": 0.3937007874015748
          },
          {
            "duration": 0.2173909999999637,
            "durationTicks": 192,
            "midi": 81,
            "name": "A5",
            "ticks": 258262,
            "time": 292.41580438541666,
            "velocity": 0.3937007874015748
          },
          {
            "duration": 0.2173909999999637,
            "durationTicks": 192,
            "midi": 69,
            "name": "A4",
            "ticks": 258262,
            "time": 292.41580438541666,
            "velocity": 0.3937007874015748
          },
          {
            "duration": 0.2173909999999637,
            "durationTicks": 192,
            "midi": 74,
            "name": "D5",
            "ticks": 258262,
            "time": 292.41580438541666,
            "velocity": 0.3937007874015748
          },
          {
            "duration": 0.2173909999999637,
            "durationTicks": 192,
            "midi": 86,
            "name": "D6",
            "ticks": 258262,
            "time": 292.41580438541666,
            "velocity": 0.3937007874015748
          },
          {
            "duration": 0.2173909999999637,
            "durationTicks": 192,
            "midi": 93,
            "name": "A6",
            "ticks": 258262,
            "time": 292.41580438541666,
            "velocity": 0.3937007874015748
          },
          {
            "duration": 0.2173909999999637,
            "durationTicks": 192,
            "midi": 86,
            "name": "D6",
            "ticks": 258262,
            "time": 292.41580438541666,
            "velocity": 0.3937007874015748
          },
          {
            "duration": 0.21739100000002054,
            "durationTicks": 192,
            "midi": 55,
            "name": "G3",
            "ticks": 258454,
            "time": 292.6331953854166,
            "velocity": 0.3937007874015748
          },
          {
            "duration": 0.21739100000002054,
            "durationTicks": 192,
            "midi": 86,
            "name": "D6",
            "ticks": 258454,
            "time": 292.6331953854166,
            "velocity": 0.3937007874015748
          },
          {
            "duration": 0.21739100000002054,
            "durationTicks": 192,
            "midi": 74,
            "name": "D5",
            "ticks": 258454,
            "time": 292.6331953854166,
            "velocity": 0.3937007874015748
          },
          {
            "duration": 0.21739100000002054,
            "durationTicks": 192,
            "midi": 86,
            "name": "D6",
            "ticks": 258454,
            "time": 292.6331953854166,
            "velocity": 0.3937007874015748
          },
          {
            "duration": 0.21739100000002054,
            "durationTicks": 192,
            "midi": 93,
            "name": "A6",
            "ticks": 258454,
            "time": 292.6331953854166,
            "velocity": 0.3937007874015748
          },
          {
            "duration": 0.21739100000002054,
            "durationTicks": 192,
            "midi": 81,
            "name": "A5",
            "ticks": 258454,
            "time": 292.6331953854166,
            "velocity": 0.3937007874015748
          },
          {
            "duration": 0.21739100000002054,
            "durationTicks": 192,
            "midi": 69,
            "name": "A4",
            "ticks": 258454,
            "time": 292.6331953854166,
            "velocity": 0.3937007874015748
          },
          {
            "duration": 0.21739100000002054,
            "durationTicks": 192,
            "midi": 60,
            "name": "C4",
            "ticks": 258454,
            "time": 292.6331953854166,
            "velocity": 0.3937007874015748
          },
          {
            "duration": 0.21739100000002054,
            "durationTicks": 192,
            "midi": 83,
            "name": "B5",
            "ticks": 258646,
            "time": 292.85058638541665,
            "velocity": 0.3937007874015748
          },
          {
            "duration": 0.21739100000002054,
            "durationTicks": 192,
            "midi": 88,
            "name": "E6",
            "ticks": 258646,
            "time": 292.85058638541665,
            "velocity": 0.3937007874015748
          },
          {
            "duration": 0.21739100000002054,
            "durationTicks": 192,
            "midi": 71,
            "name": "B4",
            "ticks": 258646,
            "time": 292.85058638541665,
            "velocity": 0.3937007874015748
          },
          {
            "duration": 0.21739100000002054,
            "durationTicks": 192,
            "midi": 76,
            "name": "E5",
            "ticks": 258646,
            "time": 292.85058638541665,
            "velocity": 0.3937007874015748
          },
          {
            "duration": 0.21739100000002054,
            "durationTicks": 192,
            "midi": 95,
            "name": "B6",
            "ticks": 258646,
            "time": 292.85058638541665,
            "velocity": 0.3937007874015748
          },
          {
            "duration": 0.21739100000002054,
            "durationTicks": 192,
            "midi": 88,
            "name": "E6",
            "ticks": 258646,
            "time": 292.85058638541665,
            "velocity": 0.3937007874015748
          },
          {
            "duration": 0.3260865000000308,
            "durationTicks": 288,
            "midi": 55,
            "name": "G3",
            "ticks": 258646,
            "time": 292.85058638541665,
            "velocity": 0.3937007874015748
          },
          {
            "duration": 0.3260865000000308,
            "durationTicks": 288,
            "midi": 60,
            "name": "C4",
            "ticks": 258646,
            "time": 292.85058638541665,
            "velocity": 0.3937007874015748
          },
          {
            "duration": 0.2173909999999637,
            "durationTicks": 192,
            "midi": 83,
            "name": "B5",
            "ticks": 258838,
            "time": 293.06797738541667,
            "velocity": 0.3937007874015748
          },
          {
            "duration": 0.2173909999999637,
            "durationTicks": 192,
            "midi": 79,
            "name": "G5",
            "ticks": 258838,
            "time": 293.06797738541667,
            "velocity": 0.3937007874015748
          },
          {
            "duration": 0.2173909999999637,
            "durationTicks": 192,
            "midi": 67,
            "name": "G4",
            "ticks": 258838,
            "time": 293.06797738541667,
            "velocity": 0.3937007874015748
          },
          {
            "duration": 0.2173909999999637,
            "durationTicks": 192,
            "midi": 71,
            "name": "B4",
            "ticks": 258838,
            "time": 293.06797738541667,
            "velocity": 0.3937007874015748
          },
          {
            "duration": 0.2173909999999637,
            "durationTicks": 192,
            "midi": 95,
            "name": "B6",
            "ticks": 258838,
            "time": 293.06797738541667,
            "velocity": 0.3937007874015748
          },
          {
            "duration": 0.2173909999999637,
            "durationTicks": 192,
            "midi": 91,
            "name": "G6",
            "ticks": 258838,
            "time": 293.06797738541667,
            "velocity": 0.3937007874015748
          },
          {
            "duration": 0.32608649999997397,
            "durationTicks": 288,
            "midi": 60,
            "name": "C4",
            "ticks": 258934,
            "time": 293.1766728854167,
            "velocity": 0.3937007874015748
          },
          {
            "duration": 0.32608649999997397,
            "durationTicks": 288,
            "midi": 55,
            "name": "G3",
            "ticks": 258934,
            "time": 293.1766728854167,
            "velocity": 0.3937007874015748
          },
          {
            "duration": 0.21739100000002054,
            "durationTicks": 192,
            "midi": 93,
            "name": "A6",
            "ticks": 259030,
            "time": 293.28536838541663,
            "velocity": 0.3937007874015748
          },
          {
            "duration": 0.21739100000002054,
            "durationTicks": 192,
            "midi": 69,
            "name": "A4",
            "ticks": 259030,
            "time": 293.28536838541663,
            "velocity": 0.3937007874015748
          },
          {
            "duration": 0.21739100000002054,
            "durationTicks": 192,
            "midi": 66,
            "name": "F#4",
            "ticks": 259030,
            "time": 293.28536838541663,
            "velocity": 0.3937007874015748
          },
          {
            "duration": 0.21739100000002054,
            "durationTicks": 192,
            "midi": 81,
            "name": "A5",
            "ticks": 259030,
            "time": 293.28536838541663,
            "velocity": 0.3937007874015748
          },
          {
            "duration": 0.21739100000002054,
            "durationTicks": 192,
            "midi": 78,
            "name": "F#5",
            "ticks": 259030,
            "time": 293.28536838541663,
            "velocity": 0.3937007874015748
          },
          {
            "duration": 0.21739100000002054,
            "durationTicks": 192,
            "midi": 90,
            "name": "F#6",
            "ticks": 259030,
            "time": 293.28536838541663,
            "velocity": 0.3937007874015748
          },
          {
            "duration": 0.21739100000002054,
            "durationTicks": 192,
            "midi": 91,
            "name": "G6",
            "ticks": 259222,
            "time": 293.50275938541665,
            "velocity": 0.3937007874015748
          },
          {
            "duration": 0.21739100000002054,
            "durationTicks": 192,
            "midi": 83,
            "name": "B5",
            "ticks": 259222,
            "time": 293.50275938541665,
            "velocity": 0.3937007874015748
          },
          {
            "duration": 0.21739100000002054,
            "durationTicks": 192,
            "midi": 71,
            "name": "B4",
            "ticks": 259222,
            "time": 293.50275938541665,
            "velocity": 0.3937007874015748
          },
          {
            "duration": 0.21739100000002054,
            "durationTicks": 192,
            "midi": 67,
            "name": "G4",
            "ticks": 259222,
            "time": 293.50275938541665,
            "velocity": 0.3937007874015748
          },
          {
            "duration": 0.21739100000002054,
            "durationTicks": 192,
            "midi": 60,
            "name": "C4",
            "ticks": 259222,
            "time": 293.50275938541665,
            "velocity": 0.3937007874015748
          },
          {
            "duration": 0.21739100000002054,
            "durationTicks": 192,
            "midi": 79,
            "name": "G5",
            "ticks": 259222,
            "time": 293.50275938541665,
            "velocity": 0.3937007874015748
          },
          {
            "duration": 0.21739100000002054,
            "durationTicks": 192,
            "midi": 95,
            "name": "B6",
            "ticks": 259222,
            "time": 293.50275938541665,
            "velocity": 0.3937007874015748
          },
          {
            "duration": 0.21739100000002054,
            "durationTicks": 192,
            "midi": 55,
            "name": "G3",
            "ticks": 259222,
            "time": 293.50275938541665,
            "velocity": 0.3937007874015748
          },
          {
            "duration": 0.32608649999997397,
            "durationTicks": 288,
            "midi": 60,
            "name": "C4",
            "ticks": 259414,
            "time": 293.7201503854167,
            "velocity": 0.3937007874015748
          },
          {
            "duration": 0.32608649999997397,
            "durationTicks": 288,
            "midi": 55,
            "name": "G3",
            "ticks": 259414,
            "time": 293.7201503854167,
            "velocity": 0.3937007874015748
          },
          {
            "duration": 0.21739100000002054,
            "durationTicks": 192,
            "midi": 69,
            "name": "A4",
            "ticks": 259606,
            "time": 293.93754138541664,
            "velocity": 0.3937007874015748
          },
          {
            "duration": 0.21739100000002054,
            "durationTicks": 192,
            "midi": 90,
            "name": "F#6",
            "ticks": 259606,
            "time": 293.93754138541664,
            "velocity": 0.3937007874015748
          },
          {
            "duration": 0.21739100000002054,
            "durationTicks": 192,
            "midi": 66,
            "name": "F#4",
            "ticks": 259606,
            "time": 293.93754138541664,
            "velocity": 0.3937007874015748
          },
          {
            "duration": 0.21739100000002054,
            "durationTicks": 192,
            "midi": 81,
            "name": "A5",
            "ticks": 259606,
            "time": 293.93754138541664,
            "velocity": 0.3937007874015748
          },
          {
            "duration": 0.21739100000002054,
            "durationTicks": 192,
            "midi": 78,
            "name": "F#5",
            "ticks": 259606,
            "time": 293.93754138541664,
            "velocity": 0.3937007874015748
          },
          {
            "duration": 0.21739100000002054,
            "durationTicks": 192,
            "midi": 93,
            "name": "A6",
            "ticks": 259606,
            "time": 293.93754138541664,
            "velocity": 0.3937007874015748
          },
          {
            "duration": 0.3260865000000308,
            "durationTicks": 288,
            "midi": 55,
            "name": "G3",
            "ticks": 259702,
            "time": 294.04623688541665,
            "velocity": 0.3937007874015748
          },
          {
            "duration": 0.3260865000000308,
            "durationTicks": 288,
            "midi": 60,
            "name": "C4",
            "ticks": 259702,
            "time": 294.04623688541665,
            "velocity": 0.3937007874015748
          },
          {
            "duration": 0.21739100000002054,
            "durationTicks": 192,
            "midi": 79,
            "name": "G5",
            "ticks": 259798,
            "time": 294.15493238541666,
            "velocity": 0.3937007874015748
          },
          {
            "duration": 0.21739100000002054,
            "durationTicks": 192,
            "midi": 67,
            "name": "G4",
            "ticks": 259798,
            "time": 294.15493238541666,
            "velocity": 0.3937007874015748
          },
          {
            "duration": 0.21739100000002054,
            "durationTicks": 192,
            "midi": 83,
            "name": "B5",
            "ticks": 259798,
            "time": 294.15493238541666,
            "velocity": 0.3937007874015748
          },
          {
            "duration": 0.21739100000002054,
            "durationTicks": 192,
            "midi": 95,
            "name": "B6",
            "ticks": 259798,
            "time": 294.15493238541666,
            "velocity": 0.3937007874015748
          },
          {
            "duration": 0.21739100000002054,
            "durationTicks": 192,
            "midi": 91,
            "name": "G6",
            "ticks": 259798,
            "time": 294.15493238541666,
            "velocity": 0.3937007874015748
          },
          {
            "duration": 0.21739100000002054,
            "durationTicks": 192,
            "midi": 71,
            "name": "B4",
            "ticks": 259798,
            "time": 294.15493238541666,
            "velocity": 0.3937007874015748
          },
          {
            "duration": 0.2173909999999637,
            "durationTicks": 192,
            "midi": 86,
            "name": "D6",
            "ticks": 259990,
            "time": 294.3723233854167,
            "velocity": 0.3937007874015748
          },
          {
            "duration": 0.2173909999999637,
            "durationTicks": 192,
            "midi": 81,
            "name": "A5",
            "ticks": 259990,
            "time": 294.3723233854167,
            "velocity": 0.3937007874015748
          },
          {
            "duration": 0.2173909999999637,
            "durationTicks": 192,
            "midi": 74,
            "name": "D5",
            "ticks": 259990,
            "time": 294.3723233854167,
            "velocity": 0.3937007874015748
          },
          {
            "duration": 0.2173909999999637,
            "durationTicks": 192,
            "midi": 93,
            "name": "A6",
            "ticks": 259990,
            "time": 294.3723233854167,
            "velocity": 0.3937007874015748
          },
          {
            "duration": 0.2173909999999637,
            "durationTicks": 192,
            "midi": 86,
            "name": "D6",
            "ticks": 259990,
            "time": 294.3723233854167,
            "velocity": 0.3937007874015748
          },
          {
            "duration": 0.2173909999999637,
            "durationTicks": 192,
            "midi": 54,
            "name": "F#3",
            "ticks": 259990,
            "time": 294.3723233854167,
            "velocity": 0.3937007874015748
          },
          {
            "duration": 0.2173909999999637,
            "durationTicks": 192,
            "midi": 57,
            "name": "A3",
            "ticks": 259990,
            "time": 294.3723233854167,
            "velocity": 0.3937007874015748
          },
          {
            "duration": 0.2173909999999637,
            "durationTicks": 192,
            "midi": 62,
            "name": "D4",
            "ticks": 259990,
            "time": 294.3723233854167,
            "velocity": 0.3937007874015748
          },
          {
            "duration": 0.2173909999999637,
            "durationTicks": 192,
            "midi": 69,
            "name": "A4",
            "ticks": 259990,
            "time": 294.3723233854167,
            "velocity": 0.3937007874015748
          },
          {
            "duration": 0.3260865000000308,
            "durationTicks": 288,
            "midi": 54,
            "name": "F#3",
            "ticks": 260182,
            "time": 294.58971438541664,
            "velocity": 0.3937007874015748
          },
          {
            "duration": 0.21739100000002054,
            "durationTicks": 192,
            "midi": 88,
            "name": "E6",
            "ticks": 260182,
            "time": 294.58971438541664,
            "velocity": 0.3937007874015748
          },
          {
            "duration": 0.3260865000000308,
            "durationTicks": 288,
            "midi": 57,
            "name": "A3",
            "ticks": 260182,
            "time": 294.58971438541664,
            "velocity": 0.3937007874015748
          },
          {
            "duration": 0.21739100000002054,
            "durationTicks": 192,
            "midi": 83,
            "name": "B5",
            "ticks": 260182,
            "time": 294.58971438541664,
            "velocity": 0.3937007874015748
          },
          {
            "duration": 0.3260865000000308,
            "durationTicks": 288,
            "midi": 62,
            "name": "D4",
            "ticks": 260182,
            "time": 294.58971438541664,
            "velocity": 0.3937007874015748
          },
          {
            "duration": 0.21739100000002054,
            "durationTicks": 192,
            "midi": 88,
            "name": "E6",
            "ticks": 260182,
            "time": 294.58971438541664,
            "velocity": 0.3937007874015748
          },
          {
            "duration": 0.21739100000002054,
            "durationTicks": 192,
            "midi": 76,
            "name": "E5",
            "ticks": 260182,
            "time": 294.58971438541664,
            "velocity": 0.3937007874015748
          },
          {
            "duration": 0.21739100000002054,
            "durationTicks": 192,
            "midi": 95,
            "name": "B6",
            "ticks": 260182,
            "time": 294.58971438541664,
            "velocity": 0.3937007874015748
          },
          {
            "duration": 0.21739100000002054,
            "durationTicks": 192,
            "midi": 71,
            "name": "B4",
            "ticks": 260182,
            "time": 294.58971438541664,
            "velocity": 0.3937007874015748
          },
          {
            "duration": 0.2173909999999637,
            "durationTicks": 192,
            "midi": 95,
            "name": "B6",
            "ticks": 260374,
            "time": 294.80710538541666,
            "velocity": 0.3937007874015748
          },
          {
            "duration": 0.2173909999999637,
            "durationTicks": 192,
            "midi": 67,
            "name": "G4",
            "ticks": 260374,
            "time": 294.80710538541666,
            "velocity": 0.3937007874015748
          },
          {
            "duration": 0.2173909999999637,
            "durationTicks": 192,
            "midi": 79,
            "name": "G5",
            "ticks": 260374,
            "time": 294.80710538541666,
            "velocity": 0.3937007874015748
          },
          {
            "duration": 0.2173909999999637,
            "durationTicks": 192,
            "midi": 83,
            "name": "B5",
            "ticks": 260374,
            "time": 294.80710538541666,
            "velocity": 0.3937007874015748
          },
          {
            "duration": 0.2173909999999637,
            "durationTicks": 192,
            "midi": 71,
            "name": "B4",
            "ticks": 260374,
            "time": 294.80710538541666,
            "velocity": 0.3937007874015748
          },
          {
            "duration": 0.2173909999999637,
            "durationTicks": 192,
            "midi": 91,
            "name": "G6",
            "ticks": 260374,
            "time": 294.80710538541666,
            "velocity": 0.3937007874015748
          },
          {
            "duration": 0.32608649999997397,
            "durationTicks": 288,
            "midi": 54,
            "name": "F#3",
            "ticks": 260470,
            "time": 294.9158008854167,
            "velocity": 0.3937007874015748
          },
          {
            "duration": 0.32608649999997397,
            "durationTicks": 288,
            "midi": 57,
            "name": "A3",
            "ticks": 260470,
            "time": 294.9158008854167,
            "velocity": 0.3937007874015748
          },
          {
            "duration": 0.32608649999997397,
            "durationTicks": 288,
            "midi": 62,
            "name": "D4",
            "ticks": 260470,
            "time": 294.9158008854167,
            "velocity": 0.3937007874015748
          },
          {
            "duration": 0.21739100000002054,
            "durationTicks": 192,
            "midi": 81,
            "name": "A5",
            "ticks": 260566,
            "time": 295.0244963854166,
            "velocity": 0.3937007874015748
          },
          {
            "duration": 0.21739100000002054,
            "durationTicks": 192,
            "midi": 93,
            "name": "A6",
            "ticks": 260566,
            "time": 295.0244963854166,
            "velocity": 0.3937007874015748
          },
          {
            "duration": 0.21739100000002054,
            "durationTicks": 192,
            "midi": 66,
            "name": "F#4",
            "ticks": 260566,
            "time": 295.0244963854166,
            "velocity": 0.3937007874015748
          },
          {
            "duration": 0.21739100000002054,
            "durationTicks": 192,
            "midi": 78,
            "name": "F#5",
            "ticks": 260566,
            "time": 295.0244963854166,
            "velocity": 0.3937007874015748
          },
          {
            "duration": 0.21739100000002054,
            "durationTicks": 192,
            "midi": 69,
            "name": "A4",
            "ticks": 260566,
            "time": 295.0244963854166,
            "velocity": 0.3937007874015748
          },
          {
            "duration": 0.21739100000002054,
            "durationTicks": 192,
            "midi": 90,
            "name": "F#6",
            "ticks": 260566,
            "time": 295.0244963854166,
            "velocity": 0.3937007874015748
          },
          {
            "duration": 0.21739100000002054,
            "durationTicks": 192,
            "midi": 91,
            "name": "G6",
            "ticks": 260758,
            "time": 295.24188738541665,
            "velocity": 0.3937007874015748
          },
          {
            "duration": 0.21739100000002054,
            "durationTicks": 192,
            "midi": 67,
            "name": "G4",
            "ticks": 260758,
            "time": 295.24188738541665,
            "velocity": 0.3937007874015748
          },
          {
            "duration": 0.21739100000002054,
            "durationTicks": 192,
            "midi": 62,
            "name": "D4",
            "ticks": 260758,
            "time": 295.24188738541665,
            "velocity": 0.3937007874015748
          },
          {
            "duration": 0.21739100000002054,
            "durationTicks": 192,
            "midi": 71,
            "name": "B4",
            "ticks": 260758,
            "time": 295.24188738541665,
            "velocity": 0.3937007874015748
          },
          {
            "duration": 0.21739100000002054,
            "durationTicks": 192,
            "midi": 95,
            "name": "B6",
            "ticks": 260758,
            "time": 295.24188738541665,
            "velocity": 0.3937007874015748
          },
          {
            "duration": 0.21739100000002054,
            "durationTicks": 192,
            "midi": 57,
            "name": "A3",
            "ticks": 260758,
            "time": 295.24188738541665,
            "velocity": 0.3937007874015748
          },
          {
            "duration": 0.21739100000002054,
            "durationTicks": 192,
            "midi": 83,
            "name": "B5",
            "ticks": 260758,
            "time": 295.24188738541665,
            "velocity": 0.3937007874015748
          },
          {
            "duration": 0.21739100000002054,
            "durationTicks": 192,
            "midi": 54,
            "name": "F#3",
            "ticks": 260758,
            "time": 295.24188738541665,
            "velocity": 0.3937007874015748
          },
          {
            "duration": 0.21739100000002054,
            "durationTicks": 192,
            "midi": 79,
            "name": "G5",
            "ticks": 260758,
            "time": 295.24188738541665,
            "velocity": 0.3937007874015748
          },
          {
            "duration": 0.32608649999997397,
            "durationTicks": 288,
            "midi": 54,
            "name": "F#3",
            "ticks": 260950,
            "time": 295.45927838541667,
            "velocity": 0.3937007874015748
          },
          {
            "duration": 0.32608649999997397,
            "durationTicks": 288,
            "midi": 57,
            "name": "A3",
            "ticks": 260950,
            "time": 295.45927838541667,
            "velocity": 0.3937007874015748
          },
          {
            "duration": 0.32608649999997397,
            "durationTicks": 288,
            "midi": 62,
            "name": "D4",
            "ticks": 260950,
            "time": 295.45927838541667,
            "velocity": 0.3937007874015748
          },
          {
            "duration": 0.21739100000002054,
            "durationTicks": 192,
            "midi": 69,
            "name": "A4",
            "ticks": 261142,
            "time": 295.67666938541663,
            "velocity": 0.3937007874015748
          },
          {
            "duration": 0.21739100000002054,
            "durationTicks": 192,
            "midi": 81,
            "name": "A5",
            "ticks": 261142,
            "time": 295.67666938541663,
            "velocity": 0.3937007874015748
          },
          {
            "duration": 0.21739100000002054,
            "durationTicks": 192,
            "midi": 66,
            "name": "F#4",
            "ticks": 261142,
            "time": 295.67666938541663,
            "velocity": 0.3937007874015748
          },
          {
            "duration": 0.21739100000002054,
            "durationTicks": 192,
            "midi": 93,
            "name": "A6",
            "ticks": 261142,
            "time": 295.67666938541663,
            "velocity": 0.3937007874015748
          },
          {
            "duration": 0.21739100000002054,
            "durationTicks": 192,
            "midi": 90,
            "name": "F#6",
            "ticks": 261142,
            "time": 295.67666938541663,
            "velocity": 0.3937007874015748
          },
          {
            "duration": 0.21739100000002054,
            "durationTicks": 192,
            "midi": 78,
            "name": "F#5",
            "ticks": 261142,
            "time": 295.67666938541663,
            "velocity": 0.3937007874015748
          },
          {
            "duration": 0.3260865000000308,
            "durationTicks": 288,
            "midi": 54,
            "name": "F#3",
            "ticks": 261238,
            "time": 295.78536488541664,
            "velocity": 0.3937007874015748
          },
          {
            "duration": 0.3260865000000308,
            "durationTicks": 288,
            "midi": 57,
            "name": "A3",
            "ticks": 261238,
            "time": 295.78536488541664,
            "velocity": 0.3937007874015748
          },
          {
            "duration": 0.3260865000000308,
            "durationTicks": 288,
            "midi": 62,
            "name": "D4",
            "ticks": 261238,
            "time": 295.78536488541664,
            "velocity": 0.3937007874015748
          },
          {
            "duration": 0.21739100000002054,
            "durationTicks": 192,
            "midi": 91,
            "name": "G6",
            "ticks": 261334,
            "time": 295.89406038541665,
            "velocity": 0.3937007874015748
          },
          {
            "duration": 0.21739100000002054,
            "durationTicks": 192,
            "midi": 95,
            "name": "B6",
            "ticks": 261334,
            "time": 295.89406038541665,
            "velocity": 0.3937007874015748
          },
          {
            "duration": 0.21739100000002054,
            "durationTicks": 192,
            "midi": 71,
            "name": "B4",
            "ticks": 261334,
            "time": 295.89406038541665,
            "velocity": 0.3937007874015748
          },
          {
            "duration": 0.21739100000002054,
            "durationTicks": 192,
            "midi": 83,
            "name": "B5",
            "ticks": 261334,
            "time": 295.89406038541665,
            "velocity": 0.3937007874015748
          },
          {
            "duration": 0.21739100000002054,
            "durationTicks": 192,
            "midi": 79,
            "name": "G5",
            "ticks": 261334,
            "time": 295.89406038541665,
            "velocity": 0.3937007874015748
          },
          {
            "duration": 0.21739100000002054,
            "durationTicks": 192,
            "midi": 67,
            "name": "G4",
            "ticks": 261334,
            "time": 295.89406038541665,
            "velocity": 0.3937007874015748
          },
          {
            "duration": 0.2173909999999637,
            "durationTicks": 192,
            "midi": 64,
            "name": "E4",
            "ticks": 261526,
            "time": 296.1114513854167,
            "velocity": 0.3937007874015748
          },
          {
            "duration": 0.2173909999999637,
            "durationTicks": 192,
            "midi": 66,
            "name": "F#4",
            "ticks": 261526,
            "time": 296.1114513854167,
            "velocity": 0.3937007874015748
          },
          {
            "duration": 0.2173909999999637,
            "durationTicks": 192,
            "midi": 81,
            "name": "A5",
            "ticks": 261526,
            "time": 296.1114513854167,
            "velocity": 0.3937007874015748
          },
          {
            "duration": 0.2173909999999637,
            "durationTicks": 192,
            "midi": 78,
            "name": "F#5",
            "ticks": 261526,
            "time": 296.1114513854167,
            "velocity": 0.3937007874015748
          },
          {
            "duration": 0.2173909999999637,
            "durationTicks": 192,
            "midi": 90,
            "name": "F#6",
            "ticks": 261526,
            "time": 296.1114513854167,
            "velocity": 0.3937007874015748
          },
          {
            "duration": 0.2173909999999637,
            "durationTicks": 192,
            "midi": 93,
            "name": "A6",
            "ticks": 261526,
            "time": 296.1114513854167,
            "velocity": 0.3937007874015748
          },
          {
            "duration": 0.2173909999999637,
            "durationTicks": 192,
            "midi": 55,
            "name": "G3",
            "ticks": 261526,
            "time": 296.1114513854167,
            "velocity": 0.3937007874015748
          },
          {
            "duration": 0.2173909999999637,
            "durationTicks": 192,
            "midi": 69,
            "name": "A4",
            "ticks": 261526,
            "time": 296.1114513854167,
            "velocity": 0.3937007874015748
          },
          {
            "duration": 0.2173909999999637,
            "durationTicks": 192,
            "midi": 59,
            "name": "B3",
            "ticks": 261526,
            "time": 296.1114513854167,
            "velocity": 0.3937007874015748
          },
          {
            "duration": 0.21739100000002054,
            "durationTicks": 192,
            "midi": 88,
            "name": "E6",
            "ticks": 261718,
            "time": 296.32884238541664,
            "velocity": 0.3937007874015748
          },
          {
            "duration": 0.21739100000002054,
            "durationTicks": 192,
            "midi": 67,
            "name": "G4",
            "ticks": 261718,
            "time": 296.32884238541664,
            "velocity": 0.3937007874015748
          },
          {
            "duration": 0.3260865000000308,
            "durationTicks": 288,
            "midi": 59,
            "name": "B3",
            "ticks": 261718,
            "time": 296.32884238541664,
            "velocity": 0.3937007874015748
          },
          {
            "duration": 0.21739100000002054,
            "durationTicks": 192,
            "midi": 64,
            "name": "E4",
            "ticks": 261718,
            "time": 296.32884238541664,
            "velocity": 0.3937007874015748
          },
          {
            "duration": 0.21739100000002054,
            "durationTicks": 192,
            "midi": 91,
            "name": "G6",
            "ticks": 261718,
            "time": 296.32884238541664,
            "velocity": 0.3937007874015748
          },
          {
            "duration": 0.21739100000002054,
            "durationTicks": 192,
            "midi": 79,
            "name": "G5",
            "ticks": 261718,
            "time": 296.32884238541664,
            "velocity": 0.3937007874015748
          },
          {
            "duration": 0.21739100000002054,
            "durationTicks": 192,
            "midi": 76,
            "name": "E5",
            "ticks": 261718,
            "time": 296.32884238541664,
            "velocity": 0.3937007874015748
          },
          {
            "duration": 0.3260865000000308,
            "durationTicks": 288,
            "midi": 64,
            "name": "E4",
            "ticks": 261718,
            "time": 296.32884238541664,
            "velocity": 0.3937007874015748
          },
          {
            "duration": 0.3260865000000308,
            "durationTicks": 288,
            "midi": 55,
            "name": "G3",
            "ticks": 261718,
            "time": 296.32884238541664,
            "velocity": 0.3937007874015748
          },
          {
            "duration": 0.21739100000002054,
            "durationTicks": 192,
            "midi": 74,
            "name": "D5",
            "ticks": 261910,
            "time": 296.54623338541666,
            "velocity": 0.3937007874015748
          },
          {
            "duration": 0.21739100000002054,
            "durationTicks": 192,
            "midi": 62,
            "name": "D4",
            "ticks": 261910,
            "time": 296.54623338541666,
            "velocity": 0.3937007874015748
          },
          {
            "duration": 0.21739100000002054,
            "durationTicks": 192,
            "midi": 78,
            "name": "F#5",
            "ticks": 261910,
            "time": 296.54623338541666,
            "velocity": 0.3937007874015748
          },
          {
            "duration": 0.21739100000002054,
            "durationTicks": 192,
            "midi": 86,
            "name": "D6",
            "ticks": 261910,
            "time": 296.54623338541666,
            "velocity": 0.3937007874015748
          },
          {
            "duration": 0.21739100000002054,
            "durationTicks": 192,
            "midi": 66,
            "name": "F#4",
            "ticks": 261910,
            "time": 296.54623338541666,
            "velocity": 0.3937007874015748
          },
          {
            "duration": 0.21739100000002054,
            "durationTicks": 192,
            "midi": 90,
            "name": "F#6",
            "ticks": 261910,
            "time": 296.54623338541666,
            "velocity": 0.3937007874015748
          },
          {
            "duration": 0.32608649999997397,
            "durationTicks": 288,
            "midi": 59,
            "name": "B3",
            "ticks": 262006,
            "time": 296.65492888541667,
            "velocity": 0.3937007874015748
          },
          {
            "duration": 0.32608649999997397,
            "durationTicks": 288,
            "midi": 64,
            "name": "E4",
            "ticks": 262006,
            "time": 296.65492888541667,
            "velocity": 0.3937007874015748
          },
          {
            "duration": 0.32608649999997397,
            "durationTicks": 288,
            "midi": 55,
            "name": "G3",
            "ticks": 262006,
            "time": 296.65492888541667,
            "velocity": 0.3937007874015748
          },
          {
            "duration": 0.2173909999999637,
            "durationTicks": 192,
            "midi": 81,
            "name": "A5",
            "ticks": 262102,
            "time": 296.7636243854167,
            "velocity": 0.3937007874015748
          },
          {
            "duration": 0.2173909999999637,
            "durationTicks": 192,
            "midi": 69,
            "name": "A4",
            "ticks": 262102,
            "time": 296.7636243854167,
            "velocity": 0.3937007874015748
          },
          {
            "duration": 0.2173909999999637,
            "durationTicks": 192,
            "midi": 74,
            "name": "D5",
            "ticks": 262102,
            "time": 296.7636243854167,
            "velocity": 0.3937007874015748
          },
          {
            "duration": 0.2173909999999637,
            "durationTicks": 192,
            "midi": 57,
            "name": "A3",
            "ticks": 262102,
            "time": 296.7636243854167,
            "velocity": 0.3937007874015748
          },
          {
            "duration": 0.2173909999999637,
            "durationTicks": 192,
            "midi": 86,
            "name": "D6",
            "ticks": 262102,
            "time": 296.7636243854167,
            "velocity": 0.3937007874015748
          },
          {
            "duration": 0.2173909999999637,
            "durationTicks": 192,
            "midi": 62,
            "name": "D4",
            "ticks": 262102,
            "time": 296.7636243854167,
            "velocity": 0.3937007874015748
          },
          {
            "duration": 0.21739100000002054,
            "durationTicks": 192,
            "midi": 55,
            "name": "G3",
            "ticks": 262294,
            "time": 296.98101538541664,
            "velocity": 0.3937007874015748
          },
          {
            "duration": 0.21739100000002054,
            "durationTicks": 192,
            "midi": 64,
            "name": "E4",
            "ticks": 262294,
            "time": 296.98101538541664,
            "velocity": 0.3937007874015748
          },
          {
            "duration": 0.21739100000002054,
            "durationTicks": 192,
            "midi": 88,
            "name": "E6",
            "ticks": 262294,
            "time": 296.98101538541664,
            "velocity": 0.3937007874015748
          },
          {
            "duration": 0.21739100000002054,
            "durationTicks": 192,
            "midi": 59,
            "name": "B3",
            "ticks": 262294,
            "time": 296.98101538541664,
            "velocity": 0.3937007874015748
          },
          {
            "duration": 0.21739100000002054,
            "durationTicks": 192,
            "midi": 83,
            "name": "B5",
            "ticks": 262294,
            "time": 296.98101538541664,
            "velocity": 0.3937007874015748
          },
          {
            "duration": 0.21739100000002054,
            "durationTicks": 192,
            "midi": 76,
            "name": "E5",
            "ticks": 262294,
            "time": 296.98101538541664,
            "velocity": 0.3937007874015748
          },
          {
            "duration": 0.21739100000002054,
            "durationTicks": 192,
            "midi": 64,
            "name": "E4",
            "ticks": 262294,
            "time": 296.98101538541664,
            "velocity": 0.3937007874015748
          },
          {
            "duration": 0.21739100000002054,
            "durationTicks": 192,
            "midi": 71,
            "name": "B4",
            "ticks": 262294,
            "time": 296.98101538541664,
            "velocity": 0.3937007874015748
          },
          {
            "duration": 0.21739100000002054,
            "durationTicks": 192,
            "midi": 59,
            "name": "B3",
            "ticks": 262294,
            "time": 296.98101538541664,
            "velocity": 0.3937007874015748
          },
          {
            "duration": 0.32608649999997397,
            "durationTicks": 288,
            "midi": 55,
            "name": "G3",
            "ticks": 262486,
            "time": 297.19840638541666,
            "velocity": 0.3937007874015748
          },
          {
            "duration": 0.32608649999997397,
            "durationTicks": 288,
            "midi": 59,
            "name": "B3",
            "ticks": 262486,
            "time": 297.19840638541666,
            "velocity": 0.3937007874015748
          },
          {
            "duration": 0.32608649999997397,
            "durationTicks": 288,
            "midi": 64,
            "name": "E4",
            "ticks": 262486,
            "time": 297.19840638541666,
            "velocity": 0.3937007874015748
          },
          {
            "duration": 0.21739100000002054,
            "durationTicks": 192,
            "midi": 74,
            "name": "D5",
            "ticks": 262678,
            "time": 297.4157973854166,
            "velocity": 0.3937007874015748
          },
          {
            "duration": 0.21739100000002054,
            "durationTicks": 192,
            "midi": 81,
            "name": "A5",
            "ticks": 262678,
            "time": 297.4157973854166,
            "velocity": 0.3937007874015748
          },
          {
            "duration": 0.21739100000002054,
            "durationTicks": 192,
            "midi": 62,
            "name": "D4",
            "ticks": 262678,
            "time": 297.4157973854166,
            "velocity": 0.3937007874015748
          },
          {
            "duration": 0.21739100000002054,
            "durationTicks": 192,
            "midi": 69,
            "name": "A4",
            "ticks": 262678,
            "time": 297.4157973854166,
            "velocity": 0.3937007874015748
          },
          {
            "duration": 0.21739100000002054,
            "durationTicks": 192,
            "midi": 86,
            "name": "D6",
            "ticks": 262678,
            "time": 297.4157973854166,
            "velocity": 0.3937007874015748
          },
          {
            "duration": 0.21739100000002054,
            "durationTicks": 192,
            "midi": 57,
            "name": "A3",
            "ticks": 262678,
            "time": 297.4157973854166,
            "velocity": 0.3937007874015748
          },
          {
            "duration": 0.3260865000000308,
            "durationTicks": 288,
            "midi": 59,
            "name": "B3",
            "ticks": 262774,
            "time": 297.52449288541663,
            "velocity": 0.3937007874015748
          },
          {
            "duration": 0.3260865000000308,
            "durationTicks": 288,
            "midi": 64,
            "name": "E4",
            "ticks": 262774,
            "time": 297.52449288541663,
            "velocity": 0.3937007874015748
          },
          {
            "duration": 0.3260865000000308,
            "durationTicks": 288,
            "midi": 55,
            "name": "G3",
            "ticks": 262774,
            "time": 297.52449288541663,
            "velocity": 0.3937007874015748
          },
          {
            "duration": 0.21739100000002054,
            "durationTicks": 192,
            "midi": 59,
            "name": "B3",
            "ticks": 262870,
            "time": 297.63318838541664,
            "velocity": 0.3937007874015748
          },
          {
            "duration": 0.21739100000002054,
            "durationTicks": 192,
            "midi": 71,
            "name": "B4",
            "ticks": 262870,
            "time": 297.63318838541664,
            "velocity": 0.3937007874015748
          },
          {
            "duration": 0.21739100000002054,
            "durationTicks": 192,
            "midi": 64,
            "name": "E4",
            "ticks": 262870,
            "time": 297.63318838541664,
            "velocity": 0.3937007874015748
          },
          {
            "duration": 0.21739100000002054,
            "durationTicks": 192,
            "midi": 76,
            "name": "E5",
            "ticks": 262870,
            "time": 297.63318838541664,
            "velocity": 0.3937007874015748
          },
          {
            "duration": 0.21739100000002054,
            "durationTicks": 192,
            "midi": 83,
            "name": "B5",
            "ticks": 262870,
            "time": 297.63318838541664,
            "velocity": 0.3937007874015748
          },
          {
            "duration": 0.21739100000002054,
            "durationTicks": 192,
            "midi": 88,
            "name": "E6",
            "ticks": 262870,
            "time": 297.63318838541664,
            "velocity": 0.3937007874015748
          },
          {
            "duration": 0.2173909999999637,
            "durationTicks": 192,
            "midi": 86,
            "name": "D6",
            "ticks": 263062,
            "time": 297.85057938541667,
            "velocity": 0.3937007874015748
          },
          {
            "duration": 0.2173909999999637,
            "durationTicks": 192,
            "midi": 64,
            "name": "E4",
            "ticks": 263062,
            "time": 297.85057938541667,
            "velocity": 0.3937007874015748
          },
          {
            "duration": 0.2173909999999637,
            "durationTicks": 192,
            "midi": 59,
            "name": "B3",
            "ticks": 263062,
            "time": 297.85057938541667,
            "velocity": 0.3937007874015748
          },
          {
            "duration": 0.2173909999999637,
            "durationTicks": 192,
            "midi": 62,
            "name": "D4",
            "ticks": 263062,
            "time": 297.85057938541667,
            "velocity": 0.3937007874015748
          },
          {
            "duration": 0.2173909999999637,
            "durationTicks": 192,
            "midi": 90,
            "name": "F#6",
            "ticks": 263062,
            "time": 297.85057938541667,
            "velocity": 0.3937007874015748
          },
          {
            "duration": 0.2173909999999637,
            "durationTicks": 192,
            "midi": 66,
            "name": "F#4",
            "ticks": 263062,
            "time": 297.85057938541667,
            "velocity": 0.3937007874015748
          },
          {
            "duration": 0.2173909999999637,
            "durationTicks": 192,
            "midi": 74,
            "name": "D5",
            "ticks": 263062,
            "time": 297.85057938541667,
            "velocity": 0.3937007874015748
          },
          {
            "duration": 0.2173909999999637,
            "durationTicks": 192,
            "midi": 78,
            "name": "F#5",
            "ticks": 263062,
            "time": 297.85057938541667,
            "velocity": 0.3937007874015748
          },
          {
            "duration": 0.2173909999999637,
            "durationTicks": 192,
            "midi": 55,
            "name": "G3",
            "ticks": 263062,
            "time": 297.85057938541667,
            "velocity": 0.3937007874015748
          },
          {
            "duration": 0.21739100000002054,
            "durationTicks": 192,
            "midi": 79,
            "name": "G5",
            "ticks": 263254,
            "time": 298.06797038541663,
            "velocity": 0.3937007874015748
          },
          {
            "duration": 0.21739100000002054,
            "durationTicks": 192,
            "midi": 76,
            "name": "E5",
            "ticks": 263254,
            "time": 298.06797038541663,
            "velocity": 0.3937007874015748
          },
          {
            "duration": 0.21739100000002054,
            "durationTicks": 192,
            "midi": 67,
            "name": "G4",
            "ticks": 263254,
            "time": 298.06797038541663,
            "velocity": 0.3937007874015748
          },
          {
            "duration": 0.21739100000002054,
            "durationTicks": 192,
            "midi": 64,
            "name": "E4",
            "ticks": 263254,
            "time": 298.06797038541663,
            "velocity": 0.3937007874015748
          },
          {
            "duration": 0.21739100000002054,
            "durationTicks": 192,
            "midi": 88,
            "name": "E6",
            "ticks": 263254,
            "time": 298.06797038541663,
            "velocity": 0.3937007874015748
          },
          {
            "duration": 0.3260865000000308,
            "durationTicks": 288,
            "midi": 59,
            "name": "B3",
            "ticks": 263254,
            "time": 298.06797038541663,
            "velocity": 0.3937007874015748
          },
          {
            "duration": 0.3260865000000308,
            "durationTicks": 288,
            "midi": 55,
            "name": "G3",
            "ticks": 263254,
            "time": 298.06797038541663,
            "velocity": 0.3937007874015748
          },
          {
            "duration": 0.21739100000002054,
            "durationTicks": 192,
            "midi": 91,
            "name": "G6",
            "ticks": 263254,
            "time": 298.06797038541663,
            "velocity": 0.3937007874015748
          },
          {
            "duration": 0.3260865000000308,
            "durationTicks": 288,
            "midi": 64,
            "name": "E4",
            "ticks": 263254,
            "time": 298.06797038541663,
            "velocity": 0.3937007874015748
          },
          {
            "duration": 0.21739100000002054,
            "durationTicks": 192,
            "midi": 90,
            "name": "F#6",
            "ticks": 263446,
            "time": 298.28536138541665,
            "velocity": 0.3937007874015748
          },
          {
            "duration": 0.21739100000002054,
            "durationTicks": 192,
            "midi": 78,
            "name": "F#5",
            "ticks": 263446,
            "time": 298.28536138541665,
            "velocity": 0.3937007874015748
          },
          {
            "duration": 0.21739100000002054,
            "durationTicks": 192,
            "midi": 81,
            "name": "A5",
            "ticks": 263446,
            "time": 298.28536138541665,
            "velocity": 0.3937007874015748
          },
          {
            "duration": 0.21739100000002054,
            "durationTicks": 192,
            "midi": 66,
            "name": "F#4",
            "ticks": 263446,
            "time": 298.28536138541665,
            "velocity": 0.3937007874015748
          },
          {
            "duration": 0.21739100000002054,
            "durationTicks": 192,
            "midi": 69,
            "name": "A4",
            "ticks": 263446,
            "time": 298.28536138541665,
            "velocity": 0.3937007874015748
          },
          {
            "duration": 0.21739100000002054,
            "durationTicks": 192,
            "midi": 93,
            "name": "A6",
            "ticks": 263446,
            "time": 298.28536138541665,
            "velocity": 0.3937007874015748
          },
          {
            "duration": 0.32608649999997397,
            "durationTicks": 288,
            "midi": 55,
            "name": "G3",
            "ticks": 263542,
            "time": 298.39405688541666,
            "velocity": 0.3937007874015748
          },
          {
            "duration": 0.32608649999997397,
            "durationTicks": 288,
            "midi": 64,
            "name": "E4",
            "ticks": 263542,
            "time": 298.39405688541666,
            "velocity": 0.3937007874015748
          },
          {
            "duration": 0.32608649999997397,
            "durationTicks": 288,
            "midi": 59,
            "name": "B3",
            "ticks": 263542,
            "time": 298.39405688541666,
            "velocity": 0.3937007874015748
          },
          {
            "duration": 0.2173909999999637,
            "durationTicks": 192,
            "midi": 79,
            "name": "G5",
            "ticks": 263638,
            "time": 298.50275238541667,
            "velocity": 0.3937007874015748
          },
          {
            "duration": 0.2173909999999637,
            "durationTicks": 192,
            "midi": 91,
            "name": "G6",
            "ticks": 263638,
            "time": 298.50275238541667,
            "velocity": 0.3937007874015748
          },
          {
            "duration": 0.2173909999999637,
            "durationTicks": 192,
            "midi": 67,
            "name": "G4",
            "ticks": 263638,
            "time": 298.50275238541667,
            "velocity": 0.3937007874015748
          },
          {
            "duration": 0.2173909999999637,
            "durationTicks": 192,
            "midi": 95,
            "name": "B6",
            "ticks": 263638,
            "time": 298.50275238541667,
            "velocity": 0.3937007874015748
          },
          {
            "duration": 0.2173909999999637,
            "durationTicks": 192,
            "midi": 83,
            "name": "B5",
            "ticks": 263638,
            "time": 298.50275238541667,
            "velocity": 0.3937007874015748
          },
          {
            "duration": 0.2173909999999637,
            "durationTicks": 192,
            "midi": 71,
            "name": "B4",
            "ticks": 263638,
            "time": 298.50275238541667,
            "velocity": 0.3937007874015748
          },
          {
            "duration": 0.21739100000002054,
            "durationTicks": 192,
            "midi": 59,
            "name": "B3",
            "ticks": 263830,
            "time": 298.72014338541663,
            "velocity": 0.3937007874015748
          },
          {
            "duration": 0.21739100000002054,
            "durationTicks": 192,
            "midi": 64,
            "name": "E4",
            "ticks": 263830,
            "time": 298.72014338541663,
            "velocity": 0.3937007874015748
          },
          {
            "duration": 0.21739100000002054,
            "durationTicks": 192,
            "midi": 59,
            "name": "B3",
            "ticks": 263830,
            "time": 298.72014338541663,
            "velocity": 0.3937007874015748
          },
          {
            "duration": 0.21739100000002054,
            "durationTicks": 192,
            "midi": 64,
            "name": "E4",
            "ticks": 263830,
            "time": 298.72014338541663,
            "velocity": 0.3937007874015748
          },
          {
            "duration": 0.21739100000002054,
            "durationTicks": 192,
            "midi": 76,
            "name": "E5",
            "ticks": 263830,
            "time": 298.72014338541663,
            "velocity": 0.3937007874015748
          },
          {
            "duration": 0.21739100000002054,
            "durationTicks": 192,
            "midi": 71,
            "name": "B4",
            "ticks": 263830,
            "time": 298.72014338541663,
            "velocity": 0.3937007874015748
          },
          {
            "duration": 0.21739100000002054,
            "durationTicks": 192,
            "midi": 55,
            "name": "G3",
            "ticks": 263830,
            "time": 298.72014338541663,
            "velocity": 0.3937007874015748
          },
          {
            "duration": 0.21739100000002054,
            "durationTicks": 192,
            "midi": 88,
            "name": "E6",
            "ticks": 263830,
            "time": 298.72014338541663,
            "velocity": 0.3937007874015748
          },
          {
            "duration": 0.21739100000002054,
            "durationTicks": 192,
            "midi": 83,
            "name": "B5",
            "ticks": 263830,
            "time": 298.72014338541663,
            "velocity": 0.3937007874015748
          },
          {
            "duration": 0.32608649999997397,
            "durationTicks": 288,
            "midi": 55,
            "name": "G3",
            "ticks": 264022,
            "time": 298.93753438541665,
            "velocity": 0.3937007874015748
          },
          {
            "duration": 0.32608649999997397,
            "durationTicks": 288,
            "midi": 59,
            "name": "B3",
            "ticks": 264022,
            "time": 298.93753438541665,
            "velocity": 0.3937007874015748
          },
          {
            "duration": 0.32608649999997397,
            "durationTicks": 288,
            "midi": 64,
            "name": "E4",
            "ticks": 264022,
            "time": 298.93753438541665,
            "velocity": 0.3937007874015748
          },
          {
            "duration": 0.2173909999999637,
            "durationTicks": 192,
            "midi": 67,
            "name": "G4",
            "ticks": 264214,
            "time": 299.1549253854167,
            "velocity": 0.3937007874015748
          },
          {
            "duration": 0.2173909999999637,
            "durationTicks": 192,
            "midi": 95,
            "name": "B6",
            "ticks": 264214,
            "time": 299.1549253854167,
            "velocity": 0.3937007874015748
          },
          {
            "duration": 0.2173909999999637,
            "durationTicks": 192,
            "midi": 79,
            "name": "G5",
            "ticks": 264214,
            "time": 299.1549253854167,
            "velocity": 0.3937007874015748
          },
          {
            "duration": 0.2173909999999637,
            "durationTicks": 192,
            "midi": 71,
            "name": "B4",
            "ticks": 264214,
            "time": 299.1549253854167,
            "velocity": 0.3937007874015748
          },
          {
            "duration": 0.2173909999999637,
            "durationTicks": 192,
            "midi": 83,
            "name": "B5",
            "ticks": 264214,
            "time": 299.1549253854167,
            "velocity": 0.3937007874015748
          },
          {
            "duration": 0.2173909999999637,
            "durationTicks": 192,
            "midi": 91,
            "name": "G6",
            "ticks": 264214,
            "time": 299.1549253854167,
            "velocity": 0.3937007874015748
          },
          {
            "duration": 0.3260865000000308,
            "durationTicks": 288,
            "midi": 64,
            "name": "E4",
            "ticks": 264310,
            "time": 299.26362088541663,
            "velocity": 0.3937007874015748
          },
          {
            "duration": 0.3260865000000308,
            "durationTicks": 288,
            "midi": 55,
            "name": "G3",
            "ticks": 264310,
            "time": 299.26362088541663,
            "velocity": 0.3937007874015748
          },
          {
            "duration": 0.3260865000000308,
            "durationTicks": 288,
            "midi": 59,
            "name": "B3",
            "ticks": 264310,
            "time": 299.26362088541663,
            "velocity": 0.3937007874015748
          },
          {
            "duration": 0.21739100000002054,
            "durationTicks": 192,
            "midi": 81,
            "name": "A5",
            "ticks": 264406,
            "time": 299.37231638541664,
            "velocity": 0.3937007874015748
          },
          {
            "duration": 0.21739100000002054,
            "durationTicks": 192,
            "midi": 74,
            "name": "D5",
            "ticks": 264406,
            "time": 299.37231638541664,
            "velocity": 0.3937007874015748
          },
          {
            "duration": 0.21739100000002054,
            "durationTicks": 192,
            "midi": 86,
            "name": "D6",
            "ticks": 264406,
            "time": 299.37231638541664,
            "velocity": 0.3937007874015748
          },
          {
            "duration": 0.21739100000002054,
            "durationTicks": 192,
            "midi": 69,
            "name": "A4",
            "ticks": 264406,
            "time": 299.37231638541664,
            "velocity": 0.3937007874015748
          },
          {
            "duration": 0.21739100000002054,
            "durationTicks": 192,
            "midi": 93,
            "name": "A6",
            "ticks": 264406,
            "time": 299.37231638541664,
            "velocity": 0.3937007874015748
          },
          {
            "duration": 0.21739100000002054,
            "durationTicks": 192,
            "midi": 86,
            "name": "D6",
            "ticks": 264406,
            "time": 299.37231638541664,
            "velocity": 0.3937007874015748
          },
          {
            "duration": 0.5978252499999712,
            "durationTicks": 528,
            "midi": 88,
            "name": "E6",
            "ticks": 264454,
            "time": 299.4266641354167,
            "velocity": 0.3937007874015748
          },
          {
            "duration": 0.16304324999998698,
            "durationTicks": 144,
            "midi": 55,
            "name": "G3",
            "ticks": 264598,
            "time": 299.58970738541666,
            "velocity": 0.3937007874015748
          },
          {
            "duration": 0.10869550000001027,
            "durationTicks": 96,
            "midi": 64,
            "name": "E4",
            "ticks": 264598,
            "time": 299.58970738541666,
            "velocity": 0.3937007874015748
          },
          {
            "duration": 0.10869550000001027,
            "durationTicks": 96,
            "midi": 76,
            "name": "E5",
            "ticks": 264598,
            "time": 299.58970738541666,
            "velocity": 0.3937007874015748
          },
          {
            "duration": 0.21739100000002054,
            "durationTicks": 192,
            "midi": 86,
            "name": "D6",
            "ticks": 264598,
            "time": 299.58970738541666,
            "velocity": 0.3937007874015748
          },
          {
            "duration": 0.21739100000002054,
            "durationTicks": 192,
            "midi": 74,
            "name": "D5",
            "ticks": 264598,
            "time": 299.58970738541666,
            "velocity": 0.3937007874015748
          },
          {
            "duration": 0.21739100000002054,
            "durationTicks": 192,
            "midi": 69,
            "name": "A4",
            "ticks": 264598,
            "time": 299.58970738541666,
            "velocity": 0.3937007874015748
          },
          {
            "duration": 0.10869550000001027,
            "durationTicks": 96,
            "midi": 52,
            "name": "E3",
            "ticks": 264598,
            "time": 299.58970738541666,
            "velocity": 0.3937007874015748
          },
          {
            "duration": 0.21739100000002054,
            "durationTicks": 192,
            "midi": 93,
            "name": "A6",
            "ticks": 264598,
            "time": 299.58970738541666,
            "velocity": 0.3937007874015748
          },
          {
            "duration": 0.21739100000002054,
            "durationTicks": 192,
            "midi": 60,
            "name": "C4",
            "ticks": 264598,
            "time": 299.58970738541666,
            "velocity": 0.3937007874015748
          },
          {
            "duration": 0.21739100000002054,
            "durationTicks": 192,
            "midi": 86,
            "name": "D6",
            "ticks": 264598,
            "time": 299.58970738541666,
            "velocity": 0.3937007874015748
          },
          {
            "duration": 0.21739100000002054,
            "durationTicks": 192,
            "midi": 52,
            "name": "E3",
            "ticks": 264598,
            "time": 299.58970738541666,
            "velocity": 0.3937007874015748
          },
          {
            "duration": 0.21739100000002054,
            "durationTicks": 192,
            "midi": 81,
            "name": "A5",
            "ticks": 264598,
            "time": 299.58970738541666,
            "velocity": 0.3937007874015748
          },
          {
            "duration": 0.10869550000001027,
            "durationTicks": 96,
            "midi": 40,
            "name": "E2",
            "ticks": 264598,
            "time": 299.58970738541666,
            "velocity": 0.3937007874015748
          },
          {
            "duration": 0.10869550000001027,
            "durationTicks": 96,
            "midi": 43,
            "name": "G2",
            "ticks": 264646,
            "time": 299.64405513541664,
            "velocity": 0.3937007874015748
          },
          {
            "duration": 0.10869550000001027,
            "durationTicks": 96,
            "midi": 67,
            "name": "G4",
            "ticks": 264646,
            "time": 299.64405513541664,
            "velocity": 0.3937007874015748
          },
          {
            "duration": 0.16304325000004383,
            "durationTicks": 144,
            "midi": 55,
            "name": "G3",
            "ticks": 264646,
            "time": 299.64405513541664,
            "velocity": 0.3937007874015748
          },
          {
            "duration": 0.10869550000001027,
            "durationTicks": 96,
            "midi": 79,
            "name": "G5",
            "ticks": 264646,
            "time": 299.64405513541664,
            "velocity": 0.3937007874015748
          },
          {
            "duration": 0.10869550000001027,
            "durationTicks": 96,
            "midi": 72,
            "name": "C5",
            "ticks": 264694,
            "time": 299.69840288541667,
            "velocity": 0.3937007874015748
          },
          {
            "duration": 0.10869550000001027,
            "durationTicks": 96,
            "midi": 48,
            "name": "C3",
            "ticks": 264694,
            "time": 299.69840288541667,
            "velocity": 0.3937007874015748
          },
          {
            "duration": 0.10869550000001027,
            "durationTicks": 96,
            "midi": 60,
            "name": "C4",
            "ticks": 264694,
            "time": 299.69840288541667,
            "velocity": 0.3937007874015748
          },
          {
            "duration": 0.10869550000001027,
            "durationTicks": 96,
            "midi": 84,
            "name": "C6",
            "ticks": 264694,
            "time": 299.69840288541667,
            "velocity": 0.3937007874015748
          },
          {
            "duration": 0.10869550000001027,
            "durationTicks": 96,
            "midi": 67,
            "name": "G4",
            "ticks": 264742,
            "time": 299.75275063541665,
            "velocity": 0.3937007874015748
          },
          {
            "duration": 0.10869550000001027,
            "durationTicks": 96,
            "midi": 43,
            "name": "G2",
            "ticks": 264742,
            "time": 299.75275063541665,
            "velocity": 0.3937007874015748
          },
          {
            "duration": 0.10869550000001027,
            "durationTicks": 96,
            "midi": 79,
            "name": "G5",
            "ticks": 264742,
            "time": 299.75275063541665,
            "velocity": 0.3937007874015748
          },
          {
            "duration": 0.10869550000001027,
            "durationTicks": 96,
            "midi": 55,
            "name": "G3",
            "ticks": 264742,
            "time": 299.75275063541665,
            "velocity": 0.3937007874015748
          },
          {
            "duration": 0.10869549999995343,
            "durationTicks": 96,
            "midi": 40,
            "name": "E2",
            "ticks": 264790,
            "time": 299.8070983854167,
            "velocity": 0.3937007874015748
          },
          {
            "duration": 0.2173909999999637,
            "durationTicks": 192,
            "midi": 83,
            "name": "B5",
            "ticks": 264790,
            "time": 299.8070983854167,
            "velocity": 0.3937007874015748
          },
          {
            "duration": 0.2173909999999637,
            "durationTicks": 192,
            "midi": 71,
            "name": "B4",
            "ticks": 264790,
            "time": 299.8070983854167,
            "velocity": 0.3937007874015748
          },
          {
            "duration": 0.2173909999999637,
            "durationTicks": 192,
            "midi": 95,
            "name": "B6",
            "ticks": 264790,
            "time": 299.8070983854167,
            "velocity": 0.3937007874015748
          },
          {
            "duration": 0.10869549999995343,
            "durationTicks": 96,
            "midi": 76,
            "name": "E5",
            "ticks": 264790,
            "time": 299.8070983854167,
            "velocity": 0.3937007874015748
          },
          {
            "duration": 0.10869549999995343,
            "durationTicks": 96,
            "midi": 52,
            "name": "E3",
            "ticks": 264790,
            "time": 299.8070983854167,
            "velocity": 0.3937007874015748
          },
          {
            "duration": 0.2173909999999637,
            "durationTicks": 192,
            "midi": 76,
            "name": "E5",
            "ticks": 264790,
            "time": 299.8070983854167,
            "velocity": 0.3937007874015748
          },
          {
            "duration": 0.10869549999995343,
            "durationTicks": 96,
            "midi": 64,
            "name": "E4",
            "ticks": 264790,
            "time": 299.8070983854167,
            "velocity": 0.3937007874015748
          },
          {
            "duration": 0.2173909999999637,
            "durationTicks": 192,
            "midi": 60,
            "name": "C4",
            "ticks": 264790,
            "time": 299.8070983854167,
            "velocity": 0.3937007874015748
          },
          {
            "duration": 0.32608649999997397,
            "durationTicks": 288,
            "midi": 52,
            "name": "E3",
            "ticks": 264790,
            "time": 299.8070983854167,
            "velocity": 0.3937007874015748
          },
          {
            "duration": 0.16304324999998698,
            "durationTicks": 144,
            "midi": 55,
            "name": "G3",
            "ticks": 264790,
            "time": 299.8070983854167,
            "velocity": 0.3937007874015748
          },
          {
            "duration": 0.2173909999999637,
            "durationTicks": 192,
            "midi": 88,
            "name": "E6",
            "ticks": 264790,
            "time": 299.8070983854167,
            "velocity": 0.3937007874015748
          },
          {
            "duration": 0.27173874999999725,
            "durationTicks": 240,
            "midi": 88,
            "name": "E6",
            "ticks": 264790,
            "time": 299.8070983854167,
            "velocity": 0.3937007874015748
          },
          {
            "duration": 0.10869550000001027,
            "durationTicks": 96,
            "midi": 79,
            "name": "G5",
            "ticks": 264838,
            "time": 299.86144613541666,
            "velocity": 0.3937007874015748
          },
          {
            "duration": 0.21739100000002054,
            "durationTicks": 192,
            "midi": 55,
            "name": "G3",
            "ticks": 264838,
            "time": 299.86144613541666,
            "velocity": 0.3937007874015748
          },
          {
            "duration": 0.10869550000001027,
            "durationTicks": 96,
            "midi": 43,
            "name": "G2",
            "ticks": 264838,
            "time": 299.86144613541666,
            "velocity": 0.3937007874015748
          },
          {
            "duration": 0.10869550000001027,
            "durationTicks": 96,
            "midi": 67,
            "name": "G4",
            "ticks": 264838,
            "time": 299.86144613541666,
            "velocity": 0.3937007874015748
          },
          {
            "duration": 0.21739100000002054,
            "durationTicks": 192,
            "midi": 60,
            "name": "C4",
            "ticks": 264886,
            "time": 299.91579388541663,
            "velocity": 0.3937007874015748
          },
          {
            "duration": 0.10869550000001027,
            "durationTicks": 96,
            "midi": 48,
            "name": "C3",
            "ticks": 264886,
            "time": 299.91579388541663,
            "velocity": 0.3937007874015748
          },
          {
            "duration": 0.10869550000001027,
            "durationTicks": 96,
            "midi": 84,
            "name": "C6",
            "ticks": 264886,
            "time": 299.91579388541663,
            "velocity": 0.3937007874015748
          },
          {
            "duration": 0.10869550000001027,
            "durationTicks": 96,
            "midi": 72,
            "name": "C5",
            "ticks": 264886,
            "time": 299.91579388541663,
            "velocity": 0.3937007874015748
          },
          {
            "duration": 0.16304324999998698,
            "durationTicks": 144,
            "midi": 55,
            "name": "G3",
            "ticks": 264934,
            "time": 299.97014163541667,
            "velocity": 0.3937007874015748
          },
          {
            "duration": 0.10869550000001027,
            "durationTicks": 96,
            "midi": 43,
            "name": "G2",
            "ticks": 264934,
            "time": 299.97014163541667,
            "velocity": 0.3937007874015748
          },
          {
            "duration": 0.10869550000001027,
            "durationTicks": 96,
            "midi": 67,
            "name": "G4",
            "ticks": 264934,
            "time": 299.97014163541667,
            "velocity": 0.3937007874015748
          },
          {
            "duration": 0.10869550000001027,
            "durationTicks": 96,
            "midi": 79,
            "name": "G5",
            "ticks": 264934,
            "time": 299.97014163541667,
            "velocity": 0.3937007874015748
          },
          {
            "duration": 0.21739100000002054,
            "durationTicks": 192,
            "midi": 91,
            "name": "G6",
            "ticks": 264982,
            "time": 300.02448938541664,
            "velocity": 0.3937007874015748
          },
          {
            "duration": 0.21739100000002054,
            "durationTicks": 192,
            "midi": 95,
            "name": "B6",
            "ticks": 264982,
            "time": 300.02448938541664,
            "velocity": 0.3937007874015748
          },
          {
            "duration": 0.10869550000001027,
            "durationTicks": 96,
            "midi": 52,
            "name": "E3",
            "ticks": 264982,
            "time": 300.02448938541664,
            "velocity": 0.3937007874015748
          },
          {
            "duration": 0.16304324999998698,
            "durationTicks": 144,
            "midi": 79,
            "name": "G5",
            "ticks": 264982,
            "time": 300.02448938541664,
            "velocity": 0.3937007874015748
          },
          {
            "duration": 0.10869550000001027,
            "durationTicks": 96,
            "midi": 40,
            "name": "E2",
            "ticks": 264982,
            "time": 300.02448938541664,
            "velocity": 0.3937007874015748
          },
          {
            "duration": 0.21739100000002054,
            "durationTicks": 192,
            "midi": 71,
            "name": "B4",
            "ticks": 264982,
            "time": 300.02448938541664,
            "velocity": 0.3937007874015748
          },
          {
            "duration": 0.16304324999998698,
            "durationTicks": 144,
            "midi": 67,
            "name": "G4",
            "ticks": 264982,
            "time": 300.02448938541664,
            "velocity": 0.3937007874015748
          },
          {
            "duration": 0.21739100000002054,
            "durationTicks": 192,
            "midi": 83,
            "name": "B5",
            "ticks": 264982,
            "time": 300.02448938541664,
            "velocity": 0.3937007874015748
          },
          {
            "duration": 0.10869550000001027,
            "durationTicks": 96,
            "midi": 76,
            "name": "E5",
            "ticks": 264982,
            "time": 300.02448938541664,
            "velocity": 0.3937007874015748
          },
          {
            "duration": 0.10869550000001027,
            "durationTicks": 96,
            "midi": 64,
            "name": "E4",
            "ticks": 264982,
            "time": 300.02448938541664,
            "velocity": 0.3937007874015748
          },
          {
            "duration": 0.10869549999995343,
            "durationTicks": 96,
            "midi": 55,
            "name": "G3",
            "ticks": 265030,
            "time": 300.0788371354167,
            "velocity": 0.3937007874015748
          },
          {
            "duration": 0.16304324999998698,
            "durationTicks": 144,
            "midi": 67,
            "name": "G4",
            "ticks": 265030,
            "time": 300.0788371354167,
            "velocity": 0.3937007874015748
          },
          {
            "duration": 0.10869549999995343,
            "durationTicks": 96,
            "midi": 43,
            "name": "G2",
            "ticks": 265030,
            "time": 300.0788371354167,
            "velocity": 0.3937007874015748
          },
          {
            "duration": 0.16304324999998698,
            "durationTicks": 144,
            "midi": 79,
            "name": "G5",
            "ticks": 265030,
            "time": 300.0788371354167,
            "velocity": 0.3937007874015748
          },
          {
            "duration": 0.21739100000002054,
            "durationTicks": 192,
            "midi": 52,
            "name": "E3",
            "ticks": 265078,
            "time": 300.13318488541665,
            "velocity": 0.3937007874015748
          },
          {
            "duration": 0.10869550000001027,
            "durationTicks": 96,
            "midi": 84,
            "name": "C6",
            "ticks": 265078,
            "time": 300.13318488541665,
            "velocity": 0.3937007874015748
          },
          {
            "duration": 0.10869550000001027,
            "durationTicks": 96,
            "midi": 72,
            "name": "C5",
            "ticks": 265078,
            "time": 300.13318488541665,
            "velocity": 0.3937007874015748
          },
          {
            "duration": 0.16304324999998698,
            "durationTicks": 144,
            "midi": 55,
            "name": "G3",
            "ticks": 265078,
            "time": 300.13318488541665,
            "velocity": 0.3937007874015748
          },
          {
            "duration": 0.10869550000001027,
            "durationTicks": 96,
            "midi": 48,
            "name": "C3",
            "ticks": 265078,
            "time": 300.13318488541665,
            "velocity": 0.3937007874015748
          },
          {
            "duration": 0.10869550000001027,
            "durationTicks": 96,
            "midi": 60,
            "name": "C4",
            "ticks": 265078,
            "time": 300.13318488541665,
            "velocity": 0.3937007874015748
          },
          {
            "duration": 0.32608649999997397,
            "durationTicks": 288,
            "midi": 60,
            "name": "C4",
            "ticks": 265078,
            "time": 300.13318488541665,
            "velocity": 0.3937007874015748
          },
          {
            "duration": 0.10869550000001027,
            "durationTicks": 96,
            "midi": 79,
            "name": "G5",
            "ticks": 265126,
            "time": 300.18753263541663,
            "velocity": 0.3937007874015748
          },
          {
            "duration": 0.21739100000002054,
            "durationTicks": 192,
            "midi": 55,
            "name": "G3",
            "ticks": 265126,
            "time": 300.18753263541663,
            "velocity": 0.3937007874015748
          },
          {
            "duration": 0.10869550000001027,
            "durationTicks": 96,
            "midi": 43,
            "name": "G2",
            "ticks": 265126,
            "time": 300.18753263541663,
            "velocity": 0.3937007874015748
          },
          {
            "duration": 0.10869550000001027,
            "durationTicks": 96,
            "midi": 67,
            "name": "G4",
            "ticks": 265126,
            "time": 300.18753263541663,
            "velocity": 0.3937007874015748
          },
          {
            "duration": 0.2173909999999637,
            "durationTicks": 192,
            "midi": 81,
            "name": "A5",
            "ticks": 265174,
            "time": 300.24188038541666,
            "velocity": 0.3937007874015748
          },
          {
            "duration": 0.10869550000001027,
            "durationTicks": 96,
            "midi": 64,
            "name": "E4",
            "ticks": 265174,
            "time": 300.24188038541666,
            "velocity": 0.3937007874015748
          },
          {
            "duration": 0.2173909999999637,
            "durationTicks": 192,
            "midi": 66,
            "name": "F#4",
            "ticks": 265174,
            "time": 300.24188038541666,
            "velocity": 0.3937007874015748
          },
          {
            "duration": 0.10869550000001027,
            "durationTicks": 96,
            "midi": 76,
            "name": "E5",
            "ticks": 265174,
            "time": 300.24188038541666,
            "velocity": 0.3937007874015748
          },
          {
            "duration": 0.2173909999999637,
            "durationTicks": 192,
            "midi": 69,
            "name": "A4",
            "ticks": 265174,
            "time": 300.24188038541666,
            "velocity": 0.3937007874015748
          },
          {
            "duration": 0.2173909999999637,
            "durationTicks": 192,
            "midi": 52,
            "name": "E3",
            "ticks": 265174,
            "time": 300.24188038541666,
            "velocity": 0.3937007874015748
          },
          {
            "duration": 0.2173909999999637,
            "durationTicks": 192,
            "midi": 78,
            "name": "F#5",
            "ticks": 265174,
            "time": 300.24188038541666,
            "velocity": 0.3937007874015748
          },
          {
            "duration": 0.10869550000001027,
            "durationTicks": 96,
            "midi": 40,
            "name": "E2",
            "ticks": 265174,
            "time": 300.24188038541666,
            "velocity": 0.3937007874015748
          },
          {
            "duration": 0.2173909999999637,
            "durationTicks": 192,
            "midi": 93,
            "name": "A6",
            "ticks": 265174,
            "time": 300.24188038541666,
            "velocity": 0.3937007874015748
          },
          {
            "duration": 0.2173909999999637,
            "durationTicks": 192,
            "midi": 90,
            "name": "F#6",
            "ticks": 265174,
            "time": 300.24188038541666,
            "velocity": 0.3937007874015748
          },
          {
            "duration": 0.10869550000001027,
            "durationTicks": 96,
            "midi": 67,
            "name": "G4",
            "ticks": 265222,
            "time": 300.29622813541664,
            "velocity": 0.3937007874015748
          },
          {
            "duration": 0.16304324999998698,
            "durationTicks": 144,
            "midi": 55,
            "name": "G3",
            "ticks": 265222,
            "time": 300.29622813541664,
            "velocity": 0.3937007874015748
          },
          {
            "duration": 0.10869550000001027,
            "durationTicks": 96,
            "midi": 79,
            "name": "G5",
            "ticks": 265222,
            "time": 300.29622813541664,
            "velocity": 0.3937007874015748
          },
          {
            "duration": 0.10869550000001027,
            "durationTicks": 96,
            "midi": 43,
            "name": "G2",
            "ticks": 265222,
            "time": 300.29622813541664,
            "velocity": 0.3937007874015748
          },
          {
            "duration": 0.10869549999995343,
            "durationTicks": 96,
            "midi": 60,
            "name": "C4",
            "ticks": 265270,
            "time": 300.3505758854167,
            "velocity": 0.3937007874015748
          },
          {
            "duration": 0.10869549999995343,
            "durationTicks": 96,
            "midi": 72,
            "name": "C5",
            "ticks": 265270,
            "time": 300.3505758854167,
            "velocity": 0.3937007874015748
          },
          {
            "duration": 0.10869549999995343,
            "durationTicks": 96,
            "midi": 84,
            "name": "C6",
            "ticks": 265270,
            "time": 300.3505758854167,
            "velocity": 0.3937007874015748
          },
          {
            "duration": 0.10869549999995343,
            "durationTicks": 96,
            "midi": 48,
            "name": "C3",
            "ticks": 265270,
            "time": 300.3505758854167,
            "velocity": 0.3937007874015748
          },
          {
            "duration": 0.10869550000001027,
            "durationTicks": 96,
            "midi": 79,
            "name": "G5",
            "ticks": 265318,
            "time": 300.40492363541665,
            "velocity": 0.3937007874015748
          },
          {
            "duration": 0.10869550000001027,
            "durationTicks": 96,
            "midi": 67,
            "name": "G4",
            "ticks": 265318,
            "time": 300.40492363541665,
            "velocity": 0.3937007874015748
          },
          {
            "duration": 0.10869550000001027,
            "durationTicks": 96,
            "midi": 55,
            "name": "G3",
            "ticks": 265318,
            "time": 300.40492363541665,
            "velocity": 0.3937007874015748
          },
          {
            "duration": 0.10869550000001027,
            "durationTicks": 96,
            "midi": 43,
            "name": "G2",
            "ticks": 265318,
            "time": 300.40492363541665,
            "velocity": 0.3937007874015748
          },
          {
            "duration": 0.16304325000004383,
            "durationTicks": 144,
            "midi": 67,
            "name": "G4",
            "ticks": 265366,
            "time": 300.4592713854166,
            "velocity": 0.3937007874015748
          },
          {
            "duration": 0.10869550000001027,
            "durationTicks": 96,
            "midi": 40,
            "name": "E2",
            "ticks": 265366,
            "time": 300.4592713854166,
            "velocity": 0.3937007874015748
          },
          {
            "duration": 0.21739100000002054,
            "durationTicks": 192,
            "midi": 71,
            "name": "B4",
            "ticks": 265366,
            "time": 300.4592713854166,
            "velocity": 0.3937007874015748
          },
          {
            "duration": 0.10869550000001027,
            "durationTicks": 96,
            "midi": 64,
            "name": "E4",
            "ticks": 265366,
            "time": 300.4592713854166,
            "velocity": 0.3937007874015748
          },
          {
            "duration": 0.21739100000002054,
            "durationTicks": 192,
            "midi": 60,
            "name": "C4",
            "ticks": 265366,
            "time": 300.4592713854166,
            "velocity": 0.3937007874015748
          },
          {
            "duration": 0.10869550000001027,
            "durationTicks": 96,
            "midi": 76,
            "name": "E5",
            "ticks": 265366,
            "time": 300.4592713854166,
            "velocity": 0.3937007874015748
          },
          {
            "duration": 0.16304325000004383,
            "durationTicks": 144,
            "midi": 55,
            "name": "G3",
            "ticks": 265366,
            "time": 300.4592713854166,
            "velocity": 0.3937007874015748
          },
          {
            "duration": 0.10869550000001027,
            "durationTicks": 96,
            "midi": 52,
            "name": "E3",
            "ticks": 265366,
            "time": 300.4592713854166,
            "velocity": 0.3937007874015748
          },
          {
            "duration": 0.16304325000004383,
            "durationTicks": 144,
            "midi": 79,
            "name": "G5",
            "ticks": 265366,
            "time": 300.4592713854166,
            "velocity": 0.3937007874015748
          },
          {
            "duration": 0.21739100000002054,
            "durationTicks": 192,
            "midi": 91,
            "name": "G6",
            "ticks": 265366,
            "time": 300.4592713854166,
            "velocity": 0.3937007874015748
          },
          {
            "duration": 0.21739100000002054,
            "durationTicks": 192,
            "midi": 83,
            "name": "B5",
            "ticks": 265366,
            "time": 300.4592713854166,
            "velocity": 0.3937007874015748
          },
          {
            "duration": 0.21739100000002054,
            "durationTicks": 192,
            "midi": 95,
            "name": "B6",
            "ticks": 265366,
            "time": 300.4592713854166,
            "velocity": 0.3937007874015748
          },
          {
            "duration": 0.21739100000002054,
            "durationTicks": 192,
            "midi": 52,
            "name": "E3",
            "ticks": 265366,
            "time": 300.4592713854166,
            "velocity": 0.3937007874015748
          },
          {
            "duration": 0.10869550000001027,
            "durationTicks": 96,
            "midi": 43,
            "name": "G2",
            "ticks": 265414,
            "time": 300.51361913541666,
            "velocity": 0.3937007874015748
          },
          {
            "duration": 0.16304324999998698,
            "durationTicks": 144,
            "midi": 67,
            "name": "G4",
            "ticks": 265414,
            "time": 300.51361913541666,
            "velocity": 0.3937007874015748
          },
          {
            "duration": 0.16304324999998698,
            "durationTicks": 144,
            "midi": 79,
            "name": "G5",
            "ticks": 265414,
            "time": 300.51361913541666,
            "velocity": 0.3937007874015748
          },
          {
            "duration": 0.16304324999998698,
            "durationTicks": 144,
            "midi": 55,
            "name": "G3",
            "ticks": 265414,
            "time": 300.51361913541666,
            "velocity": 0.3937007874015748
          },
          {
            "duration": 0.10869550000001027,
            "durationTicks": 96,
            "midi": 48,
            "name": "C3",
            "ticks": 265462,
            "time": 300.56796688541664,
            "velocity": 0.3937007874015748
          },
          {
            "duration": 0.10869550000001027,
            "durationTicks": 96,
            "midi": 60,
            "name": "C4",
            "ticks": 265462,
            "time": 300.56796688541664,
            "velocity": 0.3937007874015748
          },
          {
            "duration": 0.10869550000001027,
            "durationTicks": 96,
            "midi": 72,
            "name": "C5",
            "ticks": 265462,
            "time": 300.56796688541664,
            "velocity": 0.3937007874015748
          },
          {
            "duration": 0.10869550000001027,
            "durationTicks": 96,
            "midi": 84,
            "name": "C6",
            "ticks": 265462,
            "time": 300.56796688541664,
            "velocity": 0.3937007874015748
          },
          {
            "duration": 0.10869549999995343,
            "durationTicks": 96,
            "midi": 67,
            "name": "G4",
            "ticks": 265510,
            "time": 300.62231463541667,
            "velocity": 0.3937007874015748
          },
          {
            "duration": 0.10869549999995343,
            "durationTicks": 96,
            "midi": 79,
            "name": "G5",
            "ticks": 265510,
            "time": 300.62231463541667,
            "velocity": 0.3937007874015748
          },
          {
            "duration": 0.10869549999995343,
            "durationTicks": 96,
            "midi": 43,
            "name": "G2",
            "ticks": 265510,
            "time": 300.62231463541667,
            "velocity": 0.3937007874015748
          },
          {
            "duration": 0.10869549999995343,
            "durationTicks": 96,
            "midi": 55,
            "name": "G3",
            "ticks": 265510,
            "time": 300.62231463541667,
            "velocity": 0.3937007874015748
          },
          {
            "duration": 0.10869550000001027,
            "durationTicks": 96,
            "midi": 64,
            "name": "E4",
            "ticks": 265558,
            "time": 300.67666238541665,
            "velocity": 0.3937007874015748
          },
          {
            "duration": 0.10869550000001027,
            "durationTicks": 96,
            "midi": 52,
            "name": "E3",
            "ticks": 265558,
            "time": 300.67666238541665,
            "velocity": 0.3937007874015748
          },
          {
            "duration": 0.21739100000002054,
            "durationTicks": 192,
            "midi": 60,
            "name": "C4",
            "ticks": 265558,
            "time": 300.67666238541665,
            "velocity": 0.3937007874015748
          },
          {
            "duration": 0.3260865000000308,
            "durationTicks": 288,
            "midi": 52,
            "name": "E3",
            "ticks": 265558,
            "time": 300.67666238541665,
            "velocity": 0.3937007874015748
          },
          {
            "duration": 0.10869550000001027,
            "durationTicks": 96,
            "midi": 40,
            "name": "E2",
            "ticks": 265558,
            "time": 300.67666238541665,
            "velocity": 0.3937007874015748
          },
          {
            "duration": 0.10869550000001027,
            "durationTicks": 96,
            "midi": 76,
            "name": "E5",
            "ticks": 265558,
            "time": 300.67666238541665,
            "velocity": 0.3937007874015748
          },
          {
            "duration": 0.16304324999998698,
            "durationTicks": 144,
            "midi": 55,
            "name": "G3",
            "ticks": 265558,
            "time": 300.67666238541665,
            "velocity": 0.3937007874015748
          },
          {
            "duration": 0.10869550000001027,
            "durationTicks": 96,
            "midi": 79,
            "name": "G5",
            "ticks": 265606,
            "time": 300.7310101354166,
            "velocity": 0.3937007874015748
          },
          {
            "duration": 0.10869550000001027,
            "durationTicks": 96,
            "midi": 67,
            "name": "G4",
            "ticks": 265606,
            "time": 300.7310101354166,
            "velocity": 0.3937007874015748
          },
          {
            "duration": 0.10869550000001027,
            "durationTicks": 96,
            "midi": 43,
            "name": "G2",
            "ticks": 265606,
            "time": 300.7310101354166,
            "velocity": 0.3937007874015748
          },
          {
            "duration": 0.21739100000002054,
            "durationTicks": 192,
            "midi": 55,
            "name": "G3",
            "ticks": 265606,
            "time": 300.7310101354166,
            "velocity": 0.3937007874015748
          },
          {
            "duration": 0.21739100000002054,
            "durationTicks": 192,
            "midi": 60,
            "name": "C4",
            "ticks": 265654,
            "time": 300.78535788541666,
            "velocity": 0.3937007874015748
          },
          {
            "duration": 0.10869550000001027,
            "durationTicks": 96,
            "midi": 72,
            "name": "C5",
            "ticks": 265654,
            "time": 300.78535788541666,
            "velocity": 0.3937007874015748
          },
          {
            "duration": 0.10869550000001027,
            "durationTicks": 96,
            "midi": 48,
            "name": "C3",
            "ticks": 265654,
            "time": 300.78535788541666,
            "velocity": 0.3937007874015748
          },
          {
            "duration": 0.10869550000001027,
            "durationTicks": 96,
            "midi": 84,
            "name": "C6",
            "ticks": 265654,
            "time": 300.78535788541666,
            "velocity": 0.3937007874015748
          },
          {
            "duration": 0.10869550000001027,
            "durationTicks": 96,
            "midi": 43,
            "name": "G2",
            "ticks": 265702,
            "time": 300.83970563541664,
            "velocity": 0.3937007874015748
          },
          {
            "duration": 0.16304325000004383,
            "durationTicks": 144,
            "midi": 55,
            "name": "G3",
            "ticks": 265702,
            "time": 300.83970563541664,
            "velocity": 0.3937007874015748
          },
          {
            "duration": 0.10869550000001027,
            "durationTicks": 96,
            "midi": 79,
            "name": "G5",
            "ticks": 265702,
            "time": 300.83970563541664,
            "velocity": 0.3937007874015748
          },
          {
            "duration": 0.10869550000001027,
            "durationTicks": 96,
            "midi": 67,
            "name": "G4",
            "ticks": 265702,
            "time": 300.83970563541664,
            "velocity": 0.3937007874015748
          },
          {
            "duration": 0.10869550000001027,
            "durationTicks": 96,
            "midi": 64,
            "name": "E4",
            "ticks": 265750,
            "time": 300.89405338541667,
            "velocity": 0.3937007874015748
          },
          {
            "duration": 0.2173909999999637,
            "durationTicks": 192,
            "midi": 78,
            "name": "F#5",
            "ticks": 265750,
            "time": 300.89405338541667,
            "velocity": 0.3937007874015748
          },
          {
            "duration": 0.2173909999999637,
            "durationTicks": 192,
            "midi": 66,
            "name": "F#4",
            "ticks": 265750,
            "time": 300.89405338541667,
            "velocity": 0.3937007874015748
          },
          {
            "duration": 0.2173909999999637,
            "durationTicks": 192,
            "midi": 93,
            "name": "A6",
            "ticks": 265750,
            "time": 300.89405338541667,
            "velocity": 0.3937007874015748
          },
          {
            "duration": 0.2173909999999637,
            "durationTicks": 192,
            "midi": 90,
            "name": "F#6",
            "ticks": 265750,
            "time": 300.89405338541667,
            "velocity": 0.3937007874015748
          },
          {
            "duration": 0.2173909999999637,
            "durationTicks": 192,
            "midi": 69,
            "name": "A4",
            "ticks": 265750,
            "time": 300.89405338541667,
            "velocity": 0.3937007874015748
          },
          {
            "duration": 0.10869550000001027,
            "durationTicks": 96,
            "midi": 76,
            "name": "E5",
            "ticks": 265750,
            "time": 300.89405338541667,
            "velocity": 0.3937007874015748
          },
          {
            "duration": 0.10869550000001027,
            "durationTicks": 96,
            "midi": 52,
            "name": "E3",
            "ticks": 265750,
            "time": 300.89405338541667,
            "velocity": 0.3937007874015748
          },
          {
            "duration": 0.2173909999999637,
            "durationTicks": 192,
            "midi": 81,
            "name": "A5",
            "ticks": 265750,
            "time": 300.89405338541667,
            "velocity": 0.3937007874015748
          },
          {
            "duration": 0.10869550000001027,
            "durationTicks": 96,
            "midi": 40,
            "name": "E2",
            "ticks": 265750,
            "time": 300.89405338541667,
            "velocity": 0.3937007874015748
          },
          {
            "duration": 0.10869550000001027,
            "durationTicks": 96,
            "midi": 55,
            "name": "G3",
            "ticks": 265798,
            "time": 300.94840113541665,
            "velocity": 0.3937007874015748
          },
          {
            "duration": 0.10869550000001027,
            "durationTicks": 96,
            "midi": 67,
            "name": "G4",
            "ticks": 265798,
            "time": 300.94840113541665,
            "velocity": 0.3937007874015748
          },
          {
            "duration": 0.10869550000001027,
            "durationTicks": 96,
            "midi": 43,
            "name": "G2",
            "ticks": 265798,
            "time": 300.94840113541665,
            "velocity": 0.3937007874015748
          },
          {
            "duration": 0.10869550000001027,
            "durationTicks": 96,
            "midi": 79,
            "name": "G5",
            "ticks": 265798,
            "time": 300.94840113541665,
            "velocity": 0.3937007874015748
          },
          {
            "duration": 0.2173909999999637,
            "durationTicks": 192,
            "midi": 52,
            "name": "E3",
            "ticks": 265846,
            "time": 301.0027488854167,
            "velocity": 0.3937007874015748
          },
          {
            "duration": 0.10869549999995343,
            "durationTicks": 96,
            "midi": 84,
            "name": "C6",
            "ticks": 265846,
            "time": 301.0027488854167,
            "velocity": 0.3937007874015748
          },
          {
            "duration": 0.10869549999995343,
            "durationTicks": 96,
            "midi": 60,
            "name": "C4",
            "ticks": 265846,
            "time": 301.0027488854167,
            "velocity": 0.3937007874015748
          },
          {
            "duration": 0.10869549999995343,
            "durationTicks": 96,
            "midi": 48,
            "name": "C3",
            "ticks": 265846,
            "time": 301.0027488854167,
            "velocity": 0.3937007874015748
          },
          {
            "duration": 0.16304324999998698,
            "durationTicks": 144,
            "midi": 55,
            "name": "G3",
            "ticks": 265846,
            "time": 301.0027488854167,
            "velocity": 0.3937007874015748
          },
          {
            "duration": 0.10869549999995343,
            "durationTicks": 96,
            "midi": 72,
            "name": "C5",
            "ticks": 265846,
            "time": 301.0027488854167,
            "velocity": 0.3937007874015748
          },
          {
            "duration": 0.32608649999997397,
            "durationTicks": 288,
            "midi": 60,
            "name": "C4",
            "ticks": 265846,
            "time": 301.0027488854167,
            "velocity": 0.3937007874015748
          },
          {
            "duration": 0.10869550000001027,
            "durationTicks": 96,
            "midi": 43,
            "name": "G2",
            "ticks": 265894,
            "time": 301.05709663541666,
            "velocity": 0.3937007874015748
          },
          {
            "duration": 0.10869550000001027,
            "durationTicks": 96,
            "midi": 67,
            "name": "G4",
            "ticks": 265894,
            "time": 301.05709663541666,
            "velocity": 0.3937007874015748
          },
          {
            "duration": 0.10869550000001027,
            "durationTicks": 96,
            "midi": 79,
            "name": "G5",
            "ticks": 265894,
            "time": 301.05709663541666,
            "velocity": 0.3937007874015748
          },
          {
            "duration": 0.21739100000002054,
            "durationTicks": 192,
            "midi": 55,
            "name": "G3",
            "ticks": 265894,
            "time": 301.05709663541666,
            "velocity": 0.3937007874015748
          },
          {
            "duration": 0.21739100000002054,
            "durationTicks": 192,
            "midi": 91,
            "name": "G6",
            "ticks": 265942,
            "time": 301.11144438541663,
            "velocity": 0.3937007874015748
          },
          {
            "duration": 0.10869550000001027,
            "durationTicks": 96,
            "midi": 64,
            "name": "E4",
            "ticks": 265942,
            "time": 301.11144438541663,
            "velocity": 0.3937007874015748
          },
          {
            "duration": 0.21739100000002054,
            "durationTicks": 192,
            "midi": 95,
            "name": "B6",
            "ticks": 265942,
            "time": 301.11144438541663,
            "velocity": 0.3937007874015748
          },
          {
            "duration": 0.10869550000001027,
            "durationTicks": 96,
            "midi": 40,
            "name": "E2",
            "ticks": 265942,
            "time": 301.11144438541663,
            "velocity": 0.3937007874015748
          },
          {
            "duration": 0.16304325000004383,
            "durationTicks": 144,
            "midi": 79,
            "name": "G5",
            "ticks": 265942,
            "time": 301.11144438541663,
            "velocity": 0.3937007874015748
          },
          {
            "duration": 0.21739100000002054,
            "durationTicks": 192,
            "midi": 71,
            "name": "B4",
            "ticks": 265942,
            "time": 301.11144438541663,
            "velocity": 0.3937007874015748
          },
          {
            "duration": 0.21739100000002054,
            "durationTicks": 192,
            "midi": 83,
            "name": "B5",
            "ticks": 265942,
            "time": 301.11144438541663,
            "velocity": 0.3937007874015748
          },
          {
            "duration": 0.10869550000001027,
            "durationTicks": 96,
            "midi": 76,
            "name": "E5",
            "ticks": 265942,
            "time": 301.11144438541663,
            "velocity": 0.3937007874015748
          },
          {
            "duration": 0.16304325000004383,
            "durationTicks": 144,
            "midi": 67,
            "name": "G4",
            "ticks": 265942,
            "time": 301.11144438541663,
            "velocity": 0.3937007874015748
          },
          {
            "duration": 0.21739100000002054,
            "durationTicks": 192,
            "midi": 52,
            "name": "E3",
            "ticks": 265942,
            "time": 301.11144438541663,
            "velocity": 0.3937007874015748
          },
          {
            "duration": 0.16304324999998698,
            "durationTicks": 144,
            "midi": 79,
            "name": "G5",
            "ticks": 265990,
            "time": 301.16579213541667,
            "velocity": 0.3937007874015748
          },
          {
            "duration": 0.10869550000001027,
            "durationTicks": 96,
            "midi": 43,
            "name": "G2",
            "ticks": 265990,
            "time": 301.16579213541667,
            "velocity": 0.3937007874015748
          },
          {
            "duration": 0.16304324999998698,
            "durationTicks": 144,
            "midi": 67,
            "name": "G4",
            "ticks": 265990,
            "time": 301.16579213541667,
            "velocity": 0.3937007874015748
          },
          {
            "duration": 0.16304324999998698,
            "durationTicks": 144,
            "midi": 55,
            "name": "G3",
            "ticks": 265990,
            "time": 301.16579213541667,
            "velocity": 0.3937007874015748
          },
          {
            "duration": 0.10869550000001027,
            "durationTicks": 96,
            "midi": 84,
            "name": "C6",
            "ticks": 266038,
            "time": 301.22013988541664,
            "velocity": 0.3937007874015748
          },
          {
            "duration": 0.10869550000001027,
            "durationTicks": 96,
            "midi": 60,
            "name": "C4",
            "ticks": 266038,
            "time": 301.22013988541664,
            "velocity": 0.3937007874015748
          },
          {
            "duration": 0.10869550000001027,
            "durationTicks": 96,
            "midi": 48,
            "name": "C3",
            "ticks": 266038,
            "time": 301.22013988541664,
            "velocity": 0.3937007874015748
          },
          {
            "duration": 0.10869550000001027,
            "durationTicks": 96,
            "midi": 72,
            "name": "C5",
            "ticks": 266038,
            "time": 301.22013988541664,
            "velocity": 0.3937007874015748
          },
          {
            "duration": 0.10869549999995343,
            "durationTicks": 96,
            "midi": 67,
            "name": "G4",
            "ticks": 266086,
            "time": 301.2744876354167,
            "velocity": 0.3937007874015748
          },
          {
            "duration": 0.10869549999995343,
            "durationTicks": 96,
            "midi": 79,
            "name": "G5",
            "ticks": 266086,
            "time": 301.2744876354167,
            "velocity": 0.3937007874015748
          },
          {
            "duration": 0.10869549999995343,
            "durationTicks": 96,
            "midi": 55,
            "name": "G3",
            "ticks": 266086,
            "time": 301.2744876354167,
            "velocity": 0.3937007874015748
          },
          {
            "duration": 0.10869549999995343,
            "durationTicks": 96,
            "midi": 43,
            "name": "G2",
            "ticks": 266086,
            "time": 301.2744876354167,
            "velocity": 0.3937007874015748
          },
          {
            "duration": 0.16304324999998698,
            "durationTicks": 144,
            "midi": 69,
            "name": "A4",
            "ticks": 266134,
            "time": 301.32883538541665,
            "velocity": 0.3937007874015748
          },
          {
            "duration": 0.16304324999998698,
            "durationTicks": 144,
            "midi": 57,
            "name": "A3",
            "ticks": 266134,
            "time": 301.32883538541665,
            "velocity": 0.3937007874015748
          },
          {
            "duration": 0.21739100000002054,
            "durationTicks": 192,
            "midi": 86,
            "name": "D6",
            "ticks": 266134,
            "time": 301.32883538541665,
            "velocity": 0.3937007874015748
          },
          {
            "duration": 0.21739100000002054,
            "durationTicks": 192,
            "midi": 86,
            "name": "D6",
            "ticks": 266134,
            "time": 301.32883538541665,
            "velocity": 0.3937007874015748
          },
          {
            "duration": 0.10869550000001027,
            "durationTicks": 96,
            "midi": 54,
            "name": "F#3",
            "ticks": 266134,
            "time": 301.32883538541665,
            "velocity": 0.3937007874015748
          },
          {
            "duration": 0.16304324999998698,
            "durationTicks": 144,
            "midi": 81,
            "name": "A5",
            "ticks": 266134,
            "time": 301.32883538541665,
            "velocity": 0.3937007874015748
          },
          {
            "duration": 0.21739100000002054,
            "durationTicks": 192,
            "midi": 93,
            "name": "A6",
            "ticks": 266134,
            "time": 301.32883538541665,
            "velocity": 0.3937007874015748
          },
          {
            "duration": 0.21739100000002054,
            "durationTicks": 192,
            "midi": 62,
            "name": "D4",
            "ticks": 266134,
            "time": 301.32883538541665,
            "velocity": 0.3937007874015748
          },
          {
            "duration": 0.10869550000001027,
            "durationTicks": 96,
            "midi": 78,
            "name": "F#5",
            "ticks": 266134,
            "time": 301.32883538541665,
            "velocity": 0.3937007874015748
          },
          {
            "duration": 0.21739100000002054,
            "durationTicks": 192,
            "midi": 54,
            "name": "F#3",
            "ticks": 266134,
            "time": 301.32883538541665,
            "velocity": 0.3937007874015748
          },
          {
            "duration": 0.10869550000001027,
            "durationTicks": 96,
            "midi": 42,
            "name": "F#2",
            "ticks": 266134,
            "time": 301.32883538541665,
            "velocity": 0.3937007874015748
          },
          {
            "duration": 0.10869550000001027,
            "durationTicks": 96,
            "midi": 66,
            "name": "F#4",
            "ticks": 266134,
            "time": 301.32883538541665,
            "velocity": 0.3937007874015748
          },
          {
            "duration": 0.21739100000002054,
            "durationTicks": 192,
            "midi": 74,
            "name": "D5",
            "ticks": 266134,
            "time": 301.32883538541665,
            "velocity": 0.3937007874015748
          },
          {
            "duration": 0.16304325000004383,
            "durationTicks": 144,
            "midi": 69,
            "name": "A4",
            "ticks": 266182,
            "time": 301.38318313541663,
            "velocity": 0.3937007874015748
          },
          {
            "duration": 0.16304325000004383,
            "durationTicks": 144,
            "midi": 81,
            "name": "A5",
            "ticks": 266182,
            "time": 301.38318313541663,
            "velocity": 0.3937007874015748
          },
          {
            "duration": 0.10869550000001027,
            "durationTicks": 96,
            "midi": 45,
            "name": "A2",
            "ticks": 266182,
            "time": 301.38318313541663,
            "velocity": 0.3937007874015748
          },
          {
            "duration": 0.16304325000004383,
            "durationTicks": 144,
            "midi": 57,
            "name": "A3",
            "ticks": 266182,
            "time": 301.38318313541663,
            "velocity": 0.3937007874015748
          },
          {
            "duration": 0.10869550000001027,
            "durationTicks": 96,
            "midi": 62,
            "name": "D4",
            "ticks": 266230,
            "time": 301.43753088541666,
            "velocity": 0.3937007874015748
          },
          {
            "duration": 0.10869550000001027,
            "durationTicks": 96,
            "midi": 74,
            "name": "D5",
            "ticks": 266230,
            "time": 301.43753088541666,
            "velocity": 0.3937007874015748
          },
          {
            "duration": 0.10869550000001027,
            "durationTicks": 96,
            "midi": 50,
            "name": "D3",
            "ticks": 266230,
            "time": 301.43753088541666,
            "velocity": 0.3937007874015748
          },
          {
            "duration": 0.10869550000001027,
            "durationTicks": 96,
            "midi": 86,
            "name": "D6",
            "ticks": 266230,
            "time": 301.43753088541666,
            "velocity": 0.3937007874015748
          },
          {
            "duration": 0.10869550000001027,
            "durationTicks": 96,
            "midi": 45,
            "name": "A2",
            "ticks": 266278,
            "time": 301.49187863541664,
            "velocity": 0.3937007874015748
          },
          {
            "duration": 0.10869550000001027,
            "durationTicks": 96,
            "midi": 69,
            "name": "A4",
            "ticks": 266278,
            "time": 301.49187863541664,
            "velocity": 0.3937007874015748
          },
          {
            "duration": 0.10869550000001027,
            "durationTicks": 96,
            "midi": 81,
            "name": "A5",
            "ticks": 266278,
            "time": 301.49187863541664,
            "velocity": 0.3937007874015748
          },
          {
            "duration": 0.10869550000001027,
            "durationTicks": 96,
            "midi": 57,
            "name": "A3",
            "ticks": 266278,
            "time": 301.49187863541664,
            "velocity": 0.3937007874015748
          },
          {
            "duration": 0.2173909999999637,
            "durationTicks": 192,
            "midi": 76,
            "name": "E5",
            "ticks": 266326,
            "time": 301.5462263854167,
            "velocity": 0.3937007874015748
          },
          {
            "duration": 0.2173909999999637,
            "durationTicks": 192,
            "midi": 88,
            "name": "E6",
            "ticks": 266326,
            "time": 301.5462263854167,
            "velocity": 0.3937007874015748
          },
          {
            "duration": 0.2173909999999637,
            "durationTicks": 192,
            "midi": 83,
            "name": "B5",
            "ticks": 266326,
            "time": 301.5462263854167,
            "velocity": 0.3937007874015748
          },
          {
            "duration": 0.2173909999999637,
            "durationTicks": 192,
            "midi": 95,
            "name": "B6",
            "ticks": 266326,
            "time": 301.5462263854167,
            "velocity": 0.3937007874015748
          },
          {
            "duration": 0.2173909999999637,
            "durationTicks": 192,
            "midi": 88,
            "name": "E6",
            "ticks": 266326,
            "time": 301.5462263854167,
            "velocity": 0.3937007874015748
          },
          {
            "duration": 0.10869549999995343,
            "durationTicks": 96,
            "midi": 66,
            "name": "F#4",
            "ticks": 266326,
            "time": 301.5462263854167,
            "velocity": 0.3937007874015748
          },
          {
            "duration": 0.2173909999999637,
            "durationTicks": 192,
            "midi": 62,
            "name": "D4",
            "ticks": 266326,
            "time": 301.5462263854167,
            "velocity": 0.3937007874015748
          },
          {
            "duration": 0.10869549999995343,
            "durationTicks": 96,
            "midi": 54,
            "name": "F#3",
            "ticks": 266326,
            "time": 301.5462263854167,
            "velocity": 0.3937007874015748
          },
          {
            "duration": 0.10869549999995343,
            "durationTicks": 96,
            "midi": 78,
            "name": "F#5",
            "ticks": 266326,
            "time": 301.5462263854167,
            "velocity": 0.3937007874015748
          },
          {
            "duration": 0.32608649999997397,
            "durationTicks": 288,
            "midi": 54,
            "name": "F#3",
            "ticks": 266326,
            "time": 301.5462263854167,
            "velocity": 0.3937007874015748
          },
          {
            "duration": 0.10869549999995343,
            "durationTicks": 96,
            "midi": 42,
            "name": "F#2",
            "ticks": 266326,
            "time": 301.5462263854167,
            "velocity": 0.3937007874015748
          },
          {
            "duration": 0.2173909999999637,
            "durationTicks": 192,
            "midi": 71,
            "name": "B4",
            "ticks": 266326,
            "time": 301.5462263854167,
            "velocity": 0.3937007874015748
          },
          {
            "duration": 0.16304324999998698,
            "durationTicks": 144,
            "midi": 57,
            "name": "A3",
            "ticks": 266326,
            "time": 301.5462263854167,
            "velocity": 0.3937007874015748
          },
          {
            "duration": 0.21739100000002054,
            "durationTicks": 192,
            "midi": 57,
            "name": "A3",
            "ticks": 266374,
            "time": 301.60057413541665,
            "velocity": 0.3937007874015748
          },
          {
            "duration": 0.10869550000001027,
            "durationTicks": 96,
            "midi": 69,
            "name": "A4",
            "ticks": 266374,
            "time": 301.60057413541665,
            "velocity": 0.3937007874015748
          },
          {
            "duration": 0.10869550000001027,
            "durationTicks": 96,
            "midi": 81,
            "name": "A5",
            "ticks": 266374,
            "time": 301.60057413541665,
            "velocity": 0.3937007874015748
          },
          {
            "duration": 0.10869550000001027,
            "durationTicks": 96,
            "midi": 45,
            "name": "A2",
            "ticks": 266374,
            "time": 301.60057413541665,
            "velocity": 0.3937007874015748
          },
          {
            "duration": 0.10869550000001027,
            "durationTicks": 96,
            "midi": 74,
            "name": "D5",
            "ticks": 266422,
            "time": 301.6549218854166,
            "velocity": 0.3937007874015748
          },
          {
            "duration": 0.21739100000002054,
            "durationTicks": 192,
            "midi": 62,
            "name": "D4",
            "ticks": 266422,
            "time": 301.6549218854166,
            "velocity": 0.3937007874015748
          },
          {
            "duration": 0.10869550000001027,
            "durationTicks": 96,
            "midi": 50,
            "name": "D3",
            "ticks": 266422,
            "time": 301.6549218854166,
            "velocity": 0.3937007874015748
          },
          {
            "duration": 0.10869550000001027,
            "durationTicks": 96,
            "midi": 86,
            "name": "D6",
            "ticks": 266422,
            "time": 301.6549218854166,
            "velocity": 0.3937007874015748
          },
          {
            "duration": 0.10869550000001027,
            "durationTicks": 96,
            "midi": 45,
            "name": "A2",
            "ticks": 266470,
            "time": 301.70926963541666,
            "velocity": 0.3937007874015748
          },
          {
            "duration": 0.10869550000001027,
            "durationTicks": 96,
            "midi": 81,
            "name": "A5",
            "ticks": 266470,
            "time": 301.70926963541666,
            "velocity": 0.3937007874015748
          },
          {
            "duration": 0.10869550000001027,
            "durationTicks": 96,
            "midi": 69,
            "name": "A4",
            "ticks": 266470,
            "time": 301.70926963541666,
            "velocity": 0.3937007874015748
          },
          {
            "duration": 0.16304324999998698,
            "durationTicks": 144,
            "midi": 57,
            "name": "A3",
            "ticks": 266470,
            "time": 301.70926963541666,
            "velocity": 0.3937007874015748
          },
          {
            "duration": 0.21739100000002054,
            "durationTicks": 192,
            "midi": 71,
            "name": "B4",
            "ticks": 266518,
            "time": 301.76361738541664,
            "velocity": 0.3937007874015748
          },
          {
            "duration": 0.10869550000001027,
            "durationTicks": 96,
            "midi": 54,
            "name": "F#3",
            "ticks": 266518,
            "time": 301.76361738541664,
            "velocity": 0.3937007874015748
          },
          {
            "duration": 0.21739100000002054,
            "durationTicks": 192,
            "midi": 91,
            "name": "G6",
            "ticks": 266518,
            "time": 301.76361738541664,
            "velocity": 0.3937007874015748
          },
          {
            "duration": 0.21739100000002054,
            "durationTicks": 192,
            "midi": 67,
            "name": "G4",
            "ticks": 266518,
            "time": 301.76361738541664,
            "velocity": 0.3937007874015748
          },
          {
            "duration": 0.10869550000001027,
            "durationTicks": 96,
            "midi": 42,
            "name": "F#2",
            "ticks": 266518,
            "time": 301.76361738541664,
            "velocity": 0.3937007874015748
          },
          {
            "duration": 0.21739100000002054,
            "durationTicks": 192,
            "midi": 95,
            "name": "B6",
            "ticks": 266518,
            "time": 301.76361738541664,
            "velocity": 0.3937007874015748
          },
          {
            "duration": 0.21739100000002054,
            "durationTicks": 192,
            "midi": 83,
            "name": "B5",
            "ticks": 266518,
            "time": 301.76361738541664,
            "velocity": 0.3937007874015748
          },
          {
            "duration": 0.21739100000002054,
            "durationTicks": 192,
            "midi": 79,
            "name": "G5",
            "ticks": 266518,
            "time": 301.76361738541664,
            "velocity": 0.3937007874015748
          },
          {
            "duration": 0.10869550000001027,
            "durationTicks": 96,
            "midi": 66,
            "name": "F#4",
            "ticks": 266518,
            "time": 301.76361738541664,
            "velocity": 0.3937007874015748
          },
          {
            "duration": 0.10869550000001027,
            "durationTicks": 96,
            "midi": 78,
            "name": "F#5",
            "ticks": 266518,
            "time": 301.76361738541664,
            "velocity": 0.3937007874015748
          },
          {
            "duration": 0.10869549999995343,
            "durationTicks": 96,
            "midi": 69,
            "name": "A4",
            "ticks": 266566,
            "time": 301.81796513541667,
            "velocity": 0.3937007874015748
          },
          {
            "duration": 0.10869549999995343,
            "durationTicks": 96,
            "midi": 45,
            "name": "A2",
            "ticks": 266566,
            "time": 301.81796513541667,
            "velocity": 0.3937007874015748
          },
          {
            "duration": 0.10869549999995343,
            "durationTicks": 96,
            "midi": 57,
            "name": "A3",
            "ticks": 266566,
            "time": 301.81796513541667,
            "velocity": 0.3937007874015748
          },
          {
            "duration": 0.10869549999995343,
            "durationTicks": 96,
            "midi": 81,
            "name": "A5",
            "ticks": 266566,
            "time": 301.81796513541667,
            "velocity": 0.3937007874015748
          },
          {
            "duration": 0.10869550000001027,
            "durationTicks": 96,
            "midi": 62,
            "name": "D4",
            "ticks": 266614,
            "time": 301.87231288541665,
            "velocity": 0.3937007874015748
          },
          {
            "duration": 0.16304324999998698,
            "durationTicks": 144,
            "midi": 57,
            "name": "A3",
            "ticks": 266614,
            "time": 301.87231288541665,
            "velocity": 0.3937007874015748
          },
          {
            "duration": 0.21739100000002054,
            "durationTicks": 192,
            "midi": 54,
            "name": "F#3",
            "ticks": 266614,
            "time": 301.87231288541665,
            "velocity": 0.3937007874015748
          },
          {
            "duration": 0.10869550000001027,
            "durationTicks": 96,
            "midi": 86,
            "name": "D6",
            "ticks": 266614,
            "time": 301.87231288541665,
            "velocity": 0.3937007874015748
          },
          {
            "duration": 0.10869550000001027,
            "durationTicks": 96,
            "midi": 50,
            "name": "D3",
            "ticks": 266614,
            "time": 301.87231288541665,
            "velocity": 0.3937007874015748
          },
          {
            "duration": 0.3260865000000308,
            "durationTicks": 288,
            "midi": 62,
            "name": "D4",
            "ticks": 266614,
            "time": 301.87231288541665,
            "velocity": 0.3937007874015748
          },
          {
            "duration": 0.10869550000001027,
            "durationTicks": 96,
            "midi": 74,
            "name": "D5",
            "ticks": 266614,
            "time": 301.87231288541665,
            "velocity": 0.3937007874015748
          },
          {
            "duration": 0.21739100000002054,
            "durationTicks": 192,
            "midi": 57,
            "name": "A3",
            "ticks": 266662,
            "time": 301.9266606354166,
            "velocity": 0.3937007874015748
          },
          {
            "duration": 0.10869550000001027,
            "durationTicks": 96,
            "midi": 45,
            "name": "A2",
            "ticks": 266662,
            "time": 301.9266606354166,
            "velocity": 0.3937007874015748
          },
          {
            "duration": 0.10869550000001027,
            "durationTicks": 96,
            "midi": 81,
            "name": "A5",
            "ticks": 266662,
            "time": 301.9266606354166,
            "velocity": 0.3937007874015748
          },
          {
            "duration": 0.10869550000001027,
            "durationTicks": 96,
            "midi": 69,
            "name": "A4",
            "ticks": 266662,
            "time": 301.9266606354166,
            "velocity": 0.3937007874015748
          },
          {
            "duration": 0.16304324999998698,
            "durationTicks": 144,
            "midi": 69,
            "name": "A4",
            "ticks": 266710,
            "time": 301.98100838541666,
            "velocity": 0.3937007874015748
          },
          {
            "duration": 0.16304324999998698,
            "durationTicks": 144,
            "midi": 81,
            "name": "A5",
            "ticks": 266710,
            "time": 301.98100838541666,
            "velocity": 0.3937007874015748
          },
          {
            "duration": 0.10869550000001027,
            "durationTicks": 96,
            "midi": 78,
            "name": "F#5",
            "ticks": 266710,
            "time": 301.98100838541666,
            "velocity": 0.3937007874015748
          },
          {
            "duration": 0.10869550000001027,
            "durationTicks": 96,
            "midi": 66,
            "name": "F#4",
            "ticks": 266710,
            "time": 301.98100838541666,
            "velocity": 0.3937007874015748
          },
          {
            "duration": 0.21739100000002054,
            "durationTicks": 192,
            "midi": 78,
            "name": "F#5",
            "ticks": 266710,
            "time": 301.98100838541666,
            "velocity": 0.3937007874015748
          },
          {
            "duration": 0.10869550000001027,
            "durationTicks": 96,
            "midi": 42,
            "name": "F#2",
            "ticks": 266710,
            "time": 301.98100838541666,
            "velocity": 0.3937007874015748
          },
          {
            "duration": 0.21739100000002054,
            "durationTicks": 192,
            "midi": 54,
            "name": "F#3",
            "ticks": 266710,
            "time": 301.98100838541666,
            "velocity": 0.3937007874015748
          },
          {
            "duration": 0.21739100000002054,
            "durationTicks": 192,
            "midi": 90,
            "name": "F#6",
            "ticks": 266710,
            "time": 301.98100838541666,
            "velocity": 0.3937007874015748
          },
          {
            "duration": 0.21739100000002054,
            "durationTicks": 192,
            "midi": 66,
            "name": "F#4",
            "ticks": 266710,
            "time": 301.98100838541666,
            "velocity": 0.3937007874015748
          },
          {
            "duration": 0.21739100000002054,
            "durationTicks": 192,
            "midi": 93,
            "name": "A6",
            "ticks": 266710,
            "time": 301.98100838541666,
            "velocity": 0.3937007874015748
          },
          {
            "duration": 0.10869550000001027,
            "durationTicks": 96,
            "midi": 45,
            "name": "A2",
            "ticks": 266758,
            "time": 302.03535613541663,
            "velocity": 0.3937007874015748
          },
          {
            "duration": 0.16304325000004383,
            "durationTicks": 144,
            "midi": 57,
            "name": "A3",
            "ticks": 266758,
            "time": 302.03535613541663,
            "velocity": 0.3937007874015748
          },
          {
            "duration": 0.16304325000004383,
            "durationTicks": 144,
            "midi": 69,
            "name": "A4",
            "ticks": 266758,
            "time": 302.03535613541663,
            "velocity": 0.3937007874015748
          },
          {
            "duration": 0.16304325000004383,
            "durationTicks": 144,
            "midi": 81,
            "name": "A5",
            "ticks": 266758,
            "time": 302.03535613541663,
            "velocity": 0.3937007874015748
          },
          {
            "duration": 0.10869550000001027,
            "durationTicks": 96,
            "midi": 62,
            "name": "D4",
            "ticks": 266806,
            "time": 302.08970388541667,
            "velocity": 0.3937007874015748
          },
          {
            "duration": 0.10869550000001027,
            "durationTicks": 96,
            "midi": 74,
            "name": "D5",
            "ticks": 266806,
            "time": 302.08970388541667,
            "velocity": 0.3937007874015748
          },
          {
            "duration": 0.10869550000001027,
            "durationTicks": 96,
            "midi": 50,
            "name": "D3",
            "ticks": 266806,
            "time": 302.08970388541667,
            "velocity": 0.3937007874015748
          },
          {
            "duration": 0.10869550000001027,
            "durationTicks": 96,
            "midi": 86,
            "name": "D6",
            "ticks": 266806,
            "time": 302.08970388541667,
            "velocity": 0.3937007874015748
          },
          {
            "duration": 0.10869550000001027,
            "durationTicks": 96,
            "midi": 57,
            "name": "A3",
            "ticks": 266854,
            "time": 302.14405163541664,
            "velocity": 0.3937007874015748
          },
          {
            "duration": 0.10869550000001027,
            "durationTicks": 96,
            "midi": 69,
            "name": "A4",
            "ticks": 266854,
            "time": 302.14405163541664,
            "velocity": 0.3937007874015748
          },
          {
            "duration": 0.10869550000001027,
            "durationTicks": 96,
            "midi": 45,
            "name": "A2",
            "ticks": 266854,
            "time": 302.14405163541664,
            "velocity": 0.3937007874015748
          },
          {
            "duration": 0.10869550000001027,
            "durationTicks": 96,
            "midi": 81,
            "name": "A5",
            "ticks": 266854,
            "time": 302.14405163541664,
            "velocity": 0.3937007874015748
          },
          {
            "duration": 0.16304324999998698,
            "durationTicks": 144,
            "midi": 57,
            "name": "A3",
            "ticks": 266902,
            "time": 302.1983993854167,
            "velocity": 0.3937007874015748
          },
          {
            "duration": 0.2173909999999637,
            "durationTicks": 192,
            "midi": 62,
            "name": "D4",
            "ticks": 266902,
            "time": 302.1983993854167,
            "velocity": 0.3937007874015748
          },
          {
            "duration": 0.10869549999995343,
            "durationTicks": 96,
            "midi": 42,
            "name": "F#2",
            "ticks": 266902,
            "time": 302.1983993854167,
            "velocity": 0.3937007874015748
          },
          {
            "duration": 0.2173909999999637,
            "durationTicks": 192,
            "midi": 91,
            "name": "G6",
            "ticks": 266902,
            "time": 302.1983993854167,
            "velocity": 0.3937007874015748
          },
          {
            "duration": 0.10869549999995343,
            "durationTicks": 96,
            "midi": 54,
            "name": "F#3",
            "ticks": 266902,
            "time": 302.1983993854167,
            "velocity": 0.3937007874015748
          },
          {
            "duration": 0.2173909999999637,
            "durationTicks": 192,
            "midi": 67,
            "name": "G4",
            "ticks": 266902,
            "time": 302.1983993854167,
            "velocity": 0.3937007874015748
          },
          {
            "duration": 0.2173909999999637,
            "durationTicks": 192,
            "midi": 71,
            "name": "B4",
            "ticks": 266902,
            "time": 302.1983993854167,
            "velocity": 0.3937007874015748
          },
          {
            "duration": 0.2173909999999637,
            "durationTicks": 192,
            "midi": 54,
            "name": "F#3",
            "ticks": 266902,
            "time": 302.1983993854167,
            "velocity": 0.3937007874015748
          },
          {
            "duration": 0.2173909999999637,
            "durationTicks": 192,
            "midi": 83,
            "name": "B5",
            "ticks": 266902,
            "time": 302.1983993854167,
            "velocity": 0.3937007874015748
          },
          {
            "duration": 0.2173909999999637,
            "durationTicks": 192,
            "midi": 79,
            "name": "G5",
            "ticks": 266902,
            "time": 302.1983993854167,
            "velocity": 0.3937007874015748
          },
          {
            "duration": 0.10869549999995343,
            "durationTicks": 96,
            "midi": 78,
            "name": "F#5",
            "ticks": 266902,
            "time": 302.1983993854167,
            "velocity": 0.3937007874015748
          },
          {
            "duration": 0.2173909999999637,
            "durationTicks": 192,
            "midi": 95,
            "name": "B6",
            "ticks": 266902,
            "time": 302.1983993854167,
            "velocity": 0.3937007874015748
          },
          {
            "duration": 0.10869549999995343,
            "durationTicks": 96,
            "midi": 66,
            "name": "F#4",
            "ticks": 266902,
            "time": 302.1983993854167,
            "velocity": 0.3937007874015748
          },
          {
            "duration": 0.10869550000001027,
            "durationTicks": 96,
            "midi": 69,
            "name": "A4",
            "ticks": 266950,
            "time": 302.25274713541666,
            "velocity": 0.3937007874015748
          },
          {
            "duration": 0.16304324999998698,
            "durationTicks": 144,
            "midi": 57,
            "name": "A3",
            "ticks": 266950,
            "time": 302.25274713541666,
            "velocity": 0.3937007874015748
          },
          {
            "duration": 0.10869550000001027,
            "durationTicks": 96,
            "midi": 45,
            "name": "A2",
            "ticks": 266950,
            "time": 302.25274713541666,
            "velocity": 0.3937007874015748
          },
          {
            "duration": 0.10869550000001027,
            "durationTicks": 96,
            "midi": 81,
            "name": "A5",
            "ticks": 266950,
            "time": 302.25274713541666,
            "velocity": 0.3937007874015748
          },
          {
            "duration": 0.10869550000001027,
            "durationTicks": 96,
            "midi": 74,
            "name": "D5",
            "ticks": 266998,
            "time": 302.30709488541663,
            "velocity": 0.3937007874015748
          },
          {
            "duration": 0.10869550000001027,
            "durationTicks": 96,
            "midi": 50,
            "name": "D3",
            "ticks": 266998,
            "time": 302.30709488541663,
            "velocity": 0.3937007874015748
          },
          {
            "duration": 0.10869550000001027,
            "durationTicks": 96,
            "midi": 62,
            "name": "D4",
            "ticks": 266998,
            "time": 302.30709488541663,
            "velocity": 0.3937007874015748
          },
          {
            "duration": 0.10869550000001027,
            "durationTicks": 96,
            "midi": 86,
            "name": "D6",
            "ticks": 266998,
            "time": 302.30709488541663,
            "velocity": 0.3937007874015748
          },
          {
            "duration": 0.10869550000001027,
            "durationTicks": 96,
            "midi": 69,
            "name": "A4",
            "ticks": 267046,
            "time": 302.36144263541667,
            "velocity": 0.3937007874015748
          },
          {
            "duration": 0.10869550000001027,
            "durationTicks": 96,
            "midi": 81,
            "name": "A5",
            "ticks": 267046,
            "time": 302.36144263541667,
            "velocity": 0.3937007874015748
          },
          {
            "duration": 0.10869550000001027,
            "durationTicks": 96,
            "midi": 45,
            "name": "A2",
            "ticks": 267046,
            "time": 302.36144263541667,
            "velocity": 0.3937007874015748
          },
          {
            "duration": 0.10869550000001027,
            "durationTicks": 96,
            "midi": 57,
            "name": "A3",
            "ticks": 267046,
            "time": 302.36144263541667,
            "velocity": 0.3937007874015748
          },
          {
            "duration": 0.10869550000001027,
            "durationTicks": 96,
            "midi": 66,
            "name": "F#4",
            "ticks": 267094,
            "time": 302.41579038541664,
            "velocity": 0.3937007874015748
          },
          {
            "duration": 0.16304324999998698,
            "durationTicks": 144,
            "midi": 57,
            "name": "A3",
            "ticks": 267094,
            "time": 302.41579038541664,
            "velocity": 0.3937007874015748
          },
          {
            "duration": 0.10869550000001027,
            "durationTicks": 96,
            "midi": 42,
            "name": "F#2",
            "ticks": 267094,
            "time": 302.41579038541664,
            "velocity": 0.3937007874015748
          },
          {
            "duration": 0.10869550000001027,
            "durationTicks": 96,
            "midi": 54,
            "name": "F#3",
            "ticks": 267094,
            "time": 302.41579038541664,
            "velocity": 0.3937007874015748
          },
          {
            "duration": 0.3260865000000308,
            "durationTicks": 288,
            "midi": 54,
            "name": "F#3",
            "ticks": 267094,
            "time": 302.41579038541664,
            "velocity": 0.3937007874015748
          },
          {
            "duration": 0.21739100000002054,
            "durationTicks": 192,
            "midi": 62,
            "name": "D4",
            "ticks": 267094,
            "time": 302.41579038541664,
            "velocity": 0.3937007874015748
          },
          {
            "duration": 0.10869550000001027,
            "durationTicks": 96,
            "midi": 78,
            "name": "F#5",
            "ticks": 267094,
            "time": 302.41579038541664,
            "velocity": 0.3937007874015748
          },
          {
            "duration": 0.10869549999995343,
            "durationTicks": 96,
            "midi": 81,
            "name": "A5",
            "ticks": 267142,
            "time": 302.4701381354167,
            "velocity": 0.3937007874015748
          },
          {
            "duration": 0.2173909999999637,
            "durationTicks": 192,
            "midi": 57,
            "name": "A3",
            "ticks": 267142,
            "time": 302.4701381354167,
            "velocity": 0.3937007874015748
          },
          {
            "duration": 0.10869549999995343,
            "durationTicks": 96,
            "midi": 45,
            "name": "A2",
            "ticks": 267142,
            "time": 302.4701381354167,
            "velocity": 0.3937007874015748
          },
          {
            "duration": 0.10869549999995343,
            "durationTicks": 96,
            "midi": 69,
            "name": "A4",
            "ticks": 267142,
            "time": 302.4701381354167,
            "velocity": 0.3937007874015748
          },
          {
            "duration": 0.10869550000001027,
            "durationTicks": 96,
            "midi": 86,
            "name": "D6",
            "ticks": 267190,
            "time": 302.52448588541665,
            "velocity": 0.3937007874015748
          },
          {
            "duration": 0.10869550000001027,
            "durationTicks": 96,
            "midi": 74,
            "name": "D5",
            "ticks": 267190,
            "time": 302.52448588541665,
            "velocity": 0.3937007874015748
          },
          {
            "duration": 0.10869550000001027,
            "durationTicks": 96,
            "midi": 50,
            "name": "D3",
            "ticks": 267190,
            "time": 302.52448588541665,
            "velocity": 0.3937007874015748
          },
          {
            "duration": 0.21739100000002054,
            "durationTicks": 192,
            "midi": 62,
            "name": "D4",
            "ticks": 267190,
            "time": 302.52448588541665,
            "velocity": 0.3937007874015748
          },
          {
            "duration": 0.10869550000001027,
            "durationTicks": 96,
            "midi": 45,
            "name": "A2",
            "ticks": 267238,
            "time": 302.57883363541663,
            "velocity": 0.3937007874015748
          },
          {
            "duration": 0.10869550000001027,
            "durationTicks": 96,
            "midi": 69,
            "name": "A4",
            "ticks": 267238,
            "time": 302.57883363541663,
            "velocity": 0.3937007874015748
          },
          {
            "duration": 0.16304325000004383,
            "durationTicks": 144,
            "midi": 57,
            "name": "A3",
            "ticks": 267238,
            "time": 302.57883363541663,
            "velocity": 0.3937007874015748
          },
          {
            "duration": 0.10869550000001027,
            "durationTicks": 96,
            "midi": 81,
            "name": "A5",
            "ticks": 267238,
            "time": 302.57883363541663,
            "velocity": 0.3937007874015748
          },
          {
            "duration": 0.10869550000001027,
            "durationTicks": 96,
            "midi": 78,
            "name": "F#5",
            "ticks": 267286,
            "time": 302.63318138541666,
            "velocity": 0.3937007874015748
          },
          {
            "duration": 0.2173909999999637,
            "durationTicks": 192,
            "midi": 93,
            "name": "A6",
            "ticks": 267286,
            "time": 302.63318138541666,
            "velocity": 0.3937007874015748
          },
          {
            "duration": 0.16304324999998698,
            "durationTicks": 144,
            "midi": 81,
            "name": "A5",
            "ticks": 267286,
            "time": 302.63318138541666,
            "velocity": 0.3937007874015748
          },
          {
            "duration": 0.2173909999999637,
            "durationTicks": 192,
            "midi": 78,
            "name": "F#5",
            "ticks": 267286,
            "time": 302.63318138541666,
            "velocity": 0.3937007874015748
          },
          {
            "duration": 0.10869550000001027,
            "durationTicks": 96,
            "midi": 54,
            "name": "F#3",
            "ticks": 267286,
            "time": 302.63318138541666,
            "velocity": 0.3937007874015748
          },
          {
            "duration": 0.10869550000001027,
            "durationTicks": 96,
            "midi": 66,
            "name": "F#4",
            "ticks": 267286,
            "time": 302.63318138541666,
            "velocity": 0.3937007874015748
          },
          {
            "duration": 0.2173909999999637,
            "durationTicks": 192,
            "midi": 90,
            "name": "F#6",
            "ticks": 267286,
            "time": 302.63318138541666,
            "velocity": 0.3937007874015748
          },
          {
            "duration": 0.2173909999999637,
            "durationTicks": 192,
            "midi": 66,
            "name": "F#4",
            "ticks": 267286,
            "time": 302.63318138541666,
            "velocity": 0.3937007874015748
          },
          {
            "duration": 0.10869550000001027,
            "durationTicks": 96,
            "midi": 42,
            "name": "F#2",
            "ticks": 267286,
            "time": 302.63318138541666,
            "velocity": 0.3937007874015748
          },
          {
            "duration": 0.16304324999998698,
            "durationTicks": 144,
            "midi": 69,
            "name": "A4",
            "ticks": 267286,
            "time": 302.63318138541666,
            "velocity": 0.3937007874015748
          },
          {
            "duration": 0.16304324999998698,
            "durationTicks": 144,
            "midi": 69,
            "name": "A4",
            "ticks": 267334,
            "time": 302.68752913541664,
            "velocity": 0.3937007874015748
          },
          {
            "duration": 0.10869550000001027,
            "durationTicks": 96,
            "midi": 57,
            "name": "A3",
            "ticks": 267334,
            "time": 302.68752913541664,
            "velocity": 0.3937007874015748
          },
          {
            "duration": 0.16304324999998698,
            "durationTicks": 144,
            "midi": 81,
            "name": "A5",
            "ticks": 267334,
            "time": 302.68752913541664,
            "velocity": 0.3937007874015748
          },
          {
            "duration": 0.10869550000001027,
            "durationTicks": 96,
            "midi": 45,
            "name": "A2",
            "ticks": 267334,
            "time": 302.68752913541664,
            "velocity": 0.3937007874015748
          },
          {
            "duration": 0.10869549999995343,
            "durationTicks": 96,
            "midi": 50,
            "name": "D3",
            "ticks": 267382,
            "time": 302.7418768854167,
            "velocity": 0.3937007874015748
          },
          {
            "duration": 0.10869549999995343,
            "durationTicks": 96,
            "midi": 74,
            "name": "D5",
            "ticks": 267382,
            "time": 302.7418768854167,
            "velocity": 0.3937007874015748
          },
          {
            "duration": 0.10869549999995343,
            "durationTicks": 96,
            "midi": 86,
            "name": "D6",
            "ticks": 267382,
            "time": 302.7418768854167,
            "velocity": 0.3937007874015748
          },
          {
            "duration": 0.2173909999999637,
            "durationTicks": 192,
            "midi": 54,
            "name": "F#3",
            "ticks": 267382,
            "time": 302.7418768854167,
            "velocity": 0.3937007874015748
          },
          {
            "duration": 0.10869549999995343,
            "durationTicks": 96,
            "midi": 62,
            "name": "D4",
            "ticks": 267382,
            "time": 302.7418768854167,
            "velocity": 0.3937007874015748
          },
          {
            "duration": 0.16304324999998698,
            "durationTicks": 144,
            "midi": 57,
            "name": "A3",
            "ticks": 267382,
            "time": 302.7418768854167,
            "velocity": 0.3937007874015748
          },
          {
            "duration": 0.32608649999997397,
            "durationTicks": 288,
            "midi": 62,
            "name": "D4",
            "ticks": 267382,
            "time": 302.7418768854167,
            "velocity": 0.3937007874015748
          },
          {
            "duration": 0.21739100000002054,
            "durationTicks": 192,
            "midi": 57,
            "name": "A3",
            "ticks": 267430,
            "time": 302.79622463541665,
            "velocity": 0.3937007874015748
          },
          {
            "duration": 0.10869550000001027,
            "durationTicks": 96,
            "midi": 69,
            "name": "A4",
            "ticks": 267430,
            "time": 302.79622463541665,
            "velocity": 0.3937007874015748
          },
          {
            "duration": 0.10869550000001027,
            "durationTicks": 96,
            "midi": 81,
            "name": "A5",
            "ticks": 267430,
            "time": 302.79622463541665,
            "velocity": 0.3937007874015748
          },
          {
            "duration": 0.10869550000001027,
            "durationTicks": 96,
            "midi": 45,
            "name": "A2",
            "ticks": 267430,
            "time": 302.79622463541665,
            "velocity": 0.3937007874015748
          },
          {
            "duration": 0.21739100000002054,
            "durationTicks": 192,
            "midi": 91,
            "name": "G6",
            "ticks": 267478,
            "time": 302.8505723854166,
            "velocity": 0.3937007874015748
          },
          {
            "duration": 0.21739100000002054,
            "durationTicks": 192,
            "midi": 83,
            "name": "B5",
            "ticks": 267478,
            "time": 302.8505723854166,
            "velocity": 0.3937007874015748
          },
          {
            "duration": 0.10869550000001027,
            "durationTicks": 96,
            "midi": 66,
            "name": "F#4",
            "ticks": 267478,
            "time": 302.8505723854166,
            "velocity": 0.3937007874015748
          },
          {
            "duration": 0.21739100000002054,
            "durationTicks": 192,
            "midi": 95,
            "name": "B6",
            "ticks": 267478,
            "time": 302.8505723854166,
            "velocity": 0.3937007874015748
          },
          {
            "duration": 0.10869550000001027,
            "durationTicks": 96,
            "midi": 78,
            "name": "F#5",
            "ticks": 267478,
            "time": 302.8505723854166,
            "velocity": 0.3937007874015748
          },
          {
            "duration": 0.21739100000002054,
            "durationTicks": 192,
            "midi": 67,
            "name": "G4",
            "ticks": 267478,
            "time": 302.8505723854166,
            "velocity": 0.3937007874015748
          },
          {
            "duration": 0.21739100000002054,
            "durationTicks": 192,
            "midi": 71,
            "name": "B4",
            "ticks": 267478,
            "time": 302.8505723854166,
            "velocity": 0.3937007874015748
          },
          {
            "duration": 0.21739100000002054,
            "durationTicks": 192,
            "midi": 79,
            "name": "G5",
            "ticks": 267478,
            "time": 302.8505723854166,
            "velocity": 0.3937007874015748
          },
          {
            "duration": 0.21739100000002054,
            "durationTicks": 192,
            "midi": 54,
            "name": "F#3",
            "ticks": 267478,
            "time": 302.8505723854166,
            "velocity": 0.3937007874015748
          },
          {
            "duration": 0.10869550000001027,
            "durationTicks": 96,
            "midi": 42,
            "name": "F#2",
            "ticks": 267478,
            "time": 302.8505723854166,
            "velocity": 0.3937007874015748
          },
          {
            "duration": 0.16304324999998698,
            "durationTicks": 144,
            "midi": 57,
            "name": "A3",
            "ticks": 267526,
            "time": 302.90492013541666,
            "velocity": 0.3937007874015748
          },
          {
            "duration": 0.10869550000001027,
            "durationTicks": 96,
            "midi": 81,
            "name": "A5",
            "ticks": 267526,
            "time": 302.90492013541666,
            "velocity": 0.3937007874015748
          },
          {
            "duration": 0.10869550000001027,
            "durationTicks": 96,
            "midi": 69,
            "name": "A4",
            "ticks": 267526,
            "time": 302.90492013541666,
            "velocity": 0.3937007874015748
          },
          {
            "duration": 0.10869550000001027,
            "durationTicks": 96,
            "midi": 45,
            "name": "A2",
            "ticks": 267526,
            "time": 302.90492013541666,
            "velocity": 0.3937007874015748
          },
          {
            "duration": 0.10869550000001027,
            "durationTicks": 96,
            "midi": 86,
            "name": "D6",
            "ticks": 267574,
            "time": 302.95926788541664,
            "velocity": 0.3937007874015748
          },
          {
            "duration": 0.10869550000001027,
            "durationTicks": 96,
            "midi": 62,
            "name": "D4",
            "ticks": 267574,
            "time": 302.95926788541664,
            "velocity": 0.3937007874015748
          },
          {
            "duration": 0.10869550000001027,
            "durationTicks": 96,
            "midi": 74,
            "name": "D5",
            "ticks": 267574,
            "time": 302.95926788541664,
            "velocity": 0.3937007874015748
          },
          {
            "duration": 0.10869550000001027,
            "durationTicks": 96,
            "midi": 50,
            "name": "D3",
            "ticks": 267574,
            "time": 302.95926788541664,
            "velocity": 0.3937007874015748
          },
          {
            "duration": 0.10869549999995343,
            "durationTicks": 96,
            "midi": 45,
            "name": "A2",
            "ticks": 267622,
            "time": 303.01361563541667,
            "velocity": 0.3937007874015748
          },
          {
            "duration": 0.10869549999995343,
            "durationTicks": 96,
            "midi": 81,
            "name": "A5",
            "ticks": 267622,
            "time": 303.01361563541667,
            "velocity": 0.3937007874015748
          },
          {
            "duration": 0.10869549999995343,
            "durationTicks": 96,
            "midi": 57,
            "name": "A3",
            "ticks": 267622,
            "time": 303.01361563541667,
            "velocity": 0.3937007874015748
          },
          {
            "duration": 0.10869549999995343,
            "durationTicks": 96,
            "midi": 69,
            "name": "A4",
            "ticks": 267622,
            "time": 303.01361563541667,
            "velocity": 0.3937007874015748
          },
          {
            "duration": 0.21739100000002054,
            "durationTicks": 192,
            "midi": 69,
            "name": "A4",
            "ticks": 267670,
            "time": 303.06796338541665,
            "velocity": 0.3937007874015748
          },
          {
            "duration": 0.21739100000002054,
            "durationTicks": 192,
            "midi": 93,
            "name": "A6",
            "ticks": 267670,
            "time": 303.06796338541665,
            "velocity": 0.3937007874015748
          },
          {
            "duration": 0.21739100000002054,
            "durationTicks": 192,
            "midi": 78,
            "name": "F#5",
            "ticks": 267670,
            "time": 303.06796338541665,
            "velocity": 0.3937007874015748
          },
          {
            "duration": 0.21739100000002054,
            "durationTicks": 192,
            "midi": 64,
            "name": "E4",
            "ticks": 267670,
            "time": 303.06796338541665,
            "velocity": 0.3937007874015748
          },
          {
            "duration": 0.21739100000002054,
            "durationTicks": 192,
            "midi": 81,
            "name": "A5",
            "ticks": 267670,
            "time": 303.06796338541665,
            "velocity": 0.3937007874015748
          },
          {
            "duration": 0.16304324999998698,
            "durationTicks": 144,
            "midi": 59,
            "name": "B3",
            "ticks": 267670,
            "time": 303.06796338541665,
            "velocity": 0.3937007874015748
          },
          {
            "duration": 0.21739100000002054,
            "durationTicks": 192,
            "midi": 66,
            "name": "F#4",
            "ticks": 267670,
            "time": 303.06796338541665,
            "velocity": 0.3937007874015748
          },
          {
            "duration": 0.21739100000002054,
            "durationTicks": 192,
            "midi": 90,
            "name": "F#6",
            "ticks": 267670,
            "time": 303.06796338541665,
            "velocity": 0.3937007874015748
          },
          {
            "duration": 0.10869550000001027,
            "durationTicks": 96,
            "midi": 79,
            "name": "G5",
            "ticks": 267670,
            "time": 303.06796338541665,
            "velocity": 0.3937007874015748
          },
          {
            "duration": 0.10869550000001027,
            "durationTicks": 96,
            "midi": 67,
            "name": "G4",
            "ticks": 267670,
            "time": 303.06796338541665,
            "velocity": 0.3937007874015748
          },
          {
            "duration": 0.10869550000001027,
            "durationTicks": 96,
            "midi": 55,
            "name": "G3",
            "ticks": 267670,
            "time": 303.06796338541665,
            "velocity": 0.3937007874015748
          },
          {
            "duration": 0.10869550000001027,
            "durationTicks": 96,
            "midi": 43,
            "name": "G2",
            "ticks": 267670,
            "time": 303.06796338541665,
            "velocity": 0.3937007874015748
          },
          {
            "duration": 0.21739100000002054,
            "durationTicks": 192,
            "midi": 55,
            "name": "G3",
            "ticks": 267670,
            "time": 303.06796338541665,
            "velocity": 0.3937007874015748
          },
          {
            "duration": 0.10869550000001027,
            "durationTicks": 96,
            "midi": 47,
            "name": "B2",
            "ticks": 267718,
            "time": 303.1223111354166,
            "velocity": 0.3937007874015748
          },
          {
            "duration": 0.16304325000004383,
            "durationTicks": 144,
            "midi": 59,
            "name": "B3",
            "ticks": 267718,
            "time": 303.1223111354166,
            "velocity": 0.3937007874015748
          },
          {
            "duration": 0.10869550000001027,
            "durationTicks": 96,
            "midi": 71,
            "name": "B4",
            "ticks": 267718,
            "time": 303.1223111354166,
            "velocity": 0.3937007874015748
          },
          {
            "duration": 0.10869550000001027,
            "durationTicks": 96,
            "midi": 83,
            "name": "B5",
            "ticks": 267718,
            "time": 303.1223111354166,
            "velocity": 0.3937007874015748
          },
          {
            "duration": 0.10869550000001027,
            "durationTicks": 96,
            "midi": 64,
            "name": "E4",
            "ticks": 267766,
            "time": 303.17665888541666,
            "velocity": 0.3937007874015748
          },
          {
            "duration": 0.10869550000001027,
            "durationTicks": 96,
            "midi": 52,
            "name": "E3",
            "ticks": 267766,
            "time": 303.17665888541666,
            "velocity": 0.3937007874015748
          },
          {
            "duration": 0.10869550000001027,
            "durationTicks": 96,
            "midi": 88,
            "name": "E6",
            "ticks": 267766,
            "time": 303.17665888541666,
            "velocity": 0.3937007874015748
          },
          {
            "duration": 0.10869550000001027,
            "durationTicks": 96,
            "midi": 76,
            "name": "E5",
            "ticks": 267766,
            "time": 303.17665888541666,
            "velocity": 0.3937007874015748
          },
          {
            "duration": 0.10869550000001027,
            "durationTicks": 96,
            "midi": 83,
            "name": "B5",
            "ticks": 267814,
            "time": 303.23100663541663,
            "velocity": 0.3937007874015748
          },
          {
            "duration": 0.10869550000001027,
            "durationTicks": 96,
            "midi": 59,
            "name": "B3",
            "ticks": 267814,
            "time": 303.23100663541663,
            "velocity": 0.3937007874015748
          },
          {
            "duration": 0.10869550000001027,
            "durationTicks": 96,
            "midi": 71,
            "name": "B4",
            "ticks": 267814,
            "time": 303.23100663541663,
            "velocity": 0.3937007874015748
          },
          {
            "duration": 0.10869550000001027,
            "durationTicks": 96,
            "midi": 47,
            "name": "B2",
            "ticks": 267814,
            "time": 303.23100663541663,
            "velocity": 0.3937007874015748
          },
          {
            "duration": 0.10869550000001027,
            "durationTicks": 96,
            "midi": 67,
            "name": "G4",
            "ticks": 267862,
            "time": 303.28535438541667,
            "velocity": 0.3937007874015748
          },
          {
            "duration": 0.10869550000001027,
            "durationTicks": 96,
            "midi": 43,
            "name": "G2",
            "ticks": 267862,
            "time": 303.28535438541667,
            "velocity": 0.3937007874015748
          },
          {
            "duration": 0.2173909999999637,
            "durationTicks": 192,
            "midi": 64,
            "name": "E4",
            "ticks": 267862,
            "time": 303.28535438541667,
            "velocity": 0.3937007874015748
          },
          {
            "duration": 0.2173909999999637,
            "durationTicks": 192,
            "midi": 67,
            "name": "G4",
            "ticks": 267862,
            "time": 303.28535438541667,
            "velocity": 0.3937007874015748
          },
          {
            "duration": 0.10869550000001027,
            "durationTicks": 96,
            "midi": 79,
            "name": "G5",
            "ticks": 267862,
            "time": 303.28535438541667,
            "velocity": 0.3937007874015748
          },
          {
            "duration": 0.2173909999999637,
            "durationTicks": 192,
            "midi": 76,
            "name": "E5",
            "ticks": 267862,
            "time": 303.28535438541667,
            "velocity": 0.3937007874015748
          },
          {
            "duration": 0.16304324999998698,
            "durationTicks": 144,
            "midi": 59,
            "name": "B3",
            "ticks": 267862,
            "time": 303.28535438541667,
            "velocity": 0.3937007874015748
          },
          {
            "duration": 0.2173909999999637,
            "durationTicks": 192,
            "midi": 79,
            "name": "G5",
            "ticks": 267862,
            "time": 303.28535438541667,
            "velocity": 0.3937007874015748
          },
          {
            "duration": 0.2173909999999637,
            "durationTicks": 192,
            "midi": 64,
            "name": "E4",
            "ticks": 267862,
            "time": 303.28535438541667,
            "velocity": 0.3937007874015748
          },
          {
            "duration": 0.10869550000001027,
            "durationTicks": 96,
            "midi": 55,
            "name": "G3",
            "ticks": 267862,
            "time": 303.28535438541667,
            "velocity": 0.3937007874015748
          },
          {
            "duration": 0.2173909999999637,
            "durationTicks": 192,
            "midi": 91,
            "name": "G6",
            "ticks": 267862,
            "time": 303.28535438541667,
            "velocity": 0.3937007874015748
          },
          {
            "duration": 0.2173909999999637,
            "durationTicks": 192,
            "midi": 88,
            "name": "E6",
            "ticks": 267862,
            "time": 303.28535438541667,
            "velocity": 0.3937007874015748
          },
          {
            "duration": 0.32608649999997397,
            "durationTicks": 288,
            "midi": 55,
            "name": "G3",
            "ticks": 267862,
            "time": 303.28535438541667,
            "velocity": 0.3937007874015748
          },
          {
            "duration": 0.10869550000001027,
            "durationTicks": 96,
            "midi": 47,
            "name": "B2",
            "ticks": 267910,
            "time": 303.33970213541664,
            "velocity": 0.3937007874015748
          },
          {
            "duration": 0.10869550000001027,
            "durationTicks": 96,
            "midi": 83,
            "name": "B5",
            "ticks": 267910,
            "time": 303.33970213541664,
            "velocity": 0.3937007874015748
          },
          {
            "duration": 0.21739100000002054,
            "durationTicks": 192,
            "midi": 59,
            "name": "B3",
            "ticks": 267910,
            "time": 303.33970213541664,
            "velocity": 0.3937007874015748
          },
          {
            "duration": 0.10869550000001027,
            "durationTicks": 96,
            "midi": 71,
            "name": "B4",
            "ticks": 267910,
            "time": 303.33970213541664,
            "velocity": 0.3937007874015748
          },
          {
            "duration": 0.10869549999995343,
            "durationTicks": 96,
            "midi": 88,
            "name": "E6",
            "ticks": 267958,
            "time": 303.3940498854167,
            "velocity": 0.3937007874015748
          },
          {
            "duration": 0.10869549999995343,
            "durationTicks": 96,
            "midi": 52,
            "name": "E3",
            "ticks": 267958,
            "time": 303.3940498854167,
            "velocity": 0.3937007874015748
          },
          {
            "duration": 0.2173909999999637,
            "durationTicks": 192,
            "midi": 64,
            "name": "E4",
            "ticks": 267958,
            "time": 303.3940498854167,
            "velocity": 0.3937007874015748
          },
          {
            "duration": 0.10869549999995343,
            "durationTicks": 96,
            "midi": 76,
            "name": "E5",
            "ticks": 267958,
            "time": 303.3940498854167,
            "velocity": 0.3937007874015748
          },
          {
            "duration": 0.10869550000001027,
            "durationTicks": 96,
            "midi": 71,
            "name": "B4",
            "ticks": 268006,
            "time": 303.44839763541665,
            "velocity": 0.3937007874015748
          },
          {
            "duration": 0.10869550000001027,
            "durationTicks": 96,
            "midi": 47,
            "name": "B2",
            "ticks": 268006,
            "time": 303.44839763541665,
            "velocity": 0.3937007874015748
          },
          {
            "duration": 0.16304324999998698,
            "durationTicks": 144,
            "midi": 59,
            "name": "B3",
            "ticks": 268006,
            "time": 303.44839763541665,
            "velocity": 0.3937007874015748
          },
          {
            "duration": 0.10869550000001027,
            "durationTicks": 96,
            "midi": 83,
            "name": "B5",
            "ticks": 268006,
            "time": 303.44839763541665,
            "velocity": 0.3937007874015748
          },
          {
            "duration": 0.10869550000001027,
            "durationTicks": 96,
            "midi": 55,
            "name": "G3",
            "ticks": 268054,
            "time": 303.50274538541663,
            "velocity": 0.3937007874015748
          },
          {
            "duration": 0.21739100000002054,
            "durationTicks": 192,
            "midi": 74,
            "name": "D5",
            "ticks": 268054,
            "time": 303.50274538541663,
            "velocity": 0.3937007874015748
          },
          {
            "duration": 0.10869550000001027,
            "durationTicks": 96,
            "midi": 79,
            "name": "G5",
            "ticks": 268054,
            "time": 303.50274538541663,
            "velocity": 0.3937007874015748
          },
          {
            "duration": 0.21739100000002054,
            "durationTicks": 192,
            "midi": 62,
            "name": "D4",
            "ticks": 268054,
            "time": 303.50274538541663,
            "velocity": 0.3937007874015748
          },
          {
            "duration": 0.21739100000002054,
            "durationTicks": 192,
            "midi": 78,
            "name": "F#5",
            "ticks": 268054,
            "time": 303.50274538541663,
            "velocity": 0.3937007874015748
          },
          {
            "duration": 0.21739100000002054,
            "durationTicks": 192,
            "midi": 86,
            "name": "D6",
            "ticks": 268054,
            "time": 303.50274538541663,
            "velocity": 0.3937007874015748
          },
          {
            "duration": 0.21739100000002054,
            "durationTicks": 192,
            "midi": 66,
            "name": "F#4",
            "ticks": 268054,
            "time": 303.50274538541663,
            "velocity": 0.3937007874015748
          },
          {
            "duration": 0.10869550000001027,
            "durationTicks": 96,
            "midi": 67,
            "name": "G4",
            "ticks": 268054,
            "time": 303.50274538541663,
            "velocity": 0.3937007874015748
          },
          {
            "duration": 0.21739100000002054,
            "durationTicks": 192,
            "midi": 90,
            "name": "F#6",
            "ticks": 268054,
            "time": 303.50274538541663,
            "velocity": 0.3937007874015748
          },
          {
            "duration": 0.10869550000001027,
            "durationTicks": 96,
            "midi": 43,
            "name": "G2",
            "ticks": 268054,
            "time": 303.50274538541663,
            "velocity": 0.3937007874015748
          },
          {
            "duration": 0.10869550000001027,
            "durationTicks": 96,
            "midi": 83,
            "name": "B5",
            "ticks": 268102,
            "time": 303.55709313541666,
            "velocity": 0.3937007874015748
          },
          {
            "duration": 0.10869550000001027,
            "durationTicks": 96,
            "midi": 59,
            "name": "B3",
            "ticks": 268102,
            "time": 303.55709313541666,
            "velocity": 0.3937007874015748
          },
          {
            "duration": 0.10869550000001027,
            "durationTicks": 96,
            "midi": 47,
            "name": "B2",
            "ticks": 268102,
            "time": 303.55709313541666,
            "velocity": 0.3937007874015748
          },
          {
            "duration": 0.10869550000001027,
            "durationTicks": 96,
            "midi": 71,
            "name": "B4",
            "ticks": 268102,
            "time": 303.55709313541666,
            "velocity": 0.3937007874015748
          },
          {
            "duration": 0.10869550000001027,
            "durationTicks": 96,
            "midi": 76,
            "name": "E5",
            "ticks": 268150,
            "time": 303.61144088541664,
            "velocity": 0.3937007874015748
          },
          {
            "duration": 0.10869550000001027,
            "durationTicks": 96,
            "midi": 64,
            "name": "E4",
            "ticks": 268150,
            "time": 303.61144088541664,
            "velocity": 0.3937007874015748
          },
          {
            "duration": 0.3260865000000308,
            "durationTicks": 288,
            "midi": 64,
            "name": "E4",
            "ticks": 268150,
            "time": 303.61144088541664,
            "velocity": 0.3937007874015748
          },
          {
            "duration": 0.21739100000002054,
            "durationTicks": 192,
            "midi": 55,
            "name": "G3",
            "ticks": 268150,
            "time": 303.61144088541664,
            "velocity": 0.3937007874015748
          },
          {
            "duration": 0.16304324999998698,
            "durationTicks": 144,
            "midi": 59,
            "name": "B3",
            "ticks": 268150,
            "time": 303.61144088541664,
            "velocity": 0.3937007874015748
          },
          {
            "duration": 0.10869550000001027,
            "durationTicks": 96,
            "midi": 88,
            "name": "E6",
            "ticks": 268150,
            "time": 303.61144088541664,
            "velocity": 0.3937007874015748
          },
          {
            "duration": 0.10869550000001027,
            "durationTicks": 96,
            "midi": 52,
            "name": "E3",
            "ticks": 268150,
            "time": 303.61144088541664,
            "velocity": 0.3937007874015748
          },
          {
            "duration": 0.10869549999995343,
            "durationTicks": 96,
            "midi": 47,
            "name": "B2",
            "ticks": 268198,
            "time": 303.6657886354167,
            "velocity": 0.3937007874015748
          },
          {
            "duration": 0.2173909999999637,
            "durationTicks": 192,
            "midi": 59,
            "name": "B3",
            "ticks": 268198,
            "time": 303.6657886354167,
            "velocity": 0.3937007874015748
          },
          {
            "duration": 0.10869549999995343,
            "durationTicks": 96,
            "midi": 71,
            "name": "B4",
            "ticks": 268198,
            "time": 303.6657886354167,
            "velocity": 0.3937007874015748
          },
          {
            "duration": 0.10869549999995343,
            "durationTicks": 96,
            "midi": 83,
            "name": "B5",
            "ticks": 268198,
            "time": 303.6657886354167,
            "velocity": 0.3937007874015748
          },
          {
            "duration": 0.10869550000001027,
            "durationTicks": 96,
            "midi": 43,
            "name": "G2",
            "ticks": 268246,
            "time": 303.72013638541665,
            "velocity": 0.3937007874015748
          },
          {
            "duration": 0.10869550000001027,
            "durationTicks": 96,
            "midi": 79,
            "name": "G5",
            "ticks": 268246,
            "time": 303.72013638541665,
            "velocity": 0.3937007874015748
          },
          {
            "duration": 0.21739100000002054,
            "durationTicks": 192,
            "midi": 86,
            "name": "D6",
            "ticks": 268246,
            "time": 303.72013638541665,
            "velocity": 0.3937007874015748
          },
          {
            "duration": 0.21739100000002054,
            "durationTicks": 192,
            "midi": 74,
            "name": "D5",
            "ticks": 268246,
            "time": 303.72013638541665,
            "velocity": 0.3937007874015748
          },
          {
            "duration": 0.21739100000002054,
            "durationTicks": 192,
            "midi": 55,
            "name": "G3",
            "ticks": 268246,
            "time": 303.72013638541665,
            "velocity": 0.3937007874015748
          },
          {
            "duration": 0.21739100000002054,
            "durationTicks": 192,
            "midi": 57,
            "name": "A3",
            "ticks": 268246,
            "time": 303.72013638541665,
            "velocity": 0.3937007874015748
          },
          {
            "duration": 0.21739100000002054,
            "durationTicks": 192,
            "midi": 69,
            "name": "A4",
            "ticks": 268246,
            "time": 303.72013638541665,
            "velocity": 0.3937007874015748
          },
          {
            "duration": 0.10869550000001027,
            "durationTicks": 96,
            "midi": 67,
            "name": "G4",
            "ticks": 268246,
            "time": 303.72013638541665,
            "velocity": 0.3937007874015748
          },
          {
            "duration": 0.21739100000002054,
            "durationTicks": 192,
            "midi": 62,
            "name": "D4",
            "ticks": 268246,
            "time": 303.72013638541665,
            "velocity": 0.3937007874015748
          },
          {
            "duration": 0.21739100000002054,
            "durationTicks": 192,
            "midi": 81,
            "name": "A5",
            "ticks": 268246,
            "time": 303.72013638541665,
            "velocity": 0.3937007874015748
          },
          {
            "duration": 0.10869550000001027,
            "durationTicks": 96,
            "midi": 47,
            "name": "B2",
            "ticks": 268294,
            "time": 303.7744841354166,
            "velocity": 0.3937007874015748
          },
          {
            "duration": 0.16304325000004383,
            "durationTicks": 144,
            "midi": 59,
            "name": "B3",
            "ticks": 268294,
            "time": 303.7744841354166,
            "velocity": 0.3937007874015748
          },
          {
            "duration": 0.10869550000001027,
            "durationTicks": 96,
            "midi": 71,
            "name": "B4",
            "ticks": 268294,
            "time": 303.7744841354166,
            "velocity": 0.3937007874015748
          },
          {
            "duration": 0.10869550000001027,
            "durationTicks": 96,
            "midi": 83,
            "name": "B5",
            "ticks": 268294,
            "time": 303.7744841354166,
            "velocity": 0.3937007874015748
          },
          {
            "duration": 0.10869550000001027,
            "durationTicks": 96,
            "midi": 76,
            "name": "E5",
            "ticks": 268342,
            "time": 303.82883188541666,
            "velocity": 0.3937007874015748
          },
          {
            "duration": 0.10869550000001027,
            "durationTicks": 96,
            "midi": 88,
            "name": "E6",
            "ticks": 268342,
            "time": 303.82883188541666,
            "velocity": 0.3937007874015748
          },
          {
            "duration": 0.10869550000001027,
            "durationTicks": 96,
            "midi": 52,
            "name": "E3",
            "ticks": 268342,
            "time": 303.82883188541666,
            "velocity": 0.3937007874015748
          },
          {
            "duration": 0.10869550000001027,
            "durationTicks": 96,
            "midi": 64,
            "name": "E4",
            "ticks": 268342,
            "time": 303.82883188541666,
            "velocity": 0.3937007874015748
          },
          {
            "duration": 0.10869550000001027,
            "durationTicks": 96,
            "midi": 59,
            "name": "B3",
            "ticks": 268390,
            "time": 303.88317963541664,
            "velocity": 0.3937007874015748
          },
          {
            "duration": 0.10869550000001027,
            "durationTicks": 96,
            "midi": 83,
            "name": "B5",
            "ticks": 268390,
            "time": 303.88317963541664,
            "velocity": 0.3937007874015748
          },
          {
            "duration": 0.10869550000001027,
            "durationTicks": 96,
            "midi": 47,
            "name": "B2",
            "ticks": 268390,
            "time": 303.88317963541664,
            "velocity": 0.3937007874015748
          },
          {
            "duration": 0.10869550000001027,
            "durationTicks": 96,
            "midi": 71,
            "name": "B4",
            "ticks": 268390,
            "time": 303.88317963541664,
            "velocity": 0.3937007874015748
          },
          {
            "duration": 0.10869549999995343,
            "durationTicks": 96,
            "midi": 67,
            "name": "G4",
            "ticks": 268438,
            "time": 303.9375273854167,
            "velocity": 0.3937007874015748
          },
          {
            "duration": 0.2173909999999637,
            "durationTicks": 192,
            "midi": 64,
            "name": "E4",
            "ticks": 268438,
            "time": 303.9375273854167,
            "velocity": 0.3937007874015748
          },
          {
            "duration": 0.2173909999999637,
            "durationTicks": 192,
            "midi": 88,
            "name": "E6",
            "ticks": 268438,
            "time": 303.9375273854167,
            "velocity": 0.3937007874015748
          },
          {
            "duration": 0.16304324999998698,
            "durationTicks": 144,
            "midi": 83,
            "name": "B5",
            "ticks": 268438,
            "time": 303.9375273854167,
            "velocity": 0.3937007874015748
          },
          {
            "duration": 0.2173909999999637,
            "durationTicks": 192,
            "midi": 64,
            "name": "E4",
            "ticks": 268438,
            "time": 303.9375273854167,
            "velocity": 0.3937007874015748
          },
          {
            "duration": 0.10869549999995343,
            "durationTicks": 96,
            "midi": 43,
            "name": "G2",
            "ticks": 268438,
            "time": 303.9375273854167,
            "velocity": 0.3937007874015748
          },
          {
            "duration": 0.16304324999998698,
            "durationTicks": 144,
            "midi": 59,
            "name": "B3",
            "ticks": 268438,
            "time": 303.9375273854167,
            "velocity": 0.3937007874015748
          },
          {
            "duration": 0.10869549999995343,
            "durationTicks": 96,
            "midi": 55,
            "name": "G3",
            "ticks": 268438,
            "time": 303.9375273854167,
            "velocity": 0.3937007874015748
          },
          {
            "duration": 0.2173909999999637,
            "durationTicks": 192,
            "midi": 55,
            "name": "G3",
            "ticks": 268438,
            "time": 303.9375273854167,
            "velocity": 0.3937007874015748
          },
          {
            "duration": 0.2173909999999637,
            "durationTicks": 192,
            "midi": 76,
            "name": "E5",
            "ticks": 268438,
            "time": 303.9375273854167,
            "velocity": 0.3937007874015748
          },
          {
            "duration": 0.2173909999999637,
            "durationTicks": 192,
            "midi": 59,
            "name": "B3",
            "ticks": 268438,
            "time": 303.9375273854167,
            "velocity": 0.3937007874015748
          },
          {
            "duration": 0.16304324999998698,
            "durationTicks": 144,
            "midi": 71,
            "name": "B4",
            "ticks": 268438,
            "time": 303.9375273854167,
            "velocity": 0.3937007874015748
          },
          {
            "duration": 0.10869549999995343,
            "durationTicks": 96,
            "midi": 79,
            "name": "G5",
            "ticks": 268438,
            "time": 303.9375273854167,
            "velocity": 0.3937007874015748
          },
          {
            "duration": 0.16304324999998698,
            "durationTicks": 144,
            "midi": 59,
            "name": "B3",
            "ticks": 268486,
            "time": 303.99187513541665,
            "velocity": 0.3937007874015748
          },
          {
            "duration": 0.10869550000001027,
            "durationTicks": 96,
            "midi": 47,
            "name": "B2",
            "ticks": 268486,
            "time": 303.99187513541665,
            "velocity": 0.3937007874015748
          },
          {
            "duration": 0.16304324999998698,
            "durationTicks": 144,
            "midi": 71,
            "name": "B4",
            "ticks": 268486,
            "time": 303.99187513541665,
            "velocity": 0.3937007874015748
          },
          {
            "duration": 0.16304324999998698,
            "durationTicks": 144,
            "midi": 83,
            "name": "B5",
            "ticks": 268486,
            "time": 303.99187513541665,
            "velocity": 0.3937007874015748
          },
          {
            "duration": 0.10869550000001027,
            "durationTicks": 96,
            "midi": 76,
            "name": "E5",
            "ticks": 268534,
            "time": 304.0462228854166,
            "velocity": 0.3937007874015748
          },
          {
            "duration": 0.10869550000001027,
            "durationTicks": 96,
            "midi": 88,
            "name": "E6",
            "ticks": 268534,
            "time": 304.0462228854166,
            "velocity": 0.3937007874015748
          },
          {
            "duration": 0.10869550000001027,
            "durationTicks": 96,
            "midi": 52,
            "name": "E3",
            "ticks": 268534,
            "time": 304.0462228854166,
            "velocity": 0.3937007874015748
          },
          {
            "duration": 0.10869550000001027,
            "durationTicks": 96,
            "midi": 64,
            "name": "E4",
            "ticks": 268534,
            "time": 304.0462228854166,
            "velocity": 0.3937007874015748
          },
          {
            "duration": 0.10869550000001027,
            "durationTicks": 96,
            "midi": 83,
            "name": "B5",
            "ticks": 268582,
            "time": 304.10057063541666,
            "velocity": 0.3937007874015748
          },
          {
            "duration": 0.10869550000001027,
            "durationTicks": 96,
            "midi": 47,
            "name": "B2",
            "ticks": 268582,
            "time": 304.10057063541666,
            "velocity": 0.3937007874015748
          },
          {
            "duration": 0.10869550000001027,
            "durationTicks": 96,
            "midi": 59,
            "name": "B3",
            "ticks": 268582,
            "time": 304.10057063541666,
            "velocity": 0.3937007874015748
          },
          {
            "duration": 0.10869550000001027,
            "durationTicks": 96,
            "midi": 71,
            "name": "B4",
            "ticks": 268582,
            "time": 304.10057063541666,
            "velocity": 0.3937007874015748
          },
          {
            "duration": 0.21739100000002054,
            "durationTicks": 192,
            "midi": 64,
            "name": "E4",
            "ticks": 268630,
            "time": 304.15491838541664,
            "velocity": 0.3937007874015748
          },
          {
            "duration": 0.10869550000001027,
            "durationTicks": 96,
            "midi": 67,
            "name": "G4",
            "ticks": 268630,
            "time": 304.15491838541664,
            "velocity": 0.3937007874015748
          },
          {
            "duration": 0.10869550000001027,
            "durationTicks": 96,
            "midi": 43,
            "name": "G2",
            "ticks": 268630,
            "time": 304.15491838541664,
            "velocity": 0.3937007874015748
          },
          {
            "duration": 0.10869550000001027,
            "durationTicks": 96,
            "midi": 55,
            "name": "G3",
            "ticks": 268630,
            "time": 304.15491838541664,
            "velocity": 0.3937007874015748
          },
          {
            "duration": 0.10869550000001027,
            "durationTicks": 96,
            "midi": 79,
            "name": "G5",
            "ticks": 268630,
            "time": 304.15491838541664,
            "velocity": 0.3937007874015748
          },
          {
            "duration": 0.3260865000000308,
            "durationTicks": 288,
            "midi": 55,
            "name": "G3",
            "ticks": 268630,
            "time": 304.15491838541664,
            "velocity": 0.3937007874015748
          },
          {
            "duration": 0.16304325000004383,
            "durationTicks": 144,
            "midi": 59,
            "name": "B3",
            "ticks": 268630,
            "time": 304.15491838541664,
            "velocity": 0.3937007874015748
          },
          {
            "duration": 0.10869550000001027,
            "durationTicks": 96,
            "midi": 71,
            "name": "B4",
            "ticks": 268678,
            "time": 304.20926613541667,
            "velocity": 0.3937007874015748
          },
          {
            "duration": 0.10869550000001027,
            "durationTicks": 96,
            "midi": 83,
            "name": "B5",
            "ticks": 268678,
            "time": 304.20926613541667,
            "velocity": 0.3937007874015748
          },
          {
            "duration": 0.10869550000001027,
            "durationTicks": 96,
            "midi": 47,
            "name": "B2",
            "ticks": 268678,
            "time": 304.20926613541667,
            "velocity": 0.3937007874015748
          },
          {
            "duration": 0.2173909999999637,
            "durationTicks": 192,
            "midi": 59,
            "name": "B3",
            "ticks": 268678,
            "time": 304.20926613541667,
            "velocity": 0.3937007874015748
          },
          {
            "duration": 0.21739100000002054,
            "durationTicks": 192,
            "midi": 64,
            "name": "E4",
            "ticks": 268726,
            "time": 304.26361388541665,
            "velocity": 0.3937007874015748
          },
          {
            "duration": 0.10869550000001027,
            "durationTicks": 96,
            "midi": 52,
            "name": "E3",
            "ticks": 268726,
            "time": 304.26361388541665,
            "velocity": 0.3937007874015748
          },
          {
            "duration": 0.10869550000001027,
            "durationTicks": 96,
            "midi": 88,
            "name": "E6",
            "ticks": 268726,
            "time": 304.26361388541665,
            "velocity": 0.3937007874015748
          },
          {
            "duration": 0.10869550000001027,
            "durationTicks": 96,
            "midi": 76,
            "name": "E5",
            "ticks": 268726,
            "time": 304.26361388541665,
            "velocity": 0.3937007874015748
          },
          {
            "duration": 0.10869549999995343,
            "durationTicks": 96,
            "midi": 71,
            "name": "B4",
            "ticks": 268774,
            "time": 304.3179616354167,
            "velocity": 0.3937007874015748
          },
          {
            "duration": 0.10869549999995343,
            "durationTicks": 96,
            "midi": 47,
            "name": "B2",
            "ticks": 268774,
            "time": 304.3179616354167,
            "velocity": 0.3937007874015748
          },
          {
            "duration": 0.10869549999995343,
            "durationTicks": 96,
            "midi": 83,
            "name": "B5",
            "ticks": 268774,
            "time": 304.3179616354167,
            "velocity": 0.3937007874015748
          },
          {
            "duration": 0.16304324999998698,
            "durationTicks": 144,
            "midi": 59,
            "name": "B3",
            "ticks": 268774,
            "time": 304.3179616354167,
            "velocity": 0.3937007874015748
          },
          {
            "duration": 0.21739100000002054,
            "durationTicks": 192,
            "midi": 69,
            "name": "A4",
            "ticks": 268822,
            "time": 304.37230938541666,
            "velocity": 0.3937007874015748
          },
          {
            "duration": 0.21739100000002054,
            "durationTicks": 192,
            "midi": 57,
            "name": "A3",
            "ticks": 268822,
            "time": 304.37230938541666,
            "velocity": 0.3937007874015748
          },
          {
            "duration": 0.10869550000001027,
            "durationTicks": 96,
            "midi": 67,
            "name": "G4",
            "ticks": 268822,
            "time": 304.37230938541666,
            "velocity": 0.3937007874015748
          },
          {
            "duration": 0.21739100000002054,
            "durationTicks": 192,
            "midi": 81,
            "name": "A5",
            "ticks": 268822,
            "time": 304.37230938541666,
            "velocity": 0.3937007874015748
          },
          {
            "duration": 0.10869550000001027,
            "durationTicks": 96,
            "midi": 79,
            "name": "G5",
            "ticks": 268822,
            "time": 304.37230938541666,
            "velocity": 0.3937007874015748
          },
          {
            "duration": 0.21739100000002054,
            "durationTicks": 192,
            "midi": 86,
            "name": "D6",
            "ticks": 268822,
            "time": 304.37230938541666,
            "velocity": 0.3937007874015748
          },
          {
            "duration": 0.21739100000002054,
            "durationTicks": 192,
            "midi": 62,
            "name": "D4",
            "ticks": 268822,
            "time": 304.37230938541666,
            "velocity": 0.3937007874015748
          },
          {
            "duration": 0.10869550000001027,
            "durationTicks": 96,
            "midi": 55,
            "name": "G3",
            "ticks": 268822,
            "time": 304.37230938541666,
            "velocity": 0.3937007874015748
          },
          {
            "duration": 0.10869550000001027,
            "durationTicks": 96,
            "midi": 43,
            "name": "G2",
            "ticks": 268822,
            "time": 304.37230938541666,
            "velocity": 0.3937007874015748
          },
          {
            "duration": 0.21739100000002054,
            "durationTicks": 192,
            "midi": 74,
            "name": "D5",
            "ticks": 268822,
            "time": 304.37230938541666,
            "velocity": 0.3937007874015748
          },
          {
            "duration": 0.10869550000001027,
            "durationTicks": 96,
            "midi": 47,
            "name": "B2",
            "ticks": 268870,
            "time": 304.42665713541663,
            "velocity": 0.3937007874015748
          },
          {
            "duration": 0.10869550000001027,
            "durationTicks": 96,
            "midi": 71,
            "name": "B4",
            "ticks": 268870,
            "time": 304.42665713541663,
            "velocity": 0.3937007874015748
          },
          {
            "duration": 0.10869550000001027,
            "durationTicks": 96,
            "midi": 83,
            "name": "B5",
            "ticks": 268870,
            "time": 304.42665713541663,
            "velocity": 0.3937007874015748
          },
          {
            "duration": 0.10869550000001027,
            "durationTicks": 96,
            "midi": 59,
            "name": "B3",
            "ticks": 268870,
            "time": 304.42665713541663,
            "velocity": 0.3937007874015748
          },
          {
            "duration": 0.10869550000001027,
            "durationTicks": 96,
            "midi": 64,
            "name": "E4",
            "ticks": 268918,
            "time": 304.48100488541667,
            "velocity": 0.3937007874015748
          },
          {
            "duration": 0.10869550000001027,
            "durationTicks": 96,
            "midi": 88,
            "name": "E6",
            "ticks": 268918,
            "time": 304.48100488541667,
            "velocity": 0.3937007874015748
          },
          {
            "duration": 0.16304324999998698,
            "durationTicks": 144,
            "midi": 59,
            "name": "B3",
            "ticks": 268918,
            "time": 304.48100488541667,
            "velocity": 0.3937007874015748
          },
          {
            "duration": 0.10869550000001027,
            "durationTicks": 96,
            "midi": 52,
            "name": "E3",
            "ticks": 268918,
            "time": 304.48100488541667,
            "velocity": 0.3937007874015748
          },
          {
            "duration": 0.10869550000001027,
            "durationTicks": 96,
            "midi": 76,
            "name": "E5",
            "ticks": 268918,
            "time": 304.48100488541667,
            "velocity": 0.3937007874015748
          },
          {
            "duration": 0.2173909999999637,
            "durationTicks": 192,
            "midi": 55,
            "name": "G3",
            "ticks": 268918,
            "time": 304.48100488541667,
            "velocity": 0.3937007874015748
          },
          {
            "duration": 0.32608649999997397,
            "durationTicks": 288,
            "midi": 64,
            "name": "E4",
            "ticks": 268918,
            "time": 304.48100488541667,
            "velocity": 0.3937007874015748
          },
          {
            "duration": 0.10869550000001027,
            "durationTicks": 96,
            "midi": 83,
            "name": "B5",
            "ticks": 268966,
            "time": 304.53535263541664,
            "velocity": 0.3937007874015748
          },
          {
            "duration": 0.10869550000001027,
            "durationTicks": 96,
            "midi": 47,
            "name": "B2",
            "ticks": 268966,
            "time": 304.53535263541664,
            "velocity": 0.3937007874015748
          },
          {
            "duration": 0.10869550000001027,
            "durationTicks": 96,
            "midi": 71,
            "name": "B4",
            "ticks": 268966,
            "time": 304.53535263541664,
            "velocity": 0.3937007874015748
          },
          {
            "duration": 0.21739100000002054,
            "durationTicks": 192,
            "midi": 59,
            "name": "B3",
            "ticks": 268966,
            "time": 304.53535263541664,
            "velocity": 0.3937007874015748
          },
          {
            "duration": 0.10869549999995343,
            "durationTicks": 96,
            "midi": 67,
            "name": "G4",
            "ticks": 269014,
            "time": 304.5897003854167,
            "velocity": 0.3937007874015748
          },
          {
            "duration": 0.2173909999999637,
            "durationTicks": 192,
            "midi": 55,
            "name": "G3",
            "ticks": 269014,
            "time": 304.5897003854167,
            "velocity": 0.3937007874015748
          },
          {
            "duration": 0.16304324999998698,
            "durationTicks": 144,
            "midi": 83,
            "name": "B5",
            "ticks": 269014,
            "time": 304.5897003854167,
            "velocity": 0.3937007874015748
          },
          {
            "duration": 0.10869549999995343,
            "durationTicks": 96,
            "midi": 79,
            "name": "G5",
            "ticks": 269014,
            "time": 304.5897003854167,
            "velocity": 0.3937007874015748
          },
          {
            "duration": 0.2173909999999637,
            "durationTicks": 192,
            "midi": 76,
            "name": "E5",
            "ticks": 269014,
            "time": 304.5897003854167,
            "velocity": 0.3937007874015748
          },
          {
            "duration": 0.10869549999995343,
            "durationTicks": 96,
            "midi": 43,
            "name": "G2",
            "ticks": 269014,
            "time": 304.5897003854167,
            "velocity": 0.3937007874015748
          },
          {
            "duration": 0.2173909999999637,
            "durationTicks": 192,
            "midi": 88,
            "name": "E6",
            "ticks": 269014,
            "time": 304.5897003854167,
            "velocity": 0.3937007874015748
          },
          {
            "duration": 0.2173909999999637,
            "durationTicks": 192,
            "midi": 64,
            "name": "E4",
            "ticks": 269014,
            "time": 304.5897003854167,
            "velocity": 0.3937007874015748
          },
          {
            "duration": 0.16304324999998698,
            "durationTicks": 144,
            "midi": 71,
            "name": "B4",
            "ticks": 269014,
            "time": 304.5897003854167,
            "velocity": 0.3937007874015748
          },
          {
            "duration": 0.2173909999999637,
            "durationTicks": 192,
            "midi": 59,
            "name": "B3",
            "ticks": 269014,
            "time": 304.5897003854167,
            "velocity": 0.3937007874015748
          },
          {
            "duration": 0.16304324999998698,
            "durationTicks": 144,
            "midi": 59,
            "name": "B3",
            "ticks": 269062,
            "time": 304.64404813541665,
            "velocity": 0.3937007874015748
          },
          {
            "duration": 0.16304324999998698,
            "durationTicks": 144,
            "midi": 83,
            "name": "B5",
            "ticks": 269062,
            "time": 304.64404813541665,
            "velocity": 0.3937007874015748
          },
          {
            "duration": 0.16304324999998698,
            "durationTicks": 144,
            "midi": 71,
            "name": "B4",
            "ticks": 269062,
            "time": 304.64404813541665,
            "velocity": 0.3937007874015748
          },
          {
            "duration": 0.10869550000001027,
            "durationTicks": 96,
            "midi": 47,
            "name": "B2",
            "ticks": 269062,
            "time": 304.64404813541665,
            "velocity": 0.3937007874015748
          },
          {
            "duration": 0.10869550000001027,
            "durationTicks": 96,
            "midi": 64,
            "name": "E4",
            "ticks": 269110,
            "time": 304.69839588541663,
            "velocity": 0.3937007874015748
          },
          {
            "duration": 0.10869550000001027,
            "durationTicks": 96,
            "midi": 76,
            "name": "E5",
            "ticks": 269110,
            "time": 304.69839588541663,
            "velocity": 0.3937007874015748
          },
          {
            "duration": 0.10869550000001027,
            "durationTicks": 96,
            "midi": 88,
            "name": "E6",
            "ticks": 269110,
            "time": 304.69839588541663,
            "velocity": 0.3937007874015748
          },
          {
            "duration": 0.10869550000001027,
            "durationTicks": 96,
            "midi": 52,
            "name": "E3",
            "ticks": 269110,
            "time": 304.69839588541663,
            "velocity": 0.3937007874015748
          },
          {
            "duration": 0.10869550000001027,
            "durationTicks": 96,
            "midi": 59,
            "name": "B3",
            "ticks": 269158,
            "time": 304.75274363541666,
            "velocity": 0.3937007874015748
          },
          {
            "duration": 0.10869550000001027,
            "durationTicks": 96,
            "midi": 83,
            "name": "B5",
            "ticks": 269158,
            "time": 304.75274363541666,
            "velocity": 0.3937007874015748
          },
          {
            "duration": 0.10869550000001027,
            "durationTicks": 96,
            "midi": 71,
            "name": "B4",
            "ticks": 269158,
            "time": 304.75274363541666,
            "velocity": 0.3937007874015748
          },
          {
            "duration": 0.10869550000001027,
            "durationTicks": 96,
            "midi": 47,
            "name": "B2",
            "ticks": 269158,
            "time": 304.75274363541666,
            "velocity": 0.3937007874015748
          },
          {
            "duration": 0.21739100000002054,
            "durationTicks": 192,
            "midi": 64,
            "name": "E4",
            "ticks": 269206,
            "time": 304.80709138541664,
            "velocity": 0.3937007874015748
          },
          {
            "duration": 0.21739100000002054,
            "durationTicks": 192,
            "midi": 78,
            "name": "F#5",
            "ticks": 269206,
            "time": 304.80709138541664,
            "velocity": 0.3937007874015748
          },
          {
            "duration": 0.21739100000002054,
            "durationTicks": 192,
            "midi": 90,
            "name": "F#6",
            "ticks": 269206,
            "time": 304.80709138541664,
            "velocity": 0.3937007874015748
          },
          {
            "duration": 0.10869550000001027,
            "durationTicks": 96,
            "midi": 67,
            "name": "G4",
            "ticks": 269206,
            "time": 304.80709138541664,
            "velocity": 0.3937007874015748
          },
          {
            "duration": 0.21739100000002054,
            "durationTicks": 192,
            "midi": 74,
            "name": "D5",
            "ticks": 269206,
            "time": 304.80709138541664,
            "velocity": 0.3937007874015748
          },
          {
            "duration": 0.10869550000001027,
            "durationTicks": 96,
            "midi": 55,
            "name": "G3",
            "ticks": 269206,
            "time": 304.80709138541664,
            "velocity": 0.3937007874015748
          },
          {
            "duration": 0.21739100000002054,
            "durationTicks": 192,
            "midi": 86,
            "name": "D6",
            "ticks": 269206,
            "time": 304.80709138541664,
            "velocity": 0.3937007874015748
          },
          {
            "duration": 0.10869550000001027,
            "durationTicks": 96,
            "midi": 79,
            "name": "G5",
            "ticks": 269206,
            "time": 304.80709138541664,
            "velocity": 0.3937007874015748
          },
          {
            "duration": 0.21739100000002054,
            "durationTicks": 192,
            "midi": 62,
            "name": "D4",
            "ticks": 269206,
            "time": 304.80709138541664,
            "velocity": 0.3937007874015748
          },
          {
            "duration": 0.10869550000001027,
            "durationTicks": 96,
            "midi": 43,
            "name": "G2",
            "ticks": 269206,
            "time": 304.80709138541664,
            "velocity": 0.3937007874015748
          },
          {
            "duration": 0.21739100000002054,
            "durationTicks": 192,
            "midi": 66,
            "name": "F#4",
            "ticks": 269206,
            "time": 304.80709138541664,
            "velocity": 0.3937007874015748
          },
          {
            "duration": 0.21739100000002054,
            "durationTicks": 192,
            "midi": 55,
            "name": "G3",
            "ticks": 269206,
            "time": 304.80709138541664,
            "velocity": 0.3937007874015748
          },
          {
            "duration": 0.16304324999998698,
            "durationTicks": 144,
            "midi": 59,
            "name": "B3",
            "ticks": 269206,
            "time": 304.80709138541664,
            "velocity": 0.3937007874015748
          },
          {
            "duration": 0.10869549999995343,
            "durationTicks": 96,
            "midi": 47,
            "name": "B2",
            "ticks": 269254,
            "time": 304.8614391354167,
            "velocity": 0.3937007874015748
          },
          {
            "duration": 0.16304324999998698,
            "durationTicks": 144,
            "midi": 59,
            "name": "B3",
            "ticks": 269254,
            "time": 304.8614391354167,
            "velocity": 0.3937007874015748
          },
          {
            "duration": 0.10869549999995343,
            "durationTicks": 96,
            "midi": 71,
            "name": "B4",
            "ticks": 269254,
            "time": 304.8614391354167,
            "velocity": 0.3937007874015748
          },
          {
            "duration": 0.10869549999995343,
            "durationTicks": 96,
            "midi": 83,
            "name": "B5",
            "ticks": 269254,
            "time": 304.8614391354167,
            "velocity": 0.3937007874015748
          },
          {
            "duration": 0.10869550000001027,
            "durationTicks": 96,
            "midi": 64,
            "name": "E4",
            "ticks": 269302,
            "time": 304.91578688541665,
            "velocity": 0.3937007874015748
          },
          {
            "duration": 0.10869550000001027,
            "durationTicks": 96,
            "midi": 76,
            "name": "E5",
            "ticks": 269302,
            "time": 304.91578688541665,
            "velocity": 0.3937007874015748
          },
          {
            "duration": 0.10869550000001027,
            "durationTicks": 96,
            "midi": 88,
            "name": "E6",
            "ticks": 269302,
            "time": 304.91578688541665,
            "velocity": 0.3937007874015748
          },
          {
            "duration": 0.10869550000001027,
            "durationTicks": 96,
            "midi": 52,
            "name": "E3",
            "ticks": 269302,
            "time": 304.91578688541665,
            "velocity": 0.3937007874015748
          },
          {
            "duration": 0.10869550000001027,
            "durationTicks": 96,
            "midi": 59,
            "name": "B3",
            "ticks": 269350,
            "time": 304.9701346354166,
            "velocity": 0.3937007874015748
          },
          {
            "duration": 0.10869550000001027,
            "durationTicks": 96,
            "midi": 71,
            "name": "B4",
            "ticks": 269350,
            "time": 304.9701346354166,
            "velocity": 0.3937007874015748
          },
          {
            "duration": 0.10869550000001027,
            "durationTicks": 96,
            "midi": 83,
            "name": "B5",
            "ticks": 269350,
            "time": 304.9701346354166,
            "velocity": 0.3937007874015748
          },
          {
            "duration": 0.10869550000001027,
            "durationTicks": 96,
            "midi": 47,
            "name": "B2",
            "ticks": 269350,
            "time": 304.9701346354166,
            "velocity": 0.3937007874015748
          },
          {
            "duration": 0.10869550000001027,
            "durationTicks": 96,
            "midi": 79,
            "name": "G5",
            "ticks": 269398,
            "time": 305.02448238541666,
            "velocity": 0.3937007874015748
          },
          {
            "duration": 0.10869550000001027,
            "durationTicks": 96,
            "midi": 55,
            "name": "G3",
            "ticks": 269398,
            "time": 305.02448238541666,
            "velocity": 0.3937007874015748
          },
          {
            "duration": 0.10869550000001027,
            "durationTicks": 96,
            "midi": 67,
            "name": "G4",
            "ticks": 269398,
            "time": 305.02448238541666,
            "velocity": 0.3937007874015748
          },
          {
            "duration": 0.16304324999998698,
            "durationTicks": 144,
            "midi": 59,
            "name": "B3",
            "ticks": 269398,
            "time": 305.02448238541666,
            "velocity": 0.3937007874015748
          },
          {
            "duration": 0.2173909999999637,
            "durationTicks": 192,
            "midi": 67,
            "name": "G4",
            "ticks": 269398,
            "time": 305.02448238541666,
            "velocity": 0.3937007874015748
          },
          {
            "duration": 0.2173909999999637,
            "durationTicks": 192,
            "midi": 64,
            "name": "E4",
            "ticks": 269398,
            "time": 305.02448238541666,
            "velocity": 0.3937007874015748
          },
          {
            "duration": 0.10869550000001027,
            "durationTicks": 96,
            "midi": 43,
            "name": "G2",
            "ticks": 269398,
            "time": 305.02448238541666,
            "velocity": 0.3937007874015748
          },
          {
            "duration": 0.2173909999999637,
            "durationTicks": 192,
            "midi": 88,
            "name": "E6",
            "ticks": 269398,
            "time": 305.02448238541666,
            "velocity": 0.3937007874015748
          },
          {
            "duration": 0.2173909999999637,
            "durationTicks": 192,
            "midi": 91,
            "name": "G6",
            "ticks": 269398,
            "time": 305.02448238541666,
            "velocity": 0.3937007874015748
          },
          {
            "duration": 0.2173909999999637,
            "durationTicks": 192,
            "midi": 64,
            "name": "E4",
            "ticks": 269398,
            "time": 305.02448238541666,
            "velocity": 0.3937007874015748
          },
          {
            "duration": 0.2173909999999637,
            "durationTicks": 192,
            "midi": 79,
            "name": "G5",
            "ticks": 269398,
            "time": 305.02448238541666,
            "velocity": 0.3937007874015748
          },
          {
            "duration": 0.32608649999997397,
            "durationTicks": 288,
            "midi": 55,
            "name": "G3",
            "ticks": 269398,
            "time": 305.02448238541666,
            "velocity": 0.3937007874015748
          },
          {
            "duration": 0.2173909999999637,
            "durationTicks": 192,
            "midi": 76,
            "name": "E5",
            "ticks": 269398,
            "time": 305.02448238541666,
            "velocity": 0.3937007874015748
          },
          {
            "duration": 0.10869550000001027,
            "durationTicks": 96,
            "midi": 71,
            "name": "B4",
            "ticks": 269446,
            "time": 305.07883013541664,
            "velocity": 0.3937007874015748
          },
          {
            "duration": 0.10869550000001027,
            "durationTicks": 96,
            "midi": 47,
            "name": "B2",
            "ticks": 269446,
            "time": 305.07883013541664,
            "velocity": 0.3937007874015748
          },
          {
            "duration": 0.10869550000001027,
            "durationTicks": 96,
            "midi": 83,
            "name": "B5",
            "ticks": 269446,
            "time": 305.07883013541664,
            "velocity": 0.3937007874015748
          },
          {
            "duration": 0.21739100000002054,
            "durationTicks": 192,
            "midi": 59,
            "name": "B3",
            "ticks": 269446,
            "time": 305.07883013541664,
            "velocity": 0.3937007874015748
          },
          {
            "duration": 0.10869549999995343,
            "durationTicks": 96,
            "midi": 52,
            "name": "E3",
            "ticks": 269494,
            "time": 305.13317788541667,
            "velocity": 0.3937007874015748
          },
          {
            "duration": 0.10869549999995343,
            "durationTicks": 96,
            "midi": 76,
            "name": "E5",
            "ticks": 269494,
            "time": 305.13317788541667,
            "velocity": 0.3937007874015748
          },
          {
            "duration": 0.2173909999999637,
            "durationTicks": 192,
            "midi": 64,
            "name": "E4",
            "ticks": 269494,
            "time": 305.13317788541667,
            "velocity": 0.3937007874015748
          },
          {
            "duration": 0.10869549999995343,
            "durationTicks": 96,
            "midi": 88,
            "name": "E6",
            "ticks": 269494,
            "time": 305.13317788541667,
            "velocity": 0.3937007874015748
          },
          {
            "duration": 0.10869550000001027,
            "durationTicks": 96,
            "midi": 83,
            "name": "B5",
            "ticks": 269542,
            "time": 305.18752563541665,
            "velocity": 0.3937007874015748
          },
          {
            "duration": 0.10869550000001027,
            "durationTicks": 96,
            "midi": 47,
            "name": "B2",
            "ticks": 269542,
            "time": 305.18752563541665,
            "velocity": 0.3937007874015748
          },
          {
            "duration": 0.16304324999998698,
            "durationTicks": 144,
            "midi": 59,
            "name": "B3",
            "ticks": 269542,
            "time": 305.18752563541665,
            "velocity": 0.3937007874015748
          },
          {
            "duration": 0.10869550000001027,
            "durationTicks": 96,
            "midi": 71,
            "name": "B4",
            "ticks": 269542,
            "time": 305.18752563541665,
            "velocity": 0.3937007874015748
          },
          {
            "duration": 0.10869550000001027,
            "durationTicks": 96,
            "midi": 55,
            "name": "G3",
            "ticks": 269590,
            "time": 305.2418733854166,
            "velocity": 0.3937007874015748
          },
          {
            "duration": 0.10869550000001027,
            "durationTicks": 96,
            "midi": 67,
            "name": "G4",
            "ticks": 269590,
            "time": 305.2418733854166,
            "velocity": 0.3937007874015748
          },
          {
            "duration": 0.21739100000002054,
            "durationTicks": 192,
            "midi": 69,
            "name": "A4",
            "ticks": 269590,
            "time": 305.2418733854166,
            "velocity": 0.3937007874015748
          },
          {
            "duration": 0.21739100000002054,
            "durationTicks": 192,
            "midi": 66,
            "name": "F#4",
            "ticks": 269590,
            "time": 305.2418733854166,
            "velocity": 0.3937007874015748
          },
          {
            "duration": 0.10869550000001027,
            "durationTicks": 96,
            "midi": 43,
            "name": "G2",
            "ticks": 269590,
            "time": 305.2418733854166,
            "velocity": 0.3937007874015748
          },
          {
            "duration": 0.21739100000002054,
            "durationTicks": 192,
            "midi": 90,
            "name": "F#6",
            "ticks": 269590,
            "time": 305.2418733854166,
            "velocity": 0.3937007874015748
          },
          {
            "duration": 0.21739100000002054,
            "durationTicks": 192,
            "midi": 93,
            "name": "A6",
            "ticks": 269590,
            "time": 305.2418733854166,
            "velocity": 0.3937007874015748
          },
          {
            "duration": 0.21739100000002054,
            "durationTicks": 192,
            "midi": 78,
            "name": "F#5",
            "ticks": 269590,
            "time": 305.2418733854166,
            "velocity": 0.3937007874015748
          },
          {
            "duration": 0.21739100000002054,
            "durationTicks": 192,
            "midi": 81,
            "name": "A5",
            "ticks": 269590,
            "time": 305.2418733854166,
            "velocity": 0.3937007874015748
          },
          {
            "duration": 0.10869550000001027,
            "durationTicks": 96,
            "midi": 79,
            "name": "G5",
            "ticks": 269590,
            "time": 305.2418733854166,
            "velocity": 0.3937007874015748
          },
          {
            "duration": 0.10869550000001027,
            "durationTicks": 96,
            "midi": 47,
            "name": "B2",
            "ticks": 269638,
            "time": 305.29622113541666,
            "velocity": 0.3937007874015748
          },
          {
            "duration": 0.10869550000001027,
            "durationTicks": 96,
            "midi": 59,
            "name": "B3",
            "ticks": 269638,
            "time": 305.29622113541666,
            "velocity": 0.3937007874015748
          },
          {
            "duration": 0.10869550000001027,
            "durationTicks": 96,
            "midi": 71,
            "name": "B4",
            "ticks": 269638,
            "time": 305.29622113541666,
            "velocity": 0.3937007874015748
          },
          {
            "duration": 0.10869550000001027,
            "durationTicks": 96,
            "midi": 83,
            "name": "B5",
            "ticks": 269638,
            "time": 305.29622113541666,
            "velocity": 0.3937007874015748
          },
          {
            "duration": 0.10869550000001027,
            "durationTicks": 96,
            "midi": 64,
            "name": "E4",
            "ticks": 269686,
            "time": 305.35056888541664,
            "velocity": 0.3937007874015748
          },
          {
            "duration": 0.16304325000004383,
            "durationTicks": 144,
            "midi": 59,
            "name": "B3",
            "ticks": 269686,
            "time": 305.35056888541664,
            "velocity": 0.3937007874015748
          },
          {
            "duration": 0.10869550000001027,
            "durationTicks": 96,
            "midi": 52,
            "name": "E3",
            "ticks": 269686,
            "time": 305.35056888541664,
            "velocity": 0.3937007874015748
          },
          {
            "duration": 0.10869550000001027,
            "durationTicks": 96,
            "midi": 88,
            "name": "E6",
            "ticks": 269686,
            "time": 305.35056888541664,
            "velocity": 0.3937007874015748
          },
          {
            "duration": 0.10869550000001027,
            "durationTicks": 96,
            "midi": 76,
            "name": "E5",
            "ticks": 269686,
            "time": 305.35056888541664,
            "velocity": 0.3937007874015748
          },
          {
            "duration": 0.21739100000002054,
            "durationTicks": 192,
            "midi": 55,
            "name": "G3",
            "ticks": 269686,
            "time": 305.35056888541664,
            "velocity": 0.3937007874015748
          },
          {
            "duration": 0.3260865000000308,
            "durationTicks": 288,
            "midi": 64,
            "name": "E4",
            "ticks": 269686,
            "time": 305.35056888541664,
            "velocity": 0.3937007874015748
          },
          {
            "duration": 0.10869550000001027,
            "durationTicks": 96,
            "midi": 47,
            "name": "B2",
            "ticks": 269734,
            "time": 305.40491663541667,
            "velocity": 0.3937007874015748
          },
          {
            "duration": 0.2173909999999637,
            "durationTicks": 192,
            "midi": 59,
            "name": "B3",
            "ticks": 269734,
            "time": 305.40491663541667,
            "velocity": 0.3937007874015748
          },
          {
            "duration": 0.10869550000001027,
            "durationTicks": 96,
            "midi": 83,
            "name": "B5",
            "ticks": 269734,
            "time": 305.40491663541667,
            "velocity": 0.3937007874015748
          },
          {
            "duration": 0.10869550000001027,
            "durationTicks": 96,
            "midi": 71,
            "name": "B4",
            "ticks": 269734,
            "time": 305.40491663541667,
            "velocity": 0.3937007874015748
          },
          {
            "duration": 0.10869550000001027,
            "durationTicks": 96,
            "midi": 43,
            "name": "G2",
            "ticks": 269782,
            "time": 305.45926438541665,
            "velocity": 0.3937007874015748
          },
          {
            "duration": 0.10869550000001027,
            "durationTicks": 96,
            "midi": 67,
            "name": "G4",
            "ticks": 269782,
            "time": 305.45926438541665,
            "velocity": 0.3937007874015748
          },
          {
            "duration": 0.10869550000001027,
            "durationTicks": 96,
            "midi": 79,
            "name": "G5",
            "ticks": 269782,
            "time": 305.45926438541665,
            "velocity": 0.3937007874015748
          },
          {
            "duration": 0.16304324999998698,
            "durationTicks": 144,
            "midi": 83,
            "name": "B5",
            "ticks": 269782,
            "time": 305.45926438541665,
            "velocity": 0.3937007874015748
          },
          {
            "duration": 0.21739100000002054,
            "durationTicks": 192,
            "midi": 55,
            "name": "G3",
            "ticks": 269782,
            "time": 305.45926438541665,
            "velocity": 0.3937007874015748
          },
          {
            "duration": 0.21739100000002054,
            "durationTicks": 192,
            "midi": 79,
            "name": "G5",
            "ticks": 269782,
            "time": 305.45926438541665,
            "velocity": 0.3937007874015748
          },
          {
            "duration": 0.16304324999998698,
            "durationTicks": 144,
            "midi": 71,
            "name": "B4",
            "ticks": 269782,
            "time": 305.45926438541665,
            "velocity": 0.3937007874015748
          },
          {
            "duration": 0.21739100000002054,
            "durationTicks": 192,
            "midi": 95,
            "name": "B6",
            "ticks": 269782,
            "time": 305.45926438541665,
            "velocity": 0.3937007874015748
          },
          {
            "duration": 0.21739100000002054,
            "durationTicks": 192,
            "midi": 91,
            "name": "G6",
            "ticks": 269782,
            "time": 305.45926438541665,
            "velocity": 0.3937007874015748
          },
          {
            "duration": 0.21739100000002054,
            "durationTicks": 192,
            "midi": 67,
            "name": "G4",
            "ticks": 269782,
            "time": 305.45926438541665,
            "velocity": 0.3937007874015748
          },
          {
            "duration": 0.10869549999995343,
            "durationTicks": 96,
            "midi": 47,
            "name": "B2",
            "ticks": 269830,
            "time": 305.5136121354167,
            "velocity": 0.3937007874015748
          },
          {
            "duration": 0.16304324999998698,
            "durationTicks": 144,
            "midi": 83,
            "name": "B5",
            "ticks": 269830,
            "time": 305.5136121354167,
            "velocity": 0.3937007874015748
          },
          {
            "duration": 0.16304324999998698,
            "durationTicks": 144,
            "midi": 71,
            "name": "B4",
            "ticks": 269830,
            "time": 305.5136121354167,
            "velocity": 0.3937007874015748
          },
          {
            "duration": 0.16304324999998698,
            "durationTicks": 144,
            "midi": 59,
            "name": "B3",
            "ticks": 269830,
            "time": 305.5136121354167,
            "velocity": 0.3937007874015748
          },
          {
            "duration": 0.10869550000001027,
            "durationTicks": 96,
            "midi": 76,
            "name": "E5",
            "ticks": 269878,
            "time": 305.56795988541666,
            "velocity": 0.3937007874015748
          },
          {
            "duration": 0.10869550000001027,
            "durationTicks": 96,
            "midi": 52,
            "name": "E3",
            "ticks": 269878,
            "time": 305.56795988541666,
            "velocity": 0.3937007874015748
          },
          {
            "duration": 0.10869550000001027,
            "durationTicks": 96,
            "midi": 64,
            "name": "E4",
            "ticks": 269878,
            "time": 305.56795988541666,
            "velocity": 0.3937007874015748
          },
          {
            "duration": 0.10869550000001027,
            "durationTicks": 96,
            "midi": 88,
            "name": "E6",
            "ticks": 269878,
            "time": 305.56795988541666,
            "velocity": 0.3937007874015748
          },
          {
            "duration": 0.10869550000001027,
            "durationTicks": 96,
            "midi": 83,
            "name": "B5",
            "ticks": 269926,
            "time": 305.62230763541663,
            "velocity": 0.3937007874015748
          },
          {
            "duration": 0.10869550000001027,
            "durationTicks": 96,
            "midi": 47,
            "name": "B2",
            "ticks": 269926,
            "time": 305.62230763541663,
            "velocity": 0.3937007874015748
          },
          {
            "duration": 0.10869550000001027,
            "durationTicks": 96,
            "midi": 71,
            "name": "B4",
            "ticks": 269926,
            "time": 305.62230763541663,
            "velocity": 0.3937007874015748
          },
          {
            "duration": 0.10869550000001027,
            "durationTicks": 96,
            "midi": 59,
            "name": "B3",
            "ticks": 269926,
            "time": 305.62230763541663,
            "velocity": 0.3937007874015748
          },
          {
            "duration": 0.16304324999998698,
            "durationTicks": 144,
            "midi": 83,
            "name": "B5",
            "ticks": 269974,
            "time": 305.67665538541667,
            "velocity": 0.3937007874015748
          },
          {
            "duration": 0.2173909999999637,
            "durationTicks": 192,
            "midi": 64,
            "name": "E4",
            "ticks": 269974,
            "time": 305.67665538541667,
            "velocity": 0.3937007874015748
          },
          {
            "duration": 0.10869550000001027,
            "durationTicks": 96,
            "midi": 67,
            "name": "G4",
            "ticks": 269974,
            "time": 305.67665538541667,
            "velocity": 0.3937007874015748
          },
          {
            "duration": 0.2173909999999637,
            "durationTicks": 192,
            "midi": 76,
            "name": "E5",
            "ticks": 269974,
            "time": 305.67665538541667,
            "velocity": 0.3937007874015748
          },
          {
            "duration": 0.10869550000001027,
            "durationTicks": 96,
            "midi": 79,
            "name": "G5",
            "ticks": 269974,
            "time": 305.67665538541667,
            "velocity": 0.3937007874015748
          },
          {
            "duration": 0.10869550000001027,
            "durationTicks": 96,
            "midi": 55,
            "name": "G3",
            "ticks": 269974,
            "time": 305.67665538541667,
            "velocity": 0.3937007874015748
          },
          {
            "duration": 0.2173909999999637,
            "durationTicks": 192,
            "midi": 88,
            "name": "E6",
            "ticks": 269974,
            "time": 305.67665538541667,
            "velocity": 0.3937007874015748
          },
          {
            "duration": 0.16304324999998698,
            "durationTicks": 144,
            "midi": 71,
            "name": "B4",
            "ticks": 269974,
            "time": 305.67665538541667,
            "velocity": 0.3937007874015748
          },
          {
            "duration": 0.16304324999998698,
            "durationTicks": 144,
            "midi": 59,
            "name": "B3",
            "ticks": 269974,
            "time": 305.67665538541667,
            "velocity": 0.3937007874015748
          },
          {
            "duration": 0.2173909999999637,
            "durationTicks": 192,
            "midi": 64,
            "name": "E4",
            "ticks": 269974,
            "time": 305.67665538541667,
            "velocity": 0.3937007874015748
          },
          {
            "duration": 0.2173909999999637,
            "durationTicks": 192,
            "midi": 59,
            "name": "B3",
            "ticks": 269974,
            "time": 305.67665538541667,
            "velocity": 0.3937007874015748
          },
          {
            "duration": 0.10869550000001027,
            "durationTicks": 96,
            "midi": 43,
            "name": "G2",
            "ticks": 269974,
            "time": 305.67665538541667,
            "velocity": 0.3937007874015748
          },
          {
            "duration": 0.2173909999999637,
            "durationTicks": 192,
            "midi": 55,
            "name": "G3",
            "ticks": 269974,
            "time": 305.67665538541667,
            "velocity": 0.3937007874015748
          },
          {
            "duration": 0.16304324999998698,
            "durationTicks": 144,
            "midi": 83,
            "name": "B5",
            "ticks": 270022,
            "time": 305.73100313541664,
            "velocity": 0.3937007874015748
          },
          {
            "duration": 0.10869550000001027,
            "durationTicks": 96,
            "midi": 47,
            "name": "B2",
            "ticks": 270022,
            "time": 305.73100313541664,
            "velocity": 0.3937007874015748
          },
          {
            "duration": 0.16304324999998698,
            "durationTicks": 144,
            "midi": 71,
            "name": "B4",
            "ticks": 270022,
            "time": 305.73100313541664,
            "velocity": 0.3937007874015748
          },
          {
            "duration": 0.16304324999998698,
            "durationTicks": 144,
            "midi": 59,
            "name": "B3",
            "ticks": 270022,
            "time": 305.73100313541664,
            "velocity": 0.3937007874015748
          },
          {
            "duration": 0.10869549999995343,
            "durationTicks": 96,
            "midi": 88,
            "name": "E6",
            "ticks": 270070,
            "time": 305.7853508854167,
            "velocity": 0.3937007874015748
          },
          {
            "duration": 0.10869549999995343,
            "durationTicks": 96,
            "midi": 64,
            "name": "E4",
            "ticks": 270070,
            "time": 305.7853508854167,
            "velocity": 0.3937007874015748
          },
          {
            "duration": 0.10869549999995343,
            "durationTicks": 96,
            "midi": 52,
            "name": "E3",
            "ticks": 270070,
            "time": 305.7853508854167,
            "velocity": 0.3937007874015748
          },
          {
            "duration": 0.10869549999995343,
            "durationTicks": 96,
            "midi": 76,
            "name": "E5",
            "ticks": 270070,
            "time": 305.7853508854167,
            "velocity": 0.3937007874015748
          },
          {
            "duration": 0.10869550000001027,
            "durationTicks": 96,
            "midi": 71,
            "name": "B4",
            "ticks": 270118,
            "time": 305.83969863541665,
            "velocity": 0.3937007874015748
          },
          {
            "duration": 0.10869550000001027,
            "durationTicks": 96,
            "midi": 47,
            "name": "B2",
            "ticks": 270118,
            "time": 305.83969863541665,
            "velocity": 0.3937007874015748
          },
          {
            "duration": 0.10869550000001027,
            "durationTicks": 96,
            "midi": 59,
            "name": "B3",
            "ticks": 270118,
            "time": 305.83969863541665,
            "velocity": 0.3937007874015748
          },
          {
            "duration": 0.10869550000001027,
            "durationTicks": 96,
            "midi": 83,
            "name": "B5",
            "ticks": 270118,
            "time": 305.83969863541665,
            "velocity": 0.3937007874015748
          },
          {
            "duration": 0.10869550000001027,
            "durationTicks": 96,
            "midi": 43,
            "name": "G2",
            "ticks": 270166,
            "time": 305.89404638541663,
            "velocity": 0.3937007874015748
          },
          {
            "duration": 0.10869550000001027,
            "durationTicks": 96,
            "midi": 79,
            "name": "G5",
            "ticks": 270166,
            "time": 305.89404638541663,
            "velocity": 0.3937007874015748
          },
          {
            "duration": 0.16304325000004383,
            "durationTicks": 144,
            "midi": 59,
            "name": "B3",
            "ticks": 270166,
            "time": 305.89404638541663,
            "velocity": 0.3937007874015748
          },
          {
            "duration": 0.10869550000001027,
            "durationTicks": 96,
            "midi": 55,
            "name": "G3",
            "ticks": 270166,
            "time": 305.89404638541663,
            "velocity": 0.3937007874015748
          },
          {
            "duration": 0.3260865000000308,
            "durationTicks": 288,
            "midi": 55,
            "name": "G3",
            "ticks": 270166,
            "time": 305.89404638541663,
            "velocity": 0.3937007874015748
          },
          {
            "duration": 0.21739100000002054,
            "durationTicks": 192,
            "midi": 64,
            "name": "E4",
            "ticks": 270166,
            "time": 305.89404638541663,
            "velocity": 0.3937007874015748
          },
          {
            "duration": 0.10869550000001027,
            "durationTicks": 96,
            "midi": 67,
            "name": "G4",
            "ticks": 270166,
            "time": 305.89404638541663,
            "velocity": 0.3937007874015748
          },
          {
            "duration": 0.10869550000001027,
            "durationTicks": 96,
            "midi": 47,
            "name": "B2",
            "ticks": 270214,
            "time": 305.94839413541666,
            "velocity": 0.3937007874015748
          },
          {
            "duration": 0.10869550000001027,
            "durationTicks": 96,
            "midi": 83,
            "name": "B5",
            "ticks": 270214,
            "time": 305.94839413541666,
            "velocity": 0.3937007874015748
          },
          {
            "duration": 0.2173909999999637,
            "durationTicks": 192,
            "midi": 59,
            "name": "B3",
            "ticks": 270214,
            "time": 305.94839413541666,
            "velocity": 0.3937007874015748
          },
          {
            "duration": 0.10869550000001027,
            "durationTicks": 96,
            "midi": 71,
            "name": "B4",
            "ticks": 270214,
            "time": 305.94839413541666,
            "velocity": 0.3937007874015748
          },
          {
            "duration": 0.21739100000002054,
            "durationTicks": 192,
            "midi": 64,
            "name": "E4",
            "ticks": 270262,
            "time": 306.00274188541664,
            "velocity": 0.3937007874015748
          },
          {
            "duration": 0.10869550000001027,
            "durationTicks": 96,
            "midi": 88,
            "name": "E6",
            "ticks": 270262,
            "time": 306.00274188541664,
            "velocity": 0.3937007874015748
          },
          {
            "duration": 0.10869550000001027,
            "durationTicks": 96,
            "midi": 76,
            "name": "E5",
            "ticks": 270262,
            "time": 306.00274188541664,
            "velocity": 0.3937007874015748
          },
          {
            "duration": 0.10869550000001027,
            "durationTicks": 96,
            "midi": 52,
            "name": "E3",
            "ticks": 270262,
            "time": 306.00274188541664,
            "velocity": 0.3937007874015748
          },
          {
            "duration": 0.10869549999995343,
            "durationTicks": 96,
            "midi": 71,
            "name": "B4",
            "ticks": 270310,
            "time": 306.0570896354167,
            "velocity": 0.3937007874015748
          },
          {
            "duration": 0.16304324999998698,
            "durationTicks": 144,
            "midi": 59,
            "name": "B3",
            "ticks": 270310,
            "time": 306.0570896354167,
            "velocity": 0.3937007874015748
          },
          {
            "duration": 0.10869549999995343,
            "durationTicks": 96,
            "midi": 83,
            "name": "B5",
            "ticks": 270310,
            "time": 306.0570896354167,
            "velocity": 0.3937007874015748
          },
          {
            "duration": 0.10869549999995343,
            "durationTicks": 96,
            "midi": 47,
            "name": "B2",
            "ticks": 270310,
            "time": 306.0570896354167,
            "velocity": 0.3937007874015748
          },
          {
            "duration": 0.10869550000001027,
            "durationTicks": 96,
            "midi": 79,
            "name": "G5",
            "ticks": 270358,
            "time": 306.11143738541665,
            "velocity": 0.3937007874015748
          },
          {
            "duration": 0.16304324999998698,
            "durationTicks": 144,
            "midi": 71,
            "name": "B4",
            "ticks": 270358,
            "time": 306.11143738541665,
            "velocity": 0.3937007874015748
          },
          {
            "duration": 0.21739100000002054,
            "durationTicks": 192,
            "midi": 79,
            "name": "G5",
            "ticks": 270358,
            "time": 306.11143738541665,
            "velocity": 0.3937007874015748
          },
          {
            "duration": 0.10869550000001027,
            "durationTicks": 96,
            "midi": 43,
            "name": "G2",
            "ticks": 270358,
            "time": 306.11143738541665,
            "velocity": 0.3937007874015748
          },
          {
            "duration": 0.10869550000001027,
            "durationTicks": 96,
            "midi": 55,
            "name": "G3",
            "ticks": 270358,
            "time": 306.11143738541665,
            "velocity": 0.3937007874015748
          },
          {
            "duration": 0.21739100000002054,
            "durationTicks": 192,
            "midi": 95,
            "name": "B6",
            "ticks": 270358,
            "time": 306.11143738541665,
            "velocity": 0.3937007874015748
          },
          {
            "duration": 0.21739100000002054,
            "durationTicks": 192,
            "midi": 91,
            "name": "G6",
            "ticks": 270358,
            "time": 306.11143738541665,
            "velocity": 0.3937007874015748
          },
          {
            "duration": 0.16304324999998698,
            "durationTicks": 144,
            "midi": 83,
            "name": "B5",
            "ticks": 270358,
            "time": 306.11143738541665,
            "velocity": 0.3937007874015748
          },
          {
            "duration": 0.10869550000001027,
            "durationTicks": 96,
            "midi": 67,
            "name": "G4",
            "ticks": 270358,
            "time": 306.11143738541665,
            "velocity": 0.3937007874015748
          },
          {
            "duration": 0.21739100000002054,
            "durationTicks": 192,
            "midi": 67,
            "name": "G4",
            "ticks": 270358,
            "time": 306.11143738541665,
            "velocity": 0.3937007874015748
          },
          {
            "duration": 0.16304325000004383,
            "durationTicks": 144,
            "midi": 71,
            "name": "B4",
            "ticks": 270406,
            "time": 306.1657851354166,
            "velocity": 0.3937007874015748
          },
          {
            "duration": 0.16304325000004383,
            "durationTicks": 144,
            "midi": 83,
            "name": "B5",
            "ticks": 270406,
            "time": 306.1657851354166,
            "velocity": 0.3937007874015748
          },
          {
            "duration": 0.10869550000001027,
            "durationTicks": 96,
            "midi": 47,
            "name": "B2",
            "ticks": 270406,
            "time": 306.1657851354166,
            "velocity": 0.3937007874015748
          },
          {
            "duration": 0.10869550000001027,
            "durationTicks": 96,
            "midi": 59,
            "name": "B3",
            "ticks": 270406,
            "time": 306.1657851354166,
            "velocity": 0.3937007874015748
          },
          {
            "duration": 0.10869550000001027,
            "durationTicks": 96,
            "midi": 52,
            "name": "E3",
            "ticks": 270454,
            "time": 306.22013288541666,
            "velocity": 0.3937007874015748
          },
          {
            "duration": 0.16304324999998698,
            "durationTicks": 144,
            "midi": 59,
            "name": "B3",
            "ticks": 270454,
            "time": 306.22013288541666,
            "velocity": 0.3937007874015748
          },
          {
            "duration": 0.10869550000001027,
            "durationTicks": 96,
            "midi": 64,
            "name": "E4",
            "ticks": 270454,
            "time": 306.22013288541666,
            "velocity": 0.3937007874015748
          },
          {
            "duration": 0.32608649999997397,
            "durationTicks": 288,
            "midi": 64,
            "name": "E4",
            "ticks": 270454,
            "time": 306.22013288541666,
            "velocity": 0.3937007874015748
          },
          {
            "duration": 0.10869550000001027,
            "durationTicks": 96,
            "midi": 76,
            "name": "E5",
            "ticks": 270454,
            "time": 306.22013288541666,
            "velocity": 0.3937007874015748
          },
          {
            "duration": 0.2173909999999637,
            "durationTicks": 192,
            "midi": 55,
            "name": "G3",
            "ticks": 270454,
            "time": 306.22013288541666,
            "velocity": 0.3937007874015748
          },
          {
            "duration": 0.10869550000001027,
            "durationTicks": 96,
            "midi": 88,
            "name": "E6",
            "ticks": 270454,
            "time": 306.22013288541666,
            "velocity": 0.3937007874015748
          },
          {
            "duration": 0.10869550000001027,
            "durationTicks": 96,
            "midi": 71,
            "name": "B4",
            "ticks": 270502,
            "time": 306.27448063541664,
            "velocity": 0.3937007874015748
          },
          {
            "duration": 0.10869550000001027,
            "durationTicks": 96,
            "midi": 83,
            "name": "B5",
            "ticks": 270502,
            "time": 306.27448063541664,
            "velocity": 0.3937007874015748
          },
          {
            "duration": 0.10869550000001027,
            "durationTicks": 96,
            "midi": 47,
            "name": "B2",
            "ticks": 270502,
            "time": 306.27448063541664,
            "velocity": 0.3937007874015748
          },
          {
            "duration": 0.21739100000002054,
            "durationTicks": 192,
            "midi": 59,
            "name": "B3",
            "ticks": 270502,
            "time": 306.27448063541664,
            "velocity": 0.3937007874015748
          },
          {
            "duration": 0.2173909999999637,
            "durationTicks": 192,
            "midi": 69,
            "name": "A4",
            "ticks": 270550,
            "time": 306.32882838541667,
            "velocity": 0.3937007874015748
          },
          {
            "duration": 0.2173909999999637,
            "durationTicks": 192,
            "midi": 74,
            "name": "D5",
            "ticks": 270550,
            "time": 306.32882838541667,
            "velocity": 0.3937007874015748
          },
          {
            "duration": 0.2173909999999637,
            "durationTicks": 192,
            "midi": 86,
            "name": "D6",
            "ticks": 270550,
            "time": 306.32882838541667,
            "velocity": 0.3937007874015748
          },
          {
            "duration": 0.10869549999995343,
            "durationTicks": 96,
            "midi": 79,
            "name": "G5",
            "ticks": 270550,
            "time": 306.32882838541667,
            "velocity": 0.3937007874015748
          },
          {
            "duration": 0.2173909999999637,
            "durationTicks": 192,
            "midi": 81,
            "name": "A5",
            "ticks": 270550,
            "time": 306.32882838541667,
            "velocity": 0.3937007874015748
          },
          {
            "duration": 0.10869549999995343,
            "durationTicks": 96,
            "midi": 67,
            "name": "G4",
            "ticks": 270550,
            "time": 306.32882838541667,
            "velocity": 0.3937007874015748
          },
          {
            "duration": 0.2173909999999637,
            "durationTicks": 192,
            "midi": 86,
            "name": "D6",
            "ticks": 270550,
            "time": 306.32882838541667,
            "velocity": 0.3937007874015748
          },
          {
            "duration": 0.2173909999999637,
            "durationTicks": 192,
            "midi": 55,
            "name": "G3",
            "ticks": 270550,
            "time": 306.32882838541667,
            "velocity": 0.3937007874015748
          },
          {
            "duration": 0.2173909999999637,
            "durationTicks": 192,
            "midi": 93,
            "name": "A6",
            "ticks": 270550,
            "time": 306.32882838541667,
            "velocity": 0.3937007874015748
          },
          {
            "duration": 0.10869549999995343,
            "durationTicks": 96,
            "midi": 43,
            "name": "G2",
            "ticks": 270550,
            "time": 306.32882838541667,
            "velocity": 0.3937007874015748
          },
          {
            "duration": 0.16304324999998698,
            "durationTicks": 144,
            "midi": 59,
            "name": "B3",
            "ticks": 270598,
            "time": 306.38317613541665,
            "velocity": 0.3937007874015748
          },
          {
            "duration": 0.10869550000001027,
            "durationTicks": 96,
            "midi": 83,
            "name": "B5",
            "ticks": 270598,
            "time": 306.38317613541665,
            "velocity": 0.3937007874015748
          },
          {
            "duration": 0.10869550000001027,
            "durationTicks": 96,
            "midi": 71,
            "name": "B4",
            "ticks": 270598,
            "time": 306.38317613541665,
            "velocity": 0.3937007874015748
          },
          {
            "duration": 0.10869550000001027,
            "durationTicks": 96,
            "midi": 47,
            "name": "B2",
            "ticks": 270598,
            "time": 306.38317613541665,
            "velocity": 0.3937007874015748
          },
          {
            "duration": 0.10869550000001027,
            "durationTicks": 96,
            "midi": 88,
            "name": "E6",
            "ticks": 270646,
            "time": 306.4375238854166,
            "velocity": 0.3937007874015748
          },
          {
            "duration": 0.10869550000001027,
            "durationTicks": 96,
            "midi": 76,
            "name": "E5",
            "ticks": 270646,
            "time": 306.4375238854166,
            "velocity": 0.3937007874015748
          },
          {
            "duration": 0.10869550000001027,
            "durationTicks": 96,
            "midi": 64,
            "name": "E4",
            "ticks": 270646,
            "time": 306.4375238854166,
            "velocity": 0.3937007874015748
          },
          {
            "duration": 0.10869550000001027,
            "durationTicks": 96,
            "midi": 52,
            "name": "E3",
            "ticks": 270646,
            "time": 306.4375238854166,
            "velocity": 0.3937007874015748
          },
          {
            "duration": 0.10869550000001027,
            "durationTicks": 96,
            "midi": 71,
            "name": "B4",
            "ticks": 270694,
            "time": 306.49187163541666,
            "velocity": 0.3937007874015748
          },
          {
            "duration": 0.10869550000001027,
            "durationTicks": 96,
            "midi": 59,
            "name": "B3",
            "ticks": 270694,
            "time": 306.49187163541666,
            "velocity": 0.3937007874015748
          },
          {
            "duration": 0.10869550000001027,
            "durationTicks": 96,
            "midi": 83,
            "name": "B5",
            "ticks": 270694,
            "time": 306.49187163541666,
            "velocity": 0.3937007874015748
          },
          {
            "duration": 0.10869550000001027,
            "durationTicks": 96,
            "midi": 47,
            "name": "B2",
            "ticks": 270694,
            "time": 306.49187163541666,
            "velocity": 0.3937007874015748
          },
          {
            "duration": 0.21739100000002054,
            "durationTicks": 192,
            "midi": 81,
            "name": "A5",
            "ticks": 270742,
            "time": 306.54621938541663,
            "velocity": 0.3937007874015748
          },
          {
            "duration": 0.21739100000002054,
            "durationTicks": 192,
            "midi": 74,
            "name": "D5",
            "ticks": 270742,
            "time": 306.54621938541663,
            "velocity": 0.3937007874015748
          },
          {
            "duration": 0.21739100000002054,
            "durationTicks": 192,
            "midi": 69,
            "name": "A4",
            "ticks": 270742,
            "time": 306.54621938541663,
            "velocity": 0.3937007874015748
          },
          {
            "duration": 0.21739100000002054,
            "durationTicks": 192,
            "midi": 60,
            "name": "C4",
            "ticks": 270742,
            "time": 306.54621938541663,
            "velocity": 0.3937007874015748
          },
          {
            "duration": 0.21739100000002054,
            "durationTicks": 192,
            "midi": 52,
            "name": "E3",
            "ticks": 270742,
            "time": 306.54621938541663,
            "velocity": 0.3937007874015748
          },
          {
            "duration": 0.21739100000002054,
            "durationTicks": 192,
            "midi": 93,
            "name": "A6",
            "ticks": 270742,
            "time": 306.54621938541663,
            "velocity": 0.3937007874015748
          },
          {
            "duration": 0.21739100000002054,
            "durationTicks": 192,
            "midi": 86,
            "name": "D6",
            "ticks": 270742,
            "time": 306.54621938541663,
            "velocity": 0.3937007874015748
          },
          {
            "duration": 0.21739100000002054,
            "durationTicks": 192,
            "midi": 86,
            "name": "D6",
            "ticks": 270742,
            "time": 306.54621938541663,
            "velocity": 0.3937007874015748
          },
          {
            "duration": 0.21739100000002054,
            "durationTicks": 192,
            "midi": 55,
            "name": "G3",
            "ticks": 270742,
            "time": 306.54621938541663,
            "velocity": 0.3937007874015748
          },
          {
            "duration": 0.21739100000002054,
            "durationTicks": 192,
            "midi": 71,
            "name": "B4",
            "ticks": 270934,
            "time": 306.76361038541665,
            "velocity": 0.3937007874015748
          },
          {
            "duration": 0.21739100000002054,
            "durationTicks": 192,
            "midi": 88,
            "name": "E6",
            "ticks": 270934,
            "time": 306.76361038541665,
            "velocity": 0.3937007874015748
          },
          {
            "duration": 0.21739100000002054,
            "durationTicks": 192,
            "midi": 95,
            "name": "B6",
            "ticks": 270934,
            "time": 306.76361038541665,
            "velocity": 0.3937007874015748
          },
          {
            "duration": 0.21739100000002054,
            "durationTicks": 192,
            "midi": 83,
            "name": "B5",
            "ticks": 270934,
            "time": 306.76361038541665,
            "velocity": 0.3937007874015748
          },
          {
            "duration": 0.32608649999997397,
            "durationTicks": 288,
            "midi": 55,
            "name": "G3",
            "ticks": 270934,
            "time": 306.76361038541665,
            "velocity": 0.3937007874015748
          },
          {
            "duration": 0.21739100000002054,
            "durationTicks": 192,
            "midi": 88,
            "name": "E6",
            "ticks": 270934,
            "time": 306.76361038541665,
            "velocity": 0.3937007874015748
          },
          {
            "duration": 0.32608649999997397,
            "durationTicks": 288,
            "midi": 52,
            "name": "E3",
            "ticks": 270934,
            "time": 306.76361038541665,
            "velocity": 0.3937007874015748
          },
          {
            "duration": 0.21739100000002054,
            "durationTicks": 192,
            "midi": 76,
            "name": "E5",
            "ticks": 270934,
            "time": 306.76361038541665,
            "velocity": 0.3937007874015748
          },
          {
            "duration": 0.32608649999997397,
            "durationTicks": 288,
            "midi": 60,
            "name": "C4",
            "ticks": 270934,
            "time": 306.76361038541665,
            "velocity": 0.3937007874015748
          },
          {
            "duration": 0.2173909999999637,
            "durationTicks": 192,
            "midi": 67,
            "name": "G4",
            "ticks": 271126,
            "time": 306.9810013854167,
            "velocity": 0.3937007874015748
          },
          {
            "duration": 0.2173909999999637,
            "durationTicks": 192,
            "midi": 91,
            "name": "G6",
            "ticks": 271126,
            "time": 306.9810013854167,
            "velocity": 0.3937007874015748
          },
          {
            "duration": 0.2173909999999637,
            "durationTicks": 192,
            "midi": 79,
            "name": "G5",
            "ticks": 271126,
            "time": 306.9810013854167,
            "velocity": 0.3937007874015748
          },
          {
            "duration": 0.2173909999999637,
            "durationTicks": 192,
            "midi": 95,
            "name": "B6",
            "ticks": 271126,
            "time": 306.9810013854167,
            "velocity": 0.3937007874015748
          },
          {
            "duration": 0.2173909999999637,
            "durationTicks": 192,
            "midi": 83,
            "name": "B5",
            "ticks": 271126,
            "time": 306.9810013854167,
            "velocity": 0.3937007874015748
          },
          {
            "duration": 0.2173909999999637,
            "durationTicks": 192,
            "midi": 71,
            "name": "B4",
            "ticks": 271126,
            "time": 306.9810013854167,
            "velocity": 0.3937007874015748
          },
          {
            "duration": 0.3260865000000308,
            "durationTicks": 288,
            "midi": 60,
            "name": "C4",
            "ticks": 271222,
            "time": 307.08969688541663,
            "velocity": 0.3937007874015748
          },
          {
            "duration": 0.3260865000000308,
            "durationTicks": 288,
            "midi": 52,
            "name": "E3",
            "ticks": 271222,
            "time": 307.08969688541663,
            "velocity": 0.3937007874015748
          },
          {
            "duration": 0.3260865000000308,
            "durationTicks": 288,
            "midi": 55,
            "name": "G3",
            "ticks": 271222,
            "time": 307.08969688541663,
            "velocity": 0.3937007874015748
          },
          {
            "duration": 0.21739100000002054,
            "durationTicks": 192,
            "midi": 69,
            "name": "A4",
            "ticks": 271318,
            "time": 307.19839238541664,
            "velocity": 0.3937007874015748
          },
          {
            "duration": 0.21739100000002054,
            "durationTicks": 192,
            "midi": 90,
            "name": "F#6",
            "ticks": 271318,
            "time": 307.19839238541664,
            "velocity": 0.3937007874015748
          },
          {
            "duration": 0.21739100000002054,
            "durationTicks": 192,
            "midi": 81,
            "name": "A5",
            "ticks": 271318,
            "time": 307.19839238541664,
            "velocity": 0.3937007874015748
          },
          {
            "duration": 0.21739100000002054,
            "durationTicks": 192,
            "midi": 93,
            "name": "A6",
            "ticks": 271318,
            "time": 307.19839238541664,
            "velocity": 0.3937007874015748
          },
          {
            "duration": 0.21739100000002054,
            "durationTicks": 192,
            "midi": 78,
            "name": "F#5",
            "ticks": 271318,
            "time": 307.19839238541664,
            "velocity": 0.3937007874015748
          },
          {
            "duration": 0.21739100000002054,
            "durationTicks": 192,
            "midi": 66,
            "name": "F#4",
            "ticks": 271318,
            "time": 307.19839238541664,
            "velocity": 0.3937007874015748
          },
          {
            "duration": 0.2173909999999637,
            "durationTicks": 192,
            "midi": 83,
            "name": "B5",
            "ticks": 271510,
            "time": 307.41578338541666,
            "velocity": 0.3937007874015748
          },
          {
            "duration": 0.2173909999999637,
            "durationTicks": 192,
            "midi": 60,
            "name": "C4",
            "ticks": 271510,
            "time": 307.41578338541666,
            "velocity": 0.3937007874015748
          },
          {
            "duration": 0.2173909999999637,
            "durationTicks": 192,
            "midi": 79,
            "name": "G5",
            "ticks": 271510,
            "time": 307.41578338541666,
            "velocity": 0.3937007874015748
          },
          {
            "duration": 0.2173909999999637,
            "durationTicks": 192,
            "midi": 52,
            "name": "E3",
            "ticks": 271510,
            "time": 307.41578338541666,
            "velocity": 0.3937007874015748
          },
          {
            "duration": 0.2173909999999637,
            "durationTicks": 192,
            "midi": 71,
            "name": "B4",
            "ticks": 271510,
            "time": 307.41578338541666,
            "velocity": 0.3937007874015748
          },
          {
            "duration": 0.2173909999999637,
            "durationTicks": 192,
            "midi": 95,
            "name": "B6",
            "ticks": 271510,
            "time": 307.41578338541666,
            "velocity": 0.3937007874015748
          },
          {
            "duration": 0.2173909999999637,
            "durationTicks": 192,
            "midi": 67,
            "name": "G4",
            "ticks": 271510,
            "time": 307.41578338541666,
            "velocity": 0.3937007874015748
          },
          {
            "duration": 0.2173909999999637,
            "durationTicks": 192,
            "midi": 91,
            "name": "G6",
            "ticks": 271510,
            "time": 307.41578338541666,
            "velocity": 0.3937007874015748
          },
          {
            "duration": 0.2173909999999637,
            "durationTicks": 192,
            "midi": 55,
            "name": "G3",
            "ticks": 271510,
            "time": 307.41578338541666,
            "velocity": 0.3937007874015748
          },
          {
            "duration": 0.3260865000000308,
            "durationTicks": 288,
            "midi": 55,
            "name": "G3",
            "ticks": 271702,
            "time": 307.6331743854166,
            "velocity": 0.3937007874015748
          },
          {
            "duration": 0.3260865000000308,
            "durationTicks": 288,
            "midi": 60,
            "name": "C4",
            "ticks": 271702,
            "time": 307.6331743854166,
            "velocity": 0.3937007874015748
          },
          {
            "duration": 0.3260865000000308,
            "durationTicks": 288,
            "midi": 52,
            "name": "E3",
            "ticks": 271702,
            "time": 307.6331743854166,
            "velocity": 0.3937007874015748
          },
          {
            "duration": 0.21739100000002054,
            "durationTicks": 192,
            "midi": 78,
            "name": "F#5",
            "ticks": 271894,
            "time": 307.85056538541664,
            "velocity": 0.3937007874015748
          },
          {
            "duration": 0.21739100000002054,
            "durationTicks": 192,
            "midi": 90,
            "name": "F#6",
            "ticks": 271894,
            "time": 307.85056538541664,
            "velocity": 0.3937007874015748
          },
          {
            "duration": 0.21739100000002054,
            "durationTicks": 192,
            "midi": 66,
            "name": "F#4",
            "ticks": 271894,
            "time": 307.85056538541664,
            "velocity": 0.3937007874015748
          },
          {
            "duration": 0.21739100000002054,
            "durationTicks": 192,
            "midi": 69,
            "name": "A4",
            "ticks": 271894,
            "time": 307.85056538541664,
            "velocity": 0.3937007874015748
          },
          {
            "duration": 0.21739100000002054,
            "durationTicks": 192,
            "midi": 81,
            "name": "A5",
            "ticks": 271894,
            "time": 307.85056538541664,
            "velocity": 0.3937007874015748
          },
          {
            "duration": 0.21739100000002054,
            "durationTicks": 192,
            "midi": 93,
            "name": "A6",
            "ticks": 271894,
            "time": 307.85056538541664,
            "velocity": 0.3937007874015748
          },
          {
            "duration": 0.32608649999997397,
            "durationTicks": 288,
            "midi": 52,
            "name": "E3",
            "ticks": 271990,
            "time": 307.95926088541665,
            "velocity": 0.3937007874015748
          },
          {
            "duration": 0.32608649999997397,
            "durationTicks": 288,
            "midi": 55,
            "name": "G3",
            "ticks": 271990,
            "time": 307.95926088541665,
            "velocity": 0.3937007874015748
          },
          {
            "duration": 0.32608649999997397,
            "durationTicks": 288,
            "midi": 60,
            "name": "C4",
            "ticks": 271990,
            "time": 307.95926088541665,
            "velocity": 0.3937007874015748
          },
          {
            "duration": 0.2173909999999637,
            "durationTicks": 192,
            "midi": 83,
            "name": "B5",
            "ticks": 272086,
            "time": 308.06795638541666,
            "velocity": 0.3937007874015748
          },
          {
            "duration": 0.2173909999999637,
            "durationTicks": 192,
            "midi": 79,
            "name": "G5",
            "ticks": 272086,
            "time": 308.06795638541666,
            "velocity": 0.3937007874015748
          },
          {
            "duration": 0.2173909999999637,
            "durationTicks": 192,
            "midi": 67,
            "name": "G4",
            "ticks": 272086,
            "time": 308.06795638541666,
            "velocity": 0.3937007874015748
          },
          {
            "duration": 0.2173909999999637,
            "durationTicks": 192,
            "midi": 71,
            "name": "B4",
            "ticks": 272086,
            "time": 308.06795638541666,
            "velocity": 0.3937007874015748
          },
          {
            "duration": 0.2173909999999637,
            "durationTicks": 192,
            "midi": 91,
            "name": "G6",
            "ticks": 272086,
            "time": 308.06795638541666,
            "velocity": 0.3937007874015748
          },
          {
            "duration": 0.2173909999999637,
            "durationTicks": 192,
            "midi": 95,
            "name": "B6",
            "ticks": 272086,
            "time": 308.06795638541666,
            "velocity": 0.3937007874015748
          },
          {
            "duration": 0.21739100000002054,
            "durationTicks": 192,
            "midi": 93,
            "name": "A6",
            "ticks": 272278,
            "time": 308.2853473854166,
            "velocity": 0.3937007874015748
          },
          {
            "duration": 0.21739100000002054,
            "durationTicks": 192,
            "midi": 62,
            "name": "D4",
            "ticks": 272278,
            "time": 308.2853473854166,
            "velocity": 0.3937007874015748
          },
          {
            "duration": 0.21739100000002054,
            "durationTicks": 192,
            "midi": 86,
            "name": "D6",
            "ticks": 272278,
            "time": 308.2853473854166,
            "velocity": 0.3937007874015748
          },
          {
            "duration": 0.21739100000002054,
            "durationTicks": 192,
            "midi": 81,
            "name": "A5",
            "ticks": 272278,
            "time": 308.2853473854166,
            "velocity": 0.3937007874015748
          },
          {
            "duration": 0.21739100000002054,
            "durationTicks": 192,
            "midi": 69,
            "name": "A4",
            "ticks": 272278,
            "time": 308.2853473854166,
            "velocity": 0.3937007874015748
          },
          {
            "duration": 0.21739100000002054,
            "durationTicks": 192,
            "midi": 57,
            "name": "A3",
            "ticks": 272278,
            "time": 308.2853473854166,
            "velocity": 0.3937007874015748
          },
          {
            "duration": 0.21739100000002054,
            "durationTicks": 192,
            "midi": 86,
            "name": "D6",
            "ticks": 272278,
            "time": 308.2853473854166,
            "velocity": 0.3937007874015748
          },
          {
            "duration": 0.21739100000002054,
            "durationTicks": 192,
            "midi": 74,
            "name": "D5",
            "ticks": 272278,
            "time": 308.2853473854166,
            "velocity": 0.3937007874015748
          },
          {
            "duration": 0.21739100000002054,
            "durationTicks": 192,
            "midi": 54,
            "name": "F#3",
            "ticks": 272278,
            "time": 308.2853473854166,
            "velocity": 0.3937007874015748
          },
          {
            "duration": 0.21739100000002054,
            "durationTicks": 192,
            "midi": 88,
            "name": "E6",
            "ticks": 272470,
            "time": 308.50273838541665,
            "velocity": 0.3937007874015748
          },
          {
            "duration": 0.3260865000000308,
            "durationTicks": 288,
            "midi": 62,
            "name": "D4",
            "ticks": 272470,
            "time": 308.50273838541665,
            "velocity": 0.3937007874015748
          },
          {
            "duration": 0.21739100000002054,
            "durationTicks": 192,
            "midi": 88,
            "name": "E6",
            "ticks": 272470,
            "time": 308.50273838541665,
            "velocity": 0.3937007874015748
          },
          {
            "duration": 0.21739100000002054,
            "durationTicks": 192,
            "midi": 76,
            "name": "E5",
            "ticks": 272470,
            "time": 308.50273838541665,
            "velocity": 0.3937007874015748
          },
          {
            "duration": 0.3260865000000308,
            "durationTicks": 288,
            "midi": 57,
            "name": "A3",
            "ticks": 272470,
            "time": 308.50273838541665,
            "velocity": 0.3937007874015748
          },
          {
            "duration": 0.3260865000000308,
            "durationTicks": 288,
            "midi": 54,
            "name": "F#3",
            "ticks": 272470,
            "time": 308.50273838541665,
            "velocity": 0.3937007874015748
          },
          {
            "duration": 0.21739100000002054,
            "durationTicks": 192,
            "midi": 95,
            "name": "B6",
            "ticks": 272470,
            "time": 308.50273838541665,
            "velocity": 0.3937007874015748
          },
          {
            "duration": 0.21739100000002054,
            "durationTicks": 192,
            "midi": 71,
            "name": "B4",
            "ticks": 272470,
            "time": 308.50273838541665,
            "velocity": 0.3937007874015748
          },
          {
            "duration": 0.21739100000002054,
            "durationTicks": 192,
            "midi": 83,
            "name": "B5",
            "ticks": 272470,
            "time": 308.50273838541665,
            "velocity": 0.3937007874015748
          },
          {
            "duration": 0.2173909999999637,
            "durationTicks": 192,
            "midi": 71,
            "name": "B4",
            "ticks": 272662,
            "time": 308.72012938541667,
            "velocity": 0.3937007874015748
          },
          {
            "duration": 0.2173909999999637,
            "durationTicks": 192,
            "midi": 83,
            "name": "B5",
            "ticks": 272662,
            "time": 308.72012938541667,
            "velocity": 0.3937007874015748
          },
          {
            "duration": 0.2173909999999637,
            "durationTicks": 192,
            "midi": 95,
            "name": "B6",
            "ticks": 272662,
            "time": 308.72012938541667,
            "velocity": 0.3937007874015748
          },
          {
            "duration": 0.2173909999999637,
            "durationTicks": 192,
            "midi": 79,
            "name": "G5",
            "ticks": 272662,
            "time": 308.72012938541667,
            "velocity": 0.3937007874015748
          },
          {
            "duration": 0.2173909999999637,
            "durationTicks": 192,
            "midi": 91,
            "name": "G6",
            "ticks": 272662,
            "time": 308.72012938541667,
            "velocity": 0.3937007874015748
          },
          {
            "duration": 0.2173909999999637,
            "durationTicks": 192,
            "midi": 67,
            "name": "G4",
            "ticks": 272662,
            "time": 308.72012938541667,
            "velocity": 0.3937007874015748
          },
          {
            "duration": 0.32608649999997397,
            "durationTicks": 288,
            "midi": 54,
            "name": "F#3",
            "ticks": 272758,
            "time": 308.8288248854167,
            "velocity": 0.3937007874015748
          },
          {
            "duration": 0.32608649999997397,
            "durationTicks": 288,
            "midi": 57,
            "name": "A3",
            "ticks": 272758,
            "time": 308.8288248854167,
            "velocity": 0.3937007874015748
          },
          {
            "duration": 0.32608649999997397,
            "durationTicks": 288,
            "midi": 62,
            "name": "D4",
            "ticks": 272758,
            "time": 308.8288248854167,
            "velocity": 0.3937007874015748
          },
          {
            "duration": 0.21739100000002054,
            "durationTicks": 192,
            "midi": 66,
            "name": "F#4",
            "ticks": 272854,
            "time": 308.93752038541663,
            "velocity": 0.3937007874015748
          },
          {
            "duration": 0.21739100000002054,
            "durationTicks": 192,
            "midi": 69,
            "name": "A4",
            "ticks": 272854,
            "time": 308.93752038541663,
            "velocity": 0.3937007874015748
          },
          {
            "duration": 0.21739100000002054,
            "durationTicks": 192,
            "midi": 81,
            "name": "A5",
            "ticks": 272854,
            "time": 308.93752038541663,
            "velocity": 0.3937007874015748
          },
          {
            "duration": 0.21739100000002054,
            "durationTicks": 192,
            "midi": 90,
            "name": "F#6",
            "ticks": 272854,
            "time": 308.93752038541663,
            "velocity": 0.3937007874015748
          },
          {
            "duration": 0.21739100000002054,
            "durationTicks": 192,
            "midi": 78,
            "name": "F#5",
            "ticks": 272854,
            "time": 308.93752038541663,
            "velocity": 0.3937007874015748
          },
          {
            "duration": 0.21739100000002054,
            "durationTicks": 192,
            "midi": 93,
            "name": "A6",
            "ticks": 272854,
            "time": 308.93752038541663,
            "velocity": 0.3937007874015748
          },
          {
            "duration": 0.21739100000002054,
            "durationTicks": 192,
            "midi": 62,
            "name": "D4",
            "ticks": 273046,
            "time": 309.15491138541665,
            "velocity": 0.3937007874015748
          },
          {
            "duration": 0.21739100000002054,
            "durationTicks": 192,
            "midi": 57,
            "name": "A3",
            "ticks": 273046,
            "time": 309.15491138541665,
            "velocity": 0.3937007874015748
          },
          {
            "duration": 0.21739100000002054,
            "durationTicks": 192,
            "midi": 79,
            "name": "G5",
            "ticks": 273046,
            "time": 309.15491138541665,
            "velocity": 0.3937007874015748
          },
          {
            "duration": 0.21739100000002054,
            "durationTicks": 192,
            "midi": 71,
            "name": "B4",
            "ticks": 273046,
            "time": 309.15491138541665,
            "velocity": 0.3937007874015748
          },
          {
            "duration": 0.21739100000002054,
            "durationTicks": 192,
            "midi": 83,
            "name": "B5",
            "ticks": 273046,
            "time": 309.15491138541665,
            "velocity": 0.3937007874015748
          },
          {
            "duration": 0.21739100000002054,
            "durationTicks": 192,
            "midi": 91,
            "name": "G6",
            "ticks": 273046,
            "time": 309.15491138541665,
            "velocity": 0.3937007874015748
          },
          {
            "duration": 0.21739100000002054,
            "durationTicks": 192,
            "midi": 67,
            "name": "G4",
            "ticks": 273046,
            "time": 309.15491138541665,
            "velocity": 0.3937007874015748
          },
          {
            "duration": 0.21739100000002054,
            "durationTicks": 192,
            "midi": 54,
            "name": "F#3",
            "ticks": 273046,
            "time": 309.15491138541665,
            "velocity": 0.3937007874015748
          },
          {
            "duration": 0.21739100000002054,
            "durationTicks": 192,
            "midi": 95,
            "name": "B6",
            "ticks": 273046,
            "time": 309.15491138541665,
            "velocity": 0.3937007874015748
          },
          {
            "duration": 0.32608649999997397,
            "durationTicks": 288,
            "midi": 54,
            "name": "F#3",
            "ticks": 273238,
            "time": 309.3723023854167,
            "velocity": 0.3937007874015748
          },
          {
            "duration": 0.32608649999997397,
            "durationTicks": 288,
            "midi": 57,
            "name": "A3",
            "ticks": 273238,
            "time": 309.3723023854167,
            "velocity": 0.3937007874015748
          },
          {
            "duration": 0.32608649999997397,
            "durationTicks": 288,
            "midi": 62,
            "name": "D4",
            "ticks": 273238,
            "time": 309.3723023854167,
            "velocity": 0.3937007874015748
          },
          {
            "duration": 0.21739100000002054,
            "durationTicks": 192,
            "midi": 88,
            "name": "E6",
            "ticks": 273430,
            "time": 309.58969338541664,
            "velocity": 0.3937007874015748
          },
          {
            "duration": 0.21739100000002054,
            "durationTicks": 192,
            "midi": 76,
            "name": "E5",
            "ticks": 273430,
            "time": 309.58969338541664,
            "velocity": 0.3937007874015748
          },
          {
            "duration": 0.21739100000002054,
            "durationTicks": 192,
            "midi": 83,
            "name": "B5",
            "ticks": 273430,
            "time": 309.58969338541664,
            "velocity": 0.3937007874015748
          },
          {
            "duration": 0.21739100000002054,
            "durationTicks": 192,
            "midi": 88,
            "name": "E6",
            "ticks": 273430,
            "time": 309.58969338541664,
            "velocity": 0.3937007874015748
          },
          {
            "duration": 0.21739100000002054,
            "durationTicks": 192,
            "midi": 95,
            "name": "B6",
            "ticks": 273430,
            "time": 309.58969338541664,
            "velocity": 0.3937007874015748
          },
          {
            "duration": 0.21739100000002054,
            "durationTicks": 192,
            "midi": 71,
            "name": "B4",
            "ticks": 273430,
            "time": 309.58969338541664,
            "velocity": 0.3937007874015748
          },
          {
            "duration": 0.3260865000000308,
            "durationTicks": 288,
            "midi": 57,
            "name": "A3",
            "ticks": 273526,
            "time": 309.69838888541665,
            "velocity": 0.3937007874015748
          },
          {
            "duration": 0.3260865000000308,
            "durationTicks": 288,
            "midi": 62,
            "name": "D4",
            "ticks": 273526,
            "time": 309.69838888541665,
            "velocity": 0.3937007874015748
          },
          {
            "duration": 0.3260865000000308,
            "durationTicks": 288,
            "midi": 54,
            "name": "F#3",
            "ticks": 273526,
            "time": 309.69838888541665,
            "velocity": 0.3937007874015748
          },
          {
            "duration": 0.21739100000002054,
            "durationTicks": 192,
            "midi": 74,
            "name": "D5",
            "ticks": 273622,
            "time": 309.80708438541666,
            "velocity": 0.3937007874015748
          },
          {
            "duration": 0.21739100000002054,
            "durationTicks": 192,
            "midi": 90,
            "name": "F#6",
            "ticks": 273622,
            "time": 309.80708438541666,
            "velocity": 0.3937007874015748
          },
          {
            "duration": 0.21739100000002054,
            "durationTicks": 192,
            "midi": 90,
            "name": "F#6",
            "ticks": 273622,
            "time": 309.80708438541666,
            "velocity": 0.3937007874015748
          },
          {
            "duration": 0.21739100000002054,
            "durationTicks": 192,
            "midi": 86,
            "name": "D6",
            "ticks": 273622,
            "time": 309.80708438541666,
            "velocity": 0.3937007874015748
          },
          {
            "duration": 0.21739100000002054,
            "durationTicks": 192,
            "midi": 86,
            "name": "D6",
            "ticks": 273622,
            "time": 309.80708438541666,
            "velocity": 0.3937007874015748
          },
          {
            "duration": 0.21739100000002054,
            "durationTicks": 192,
            "midi": 78,
            "name": "F#5",
            "ticks": 273622,
            "time": 309.80708438541666,
            "velocity": 0.3937007874015748
          },
          {
            "duration": 0.2173909999999637,
            "durationTicks": 192,
            "midi": 91,
            "name": "G6",
            "ticks": 273814,
            "time": 310.0244753854167,
            "velocity": 0.3937007874015748
          },
          {
            "duration": 0.2173909999999637,
            "durationTicks": 192,
            "midi": 59,
            "name": "B3",
            "ticks": 273814,
            "time": 310.0244753854167,
            "velocity": 0.3937007874015748
          },
          {
            "duration": 0.2173909999999637,
            "durationTicks": 192,
            "midi": 79,
            "name": "G5",
            "ticks": 273814,
            "time": 310.0244753854167,
            "velocity": 0.3937007874015748
          },
          {
            "duration": 0.2173909999999637,
            "durationTicks": 192,
            "midi": 55,
            "name": "G3",
            "ticks": 273814,
            "time": 310.0244753854167,
            "velocity": 0.3937007874015748
          },
          {
            "duration": 0.2173909999999637,
            "durationTicks": 192,
            "midi": 88,
            "name": "E6",
            "ticks": 273814,
            "time": 310.0244753854167,
            "velocity": 0.3937007874015748
          },
          {
            "duration": 0.2173909999999637,
            "durationTicks": 192,
            "midi": 91,
            "name": "G6",
            "ticks": 273814,
            "time": 310.0244753854167,
            "velocity": 0.3937007874015748
          },
          {
            "duration": 0.2173909999999637,
            "durationTicks": 192,
            "midi": 88,
            "name": "E6",
            "ticks": 273814,
            "time": 310.0244753854167,
            "velocity": 0.3937007874015748
          },
          {
            "duration": 0.2173909999999637,
            "durationTicks": 192,
            "midi": 76,
            "name": "E5",
            "ticks": 273814,
            "time": 310.0244753854167,
            "velocity": 0.3937007874015748
          },
          {
            "duration": 0.2173909999999637,
            "durationTicks": 192,
            "midi": 64,
            "name": "E4",
            "ticks": 273814,
            "time": 310.0244753854167,
            "velocity": 0.3937007874015748
          },
          {
            "duration": 0.3260865000000308,
            "durationTicks": 288,
            "midi": 59,
            "name": "B3",
            "ticks": 274006,
            "time": 310.24186638541664,
            "velocity": 0.3937007874015748
          },
          {
            "duration": 0.21739100000002054,
            "durationTicks": 192,
            "midi": 90,
            "name": "F#6",
            "ticks": 274006,
            "time": 310.24186638541664,
            "velocity": 0.3937007874015748
          },
          {
            "duration": 0.3260865000000308,
            "durationTicks": 288,
            "midi": 64,
            "name": "E4",
            "ticks": 274006,
            "time": 310.24186638541664,
            "velocity": 0.3937007874015748
          },
          {
            "duration": 0.21739100000002054,
            "durationTicks": 192,
            "midi": 86,
            "name": "D6",
            "ticks": 274006,
            "time": 310.24186638541664,
            "velocity": 0.3937007874015748
          },
          {
            "duration": 0.21739100000002054,
            "durationTicks": 192,
            "midi": 86,
            "name": "D6",
            "ticks": 274006,
            "time": 310.24186638541664,
            "velocity": 0.3937007874015748
          },
          {
            "duration": 0.21739100000002054,
            "durationTicks": 192,
            "midi": 90,
            "name": "F#6",
            "ticks": 274006,
            "time": 310.24186638541664,
            "velocity": 0.3937007874015748
          },
          {
            "duration": 0.3260865000000308,
            "durationTicks": 288,
            "midi": 55,
            "name": "G3",
            "ticks": 274006,
            "time": 310.24186638541664,
            "velocity": 0.3937007874015748
          },
          {
            "duration": 0.21739100000002054,
            "durationTicks": 192,
            "midi": 74,
            "name": "D5",
            "ticks": 274006,
            "time": 310.24186638541664,
            "velocity": 0.3937007874015748
          },
          {
            "duration": 0.21739100000002054,
            "durationTicks": 192,
            "midi": 78,
            "name": "F#5",
            "ticks": 274006,
            "time": 310.24186638541664,
            "velocity": 0.3937007874015748
          },
          {
            "duration": 0.2173909999999637,
            "durationTicks": 192,
            "midi": 76,
            "name": "E5",
            "ticks": 274198,
            "time": 310.45925738541666,
            "velocity": 0.3937007874015748
          },
          {
            "duration": 0.2173909999999637,
            "durationTicks": 192,
            "midi": 71,
            "name": "B4",
            "ticks": 274198,
            "time": 310.45925738541666,
            "velocity": 0.3937007874015748
          },
          {
            "duration": 0.2173909999999637,
            "durationTicks": 192,
            "midi": 88,
            "name": "E6",
            "ticks": 274198,
            "time": 310.45925738541666,
            "velocity": 0.3937007874015748
          },
          {
            "duration": 0.2173909999999637,
            "durationTicks": 192,
            "midi": 88,
            "name": "E6",
            "ticks": 274198,
            "time": 310.45925738541666,
            "velocity": 0.3937007874015748
          },
          {
            "duration": 0.2173909999999637,
            "durationTicks": 192,
            "midi": 83,
            "name": "B5",
            "ticks": 274198,
            "time": 310.45925738541666,
            "velocity": 0.3937007874015748
          },
          {
            "duration": 0.2173909999999637,
            "durationTicks": 192,
            "midi": 95,
            "name": "B6",
            "ticks": 274198,
            "time": 310.45925738541666,
            "velocity": 0.3937007874015748
          },
          {
            "duration": 0.32608649999997397,
            "durationTicks": 288,
            "midi": 59,
            "name": "B3",
            "ticks": 274294,
            "time": 310.5679528854167,
            "velocity": 0.3937007874015748
          },
          {
            "duration": 0.32608649999997397,
            "durationTicks": 288,
            "midi": 55,
            "name": "G3",
            "ticks": 274294,
            "time": 310.5679528854167,
            "velocity": 0.3937007874015748
          },
          {
            "duration": 0.32608649999997397,
            "durationTicks": 288,
            "midi": 64,
            "name": "E4",
            "ticks": 274294,
            "time": 310.5679528854167,
            "velocity": 0.3937007874015748
          },
          {
            "duration": 0.21739100000002054,
            "durationTicks": 192,
            "midi": 93,
            "name": "A6",
            "ticks": 274390,
            "time": 310.6766483854166,
            "velocity": 0.3937007874015748
          },
          {
            "duration": 0.21739100000002054,
            "durationTicks": 192,
            "midi": 86,
            "name": "D6",
            "ticks": 274390,
            "time": 310.6766483854166,
            "velocity": 0.3937007874015748
          },
          {
            "duration": 0.21739100000002054,
            "durationTicks": 192,
            "midi": 69,
            "name": "A4",
            "ticks": 274390,
            "time": 310.6766483854166,
            "velocity": 0.3937007874015748
          },
          {
            "duration": 0.21739100000002054,
            "durationTicks": 192,
            "midi": 81,
            "name": "A5",
            "ticks": 274390,
            "time": 310.6766483854166,
            "velocity": 0.3937007874015748
          },
          {
            "duration": 0.21739100000002054,
            "durationTicks": 192,
            "midi": 86,
            "name": "D6",
            "ticks": 274390,
            "time": 310.6766483854166,
            "velocity": 0.3937007874015748
          },
          {
            "duration": 0.21739100000002054,
            "durationTicks": 192,
            "midi": 74,
            "name": "D5",
            "ticks": 274390,
            "time": 310.6766483854166,
            "velocity": 0.3937007874015748
          },
          {
            "duration": 0.43478199999998424,
            "durationTicks": 384,
            "midi": 91,
            "name": "G6",
            "ticks": 274582,
            "time": 310.89403938541665,
            "velocity": 0.3937007874015748
          },
          {
            "duration": 0.43478199999998424,
            "durationTicks": 384,
            "midi": 79,
            "name": "G5",
            "ticks": 274582,
            "time": 310.89403938541665,
            "velocity": 0.3937007874015748
          },
          {
            "duration": 0.21739100000002054,
            "durationTicks": 192,
            "midi": 59,
            "name": "B3",
            "ticks": 274582,
            "time": 310.89403938541665,
            "velocity": 0.3937007874015748
          },
          {
            "duration": 0.43478199999998424,
            "durationTicks": 384,
            "midi": 83,
            "name": "B5",
            "ticks": 274582,
            "time": 310.89403938541665,
            "velocity": 0.3937007874015748
          },
          {
            "duration": 0.43478199999998424,
            "durationTicks": 384,
            "midi": 67,
            "name": "G4",
            "ticks": 274582,
            "time": 310.89403938541665,
            "velocity": 0.3937007874015748
          },
          {
            "duration": 0.21739100000002054,
            "durationTicks": 192,
            "midi": 55,
            "name": "G3",
            "ticks": 274582,
            "time": 310.89403938541665,
            "velocity": 0.3937007874015748
          },
          {
            "duration": 0.43478199999998424,
            "durationTicks": 384,
            "midi": 71,
            "name": "B4",
            "ticks": 274582,
            "time": 310.89403938541665,
            "velocity": 0.3937007874015748
          },
          {
            "duration": 0.21739100000002054,
            "durationTicks": 192,
            "midi": 64,
            "name": "E4",
            "ticks": 274582,
            "time": 310.89403938541665,
            "velocity": 0.3937007874015748
          },
          {
            "duration": 0.43478199999998424,
            "durationTicks": 384,
            "midi": 95,
            "name": "B6",
            "ticks": 274582,
            "time": 310.89403938541665,
            "velocity": 0.3937007874015748
          },
          {
            "duration": 0.32608649999997397,
            "durationTicks": 288,
            "midi": 64,
            "name": "E4",
            "ticks": 274774,
            "time": 311.11143038541667,
            "velocity": 0.3937007874015748
          },
          {
            "duration": 0.32608649999997397,
            "durationTicks": 288,
            "midi": 55,
            "name": "G3",
            "ticks": 274774,
            "time": 311.11143038541667,
            "velocity": 0.3937007874015748
          },
          {
            "duration": 0.32608649999997397,
            "durationTicks": 288,
            "midi": 59,
            "name": "B3",
            "ticks": 274774,
            "time": 311.11143038541667,
            "velocity": 0.3937007874015748
          },
          {
            "duration": 0.21739100000002054,
            "durationTicks": 192,
            "midi": 90,
            "name": "F#6",
            "ticks": 274966,
            "time": 311.32882138541663,
            "velocity": 0.3937007874015748
          },
          {
            "duration": 0.21739100000002054,
            "durationTicks": 192,
            "midi": 66,
            "name": "F#4",
            "ticks": 274966,
            "time": 311.32882138541663,
            "velocity": 0.3937007874015748
          },
          {
            "duration": 0.21739100000002054,
            "durationTicks": 192,
            "midi": 81,
            "name": "A5",
            "ticks": 274966,
            "time": 311.32882138541663,
            "velocity": 0.3937007874015748
          },
          {
            "duration": 0.21739100000002054,
            "durationTicks": 192,
            "midi": 93,
            "name": "A6",
            "ticks": 274966,
            "time": 311.32882138541663,
            "velocity": 0.3937007874015748
          },
          {
            "duration": 0.21739100000002054,
            "durationTicks": 192,
            "midi": 78,
            "name": "F#5",
            "ticks": 274966,
            "time": 311.32882138541663,
            "velocity": 0.3937007874015748
          },
          {
            "duration": 0.21739100000002054,
            "durationTicks": 192,
            "midi": 69,
            "name": "A4",
            "ticks": 274966,
            "time": 311.32882138541663,
            "velocity": 0.3937007874015748
          },
          {
            "duration": 0.3260865000000308,
            "durationTicks": 288,
            "midi": 64,
            "name": "E4",
            "ticks": 275062,
            "time": 311.43751688541664,
            "velocity": 0.3937007874015748
          },
          {
            "duration": 0.3260865000000308,
            "durationTicks": 288,
            "midi": 55,
            "name": "G3",
            "ticks": 275062,
            "time": 311.43751688541664,
            "velocity": 0.3937007874015748
          },
          {
            "duration": 0.3260865000000308,
            "durationTicks": 288,
            "midi": 59,
            "name": "B3",
            "ticks": 275062,
            "time": 311.43751688541664,
            "velocity": 0.3937007874015748
          },
          {
            "duration": 0.21739100000002054,
            "durationTicks": 192,
            "midi": 79,
            "name": "G5",
            "ticks": 275158,
            "time": 311.54621238541665,
            "velocity": 0.3937007874015748
          },
          {
            "duration": 0.21739100000002054,
            "durationTicks": 192,
            "midi": 83,
            "name": "B5",
            "ticks": 275158,
            "time": 311.54621238541665,
            "velocity": 0.3937007874015748
          },
          {
            "duration": 0.21739100000002054,
            "durationTicks": 192,
            "midi": 67,
            "name": "G4",
            "ticks": 275158,
            "time": 311.54621238541665,
            "velocity": 0.3937007874015748
          },
          {
            "duration": 0.21739100000002054,
            "durationTicks": 192,
            "midi": 71,
            "name": "B4",
            "ticks": 275158,
            "time": 311.54621238541665,
            "velocity": 0.3937007874015748
          },
          {
            "duration": 0.21739100000002054,
            "durationTicks": 192,
            "midi": 91,
            "name": "G6",
            "ticks": 275158,
            "time": 311.54621238541665,
            "velocity": 0.3937007874015748
          },
          {
            "duration": 0.21739100000002054,
            "durationTicks": 192,
            "midi": 95,
            "name": "B6",
            "ticks": 275158,
            "time": 311.54621238541665,
            "velocity": 0.3937007874015748
          },
          {
            "duration": 0.2173909999999637,
            "durationTicks": 192,
            "midi": 93,
            "name": "A6",
            "ticks": 275350,
            "time": 311.7636033854167,
            "velocity": 0.3937007874015748
          },
          {
            "duration": 0.2173909999999637,
            "durationTicks": 192,
            "midi": 64,
            "name": "E4",
            "ticks": 275350,
            "time": 311.7636033854167,
            "velocity": 0.3937007874015748
          },
          {
            "duration": 0.2173909999999637,
            "durationTicks": 192,
            "midi": 59,
            "name": "B3",
            "ticks": 275350,
            "time": 311.7636033854167,
            "velocity": 0.3937007874015748
          },
          {
            "duration": 0.2173909999999637,
            "durationTicks": 192,
            "midi": 81,
            "name": "A5",
            "ticks": 275350,
            "time": 311.7636033854167,
            "velocity": 0.3937007874015748
          },
          {
            "duration": 0.2173909999999637,
            "durationTicks": 192,
            "midi": 78,
            "name": "F#5",
            "ticks": 275350,
            "time": 311.7636033854167,
            "velocity": 0.3937007874015748
          },
          {
            "duration": 0.2173909999999637,
            "durationTicks": 192,
            "midi": 69,
            "name": "A4",
            "ticks": 275350,
            "time": 311.7636033854167,
            "velocity": 0.3937007874015748
          },
          {
            "duration": 0.2173909999999637,
            "durationTicks": 192,
            "midi": 66,
            "name": "F#4",
            "ticks": 275350,
            "time": 311.7636033854167,
            "velocity": 0.3937007874015748
          },
          {
            "duration": 0.2173909999999637,
            "durationTicks": 192,
            "midi": 90,
            "name": "F#6",
            "ticks": 275350,
            "time": 311.7636033854167,
            "velocity": 0.3937007874015748
          },
          {
            "duration": 0.2173909999999637,
            "durationTicks": 192,
            "midi": 55,
            "name": "G3",
            "ticks": 275350,
            "time": 311.7636033854167,
            "velocity": 0.3937007874015748
          },
          {
            "duration": 0.21739100000002054,
            "durationTicks": 192,
            "midi": 91,
            "name": "G6",
            "ticks": 275542,
            "time": 311.98099438541664,
            "velocity": 0.3937007874015748
          },
          {
            "duration": 0.21739100000002054,
            "durationTicks": 192,
            "midi": 76,
            "name": "E5",
            "ticks": 275542,
            "time": 311.98099438541664,
            "velocity": 0.3937007874015748
          },
          {
            "duration": 0.3260865000000308,
            "durationTicks": 288,
            "midi": 59,
            "name": "B3",
            "ticks": 275542,
            "time": 311.98099438541664,
            "velocity": 0.3937007874015748
          },
          {
            "duration": 0.21739100000002054,
            "durationTicks": 192,
            "midi": 64,
            "name": "E4",
            "ticks": 275542,
            "time": 311.98099438541664,
            "velocity": 0.3937007874015748
          },
          {
            "duration": 0.3260865000000308,
            "durationTicks": 288,
            "midi": 64,
            "name": "E4",
            "ticks": 275542,
            "time": 311.98099438541664,
            "velocity": 0.3937007874015748
          },
          {
            "duration": 0.21739100000002054,
            "durationTicks": 192,
            "midi": 88,
            "name": "E6",
            "ticks": 275542,
            "time": 311.98099438541664,
            "velocity": 0.3937007874015748
          },
          {
            "duration": 0.21739100000002054,
            "durationTicks": 192,
            "midi": 67,
            "name": "G4",
            "ticks": 275542,
            "time": 311.98099438541664,
            "velocity": 0.3937007874015748
          },
          {
            "duration": 0.3260865000000308,
            "durationTicks": 288,
            "midi": 55,
            "name": "G3",
            "ticks": 275542,
            "time": 311.98099438541664,
            "velocity": 0.3937007874015748
          },
          {
            "duration": 0.21739100000002054,
            "durationTicks": 192,
            "midi": 79,
            "name": "G5",
            "ticks": 275542,
            "time": 311.98099438541664,
            "velocity": 0.3937007874015748
          },
          {
            "duration": 0.21739100000002054,
            "durationTicks": 192,
            "midi": 62,
            "name": "D4",
            "ticks": 275734,
            "time": 312.19838538541666,
            "velocity": 0.3937007874015748
          },
          {
            "duration": 0.21739100000002054,
            "durationTicks": 192,
            "midi": 66,
            "name": "F#4",
            "ticks": 275734,
            "time": 312.19838538541666,
            "velocity": 0.3937007874015748
          },
          {
            "duration": 0.21739100000002054,
            "durationTicks": 192,
            "midi": 74,
            "name": "D5",
            "ticks": 275734,
            "time": 312.19838538541666,
            "velocity": 0.3937007874015748
          },
          {
            "duration": 0.21739100000002054,
            "durationTicks": 192,
            "midi": 78,
            "name": "F#5",
            "ticks": 275734,
            "time": 312.19838538541666,
            "velocity": 0.3937007874015748
          },
          {
            "duration": 0.21739100000002054,
            "durationTicks": 192,
            "midi": 90,
            "name": "F#6",
            "ticks": 275734,
            "time": 312.19838538541666,
            "velocity": 0.3937007874015748
          },
          {
            "duration": 0.21739100000002054,
            "durationTicks": 192,
            "midi": 86,
            "name": "D6",
            "ticks": 275734,
            "time": 312.19838538541666,
            "velocity": 0.3937007874015748
          },
          {
            "duration": 0.32608649999997397,
            "durationTicks": 288,
            "midi": 55,
            "name": "G3",
            "ticks": 275830,
            "time": 312.30708088541667,
            "velocity": 0.3937007874015748
          },
          {
            "duration": 0.32608649999997397,
            "durationTicks": 288,
            "midi": 64,
            "name": "E4",
            "ticks": 275830,
            "time": 312.30708088541667,
            "velocity": 0.3937007874015748
          },
          {
            "duration": 0.32608649999997397,
            "durationTicks": 288,
            "midi": 59,
            "name": "B3",
            "ticks": 275830,
            "time": 312.30708088541667,
            "velocity": 0.3937007874015748
          },
          {
            "duration": 0.2173909999999637,
            "durationTicks": 192,
            "midi": 86,
            "name": "D6",
            "ticks": 275926,
            "time": 312.4157763854167,
            "velocity": 0.3937007874015748
          },
          {
            "duration": 0.2173909999999637,
            "durationTicks": 192,
            "midi": 69,
            "name": "A4",
            "ticks": 275926,
            "time": 312.4157763854167,
            "velocity": 0.3937007874015748
          },
          {
            "duration": 0.2173909999999637,
            "durationTicks": 192,
            "midi": 81,
            "name": "A5",
            "ticks": 275926,
            "time": 312.4157763854167,
            "velocity": 0.3937007874015748
          },
          {
            "duration": 0.2173909999999637,
            "durationTicks": 192,
            "midi": 74,
            "name": "D5",
            "ticks": 275926,
            "time": 312.4157763854167,
            "velocity": 0.3937007874015748
          },
          {
            "duration": 0.2173909999999637,
            "durationTicks": 192,
            "midi": 57,
            "name": "A3",
            "ticks": 275926,
            "time": 312.4157763854167,
            "velocity": 0.3937007874015748
          },
          {
            "duration": 0.2173909999999637,
            "durationTicks": 192,
            "midi": 62,
            "name": "D4",
            "ticks": 275926,
            "time": 312.4157763854167,
            "velocity": 0.3937007874015748
          },
          {
            "duration": 0.21739100000002054,
            "durationTicks": 192,
            "midi": 64,
            "name": "E4",
            "ticks": 276118,
            "time": 312.63316738541664,
            "velocity": 0.3937007874015748
          },
          {
            "duration": 0.5434774999999945,
            "durationTicks": 480,
            "midi": 83,
            "name": "B5",
            "ticks": 276118,
            "time": 312.63316738541664,
            "velocity": 0.3937007874015748
          },
          {
            "duration": 0.21739100000002054,
            "durationTicks": 192,
            "midi": 55,
            "name": "G3",
            "ticks": 276118,
            "time": 312.63316738541664,
            "velocity": 0.3937007874015748
          },
          {
            "duration": 0.21739100000002054,
            "durationTicks": 192,
            "midi": 59,
            "name": "B3",
            "ticks": 276118,
            "time": 312.63316738541664,
            "velocity": 0.3937007874015748
          },
          {
            "duration": 0.5434774999999945,
            "durationTicks": 480,
            "midi": 71,
            "name": "B4",
            "ticks": 276118,
            "time": 312.63316738541664,
            "velocity": 0.3937007874015748
          },
          {
            "duration": 0.5434774999999945,
            "durationTicks": 480,
            "midi": 59,
            "name": "B3",
            "ticks": 276118,
            "time": 312.63316738541664,
            "velocity": 0.3937007874015748
          },
          {
            "duration": 0.5434774999999945,
            "durationTicks": 480,
            "midi": 64,
            "name": "E4",
            "ticks": 276118,
            "time": 312.63316738541664,
            "velocity": 0.3937007874015748
          },
          {
            "duration": 0.5434774999999945,
            "durationTicks": 480,
            "midi": 76,
            "name": "E5",
            "ticks": 276118,
            "time": 312.63316738541664,
            "velocity": 0.3937007874015748
          },
          {
            "duration": 0.5434774999999945,
            "durationTicks": 480,
            "midi": 88,
            "name": "E6",
            "ticks": 276118,
            "time": 312.63316738541664,
            "velocity": 0.3937007874015748
          },
          {
            "duration": 0.32608649999997397,
            "durationTicks": 288,
            "midi": 59,
            "name": "B3",
            "ticks": 276310,
            "time": 312.85055838541666,
            "velocity": 0.3937007874015748
          },
          {
            "duration": 0.32608649999997397,
            "durationTicks": 288,
            "midi": 55,
            "name": "G3",
            "ticks": 276310,
            "time": 312.85055838541666,
            "velocity": 0.3937007874015748
          },
          {
            "duration": 0.32608649999997397,
            "durationTicks": 288,
            "midi": 64,
            "name": "E4",
            "ticks": 276310,
            "time": 312.85055838541666,
            "velocity": 0.3937007874015748
          },
          {
            "duration": 0.3260865000000308,
            "durationTicks": 288,
            "midi": 59,
            "name": "B3",
            "ticks": 276598,
            "time": 313.17664488541664,
            "velocity": 0.3937007874015748
          },
          {
            "duration": 0.3260865000000308,
            "durationTicks": 288,
            "midi": 55,
            "name": "G3",
            "ticks": 276598,
            "time": 313.17664488541664,
            "velocity": 0.3937007874015748
          },
          {
            "duration": 0.3260865000000308,
            "durationTicks": 288,
            "midi": 64,
            "name": "E4",
            "ticks": 276598,
            "time": 313.17664488541664,
            "velocity": 0.3937007874015748
          },
          {
            "duration": 5.217384000000038,
            "durationTicks": 4608,
            "midi": 63,
            "name": "D#4",
            "ticks": 287254,
            "time": 325.24184538541664,
            "velocity": 0.3937007874015748
          },
          {
            "duration": 5.217384000000038,
            "durationTicks": 4608,
            "midi": 55,
            "name": "G3",
            "ticks": 287254,
            "time": 325.24184538541664,
            "velocity": 0.3937007874015748
          },
          {
            "duration": 6.956512000000032,
            "durationTicks": 6144,
            "midi": 50,
            "name": "D3",
            "ticks": 287254,
            "time": 325.24184538541664,
            "velocity": 0.3937007874015748
          },
          {
            "duration": 5.217384000000038,
            "durationTicks": 4608,
            "midi": 58,
            "name": "A#3",
            "ticks": 287254,
            "time": 325.24184538541664,
            "velocity": 0.3937007874015748
          },
          {
            "duration": 6.956512000000032,
            "durationTicks": 6144,
            "midi": 45,
            "name": "A2",
            "ticks": 287254,
            "time": 325.24184538541664,
            "velocity": 0.3937007874015748
          },
          {
            "duration": 6.956512000000032,
            "durationTicks": 6144,
            "midi": 26,
            "name": "D1",
            "ticks": 287254,
            "time": 325.24184538541664,
            "velocity": 0.3937007874015748
          },
          {
            "duration": 5.217384000000038,
            "durationTicks": 4608,
            "midi": 57,
            "name": "A3",
            "ticks": 287254,
            "time": 325.24184538541664,
            "velocity": 0.3937007874015748
          },
          {
            "duration": 6.956512000000032,
            "durationTicks": 6144,
            "midi": 47,
            "name": "B2",
            "ticks": 287254,
            "time": 325.24184538541664,
            "velocity": 0.3937007874015748
          },
          {
            "duration": 0.21739100000002054,
            "durationTicks": 192,
            "midi": 76,
            "name": "E5",
            "ticks": 287254,
            "time": 325.24184538541664,
            "velocity": 0.3937007874015748
          },
          {
            "duration": 5.217384000000038,
            "durationTicks": 4608,
            "midi": 84,
            "name": "C6",
            "ticks": 287254,
            "time": 325.24184538541664,
            "velocity": 0.3937007874015748
          },
          {
            "duration": 5.217384000000038,
            "durationTicks": 4608,
            "midi": 94,
            "name": "A#6",
            "ticks": 287254,
            "time": 325.24184538541664,
            "velocity": 0.3937007874015748
          },
          {
            "duration": 5.217384000000038,
            "durationTicks": 4608,
            "midi": 78,
            "name": "F#5",
            "ticks": 287254,
            "time": 325.24184538541664,
            "velocity": 0.3937007874015748
          },
          {
            "duration": 6.956512000000032,
            "durationTicks": 6144,
            "midi": 49,
            "name": "C#3",
            "ticks": 287254,
            "time": 325.24184538541664,
            "velocity": 0.3937007874015748
          },
          {
            "duration": 5.217384000000038,
            "durationTicks": 4608,
            "midi": 92,
            "name": "G#6",
            "ticks": 287254,
            "time": 325.24184538541664,
            "velocity": 0.3937007874015748
          },
          {
            "duration": 5.217384000000038,
            "durationTicks": 4608,
            "midi": 91,
            "name": "G6",
            "ticks": 287254,
            "time": 325.24184538541664,
            "velocity": 0.3937007874015748
          },
          {
            "duration": 5.217384000000038,
            "durationTicks": 4608,
            "midi": 94,
            "name": "A#6",
            "ticks": 287254,
            "time": 325.24184538541664,
            "velocity": 0.3937007874015748
          },
          {
            "duration": 5.217384000000038,
            "durationTicks": 4608,
            "midi": 93,
            "name": "A6",
            "ticks": 287254,
            "time": 325.24184538541664,
            "velocity": 0.3937007874015748
          },
          {
            "duration": 5.217384000000038,
            "durationTicks": 4608,
            "midi": 77,
            "name": "F5",
            "ticks": 287254,
            "time": 325.24184538541664,
            "velocity": 0.3937007874015748
          },
          {
            "duration": 5.217384000000038,
            "durationTicks": 4608,
            "midi": 79,
            "name": "G5",
            "ticks": 287254,
            "time": 325.24184538541664,
            "velocity": 0.3937007874015748
          },
          {
            "duration": 5.217384000000038,
            "durationTicks": 4608,
            "midi": 61,
            "name": "C#4",
            "ticks": 287254,
            "time": 325.24184538541664,
            "velocity": 0.3937007874015748
          },
          {
            "duration": 5.217384000000038,
            "durationTicks": 4608,
            "midi": 88,
            "name": "E6",
            "ticks": 287254,
            "time": 325.24184538541664,
            "velocity": 0.3937007874015748
          },
          {
            "duration": 5.217384000000038,
            "durationTicks": 4608,
            "midi": 62,
            "name": "D4",
            "ticks": 287254,
            "time": 325.24184538541664,
            "velocity": 0.3937007874015748
          },
          {
            "duration": 6.956512000000032,
            "durationTicks": 6144,
            "midi": 44,
            "name": "G#2",
            "ticks": 287254,
            "time": 325.24184538541664,
            "velocity": 0.3937007874015748
          },
          {
            "duration": 5.217384000000038,
            "durationTicks": 4608,
            "midi": 81,
            "name": "A5",
            "ticks": 287254,
            "time": 325.24184538541664,
            "velocity": 0.3937007874015748
          },
          {
            "duration": 5.217384000000038,
            "durationTicks": 4608,
            "midi": 60,
            "name": "C4",
            "ticks": 287254,
            "time": 325.24184538541664,
            "velocity": 0.3937007874015748
          },
          {
            "duration": 5.217384000000038,
            "durationTicks": 4608,
            "midi": 95,
            "name": "B6",
            "ticks": 287254,
            "time": 325.24184538541664,
            "velocity": 0.3937007874015748
          },
          {
            "duration": 5.217384000000038,
            "durationTicks": 4608,
            "midi": 90,
            "name": "F#6",
            "ticks": 287254,
            "time": 325.24184538541664,
            "velocity": 0.3937007874015748
          },
          {
            "duration": 5.217384000000038,
            "durationTicks": 4608,
            "midi": 72,
            "name": "C5",
            "ticks": 287254,
            "time": 325.24184538541664,
            "velocity": 0.3937007874015748
          },
          {
            "duration": 5.217384000000038,
            "durationTicks": 4608,
            "midi": 89,
            "name": "F6",
            "ticks": 287254,
            "time": 325.24184538541664,
            "velocity": 0.3937007874015748
          },
          {
            "duration": 0.21739100000002054,
            "durationTicks": 192,
            "midi": 71,
            "name": "B4",
            "ticks": 287254,
            "time": 325.24184538541664,
            "velocity": 0.3937007874015748
          },
          {
            "duration": 5.217384000000038,
            "durationTicks": 4608,
            "midi": 87,
            "name": "D#6",
            "ticks": 287254,
            "time": 325.24184538541664,
            "velocity": 0.3937007874015748
          },
          {
            "duration": 6.956512000000032,
            "durationTicks": 6144,
            "midi": 40,
            "name": "E2",
            "ticks": 287254,
            "time": 325.24184538541664,
            "velocity": 0.3937007874015748
          },
          {
            "duration": 0.21739100000002054,
            "durationTicks": 192,
            "midi": 59,
            "name": "B3",
            "ticks": 287254,
            "time": 325.24184538541664,
            "velocity": 0.3937007874015748
          },
          {
            "duration": 5.217384000000038,
            "durationTicks": 4608,
            "midi": 86,
            "name": "D6",
            "ticks": 287254,
            "time": 325.24184538541664,
            "velocity": 0.3937007874015748
          },
          {
            "duration": 6.956512000000032,
            "durationTicks": 6144,
            "midi": 39,
            "name": "D#2",
            "ticks": 287254,
            "time": 325.24184538541664,
            "velocity": 0.3937007874015748
          },
          {
            "duration": 6.956512000000032,
            "durationTicks": 6144,
            "midi": 43,
            "name": "G2",
            "ticks": 287254,
            "time": 325.24184538541664,
            "velocity": 0.3937007874015748
          },
          {
            "duration": 6.956512000000032,
            "durationTicks": 6144,
            "midi": 41,
            "name": "F2",
            "ticks": 287254,
            "time": 325.24184538541664,
            "velocity": 0.3937007874015748
          },
          {
            "duration": 5.217384000000038,
            "durationTicks": 4608,
            "midi": 85,
            "name": "C#6",
            "ticks": 287254,
            "time": 325.24184538541664,
            "velocity": 0.3937007874015748
          },
          {
            "duration": 5.217384000000038,
            "durationTicks": 4608,
            "midi": 86,
            "name": "D6",
            "ticks": 287254,
            "time": 325.24184538541664,
            "velocity": 0.3937007874015748
          },
          {
            "duration": 6.956512000000032,
            "durationTicks": 6144,
            "midi": 28,
            "name": "E1",
            "ticks": 287254,
            "time": 325.24184538541664,
            "velocity": 0.3937007874015748
          },
          {
            "duration": 6.956512000000032,
            "durationTicks": 6144,
            "midi": 24,
            "name": "C1",
            "ticks": 287254,
            "time": 325.24184538541664,
            "velocity": 0.3937007874015748
          },
          {
            "duration": 6.956512000000032,
            "durationTicks": 6144,
            "midi": 51,
            "name": "D#3",
            "ticks": 287254,
            "time": 325.24184538541664,
            "velocity": 0.3937007874015748
          },
          {
            "duration": 5.217384000000038,
            "durationTicks": 4608,
            "midi": 90,
            "name": "F#6",
            "ticks": 287254,
            "time": 325.24184538541664,
            "velocity": 0.3937007874015748
          },
          {
            "duration": 6.956512000000032,
            "durationTicks": 6144,
            "midi": 29,
            "name": "F1",
            "ticks": 287254,
            "time": 325.24184538541664,
            "velocity": 0.3937007874015748
          },
          {
            "duration": 6.956512000000032,
            "durationTicks": 6144,
            "midi": 32,
            "name": "G#1",
            "ticks": 287254,
            "time": 325.24184538541664,
            "velocity": 0.3937007874015748
          },
          {
            "duration": 5.217384000000038,
            "durationTicks": 4608,
            "midi": 80,
            "name": "G#5",
            "ticks": 287254,
            "time": 325.24184538541664,
            "velocity": 0.3937007874015748
          },
          {
            "duration": 6.956512000000032,
            "durationTicks": 6144,
            "midi": 34,
            "name": "A#1",
            "ticks": 287254,
            "time": 325.24184538541664,
            "velocity": 0.3937007874015748
          },
          {
            "duration": 6.956512000000032,
            "durationTicks": 6144,
            "midi": 25,
            "name": "C#1",
            "ticks": 287254,
            "time": 325.24184538541664,
            "velocity": 0.3937007874015748
          },
          {
            "duration": 6.956512000000032,
            "durationTicks": 6144,
            "midi": 36,
            "name": "C2",
            "ticks": 287254,
            "time": 325.24184538541664,
            "velocity": 0.3937007874015748
          },
          {
            "duration": 6.956512000000032,
            "durationTicks": 6144,
            "midi": 35,
            "name": "B1",
            "ticks": 287254,
            "time": 325.24184538541664,
            "velocity": 0.3937007874015748
          },
          {
            "duration": 5.217384000000038,
            "durationTicks": 4608,
            "midi": 69,
            "name": "A4",
            "ticks": 287254,
            "time": 325.24184538541664,
            "velocity": 0.3937007874015748
          },
          {
            "duration": 6.956512000000032,
            "durationTicks": 6144,
            "midi": 52,
            "name": "E3",
            "ticks": 287254,
            "time": 325.24184538541664,
            "velocity": 0.3937007874015748
          },
          {
            "duration": 5.217384000000038,
            "durationTicks": 4608,
            "midi": 68,
            "name": "G#4",
            "ticks": 287254,
            "time": 325.24184538541664,
            "velocity": 0.3937007874015748
          },
          {
            "duration": 6.956512000000032,
            "durationTicks": 6144,
            "midi": 37,
            "name": "C#2",
            "ticks": 287254,
            "time": 325.24184538541664,
            "velocity": 0.3937007874015748
          },
          {
            "duration": 0.21739100000002054,
            "durationTicks": 192,
            "midi": 64,
            "name": "E4",
            "ticks": 287254,
            "time": 325.24184538541664,
            "velocity": 0.3937007874015748
          },
          {
            "duration": 6.956512000000032,
            "durationTicks": 6144,
            "midi": 27,
            "name": "D#1",
            "ticks": 287254,
            "time": 325.24184538541664,
            "velocity": 0.3937007874015748
          },
          {
            "duration": 5.217384000000038,
            "durationTicks": 4608,
            "midi": 66,
            "name": "F#4",
            "ticks": 287254,
            "time": 325.24184538541664,
            "velocity": 0.3937007874015748
          },
          {
            "duration": 5.217384000000038,
            "durationTicks": 4608,
            "midi": 89,
            "name": "F6",
            "ticks": 287254,
            "time": 325.24184538541664,
            "velocity": 0.3937007874015748
          },
          {
            "duration": 5.217384000000038,
            "durationTicks": 4608,
            "midi": 67,
            "name": "G4",
            "ticks": 287254,
            "time": 325.24184538541664,
            "velocity": 0.3937007874015748
          },
          {
            "duration": 6.956512000000032,
            "durationTicks": 6144,
            "midi": 30,
            "name": "F#1",
            "ticks": 287254,
            "time": 325.24184538541664,
            "velocity": 0.3937007874015748
          },
          {
            "duration": 6.956512000000032,
            "durationTicks": 6144,
            "midi": 33,
            "name": "A1",
            "ticks": 287254,
            "time": 325.24184538541664,
            "velocity": 0.3937007874015748
          },
          {
            "duration": 6.956512000000032,
            "durationTicks": 6144,
            "midi": 33,
            "name": "A1",
            "ticks": 287254,
            "time": 325.24184538541664,
            "velocity": 0.3937007874015748
          },
          {
            "duration": 6.956512000000032,
            "durationTicks": 6144,
            "midi": 53,
            "name": "F3",
            "ticks": 287254,
            "time": 325.24184538541664,
            "velocity": 0.3937007874015748
          },
          {
            "duration": 6.956512000000032,
            "durationTicks": 6144,
            "midi": 48,
            "name": "C3",
            "ticks": 287254,
            "time": 325.24184538541664,
            "velocity": 0.3937007874015748
          },
          {
            "duration": 5.217384000000038,
            "durationTicks": 4608,
            "midi": 75,
            "name": "D#5",
            "ticks": 287254,
            "time": 325.24184538541664,
            "velocity": 0.3937007874015748
          },
          {
            "duration": 5.217384000000038,
            "durationTicks": 4608,
            "midi": 83,
            "name": "B5",
            "ticks": 287254,
            "time": 325.24184538541664,
            "velocity": 0.3937007874015748
          },
          {
            "duration": 5.217384000000038,
            "durationTicks": 4608,
            "midi": 74,
            "name": "D5",
            "ticks": 287254,
            "time": 325.24184538541664,
            "velocity": 0.3937007874015748
          },
          {
            "duration": 6.956512000000032,
            "durationTicks": 6144,
            "midi": 34,
            "name": "A#1",
            "ticks": 287254,
            "time": 325.24184538541664,
            "velocity": 0.3937007874015748
          },
          {
            "duration": 5.217384000000038,
            "durationTicks": 4608,
            "midi": 87,
            "name": "D#6",
            "ticks": 287254,
            "time": 325.24184538541664,
            "velocity": 0.3937007874015748
          },
          {
            "duration": 5.217384000000038,
            "durationTicks": 4608,
            "midi": 73,
            "name": "C#5",
            "ticks": 287254,
            "time": 325.24184538541664,
            "velocity": 0.3937007874015748
          },
          {
            "duration": 5.217384000000038,
            "durationTicks": 4608,
            "midi": 91,
            "name": "G6",
            "ticks": 287254,
            "time": 325.24184538541664,
            "velocity": 0.3937007874015748
          },
          {
            "duration": 5.217384000000038,
            "durationTicks": 4608,
            "midi": 65,
            "name": "F4",
            "ticks": 287254,
            "time": 325.24184538541664,
            "velocity": 0.3937007874015748
          },
          {
            "duration": 5.217384000000038,
            "durationTicks": 4608,
            "midi": 84,
            "name": "C6",
            "ticks": 287254,
            "time": 325.24184538541664,
            "velocity": 0.3937007874015748
          },
          {
            "duration": 5.217384000000038,
            "durationTicks": 4608,
            "midi": 95,
            "name": "B6",
            "ticks": 287254,
            "time": 325.24184538541664,
            "velocity": 0.3937007874015748
          },
          {
            "duration": 6.956512000000032,
            "durationTicks": 6144,
            "midi": 46,
            "name": "A#2",
            "ticks": 287254,
            "time": 325.24184538541664,
            "velocity": 0.3937007874015748
          },
          {
            "duration": 6.956512000000032,
            "durationTicks": 6144,
            "midi": 31,
            "name": "G1",
            "ticks": 287254,
            "time": 325.24184538541664,
            "velocity": 0.3937007874015748
          },
          {
            "duration": 5.217384000000038,
            "durationTicks": 4608,
            "midi": 84,
            "name": "C6",
            "ticks": 287254,
            "time": 325.24184538541664,
            "velocity": 0.3937007874015748
          },
          {
            "duration": 5.217384000000038,
            "durationTicks": 4608,
            "midi": 88,
            "name": "E6",
            "ticks": 287254,
            "time": 325.24184538541664,
            "velocity": 0.3937007874015748
          },
          {
            "duration": 5.217384000000038,
            "durationTicks": 4608,
            "midi": 56,
            "name": "G#3",
            "ticks": 287254,
            "time": 325.24184538541664,
            "velocity": 0.3937007874015748
          },
          {
            "duration": 5.217384000000038,
            "durationTicks": 4608,
            "midi": 70,
            "name": "A#4",
            "ticks": 287254,
            "time": 325.24184538541664,
            "velocity": 0.3937007874015748
          },
          {
            "duration": 5.217384000000038,
            "durationTicks": 4608,
            "midi": 92,
            "name": "G#6",
            "ticks": 287254,
            "time": 325.24184538541664,
            "velocity": 0.3937007874015748
          },
          {
            "duration": 5.217384000000038,
            "durationTicks": 4608,
            "midi": 85,
            "name": "C#6",
            "ticks": 287254,
            "time": 325.24184538541664,
            "velocity": 0.3937007874015748
          },
          {
            "duration": 6.956512000000032,
            "durationTicks": 6144,
            "midi": 38,
            "name": "D2",
            "ticks": 287254,
            "time": 325.24184538541664,
            "velocity": 0.3937007874015748
          },
          {
            "duration": 6.956512000000032,
            "durationTicks": 6144,
            "midi": 35,
            "name": "B1",
            "ticks": 287254,
            "time": 325.24184538541664,
            "velocity": 0.3937007874015748
          },
          {
            "duration": 5.217384000000038,
            "durationTicks": 4608,
            "midi": 82,
            "name": "A#5",
            "ticks": 287254,
            "time": 325.24184538541664,
            "velocity": 0.3937007874015748
          },
          {
            "duration": 6.956512000000032,
            "durationTicks": 6144,
            "midi": 42,
            "name": "F#2",
            "ticks": 287254,
            "time": 325.24184538541664,
            "velocity": 0.3937007874015748
          },
          {
            "duration": 5.217384000000038,
            "durationTicks": 4608,
            "midi": 93,
            "name": "A6",
            "ticks": 287254,
            "time": 325.24184538541664,
            "velocity": 0.3937007874015748
          },
          {
            "duration": 5.217384000000038,
            "durationTicks": 4608,
            "midi": 54,
            "name": "F#3",
            "ticks": 287254,
            "time": 325.24184538541664,
            "velocity": 0.3937007874015748
          },
          {
            "duration": 0.32608649999997397,
            "durationTicks": 288,
            "midi": 76,
            "name": "E5",
            "ticks": 287446,
            "time": 325.45923638541666,
            "velocity": 0.3937007874015748
          },
          {
            "duration": 0.32608649999997397,
            "durationTicks": 288,
            "midi": 71,
            "name": "B4",
            "ticks": 287446,
            "time": 325.45923638541666,
            "velocity": 0.3937007874015748
          },
          {
            "duration": 0.32608649999997397,
            "durationTicks": 288,
            "midi": 64,
            "name": "E4",
            "ticks": 287446,
            "time": 325.45923638541666,
            "velocity": 0.3937007874015748
          },
          {
            "duration": 0.32608649999997397,
            "durationTicks": 288,
            "midi": 59,
            "name": "B3",
            "ticks": 287446,
            "time": 325.45923638541666,
            "velocity": 0.3937007874015748
          },
          {
            "duration": 0.3260865000000308,
            "durationTicks": 288,
            "midi": 64,
            "name": "E4",
            "ticks": 287734,
            "time": 325.78532288541663,
            "velocity": 0.3937007874015748
          },
          {
            "duration": 0.3260865000000308,
            "durationTicks": 288,
            "midi": 76,
            "name": "E5",
            "ticks": 287734,
            "time": 325.78532288541663,
            "velocity": 0.3937007874015748
          },
          {
            "duration": 0.3260865000000308,
            "durationTicks": 288,
            "midi": 71,
            "name": "B4",
            "ticks": 287734,
            "time": 325.78532288541663,
            "velocity": 0.3937007874015748
          },
          {
            "duration": 0.3260865000000308,
            "durationTicks": 288,
            "midi": 59,
            "name": "B3",
            "ticks": 287734,
            "time": 325.78532288541663,
            "velocity": 0.3937007874015748
          },
          {
            "duration": 0.2173909999999637,
            "durationTicks": 192,
            "midi": 71,
            "name": "B4",
            "ticks": 288022,
            "time": 326.11140938541666,
            "velocity": 0.3937007874015748
          },
          {
            "duration": 0.2173909999999637,
            "durationTicks": 192,
            "midi": 76,
            "name": "E5",
            "ticks": 288022,
            "time": 326.11140938541666,
            "velocity": 0.3937007874015748
          },
          {
            "duration": 0.2173909999999637,
            "durationTicks": 192,
            "midi": 64,
            "name": "E4",
            "ticks": 288022,
            "time": 326.11140938541666,
            "velocity": 0.3937007874015748
          },
          {
            "duration": 0.2173909999999637,
            "durationTicks": 192,
            "midi": 59,
            "name": "B3",
            "ticks": 288022,
            "time": 326.11140938541666,
            "velocity": 0.3937007874015748
          },
          {
            "duration": 0.3260865000000308,
            "durationTicks": 288,
            "midi": 59,
            "name": "B3",
            "ticks": 288214,
            "time": 326.3288003854166,
            "velocity": 0.3937007874015748
          },
          {
            "duration": 0.3260865000000308,
            "durationTicks": 288,
            "midi": 71,
            "name": "B4",
            "ticks": 288214,
            "time": 326.3288003854166,
            "velocity": 0.3937007874015748
          },
          {
            "duration": 0.3260865000000308,
            "durationTicks": 288,
            "midi": 76,
            "name": "E5",
            "ticks": 288214,
            "time": 326.3288003854166,
            "velocity": 0.3937007874015748
          },
          {
            "duration": 0.3260865000000308,
            "durationTicks": 288,
            "midi": 64,
            "name": "E4",
            "ticks": 288214,
            "time": 326.3288003854166,
            "velocity": 0.3937007874015748
          },
          {
            "duration": 0.32608649999997397,
            "durationTicks": 288,
            "midi": 64,
            "name": "E4",
            "ticks": 288502,
            "time": 326.65488688541666,
            "velocity": 0.3937007874015748
          },
          {
            "duration": 0.32608649999997397,
            "durationTicks": 288,
            "midi": 59,
            "name": "B3",
            "ticks": 288502,
            "time": 326.65488688541666,
            "velocity": 0.3937007874015748
          },
          {
            "duration": 0.32608649999997397,
            "durationTicks": 288,
            "midi": 76,
            "name": "E5",
            "ticks": 288502,
            "time": 326.65488688541666,
            "velocity": 0.3937007874015748
          },
          {
            "duration": 0.32608649999997397,
            "durationTicks": 288,
            "midi": 71,
            "name": "B4",
            "ticks": 288502,
            "time": 326.65488688541666,
            "velocity": 0.3937007874015748
          },
          {
            "duration": 0.21739100000002054,
            "durationTicks": 192,
            "midi": 64,
            "name": "E4",
            "ticks": 288790,
            "time": 326.98097338541663,
            "velocity": 0.3937007874015748
          },
          {
            "duration": 0.21739100000002054,
            "durationTicks": 192,
            "midi": 59,
            "name": "B3",
            "ticks": 288790,
            "time": 326.98097338541663,
            "velocity": 0.3937007874015748
          },
          {
            "duration": 0.21739100000002054,
            "durationTicks": 192,
            "midi": 76,
            "name": "E5",
            "ticks": 288790,
            "time": 326.98097338541663,
            "velocity": 0.3937007874015748
          },
          {
            "duration": 0.21739100000002054,
            "durationTicks": 192,
            "midi": 71,
            "name": "B4",
            "ticks": 288790,
            "time": 326.98097338541663,
            "velocity": 0.3937007874015748
          },
          {
            "duration": 0.32608649999997397,
            "durationTicks": 288,
            "midi": 71,
            "name": "B4",
            "ticks": 288982,
            "time": 327.19836438541665,
            "velocity": 0.3937007874015748
          },
          {
            "duration": 0.32608649999997397,
            "durationTicks": 288,
            "midi": 59,
            "name": "B3",
            "ticks": 288982,
            "time": 327.19836438541665,
            "velocity": 0.3937007874015748
          },
          {
            "duration": 0.32608649999997397,
            "durationTicks": 288,
            "midi": 76,
            "name": "E5",
            "ticks": 288982,
            "time": 327.19836438541665,
            "velocity": 0.3937007874015748
          },
          {
            "duration": 0.32608649999997397,
            "durationTicks": 288,
            "midi": 64,
            "name": "E4",
            "ticks": 288982,
            "time": 327.19836438541665,
            "velocity": 0.3937007874015748
          },
          {
            "duration": 0.3260865000000308,
            "durationTicks": 288,
            "midi": 76,
            "name": "E5",
            "ticks": 289270,
            "time": 327.5244508854166,
            "velocity": 0.3937007874015748
          },
          {
            "duration": 0.3260865000000308,
            "durationTicks": 288,
            "midi": 59,
            "name": "B3",
            "ticks": 289270,
            "time": 327.5244508854166,
            "velocity": 0.3937007874015748
          },
          {
            "duration": 0.3260865000000308,
            "durationTicks": 288,
            "midi": 64,
            "name": "E4",
            "ticks": 289270,
            "time": 327.5244508854166,
            "velocity": 0.3937007874015748
          },
          {
            "duration": 0.3260865000000308,
            "durationTicks": 288,
            "midi": 71,
            "name": "B4",
            "ticks": 289270,
            "time": 327.5244508854166,
            "velocity": 0.3937007874015748
          },
          {
            "duration": 0.21739100000002054,
            "durationTicks": 192,
            "midi": 76,
            "name": "E5",
            "ticks": 289558,
            "time": 327.85053738541666,
            "velocity": 0.3937007874015748
          },
          {
            "duration": 0.21739100000002054,
            "durationTicks": 192,
            "midi": 59,
            "name": "B3",
            "ticks": 289558,
            "time": 327.85053738541666,
            "velocity": 0.3937007874015748
          },
          {
            "duration": 0.21739100000002054,
            "durationTicks": 192,
            "midi": 64,
            "name": "E4",
            "ticks": 289558,
            "time": 327.85053738541666,
            "velocity": 0.3937007874015748
          },
          {
            "duration": 0.21739100000002054,
            "durationTicks": 192,
            "midi": 71,
            "name": "B4",
            "ticks": 289558,
            "time": 327.85053738541666,
            "velocity": 0.3937007874015748
          },
          {
            "duration": 0.32608649999997397,
            "durationTicks": 288,
            "midi": 71,
            "name": "B4",
            "ticks": 289750,
            "time": 328.0679283854167,
            "velocity": 0.3937007874015748
          },
          {
            "duration": 0.32608649999997397,
            "durationTicks": 288,
            "midi": 64,
            "name": "E4",
            "ticks": 289750,
            "time": 328.0679283854167,
            "velocity": 0.3937007874015748
          },
          {
            "duration": 0.32608649999997397,
            "durationTicks": 288,
            "midi": 76,
            "name": "E5",
            "ticks": 289750,
            "time": 328.0679283854167,
            "velocity": 0.3937007874015748
          },
          {
            "duration": 0.32608649999997397,
            "durationTicks": 288,
            "midi": 59,
            "name": "B3",
            "ticks": 289750,
            "time": 328.0679283854167,
            "velocity": 0.3937007874015748
          },
          {
            "duration": 0.32608649999997397,
            "durationTicks": 288,
            "midi": 76,
            "name": "E5",
            "ticks": 290038,
            "time": 328.39401488541665,
            "velocity": 0.3937007874015748
          },
          {
            "duration": 0.32608649999997397,
            "durationTicks": 288,
            "midi": 59,
            "name": "B3",
            "ticks": 290038,
            "time": 328.39401488541665,
            "velocity": 0.3937007874015748
          },
          {
            "duration": 0.32608649999997397,
            "durationTicks": 288,
            "midi": 64,
            "name": "E4",
            "ticks": 290038,
            "time": 328.39401488541665,
            "velocity": 0.3937007874015748
          },
          {
            "duration": 0.32608649999997397,
            "durationTicks": 288,
            "midi": 71,
            "name": "B4",
            "ticks": 290038,
            "time": 328.39401488541665,
            "velocity": 0.3937007874015748
          },
          {
            "duration": 0.21739100000002054,
            "durationTicks": 192,
            "midi": 76,
            "name": "E5",
            "ticks": 290326,
            "time": 328.7201013854166,
            "velocity": 0.3937007874015748
          },
          {
            "duration": 0.21739100000002054,
            "durationTicks": 192,
            "midi": 64,
            "name": "E4",
            "ticks": 290326,
            "time": 328.7201013854166,
            "velocity": 0.3937007874015748
          },
          {
            "duration": 0.21739100000002054,
            "durationTicks": 192,
            "midi": 71,
            "name": "B4",
            "ticks": 290326,
            "time": 328.7201013854166,
            "velocity": 0.3937007874015748
          },
          {
            "duration": 0.21739100000002054,
            "durationTicks": 192,
            "midi": 59,
            "name": "B3",
            "ticks": 290326,
            "time": 328.7201013854166,
            "velocity": 0.3937007874015748
          },
          {
            "duration": 0.3260865000000308,
            "durationTicks": 288,
            "midi": 64,
            "name": "E4",
            "ticks": 290518,
            "time": 328.93749238541665,
            "velocity": 0.3937007874015748
          },
          {
            "duration": 0.3260865000000308,
            "durationTicks": 288,
            "midi": 59,
            "name": "B3",
            "ticks": 290518,
            "time": 328.93749238541665,
            "velocity": 0.3937007874015748
          },
          {
            "duration": 0.3260865000000308,
            "durationTicks": 288,
            "midi": 76,
            "name": "E5",
            "ticks": 290518,
            "time": 328.93749238541665,
            "velocity": 0.3937007874015748
          },
          {
            "duration": 0.3260865000000308,
            "durationTicks": 288,
            "midi": 71,
            "name": "B4",
            "ticks": 290518,
            "time": 328.93749238541665,
            "velocity": 0.3937007874015748
          },
          {
            "duration": 0.32608649999997397,
            "durationTicks": 288,
            "midi": 59,
            "name": "B3",
            "ticks": 290806,
            "time": 329.2635788854167,
            "velocity": 0.3937007874015748
          },
          {
            "duration": 0.32608649999997397,
            "durationTicks": 288,
            "midi": 71,
            "name": "B4",
            "ticks": 290806,
            "time": 329.2635788854167,
            "velocity": 0.3937007874015748
          },
          {
            "duration": 0.32608649999997397,
            "durationTicks": 288,
            "midi": 76,
            "name": "E5",
            "ticks": 290806,
            "time": 329.2635788854167,
            "velocity": 0.3937007874015748
          },
          {
            "duration": 0.32608649999997397,
            "durationTicks": 288,
            "midi": 64,
            "name": "E4",
            "ticks": 290806,
            "time": 329.2635788854167,
            "velocity": 0.3937007874015748
          },
          {
            "duration": 0.21739100000002054,
            "durationTicks": 192,
            "midi": 64,
            "name": "E4",
            "ticks": 291094,
            "time": 329.58966538541665,
            "velocity": 0.3937007874015748
          },
          {
            "duration": 0.21739100000002054,
            "durationTicks": 192,
            "midi": 59,
            "name": "B3",
            "ticks": 291094,
            "time": 329.58966538541665,
            "velocity": 0.3937007874015748
          },
          {
            "duration": 0.21739100000002054,
            "durationTicks": 192,
            "midi": 71,
            "name": "B4",
            "ticks": 291094,
            "time": 329.58966538541665,
            "velocity": 0.3937007874015748
          },
          {
            "duration": 0.21739100000002054,
            "durationTicks": 192,
            "midi": 76,
            "name": "E5",
            "ticks": 291094,
            "time": 329.58966538541665,
            "velocity": 0.3937007874015748
          },
          {
            "duration": 0.32608649999997397,
            "durationTicks": 288,
            "midi": 76,
            "name": "E5",
            "ticks": 291286,
            "time": 329.8070563854167,
            "velocity": 0.3937007874015748
          },
          {
            "duration": 0.32608649999997397,
            "durationTicks": 288,
            "midi": 71,
            "name": "B4",
            "ticks": 291286,
            "time": 329.8070563854167,
            "velocity": 0.3937007874015748
          },
          {
            "duration": 0.32608649999997397,
            "durationTicks": 288,
            "midi": 59,
            "name": "B3",
            "ticks": 291286,
            "time": 329.8070563854167,
            "velocity": 0.3937007874015748
          },
          {
            "duration": 0.32608649999997397,
            "durationTicks": 288,
            "midi": 64,
            "name": "E4",
            "ticks": 291286,
            "time": 329.8070563854167,
            "velocity": 0.3937007874015748
          },
          {
            "duration": 0.3260865000000308,
            "durationTicks": 288,
            "midi": 71,
            "name": "B4",
            "ticks": 291574,
            "time": 330.13314288541665,
            "velocity": 0.3937007874015748
          },
          {
            "duration": 0.3260865000000308,
            "durationTicks": 288,
            "midi": 64,
            "name": "E4",
            "ticks": 291574,
            "time": 330.13314288541665,
            "velocity": 0.3937007874015748
          },
          {
            "duration": 0.3260865000000308,
            "durationTicks": 288,
            "midi": 59,
            "name": "B3",
            "ticks": 291574,
            "time": 330.13314288541665,
            "velocity": 0.3937007874015748
          },
          {
            "duration": 0.3260865000000308,
            "durationTicks": 288,
            "midi": 76,
            "name": "E5",
            "ticks": 291574,
            "time": 330.13314288541665,
            "velocity": 0.3937007874015748
          },
          {
            "duration": 0.2173909999999637,
            "durationTicks": 192,
            "midi": 64,
            "name": "E4",
            "ticks": 291862,
            "time": 330.4592293854167,
            "velocity": 0.3937007874015748
          },
          {
            "duration": 0.2173909999999637,
            "durationTicks": 192,
            "midi": 76,
            "name": "E5",
            "ticks": 291862,
            "time": 330.4592293854167,
            "velocity": 0.3937007874015748
          },
          {
            "duration": 0.2173909999999637,
            "durationTicks": 192,
            "midi": 71,
            "name": "B4",
            "ticks": 291862,
            "time": 330.4592293854167,
            "velocity": 0.3937007874015748
          },
          {
            "duration": 0.2173909999999637,
            "durationTicks": 192,
            "midi": 59,
            "name": "B3",
            "ticks": 291862,
            "time": 330.4592293854167,
            "velocity": 0.3937007874015748
          },
          {
            "duration": 0.3260865000000308,
            "durationTicks": 288,
            "midi": 64,
            "name": "E4",
            "ticks": 292054,
            "time": 330.67662038541664,
            "velocity": 0.3937007874015748
          },
          {
            "duration": 0.3260865000000308,
            "durationTicks": 288,
            "midi": 59,
            "name": "B3",
            "ticks": 292054,
            "time": 330.67662038541664,
            "velocity": 0.3937007874015748
          },
          {
            "duration": 0.3260865000000308,
            "durationTicks": 288,
            "midi": 71,
            "name": "B4",
            "ticks": 292054,
            "time": 330.67662038541664,
            "velocity": 0.3937007874015748
          },
          {
            "duration": 0.3260865000000308,
            "durationTicks": 288,
            "midi": 76,
            "name": "E5",
            "ticks": 292054,
            "time": 330.67662038541664,
            "velocity": 0.3937007874015748
          },
          {
            "duration": 0.32608649999997397,
            "durationTicks": 288,
            "midi": 64,
            "name": "E4",
            "ticks": 292342,
            "time": 331.00270688541667,
            "velocity": 0.3937007874015748
          },
          {
            "duration": 0.32608649999997397,
            "durationTicks": 288,
            "midi": 71,
            "name": "B4",
            "ticks": 292342,
            "time": 331.00270688541667,
            "velocity": 0.3937007874015748
          },
          {
            "duration": 0.32608649999997397,
            "durationTicks": 288,
            "midi": 76,
            "name": "E5",
            "ticks": 292342,
            "time": 331.00270688541667,
            "velocity": 0.3937007874015748
          },
          {
            "duration": 0.32608649999997397,
            "durationTicks": 288,
            "midi": 59,
            "name": "B3",
            "ticks": 292342,
            "time": 331.00270688541667,
            "velocity": 0.3937007874015748
          },
          {
            "duration": 0.21739100000002054,
            "durationTicks": 192,
            "midi": 71,
            "name": "B4",
            "ticks": 292630,
            "time": 331.32879338541665,
            "velocity": 0.3937007874015748
          },
          {
            "duration": 0.21739100000002054,
            "durationTicks": 192,
            "midi": 76,
            "name": "E5",
            "ticks": 292630,
            "time": 331.32879338541665,
            "velocity": 0.3937007874015748
          },
          {
            "duration": 0.21739100000002054,
            "durationTicks": 192,
            "midi": 64,
            "name": "E4",
            "ticks": 292630,
            "time": 331.32879338541665,
            "velocity": 0.3937007874015748
          },
          {
            "duration": 0.21739100000002054,
            "durationTicks": 192,
            "midi": 59,
            "name": "B3",
            "ticks": 292630,
            "time": 331.32879338541665,
            "velocity": 0.3937007874015748
          },
          {
            "duration": 0.32608649999997397,
            "durationTicks": 288,
            "midi": 59,
            "name": "B3",
            "ticks": 292822,
            "time": 331.54618438541667,
            "velocity": 0.3937007874015748
          },
          {
            "duration": 0.32608649999997397,
            "durationTicks": 288,
            "midi": 64,
            "name": "E4",
            "ticks": 292822,
            "time": 331.54618438541667,
            "velocity": 0.3937007874015748
          },
          {
            "duration": 0.32608649999997397,
            "durationTicks": 288,
            "midi": 71,
            "name": "B4",
            "ticks": 292822,
            "time": 331.54618438541667,
            "velocity": 0.3937007874015748
          },
          {
            "duration": 0.32608649999997397,
            "durationTicks": 288,
            "midi": 76,
            "name": "E5",
            "ticks": 292822,
            "time": 331.54618438541667,
            "velocity": 0.3937007874015748
          },
          {
            "duration": 0.3260865000000308,
            "durationTicks": 288,
            "midi": 76,
            "name": "E5",
            "ticks": 293110,
            "time": 331.87227088541664,
            "velocity": 0.3937007874015748
          },
          {
            "duration": 0.3260865000000308,
            "durationTicks": 288,
            "midi": 64,
            "name": "E4",
            "ticks": 293110,
            "time": 331.87227088541664,
            "velocity": 0.3937007874015748
          },
          {
            "duration": 0.3260865000000308,
            "durationTicks": 288,
            "midi": 71,
            "name": "B4",
            "ticks": 293110,
            "time": 331.87227088541664,
            "velocity": 0.3937007874015748
          },
          {
            "duration": 0.3260865000000308,
            "durationTicks": 288,
            "midi": 59,
            "name": "B3",
            "ticks": 293110,
            "time": 331.87227088541664,
            "velocity": 0.3937007874015748
          }
        ],
        "endOfTrackTicks": 293398
      }
    ]
  }