{
    "header": {
      "keySignatures": [],
      "meta": [],
      "name": "",
      "ppq": 384,
      "tempos": [
        {
          "bpm": 70.00007000007,
          "ticks": 0
        }
      ],
      "timeSignatures": [
        {
          "ticks": 0,
          "timeSignature": [
            1,
            4
          ],
          "measures": 0
        }
      ]
    },
    "tracks": [
      {
        "channel": 0,
        "controlChanges": {},
        "pitchBends": [],
        "instrument": {
          "family": "synth lead",
          "number": 81,
          "name": "lead 2 (sawtooth)"
        },
        "name": "8-Bit Sawtooth",
        "notes": [
          {
            "duration": 0.2142855000000008,
            "durationTicks": 96,
            "midi": 26,
            "name": "D1",
            "ticks": 6144,
            "time": 13.714272000000001,
            "velocity": 0.2440944881889764
          },
          {
            "duration": 0.21428549999999902,
            "durationTicks": 96,
            "midi": 26,
            "name": "D1",
            "ticks": 6432,
            "time": 14.357128500000002,
            "velocity": 0.2440944881889764
          },
          {
            "duration": 0.2142855000000008,
            "durationTicks": 96,
            "midi": 26,
            "name": "D1",
            "ticks": 6720,
            "time": 14.999985,
            "velocity": 0.2440944881889764
          },
          {
            "duration": 0.21428549999999902,
            "durationTicks": 96,
            "midi": 26,
            "name": "D1",
            "ticks": 6768,
            "time": 15.107127750000002,
            "velocity": 0.2440944881889764
          },
          {
            "duration": 0.2142855000000008,
            "durationTicks": 96,
            "midi": 25,
            "name": "C#1",
            "ticks": 6912,
            "time": 15.428556,
            "velocity": 0.2440944881889764
          },
          {
            "duration": 0.21428549999999902,
            "durationTicks": 96,
            "midi": 25,
            "name": "C#1",
            "ticks": 7200,
            "time": 16.0714125,
            "velocity": 0.2440944881889764
          },
          {
            "duration": 0.21428549999999902,
            "durationTicks": 96,
            "midi": 26,
            "name": "D1",
            "ticks": 7488,
            "time": 16.714269,
            "velocity": 0.2440944881889764
          },
          {
            "duration": 0.21428549999999902,
            "durationTicks": 96,
            "midi": 25,
            "name": "C#1",
            "ticks": 7584,
            "time": 16.9285545,
            "velocity": 0.2440944881889764
          },
          {
            "duration": 0.21428550000000257,
            "durationTicks": 96,
            "midi": 18,
            "name": "F#0",
            "ticks": 7680,
            "time": 17.14284,
            "velocity": 0.2440944881889764
          },
          {
            "duration": 0.21428550000000257,
            "durationTicks": 96,
            "midi": 18,
            "name": "F#0",
            "ticks": 7968,
            "time": 17.7856965,
            "velocity": 0.2440944881889764
          },
          {
            "duration": 0.21428549999999902,
            "durationTicks": 96,
            "midi": 18,
            "name": "F#0",
            "ticks": 8256,
            "time": 18.428553,
            "velocity": 0.2440944881889764
          },
          {
            "duration": 0.21428549999999902,
            "durationTicks": 96,
            "midi": 18,
            "name": "F#0",
            "ticks": 8304,
            "time": 18.535695750000002,
            "velocity": 0.2440944881889764
          },
          {
            "duration": 0.21428549999999902,
            "durationTicks": 96,
            "midi": 21,
            "name": "A0",
            "ticks": 8448,
            "time": 18.857124000000002,
            "velocity": 0.2440944881889764
          },
          {
            "duration": 0.21428549999999902,
            "durationTicks": 96,
            "midi": 21,
            "name": "A0",
            "ticks": 8736,
            "time": 19.499980500000003,
            "velocity": 0.2440944881889764
          },
          {
            "duration": 0.21428550000000257,
            "durationTicks": 96,
            "midi": 23,
            "name": "B0",
            "ticks": 9024,
            "time": 20.142837,
            "velocity": 0.2440944881889764
          },
          {
            "duration": 0.21428549999999902,
            "durationTicks": 96,
            "midi": 25,
            "name": "C#1",
            "ticks": 9120,
            "time": 20.357122500000003,
            "velocity": 0.2440944881889764
          },
          {
            "duration": 0.21428549999999902,
            "durationTicks": 96,
            "midi": 26,
            "name": "D1",
            "ticks": 9216,
            "time": 20.571408,
            "velocity": 0.2440944881889764
          },
          {
            "duration": 0.21428549999999902,
            "durationTicks": 96,
            "midi": 26,
            "name": "D1",
            "ticks": 9504,
            "time": 21.214264500000002,
            "velocity": 0.2440944881889764
          },
          {
            "duration": 0.21428549999999902,
            "durationTicks": 96,
            "midi": 26,
            "name": "D1",
            "ticks": 9792,
            "time": 21.857121000000003,
            "velocity": 0.2440944881889764
          },
          {
            "duration": 0.21428550000000257,
            "durationTicks": 96,
            "midi": 26,
            "name": "D1",
            "ticks": 9840,
            "time": 21.96426375,
            "velocity": 0.2440944881889764
          },
          {
            "duration": 0.21428550000000257,
            "durationTicks": 96,
            "midi": 28,
            "name": "E1",
            "ticks": 9984,
            "time": 22.285692,
            "velocity": 0.2440944881889764
          },
          {
            "duration": 0.21428549999999902,
            "durationTicks": 96,
            "midi": 28,
            "name": "E1",
            "ticks": 10272,
            "time": 22.9285485,
            "velocity": 0.2440944881889764
          },
          {
            "duration": 0.21428549999999902,
            "durationTicks": 96,
            "midi": 28,
            "name": "E1",
            "ticks": 10560,
            "time": 23.571405000000002,
            "velocity": 0.2440944881889764
          },
          {
            "duration": 0.21428549999999902,
            "durationTicks": 96,
            "midi": 28,
            "name": "E1",
            "ticks": 10608,
            "time": 23.678547750000003,
            "velocity": 0.2440944881889764
          },
          {
            "duration": 0.21428549999999902,
            "durationTicks": 96,
            "midi": 30,
            "name": "F#1",
            "ticks": 10752,
            "time": 23.999976000000004,
            "velocity": 0.2440944881889764
          },
          {
            "duration": 0.21428550000000257,
            "durationTicks": 96,
            "midi": 30,
            "name": "F#1",
            "ticks": 11040,
            "time": 24.6428325,
            "velocity": 0.2440944881889764
          },
          {
            "duration": 0.21428549999999902,
            "durationTicks": 96,
            "midi": 30,
            "name": "F#1",
            "ticks": 11328,
            "time": 25.285689,
            "velocity": 0.2440944881889764
          },
          {
            "duration": 0.21428549999999902,
            "durationTicks": 96,
            "midi": 30,
            "name": "F#1",
            "ticks": 11376,
            "time": 25.392831750000003,
            "velocity": 0.2440944881889764
          },
          {
            "duration": 0.21428549999999902,
            "durationTicks": 96,
            "midi": 33,
            "name": "A1",
            "ticks": 11520,
            "time": 25.714260000000003,
            "velocity": 0.2440944881889764
          },
          {
            "duration": 0.21428549999999902,
            "durationTicks": 96,
            "midi": 32,
            "name": "G#1",
            "ticks": 11664,
            "time": 26.035688250000003,
            "velocity": 0.2440944881889764
          },
          {
            "duration": 0.21428549999999902,
            "durationTicks": 96,
            "midi": 30,
            "name": "F#1",
            "ticks": 11808,
            "time": 26.357116500000004,
            "velocity": 0.2440944881889764
          },
          {
            "duration": 0.21428549999999902,
            "durationTicks": 96,
            "midi": 28,
            "name": "E1",
            "ticks": 11952,
            "time": 26.678544750000004,
            "velocity": 0.2440944881889764
          },
          {
            "duration": 0.21428550000000257,
            "durationTicks": 96,
            "midi": 26,
            "name": "D1",
            "ticks": 12096,
            "time": 26.999973,
            "velocity": 0.2440944881889764
          },
          {
            "duration": 0.21428549999999902,
            "durationTicks": 96,
            "midi": 28,
            "name": "E1",
            "ticks": 12192,
            "time": 27.214258500000003,
            "velocity": 0.2440944881889764
          },
          {
            "duration": 0.21428549999999902,
            "durationTicks": 96,
            "midi": 26,
            "name": "D1",
            "ticks": 12288,
            "time": 27.428544000000002,
            "velocity": 0.2440944881889764
          },
          {
            "duration": 0.21428549999999902,
            "durationTicks": 96,
            "midi": 26,
            "name": "D1",
            "ticks": 12480,
            "time": 27.857115000000004,
            "velocity": 0.2440944881889764
          },
          {
            "duration": 0.21428549999999902,
            "durationTicks": 96,
            "midi": 37,
            "name": "C#2",
            "ticks": 12528,
            "time": 27.96425775,
            "velocity": 0.2440944881889764
          },
          {
            "duration": 0.21428549999999902,
            "durationTicks": 96,
            "midi": 26,
            "name": "D1",
            "ticks": 12576,
            "time": 28.071400500000003,
            "velocity": 0.2440944881889764
          },
          {
            "duration": 0.21428550000000257,
            "durationTicks": 96,
            "midi": 37,
            "name": "C#2",
            "ticks": 12624,
            "time": 28.17854325,
            "velocity": 0.2440944881889764
          },
          {
            "duration": 0.21428549999999902,
            "durationTicks": 96,
            "midi": 37,
            "name": "C#2",
            "ticks": 12672,
            "time": 28.285686000000002,
            "velocity": 0.2440944881889764
          },
          {
            "duration": 0.21428549999999902,
            "durationTicks": 96,
            "midi": 33,
            "name": "A1",
            "ticks": 12720,
            "time": 28.392828750000003,
            "velocity": 0.2440944881889764
          },
          {
            "duration": 0.21428550000000257,
            "durationTicks": 96,
            "midi": 33,
            "name": "A1",
            "ticks": 12768,
            "time": 28.4999715,
            "velocity": 0.2440944881889764
          },
          {
            "duration": 0.21428549999999902,
            "durationTicks": 96,
            "midi": 33,
            "name": "A1",
            "ticks": 12864,
            "time": 28.714257000000003,
            "velocity": 0.2440944881889764
          },
          {
            "duration": 0.21428550000000257,
            "durationTicks": 96,
            "midi": 35,
            "name": "B1",
            "ticks": 12912,
            "time": 28.82139975,
            "velocity": 0.2440944881889764
          },
          {
            "duration": 0.21428549999999902,
            "durationTicks": 96,
            "midi": 37,
            "name": "C#2",
            "ticks": 12960,
            "time": 28.928542500000002,
            "velocity": 0.2440944881889764
          },
          {
            "duration": 0.21428550000000257,
            "durationTicks": 96,
            "midi": 25,
            "name": "C#1",
            "ticks": 13056,
            "time": 29.142828,
            "velocity": 0.2440944881889764
          },
          {
            "duration": 0.21428549999999902,
            "durationTicks": 96,
            "midi": 25,
            "name": "C#1",
            "ticks": 13152,
            "time": 29.357113500000004,
            "velocity": 0.2440944881889764
          },
          {
            "duration": 0.21428549999999902,
            "durationTicks": 96,
            "midi": 37,
            "name": "C#2",
            "ticks": 13200,
            "time": 29.464256250000002,
            "velocity": 0.2440944881889764
          },
          {
            "duration": 0.21428550000000257,
            "durationTicks": 96,
            "midi": 37,
            "name": "C#2",
            "ticks": 13296,
            "time": 29.67854175,
            "velocity": 0.2440944881889764
          },
          {
            "duration": 0.21428549999999902,
            "durationTicks": 96,
            "midi": 25,
            "name": "C#1",
            "ticks": 13344,
            "time": 29.785684500000002,
            "velocity": 0.2440944881889764
          },
          {
            "duration": 0.21428549999999902,
            "durationTicks": 96,
            "midi": 23,
            "name": "B0",
            "ticks": 13536,
            "time": 30.214255500000004,
            "velocity": 0.2440944881889764
          },
          {
            "duration": 0.21428549999999902,
            "durationTicks": 96,
            "midi": 24,
            "name": "C1",
            "ticks": 13632,
            "time": 30.428541000000003,
            "velocity": 0.2440944881889764
          },
          {
            "duration": 0.21428549999999902,
            "durationTicks": 96,
            "midi": 25,
            "name": "C#1",
            "ticks": 13728,
            "time": 30.6428265,
            "velocity": 0.2440944881889764
          },
          {
            "duration": 0.21428550000000257,
            "durationTicks": 96,
            "midi": 30,
            "name": "F#1",
            "ticks": 13824,
            "time": 30.857112,
            "velocity": 0.2440944881889764
          },
          {
            "duration": 0.21428550000000257,
            "durationTicks": 96,
            "midi": 30,
            "name": "F#1",
            "ticks": 13968,
            "time": 31.17854025,
            "velocity": 0.2440944881889764
          },
          {
            "duration": 0.21428549999999902,
            "durationTicks": 96,
            "midi": 42,
            "name": "F#2",
            "ticks": 14016,
            "time": 31.285683000000002,
            "velocity": 0.2440944881889764
          },
          {
            "duration": 0.21428549999999902,
            "durationTicks": 96,
            "midi": 30,
            "name": "F#1",
            "ticks": 14064,
            "time": 31.392825750000004,
            "velocity": 0.2440944881889764
          },
          {
            "duration": 0.21428549999999902,
            "durationTicks": 96,
            "midi": 30,
            "name": "F#1",
            "ticks": 14160,
            "time": 31.607111250000003,
            "velocity": 0.2440944881889764
          },
          {
            "duration": 0.21428549999999902,
            "durationTicks": 96,
            "midi": 42,
            "name": "F#2",
            "ticks": 14208,
            "time": 31.714254000000004,
            "velocity": 0.2440944881889764
          },
          {
            "duration": 0.21428549999999902,
            "durationTicks": 96,
            "midi": 40,
            "name": "E2",
            "ticks": 14304,
            "time": 31.928539500000003,
            "velocity": 0.2440944881889764
          },
          {
            "duration": 0.21428550000000257,
            "durationTicks": 96,
            "midi": 38,
            "name": "D2",
            "ticks": 14400,
            "time": 32.142825,
            "velocity": 0.2440944881889764
          },
          {
            "duration": 0.21428550000000257,
            "durationTicks": 96,
            "midi": 40,
            "name": "E2",
            "ticks": 14448,
            "time": 32.24996775,
            "velocity": 0.2440944881889764
          },
          {
            "duration": 0.21428549999999547,
            "durationTicks": 96,
            "midi": 37,
            "name": "C#2",
            "ticks": 14496,
            "time": 32.357110500000005,
            "velocity": 0.2440944881889764
          },
          {
            "duration": 0.21428550000000257,
            "durationTicks": 96,
            "midi": 28,
            "name": "E1",
            "ticks": 14592,
            "time": 32.571396,
            "velocity": 0.2440944881889764
          },
          {
            "duration": 0.21428549999999547,
            "durationTicks": 96,
            "midi": 28,
            "name": "E1",
            "ticks": 14736,
            "time": 32.892824250000004,
            "velocity": 0.2440944881889764
          },
          {
            "duration": 0.21428549999999547,
            "durationTicks": 96,
            "midi": 37,
            "name": "C#2",
            "ticks": 14784,
            "time": 32.999967000000005,
            "velocity": 0.2440944881889764
          },
          {
            "duration": 0.21428550000000257,
            "durationTicks": 96,
            "midi": 28,
            "name": "E1",
            "ticks": 14880,
            "time": 33.2142525,
            "velocity": 0.2440944881889764
          },
          {
            "duration": 0.21428550000000257,
            "durationTicks": 96,
            "midi": 28,
            "name": "E1",
            "ticks": 14928,
            "time": 33.32139525,
            "velocity": 0.2440944881889764
          },
          {
            "duration": 0.21428550000000257,
            "durationTicks": 96,
            "midi": 37,
            "name": "C#2",
            "ticks": 14976,
            "time": 33.428538,
            "velocity": 0.2440944881889764
          },
          {
            "duration": 0.21428549999999547,
            "durationTicks": 96,
            "midi": 28,
            "name": "E1",
            "ticks": 15024,
            "time": 33.535680750000004,
            "velocity": 0.2440944881889764
          },
          {
            "duration": 0.21428549999999547,
            "durationTicks": 96,
            "midi": 35,
            "name": "B1",
            "ticks": 15072,
            "time": 33.642823500000006,
            "velocity": 0.2440944881889764
          },
          {
            "duration": 0.21428550000000257,
            "durationTicks": 96,
            "midi": 28,
            "name": "E1",
            "ticks": 15120,
            "time": 33.74996625,
            "velocity": 0.2440944881889764
          },
          {
            "duration": 0.21428550000000257,
            "durationTicks": 96,
            "midi": 33,
            "name": "A1",
            "ticks": 15168,
            "time": 33.857109,
            "velocity": 0.2440944881889764
          },
          {
            "duration": 0.21428550000000257,
            "durationTicks": 96,
            "midi": 28,
            "name": "E1",
            "ticks": 15216,
            "time": 33.96425175,
            "velocity": 0.2440944881889764
          },
          {
            "duration": 0.21428549999999547,
            "durationTicks": 96,
            "midi": 33,
            "name": "A1",
            "ticks": 15264,
            "time": 34.071394500000004,
            "velocity": 0.2440944881889764
          },
          {
            "duration": 0.21428549999999547,
            "durationTicks": 96,
            "midi": 35,
            "name": "B1",
            "ticks": 15312,
            "time": 34.178537250000005,
            "velocity": 0.2440944881889764
          },
          {
            "duration": 0.21428550000000257,
            "durationTicks": 96,
            "midi": 26,
            "name": "D1",
            "ticks": 15360,
            "time": 34.28568,
            "velocity": 0.2440944881889764
          },
          {
            "duration": 0.21428549999999547,
            "durationTicks": 96,
            "midi": 26,
            "name": "D1",
            "ticks": 15552,
            "time": 34.714251000000004,
            "velocity": 0.2440944881889764
          },
          {
            "duration": 0.21428549999999547,
            "durationTicks": 96,
            "midi": 37,
            "name": "C#2",
            "ticks": 15600,
            "time": 34.821393750000006,
            "velocity": 0.2440944881889764
          },
          {
            "duration": 0.21428550000000257,
            "durationTicks": 96,
            "midi": 26,
            "name": "D1",
            "ticks": 15648,
            "time": 34.9285365,
            "velocity": 0.2440944881889764
          },
          {
            "duration": 0.21428550000000257,
            "durationTicks": 96,
            "midi": 37,
            "name": "C#2",
            "ticks": 15696,
            "time": 35.03567925,
            "velocity": 0.2440944881889764
          },
          {
            "duration": 0.21428550000000257,
            "durationTicks": 96,
            "midi": 37,
            "name": "C#2",
            "ticks": 15744,
            "time": 35.142822,
            "velocity": 0.2440944881889764
          },
          {
            "duration": 0.21428550000000257,
            "durationTicks": 96,
            "midi": 33,
            "name": "A1",
            "ticks": 15792,
            "time": 35.249964750000004,
            "velocity": 0.2440944881889764
          },
          {
            "duration": 0.21428549999999547,
            "durationTicks": 96,
            "midi": 33,
            "name": "A1",
            "ticks": 15840,
            "time": 35.357107500000005,
            "velocity": 0.2440944881889764
          },
          {
            "duration": 0.21428550000000257,
            "durationTicks": 96,
            "midi": 33,
            "name": "A1",
            "ticks": 15936,
            "time": 35.571393,
            "velocity": 0.2440944881889764
          },
          {
            "duration": 0.21428550000000257,
            "durationTicks": 96,
            "midi": 35,
            "name": "B1",
            "ticks": 15984,
            "time": 35.67853575,
            "velocity": 0.2440944881889764
          },
          {
            "duration": 0.21428550000000257,
            "durationTicks": 96,
            "midi": 37,
            "name": "C#2",
            "ticks": 16032,
            "time": 35.7856785,
            "velocity": 0.2440944881889764
          },
          {
            "duration": 0.21428549999999547,
            "durationTicks": 96,
            "midi": 25,
            "name": "C#1",
            "ticks": 16128,
            "time": 35.999964000000006,
            "velocity": 0.2440944881889764
          },
          {
            "duration": 0.21428550000000257,
            "durationTicks": 96,
            "midi": 25,
            "name": "C#1",
            "ticks": 16224,
            "time": 36.2142495,
            "velocity": 0.2440944881889764
          },
          {
            "duration": 0.21428550000000257,
            "durationTicks": 96,
            "midi": 37,
            "name": "C#2",
            "ticks": 16272,
            "time": 36.32139225,
            "velocity": 0.2440944881889764
          },
          {
            "duration": 0.21428549999999547,
            "durationTicks": 96,
            "midi": 37,
            "name": "C#2",
            "ticks": 16368,
            "time": 36.535677750000005,
            "velocity": 0.2440944881889764
          },
          {
            "duration": 0.21428549999999547,
            "durationTicks": 96,
            "midi": 25,
            "name": "C#1",
            "ticks": 16416,
            "time": 36.642820500000006,
            "velocity": 0.2440944881889764
          },
          {
            "duration": 0.21428549999999547,
            "durationTicks": 96,
            "midi": 23,
            "name": "B0",
            "ticks": 16608,
            "time": 37.071391500000004,
            "velocity": 0.2440944881889764
          },
          {
            "duration": 0.21428550000000257,
            "durationTicks": 96,
            "midi": 24,
            "name": "C1",
            "ticks": 16704,
            "time": 37.285677,
            "velocity": 0.2440944881889764
          },
          {
            "duration": 0.21428550000000257,
            "durationTicks": 96,
            "midi": 25,
            "name": "C#1",
            "ticks": 16800,
            "time": 37.4999625,
            "velocity": 0.2440944881889764
          },
          {
            "duration": 0.21428549999999547,
            "durationTicks": 96,
            "midi": 30,
            "name": "F#1",
            "ticks": 16896,
            "time": 37.714248000000005,
            "velocity": 0.2440944881889764
          },
          {
            "duration": 0.21428550000000257,
            "durationTicks": 96,
            "midi": 30,
            "name": "F#1",
            "ticks": 17040,
            "time": 38.03567625,
            "velocity": 0.2440944881889764
          },
          {
            "duration": 0.21428550000000257,
            "durationTicks": 96,
            "midi": 42,
            "name": "F#2",
            "ticks": 17088,
            "time": 38.142819,
            "velocity": 0.2440944881889764
          },
          {
            "duration": 0.21428549999999547,
            "durationTicks": 96,
            "midi": 30,
            "name": "F#1",
            "ticks": 17136,
            "time": 38.249961750000004,
            "velocity": 0.2440944881889764
          },
          {
            "duration": 0.21428550000000257,
            "durationTicks": 96,
            "midi": 30,
            "name": "F#1",
            "ticks": 17232,
            "time": 38.46424725,
            "velocity": 0.2440944881889764
          },
          {
            "duration": 0.21428550000000257,
            "durationTicks": 96,
            "midi": 45,
            "name": "A2",
            "ticks": 17280,
            "time": 38.57139,
            "velocity": 0.2440944881889764
          },
          {
            "duration": 0.21428550000000257,
            "durationTicks": 96,
            "midi": 44,
            "name": "G#2",
            "ticks": 17376,
            "time": 38.7856755,
            "velocity": 0.2440944881889764
          },
          {
            "duration": 0.21428549999999547,
            "durationTicks": 96,
            "midi": 40,
            "name": "E2",
            "ticks": 17472,
            "time": 38.999961000000006,
            "velocity": 0.2440944881889764
          },
          {
            "duration": 0.21428550000000257,
            "durationTicks": 96,
            "midi": 42,
            "name": "F#2",
            "ticks": 17520,
            "time": 39.10710375,
            "velocity": 0.2440944881889764
          },
          {
            "duration": 0.21428550000000257,
            "durationTicks": 96,
            "midi": 40,
            "name": "E2",
            "ticks": 17568,
            "time": 39.2142465,
            "velocity": 0.2440944881889764
          },
          {
            "duration": 0.21428550000000257,
            "durationTicks": 96,
            "midi": 28,
            "name": "E1",
            "ticks": 17664,
            "time": 39.428532000000004,
            "velocity": 0.2440944881889764
          },
          {
            "duration": 0.21428550000000257,
            "durationTicks": 96,
            "midi": 28,
            "name": "E1",
            "ticks": 17808,
            "time": 39.74996025,
            "velocity": 0.2440944881889764
          },
          {
            "duration": 0.21428550000000257,
            "durationTicks": 96,
            "midi": 40,
            "name": "E2",
            "ticks": 17856,
            "time": 39.857103,
            "velocity": 0.2440944881889764
          },
          {
            "duration": 0.21428549999999547,
            "durationTicks": 96,
            "midi": 28,
            "name": "E1",
            "ticks": 17952,
            "time": 40.071388500000005,
            "velocity": 0.2440944881889764
          },
          {
            "duration": 0.21428550000000257,
            "durationTicks": 96,
            "midi": 40,
            "name": "E2",
            "ticks": 18048,
            "time": 40.285674,
            "velocity": 0.2440944881889764
          },
          {
            "duration": 0.21428550000000257,
            "durationTicks": 96,
            "midi": 38,
            "name": "D2",
            "ticks": 18144,
            "time": 40.4999595,
            "velocity": 0.2440944881889764
          },
          {
            "duration": 0.21428549999999547,
            "durationTicks": 96,
            "midi": 37,
            "name": "C#2",
            "ticks": 18240,
            "time": 40.714245000000005,
            "velocity": 0.2440944881889764
          },
          {
            "duration": 0.21428550000000257,
            "durationTicks": 96,
            "midi": 38,
            "name": "D2",
            "ticks": 18336,
            "time": 40.9285305,
            "velocity": 0.2440944881889764
          },
          {
            "duration": 0.21428550000000257,
            "durationTicks": 96,
            "midi": 26,
            "name": "D1",
            "ticks": 18432,
            "time": 41.142816,
            "velocity": 0.2440944881889764
          },
          {
            "duration": 0.21428550000000257,
            "durationTicks": 96,
            "midi": 26,
            "name": "D1",
            "ticks": 18624,
            "time": 41.571387,
            "velocity": 0.2440944881889764
          },
          {
            "duration": 0.21428550000000257,
            "durationTicks": 96,
            "midi": 37,
            "name": "C#2",
            "ticks": 18672,
            "time": 41.67852975,
            "velocity": 0.2440944881889764
          },
          {
            "duration": 0.21428550000000257,
            "durationTicks": 96,
            "midi": 26,
            "name": "D1",
            "ticks": 18720,
            "time": 41.785672500000004,
            "velocity": 0.2440944881889764
          },
          {
            "duration": 0.21428549999999547,
            "durationTicks": 96,
            "midi": 37,
            "name": "C#2",
            "ticks": 18768,
            "time": 41.892815250000005,
            "velocity": 0.2440944881889764
          },
          {
            "duration": 0.21428549999999547,
            "durationTicks": 96,
            "midi": 37,
            "name": "C#2",
            "ticks": 18816,
            "time": 41.99995800000001,
            "velocity": 0.2440944881889764
          },
          {
            "duration": 0.21428550000000257,
            "durationTicks": 96,
            "midi": 33,
            "name": "A1",
            "ticks": 18864,
            "time": 42.10710075,
            "velocity": 0.2440944881889764
          },
          {
            "duration": 0.21428550000000257,
            "durationTicks": 96,
            "midi": 33,
            "name": "A1",
            "ticks": 18912,
            "time": 42.2142435,
            "velocity": 0.2440944881889764
          },
          {
            "duration": 0.21428549999999547,
            "durationTicks": 96,
            "midi": 33,
            "name": "A1",
            "ticks": 19008,
            "time": 42.428529000000005,
            "velocity": 0.2440944881889764
          },
          {
            "duration": 0.21428549999999547,
            "durationTicks": 96,
            "midi": 35,
            "name": "B1",
            "ticks": 19056,
            "time": 42.535671750000006,
            "velocity": 0.2440944881889764
          },
          {
            "duration": 0.21428550000000257,
            "durationTicks": 96,
            "midi": 37,
            "name": "C#2",
            "ticks": 19104,
            "time": 42.6428145,
            "velocity": 0.2440944881889764
          },
          {
            "duration": 0.21428550000000257,
            "durationTicks": 96,
            "midi": 25,
            "name": "C#1",
            "ticks": 19200,
            "time": 42.8571,
            "velocity": 0.2440944881889764
          },
          {
            "duration": 0.21428549999999547,
            "durationTicks": 96,
            "midi": 25,
            "name": "C#1",
            "ticks": 19296,
            "time": 43.071385500000005,
            "velocity": 0.2440944881889764
          },
          {
            "duration": 0.21428549999999547,
            "durationTicks": 96,
            "midi": 37,
            "name": "C#2",
            "ticks": 19344,
            "time": 43.17852825000001,
            "velocity": 0.2440944881889764
          },
          {
            "duration": 0.21428550000000257,
            "durationTicks": 96,
            "midi": 37,
            "name": "C#2",
            "ticks": 19440,
            "time": 43.39281375,
            "velocity": 0.2440944881889764
          },
          {
            "duration": 0.21428550000000257,
            "durationTicks": 96,
            "midi": 25,
            "name": "C#1",
            "ticks": 19488,
            "time": 43.4999565,
            "velocity": 0.2440944881889764
          },
          {
            "duration": 0.21428550000000257,
            "durationTicks": 96,
            "midi": 23,
            "name": "B0",
            "ticks": 19680,
            "time": 43.9285275,
            "velocity": 0.2440944881889764
          },
          {
            "duration": 0.21428550000000257,
            "durationTicks": 96,
            "midi": 24,
            "name": "C1",
            "ticks": 19776,
            "time": 44.142813000000004,
            "velocity": 0.2440944881889764
          },
          {
            "duration": 0.21428549999999547,
            "durationTicks": 96,
            "midi": 25,
            "name": "C#1",
            "ticks": 19872,
            "time": 44.357098500000006,
            "velocity": 0.2440944881889764
          },
          {
            "duration": 0.21428550000000257,
            "durationTicks": 96,
            "midi": 30,
            "name": "F#1",
            "ticks": 19968,
            "time": 44.571384,
            "velocity": 0.2440944881889764
          },
          {
            "duration": 0.21428549999999547,
            "durationTicks": 96,
            "midi": 30,
            "name": "F#1",
            "ticks": 20112,
            "time": 44.892812250000006,
            "velocity": 0.2440944881889764
          },
          {
            "duration": 0.21428549999999547,
            "durationTicks": 96,
            "midi": 42,
            "name": "F#2",
            "ticks": 20160,
            "time": 44.99995500000001,
            "velocity": 0.2440944881889764
          },
          {
            "duration": 0.21428550000000257,
            "durationTicks": 96,
            "midi": 30,
            "name": "F#1",
            "ticks": 20208,
            "time": 45.10709775,
            "velocity": 0.2440944881889764
          },
          {
            "duration": 0.21428550000000257,
            "durationTicks": 96,
            "midi": 30,
            "name": "F#1",
            "ticks": 20304,
            "time": 45.321383250000004,
            "velocity": 0.2440944881889764
          },
          {
            "duration": 0.21428549999999547,
            "durationTicks": 96,
            "midi": 42,
            "name": "F#2",
            "ticks": 20352,
            "time": 45.428526000000005,
            "velocity": 0.2440944881889764
          },
          {
            "duration": 0.21428550000000257,
            "durationTicks": 96,
            "midi": 40,
            "name": "E2",
            "ticks": 20448,
            "time": 45.6428115,
            "velocity": 0.2440944881889764
          },
          {
            "duration": 0.21428550000000257,
            "durationTicks": 96,
            "midi": 38,
            "name": "D2",
            "ticks": 20544,
            "time": 45.857097,
            "velocity": 0.2440944881889764
          },
          {
            "duration": 0.21428550000000257,
            "durationTicks": 96,
            "midi": 40,
            "name": "E2",
            "ticks": 20592,
            "time": 45.964239750000004,
            "velocity": 0.2440944881889764
          },
          {
            "duration": 0.21428549999999547,
            "durationTicks": 96,
            "midi": 37,
            "name": "C#2",
            "ticks": 20640,
            "time": 46.071382500000006,
            "velocity": 0.2440944881889764
          },
          {
            "duration": 0.21428550000000257,
            "durationTicks": 96,
            "midi": 28,
            "name": "E1",
            "ticks": 20736,
            "time": 46.285668,
            "velocity": 0.2440944881889764
          },
          {
            "duration": 0.21428549999999547,
            "durationTicks": 96,
            "midi": 28,
            "name": "E1",
            "ticks": 20880,
            "time": 46.607096250000005,
            "velocity": 0.2440944881889764
          },
          {
            "duration": 0.21428549999999547,
            "durationTicks": 96,
            "midi": 37,
            "name": "C#2",
            "ticks": 20928,
            "time": 46.714239000000006,
            "velocity": 0.2440944881889764
          },
          {
            "duration": 0.21428550000000257,
            "durationTicks": 96,
            "midi": 28,
            "name": "E1",
            "ticks": 21024,
            "time": 46.9285245,
            "velocity": 0.2440944881889764
          },
          {
            "duration": 0.21428550000000257,
            "durationTicks": 96,
            "midi": 28,
            "name": "E1",
            "ticks": 21072,
            "time": 47.03566725,
            "velocity": 0.2440944881889764
          },
          {
            "duration": 0.21428550000000257,
            "durationTicks": 96,
            "midi": 37,
            "name": "C#2",
            "ticks": 21120,
            "time": 47.142810000000004,
            "velocity": 0.2440944881889764
          },
          {
            "duration": 0.21428549999999547,
            "durationTicks": 96,
            "midi": 28,
            "name": "E1",
            "ticks": 21168,
            "time": 47.249952750000006,
            "velocity": 0.2440944881889764
          },
          {
            "duration": 0.21428549999999547,
            "durationTicks": 96,
            "midi": 35,
            "name": "B1",
            "ticks": 21216,
            "time": 47.35709550000001,
            "velocity": 0.2440944881889764
          },
          {
            "duration": 0.21428550000000257,
            "durationTicks": 96,
            "midi": 28,
            "name": "E1",
            "ticks": 21264,
            "time": 47.46423825,
            "velocity": 0.2440944881889764
          },
          {
            "duration": 0.21428550000000257,
            "durationTicks": 96,
            "midi": 33,
            "name": "A1",
            "ticks": 21312,
            "time": 47.571381,
            "velocity": 0.2440944881889764
          },
          {
            "duration": 0.21428550000000257,
            "durationTicks": 96,
            "midi": 28,
            "name": "E1",
            "ticks": 21360,
            "time": 47.678523750000004,
            "velocity": 0.2440944881889764
          },
          {
            "duration": 0.21428550000000257,
            "durationTicks": 96,
            "midi": 33,
            "name": "A1",
            "ticks": 21408,
            "time": 47.785666500000005,
            "velocity": 0.2440944881889764
          },
          {
            "duration": 0.21428549999999547,
            "durationTicks": 96,
            "midi": 35,
            "name": "B1",
            "ticks": 21456,
            "time": 47.892809250000006,
            "velocity": 0.2440944881889764
          },
          {
            "duration": 0.21428549999999547,
            "durationTicks": 96,
            "midi": 26,
            "name": "D1",
            "ticks": 21504,
            "time": 47.99995200000001,
            "velocity": 0.2440944881889764
          },
          {
            "duration": 0.21428549999999547,
            "durationTicks": 96,
            "midi": 26,
            "name": "D1",
            "ticks": 21696,
            "time": 48.428523000000006,
            "velocity": 0.2440944881889764
          },
          {
            "duration": 0.21428549999999547,
            "durationTicks": 96,
            "midi": 37,
            "name": "C#2",
            "ticks": 21744,
            "time": 48.53566575000001,
            "velocity": 0.2440944881889764
          },
          {
            "duration": 0.21428550000000257,
            "durationTicks": 96,
            "midi": 26,
            "name": "D1",
            "ticks": 21792,
            "time": 48.6428085,
            "velocity": 0.2440944881889764
          },
          {
            "duration": 0.21428550000000257,
            "durationTicks": 96,
            "midi": 37,
            "name": "C#2",
            "ticks": 21840,
            "time": 48.74995125,
            "velocity": 0.2440944881889764
          },
          {
            "duration": 0.21428550000000257,
            "durationTicks": 96,
            "midi": 37,
            "name": "C#2",
            "ticks": 21888,
            "time": 48.857094000000004,
            "velocity": 0.2440944881889764
          },
          {
            "duration": 0.21428550000000257,
            "durationTicks": 96,
            "midi": 33,
            "name": "A1",
            "ticks": 21936,
            "time": 48.964236750000005,
            "velocity": 0.2440944881889764
          },
          {
            "duration": 0.21428549999999547,
            "durationTicks": 96,
            "midi": 33,
            "name": "A1",
            "ticks": 21984,
            "time": 49.071379500000006,
            "velocity": 0.2440944881889764
          },
          {
            "duration": 0.21428550000000257,
            "durationTicks": 96,
            "midi": 33,
            "name": "A1",
            "ticks": 22080,
            "time": 49.285665,
            "velocity": 0.2440944881889764
          },
          {
            "duration": 0.21428550000000257,
            "durationTicks": 96,
            "midi": 35,
            "name": "B1",
            "ticks": 22128,
            "time": 49.39280775,
            "velocity": 0.2440944881889764
          },
          {
            "duration": 0.21428550000000257,
            "durationTicks": 96,
            "midi": 37,
            "name": "C#2",
            "ticks": 22176,
            "time": 49.499950500000004,
            "velocity": 0.2440944881889764
          },
          {
            "duration": 0.21428549999999547,
            "durationTicks": 96,
            "midi": 25,
            "name": "C#1",
            "ticks": 22272,
            "time": 49.71423600000001,
            "velocity": 0.2440944881889764
          },
          {
            "duration": 0.21428550000000257,
            "durationTicks": 96,
            "midi": 25,
            "name": "C#1",
            "ticks": 22368,
            "time": 49.9285215,
            "velocity": 0.2440944881889764
          },
          {
            "duration": 0.21428550000000257,
            "durationTicks": 96,
            "midi": 37,
            "name": "C#2",
            "ticks": 22416,
            "time": 50.03566425,
            "velocity": 0.2440944881889764
          },
          {
            "duration": 0.21428549999999547,
            "durationTicks": 96,
            "midi": 37,
            "name": "C#2",
            "ticks": 22512,
            "time": 50.249949750000006,
            "velocity": 0.2440944881889764
          },
          {
            "duration": 0.21428549999999547,
            "durationTicks": 96,
            "midi": 25,
            "name": "C#1",
            "ticks": 22560,
            "time": 50.35709250000001,
            "velocity": 0.2440944881889764
          },
          {
            "duration": 0.21428549999999547,
            "durationTicks": 96,
            "midi": 23,
            "name": "B0",
            "ticks": 22752,
            "time": 50.785663500000005,
            "velocity": 0.2440944881889764
          },
          {
            "duration": 0.21428550000000257,
            "durationTicks": 96,
            "midi": 24,
            "name": "C1",
            "ticks": 22848,
            "time": 50.999949,
            "velocity": 0.2440944881889764
          },
          {
            "duration": 0.21428550000000257,
            "durationTicks": 96,
            "midi": 25,
            "name": "C#1",
            "ticks": 22944,
            "time": 51.2142345,
            "velocity": 0.2440944881889764
          },
          {
            "duration": 0.21428549999999547,
            "durationTicks": 96,
            "midi": 30,
            "name": "F#1",
            "ticks": 23040,
            "time": 51.428520000000006,
            "velocity": 0.2440944881889764
          },
          {
            "duration": 0.21428550000000257,
            "durationTicks": 96,
            "midi": 30,
            "name": "F#1",
            "ticks": 23184,
            "time": 51.74994825,
            "velocity": 0.2440944881889764
          },
          {
            "duration": 0.21428550000000257,
            "durationTicks": 96,
            "midi": 42,
            "name": "F#2",
            "ticks": 23232,
            "time": 51.857091000000004,
            "velocity": 0.2440944881889764
          },
          {
            "duration": 0.21428549999999547,
            "durationTicks": 96,
            "midi": 30,
            "name": "F#1",
            "ticks": 23280,
            "time": 51.964233750000005,
            "velocity": 0.2440944881889764
          },
          {
            "duration": 0.21428550000000257,
            "durationTicks": 96,
            "midi": 30,
            "name": "F#1",
            "ticks": 23376,
            "time": 52.17851925,
            "velocity": 0.2440944881889764
          },
          {
            "duration": 0.21428550000000257,
            "durationTicks": 96,
            "midi": 45,
            "name": "A2",
            "ticks": 23424,
            "time": 52.285662,
            "velocity": 0.2440944881889764
          },
          {
            "duration": 0.21428550000000257,
            "durationTicks": 96,
            "midi": 44,
            "name": "G#2",
            "ticks": 23520,
            "time": 52.499947500000005,
            "velocity": 0.2440944881889764
          },
          {
            "duration": 0.21428549999999547,
            "durationTicks": 96,
            "midi": 40,
            "name": "E2",
            "ticks": 23616,
            "time": 52.71423300000001,
            "velocity": 0.2440944881889764
          },
          {
            "duration": 0.21428550000000257,
            "durationTicks": 96,
            "midi": 42,
            "name": "F#2",
            "ticks": 23664,
            "time": 52.82137575,
            "velocity": 0.2440944881889764
          },
          {
            "duration": 0.21428550000000257,
            "durationTicks": 96,
            "midi": 40,
            "name": "E2",
            "ticks": 23712,
            "time": 52.9285185,
            "velocity": 0.2440944881889764
          },
          {
            "duration": 0.21428550000000257,
            "durationTicks": 96,
            "midi": 28,
            "name": "E1",
            "ticks": 23808,
            "time": 53.142804000000005,
            "velocity": 0.2440944881889764
          },
          {
            "duration": 0.21428550000000257,
            "durationTicks": 96,
            "midi": 28,
            "name": "E1",
            "ticks": 23952,
            "time": 53.46423225,
            "velocity": 0.2440944881889764
          },
          {
            "duration": 0.21428550000000257,
            "durationTicks": 96,
            "midi": 40,
            "name": "E2",
            "ticks": 24000,
            "time": 53.571375,
            "velocity": 0.2440944881889764
          },
          {
            "duration": 0.21428549999999547,
            "durationTicks": 96,
            "midi": 28,
            "name": "E1",
            "ticks": 24096,
            "time": 53.785660500000006,
            "velocity": 0.2440944881889764
          },
          {
            "duration": 0.21428550000000257,
            "durationTicks": 96,
            "midi": 40,
            "name": "E2",
            "ticks": 24192,
            "time": 53.999946,
            "velocity": 0.2440944881889764
          },
          {
            "duration": 0.21428550000000257,
            "durationTicks": 96,
            "midi": 38,
            "name": "D2",
            "ticks": 24288,
            "time": 54.214231500000004,
            "velocity": 0.2440944881889764
          },
          {
            "duration": 0.21428549999999547,
            "durationTicks": 96,
            "midi": 37,
            "name": "C#2",
            "ticks": 24384,
            "time": 54.42851700000001,
            "velocity": 0.2440944881889764
          },
          {
            "duration": 0.21428550000000257,
            "durationTicks": 96,
            "midi": 38,
            "name": "D2",
            "ticks": 24480,
            "time": 54.6428025,
            "velocity": 0.2440944881889764
          },
          {
            "duration": 0.8571420000000032,
            "durationTicks": 384,
            "midi": 73,
            "name": "C#5",
            "ticks": 24576,
            "time": 54.857088000000005,
            "velocity": 0.2440944881889764
          },
          {
            "duration": 0.21428550000000257,
            "durationTicks": 96,
            "midi": 26,
            "name": "D1",
            "ticks": 24576,
            "time": 54.857088000000005,
            "velocity": 0.2440944881889764
          },
          {
            "duration": 0.21428550000000257,
            "durationTicks": 96,
            "midi": 26,
            "name": "D1",
            "ticks": 24768,
            "time": 55.285659,
            "velocity": 0.2440944881889764
          },
          {
            "duration": 0.21428550000000257,
            "durationTicks": 96,
            "midi": 37,
            "name": "C#2",
            "ticks": 24816,
            "time": 55.392801750000004,
            "velocity": 0.2440944881889764
          },
          {
            "duration": 0.21428550000000257,
            "durationTicks": 96,
            "midi": 26,
            "name": "D1",
            "ticks": 24864,
            "time": 55.499944500000005,
            "velocity": 0.2440944881889764
          },
          {
            "duration": 0.21428549999999547,
            "durationTicks": 96,
            "midi": 37,
            "name": "C#2",
            "ticks": 24912,
            "time": 55.607087250000006,
            "velocity": 0.2440944881889764
          },
          {
            "duration": 0.21428549999999547,
            "durationTicks": 96,
            "midi": 37,
            "name": "C#2",
            "ticks": 24960,
            "time": 55.71423000000001,
            "velocity": 0.2440944881889764
          },
          {
            "duration": 0.21428550000000257,
            "durationTicks": 96,
            "midi": 33,
            "name": "A1",
            "ticks": 25008,
            "time": 55.82137275,
            "velocity": 0.2440944881889764
          },
          {
            "duration": 0.21428550000000257,
            "durationTicks": 96,
            "midi": 33,
            "name": "A1",
            "ticks": 25056,
            "time": 55.9285155,
            "velocity": 0.2440944881889764
          },
          {
            "duration": 0.21428549999999547,
            "durationTicks": 96,
            "midi": 33,
            "name": "A1",
            "ticks": 25152,
            "time": 56.142801000000006,
            "velocity": 0.2440944881889764
          },
          {
            "duration": 0.21428549999999547,
            "durationTicks": 96,
            "midi": 35,
            "name": "B1",
            "ticks": 25200,
            "time": 56.24994375000001,
            "velocity": 0.2440944881889764
          },
          {
            "duration": 0.21428550000000257,
            "durationTicks": 96,
            "midi": 37,
            "name": "C#2",
            "ticks": 25248,
            "time": 56.3570865,
            "velocity": 0.2440944881889764
          },
          {
            "duration": 0.21428550000000257,
            "durationTicks": 96,
            "midi": 25,
            "name": "C#1",
            "ticks": 25344,
            "time": 56.571372000000004,
            "velocity": 0.2440944881889764
          },
          {
            "duration": 0.21428550000000257,
            "durationTicks": 96,
            "midi": 71,
            "name": "B4",
            "ticks": 25344,
            "time": 56.571372000000004,
            "velocity": 0.2440944881889764
          },
          {
            "duration": 0.21428549999999547,
            "durationTicks": 96,
            "midi": 25,
            "name": "C#1",
            "ticks": 25440,
            "time": 56.785657500000006,
            "velocity": 0.2440944881889764
          },
          {
            "duration": 0.21428549999999547,
            "durationTicks": 96,
            "midi": 71,
            "name": "B4",
            "ticks": 25488,
            "time": 56.89280025000001,
            "velocity": 0.2440944881889764
          },
          {
            "duration": 0.21428549999999547,
            "durationTicks": 96,
            "midi": 37,
            "name": "C#2",
            "ticks": 25488,
            "time": 56.89280025000001,
            "velocity": 0.2440944881889764
          },
          {
            "duration": 0.21428550000000257,
            "durationTicks": 96,
            "midi": 37,
            "name": "C#2",
            "ticks": 25584,
            "time": 57.10708575,
            "velocity": 0.2440944881889764
          },
          {
            "duration": 0.21428550000000257,
            "durationTicks": 96,
            "midi": 25,
            "name": "C#1",
            "ticks": 25632,
            "time": 57.214228500000004,
            "velocity": 0.2440944881889764
          },
          {
            "duration": 0.6428565000000006,
            "durationTicks": 288,
            "midi": 71,
            "name": "B4",
            "ticks": 25632,
            "time": 57.214228500000004,
            "velocity": 0.2440944881889764
          },
          {
            "duration": 0.21428550000000257,
            "durationTicks": 96,
            "midi": 23,
            "name": "B0",
            "ticks": 25824,
            "time": 57.6427995,
            "velocity": 0.2440944881889764
          },
          {
            "duration": 0.21428550000000257,
            "durationTicks": 96,
            "midi": 24,
            "name": "C1",
            "ticks": 25920,
            "time": 57.857085000000005,
            "velocity": 0.2440944881889764
          },
          {
            "duration": 0.21428549999999547,
            "durationTicks": 96,
            "midi": 25,
            "name": "C#1",
            "ticks": 26016,
            "time": 58.07137050000001,
            "velocity": 0.2440944881889764
          },
          {
            "duration": 0.6428565000000006,
            "durationTicks": 288,
            "midi": 68,
            "name": "G#4",
            "ticks": 26112,
            "time": 58.285656,
            "velocity": 0.2440944881889764
          },
          {
            "duration": 0.21428550000000257,
            "durationTicks": 96,
            "midi": 30,
            "name": "F#1",
            "ticks": 26112,
            "time": 58.285656,
            "velocity": 0.2440944881889764
          },
          {
            "duration": 0.21428549999999547,
            "durationTicks": 96,
            "midi": 30,
            "name": "F#1",
            "ticks": 26256,
            "time": 58.60708425000001,
            "velocity": 0.2440944881889764
          },
          {
            "duration": 0.21428549999999547,
            "durationTicks": 96,
            "midi": 42,
            "name": "F#2",
            "ticks": 26304,
            "time": 58.71422700000001,
            "velocity": 0.2440944881889764
          },
          {
            "duration": 0.21428550000000257,
            "durationTicks": 96,
            "midi": 30,
            "name": "F#1",
            "ticks": 26352,
            "time": 58.82136975,
            "velocity": 0.2440944881889764
          },
          {
            "duration": 0.21428550000000257,
            "durationTicks": 96,
            "midi": 30,
            "name": "F#1",
            "ticks": 26448,
            "time": 59.035655250000005,
            "velocity": 0.2440944881889764
          },
          {
            "duration": 0.21428549999999547,
            "durationTicks": 96,
            "midi": 42,
            "name": "F#2",
            "ticks": 26496,
            "time": 59.142798000000006,
            "velocity": 0.2440944881889764
          },
          {
            "duration": 0.21428550000000257,
            "durationTicks": 96,
            "midi": 40,
            "name": "E2",
            "ticks": 26592,
            "time": 59.3570835,
            "velocity": 0.2440944881889764
          },
          {
            "duration": 0.6428565000000006,
            "durationTicks": 288,
            "midi": 69,
            "name": "A4",
            "ticks": 26592,
            "time": 59.3570835,
            "velocity": 0.2440944881889764
          },
          {
            "duration": 0.21428550000000257,
            "durationTicks": 96,
            "midi": 38,
            "name": "D2",
            "ticks": 26688,
            "time": 59.571369000000004,
            "velocity": 0.2440944881889764
          },
          {
            "duration": 0.21428550000000257,
            "durationTicks": 96,
            "midi": 40,
            "name": "E2",
            "ticks": 26736,
            "time": 59.678511750000006,
            "velocity": 0.2440944881889764
          },
          {
            "duration": 0.21428549999999547,
            "durationTicks": 96,
            "midi": 37,
            "name": "C#2",
            "ticks": 26784,
            "time": 59.78565450000001,
            "velocity": 0.2440944881889764
          },
          {
            "duration": 0.21428550000000257,
            "durationTicks": 96,
            "midi": 66,
            "name": "F#4",
            "ticks": 26880,
            "time": 59.99994,
            "velocity": 0.2440944881889764
          },
          {
            "duration": 0.21428550000000257,
            "durationTicks": 96,
            "midi": 28,
            "name": "E1",
            "ticks": 26880,
            "time": 59.99994,
            "velocity": 0.2440944881889764
          },
          {
            "duration": 0.21428549999999547,
            "durationTicks": 96,
            "midi": 28,
            "name": "E1",
            "ticks": 27024,
            "time": 60.321368250000006,
            "velocity": 0.2440944881889764
          },
          {
            "duration": 0.21428549999999547,
            "durationTicks": 96,
            "midi": 66,
            "name": "F#4",
            "ticks": 27024,
            "time": 60.321368250000006,
            "velocity": 0.2440944881889764
          },
          {
            "duration": 0.21428549999999547,
            "durationTicks": 96,
            "midi": 37,
            "name": "C#2",
            "ticks": 27072,
            "time": 60.42851100000001,
            "velocity": 0.2440944881889764
          },
          {
            "duration": 0.21428550000000257,
            "durationTicks": 96,
            "midi": 66,
            "name": "F#4",
            "ticks": 27168,
            "time": 60.6427965,
            "velocity": 0.2440944881889764
          },
          {
            "duration": 0.21428550000000257,
            "durationTicks": 96,
            "midi": 28,
            "name": "E1",
            "ticks": 27168,
            "time": 60.6427965,
            "velocity": 0.2440944881889764
          },
          {
            "duration": 0.21428550000000257,
            "durationTicks": 96,
            "midi": 28,
            "name": "E1",
            "ticks": 27216,
            "time": 60.749939250000004,
            "velocity": 0.2440944881889764
          },
          {
            "duration": 0.21428550000000257,
            "durationTicks": 96,
            "midi": 37,
            "name": "C#2",
            "ticks": 27264,
            "time": 60.857082000000005,
            "velocity": 0.2440944881889764
          },
          {
            "duration": 0.21428549999999547,
            "durationTicks": 96,
            "midi": 28,
            "name": "E1",
            "ticks": 27312,
            "time": 60.96422475000001,
            "velocity": 0.2440944881889764
          },
          {
            "duration": 0.21428549999999547,
            "durationTicks": 96,
            "midi": 68,
            "name": "G#4",
            "ticks": 27360,
            "time": 61.07136750000001,
            "velocity": 0.2440944881889764
          },
          {
            "duration": 0.21428549999999547,
            "durationTicks": 96,
            "midi": 35,
            "name": "B1",
            "ticks": 27360,
            "time": 61.07136750000001,
            "velocity": 0.2440944881889764
          },
          {
            "duration": 0.21428550000000257,
            "durationTicks": 96,
            "midi": 28,
            "name": "E1",
            "ticks": 27408,
            "time": 61.17851025,
            "velocity": 0.2440944881889764
          },
          {
            "duration": 0.21428550000000257,
            "durationTicks": 96,
            "midi": 33,
            "name": "A1",
            "ticks": 27456,
            "time": 61.285653,
            "velocity": 0.2440944881889764
          },
          {
            "duration": 0.21428550000000257,
            "durationTicks": 96,
            "midi": 28,
            "name": "E1",
            "ticks": 27504,
            "time": 61.392795750000005,
            "velocity": 0.2440944881889764
          },
          {
            "duration": 0.21428549999999547,
            "durationTicks": 96,
            "midi": 33,
            "name": "A1",
            "ticks": 27552,
            "time": 61.499938500000006,
            "velocity": 0.2440944881889764
          },
          {
            "duration": 0.21428549999999547,
            "durationTicks": 96,
            "midi": 35,
            "name": "B1",
            "ticks": 27600,
            "time": 61.60708125000001,
            "velocity": 0.2440944881889764
          },
          {
            "duration": 0.8571420000000032,
            "durationTicks": 384,
            "midi": 73,
            "name": "C#5",
            "ticks": 27648,
            "time": 61.714224,
            "velocity": 0.2440944881889764
          },
          {
            "duration": 0.21428550000000257,
            "durationTicks": 96,
            "midi": 26,
            "name": "D1",
            "ticks": 27648,
            "time": 61.714224,
            "velocity": 0.2440944881889764
          },
          {
            "duration": 0.21428549999999547,
            "durationTicks": 96,
            "midi": 26,
            "name": "D1",
            "ticks": 27840,
            "time": 62.14279500000001,
            "velocity": 0.2440944881889764
          },
          {
            "duration": 0.21428549999999547,
            "durationTicks": 96,
            "midi": 37,
            "name": "C#2",
            "ticks": 27888,
            "time": 62.24993775000001,
            "velocity": 0.2440944881889764
          },
          {
            "duration": 0.21428550000000257,
            "durationTicks": 96,
            "midi": 26,
            "name": "D1",
            "ticks": 27936,
            "time": 62.3570805,
            "velocity": 0.2440944881889764
          },
          {
            "duration": 0.21428550000000257,
            "durationTicks": 96,
            "midi": 37,
            "name": "C#2",
            "ticks": 27984,
            "time": 62.46422325,
            "velocity": 0.2440944881889764
          },
          {
            "duration": 0.21428550000000257,
            "durationTicks": 96,
            "midi": 37,
            "name": "C#2",
            "ticks": 28032,
            "time": 62.571366000000005,
            "velocity": 0.2440944881889764
          },
          {
            "duration": 0.21428550000000257,
            "durationTicks": 96,
            "midi": 33,
            "name": "A1",
            "ticks": 28080,
            "time": 62.678508750000006,
            "velocity": 0.2440944881889764
          },
          {
            "duration": 0.21428549999999547,
            "durationTicks": 96,
            "midi": 33,
            "name": "A1",
            "ticks": 28128,
            "time": 62.78565150000001,
            "velocity": 0.2440944881889764
          },
          {
            "duration": 0.21428550000000257,
            "durationTicks": 96,
            "midi": 33,
            "name": "A1",
            "ticks": 28224,
            "time": 62.999937,
            "velocity": 0.2440944881889764
          },
          {
            "duration": 0.21428550000000257,
            "durationTicks": 96,
            "midi": 35,
            "name": "B1",
            "ticks": 28272,
            "time": 63.107079750000004,
            "velocity": 0.2440944881889764
          },
          {
            "duration": 0.21428550000000257,
            "durationTicks": 96,
            "midi": 37,
            "name": "C#2",
            "ticks": 28320,
            "time": 63.214222500000005,
            "velocity": 0.2440944881889764
          },
          {
            "duration": 0.21428549999999547,
            "durationTicks": 96,
            "midi": 25,
            "name": "C#1",
            "ticks": 28416,
            "time": 63.42850800000001,
            "velocity": 0.2440944881889764
          },
          {
            "duration": 0.21428549999999547,
            "durationTicks": 96,
            "midi": 71,
            "name": "B4",
            "ticks": 28416,
            "time": 63.42850800000001,
            "velocity": 0.2440944881889764
          },
          {
            "duration": 0.21428550000000257,
            "durationTicks": 96,
            "midi": 25,
            "name": "C#1",
            "ticks": 28512,
            "time": 63.6427935,
            "velocity": 0.2440944881889764
          },
          {
            "duration": 0.21428550000000257,
            "durationTicks": 96,
            "midi": 71,
            "name": "B4",
            "ticks": 28560,
            "time": 63.749936250000005,
            "velocity": 0.2440944881889764
          },
          {
            "duration": 0.21428550000000257,
            "durationTicks": 96,
            "midi": 37,
            "name": "C#2",
            "ticks": 28560,
            "time": 63.749936250000005,
            "velocity": 0.2440944881889764
          },
          {
            "duration": 0.21428550000000257,
            "durationTicks": 96,
            "midi": 37,
            "name": "C#2",
            "ticks": 28656,
            "time": 63.96422175000001,
            "velocity": 0.2440944881889764
          },
          {
            "duration": 0.6428565000000077,
            "durationTicks": 288,
            "midi": 71,
            "name": "B4",
            "ticks": 28704,
            "time": 64.0713645,
            "velocity": 0.2440944881889764
          },
          {
            "duration": 0.21428550000000257,
            "durationTicks": 96,
            "midi": 25,
            "name": "C#1",
            "ticks": 28704,
            "time": 64.0713645,
            "velocity": 0.2440944881889764
          },
          {
            "duration": 0.21428550000000257,
            "durationTicks": 96,
            "midi": 23,
            "name": "B0",
            "ticks": 28896,
            "time": 64.4999355,
            "velocity": 0.2440944881889764
          },
          {
            "duration": 0.42857099999999093,
            "durationTicks": 192,
            "midi": 81,
            "name": "A5",
            "ticks": 28992,
            "time": 64.71422100000001,
            "velocity": 0.2440944881889764
          },
          {
            "duration": 0.21428550000000257,
            "durationTicks": 96,
            "midi": 24,
            "name": "C1",
            "ticks": 28992,
            "time": 64.71422100000001,
            "velocity": 0.2440944881889764
          },
          {
            "duration": 0.21428549999998836,
            "durationTicks": 96,
            "midi": 25,
            "name": "C#1",
            "ticks": 29088,
            "time": 64.92850650000001,
            "velocity": 0.2440944881889764
          },
          {
            "duration": 1.7142840000000064,
            "durationTicks": 768,
            "midi": 83,
            "name": "B5",
            "ticks": 29184,
            "time": 65.142792,
            "velocity": 0.2440944881889764
          },
          {
            "duration": 0.21428550000000257,
            "durationTicks": 96,
            "midi": 30,
            "name": "F#1",
            "ticks": 29184,
            "time": 65.142792,
            "velocity": 0.2440944881889764
          },
          {
            "duration": 0.21428549999998836,
            "durationTicks": 96,
            "midi": 30,
            "name": "F#1",
            "ticks": 29328,
            "time": 65.46422025000001,
            "velocity": 0.2440944881889764
          },
          {
            "duration": 0.21428550000000257,
            "durationTicks": 96,
            "midi": 42,
            "name": "F#2",
            "ticks": 29376,
            "time": 65.571363,
            "velocity": 0.2440944881889764
          },
          {
            "duration": 0.21428550000000257,
            "durationTicks": 96,
            "midi": 30,
            "name": "F#1",
            "ticks": 29424,
            "time": 65.67850575,
            "velocity": 0.2440944881889764
          },
          {
            "duration": 0.21428550000000257,
            "durationTicks": 96,
            "midi": 30,
            "name": "F#1",
            "ticks": 29520,
            "time": 65.89279125,
            "velocity": 0.2440944881889764
          },
          {
            "duration": 0.21428549999998836,
            "durationTicks": 96,
            "midi": 45,
            "name": "A2",
            "ticks": 29568,
            "time": 65.99993400000001,
            "velocity": 0.2440944881889764
          },
          {
            "duration": 0.21428550000000257,
            "durationTicks": 96,
            "midi": 44,
            "name": "G#2",
            "ticks": 29664,
            "time": 66.2142195,
            "velocity": 0.2440944881889764
          },
          {
            "duration": 0.21428550000000257,
            "durationTicks": 96,
            "midi": 40,
            "name": "E2",
            "ticks": 29760,
            "time": 66.428505,
            "velocity": 0.2440944881889764
          },
          {
            "duration": 0.21428550000000257,
            "durationTicks": 96,
            "midi": 42,
            "name": "F#2",
            "ticks": 29808,
            "time": 66.53564775000001,
            "velocity": 0.2440944881889764
          },
          {
            "duration": 0.21428550000000257,
            "durationTicks": 96,
            "midi": 40,
            "name": "E2",
            "ticks": 29856,
            "time": 66.6427905,
            "velocity": 0.2440944881889764
          },
          {
            "duration": 0.21428550000000257,
            "durationTicks": 96,
            "midi": 28,
            "name": "E1",
            "ticks": 29952,
            "time": 66.857076,
            "velocity": 0.2440944881889764
          },
          {
            "duration": 0.8571419999999961,
            "durationTicks": 384,
            "midi": 81,
            "name": "A5",
            "ticks": 29952,
            "time": 66.857076,
            "velocity": 0.2440944881889764
          },
          {
            "duration": 0.21428550000000257,
            "durationTicks": 96,
            "midi": 28,
            "name": "E1",
            "ticks": 30096,
            "time": 67.17850425,
            "velocity": 0.2440944881889764
          },
          {
            "duration": 0.21428549999998836,
            "durationTicks": 96,
            "midi": 40,
            "name": "E2",
            "ticks": 30144,
            "time": 67.28564700000001,
            "velocity": 0.2440944881889764
          },
          {
            "duration": 0.21428550000000257,
            "durationTicks": 96,
            "midi": 28,
            "name": "E1",
            "ticks": 30240,
            "time": 67.4999325,
            "velocity": 0.2440944881889764
          },
          {
            "duration": 0.8571419999999961,
            "durationTicks": 384,
            "midi": 80,
            "name": "G#5",
            "ticks": 30336,
            "time": 67.714218,
            "velocity": 0.2440944881889764
          },
          {
            "duration": 0.21428550000000257,
            "durationTicks": 96,
            "midi": 40,
            "name": "E2",
            "ticks": 30336,
            "time": 67.714218,
            "velocity": 0.2440944881889764
          },
          {
            "duration": 0.21428550000000257,
            "durationTicks": 96,
            "midi": 38,
            "name": "D2",
            "ticks": 30432,
            "time": 67.9285035,
            "velocity": 0.2440944881889764
          },
          {
            "duration": 0.21428550000000257,
            "durationTicks": 96,
            "midi": 37,
            "name": "C#2",
            "ticks": 30528,
            "time": 68.14278900000001,
            "velocity": 0.2440944881889764
          },
          {
            "duration": 0.21428549999998836,
            "durationTicks": 96,
            "midi": 38,
            "name": "D2",
            "ticks": 30624,
            "time": 68.35707450000001,
            "velocity": 0.2440944881889764
          },
          {
            "duration": 0.21428550000000257,
            "durationTicks": 96,
            "midi": 26,
            "name": "D1",
            "ticks": 30720,
            "time": 68.57136,
            "velocity": 0.2440944881889764
          },
          {
            "duration": 0.8571420000000103,
            "durationTicks": 384,
            "midi": 73,
            "name": "C#5",
            "ticks": 30720,
            "time": 68.57136,
            "velocity": 0.2440944881889764
          },
          {
            "duration": 0.21428550000000257,
            "durationTicks": 96,
            "midi": 26,
            "name": "D1",
            "ticks": 30912,
            "time": 68.999931,
            "velocity": 0.2440944881889764
          },
          {
            "duration": 0.21428549999998836,
            "durationTicks": 96,
            "midi": 37,
            "name": "C#2",
            "ticks": 30960,
            "time": 69.10707375000001,
            "velocity": 0.2440944881889764
          },
          {
            "duration": 0.21428550000000257,
            "durationTicks": 96,
            "midi": 26,
            "name": "D1",
            "ticks": 31008,
            "time": 69.2142165,
            "velocity": 0.2440944881889764
          },
          {
            "duration": 0.21428550000000257,
            "durationTicks": 96,
            "midi": 37,
            "name": "C#2",
            "ticks": 31056,
            "time": 69.32135925,
            "velocity": 0.2440944881889764
          },
          {
            "duration": 0.21428550000000257,
            "durationTicks": 96,
            "midi": 37,
            "name": "C#2",
            "ticks": 31104,
            "time": 69.42850200000001,
            "velocity": 0.2440944881889764
          },
          {
            "duration": 0.21428550000000257,
            "durationTicks": 96,
            "midi": 33,
            "name": "A1",
            "ticks": 31152,
            "time": 69.53564475,
            "velocity": 0.2440944881889764
          },
          {
            "duration": 0.21428549999998836,
            "durationTicks": 96,
            "midi": 33,
            "name": "A1",
            "ticks": 31200,
            "time": 69.64278750000001,
            "velocity": 0.2440944881889764
          },
          {
            "duration": 0.21428550000000257,
            "durationTicks": 96,
            "midi": 33,
            "name": "A1",
            "ticks": 31296,
            "time": 69.857073,
            "velocity": 0.2440944881889764
          },
          {
            "duration": 0.21428550000000257,
            "durationTicks": 96,
            "midi": 35,
            "name": "B1",
            "ticks": 31344,
            "time": 69.96421575000001,
            "velocity": 0.2440944881889764
          },
          {
            "duration": 0.21428550000000257,
            "durationTicks": 96,
            "midi": 37,
            "name": "C#2",
            "ticks": 31392,
            "time": 70.0713585,
            "velocity": 0.2440944881889764
          },
          {
            "duration": 0.21428550000000257,
            "durationTicks": 96,
            "midi": 25,
            "name": "C#1",
            "ticks": 31488,
            "time": 70.285644,
            "velocity": 0.2440944881889764
          },
          {
            "duration": 0.21428550000000257,
            "durationTicks": 96,
            "midi": 71,
            "name": "B4",
            "ticks": 31488,
            "time": 70.285644,
            "velocity": 0.2440944881889764
          },
          {
            "duration": 0.21428550000000257,
            "durationTicks": 96,
            "midi": 25,
            "name": "C#1",
            "ticks": 31584,
            "time": 70.49992950000001,
            "velocity": 0.2440944881889764
          },
          {
            "duration": 0.21428550000000257,
            "durationTicks": 96,
            "midi": 37,
            "name": "C#2",
            "ticks": 31632,
            "time": 70.60707225,
            "velocity": 0.2440944881889764
          },
          {
            "duration": 0.21428550000000257,
            "durationTicks": 96,
            "midi": 71,
            "name": "B4",
            "ticks": 31632,
            "time": 70.60707225,
            "velocity": 0.2440944881889764
          },
          {
            "duration": 0.21428550000000257,
            "durationTicks": 96,
            "midi": 37,
            "name": "C#2",
            "ticks": 31728,
            "time": 70.82135775,
            "velocity": 0.2440944881889764
          },
          {
            "duration": 0.6428564999999935,
            "durationTicks": 288,
            "midi": 71,
            "name": "B4",
            "ticks": 31776,
            "time": 70.92850050000001,
            "velocity": 0.2440944881889764
          },
          {
            "duration": 0.21428549999998836,
            "durationTicks": 96,
            "midi": 25,
            "name": "C#1",
            "ticks": 31776,
            "time": 70.92850050000001,
            "velocity": 0.2440944881889764
          },
          {
            "duration": 0.21428550000000257,
            "durationTicks": 96,
            "midi": 23,
            "name": "B0",
            "ticks": 31968,
            "time": 71.3570715,
            "velocity": 0.2440944881889764
          },
          {
            "duration": 0.21428550000000257,
            "durationTicks": 96,
            "midi": 24,
            "name": "C1",
            "ticks": 32064,
            "time": 71.571357,
            "velocity": 0.2440944881889764
          },
          {
            "duration": 0.21428550000000257,
            "durationTicks": 96,
            "midi": 25,
            "name": "C#1",
            "ticks": 32160,
            "time": 71.78564250000001,
            "velocity": 0.2440944881889764
          },
          {
            "duration": 0.21428549999998836,
            "durationTicks": 96,
            "midi": 30,
            "name": "F#1",
            "ticks": 32256,
            "time": 71.99992800000001,
            "velocity": 0.2440944881889764
          },
          {
            "duration": 0.6428564999999935,
            "durationTicks": 288,
            "midi": 68,
            "name": "G#4",
            "ticks": 32256,
            "time": 71.99992800000001,
            "velocity": 0.2440944881889764
          },
          {
            "duration": 0.21428550000000257,
            "durationTicks": 96,
            "midi": 30,
            "name": "F#1",
            "ticks": 32400,
            "time": 72.32135625000001,
            "velocity": 0.2440944881889764
          },
          {
            "duration": 0.21428550000000257,
            "durationTicks": 96,
            "midi": 42,
            "name": "F#2",
            "ticks": 32448,
            "time": 72.428499,
            "velocity": 0.2440944881889764
          },
          {
            "duration": 0.21428549999998836,
            "durationTicks": 96,
            "midi": 30,
            "name": "F#1",
            "ticks": 32496,
            "time": 72.53564175000001,
            "velocity": 0.2440944881889764
          },
          {
            "duration": 0.21428550000000257,
            "durationTicks": 96,
            "midi": 30,
            "name": "F#1",
            "ticks": 32592,
            "time": 72.74992725,
            "velocity": 0.2440944881889764
          },
          {
            "duration": 0.21428550000000257,
            "durationTicks": 96,
            "midi": 42,
            "name": "F#2",
            "ticks": 32640,
            "time": 72.85707000000001,
            "velocity": 0.2440944881889764
          },
          {
            "duration": 0.6428564999999935,
            "durationTicks": 288,
            "midi": 69,
            "name": "A4",
            "ticks": 32736,
            "time": 73.07135550000001,
            "velocity": 0.2440944881889764
          },
          {
            "duration": 0.21428550000000257,
            "durationTicks": 96,
            "midi": 40,
            "name": "E2",
            "ticks": 32736,
            "time": 73.07135550000001,
            "velocity": 0.2440944881889764
          },
          {
            "duration": 0.21428549999998836,
            "durationTicks": 96,
            "midi": 38,
            "name": "D2",
            "ticks": 32832,
            "time": 73.28564100000001,
            "velocity": 0.2440944881889764
          },
          {
            "duration": 0.21428550000000257,
            "durationTicks": 96,
            "midi": 40,
            "name": "E2",
            "ticks": 32880,
            "time": 73.39278375,
            "velocity": 0.2440944881889764
          },
          {
            "duration": 0.21428550000000257,
            "durationTicks": 96,
            "midi": 37,
            "name": "C#2",
            "ticks": 32928,
            "time": 73.4999265,
            "velocity": 0.2440944881889764
          },
          {
            "duration": 0.21428550000000257,
            "durationTicks": 96,
            "midi": 66,
            "name": "F#4",
            "ticks": 33024,
            "time": 73.714212,
            "velocity": 0.2440944881889764
          },
          {
            "duration": 0.21428550000000257,
            "durationTicks": 96,
            "midi": 28,
            "name": "E1",
            "ticks": 33024,
            "time": 73.714212,
            "velocity": 0.2440944881889764
          },
          {
            "duration": 0.21428550000000257,
            "durationTicks": 96,
            "midi": 66,
            "name": "F#4",
            "ticks": 33168,
            "time": 74.03564025,
            "velocity": 0.2440944881889764
          },
          {
            "duration": 0.21428550000000257,
            "durationTicks": 96,
            "midi": 28,
            "name": "E1",
            "ticks": 33168,
            "time": 74.03564025,
            "velocity": 0.2440944881889764
          },
          {
            "duration": 0.21428550000000257,
            "durationTicks": 96,
            "midi": 37,
            "name": "C#2",
            "ticks": 33216,
            "time": 74.14278300000001,
            "velocity": 0.2440944881889764
          },
          {
            "duration": 0.21428549999998836,
            "durationTicks": 96,
            "midi": 66,
            "name": "F#4",
            "ticks": 33312,
            "time": 74.35706850000001,
            "velocity": 0.2440944881889764
          },
          {
            "duration": 0.21428549999998836,
            "durationTicks": 96,
            "midi": 28,
            "name": "E1",
            "ticks": 33312,
            "time": 74.35706850000001,
            "velocity": 0.2440944881889764
          },
          {
            "duration": 0.21428550000000257,
            "durationTicks": 96,
            "midi": 28,
            "name": "E1",
            "ticks": 33360,
            "time": 74.46421125,
            "velocity": 0.2440944881889764
          },
          {
            "duration": 0.21428550000000257,
            "durationTicks": 96,
            "midi": 37,
            "name": "C#2",
            "ticks": 33408,
            "time": 74.571354,
            "velocity": 0.2440944881889764
          },
          {
            "duration": 0.21428550000000257,
            "durationTicks": 96,
            "midi": 28,
            "name": "E1",
            "ticks": 33456,
            "time": 74.67849675000001,
            "velocity": 0.2440944881889764
          },
          {
            "duration": 0.21428550000000257,
            "durationTicks": 96,
            "midi": 68,
            "name": "G#4",
            "ticks": 33504,
            "time": 74.7856395,
            "velocity": 0.2440944881889764
          },
          {
            "duration": 0.21428550000000257,
            "durationTicks": 96,
            "midi": 35,
            "name": "B1",
            "ticks": 33504,
            "time": 74.7856395,
            "velocity": 0.2440944881889764
          },
          {
            "duration": 0.21428550000000257,
            "durationTicks": 96,
            "midi": 28,
            "name": "E1",
            "ticks": 33552,
            "time": 74.89278225000001,
            "velocity": 0.2440944881889764
          },
          {
            "duration": 0.21428550000000257,
            "durationTicks": 96,
            "midi": 33,
            "name": "A1",
            "ticks": 33600,
            "time": 74.999925,
            "velocity": 0.2440944881889764
          },
          {
            "duration": 0.21428549999998836,
            "durationTicks": 96,
            "midi": 28,
            "name": "E1",
            "ticks": 33648,
            "time": 75.10706775000001,
            "velocity": 0.2440944881889764
          },
          {
            "duration": 0.21428550000000257,
            "durationTicks": 96,
            "midi": 33,
            "name": "A1",
            "ticks": 33696,
            "time": 75.21421050000001,
            "velocity": 0.2440944881889764
          },
          {
            "duration": 0.21428550000000257,
            "durationTicks": 96,
            "midi": 35,
            "name": "B1",
            "ticks": 33744,
            "time": 75.32135325,
            "velocity": 0.2440944881889764
          },
          {
            "duration": 0.8571419999999961,
            "durationTicks": 384,
            "midi": 73,
            "name": "C#5",
            "ticks": 33792,
            "time": 75.42849600000001,
            "velocity": 0.2440944881889764
          },
          {
            "duration": 0.21428550000000257,
            "durationTicks": 96,
            "midi": 26,
            "name": "D1",
            "ticks": 33792,
            "time": 75.42849600000001,
            "velocity": 0.2440944881889764
          },
          {
            "duration": 0.21428550000000257,
            "durationTicks": 96,
            "midi": 26,
            "name": "D1",
            "ticks": 33984,
            "time": 75.857067,
            "velocity": 0.2440944881889764
          },
          {
            "duration": 0.21428550000000257,
            "durationTicks": 96,
            "midi": 37,
            "name": "C#2",
            "ticks": 34032,
            "time": 75.96420975000001,
            "velocity": 0.2440944881889764
          },
          {
            "duration": 0.21428550000000257,
            "durationTicks": 96,
            "midi": 26,
            "name": "D1",
            "ticks": 34080,
            "time": 76.0713525,
            "velocity": 0.2440944881889764
          },
          {
            "duration": 0.21428549999998836,
            "durationTicks": 96,
            "midi": 37,
            "name": "C#2",
            "ticks": 34128,
            "time": 76.17849525000001,
            "velocity": 0.2440944881889764
          },
          {
            "duration": 0.21428550000000257,
            "durationTicks": 96,
            "midi": 37,
            "name": "C#2",
            "ticks": 34176,
            "time": 76.285638,
            "velocity": 0.2440944881889764
          },
          {
            "duration": 0.21428550000000257,
            "durationTicks": 96,
            "midi": 33,
            "name": "A1",
            "ticks": 34224,
            "time": 76.39278075,
            "velocity": 0.2440944881889764
          },
          {
            "duration": 0.21428550000000257,
            "durationTicks": 96,
            "midi": 33,
            "name": "A1",
            "ticks": 34272,
            "time": 76.49992350000001,
            "velocity": 0.2440944881889764
          },
          {
            "duration": 0.21428549999998836,
            "durationTicks": 96,
            "midi": 33,
            "name": "A1",
            "ticks": 34368,
            "time": 76.71420900000001,
            "velocity": 0.2440944881889764
          },
          {
            "duration": 0.21428550000000257,
            "durationTicks": 96,
            "midi": 35,
            "name": "B1",
            "ticks": 34416,
            "time": 76.82135175,
            "velocity": 0.2440944881889764
          },
          {
            "duration": 0.21428550000000257,
            "durationTicks": 96,
            "midi": 37,
            "name": "C#2",
            "ticks": 34464,
            "time": 76.9284945,
            "velocity": 0.2440944881889764
          },
          {
            "duration": 0.21428550000000257,
            "durationTicks": 96,
            "midi": 25,
            "name": "C#1",
            "ticks": 34560,
            "time": 77.14278,
            "velocity": 0.2440944881889764
          },
          {
            "duration": 0.21428550000000257,
            "durationTicks": 96,
            "midi": 71,
            "name": "B4",
            "ticks": 34560,
            "time": 77.14278,
            "velocity": 0.2440944881889764
          },
          {
            "duration": 0.21428550000000257,
            "durationTicks": 96,
            "midi": 25,
            "name": "C#1",
            "ticks": 34656,
            "time": 77.3570655,
            "velocity": 0.2440944881889764
          },
          {
            "duration": 0.21428549999998836,
            "durationTicks": 96,
            "midi": 71,
            "name": "B4",
            "ticks": 34704,
            "time": 77.46420825000001,
            "velocity": 0.2440944881889764
          },
          {
            "duration": 0.21428549999998836,
            "durationTicks": 96,
            "midi": 37,
            "name": "C#2",
            "ticks": 34704,
            "time": 77.46420825000001,
            "velocity": 0.2440944881889764
          },
          {
            "duration": 0.21428550000000257,
            "durationTicks": 96,
            "midi": 37,
            "name": "C#2",
            "ticks": 34800,
            "time": 77.67849375,
            "velocity": 0.2440944881889764
          },
          {
            "duration": 0.6428564999999935,
            "durationTicks": 288,
            "midi": 71,
            "name": "B4",
            "ticks": 34848,
            "time": 77.78563650000001,
            "velocity": 0.2440944881889764
          },
          {
            "duration": 0.21428550000000257,
            "durationTicks": 96,
            "midi": 25,
            "name": "C#1",
            "ticks": 34848,
            "time": 77.78563650000001,
            "velocity": 0.2440944881889764
          },
          {
            "duration": 0.21428550000000257,
            "durationTicks": 96,
            "midi": 23,
            "name": "B0",
            "ticks": 35040,
            "time": 78.2142075,
            "velocity": 0.2440944881889764
          },
          {
            "duration": 0.21428550000000257,
            "durationTicks": 96,
            "midi": 24,
            "name": "C1",
            "ticks": 35136,
            "time": 78.428493,
            "velocity": 0.2440944881889764
          },
          {
            "duration": 0.42857100000000514,
            "durationTicks": 192,
            "midi": 81,
            "name": "A5",
            "ticks": 35136,
            "time": 78.428493,
            "velocity": 0.2440944881889764
          },
          {
            "duration": 0.21428550000000257,
            "durationTicks": 96,
            "midi": 25,
            "name": "C#1",
            "ticks": 35232,
            "time": 78.6427785,
            "velocity": 0.2440944881889764
          },
          {
            "duration": 0.21428550000000257,
            "durationTicks": 96,
            "midi": 30,
            "name": "F#1",
            "ticks": 35328,
            "time": 78.85706400000001,
            "velocity": 0.2440944881889764
          },
          {
            "duration": 1.7142839999999921,
            "durationTicks": 768,
            "midi": 83,
            "name": "B5",
            "ticks": 35328,
            "time": 78.85706400000001,
            "velocity": 0.2440944881889764
          },
          {
            "duration": 0.21428550000000257,
            "durationTicks": 96,
            "midi": 30,
            "name": "F#1",
            "ticks": 35472,
            "time": 79.17849225,
            "velocity": 0.2440944881889764
          },
          {
            "duration": 0.21428549999998836,
            "durationTicks": 96,
            "midi": 42,
            "name": "F#2",
            "ticks": 35520,
            "time": 79.28563500000001,
            "velocity": 0.2440944881889764
          },
          {
            "duration": 0.21428550000000257,
            "durationTicks": 96,
            "midi": 30,
            "name": "F#1",
            "ticks": 35568,
            "time": 79.39277775000001,
            "velocity": 0.2440944881889764
          },
          {
            "duration": 0.21428550000000257,
            "durationTicks": 96,
            "midi": 30,
            "name": "F#1",
            "ticks": 35664,
            "time": 79.60706325000001,
            "velocity": 0.2440944881889764
          },
          {
            "duration": 0.21428550000000257,
            "durationTicks": 96,
            "midi": 45,
            "name": "A2",
            "ticks": 35712,
            "time": 79.714206,
            "velocity": 0.2440944881889764
          },
          {
            "duration": 0.21428550000000257,
            "durationTicks": 96,
            "midi": 44,
            "name": "G#2",
            "ticks": 35808,
            "time": 79.9284915,
            "velocity": 0.2440944881889764
          },
          {
            "duration": 0.21428550000000257,
            "durationTicks": 96,
            "midi": 40,
            "name": "E2",
            "ticks": 35904,
            "time": 80.14277700000001,
            "velocity": 0.2440944881889764
          },
          {
            "duration": 0.21428550000000257,
            "durationTicks": 96,
            "midi": 42,
            "name": "F#2",
            "ticks": 35952,
            "time": 80.24991975,
            "velocity": 0.2440944881889764
          },
          {
            "duration": 0.21428549999998836,
            "durationTicks": 96,
            "midi": 40,
            "name": "E2",
            "ticks": 36000,
            "time": 80.35706250000001,
            "velocity": 0.2440944881889764
          },
          {
            "duration": 0.21428550000000257,
            "durationTicks": 96,
            "midi": 28,
            "name": "E1",
            "ticks": 36096,
            "time": 80.571348,
            "velocity": 0.2440944881889764
          },
          {
            "duration": 0.8571420000000103,
            "durationTicks": 384,
            "midi": 81,
            "name": "A5",
            "ticks": 36096,
            "time": 80.571348,
            "velocity": 0.2440944881889764
          },
          {
            "duration": 0.21428549999998836,
            "durationTicks": 96,
            "midi": 28,
            "name": "E1",
            "ticks": 36240,
            "time": 80.89277625000001,
            "velocity": 0.2440944881889764
          },
          {
            "duration": 0.21428550000000257,
            "durationTicks": 96,
            "midi": 40,
            "name": "E2",
            "ticks": 36288,
            "time": 80.999919,
            "velocity": 0.2440944881889764
          },
          {
            "duration": 0.21428550000000257,
            "durationTicks": 96,
            "midi": 28,
            "name": "E1",
            "ticks": 36384,
            "time": 81.21420450000001,
            "velocity": 0.2440944881889764
          },
          {
            "duration": 0.8571419999999961,
            "durationTicks": 384,
            "midi": 80,
            "name": "G#5",
            "ticks": 36480,
            "time": 81.42849000000001,
            "velocity": 0.2440944881889764
          },
          {
            "duration": 0.21428550000000257,
            "durationTicks": 96,
            "midi": 40,
            "name": "E2",
            "ticks": 36480,
            "time": 81.42849000000001,
            "velocity": 0.2440944881889764
          },
          {
            "duration": 0.21428549999998836,
            "durationTicks": 96,
            "midi": 38,
            "name": "D2",
            "ticks": 36576,
            "time": 81.64277550000001,
            "velocity": 0.2440944881889764
          },
          {
            "duration": 0.21428550000000257,
            "durationTicks": 96,
            "midi": 37,
            "name": "C#2",
            "ticks": 36672,
            "time": 81.857061,
            "velocity": 0.2440944881889764
          },
          {
            "duration": 0.21428550000000257,
            "durationTicks": 96,
            "midi": 38,
            "name": "D2",
            "ticks": 36768,
            "time": 82.0713465,
            "velocity": 0.2440944881889764
          },
          {
            "duration": 0.8571419999999961,
            "durationTicks": 384,
            "midi": 73,
            "name": "C#5",
            "ticks": 36864,
            "time": 82.285632,
            "velocity": 0.2440944881889764
          },
          {
            "duration": 0.21428550000000257,
            "durationTicks": 96,
            "midi": 26,
            "name": "D1",
            "ticks": 36864,
            "time": 82.285632,
            "velocity": 0.2440944881889764
          },
          {
            "duration": 0.21428549999998836,
            "durationTicks": 96,
            "midi": 26,
            "name": "D1",
            "ticks": 37056,
            "time": 82.71420300000001,
            "velocity": 0.2440944881889764
          },
          {
            "duration": 0.21428550000000257,
            "durationTicks": 96,
            "midi": 37,
            "name": "C#2",
            "ticks": 37104,
            "time": 82.82134575,
            "velocity": 0.2440944881889764
          },
          {
            "duration": 0.21428550000000257,
            "durationTicks": 96,
            "midi": 26,
            "name": "D1",
            "ticks": 37152,
            "time": 82.9284885,
            "velocity": 0.2440944881889764
          },
          {
            "duration": 0.21428550000000257,
            "durationTicks": 96,
            "midi": 37,
            "name": "C#2",
            "ticks": 37200,
            "time": 83.03563125000001,
            "velocity": 0.2440944881889764
          },
          {
            "duration": 0.21428550000000257,
            "durationTicks": 96,
            "midi": 37,
            "name": "C#2",
            "ticks": 37248,
            "time": 83.142774,
            "velocity": 0.2440944881889764
          },
          {
            "duration": 0.21428550000000257,
            "durationTicks": 96,
            "midi": 33,
            "name": "A1",
            "ticks": 37296,
            "time": 83.24991675000001,
            "velocity": 0.2440944881889764
          },
          {
            "duration": 0.21428550000000257,
            "durationTicks": 96,
            "midi": 33,
            "name": "A1",
            "ticks": 37344,
            "time": 83.3570595,
            "velocity": 0.2440944881889764
          },
          {
            "duration": 0.21428550000000257,
            "durationTicks": 96,
            "midi": 33,
            "name": "A1",
            "ticks": 37440,
            "time": 83.57134500000001,
            "velocity": 0.2440944881889764
          },
          {
            "duration": 0.21428550000000257,
            "durationTicks": 96,
            "midi": 35,
            "name": "B1",
            "ticks": 37488,
            "time": 83.67848775,
            "velocity": 0.2440944881889764
          },
          {
            "duration": 0.21428550000000257,
            "durationTicks": 96,
            "midi": 37,
            "name": "C#2",
            "ticks": 37536,
            "time": 83.78563050000001,
            "velocity": 0.2440944881889764
          },
          {
            "duration": 0.21428549999998836,
            "durationTicks": 96,
            "midi": 25,
            "name": "C#1",
            "ticks": 37632,
            "time": 83.99991600000001,
            "velocity": 0.2440944881889764
          },
          {
            "duration": 0.21428549999998836,
            "durationTicks": 96,
            "midi": 71,
            "name": "B4",
            "ticks": 37632,
            "time": 83.99991600000001,
            "velocity": 0.2440944881889764
          },
          {
            "duration": 0.21428550000000257,
            "durationTicks": 96,
            "midi": 25,
            "name": "C#1",
            "ticks": 37728,
            "time": 84.2142015,
            "velocity": 0.2440944881889764
          },
          {
            "duration": 0.21428550000000257,
            "durationTicks": 96,
            "midi": 71,
            "name": "B4",
            "ticks": 37776,
            "time": 84.32134425000001,
            "velocity": 0.2440944881889764
          },
          {
            "duration": 0.21428550000000257,
            "durationTicks": 96,
            "midi": 37,
            "name": "C#2",
            "ticks": 37776,
            "time": 84.32134425000001,
            "velocity": 0.2440944881889764
          },
          {
            "duration": 0.21428549999998836,
            "durationTicks": 96,
            "midi": 37,
            "name": "C#2",
            "ticks": 37872,
            "time": 84.53562975000001,
            "velocity": 0.2440944881889764
          },
          {
            "duration": 0.6428564999999935,
            "durationTicks": 288,
            "midi": 71,
            "name": "B4",
            "ticks": 37920,
            "time": 84.6427725,
            "velocity": 0.2440944881889764
          },
          {
            "duration": 0.21428550000000257,
            "durationTicks": 96,
            "midi": 25,
            "name": "C#1",
            "ticks": 37920,
            "time": 84.6427725,
            "velocity": 0.2440944881889764
          },
          {
            "duration": 0.21428549999998836,
            "durationTicks": 96,
            "midi": 23,
            "name": "B0",
            "ticks": 38112,
            "time": 85.07134350000001,
            "velocity": 0.2440944881889764
          },
          {
            "duration": 0.21428550000000257,
            "durationTicks": 96,
            "midi": 24,
            "name": "C1",
            "ticks": 38208,
            "time": 85.285629,
            "velocity": 0.2440944881889764
          },
          {
            "duration": 0.21428550000000257,
            "durationTicks": 96,
            "midi": 25,
            "name": "C#1",
            "ticks": 38304,
            "time": 85.4999145,
            "velocity": 0.2440944881889764
          },
          {
            "duration": 0.21428550000000257,
            "durationTicks": 96,
            "midi": 30,
            "name": "F#1",
            "ticks": 38400,
            "time": 85.7142,
            "velocity": 0.2440944881889764
          },
          {
            "duration": 0.6428565000000077,
            "durationTicks": 288,
            "midi": 68,
            "name": "G#4",
            "ticks": 38400,
            "time": 85.7142,
            "velocity": 0.2440944881889764
          },
          {
            "duration": 0.21428550000000257,
            "durationTicks": 96,
            "midi": 30,
            "name": "F#1",
            "ticks": 38544,
            "time": 86.03562825,
            "velocity": 0.2440944881889764
          },
          {
            "duration": 0.21428550000000257,
            "durationTicks": 96,
            "midi": 42,
            "name": "F#2",
            "ticks": 38592,
            "time": 86.14277100000001,
            "velocity": 0.2440944881889764
          },
          {
            "duration": 0.21428550000000257,
            "durationTicks": 96,
            "midi": 30,
            "name": "F#1",
            "ticks": 38640,
            "time": 86.24991375,
            "velocity": 0.2440944881889764
          },
          {
            "duration": 0.21428550000000257,
            "durationTicks": 96,
            "midi": 30,
            "name": "F#1",
            "ticks": 38736,
            "time": 86.46419925000001,
            "velocity": 0.2440944881889764
          },
          {
            "duration": 0.21428550000000257,
            "durationTicks": 96,
            "midi": 42,
            "name": "F#2",
            "ticks": 38784,
            "time": 86.571342,
            "velocity": 0.2440944881889764
          },
          {
            "duration": 0.6428565000000077,
            "durationTicks": 288,
            "midi": 69,
            "name": "A4",
            "ticks": 38880,
            "time": 86.7856275,
            "velocity": 0.2440944881889764
          },
          {
            "duration": 0.21428550000000257,
            "durationTicks": 96,
            "midi": 40,
            "name": "E2",
            "ticks": 38880,
            "time": 86.7856275,
            "velocity": 0.2440944881889764
          },
          {
            "duration": 0.21428550000000257,
            "durationTicks": 96,
            "midi": 38,
            "name": "D2",
            "ticks": 38976,
            "time": 86.999913,
            "velocity": 0.2440944881889764
          },
          {
            "duration": 0.21428550000000257,
            "durationTicks": 96,
            "midi": 40,
            "name": "E2",
            "ticks": 39024,
            "time": 87.10705575,
            "velocity": 0.2440944881889764
          },
          {
            "duration": 0.21428550000000257,
            "durationTicks": 96,
            "midi": 37,
            "name": "C#2",
            "ticks": 39072,
            "time": 87.21419850000001,
            "velocity": 0.2440944881889764
          },
          {
            "duration": 0.21428550000000257,
            "durationTicks": 96,
            "midi": 28,
            "name": "E1",
            "ticks": 39168,
            "time": 87.42848400000001,
            "velocity": 0.2440944881889764
          },
          {
            "duration": 0.21428550000000257,
            "durationTicks": 96,
            "midi": 66,
            "name": "F#4",
            "ticks": 39168,
            "time": 87.42848400000001,
            "velocity": 0.2440944881889764
          },
          {
            "duration": 0.21428550000000257,
            "durationTicks": 96,
            "midi": 28,
            "name": "E1",
            "ticks": 39312,
            "time": 87.74991225000001,
            "velocity": 0.2440944881889764
          },
          {
            "duration": 0.21428550000000257,
            "durationTicks": 96,
            "midi": 66,
            "name": "F#4",
            "ticks": 39312,
            "time": 87.74991225000001,
            "velocity": 0.2440944881889764
          },
          {
            "duration": 0.21428550000000257,
            "durationTicks": 96,
            "midi": 37,
            "name": "C#2",
            "ticks": 39360,
            "time": 87.857055,
            "velocity": 0.2440944881889764
          },
          {
            "duration": 0.21428550000000257,
            "durationTicks": 96,
            "midi": 66,
            "name": "F#4",
            "ticks": 39456,
            "time": 88.0713405,
            "velocity": 0.2440944881889764
          },
          {
            "duration": 0.21428550000000257,
            "durationTicks": 96,
            "midi": 28,
            "name": "E1",
            "ticks": 39456,
            "time": 88.0713405,
            "velocity": 0.2440944881889764
          },
          {
            "duration": 0.21428549999998836,
            "durationTicks": 96,
            "midi": 28,
            "name": "E1",
            "ticks": 39504,
            "time": 88.17848325000001,
            "velocity": 0.2440944881889764
          },
          {
            "duration": 0.21428550000000257,
            "durationTicks": 96,
            "midi": 37,
            "name": "C#2",
            "ticks": 39552,
            "time": 88.28562600000001,
            "velocity": 0.2440944881889764
          },
          {
            "duration": 0.21428550000000257,
            "durationTicks": 96,
            "midi": 28,
            "name": "E1",
            "ticks": 39600,
            "time": 88.39276875,
            "velocity": 0.2440944881889764
          },
          {
            "duration": 0.21428550000000257,
            "durationTicks": 96,
            "midi": 35,
            "name": "B1",
            "ticks": 39648,
            "time": 88.49991150000001,
            "velocity": 0.2440944881889764
          },
          {
            "duration": 0.21428550000000257,
            "durationTicks": 96,
            "midi": 68,
            "name": "G#4",
            "ticks": 39648,
            "time": 88.49991150000001,
            "velocity": 0.2440944881889764
          },
          {
            "duration": 0.21428550000000257,
            "durationTicks": 96,
            "midi": 28,
            "name": "E1",
            "ticks": 39696,
            "time": 88.60705425,
            "velocity": 0.2440944881889764
          },
          {
            "duration": 0.21428549999998836,
            "durationTicks": 96,
            "midi": 33,
            "name": "A1",
            "ticks": 39744,
            "time": 88.71419700000001,
            "velocity": 0.2440944881889764
          },
          {
            "duration": 0.21428550000000257,
            "durationTicks": 96,
            "midi": 28,
            "name": "E1",
            "ticks": 39792,
            "time": 88.82133975,
            "velocity": 0.2440944881889764
          },
          {
            "duration": 0.21428550000000257,
            "durationTicks": 96,
            "midi": 33,
            "name": "A1",
            "ticks": 39840,
            "time": 88.9284825,
            "velocity": 0.2440944881889764
          },
          {
            "duration": 0.21428550000000257,
            "durationTicks": 96,
            "midi": 35,
            "name": "B1",
            "ticks": 39888,
            "time": 89.03562525000001,
            "velocity": 0.2440944881889764
          },
          {
            "duration": 0.8571420000000103,
            "durationTicks": 384,
            "midi": 73,
            "name": "C#5",
            "ticks": 39936,
            "time": 89.142768,
            "velocity": 0.2440944881889764
          },
          {
            "duration": 0.21428550000000257,
            "durationTicks": 96,
            "midi": 26,
            "name": "D1",
            "ticks": 39936,
            "time": 89.142768,
            "velocity": 0.2440944881889764
          },
          {
            "duration": 0.21428550000000257,
            "durationTicks": 96,
            "midi": 26,
            "name": "D1",
            "ticks": 40128,
            "time": 89.57133900000001,
            "velocity": 0.2440944881889764
          },
          {
            "duration": 0.21428550000000257,
            "durationTicks": 96,
            "midi": 37,
            "name": "C#2",
            "ticks": 40176,
            "time": 89.67848175,
            "velocity": 0.2440944881889764
          },
          {
            "duration": 0.21428550000000257,
            "durationTicks": 96,
            "midi": 26,
            "name": "D1",
            "ticks": 40224,
            "time": 89.78562450000001,
            "velocity": 0.2440944881889764
          },
          {
            "duration": 0.21428550000000257,
            "durationTicks": 96,
            "midi": 37,
            "name": "C#2",
            "ticks": 40272,
            "time": 89.89276725,
            "velocity": 0.2440944881889764
          },
          {
            "duration": 0.21428549999998836,
            "durationTicks": 96,
            "midi": 37,
            "name": "C#2",
            "ticks": 40320,
            "time": 89.99991000000001,
            "velocity": 0.2440944881889764
          },
          {
            "duration": 0.21428550000000257,
            "durationTicks": 96,
            "midi": 33,
            "name": "A1",
            "ticks": 40368,
            "time": 90.10705275000001,
            "velocity": 0.2440944881889764
          },
          {
            "duration": 0.21428550000000257,
            "durationTicks": 96,
            "midi": 33,
            "name": "A1",
            "ticks": 40416,
            "time": 90.2141955,
            "velocity": 0.2440944881889764
          },
          {
            "duration": 0.21428550000000257,
            "durationTicks": 96,
            "midi": 33,
            "name": "A1",
            "ticks": 40512,
            "time": 90.428481,
            "velocity": 0.2440944881889764
          },
          {
            "duration": 0.21428549999998836,
            "durationTicks": 96,
            "midi": 35,
            "name": "B1",
            "ticks": 40560,
            "time": 90.53562375000001,
            "velocity": 0.2440944881889764
          },
          {
            "duration": 0.21428550000000257,
            "durationTicks": 96,
            "midi": 37,
            "name": "C#2",
            "ticks": 40608,
            "time": 90.64276650000001,
            "velocity": 0.2440944881889764
          },
          {
            "duration": 0.21428550000000257,
            "durationTicks": 96,
            "midi": 71,
            "name": "B4",
            "ticks": 40704,
            "time": 90.85705200000001,
            "velocity": 0.2440944881889764
          },
          {
            "duration": 0.21428550000000257,
            "durationTicks": 96,
            "midi": 25,
            "name": "C#1",
            "ticks": 40704,
            "time": 90.85705200000001,
            "velocity": 0.2440944881889764
          },
          {
            "duration": 0.21428549999998836,
            "durationTicks": 96,
            "midi": 25,
            "name": "C#1",
            "ticks": 40800,
            "time": 91.07133750000001,
            "velocity": 0.2440944881889764
          },
          {
            "duration": 0.21428550000000257,
            "durationTicks": 96,
            "midi": 37,
            "name": "C#2",
            "ticks": 40848,
            "time": 91.17848025,
            "velocity": 0.2440944881889764
          },
          {
            "duration": 0.21428550000000257,
            "durationTicks": 96,
            "midi": 71,
            "name": "B4",
            "ticks": 40848,
            "time": 91.17848025,
            "velocity": 0.2440944881889764
          },
          {
            "duration": 0.21428550000000257,
            "durationTicks": 96,
            "midi": 37,
            "name": "C#2",
            "ticks": 40944,
            "time": 91.39276575000001,
            "velocity": 0.2440944881889764
          },
          {
            "duration": 0.6428565000000077,
            "durationTicks": 288,
            "midi": 71,
            "name": "B4",
            "ticks": 40992,
            "time": 91.4999085,
            "velocity": 0.2440944881889764
          },
          {
            "duration": 0.21428550000000257,
            "durationTicks": 96,
            "midi": 25,
            "name": "C#1",
            "ticks": 40992,
            "time": 91.4999085,
            "velocity": 0.2440944881889764
          },
          {
            "duration": 0.21428550000000257,
            "durationTicks": 96,
            "midi": 23,
            "name": "B0",
            "ticks": 41184,
            "time": 91.92847950000001,
            "velocity": 0.2440944881889764
          },
          {
            "duration": 0.21428550000000257,
            "durationTicks": 96,
            "midi": 24,
            "name": "C1",
            "ticks": 41280,
            "time": 92.14276500000001,
            "velocity": 0.2440944881889764
          },
          {
            "duration": 0.42857099999999093,
            "durationTicks": 192,
            "midi": 81,
            "name": "A5",
            "ticks": 41280,
            "time": 92.14276500000001,
            "velocity": 0.2440944881889764
          },
          {
            "duration": 0.21428549999998836,
            "durationTicks": 96,
            "midi": 25,
            "name": "C#1",
            "ticks": 41376,
            "time": 92.35705050000001,
            "velocity": 0.2440944881889764
          },
          {
            "duration": 1.7142840000000064,
            "durationTicks": 768,
            "midi": 83,
            "name": "B5",
            "ticks": 41472,
            "time": 92.571336,
            "velocity": 0.2440944881889764
          },
          {
            "duration": 0.21428550000000257,
            "durationTicks": 96,
            "midi": 30,
            "name": "F#1",
            "ticks": 41472,
            "time": 92.571336,
            "velocity": 0.2440944881889764
          },
          {
            "duration": 0.21428549999998836,
            "durationTicks": 96,
            "midi": 30,
            "name": "F#1",
            "ticks": 41616,
            "time": 92.89276425000001,
            "velocity": 0.2440944881889764
          },
          {
            "duration": 0.21428550000000257,
            "durationTicks": 96,
            "midi": 42,
            "name": "F#2",
            "ticks": 41664,
            "time": 92.99990700000001,
            "velocity": 0.2440944881889764
          },
          {
            "duration": 0.21428550000000257,
            "durationTicks": 96,
            "midi": 30,
            "name": "F#1",
            "ticks": 41712,
            "time": 93.10704975,
            "velocity": 0.2440944881889764
          },
          {
            "duration": 0.21428550000000257,
            "durationTicks": 96,
            "midi": 30,
            "name": "F#1",
            "ticks": 41808,
            "time": 93.32133525,
            "velocity": 0.2440944881889764
          },
          {
            "duration": 0.21428549999998836,
            "durationTicks": 96,
            "midi": 45,
            "name": "A2",
            "ticks": 41856,
            "time": 93.42847800000001,
            "velocity": 0.2440944881889764
          },
          {
            "duration": 0.21428550000000257,
            "durationTicks": 96,
            "midi": 44,
            "name": "G#2",
            "ticks": 41952,
            "time": 93.6427635,
            "velocity": 0.2440944881889764
          },
          {
            "duration": 0.21428550000000257,
            "durationTicks": 96,
            "midi": 40,
            "name": "E2",
            "ticks": 42048,
            "time": 93.857049,
            "velocity": 0.2440944881889764
          },
          {
            "duration": 0.21428550000000257,
            "durationTicks": 96,
            "midi": 42,
            "name": "F#2",
            "ticks": 42096,
            "time": 93.96419175000001,
            "velocity": 0.2440944881889764
          },
          {
            "duration": 0.21428550000000257,
            "durationTicks": 96,
            "midi": 40,
            "name": "E2",
            "ticks": 42144,
            "time": 94.0713345,
            "velocity": 0.2440944881889764
          },
          {
            "duration": 0.8571419999999961,
            "durationTicks": 384,
            "midi": 81,
            "name": "A5",
            "ticks": 42240,
            "time": 94.28562000000001,
            "velocity": 0.2440944881889764
          },
          {
            "duration": 0.21428550000000257,
            "durationTicks": 96,
            "midi": 28,
            "name": "E1",
            "ticks": 42240,
            "time": 94.28562000000001,
            "velocity": 0.2440944881889764
          },
          {
            "duration": 0.21428550000000257,
            "durationTicks": 96,
            "midi": 28,
            "name": "E1",
            "ticks": 42384,
            "time": 94.60704825,
            "velocity": 0.2440944881889764
          },
          {
            "duration": 0.21428549999998836,
            "durationTicks": 96,
            "midi": 40,
            "name": "E2",
            "ticks": 42432,
            "time": 94.71419100000001,
            "velocity": 0.2440944881889764
          },
          {
            "duration": 0.21428550000000257,
            "durationTicks": 96,
            "midi": 28,
            "name": "E1",
            "ticks": 42528,
            "time": 94.9284765,
            "velocity": 0.2440944881889764
          },
          {
            "duration": 0.8571420000000103,
            "durationTicks": 384,
            "midi": 80,
            "name": "G#5",
            "ticks": 42624,
            "time": 95.142762,
            "velocity": 0.2440944881889764
          },
          {
            "duration": 0.21428550000000257,
            "durationTicks": 96,
            "midi": 40,
            "name": "E2",
            "ticks": 42624,
            "time": 95.142762,
            "velocity": 0.2440944881889764
          },
          {
            "duration": 0.21428550000000257,
            "durationTicks": 96,
            "midi": 38,
            "name": "D2",
            "ticks": 42720,
            "time": 95.35704750000001,
            "velocity": 0.2440944881889764
          },
          {
            "duration": 0.21428550000000257,
            "durationTicks": 96,
            "midi": 37,
            "name": "C#2",
            "ticks": 42816,
            "time": 95.57133300000001,
            "velocity": 0.2440944881889764
          },
          {
            "duration": 0.21428550000000257,
            "durationTicks": 96,
            "midi": 38,
            "name": "D2",
            "ticks": 42912,
            "time": 95.78561850000001,
            "velocity": 0.2440944881889764
          }
        ],
        "endOfTrackTicks": 43008
      },
      {
        "channel": 1,
        "controlChanges": {},
        "pitchBends": [],
        "instrument": {
          "family": "synth lead",
          "number": 87,
          "name": "lead 8 (bass + lead)"
        },
        "name": "8-Bit Triangle",
        "notes": [
          {
            "duration": 0.21428550000000002,
            "durationTicks": 96,
            "midi": 50,
            "name": "D3",
            "ticks": 0,
            "time": 0,
            "velocity": 0.2440944881889764
          },
          {
            "duration": 0.21428550000000002,
            "durationTicks": 96,
            "midi": 54,
            "name": "F#3",
            "ticks": 96,
            "time": 0.21428550000000002,
            "velocity": 0.2440944881889764
          },
          {
            "duration": 0.21428550000000002,
            "durationTicks": 96,
            "midi": 61,
            "name": "C#4",
            "ticks": 192,
            "time": 0.42857100000000004,
            "velocity": 0.2440944881889764
          },
          {
            "duration": 0.21428550000000002,
            "durationTicks": 96,
            "midi": 50,
            "name": "D3",
            "ticks": 288,
            "time": 0.6428565,
            "velocity": 0.2440944881889764
          },
          {
            "duration": 0.2142854999999999,
            "durationTicks": 96,
            "midi": 54,
            "name": "F#3",
            "ticks": 384,
            "time": 0.8571420000000001,
            "velocity": 0.2440944881889764
          },
          {
            "duration": 0.21428550000000013,
            "durationTicks": 96,
            "midi": 61,
            "name": "C#4",
            "ticks": 480,
            "time": 1.0714275,
            "velocity": 0.2440944881889764
          },
          {
            "duration": 0.21428550000000013,
            "durationTicks": 96,
            "midi": 50,
            "name": "D3",
            "ticks": 576,
            "time": 1.285713,
            "velocity": 0.2440944881889764
          },
          {
            "duration": 0.2142854999999999,
            "durationTicks": 96,
            "midi": 54,
            "name": "F#3",
            "ticks": 672,
            "time": 1.4999985000000002,
            "velocity": 0.2440944881889764
          },
          {
            "duration": 0.2142854999999999,
            "durationTicks": 96,
            "midi": 49,
            "name": "C#3",
            "ticks": 768,
            "time": 1.7142840000000001,
            "velocity": 0.2440944881889764
          },
          {
            "duration": 0.2142854999999999,
            "durationTicks": 96,
            "midi": 53,
            "name": "F3",
            "ticks": 864,
            "time": 1.9285695,
            "velocity": 0.2440944881889764
          },
          {
            "duration": 0.21428550000000035,
            "durationTicks": 96,
            "midi": 59,
            "name": "B3",
            "ticks": 960,
            "time": 2.142855,
            "velocity": 0.2440944881889764
          },
          {
            "duration": 0.2142854999999999,
            "durationTicks": 96,
            "midi": 49,
            "name": "C#3",
            "ticks": 1056,
            "time": 2.3571405000000003,
            "velocity": 0.2440944881889764
          },
          {
            "duration": 0.2142854999999999,
            "durationTicks": 96,
            "midi": 53,
            "name": "F3",
            "ticks": 1152,
            "time": 2.571426,
            "velocity": 0.2440944881889764
          },
          {
            "duration": 0.21428550000000035,
            "durationTicks": 96,
            "midi": 59,
            "name": "B3",
            "ticks": 1248,
            "time": 2.7857115,
            "velocity": 0.2440944881889764
          },
          {
            "duration": 0.2142854999999999,
            "durationTicks": 96,
            "midi": 62,
            "name": "D4",
            "ticks": 1344,
            "time": 2.9999970000000005,
            "velocity": 0.2440944881889764
          },
          {
            "duration": 0.2142854999999999,
            "durationTicks": 96,
            "midi": 61,
            "name": "C#4",
            "ticks": 1440,
            "time": 3.2142825000000004,
            "velocity": 0.2440944881889764
          },
          {
            "duration": 0.2142854999999999,
            "durationTicks": 96,
            "midi": 54,
            "name": "F#3",
            "ticks": 1536,
            "time": 3.4285680000000003,
            "velocity": 0.2440944881889764
          },
          {
            "duration": 0.2142854999999999,
            "durationTicks": 96,
            "midi": 57,
            "name": "A3",
            "ticks": 1632,
            "time": 3.6428535,
            "velocity": 0.2440944881889764
          },
          {
            "duration": 0.2142854999999999,
            "durationTicks": 96,
            "midi": 64,
            "name": "E4",
            "ticks": 1728,
            "time": 3.857139,
            "velocity": 0.2440944881889764
          },
          {
            "duration": 0.2142854999999999,
            "durationTicks": 96,
            "midi": 54,
            "name": "F#3",
            "ticks": 1824,
            "time": 4.0714245,
            "velocity": 0.2440944881889764
          },
          {
            "duration": 0.2142855000000008,
            "durationTicks": 96,
            "midi": 57,
            "name": "A3",
            "ticks": 1920,
            "time": 4.28571,
            "velocity": 0.2440944881889764
          },
          {
            "duration": 0.2142854999999999,
            "durationTicks": 96,
            "midi": 64,
            "name": "E4",
            "ticks": 2016,
            "time": 4.499995500000001,
            "velocity": 0.2440944881889764
          },
          {
            "duration": 0.2142854999999999,
            "durationTicks": 96,
            "midi": 62,
            "name": "D4",
            "ticks": 2112,
            "time": 4.714281000000001,
            "velocity": 0.2440944881889764
          },
          {
            "duration": 0.2142854999999999,
            "durationTicks": 96,
            "midi": 61,
            "name": "C#4",
            "ticks": 2208,
            "time": 4.9285665000000005,
            "velocity": 0.2440944881889764
          },
          {
            "duration": 0.2142854999999999,
            "durationTicks": 96,
            "midi": 52,
            "name": "E3",
            "ticks": 2304,
            "time": 5.142852,
            "velocity": 0.2440944881889764
          },
          {
            "duration": 0.2142854999999999,
            "durationTicks": 96,
            "midi": 56,
            "name": "G#3",
            "ticks": 2400,
            "time": 5.3571375,
            "velocity": 0.2440944881889764
          },
          {
            "duration": 0.2142854999999999,
            "durationTicks": 96,
            "midi": 62,
            "name": "D4",
            "ticks": 2496,
            "time": 5.571423,
            "velocity": 0.2440944881889764
          },
          {
            "duration": 0.2142855000000008,
            "durationTicks": 96,
            "midi": 52,
            "name": "E3",
            "ticks": 2592,
            "time": 5.7857085,
            "velocity": 0.2440944881889764
          },
          {
            "duration": 0.2142854999999999,
            "durationTicks": 96,
            "midi": 62,
            "name": "D4",
            "ticks": 2688,
            "time": 5.999994000000001,
            "velocity": 0.2440944881889764
          },
          {
            "duration": 0.2142854999999999,
            "durationTicks": 96,
            "midi": 61,
            "name": "C#4",
            "ticks": 2784,
            "time": 6.214279500000001,
            "velocity": 0.2440944881889764
          },
          {
            "duration": 0.2142854999999999,
            "durationTicks": 96,
            "midi": 59,
            "name": "B3",
            "ticks": 2880,
            "time": 6.428565000000001,
            "velocity": 0.2440944881889764
          },
          {
            "duration": 0.2142854999999999,
            "durationTicks": 96,
            "midi": 61,
            "name": "C#4",
            "ticks": 2976,
            "time": 6.642850500000001,
            "velocity": 0.2440944881889764
          },
          {
            "duration": 0.2142854999999999,
            "durationTicks": 96,
            "midi": 50,
            "name": "D3",
            "ticks": 3072,
            "time": 6.857136000000001,
            "velocity": 0.2440944881889764
          },
          {
            "duration": 0.2142854999999999,
            "durationTicks": 96,
            "midi": 54,
            "name": "F#3",
            "ticks": 3168,
            "time": 7.0714215000000005,
            "velocity": 0.2440944881889764
          },
          {
            "duration": 0.2142854999999999,
            "durationTicks": 96,
            "midi": 61,
            "name": "C#4",
            "ticks": 3264,
            "time": 7.285707,
            "velocity": 0.2440944881889764
          },
          {
            "duration": 0.2142854999999999,
            "durationTicks": 96,
            "midi": 50,
            "name": "D3",
            "ticks": 3360,
            "time": 7.4999925,
            "velocity": 0.2440944881889764
          },
          {
            "duration": 0.2142855000000008,
            "durationTicks": 96,
            "midi": 54,
            "name": "F#3",
            "ticks": 3456,
            "time": 7.714278,
            "velocity": 0.2440944881889764
          },
          {
            "duration": 0.21428549999999902,
            "durationTicks": 96,
            "midi": 61,
            "name": "C#4",
            "ticks": 3552,
            "time": 7.928563500000001,
            "velocity": 0.2440944881889764
          },
          {
            "duration": 0.2142855000000008,
            "durationTicks": 96,
            "midi": 50,
            "name": "D3",
            "ticks": 3648,
            "time": 8.142849,
            "velocity": 0.2440944881889764
          },
          {
            "duration": 0.21428549999999902,
            "durationTicks": 96,
            "midi": 54,
            "name": "F#3",
            "ticks": 3744,
            "time": 8.3571345,
            "velocity": 0.2440944881889764
          },
          {
            "duration": 0.2142855000000008,
            "durationTicks": 96,
            "midi": 49,
            "name": "C#3",
            "ticks": 3840,
            "time": 8.57142,
            "velocity": 0.2440944881889764
          },
          {
            "duration": 0.2142855000000008,
            "durationTicks": 96,
            "midi": 53,
            "name": "F3",
            "ticks": 3936,
            "time": 8.7857055,
            "velocity": 0.2440944881889764
          },
          {
            "duration": 0.21428549999999902,
            "durationTicks": 96,
            "midi": 59,
            "name": "B3",
            "ticks": 4032,
            "time": 8.999991000000001,
            "velocity": 0.2440944881889764
          },
          {
            "duration": 0.2142855000000008,
            "durationTicks": 96,
            "midi": 49,
            "name": "C#3",
            "ticks": 4128,
            "time": 9.2142765,
            "velocity": 0.2440944881889764
          },
          {
            "duration": 0.21428549999999902,
            "durationTicks": 96,
            "midi": 53,
            "name": "F3",
            "ticks": 4224,
            "time": 9.428562000000001,
            "velocity": 0.2440944881889764
          },
          {
            "duration": 0.2142855000000008,
            "durationTicks": 96,
            "midi": 59,
            "name": "B3",
            "ticks": 4320,
            "time": 9.6428475,
            "velocity": 0.2440944881889764
          },
          {
            "duration": 0.21428549999999902,
            "durationTicks": 96,
            "midi": 62,
            "name": "D4",
            "ticks": 4416,
            "time": 9.857133000000001,
            "velocity": 0.2440944881889764
          },
          {
            "duration": 0.2142855000000008,
            "durationTicks": 96,
            "midi": 61,
            "name": "C#4",
            "ticks": 4512,
            "time": 10.0714185,
            "velocity": 0.2440944881889764
          },
          {
            "duration": 0.2142855000000008,
            "durationTicks": 96,
            "midi": 54,
            "name": "F#3",
            "ticks": 4608,
            "time": 10.285704,
            "velocity": 0.2440944881889764
          },
          {
            "duration": 0.21428549999999902,
            "durationTicks": 96,
            "midi": 57,
            "name": "A3",
            "ticks": 4704,
            "time": 10.499989500000002,
            "velocity": 0.2440944881889764
          },
          {
            "duration": 0.2142855000000008,
            "durationTicks": 96,
            "midi": 64,
            "name": "E4",
            "ticks": 4800,
            "time": 10.714275,
            "velocity": 0.2440944881889764
          },
          {
            "duration": 0.21428549999999902,
            "durationTicks": 96,
            "midi": 54,
            "name": "F#3",
            "ticks": 4896,
            "time": 10.928560500000001,
            "velocity": 0.2440944881889764
          },
          {
            "duration": 0.2142855000000008,
            "durationTicks": 96,
            "midi": 57,
            "name": "A3",
            "ticks": 4992,
            "time": 11.142846,
            "velocity": 0.2440944881889764
          },
          {
            "duration": 0.21428549999999902,
            "durationTicks": 96,
            "midi": 64,
            "name": "E4",
            "ticks": 5088,
            "time": 11.357131500000001,
            "velocity": 0.2440944881889764
          },
          {
            "duration": 0.2142855000000008,
            "durationTicks": 96,
            "midi": 62,
            "name": "D4",
            "ticks": 5184,
            "time": 11.571417,
            "velocity": 0.2440944881889764
          },
          {
            "duration": 0.2142855000000008,
            "durationTicks": 96,
            "midi": 61,
            "name": "C#4",
            "ticks": 5280,
            "time": 11.785702500000001,
            "velocity": 0.2440944881889764
          },
          {
            "duration": 0.21428549999999902,
            "durationTicks": 96,
            "midi": 52,
            "name": "E3",
            "ticks": 5376,
            "time": 11.999988000000002,
            "velocity": 0.2440944881889764
          },
          {
            "duration": 0.2142855000000008,
            "durationTicks": 96,
            "midi": 56,
            "name": "G#3",
            "ticks": 5472,
            "time": 12.214273500000001,
            "velocity": 0.2440944881889764
          },
          {
            "duration": 0.21428549999999902,
            "durationTicks": 96,
            "midi": 62,
            "name": "D4",
            "ticks": 5568,
            "time": 12.428559000000002,
            "velocity": 0.2440944881889764
          },
          {
            "duration": 0.2142855000000008,
            "durationTicks": 96,
            "midi": 52,
            "name": "E3",
            "ticks": 5664,
            "time": 12.6428445,
            "velocity": 0.2440944881889764
          },
          {
            "duration": 0.21428549999999902,
            "durationTicks": 96,
            "midi": 62,
            "name": "D4",
            "ticks": 5760,
            "time": 12.857130000000002,
            "velocity": 0.2440944881889764
          },
          {
            "duration": 0.2142855000000008,
            "durationTicks": 96,
            "midi": 61,
            "name": "C#4",
            "ticks": 5856,
            "time": 13.0714155,
            "velocity": 0.2440944881889764
          },
          {
            "duration": 0.21428549999999902,
            "durationTicks": 96,
            "midi": 59,
            "name": "B3",
            "ticks": 5952,
            "time": 13.285701000000001,
            "velocity": 0.2440944881889764
          },
          {
            "duration": 0.2142855000000008,
            "durationTicks": 96,
            "midi": 61,
            "name": "C#4",
            "ticks": 6048,
            "time": 13.4999865,
            "velocity": 0.2440944881889764
          },
          {
            "duration": 0.2142855000000008,
            "durationTicks": 96,
            "midi": 50,
            "name": "D3",
            "ticks": 6144,
            "time": 13.714272000000001,
            "velocity": 0.2440944881889764
          },
          {
            "duration": 0.21428549999999902,
            "durationTicks": 96,
            "midi": 54,
            "name": "F#3",
            "ticks": 6240,
            "time": 13.928557500000002,
            "velocity": 0.2440944881889764
          },
          {
            "duration": 0.2142855000000008,
            "durationTicks": 96,
            "midi": 61,
            "name": "C#4",
            "ticks": 6336,
            "time": 14.142843000000001,
            "velocity": 0.2440944881889764
          },
          {
            "duration": 0.21428549999999902,
            "durationTicks": 96,
            "midi": 50,
            "name": "D3",
            "ticks": 6432,
            "time": 14.357128500000002,
            "velocity": 0.2440944881889764
          },
          {
            "duration": 0.2142855000000008,
            "durationTicks": 96,
            "midi": 54,
            "name": "F#3",
            "ticks": 6528,
            "time": 14.571414,
            "velocity": 0.2440944881889764
          },
          {
            "duration": 0.21428549999999902,
            "durationTicks": 96,
            "midi": 61,
            "name": "C#4",
            "ticks": 6624,
            "time": 14.785699500000002,
            "velocity": 0.2440944881889764
          },
          {
            "duration": 0.2142855000000008,
            "durationTicks": 96,
            "midi": 50,
            "name": "D3",
            "ticks": 6720,
            "time": 14.999985,
            "velocity": 0.2440944881889764
          },
          {
            "duration": 0.21428549999999902,
            "durationTicks": 96,
            "midi": 54,
            "name": "F#3",
            "ticks": 6816,
            "time": 15.214270500000001,
            "velocity": 0.2440944881889764
          },
          {
            "duration": 0.2142855000000008,
            "durationTicks": 96,
            "midi": 49,
            "name": "C#3",
            "ticks": 6912,
            "time": 15.428556,
            "velocity": 0.2440944881889764
          },
          {
            "duration": 0.2142855000000008,
            "durationTicks": 96,
            "midi": 53,
            "name": "F3",
            "ticks": 7008,
            "time": 15.642841500000001,
            "velocity": 0.2440944881889764
          },
          {
            "duration": 0.21428549999999902,
            "durationTicks": 96,
            "midi": 59,
            "name": "B3",
            "ticks": 7104,
            "time": 15.857127000000002,
            "velocity": 0.2440944881889764
          },
          {
            "duration": 0.21428549999999902,
            "durationTicks": 96,
            "midi": 49,
            "name": "C#3",
            "ticks": 7200,
            "time": 16.0714125,
            "velocity": 0.2440944881889764
          },
          {
            "duration": 0.21428550000000257,
            "durationTicks": 96,
            "midi": 53,
            "name": "F3",
            "ticks": 7296,
            "time": 16.285698,
            "velocity": 0.2440944881889764
          },
          {
            "duration": 0.21428549999999902,
            "durationTicks": 96,
            "midi": 59,
            "name": "B3",
            "ticks": 7392,
            "time": 16.499983500000003,
            "velocity": 0.2440944881889764
          },
          {
            "duration": 0.21428549999999902,
            "durationTicks": 96,
            "midi": 62,
            "name": "D4",
            "ticks": 7488,
            "time": 16.714269,
            "velocity": 0.2440944881889764
          },
          {
            "duration": 0.21428549999999902,
            "durationTicks": 96,
            "midi": 61,
            "name": "C#4",
            "ticks": 7584,
            "time": 16.9285545,
            "velocity": 0.2440944881889764
          },
          {
            "duration": 0.21428550000000257,
            "durationTicks": 96,
            "midi": 54,
            "name": "F#3",
            "ticks": 7680,
            "time": 17.14284,
            "velocity": 0.2440944881889764
          },
          {
            "duration": 0.21428549999999902,
            "durationTicks": 96,
            "midi": 57,
            "name": "A3",
            "ticks": 7776,
            "time": 17.357125500000002,
            "velocity": 0.2440944881889764
          },
          {
            "duration": 0.21428549999999902,
            "durationTicks": 96,
            "midi": 64,
            "name": "E4",
            "ticks": 7872,
            "time": 17.571411,
            "velocity": 0.2440944881889764
          },
          {
            "duration": 0.21428550000000257,
            "durationTicks": 96,
            "midi": 54,
            "name": "F#3",
            "ticks": 7968,
            "time": 17.7856965,
            "velocity": 0.2440944881889764
          },
          {
            "duration": 0.21428549999999902,
            "durationTicks": 96,
            "midi": 57,
            "name": "A3",
            "ticks": 8064,
            "time": 17.999982000000003,
            "velocity": 0.2440944881889764
          },
          {
            "duration": 0.21428549999999902,
            "durationTicks": 96,
            "midi": 64,
            "name": "E4",
            "ticks": 8160,
            "time": 18.214267500000002,
            "velocity": 0.2440944881889764
          },
          {
            "duration": 0.21428549999999902,
            "durationTicks": 96,
            "midi": 62,
            "name": "D4",
            "ticks": 8256,
            "time": 18.428553,
            "velocity": 0.2440944881889764
          },
          {
            "duration": 0.21428550000000257,
            "durationTicks": 96,
            "midi": 61,
            "name": "C#4",
            "ticks": 8352,
            "time": 18.6428385,
            "velocity": 0.2440944881889764
          },
          {
            "duration": 0.21428549999999902,
            "durationTicks": 96,
            "midi": 52,
            "name": "E3",
            "ticks": 8448,
            "time": 18.857124000000002,
            "velocity": 0.2440944881889764
          },
          {
            "duration": 0.21428549999999902,
            "durationTicks": 96,
            "midi": 56,
            "name": "G#3",
            "ticks": 8544,
            "time": 19.0714095,
            "velocity": 0.2440944881889764
          },
          {
            "duration": 0.21428550000000257,
            "durationTicks": 96,
            "midi": 62,
            "name": "D4",
            "ticks": 8640,
            "time": 19.285695,
            "velocity": 0.2440944881889764
          },
          {
            "duration": 0.21428549999999902,
            "durationTicks": 96,
            "midi": 52,
            "name": "E3",
            "ticks": 8736,
            "time": 19.499980500000003,
            "velocity": 0.2440944881889764
          },
          {
            "duration": 0.21428549999999902,
            "durationTicks": 96,
            "midi": 62,
            "name": "D4",
            "ticks": 8832,
            "time": 19.714266000000002,
            "velocity": 0.2440944881889764
          },
          {
            "duration": 0.21428549999999902,
            "durationTicks": 96,
            "midi": 61,
            "name": "C#4",
            "ticks": 8928,
            "time": 19.9285515,
            "velocity": 0.2440944881889764
          },
          {
            "duration": 0.21428550000000257,
            "durationTicks": 96,
            "midi": 59,
            "name": "B3",
            "ticks": 9024,
            "time": 20.142837,
            "velocity": 0.2440944881889764
          },
          {
            "duration": 0.21428549999999902,
            "durationTicks": 96,
            "midi": 61,
            "name": "C#4",
            "ticks": 9120,
            "time": 20.357122500000003,
            "velocity": 0.2440944881889764
          },
          {
            "duration": 0.21428549999999902,
            "durationTicks": 96,
            "midi": 50,
            "name": "D3",
            "ticks": 9216,
            "time": 20.571408,
            "velocity": 0.2440944881889764
          },
          {
            "duration": 0.21428550000000257,
            "durationTicks": 96,
            "midi": 54,
            "name": "F#3",
            "ticks": 9312,
            "time": 20.7856935,
            "velocity": 0.2440944881889764
          },
          {
            "duration": 0.21428549999999902,
            "durationTicks": 96,
            "midi": 61,
            "name": "C#4",
            "ticks": 9408,
            "time": 20.999979000000003,
            "velocity": 0.2440944881889764
          },
          {
            "duration": 0.21428549999999902,
            "durationTicks": 96,
            "midi": 50,
            "name": "D3",
            "ticks": 9504,
            "time": 21.214264500000002,
            "velocity": 0.2440944881889764
          },
          {
            "duration": 0.21428549999999902,
            "durationTicks": 96,
            "midi": 54,
            "name": "F#3",
            "ticks": 9600,
            "time": 21.42855,
            "velocity": 0.2440944881889764
          },
          {
            "duration": 0.21428550000000257,
            "durationTicks": 96,
            "midi": 61,
            "name": "C#4",
            "ticks": 9696,
            "time": 21.6428355,
            "velocity": 0.2440944881889764
          },
          {
            "duration": 0.21428549999999902,
            "durationTicks": 96,
            "midi": 50,
            "name": "D3",
            "ticks": 9792,
            "time": 21.857121000000003,
            "velocity": 0.2440944881889764
          },
          {
            "duration": 0.21428549999999902,
            "durationTicks": 96,
            "midi": 54,
            "name": "F#3",
            "ticks": 9888,
            "time": 22.071406500000002,
            "velocity": 0.2440944881889764
          },
          {
            "duration": 0.21428550000000257,
            "durationTicks": 96,
            "midi": 49,
            "name": "C#3",
            "ticks": 9984,
            "time": 22.285692,
            "velocity": 0.2440944881889764
          },
          {
            "duration": 0.21428549999999902,
            "durationTicks": 96,
            "midi": 53,
            "name": "F3",
            "ticks": 10080,
            "time": 22.499977500000004,
            "velocity": 0.2440944881889764
          },
          {
            "duration": 0.21428549999999902,
            "durationTicks": 96,
            "midi": 59,
            "name": "B3",
            "ticks": 10176,
            "time": 22.714263000000003,
            "velocity": 0.2440944881889764
          },
          {
            "duration": 0.21428549999999902,
            "durationTicks": 96,
            "midi": 49,
            "name": "C#3",
            "ticks": 10272,
            "time": 22.9285485,
            "velocity": 0.2440944881889764
          },
          {
            "duration": 0.21428550000000257,
            "durationTicks": 96,
            "midi": 53,
            "name": "F3",
            "ticks": 10368,
            "time": 23.142834,
            "velocity": 0.2440944881889764
          },
          {
            "duration": 0.21428549999999902,
            "durationTicks": 96,
            "midi": 59,
            "name": "B3",
            "ticks": 10464,
            "time": 23.357119500000003,
            "velocity": 0.2440944881889764
          },
          {
            "duration": 0.21428549999999902,
            "durationTicks": 96,
            "midi": 62,
            "name": "D4",
            "ticks": 10560,
            "time": 23.571405000000002,
            "velocity": 0.2440944881889764
          },
          {
            "duration": 0.21428550000000257,
            "durationTicks": 96,
            "midi": 61,
            "name": "C#4",
            "ticks": 10656,
            "time": 23.7856905,
            "velocity": 0.2440944881889764
          },
          {
            "duration": 0.21428549999999902,
            "durationTicks": 96,
            "midi": 54,
            "name": "F#3",
            "ticks": 10752,
            "time": 23.999976000000004,
            "velocity": 0.2440944881889764
          },
          {
            "duration": 0.21428549999999902,
            "durationTicks": 96,
            "midi": 57,
            "name": "A3",
            "ticks": 10848,
            "time": 24.214261500000003,
            "velocity": 0.2440944881889764
          },
          {
            "duration": 0.21428549999999902,
            "durationTicks": 96,
            "midi": 64,
            "name": "E4",
            "ticks": 10944,
            "time": 24.428547000000002,
            "velocity": 0.2440944881889764
          },
          {
            "duration": 0.21428550000000257,
            "durationTicks": 96,
            "midi": 54,
            "name": "F#3",
            "ticks": 11040,
            "time": 24.6428325,
            "velocity": 0.2440944881889764
          },
          {
            "duration": 0.21428549999999902,
            "durationTicks": 96,
            "midi": 57,
            "name": "A3",
            "ticks": 11136,
            "time": 24.857118000000003,
            "velocity": 0.2440944881889764
          },
          {
            "duration": 0.21428549999999902,
            "durationTicks": 96,
            "midi": 64,
            "name": "E4",
            "ticks": 11232,
            "time": 25.071403500000002,
            "velocity": 0.2440944881889764
          },
          {
            "duration": 0.21428549999999902,
            "durationTicks": 96,
            "midi": 62,
            "name": "D4",
            "ticks": 11328,
            "time": 25.285689,
            "velocity": 0.2440944881889764
          },
          {
            "duration": 0.21428550000000257,
            "durationTicks": 96,
            "midi": 61,
            "name": "C#4",
            "ticks": 11424,
            "time": 25.4999745,
            "velocity": 0.2440944881889764
          },
          {
            "duration": 0.21428549999999902,
            "durationTicks": 96,
            "midi": 52,
            "name": "E3",
            "ticks": 11520,
            "time": 25.714260000000003,
            "velocity": 0.2440944881889764
          },
          {
            "duration": 0.21428549999999902,
            "durationTicks": 96,
            "midi": 56,
            "name": "G#3",
            "ticks": 11616,
            "time": 25.928545500000002,
            "velocity": 0.2440944881889764
          },
          {
            "duration": 0.21428550000000257,
            "durationTicks": 96,
            "midi": 62,
            "name": "D4",
            "ticks": 11712,
            "time": 26.142831,
            "velocity": 0.2440944881889764
          },
          {
            "duration": 0.21428549999999902,
            "durationTicks": 96,
            "midi": 52,
            "name": "E3",
            "ticks": 11808,
            "time": 26.357116500000004,
            "velocity": 0.2440944881889764
          },
          {
            "duration": 0.21428549999999902,
            "durationTicks": 96,
            "midi": 62,
            "name": "D4",
            "ticks": 11904,
            "time": 26.571402000000003,
            "velocity": 0.2440944881889764
          },
          {
            "duration": 0.21428549999999902,
            "durationTicks": 96,
            "midi": 61,
            "name": "C#4",
            "ticks": 12000,
            "time": 26.7856875,
            "velocity": 0.2440944881889764
          },
          {
            "duration": 0.21428550000000257,
            "durationTicks": 96,
            "midi": 59,
            "name": "B3",
            "ticks": 12096,
            "time": 26.999973,
            "velocity": 0.2440944881889764
          },
          {
            "duration": 0.21428549999999902,
            "durationTicks": 96,
            "midi": 61,
            "name": "C#4",
            "ticks": 12192,
            "time": 27.214258500000003,
            "velocity": 0.2440944881889764
          },
          {
            "duration": 0.21428549999999902,
            "durationTicks": 96,
            "midi": 50,
            "name": "D3",
            "ticks": 12288,
            "time": 27.428544000000002,
            "velocity": 0.2440944881889764
          },
          {
            "duration": 0.21428550000000257,
            "durationTicks": 96,
            "midi": 54,
            "name": "F#3",
            "ticks": 12384,
            "time": 27.6428295,
            "velocity": 0.2440944881889764
          },
          {
            "duration": 0.21428549999999902,
            "durationTicks": 96,
            "midi": 61,
            "name": "C#4",
            "ticks": 12480,
            "time": 27.857115000000004,
            "velocity": 0.2440944881889764
          },
          {
            "duration": 0.21428549999999902,
            "durationTicks": 96,
            "midi": 50,
            "name": "D3",
            "ticks": 12576,
            "time": 28.071400500000003,
            "velocity": 0.2440944881889764
          },
          {
            "duration": 0.21428549999999902,
            "durationTicks": 96,
            "midi": 54,
            "name": "F#3",
            "ticks": 12672,
            "time": 28.285686000000002,
            "velocity": 0.2440944881889764
          },
          {
            "duration": 0.21428550000000257,
            "durationTicks": 96,
            "midi": 61,
            "name": "C#4",
            "ticks": 12768,
            "time": 28.4999715,
            "velocity": 0.2440944881889764
          },
          {
            "duration": 0.21428549999999902,
            "durationTicks": 96,
            "midi": 50,
            "name": "D3",
            "ticks": 12864,
            "time": 28.714257000000003,
            "velocity": 0.2440944881889764
          },
          {
            "duration": 0.21428549999999902,
            "durationTicks": 96,
            "midi": 54,
            "name": "F#3",
            "ticks": 12960,
            "time": 28.928542500000002,
            "velocity": 0.2440944881889764
          },
          {
            "duration": 0.21428550000000257,
            "durationTicks": 96,
            "midi": 49,
            "name": "C#3",
            "ticks": 13056,
            "time": 29.142828,
            "velocity": 0.2440944881889764
          },
          {
            "duration": 0.21428549999999902,
            "durationTicks": 96,
            "midi": 53,
            "name": "F3",
            "ticks": 13152,
            "time": 29.357113500000004,
            "velocity": 0.2440944881889764
          },
          {
            "duration": 0.21428549999999902,
            "durationTicks": 96,
            "midi": 59,
            "name": "B3",
            "ticks": 13248,
            "time": 29.571399000000003,
            "velocity": 0.2440944881889764
          },
          {
            "duration": 0.21428549999999902,
            "durationTicks": 96,
            "midi": 49,
            "name": "C#3",
            "ticks": 13344,
            "time": 29.785684500000002,
            "velocity": 0.2440944881889764
          },
          {
            "duration": 0.21428550000000257,
            "durationTicks": 96,
            "midi": 53,
            "name": "F3",
            "ticks": 13440,
            "time": 29.99997,
            "velocity": 0.2440944881889764
          },
          {
            "duration": 0.21428549999999902,
            "durationTicks": 96,
            "midi": 59,
            "name": "B3",
            "ticks": 13536,
            "time": 30.214255500000004,
            "velocity": 0.2440944881889764
          },
          {
            "duration": 0.21428549999999902,
            "durationTicks": 96,
            "midi": 62,
            "name": "D4",
            "ticks": 13632,
            "time": 30.428541000000003,
            "velocity": 0.2440944881889764
          },
          {
            "duration": 0.21428549999999902,
            "durationTicks": 96,
            "midi": 61,
            "name": "C#4",
            "ticks": 13728,
            "time": 30.6428265,
            "velocity": 0.2440944881889764
          },
          {
            "duration": 0.21428550000000257,
            "durationTicks": 96,
            "midi": 54,
            "name": "F#3",
            "ticks": 13824,
            "time": 30.857112,
            "velocity": 0.2440944881889764
          },
          {
            "duration": 0.21428549999999902,
            "durationTicks": 96,
            "midi": 57,
            "name": "A3",
            "ticks": 13920,
            "time": 31.071397500000003,
            "velocity": 0.2440944881889764
          },
          {
            "duration": 0.21428549999999902,
            "durationTicks": 96,
            "midi": 64,
            "name": "E4",
            "ticks": 14016,
            "time": 31.285683000000002,
            "velocity": 0.2440944881889764
          },
          {
            "duration": 0.21428550000000257,
            "durationTicks": 96,
            "midi": 54,
            "name": "F#3",
            "ticks": 14112,
            "time": 31.4999685,
            "velocity": 0.2440944881889764
          },
          {
            "duration": 0.21428549999999902,
            "durationTicks": 96,
            "midi": 57,
            "name": "A3",
            "ticks": 14208,
            "time": 31.714254000000004,
            "velocity": 0.2440944881889764
          },
          {
            "duration": 0.21428549999999902,
            "durationTicks": 96,
            "midi": 64,
            "name": "E4",
            "ticks": 14304,
            "time": 31.928539500000003,
            "velocity": 0.2440944881889764
          },
          {
            "duration": 0.21428550000000257,
            "durationTicks": 96,
            "midi": 62,
            "name": "D4",
            "ticks": 14400,
            "time": 32.142825,
            "velocity": 0.2440944881889764
          },
          {
            "duration": 0.21428549999999547,
            "durationTicks": 96,
            "midi": 61,
            "name": "C#4",
            "ticks": 14496,
            "time": 32.357110500000005,
            "velocity": 0.2440944881889764
          },
          {
            "duration": 0.21428550000000257,
            "durationTicks": 96,
            "midi": 52,
            "name": "E3",
            "ticks": 14592,
            "time": 32.571396,
            "velocity": 0.2440944881889764
          },
          {
            "duration": 0.21428550000000257,
            "durationTicks": 96,
            "midi": 56,
            "name": "G#3",
            "ticks": 14688,
            "time": 32.7856815,
            "velocity": 0.2440944881889764
          },
          {
            "duration": 0.21428549999999547,
            "durationTicks": 96,
            "midi": 62,
            "name": "D4",
            "ticks": 14784,
            "time": 32.999967000000005,
            "velocity": 0.2440944881889764
          },
          {
            "duration": 0.21428550000000257,
            "durationTicks": 96,
            "midi": 52,
            "name": "E3",
            "ticks": 14880,
            "time": 33.2142525,
            "velocity": 0.2440944881889764
          },
          {
            "duration": 0.21428550000000257,
            "durationTicks": 96,
            "midi": 62,
            "name": "D4",
            "ticks": 14976,
            "time": 33.428538,
            "velocity": 0.2440944881889764
          },
          {
            "duration": 0.21428549999999547,
            "durationTicks": 96,
            "midi": 61,
            "name": "C#4",
            "ticks": 15072,
            "time": 33.642823500000006,
            "velocity": 0.2440944881889764
          },
          {
            "duration": 0.21428550000000257,
            "durationTicks": 96,
            "midi": 59,
            "name": "B3",
            "ticks": 15168,
            "time": 33.857109,
            "velocity": 0.2440944881889764
          },
          {
            "duration": 0.21428549999999547,
            "durationTicks": 96,
            "midi": 61,
            "name": "C#4",
            "ticks": 15264,
            "time": 34.071394500000004,
            "velocity": 0.2440944881889764
          },
          {
            "duration": 0.21428550000000257,
            "durationTicks": 96,
            "midi": 50,
            "name": "D3",
            "ticks": 15360,
            "time": 34.28568,
            "velocity": 0.2440944881889764
          },
          {
            "duration": 0.21428550000000257,
            "durationTicks": 96,
            "midi": 54,
            "name": "F#3",
            "ticks": 15456,
            "time": 34.4999655,
            "velocity": 0.2440944881889764
          },
          {
            "duration": 0.21428549999999547,
            "durationTicks": 96,
            "midi": 61,
            "name": "C#4",
            "ticks": 15552,
            "time": 34.714251000000004,
            "velocity": 0.2440944881889764
          },
          {
            "duration": 0.21428550000000257,
            "durationTicks": 96,
            "midi": 50,
            "name": "D3",
            "ticks": 15648,
            "time": 34.9285365,
            "velocity": 0.2440944881889764
          },
          {
            "duration": 0.21428550000000257,
            "durationTicks": 96,
            "midi": 54,
            "name": "F#3",
            "ticks": 15744,
            "time": 35.142822,
            "velocity": 0.2440944881889764
          },
          {
            "duration": 0.21428549999999547,
            "durationTicks": 96,
            "midi": 61,
            "name": "C#4",
            "ticks": 15840,
            "time": 35.357107500000005,
            "velocity": 0.2440944881889764
          },
          {
            "duration": 0.21428550000000257,
            "durationTicks": 96,
            "midi": 50,
            "name": "D3",
            "ticks": 15936,
            "time": 35.571393,
            "velocity": 0.2440944881889764
          },
          {
            "duration": 0.21428550000000257,
            "durationTicks": 96,
            "midi": 54,
            "name": "F#3",
            "ticks": 16032,
            "time": 35.7856785,
            "velocity": 0.2440944881889764
          },
          {
            "duration": 0.21428549999999547,
            "durationTicks": 96,
            "midi": 49,
            "name": "C#3",
            "ticks": 16128,
            "time": 35.999964000000006,
            "velocity": 0.2440944881889764
          },
          {
            "duration": 0.21428550000000257,
            "durationTicks": 96,
            "midi": 53,
            "name": "F3",
            "ticks": 16224,
            "time": 36.2142495,
            "velocity": 0.2440944881889764
          },
          {
            "duration": 0.21428550000000257,
            "durationTicks": 96,
            "midi": 59,
            "name": "B3",
            "ticks": 16320,
            "time": 36.428535000000004,
            "velocity": 0.2440944881889764
          },
          {
            "duration": 0.21428549999999547,
            "durationTicks": 96,
            "midi": 49,
            "name": "C#3",
            "ticks": 16416,
            "time": 36.642820500000006,
            "velocity": 0.2440944881889764
          },
          {
            "duration": 0.21428550000000257,
            "durationTicks": 96,
            "midi": 53,
            "name": "F3",
            "ticks": 16512,
            "time": 36.857106,
            "velocity": 0.2440944881889764
          },
          {
            "duration": 0.21428549999999547,
            "durationTicks": 96,
            "midi": 59,
            "name": "B3",
            "ticks": 16608,
            "time": 37.071391500000004,
            "velocity": 0.2440944881889764
          },
          {
            "duration": 0.21428550000000257,
            "durationTicks": 96,
            "midi": 62,
            "name": "D4",
            "ticks": 16704,
            "time": 37.285677,
            "velocity": 0.2440944881889764
          },
          {
            "duration": 0.21428550000000257,
            "durationTicks": 96,
            "midi": 61,
            "name": "C#4",
            "ticks": 16800,
            "time": 37.4999625,
            "velocity": 0.2440944881889764
          },
          {
            "duration": 0.21428549999999547,
            "durationTicks": 96,
            "midi": 54,
            "name": "F#3",
            "ticks": 16896,
            "time": 37.714248000000005,
            "velocity": 0.2440944881889764
          },
          {
            "duration": 0.21428550000000257,
            "durationTicks": 96,
            "midi": 57,
            "name": "A3",
            "ticks": 16992,
            "time": 37.9285335,
            "velocity": 0.2440944881889764
          },
          {
            "duration": 0.21428550000000257,
            "durationTicks": 96,
            "midi": 64,
            "name": "E4",
            "ticks": 17088,
            "time": 38.142819,
            "velocity": 0.2440944881889764
          },
          {
            "duration": 0.21428549999999547,
            "durationTicks": 96,
            "midi": 54,
            "name": "F#3",
            "ticks": 17184,
            "time": 38.357104500000005,
            "velocity": 0.2440944881889764
          },
          {
            "duration": 0.21428550000000257,
            "durationTicks": 96,
            "midi": 57,
            "name": "A3",
            "ticks": 17280,
            "time": 38.57139,
            "velocity": 0.2440944881889764
          },
          {
            "duration": 0.21428550000000257,
            "durationTicks": 96,
            "midi": 64,
            "name": "E4",
            "ticks": 17376,
            "time": 38.7856755,
            "velocity": 0.2440944881889764
          },
          {
            "duration": 0.21428549999999547,
            "durationTicks": 96,
            "midi": 62,
            "name": "D4",
            "ticks": 17472,
            "time": 38.999961000000006,
            "velocity": 0.2440944881889764
          },
          {
            "duration": 0.21428550000000257,
            "durationTicks": 96,
            "midi": 61,
            "name": "C#4",
            "ticks": 17568,
            "time": 39.2142465,
            "velocity": 0.2440944881889764
          },
          {
            "duration": 0.21428550000000257,
            "durationTicks": 96,
            "midi": 52,
            "name": "E3",
            "ticks": 17664,
            "time": 39.428532000000004,
            "velocity": 0.2440944881889764
          },
          {
            "duration": 0.21428549999999547,
            "durationTicks": 96,
            "midi": 56,
            "name": "G#3",
            "ticks": 17760,
            "time": 39.64281750000001,
            "velocity": 0.2440944881889764
          },
          {
            "duration": 0.21428550000000257,
            "durationTicks": 96,
            "midi": 62,
            "name": "D4",
            "ticks": 17856,
            "time": 39.857103,
            "velocity": 0.2440944881889764
          },
          {
            "duration": 0.21428549999999547,
            "durationTicks": 96,
            "midi": 52,
            "name": "E3",
            "ticks": 17952,
            "time": 40.071388500000005,
            "velocity": 0.2440944881889764
          },
          {
            "duration": 0.21428550000000257,
            "durationTicks": 96,
            "midi": 62,
            "name": "D4",
            "ticks": 18048,
            "time": 40.285674,
            "velocity": 0.2440944881889764
          },
          {
            "duration": 0.21428550000000257,
            "durationTicks": 96,
            "midi": 61,
            "name": "C#4",
            "ticks": 18144,
            "time": 40.4999595,
            "velocity": 0.2440944881889764
          },
          {
            "duration": 0.21428549999999547,
            "durationTicks": 96,
            "midi": 59,
            "name": "B3",
            "ticks": 18240,
            "time": 40.714245000000005,
            "velocity": 0.2440944881889764
          },
          {
            "duration": 0.21428550000000257,
            "durationTicks": 96,
            "midi": 61,
            "name": "C#4",
            "ticks": 18336,
            "time": 40.9285305,
            "velocity": 0.2440944881889764
          },
          {
            "duration": 0.21428550000000257,
            "durationTicks": 96,
            "midi": 50,
            "name": "D3",
            "ticks": 18432,
            "time": 41.142816,
            "velocity": 0.2440944881889764
          },
          {
            "duration": 0.21428549999999547,
            "durationTicks": 96,
            "midi": 54,
            "name": "F#3",
            "ticks": 18528,
            "time": 41.357101500000006,
            "velocity": 0.2440944881889764
          },
          {
            "duration": 0.21428550000000257,
            "durationTicks": 96,
            "midi": 61,
            "name": "C#4",
            "ticks": 18624,
            "time": 41.571387,
            "velocity": 0.2440944881889764
          },
          {
            "duration": 0.21428550000000257,
            "durationTicks": 96,
            "midi": 50,
            "name": "D3",
            "ticks": 18720,
            "time": 41.785672500000004,
            "velocity": 0.2440944881889764
          },
          {
            "duration": 0.21428549999999547,
            "durationTicks": 96,
            "midi": 54,
            "name": "F#3",
            "ticks": 18816,
            "time": 41.99995800000001,
            "velocity": 0.2440944881889764
          },
          {
            "duration": 0.21428550000000257,
            "durationTicks": 96,
            "midi": 61,
            "name": "C#4",
            "ticks": 18912,
            "time": 42.2142435,
            "velocity": 0.2440944881889764
          },
          {
            "duration": 0.21428549999999547,
            "durationTicks": 96,
            "midi": 50,
            "name": "D3",
            "ticks": 19008,
            "time": 42.428529000000005,
            "velocity": 0.2440944881889764
          },
          {
            "duration": 0.21428550000000257,
            "durationTicks": 96,
            "midi": 54,
            "name": "F#3",
            "ticks": 19104,
            "time": 42.6428145,
            "velocity": 0.2440944881889764
          },
          {
            "duration": 0.21428550000000257,
            "durationTicks": 96,
            "midi": 49,
            "name": "C#3",
            "ticks": 19200,
            "time": 42.8571,
            "velocity": 0.2440944881889764
          },
          {
            "duration": 0.21428549999999547,
            "durationTicks": 96,
            "midi": 53,
            "name": "F3",
            "ticks": 19296,
            "time": 43.071385500000005,
            "velocity": 0.2440944881889764
          },
          {
            "duration": 0.21428550000000257,
            "durationTicks": 96,
            "midi": 59,
            "name": "B3",
            "ticks": 19392,
            "time": 43.285671,
            "velocity": 0.2440944881889764
          },
          {
            "duration": 0.21428550000000257,
            "durationTicks": 96,
            "midi": 49,
            "name": "C#3",
            "ticks": 19488,
            "time": 43.4999565,
            "velocity": 0.2440944881889764
          },
          {
            "duration": 0.21428549999999547,
            "durationTicks": 96,
            "midi": 53,
            "name": "F3",
            "ticks": 19584,
            "time": 43.714242000000006,
            "velocity": 0.2440944881889764
          },
          {
            "duration": 0.21428550000000257,
            "durationTicks": 96,
            "midi": 59,
            "name": "B3",
            "ticks": 19680,
            "time": 43.9285275,
            "velocity": 0.2440944881889764
          },
          {
            "duration": 0.21428550000000257,
            "durationTicks": 96,
            "midi": 62,
            "name": "D4",
            "ticks": 19776,
            "time": 44.142813000000004,
            "velocity": 0.2440944881889764
          },
          {
            "duration": 0.21428549999999547,
            "durationTicks": 96,
            "midi": 61,
            "name": "C#4",
            "ticks": 19872,
            "time": 44.357098500000006,
            "velocity": 0.2440944881889764
          },
          {
            "duration": 0.21428550000000257,
            "durationTicks": 96,
            "midi": 54,
            "name": "F#3",
            "ticks": 19968,
            "time": 44.571384,
            "velocity": 0.2440944881889764
          },
          {
            "duration": 0.21428550000000257,
            "durationTicks": 96,
            "midi": 57,
            "name": "A3",
            "ticks": 20064,
            "time": 44.785669500000004,
            "velocity": 0.2440944881889764
          },
          {
            "duration": 0.21428549999999547,
            "durationTicks": 96,
            "midi": 64,
            "name": "E4",
            "ticks": 20160,
            "time": 44.99995500000001,
            "velocity": 0.2440944881889764
          },
          {
            "duration": 0.21428550000000257,
            "durationTicks": 96,
            "midi": 54,
            "name": "F#3",
            "ticks": 20256,
            "time": 45.2142405,
            "velocity": 0.2440944881889764
          },
          {
            "duration": 0.21428549999999547,
            "durationTicks": 96,
            "midi": 57,
            "name": "A3",
            "ticks": 20352,
            "time": 45.428526000000005,
            "velocity": 0.2440944881889764
          },
          {
            "duration": 0.21428550000000257,
            "durationTicks": 96,
            "midi": 64,
            "name": "E4",
            "ticks": 20448,
            "time": 45.6428115,
            "velocity": 0.2440944881889764
          },
          {
            "duration": 0.21428550000000257,
            "durationTicks": 96,
            "midi": 62,
            "name": "D4",
            "ticks": 20544,
            "time": 45.857097,
            "velocity": 0.2440944881889764
          },
          {
            "duration": 0.21428549999999547,
            "durationTicks": 96,
            "midi": 61,
            "name": "C#4",
            "ticks": 20640,
            "time": 46.071382500000006,
            "velocity": 0.2440944881889764
          },
          {
            "duration": 0.21428550000000257,
            "durationTicks": 96,
            "midi": 52,
            "name": "E3",
            "ticks": 20736,
            "time": 46.285668,
            "velocity": 0.2440944881889764
          },
          {
            "duration": 0.21428550000000257,
            "durationTicks": 96,
            "midi": 56,
            "name": "G#3",
            "ticks": 20832,
            "time": 46.499953500000004,
            "velocity": 0.2440944881889764
          },
          {
            "duration": 0.21428549999999547,
            "durationTicks": 96,
            "midi": 62,
            "name": "D4",
            "ticks": 20928,
            "time": 46.714239000000006,
            "velocity": 0.2440944881889764
          },
          {
            "duration": 0.21428550000000257,
            "durationTicks": 96,
            "midi": 52,
            "name": "E3",
            "ticks": 21024,
            "time": 46.9285245,
            "velocity": 0.2440944881889764
          },
          {
            "duration": 0.21428550000000257,
            "durationTicks": 96,
            "midi": 62,
            "name": "D4",
            "ticks": 21120,
            "time": 47.142810000000004,
            "velocity": 0.2440944881889764
          },
          {
            "duration": 0.21428549999999547,
            "durationTicks": 96,
            "midi": 61,
            "name": "C#4",
            "ticks": 21216,
            "time": 47.35709550000001,
            "velocity": 0.2440944881889764
          },
          {
            "duration": 0.21428550000000257,
            "durationTicks": 96,
            "midi": 59,
            "name": "B3",
            "ticks": 21312,
            "time": 47.571381,
            "velocity": 0.2440944881889764
          },
          {
            "duration": 0.21428550000000257,
            "durationTicks": 96,
            "midi": 61,
            "name": "C#4",
            "ticks": 21408,
            "time": 47.785666500000005,
            "velocity": 0.2440944881889764
          },
          {
            "duration": 0.21428549999999547,
            "durationTicks": 96,
            "midi": 50,
            "name": "D3",
            "ticks": 21504,
            "time": 47.99995200000001,
            "velocity": 0.2440944881889764
          },
          {
            "duration": 0.21428550000000257,
            "durationTicks": 96,
            "midi": 54,
            "name": "F#3",
            "ticks": 21600,
            "time": 48.2142375,
            "velocity": 0.2440944881889764
          },
          {
            "duration": 0.21428549999999547,
            "durationTicks": 96,
            "midi": 61,
            "name": "C#4",
            "ticks": 21696,
            "time": 48.428523000000006,
            "velocity": 0.2440944881889764
          },
          {
            "duration": 0.21428550000000257,
            "durationTicks": 96,
            "midi": 50,
            "name": "D3",
            "ticks": 21792,
            "time": 48.6428085,
            "velocity": 0.2440944881889764
          },
          {
            "duration": 0.21428550000000257,
            "durationTicks": 96,
            "midi": 54,
            "name": "F#3",
            "ticks": 21888,
            "time": 48.857094000000004,
            "velocity": 0.2440944881889764
          },
          {
            "duration": 0.21428549999999547,
            "durationTicks": 96,
            "midi": 61,
            "name": "C#4",
            "ticks": 21984,
            "time": 49.071379500000006,
            "velocity": 0.2440944881889764
          },
          {
            "duration": 0.21428550000000257,
            "durationTicks": 96,
            "midi": 50,
            "name": "D3",
            "ticks": 22080,
            "time": 49.285665,
            "velocity": 0.2440944881889764
          },
          {
            "duration": 0.21428550000000257,
            "durationTicks": 96,
            "midi": 54,
            "name": "F#3",
            "ticks": 22176,
            "time": 49.499950500000004,
            "velocity": 0.2440944881889764
          },
          {
            "duration": 0.21428549999999547,
            "durationTicks": 96,
            "midi": 49,
            "name": "C#3",
            "ticks": 22272,
            "time": 49.71423600000001,
            "velocity": 0.2440944881889764
          },
          {
            "duration": 0.21428550000000257,
            "durationTicks": 96,
            "midi": 53,
            "name": "F3",
            "ticks": 22368,
            "time": 49.9285215,
            "velocity": 0.2440944881889764
          },
          {
            "duration": 0.21428550000000257,
            "durationTicks": 96,
            "midi": 59,
            "name": "B3",
            "ticks": 22464,
            "time": 50.142807000000005,
            "velocity": 0.2440944881889764
          },
          {
            "duration": 0.21428549999999547,
            "durationTicks": 96,
            "midi": 49,
            "name": "C#3",
            "ticks": 22560,
            "time": 50.35709250000001,
            "velocity": 0.2440944881889764
          },
          {
            "duration": 0.21428550000000257,
            "durationTicks": 96,
            "midi": 53,
            "name": "F3",
            "ticks": 22656,
            "time": 50.571378,
            "velocity": 0.2440944881889764
          },
          {
            "duration": 0.21428549999999547,
            "durationTicks": 96,
            "midi": 59,
            "name": "B3",
            "ticks": 22752,
            "time": 50.785663500000005,
            "velocity": 0.2440944881889764
          },
          {
            "duration": 0.21428550000000257,
            "durationTicks": 96,
            "midi": 62,
            "name": "D4",
            "ticks": 22848,
            "time": 50.999949,
            "velocity": 0.2440944881889764
          },
          {
            "duration": 0.21428550000000257,
            "durationTicks": 96,
            "midi": 61,
            "name": "C#4",
            "ticks": 22944,
            "time": 51.2142345,
            "velocity": 0.2440944881889764
          },
          {
            "duration": 0.21428549999999547,
            "durationTicks": 96,
            "midi": 54,
            "name": "F#3",
            "ticks": 23040,
            "time": 51.428520000000006,
            "velocity": 0.2440944881889764
          },
          {
            "duration": 0.21428550000000257,
            "durationTicks": 96,
            "midi": 57,
            "name": "A3",
            "ticks": 23136,
            "time": 51.6428055,
            "velocity": 0.2440944881889764
          },
          {
            "duration": 0.21428550000000257,
            "durationTicks": 96,
            "midi": 64,
            "name": "E4",
            "ticks": 23232,
            "time": 51.857091000000004,
            "velocity": 0.2440944881889764
          },
          {
            "duration": 0.21428549999999547,
            "durationTicks": 96,
            "midi": 54,
            "name": "F#3",
            "ticks": 23328,
            "time": 52.07137650000001,
            "velocity": 0.2440944881889764
          },
          {
            "duration": 0.21428550000000257,
            "durationTicks": 96,
            "midi": 57,
            "name": "A3",
            "ticks": 23424,
            "time": 52.285662,
            "velocity": 0.2440944881889764
          },
          {
            "duration": 0.21428550000000257,
            "durationTicks": 96,
            "midi": 64,
            "name": "E4",
            "ticks": 23520,
            "time": 52.499947500000005,
            "velocity": 0.2440944881889764
          },
          {
            "duration": 0.21428549999999547,
            "durationTicks": 96,
            "midi": 62,
            "name": "D4",
            "ticks": 23616,
            "time": 52.71423300000001,
            "velocity": 0.2440944881889764
          },
          {
            "duration": 0.21428550000000257,
            "durationTicks": 96,
            "midi": 61,
            "name": "C#4",
            "ticks": 23712,
            "time": 52.9285185,
            "velocity": 0.2440944881889764
          },
          {
            "duration": 0.21428550000000257,
            "durationTicks": 96,
            "midi": 52,
            "name": "E3",
            "ticks": 23808,
            "time": 53.142804000000005,
            "velocity": 0.2440944881889764
          },
          {
            "duration": 0.21428549999999547,
            "durationTicks": 96,
            "midi": 56,
            "name": "G#3",
            "ticks": 23904,
            "time": 53.35708950000001,
            "velocity": 0.2440944881889764
          },
          {
            "duration": 0.21428550000000257,
            "durationTicks": 96,
            "midi": 62,
            "name": "D4",
            "ticks": 24000,
            "time": 53.571375,
            "velocity": 0.2440944881889764
          },
          {
            "duration": 0.21428549999999547,
            "durationTicks": 96,
            "midi": 52,
            "name": "E3",
            "ticks": 24096,
            "time": 53.785660500000006,
            "velocity": 0.2440944881889764
          },
          {
            "duration": 0.21428550000000257,
            "durationTicks": 96,
            "midi": 62,
            "name": "D4",
            "ticks": 24192,
            "time": 53.999946,
            "velocity": 0.2440944881889764
          },
          {
            "duration": 0.21428550000000257,
            "durationTicks": 96,
            "midi": 61,
            "name": "C#4",
            "ticks": 24288,
            "time": 54.214231500000004,
            "velocity": 0.2440944881889764
          },
          {
            "duration": 0.21428549999999547,
            "durationTicks": 96,
            "midi": 59,
            "name": "B3",
            "ticks": 24384,
            "time": 54.42851700000001,
            "velocity": 0.2440944881889764
          },
          {
            "duration": 0.21428550000000257,
            "durationTicks": 96,
            "midi": 61,
            "name": "C#4",
            "ticks": 24480,
            "time": 54.6428025,
            "velocity": 0.2440944881889764
          },
          {
            "duration": 0.21428550000000257,
            "durationTicks": 96,
            "midi": 50,
            "name": "D3",
            "ticks": 24576,
            "time": 54.857088000000005,
            "velocity": 0.2440944881889764
          },
          {
            "duration": 0.21428549999999547,
            "durationTicks": 96,
            "midi": 54,
            "name": "F#3",
            "ticks": 24672,
            "time": 55.07137350000001,
            "velocity": 0.2440944881889764
          },
          {
            "duration": 0.21428550000000257,
            "durationTicks": 96,
            "midi": 61,
            "name": "C#4",
            "ticks": 24768,
            "time": 55.285659,
            "velocity": 0.2440944881889764
          },
          {
            "duration": 0.21428550000000257,
            "durationTicks": 96,
            "midi": 50,
            "name": "D3",
            "ticks": 24864,
            "time": 55.499944500000005,
            "velocity": 0.2440944881889764
          },
          {
            "duration": 0.21428549999999547,
            "durationTicks": 96,
            "midi": 54,
            "name": "F#3",
            "ticks": 24960,
            "time": 55.71423000000001,
            "velocity": 0.2440944881889764
          },
          {
            "duration": 0.21428550000000257,
            "durationTicks": 96,
            "midi": 61,
            "name": "C#4",
            "ticks": 25056,
            "time": 55.9285155,
            "velocity": 0.2440944881889764
          },
          {
            "duration": 0.21428549999999547,
            "durationTicks": 96,
            "midi": 50,
            "name": "D3",
            "ticks": 25152,
            "time": 56.142801000000006,
            "velocity": 0.2440944881889764
          },
          {
            "duration": 0.21428550000000257,
            "durationTicks": 96,
            "midi": 54,
            "name": "F#3",
            "ticks": 25248,
            "time": 56.3570865,
            "velocity": 0.2440944881889764
          },
          {
            "duration": 0.21428550000000257,
            "durationTicks": 96,
            "midi": 49,
            "name": "C#3",
            "ticks": 25344,
            "time": 56.571372000000004,
            "velocity": 0.2440944881889764
          },
          {
            "duration": 0.21428549999999547,
            "durationTicks": 96,
            "midi": 53,
            "name": "F3",
            "ticks": 25440,
            "time": 56.785657500000006,
            "velocity": 0.2440944881889764
          },
          {
            "duration": 0.21428550000000257,
            "durationTicks": 96,
            "midi": 59,
            "name": "B3",
            "ticks": 25536,
            "time": 56.999943,
            "velocity": 0.2440944881889764
          },
          {
            "duration": 0.21428550000000257,
            "durationTicks": 96,
            "midi": 49,
            "name": "C#3",
            "ticks": 25632,
            "time": 57.214228500000004,
            "velocity": 0.2440944881889764
          },
          {
            "duration": 0.21428549999999547,
            "durationTicks": 96,
            "midi": 53,
            "name": "F3",
            "ticks": 25728,
            "time": 57.42851400000001,
            "velocity": 0.2440944881889764
          },
          {
            "duration": 0.21428550000000257,
            "durationTicks": 96,
            "midi": 59,
            "name": "B3",
            "ticks": 25824,
            "time": 57.6427995,
            "velocity": 0.2440944881889764
          },
          {
            "duration": 0.21428550000000257,
            "durationTicks": 96,
            "midi": 62,
            "name": "D4",
            "ticks": 25920,
            "time": 57.857085000000005,
            "velocity": 0.2440944881889764
          },
          {
            "duration": 0.21428549999999547,
            "durationTicks": 96,
            "midi": 61,
            "name": "C#4",
            "ticks": 26016,
            "time": 58.07137050000001,
            "velocity": 0.2440944881889764
          },
          {
            "duration": 0.21428550000000257,
            "durationTicks": 96,
            "midi": 54,
            "name": "F#3",
            "ticks": 26112,
            "time": 58.285656,
            "velocity": 0.2440944881889764
          },
          {
            "duration": 0.21428550000000257,
            "durationTicks": 96,
            "midi": 57,
            "name": "A3",
            "ticks": 26208,
            "time": 58.499941500000006,
            "velocity": 0.2440944881889764
          },
          {
            "duration": 0.21428549999999547,
            "durationTicks": 96,
            "midi": 64,
            "name": "E4",
            "ticks": 26304,
            "time": 58.71422700000001,
            "velocity": 0.2440944881889764
          },
          {
            "duration": 0.21428550000000257,
            "durationTicks": 96,
            "midi": 54,
            "name": "F#3",
            "ticks": 26400,
            "time": 58.928512500000004,
            "velocity": 0.2440944881889764
          },
          {
            "duration": 0.21428549999999547,
            "durationTicks": 96,
            "midi": 57,
            "name": "A3",
            "ticks": 26496,
            "time": 59.142798000000006,
            "velocity": 0.2440944881889764
          },
          {
            "duration": 0.21428550000000257,
            "durationTicks": 96,
            "midi": 64,
            "name": "E4",
            "ticks": 26592,
            "time": 59.3570835,
            "velocity": 0.2440944881889764
          },
          {
            "duration": 0.21428550000000257,
            "durationTicks": 96,
            "midi": 62,
            "name": "D4",
            "ticks": 26688,
            "time": 59.571369000000004,
            "velocity": 0.2440944881889764
          },
          {
            "duration": 0.21428549999999547,
            "durationTicks": 96,
            "midi": 61,
            "name": "C#4",
            "ticks": 26784,
            "time": 59.78565450000001,
            "velocity": 0.2440944881889764
          },
          {
            "duration": 0.21428550000000257,
            "durationTicks": 96,
            "midi": 52,
            "name": "E3",
            "ticks": 26880,
            "time": 59.99994,
            "velocity": 0.2440944881889764
          },
          {
            "duration": 0.21428550000000257,
            "durationTicks": 96,
            "midi": 56,
            "name": "G#3",
            "ticks": 26976,
            "time": 60.214225500000005,
            "velocity": 0.2440944881889764
          },
          {
            "duration": 0.21428549999999547,
            "durationTicks": 96,
            "midi": 62,
            "name": "D4",
            "ticks": 27072,
            "time": 60.42851100000001,
            "velocity": 0.2440944881889764
          },
          {
            "duration": 0.21428550000000257,
            "durationTicks": 96,
            "midi": 52,
            "name": "E3",
            "ticks": 27168,
            "time": 60.6427965,
            "velocity": 0.2440944881889764
          },
          {
            "duration": 0.21428550000000257,
            "durationTicks": 96,
            "midi": 62,
            "name": "D4",
            "ticks": 27264,
            "time": 60.857082000000005,
            "velocity": 0.2440944881889764
          },
          {
            "duration": 0.21428549999999547,
            "durationTicks": 96,
            "midi": 61,
            "name": "C#4",
            "ticks": 27360,
            "time": 61.07136750000001,
            "velocity": 0.2440944881889764
          },
          {
            "duration": 0.21428550000000257,
            "durationTicks": 96,
            "midi": 59,
            "name": "B3",
            "ticks": 27456,
            "time": 61.285653,
            "velocity": 0.2440944881889764
          },
          {
            "duration": 0.21428549999999547,
            "durationTicks": 96,
            "midi": 61,
            "name": "C#4",
            "ticks": 27552,
            "time": 61.499938500000006,
            "velocity": 0.2440944881889764
          },
          {
            "duration": 0.21428550000000257,
            "durationTicks": 96,
            "midi": 50,
            "name": "D3",
            "ticks": 27648,
            "time": 61.714224,
            "velocity": 0.2440944881889764
          },
          {
            "duration": 0.21428550000000257,
            "durationTicks": 96,
            "midi": 54,
            "name": "F#3",
            "ticks": 27744,
            "time": 61.928509500000004,
            "velocity": 0.2440944881889764
          },
          {
            "duration": 0.21428549999999547,
            "durationTicks": 96,
            "midi": 61,
            "name": "C#4",
            "ticks": 27840,
            "time": 62.14279500000001,
            "velocity": 0.2440944881889764
          },
          {
            "duration": 0.21428550000000257,
            "durationTicks": 96,
            "midi": 50,
            "name": "D3",
            "ticks": 27936,
            "time": 62.3570805,
            "velocity": 0.2440944881889764
          },
          {
            "duration": 0.21428550000000257,
            "durationTicks": 96,
            "midi": 54,
            "name": "F#3",
            "ticks": 28032,
            "time": 62.571366000000005,
            "velocity": 0.2440944881889764
          },
          {
            "duration": 0.21428549999999547,
            "durationTicks": 96,
            "midi": 61,
            "name": "C#4",
            "ticks": 28128,
            "time": 62.78565150000001,
            "velocity": 0.2440944881889764
          },
          {
            "duration": 0.21428550000000257,
            "durationTicks": 96,
            "midi": 50,
            "name": "D3",
            "ticks": 28224,
            "time": 62.999937,
            "velocity": 0.2440944881889764
          },
          {
            "duration": 0.21428550000000257,
            "durationTicks": 96,
            "midi": 54,
            "name": "F#3",
            "ticks": 28320,
            "time": 63.214222500000005,
            "velocity": 0.2440944881889764
          },
          {
            "duration": 0.21428549999999547,
            "durationTicks": 96,
            "midi": 49,
            "name": "C#3",
            "ticks": 28416,
            "time": 63.42850800000001,
            "velocity": 0.2440944881889764
          },
          {
            "duration": 0.21428550000000257,
            "durationTicks": 96,
            "midi": 53,
            "name": "F3",
            "ticks": 28512,
            "time": 63.6427935,
            "velocity": 0.2440944881889764
          },
          {
            "duration": 0.21428549999999547,
            "durationTicks": 96,
            "midi": 59,
            "name": "B3",
            "ticks": 28608,
            "time": 63.857079000000006,
            "velocity": 0.2440944881889764
          },
          {
            "duration": 0.21428550000000257,
            "durationTicks": 96,
            "midi": 49,
            "name": "C#3",
            "ticks": 28704,
            "time": 64.0713645,
            "velocity": 0.2440944881889764
          },
          {
            "duration": 0.21428550000000257,
            "durationTicks": 96,
            "midi": 53,
            "name": "F3",
            "ticks": 28800,
            "time": 64.28565,
            "velocity": 0.2440944881889764
          },
          {
            "duration": 0.21428550000000257,
            "durationTicks": 96,
            "midi": 59,
            "name": "B3",
            "ticks": 28896,
            "time": 64.4999355,
            "velocity": 0.2440944881889764
          },
          {
            "duration": 0.21428550000000257,
            "durationTicks": 96,
            "midi": 62,
            "name": "D4",
            "ticks": 28992,
            "time": 64.71422100000001,
            "velocity": 0.2440944881889764
          },
          {
            "duration": 0.21428549999998836,
            "durationTicks": 96,
            "midi": 61,
            "name": "C#4",
            "ticks": 29088,
            "time": 64.92850650000001,
            "velocity": 0.2440944881889764
          },
          {
            "duration": 0.21428550000000257,
            "durationTicks": 96,
            "midi": 54,
            "name": "F#3",
            "ticks": 29184,
            "time": 65.142792,
            "velocity": 0.2440944881889764
          },
          {
            "duration": 0.21428550000000257,
            "durationTicks": 96,
            "midi": 57,
            "name": "A3",
            "ticks": 29280,
            "time": 65.3570775,
            "velocity": 0.2440944881889764
          },
          {
            "duration": 0.21428550000000257,
            "durationTicks": 96,
            "midi": 64,
            "name": "E4",
            "ticks": 29376,
            "time": 65.571363,
            "velocity": 0.2440944881889764
          },
          {
            "duration": 0.21428550000000257,
            "durationTicks": 96,
            "midi": 54,
            "name": "F#3",
            "ticks": 29472,
            "time": 65.78564850000001,
            "velocity": 0.2440944881889764
          },
          {
            "duration": 0.21428549999998836,
            "durationTicks": 96,
            "midi": 57,
            "name": "A3",
            "ticks": 29568,
            "time": 65.99993400000001,
            "velocity": 0.2440944881889764
          },
          {
            "duration": 0.21428550000000257,
            "durationTicks": 96,
            "midi": 64,
            "name": "E4",
            "ticks": 29664,
            "time": 66.2142195,
            "velocity": 0.2440944881889764
          },
          {
            "duration": 0.21428550000000257,
            "durationTicks": 96,
            "midi": 62,
            "name": "D4",
            "ticks": 29760,
            "time": 66.428505,
            "velocity": 0.2440944881889764
          },
          {
            "duration": 0.21428550000000257,
            "durationTicks": 96,
            "midi": 61,
            "name": "C#4",
            "ticks": 29856,
            "time": 66.6427905,
            "velocity": 0.2440944881889764
          },
          {
            "duration": 0.21428550000000257,
            "durationTicks": 96,
            "midi": 52,
            "name": "E3",
            "ticks": 29952,
            "time": 66.857076,
            "velocity": 0.2440944881889764
          },
          {
            "duration": 0.21428550000000257,
            "durationTicks": 96,
            "midi": 56,
            "name": "G#3",
            "ticks": 30048,
            "time": 67.07136150000001,
            "velocity": 0.2440944881889764
          },
          {
            "duration": 0.21428549999998836,
            "durationTicks": 96,
            "midi": 62,
            "name": "D4",
            "ticks": 30144,
            "time": 67.28564700000001,
            "velocity": 0.2440944881889764
          },
          {
            "duration": 0.21428550000000257,
            "durationTicks": 96,
            "midi": 52,
            "name": "E3",
            "ticks": 30240,
            "time": 67.4999325,
            "velocity": 0.2440944881889764
          },
          {
            "duration": 0.21428550000000257,
            "durationTicks": 96,
            "midi": 62,
            "name": "D4",
            "ticks": 30336,
            "time": 67.714218,
            "velocity": 0.2440944881889764
          },
          {
            "duration": 0.21428550000000257,
            "durationTicks": 96,
            "midi": 61,
            "name": "C#4",
            "ticks": 30432,
            "time": 67.9285035,
            "velocity": 0.2440944881889764
          },
          {
            "duration": 0.21428550000000257,
            "durationTicks": 96,
            "midi": 59,
            "name": "B3",
            "ticks": 30528,
            "time": 68.14278900000001,
            "velocity": 0.2440944881889764
          },
          {
            "duration": 0.21428549999998836,
            "durationTicks": 96,
            "midi": 61,
            "name": "C#4",
            "ticks": 30624,
            "time": 68.35707450000001,
            "velocity": 0.2440944881889764
          },
          {
            "duration": 0.21428550000000257,
            "durationTicks": 96,
            "midi": 50,
            "name": "D3",
            "ticks": 30720,
            "time": 68.57136,
            "velocity": 0.2440944881889764
          },
          {
            "duration": 0.21428550000000257,
            "durationTicks": 96,
            "midi": 54,
            "name": "F#3",
            "ticks": 30816,
            "time": 68.7856455,
            "velocity": 0.2440944881889764
          },
          {
            "duration": 0.21428550000000257,
            "durationTicks": 96,
            "midi": 61,
            "name": "C#4",
            "ticks": 30912,
            "time": 68.999931,
            "velocity": 0.2440944881889764
          },
          {
            "duration": 0.21428550000000257,
            "durationTicks": 96,
            "midi": 50,
            "name": "D3",
            "ticks": 31008,
            "time": 69.2142165,
            "velocity": 0.2440944881889764
          },
          {
            "duration": 0.21428550000000257,
            "durationTicks": 96,
            "midi": 54,
            "name": "F#3",
            "ticks": 31104,
            "time": 69.42850200000001,
            "velocity": 0.2440944881889764
          },
          {
            "duration": 0.21428549999998836,
            "durationTicks": 96,
            "midi": 61,
            "name": "C#4",
            "ticks": 31200,
            "time": 69.64278750000001,
            "velocity": 0.2440944881889764
          },
          {
            "duration": 0.21428550000000257,
            "durationTicks": 96,
            "midi": 50,
            "name": "D3",
            "ticks": 31296,
            "time": 69.857073,
            "velocity": 0.2440944881889764
          },
          {
            "duration": 0.21428550000000257,
            "durationTicks": 96,
            "midi": 54,
            "name": "F#3",
            "ticks": 31392,
            "time": 70.0713585,
            "velocity": 0.2440944881889764
          },
          {
            "duration": 0.21428550000000257,
            "durationTicks": 96,
            "midi": 49,
            "name": "C#3",
            "ticks": 31488,
            "time": 70.285644,
            "velocity": 0.2440944881889764
          },
          {
            "duration": 0.21428550000000257,
            "durationTicks": 96,
            "midi": 53,
            "name": "F3",
            "ticks": 31584,
            "time": 70.49992950000001,
            "velocity": 0.2440944881889764
          },
          {
            "duration": 0.21428550000000257,
            "durationTicks": 96,
            "midi": 59,
            "name": "B3",
            "ticks": 31680,
            "time": 70.71421500000001,
            "velocity": 0.2440944881889764
          },
          {
            "duration": 0.21428549999998836,
            "durationTicks": 96,
            "midi": 49,
            "name": "C#3",
            "ticks": 31776,
            "time": 70.92850050000001,
            "velocity": 0.2440944881889764
          },
          {
            "duration": 0.21428550000000257,
            "durationTicks": 96,
            "midi": 53,
            "name": "F3",
            "ticks": 31872,
            "time": 71.142786,
            "velocity": 0.2440944881889764
          },
          {
            "duration": 0.21428550000000257,
            "durationTicks": 96,
            "midi": 59,
            "name": "B3",
            "ticks": 31968,
            "time": 71.3570715,
            "velocity": 0.2440944881889764
          },
          {
            "duration": 0.21428550000000257,
            "durationTicks": 96,
            "midi": 62,
            "name": "D4",
            "ticks": 32064,
            "time": 71.571357,
            "velocity": 0.2440944881889764
          },
          {
            "duration": 0.21428550000000257,
            "durationTicks": 96,
            "midi": 61,
            "name": "C#4",
            "ticks": 32160,
            "time": 71.78564250000001,
            "velocity": 0.2440944881889764
          },
          {
            "duration": 0.21428549999998836,
            "durationTicks": 96,
            "midi": 54,
            "name": "F#3",
            "ticks": 32256,
            "time": 71.99992800000001,
            "velocity": 0.2440944881889764
          },
          {
            "duration": 0.21428550000000257,
            "durationTicks": 96,
            "midi": 57,
            "name": "A3",
            "ticks": 32352,
            "time": 72.2142135,
            "velocity": 0.2440944881889764
          },
          {
            "duration": 0.21428550000000257,
            "durationTicks": 96,
            "midi": 64,
            "name": "E4",
            "ticks": 32448,
            "time": 72.428499,
            "velocity": 0.2440944881889764
          },
          {
            "duration": 0.21428550000000257,
            "durationTicks": 96,
            "midi": 54,
            "name": "F#3",
            "ticks": 32544,
            "time": 72.6427845,
            "velocity": 0.2440944881889764
          },
          {
            "duration": 0.21428550000000257,
            "durationTicks": 96,
            "midi": 57,
            "name": "A3",
            "ticks": 32640,
            "time": 72.85707000000001,
            "velocity": 0.2440944881889764
          },
          {
            "duration": 0.21428550000000257,
            "durationTicks": 96,
            "midi": 64,
            "name": "E4",
            "ticks": 32736,
            "time": 73.07135550000001,
            "velocity": 0.2440944881889764
          },
          {
            "duration": 0.21428549999998836,
            "durationTicks": 96,
            "midi": 62,
            "name": "D4",
            "ticks": 32832,
            "time": 73.28564100000001,
            "velocity": 0.2440944881889764
          },
          {
            "duration": 0.21428550000000257,
            "durationTicks": 96,
            "midi": 61,
            "name": "C#4",
            "ticks": 32928,
            "time": 73.4999265,
            "velocity": 0.2440944881889764
          },
          {
            "duration": 0.21428550000000257,
            "durationTicks": 96,
            "midi": 52,
            "name": "E3",
            "ticks": 33024,
            "time": 73.714212,
            "velocity": 0.2440944881889764
          },
          {
            "duration": 0.21428550000000257,
            "durationTicks": 96,
            "midi": 56,
            "name": "G#3",
            "ticks": 33120,
            "time": 73.9284975,
            "velocity": 0.2440944881889764
          },
          {
            "duration": 0.21428550000000257,
            "durationTicks": 96,
            "midi": 62,
            "name": "D4",
            "ticks": 33216,
            "time": 74.14278300000001,
            "velocity": 0.2440944881889764
          },
          {
            "duration": 0.21428549999998836,
            "durationTicks": 96,
            "midi": 52,
            "name": "E3",
            "ticks": 33312,
            "time": 74.35706850000001,
            "velocity": 0.2440944881889764
          },
          {
            "duration": 0.21428550000000257,
            "durationTicks": 96,
            "midi": 62,
            "name": "D4",
            "ticks": 33408,
            "time": 74.571354,
            "velocity": 0.2440944881889764
          },
          {
            "duration": 0.21428550000000257,
            "durationTicks": 96,
            "midi": 61,
            "name": "C#4",
            "ticks": 33504,
            "time": 74.7856395,
            "velocity": 0.2440944881889764
          },
          {
            "duration": 0.21428550000000257,
            "durationTicks": 96,
            "midi": 59,
            "name": "B3",
            "ticks": 33600,
            "time": 74.999925,
            "velocity": 0.2440944881889764
          },
          {
            "duration": 0.21428550000000257,
            "durationTicks": 96,
            "midi": 61,
            "name": "C#4",
            "ticks": 33696,
            "time": 75.21421050000001,
            "velocity": 0.2440944881889764
          },
          {
            "duration": 0.21428550000000257,
            "durationTicks": 96,
            "midi": 50,
            "name": "D3",
            "ticks": 33792,
            "time": 75.42849600000001,
            "velocity": 0.2440944881889764
          },
          {
            "duration": 0.21428549999998836,
            "durationTicks": 96,
            "midi": 54,
            "name": "F#3",
            "ticks": 33888,
            "time": 75.64278150000001,
            "velocity": 0.2440944881889764
          },
          {
            "duration": 0.21428550000000257,
            "durationTicks": 96,
            "midi": 61,
            "name": "C#4",
            "ticks": 33984,
            "time": 75.857067,
            "velocity": 0.2440944881889764
          },
          {
            "duration": 0.21428550000000257,
            "durationTicks": 96,
            "midi": 50,
            "name": "D3",
            "ticks": 34080,
            "time": 76.0713525,
            "velocity": 0.2440944881889764
          },
          {
            "duration": 0.21428550000000257,
            "durationTicks": 96,
            "midi": 54,
            "name": "F#3",
            "ticks": 34176,
            "time": 76.285638,
            "velocity": 0.2440944881889764
          },
          {
            "duration": 0.21428550000000257,
            "durationTicks": 96,
            "midi": 61,
            "name": "C#4",
            "ticks": 34272,
            "time": 76.49992350000001,
            "velocity": 0.2440944881889764
          },
          {
            "duration": 0.21428549999998836,
            "durationTicks": 96,
            "midi": 50,
            "name": "D3",
            "ticks": 34368,
            "time": 76.71420900000001,
            "velocity": 0.2440944881889764
          },
          {
            "duration": 0.21428550000000257,
            "durationTicks": 96,
            "midi": 54,
            "name": "F#3",
            "ticks": 34464,
            "time": 76.9284945,
            "velocity": 0.2440944881889764
          },
          {
            "duration": 0.21428550000000257,
            "durationTicks": 96,
            "midi": 49,
            "name": "C#3",
            "ticks": 34560,
            "time": 77.14278,
            "velocity": 0.2440944881889764
          },
          {
            "duration": 0.21428550000000257,
            "durationTicks": 96,
            "midi": 53,
            "name": "F3",
            "ticks": 34656,
            "time": 77.3570655,
            "velocity": 0.2440944881889764
          },
          {
            "duration": 0.21428550000000257,
            "durationTicks": 96,
            "midi": 59,
            "name": "B3",
            "ticks": 34752,
            "time": 77.571351,
            "velocity": 0.2440944881889764
          },
          {
            "duration": 0.21428550000000257,
            "durationTicks": 96,
            "midi": 49,
            "name": "C#3",
            "ticks": 34848,
            "time": 77.78563650000001,
            "velocity": 0.2440944881889764
          },
          {
            "duration": 0.21428549999998836,
            "durationTicks": 96,
            "midi": 53,
            "name": "F3",
            "ticks": 34944,
            "time": 77.99992200000001,
            "velocity": 0.2440944881889764
          },
          {
            "duration": 0.21428550000000257,
            "durationTicks": 96,
            "midi": 59,
            "name": "B3",
            "ticks": 35040,
            "time": 78.2142075,
            "velocity": 0.2440944881889764
          },
          {
            "duration": 0.21428550000000257,
            "durationTicks": 96,
            "midi": 62,
            "name": "D4",
            "ticks": 35136,
            "time": 78.428493,
            "velocity": 0.2440944881889764
          },
          {
            "duration": 0.21428550000000257,
            "durationTicks": 96,
            "midi": 61,
            "name": "C#4",
            "ticks": 35232,
            "time": 78.6427785,
            "velocity": 0.2440944881889764
          },
          {
            "duration": 0.21428550000000257,
            "durationTicks": 96,
            "midi": 54,
            "name": "F#3",
            "ticks": 35328,
            "time": 78.85706400000001,
            "velocity": 0.2440944881889764
          },
          {
            "duration": 0.21428550000000257,
            "durationTicks": 96,
            "midi": 57,
            "name": "A3",
            "ticks": 35424,
            "time": 79.07134950000001,
            "velocity": 0.2440944881889764
          },
          {
            "duration": 0.21428549999998836,
            "durationTicks": 96,
            "midi": 64,
            "name": "E4",
            "ticks": 35520,
            "time": 79.28563500000001,
            "velocity": 0.2440944881889764
          },
          {
            "duration": 0.21428550000000257,
            "durationTicks": 96,
            "midi": 54,
            "name": "F#3",
            "ticks": 35616,
            "time": 79.4999205,
            "velocity": 0.2440944881889764
          },
          {
            "duration": 0.21428550000000257,
            "durationTicks": 96,
            "midi": 57,
            "name": "A3",
            "ticks": 35712,
            "time": 79.714206,
            "velocity": 0.2440944881889764
          },
          {
            "duration": 0.21428550000000257,
            "durationTicks": 96,
            "midi": 64,
            "name": "E4",
            "ticks": 35808,
            "time": 79.9284915,
            "velocity": 0.2440944881889764
          },
          {
            "duration": 0.21428550000000257,
            "durationTicks": 96,
            "midi": 62,
            "name": "D4",
            "ticks": 35904,
            "time": 80.14277700000001,
            "velocity": 0.2440944881889764
          },
          {
            "duration": 0.21428549999998836,
            "durationTicks": 96,
            "midi": 61,
            "name": "C#4",
            "ticks": 36000,
            "time": 80.35706250000001,
            "velocity": 0.2440944881889764
          },
          {
            "duration": 0.21428550000000257,
            "durationTicks": 96,
            "midi": 52,
            "name": "E3",
            "ticks": 36096,
            "time": 80.571348,
            "velocity": 0.2440944881889764
          },
          {
            "duration": 0.21428550000000257,
            "durationTicks": 96,
            "midi": 56,
            "name": "G#3",
            "ticks": 36192,
            "time": 80.7856335,
            "velocity": 0.2440944881889764
          },
          {
            "duration": 0.21428550000000257,
            "durationTicks": 96,
            "midi": 62,
            "name": "D4",
            "ticks": 36288,
            "time": 80.999919,
            "velocity": 0.2440944881889764
          },
          {
            "duration": 0.21428550000000257,
            "durationTicks": 96,
            "midi": 52,
            "name": "E3",
            "ticks": 36384,
            "time": 81.21420450000001,
            "velocity": 0.2440944881889764
          },
          {
            "duration": 0.21428550000000257,
            "durationTicks": 96,
            "midi": 62,
            "name": "D4",
            "ticks": 36480,
            "time": 81.42849000000001,
            "velocity": 0.2440944881889764
          },
          {
            "duration": 0.21428549999998836,
            "durationTicks": 96,
            "midi": 61,
            "name": "C#4",
            "ticks": 36576,
            "time": 81.64277550000001,
            "velocity": 0.2440944881889764
          },
          {
            "duration": 0.21428550000000257,
            "durationTicks": 96,
            "midi": 59,
            "name": "B3",
            "ticks": 36672,
            "time": 81.857061,
            "velocity": 0.2440944881889764
          },
          {
            "duration": 0.21428550000000257,
            "durationTicks": 96,
            "midi": 61,
            "name": "C#4",
            "ticks": 36768,
            "time": 82.0713465,
            "velocity": 0.2440944881889764
          },
          {
            "duration": 0.21428550000000257,
            "durationTicks": 96,
            "midi": 50,
            "name": "D3",
            "ticks": 36864,
            "time": 82.285632,
            "velocity": 0.2440944881889764
          },
          {
            "duration": 0.21428550000000257,
            "durationTicks": 96,
            "midi": 54,
            "name": "F#3",
            "ticks": 36960,
            "time": 82.49991750000001,
            "velocity": 0.2440944881889764
          },
          {
            "duration": 0.21428549999998836,
            "durationTicks": 96,
            "midi": 61,
            "name": "C#4",
            "ticks": 37056,
            "time": 82.71420300000001,
            "velocity": 0.2440944881889764
          },
          {
            "duration": 0.21428550000000257,
            "durationTicks": 96,
            "midi": 50,
            "name": "D3",
            "ticks": 37152,
            "time": 82.9284885,
            "velocity": 0.2440944881889764
          },
          {
            "duration": 0.21428550000000257,
            "durationTicks": 96,
            "midi": 54,
            "name": "F#3",
            "ticks": 37248,
            "time": 83.142774,
            "velocity": 0.2440944881889764
          },
          {
            "duration": 0.21428550000000257,
            "durationTicks": 96,
            "midi": 61,
            "name": "C#4",
            "ticks": 37344,
            "time": 83.3570595,
            "velocity": 0.2440944881889764
          },
          {
            "duration": 0.21428550000000257,
            "durationTicks": 96,
            "midi": 50,
            "name": "D3",
            "ticks": 37440,
            "time": 83.57134500000001,
            "velocity": 0.2440944881889764
          },
          {
            "duration": 0.21428550000000257,
            "durationTicks": 96,
            "midi": 54,
            "name": "F#3",
            "ticks": 37536,
            "time": 83.78563050000001,
            "velocity": 0.2440944881889764
          },
          {
            "duration": 0.21428549999998836,
            "durationTicks": 96,
            "midi": 49,
            "name": "C#3",
            "ticks": 37632,
            "time": 83.99991600000001,
            "velocity": 0.2440944881889764
          },
          {
            "duration": 0.21428550000000257,
            "durationTicks": 96,
            "midi": 53,
            "name": "F3",
            "ticks": 37728,
            "time": 84.2142015,
            "velocity": 0.2440944881889764
          },
          {
            "duration": 0.21428550000000257,
            "durationTicks": 96,
            "midi": 59,
            "name": "B3",
            "ticks": 37824,
            "time": 84.428487,
            "velocity": 0.2440944881889764
          },
          {
            "duration": 0.21428550000000257,
            "durationTicks": 96,
            "midi": 49,
            "name": "C#3",
            "ticks": 37920,
            "time": 84.6427725,
            "velocity": 0.2440944881889764
          },
          {
            "duration": 0.21428550000000257,
            "durationTicks": 96,
            "midi": 53,
            "name": "F3",
            "ticks": 38016,
            "time": 84.85705800000001,
            "velocity": 0.2440944881889764
          },
          {
            "duration": 0.21428549999998836,
            "durationTicks": 96,
            "midi": 59,
            "name": "B3",
            "ticks": 38112,
            "time": 85.07134350000001,
            "velocity": 0.2440944881889764
          },
          {
            "duration": 0.21428550000000257,
            "durationTicks": 96,
            "midi": 62,
            "name": "D4",
            "ticks": 38208,
            "time": 85.285629,
            "velocity": 0.2440944881889764
          },
          {
            "duration": 0.21428550000000257,
            "durationTicks": 96,
            "midi": 61,
            "name": "C#4",
            "ticks": 38304,
            "time": 85.4999145,
            "velocity": 0.2440944881889764
          },
          {
            "duration": 0.21428550000000257,
            "durationTicks": 96,
            "midi": 54,
            "name": "F#3",
            "ticks": 38400,
            "time": 85.7142,
            "velocity": 0.2440944881889764
          },
          {
            "duration": 0.21428550000000257,
            "durationTicks": 96,
            "midi": 57,
            "name": "A3",
            "ticks": 38496,
            "time": 85.92848550000001,
            "velocity": 0.2440944881889764
          },
          {
            "duration": 0.21428550000000257,
            "durationTicks": 96,
            "midi": 64,
            "name": "E4",
            "ticks": 38592,
            "time": 86.14277100000001,
            "velocity": 0.2440944881889764
          },
          {
            "duration": 0.21428549999998836,
            "durationTicks": 96,
            "midi": 54,
            "name": "F#3",
            "ticks": 38688,
            "time": 86.35705650000001,
            "velocity": 0.2440944881889764
          },
          {
            "duration": 0.21428550000000257,
            "durationTicks": 96,
            "midi": 57,
            "name": "A3",
            "ticks": 38784,
            "time": 86.571342,
            "velocity": 0.2440944881889764
          },
          {
            "duration": 0.21428550000000257,
            "durationTicks": 96,
            "midi": 64,
            "name": "E4",
            "ticks": 38880,
            "time": 86.7856275,
            "velocity": 0.2440944881889764
          },
          {
            "duration": 0.21428550000000257,
            "durationTicks": 96,
            "midi": 62,
            "name": "D4",
            "ticks": 38976,
            "time": 86.999913,
            "velocity": 0.2440944881889764
          },
          {
            "duration": 0.21428550000000257,
            "durationTicks": 96,
            "midi": 61,
            "name": "C#4",
            "ticks": 39072,
            "time": 87.21419850000001,
            "velocity": 0.2440944881889764
          },
          {
            "duration": 0.21428550000000257,
            "durationTicks": 96,
            "midi": 52,
            "name": "E3",
            "ticks": 39168,
            "time": 87.42848400000001,
            "velocity": 0.2440944881889764
          },
          {
            "duration": 0.21428549999998836,
            "durationTicks": 96,
            "midi": 56,
            "name": "G#3",
            "ticks": 39264,
            "time": 87.64276950000001,
            "velocity": 0.2440944881889764
          },
          {
            "duration": 0.21428550000000257,
            "durationTicks": 96,
            "midi": 62,
            "name": "D4",
            "ticks": 39360,
            "time": 87.857055,
            "velocity": 0.2440944881889764
          },
          {
            "duration": 0.21428550000000257,
            "durationTicks": 96,
            "midi": 52,
            "name": "E3",
            "ticks": 39456,
            "time": 88.0713405,
            "velocity": 0.2440944881889764
          },
          {
            "duration": 0.21428550000000257,
            "durationTicks": 96,
            "midi": 62,
            "name": "D4",
            "ticks": 39552,
            "time": 88.28562600000001,
            "velocity": 0.2440944881889764
          },
          {
            "duration": 0.21428550000000257,
            "durationTicks": 96,
            "midi": 61,
            "name": "C#4",
            "ticks": 39648,
            "time": 88.49991150000001,
            "velocity": 0.2440944881889764
          },
          {
            "duration": 0.21428549999998836,
            "durationTicks": 96,
            "midi": 59,
            "name": "B3",
            "ticks": 39744,
            "time": 88.71419700000001,
            "velocity": 0.2440944881889764
          },
          {
            "duration": 0.21428550000000257,
            "durationTicks": 96,
            "midi": 61,
            "name": "C#4",
            "ticks": 39840,
            "time": 88.9284825,
            "velocity": 0.2440944881889764
          },
          {
            "duration": 0.21428550000000257,
            "durationTicks": 96,
            "midi": 50,
            "name": "D3",
            "ticks": 39936,
            "time": 89.142768,
            "velocity": 0.2440944881889764
          },
          {
            "duration": 0.21428550000000257,
            "durationTicks": 96,
            "midi": 54,
            "name": "F#3",
            "ticks": 40032,
            "time": 89.3570535,
            "velocity": 0.2440944881889764
          },
          {
            "duration": 0.21428550000000257,
            "durationTicks": 96,
            "midi": 61,
            "name": "C#4",
            "ticks": 40128,
            "time": 89.57133900000001,
            "velocity": 0.2440944881889764
          },
          {
            "duration": 0.21428550000000257,
            "durationTicks": 96,
            "midi": 50,
            "name": "D3",
            "ticks": 40224,
            "time": 89.78562450000001,
            "velocity": 0.2440944881889764
          },
          {
            "duration": 0.21428549999998836,
            "durationTicks": 96,
            "midi": 54,
            "name": "F#3",
            "ticks": 40320,
            "time": 89.99991000000001,
            "velocity": 0.2440944881889764
          },
          {
            "duration": 0.21428550000000257,
            "durationTicks": 96,
            "midi": 61,
            "name": "C#4",
            "ticks": 40416,
            "time": 90.2141955,
            "velocity": 0.2440944881889764
          },
          {
            "duration": 0.21428550000000257,
            "durationTicks": 96,
            "midi": 50,
            "name": "D3",
            "ticks": 40512,
            "time": 90.428481,
            "velocity": 0.2440944881889764
          },
          {
            "duration": 0.21428550000000257,
            "durationTicks": 96,
            "midi": 54,
            "name": "F#3",
            "ticks": 40608,
            "time": 90.64276650000001,
            "velocity": 0.2440944881889764
          },
          {
            "duration": 0.21428550000000257,
            "durationTicks": 96,
            "midi": 49,
            "name": "C#3",
            "ticks": 40704,
            "time": 90.85705200000001,
            "velocity": 0.2440944881889764
          },
          {
            "duration": 0.21428549999998836,
            "durationTicks": 96,
            "midi": 53,
            "name": "F3",
            "ticks": 40800,
            "time": 91.07133750000001,
            "velocity": 0.2440944881889764
          },
          {
            "duration": 0.21428550000000257,
            "durationTicks": 96,
            "midi": 59,
            "name": "B3",
            "ticks": 40896,
            "time": 91.285623,
            "velocity": 0.2440944881889764
          },
          {
            "duration": 0.21428550000000257,
            "durationTicks": 96,
            "midi": 49,
            "name": "C#3",
            "ticks": 40992,
            "time": 91.4999085,
            "velocity": 0.2440944881889764
          },
          {
            "duration": 0.21428550000000257,
            "durationTicks": 96,
            "midi": 53,
            "name": "F3",
            "ticks": 41088,
            "time": 91.714194,
            "velocity": 0.2440944881889764
          },
          {
            "duration": 0.21428550000000257,
            "durationTicks": 96,
            "midi": 59,
            "name": "B3",
            "ticks": 41184,
            "time": 91.92847950000001,
            "velocity": 0.2440944881889764
          },
          {
            "duration": 0.21428550000000257,
            "durationTicks": 96,
            "midi": 62,
            "name": "D4",
            "ticks": 41280,
            "time": 92.14276500000001,
            "velocity": 0.2440944881889764
          },
          {
            "duration": 0.21428549999998836,
            "durationTicks": 96,
            "midi": 61,
            "name": "C#4",
            "ticks": 41376,
            "time": 92.35705050000001,
            "velocity": 0.2440944881889764
          },
          {
            "duration": 0.21428550000000257,
            "durationTicks": 96,
            "midi": 54,
            "name": "F#3",
            "ticks": 41472,
            "time": 92.571336,
            "velocity": 0.2440944881889764
          },
          {
            "duration": 0.21428550000000257,
            "durationTicks": 96,
            "midi": 57,
            "name": "A3",
            "ticks": 41568,
            "time": 92.7856215,
            "velocity": 0.2440944881889764
          },
          {
            "duration": 0.21428550000000257,
            "durationTicks": 96,
            "midi": 64,
            "name": "E4",
            "ticks": 41664,
            "time": 92.99990700000001,
            "velocity": 0.2440944881889764
          },
          {
            "duration": 0.21428550000000257,
            "durationTicks": 96,
            "midi": 54,
            "name": "F#3",
            "ticks": 41760,
            "time": 93.21419250000001,
            "velocity": 0.2440944881889764
          },
          {
            "duration": 0.21428549999998836,
            "durationTicks": 96,
            "midi": 57,
            "name": "A3",
            "ticks": 41856,
            "time": 93.42847800000001,
            "velocity": 0.2440944881889764
          },
          {
            "duration": 0.21428550000000257,
            "durationTicks": 96,
            "midi": 64,
            "name": "E4",
            "ticks": 41952,
            "time": 93.6427635,
            "velocity": 0.2440944881889764
          },
          {
            "duration": 0.21428550000000257,
            "durationTicks": 96,
            "midi": 62,
            "name": "D4",
            "ticks": 42048,
            "time": 93.857049,
            "velocity": 0.2440944881889764
          },
          {
            "duration": 0.21428550000000257,
            "durationTicks": 96,
            "midi": 61,
            "name": "C#4",
            "ticks": 42144,
            "time": 94.0713345,
            "velocity": 0.2440944881889764
          },
          {
            "duration": 0.21428550000000257,
            "durationTicks": 96,
            "midi": 52,
            "name": "E3",
            "ticks": 42240,
            "time": 94.28562000000001,
            "velocity": 0.2440944881889764
          },
          {
            "duration": 0.21428550000000257,
            "durationTicks": 96,
            "midi": 56,
            "name": "G#3",
            "ticks": 42336,
            "time": 94.49990550000001,
            "velocity": 0.2440944881889764
          },
          {
            "duration": 0.21428549999998836,
            "durationTicks": 96,
            "midi": 62,
            "name": "D4",
            "ticks": 42432,
            "time": 94.71419100000001,
            "velocity": 0.2440944881889764
          },
          {
            "duration": 0.21428550000000257,
            "durationTicks": 96,
            "midi": 52,
            "name": "E3",
            "ticks": 42528,
            "time": 94.9284765,
            "velocity": 0.2440944881889764
          },
          {
            "duration": 0.21428550000000257,
            "durationTicks": 96,
            "midi": 62,
            "name": "D4",
            "ticks": 42624,
            "time": 95.142762,
            "velocity": 0.2440944881889764
          },
          {
            "duration": 0.21428550000000257,
            "durationTicks": 96,
            "midi": 61,
            "name": "C#4",
            "ticks": 42720,
            "time": 95.35704750000001,
            "velocity": 0.2440944881889764
          },
          {
            "duration": 0.21428550000000257,
            "durationTicks": 96,
            "midi": 59,
            "name": "B3",
            "ticks": 42816,
            "time": 95.57133300000001,
            "velocity": 0.2440944881889764
          },
          {
            "duration": 0.21428550000000257,
            "durationTicks": 96,
            "midi": 61,
            "name": "C#4",
            "ticks": 42912,
            "time": 95.78561850000001,
            "velocity": 0.2440944881889764
          }
        ],
        "endOfTrackTicks": 43008
      },
      {
        "channel": 2,
        "controlChanges": {},
        "pitchBends": [],
        "instrument": {
          "family": "chromatic percussion",
          "number": 10,
          "name": "music box"
        },
        "name": "Music Box",
        "notes": [
          {
            "duration": 0.10714274999999418,
            "durationTicks": 48,
            "midi": 74,
            "name": "D5",
            "ticks": 36864,
            "time": 82.285632,
            "velocity": 0.31496062992125984
          },
          {
            "duration": 0.10714274999999418,
            "durationTicks": 48,
            "midi": 74,
            "name": "D5",
            "ticks": 36960,
            "time": 82.49991750000001,
            "velocity": 0.31496062992125984
          },
          {
            "duration": 0.21428550000000257,
            "durationTicks": 96,
            "midi": 85,
            "name": "C#6",
            "ticks": 37008,
            "time": 82.60706025,
            "velocity": 0.31496062992125984
          },
          {
            "duration": 0.10714274999999418,
            "durationTicks": 48,
            "midi": 81,
            "name": "A5",
            "ticks": 37104,
            "time": 82.82134575,
            "velocity": 0.31496062992125984
          },
          {
            "duration": 0.10714275000000839,
            "durationTicks": 48,
            "midi": 80,
            "name": "G#5",
            "ticks": 37152,
            "time": 82.9284885,
            "velocity": 0.31496062992125984
          },
          {
            "duration": 0.10714274999999418,
            "durationTicks": 48,
            "midi": 78,
            "name": "F#5",
            "ticks": 37200,
            "time": 83.03563125000001,
            "velocity": 0.31496062992125984
          },
          {
            "duration": 0.10714275000000839,
            "durationTicks": 48,
            "midi": 80,
            "name": "G#5",
            "ticks": 37248,
            "time": 83.142774,
            "velocity": 0.31496062992125984
          },
          {
            "duration": 0.21428550000000257,
            "durationTicks": 96,
            "midi": 85,
            "name": "C#6",
            "ticks": 37344,
            "time": 83.3570595,
            "velocity": 0.31496062992125984
          },
          {
            "duration": 0.10714274999999418,
            "durationTicks": 48,
            "midi": 74,
            "name": "D5",
            "ticks": 37440,
            "time": 83.57134500000001,
            "velocity": 0.31496062992125984
          },
          {
            "duration": 0.10714274999999418,
            "durationTicks": 48,
            "midi": 74,
            "name": "D5",
            "ticks": 37536,
            "time": 83.78563050000001,
            "velocity": 0.31496062992125984
          },
          {
            "duration": 0.21428550000000257,
            "durationTicks": 96,
            "midi": 85,
            "name": "C#6",
            "ticks": 37584,
            "time": 83.89277325,
            "velocity": 0.31496062992125984
          },
          {
            "duration": 0.10714274999999418,
            "durationTicks": 48,
            "midi": 81,
            "name": "A5",
            "ticks": 37680,
            "time": 84.10705875000001,
            "velocity": 0.31496062992125984
          },
          {
            "duration": 0.10714275000000839,
            "durationTicks": 48,
            "midi": 80,
            "name": "G#5",
            "ticks": 37728,
            "time": 84.2142015,
            "velocity": 0.31496062992125984
          },
          {
            "duration": 0.10714274999999418,
            "durationTicks": 48,
            "midi": 78,
            "name": "F#5",
            "ticks": 37776,
            "time": 84.32134425000001,
            "velocity": 0.31496062992125984
          },
          {
            "duration": 0.10714275000000839,
            "durationTicks": 48,
            "midi": 80,
            "name": "G#5",
            "ticks": 37824,
            "time": 84.428487,
            "velocity": 0.31496062992125984
          },
          {
            "duration": 0.21428550000000257,
            "durationTicks": 96,
            "midi": 90,
            "name": "F#6",
            "ticks": 37920,
            "time": 84.6427725,
            "velocity": 0.31496062992125984
          },
          {
            "duration": 0.10714274999999418,
            "durationTicks": 48,
            "midi": 88,
            "name": "E6",
            "ticks": 38016,
            "time": 84.85705800000001,
            "velocity": 0.31496062992125984
          },
          {
            "duration": 0.10714275000000839,
            "durationTicks": 48,
            "midi": 86,
            "name": "D6",
            "ticks": 38064,
            "time": 84.96420075,
            "velocity": 0.31496062992125984
          },
          {
            "duration": 0.10714274999999418,
            "durationTicks": 48,
            "midi": 85,
            "name": "C#6",
            "ticks": 38112,
            "time": 85.07134350000001,
            "velocity": 0.31496062992125984
          },
          {
            "duration": 0.10714275000000839,
            "durationTicks": 48,
            "midi": 86,
            "name": "D6",
            "ticks": 38208,
            "time": 85.285629,
            "velocity": 0.31496062992125984
          },
          {
            "duration": 0.10714275000000839,
            "durationTicks": 48,
            "midi": 81,
            "name": "A5",
            "ticks": 38304,
            "time": 85.4999145,
            "velocity": 0.31496062992125984
          },
          {
            "duration": 0.10714275000000839,
            "durationTicks": 48,
            "midi": 83,
            "name": "B5",
            "ticks": 38400,
            "time": 85.7142,
            "velocity": 0.31496062992125984
          },
          {
            "duration": 0.10714274999999418,
            "durationTicks": 48,
            "midi": 83,
            "name": "B5",
            "ticks": 38496,
            "time": 85.92848550000001,
            "velocity": 0.31496062992125984
          },
          {
            "duration": 0.10714275000000839,
            "durationTicks": 48,
            "midi": 90,
            "name": "F#6",
            "ticks": 38544,
            "time": 86.03562825,
            "velocity": 0.31496062992125984
          },
          {
            "duration": 0.10714275000000839,
            "durationTicks": 48,
            "midi": 88,
            "name": "E6",
            "ticks": 38640,
            "time": 86.24991375,
            "velocity": 0.31496062992125984
          },
          {
            "duration": 0.10714274999999418,
            "durationTicks": 48,
            "midi": 85,
            "name": "C#6",
            "ticks": 38688,
            "time": 86.35705650000001,
            "velocity": 0.31496062992125984
          },
          {
            "duration": 0.10714275000000839,
            "durationTicks": 48,
            "midi": 85,
            "name": "C#6",
            "ticks": 38784,
            "time": 86.571342,
            "velocity": 0.31496062992125984
          },
          {
            "duration": 0.10714274999999418,
            "durationTicks": 48,
            "midi": 86,
            "name": "D6",
            "ticks": 38832,
            "time": 86.67848475000001,
            "velocity": 0.31496062992125984
          },
          {
            "duration": 0.10714275000000839,
            "durationTicks": 48,
            "midi": 85,
            "name": "C#6",
            "ticks": 38880,
            "time": 86.7856275,
            "velocity": 0.31496062992125984
          },
          {
            "duration": 0.10714274999999418,
            "durationTicks": 48,
            "midi": 83,
            "name": "B5",
            "ticks": 38976,
            "time": 86.999913,
            "velocity": 0.31496062992125984
          },
          {
            "duration": 0.10714274999999418,
            "durationTicks": 48,
            "midi": 85,
            "name": "C#6",
            "ticks": 39072,
            "time": 87.21419850000001,
            "velocity": 0.31496062992125984
          },
          {
            "duration": 0.10714274999999418,
            "durationTicks": 48,
            "midi": 80,
            "name": "G#5",
            "ticks": 39168,
            "time": 87.42848400000001,
            "velocity": 0.31496062992125984
          },
          {
            "duration": 0.10714274999999418,
            "durationTicks": 48,
            "midi": 80,
            "name": "G#5",
            "ticks": 39264,
            "time": 87.64276950000001,
            "velocity": 0.31496062992125984
          },
          {
            "duration": 0.10714274999999418,
            "durationTicks": 48,
            "midi": 85,
            "name": "C#6",
            "ticks": 39312,
            "time": 87.74991225000001,
            "velocity": 0.31496062992125984
          },
          {
            "duration": 0.10714274999999418,
            "durationTicks": 48,
            "midi": 83,
            "name": "B5",
            "ticks": 39408,
            "time": 87.96419775000001,
            "velocity": 0.31496062992125984
          },
          {
            "duration": 0.10714275000000839,
            "durationTicks": 48,
            "midi": 80,
            "name": "G#5",
            "ticks": 39456,
            "time": 88.0713405,
            "velocity": 0.31496062992125984
          },
          {
            "duration": 0.10714274999999418,
            "durationTicks": 48,
            "midi": 86,
            "name": "D6",
            "ticks": 39552,
            "time": 88.28562600000001,
            "velocity": 0.31496062992125984
          },
          {
            "duration": 0.10714275000000839,
            "durationTicks": 48,
            "midi": 85,
            "name": "C#6",
            "ticks": 39600,
            "time": 88.39276875,
            "velocity": 0.31496062992125984
          },
          {
            "duration": 0.10714274999999418,
            "durationTicks": 48,
            "midi": 83,
            "name": "B5",
            "ticks": 39648,
            "time": 88.49991150000001,
            "velocity": 0.31496062992125984
          },
          {
            "duration": 0.10714274999999418,
            "durationTicks": 48,
            "midi": 83,
            "name": "B5",
            "ticks": 39744,
            "time": 88.71419700000001,
            "velocity": 0.31496062992125984
          },
          {
            "duration": 0.10714275000000839,
            "durationTicks": 48,
            "midi": 85,
            "name": "C#6",
            "ticks": 39840,
            "time": 88.9284825,
            "velocity": 0.31496062992125984
          },
          {
            "duration": 0.10714275000000839,
            "durationTicks": 48,
            "midi": 74,
            "name": "D5",
            "ticks": 39936,
            "time": 89.142768,
            "velocity": 0.31496062992125984
          },
          {
            "duration": 0.10714274999999418,
            "durationTicks": 48,
            "midi": 74,
            "name": "D5",
            "ticks": 40032,
            "time": 89.3570535,
            "velocity": 0.31496062992125984
          },
          {
            "duration": 0.21428550000000257,
            "durationTicks": 96,
            "midi": 85,
            "name": "C#6",
            "ticks": 40080,
            "time": 89.46419625,
            "velocity": 0.31496062992125984
          },
          {
            "duration": 0.10714275000000839,
            "durationTicks": 48,
            "midi": 81,
            "name": "A5",
            "ticks": 40176,
            "time": 89.67848175,
            "velocity": 0.31496062992125984
          },
          {
            "duration": 0.10714274999999418,
            "durationTicks": 48,
            "midi": 80,
            "name": "G#5",
            "ticks": 40224,
            "time": 89.78562450000001,
            "velocity": 0.31496062992125984
          },
          {
            "duration": 0.10714275000000839,
            "durationTicks": 48,
            "midi": 78,
            "name": "F#5",
            "ticks": 40272,
            "time": 89.89276725,
            "velocity": 0.31496062992125984
          },
          {
            "duration": 0.10714274999999418,
            "durationTicks": 48,
            "midi": 80,
            "name": "G#5",
            "ticks": 40320,
            "time": 89.99991000000001,
            "velocity": 0.31496062992125984
          },
          {
            "duration": 0.21428550000000257,
            "durationTicks": 96,
            "midi": 85,
            "name": "C#6",
            "ticks": 40416,
            "time": 90.2141955,
            "velocity": 0.31496062992125984
          },
          {
            "duration": 0.10714275000000839,
            "durationTicks": 48,
            "midi": 74,
            "name": "D5",
            "ticks": 40512,
            "time": 90.428481,
            "velocity": 0.31496062992125984
          },
          {
            "duration": 0.10714274999999418,
            "durationTicks": 48,
            "midi": 74,
            "name": "D5",
            "ticks": 40608,
            "time": 90.64276650000001,
            "velocity": 0.31496062992125984
          },
          {
            "duration": 0.21428550000000257,
            "durationTicks": 96,
            "midi": 85,
            "name": "C#6",
            "ticks": 40656,
            "time": 90.74990925,
            "velocity": 0.31496062992125984
          },
          {
            "duration": 0.10714275000000839,
            "durationTicks": 48,
            "midi": 81,
            "name": "A5",
            "ticks": 40752,
            "time": 90.96419475,
            "velocity": 0.31496062992125984
          },
          {
            "duration": 0.10714274999999418,
            "durationTicks": 48,
            "midi": 80,
            "name": "G#5",
            "ticks": 40800,
            "time": 91.07133750000001,
            "velocity": 0.31496062992125984
          },
          {
            "duration": 0.10714274999999418,
            "durationTicks": 48,
            "midi": 78,
            "name": "F#5",
            "ticks": 40848,
            "time": 91.17848025,
            "velocity": 0.31496062992125984
          },
          {
            "duration": 0.10714275000000839,
            "durationTicks": 48,
            "midi": 80,
            "name": "G#5",
            "ticks": 40896,
            "time": 91.285623,
            "velocity": 0.31496062992125984
          },
          {
            "duration": 0.10714275000000839,
            "durationTicks": 48,
            "midi": 90,
            "name": "F#6",
            "ticks": 40992,
            "time": 91.4999085,
            "velocity": 0.31496062992125984
          },
          {
            "duration": 0.10714275000000839,
            "durationTicks": 48,
            "midi": 88,
            "name": "E6",
            "ticks": 41088,
            "time": 91.714194,
            "velocity": 0.31496062992125984
          },
          {
            "duration": 0.10714274999999418,
            "durationTicks": 48,
            "midi": 92,
            "name": "G#6",
            "ticks": 41184,
            "time": 91.92847950000001,
            "velocity": 0.31496062992125984
          },
          {
            "duration": 0.10714274999999418,
            "durationTicks": 48,
            "midi": 90,
            "name": "F#6",
            "ticks": 41280,
            "time": 92.14276500000001,
            "velocity": 0.31496062992125984
          },
          {
            "duration": 0.10714274999999418,
            "durationTicks": 48,
            "midi": 93,
            "name": "A6",
            "ticks": 41376,
            "time": 92.35705050000001,
            "velocity": 0.31496062992125984
          },
          {
            "duration": 0.42857100000000514,
            "durationTicks": 192,
            "midi": 95,
            "name": "B6",
            "ticks": 41472,
            "time": 92.571336,
            "velocity": 0.31496062992125984
          },
          {
            "duration": 0.10714274999999418,
            "durationTicks": 48,
            "midi": 93,
            "name": "A6",
            "ticks": 41664,
            "time": 92.99990700000001,
            "velocity": 0.31496062992125984
          },
          {
            "duration": 0.10714274999999418,
            "durationTicks": 48,
            "midi": 93,
            "name": "A6",
            "ticks": 41760,
            "time": 93.21419250000001,
            "velocity": 0.31496062992125984
          },
          {
            "duration": 0.10714275000000839,
            "durationTicks": 48,
            "midi": 92,
            "name": "G#6",
            "ticks": 41808,
            "time": 93.32133525,
            "velocity": 0.31496062992125984
          },
          {
            "duration": 0.10714274999999418,
            "durationTicks": 48,
            "midi": 92,
            "name": "G#6",
            "ticks": 41904,
            "time": 93.53562075,
            "velocity": 0.31496062992125984
          },
          {
            "duration": 0.10714275000000839,
            "durationTicks": 48,
            "midi": 90,
            "name": "F#6",
            "ticks": 41952,
            "time": 93.6427635,
            "velocity": 0.31496062992125984
          },
          {
            "duration": 0.10714275000000839,
            "durationTicks": 48,
            "midi": 92,
            "name": "G#6",
            "ticks": 42048,
            "time": 93.857049,
            "velocity": 0.31496062992125984
          },
          {
            "duration": 0.10714275000000839,
            "durationTicks": 48,
            "midi": 93,
            "name": "A6",
            "ticks": 42144,
            "time": 94.0713345,
            "velocity": 0.31496062992125984
          },
          {
            "duration": 0.37499962500000095,
            "durationTicks": 168,
            "midi": 81,
            "name": "A5",
            "ticks": 42240,
            "time": 94.28562000000001,
            "velocity": 0.31496062992125984
          },
          {
            "duration": 0.10714274999999418,
            "durationTicks": 48,
            "midi": 81,
            "name": "A5",
            "ticks": 42432,
            "time": 94.71419100000001,
            "velocity": 0.31496062992125984
          },
          {
            "duration": 0.10714275000000839,
            "durationTicks": 48,
            "midi": 81,
            "name": "A5",
            "ticks": 42528,
            "time": 94.9284765,
            "velocity": 0.31496062992125984
          },
          {
            "duration": 0.10714274999999418,
            "durationTicks": 48,
            "midi": 80,
            "name": "G#5",
            "ticks": 42576,
            "time": 95.03561925000001,
            "velocity": 0.31496062992125984
          },
          {
            "duration": 0.10714274999999418,
            "durationTicks": 48,
            "midi": 80,
            "name": "G#5",
            "ticks": 42672,
            "time": 95.24990475000001,
            "velocity": 0.31496062992125984
          },
          {
            "duration": 0.10714274999999418,
            "durationTicks": 48,
            "midi": 78,
            "name": "F#5",
            "ticks": 42720,
            "time": 95.35704750000001,
            "velocity": 0.31496062992125984
          },
          {
            "duration": 0.10714274999999418,
            "durationTicks": 48,
            "midi": 80,
            "name": "G#5",
            "ticks": 42816,
            "time": 95.57133300000001,
            "velocity": 0.31496062992125984
          },
          {
            "duration": 0.10714274999999418,
            "durationTicks": 48,
            "midi": 81,
            "name": "A5",
            "ticks": 42912,
            "time": 95.78561850000001,
            "velocity": 0.31496062992125984
          }
        ],
        "endOfTrackTicks": 42960
      },
      {
        "channel": 9,
        "controlChanges": {},
        "pitchBends": [],
        "instrument": {
          "family": "drums",
          "number": 0,
          "name": "standard kit"
        },
        "name": "8-Bit Drum Kit",
        "notes": [
          {
            "duration": 0.21428550000000257,
            "durationTicks": 96,
            "midi": 35,
            "name": "B1",
            "ticks": 18432,
            "time": 41.142816,
            "velocity": 0.1968503937007874
          },
          {
            "duration": 0.21428550000000257,
            "durationTicks": 96,
            "midi": 35,
            "name": "B1",
            "ticks": 18720,
            "time": 41.785672500000004,
            "velocity": 0.1968503937007874
          },
          {
            "duration": 0.21428549999999547,
            "durationTicks": 96,
            "midi": 38,
            "name": "D2",
            "ticks": 18816,
            "time": 41.99995800000001,
            "velocity": 0.1968503937007874
          },
          {
            "duration": 0.21428550000000257,
            "durationTicks": 96,
            "midi": 35,
            "name": "B1",
            "ticks": 19200,
            "time": 42.8571,
            "velocity": 0.1968503937007874
          },
          {
            "duration": 0.21428549999999547,
            "durationTicks": 96,
            "midi": 35,
            "name": "B1",
            "ticks": 19344,
            "time": 43.17852825000001,
            "velocity": 0.1968503937007874
          },
          {
            "duration": 0.21428550000000257,
            "durationTicks": 96,
            "midi": 35,
            "name": "B1",
            "ticks": 19488,
            "time": 43.4999565,
            "velocity": 0.1968503937007874
          },
          {
            "duration": 0.21428550000000257,
            "durationTicks": 96,
            "midi": 35,
            "name": "B1",
            "ticks": 19680,
            "time": 43.9285275,
            "velocity": 0.1968503937007874
          },
          {
            "duration": 0.21428550000000257,
            "durationTicks": 96,
            "midi": 38,
            "name": "D2",
            "ticks": 19776,
            "time": 44.142813000000004,
            "velocity": 0.1968503937007874
          },
          {
            "duration": 0.21428550000000257,
            "durationTicks": 96,
            "midi": 35,
            "name": "B1",
            "ticks": 19968,
            "time": 44.571384,
            "velocity": 0.1968503937007874
          },
          {
            "duration": 0.21428550000000257,
            "durationTicks": 96,
            "midi": 35,
            "name": "B1",
            "ticks": 20256,
            "time": 45.2142405,
            "velocity": 0.1968503937007874
          },
          {
            "duration": 0.21428549999999547,
            "durationTicks": 96,
            "midi": 38,
            "name": "D2",
            "ticks": 20352,
            "time": 45.428526000000005,
            "velocity": 0.1968503937007874
          },
          {
            "duration": 0.21428550000000257,
            "durationTicks": 96,
            "midi": 35,
            "name": "B1",
            "ticks": 20736,
            "time": 46.285668,
            "velocity": 0.1968503937007874
          },
          {
            "duration": 0.21428549999999547,
            "durationTicks": 96,
            "midi": 35,
            "name": "B1",
            "ticks": 20880,
            "time": 46.607096250000005,
            "velocity": 0.1968503937007874
          },
          {
            "duration": 0.21428550000000257,
            "durationTicks": 96,
            "midi": 35,
            "name": "B1",
            "ticks": 21024,
            "time": 46.9285245,
            "velocity": 0.1968503937007874
          },
          {
            "duration": 0.21428549999999547,
            "durationTicks": 96,
            "midi": 35,
            "name": "B1",
            "ticks": 21216,
            "time": 47.35709550000001,
            "velocity": 0.1968503937007874
          },
          {
            "duration": 0.21428550000000257,
            "durationTicks": 96,
            "midi": 38,
            "name": "D2",
            "ticks": 21312,
            "time": 47.571381,
            "velocity": 0.1968503937007874
          },
          {
            "duration": 0.21428549999999547,
            "durationTicks": 96,
            "midi": 35,
            "name": "B1",
            "ticks": 21504,
            "time": 47.99995200000001,
            "velocity": 0.1968503937007874
          },
          {
            "duration": 0.21428550000000257,
            "durationTicks": 96,
            "midi": 35,
            "name": "B1",
            "ticks": 21792,
            "time": 48.6428085,
            "velocity": 0.1968503937007874
          },
          {
            "duration": 0.21428550000000257,
            "durationTicks": 96,
            "midi": 38,
            "name": "D2",
            "ticks": 21888,
            "time": 48.857094000000004,
            "velocity": 0.1968503937007874
          },
          {
            "duration": 0.21428549999999547,
            "durationTicks": 96,
            "midi": 35,
            "name": "B1",
            "ticks": 22272,
            "time": 49.71423600000001,
            "velocity": 0.1968503937007874
          },
          {
            "duration": 0.21428550000000257,
            "durationTicks": 96,
            "midi": 35,
            "name": "B1",
            "ticks": 22416,
            "time": 50.03566425,
            "velocity": 0.1968503937007874
          },
          {
            "duration": 0.21428549999999547,
            "durationTicks": 96,
            "midi": 35,
            "name": "B1",
            "ticks": 22560,
            "time": 50.35709250000001,
            "velocity": 0.1968503937007874
          },
          {
            "duration": 0.21428549999999547,
            "durationTicks": 96,
            "midi": 35,
            "name": "B1",
            "ticks": 22752,
            "time": 50.785663500000005,
            "velocity": 0.1968503937007874
          },
          {
            "duration": 0.21428550000000257,
            "durationTicks": 96,
            "midi": 38,
            "name": "D2",
            "ticks": 22848,
            "time": 50.999949,
            "velocity": 0.1968503937007874
          },
          {
            "duration": 0.21428549999999547,
            "durationTicks": 96,
            "midi": 35,
            "name": "B1",
            "ticks": 23040,
            "time": 51.428520000000006,
            "velocity": 0.1968503937007874
          },
          {
            "duration": 0.21428549999999547,
            "durationTicks": 96,
            "midi": 35,
            "name": "B1",
            "ticks": 23328,
            "time": 52.07137650000001,
            "velocity": 0.1968503937007874
          },
          {
            "duration": 0.21428550000000257,
            "durationTicks": 96,
            "midi": 38,
            "name": "D2",
            "ticks": 23424,
            "time": 52.285662,
            "velocity": 0.1968503937007874
          },
          {
            "duration": 0.21428550000000257,
            "durationTicks": 96,
            "midi": 35,
            "name": "B1",
            "ticks": 23808,
            "time": 53.142804000000005,
            "velocity": 0.1968503937007874
          },
          {
            "duration": 0.21428550000000257,
            "durationTicks": 96,
            "midi": 35,
            "name": "B1",
            "ticks": 23952,
            "time": 53.46423225,
            "velocity": 0.1968503937007874
          },
          {
            "duration": 0.21428549999999547,
            "durationTicks": 96,
            "midi": 35,
            "name": "B1",
            "ticks": 24096,
            "time": 53.785660500000006,
            "velocity": 0.1968503937007874
          },
          {
            "duration": 0.21428550000000257,
            "durationTicks": 96,
            "midi": 35,
            "name": "B1",
            "ticks": 24288,
            "time": 54.214231500000004,
            "velocity": 0.1968503937007874
          },
          {
            "duration": 0.21428549999999547,
            "durationTicks": 96,
            "midi": 38,
            "name": "D2",
            "ticks": 24384,
            "time": 54.42851700000001,
            "velocity": 0.1968503937007874
          },
          {
            "duration": 0.21428550000000257,
            "durationTicks": 96,
            "midi": 35,
            "name": "B1",
            "ticks": 24576,
            "time": 54.857088000000005,
            "velocity": 0.1968503937007874
          },
          {
            "duration": 0.21428550000000257,
            "durationTicks": 96,
            "midi": 35,
            "name": "B1",
            "ticks": 24864,
            "time": 55.499944500000005,
            "velocity": 0.1968503937007874
          },
          {
            "duration": 0.21428549999999547,
            "durationTicks": 96,
            "midi": 38,
            "name": "D2",
            "ticks": 24960,
            "time": 55.71423000000001,
            "velocity": 0.1968503937007874
          },
          {
            "duration": 0.21428550000000257,
            "durationTicks": 96,
            "midi": 35,
            "name": "B1",
            "ticks": 25344,
            "time": 56.571372000000004,
            "velocity": 0.1968503937007874
          },
          {
            "duration": 0.21428549999999547,
            "durationTicks": 96,
            "midi": 35,
            "name": "B1",
            "ticks": 25488,
            "time": 56.89280025000001,
            "velocity": 0.1968503937007874
          },
          {
            "duration": 0.21428550000000257,
            "durationTicks": 96,
            "midi": 35,
            "name": "B1",
            "ticks": 25632,
            "time": 57.214228500000004,
            "velocity": 0.1968503937007874
          },
          {
            "duration": 0.21428550000000257,
            "durationTicks": 96,
            "midi": 35,
            "name": "B1",
            "ticks": 25824,
            "time": 57.6427995,
            "velocity": 0.1968503937007874
          },
          {
            "duration": 0.21428550000000257,
            "durationTicks": 96,
            "midi": 38,
            "name": "D2",
            "ticks": 25920,
            "time": 57.857085000000005,
            "velocity": 0.1968503937007874
          },
          {
            "duration": 0.21428550000000257,
            "durationTicks": 96,
            "midi": 35,
            "name": "B1",
            "ticks": 26112,
            "time": 58.285656,
            "velocity": 0.1968503937007874
          },
          {
            "duration": 0.21428550000000257,
            "durationTicks": 96,
            "midi": 35,
            "name": "B1",
            "ticks": 26400,
            "time": 58.928512500000004,
            "velocity": 0.1968503937007874
          },
          {
            "duration": 0.21428549999999547,
            "durationTicks": 96,
            "midi": 38,
            "name": "D2",
            "ticks": 26496,
            "time": 59.142798000000006,
            "velocity": 0.1968503937007874
          },
          {
            "duration": 0.21428550000000257,
            "durationTicks": 96,
            "midi": 35,
            "name": "B1",
            "ticks": 26880,
            "time": 59.99994,
            "velocity": 0.1968503937007874
          },
          {
            "duration": 0.21428549999999547,
            "durationTicks": 96,
            "midi": 35,
            "name": "B1",
            "ticks": 27024,
            "time": 60.321368250000006,
            "velocity": 0.1968503937007874
          },
          {
            "duration": 0.21428550000000257,
            "durationTicks": 96,
            "midi": 35,
            "name": "B1",
            "ticks": 27168,
            "time": 60.6427965,
            "velocity": 0.1968503937007874
          },
          {
            "duration": 0.21428549999999547,
            "durationTicks": 96,
            "midi": 35,
            "name": "B1",
            "ticks": 27360,
            "time": 61.07136750000001,
            "velocity": 0.1968503937007874
          },
          {
            "duration": 0.21428550000000257,
            "durationTicks": 96,
            "midi": 38,
            "name": "D2",
            "ticks": 27456,
            "time": 61.285653,
            "velocity": 0.1968503937007874
          },
          {
            "duration": 0.21428550000000257,
            "durationTicks": 96,
            "midi": 35,
            "name": "B1",
            "ticks": 27648,
            "time": 61.714224,
            "velocity": 0.1968503937007874
          },
          {
            "duration": 0.21428550000000257,
            "durationTicks": 96,
            "midi": 35,
            "name": "B1",
            "ticks": 27936,
            "time": 62.3570805,
            "velocity": 0.1968503937007874
          },
          {
            "duration": 0.21428550000000257,
            "durationTicks": 96,
            "midi": 38,
            "name": "D2",
            "ticks": 28032,
            "time": 62.571366000000005,
            "velocity": 0.1968503937007874
          },
          {
            "duration": 0.21428549999999547,
            "durationTicks": 96,
            "midi": 35,
            "name": "B1",
            "ticks": 28416,
            "time": 63.42850800000001,
            "velocity": 0.1968503937007874
          },
          {
            "duration": 0.21428550000000257,
            "durationTicks": 96,
            "midi": 35,
            "name": "B1",
            "ticks": 28560,
            "time": 63.749936250000005,
            "velocity": 0.1968503937007874
          },
          {
            "duration": 0.21428550000000257,
            "durationTicks": 96,
            "midi": 35,
            "name": "B1",
            "ticks": 28704,
            "time": 64.0713645,
            "velocity": 0.1968503937007874
          },
          {
            "duration": 0.21428550000000257,
            "durationTicks": 96,
            "midi": 35,
            "name": "B1",
            "ticks": 28896,
            "time": 64.4999355,
            "velocity": 0.1968503937007874
          },
          {
            "duration": 0.21428550000000257,
            "durationTicks": 96,
            "midi": 38,
            "name": "D2",
            "ticks": 28992,
            "time": 64.71422100000001,
            "velocity": 0.1968503937007874
          },
          {
            "duration": 0.21428550000000257,
            "durationTicks": 96,
            "midi": 35,
            "name": "B1",
            "ticks": 29184,
            "time": 65.142792,
            "velocity": 0.1968503937007874
          },
          {
            "duration": 0.21428550000000257,
            "durationTicks": 96,
            "midi": 35,
            "name": "B1",
            "ticks": 29472,
            "time": 65.78564850000001,
            "velocity": 0.1968503937007874
          },
          {
            "duration": 0.21428549999998836,
            "durationTicks": 96,
            "midi": 38,
            "name": "D2",
            "ticks": 29568,
            "time": 65.99993400000001,
            "velocity": 0.1968503937007874
          },
          {
            "duration": 0.21428550000000257,
            "durationTicks": 96,
            "midi": 35,
            "name": "B1",
            "ticks": 29952,
            "time": 66.857076,
            "velocity": 0.1968503937007874
          },
          {
            "duration": 0.21428550000000257,
            "durationTicks": 96,
            "midi": 35,
            "name": "B1",
            "ticks": 30096,
            "time": 67.17850425,
            "velocity": 0.1968503937007874
          },
          {
            "duration": 0.21428550000000257,
            "durationTicks": 96,
            "midi": 35,
            "name": "B1",
            "ticks": 30240,
            "time": 67.4999325,
            "velocity": 0.1968503937007874
          },
          {
            "duration": 0.21428550000000257,
            "durationTicks": 96,
            "midi": 35,
            "name": "B1",
            "ticks": 30432,
            "time": 67.9285035,
            "velocity": 0.1968503937007874
          },
          {
            "duration": 0.21428550000000257,
            "durationTicks": 96,
            "midi": 38,
            "name": "D2",
            "ticks": 30528,
            "time": 68.14278900000001,
            "velocity": 0.1968503937007874
          },
          {
            "duration": 0.21428550000000257,
            "durationTicks": 96,
            "midi": 35,
            "name": "B1",
            "ticks": 30720,
            "time": 68.57136,
            "velocity": 0.1968503937007874
          },
          {
            "duration": 0.10714275000000839,
            "durationTicks": 48,
            "midi": 42,
            "name": "F#2",
            "ticks": 30720,
            "time": 68.57136,
            "velocity": 0.1968503937007874
          },
          {
            "duration": 0.10714275000000839,
            "durationTicks": 48,
            "midi": 42,
            "name": "F#2",
            "ticks": 30816,
            "time": 68.7856455,
            "velocity": 0.1968503937007874
          },
          {
            "duration": 0.10714274999999418,
            "durationTicks": 48,
            "midi": 42,
            "name": "F#2",
            "ticks": 30864,
            "time": 68.89278825000001,
            "velocity": 0.1968503937007874
          },
          {
            "duration": 0.10714274999999418,
            "durationTicks": 48,
            "midi": 42,
            "name": "F#2",
            "ticks": 30960,
            "time": 69.10707375000001,
            "velocity": 0.1968503937007874
          },
          {
            "duration": 0.10714274999999418,
            "durationTicks": 48,
            "midi": 42,
            "name": "F#2",
            "ticks": 31008,
            "time": 69.2142165,
            "velocity": 0.1968503937007874
          },
          {
            "duration": 0.21428550000000257,
            "durationTicks": 96,
            "midi": 35,
            "name": "B1",
            "ticks": 31008,
            "time": 69.2142165,
            "velocity": 0.1968503937007874
          },
          {
            "duration": 0.10714275000000839,
            "durationTicks": 48,
            "midi": 42,
            "name": "F#2",
            "ticks": 31056,
            "time": 69.32135925,
            "velocity": 0.1968503937007874
          },
          {
            "duration": 0.21428550000000257,
            "durationTicks": 96,
            "midi": 38,
            "name": "D2",
            "ticks": 31104,
            "time": 69.42850200000001,
            "velocity": 0.1968503937007874
          },
          {
            "duration": 0.10714274999999418,
            "durationTicks": 48,
            "midi": 42,
            "name": "F#2",
            "ticks": 31104,
            "time": 69.42850200000001,
            "velocity": 0.1968503937007874
          },
          {
            "duration": 0.10714274999999418,
            "durationTicks": 48,
            "midi": 42,
            "name": "F#2",
            "ticks": 31200,
            "time": 69.64278750000001,
            "velocity": 0.1968503937007874
          },
          {
            "duration": 0.21428550000000257,
            "durationTicks": 96,
            "midi": 35,
            "name": "B1",
            "ticks": 31488,
            "time": 70.285644,
            "velocity": 0.1968503937007874
          },
          {
            "duration": 0.10714274999999418,
            "durationTicks": 48,
            "midi": 42,
            "name": "F#2",
            "ticks": 31488,
            "time": 70.285644,
            "velocity": 0.1968503937007874
          },
          {
            "duration": 0.10714274999999418,
            "durationTicks": 48,
            "midi": 42,
            "name": "F#2",
            "ticks": 31584,
            "time": 70.49992950000001,
            "velocity": 0.1968503937007874
          },
          {
            "duration": 0.10714275000000839,
            "durationTicks": 48,
            "midi": 42,
            "name": "F#2",
            "ticks": 31632,
            "time": 70.60707225,
            "velocity": 0.1968503937007874
          },
          {
            "duration": 0.21428550000000257,
            "durationTicks": 96,
            "midi": 35,
            "name": "B1",
            "ticks": 31632,
            "time": 70.60707225,
            "velocity": 0.1968503937007874
          },
          {
            "duration": 0.10714275000000839,
            "durationTicks": 48,
            "midi": 42,
            "name": "F#2",
            "ticks": 31728,
            "time": 70.82135775,
            "velocity": 0.1968503937007874
          },
          {
            "duration": 0.21428549999998836,
            "durationTicks": 96,
            "midi": 35,
            "name": "B1",
            "ticks": 31776,
            "time": 70.92850050000001,
            "velocity": 0.1968503937007874
          },
          {
            "duration": 0.10714274999999418,
            "durationTicks": 48,
            "midi": 42,
            "name": "F#2",
            "ticks": 31776,
            "time": 70.92850050000001,
            "velocity": 0.1968503937007874
          },
          {
            "duration": 0.10714274999999418,
            "durationTicks": 48,
            "midi": 42,
            "name": "F#2",
            "ticks": 31824,
            "time": 71.03564325,
            "velocity": 0.1968503937007874
          },
          {
            "duration": 0.10714275000000839,
            "durationTicks": 48,
            "midi": 42,
            "name": "F#2",
            "ticks": 31872,
            "time": 71.142786,
            "velocity": 0.1968503937007874
          },
          {
            "duration": 0.10714275000000839,
            "durationTicks": 48,
            "midi": 42,
            "name": "F#2",
            "ticks": 31968,
            "time": 71.3570715,
            "velocity": 0.1968503937007874
          },
          {
            "duration": 0.21428550000000257,
            "durationTicks": 96,
            "midi": 35,
            "name": "B1",
            "ticks": 31968,
            "time": 71.3570715,
            "velocity": 0.1968503937007874
          },
          {
            "duration": 0.21428550000000257,
            "durationTicks": 96,
            "midi": 38,
            "name": "D2",
            "ticks": 32064,
            "time": 71.571357,
            "velocity": 0.1968503937007874
          },
          {
            "duration": 0.10714274999999418,
            "durationTicks": 48,
            "midi": 42,
            "name": "F#2",
            "ticks": 32256,
            "time": 71.99992800000001,
            "velocity": 0.1968503937007874
          },
          {
            "duration": 0.21428549999998836,
            "durationTicks": 96,
            "midi": 35,
            "name": "B1",
            "ticks": 32256,
            "time": 71.99992800000001,
            "velocity": 0.1968503937007874
          },
          {
            "duration": 0.10714275000000839,
            "durationTicks": 48,
            "midi": 42,
            "name": "F#2",
            "ticks": 32352,
            "time": 72.2142135,
            "velocity": 0.1968503937007874
          },
          {
            "duration": 0.10714274999999418,
            "durationTicks": 48,
            "midi": 42,
            "name": "F#2",
            "ticks": 32400,
            "time": 72.32135625000001,
            "velocity": 0.1968503937007874
          },
          {
            "duration": 0.10714274999999418,
            "durationTicks": 48,
            "midi": 42,
            "name": "F#2",
            "ticks": 32496,
            "time": 72.53564175000001,
            "velocity": 0.1968503937007874
          },
          {
            "duration": 0.10714274999999418,
            "durationTicks": 48,
            "midi": 42,
            "name": "F#2",
            "ticks": 32544,
            "time": 72.6427845,
            "velocity": 0.1968503937007874
          },
          {
            "duration": 0.21428550000000257,
            "durationTicks": 96,
            "midi": 35,
            "name": "B1",
            "ticks": 32544,
            "time": 72.6427845,
            "velocity": 0.1968503937007874
          },
          {
            "duration": 0.10714275000000839,
            "durationTicks": 48,
            "midi": 42,
            "name": "F#2",
            "ticks": 32592,
            "time": 72.74992725,
            "velocity": 0.1968503937007874
          },
          {
            "duration": 0.21428550000000257,
            "durationTicks": 96,
            "midi": 38,
            "name": "D2",
            "ticks": 32640,
            "time": 72.85707000000001,
            "velocity": 0.1968503937007874
          },
          {
            "duration": 0.10714274999999418,
            "durationTicks": 48,
            "midi": 42,
            "name": "F#2",
            "ticks": 32640,
            "time": 72.85707000000001,
            "velocity": 0.1968503937007874
          },
          {
            "duration": 0.10714274999999418,
            "durationTicks": 48,
            "midi": 42,
            "name": "F#2",
            "ticks": 32736,
            "time": 73.07135550000001,
            "velocity": 0.1968503937007874
          },
          {
            "duration": 0.10714275000000839,
            "durationTicks": 48,
            "midi": 42,
            "name": "F#2",
            "ticks": 33024,
            "time": 73.714212,
            "velocity": 0.1968503937007874
          },
          {
            "duration": 0.21428550000000257,
            "durationTicks": 96,
            "midi": 35,
            "name": "B1",
            "ticks": 33024,
            "time": 73.714212,
            "velocity": 0.1968503937007874
          },
          {
            "duration": 0.10714274999999418,
            "durationTicks": 48,
            "midi": 42,
            "name": "F#2",
            "ticks": 33120,
            "time": 73.9284975,
            "velocity": 0.1968503937007874
          },
          {
            "duration": 0.10714275000000839,
            "durationTicks": 48,
            "midi": 42,
            "name": "F#2",
            "ticks": 33168,
            "time": 74.03564025,
            "velocity": 0.1968503937007874
          },
          {
            "duration": 0.21428550000000257,
            "durationTicks": 96,
            "midi": 35,
            "name": "B1",
            "ticks": 33168,
            "time": 74.03564025,
            "velocity": 0.1968503937007874
          },
          {
            "duration": 0.10714275000000839,
            "durationTicks": 48,
            "midi": 42,
            "name": "F#2",
            "ticks": 33264,
            "time": 74.24992575,
            "velocity": 0.1968503937007874
          },
          {
            "duration": 0.21428549999998836,
            "durationTicks": 96,
            "midi": 35,
            "name": "B1",
            "ticks": 33312,
            "time": 74.35706850000001,
            "velocity": 0.1968503937007874
          },
          {
            "duration": 0.10714274999999418,
            "durationTicks": 48,
            "midi": 42,
            "name": "F#2",
            "ticks": 33312,
            "time": 74.35706850000001,
            "velocity": 0.1968503937007874
          },
          {
            "duration": 0.10714274999999418,
            "durationTicks": 48,
            "midi": 42,
            "name": "F#2",
            "ticks": 33360,
            "time": 74.46421125,
            "velocity": 0.1968503937007874
          },
          {
            "duration": 0.10714275000000839,
            "durationTicks": 48,
            "midi": 42,
            "name": "F#2",
            "ticks": 33408,
            "time": 74.571354,
            "velocity": 0.1968503937007874
          },
          {
            "duration": 0.21428550000000257,
            "durationTicks": 96,
            "midi": 35,
            "name": "B1",
            "ticks": 33504,
            "time": 74.7856395,
            "velocity": 0.1968503937007874
          },
          {
            "duration": 0.10714275000000839,
            "durationTicks": 48,
            "midi": 42,
            "name": "F#2",
            "ticks": 33504,
            "time": 74.7856395,
            "velocity": 0.1968503937007874
          },
          {
            "duration": 0.21428550000000257,
            "durationTicks": 96,
            "midi": 38,
            "name": "D2",
            "ticks": 33600,
            "time": 74.999925,
            "velocity": 0.1968503937007874
          },
          {
            "duration": 0.21428550000000257,
            "durationTicks": 96,
            "midi": 35,
            "name": "B1",
            "ticks": 33792,
            "time": 75.42849600000001,
            "velocity": 0.1968503937007874
          },
          {
            "duration": 0.10714274999999418,
            "durationTicks": 48,
            "midi": 42,
            "name": "F#2",
            "ticks": 33792,
            "time": 75.42849600000001,
            "velocity": 0.1968503937007874
          },
          {
            "duration": 0.10714274999999418,
            "durationTicks": 48,
            "midi": 42,
            "name": "F#2",
            "ticks": 33888,
            "time": 75.64278150000001,
            "velocity": 0.1968503937007874
          },
          {
            "duration": 0.10714274999999418,
            "durationTicks": 48,
            "midi": 42,
            "name": "F#2",
            "ticks": 33936,
            "time": 75.74992425,
            "velocity": 0.1968503937007874
          },
          {
            "duration": 0.10714274999999418,
            "durationTicks": 48,
            "midi": 42,
            "name": "F#2",
            "ticks": 34032,
            "time": 75.96420975000001,
            "velocity": 0.1968503937007874
          },
          {
            "duration": 0.10714275000000839,
            "durationTicks": 48,
            "midi": 42,
            "name": "F#2",
            "ticks": 34080,
            "time": 76.0713525,
            "velocity": 0.1968503937007874
          },
          {
            "duration": 0.21428550000000257,
            "durationTicks": 96,
            "midi": 35,
            "name": "B1",
            "ticks": 34080,
            "time": 76.0713525,
            "velocity": 0.1968503937007874
          },
          {
            "duration": 0.10714274999999418,
            "durationTicks": 48,
            "midi": 42,
            "name": "F#2",
            "ticks": 34128,
            "time": 76.17849525000001,
            "velocity": 0.1968503937007874
          },
          {
            "duration": 0.10714274999999418,
            "durationTicks": 48,
            "midi": 42,
            "name": "F#2",
            "ticks": 34176,
            "time": 76.285638,
            "velocity": 0.1968503937007874
          },
          {
            "duration": 0.21428550000000257,
            "durationTicks": 96,
            "midi": 38,
            "name": "D2",
            "ticks": 34176,
            "time": 76.285638,
            "velocity": 0.1968503937007874
          },
          {
            "duration": 0.10714274999999418,
            "durationTicks": 48,
            "midi": 42,
            "name": "F#2",
            "ticks": 34272,
            "time": 76.49992350000001,
            "velocity": 0.1968503937007874
          },
          {
            "duration": 0.21428550000000257,
            "durationTicks": 96,
            "midi": 35,
            "name": "B1",
            "ticks": 34560,
            "time": 77.14278,
            "velocity": 0.1968503937007874
          },
          {
            "duration": 0.10714275000000839,
            "durationTicks": 48,
            "midi": 42,
            "name": "F#2",
            "ticks": 34560,
            "time": 77.14278,
            "velocity": 0.1968503937007874
          },
          {
            "duration": 0.10714275000000839,
            "durationTicks": 48,
            "midi": 42,
            "name": "F#2",
            "ticks": 34656,
            "time": 77.3570655,
            "velocity": 0.1968503937007874
          },
          {
            "duration": 0.21428549999998836,
            "durationTicks": 96,
            "midi": 35,
            "name": "B1",
            "ticks": 34704,
            "time": 77.46420825000001,
            "velocity": 0.1968503937007874
          },
          {
            "duration": 0.10714274999999418,
            "durationTicks": 48,
            "midi": 42,
            "name": "F#2",
            "ticks": 34704,
            "time": 77.46420825000001,
            "velocity": 0.1968503937007874
          },
          {
            "duration": 0.10714275000000839,
            "durationTicks": 48,
            "midi": 42,
            "name": "F#2",
            "ticks": 34800,
            "time": 77.67849375,
            "velocity": 0.1968503937007874
          },
          {
            "duration": 0.21428550000000257,
            "durationTicks": 96,
            "midi": 35,
            "name": "B1",
            "ticks": 34848,
            "time": 77.78563650000001,
            "velocity": 0.1968503937007874
          },
          {
            "duration": 0.10714274999999418,
            "durationTicks": 48,
            "midi": 42,
            "name": "F#2",
            "ticks": 34848,
            "time": 77.78563650000001,
            "velocity": 0.1968503937007874
          },
          {
            "duration": 0.10714275000000839,
            "durationTicks": 48,
            "midi": 42,
            "name": "F#2",
            "ticks": 34896,
            "time": 77.89277925,
            "velocity": 0.1968503937007874
          },
          {
            "duration": 0.10714274999999418,
            "durationTicks": 48,
            "midi": 42,
            "name": "F#2",
            "ticks": 34944,
            "time": 77.99992200000001,
            "velocity": 0.1968503937007874
          },
          {
            "duration": 0.10714275000000839,
            "durationTicks": 48,
            "midi": 42,
            "name": "F#2",
            "ticks": 35040,
            "time": 78.2142075,
            "velocity": 0.1968503937007874
          },
          {
            "duration": 0.21428550000000257,
            "durationTicks": 96,
            "midi": 35,
            "name": "B1",
            "ticks": 35040,
            "time": 78.2142075,
            "velocity": 0.1968503937007874
          },
          {
            "duration": 0.21428550000000257,
            "durationTicks": 96,
            "midi": 38,
            "name": "D2",
            "ticks": 35136,
            "time": 78.428493,
            "velocity": 0.1968503937007874
          },
          {
            "duration": 0.21428550000000257,
            "durationTicks": 96,
            "midi": 35,
            "name": "B1",
            "ticks": 35328,
            "time": 78.85706400000001,
            "velocity": 0.1968503937007874
          },
          {
            "duration": 0.10714274999999418,
            "durationTicks": 48,
            "midi": 42,
            "name": "F#2",
            "ticks": 35328,
            "time": 78.85706400000001,
            "velocity": 0.1968503937007874
          },
          {
            "duration": 0.10714274999999418,
            "durationTicks": 48,
            "midi": 42,
            "name": "F#2",
            "ticks": 35424,
            "time": 79.07134950000001,
            "velocity": 0.1968503937007874
          },
          {
            "duration": 0.10714275000000839,
            "durationTicks": 48,
            "midi": 42,
            "name": "F#2",
            "ticks": 35472,
            "time": 79.17849225,
            "velocity": 0.1968503937007874
          },
          {
            "duration": 0.10714274999999418,
            "durationTicks": 48,
            "midi": 42,
            "name": "F#2",
            "ticks": 35568,
            "time": 79.39277775000001,
            "velocity": 0.1968503937007874
          },
          {
            "duration": 0.10714275000000839,
            "durationTicks": 48,
            "midi": 42,
            "name": "F#2",
            "ticks": 35616,
            "time": 79.4999205,
            "velocity": 0.1968503937007874
          },
          {
            "duration": 0.21428550000000257,
            "durationTicks": 96,
            "midi": 35,
            "name": "B1",
            "ticks": 35616,
            "time": 79.4999205,
            "velocity": 0.1968503937007874
          },
          {
            "duration": 0.10714274999999418,
            "durationTicks": 48,
            "midi": 42,
            "name": "F#2",
            "ticks": 35664,
            "time": 79.60706325000001,
            "velocity": 0.1968503937007874
          },
          {
            "duration": 0.10714275000000839,
            "durationTicks": 48,
            "midi": 42,
            "name": "F#2",
            "ticks": 35712,
            "time": 79.714206,
            "velocity": 0.1968503937007874
          },
          {
            "duration": 0.21428550000000257,
            "durationTicks": 96,
            "midi": 38,
            "name": "D2",
            "ticks": 35712,
            "time": 79.714206,
            "velocity": 0.1968503937007874
          },
          {
            "duration": 0.10714274999999418,
            "durationTicks": 48,
            "midi": 42,
            "name": "F#2",
            "ticks": 35808,
            "time": 79.9284915,
            "velocity": 0.1968503937007874
          },
          {
            "duration": 0.21428550000000257,
            "durationTicks": 96,
            "midi": 35,
            "name": "B1",
            "ticks": 36096,
            "time": 80.571348,
            "velocity": 0.1968503937007874
          },
          {
            "duration": 0.10714275000000839,
            "durationTicks": 48,
            "midi": 42,
            "name": "F#2",
            "ticks": 36096,
            "time": 80.571348,
            "velocity": 0.1968503937007874
          },
          {
            "duration": 0.10714275000000839,
            "durationTicks": 48,
            "midi": 42,
            "name": "F#2",
            "ticks": 36192,
            "time": 80.7856335,
            "velocity": 0.1968503937007874
          },
          {
            "duration": 0.21428549999998836,
            "durationTicks": 96,
            "midi": 35,
            "name": "B1",
            "ticks": 36240,
            "time": 80.89277625000001,
            "velocity": 0.1968503937007874
          },
          {
            "duration": 0.10714274999999418,
            "durationTicks": 48,
            "midi": 42,
            "name": "F#2",
            "ticks": 36240,
            "time": 80.89277625000001,
            "velocity": 0.1968503937007874
          },
          {
            "duration": 0.10714275000000839,
            "durationTicks": 48,
            "midi": 42,
            "name": "F#2",
            "ticks": 36336,
            "time": 81.10706175,
            "velocity": 0.1968503937007874
          },
          {
            "duration": 0.10714274999999418,
            "durationTicks": 48,
            "midi": 42,
            "name": "F#2",
            "ticks": 36384,
            "time": 81.21420450000001,
            "velocity": 0.1968503937007874
          },
          {
            "duration": 0.21428550000000257,
            "durationTicks": 96,
            "midi": 35,
            "name": "B1",
            "ticks": 36384,
            "time": 81.21420450000001,
            "velocity": 0.1968503937007874
          },
          {
            "duration": 0.10714275000000839,
            "durationTicks": 48,
            "midi": 42,
            "name": "F#2",
            "ticks": 36432,
            "time": 81.32134725,
            "velocity": 0.1968503937007874
          },
          {
            "duration": 0.10714274999999418,
            "durationTicks": 48,
            "midi": 42,
            "name": "F#2",
            "ticks": 36480,
            "time": 81.42849000000001,
            "velocity": 0.1968503937007874
          },
          {
            "duration": 0.21428549999998836,
            "durationTicks": 96,
            "midi": 35,
            "name": "B1",
            "ticks": 36576,
            "time": 81.64277550000001,
            "velocity": 0.1968503937007874
          },
          {
            "duration": 0.10714274999999418,
            "durationTicks": 48,
            "midi": 42,
            "name": "F#2",
            "ticks": 36576,
            "time": 81.64277550000001,
            "velocity": 0.1968503937007874
          },
          {
            "duration": 0.21428550000000257,
            "durationTicks": 96,
            "midi": 38,
            "name": "D2",
            "ticks": 36672,
            "time": 81.857061,
            "velocity": 0.1968503937007874
          },
          {
            "duration": 0.21428550000000257,
            "durationTicks": 96,
            "midi": 35,
            "name": "B1",
            "ticks": 36864,
            "time": 82.285632,
            "velocity": 0.1968503937007874
          },
          {
            "duration": 0.10714274999999418,
            "durationTicks": 48,
            "midi": 42,
            "name": "F#2",
            "ticks": 36864,
            "time": 82.285632,
            "velocity": 0.1968503937007874
          },
          {
            "duration": 0.10714274999999418,
            "durationTicks": 48,
            "midi": 42,
            "name": "F#2",
            "ticks": 36960,
            "time": 82.49991750000001,
            "velocity": 0.1968503937007874
          },
          {
            "duration": 0.10714275000000839,
            "durationTicks": 48,
            "midi": 42,
            "name": "F#2",
            "ticks": 37008,
            "time": 82.60706025,
            "velocity": 0.1968503937007874
          },
          {
            "duration": 0.10714274999999418,
            "durationTicks": 48,
            "midi": 42,
            "name": "F#2",
            "ticks": 37104,
            "time": 82.82134575,
            "velocity": 0.1968503937007874
          },
          {
            "duration": 0.21428550000000257,
            "durationTicks": 96,
            "midi": 35,
            "name": "B1",
            "ticks": 37152,
            "time": 82.9284885,
            "velocity": 0.1968503937007874
          },
          {
            "duration": 0.10714275000000839,
            "durationTicks": 48,
            "midi": 42,
            "name": "F#2",
            "ticks": 37152,
            "time": 82.9284885,
            "velocity": 0.1968503937007874
          },
          {
            "duration": 0.10714274999999418,
            "durationTicks": 48,
            "midi": 42,
            "name": "F#2",
            "ticks": 37200,
            "time": 83.03563125000001,
            "velocity": 0.1968503937007874
          },
          {
            "duration": 0.10714275000000839,
            "durationTicks": 48,
            "midi": 42,
            "name": "F#2",
            "ticks": 37248,
            "time": 83.142774,
            "velocity": 0.1968503937007874
          },
          {
            "duration": 0.21428550000000257,
            "durationTicks": 96,
            "midi": 38,
            "name": "D2",
            "ticks": 37248,
            "time": 83.142774,
            "velocity": 0.1968503937007874
          },
          {
            "duration": 0.10714275000000839,
            "durationTicks": 48,
            "midi": 42,
            "name": "F#2",
            "ticks": 37344,
            "time": 83.3570595,
            "velocity": 0.1968503937007874
          },
          {
            "duration": 0.21428549999998836,
            "durationTicks": 96,
            "midi": 35,
            "name": "B1",
            "ticks": 37632,
            "time": 83.99991600000001,
            "velocity": 0.1968503937007874
          },
          {
            "duration": 0.10714274999999418,
            "durationTicks": 48,
            "midi": 42,
            "name": "F#2",
            "ticks": 37632,
            "time": 83.99991600000001,
            "velocity": 0.1968503937007874
          },
          {
            "duration": 0.10714275000000839,
            "durationTicks": 48,
            "midi": 42,
            "name": "F#2",
            "ticks": 37728,
            "time": 84.2142015,
            "velocity": 0.1968503937007874
          },
          {
            "duration": 0.10714274999999418,
            "durationTicks": 48,
            "midi": 42,
            "name": "F#2",
            "ticks": 37776,
            "time": 84.32134425000001,
            "velocity": 0.1968503937007874
          },
          {
            "duration": 0.21428550000000257,
            "durationTicks": 96,
            "midi": 35,
            "name": "B1",
            "ticks": 37776,
            "time": 84.32134425000001,
            "velocity": 0.1968503937007874
          },
          {
            "duration": 0.10714274999999418,
            "durationTicks": 48,
            "midi": 42,
            "name": "F#2",
            "ticks": 37872,
            "time": 84.53562975000001,
            "velocity": 0.1968503937007874
          },
          {
            "duration": 0.21428550000000257,
            "durationTicks": 96,
            "midi": 35,
            "name": "B1",
            "ticks": 37920,
            "time": 84.6427725,
            "velocity": 0.1968503937007874
          },
          {
            "duration": 0.10714274999999418,
            "durationTicks": 48,
            "midi": 42,
            "name": "F#2",
            "ticks": 37920,
            "time": 84.6427725,
            "velocity": 0.1968503937007874
          },
          {
            "duration": 0.10714275000000839,
            "durationTicks": 48,
            "midi": 42,
            "name": "F#2",
            "ticks": 37968,
            "time": 84.74991525,
            "velocity": 0.1968503937007874
          },
          {
            "duration": 0.10714274999999418,
            "durationTicks": 48,
            "midi": 42,
            "name": "F#2",
            "ticks": 38016,
            "time": 84.85705800000001,
            "velocity": 0.1968503937007874
          },
          {
            "duration": 0.21428549999998836,
            "durationTicks": 96,
            "midi": 35,
            "name": "B1",
            "ticks": 38112,
            "time": 85.07134350000001,
            "velocity": 0.1968503937007874
          },
          {
            "duration": 0.10714274999999418,
            "durationTicks": 48,
            "midi": 42,
            "name": "F#2",
            "ticks": 38112,
            "time": 85.07134350000001,
            "velocity": 0.1968503937007874
          },
          {
            "duration": 0.21428550000000257,
            "durationTicks": 96,
            "midi": 38,
            "name": "D2",
            "ticks": 38208,
            "time": 85.285629,
            "velocity": 0.1968503937007874
          },
          {
            "duration": 0.21428550000000257,
            "durationTicks": 96,
            "midi": 35,
            "name": "B1",
            "ticks": 38400,
            "time": 85.7142,
            "velocity": 0.1968503937007874
          },
          {
            "duration": 0.10714275000000839,
            "durationTicks": 48,
            "midi": 42,
            "name": "F#2",
            "ticks": 38400,
            "time": 85.7142,
            "velocity": 0.1968503937007874
          },
          {
            "duration": 0.10714274999999418,
            "durationTicks": 48,
            "midi": 42,
            "name": "F#2",
            "ticks": 38496,
            "time": 85.92848550000001,
            "velocity": 0.1968503937007874
          },
          {
            "duration": 0.10714275000000839,
            "durationTicks": 48,
            "midi": 42,
            "name": "F#2",
            "ticks": 38544,
            "time": 86.03562825,
            "velocity": 0.1968503937007874
          },
          {
            "duration": 0.10714275000000839,
            "durationTicks": 48,
            "midi": 42,
            "name": "F#2",
            "ticks": 38640,
            "time": 86.24991375,
            "velocity": 0.1968503937007874
          },
          {
            "duration": 0.10714274999999418,
            "durationTicks": 48,
            "midi": 42,
            "name": "F#2",
            "ticks": 38688,
            "time": 86.35705650000001,
            "velocity": 0.1968503937007874
          },
          {
            "duration": 0.21428549999998836,
            "durationTicks": 96,
            "midi": 35,
            "name": "B1",
            "ticks": 38688,
            "time": 86.35705650000001,
            "velocity": 0.1968503937007874
          },
          {
            "duration": 0.10714274999999418,
            "durationTicks": 48,
            "midi": 42,
            "name": "F#2",
            "ticks": 38736,
            "time": 86.46419925000001,
            "velocity": 0.1968503937007874
          },
          {
            "duration": 0.21428550000000257,
            "durationTicks": 96,
            "midi": 38,
            "name": "D2",
            "ticks": 38784,
            "time": 86.571342,
            "velocity": 0.1968503937007874
          },
          {
            "duration": 0.10714275000000839,
            "durationTicks": 48,
            "midi": 42,
            "name": "F#2",
            "ticks": 38784,
            "time": 86.571342,
            "velocity": 0.1968503937007874
          },
          {
            "duration": 0.10714275000000839,
            "durationTicks": 48,
            "midi": 42,
            "name": "F#2",
            "ticks": 38880,
            "time": 86.7856275,
            "velocity": 0.1968503937007874
          },
          {
            "duration": 0.10714274999999418,
            "durationTicks": 48,
            "midi": 42,
            "name": "F#2",
            "ticks": 39168,
            "time": 87.42848400000001,
            "velocity": 0.1968503937007874
          },
          {
            "duration": 0.21428550000000257,
            "durationTicks": 96,
            "midi": 35,
            "name": "B1",
            "ticks": 39168,
            "time": 87.42848400000001,
            "velocity": 0.1968503937007874
          },
          {
            "duration": 0.10714274999999418,
            "durationTicks": 48,
            "midi": 42,
            "name": "F#2",
            "ticks": 39264,
            "time": 87.64276950000001,
            "velocity": 0.1968503937007874
          },
          {
            "duration": 0.10714274999999418,
            "durationTicks": 48,
            "midi": 42,
            "name": "F#2",
            "ticks": 39312,
            "time": 87.74991225000001,
            "velocity": 0.1968503937007874
          },
          {
            "duration": 0.21428550000000257,
            "durationTicks": 96,
            "midi": 35,
            "name": "B1",
            "ticks": 39312,
            "time": 87.74991225000001,
            "velocity": 0.1968503937007874
          },
          {
            "duration": 0.10714274999999418,
            "durationTicks": 48,
            "midi": 42,
            "name": "F#2",
            "ticks": 39408,
            "time": 87.96419775000001,
            "velocity": 0.1968503937007874
          },
          {
            "duration": 0.10714275000000839,
            "durationTicks": 48,
            "midi": 42,
            "name": "F#2",
            "ticks": 39456,
            "time": 88.0713405,
            "velocity": 0.1968503937007874
          },
          {
            "duration": 0.21428550000000257,
            "durationTicks": 96,
            "midi": 35,
            "name": "B1",
            "ticks": 39456,
            "time": 88.0713405,
            "velocity": 0.1968503937007874
          },
          {
            "duration": 0.10714274999999418,
            "durationTicks": 48,
            "midi": 42,
            "name": "F#2",
            "ticks": 39504,
            "time": 88.17848325000001,
            "velocity": 0.1968503937007874
          },
          {
            "duration": 0.10714274999999418,
            "durationTicks": 48,
            "midi": 42,
            "name": "F#2",
            "ticks": 39552,
            "time": 88.28562600000001,
            "velocity": 0.1968503937007874
          },
          {
            "duration": 0.10714274999999418,
            "durationTicks": 48,
            "midi": 42,
            "name": "F#2",
            "ticks": 39648,
            "time": 88.49991150000001,
            "velocity": 0.1968503937007874
          },
          {
            "duration": 0.21428550000000257,
            "durationTicks": 96,
            "midi": 35,
            "name": "B1",
            "ticks": 39648,
            "time": 88.49991150000001,
            "velocity": 0.1968503937007874
          },
          {
            "duration": 0.21428549999998836,
            "durationTicks": 96,
            "midi": 38,
            "name": "D2",
            "ticks": 39744,
            "time": 88.71419700000001,
            "velocity": 0.1968503937007874
          },
          {
            "duration": 0.10714275000000839,
            "durationTicks": 48,
            "midi": 42,
            "name": "F#2",
            "ticks": 39936,
            "time": 89.142768,
            "velocity": 0.1968503937007874
          },
          {
            "duration": 0.21428550000000257,
            "durationTicks": 96,
            "midi": 35,
            "name": "B1",
            "ticks": 39936,
            "time": 89.142768,
            "velocity": 0.1968503937007874
          },
          {
            "duration": 0.10714274999999418,
            "durationTicks": 48,
            "midi": 42,
            "name": "F#2",
            "ticks": 40032,
            "time": 89.3570535,
            "velocity": 0.1968503937007874
          },
          {
            "duration": 0.10714275000000839,
            "durationTicks": 48,
            "midi": 42,
            "name": "F#2",
            "ticks": 40080,
            "time": 89.46419625,
            "velocity": 0.1968503937007874
          },
          {
            "duration": 0.10714275000000839,
            "durationTicks": 48,
            "midi": 42,
            "name": "F#2",
            "ticks": 40176,
            "time": 89.67848175,
            "velocity": 0.1968503937007874
          },
          {
            "duration": 0.21428550000000257,
            "durationTicks": 96,
            "midi": 35,
            "name": "B1",
            "ticks": 40224,
            "time": 89.78562450000001,
            "velocity": 0.1968503937007874
          },
          {
            "duration": 0.10714274999999418,
            "durationTicks": 48,
            "midi": 42,
            "name": "F#2",
            "ticks": 40224,
            "time": 89.78562450000001,
            "velocity": 0.1968503937007874
          },
          {
            "duration": 0.10714275000000839,
            "durationTicks": 48,
            "midi": 42,
            "name": "F#2",
            "ticks": 40272,
            "time": 89.89276725,
            "velocity": 0.1968503937007874
          },
          {
            "duration": 0.10714274999999418,
            "durationTicks": 48,
            "midi": 42,
            "name": "F#2",
            "ticks": 40320,
            "time": 89.99991000000001,
            "velocity": 0.1968503937007874
          },
          {
            "duration": 0.21428549999998836,
            "durationTicks": 96,
            "midi": 38,
            "name": "D2",
            "ticks": 40320,
            "time": 89.99991000000001,
            "velocity": 0.1968503937007874
          },
          {
            "duration": 0.10714275000000839,
            "durationTicks": 48,
            "midi": 42,
            "name": "F#2",
            "ticks": 40416,
            "time": 90.2141955,
            "velocity": 0.1968503937007874
          },
          {
            "duration": 0.10714274999999418,
            "durationTicks": 48,
            "midi": 42,
            "name": "F#2",
            "ticks": 40704,
            "time": 90.85705200000001,
            "velocity": 0.1968503937007874
          },
          {
            "duration": 0.21428550000000257,
            "durationTicks": 96,
            "midi": 35,
            "name": "B1",
            "ticks": 40704,
            "time": 90.85705200000001,
            "velocity": 0.1968503937007874
          },
          {
            "duration": 0.10714274999999418,
            "durationTicks": 48,
            "midi": 42,
            "name": "F#2",
            "ticks": 40800,
            "time": 91.07133750000001,
            "velocity": 0.1968503937007874
          },
          {
            "duration": 0.10714274999999418,
            "durationTicks": 48,
            "midi": 42,
            "name": "F#2",
            "ticks": 40848,
            "time": 91.17848025,
            "velocity": 0.1968503937007874
          },
          {
            "duration": 0.21428550000000257,
            "durationTicks": 96,
            "midi": 35,
            "name": "B1",
            "ticks": 40848,
            "time": 91.17848025,
            "velocity": 0.1968503937007874
          },
          {
            "duration": 0.10714274999999418,
            "durationTicks": 48,
            "midi": 42,
            "name": "F#2",
            "ticks": 40944,
            "time": 91.39276575000001,
            "velocity": 0.1968503937007874
          },
          {
            "duration": 0.21428550000000257,
            "durationTicks": 96,
            "midi": 35,
            "name": "B1",
            "ticks": 40992,
            "time": 91.4999085,
            "velocity": 0.1968503937007874
          },
          {
            "duration": 0.10714275000000839,
            "durationTicks": 48,
            "midi": 42,
            "name": "F#2",
            "ticks": 40992,
            "time": 91.4999085,
            "velocity": 0.1968503937007874
          },
          {
            "duration": 0.10714274999999418,
            "durationTicks": 48,
            "midi": 42,
            "name": "F#2",
            "ticks": 41040,
            "time": 91.60705125000001,
            "velocity": 0.1968503937007874
          },
          {
            "duration": 0.10714275000000839,
            "durationTicks": 48,
            "midi": 42,
            "name": "F#2",
            "ticks": 41088,
            "time": 91.714194,
            "velocity": 0.1968503937007874
          },
          {
            "duration": 0.10714274999999418,
            "durationTicks": 48,
            "midi": 42,
            "name": "F#2",
            "ticks": 41184,
            "time": 91.92847950000001,
            "velocity": 0.1968503937007874
          },
          {
            "duration": 0.21428550000000257,
            "durationTicks": 96,
            "midi": 35,
            "name": "B1",
            "ticks": 41184,
            "time": 91.92847950000001,
            "velocity": 0.1968503937007874
          },
          {
            "duration": 0.21428550000000257,
            "durationTicks": 96,
            "midi": 38,
            "name": "D2",
            "ticks": 41280,
            "time": 92.14276500000001,
            "velocity": 0.1968503937007874
          },
          {
            "duration": 0.21428550000000257,
            "durationTicks": 96,
            "midi": 38,
            "name": "D2",
            "ticks": 41280,
            "time": 92.14276500000001,
            "velocity": 0.1968503937007874
          },
          {
            "duration": 0.21428550000000257,
            "durationTicks": 96,
            "midi": 35,
            "name": "B1",
            "ticks": 41472,
            "time": 92.571336,
            "velocity": 0.1968503937007874
          },
          {
            "duration": 0.10714275000000839,
            "durationTicks": 48,
            "midi": 42,
            "name": "F#2",
            "ticks": 41472,
            "time": 92.571336,
            "velocity": 0.1968503937007874
          },
          {
            "duration": 0.10714275000000839,
            "durationTicks": 48,
            "midi": 42,
            "name": "F#2",
            "ticks": 41568,
            "time": 92.7856215,
            "velocity": 0.1968503937007874
          },
          {
            "duration": 0.10714274999999418,
            "durationTicks": 48,
            "midi": 42,
            "name": "F#2",
            "ticks": 41616,
            "time": 92.89276425000001,
            "velocity": 0.1968503937007874
          },
          {
            "duration": 0.10714275000000839,
            "durationTicks": 48,
            "midi": 42,
            "name": "F#2",
            "ticks": 41712,
            "time": 93.10704975,
            "velocity": 0.1968503937007874
          },
          {
            "duration": 0.10714274999999418,
            "durationTicks": 48,
            "midi": 42,
            "name": "F#2",
            "ticks": 41760,
            "time": 93.21419250000001,
            "velocity": 0.1968503937007874
          },
          {
            "duration": 0.21428550000000257,
            "durationTicks": 96,
            "midi": 35,
            "name": "B1",
            "ticks": 41760,
            "time": 93.21419250000001,
            "velocity": 0.1968503937007874
          },
          {
            "duration": 0.10714275000000839,
            "durationTicks": 48,
            "midi": 42,
            "name": "F#2",
            "ticks": 41808,
            "time": 93.32133525,
            "velocity": 0.1968503937007874
          },
          {
            "duration": 0.21428549999998836,
            "durationTicks": 96,
            "midi": 38,
            "name": "D2",
            "ticks": 41856,
            "time": 93.42847800000001,
            "velocity": 0.1968503937007874
          },
          {
            "duration": 0.10714274999999418,
            "durationTicks": 48,
            "midi": 42,
            "name": "F#2",
            "ticks": 41856,
            "time": 93.42847800000001,
            "velocity": 0.1968503937007874
          },
          {
            "duration": 0.10714275000000839,
            "durationTicks": 48,
            "midi": 42,
            "name": "F#2",
            "ticks": 41952,
            "time": 93.6427635,
            "velocity": 0.1968503937007874
          },
          {
            "duration": 0.21428550000000257,
            "durationTicks": 96,
            "midi": 35,
            "name": "B1",
            "ticks": 42240,
            "time": 94.28562000000001,
            "velocity": 0.1968503937007874
          },
          {
            "duration": 0.10714274999999418,
            "durationTicks": 48,
            "midi": 42,
            "name": "F#2",
            "ticks": 42240,
            "time": 94.28562000000001,
            "velocity": 0.1968503937007874
          },
          {
            "duration": 0.10714274999999418,
            "durationTicks": 48,
            "midi": 42,
            "name": "F#2",
            "ticks": 42336,
            "time": 94.49990550000001,
            "velocity": 0.1968503937007874
          },
          {
            "duration": 0.21428550000000257,
            "durationTicks": 96,
            "midi": 35,
            "name": "B1",
            "ticks": 42384,
            "time": 94.60704825,
            "velocity": 0.1968503937007874
          },
          {
            "duration": 0.10714275000000839,
            "durationTicks": 48,
            "midi": 42,
            "name": "F#2",
            "ticks": 42384,
            "time": 94.60704825,
            "velocity": 0.1968503937007874
          },
          {
            "duration": 0.10714274999999418,
            "durationTicks": 48,
            "midi": 42,
            "name": "F#2",
            "ticks": 42480,
            "time": 94.82133375000001,
            "velocity": 0.1968503937007874
          },
          {
            "duration": 0.10714275000000839,
            "durationTicks": 48,
            "midi": 42,
            "name": "F#2",
            "ticks": 42528,
            "time": 94.9284765,
            "velocity": 0.1968503937007874
          },
          {
            "duration": 0.21428550000000257,
            "durationTicks": 96,
            "midi": 35,
            "name": "B1",
            "ticks": 42528,
            "time": 94.9284765,
            "velocity": 0.1968503937007874
          },
          {
            "duration": 0.10714274999999418,
            "durationTicks": 48,
            "midi": 42,
            "name": "F#2",
            "ticks": 42576,
            "time": 95.03561925000001,
            "velocity": 0.1968503937007874
          },
          {
            "duration": 0.10714275000000839,
            "durationTicks": 48,
            "midi": 42,
            "name": "F#2",
            "ticks": 42624,
            "time": 95.142762,
            "velocity": 0.1968503937007874
          },
          {
            "duration": 0.10714274999999418,
            "durationTicks": 48,
            "midi": 42,
            "name": "F#2",
            "ticks": 42720,
            "time": 95.35704750000001,
            "velocity": 0.1968503937007874
          },
          {
            "duration": 0.21428550000000257,
            "durationTicks": 96,
            "midi": 35,
            "name": "B1",
            "ticks": 42720,
            "time": 95.35704750000001,
            "velocity": 0.1968503937007874
          },
          {
            "duration": 0.21428550000000257,
            "durationTicks": 96,
            "midi": 38,
            "name": "D2",
            "ticks": 42816,
            "time": 95.57133300000001,
            "velocity": 0.1968503937007874
          },
          {
            "duration": 0.21428549999998836,
            "durationTicks": 96,
            "midi": 40,
            "name": "E2",
            "ticks": 43008,
            "time": 95.99990400000002,
            "velocity": 0.1968503937007874
          },
          {
            "duration": 0.21428549999998836,
            "durationTicks": 96,
            "midi": 38,
            "name": "D2",
            "ticks": 43008,
            "time": 95.99990400000002,
            "velocity": 0.1968503937007874
          },
          {
            "duration": 0.21428549999998836,
            "durationTicks": 96,
            "midi": 37,
            "name": "C#2",
            "ticks": 43008,
            "time": 95.99990400000002,
            "velocity": 0.1968503937007874
          },
          {
            "duration": 0.21428549999998836,
            "durationTicks": 96,
            "midi": 41,
            "name": "F2",
            "ticks": 43008,
            "time": 95.99990400000002,
            "velocity": 0.1968503937007874
          },
          {
            "duration": 0.21428549999998836,
            "durationTicks": 96,
            "midi": 39,
            "name": "D#2",
            "ticks": 43008,
            "time": 95.99990400000002,
            "velocity": 0.1968503937007874
          },
          {
            "duration": 0.21428549999998836,
            "durationTicks": 96,
            "midi": 42,
            "name": "F#2",
            "ticks": 43008,
            "time": 95.99990400000002,
            "velocity": 0.1968503937007874
          },
          {
            "duration": 0.21428550000000257,
            "durationTicks": 96,
            "midi": 42,
            "name": "F#2",
            "ticks": 43104,
            "time": 96.2141895,
            "velocity": 0.1968503937007874
          },
          {
            "duration": 0.21428550000000257,
            "durationTicks": 96,
            "midi": 37,
            "name": "C#2",
            "ticks": 43104,
            "time": 96.2141895,
            "velocity": 0.1968503937007874
          },
          {
            "duration": 0.21428550000000257,
            "durationTicks": 96,
            "midi": 37,
            "name": "C#2",
            "ticks": 43200,
            "time": 96.428475,
            "velocity": 0.1968503937007874
          },
          {
            "duration": 0.21428550000000257,
            "durationTicks": 96,
            "midi": 39,
            "name": "D#2",
            "ticks": 43200,
            "time": 96.428475,
            "velocity": 0.1968503937007874
          },
          {
            "duration": 0.21428550000000257,
            "durationTicks": 96,
            "midi": 42,
            "name": "F#2",
            "ticks": 43200,
            "time": 96.428475,
            "velocity": 0.1968503937007874
          },
          {
            "duration": 0.21428550000000257,
            "durationTicks": 96,
            "midi": 37,
            "name": "C#2",
            "ticks": 43296,
            "time": 96.64276050000001,
            "velocity": 0.1968503937007874
          },
          {
            "duration": 0.21428550000000257,
            "durationTicks": 96,
            "midi": 39,
            "name": "D#2",
            "ticks": 43296,
            "time": 96.64276050000001,
            "velocity": 0.1968503937007874
          },
          {
            "duration": 0.21428550000000257,
            "durationTicks": 96,
            "midi": 38,
            "name": "D2",
            "ticks": 43296,
            "time": 96.64276050000001,
            "velocity": 0.1968503937007874
          },
          {
            "duration": 0.21428550000000257,
            "durationTicks": 96,
            "midi": 42,
            "name": "F#2",
            "ticks": 43296,
            "time": 96.64276050000001,
            "velocity": 0.1968503937007874
          }
        ],
        "endOfTrackTicks": 43392
      }
    ]
  }