{
    "header": {
      "keySignatures": [],
      "meta": [],
      "name": "",
      "ppq": 384,
      "tempos": [
        {
          "bpm": 82.00003553334874,
          "ticks": 0
        }
      ],
      "timeSignatures": [
        {
          "ticks": 0,
          "timeSignature": [
            1,
            4
          ],
          "measures": 0
        }
      ]
    },
    "tracks": [
      {
        "channel": 0,
        "controlChanges": {},
        "pitchBends": [],
        "instrument": {
          "family": "piano",
          "number": 0,
          "name": "acoustic grand piano"
        },
        "name": "Elec. Piano (Classic)",
        "notes": [
          {
            "duration": 0.18292675000000003,
            "durationTicks": 96,
            "midi": 59,
            "name": "B3",
            "ticks": 3072,
            "time": 5.853656,
            "velocity": 0.3937007874015748
          },
          {
            "duration": 0.18292675000000003,
            "durationTicks": 96,
            "midi": 65,
            "name": "F4",
            "ticks": 3168,
            "time": 6.03658275,
            "velocity": 0.3937007874015748
          },
          {
            "duration": 0.18292675000000003,
            "durationTicks": 96,
            "midi": 64,
            "name": "E4",
            "ticks": 3264,
            "time": 6.2195095,
            "velocity": 0.3937007874015748
          },
          {
            "duration": 0.18292675000000003,
            "durationTicks": 96,
            "midi": 62,
            "name": "D4",
            "ticks": 3360,
            "time": 6.40243625,
            "velocity": 0.3937007874015748
          },
          {
            "duration": 0.18292675000000003,
            "durationTicks": 96,
            "midi": 59,
            "name": "B3",
            "ticks": 3456,
            "time": 6.585363,
            "velocity": 0.3937007874015748
          },
          {
            "duration": 0.18292675000000003,
            "durationTicks": 96,
            "midi": 65,
            "name": "F4",
            "ticks": 3552,
            "time": 6.76828975,
            "velocity": 0.3937007874015748
          },
          {
            "duration": 0.18292675000000003,
            "durationTicks": 96,
            "midi": 64,
            "name": "E4",
            "ticks": 3648,
            "time": 6.9512165,
            "velocity": 0.3937007874015748
          },
          {
            "duration": 0.18292675000000003,
            "durationTicks": 96,
            "midi": 62,
            "name": "D4",
            "ticks": 3744,
            "time": 7.13414325,
            "velocity": 0.3937007874015748
          },
          {
            "duration": 0.18292675000000003,
            "durationTicks": 96,
            "midi": 59,
            "name": "B3",
            "ticks": 3840,
            "time": 7.31707,
            "velocity": 0.3937007874015748
          },
          {
            "duration": 0.18292675000000003,
            "durationTicks": 96,
            "midi": 65,
            "name": "F4",
            "ticks": 3936,
            "time": 7.49999675,
            "velocity": 0.3937007874015748
          },
          {
            "duration": 0.18292675000000003,
            "durationTicks": 96,
            "midi": 64,
            "name": "E4",
            "ticks": 4032,
            "time": 7.6829235,
            "velocity": 0.3937007874015748
          },
          {
            "duration": 0.18292674999999914,
            "durationTicks": 96,
            "midi": 62,
            "name": "D4",
            "ticks": 4128,
            "time": 7.86585025,
            "velocity": 0.3937007874015748
          },
          {
            "duration": 0.18292675000000003,
            "durationTicks": 96,
            "midi": 59,
            "name": "B3",
            "ticks": 4224,
            "time": 8.048777,
            "velocity": 0.3937007874015748
          },
          {
            "duration": 0.18292675000000003,
            "durationTicks": 96,
            "midi": 65,
            "name": "F4",
            "ticks": 4320,
            "time": 8.23170375,
            "velocity": 0.3937007874015748
          },
          {
            "duration": 0.18292675000000003,
            "durationTicks": 96,
            "midi": 64,
            "name": "E4",
            "ticks": 4416,
            "time": 8.4146305,
            "velocity": 0.3937007874015748
          },
          {
            "duration": 0.18292675000000003,
            "durationTicks": 96,
            "midi": 62,
            "name": "D4",
            "ticks": 4512,
            "time": 8.59755725,
            "velocity": 0.3937007874015748
          },
          {
            "duration": 0.18292675000000003,
            "durationTicks": 96,
            "midi": 58,
            "name": "A#3",
            "ticks": 4608,
            "time": 8.780484,
            "velocity": 0.3937007874015748
          },
          {
            "duration": 0.18292675000000003,
            "durationTicks": 96,
            "midi": 64,
            "name": "E4",
            "ticks": 4704,
            "time": 8.96341075,
            "velocity": 0.3937007874015748
          },
          {
            "duration": 0.18292675000000003,
            "durationTicks": 96,
            "midi": 63,
            "name": "D#4",
            "ticks": 4800,
            "time": 9.1463375,
            "velocity": 0.3937007874015748
          },
          {
            "duration": 0.18292675000000003,
            "durationTicks": 96,
            "midi": 61,
            "name": "C#4",
            "ticks": 4896,
            "time": 9.32926425,
            "velocity": 0.3937007874015748
          },
          {
            "duration": 0.18292675000000003,
            "durationTicks": 96,
            "midi": 58,
            "name": "A#3",
            "ticks": 4992,
            "time": 9.512191,
            "velocity": 0.3937007874015748
          },
          {
            "duration": 0.18292675000000003,
            "durationTicks": 96,
            "midi": 64,
            "name": "E4",
            "ticks": 5088,
            "time": 9.69511775,
            "velocity": 0.3937007874015748
          },
          {
            "duration": 0.18292675000000003,
            "durationTicks": 96,
            "midi": 63,
            "name": "D#4",
            "ticks": 5184,
            "time": 9.8780445,
            "velocity": 0.3937007874015748
          },
          {
            "duration": 0.18292675000000003,
            "durationTicks": 96,
            "midi": 61,
            "name": "C#4",
            "ticks": 5280,
            "time": 10.06097125,
            "velocity": 0.3937007874015748
          },
          {
            "duration": 0.18292675000000003,
            "durationTicks": 96,
            "midi": 58,
            "name": "A#3",
            "ticks": 5376,
            "time": 10.243898,
            "velocity": 0.3937007874015748
          },
          {
            "duration": 0.18292675000000003,
            "durationTicks": 96,
            "midi": 64,
            "name": "E4",
            "ticks": 5472,
            "time": 10.42682475,
            "velocity": 0.3937007874015748
          },
          {
            "duration": 0.18292675000000003,
            "durationTicks": 96,
            "midi": 63,
            "name": "D#4",
            "ticks": 5568,
            "time": 10.6097515,
            "velocity": 0.3937007874015748
          },
          {
            "duration": 0.18292675000000003,
            "durationTicks": 96,
            "midi": 61,
            "name": "C#4",
            "ticks": 5664,
            "time": 10.79267825,
            "velocity": 0.3937007874015748
          },
          {
            "duration": 0.18292675000000003,
            "durationTicks": 96,
            "midi": 58,
            "name": "A#3",
            "ticks": 5760,
            "time": 10.975605,
            "velocity": 0.3937007874015748
          },
          {
            "duration": 0.18292675000000003,
            "durationTicks": 96,
            "midi": 64,
            "name": "E4",
            "ticks": 5856,
            "time": 11.15853175,
            "velocity": 0.3937007874015748
          },
          {
            "duration": 0.18292675000000003,
            "durationTicks": 96,
            "midi": 63,
            "name": "D#4",
            "ticks": 5952,
            "time": 11.3414585,
            "velocity": 0.3937007874015748
          },
          {
            "duration": 0.18292675000000003,
            "durationTicks": 96,
            "midi": 61,
            "name": "C#4",
            "ticks": 6048,
            "time": 11.52438525,
            "velocity": 0.3937007874015748
          },
          {
            "duration": 0.18292675000000003,
            "durationTicks": 96,
            "midi": 59,
            "name": "B3",
            "ticks": 6144,
            "time": 11.707312,
            "velocity": 0.3937007874015748
          },
          {
            "duration": 0.18292675000000003,
            "durationTicks": 96,
            "midi": 65,
            "name": "F4",
            "ticks": 6240,
            "time": 11.89023875,
            "velocity": 0.3937007874015748
          },
          {
            "duration": 0.18292675000000003,
            "durationTicks": 96,
            "midi": 64,
            "name": "E4",
            "ticks": 6336,
            "time": 12.0731655,
            "velocity": 0.3937007874015748
          },
          {
            "duration": 0.18292675000000003,
            "durationTicks": 96,
            "midi": 62,
            "name": "D4",
            "ticks": 6432,
            "time": 12.25609225,
            "velocity": 0.3937007874015748
          },
          {
            "duration": 0.18292675000000003,
            "durationTicks": 96,
            "midi": 59,
            "name": "B3",
            "ticks": 6528,
            "time": 12.439019,
            "velocity": 0.3937007874015748
          },
          {
            "duration": 0.18292675000000003,
            "durationTicks": 96,
            "midi": 65,
            "name": "F4",
            "ticks": 6624,
            "time": 12.62194575,
            "velocity": 0.3937007874015748
          },
          {
            "duration": 0.18292675000000003,
            "durationTicks": 96,
            "midi": 64,
            "name": "E4",
            "ticks": 6720,
            "time": 12.8048725,
            "velocity": 0.3937007874015748
          },
          {
            "duration": 0.18292675000000003,
            "durationTicks": 96,
            "midi": 62,
            "name": "D4",
            "ticks": 6816,
            "time": 12.98779925,
            "velocity": 0.3937007874015748
          },
          {
            "duration": 0.18292675000000003,
            "durationTicks": 96,
            "midi": 59,
            "name": "B3",
            "ticks": 6912,
            "time": 13.170726,
            "velocity": 0.3937007874015748
          },
          {
            "duration": 0.18292675000000003,
            "durationTicks": 96,
            "midi": 65,
            "name": "F4",
            "ticks": 7008,
            "time": 13.35365275,
            "velocity": 0.3937007874015748
          },
          {
            "duration": 0.18292675000000003,
            "durationTicks": 96,
            "midi": 64,
            "name": "E4",
            "ticks": 7104,
            "time": 13.5365795,
            "velocity": 0.3937007874015748
          },
          {
            "duration": 0.18292675000000003,
            "durationTicks": 96,
            "midi": 62,
            "name": "D4",
            "ticks": 7200,
            "time": 13.71950625,
            "velocity": 0.3937007874015748
          },
          {
            "duration": 0.18292675000000003,
            "durationTicks": 96,
            "midi": 59,
            "name": "B3",
            "ticks": 7296,
            "time": 13.902433,
            "velocity": 0.3937007874015748
          },
          {
            "duration": 0.18292675000000003,
            "durationTicks": 96,
            "midi": 65,
            "name": "F4",
            "ticks": 7392,
            "time": 14.08535975,
            "velocity": 0.3937007874015748
          },
          {
            "duration": 0.18292675000000003,
            "durationTicks": 96,
            "midi": 64,
            "name": "E4",
            "ticks": 7488,
            "time": 14.2682865,
            "velocity": 0.3937007874015748
          },
          {
            "duration": 0.18292675000000003,
            "durationTicks": 96,
            "midi": 62,
            "name": "D4",
            "ticks": 7584,
            "time": 14.45121325,
            "velocity": 0.3937007874015748
          },
          {
            "duration": 0.18292675000000003,
            "durationTicks": 96,
            "midi": 58,
            "name": "A#3",
            "ticks": 7680,
            "time": 14.63414,
            "velocity": 0.3937007874015748
          },
          {
            "duration": 0.18292675000000003,
            "durationTicks": 96,
            "midi": 64,
            "name": "E4",
            "ticks": 7776,
            "time": 14.81706675,
            "velocity": 0.3937007874015748
          },
          {
            "duration": 0.18292675000000003,
            "durationTicks": 96,
            "midi": 63,
            "name": "D#4",
            "ticks": 7872,
            "time": 14.9999935,
            "velocity": 0.3937007874015748
          },
          {
            "duration": 0.18292675000000003,
            "durationTicks": 96,
            "midi": 61,
            "name": "C#4",
            "ticks": 7968,
            "time": 15.18292025,
            "velocity": 0.3937007874015748
          },
          {
            "duration": 0.18292675000000003,
            "durationTicks": 96,
            "midi": 58,
            "name": "A#3",
            "ticks": 8064,
            "time": 15.365847,
            "velocity": 0.3937007874015748
          },
          {
            "duration": 0.18292675000000003,
            "durationTicks": 96,
            "midi": 64,
            "name": "E4",
            "ticks": 8160,
            "time": 15.54877375,
            "velocity": 0.3937007874015748
          },
          {
            "duration": 0.18292675000000003,
            "durationTicks": 96,
            "midi": 63,
            "name": "D#4",
            "ticks": 8256,
            "time": 15.7317005,
            "velocity": 0.3937007874015748
          },
          {
            "duration": 0.18292674999999825,
            "durationTicks": 96,
            "midi": 61,
            "name": "C#4",
            "ticks": 8352,
            "time": 15.91462725,
            "velocity": 0.3937007874015748
          },
          {
            "duration": 0.18292675000000003,
            "durationTicks": 96,
            "midi": 58,
            "name": "A#3",
            "ticks": 8448,
            "time": 16.097554,
            "velocity": 0.3937007874015748
          },
          {
            "duration": 0.18292675000000003,
            "durationTicks": 96,
            "midi": 64,
            "name": "E4",
            "ticks": 8544,
            "time": 16.28048075,
            "velocity": 0.3937007874015748
          },
          {
            "duration": 0.18292675000000003,
            "durationTicks": 96,
            "midi": 63,
            "name": "D#4",
            "ticks": 8640,
            "time": 16.4634075,
            "velocity": 0.3937007874015748
          },
          {
            "duration": 0.18292675000000003,
            "durationTicks": 96,
            "midi": 61,
            "name": "C#4",
            "ticks": 8736,
            "time": 16.64633425,
            "velocity": 0.3937007874015748
          },
          {
            "duration": 0.18292675000000003,
            "durationTicks": 96,
            "midi": 58,
            "name": "A#3",
            "ticks": 8832,
            "time": 16.829261,
            "velocity": 0.3937007874015748
          },
          {
            "duration": 0.18292675000000003,
            "durationTicks": 96,
            "midi": 64,
            "name": "E4",
            "ticks": 8928,
            "time": 17.01218775,
            "velocity": 0.3937007874015748
          },
          {
            "duration": 0.18292675000000003,
            "durationTicks": 96,
            "midi": 63,
            "name": "D#4",
            "ticks": 9024,
            "time": 17.1951145,
            "velocity": 0.3937007874015748
          },
          {
            "duration": 0.18292675000000003,
            "durationTicks": 96,
            "midi": 61,
            "name": "C#4",
            "ticks": 9120,
            "time": 17.37804125,
            "velocity": 0.3937007874015748
          },
          {
            "duration": 0.18292675000000003,
            "durationTicks": 96,
            "midi": 59,
            "name": "B3",
            "ticks": 9216,
            "time": 17.560968,
            "velocity": 0.3937007874015748
          },
          {
            "duration": 0.18292675000000003,
            "durationTicks": 96,
            "midi": 65,
            "name": "F4",
            "ticks": 9312,
            "time": 17.74389475,
            "velocity": 0.3937007874015748
          },
          {
            "duration": 0.18292675000000003,
            "durationTicks": 96,
            "midi": 64,
            "name": "E4",
            "ticks": 9408,
            "time": 17.9268215,
            "velocity": 0.3937007874015748
          },
          {
            "duration": 0.18292675000000003,
            "durationTicks": 96,
            "midi": 62,
            "name": "D4",
            "ticks": 9504,
            "time": 18.10974825,
            "velocity": 0.3937007874015748
          },
          {
            "duration": 0.18292675000000003,
            "durationTicks": 96,
            "midi": 59,
            "name": "B3",
            "ticks": 9600,
            "time": 18.292675,
            "velocity": 0.3937007874015748
          },
          {
            "duration": 0.18292675000000003,
            "durationTicks": 96,
            "midi": 65,
            "name": "F4",
            "ticks": 9696,
            "time": 18.47560175,
            "velocity": 0.3937007874015748
          },
          {
            "duration": 0.18292675000000003,
            "durationTicks": 96,
            "midi": 64,
            "name": "E4",
            "ticks": 9792,
            "time": 18.6585285,
            "velocity": 0.3937007874015748
          },
          {
            "duration": 0.18292675000000003,
            "durationTicks": 96,
            "midi": 62,
            "name": "D4",
            "ticks": 9888,
            "time": 18.84145525,
            "velocity": 0.3937007874015748
          },
          {
            "duration": 0.18292675000000003,
            "durationTicks": 96,
            "midi": 59,
            "name": "B3",
            "ticks": 9984,
            "time": 19.024382,
            "velocity": 0.3937007874015748
          },
          {
            "duration": 0.18292675000000003,
            "durationTicks": 96,
            "midi": 65,
            "name": "F4",
            "ticks": 10080,
            "time": 19.20730875,
            "velocity": 0.3937007874015748
          },
          {
            "duration": 0.18292675000000003,
            "durationTicks": 96,
            "midi": 64,
            "name": "E4",
            "ticks": 10176,
            "time": 19.3902355,
            "velocity": 0.3937007874015748
          },
          {
            "duration": 0.18292675000000003,
            "durationTicks": 96,
            "midi": 62,
            "name": "D4",
            "ticks": 10272,
            "time": 19.57316225,
            "velocity": 0.3937007874015748
          },
          {
            "duration": 0.18292675000000003,
            "durationTicks": 96,
            "midi": 59,
            "name": "B3",
            "ticks": 10368,
            "time": 19.756089,
            "velocity": 0.3937007874015748
          },
          {
            "duration": 0.18292675000000003,
            "durationTicks": 96,
            "midi": 65,
            "name": "F4",
            "ticks": 10464,
            "time": 19.93901575,
            "velocity": 0.3937007874015748
          },
          {
            "duration": 0.18292675000000003,
            "durationTicks": 96,
            "midi": 64,
            "name": "E4",
            "ticks": 10560,
            "time": 20.1219425,
            "velocity": 0.3937007874015748
          },
          {
            "duration": 0.18292675000000003,
            "durationTicks": 96,
            "midi": 62,
            "name": "D4",
            "ticks": 10656,
            "time": 20.30486925,
            "velocity": 0.3937007874015748
          },
          {
            "duration": 0.18292675000000003,
            "durationTicks": 96,
            "midi": 58,
            "name": "A#3",
            "ticks": 10752,
            "time": 20.487796,
            "velocity": 0.3937007874015748
          },
          {
            "duration": 0.18292675000000003,
            "durationTicks": 96,
            "midi": 64,
            "name": "E4",
            "ticks": 10848,
            "time": 20.67072275,
            "velocity": 0.3937007874015748
          },
          {
            "duration": 0.18292675000000003,
            "durationTicks": 96,
            "midi": 63,
            "name": "D#4",
            "ticks": 10944,
            "time": 20.8536495,
            "velocity": 0.3937007874015748
          },
          {
            "duration": 0.18292675000000003,
            "durationTicks": 96,
            "midi": 61,
            "name": "C#4",
            "ticks": 11040,
            "time": 21.03657625,
            "velocity": 0.3937007874015748
          },
          {
            "duration": 0.18292675000000003,
            "durationTicks": 96,
            "midi": 58,
            "name": "A#3",
            "ticks": 11136,
            "time": 21.219503,
            "velocity": 0.3937007874015748
          },
          {
            "duration": 0.18292675000000003,
            "durationTicks": 96,
            "midi": 64,
            "name": "E4",
            "ticks": 11232,
            "time": 21.40242975,
            "velocity": 0.3937007874015748
          },
          {
            "duration": 0.18292675000000003,
            "durationTicks": 96,
            "midi": 63,
            "name": "D#4",
            "ticks": 11328,
            "time": 21.5853565,
            "velocity": 0.3937007874015748
          },
          {
            "duration": 0.18292675000000003,
            "durationTicks": 96,
            "midi": 61,
            "name": "C#4",
            "ticks": 11424,
            "time": 21.76828325,
            "velocity": 0.3937007874015748
          },
          {
            "duration": 0.18292675000000003,
            "durationTicks": 96,
            "midi": 58,
            "name": "A#3",
            "ticks": 11520,
            "time": 21.95121,
            "velocity": 0.3937007874015748
          },
          {
            "duration": 0.18292675000000003,
            "durationTicks": 96,
            "midi": 64,
            "name": "E4",
            "ticks": 11616,
            "time": 22.13413675,
            "velocity": 0.3937007874015748
          },
          {
            "duration": 0.18292675000000003,
            "durationTicks": 96,
            "midi": 63,
            "name": "D#4",
            "ticks": 11712,
            "time": 22.3170635,
            "velocity": 0.3937007874015748
          },
          {
            "duration": 0.18292675000000003,
            "durationTicks": 96,
            "midi": 61,
            "name": "C#4",
            "ticks": 11808,
            "time": 22.49999025,
            "velocity": 0.3937007874015748
          },
          {
            "duration": 0.18292675000000003,
            "durationTicks": 96,
            "midi": 58,
            "name": "A#3",
            "ticks": 11904,
            "time": 22.682917,
            "velocity": 0.3937007874015748
          },
          {
            "duration": 0.18292675000000003,
            "durationTicks": 96,
            "midi": 64,
            "name": "E4",
            "ticks": 12000,
            "time": 22.86584375,
            "velocity": 0.3937007874015748
          },
          {
            "duration": 0.18292675000000003,
            "durationTicks": 96,
            "midi": 63,
            "name": "D#4",
            "ticks": 12096,
            "time": 23.0487705,
            "velocity": 0.3937007874015748
          },
          {
            "duration": 0.18292675000000003,
            "durationTicks": 96,
            "midi": 61,
            "name": "C#4",
            "ticks": 12192,
            "time": 23.23169725,
            "velocity": 0.3937007874015748
          },
          {
            "duration": 0.18292675000000003,
            "durationTicks": 96,
            "midi": 59,
            "name": "B3",
            "ticks": 12288,
            "time": 23.414624,
            "velocity": 0.3937007874015748
          },
          {
            "duration": 0.18292675000000003,
            "durationTicks": 96,
            "midi": 65,
            "name": "F4",
            "ticks": 12384,
            "time": 23.59755075,
            "velocity": 0.3937007874015748
          },
          {
            "duration": 0.18292675000000003,
            "durationTicks": 96,
            "midi": 64,
            "name": "E4",
            "ticks": 12480,
            "time": 23.7804775,
            "velocity": 0.3937007874015748
          },
          {
            "duration": 0.18292675000000003,
            "durationTicks": 96,
            "midi": 62,
            "name": "D4",
            "ticks": 12576,
            "time": 23.96340425,
            "velocity": 0.3937007874015748
          },
          {
            "duration": 0.18292675000000003,
            "durationTicks": 96,
            "midi": 59,
            "name": "B3",
            "ticks": 12672,
            "time": 24.146331,
            "velocity": 0.3937007874015748
          },
          {
            "duration": 0.18292675000000003,
            "durationTicks": 96,
            "midi": 65,
            "name": "F4",
            "ticks": 12768,
            "time": 24.32925775,
            "velocity": 0.3937007874015748
          },
          {
            "duration": 0.18292675000000003,
            "durationTicks": 96,
            "midi": 64,
            "name": "E4",
            "ticks": 12864,
            "time": 24.5121845,
            "velocity": 0.3937007874015748
          },
          {
            "duration": 0.18292675000000003,
            "durationTicks": 96,
            "midi": 62,
            "name": "D4",
            "ticks": 12960,
            "time": 24.69511125,
            "velocity": 0.3937007874015748
          },
          {
            "duration": 0.18292675000000003,
            "durationTicks": 96,
            "midi": 59,
            "name": "B3",
            "ticks": 13056,
            "time": 24.878038,
            "velocity": 0.3937007874015748
          },
          {
            "duration": 0.18292675000000003,
            "durationTicks": 96,
            "midi": 65,
            "name": "F4",
            "ticks": 13152,
            "time": 25.06096475,
            "velocity": 0.3937007874015748
          },
          {
            "duration": 0.18292675000000003,
            "durationTicks": 96,
            "midi": 64,
            "name": "E4",
            "ticks": 13248,
            "time": 25.2438915,
            "velocity": 0.3937007874015748
          },
          {
            "duration": 0.18292675000000003,
            "durationTicks": 96,
            "midi": 62,
            "name": "D4",
            "ticks": 13344,
            "time": 25.42681825,
            "velocity": 0.3937007874015748
          },
          {
            "duration": 0.18292675000000003,
            "durationTicks": 96,
            "midi": 59,
            "name": "B3",
            "ticks": 13440,
            "time": 25.609745,
            "velocity": 0.3937007874015748
          },
          {
            "duration": 0.18292675000000003,
            "durationTicks": 96,
            "midi": 65,
            "name": "F4",
            "ticks": 13536,
            "time": 25.79267175,
            "velocity": 0.3937007874015748
          },
          {
            "duration": 0.18292675000000003,
            "durationTicks": 96,
            "midi": 64,
            "name": "E4",
            "ticks": 13632,
            "time": 25.9755985,
            "velocity": 0.3937007874015748
          },
          {
            "duration": 0.18292675000000003,
            "durationTicks": 96,
            "midi": 62,
            "name": "D4",
            "ticks": 13728,
            "time": 26.15852525,
            "velocity": 0.3937007874015748
          },
          {
            "duration": 0.18292675000000003,
            "durationTicks": 96,
            "midi": 58,
            "name": "A#3",
            "ticks": 13824,
            "time": 26.341452,
            "velocity": 0.3937007874015748
          },
          {
            "duration": 0.18292675000000003,
            "durationTicks": 96,
            "midi": 64,
            "name": "E4",
            "ticks": 13920,
            "time": 26.52437875,
            "velocity": 0.3937007874015748
          },
          {
            "duration": 0.18292675000000003,
            "durationTicks": 96,
            "midi": 63,
            "name": "D#4",
            "ticks": 14016,
            "time": 26.7073055,
            "velocity": 0.3937007874015748
          },
          {
            "duration": 0.18292675000000003,
            "durationTicks": 96,
            "midi": 61,
            "name": "C#4",
            "ticks": 14112,
            "time": 26.89023225,
            "velocity": 0.3937007874015748
          },
          {
            "duration": 0.18292675000000003,
            "durationTicks": 96,
            "midi": 58,
            "name": "A#3",
            "ticks": 14208,
            "time": 27.073159,
            "velocity": 0.3937007874015748
          },
          {
            "duration": 0.18292675000000003,
            "durationTicks": 96,
            "midi": 64,
            "name": "E4",
            "ticks": 14304,
            "time": 27.25608575,
            "velocity": 0.3937007874015748
          },
          {
            "duration": 0.18292675000000003,
            "durationTicks": 96,
            "midi": 63,
            "name": "D#4",
            "ticks": 14400,
            "time": 27.4390125,
            "velocity": 0.3937007874015748
          },
          {
            "duration": 0.18292675000000003,
            "durationTicks": 96,
            "midi": 61,
            "name": "C#4",
            "ticks": 14496,
            "time": 27.62193925,
            "velocity": 0.3937007874015748
          },
          {
            "duration": 0.18292675000000003,
            "durationTicks": 96,
            "midi": 58,
            "name": "A#3",
            "ticks": 14592,
            "time": 27.804866,
            "velocity": 0.3937007874015748
          },
          {
            "duration": 0.18292675000000003,
            "durationTicks": 96,
            "midi": 64,
            "name": "E4",
            "ticks": 14688,
            "time": 27.98779275,
            "velocity": 0.3937007874015748
          },
          {
            "duration": 0.18292675000000003,
            "durationTicks": 96,
            "midi": 63,
            "name": "D#4",
            "ticks": 14784,
            "time": 28.1707195,
            "velocity": 0.3937007874015748
          },
          {
            "duration": 0.18292675000000003,
            "durationTicks": 96,
            "midi": 61,
            "name": "C#4",
            "ticks": 14880,
            "time": 28.35364625,
            "velocity": 0.3937007874015748
          },
          {
            "duration": 0.18292675000000003,
            "durationTicks": 96,
            "midi": 58,
            "name": "A#3",
            "ticks": 14976,
            "time": 28.536573,
            "velocity": 0.3937007874015748
          },
          {
            "duration": 0.18292675000000003,
            "durationTicks": 96,
            "midi": 64,
            "name": "E4",
            "ticks": 15072,
            "time": 28.71949975,
            "velocity": 0.3937007874015748
          },
          {
            "duration": 0.18292675000000003,
            "durationTicks": 96,
            "midi": 63,
            "name": "D#4",
            "ticks": 15168,
            "time": 28.9024265,
            "velocity": 0.3937007874015748
          },
          {
            "duration": 0.18292675000000003,
            "durationTicks": 96,
            "midi": 61,
            "name": "C#4",
            "ticks": 15264,
            "time": 29.08535325,
            "velocity": 0.3937007874015748
          },
          {
            "duration": 0.18292675000000003,
            "durationTicks": 96,
            "midi": 59,
            "name": "B3",
            "ticks": 15360,
            "time": 29.26828,
            "velocity": 0.3937007874015748
          },
          {
            "duration": 0.18292675000000003,
            "durationTicks": 96,
            "midi": 65,
            "name": "F4",
            "ticks": 15456,
            "time": 29.45120675,
            "velocity": 0.3937007874015748
          },
          {
            "duration": 0.18292675000000003,
            "durationTicks": 96,
            "midi": 64,
            "name": "E4",
            "ticks": 15552,
            "time": 29.6341335,
            "velocity": 0.3937007874015748
          },
          {
            "duration": 0.18292675000000003,
            "durationTicks": 96,
            "midi": 62,
            "name": "D4",
            "ticks": 15648,
            "time": 29.81706025,
            "velocity": 0.3937007874015748
          },
          {
            "duration": 0.18292675000000003,
            "durationTicks": 96,
            "midi": 59,
            "name": "B3",
            "ticks": 15744,
            "time": 29.999987,
            "velocity": 0.3937007874015748
          },
          {
            "duration": 0.18292675000000003,
            "durationTicks": 96,
            "midi": 65,
            "name": "F4",
            "ticks": 15840,
            "time": 30.18291375,
            "velocity": 0.3937007874015748
          },
          {
            "duration": 0.18292675000000003,
            "durationTicks": 96,
            "midi": 64,
            "name": "E4",
            "ticks": 15936,
            "time": 30.3658405,
            "velocity": 0.3937007874015748
          },
          {
            "duration": 0.18292675000000003,
            "durationTicks": 96,
            "midi": 62,
            "name": "D4",
            "ticks": 16032,
            "time": 30.54876725,
            "velocity": 0.3937007874015748
          },
          {
            "duration": 0.18292675000000003,
            "durationTicks": 96,
            "midi": 59,
            "name": "B3",
            "ticks": 16128,
            "time": 30.731694,
            "velocity": 0.3937007874015748
          },
          {
            "duration": 0.18292675000000003,
            "durationTicks": 96,
            "midi": 65,
            "name": "F4",
            "ticks": 16224,
            "time": 30.91462075,
            "velocity": 0.3937007874015748
          },
          {
            "duration": 0.18292675000000003,
            "durationTicks": 96,
            "midi": 64,
            "name": "E4",
            "ticks": 16320,
            "time": 31.0975475,
            "velocity": 0.3937007874015748
          },
          {
            "duration": 0.18292675000000003,
            "durationTicks": 96,
            "midi": 62,
            "name": "D4",
            "ticks": 16416,
            "time": 31.28047425,
            "velocity": 0.3937007874015748
          },
          {
            "duration": 0.18292675000000003,
            "durationTicks": 96,
            "midi": 59,
            "name": "B3",
            "ticks": 16512,
            "time": 31.463401,
            "velocity": 0.3937007874015748
          },
          {
            "duration": 0.18292675000000003,
            "durationTicks": 96,
            "midi": 65,
            "name": "F4",
            "ticks": 16608,
            "time": 31.64632775,
            "velocity": 0.3937007874015748
          },
          {
            "duration": 0.18292674999999647,
            "durationTicks": 96,
            "midi": 64,
            "name": "E4",
            "ticks": 16704,
            "time": 31.8292545,
            "velocity": 0.3937007874015748
          },
          {
            "duration": 0.18292675000000003,
            "durationTicks": 96,
            "midi": 62,
            "name": "D4",
            "ticks": 16800,
            "time": 32.01218125,
            "velocity": 0.3937007874015748
          },
          {
            "duration": 0.18292675000000003,
            "durationTicks": 96,
            "midi": 58,
            "name": "A#3",
            "ticks": 16896,
            "time": 32.195108,
            "velocity": 0.3937007874015748
          },
          {
            "duration": 0.18292675000000003,
            "durationTicks": 96,
            "midi": 64,
            "name": "E4",
            "ticks": 16992,
            "time": 32.37803475,
            "velocity": 0.3937007874015748
          },
          {
            "duration": 0.18292675000000003,
            "durationTicks": 96,
            "midi": 63,
            "name": "D#4",
            "ticks": 17088,
            "time": 32.5609615,
            "velocity": 0.3937007874015748
          },
          {
            "duration": 0.18292675000000003,
            "durationTicks": 96,
            "midi": 61,
            "name": "C#4",
            "ticks": 17184,
            "time": 32.74388825,
            "velocity": 0.3937007874015748
          },
          {
            "duration": 0.18292675000000003,
            "durationTicks": 96,
            "midi": 58,
            "name": "A#3",
            "ticks": 17280,
            "time": 32.926815,
            "velocity": 0.3937007874015748
          },
          {
            "duration": 0.18292675000000003,
            "durationTicks": 96,
            "midi": 64,
            "name": "E4",
            "ticks": 17376,
            "time": 33.10974175,
            "velocity": 0.3937007874015748
          },
          {
            "duration": 0.18292675000000003,
            "durationTicks": 96,
            "midi": 63,
            "name": "D#4",
            "ticks": 17472,
            "time": 33.2926685,
            "velocity": 0.3937007874015748
          },
          {
            "duration": 0.18292675000000003,
            "durationTicks": 96,
            "midi": 61,
            "name": "C#4",
            "ticks": 17568,
            "time": 33.47559525,
            "velocity": 0.3937007874015748
          },
          {
            "duration": 0.18292675000000003,
            "durationTicks": 96,
            "midi": 58,
            "name": "A#3",
            "ticks": 17664,
            "time": 33.658522,
            "velocity": 0.3937007874015748
          },
          {
            "duration": 0.18292675000000003,
            "durationTicks": 96,
            "midi": 64,
            "name": "E4",
            "ticks": 17760,
            "time": 33.84144875,
            "velocity": 0.3937007874015748
          },
          {
            "duration": 0.18292675000000003,
            "durationTicks": 96,
            "midi": 63,
            "name": "D#4",
            "ticks": 17856,
            "time": 34.0243755,
            "velocity": 0.3937007874015748
          },
          {
            "duration": 0.18292675000000003,
            "durationTicks": 96,
            "midi": 61,
            "name": "C#4",
            "ticks": 17952,
            "time": 34.20730225,
            "velocity": 0.3937007874015748
          },
          {
            "duration": 0.18292675000000003,
            "durationTicks": 96,
            "midi": 58,
            "name": "A#3",
            "ticks": 18048,
            "time": 34.390229,
            "velocity": 0.3937007874015748
          },
          {
            "duration": 0.18292675000000003,
            "durationTicks": 96,
            "midi": 64,
            "name": "E4",
            "ticks": 18144,
            "time": 34.57315575,
            "velocity": 0.3937007874015748
          },
          {
            "duration": 0.18292675000000003,
            "durationTicks": 96,
            "midi": 63,
            "name": "D#4",
            "ticks": 18240,
            "time": 34.7560825,
            "velocity": 0.3937007874015748
          },
          {
            "duration": 0.18292675000000003,
            "durationTicks": 96,
            "midi": 61,
            "name": "C#4",
            "ticks": 18336,
            "time": 34.93900925,
            "velocity": 0.3937007874015748
          },
          {
            "duration": 0.18292675000000003,
            "durationTicks": 96,
            "midi": 59,
            "name": "B3",
            "ticks": 18432,
            "time": 35.121936,
            "velocity": 0.3937007874015748
          },
          {
            "duration": 0.18292675000000003,
            "durationTicks": 96,
            "midi": 65,
            "name": "F4",
            "ticks": 18528,
            "time": 35.30486275,
            "velocity": 0.3937007874015748
          },
          {
            "duration": 0.18292675000000003,
            "durationTicks": 96,
            "midi": 64,
            "name": "E4",
            "ticks": 18624,
            "time": 35.4877895,
            "velocity": 0.3937007874015748
          },
          {
            "duration": 0.18292675000000003,
            "durationTicks": 96,
            "midi": 62,
            "name": "D4",
            "ticks": 18720,
            "time": 35.67071625,
            "velocity": 0.3937007874015748
          },
          {
            "duration": 0.18292675000000003,
            "durationTicks": 96,
            "midi": 59,
            "name": "B3",
            "ticks": 18816,
            "time": 35.853643,
            "velocity": 0.3937007874015748
          },
          {
            "duration": 0.18292675000000003,
            "durationTicks": 96,
            "midi": 65,
            "name": "F4",
            "ticks": 18912,
            "time": 36.03656975,
            "velocity": 0.3937007874015748
          },
          {
            "duration": 0.18292675000000003,
            "durationTicks": 96,
            "midi": 64,
            "name": "E4",
            "ticks": 19008,
            "time": 36.2194965,
            "velocity": 0.3937007874015748
          },
          {
            "duration": 0.18292675000000003,
            "durationTicks": 96,
            "midi": 62,
            "name": "D4",
            "ticks": 19104,
            "time": 36.40242325,
            "velocity": 0.3937007874015748
          },
          {
            "duration": 0.18292675000000003,
            "durationTicks": 96,
            "midi": 59,
            "name": "B3",
            "ticks": 19200,
            "time": 36.58535,
            "velocity": 0.3937007874015748
          },
          {
            "duration": 0.18292675000000003,
            "durationTicks": 96,
            "midi": 65,
            "name": "F4",
            "ticks": 19296,
            "time": 36.76827675,
            "velocity": 0.3937007874015748
          },
          {
            "duration": 0.18292675000000003,
            "durationTicks": 96,
            "midi": 64,
            "name": "E4",
            "ticks": 19392,
            "time": 36.9512035,
            "velocity": 0.3937007874015748
          },
          {
            "duration": 0.18292675000000003,
            "durationTicks": 96,
            "midi": 62,
            "name": "D4",
            "ticks": 19488,
            "time": 37.13413025,
            "velocity": 0.3937007874015748
          },
          {
            "duration": 0.18292675000000003,
            "durationTicks": 96,
            "midi": 59,
            "name": "B3",
            "ticks": 19584,
            "time": 37.317057,
            "velocity": 0.3937007874015748
          },
          {
            "duration": 0.18292675000000003,
            "durationTicks": 96,
            "midi": 65,
            "name": "F4",
            "ticks": 19680,
            "time": 37.49998375,
            "velocity": 0.3937007874015748
          },
          {
            "duration": 0.18292675000000003,
            "durationTicks": 96,
            "midi": 64,
            "name": "E4",
            "ticks": 19776,
            "time": 37.6829105,
            "velocity": 0.3937007874015748
          },
          {
            "duration": 0.18292675000000003,
            "durationTicks": 96,
            "midi": 62,
            "name": "D4",
            "ticks": 19872,
            "time": 37.86583725,
            "velocity": 0.3937007874015748
          },
          {
            "duration": 0.18292675000000003,
            "durationTicks": 96,
            "midi": 58,
            "name": "A#3",
            "ticks": 19968,
            "time": 38.048764,
            "velocity": 0.3937007874015748
          },
          {
            "duration": 0.18292675000000003,
            "durationTicks": 96,
            "midi": 64,
            "name": "E4",
            "ticks": 20064,
            "time": 38.23169075,
            "velocity": 0.3937007874015748
          },
          {
            "duration": 0.18292675000000003,
            "durationTicks": 96,
            "midi": 63,
            "name": "D#4",
            "ticks": 20160,
            "time": 38.4146175,
            "velocity": 0.3937007874015748
          },
          {
            "duration": 0.18292675000000003,
            "durationTicks": 96,
            "midi": 61,
            "name": "C#4",
            "ticks": 20256,
            "time": 38.59754425,
            "velocity": 0.3937007874015748
          },
          {
            "duration": 0.18292675000000003,
            "durationTicks": 96,
            "midi": 58,
            "name": "A#3",
            "ticks": 20352,
            "time": 38.780471,
            "velocity": 0.3937007874015748
          },
          {
            "duration": 0.18292675000000003,
            "durationTicks": 96,
            "midi": 64,
            "name": "E4",
            "ticks": 20448,
            "time": 38.96339775,
            "velocity": 0.3937007874015748
          },
          {
            "duration": 0.18292675000000003,
            "durationTicks": 96,
            "midi": 63,
            "name": "D#4",
            "ticks": 20544,
            "time": 39.1463245,
            "velocity": 0.3937007874015748
          },
          {
            "duration": 0.18292675000000003,
            "durationTicks": 96,
            "midi": 61,
            "name": "C#4",
            "ticks": 20640,
            "time": 39.32925125,
            "velocity": 0.3937007874015748
          },
          {
            "duration": 0.18292675000000003,
            "durationTicks": 96,
            "midi": 58,
            "name": "A#3",
            "ticks": 20736,
            "time": 39.512178,
            "velocity": 0.3937007874015748
          },
          {
            "duration": 0.18292675000000003,
            "durationTicks": 96,
            "midi": 64,
            "name": "E4",
            "ticks": 20832,
            "time": 39.69510475,
            "velocity": 0.3937007874015748
          },
          {
            "duration": 0.18292675000000003,
            "durationTicks": 96,
            "midi": 63,
            "name": "D#4",
            "ticks": 20928,
            "time": 39.8780315,
            "velocity": 0.3937007874015748
          },
          {
            "duration": 0.18292675000000003,
            "durationTicks": 96,
            "midi": 61,
            "name": "C#4",
            "ticks": 21024,
            "time": 40.06095825,
            "velocity": 0.3937007874015748
          },
          {
            "duration": 0.18292675000000003,
            "durationTicks": 96,
            "midi": 58,
            "name": "A#3",
            "ticks": 21120,
            "time": 40.243885,
            "velocity": 0.3937007874015748
          },
          {
            "duration": 0.18292675000000003,
            "durationTicks": 96,
            "midi": 64,
            "name": "E4",
            "ticks": 21216,
            "time": 40.42681175,
            "velocity": 0.3937007874015748
          },
          {
            "duration": 0.18292675000000003,
            "durationTicks": 96,
            "midi": 63,
            "name": "D#4",
            "ticks": 21312,
            "time": 40.6097385,
            "velocity": 0.3937007874015748
          },
          {
            "duration": 0.18292675000000003,
            "durationTicks": 96,
            "midi": 61,
            "name": "C#4",
            "ticks": 21408,
            "time": 40.79266525,
            "velocity": 0.3937007874015748
          }
        ],
        "endOfTrackTicks": 21504
      },
      {
        "channel": 9,
        "controlChanges": {},
        "pitchBends": [],
        "instrument": {
          "family": "drums",
          "number": 0,
          "name": "standard kit"
        },
        "name": "Drum Kit",
        "notes": [
          {
            "duration": 0.09146337500000001,
            "durationTicks": 48,
            "midi": 44,
            "name": "G#2",
            "ticks": 6144,
            "time": 11.707312,
            "velocity": 0.7874015748031497
          },
          {
            "duration": 0.18292675000000003,
            "durationTicks": 96,
            "midi": 37,
            "name": "C#2",
            "ticks": 6144,
            "time": 11.707312,
            "velocity": 0.7874015748031497
          },
          {
            "duration": 0.09146337500000001,
            "durationTicks": 48,
            "midi": 44,
            "name": "G#2",
            "ticks": 6192,
            "time": 11.798775375,
            "velocity": 0.7874015748031497
          },
          {
            "duration": 0.09146337500000001,
            "durationTicks": 48,
            "midi": 44,
            "name": "G#2",
            "ticks": 6240,
            "time": 11.89023875,
            "velocity": 0.7874015748031497
          },
          {
            "duration": 0.09146337500000001,
            "durationTicks": 48,
            "midi": 44,
            "name": "G#2",
            "ticks": 6288,
            "time": 11.981702125,
            "velocity": 0.7874015748031497
          },
          {
            "duration": 0.09146337500000001,
            "durationTicks": 48,
            "midi": 44,
            "name": "G#2",
            "ticks": 6336,
            "time": 12.0731655,
            "velocity": 0.7874015748031497
          },
          {
            "duration": 0.18292675000000003,
            "durationTicks": 96,
            "midi": 39,
            "name": "D#2",
            "ticks": 6336,
            "time": 12.0731655,
            "velocity": 0.7874015748031497
          },
          {
            "duration": 0.09146337500000001,
            "durationTicks": 48,
            "midi": 44,
            "name": "G#2",
            "ticks": 6384,
            "time": 12.164628875,
            "velocity": 0.7874015748031497
          },
          {
            "duration": 0.09146337500000001,
            "durationTicks": 48,
            "midi": 44,
            "name": "G#2",
            "ticks": 6432,
            "time": 12.25609225,
            "velocity": 0.7874015748031497
          },
          {
            "duration": 0.09146337500000001,
            "durationTicks": 48,
            "midi": 44,
            "name": "G#2",
            "ticks": 6480,
            "time": 12.347555625,
            "velocity": 0.7874015748031497
          },
          {
            "duration": 0.18292675000000003,
            "durationTicks": 96,
            "midi": 37,
            "name": "C#2",
            "ticks": 6528,
            "time": 12.439019,
            "velocity": 0.7874015748031497
          },
          {
            "duration": 0.09146337500000001,
            "durationTicks": 48,
            "midi": 44,
            "name": "G#2",
            "ticks": 6528,
            "time": 12.439019,
            "velocity": 0.7874015748031497
          },
          {
            "duration": 0.09146337500000001,
            "durationTicks": 48,
            "midi": 44,
            "name": "G#2",
            "ticks": 6576,
            "time": 12.530482375,
            "velocity": 0.7874015748031497
          },
          {
            "duration": 0.09146337500000001,
            "durationTicks": 48,
            "midi": 44,
            "name": "G#2",
            "ticks": 6624,
            "time": 12.62194575,
            "velocity": 0.7874015748031497
          },
          {
            "duration": 0.09146337500000001,
            "durationTicks": 48,
            "midi": 44,
            "name": "G#2",
            "ticks": 6672,
            "time": 12.713409125,
            "velocity": 0.7874015748031497
          },
          {
            "duration": 0.09146337500000001,
            "durationTicks": 48,
            "midi": 44,
            "name": "G#2",
            "ticks": 6720,
            "time": 12.8048725,
            "velocity": 0.7874015748031497
          },
          {
            "duration": 0.18292675000000003,
            "durationTicks": 96,
            "midi": 39,
            "name": "D#2",
            "ticks": 6720,
            "time": 12.8048725,
            "velocity": 0.7874015748031497
          },
          {
            "duration": 0.09146337500000001,
            "durationTicks": 48,
            "midi": 44,
            "name": "G#2",
            "ticks": 6768,
            "time": 12.896335875,
            "velocity": 0.7874015748031497
          },
          {
            "duration": 0.09146337500000001,
            "durationTicks": 48,
            "midi": 44,
            "name": "G#2",
            "ticks": 6816,
            "time": 12.98779925,
            "velocity": 0.7874015748031497
          },
          {
            "duration": 0.09146337500000001,
            "durationTicks": 48,
            "midi": 44,
            "name": "G#2",
            "ticks": 6864,
            "time": 13.079262625,
            "velocity": 0.7874015748031497
          },
          {
            "duration": 0.18292675000000003,
            "durationTicks": 96,
            "midi": 37,
            "name": "C#2",
            "ticks": 6912,
            "time": 13.170726,
            "velocity": 0.7874015748031497
          },
          {
            "duration": 0.09146337500000001,
            "durationTicks": 48,
            "midi": 44,
            "name": "G#2",
            "ticks": 6912,
            "time": 13.170726,
            "velocity": 0.7874015748031497
          },
          {
            "duration": 0.09146337500000001,
            "durationTicks": 48,
            "midi": 44,
            "name": "G#2",
            "ticks": 6960,
            "time": 13.262189375,
            "velocity": 0.7874015748031497
          },
          {
            "duration": 0.09146337500000001,
            "durationTicks": 48,
            "midi": 44,
            "name": "G#2",
            "ticks": 7008,
            "time": 13.35365275,
            "velocity": 0.7874015748031497
          },
          {
            "duration": 0.09146337500000001,
            "durationTicks": 48,
            "midi": 44,
            "name": "G#2",
            "ticks": 7056,
            "time": 13.445116125,
            "velocity": 0.7874015748031497
          },
          {
            "duration": 0.09146337500000001,
            "durationTicks": 48,
            "midi": 44,
            "name": "G#2",
            "ticks": 7104,
            "time": 13.5365795,
            "velocity": 0.7874015748031497
          },
          {
            "duration": 0.18292675000000003,
            "durationTicks": 96,
            "midi": 39,
            "name": "D#2",
            "ticks": 7104,
            "time": 13.5365795,
            "velocity": 0.7874015748031497
          },
          {
            "duration": 0.09146337500000001,
            "durationTicks": 48,
            "midi": 44,
            "name": "G#2",
            "ticks": 7152,
            "time": 13.628042875,
            "velocity": 0.7874015748031497
          },
          {
            "duration": 0.09146337500000001,
            "durationTicks": 48,
            "midi": 44,
            "name": "G#2",
            "ticks": 7200,
            "time": 13.71950625,
            "velocity": 0.7874015748031497
          },
          {
            "duration": 0.09146337500000001,
            "durationTicks": 48,
            "midi": 44,
            "name": "G#2",
            "ticks": 7248,
            "time": 13.810969625,
            "velocity": 0.7874015748031497
          },
          {
            "duration": 0.18292675000000003,
            "durationTicks": 96,
            "midi": 37,
            "name": "C#2",
            "ticks": 7296,
            "time": 13.902433,
            "velocity": 0.7874015748031497
          },
          {
            "duration": 0.09146337500000001,
            "durationTicks": 48,
            "midi": 44,
            "name": "G#2",
            "ticks": 7296,
            "time": 13.902433,
            "velocity": 0.7874015748031497
          },
          {
            "duration": 0.09146337500000001,
            "durationTicks": 48,
            "midi": 44,
            "name": "G#2",
            "ticks": 7344,
            "time": 13.993896375,
            "velocity": 0.7874015748031497
          },
          {
            "duration": 0.09146337500000001,
            "durationTicks": 48,
            "midi": 44,
            "name": "G#2",
            "ticks": 7392,
            "time": 14.08535975,
            "velocity": 0.7874015748031497
          },
          {
            "duration": 0.09146337500000001,
            "durationTicks": 48,
            "midi": 44,
            "name": "G#2",
            "ticks": 7440,
            "time": 14.176823125,
            "velocity": 0.7874015748031497
          },
          {
            "duration": 0.18292675000000003,
            "durationTicks": 96,
            "midi": 39,
            "name": "D#2",
            "ticks": 7488,
            "time": 14.2682865,
            "velocity": 0.7874015748031497
          },
          {
            "duration": 0.09146337500000001,
            "durationTicks": 48,
            "midi": 44,
            "name": "G#2",
            "ticks": 7488,
            "time": 14.2682865,
            "velocity": 0.7874015748031497
          },
          {
            "duration": 0.09146337500000001,
            "durationTicks": 48,
            "midi": 44,
            "name": "G#2",
            "ticks": 7536,
            "time": 14.359749875,
            "velocity": 0.7874015748031497
          },
          {
            "duration": 0.09146337500000001,
            "durationTicks": 48,
            "midi": 44,
            "name": "G#2",
            "ticks": 7584,
            "time": 14.45121325,
            "velocity": 0.7874015748031497
          },
          {
            "duration": 0.09146337500000001,
            "durationTicks": 48,
            "midi": 44,
            "name": "G#2",
            "ticks": 7632,
            "time": 14.542676625,
            "velocity": 0.7874015748031497
          },
          {
            "duration": 0.09146337500000001,
            "durationTicks": 48,
            "midi": 44,
            "name": "G#2",
            "ticks": 7680,
            "time": 14.63414,
            "velocity": 0.7874015748031497
          },
          {
            "duration": 0.18292675000000003,
            "durationTicks": 96,
            "midi": 37,
            "name": "C#2",
            "ticks": 7680,
            "time": 14.63414,
            "velocity": 0.7874015748031497
          },
          {
            "duration": 0.09146337500000001,
            "durationTicks": 48,
            "midi": 44,
            "name": "G#2",
            "ticks": 7728,
            "time": 14.725603375,
            "velocity": 0.7874015748031497
          },
          {
            "duration": 0.09146337500000001,
            "durationTicks": 48,
            "midi": 44,
            "name": "G#2",
            "ticks": 7776,
            "time": 14.81706675,
            "velocity": 0.7874015748031497
          },
          {
            "duration": 0.09146337500000001,
            "durationTicks": 48,
            "midi": 44,
            "name": "G#2",
            "ticks": 7824,
            "time": 14.908530125,
            "velocity": 0.7874015748031497
          },
          {
            "duration": 0.18292675000000003,
            "durationTicks": 96,
            "midi": 39,
            "name": "D#2",
            "ticks": 7872,
            "time": 14.9999935,
            "velocity": 0.7874015748031497
          },
          {
            "duration": 0.09146337500000001,
            "durationTicks": 48,
            "midi": 44,
            "name": "G#2",
            "ticks": 7872,
            "time": 14.9999935,
            "velocity": 0.7874015748031497
          },
          {
            "duration": 0.09146337500000001,
            "durationTicks": 48,
            "midi": 44,
            "name": "G#2",
            "ticks": 7920,
            "time": 15.091456875,
            "velocity": 0.7874015748031497
          },
          {
            "duration": 0.09146337500000001,
            "durationTicks": 48,
            "midi": 44,
            "name": "G#2",
            "ticks": 7968,
            "time": 15.18292025,
            "velocity": 0.7874015748031497
          },
          {
            "duration": 0.09146337500000001,
            "durationTicks": 48,
            "midi": 44,
            "name": "G#2",
            "ticks": 8016,
            "time": 15.274383625,
            "velocity": 0.7874015748031497
          },
          {
            "duration": 0.18292675000000003,
            "durationTicks": 96,
            "midi": 37,
            "name": "C#2",
            "ticks": 8064,
            "time": 15.365847,
            "velocity": 0.7874015748031497
          },
          {
            "duration": 0.09146337500000001,
            "durationTicks": 48,
            "midi": 44,
            "name": "G#2",
            "ticks": 8064,
            "time": 15.365847,
            "velocity": 0.7874015748031497
          },
          {
            "duration": 0.09146337500000001,
            "durationTicks": 48,
            "midi": 44,
            "name": "G#2",
            "ticks": 8112,
            "time": 15.457310375,
            "velocity": 0.7874015748031497
          },
          {
            "duration": 0.09146337500000001,
            "durationTicks": 48,
            "midi": 44,
            "name": "G#2",
            "ticks": 8160,
            "time": 15.54877375,
            "velocity": 0.7874015748031497
          },
          {
            "duration": 0.09146337500000001,
            "durationTicks": 48,
            "midi": 44,
            "name": "G#2",
            "ticks": 8208,
            "time": 15.640237125,
            "velocity": 0.7874015748031497
          },
          {
            "duration": 0.18292675000000003,
            "durationTicks": 96,
            "midi": 39,
            "name": "D#2",
            "ticks": 8256,
            "time": 15.7317005,
            "velocity": 0.7874015748031497
          },
          {
            "duration": 0.09146337500000001,
            "durationTicks": 48,
            "midi": 44,
            "name": "G#2",
            "ticks": 8256,
            "time": 15.7317005,
            "velocity": 0.7874015748031497
          },
          {
            "duration": 0.09146337500000001,
            "durationTicks": 48,
            "midi": 44,
            "name": "G#2",
            "ticks": 8304,
            "time": 15.823163875,
            "velocity": 0.7874015748031497
          },
          {
            "duration": 0.09146337499999824,
            "durationTicks": 48,
            "midi": 44,
            "name": "G#2",
            "ticks": 8352,
            "time": 15.91462725,
            "velocity": 0.7874015748031497
          },
          {
            "duration": 0.09146337500000001,
            "durationTicks": 48,
            "midi": 44,
            "name": "G#2",
            "ticks": 8400,
            "time": 16.006090625,
            "velocity": 0.7874015748031497
          },
          {
            "duration": 0.09146337500000001,
            "durationTicks": 48,
            "midi": 44,
            "name": "G#2",
            "ticks": 8448,
            "time": 16.097554,
            "velocity": 0.7874015748031497
          },
          {
            "duration": 0.18292675000000003,
            "durationTicks": 96,
            "midi": 37,
            "name": "C#2",
            "ticks": 8448,
            "time": 16.097554,
            "velocity": 0.7874015748031497
          },
          {
            "duration": 0.09146337500000001,
            "durationTicks": 48,
            "midi": 44,
            "name": "G#2",
            "ticks": 8496,
            "time": 16.189017375,
            "velocity": 0.7874015748031497
          },
          {
            "duration": 0.09146337500000001,
            "durationTicks": 48,
            "midi": 44,
            "name": "G#2",
            "ticks": 8544,
            "time": 16.28048075,
            "velocity": 0.7874015748031497
          },
          {
            "duration": 0.09146337500000001,
            "durationTicks": 48,
            "midi": 44,
            "name": "G#2",
            "ticks": 8592,
            "time": 16.371944125,
            "velocity": 0.7874015748031497
          },
          {
            "duration": 0.09146337500000001,
            "durationTicks": 48,
            "midi": 44,
            "name": "G#2",
            "ticks": 8640,
            "time": 16.4634075,
            "velocity": 0.7874015748031497
          },
          {
            "duration": 0.18292675000000003,
            "durationTicks": 96,
            "midi": 39,
            "name": "D#2",
            "ticks": 8640,
            "time": 16.4634075,
            "velocity": 0.7874015748031497
          },
          {
            "duration": 0.09146337500000001,
            "durationTicks": 48,
            "midi": 44,
            "name": "G#2",
            "ticks": 8688,
            "time": 16.554870875,
            "velocity": 0.7874015748031497
          },
          {
            "duration": 0.09146337500000001,
            "durationTicks": 48,
            "midi": 44,
            "name": "G#2",
            "ticks": 8736,
            "time": 16.64633425,
            "velocity": 0.7874015748031497
          },
          {
            "duration": 0.09146337500000001,
            "durationTicks": 48,
            "midi": 44,
            "name": "G#2",
            "ticks": 8784,
            "time": 16.737797625,
            "velocity": 0.7874015748031497
          },
          {
            "duration": 0.18292675000000003,
            "durationTicks": 96,
            "midi": 37,
            "name": "C#2",
            "ticks": 8832,
            "time": 16.829261,
            "velocity": 0.7874015748031497
          },
          {
            "duration": 0.09146337500000001,
            "durationTicks": 48,
            "midi": 44,
            "name": "G#2",
            "ticks": 8832,
            "time": 16.829261,
            "velocity": 0.7874015748031497
          },
          {
            "duration": 0.09146337500000001,
            "durationTicks": 48,
            "midi": 44,
            "name": "G#2",
            "ticks": 8880,
            "time": 16.920724375,
            "velocity": 0.7874015748031497
          },
          {
            "duration": 0.09146337500000001,
            "durationTicks": 48,
            "midi": 44,
            "name": "G#2",
            "ticks": 8928,
            "time": 17.01218775,
            "velocity": 0.7874015748031497
          },
          {
            "duration": 0.09146337500000001,
            "durationTicks": 48,
            "midi": 44,
            "name": "G#2",
            "ticks": 8976,
            "time": 17.103651125,
            "velocity": 0.7874015748031497
          },
          {
            "duration": 0.09146337500000001,
            "durationTicks": 48,
            "midi": 44,
            "name": "G#2",
            "ticks": 9024,
            "time": 17.1951145,
            "velocity": 0.7874015748031497
          },
          {
            "duration": 0.18292675000000003,
            "durationTicks": 96,
            "midi": 39,
            "name": "D#2",
            "ticks": 9024,
            "time": 17.1951145,
            "velocity": 0.7874015748031497
          },
          {
            "duration": 0.09146337500000001,
            "durationTicks": 48,
            "midi": 44,
            "name": "G#2",
            "ticks": 9072,
            "time": 17.286577875,
            "velocity": 0.7874015748031497
          },
          {
            "duration": 0.09146337500000001,
            "durationTicks": 48,
            "midi": 44,
            "name": "G#2",
            "ticks": 9120,
            "time": 17.37804125,
            "velocity": 0.7874015748031497
          },
          {
            "duration": 0.18292675000000003,
            "durationTicks": 96,
            "midi": 39,
            "name": "D#2",
            "ticks": 9120,
            "time": 17.37804125,
            "velocity": 0.7874015748031497
          },
          {
            "duration": 0.09146337500000001,
            "durationTicks": 48,
            "midi": 44,
            "name": "G#2",
            "ticks": 9168,
            "time": 17.469504625,
            "velocity": 0.7874015748031497
          },
          {
            "duration": 0.09146337500000001,
            "durationTicks": 48,
            "midi": 44,
            "name": "G#2",
            "ticks": 9216,
            "time": 17.560968,
            "velocity": 0.7874015748031497
          },
          {
            "duration": 0.18292675000000003,
            "durationTicks": 96,
            "midi": 37,
            "name": "C#2",
            "ticks": 9216,
            "time": 17.560968,
            "velocity": 0.7874015748031497
          },
          {
            "duration": 0.09146337500000001,
            "durationTicks": 48,
            "midi": 44,
            "name": "G#2",
            "ticks": 9264,
            "time": 17.652431375,
            "velocity": 0.7874015748031497
          },
          {
            "duration": 0.09146337500000001,
            "durationTicks": 48,
            "midi": 44,
            "name": "G#2",
            "ticks": 9312,
            "time": 17.74389475,
            "velocity": 0.7874015748031497
          },
          {
            "duration": 0.09146337500000001,
            "durationTicks": 48,
            "midi": 44,
            "name": "G#2",
            "ticks": 9360,
            "time": 17.835358125,
            "velocity": 0.7874015748031497
          },
          {
            "duration": 0.09146337500000001,
            "durationTicks": 48,
            "midi": 44,
            "name": "G#2",
            "ticks": 9408,
            "time": 17.9268215,
            "velocity": 0.7874015748031497
          },
          {
            "duration": 0.18292675000000003,
            "durationTicks": 96,
            "midi": 39,
            "name": "D#2",
            "ticks": 9408,
            "time": 17.9268215,
            "velocity": 0.7874015748031497
          },
          {
            "duration": 0.09146337500000001,
            "durationTicks": 48,
            "midi": 44,
            "name": "G#2",
            "ticks": 9456,
            "time": 18.018284875,
            "velocity": 0.7874015748031497
          },
          {
            "duration": 0.09146337500000001,
            "durationTicks": 48,
            "midi": 44,
            "name": "G#2",
            "ticks": 9504,
            "time": 18.10974825,
            "velocity": 0.7874015748031497
          },
          {
            "duration": 0.09146337500000001,
            "durationTicks": 48,
            "midi": 44,
            "name": "G#2",
            "ticks": 9552,
            "time": 18.201211625,
            "velocity": 0.7874015748031497
          },
          {
            "duration": 0.18292675000000003,
            "durationTicks": 96,
            "midi": 37,
            "name": "C#2",
            "ticks": 9600,
            "time": 18.292675,
            "velocity": 0.7874015748031497
          },
          {
            "duration": 0.09146337500000001,
            "durationTicks": 48,
            "midi": 44,
            "name": "G#2",
            "ticks": 9600,
            "time": 18.292675,
            "velocity": 0.7874015748031497
          },
          {
            "duration": 0.09146337500000001,
            "durationTicks": 48,
            "midi": 44,
            "name": "G#2",
            "ticks": 9648,
            "time": 18.384138375,
            "velocity": 0.7874015748031497
          },
          {
            "duration": 0.09146337500000001,
            "durationTicks": 48,
            "midi": 44,
            "name": "G#2",
            "ticks": 9696,
            "time": 18.47560175,
            "velocity": 0.7874015748031497
          },
          {
            "duration": 0.09146337500000001,
            "durationTicks": 48,
            "midi": 44,
            "name": "G#2",
            "ticks": 9744,
            "time": 18.567065125,
            "velocity": 0.7874015748031497
          },
          {
            "duration": 0.09146337500000001,
            "durationTicks": 48,
            "midi": 44,
            "name": "G#2",
            "ticks": 9792,
            "time": 18.6585285,
            "velocity": 0.7874015748031497
          },
          {
            "duration": 0.18292675000000003,
            "durationTicks": 96,
            "midi": 39,
            "name": "D#2",
            "ticks": 9792,
            "time": 18.6585285,
            "velocity": 0.7874015748031497
          },
          {
            "duration": 0.09146337500000001,
            "durationTicks": 48,
            "midi": 44,
            "name": "G#2",
            "ticks": 9840,
            "time": 18.749991875,
            "velocity": 0.7874015748031497
          },
          {
            "duration": 0.09146337500000001,
            "durationTicks": 48,
            "midi": 44,
            "name": "G#2",
            "ticks": 9888,
            "time": 18.84145525,
            "velocity": 0.7874015748031497
          },
          {
            "duration": 0.09146337500000001,
            "durationTicks": 48,
            "midi": 44,
            "name": "G#2",
            "ticks": 9936,
            "time": 18.932918625,
            "velocity": 0.7874015748031497
          },
          {
            "duration": 0.18292675000000003,
            "durationTicks": 96,
            "midi": 37,
            "name": "C#2",
            "ticks": 9984,
            "time": 19.024382,
            "velocity": 0.7874015748031497
          },
          {
            "duration": 0.09146337500000001,
            "durationTicks": 48,
            "midi": 44,
            "name": "G#2",
            "ticks": 9984,
            "time": 19.024382,
            "velocity": 0.7874015748031497
          },
          {
            "duration": 0.09146337500000001,
            "durationTicks": 48,
            "midi": 44,
            "name": "G#2",
            "ticks": 10032,
            "time": 19.115845375,
            "velocity": 0.7874015748031497
          },
          {
            "duration": 0.09146337500000001,
            "durationTicks": 48,
            "midi": 44,
            "name": "G#2",
            "ticks": 10080,
            "time": 19.20730875,
            "velocity": 0.7874015748031497
          },
          {
            "duration": 0.09146337500000001,
            "durationTicks": 48,
            "midi": 44,
            "name": "G#2",
            "ticks": 10128,
            "time": 19.298772125,
            "velocity": 0.7874015748031497
          },
          {
            "duration": 0.09146337500000001,
            "durationTicks": 48,
            "midi": 44,
            "name": "G#2",
            "ticks": 10176,
            "time": 19.3902355,
            "velocity": 0.7874015748031497
          },
          {
            "duration": 0.18292675000000003,
            "durationTicks": 96,
            "midi": 39,
            "name": "D#2",
            "ticks": 10176,
            "time": 19.3902355,
            "velocity": 0.7874015748031497
          },
          {
            "duration": 0.09146337500000001,
            "durationTicks": 48,
            "midi": 44,
            "name": "G#2",
            "ticks": 10224,
            "time": 19.481698875,
            "velocity": 0.7874015748031497
          },
          {
            "duration": 0.09146337500000001,
            "durationTicks": 48,
            "midi": 44,
            "name": "G#2",
            "ticks": 10272,
            "time": 19.57316225,
            "velocity": 0.7874015748031497
          },
          {
            "duration": 0.09146337500000001,
            "durationTicks": 48,
            "midi": 44,
            "name": "G#2",
            "ticks": 10320,
            "time": 19.664625625,
            "velocity": 0.7874015748031497
          },
          {
            "duration": 0.18292675000000003,
            "durationTicks": 96,
            "midi": 37,
            "name": "C#2",
            "ticks": 10368,
            "time": 19.756089,
            "velocity": 0.7874015748031497
          },
          {
            "duration": 0.09146337500000001,
            "durationTicks": 48,
            "midi": 44,
            "name": "G#2",
            "ticks": 10368,
            "time": 19.756089,
            "velocity": 0.7874015748031497
          },
          {
            "duration": 0.09146337500000001,
            "durationTicks": 48,
            "midi": 44,
            "name": "G#2",
            "ticks": 10416,
            "time": 19.847552375,
            "velocity": 0.7874015748031497
          },
          {
            "duration": 0.09146337500000001,
            "durationTicks": 48,
            "midi": 44,
            "name": "G#2",
            "ticks": 10464,
            "time": 19.93901575,
            "velocity": 0.7874015748031497
          },
          {
            "duration": 0.09146337500000001,
            "durationTicks": 48,
            "midi": 44,
            "name": "G#2",
            "ticks": 10512,
            "time": 20.030479125,
            "velocity": 0.7874015748031497
          },
          {
            "duration": 0.09146337500000001,
            "durationTicks": 48,
            "midi": 44,
            "name": "G#2",
            "ticks": 10560,
            "time": 20.1219425,
            "velocity": 0.7874015748031497
          },
          {
            "duration": 0.18292675000000003,
            "durationTicks": 96,
            "midi": 39,
            "name": "D#2",
            "ticks": 10560,
            "time": 20.1219425,
            "velocity": 0.7874015748031497
          },
          {
            "duration": 0.09146337500000001,
            "durationTicks": 48,
            "midi": 44,
            "name": "G#2",
            "ticks": 10608,
            "time": 20.213405875,
            "velocity": 0.7874015748031497
          },
          {
            "duration": 0.09146337500000001,
            "durationTicks": 48,
            "midi": 44,
            "name": "G#2",
            "ticks": 10656,
            "time": 20.30486925,
            "velocity": 0.7874015748031497
          },
          {
            "duration": 0.09146337500000001,
            "durationTicks": 48,
            "midi": 44,
            "name": "G#2",
            "ticks": 10704,
            "time": 20.396332625,
            "velocity": 0.7874015748031497
          },
          {
            "duration": 0.18292675000000003,
            "durationTicks": 96,
            "midi": 37,
            "name": "C#2",
            "ticks": 10752,
            "time": 20.487796,
            "velocity": 0.7874015748031497
          },
          {
            "duration": 0.09146337500000001,
            "durationTicks": 48,
            "midi": 44,
            "name": "G#2",
            "ticks": 10752,
            "time": 20.487796,
            "velocity": 0.7874015748031497
          },
          {
            "duration": 0.09146337500000001,
            "durationTicks": 48,
            "midi": 44,
            "name": "G#2",
            "ticks": 10800,
            "time": 20.579259375,
            "velocity": 0.7874015748031497
          },
          {
            "duration": 0.09146337500000001,
            "durationTicks": 48,
            "midi": 44,
            "name": "G#2",
            "ticks": 10848,
            "time": 20.67072275,
            "velocity": 0.7874015748031497
          },
          {
            "duration": 0.09146337500000001,
            "durationTicks": 48,
            "midi": 44,
            "name": "G#2",
            "ticks": 10896,
            "time": 20.762186125,
            "velocity": 0.7874015748031497
          },
          {
            "duration": 0.18292675000000003,
            "durationTicks": 96,
            "midi": 39,
            "name": "D#2",
            "ticks": 10944,
            "time": 20.8536495,
            "velocity": 0.7874015748031497
          },
          {
            "duration": 0.09146337500000001,
            "durationTicks": 48,
            "midi": 44,
            "name": "G#2",
            "ticks": 10944,
            "time": 20.8536495,
            "velocity": 0.7874015748031497
          },
          {
            "duration": 0.09146337500000001,
            "durationTicks": 48,
            "midi": 44,
            "name": "G#2",
            "ticks": 10992,
            "time": 20.945112875,
            "velocity": 0.7874015748031497
          },
          {
            "duration": 0.09146337500000001,
            "durationTicks": 48,
            "midi": 44,
            "name": "G#2",
            "ticks": 11040,
            "time": 21.03657625,
            "velocity": 0.7874015748031497
          },
          {
            "duration": 0.09146337500000001,
            "durationTicks": 48,
            "midi": 44,
            "name": "G#2",
            "ticks": 11088,
            "time": 21.128039625,
            "velocity": 0.7874015748031497
          },
          {
            "duration": 0.09146337500000001,
            "durationTicks": 48,
            "midi": 44,
            "name": "G#2",
            "ticks": 11136,
            "time": 21.219503,
            "velocity": 0.7874015748031497
          },
          {
            "duration": 0.18292675000000003,
            "durationTicks": 96,
            "midi": 37,
            "name": "C#2",
            "ticks": 11136,
            "time": 21.219503,
            "velocity": 0.7874015748031497
          },
          {
            "duration": 0.09146337500000001,
            "durationTicks": 48,
            "midi": 44,
            "name": "G#2",
            "ticks": 11184,
            "time": 21.310966375,
            "velocity": 0.7874015748031497
          },
          {
            "duration": 0.09146337500000001,
            "durationTicks": 48,
            "midi": 44,
            "name": "G#2",
            "ticks": 11232,
            "time": 21.40242975,
            "velocity": 0.7874015748031497
          },
          {
            "duration": 0.09146337500000001,
            "durationTicks": 48,
            "midi": 44,
            "name": "G#2",
            "ticks": 11280,
            "time": 21.493893125,
            "velocity": 0.7874015748031497
          },
          {
            "duration": 0.09146337500000001,
            "durationTicks": 48,
            "midi": 44,
            "name": "G#2",
            "ticks": 11328,
            "time": 21.5853565,
            "velocity": 0.7874015748031497
          },
          {
            "duration": 0.18292675000000003,
            "durationTicks": 96,
            "midi": 39,
            "name": "D#2",
            "ticks": 11328,
            "time": 21.5853565,
            "velocity": 0.7874015748031497
          },
          {
            "duration": 0.09146337500000001,
            "durationTicks": 48,
            "midi": 44,
            "name": "G#2",
            "ticks": 11376,
            "time": 21.676819875,
            "velocity": 0.7874015748031497
          },
          {
            "duration": 0.09146337500000001,
            "durationTicks": 48,
            "midi": 44,
            "name": "G#2",
            "ticks": 11424,
            "time": 21.76828325,
            "velocity": 0.7874015748031497
          },
          {
            "duration": 0.09146337500000001,
            "durationTicks": 48,
            "midi": 44,
            "name": "G#2",
            "ticks": 11472,
            "time": 21.859746625,
            "velocity": 0.7874015748031497
          },
          {
            "duration": 0.09146337500000001,
            "durationTicks": 48,
            "midi": 44,
            "name": "G#2",
            "ticks": 11520,
            "time": 21.95121,
            "velocity": 0.7874015748031497
          },
          {
            "duration": 0.18292675000000003,
            "durationTicks": 96,
            "midi": 37,
            "name": "C#2",
            "ticks": 11520,
            "time": 21.95121,
            "velocity": 0.7874015748031497
          },
          {
            "duration": 0.09146337500000001,
            "durationTicks": 48,
            "midi": 44,
            "name": "G#2",
            "ticks": 11568,
            "time": 22.042673375,
            "velocity": 0.7874015748031497
          },
          {
            "duration": 0.09146337500000001,
            "durationTicks": 48,
            "midi": 44,
            "name": "G#2",
            "ticks": 11616,
            "time": 22.13413675,
            "velocity": 0.7874015748031497
          },
          {
            "duration": 0.09146337500000001,
            "durationTicks": 48,
            "midi": 44,
            "name": "G#2",
            "ticks": 11664,
            "time": 22.225600125,
            "velocity": 0.7874015748031497
          },
          {
            "duration": 0.09146337500000001,
            "durationTicks": 48,
            "midi": 44,
            "name": "G#2",
            "ticks": 11712,
            "time": 22.3170635,
            "velocity": 0.7874015748031497
          },
          {
            "duration": 0.18292675000000003,
            "durationTicks": 96,
            "midi": 39,
            "name": "D#2",
            "ticks": 11712,
            "time": 22.3170635,
            "velocity": 0.7874015748031497
          },
          {
            "duration": 0.09146337500000001,
            "durationTicks": 48,
            "midi": 44,
            "name": "G#2",
            "ticks": 11760,
            "time": 22.408526875,
            "velocity": 0.7874015748031497
          },
          {
            "duration": 0.09146337500000001,
            "durationTicks": 48,
            "midi": 44,
            "name": "G#2",
            "ticks": 11808,
            "time": 22.49999025,
            "velocity": 0.7874015748031497
          },
          {
            "duration": 0.09146337500000001,
            "durationTicks": 48,
            "midi": 44,
            "name": "G#2",
            "ticks": 11856,
            "time": 22.591453625,
            "velocity": 0.7874015748031497
          },
          {
            "duration": 0.18292675000000003,
            "durationTicks": 96,
            "midi": 37,
            "name": "C#2",
            "ticks": 11904,
            "time": 22.682917,
            "velocity": 0.7874015748031497
          },
          {
            "duration": 0.09146337500000001,
            "durationTicks": 48,
            "midi": 44,
            "name": "G#2",
            "ticks": 11904,
            "time": 22.682917,
            "velocity": 0.7874015748031497
          },
          {
            "duration": 0.09146337500000001,
            "durationTicks": 48,
            "midi": 44,
            "name": "G#2",
            "ticks": 11952,
            "time": 22.774380375,
            "velocity": 0.7874015748031497
          },
          {
            "duration": 0.09146337500000001,
            "durationTicks": 48,
            "midi": 44,
            "name": "G#2",
            "ticks": 12000,
            "time": 22.86584375,
            "velocity": 0.7874015748031497
          },
          {
            "duration": 0.09146337500000001,
            "durationTicks": 48,
            "midi": 44,
            "name": "G#2",
            "ticks": 12048,
            "time": 22.957307125,
            "velocity": 0.7874015748031497
          },
          {
            "duration": 0.09146337500000001,
            "durationTicks": 48,
            "midi": 44,
            "name": "G#2",
            "ticks": 12096,
            "time": 23.0487705,
            "velocity": 0.7874015748031497
          },
          {
            "duration": 0.18292675000000003,
            "durationTicks": 96,
            "midi": 39,
            "name": "D#2",
            "ticks": 12096,
            "time": 23.0487705,
            "velocity": 0.7874015748031497
          },
          {
            "duration": 0.09146337500000001,
            "durationTicks": 48,
            "midi": 44,
            "name": "G#2",
            "ticks": 12144,
            "time": 23.140233875,
            "velocity": 0.7874015748031497
          },
          {
            "duration": 0.18292675000000003,
            "durationTicks": 96,
            "midi": 39,
            "name": "D#2",
            "ticks": 12192,
            "time": 23.23169725,
            "velocity": 0.7874015748031497
          },
          {
            "duration": 0.09146337500000001,
            "durationTicks": 48,
            "midi": 44,
            "name": "G#2",
            "ticks": 12192,
            "time": 23.23169725,
            "velocity": 0.7874015748031497
          },
          {
            "duration": 0.09146337500000001,
            "durationTicks": 48,
            "midi": 44,
            "name": "G#2",
            "ticks": 12240,
            "time": 23.323160625,
            "velocity": 0.7874015748031497
          },
          {
            "duration": 0.18292675000000003,
            "durationTicks": 96,
            "midi": 37,
            "name": "C#2",
            "ticks": 12288,
            "time": 23.414624,
            "velocity": 0.7874015748031497
          },
          {
            "duration": 0.09146337500000001,
            "durationTicks": 48,
            "midi": 44,
            "name": "G#2",
            "ticks": 12288,
            "time": 23.414624,
            "velocity": 0.7874015748031497
          },
          {
            "duration": 0.09146337500000001,
            "durationTicks": 48,
            "midi": 44,
            "name": "G#2",
            "ticks": 12336,
            "time": 23.506087375,
            "velocity": 0.7874015748031497
          },
          {
            "duration": 0.09146337500000001,
            "durationTicks": 48,
            "midi": 44,
            "name": "G#2",
            "ticks": 12384,
            "time": 23.59755075,
            "velocity": 0.7874015748031497
          },
          {
            "duration": 0.09146337500000001,
            "durationTicks": 48,
            "midi": 44,
            "name": "G#2",
            "ticks": 12432,
            "time": 23.689014125,
            "velocity": 0.7874015748031497
          },
          {
            "duration": 0.18292675000000003,
            "durationTicks": 96,
            "midi": 39,
            "name": "D#2",
            "ticks": 12480,
            "time": 23.7804775,
            "velocity": 0.7874015748031497
          },
          {
            "duration": 0.09146337500000001,
            "durationTicks": 48,
            "midi": 44,
            "name": "G#2",
            "ticks": 12480,
            "time": 23.7804775,
            "velocity": 0.7874015748031497
          },
          {
            "duration": 0.09146337500000001,
            "durationTicks": 48,
            "midi": 44,
            "name": "G#2",
            "ticks": 12528,
            "time": 23.871940875,
            "velocity": 0.7874015748031497
          },
          {
            "duration": 0.09146337500000001,
            "durationTicks": 48,
            "midi": 44,
            "name": "G#2",
            "ticks": 12576,
            "time": 23.96340425,
            "velocity": 0.7874015748031497
          },
          {
            "duration": 0.09146337500000001,
            "durationTicks": 48,
            "midi": 44,
            "name": "G#2",
            "ticks": 12624,
            "time": 24.054867625,
            "velocity": 0.7874015748031497
          },
          {
            "duration": 0.09146337500000001,
            "durationTicks": 48,
            "midi": 44,
            "name": "G#2",
            "ticks": 12672,
            "time": 24.146331,
            "velocity": 0.7874015748031497
          },
          {
            "duration": 0.18292675000000003,
            "durationTicks": 96,
            "midi": 37,
            "name": "C#2",
            "ticks": 12672,
            "time": 24.146331,
            "velocity": 0.7874015748031497
          },
          {
            "duration": 0.09146337500000001,
            "durationTicks": 48,
            "midi": 44,
            "name": "G#2",
            "ticks": 12720,
            "time": 24.237794375,
            "velocity": 0.7874015748031497
          },
          {
            "duration": 0.09146337500000001,
            "durationTicks": 48,
            "midi": 44,
            "name": "G#2",
            "ticks": 12768,
            "time": 24.32925775,
            "velocity": 0.7874015748031497
          },
          {
            "duration": 0.09146337500000001,
            "durationTicks": 48,
            "midi": 44,
            "name": "G#2",
            "ticks": 12816,
            "time": 24.420721125,
            "velocity": 0.7874015748031497
          },
          {
            "duration": 0.18292675000000003,
            "durationTicks": 96,
            "midi": 39,
            "name": "D#2",
            "ticks": 12864,
            "time": 24.5121845,
            "velocity": 0.7874015748031497
          },
          {
            "duration": 0.09146337500000001,
            "durationTicks": 48,
            "midi": 44,
            "name": "G#2",
            "ticks": 12864,
            "time": 24.5121845,
            "velocity": 0.7874015748031497
          },
          {
            "duration": 0.09146337500000001,
            "durationTicks": 48,
            "midi": 44,
            "name": "G#2",
            "ticks": 12912,
            "time": 24.603647875,
            "velocity": 0.7874015748031497
          },
          {
            "duration": 0.09146337500000001,
            "durationTicks": 48,
            "midi": 44,
            "name": "G#2",
            "ticks": 12960,
            "time": 24.69511125,
            "velocity": 0.7874015748031497
          },
          {
            "duration": 0.09146337500000001,
            "durationTicks": 48,
            "midi": 44,
            "name": "G#2",
            "ticks": 13008,
            "time": 24.786574625,
            "velocity": 0.7874015748031497
          },
          {
            "duration": 0.09146337500000001,
            "durationTicks": 48,
            "midi": 44,
            "name": "G#2",
            "ticks": 13056,
            "time": 24.878038,
            "velocity": 0.7874015748031497
          },
          {
            "duration": 0.18292675000000003,
            "durationTicks": 96,
            "midi": 37,
            "name": "C#2",
            "ticks": 13056,
            "time": 24.878038,
            "velocity": 0.7874015748031497
          },
          {
            "duration": 0.09146337500000001,
            "durationTicks": 48,
            "midi": 44,
            "name": "G#2",
            "ticks": 13104,
            "time": 24.969501375,
            "velocity": 0.7874015748031497
          },
          {
            "duration": 0.09146337500000001,
            "durationTicks": 48,
            "midi": 44,
            "name": "G#2",
            "ticks": 13152,
            "time": 25.06096475,
            "velocity": 0.7874015748031497
          },
          {
            "duration": 0.09146337500000001,
            "durationTicks": 48,
            "midi": 44,
            "name": "G#2",
            "ticks": 13200,
            "time": 25.152428125,
            "velocity": 0.7874015748031497
          },
          {
            "duration": 0.09146337500000001,
            "durationTicks": 48,
            "midi": 44,
            "name": "G#2",
            "ticks": 13248,
            "time": 25.2438915,
            "velocity": 0.7874015748031497
          },
          {
            "duration": 0.18292675000000003,
            "durationTicks": 96,
            "midi": 39,
            "name": "D#2",
            "ticks": 13248,
            "time": 25.2438915,
            "velocity": 0.7874015748031497
          },
          {
            "duration": 0.09146337500000001,
            "durationTicks": 48,
            "midi": 44,
            "name": "G#2",
            "ticks": 13296,
            "time": 25.335354875,
            "velocity": 0.7874015748031497
          },
          {
            "duration": 0.09146337500000001,
            "durationTicks": 48,
            "midi": 44,
            "name": "G#2",
            "ticks": 13344,
            "time": 25.42681825,
            "velocity": 0.7874015748031497
          },
          {
            "duration": 0.09146337500000001,
            "durationTicks": 48,
            "midi": 44,
            "name": "G#2",
            "ticks": 13392,
            "time": 25.518281625,
            "velocity": 0.7874015748031497
          },
          {
            "duration": 0.18292675000000003,
            "durationTicks": 96,
            "midi": 37,
            "name": "C#2",
            "ticks": 13440,
            "time": 25.609745,
            "velocity": 0.7874015748031497
          },
          {
            "duration": 0.09146337500000001,
            "durationTicks": 48,
            "midi": 44,
            "name": "G#2",
            "ticks": 13440,
            "time": 25.609745,
            "velocity": 0.7874015748031497
          },
          {
            "duration": 0.09146337500000001,
            "durationTicks": 48,
            "midi": 44,
            "name": "G#2",
            "ticks": 13488,
            "time": 25.701208375,
            "velocity": 0.7874015748031497
          },
          {
            "duration": 0.09146337500000001,
            "durationTicks": 48,
            "midi": 44,
            "name": "G#2",
            "ticks": 13536,
            "time": 25.79267175,
            "velocity": 0.7874015748031497
          },
          {
            "duration": 0.09146337500000001,
            "durationTicks": 48,
            "midi": 44,
            "name": "G#2",
            "ticks": 13584,
            "time": 25.884135125,
            "velocity": 0.7874015748031497
          },
          {
            "duration": 0.18292675000000003,
            "durationTicks": 96,
            "midi": 39,
            "name": "D#2",
            "ticks": 13632,
            "time": 25.9755985,
            "velocity": 0.7874015748031497
          },
          {
            "duration": 0.09146337500000001,
            "durationTicks": 48,
            "midi": 44,
            "name": "G#2",
            "ticks": 13632,
            "time": 25.9755985,
            "velocity": 0.7874015748031497
          },
          {
            "duration": 0.09146337500000001,
            "durationTicks": 48,
            "midi": 44,
            "name": "G#2",
            "ticks": 13680,
            "time": 26.067061875,
            "velocity": 0.7874015748031497
          },
          {
            "duration": 0.09146337500000001,
            "durationTicks": 48,
            "midi": 44,
            "name": "G#2",
            "ticks": 13728,
            "time": 26.15852525,
            "velocity": 0.7874015748031497
          },
          {
            "duration": 0.09146337500000001,
            "durationTicks": 48,
            "midi": 44,
            "name": "G#2",
            "ticks": 13776,
            "time": 26.249988625,
            "velocity": 0.7874015748031497
          },
          {
            "duration": 0.09146337500000001,
            "durationTicks": 48,
            "midi": 44,
            "name": "G#2",
            "ticks": 13824,
            "time": 26.341452,
            "velocity": 0.7874015748031497
          },
          {
            "duration": 0.18292675000000003,
            "durationTicks": 96,
            "midi": 37,
            "name": "C#2",
            "ticks": 13824,
            "time": 26.341452,
            "velocity": 0.7874015748031497
          },
          {
            "duration": 0.09146337500000001,
            "durationTicks": 48,
            "midi": 44,
            "name": "G#2",
            "ticks": 13872,
            "time": 26.432915375,
            "velocity": 0.7874015748031497
          },
          {
            "duration": 0.09146337500000001,
            "durationTicks": 48,
            "midi": 44,
            "name": "G#2",
            "ticks": 13920,
            "time": 26.52437875,
            "velocity": 0.7874015748031497
          },
          {
            "duration": 0.09146337500000001,
            "durationTicks": 48,
            "midi": 44,
            "name": "G#2",
            "ticks": 13968,
            "time": 26.615842125,
            "velocity": 0.7874015748031497
          },
          {
            "duration": 0.09146337500000001,
            "durationTicks": 48,
            "midi": 44,
            "name": "G#2",
            "ticks": 14016,
            "time": 26.7073055,
            "velocity": 0.7874015748031497
          },
          {
            "duration": 0.18292675000000003,
            "durationTicks": 96,
            "midi": 39,
            "name": "D#2",
            "ticks": 14016,
            "time": 26.7073055,
            "velocity": 0.7874015748031497
          },
          {
            "duration": 0.09146337500000001,
            "durationTicks": 48,
            "midi": 44,
            "name": "G#2",
            "ticks": 14064,
            "time": 26.798768875,
            "velocity": 0.7874015748031497
          },
          {
            "duration": 0.09146337500000001,
            "durationTicks": 48,
            "midi": 44,
            "name": "G#2",
            "ticks": 14112,
            "time": 26.89023225,
            "velocity": 0.7874015748031497
          },
          {
            "duration": 0.09146337500000001,
            "durationTicks": 48,
            "midi": 44,
            "name": "G#2",
            "ticks": 14160,
            "time": 26.981695625,
            "velocity": 0.7874015748031497
          },
          {
            "duration": 0.18292675000000003,
            "durationTicks": 96,
            "midi": 37,
            "name": "C#2",
            "ticks": 14208,
            "time": 27.073159,
            "velocity": 0.7874015748031497
          },
          {
            "duration": 0.09146337500000001,
            "durationTicks": 48,
            "midi": 44,
            "name": "G#2",
            "ticks": 14208,
            "time": 27.073159,
            "velocity": 0.7874015748031497
          },
          {
            "duration": 0.09146337500000001,
            "durationTicks": 48,
            "midi": 44,
            "name": "G#2",
            "ticks": 14256,
            "time": 27.164622375,
            "velocity": 0.7874015748031497
          },
          {
            "duration": 0.09146337500000001,
            "durationTicks": 48,
            "midi": 44,
            "name": "G#2",
            "ticks": 14304,
            "time": 27.25608575,
            "velocity": 0.7874015748031497
          },
          {
            "duration": 0.09146337500000001,
            "durationTicks": 48,
            "midi": 44,
            "name": "G#2",
            "ticks": 14352,
            "time": 27.347549125,
            "velocity": 0.7874015748031497
          },
          {
            "duration": 0.09146337500000001,
            "durationTicks": 48,
            "midi": 44,
            "name": "G#2",
            "ticks": 14400,
            "time": 27.4390125,
            "velocity": 0.7874015748031497
          },
          {
            "duration": 0.18292675000000003,
            "durationTicks": 96,
            "midi": 39,
            "name": "D#2",
            "ticks": 14400,
            "time": 27.4390125,
            "velocity": 0.7874015748031497
          },
          {
            "duration": 0.09146337500000001,
            "durationTicks": 48,
            "midi": 44,
            "name": "G#2",
            "ticks": 14448,
            "time": 27.530475875,
            "velocity": 0.7874015748031497
          },
          {
            "duration": 0.09146337500000001,
            "durationTicks": 48,
            "midi": 44,
            "name": "G#2",
            "ticks": 14496,
            "time": 27.62193925,
            "velocity": 0.7874015748031497
          },
          {
            "duration": 0.09146337500000001,
            "durationTicks": 48,
            "midi": 44,
            "name": "G#2",
            "ticks": 14544,
            "time": 27.713402625,
            "velocity": 0.7874015748031497
          },
          {
            "duration": 0.18292675000000003,
            "durationTicks": 96,
            "midi": 37,
            "name": "C#2",
            "ticks": 14592,
            "time": 27.804866,
            "velocity": 0.7874015748031497
          },
          {
            "duration": 0.09146337500000001,
            "durationTicks": 48,
            "midi": 44,
            "name": "G#2",
            "ticks": 14592,
            "time": 27.804866,
            "velocity": 0.7874015748031497
          },
          {
            "duration": 0.09146337500000001,
            "durationTicks": 48,
            "midi": 44,
            "name": "G#2",
            "ticks": 14640,
            "time": 27.896329375,
            "velocity": 0.7874015748031497
          },
          {
            "duration": 0.09146337500000001,
            "durationTicks": 48,
            "midi": 44,
            "name": "G#2",
            "ticks": 14688,
            "time": 27.98779275,
            "velocity": 0.7874015748031497
          },
          {
            "duration": 0.09146337500000001,
            "durationTicks": 48,
            "midi": 44,
            "name": "G#2",
            "ticks": 14736,
            "time": 28.079256125,
            "velocity": 0.7874015748031497
          },
          {
            "duration": 0.18292675000000003,
            "durationTicks": 96,
            "midi": 39,
            "name": "D#2",
            "ticks": 14784,
            "time": 28.1707195,
            "velocity": 0.7874015748031497
          },
          {
            "duration": 0.09146337500000001,
            "durationTicks": 48,
            "midi": 44,
            "name": "G#2",
            "ticks": 14784,
            "time": 28.1707195,
            "velocity": 0.7874015748031497
          },
          {
            "duration": 0.09146337500000001,
            "durationTicks": 48,
            "midi": 44,
            "name": "G#2",
            "ticks": 14832,
            "time": 28.262182875,
            "velocity": 0.7874015748031497
          },
          {
            "duration": 0.09146337500000001,
            "durationTicks": 48,
            "midi": 44,
            "name": "G#2",
            "ticks": 14880,
            "time": 28.35364625,
            "velocity": 0.7874015748031497
          },
          {
            "duration": 0.09146337500000001,
            "durationTicks": 48,
            "midi": 44,
            "name": "G#2",
            "ticks": 14928,
            "time": 28.445109625,
            "velocity": 0.7874015748031497
          },
          {
            "duration": 0.18292675000000003,
            "durationTicks": 96,
            "midi": 37,
            "name": "C#2",
            "ticks": 14976,
            "time": 28.536573,
            "velocity": 0.7874015748031497
          },
          {
            "duration": 0.09146337500000001,
            "durationTicks": 48,
            "midi": 44,
            "name": "G#2",
            "ticks": 14976,
            "time": 28.536573,
            "velocity": 0.7874015748031497
          },
          {
            "duration": 0.09146337500000001,
            "durationTicks": 48,
            "midi": 44,
            "name": "G#2",
            "ticks": 15024,
            "time": 28.628036375,
            "velocity": 0.7874015748031497
          },
          {
            "duration": 0.09146337500000001,
            "durationTicks": 48,
            "midi": 44,
            "name": "G#2",
            "ticks": 15072,
            "time": 28.71949975,
            "velocity": 0.7874015748031497
          },
          {
            "duration": 0.09146337500000001,
            "durationTicks": 48,
            "midi": 44,
            "name": "G#2",
            "ticks": 15120,
            "time": 28.810963125,
            "velocity": 0.7874015748031497
          },
          {
            "duration": 0.18292675000000003,
            "durationTicks": 96,
            "midi": 39,
            "name": "D#2",
            "ticks": 15168,
            "time": 28.9024265,
            "velocity": 0.7874015748031497
          },
          {
            "duration": 0.09146337500000001,
            "durationTicks": 48,
            "midi": 44,
            "name": "G#2",
            "ticks": 15168,
            "time": 28.9024265,
            "velocity": 0.7874015748031497
          },
          {
            "duration": 0.09146337500000001,
            "durationTicks": 48,
            "midi": 44,
            "name": "G#2",
            "ticks": 15216,
            "time": 28.993889875,
            "velocity": 0.7874015748031497
          },
          {
            "duration": 0.09146337500000001,
            "durationTicks": 48,
            "midi": 44,
            "name": "G#2",
            "ticks": 15264,
            "time": 29.08535325,
            "velocity": 0.7874015748031497
          },
          {
            "duration": 0.18292675000000003,
            "durationTicks": 96,
            "midi": 39,
            "name": "D#2",
            "ticks": 15264,
            "time": 29.08535325,
            "velocity": 0.7874015748031497
          },
          {
            "duration": 0.09146337500000001,
            "durationTicks": 48,
            "midi": 44,
            "name": "G#2",
            "ticks": 15312,
            "time": 29.176816625,
            "velocity": 0.7874015748031497
          },
          {
            "duration": 0.18292675000000003,
            "durationTicks": 96,
            "midi": 37,
            "name": "C#2",
            "ticks": 15360,
            "time": 29.26828,
            "velocity": 0.7874015748031497
          },
          {
            "duration": 0.09146337500000001,
            "durationTicks": 48,
            "midi": 44,
            "name": "G#2",
            "ticks": 15360,
            "time": 29.26828,
            "velocity": 0.7874015748031497
          },
          {
            "duration": 0.09146337500000001,
            "durationTicks": 48,
            "midi": 44,
            "name": "G#2",
            "ticks": 15408,
            "time": 29.359743375,
            "velocity": 0.7874015748031497
          },
          {
            "duration": 0.09146337500000001,
            "durationTicks": 48,
            "midi": 44,
            "name": "G#2",
            "ticks": 15456,
            "time": 29.45120675,
            "velocity": 0.7874015748031497
          },
          {
            "duration": 0.09146337500000001,
            "durationTicks": 48,
            "midi": 44,
            "name": "G#2",
            "ticks": 15504,
            "time": 29.542670125,
            "velocity": 0.7874015748031497
          },
          {
            "duration": 0.09146337500000001,
            "durationTicks": 48,
            "midi": 44,
            "name": "G#2",
            "ticks": 15552,
            "time": 29.6341335,
            "velocity": 0.7874015748031497
          },
          {
            "duration": 0.18292675000000003,
            "durationTicks": 96,
            "midi": 39,
            "name": "D#2",
            "ticks": 15552,
            "time": 29.6341335,
            "velocity": 0.7874015748031497
          },
          {
            "duration": 0.09146337500000001,
            "durationTicks": 48,
            "midi": 44,
            "name": "G#2",
            "ticks": 15600,
            "time": 29.725596875,
            "velocity": 0.7874015748031497
          },
          {
            "duration": 0.09146337500000001,
            "durationTicks": 48,
            "midi": 44,
            "name": "G#2",
            "ticks": 15648,
            "time": 29.81706025,
            "velocity": 0.7874015748031497
          },
          {
            "duration": 0.09146337500000001,
            "durationTicks": 48,
            "midi": 44,
            "name": "G#2",
            "ticks": 15696,
            "time": 29.908523625,
            "velocity": 0.7874015748031497
          },
          {
            "duration": 0.09146337500000001,
            "durationTicks": 48,
            "midi": 44,
            "name": "G#2",
            "ticks": 15744,
            "time": 29.999987,
            "velocity": 0.7874015748031497
          },
          {
            "duration": 0.18292675000000003,
            "durationTicks": 96,
            "midi": 37,
            "name": "C#2",
            "ticks": 15744,
            "time": 29.999987,
            "velocity": 0.7874015748031497
          },
          {
            "duration": 0.09146337500000001,
            "durationTicks": 48,
            "midi": 44,
            "name": "G#2",
            "ticks": 15792,
            "time": 30.091450375,
            "velocity": 0.7874015748031497
          },
          {
            "duration": 0.09146337500000001,
            "durationTicks": 48,
            "midi": 44,
            "name": "G#2",
            "ticks": 15840,
            "time": 30.18291375,
            "velocity": 0.7874015748031497
          },
          {
            "duration": 0.09146337500000001,
            "durationTicks": 48,
            "midi": 44,
            "name": "G#2",
            "ticks": 15888,
            "time": 30.274377125,
            "velocity": 0.7874015748031497
          },
          {
            "duration": 0.09146337500000001,
            "durationTicks": 48,
            "midi": 44,
            "name": "G#2",
            "ticks": 15936,
            "time": 30.3658405,
            "velocity": 0.7874015748031497
          },
          {
            "duration": 0.18292675000000003,
            "durationTicks": 96,
            "midi": 39,
            "name": "D#2",
            "ticks": 15936,
            "time": 30.3658405,
            "velocity": 0.7874015748031497
          },
          {
            "duration": 0.09146337500000001,
            "durationTicks": 48,
            "midi": 44,
            "name": "G#2",
            "ticks": 15984,
            "time": 30.457303875,
            "velocity": 0.7874015748031497
          },
          {
            "duration": 0.09146337500000001,
            "durationTicks": 48,
            "midi": 44,
            "name": "G#2",
            "ticks": 16032,
            "time": 30.54876725,
            "velocity": 0.7874015748031497
          },
          {
            "duration": 0.09146337500000001,
            "durationTicks": 48,
            "midi": 44,
            "name": "G#2",
            "ticks": 16080,
            "time": 30.640230625,
            "velocity": 0.7874015748031497
          },
          {
            "duration": 0.09146337500000001,
            "durationTicks": 48,
            "midi": 44,
            "name": "G#2",
            "ticks": 16128,
            "time": 30.731694,
            "velocity": 0.7874015748031497
          },
          {
            "duration": 0.18292675000000003,
            "durationTicks": 96,
            "midi": 37,
            "name": "C#2",
            "ticks": 16128,
            "time": 30.731694,
            "velocity": 0.7874015748031497
          },
          {
            "duration": 0.09146337500000001,
            "durationTicks": 48,
            "midi": 44,
            "name": "G#2",
            "ticks": 16176,
            "time": 30.823157375,
            "velocity": 0.7874015748031497
          },
          {
            "duration": 0.09146337500000001,
            "durationTicks": 48,
            "midi": 44,
            "name": "G#2",
            "ticks": 16224,
            "time": 30.91462075,
            "velocity": 0.7874015748031497
          },
          {
            "duration": 0.09146337500000001,
            "durationTicks": 48,
            "midi": 44,
            "name": "G#2",
            "ticks": 16272,
            "time": 31.006084125,
            "velocity": 0.7874015748031497
          },
          {
            "duration": 0.09146337500000001,
            "durationTicks": 48,
            "midi": 44,
            "name": "G#2",
            "ticks": 16320,
            "time": 31.0975475,
            "velocity": 0.7874015748031497
          },
          {
            "duration": 0.18292675000000003,
            "durationTicks": 96,
            "midi": 39,
            "name": "D#2",
            "ticks": 16320,
            "time": 31.0975475,
            "velocity": 0.7874015748031497
          },
          {
            "duration": 0.09146337500000001,
            "durationTicks": 48,
            "midi": 44,
            "name": "G#2",
            "ticks": 16368,
            "time": 31.189010875,
            "velocity": 0.7874015748031497
          },
          {
            "duration": 0.09146337500000001,
            "durationTicks": 48,
            "midi": 44,
            "name": "G#2",
            "ticks": 16416,
            "time": 31.28047425,
            "velocity": 0.7874015748031497
          },
          {
            "duration": 0.09146337500000001,
            "durationTicks": 48,
            "midi": 44,
            "name": "G#2",
            "ticks": 16464,
            "time": 31.371937625,
            "velocity": 0.7874015748031497
          },
          {
            "duration": 0.18292675000000003,
            "durationTicks": 96,
            "midi": 37,
            "name": "C#2",
            "ticks": 16512,
            "time": 31.463401,
            "velocity": 0.7874015748031497
          },
          {
            "duration": 0.09146337500000001,
            "durationTicks": 48,
            "midi": 44,
            "name": "G#2",
            "ticks": 16512,
            "time": 31.463401,
            "velocity": 0.7874015748031497
          },
          {
            "duration": 0.09146337500000001,
            "durationTicks": 48,
            "midi": 44,
            "name": "G#2",
            "ticks": 16560,
            "time": 31.554864375,
            "velocity": 0.7874015748031497
          },
          {
            "duration": 0.09146337500000001,
            "durationTicks": 48,
            "midi": 44,
            "name": "G#2",
            "ticks": 16608,
            "time": 31.64632775,
            "velocity": 0.7874015748031497
          },
          {
            "duration": 0.09146337500000001,
            "durationTicks": 48,
            "midi": 44,
            "name": "G#2",
            "ticks": 16656,
            "time": 31.737791125,
            "velocity": 0.7874015748031497
          },
          {
            "duration": 0.18292674999999647,
            "durationTicks": 96,
            "midi": 39,
            "name": "D#2",
            "ticks": 16704,
            "time": 31.8292545,
            "velocity": 0.7874015748031497
          },
          {
            "duration": 0.09146337500000001,
            "durationTicks": 48,
            "midi": 44,
            "name": "G#2",
            "ticks": 16704,
            "time": 31.8292545,
            "velocity": 0.7874015748031497
          },
          {
            "duration": 0.09146337499999646,
            "durationTicks": 48,
            "midi": 44,
            "name": "G#2",
            "ticks": 16752,
            "time": 31.920717875,
            "velocity": 0.7874015748031497
          },
          {
            "duration": 0.09146337500000357,
            "durationTicks": 48,
            "midi": 44,
            "name": "G#2",
            "ticks": 16800,
            "time": 32.01218125,
            "velocity": 0.7874015748031497
          },
          {
            "duration": 0.09146337499999646,
            "durationTicks": 48,
            "midi": 44,
            "name": "G#2",
            "ticks": 16848,
            "time": 32.103644625,
            "velocity": 0.7874015748031497
          },
          {
            "duration": 0.09146337500000357,
            "durationTicks": 48,
            "midi": 44,
            "name": "G#2",
            "ticks": 16896,
            "time": 32.195108,
            "velocity": 0.7874015748031497
          },
          {
            "duration": 0.18292675000000003,
            "durationTicks": 96,
            "midi": 37,
            "name": "C#2",
            "ticks": 16896,
            "time": 32.195108,
            "velocity": 0.7874015748031497
          },
          {
            "duration": 0.09146337499999646,
            "durationTicks": 48,
            "midi": 44,
            "name": "G#2",
            "ticks": 16944,
            "time": 32.286571375,
            "velocity": 0.7874015748031497
          },
          {
            "duration": 0.09146337500000357,
            "durationTicks": 48,
            "midi": 44,
            "name": "G#2",
            "ticks": 16992,
            "time": 32.37803475,
            "velocity": 0.7874015748031497
          },
          {
            "duration": 0.09146337499999646,
            "durationTicks": 48,
            "midi": 44,
            "name": "G#2",
            "ticks": 17040,
            "time": 32.469498125,
            "velocity": 0.7874015748031497
          },
          {
            "duration": 0.18292675000000003,
            "durationTicks": 96,
            "midi": 39,
            "name": "D#2",
            "ticks": 17088,
            "time": 32.5609615,
            "velocity": 0.7874015748031497
          },
          {
            "duration": 0.09146337500000357,
            "durationTicks": 48,
            "midi": 44,
            "name": "G#2",
            "ticks": 17088,
            "time": 32.5609615,
            "velocity": 0.7874015748031497
          },
          {
            "duration": 0.09146337499999646,
            "durationTicks": 48,
            "midi": 44,
            "name": "G#2",
            "ticks": 17136,
            "time": 32.652424875,
            "velocity": 0.7874015748031497
          },
          {
            "duration": 0.09146337500000357,
            "durationTicks": 48,
            "midi": 44,
            "name": "G#2",
            "ticks": 17184,
            "time": 32.74388825,
            "velocity": 0.7874015748031497
          },
          {
            "duration": 0.09146337499999646,
            "durationTicks": 48,
            "midi": 44,
            "name": "G#2",
            "ticks": 17232,
            "time": 32.835351625,
            "velocity": 0.7874015748031497
          },
          {
            "duration": 0.09146337500000357,
            "durationTicks": 48,
            "midi": 44,
            "name": "G#2",
            "ticks": 17280,
            "time": 32.926815,
            "velocity": 0.7874015748031497
          },
          {
            "duration": 0.18292675000000003,
            "durationTicks": 96,
            "midi": 37,
            "name": "C#2",
            "ticks": 17280,
            "time": 32.926815,
            "velocity": 0.7874015748031497
          },
          {
            "duration": 0.09146337499999646,
            "durationTicks": 48,
            "midi": 44,
            "name": "G#2",
            "ticks": 17328,
            "time": 33.018278375,
            "velocity": 0.7874015748031497
          },
          {
            "duration": 0.09146337500000357,
            "durationTicks": 48,
            "midi": 44,
            "name": "G#2",
            "ticks": 17376,
            "time": 33.10974175,
            "velocity": 0.7874015748031497
          },
          {
            "duration": 0.09146337499999646,
            "durationTicks": 48,
            "midi": 44,
            "name": "G#2",
            "ticks": 17424,
            "time": 33.201205125,
            "velocity": 0.7874015748031497
          },
          {
            "duration": 0.09146337500000357,
            "durationTicks": 48,
            "midi": 44,
            "name": "G#2",
            "ticks": 17472,
            "time": 33.2926685,
            "velocity": 0.7874015748031497
          },
          {
            "duration": 0.18292675000000003,
            "durationTicks": 96,
            "midi": 39,
            "name": "D#2",
            "ticks": 17472,
            "time": 33.2926685,
            "velocity": 0.7874015748031497
          },
          {
            "duration": 0.09146337499999646,
            "durationTicks": 48,
            "midi": 44,
            "name": "G#2",
            "ticks": 17520,
            "time": 33.384131875,
            "velocity": 0.7874015748031497
          },
          {
            "duration": 0.09146337500000357,
            "durationTicks": 48,
            "midi": 44,
            "name": "G#2",
            "ticks": 17568,
            "time": 33.47559525,
            "velocity": 0.7874015748031497
          },
          {
            "duration": 0.09146337499999646,
            "durationTicks": 48,
            "midi": 44,
            "name": "G#2",
            "ticks": 17616,
            "time": 33.567058625,
            "velocity": 0.7874015748031497
          },
          {
            "duration": 0.18292675000000003,
            "durationTicks": 96,
            "midi": 37,
            "name": "C#2",
            "ticks": 17664,
            "time": 33.658522,
            "velocity": 0.7874015748031497
          },
          {
            "duration": 0.09146337500000357,
            "durationTicks": 48,
            "midi": 44,
            "name": "G#2",
            "ticks": 17664,
            "time": 33.658522,
            "velocity": 0.7874015748031497
          },
          {
            "duration": 0.09146337499999646,
            "durationTicks": 48,
            "midi": 44,
            "name": "G#2",
            "ticks": 17712,
            "time": 33.749985375,
            "velocity": 0.7874015748031497
          },
          {
            "duration": 0.09146337500000357,
            "durationTicks": 48,
            "midi": 44,
            "name": "G#2",
            "ticks": 17760,
            "time": 33.84144875,
            "velocity": 0.7874015748031497
          },
          {
            "duration": 0.09146337499999646,
            "durationTicks": 48,
            "midi": 44,
            "name": "G#2",
            "ticks": 17808,
            "time": 33.932912125,
            "velocity": 0.7874015748031497
          },
          {
            "duration": 0.18292675000000003,
            "durationTicks": 96,
            "midi": 39,
            "name": "D#2",
            "ticks": 17856,
            "time": 34.0243755,
            "velocity": 0.7874015748031497
          },
          {
            "duration": 0.09146337500000357,
            "durationTicks": 48,
            "midi": 44,
            "name": "G#2",
            "ticks": 17856,
            "time": 34.0243755,
            "velocity": 0.7874015748031497
          },
          {
            "duration": 0.09146337499999646,
            "durationTicks": 48,
            "midi": 44,
            "name": "G#2",
            "ticks": 17904,
            "time": 34.115838875,
            "velocity": 0.7874015748031497
          },
          {
            "duration": 0.09146337500000357,
            "durationTicks": 48,
            "midi": 44,
            "name": "G#2",
            "ticks": 17952,
            "time": 34.20730225,
            "velocity": 0.7874015748031497
          },
          {
            "duration": 0.09146337499999646,
            "durationTicks": 48,
            "midi": 44,
            "name": "G#2",
            "ticks": 18000,
            "time": 34.298765625,
            "velocity": 0.7874015748031497
          },
          {
            "duration": 0.18292675000000003,
            "durationTicks": 96,
            "midi": 37,
            "name": "C#2",
            "ticks": 18048,
            "time": 34.390229,
            "velocity": 0.7874015748031497
          },
          {
            "duration": 0.09146337500000357,
            "durationTicks": 48,
            "midi": 44,
            "name": "G#2",
            "ticks": 18048,
            "time": 34.390229,
            "velocity": 0.7874015748031497
          },
          {
            "duration": 0.09146337499999646,
            "durationTicks": 48,
            "midi": 44,
            "name": "G#2",
            "ticks": 18096,
            "time": 34.481692375,
            "velocity": 0.7874015748031497
          },
          {
            "duration": 0.09146337500000357,
            "durationTicks": 48,
            "midi": 44,
            "name": "G#2",
            "ticks": 18144,
            "time": 34.57315575,
            "velocity": 0.7874015748031497
          },
          {
            "duration": 0.09146337499999646,
            "durationTicks": 48,
            "midi": 44,
            "name": "G#2",
            "ticks": 18192,
            "time": 34.664619125,
            "velocity": 0.7874015748031497
          },
          {
            "duration": 0.09146337500000357,
            "durationTicks": 48,
            "midi": 44,
            "name": "G#2",
            "ticks": 18240,
            "time": 34.7560825,
            "velocity": 0.7874015748031497
          },
          {
            "duration": 0.18292675000000003,
            "durationTicks": 96,
            "midi": 39,
            "name": "D#2",
            "ticks": 18240,
            "time": 34.7560825,
            "velocity": 0.7874015748031497
          },
          {
            "duration": 0.09146337499999646,
            "durationTicks": 48,
            "midi": 44,
            "name": "G#2",
            "ticks": 18288,
            "time": 34.847545875,
            "velocity": 0.7874015748031497
          },
          {
            "duration": 0.18292675000000003,
            "durationTicks": 96,
            "midi": 39,
            "name": "D#2",
            "ticks": 18336,
            "time": 34.93900925,
            "velocity": 0.7874015748031497
          },
          {
            "duration": 0.09146337500000357,
            "durationTicks": 48,
            "midi": 44,
            "name": "G#2",
            "ticks": 18336,
            "time": 34.93900925,
            "velocity": 0.7874015748031497
          },
          {
            "duration": 0.09146337499999646,
            "durationTicks": 48,
            "midi": 44,
            "name": "G#2",
            "ticks": 18384,
            "time": 35.030472625,
            "velocity": 0.7874015748031497
          }
        ],
        "endOfTrackTicks": 18432
      },
      {
        "channel": 1,
        "controlChanges": {},
        "pitchBends": [],
        "instrument": {
          "family": "synth lead",
          "number": 80,
          "name": "lead 1 (square)"
        },
        "name": "Smooth Synth",
        "notes": [
          {
            "duration": 0.9146337500000001,
            "durationTicks": 480,
            "midi": 67,
            "name": "G4",
            "ticks": 18432,
            "time": 35.121936,
            "velocity": 0.5984251968503937
          },
          {
            "duration": 0.9146337500000001,
            "durationTicks": 480,
            "midi": 72,
            "name": "C5",
            "ticks": 18432,
            "time": 35.121936,
            "velocity": 0.5984251968503937
          },
          {
            "duration": 0.18292675000000003,
            "durationTicks": 96,
            "midi": 76,
            "name": "E5",
            "ticks": 18912,
            "time": 36.03656975,
            "velocity": 0.5984251968503937
          },
          {
            "duration": 0.18292675000000003,
            "durationTicks": 96,
            "midi": 71,
            "name": "B4",
            "ticks": 18912,
            "time": 36.03656975,
            "velocity": 0.5984251968503937
          },
          {
            "duration": 0.18292675000000003,
            "durationTicks": 96,
            "midi": 69,
            "name": "A4",
            "ticks": 19008,
            "time": 36.2194965,
            "velocity": 0.5984251968503937
          },
          {
            "duration": 0.18292675000000003,
            "durationTicks": 96,
            "midi": 74,
            "name": "D5",
            "ticks": 19008,
            "time": 36.2194965,
            "velocity": 0.5984251968503937
          },
          {
            "duration": 0.18292675000000003,
            "durationTicks": 96,
            "midi": 67,
            "name": "G4",
            "ticks": 19104,
            "time": 36.40242325,
            "velocity": 0.5984251968503937
          },
          {
            "duration": 0.18292675000000003,
            "durationTicks": 96,
            "midi": 72,
            "name": "C5",
            "ticks": 19104,
            "time": 36.40242325,
            "velocity": 0.5984251968503937
          },
          {
            "duration": 0.9146337500000001,
            "durationTicks": 480,
            "midi": 67,
            "name": "G4",
            "ticks": 19200,
            "time": 36.58535,
            "velocity": 0.5984251968503937
          },
          {
            "duration": 0.9146337500000001,
            "durationTicks": 480,
            "midi": 71,
            "name": "B4",
            "ticks": 19200,
            "time": 36.58535,
            "velocity": 0.5984251968503937
          },
          {
            "duration": 0.18292675000000003,
            "durationTicks": 96,
            "midi": 76,
            "name": "E5",
            "ticks": 19680,
            "time": 37.49998375,
            "velocity": 0.5984251968503937
          },
          {
            "duration": 0.18292675000000003,
            "durationTicks": 96,
            "midi": 72,
            "name": "C5",
            "ticks": 19680,
            "time": 37.49998375,
            "velocity": 0.5984251968503937
          },
          {
            "duration": 0.18292675000000003,
            "durationTicks": 96,
            "midi": 75,
            "name": "D#5",
            "ticks": 19776,
            "time": 37.6829105,
            "velocity": 0.5984251968503937
          },
          {
            "duration": 0.18292675000000003,
            "durationTicks": 96,
            "midi": 71,
            "name": "B4",
            "ticks": 19776,
            "time": 37.6829105,
            "velocity": 0.5984251968503937
          },
          {
            "duration": 0.18292675000000003,
            "durationTicks": 96,
            "midi": 73,
            "name": "C#5",
            "ticks": 19872,
            "time": 37.86583725,
            "velocity": 0.5984251968503937
          },
          {
            "duration": 0.18292675000000003,
            "durationTicks": 96,
            "midi": 69,
            "name": "A4",
            "ticks": 19872,
            "time": 37.86583725,
            "velocity": 0.5984251968503937
          },
          {
            "duration": 0.9146337500000001,
            "durationTicks": 480,
            "midi": 69,
            "name": "A4",
            "ticks": 19968,
            "time": 38.048764,
            "velocity": 0.5984251968503937
          },
          {
            "duration": 0.9146337500000001,
            "durationTicks": 480,
            "midi": 65,
            "name": "F4",
            "ticks": 19968,
            "time": 38.048764,
            "velocity": 0.5984251968503937
          },
          {
            "duration": 0.18292675000000003,
            "durationTicks": 96,
            "midi": 73,
            "name": "C#5",
            "ticks": 20448,
            "time": 38.96339775,
            "velocity": 0.5984251968503937
          },
          {
            "duration": 0.18292675000000003,
            "durationTicks": 96,
            "midi": 68,
            "name": "G#4",
            "ticks": 20448,
            "time": 38.96339775,
            "velocity": 0.5984251968503937
          },
          {
            "duration": 0.18292675000000003,
            "durationTicks": 96,
            "midi": 75,
            "name": "D#5",
            "ticks": 20544,
            "time": 39.1463245,
            "velocity": 0.5984251968503937
          },
          {
            "duration": 0.18292675000000003,
            "durationTicks": 96,
            "midi": 71,
            "name": "B4",
            "ticks": 20544,
            "time": 39.1463245,
            "velocity": 0.5984251968503937
          },
          {
            "duration": 0.18292675000000003,
            "durationTicks": 96,
            "midi": 77,
            "name": "F5",
            "ticks": 20640,
            "time": 39.32925125,
            "velocity": 0.5984251968503937
          },
          {
            "duration": 0.18292675000000003,
            "durationTicks": 96,
            "midi": 74,
            "name": "D5",
            "ticks": 20640,
            "time": 39.32925125,
            "velocity": 0.5984251968503937
          },
          {
            "duration": 0.9146337500000001,
            "durationTicks": 480,
            "midi": 65,
            "name": "F4",
            "ticks": 20736,
            "time": 39.512178,
            "velocity": 0.5984251968503937
          },
          {
            "duration": 0.9146337500000001,
            "durationTicks": 480,
            "midi": 69,
            "name": "A4",
            "ticks": 20736,
            "time": 39.512178,
            "velocity": 0.5984251968503937
          },
          {
            "duration": 0.18292675000000003,
            "durationTicks": 96,
            "midi": 73,
            "name": "C#5",
            "ticks": 21216,
            "time": 40.42681175,
            "velocity": 0.5984251968503937
          },
          {
            "duration": 0.18292675000000003,
            "durationTicks": 96,
            "midi": 75,
            "name": "D#5",
            "ticks": 21312,
            "time": 40.6097385,
            "velocity": 0.5984251968503937
          },
          {
            "duration": 0.18292675000000003,
            "durationTicks": 96,
            "midi": 77,
            "name": "F5",
            "ticks": 21408,
            "time": 40.79266525,
            "velocity": 0.5984251968503937
          },
          {
            "duration": 0.18292675000000003,
            "durationTicks": 96,
            "midi": 65,
            "name": "F4",
            "ticks": 21504,
            "time": 40.975592,
            "velocity": 0.5984251968503937
          },
          {
            "duration": 0.18292675000000003,
            "durationTicks": 96,
            "midi": 69,
            "name": "A4",
            "ticks": 21504,
            "time": 40.975592,
            "velocity": 0.5984251968503937
          },
          {
            "duration": 0.09146337500000357,
            "durationTicks": 48,
            "midi": 69,
            "name": "A4",
            "ticks": 21792,
            "time": 41.52437225,
            "velocity": 0.5984251968503937
          },
          {
            "duration": 0.09146337499999646,
            "durationTicks": 48,
            "midi": 71,
            "name": "B4",
            "ticks": 21840,
            "time": 41.615835625,
            "velocity": 0.5984251968503937
          },
          {
            "duration": 0.09146337500000357,
            "durationTicks": 48,
            "midi": 73,
            "name": "C#5",
            "ticks": 21888,
            "time": 41.707299,
            "velocity": 0.5984251968503937
          }
        ],
        "endOfTrackTicks": 21936
      },
      {
        "channel": 2,
        "controlChanges": {},
        "pitchBends": [],
        "instrument": {
          "family": "guitar",
          "number": 29,
          "name": "overdriven guitar"
        },
        "name": "Electric Guitar",
        "notes": [
          {
            "duration": 0.18292675,
            "durationTicks": 96,
            "midi": 69,
            "name": "A4",
            "ticks": 0,
            "time": 0,
            "velocity": 0.3937007874015748
          },
          {
            "duration": 0.18292675,
            "durationTicks": 96,
            "midi": 70,
            "name": "A#4",
            "ticks": 96,
            "time": 0.18292675,
            "velocity": 0.3937007874015748
          },
          {
            "duration": 0.18292674999999997,
            "durationTicks": 96,
            "midi": 77,
            "name": "F5",
            "ticks": 192,
            "time": 0.3658535,
            "velocity": 0.3937007874015748
          },
          {
            "duration": 0.18292675000000003,
            "durationTicks": 96,
            "midi": 70,
            "name": "A#4",
            "ticks": 288,
            "time": 0.54878025,
            "velocity": 0.3937007874015748
          },
          {
            "duration": 0.18292675000000003,
            "durationTicks": 96,
            "midi": 69,
            "name": "A4",
            "ticks": 384,
            "time": 0.731707,
            "velocity": 0.3937007874015748
          },
          {
            "duration": 0.18292674999999992,
            "durationTicks": 96,
            "midi": 70,
            "name": "A#4",
            "ticks": 480,
            "time": 0.91463375,
            "velocity": 0.3937007874015748
          },
          {
            "duration": 0.18292675000000003,
            "durationTicks": 96,
            "midi": 77,
            "name": "F5",
            "ticks": 576,
            "time": 1.0975605,
            "velocity": 0.3937007874015748
          },
          {
            "duration": 0.18292675000000003,
            "durationTicks": 96,
            "midi": 70,
            "name": "A#4",
            "ticks": 672,
            "time": 1.28048725,
            "velocity": 0.3937007874015748
          },
          {
            "duration": 0.18292675000000003,
            "durationTicks": 96,
            "midi": 69,
            "name": "A4",
            "ticks": 768,
            "time": 1.463414,
            "velocity": 0.3937007874015748
          },
          {
            "duration": 0.18292675000000003,
            "durationTicks": 96,
            "midi": 70,
            "name": "A#4",
            "ticks": 864,
            "time": 1.64634075,
            "velocity": 0.3937007874015748
          },
          {
            "duration": 0.1829267499999998,
            "durationTicks": 96,
            "midi": 77,
            "name": "F5",
            "ticks": 960,
            "time": 1.8292675,
            "velocity": 0.3937007874015748
          },
          {
            "duration": 0.18292675000000003,
            "durationTicks": 96,
            "midi": 70,
            "name": "A#4",
            "ticks": 1056,
            "time": 2.01219425,
            "velocity": 0.3937007874015748
          },
          {
            "duration": 0.18292675000000003,
            "durationTicks": 96,
            "midi": 69,
            "name": "A4",
            "ticks": 1152,
            "time": 2.195121,
            "velocity": 0.3937007874015748
          },
          {
            "duration": 0.18292675000000003,
            "durationTicks": 96,
            "midi": 70,
            "name": "A#4",
            "ticks": 1248,
            "time": 2.37804775,
            "velocity": 0.3937007874015748
          },
          {
            "duration": 0.18292675000000003,
            "durationTicks": 96,
            "midi": 77,
            "name": "F5",
            "ticks": 1344,
            "time": 2.5609745,
            "velocity": 0.3937007874015748
          },
          {
            "duration": 0.18292675000000003,
            "durationTicks": 96,
            "midi": 70,
            "name": "A#4",
            "ticks": 1440,
            "time": 2.74390125,
            "velocity": 0.3937007874015748
          },
          {
            "duration": 0.18292675000000003,
            "durationTicks": 96,
            "midi": 68,
            "name": "G#4",
            "ticks": 1536,
            "time": 2.926828,
            "velocity": 0.3937007874015748
          },
          {
            "duration": 0.18292675000000003,
            "durationTicks": 96,
            "midi": 69,
            "name": "A4",
            "ticks": 1632,
            "time": 3.10975475,
            "velocity": 0.3937007874015748
          },
          {
            "duration": 0.18292675000000003,
            "durationTicks": 96,
            "midi": 76,
            "name": "E5",
            "ticks": 1728,
            "time": 3.2926815,
            "velocity": 0.3937007874015748
          },
          {
            "duration": 0.18292675000000003,
            "durationTicks": 96,
            "midi": 69,
            "name": "A4",
            "ticks": 1824,
            "time": 3.47560825,
            "velocity": 0.3937007874015748
          },
          {
            "duration": 0.18292675000000003,
            "durationTicks": 96,
            "midi": 68,
            "name": "G#4",
            "ticks": 1920,
            "time": 3.658535,
            "velocity": 0.3937007874015748
          },
          {
            "duration": 0.18292674999999958,
            "durationTicks": 96,
            "midi": 69,
            "name": "A4",
            "ticks": 2016,
            "time": 3.84146175,
            "velocity": 0.3937007874015748
          },
          {
            "duration": 0.18292675000000003,
            "durationTicks": 96,
            "midi": 76,
            "name": "E5",
            "ticks": 2112,
            "time": 4.0243885,
            "velocity": 0.3937007874015748
          },
          {
            "duration": 0.18292675000000003,
            "durationTicks": 96,
            "midi": 69,
            "name": "A4",
            "ticks": 2208,
            "time": 4.20731525,
            "velocity": 0.3937007874015748
          },
          {
            "duration": 0.18292675000000003,
            "durationTicks": 96,
            "midi": 68,
            "name": "G#4",
            "ticks": 2304,
            "time": 4.390242,
            "velocity": 0.3937007874015748
          },
          {
            "duration": 0.18292675000000003,
            "durationTicks": 96,
            "midi": 69,
            "name": "A4",
            "ticks": 2400,
            "time": 4.57316875,
            "velocity": 0.3937007874015748
          },
          {
            "duration": 0.18292675000000003,
            "durationTicks": 96,
            "midi": 76,
            "name": "E5",
            "ticks": 2496,
            "time": 4.7560955,
            "velocity": 0.3937007874015748
          },
          {
            "duration": 0.18292675000000003,
            "durationTicks": 96,
            "midi": 69,
            "name": "A4",
            "ticks": 2592,
            "time": 4.93902225,
            "velocity": 0.3937007874015748
          },
          {
            "duration": 0.18292675000000003,
            "durationTicks": 96,
            "midi": 68,
            "name": "G#4",
            "ticks": 2688,
            "time": 5.121949,
            "velocity": 0.3937007874015748
          },
          {
            "duration": 0.18292675000000003,
            "durationTicks": 96,
            "midi": 69,
            "name": "A4",
            "ticks": 2784,
            "time": 5.30487575,
            "velocity": 0.3937007874015748
          },
          {
            "duration": 0.18292675000000003,
            "durationTicks": 96,
            "midi": 76,
            "name": "E5",
            "ticks": 2880,
            "time": 5.4878025,
            "velocity": 0.3937007874015748
          },
          {
            "duration": 0.18292675000000003,
            "durationTicks": 96,
            "midi": 69,
            "name": "A4",
            "ticks": 2976,
            "time": 5.67072925,
            "velocity": 0.3937007874015748
          },
          {
            "duration": 0.18292675000000003,
            "durationTicks": 96,
            "midi": 69,
            "name": "A4",
            "ticks": 3072,
            "time": 5.853656,
            "velocity": 0.3937007874015748
          },
          {
            "duration": 0.18292675000000003,
            "durationTicks": 96,
            "midi": 70,
            "name": "A#4",
            "ticks": 3168,
            "time": 6.03658275,
            "velocity": 0.3937007874015748
          },
          {
            "duration": 0.18292675000000003,
            "durationTicks": 96,
            "midi": 77,
            "name": "F5",
            "ticks": 3264,
            "time": 6.2195095,
            "velocity": 0.3937007874015748
          },
          {
            "duration": 0.18292675000000003,
            "durationTicks": 96,
            "midi": 70,
            "name": "A#4",
            "ticks": 3360,
            "time": 6.40243625,
            "velocity": 0.3937007874015748
          },
          {
            "duration": 0.18292675000000003,
            "durationTicks": 96,
            "midi": 69,
            "name": "A4",
            "ticks": 3456,
            "time": 6.585363,
            "velocity": 0.3937007874015748
          },
          {
            "duration": 0.18292675000000003,
            "durationTicks": 96,
            "midi": 70,
            "name": "A#4",
            "ticks": 3552,
            "time": 6.76828975,
            "velocity": 0.3937007874015748
          },
          {
            "duration": 0.18292675000000003,
            "durationTicks": 96,
            "midi": 77,
            "name": "F5",
            "ticks": 3648,
            "time": 6.9512165,
            "velocity": 0.3937007874015748
          },
          {
            "duration": 0.18292675000000003,
            "durationTicks": 96,
            "midi": 70,
            "name": "A#4",
            "ticks": 3744,
            "time": 7.13414325,
            "velocity": 0.3937007874015748
          },
          {
            "duration": 0.18292675000000003,
            "durationTicks": 96,
            "midi": 69,
            "name": "A4",
            "ticks": 3840,
            "time": 7.31707,
            "velocity": 0.3937007874015748
          },
          {
            "duration": 0.18292675000000003,
            "durationTicks": 96,
            "midi": 70,
            "name": "A#4",
            "ticks": 3936,
            "time": 7.49999675,
            "velocity": 0.3937007874015748
          },
          {
            "duration": 0.18292675000000003,
            "durationTicks": 96,
            "midi": 77,
            "name": "F5",
            "ticks": 4032,
            "time": 7.6829235,
            "velocity": 0.3937007874015748
          },
          {
            "duration": 0.18292674999999914,
            "durationTicks": 96,
            "midi": 70,
            "name": "A#4",
            "ticks": 4128,
            "time": 7.86585025,
            "velocity": 0.3937007874015748
          },
          {
            "duration": 0.18292675000000003,
            "durationTicks": 96,
            "midi": 69,
            "name": "A4",
            "ticks": 4224,
            "time": 8.048777,
            "velocity": 0.3937007874015748
          },
          {
            "duration": 0.18292675000000003,
            "durationTicks": 96,
            "midi": 70,
            "name": "A#4",
            "ticks": 4320,
            "time": 8.23170375,
            "velocity": 0.3937007874015748
          },
          {
            "duration": 0.18292675000000003,
            "durationTicks": 96,
            "midi": 77,
            "name": "F5",
            "ticks": 4416,
            "time": 8.4146305,
            "velocity": 0.3937007874015748
          },
          {
            "duration": 0.18292675000000003,
            "durationTicks": 96,
            "midi": 70,
            "name": "A#4",
            "ticks": 4512,
            "time": 8.59755725,
            "velocity": 0.3937007874015748
          },
          {
            "duration": 0.18292675000000003,
            "durationTicks": 96,
            "midi": 68,
            "name": "G#4",
            "ticks": 4608,
            "time": 8.780484,
            "velocity": 0.3937007874015748
          },
          {
            "duration": 0.18292675000000003,
            "durationTicks": 96,
            "midi": 69,
            "name": "A4",
            "ticks": 4704,
            "time": 8.96341075,
            "velocity": 0.3937007874015748
          },
          {
            "duration": 0.18292675000000003,
            "durationTicks": 96,
            "midi": 76,
            "name": "E5",
            "ticks": 4800,
            "time": 9.1463375,
            "velocity": 0.3937007874015748
          },
          {
            "duration": 0.18292675000000003,
            "durationTicks": 96,
            "midi": 69,
            "name": "A4",
            "ticks": 4896,
            "time": 9.32926425,
            "velocity": 0.3937007874015748
          },
          {
            "duration": 0.18292675000000003,
            "durationTicks": 96,
            "midi": 68,
            "name": "G#4",
            "ticks": 4992,
            "time": 9.512191,
            "velocity": 0.3937007874015748
          },
          {
            "duration": 0.18292675000000003,
            "durationTicks": 96,
            "midi": 69,
            "name": "A4",
            "ticks": 5088,
            "time": 9.69511775,
            "velocity": 0.3937007874015748
          },
          {
            "duration": 0.18292675000000003,
            "durationTicks": 96,
            "midi": 76,
            "name": "E5",
            "ticks": 5184,
            "time": 9.8780445,
            "velocity": 0.3937007874015748
          },
          {
            "duration": 0.18292675000000003,
            "durationTicks": 96,
            "midi": 69,
            "name": "A4",
            "ticks": 5280,
            "time": 10.06097125,
            "velocity": 0.3937007874015748
          },
          {
            "duration": 0.18292675000000003,
            "durationTicks": 96,
            "midi": 68,
            "name": "G#4",
            "ticks": 5376,
            "time": 10.243898,
            "velocity": 0.3937007874015748
          },
          {
            "duration": 0.18292675000000003,
            "durationTicks": 96,
            "midi": 69,
            "name": "A4",
            "ticks": 5472,
            "time": 10.42682475,
            "velocity": 0.3937007874015748
          },
          {
            "duration": 0.18292675000000003,
            "durationTicks": 96,
            "midi": 76,
            "name": "E5",
            "ticks": 5568,
            "time": 10.6097515,
            "velocity": 0.3937007874015748
          },
          {
            "duration": 0.18292675000000003,
            "durationTicks": 96,
            "midi": 69,
            "name": "A4",
            "ticks": 5664,
            "time": 10.79267825,
            "velocity": 0.3937007874015748
          },
          {
            "duration": 0.18292675000000003,
            "durationTicks": 96,
            "midi": 68,
            "name": "G#4",
            "ticks": 5760,
            "time": 10.975605,
            "velocity": 0.3937007874015748
          },
          {
            "duration": 0.18292675000000003,
            "durationTicks": 96,
            "midi": 69,
            "name": "A4",
            "ticks": 5856,
            "time": 11.15853175,
            "velocity": 0.3937007874015748
          },
          {
            "duration": 0.18292675000000003,
            "durationTicks": 96,
            "midi": 76,
            "name": "E5",
            "ticks": 5952,
            "time": 11.3414585,
            "velocity": 0.3937007874015748
          },
          {
            "duration": 0.18292675000000003,
            "durationTicks": 96,
            "midi": 69,
            "name": "A4",
            "ticks": 6048,
            "time": 11.52438525,
            "velocity": 0.3937007874015748
          },
          {
            "duration": 0.18292675000000003,
            "durationTicks": 96,
            "midi": 69,
            "name": "A4",
            "ticks": 6144,
            "time": 11.707312,
            "velocity": 0.3937007874015748
          },
          {
            "duration": 0.18292675000000003,
            "durationTicks": 96,
            "midi": 70,
            "name": "A#4",
            "ticks": 6240,
            "time": 11.89023875,
            "velocity": 0.3937007874015748
          },
          {
            "duration": 0.18292675000000003,
            "durationTicks": 96,
            "midi": 77,
            "name": "F5",
            "ticks": 6336,
            "time": 12.0731655,
            "velocity": 0.3937007874015748
          },
          {
            "duration": 0.18292675000000003,
            "durationTicks": 96,
            "midi": 70,
            "name": "A#4",
            "ticks": 6432,
            "time": 12.25609225,
            "velocity": 0.3937007874015748
          },
          {
            "duration": 0.18292675000000003,
            "durationTicks": 96,
            "midi": 69,
            "name": "A4",
            "ticks": 6528,
            "time": 12.439019,
            "velocity": 0.3937007874015748
          },
          {
            "duration": 0.18292675000000003,
            "durationTicks": 96,
            "midi": 70,
            "name": "A#4",
            "ticks": 6624,
            "time": 12.62194575,
            "velocity": 0.3937007874015748
          },
          {
            "duration": 0.18292675000000003,
            "durationTicks": 96,
            "midi": 77,
            "name": "F5",
            "ticks": 6720,
            "time": 12.8048725,
            "velocity": 0.3937007874015748
          },
          {
            "duration": 0.18292675000000003,
            "durationTicks": 96,
            "midi": 70,
            "name": "A#4",
            "ticks": 6816,
            "time": 12.98779925,
            "velocity": 0.3937007874015748
          },
          {
            "duration": 0.18292675000000003,
            "durationTicks": 96,
            "midi": 69,
            "name": "A4",
            "ticks": 6912,
            "time": 13.170726,
            "velocity": 0.3937007874015748
          },
          {
            "duration": 0.18292675000000003,
            "durationTicks": 96,
            "midi": 70,
            "name": "A#4",
            "ticks": 7008,
            "time": 13.35365275,
            "velocity": 0.3937007874015748
          },
          {
            "duration": 0.18292675000000003,
            "durationTicks": 96,
            "midi": 77,
            "name": "F5",
            "ticks": 7104,
            "time": 13.5365795,
            "velocity": 0.3937007874015748
          },
          {
            "duration": 0.18292675000000003,
            "durationTicks": 96,
            "midi": 70,
            "name": "A#4",
            "ticks": 7200,
            "time": 13.71950625,
            "velocity": 0.3937007874015748
          },
          {
            "duration": 0.18292675000000003,
            "durationTicks": 96,
            "midi": 69,
            "name": "A4",
            "ticks": 7296,
            "time": 13.902433,
            "velocity": 0.3937007874015748
          },
          {
            "duration": 0.18292675000000003,
            "durationTicks": 96,
            "midi": 70,
            "name": "A#4",
            "ticks": 7392,
            "time": 14.08535975,
            "velocity": 0.3937007874015748
          },
          {
            "duration": 0.18292675000000003,
            "durationTicks": 96,
            "midi": 77,
            "name": "F5",
            "ticks": 7488,
            "time": 14.2682865,
            "velocity": 0.3937007874015748
          },
          {
            "duration": 0.18292675000000003,
            "durationTicks": 96,
            "midi": 70,
            "name": "A#4",
            "ticks": 7584,
            "time": 14.45121325,
            "velocity": 0.3937007874015748
          },
          {
            "duration": 0.18292675000000003,
            "durationTicks": 96,
            "midi": 68,
            "name": "G#4",
            "ticks": 7680,
            "time": 14.63414,
            "velocity": 0.3937007874015748
          },
          {
            "duration": 0.18292675000000003,
            "durationTicks": 96,
            "midi": 69,
            "name": "A4",
            "ticks": 7776,
            "time": 14.81706675,
            "velocity": 0.3937007874015748
          },
          {
            "duration": 0.18292675000000003,
            "durationTicks": 96,
            "midi": 76,
            "name": "E5",
            "ticks": 7872,
            "time": 14.9999935,
            "velocity": 0.3937007874015748
          },
          {
            "duration": 0.18292675000000003,
            "durationTicks": 96,
            "midi": 69,
            "name": "A4",
            "ticks": 7968,
            "time": 15.18292025,
            "velocity": 0.3937007874015748
          },
          {
            "duration": 0.18292675000000003,
            "durationTicks": 96,
            "midi": 68,
            "name": "G#4",
            "ticks": 8064,
            "time": 15.365847,
            "velocity": 0.3937007874015748
          },
          {
            "duration": 0.18292675000000003,
            "durationTicks": 96,
            "midi": 69,
            "name": "A4",
            "ticks": 8160,
            "time": 15.54877375,
            "velocity": 0.3937007874015748
          },
          {
            "duration": 0.18292675000000003,
            "durationTicks": 96,
            "midi": 76,
            "name": "E5",
            "ticks": 8256,
            "time": 15.7317005,
            "velocity": 0.3937007874015748
          },
          {
            "duration": 0.18292674999999825,
            "durationTicks": 96,
            "midi": 69,
            "name": "A4",
            "ticks": 8352,
            "time": 15.91462725,
            "velocity": 0.3937007874015748
          },
          {
            "duration": 0.18292675000000003,
            "durationTicks": 96,
            "midi": 68,
            "name": "G#4",
            "ticks": 8448,
            "time": 16.097554,
            "velocity": 0.3937007874015748
          },
          {
            "duration": 0.18292675000000003,
            "durationTicks": 96,
            "midi": 69,
            "name": "A4",
            "ticks": 8544,
            "time": 16.28048075,
            "velocity": 0.3937007874015748
          },
          {
            "duration": 0.18292675000000003,
            "durationTicks": 96,
            "midi": 76,
            "name": "E5",
            "ticks": 8640,
            "time": 16.4634075,
            "velocity": 0.3937007874015748
          },
          {
            "duration": 0.18292675000000003,
            "durationTicks": 96,
            "midi": 69,
            "name": "A4",
            "ticks": 8736,
            "time": 16.64633425,
            "velocity": 0.3937007874015748
          },
          {
            "duration": 0.18292675000000003,
            "durationTicks": 96,
            "midi": 68,
            "name": "G#4",
            "ticks": 8832,
            "time": 16.829261,
            "velocity": 0.3937007874015748
          },
          {
            "duration": 0.18292675000000003,
            "durationTicks": 96,
            "midi": 69,
            "name": "A4",
            "ticks": 8928,
            "time": 17.01218775,
            "velocity": 0.3937007874015748
          },
          {
            "duration": 0.18292675000000003,
            "durationTicks": 96,
            "midi": 76,
            "name": "E5",
            "ticks": 9024,
            "time": 17.1951145,
            "velocity": 0.3937007874015748
          },
          {
            "duration": 0.18292675000000003,
            "durationTicks": 96,
            "midi": 69,
            "name": "A4",
            "ticks": 9120,
            "time": 17.37804125,
            "velocity": 0.3937007874015748
          },
          {
            "duration": 0.18292675000000003,
            "durationTicks": 96,
            "midi": 69,
            "name": "A4",
            "ticks": 9216,
            "time": 17.560968,
            "velocity": 0.3937007874015748
          },
          {
            "duration": 0.18292675000000003,
            "durationTicks": 96,
            "midi": 70,
            "name": "A#4",
            "ticks": 9312,
            "time": 17.74389475,
            "velocity": 0.3937007874015748
          },
          {
            "duration": 0.18292675000000003,
            "durationTicks": 96,
            "midi": 77,
            "name": "F5",
            "ticks": 9408,
            "time": 17.9268215,
            "velocity": 0.3937007874015748
          },
          {
            "duration": 0.18292675000000003,
            "durationTicks": 96,
            "midi": 70,
            "name": "A#4",
            "ticks": 9504,
            "time": 18.10974825,
            "velocity": 0.3937007874015748
          },
          {
            "duration": 0.18292675000000003,
            "durationTicks": 96,
            "midi": 69,
            "name": "A4",
            "ticks": 9600,
            "time": 18.292675,
            "velocity": 0.3937007874015748
          },
          {
            "duration": 0.18292675000000003,
            "durationTicks": 96,
            "midi": 70,
            "name": "A#4",
            "ticks": 9696,
            "time": 18.47560175,
            "velocity": 0.3937007874015748
          },
          {
            "duration": 0.18292675000000003,
            "durationTicks": 96,
            "midi": 77,
            "name": "F5",
            "ticks": 9792,
            "time": 18.6585285,
            "velocity": 0.3937007874015748
          },
          {
            "duration": 0.18292675000000003,
            "durationTicks": 96,
            "midi": 70,
            "name": "A#4",
            "ticks": 9888,
            "time": 18.84145525,
            "velocity": 0.3937007874015748
          },
          {
            "duration": 0.18292675000000003,
            "durationTicks": 96,
            "midi": 69,
            "name": "A4",
            "ticks": 9984,
            "time": 19.024382,
            "velocity": 0.3937007874015748
          },
          {
            "duration": 0.18292675000000003,
            "durationTicks": 96,
            "midi": 70,
            "name": "A#4",
            "ticks": 10080,
            "time": 19.20730875,
            "velocity": 0.3937007874015748
          },
          {
            "duration": 0.18292675000000003,
            "durationTicks": 96,
            "midi": 77,
            "name": "F5",
            "ticks": 10176,
            "time": 19.3902355,
            "velocity": 0.3937007874015748
          },
          {
            "duration": 0.18292675000000003,
            "durationTicks": 96,
            "midi": 70,
            "name": "A#4",
            "ticks": 10272,
            "time": 19.57316225,
            "velocity": 0.3937007874015748
          },
          {
            "duration": 0.18292675000000003,
            "durationTicks": 96,
            "midi": 69,
            "name": "A4",
            "ticks": 10368,
            "time": 19.756089,
            "velocity": 0.3937007874015748
          },
          {
            "duration": 0.18292675000000003,
            "durationTicks": 96,
            "midi": 70,
            "name": "A#4",
            "ticks": 10464,
            "time": 19.93901575,
            "velocity": 0.3937007874015748
          },
          {
            "duration": 0.18292675000000003,
            "durationTicks": 96,
            "midi": 77,
            "name": "F5",
            "ticks": 10560,
            "time": 20.1219425,
            "velocity": 0.3937007874015748
          },
          {
            "duration": 0.18292675000000003,
            "durationTicks": 96,
            "midi": 70,
            "name": "A#4",
            "ticks": 10656,
            "time": 20.30486925,
            "velocity": 0.3937007874015748
          },
          {
            "duration": 0.18292675000000003,
            "durationTicks": 96,
            "midi": 68,
            "name": "G#4",
            "ticks": 10752,
            "time": 20.487796,
            "velocity": 0.3937007874015748
          },
          {
            "duration": 0.18292675000000003,
            "durationTicks": 96,
            "midi": 69,
            "name": "A4",
            "ticks": 10848,
            "time": 20.67072275,
            "velocity": 0.3937007874015748
          },
          {
            "duration": 0.18292675000000003,
            "durationTicks": 96,
            "midi": 76,
            "name": "E5",
            "ticks": 10944,
            "time": 20.8536495,
            "velocity": 0.3937007874015748
          },
          {
            "duration": 0.18292675000000003,
            "durationTicks": 96,
            "midi": 69,
            "name": "A4",
            "ticks": 11040,
            "time": 21.03657625,
            "velocity": 0.3937007874015748
          },
          {
            "duration": 0.18292675000000003,
            "durationTicks": 96,
            "midi": 68,
            "name": "G#4",
            "ticks": 11136,
            "time": 21.219503,
            "velocity": 0.3937007874015748
          },
          {
            "duration": 0.18292675000000003,
            "durationTicks": 96,
            "midi": 69,
            "name": "A4",
            "ticks": 11232,
            "time": 21.40242975,
            "velocity": 0.3937007874015748
          },
          {
            "duration": 0.18292675000000003,
            "durationTicks": 96,
            "midi": 76,
            "name": "E5",
            "ticks": 11328,
            "time": 21.5853565,
            "velocity": 0.3937007874015748
          },
          {
            "duration": 0.18292675000000003,
            "durationTicks": 96,
            "midi": 69,
            "name": "A4",
            "ticks": 11424,
            "time": 21.76828325,
            "velocity": 0.3937007874015748
          },
          {
            "duration": 0.18292675000000003,
            "durationTicks": 96,
            "midi": 68,
            "name": "G#4",
            "ticks": 11520,
            "time": 21.95121,
            "velocity": 0.3937007874015748
          },
          {
            "duration": 0.18292675000000003,
            "durationTicks": 96,
            "midi": 69,
            "name": "A4",
            "ticks": 11616,
            "time": 22.13413675,
            "velocity": 0.3937007874015748
          },
          {
            "duration": 0.18292675000000003,
            "durationTicks": 96,
            "midi": 76,
            "name": "E5",
            "ticks": 11712,
            "time": 22.3170635,
            "velocity": 0.3937007874015748
          },
          {
            "duration": 0.18292675000000003,
            "durationTicks": 96,
            "midi": 69,
            "name": "A4",
            "ticks": 11808,
            "time": 22.49999025,
            "velocity": 0.3937007874015748
          },
          {
            "duration": 0.18292675000000003,
            "durationTicks": 96,
            "midi": 68,
            "name": "G#4",
            "ticks": 11904,
            "time": 22.682917,
            "velocity": 0.3937007874015748
          },
          {
            "duration": 0.18292675000000003,
            "durationTicks": 96,
            "midi": 69,
            "name": "A4",
            "ticks": 12000,
            "time": 22.86584375,
            "velocity": 0.3937007874015748
          },
          {
            "duration": 0.18292675000000003,
            "durationTicks": 96,
            "midi": 76,
            "name": "E5",
            "ticks": 12096,
            "time": 23.0487705,
            "velocity": 0.3937007874015748
          },
          {
            "duration": 0.18292675000000003,
            "durationTicks": 96,
            "midi": 69,
            "name": "A4",
            "ticks": 12192,
            "time": 23.23169725,
            "velocity": 0.3937007874015748
          },
          {
            "duration": 0.18292675000000003,
            "durationTicks": 96,
            "midi": 69,
            "name": "A4",
            "ticks": 12288,
            "time": 23.414624,
            "velocity": 0.3937007874015748
          },
          {
            "duration": 0.18292675000000003,
            "durationTicks": 96,
            "midi": 70,
            "name": "A#4",
            "ticks": 12384,
            "time": 23.59755075,
            "velocity": 0.3937007874015748
          },
          {
            "duration": 0.18292675000000003,
            "durationTicks": 96,
            "midi": 77,
            "name": "F5",
            "ticks": 12480,
            "time": 23.7804775,
            "velocity": 0.3937007874015748
          },
          {
            "duration": 0.18292675000000003,
            "durationTicks": 96,
            "midi": 70,
            "name": "A#4",
            "ticks": 12576,
            "time": 23.96340425,
            "velocity": 0.3937007874015748
          },
          {
            "duration": 0.18292675000000003,
            "durationTicks": 96,
            "midi": 69,
            "name": "A4",
            "ticks": 12672,
            "time": 24.146331,
            "velocity": 0.3937007874015748
          },
          {
            "duration": 0.18292675000000003,
            "durationTicks": 96,
            "midi": 70,
            "name": "A#4",
            "ticks": 12768,
            "time": 24.32925775,
            "velocity": 0.3937007874015748
          },
          {
            "duration": 0.18292675000000003,
            "durationTicks": 96,
            "midi": 77,
            "name": "F5",
            "ticks": 12864,
            "time": 24.5121845,
            "velocity": 0.3937007874015748
          },
          {
            "duration": 0.18292675000000003,
            "durationTicks": 96,
            "midi": 70,
            "name": "A#4",
            "ticks": 12960,
            "time": 24.69511125,
            "velocity": 0.3937007874015748
          },
          {
            "duration": 0.18292675000000003,
            "durationTicks": 96,
            "midi": 69,
            "name": "A4",
            "ticks": 13056,
            "time": 24.878038,
            "velocity": 0.3937007874015748
          },
          {
            "duration": 0.18292675000000003,
            "durationTicks": 96,
            "midi": 70,
            "name": "A#4",
            "ticks": 13152,
            "time": 25.06096475,
            "velocity": 0.3937007874015748
          },
          {
            "duration": 0.18292675000000003,
            "durationTicks": 96,
            "midi": 77,
            "name": "F5",
            "ticks": 13248,
            "time": 25.2438915,
            "velocity": 0.3937007874015748
          },
          {
            "duration": 0.18292675000000003,
            "durationTicks": 96,
            "midi": 70,
            "name": "A#4",
            "ticks": 13344,
            "time": 25.42681825,
            "velocity": 0.3937007874015748
          },
          {
            "duration": 0.18292675000000003,
            "durationTicks": 96,
            "midi": 69,
            "name": "A4",
            "ticks": 13440,
            "time": 25.609745,
            "velocity": 0.3937007874015748
          },
          {
            "duration": 0.18292675000000003,
            "durationTicks": 96,
            "midi": 70,
            "name": "A#4",
            "ticks": 13536,
            "time": 25.79267175,
            "velocity": 0.3937007874015748
          },
          {
            "duration": 0.18292675000000003,
            "durationTicks": 96,
            "midi": 77,
            "name": "F5",
            "ticks": 13632,
            "time": 25.9755985,
            "velocity": 0.3937007874015748
          },
          {
            "duration": 0.18292675000000003,
            "durationTicks": 96,
            "midi": 70,
            "name": "A#4",
            "ticks": 13728,
            "time": 26.15852525,
            "velocity": 0.3937007874015748
          },
          {
            "duration": 0.18292675000000003,
            "durationTicks": 96,
            "midi": 68,
            "name": "G#4",
            "ticks": 13824,
            "time": 26.341452,
            "velocity": 0.3937007874015748
          },
          {
            "duration": 0.18292675000000003,
            "durationTicks": 96,
            "midi": 69,
            "name": "A4",
            "ticks": 13920,
            "time": 26.52437875,
            "velocity": 0.3937007874015748
          },
          {
            "duration": 0.18292675000000003,
            "durationTicks": 96,
            "midi": 76,
            "name": "E5",
            "ticks": 14016,
            "time": 26.7073055,
            "velocity": 0.3937007874015748
          },
          {
            "duration": 0.18292675000000003,
            "durationTicks": 96,
            "midi": 69,
            "name": "A4",
            "ticks": 14112,
            "time": 26.89023225,
            "velocity": 0.3937007874015748
          },
          {
            "duration": 0.18292675000000003,
            "durationTicks": 96,
            "midi": 68,
            "name": "G#4",
            "ticks": 14208,
            "time": 27.073159,
            "velocity": 0.3937007874015748
          },
          {
            "duration": 0.18292675000000003,
            "durationTicks": 96,
            "midi": 69,
            "name": "A4",
            "ticks": 14304,
            "time": 27.25608575,
            "velocity": 0.3937007874015748
          },
          {
            "duration": 0.18292675000000003,
            "durationTicks": 96,
            "midi": 76,
            "name": "E5",
            "ticks": 14400,
            "time": 27.4390125,
            "velocity": 0.3937007874015748
          },
          {
            "duration": 0.18292675000000003,
            "durationTicks": 96,
            "midi": 69,
            "name": "A4",
            "ticks": 14496,
            "time": 27.62193925,
            "velocity": 0.3937007874015748
          },
          {
            "duration": 0.18292675000000003,
            "durationTicks": 96,
            "midi": 68,
            "name": "G#4",
            "ticks": 14592,
            "time": 27.804866,
            "velocity": 0.3937007874015748
          },
          {
            "duration": 0.18292675000000003,
            "durationTicks": 96,
            "midi": 69,
            "name": "A4",
            "ticks": 14688,
            "time": 27.98779275,
            "velocity": 0.3937007874015748
          },
          {
            "duration": 0.18292675000000003,
            "durationTicks": 96,
            "midi": 76,
            "name": "E5",
            "ticks": 14784,
            "time": 28.1707195,
            "velocity": 0.3937007874015748
          },
          {
            "duration": 0.18292675000000003,
            "durationTicks": 96,
            "midi": 69,
            "name": "A4",
            "ticks": 14880,
            "time": 28.35364625,
            "velocity": 0.3937007874015748
          },
          {
            "duration": 0.18292675000000003,
            "durationTicks": 96,
            "midi": 68,
            "name": "G#4",
            "ticks": 14976,
            "time": 28.536573,
            "velocity": 0.3937007874015748
          },
          {
            "duration": 0.18292675000000003,
            "durationTicks": 96,
            "midi": 69,
            "name": "A4",
            "ticks": 15072,
            "time": 28.71949975,
            "velocity": 0.3937007874015748
          },
          {
            "duration": 0.18292675000000003,
            "durationTicks": 96,
            "midi": 76,
            "name": "E5",
            "ticks": 15168,
            "time": 28.9024265,
            "velocity": 0.3937007874015748
          },
          {
            "duration": 0.18292675000000003,
            "durationTicks": 96,
            "midi": 69,
            "name": "A4",
            "ticks": 15264,
            "time": 29.08535325,
            "velocity": 0.3937007874015748
          },
          {
            "duration": 0.18292675000000003,
            "durationTicks": 96,
            "midi": 69,
            "name": "A4",
            "ticks": 15360,
            "time": 29.26828,
            "velocity": 0.3937007874015748
          },
          {
            "duration": 0.18292675000000003,
            "durationTicks": 96,
            "midi": 70,
            "name": "A#4",
            "ticks": 15456,
            "time": 29.45120675,
            "velocity": 0.3937007874015748
          },
          {
            "duration": 0.18292675000000003,
            "durationTicks": 96,
            "midi": 77,
            "name": "F5",
            "ticks": 15552,
            "time": 29.6341335,
            "velocity": 0.3937007874015748
          },
          {
            "duration": 0.18292675000000003,
            "durationTicks": 96,
            "midi": 70,
            "name": "A#4",
            "ticks": 15648,
            "time": 29.81706025,
            "velocity": 0.3937007874015748
          },
          {
            "duration": 0.18292675000000003,
            "durationTicks": 96,
            "midi": 69,
            "name": "A4",
            "ticks": 15744,
            "time": 29.999987,
            "velocity": 0.3937007874015748
          },
          {
            "duration": 0.18292675000000003,
            "durationTicks": 96,
            "midi": 70,
            "name": "A#4",
            "ticks": 15840,
            "time": 30.18291375,
            "velocity": 0.3937007874015748
          },
          {
            "duration": 0.18292675000000003,
            "durationTicks": 96,
            "midi": 77,
            "name": "F5",
            "ticks": 15936,
            "time": 30.3658405,
            "velocity": 0.3937007874015748
          },
          {
            "duration": 0.18292675000000003,
            "durationTicks": 96,
            "midi": 70,
            "name": "A#4",
            "ticks": 16032,
            "time": 30.54876725,
            "velocity": 0.3937007874015748
          },
          {
            "duration": 0.18292675000000003,
            "durationTicks": 96,
            "midi": 69,
            "name": "A4",
            "ticks": 16128,
            "time": 30.731694,
            "velocity": 0.3937007874015748
          },
          {
            "duration": 0.18292675000000003,
            "durationTicks": 96,
            "midi": 70,
            "name": "A#4",
            "ticks": 16224,
            "time": 30.91462075,
            "velocity": 0.3937007874015748
          },
          {
            "duration": 0.18292675000000003,
            "durationTicks": 96,
            "midi": 77,
            "name": "F5",
            "ticks": 16320,
            "time": 31.0975475,
            "velocity": 0.3937007874015748
          },
          {
            "duration": 0.18292675000000003,
            "durationTicks": 96,
            "midi": 70,
            "name": "A#4",
            "ticks": 16416,
            "time": 31.28047425,
            "velocity": 0.3937007874015748
          },
          {
            "duration": 0.18292675000000003,
            "durationTicks": 96,
            "midi": 69,
            "name": "A4",
            "ticks": 16512,
            "time": 31.463401,
            "velocity": 0.3937007874015748
          },
          {
            "duration": 0.18292675000000003,
            "durationTicks": 96,
            "midi": 70,
            "name": "A#4",
            "ticks": 16608,
            "time": 31.64632775,
            "velocity": 0.3937007874015748
          },
          {
            "duration": 0.18292674999999647,
            "durationTicks": 96,
            "midi": 77,
            "name": "F5",
            "ticks": 16704,
            "time": 31.8292545,
            "velocity": 0.3937007874015748
          },
          {
            "duration": 0.18292675000000003,
            "durationTicks": 96,
            "midi": 70,
            "name": "A#4",
            "ticks": 16800,
            "time": 32.01218125,
            "velocity": 0.3937007874015748
          },
          {
            "duration": 0.18292675000000003,
            "durationTicks": 96,
            "midi": 68,
            "name": "G#4",
            "ticks": 16896,
            "time": 32.195108,
            "velocity": 0.3937007874015748
          },
          {
            "duration": 0.18292675000000003,
            "durationTicks": 96,
            "midi": 69,
            "name": "A4",
            "ticks": 16992,
            "time": 32.37803475,
            "velocity": 0.3937007874015748
          },
          {
            "duration": 0.18292675000000003,
            "durationTicks": 96,
            "midi": 76,
            "name": "E5",
            "ticks": 17088,
            "time": 32.5609615,
            "velocity": 0.3937007874015748
          },
          {
            "duration": 0.18292675000000003,
            "durationTicks": 96,
            "midi": 69,
            "name": "A4",
            "ticks": 17184,
            "time": 32.74388825,
            "velocity": 0.3937007874015748
          },
          {
            "duration": 0.18292675000000003,
            "durationTicks": 96,
            "midi": 68,
            "name": "G#4",
            "ticks": 17280,
            "time": 32.926815,
            "velocity": 0.3937007874015748
          },
          {
            "duration": 0.18292675000000003,
            "durationTicks": 96,
            "midi": 69,
            "name": "A4",
            "ticks": 17376,
            "time": 33.10974175,
            "velocity": 0.3937007874015748
          },
          {
            "duration": 0.18292675000000003,
            "durationTicks": 96,
            "midi": 76,
            "name": "E5",
            "ticks": 17472,
            "time": 33.2926685,
            "velocity": 0.3937007874015748
          },
          {
            "duration": 0.18292675000000003,
            "durationTicks": 96,
            "midi": 69,
            "name": "A4",
            "ticks": 17568,
            "time": 33.47559525,
            "velocity": 0.3937007874015748
          },
          {
            "duration": 0.18292675000000003,
            "durationTicks": 96,
            "midi": 68,
            "name": "G#4",
            "ticks": 17664,
            "time": 33.658522,
            "velocity": 0.3937007874015748
          },
          {
            "duration": 0.18292675000000003,
            "durationTicks": 96,
            "midi": 69,
            "name": "A4",
            "ticks": 17760,
            "time": 33.84144875,
            "velocity": 0.3937007874015748
          },
          {
            "duration": 0.18292675000000003,
            "durationTicks": 96,
            "midi": 76,
            "name": "E5",
            "ticks": 17856,
            "time": 34.0243755,
            "velocity": 0.3937007874015748
          },
          {
            "duration": 0.18292675000000003,
            "durationTicks": 96,
            "midi": 69,
            "name": "A4",
            "ticks": 17952,
            "time": 34.20730225,
            "velocity": 0.3937007874015748
          },
          {
            "duration": 0.18292675000000003,
            "durationTicks": 96,
            "midi": 68,
            "name": "G#4",
            "ticks": 18048,
            "time": 34.390229,
            "velocity": 0.3937007874015748
          },
          {
            "duration": 0.18292675000000003,
            "durationTicks": 96,
            "midi": 69,
            "name": "A4",
            "ticks": 18144,
            "time": 34.57315575,
            "velocity": 0.3937007874015748
          },
          {
            "duration": 0.18292675000000003,
            "durationTicks": 96,
            "midi": 76,
            "name": "E5",
            "ticks": 18240,
            "time": 34.7560825,
            "velocity": 0.3937007874015748
          },
          {
            "duration": 0.18292675000000003,
            "durationTicks": 96,
            "midi": 69,
            "name": "A4",
            "ticks": 18336,
            "time": 34.93900925,
            "velocity": 0.3937007874015748
          },
          {
            "duration": 0.18292675000000003,
            "durationTicks": 96,
            "midi": 69,
            "name": "A4",
            "ticks": 18432,
            "time": 35.121936,
            "velocity": 0.3937007874015748
          },
          {
            "duration": 0.18292675000000003,
            "durationTicks": 96,
            "midi": 70,
            "name": "A#4",
            "ticks": 18528,
            "time": 35.30486275,
            "velocity": 0.3937007874015748
          },
          {
            "duration": 0.18292675000000003,
            "durationTicks": 96,
            "midi": 70,
            "name": "A#4",
            "ticks": 18720,
            "time": 35.67071625,
            "velocity": 0.3937007874015748
          },
          {
            "duration": 0.18292675000000003,
            "durationTicks": 96,
            "midi": 69,
            "name": "A4",
            "ticks": 18816,
            "time": 35.853643,
            "velocity": 0.3937007874015748
          },
          {
            "duration": 0.18292675000000003,
            "durationTicks": 96,
            "midi": 70,
            "name": "A#4",
            "ticks": 18912,
            "time": 36.03656975,
            "velocity": 0.3937007874015748
          },
          {
            "duration": 0.18292675000000003,
            "durationTicks": 96,
            "midi": 70,
            "name": "A#4",
            "ticks": 19104,
            "time": 36.40242325,
            "velocity": 0.3937007874015748
          },
          {
            "duration": 0.18292675000000003,
            "durationTicks": 96,
            "midi": 69,
            "name": "A4",
            "ticks": 19200,
            "time": 36.58535,
            "velocity": 0.3937007874015748
          },
          {
            "duration": 0.18292675000000003,
            "durationTicks": 96,
            "midi": 70,
            "name": "A#4",
            "ticks": 19296,
            "time": 36.76827675,
            "velocity": 0.3937007874015748
          },
          {
            "duration": 0.18292675000000003,
            "durationTicks": 96,
            "midi": 70,
            "name": "A#4",
            "ticks": 19488,
            "time": 37.13413025,
            "velocity": 0.3937007874015748
          },
          {
            "duration": 0.18292675000000003,
            "durationTicks": 96,
            "midi": 69,
            "name": "A4",
            "ticks": 19584,
            "time": 37.317057,
            "velocity": 0.3937007874015748
          },
          {
            "duration": 0.18292675000000003,
            "durationTicks": 96,
            "midi": 70,
            "name": "A#4",
            "ticks": 19680,
            "time": 37.49998375,
            "velocity": 0.3937007874015748
          },
          {
            "duration": 0.18292675000000003,
            "durationTicks": 96,
            "midi": 70,
            "name": "A#4",
            "ticks": 19872,
            "time": 37.86583725,
            "velocity": 0.3937007874015748
          },
          {
            "duration": 0.18292675000000003,
            "durationTicks": 96,
            "midi": 68,
            "name": "G#4",
            "ticks": 19968,
            "time": 38.048764,
            "velocity": 0.3937007874015748
          },
          {
            "duration": 0.18292675000000003,
            "durationTicks": 96,
            "midi": 69,
            "name": "A4",
            "ticks": 20064,
            "time": 38.23169075,
            "velocity": 0.3937007874015748
          },
          {
            "duration": 0.18292675000000003,
            "durationTicks": 96,
            "midi": 69,
            "name": "A4",
            "ticks": 20256,
            "time": 38.59754425,
            "velocity": 0.3937007874015748
          },
          {
            "duration": 0.18292675000000003,
            "durationTicks": 96,
            "midi": 68,
            "name": "G#4",
            "ticks": 20352,
            "time": 38.780471,
            "velocity": 0.3937007874015748
          },
          {
            "duration": 0.18292675000000003,
            "durationTicks": 96,
            "midi": 69,
            "name": "A4",
            "ticks": 20448,
            "time": 38.96339775,
            "velocity": 0.3937007874015748
          },
          {
            "duration": 0.18292675000000003,
            "durationTicks": 96,
            "midi": 69,
            "name": "A4",
            "ticks": 20640,
            "time": 39.32925125,
            "velocity": 0.3937007874015748
          },
          {
            "duration": 0.18292675000000003,
            "durationTicks": 96,
            "midi": 68,
            "name": "G#4",
            "ticks": 20736,
            "time": 39.512178,
            "velocity": 0.3937007874015748
          },
          {
            "duration": 0.18292675000000003,
            "durationTicks": 96,
            "midi": 69,
            "name": "A4",
            "ticks": 20832,
            "time": 39.69510475,
            "velocity": 0.3937007874015748
          },
          {
            "duration": 0.18292675000000003,
            "durationTicks": 96,
            "midi": 69,
            "name": "A4",
            "ticks": 21024,
            "time": 40.06095825,
            "velocity": 0.3937007874015748
          },
          {
            "duration": 0.18292675000000003,
            "durationTicks": 96,
            "midi": 68,
            "name": "G#4",
            "ticks": 21120,
            "time": 40.243885,
            "velocity": 0.3937007874015748
          },
          {
            "duration": 0.18292675000000003,
            "durationTicks": 96,
            "midi": 69,
            "name": "A4",
            "ticks": 21216,
            "time": 40.42681175,
            "velocity": 0.3937007874015748
          },
          {
            "duration": 0.18292675000000003,
            "durationTicks": 96,
            "midi": 69,
            "name": "A4",
            "ticks": 21408,
            "time": 40.79266525,
            "velocity": 0.3937007874015748
          }
        ],
        "endOfTrackTicks": 21504
      },
      {
        "channel": 3,
        "controlChanges": {},
        "pitchBends": [],
        "instrument": {
          "family": "synth effects",
          "number": 99,
          "name": "fx 4 (atmosphere)"
        },
        "name": "Scifi",
        "notes": [
          {
            "duration": 0.9146337500000001,
            "durationTicks": 480,
            "midi": 79,
            "name": "G5",
            "ticks": 18432,
            "time": 35.121936,
            "velocity": 0.3937007874015748
          },
          {
            "duration": 0.9146337500000001,
            "durationTicks": 480,
            "midi": 84,
            "name": "C6",
            "ticks": 18432,
            "time": 35.121936,
            "velocity": 0.3937007874015748
          },
          {
            "duration": 0.18292675000000003,
            "durationTicks": 96,
            "midi": 88,
            "name": "E6",
            "ticks": 18912,
            "time": 36.03656975,
            "velocity": 0.3937007874015748
          },
          {
            "duration": 0.18292675000000003,
            "durationTicks": 96,
            "midi": 83,
            "name": "B5",
            "ticks": 18912,
            "time": 36.03656975,
            "velocity": 0.3937007874015748
          },
          {
            "duration": 0.18292675000000003,
            "durationTicks": 96,
            "midi": 86,
            "name": "D6",
            "ticks": 19008,
            "time": 36.2194965,
            "velocity": 0.3937007874015748
          },
          {
            "duration": 0.18292675000000003,
            "durationTicks": 96,
            "midi": 81,
            "name": "A5",
            "ticks": 19008,
            "time": 36.2194965,
            "velocity": 0.3937007874015748
          },
          {
            "duration": 0.18292675000000003,
            "durationTicks": 96,
            "midi": 79,
            "name": "G5",
            "ticks": 19104,
            "time": 36.40242325,
            "velocity": 0.3937007874015748
          },
          {
            "duration": 0.18292675000000003,
            "durationTicks": 96,
            "midi": 84,
            "name": "C6",
            "ticks": 19104,
            "time": 36.40242325,
            "velocity": 0.3937007874015748
          },
          {
            "duration": 0.9146337500000001,
            "durationTicks": 480,
            "midi": 83,
            "name": "B5",
            "ticks": 19200,
            "time": 36.58535,
            "velocity": 0.3937007874015748
          },
          {
            "duration": 0.9146337500000001,
            "durationTicks": 480,
            "midi": 79,
            "name": "G5",
            "ticks": 19200,
            "time": 36.58535,
            "velocity": 0.3937007874015748
          },
          {
            "duration": 0.18292675000000003,
            "durationTicks": 96,
            "midi": 84,
            "name": "C6",
            "ticks": 19680,
            "time": 37.49998375,
            "velocity": 0.3937007874015748
          },
          {
            "duration": 0.18292675000000003,
            "durationTicks": 96,
            "midi": 88,
            "name": "E6",
            "ticks": 19680,
            "time": 37.49998375,
            "velocity": 0.3937007874015748
          },
          {
            "duration": 0.18292675000000003,
            "durationTicks": 96,
            "midi": 87,
            "name": "D#6",
            "ticks": 19776,
            "time": 37.6829105,
            "velocity": 0.3937007874015748
          },
          {
            "duration": 0.18292675000000003,
            "durationTicks": 96,
            "midi": 83,
            "name": "B5",
            "ticks": 19776,
            "time": 37.6829105,
            "velocity": 0.3937007874015748
          },
          {
            "duration": 0.18292675000000003,
            "durationTicks": 96,
            "midi": 85,
            "name": "C#6",
            "ticks": 19872,
            "time": 37.86583725,
            "velocity": 0.3937007874015748
          },
          {
            "duration": 0.18292675000000003,
            "durationTicks": 96,
            "midi": 81,
            "name": "A5",
            "ticks": 19872,
            "time": 37.86583725,
            "velocity": 0.3937007874015748
          },
          {
            "duration": 0.9146337500000001,
            "durationTicks": 480,
            "midi": 81,
            "name": "A5",
            "ticks": 19968,
            "time": 38.048764,
            "velocity": 0.3937007874015748
          },
          {
            "duration": 0.9146337500000001,
            "durationTicks": 480,
            "midi": 77,
            "name": "F5",
            "ticks": 19968,
            "time": 38.048764,
            "velocity": 0.3937007874015748
          },
          {
            "duration": 0.18292675000000003,
            "durationTicks": 96,
            "midi": 85,
            "name": "C#6",
            "ticks": 20448,
            "time": 38.96339775,
            "velocity": 0.3937007874015748
          },
          {
            "duration": 0.18292675000000003,
            "durationTicks": 96,
            "midi": 80,
            "name": "G#5",
            "ticks": 20448,
            "time": 38.96339775,
            "velocity": 0.3937007874015748
          },
          {
            "duration": 0.18292675000000003,
            "durationTicks": 96,
            "midi": 83,
            "name": "B5",
            "ticks": 20544,
            "time": 39.1463245,
            "velocity": 0.3937007874015748
          },
          {
            "duration": 0.18292675000000003,
            "durationTicks": 96,
            "midi": 87,
            "name": "D#6",
            "ticks": 20544,
            "time": 39.1463245,
            "velocity": 0.3937007874015748
          },
          {
            "duration": 0.18292675000000003,
            "durationTicks": 96,
            "midi": 89,
            "name": "F6",
            "ticks": 20640,
            "time": 39.32925125,
            "velocity": 0.3937007874015748
          },
          {
            "duration": 0.18292675000000003,
            "durationTicks": 96,
            "midi": 86,
            "name": "D6",
            "ticks": 20640,
            "time": 39.32925125,
            "velocity": 0.3937007874015748
          },
          {
            "duration": 0.9146337500000001,
            "durationTicks": 480,
            "midi": 77,
            "name": "F5",
            "ticks": 20736,
            "time": 39.512178,
            "velocity": 0.3937007874015748
          },
          {
            "duration": 0.9146337500000001,
            "durationTicks": 480,
            "midi": 81,
            "name": "A5",
            "ticks": 20736,
            "time": 39.512178,
            "velocity": 0.3937007874015748
          },
          {
            "duration": 0.18292675000000003,
            "durationTicks": 96,
            "midi": 85,
            "name": "C#6",
            "ticks": 21216,
            "time": 40.42681175,
            "velocity": 0.3937007874015748
          },
          {
            "duration": 0.18292675000000003,
            "durationTicks": 96,
            "midi": 87,
            "name": "D#6",
            "ticks": 21312,
            "time": 40.6097385,
            "velocity": 0.3937007874015748
          },
          {
            "duration": 0.18292675000000003,
            "durationTicks": 96,
            "midi": 89,
            "name": "F6",
            "ticks": 21408,
            "time": 40.79266525,
            "velocity": 0.3937007874015748
          },
          {
            "duration": 0.18292675000000003,
            "durationTicks": 96,
            "midi": 81,
            "name": "A5",
            "ticks": 21504,
            "time": 40.975592,
            "velocity": 0.3937007874015748
          },
          {
            "duration": 0.18292675000000003,
            "durationTicks": 96,
            "midi": 77,
            "name": "F5",
            "ticks": 21504,
            "time": 40.975592,
            "velocity": 0.3937007874015748
          },
          {
            "duration": 0.09146337500000357,
            "durationTicks": 48,
            "midi": 81,
            "name": "A5",
            "ticks": 21792,
            "time": 41.52437225,
            "velocity": 0.3937007874015748
          },
          {
            "duration": 0.09146337499999646,
            "durationTicks": 48,
            "midi": 83,
            "name": "B5",
            "ticks": 21840,
            "time": 41.615835625,
            "velocity": 0.3937007874015748
          },
          {
            "duration": 0.09146337500000357,
            "durationTicks": 48,
            "midi": 85,
            "name": "C#6",
            "ticks": 21888,
            "time": 41.707299,
            "velocity": 0.3937007874015748
          },
          {
            "duration": 0.09146337500000357,
            "durationTicks": 48,
            "midi": 81,
            "name": "A5",
            "ticks": 22176,
            "time": 42.25607925,
            "velocity": 0.3937007874015748
          },
          {
            "duration": 0.09146337499999646,
            "durationTicks": 48,
            "midi": 83,
            "name": "B5",
            "ticks": 22224,
            "time": 42.347542625,
            "velocity": 0.3937007874015748
          },
          {
            "duration": 0.09146337500000357,
            "durationTicks": 48,
            "midi": 85,
            "name": "C#6",
            "ticks": 22272,
            "time": 42.439006,
            "velocity": 0.3937007874015748
          },
          {
            "duration": 0.09146337499999646,
            "durationTicks": 48,
            "midi": 87,
            "name": "D#6",
            "ticks": 22320,
            "time": 42.530469375,
            "velocity": 0.3937007874015748
          },
          {
            "duration": 0.18292675000000003,
            "durationTicks": 96,
            "midi": 89,
            "name": "F6",
            "ticks": 22368,
            "time": 42.62193275,
            "velocity": 0.3937007874015748
          },
          {
            "duration": 0.18292675000000003,
            "durationTicks": 96,
            "midi": 87,
            "name": "D#6",
            "ticks": 22464,
            "time": 42.8048595,
            "velocity": 0.3937007874015748
          },
          {
            "duration": 0.18292675000000003,
            "durationTicks": 96,
            "midi": 85,
            "name": "C#6",
            "ticks": 22560,
            "time": 42.98778625,
            "velocity": 0.3937007874015748
          },
          {
            "duration": 0.18292675000000003,
            "durationTicks": 96,
            "midi": 83,
            "name": "B5",
            "ticks": 22656,
            "time": 43.170713,
            "velocity": 0.3937007874015748
          },
          {
            "duration": 0.18292675000000003,
            "durationTicks": 96,
            "midi": 82,
            "name": "A#5",
            "ticks": 22752,
            "time": 43.35363975,
            "velocity": 0.3937007874015748
          },
          {
            "duration": 0.18292675000000003,
            "durationTicks": 96,
            "midi": 81,
            "name": "A5",
            "ticks": 22848,
            "time": 43.5365665,
            "velocity": 0.3937007874015748
          },
          {
            "duration": 0.18292675000000003,
            "durationTicks": 96,
            "midi": 82,
            "name": "A#5",
            "ticks": 22944,
            "time": 43.71949325,
            "velocity": 0.3937007874015748
          },
          {
            "duration": 0.18292675000000003,
            "durationTicks": 96,
            "midi": 81,
            "name": "A5",
            "ticks": 23040,
            "time": 43.90242,
            "velocity": 0.3937007874015748
          },
          {
            "duration": 0.18292675000000003,
            "durationTicks": 96,
            "midi": 82,
            "name": "A#5",
            "ticks": 23136,
            "time": 44.08534675,
            "velocity": 0.3937007874015748
          },
          {
            "duration": 0.7317070000000001,
            "durationTicks": 384,
            "midi": 81,
            "name": "A5",
            "ticks": 23232,
            "time": 44.2682735,
            "velocity": 0.3937007874015748
          },
          {
            "duration": 0.18292675000000003,
            "durationTicks": 96,
            "midi": 81,
            "name": "A5",
            "ticks": 23712,
            "time": 45.18290725,
            "velocity": 0.3937007874015748
          },
          {
            "duration": 0.18292675000000003,
            "durationTicks": 96,
            "midi": 83,
            "name": "B5",
            "ticks": 23808,
            "time": 45.365834,
            "velocity": 0.3937007874015748
          },
          {
            "duration": 0.18292675000000003,
            "durationTicks": 96,
            "midi": 85,
            "name": "C#6",
            "ticks": 23904,
            "time": 45.54876075,
            "velocity": 0.3937007874015748
          },
          {
            "duration": 0.18292675000000003,
            "durationTicks": 96,
            "midi": 81,
            "name": "A5",
            "ticks": 24000,
            "time": 45.7316875,
            "velocity": 0.3937007874015748
          },
          {
            "duration": 0.18292675000000003,
            "durationTicks": 96,
            "midi": 82,
            "name": "A#5",
            "ticks": 24096,
            "time": 45.91461425,
            "velocity": 0.3937007874015748
          },
          {
            "duration": 0.18292675000000003,
            "durationTicks": 96,
            "midi": 81,
            "name": "A5",
            "ticks": 24192,
            "time": 46.097541,
            "velocity": 0.3937007874015748
          },
          {
            "duration": 0.18292675000000003,
            "durationTicks": 96,
            "midi": 82,
            "name": "A#5",
            "ticks": 24288,
            "time": 46.28046775,
            "velocity": 0.3937007874015748
          },
          {
            "duration": 0.18292675000000003,
            "durationTicks": 96,
            "midi": 81,
            "name": "A5",
            "ticks": 24384,
            "time": 46.4633945,
            "velocity": 0.3937007874015748
          },
          {
            "duration": 0.18292675000000003,
            "durationTicks": 96,
            "midi": 82,
            "name": "A#5",
            "ticks": 24480,
            "time": 46.64632125,
            "velocity": 0.3937007874015748
          },
          {
            "duration": 0.18292675000000003,
            "durationTicks": 96,
            "midi": 81,
            "name": "A5",
            "ticks": 24576,
            "time": 46.829248,
            "velocity": 0.3937007874015748
          },
          {
            "duration": 1.0975605000000002,
            "durationTicks": 576,
            "midi": 81,
            "name": "A5",
            "ticks": 24864,
            "time": 47.37802825,
            "velocity": 0.3937007874015748
          },
          {
            "duration": 0.36585350000000005,
            "durationTicks": 192,
            "midi": 89,
            "name": "F6",
            "ticks": 25440,
            "time": 48.47558875,
            "velocity": 0.3937007874015748
          },
          {
            "duration": 0.36585350000000005,
            "durationTicks": 192,
            "midi": 87,
            "name": "D#6",
            "ticks": 25632,
            "time": 48.84144225,
            "velocity": 0.3937007874015748
          },
          {
            "duration": 0.18292675000000003,
            "durationTicks": 96,
            "midi": 82,
            "name": "A#5",
            "ticks": 25824,
            "time": 49.20729575,
            "velocity": 0.3937007874015748
          },
          {
            "duration": 0.36585350000000005,
            "durationTicks": 192,
            "midi": 86,
            "name": "D6",
            "ticks": 25920,
            "time": 49.3902225,
            "velocity": 0.3937007874015748
          },
          {
            "duration": 0.18292675000000003,
            "durationTicks": 96,
            "midi": 89,
            "name": "F6",
            "ticks": 26112,
            "time": 49.756076,
            "velocity": 0.3937007874015748
          },
          {
            "duration": 1.2804872500000002,
            "durationTicks": 672,
            "midi": 81,
            "name": "A5",
            "ticks": 26208,
            "time": 49.93900275,
            "velocity": 0.3937007874015748
          },
          {
            "duration": 0.36585350000000005,
            "durationTicks": 192,
            "midi": 89,
            "name": "F6",
            "ticks": 26880,
            "time": 51.21949,
            "velocity": 0.3937007874015748
          },
          {
            "duration": 0.36585350000000005,
            "durationTicks": 192,
            "midi": 87,
            "name": "D#6",
            "ticks": 27072,
            "time": 51.5853435,
            "velocity": 0.3937007874015748
          },
          {
            "duration": 0.18292675000000003,
            "durationTicks": 96,
            "midi": 82,
            "name": "A#5",
            "ticks": 27264,
            "time": 51.951197,
            "velocity": 0.3937007874015748
          },
          {
            "duration": 0.36585350000000005,
            "durationTicks": 192,
            "midi": 86,
            "name": "D6",
            "ticks": 27360,
            "time": 52.13412375,
            "velocity": 0.3937007874015748
          },
          {
            "duration": 0.18292675000000003,
            "durationTicks": 96,
            "midi": 89,
            "name": "F6",
            "ticks": 27552,
            "time": 52.49997725,
            "velocity": 0.3937007874015748
          },
          {
            "duration": 0.18292675000000003,
            "durationTicks": 96,
            "midi": 81,
            "name": "A5",
            "ticks": 27648,
            "time": 52.682904,
            "velocity": 0.3937007874015748
          },
          {
            "duration": 0.18292675000000003,
            "durationTicks": 96,
            "midi": 83,
            "name": "B5",
            "ticks": 27744,
            "time": 52.86583075,
            "velocity": 0.3937007874015748
          },
          {
            "duration": 0.18292675000000003,
            "durationTicks": 96,
            "midi": 82,
            "name": "A#5",
            "ticks": 27840,
            "time": 53.0487575,
            "velocity": 0.3937007874015748
          },
          {
            "duration": 0.18292675000000003,
            "durationTicks": 96,
            "midi": 84,
            "name": "C6",
            "ticks": 27936,
            "time": 53.23168425,
            "velocity": 0.3937007874015748
          },
          {
            "duration": 0.18292675000000003,
            "durationTicks": 96,
            "midi": 81,
            "name": "A5",
            "ticks": 28032,
            "time": 53.414611,
            "velocity": 0.3937007874015748
          },
          {
            "duration": 0.18292675000000003,
            "durationTicks": 96,
            "midi": 85,
            "name": "C#6",
            "ticks": 28128,
            "time": 53.59753775,
            "velocity": 0.3937007874015748
          },
          {
            "duration": 0.18292675000000003,
            "durationTicks": 96,
            "midi": 84,
            "name": "C6",
            "ticks": 28224,
            "time": 53.7804645,
            "velocity": 0.3937007874015748
          },
          {
            "duration": 0.18292675000000003,
            "durationTicks": 96,
            "midi": 86,
            "name": "D6",
            "ticks": 28320,
            "time": 53.96339125,
            "velocity": 0.3937007874015748
          },
          {
            "duration": 0.18292675000000003,
            "durationTicks": 96,
            "midi": 81,
            "name": "A5",
            "ticks": 28416,
            "time": 54.146318,
            "velocity": 0.3937007874015748
          },
          {
            "duration": 0.18292675000000003,
            "durationTicks": 96,
            "midi": 83,
            "name": "B5",
            "ticks": 28512,
            "time": 54.32924475,
            "velocity": 0.3937007874015748
          },
          {
            "duration": 0.18292675000000003,
            "durationTicks": 96,
            "midi": 82,
            "name": "A#5",
            "ticks": 28608,
            "time": 54.5121715,
            "velocity": 0.3937007874015748
          },
          {
            "duration": 0.18292675000000003,
            "durationTicks": 96,
            "midi": 84,
            "name": "C6",
            "ticks": 28704,
            "time": 54.69509825,
            "velocity": 0.3937007874015748
          },
          {
            "duration": 0.18292675000000003,
            "durationTicks": 96,
            "midi": 81,
            "name": "A5",
            "ticks": 28800,
            "time": 54.878025,
            "velocity": 0.3937007874015748
          },
          {
            "duration": 0.18292675000000003,
            "durationTicks": 96,
            "midi": 86,
            "name": "D6",
            "ticks": 28896,
            "time": 55.06095175,
            "velocity": 0.3937007874015748
          },
          {
            "duration": 0.18292675000000003,
            "durationTicks": 96,
            "midi": 89,
            "name": "F6",
            "ticks": 28992,
            "time": 55.2438785,
            "velocity": 0.3937007874015748
          },
          {
            "duration": 0.18292675000000003,
            "durationTicks": 96,
            "midi": 92,
            "name": "G#6",
            "ticks": 29088,
            "time": 55.42680525,
            "velocity": 0.3937007874015748
          },
          {
            "duration": 0.9146337500000001,
            "durationTicks": 480,
            "midi": 93,
            "name": "A6",
            "ticks": 29184,
            "time": 55.609732,
            "velocity": 0.3937007874015748
          },
          {
            "duration": 0.18292675000000003,
            "durationTicks": 96,
            "midi": 92,
            "name": "G#6",
            "ticks": 29664,
            "time": 56.52436575,
            "velocity": 0.3937007874015748
          },
          {
            "duration": 0.18292675000000003,
            "durationTicks": 96,
            "midi": 89,
            "name": "F6",
            "ticks": 29760,
            "time": 56.7072925,
            "velocity": 0.3937007874015748
          },
          {
            "duration": 0.18292675000000003,
            "durationTicks": 96,
            "midi": 85,
            "name": "C#6",
            "ticks": 29856,
            "time": 56.89021925,
            "velocity": 0.3937007874015748
          },
          {
            "duration": 0.18292675000000003,
            "durationTicks": 96,
            "midi": 81,
            "name": "A5",
            "ticks": 29952,
            "time": 57.073146,
            "velocity": 0.3937007874015748
          },
          {
            "duration": 0.7317070000000001,
            "durationTicks": 384,
            "midi": 81,
            "name": "A5",
            "ticks": 30624,
            "time": 58.35363325,
            "velocity": 0.3937007874015748
          },
          {
            "duration": 0.7317070000000001,
            "durationTicks": 384,
            "midi": 82,
            "name": "A#5",
            "ticks": 31008,
            "time": 59.08534025,
            "velocity": 0.3937007874015748
          },
          {
            "duration": 0.36585350000000005,
            "durationTicks": 192,
            "midi": 89,
            "name": "F6",
            "ticks": 31392,
            "time": 59.81704725,
            "velocity": 0.3937007874015748
          },
          {
            "duration": 0.36585350000000005,
            "durationTicks": 192,
            "midi": 87,
            "name": "D#6",
            "ticks": 31584,
            "time": 60.18290075,
            "velocity": 0.3937007874015748
          },
          {
            "duration": 0.36585350000000005,
            "durationTicks": 192,
            "midi": 85,
            "name": "C#6",
            "ticks": 31776,
            "time": 60.54875425,
            "velocity": 0.3937007874015748
          },
          {
            "duration": 0.36585350000000005,
            "durationTicks": 192,
            "midi": 82,
            "name": "A#5",
            "ticks": 31968,
            "time": 60.91460775,
            "velocity": 0.3937007874015748
          },
          {
            "duration": 0.7317070000000001,
            "durationTicks": 384,
            "midi": 81,
            "name": "A5",
            "ticks": 32160,
            "time": 61.28046125,
            "velocity": 0.3937007874015748
          },
          {
            "duration": 0.36585350000000005,
            "durationTicks": 192,
            "midi": 85,
            "name": "C#6",
            "ticks": 32544,
            "time": 62.01216825,
            "velocity": 0.3937007874015748
          }
        ],
        "endOfTrackTicks": 32736
      },
      {
        "channel": 4,
        "controlChanges": {},
        "pitchBends": [],
        "instrument": {
          "family": "synth lead",
          "number": 80,
          "name": "lead 1 (square)"
        },
        "name": "8-Bit Square",
        "notes": [
          {
            "duration": 0.18292675,
            "durationTicks": 96,
            "midi": 57,
            "name": "A3",
            "ticks": 0,
            "time": 0,
            "velocity": 0.3937007874015748
          },
          {
            "duration": 0.18292675,
            "durationTicks": 96,
            "midi": 58,
            "name": "A#3",
            "ticks": 96,
            "time": 0.18292675,
            "velocity": 0.3937007874015748
          },
          {
            "duration": 0.18292674999999997,
            "durationTicks": 96,
            "midi": 65,
            "name": "F4",
            "ticks": 192,
            "time": 0.3658535,
            "velocity": 0.3937007874015748
          },
          {
            "duration": 0.18292675000000003,
            "durationTicks": 96,
            "midi": 58,
            "name": "A#3",
            "ticks": 288,
            "time": 0.54878025,
            "velocity": 0.3937007874015748
          },
          {
            "duration": 0.18292675000000003,
            "durationTicks": 96,
            "midi": 57,
            "name": "A3",
            "ticks": 384,
            "time": 0.731707,
            "velocity": 0.3937007874015748
          },
          {
            "duration": 0.18292674999999992,
            "durationTicks": 96,
            "midi": 58,
            "name": "A#3",
            "ticks": 480,
            "time": 0.91463375,
            "velocity": 0.3937007874015748
          },
          {
            "duration": 0.18292675000000003,
            "durationTicks": 96,
            "midi": 65,
            "name": "F4",
            "ticks": 576,
            "time": 1.0975605,
            "velocity": 0.3937007874015748
          },
          {
            "duration": 0.18292675000000003,
            "durationTicks": 96,
            "midi": 58,
            "name": "A#3",
            "ticks": 672,
            "time": 1.28048725,
            "velocity": 0.3937007874015748
          },
          {
            "duration": 0.18292675000000003,
            "durationTicks": 96,
            "midi": 57,
            "name": "A3",
            "ticks": 768,
            "time": 1.463414,
            "velocity": 0.3937007874015748
          },
          {
            "duration": 0.18292675000000003,
            "durationTicks": 96,
            "midi": 58,
            "name": "A#3",
            "ticks": 864,
            "time": 1.64634075,
            "velocity": 0.3937007874015748
          },
          {
            "duration": 0.1829267499999998,
            "durationTicks": 96,
            "midi": 65,
            "name": "F4",
            "ticks": 960,
            "time": 1.8292675,
            "velocity": 0.3937007874015748
          },
          {
            "duration": 0.18292675000000003,
            "durationTicks": 96,
            "midi": 58,
            "name": "A#3",
            "ticks": 1056,
            "time": 2.01219425,
            "velocity": 0.3937007874015748
          },
          {
            "duration": 0.18292675000000003,
            "durationTicks": 96,
            "midi": 57,
            "name": "A3",
            "ticks": 1152,
            "time": 2.195121,
            "velocity": 0.3937007874015748
          },
          {
            "duration": 0.18292675000000003,
            "durationTicks": 96,
            "midi": 58,
            "name": "A#3",
            "ticks": 1248,
            "time": 2.37804775,
            "velocity": 0.3937007874015748
          },
          {
            "duration": 0.18292675000000003,
            "durationTicks": 96,
            "midi": 65,
            "name": "F4",
            "ticks": 1344,
            "time": 2.5609745,
            "velocity": 0.3937007874015748
          },
          {
            "duration": 0.18292675000000003,
            "durationTicks": 96,
            "midi": 58,
            "name": "A#3",
            "ticks": 1440,
            "time": 2.74390125,
            "velocity": 0.3937007874015748
          },
          {
            "duration": 0.18292675000000003,
            "durationTicks": 96,
            "midi": 56,
            "name": "G#3",
            "ticks": 1536,
            "time": 2.926828,
            "velocity": 0.3937007874015748
          },
          {
            "duration": 0.18292675000000003,
            "durationTicks": 96,
            "midi": 57,
            "name": "A3",
            "ticks": 1632,
            "time": 3.10975475,
            "velocity": 0.3937007874015748
          },
          {
            "duration": 0.18292675000000003,
            "durationTicks": 96,
            "midi": 64,
            "name": "E4",
            "ticks": 1728,
            "time": 3.2926815,
            "velocity": 0.3937007874015748
          },
          {
            "duration": 0.18292675000000003,
            "durationTicks": 96,
            "midi": 57,
            "name": "A3",
            "ticks": 1824,
            "time": 3.47560825,
            "velocity": 0.3937007874015748
          },
          {
            "duration": 0.18292675000000003,
            "durationTicks": 96,
            "midi": 56,
            "name": "G#3",
            "ticks": 1920,
            "time": 3.658535,
            "velocity": 0.3937007874015748
          },
          {
            "duration": 0.18292674999999958,
            "durationTicks": 96,
            "midi": 57,
            "name": "A3",
            "ticks": 2016,
            "time": 3.84146175,
            "velocity": 0.3937007874015748
          },
          {
            "duration": 0.18292675000000003,
            "durationTicks": 96,
            "midi": 64,
            "name": "E4",
            "ticks": 2112,
            "time": 4.0243885,
            "velocity": 0.3937007874015748
          },
          {
            "duration": 0.18292675000000003,
            "durationTicks": 96,
            "midi": 57,
            "name": "A3",
            "ticks": 2208,
            "time": 4.20731525,
            "velocity": 0.3937007874015748
          },
          {
            "duration": 0.18292675000000003,
            "durationTicks": 96,
            "midi": 56,
            "name": "G#3",
            "ticks": 2304,
            "time": 4.390242,
            "velocity": 0.3937007874015748
          },
          {
            "duration": 0.18292675000000003,
            "durationTicks": 96,
            "midi": 57,
            "name": "A3",
            "ticks": 2400,
            "time": 4.57316875,
            "velocity": 0.3937007874015748
          },
          {
            "duration": 0.18292675000000003,
            "durationTicks": 96,
            "midi": 64,
            "name": "E4",
            "ticks": 2496,
            "time": 4.7560955,
            "velocity": 0.3937007874015748
          },
          {
            "duration": 0.18292675000000003,
            "durationTicks": 96,
            "midi": 57,
            "name": "A3",
            "ticks": 2592,
            "time": 4.93902225,
            "velocity": 0.3937007874015748
          },
          {
            "duration": 0.18292675000000003,
            "durationTicks": 96,
            "midi": 56,
            "name": "G#3",
            "ticks": 2688,
            "time": 5.121949,
            "velocity": 0.3937007874015748
          },
          {
            "duration": 0.18292675000000003,
            "durationTicks": 96,
            "midi": 57,
            "name": "A3",
            "ticks": 2784,
            "time": 5.30487575,
            "velocity": 0.3937007874015748
          },
          {
            "duration": 0.18292675000000003,
            "durationTicks": 96,
            "midi": 64,
            "name": "E4",
            "ticks": 2880,
            "time": 5.4878025,
            "velocity": 0.3937007874015748
          },
          {
            "duration": 0.18292675000000003,
            "durationTicks": 96,
            "midi": 57,
            "name": "A3",
            "ticks": 2976,
            "time": 5.67072925,
            "velocity": 0.3937007874015748
          },
          {
            "duration": 0.18292675000000003,
            "durationTicks": 96,
            "midi": 57,
            "name": "A3",
            "ticks": 3072,
            "time": 5.853656,
            "velocity": 0.3937007874015748
          },
          {
            "duration": 0.18292675000000003,
            "durationTicks": 96,
            "midi": 58,
            "name": "A#3",
            "ticks": 3168,
            "time": 6.03658275,
            "velocity": 0.3937007874015748
          },
          {
            "duration": 0.18292675000000003,
            "durationTicks": 96,
            "midi": 65,
            "name": "F4",
            "ticks": 3264,
            "time": 6.2195095,
            "velocity": 0.3937007874015748
          },
          {
            "duration": 0.18292675000000003,
            "durationTicks": 96,
            "midi": 58,
            "name": "A#3",
            "ticks": 3360,
            "time": 6.40243625,
            "velocity": 0.3937007874015748
          },
          {
            "duration": 0.18292675000000003,
            "durationTicks": 96,
            "midi": 57,
            "name": "A3",
            "ticks": 3456,
            "time": 6.585363,
            "velocity": 0.3937007874015748
          },
          {
            "duration": 0.18292675000000003,
            "durationTicks": 96,
            "midi": 58,
            "name": "A#3",
            "ticks": 3552,
            "time": 6.76828975,
            "velocity": 0.3937007874015748
          },
          {
            "duration": 0.18292675000000003,
            "durationTicks": 96,
            "midi": 65,
            "name": "F4",
            "ticks": 3648,
            "time": 6.9512165,
            "velocity": 0.3937007874015748
          },
          {
            "duration": 0.18292675000000003,
            "durationTicks": 96,
            "midi": 58,
            "name": "A#3",
            "ticks": 3744,
            "time": 7.13414325,
            "velocity": 0.3937007874015748
          },
          {
            "duration": 0.18292675000000003,
            "durationTicks": 96,
            "midi": 57,
            "name": "A3",
            "ticks": 3840,
            "time": 7.31707,
            "velocity": 0.3937007874015748
          },
          {
            "duration": 0.18292675000000003,
            "durationTicks": 96,
            "midi": 58,
            "name": "A#3",
            "ticks": 3936,
            "time": 7.49999675,
            "velocity": 0.3937007874015748
          },
          {
            "duration": 0.18292675000000003,
            "durationTicks": 96,
            "midi": 65,
            "name": "F4",
            "ticks": 4032,
            "time": 7.6829235,
            "velocity": 0.3937007874015748
          },
          {
            "duration": 0.18292674999999914,
            "durationTicks": 96,
            "midi": 58,
            "name": "A#3",
            "ticks": 4128,
            "time": 7.86585025,
            "velocity": 0.3937007874015748
          },
          {
            "duration": 0.18292675000000003,
            "durationTicks": 96,
            "midi": 57,
            "name": "A3",
            "ticks": 4224,
            "time": 8.048777,
            "velocity": 0.3937007874015748
          },
          {
            "duration": 0.18292675000000003,
            "durationTicks": 96,
            "midi": 58,
            "name": "A#3",
            "ticks": 4320,
            "time": 8.23170375,
            "velocity": 0.3937007874015748
          },
          {
            "duration": 0.18292675000000003,
            "durationTicks": 96,
            "midi": 65,
            "name": "F4",
            "ticks": 4416,
            "time": 8.4146305,
            "velocity": 0.3937007874015748
          },
          {
            "duration": 0.18292675000000003,
            "durationTicks": 96,
            "midi": 58,
            "name": "A#3",
            "ticks": 4512,
            "time": 8.59755725,
            "velocity": 0.3937007874015748
          },
          {
            "duration": 0.18292675000000003,
            "durationTicks": 96,
            "midi": 56,
            "name": "G#3",
            "ticks": 4608,
            "time": 8.780484,
            "velocity": 0.3937007874015748
          },
          {
            "duration": 0.18292675000000003,
            "durationTicks": 96,
            "midi": 57,
            "name": "A3",
            "ticks": 4704,
            "time": 8.96341075,
            "velocity": 0.3937007874015748
          },
          {
            "duration": 0.18292675000000003,
            "durationTicks": 96,
            "midi": 64,
            "name": "E4",
            "ticks": 4800,
            "time": 9.1463375,
            "velocity": 0.3937007874015748
          },
          {
            "duration": 0.18292675000000003,
            "durationTicks": 96,
            "midi": 57,
            "name": "A3",
            "ticks": 4896,
            "time": 9.32926425,
            "velocity": 0.3937007874015748
          },
          {
            "duration": 0.18292675000000003,
            "durationTicks": 96,
            "midi": 56,
            "name": "G#3",
            "ticks": 4992,
            "time": 9.512191,
            "velocity": 0.3937007874015748
          },
          {
            "duration": 0.18292675000000003,
            "durationTicks": 96,
            "midi": 57,
            "name": "A3",
            "ticks": 5088,
            "time": 9.69511775,
            "velocity": 0.3937007874015748
          },
          {
            "duration": 0.18292675000000003,
            "durationTicks": 96,
            "midi": 64,
            "name": "E4",
            "ticks": 5184,
            "time": 9.8780445,
            "velocity": 0.3937007874015748
          },
          {
            "duration": 0.18292675000000003,
            "durationTicks": 96,
            "midi": 57,
            "name": "A3",
            "ticks": 5280,
            "time": 10.06097125,
            "velocity": 0.3937007874015748
          },
          {
            "duration": 0.18292675000000003,
            "durationTicks": 96,
            "midi": 56,
            "name": "G#3",
            "ticks": 5376,
            "time": 10.243898,
            "velocity": 0.3937007874015748
          },
          {
            "duration": 0.18292675000000003,
            "durationTicks": 96,
            "midi": 57,
            "name": "A3",
            "ticks": 5472,
            "time": 10.42682475,
            "velocity": 0.3937007874015748
          },
          {
            "duration": 0.18292675000000003,
            "durationTicks": 96,
            "midi": 64,
            "name": "E4",
            "ticks": 5568,
            "time": 10.6097515,
            "velocity": 0.3937007874015748
          },
          {
            "duration": 0.18292675000000003,
            "durationTicks": 96,
            "midi": 57,
            "name": "A3",
            "ticks": 5664,
            "time": 10.79267825,
            "velocity": 0.3937007874015748
          },
          {
            "duration": 0.18292675000000003,
            "durationTicks": 96,
            "midi": 56,
            "name": "G#3",
            "ticks": 5760,
            "time": 10.975605,
            "velocity": 0.3937007874015748
          },
          {
            "duration": 0.18292675000000003,
            "durationTicks": 96,
            "midi": 57,
            "name": "A3",
            "ticks": 5856,
            "time": 11.15853175,
            "velocity": 0.3937007874015748
          },
          {
            "duration": 0.18292675000000003,
            "durationTicks": 96,
            "midi": 64,
            "name": "E4",
            "ticks": 5952,
            "time": 11.3414585,
            "velocity": 0.3937007874015748
          },
          {
            "duration": 0.18292675000000003,
            "durationTicks": 96,
            "midi": 57,
            "name": "A3",
            "ticks": 6048,
            "time": 11.52438525,
            "velocity": 0.3937007874015748
          },
          {
            "duration": 0.18292675000000003,
            "durationTicks": 96,
            "midi": 57,
            "name": "A3",
            "ticks": 6144,
            "time": 11.707312,
            "velocity": 0.3937007874015748
          },
          {
            "duration": 0.18292675000000003,
            "durationTicks": 96,
            "midi": 58,
            "name": "A#3",
            "ticks": 6240,
            "time": 11.89023875,
            "velocity": 0.3937007874015748
          },
          {
            "duration": 0.18292675000000003,
            "durationTicks": 96,
            "midi": 65,
            "name": "F4",
            "ticks": 6336,
            "time": 12.0731655,
            "velocity": 0.3937007874015748
          },
          {
            "duration": 0.18292675000000003,
            "durationTicks": 96,
            "midi": 58,
            "name": "A#3",
            "ticks": 6432,
            "time": 12.25609225,
            "velocity": 0.3937007874015748
          },
          {
            "duration": 0.18292675000000003,
            "durationTicks": 96,
            "midi": 57,
            "name": "A3",
            "ticks": 6528,
            "time": 12.439019,
            "velocity": 0.3937007874015748
          },
          {
            "duration": 0.18292675000000003,
            "durationTicks": 96,
            "midi": 58,
            "name": "A#3",
            "ticks": 6624,
            "time": 12.62194575,
            "velocity": 0.3937007874015748
          },
          {
            "duration": 0.18292675000000003,
            "durationTicks": 96,
            "midi": 65,
            "name": "F4",
            "ticks": 6720,
            "time": 12.8048725,
            "velocity": 0.3937007874015748
          },
          {
            "duration": 0.18292675000000003,
            "durationTicks": 96,
            "midi": 58,
            "name": "A#3",
            "ticks": 6816,
            "time": 12.98779925,
            "velocity": 0.3937007874015748
          },
          {
            "duration": 0.18292675000000003,
            "durationTicks": 96,
            "midi": 57,
            "name": "A3",
            "ticks": 6912,
            "time": 13.170726,
            "velocity": 0.3937007874015748
          },
          {
            "duration": 0.18292675000000003,
            "durationTicks": 96,
            "midi": 58,
            "name": "A#3",
            "ticks": 7008,
            "time": 13.35365275,
            "velocity": 0.3937007874015748
          },
          {
            "duration": 0.18292675000000003,
            "durationTicks": 96,
            "midi": 65,
            "name": "F4",
            "ticks": 7104,
            "time": 13.5365795,
            "velocity": 0.3937007874015748
          },
          {
            "duration": 0.18292675000000003,
            "durationTicks": 96,
            "midi": 58,
            "name": "A#3",
            "ticks": 7200,
            "time": 13.71950625,
            "velocity": 0.3937007874015748
          },
          {
            "duration": 0.18292675000000003,
            "durationTicks": 96,
            "midi": 57,
            "name": "A3",
            "ticks": 7296,
            "time": 13.902433,
            "velocity": 0.3937007874015748
          },
          {
            "duration": 0.18292675000000003,
            "durationTicks": 96,
            "midi": 58,
            "name": "A#3",
            "ticks": 7392,
            "time": 14.08535975,
            "velocity": 0.3937007874015748
          },
          {
            "duration": 0.18292675000000003,
            "durationTicks": 96,
            "midi": 65,
            "name": "F4",
            "ticks": 7488,
            "time": 14.2682865,
            "velocity": 0.3937007874015748
          },
          {
            "duration": 0.18292675000000003,
            "durationTicks": 96,
            "midi": 58,
            "name": "A#3",
            "ticks": 7584,
            "time": 14.45121325,
            "velocity": 0.3937007874015748
          },
          {
            "duration": 0.18292675000000003,
            "durationTicks": 96,
            "midi": 56,
            "name": "G#3",
            "ticks": 7680,
            "time": 14.63414,
            "velocity": 0.3937007874015748
          },
          {
            "duration": 0.18292675000000003,
            "durationTicks": 96,
            "midi": 57,
            "name": "A3",
            "ticks": 7776,
            "time": 14.81706675,
            "velocity": 0.3937007874015748
          },
          {
            "duration": 0.18292675000000003,
            "durationTicks": 96,
            "midi": 64,
            "name": "E4",
            "ticks": 7872,
            "time": 14.9999935,
            "velocity": 0.3937007874015748
          },
          {
            "duration": 0.18292675000000003,
            "durationTicks": 96,
            "midi": 57,
            "name": "A3",
            "ticks": 7968,
            "time": 15.18292025,
            "velocity": 0.3937007874015748
          },
          {
            "duration": 0.18292675000000003,
            "durationTicks": 96,
            "midi": 56,
            "name": "G#3",
            "ticks": 8064,
            "time": 15.365847,
            "velocity": 0.3937007874015748
          },
          {
            "duration": 0.18292675000000003,
            "durationTicks": 96,
            "midi": 57,
            "name": "A3",
            "ticks": 8160,
            "time": 15.54877375,
            "velocity": 0.3937007874015748
          },
          {
            "duration": 0.18292675000000003,
            "durationTicks": 96,
            "midi": 64,
            "name": "E4",
            "ticks": 8256,
            "time": 15.7317005,
            "velocity": 0.3937007874015748
          },
          {
            "duration": 0.18292674999999825,
            "durationTicks": 96,
            "midi": 57,
            "name": "A3",
            "ticks": 8352,
            "time": 15.91462725,
            "velocity": 0.3937007874015748
          },
          {
            "duration": 0.18292675000000003,
            "durationTicks": 96,
            "midi": 56,
            "name": "G#3",
            "ticks": 8448,
            "time": 16.097554,
            "velocity": 0.3937007874015748
          },
          {
            "duration": 0.18292675000000003,
            "durationTicks": 96,
            "midi": 57,
            "name": "A3",
            "ticks": 8544,
            "time": 16.28048075,
            "velocity": 0.3937007874015748
          },
          {
            "duration": 0.18292675000000003,
            "durationTicks": 96,
            "midi": 64,
            "name": "E4",
            "ticks": 8640,
            "time": 16.4634075,
            "velocity": 0.3937007874015748
          },
          {
            "duration": 0.18292675000000003,
            "durationTicks": 96,
            "midi": 57,
            "name": "A3",
            "ticks": 8736,
            "time": 16.64633425,
            "velocity": 0.3937007874015748
          },
          {
            "duration": 0.18292675000000003,
            "durationTicks": 96,
            "midi": 56,
            "name": "G#3",
            "ticks": 8832,
            "time": 16.829261,
            "velocity": 0.3937007874015748
          },
          {
            "duration": 0.18292675000000003,
            "durationTicks": 96,
            "midi": 57,
            "name": "A3",
            "ticks": 8928,
            "time": 17.01218775,
            "velocity": 0.3937007874015748
          },
          {
            "duration": 0.18292675000000003,
            "durationTicks": 96,
            "midi": 64,
            "name": "E4",
            "ticks": 9024,
            "time": 17.1951145,
            "velocity": 0.3937007874015748
          },
          {
            "duration": 0.18292675000000003,
            "durationTicks": 96,
            "midi": 57,
            "name": "A3",
            "ticks": 9120,
            "time": 17.37804125,
            "velocity": 0.3937007874015748
          },
          {
            "duration": 0.18292675000000003,
            "durationTicks": 96,
            "midi": 57,
            "name": "A3",
            "ticks": 9216,
            "time": 17.560968,
            "velocity": 0.3937007874015748
          },
          {
            "duration": 0.18292675000000003,
            "durationTicks": 96,
            "midi": 58,
            "name": "A#3",
            "ticks": 9312,
            "time": 17.74389475,
            "velocity": 0.3937007874015748
          },
          {
            "duration": 0.18292675000000003,
            "durationTicks": 96,
            "midi": 65,
            "name": "F4",
            "ticks": 9408,
            "time": 17.9268215,
            "velocity": 0.3937007874015748
          },
          {
            "duration": 0.18292675000000003,
            "durationTicks": 96,
            "midi": 58,
            "name": "A#3",
            "ticks": 9504,
            "time": 18.10974825,
            "velocity": 0.3937007874015748
          },
          {
            "duration": 0.18292675000000003,
            "durationTicks": 96,
            "midi": 57,
            "name": "A3",
            "ticks": 9600,
            "time": 18.292675,
            "velocity": 0.3937007874015748
          },
          {
            "duration": 0.18292675000000003,
            "durationTicks": 96,
            "midi": 58,
            "name": "A#3",
            "ticks": 9696,
            "time": 18.47560175,
            "velocity": 0.3937007874015748
          },
          {
            "duration": 0.18292675000000003,
            "durationTicks": 96,
            "midi": 65,
            "name": "F4",
            "ticks": 9792,
            "time": 18.6585285,
            "velocity": 0.3937007874015748
          },
          {
            "duration": 0.18292675000000003,
            "durationTicks": 96,
            "midi": 58,
            "name": "A#3",
            "ticks": 9888,
            "time": 18.84145525,
            "velocity": 0.3937007874015748
          },
          {
            "duration": 0.18292675000000003,
            "durationTicks": 96,
            "midi": 57,
            "name": "A3",
            "ticks": 9984,
            "time": 19.024382,
            "velocity": 0.3937007874015748
          },
          {
            "duration": 0.18292675000000003,
            "durationTicks": 96,
            "midi": 58,
            "name": "A#3",
            "ticks": 10080,
            "time": 19.20730875,
            "velocity": 0.3937007874015748
          },
          {
            "duration": 0.18292675000000003,
            "durationTicks": 96,
            "midi": 65,
            "name": "F4",
            "ticks": 10176,
            "time": 19.3902355,
            "velocity": 0.3937007874015748
          },
          {
            "duration": 0.18292675000000003,
            "durationTicks": 96,
            "midi": 58,
            "name": "A#3",
            "ticks": 10272,
            "time": 19.57316225,
            "velocity": 0.3937007874015748
          },
          {
            "duration": 0.18292675000000003,
            "durationTicks": 96,
            "midi": 57,
            "name": "A3",
            "ticks": 10368,
            "time": 19.756089,
            "velocity": 0.3937007874015748
          },
          {
            "duration": 0.18292675000000003,
            "durationTicks": 96,
            "midi": 58,
            "name": "A#3",
            "ticks": 10464,
            "time": 19.93901575,
            "velocity": 0.3937007874015748
          },
          {
            "duration": 0.18292675000000003,
            "durationTicks": 96,
            "midi": 65,
            "name": "F4",
            "ticks": 10560,
            "time": 20.1219425,
            "velocity": 0.3937007874015748
          },
          {
            "duration": 0.18292675000000003,
            "durationTicks": 96,
            "midi": 58,
            "name": "A#3",
            "ticks": 10656,
            "time": 20.30486925,
            "velocity": 0.3937007874015748
          },
          {
            "duration": 0.18292675000000003,
            "durationTicks": 96,
            "midi": 56,
            "name": "G#3",
            "ticks": 10752,
            "time": 20.487796,
            "velocity": 0.3937007874015748
          },
          {
            "duration": 0.18292675000000003,
            "durationTicks": 96,
            "midi": 57,
            "name": "A3",
            "ticks": 10848,
            "time": 20.67072275,
            "velocity": 0.3937007874015748
          },
          {
            "duration": 0.18292675000000003,
            "durationTicks": 96,
            "midi": 64,
            "name": "E4",
            "ticks": 10944,
            "time": 20.8536495,
            "velocity": 0.3937007874015748
          },
          {
            "duration": 0.18292675000000003,
            "durationTicks": 96,
            "midi": 57,
            "name": "A3",
            "ticks": 11040,
            "time": 21.03657625,
            "velocity": 0.3937007874015748
          },
          {
            "duration": 0.18292675000000003,
            "durationTicks": 96,
            "midi": 56,
            "name": "G#3",
            "ticks": 11136,
            "time": 21.219503,
            "velocity": 0.3937007874015748
          },
          {
            "duration": 0.18292675000000003,
            "durationTicks": 96,
            "midi": 57,
            "name": "A3",
            "ticks": 11232,
            "time": 21.40242975,
            "velocity": 0.3937007874015748
          },
          {
            "duration": 0.18292675000000003,
            "durationTicks": 96,
            "midi": 64,
            "name": "E4",
            "ticks": 11328,
            "time": 21.5853565,
            "velocity": 0.3937007874015748
          },
          {
            "duration": 0.18292675000000003,
            "durationTicks": 96,
            "midi": 57,
            "name": "A3",
            "ticks": 11424,
            "time": 21.76828325,
            "velocity": 0.3937007874015748
          },
          {
            "duration": 0.18292675000000003,
            "durationTicks": 96,
            "midi": 56,
            "name": "G#3",
            "ticks": 11520,
            "time": 21.95121,
            "velocity": 0.3937007874015748
          },
          {
            "duration": 0.18292675000000003,
            "durationTicks": 96,
            "midi": 57,
            "name": "A3",
            "ticks": 11616,
            "time": 22.13413675,
            "velocity": 0.3937007874015748
          },
          {
            "duration": 0.18292675000000003,
            "durationTicks": 96,
            "midi": 64,
            "name": "E4",
            "ticks": 11712,
            "time": 22.3170635,
            "velocity": 0.3937007874015748
          },
          {
            "duration": 0.18292675000000003,
            "durationTicks": 96,
            "midi": 57,
            "name": "A3",
            "ticks": 11808,
            "time": 22.49999025,
            "velocity": 0.3937007874015748
          },
          {
            "duration": 0.18292675000000003,
            "durationTicks": 96,
            "midi": 56,
            "name": "G#3",
            "ticks": 11904,
            "time": 22.682917,
            "velocity": 0.3937007874015748
          },
          {
            "duration": 0.18292675000000003,
            "durationTicks": 96,
            "midi": 57,
            "name": "A3",
            "ticks": 12000,
            "time": 22.86584375,
            "velocity": 0.3937007874015748
          },
          {
            "duration": 0.18292675000000003,
            "durationTicks": 96,
            "midi": 64,
            "name": "E4",
            "ticks": 12096,
            "time": 23.0487705,
            "velocity": 0.3937007874015748
          },
          {
            "duration": 0.18292675000000003,
            "durationTicks": 96,
            "midi": 57,
            "name": "A3",
            "ticks": 12192,
            "time": 23.23169725,
            "velocity": 0.3937007874015748
          },
          {
            "duration": 0.18292675000000003,
            "durationTicks": 96,
            "midi": 57,
            "name": "A3",
            "ticks": 12288,
            "time": 23.414624,
            "velocity": 0.3937007874015748
          },
          {
            "duration": 0.18292675000000003,
            "durationTicks": 96,
            "midi": 58,
            "name": "A#3",
            "ticks": 12384,
            "time": 23.59755075,
            "velocity": 0.3937007874015748
          },
          {
            "duration": 0.18292675000000003,
            "durationTicks": 96,
            "midi": 65,
            "name": "F4",
            "ticks": 12480,
            "time": 23.7804775,
            "velocity": 0.3937007874015748
          },
          {
            "duration": 0.18292675000000003,
            "durationTicks": 96,
            "midi": 58,
            "name": "A#3",
            "ticks": 12576,
            "time": 23.96340425,
            "velocity": 0.3937007874015748
          },
          {
            "duration": 0.18292675000000003,
            "durationTicks": 96,
            "midi": 57,
            "name": "A3",
            "ticks": 12672,
            "time": 24.146331,
            "velocity": 0.3937007874015748
          },
          {
            "duration": 0.18292675000000003,
            "durationTicks": 96,
            "midi": 58,
            "name": "A#3",
            "ticks": 12768,
            "time": 24.32925775,
            "velocity": 0.3937007874015748
          },
          {
            "duration": 0.18292675000000003,
            "durationTicks": 96,
            "midi": 65,
            "name": "F4",
            "ticks": 12864,
            "time": 24.5121845,
            "velocity": 0.3937007874015748
          },
          {
            "duration": 0.18292675000000003,
            "durationTicks": 96,
            "midi": 58,
            "name": "A#3",
            "ticks": 12960,
            "time": 24.69511125,
            "velocity": 0.3937007874015748
          },
          {
            "duration": 0.18292675000000003,
            "durationTicks": 96,
            "midi": 57,
            "name": "A3",
            "ticks": 13056,
            "time": 24.878038,
            "velocity": 0.3937007874015748
          },
          {
            "duration": 0.18292675000000003,
            "durationTicks": 96,
            "midi": 58,
            "name": "A#3",
            "ticks": 13152,
            "time": 25.06096475,
            "velocity": 0.3937007874015748
          },
          {
            "duration": 0.18292675000000003,
            "durationTicks": 96,
            "midi": 65,
            "name": "F4",
            "ticks": 13248,
            "time": 25.2438915,
            "velocity": 0.3937007874015748
          },
          {
            "duration": 0.18292675000000003,
            "durationTicks": 96,
            "midi": 58,
            "name": "A#3",
            "ticks": 13344,
            "time": 25.42681825,
            "velocity": 0.3937007874015748
          },
          {
            "duration": 0.18292675000000003,
            "durationTicks": 96,
            "midi": 57,
            "name": "A3",
            "ticks": 13440,
            "time": 25.609745,
            "velocity": 0.3937007874015748
          },
          {
            "duration": 0.18292675000000003,
            "durationTicks": 96,
            "midi": 58,
            "name": "A#3",
            "ticks": 13536,
            "time": 25.79267175,
            "velocity": 0.3937007874015748
          },
          {
            "duration": 0.18292675000000003,
            "durationTicks": 96,
            "midi": 65,
            "name": "F4",
            "ticks": 13632,
            "time": 25.9755985,
            "velocity": 0.3937007874015748
          },
          {
            "duration": 0.18292675000000003,
            "durationTicks": 96,
            "midi": 58,
            "name": "A#3",
            "ticks": 13728,
            "time": 26.15852525,
            "velocity": 0.3937007874015748
          },
          {
            "duration": 0.18292675000000003,
            "durationTicks": 96,
            "midi": 56,
            "name": "G#3",
            "ticks": 13824,
            "time": 26.341452,
            "velocity": 0.3937007874015748
          },
          {
            "duration": 0.18292675000000003,
            "durationTicks": 96,
            "midi": 57,
            "name": "A3",
            "ticks": 13920,
            "time": 26.52437875,
            "velocity": 0.3937007874015748
          },
          {
            "duration": 0.18292675000000003,
            "durationTicks": 96,
            "midi": 64,
            "name": "E4",
            "ticks": 14016,
            "time": 26.7073055,
            "velocity": 0.3937007874015748
          },
          {
            "duration": 0.18292675000000003,
            "durationTicks": 96,
            "midi": 57,
            "name": "A3",
            "ticks": 14112,
            "time": 26.89023225,
            "velocity": 0.3937007874015748
          },
          {
            "duration": 0.18292675000000003,
            "durationTicks": 96,
            "midi": 56,
            "name": "G#3",
            "ticks": 14208,
            "time": 27.073159,
            "velocity": 0.3937007874015748
          },
          {
            "duration": 0.18292675000000003,
            "durationTicks": 96,
            "midi": 57,
            "name": "A3",
            "ticks": 14304,
            "time": 27.25608575,
            "velocity": 0.3937007874015748
          },
          {
            "duration": 0.18292675000000003,
            "durationTicks": 96,
            "midi": 64,
            "name": "E4",
            "ticks": 14400,
            "time": 27.4390125,
            "velocity": 0.3937007874015748
          },
          {
            "duration": 0.18292675000000003,
            "durationTicks": 96,
            "midi": 57,
            "name": "A3",
            "ticks": 14496,
            "time": 27.62193925,
            "velocity": 0.3937007874015748
          },
          {
            "duration": 0.18292675000000003,
            "durationTicks": 96,
            "midi": 56,
            "name": "G#3",
            "ticks": 14592,
            "time": 27.804866,
            "velocity": 0.3937007874015748
          },
          {
            "duration": 0.18292675000000003,
            "durationTicks": 96,
            "midi": 57,
            "name": "A3",
            "ticks": 14688,
            "time": 27.98779275,
            "velocity": 0.3937007874015748
          },
          {
            "duration": 0.18292675000000003,
            "durationTicks": 96,
            "midi": 64,
            "name": "E4",
            "ticks": 14784,
            "time": 28.1707195,
            "velocity": 0.3937007874015748
          },
          {
            "duration": 0.18292675000000003,
            "durationTicks": 96,
            "midi": 57,
            "name": "A3",
            "ticks": 14880,
            "time": 28.35364625,
            "velocity": 0.3937007874015748
          },
          {
            "duration": 0.18292675000000003,
            "durationTicks": 96,
            "midi": 56,
            "name": "G#3",
            "ticks": 14976,
            "time": 28.536573,
            "velocity": 0.3937007874015748
          },
          {
            "duration": 0.18292675000000003,
            "durationTicks": 96,
            "midi": 57,
            "name": "A3",
            "ticks": 15072,
            "time": 28.71949975,
            "velocity": 0.3937007874015748
          },
          {
            "duration": 0.18292675000000003,
            "durationTicks": 96,
            "midi": 64,
            "name": "E4",
            "ticks": 15168,
            "time": 28.9024265,
            "velocity": 0.3937007874015748
          },
          {
            "duration": 0.18292675000000003,
            "durationTicks": 96,
            "midi": 57,
            "name": "A3",
            "ticks": 15264,
            "time": 29.08535325,
            "velocity": 0.3937007874015748
          },
          {
            "duration": 0.18292675000000003,
            "durationTicks": 96,
            "midi": 57,
            "name": "A3",
            "ticks": 15360,
            "time": 29.26828,
            "velocity": 0.3937007874015748
          },
          {
            "duration": 0.18292675000000003,
            "durationTicks": 96,
            "midi": 58,
            "name": "A#3",
            "ticks": 15456,
            "time": 29.45120675,
            "velocity": 0.3937007874015748
          },
          {
            "duration": 0.18292675000000003,
            "durationTicks": 96,
            "midi": 65,
            "name": "F4",
            "ticks": 15552,
            "time": 29.6341335,
            "velocity": 0.3937007874015748
          },
          {
            "duration": 0.18292675000000003,
            "durationTicks": 96,
            "midi": 58,
            "name": "A#3",
            "ticks": 15648,
            "time": 29.81706025,
            "velocity": 0.3937007874015748
          },
          {
            "duration": 0.18292675000000003,
            "durationTicks": 96,
            "midi": 57,
            "name": "A3",
            "ticks": 15744,
            "time": 29.999987,
            "velocity": 0.3937007874015748
          },
          {
            "duration": 0.18292675000000003,
            "durationTicks": 96,
            "midi": 58,
            "name": "A#3",
            "ticks": 15840,
            "time": 30.18291375,
            "velocity": 0.3937007874015748
          },
          {
            "duration": 0.18292675000000003,
            "durationTicks": 96,
            "midi": 65,
            "name": "F4",
            "ticks": 15936,
            "time": 30.3658405,
            "velocity": 0.3937007874015748
          },
          {
            "duration": 0.18292675000000003,
            "durationTicks": 96,
            "midi": 58,
            "name": "A#3",
            "ticks": 16032,
            "time": 30.54876725,
            "velocity": 0.3937007874015748
          },
          {
            "duration": 0.18292675000000003,
            "durationTicks": 96,
            "midi": 57,
            "name": "A3",
            "ticks": 16128,
            "time": 30.731694,
            "velocity": 0.3937007874015748
          },
          {
            "duration": 0.18292675000000003,
            "durationTicks": 96,
            "midi": 58,
            "name": "A#3",
            "ticks": 16224,
            "time": 30.91462075,
            "velocity": 0.3937007874015748
          },
          {
            "duration": 0.18292675000000003,
            "durationTicks": 96,
            "midi": 65,
            "name": "F4",
            "ticks": 16320,
            "time": 31.0975475,
            "velocity": 0.3937007874015748
          },
          {
            "duration": 0.18292675000000003,
            "durationTicks": 96,
            "midi": 58,
            "name": "A#3",
            "ticks": 16416,
            "time": 31.28047425,
            "velocity": 0.3937007874015748
          },
          {
            "duration": 0.18292675000000003,
            "durationTicks": 96,
            "midi": 57,
            "name": "A3",
            "ticks": 16512,
            "time": 31.463401,
            "velocity": 0.3937007874015748
          },
          {
            "duration": 0.18292675000000003,
            "durationTicks": 96,
            "midi": 58,
            "name": "A#3",
            "ticks": 16608,
            "time": 31.64632775,
            "velocity": 0.3937007874015748
          },
          {
            "duration": 0.18292674999999647,
            "durationTicks": 96,
            "midi": 65,
            "name": "F4",
            "ticks": 16704,
            "time": 31.8292545,
            "velocity": 0.3937007874015748
          },
          {
            "duration": 0.18292675000000003,
            "durationTicks": 96,
            "midi": 58,
            "name": "A#3",
            "ticks": 16800,
            "time": 32.01218125,
            "velocity": 0.3937007874015748
          },
          {
            "duration": 0.18292675000000003,
            "durationTicks": 96,
            "midi": 56,
            "name": "G#3",
            "ticks": 16896,
            "time": 32.195108,
            "velocity": 0.3937007874015748
          },
          {
            "duration": 0.18292675000000003,
            "durationTicks": 96,
            "midi": 57,
            "name": "A3",
            "ticks": 16992,
            "time": 32.37803475,
            "velocity": 0.3937007874015748
          },
          {
            "duration": 0.18292675000000003,
            "durationTicks": 96,
            "midi": 64,
            "name": "E4",
            "ticks": 17088,
            "time": 32.5609615,
            "velocity": 0.3937007874015748
          },
          {
            "duration": 0.18292675000000003,
            "durationTicks": 96,
            "midi": 57,
            "name": "A3",
            "ticks": 17184,
            "time": 32.74388825,
            "velocity": 0.3937007874015748
          },
          {
            "duration": 0.18292675000000003,
            "durationTicks": 96,
            "midi": 56,
            "name": "G#3",
            "ticks": 17280,
            "time": 32.926815,
            "velocity": 0.3937007874015748
          },
          {
            "duration": 0.18292675000000003,
            "durationTicks": 96,
            "midi": 57,
            "name": "A3",
            "ticks": 17376,
            "time": 33.10974175,
            "velocity": 0.3937007874015748
          },
          {
            "duration": 0.18292675000000003,
            "durationTicks": 96,
            "midi": 64,
            "name": "E4",
            "ticks": 17472,
            "time": 33.2926685,
            "velocity": 0.3937007874015748
          },
          {
            "duration": 0.18292675000000003,
            "durationTicks": 96,
            "midi": 57,
            "name": "A3",
            "ticks": 17568,
            "time": 33.47559525,
            "velocity": 0.3937007874015748
          },
          {
            "duration": 0.18292675000000003,
            "durationTicks": 96,
            "midi": 56,
            "name": "G#3",
            "ticks": 17664,
            "time": 33.658522,
            "velocity": 0.3937007874015748
          },
          {
            "duration": 0.18292675000000003,
            "durationTicks": 96,
            "midi": 57,
            "name": "A3",
            "ticks": 17760,
            "time": 33.84144875,
            "velocity": 0.3937007874015748
          },
          {
            "duration": 0.18292675000000003,
            "durationTicks": 96,
            "midi": 64,
            "name": "E4",
            "ticks": 17856,
            "time": 34.0243755,
            "velocity": 0.3937007874015748
          },
          {
            "duration": 0.18292675000000003,
            "durationTicks": 96,
            "midi": 57,
            "name": "A3",
            "ticks": 17952,
            "time": 34.20730225,
            "velocity": 0.3937007874015748
          },
          {
            "duration": 0.18292675000000003,
            "durationTicks": 96,
            "midi": 56,
            "name": "G#3",
            "ticks": 18048,
            "time": 34.390229,
            "velocity": 0.3937007874015748
          },
          {
            "duration": 0.18292675000000003,
            "durationTicks": 96,
            "midi": 57,
            "name": "A3",
            "ticks": 18144,
            "time": 34.57315575,
            "velocity": 0.3937007874015748
          },
          {
            "duration": 0.18292675000000003,
            "durationTicks": 96,
            "midi": 64,
            "name": "E4",
            "ticks": 18240,
            "time": 34.7560825,
            "velocity": 0.3937007874015748
          },
          {
            "duration": 0.18292675000000003,
            "durationTicks": 96,
            "midi": 57,
            "name": "A3",
            "ticks": 18336,
            "time": 34.93900925,
            "velocity": 0.3937007874015748
          },
          {
            "duration": 0.18292675000000003,
            "durationTicks": 96,
            "midi": 57,
            "name": "A3",
            "ticks": 18432,
            "time": 35.121936,
            "velocity": 0.3937007874015748
          },
          {
            "duration": 0.18292675000000003,
            "durationTicks": 96,
            "midi": 58,
            "name": "A#3",
            "ticks": 18528,
            "time": 35.30486275,
            "velocity": 0.3937007874015748
          },
          {
            "duration": 0.18292675000000003,
            "durationTicks": 96,
            "midi": 58,
            "name": "A#3",
            "ticks": 18720,
            "time": 35.67071625,
            "velocity": 0.3937007874015748
          },
          {
            "duration": 0.18292675000000003,
            "durationTicks": 96,
            "midi": 57,
            "name": "A3",
            "ticks": 18816,
            "time": 35.853643,
            "velocity": 0.3937007874015748
          },
          {
            "duration": 0.18292675000000003,
            "durationTicks": 96,
            "midi": 58,
            "name": "A#3",
            "ticks": 18912,
            "time": 36.03656975,
            "velocity": 0.3937007874015748
          },
          {
            "duration": 0.18292675000000003,
            "durationTicks": 96,
            "midi": 58,
            "name": "A#3",
            "ticks": 19104,
            "time": 36.40242325,
            "velocity": 0.3937007874015748
          },
          {
            "duration": 0.18292675000000003,
            "durationTicks": 96,
            "midi": 57,
            "name": "A3",
            "ticks": 19200,
            "time": 36.58535,
            "velocity": 0.3937007874015748
          },
          {
            "duration": 0.18292675000000003,
            "durationTicks": 96,
            "midi": 58,
            "name": "A#3",
            "ticks": 19296,
            "time": 36.76827675,
            "velocity": 0.3937007874015748
          },
          {
            "duration": 0.18292675000000003,
            "durationTicks": 96,
            "midi": 58,
            "name": "A#3",
            "ticks": 19488,
            "time": 37.13413025,
            "velocity": 0.3937007874015748
          },
          {
            "duration": 0.18292675000000003,
            "durationTicks": 96,
            "midi": 57,
            "name": "A3",
            "ticks": 19584,
            "time": 37.317057,
            "velocity": 0.3937007874015748
          },
          {
            "duration": 0.18292675000000003,
            "durationTicks": 96,
            "midi": 58,
            "name": "A#3",
            "ticks": 19680,
            "time": 37.49998375,
            "velocity": 0.3937007874015748
          },
          {
            "duration": 0.18292675000000003,
            "durationTicks": 96,
            "midi": 58,
            "name": "A#3",
            "ticks": 19872,
            "time": 37.86583725,
            "velocity": 0.3937007874015748
          },
          {
            "duration": 0.18292675000000003,
            "durationTicks": 96,
            "midi": 56,
            "name": "G#3",
            "ticks": 19968,
            "time": 38.048764,
            "velocity": 0.3937007874015748
          },
          {
            "duration": 0.18292675000000003,
            "durationTicks": 96,
            "midi": 57,
            "name": "A3",
            "ticks": 20064,
            "time": 38.23169075,
            "velocity": 0.3937007874015748
          },
          {
            "duration": 0.18292675000000003,
            "durationTicks": 96,
            "midi": 57,
            "name": "A3",
            "ticks": 20256,
            "time": 38.59754425,
            "velocity": 0.3937007874015748
          },
          {
            "duration": 0.18292675000000003,
            "durationTicks": 96,
            "midi": 56,
            "name": "G#3",
            "ticks": 20352,
            "time": 38.780471,
            "velocity": 0.3937007874015748
          },
          {
            "duration": 0.18292675000000003,
            "durationTicks": 96,
            "midi": 57,
            "name": "A3",
            "ticks": 20448,
            "time": 38.96339775,
            "velocity": 0.3937007874015748
          },
          {
            "duration": 0.18292675000000003,
            "durationTicks": 96,
            "midi": 57,
            "name": "A3",
            "ticks": 20640,
            "time": 39.32925125,
            "velocity": 0.3937007874015748
          },
          {
            "duration": 0.18292675000000003,
            "durationTicks": 96,
            "midi": 56,
            "name": "G#3",
            "ticks": 20736,
            "time": 39.512178,
            "velocity": 0.3937007874015748
          },
          {
            "duration": 0.18292675000000003,
            "durationTicks": 96,
            "midi": 57,
            "name": "A3",
            "ticks": 20832,
            "time": 39.69510475,
            "velocity": 0.3937007874015748
          },
          {
            "duration": 0.18292675000000003,
            "durationTicks": 96,
            "midi": 57,
            "name": "A3",
            "ticks": 21024,
            "time": 40.06095825,
            "velocity": 0.3937007874015748
          },
          {
            "duration": 0.18292675000000003,
            "durationTicks": 96,
            "midi": 56,
            "name": "G#3",
            "ticks": 21120,
            "time": 40.243885,
            "velocity": 0.3937007874015748
          },
          {
            "duration": 0.18292675000000003,
            "durationTicks": 96,
            "midi": 57,
            "name": "A3",
            "ticks": 21216,
            "time": 40.42681175,
            "velocity": 0.3937007874015748
          },
          {
            "duration": 0.18292675000000003,
            "durationTicks": 96,
            "midi": 57,
            "name": "A3",
            "ticks": 21408,
            "time": 40.79266525,
            "velocity": 0.3937007874015748
          }
        ],
        "endOfTrackTicks": 21504
      },
      {
        "channel": 5,
        "controlChanges": {},
        "pitchBends": [],
        "instrument": {
          "family": "synth lead",
          "number": 81,
          "name": "lead 2 (sawtooth)"
        },
        "name": "8-Bit Sawtooth",
        "notes": [
          {
            "duration": 0.18292675000000003,
            "durationTicks": 96,
            "midi": 47,
            "name": "B2",
            "ticks": 3072,
            "time": 5.853656,
            "velocity": 0.3937007874015748
          },
          {
            "duration": 0.18292675000000003,
            "durationTicks": 96,
            "midi": 53,
            "name": "F3",
            "ticks": 3168,
            "time": 6.03658275,
            "velocity": 0.3937007874015748
          },
          {
            "duration": 0.18292675000000003,
            "durationTicks": 96,
            "midi": 52,
            "name": "E3",
            "ticks": 3264,
            "time": 6.2195095,
            "velocity": 0.3937007874015748
          },
          {
            "duration": 0.18292675000000003,
            "durationTicks": 96,
            "midi": 50,
            "name": "D3",
            "ticks": 3360,
            "time": 6.40243625,
            "velocity": 0.3937007874015748
          },
          {
            "duration": 0.18292675000000003,
            "durationTicks": 96,
            "midi": 47,
            "name": "B2",
            "ticks": 3456,
            "time": 6.585363,
            "velocity": 0.3937007874015748
          },
          {
            "duration": 0.18292675000000003,
            "durationTicks": 96,
            "midi": 53,
            "name": "F3",
            "ticks": 3552,
            "time": 6.76828975,
            "velocity": 0.3937007874015748
          },
          {
            "duration": 0.18292675000000003,
            "durationTicks": 96,
            "midi": 52,
            "name": "E3",
            "ticks": 3648,
            "time": 6.9512165,
            "velocity": 0.3937007874015748
          },
          {
            "duration": 0.18292675000000003,
            "durationTicks": 96,
            "midi": 50,
            "name": "D3",
            "ticks": 3744,
            "time": 7.13414325,
            "velocity": 0.3937007874015748
          },
          {
            "duration": 0.18292675000000003,
            "durationTicks": 96,
            "midi": 47,
            "name": "B2",
            "ticks": 3840,
            "time": 7.31707,
            "velocity": 0.3937007874015748
          },
          {
            "duration": 0.18292675000000003,
            "durationTicks": 96,
            "midi": 53,
            "name": "F3",
            "ticks": 3936,
            "time": 7.49999675,
            "velocity": 0.3937007874015748
          },
          {
            "duration": 0.18292675000000003,
            "durationTicks": 96,
            "midi": 52,
            "name": "E3",
            "ticks": 4032,
            "time": 7.6829235,
            "velocity": 0.3937007874015748
          },
          {
            "duration": 0.18292674999999914,
            "durationTicks": 96,
            "midi": 50,
            "name": "D3",
            "ticks": 4128,
            "time": 7.86585025,
            "velocity": 0.3937007874015748
          },
          {
            "duration": 0.18292675000000003,
            "durationTicks": 96,
            "midi": 47,
            "name": "B2",
            "ticks": 4224,
            "time": 8.048777,
            "velocity": 0.3937007874015748
          },
          {
            "duration": 0.18292675000000003,
            "durationTicks": 96,
            "midi": 53,
            "name": "F3",
            "ticks": 4320,
            "time": 8.23170375,
            "velocity": 0.3937007874015748
          },
          {
            "duration": 0.18292675000000003,
            "durationTicks": 96,
            "midi": 52,
            "name": "E3",
            "ticks": 4416,
            "time": 8.4146305,
            "velocity": 0.3937007874015748
          },
          {
            "duration": 0.18292675000000003,
            "durationTicks": 96,
            "midi": 50,
            "name": "D3",
            "ticks": 4512,
            "time": 8.59755725,
            "velocity": 0.3937007874015748
          },
          {
            "duration": 0.18292675000000003,
            "durationTicks": 96,
            "midi": 46,
            "name": "A#2",
            "ticks": 4608,
            "time": 8.780484,
            "velocity": 0.3937007874015748
          },
          {
            "duration": 0.18292675000000003,
            "durationTicks": 96,
            "midi": 52,
            "name": "E3",
            "ticks": 4704,
            "time": 8.96341075,
            "velocity": 0.3937007874015748
          },
          {
            "duration": 0.18292675000000003,
            "durationTicks": 96,
            "midi": 51,
            "name": "D#3",
            "ticks": 4800,
            "time": 9.1463375,
            "velocity": 0.3937007874015748
          },
          {
            "duration": 0.18292675000000003,
            "durationTicks": 96,
            "midi": 49,
            "name": "C#3",
            "ticks": 4896,
            "time": 9.32926425,
            "velocity": 0.3937007874015748
          },
          {
            "duration": 0.18292675000000003,
            "durationTicks": 96,
            "midi": 46,
            "name": "A#2",
            "ticks": 4992,
            "time": 9.512191,
            "velocity": 0.3937007874015748
          },
          {
            "duration": 0.18292675000000003,
            "durationTicks": 96,
            "midi": 52,
            "name": "E3",
            "ticks": 5088,
            "time": 9.69511775,
            "velocity": 0.3937007874015748
          },
          {
            "duration": 0.18292675000000003,
            "durationTicks": 96,
            "midi": 51,
            "name": "D#3",
            "ticks": 5184,
            "time": 9.8780445,
            "velocity": 0.3937007874015748
          },
          {
            "duration": 0.18292675000000003,
            "durationTicks": 96,
            "midi": 49,
            "name": "C#3",
            "ticks": 5280,
            "time": 10.06097125,
            "velocity": 0.3937007874015748
          },
          {
            "duration": 0.18292675000000003,
            "durationTicks": 96,
            "midi": 46,
            "name": "A#2",
            "ticks": 5376,
            "time": 10.243898,
            "velocity": 0.3937007874015748
          },
          {
            "duration": 0.18292675000000003,
            "durationTicks": 96,
            "midi": 52,
            "name": "E3",
            "ticks": 5472,
            "time": 10.42682475,
            "velocity": 0.3937007874015748
          },
          {
            "duration": 0.18292675000000003,
            "durationTicks": 96,
            "midi": 51,
            "name": "D#3",
            "ticks": 5568,
            "time": 10.6097515,
            "velocity": 0.3937007874015748
          },
          {
            "duration": 0.18292675000000003,
            "durationTicks": 96,
            "midi": 49,
            "name": "C#3",
            "ticks": 5664,
            "time": 10.79267825,
            "velocity": 0.3937007874015748
          },
          {
            "duration": 0.18292675000000003,
            "durationTicks": 96,
            "midi": 46,
            "name": "A#2",
            "ticks": 5760,
            "time": 10.975605,
            "velocity": 0.3937007874015748
          },
          {
            "duration": 0.18292675000000003,
            "durationTicks": 96,
            "midi": 52,
            "name": "E3",
            "ticks": 5856,
            "time": 11.15853175,
            "velocity": 0.3937007874015748
          },
          {
            "duration": 0.18292675000000003,
            "durationTicks": 96,
            "midi": 51,
            "name": "D#3",
            "ticks": 5952,
            "time": 11.3414585,
            "velocity": 0.3937007874015748
          },
          {
            "duration": 0.18292675000000003,
            "durationTicks": 96,
            "midi": 49,
            "name": "C#3",
            "ticks": 6048,
            "time": 11.52438525,
            "velocity": 0.3937007874015748
          },
          {
            "duration": 0.18292675000000003,
            "durationTicks": 96,
            "midi": 47,
            "name": "B2",
            "ticks": 6144,
            "time": 11.707312,
            "velocity": 0.3937007874015748
          },
          {
            "duration": 0.18292675000000003,
            "durationTicks": 96,
            "midi": 53,
            "name": "F3",
            "ticks": 6240,
            "time": 11.89023875,
            "velocity": 0.3937007874015748
          },
          {
            "duration": 0.18292675000000003,
            "durationTicks": 96,
            "midi": 52,
            "name": "E3",
            "ticks": 6336,
            "time": 12.0731655,
            "velocity": 0.3937007874015748
          },
          {
            "duration": 0.18292675000000003,
            "durationTicks": 96,
            "midi": 50,
            "name": "D3",
            "ticks": 6432,
            "time": 12.25609225,
            "velocity": 0.3937007874015748
          },
          {
            "duration": 0.18292675000000003,
            "durationTicks": 96,
            "midi": 47,
            "name": "B2",
            "ticks": 6528,
            "time": 12.439019,
            "velocity": 0.3937007874015748
          },
          {
            "duration": 0.18292675000000003,
            "durationTicks": 96,
            "midi": 53,
            "name": "F3",
            "ticks": 6624,
            "time": 12.62194575,
            "velocity": 0.3937007874015748
          },
          {
            "duration": 0.18292675000000003,
            "durationTicks": 96,
            "midi": 52,
            "name": "E3",
            "ticks": 6720,
            "time": 12.8048725,
            "velocity": 0.3937007874015748
          },
          {
            "duration": 0.18292675000000003,
            "durationTicks": 96,
            "midi": 50,
            "name": "D3",
            "ticks": 6816,
            "time": 12.98779925,
            "velocity": 0.3937007874015748
          },
          {
            "duration": 0.18292675000000003,
            "durationTicks": 96,
            "midi": 47,
            "name": "B2",
            "ticks": 6912,
            "time": 13.170726,
            "velocity": 0.3937007874015748
          },
          {
            "duration": 0.18292675000000003,
            "durationTicks": 96,
            "midi": 53,
            "name": "F3",
            "ticks": 7008,
            "time": 13.35365275,
            "velocity": 0.3937007874015748
          },
          {
            "duration": 0.18292675000000003,
            "durationTicks": 96,
            "midi": 52,
            "name": "E3",
            "ticks": 7104,
            "time": 13.5365795,
            "velocity": 0.3937007874015748
          },
          {
            "duration": 0.18292675000000003,
            "durationTicks": 96,
            "midi": 50,
            "name": "D3",
            "ticks": 7200,
            "time": 13.71950625,
            "velocity": 0.3937007874015748
          },
          {
            "duration": 0.18292675000000003,
            "durationTicks": 96,
            "midi": 47,
            "name": "B2",
            "ticks": 7296,
            "time": 13.902433,
            "velocity": 0.3937007874015748
          },
          {
            "duration": 0.18292675000000003,
            "durationTicks": 96,
            "midi": 53,
            "name": "F3",
            "ticks": 7392,
            "time": 14.08535975,
            "velocity": 0.3937007874015748
          },
          {
            "duration": 0.18292675000000003,
            "durationTicks": 96,
            "midi": 52,
            "name": "E3",
            "ticks": 7488,
            "time": 14.2682865,
            "velocity": 0.3937007874015748
          },
          {
            "duration": 0.18292675000000003,
            "durationTicks": 96,
            "midi": 50,
            "name": "D3",
            "ticks": 7584,
            "time": 14.45121325,
            "velocity": 0.3937007874015748
          },
          {
            "duration": 0.18292675000000003,
            "durationTicks": 96,
            "midi": 46,
            "name": "A#2",
            "ticks": 7680,
            "time": 14.63414,
            "velocity": 0.3937007874015748
          },
          {
            "duration": 0.18292675000000003,
            "durationTicks": 96,
            "midi": 52,
            "name": "E3",
            "ticks": 7776,
            "time": 14.81706675,
            "velocity": 0.3937007874015748
          },
          {
            "duration": 0.18292675000000003,
            "durationTicks": 96,
            "midi": 51,
            "name": "D#3",
            "ticks": 7872,
            "time": 14.9999935,
            "velocity": 0.3937007874015748
          },
          {
            "duration": 0.18292675000000003,
            "durationTicks": 96,
            "midi": 49,
            "name": "C#3",
            "ticks": 7968,
            "time": 15.18292025,
            "velocity": 0.3937007874015748
          },
          {
            "duration": 0.18292675000000003,
            "durationTicks": 96,
            "midi": 46,
            "name": "A#2",
            "ticks": 8064,
            "time": 15.365847,
            "velocity": 0.3937007874015748
          },
          {
            "duration": 0.18292675000000003,
            "durationTicks": 96,
            "midi": 52,
            "name": "E3",
            "ticks": 8160,
            "time": 15.54877375,
            "velocity": 0.3937007874015748
          },
          {
            "duration": 0.18292675000000003,
            "durationTicks": 96,
            "midi": 51,
            "name": "D#3",
            "ticks": 8256,
            "time": 15.7317005,
            "velocity": 0.3937007874015748
          },
          {
            "duration": 0.18292674999999825,
            "durationTicks": 96,
            "midi": 49,
            "name": "C#3",
            "ticks": 8352,
            "time": 15.91462725,
            "velocity": 0.3937007874015748
          },
          {
            "duration": 0.18292675000000003,
            "durationTicks": 96,
            "midi": 46,
            "name": "A#2",
            "ticks": 8448,
            "time": 16.097554,
            "velocity": 0.3937007874015748
          },
          {
            "duration": 0.18292675000000003,
            "durationTicks": 96,
            "midi": 52,
            "name": "E3",
            "ticks": 8544,
            "time": 16.28048075,
            "velocity": 0.3937007874015748
          },
          {
            "duration": 0.18292675000000003,
            "durationTicks": 96,
            "midi": 51,
            "name": "D#3",
            "ticks": 8640,
            "time": 16.4634075,
            "velocity": 0.3937007874015748
          },
          {
            "duration": 0.18292675000000003,
            "durationTicks": 96,
            "midi": 49,
            "name": "C#3",
            "ticks": 8736,
            "time": 16.64633425,
            "velocity": 0.3937007874015748
          },
          {
            "duration": 0.18292675000000003,
            "durationTicks": 96,
            "midi": 46,
            "name": "A#2",
            "ticks": 8832,
            "time": 16.829261,
            "velocity": 0.3937007874015748
          },
          {
            "duration": 0.18292675000000003,
            "durationTicks": 96,
            "midi": 52,
            "name": "E3",
            "ticks": 8928,
            "time": 17.01218775,
            "velocity": 0.3937007874015748
          },
          {
            "duration": 0.18292675000000003,
            "durationTicks": 96,
            "midi": 51,
            "name": "D#3",
            "ticks": 9024,
            "time": 17.1951145,
            "velocity": 0.3937007874015748
          },
          {
            "duration": 0.18292675000000003,
            "durationTicks": 96,
            "midi": 49,
            "name": "C#3",
            "ticks": 9120,
            "time": 17.37804125,
            "velocity": 0.3937007874015748
          },
          {
            "duration": 0.18292675000000003,
            "durationTicks": 96,
            "midi": 47,
            "name": "B2",
            "ticks": 9216,
            "time": 17.560968,
            "velocity": 0.3937007874015748
          },
          {
            "duration": 0.18292675000000003,
            "durationTicks": 96,
            "midi": 53,
            "name": "F3",
            "ticks": 9312,
            "time": 17.74389475,
            "velocity": 0.3937007874015748
          },
          {
            "duration": 0.18292675000000003,
            "durationTicks": 96,
            "midi": 52,
            "name": "E3",
            "ticks": 9408,
            "time": 17.9268215,
            "velocity": 0.3937007874015748
          },
          {
            "duration": 0.18292675000000003,
            "durationTicks": 96,
            "midi": 50,
            "name": "D3",
            "ticks": 9504,
            "time": 18.10974825,
            "velocity": 0.3937007874015748
          },
          {
            "duration": 0.18292675000000003,
            "durationTicks": 96,
            "midi": 47,
            "name": "B2",
            "ticks": 9600,
            "time": 18.292675,
            "velocity": 0.3937007874015748
          },
          {
            "duration": 0.18292675000000003,
            "durationTicks": 96,
            "midi": 53,
            "name": "F3",
            "ticks": 9696,
            "time": 18.47560175,
            "velocity": 0.3937007874015748
          },
          {
            "duration": 0.18292675000000003,
            "durationTicks": 96,
            "midi": 52,
            "name": "E3",
            "ticks": 9792,
            "time": 18.6585285,
            "velocity": 0.3937007874015748
          },
          {
            "duration": 0.18292675000000003,
            "durationTicks": 96,
            "midi": 50,
            "name": "D3",
            "ticks": 9888,
            "time": 18.84145525,
            "velocity": 0.3937007874015748
          },
          {
            "duration": 0.18292675000000003,
            "durationTicks": 96,
            "midi": 47,
            "name": "B2",
            "ticks": 9984,
            "time": 19.024382,
            "velocity": 0.3937007874015748
          },
          {
            "duration": 0.18292675000000003,
            "durationTicks": 96,
            "midi": 53,
            "name": "F3",
            "ticks": 10080,
            "time": 19.20730875,
            "velocity": 0.3937007874015748
          },
          {
            "duration": 0.18292675000000003,
            "durationTicks": 96,
            "midi": 52,
            "name": "E3",
            "ticks": 10176,
            "time": 19.3902355,
            "velocity": 0.3937007874015748
          },
          {
            "duration": 0.18292675000000003,
            "durationTicks": 96,
            "midi": 50,
            "name": "D3",
            "ticks": 10272,
            "time": 19.57316225,
            "velocity": 0.3937007874015748
          },
          {
            "duration": 0.18292675000000003,
            "durationTicks": 96,
            "midi": 47,
            "name": "B2",
            "ticks": 10368,
            "time": 19.756089,
            "velocity": 0.3937007874015748
          },
          {
            "duration": 0.18292675000000003,
            "durationTicks": 96,
            "midi": 53,
            "name": "F3",
            "ticks": 10464,
            "time": 19.93901575,
            "velocity": 0.3937007874015748
          },
          {
            "duration": 0.18292675000000003,
            "durationTicks": 96,
            "midi": 52,
            "name": "E3",
            "ticks": 10560,
            "time": 20.1219425,
            "velocity": 0.3937007874015748
          },
          {
            "duration": 0.18292675000000003,
            "durationTicks": 96,
            "midi": 50,
            "name": "D3",
            "ticks": 10656,
            "time": 20.30486925,
            "velocity": 0.3937007874015748
          },
          {
            "duration": 0.18292675000000003,
            "durationTicks": 96,
            "midi": 46,
            "name": "A#2",
            "ticks": 10752,
            "time": 20.487796,
            "velocity": 0.3937007874015748
          },
          {
            "duration": 0.18292675000000003,
            "durationTicks": 96,
            "midi": 52,
            "name": "E3",
            "ticks": 10848,
            "time": 20.67072275,
            "velocity": 0.3937007874015748
          },
          {
            "duration": 0.18292675000000003,
            "durationTicks": 96,
            "midi": 51,
            "name": "D#3",
            "ticks": 10944,
            "time": 20.8536495,
            "velocity": 0.3937007874015748
          },
          {
            "duration": 0.18292675000000003,
            "durationTicks": 96,
            "midi": 49,
            "name": "C#3",
            "ticks": 11040,
            "time": 21.03657625,
            "velocity": 0.3937007874015748
          },
          {
            "duration": 0.18292675000000003,
            "durationTicks": 96,
            "midi": 46,
            "name": "A#2",
            "ticks": 11136,
            "time": 21.219503,
            "velocity": 0.3937007874015748
          },
          {
            "duration": 0.18292675000000003,
            "durationTicks": 96,
            "midi": 52,
            "name": "E3",
            "ticks": 11232,
            "time": 21.40242975,
            "velocity": 0.3937007874015748
          },
          {
            "duration": 0.18292675000000003,
            "durationTicks": 96,
            "midi": 51,
            "name": "D#3",
            "ticks": 11328,
            "time": 21.5853565,
            "velocity": 0.3937007874015748
          },
          {
            "duration": 0.18292675000000003,
            "durationTicks": 96,
            "midi": 49,
            "name": "C#3",
            "ticks": 11424,
            "time": 21.76828325,
            "velocity": 0.3937007874015748
          },
          {
            "duration": 0.18292675000000003,
            "durationTicks": 96,
            "midi": 46,
            "name": "A#2",
            "ticks": 11520,
            "time": 21.95121,
            "velocity": 0.3937007874015748
          },
          {
            "duration": 0.18292675000000003,
            "durationTicks": 96,
            "midi": 52,
            "name": "E3",
            "ticks": 11616,
            "time": 22.13413675,
            "velocity": 0.3937007874015748
          },
          {
            "duration": 0.18292675000000003,
            "durationTicks": 96,
            "midi": 51,
            "name": "D#3",
            "ticks": 11712,
            "time": 22.3170635,
            "velocity": 0.3937007874015748
          },
          {
            "duration": 0.18292675000000003,
            "durationTicks": 96,
            "midi": 49,
            "name": "C#3",
            "ticks": 11808,
            "time": 22.49999025,
            "velocity": 0.3937007874015748
          },
          {
            "duration": 0.18292675000000003,
            "durationTicks": 96,
            "midi": 46,
            "name": "A#2",
            "ticks": 11904,
            "time": 22.682917,
            "velocity": 0.3937007874015748
          },
          {
            "duration": 0.18292675000000003,
            "durationTicks": 96,
            "midi": 52,
            "name": "E3",
            "ticks": 12000,
            "time": 22.86584375,
            "velocity": 0.3937007874015748
          },
          {
            "duration": 0.18292675000000003,
            "durationTicks": 96,
            "midi": 51,
            "name": "D#3",
            "ticks": 12096,
            "time": 23.0487705,
            "velocity": 0.3937007874015748
          },
          {
            "duration": 0.18292675000000003,
            "durationTicks": 96,
            "midi": 49,
            "name": "C#3",
            "ticks": 12192,
            "time": 23.23169725,
            "velocity": 0.3937007874015748
          },
          {
            "duration": 0.18292675000000003,
            "durationTicks": 96,
            "midi": 47,
            "name": "B2",
            "ticks": 12288,
            "time": 23.414624,
            "velocity": 0.3937007874015748
          },
          {
            "duration": 0.18292675000000003,
            "durationTicks": 96,
            "midi": 53,
            "name": "F3",
            "ticks": 12384,
            "time": 23.59755075,
            "velocity": 0.3937007874015748
          },
          {
            "duration": 0.18292675000000003,
            "durationTicks": 96,
            "midi": 52,
            "name": "E3",
            "ticks": 12480,
            "time": 23.7804775,
            "velocity": 0.3937007874015748
          },
          {
            "duration": 0.18292675000000003,
            "durationTicks": 96,
            "midi": 50,
            "name": "D3",
            "ticks": 12576,
            "time": 23.96340425,
            "velocity": 0.3937007874015748
          },
          {
            "duration": 0.18292675000000003,
            "durationTicks": 96,
            "midi": 47,
            "name": "B2",
            "ticks": 12672,
            "time": 24.146331,
            "velocity": 0.3937007874015748
          },
          {
            "duration": 0.18292675000000003,
            "durationTicks": 96,
            "midi": 53,
            "name": "F3",
            "ticks": 12768,
            "time": 24.32925775,
            "velocity": 0.3937007874015748
          },
          {
            "duration": 0.18292675000000003,
            "durationTicks": 96,
            "midi": 52,
            "name": "E3",
            "ticks": 12864,
            "time": 24.5121845,
            "velocity": 0.3937007874015748
          },
          {
            "duration": 0.18292675000000003,
            "durationTicks": 96,
            "midi": 50,
            "name": "D3",
            "ticks": 12960,
            "time": 24.69511125,
            "velocity": 0.3937007874015748
          },
          {
            "duration": 0.18292675000000003,
            "durationTicks": 96,
            "midi": 47,
            "name": "B2",
            "ticks": 13056,
            "time": 24.878038,
            "velocity": 0.3937007874015748
          },
          {
            "duration": 0.18292675000000003,
            "durationTicks": 96,
            "midi": 53,
            "name": "F3",
            "ticks": 13152,
            "time": 25.06096475,
            "velocity": 0.3937007874015748
          },
          {
            "duration": 0.18292675000000003,
            "durationTicks": 96,
            "midi": 52,
            "name": "E3",
            "ticks": 13248,
            "time": 25.2438915,
            "velocity": 0.3937007874015748
          },
          {
            "duration": 0.18292675000000003,
            "durationTicks": 96,
            "midi": 50,
            "name": "D3",
            "ticks": 13344,
            "time": 25.42681825,
            "velocity": 0.3937007874015748
          },
          {
            "duration": 0.18292675000000003,
            "durationTicks": 96,
            "midi": 47,
            "name": "B2",
            "ticks": 13440,
            "time": 25.609745,
            "velocity": 0.3937007874015748
          },
          {
            "duration": 0.18292675000000003,
            "durationTicks": 96,
            "midi": 53,
            "name": "F3",
            "ticks": 13536,
            "time": 25.79267175,
            "velocity": 0.3937007874015748
          },
          {
            "duration": 0.18292675000000003,
            "durationTicks": 96,
            "midi": 52,
            "name": "E3",
            "ticks": 13632,
            "time": 25.9755985,
            "velocity": 0.3937007874015748
          },
          {
            "duration": 0.18292675000000003,
            "durationTicks": 96,
            "midi": 50,
            "name": "D3",
            "ticks": 13728,
            "time": 26.15852525,
            "velocity": 0.3937007874015748
          },
          {
            "duration": 0.18292675000000003,
            "durationTicks": 96,
            "midi": 46,
            "name": "A#2",
            "ticks": 13824,
            "time": 26.341452,
            "velocity": 0.3937007874015748
          },
          {
            "duration": 0.18292675000000003,
            "durationTicks": 96,
            "midi": 52,
            "name": "E3",
            "ticks": 13920,
            "time": 26.52437875,
            "velocity": 0.3937007874015748
          },
          {
            "duration": 0.18292675000000003,
            "durationTicks": 96,
            "midi": 51,
            "name": "D#3",
            "ticks": 14016,
            "time": 26.7073055,
            "velocity": 0.3937007874015748
          },
          {
            "duration": 0.18292675000000003,
            "durationTicks": 96,
            "midi": 49,
            "name": "C#3",
            "ticks": 14112,
            "time": 26.89023225,
            "velocity": 0.3937007874015748
          },
          {
            "duration": 0.18292675000000003,
            "durationTicks": 96,
            "midi": 46,
            "name": "A#2",
            "ticks": 14208,
            "time": 27.073159,
            "velocity": 0.3937007874015748
          },
          {
            "duration": 0.18292675000000003,
            "durationTicks": 96,
            "midi": 52,
            "name": "E3",
            "ticks": 14304,
            "time": 27.25608575,
            "velocity": 0.3937007874015748
          },
          {
            "duration": 0.18292675000000003,
            "durationTicks": 96,
            "midi": 51,
            "name": "D#3",
            "ticks": 14400,
            "time": 27.4390125,
            "velocity": 0.3937007874015748
          },
          {
            "duration": 0.18292675000000003,
            "durationTicks": 96,
            "midi": 49,
            "name": "C#3",
            "ticks": 14496,
            "time": 27.62193925,
            "velocity": 0.3937007874015748
          },
          {
            "duration": 0.18292675000000003,
            "durationTicks": 96,
            "midi": 46,
            "name": "A#2",
            "ticks": 14592,
            "time": 27.804866,
            "velocity": 0.3937007874015748
          },
          {
            "duration": 0.18292675000000003,
            "durationTicks": 96,
            "midi": 52,
            "name": "E3",
            "ticks": 14688,
            "time": 27.98779275,
            "velocity": 0.3937007874015748
          },
          {
            "duration": 0.18292675000000003,
            "durationTicks": 96,
            "midi": 51,
            "name": "D#3",
            "ticks": 14784,
            "time": 28.1707195,
            "velocity": 0.3937007874015748
          },
          {
            "duration": 0.18292675000000003,
            "durationTicks": 96,
            "midi": 49,
            "name": "C#3",
            "ticks": 14880,
            "time": 28.35364625,
            "velocity": 0.3937007874015748
          },
          {
            "duration": 0.18292675000000003,
            "durationTicks": 96,
            "midi": 46,
            "name": "A#2",
            "ticks": 14976,
            "time": 28.536573,
            "velocity": 0.3937007874015748
          },
          {
            "duration": 0.18292675000000003,
            "durationTicks": 96,
            "midi": 52,
            "name": "E3",
            "ticks": 15072,
            "time": 28.71949975,
            "velocity": 0.3937007874015748
          },
          {
            "duration": 0.18292675000000003,
            "durationTicks": 96,
            "midi": 51,
            "name": "D#3",
            "ticks": 15168,
            "time": 28.9024265,
            "velocity": 0.3937007874015748
          },
          {
            "duration": 0.18292675000000003,
            "durationTicks": 96,
            "midi": 49,
            "name": "C#3",
            "ticks": 15264,
            "time": 29.08535325,
            "velocity": 0.3937007874015748
          },
          {
            "duration": 0.18292675000000003,
            "durationTicks": 96,
            "midi": 47,
            "name": "B2",
            "ticks": 15360,
            "time": 29.26828,
            "velocity": 0.3937007874015748
          },
          {
            "duration": 0.18292675000000003,
            "durationTicks": 96,
            "midi": 53,
            "name": "F3",
            "ticks": 15456,
            "time": 29.45120675,
            "velocity": 0.3937007874015748
          },
          {
            "duration": 0.18292675000000003,
            "durationTicks": 96,
            "midi": 52,
            "name": "E3",
            "ticks": 15552,
            "time": 29.6341335,
            "velocity": 0.3937007874015748
          },
          {
            "duration": 0.18292675000000003,
            "durationTicks": 96,
            "midi": 50,
            "name": "D3",
            "ticks": 15648,
            "time": 29.81706025,
            "velocity": 0.3937007874015748
          },
          {
            "duration": 0.18292675000000003,
            "durationTicks": 96,
            "midi": 47,
            "name": "B2",
            "ticks": 15744,
            "time": 29.999987,
            "velocity": 0.3937007874015748
          },
          {
            "duration": 0.18292675000000003,
            "durationTicks": 96,
            "midi": 53,
            "name": "F3",
            "ticks": 15840,
            "time": 30.18291375,
            "velocity": 0.3937007874015748
          },
          {
            "duration": 0.18292675000000003,
            "durationTicks": 96,
            "midi": 52,
            "name": "E3",
            "ticks": 15936,
            "time": 30.3658405,
            "velocity": 0.3937007874015748
          },
          {
            "duration": 0.18292675000000003,
            "durationTicks": 96,
            "midi": 50,
            "name": "D3",
            "ticks": 16032,
            "time": 30.54876725,
            "velocity": 0.3937007874015748
          },
          {
            "duration": 0.18292675000000003,
            "durationTicks": 96,
            "midi": 47,
            "name": "B2",
            "ticks": 16128,
            "time": 30.731694,
            "velocity": 0.3937007874015748
          },
          {
            "duration": 0.18292675000000003,
            "durationTicks": 96,
            "midi": 53,
            "name": "F3",
            "ticks": 16224,
            "time": 30.91462075,
            "velocity": 0.3937007874015748
          },
          {
            "duration": 0.18292675000000003,
            "durationTicks": 96,
            "midi": 52,
            "name": "E3",
            "ticks": 16320,
            "time": 31.0975475,
            "velocity": 0.3937007874015748
          },
          {
            "duration": 0.18292675000000003,
            "durationTicks": 96,
            "midi": 50,
            "name": "D3",
            "ticks": 16416,
            "time": 31.28047425,
            "velocity": 0.3937007874015748
          },
          {
            "duration": 0.18292675000000003,
            "durationTicks": 96,
            "midi": 47,
            "name": "B2",
            "ticks": 16512,
            "time": 31.463401,
            "velocity": 0.3937007874015748
          },
          {
            "duration": 0.18292675000000003,
            "durationTicks": 96,
            "midi": 53,
            "name": "F3",
            "ticks": 16608,
            "time": 31.64632775,
            "velocity": 0.3937007874015748
          },
          {
            "duration": 0.18292674999999647,
            "durationTicks": 96,
            "midi": 52,
            "name": "E3",
            "ticks": 16704,
            "time": 31.8292545,
            "velocity": 0.3937007874015748
          },
          {
            "duration": 0.18292675000000003,
            "durationTicks": 96,
            "midi": 50,
            "name": "D3",
            "ticks": 16800,
            "time": 32.01218125,
            "velocity": 0.3937007874015748
          },
          {
            "duration": 0.18292675000000003,
            "durationTicks": 96,
            "midi": 46,
            "name": "A#2",
            "ticks": 16896,
            "time": 32.195108,
            "velocity": 0.3937007874015748
          },
          {
            "duration": 0.18292675000000003,
            "durationTicks": 96,
            "midi": 52,
            "name": "E3",
            "ticks": 16992,
            "time": 32.37803475,
            "velocity": 0.3937007874015748
          },
          {
            "duration": 0.18292675000000003,
            "durationTicks": 96,
            "midi": 51,
            "name": "D#3",
            "ticks": 17088,
            "time": 32.5609615,
            "velocity": 0.3937007874015748
          },
          {
            "duration": 0.18292675000000003,
            "durationTicks": 96,
            "midi": 49,
            "name": "C#3",
            "ticks": 17184,
            "time": 32.74388825,
            "velocity": 0.3937007874015748
          },
          {
            "duration": 0.18292675000000003,
            "durationTicks": 96,
            "midi": 46,
            "name": "A#2",
            "ticks": 17280,
            "time": 32.926815,
            "velocity": 0.3937007874015748
          },
          {
            "duration": 0.18292675000000003,
            "durationTicks": 96,
            "midi": 52,
            "name": "E3",
            "ticks": 17376,
            "time": 33.10974175,
            "velocity": 0.3937007874015748
          },
          {
            "duration": 0.18292675000000003,
            "durationTicks": 96,
            "midi": 51,
            "name": "D#3",
            "ticks": 17472,
            "time": 33.2926685,
            "velocity": 0.3937007874015748
          },
          {
            "duration": 0.18292675000000003,
            "durationTicks": 96,
            "midi": 49,
            "name": "C#3",
            "ticks": 17568,
            "time": 33.47559525,
            "velocity": 0.3937007874015748
          },
          {
            "duration": 0.18292675000000003,
            "durationTicks": 96,
            "midi": 46,
            "name": "A#2",
            "ticks": 17664,
            "time": 33.658522,
            "velocity": 0.3937007874015748
          },
          {
            "duration": 0.18292675000000003,
            "durationTicks": 96,
            "midi": 52,
            "name": "E3",
            "ticks": 17760,
            "time": 33.84144875,
            "velocity": 0.3937007874015748
          },
          {
            "duration": 0.18292675000000003,
            "durationTicks": 96,
            "midi": 51,
            "name": "D#3",
            "ticks": 17856,
            "time": 34.0243755,
            "velocity": 0.3937007874015748
          },
          {
            "duration": 0.18292675000000003,
            "durationTicks": 96,
            "midi": 49,
            "name": "C#3",
            "ticks": 17952,
            "time": 34.20730225,
            "velocity": 0.3937007874015748
          },
          {
            "duration": 0.18292675000000003,
            "durationTicks": 96,
            "midi": 46,
            "name": "A#2",
            "ticks": 18048,
            "time": 34.390229,
            "velocity": 0.3937007874015748
          },
          {
            "duration": 0.18292675000000003,
            "durationTicks": 96,
            "midi": 52,
            "name": "E3",
            "ticks": 18144,
            "time": 34.57315575,
            "velocity": 0.3937007874015748
          },
          {
            "duration": 0.18292675000000003,
            "durationTicks": 96,
            "midi": 51,
            "name": "D#3",
            "ticks": 18240,
            "time": 34.7560825,
            "velocity": 0.3937007874015748
          },
          {
            "duration": 0.18292675000000003,
            "durationTicks": 96,
            "midi": 49,
            "name": "C#3",
            "ticks": 18336,
            "time": 34.93900925,
            "velocity": 0.3937007874015748
          },
          {
            "duration": 0.18292675000000003,
            "durationTicks": 96,
            "midi": 47,
            "name": "B2",
            "ticks": 18432,
            "time": 35.121936,
            "velocity": 0.3937007874015748
          },
          {
            "duration": 0.18292675000000003,
            "durationTicks": 96,
            "midi": 53,
            "name": "F3",
            "ticks": 18528,
            "time": 35.30486275,
            "velocity": 0.3937007874015748
          },
          {
            "duration": 0.18292675000000003,
            "durationTicks": 96,
            "midi": 52,
            "name": "E3",
            "ticks": 18624,
            "time": 35.4877895,
            "velocity": 0.3937007874015748
          },
          {
            "duration": 0.18292675000000003,
            "durationTicks": 96,
            "midi": 50,
            "name": "D3",
            "ticks": 18720,
            "time": 35.67071625,
            "velocity": 0.3937007874015748
          },
          {
            "duration": 0.18292675000000003,
            "durationTicks": 96,
            "midi": 47,
            "name": "B2",
            "ticks": 18816,
            "time": 35.853643,
            "velocity": 0.3937007874015748
          },
          {
            "duration": 0.18292675000000003,
            "durationTicks": 96,
            "midi": 53,
            "name": "F3",
            "ticks": 18912,
            "time": 36.03656975,
            "velocity": 0.3937007874015748
          },
          {
            "duration": 0.18292675000000003,
            "durationTicks": 96,
            "midi": 52,
            "name": "E3",
            "ticks": 19008,
            "time": 36.2194965,
            "velocity": 0.3937007874015748
          },
          {
            "duration": 0.18292675000000003,
            "durationTicks": 96,
            "midi": 50,
            "name": "D3",
            "ticks": 19104,
            "time": 36.40242325,
            "velocity": 0.3937007874015748
          },
          {
            "duration": 0.18292675000000003,
            "durationTicks": 96,
            "midi": 47,
            "name": "B2",
            "ticks": 19200,
            "time": 36.58535,
            "velocity": 0.3937007874015748
          },
          {
            "duration": 0.18292675000000003,
            "durationTicks": 96,
            "midi": 53,
            "name": "F3",
            "ticks": 19296,
            "time": 36.76827675,
            "velocity": 0.3937007874015748
          },
          {
            "duration": 0.18292675000000003,
            "durationTicks": 96,
            "midi": 52,
            "name": "E3",
            "ticks": 19392,
            "time": 36.9512035,
            "velocity": 0.3937007874015748
          },
          {
            "duration": 0.18292675000000003,
            "durationTicks": 96,
            "midi": 50,
            "name": "D3",
            "ticks": 19488,
            "time": 37.13413025,
            "velocity": 0.3937007874015748
          },
          {
            "duration": 0.18292675000000003,
            "durationTicks": 96,
            "midi": 47,
            "name": "B2",
            "ticks": 19584,
            "time": 37.317057,
            "velocity": 0.3937007874015748
          },
          {
            "duration": 0.18292675000000003,
            "durationTicks": 96,
            "midi": 53,
            "name": "F3",
            "ticks": 19680,
            "time": 37.49998375,
            "velocity": 0.3937007874015748
          },
          {
            "duration": 0.18292675000000003,
            "durationTicks": 96,
            "midi": 52,
            "name": "E3",
            "ticks": 19776,
            "time": 37.6829105,
            "velocity": 0.3937007874015748
          },
          {
            "duration": 0.18292675000000003,
            "durationTicks": 96,
            "midi": 50,
            "name": "D3",
            "ticks": 19872,
            "time": 37.86583725,
            "velocity": 0.3937007874015748
          },
          {
            "duration": 0.18292675000000003,
            "durationTicks": 96,
            "midi": 46,
            "name": "A#2",
            "ticks": 19968,
            "time": 38.048764,
            "velocity": 0.3937007874015748
          },
          {
            "duration": 0.18292675000000003,
            "durationTicks": 96,
            "midi": 52,
            "name": "E3",
            "ticks": 20064,
            "time": 38.23169075,
            "velocity": 0.3937007874015748
          },
          {
            "duration": 0.18292675000000003,
            "durationTicks": 96,
            "midi": 51,
            "name": "D#3",
            "ticks": 20160,
            "time": 38.4146175,
            "velocity": 0.3937007874015748
          },
          {
            "duration": 0.18292675000000003,
            "durationTicks": 96,
            "midi": 49,
            "name": "C#3",
            "ticks": 20256,
            "time": 38.59754425,
            "velocity": 0.3937007874015748
          },
          {
            "duration": 0.18292675000000003,
            "durationTicks": 96,
            "midi": 46,
            "name": "A#2",
            "ticks": 20352,
            "time": 38.780471,
            "velocity": 0.3937007874015748
          },
          {
            "duration": 0.18292675000000003,
            "durationTicks": 96,
            "midi": 52,
            "name": "E3",
            "ticks": 20448,
            "time": 38.96339775,
            "velocity": 0.3937007874015748
          },
          {
            "duration": 0.18292675000000003,
            "durationTicks": 96,
            "midi": 51,
            "name": "D#3",
            "ticks": 20544,
            "time": 39.1463245,
            "velocity": 0.3937007874015748
          },
          {
            "duration": 0.18292675000000003,
            "durationTicks": 96,
            "midi": 49,
            "name": "C#3",
            "ticks": 20640,
            "time": 39.32925125,
            "velocity": 0.3937007874015748
          },
          {
            "duration": 0.18292675000000003,
            "durationTicks": 96,
            "midi": 46,
            "name": "A#2",
            "ticks": 20736,
            "time": 39.512178,
            "velocity": 0.3937007874015748
          },
          {
            "duration": 0.18292675000000003,
            "durationTicks": 96,
            "midi": 52,
            "name": "E3",
            "ticks": 20832,
            "time": 39.69510475,
            "velocity": 0.3937007874015748
          },
          {
            "duration": 0.18292675000000003,
            "durationTicks": 96,
            "midi": 51,
            "name": "D#3",
            "ticks": 20928,
            "time": 39.8780315,
            "velocity": 0.3937007874015748
          },
          {
            "duration": 0.18292675000000003,
            "durationTicks": 96,
            "midi": 49,
            "name": "C#3",
            "ticks": 21024,
            "time": 40.06095825,
            "velocity": 0.3937007874015748
          },
          {
            "duration": 0.18292675000000003,
            "durationTicks": 96,
            "midi": 46,
            "name": "A#2",
            "ticks": 21120,
            "time": 40.243885,
            "velocity": 0.3937007874015748
          },
          {
            "duration": 0.18292675000000003,
            "durationTicks": 96,
            "midi": 52,
            "name": "E3",
            "ticks": 21216,
            "time": 40.42681175,
            "velocity": 0.3937007874015748
          },
          {
            "duration": 0.18292675000000003,
            "durationTicks": 96,
            "midi": 51,
            "name": "D#3",
            "ticks": 21312,
            "time": 40.6097385,
            "velocity": 0.3937007874015748
          },
          {
            "duration": 0.18292675000000003,
            "durationTicks": 96,
            "midi": 49,
            "name": "C#3",
            "ticks": 21408,
            "time": 40.79266525,
            "velocity": 0.3937007874015748
          }
        ],
        "endOfTrackTicks": 21504
      },
      {
        "channel": 6,
        "controlChanges": {},
        "pitchBends": [],
        "instrument": {
          "family": "guitar",
          "number": 30,
          "name": "distortion guitar"
        },
        "name": "Distortion Guitar",
        "notes": [
          {
            "duration": 0.18292675000000003,
            "durationTicks": 96,
            "midi": 42,
            "name": "F#2",
            "ticks": 5376,
            "time": 10.243898,
            "velocity": 0.3937007874015748
          },
          {
            "duration": 0.18292675000000003,
            "durationTicks": 96,
            "midi": 44,
            "name": "G#2",
            "ticks": 5472,
            "time": 10.42682475,
            "velocity": 0.3937007874015748
          },
          {
            "duration": 0.18292675000000003,
            "durationTicks": 96,
            "midi": 46,
            "name": "A#2",
            "ticks": 5568,
            "time": 10.6097515,
            "velocity": 0.3937007874015748
          },
          {
            "duration": 0.18292675000000003,
            "durationTicks": 96,
            "midi": 48,
            "name": "C3",
            "ticks": 5664,
            "time": 10.79267825,
            "velocity": 0.3937007874015748
          },
          {
            "duration": 0.18292675000000003,
            "durationTicks": 96,
            "midi": 50,
            "name": "D3",
            "ticks": 5760,
            "time": 10.975605,
            "velocity": 0.3937007874015748
          },
          {
            "duration": 0.18292675000000003,
            "durationTicks": 96,
            "midi": 52,
            "name": "E3",
            "ticks": 5856,
            "time": 11.15853175,
            "velocity": 0.3937007874015748
          },
          {
            "duration": 0.18292675000000003,
            "durationTicks": 96,
            "midi": 54,
            "name": "F#3",
            "ticks": 5952,
            "time": 11.3414585,
            "velocity": 0.3937007874015748
          },
          {
            "duration": 0.18292675000000003,
            "durationTicks": 96,
            "midi": 56,
            "name": "G#3",
            "ticks": 6048,
            "time": 11.52438525,
            "velocity": 0.3937007874015748
          }
        ],
        "endOfTrackTicks": 6144
      }
    ]
  }