{
    "header": {
      "keySignatures": [],
      "meta": [],
      "name": "",
      "ppq": 384,
      "tempos": [
        {
          "bpm": 95.00014250021376,
          "ticks": 0
        }
      ],
      "timeSignatures": [
        {
          "ticks": 0,
          "timeSignature": [
            1,
            4
          ],
          "measures": 0
        }
      ]
    },
    "tracks": [
      {
        "channel": 0,
        "controlChanges": {},
        "pitchBends": [],
        "instrument": {
          "family": "synth lead",
          "number": 80,
          "name": "lead 1 (square)"
        },
        "name": "8-Bit Square",
        "notes": [
          {
            "duration": 0.0394736249999994,
            "durationTicks": 24,
            "midi": 49,
            "name": "C#3",
            "ticks": 27648,
            "time": 45.473616,
            "velocity": 0.7874015748031497
          },
          {
            "duration": 0.0394736249999994,
            "durationTicks": 24,
            "midi": 52,
            "name": "E3",
            "ticks": 27696,
            "time": 45.55256325,
            "velocity": 0.7874015748031497
          },
          {
            "duration": 0.0394736249999994,
            "durationTicks": 24,
            "midi": 56,
            "name": "G#3",
            "ticks": 27744,
            "time": 45.6315105,
            "velocity": 0.7874015748031497
          },
          {
            "duration": 0.0394736249999994,
            "durationTicks": 24,
            "midi": 61,
            "name": "C#4",
            "ticks": 27792,
            "time": 45.710457749999996,
            "velocity": 0.7874015748031497
          },
          {
            "duration": 0.03947362500000651,
            "durationTicks": 24,
            "midi": 64,
            "name": "E4",
            "ticks": 27840,
            "time": 45.789404999999995,
            "velocity": 0.7874015748031497
          },
          {
            "duration": 0.0394736249999994,
            "durationTicks": 24,
            "midi": 68,
            "name": "G#4",
            "ticks": 27888,
            "time": 45.86835225,
            "velocity": 0.7874015748031497
          },
          {
            "duration": 0.0394736249999994,
            "durationTicks": 24,
            "midi": 73,
            "name": "C#5",
            "ticks": 27936,
            "time": 45.9472995,
            "velocity": 0.7874015748031497
          },
          {
            "duration": 0.0394736249999994,
            "durationTicks": 24,
            "midi": 80,
            "name": "G#5",
            "ticks": 27984,
            "time": 46.02624675,
            "velocity": 0.7874015748031497
          },
          {
            "duration": 0.0394736249999994,
            "durationTicks": 24,
            "midi": 50,
            "name": "D3",
            "ticks": 30720,
            "time": 50.52624,
            "velocity": 0.7874015748031497
          },
          {
            "duration": 0.0394736249999994,
            "durationTicks": 24,
            "midi": 57,
            "name": "A3",
            "ticks": 30768,
            "time": 50.60518725,
            "velocity": 0.7874015748031497
          },
          {
            "duration": 0.0394736249999994,
            "durationTicks": 24,
            "midi": 62,
            "name": "D4",
            "ticks": 30816,
            "time": 50.6841345,
            "velocity": 0.7874015748031497
          },
          {
            "duration": 0.0394736249999994,
            "durationTicks": 24,
            "midi": 66,
            "name": "F#4",
            "ticks": 30864,
            "time": 50.76308175,
            "velocity": 0.7874015748031497
          },
          {
            "duration": 0.0394736249999994,
            "durationTicks": 24,
            "midi": 69,
            "name": "A4",
            "ticks": 30912,
            "time": 50.842029,
            "velocity": 0.7874015748031497
          },
          {
            "duration": 0.0394736249999994,
            "durationTicks": 24,
            "midi": 74,
            "name": "D5",
            "ticks": 30960,
            "time": 50.920976249999995,
            "velocity": 0.7874015748031497
          },
          {
            "duration": 0.0394736249999994,
            "durationTicks": 24,
            "midi": 78,
            "name": "F#5",
            "ticks": 31008,
            "time": 50.9999235,
            "velocity": 0.7874015748031497
          },
          {
            "duration": 0.0394736249999994,
            "durationTicks": 24,
            "midi": 81,
            "name": "A5",
            "ticks": 31056,
            "time": 51.07887075,
            "velocity": 0.7874015748031497
          },
          {
            "duration": 0.0394736249999994,
            "durationTicks": 24,
            "midi": 49,
            "name": "C#3",
            "ticks": 33792,
            "time": 55.578863999999996,
            "velocity": 0.7874015748031497
          },
          {
            "duration": 0.03947362500000651,
            "durationTicks": 24,
            "midi": 52,
            "name": "E3",
            "ticks": 33840,
            "time": 55.657811249999995,
            "velocity": 0.7874015748031497
          },
          {
            "duration": 0.0394736249999994,
            "durationTicks": 24,
            "midi": 56,
            "name": "G#3",
            "ticks": 33888,
            "time": 55.7367585,
            "velocity": 0.7874015748031497
          },
          {
            "duration": 0.0394736249999994,
            "durationTicks": 24,
            "midi": 61,
            "name": "C#4",
            "ticks": 33936,
            "time": 55.81570575,
            "velocity": 0.7874015748031497
          },
          {
            "duration": 0.0394736249999994,
            "durationTicks": 24,
            "midi": 64,
            "name": "E4",
            "ticks": 33984,
            "time": 55.894653,
            "velocity": 0.7874015748031497
          },
          {
            "duration": 0.0394736249999994,
            "durationTicks": 24,
            "midi": 68,
            "name": "G#4",
            "ticks": 34032,
            "time": 55.97360025,
            "velocity": 0.7874015748031497
          },
          {
            "duration": 0.0394736249999994,
            "durationTicks": 24,
            "midi": 73,
            "name": "C#5",
            "ticks": 34080,
            "time": 56.052547499999996,
            "velocity": 0.7874015748031497
          },
          {
            "duration": 0.03947362500000651,
            "durationTicks": 24,
            "midi": 80,
            "name": "G#5",
            "ticks": 34128,
            "time": 56.131494749999995,
            "velocity": 0.7874015748031497
          },
          {
            "duration": 0.0394736249999994,
            "durationTicks": 24,
            "midi": 50,
            "name": "D3",
            "ticks": 36864,
            "time": 60.631488,
            "velocity": 0.7874015748031497
          },
          {
            "duration": 0.0394736249999994,
            "durationTicks": 24,
            "midi": 57,
            "name": "A3",
            "ticks": 36912,
            "time": 60.710435249999996,
            "velocity": 0.7874015748031497
          },
          {
            "duration": 0.0394736249999994,
            "durationTicks": 24,
            "midi": 62,
            "name": "D4",
            "ticks": 36960,
            "time": 60.789382499999995,
            "velocity": 0.7874015748031497
          },
          {
            "duration": 0.0394736249999994,
            "durationTicks": 24,
            "midi": 66,
            "name": "F#4",
            "ticks": 37008,
            "time": 60.86832975,
            "velocity": 0.7874015748031497
          },
          {
            "duration": 0.0394736249999994,
            "durationTicks": 24,
            "midi": 69,
            "name": "A4",
            "ticks": 37056,
            "time": 60.947277,
            "velocity": 0.7874015748031497
          },
          {
            "duration": 0.0394736249999994,
            "durationTicks": 24,
            "midi": 74,
            "name": "D5",
            "ticks": 37104,
            "time": 61.02622425,
            "velocity": 0.7874015748031497
          },
          {
            "duration": 0.0394736249999994,
            "durationTicks": 24,
            "midi": 78,
            "name": "F#5",
            "ticks": 37152,
            "time": 61.1051715,
            "velocity": 0.7874015748031497
          },
          {
            "duration": 0.0394736249999994,
            "durationTicks": 24,
            "midi": 81,
            "name": "A5",
            "ticks": 37200,
            "time": 61.184118749999996,
            "velocity": 0.7874015748031497
          },
          {
            "duration": 0.0394736249999994,
            "durationTicks": 24,
            "midi": 49,
            "name": "C#3",
            "ticks": 39936,
            "time": 65.684112,
            "velocity": 0.7874015748031497
          },
          {
            "duration": 0.0394736249999994,
            "durationTicks": 24,
            "midi": 52,
            "name": "E3",
            "ticks": 39984,
            "time": 65.76305925,
            "velocity": 0.7874015748031497
          },
          {
            "duration": 0.0394736249999994,
            "durationTicks": 24,
            "midi": 56,
            "name": "G#3",
            "ticks": 40032,
            "time": 65.8420065,
            "velocity": 0.7874015748031497
          },
          {
            "duration": 0.0394736249999994,
            "durationTicks": 24,
            "midi": 61,
            "name": "C#4",
            "ticks": 40080,
            "time": 65.92095375,
            "velocity": 0.7874015748031497
          },
          {
            "duration": 0.0394736249999994,
            "durationTicks": 24,
            "midi": 64,
            "name": "E4",
            "ticks": 40128,
            "time": 65.999901,
            "velocity": 0.7874015748031497
          },
          {
            "duration": 0.0394736249999994,
            "durationTicks": 24,
            "midi": 68,
            "name": "G#4",
            "ticks": 40176,
            "time": 66.07884825,
            "velocity": 0.7874015748031497
          },
          {
            "duration": 0.0394736249999994,
            "durationTicks": 24,
            "midi": 73,
            "name": "C#5",
            "ticks": 40224,
            "time": 66.15779549999999,
            "velocity": 0.7874015748031497
          },
          {
            "duration": 0.03947362500001361,
            "durationTicks": 24,
            "midi": 80,
            "name": "G#5",
            "ticks": 40272,
            "time": 66.23674274999999,
            "velocity": 0.7874015748031497
          },
          {
            "duration": 0.0394736249999994,
            "durationTicks": 24,
            "midi": 50,
            "name": "D3",
            "ticks": 43008,
            "time": 70.736736,
            "velocity": 0.7874015748031497
          },
          {
            "duration": 0.0394736249999994,
            "durationTicks": 24,
            "midi": 57,
            "name": "A3",
            "ticks": 43056,
            "time": 70.81568324999999,
            "velocity": 0.7874015748031497
          },
          {
            "duration": 0.0394736249999994,
            "durationTicks": 24,
            "midi": 62,
            "name": "D4",
            "ticks": 43104,
            "time": 70.89463049999999,
            "velocity": 0.7874015748031497
          },
          {
            "duration": 0.0394736249999994,
            "durationTicks": 24,
            "midi": 66,
            "name": "F#4",
            "ticks": 43152,
            "time": 70.97357775,
            "velocity": 0.7874015748031497
          },
          {
            "duration": 0.0394736249999994,
            "durationTicks": 24,
            "midi": 69,
            "name": "A4",
            "ticks": 43200,
            "time": 71.052525,
            "velocity": 0.7874015748031497
          },
          {
            "duration": 0.0394736249999994,
            "durationTicks": 24,
            "midi": 74,
            "name": "D5",
            "ticks": 43248,
            "time": 71.13147225,
            "velocity": 0.7874015748031497
          },
          {
            "duration": 0.0394736249999994,
            "durationTicks": 24,
            "midi": 78,
            "name": "F#5",
            "ticks": 43296,
            "time": 71.2104195,
            "velocity": 0.7874015748031497
          },
          {
            "duration": 0.0394736249999994,
            "durationTicks": 24,
            "midi": 81,
            "name": "A5",
            "ticks": 43344,
            "time": 71.28936675,
            "velocity": 0.7874015748031497
          },
          {
            "duration": 0.0394736249999994,
            "durationTicks": 24,
            "midi": 49,
            "name": "C#3",
            "ticks": 46080,
            "time": 75.78936,
            "velocity": 0.7874015748031497
          },
          {
            "duration": 0.0394736249999994,
            "durationTicks": 24,
            "midi": 52,
            "name": "E3",
            "ticks": 46128,
            "time": 75.86830725,
            "velocity": 0.7874015748031497
          },
          {
            "duration": 0.0394736249999994,
            "durationTicks": 24,
            "midi": 56,
            "name": "G#3",
            "ticks": 46176,
            "time": 75.9472545,
            "velocity": 0.7874015748031497
          },
          {
            "duration": 0.0394736249999994,
            "durationTicks": 24,
            "midi": 61,
            "name": "C#4",
            "ticks": 46224,
            "time": 76.02620175,
            "velocity": 0.7874015748031497
          },
          {
            "duration": 0.0394736249999994,
            "durationTicks": 24,
            "midi": 64,
            "name": "E4",
            "ticks": 46272,
            "time": 76.105149,
            "velocity": 0.7874015748031497
          },
          {
            "duration": 0.0394736249999994,
            "durationTicks": 24,
            "midi": 68,
            "name": "G#4",
            "ticks": 46320,
            "time": 76.18409625,
            "velocity": 0.7874015748031497
          },
          {
            "duration": 0.0394736249999994,
            "durationTicks": 24,
            "midi": 73,
            "name": "C#5",
            "ticks": 46368,
            "time": 76.2630435,
            "velocity": 0.7874015748031497
          },
          {
            "duration": 0.0394736249999994,
            "durationTicks": 24,
            "midi": 80,
            "name": "G#5",
            "ticks": 46416,
            "time": 76.34199075,
            "velocity": 0.7874015748031497
          },
          {
            "duration": 0.0394736249999994,
            "durationTicks": 24,
            "midi": 50,
            "name": "D3",
            "ticks": 49152,
            "time": 80.841984,
            "velocity": 0.7874015748031497
          },
          {
            "duration": 0.0394736249999994,
            "durationTicks": 24,
            "midi": 57,
            "name": "A3",
            "ticks": 49200,
            "time": 80.92093125,
            "velocity": 0.7874015748031497
          },
          {
            "duration": 0.0394736249999994,
            "durationTicks": 24,
            "midi": 62,
            "name": "D4",
            "ticks": 49248,
            "time": 80.9998785,
            "velocity": 0.7874015748031497
          },
          {
            "duration": 0.0394736249999994,
            "durationTicks": 24,
            "midi": 66,
            "name": "F#4",
            "ticks": 49296,
            "time": 81.07882575,
            "velocity": 0.7874015748031497
          },
          {
            "duration": 0.0394736249999994,
            "durationTicks": 24,
            "midi": 69,
            "name": "A4",
            "ticks": 49344,
            "time": 81.15777299999999,
            "velocity": 0.7874015748031497
          },
          {
            "duration": 0.0394736249999994,
            "durationTicks": 24,
            "midi": 74,
            "name": "D5",
            "ticks": 49392,
            "time": 81.23672024999999,
            "velocity": 0.7874015748031497
          },
          {
            "duration": 0.0394736249999994,
            "durationTicks": 24,
            "midi": 78,
            "name": "F#5",
            "ticks": 49440,
            "time": 81.3156675,
            "velocity": 0.7874015748031497
          },
          {
            "duration": 0.0394736249999994,
            "durationTicks": 24,
            "midi": 81,
            "name": "A5",
            "ticks": 49488,
            "time": 81.39461475,
            "velocity": 0.7874015748031497
          },
          {
            "duration": 0.3157889999999952,
            "durationTicks": 192,
            "midi": 73,
            "name": "C#5",
            "ticks": 52608,
            "time": 86.526186,
            "velocity": 0.7874015748031497
          },
          {
            "duration": 0.3157889999999952,
            "durationTicks": 192,
            "midi": 61,
            "name": "C#4",
            "ticks": 52608,
            "time": 86.526186,
            "velocity": 0.7874015748031497
          },
          {
            "duration": 0.3157890000000094,
            "durationTicks": 192,
            "midi": 64,
            "name": "E4",
            "ticks": 52800,
            "time": 86.84197499999999,
            "velocity": 0.7874015748031497
          },
          {
            "duration": 0.3157890000000094,
            "durationTicks": 192,
            "midi": 76,
            "name": "E5",
            "ticks": 52800,
            "time": 86.84197499999999,
            "velocity": 0.7874015748031497
          },
          {
            "duration": 0.9473669999999998,
            "durationTicks": 576,
            "midi": 75,
            "name": "D#5",
            "ticks": 52992,
            "time": 87.157764,
            "velocity": 0.7874015748031497
          },
          {
            "duration": 0.9473669999999998,
            "durationTicks": 576,
            "midi": 63,
            "name": "D#4",
            "ticks": 52992,
            "time": 87.157764,
            "velocity": 0.7874015748031497
          },
          {
            "duration": 0.2763153749999958,
            "durationTicks": 168,
            "midi": 80,
            "name": "G#5",
            "ticks": 53568,
            "time": 88.105131,
            "velocity": 0.7874015748031497
          },
          {
            "duration": 0.2763153749999958,
            "durationTicks": 168,
            "midi": 68,
            "name": "G#4",
            "ticks": 53568,
            "time": 88.105131,
            "velocity": 0.7874015748031497
          },
          {
            "duration": 0.9473669999999998,
            "durationTicks": 576,
            "midi": 68,
            "name": "G#4",
            "ticks": 53760,
            "time": 88.42092,
            "velocity": 0.7874015748031497
          },
          {
            "duration": 0.9473669999999998,
            "durationTicks": 576,
            "midi": 80,
            "name": "G#5",
            "ticks": 53760,
            "time": 88.42092,
            "velocity": 0.7874015748031497
          },
          {
            "duration": 0.1578944999999976,
            "durationTicks": 96,
            "midi": 66,
            "name": "F#4",
            "ticks": 54336,
            "time": 89.368287,
            "velocity": 0.7874015748031497
          },
          {
            "duration": 0.1578944999999976,
            "durationTicks": 96,
            "midi": 78,
            "name": "F#5",
            "ticks": 54336,
            "time": 89.368287,
            "velocity": 0.7874015748031497
          },
          {
            "duration": 0.1578944999999976,
            "durationTicks": 96,
            "midi": 64,
            "name": "E4",
            "ticks": 54432,
            "time": 89.52618149999999,
            "velocity": 0.7874015748031497
          },
          {
            "duration": 0.1578944999999976,
            "durationTicks": 96,
            "midi": 76,
            "name": "E5",
            "ticks": 54432,
            "time": 89.52618149999999,
            "velocity": 0.7874015748031497
          },
          {
            "duration": 0.3157890000000094,
            "durationTicks": 192,
            "midi": 63,
            "name": "D#4",
            "ticks": 54528,
            "time": 89.68407599999999,
            "velocity": 0.7874015748031497
          },
          {
            "duration": 0.3157890000000094,
            "durationTicks": 192,
            "midi": 75,
            "name": "D#5",
            "ticks": 54528,
            "time": 89.68407599999999,
            "velocity": 0.7874015748031497
          },
          {
            "duration": 0.3157889999999952,
            "durationTicks": 192,
            "midi": 61,
            "name": "C#4",
            "ticks": 54720,
            "time": 89.999865,
            "velocity": 0.7874015748031497
          },
          {
            "duration": 0.3157889999999952,
            "durationTicks": 192,
            "midi": 73,
            "name": "C#5",
            "ticks": 54720,
            "time": 89.999865,
            "velocity": 0.7874015748031497
          },
          {
            "duration": 0.3157889999999952,
            "durationTicks": 192,
            "midi": 75,
            "name": "D#5",
            "ticks": 54912,
            "time": 90.315654,
            "velocity": 0.7874015748031497
          },
          {
            "duration": 0.3157889999999952,
            "durationTicks": 192,
            "midi": 63,
            "name": "D#4",
            "ticks": 54912,
            "time": 90.315654,
            "velocity": 0.7874015748031497
          },
          {
            "duration": 0.3157890000000094,
            "durationTicks": 192,
            "midi": 76,
            "name": "E5",
            "ticks": 55104,
            "time": 90.63144299999999,
            "velocity": 0.7874015748031497
          },
          {
            "duration": 0.3157890000000094,
            "durationTicks": 192,
            "midi": 64,
            "name": "E4",
            "ticks": 55104,
            "time": 90.63144299999999,
            "velocity": 0.7874015748031497
          },
          {
            "duration": 0.6315779999999904,
            "durationTicks": 384,
            "midi": 78,
            "name": "F#5",
            "ticks": 55296,
            "time": 90.947232,
            "velocity": 0.7874015748031497
          },
          {
            "duration": 0.6315779999999904,
            "durationTicks": 384,
            "midi": 66,
            "name": "F#4",
            "ticks": 55296,
            "time": 90.947232,
            "velocity": 0.7874015748031497
          },
          {
            "duration": 0.6315780000000046,
            "durationTicks": 384,
            "midi": 64,
            "name": "E4",
            "ticks": 55680,
            "time": 91.57880999999999,
            "velocity": 0.7874015748031497
          },
          {
            "duration": 0.6315780000000046,
            "durationTicks": 384,
            "midi": 76,
            "name": "E5",
            "ticks": 55680,
            "time": 91.57880999999999,
            "velocity": 0.7874015748031497
          },
          {
            "duration": 0.6315780000000046,
            "durationTicks": 384,
            "midi": 63,
            "name": "D#4",
            "ticks": 56064,
            "time": 92.210388,
            "velocity": 0.7874015748031497
          },
          {
            "duration": 0.6315780000000046,
            "durationTicks": 384,
            "midi": 75,
            "name": "D#5",
            "ticks": 56064,
            "time": 92.210388,
            "velocity": 0.7874015748031497
          },
          {
            "duration": 0.6315779999999904,
            "durationTicks": 384,
            "midi": 76,
            "name": "E5",
            "ticks": 56448,
            "time": 92.841966,
            "velocity": 0.7874015748031497
          },
          {
            "duration": 0.6315779999999904,
            "durationTicks": 384,
            "midi": 64,
            "name": "E4",
            "ticks": 56448,
            "time": 92.841966,
            "velocity": 0.7874015748031497
          },
          {
            "duration": 1.5789450000000045,
            "durationTicks": 960,
            "midi": 71,
            "name": "B4",
            "ticks": 56832,
            "time": 93.47354399999999,
            "velocity": 0.7874015748031497
          },
          {
            "duration": 1.5789450000000045,
            "durationTicks": 960,
            "midi": 59,
            "name": "B3",
            "ticks": 56832,
            "time": 93.47354399999999,
            "velocity": 0.7874015748031497
          },
          {
            "duration": 0.3157889999999952,
            "durationTicks": 192,
            "midi": 56,
            "name": "G#3",
            "ticks": 57792,
            "time": 95.052489,
            "velocity": 0.7874015748031497
          },
          {
            "duration": 0.3157889999999952,
            "durationTicks": 192,
            "midi": 68,
            "name": "G#4",
            "ticks": 57792,
            "time": 95.052489,
            "velocity": 0.7874015748031497
          },
          {
            "duration": 0.3157890000000094,
            "durationTicks": 192,
            "midi": 73,
            "name": "C#5",
            "ticks": 57984,
            "time": 95.36827799999999,
            "velocity": 0.7874015748031497
          },
          {
            "duration": 0.3157890000000094,
            "durationTicks": 192,
            "midi": 61,
            "name": "C#4",
            "ticks": 57984,
            "time": 95.36827799999999,
            "velocity": 0.7874015748031497
          },
          {
            "duration": 0.2763153749999958,
            "durationTicks": 168,
            "midi": 63,
            "name": "D#4",
            "ticks": 58176,
            "time": 95.684067,
            "velocity": 0.7874015748031497
          },
          {
            "duration": 0.2763153749999958,
            "durationTicks": 168,
            "midi": 75,
            "name": "D#5",
            "ticks": 58176,
            "time": 95.684067,
            "velocity": 0.7874015748031497
          },
          {
            "duration": 0.9473669999999998,
            "durationTicks": 576,
            "midi": 63,
            "name": "D#4",
            "ticks": 58368,
            "time": 95.999856,
            "velocity": 0.7874015748031497
          },
          {
            "duration": 0.9473669999999998,
            "durationTicks": 576,
            "midi": 75,
            "name": "D#5",
            "ticks": 58368,
            "time": 95.999856,
            "velocity": 0.7874015748031497
          },
          {
            "duration": 0.2763153749999958,
            "durationTicks": 168,
            "midi": 76,
            "name": "E5",
            "ticks": 58944,
            "time": 96.947223,
            "velocity": 0.7874015748031497
          },
          {
            "duration": 0.2763153749999958,
            "durationTicks": 168,
            "midi": 64,
            "name": "E4",
            "ticks": 58944,
            "time": 96.947223,
            "velocity": 0.7874015748031497
          },
          {
            "duration": 0.9473669999999998,
            "durationTicks": 576,
            "midi": 76,
            "name": "E5",
            "ticks": 59136,
            "time": 97.26301199999999,
            "velocity": 0.7874015748031497
          },
          {
            "duration": 0.9473669999999998,
            "durationTicks": 576,
            "midi": 64,
            "name": "E4",
            "ticks": 59136,
            "time": 97.26301199999999,
            "velocity": 0.7874015748031497
          },
          {
            "duration": 0.27631537500001,
            "durationTicks": 168,
            "midi": 83,
            "name": "B5",
            "ticks": 59712,
            "time": 98.21037899999999,
            "velocity": 0.7874015748031497
          },
          {
            "duration": 0.27631537500001,
            "durationTicks": 168,
            "midi": 71,
            "name": "B4",
            "ticks": 59712,
            "time": 98.21037899999999,
            "velocity": 0.7874015748031497
          },
          {
            "duration": 0.9473669999999998,
            "durationTicks": 576,
            "midi": 83,
            "name": "B5",
            "ticks": 59904,
            "time": 98.526168,
            "velocity": 0.7874015748031497
          },
          {
            "duration": 0.9473669999999998,
            "durationTicks": 576,
            "midi": 71,
            "name": "B4",
            "ticks": 59904,
            "time": 98.526168,
            "velocity": 0.7874015748031497
          },
          {
            "duration": 0.1578944999999976,
            "durationTicks": 96,
            "midi": 69,
            "name": "A4",
            "ticks": 60480,
            "time": 99.473535,
            "velocity": 0.7874015748031497
          },
          {
            "duration": 0.1578944999999976,
            "durationTicks": 96,
            "midi": 81,
            "name": "A5",
            "ticks": 60480,
            "time": 99.473535,
            "velocity": 0.7874015748031497
          },
          {
            "duration": 0.1578944999999976,
            "durationTicks": 96,
            "midi": 80,
            "name": "G#5",
            "ticks": 60576,
            "time": 99.6314295,
            "velocity": 0.7874015748031497
          },
          {
            "duration": 0.1578944999999976,
            "durationTicks": 96,
            "midi": 68,
            "name": "G#4",
            "ticks": 60576,
            "time": 99.6314295,
            "velocity": 0.7874015748031497
          },
          {
            "duration": 0.3157889999999952,
            "durationTicks": 192,
            "midi": 66,
            "name": "F#4",
            "ticks": 60672,
            "time": 99.789324,
            "velocity": 0.7874015748031497
          },
          {
            "duration": 0.3157889999999952,
            "durationTicks": 192,
            "midi": 78,
            "name": "F#5",
            "ticks": 60672,
            "time": 99.789324,
            "velocity": 0.7874015748031497
          },
          {
            "duration": 0.3157890000000094,
            "durationTicks": 192,
            "midi": 76,
            "name": "E5",
            "ticks": 60864,
            "time": 100.10511299999999,
            "velocity": 0.7874015748031497
          },
          {
            "duration": 0.3157890000000094,
            "durationTicks": 192,
            "midi": 64,
            "name": "E4",
            "ticks": 60864,
            "time": 100.10511299999999,
            "velocity": 0.7874015748031497
          },
          {
            "duration": 0.3157889999999952,
            "durationTicks": 192,
            "midi": 66,
            "name": "F#4",
            "ticks": 61056,
            "time": 100.420902,
            "velocity": 0.7874015748031497
          },
          {
            "duration": 0.3157889999999952,
            "durationTicks": 192,
            "midi": 78,
            "name": "F#5",
            "ticks": 61056,
            "time": 100.420902,
            "velocity": 0.7874015748031497
          },
          {
            "duration": 0.2763153749999958,
            "durationTicks": 168,
            "midi": 80,
            "name": "G#5",
            "ticks": 61248,
            "time": 100.736691,
            "velocity": 0.7874015748031497
          },
          {
            "duration": 0.2763153749999958,
            "durationTicks": 168,
            "midi": 68,
            "name": "G#4",
            "ticks": 61248,
            "time": 100.736691,
            "velocity": 0.7874015748031497
          },
          {
            "duration": 0.6315779999999904,
            "durationTicks": 384,
            "midi": 81,
            "name": "A5",
            "ticks": 61440,
            "time": 101.05248,
            "velocity": 0.7874015748031497
          },
          {
            "duration": 0.6315779999999904,
            "durationTicks": 384,
            "midi": 69,
            "name": "A4",
            "ticks": 61440,
            "time": 101.05248,
            "velocity": 0.7874015748031497
          },
          {
            "duration": 0.3157890000000094,
            "durationTicks": 192,
            "midi": 80,
            "name": "G#5",
            "ticks": 61824,
            "time": 101.684058,
            "velocity": 0.7874015748031497
          },
          {
            "duration": 0.3157890000000094,
            "durationTicks": 192,
            "midi": 68,
            "name": "G#4",
            "ticks": 61824,
            "time": 101.684058,
            "velocity": 0.7874015748031497
          },
          {
            "duration": 0.3157889999999952,
            "durationTicks": 192,
            "midi": 61,
            "name": "C#4",
            "ticks": 62016,
            "time": 101.999847,
            "velocity": 0.7874015748031497
          },
          {
            "duration": 0.3157889999999952,
            "durationTicks": 192,
            "midi": 73,
            "name": "C#5",
            "ticks": 62016,
            "time": 101.999847,
            "velocity": 0.7874015748031497
          },
          {
            "duration": 0.4736834999999928,
            "durationTicks": 288,
            "midi": 64,
            "name": "E4",
            "ticks": 62208,
            "time": 102.315636,
            "velocity": 0.7874015748031497
          },
          {
            "duration": 0.4736834999999928,
            "durationTicks": 288,
            "midi": 76,
            "name": "E5",
            "ticks": 62208,
            "time": 102.315636,
            "velocity": 0.7874015748031497
          },
          {
            "duration": 0.47368350000000703,
            "durationTicks": 288,
            "midi": 66,
            "name": "F#4",
            "ticks": 62496,
            "time": 102.78931949999999,
            "velocity": 0.7874015748031497
          },
          {
            "duration": 0.47368350000000703,
            "durationTicks": 288,
            "midi": 78,
            "name": "F#5",
            "ticks": 62496,
            "time": 102.78931949999999,
            "velocity": 0.7874015748031497
          },
          {
            "duration": 0.3157889999999952,
            "durationTicks": 192,
            "midi": 68,
            "name": "G#4",
            "ticks": 62784,
            "time": 103.263003,
            "velocity": 0.7874015748031497
          },
          {
            "duration": 0.3157889999999952,
            "durationTicks": 192,
            "midi": 80,
            "name": "G#5",
            "ticks": 62784,
            "time": 103.263003,
            "velocity": 0.7874015748031497
          },
          {
            "duration": 1.2631560000000093,
            "durationTicks": 768,
            "midi": 78,
            "name": "F#5",
            "ticks": 62976,
            "time": 103.57879199999999,
            "velocity": 0.7874015748031497
          },
          {
            "duration": 1.2631560000000093,
            "durationTicks": 768,
            "midi": 66,
            "name": "F#4",
            "ticks": 62976,
            "time": 103.57879199999999,
            "velocity": 0.7874015748031497
          },
          {
            "duration": 1.263155999999995,
            "durationTicks": 768,
            "midi": 63,
            "name": "D#4",
            "ticks": 63744,
            "time": 104.841948,
            "velocity": 0.7874015748031497
          },
          {
            "duration": 1.263155999999995,
            "durationTicks": 768,
            "midi": 75,
            "name": "D#5",
            "ticks": 63744,
            "time": 104.841948,
            "velocity": 0.7874015748031497
          },
          {
            "duration": 0.9473669999999998,
            "durationTicks": 576,
            "midi": 64,
            "name": "E4",
            "ticks": 64512,
            "time": 106.105104,
            "velocity": 0.7874015748031497
          },
          {
            "duration": 0.9473669999999998,
            "durationTicks": 576,
            "midi": 73,
            "name": "C#5",
            "ticks": 64512,
            "time": 106.105104,
            "velocity": 0.7874015748031497
          },
          {
            "duration": 0.9473669999999998,
            "durationTicks": 576,
            "midi": 61,
            "name": "C#4",
            "ticks": 64512,
            "time": 106.105104,
            "velocity": 0.7874015748031497
          },
          {
            "duration": 0.3157889999999952,
            "durationTicks": 192,
            "midi": 64,
            "name": "E4",
            "ticks": 65088,
            "time": 107.052471,
            "velocity": 0.7874015748031497
          },
          {
            "duration": 0.3157889999999952,
            "durationTicks": 192,
            "midi": 76,
            "name": "E5",
            "ticks": 65088,
            "time": 107.052471,
            "velocity": 0.7874015748031497
          },
          {
            "duration": 0.3157889999999952,
            "durationTicks": 192,
            "midi": 68,
            "name": "G#4",
            "ticks": 65088,
            "time": 107.052471,
            "velocity": 0.7874015748031497
          },
          {
            "duration": 0.9473669999999998,
            "durationTicks": 576,
            "midi": 75,
            "name": "D#5",
            "ticks": 65280,
            "time": 107.36825999999999,
            "velocity": 0.7874015748031497
          },
          {
            "duration": 0.9473669999999998,
            "durationTicks": 576,
            "midi": 66,
            "name": "F#4",
            "ticks": 65280,
            "time": 107.36825999999999,
            "velocity": 0.7874015748031497
          },
          {
            "duration": 0.9473669999999998,
            "durationTicks": 576,
            "midi": 63,
            "name": "D#4",
            "ticks": 65280,
            "time": 107.36825999999999,
            "velocity": 0.7874015748031497
          },
          {
            "duration": 0.27631537500001,
            "durationTicks": 168,
            "midi": 68,
            "name": "G#4",
            "ticks": 65856,
            "time": 108.31562699999999,
            "velocity": 0.7874015748031497
          },
          {
            "duration": 0.27631537500001,
            "durationTicks": 168,
            "midi": 80,
            "name": "G#5",
            "ticks": 65856,
            "time": 108.31562699999999,
            "velocity": 0.7874015748031497
          },
          {
            "duration": 0.27631537500001,
            "durationTicks": 168,
            "midi": 71,
            "name": "B4",
            "ticks": 65856,
            "time": 108.31562699999999,
            "velocity": 0.7874015748031497
          },
          {
            "duration": 0.9473669999999998,
            "durationTicks": 576,
            "midi": 71,
            "name": "B4",
            "ticks": 66048,
            "time": 108.631416,
            "velocity": 0.7874015748031497
          },
          {
            "duration": 0.9473669999999998,
            "durationTicks": 576,
            "midi": 68,
            "name": "G#4",
            "ticks": 66048,
            "time": 108.631416,
            "velocity": 0.7874015748031497
          },
          {
            "duration": 0.9473669999999998,
            "durationTicks": 576,
            "midi": 80,
            "name": "G#5",
            "ticks": 66048,
            "time": 108.631416,
            "velocity": 0.7874015748031497
          },
          {
            "duration": 0.1578944999999976,
            "durationTicks": 96,
            "midi": 66,
            "name": "F#4",
            "ticks": 66624,
            "time": 109.578783,
            "velocity": 0.7874015748031497
          },
          {
            "duration": 0.1578944999999976,
            "durationTicks": 96,
            "midi": 78,
            "name": "F#5",
            "ticks": 66624,
            "time": 109.578783,
            "velocity": 0.7874015748031497
          },
          {
            "duration": 0.1578944999999976,
            "durationTicks": 96,
            "midi": 69,
            "name": "A4",
            "ticks": 66624,
            "time": 109.578783,
            "velocity": 0.7874015748031497
          },
          {
            "duration": 0.1578944999999976,
            "durationTicks": 96,
            "midi": 76,
            "name": "E5",
            "ticks": 66720,
            "time": 109.7366775,
            "velocity": 0.7874015748031497
          },
          {
            "duration": 0.1578944999999976,
            "durationTicks": 96,
            "midi": 64,
            "name": "E4",
            "ticks": 66720,
            "time": 109.7366775,
            "velocity": 0.7874015748031497
          },
          {
            "duration": 0.1578944999999976,
            "durationTicks": 96,
            "midi": 68,
            "name": "G#4",
            "ticks": 66720,
            "time": 109.7366775,
            "velocity": 0.7874015748031497
          },
          {
            "duration": 0.3157889999999952,
            "durationTicks": 192,
            "midi": 75,
            "name": "D#5",
            "ticks": 66816,
            "time": 109.894572,
            "velocity": 0.7874015748031497
          },
          {
            "duration": 0.3157889999999952,
            "durationTicks": 192,
            "midi": 66,
            "name": "F#4",
            "ticks": 66816,
            "time": 109.894572,
            "velocity": 0.7874015748031497
          },
          {
            "duration": 0.3157889999999952,
            "durationTicks": 192,
            "midi": 63,
            "name": "D#4",
            "ticks": 66816,
            "time": 109.894572,
            "velocity": 0.7874015748031497
          },
          {
            "duration": 0.3157890000000094,
            "durationTicks": 192,
            "midi": 73,
            "name": "C#5",
            "ticks": 67008,
            "time": 110.21036099999999,
            "velocity": 0.7874015748031497
          },
          {
            "duration": 0.3157890000000094,
            "durationTicks": 192,
            "midi": 61,
            "name": "C#4",
            "ticks": 67008,
            "time": 110.21036099999999,
            "velocity": 0.7874015748031497
          },
          {
            "duration": 0.3157890000000094,
            "durationTicks": 192,
            "midi": 64,
            "name": "E4",
            "ticks": 67008,
            "time": 110.21036099999999,
            "velocity": 0.7874015748031497
          },
          {
            "duration": 0.3157889999999952,
            "durationTicks": 192,
            "midi": 63,
            "name": "D#4",
            "ticks": 67200,
            "time": 110.52615,
            "velocity": 0.7874015748031497
          },
          {
            "duration": 0.3157889999999952,
            "durationTicks": 192,
            "midi": 75,
            "name": "D#5",
            "ticks": 67200,
            "time": 110.52615,
            "velocity": 0.7874015748031497
          },
          {
            "duration": 0.3157889999999952,
            "durationTicks": 192,
            "midi": 66,
            "name": "F#4",
            "ticks": 67200,
            "time": 110.52615,
            "velocity": 0.7874015748031497
          },
          {
            "duration": 0.3157889999999952,
            "durationTicks": 192,
            "midi": 76,
            "name": "E5",
            "ticks": 67392,
            "time": 110.841939,
            "velocity": 0.7874015748031497
          },
          {
            "duration": 0.3157889999999952,
            "durationTicks": 192,
            "midi": 68,
            "name": "G#4",
            "ticks": 67392,
            "time": 110.841939,
            "velocity": 0.7874015748031497
          },
          {
            "duration": 0.3157889999999952,
            "durationTicks": 192,
            "midi": 64,
            "name": "E4",
            "ticks": 67392,
            "time": 110.841939,
            "velocity": 0.7874015748031497
          },
          {
            "duration": 0.6315780000000046,
            "durationTicks": 384,
            "midi": 78,
            "name": "F#5",
            "ticks": 67584,
            "time": 111.15772799999999,
            "velocity": 0.7874015748031497
          },
          {
            "duration": 0.6315780000000046,
            "durationTicks": 384,
            "midi": 66,
            "name": "F#4",
            "ticks": 67584,
            "time": 111.15772799999999,
            "velocity": 0.7874015748031497
          },
          {
            "duration": 0.6315780000000046,
            "durationTicks": 384,
            "midi": 69,
            "name": "A4",
            "ticks": 67584,
            "time": 111.15772799999999,
            "velocity": 0.7874015748031497
          },
          {
            "duration": 0.6315780000000046,
            "durationTicks": 384,
            "midi": 76,
            "name": "E5",
            "ticks": 67968,
            "time": 111.789306,
            "velocity": 0.7874015748031497
          },
          {
            "duration": 0.6315780000000046,
            "durationTicks": 384,
            "midi": 64,
            "name": "E4",
            "ticks": 67968,
            "time": 111.789306,
            "velocity": 0.7874015748031497
          },
          {
            "duration": 0.6315780000000046,
            "durationTicks": 384,
            "midi": 68,
            "name": "G#4",
            "ticks": 67968,
            "time": 111.789306,
            "velocity": 0.7874015748031497
          },
          {
            "duration": 0.6315779999999904,
            "durationTicks": 384,
            "midi": 75,
            "name": "D#5",
            "ticks": 68352,
            "time": 112.420884,
            "velocity": 0.7874015748031497
          },
          {
            "duration": 0.6315779999999904,
            "durationTicks": 384,
            "midi": 63,
            "name": "D#4",
            "ticks": 68352,
            "time": 112.420884,
            "velocity": 0.7874015748031497
          },
          {
            "duration": 0.6315779999999904,
            "durationTicks": 384,
            "midi": 66,
            "name": "F#4",
            "ticks": 68352,
            "time": 112.420884,
            "velocity": 0.7874015748031497
          },
          {
            "duration": 0.6315780000000046,
            "durationTicks": 384,
            "midi": 68,
            "name": "G#4",
            "ticks": 68736,
            "time": 113.05246199999999,
            "velocity": 0.7874015748031497
          },
          {
            "duration": 0.6315780000000046,
            "durationTicks": 384,
            "midi": 76,
            "name": "E5",
            "ticks": 68736,
            "time": 113.05246199999999,
            "velocity": 0.7874015748031497
          },
          {
            "duration": 0.6315780000000046,
            "durationTicks": 384,
            "midi": 64,
            "name": "E4",
            "ticks": 68736,
            "time": 113.05246199999999,
            "velocity": 0.7874015748031497
          },
          {
            "duration": 1.5789450000000045,
            "durationTicks": 960,
            "midi": 59,
            "name": "B3",
            "ticks": 69120,
            "time": 113.68404,
            "velocity": 0.7874015748031497
          },
          {
            "duration": 1.5789450000000045,
            "durationTicks": 960,
            "midi": 71,
            "name": "B4",
            "ticks": 69120,
            "time": 113.68404,
            "velocity": 0.7874015748031497
          },
          {
            "duration": 1.5789450000000045,
            "durationTicks": 960,
            "midi": 64,
            "name": "E4",
            "ticks": 69120,
            "time": 113.68404,
            "velocity": 0.7874015748031497
          },
          {
            "duration": 0.3157889999999952,
            "durationTicks": 192,
            "midi": 56,
            "name": "G#3",
            "ticks": 70080,
            "time": 115.262985,
            "velocity": 0.7874015748031497
          },
          {
            "duration": 0.3157889999999952,
            "durationTicks": 192,
            "midi": 59,
            "name": "B3",
            "ticks": 70080,
            "time": 115.262985,
            "velocity": 0.7874015748031497
          },
          {
            "duration": 0.3157889999999952,
            "durationTicks": 192,
            "midi": 68,
            "name": "G#4",
            "ticks": 70080,
            "time": 115.262985,
            "velocity": 0.7874015748031497
          },
          {
            "duration": 0.3157889999999952,
            "durationTicks": 192,
            "midi": 61,
            "name": "C#4",
            "ticks": 70272,
            "time": 115.578774,
            "velocity": 0.7874015748031497
          },
          {
            "duration": 0.3157889999999952,
            "durationTicks": 192,
            "midi": 73,
            "name": "C#5",
            "ticks": 70272,
            "time": 115.578774,
            "velocity": 0.7874015748031497
          },
          {
            "duration": 0.3157889999999952,
            "durationTicks": 192,
            "midi": 64,
            "name": "E4",
            "ticks": 70272,
            "time": 115.578774,
            "velocity": 0.7874015748031497
          },
          {
            "duration": 0.27631537500001,
            "durationTicks": 168,
            "midi": 75,
            "name": "D#5",
            "ticks": 70464,
            "time": 115.89456299999999,
            "velocity": 0.7874015748031497
          },
          {
            "duration": 0.27631537500001,
            "durationTicks": 168,
            "midi": 66,
            "name": "F#4",
            "ticks": 70464,
            "time": 115.89456299999999,
            "velocity": 0.7874015748031497
          },
          {
            "duration": 0.27631537500001,
            "durationTicks": 168,
            "midi": 63,
            "name": "D#4",
            "ticks": 70464,
            "time": 115.89456299999999,
            "velocity": 0.7874015748031497
          },
          {
            "duration": 0.9473669999999998,
            "durationTicks": 576,
            "midi": 63,
            "name": "D#4",
            "ticks": 70656,
            "time": 116.210352,
            "velocity": 0.7874015748031497
          },
          {
            "duration": 0.9473669999999998,
            "durationTicks": 576,
            "midi": 66,
            "name": "F#4",
            "ticks": 70656,
            "time": 116.210352,
            "velocity": 0.7874015748031497
          },
          {
            "duration": 0.9473669999999998,
            "durationTicks": 576,
            "midi": 75,
            "name": "D#5",
            "ticks": 70656,
            "time": 116.210352,
            "velocity": 0.7874015748031497
          },
          {
            "duration": 0.2763153749999958,
            "durationTicks": 168,
            "midi": 76,
            "name": "E5",
            "ticks": 71232,
            "time": 117.157719,
            "velocity": 0.7874015748031497
          },
          {
            "duration": 0.2763153749999958,
            "durationTicks": 168,
            "midi": 68,
            "name": "G#4",
            "ticks": 71232,
            "time": 117.157719,
            "velocity": 0.7874015748031497
          },
          {
            "duration": 0.2763153749999958,
            "durationTicks": 168,
            "midi": 64,
            "name": "E4",
            "ticks": 71232,
            "time": 117.157719,
            "velocity": 0.7874015748031497
          },
          {
            "duration": 0.9473669999999998,
            "durationTicks": 576,
            "midi": 64,
            "name": "E4",
            "ticks": 71424,
            "time": 117.473508,
            "velocity": 0.7874015748031497
          },
          {
            "duration": 0.9473669999999998,
            "durationTicks": 576,
            "midi": 76,
            "name": "E5",
            "ticks": 71424,
            "time": 117.473508,
            "velocity": 0.7874015748031497
          },
          {
            "duration": 0.9473669999999998,
            "durationTicks": 576,
            "midi": 68,
            "name": "G#4",
            "ticks": 71424,
            "time": 117.473508,
            "velocity": 0.7874015748031497
          },
          {
            "duration": 0.2763153749999958,
            "durationTicks": 168,
            "midi": 71,
            "name": "B4",
            "ticks": 72000,
            "time": 118.420875,
            "velocity": 0.7874015748031497
          },
          {
            "duration": 0.2763153749999958,
            "durationTicks": 168,
            "midi": 83,
            "name": "B5",
            "ticks": 72000,
            "time": 118.420875,
            "velocity": 0.7874015748031497
          },
          {
            "duration": 0.2763153749999958,
            "durationTicks": 168,
            "midi": 76,
            "name": "E5",
            "ticks": 72000,
            "time": 118.420875,
            "velocity": 0.7874015748031497
          },
          {
            "duration": 0.9473669999999998,
            "durationTicks": 576,
            "midi": 76,
            "name": "E5",
            "ticks": 72192,
            "time": 118.73666399999999,
            "velocity": 0.7874015748031497
          },
          {
            "duration": 0.9473669999999998,
            "durationTicks": 576,
            "midi": 83,
            "name": "B5",
            "ticks": 72192,
            "time": 118.73666399999999,
            "velocity": 0.7874015748031497
          },
          {
            "duration": 0.9473669999999998,
            "durationTicks": 576,
            "midi": 71,
            "name": "B4",
            "ticks": 72192,
            "time": 118.73666399999999,
            "velocity": 0.7874015748031497
          },
          {
            "duration": 0.1578944999999976,
            "durationTicks": 96,
            "midi": 73,
            "name": "C#5",
            "ticks": 72768,
            "time": 119.68403099999999,
            "velocity": 0.7874015748031497
          },
          {
            "duration": 0.1578944999999976,
            "durationTicks": 96,
            "midi": 69,
            "name": "A4",
            "ticks": 72768,
            "time": 119.68403099999999,
            "velocity": 0.7874015748031497
          },
          {
            "duration": 0.1578944999999976,
            "durationTicks": 96,
            "midi": 81,
            "name": "A5",
            "ticks": 72768,
            "time": 119.68403099999999,
            "velocity": 0.7874015748031497
          },
          {
            "duration": 0.15789450000001182,
            "durationTicks": 96,
            "midi": 80,
            "name": "G#5",
            "ticks": 72864,
            "time": 119.84192549999999,
            "velocity": 0.7874015748031497
          },
          {
            "duration": 0.15789450000001182,
            "durationTicks": 96,
            "midi": 68,
            "name": "G#4",
            "ticks": 72864,
            "time": 119.84192549999999,
            "velocity": 0.7874015748031497
          },
          {
            "duration": 0.15789450000001182,
            "durationTicks": 96,
            "midi": 71,
            "name": "B4",
            "ticks": 72864,
            "time": 119.84192549999999,
            "velocity": 0.7874015748031497
          },
          {
            "duration": 0.3157889999999952,
            "durationTicks": 192,
            "midi": 69,
            "name": "A4",
            "ticks": 72960,
            "time": 119.99982,
            "velocity": 0.7874015748031497
          },
          {
            "duration": 0.3157889999999952,
            "durationTicks": 192,
            "midi": 66,
            "name": "F#4",
            "ticks": 72960,
            "time": 119.99982,
            "velocity": 0.7874015748031497
          },
          {
            "duration": 0.3157889999999952,
            "durationTicks": 192,
            "midi": 78,
            "name": "F#5",
            "ticks": 72960,
            "time": 119.99982,
            "velocity": 0.7874015748031497
          },
          {
            "duration": 0.3157889999999952,
            "durationTicks": 192,
            "midi": 64,
            "name": "E4",
            "ticks": 73152,
            "time": 120.315609,
            "velocity": 0.7874015748031497
          },
          {
            "duration": 0.3157889999999952,
            "durationTicks": 192,
            "midi": 76,
            "name": "E5",
            "ticks": 73152,
            "time": 120.315609,
            "velocity": 0.7874015748031497
          },
          {
            "duration": 0.3157889999999952,
            "durationTicks": 192,
            "midi": 68,
            "name": "G#4",
            "ticks": 73152,
            "time": 120.315609,
            "velocity": 0.7874015748031497
          },
          {
            "duration": 0.3157890000000094,
            "durationTicks": 192,
            "midi": 66,
            "name": "F#4",
            "ticks": 73344,
            "time": 120.63139799999999,
            "velocity": 0.7874015748031497
          },
          {
            "duration": 0.3157890000000094,
            "durationTicks": 192,
            "midi": 78,
            "name": "F#5",
            "ticks": 73344,
            "time": 120.63139799999999,
            "velocity": 0.7874015748031497
          },
          {
            "duration": 0.3157890000000094,
            "durationTicks": 192,
            "midi": 69,
            "name": "A4",
            "ticks": 73344,
            "time": 120.63139799999999,
            "velocity": 0.7874015748031497
          },
          {
            "duration": 0.2763153749999958,
            "durationTicks": 168,
            "midi": 71,
            "name": "B4",
            "ticks": 73536,
            "time": 120.947187,
            "velocity": 0.7874015748031497
          },
          {
            "duration": 0.2763153749999958,
            "durationTicks": 168,
            "midi": 80,
            "name": "G#5",
            "ticks": 73536,
            "time": 120.947187,
            "velocity": 0.7874015748031497
          },
          {
            "duration": 0.2763153749999958,
            "durationTicks": 168,
            "midi": 68,
            "name": "G#4",
            "ticks": 73536,
            "time": 120.947187,
            "velocity": 0.7874015748031497
          },
          {
            "duration": 0.6315780000000046,
            "durationTicks": 384,
            "midi": 81,
            "name": "A5",
            "ticks": 73728,
            "time": 121.262976,
            "velocity": 0.7874015748031497
          },
          {
            "duration": 0.6315780000000046,
            "durationTicks": 384,
            "midi": 69,
            "name": "A4",
            "ticks": 73728,
            "time": 121.262976,
            "velocity": 0.7874015748031497
          },
          {
            "duration": 0.6315780000000046,
            "durationTicks": 384,
            "midi": 73,
            "name": "C#5",
            "ticks": 73728,
            "time": 121.262976,
            "velocity": 0.7874015748031497
          },
          {
            "duration": 0.3157889999999952,
            "durationTicks": 192,
            "midi": 68,
            "name": "G#4",
            "ticks": 74112,
            "time": 121.894554,
            "velocity": 0.7874015748031497
          },
          {
            "duration": 0.3157889999999952,
            "durationTicks": 192,
            "midi": 71,
            "name": "B4",
            "ticks": 74112,
            "time": 121.894554,
            "velocity": 0.7874015748031497
          },
          {
            "duration": 0.3157889999999952,
            "durationTicks": 192,
            "midi": 80,
            "name": "G#5",
            "ticks": 74112,
            "time": 121.894554,
            "velocity": 0.7874015748031497
          },
          {
            "duration": 0.3157889999999952,
            "durationTicks": 192,
            "midi": 73,
            "name": "C#5",
            "ticks": 74304,
            "time": 122.210343,
            "velocity": 0.7874015748031497
          },
          {
            "duration": 0.3157889999999952,
            "durationTicks": 192,
            "midi": 61,
            "name": "C#4",
            "ticks": 74304,
            "time": 122.210343,
            "velocity": 0.7874015748031497
          },
          {
            "duration": 0.3157889999999952,
            "durationTicks": 192,
            "midi": 64,
            "name": "E4",
            "ticks": 74304,
            "time": 122.210343,
            "velocity": 0.7874015748031497
          },
          {
            "duration": 0.47368350000000703,
            "durationTicks": 288,
            "midi": 76,
            "name": "E5",
            "ticks": 74496,
            "time": 122.52613199999999,
            "velocity": 0.7874015748031497
          },
          {
            "duration": 0.47368350000000703,
            "durationTicks": 288,
            "midi": 64,
            "name": "E4",
            "ticks": 74496,
            "time": 122.52613199999999,
            "velocity": 0.7874015748031497
          },
          {
            "duration": 0.47368350000000703,
            "durationTicks": 288,
            "midi": 68,
            "name": "G#4",
            "ticks": 74496,
            "time": 122.52613199999999,
            "velocity": 0.7874015748031497
          },
          {
            "duration": 0.4736834999999928,
            "durationTicks": 288,
            "midi": 78,
            "name": "F#5",
            "ticks": 74784,
            "time": 122.9998155,
            "velocity": 0.7874015748031497
          },
          {
            "duration": 0.4736834999999928,
            "durationTicks": 288,
            "midi": 66,
            "name": "F#4",
            "ticks": 74784,
            "time": 122.9998155,
            "velocity": 0.7874015748031497
          },
          {
            "duration": 0.4736834999999928,
            "durationTicks": 288,
            "midi": 71,
            "name": "B4",
            "ticks": 74784,
            "time": 122.9998155,
            "velocity": 0.7874015748031497
          },
          {
            "duration": 0.3157890000000094,
            "durationTicks": 192,
            "midi": 80,
            "name": "G#5",
            "ticks": 75072,
            "time": 123.47349899999999,
            "velocity": 0.7874015748031497
          },
          {
            "duration": 0.3157890000000094,
            "durationTicks": 192,
            "midi": 71,
            "name": "B4",
            "ticks": 75072,
            "time": 123.47349899999999,
            "velocity": 0.7874015748031497
          },
          {
            "duration": 0.3157890000000094,
            "durationTicks": 192,
            "midi": 68,
            "name": "G#4",
            "ticks": 75072,
            "time": 123.47349899999999,
            "velocity": 0.7874015748031497
          },
          {
            "duration": 1.263155999999995,
            "durationTicks": 768,
            "midi": 66,
            "name": "F#4",
            "ticks": 75264,
            "time": 123.789288,
            "velocity": 0.7874015748031497
          },
          {
            "duration": 1.263155999999995,
            "durationTicks": 768,
            "midi": 75,
            "name": "D#5",
            "ticks": 75264,
            "time": 123.789288,
            "velocity": 0.7874015748031497
          },
          {
            "duration": 1.263155999999995,
            "durationTicks": 768,
            "midi": 71,
            "name": "B4",
            "ticks": 75264,
            "time": 123.789288,
            "velocity": 0.7874015748031497
          },
          {
            "duration": 1.263155999999995,
            "durationTicks": 768,
            "midi": 75,
            "name": "D#5",
            "ticks": 76032,
            "time": 125.052444,
            "velocity": 0.7874015748031497
          },
          {
            "duration": 1.263155999999995,
            "durationTicks": 768,
            "midi": 63,
            "name": "D#4",
            "ticks": 76032,
            "time": 125.052444,
            "velocity": 0.7874015748031497
          },
          {
            "duration": 1.263155999999995,
            "durationTicks": 768,
            "midi": 78,
            "name": "F#5",
            "ticks": 76032,
            "time": 125.052444,
            "velocity": 0.7874015748031497
          },
          {
            "duration": 1.263155999999995,
            "durationTicks": 768,
            "midi": 71,
            "name": "B4",
            "ticks": 76032,
            "time": 125.052444,
            "velocity": 0.7874015748031497
          },
          {
            "duration": 0.1578944999999976,
            "durationTicks": 96,
            "midi": 61,
            "name": "C#4",
            "ticks": 89088,
            "time": 146.526096,
            "velocity": 0.7874015748031497
          },
          {
            "duration": 0.1578944999999976,
            "durationTicks": 96,
            "midi": 68,
            "name": "G#4",
            "ticks": 89184,
            "time": 146.6839905,
            "velocity": 0.7874015748031497
          },
          {
            "duration": 0.1578944999999976,
            "durationTicks": 96,
            "midi": 73,
            "name": "C#5",
            "ticks": 89280,
            "time": 146.841885,
            "velocity": 0.7874015748031497
          },
          {
            "duration": 0.1578944999999976,
            "durationTicks": 96,
            "midi": 68,
            "name": "G#4",
            "ticks": 89376,
            "time": 146.9997795,
            "velocity": 0.7874015748031497
          },
          {
            "duration": 0.1578944999999976,
            "durationTicks": 96,
            "midi": 61,
            "name": "C#4",
            "ticks": 89472,
            "time": 147.157674,
            "velocity": 0.7874015748031497
          },
          {
            "duration": 0.1578944999999976,
            "durationTicks": 96,
            "midi": 68,
            "name": "G#4",
            "ticks": 89568,
            "time": 147.31556849999998,
            "velocity": 0.7874015748031497
          },
          {
            "duration": 0.15789450000002603,
            "durationTicks": 96,
            "midi": 73,
            "name": "C#5",
            "ticks": 89664,
            "time": 147.47346299999998,
            "velocity": 0.7874015748031497
          },
          {
            "duration": 0.1578944999999976,
            "durationTicks": 96,
            "midi": 68,
            "name": "G#4",
            "ticks": 89760,
            "time": 147.6313575,
            "velocity": 0.7874015748031497
          },
          {
            "duration": 0.1578944999999976,
            "durationTicks": 96,
            "midi": 61,
            "name": "C#4",
            "ticks": 89856,
            "time": 147.789252,
            "velocity": 0.7874015748031497
          },
          {
            "duration": 0.1578944999999976,
            "durationTicks": 96,
            "midi": 68,
            "name": "G#4",
            "ticks": 89952,
            "time": 147.9471465,
            "velocity": 0.7874015748031497
          },
          {
            "duration": 0.1578944999999976,
            "durationTicks": 96,
            "midi": 73,
            "name": "C#5",
            "ticks": 90048,
            "time": 148.105041,
            "velocity": 0.7874015748031497
          },
          {
            "duration": 0.1578944999999976,
            "durationTicks": 96,
            "midi": 68,
            "name": "G#4",
            "ticks": 90144,
            "time": 148.2629355,
            "velocity": 0.7874015748031497
          },
          {
            "duration": 0.1578944999999976,
            "durationTicks": 96,
            "midi": 61,
            "name": "C#4",
            "ticks": 90240,
            "time": 148.42083,
            "velocity": 0.7874015748031497
          },
          {
            "duration": 0.1578944999999976,
            "durationTicks": 96,
            "midi": 68,
            "name": "G#4",
            "ticks": 90336,
            "time": 148.5787245,
            "velocity": 0.7874015748031497
          },
          {
            "duration": 0.1578944999999976,
            "durationTicks": 96,
            "midi": 73,
            "name": "C#5",
            "ticks": 90432,
            "time": 148.736619,
            "velocity": 0.7874015748031497
          },
          {
            "duration": 0.1578944999999976,
            "durationTicks": 96,
            "midi": 68,
            "name": "G#4",
            "ticks": 90528,
            "time": 148.8945135,
            "velocity": 0.7874015748031497
          },
          {
            "duration": 0.1578944999999976,
            "durationTicks": 96,
            "midi": 63,
            "name": "D#4",
            "ticks": 90624,
            "time": 149.05240799999999,
            "velocity": 0.7874015748031497
          },
          {
            "duration": 0.1578944999999976,
            "durationTicks": 96,
            "midi": 68,
            "name": "G#4",
            "ticks": 90720,
            "time": 149.21030249999998,
            "velocity": 0.7874015748031497
          },
          {
            "duration": 0.15789450000002603,
            "durationTicks": 96,
            "midi": 71,
            "name": "B4",
            "ticks": 90816,
            "time": 149.36819699999998,
            "velocity": 0.7874015748031497
          },
          {
            "duration": 0.1578944999999976,
            "durationTicks": 96,
            "midi": 68,
            "name": "G#4",
            "ticks": 90912,
            "time": 149.5260915,
            "velocity": 0.7874015748031497
          },
          {
            "duration": 0.1578944999999976,
            "durationTicks": 96,
            "midi": 63,
            "name": "D#4",
            "ticks": 91008,
            "time": 149.683986,
            "velocity": 0.7874015748031497
          },
          {
            "duration": 0.1578944999999976,
            "durationTicks": 96,
            "midi": 68,
            "name": "G#4",
            "ticks": 91104,
            "time": 149.8418805,
            "velocity": 0.7874015748031497
          },
          {
            "duration": 0.1578944999999976,
            "durationTicks": 96,
            "midi": 71,
            "name": "B4",
            "ticks": 91200,
            "time": 149.999775,
            "velocity": 0.7874015748031497
          },
          {
            "duration": 0.1578944999999976,
            "durationTicks": 96,
            "midi": 68,
            "name": "G#4",
            "ticks": 91296,
            "time": 150.1576695,
            "velocity": 0.7874015748031497
          },
          {
            "duration": 0.1578944999999976,
            "durationTicks": 96,
            "midi": 63,
            "name": "D#4",
            "ticks": 91392,
            "time": 150.315564,
            "velocity": 0.7874015748031497
          },
          {
            "duration": 0.1578944999999976,
            "durationTicks": 96,
            "midi": 68,
            "name": "G#4",
            "ticks": 91488,
            "time": 150.4734585,
            "velocity": 0.7874015748031497
          },
          {
            "duration": 0.1578944999999976,
            "durationTicks": 96,
            "midi": 71,
            "name": "B4",
            "ticks": 91584,
            "time": 150.631353,
            "velocity": 0.7874015748031497
          },
          {
            "duration": 0.1578944999999976,
            "durationTicks": 96,
            "midi": 68,
            "name": "G#4",
            "ticks": 91680,
            "time": 150.7892475,
            "velocity": 0.7874015748031497
          },
          {
            "duration": 0.1578944999999976,
            "durationTicks": 96,
            "midi": 63,
            "name": "D#4",
            "ticks": 91776,
            "time": 150.94714199999999,
            "velocity": 0.7874015748031497
          },
          {
            "duration": 0.1578944999999976,
            "durationTicks": 96,
            "midi": 68,
            "name": "G#4",
            "ticks": 91872,
            "time": 151.10503649999998,
            "velocity": 0.7874015748031497
          },
          {
            "duration": 0.15789450000002603,
            "durationTicks": 96,
            "midi": 71,
            "name": "B4",
            "ticks": 91968,
            "time": 151.26293099999998,
            "velocity": 0.7874015748031497
          },
          {
            "duration": 0.1578944999999976,
            "durationTicks": 96,
            "midi": 68,
            "name": "G#4",
            "ticks": 92064,
            "time": 151.4208255,
            "velocity": 0.7874015748031497
          },
          {
            "duration": 0.1578944999999976,
            "durationTicks": 96,
            "midi": 65,
            "name": "F4",
            "ticks": 92160,
            "time": 151.57872,
            "velocity": 0.7874015748031497
          },
          {
            "duration": 0.1578944999999976,
            "durationTicks": 96,
            "midi": 68,
            "name": "G#4",
            "ticks": 92256,
            "time": 151.7366145,
            "velocity": 0.7874015748031497
          },
          {
            "duration": 0.1578944999999976,
            "durationTicks": 96,
            "midi": 73,
            "name": "C#5",
            "ticks": 92352,
            "time": 151.894509,
            "velocity": 0.7874015748031497
          },
          {
            "duration": 0.1578944999999976,
            "durationTicks": 96,
            "midi": 68,
            "name": "G#4",
            "ticks": 92448,
            "time": 152.0524035,
            "velocity": 0.7874015748031497
          },
          {
            "duration": 0.1578944999999976,
            "durationTicks": 96,
            "midi": 65,
            "name": "F4",
            "ticks": 92544,
            "time": 152.210298,
            "velocity": 0.7874015748031497
          },
          {
            "duration": 0.1578944999999976,
            "durationTicks": 96,
            "midi": 68,
            "name": "G#4",
            "ticks": 92640,
            "time": 152.3681925,
            "velocity": 0.7874015748031497
          },
          {
            "duration": 0.1578944999999976,
            "durationTicks": 96,
            "midi": 73,
            "name": "C#5",
            "ticks": 92736,
            "time": 152.526087,
            "velocity": 0.7874015748031497
          },
          {
            "duration": 0.1578944999999976,
            "durationTicks": 96,
            "midi": 68,
            "name": "G#4",
            "ticks": 92832,
            "time": 152.6839815,
            "velocity": 0.7874015748031497
          },
          {
            "duration": 0.1578944999999976,
            "durationTicks": 96,
            "midi": 66,
            "name": "F#4",
            "ticks": 92928,
            "time": 152.84187599999998,
            "velocity": 0.7874015748031497
          },
          {
            "duration": 0.1578944999999976,
            "durationTicks": 96,
            "midi": 68,
            "name": "G#4",
            "ticks": 93024,
            "time": 152.99977049999998,
            "velocity": 0.7874015748031497
          },
          {
            "duration": 0.15789450000002603,
            "durationTicks": 96,
            "midi": 73,
            "name": "C#5",
            "ticks": 93120,
            "time": 153.15766499999998,
            "velocity": 0.7874015748031497
          },
          {
            "duration": 0.1578944999999976,
            "durationTicks": 96,
            "midi": 68,
            "name": "G#4",
            "ticks": 93216,
            "time": 153.3155595,
            "velocity": 0.7874015748031497
          },
          {
            "duration": 0.1578944999999976,
            "durationTicks": 96,
            "midi": 66,
            "name": "F#4",
            "ticks": 93312,
            "time": 153.473454,
            "velocity": 0.7874015748031497
          },
          {
            "duration": 0.1578944999999976,
            "durationTicks": 96,
            "midi": 68,
            "name": "G#4",
            "ticks": 93408,
            "time": 153.6313485,
            "velocity": 0.7874015748031497
          },
          {
            "duration": 0.1578944999999976,
            "durationTicks": 96,
            "midi": 73,
            "name": "C#5",
            "ticks": 93504,
            "time": 153.789243,
            "velocity": 0.7874015748031497
          },
          {
            "duration": 0.1578944999999976,
            "durationTicks": 96,
            "midi": 68,
            "name": "G#4",
            "ticks": 93600,
            "time": 153.9471375,
            "velocity": 0.7874015748031497
          },
          {
            "duration": 0.1578944999999976,
            "durationTicks": 96,
            "midi": 64,
            "name": "E4",
            "ticks": 93696,
            "time": 154.105032,
            "velocity": 0.7874015748031497
          },
          {
            "duration": 0.1578944999999976,
            "durationTicks": 96,
            "midi": 68,
            "name": "G#4",
            "ticks": 93792,
            "time": 154.2629265,
            "velocity": 0.7874015748031497
          },
          {
            "duration": 0.1578944999999976,
            "durationTicks": 96,
            "midi": 73,
            "name": "C#5",
            "ticks": 93888,
            "time": 154.420821,
            "velocity": 0.7874015748031497
          },
          {
            "duration": 0.1578944999999976,
            "durationTicks": 96,
            "midi": 68,
            "name": "G#4",
            "ticks": 93984,
            "time": 154.5787155,
            "velocity": 0.7874015748031497
          },
          {
            "duration": 0.1578944999999976,
            "durationTicks": 96,
            "midi": 64,
            "name": "E4",
            "ticks": 94080,
            "time": 154.73660999999998,
            "velocity": 0.7874015748031497
          },
          {
            "duration": 0.1578944999999976,
            "durationTicks": 96,
            "midi": 68,
            "name": "G#4",
            "ticks": 94176,
            "time": 154.89450449999998,
            "velocity": 0.7874015748031497
          },
          {
            "duration": 0.15789450000002603,
            "durationTicks": 96,
            "midi": 73,
            "name": "C#5",
            "ticks": 94272,
            "time": 155.05239899999998,
            "velocity": 0.7874015748031497
          },
          {
            "duration": 0.1578944999999976,
            "durationTicks": 96,
            "midi": 68,
            "name": "G#4",
            "ticks": 94368,
            "time": 155.2102935,
            "velocity": 0.7874015748031497
          },
          {
            "duration": 0.1578944999999976,
            "durationTicks": 96,
            "midi": 64,
            "name": "E4",
            "ticks": 94464,
            "time": 155.368188,
            "velocity": 0.7874015748031497
          },
          {
            "duration": 0.1578944999999976,
            "durationTicks": 96,
            "midi": 68,
            "name": "G#4",
            "ticks": 94560,
            "time": 155.5260825,
            "velocity": 0.7874015748031497
          },
          {
            "duration": 0.1578944999999976,
            "durationTicks": 96,
            "midi": 73,
            "name": "C#5",
            "ticks": 94656,
            "time": 155.683977,
            "velocity": 0.7874015748031497
          },
          {
            "duration": 0.1578944999999976,
            "durationTicks": 96,
            "midi": 68,
            "name": "G#4",
            "ticks": 94752,
            "time": 155.8418715,
            "velocity": 0.7874015748031497
          },
          {
            "duration": 0.1578944999999976,
            "durationTicks": 96,
            "midi": 64,
            "name": "E4",
            "ticks": 94848,
            "time": 155.999766,
            "velocity": 0.7874015748031497
          },
          {
            "duration": 0.1578944999999976,
            "durationTicks": 96,
            "midi": 68,
            "name": "G#4",
            "ticks": 94944,
            "time": 156.1576605,
            "velocity": 0.7874015748031497
          },
          {
            "duration": 0.1578944999999976,
            "durationTicks": 96,
            "midi": 73,
            "name": "C#5",
            "ticks": 95040,
            "time": 156.315555,
            "velocity": 0.7874015748031497
          },
          {
            "duration": 0.1578944999999976,
            "durationTicks": 96,
            "midi": 68,
            "name": "G#4",
            "ticks": 95136,
            "time": 156.4734495,
            "velocity": 0.7874015748031497
          },
          {
            "duration": 0.1578944999999976,
            "durationTicks": 96,
            "midi": 64,
            "name": "E4",
            "ticks": 95232,
            "time": 156.63134399999998,
            "velocity": 0.7874015748031497
          },
          {
            "duration": 0.1578944999999976,
            "durationTicks": 96,
            "midi": 68,
            "name": "G#4",
            "ticks": 95328,
            "time": 156.78923849999998,
            "velocity": 0.7874015748031497
          },
          {
            "duration": 0.15789450000002603,
            "durationTicks": 96,
            "midi": 73,
            "name": "C#5",
            "ticks": 95424,
            "time": 156.94713299999998,
            "velocity": 0.7874015748031497
          },
          {
            "duration": 0.1578944999999976,
            "durationTicks": 96,
            "midi": 68,
            "name": "G#4",
            "ticks": 95520,
            "time": 157.1050275,
            "velocity": 0.7874015748031497
          },
          {
            "duration": 0.1578944999999976,
            "durationTicks": 96,
            "midi": 64,
            "name": "E4",
            "ticks": 95616,
            "time": 157.262922,
            "velocity": 0.7874015748031497
          },
          {
            "duration": 0.1578944999999976,
            "durationTicks": 96,
            "midi": 68,
            "name": "G#4",
            "ticks": 95712,
            "time": 157.4208165,
            "velocity": 0.7874015748031497
          },
          {
            "duration": 0.1578944999999976,
            "durationTicks": 96,
            "midi": 73,
            "name": "C#5",
            "ticks": 95808,
            "time": 157.578711,
            "velocity": 0.7874015748031497
          },
          {
            "duration": 0.1578944999999976,
            "durationTicks": 96,
            "midi": 68,
            "name": "G#4",
            "ticks": 95904,
            "time": 157.7366055,
            "velocity": 0.7874015748031497
          },
          {
            "duration": 0.1578944999999976,
            "durationTicks": 96,
            "midi": 64,
            "name": "E4",
            "ticks": 96000,
            "time": 157.8945,
            "velocity": 0.7874015748031497
          },
          {
            "duration": 0.1578944999999976,
            "durationTicks": 96,
            "midi": 68,
            "name": "G#4",
            "ticks": 96096,
            "time": 158.0523945,
            "velocity": 0.7874015748031497
          },
          {
            "duration": 0.1578944999999976,
            "durationTicks": 96,
            "midi": 73,
            "name": "C#5",
            "ticks": 96192,
            "time": 158.210289,
            "velocity": 0.7874015748031497
          },
          {
            "duration": 0.1578944999999976,
            "durationTicks": 96,
            "midi": 68,
            "name": "G#4",
            "ticks": 96288,
            "time": 158.3681835,
            "velocity": 0.7874015748031497
          },
          {
            "duration": 0.1578944999999976,
            "durationTicks": 96,
            "midi": 64,
            "name": "E4",
            "ticks": 96384,
            "time": 158.52607799999998,
            "velocity": 0.7874015748031497
          },
          {
            "duration": 0.1578944999999976,
            "durationTicks": 96,
            "midi": 68,
            "name": "G#4",
            "ticks": 96480,
            "time": 158.68397249999998,
            "velocity": 0.7874015748031497
          },
          {
            "duration": 0.15789450000002603,
            "durationTicks": 96,
            "midi": 73,
            "name": "C#5",
            "ticks": 96576,
            "time": 158.84186699999998,
            "velocity": 0.7874015748031497
          },
          {
            "duration": 0.1578944999999976,
            "durationTicks": 96,
            "midi": 68,
            "name": "G#4",
            "ticks": 96672,
            "time": 158.9997615,
            "velocity": 0.7874015748031497
          },
          {
            "duration": 0.1578944999999976,
            "durationTicks": 96,
            "midi": 66,
            "name": "F#4",
            "ticks": 96768,
            "time": 159.157656,
            "velocity": 0.7874015748031497
          },
          {
            "duration": 0.1578944999999976,
            "durationTicks": 96,
            "midi": 71,
            "name": "B4",
            "ticks": 96864,
            "time": 159.3155505,
            "velocity": 0.7874015748031497
          },
          {
            "duration": 0.1578944999999976,
            "durationTicks": 96,
            "midi": 75,
            "name": "D#5",
            "ticks": 96960,
            "time": 159.473445,
            "velocity": 0.7874015748031497
          },
          {
            "duration": 0.1578944999999976,
            "durationTicks": 96,
            "midi": 71,
            "name": "B4",
            "ticks": 97056,
            "time": 159.6313395,
            "velocity": 0.7874015748031497
          },
          {
            "duration": 0.1578944999999976,
            "durationTicks": 96,
            "midi": 66,
            "name": "F#4",
            "ticks": 97152,
            "time": 159.789234,
            "velocity": 0.7874015748031497
          },
          {
            "duration": 0.1578944999999976,
            "durationTicks": 96,
            "midi": 71,
            "name": "B4",
            "ticks": 97248,
            "time": 159.9471285,
            "velocity": 0.7874015748031497
          },
          {
            "duration": 0.1578944999999976,
            "durationTicks": 96,
            "midi": 75,
            "name": "D#5",
            "ticks": 97344,
            "time": 160.105023,
            "velocity": 0.7874015748031497
          },
          {
            "duration": 0.1578944999999976,
            "durationTicks": 96,
            "midi": 71,
            "name": "B4",
            "ticks": 97440,
            "time": 160.2629175,
            "velocity": 0.7874015748031497
          },
          {
            "duration": 0.1578944999999976,
            "durationTicks": 96,
            "midi": 66,
            "name": "F#4",
            "ticks": 97536,
            "time": 160.42081199999998,
            "velocity": 0.7874015748031497
          },
          {
            "duration": 0.1578944999999976,
            "durationTicks": 96,
            "midi": 71,
            "name": "B4",
            "ticks": 97632,
            "time": 160.57870649999998,
            "velocity": 0.7874015748031497
          },
          {
            "duration": 0.15789450000002603,
            "durationTicks": 96,
            "midi": 75,
            "name": "D#5",
            "ticks": 97728,
            "time": 160.73660099999998,
            "velocity": 0.7874015748031497
          },
          {
            "duration": 0.1578944999999976,
            "durationTicks": 96,
            "midi": 66,
            "name": "F#4",
            "ticks": 97824,
            "time": 160.8944955,
            "velocity": 0.7874015748031497
          },
          {
            "duration": 0.1578944999999976,
            "durationTicks": 96,
            "midi": 71,
            "name": "B4",
            "ticks": 97824,
            "time": 160.8944955,
            "velocity": 0.7874015748031497
          },
          {
            "duration": 0.1578944999999976,
            "durationTicks": 96,
            "midi": 71,
            "name": "B4",
            "ticks": 98016,
            "time": 161.2102845,
            "velocity": 0.7874015748031497
          },
          {
            "duration": 0.1578944999999976,
            "durationTicks": 96,
            "midi": 75,
            "name": "D#5",
            "ticks": 98112,
            "time": 161.368179,
            "velocity": 0.7874015748031497
          },
          {
            "duration": 0.1578944999999976,
            "durationTicks": 96,
            "midi": 71,
            "name": "B4",
            "ticks": 98208,
            "time": 161.5260735,
            "velocity": 0.7874015748031497
          },
          {
            "duration": 0.1578944999999976,
            "durationTicks": 96,
            "midi": 68,
            "name": "G#4",
            "ticks": 98304,
            "time": 161.683968,
            "velocity": 0.7874015748031497
          },
          {
            "duration": 0.1578944999999976,
            "durationTicks": 96,
            "midi": 73,
            "name": "C#5",
            "ticks": 98400,
            "time": 161.8418625,
            "velocity": 0.7874015748031497
          },
          {
            "duration": 0.1578944999999976,
            "durationTicks": 96,
            "midi": 76,
            "name": "E5",
            "ticks": 98496,
            "time": 161.999757,
            "velocity": 0.7874015748031497
          },
          {
            "duration": 0.1578944999999976,
            "durationTicks": 96,
            "midi": 73,
            "name": "C#5",
            "ticks": 98592,
            "time": 162.1576515,
            "velocity": 0.7874015748031497
          },
          {
            "duration": 0.1578944999999976,
            "durationTicks": 96,
            "midi": 68,
            "name": "G#4",
            "ticks": 98688,
            "time": 162.31554599999998,
            "velocity": 0.7874015748031497
          },
          {
            "duration": 0.15789450000002603,
            "durationTicks": 96,
            "midi": 73,
            "name": "C#5",
            "ticks": 98784,
            "time": 162.47344049999998,
            "velocity": 0.7874015748031497
          },
          {
            "duration": 0.1578944999999976,
            "durationTicks": 96,
            "midi": 76,
            "name": "E5",
            "ticks": 98880,
            "time": 162.631335,
            "velocity": 0.7874015748031497
          },
          {
            "duration": 0.1578944999999976,
            "durationTicks": 96,
            "midi": 73,
            "name": "C#5",
            "ticks": 98976,
            "time": 162.7892295,
            "velocity": 0.7874015748031497
          },
          {
            "duration": 0.1578944999999976,
            "durationTicks": 96,
            "midi": 68,
            "name": "G#4",
            "ticks": 99072,
            "time": 162.947124,
            "velocity": 0.7874015748031497
          },
          {
            "duration": 0.1578944999999976,
            "durationTicks": 96,
            "midi": 73,
            "name": "C#5",
            "ticks": 99168,
            "time": 163.1050185,
            "velocity": 0.7874015748031497
          },
          {
            "duration": 0.1578944999999976,
            "durationTicks": 96,
            "midi": 76,
            "name": "E5",
            "ticks": 99264,
            "time": 163.262913,
            "velocity": 0.7874015748031497
          },
          {
            "duration": 0.1578944999999976,
            "durationTicks": 96,
            "midi": 73,
            "name": "C#5",
            "ticks": 99360,
            "time": 163.4208075,
            "velocity": 0.7874015748031497
          },
          {
            "duration": 0.1578944999999976,
            "durationTicks": 96,
            "midi": 68,
            "name": "G#4",
            "ticks": 99456,
            "time": 163.578702,
            "velocity": 0.7874015748031497
          },
          {
            "duration": 0.1578944999999976,
            "durationTicks": 96,
            "midi": 73,
            "name": "C#5",
            "ticks": 99552,
            "time": 163.7365965,
            "velocity": 0.7874015748031497
          },
          {
            "duration": 0.1578944999999976,
            "durationTicks": 96,
            "midi": 76,
            "name": "E5",
            "ticks": 99648,
            "time": 163.894491,
            "velocity": 0.7874015748031497
          },
          {
            "duration": 0.1578944999999976,
            "durationTicks": 96,
            "midi": 73,
            "name": "C#5",
            "ticks": 99744,
            "time": 164.05238549999999,
            "velocity": 0.7874015748031497
          },
          {
            "duration": 0.1578944999999976,
            "durationTicks": 96,
            "midi": 71,
            "name": "B4",
            "ticks": 99840,
            "time": 164.21027999999998,
            "velocity": 0.7874015748031497
          },
          {
            "duration": 0.15789450000002603,
            "durationTicks": 96,
            "midi": 75,
            "name": "D#5",
            "ticks": 99936,
            "time": 164.36817449999998,
            "velocity": 0.7874015748031497
          },
          {
            "duration": 0.1578944999999976,
            "durationTicks": 96,
            "midi": 78,
            "name": "F#5",
            "ticks": 100032,
            "time": 164.526069,
            "velocity": 0.7874015748031497
          },
          {
            "duration": 0.1578944999999976,
            "durationTicks": 96,
            "midi": 75,
            "name": "D#5",
            "ticks": 100128,
            "time": 164.6839635,
            "velocity": 0.7874015748031497
          },
          {
            "duration": 0.1578944999999976,
            "durationTicks": 96,
            "midi": 71,
            "name": "B4",
            "ticks": 100224,
            "time": 164.841858,
            "velocity": 0.7874015748031497
          },
          {
            "duration": 0.1578944999999976,
            "durationTicks": 96,
            "midi": 75,
            "name": "D#5",
            "ticks": 100320,
            "time": 164.9997525,
            "velocity": 0.7874015748031497
          },
          {
            "duration": 0.1578944999999976,
            "durationTicks": 96,
            "midi": 78,
            "name": "F#5",
            "ticks": 100416,
            "time": 165.157647,
            "velocity": 0.7874015748031497
          },
          {
            "duration": 0.1578944999999976,
            "durationTicks": 96,
            "midi": 75,
            "name": "D#5",
            "ticks": 100512,
            "time": 165.3155415,
            "velocity": 0.7874015748031497
          },
          {
            "duration": 0.1578944999999976,
            "durationTicks": 96,
            "midi": 71,
            "name": "B4",
            "ticks": 100608,
            "time": 165.473436,
            "velocity": 0.7874015748031497
          },
          {
            "duration": 0.1578944999999976,
            "durationTicks": 96,
            "midi": 75,
            "name": "D#5",
            "ticks": 100704,
            "time": 165.6313305,
            "velocity": 0.7874015748031497
          },
          {
            "duration": 0.1578944999999976,
            "durationTicks": 96,
            "midi": 78,
            "name": "F#5",
            "ticks": 100800,
            "time": 165.789225,
            "velocity": 0.7874015748031497
          },
          {
            "duration": 0.1578944999999976,
            "durationTicks": 96,
            "midi": 75,
            "name": "D#5",
            "ticks": 100896,
            "time": 165.94711949999999,
            "velocity": 0.7874015748031497
          },
          {
            "duration": 0.1578944999999976,
            "durationTicks": 96,
            "midi": 71,
            "name": "B4",
            "ticks": 100992,
            "time": 166.10501399999998,
            "velocity": 0.7874015748031497
          },
          {
            "duration": 0.15789450000002603,
            "durationTicks": 96,
            "midi": 75,
            "name": "D#5",
            "ticks": 101088,
            "time": 166.26290849999998,
            "velocity": 0.7874015748031497
          },
          {
            "duration": 0.1578944999999976,
            "durationTicks": 96,
            "midi": 78,
            "name": "F#5",
            "ticks": 101184,
            "time": 166.420803,
            "velocity": 0.7874015748031497
          },
          {
            "duration": 0.1578944999999976,
            "durationTicks": 96,
            "midi": 75,
            "name": "D#5",
            "ticks": 101280,
            "time": 166.5786975,
            "velocity": 0.7874015748031497
          },
          {
            "duration": 0.0394736249999994,
            "durationTicks": 24,
            "midi": 52,
            "name": "E3",
            "ticks": 101424,
            "time": 166.81553925,
            "velocity": 0.7874015748031497
          },
          {
            "duration": 0.0394736249999994,
            "durationTicks": 24,
            "midi": 56,
            "name": "G#3",
            "ticks": 101472,
            "time": 166.8944865,
            "velocity": 0.7874015748031497
          },
          {
            "duration": 0.0394736249999994,
            "durationTicks": 24,
            "midi": 61,
            "name": "C#4",
            "ticks": 101520,
            "time": 166.97343375,
            "velocity": 0.7874015748031497
          },
          {
            "duration": 0.0394736249999994,
            "durationTicks": 24,
            "midi": 64,
            "name": "E4",
            "ticks": 101568,
            "time": 167.052381,
            "velocity": 0.7874015748031497
          },
          {
            "duration": 0.0394736249999994,
            "durationTicks": 24,
            "midi": 68,
            "name": "G#4",
            "ticks": 101616,
            "time": 167.13132825,
            "velocity": 0.7874015748031497
          },
          {
            "duration": 0.0394736249999994,
            "durationTicks": 24,
            "midi": 73,
            "name": "C#5",
            "ticks": 101664,
            "time": 167.2102755,
            "velocity": 0.7874015748031497
          },
          {
            "duration": 0.0394736249999994,
            "durationTicks": 24,
            "midi": 80,
            "name": "G#5",
            "ticks": 101712,
            "time": 167.28922275,
            "velocity": 0.7874015748031497
          },
          {
            "duration": 0.0394736249999994,
            "durationTicks": 24,
            "midi": 50,
            "name": "D3",
            "ticks": 104448,
            "time": 171.78921599999998,
            "velocity": 0.7874015748031497
          },
          {
            "duration": 0.0394736249999994,
            "durationTicks": 24,
            "midi": 57,
            "name": "A3",
            "ticks": 104496,
            "time": 171.86816324999998,
            "velocity": 0.7874015748031497
          },
          {
            "duration": 0.0394736249999994,
            "durationTicks": 24,
            "midi": 62,
            "name": "D4",
            "ticks": 104544,
            "time": 171.94711049999998,
            "velocity": 0.7874015748031497
          },
          {
            "duration": 0.0394736249999994,
            "durationTicks": 24,
            "midi": 66,
            "name": "F#4",
            "ticks": 104592,
            "time": 172.02605775,
            "velocity": 0.7874015748031497
          },
          {
            "duration": 0.0394736249999994,
            "durationTicks": 24,
            "midi": 69,
            "name": "A4",
            "ticks": 104640,
            "time": 172.105005,
            "velocity": 0.7874015748031497
          },
          {
            "duration": 0.0394736249999994,
            "durationTicks": 24,
            "midi": 74,
            "name": "D5",
            "ticks": 104688,
            "time": 172.18395225,
            "velocity": 0.7874015748031497
          },
          {
            "duration": 0.0394736249999994,
            "durationTicks": 24,
            "midi": 78,
            "name": "F#5",
            "ticks": 104736,
            "time": 172.2628995,
            "velocity": 0.7874015748031497
          },
          {
            "duration": 0.0394736249999994,
            "durationTicks": 24,
            "midi": 81,
            "name": "A5",
            "ticks": 104784,
            "time": 172.34184675,
            "velocity": 0.7874015748031497
          }
        ],
        "endOfTrackTicks": 104808
      },
      {
        "channel": 1,
        "controlChanges": {},
        "pitchBends": [],
        "instrument": {
          "family": "synth lead",
          "number": 81,
          "name": "lead 2 (sawtooth)"
        },
        "name": "8-Bit Sawtooth",
        "notes": [
          {
            "duration": 0.1578944999999976,
            "durationTicks": 96,
            "midi": 37,
            "name": "C#2",
            "ticks": 39936,
            "time": 65.684112,
            "velocity": 0.3937007874015748
          },
          {
            "duration": 0.3157889999999952,
            "durationTicks": 192,
            "midi": 32,
            "name": "G#1",
            "ticks": 40032,
            "time": 65.8420065,
            "velocity": 0.3937007874015748
          },
          {
            "duration": 0.15789450000001182,
            "durationTicks": 96,
            "midi": 37,
            "name": "C#2",
            "ticks": 40224,
            "time": 66.15779549999999,
            "velocity": 0.3937007874015748
          },
          {
            "duration": 0.3157889999999952,
            "durationTicks": 192,
            "midi": 32,
            "name": "G#1",
            "ticks": 40320,
            "time": 66.31569,
            "velocity": 0.3937007874015748
          },
          {
            "duration": 0.1578944999999976,
            "durationTicks": 96,
            "midi": 37,
            "name": "C#2",
            "ticks": 40512,
            "time": 66.631479,
            "velocity": 0.3937007874015748
          },
          {
            "duration": 0.3157889999999952,
            "durationTicks": 192,
            "midi": 32,
            "name": "G#1",
            "ticks": 40608,
            "time": 66.7893735,
            "velocity": 0.3937007874015748
          },
          {
            "duration": 0.15789450000001182,
            "durationTicks": 96,
            "midi": 37,
            "name": "C#2",
            "ticks": 40800,
            "time": 67.10516249999999,
            "velocity": 0.3937007874015748
          },
          {
            "duration": 0.3157889999999952,
            "durationTicks": 192,
            "midi": 32,
            "name": "G#1",
            "ticks": 40896,
            "time": 67.263057,
            "velocity": 0.3937007874015748
          },
          {
            "duration": 0.1578944999999976,
            "durationTicks": 96,
            "midi": 37,
            "name": "C#2",
            "ticks": 41088,
            "time": 67.578846,
            "velocity": 0.3937007874015748
          },
          {
            "duration": 0.3157889999999952,
            "durationTicks": 192,
            "midi": 32,
            "name": "G#1",
            "ticks": 41184,
            "time": 67.7367405,
            "velocity": 0.3937007874015748
          },
          {
            "duration": 0.15789450000001182,
            "durationTicks": 96,
            "midi": 37,
            "name": "C#2",
            "ticks": 41376,
            "time": 68.05252949999999,
            "velocity": 0.3937007874015748
          },
          {
            "duration": 0.1578944999999976,
            "durationTicks": 96,
            "midi": 38,
            "name": "D2",
            "ticks": 41472,
            "time": 68.210424,
            "velocity": 0.3937007874015748
          },
          {
            "duration": 0.3157889999999952,
            "durationTicks": 192,
            "midi": 33,
            "name": "A1",
            "ticks": 41568,
            "time": 68.3683185,
            "velocity": 0.3937007874015748
          },
          {
            "duration": 0.1578944999999976,
            "durationTicks": 96,
            "midi": 38,
            "name": "D2",
            "ticks": 41760,
            "time": 68.6841075,
            "velocity": 0.3937007874015748
          },
          {
            "duration": 0.3157890000000094,
            "durationTicks": 192,
            "midi": 33,
            "name": "A1",
            "ticks": 41856,
            "time": 68.842002,
            "velocity": 0.3937007874015748
          },
          {
            "duration": 0.1578944999999976,
            "durationTicks": 96,
            "midi": 38,
            "name": "D2",
            "ticks": 42048,
            "time": 69.157791,
            "velocity": 0.3937007874015748
          },
          {
            "duration": 0.3157889999999952,
            "durationTicks": 192,
            "midi": 33,
            "name": "A1",
            "ticks": 42144,
            "time": 69.3156855,
            "velocity": 0.3937007874015748
          },
          {
            "duration": 0.1578944999999976,
            "durationTicks": 96,
            "midi": 38,
            "name": "D2",
            "ticks": 42336,
            "time": 69.6314745,
            "velocity": 0.3937007874015748
          },
          {
            "duration": 0.3157890000000094,
            "durationTicks": 192,
            "midi": 33,
            "name": "A1",
            "ticks": 42432,
            "time": 69.789369,
            "velocity": 0.3937007874015748
          },
          {
            "duration": 0.1578944999999976,
            "durationTicks": 96,
            "midi": 38,
            "name": "D2",
            "ticks": 42624,
            "time": 70.105158,
            "velocity": 0.3937007874015748
          },
          {
            "duration": 0.3157889999999952,
            "durationTicks": 192,
            "midi": 33,
            "name": "A1",
            "ticks": 42720,
            "time": 70.2630525,
            "velocity": 0.3937007874015748
          },
          {
            "duration": 0.1578944999999976,
            "durationTicks": 96,
            "midi": 38,
            "name": "D2",
            "ticks": 42912,
            "time": 70.5788415,
            "velocity": 0.3937007874015748
          },
          {
            "duration": 0.1578944999999976,
            "durationTicks": 96,
            "midi": 35,
            "name": "B1",
            "ticks": 43008,
            "time": 70.736736,
            "velocity": 0.3937007874015748
          },
          {
            "duration": 0.3157890000000094,
            "durationTicks": 192,
            "midi": 30,
            "name": "F#1",
            "ticks": 43104,
            "time": 70.89463049999999,
            "velocity": 0.3937007874015748
          },
          {
            "duration": 0.1578944999999976,
            "durationTicks": 96,
            "midi": 35,
            "name": "B1",
            "ticks": 43296,
            "time": 71.2104195,
            "velocity": 0.3937007874015748
          },
          {
            "duration": 0.3157889999999952,
            "durationTicks": 192,
            "midi": 30,
            "name": "F#1",
            "ticks": 43392,
            "time": 71.368314,
            "velocity": 0.3937007874015748
          },
          {
            "duration": 0.1578944999999976,
            "durationTicks": 96,
            "midi": 35,
            "name": "B1",
            "ticks": 43584,
            "time": 71.684103,
            "velocity": 0.3937007874015748
          },
          {
            "duration": 0.3157890000000094,
            "durationTicks": 192,
            "midi": 30,
            "name": "F#1",
            "ticks": 43680,
            "time": 71.84199749999999,
            "velocity": 0.3937007874015748
          },
          {
            "duration": 0.1578944999999976,
            "durationTicks": 96,
            "midi": 35,
            "name": "B1",
            "ticks": 43872,
            "time": 72.1577865,
            "velocity": 0.3937007874015748
          },
          {
            "duration": 0.3157889999999952,
            "durationTicks": 192,
            "midi": 30,
            "name": "F#1",
            "ticks": 43968,
            "time": 72.315681,
            "velocity": 0.3937007874015748
          },
          {
            "duration": 0.1578944999999976,
            "durationTicks": 96,
            "midi": 35,
            "name": "B1",
            "ticks": 44160,
            "time": 72.63147,
            "velocity": 0.3937007874015748
          },
          {
            "duration": 0.3157890000000094,
            "durationTicks": 192,
            "midi": 30,
            "name": "F#1",
            "ticks": 44256,
            "time": 72.78936449999999,
            "velocity": 0.3937007874015748
          },
          {
            "duration": 0.1578944999999976,
            "durationTicks": 96,
            "midi": 35,
            "name": "B1",
            "ticks": 44448,
            "time": 73.1051535,
            "velocity": 0.3937007874015748
          },
          {
            "duration": 0.1578944999999976,
            "durationTicks": 96,
            "midi": 33,
            "name": "A1",
            "ticks": 44544,
            "time": 73.263048,
            "velocity": 0.3937007874015748
          },
          {
            "duration": 0.3157889999999952,
            "durationTicks": 192,
            "midi": 28,
            "name": "E1",
            "ticks": 44640,
            "time": 73.4209425,
            "velocity": 0.3937007874015748
          },
          {
            "duration": 0.15789450000001182,
            "durationTicks": 96,
            "midi": 33,
            "name": "A1",
            "ticks": 44832,
            "time": 73.73673149999999,
            "velocity": 0.3937007874015748
          },
          {
            "duration": 0.3157889999999952,
            "durationTicks": 192,
            "midi": 28,
            "name": "E1",
            "ticks": 44928,
            "time": 73.894626,
            "velocity": 0.3937007874015748
          },
          {
            "duration": 0.1578944999999976,
            "durationTicks": 96,
            "midi": 33,
            "name": "A1",
            "ticks": 45120,
            "time": 74.210415,
            "velocity": 0.3937007874015748
          },
          {
            "duration": 0.3157889999999952,
            "durationTicks": 192,
            "midi": 28,
            "name": "E1",
            "ticks": 45216,
            "time": 74.3683095,
            "velocity": 0.3937007874015748
          },
          {
            "duration": 0.15789450000001182,
            "durationTicks": 96,
            "midi": 35,
            "name": "B1",
            "ticks": 45408,
            "time": 74.68409849999999,
            "velocity": 0.3937007874015748
          },
          {
            "duration": 0.3157889999999952,
            "durationTicks": 192,
            "midi": 30,
            "name": "F#1",
            "ticks": 45504,
            "time": 74.841993,
            "velocity": 0.3937007874015748
          },
          {
            "duration": 0.1578944999999976,
            "durationTicks": 96,
            "midi": 35,
            "name": "B1",
            "ticks": 45696,
            "time": 75.157782,
            "velocity": 0.3937007874015748
          },
          {
            "duration": 0.3157889999999952,
            "durationTicks": 192,
            "midi": 30,
            "name": "F#1",
            "ticks": 45792,
            "time": 75.3156765,
            "velocity": 0.3937007874015748
          },
          {
            "duration": 0.15789450000001182,
            "durationTicks": 96,
            "midi": 35,
            "name": "B1",
            "ticks": 45984,
            "time": 75.63146549999999,
            "velocity": 0.3937007874015748
          },
          {
            "duration": 0.1578944999999976,
            "durationTicks": 96,
            "midi": 37,
            "name": "C#2",
            "ticks": 46080,
            "time": 75.78936,
            "velocity": 0.3937007874015748
          },
          {
            "duration": 0.3157889999999952,
            "durationTicks": 192,
            "midi": 32,
            "name": "G#1",
            "ticks": 46176,
            "time": 75.9472545,
            "velocity": 0.3937007874015748
          },
          {
            "duration": 0.1578944999999976,
            "durationTicks": 96,
            "midi": 37,
            "name": "C#2",
            "ticks": 46368,
            "time": 76.2630435,
            "velocity": 0.3937007874015748
          },
          {
            "duration": 0.3157890000000094,
            "durationTicks": 192,
            "midi": 32,
            "name": "G#1",
            "ticks": 46464,
            "time": 76.42093799999999,
            "velocity": 0.3937007874015748
          },
          {
            "duration": 0.1578944999999976,
            "durationTicks": 96,
            "midi": 37,
            "name": "C#2",
            "ticks": 46656,
            "time": 76.736727,
            "velocity": 0.3937007874015748
          },
          {
            "duration": 0.3157889999999952,
            "durationTicks": 192,
            "midi": 32,
            "name": "G#1",
            "ticks": 46752,
            "time": 76.8946215,
            "velocity": 0.3937007874015748
          },
          {
            "duration": 0.1578944999999976,
            "durationTicks": 96,
            "midi": 37,
            "name": "C#2",
            "ticks": 46944,
            "time": 77.2104105,
            "velocity": 0.3937007874015748
          },
          {
            "duration": 0.3157890000000094,
            "durationTicks": 192,
            "midi": 32,
            "name": "G#1",
            "ticks": 47040,
            "time": 77.36830499999999,
            "velocity": 0.3937007874015748
          },
          {
            "duration": 0.1578944999999976,
            "durationTicks": 96,
            "midi": 37,
            "name": "C#2",
            "ticks": 47232,
            "time": 77.684094,
            "velocity": 0.3937007874015748
          },
          {
            "duration": 0.3157889999999952,
            "durationTicks": 192,
            "midi": 32,
            "name": "G#1",
            "ticks": 47328,
            "time": 77.8419885,
            "velocity": 0.3937007874015748
          },
          {
            "duration": 0.1578944999999976,
            "durationTicks": 96,
            "midi": 37,
            "name": "C#2",
            "ticks": 47520,
            "time": 78.1577775,
            "velocity": 0.3937007874015748
          },
          {
            "duration": 0.1578944999999976,
            "durationTicks": 96,
            "midi": 38,
            "name": "D2",
            "ticks": 47616,
            "time": 78.31567199999999,
            "velocity": 0.3937007874015748
          },
          {
            "duration": 0.3157890000000094,
            "durationTicks": 192,
            "midi": 33,
            "name": "A1",
            "ticks": 47712,
            "time": 78.47356649999999,
            "velocity": 0.3937007874015748
          },
          {
            "duration": 0.1578944999999976,
            "durationTicks": 96,
            "midi": 38,
            "name": "D2",
            "ticks": 47904,
            "time": 78.7893555,
            "velocity": 0.3937007874015748
          },
          {
            "duration": 0.3157889999999952,
            "durationTicks": 192,
            "midi": 33,
            "name": "A1",
            "ticks": 48000,
            "time": 78.94725,
            "velocity": 0.3937007874015748
          },
          {
            "duration": 0.1578944999999976,
            "durationTicks": 96,
            "midi": 38,
            "name": "D2",
            "ticks": 48192,
            "time": 79.26303899999999,
            "velocity": 0.3937007874015748
          },
          {
            "duration": 0.3157890000000094,
            "durationTicks": 192,
            "midi": 33,
            "name": "A1",
            "ticks": 48288,
            "time": 79.42093349999999,
            "velocity": 0.3937007874015748
          },
          {
            "duration": 0.1578944999999976,
            "durationTicks": 96,
            "midi": 38,
            "name": "D2",
            "ticks": 48480,
            "time": 79.7367225,
            "velocity": 0.3937007874015748
          },
          {
            "duration": 0.3157889999999952,
            "durationTicks": 192,
            "midi": 33,
            "name": "A1",
            "ticks": 48576,
            "time": 79.894617,
            "velocity": 0.3937007874015748
          },
          {
            "duration": 0.1578944999999976,
            "durationTicks": 96,
            "midi": 38,
            "name": "D2",
            "ticks": 48768,
            "time": 80.21040599999999,
            "velocity": 0.3937007874015748
          },
          {
            "duration": 0.3157890000000094,
            "durationTicks": 192,
            "midi": 33,
            "name": "A1",
            "ticks": 48864,
            "time": 80.36830049999999,
            "velocity": 0.3937007874015748
          },
          {
            "duration": 0.1578944999999976,
            "durationTicks": 96,
            "midi": 38,
            "name": "D2",
            "ticks": 49056,
            "time": 80.6840895,
            "velocity": 0.3937007874015748
          },
          {
            "duration": 0.1578944999999976,
            "durationTicks": 96,
            "midi": 35,
            "name": "B1",
            "ticks": 49152,
            "time": 80.841984,
            "velocity": 0.3937007874015748
          },
          {
            "duration": 0.3157890000000094,
            "durationTicks": 192,
            "midi": 30,
            "name": "F#1",
            "ticks": 49248,
            "time": 80.9998785,
            "velocity": 0.3937007874015748
          },
          {
            "duration": 0.1578944999999976,
            "durationTicks": 96,
            "midi": 35,
            "name": "B1",
            "ticks": 49440,
            "time": 81.3156675,
            "velocity": 0.3937007874015748
          },
          {
            "duration": 0.3157889999999952,
            "durationTicks": 192,
            "midi": 30,
            "name": "F#1",
            "ticks": 49536,
            "time": 81.473562,
            "velocity": 0.3937007874015748
          },
          {
            "duration": 0.1578944999999976,
            "durationTicks": 96,
            "midi": 35,
            "name": "B1",
            "ticks": 49728,
            "time": 81.789351,
            "velocity": 0.3937007874015748
          },
          {
            "duration": 0.3157890000000094,
            "durationTicks": 192,
            "midi": 30,
            "name": "F#1",
            "ticks": 49824,
            "time": 81.9472455,
            "velocity": 0.3937007874015748
          },
          {
            "duration": 0.1578944999999976,
            "durationTicks": 96,
            "midi": 35,
            "name": "B1",
            "ticks": 50016,
            "time": 82.2630345,
            "velocity": 0.3937007874015748
          },
          {
            "duration": 0.3157889999999952,
            "durationTicks": 192,
            "midi": 30,
            "name": "F#1",
            "ticks": 50112,
            "time": 82.420929,
            "velocity": 0.3937007874015748
          },
          {
            "duration": 0.1578944999999976,
            "durationTicks": 96,
            "midi": 35,
            "name": "B1",
            "ticks": 50304,
            "time": 82.736718,
            "velocity": 0.3937007874015748
          },
          {
            "duration": 0.3157890000000094,
            "durationTicks": 192,
            "midi": 30,
            "name": "F#1",
            "ticks": 50400,
            "time": 82.8946125,
            "velocity": 0.3937007874015748
          },
          {
            "duration": 0.1578944999999976,
            "durationTicks": 96,
            "midi": 35,
            "name": "B1",
            "ticks": 50592,
            "time": 83.2104015,
            "velocity": 0.3937007874015748
          },
          {
            "duration": 0.1578944999999976,
            "durationTicks": 96,
            "midi": 33,
            "name": "A1",
            "ticks": 50688,
            "time": 83.368296,
            "velocity": 0.3937007874015748
          },
          {
            "duration": 0.3157889999999952,
            "durationTicks": 192,
            "midi": 28,
            "name": "E1",
            "ticks": 50784,
            "time": 83.5261905,
            "velocity": 0.3937007874015748
          },
          {
            "duration": 0.1578944999999976,
            "durationTicks": 96,
            "midi": 33,
            "name": "A1",
            "ticks": 50976,
            "time": 83.8419795,
            "velocity": 0.3937007874015748
          },
          {
            "duration": 0.3157890000000094,
            "durationTicks": 192,
            "midi": 28,
            "name": "E1",
            "ticks": 51072,
            "time": 83.99987399999999,
            "velocity": 0.3937007874015748
          },
          {
            "duration": 0.1578944999999976,
            "durationTicks": 96,
            "midi": 33,
            "name": "A1",
            "ticks": 51264,
            "time": 84.315663,
            "velocity": 0.3937007874015748
          },
          {
            "duration": 0.3157889999999952,
            "durationTicks": 192,
            "midi": 28,
            "name": "E1",
            "ticks": 51360,
            "time": 84.4735575,
            "velocity": 0.3937007874015748
          },
          {
            "duration": 0.1578944999999976,
            "durationTicks": 96,
            "midi": 35,
            "name": "B1",
            "ticks": 51552,
            "time": 84.7893465,
            "velocity": 0.3937007874015748
          },
          {
            "duration": 0.3157890000000094,
            "durationTicks": 192,
            "midi": 30,
            "name": "F#1",
            "ticks": 51648,
            "time": 84.94724099999999,
            "velocity": 0.3937007874015748
          },
          {
            "duration": 0.1578944999999976,
            "durationTicks": 96,
            "midi": 35,
            "name": "B1",
            "ticks": 51840,
            "time": 85.26303,
            "velocity": 0.3937007874015748
          },
          {
            "duration": 0.3157889999999952,
            "durationTicks": 192,
            "midi": 30,
            "name": "F#1",
            "ticks": 51936,
            "time": 85.4209245,
            "velocity": 0.3937007874015748
          },
          {
            "duration": 0.1578944999999976,
            "durationTicks": 96,
            "midi": 35,
            "name": "B1",
            "ticks": 52128,
            "time": 85.7367135,
            "velocity": 0.3937007874015748
          },
          {
            "duration": 2.52631199999999,
            "durationTicks": 1536,
            "midi": 61,
            "name": "C#4",
            "ticks": 89088,
            "time": 146.526096,
            "velocity": 0.3937007874015748
          },
          {
            "duration": 2.52631199999999,
            "durationTicks": 1536,
            "midi": 73,
            "name": "C#5",
            "ticks": 89088,
            "time": 146.526096,
            "velocity": 0.3937007874015748
          },
          {
            "duration": 2.52631199999999,
            "durationTicks": 1536,
            "midi": 68,
            "name": "G#4",
            "ticks": 89088,
            "time": 146.526096,
            "velocity": 0.3937007874015748
          },
          {
            "duration": 2.5263120000000185,
            "durationTicks": 1536,
            "midi": 63,
            "name": "D#4",
            "ticks": 90624,
            "time": 149.05240799999999,
            "velocity": 0.3937007874015748
          },
          {
            "duration": 2.5263120000000185,
            "durationTicks": 1536,
            "midi": 71,
            "name": "B4",
            "ticks": 90624,
            "time": 149.05240799999999,
            "velocity": 0.3937007874015748
          },
          {
            "duration": 2.5263120000000185,
            "durationTicks": 1536,
            "midi": 75,
            "name": "D#5",
            "ticks": 90624,
            "time": 149.05240799999999,
            "velocity": 0.3937007874015748
          },
          {
            "duration": 2.52631199999999,
            "durationTicks": 1536,
            "midi": 61,
            "name": "C#4",
            "ticks": 92160,
            "time": 151.57872,
            "velocity": 0.3937007874015748
          },
          {
            "duration": 2.52631199999999,
            "durationTicks": 1536,
            "midi": 73,
            "name": "C#5",
            "ticks": 92160,
            "time": 151.57872,
            "velocity": 0.3937007874015748
          },
          {
            "duration": 0.9473669999999856,
            "durationTicks": 576,
            "midi": 70,
            "name": "A#4",
            "ticks": 92160,
            "time": 151.57872,
            "velocity": 0.3937007874015748
          },
          {
            "duration": 1.5789450000000045,
            "durationTicks": 960,
            "midi": 66,
            "name": "F#4",
            "ticks": 92736,
            "time": 152.526087,
            "velocity": 0.3937007874015748
          },
          {
            "duration": 2.52631199999999,
            "durationTicks": 1536,
            "midi": 78,
            "name": "F#5",
            "ticks": 93696,
            "time": 154.105032,
            "velocity": 0.3937007874015748
          },
          {
            "duration": 2.52631199999999,
            "durationTicks": 1536,
            "midi": 66,
            "name": "F#4",
            "ticks": 93696,
            "time": 154.105032,
            "velocity": 0.3937007874015748
          },
          {
            "duration": 2.52631199999999,
            "durationTicks": 1536,
            "midi": 62,
            "name": "D4",
            "ticks": 93696,
            "time": 154.105032,
            "velocity": 0.3937007874015748
          },
          {
            "duration": 2.5263120000000185,
            "durationTicks": 1536,
            "midi": 85,
            "name": "C#6",
            "ticks": 95232,
            "time": 156.63134399999998,
            "velocity": 0.3937007874015748
          },
          {
            "duration": 2.5263120000000185,
            "durationTicks": 1536,
            "midi": 73,
            "name": "C#5",
            "ticks": 95232,
            "time": 156.63134399999998,
            "velocity": 0.3937007874015748
          },
          {
            "duration": 2.5263120000000185,
            "durationTicks": 1536,
            "midi": 76,
            "name": "E5",
            "ticks": 95232,
            "time": 156.63134399999998,
            "velocity": 0.3937007874015748
          },
          {
            "duration": 2.52631199999999,
            "durationTicks": 1536,
            "midi": 66,
            "name": "F#4",
            "ticks": 96768,
            "time": 159.157656,
            "velocity": 0.3937007874015748
          },
          {
            "duration": 2.52631199999999,
            "durationTicks": 1536,
            "midi": 75,
            "name": "D#5",
            "ticks": 96768,
            "time": 159.157656,
            "velocity": 0.3937007874015748
          },
          {
            "duration": 2.52631199999999,
            "durationTicks": 1536,
            "midi": 78,
            "name": "F#5",
            "ticks": 96768,
            "time": 159.157656,
            "velocity": 0.3937007874015748
          },
          {
            "duration": 2.52631199999999,
            "durationTicks": 1536,
            "midi": 76,
            "name": "E5",
            "ticks": 98304,
            "time": 161.683968,
            "velocity": 0.3937007874015748
          },
          {
            "duration": 2.52631199999999,
            "durationTicks": 1536,
            "midi": 80,
            "name": "G#5",
            "ticks": 98304,
            "time": 161.683968,
            "velocity": 0.3937007874015748
          },
          {
            "duration": 2.52631199999999,
            "durationTicks": 1536,
            "midi": 68,
            "name": "G#4",
            "ticks": 98304,
            "time": 161.683968,
            "velocity": 0.3937007874015748
          },
          {
            "duration": 2.5263120000000185,
            "durationTicks": 1536,
            "midi": 78,
            "name": "F#5",
            "ticks": 99840,
            "time": 164.21027999999998,
            "velocity": 0.3937007874015748
          },
          {
            "duration": 2.5263120000000185,
            "durationTicks": 1536,
            "midi": 83,
            "name": "B5",
            "ticks": 99840,
            "time": 164.21027999999998,
            "velocity": 0.3937007874015748
          },
          {
            "duration": 2.5263120000000185,
            "durationTicks": 1536,
            "midi": 66,
            "name": "F#4",
            "ticks": 99840,
            "time": 164.21027999999998,
            "velocity": 0.3937007874015748
          },
          {
            "duration": 1.8947339999999997,
            "durationTicks": 1152,
            "midi": 85,
            "name": "C#6",
            "ticks": 101376,
            "time": 166.736592,
            "velocity": 0.3937007874015748
          },
          {
            "duration": 1.8947339999999997,
            "durationTicks": 1152,
            "midi": 73,
            "name": "C#5",
            "ticks": 101376,
            "time": 166.736592,
            "velocity": 0.3937007874015748
          },
          {
            "duration": 1.8947339999999997,
            "durationTicks": 1152,
            "midi": 80,
            "name": "G#5",
            "ticks": 101376,
            "time": 166.736592,
            "velocity": 0.3937007874015748
          },
          {
            "duration": 0.1578944999999976,
            "durationTicks": 96,
            "midi": 37,
            "name": "C#2",
            "ticks": 101376,
            "time": 166.736592,
            "velocity": 0.3937007874015748
          },
          {
            "duration": 0.3157889999999952,
            "durationTicks": 192,
            "midi": 32,
            "name": "G#1",
            "ticks": 101472,
            "time": 166.8944865,
            "velocity": 0.3937007874015748
          },
          {
            "duration": 0.1578944999999976,
            "durationTicks": 96,
            "midi": 37,
            "name": "C#2",
            "ticks": 101664,
            "time": 167.2102755,
            "velocity": 0.3937007874015748
          },
          {
            "duration": 0.3157889999999952,
            "durationTicks": 192,
            "midi": 32,
            "name": "G#1",
            "ticks": 101760,
            "time": 167.36817,
            "velocity": 0.3937007874015748
          },
          {
            "duration": 0.1578944999999976,
            "durationTicks": 96,
            "midi": 37,
            "name": "C#2",
            "ticks": 101952,
            "time": 167.683959,
            "velocity": 0.3937007874015748
          },
          {
            "duration": 0.3157889999999952,
            "durationTicks": 192,
            "midi": 32,
            "name": "G#1",
            "ticks": 102048,
            "time": 167.84185349999998,
            "velocity": 0.3937007874015748
          },
          {
            "duration": 0.15789450000002603,
            "durationTicks": 96,
            "midi": 37,
            "name": "C#2",
            "ticks": 102240,
            "time": 168.15764249999998,
            "velocity": 0.3937007874015748
          },
          {
            "duration": 0.3157889999999952,
            "durationTicks": 192,
            "midi": 32,
            "name": "G#1",
            "ticks": 102336,
            "time": 168.315537,
            "velocity": 0.3937007874015748
          },
          {
            "duration": 0.1578944999999976,
            "durationTicks": 96,
            "midi": 37,
            "name": "C#2",
            "ticks": 102528,
            "time": 168.631326,
            "velocity": 0.3937007874015748
          },
          {
            "duration": 0.3157889999999952,
            "durationTicks": 192,
            "midi": 32,
            "name": "G#1",
            "ticks": 102624,
            "time": 168.7892205,
            "velocity": 0.3937007874015748
          },
          {
            "duration": 0.1578944999999976,
            "durationTicks": 96,
            "midi": 37,
            "name": "C#2",
            "ticks": 102816,
            "time": 169.1050095,
            "velocity": 0.3937007874015748
          },
          {
            "duration": 0.1578944999999976,
            "durationTicks": 96,
            "midi": 38,
            "name": "D2",
            "ticks": 102912,
            "time": 169.262904,
            "velocity": 0.3937007874015748
          },
          {
            "duration": 0.3157889999999952,
            "durationTicks": 192,
            "midi": 33,
            "name": "A1",
            "ticks": 103008,
            "time": 169.4207985,
            "velocity": 0.3937007874015748
          },
          {
            "duration": 0.1578944999999976,
            "durationTicks": 96,
            "midi": 38,
            "name": "D2",
            "ticks": 103200,
            "time": 169.73658749999998,
            "velocity": 0.3937007874015748
          },
          {
            "duration": 0.31578900000002363,
            "durationTicks": 192,
            "midi": 33,
            "name": "A1",
            "ticks": 103296,
            "time": 169.89448199999998,
            "velocity": 0.3937007874015748
          },
          {
            "duration": 0.1578944999999976,
            "durationTicks": 96,
            "midi": 38,
            "name": "D2",
            "ticks": 103488,
            "time": 170.210271,
            "velocity": 0.3937007874015748
          },
          {
            "duration": 0.3157889999999952,
            "durationTicks": 192,
            "midi": 33,
            "name": "A1",
            "ticks": 103584,
            "time": 170.3681655,
            "velocity": 0.3937007874015748
          },
          {
            "duration": 0.1578944999999976,
            "durationTicks": 96,
            "midi": 38,
            "name": "D2",
            "ticks": 103776,
            "time": 170.6839545,
            "velocity": 0.3937007874015748
          },
          {
            "duration": 0.3157889999999952,
            "durationTicks": 192,
            "midi": 33,
            "name": "A1",
            "ticks": 103872,
            "time": 170.841849,
            "velocity": 0.3937007874015748
          },
          {
            "duration": 0.1578944999999976,
            "durationTicks": 96,
            "midi": 38,
            "name": "D2",
            "ticks": 104064,
            "time": 171.157638,
            "velocity": 0.3937007874015748
          },
          {
            "duration": 0.3157889999999952,
            "durationTicks": 192,
            "midi": 33,
            "name": "A1",
            "ticks": 104160,
            "time": 171.3155325,
            "velocity": 0.3937007874015748
          },
          {
            "duration": 0.1578944999999976,
            "durationTicks": 96,
            "midi": 38,
            "name": "D2",
            "ticks": 104352,
            "time": 171.63132149999998,
            "velocity": 0.3937007874015748
          },
          {
            "duration": 0.1578944999999976,
            "durationTicks": 96,
            "midi": 35,
            "name": "B1",
            "ticks": 104448,
            "time": 171.78921599999998,
            "velocity": 0.3937007874015748
          },
          {
            "duration": 0.31578900000002363,
            "durationTicks": 192,
            "midi": 30,
            "name": "F#1",
            "ticks": 104544,
            "time": 171.94711049999998,
            "velocity": 0.3937007874015748
          },
          {
            "duration": 0.1578944999999976,
            "durationTicks": 96,
            "midi": 35,
            "name": "B1",
            "ticks": 104736,
            "time": 172.2628995,
            "velocity": 0.3937007874015748
          },
          {
            "duration": 0.3157889999999952,
            "durationTicks": 192,
            "midi": 30,
            "name": "F#1",
            "ticks": 104832,
            "time": 172.420794,
            "velocity": 0.3937007874015748
          },
          {
            "duration": 0.1578944999999976,
            "durationTicks": 96,
            "midi": 35,
            "name": "B1",
            "ticks": 105024,
            "time": 172.736583,
            "velocity": 0.3937007874015748
          },
          {
            "duration": 0.3157889999999952,
            "durationTicks": 192,
            "midi": 30,
            "name": "F#1",
            "ticks": 105120,
            "time": 172.8944775,
            "velocity": 0.3937007874015748
          },
          {
            "duration": 0.1578944999999976,
            "durationTicks": 96,
            "midi": 35,
            "name": "B1",
            "ticks": 105312,
            "time": 173.2102665,
            "velocity": 0.3937007874015748
          },
          {
            "duration": 0.3157889999999952,
            "durationTicks": 192,
            "midi": 30,
            "name": "F#1",
            "ticks": 105408,
            "time": 173.368161,
            "velocity": 0.3937007874015748
          },
          {
            "duration": 0.1578944999999976,
            "durationTicks": 96,
            "midi": 35,
            "name": "B1",
            "ticks": 105600,
            "time": 173.68394999999998,
            "velocity": 0.3937007874015748
          },
          {
            "duration": 0.31578900000002363,
            "durationTicks": 192,
            "midi": 30,
            "name": "F#1",
            "ticks": 105696,
            "time": 173.84184449999998,
            "velocity": 0.3937007874015748
          },
          {
            "duration": 0.1578944999999976,
            "durationTicks": 96,
            "midi": 35,
            "name": "B1",
            "ticks": 105888,
            "time": 174.1576335,
            "velocity": 0.3937007874015748
          },
          {
            "duration": 0.1578944999999976,
            "durationTicks": 96,
            "midi": 33,
            "name": "A1",
            "ticks": 105984,
            "time": 174.315528,
            "velocity": 0.3937007874015748
          },
          {
            "duration": 0.3157889999999952,
            "durationTicks": 192,
            "midi": 28,
            "name": "E1",
            "ticks": 106080,
            "time": 174.4734225,
            "velocity": 0.3937007874015748
          },
          {
            "duration": 0.1578944999999976,
            "durationTicks": 96,
            "midi": 33,
            "name": "A1",
            "ticks": 106272,
            "time": 174.7892115,
            "velocity": 0.3937007874015748
          },
          {
            "duration": 0.3157889999999952,
            "durationTicks": 192,
            "midi": 28,
            "name": "E1",
            "ticks": 106368,
            "time": 174.947106,
            "velocity": 0.3937007874015748
          },
          {
            "duration": 0.1578944999999976,
            "durationTicks": 96,
            "midi": 33,
            "name": "A1",
            "ticks": 106560,
            "time": 175.262895,
            "velocity": 0.3937007874015748
          },
          {
            "duration": 0.3157889999999952,
            "durationTicks": 192,
            "midi": 28,
            "name": "E1",
            "ticks": 106656,
            "time": 175.42078949999998,
            "velocity": 0.3937007874015748
          },
          {
            "duration": 0.15789450000002603,
            "durationTicks": 96,
            "midi": 35,
            "name": "B1",
            "ticks": 106848,
            "time": 175.73657849999998,
            "velocity": 0.3937007874015748
          },
          {
            "duration": 0.3157889999999952,
            "durationTicks": 192,
            "midi": 30,
            "name": "F#1",
            "ticks": 106944,
            "time": 175.894473,
            "velocity": 0.3937007874015748
          },
          {
            "duration": 0.1578944999999976,
            "durationTicks": 96,
            "midi": 35,
            "name": "B1",
            "ticks": 107136,
            "time": 176.210262,
            "velocity": 0.3937007874015748
          },
          {
            "duration": 0.3157889999999952,
            "durationTicks": 192,
            "midi": 30,
            "name": "F#1",
            "ticks": 107232,
            "time": 176.3681565,
            "velocity": 0.3937007874015748
          }
        ],
        "endOfTrackTicks": 107424
      },
      {
        "channel": 2,
        "controlChanges": {},
        "pitchBends": [],
        "instrument": {
          "family": "synth lead",
          "number": 87,
          "name": "lead 8 (bass + lead)"
        },
        "name": "8-Bit Triangle",
        "notes": [
          {
            "duration": 0.0789472499999988,
            "durationTicks": 48,
            "midi": 21,
            "name": "A0",
            "ticks": 52224,
            "time": 85.89460799999999,
            "velocity": 0.7874015748031497
          },
          {
            "duration": 0.0789472499999988,
            "durationTicks": 48,
            "midi": 21,
            "name": "A0",
            "ticks": 52320,
            "time": 86.0525025,
            "velocity": 0.7874015748031497
          },
          {
            "duration": 0.0789472499999988,
            "durationTicks": 48,
            "midi": 21,
            "name": "A0",
            "ticks": 52416,
            "time": 86.210397,
            "velocity": 0.7874015748031497
          },
          {
            "duration": 0.0789472499999988,
            "durationTicks": 48,
            "midi": 21,
            "name": "A0",
            "ticks": 52512,
            "time": 86.3682915,
            "velocity": 0.7874015748031497
          },
          {
            "duration": 0.0789472499999988,
            "durationTicks": 48,
            "midi": 21,
            "name": "A0",
            "ticks": 52608,
            "time": 86.526186,
            "velocity": 0.7874015748031497
          },
          {
            "duration": 0.0789472499999988,
            "durationTicks": 48,
            "midi": 21,
            "name": "A0",
            "ticks": 52704,
            "time": 86.6840805,
            "velocity": 0.7874015748031497
          },
          {
            "duration": 0.0789472499999988,
            "durationTicks": 48,
            "midi": 21,
            "name": "A0",
            "ticks": 52800,
            "time": 86.84197499999999,
            "velocity": 0.7874015748031497
          },
          {
            "duration": 0.0789472499999988,
            "durationTicks": 48,
            "midi": 21,
            "name": "A0",
            "ticks": 52896,
            "time": 86.9998695,
            "velocity": 0.7874015748031497
          },
          {
            "duration": 0.0789472499999988,
            "durationTicks": 48,
            "midi": 21,
            "name": "A0",
            "ticks": 52992,
            "time": 87.157764,
            "velocity": 0.7874015748031497
          },
          {
            "duration": 0.0789472499999988,
            "durationTicks": 48,
            "midi": 21,
            "name": "A0",
            "ticks": 53088,
            "time": 87.3156585,
            "velocity": 0.7874015748031497
          },
          {
            "duration": 0.0789472499999988,
            "durationTicks": 48,
            "midi": 21,
            "name": "A0",
            "ticks": 53184,
            "time": 87.473553,
            "velocity": 0.7874015748031497
          },
          {
            "duration": 0.0789472499999988,
            "durationTicks": 48,
            "midi": 21,
            "name": "A0",
            "ticks": 53280,
            "time": 87.6314475,
            "velocity": 0.7874015748031497
          },
          {
            "duration": 0.0789472499999988,
            "durationTicks": 48,
            "midi": 21,
            "name": "A0",
            "ticks": 53376,
            "time": 87.78934199999999,
            "velocity": 0.7874015748031497
          },
          {
            "duration": 0.0789472499999988,
            "durationTicks": 48,
            "midi": 21,
            "name": "A0",
            "ticks": 53472,
            "time": 87.9472365,
            "velocity": 0.7874015748031497
          },
          {
            "duration": 0.0789472499999988,
            "durationTicks": 48,
            "midi": 21,
            "name": "A0",
            "ticks": 53568,
            "time": 88.105131,
            "velocity": 0.7874015748031497
          },
          {
            "duration": 0.0789472499999988,
            "durationTicks": 48,
            "midi": 21,
            "name": "A0",
            "ticks": 53664,
            "time": 88.2630255,
            "velocity": 0.7874015748031497
          },
          {
            "duration": 0.0789472499999988,
            "durationTicks": 48,
            "midi": 23,
            "name": "B0",
            "ticks": 53760,
            "time": 88.42092,
            "velocity": 0.7874015748031497
          },
          {
            "duration": 0.0789472499999988,
            "durationTicks": 48,
            "midi": 23,
            "name": "B0",
            "ticks": 53856,
            "time": 88.5788145,
            "velocity": 0.7874015748031497
          },
          {
            "duration": 0.0789472499999988,
            "durationTicks": 48,
            "midi": 23,
            "name": "B0",
            "ticks": 53952,
            "time": 88.73670899999999,
            "velocity": 0.7874015748031497
          },
          {
            "duration": 0.0789472499999988,
            "durationTicks": 48,
            "midi": 23,
            "name": "B0",
            "ticks": 54048,
            "time": 88.8946035,
            "velocity": 0.7874015748031497
          },
          {
            "duration": 0.0789472499999988,
            "durationTicks": 48,
            "midi": 23,
            "name": "B0",
            "ticks": 54144,
            "time": 89.052498,
            "velocity": 0.7874015748031497
          },
          {
            "duration": 0.0789472499999988,
            "durationTicks": 48,
            "midi": 23,
            "name": "B0",
            "ticks": 54240,
            "time": 89.2103925,
            "velocity": 0.7874015748031497
          },
          {
            "duration": 0.0789472499999988,
            "durationTicks": 48,
            "midi": 23,
            "name": "B0",
            "ticks": 54336,
            "time": 89.368287,
            "velocity": 0.7874015748031497
          },
          {
            "duration": 0.0789472499999988,
            "durationTicks": 48,
            "midi": 23,
            "name": "B0",
            "ticks": 54432,
            "time": 89.52618149999999,
            "velocity": 0.7874015748031497
          },
          {
            "duration": 0.0789472499999988,
            "durationTicks": 48,
            "midi": 23,
            "name": "B0",
            "ticks": 54528,
            "time": 89.68407599999999,
            "velocity": 0.7874015748031497
          },
          {
            "duration": 0.0789472499999988,
            "durationTicks": 48,
            "midi": 23,
            "name": "B0",
            "ticks": 54624,
            "time": 89.8419705,
            "velocity": 0.7874015748031497
          },
          {
            "duration": 0.0789472499999988,
            "durationTicks": 48,
            "midi": 23,
            "name": "B0",
            "ticks": 54720,
            "time": 89.999865,
            "velocity": 0.7874015748031497
          },
          {
            "duration": 0.0789472499999988,
            "durationTicks": 48,
            "midi": 23,
            "name": "B0",
            "ticks": 54816,
            "time": 90.1577595,
            "velocity": 0.7874015748031497
          },
          {
            "duration": 0.0789472499999988,
            "durationTicks": 48,
            "midi": 23,
            "name": "B0",
            "ticks": 54912,
            "time": 90.315654,
            "velocity": 0.7874015748031497
          },
          {
            "duration": 0.0789472499999988,
            "durationTicks": 48,
            "midi": 23,
            "name": "B0",
            "ticks": 55008,
            "time": 90.47354849999999,
            "velocity": 0.7874015748031497
          },
          {
            "duration": 0.0789472499999988,
            "durationTicks": 48,
            "midi": 23,
            "name": "B0",
            "ticks": 55104,
            "time": 90.63144299999999,
            "velocity": 0.7874015748031497
          },
          {
            "duration": 0.0789472499999988,
            "durationTicks": 48,
            "midi": 23,
            "name": "B0",
            "ticks": 55200,
            "time": 90.7893375,
            "velocity": 0.7874015748031497
          },
          {
            "duration": 0.0789472499999988,
            "durationTicks": 48,
            "midi": 25,
            "name": "C#1",
            "ticks": 55296,
            "time": 90.947232,
            "velocity": 0.7874015748031497
          },
          {
            "duration": 0.0789472499999988,
            "durationTicks": 48,
            "midi": 25,
            "name": "C#1",
            "ticks": 55392,
            "time": 91.1051265,
            "velocity": 0.7874015748031497
          },
          {
            "duration": 0.0789472499999988,
            "durationTicks": 48,
            "midi": 25,
            "name": "C#1",
            "ticks": 55488,
            "time": 91.263021,
            "velocity": 0.7874015748031497
          },
          {
            "duration": 0.0789472499999988,
            "durationTicks": 48,
            "midi": 25,
            "name": "C#1",
            "ticks": 55584,
            "time": 91.42091549999999,
            "velocity": 0.7874015748031497
          },
          {
            "duration": 0.07894725000001301,
            "durationTicks": 48,
            "midi": 25,
            "name": "C#1",
            "ticks": 55680,
            "time": 91.57880999999999,
            "velocity": 0.7874015748031497
          },
          {
            "duration": 0.0789472499999988,
            "durationTicks": 48,
            "midi": 25,
            "name": "C#1",
            "ticks": 55776,
            "time": 91.7367045,
            "velocity": 0.7874015748031497
          },
          {
            "duration": 0.0789472499999988,
            "durationTicks": 48,
            "midi": 25,
            "name": "C#1",
            "ticks": 55872,
            "time": 91.894599,
            "velocity": 0.7874015748031497
          },
          {
            "duration": 0.0789472499999988,
            "durationTicks": 48,
            "midi": 25,
            "name": "C#1",
            "ticks": 55968,
            "time": 92.0524935,
            "velocity": 0.7874015748031497
          },
          {
            "duration": 0.0789472499999988,
            "durationTicks": 48,
            "midi": 25,
            "name": "C#1",
            "ticks": 56064,
            "time": 92.210388,
            "velocity": 0.7874015748031497
          },
          {
            "duration": 0.0789472499999988,
            "durationTicks": 48,
            "midi": 25,
            "name": "C#1",
            "ticks": 56160,
            "time": 92.36828249999999,
            "velocity": 0.7874015748031497
          },
          {
            "duration": 0.07894725000001301,
            "durationTicks": 48,
            "midi": 25,
            "name": "C#1",
            "ticks": 56256,
            "time": 92.52617699999999,
            "velocity": 0.7874015748031497
          },
          {
            "duration": 0.0789472499999988,
            "durationTicks": 48,
            "midi": 25,
            "name": "C#1",
            "ticks": 56352,
            "time": 92.6840715,
            "velocity": 0.7874015748031497
          },
          {
            "duration": 0.0789472499999988,
            "durationTicks": 48,
            "midi": 25,
            "name": "C#1",
            "ticks": 56448,
            "time": 92.841966,
            "velocity": 0.7874015748031497
          },
          {
            "duration": 0.0789472499999988,
            "durationTicks": 48,
            "midi": 25,
            "name": "C#1",
            "ticks": 56544,
            "time": 92.9998605,
            "velocity": 0.7874015748031497
          },
          {
            "duration": 0.0789472499999988,
            "durationTicks": 48,
            "midi": 25,
            "name": "C#1",
            "ticks": 56640,
            "time": 93.157755,
            "velocity": 0.7874015748031497
          },
          {
            "duration": 0.0789472499999988,
            "durationTicks": 48,
            "midi": 25,
            "name": "C#1",
            "ticks": 56736,
            "time": 93.31564949999999,
            "velocity": 0.7874015748031497
          },
          {
            "duration": 0.07894725000001301,
            "durationTicks": 48,
            "midi": 23,
            "name": "B0",
            "ticks": 56832,
            "time": 93.47354399999999,
            "velocity": 0.7874015748031497
          },
          {
            "duration": 0.0789472499999988,
            "durationTicks": 48,
            "midi": 23,
            "name": "B0",
            "ticks": 56928,
            "time": 93.6314385,
            "velocity": 0.7874015748031497
          },
          {
            "duration": 0.0789472499999988,
            "durationTicks": 48,
            "midi": 23,
            "name": "B0",
            "ticks": 57024,
            "time": 93.789333,
            "velocity": 0.7874015748031497
          },
          {
            "duration": 0.0789472499999988,
            "durationTicks": 48,
            "midi": 23,
            "name": "B0",
            "ticks": 57120,
            "time": 93.9472275,
            "velocity": 0.7874015748031497
          },
          {
            "duration": 0.0789472499999988,
            "durationTicks": 48,
            "midi": 23,
            "name": "B0",
            "ticks": 57216,
            "time": 94.105122,
            "velocity": 0.7874015748031497
          },
          {
            "duration": 0.0789472499999988,
            "durationTicks": 48,
            "midi": 23,
            "name": "B0",
            "ticks": 57312,
            "time": 94.26301649999999,
            "velocity": 0.7874015748031497
          },
          {
            "duration": 0.07894725000001301,
            "durationTicks": 48,
            "midi": 23,
            "name": "B0",
            "ticks": 57408,
            "time": 94.42091099999999,
            "velocity": 0.7874015748031497
          },
          {
            "duration": 0.0789472499999988,
            "durationTicks": 48,
            "midi": 23,
            "name": "B0",
            "ticks": 57504,
            "time": 94.5788055,
            "velocity": 0.7874015748031497
          },
          {
            "duration": 0.0789472499999988,
            "durationTicks": 48,
            "midi": 23,
            "name": "B0",
            "ticks": 57600,
            "time": 94.7367,
            "velocity": 0.7874015748031497
          },
          {
            "duration": 0.0789472499999988,
            "durationTicks": 48,
            "midi": 23,
            "name": "B0",
            "ticks": 57696,
            "time": 94.8945945,
            "velocity": 0.7874015748031497
          },
          {
            "duration": 0.0789472499999988,
            "durationTicks": 48,
            "midi": 23,
            "name": "B0",
            "ticks": 57792,
            "time": 95.052489,
            "velocity": 0.7874015748031497
          },
          {
            "duration": 0.0789472499999988,
            "durationTicks": 48,
            "midi": 23,
            "name": "B0",
            "ticks": 57888,
            "time": 95.21038349999999,
            "velocity": 0.7874015748031497
          },
          {
            "duration": 0.07894725000001301,
            "durationTicks": 48,
            "midi": 23,
            "name": "B0",
            "ticks": 57984,
            "time": 95.36827799999999,
            "velocity": 0.7874015748031497
          },
          {
            "duration": 0.0789472499999988,
            "durationTicks": 48,
            "midi": 23,
            "name": "B0",
            "ticks": 58080,
            "time": 95.5261725,
            "velocity": 0.7874015748031497
          },
          {
            "duration": 0.0789472499999988,
            "durationTicks": 48,
            "midi": 23,
            "name": "B0",
            "ticks": 58176,
            "time": 95.684067,
            "velocity": 0.7874015748031497
          },
          {
            "duration": 0.0789472499999988,
            "durationTicks": 48,
            "midi": 23,
            "name": "B0",
            "ticks": 58272,
            "time": 95.8419615,
            "velocity": 0.7874015748031497
          },
          {
            "duration": 0.0789472499999988,
            "durationTicks": 48,
            "midi": 21,
            "name": "A0",
            "ticks": 58368,
            "time": 95.999856,
            "velocity": 0.7874015748031497
          },
          {
            "duration": 0.0789472499999988,
            "durationTicks": 48,
            "midi": 21,
            "name": "A0",
            "ticks": 58464,
            "time": 96.15775049999999,
            "velocity": 0.7874015748031497
          },
          {
            "duration": 0.07894725000001301,
            "durationTicks": 48,
            "midi": 21,
            "name": "A0",
            "ticks": 58560,
            "time": 96.31564499999999,
            "velocity": 0.7874015748031497
          },
          {
            "duration": 0.0789472499999988,
            "durationTicks": 48,
            "midi": 21,
            "name": "A0",
            "ticks": 58656,
            "time": 96.4735395,
            "velocity": 0.7874015748031497
          },
          {
            "duration": 0.0789472499999988,
            "durationTicks": 48,
            "midi": 21,
            "name": "A0",
            "ticks": 58752,
            "time": 96.631434,
            "velocity": 0.7874015748031497
          },
          {
            "duration": 0.0789472499999988,
            "durationTicks": 48,
            "midi": 21,
            "name": "A0",
            "ticks": 58848,
            "time": 96.7893285,
            "velocity": 0.7874015748031497
          },
          {
            "duration": 0.0789472499999988,
            "durationTicks": 48,
            "midi": 21,
            "name": "A0",
            "ticks": 58944,
            "time": 96.947223,
            "velocity": 0.7874015748031497
          },
          {
            "duration": 0.0789472499999988,
            "durationTicks": 48,
            "midi": 21,
            "name": "A0",
            "ticks": 59040,
            "time": 97.10511749999999,
            "velocity": 0.7874015748031497
          },
          {
            "duration": 0.07894725000001301,
            "durationTicks": 48,
            "midi": 21,
            "name": "A0",
            "ticks": 59136,
            "time": 97.26301199999999,
            "velocity": 0.7874015748031497
          },
          {
            "duration": 0.0789472499999988,
            "durationTicks": 48,
            "midi": 21,
            "name": "A0",
            "ticks": 59232,
            "time": 97.4209065,
            "velocity": 0.7874015748031497
          },
          {
            "duration": 0.0789472499999988,
            "durationTicks": 48,
            "midi": 21,
            "name": "A0",
            "ticks": 59328,
            "time": 97.578801,
            "velocity": 0.7874015748031497
          },
          {
            "duration": 0.0789472499999988,
            "durationTicks": 48,
            "midi": 21,
            "name": "A0",
            "ticks": 59424,
            "time": 97.7366955,
            "velocity": 0.7874015748031497
          },
          {
            "duration": 0.0789472499999988,
            "durationTicks": 48,
            "midi": 21,
            "name": "A0",
            "ticks": 59520,
            "time": 97.89459,
            "velocity": 0.7874015748031497
          },
          {
            "duration": 0.0789472499999988,
            "durationTicks": 48,
            "midi": 21,
            "name": "A0",
            "ticks": 59616,
            "time": 98.05248449999999,
            "velocity": 0.7874015748031497
          },
          {
            "duration": 0.07894725000001301,
            "durationTicks": 48,
            "midi": 21,
            "name": "A0",
            "ticks": 59712,
            "time": 98.21037899999999,
            "velocity": 0.7874015748031497
          },
          {
            "duration": 0.0789472499999988,
            "durationTicks": 48,
            "midi": 21,
            "name": "A0",
            "ticks": 59808,
            "time": 98.3682735,
            "velocity": 0.7874015748031497
          },
          {
            "duration": 0.0789472499999988,
            "durationTicks": 48,
            "midi": 23,
            "name": "B0",
            "ticks": 59904,
            "time": 98.526168,
            "velocity": 0.7874015748031497
          },
          {
            "duration": 0.0789472499999988,
            "durationTicks": 48,
            "midi": 23,
            "name": "B0",
            "ticks": 60000,
            "time": 98.6840625,
            "velocity": 0.7874015748031497
          },
          {
            "duration": 0.0789472499999988,
            "durationTicks": 48,
            "midi": 23,
            "name": "B0",
            "ticks": 60096,
            "time": 98.841957,
            "velocity": 0.7874015748031497
          },
          {
            "duration": 0.0789472499999988,
            "durationTicks": 48,
            "midi": 23,
            "name": "B0",
            "ticks": 60192,
            "time": 98.99985149999999,
            "velocity": 0.7874015748031497
          },
          {
            "duration": 0.07894725000001301,
            "durationTicks": 48,
            "midi": 23,
            "name": "B0",
            "ticks": 60288,
            "time": 99.15774599999999,
            "velocity": 0.7874015748031497
          },
          {
            "duration": 0.0789472499999988,
            "durationTicks": 48,
            "midi": 23,
            "name": "B0",
            "ticks": 60384,
            "time": 99.3156405,
            "velocity": 0.7874015748031497
          },
          {
            "duration": 0.0789472499999988,
            "durationTicks": 48,
            "midi": 23,
            "name": "B0",
            "ticks": 60480,
            "time": 99.473535,
            "velocity": 0.7874015748031497
          },
          {
            "duration": 0.0789472499999988,
            "durationTicks": 48,
            "midi": 23,
            "name": "B0",
            "ticks": 60576,
            "time": 99.6314295,
            "velocity": 0.7874015748031497
          },
          {
            "duration": 0.0789472499999988,
            "durationTicks": 48,
            "midi": 23,
            "name": "B0",
            "ticks": 60672,
            "time": 99.789324,
            "velocity": 0.7874015748031497
          },
          {
            "duration": 0.0789472499999988,
            "durationTicks": 48,
            "midi": 23,
            "name": "B0",
            "ticks": 60768,
            "time": 99.94721849999999,
            "velocity": 0.7874015748031497
          },
          {
            "duration": 0.07894725000001301,
            "durationTicks": 48,
            "midi": 23,
            "name": "B0",
            "ticks": 60864,
            "time": 100.10511299999999,
            "velocity": 0.7874015748031497
          },
          {
            "duration": 0.0789472499999988,
            "durationTicks": 48,
            "midi": 23,
            "name": "B0",
            "ticks": 60960,
            "time": 100.2630075,
            "velocity": 0.7874015748031497
          },
          {
            "duration": 0.0789472499999988,
            "durationTicks": 48,
            "midi": 23,
            "name": "B0",
            "ticks": 61056,
            "time": 100.420902,
            "velocity": 0.7874015748031497
          },
          {
            "duration": 0.0789472499999988,
            "durationTicks": 48,
            "midi": 23,
            "name": "B0",
            "ticks": 61152,
            "time": 100.5787965,
            "velocity": 0.7874015748031497
          },
          {
            "duration": 0.0789472499999988,
            "durationTicks": 48,
            "midi": 23,
            "name": "B0",
            "ticks": 61248,
            "time": 100.736691,
            "velocity": 0.7874015748031497
          },
          {
            "duration": 0.0789472499999988,
            "durationTicks": 48,
            "midi": 23,
            "name": "B0",
            "ticks": 61344,
            "time": 100.89458549999999,
            "velocity": 0.7874015748031497
          },
          {
            "duration": 0.0789472499999988,
            "durationTicks": 48,
            "midi": 18,
            "name": "F#0",
            "ticks": 61440,
            "time": 101.05248,
            "velocity": 0.7874015748031497
          },
          {
            "duration": 0.0789472499999988,
            "durationTicks": 48,
            "midi": 18,
            "name": "F#0",
            "ticks": 61536,
            "time": 101.2103745,
            "velocity": 0.7874015748031497
          },
          {
            "duration": 0.0789472499999988,
            "durationTicks": 48,
            "midi": 18,
            "name": "F#0",
            "ticks": 61632,
            "time": 101.368269,
            "velocity": 0.7874015748031497
          },
          {
            "duration": 0.0789472499999988,
            "durationTicks": 48,
            "midi": 18,
            "name": "F#0",
            "ticks": 61728,
            "time": 101.5261635,
            "velocity": 0.7874015748031497
          },
          {
            "duration": 0.0789472499999988,
            "durationTicks": 48,
            "midi": 18,
            "name": "F#0",
            "ticks": 61824,
            "time": 101.684058,
            "velocity": 0.7874015748031497
          },
          {
            "duration": 0.0789472499999988,
            "durationTicks": 48,
            "midi": 18,
            "name": "F#0",
            "ticks": 61920,
            "time": 101.84195249999999,
            "velocity": 0.7874015748031497
          },
          {
            "duration": 0.0789472499999988,
            "durationTicks": 48,
            "midi": 18,
            "name": "F#0",
            "ticks": 62016,
            "time": 101.999847,
            "velocity": 0.7874015748031497
          },
          {
            "duration": 0.0789472499999988,
            "durationTicks": 48,
            "midi": 18,
            "name": "F#0",
            "ticks": 62112,
            "time": 102.1577415,
            "velocity": 0.7874015748031497
          },
          {
            "duration": 0.0789472499999988,
            "durationTicks": 48,
            "midi": 18,
            "name": "F#0",
            "ticks": 62208,
            "time": 102.315636,
            "velocity": 0.7874015748031497
          },
          {
            "duration": 0.0789472499999988,
            "durationTicks": 48,
            "midi": 18,
            "name": "F#0",
            "ticks": 62304,
            "time": 102.4735305,
            "velocity": 0.7874015748031497
          },
          {
            "duration": 0.0789472499999988,
            "durationTicks": 48,
            "midi": 18,
            "name": "F#0",
            "ticks": 62400,
            "time": 102.631425,
            "velocity": 0.7874015748031497
          },
          {
            "duration": 0.0789472499999988,
            "durationTicks": 48,
            "midi": 18,
            "name": "F#0",
            "ticks": 62496,
            "time": 102.78931949999999,
            "velocity": 0.7874015748031497
          },
          {
            "duration": 0.0789472499999988,
            "durationTicks": 48,
            "midi": 18,
            "name": "F#0",
            "ticks": 62592,
            "time": 102.947214,
            "velocity": 0.7874015748031497
          },
          {
            "duration": 0.0789472499999988,
            "durationTicks": 48,
            "midi": 18,
            "name": "F#0",
            "ticks": 62688,
            "time": 103.1051085,
            "velocity": 0.7874015748031497
          },
          {
            "duration": 0.0789472499999988,
            "durationTicks": 48,
            "midi": 18,
            "name": "F#0",
            "ticks": 62784,
            "time": 103.263003,
            "velocity": 0.7874015748031497
          },
          {
            "duration": 0.0789472499999988,
            "durationTicks": 48,
            "midi": 18,
            "name": "F#0",
            "ticks": 62880,
            "time": 103.4208975,
            "velocity": 0.7874015748031497
          },
          {
            "duration": 0.0789472499999988,
            "durationTicks": 48,
            "midi": 20,
            "name": "G#0",
            "ticks": 62976,
            "time": 103.57879199999999,
            "velocity": 0.7874015748031497
          },
          {
            "duration": 0.0789472499999988,
            "durationTicks": 48,
            "midi": 20,
            "name": "G#0",
            "ticks": 63072,
            "time": 103.73668649999999,
            "velocity": 0.7874015748031497
          },
          {
            "duration": 0.0789472499999988,
            "durationTicks": 48,
            "midi": 20,
            "name": "G#0",
            "ticks": 63168,
            "time": 103.894581,
            "velocity": 0.7874015748031497
          },
          {
            "duration": 0.0789472499999988,
            "durationTicks": 48,
            "midi": 20,
            "name": "G#0",
            "ticks": 63264,
            "time": 104.0524755,
            "velocity": 0.7874015748031497
          },
          {
            "duration": 0.0789472499999988,
            "durationTicks": 48,
            "midi": 20,
            "name": "G#0",
            "ticks": 63360,
            "time": 104.21037,
            "velocity": 0.7874015748031497
          },
          {
            "duration": 0.0789472499999988,
            "durationTicks": 48,
            "midi": 20,
            "name": "G#0",
            "ticks": 63456,
            "time": 104.3682645,
            "velocity": 0.7874015748031497
          },
          {
            "duration": 0.0789472499999988,
            "durationTicks": 48,
            "midi": 20,
            "name": "G#0",
            "ticks": 63552,
            "time": 104.52615899999999,
            "velocity": 0.7874015748031497
          },
          {
            "duration": 0.0789472499999988,
            "durationTicks": 48,
            "midi": 20,
            "name": "G#0",
            "ticks": 63648,
            "time": 104.68405349999999,
            "velocity": 0.7874015748031497
          },
          {
            "duration": 0.0789472499999988,
            "durationTicks": 48,
            "midi": 20,
            "name": "G#0",
            "ticks": 63744,
            "time": 104.841948,
            "velocity": 0.7874015748031497
          },
          {
            "duration": 0.0789472499999988,
            "durationTicks": 48,
            "midi": 20,
            "name": "G#0",
            "ticks": 63840,
            "time": 104.9998425,
            "velocity": 0.7874015748031497
          },
          {
            "duration": 0.0789472499999988,
            "durationTicks": 48,
            "midi": 20,
            "name": "G#0",
            "ticks": 63936,
            "time": 105.157737,
            "velocity": 0.7874015748031497
          },
          {
            "duration": 0.0789472499999988,
            "durationTicks": 48,
            "midi": 20,
            "name": "G#0",
            "ticks": 64032,
            "time": 105.3156315,
            "velocity": 0.7874015748031497
          },
          {
            "duration": 0.0789472499999988,
            "durationTicks": 48,
            "midi": 20,
            "name": "G#0",
            "ticks": 64128,
            "time": 105.47352599999999,
            "velocity": 0.7874015748031497
          },
          {
            "duration": 0.0789472499999988,
            "durationTicks": 48,
            "midi": 20,
            "name": "G#0",
            "ticks": 64224,
            "time": 105.63142049999999,
            "velocity": 0.7874015748031497
          },
          {
            "duration": 0.0789472499999988,
            "durationTicks": 48,
            "midi": 20,
            "name": "G#0",
            "ticks": 64320,
            "time": 105.789315,
            "velocity": 0.7874015748031497
          },
          {
            "duration": 0.0789472499999988,
            "durationTicks": 48,
            "midi": 20,
            "name": "G#0",
            "ticks": 64416,
            "time": 105.9472095,
            "velocity": 0.7874015748031497
          },
          {
            "duration": 0.0789472499999988,
            "durationTicks": 48,
            "midi": 21,
            "name": "A0",
            "ticks": 64512,
            "time": 106.105104,
            "velocity": 0.7874015748031497
          },
          {
            "duration": 0.0789472499999988,
            "durationTicks": 48,
            "midi": 21,
            "name": "A0",
            "ticks": 64608,
            "time": 106.2629985,
            "velocity": 0.7874015748031497
          },
          {
            "duration": 0.0789472499999988,
            "durationTicks": 48,
            "midi": 21,
            "name": "A0",
            "ticks": 64704,
            "time": 106.42089299999999,
            "velocity": 0.7874015748031497
          },
          {
            "duration": 0.0789472499999988,
            "durationTicks": 48,
            "midi": 21,
            "name": "A0",
            "ticks": 64800,
            "time": 106.57878749999999,
            "velocity": 0.7874015748031497
          },
          {
            "duration": 0.0789472499999988,
            "durationTicks": 48,
            "midi": 21,
            "name": "A0",
            "ticks": 64896,
            "time": 106.736682,
            "velocity": 0.7874015748031497
          },
          {
            "duration": 0.0789472499999988,
            "durationTicks": 48,
            "midi": 21,
            "name": "A0",
            "ticks": 64992,
            "time": 106.8945765,
            "velocity": 0.7874015748031497
          },
          {
            "duration": 0.0789472499999988,
            "durationTicks": 48,
            "midi": 21,
            "name": "A0",
            "ticks": 65088,
            "time": 107.052471,
            "velocity": 0.7874015748031497
          },
          {
            "duration": 0.0789472499999988,
            "durationTicks": 48,
            "midi": 21,
            "name": "A0",
            "ticks": 65184,
            "time": 107.2103655,
            "velocity": 0.7874015748031497
          },
          {
            "duration": 0.0789472499999988,
            "durationTicks": 48,
            "midi": 21,
            "name": "A0",
            "ticks": 65280,
            "time": 107.36825999999999,
            "velocity": 0.7874015748031497
          },
          {
            "duration": 0.0789472499999988,
            "durationTicks": 48,
            "midi": 21,
            "name": "A0",
            "ticks": 65376,
            "time": 107.52615449999999,
            "velocity": 0.7874015748031497
          },
          {
            "duration": 0.0789472499999988,
            "durationTicks": 48,
            "midi": 21,
            "name": "A0",
            "ticks": 65472,
            "time": 107.684049,
            "velocity": 0.7874015748031497
          },
          {
            "duration": 0.0789472499999988,
            "durationTicks": 48,
            "midi": 21,
            "name": "A0",
            "ticks": 65568,
            "time": 107.8419435,
            "velocity": 0.7874015748031497
          },
          {
            "duration": 0.0789472499999988,
            "durationTicks": 48,
            "midi": 21,
            "name": "A0",
            "ticks": 65664,
            "time": 107.999838,
            "velocity": 0.7874015748031497
          },
          {
            "duration": 0.0789472499999988,
            "durationTicks": 48,
            "midi": 21,
            "name": "A0",
            "ticks": 65760,
            "time": 108.1577325,
            "velocity": 0.7874015748031497
          },
          {
            "duration": 0.0789472499999988,
            "durationTicks": 48,
            "midi": 21,
            "name": "A0",
            "ticks": 65856,
            "time": 108.31562699999999,
            "velocity": 0.7874015748031497
          },
          {
            "duration": 0.0789472499999988,
            "durationTicks": 48,
            "midi": 21,
            "name": "A0",
            "ticks": 65952,
            "time": 108.47352149999999,
            "velocity": 0.7874015748031497
          },
          {
            "duration": 0.0789472499999988,
            "durationTicks": 48,
            "midi": 23,
            "name": "B0",
            "ticks": 66048,
            "time": 108.631416,
            "velocity": 0.7874015748031497
          },
          {
            "duration": 0.0789472499999988,
            "durationTicks": 48,
            "midi": 23,
            "name": "B0",
            "ticks": 66144,
            "time": 108.7893105,
            "velocity": 0.7874015748031497
          },
          {
            "duration": 0.0789472499999988,
            "durationTicks": 48,
            "midi": 23,
            "name": "B0",
            "ticks": 66240,
            "time": 108.947205,
            "velocity": 0.7874015748031497
          },
          {
            "duration": 0.0789472499999988,
            "durationTicks": 48,
            "midi": 23,
            "name": "B0",
            "ticks": 66336,
            "time": 109.1050995,
            "velocity": 0.7874015748031497
          },
          {
            "duration": 0.0789472499999988,
            "durationTicks": 48,
            "midi": 23,
            "name": "B0",
            "ticks": 66432,
            "time": 109.26299399999999,
            "velocity": 0.7874015748031497
          },
          {
            "duration": 0.0789472499999988,
            "durationTicks": 48,
            "midi": 23,
            "name": "B0",
            "ticks": 66528,
            "time": 109.42088849999999,
            "velocity": 0.7874015748031497
          },
          {
            "duration": 0.0789472499999988,
            "durationTicks": 48,
            "midi": 23,
            "name": "B0",
            "ticks": 66624,
            "time": 109.578783,
            "velocity": 0.7874015748031497
          },
          {
            "duration": 0.0789472499999988,
            "durationTicks": 48,
            "midi": 23,
            "name": "B0",
            "ticks": 66720,
            "time": 109.7366775,
            "velocity": 0.7874015748031497
          },
          {
            "duration": 0.0789472499999988,
            "durationTicks": 48,
            "midi": 23,
            "name": "B0",
            "ticks": 66816,
            "time": 109.894572,
            "velocity": 0.7874015748031497
          },
          {
            "duration": 0.0789472499999988,
            "durationTicks": 48,
            "midi": 23,
            "name": "B0",
            "ticks": 66912,
            "time": 110.0524665,
            "velocity": 0.7874015748031497
          },
          {
            "duration": 0.0789472499999988,
            "durationTicks": 48,
            "midi": 23,
            "name": "B0",
            "ticks": 67008,
            "time": 110.21036099999999,
            "velocity": 0.7874015748031497
          },
          {
            "duration": 0.0789472499999988,
            "durationTicks": 48,
            "midi": 23,
            "name": "B0",
            "ticks": 67104,
            "time": 110.36825549999999,
            "velocity": 0.7874015748031497
          },
          {
            "duration": 0.0789472499999988,
            "durationTicks": 48,
            "midi": 23,
            "name": "B0",
            "ticks": 67200,
            "time": 110.52615,
            "velocity": 0.7874015748031497
          },
          {
            "duration": 0.0789472499999988,
            "durationTicks": 48,
            "midi": 23,
            "name": "B0",
            "ticks": 67296,
            "time": 110.6840445,
            "velocity": 0.7874015748031497
          },
          {
            "duration": 0.0789472499999988,
            "durationTicks": 48,
            "midi": 23,
            "name": "B0",
            "ticks": 67392,
            "time": 110.841939,
            "velocity": 0.7874015748031497
          },
          {
            "duration": 0.0789472499999988,
            "durationTicks": 48,
            "midi": 23,
            "name": "B0",
            "ticks": 67488,
            "time": 110.9998335,
            "velocity": 0.7874015748031497
          },
          {
            "duration": 0.0789472499999988,
            "durationTicks": 48,
            "midi": 25,
            "name": "C#1",
            "ticks": 67584,
            "time": 111.15772799999999,
            "velocity": 0.7874015748031497
          },
          {
            "duration": 0.07894725000001301,
            "durationTicks": 48,
            "midi": 25,
            "name": "C#1",
            "ticks": 67680,
            "time": 111.31562249999999,
            "velocity": 0.7874015748031497
          },
          {
            "duration": 0.0789472499999988,
            "durationTicks": 48,
            "midi": 25,
            "name": "C#1",
            "ticks": 67776,
            "time": 111.473517,
            "velocity": 0.7874015748031497
          },
          {
            "duration": 0.0789472499999988,
            "durationTicks": 48,
            "midi": 25,
            "name": "C#1",
            "ticks": 67872,
            "time": 111.6314115,
            "velocity": 0.7874015748031497
          },
          {
            "duration": 0.0789472499999988,
            "durationTicks": 48,
            "midi": 25,
            "name": "C#1",
            "ticks": 67968,
            "time": 111.789306,
            "velocity": 0.7874015748031497
          },
          {
            "duration": 0.0789472499999988,
            "durationTicks": 48,
            "midi": 25,
            "name": "C#1",
            "ticks": 68064,
            "time": 111.9472005,
            "velocity": 0.7874015748031497
          },
          {
            "duration": 0.0789472499999988,
            "durationTicks": 48,
            "midi": 25,
            "name": "C#1",
            "ticks": 68160,
            "time": 112.10509499999999,
            "velocity": 0.7874015748031497
          },
          {
            "duration": 0.07894725000001301,
            "durationTicks": 48,
            "midi": 25,
            "name": "C#1",
            "ticks": 68256,
            "time": 112.26298949999999,
            "velocity": 0.7874015748031497
          },
          {
            "duration": 0.0789472499999988,
            "durationTicks": 48,
            "midi": 25,
            "name": "C#1",
            "ticks": 68352,
            "time": 112.420884,
            "velocity": 0.7874015748031497
          },
          {
            "duration": 0.0789472499999988,
            "durationTicks": 48,
            "midi": 25,
            "name": "C#1",
            "ticks": 68448,
            "time": 112.5787785,
            "velocity": 0.7874015748031497
          },
          {
            "duration": 0.0789472499999988,
            "durationTicks": 48,
            "midi": 25,
            "name": "C#1",
            "ticks": 68544,
            "time": 112.736673,
            "velocity": 0.7874015748031497
          },
          {
            "duration": 0.0789472499999988,
            "durationTicks": 48,
            "midi": 25,
            "name": "C#1",
            "ticks": 68640,
            "time": 112.8945675,
            "velocity": 0.7874015748031497
          },
          {
            "duration": 0.0789472499999988,
            "durationTicks": 48,
            "midi": 25,
            "name": "C#1",
            "ticks": 68736,
            "time": 113.05246199999999,
            "velocity": 0.7874015748031497
          },
          {
            "duration": 0.07894725000001301,
            "durationTicks": 48,
            "midi": 25,
            "name": "C#1",
            "ticks": 68832,
            "time": 113.21035649999999,
            "velocity": 0.7874015748031497
          },
          {
            "duration": 0.0789472499999988,
            "durationTicks": 48,
            "midi": 25,
            "name": "C#1",
            "ticks": 68928,
            "time": 113.368251,
            "velocity": 0.7874015748031497
          },
          {
            "duration": 0.0789472499999988,
            "durationTicks": 48,
            "midi": 25,
            "name": "C#1",
            "ticks": 69024,
            "time": 113.5261455,
            "velocity": 0.7874015748031497
          },
          {
            "duration": 0.0789472499999988,
            "durationTicks": 48,
            "midi": 23,
            "name": "B0",
            "ticks": 69120,
            "time": 113.68404,
            "velocity": 0.7874015748031497
          },
          {
            "duration": 0.0789472499999988,
            "durationTicks": 48,
            "midi": 23,
            "name": "B0",
            "ticks": 69216,
            "time": 113.8419345,
            "velocity": 0.7874015748031497
          },
          {
            "duration": 0.0789472499999988,
            "durationTicks": 48,
            "midi": 23,
            "name": "B0",
            "ticks": 69312,
            "time": 113.99982899999999,
            "velocity": 0.7874015748031497
          },
          {
            "duration": 0.07894725000001301,
            "durationTicks": 48,
            "midi": 23,
            "name": "B0",
            "ticks": 69408,
            "time": 114.15772349999999,
            "velocity": 0.7874015748031497
          },
          {
            "duration": 0.0789472499999988,
            "durationTicks": 48,
            "midi": 23,
            "name": "B0",
            "ticks": 69504,
            "time": 114.315618,
            "velocity": 0.7874015748031497
          },
          {
            "duration": 0.0789472499999988,
            "durationTicks": 48,
            "midi": 23,
            "name": "B0",
            "ticks": 69600,
            "time": 114.4735125,
            "velocity": 0.7874015748031497
          },
          {
            "duration": 0.0789472499999988,
            "durationTicks": 48,
            "midi": 23,
            "name": "B0",
            "ticks": 69696,
            "time": 114.631407,
            "velocity": 0.7874015748031497
          },
          {
            "duration": 0.0789472499999988,
            "durationTicks": 48,
            "midi": 23,
            "name": "B0",
            "ticks": 69792,
            "time": 114.7893015,
            "velocity": 0.7874015748031497
          },
          {
            "duration": 0.0789472499999988,
            "durationTicks": 48,
            "midi": 23,
            "name": "B0",
            "ticks": 69888,
            "time": 114.94719599999999,
            "velocity": 0.7874015748031497
          },
          {
            "duration": 0.07894725000001301,
            "durationTicks": 48,
            "midi": 23,
            "name": "B0",
            "ticks": 69984,
            "time": 115.10509049999999,
            "velocity": 0.7874015748031497
          },
          {
            "duration": 0.0789472499999988,
            "durationTicks": 48,
            "midi": 23,
            "name": "B0",
            "ticks": 70080,
            "time": 115.262985,
            "velocity": 0.7874015748031497
          },
          {
            "duration": 0.0789472499999988,
            "durationTicks": 48,
            "midi": 23,
            "name": "B0",
            "ticks": 70176,
            "time": 115.4208795,
            "velocity": 0.7874015748031497
          },
          {
            "duration": 0.0789472499999988,
            "durationTicks": 48,
            "midi": 23,
            "name": "B0",
            "ticks": 70272,
            "time": 115.578774,
            "velocity": 0.7874015748031497
          },
          {
            "duration": 0.0789472499999988,
            "durationTicks": 48,
            "midi": 23,
            "name": "B0",
            "ticks": 70368,
            "time": 115.7366685,
            "velocity": 0.7874015748031497
          },
          {
            "duration": 0.0789472499999988,
            "durationTicks": 48,
            "midi": 23,
            "name": "B0",
            "ticks": 70464,
            "time": 115.89456299999999,
            "velocity": 0.7874015748031497
          },
          {
            "duration": 0.07894725000001301,
            "durationTicks": 48,
            "midi": 23,
            "name": "B0",
            "ticks": 70560,
            "time": 116.05245749999999,
            "velocity": 0.7874015748031497
          },
          {
            "duration": 0.0789472499999988,
            "durationTicks": 48,
            "midi": 21,
            "name": "A0",
            "ticks": 70656,
            "time": 116.210352,
            "velocity": 0.7874015748031497
          },
          {
            "duration": 0.0789472499999988,
            "durationTicks": 48,
            "midi": 21,
            "name": "A0",
            "ticks": 70752,
            "time": 116.3682465,
            "velocity": 0.7874015748031497
          },
          {
            "duration": 0.0789472499999988,
            "durationTicks": 48,
            "midi": 21,
            "name": "A0",
            "ticks": 70848,
            "time": 116.526141,
            "velocity": 0.7874015748031497
          },
          {
            "duration": 0.0789472499999988,
            "durationTicks": 48,
            "midi": 21,
            "name": "A0",
            "ticks": 70944,
            "time": 116.6840355,
            "velocity": 0.7874015748031497
          },
          {
            "duration": 0.0789472499999988,
            "durationTicks": 48,
            "midi": 21,
            "name": "A0",
            "ticks": 71040,
            "time": 116.84192999999999,
            "velocity": 0.7874015748031497
          },
          {
            "duration": 0.07894725000001301,
            "durationTicks": 48,
            "midi": 21,
            "name": "A0",
            "ticks": 71136,
            "time": 116.99982449999999,
            "velocity": 0.7874015748031497
          },
          {
            "duration": 0.0789472499999988,
            "durationTicks": 48,
            "midi": 21,
            "name": "A0",
            "ticks": 71232,
            "time": 117.157719,
            "velocity": 0.7874015748031497
          },
          {
            "duration": 0.0789472499999988,
            "durationTicks": 48,
            "midi": 21,
            "name": "A0",
            "ticks": 71328,
            "time": 117.3156135,
            "velocity": 0.7874015748031497
          },
          {
            "duration": 0.0789472499999988,
            "durationTicks": 48,
            "midi": 21,
            "name": "A0",
            "ticks": 71424,
            "time": 117.473508,
            "velocity": 0.7874015748031497
          },
          {
            "duration": 0.0789472499999988,
            "durationTicks": 48,
            "midi": 21,
            "name": "A0",
            "ticks": 71520,
            "time": 117.6314025,
            "velocity": 0.7874015748031497
          },
          {
            "duration": 0.0789472499999988,
            "durationTicks": 48,
            "midi": 21,
            "name": "A0",
            "ticks": 71616,
            "time": 117.78929699999999,
            "velocity": 0.7874015748031497
          },
          {
            "duration": 0.07894725000001301,
            "durationTicks": 48,
            "midi": 21,
            "name": "A0",
            "ticks": 71712,
            "time": 117.94719149999999,
            "velocity": 0.7874015748031497
          },
          {
            "duration": 0.0789472499999988,
            "durationTicks": 48,
            "midi": 21,
            "name": "A0",
            "ticks": 71808,
            "time": 118.105086,
            "velocity": 0.7874015748031497
          },
          {
            "duration": 0.0789472499999988,
            "durationTicks": 48,
            "midi": 21,
            "name": "A0",
            "ticks": 71904,
            "time": 118.2629805,
            "velocity": 0.7874015748031497
          },
          {
            "duration": 0.0789472499999988,
            "durationTicks": 48,
            "midi": 21,
            "name": "A0",
            "ticks": 72000,
            "time": 118.420875,
            "velocity": 0.7874015748031497
          },
          {
            "duration": 0.0789472499999988,
            "durationTicks": 48,
            "midi": 21,
            "name": "A0",
            "ticks": 72096,
            "time": 118.57876949999999,
            "velocity": 0.7874015748031497
          },
          {
            "duration": 0.0789472499999988,
            "durationTicks": 48,
            "midi": 23,
            "name": "B0",
            "ticks": 72192,
            "time": 118.73666399999999,
            "velocity": 0.7874015748031497
          },
          {
            "duration": 0.07894725000001301,
            "durationTicks": 48,
            "midi": 23,
            "name": "B0",
            "ticks": 72288,
            "time": 118.89455849999999,
            "velocity": 0.7874015748031497
          },
          {
            "duration": 0.0789472499999988,
            "durationTicks": 48,
            "midi": 23,
            "name": "B0",
            "ticks": 72384,
            "time": 119.052453,
            "velocity": 0.7874015748031497
          },
          {
            "duration": 0.0789472499999988,
            "durationTicks": 48,
            "midi": 23,
            "name": "B0",
            "ticks": 72480,
            "time": 119.2103475,
            "velocity": 0.7874015748031497
          },
          {
            "duration": 0.0789472499999988,
            "durationTicks": 48,
            "midi": 23,
            "name": "B0",
            "ticks": 72576,
            "time": 119.368242,
            "velocity": 0.7874015748031497
          },
          {
            "duration": 0.0789472499999988,
            "durationTicks": 48,
            "midi": 23,
            "name": "B0",
            "ticks": 72672,
            "time": 119.52613649999999,
            "velocity": 0.7874015748031497
          },
          {
            "duration": 0.0789472499999988,
            "durationTicks": 48,
            "midi": 23,
            "name": "B0",
            "ticks": 72768,
            "time": 119.68403099999999,
            "velocity": 0.7874015748031497
          },
          {
            "duration": 0.07894725000001301,
            "durationTicks": 48,
            "midi": 23,
            "name": "B0",
            "ticks": 72864,
            "time": 119.84192549999999,
            "velocity": 0.7874015748031497
          },
          {
            "duration": 0.0789472499999988,
            "durationTicks": 48,
            "midi": 23,
            "name": "B0",
            "ticks": 72960,
            "time": 119.99982,
            "velocity": 0.7874015748031497
          },
          {
            "duration": 0.0789472499999988,
            "durationTicks": 48,
            "midi": 23,
            "name": "B0",
            "ticks": 73056,
            "time": 120.1577145,
            "velocity": 0.7874015748031497
          },
          {
            "duration": 0.0789472499999988,
            "durationTicks": 48,
            "midi": 23,
            "name": "B0",
            "ticks": 73152,
            "time": 120.315609,
            "velocity": 0.7874015748031497
          },
          {
            "duration": 0.0789472499999988,
            "durationTicks": 48,
            "midi": 23,
            "name": "B0",
            "ticks": 73248,
            "time": 120.47350349999999,
            "velocity": 0.7874015748031497
          },
          {
            "duration": 0.0789472499999988,
            "durationTicks": 48,
            "midi": 23,
            "name": "B0",
            "ticks": 73344,
            "time": 120.63139799999999,
            "velocity": 0.7874015748031497
          },
          {
            "duration": 0.07894725000001301,
            "durationTicks": 48,
            "midi": 23,
            "name": "B0",
            "ticks": 73440,
            "time": 120.78929249999999,
            "velocity": 0.7874015748031497
          },
          {
            "duration": 0.0789472499999988,
            "durationTicks": 48,
            "midi": 23,
            "name": "B0",
            "ticks": 73536,
            "time": 120.947187,
            "velocity": 0.7874015748031497
          },
          {
            "duration": 0.0789472499999988,
            "durationTicks": 48,
            "midi": 23,
            "name": "B0",
            "ticks": 73632,
            "time": 121.1050815,
            "velocity": 0.7874015748031497
          },
          {
            "duration": 0.0789472499999988,
            "durationTicks": 48,
            "midi": 18,
            "name": "F#0",
            "ticks": 73728,
            "time": 121.262976,
            "velocity": 0.7874015748031497
          },
          {
            "duration": 0.0789472499999988,
            "durationTicks": 48,
            "midi": 18,
            "name": "F#0",
            "ticks": 73824,
            "time": 121.42087049999999,
            "velocity": 0.7874015748031497
          },
          {
            "duration": 0.0789472499999988,
            "durationTicks": 48,
            "midi": 18,
            "name": "F#0",
            "ticks": 73920,
            "time": 121.57876499999999,
            "velocity": 0.7874015748031497
          },
          {
            "duration": 0.0789472499999988,
            "durationTicks": 48,
            "midi": 18,
            "name": "F#0",
            "ticks": 74016,
            "time": 121.7366595,
            "velocity": 0.7874015748031497
          },
          {
            "duration": 0.0789472499999988,
            "durationTicks": 48,
            "midi": 18,
            "name": "F#0",
            "ticks": 74112,
            "time": 121.894554,
            "velocity": 0.7874015748031497
          },
          {
            "duration": 0.0789472499999988,
            "durationTicks": 48,
            "midi": 18,
            "name": "F#0",
            "ticks": 74208,
            "time": 122.0524485,
            "velocity": 0.7874015748031497
          },
          {
            "duration": 0.0789472499999988,
            "durationTicks": 48,
            "midi": 18,
            "name": "F#0",
            "ticks": 74304,
            "time": 122.210343,
            "velocity": 0.7874015748031497
          },
          {
            "duration": 0.0789472499999988,
            "durationTicks": 48,
            "midi": 18,
            "name": "F#0",
            "ticks": 74400,
            "time": 122.36823749999999,
            "velocity": 0.7874015748031497
          },
          {
            "duration": 0.0789472499999988,
            "durationTicks": 48,
            "midi": 18,
            "name": "F#0",
            "ticks": 74496,
            "time": 122.52613199999999,
            "velocity": 0.7874015748031497
          },
          {
            "duration": 0.0789472499999988,
            "durationTicks": 48,
            "midi": 18,
            "name": "F#0",
            "ticks": 74592,
            "time": 122.6840265,
            "velocity": 0.7874015748031497
          },
          {
            "duration": 0.0789472499999988,
            "durationTicks": 48,
            "midi": 18,
            "name": "F#0",
            "ticks": 74688,
            "time": 122.841921,
            "velocity": 0.7874015748031497
          },
          {
            "duration": 0.0789472499999988,
            "durationTicks": 48,
            "midi": 18,
            "name": "F#0",
            "ticks": 74784,
            "time": 122.9998155,
            "velocity": 0.7874015748031497
          },
          {
            "duration": 0.0789472499999988,
            "durationTicks": 48,
            "midi": 18,
            "name": "F#0",
            "ticks": 74880,
            "time": 123.15771,
            "velocity": 0.7874015748031497
          },
          {
            "duration": 0.0789472499999988,
            "durationTicks": 48,
            "midi": 18,
            "name": "F#0",
            "ticks": 74976,
            "time": 123.31560449999999,
            "velocity": 0.7874015748031497
          },
          {
            "duration": 0.0789472499999988,
            "durationTicks": 48,
            "midi": 18,
            "name": "F#0",
            "ticks": 75072,
            "time": 123.47349899999999,
            "velocity": 0.7874015748031497
          },
          {
            "duration": 0.0789472499999988,
            "durationTicks": 48,
            "midi": 18,
            "name": "F#0",
            "ticks": 75168,
            "time": 123.6313935,
            "velocity": 0.7874015748031497
          },
          {
            "duration": 0.0789472499999988,
            "durationTicks": 48,
            "midi": 20,
            "name": "G#0",
            "ticks": 75264,
            "time": 123.789288,
            "velocity": 0.7874015748031497
          },
          {
            "duration": 0.0789472499999988,
            "durationTicks": 48,
            "midi": 20,
            "name": "G#0",
            "ticks": 75360,
            "time": 123.9471825,
            "velocity": 0.7874015748031497
          },
          {
            "duration": 0.0789472499999988,
            "durationTicks": 48,
            "midi": 20,
            "name": "G#0",
            "ticks": 75456,
            "time": 124.105077,
            "velocity": 0.7874015748031497
          },
          {
            "duration": 0.0789472499999988,
            "durationTicks": 48,
            "midi": 20,
            "name": "G#0",
            "ticks": 75552,
            "time": 124.26297149999999,
            "velocity": 0.7874015748031497
          },
          {
            "duration": 0.0789472499999988,
            "durationTicks": 48,
            "midi": 20,
            "name": "G#0",
            "ticks": 75648,
            "time": 124.42086599999999,
            "velocity": 0.7874015748031497
          },
          {
            "duration": 0.0789472499999988,
            "durationTicks": 48,
            "midi": 20,
            "name": "G#0",
            "ticks": 75744,
            "time": 124.5787605,
            "velocity": 0.7874015748031497
          },
          {
            "duration": 0.0789472499999988,
            "durationTicks": 48,
            "midi": 20,
            "name": "G#0",
            "ticks": 75840,
            "time": 124.736655,
            "velocity": 0.7874015748031497
          },
          {
            "duration": 0.0789472499999988,
            "durationTicks": 48,
            "midi": 20,
            "name": "G#0",
            "ticks": 75936,
            "time": 124.8945495,
            "velocity": 0.7874015748031497
          },
          {
            "duration": 0.0789472499999988,
            "durationTicks": 48,
            "midi": 20,
            "name": "G#0",
            "ticks": 76032,
            "time": 125.052444,
            "velocity": 0.7874015748031497
          },
          {
            "duration": 0.0789472499999988,
            "durationTicks": 48,
            "midi": 20,
            "name": "G#0",
            "ticks": 76128,
            "time": 125.21033849999999,
            "velocity": 0.7874015748031497
          },
          {
            "duration": 0.0789472499999988,
            "durationTicks": 48,
            "midi": 20,
            "name": "G#0",
            "ticks": 76224,
            "time": 125.36823299999999,
            "velocity": 0.7874015748031497
          },
          {
            "duration": 0.0789472499999988,
            "durationTicks": 48,
            "midi": 20,
            "name": "G#0",
            "ticks": 76320,
            "time": 125.5261275,
            "velocity": 0.7874015748031497
          },
          {
            "duration": 0.0789472499999988,
            "durationTicks": 48,
            "midi": 20,
            "name": "G#0",
            "ticks": 76416,
            "time": 125.684022,
            "velocity": 0.7874015748031497
          },
          {
            "duration": 0.0789472499999988,
            "durationTicks": 48,
            "midi": 20,
            "name": "G#0",
            "ticks": 76512,
            "time": 125.8419165,
            "velocity": 0.7874015748031497
          },
          {
            "duration": 0.0789472499999988,
            "durationTicks": 48,
            "midi": 20,
            "name": "G#0",
            "ticks": 76608,
            "time": 125.999811,
            "velocity": 0.7874015748031497
          },
          {
            "duration": 0.0789472499999988,
            "durationTicks": 48,
            "midi": 20,
            "name": "G#0",
            "ticks": 76704,
            "time": 126.15770549999999,
            "velocity": 0.7874015748031497
          }
        ],
        "endOfTrackTicks": 76752
      },
      {
        "channel": 3,
        "controlChanges": {},
        "pitchBends": [],
        "instrument": {
          "family": "ensemble",
          "number": 50,
          "name": "synthstrings 1"
        },
        "name": "Pop Synth",
        "notes": [
          {
            "duration": 0.3157890000000094,
            "durationTicks": 192,
            "midi": 49,
            "name": "C#3",
            "ticks": 76800,
            "time": 126.31559999999999,
            "velocity": 0.7874015748031497
          },
          {
            "duration": 0.3157890000000094,
            "durationTicks": 192,
            "midi": 37,
            "name": "C#2",
            "ticks": 76800,
            "time": 126.31559999999999,
            "velocity": 0.7874015748031497
          },
          {
            "duration": 0.1578944999999976,
            "durationTicks": 96,
            "midi": 49,
            "name": "C#3",
            "ticks": 76992,
            "time": 126.631389,
            "velocity": 0.7874015748031497
          },
          {
            "duration": 0.1578944999999976,
            "durationTicks": 96,
            "midi": 37,
            "name": "C#2",
            "ticks": 76992,
            "time": 126.631389,
            "velocity": 0.7874015748031497
          },
          {
            "duration": 0.1578944999999976,
            "durationTicks": 96,
            "midi": 49,
            "name": "C#3",
            "ticks": 77088,
            "time": 126.7892835,
            "velocity": 0.7874015748031497
          },
          {
            "duration": 0.1578944999999976,
            "durationTicks": 96,
            "midi": 37,
            "name": "C#2",
            "ticks": 77088,
            "time": 126.7892835,
            "velocity": 0.7874015748031497
          },
          {
            "duration": 0.3157889999999952,
            "durationTicks": 192,
            "midi": 49,
            "name": "C#3",
            "ticks": 77184,
            "time": 126.947178,
            "velocity": 0.7874015748031497
          },
          {
            "duration": 0.3157889999999952,
            "durationTicks": 192,
            "midi": 37,
            "name": "C#2",
            "ticks": 77184,
            "time": 126.947178,
            "velocity": 0.7874015748031497
          },
          {
            "duration": 0.15789450000001182,
            "durationTicks": 96,
            "midi": 37,
            "name": "C#2",
            "ticks": 77376,
            "time": 127.26296699999999,
            "velocity": 0.7874015748031497
          },
          {
            "duration": 0.15789450000001182,
            "durationTicks": 96,
            "midi": 49,
            "name": "C#3",
            "ticks": 77376,
            "time": 127.26296699999999,
            "velocity": 0.7874015748031497
          },
          {
            "duration": 0.1578944999999976,
            "durationTicks": 96,
            "midi": 37,
            "name": "C#2",
            "ticks": 77472,
            "time": 127.4208615,
            "velocity": 0.7874015748031497
          },
          {
            "duration": 0.1578944999999976,
            "durationTicks": 96,
            "midi": 49,
            "name": "C#3",
            "ticks": 77472,
            "time": 127.4208615,
            "velocity": 0.7874015748031497
          },
          {
            "duration": 0.3157889999999952,
            "durationTicks": 192,
            "midi": 49,
            "name": "C#3",
            "ticks": 77568,
            "time": 127.578756,
            "velocity": 0.7874015748031497
          },
          {
            "duration": 0.3157889999999952,
            "durationTicks": 192,
            "midi": 37,
            "name": "C#2",
            "ticks": 77568,
            "time": 127.578756,
            "velocity": 0.7874015748031497
          },
          {
            "duration": 0.1578944999999976,
            "durationTicks": 96,
            "midi": 49,
            "name": "C#3",
            "ticks": 77760,
            "time": 127.894545,
            "velocity": 0.7874015748031497
          },
          {
            "duration": 0.1578944999999976,
            "durationTicks": 96,
            "midi": 37,
            "name": "C#2",
            "ticks": 77760,
            "time": 127.894545,
            "velocity": 0.7874015748031497
          },
          {
            "duration": 0.1578944999999976,
            "durationTicks": 96,
            "midi": 49,
            "name": "C#3",
            "ticks": 77856,
            "time": 128.0524395,
            "velocity": 0.7874015748031497
          },
          {
            "duration": 0.1578944999999976,
            "durationTicks": 96,
            "midi": 37,
            "name": "C#2",
            "ticks": 77856,
            "time": 128.0524395,
            "velocity": 0.7874015748031497
          },
          {
            "duration": 0.3157889999999952,
            "durationTicks": 192,
            "midi": 49,
            "name": "C#3",
            "ticks": 77952,
            "time": 128.210334,
            "velocity": 0.7874015748031497
          },
          {
            "duration": 0.3157889999999952,
            "durationTicks": 192,
            "midi": 37,
            "name": "C#2",
            "ticks": 77952,
            "time": 128.210334,
            "velocity": 0.7874015748031497
          },
          {
            "duration": 0.31578900000002363,
            "durationTicks": 192,
            "midi": 37,
            "name": "C#2",
            "ticks": 78144,
            "time": 128.52612299999998,
            "velocity": 0.7874015748031497
          },
          {
            "duration": 0.31578900000002363,
            "durationTicks": 192,
            "midi": 49,
            "name": "C#3",
            "ticks": 78144,
            "time": 128.52612299999998,
            "velocity": 0.7874015748031497
          },
          {
            "duration": 0.3157889999999952,
            "durationTicks": 192,
            "midi": 44,
            "name": "G#2",
            "ticks": 78336,
            "time": 128.841912,
            "velocity": 0.7874015748031497
          },
          {
            "duration": 0.3157889999999952,
            "durationTicks": 192,
            "midi": 32,
            "name": "G#1",
            "ticks": 78336,
            "time": 128.841912,
            "velocity": 0.7874015748031497
          },
          {
            "duration": 0.1578944999999976,
            "durationTicks": 96,
            "midi": 32,
            "name": "G#1",
            "ticks": 78528,
            "time": 129.157701,
            "velocity": 0.7874015748031497
          },
          {
            "duration": 0.1578944999999976,
            "durationTicks": 96,
            "midi": 44,
            "name": "G#2",
            "ticks": 78528,
            "time": 129.157701,
            "velocity": 0.7874015748031497
          },
          {
            "duration": 0.1578944999999976,
            "durationTicks": 96,
            "midi": 44,
            "name": "G#2",
            "ticks": 78624,
            "time": 129.3155955,
            "velocity": 0.7874015748031497
          },
          {
            "duration": 0.1578944999999976,
            "durationTicks": 96,
            "midi": 32,
            "name": "G#1",
            "ticks": 78624,
            "time": 129.3155955,
            "velocity": 0.7874015748031497
          },
          {
            "duration": 0.3157889999999952,
            "durationTicks": 192,
            "midi": 32,
            "name": "G#1",
            "ticks": 78720,
            "time": 129.47349,
            "velocity": 0.7874015748031497
          },
          {
            "duration": 0.3157889999999952,
            "durationTicks": 192,
            "midi": 44,
            "name": "G#2",
            "ticks": 78720,
            "time": 129.47349,
            "velocity": 0.7874015748031497
          },
          {
            "duration": 0.1578944999999976,
            "durationTicks": 96,
            "midi": 32,
            "name": "G#1",
            "ticks": 78912,
            "time": 129.789279,
            "velocity": 0.7874015748031497
          },
          {
            "duration": 0.1578944999999976,
            "durationTicks": 96,
            "midi": 44,
            "name": "G#2",
            "ticks": 78912,
            "time": 129.789279,
            "velocity": 0.7874015748031497
          },
          {
            "duration": 0.1578944999999976,
            "durationTicks": 96,
            "midi": 44,
            "name": "G#2",
            "ticks": 79008,
            "time": 129.9471735,
            "velocity": 0.7874015748031497
          },
          {
            "duration": 0.1578944999999976,
            "durationTicks": 96,
            "midi": 32,
            "name": "G#1",
            "ticks": 79008,
            "time": 129.9471735,
            "velocity": 0.7874015748031497
          },
          {
            "duration": 0.3157889999999952,
            "durationTicks": 192,
            "midi": 32,
            "name": "G#1",
            "ticks": 79104,
            "time": 130.105068,
            "velocity": 0.7874015748031497
          },
          {
            "duration": 0.3157889999999952,
            "durationTicks": 192,
            "midi": 44,
            "name": "G#2",
            "ticks": 79104,
            "time": 130.105068,
            "velocity": 0.7874015748031497
          },
          {
            "duration": 0.1578944999999976,
            "durationTicks": 96,
            "midi": 44,
            "name": "G#2",
            "ticks": 79296,
            "time": 130.42085699999998,
            "velocity": 0.7874015748031497
          },
          {
            "duration": 0.1578944999999976,
            "durationTicks": 96,
            "midi": 32,
            "name": "G#1",
            "ticks": 79296,
            "time": 130.42085699999998,
            "velocity": 0.7874015748031497
          },
          {
            "duration": 0.15789450000002603,
            "durationTicks": 96,
            "midi": 32,
            "name": "G#1",
            "ticks": 79392,
            "time": 130.57875149999998,
            "velocity": 0.7874015748031497
          },
          {
            "duration": 0.15789450000002603,
            "durationTicks": 96,
            "midi": 44,
            "name": "G#2",
            "ticks": 79392,
            "time": 130.57875149999998,
            "velocity": 0.7874015748031497
          },
          {
            "duration": 0.3157889999999952,
            "durationTicks": 192,
            "midi": 32,
            "name": "G#1",
            "ticks": 79488,
            "time": 130.736646,
            "velocity": 0.7874015748031497
          },
          {
            "duration": 0.3157889999999952,
            "durationTicks": 192,
            "midi": 44,
            "name": "G#2",
            "ticks": 79488,
            "time": 130.736646,
            "velocity": 0.7874015748031497
          },
          {
            "duration": 0.3157889999999952,
            "durationTicks": 192,
            "midi": 44,
            "name": "G#2",
            "ticks": 79680,
            "time": 131.052435,
            "velocity": 0.7874015748031497
          },
          {
            "duration": 0.3157889999999952,
            "durationTicks": 192,
            "midi": 32,
            "name": "G#1",
            "ticks": 79680,
            "time": 131.052435,
            "velocity": 0.7874015748031497
          },
          {
            "duration": 0.3157889999999952,
            "durationTicks": 192,
            "midi": 51,
            "name": "D#3",
            "ticks": 79872,
            "time": 131.368224,
            "velocity": 0.7874015748031497
          },
          {
            "duration": 0.3157889999999952,
            "durationTicks": 192,
            "midi": 39,
            "name": "D#2",
            "ticks": 79872,
            "time": 131.368224,
            "velocity": 0.7874015748031497
          },
          {
            "duration": 0.1578944999999976,
            "durationTicks": 96,
            "midi": 39,
            "name": "D#2",
            "ticks": 80064,
            "time": 131.684013,
            "velocity": 0.7874015748031497
          },
          {
            "duration": 0.1578944999999976,
            "durationTicks": 96,
            "midi": 51,
            "name": "D#3",
            "ticks": 80064,
            "time": 131.684013,
            "velocity": 0.7874015748031497
          },
          {
            "duration": 0.1578944999999976,
            "durationTicks": 96,
            "midi": 39,
            "name": "D#2",
            "ticks": 80160,
            "time": 131.8419075,
            "velocity": 0.7874015748031497
          },
          {
            "duration": 0.1578944999999976,
            "durationTicks": 96,
            "midi": 51,
            "name": "D#3",
            "ticks": 80160,
            "time": 131.8419075,
            "velocity": 0.7874015748031497
          },
          {
            "duration": 0.3157889999999952,
            "durationTicks": 192,
            "midi": 39,
            "name": "D#2",
            "ticks": 80256,
            "time": 131.999802,
            "velocity": 0.7874015748031497
          },
          {
            "duration": 0.3157889999999952,
            "durationTicks": 192,
            "midi": 51,
            "name": "D#3",
            "ticks": 80256,
            "time": 131.999802,
            "velocity": 0.7874015748031497
          },
          {
            "duration": 0.1578944999999976,
            "durationTicks": 96,
            "midi": 39,
            "name": "D#2",
            "ticks": 80448,
            "time": 132.31559099999998,
            "velocity": 0.7874015748031497
          },
          {
            "duration": 0.1578944999999976,
            "durationTicks": 96,
            "midi": 51,
            "name": "D#3",
            "ticks": 80448,
            "time": 132.31559099999998,
            "velocity": 0.7874015748031497
          },
          {
            "duration": 0.15789450000002603,
            "durationTicks": 96,
            "midi": 51,
            "name": "D#3",
            "ticks": 80544,
            "time": 132.47348549999998,
            "velocity": 0.7874015748031497
          },
          {
            "duration": 0.15789450000002603,
            "durationTicks": 96,
            "midi": 39,
            "name": "D#2",
            "ticks": 80544,
            "time": 132.47348549999998,
            "velocity": 0.7874015748031497
          },
          {
            "duration": 0.3157889999999952,
            "durationTicks": 192,
            "midi": 51,
            "name": "D#3",
            "ticks": 80640,
            "time": 132.63138,
            "velocity": 0.7874015748031497
          },
          {
            "duration": 0.3157889999999952,
            "durationTicks": 192,
            "midi": 39,
            "name": "D#2",
            "ticks": 80640,
            "time": 132.63138,
            "velocity": 0.7874015748031497
          },
          {
            "duration": 0.1578944999999976,
            "durationTicks": 96,
            "midi": 39,
            "name": "D#2",
            "ticks": 80832,
            "time": 132.947169,
            "velocity": 0.7874015748031497
          },
          {
            "duration": 0.1578944999999976,
            "durationTicks": 96,
            "midi": 51,
            "name": "D#3",
            "ticks": 80832,
            "time": 132.947169,
            "velocity": 0.7874015748031497
          },
          {
            "duration": 0.1578944999999976,
            "durationTicks": 96,
            "midi": 39,
            "name": "D#2",
            "ticks": 80928,
            "time": 133.1050635,
            "velocity": 0.7874015748031497
          },
          {
            "duration": 0.1578944999999976,
            "durationTicks": 96,
            "midi": 51,
            "name": "D#3",
            "ticks": 80928,
            "time": 133.1050635,
            "velocity": 0.7874015748031497
          },
          {
            "duration": 0.3157889999999952,
            "durationTicks": 192,
            "midi": 39,
            "name": "D#2",
            "ticks": 81024,
            "time": 133.262958,
            "velocity": 0.7874015748031497
          },
          {
            "duration": 0.3157889999999952,
            "durationTicks": 192,
            "midi": 51,
            "name": "D#3",
            "ticks": 81024,
            "time": 133.262958,
            "velocity": 0.7874015748031497
          },
          {
            "duration": 0.3157889999999952,
            "durationTicks": 192,
            "midi": 39,
            "name": "D#2",
            "ticks": 81216,
            "time": 133.578747,
            "velocity": 0.7874015748031497
          },
          {
            "duration": 0.3157889999999952,
            "durationTicks": 192,
            "midi": 51,
            "name": "D#3",
            "ticks": 81216,
            "time": 133.578747,
            "velocity": 0.7874015748031497
          },
          {
            "duration": 0.3157889999999952,
            "durationTicks": 192,
            "midi": 50,
            "name": "D3",
            "ticks": 81408,
            "time": 133.894536,
            "velocity": 0.7874015748031497
          },
          {
            "duration": 0.3157889999999952,
            "durationTicks": 192,
            "midi": 38,
            "name": "D2",
            "ticks": 81408,
            "time": 133.894536,
            "velocity": 0.7874015748031497
          },
          {
            "duration": 0.1578944999999976,
            "durationTicks": 96,
            "midi": 50,
            "name": "D3",
            "ticks": 81600,
            "time": 134.21032499999998,
            "velocity": 0.7874015748031497
          },
          {
            "duration": 0.1578944999999976,
            "durationTicks": 96,
            "midi": 38,
            "name": "D2",
            "ticks": 81600,
            "time": 134.21032499999998,
            "velocity": 0.7874015748031497
          },
          {
            "duration": 0.15789450000002603,
            "durationTicks": 96,
            "midi": 38,
            "name": "D2",
            "ticks": 81696,
            "time": 134.36821949999998,
            "velocity": 0.7874015748031497
          },
          {
            "duration": 0.15789450000002603,
            "durationTicks": 96,
            "midi": 50,
            "name": "D3",
            "ticks": 81696,
            "time": 134.36821949999998,
            "velocity": 0.7874015748031497
          },
          {
            "duration": 0.3157889999999952,
            "durationTicks": 192,
            "midi": 50,
            "name": "D3",
            "ticks": 81792,
            "time": 134.526114,
            "velocity": 0.7874015748031497
          },
          {
            "duration": 0.3157889999999952,
            "durationTicks": 192,
            "midi": 38,
            "name": "D2",
            "ticks": 81792,
            "time": 134.526114,
            "velocity": 0.7874015748031497
          },
          {
            "duration": 0.1578944999999976,
            "durationTicks": 96,
            "midi": 50,
            "name": "D3",
            "ticks": 81984,
            "time": 134.841903,
            "velocity": 0.7874015748031497
          },
          {
            "duration": 0.1578944999999976,
            "durationTicks": 96,
            "midi": 38,
            "name": "D2",
            "ticks": 81984,
            "time": 134.841903,
            "velocity": 0.7874015748031497
          },
          {
            "duration": 0.1578944999999976,
            "durationTicks": 96,
            "midi": 38,
            "name": "D2",
            "ticks": 82080,
            "time": 134.9997975,
            "velocity": 0.7874015748031497
          },
          {
            "duration": 0.1578944999999976,
            "durationTicks": 96,
            "midi": 50,
            "name": "D3",
            "ticks": 82080,
            "time": 134.9997975,
            "velocity": 0.7874015748031497
          },
          {
            "duration": 0.3157889999999952,
            "durationTicks": 192,
            "midi": 38,
            "name": "D2",
            "ticks": 82176,
            "time": 135.157692,
            "velocity": 0.7874015748031497
          },
          {
            "duration": 0.3157889999999952,
            "durationTicks": 192,
            "midi": 50,
            "name": "D3",
            "ticks": 82176,
            "time": 135.157692,
            "velocity": 0.7874015748031497
          },
          {
            "duration": 0.1578944999999976,
            "durationTicks": 96,
            "midi": 50,
            "name": "D3",
            "ticks": 82368,
            "time": 135.473481,
            "velocity": 0.7874015748031497
          },
          {
            "duration": 0.1578944999999976,
            "durationTicks": 96,
            "midi": 38,
            "name": "D2",
            "ticks": 82368,
            "time": 135.473481,
            "velocity": 0.7874015748031497
          },
          {
            "duration": 0.1578944999999976,
            "durationTicks": 96,
            "midi": 38,
            "name": "D2",
            "ticks": 82464,
            "time": 135.6313755,
            "velocity": 0.7874015748031497
          },
          {
            "duration": 0.1578944999999976,
            "durationTicks": 96,
            "midi": 50,
            "name": "D3",
            "ticks": 82464,
            "time": 135.6313755,
            "velocity": 0.7874015748031497
          },
          {
            "duration": 0.3157889999999952,
            "durationTicks": 192,
            "midi": 52,
            "name": "E3",
            "ticks": 82560,
            "time": 135.78927,
            "velocity": 0.7874015748031497
          },
          {
            "duration": 0.3157889999999952,
            "durationTicks": 192,
            "midi": 40,
            "name": "E2",
            "ticks": 82560,
            "time": 135.78927,
            "velocity": 0.7874015748031497
          },
          {
            "duration": 0.31578900000002363,
            "durationTicks": 192,
            "midi": 52,
            "name": "E3",
            "ticks": 82752,
            "time": 136.10505899999998,
            "velocity": 0.7874015748031497
          },
          {
            "duration": 0.31578900000002363,
            "durationTicks": 192,
            "midi": 40,
            "name": "E2",
            "ticks": 82752,
            "time": 136.10505899999998,
            "velocity": 0.7874015748031497
          },
          {
            "duration": 0.3157889999999952,
            "durationTicks": 192,
            "midi": 45,
            "name": "A2",
            "ticks": 82944,
            "time": 136.420848,
            "velocity": 0.7874015748031497
          },
          {
            "duration": 0.3157889999999952,
            "durationTicks": 192,
            "midi": 33,
            "name": "A1",
            "ticks": 82944,
            "time": 136.420848,
            "velocity": 0.7874015748031497
          },
          {
            "duration": 0.1578944999999976,
            "durationTicks": 96,
            "midi": 33,
            "name": "A1",
            "ticks": 83136,
            "time": 136.736637,
            "velocity": 0.7874015748031497
          },
          {
            "duration": 0.1578944999999976,
            "durationTicks": 96,
            "midi": 45,
            "name": "A2",
            "ticks": 83136,
            "time": 136.736637,
            "velocity": 0.7874015748031497
          },
          {
            "duration": 0.1578944999999976,
            "durationTicks": 96,
            "midi": 45,
            "name": "A2",
            "ticks": 83232,
            "time": 136.8945315,
            "velocity": 0.7874015748031497
          },
          {
            "duration": 0.1578944999999976,
            "durationTicks": 96,
            "midi": 33,
            "name": "A1",
            "ticks": 83232,
            "time": 136.8945315,
            "velocity": 0.7874015748031497
          },
          {
            "duration": 0.3157889999999952,
            "durationTicks": 192,
            "midi": 33,
            "name": "A1",
            "ticks": 83328,
            "time": 137.052426,
            "velocity": 0.7874015748031497
          },
          {
            "duration": 0.3157889999999952,
            "durationTicks": 192,
            "midi": 45,
            "name": "A2",
            "ticks": 83328,
            "time": 137.052426,
            "velocity": 0.7874015748031497
          },
          {
            "duration": 0.1578944999999976,
            "durationTicks": 96,
            "midi": 45,
            "name": "A2",
            "ticks": 83520,
            "time": 137.368215,
            "velocity": 0.7874015748031497
          },
          {
            "duration": 0.1578944999999976,
            "durationTicks": 96,
            "midi": 33,
            "name": "A1",
            "ticks": 83520,
            "time": 137.368215,
            "velocity": 0.7874015748031497
          },
          {
            "duration": 0.1578944999999976,
            "durationTicks": 96,
            "midi": 33,
            "name": "A1",
            "ticks": 83616,
            "time": 137.5261095,
            "velocity": 0.7874015748031497
          },
          {
            "duration": 0.1578944999999976,
            "durationTicks": 96,
            "midi": 45,
            "name": "A2",
            "ticks": 83616,
            "time": 137.5261095,
            "velocity": 0.7874015748031497
          },
          {
            "duration": 0.3157889999999952,
            "durationTicks": 192,
            "midi": 33,
            "name": "A1",
            "ticks": 83712,
            "time": 137.684004,
            "velocity": 0.7874015748031497
          },
          {
            "duration": 0.3157889999999952,
            "durationTicks": 192,
            "midi": 45,
            "name": "A2",
            "ticks": 83712,
            "time": 137.684004,
            "velocity": 0.7874015748031497
          },
          {
            "duration": 0.1578944999999976,
            "durationTicks": 96,
            "midi": 45,
            "name": "A2",
            "ticks": 83904,
            "time": 137.99979299999998,
            "velocity": 0.7874015748031497
          },
          {
            "duration": 0.1578944999999976,
            "durationTicks": 96,
            "midi": 33,
            "name": "A1",
            "ticks": 83904,
            "time": 137.99979299999998,
            "velocity": 0.7874015748031497
          },
          {
            "duration": 0.15789450000002603,
            "durationTicks": 96,
            "midi": 33,
            "name": "A1",
            "ticks": 84000,
            "time": 138.15768749999998,
            "velocity": 0.7874015748031497
          },
          {
            "duration": 0.15789450000002603,
            "durationTicks": 96,
            "midi": 45,
            "name": "A2",
            "ticks": 84000,
            "time": 138.15768749999998,
            "velocity": 0.7874015748031497
          },
          {
            "duration": 0.3157889999999952,
            "durationTicks": 192,
            "midi": 45,
            "name": "A2",
            "ticks": 84096,
            "time": 138.315582,
            "velocity": 0.7874015748031497
          },
          {
            "duration": 0.3157889999999952,
            "durationTicks": 192,
            "midi": 33,
            "name": "A1",
            "ticks": 84096,
            "time": 138.315582,
            "velocity": 0.7874015748031497
          },
          {
            "duration": 0.3157889999999952,
            "durationTicks": 192,
            "midi": 33,
            "name": "A1",
            "ticks": 84288,
            "time": 138.631371,
            "velocity": 0.7874015748031497
          },
          {
            "duration": 0.3157889999999952,
            "durationTicks": 192,
            "midi": 45,
            "name": "A2",
            "ticks": 84288,
            "time": 138.631371,
            "velocity": 0.7874015748031497
          },
          {
            "duration": 0.3157889999999952,
            "durationTicks": 192,
            "midi": 35,
            "name": "B1",
            "ticks": 84480,
            "time": 138.94716,
            "velocity": 0.7874015748031497
          },
          {
            "duration": 0.3157889999999952,
            "durationTicks": 192,
            "midi": 47,
            "name": "B2",
            "ticks": 84480,
            "time": 138.94716,
            "velocity": 0.7874015748031497
          },
          {
            "duration": 0.1578944999999976,
            "durationTicks": 96,
            "midi": 47,
            "name": "B2",
            "ticks": 84672,
            "time": 139.262949,
            "velocity": 0.7874015748031497
          },
          {
            "duration": 0.1578944999999976,
            "durationTicks": 96,
            "midi": 35,
            "name": "B1",
            "ticks": 84672,
            "time": 139.262949,
            "velocity": 0.7874015748031497
          },
          {
            "duration": 0.1578944999999976,
            "durationTicks": 96,
            "midi": 47,
            "name": "B2",
            "ticks": 84768,
            "time": 139.4208435,
            "velocity": 0.7874015748031497
          },
          {
            "duration": 0.1578944999999976,
            "durationTicks": 96,
            "midi": 35,
            "name": "B1",
            "ticks": 84768,
            "time": 139.4208435,
            "velocity": 0.7874015748031497
          },
          {
            "duration": 0.3157889999999952,
            "durationTicks": 192,
            "midi": 35,
            "name": "B1",
            "ticks": 84864,
            "time": 139.578738,
            "velocity": 0.7874015748031497
          },
          {
            "duration": 0.3157889999999952,
            "durationTicks": 192,
            "midi": 47,
            "name": "B2",
            "ticks": 84864,
            "time": 139.578738,
            "velocity": 0.7874015748031497
          },
          {
            "duration": 0.1578944999999976,
            "durationTicks": 96,
            "midi": 47,
            "name": "B2",
            "ticks": 85056,
            "time": 139.89452699999998,
            "velocity": 0.7874015748031497
          },
          {
            "duration": 0.1578944999999976,
            "durationTicks": 96,
            "midi": 35,
            "name": "B1",
            "ticks": 85056,
            "time": 139.89452699999998,
            "velocity": 0.7874015748031497
          },
          {
            "duration": 0.15789450000002603,
            "durationTicks": 96,
            "midi": 47,
            "name": "B2",
            "ticks": 85152,
            "time": 140.05242149999998,
            "velocity": 0.7874015748031497
          },
          {
            "duration": 0.15789450000002603,
            "durationTicks": 96,
            "midi": 35,
            "name": "B1",
            "ticks": 85152,
            "time": 140.05242149999998,
            "velocity": 0.7874015748031497
          },
          {
            "duration": 0.3157889999999952,
            "durationTicks": 192,
            "midi": 35,
            "name": "B1",
            "ticks": 85248,
            "time": 140.210316,
            "velocity": 0.7874015748031497
          },
          {
            "duration": 0.3157889999999952,
            "durationTicks": 192,
            "midi": 47,
            "name": "B2",
            "ticks": 85248,
            "time": 140.210316,
            "velocity": 0.7874015748031497
          },
          {
            "duration": 0.1578944999999976,
            "durationTicks": 96,
            "midi": 35,
            "name": "B1",
            "ticks": 85440,
            "time": 140.526105,
            "velocity": 0.7874015748031497
          },
          {
            "duration": 0.1578944999999976,
            "durationTicks": 96,
            "midi": 47,
            "name": "B2",
            "ticks": 85440,
            "time": 140.526105,
            "velocity": 0.7874015748031497
          },
          {
            "duration": 0.1578944999999976,
            "durationTicks": 96,
            "midi": 47,
            "name": "B2",
            "ticks": 85536,
            "time": 140.6839995,
            "velocity": 0.7874015748031497
          },
          {
            "duration": 0.1578944999999976,
            "durationTicks": 96,
            "midi": 35,
            "name": "B1",
            "ticks": 85536,
            "time": 140.6839995,
            "velocity": 0.7874015748031497
          },
          {
            "duration": 0.3157889999999952,
            "durationTicks": 192,
            "midi": 47,
            "name": "B2",
            "ticks": 85632,
            "time": 140.841894,
            "velocity": 0.7874015748031497
          },
          {
            "duration": 0.3157889999999952,
            "durationTicks": 192,
            "midi": 35,
            "name": "B1",
            "ticks": 85632,
            "time": 140.841894,
            "velocity": 0.7874015748031497
          },
          {
            "duration": 0.3157889999999952,
            "durationTicks": 192,
            "midi": 35,
            "name": "B1",
            "ticks": 85824,
            "time": 141.157683,
            "velocity": 0.7874015748031497
          },
          {
            "duration": 0.3157889999999952,
            "durationTicks": 192,
            "midi": 47,
            "name": "B2",
            "ticks": 85824,
            "time": 141.157683,
            "velocity": 0.7874015748031497
          },
          {
            "duration": 0.3157889999999952,
            "durationTicks": 192,
            "midi": 30,
            "name": "F#1",
            "ticks": 86016,
            "time": 141.473472,
            "velocity": 0.7874015748031497
          },
          {
            "duration": 0.3157889999999952,
            "durationTicks": 192,
            "midi": 42,
            "name": "F#2",
            "ticks": 86016,
            "time": 141.473472,
            "velocity": 0.7874015748031497
          },
          {
            "duration": 0.15789450000002603,
            "durationTicks": 96,
            "midi": 42,
            "name": "F#2",
            "ticks": 86208,
            "time": 141.78926099999998,
            "velocity": 0.7874015748031497
          },
          {
            "duration": 0.15789450000002603,
            "durationTicks": 96,
            "midi": 30,
            "name": "F#1",
            "ticks": 86208,
            "time": 141.78926099999998,
            "velocity": 0.7874015748031497
          },
          {
            "duration": 0.1578944999999976,
            "durationTicks": 96,
            "midi": 42,
            "name": "F#2",
            "ticks": 86304,
            "time": 141.9471555,
            "velocity": 0.7874015748031497
          },
          {
            "duration": 0.1578944999999976,
            "durationTicks": 96,
            "midi": 30,
            "name": "F#1",
            "ticks": 86304,
            "time": 141.9471555,
            "velocity": 0.7874015748031497
          },
          {
            "duration": 0.3157889999999952,
            "durationTicks": 192,
            "midi": 42,
            "name": "F#2",
            "ticks": 86400,
            "time": 142.10505,
            "velocity": 0.7874015748031497
          },
          {
            "duration": 0.3157889999999952,
            "durationTicks": 192,
            "midi": 30,
            "name": "F#1",
            "ticks": 86400,
            "time": 142.10505,
            "velocity": 0.7874015748031497
          },
          {
            "duration": 0.1578944999999976,
            "durationTicks": 96,
            "midi": 30,
            "name": "F#1",
            "ticks": 86592,
            "time": 142.420839,
            "velocity": 0.7874015748031497
          },
          {
            "duration": 0.1578944999999976,
            "durationTicks": 96,
            "midi": 42,
            "name": "F#2",
            "ticks": 86592,
            "time": 142.420839,
            "velocity": 0.7874015748031497
          },
          {
            "duration": 0.1578944999999976,
            "durationTicks": 96,
            "midi": 30,
            "name": "F#1",
            "ticks": 86688,
            "time": 142.5787335,
            "velocity": 0.7874015748031497
          },
          {
            "duration": 0.1578944999999976,
            "durationTicks": 96,
            "midi": 42,
            "name": "F#2",
            "ticks": 86688,
            "time": 142.5787335,
            "velocity": 0.7874015748031497
          },
          {
            "duration": 0.3157889999999952,
            "durationTicks": 192,
            "midi": 42,
            "name": "F#2",
            "ticks": 86784,
            "time": 142.736628,
            "velocity": 0.7874015748031497
          },
          {
            "duration": 0.3157889999999952,
            "durationTicks": 192,
            "midi": 30,
            "name": "F#1",
            "ticks": 86784,
            "time": 142.736628,
            "velocity": 0.7874015748031497
          },
          {
            "duration": 0.1578944999999976,
            "durationTicks": 96,
            "midi": 30,
            "name": "F#1",
            "ticks": 86976,
            "time": 143.052417,
            "velocity": 0.7874015748031497
          },
          {
            "duration": 0.1578944999999976,
            "durationTicks": 96,
            "midi": 42,
            "name": "F#2",
            "ticks": 86976,
            "time": 143.052417,
            "velocity": 0.7874015748031497
          },
          {
            "duration": 0.1578944999999976,
            "durationTicks": 96,
            "midi": 30,
            "name": "F#1",
            "ticks": 87072,
            "time": 143.2103115,
            "velocity": 0.7874015748031497
          },
          {
            "duration": 0.1578944999999976,
            "durationTicks": 96,
            "midi": 42,
            "name": "F#2",
            "ticks": 87072,
            "time": 143.2103115,
            "velocity": 0.7874015748031497
          },
          {
            "duration": 0.3157889999999952,
            "durationTicks": 192,
            "midi": 30,
            "name": "F#1",
            "ticks": 87168,
            "time": 143.368206,
            "velocity": 0.7874015748031497
          },
          {
            "duration": 0.3157889999999952,
            "durationTicks": 192,
            "midi": 42,
            "name": "F#2",
            "ticks": 87168,
            "time": 143.368206,
            "velocity": 0.7874015748031497
          },
          {
            "duration": 0.31578900000002363,
            "durationTicks": 192,
            "midi": 30,
            "name": "F#1",
            "ticks": 87360,
            "time": 143.68399499999998,
            "velocity": 0.7874015748031497
          },
          {
            "duration": 0.31578900000002363,
            "durationTicks": 192,
            "midi": 42,
            "name": "F#2",
            "ticks": 87360,
            "time": 143.68399499999998,
            "velocity": 0.7874015748031497
          },
          {
            "duration": 0.3157889999999952,
            "durationTicks": 192,
            "midi": 38,
            "name": "D2",
            "ticks": 87552,
            "time": 143.999784,
            "velocity": 0.7874015748031497
          },
          {
            "duration": 0.3157889999999952,
            "durationTicks": 192,
            "midi": 50,
            "name": "D3",
            "ticks": 87552,
            "time": 143.999784,
            "velocity": 0.7874015748031497
          },
          {
            "duration": 0.1578944999999976,
            "durationTicks": 96,
            "midi": 38,
            "name": "D2",
            "ticks": 87744,
            "time": 144.315573,
            "velocity": 0.7874015748031497
          },
          {
            "duration": 0.1578944999999976,
            "durationTicks": 96,
            "midi": 50,
            "name": "D3",
            "ticks": 87744,
            "time": 144.315573,
            "velocity": 0.7874015748031497
          },
          {
            "duration": 0.1578944999999976,
            "durationTicks": 96,
            "midi": 38,
            "name": "D2",
            "ticks": 87840,
            "time": 144.4734675,
            "velocity": 0.7874015748031497
          },
          {
            "duration": 0.1578944999999976,
            "durationTicks": 96,
            "midi": 50,
            "name": "D3",
            "ticks": 87840,
            "time": 144.4734675,
            "velocity": 0.7874015748031497
          },
          {
            "duration": 0.3157889999999952,
            "durationTicks": 192,
            "midi": 50,
            "name": "D3",
            "ticks": 87936,
            "time": 144.631362,
            "velocity": 0.7874015748031497
          },
          {
            "duration": 0.3157889999999952,
            "durationTicks": 192,
            "midi": 38,
            "name": "D2",
            "ticks": 87936,
            "time": 144.631362,
            "velocity": 0.7874015748031497
          },
          {
            "duration": 0.1578944999999976,
            "durationTicks": 96,
            "midi": 50,
            "name": "D3",
            "ticks": 88128,
            "time": 144.947151,
            "velocity": 0.7874015748031497
          },
          {
            "duration": 0.1578944999999976,
            "durationTicks": 96,
            "midi": 38,
            "name": "D2",
            "ticks": 88128,
            "time": 144.947151,
            "velocity": 0.7874015748031497
          },
          {
            "duration": 0.1578944999999976,
            "durationTicks": 96,
            "midi": 38,
            "name": "D2",
            "ticks": 88224,
            "time": 145.1050455,
            "velocity": 0.7874015748031497
          },
          {
            "duration": 0.1578944999999976,
            "durationTicks": 96,
            "midi": 50,
            "name": "D3",
            "ticks": 88224,
            "time": 145.1050455,
            "velocity": 0.7874015748031497
          },
          {
            "duration": 0.3157889999999952,
            "durationTicks": 192,
            "midi": 38,
            "name": "D2",
            "ticks": 88320,
            "time": 145.26294,
            "velocity": 0.7874015748031497
          },
          {
            "duration": 0.3157889999999952,
            "durationTicks": 192,
            "midi": 50,
            "name": "D3",
            "ticks": 88320,
            "time": 145.26294,
            "velocity": 0.7874015748031497
          },
          {
            "duration": 0.15789450000002603,
            "durationTicks": 96,
            "midi": 38,
            "name": "D2",
            "ticks": 88512,
            "time": 145.57872899999998,
            "velocity": 0.7874015748031497
          },
          {
            "duration": 0.15789450000002603,
            "durationTicks": 96,
            "midi": 50,
            "name": "D3",
            "ticks": 88512,
            "time": 145.57872899999998,
            "velocity": 0.7874015748031497
          },
          {
            "duration": 0.1578944999999976,
            "durationTicks": 96,
            "midi": 50,
            "name": "D3",
            "ticks": 88608,
            "time": 145.7366235,
            "velocity": 0.7874015748031497
          },
          {
            "duration": 0.1578944999999976,
            "durationTicks": 96,
            "midi": 38,
            "name": "D2",
            "ticks": 88608,
            "time": 145.7366235,
            "velocity": 0.7874015748031497
          },
          {
            "duration": 0.3157889999999952,
            "durationTicks": 192,
            "midi": 38,
            "name": "D2",
            "ticks": 88704,
            "time": 145.894518,
            "velocity": 0.7874015748031497
          },
          {
            "duration": 0.3157889999999952,
            "durationTicks": 192,
            "midi": 50,
            "name": "D3",
            "ticks": 88704,
            "time": 145.894518,
            "velocity": 0.7874015748031497
          },
          {
            "duration": 0.3157889999999952,
            "durationTicks": 192,
            "midi": 38,
            "name": "D2",
            "ticks": 88896,
            "time": 146.210307,
            "velocity": 0.7874015748031497
          },
          {
            "duration": 0.3157889999999952,
            "durationTicks": 192,
            "midi": 50,
            "name": "D3",
            "ticks": 88896,
            "time": 146.210307,
            "velocity": 0.7874015748031497
          },
          {
            "duration": 0.3157889999999952,
            "durationTicks": 192,
            "midi": 37,
            "name": "C#2",
            "ticks": 89088,
            "time": 146.526096,
            "velocity": 0.7874015748031497
          },
          {
            "duration": 0.3157889999999952,
            "durationTicks": 192,
            "midi": 49,
            "name": "C#3",
            "ticks": 89088,
            "time": 146.526096,
            "velocity": 0.7874015748031497
          },
          {
            "duration": 0.1578944999999976,
            "durationTicks": 96,
            "midi": 37,
            "name": "C#2",
            "ticks": 89280,
            "time": 146.841885,
            "velocity": 0.7874015748031497
          },
          {
            "duration": 0.1578944999999976,
            "durationTicks": 96,
            "midi": 49,
            "name": "C#3",
            "ticks": 89280,
            "time": 146.841885,
            "velocity": 0.7874015748031497
          },
          {
            "duration": 0.1578944999999976,
            "durationTicks": 96,
            "midi": 49,
            "name": "C#3",
            "ticks": 89376,
            "time": 146.9997795,
            "velocity": 0.7874015748031497
          },
          {
            "duration": 0.1578944999999976,
            "durationTicks": 96,
            "midi": 37,
            "name": "C#2",
            "ticks": 89376,
            "time": 146.9997795,
            "velocity": 0.7874015748031497
          },
          {
            "duration": 0.3157889999999952,
            "durationTicks": 192,
            "midi": 37,
            "name": "C#2",
            "ticks": 89472,
            "time": 147.157674,
            "velocity": 0.7874015748031497
          },
          {
            "duration": 0.3157889999999952,
            "durationTicks": 192,
            "midi": 49,
            "name": "C#3",
            "ticks": 89472,
            "time": 147.157674,
            "velocity": 0.7874015748031497
          },
          {
            "duration": 0.15789450000002603,
            "durationTicks": 96,
            "midi": 37,
            "name": "C#2",
            "ticks": 89664,
            "time": 147.47346299999998,
            "velocity": 0.7874015748031497
          },
          {
            "duration": 0.15789450000002603,
            "durationTicks": 96,
            "midi": 49,
            "name": "C#3",
            "ticks": 89664,
            "time": 147.47346299999998,
            "velocity": 0.7874015748031497
          },
          {
            "duration": 0.1578944999999976,
            "durationTicks": 96,
            "midi": 37,
            "name": "C#2",
            "ticks": 89760,
            "time": 147.6313575,
            "velocity": 0.7874015748031497
          },
          {
            "duration": 0.1578944999999976,
            "durationTicks": 96,
            "midi": 49,
            "name": "C#3",
            "ticks": 89760,
            "time": 147.6313575,
            "velocity": 0.7874015748031497
          },
          {
            "duration": 0.3157889999999952,
            "durationTicks": 192,
            "midi": 37,
            "name": "C#2",
            "ticks": 89856,
            "time": 147.789252,
            "velocity": 0.7874015748031497
          },
          {
            "duration": 0.3157889999999952,
            "durationTicks": 192,
            "midi": 49,
            "name": "C#3",
            "ticks": 89856,
            "time": 147.789252,
            "velocity": 0.7874015748031497
          },
          {
            "duration": 0.1578944999999976,
            "durationTicks": 96,
            "midi": 49,
            "name": "C#3",
            "ticks": 90048,
            "time": 148.105041,
            "velocity": 0.7874015748031497
          },
          {
            "duration": 0.1578944999999976,
            "durationTicks": 96,
            "midi": 37,
            "name": "C#2",
            "ticks": 90048,
            "time": 148.105041,
            "velocity": 0.7874015748031497
          },
          {
            "duration": 0.1578944999999976,
            "durationTicks": 96,
            "midi": 49,
            "name": "C#3",
            "ticks": 90144,
            "time": 148.2629355,
            "velocity": 0.7874015748031497
          },
          {
            "duration": 0.1578944999999976,
            "durationTicks": 96,
            "midi": 37,
            "name": "C#2",
            "ticks": 90144,
            "time": 148.2629355,
            "velocity": 0.7874015748031497
          },
          {
            "duration": 0.3157889999999952,
            "durationTicks": 192,
            "midi": 49,
            "name": "C#3",
            "ticks": 90240,
            "time": 148.42083,
            "velocity": 0.7874015748031497
          },
          {
            "duration": 0.3157889999999952,
            "durationTicks": 192,
            "midi": 37,
            "name": "C#2",
            "ticks": 90240,
            "time": 148.42083,
            "velocity": 0.7874015748031497
          },
          {
            "duration": 0.3157889999999952,
            "durationTicks": 192,
            "midi": 37,
            "name": "C#2",
            "ticks": 90432,
            "time": 148.736619,
            "velocity": 0.7874015748031497
          },
          {
            "duration": 0.3157889999999952,
            "durationTicks": 192,
            "midi": 49,
            "name": "C#3",
            "ticks": 90432,
            "time": 148.736619,
            "velocity": 0.7874015748031497
          },
          {
            "duration": 0.3157889999999952,
            "durationTicks": 192,
            "midi": 44,
            "name": "G#2",
            "ticks": 90624,
            "time": 149.05240799999999,
            "velocity": 0.7874015748031497
          },
          {
            "duration": 0.3157889999999952,
            "durationTicks": 192,
            "midi": 32,
            "name": "G#1",
            "ticks": 90624,
            "time": 149.05240799999999,
            "velocity": 0.7874015748031497
          },
          {
            "duration": 0.15789450000002603,
            "durationTicks": 96,
            "midi": 32,
            "name": "G#1",
            "ticks": 90816,
            "time": 149.36819699999998,
            "velocity": 0.7874015748031497
          },
          {
            "duration": 0.15789450000002603,
            "durationTicks": 96,
            "midi": 44,
            "name": "G#2",
            "ticks": 90816,
            "time": 149.36819699999998,
            "velocity": 0.7874015748031497
          },
          {
            "duration": 0.1578944999999976,
            "durationTicks": 96,
            "midi": 44,
            "name": "G#2",
            "ticks": 90912,
            "time": 149.5260915,
            "velocity": 0.7874015748031497
          },
          {
            "duration": 0.1578944999999976,
            "durationTicks": 96,
            "midi": 32,
            "name": "G#1",
            "ticks": 90912,
            "time": 149.5260915,
            "velocity": 0.7874015748031497
          },
          {
            "duration": 0.3157889999999952,
            "durationTicks": 192,
            "midi": 44,
            "name": "G#2",
            "ticks": 91008,
            "time": 149.683986,
            "velocity": 0.7874015748031497
          },
          {
            "duration": 0.3157889999999952,
            "durationTicks": 192,
            "midi": 32,
            "name": "G#1",
            "ticks": 91008,
            "time": 149.683986,
            "velocity": 0.7874015748031497
          },
          {
            "duration": 0.1578944999999976,
            "durationTicks": 96,
            "midi": 32,
            "name": "G#1",
            "ticks": 91200,
            "time": 149.999775,
            "velocity": 0.7874015748031497
          },
          {
            "duration": 0.1578944999999976,
            "durationTicks": 96,
            "midi": 44,
            "name": "G#2",
            "ticks": 91200,
            "time": 149.999775,
            "velocity": 0.7874015748031497
          },
          {
            "duration": 0.1578944999999976,
            "durationTicks": 96,
            "midi": 44,
            "name": "G#2",
            "ticks": 91296,
            "time": 150.1576695,
            "velocity": 0.7874015748031497
          },
          {
            "duration": 0.1578944999999976,
            "durationTicks": 96,
            "midi": 32,
            "name": "G#1",
            "ticks": 91296,
            "time": 150.1576695,
            "velocity": 0.7874015748031497
          },
          {
            "duration": 0.3157889999999952,
            "durationTicks": 192,
            "midi": 44,
            "name": "G#2",
            "ticks": 91392,
            "time": 150.315564,
            "velocity": 0.7874015748031497
          },
          {
            "duration": 0.3157889999999952,
            "durationTicks": 192,
            "midi": 32,
            "name": "G#1",
            "ticks": 91392,
            "time": 150.315564,
            "velocity": 0.7874015748031497
          },
          {
            "duration": 0.1578944999999976,
            "durationTicks": 96,
            "midi": 44,
            "name": "G#2",
            "ticks": 91584,
            "time": 150.631353,
            "velocity": 0.7874015748031497
          },
          {
            "duration": 0.1578944999999976,
            "durationTicks": 96,
            "midi": 32,
            "name": "G#1",
            "ticks": 91584,
            "time": 150.631353,
            "velocity": 0.7874015748031497
          },
          {
            "duration": 0.1578944999999976,
            "durationTicks": 96,
            "midi": 44,
            "name": "G#2",
            "ticks": 91680,
            "time": 150.7892475,
            "velocity": 0.7874015748031497
          },
          {
            "duration": 0.1578944999999976,
            "durationTicks": 96,
            "midi": 32,
            "name": "G#1",
            "ticks": 91680,
            "time": 150.7892475,
            "velocity": 0.7874015748031497
          },
          {
            "duration": 0.3157889999999952,
            "durationTicks": 192,
            "midi": 32,
            "name": "G#1",
            "ticks": 91776,
            "time": 150.94714199999999,
            "velocity": 0.7874015748031497
          },
          {
            "duration": 0.3157889999999952,
            "durationTicks": 192,
            "midi": 44,
            "name": "G#2",
            "ticks": 91776,
            "time": 150.94714199999999,
            "velocity": 0.7874015748031497
          },
          {
            "duration": 0.31578900000002363,
            "durationTicks": 192,
            "midi": 32,
            "name": "G#1",
            "ticks": 91968,
            "time": 151.26293099999998,
            "velocity": 0.7874015748031497
          },
          {
            "duration": 0.31578900000002363,
            "durationTicks": 192,
            "midi": 44,
            "name": "G#2",
            "ticks": 91968,
            "time": 151.26293099999998,
            "velocity": 0.7874015748031497
          },
          {
            "duration": 0.3157889999999952,
            "durationTicks": 192,
            "midi": 51,
            "name": "D#3",
            "ticks": 92160,
            "time": 151.57872,
            "velocity": 0.7874015748031497
          },
          {
            "duration": 0.3157889999999952,
            "durationTicks": 192,
            "midi": 39,
            "name": "D#2",
            "ticks": 92160,
            "time": 151.57872,
            "velocity": 0.7874015748031497
          },
          {
            "duration": 0.1578944999999976,
            "durationTicks": 96,
            "midi": 39,
            "name": "D#2",
            "ticks": 92352,
            "time": 151.894509,
            "velocity": 0.7874015748031497
          },
          {
            "duration": 0.1578944999999976,
            "durationTicks": 96,
            "midi": 51,
            "name": "D#3",
            "ticks": 92352,
            "time": 151.894509,
            "velocity": 0.7874015748031497
          },
          {
            "duration": 0.1578944999999976,
            "durationTicks": 96,
            "midi": 51,
            "name": "D#3",
            "ticks": 92448,
            "time": 152.0524035,
            "velocity": 0.7874015748031497
          },
          {
            "duration": 0.1578944999999976,
            "durationTicks": 96,
            "midi": 39,
            "name": "D#2",
            "ticks": 92448,
            "time": 152.0524035,
            "velocity": 0.7874015748031497
          },
          {
            "duration": 0.3157889999999952,
            "durationTicks": 192,
            "midi": 39,
            "name": "D#2",
            "ticks": 92544,
            "time": 152.210298,
            "velocity": 0.7874015748031497
          },
          {
            "duration": 0.3157889999999952,
            "durationTicks": 192,
            "midi": 51,
            "name": "D#3",
            "ticks": 92544,
            "time": 152.210298,
            "velocity": 0.7874015748031497
          },
          {
            "duration": 0.1578944999999976,
            "durationTicks": 96,
            "midi": 51,
            "name": "D#3",
            "ticks": 92736,
            "time": 152.526087,
            "velocity": 0.7874015748031497
          },
          {
            "duration": 0.1578944999999976,
            "durationTicks": 96,
            "midi": 39,
            "name": "D#2",
            "ticks": 92736,
            "time": 152.526087,
            "velocity": 0.7874015748031497
          },
          {
            "duration": 0.1578944999999976,
            "durationTicks": 96,
            "midi": 51,
            "name": "D#3",
            "ticks": 92832,
            "time": 152.6839815,
            "velocity": 0.7874015748031497
          },
          {
            "duration": 0.1578944999999976,
            "durationTicks": 96,
            "midi": 39,
            "name": "D#2",
            "ticks": 92832,
            "time": 152.6839815,
            "velocity": 0.7874015748031497
          },
          {
            "duration": 0.3157889999999952,
            "durationTicks": 192,
            "midi": 39,
            "name": "D#2",
            "ticks": 92928,
            "time": 152.84187599999998,
            "velocity": 0.7874015748031497
          },
          {
            "duration": 0.3157889999999952,
            "durationTicks": 192,
            "midi": 51,
            "name": "D#3",
            "ticks": 92928,
            "time": 152.84187599999998,
            "velocity": 0.7874015748031497
          },
          {
            "duration": 0.15789450000002603,
            "durationTicks": 96,
            "midi": 39,
            "name": "D#2",
            "ticks": 93120,
            "time": 153.15766499999998,
            "velocity": 0.7874015748031497
          },
          {
            "duration": 0.15789450000002603,
            "durationTicks": 96,
            "midi": 51,
            "name": "D#3",
            "ticks": 93120,
            "time": 153.15766499999998,
            "velocity": 0.7874015748031497
          },
          {
            "duration": 0.1578944999999976,
            "durationTicks": 96,
            "midi": 39,
            "name": "D#2",
            "ticks": 93216,
            "time": 153.3155595,
            "velocity": 0.7874015748031497
          },
          {
            "duration": 0.1578944999999976,
            "durationTicks": 96,
            "midi": 51,
            "name": "D#3",
            "ticks": 93216,
            "time": 153.3155595,
            "velocity": 0.7874015748031497
          },
          {
            "duration": 0.3157889999999952,
            "durationTicks": 192,
            "midi": 39,
            "name": "D#2",
            "ticks": 93312,
            "time": 153.473454,
            "velocity": 0.7874015748031497
          },
          {
            "duration": 0.3157889999999952,
            "durationTicks": 192,
            "midi": 51,
            "name": "D#3",
            "ticks": 93312,
            "time": 153.473454,
            "velocity": 0.7874015748031497
          },
          {
            "duration": 0.3157889999999952,
            "durationTicks": 192,
            "midi": 39,
            "name": "D#2",
            "ticks": 93504,
            "time": 153.789243,
            "velocity": 0.7874015748031497
          },
          {
            "duration": 0.3157889999999952,
            "durationTicks": 192,
            "midi": 51,
            "name": "D#3",
            "ticks": 93504,
            "time": 153.789243,
            "velocity": 0.7874015748031497
          },
          {
            "duration": 0.3157889999999952,
            "durationTicks": 192,
            "midi": 38,
            "name": "D2",
            "ticks": 93696,
            "time": 154.105032,
            "velocity": 0.7874015748031497
          },
          {
            "duration": 0.3157889999999952,
            "durationTicks": 192,
            "midi": 50,
            "name": "D3",
            "ticks": 93696,
            "time": 154.105032,
            "velocity": 0.7874015748031497
          },
          {
            "duration": 0.1578944999999976,
            "durationTicks": 96,
            "midi": 50,
            "name": "D3",
            "ticks": 93888,
            "time": 154.420821,
            "velocity": 0.7874015748031497
          },
          {
            "duration": 0.1578944999999976,
            "durationTicks": 96,
            "midi": 38,
            "name": "D2",
            "ticks": 93888,
            "time": 154.420821,
            "velocity": 0.7874015748031497
          },
          {
            "duration": 0.1578944999999976,
            "durationTicks": 96,
            "midi": 50,
            "name": "D3",
            "ticks": 93984,
            "time": 154.5787155,
            "velocity": 0.7874015748031497
          },
          {
            "duration": 0.1578944999999976,
            "durationTicks": 96,
            "midi": 38,
            "name": "D2",
            "ticks": 93984,
            "time": 154.5787155,
            "velocity": 0.7874015748031497
          },
          {
            "duration": 0.3157889999999952,
            "durationTicks": 192,
            "midi": 38,
            "name": "D2",
            "ticks": 94080,
            "time": 154.73660999999998,
            "velocity": 0.7874015748031497
          },
          {
            "duration": 0.3157889999999952,
            "durationTicks": 192,
            "midi": 50,
            "name": "D3",
            "ticks": 94080,
            "time": 154.73660999999998,
            "velocity": 0.7874015748031497
          },
          {
            "duration": 0.15789450000002603,
            "durationTicks": 96,
            "midi": 50,
            "name": "D3",
            "ticks": 94272,
            "time": 155.05239899999998,
            "velocity": 0.7874015748031497
          },
          {
            "duration": 0.15789450000002603,
            "durationTicks": 96,
            "midi": 38,
            "name": "D2",
            "ticks": 94272,
            "time": 155.05239899999998,
            "velocity": 0.7874015748031497
          },
          {
            "duration": 0.1578944999999976,
            "durationTicks": 96,
            "midi": 50,
            "name": "D3",
            "ticks": 94368,
            "time": 155.2102935,
            "velocity": 0.7874015748031497
          },
          {
            "duration": 0.1578944999999976,
            "durationTicks": 96,
            "midi": 38,
            "name": "D2",
            "ticks": 94368,
            "time": 155.2102935,
            "velocity": 0.7874015748031497
          },
          {
            "duration": 0.3157889999999952,
            "durationTicks": 192,
            "midi": 50,
            "name": "D3",
            "ticks": 94464,
            "time": 155.368188,
            "velocity": 0.7874015748031497
          },
          {
            "duration": 0.3157889999999952,
            "durationTicks": 192,
            "midi": 38,
            "name": "D2",
            "ticks": 94464,
            "time": 155.368188,
            "velocity": 0.7874015748031497
          },
          {
            "duration": 0.1578944999999976,
            "durationTicks": 96,
            "midi": 50,
            "name": "D3",
            "ticks": 94656,
            "time": 155.683977,
            "velocity": 0.7874015748031497
          },
          {
            "duration": 0.1578944999999976,
            "durationTicks": 96,
            "midi": 38,
            "name": "D2",
            "ticks": 94656,
            "time": 155.683977,
            "velocity": 0.7874015748031497
          },
          {
            "duration": 0.1578944999999976,
            "durationTicks": 96,
            "midi": 38,
            "name": "D2",
            "ticks": 94752,
            "time": 155.8418715,
            "velocity": 0.7874015748031497
          },
          {
            "duration": 0.1578944999999976,
            "durationTicks": 96,
            "midi": 50,
            "name": "D3",
            "ticks": 94752,
            "time": 155.8418715,
            "velocity": 0.7874015748031497
          },
          {
            "duration": 0.3157889999999952,
            "durationTicks": 192,
            "midi": 40,
            "name": "E2",
            "ticks": 94848,
            "time": 155.999766,
            "velocity": 0.7874015748031497
          },
          {
            "duration": 0.3157889999999952,
            "durationTicks": 192,
            "midi": 52,
            "name": "E3",
            "ticks": 94848,
            "time": 155.999766,
            "velocity": 0.7874015748031497
          },
          {
            "duration": 0.3157889999999952,
            "durationTicks": 192,
            "midi": 52,
            "name": "E3",
            "ticks": 95040,
            "time": 156.315555,
            "velocity": 0.7874015748031497
          },
          {
            "duration": 0.3157889999999952,
            "durationTicks": 192,
            "midi": 40,
            "name": "E2",
            "ticks": 95040,
            "time": 156.315555,
            "velocity": 0.7874015748031497
          },
          {
            "duration": 0.3157889999999952,
            "durationTicks": 192,
            "midi": 45,
            "name": "A2",
            "ticks": 95232,
            "time": 156.63134399999998,
            "velocity": 0.7874015748031497
          },
          {
            "duration": 0.3157889999999952,
            "durationTicks": 192,
            "midi": 33,
            "name": "A1",
            "ticks": 95232,
            "time": 156.63134399999998,
            "velocity": 0.7874015748031497
          },
          {
            "duration": 0.15789450000002603,
            "durationTicks": 96,
            "midi": 45,
            "name": "A2",
            "ticks": 95424,
            "time": 156.94713299999998,
            "velocity": 0.7874015748031497
          },
          {
            "duration": 0.15789450000002603,
            "durationTicks": 96,
            "midi": 33,
            "name": "A1",
            "ticks": 95424,
            "time": 156.94713299999998,
            "velocity": 0.7874015748031497
          },
          {
            "duration": 0.1578944999999976,
            "durationTicks": 96,
            "midi": 33,
            "name": "A1",
            "ticks": 95520,
            "time": 157.1050275,
            "velocity": 0.7874015748031497
          },
          {
            "duration": 0.1578944999999976,
            "durationTicks": 96,
            "midi": 45,
            "name": "A2",
            "ticks": 95520,
            "time": 157.1050275,
            "velocity": 0.7874015748031497
          },
          {
            "duration": 0.3157889999999952,
            "durationTicks": 192,
            "midi": 45,
            "name": "A2",
            "ticks": 95616,
            "time": 157.262922,
            "velocity": 0.7874015748031497
          },
          {
            "duration": 0.3157889999999952,
            "durationTicks": 192,
            "midi": 33,
            "name": "A1",
            "ticks": 95616,
            "time": 157.262922,
            "velocity": 0.7874015748031497
          },
          {
            "duration": 0.3157889999999952,
            "durationTicks": 192,
            "midi": 33,
            "name": "A1",
            "ticks": 95808,
            "time": 157.578711,
            "velocity": 0.7874015748031497
          },
          {
            "duration": 0.1578944999999976,
            "durationTicks": 96,
            "midi": 33,
            "name": "A1",
            "ticks": 95904,
            "time": 157.7366055,
            "velocity": 0.7874015748031497
          },
          {
            "duration": 0.1578944999999976,
            "durationTicks": 96,
            "midi": 45,
            "name": "A2",
            "ticks": 95904,
            "time": 157.7366055,
            "velocity": 0.7874015748031497
          },
          {
            "duration": 0.3157889999999952,
            "durationTicks": 192,
            "midi": 45,
            "name": "A2",
            "ticks": 96000,
            "time": 157.8945,
            "velocity": 0.7874015748031497
          },
          {
            "duration": 0.3157889999999952,
            "durationTicks": 192,
            "midi": 33,
            "name": "A1",
            "ticks": 96000,
            "time": 157.8945,
            "velocity": 0.7874015748031497
          },
          {
            "duration": 0.1578944999999976,
            "durationTicks": 96,
            "midi": 33,
            "name": "A1",
            "ticks": 96192,
            "time": 158.210289,
            "velocity": 0.7874015748031497
          },
          {
            "duration": 0.1578944999999976,
            "durationTicks": 96,
            "midi": 45,
            "name": "A2",
            "ticks": 96192,
            "time": 158.210289,
            "velocity": 0.7874015748031497
          },
          {
            "duration": 0.1578944999999976,
            "durationTicks": 96,
            "midi": 45,
            "name": "A2",
            "ticks": 96288,
            "time": 158.3681835,
            "velocity": 0.7874015748031497
          },
          {
            "duration": 0.1578944999999976,
            "durationTicks": 96,
            "midi": 33,
            "name": "A1",
            "ticks": 96288,
            "time": 158.3681835,
            "velocity": 0.7874015748031497
          },
          {
            "duration": 0.3157889999999952,
            "durationTicks": 192,
            "midi": 33,
            "name": "A1",
            "ticks": 96384,
            "time": 158.52607799999998,
            "velocity": 0.7874015748031497
          },
          {
            "duration": 0.3157889999999952,
            "durationTicks": 192,
            "midi": 45,
            "name": "A2",
            "ticks": 96384,
            "time": 158.52607799999998,
            "velocity": 0.7874015748031497
          },
          {
            "duration": 0.31578900000002363,
            "durationTicks": 192,
            "midi": 33,
            "name": "A1",
            "ticks": 96576,
            "time": 158.84186699999998,
            "velocity": 0.7874015748031497
          },
          {
            "duration": 0.31578900000002363,
            "durationTicks": 192,
            "midi": 45,
            "name": "A2",
            "ticks": 96576,
            "time": 158.84186699999998,
            "velocity": 0.7874015748031497
          },
          {
            "duration": 0.3157889999999952,
            "durationTicks": 192,
            "midi": 35,
            "name": "B1",
            "ticks": 96768,
            "time": 159.157656,
            "velocity": 0.7874015748031497
          },
          {
            "duration": 0.3157889999999952,
            "durationTicks": 192,
            "midi": 47,
            "name": "B2",
            "ticks": 96768,
            "time": 159.157656,
            "velocity": 0.7874015748031497
          },
          {
            "duration": 0.1578944999999976,
            "durationTicks": 96,
            "midi": 47,
            "name": "B2",
            "ticks": 96960,
            "time": 159.473445,
            "velocity": 0.7874015748031497
          },
          {
            "duration": 0.1578944999999976,
            "durationTicks": 96,
            "midi": 35,
            "name": "B1",
            "ticks": 96960,
            "time": 159.473445,
            "velocity": 0.7874015748031497
          },
          {
            "duration": 0.1578944999999976,
            "durationTicks": 96,
            "midi": 47,
            "name": "B2",
            "ticks": 97056,
            "time": 159.6313395,
            "velocity": 0.7874015748031497
          },
          {
            "duration": 0.1578944999999976,
            "durationTicks": 96,
            "midi": 35,
            "name": "B1",
            "ticks": 97056,
            "time": 159.6313395,
            "velocity": 0.7874015748031497
          },
          {
            "duration": 0.3157889999999952,
            "durationTicks": 192,
            "midi": 35,
            "name": "B1",
            "ticks": 97152,
            "time": 159.789234,
            "velocity": 0.7874015748031497
          },
          {
            "duration": 0.3157889999999952,
            "durationTicks": 192,
            "midi": 47,
            "name": "B2",
            "ticks": 97152,
            "time": 159.789234,
            "velocity": 0.7874015748031497
          },
          {
            "duration": 0.1578944999999976,
            "durationTicks": 96,
            "midi": 47,
            "name": "B2",
            "ticks": 97344,
            "time": 160.105023,
            "velocity": 0.7874015748031497
          },
          {
            "duration": 0.1578944999999976,
            "durationTicks": 96,
            "midi": 35,
            "name": "B1",
            "ticks": 97344,
            "time": 160.105023,
            "velocity": 0.7874015748031497
          },
          {
            "duration": 0.1578944999999976,
            "durationTicks": 96,
            "midi": 47,
            "name": "B2",
            "ticks": 97440,
            "time": 160.2629175,
            "velocity": 0.7874015748031497
          },
          {
            "duration": 0.1578944999999976,
            "durationTicks": 96,
            "midi": 35,
            "name": "B1",
            "ticks": 97440,
            "time": 160.2629175,
            "velocity": 0.7874015748031497
          },
          {
            "duration": 0.3157889999999952,
            "durationTicks": 192,
            "midi": 35,
            "name": "B1",
            "ticks": 97536,
            "time": 160.42081199999998,
            "velocity": 0.7874015748031497
          },
          {
            "duration": 0.3157889999999952,
            "durationTicks": 192,
            "midi": 47,
            "name": "B2",
            "ticks": 97536,
            "time": 160.42081199999998,
            "velocity": 0.7874015748031497
          },
          {
            "duration": 0.15789450000002603,
            "durationTicks": 96,
            "midi": 35,
            "name": "B1",
            "ticks": 97728,
            "time": 160.73660099999998,
            "velocity": 0.7874015748031497
          },
          {
            "duration": 0.15789450000002603,
            "durationTicks": 96,
            "midi": 47,
            "name": "B2",
            "ticks": 97728,
            "time": 160.73660099999998,
            "velocity": 0.7874015748031497
          },
          {
            "duration": 0.1578944999999976,
            "durationTicks": 96,
            "midi": 35,
            "name": "B1",
            "ticks": 97824,
            "time": 160.8944955,
            "velocity": 0.7874015748031497
          },
          {
            "duration": 0.1578944999999976,
            "durationTicks": 96,
            "midi": 47,
            "name": "B2",
            "ticks": 97824,
            "time": 160.8944955,
            "velocity": 0.7874015748031497
          },
          {
            "duration": 0.3157889999999952,
            "durationTicks": 192,
            "midi": 47,
            "name": "B2",
            "ticks": 97920,
            "time": 161.05239,
            "velocity": 0.7874015748031497
          },
          {
            "duration": 0.3157889999999952,
            "durationTicks": 192,
            "midi": 35,
            "name": "B1",
            "ticks": 97920,
            "time": 161.05239,
            "velocity": 0.7874015748031497
          },
          {
            "duration": 0.3157889999999952,
            "durationTicks": 192,
            "midi": 47,
            "name": "B2",
            "ticks": 98112,
            "time": 161.368179,
            "velocity": 0.7874015748031497
          },
          {
            "duration": 0.3157889999999952,
            "durationTicks": 192,
            "midi": 35,
            "name": "B1",
            "ticks": 98112,
            "time": 161.368179,
            "velocity": 0.7874015748031497
          },
          {
            "duration": 0.3157889999999952,
            "durationTicks": 192,
            "midi": 54,
            "name": "F#3",
            "ticks": 98304,
            "time": 161.683968,
            "velocity": 0.7874015748031497
          },
          {
            "duration": 0.3157889999999952,
            "durationTicks": 192,
            "midi": 42,
            "name": "F#2",
            "ticks": 98304,
            "time": 161.683968,
            "velocity": 0.7874015748031497
          },
          {
            "duration": 0.1578944999999976,
            "durationTicks": 96,
            "midi": 42,
            "name": "F#2",
            "ticks": 98496,
            "time": 161.999757,
            "velocity": 0.7874015748031497
          },
          {
            "duration": 0.1578944999999976,
            "durationTicks": 96,
            "midi": 54,
            "name": "F#3",
            "ticks": 98496,
            "time": 161.999757,
            "velocity": 0.7874015748031497
          },
          {
            "duration": 0.1578944999999976,
            "durationTicks": 96,
            "midi": 42,
            "name": "F#2",
            "ticks": 98592,
            "time": 162.1576515,
            "velocity": 0.7874015748031497
          },
          {
            "duration": 0.1578944999999976,
            "durationTicks": 96,
            "midi": 54,
            "name": "F#3",
            "ticks": 98592,
            "time": 162.1576515,
            "velocity": 0.7874015748031497
          },
          {
            "duration": 0.31578900000002363,
            "durationTicks": 192,
            "midi": 54,
            "name": "F#3",
            "ticks": 98688,
            "time": 162.31554599999998,
            "velocity": 0.7874015748031497
          },
          {
            "duration": 0.31578900000002363,
            "durationTicks": 192,
            "midi": 42,
            "name": "F#2",
            "ticks": 98688,
            "time": 162.31554599999998,
            "velocity": 0.7874015748031497
          },
          {
            "duration": 0.1578944999999976,
            "durationTicks": 96,
            "midi": 42,
            "name": "F#2",
            "ticks": 98880,
            "time": 162.631335,
            "velocity": 0.7874015748031497
          },
          {
            "duration": 0.1578944999999976,
            "durationTicks": 96,
            "midi": 54,
            "name": "F#3",
            "ticks": 98880,
            "time": 162.631335,
            "velocity": 0.7874015748031497
          },
          {
            "duration": 0.1578944999999976,
            "durationTicks": 96,
            "midi": 54,
            "name": "F#3",
            "ticks": 98976,
            "time": 162.7892295,
            "velocity": 0.7874015748031497
          },
          {
            "duration": 0.1578944999999976,
            "durationTicks": 96,
            "midi": 42,
            "name": "F#2",
            "ticks": 98976,
            "time": 162.7892295,
            "velocity": 0.7874015748031497
          },
          {
            "duration": 0.3157889999999952,
            "durationTicks": 192,
            "midi": 42,
            "name": "F#2",
            "ticks": 99072,
            "time": 162.947124,
            "velocity": 0.7874015748031497
          },
          {
            "duration": 0.3157889999999952,
            "durationTicks": 192,
            "midi": 54,
            "name": "F#3",
            "ticks": 99072,
            "time": 162.947124,
            "velocity": 0.7874015748031497
          },
          {
            "duration": 0.1578944999999976,
            "durationTicks": 96,
            "midi": 54,
            "name": "F#3",
            "ticks": 99264,
            "time": 163.262913,
            "velocity": 0.7874015748031497
          },
          {
            "duration": 0.1578944999999976,
            "durationTicks": 96,
            "midi": 42,
            "name": "F#2",
            "ticks": 99264,
            "time": 163.262913,
            "velocity": 0.7874015748031497
          },
          {
            "duration": 0.1578944999999976,
            "durationTicks": 96,
            "midi": 42,
            "name": "F#2",
            "ticks": 99360,
            "time": 163.4208075,
            "velocity": 0.7874015748031497
          },
          {
            "duration": 0.1578944999999976,
            "durationTicks": 96,
            "midi": 54,
            "name": "F#3",
            "ticks": 99360,
            "time": 163.4208075,
            "velocity": 0.7874015748031497
          },
          {
            "duration": 0.3157889999999952,
            "durationTicks": 192,
            "midi": 54,
            "name": "F#3",
            "ticks": 99456,
            "time": 163.578702,
            "velocity": 0.7874015748031497
          },
          {
            "duration": 0.3157889999999952,
            "durationTicks": 192,
            "midi": 42,
            "name": "F#2",
            "ticks": 99456,
            "time": 163.578702,
            "velocity": 0.7874015748031497
          },
          {
            "duration": 0.3157889999999952,
            "durationTicks": 192,
            "midi": 54,
            "name": "F#3",
            "ticks": 99648,
            "time": 163.894491,
            "velocity": 0.7874015748031497
          },
          {
            "duration": 0.3157889999999952,
            "durationTicks": 192,
            "midi": 42,
            "name": "F#2",
            "ticks": 99648,
            "time": 163.894491,
            "velocity": 0.7874015748031497
          },
          {
            "duration": 0.31578900000002363,
            "durationTicks": 192,
            "midi": 35,
            "name": "B1",
            "ticks": 99840,
            "time": 164.21027999999998,
            "velocity": 0.7874015748031497
          },
          {
            "duration": 0.31578900000002363,
            "durationTicks": 192,
            "midi": 47,
            "name": "B2",
            "ticks": 99840,
            "time": 164.21027999999998,
            "velocity": 0.7874015748031497
          },
          {
            "duration": 0.1578944999999976,
            "durationTicks": 96,
            "midi": 47,
            "name": "B2",
            "ticks": 100032,
            "time": 164.526069,
            "velocity": 0.7874015748031497
          },
          {
            "duration": 0.1578944999999976,
            "durationTicks": 96,
            "midi": 35,
            "name": "B1",
            "ticks": 100032,
            "time": 164.526069,
            "velocity": 0.7874015748031497
          },
          {
            "duration": 0.1578944999999976,
            "durationTicks": 96,
            "midi": 35,
            "name": "B1",
            "ticks": 100128,
            "time": 164.6839635,
            "velocity": 0.7874015748031497
          },
          {
            "duration": 0.1578944999999976,
            "durationTicks": 96,
            "midi": 47,
            "name": "B2",
            "ticks": 100128,
            "time": 164.6839635,
            "velocity": 0.7874015748031497
          },
          {
            "duration": 0.3157889999999952,
            "durationTicks": 192,
            "midi": 35,
            "name": "B1",
            "ticks": 100224,
            "time": 164.841858,
            "velocity": 0.7874015748031497
          },
          {
            "duration": 0.3157889999999952,
            "durationTicks": 192,
            "midi": 47,
            "name": "B2",
            "ticks": 100224,
            "time": 164.841858,
            "velocity": 0.7874015748031497
          },
          {
            "duration": 0.1578944999999976,
            "durationTicks": 96,
            "midi": 35,
            "name": "B1",
            "ticks": 100416,
            "time": 165.157647,
            "velocity": 0.7874015748031497
          },
          {
            "duration": 0.1578944999999976,
            "durationTicks": 96,
            "midi": 47,
            "name": "B2",
            "ticks": 100416,
            "time": 165.157647,
            "velocity": 0.7874015748031497
          },
          {
            "duration": 0.1578944999999976,
            "durationTicks": 96,
            "midi": 35,
            "name": "B1",
            "ticks": 100512,
            "time": 165.3155415,
            "velocity": 0.7874015748031497
          },
          {
            "duration": 0.1578944999999976,
            "durationTicks": 96,
            "midi": 47,
            "name": "B2",
            "ticks": 100512,
            "time": 165.3155415,
            "velocity": 0.7874015748031497
          },
          {
            "duration": 0.3157889999999952,
            "durationTicks": 192,
            "midi": 35,
            "name": "B1",
            "ticks": 100608,
            "time": 165.473436,
            "velocity": 0.7874015748031497
          },
          {
            "duration": 0.3157889999999952,
            "durationTicks": 192,
            "midi": 47,
            "name": "B2",
            "ticks": 100608,
            "time": 165.473436,
            "velocity": 0.7874015748031497
          },
          {
            "duration": 0.1578944999999976,
            "durationTicks": 96,
            "midi": 35,
            "name": "B1",
            "ticks": 100800,
            "time": 165.789225,
            "velocity": 0.7874015748031497
          },
          {
            "duration": 0.1578944999999976,
            "durationTicks": 96,
            "midi": 47,
            "name": "B2",
            "ticks": 100800,
            "time": 165.789225,
            "velocity": 0.7874015748031497
          },
          {
            "duration": 0.1578944999999976,
            "durationTicks": 96,
            "midi": 35,
            "name": "B1",
            "ticks": 100896,
            "time": 165.94711949999999,
            "velocity": 0.7874015748031497
          },
          {
            "duration": 0.1578944999999976,
            "durationTicks": 96,
            "midi": 47,
            "name": "B2",
            "ticks": 100896,
            "time": 165.94711949999999,
            "velocity": 0.7874015748031497
          },
          {
            "duration": 0.31578900000002363,
            "durationTicks": 192,
            "midi": 47,
            "name": "B2",
            "ticks": 100992,
            "time": 166.10501399999998,
            "velocity": 0.7874015748031497
          },
          {
            "duration": 0.31578900000002363,
            "durationTicks": 192,
            "midi": 35,
            "name": "B1",
            "ticks": 100992,
            "time": 166.10501399999998,
            "velocity": 0.7874015748031497
          },
          {
            "duration": 0.3157889999999952,
            "durationTicks": 192,
            "midi": 35,
            "name": "B1",
            "ticks": 101184,
            "time": 166.420803,
            "velocity": 0.7874015748031497
          },
          {
            "duration": 0.3157889999999952,
            "durationTicks": 192,
            "midi": 47,
            "name": "B2",
            "ticks": 101184,
            "time": 166.420803,
            "velocity": 0.7874015748031497
          },
          {
            "duration": 0.1578944999999976,
            "durationTicks": 96,
            "midi": 35,
            "name": "B1",
            "ticks": 101280,
            "time": 166.5786975,
            "velocity": 0.7874015748031497
          }
        ],
        "endOfTrackTicks": 101376
      },
      {
        "channel": 9,
        "controlChanges": {},
        "pitchBends": [],
        "instrument": {
          "family": "drums",
          "number": 0,
          "name": "standard kit"
        },
        "name": "Electric Drum Kit",
        "notes": [
          {
            "duration": 0.1578944999999976,
            "durationTicks": 96,
            "midi": 53,
            "name": "F3",
            "ticks": 27648,
            "time": 45.473616,
            "velocity": 0.3937007874015748
          },
          {
            "duration": 0.1578944999999976,
            "durationTicks": 96,
            "midi": 36,
            "name": "C2",
            "ticks": 27648,
            "time": 45.473616,
            "velocity": 0.3937007874015748
          },
          {
            "duration": 0.1578945000000047,
            "durationTicks": 96,
            "midi": 53,
            "name": "F3",
            "ticks": 27840,
            "time": 45.789404999999995,
            "velocity": 0.3937007874015748
          },
          {
            "duration": 0.1578944999999976,
            "durationTicks": 96,
            "midi": 36,
            "name": "C2",
            "ticks": 28032,
            "time": 46.105194,
            "velocity": 0.3937007874015748
          },
          {
            "duration": 0.1578944999999976,
            "durationTicks": 96,
            "midi": 53,
            "name": "F3",
            "ticks": 28032,
            "time": 46.105194,
            "velocity": 0.3937007874015748
          },
          {
            "duration": 0.1578944999999976,
            "durationTicks": 96,
            "midi": 53,
            "name": "F3",
            "ticks": 28224,
            "time": 46.420983,
            "velocity": 0.3937007874015748
          },
          {
            "duration": 0.1578945000000047,
            "durationTicks": 96,
            "midi": 53,
            "name": "F3",
            "ticks": 28416,
            "time": 46.736771999999995,
            "velocity": 0.3937007874015748
          },
          {
            "duration": 0.1578945000000047,
            "durationTicks": 96,
            "midi": 36,
            "name": "C2",
            "ticks": 28416,
            "time": 46.736771999999995,
            "velocity": 0.3937007874015748
          },
          {
            "duration": 0.1578944999999976,
            "durationTicks": 96,
            "midi": 53,
            "name": "F3",
            "ticks": 28608,
            "time": 47.052561,
            "velocity": 0.3937007874015748
          },
          {
            "duration": 0.1578944999999976,
            "durationTicks": 96,
            "midi": 53,
            "name": "F3",
            "ticks": 28800,
            "time": 47.36835,
            "velocity": 0.3937007874015748
          },
          {
            "duration": 0.1578944999999976,
            "durationTicks": 96,
            "midi": 36,
            "name": "C2",
            "ticks": 28800,
            "time": 47.36835,
            "velocity": 0.3937007874015748
          },
          {
            "duration": 0.1578945000000047,
            "durationTicks": 96,
            "midi": 53,
            "name": "F3",
            "ticks": 28992,
            "time": 47.684138999999995,
            "velocity": 0.3937007874015748
          },
          {
            "duration": 0.1578944999999976,
            "durationTicks": 96,
            "midi": 53,
            "name": "F3",
            "ticks": 29184,
            "time": 47.999928,
            "velocity": 0.3937007874015748
          },
          {
            "duration": 0.1578944999999976,
            "durationTicks": 96,
            "midi": 36,
            "name": "C2",
            "ticks": 29184,
            "time": 47.999928,
            "velocity": 0.3937007874015748
          },
          {
            "duration": 0.1578944999999976,
            "durationTicks": 96,
            "midi": 53,
            "name": "F3",
            "ticks": 29376,
            "time": 48.315717,
            "velocity": 0.3937007874015748
          },
          {
            "duration": 0.1578945000000047,
            "durationTicks": 96,
            "midi": 36,
            "name": "C2",
            "ticks": 29568,
            "time": 48.631505999999995,
            "velocity": 0.3937007874015748
          },
          {
            "duration": 0.1578945000000047,
            "durationTicks": 96,
            "midi": 53,
            "name": "F3",
            "ticks": 29568,
            "time": 48.631505999999995,
            "velocity": 0.3937007874015748
          },
          {
            "duration": 0.1578944999999976,
            "durationTicks": 96,
            "midi": 53,
            "name": "F3",
            "ticks": 29760,
            "time": 48.947295,
            "velocity": 0.3937007874015748
          },
          {
            "duration": 0.1578944999999976,
            "durationTicks": 96,
            "midi": 53,
            "name": "F3",
            "ticks": 29952,
            "time": 49.263084,
            "velocity": 0.3937007874015748
          },
          {
            "duration": 0.1578944999999976,
            "durationTicks": 96,
            "midi": 36,
            "name": "C2",
            "ticks": 29952,
            "time": 49.263084,
            "velocity": 0.3937007874015748
          },
          {
            "duration": 0.1578945000000047,
            "durationTicks": 96,
            "midi": 53,
            "name": "F3",
            "ticks": 30144,
            "time": 49.578872999999994,
            "velocity": 0.3937007874015748
          },
          {
            "duration": 0.1578944999999976,
            "durationTicks": 96,
            "midi": 36,
            "name": "C2",
            "ticks": 30336,
            "time": 49.894662,
            "velocity": 0.3937007874015748
          },
          {
            "duration": 0.1578944999999976,
            "durationTicks": 96,
            "midi": 53,
            "name": "F3",
            "ticks": 30336,
            "time": 49.894662,
            "velocity": 0.3937007874015748
          },
          {
            "duration": 0.1578944999999976,
            "durationTicks": 96,
            "midi": 53,
            "name": "F3",
            "ticks": 30528,
            "time": 50.210451,
            "velocity": 0.3937007874015748
          },
          {
            "duration": 0.1578945000000047,
            "durationTicks": 96,
            "midi": 36,
            "name": "C2",
            "ticks": 30624,
            "time": 50.3683455,
            "velocity": 0.3937007874015748
          },
          {
            "duration": 0.1578944999999976,
            "durationTicks": 96,
            "midi": 36,
            "name": "C2",
            "ticks": 30720,
            "time": 50.52624,
            "velocity": 0.3937007874015748
          },
          {
            "duration": 0.1578944999999976,
            "durationTicks": 96,
            "midi": 53,
            "name": "F3",
            "ticks": 30720,
            "time": 50.52624,
            "velocity": 0.3937007874015748
          },
          {
            "duration": 0.1578945000000047,
            "durationTicks": 96,
            "midi": 53,
            "name": "F3",
            "ticks": 30912,
            "time": 50.842029,
            "velocity": 0.3937007874015748
          },
          {
            "duration": 0.1578944999999976,
            "durationTicks": 96,
            "midi": 53,
            "name": "F3",
            "ticks": 31104,
            "time": 51.157818,
            "velocity": 0.3937007874015748
          },
          {
            "duration": 0.1578944999999976,
            "durationTicks": 96,
            "midi": 36,
            "name": "C2",
            "ticks": 31104,
            "time": 51.157818,
            "velocity": 0.3937007874015748
          },
          {
            "duration": 0.1578944999999976,
            "durationTicks": 96,
            "midi": 53,
            "name": "F3",
            "ticks": 31296,
            "time": 51.473607,
            "velocity": 0.3937007874015748
          },
          {
            "duration": 0.1578945000000047,
            "durationTicks": 96,
            "midi": 53,
            "name": "F3",
            "ticks": 31488,
            "time": 51.789395999999996,
            "velocity": 0.3937007874015748
          },
          {
            "duration": 0.1578945000000047,
            "durationTicks": 96,
            "midi": 36,
            "name": "C2",
            "ticks": 31488,
            "time": 51.789395999999996,
            "velocity": 0.3937007874015748
          },
          {
            "duration": 0.1578944999999976,
            "durationTicks": 96,
            "midi": 53,
            "name": "F3",
            "ticks": 31680,
            "time": 52.105185,
            "velocity": 0.3937007874015748
          },
          {
            "duration": 0.1578944999999976,
            "durationTicks": 96,
            "midi": 53,
            "name": "F3",
            "ticks": 31872,
            "time": 52.420974,
            "velocity": 0.3937007874015748
          },
          {
            "duration": 0.1578944999999976,
            "durationTicks": 96,
            "midi": 36,
            "name": "C2",
            "ticks": 31872,
            "time": 52.420974,
            "velocity": 0.3937007874015748
          },
          {
            "duration": 0.1578945000000047,
            "durationTicks": 96,
            "midi": 53,
            "name": "F3",
            "ticks": 32064,
            "time": 52.736762999999996,
            "velocity": 0.3937007874015748
          },
          {
            "duration": 0.1578944999999976,
            "durationTicks": 96,
            "midi": 53,
            "name": "F3",
            "ticks": 32256,
            "time": 53.052552,
            "velocity": 0.3937007874015748
          },
          {
            "duration": 0.1578944999999976,
            "durationTicks": 96,
            "midi": 36,
            "name": "C2",
            "ticks": 32256,
            "time": 53.052552,
            "velocity": 0.3937007874015748
          },
          {
            "duration": 0.1578944999999976,
            "durationTicks": 96,
            "midi": 53,
            "name": "F3",
            "ticks": 32448,
            "time": 53.368341,
            "velocity": 0.3937007874015748
          },
          {
            "duration": 0.1578945000000047,
            "durationTicks": 96,
            "midi": 53,
            "name": "F3",
            "ticks": 32640,
            "time": 53.684129999999996,
            "velocity": 0.3937007874015748
          },
          {
            "duration": 0.1578945000000047,
            "durationTicks": 96,
            "midi": 36,
            "name": "C2",
            "ticks": 32640,
            "time": 53.684129999999996,
            "velocity": 0.3937007874015748
          },
          {
            "duration": 0.1578944999999976,
            "durationTicks": 96,
            "midi": 53,
            "name": "F3",
            "ticks": 32832,
            "time": 53.999919,
            "velocity": 0.3937007874015748
          },
          {
            "duration": 0.1578944999999976,
            "durationTicks": 96,
            "midi": 53,
            "name": "F3",
            "ticks": 33024,
            "time": 54.315708,
            "velocity": 0.3937007874015748
          },
          {
            "duration": 0.1578944999999976,
            "durationTicks": 96,
            "midi": 36,
            "name": "C2",
            "ticks": 33024,
            "time": 54.315708,
            "velocity": 0.3937007874015748
          },
          {
            "duration": 0.1578945000000047,
            "durationTicks": 96,
            "midi": 53,
            "name": "F3",
            "ticks": 33216,
            "time": 54.631496999999996,
            "velocity": 0.3937007874015748
          },
          {
            "duration": 0.1578944999999976,
            "durationTicks": 96,
            "midi": 53,
            "name": "F3",
            "ticks": 33408,
            "time": 54.947286,
            "velocity": 0.3937007874015748
          },
          {
            "duration": 0.1578944999999976,
            "durationTicks": 96,
            "midi": 36,
            "name": "C2",
            "ticks": 33408,
            "time": 54.947286,
            "velocity": 0.3937007874015748
          },
          {
            "duration": 0.1578944999999976,
            "durationTicks": 96,
            "midi": 53,
            "name": "F3",
            "ticks": 33600,
            "time": 55.263075,
            "velocity": 0.3937007874015748
          },
          {
            "duration": 0.1578945000000047,
            "durationTicks": 96,
            "midi": 53,
            "name": "F3",
            "ticks": 33792,
            "time": 55.578863999999996,
            "velocity": 0.3937007874015748
          },
          {
            "duration": 0.1578945000000047,
            "durationTicks": 96,
            "midi": 36,
            "name": "C2",
            "ticks": 33792,
            "time": 55.578863999999996,
            "velocity": 0.3937007874015748
          },
          {
            "duration": 0.1578944999999976,
            "durationTicks": 96,
            "midi": 53,
            "name": "F3",
            "ticks": 33984,
            "time": 55.894653,
            "velocity": 0.3937007874015748
          },
          {
            "duration": 0.1578944999999976,
            "durationTicks": 96,
            "midi": 53,
            "name": "F3",
            "ticks": 34176,
            "time": 56.210442,
            "velocity": 0.3937007874015748
          },
          {
            "duration": 0.1578944999999976,
            "durationTicks": 96,
            "midi": 36,
            "name": "C2",
            "ticks": 34176,
            "time": 56.210442,
            "velocity": 0.3937007874015748
          },
          {
            "duration": 0.1578945000000047,
            "durationTicks": 96,
            "midi": 53,
            "name": "F3",
            "ticks": 34368,
            "time": 56.526230999999996,
            "velocity": 0.3937007874015748
          },
          {
            "duration": 0.1578944999999976,
            "durationTicks": 96,
            "midi": 36,
            "name": "C2",
            "ticks": 34560,
            "time": 56.84202,
            "velocity": 0.3937007874015748
          },
          {
            "duration": 0.1578944999999976,
            "durationTicks": 96,
            "midi": 53,
            "name": "F3",
            "ticks": 34560,
            "time": 56.84202,
            "velocity": 0.3937007874015748
          },
          {
            "duration": 0.1578944999999976,
            "durationTicks": 96,
            "midi": 53,
            "name": "F3",
            "ticks": 34752,
            "time": 57.157809,
            "velocity": 0.3937007874015748
          },
          {
            "duration": 0.1578945000000047,
            "durationTicks": 96,
            "midi": 53,
            "name": "F3",
            "ticks": 34944,
            "time": 57.473597999999996,
            "velocity": 0.3937007874015748
          },
          {
            "duration": 0.1578945000000047,
            "durationTicks": 96,
            "midi": 36,
            "name": "C2",
            "ticks": 34944,
            "time": 57.473597999999996,
            "velocity": 0.3937007874015748
          },
          {
            "duration": 0.1578944999999976,
            "durationTicks": 96,
            "midi": 53,
            "name": "F3",
            "ticks": 35136,
            "time": 57.789387,
            "velocity": 0.3937007874015748
          },
          {
            "duration": 0.1578944999999976,
            "durationTicks": 96,
            "midi": 36,
            "name": "C2",
            "ticks": 35328,
            "time": 58.105176,
            "velocity": 0.3937007874015748
          },
          {
            "duration": 0.1578944999999976,
            "durationTicks": 96,
            "midi": 53,
            "name": "F3",
            "ticks": 35328,
            "time": 58.105176,
            "velocity": 0.3937007874015748
          },
          {
            "duration": 0.1578945000000047,
            "durationTicks": 96,
            "midi": 53,
            "name": "F3",
            "ticks": 35520,
            "time": 58.420964999999995,
            "velocity": 0.3937007874015748
          },
          {
            "duration": 0.1578944999999976,
            "durationTicks": 96,
            "midi": 53,
            "name": "F3",
            "ticks": 35712,
            "time": 58.736754,
            "velocity": 0.3937007874015748
          },
          {
            "duration": 0.1578944999999976,
            "durationTicks": 96,
            "midi": 36,
            "name": "C2",
            "ticks": 35712,
            "time": 58.736754,
            "velocity": 0.3937007874015748
          },
          {
            "duration": 0.1578944999999976,
            "durationTicks": 96,
            "midi": 53,
            "name": "F3",
            "ticks": 35904,
            "time": 59.052543,
            "velocity": 0.3937007874015748
          },
          {
            "duration": 0.1578945000000047,
            "durationTicks": 96,
            "midi": 36,
            "name": "C2",
            "ticks": 36096,
            "time": 59.368331999999995,
            "velocity": 0.3937007874015748
          },
          {
            "duration": 0.1578945000000047,
            "durationTicks": 96,
            "midi": 53,
            "name": "F3",
            "ticks": 36096,
            "time": 59.368331999999995,
            "velocity": 0.3937007874015748
          },
          {
            "duration": 0.1578944999999976,
            "durationTicks": 96,
            "midi": 53,
            "name": "F3",
            "ticks": 36288,
            "time": 59.684121,
            "velocity": 0.3937007874015748
          },
          {
            "duration": 0.1578944999999976,
            "durationTicks": 96,
            "midi": 36,
            "name": "C2",
            "ticks": 36480,
            "time": 59.99991,
            "velocity": 0.3937007874015748
          },
          {
            "duration": 0.1578944999999976,
            "durationTicks": 96,
            "midi": 53,
            "name": "F3",
            "ticks": 36480,
            "time": 59.99991,
            "velocity": 0.3937007874015748
          },
          {
            "duration": 0.1578945000000047,
            "durationTicks": 96,
            "midi": 53,
            "name": "F3",
            "ticks": 36672,
            "time": 60.315698999999995,
            "velocity": 0.3937007874015748
          },
          {
            "duration": 0.1578944999999976,
            "durationTicks": 96,
            "midi": 53,
            "name": "F3",
            "ticks": 36864,
            "time": 60.631488,
            "velocity": 0.3937007874015748
          },
          {
            "duration": 0.1578944999999976,
            "durationTicks": 96,
            "midi": 36,
            "name": "C2",
            "ticks": 36864,
            "time": 60.631488,
            "velocity": 0.3937007874015748
          },
          {
            "duration": 0.1578944999999976,
            "durationTicks": 96,
            "midi": 53,
            "name": "F3",
            "ticks": 37056,
            "time": 60.947277,
            "velocity": 0.3937007874015748
          },
          {
            "duration": 0.1578945000000047,
            "durationTicks": 96,
            "midi": 53,
            "name": "F3",
            "ticks": 37248,
            "time": 61.263065999999995,
            "velocity": 0.3937007874015748
          },
          {
            "duration": 0.1578945000000047,
            "durationTicks": 96,
            "midi": 36,
            "name": "C2",
            "ticks": 37248,
            "time": 61.263065999999995,
            "velocity": 0.3937007874015748
          },
          {
            "duration": 0.1578944999999976,
            "durationTicks": 96,
            "midi": 53,
            "name": "F3",
            "ticks": 37440,
            "time": 61.578855,
            "velocity": 0.3937007874015748
          },
          {
            "duration": 0.1578944999999976,
            "durationTicks": 96,
            "midi": 36,
            "name": "C2",
            "ticks": 37632,
            "time": 61.894644,
            "velocity": 0.3937007874015748
          },
          {
            "duration": 0.1578944999999976,
            "durationTicks": 96,
            "midi": 53,
            "name": "F3",
            "ticks": 37632,
            "time": 61.894644,
            "velocity": 0.3937007874015748
          },
          {
            "duration": 0.1578945000000047,
            "durationTicks": 96,
            "midi": 53,
            "name": "F3",
            "ticks": 37824,
            "time": 62.210432999999995,
            "velocity": 0.3937007874015748
          },
          {
            "duration": 0.1578944999999976,
            "durationTicks": 96,
            "midi": 36,
            "name": "C2",
            "ticks": 38016,
            "time": 62.526222,
            "velocity": 0.3937007874015748
          },
          {
            "duration": 0.1578944999999976,
            "durationTicks": 96,
            "midi": 53,
            "name": "F3",
            "ticks": 38016,
            "time": 62.526222,
            "velocity": 0.3937007874015748
          },
          {
            "duration": 0.1578944999999976,
            "durationTicks": 96,
            "midi": 53,
            "name": "F3",
            "ticks": 38208,
            "time": 62.842011,
            "velocity": 0.3937007874015748
          },
          {
            "duration": 0.1578945000000047,
            "durationTicks": 96,
            "midi": 36,
            "name": "C2",
            "ticks": 38400,
            "time": 63.157799999999995,
            "velocity": 0.3937007874015748
          },
          {
            "duration": 0.1578945000000047,
            "durationTicks": 96,
            "midi": 53,
            "name": "F3",
            "ticks": 38400,
            "time": 63.157799999999995,
            "velocity": 0.3937007874015748
          },
          {
            "duration": 0.1578944999999976,
            "durationTicks": 96,
            "midi": 53,
            "name": "F3",
            "ticks": 38592,
            "time": 63.473589,
            "velocity": 0.3937007874015748
          },
          {
            "duration": 0.1578944999999976,
            "durationTicks": 96,
            "midi": 53,
            "name": "F3",
            "ticks": 38784,
            "time": 63.789378,
            "velocity": 0.3937007874015748
          },
          {
            "duration": 0.1578944999999976,
            "durationTicks": 96,
            "midi": 36,
            "name": "C2",
            "ticks": 38784,
            "time": 63.789378,
            "velocity": 0.3937007874015748
          },
          {
            "duration": 0.1578944999999976,
            "durationTicks": 96,
            "midi": 53,
            "name": "F3",
            "ticks": 38976,
            "time": 64.105167,
            "velocity": 0.3937007874015748
          },
          {
            "duration": 0.1578944999999976,
            "durationTicks": 96,
            "midi": 49,
            "name": "C#3",
            "ticks": 39168,
            "time": 64.420956,
            "velocity": 0.3937007874015748
          },
          {
            "duration": 0.1578944999999976,
            "durationTicks": 96,
            "midi": 49,
            "name": "C#3",
            "ticks": 39168,
            "time": 64.420956,
            "velocity": 0.3937007874015748
          },
          {
            "duration": 0.1578944999999976,
            "durationTicks": 96,
            "midi": 49,
            "name": "C#3",
            "ticks": 39360,
            "time": 64.736745,
            "velocity": 0.3937007874015748
          },
          {
            "duration": 0.1578944999999976,
            "durationTicks": 96,
            "midi": 49,
            "name": "C#3",
            "ticks": 39360,
            "time": 64.736745,
            "velocity": 0.3937007874015748
          },
          {
            "duration": 0.1578944999999976,
            "durationTicks": 96,
            "midi": 49,
            "name": "C#3",
            "ticks": 39552,
            "time": 65.052534,
            "velocity": 0.3937007874015748
          },
          {
            "duration": 0.1578944999999976,
            "durationTicks": 96,
            "midi": 49,
            "name": "C#3",
            "ticks": 39552,
            "time": 65.052534,
            "velocity": 0.3937007874015748
          },
          {
            "duration": 0.1578944999999976,
            "durationTicks": 96,
            "midi": 53,
            "name": "F3",
            "ticks": 39744,
            "time": 65.368323,
            "velocity": 0.3937007874015748
          },
          {
            "duration": 0.1578944999999976,
            "durationTicks": 96,
            "midi": 52,
            "name": "E3",
            "ticks": 39744,
            "time": 65.368323,
            "velocity": 0.3937007874015748
          },
          {
            "duration": 0.1578944999999976,
            "durationTicks": 96,
            "midi": 52,
            "name": "E3",
            "ticks": 39840,
            "time": 65.5262175,
            "velocity": 0.3937007874015748
          },
          {
            "duration": 0.1578944999999976,
            "durationTicks": 96,
            "midi": 53,
            "name": "F3",
            "ticks": 39840,
            "time": 65.5262175,
            "velocity": 0.3937007874015748
          },
          {
            "duration": 0.1578944999999976,
            "durationTicks": 96,
            "midi": 36,
            "name": "C2",
            "ticks": 39936,
            "time": 65.684112,
            "velocity": 0.3937007874015748
          },
          {
            "duration": 0.1578944999999976,
            "durationTicks": 96,
            "midi": 35,
            "name": "B1",
            "ticks": 39936,
            "time": 65.684112,
            "velocity": 0.3937007874015748
          },
          {
            "duration": 0.0789472499999988,
            "durationTicks": 48,
            "midi": 42,
            "name": "F#2",
            "ticks": 39936,
            "time": 65.684112,
            "velocity": 0.5433070866141733
          },
          {
            "duration": 0.0789472499999988,
            "durationTicks": 48,
            "midi": 42,
            "name": "F#2",
            "ticks": 40032,
            "time": 65.8420065,
            "velocity": 0.5433070866141733
          },
          {
            "duration": 0.1578944999999976,
            "durationTicks": 96,
            "midi": 40,
            "name": "E2",
            "ticks": 40128,
            "time": 65.999901,
            "velocity": 0.3937007874015748
          },
          {
            "duration": 0.0789472499999988,
            "durationTicks": 48,
            "midi": 42,
            "name": "F#2",
            "ticks": 40128,
            "time": 65.999901,
            "velocity": 0.5433070866141733
          },
          {
            "duration": 0.15789450000001182,
            "durationTicks": 96,
            "midi": 36,
            "name": "C2",
            "ticks": 40224,
            "time": 66.15779549999999,
            "velocity": 0.3937007874015748
          },
          {
            "duration": 0.15789450000001182,
            "durationTicks": 96,
            "midi": 35,
            "name": "B1",
            "ticks": 40224,
            "time": 66.15779549999999,
            "velocity": 0.3937007874015748
          },
          {
            "duration": 0.0789472499999988,
            "durationTicks": 48,
            "midi": 42,
            "name": "F#2",
            "ticks": 40224,
            "time": 66.15779549999999,
            "velocity": 0.5433070866141733
          },
          {
            "duration": 0.0789472499999988,
            "durationTicks": 48,
            "midi": 44,
            "name": "G#2",
            "ticks": 40320,
            "time": 66.31569,
            "velocity": 0.3937007874015748
          },
          {
            "duration": 0.0789472499999988,
            "durationTicks": 48,
            "midi": 42,
            "name": "F#2",
            "ticks": 40368,
            "time": 66.39463725,
            "velocity": 0.5433070866141733
          },
          {
            "duration": 0.0789472499999988,
            "durationTicks": 48,
            "midi": 42,
            "name": "F#2",
            "ticks": 40416,
            "time": 66.4735845,
            "velocity": 0.5433070866141733
          },
          {
            "duration": 0.1578944999999976,
            "durationTicks": 96,
            "midi": 35,
            "name": "B1",
            "ticks": 40416,
            "time": 66.4735845,
            "velocity": 0.3937007874015748
          },
          {
            "duration": 0.1578944999999976,
            "durationTicks": 96,
            "midi": 36,
            "name": "C2",
            "ticks": 40416,
            "time": 66.4735845,
            "velocity": 0.3937007874015748
          },
          {
            "duration": 0.0789472499999988,
            "durationTicks": 48,
            "midi": 42,
            "name": "F#2",
            "ticks": 40512,
            "time": 66.631479,
            "velocity": 0.5433070866141733
          },
          {
            "duration": 0.1578944999999976,
            "durationTicks": 96,
            "midi": 40,
            "name": "E2",
            "ticks": 40512,
            "time": 66.631479,
            "velocity": 0.3937007874015748
          },
          {
            "duration": 0.0789472499999988,
            "durationTicks": 48,
            "midi": 42,
            "name": "F#2",
            "ticks": 40608,
            "time": 66.7893735,
            "velocity": 0.5433070866141733
          },
          {
            "duration": 0.1578944999999976,
            "durationTicks": 96,
            "midi": 36,
            "name": "C2",
            "ticks": 40704,
            "time": 66.947268,
            "velocity": 0.3937007874015748
          },
          {
            "duration": 0.0789472499999988,
            "durationTicks": 48,
            "midi": 42,
            "name": "F#2",
            "ticks": 40704,
            "time": 66.947268,
            "velocity": 0.5433070866141733
          },
          {
            "duration": 0.1578944999999976,
            "durationTicks": 96,
            "midi": 35,
            "name": "B1",
            "ticks": 40704,
            "time": 66.947268,
            "velocity": 0.3937007874015748
          },
          {
            "duration": 0.0789472499999988,
            "durationTicks": 48,
            "midi": 42,
            "name": "F#2",
            "ticks": 40800,
            "time": 67.10516249999999,
            "velocity": 0.5433070866141733
          },
          {
            "duration": 0.1578944999999976,
            "durationTicks": 96,
            "midi": 40,
            "name": "E2",
            "ticks": 40896,
            "time": 67.263057,
            "velocity": 0.3937007874015748
          },
          {
            "duration": 0.0789472499999988,
            "durationTicks": 48,
            "midi": 42,
            "name": "F#2",
            "ticks": 40896,
            "time": 67.263057,
            "velocity": 0.5433070866141733
          },
          {
            "duration": 0.1578944999999976,
            "durationTicks": 96,
            "midi": 35,
            "name": "B1",
            "ticks": 40992,
            "time": 67.4209515,
            "velocity": 0.3937007874015748
          },
          {
            "duration": 0.0789472499999988,
            "durationTicks": 48,
            "midi": 42,
            "name": "F#2",
            "ticks": 40992,
            "time": 67.4209515,
            "velocity": 0.5433070866141733
          },
          {
            "duration": 0.1578944999999976,
            "durationTicks": 96,
            "midi": 36,
            "name": "C2",
            "ticks": 40992,
            "time": 67.4209515,
            "velocity": 0.3937007874015748
          },
          {
            "duration": 0.0789472499999988,
            "durationTicks": 48,
            "midi": 44,
            "name": "G#2",
            "ticks": 41088,
            "time": 67.578846,
            "velocity": 0.3937007874015748
          },
          {
            "duration": 0.0789472499999988,
            "durationTicks": 48,
            "midi": 42,
            "name": "F#2",
            "ticks": 41136,
            "time": 67.65779325,
            "velocity": 0.5433070866141733
          },
          {
            "duration": 0.1578944999999976,
            "durationTicks": 96,
            "midi": 35,
            "name": "B1",
            "ticks": 41184,
            "time": 67.7367405,
            "velocity": 0.3937007874015748
          },
          {
            "duration": 0.1578944999999976,
            "durationTicks": 96,
            "midi": 36,
            "name": "C2",
            "ticks": 41184,
            "time": 67.7367405,
            "velocity": 0.3937007874015748
          },
          {
            "duration": 0.0789472499999988,
            "durationTicks": 48,
            "midi": 42,
            "name": "F#2",
            "ticks": 41184,
            "time": 67.7367405,
            "velocity": 0.5433070866141733
          },
          {
            "duration": 0.0789472499999988,
            "durationTicks": 48,
            "midi": 42,
            "name": "F#2",
            "ticks": 41280,
            "time": 67.894635,
            "velocity": 0.5433070866141733
          },
          {
            "duration": 0.1578944999999976,
            "durationTicks": 96,
            "midi": 40,
            "name": "E2",
            "ticks": 41280,
            "time": 67.894635,
            "velocity": 0.3937007874015748
          },
          {
            "duration": 0.0789472499999988,
            "durationTicks": 48,
            "midi": 42,
            "name": "F#2",
            "ticks": 41376,
            "time": 68.05252949999999,
            "velocity": 0.5433070866141733
          },
          {
            "duration": 0.1578944999999976,
            "durationTicks": 96,
            "midi": 36,
            "name": "C2",
            "ticks": 41472,
            "time": 68.210424,
            "velocity": 0.3937007874015748
          },
          {
            "duration": 0.1578944999999976,
            "durationTicks": 96,
            "midi": 35,
            "name": "B1",
            "ticks": 41472,
            "time": 68.210424,
            "velocity": 0.3937007874015748
          },
          {
            "duration": 0.0789472499999988,
            "durationTicks": 48,
            "midi": 42,
            "name": "F#2",
            "ticks": 41472,
            "time": 68.210424,
            "velocity": 0.5433070866141733
          },
          {
            "duration": 0.0789472499999988,
            "durationTicks": 48,
            "midi": 42,
            "name": "F#2",
            "ticks": 41568,
            "time": 68.3683185,
            "velocity": 0.5433070866141733
          },
          {
            "duration": 0.1578944999999976,
            "durationTicks": 96,
            "midi": 40,
            "name": "E2",
            "ticks": 41664,
            "time": 68.526213,
            "velocity": 0.3937007874015748
          },
          {
            "duration": 0.0789472499999988,
            "durationTicks": 48,
            "midi": 42,
            "name": "F#2",
            "ticks": 41664,
            "time": 68.526213,
            "velocity": 0.5433070866141733
          },
          {
            "duration": 0.1578944999999976,
            "durationTicks": 96,
            "midi": 36,
            "name": "C2",
            "ticks": 41760,
            "time": 68.6841075,
            "velocity": 0.3937007874015748
          },
          {
            "duration": 0.1578944999999976,
            "durationTicks": 96,
            "midi": 35,
            "name": "B1",
            "ticks": 41760,
            "time": 68.6841075,
            "velocity": 0.3937007874015748
          },
          {
            "duration": 0.0789472499999988,
            "durationTicks": 48,
            "midi": 42,
            "name": "F#2",
            "ticks": 41760,
            "time": 68.6841075,
            "velocity": 0.5433070866141733
          },
          {
            "duration": 0.0789472499999988,
            "durationTicks": 48,
            "midi": 44,
            "name": "G#2",
            "ticks": 41856,
            "time": 68.842002,
            "velocity": 0.3937007874015748
          },
          {
            "duration": 0.0789472499999988,
            "durationTicks": 48,
            "midi": 42,
            "name": "F#2",
            "ticks": 41904,
            "time": 68.92094924999999,
            "velocity": 0.5433070866141733
          },
          {
            "duration": 0.0789472499999988,
            "durationTicks": 48,
            "midi": 42,
            "name": "F#2",
            "ticks": 41952,
            "time": 68.99989649999999,
            "velocity": 0.5433070866141733
          },
          {
            "duration": 0.15789450000001182,
            "durationTicks": 96,
            "midi": 36,
            "name": "C2",
            "ticks": 41952,
            "time": 68.99989649999999,
            "velocity": 0.3937007874015748
          },
          {
            "duration": 0.15789450000001182,
            "durationTicks": 96,
            "midi": 35,
            "name": "B1",
            "ticks": 41952,
            "time": 68.99989649999999,
            "velocity": 0.3937007874015748
          },
          {
            "duration": 0.0789472499999988,
            "durationTicks": 48,
            "midi": 42,
            "name": "F#2",
            "ticks": 42048,
            "time": 69.157791,
            "velocity": 0.5433070866141733
          },
          {
            "duration": 0.1578944999999976,
            "durationTicks": 96,
            "midi": 40,
            "name": "E2",
            "ticks": 42048,
            "time": 69.157791,
            "velocity": 0.3937007874015748
          },
          {
            "duration": 0.0789472499999988,
            "durationTicks": 48,
            "midi": 42,
            "name": "F#2",
            "ticks": 42144,
            "time": 69.3156855,
            "velocity": 0.5433070866141733
          },
          {
            "duration": 0.1578944999999976,
            "durationTicks": 96,
            "midi": 35,
            "name": "B1",
            "ticks": 42240,
            "time": 69.47358,
            "velocity": 0.3937007874015748
          },
          {
            "duration": 0.1578944999999976,
            "durationTicks": 96,
            "midi": 36,
            "name": "C2",
            "ticks": 42240,
            "time": 69.47358,
            "velocity": 0.3937007874015748
          },
          {
            "duration": 0.0789472499999988,
            "durationTicks": 48,
            "midi": 42,
            "name": "F#2",
            "ticks": 42240,
            "time": 69.47358,
            "velocity": 0.5433070866141733
          },
          {
            "duration": 0.0789472499999988,
            "durationTicks": 48,
            "midi": 42,
            "name": "F#2",
            "ticks": 42336,
            "time": 69.6314745,
            "velocity": 0.5433070866141733
          },
          {
            "duration": 0.0789472499999988,
            "durationTicks": 48,
            "midi": 42,
            "name": "F#2",
            "ticks": 42432,
            "time": 69.789369,
            "velocity": 0.5433070866141733
          },
          {
            "duration": 0.1578944999999976,
            "durationTicks": 96,
            "midi": 40,
            "name": "E2",
            "ticks": 42432,
            "time": 69.789369,
            "velocity": 0.3937007874015748
          },
          {
            "duration": 0.0789472499999988,
            "durationTicks": 48,
            "midi": 42,
            "name": "F#2",
            "ticks": 42528,
            "time": 69.94726349999999,
            "velocity": 0.5433070866141733
          },
          {
            "duration": 0.15789450000001182,
            "durationTicks": 96,
            "midi": 35,
            "name": "B1",
            "ticks": 42528,
            "time": 69.94726349999999,
            "velocity": 0.3937007874015748
          },
          {
            "duration": 0.15789450000001182,
            "durationTicks": 96,
            "midi": 36,
            "name": "C2",
            "ticks": 42528,
            "time": 69.94726349999999,
            "velocity": 0.3937007874015748
          },
          {
            "duration": 0.0789472499999988,
            "durationTicks": 48,
            "midi": 44,
            "name": "G#2",
            "ticks": 42624,
            "time": 70.105158,
            "velocity": 0.3937007874015748
          },
          {
            "duration": 0.0789472499999988,
            "durationTicks": 48,
            "midi": 42,
            "name": "F#2",
            "ticks": 42672,
            "time": 70.18410525,
            "velocity": 0.5433070866141733
          },
          {
            "duration": 0.0789472499999988,
            "durationTicks": 48,
            "midi": 42,
            "name": "F#2",
            "ticks": 42720,
            "time": 70.2630525,
            "velocity": 0.5433070866141733
          },
          {
            "duration": 0.1578944999999976,
            "durationTicks": 96,
            "midi": 36,
            "name": "C2",
            "ticks": 42720,
            "time": 70.2630525,
            "velocity": 0.3937007874015748
          },
          {
            "duration": 0.1578944999999976,
            "durationTicks": 96,
            "midi": 35,
            "name": "B1",
            "ticks": 42720,
            "time": 70.2630525,
            "velocity": 0.3937007874015748
          },
          {
            "duration": 0.1578944999999976,
            "durationTicks": 96,
            "midi": 40,
            "name": "E2",
            "ticks": 42816,
            "time": 70.420947,
            "velocity": 0.3937007874015748
          },
          {
            "duration": 0.0789472499999988,
            "durationTicks": 48,
            "midi": 42,
            "name": "F#2",
            "ticks": 42816,
            "time": 70.420947,
            "velocity": 0.5433070866141733
          },
          {
            "duration": 0.0789472499999988,
            "durationTicks": 48,
            "midi": 42,
            "name": "F#2",
            "ticks": 42912,
            "time": 70.5788415,
            "velocity": 0.5433070866141733
          },
          {
            "duration": 0.1578944999999976,
            "durationTicks": 96,
            "midi": 36,
            "name": "C2",
            "ticks": 43008,
            "time": 70.736736,
            "velocity": 0.3937007874015748
          },
          {
            "duration": 0.1578944999999976,
            "durationTicks": 96,
            "midi": 35,
            "name": "B1",
            "ticks": 43008,
            "time": 70.736736,
            "velocity": 0.3937007874015748
          },
          {
            "duration": 0.0789472499999988,
            "durationTicks": 48,
            "midi": 42,
            "name": "F#2",
            "ticks": 43008,
            "time": 70.736736,
            "velocity": 0.5433070866141733
          },
          {
            "duration": 0.07894725000001301,
            "durationTicks": 48,
            "midi": 42,
            "name": "F#2",
            "ticks": 43104,
            "time": 70.89463049999999,
            "velocity": 0.5433070866141733
          },
          {
            "duration": 0.0789472499999988,
            "durationTicks": 48,
            "midi": 42,
            "name": "F#2",
            "ticks": 43200,
            "time": 71.052525,
            "velocity": 0.5433070866141733
          },
          {
            "duration": 0.1578944999999976,
            "durationTicks": 96,
            "midi": 40,
            "name": "E2",
            "ticks": 43200,
            "time": 71.052525,
            "velocity": 0.3937007874015748
          },
          {
            "duration": 0.1578944999999976,
            "durationTicks": 96,
            "midi": 36,
            "name": "C2",
            "ticks": 43296,
            "time": 71.2104195,
            "velocity": 0.3937007874015748
          },
          {
            "duration": 0.1578944999999976,
            "durationTicks": 96,
            "midi": 35,
            "name": "B1",
            "ticks": 43296,
            "time": 71.2104195,
            "velocity": 0.3937007874015748
          },
          {
            "duration": 0.0789472499999988,
            "durationTicks": 48,
            "midi": 42,
            "name": "F#2",
            "ticks": 43296,
            "time": 71.2104195,
            "velocity": 0.5433070866141733
          },
          {
            "duration": 0.0789472499999988,
            "durationTicks": 48,
            "midi": 44,
            "name": "G#2",
            "ticks": 43392,
            "time": 71.368314,
            "velocity": 0.3937007874015748
          },
          {
            "duration": 0.0789472499999988,
            "durationTicks": 48,
            "midi": 42,
            "name": "F#2",
            "ticks": 43440,
            "time": 71.44726125,
            "velocity": 0.5433070866141733
          },
          {
            "duration": 0.1578944999999976,
            "durationTicks": 96,
            "midi": 36,
            "name": "C2",
            "ticks": 43488,
            "time": 71.5262085,
            "velocity": 0.3937007874015748
          },
          {
            "duration": 0.1578944999999976,
            "durationTicks": 96,
            "midi": 35,
            "name": "B1",
            "ticks": 43488,
            "time": 71.5262085,
            "velocity": 0.3937007874015748
          },
          {
            "duration": 0.0789472499999988,
            "durationTicks": 48,
            "midi": 42,
            "name": "F#2",
            "ticks": 43488,
            "time": 71.5262085,
            "velocity": 0.5433070866141733
          },
          {
            "duration": 0.1578944999999976,
            "durationTicks": 96,
            "midi": 40,
            "name": "E2",
            "ticks": 43584,
            "time": 71.684103,
            "velocity": 0.3937007874015748
          },
          {
            "duration": 0.0789472499999988,
            "durationTicks": 48,
            "midi": 42,
            "name": "F#2",
            "ticks": 43584,
            "time": 71.684103,
            "velocity": 0.5433070866141733
          },
          {
            "duration": 0.07894725000001301,
            "durationTicks": 48,
            "midi": 42,
            "name": "F#2",
            "ticks": 43680,
            "time": 71.84199749999999,
            "velocity": 0.5433070866141733
          },
          {
            "duration": 0.0789472499999988,
            "durationTicks": 48,
            "midi": 42,
            "name": "F#2",
            "ticks": 43776,
            "time": 71.999892,
            "velocity": 0.5433070866141733
          },
          {
            "duration": 0.1578944999999976,
            "durationTicks": 96,
            "midi": 35,
            "name": "B1",
            "ticks": 43776,
            "time": 71.999892,
            "velocity": 0.3937007874015748
          },
          {
            "duration": 0.1578944999999976,
            "durationTicks": 96,
            "midi": 36,
            "name": "C2",
            "ticks": 43776,
            "time": 71.999892,
            "velocity": 0.3937007874015748
          },
          {
            "duration": 0.0789472499999988,
            "durationTicks": 48,
            "midi": 42,
            "name": "F#2",
            "ticks": 43872,
            "time": 72.1577865,
            "velocity": 0.5433070866141733
          },
          {
            "duration": 0.1578944999999976,
            "durationTicks": 96,
            "midi": 40,
            "name": "E2",
            "ticks": 43968,
            "time": 72.315681,
            "velocity": 0.3937007874015748
          },
          {
            "duration": 0.0789472499999988,
            "durationTicks": 48,
            "midi": 42,
            "name": "F#2",
            "ticks": 43968,
            "time": 72.315681,
            "velocity": 0.5433070866141733
          },
          {
            "duration": 0.1578944999999976,
            "durationTicks": 96,
            "midi": 36,
            "name": "C2",
            "ticks": 44064,
            "time": 72.4735755,
            "velocity": 0.3937007874015748
          },
          {
            "duration": 0.1578944999999976,
            "durationTicks": 96,
            "midi": 35,
            "name": "B1",
            "ticks": 44064,
            "time": 72.4735755,
            "velocity": 0.3937007874015748
          },
          {
            "duration": 0.0789472499999988,
            "durationTicks": 48,
            "midi": 42,
            "name": "F#2",
            "ticks": 44064,
            "time": 72.4735755,
            "velocity": 0.5433070866141733
          },
          {
            "duration": 0.0789472499999988,
            "durationTicks": 48,
            "midi": 44,
            "name": "G#2",
            "ticks": 44160,
            "time": 72.63147,
            "velocity": 0.3937007874015748
          },
          {
            "duration": 0.0789472499999988,
            "durationTicks": 48,
            "midi": 42,
            "name": "F#2",
            "ticks": 44208,
            "time": 72.71041724999999,
            "velocity": 0.5433070866141733
          },
          {
            "duration": 0.15789450000001182,
            "durationTicks": 96,
            "midi": 36,
            "name": "C2",
            "ticks": 44256,
            "time": 72.78936449999999,
            "velocity": 0.3937007874015748
          },
          {
            "duration": 0.07894725000001301,
            "durationTicks": 48,
            "midi": 42,
            "name": "F#2",
            "ticks": 44256,
            "time": 72.78936449999999,
            "velocity": 0.5433070866141733
          },
          {
            "duration": 0.15789450000001182,
            "durationTicks": 96,
            "midi": 35,
            "name": "B1",
            "ticks": 44256,
            "time": 72.78936449999999,
            "velocity": 0.3937007874015748
          },
          {
            "duration": 0.0789472499999988,
            "durationTicks": 48,
            "midi": 42,
            "name": "F#2",
            "ticks": 44352,
            "time": 72.947259,
            "velocity": 0.5433070866141733
          },
          {
            "duration": 0.1578944999999976,
            "durationTicks": 96,
            "midi": 40,
            "name": "E2",
            "ticks": 44352,
            "time": 72.947259,
            "velocity": 0.3937007874015748
          },
          {
            "duration": 0.0789472499999988,
            "durationTicks": 48,
            "midi": 42,
            "name": "F#2",
            "ticks": 44448,
            "time": 73.1051535,
            "velocity": 0.5433070866141733
          },
          {
            "duration": 0.1578944999999976,
            "durationTicks": 96,
            "midi": 35,
            "name": "B1",
            "ticks": 44544,
            "time": 73.263048,
            "velocity": 0.3937007874015748
          },
          {
            "duration": 0.1578944999999976,
            "durationTicks": 96,
            "midi": 36,
            "name": "C2",
            "ticks": 44544,
            "time": 73.263048,
            "velocity": 0.3937007874015748
          },
          {
            "duration": 0.0789472499999988,
            "durationTicks": 48,
            "midi": 42,
            "name": "F#2",
            "ticks": 44544,
            "time": 73.263048,
            "velocity": 0.5433070866141733
          },
          {
            "duration": 0.0789472499999988,
            "durationTicks": 48,
            "midi": 42,
            "name": "F#2",
            "ticks": 44640,
            "time": 73.4209425,
            "velocity": 0.5433070866141733
          },
          {
            "duration": 0.0789472499999988,
            "durationTicks": 48,
            "midi": 42,
            "name": "F#2",
            "ticks": 44736,
            "time": 73.578837,
            "velocity": 0.5433070866141733
          },
          {
            "duration": 0.1578944999999976,
            "durationTicks": 96,
            "midi": 40,
            "name": "E2",
            "ticks": 44736,
            "time": 73.578837,
            "velocity": 0.3937007874015748
          },
          {
            "duration": 0.15789450000001182,
            "durationTicks": 96,
            "midi": 36,
            "name": "C2",
            "ticks": 44832,
            "time": 73.73673149999999,
            "velocity": 0.3937007874015748
          },
          {
            "duration": 0.07894725000001301,
            "durationTicks": 48,
            "midi": 42,
            "name": "F#2",
            "ticks": 44832,
            "time": 73.73673149999999,
            "velocity": 0.5433070866141733
          },
          {
            "duration": 0.15789450000001182,
            "durationTicks": 96,
            "midi": 35,
            "name": "B1",
            "ticks": 44832,
            "time": 73.73673149999999,
            "velocity": 0.3937007874015748
          },
          {
            "duration": 0.0789472499999988,
            "durationTicks": 48,
            "midi": 44,
            "name": "G#2",
            "ticks": 44928,
            "time": 73.894626,
            "velocity": 0.3937007874015748
          },
          {
            "duration": 0.0789472499999988,
            "durationTicks": 48,
            "midi": 42,
            "name": "F#2",
            "ticks": 44976,
            "time": 73.97357325,
            "velocity": 0.5433070866141733
          },
          {
            "duration": 0.0789472499999988,
            "durationTicks": 48,
            "midi": 42,
            "name": "F#2",
            "ticks": 45024,
            "time": 74.0525205,
            "velocity": 0.5433070866141733
          },
          {
            "duration": 0.1578944999999976,
            "durationTicks": 96,
            "midi": 36,
            "name": "C2",
            "ticks": 45024,
            "time": 74.0525205,
            "velocity": 0.3937007874015748
          },
          {
            "duration": 0.1578944999999976,
            "durationTicks": 96,
            "midi": 35,
            "name": "B1",
            "ticks": 45024,
            "time": 74.0525205,
            "velocity": 0.3937007874015748
          },
          {
            "duration": 0.1578944999999976,
            "durationTicks": 96,
            "midi": 40,
            "name": "E2",
            "ticks": 45120,
            "time": 74.210415,
            "velocity": 0.3937007874015748
          },
          {
            "duration": 0.0789472499999988,
            "durationTicks": 48,
            "midi": 42,
            "name": "F#2",
            "ticks": 45120,
            "time": 74.210415,
            "velocity": 0.5433070866141733
          },
          {
            "duration": 0.0789472499999988,
            "durationTicks": 48,
            "midi": 42,
            "name": "F#2",
            "ticks": 45216,
            "time": 74.3683095,
            "velocity": 0.5433070866141733
          },
          {
            "duration": 0.1578944999999976,
            "durationTicks": 96,
            "midi": 35,
            "name": "B1",
            "ticks": 45312,
            "time": 74.52620399999999,
            "velocity": 0.3937007874015748
          },
          {
            "duration": 0.0789472499999988,
            "durationTicks": 48,
            "midi": 42,
            "name": "F#2",
            "ticks": 45312,
            "time": 74.52620399999999,
            "velocity": 0.5433070866141733
          },
          {
            "duration": 0.1578944999999976,
            "durationTicks": 96,
            "midi": 36,
            "name": "C2",
            "ticks": 45312,
            "time": 74.52620399999999,
            "velocity": 0.3937007874015748
          },
          {
            "duration": 0.07894725000001301,
            "durationTicks": 48,
            "midi": 40,
            "name": "E2",
            "ticks": 45408,
            "time": 74.68409849999999,
            "velocity": 0.3937007874015748
          },
          {
            "duration": 0.07894725000001301,
            "durationTicks": 48,
            "midi": 42,
            "name": "F#2",
            "ticks": 45408,
            "time": 74.68409849999999,
            "velocity": 0.5433070866141733
          },
          {
            "duration": 0.0789472499999988,
            "durationTicks": 48,
            "midi": 40,
            "name": "E2",
            "ticks": 45456,
            "time": 74.76304575,
            "velocity": 0.3937007874015748
          },
          {
            "duration": 0.0789472499999988,
            "durationTicks": 48,
            "midi": 42,
            "name": "F#2",
            "ticks": 45504,
            "time": 74.841993,
            "velocity": 0.5433070866141733
          },
          {
            "duration": 0.1578944999999976,
            "durationTicks": 96,
            "midi": 40,
            "name": "E2",
            "ticks": 45504,
            "time": 74.841993,
            "velocity": 0.3937007874015748
          },
          {
            "duration": 0.1578944999999976,
            "durationTicks": 96,
            "midi": 35,
            "name": "B1",
            "ticks": 45600,
            "time": 74.9998875,
            "velocity": 0.3937007874015748
          },
          {
            "duration": 0.0789472499999988,
            "durationTicks": 48,
            "midi": 42,
            "name": "F#2",
            "ticks": 45600,
            "time": 74.9998875,
            "velocity": 0.5433070866141733
          },
          {
            "duration": 0.1578944999999976,
            "durationTicks": 96,
            "midi": 36,
            "name": "C2",
            "ticks": 45600,
            "time": 74.9998875,
            "velocity": 0.3937007874015748
          },
          {
            "duration": 0.0789472499999988,
            "durationTicks": 48,
            "midi": 44,
            "name": "G#2",
            "ticks": 45696,
            "time": 75.157782,
            "velocity": 0.3937007874015748
          },
          {
            "duration": 0.1578944999999976,
            "durationTicks": 96,
            "midi": 40,
            "name": "E2",
            "ticks": 45696,
            "time": 75.157782,
            "velocity": 0.3937007874015748
          },
          {
            "duration": 0.0789472499999988,
            "durationTicks": 48,
            "midi": 42,
            "name": "F#2",
            "ticks": 45744,
            "time": 75.23672925,
            "velocity": 0.5433070866141733
          },
          {
            "duration": 0.1578944999999976,
            "durationTicks": 96,
            "midi": 36,
            "name": "C2",
            "ticks": 45792,
            "time": 75.3156765,
            "velocity": 0.3937007874015748
          },
          {
            "duration": 0.0789472499999988,
            "durationTicks": 48,
            "midi": 42,
            "name": "F#2",
            "ticks": 45792,
            "time": 75.3156765,
            "velocity": 0.5433070866141733
          },
          {
            "duration": 0.1578944999999976,
            "durationTicks": 96,
            "midi": 35,
            "name": "B1",
            "ticks": 45792,
            "time": 75.3156765,
            "velocity": 0.3937007874015748
          },
          {
            "duration": 0.0789472499999988,
            "durationTicks": 48,
            "midi": 42,
            "name": "F#2",
            "ticks": 45888,
            "time": 75.47357099999999,
            "velocity": 0.5433070866141733
          },
          {
            "duration": 0.1578944999999976,
            "durationTicks": 96,
            "midi": 40,
            "name": "E2",
            "ticks": 45888,
            "time": 75.47357099999999,
            "velocity": 0.3937007874015748
          },
          {
            "duration": 0.07894725000001301,
            "durationTicks": 48,
            "midi": 42,
            "name": "F#2",
            "ticks": 45984,
            "time": 75.63146549999999,
            "velocity": 0.5433070866141733
          },
          {
            "duration": 0.1578944999999976,
            "durationTicks": 96,
            "midi": 35,
            "name": "B1",
            "ticks": 46080,
            "time": 75.78936,
            "velocity": 0.3937007874015748
          },
          {
            "duration": 0.0789472499999988,
            "durationTicks": 48,
            "midi": 42,
            "name": "F#2",
            "ticks": 46080,
            "time": 75.78936,
            "velocity": 0.5433070866141733
          },
          {
            "duration": 0.1578944999999976,
            "durationTicks": 96,
            "midi": 36,
            "name": "C2",
            "ticks": 46080,
            "time": 75.78936,
            "velocity": 0.3937007874015748
          },
          {
            "duration": 0.0789472499999988,
            "durationTicks": 48,
            "midi": 42,
            "name": "F#2",
            "ticks": 46176,
            "time": 75.9472545,
            "velocity": 0.5433070866141733
          },
          {
            "duration": 0.0789472499999988,
            "durationTicks": 48,
            "midi": 42,
            "name": "F#2",
            "ticks": 46272,
            "time": 76.105149,
            "velocity": 0.5433070866141733
          },
          {
            "duration": 0.1578944999999976,
            "durationTicks": 96,
            "midi": 40,
            "name": "E2",
            "ticks": 46272,
            "time": 76.105149,
            "velocity": 0.3937007874015748
          },
          {
            "duration": 0.0789472499999988,
            "durationTicks": 48,
            "midi": 42,
            "name": "F#2",
            "ticks": 46368,
            "time": 76.2630435,
            "velocity": 0.5433070866141733
          },
          {
            "duration": 0.1578944999999976,
            "durationTicks": 96,
            "midi": 36,
            "name": "C2",
            "ticks": 46368,
            "time": 76.2630435,
            "velocity": 0.3937007874015748
          },
          {
            "duration": 0.1578944999999976,
            "durationTicks": 96,
            "midi": 35,
            "name": "B1",
            "ticks": 46368,
            "time": 76.2630435,
            "velocity": 0.3937007874015748
          },
          {
            "duration": 0.0789472499999988,
            "durationTicks": 48,
            "midi": 44,
            "name": "G#2",
            "ticks": 46464,
            "time": 76.42093799999999,
            "velocity": 0.3937007874015748
          },
          {
            "duration": 0.0789472499999988,
            "durationTicks": 48,
            "midi": 42,
            "name": "F#2",
            "ticks": 46512,
            "time": 76.49988524999999,
            "velocity": 0.5433070866141733
          },
          {
            "duration": 0.15789450000001182,
            "durationTicks": 96,
            "midi": 36,
            "name": "C2",
            "ticks": 46560,
            "time": 76.57883249999999,
            "velocity": 0.3937007874015748
          },
          {
            "duration": 0.15789450000001182,
            "durationTicks": 96,
            "midi": 35,
            "name": "B1",
            "ticks": 46560,
            "time": 76.57883249999999,
            "velocity": 0.3937007874015748
          },
          {
            "duration": 0.07894725000001301,
            "durationTicks": 48,
            "midi": 42,
            "name": "F#2",
            "ticks": 46560,
            "time": 76.57883249999999,
            "velocity": 0.5433070866141733
          },
          {
            "duration": 0.0789472499999988,
            "durationTicks": 48,
            "midi": 42,
            "name": "F#2",
            "ticks": 46656,
            "time": 76.736727,
            "velocity": 0.5433070866141733
          },
          {
            "duration": 0.1578944999999976,
            "durationTicks": 96,
            "midi": 40,
            "name": "E2",
            "ticks": 46656,
            "time": 76.736727,
            "velocity": 0.3937007874015748
          },
          {
            "duration": 0.0789472499999988,
            "durationTicks": 48,
            "midi": 42,
            "name": "F#2",
            "ticks": 46752,
            "time": 76.8946215,
            "velocity": 0.5433070866141733
          },
          {
            "duration": 0.0789472499999988,
            "durationTicks": 48,
            "midi": 42,
            "name": "F#2",
            "ticks": 46848,
            "time": 77.052516,
            "velocity": 0.5433070866141733
          },
          {
            "duration": 0.1578944999999976,
            "durationTicks": 96,
            "midi": 35,
            "name": "B1",
            "ticks": 46848,
            "time": 77.052516,
            "velocity": 0.3937007874015748
          },
          {
            "duration": 0.1578944999999976,
            "durationTicks": 96,
            "midi": 36,
            "name": "C2",
            "ticks": 46848,
            "time": 77.052516,
            "velocity": 0.3937007874015748
          },
          {
            "duration": 0.0789472499999988,
            "durationTicks": 48,
            "midi": 42,
            "name": "F#2",
            "ticks": 46944,
            "time": 77.2104105,
            "velocity": 0.5433070866141733
          },
          {
            "duration": 0.0789472499999988,
            "durationTicks": 48,
            "midi": 42,
            "name": "F#2",
            "ticks": 47040,
            "time": 77.36830499999999,
            "velocity": 0.5433070866141733
          },
          {
            "duration": 0.1578944999999976,
            "durationTicks": 96,
            "midi": 40,
            "name": "E2",
            "ticks": 47040,
            "time": 77.36830499999999,
            "velocity": 0.3937007874015748
          },
          {
            "duration": 0.15789450000001182,
            "durationTicks": 96,
            "midi": 35,
            "name": "B1",
            "ticks": 47136,
            "time": 77.52619949999999,
            "velocity": 0.3937007874015748
          },
          {
            "duration": 0.15789450000001182,
            "durationTicks": 96,
            "midi": 36,
            "name": "C2",
            "ticks": 47136,
            "time": 77.52619949999999,
            "velocity": 0.3937007874015748
          },
          {
            "duration": 0.07894725000001301,
            "durationTicks": 48,
            "midi": 42,
            "name": "F#2",
            "ticks": 47136,
            "time": 77.52619949999999,
            "velocity": 0.5433070866141733
          },
          {
            "duration": 0.0789472499999988,
            "durationTicks": 48,
            "midi": 44,
            "name": "G#2",
            "ticks": 47232,
            "time": 77.684094,
            "velocity": 0.3937007874015748
          },
          {
            "duration": 0.0789472499999988,
            "durationTicks": 48,
            "midi": 42,
            "name": "F#2",
            "ticks": 47280,
            "time": 77.76304125,
            "velocity": 0.5433070866141733
          },
          {
            "duration": 0.0789472499999988,
            "durationTicks": 48,
            "midi": 42,
            "name": "F#2",
            "ticks": 47328,
            "time": 77.8419885,
            "velocity": 0.5433070866141733
          },
          {
            "duration": 0.1578944999999976,
            "durationTicks": 96,
            "midi": 35,
            "name": "B1",
            "ticks": 47328,
            "time": 77.8419885,
            "velocity": 0.3937007874015748
          },
          {
            "duration": 0.1578944999999976,
            "durationTicks": 96,
            "midi": 36,
            "name": "C2",
            "ticks": 47328,
            "time": 77.8419885,
            "velocity": 0.3937007874015748
          },
          {
            "duration": 0.0789472499999988,
            "durationTicks": 48,
            "midi": 42,
            "name": "F#2",
            "ticks": 47424,
            "time": 77.999883,
            "velocity": 0.5433070866141733
          },
          {
            "duration": 0.1578944999999976,
            "durationTicks": 96,
            "midi": 40,
            "name": "E2",
            "ticks": 47424,
            "time": 77.999883,
            "velocity": 0.3937007874015748
          },
          {
            "duration": 0.0789472499999988,
            "durationTicks": 48,
            "midi": 42,
            "name": "F#2",
            "ticks": 47520,
            "time": 78.1577775,
            "velocity": 0.5433070866141733
          },
          {
            "duration": 0.0789472499999988,
            "durationTicks": 48,
            "midi": 42,
            "name": "F#2",
            "ticks": 47616,
            "time": 78.31567199999999,
            "velocity": 0.5433070866141733
          },
          {
            "duration": 0.1578944999999976,
            "durationTicks": 96,
            "midi": 36,
            "name": "C2",
            "ticks": 47616,
            "time": 78.31567199999999,
            "velocity": 0.3937007874015748
          },
          {
            "duration": 0.1578944999999976,
            "durationTicks": 96,
            "midi": 35,
            "name": "B1",
            "ticks": 47616,
            "time": 78.31567199999999,
            "velocity": 0.3937007874015748
          },
          {
            "duration": 0.07894725000001301,
            "durationTicks": 48,
            "midi": 42,
            "name": "F#2",
            "ticks": 47712,
            "time": 78.47356649999999,
            "velocity": 0.5433070866141733
          },
          {
            "duration": 0.0789472499999988,
            "durationTicks": 48,
            "midi": 42,
            "name": "F#2",
            "ticks": 47808,
            "time": 78.631461,
            "velocity": 0.5433070866141733
          },
          {
            "duration": 0.1578944999999976,
            "durationTicks": 96,
            "midi": 40,
            "name": "E2",
            "ticks": 47808,
            "time": 78.631461,
            "velocity": 0.3937007874015748
          },
          {
            "duration": 0.0789472499999988,
            "durationTicks": 48,
            "midi": 42,
            "name": "F#2",
            "ticks": 47904,
            "time": 78.7893555,
            "velocity": 0.5433070866141733
          },
          {
            "duration": 0.1578944999999976,
            "durationTicks": 96,
            "midi": 36,
            "name": "C2",
            "ticks": 47904,
            "time": 78.7893555,
            "velocity": 0.3937007874015748
          },
          {
            "duration": 0.1578944999999976,
            "durationTicks": 96,
            "midi": 35,
            "name": "B1",
            "ticks": 47904,
            "time": 78.7893555,
            "velocity": 0.3937007874015748
          },
          {
            "duration": 0.0789472499999988,
            "durationTicks": 48,
            "midi": 44,
            "name": "G#2",
            "ticks": 48000,
            "time": 78.94725,
            "velocity": 0.3937007874015748
          },
          {
            "duration": 0.0789472499999988,
            "durationTicks": 48,
            "midi": 42,
            "name": "F#2",
            "ticks": 48048,
            "time": 79.02619725,
            "velocity": 0.5433070866141733
          },
          {
            "duration": 0.0789472499999988,
            "durationTicks": 48,
            "midi": 42,
            "name": "F#2",
            "ticks": 48096,
            "time": 79.1051445,
            "velocity": 0.5433070866141733
          },
          {
            "duration": 0.1578944999999976,
            "durationTicks": 96,
            "midi": 35,
            "name": "B1",
            "ticks": 48096,
            "time": 79.1051445,
            "velocity": 0.3937007874015748
          },
          {
            "duration": 0.1578944999999976,
            "durationTicks": 96,
            "midi": 36,
            "name": "C2",
            "ticks": 48096,
            "time": 79.1051445,
            "velocity": 0.3937007874015748
          },
          {
            "duration": 0.0789472499999988,
            "durationTicks": 48,
            "midi": 42,
            "name": "F#2",
            "ticks": 48192,
            "time": 79.26303899999999,
            "velocity": 0.5433070866141733
          },
          {
            "duration": 0.1578944999999976,
            "durationTicks": 96,
            "midi": 40,
            "name": "E2",
            "ticks": 48192,
            "time": 79.26303899999999,
            "velocity": 0.3937007874015748
          },
          {
            "duration": 0.07894725000001301,
            "durationTicks": 48,
            "midi": 42,
            "name": "F#2",
            "ticks": 48288,
            "time": 79.42093349999999,
            "velocity": 0.5433070866141733
          },
          {
            "duration": 0.0789472499999988,
            "durationTicks": 48,
            "midi": 42,
            "name": "F#2",
            "ticks": 48384,
            "time": 79.578828,
            "velocity": 0.5433070866141733
          },
          {
            "duration": 0.1578944999999976,
            "durationTicks": 96,
            "midi": 36,
            "name": "C2",
            "ticks": 48384,
            "time": 79.578828,
            "velocity": 0.3937007874015748
          },
          {
            "duration": 0.1578944999999976,
            "durationTicks": 96,
            "midi": 35,
            "name": "B1",
            "ticks": 48384,
            "time": 79.578828,
            "velocity": 0.3937007874015748
          },
          {
            "duration": 0.0789472499999988,
            "durationTicks": 48,
            "midi": 42,
            "name": "F#2",
            "ticks": 48480,
            "time": 79.7367225,
            "velocity": 0.5433070866141733
          },
          {
            "duration": 0.0789472499999988,
            "durationTicks": 48,
            "midi": 42,
            "name": "F#2",
            "ticks": 48576,
            "time": 79.894617,
            "velocity": 0.5433070866141733
          },
          {
            "duration": 0.1578944999999976,
            "durationTicks": 96,
            "midi": 40,
            "name": "E2",
            "ticks": 48576,
            "time": 79.894617,
            "velocity": 0.3937007874015748
          },
          {
            "duration": 0.0789472499999988,
            "durationTicks": 48,
            "midi": 42,
            "name": "F#2",
            "ticks": 48672,
            "time": 80.0525115,
            "velocity": 0.5433070866141733
          },
          {
            "duration": 0.1578944999999976,
            "durationTicks": 96,
            "midi": 36,
            "name": "C2",
            "ticks": 48672,
            "time": 80.0525115,
            "velocity": 0.3937007874015748
          },
          {
            "duration": 0.1578944999999976,
            "durationTicks": 96,
            "midi": 35,
            "name": "B1",
            "ticks": 48672,
            "time": 80.0525115,
            "velocity": 0.3937007874015748
          },
          {
            "duration": 0.0789472499999988,
            "durationTicks": 48,
            "midi": 44,
            "name": "G#2",
            "ticks": 48768,
            "time": 80.21040599999999,
            "velocity": 0.3937007874015748
          },
          {
            "duration": 0.0789472499999988,
            "durationTicks": 48,
            "midi": 42,
            "name": "F#2",
            "ticks": 48816,
            "time": 80.28935324999999,
            "velocity": 0.5433070866141733
          },
          {
            "duration": 0.15789450000001182,
            "durationTicks": 96,
            "midi": 36,
            "name": "C2",
            "ticks": 48864,
            "time": 80.36830049999999,
            "velocity": 0.3937007874015748
          },
          {
            "duration": 0.15789450000001182,
            "durationTicks": 96,
            "midi": 35,
            "name": "B1",
            "ticks": 48864,
            "time": 80.36830049999999,
            "velocity": 0.3937007874015748
          },
          {
            "duration": 0.07894725000001301,
            "durationTicks": 48,
            "midi": 42,
            "name": "F#2",
            "ticks": 48864,
            "time": 80.36830049999999,
            "velocity": 0.5433070866141733
          },
          {
            "duration": 0.1578944999999976,
            "durationTicks": 96,
            "midi": 40,
            "name": "E2",
            "ticks": 48960,
            "time": 80.526195,
            "velocity": 0.3937007874015748
          },
          {
            "duration": 0.0789472499999988,
            "durationTicks": 48,
            "midi": 42,
            "name": "F#2",
            "ticks": 48960,
            "time": 80.526195,
            "velocity": 0.5433070866141733
          },
          {
            "duration": 0.0789472499999988,
            "durationTicks": 48,
            "midi": 42,
            "name": "F#2",
            "ticks": 49056,
            "time": 80.6840895,
            "velocity": 0.5433070866141733
          },
          {
            "duration": 0.0789472499999988,
            "durationTicks": 48,
            "midi": 42,
            "name": "F#2",
            "ticks": 49152,
            "time": 80.841984,
            "velocity": 0.5433070866141733
          },
          {
            "duration": 0.1578944999999976,
            "durationTicks": 96,
            "midi": 35,
            "name": "B1",
            "ticks": 49152,
            "time": 80.841984,
            "velocity": 0.3937007874015748
          },
          {
            "duration": 0.1578944999999976,
            "durationTicks": 96,
            "midi": 36,
            "name": "C2",
            "ticks": 49152,
            "time": 80.841984,
            "velocity": 0.3937007874015748
          },
          {
            "duration": 0.0789472499999988,
            "durationTicks": 48,
            "midi": 42,
            "name": "F#2",
            "ticks": 49248,
            "time": 80.9998785,
            "velocity": 0.5433070866141733
          },
          {
            "duration": 0.0789472499999988,
            "durationTicks": 48,
            "midi": 42,
            "name": "F#2",
            "ticks": 49344,
            "time": 81.15777299999999,
            "velocity": 0.5433070866141733
          },
          {
            "duration": 0.15789450000001182,
            "durationTicks": 96,
            "midi": 40,
            "name": "E2",
            "ticks": 49344,
            "time": 81.15777299999999,
            "velocity": 0.3937007874015748
          },
          {
            "duration": 0.1578944999999976,
            "durationTicks": 96,
            "midi": 36,
            "name": "C2",
            "ticks": 49440,
            "time": 81.3156675,
            "velocity": 0.3937007874015748
          },
          {
            "duration": 0.0789472499999988,
            "durationTicks": 48,
            "midi": 42,
            "name": "F#2",
            "ticks": 49440,
            "time": 81.3156675,
            "velocity": 0.5433070866141733
          },
          {
            "duration": 0.1578944999999976,
            "durationTicks": 96,
            "midi": 35,
            "name": "B1",
            "ticks": 49440,
            "time": 81.3156675,
            "velocity": 0.3937007874015748
          },
          {
            "duration": 0.0789472499999988,
            "durationTicks": 48,
            "midi": 44,
            "name": "G#2",
            "ticks": 49536,
            "time": 81.473562,
            "velocity": 0.3937007874015748
          },
          {
            "duration": 0.0789472499999988,
            "durationTicks": 48,
            "midi": 42,
            "name": "F#2",
            "ticks": 49584,
            "time": 81.55250925,
            "velocity": 0.5433070866141733
          },
          {
            "duration": 0.0789472499999988,
            "durationTicks": 48,
            "midi": 42,
            "name": "F#2",
            "ticks": 49632,
            "time": 81.6314565,
            "velocity": 0.5433070866141733
          },
          {
            "duration": 0.1578944999999976,
            "durationTicks": 96,
            "midi": 36,
            "name": "C2",
            "ticks": 49632,
            "time": 81.6314565,
            "velocity": 0.3937007874015748
          },
          {
            "duration": 0.1578944999999976,
            "durationTicks": 96,
            "midi": 35,
            "name": "B1",
            "ticks": 49632,
            "time": 81.6314565,
            "velocity": 0.3937007874015748
          },
          {
            "duration": 0.1578944999999976,
            "durationTicks": 96,
            "midi": 40,
            "name": "E2",
            "ticks": 49728,
            "time": 81.789351,
            "velocity": 0.3937007874015748
          },
          {
            "duration": 0.0789472499999988,
            "durationTicks": 48,
            "midi": 42,
            "name": "F#2",
            "ticks": 49728,
            "time": 81.789351,
            "velocity": 0.5433070866141733
          },
          {
            "duration": 0.0789472499999988,
            "durationTicks": 48,
            "midi": 42,
            "name": "F#2",
            "ticks": 49824,
            "time": 81.9472455,
            "velocity": 0.5433070866141733
          },
          {
            "duration": 0.0789472499999988,
            "durationTicks": 48,
            "midi": 42,
            "name": "F#2",
            "ticks": 49920,
            "time": 82.10513999999999,
            "velocity": 0.5433070866141733
          },
          {
            "duration": 0.15789450000001182,
            "durationTicks": 96,
            "midi": 36,
            "name": "C2",
            "ticks": 49920,
            "time": 82.10513999999999,
            "velocity": 0.3937007874015748
          },
          {
            "duration": 0.15789450000001182,
            "durationTicks": 96,
            "midi": 35,
            "name": "B1",
            "ticks": 49920,
            "time": 82.10513999999999,
            "velocity": 0.3937007874015748
          },
          {
            "duration": 0.0789472499999988,
            "durationTicks": 48,
            "midi": 42,
            "name": "F#2",
            "ticks": 50016,
            "time": 82.2630345,
            "velocity": 0.5433070866141733
          },
          {
            "duration": 0.1578944999999976,
            "durationTicks": 96,
            "midi": 40,
            "name": "E2",
            "ticks": 50112,
            "time": 82.420929,
            "velocity": 0.3937007874015748
          },
          {
            "duration": 0.0789472499999988,
            "durationTicks": 48,
            "midi": 42,
            "name": "F#2",
            "ticks": 50112,
            "time": 82.420929,
            "velocity": 0.5433070866141733
          },
          {
            "duration": 0.1578944999999976,
            "durationTicks": 96,
            "midi": 36,
            "name": "C2",
            "ticks": 50208,
            "time": 82.5788235,
            "velocity": 0.3937007874015748
          },
          {
            "duration": 0.1578944999999976,
            "durationTicks": 96,
            "midi": 35,
            "name": "B1",
            "ticks": 50208,
            "time": 82.5788235,
            "velocity": 0.3937007874015748
          },
          {
            "duration": 0.0789472499999988,
            "durationTicks": 48,
            "midi": 42,
            "name": "F#2",
            "ticks": 50208,
            "time": 82.5788235,
            "velocity": 0.5433070866141733
          },
          {
            "duration": 0.0789472499999988,
            "durationTicks": 48,
            "midi": 44,
            "name": "G#2",
            "ticks": 50304,
            "time": 82.736718,
            "velocity": 0.3937007874015748
          },
          {
            "duration": 0.0789472499999988,
            "durationTicks": 48,
            "midi": 42,
            "name": "F#2",
            "ticks": 50352,
            "time": 82.81566525,
            "velocity": 0.5433070866141733
          },
          {
            "duration": 0.1578944999999976,
            "durationTicks": 96,
            "midi": 35,
            "name": "B1",
            "ticks": 50400,
            "time": 82.8946125,
            "velocity": 0.3937007874015748
          },
          {
            "duration": 0.1578944999999976,
            "durationTicks": 96,
            "midi": 36,
            "name": "C2",
            "ticks": 50400,
            "time": 82.8946125,
            "velocity": 0.3937007874015748
          },
          {
            "duration": 0.0789472499999988,
            "durationTicks": 48,
            "midi": 42,
            "name": "F#2",
            "ticks": 50400,
            "time": 82.8946125,
            "velocity": 0.5433070866141733
          },
          {
            "duration": 0.0789472499999988,
            "durationTicks": 48,
            "midi": 42,
            "name": "F#2",
            "ticks": 50496,
            "time": 83.05250699999999,
            "velocity": 0.5433070866141733
          },
          {
            "duration": 0.15789450000001182,
            "durationTicks": 96,
            "midi": 40,
            "name": "E2",
            "ticks": 50496,
            "time": 83.05250699999999,
            "velocity": 0.3937007874015748
          },
          {
            "duration": 0.0789472499999988,
            "durationTicks": 48,
            "midi": 42,
            "name": "F#2",
            "ticks": 50592,
            "time": 83.2104015,
            "velocity": 0.5433070866141733
          },
          {
            "duration": 0.1578944999999976,
            "durationTicks": 96,
            "midi": 35,
            "name": "B1",
            "ticks": 50688,
            "time": 83.368296,
            "velocity": 0.3937007874015748
          },
          {
            "duration": 0.1578944999999976,
            "durationTicks": 96,
            "midi": 36,
            "name": "C2",
            "ticks": 50688,
            "time": 83.368296,
            "velocity": 0.3937007874015748
          },
          {
            "duration": 0.0789472499999988,
            "durationTicks": 48,
            "midi": 42,
            "name": "F#2",
            "ticks": 50688,
            "time": 83.368296,
            "velocity": 0.5433070866141733
          },
          {
            "duration": 0.0789472499999988,
            "durationTicks": 48,
            "midi": 42,
            "name": "F#2",
            "ticks": 50784,
            "time": 83.5261905,
            "velocity": 0.5433070866141733
          },
          {
            "duration": 0.1578944999999976,
            "durationTicks": 96,
            "midi": 40,
            "name": "E2",
            "ticks": 50880,
            "time": 83.684085,
            "velocity": 0.3937007874015748
          },
          {
            "duration": 0.0789472499999988,
            "durationTicks": 48,
            "midi": 42,
            "name": "F#2",
            "ticks": 50880,
            "time": 83.684085,
            "velocity": 0.5433070866141733
          },
          {
            "duration": 0.1578944999999976,
            "durationTicks": 96,
            "midi": 35,
            "name": "B1",
            "ticks": 50976,
            "time": 83.8419795,
            "velocity": 0.3937007874015748
          },
          {
            "duration": 0.0789472499999988,
            "durationTicks": 48,
            "midi": 42,
            "name": "F#2",
            "ticks": 50976,
            "time": 83.8419795,
            "velocity": 0.5433070866141733
          },
          {
            "duration": 0.1578944999999976,
            "durationTicks": 96,
            "midi": 36,
            "name": "C2",
            "ticks": 50976,
            "time": 83.8419795,
            "velocity": 0.3937007874015748
          },
          {
            "duration": 0.0789472499999988,
            "durationTicks": 48,
            "midi": 44,
            "name": "G#2",
            "ticks": 51072,
            "time": 83.99987399999999,
            "velocity": 0.3937007874015748
          },
          {
            "duration": 0.07894725000001301,
            "durationTicks": 48,
            "midi": 42,
            "name": "F#2",
            "ticks": 51120,
            "time": 84.07882124999999,
            "velocity": 0.5433070866141733
          },
          {
            "duration": 0.0789472499999988,
            "durationTicks": 48,
            "midi": 42,
            "name": "F#2",
            "ticks": 51168,
            "time": 84.1577685,
            "velocity": 0.5433070866141733
          },
          {
            "duration": 0.1578944999999976,
            "durationTicks": 96,
            "midi": 35,
            "name": "B1",
            "ticks": 51168,
            "time": 84.1577685,
            "velocity": 0.3937007874015748
          },
          {
            "duration": 0.1578944999999976,
            "durationTicks": 96,
            "midi": 36,
            "name": "C2",
            "ticks": 51168,
            "time": 84.1577685,
            "velocity": 0.3937007874015748
          },
          {
            "duration": 0.1578944999999976,
            "durationTicks": 96,
            "midi": 40,
            "name": "E2",
            "ticks": 51264,
            "time": 84.315663,
            "velocity": 0.3937007874015748
          },
          {
            "duration": 0.0789472499999988,
            "durationTicks": 48,
            "midi": 42,
            "name": "F#2",
            "ticks": 51264,
            "time": 84.315663,
            "velocity": 0.5433070866141733
          },
          {
            "duration": 0.0789472499999988,
            "durationTicks": 48,
            "midi": 42,
            "name": "F#2",
            "ticks": 51360,
            "time": 84.4735575,
            "velocity": 0.5433070866141733
          },
          {
            "duration": 0.1578944999999976,
            "durationTicks": 96,
            "midi": 36,
            "name": "C2",
            "ticks": 51456,
            "time": 84.631452,
            "velocity": 0.3937007874015748
          },
          {
            "duration": 0.1578944999999976,
            "durationTicks": 96,
            "midi": 35,
            "name": "B1",
            "ticks": 51456,
            "time": 84.631452,
            "velocity": 0.3937007874015748
          },
          {
            "duration": 0.0789472499999988,
            "durationTicks": 48,
            "midi": 42,
            "name": "F#2",
            "ticks": 51456,
            "time": 84.631452,
            "velocity": 0.5433070866141733
          },
          {
            "duration": 0.0789472499999988,
            "durationTicks": 48,
            "midi": 40,
            "name": "E2",
            "ticks": 51552,
            "time": 84.7893465,
            "velocity": 0.3937007874015748
          },
          {
            "duration": 0.0789472499999988,
            "durationTicks": 48,
            "midi": 42,
            "name": "F#2",
            "ticks": 51552,
            "time": 84.7893465,
            "velocity": 0.5433070866141733
          },
          {
            "duration": 0.0789472499999988,
            "durationTicks": 48,
            "midi": 40,
            "name": "E2",
            "ticks": 51600,
            "time": 84.86829374999999,
            "velocity": 0.3937007874015748
          },
          {
            "duration": 0.15789450000001182,
            "durationTicks": 96,
            "midi": 40,
            "name": "E2",
            "ticks": 51648,
            "time": 84.94724099999999,
            "velocity": 0.3937007874015748
          },
          {
            "duration": 0.0789472499999988,
            "durationTicks": 48,
            "midi": 42,
            "name": "F#2",
            "ticks": 51648,
            "time": 84.94724099999999,
            "velocity": 0.5433070866141733
          },
          {
            "duration": 0.0789472499999988,
            "durationTicks": 48,
            "midi": 42,
            "name": "F#2",
            "ticks": 51744,
            "time": 85.1051355,
            "velocity": 0.5433070866141733
          },
          {
            "duration": 0.1578944999999976,
            "durationTicks": 96,
            "midi": 35,
            "name": "B1",
            "ticks": 51744,
            "time": 85.1051355,
            "velocity": 0.3937007874015748
          },
          {
            "duration": 0.1578944999999976,
            "durationTicks": 96,
            "midi": 36,
            "name": "C2",
            "ticks": 51744,
            "time": 85.1051355,
            "velocity": 0.3937007874015748
          },
          {
            "duration": 0.0789472499999988,
            "durationTicks": 48,
            "midi": 44,
            "name": "G#2",
            "ticks": 51840,
            "time": 85.26303,
            "velocity": 0.3937007874015748
          },
          {
            "duration": 0.1578944999999976,
            "durationTicks": 96,
            "midi": 40,
            "name": "E2",
            "ticks": 51840,
            "time": 85.26303,
            "velocity": 0.3937007874015748
          },
          {
            "duration": 0.0789472499999988,
            "durationTicks": 48,
            "midi": 44,
            "name": "G#2",
            "ticks": 51840,
            "time": 85.26303,
            "velocity": 0.3937007874015748
          },
          {
            "duration": 0.0789472499999988,
            "durationTicks": 48,
            "midi": 42,
            "name": "F#2",
            "ticks": 51888,
            "time": 85.34197725,
            "velocity": 0.5433070866141733
          },
          {
            "duration": 0.0789472499999988,
            "durationTicks": 48,
            "midi": 42,
            "name": "F#2",
            "ticks": 51936,
            "time": 85.4209245,
            "velocity": 0.5433070866141733
          },
          {
            "duration": 0.1578944999999976,
            "durationTicks": 96,
            "midi": 35,
            "name": "B1",
            "ticks": 51936,
            "time": 85.4209245,
            "velocity": 0.3937007874015748
          },
          {
            "duration": 0.1578944999999976,
            "durationTicks": 96,
            "midi": 36,
            "name": "C2",
            "ticks": 51936,
            "time": 85.4209245,
            "velocity": 0.3937007874015748
          },
          {
            "duration": 0.1578944999999976,
            "durationTicks": 96,
            "midi": 40,
            "name": "E2",
            "ticks": 52032,
            "time": 85.578819,
            "velocity": 0.3937007874015748
          },
          {
            "duration": 0.0789472499999988,
            "durationTicks": 48,
            "midi": 42,
            "name": "F#2",
            "ticks": 52032,
            "time": 85.578819,
            "velocity": 0.5433070866141733
          },
          {
            "duration": 0.0789472499999988,
            "durationTicks": 48,
            "midi": 42,
            "name": "F#2",
            "ticks": 52128,
            "time": 85.7367135,
            "velocity": 0.5433070866141733
          },
          {
            "duration": 0.1578944999999976,
            "durationTicks": 96,
            "midi": 36,
            "name": "C2",
            "ticks": 101376,
            "time": 166.736592,
            "velocity": 0.3937007874015748
          },
          {
            "duration": 0.1578944999999976,
            "durationTicks": 96,
            "midi": 35,
            "name": "B1",
            "ticks": 101376,
            "time": 166.736592,
            "velocity": 0.3937007874015748
          },
          {
            "duration": 0.0789472499999988,
            "durationTicks": 48,
            "midi": 42,
            "name": "F#2",
            "ticks": 101472,
            "time": 166.8944865,
            "velocity": 0.5433070866141733
          },
          {
            "duration": 0.0789472499999988,
            "durationTicks": 48,
            "midi": 42,
            "name": "F#2",
            "ticks": 101568,
            "time": 167.052381,
            "velocity": 0.5433070866141733
          },
          {
            "duration": 0.1578944999999976,
            "durationTicks": 96,
            "midi": 40,
            "name": "E2",
            "ticks": 101568,
            "time": 167.052381,
            "velocity": 0.3937007874015748
          },
          {
            "duration": 0.1578944999999976,
            "durationTicks": 96,
            "midi": 35,
            "name": "B1",
            "ticks": 101664,
            "time": 167.2102755,
            "velocity": 0.3937007874015748
          },
          {
            "duration": 0.1578944999999976,
            "durationTicks": 96,
            "midi": 36,
            "name": "C2",
            "ticks": 101664,
            "time": 167.2102755,
            "velocity": 0.3937007874015748
          },
          {
            "duration": 0.0789472499999988,
            "durationTicks": 48,
            "midi": 42,
            "name": "F#2",
            "ticks": 101664,
            "time": 167.2102755,
            "velocity": 0.5433070866141733
          },
          {
            "duration": 0.0789472499999988,
            "durationTicks": 48,
            "midi": 44,
            "name": "G#2",
            "ticks": 101760,
            "time": 167.36817,
            "velocity": 0.3937007874015748
          },
          {
            "duration": 0.0789472499999988,
            "durationTicks": 48,
            "midi": 42,
            "name": "F#2",
            "ticks": 101808,
            "time": 167.44711725,
            "velocity": 0.5433070866141733
          },
          {
            "duration": 0.1578944999999976,
            "durationTicks": 96,
            "midi": 36,
            "name": "C2",
            "ticks": 101856,
            "time": 167.5260645,
            "velocity": 0.3937007874015748
          },
          {
            "duration": 0.0789472499999988,
            "durationTicks": 48,
            "midi": 42,
            "name": "F#2",
            "ticks": 101856,
            "time": 167.5260645,
            "velocity": 0.5433070866141733
          },
          {
            "duration": 0.1578944999999976,
            "durationTicks": 96,
            "midi": 35,
            "name": "B1",
            "ticks": 101856,
            "time": 167.5260645,
            "velocity": 0.3937007874015748
          },
          {
            "duration": 0.1578944999999976,
            "durationTicks": 96,
            "midi": 40,
            "name": "E2",
            "ticks": 101952,
            "time": 167.683959,
            "velocity": 0.3937007874015748
          },
          {
            "duration": 0.0789472499999988,
            "durationTicks": 48,
            "midi": 42,
            "name": "F#2",
            "ticks": 101952,
            "time": 167.683959,
            "velocity": 0.5433070866141733
          },
          {
            "duration": 0.0789472499999988,
            "durationTicks": 48,
            "midi": 42,
            "name": "F#2",
            "ticks": 102048,
            "time": 167.84185349999998,
            "velocity": 0.5433070866141733
          },
          {
            "duration": 0.0789472499999988,
            "durationTicks": 48,
            "midi": 42,
            "name": "F#2",
            "ticks": 102144,
            "time": 167.99974799999998,
            "velocity": 0.5433070866141733
          },
          {
            "duration": 0.1578944999999976,
            "durationTicks": 96,
            "midi": 36,
            "name": "C2",
            "ticks": 102144,
            "time": 167.99974799999998,
            "velocity": 0.3937007874015748
          },
          {
            "duration": 0.1578944999999976,
            "durationTicks": 96,
            "midi": 35,
            "name": "B1",
            "ticks": 102144,
            "time": 167.99974799999998,
            "velocity": 0.3937007874015748
          },
          {
            "duration": 0.0789472499999988,
            "durationTicks": 48,
            "midi": 42,
            "name": "F#2",
            "ticks": 102240,
            "time": 168.15764249999998,
            "velocity": 0.5433070866141733
          },
          {
            "duration": 0.1578944999999976,
            "durationTicks": 96,
            "midi": 40,
            "name": "E2",
            "ticks": 102336,
            "time": 168.315537,
            "velocity": 0.3937007874015748
          },
          {
            "duration": 0.0789472499999988,
            "durationTicks": 48,
            "midi": 42,
            "name": "F#2",
            "ticks": 102336,
            "time": 168.315537,
            "velocity": 0.5433070866141733
          },
          {
            "duration": 0.1578944999999976,
            "durationTicks": 96,
            "midi": 36,
            "name": "C2",
            "ticks": 102432,
            "time": 168.4734315,
            "velocity": 0.3937007874015748
          },
          {
            "duration": 0.0789472499999988,
            "durationTicks": 48,
            "midi": 42,
            "name": "F#2",
            "ticks": 102432,
            "time": 168.4734315,
            "velocity": 0.5433070866141733
          },
          {
            "duration": 0.1578944999999976,
            "durationTicks": 96,
            "midi": 35,
            "name": "B1",
            "ticks": 102432,
            "time": 168.4734315,
            "velocity": 0.3937007874015748
          },
          {
            "duration": 0.0789472499999988,
            "durationTicks": 48,
            "midi": 44,
            "name": "G#2",
            "ticks": 102528,
            "time": 168.631326,
            "velocity": 0.3937007874015748
          },
          {
            "duration": 0.0789472499999988,
            "durationTicks": 48,
            "midi": 42,
            "name": "F#2",
            "ticks": 102576,
            "time": 168.71027325,
            "velocity": 0.5433070866141733
          },
          {
            "duration": 0.1578944999999976,
            "durationTicks": 96,
            "midi": 35,
            "name": "B1",
            "ticks": 102624,
            "time": 168.7892205,
            "velocity": 0.3937007874015748
          },
          {
            "duration": 0.1578944999999976,
            "durationTicks": 96,
            "midi": 36,
            "name": "C2",
            "ticks": 102624,
            "time": 168.7892205,
            "velocity": 0.3937007874015748
          },
          {
            "duration": 0.0789472499999988,
            "durationTicks": 48,
            "midi": 42,
            "name": "F#2",
            "ticks": 102624,
            "time": 168.7892205,
            "velocity": 0.5433070866141733
          },
          {
            "duration": 0.1578944999999976,
            "durationTicks": 96,
            "midi": 40,
            "name": "E2",
            "ticks": 102720,
            "time": 168.947115,
            "velocity": 0.3937007874015748
          },
          {
            "duration": 0.0789472499999988,
            "durationTicks": 48,
            "midi": 42,
            "name": "F#2",
            "ticks": 102720,
            "time": 168.947115,
            "velocity": 0.5433070866141733
          },
          {
            "duration": 0.0789472499999988,
            "durationTicks": 48,
            "midi": 42,
            "name": "F#2",
            "ticks": 102816,
            "time": 169.1050095,
            "velocity": 0.5433070866141733
          },
          {
            "duration": 0.1578944999999976,
            "durationTicks": 96,
            "midi": 36,
            "name": "C2",
            "ticks": 102912,
            "time": 169.262904,
            "velocity": 0.3937007874015748
          },
          {
            "duration": 0.1578944999999976,
            "durationTicks": 96,
            "midi": 35,
            "name": "B1",
            "ticks": 102912,
            "time": 169.262904,
            "velocity": 0.3937007874015748
          },
          {
            "duration": 0.0789472499999988,
            "durationTicks": 48,
            "midi": 42,
            "name": "F#2",
            "ticks": 102912,
            "time": 169.262904,
            "velocity": 0.5433070866141733
          },
          {
            "duration": 0.0789472499999988,
            "durationTicks": 48,
            "midi": 42,
            "name": "F#2",
            "ticks": 103008,
            "time": 169.4207985,
            "velocity": 0.5433070866141733
          },
          {
            "duration": 0.0789472499999988,
            "durationTicks": 48,
            "midi": 42,
            "name": "F#2",
            "ticks": 103104,
            "time": 169.578693,
            "velocity": 0.5433070866141733
          },
          {
            "duration": 0.1578944999999976,
            "durationTicks": 96,
            "midi": 40,
            "name": "E2",
            "ticks": 103104,
            "time": 169.578693,
            "velocity": 0.3937007874015748
          },
          {
            "duration": 0.0789472499999988,
            "durationTicks": 48,
            "midi": 42,
            "name": "F#2",
            "ticks": 103200,
            "time": 169.73658749999998,
            "velocity": 0.5433070866141733
          },
          {
            "duration": 0.1578944999999976,
            "durationTicks": 96,
            "midi": 35,
            "name": "B1",
            "ticks": 103200,
            "time": 169.73658749999998,
            "velocity": 0.3937007874015748
          },
          {
            "duration": 0.1578944999999976,
            "durationTicks": 96,
            "midi": 36,
            "name": "C2",
            "ticks": 103200,
            "time": 169.73658749999998,
            "velocity": 0.3937007874015748
          },
          {
            "duration": 0.0789472499999988,
            "durationTicks": 48,
            "midi": 44,
            "name": "G#2",
            "ticks": 103296,
            "time": 169.89448199999998,
            "velocity": 0.3937007874015748
          },
          {
            "duration": 0.0789472499999988,
            "durationTicks": 48,
            "midi": 42,
            "name": "F#2",
            "ticks": 103344,
            "time": 169.97342924999998,
            "velocity": 0.5433070866141733
          },
          {
            "duration": 0.15789450000002603,
            "durationTicks": 96,
            "midi": 35,
            "name": "B1",
            "ticks": 103392,
            "time": 170.05237649999998,
            "velocity": 0.3937007874015748
          },
          {
            "duration": 0.0789472499999988,
            "durationTicks": 48,
            "midi": 42,
            "name": "F#2",
            "ticks": 103392,
            "time": 170.05237649999998,
            "velocity": 0.5433070866141733
          },
          {
            "duration": 0.15789450000002603,
            "durationTicks": 96,
            "midi": 36,
            "name": "C2",
            "ticks": 103392,
            "time": 170.05237649999998,
            "velocity": 0.3937007874015748
          },
          {
            "duration": 0.0789472499999988,
            "durationTicks": 48,
            "midi": 42,
            "name": "F#2",
            "ticks": 103488,
            "time": 170.210271,
            "velocity": 0.5433070866141733
          },
          {
            "duration": 0.1578944999999976,
            "durationTicks": 96,
            "midi": 40,
            "name": "E2",
            "ticks": 103488,
            "time": 170.210271,
            "velocity": 0.3937007874015748
          },
          {
            "duration": 0.0789472499999988,
            "durationTicks": 48,
            "midi": 42,
            "name": "F#2",
            "ticks": 103584,
            "time": 170.3681655,
            "velocity": 0.5433070866141733
          },
          {
            "duration": 0.1578944999999976,
            "durationTicks": 96,
            "midi": 36,
            "name": "C2",
            "ticks": 103680,
            "time": 170.52606,
            "velocity": 0.3937007874015748
          },
          {
            "duration": 0.1578944999999976,
            "durationTicks": 96,
            "midi": 35,
            "name": "B1",
            "ticks": 103680,
            "time": 170.52606,
            "velocity": 0.3937007874015748
          },
          {
            "duration": 0.0789472499999988,
            "durationTicks": 48,
            "midi": 42,
            "name": "F#2",
            "ticks": 103680,
            "time": 170.52606,
            "velocity": 0.5433070866141733
          },
          {
            "duration": 0.0789472499999988,
            "durationTicks": 48,
            "midi": 42,
            "name": "F#2",
            "ticks": 103776,
            "time": 170.6839545,
            "velocity": 0.5433070866141733
          },
          {
            "duration": 0.0789472499999988,
            "durationTicks": 48,
            "midi": 42,
            "name": "F#2",
            "ticks": 103872,
            "time": 170.841849,
            "velocity": 0.5433070866141733
          },
          {
            "duration": 0.1578944999999976,
            "durationTicks": 96,
            "midi": 40,
            "name": "E2",
            "ticks": 103872,
            "time": 170.841849,
            "velocity": 0.3937007874015748
          },
          {
            "duration": 0.1578944999999976,
            "durationTicks": 96,
            "midi": 36,
            "name": "C2",
            "ticks": 103968,
            "time": 170.9997435,
            "velocity": 0.3937007874015748
          },
          {
            "duration": 0.1578944999999976,
            "durationTicks": 96,
            "midi": 35,
            "name": "B1",
            "ticks": 103968,
            "time": 170.9997435,
            "velocity": 0.3937007874015748
          },
          {
            "duration": 0.0789472499999988,
            "durationTicks": 48,
            "midi": 42,
            "name": "F#2",
            "ticks": 103968,
            "time": 170.9997435,
            "velocity": 0.5433070866141733
          },
          {
            "duration": 0.0789472499999988,
            "durationTicks": 48,
            "midi": 44,
            "name": "G#2",
            "ticks": 104064,
            "time": 171.157638,
            "velocity": 0.3937007874015748
          },
          {
            "duration": 0.0789472499999988,
            "durationTicks": 48,
            "midi": 42,
            "name": "F#2",
            "ticks": 104112,
            "time": 171.23658525,
            "velocity": 0.5433070866141733
          },
          {
            "duration": 0.1578944999999976,
            "durationTicks": 96,
            "midi": 36,
            "name": "C2",
            "ticks": 104160,
            "time": 171.3155325,
            "velocity": 0.3937007874015748
          },
          {
            "duration": 0.1578944999999976,
            "durationTicks": 96,
            "midi": 35,
            "name": "B1",
            "ticks": 104160,
            "time": 171.3155325,
            "velocity": 0.3937007874015748
          },
          {
            "duration": 0.0789472499999988,
            "durationTicks": 48,
            "midi": 42,
            "name": "F#2",
            "ticks": 104160,
            "time": 171.3155325,
            "velocity": 0.5433070866141733
          },
          {
            "duration": 0.0789472499999988,
            "durationTicks": 48,
            "midi": 42,
            "name": "F#2",
            "ticks": 104256,
            "time": 171.473427,
            "velocity": 0.5433070866141733
          },
          {
            "duration": 0.1578944999999976,
            "durationTicks": 96,
            "midi": 40,
            "name": "E2",
            "ticks": 104256,
            "time": 171.473427,
            "velocity": 0.3937007874015748
          },
          {
            "duration": 0.0789472499999988,
            "durationTicks": 48,
            "midi": 42,
            "name": "F#2",
            "ticks": 104352,
            "time": 171.63132149999998,
            "velocity": 0.5433070866141733
          },
          {
            "duration": 0.1578944999999976,
            "durationTicks": 96,
            "midi": 35,
            "name": "B1",
            "ticks": 104448,
            "time": 171.78921599999998,
            "velocity": 0.3937007874015748
          },
          {
            "duration": 0.1578944999999976,
            "durationTicks": 96,
            "midi": 36,
            "name": "C2",
            "ticks": 104448,
            "time": 171.78921599999998,
            "velocity": 0.3937007874015748
          },
          {
            "duration": 0.0789472499999988,
            "durationTicks": 48,
            "midi": 42,
            "name": "F#2",
            "ticks": 104448,
            "time": 171.78921599999998,
            "velocity": 0.5433070866141733
          },
          {
            "duration": 0.07894725000002722,
            "durationTicks": 48,
            "midi": 42,
            "name": "F#2",
            "ticks": 104544,
            "time": 171.94711049999998,
            "velocity": 0.5433070866141733
          },
          {
            "duration": 0.1578944999999976,
            "durationTicks": 96,
            "midi": 40,
            "name": "E2",
            "ticks": 104640,
            "time": 172.105005,
            "velocity": 0.3937007874015748
          },
          {
            "duration": 0.0789472499999988,
            "durationTicks": 48,
            "midi": 42,
            "name": "F#2",
            "ticks": 104640,
            "time": 172.105005,
            "velocity": 0.5433070866141733
          },
          {
            "duration": 0.1578944999999976,
            "durationTicks": 96,
            "midi": 35,
            "name": "B1",
            "ticks": 104736,
            "time": 172.2628995,
            "velocity": 0.3937007874015748
          },
          {
            "duration": 0.1578944999999976,
            "durationTicks": 96,
            "midi": 36,
            "name": "C2",
            "ticks": 104736,
            "time": 172.2628995,
            "velocity": 0.3937007874015748
          },
          {
            "duration": 0.0789472499999988,
            "durationTicks": 48,
            "midi": 42,
            "name": "F#2",
            "ticks": 104736,
            "time": 172.2628995,
            "velocity": 0.5433070866141733
          },
          {
            "duration": 0.0789472499999988,
            "durationTicks": 48,
            "midi": 44,
            "name": "G#2",
            "ticks": 104832,
            "time": 172.420794,
            "velocity": 0.3937007874015748
          },
          {
            "duration": 0.0789472499999988,
            "durationTicks": 48,
            "midi": 42,
            "name": "F#2",
            "ticks": 104880,
            "time": 172.49974125,
            "velocity": 0.5433070866141733
          },
          {
            "duration": 0.0789472499999988,
            "durationTicks": 48,
            "midi": 42,
            "name": "F#2",
            "ticks": 104928,
            "time": 172.5786885,
            "velocity": 0.5433070866141733
          },
          {
            "duration": 0.1578944999999976,
            "durationTicks": 96,
            "midi": 35,
            "name": "B1",
            "ticks": 104928,
            "time": 172.5786885,
            "velocity": 0.3937007874015748
          },
          {
            "duration": 0.1578944999999976,
            "durationTicks": 96,
            "midi": 36,
            "name": "C2",
            "ticks": 104928,
            "time": 172.5786885,
            "velocity": 0.3937007874015748
          },
          {
            "duration": 0.1578944999999976,
            "durationTicks": 96,
            "midi": 40,
            "name": "E2",
            "ticks": 105024,
            "time": 172.736583,
            "velocity": 0.3937007874015748
          },
          {
            "duration": 0.0789472499999988,
            "durationTicks": 48,
            "midi": 42,
            "name": "F#2",
            "ticks": 105024,
            "time": 172.736583,
            "velocity": 0.5433070866141733
          },
          {
            "duration": 0.0789472499999988,
            "durationTicks": 48,
            "midi": 42,
            "name": "F#2",
            "ticks": 105120,
            "time": 172.8944775,
            "velocity": 0.5433070866141733
          },
          {
            "duration": 0.0789472499999988,
            "durationTicks": 48,
            "midi": 42,
            "name": "F#2",
            "ticks": 105216,
            "time": 173.052372,
            "velocity": 0.5433070866141733
          },
          {
            "duration": 0.1578944999999976,
            "durationTicks": 96,
            "midi": 36,
            "name": "C2",
            "ticks": 105216,
            "time": 173.052372,
            "velocity": 0.3937007874015748
          },
          {
            "duration": 0.1578944999999976,
            "durationTicks": 96,
            "midi": 35,
            "name": "B1",
            "ticks": 105216,
            "time": 173.052372,
            "velocity": 0.3937007874015748
          },
          {
            "duration": 0.0789472499999988,
            "durationTicks": 48,
            "midi": 42,
            "name": "F#2",
            "ticks": 105312,
            "time": 173.2102665,
            "velocity": 0.5433070866141733
          },
          {
            "duration": 0.1578944999999976,
            "durationTicks": 96,
            "midi": 40,
            "name": "E2",
            "ticks": 105408,
            "time": 173.368161,
            "velocity": 0.3937007874015748
          },
          {
            "duration": 0.0789472499999988,
            "durationTicks": 48,
            "midi": 42,
            "name": "F#2",
            "ticks": 105408,
            "time": 173.368161,
            "velocity": 0.5433070866141733
          },
          {
            "duration": 0.0789472499999988,
            "durationTicks": 48,
            "midi": 42,
            "name": "F#2",
            "ticks": 105504,
            "time": 173.52605549999998,
            "velocity": 0.5433070866141733
          },
          {
            "duration": 0.1578944999999976,
            "durationTicks": 96,
            "midi": 35,
            "name": "B1",
            "ticks": 105504,
            "time": 173.52605549999998,
            "velocity": 0.3937007874015748
          },
          {
            "duration": 0.1578944999999976,
            "durationTicks": 96,
            "midi": 36,
            "name": "C2",
            "ticks": 105504,
            "time": 173.52605549999998,
            "velocity": 0.3937007874015748
          },
          {
            "duration": 0.0789472499999988,
            "durationTicks": 48,
            "midi": 44,
            "name": "G#2",
            "ticks": 105600,
            "time": 173.68394999999998,
            "velocity": 0.3937007874015748
          },
          {
            "duration": 0.0789472499999988,
            "durationTicks": 48,
            "midi": 42,
            "name": "F#2",
            "ticks": 105648,
            "time": 173.76289724999998,
            "velocity": 0.5433070866141733
          },
          {
            "duration": 0.15789450000002603,
            "durationTicks": 96,
            "midi": 36,
            "name": "C2",
            "ticks": 105696,
            "time": 173.84184449999998,
            "velocity": 0.3937007874015748
          },
          {
            "duration": 0.15789450000002603,
            "durationTicks": 96,
            "midi": 35,
            "name": "B1",
            "ticks": 105696,
            "time": 173.84184449999998,
            "velocity": 0.3937007874015748
          },
          {
            "duration": 0.07894725000002722,
            "durationTicks": 48,
            "midi": 42,
            "name": "F#2",
            "ticks": 105696,
            "time": 173.84184449999998,
            "velocity": 0.5433070866141733
          },
          {
            "duration": 0.0789472499999988,
            "durationTicks": 48,
            "midi": 42,
            "name": "F#2",
            "ticks": 105792,
            "time": 173.999739,
            "velocity": 0.5433070866141733
          },
          {
            "duration": 0.1578944999999976,
            "durationTicks": 96,
            "midi": 40,
            "name": "E2",
            "ticks": 105792,
            "time": 173.999739,
            "velocity": 0.3937007874015748
          },
          {
            "duration": 0.0789472499999988,
            "durationTicks": 48,
            "midi": 42,
            "name": "F#2",
            "ticks": 105888,
            "time": 174.1576335,
            "velocity": 0.5433070866141733
          },
          {
            "duration": 0.1578944999999976,
            "durationTicks": 96,
            "midi": 35,
            "name": "B1",
            "ticks": 105984,
            "time": 174.315528,
            "velocity": 0.3937007874015748
          },
          {
            "duration": 0.1578944999999976,
            "durationTicks": 96,
            "midi": 36,
            "name": "C2",
            "ticks": 105984,
            "time": 174.315528,
            "velocity": 0.3937007874015748
          },
          {
            "duration": 0.0789472499999988,
            "durationTicks": 48,
            "midi": 42,
            "name": "F#2",
            "ticks": 105984,
            "time": 174.315528,
            "velocity": 0.5433070866141733
          },
          {
            "duration": 0.0789472499999988,
            "durationTicks": 48,
            "midi": 42,
            "name": "F#2",
            "ticks": 106080,
            "time": 174.4734225,
            "velocity": 0.5433070866141733
          },
          {
            "duration": 0.1578944999999976,
            "durationTicks": 96,
            "midi": 40,
            "name": "E2",
            "ticks": 106176,
            "time": 174.631317,
            "velocity": 0.3937007874015748
          },
          {
            "duration": 0.0789472499999988,
            "durationTicks": 48,
            "midi": 42,
            "name": "F#2",
            "ticks": 106176,
            "time": 174.631317,
            "velocity": 0.5433070866141733
          },
          {
            "duration": 0.1578944999999976,
            "durationTicks": 96,
            "midi": 35,
            "name": "B1",
            "ticks": 106272,
            "time": 174.7892115,
            "velocity": 0.3937007874015748
          },
          {
            "duration": 0.1578944999999976,
            "durationTicks": 96,
            "midi": 36,
            "name": "C2",
            "ticks": 106272,
            "time": 174.7892115,
            "velocity": 0.3937007874015748
          },
          {
            "duration": 0.0789472499999988,
            "durationTicks": 48,
            "midi": 42,
            "name": "F#2",
            "ticks": 106272,
            "time": 174.7892115,
            "velocity": 0.5433070866141733
          },
          {
            "duration": 0.0789472499999988,
            "durationTicks": 48,
            "midi": 44,
            "name": "G#2",
            "ticks": 106368,
            "time": 174.947106,
            "velocity": 0.3937007874015748
          },
          {
            "duration": 0.0789472499999988,
            "durationTicks": 48,
            "midi": 42,
            "name": "F#2",
            "ticks": 106416,
            "time": 175.02605325,
            "velocity": 0.5433070866141733
          },
          {
            "duration": 0.0789472499999988,
            "durationTicks": 48,
            "midi": 42,
            "name": "F#2",
            "ticks": 106464,
            "time": 175.1050005,
            "velocity": 0.5433070866141733
          },
          {
            "duration": 0.1578944999999976,
            "durationTicks": 96,
            "midi": 36,
            "name": "C2",
            "ticks": 106464,
            "time": 175.1050005,
            "velocity": 0.3937007874015748
          },
          {
            "duration": 0.1578944999999976,
            "durationTicks": 96,
            "midi": 35,
            "name": "B1",
            "ticks": 106464,
            "time": 175.1050005,
            "velocity": 0.3937007874015748
          },
          {
            "duration": 0.1578944999999976,
            "durationTicks": 96,
            "midi": 40,
            "name": "E2",
            "ticks": 106560,
            "time": 175.262895,
            "velocity": 0.3937007874015748
          },
          {
            "duration": 0.0789472499999988,
            "durationTicks": 48,
            "midi": 42,
            "name": "F#2",
            "ticks": 106560,
            "time": 175.262895,
            "velocity": 0.5433070866141733
          },
          {
            "duration": 0.0789472499999988,
            "durationTicks": 48,
            "midi": 42,
            "name": "F#2",
            "ticks": 106656,
            "time": 175.42078949999998,
            "velocity": 0.5433070866141733
          },
          {
            "duration": 0.0789472499999988,
            "durationTicks": 48,
            "midi": 42,
            "name": "F#2",
            "ticks": 106752,
            "time": 175.57868399999998,
            "velocity": 0.5433070866141733
          },
          {
            "duration": 0.1578944999999976,
            "durationTicks": 96,
            "midi": 36,
            "name": "C2",
            "ticks": 106752,
            "time": 175.57868399999998,
            "velocity": 0.3937007874015748
          },
          {
            "duration": 0.1578944999999976,
            "durationTicks": 96,
            "midi": 35,
            "name": "B1",
            "ticks": 106752,
            "time": 175.57868399999998,
            "velocity": 0.3937007874015748
          },
          {
            "duration": 0.07894725000002722,
            "durationTicks": 48,
            "midi": 40,
            "name": "E2",
            "ticks": 106848,
            "time": 175.73657849999998,
            "velocity": 0.3937007874015748
          },
          {
            "duration": 0.07894725000002722,
            "durationTicks": 48,
            "midi": 42,
            "name": "F#2",
            "ticks": 106848,
            "time": 175.73657849999998,
            "velocity": 0.5433070866141733
          },
          {
            "duration": 0.0789472499999988,
            "durationTicks": 48,
            "midi": 40,
            "name": "E2",
            "ticks": 106896,
            "time": 175.81552575,
            "velocity": 0.3937007874015748
          },
          {
            "duration": 0.1578944999999976,
            "durationTicks": 96,
            "midi": 40,
            "name": "E2",
            "ticks": 106944,
            "time": 175.894473,
            "velocity": 0.3937007874015748
          },
          {
            "duration": 0.0789472499999988,
            "durationTicks": 48,
            "midi": 42,
            "name": "F#2",
            "ticks": 106944,
            "time": 175.894473,
            "velocity": 0.5433070866141733
          },
          {
            "duration": 0.0789472499999988,
            "durationTicks": 48,
            "midi": 42,
            "name": "F#2",
            "ticks": 107040,
            "time": 176.0523675,
            "velocity": 0.5433070866141733
          },
          {
            "duration": 0.1578944999999976,
            "durationTicks": 96,
            "midi": 36,
            "name": "C2",
            "ticks": 107040,
            "time": 176.0523675,
            "velocity": 0.3937007874015748
          },
          {
            "duration": 0.1578944999999976,
            "durationTicks": 96,
            "midi": 35,
            "name": "B1",
            "ticks": 107040,
            "time": 176.0523675,
            "velocity": 0.3937007874015748
          },
          {
            "duration": 0.1578944999999976,
            "durationTicks": 96,
            "midi": 40,
            "name": "E2",
            "ticks": 107136,
            "time": 176.210262,
            "velocity": 0.3937007874015748
          },
          {
            "duration": 0.0789472499999988,
            "durationTicks": 48,
            "midi": 44,
            "name": "G#2",
            "ticks": 107136,
            "time": 176.210262,
            "velocity": 0.3937007874015748
          },
          {
            "duration": 0.0789472499999988,
            "durationTicks": 48,
            "midi": 42,
            "name": "F#2",
            "ticks": 107184,
            "time": 176.28920925,
            "velocity": 0.5433070866141733
          },
          {
            "duration": 0.0789472499999988,
            "durationTicks": 48,
            "midi": 42,
            "name": "F#2",
            "ticks": 107232,
            "time": 176.3681565,
            "velocity": 0.5433070866141733
          },
          {
            "duration": 0.1578944999999976,
            "durationTicks": 96,
            "midi": 35,
            "name": "B1",
            "ticks": 107232,
            "time": 176.3681565,
            "velocity": 0.3937007874015748
          },
          {
            "duration": 0.1578944999999976,
            "durationTicks": 96,
            "midi": 36,
            "name": "C2",
            "ticks": 107232,
            "time": 176.3681565,
            "velocity": 0.3937007874015748
          },
          {
            "duration": 0.1578944999999976,
            "durationTicks": 96,
            "midi": 40,
            "name": "E2",
            "ticks": 107328,
            "time": 176.526051,
            "velocity": 0.3937007874015748
          },
          {
            "duration": 0.0789472499999988,
            "durationTicks": 48,
            "midi": 42,
            "name": "F#2",
            "ticks": 107328,
            "time": 176.526051,
            "velocity": 0.5433070866141733
          }
        ],
        "endOfTrackTicks": 107424
      },
      {
        "channel": 4,
        "controlChanges": {},
        "pitchBends": [],
        "instrument": {
          "family": "chromatic percussion",
          "number": 11,
          "name": "vibraphone"
        },
        "name": "Vibraphone",
        "notes": [
          {
            "duration": 0.1578944999999976,
            "durationTicks": 96,
            "midi": 61,
            "name": "C#4",
            "ticks": 39936,
            "time": 65.684112,
            "velocity": 0.7874015748031497
          },
          {
            "duration": 0.1578944999999976,
            "durationTicks": 96,
            "midi": 49,
            "name": "C#3",
            "ticks": 39936,
            "time": 65.684112,
            "velocity": 0.7874015748031497
          },
          {
            "duration": 0.15789450000001182,
            "durationTicks": 96,
            "midi": 61,
            "name": "C#4",
            "ticks": 40224,
            "time": 66.15779549999999,
            "velocity": 0.7874015748031497
          },
          {
            "duration": 0.15789450000001182,
            "durationTicks": 96,
            "midi": 49,
            "name": "C#3",
            "ticks": 40224,
            "time": 66.15779549999999,
            "velocity": 0.7874015748031497
          },
          {
            "duration": 0.1578944999999976,
            "durationTicks": 96,
            "midi": 49,
            "name": "C#3",
            "ticks": 41472,
            "time": 68.210424,
            "velocity": 0.7874015748031497
          },
          {
            "duration": 0.1578944999999976,
            "durationTicks": 96,
            "midi": 61,
            "name": "C#4",
            "ticks": 41472,
            "time": 68.210424,
            "velocity": 0.7874015748031497
          },
          {
            "duration": 0.1578944999999976,
            "durationTicks": 96,
            "midi": 61,
            "name": "C#4",
            "ticks": 41760,
            "time": 68.6841075,
            "velocity": 0.7874015748031497
          },
          {
            "duration": 0.1578944999999976,
            "durationTicks": 96,
            "midi": 49,
            "name": "C#3",
            "ticks": 41760,
            "time": 68.6841075,
            "velocity": 0.7874015748031497
          },
          {
            "duration": 0.1578944999999976,
            "durationTicks": 96,
            "midi": 50,
            "name": "D3",
            "ticks": 43008,
            "time": 70.736736,
            "velocity": 0.7874015748031497
          },
          {
            "duration": 0.1578944999999976,
            "durationTicks": 96,
            "midi": 62,
            "name": "D4",
            "ticks": 43008,
            "time": 70.736736,
            "velocity": 0.7874015748031497
          },
          {
            "duration": 0.1578944999999976,
            "durationTicks": 96,
            "midi": 50,
            "name": "D3",
            "ticks": 43296,
            "time": 71.2104195,
            "velocity": 0.7874015748031497
          },
          {
            "duration": 0.1578944999999976,
            "durationTicks": 96,
            "midi": 62,
            "name": "D4",
            "ticks": 43296,
            "time": 71.2104195,
            "velocity": 0.7874015748031497
          },
          {
            "duration": 0.1578944999999976,
            "durationTicks": 96,
            "midi": 52,
            "name": "E3",
            "ticks": 44544,
            "time": 73.263048,
            "velocity": 0.7874015748031497
          },
          {
            "duration": 0.1578944999999976,
            "durationTicks": 96,
            "midi": 64,
            "name": "E4",
            "ticks": 44544,
            "time": 73.263048,
            "velocity": 0.7874015748031497
          },
          {
            "duration": 0.15789450000001182,
            "durationTicks": 96,
            "midi": 64,
            "name": "E4",
            "ticks": 44832,
            "time": 73.73673149999999,
            "velocity": 0.7874015748031497
          },
          {
            "duration": 0.15789450000001182,
            "durationTicks": 96,
            "midi": 52,
            "name": "E3",
            "ticks": 44832,
            "time": 73.73673149999999,
            "velocity": 0.7874015748031497
          },
          {
            "duration": 0.1578944999999976,
            "durationTicks": 96,
            "midi": 54,
            "name": "F#3",
            "ticks": 45312,
            "time": 74.52620399999999,
            "velocity": 0.7874015748031497
          },
          {
            "duration": 0.1578944999999976,
            "durationTicks": 96,
            "midi": 66,
            "name": "F#4",
            "ticks": 45312,
            "time": 74.52620399999999,
            "velocity": 0.7874015748031497
          },
          {
            "duration": 0.1578944999999976,
            "durationTicks": 96,
            "midi": 54,
            "name": "F#3",
            "ticks": 45600,
            "time": 74.9998875,
            "velocity": 0.7874015748031497
          },
          {
            "duration": 0.1578944999999976,
            "durationTicks": 96,
            "midi": 66,
            "name": "F#4",
            "ticks": 45600,
            "time": 74.9998875,
            "velocity": 0.7874015748031497
          },
          {
            "duration": 0.1578944999999976,
            "durationTicks": 96,
            "midi": 49,
            "name": "C#3",
            "ticks": 46080,
            "time": 75.78936,
            "velocity": 0.7874015748031497
          },
          {
            "duration": 0.1578944999999976,
            "durationTicks": 96,
            "midi": 61,
            "name": "C#4",
            "ticks": 46080,
            "time": 75.78936,
            "velocity": 0.7874015748031497
          },
          {
            "duration": 0.1578944999999976,
            "durationTicks": 96,
            "midi": 61,
            "name": "C#4",
            "ticks": 46368,
            "time": 76.2630435,
            "velocity": 0.7874015748031497
          },
          {
            "duration": 0.1578944999999976,
            "durationTicks": 96,
            "midi": 49,
            "name": "C#3",
            "ticks": 46368,
            "time": 76.2630435,
            "velocity": 0.7874015748031497
          },
          {
            "duration": 0.1578944999999976,
            "durationTicks": 96,
            "midi": 49,
            "name": "C#3",
            "ticks": 47616,
            "time": 78.31567199999999,
            "velocity": 0.7874015748031497
          },
          {
            "duration": 0.1578944999999976,
            "durationTicks": 96,
            "midi": 61,
            "name": "C#4",
            "ticks": 47616,
            "time": 78.31567199999999,
            "velocity": 0.7874015748031497
          },
          {
            "duration": 0.1578944999999976,
            "durationTicks": 96,
            "midi": 49,
            "name": "C#3",
            "ticks": 47904,
            "time": 78.7893555,
            "velocity": 0.7874015748031497
          },
          {
            "duration": 0.1578944999999976,
            "durationTicks": 96,
            "midi": 61,
            "name": "C#4",
            "ticks": 47904,
            "time": 78.7893555,
            "velocity": 0.7874015748031497
          },
          {
            "duration": 0.1578944999999976,
            "durationTicks": 96,
            "midi": 62,
            "name": "D4",
            "ticks": 49152,
            "time": 80.841984,
            "velocity": 0.7874015748031497
          },
          {
            "duration": 0.1578944999999976,
            "durationTicks": 96,
            "midi": 50,
            "name": "D3",
            "ticks": 49152,
            "time": 80.841984,
            "velocity": 0.7874015748031497
          },
          {
            "duration": 0.1578944999999976,
            "durationTicks": 96,
            "midi": 62,
            "name": "D4",
            "ticks": 49440,
            "time": 81.3156675,
            "velocity": 0.7874015748031497
          },
          {
            "duration": 0.1578944999999976,
            "durationTicks": 96,
            "midi": 50,
            "name": "D3",
            "ticks": 49440,
            "time": 81.3156675,
            "velocity": 0.7874015748031497
          },
          {
            "duration": 0.1578944999999976,
            "durationTicks": 96,
            "midi": 52,
            "name": "E3",
            "ticks": 50688,
            "time": 83.368296,
            "velocity": 0.7874015748031497
          },
          {
            "duration": 0.1578944999999976,
            "durationTicks": 96,
            "midi": 64,
            "name": "E4",
            "ticks": 50688,
            "time": 83.368296,
            "velocity": 0.7874015748031497
          },
          {
            "duration": 0.1578944999999976,
            "durationTicks": 96,
            "midi": 64,
            "name": "E4",
            "ticks": 50976,
            "time": 83.8419795,
            "velocity": 0.7874015748031497
          },
          {
            "duration": 0.1578944999999976,
            "durationTicks": 96,
            "midi": 52,
            "name": "E3",
            "ticks": 50976,
            "time": 83.8419795,
            "velocity": 0.7874015748031497
          },
          {
            "duration": 0.1578944999999976,
            "durationTicks": 96,
            "midi": 54,
            "name": "F#3",
            "ticks": 51456,
            "time": 84.631452,
            "velocity": 0.7874015748031497
          },
          {
            "duration": 0.1578944999999976,
            "durationTicks": 96,
            "midi": 66,
            "name": "F#4",
            "ticks": 51456,
            "time": 84.631452,
            "velocity": 0.7874015748031497
          },
          {
            "duration": 0.1578944999999976,
            "durationTicks": 96,
            "midi": 54,
            "name": "F#3",
            "ticks": 51744,
            "time": 85.1051355,
            "velocity": 0.7874015748031497
          },
          {
            "duration": 0.1578944999999976,
            "durationTicks": 96,
            "midi": 66,
            "name": "F#4",
            "ticks": 51744,
            "time": 85.1051355,
            "velocity": 0.7874015748031497
          },
          {
            "duration": 0.1578944999999976,
            "durationTicks": 96,
            "midi": 49,
            "name": "C#3",
            "ticks": 101376,
            "time": 166.736592,
            "velocity": 0.7874015748031497
          },
          {
            "duration": 0.1578944999999976,
            "durationTicks": 96,
            "midi": 61,
            "name": "C#4",
            "ticks": 101376,
            "time": 166.736592,
            "velocity": 0.7874015748031497
          },
          {
            "duration": 0.1578944999999976,
            "durationTicks": 96,
            "midi": 61,
            "name": "C#4",
            "ticks": 101664,
            "time": 167.2102755,
            "velocity": 0.7874015748031497
          },
          {
            "duration": 0.1578944999999976,
            "durationTicks": 96,
            "midi": 49,
            "name": "C#3",
            "ticks": 101664,
            "time": 167.2102755,
            "velocity": 0.7874015748031497
          },
          {
            "duration": 0.1578944999999976,
            "durationTicks": 96,
            "midi": 61,
            "name": "C#4",
            "ticks": 102912,
            "time": 169.262904,
            "velocity": 0.7874015748031497
          },
          {
            "duration": 0.1578944999999976,
            "durationTicks": 96,
            "midi": 49,
            "name": "C#3",
            "ticks": 102912,
            "time": 169.262904,
            "velocity": 0.7874015748031497
          },
          {
            "duration": 0.1578944999999976,
            "durationTicks": 96,
            "midi": 49,
            "name": "C#3",
            "ticks": 103200,
            "time": 169.73658749999998,
            "velocity": 0.7874015748031497
          },
          {
            "duration": 0.1578944999999976,
            "durationTicks": 96,
            "midi": 61,
            "name": "C#4",
            "ticks": 103200,
            "time": 169.73658749999998,
            "velocity": 0.7874015748031497
          },
          {
            "duration": 0.1578944999999976,
            "durationTicks": 96,
            "midi": 50,
            "name": "D3",
            "ticks": 104448,
            "time": 171.78921599999998,
            "velocity": 0.7874015748031497
          },
          {
            "duration": 0.1578944999999976,
            "durationTicks": 96,
            "midi": 62,
            "name": "D4",
            "ticks": 104448,
            "time": 171.78921599999998,
            "velocity": 0.7874015748031497
          },
          {
            "duration": 0.1578944999999976,
            "durationTicks": 96,
            "midi": 50,
            "name": "D3",
            "ticks": 104736,
            "time": 172.2628995,
            "velocity": 0.7874015748031497
          },
          {
            "duration": 0.1578944999999976,
            "durationTicks": 96,
            "midi": 62,
            "name": "D4",
            "ticks": 104736,
            "time": 172.2628995,
            "velocity": 0.7874015748031497
          },
          {
            "duration": 0.1578944999999976,
            "durationTicks": 96,
            "midi": 64,
            "name": "E4",
            "ticks": 105984,
            "time": 174.315528,
            "velocity": 0.7874015748031497
          },
          {
            "duration": 0.1578944999999976,
            "durationTicks": 96,
            "midi": 52,
            "name": "E3",
            "ticks": 105984,
            "time": 174.315528,
            "velocity": 0.7874015748031497
          },
          {
            "duration": 0.1578944999999976,
            "durationTicks": 96,
            "midi": 52,
            "name": "E3",
            "ticks": 106272,
            "time": 174.7892115,
            "velocity": 0.7874015748031497
          },
          {
            "duration": 0.1578944999999976,
            "durationTicks": 96,
            "midi": 64,
            "name": "E4",
            "ticks": 106272,
            "time": 174.7892115,
            "velocity": 0.7874015748031497
          },
          {
            "duration": 0.1578944999999976,
            "durationTicks": 96,
            "midi": 54,
            "name": "F#3",
            "ticks": 106752,
            "time": 175.57868399999998,
            "velocity": 0.7874015748031497
          },
          {
            "duration": 0.1578944999999976,
            "durationTicks": 96,
            "midi": 66,
            "name": "F#4",
            "ticks": 106752,
            "time": 175.57868399999998,
            "velocity": 0.7874015748031497
          },
          {
            "duration": 0.1578944999999976,
            "durationTicks": 96,
            "midi": 54,
            "name": "F#3",
            "ticks": 107040,
            "time": 176.0523675,
            "velocity": 0.7874015748031497
          },
          {
            "duration": 0.1578944999999976,
            "durationTicks": 96,
            "midi": 66,
            "name": "F#4",
            "ticks": 107040,
            "time": 176.0523675,
            "velocity": 0.7874015748031497
          }
        ],
        "endOfTrackTicks": 107136
      },
      {
        "channel": 9,
        "controlChanges": {},
        "pitchBends": [],
        "instrument": {
          "family": "drums",
          "number": 0,
          "name": "standard kit"
        },
        "name": "8-Bit Drum Kit",
        "notes": [
          {
            "duration": 0.1578944999999976,
            "durationTicks": 96,
            "midi": 52,
            "name": "E3",
            "ticks": 40128,
            "time": 65.999901,
            "velocity": 0.1732283464566929
          },
          {
            "duration": 0.1578944999999976,
            "durationTicks": 96,
            "midi": 52,
            "name": "E3",
            "ticks": 40512,
            "time": 66.631479,
            "velocity": 0.1732283464566929
          },
          {
            "duration": 0.1578944999999976,
            "durationTicks": 96,
            "midi": 52,
            "name": "E3",
            "ticks": 40896,
            "time": 67.263057,
            "velocity": 0.1732283464566929
          },
          {
            "duration": 0.1578944999999976,
            "durationTicks": 96,
            "midi": 52,
            "name": "E3",
            "ticks": 41280,
            "time": 67.894635,
            "velocity": 0.1732283464566929
          },
          {
            "duration": 0.1578944999999976,
            "durationTicks": 96,
            "midi": 52,
            "name": "E3",
            "ticks": 41664,
            "time": 68.526213,
            "velocity": 0.1732283464566929
          },
          {
            "duration": 0.1578944999999976,
            "durationTicks": 96,
            "midi": 52,
            "name": "E3",
            "ticks": 42048,
            "time": 69.157791,
            "velocity": 0.1732283464566929
          },
          {
            "duration": 0.1578944999999976,
            "durationTicks": 96,
            "midi": 52,
            "name": "E3",
            "ticks": 42432,
            "time": 69.789369,
            "velocity": 0.1732283464566929
          },
          {
            "duration": 0.1578944999999976,
            "durationTicks": 96,
            "midi": 52,
            "name": "E3",
            "ticks": 42816,
            "time": 70.420947,
            "velocity": 0.1732283464566929
          },
          {
            "duration": 0.1578944999999976,
            "durationTicks": 96,
            "midi": 52,
            "name": "E3",
            "ticks": 43200,
            "time": 71.052525,
            "velocity": 0.1732283464566929
          },
          {
            "duration": 0.1578944999999976,
            "durationTicks": 96,
            "midi": 52,
            "name": "E3",
            "ticks": 43584,
            "time": 71.684103,
            "velocity": 0.1732283464566929
          },
          {
            "duration": 0.1578944999999976,
            "durationTicks": 96,
            "midi": 52,
            "name": "E3",
            "ticks": 43968,
            "time": 72.315681,
            "velocity": 0.1732283464566929
          },
          {
            "duration": 0.1578944999999976,
            "durationTicks": 96,
            "midi": 52,
            "name": "E3",
            "ticks": 44352,
            "time": 72.947259,
            "velocity": 0.1732283464566929
          },
          {
            "duration": 0.1578944999999976,
            "durationTicks": 96,
            "midi": 52,
            "name": "E3",
            "ticks": 44736,
            "time": 73.578837,
            "velocity": 0.1732283464566929
          },
          {
            "duration": 0.1578944999999976,
            "durationTicks": 96,
            "midi": 52,
            "name": "E3",
            "ticks": 45120,
            "time": 74.210415,
            "velocity": 0.1732283464566929
          },
          {
            "duration": 0.07894725000001301,
            "durationTicks": 48,
            "midi": 52,
            "name": "E3",
            "ticks": 45408,
            "time": 74.68409849999999,
            "velocity": 0.1732283464566929
          },
          {
            "duration": 0.0789472499999988,
            "durationTicks": 48,
            "midi": 52,
            "name": "E3",
            "ticks": 45456,
            "time": 74.76304575,
            "velocity": 0.1732283464566929
          },
          {
            "duration": 0.1578944999999976,
            "durationTicks": 96,
            "midi": 52,
            "name": "E3",
            "ticks": 45504,
            "time": 74.841993,
            "velocity": 0.1732283464566929
          },
          {
            "duration": 0.1578944999999976,
            "durationTicks": 96,
            "midi": 52,
            "name": "E3",
            "ticks": 45696,
            "time": 75.157782,
            "velocity": 0.1732283464566929
          },
          {
            "duration": 0.1578944999999976,
            "durationTicks": 96,
            "midi": 52,
            "name": "E3",
            "ticks": 45888,
            "time": 75.47357099999999,
            "velocity": 0.1732283464566929
          },
          {
            "duration": 0.1578944999999976,
            "durationTicks": 96,
            "midi": 52,
            "name": "E3",
            "ticks": 46272,
            "time": 76.105149,
            "velocity": 0.1732283464566929
          },
          {
            "duration": 0.1578944999999976,
            "durationTicks": 96,
            "midi": 52,
            "name": "E3",
            "ticks": 46656,
            "time": 76.736727,
            "velocity": 0.1732283464566929
          },
          {
            "duration": 0.1578944999999976,
            "durationTicks": 96,
            "midi": 52,
            "name": "E3",
            "ticks": 47040,
            "time": 77.36830499999999,
            "velocity": 0.1732283464566929
          },
          {
            "duration": 0.1578944999999976,
            "durationTicks": 96,
            "midi": 52,
            "name": "E3",
            "ticks": 47424,
            "time": 77.999883,
            "velocity": 0.1732283464566929
          },
          {
            "duration": 0.1578944999999976,
            "durationTicks": 96,
            "midi": 52,
            "name": "E3",
            "ticks": 47808,
            "time": 78.631461,
            "velocity": 0.1732283464566929
          },
          {
            "duration": 0.1578944999999976,
            "durationTicks": 96,
            "midi": 52,
            "name": "E3",
            "ticks": 48192,
            "time": 79.26303899999999,
            "velocity": 0.1732283464566929
          },
          {
            "duration": 0.1578944999999976,
            "durationTicks": 96,
            "midi": 52,
            "name": "E3",
            "ticks": 48576,
            "time": 79.894617,
            "velocity": 0.1732283464566929
          },
          {
            "duration": 0.1578944999999976,
            "durationTicks": 96,
            "midi": 52,
            "name": "E3",
            "ticks": 48960,
            "time": 80.526195,
            "velocity": 0.1732283464566929
          },
          {
            "duration": 0.15789450000001182,
            "durationTicks": 96,
            "midi": 52,
            "name": "E3",
            "ticks": 49344,
            "time": 81.15777299999999,
            "velocity": 0.1732283464566929
          },
          {
            "duration": 0.1578944999999976,
            "durationTicks": 96,
            "midi": 52,
            "name": "E3",
            "ticks": 49728,
            "time": 81.789351,
            "velocity": 0.1732283464566929
          },
          {
            "duration": 0.1578944999999976,
            "durationTicks": 96,
            "midi": 52,
            "name": "E3",
            "ticks": 50112,
            "time": 82.420929,
            "velocity": 0.1732283464566929
          },
          {
            "duration": 0.15789450000001182,
            "durationTicks": 96,
            "midi": 52,
            "name": "E3",
            "ticks": 50496,
            "time": 83.05250699999999,
            "velocity": 0.1732283464566929
          },
          {
            "duration": 0.1578944999999976,
            "durationTicks": 96,
            "midi": 52,
            "name": "E3",
            "ticks": 50880,
            "time": 83.684085,
            "velocity": 0.1732283464566929
          },
          {
            "duration": 0.1578944999999976,
            "durationTicks": 96,
            "midi": 52,
            "name": "E3",
            "ticks": 51264,
            "time": 84.315663,
            "velocity": 0.1732283464566929
          },
          {
            "duration": 0.0789472499999988,
            "durationTicks": 48,
            "midi": 52,
            "name": "E3",
            "ticks": 51552,
            "time": 84.7893465,
            "velocity": 0.1732283464566929
          },
          {
            "duration": 0.0789472499999988,
            "durationTicks": 48,
            "midi": 52,
            "name": "E3",
            "ticks": 51600,
            "time": 84.86829374999999,
            "velocity": 0.1732283464566929
          },
          {
            "duration": 0.15789450000001182,
            "durationTicks": 96,
            "midi": 52,
            "name": "E3",
            "ticks": 51648,
            "time": 84.94724099999999,
            "velocity": 0.1732283464566929
          },
          {
            "duration": 0.1578944999999976,
            "durationTicks": 96,
            "midi": 52,
            "name": "E3",
            "ticks": 51840,
            "time": 85.26303,
            "velocity": 0.1732283464566929
          },
          {
            "duration": 0.1578944999999976,
            "durationTicks": 96,
            "midi": 52,
            "name": "E3",
            "ticks": 52032,
            "time": 85.578819,
            "velocity": 0.1732283464566929
          },
          {
            "duration": 0.1578944999999976,
            "durationTicks": 96,
            "midi": 52,
            "name": "E3",
            "ticks": 52416,
            "time": 86.210397,
            "velocity": 0.1732283464566929
          },
          {
            "duration": 0.15789450000001182,
            "durationTicks": 96,
            "midi": 52,
            "name": "E3",
            "ticks": 52800,
            "time": 86.84197499999999,
            "velocity": 0.1732283464566929
          },
          {
            "duration": 0.1578944999999976,
            "durationTicks": 96,
            "midi": 52,
            "name": "E3",
            "ticks": 53184,
            "time": 87.473553,
            "velocity": 0.1732283464566929
          },
          {
            "duration": 0.1578944999999976,
            "durationTicks": 96,
            "midi": 52,
            "name": "E3",
            "ticks": 53568,
            "time": 88.105131,
            "velocity": 0.1732283464566929
          },
          {
            "duration": 0.15789450000001182,
            "durationTicks": 96,
            "midi": 52,
            "name": "E3",
            "ticks": 53952,
            "time": 88.73670899999999,
            "velocity": 0.1732283464566929
          },
          {
            "duration": 0.1578944999999976,
            "durationTicks": 96,
            "midi": 52,
            "name": "E3",
            "ticks": 54336,
            "time": 89.368287,
            "velocity": 0.1732283464566929
          },
          {
            "duration": 0.1578944999999976,
            "durationTicks": 96,
            "midi": 52,
            "name": "E3",
            "ticks": 54720,
            "time": 89.999865,
            "velocity": 0.1732283464566929
          },
          {
            "duration": 0.15789450000001182,
            "durationTicks": 96,
            "midi": 52,
            "name": "E3",
            "ticks": 55104,
            "time": 90.63144299999999,
            "velocity": 0.1732283464566929
          },
          {
            "duration": 0.1578944999999976,
            "durationTicks": 96,
            "midi": 52,
            "name": "E3",
            "ticks": 55488,
            "time": 91.263021,
            "velocity": 0.1732283464566929
          },
          {
            "duration": 0.1578944999999976,
            "durationTicks": 96,
            "midi": 52,
            "name": "E3",
            "ticks": 55872,
            "time": 91.894599,
            "velocity": 0.1732283464566929
          },
          {
            "duration": 0.15789450000001182,
            "durationTicks": 96,
            "midi": 52,
            "name": "E3",
            "ticks": 56256,
            "time": 92.52617699999999,
            "velocity": 0.1732283464566929
          },
          {
            "duration": 0.1578944999999976,
            "durationTicks": 96,
            "midi": 52,
            "name": "E3",
            "ticks": 56640,
            "time": 93.157755,
            "velocity": 0.1732283464566929
          },
          {
            "duration": 0.1578944999999976,
            "durationTicks": 96,
            "midi": 52,
            "name": "E3",
            "ticks": 57024,
            "time": 93.789333,
            "velocity": 0.1732283464566929
          },
          {
            "duration": 0.15789450000001182,
            "durationTicks": 96,
            "midi": 52,
            "name": "E3",
            "ticks": 57408,
            "time": 94.42091099999999,
            "velocity": 0.1732283464566929
          },
          {
            "duration": 0.0789472499999988,
            "durationTicks": 48,
            "midi": 52,
            "name": "E3",
            "ticks": 57696,
            "time": 94.8945945,
            "velocity": 0.1732283464566929
          },
          {
            "duration": 0.0789472499999988,
            "durationTicks": 48,
            "midi": 52,
            "name": "E3",
            "ticks": 57744,
            "time": 94.97354175,
            "velocity": 0.1732283464566929
          },
          {
            "duration": 0.1578944999999976,
            "durationTicks": 96,
            "midi": 52,
            "name": "E3",
            "ticks": 57792,
            "time": 95.052489,
            "velocity": 0.1732283464566929
          },
          {
            "duration": 0.15789450000001182,
            "durationTicks": 96,
            "midi": 52,
            "name": "E3",
            "ticks": 57984,
            "time": 95.36827799999999,
            "velocity": 0.1732283464566929
          },
          {
            "duration": 0.1578944999999976,
            "durationTicks": 96,
            "midi": 52,
            "name": "E3",
            "ticks": 58176,
            "time": 95.684067,
            "velocity": 0.1732283464566929
          },
          {
            "duration": 0.15789450000001182,
            "durationTicks": 96,
            "midi": 52,
            "name": "E3",
            "ticks": 58560,
            "time": 96.31564499999999,
            "velocity": 0.1732283464566929
          },
          {
            "duration": 0.1578944999999976,
            "durationTicks": 96,
            "midi": 52,
            "name": "E3",
            "ticks": 58944,
            "time": 96.947223,
            "velocity": 0.1732283464566929
          },
          {
            "duration": 0.1578944999999976,
            "durationTicks": 96,
            "midi": 52,
            "name": "E3",
            "ticks": 59328,
            "time": 97.578801,
            "velocity": 0.1732283464566929
          },
          {
            "duration": 0.15789450000001182,
            "durationTicks": 96,
            "midi": 52,
            "name": "E3",
            "ticks": 59712,
            "time": 98.21037899999999,
            "velocity": 0.1732283464566929
          },
          {
            "duration": 0.1578944999999976,
            "durationTicks": 96,
            "midi": 52,
            "name": "E3",
            "ticks": 60096,
            "time": 98.841957,
            "velocity": 0.1732283464566929
          },
          {
            "duration": 0.1578944999999976,
            "durationTicks": 96,
            "midi": 52,
            "name": "E3",
            "ticks": 60480,
            "time": 99.473535,
            "velocity": 0.1732283464566929
          },
          {
            "duration": 0.15789450000001182,
            "durationTicks": 96,
            "midi": 52,
            "name": "E3",
            "ticks": 60864,
            "time": 100.10511299999999,
            "velocity": 0.1732283464566929
          },
          {
            "duration": 0.1578944999999976,
            "durationTicks": 96,
            "midi": 52,
            "name": "E3",
            "ticks": 61248,
            "time": 100.736691,
            "velocity": 0.1732283464566929
          },
          {
            "duration": 0.1578944999999976,
            "durationTicks": 96,
            "midi": 52,
            "name": "E3",
            "ticks": 61632,
            "time": 101.368269,
            "velocity": 0.1732283464566929
          },
          {
            "duration": 0.1578944999999976,
            "durationTicks": 96,
            "midi": 52,
            "name": "E3",
            "ticks": 62016,
            "time": 101.999847,
            "velocity": 0.1732283464566929
          },
          {
            "duration": 0.1578944999999976,
            "durationTicks": 96,
            "midi": 52,
            "name": "E3",
            "ticks": 62400,
            "time": 102.631425,
            "velocity": 0.1732283464566929
          },
          {
            "duration": 0.1578944999999976,
            "durationTicks": 96,
            "midi": 52,
            "name": "E3",
            "ticks": 62784,
            "time": 103.263003,
            "velocity": 0.1732283464566929
          },
          {
            "duration": 0.1578944999999976,
            "durationTicks": 96,
            "midi": 52,
            "name": "E3",
            "ticks": 63168,
            "time": 103.894581,
            "velocity": 0.1732283464566929
          },
          {
            "duration": 0.1578944999999976,
            "durationTicks": 96,
            "midi": 52,
            "name": "E3",
            "ticks": 63552,
            "time": 104.52615899999999,
            "velocity": 0.1732283464566929
          },
          {
            "duration": 0.0789472499999988,
            "durationTicks": 48,
            "midi": 52,
            "name": "E3",
            "ticks": 63840,
            "time": 104.9998425,
            "velocity": 0.1732283464566929
          },
          {
            "duration": 0.0789472499999988,
            "durationTicks": 48,
            "midi": 52,
            "name": "E3",
            "ticks": 63888,
            "time": 105.07878975,
            "velocity": 0.1732283464566929
          },
          {
            "duration": 0.1578944999999976,
            "durationTicks": 96,
            "midi": 52,
            "name": "E3",
            "ticks": 63936,
            "time": 105.157737,
            "velocity": 0.1732283464566929
          },
          {
            "duration": 0.1578944999999976,
            "durationTicks": 96,
            "midi": 52,
            "name": "E3",
            "ticks": 64128,
            "time": 105.47352599999999,
            "velocity": 0.1732283464566929
          },
          {
            "duration": 0.1578944999999976,
            "durationTicks": 96,
            "midi": 52,
            "name": "E3",
            "ticks": 64320,
            "time": 105.789315,
            "velocity": 0.1732283464566929
          },
          {
            "duration": 0.1578944999999976,
            "durationTicks": 96,
            "midi": 52,
            "name": "E3",
            "ticks": 64704,
            "time": 106.42089299999999,
            "velocity": 0.1732283464566929
          },
          {
            "duration": 0.1578944999999976,
            "durationTicks": 96,
            "midi": 52,
            "name": "E3",
            "ticks": 65088,
            "time": 107.052471,
            "velocity": 0.1732283464566929
          },
          {
            "duration": 0.1578944999999976,
            "durationTicks": 96,
            "midi": 52,
            "name": "E3",
            "ticks": 65472,
            "time": 107.684049,
            "velocity": 0.1732283464566929
          },
          {
            "duration": 0.1578944999999976,
            "durationTicks": 96,
            "midi": 52,
            "name": "E3",
            "ticks": 65856,
            "time": 108.31562699999999,
            "velocity": 0.1732283464566929
          },
          {
            "duration": 0.1578944999999976,
            "durationTicks": 96,
            "midi": 52,
            "name": "E3",
            "ticks": 66240,
            "time": 108.947205,
            "velocity": 0.1732283464566929
          },
          {
            "duration": 0.1578944999999976,
            "durationTicks": 96,
            "midi": 52,
            "name": "E3",
            "ticks": 66624,
            "time": 109.578783,
            "velocity": 0.1732283464566929
          },
          {
            "duration": 0.1578944999999976,
            "durationTicks": 96,
            "midi": 52,
            "name": "E3",
            "ticks": 67008,
            "time": 110.21036099999999,
            "velocity": 0.1732283464566929
          },
          {
            "duration": 0.1578944999999976,
            "durationTicks": 96,
            "midi": 52,
            "name": "E3",
            "ticks": 67392,
            "time": 110.841939,
            "velocity": 0.1732283464566929
          },
          {
            "duration": 0.1578944999999976,
            "durationTicks": 96,
            "midi": 52,
            "name": "E3",
            "ticks": 67776,
            "time": 111.473517,
            "velocity": 0.1732283464566929
          },
          {
            "duration": 0.1578944999999976,
            "durationTicks": 96,
            "midi": 52,
            "name": "E3",
            "ticks": 68160,
            "time": 112.10509499999999,
            "velocity": 0.1732283464566929
          },
          {
            "duration": 0.1578944999999976,
            "durationTicks": 96,
            "midi": 52,
            "name": "E3",
            "ticks": 68544,
            "time": 112.736673,
            "velocity": 0.1732283464566929
          },
          {
            "duration": 0.1578944999999976,
            "durationTicks": 96,
            "midi": 52,
            "name": "E3",
            "ticks": 68928,
            "time": 113.368251,
            "velocity": 0.1732283464566929
          },
          {
            "duration": 0.1578944999999976,
            "durationTicks": 96,
            "midi": 52,
            "name": "E3",
            "ticks": 69312,
            "time": 113.99982899999999,
            "velocity": 0.1732283464566929
          },
          {
            "duration": 0.1578944999999976,
            "durationTicks": 96,
            "midi": 52,
            "name": "E3",
            "ticks": 69696,
            "time": 114.631407,
            "velocity": 0.1732283464566929
          },
          {
            "duration": 0.07894725000001301,
            "durationTicks": 48,
            "midi": 52,
            "name": "E3",
            "ticks": 69984,
            "time": 115.10509049999999,
            "velocity": 0.1732283464566929
          },
          {
            "duration": 0.0789472499999988,
            "durationTicks": 48,
            "midi": 52,
            "name": "E3",
            "ticks": 70032,
            "time": 115.18403775,
            "velocity": 0.1732283464566929
          },
          {
            "duration": 0.1578944999999976,
            "durationTicks": 96,
            "midi": 52,
            "name": "E3",
            "ticks": 70080,
            "time": 115.262985,
            "velocity": 0.1732283464566929
          },
          {
            "duration": 0.1578944999999976,
            "durationTicks": 96,
            "midi": 52,
            "name": "E3",
            "ticks": 70272,
            "time": 115.578774,
            "velocity": 0.1732283464566929
          },
          {
            "duration": 0.1578944999999976,
            "durationTicks": 96,
            "midi": 52,
            "name": "E3",
            "ticks": 70464,
            "time": 115.89456299999999,
            "velocity": 0.1732283464566929
          },
          {
            "duration": 0.1578944999999976,
            "durationTicks": 96,
            "midi": 52,
            "name": "E3",
            "ticks": 70848,
            "time": 116.526141,
            "velocity": 0.1732283464566929
          },
          {
            "duration": 0.1578944999999976,
            "durationTicks": 96,
            "midi": 52,
            "name": "E3",
            "ticks": 71232,
            "time": 117.157719,
            "velocity": 0.1732283464566929
          },
          {
            "duration": 0.1578944999999976,
            "durationTicks": 96,
            "midi": 52,
            "name": "E3",
            "ticks": 71616,
            "time": 117.78929699999999,
            "velocity": 0.1732283464566929
          },
          {
            "duration": 0.1578944999999976,
            "durationTicks": 96,
            "midi": 52,
            "name": "E3",
            "ticks": 72000,
            "time": 118.420875,
            "velocity": 0.1732283464566929
          },
          {
            "duration": 0.1578944999999976,
            "durationTicks": 96,
            "midi": 52,
            "name": "E3",
            "ticks": 72384,
            "time": 119.052453,
            "velocity": 0.1732283464566929
          },
          {
            "duration": 0.1578944999999976,
            "durationTicks": 96,
            "midi": 52,
            "name": "E3",
            "ticks": 72768,
            "time": 119.68403099999999,
            "velocity": 0.1732283464566929
          },
          {
            "duration": 0.1578944999999976,
            "durationTicks": 96,
            "midi": 52,
            "name": "E3",
            "ticks": 73152,
            "time": 120.315609,
            "velocity": 0.1732283464566929
          },
          {
            "duration": 0.1578944999999976,
            "durationTicks": 96,
            "midi": 52,
            "name": "E3",
            "ticks": 73536,
            "time": 120.947187,
            "velocity": 0.1732283464566929
          },
          {
            "duration": 0.15789450000001182,
            "durationTicks": 96,
            "midi": 52,
            "name": "E3",
            "ticks": 73920,
            "time": 121.57876499999999,
            "velocity": 0.1732283464566929
          },
          {
            "duration": 0.1578944999999976,
            "durationTicks": 96,
            "midi": 52,
            "name": "E3",
            "ticks": 74304,
            "time": 122.210343,
            "velocity": 0.1732283464566929
          },
          {
            "duration": 0.1578944999999976,
            "durationTicks": 96,
            "midi": 52,
            "name": "E3",
            "ticks": 74688,
            "time": 122.841921,
            "velocity": 0.1732283464566929
          },
          {
            "duration": 0.15789450000001182,
            "durationTicks": 96,
            "midi": 52,
            "name": "E3",
            "ticks": 75072,
            "time": 123.47349899999999,
            "velocity": 0.1732283464566929
          },
          {
            "duration": 0.1578944999999976,
            "durationTicks": 96,
            "midi": 52,
            "name": "E3",
            "ticks": 75456,
            "time": 124.105077,
            "velocity": 0.1732283464566929
          },
          {
            "duration": 0.1578944999999976,
            "durationTicks": 96,
            "midi": 52,
            "name": "E3",
            "ticks": 75840,
            "time": 124.736655,
            "velocity": 0.1732283464566929
          },
          {
            "duration": 0.0789472499999988,
            "durationTicks": 48,
            "midi": 52,
            "name": "E3",
            "ticks": 76128,
            "time": 125.21033849999999,
            "velocity": 0.1732283464566929
          },
          {
            "duration": 0.0789472499999988,
            "durationTicks": 48,
            "midi": 52,
            "name": "E3",
            "ticks": 76176,
            "time": 125.28928574999999,
            "velocity": 0.1732283464566929
          },
          {
            "duration": 0.15789450000001182,
            "durationTicks": 96,
            "midi": 52,
            "name": "E3",
            "ticks": 76224,
            "time": 125.36823299999999,
            "velocity": 0.1732283464566929
          },
          {
            "duration": 0.1578944999999976,
            "durationTicks": 96,
            "midi": 52,
            "name": "E3",
            "ticks": 76416,
            "time": 125.684022,
            "velocity": 0.1732283464566929
          },
          {
            "duration": 0.1578944999999976,
            "durationTicks": 96,
            "midi": 52,
            "name": "E3",
            "ticks": 76608,
            "time": 125.999811,
            "velocity": 0.1732283464566929
          },
          {
            "duration": 0.3157889999999952,
            "durationTicks": 192,
            "midi": 52,
            "name": "E3",
            "ticks": 89472,
            "time": 147.157674,
            "velocity": 0.1732283464566929
          },
          {
            "duration": 0.3157889999999952,
            "durationTicks": 192,
            "midi": 52,
            "name": "E3",
            "ticks": 90240,
            "time": 148.42083,
            "velocity": 0.1732283464566929
          },
          {
            "duration": 0.3157889999999952,
            "durationTicks": 192,
            "midi": 52,
            "name": "E3",
            "ticks": 91008,
            "time": 149.683986,
            "velocity": 0.1732283464566929
          },
          {
            "duration": 0.3157889999999952,
            "durationTicks": 192,
            "midi": 52,
            "name": "E3",
            "ticks": 91776,
            "time": 150.94714199999999,
            "velocity": 0.1732283464566929
          },
          {
            "duration": 0.3157889999999952,
            "durationTicks": 192,
            "midi": 52,
            "name": "E3",
            "ticks": 92544,
            "time": 152.210298,
            "velocity": 0.1732283464566929
          },
          {
            "duration": 0.3157889999999952,
            "durationTicks": 192,
            "midi": 52,
            "name": "E3",
            "ticks": 93312,
            "time": 153.473454,
            "velocity": 0.1732283464566929
          },
          {
            "duration": 0.3157889999999952,
            "durationTicks": 192,
            "midi": 52,
            "name": "E3",
            "ticks": 94080,
            "time": 154.73660999999998,
            "velocity": 0.1732283464566929
          },
          {
            "duration": 0.3157889999999952,
            "durationTicks": 192,
            "midi": 52,
            "name": "E3",
            "ticks": 94656,
            "time": 155.683977,
            "velocity": 0.1732283464566929
          },
          {
            "duration": 0.3157889999999952,
            "durationTicks": 192,
            "midi": 52,
            "name": "E3",
            "ticks": 95616,
            "time": 157.262922,
            "velocity": 0.1732283464566929
          },
          {
            "duration": 0.3157889999999952,
            "durationTicks": 192,
            "midi": 52,
            "name": "E3",
            "ticks": 96384,
            "time": 158.52607799999998,
            "velocity": 0.1732283464566929
          },
          {
            "duration": 0.3157889999999952,
            "durationTicks": 192,
            "midi": 52,
            "name": "E3",
            "ticks": 97152,
            "time": 159.789234,
            "velocity": 0.1732283464566929
          },
          {
            "duration": 0.3157889999999952,
            "durationTicks": 192,
            "midi": 52,
            "name": "E3",
            "ticks": 97920,
            "time": 161.05239,
            "velocity": 0.1732283464566929
          },
          {
            "duration": 0.31578900000002363,
            "durationTicks": 192,
            "midi": 52,
            "name": "E3",
            "ticks": 98688,
            "time": 162.31554599999998,
            "velocity": 0.1732283464566929
          },
          {
            "duration": 0.3157889999999952,
            "durationTicks": 192,
            "midi": 52,
            "name": "E3",
            "ticks": 99456,
            "time": 163.578702,
            "velocity": 0.1732283464566929
          },
          {
            "duration": 0.1578944999999976,
            "durationTicks": 96,
            "midi": 52,
            "name": "E3",
            "ticks": 100224,
            "time": 164.841858,
            "velocity": 0.1732283464566929
          },
          {
            "duration": 0.1578944999999976,
            "durationTicks": 96,
            "midi": 52,
            "name": "E3",
            "ticks": 100320,
            "time": 164.9997525,
            "velocity": 0.1732283464566929
          },
          {
            "duration": 0.1578944999999976,
            "durationTicks": 96,
            "midi": 52,
            "name": "E3",
            "ticks": 100512,
            "time": 165.3155415,
            "velocity": 0.1732283464566929
          },
          {
            "duration": 0.3157889999999952,
            "durationTicks": 192,
            "midi": 52,
            "name": "E3",
            "ticks": 100608,
            "time": 165.473436,
            "velocity": 0.1732283464566929
          },
          {
            "duration": 0.1578944999999976,
            "durationTicks": 96,
            "midi": 52,
            "name": "E3",
            "ticks": 100992,
            "time": 166.10501399999998,
            "velocity": 0.1732283464566929
          },
          {
            "duration": 0.15789450000002603,
            "durationTicks": 96,
            "midi": 52,
            "name": "E3",
            "ticks": 101088,
            "time": 166.26290849999998,
            "velocity": 0.1732283464566929
          },
          {
            "duration": 0.1578944999999976,
            "durationTicks": 96,
            "midi": 52,
            "name": "E3",
            "ticks": 101184,
            "time": 166.420803,
            "velocity": 0.1732283464566929
          },
          {
            "duration": 0.1578944999999976,
            "durationTicks": 96,
            "midi": 52,
            "name": "E3",
            "ticks": 101280,
            "time": 166.5786975,
            "velocity": 0.1732283464566929
          }
        ],
        "endOfTrackTicks": 101376
      },
      {
        "channel": 5,
        "controlChanges": {},
        "pitchBends": [],
        "instrument": {
          "family": "piano",
          "number": 0,
          "name": "acoustic grand piano"
        },
        "name": "Grand Piano",
        "notes": [
          {
            "duration": 5.052624,
            "durationTicks": 3072,
            "midi": 37,
            "name": "C#2",
            "ticks": 0,
            "time": 0,
            "velocity": 0.7874015748031497
          },
          {
            "duration": 5.052624,
            "durationTicks": 3072,
            "midi": 37,
            "name": "C#2",
            "ticks": 3072,
            "time": 5.052624,
            "velocity": 0.7874015748031497
          },
          {
            "duration": 5.052624,
            "durationTicks": 3072,
            "midi": 37,
            "name": "C#2",
            "ticks": 6144,
            "time": 10.105248,
            "velocity": 0.7874015748031497
          },
          {
            "duration": 2.526311999999999,
            "durationTicks": 1536,
            "midi": 38,
            "name": "D2",
            "ticks": 9216,
            "time": 15.157872,
            "velocity": 0.7874015748031497
          },
          {
            "duration": 2.526312000000001,
            "durationTicks": 1536,
            "midi": 37,
            "name": "C#2",
            "ticks": 10752,
            "time": 17.684184,
            "velocity": 0.7874015748031497
          },
          {
            "duration": 2.526312000000001,
            "durationTicks": 1536,
            "midi": 42,
            "name": "F#2",
            "ticks": 12288,
            "time": 20.210496,
            "velocity": 0.7874015748031497
          },
          {
            "duration": 2.526312000000001,
            "durationTicks": 1536,
            "midi": 40,
            "name": "E2",
            "ticks": 13824,
            "time": 22.736808,
            "velocity": 0.7874015748031497
          },
          {
            "duration": 1.2631559999999986,
            "durationTicks": 768,
            "midi": 33,
            "name": "A1",
            "ticks": 15360,
            "time": 25.26312,
            "velocity": 0.7874015748031497
          },
          {
            "duration": 1.2631559999999986,
            "durationTicks": 768,
            "midi": 35,
            "name": "B1",
            "ticks": 16128,
            "time": 26.526276,
            "velocity": 0.7874015748031497
          },
          {
            "duration": 2.526312000000001,
            "durationTicks": 1536,
            "midi": 37,
            "name": "C#2",
            "ticks": 16896,
            "time": 27.789431999999998,
            "velocity": 0.7874015748031497
          },
          {
            "duration": 2.526312000000001,
            "durationTicks": 1536,
            "midi": 35,
            "name": "B1",
            "ticks": 18432,
            "time": 30.315744,
            "velocity": 0.7874015748031497
          },
          {
            "duration": 2.5263119999999972,
            "durationTicks": 1536,
            "midi": 30,
            "name": "F#1",
            "ticks": 19968,
            "time": 32.842056,
            "velocity": 0.7874015748031497
          },
          {
            "duration": 1.2631560000000022,
            "durationTicks": 768,
            "midi": 33,
            "name": "A1",
            "ticks": 21504,
            "time": 35.368368,
            "velocity": 0.7874015748031497
          },
          {
            "duration": 1.2631560000000022,
            "durationTicks": 768,
            "midi": 35,
            "name": "B1",
            "ticks": 22272,
            "time": 36.631524,
            "velocity": 0.7874015748031497
          },
          {
            "duration": 1.263155999999995,
            "durationTicks": 768,
            "midi": 37,
            "name": "C#2",
            "ticks": 23040,
            "time": 37.89468,
            "velocity": 0.7874015748031497
          },
          {
            "duration": 0.6315780000000046,
            "durationTicks": 384,
            "midi": 37,
            "name": "C#2",
            "ticks": 23808,
            "time": 39.157835999999996,
            "velocity": 0.7874015748031497
          },
          {
            "duration": 0.6315779999999975,
            "durationTicks": 384,
            "midi": 35,
            "name": "B1",
            "ticks": 24192,
            "time": 39.789414,
            "velocity": 0.7874015748031497
          },
          {
            "duration": 1.2631560000000022,
            "durationTicks": 768,
            "midi": 34,
            "name": "A#1",
            "ticks": 24576,
            "time": 40.420992,
            "velocity": 0.7874015748031497
          },
          {
            "duration": 1.263155999999995,
            "durationTicks": 768,
            "midi": 30,
            "name": "F#1",
            "ticks": 25344,
            "time": 41.684148,
            "velocity": 0.7874015748031497
          },
          {
            "duration": 1.2631560000000022,
            "durationTicks": 768,
            "midi": 33,
            "name": "A1",
            "ticks": 26112,
            "time": 42.947303999999995,
            "velocity": 0.7874015748031497
          },
          {
            "duration": 0.6315779999999975,
            "durationTicks": 384,
            "midi": 32,
            "name": "G#1",
            "ticks": 26880,
            "time": 44.21046,
            "velocity": 0.7874015748031497
          },
          {
            "duration": 0.6315780000000046,
            "durationTicks": 384,
            "midi": 35,
            "name": "B1",
            "ticks": 27264,
            "time": 44.842037999999995,
            "velocity": 0.7874015748031497
          },
          {
            "duration": 0.3157889999999952,
            "durationTicks": 192,
            "midi": 37,
            "name": "C#2",
            "ticks": 27648,
            "time": 45.473616,
            "velocity": 0.7874015748031497
          },
          {
            "duration": 0.3157889999999952,
            "durationTicks": 192,
            "midi": 49,
            "name": "C#3",
            "ticks": 27648,
            "time": 45.473616,
            "velocity": 0.7874015748031497
          },
          {
            "duration": 0.3157890000000023,
            "durationTicks": 192,
            "midi": 49,
            "name": "C#3",
            "ticks": 28032,
            "time": 46.105194,
            "velocity": 0.7874015748031497
          },
          {
            "duration": 0.3157890000000023,
            "durationTicks": 192,
            "midi": 37,
            "name": "C#2",
            "ticks": 28032,
            "time": 46.105194,
            "velocity": 0.7874015748031497
          },
          {
            "duration": 0.3157890000000023,
            "durationTicks": 192,
            "midi": 37,
            "name": "C#2",
            "ticks": 28416,
            "time": 46.736771999999995,
            "velocity": 0.7874015748031497
          },
          {
            "duration": 0.3157890000000023,
            "durationTicks": 192,
            "midi": 49,
            "name": "C#3",
            "ticks": 28416,
            "time": 46.736771999999995,
            "velocity": 0.7874015748031497
          },
          {
            "duration": 0.3157889999999952,
            "durationTicks": 192,
            "midi": 37,
            "name": "C#2",
            "ticks": 28800,
            "time": 47.36835,
            "velocity": 0.7874015748031497
          },
          {
            "duration": 0.3157889999999952,
            "durationTicks": 192,
            "midi": 49,
            "name": "C#3",
            "ticks": 28800,
            "time": 47.36835,
            "velocity": 0.7874015748031497
          },
          {
            "duration": 0.3157890000000023,
            "durationTicks": 192,
            "midi": 50,
            "name": "D3",
            "ticks": 29184,
            "time": 47.999928,
            "velocity": 0.7874015748031497
          },
          {
            "duration": 0.3157890000000023,
            "durationTicks": 192,
            "midi": 38,
            "name": "D2",
            "ticks": 29184,
            "time": 47.999928,
            "velocity": 0.7874015748031497
          },
          {
            "duration": 0.3157890000000023,
            "durationTicks": 192,
            "midi": 38,
            "name": "D2",
            "ticks": 29568,
            "time": 48.631505999999995,
            "velocity": 0.7874015748031497
          },
          {
            "duration": 0.3157890000000023,
            "durationTicks": 192,
            "midi": 50,
            "name": "D3",
            "ticks": 29568,
            "time": 48.631505999999995,
            "velocity": 0.7874015748031497
          },
          {
            "duration": 0.3157889999999952,
            "durationTicks": 192,
            "midi": 50,
            "name": "D3",
            "ticks": 29952,
            "time": 49.263084,
            "velocity": 0.7874015748031497
          },
          {
            "duration": 0.3157889999999952,
            "durationTicks": 192,
            "midi": 38,
            "name": "D2",
            "ticks": 29952,
            "time": 49.263084,
            "velocity": 0.7874015748031497
          },
          {
            "duration": 0.3157890000000023,
            "durationTicks": 192,
            "midi": 50,
            "name": "D3",
            "ticks": 30336,
            "time": 49.894662,
            "velocity": 0.7874015748031497
          },
          {
            "duration": 0.3157890000000023,
            "durationTicks": 192,
            "midi": 38,
            "name": "D2",
            "ticks": 30336,
            "time": 49.894662,
            "velocity": 0.7874015748031497
          },
          {
            "duration": 0.1578945000000047,
            "durationTicks": 96,
            "midi": 31,
            "name": "G1",
            "ticks": 30624,
            "time": 50.3683455,
            "velocity": 0.7874015748031497
          },
          {
            "duration": 0.1578945000000047,
            "durationTicks": 96,
            "midi": 43,
            "name": "G2",
            "ticks": 30624,
            "time": 50.3683455,
            "velocity": 0.7874015748031497
          },
          {
            "duration": 0.3157889999999952,
            "durationTicks": 192,
            "midi": 43,
            "name": "G2",
            "ticks": 30720,
            "time": 50.52624,
            "velocity": 0.7874015748031497
          },
          {
            "duration": 0.3157889999999952,
            "durationTicks": 192,
            "midi": 31,
            "name": "G1",
            "ticks": 30720,
            "time": 50.52624,
            "velocity": 0.7874015748031497
          },
          {
            "duration": 0.3157890000000023,
            "durationTicks": 192,
            "midi": 43,
            "name": "G2",
            "ticks": 31104,
            "time": 51.157818,
            "velocity": 0.7874015748031497
          },
          {
            "duration": 0.3157890000000023,
            "durationTicks": 192,
            "midi": 31,
            "name": "G1",
            "ticks": 31104,
            "time": 51.157818,
            "velocity": 0.7874015748031497
          },
          {
            "duration": 0.3157890000000023,
            "durationTicks": 192,
            "midi": 31,
            "name": "G1",
            "ticks": 31488,
            "time": 51.789395999999996,
            "velocity": 0.7874015748031497
          },
          {
            "duration": 0.3157890000000023,
            "durationTicks": 192,
            "midi": 43,
            "name": "G2",
            "ticks": 31488,
            "time": 51.789395999999996,
            "velocity": 0.7874015748031497
          },
          {
            "duration": 0.3157889999999952,
            "durationTicks": 192,
            "midi": 31,
            "name": "G1",
            "ticks": 31872,
            "time": 52.420974,
            "velocity": 0.7874015748031497
          },
          {
            "duration": 0.3157889999999952,
            "durationTicks": 192,
            "midi": 43,
            "name": "G2",
            "ticks": 31872,
            "time": 52.420974,
            "velocity": 0.7874015748031497
          },
          {
            "duration": 0.3157890000000023,
            "durationTicks": 192,
            "midi": 45,
            "name": "A2",
            "ticks": 32256,
            "time": 53.052552,
            "velocity": 0.7874015748031497
          },
          {
            "duration": 0.3157890000000023,
            "durationTicks": 192,
            "midi": 33,
            "name": "A1",
            "ticks": 32256,
            "time": 53.052552,
            "velocity": 0.7874015748031497
          },
          {
            "duration": 0.3157890000000023,
            "durationTicks": 192,
            "midi": 45,
            "name": "A2",
            "ticks": 32640,
            "time": 53.684129999999996,
            "velocity": 0.7874015748031497
          },
          {
            "duration": 0.3157890000000023,
            "durationTicks": 192,
            "midi": 33,
            "name": "A1",
            "ticks": 32640,
            "time": 53.684129999999996,
            "velocity": 0.7874015748031497
          },
          {
            "duration": 0.3157889999999952,
            "durationTicks": 192,
            "midi": 35,
            "name": "B1",
            "ticks": 33024,
            "time": 54.315708,
            "velocity": 0.7874015748031497
          },
          {
            "duration": 0.3157889999999952,
            "durationTicks": 192,
            "midi": 47,
            "name": "B2",
            "ticks": 33024,
            "time": 54.315708,
            "velocity": 0.7874015748031497
          },
          {
            "duration": 0.3157890000000023,
            "durationTicks": 192,
            "midi": 47,
            "name": "B2",
            "ticks": 33408,
            "time": 54.947286,
            "velocity": 0.7874015748031497
          },
          {
            "duration": 0.3157890000000023,
            "durationTicks": 192,
            "midi": 35,
            "name": "B1",
            "ticks": 33408,
            "time": 54.947286,
            "velocity": 0.7874015748031497
          },
          {
            "duration": 0.1578944999999976,
            "durationTicks": 96,
            "midi": 47,
            "name": "B2",
            "ticks": 33600,
            "time": 55.263075,
            "velocity": 0.7874015748031497
          },
          {
            "duration": 0.1578944999999976,
            "durationTicks": 96,
            "midi": 35,
            "name": "B1",
            "ticks": 33600,
            "time": 55.263075,
            "velocity": 0.7874015748031497
          },
          {
            "duration": 0.1578944999999976,
            "durationTicks": 96,
            "midi": 35,
            "name": "B1",
            "ticks": 33696,
            "time": 55.4209695,
            "velocity": 0.7874015748031497
          },
          {
            "duration": 0.1578944999999976,
            "durationTicks": 96,
            "midi": 47,
            "name": "B2",
            "ticks": 33696,
            "time": 55.4209695,
            "velocity": 0.7874015748031497
          },
          {
            "duration": 0.3157890000000023,
            "durationTicks": 192,
            "midi": 37,
            "name": "C#2",
            "ticks": 33792,
            "time": 55.578863999999996,
            "velocity": 0.7874015748031497
          },
          {
            "duration": 0.3157890000000023,
            "durationTicks": 192,
            "midi": 49,
            "name": "C#3",
            "ticks": 33792,
            "time": 55.578863999999996,
            "velocity": 0.7874015748031497
          },
          {
            "duration": 0.3157890000000023,
            "durationTicks": 192,
            "midi": 37,
            "name": "C#2",
            "ticks": 33984,
            "time": 55.894653,
            "velocity": 0.7874015748031497
          },
          {
            "duration": 0.3157890000000023,
            "durationTicks": 192,
            "midi": 49,
            "name": "C#3",
            "ticks": 33984,
            "time": 55.894653,
            "velocity": 0.7874015748031497
          },
          {
            "duration": 0.3157889999999952,
            "durationTicks": 192,
            "midi": 37,
            "name": "C#2",
            "ticks": 34176,
            "time": 56.210442,
            "velocity": 0.7874015748031497
          },
          {
            "duration": 0.3157889999999952,
            "durationTicks": 192,
            "midi": 49,
            "name": "C#3",
            "ticks": 34176,
            "time": 56.210442,
            "velocity": 0.7874015748031497
          },
          {
            "duration": 0.3157890000000023,
            "durationTicks": 192,
            "midi": 49,
            "name": "C#3",
            "ticks": 34368,
            "time": 56.526230999999996,
            "velocity": 0.7874015748031497
          },
          {
            "duration": 0.3157890000000023,
            "durationTicks": 192,
            "midi": 37,
            "name": "C#2",
            "ticks": 34368,
            "time": 56.526230999999996,
            "velocity": 0.7874015748031497
          },
          {
            "duration": 0.3157890000000023,
            "durationTicks": 192,
            "midi": 37,
            "name": "C#2",
            "ticks": 34560,
            "time": 56.84202,
            "velocity": 0.7874015748031497
          },
          {
            "duration": 0.3157890000000023,
            "durationTicks": 192,
            "midi": 49,
            "name": "C#3",
            "ticks": 34560,
            "time": 56.84202,
            "velocity": 0.7874015748031497
          },
          {
            "duration": 0.3157889999999952,
            "durationTicks": 192,
            "midi": 37,
            "name": "C#2",
            "ticks": 34752,
            "time": 57.157809,
            "velocity": 0.7874015748031497
          },
          {
            "duration": 0.3157889999999952,
            "durationTicks": 192,
            "midi": 49,
            "name": "C#3",
            "ticks": 34752,
            "time": 57.157809,
            "velocity": 0.7874015748031497
          },
          {
            "duration": 0.3157890000000023,
            "durationTicks": 192,
            "midi": 49,
            "name": "C#3",
            "ticks": 34944,
            "time": 57.473597999999996,
            "velocity": 0.7874015748031497
          },
          {
            "duration": 0.3157890000000023,
            "durationTicks": 192,
            "midi": 37,
            "name": "C#2",
            "ticks": 34944,
            "time": 57.473597999999996,
            "velocity": 0.7874015748031497
          },
          {
            "duration": 0.3157890000000023,
            "durationTicks": 192,
            "midi": 37,
            "name": "C#2",
            "ticks": 35136,
            "time": 57.789387,
            "velocity": 0.7874015748031497
          },
          {
            "duration": 0.3157890000000023,
            "durationTicks": 192,
            "midi": 49,
            "name": "C#3",
            "ticks": 35136,
            "time": 57.789387,
            "velocity": 0.7874015748031497
          },
          {
            "duration": 0.3157889999999952,
            "durationTicks": 192,
            "midi": 50,
            "name": "D3",
            "ticks": 35328,
            "time": 58.105176,
            "velocity": 0.7874015748031497
          },
          {
            "duration": 0.3157889999999952,
            "durationTicks": 192,
            "midi": 38,
            "name": "D2",
            "ticks": 35328,
            "time": 58.105176,
            "velocity": 0.7874015748031497
          },
          {
            "duration": 0.3157890000000023,
            "durationTicks": 192,
            "midi": 50,
            "name": "D3",
            "ticks": 35520,
            "time": 58.420964999999995,
            "velocity": 0.7874015748031497
          },
          {
            "duration": 0.3157890000000023,
            "durationTicks": 192,
            "midi": 38,
            "name": "D2",
            "ticks": 35520,
            "time": 58.420964999999995,
            "velocity": 0.7874015748031497
          },
          {
            "duration": 0.3157890000000023,
            "durationTicks": 192,
            "midi": 38,
            "name": "D2",
            "ticks": 35712,
            "time": 58.736754,
            "velocity": 0.7874015748031497
          },
          {
            "duration": 0.3157890000000023,
            "durationTicks": 192,
            "midi": 50,
            "name": "D3",
            "ticks": 35712,
            "time": 58.736754,
            "velocity": 0.7874015748031497
          },
          {
            "duration": 0.3157889999999952,
            "durationTicks": 192,
            "midi": 50,
            "name": "D3",
            "ticks": 35904,
            "time": 59.052543,
            "velocity": 0.7874015748031497
          },
          {
            "duration": 0.3157889999999952,
            "durationTicks": 192,
            "midi": 38,
            "name": "D2",
            "ticks": 35904,
            "time": 59.052543,
            "velocity": 0.7874015748031497
          },
          {
            "duration": 0.3157890000000023,
            "durationTicks": 192,
            "midi": 38,
            "name": "D2",
            "ticks": 36096,
            "time": 59.368331999999995,
            "velocity": 0.7874015748031497
          },
          {
            "duration": 0.3157890000000023,
            "durationTicks": 192,
            "midi": 50,
            "name": "D3",
            "ticks": 36096,
            "time": 59.368331999999995,
            "velocity": 0.7874015748031497
          },
          {
            "duration": 0.3157890000000023,
            "durationTicks": 192,
            "midi": 38,
            "name": "D2",
            "ticks": 36288,
            "time": 59.684121,
            "velocity": 0.7874015748031497
          },
          {
            "duration": 0.3157890000000023,
            "durationTicks": 192,
            "midi": 50,
            "name": "D3",
            "ticks": 36288,
            "time": 59.684121,
            "velocity": 0.7874015748031497
          },
          {
            "duration": 0.3157889999999952,
            "durationTicks": 192,
            "midi": 50,
            "name": "D3",
            "ticks": 36480,
            "time": 59.99991,
            "velocity": 0.7874015748031497
          },
          {
            "duration": 0.3157889999999952,
            "durationTicks": 192,
            "midi": 38,
            "name": "D2",
            "ticks": 36480,
            "time": 59.99991,
            "velocity": 0.7874015748031497
          },
          {
            "duration": 0.3157890000000023,
            "durationTicks": 192,
            "midi": 38,
            "name": "D2",
            "ticks": 36672,
            "time": 60.315698999999995,
            "velocity": 0.7874015748031497
          },
          {
            "duration": 0.3157890000000023,
            "durationTicks": 192,
            "midi": 50,
            "name": "D3",
            "ticks": 36672,
            "time": 60.315698999999995,
            "velocity": 0.7874015748031497
          },
          {
            "duration": 0.1578944999999976,
            "durationTicks": 96,
            "midi": 31,
            "name": "G1",
            "ticks": 36864,
            "time": 60.631488,
            "velocity": 0.7874015748031497
          },
          {
            "duration": 0.1578945000000047,
            "durationTicks": 96,
            "midi": 43,
            "name": "G2",
            "ticks": 36960,
            "time": 60.789382499999995,
            "velocity": 0.7874015748031497
          },
          {
            "duration": 0.1578944999999976,
            "durationTicks": 96,
            "midi": 31,
            "name": "G1",
            "ticks": 37056,
            "time": 60.947277,
            "velocity": 0.7874015748031497
          },
          {
            "duration": 0.1578944999999976,
            "durationTicks": 96,
            "midi": 43,
            "name": "G2",
            "ticks": 37152,
            "time": 61.1051715,
            "velocity": 0.7874015748031497
          },
          {
            "duration": 0.1578945000000047,
            "durationTicks": 96,
            "midi": 31,
            "name": "G1",
            "ticks": 37248,
            "time": 61.263065999999995,
            "velocity": 0.7874015748031497
          },
          {
            "duration": 0.1578944999999976,
            "durationTicks": 96,
            "midi": 43,
            "name": "G2",
            "ticks": 37344,
            "time": 61.4209605,
            "velocity": 0.7874015748031497
          },
          {
            "duration": 0.1578944999999976,
            "durationTicks": 96,
            "midi": 31,
            "name": "G1",
            "ticks": 37440,
            "time": 61.578855,
            "velocity": 0.7874015748031497
          },
          {
            "duration": 0.1578945000000047,
            "durationTicks": 96,
            "midi": 43,
            "name": "G2",
            "ticks": 37536,
            "time": 61.736749499999995,
            "velocity": 0.7874015748031497
          },
          {
            "duration": 0.1578944999999976,
            "durationTicks": 96,
            "midi": 31,
            "name": "G1",
            "ticks": 37632,
            "time": 61.894644,
            "velocity": 0.7874015748031497
          },
          {
            "duration": 0.1578944999999976,
            "durationTicks": 96,
            "midi": 43,
            "name": "G2",
            "ticks": 37728,
            "time": 62.0525385,
            "velocity": 0.7874015748031497
          },
          {
            "duration": 0.1578945000000047,
            "durationTicks": 96,
            "midi": 31,
            "name": "G1",
            "ticks": 37824,
            "time": 62.210432999999995,
            "velocity": 0.7874015748031497
          },
          {
            "duration": 0.1578944999999976,
            "durationTicks": 96,
            "midi": 43,
            "name": "G2",
            "ticks": 37920,
            "time": 62.3683275,
            "velocity": 0.7874015748031497
          },
          {
            "duration": 0.0789472499999988,
            "durationTicks": 48,
            "midi": 31,
            "name": "G1",
            "ticks": 38016,
            "time": 62.526222,
            "velocity": 0.7874015748031497
          },
          {
            "duration": 0.0789472499999988,
            "durationTicks": 48,
            "midi": 43,
            "name": "G2",
            "ticks": 38064,
            "time": 62.605169249999996,
            "velocity": 0.7874015748031497
          },
          {
            "duration": 0.07894725000000591,
            "durationTicks": 48,
            "midi": 31,
            "name": "G1",
            "ticks": 38112,
            "time": 62.684116499999995,
            "velocity": 0.7874015748031497
          },
          {
            "duration": 0.0789472499999988,
            "durationTicks": 48,
            "midi": 43,
            "name": "G2",
            "ticks": 38160,
            "time": 62.76306375,
            "velocity": 0.7874015748031497
          },
          {
            "duration": 0.0789472499999988,
            "durationTicks": 48,
            "midi": 31,
            "name": "G1",
            "ticks": 38208,
            "time": 62.842011,
            "velocity": 0.7874015748031497
          },
          {
            "duration": 0.0789472499999988,
            "durationTicks": 48,
            "midi": 43,
            "name": "G2",
            "ticks": 38256,
            "time": 62.92095825,
            "velocity": 0.7874015748031497
          },
          {
            "duration": 0.0789472499999988,
            "durationTicks": 48,
            "midi": 31,
            "name": "G1",
            "ticks": 38304,
            "time": 62.9999055,
            "velocity": 0.7874015748031497
          },
          {
            "duration": 0.0789472499999988,
            "durationTicks": 48,
            "midi": 43,
            "name": "G2",
            "ticks": 38352,
            "time": 63.078852749999996,
            "velocity": 0.7874015748031497
          },
          {
            "duration": 0.07894725000000591,
            "durationTicks": 48,
            "midi": 33,
            "name": "A1",
            "ticks": 38400,
            "time": 63.157799999999995,
            "velocity": 0.7874015748031497
          },
          {
            "duration": 0.0789472499999988,
            "durationTicks": 48,
            "midi": 45,
            "name": "A2",
            "ticks": 38448,
            "time": 63.23674725,
            "velocity": 0.7874015748031497
          },
          {
            "duration": 0.0789472499999988,
            "durationTicks": 48,
            "midi": 33,
            "name": "A1",
            "ticks": 38496,
            "time": 63.3156945,
            "velocity": 0.7874015748031497
          },
          {
            "duration": 0.0789472499999988,
            "durationTicks": 48,
            "midi": 45,
            "name": "A2",
            "ticks": 38544,
            "time": 63.39464175,
            "velocity": 0.7874015748031497
          },
          {
            "duration": 0.0789472499999988,
            "durationTicks": 48,
            "midi": 33,
            "name": "A1",
            "ticks": 38592,
            "time": 63.473589,
            "velocity": 0.7874015748031497
          },
          {
            "duration": 0.0789472499999988,
            "durationTicks": 48,
            "midi": 45,
            "name": "A2",
            "ticks": 38640,
            "time": 63.552536249999996,
            "velocity": 0.7874015748031497
          },
          {
            "duration": 0.07894725000000591,
            "durationTicks": 48,
            "midi": 33,
            "name": "A1",
            "ticks": 38688,
            "time": 63.631483499999995,
            "velocity": 0.7874015748031497
          },
          {
            "duration": 0.0789472499999988,
            "durationTicks": 48,
            "midi": 45,
            "name": "A2",
            "ticks": 38736,
            "time": 63.71043075,
            "velocity": 0.7874015748031497
          },
          {
            "duration": 0.0789472499999988,
            "durationTicks": 48,
            "midi": 33,
            "name": "A1",
            "ticks": 38784,
            "time": 63.789378,
            "velocity": 0.7874015748031497
          },
          {
            "duration": 0.0789472499999988,
            "durationTicks": 48,
            "midi": 45,
            "name": "A2",
            "ticks": 38832,
            "time": 63.86832525,
            "velocity": 0.7874015748031497
          },
          {
            "duration": 0.0789472499999988,
            "durationTicks": 48,
            "midi": 33,
            "name": "A1",
            "ticks": 38880,
            "time": 63.9472725,
            "velocity": 0.7874015748031497
          },
          {
            "duration": 0.0789472499999988,
            "durationTicks": 48,
            "midi": 45,
            "name": "A2",
            "ticks": 38928,
            "time": 64.02621975,
            "velocity": 0.7874015748031497
          },
          {
            "duration": 0.0789472499999988,
            "durationTicks": 48,
            "midi": 33,
            "name": "A1",
            "ticks": 38976,
            "time": 64.105167,
            "velocity": 0.7874015748031497
          },
          {
            "duration": 0.0789472499999988,
            "durationTicks": 48,
            "midi": 45,
            "name": "A2",
            "ticks": 39024,
            "time": 64.18411425,
            "velocity": 0.7874015748031497
          },
          {
            "duration": 0.0789472499999988,
            "durationTicks": 48,
            "midi": 33,
            "name": "A1",
            "ticks": 39072,
            "time": 64.26306149999999,
            "velocity": 0.7874015748031497
          },
          {
            "duration": 0.07894725000001301,
            "durationTicks": 48,
            "midi": 45,
            "name": "A2",
            "ticks": 39120,
            "time": 64.34200874999999,
            "velocity": 0.7874015748031497
          },
          {
            "duration": 0.3157889999999952,
            "durationTicks": 192,
            "midi": 35,
            "name": "B1",
            "ticks": 39168,
            "time": 64.420956,
            "velocity": 0.7874015748031497
          },
          {
            "duration": 0.3157889999999952,
            "durationTicks": 192,
            "midi": 47,
            "name": "B2",
            "ticks": 39168,
            "time": 64.420956,
            "velocity": 0.7874015748031497
          },
          {
            "duration": 0.1578944999999976,
            "durationTicks": 96,
            "midi": 35,
            "name": "B1",
            "ticks": 39360,
            "time": 64.736745,
            "velocity": 0.7874015748031497
          },
          {
            "duration": 0.1578944999999976,
            "durationTicks": 96,
            "midi": 47,
            "name": "B2",
            "ticks": 39360,
            "time": 64.736745,
            "velocity": 0.7874015748031497
          },
          {
            "duration": 0.47368350000000703,
            "durationTicks": 288,
            "midi": 32,
            "name": "G#1",
            "ticks": 39456,
            "time": 64.8946395,
            "velocity": 0.7874015748031497
          },
          {
            "duration": 0.47368350000000703,
            "durationTicks": 288,
            "midi": 44,
            "name": "G#2",
            "ticks": 39456,
            "time": 64.8946395,
            "velocity": 0.7874015748031497
          },
          {
            "duration": 0.3157889999999952,
            "durationTicks": 192,
            "midi": 35,
            "name": "B1",
            "ticks": 39744,
            "time": 65.368323,
            "velocity": 0.7874015748031497
          },
          {
            "duration": 0.3157889999999952,
            "durationTicks": 192,
            "midi": 47,
            "name": "B2",
            "ticks": 39744,
            "time": 65.368323,
            "velocity": 0.7874015748031497
          },
          {
            "duration": 2.5263120000000043,
            "durationTicks": 1536,
            "midi": 37,
            "name": "C#2",
            "ticks": 39936,
            "time": 65.684112,
            "velocity": 0.7874015748031497
          },
          {
            "duration": 2.5263120000000043,
            "durationTicks": 1536,
            "midi": 25,
            "name": "C#1",
            "ticks": 39936,
            "time": 65.684112,
            "velocity": 0.7874015748031497
          },
          {
            "duration": 2.52631199999999,
            "durationTicks": 1536,
            "midi": 38,
            "name": "D2",
            "ticks": 41472,
            "time": 68.210424,
            "velocity": 0.7874015748031497
          },
          {
            "duration": 2.52631199999999,
            "durationTicks": 1536,
            "midi": 26,
            "name": "D1",
            "ticks": 41472,
            "time": 68.210424,
            "velocity": 0.7874015748031497
          },
          {
            "duration": 2.5263120000000043,
            "durationTicks": 1536,
            "midi": 31,
            "name": "G1",
            "ticks": 43008,
            "time": 70.736736,
            "velocity": 0.7874015748031497
          },
          {
            "duration": 2.5263120000000043,
            "durationTicks": 1536,
            "midi": 43,
            "name": "G2",
            "ticks": 43008,
            "time": 70.736736,
            "velocity": 0.7874015748031497
          },
          {
            "duration": 1.263155999999995,
            "durationTicks": 768,
            "midi": 33,
            "name": "A1",
            "ticks": 44544,
            "time": 73.263048,
            "velocity": 0.7874015748031497
          },
          {
            "duration": 1.263155999999995,
            "durationTicks": 768,
            "midi": 45,
            "name": "A2",
            "ticks": 44544,
            "time": 73.263048,
            "velocity": 0.7874015748031497
          },
          {
            "duration": 1.2631560000000093,
            "durationTicks": 768,
            "midi": 47,
            "name": "B2",
            "ticks": 45312,
            "time": 74.52620399999999,
            "velocity": 0.7874015748031497
          },
          {
            "duration": 1.2631560000000093,
            "durationTicks": 768,
            "midi": 35,
            "name": "B1",
            "ticks": 45312,
            "time": 74.52620399999999,
            "velocity": 0.7874015748031497
          },
          {
            "duration": 2.52631199999999,
            "durationTicks": 1536,
            "midi": 37,
            "name": "C#2",
            "ticks": 46080,
            "time": 75.78936,
            "velocity": 0.7874015748031497
          },
          {
            "duration": 2.52631199999999,
            "durationTicks": 1536,
            "midi": 25,
            "name": "C#1",
            "ticks": 46080,
            "time": 75.78936,
            "velocity": 0.7874015748031497
          },
          {
            "duration": 2.5263120000000043,
            "durationTicks": 1536,
            "midi": 38,
            "name": "D2",
            "ticks": 47616,
            "time": 78.31567199999999,
            "velocity": 0.7874015748031497
          },
          {
            "duration": 2.5263120000000043,
            "durationTicks": 1536,
            "midi": 26,
            "name": "D1",
            "ticks": 47616,
            "time": 78.31567199999999,
            "velocity": 0.7874015748031497
          },
          {
            "duration": 2.5263120000000043,
            "durationTicks": 1536,
            "midi": 43,
            "name": "G2",
            "ticks": 49152,
            "time": 80.841984,
            "velocity": 0.7874015748031497
          },
          {
            "duration": 2.5263120000000043,
            "durationTicks": 1536,
            "midi": 31,
            "name": "G1",
            "ticks": 49152,
            "time": 80.841984,
            "velocity": 0.7874015748031497
          },
          {
            "duration": 1.263155999999995,
            "durationTicks": 768,
            "midi": 33,
            "name": "A1",
            "ticks": 50688,
            "time": 83.368296,
            "velocity": 0.7874015748031497
          },
          {
            "duration": 1.263155999999995,
            "durationTicks": 768,
            "midi": 45,
            "name": "A2",
            "ticks": 50688,
            "time": 83.368296,
            "velocity": 0.7874015748031497
          },
          {
            "duration": 1.263155999999995,
            "durationTicks": 768,
            "midi": 47,
            "name": "B2",
            "ticks": 51456,
            "time": 84.631452,
            "velocity": 0.7874015748031497
          },
          {
            "duration": 1.263155999999995,
            "durationTicks": 768,
            "midi": 35,
            "name": "B1",
            "ticks": 51456,
            "time": 84.631452,
            "velocity": 0.7874015748031497
          },
          {
            "duration": 0.3157890000000094,
            "durationTicks": 192,
            "midi": 37,
            "name": "C#2",
            "ticks": 76800,
            "time": 126.31559999999999,
            "velocity": 0.7874015748031497
          },
          {
            "duration": 0.3157889999999952,
            "durationTicks": 192,
            "midi": 49,
            "name": "C#3",
            "ticks": 76992,
            "time": 126.631389,
            "velocity": 0.7874015748031497
          },
          {
            "duration": 0.6315780000000046,
            "durationTicks": 384,
            "midi": 52,
            "name": "E3",
            "ticks": 77184,
            "time": 126.947178,
            "velocity": 0.7874015748031497
          },
          {
            "duration": 0.6315780000000046,
            "durationTicks": 384,
            "midi": 61,
            "name": "C#4",
            "ticks": 77184,
            "time": 126.947178,
            "velocity": 0.7874015748031497
          },
          {
            "duration": 0.6315780000000046,
            "durationTicks": 384,
            "midi": 56,
            "name": "G#3",
            "ticks": 77184,
            "time": 126.947178,
            "velocity": 0.7874015748031497
          },
          {
            "duration": 0.3157890000000094,
            "durationTicks": 192,
            "midi": 44,
            "name": "G#2",
            "ticks": 77376,
            "time": 127.26296699999999,
            "velocity": 0.7874015748031497
          },
          {
            "duration": 0.3157889999999952,
            "durationTicks": 192,
            "midi": 37,
            "name": "C#2",
            "ticks": 77568,
            "time": 127.578756,
            "velocity": 0.7874015748031497
          },
          {
            "duration": 0.3157889999999952,
            "durationTicks": 192,
            "midi": 49,
            "name": "C#3",
            "ticks": 77760,
            "time": 127.894545,
            "velocity": 0.7874015748031497
          },
          {
            "duration": 0.6315780000000188,
            "durationTicks": 384,
            "midi": 52,
            "name": "E3",
            "ticks": 77952,
            "time": 128.210334,
            "velocity": 0.7874015748031497
          },
          {
            "duration": 0.6315780000000188,
            "durationTicks": 384,
            "midi": 56,
            "name": "G#3",
            "ticks": 77952,
            "time": 128.210334,
            "velocity": 0.7874015748031497
          },
          {
            "duration": 0.6315780000000188,
            "durationTicks": 384,
            "midi": 61,
            "name": "C#4",
            "ticks": 77952,
            "time": 128.210334,
            "velocity": 0.7874015748031497
          },
          {
            "duration": 0.31578900000002363,
            "durationTicks": 192,
            "midi": 49,
            "name": "C#3",
            "ticks": 78144,
            "time": 128.52612299999998,
            "velocity": 0.7874015748031497
          },
          {
            "duration": 0.3157889999999952,
            "durationTicks": 192,
            "midi": 44,
            "name": "G#2",
            "ticks": 78336,
            "time": 128.841912,
            "velocity": 0.7874015748031497
          },
          {
            "duration": 0.3157889999999952,
            "durationTicks": 192,
            "midi": 49,
            "name": "C#3",
            "ticks": 78528,
            "time": 129.157701,
            "velocity": 0.7874015748031497
          },
          {
            "duration": 0.6315779999999904,
            "durationTicks": 384,
            "midi": 61,
            "name": "C#4",
            "ticks": 78720,
            "time": 129.47349,
            "velocity": 0.7874015748031497
          },
          {
            "duration": 0.6315779999999904,
            "durationTicks": 384,
            "midi": 51,
            "name": "D#3",
            "ticks": 78720,
            "time": 129.47349,
            "velocity": 0.7874015748031497
          },
          {
            "duration": 0.6315779999999904,
            "durationTicks": 384,
            "midi": 56,
            "name": "G#3",
            "ticks": 78720,
            "time": 129.47349,
            "velocity": 0.7874015748031497
          },
          {
            "duration": 0.3157889999999952,
            "durationTicks": 192,
            "midi": 49,
            "name": "C#3",
            "ticks": 78912,
            "time": 129.789279,
            "velocity": 0.7874015748031497
          },
          {
            "duration": 0.3157889999999952,
            "durationTicks": 192,
            "midi": 44,
            "name": "G#2",
            "ticks": 79104,
            "time": 130.105068,
            "velocity": 0.7874015748031497
          },
          {
            "duration": 0.31578900000002363,
            "durationTicks": 192,
            "midi": 49,
            "name": "C#3",
            "ticks": 79296,
            "time": 130.42085699999998,
            "velocity": 0.7874015748031497
          },
          {
            "duration": 0.6315779999999904,
            "durationTicks": 384,
            "midi": 51,
            "name": "D#3",
            "ticks": 79488,
            "time": 130.736646,
            "velocity": 0.7874015748031497
          },
          {
            "duration": 0.6315779999999904,
            "durationTicks": 384,
            "midi": 61,
            "name": "C#4",
            "ticks": 79488,
            "time": 130.736646,
            "velocity": 0.7874015748031497
          },
          {
            "duration": 0.6315779999999904,
            "durationTicks": 384,
            "midi": 56,
            "name": "G#3",
            "ticks": 79488,
            "time": 130.736646,
            "velocity": 0.7874015748031497
          },
          {
            "duration": 0.3157889999999952,
            "durationTicks": 192,
            "midi": 49,
            "name": "C#3",
            "ticks": 79680,
            "time": 131.052435,
            "velocity": 0.7874015748031497
          },
          {
            "duration": 0.3157889999999952,
            "durationTicks": 192,
            "midi": 39,
            "name": "D#2",
            "ticks": 79872,
            "time": 131.368224,
            "velocity": 0.7874015748031497
          },
          {
            "duration": 0.3157889999999952,
            "durationTicks": 192,
            "midi": 51,
            "name": "D#3",
            "ticks": 80064,
            "time": 131.684013,
            "velocity": 0.7874015748031497
          },
          {
            "duration": 0.6315780000000188,
            "durationTicks": 384,
            "midi": 61,
            "name": "C#4",
            "ticks": 80256,
            "time": 131.999802,
            "velocity": 0.7874015748031497
          },
          {
            "duration": 0.6315780000000188,
            "durationTicks": 384,
            "midi": 58,
            "name": "A#3",
            "ticks": 80256,
            "time": 131.999802,
            "velocity": 0.7874015748031497
          },
          {
            "duration": 0.6315780000000188,
            "durationTicks": 384,
            "midi": 54,
            "name": "F#3",
            "ticks": 80256,
            "time": 131.999802,
            "velocity": 0.7874015748031497
          },
          {
            "duration": 0.31578900000002363,
            "durationTicks": 192,
            "midi": 51,
            "name": "D#3",
            "ticks": 80448,
            "time": 132.31559099999998,
            "velocity": 0.7874015748031497
          },
          {
            "duration": 0.3157889999999952,
            "durationTicks": 192,
            "midi": 39,
            "name": "D#2",
            "ticks": 80640,
            "time": 132.63138,
            "velocity": 0.7874015748031497
          },
          {
            "duration": 0.3157889999999952,
            "durationTicks": 192,
            "midi": 51,
            "name": "D#3",
            "ticks": 80832,
            "time": 132.947169,
            "velocity": 0.7874015748031497
          },
          {
            "duration": 0.6315779999999904,
            "durationTicks": 384,
            "midi": 58,
            "name": "A#3",
            "ticks": 81024,
            "time": 133.262958,
            "velocity": 0.7874015748031497
          },
          {
            "duration": 0.6315779999999904,
            "durationTicks": 384,
            "midi": 61,
            "name": "C#4",
            "ticks": 81024,
            "time": 133.262958,
            "velocity": 0.7874015748031497
          },
          {
            "duration": 0.6315779999999904,
            "durationTicks": 384,
            "midi": 54,
            "name": "F#3",
            "ticks": 81024,
            "time": 133.262958,
            "velocity": 0.7874015748031497
          },
          {
            "duration": 0.3157889999999952,
            "durationTicks": 192,
            "midi": 51,
            "name": "D#3",
            "ticks": 81216,
            "time": 133.578747,
            "velocity": 0.7874015748031497
          },
          {
            "duration": 0.3157889999999952,
            "durationTicks": 192,
            "midi": 38,
            "name": "D2",
            "ticks": 81408,
            "time": 133.894536,
            "velocity": 0.7874015748031497
          },
          {
            "duration": 0.31578900000002363,
            "durationTicks": 192,
            "midi": 50,
            "name": "D3",
            "ticks": 81600,
            "time": 134.21032499999998,
            "velocity": 0.7874015748031497
          },
          {
            "duration": 0.6315779999999904,
            "durationTicks": 384,
            "midi": 57,
            "name": "A3",
            "ticks": 81792,
            "time": 134.526114,
            "velocity": 0.7874015748031497
          },
          {
            "duration": 0.6315779999999904,
            "durationTicks": 384,
            "midi": 61,
            "name": "C#4",
            "ticks": 81792,
            "time": 134.526114,
            "velocity": 0.7874015748031497
          },
          {
            "duration": 0.6315779999999904,
            "durationTicks": 384,
            "midi": 54,
            "name": "F#3",
            "ticks": 81792,
            "time": 134.526114,
            "velocity": 0.7874015748031497
          },
          {
            "duration": 0.3157889999999952,
            "durationTicks": 192,
            "midi": 50,
            "name": "D3",
            "ticks": 81984,
            "time": 134.841903,
            "velocity": 0.7874015748031497
          },
          {
            "duration": 0.3157889999999952,
            "durationTicks": 192,
            "midi": 38,
            "name": "D2",
            "ticks": 82176,
            "time": 135.157692,
            "velocity": 0.7874015748031497
          },
          {
            "duration": 0.3157889999999952,
            "durationTicks": 192,
            "midi": 50,
            "name": "D3",
            "ticks": 82368,
            "time": 135.473481,
            "velocity": 0.7874015748031497
          },
          {
            "duration": 0.6315780000000188,
            "durationTicks": 384,
            "midi": 57,
            "name": "A3",
            "ticks": 82560,
            "time": 135.78927,
            "velocity": 0.7874015748031497
          },
          {
            "duration": 0.6315780000000188,
            "durationTicks": 384,
            "midi": 61,
            "name": "C#4",
            "ticks": 82560,
            "time": 135.78927,
            "velocity": 0.7874015748031497
          },
          {
            "duration": 0.6315780000000188,
            "durationTicks": 384,
            "midi": 54,
            "name": "F#3",
            "ticks": 82560,
            "time": 135.78927,
            "velocity": 0.7874015748031497
          },
          {
            "duration": 0.31578900000002363,
            "durationTicks": 192,
            "midi": 50,
            "name": "D3",
            "ticks": 82752,
            "time": 136.10505899999998,
            "velocity": 0.7874015748031497
          },
          {
            "duration": 0.3157889999999952,
            "durationTicks": 192,
            "midi": 33,
            "name": "A1",
            "ticks": 82944,
            "time": 136.420848,
            "velocity": 0.7874015748031497
          },
          {
            "duration": 0.3157889999999952,
            "durationTicks": 192,
            "midi": 49,
            "name": "C#3",
            "ticks": 83136,
            "time": 136.736637,
            "velocity": 0.7874015748031497
          },
          {
            "duration": 0.6315779999999904,
            "durationTicks": 384,
            "midi": 61,
            "name": "C#4",
            "ticks": 83328,
            "time": 137.052426,
            "velocity": 0.7874015748031497
          },
          {
            "duration": 0.6315779999999904,
            "durationTicks": 384,
            "midi": 57,
            "name": "A3",
            "ticks": 83328,
            "time": 137.052426,
            "velocity": 0.7874015748031497
          },
          {
            "duration": 0.6315779999999904,
            "durationTicks": 384,
            "midi": 52,
            "name": "E3",
            "ticks": 83328,
            "time": 137.052426,
            "velocity": 0.7874015748031497
          },
          {
            "duration": 0.3157889999999952,
            "durationTicks": 192,
            "midi": 45,
            "name": "A2",
            "ticks": 83520,
            "time": 137.368215,
            "velocity": 0.7874015748031497
          },
          {
            "duration": 0.3157889999999952,
            "durationTicks": 192,
            "midi": 33,
            "name": "A1",
            "ticks": 83712,
            "time": 137.684004,
            "velocity": 0.7874015748031497
          },
          {
            "duration": 0.31578900000002363,
            "durationTicks": 192,
            "midi": 49,
            "name": "C#3",
            "ticks": 83904,
            "time": 137.99979299999998,
            "velocity": 0.7874015748031497
          },
          {
            "duration": 0.6315779999999904,
            "durationTicks": 384,
            "midi": 57,
            "name": "A3",
            "ticks": 84096,
            "time": 138.315582,
            "velocity": 0.7874015748031497
          },
          {
            "duration": 0.6315779999999904,
            "durationTicks": 384,
            "midi": 61,
            "name": "C#4",
            "ticks": 84096,
            "time": 138.315582,
            "velocity": 0.7874015748031497
          },
          {
            "duration": 0.6315779999999904,
            "durationTicks": 384,
            "midi": 52,
            "name": "E3",
            "ticks": 84096,
            "time": 138.315582,
            "velocity": 0.7874015748031497
          },
          {
            "duration": 0.3157889999999952,
            "durationTicks": 192,
            "midi": 45,
            "name": "A2",
            "ticks": 84288,
            "time": 138.631371,
            "velocity": 0.7874015748031497
          },
          {
            "duration": 0.3157889999999952,
            "durationTicks": 192,
            "midi": 35,
            "name": "B1",
            "ticks": 84480,
            "time": 138.94716,
            "velocity": 0.7874015748031497
          },
          {
            "duration": 0.3157889999999952,
            "durationTicks": 192,
            "midi": 47,
            "name": "B2",
            "ticks": 84672,
            "time": 139.262949,
            "velocity": 0.7874015748031497
          },
          {
            "duration": 0.6315780000000188,
            "durationTicks": 384,
            "midi": 54,
            "name": "F#3",
            "ticks": 84864,
            "time": 139.578738,
            "velocity": 0.7874015748031497
          },
          {
            "duration": 0.6315780000000188,
            "durationTicks": 384,
            "midi": 63,
            "name": "D#4",
            "ticks": 84864,
            "time": 139.578738,
            "velocity": 0.7874015748031497
          },
          {
            "duration": 0.6315780000000188,
            "durationTicks": 384,
            "midi": 59,
            "name": "B3",
            "ticks": 84864,
            "time": 139.578738,
            "velocity": 0.7874015748031497
          },
          {
            "duration": 0.31578900000002363,
            "durationTicks": 192,
            "midi": 47,
            "name": "B2",
            "ticks": 85056,
            "time": 139.89452699999998,
            "velocity": 0.7874015748031497
          },
          {
            "duration": 0.3157889999999952,
            "durationTicks": 192,
            "midi": 35,
            "name": "B1",
            "ticks": 85248,
            "time": 140.210316,
            "velocity": 0.7874015748031497
          },
          {
            "duration": 0.3157889999999952,
            "durationTicks": 192,
            "midi": 47,
            "name": "B2",
            "ticks": 85440,
            "time": 140.526105,
            "velocity": 0.7874015748031497
          },
          {
            "duration": 0.6315779999999904,
            "durationTicks": 384,
            "midi": 63,
            "name": "D#4",
            "ticks": 85632,
            "time": 140.841894,
            "velocity": 0.7874015748031497
          },
          {
            "duration": 0.6315779999999904,
            "durationTicks": 384,
            "midi": 59,
            "name": "B3",
            "ticks": 85632,
            "time": 140.841894,
            "velocity": 0.7874015748031497
          },
          {
            "duration": 0.6315779999999904,
            "durationTicks": 384,
            "midi": 54,
            "name": "F#3",
            "ticks": 85632,
            "time": 140.841894,
            "velocity": 0.7874015748031497
          },
          {
            "duration": 0.3157889999999952,
            "durationTicks": 192,
            "midi": 47,
            "name": "B2",
            "ticks": 85824,
            "time": 141.157683,
            "velocity": 0.7874015748031497
          },
          {
            "duration": 0.3157889999999952,
            "durationTicks": 192,
            "midi": 42,
            "name": "F#2",
            "ticks": 86016,
            "time": 141.473472,
            "velocity": 0.7874015748031497
          },
          {
            "duration": 0.31578900000002363,
            "durationTicks": 192,
            "midi": 54,
            "name": "F#3",
            "ticks": 86208,
            "time": 141.78926099999998,
            "velocity": 0.7874015748031497
          },
          {
            "duration": 0.6315779999999904,
            "durationTicks": 384,
            "midi": 52,
            "name": "E3",
            "ticks": 86400,
            "time": 142.10505,
            "velocity": 0.7874015748031497
          },
          {
            "duration": 0.6315779999999904,
            "durationTicks": 384,
            "midi": 57,
            "name": "A3",
            "ticks": 86400,
            "time": 142.10505,
            "velocity": 0.7874015748031497
          },
          {
            "duration": 0.6315779999999904,
            "durationTicks": 384,
            "midi": 61,
            "name": "C#4",
            "ticks": 86400,
            "time": 142.10505,
            "velocity": 0.7874015748031497
          },
          {
            "duration": 0.3157889999999952,
            "durationTicks": 192,
            "midi": 49,
            "name": "C#3",
            "ticks": 86592,
            "time": 142.420839,
            "velocity": 0.7874015748031497
          },
          {
            "duration": 0.3157889999999952,
            "durationTicks": 192,
            "midi": 42,
            "name": "F#2",
            "ticks": 86784,
            "time": 142.736628,
            "velocity": 0.7874015748031497
          },
          {
            "duration": 0.3157889999999952,
            "durationTicks": 192,
            "midi": 54,
            "name": "F#3",
            "ticks": 86976,
            "time": 143.052417,
            "velocity": 0.7874015748031497
          },
          {
            "duration": 0.6315780000000188,
            "durationTicks": 384,
            "midi": 52,
            "name": "E3",
            "ticks": 87168,
            "time": 143.368206,
            "velocity": 0.7874015748031497
          },
          {
            "duration": 0.6315780000000188,
            "durationTicks": 384,
            "midi": 61,
            "name": "C#4",
            "ticks": 87168,
            "time": 143.368206,
            "velocity": 0.7874015748031497
          },
          {
            "duration": 0.6315780000000188,
            "durationTicks": 384,
            "midi": 57,
            "name": "A3",
            "ticks": 87168,
            "time": 143.368206,
            "velocity": 0.7874015748031497
          },
          {
            "duration": 0.31578900000002363,
            "durationTicks": 192,
            "midi": 49,
            "name": "C#3",
            "ticks": 87360,
            "time": 143.68399499999998,
            "velocity": 0.7874015748031497
          },
          {
            "duration": 0.3157889999999952,
            "durationTicks": 192,
            "midi": 38,
            "name": "D2",
            "ticks": 87552,
            "time": 143.999784,
            "velocity": 0.7874015748031497
          },
          {
            "duration": 0.3157889999999952,
            "durationTicks": 192,
            "midi": 50,
            "name": "D3",
            "ticks": 87744,
            "time": 144.315573,
            "velocity": 0.7874015748031497
          },
          {
            "duration": 0.6315779999999904,
            "durationTicks": 384,
            "midi": 61,
            "name": "C#4",
            "ticks": 87936,
            "time": 144.631362,
            "velocity": 0.7874015748031497
          },
          {
            "duration": 0.6315779999999904,
            "durationTicks": 384,
            "midi": 57,
            "name": "A3",
            "ticks": 87936,
            "time": 144.631362,
            "velocity": 0.7874015748031497
          },
          {
            "duration": 0.6315779999999904,
            "durationTicks": 384,
            "midi": 54,
            "name": "F#3",
            "ticks": 87936,
            "time": 144.631362,
            "velocity": 0.7874015748031497
          },
          {
            "duration": 0.3157889999999952,
            "durationTicks": 192,
            "midi": 42,
            "name": "F#2",
            "ticks": 88128,
            "time": 144.947151,
            "velocity": 0.7874015748031497
          },
          {
            "duration": 0.3157889999999952,
            "durationTicks": 192,
            "midi": 38,
            "name": "D2",
            "ticks": 88320,
            "time": 145.26294,
            "velocity": 0.7874015748031497
          },
          {
            "duration": 0.31578900000002363,
            "durationTicks": 192,
            "midi": 50,
            "name": "D3",
            "ticks": 88512,
            "time": 145.57872899999998,
            "velocity": 0.7874015748031497
          },
          {
            "duration": 0.6315779999999904,
            "durationTicks": 384,
            "midi": 54,
            "name": "F#3",
            "ticks": 88704,
            "time": 145.894518,
            "velocity": 0.7874015748031497
          },
          {
            "duration": 0.6315779999999904,
            "durationTicks": 384,
            "midi": 57,
            "name": "A3",
            "ticks": 88704,
            "time": 145.894518,
            "velocity": 0.7874015748031497
          },
          {
            "duration": 0.6315779999999904,
            "durationTicks": 384,
            "midi": 61,
            "name": "C#4",
            "ticks": 88704,
            "time": 145.894518,
            "velocity": 0.7874015748031497
          },
          {
            "duration": 0.3157889999999952,
            "durationTicks": 192,
            "midi": 42,
            "name": "F#2",
            "ticks": 88896,
            "time": 146.210307,
            "velocity": 0.7874015748031497
          },
          {
            "duration": 0.3157889999999952,
            "durationTicks": 192,
            "midi": 37,
            "name": "C#2",
            "ticks": 89088,
            "time": 146.526096,
            "velocity": 0.7874015748031497
          },
          {
            "duration": 0.1578944999999976,
            "durationTicks": 96,
            "midi": 37,
            "name": "C#2",
            "ticks": 89280,
            "time": 146.841885,
            "velocity": 0.7874015748031497
          },
          {
            "duration": 0.1578944999999976,
            "durationTicks": 96,
            "midi": 49,
            "name": "C#3",
            "ticks": 89376,
            "time": 146.9997795,
            "velocity": 0.7874015748031497
          },
          {
            "duration": 0.6315780000000188,
            "durationTicks": 384,
            "midi": 61,
            "name": "C#4",
            "ticks": 89472,
            "time": 147.157674,
            "velocity": 0.7874015748031497
          },
          {
            "duration": 0.6315780000000188,
            "durationTicks": 384,
            "midi": 56,
            "name": "G#3",
            "ticks": 89472,
            "time": 147.157674,
            "velocity": 0.7874015748031497
          },
          {
            "duration": 0.6315780000000188,
            "durationTicks": 384,
            "midi": 52,
            "name": "E3",
            "ticks": 89472,
            "time": 147.157674,
            "velocity": 0.7874015748031497
          },
          {
            "duration": 0.15789450000002603,
            "durationTicks": 96,
            "midi": 44,
            "name": "G#2",
            "ticks": 89664,
            "time": 147.47346299999998,
            "velocity": 0.7874015748031497
          },
          {
            "duration": 0.1578944999999976,
            "durationTicks": 96,
            "midi": 40,
            "name": "E2",
            "ticks": 89760,
            "time": 147.6313575,
            "velocity": 0.7874015748031497
          },
          {
            "duration": 0.3157889999999952,
            "durationTicks": 192,
            "midi": 37,
            "name": "C#2",
            "ticks": 89856,
            "time": 147.789252,
            "velocity": 0.7874015748031497
          },
          {
            "duration": 0.3157889999999952,
            "durationTicks": 192,
            "midi": 61,
            "name": "C#4",
            "ticks": 89952,
            "time": 147.9471465,
            "velocity": 0.7874015748031497
          },
          {
            "duration": 0.3157889999999952,
            "durationTicks": 192,
            "midi": 52,
            "name": "E3",
            "ticks": 89952,
            "time": 147.9471465,
            "velocity": 0.7874015748031497
          },
          {
            "duration": 0.3157889999999952,
            "durationTicks": 192,
            "midi": 64,
            "name": "E4",
            "ticks": 89952,
            "time": 147.9471465,
            "velocity": 0.7874015748031497
          },
          {
            "duration": 0.3157889999999952,
            "durationTicks": 192,
            "midi": 56,
            "name": "G#3",
            "ticks": 89952,
            "time": 147.9471465,
            "velocity": 0.7874015748031497
          },
          {
            "duration": 0.1578944999999976,
            "durationTicks": 96,
            "midi": 37,
            "name": "C#2",
            "ticks": 90048,
            "time": 148.105041,
            "velocity": 0.7874015748031497
          },
          {
            "duration": 0.1578944999999976,
            "durationTicks": 96,
            "midi": 49,
            "name": "C#3",
            "ticks": 90048,
            "time": 148.105041,
            "velocity": 0.7874015748031497
          },
          {
            "duration": 0.6315779999999904,
            "durationTicks": 384,
            "midi": 61,
            "name": "C#4",
            "ticks": 90240,
            "time": 148.42083,
            "velocity": 0.7874015748031497
          },
          {
            "duration": 0.6315779999999904,
            "durationTicks": 384,
            "midi": 64,
            "name": "E4",
            "ticks": 90240,
            "time": 148.42083,
            "velocity": 0.7874015748031497
          },
          {
            "duration": 0.6315779999999904,
            "durationTicks": 384,
            "midi": 52,
            "name": "E3",
            "ticks": 90240,
            "time": 148.42083,
            "velocity": 0.7874015748031497
          },
          {
            "duration": 0.6315779999999904,
            "durationTicks": 384,
            "midi": 56,
            "name": "G#3",
            "ticks": 90240,
            "time": 148.42083,
            "velocity": 0.7874015748031497
          },
          {
            "duration": 0.1578944999999976,
            "durationTicks": 96,
            "midi": 49,
            "name": "C#3",
            "ticks": 90432,
            "time": 148.736619,
            "velocity": 0.7874015748031497
          },
          {
            "duration": 0.1578944999999976,
            "durationTicks": 96,
            "midi": 44,
            "name": "G#2",
            "ticks": 90528,
            "time": 148.8945135,
            "velocity": 0.7874015748031497
          },
          {
            "duration": 0.3157889999999952,
            "durationTicks": 192,
            "midi": 44,
            "name": "G#2",
            "ticks": 90624,
            "time": 149.05240799999999,
            "velocity": 0.7874015748031497
          },
          {
            "duration": 0.15789450000002603,
            "durationTicks": 96,
            "midi": 44,
            "name": "G#2",
            "ticks": 90816,
            "time": 149.36819699999998,
            "velocity": 0.7874015748031497
          },
          {
            "duration": 0.1578944999999976,
            "durationTicks": 96,
            "midi": 49,
            "name": "C#3",
            "ticks": 90912,
            "time": 149.5260915,
            "velocity": 0.7874015748031497
          },
          {
            "duration": 0.6315779999999904,
            "durationTicks": 384,
            "midi": 61,
            "name": "C#4",
            "ticks": 91008,
            "time": 149.683986,
            "velocity": 0.7874015748031497
          },
          {
            "duration": 0.6315779999999904,
            "durationTicks": 384,
            "midi": 51,
            "name": "D#3",
            "ticks": 91008,
            "time": 149.683986,
            "velocity": 0.7874015748031497
          },
          {
            "duration": 0.6315779999999904,
            "durationTicks": 384,
            "midi": 56,
            "name": "G#3",
            "ticks": 91008,
            "time": 149.683986,
            "velocity": 0.7874015748031497
          },
          {
            "duration": 0.1578944999999976,
            "durationTicks": 96,
            "midi": 49,
            "name": "C#3",
            "ticks": 91200,
            "time": 149.999775,
            "velocity": 0.7874015748031497
          },
          {
            "duration": 0.1578944999999976,
            "durationTicks": 96,
            "midi": 44,
            "name": "G#2",
            "ticks": 91296,
            "time": 150.1576695,
            "velocity": 0.7874015748031497
          },
          {
            "duration": 0.3157889999999952,
            "durationTicks": 192,
            "midi": 44,
            "name": "G#2",
            "ticks": 91392,
            "time": 150.315564,
            "velocity": 0.7874015748031497
          },
          {
            "duration": 0.3157889999999952,
            "durationTicks": 192,
            "midi": 51,
            "name": "D#3",
            "ticks": 91488,
            "time": 150.4734585,
            "velocity": 0.7874015748031497
          },
          {
            "duration": 0.3157889999999952,
            "durationTicks": 192,
            "midi": 63,
            "name": "D#4",
            "ticks": 91488,
            "time": 150.4734585,
            "velocity": 0.7874015748031497
          },
          {
            "duration": 0.3157889999999952,
            "durationTicks": 192,
            "midi": 61,
            "name": "C#4",
            "ticks": 91488,
            "time": 150.4734585,
            "velocity": 0.7874015748031497
          },
          {
            "duration": 0.3157889999999952,
            "durationTicks": 192,
            "midi": 56,
            "name": "G#3",
            "ticks": 91488,
            "time": 150.4734585,
            "velocity": 0.7874015748031497
          },
          {
            "duration": 0.1578944999999976,
            "durationTicks": 96,
            "midi": 44,
            "name": "G#2",
            "ticks": 91584,
            "time": 150.631353,
            "velocity": 0.7874015748031497
          },
          {
            "duration": 0.1578944999999976,
            "durationTicks": 96,
            "midi": 49,
            "name": "C#3",
            "ticks": 91680,
            "time": 150.7892475,
            "velocity": 0.7874015748031497
          },
          {
            "duration": 0.6315780000000188,
            "durationTicks": 384,
            "midi": 51,
            "name": "D#3",
            "ticks": 91776,
            "time": 150.94714199999999,
            "velocity": 0.7874015748031497
          },
          {
            "duration": 0.6315780000000188,
            "durationTicks": 384,
            "midi": 56,
            "name": "G#3",
            "ticks": 91776,
            "time": 150.94714199999999,
            "velocity": 0.7874015748031497
          },
          {
            "duration": 0.6315780000000188,
            "durationTicks": 384,
            "midi": 61,
            "name": "C#4",
            "ticks": 91776,
            "time": 150.94714199999999,
            "velocity": 0.7874015748031497
          },
          {
            "duration": 0.6315780000000188,
            "durationTicks": 384,
            "midi": 63,
            "name": "D#4",
            "ticks": 91776,
            "time": 150.94714199999999,
            "velocity": 0.7874015748031497
          },
          {
            "duration": 0.15789450000002603,
            "durationTicks": 96,
            "midi": 49,
            "name": "C#3",
            "ticks": 91968,
            "time": 151.26293099999998,
            "velocity": 0.7874015748031497
          },
          {
            "duration": 0.1578944999999976,
            "durationTicks": 96,
            "midi": 44,
            "name": "G#2",
            "ticks": 92064,
            "time": 151.4208255,
            "velocity": 0.7874015748031497
          },
          {
            "duration": 0.3157889999999952,
            "durationTicks": 192,
            "midi": 39,
            "name": "D#2",
            "ticks": 92160,
            "time": 151.57872,
            "velocity": 0.7874015748031497
          },
          {
            "duration": 0.1578944999999976,
            "durationTicks": 96,
            "midi": 39,
            "name": "D#2",
            "ticks": 92352,
            "time": 151.894509,
            "velocity": 0.7874015748031497
          },
          {
            "duration": 0.1578944999999976,
            "durationTicks": 96,
            "midi": 51,
            "name": "D#3",
            "ticks": 92448,
            "time": 152.0524035,
            "velocity": 0.7874015748031497
          },
          {
            "duration": 0.6315779999999904,
            "durationTicks": 384,
            "midi": 54,
            "name": "F#3",
            "ticks": 92544,
            "time": 152.210298,
            "velocity": 0.7874015748031497
          },
          {
            "duration": 0.6315779999999904,
            "durationTicks": 384,
            "midi": 61,
            "name": "C#4",
            "ticks": 92544,
            "time": 152.210298,
            "velocity": 0.7874015748031497
          },
          {
            "duration": 0.6315779999999904,
            "durationTicks": 384,
            "midi": 58,
            "name": "A#3",
            "ticks": 92544,
            "time": 152.210298,
            "velocity": 0.7874015748031497
          },
          {
            "duration": 0.1578944999999976,
            "durationTicks": 96,
            "midi": 51,
            "name": "D#3",
            "ticks": 92736,
            "time": 152.526087,
            "velocity": 0.7874015748031497
          },
          {
            "duration": 0.1578944999999976,
            "durationTicks": 96,
            "midi": 46,
            "name": "A#2",
            "ticks": 92832,
            "time": 152.6839815,
            "velocity": 0.7874015748031497
          },
          {
            "duration": 0.3157889999999952,
            "durationTicks": 192,
            "midi": 39,
            "name": "D#2",
            "ticks": 92928,
            "time": 152.84187599999998,
            "velocity": 0.7874015748031497
          },
          {
            "duration": 0.31578900000002363,
            "durationTicks": 192,
            "midi": 66,
            "name": "F#4",
            "ticks": 93024,
            "time": 152.99977049999998,
            "velocity": 0.7874015748031497
          },
          {
            "duration": 0.31578900000002363,
            "durationTicks": 192,
            "midi": 58,
            "name": "A#3",
            "ticks": 93024,
            "time": 152.99977049999998,
            "velocity": 0.7874015748031497
          },
          {
            "duration": 0.31578900000002363,
            "durationTicks": 192,
            "midi": 54,
            "name": "F#3",
            "ticks": 93024,
            "time": 152.99977049999998,
            "velocity": 0.7874015748031497
          },
          {
            "duration": 0.31578900000002363,
            "durationTicks": 192,
            "midi": 61,
            "name": "C#4",
            "ticks": 93024,
            "time": 152.99977049999998,
            "velocity": 0.7874015748031497
          },
          {
            "duration": 0.15789450000002603,
            "durationTicks": 96,
            "midi": 39,
            "name": "D#2",
            "ticks": 93120,
            "time": 153.15766499999998,
            "velocity": 0.7874015748031497
          },
          {
            "duration": 0.1578944999999976,
            "durationTicks": 96,
            "midi": 51,
            "name": "D#3",
            "ticks": 93216,
            "time": 153.3155595,
            "velocity": 0.7874015748031497
          },
          {
            "duration": 0.6315779999999904,
            "durationTicks": 384,
            "midi": 61,
            "name": "C#4",
            "ticks": 93312,
            "time": 153.473454,
            "velocity": 0.7874015748031497
          },
          {
            "duration": 0.6315779999999904,
            "durationTicks": 384,
            "midi": 54,
            "name": "F#3",
            "ticks": 93312,
            "time": 153.473454,
            "velocity": 0.7874015748031497
          },
          {
            "duration": 0.6315779999999904,
            "durationTicks": 384,
            "midi": 58,
            "name": "A#3",
            "ticks": 93312,
            "time": 153.473454,
            "velocity": 0.7874015748031497
          },
          {
            "duration": 0.6315779999999904,
            "durationTicks": 384,
            "midi": 66,
            "name": "F#4",
            "ticks": 93312,
            "time": 153.473454,
            "velocity": 0.7874015748031497
          },
          {
            "duration": 0.1578944999999976,
            "durationTicks": 96,
            "midi": 51,
            "name": "D#3",
            "ticks": 93504,
            "time": 153.789243,
            "velocity": 0.7874015748031497
          },
          {
            "duration": 0.1578944999999976,
            "durationTicks": 96,
            "midi": 46,
            "name": "A#2",
            "ticks": 93600,
            "time": 153.9471375,
            "velocity": 0.7874015748031497
          },
          {
            "duration": 0.3157889999999952,
            "durationTicks": 192,
            "midi": 38,
            "name": "D2",
            "ticks": 93696,
            "time": 154.105032,
            "velocity": 0.7874015748031497
          },
          {
            "duration": 0.1578944999999976,
            "durationTicks": 96,
            "midi": 38,
            "name": "D2",
            "ticks": 93888,
            "time": 154.420821,
            "velocity": 0.7874015748031497
          },
          {
            "duration": 0.1578944999999976,
            "durationTicks": 96,
            "midi": 50,
            "name": "D3",
            "ticks": 93984,
            "time": 154.5787155,
            "velocity": 0.7874015748031497
          },
          {
            "duration": 0.6315780000000188,
            "durationTicks": 384,
            "midi": 57,
            "name": "A3",
            "ticks": 94080,
            "time": 154.73660999999998,
            "velocity": 0.7874015748031497
          },
          {
            "duration": 0.6315780000000188,
            "durationTicks": 384,
            "midi": 61,
            "name": "C#4",
            "ticks": 94080,
            "time": 154.73660999999998,
            "velocity": 0.7874015748031497
          },
          {
            "duration": 0.6315780000000188,
            "durationTicks": 384,
            "midi": 54,
            "name": "F#3",
            "ticks": 94080,
            "time": 154.73660999999998,
            "velocity": 0.7874015748031497
          },
          {
            "duration": 0.15789450000002603,
            "durationTicks": 96,
            "midi": 50,
            "name": "D3",
            "ticks": 94272,
            "time": 155.05239899999998,
            "velocity": 0.7874015748031497
          },
          {
            "duration": 0.1578944999999976,
            "durationTicks": 96,
            "midi": 45,
            "name": "A2",
            "ticks": 94368,
            "time": 155.2102935,
            "velocity": 0.7874015748031497
          },
          {
            "duration": 0.3157889999999952,
            "durationTicks": 192,
            "midi": 38,
            "name": "D2",
            "ticks": 94464,
            "time": 155.368188,
            "velocity": 0.7874015748031497
          },
          {
            "duration": 0.3157889999999952,
            "durationTicks": 192,
            "midi": 66,
            "name": "F#4",
            "ticks": 94560,
            "time": 155.5260825,
            "velocity": 0.7874015748031497
          },
          {
            "duration": 0.3157889999999952,
            "durationTicks": 192,
            "midi": 57,
            "name": "A3",
            "ticks": 94560,
            "time": 155.5260825,
            "velocity": 0.7874015748031497
          },
          {
            "duration": 0.3157889999999952,
            "durationTicks": 192,
            "midi": 61,
            "name": "C#4",
            "ticks": 94560,
            "time": 155.5260825,
            "velocity": 0.7874015748031497
          },
          {
            "duration": 0.3157889999999952,
            "durationTicks": 192,
            "midi": 54,
            "name": "F#3",
            "ticks": 94560,
            "time": 155.5260825,
            "velocity": 0.7874015748031497
          },
          {
            "duration": 0.1578944999999976,
            "durationTicks": 96,
            "midi": 38,
            "name": "D2",
            "ticks": 94656,
            "time": 155.683977,
            "velocity": 0.7874015748031497
          },
          {
            "duration": 0.1578944999999976,
            "durationTicks": 96,
            "midi": 50,
            "name": "D3",
            "ticks": 94752,
            "time": 155.8418715,
            "velocity": 0.7874015748031497
          },
          {
            "duration": 0.6315779999999904,
            "durationTicks": 384,
            "midi": 54,
            "name": "F#3",
            "ticks": 94848,
            "time": 155.999766,
            "velocity": 0.7874015748031497
          },
          {
            "duration": 0.6315779999999904,
            "durationTicks": 384,
            "midi": 66,
            "name": "F#4",
            "ticks": 94848,
            "time": 155.999766,
            "velocity": 0.7874015748031497
          },
          {
            "duration": 0.6315779999999904,
            "durationTicks": 384,
            "midi": 61,
            "name": "C#4",
            "ticks": 94848,
            "time": 155.999766,
            "velocity": 0.7874015748031497
          },
          {
            "duration": 0.6315779999999904,
            "durationTicks": 384,
            "midi": 57,
            "name": "A3",
            "ticks": 94848,
            "time": 155.999766,
            "velocity": 0.7874015748031497
          },
          {
            "duration": 0.1578944999999976,
            "durationTicks": 96,
            "midi": 50,
            "name": "D3",
            "ticks": 95040,
            "time": 156.315555,
            "velocity": 0.7874015748031497
          },
          {
            "duration": 0.1578944999999976,
            "durationTicks": 96,
            "midi": 45,
            "name": "A2",
            "ticks": 95136,
            "time": 156.4734495,
            "velocity": 0.7874015748031497
          },
          {
            "duration": 0.3157889999999952,
            "durationTicks": 192,
            "midi": 33,
            "name": "A1",
            "ticks": 95232,
            "time": 156.63134399999998,
            "velocity": 0.7874015748031497
          },
          {
            "duration": 0.15789450000002603,
            "durationTicks": 96,
            "midi": 33,
            "name": "A1",
            "ticks": 95424,
            "time": 156.94713299999998,
            "velocity": 0.7874015748031497
          },
          {
            "duration": 0.1578944999999976,
            "durationTicks": 96,
            "midi": 49,
            "name": "C#3",
            "ticks": 95520,
            "time": 157.1050275,
            "velocity": 0.7874015748031497
          },
          {
            "duration": 0.6315779999999904,
            "durationTicks": 384,
            "midi": 52,
            "name": "E3",
            "ticks": 95616,
            "time": 157.262922,
            "velocity": 0.7874015748031497
          },
          {
            "duration": 0.6315779999999904,
            "durationTicks": 384,
            "midi": 57,
            "name": "A3",
            "ticks": 95616,
            "time": 157.262922,
            "velocity": 0.7874015748031497
          },
          {
            "duration": 0.6315779999999904,
            "durationTicks": 384,
            "midi": 61,
            "name": "C#4",
            "ticks": 95616,
            "time": 157.262922,
            "velocity": 0.7874015748031497
          },
          {
            "duration": 0.1578944999999976,
            "durationTicks": 96,
            "midi": 45,
            "name": "A2",
            "ticks": 95808,
            "time": 157.578711,
            "velocity": 0.7874015748031497
          },
          {
            "duration": 0.1578944999999976,
            "durationTicks": 96,
            "midi": 40,
            "name": "E2",
            "ticks": 95904,
            "time": 157.7366055,
            "velocity": 0.7874015748031497
          },
          {
            "duration": 0.3157889999999952,
            "durationTicks": 192,
            "midi": 33,
            "name": "A1",
            "ticks": 96000,
            "time": 157.8945,
            "velocity": 0.7874015748031497
          },
          {
            "duration": 0.3157889999999952,
            "durationTicks": 192,
            "midi": 52,
            "name": "E3",
            "ticks": 96096,
            "time": 158.0523945,
            "velocity": 0.7874015748031497
          },
          {
            "duration": 0.3157889999999952,
            "durationTicks": 192,
            "midi": 57,
            "name": "A3",
            "ticks": 96096,
            "time": 158.0523945,
            "velocity": 0.7874015748031497
          },
          {
            "duration": 0.3157889999999952,
            "durationTicks": 192,
            "midi": 61,
            "name": "C#4",
            "ticks": 96096,
            "time": 158.0523945,
            "velocity": 0.7874015748031497
          },
          {
            "duration": 0.3157889999999952,
            "durationTicks": 192,
            "midi": 64,
            "name": "E4",
            "ticks": 96096,
            "time": 158.0523945,
            "velocity": 0.7874015748031497
          },
          {
            "duration": 0.1578944999999976,
            "durationTicks": 96,
            "midi": 33,
            "name": "A1",
            "ticks": 96192,
            "time": 158.210289,
            "velocity": 0.7874015748031497
          },
          {
            "duration": 0.1578944999999976,
            "durationTicks": 96,
            "midi": 49,
            "name": "C#3",
            "ticks": 96288,
            "time": 158.3681835,
            "velocity": 0.7874015748031497
          },
          {
            "duration": 0.6315780000000188,
            "durationTicks": 384,
            "midi": 61,
            "name": "C#4",
            "ticks": 96384,
            "time": 158.52607799999998,
            "velocity": 0.7874015748031497
          },
          {
            "duration": 0.6315780000000188,
            "durationTicks": 384,
            "midi": 64,
            "name": "E4",
            "ticks": 96384,
            "time": 158.52607799999998,
            "velocity": 0.7874015748031497
          },
          {
            "duration": 0.6315780000000188,
            "durationTicks": 384,
            "midi": 57,
            "name": "A3",
            "ticks": 96384,
            "time": 158.52607799999998,
            "velocity": 0.7874015748031497
          },
          {
            "duration": 0.6315780000000188,
            "durationTicks": 384,
            "midi": 52,
            "name": "E3",
            "ticks": 96384,
            "time": 158.52607799999998,
            "velocity": 0.7874015748031497
          },
          {
            "duration": 0.15789450000002603,
            "durationTicks": 96,
            "midi": 45,
            "name": "A2",
            "ticks": 96576,
            "time": 158.84186699999998,
            "velocity": 0.7874015748031497
          },
          {
            "duration": 0.1578944999999976,
            "durationTicks": 96,
            "midi": 40,
            "name": "E2",
            "ticks": 96672,
            "time": 158.9997615,
            "velocity": 0.7874015748031497
          },
          {
            "duration": 0.3157889999999952,
            "durationTicks": 192,
            "midi": 35,
            "name": "B1",
            "ticks": 96768,
            "time": 159.157656,
            "velocity": 0.7874015748031497
          },
          {
            "duration": 0.1578944999999976,
            "durationTicks": 96,
            "midi": 35,
            "name": "B1",
            "ticks": 96960,
            "time": 159.473445,
            "velocity": 0.7874015748031497
          },
          {
            "duration": 0.1578944999999976,
            "durationTicks": 96,
            "midi": 47,
            "name": "B2",
            "ticks": 97056,
            "time": 159.6313395,
            "velocity": 0.7874015748031497
          },
          {
            "duration": 0.6315779999999904,
            "durationTicks": 384,
            "midi": 63,
            "name": "D#4",
            "ticks": 97152,
            "time": 159.789234,
            "velocity": 0.7874015748031497
          },
          {
            "duration": 0.6315779999999904,
            "durationTicks": 384,
            "midi": 59,
            "name": "B3",
            "ticks": 97152,
            "time": 159.789234,
            "velocity": 0.7874015748031497
          },
          {
            "duration": 0.6315779999999904,
            "durationTicks": 384,
            "midi": 63,
            "name": "D#4",
            "ticks": 97152,
            "time": 159.789234,
            "velocity": 0.7874015748031497
          },
          {
            "duration": 0.6315779999999904,
            "durationTicks": 384,
            "midi": 54,
            "name": "F#3",
            "ticks": 97152,
            "time": 159.789234,
            "velocity": 0.7874015748031497
          },
          {
            "duration": 0.1578944999999976,
            "durationTicks": 96,
            "midi": 47,
            "name": "B2",
            "ticks": 97344,
            "time": 160.105023,
            "velocity": 0.7874015748031497
          },
          {
            "duration": 0.1578944999999976,
            "durationTicks": 96,
            "midi": 42,
            "name": "F#2",
            "ticks": 97440,
            "time": 160.2629175,
            "velocity": 0.7874015748031497
          },
          {
            "duration": 0.3157889999999952,
            "durationTicks": 192,
            "midi": 35,
            "name": "B1",
            "ticks": 97536,
            "time": 160.42081199999998,
            "velocity": 0.7874015748031497
          },
          {
            "duration": 0.31578900000002363,
            "durationTicks": 192,
            "midi": 66,
            "name": "F#4",
            "ticks": 97632,
            "time": 160.57870649999998,
            "velocity": 0.7874015748031497
          },
          {
            "duration": 0.31578900000002363,
            "durationTicks": 192,
            "midi": 59,
            "name": "B3",
            "ticks": 97632,
            "time": 160.57870649999998,
            "velocity": 0.7874015748031497
          },
          {
            "duration": 0.31578900000002363,
            "durationTicks": 192,
            "midi": 63,
            "name": "D#4",
            "ticks": 97632,
            "time": 160.57870649999998,
            "velocity": 0.7874015748031497
          },
          {
            "duration": 0.31578900000002363,
            "durationTicks": 192,
            "midi": 54,
            "name": "F#3",
            "ticks": 97632,
            "time": 160.57870649999998,
            "velocity": 0.7874015748031497
          },
          {
            "duration": 0.15789450000002603,
            "durationTicks": 96,
            "midi": 35,
            "name": "B1",
            "ticks": 97728,
            "time": 160.73660099999998,
            "velocity": 0.7874015748031497
          },
          {
            "duration": 0.1578944999999976,
            "durationTicks": 96,
            "midi": 47,
            "name": "B2",
            "ticks": 97824,
            "time": 160.8944955,
            "velocity": 0.7874015748031497
          },
          {
            "duration": 0.6315779999999904,
            "durationTicks": 384,
            "midi": 66,
            "name": "F#4",
            "ticks": 97920,
            "time": 161.05239,
            "velocity": 0.7874015748031497
          },
          {
            "duration": 0.6315779999999904,
            "durationTicks": 384,
            "midi": 59,
            "name": "B3",
            "ticks": 97920,
            "time": 161.05239,
            "velocity": 0.7874015748031497
          },
          {
            "duration": 0.6315779999999904,
            "durationTicks": 384,
            "midi": 63,
            "name": "D#4",
            "ticks": 97920,
            "time": 161.05239,
            "velocity": 0.7874015748031497
          },
          {
            "duration": 0.6315779999999904,
            "durationTicks": 384,
            "midi": 63,
            "name": "D#4",
            "ticks": 97920,
            "time": 161.05239,
            "velocity": 0.7874015748031497
          },
          {
            "duration": 0.6315779999999904,
            "durationTicks": 384,
            "midi": 54,
            "name": "F#3",
            "ticks": 97920,
            "time": 161.05239,
            "velocity": 0.7874015748031497
          },
          {
            "duration": 0.1578944999999976,
            "durationTicks": 96,
            "midi": 47,
            "name": "B2",
            "ticks": 98112,
            "time": 161.368179,
            "velocity": 0.7874015748031497
          },
          {
            "duration": 0.1578944999999976,
            "durationTicks": 96,
            "midi": 42,
            "name": "F#2",
            "ticks": 98208,
            "time": 161.5260735,
            "velocity": 0.7874015748031497
          },
          {
            "duration": 0.3157889999999952,
            "durationTicks": 192,
            "midi": 42,
            "name": "F#2",
            "ticks": 98304,
            "time": 161.683968,
            "velocity": 0.7874015748031497
          },
          {
            "duration": 0.1578944999999976,
            "durationTicks": 96,
            "midi": 42,
            "name": "F#2",
            "ticks": 98496,
            "time": 161.999757,
            "velocity": 0.7874015748031497
          },
          {
            "duration": 0.1578944999999976,
            "durationTicks": 96,
            "midi": 54,
            "name": "F#3",
            "ticks": 98592,
            "time": 162.1576515,
            "velocity": 0.7874015748031497
          },
          {
            "duration": 0.6315780000000188,
            "durationTicks": 384,
            "midi": 52,
            "name": "E3",
            "ticks": 98688,
            "time": 162.31554599999998,
            "velocity": 0.7874015748031497
          },
          {
            "duration": 0.6315780000000188,
            "durationTicks": 384,
            "midi": 61,
            "name": "C#4",
            "ticks": 98688,
            "time": 162.31554599999998,
            "velocity": 0.7874015748031497
          },
          {
            "duration": 0.6315780000000188,
            "durationTicks": 384,
            "midi": 57,
            "name": "A3",
            "ticks": 98688,
            "time": 162.31554599999998,
            "velocity": 0.7874015748031497
          },
          {
            "duration": 0.1578944999999976,
            "durationTicks": 96,
            "midi": 49,
            "name": "C#3",
            "ticks": 98880,
            "time": 162.631335,
            "velocity": 0.7874015748031497
          },
          {
            "duration": 0.1578944999999976,
            "durationTicks": 96,
            "midi": 45,
            "name": "A2",
            "ticks": 98976,
            "time": 162.7892295,
            "velocity": 0.7874015748031497
          },
          {
            "duration": 0.3157889999999952,
            "durationTicks": 192,
            "midi": 42,
            "name": "F#2",
            "ticks": 99072,
            "time": 162.947124,
            "velocity": 0.7874015748031497
          },
          {
            "duration": 0.3157889999999952,
            "durationTicks": 192,
            "midi": 52,
            "name": "E3",
            "ticks": 99168,
            "time": 163.1050185,
            "velocity": 0.7874015748031497
          },
          {
            "duration": 0.3157889999999952,
            "durationTicks": 192,
            "midi": 61,
            "name": "C#4",
            "ticks": 99168,
            "time": 163.1050185,
            "velocity": 0.7874015748031497
          },
          {
            "duration": 0.3157889999999952,
            "durationTicks": 192,
            "midi": 57,
            "name": "A3",
            "ticks": 99168,
            "time": 163.1050185,
            "velocity": 0.7874015748031497
          },
          {
            "duration": 0.3157889999999952,
            "durationTicks": 192,
            "midi": 64,
            "name": "E4",
            "ticks": 99168,
            "time": 163.1050185,
            "velocity": 0.7874015748031497
          },
          {
            "duration": 0.1578944999999976,
            "durationTicks": 96,
            "midi": 42,
            "name": "F#2",
            "ticks": 99264,
            "time": 163.262913,
            "velocity": 0.7874015748031497
          },
          {
            "duration": 0.1578944999999976,
            "durationTicks": 96,
            "midi": 54,
            "name": "F#3",
            "ticks": 99360,
            "time": 163.4208075,
            "velocity": 0.7874015748031497
          },
          {
            "duration": 0.6315779999999904,
            "durationTicks": 384,
            "midi": 61,
            "name": "C#4",
            "ticks": 99456,
            "time": 163.578702,
            "velocity": 0.7874015748031497
          },
          {
            "duration": 0.6315779999999904,
            "durationTicks": 384,
            "midi": 57,
            "name": "A3",
            "ticks": 99456,
            "time": 163.578702,
            "velocity": 0.7874015748031497
          },
          {
            "duration": 0.6315779999999904,
            "durationTicks": 384,
            "midi": 64,
            "name": "E4",
            "ticks": 99456,
            "time": 163.578702,
            "velocity": 0.7874015748031497
          },
          {
            "duration": 0.6315779999999904,
            "durationTicks": 384,
            "midi": 52,
            "name": "E3",
            "ticks": 99456,
            "time": 163.578702,
            "velocity": 0.7874015748031497
          },
          {
            "duration": 0.1578944999999976,
            "durationTicks": 96,
            "midi": 49,
            "name": "C#3",
            "ticks": 99648,
            "time": 163.894491,
            "velocity": 0.7874015748031497
          },
          {
            "duration": 0.1578944999999976,
            "durationTicks": 96,
            "midi": 45,
            "name": "A2",
            "ticks": 99744,
            "time": 164.05238549999999,
            "velocity": 0.7874015748031497
          },
          {
            "duration": 0.31578900000002363,
            "durationTicks": 192,
            "midi": 35,
            "name": "B1",
            "ticks": 99840,
            "time": 164.21027999999998,
            "velocity": 0.7874015748031497
          },
          {
            "duration": 0.1578944999999976,
            "durationTicks": 96,
            "midi": 51,
            "name": "D#3",
            "ticks": 100032,
            "time": 164.526069,
            "velocity": 0.7874015748031497
          },
          {
            "duration": 0.1578944999999976,
            "durationTicks": 96,
            "midi": 54,
            "name": "F#3",
            "ticks": 100128,
            "time": 164.6839635,
            "velocity": 0.7874015748031497
          },
          {
            "duration": 0.6315779999999904,
            "durationTicks": 384,
            "midi": 59,
            "name": "B3",
            "ticks": 100224,
            "time": 164.841858,
            "velocity": 0.7874015748031497
          },
          {
            "duration": 0.6315779999999904,
            "durationTicks": 384,
            "midi": 54,
            "name": "F#3",
            "ticks": 100224,
            "time": 164.841858,
            "velocity": 0.7874015748031497
          },
          {
            "duration": 0.6315779999999904,
            "durationTicks": 384,
            "midi": 63,
            "name": "D#4",
            "ticks": 100224,
            "time": 164.841858,
            "velocity": 0.7874015748031497
          },
          {
            "duration": 0.1578944999999976,
            "durationTicks": 96,
            "midi": 35,
            "name": "B1",
            "ticks": 100512,
            "time": 165.3155415,
            "velocity": 0.7874015748031497
          },
          {
            "duration": 0.1578944999999976,
            "durationTicks": 96,
            "midi": 47,
            "name": "B2",
            "ticks": 100608,
            "time": 165.473436,
            "velocity": 1.968503937007874
          },
          {
            "duration": 0.3157889999999952,
            "durationTicks": 192,
            "midi": 35,
            "name": "B1",
            "ticks": 100608,
            "time": 165.473436,
            "velocity": 0.7874015748031497
          },
          {
            "duration": 0.3157889999999952,
            "durationTicks": 192,
            "midi": 63,
            "name": "D#4",
            "ticks": 100704,
            "time": 165.6313305,
            "velocity": 0.7874015748031497
          },
          {
            "duration": 0.3157889999999952,
            "durationTicks": 192,
            "midi": 54,
            "name": "F#3",
            "ticks": 100704,
            "time": 165.6313305,
            "velocity": 0.7874015748031497
          },
          {
            "duration": 0.3157889999999952,
            "durationTicks": 192,
            "midi": 59,
            "name": "B3",
            "ticks": 100704,
            "time": 165.6313305,
            "velocity": 1.889763779527559
          },
          {
            "duration": 0.3157889999999952,
            "durationTicks": 192,
            "midi": 66,
            "name": "F#4",
            "ticks": 100704,
            "time": 165.6313305,
            "velocity": 0.7874015748031497
          },
          {
            "duration": 0.1578944999999976,
            "durationTicks": 96,
            "midi": 56,
            "name": "G#3",
            "ticks": 100800,
            "time": 165.789225,
            "velocity": 0.11023622047244094
          },
          {
            "duration": 0.1578944999999976,
            "durationTicks": 96,
            "midi": 35,
            "name": "B1",
            "ticks": 100800,
            "time": 165.789225,
            "velocity": 0.7874015748031497
          },
          {
            "duration": 0.1578944999999976,
            "durationTicks": 96,
            "midi": 51,
            "name": "D#3",
            "ticks": 100896,
            "time": 165.94711949999999,
            "velocity": 0.023622047244094488
          },
          {
            "duration": 0.6315780000000188,
            "durationTicks": 384,
            "midi": 63,
            "name": "D#4",
            "ticks": 100992,
            "time": 166.10501399999998,
            "velocity": 0.7874015748031497
          },
          {
            "duration": 0.1578944999999976,
            "durationTicks": 96,
            "midi": 47,
            "name": "B2",
            "ticks": 100992,
            "time": 166.10501399999998,
            "velocity": 1.889763779527559
          },
          {
            "duration": 0.6315780000000188,
            "durationTicks": 384,
            "midi": 59,
            "name": "B3",
            "ticks": 100992,
            "time": 166.10501399999998,
            "velocity": 0.7874015748031497
          },
          {
            "duration": 0.6315780000000188,
            "durationTicks": 384,
            "midi": 66,
            "name": "F#4",
            "ticks": 100992,
            "time": 166.10501399999998,
            "velocity": 0.7874015748031497
          },
          {
            "duration": 0.6315780000000188,
            "durationTicks": 384,
            "midi": 54,
            "name": "F#3",
            "ticks": 100992,
            "time": 166.10501399999998,
            "velocity": 0.7874015748031497
          },
          {
            "duration": 0.15789450000002603,
            "durationTicks": 96,
            "midi": 44,
            "name": "G#2",
            "ticks": 101088,
            "time": 166.26290849999998,
            "velocity": 1.968503937007874
          },
          {
            "duration": 0.1578944999999976,
            "durationTicks": 96,
            "midi": 39,
            "name": "D#2",
            "ticks": 101184,
            "time": 166.420803,
            "velocity": 1.968503937007874
          },
          {
            "duration": 2.52631199999999,
            "durationTicks": 1536,
            "midi": 37,
            "name": "C#2",
            "ticks": 101376,
            "time": 166.736592,
            "velocity": 0.7874015748031497
          },
          {
            "duration": 2.52631199999999,
            "durationTicks": 1536,
            "midi": 25,
            "name": "C#1",
            "ticks": 101376,
            "time": 166.736592,
            "velocity": 0.7874015748031497
          },
          {
            "duration": 2.52631199999999,
            "durationTicks": 1536,
            "midi": 26,
            "name": "D1",
            "ticks": 102912,
            "time": 169.262904,
            "velocity": 0.7874015748031497
          },
          {
            "duration": 2.52631199999999,
            "durationTicks": 1536,
            "midi": 38,
            "name": "D2",
            "ticks": 102912,
            "time": 169.262904,
            "velocity": 0.7874015748031497
          },
          {
            "duration": 2.5263120000000185,
            "durationTicks": 1536,
            "midi": 31,
            "name": "G1",
            "ticks": 104448,
            "time": 171.78921599999998,
            "velocity": 0.7874015748031497
          },
          {
            "duration": 2.5263120000000185,
            "durationTicks": 1536,
            "midi": 43,
            "name": "G2",
            "ticks": 104448,
            "time": 171.78921599999998,
            "velocity": 0.7874015748031497
          },
          {
            "duration": 1.2631559999999808,
            "durationTicks": 768,
            "midi": 45,
            "name": "A2",
            "ticks": 105984,
            "time": 174.315528,
            "velocity": 0.7874015748031497
          },
          {
            "duration": 1.2631559999999808,
            "durationTicks": 768,
            "midi": 33,
            "name": "A1",
            "ticks": 105984,
            "time": 174.315528,
            "velocity": 0.7874015748031497
          },
          {
            "duration": 1.2631560000000093,
            "durationTicks": 768,
            "midi": 47,
            "name": "B2",
            "ticks": 106752,
            "time": 175.57868399999998,
            "velocity": 0.7874015748031497
          },
          {
            "duration": 1.2631560000000093,
            "durationTicks": 768,
            "midi": 35,
            "name": "B1",
            "ticks": 106752,
            "time": 175.57868399999998,
            "velocity": 0.7874015748031497
          }
        ],
        "endOfTrackTicks": 107520
      },
      {
        "channel": 9,
        "controlChanges": {},
        "pitchBends": [],
        "instrument": {
          "family": "drums",
          "number": 0,
          "name": "standard kit"
        },
        "name": "909 Drum Kit",
        "notes": [
          {
            "duration": 0.1578944999999976,
            "durationTicks": 96,
            "midi": 0,
            "name": "C-1",
            "ticks": 39936,
            "time": 65.684112,
            "velocity": 0.3937007874015748
          },
          {
            "duration": 0.1578944999999976,
            "durationTicks": 96,
            "midi": 0,
            "name": "C-1",
            "ticks": 39936,
            "time": 65.684112,
            "velocity": 0.3937007874015748
          },
          {
            "duration": 0.1578944999999976,
            "durationTicks": 96,
            "midi": 0,
            "name": "C-1",
            "ticks": 39936,
            "time": 65.684112,
            "velocity": 0.3937007874015748
          },
          {
            "duration": 0.1578944999999976,
            "durationTicks": 96,
            "midi": 0,
            "name": "C-1",
            "ticks": 40128,
            "time": 65.999901,
            "velocity": 0.3937007874015748
          },
          {
            "duration": 0.1578944999999976,
            "durationTicks": 96,
            "midi": 0,
            "name": "C-1",
            "ticks": 40128,
            "time": 65.999901,
            "velocity": 0.3937007874015748
          },
          {
            "duration": 0.1578944999999976,
            "durationTicks": 96,
            "midi": 0,
            "name": "C-1",
            "ticks": 40128,
            "time": 65.999901,
            "velocity": 0.3937007874015748
          },
          {
            "duration": 0.15789450000001182,
            "durationTicks": 96,
            "midi": 0,
            "name": "C-1",
            "ticks": 40224,
            "time": 66.15779549999999,
            "velocity": 0.3937007874015748
          },
          {
            "duration": 0.1578944999999976,
            "durationTicks": 96,
            "midi": 0,
            "name": "C-1",
            "ticks": 40320,
            "time": 66.31569,
            "velocity": 0.3937007874015748
          },
          {
            "duration": 0.1578944999999976,
            "durationTicks": 96,
            "midi": 0,
            "name": "C-1",
            "ticks": 40416,
            "time": 66.4735845,
            "velocity": 0.3937007874015748
          },
          {
            "duration": 0.1578944999999976,
            "durationTicks": 96,
            "midi": 0,
            "name": "C-1",
            "ticks": 40512,
            "time": 66.631479,
            "velocity": 0.3937007874015748
          },
          {
            "duration": 0.1578944999999976,
            "durationTicks": 96,
            "midi": 0,
            "name": "C-1",
            "ticks": 40512,
            "time": 66.631479,
            "velocity": 0.3937007874015748
          },
          {
            "duration": 0.1578944999999976,
            "durationTicks": 96,
            "midi": 0,
            "name": "C-1",
            "ticks": 40512,
            "time": 66.631479,
            "velocity": 0.3937007874015748
          },
          {
            "duration": 0.1578944999999976,
            "durationTicks": 96,
            "midi": 0,
            "name": "C-1",
            "ticks": 40704,
            "time": 66.947268,
            "velocity": 0.3937007874015748
          },
          {
            "duration": 0.1578944999999976,
            "durationTicks": 96,
            "midi": 0,
            "name": "C-1",
            "ticks": 40896,
            "time": 67.263057,
            "velocity": 0.3937007874015748
          },
          {
            "duration": 0.1578944999999976,
            "durationTicks": 96,
            "midi": 0,
            "name": "C-1",
            "ticks": 40896,
            "time": 67.263057,
            "velocity": 0.3937007874015748
          },
          {
            "duration": 0.1578944999999976,
            "durationTicks": 96,
            "midi": 0,
            "name": "C-1",
            "ticks": 40896,
            "time": 67.263057,
            "velocity": 0.3937007874015748
          },
          {
            "duration": 0.1578944999999976,
            "durationTicks": 96,
            "midi": 0,
            "name": "C-1",
            "ticks": 40992,
            "time": 67.4209515,
            "velocity": 0.3937007874015748
          },
          {
            "duration": 0.1578944999999976,
            "durationTicks": 96,
            "midi": 0,
            "name": "C-1",
            "ticks": 41088,
            "time": 67.578846,
            "velocity": 0.3937007874015748
          },
          {
            "duration": 0.1578944999999976,
            "durationTicks": 96,
            "midi": 0,
            "name": "C-1",
            "ticks": 41184,
            "time": 67.7367405,
            "velocity": 0.3937007874015748
          },
          {
            "duration": 0.1578944999999976,
            "durationTicks": 96,
            "midi": 0,
            "name": "C-1",
            "ticks": 41280,
            "time": 67.894635,
            "velocity": 0.3937007874015748
          },
          {
            "duration": 0.1578944999999976,
            "durationTicks": 96,
            "midi": 0,
            "name": "C-1",
            "ticks": 41280,
            "time": 67.894635,
            "velocity": 0.3937007874015748
          },
          {
            "duration": 0.1578944999999976,
            "durationTicks": 96,
            "midi": 0,
            "name": "C-1",
            "ticks": 41280,
            "time": 67.894635,
            "velocity": 0.3937007874015748
          },
          {
            "duration": 0.1578944999999976,
            "durationTicks": 96,
            "midi": 0,
            "name": "C-1",
            "ticks": 41472,
            "time": 68.210424,
            "velocity": 0.3937007874015748
          },
          {
            "duration": 0.1578944999999976,
            "durationTicks": 96,
            "midi": 0,
            "name": "C-1",
            "ticks": 41472,
            "time": 68.210424,
            "velocity": 0.3937007874015748
          },
          {
            "duration": 0.1578944999999976,
            "durationTicks": 96,
            "midi": 0,
            "name": "C-1",
            "ticks": 41664,
            "time": 68.526213,
            "velocity": 0.3937007874015748
          },
          {
            "duration": 0.1578944999999976,
            "durationTicks": 96,
            "midi": 0,
            "name": "C-1",
            "ticks": 41664,
            "time": 68.526213,
            "velocity": 0.3937007874015748
          },
          {
            "duration": 0.1578944999999976,
            "durationTicks": 96,
            "midi": 0,
            "name": "C-1",
            "ticks": 41664,
            "time": 68.526213,
            "velocity": 0.3937007874015748
          },
          {
            "duration": 0.1578944999999976,
            "durationTicks": 96,
            "midi": 0,
            "name": "C-1",
            "ticks": 41760,
            "time": 68.6841075,
            "velocity": 0.3937007874015748
          },
          {
            "duration": 0.1578944999999976,
            "durationTicks": 96,
            "midi": 0,
            "name": "C-1",
            "ticks": 41856,
            "time": 68.842002,
            "velocity": 0.3937007874015748
          },
          {
            "duration": 0.15789450000001182,
            "durationTicks": 96,
            "midi": 0,
            "name": "C-1",
            "ticks": 41952,
            "time": 68.99989649999999,
            "velocity": 0.3937007874015748
          },
          {
            "duration": 0.1578944999999976,
            "durationTicks": 96,
            "midi": 0,
            "name": "C-1",
            "ticks": 42048,
            "time": 69.157791,
            "velocity": 0.3937007874015748
          },
          {
            "duration": 0.1578944999999976,
            "durationTicks": 96,
            "midi": 0,
            "name": "C-1",
            "ticks": 42048,
            "time": 69.157791,
            "velocity": 0.3937007874015748
          },
          {
            "duration": 0.1578944999999976,
            "durationTicks": 96,
            "midi": 0,
            "name": "C-1",
            "ticks": 42048,
            "time": 69.157791,
            "velocity": 0.3937007874015748
          },
          {
            "duration": 0.1578944999999976,
            "durationTicks": 96,
            "midi": 0,
            "name": "C-1",
            "ticks": 42240,
            "time": 69.47358,
            "velocity": 0.3937007874015748
          },
          {
            "duration": 0.1578944999999976,
            "durationTicks": 96,
            "midi": 0,
            "name": "C-1",
            "ticks": 42432,
            "time": 69.789369,
            "velocity": 0.3937007874015748
          },
          {
            "duration": 0.1578944999999976,
            "durationTicks": 96,
            "midi": 0,
            "name": "C-1",
            "ticks": 42432,
            "time": 69.789369,
            "velocity": 0.3937007874015748
          },
          {
            "duration": 0.1578944999999976,
            "durationTicks": 96,
            "midi": 0,
            "name": "C-1",
            "ticks": 42432,
            "time": 69.789369,
            "velocity": 0.3937007874015748
          },
          {
            "duration": 0.15789450000001182,
            "durationTicks": 96,
            "midi": 0,
            "name": "C-1",
            "ticks": 42528,
            "time": 69.94726349999999,
            "velocity": 0.3937007874015748
          },
          {
            "duration": 0.1578944999999976,
            "durationTicks": 96,
            "midi": 0,
            "name": "C-1",
            "ticks": 42624,
            "time": 70.105158,
            "velocity": 0.3937007874015748
          },
          {
            "duration": 0.1578944999999976,
            "durationTicks": 96,
            "midi": 0,
            "name": "C-1",
            "ticks": 42720,
            "time": 70.2630525,
            "velocity": 0.3937007874015748
          },
          {
            "duration": 0.1578944999999976,
            "durationTicks": 96,
            "midi": 0,
            "name": "C-1",
            "ticks": 42816,
            "time": 70.420947,
            "velocity": 0.3937007874015748
          },
          {
            "duration": 0.1578944999999976,
            "durationTicks": 96,
            "midi": 0,
            "name": "C-1",
            "ticks": 42816,
            "time": 70.420947,
            "velocity": 0.3937007874015748
          },
          {
            "duration": 0.1578944999999976,
            "durationTicks": 96,
            "midi": 0,
            "name": "C-1",
            "ticks": 42816,
            "time": 70.420947,
            "velocity": 0.3937007874015748
          },
          {
            "duration": 0.1578944999999976,
            "durationTicks": 96,
            "midi": 0,
            "name": "C-1",
            "ticks": 42816,
            "time": 70.420947,
            "velocity": 0.3937007874015748
          },
          {
            "duration": 0.1578944999999976,
            "durationTicks": 96,
            "midi": 0,
            "name": "C-1",
            "ticks": 43008,
            "time": 70.736736,
            "velocity": 0.3937007874015748
          },
          {
            "duration": 0.1578944999999976,
            "durationTicks": 96,
            "midi": 0,
            "name": "C-1",
            "ticks": 43008,
            "time": 70.736736,
            "velocity": 0.3937007874015748
          },
          {
            "duration": 0.1578944999999976,
            "durationTicks": 96,
            "midi": 0,
            "name": "C-1",
            "ticks": 43008,
            "time": 70.736736,
            "velocity": 0.3937007874015748
          },
          {
            "duration": 0.1578944999999976,
            "durationTicks": 96,
            "midi": 0,
            "name": "C-1",
            "ticks": 43200,
            "time": 71.052525,
            "velocity": 0.3937007874015748
          },
          {
            "duration": 0.1578944999999976,
            "durationTicks": 96,
            "midi": 0,
            "name": "C-1",
            "ticks": 43200,
            "time": 71.052525,
            "velocity": 0.3937007874015748
          },
          {
            "duration": 0.1578944999999976,
            "durationTicks": 96,
            "midi": 0,
            "name": "C-1",
            "ticks": 43200,
            "time": 71.052525,
            "velocity": 0.3937007874015748
          },
          {
            "duration": 0.1578944999999976,
            "durationTicks": 96,
            "midi": 0,
            "name": "C-1",
            "ticks": 43296,
            "time": 71.2104195,
            "velocity": 0.3937007874015748
          },
          {
            "duration": 0.1578944999999976,
            "durationTicks": 96,
            "midi": 0,
            "name": "C-1",
            "ticks": 43392,
            "time": 71.368314,
            "velocity": 0.3937007874015748
          },
          {
            "duration": 0.1578944999999976,
            "durationTicks": 96,
            "midi": 0,
            "name": "C-1",
            "ticks": 43488,
            "time": 71.5262085,
            "velocity": 0.3937007874015748
          },
          {
            "duration": 0.1578944999999976,
            "durationTicks": 96,
            "midi": 0,
            "name": "C-1",
            "ticks": 43584,
            "time": 71.684103,
            "velocity": 0.3937007874015748
          },
          {
            "duration": 0.1578944999999976,
            "durationTicks": 96,
            "midi": 0,
            "name": "C-1",
            "ticks": 43584,
            "time": 71.684103,
            "velocity": 0.3937007874015748
          },
          {
            "duration": 0.1578944999999976,
            "durationTicks": 96,
            "midi": 0,
            "name": "C-1",
            "ticks": 43584,
            "time": 71.684103,
            "velocity": 0.3937007874015748
          },
          {
            "duration": 0.1578944999999976,
            "durationTicks": 96,
            "midi": 0,
            "name": "C-1",
            "ticks": 43776,
            "time": 71.999892,
            "velocity": 0.3937007874015748
          },
          {
            "duration": 0.1578944999999976,
            "durationTicks": 96,
            "midi": 0,
            "name": "C-1",
            "ticks": 43968,
            "time": 72.315681,
            "velocity": 0.3937007874015748
          },
          {
            "duration": 0.1578944999999976,
            "durationTicks": 96,
            "midi": 0,
            "name": "C-1",
            "ticks": 43968,
            "time": 72.315681,
            "velocity": 0.3937007874015748
          },
          {
            "duration": 0.1578944999999976,
            "durationTicks": 96,
            "midi": 0,
            "name": "C-1",
            "ticks": 43968,
            "time": 72.315681,
            "velocity": 0.3937007874015748
          },
          {
            "duration": 0.1578944999999976,
            "durationTicks": 96,
            "midi": 0,
            "name": "C-1",
            "ticks": 44064,
            "time": 72.4735755,
            "velocity": 0.3937007874015748
          },
          {
            "duration": 0.1578944999999976,
            "durationTicks": 96,
            "midi": 0,
            "name": "C-1",
            "ticks": 44160,
            "time": 72.63147,
            "velocity": 0.3937007874015748
          },
          {
            "duration": 0.15789450000001182,
            "durationTicks": 96,
            "midi": 0,
            "name": "C-1",
            "ticks": 44256,
            "time": 72.78936449999999,
            "velocity": 0.3937007874015748
          },
          {
            "duration": 0.1578944999999976,
            "durationTicks": 96,
            "midi": 0,
            "name": "C-1",
            "ticks": 44352,
            "time": 72.947259,
            "velocity": 0.3937007874015748
          },
          {
            "duration": 0.1578944999999976,
            "durationTicks": 96,
            "midi": 0,
            "name": "C-1",
            "ticks": 44352,
            "time": 72.947259,
            "velocity": 0.3937007874015748
          },
          {
            "duration": 0.1578944999999976,
            "durationTicks": 96,
            "midi": 0,
            "name": "C-1",
            "ticks": 44352,
            "time": 72.947259,
            "velocity": 0.3937007874015748
          },
          {
            "duration": 0.1578944999999976,
            "durationTicks": 96,
            "midi": 0,
            "name": "C-1",
            "ticks": 44544,
            "time": 73.263048,
            "velocity": 0.3937007874015748
          },
          {
            "duration": 0.1578944999999976,
            "durationTicks": 96,
            "midi": 0,
            "name": "C-1",
            "ticks": 44544,
            "time": 73.263048,
            "velocity": 0.3937007874015748
          },
          {
            "duration": 0.1578944999999976,
            "durationTicks": 96,
            "midi": 0,
            "name": "C-1",
            "ticks": 44736,
            "time": 73.578837,
            "velocity": 0.3937007874015748
          },
          {
            "duration": 0.1578944999999976,
            "durationTicks": 96,
            "midi": 0,
            "name": "C-1",
            "ticks": 44736,
            "time": 73.578837,
            "velocity": 0.3937007874015748
          },
          {
            "duration": 0.1578944999999976,
            "durationTicks": 96,
            "midi": 0,
            "name": "C-1",
            "ticks": 44736,
            "time": 73.578837,
            "velocity": 0.3937007874015748
          },
          {
            "duration": 0.15789450000001182,
            "durationTicks": 96,
            "midi": 0,
            "name": "C-1",
            "ticks": 44832,
            "time": 73.73673149999999,
            "velocity": 0.3937007874015748
          },
          {
            "duration": 0.1578944999999976,
            "durationTicks": 96,
            "midi": 0,
            "name": "C-1",
            "ticks": 44928,
            "time": 73.894626,
            "velocity": 0.3937007874015748
          },
          {
            "duration": 0.1578944999999976,
            "durationTicks": 96,
            "midi": 0,
            "name": "C-1",
            "ticks": 45024,
            "time": 74.0525205,
            "velocity": 0.3937007874015748
          },
          {
            "duration": 0.1578944999999976,
            "durationTicks": 96,
            "midi": 0,
            "name": "C-1",
            "ticks": 45120,
            "time": 74.210415,
            "velocity": 0.3937007874015748
          },
          {
            "duration": 0.1578944999999976,
            "durationTicks": 96,
            "midi": 0,
            "name": "C-1",
            "ticks": 45120,
            "time": 74.210415,
            "velocity": 0.3937007874015748
          },
          {
            "duration": 0.1578944999999976,
            "durationTicks": 96,
            "midi": 0,
            "name": "C-1",
            "ticks": 45120,
            "time": 74.210415,
            "velocity": 0.3937007874015748
          },
          {
            "duration": 0.1578944999999976,
            "durationTicks": 96,
            "midi": 0,
            "name": "C-1",
            "ticks": 45312,
            "time": 74.52620399999999,
            "velocity": 0.3937007874015748
          },
          {
            "duration": 0.1578944999999976,
            "durationTicks": 96,
            "midi": 0,
            "name": "C-1",
            "ticks": 45312,
            "time": 74.52620399999999,
            "velocity": 0.3937007874015748
          },
          {
            "duration": 0.07894725000001301,
            "durationTicks": 48,
            "midi": 0,
            "name": "C-1",
            "ticks": 45408,
            "time": 74.68409849999999,
            "velocity": 0.3937007874015748
          },
          {
            "duration": 0.07894725000001301,
            "durationTicks": 48,
            "midi": 0,
            "name": "C-1",
            "ticks": 45408,
            "time": 74.68409849999999,
            "velocity": 0.3937007874015748
          },
          {
            "duration": 0.07894725000001301,
            "durationTicks": 48,
            "midi": 0,
            "name": "C-1",
            "ticks": 45408,
            "time": 74.68409849999999,
            "velocity": 0.3937007874015748
          },
          {
            "duration": 0.15789450000001182,
            "durationTicks": 96,
            "midi": 0,
            "name": "C-1",
            "ticks": 45408,
            "time": 74.68409849999999,
            "velocity": 0.3937007874015748
          },
          {
            "duration": 0.0789472499999988,
            "durationTicks": 48,
            "midi": 0,
            "name": "C-1",
            "ticks": 45456,
            "time": 74.76304575,
            "velocity": 0.3937007874015748
          },
          {
            "duration": 0.0789472499999988,
            "durationTicks": 48,
            "midi": 0,
            "name": "C-1",
            "ticks": 45456,
            "time": 74.76304575,
            "velocity": 0.3937007874015748
          },
          {
            "duration": 0.0789472499999988,
            "durationTicks": 48,
            "midi": 0,
            "name": "C-1",
            "ticks": 45456,
            "time": 74.76304575,
            "velocity": 0.3937007874015748
          },
          {
            "duration": 0.1578944999999976,
            "durationTicks": 96,
            "midi": 0,
            "name": "C-1",
            "ticks": 45504,
            "time": 74.841993,
            "velocity": 0.3937007874015748
          },
          {
            "duration": 0.1578944999999976,
            "durationTicks": 96,
            "midi": 0,
            "name": "C-1",
            "ticks": 45504,
            "time": 74.841993,
            "velocity": 0.3937007874015748
          },
          {
            "duration": 0.1578944999999976,
            "durationTicks": 96,
            "midi": 0,
            "name": "C-1",
            "ticks": 45504,
            "time": 74.841993,
            "velocity": 0.3937007874015748
          },
          {
            "duration": 0.1578944999999976,
            "durationTicks": 96,
            "midi": 0,
            "name": "C-1",
            "ticks": 45504,
            "time": 74.841993,
            "velocity": 0.3937007874015748
          },
          {
            "duration": 0.1578944999999976,
            "durationTicks": 96,
            "midi": 0,
            "name": "C-1",
            "ticks": 45600,
            "time": 74.9998875,
            "velocity": 0.3937007874015748
          },
          {
            "duration": 0.1578944999999976,
            "durationTicks": 96,
            "midi": 0,
            "name": "C-1",
            "ticks": 45696,
            "time": 75.157782,
            "velocity": 0.3937007874015748
          },
          {
            "duration": 0.1578944999999976,
            "durationTicks": 96,
            "midi": 0,
            "name": "C-1",
            "ticks": 45696,
            "time": 75.157782,
            "velocity": 0.3937007874015748
          },
          {
            "duration": 0.1578944999999976,
            "durationTicks": 96,
            "midi": 0,
            "name": "C-1",
            "ticks": 45696,
            "time": 75.157782,
            "velocity": 0.3937007874015748
          },
          {
            "duration": 0.1578944999999976,
            "durationTicks": 96,
            "midi": 0,
            "name": "C-1",
            "ticks": 45696,
            "time": 75.157782,
            "velocity": 0.3937007874015748
          },
          {
            "duration": 0.1578944999999976,
            "durationTicks": 96,
            "midi": 0,
            "name": "C-1",
            "ticks": 45792,
            "time": 75.3156765,
            "velocity": 0.3937007874015748
          },
          {
            "duration": 0.1578944999999976,
            "durationTicks": 96,
            "midi": 0,
            "name": "C-1",
            "ticks": 45888,
            "time": 75.47357099999999,
            "velocity": 0.3937007874015748
          },
          {
            "duration": 0.1578944999999976,
            "durationTicks": 96,
            "midi": 0,
            "name": "C-1",
            "ticks": 45888,
            "time": 75.47357099999999,
            "velocity": 0.3937007874015748
          },
          {
            "duration": 0.1578944999999976,
            "durationTicks": 96,
            "midi": 0,
            "name": "C-1",
            "ticks": 45888,
            "time": 75.47357099999999,
            "velocity": 0.3937007874015748
          },
          {
            "duration": 0.1578944999999976,
            "durationTicks": 96,
            "midi": 0,
            "name": "C-1",
            "ticks": 45888,
            "time": 75.47357099999999,
            "velocity": 0.3937007874015748
          },
          {
            "duration": 0.1578944999999976,
            "durationTicks": 96,
            "midi": 0,
            "name": "C-1",
            "ticks": 46080,
            "time": 75.78936,
            "velocity": 0.3937007874015748
          },
          {
            "duration": 0.1578944999999976,
            "durationTicks": 96,
            "midi": 0,
            "name": "C-1",
            "ticks": 46080,
            "time": 75.78936,
            "velocity": 0.3937007874015748
          },
          {
            "duration": 0.1578944999999976,
            "durationTicks": 96,
            "midi": 0,
            "name": "C-1",
            "ticks": 46080,
            "time": 75.78936,
            "velocity": 0.3937007874015748
          },
          {
            "duration": 0.1578944999999976,
            "durationTicks": 96,
            "midi": 0,
            "name": "C-1",
            "ticks": 46272,
            "time": 76.105149,
            "velocity": 0.3937007874015748
          },
          {
            "duration": 0.1578944999999976,
            "durationTicks": 96,
            "midi": 0,
            "name": "C-1",
            "ticks": 46272,
            "time": 76.105149,
            "velocity": 0.3937007874015748
          },
          {
            "duration": 0.1578944999999976,
            "durationTicks": 96,
            "midi": 0,
            "name": "C-1",
            "ticks": 46272,
            "time": 76.105149,
            "velocity": 0.3937007874015748
          },
          {
            "duration": 0.1578944999999976,
            "durationTicks": 96,
            "midi": 0,
            "name": "C-1",
            "ticks": 46368,
            "time": 76.2630435,
            "velocity": 0.3937007874015748
          },
          {
            "duration": 0.1578944999999976,
            "durationTicks": 96,
            "midi": 0,
            "name": "C-1",
            "ticks": 46464,
            "time": 76.42093799999999,
            "velocity": 0.3937007874015748
          },
          {
            "duration": 0.15789450000001182,
            "durationTicks": 96,
            "midi": 0,
            "name": "C-1",
            "ticks": 46560,
            "time": 76.57883249999999,
            "velocity": 0.3937007874015748
          },
          {
            "duration": 0.1578944999999976,
            "durationTicks": 96,
            "midi": 0,
            "name": "C-1",
            "ticks": 46656,
            "time": 76.736727,
            "velocity": 0.3937007874015748
          },
          {
            "duration": 0.1578944999999976,
            "durationTicks": 96,
            "midi": 0,
            "name": "C-1",
            "ticks": 46656,
            "time": 76.736727,
            "velocity": 0.3937007874015748
          },
          {
            "duration": 0.1578944999999976,
            "durationTicks": 96,
            "midi": 0,
            "name": "C-1",
            "ticks": 46656,
            "time": 76.736727,
            "velocity": 0.3937007874015748
          },
          {
            "duration": 0.1578944999999976,
            "durationTicks": 96,
            "midi": 0,
            "name": "C-1",
            "ticks": 46848,
            "time": 77.052516,
            "velocity": 0.3937007874015748
          },
          {
            "duration": 0.1578944999999976,
            "durationTicks": 96,
            "midi": 0,
            "name": "C-1",
            "ticks": 47040,
            "time": 77.36830499999999,
            "velocity": 0.3937007874015748
          },
          {
            "duration": 0.1578944999999976,
            "durationTicks": 96,
            "midi": 0,
            "name": "C-1",
            "ticks": 47040,
            "time": 77.36830499999999,
            "velocity": 0.3937007874015748
          },
          {
            "duration": 0.1578944999999976,
            "durationTicks": 96,
            "midi": 0,
            "name": "C-1",
            "ticks": 47040,
            "time": 77.36830499999999,
            "velocity": 0.3937007874015748
          },
          {
            "duration": 0.15789450000001182,
            "durationTicks": 96,
            "midi": 0,
            "name": "C-1",
            "ticks": 47136,
            "time": 77.52619949999999,
            "velocity": 0.3937007874015748
          },
          {
            "duration": 0.1578944999999976,
            "durationTicks": 96,
            "midi": 0,
            "name": "C-1",
            "ticks": 47232,
            "time": 77.684094,
            "velocity": 0.3937007874015748
          },
          {
            "duration": 0.1578944999999976,
            "durationTicks": 96,
            "midi": 0,
            "name": "C-1",
            "ticks": 47328,
            "time": 77.8419885,
            "velocity": 0.3937007874015748
          },
          {
            "duration": 0.1578944999999976,
            "durationTicks": 96,
            "midi": 0,
            "name": "C-1",
            "ticks": 47424,
            "time": 77.999883,
            "velocity": 0.3937007874015748
          },
          {
            "duration": 0.1578944999999976,
            "durationTicks": 96,
            "midi": 0,
            "name": "C-1",
            "ticks": 47424,
            "time": 77.999883,
            "velocity": 0.3937007874015748
          },
          {
            "duration": 0.1578944999999976,
            "durationTicks": 96,
            "midi": 0,
            "name": "C-1",
            "ticks": 47424,
            "time": 77.999883,
            "velocity": 0.3937007874015748
          },
          {
            "duration": 0.1578944999999976,
            "durationTicks": 96,
            "midi": 0,
            "name": "C-1",
            "ticks": 47616,
            "time": 78.31567199999999,
            "velocity": 0.3937007874015748
          },
          {
            "duration": 0.1578944999999976,
            "durationTicks": 96,
            "midi": 0,
            "name": "C-1",
            "ticks": 47616,
            "time": 78.31567199999999,
            "velocity": 0.3937007874015748
          },
          {
            "duration": 0.1578944999999976,
            "durationTicks": 96,
            "midi": 0,
            "name": "C-1",
            "ticks": 47808,
            "time": 78.631461,
            "velocity": 0.3937007874015748
          },
          {
            "duration": 0.1578944999999976,
            "durationTicks": 96,
            "midi": 0,
            "name": "C-1",
            "ticks": 47808,
            "time": 78.631461,
            "velocity": 0.3937007874015748
          },
          {
            "duration": 0.1578944999999976,
            "durationTicks": 96,
            "midi": 0,
            "name": "C-1",
            "ticks": 47808,
            "time": 78.631461,
            "velocity": 0.3937007874015748
          },
          {
            "duration": 0.1578944999999976,
            "durationTicks": 96,
            "midi": 0,
            "name": "C-1",
            "ticks": 47904,
            "time": 78.7893555,
            "velocity": 0.3937007874015748
          },
          {
            "duration": 0.1578944999999976,
            "durationTicks": 96,
            "midi": 0,
            "name": "C-1",
            "ticks": 48000,
            "time": 78.94725,
            "velocity": 0.3937007874015748
          },
          {
            "duration": 0.1578944999999976,
            "durationTicks": 96,
            "midi": 0,
            "name": "C-1",
            "ticks": 48096,
            "time": 79.1051445,
            "velocity": 0.3937007874015748
          },
          {
            "duration": 0.1578944999999976,
            "durationTicks": 96,
            "midi": 0,
            "name": "C-1",
            "ticks": 48192,
            "time": 79.26303899999999,
            "velocity": 0.3937007874015748
          },
          {
            "duration": 0.1578944999999976,
            "durationTicks": 96,
            "midi": 0,
            "name": "C-1",
            "ticks": 48192,
            "time": 79.26303899999999,
            "velocity": 0.3937007874015748
          },
          {
            "duration": 0.1578944999999976,
            "durationTicks": 96,
            "midi": 0,
            "name": "C-1",
            "ticks": 48192,
            "time": 79.26303899999999,
            "velocity": 0.3937007874015748
          },
          {
            "duration": 0.1578944999999976,
            "durationTicks": 96,
            "midi": 0,
            "name": "C-1",
            "ticks": 48384,
            "time": 79.578828,
            "velocity": 0.3937007874015748
          },
          {
            "duration": 0.1578944999999976,
            "durationTicks": 96,
            "midi": 0,
            "name": "C-1",
            "ticks": 48576,
            "time": 79.894617,
            "velocity": 0.3937007874015748
          },
          {
            "duration": 0.1578944999999976,
            "durationTicks": 96,
            "midi": 0,
            "name": "C-1",
            "ticks": 48576,
            "time": 79.894617,
            "velocity": 0.3937007874015748
          },
          {
            "duration": 0.1578944999999976,
            "durationTicks": 96,
            "midi": 0,
            "name": "C-1",
            "ticks": 48576,
            "time": 79.894617,
            "velocity": 0.3937007874015748
          },
          {
            "duration": 0.1578944999999976,
            "durationTicks": 96,
            "midi": 0,
            "name": "C-1",
            "ticks": 48672,
            "time": 80.0525115,
            "velocity": 0.3937007874015748
          },
          {
            "duration": 0.1578944999999976,
            "durationTicks": 96,
            "midi": 0,
            "name": "C-1",
            "ticks": 48768,
            "time": 80.21040599999999,
            "velocity": 0.3937007874015748
          },
          {
            "duration": 0.15789450000001182,
            "durationTicks": 96,
            "midi": 0,
            "name": "C-1",
            "ticks": 48864,
            "time": 80.36830049999999,
            "velocity": 0.3937007874015748
          },
          {
            "duration": 0.1578944999999976,
            "durationTicks": 96,
            "midi": 0,
            "name": "C-1",
            "ticks": 48960,
            "time": 80.526195,
            "velocity": 0.3937007874015748
          },
          {
            "duration": 0.1578944999999976,
            "durationTicks": 96,
            "midi": 0,
            "name": "C-1",
            "ticks": 48960,
            "time": 80.526195,
            "velocity": 0.3937007874015748
          },
          {
            "duration": 0.1578944999999976,
            "durationTicks": 96,
            "midi": 0,
            "name": "C-1",
            "ticks": 48960,
            "time": 80.526195,
            "velocity": 0.3937007874015748
          },
          {
            "duration": 0.1578944999999976,
            "durationTicks": 96,
            "midi": 0,
            "name": "C-1",
            "ticks": 48960,
            "time": 80.526195,
            "velocity": 0.3937007874015748
          },
          {
            "duration": 0.1578944999999976,
            "durationTicks": 96,
            "midi": 0,
            "name": "C-1",
            "ticks": 49152,
            "time": 80.841984,
            "velocity": 0.3937007874015748
          },
          {
            "duration": 0.1578944999999976,
            "durationTicks": 96,
            "midi": 0,
            "name": "C-1",
            "ticks": 49152,
            "time": 80.841984,
            "velocity": 0.3937007874015748
          },
          {
            "duration": 0.1578944999999976,
            "durationTicks": 96,
            "midi": 0,
            "name": "C-1",
            "ticks": 49152,
            "time": 80.841984,
            "velocity": 0.3937007874015748
          },
          {
            "duration": 0.15789450000001182,
            "durationTicks": 96,
            "midi": 0,
            "name": "C-1",
            "ticks": 49344,
            "time": 81.15777299999999,
            "velocity": 0.3937007874015748
          },
          {
            "duration": 0.15789450000001182,
            "durationTicks": 96,
            "midi": 0,
            "name": "C-1",
            "ticks": 49344,
            "time": 81.15777299999999,
            "velocity": 0.3937007874015748
          },
          {
            "duration": 0.15789450000001182,
            "durationTicks": 96,
            "midi": 0,
            "name": "C-1",
            "ticks": 49344,
            "time": 81.15777299999999,
            "velocity": 0.3937007874015748
          },
          {
            "duration": 0.1578944999999976,
            "durationTicks": 96,
            "midi": 0,
            "name": "C-1",
            "ticks": 49440,
            "time": 81.3156675,
            "velocity": 0.3937007874015748
          },
          {
            "duration": 0.1578944999999976,
            "durationTicks": 96,
            "midi": 0,
            "name": "C-1",
            "ticks": 49536,
            "time": 81.473562,
            "velocity": 0.3937007874015748
          },
          {
            "duration": 0.1578944999999976,
            "durationTicks": 96,
            "midi": 0,
            "name": "C-1",
            "ticks": 49632,
            "time": 81.6314565,
            "velocity": 0.3937007874015748
          },
          {
            "duration": 0.1578944999999976,
            "durationTicks": 96,
            "midi": 0,
            "name": "C-1",
            "ticks": 49728,
            "time": 81.789351,
            "velocity": 0.3937007874015748
          },
          {
            "duration": 0.1578944999999976,
            "durationTicks": 96,
            "midi": 0,
            "name": "C-1",
            "ticks": 49728,
            "time": 81.789351,
            "velocity": 0.3937007874015748
          },
          {
            "duration": 0.1578944999999976,
            "durationTicks": 96,
            "midi": 0,
            "name": "C-1",
            "ticks": 49728,
            "time": 81.789351,
            "velocity": 0.3937007874015748
          },
          {
            "duration": 0.15789450000001182,
            "durationTicks": 96,
            "midi": 0,
            "name": "C-1",
            "ticks": 49920,
            "time": 82.10513999999999,
            "velocity": 0.3937007874015748
          },
          {
            "duration": 0.1578944999999976,
            "durationTicks": 96,
            "midi": 0,
            "name": "C-1",
            "ticks": 50112,
            "time": 82.420929,
            "velocity": 0.3937007874015748
          },
          {
            "duration": 0.1578944999999976,
            "durationTicks": 96,
            "midi": 0,
            "name": "C-1",
            "ticks": 50112,
            "time": 82.420929,
            "velocity": 0.3937007874015748
          },
          {
            "duration": 0.1578944999999976,
            "durationTicks": 96,
            "midi": 0,
            "name": "C-1",
            "ticks": 50112,
            "time": 82.420929,
            "velocity": 0.3937007874015748
          },
          {
            "duration": 0.1578944999999976,
            "durationTicks": 96,
            "midi": 0,
            "name": "C-1",
            "ticks": 50208,
            "time": 82.5788235,
            "velocity": 0.3937007874015748
          },
          {
            "duration": 0.1578944999999976,
            "durationTicks": 96,
            "midi": 0,
            "name": "C-1",
            "ticks": 50304,
            "time": 82.736718,
            "velocity": 0.3937007874015748
          },
          {
            "duration": 0.1578944999999976,
            "durationTicks": 96,
            "midi": 0,
            "name": "C-1",
            "ticks": 50400,
            "time": 82.8946125,
            "velocity": 0.3937007874015748
          },
          {
            "duration": 0.15789450000001182,
            "durationTicks": 96,
            "midi": 0,
            "name": "C-1",
            "ticks": 50496,
            "time": 83.05250699999999,
            "velocity": 0.3937007874015748
          },
          {
            "duration": 0.15789450000001182,
            "durationTicks": 96,
            "midi": 0,
            "name": "C-1",
            "ticks": 50496,
            "time": 83.05250699999999,
            "velocity": 0.3937007874015748
          },
          {
            "duration": 0.15789450000001182,
            "durationTicks": 96,
            "midi": 0,
            "name": "C-1",
            "ticks": 50496,
            "time": 83.05250699999999,
            "velocity": 0.3937007874015748
          },
          {
            "duration": 0.1578944999999976,
            "durationTicks": 96,
            "midi": 0,
            "name": "C-1",
            "ticks": 50688,
            "time": 83.368296,
            "velocity": 0.3937007874015748
          },
          {
            "duration": 0.1578944999999976,
            "durationTicks": 96,
            "midi": 0,
            "name": "C-1",
            "ticks": 50688,
            "time": 83.368296,
            "velocity": 0.3937007874015748
          },
          {
            "duration": 0.1578944999999976,
            "durationTicks": 96,
            "midi": 0,
            "name": "C-1",
            "ticks": 50880,
            "time": 83.684085,
            "velocity": 0.3937007874015748
          },
          {
            "duration": 0.1578944999999976,
            "durationTicks": 96,
            "midi": 0,
            "name": "C-1",
            "ticks": 50880,
            "time": 83.684085,
            "velocity": 0.3937007874015748
          },
          {
            "duration": 0.1578944999999976,
            "durationTicks": 96,
            "midi": 0,
            "name": "C-1",
            "ticks": 50880,
            "time": 83.684085,
            "velocity": 0.3937007874015748
          },
          {
            "duration": 0.1578944999999976,
            "durationTicks": 96,
            "midi": 0,
            "name": "C-1",
            "ticks": 50976,
            "time": 83.8419795,
            "velocity": 0.3937007874015748
          },
          {
            "duration": 0.15789450000001182,
            "durationTicks": 96,
            "midi": 0,
            "name": "C-1",
            "ticks": 51072,
            "time": 83.99987399999999,
            "velocity": 0.3937007874015748
          },
          {
            "duration": 0.1578944999999976,
            "durationTicks": 96,
            "midi": 0,
            "name": "C-1",
            "ticks": 51168,
            "time": 84.1577685,
            "velocity": 0.3937007874015748
          },
          {
            "duration": 0.1578944999999976,
            "durationTicks": 96,
            "midi": 0,
            "name": "C-1",
            "ticks": 51264,
            "time": 84.315663,
            "velocity": 0.3937007874015748
          },
          {
            "duration": 0.1578944999999976,
            "durationTicks": 96,
            "midi": 0,
            "name": "C-1",
            "ticks": 51264,
            "time": 84.315663,
            "velocity": 0.3937007874015748
          },
          {
            "duration": 0.1578944999999976,
            "durationTicks": 96,
            "midi": 0,
            "name": "C-1",
            "ticks": 51264,
            "time": 84.315663,
            "velocity": 0.3937007874015748
          },
          {
            "duration": 0.1578944999999976,
            "durationTicks": 96,
            "midi": 0,
            "name": "C-1",
            "ticks": 51456,
            "time": 84.631452,
            "velocity": 0.3937007874015748
          },
          {
            "duration": 0.1578944999999976,
            "durationTicks": 96,
            "midi": 0,
            "name": "C-1",
            "ticks": 51456,
            "time": 84.631452,
            "velocity": 0.3937007874015748
          },
          {
            "duration": 0.0789472499999988,
            "durationTicks": 48,
            "midi": 0,
            "name": "C-1",
            "ticks": 51552,
            "time": 84.7893465,
            "velocity": 0.3937007874015748
          },
          {
            "duration": 0.0789472499999988,
            "durationTicks": 48,
            "midi": 0,
            "name": "C-1",
            "ticks": 51552,
            "time": 84.7893465,
            "velocity": 0.3937007874015748
          },
          {
            "duration": 0.0789472499999988,
            "durationTicks": 48,
            "midi": 0,
            "name": "C-1",
            "ticks": 51552,
            "time": 84.7893465,
            "velocity": 0.3937007874015748
          },
          {
            "duration": 0.1578944999999976,
            "durationTicks": 96,
            "midi": 0,
            "name": "C-1",
            "ticks": 51552,
            "time": 84.7893465,
            "velocity": 0.3937007874015748
          },
          {
            "duration": 0.0789472499999988,
            "durationTicks": 48,
            "midi": 0,
            "name": "C-1",
            "ticks": 51600,
            "time": 84.86829374999999,
            "velocity": 0.3937007874015748
          },
          {
            "duration": 0.0789472499999988,
            "durationTicks": 48,
            "midi": 0,
            "name": "C-1",
            "ticks": 51600,
            "time": 84.86829374999999,
            "velocity": 0.3937007874015748
          },
          {
            "duration": 0.0789472499999988,
            "durationTicks": 48,
            "midi": 0,
            "name": "C-1",
            "ticks": 51600,
            "time": 84.86829374999999,
            "velocity": 0.3937007874015748
          },
          {
            "duration": 0.15789450000001182,
            "durationTicks": 96,
            "midi": 0,
            "name": "C-1",
            "ticks": 51648,
            "time": 84.94724099999999,
            "velocity": 0.3937007874015748
          },
          {
            "duration": 0.15789450000001182,
            "durationTicks": 96,
            "midi": 0,
            "name": "C-1",
            "ticks": 51648,
            "time": 84.94724099999999,
            "velocity": 0.3937007874015748
          },
          {
            "duration": 0.15789450000001182,
            "durationTicks": 96,
            "midi": 0,
            "name": "C-1",
            "ticks": 51648,
            "time": 84.94724099999999,
            "velocity": 0.3937007874015748
          },
          {
            "duration": 0.15789450000001182,
            "durationTicks": 96,
            "midi": 0,
            "name": "C-1",
            "ticks": 51648,
            "time": 84.94724099999999,
            "velocity": 0.3937007874015748
          },
          {
            "duration": 0.1578944999999976,
            "durationTicks": 96,
            "midi": 0,
            "name": "C-1",
            "ticks": 51744,
            "time": 85.1051355,
            "velocity": 0.3937007874015748
          },
          {
            "duration": 0.1578944999999976,
            "durationTicks": 96,
            "midi": 0,
            "name": "C-1",
            "ticks": 51840,
            "time": 85.26303,
            "velocity": 0.3937007874015748
          },
          {
            "duration": 0.1578944999999976,
            "durationTicks": 96,
            "midi": 0,
            "name": "C-1",
            "ticks": 51840,
            "time": 85.26303,
            "velocity": 0.3937007874015748
          },
          {
            "duration": 0.1578944999999976,
            "durationTicks": 96,
            "midi": 0,
            "name": "C-1",
            "ticks": 51840,
            "time": 85.26303,
            "velocity": 0.3937007874015748
          },
          {
            "duration": 0.1578944999999976,
            "durationTicks": 96,
            "midi": 0,
            "name": "C-1",
            "ticks": 51840,
            "time": 85.26303,
            "velocity": 0.3937007874015748
          },
          {
            "duration": 0.1578944999999976,
            "durationTicks": 96,
            "midi": 0,
            "name": "C-1",
            "ticks": 51936,
            "time": 85.4209245,
            "velocity": 0.3937007874015748
          },
          {
            "duration": 0.1578944999999976,
            "durationTicks": 96,
            "midi": 0,
            "name": "C-1",
            "ticks": 52032,
            "time": 85.578819,
            "velocity": 0.3937007874015748
          },
          {
            "duration": 0.1578944999999976,
            "durationTicks": 96,
            "midi": 0,
            "name": "C-1",
            "ticks": 52032,
            "time": 85.578819,
            "velocity": 0.3937007874015748
          },
          {
            "duration": 0.1578944999999976,
            "durationTicks": 96,
            "midi": 0,
            "name": "C-1",
            "ticks": 52032,
            "time": 85.578819,
            "velocity": 0.3937007874015748
          },
          {
            "duration": 0.1578944999999976,
            "durationTicks": 96,
            "midi": 0,
            "name": "C-1",
            "ticks": 52032,
            "time": 85.578819,
            "velocity": 0.3937007874015748
          },
          {
            "duration": 0.15789450000001182,
            "durationTicks": 96,
            "midi": 0,
            "name": "C-1",
            "ticks": 52224,
            "time": 85.89460799999999,
            "velocity": 0.3937007874015748
          },
          {
            "duration": 0.15789450000001182,
            "durationTicks": 96,
            "midi": 0,
            "name": "C-1",
            "ticks": 52224,
            "time": 85.89460799999999,
            "velocity": 0.3937007874015748
          },
          {
            "duration": 0.15789450000001182,
            "durationTicks": 96,
            "midi": 0,
            "name": "C-1",
            "ticks": 52224,
            "time": 85.89460799999999,
            "velocity": 0.3937007874015748
          },
          {
            "duration": 0.1578944999999976,
            "durationTicks": 96,
            "midi": 0,
            "name": "C-1",
            "ticks": 52416,
            "time": 86.210397,
            "velocity": 0.3937007874015748
          },
          {
            "duration": 0.1578944999999976,
            "durationTicks": 96,
            "midi": 0,
            "name": "C-1",
            "ticks": 52416,
            "time": 86.210397,
            "velocity": 0.3937007874015748
          },
          {
            "duration": 0.1578944999999976,
            "durationTicks": 96,
            "midi": 0,
            "name": "C-1",
            "ticks": 52416,
            "time": 86.210397,
            "velocity": 0.3937007874015748
          },
          {
            "duration": 0.1578944999999976,
            "durationTicks": 96,
            "midi": 0,
            "name": "C-1",
            "ticks": 52512,
            "time": 86.3682915,
            "velocity": 0.3937007874015748
          },
          {
            "duration": 0.1578944999999976,
            "durationTicks": 96,
            "midi": 0,
            "name": "C-1",
            "ticks": 52608,
            "time": 86.526186,
            "velocity": 0.3937007874015748
          },
          {
            "duration": 0.1578944999999976,
            "durationTicks": 96,
            "midi": 0,
            "name": "C-1",
            "ticks": 52704,
            "time": 86.6840805,
            "velocity": 0.3937007874015748
          },
          {
            "duration": 0.15789450000001182,
            "durationTicks": 96,
            "midi": 0,
            "name": "C-1",
            "ticks": 52800,
            "time": 86.84197499999999,
            "velocity": 0.3937007874015748
          },
          {
            "duration": 0.15789450000001182,
            "durationTicks": 96,
            "midi": 0,
            "name": "C-1",
            "ticks": 52800,
            "time": 86.84197499999999,
            "velocity": 0.3937007874015748
          },
          {
            "duration": 0.15789450000001182,
            "durationTicks": 96,
            "midi": 0,
            "name": "C-1",
            "ticks": 52800,
            "time": 86.84197499999999,
            "velocity": 0.3937007874015748
          },
          {
            "duration": 0.1578944999999976,
            "durationTicks": 96,
            "midi": 0,
            "name": "C-1",
            "ticks": 52992,
            "time": 87.157764,
            "velocity": 0.3937007874015748
          },
          {
            "duration": 0.1578944999999976,
            "durationTicks": 96,
            "midi": 0,
            "name": "C-1",
            "ticks": 53184,
            "time": 87.473553,
            "velocity": 0.3937007874015748
          },
          {
            "duration": 0.1578944999999976,
            "durationTicks": 96,
            "midi": 0,
            "name": "C-1",
            "ticks": 53184,
            "time": 87.473553,
            "velocity": 0.3937007874015748
          },
          {
            "duration": 0.1578944999999976,
            "durationTicks": 96,
            "midi": 0,
            "name": "C-1",
            "ticks": 53184,
            "time": 87.473553,
            "velocity": 0.3937007874015748
          },
          {
            "duration": 0.1578944999999976,
            "durationTicks": 96,
            "midi": 0,
            "name": "C-1",
            "ticks": 53280,
            "time": 87.6314475,
            "velocity": 0.3937007874015748
          },
          {
            "duration": 0.15789450000001182,
            "durationTicks": 96,
            "midi": 0,
            "name": "C-1",
            "ticks": 53376,
            "time": 87.78934199999999,
            "velocity": 0.3937007874015748
          },
          {
            "duration": 0.1578944999999976,
            "durationTicks": 96,
            "midi": 0,
            "name": "C-1",
            "ticks": 53472,
            "time": 87.9472365,
            "velocity": 0.3937007874015748
          },
          {
            "duration": 0.1578944999999976,
            "durationTicks": 96,
            "midi": 0,
            "name": "C-1",
            "ticks": 53568,
            "time": 88.105131,
            "velocity": 0.3937007874015748
          },
          {
            "duration": 0.1578944999999976,
            "durationTicks": 96,
            "midi": 0,
            "name": "C-1",
            "ticks": 53568,
            "time": 88.105131,
            "velocity": 0.3937007874015748
          },
          {
            "duration": 0.1578944999999976,
            "durationTicks": 96,
            "midi": 0,
            "name": "C-1",
            "ticks": 53568,
            "time": 88.105131,
            "velocity": 0.3937007874015748
          },
          {
            "duration": 0.1578944999999976,
            "durationTicks": 96,
            "midi": 0,
            "name": "C-1",
            "ticks": 53760,
            "time": 88.42092,
            "velocity": 0.3937007874015748
          },
          {
            "duration": 0.1578944999999976,
            "durationTicks": 96,
            "midi": 0,
            "name": "C-1",
            "ticks": 53760,
            "time": 88.42092,
            "velocity": 0.3937007874015748
          },
          {
            "duration": 0.15789450000001182,
            "durationTicks": 96,
            "midi": 0,
            "name": "C-1",
            "ticks": 53952,
            "time": 88.73670899999999,
            "velocity": 0.3937007874015748
          },
          {
            "duration": 0.15789450000001182,
            "durationTicks": 96,
            "midi": 0,
            "name": "C-1",
            "ticks": 53952,
            "time": 88.73670899999999,
            "velocity": 0.3937007874015748
          },
          {
            "duration": 0.15789450000001182,
            "durationTicks": 96,
            "midi": 0,
            "name": "C-1",
            "ticks": 53952,
            "time": 88.73670899999999,
            "velocity": 0.3937007874015748
          },
          {
            "duration": 0.1578944999999976,
            "durationTicks": 96,
            "midi": 0,
            "name": "C-1",
            "ticks": 54048,
            "time": 88.8946035,
            "velocity": 0.3937007874015748
          },
          {
            "duration": 0.1578944999999976,
            "durationTicks": 96,
            "midi": 0,
            "name": "C-1",
            "ticks": 54144,
            "time": 89.052498,
            "velocity": 0.3937007874015748
          },
          {
            "duration": 0.1578944999999976,
            "durationTicks": 96,
            "midi": 0,
            "name": "C-1",
            "ticks": 54240,
            "time": 89.2103925,
            "velocity": 0.3937007874015748
          },
          {
            "duration": 0.1578944999999976,
            "durationTicks": 96,
            "midi": 0,
            "name": "C-1",
            "ticks": 54336,
            "time": 89.368287,
            "velocity": 0.3937007874015748
          },
          {
            "duration": 0.1578944999999976,
            "durationTicks": 96,
            "midi": 0,
            "name": "C-1",
            "ticks": 54336,
            "time": 89.368287,
            "velocity": 0.3937007874015748
          },
          {
            "duration": 0.1578944999999976,
            "durationTicks": 96,
            "midi": 0,
            "name": "C-1",
            "ticks": 54336,
            "time": 89.368287,
            "velocity": 0.3937007874015748
          },
          {
            "duration": 0.15789450000001182,
            "durationTicks": 96,
            "midi": 0,
            "name": "C-1",
            "ticks": 54528,
            "time": 89.68407599999999,
            "velocity": 0.3937007874015748
          },
          {
            "duration": 0.1578944999999976,
            "durationTicks": 96,
            "midi": 0,
            "name": "C-1",
            "ticks": 54720,
            "time": 89.999865,
            "velocity": 0.3937007874015748
          },
          {
            "duration": 0.1578944999999976,
            "durationTicks": 96,
            "midi": 0,
            "name": "C-1",
            "ticks": 54720,
            "time": 89.999865,
            "velocity": 0.3937007874015748
          },
          {
            "duration": 0.1578944999999976,
            "durationTicks": 96,
            "midi": 0,
            "name": "C-1",
            "ticks": 54720,
            "time": 89.999865,
            "velocity": 0.3937007874015748
          },
          {
            "duration": 0.1578944999999976,
            "durationTicks": 96,
            "midi": 0,
            "name": "C-1",
            "ticks": 54816,
            "time": 90.1577595,
            "velocity": 0.3937007874015748
          },
          {
            "duration": 0.1578944999999976,
            "durationTicks": 96,
            "midi": 0,
            "name": "C-1",
            "ticks": 54912,
            "time": 90.315654,
            "velocity": 0.3937007874015748
          },
          {
            "duration": 0.1578944999999976,
            "durationTicks": 96,
            "midi": 0,
            "name": "C-1",
            "ticks": 55008,
            "time": 90.47354849999999,
            "velocity": 0.3937007874015748
          },
          {
            "duration": 0.15789450000001182,
            "durationTicks": 96,
            "midi": 0,
            "name": "C-1",
            "ticks": 55104,
            "time": 90.63144299999999,
            "velocity": 0.3937007874015748
          },
          {
            "duration": 0.15789450000001182,
            "durationTicks": 96,
            "midi": 0,
            "name": "C-1",
            "ticks": 55104,
            "time": 90.63144299999999,
            "velocity": 0.3937007874015748
          },
          {
            "duration": 0.15789450000001182,
            "durationTicks": 96,
            "midi": 0,
            "name": "C-1",
            "ticks": 55104,
            "time": 90.63144299999999,
            "velocity": 0.3937007874015748
          },
          {
            "duration": 0.15789450000001182,
            "durationTicks": 96,
            "midi": 0,
            "name": "C-1",
            "ticks": 55104,
            "time": 90.63144299999999,
            "velocity": 0.3937007874015748
          },
          {
            "duration": 0.1578944999999976,
            "durationTicks": 96,
            "midi": 0,
            "name": "C-1",
            "ticks": 55296,
            "time": 90.947232,
            "velocity": 0.3937007874015748
          },
          {
            "duration": 0.1578944999999976,
            "durationTicks": 96,
            "midi": 0,
            "name": "C-1",
            "ticks": 55296,
            "time": 90.947232,
            "velocity": 0.3937007874015748
          },
          {
            "duration": 0.1578944999999976,
            "durationTicks": 96,
            "midi": 0,
            "name": "C-1",
            "ticks": 55296,
            "time": 90.947232,
            "velocity": 0.3937007874015748
          },
          {
            "duration": 0.1578944999999976,
            "durationTicks": 96,
            "midi": 0,
            "name": "C-1",
            "ticks": 55488,
            "time": 91.263021,
            "velocity": 0.3937007874015748
          },
          {
            "duration": 0.1578944999999976,
            "durationTicks": 96,
            "midi": 0,
            "name": "C-1",
            "ticks": 55488,
            "time": 91.263021,
            "velocity": 0.3937007874015748
          },
          {
            "duration": 0.1578944999999976,
            "durationTicks": 96,
            "midi": 0,
            "name": "C-1",
            "ticks": 55488,
            "time": 91.263021,
            "velocity": 0.3937007874015748
          },
          {
            "duration": 0.1578944999999976,
            "durationTicks": 96,
            "midi": 0,
            "name": "C-1",
            "ticks": 55584,
            "time": 91.42091549999999,
            "velocity": 0.3937007874015748
          },
          {
            "duration": 0.15789450000001182,
            "durationTicks": 96,
            "midi": 0,
            "name": "C-1",
            "ticks": 55680,
            "time": 91.57880999999999,
            "velocity": 0.3937007874015748
          },
          {
            "duration": 0.1578944999999976,
            "durationTicks": 96,
            "midi": 0,
            "name": "C-1",
            "ticks": 55776,
            "time": 91.7367045,
            "velocity": 0.3937007874015748
          },
          {
            "duration": 0.1578944999999976,
            "durationTicks": 96,
            "midi": 0,
            "name": "C-1",
            "ticks": 55872,
            "time": 91.894599,
            "velocity": 0.3937007874015748
          },
          {
            "duration": 0.1578944999999976,
            "durationTicks": 96,
            "midi": 0,
            "name": "C-1",
            "ticks": 55872,
            "time": 91.894599,
            "velocity": 0.3937007874015748
          },
          {
            "duration": 0.1578944999999976,
            "durationTicks": 96,
            "midi": 0,
            "name": "C-1",
            "ticks": 55872,
            "time": 91.894599,
            "velocity": 0.3937007874015748
          },
          {
            "duration": 0.1578944999999976,
            "durationTicks": 96,
            "midi": 0,
            "name": "C-1",
            "ticks": 56064,
            "time": 92.210388,
            "velocity": 0.3937007874015748
          },
          {
            "duration": 0.15789450000001182,
            "durationTicks": 96,
            "midi": 0,
            "name": "C-1",
            "ticks": 56256,
            "time": 92.52617699999999,
            "velocity": 0.3937007874015748
          },
          {
            "duration": 0.15789450000001182,
            "durationTicks": 96,
            "midi": 0,
            "name": "C-1",
            "ticks": 56256,
            "time": 92.52617699999999,
            "velocity": 0.3937007874015748
          },
          {
            "duration": 0.15789450000001182,
            "durationTicks": 96,
            "midi": 0,
            "name": "C-1",
            "ticks": 56256,
            "time": 92.52617699999999,
            "velocity": 0.3937007874015748
          },
          {
            "duration": 0.1578944999999976,
            "durationTicks": 96,
            "midi": 0,
            "name": "C-1",
            "ticks": 56352,
            "time": 92.6840715,
            "velocity": 0.3937007874015748
          },
          {
            "duration": 0.1578944999999976,
            "durationTicks": 96,
            "midi": 0,
            "name": "C-1",
            "ticks": 56448,
            "time": 92.841966,
            "velocity": 0.3937007874015748
          },
          {
            "duration": 0.1578944999999976,
            "durationTicks": 96,
            "midi": 0,
            "name": "C-1",
            "ticks": 56544,
            "time": 92.9998605,
            "velocity": 0.3937007874015748
          },
          {
            "duration": 0.1578944999999976,
            "durationTicks": 96,
            "midi": 0,
            "name": "C-1",
            "ticks": 56640,
            "time": 93.157755,
            "velocity": 0.3937007874015748
          },
          {
            "duration": 0.1578944999999976,
            "durationTicks": 96,
            "midi": 0,
            "name": "C-1",
            "ticks": 56640,
            "time": 93.157755,
            "velocity": 0.3937007874015748
          },
          {
            "duration": 0.1578944999999976,
            "durationTicks": 96,
            "midi": 0,
            "name": "C-1",
            "ticks": 56640,
            "time": 93.157755,
            "velocity": 0.3937007874015748
          },
          {
            "duration": 0.15789450000001182,
            "durationTicks": 96,
            "midi": 0,
            "name": "C-1",
            "ticks": 56832,
            "time": 93.47354399999999,
            "velocity": 0.3937007874015748
          },
          {
            "duration": 0.15789450000001182,
            "durationTicks": 96,
            "midi": 0,
            "name": "C-1",
            "ticks": 56832,
            "time": 93.47354399999999,
            "velocity": 0.3937007874015748
          },
          {
            "duration": 0.1578944999999976,
            "durationTicks": 96,
            "midi": 0,
            "name": "C-1",
            "ticks": 57024,
            "time": 93.789333,
            "velocity": 0.3937007874015748
          },
          {
            "duration": 0.1578944999999976,
            "durationTicks": 96,
            "midi": 0,
            "name": "C-1",
            "ticks": 57024,
            "time": 93.789333,
            "velocity": 0.3937007874015748
          },
          {
            "duration": 0.1578944999999976,
            "durationTicks": 96,
            "midi": 0,
            "name": "C-1",
            "ticks": 57024,
            "time": 93.789333,
            "velocity": 0.3937007874015748
          },
          {
            "duration": 0.1578944999999976,
            "durationTicks": 96,
            "midi": 0,
            "name": "C-1",
            "ticks": 57120,
            "time": 93.9472275,
            "velocity": 0.3937007874015748
          },
          {
            "duration": 0.1578944999999976,
            "durationTicks": 96,
            "midi": 0,
            "name": "C-1",
            "ticks": 57216,
            "time": 94.105122,
            "velocity": 0.3937007874015748
          },
          {
            "duration": 0.1578944999999976,
            "durationTicks": 96,
            "midi": 0,
            "name": "C-1",
            "ticks": 57312,
            "time": 94.26301649999999,
            "velocity": 0.3937007874015748
          },
          {
            "duration": 0.15789450000001182,
            "durationTicks": 96,
            "midi": 0,
            "name": "C-1",
            "ticks": 57408,
            "time": 94.42091099999999,
            "velocity": 0.3937007874015748
          },
          {
            "duration": 0.15789450000001182,
            "durationTicks": 96,
            "midi": 0,
            "name": "C-1",
            "ticks": 57408,
            "time": 94.42091099999999,
            "velocity": 0.3937007874015748
          },
          {
            "duration": 0.15789450000001182,
            "durationTicks": 96,
            "midi": 0,
            "name": "C-1",
            "ticks": 57408,
            "time": 94.42091099999999,
            "velocity": 0.3937007874015748
          },
          {
            "duration": 0.1578944999999976,
            "durationTicks": 96,
            "midi": 0,
            "name": "C-1",
            "ticks": 57600,
            "time": 94.7367,
            "velocity": 0.3937007874015748
          },
          {
            "duration": 0.1578944999999976,
            "durationTicks": 96,
            "midi": 0,
            "name": "C-1",
            "ticks": 57600,
            "time": 94.7367,
            "velocity": 0.3937007874015748
          },
          {
            "duration": 0.0789472499999988,
            "durationTicks": 48,
            "midi": 0,
            "name": "C-1",
            "ticks": 57696,
            "time": 94.8945945,
            "velocity": 0.3937007874015748
          },
          {
            "duration": 0.0789472499999988,
            "durationTicks": 48,
            "midi": 0,
            "name": "C-1",
            "ticks": 57696,
            "time": 94.8945945,
            "velocity": 0.3937007874015748
          },
          {
            "duration": 0.0789472499999988,
            "durationTicks": 48,
            "midi": 0,
            "name": "C-1",
            "ticks": 57696,
            "time": 94.8945945,
            "velocity": 0.3937007874015748
          },
          {
            "duration": 0.1578944999999976,
            "durationTicks": 96,
            "midi": 0,
            "name": "C-1",
            "ticks": 57696,
            "time": 94.8945945,
            "velocity": 0.3937007874015748
          },
          {
            "duration": 0.0789472499999988,
            "durationTicks": 48,
            "midi": 0,
            "name": "C-1",
            "ticks": 57744,
            "time": 94.97354175,
            "velocity": 0.3937007874015748
          },
          {
            "duration": 0.0789472499999988,
            "durationTicks": 48,
            "midi": 0,
            "name": "C-1",
            "ticks": 57744,
            "time": 94.97354175,
            "velocity": 0.3937007874015748
          },
          {
            "duration": 0.0789472499999988,
            "durationTicks": 48,
            "midi": 0,
            "name": "C-1",
            "ticks": 57744,
            "time": 94.97354175,
            "velocity": 0.3937007874015748
          },
          {
            "duration": 0.1578944999999976,
            "durationTicks": 96,
            "midi": 0,
            "name": "C-1",
            "ticks": 57792,
            "time": 95.052489,
            "velocity": 0.3937007874015748
          },
          {
            "duration": 0.1578944999999976,
            "durationTicks": 96,
            "midi": 0,
            "name": "C-1",
            "ticks": 57792,
            "time": 95.052489,
            "velocity": 0.3937007874015748
          },
          {
            "duration": 0.1578944999999976,
            "durationTicks": 96,
            "midi": 0,
            "name": "C-1",
            "ticks": 57792,
            "time": 95.052489,
            "velocity": 0.3937007874015748
          },
          {
            "duration": 0.1578944999999976,
            "durationTicks": 96,
            "midi": 0,
            "name": "C-1",
            "ticks": 57792,
            "time": 95.052489,
            "velocity": 0.3937007874015748
          },
          {
            "duration": 0.1578944999999976,
            "durationTicks": 96,
            "midi": 0,
            "name": "C-1",
            "ticks": 57888,
            "time": 95.21038349999999,
            "velocity": 0.3937007874015748
          },
          {
            "duration": 0.15789450000001182,
            "durationTicks": 96,
            "midi": 0,
            "name": "C-1",
            "ticks": 57984,
            "time": 95.36827799999999,
            "velocity": 0.3937007874015748
          },
          {
            "duration": 0.15789450000001182,
            "durationTicks": 96,
            "midi": 0,
            "name": "C-1",
            "ticks": 57984,
            "time": 95.36827799999999,
            "velocity": 0.3937007874015748
          },
          {
            "duration": 0.15789450000001182,
            "durationTicks": 96,
            "midi": 0,
            "name": "C-1",
            "ticks": 57984,
            "time": 95.36827799999999,
            "velocity": 0.3937007874015748
          },
          {
            "duration": 0.15789450000001182,
            "durationTicks": 96,
            "midi": 0,
            "name": "C-1",
            "ticks": 57984,
            "time": 95.36827799999999,
            "velocity": 0.3937007874015748
          },
          {
            "duration": 0.1578944999999976,
            "durationTicks": 96,
            "midi": 0,
            "name": "C-1",
            "ticks": 58080,
            "time": 95.5261725,
            "velocity": 0.3937007874015748
          },
          {
            "duration": 0.1578944999999976,
            "durationTicks": 96,
            "midi": 0,
            "name": "C-1",
            "ticks": 58176,
            "time": 95.684067,
            "velocity": 0.3937007874015748
          },
          {
            "duration": 0.1578944999999976,
            "durationTicks": 96,
            "midi": 0,
            "name": "C-1",
            "ticks": 58176,
            "time": 95.684067,
            "velocity": 0.3937007874015748
          },
          {
            "duration": 0.1578944999999976,
            "durationTicks": 96,
            "midi": 0,
            "name": "C-1",
            "ticks": 58176,
            "time": 95.684067,
            "velocity": 0.3937007874015748
          },
          {
            "duration": 0.1578944999999976,
            "durationTicks": 96,
            "midi": 0,
            "name": "C-1",
            "ticks": 58176,
            "time": 95.684067,
            "velocity": 0.3937007874015748
          },
          {
            "duration": 0.1578944999999976,
            "durationTicks": 96,
            "midi": 0,
            "name": "C-1",
            "ticks": 58368,
            "time": 95.999856,
            "velocity": 0.3937007874015748
          },
          {
            "duration": 0.1578944999999976,
            "durationTicks": 96,
            "midi": 0,
            "name": "C-1",
            "ticks": 58368,
            "time": 95.999856,
            "velocity": 0.3937007874015748
          },
          {
            "duration": 0.1578944999999976,
            "durationTicks": 96,
            "midi": 0,
            "name": "C-1",
            "ticks": 58368,
            "time": 95.999856,
            "velocity": 0.3937007874015748
          },
          {
            "duration": 0.15789450000001182,
            "durationTicks": 96,
            "midi": 0,
            "name": "C-1",
            "ticks": 58560,
            "time": 96.31564499999999,
            "velocity": 0.3937007874015748
          },
          {
            "duration": 0.15789450000001182,
            "durationTicks": 96,
            "midi": 0,
            "name": "C-1",
            "ticks": 58560,
            "time": 96.31564499999999,
            "velocity": 0.3937007874015748
          },
          {
            "duration": 0.15789450000001182,
            "durationTicks": 96,
            "midi": 0,
            "name": "C-1",
            "ticks": 58560,
            "time": 96.31564499999999,
            "velocity": 0.3937007874015748
          },
          {
            "duration": 0.1578944999999976,
            "durationTicks": 96,
            "midi": 0,
            "name": "C-1",
            "ticks": 58656,
            "time": 96.4735395,
            "velocity": 0.3937007874015748
          },
          {
            "duration": 0.1578944999999976,
            "durationTicks": 96,
            "midi": 0,
            "name": "C-1",
            "ticks": 58752,
            "time": 96.631434,
            "velocity": 0.3937007874015748
          },
          {
            "duration": 0.1578944999999976,
            "durationTicks": 96,
            "midi": 0,
            "name": "C-1",
            "ticks": 58848,
            "time": 96.7893285,
            "velocity": 0.3937007874015748
          },
          {
            "duration": 0.1578944999999976,
            "durationTicks": 96,
            "midi": 0,
            "name": "C-1",
            "ticks": 58944,
            "time": 96.947223,
            "velocity": 0.3937007874015748
          },
          {
            "duration": 0.1578944999999976,
            "durationTicks": 96,
            "midi": 0,
            "name": "C-1",
            "ticks": 58944,
            "time": 96.947223,
            "velocity": 0.3937007874015748
          },
          {
            "duration": 0.1578944999999976,
            "durationTicks": 96,
            "midi": 0,
            "name": "C-1",
            "ticks": 58944,
            "time": 96.947223,
            "velocity": 0.3937007874015748
          },
          {
            "duration": 0.15789450000001182,
            "durationTicks": 96,
            "midi": 0,
            "name": "C-1",
            "ticks": 59136,
            "time": 97.26301199999999,
            "velocity": 0.3937007874015748
          },
          {
            "duration": 0.1578944999999976,
            "durationTicks": 96,
            "midi": 0,
            "name": "C-1",
            "ticks": 59328,
            "time": 97.578801,
            "velocity": 0.3937007874015748
          },
          {
            "duration": 0.1578944999999976,
            "durationTicks": 96,
            "midi": 0,
            "name": "C-1",
            "ticks": 59328,
            "time": 97.578801,
            "velocity": 0.3937007874015748
          },
          {
            "duration": 0.1578944999999976,
            "durationTicks": 96,
            "midi": 0,
            "name": "C-1",
            "ticks": 59328,
            "time": 97.578801,
            "velocity": 0.3937007874015748
          },
          {
            "duration": 0.1578944999999976,
            "durationTicks": 96,
            "midi": 0,
            "name": "C-1",
            "ticks": 59424,
            "time": 97.7366955,
            "velocity": 0.3937007874015748
          },
          {
            "duration": 0.1578944999999976,
            "durationTicks": 96,
            "midi": 0,
            "name": "C-1",
            "ticks": 59520,
            "time": 97.89459,
            "velocity": 0.3937007874015748
          },
          {
            "duration": 0.1578944999999976,
            "durationTicks": 96,
            "midi": 0,
            "name": "C-1",
            "ticks": 59616,
            "time": 98.05248449999999,
            "velocity": 0.3937007874015748
          },
          {
            "duration": 0.15789450000001182,
            "durationTicks": 96,
            "midi": 0,
            "name": "C-1",
            "ticks": 59712,
            "time": 98.21037899999999,
            "velocity": 0.3937007874015748
          },
          {
            "duration": 0.15789450000001182,
            "durationTicks": 96,
            "midi": 0,
            "name": "C-1",
            "ticks": 59712,
            "time": 98.21037899999999,
            "velocity": 0.3937007874015748
          },
          {
            "duration": 0.15789450000001182,
            "durationTicks": 96,
            "midi": 0,
            "name": "C-1",
            "ticks": 59712,
            "time": 98.21037899999999,
            "velocity": 0.3937007874015748
          },
          {
            "duration": 0.1578944999999976,
            "durationTicks": 96,
            "midi": 0,
            "name": "C-1",
            "ticks": 59904,
            "time": 98.526168,
            "velocity": 0.3937007874015748
          },
          {
            "duration": 0.1578944999999976,
            "durationTicks": 96,
            "midi": 0,
            "name": "C-1",
            "ticks": 59904,
            "time": 98.526168,
            "velocity": 0.3937007874015748
          },
          {
            "duration": 0.1578944999999976,
            "durationTicks": 96,
            "midi": 0,
            "name": "C-1",
            "ticks": 60096,
            "time": 98.841957,
            "velocity": 0.3937007874015748
          },
          {
            "duration": 0.1578944999999976,
            "durationTicks": 96,
            "midi": 0,
            "name": "C-1",
            "ticks": 60096,
            "time": 98.841957,
            "velocity": 0.3937007874015748
          },
          {
            "duration": 0.1578944999999976,
            "durationTicks": 96,
            "midi": 0,
            "name": "C-1",
            "ticks": 60096,
            "time": 98.841957,
            "velocity": 0.3937007874015748
          },
          {
            "duration": 0.1578944999999976,
            "durationTicks": 96,
            "midi": 0,
            "name": "C-1",
            "ticks": 60192,
            "time": 98.99985149999999,
            "velocity": 0.3937007874015748
          },
          {
            "duration": 0.15789450000001182,
            "durationTicks": 96,
            "midi": 0,
            "name": "C-1",
            "ticks": 60288,
            "time": 99.15774599999999,
            "velocity": 0.3937007874015748
          },
          {
            "duration": 0.1578944999999976,
            "durationTicks": 96,
            "midi": 0,
            "name": "C-1",
            "ticks": 60384,
            "time": 99.3156405,
            "velocity": 0.3937007874015748
          },
          {
            "duration": 0.1578944999999976,
            "durationTicks": 96,
            "midi": 0,
            "name": "C-1",
            "ticks": 60480,
            "time": 99.473535,
            "velocity": 0.3937007874015748
          },
          {
            "duration": 0.1578944999999976,
            "durationTicks": 96,
            "midi": 0,
            "name": "C-1",
            "ticks": 60480,
            "time": 99.473535,
            "velocity": 0.3937007874015748
          },
          {
            "duration": 0.1578944999999976,
            "durationTicks": 96,
            "midi": 0,
            "name": "C-1",
            "ticks": 60480,
            "time": 99.473535,
            "velocity": 0.3937007874015748
          },
          {
            "duration": 0.1578944999999976,
            "durationTicks": 96,
            "midi": 0,
            "name": "C-1",
            "ticks": 60672,
            "time": 99.789324,
            "velocity": 0.3937007874015748
          },
          {
            "duration": 0.15789450000001182,
            "durationTicks": 96,
            "midi": 0,
            "name": "C-1",
            "ticks": 60864,
            "time": 100.10511299999999,
            "velocity": 0.3937007874015748
          },
          {
            "duration": 0.15789450000001182,
            "durationTicks": 96,
            "midi": 0,
            "name": "C-1",
            "ticks": 60864,
            "time": 100.10511299999999,
            "velocity": 0.3937007874015748
          },
          {
            "duration": 0.15789450000001182,
            "durationTicks": 96,
            "midi": 0,
            "name": "C-1",
            "ticks": 60864,
            "time": 100.10511299999999,
            "velocity": 0.3937007874015748
          },
          {
            "duration": 0.1578944999999976,
            "durationTicks": 96,
            "midi": 0,
            "name": "C-1",
            "ticks": 60960,
            "time": 100.2630075,
            "velocity": 0.3937007874015748
          },
          {
            "duration": 0.1578944999999976,
            "durationTicks": 96,
            "midi": 0,
            "name": "C-1",
            "ticks": 61056,
            "time": 100.420902,
            "velocity": 0.3937007874015748
          },
          {
            "duration": 0.1578944999999976,
            "durationTicks": 96,
            "midi": 0,
            "name": "C-1",
            "ticks": 61152,
            "time": 100.5787965,
            "velocity": 0.3937007874015748
          },
          {
            "duration": 0.1578944999999976,
            "durationTicks": 96,
            "midi": 0,
            "name": "C-1",
            "ticks": 61248,
            "time": 100.736691,
            "velocity": 0.3937007874015748
          },
          {
            "duration": 0.1578944999999976,
            "durationTicks": 96,
            "midi": 0,
            "name": "C-1",
            "ticks": 61248,
            "time": 100.736691,
            "velocity": 0.3937007874015748
          },
          {
            "duration": 0.1578944999999976,
            "durationTicks": 96,
            "midi": 0,
            "name": "C-1",
            "ticks": 61248,
            "time": 100.736691,
            "velocity": 0.3937007874015748
          },
          {
            "duration": 0.1578944999999976,
            "durationTicks": 96,
            "midi": 0,
            "name": "C-1",
            "ticks": 61248,
            "time": 100.736691,
            "velocity": 0.3937007874015748
          },
          {
            "duration": 0.1578944999999976,
            "durationTicks": 96,
            "midi": 0,
            "name": "C-1",
            "ticks": 61440,
            "time": 101.05248,
            "velocity": 0.3937007874015748
          },
          {
            "duration": 0.1578944999999976,
            "durationTicks": 96,
            "midi": 0,
            "name": "C-1",
            "ticks": 61440,
            "time": 101.05248,
            "velocity": 0.3937007874015748
          },
          {
            "duration": 0.1578944999999976,
            "durationTicks": 96,
            "midi": 0,
            "name": "C-1",
            "ticks": 61440,
            "time": 101.05248,
            "velocity": 0.3937007874015748
          },
          {
            "duration": 0.1578944999999976,
            "durationTicks": 96,
            "midi": 0,
            "name": "C-1",
            "ticks": 61632,
            "time": 101.368269,
            "velocity": 0.3937007874015748
          },
          {
            "duration": 0.1578944999999976,
            "durationTicks": 96,
            "midi": 0,
            "name": "C-1",
            "ticks": 61632,
            "time": 101.368269,
            "velocity": 0.3937007874015748
          },
          {
            "duration": 0.1578944999999976,
            "durationTicks": 96,
            "midi": 0,
            "name": "C-1",
            "ticks": 61632,
            "time": 101.368269,
            "velocity": 0.3937007874015748
          },
          {
            "duration": 0.1578944999999976,
            "durationTicks": 96,
            "midi": 0,
            "name": "C-1",
            "ticks": 61728,
            "time": 101.5261635,
            "velocity": 0.3937007874015748
          },
          {
            "duration": 0.1578944999999976,
            "durationTicks": 96,
            "midi": 0,
            "name": "C-1",
            "ticks": 61824,
            "time": 101.684058,
            "velocity": 0.3937007874015748
          },
          {
            "duration": 0.15789450000001182,
            "durationTicks": 96,
            "midi": 0,
            "name": "C-1",
            "ticks": 61920,
            "time": 101.84195249999999,
            "velocity": 0.3937007874015748
          },
          {
            "duration": 0.1578944999999976,
            "durationTicks": 96,
            "midi": 0,
            "name": "C-1",
            "ticks": 62016,
            "time": 101.999847,
            "velocity": 0.3937007874015748
          },
          {
            "duration": 0.1578944999999976,
            "durationTicks": 96,
            "midi": 0,
            "name": "C-1",
            "ticks": 62016,
            "time": 101.999847,
            "velocity": 0.3937007874015748
          },
          {
            "duration": 0.1578944999999976,
            "durationTicks": 96,
            "midi": 0,
            "name": "C-1",
            "ticks": 62016,
            "time": 101.999847,
            "velocity": 0.3937007874015748
          },
          {
            "duration": 0.1578944999999976,
            "durationTicks": 96,
            "midi": 0,
            "name": "C-1",
            "ticks": 62208,
            "time": 102.315636,
            "velocity": 0.3937007874015748
          },
          {
            "duration": 0.1578944999999976,
            "durationTicks": 96,
            "midi": 0,
            "name": "C-1",
            "ticks": 62400,
            "time": 102.631425,
            "velocity": 0.3937007874015748
          },
          {
            "duration": 0.1578944999999976,
            "durationTicks": 96,
            "midi": 0,
            "name": "C-1",
            "ticks": 62400,
            "time": 102.631425,
            "velocity": 0.3937007874015748
          },
          {
            "duration": 0.1578944999999976,
            "durationTicks": 96,
            "midi": 0,
            "name": "C-1",
            "ticks": 62400,
            "time": 102.631425,
            "velocity": 0.3937007874015748
          },
          {
            "duration": 0.15789450000001182,
            "durationTicks": 96,
            "midi": 0,
            "name": "C-1",
            "ticks": 62496,
            "time": 102.78931949999999,
            "velocity": 0.3937007874015748
          },
          {
            "duration": 0.1578944999999976,
            "durationTicks": 96,
            "midi": 0,
            "name": "C-1",
            "ticks": 62592,
            "time": 102.947214,
            "velocity": 0.3937007874015748
          },
          {
            "duration": 0.1578944999999976,
            "durationTicks": 96,
            "midi": 0,
            "name": "C-1",
            "ticks": 62688,
            "time": 103.1051085,
            "velocity": 0.3937007874015748
          },
          {
            "duration": 0.1578944999999976,
            "durationTicks": 96,
            "midi": 0,
            "name": "C-1",
            "ticks": 62784,
            "time": 103.263003,
            "velocity": 0.3937007874015748
          },
          {
            "duration": 0.1578944999999976,
            "durationTicks": 96,
            "midi": 0,
            "name": "C-1",
            "ticks": 62784,
            "time": 103.263003,
            "velocity": 0.3937007874015748
          },
          {
            "duration": 0.1578944999999976,
            "durationTicks": 96,
            "midi": 0,
            "name": "C-1",
            "ticks": 62784,
            "time": 103.263003,
            "velocity": 0.3937007874015748
          },
          {
            "duration": 0.1578944999999976,
            "durationTicks": 96,
            "midi": 0,
            "name": "C-1",
            "ticks": 62976,
            "time": 103.57879199999999,
            "velocity": 0.3937007874015748
          },
          {
            "duration": 0.1578944999999976,
            "durationTicks": 96,
            "midi": 0,
            "name": "C-1",
            "ticks": 62976,
            "time": 103.57879199999999,
            "velocity": 0.3937007874015748
          },
          {
            "duration": 0.1578944999999976,
            "durationTicks": 96,
            "midi": 0,
            "name": "C-1",
            "ticks": 63168,
            "time": 103.894581,
            "velocity": 0.3937007874015748
          },
          {
            "duration": 0.1578944999999976,
            "durationTicks": 96,
            "midi": 0,
            "name": "C-1",
            "ticks": 63168,
            "time": 103.894581,
            "velocity": 0.3937007874015748
          },
          {
            "duration": 0.1578944999999976,
            "durationTicks": 96,
            "midi": 0,
            "name": "C-1",
            "ticks": 63168,
            "time": 103.894581,
            "velocity": 0.3937007874015748
          },
          {
            "duration": 0.1578944999999976,
            "durationTicks": 96,
            "midi": 0,
            "name": "C-1",
            "ticks": 63264,
            "time": 104.0524755,
            "velocity": 0.3937007874015748
          },
          {
            "duration": 0.1578944999999976,
            "durationTicks": 96,
            "midi": 0,
            "name": "C-1",
            "ticks": 63360,
            "time": 104.21037,
            "velocity": 0.3937007874015748
          },
          {
            "duration": 0.1578944999999976,
            "durationTicks": 96,
            "midi": 0,
            "name": "C-1",
            "ticks": 63456,
            "time": 104.3682645,
            "velocity": 0.3937007874015748
          },
          {
            "duration": 0.1578944999999976,
            "durationTicks": 96,
            "midi": 0,
            "name": "C-1",
            "ticks": 63552,
            "time": 104.52615899999999,
            "velocity": 0.3937007874015748
          },
          {
            "duration": 0.1578944999999976,
            "durationTicks": 96,
            "midi": 0,
            "name": "C-1",
            "ticks": 63552,
            "time": 104.52615899999999,
            "velocity": 0.3937007874015748
          },
          {
            "duration": 0.1578944999999976,
            "durationTicks": 96,
            "midi": 0,
            "name": "C-1",
            "ticks": 63552,
            "time": 104.52615899999999,
            "velocity": 0.3937007874015748
          },
          {
            "duration": 0.1578944999999976,
            "durationTicks": 96,
            "midi": 0,
            "name": "C-1",
            "ticks": 63744,
            "time": 104.841948,
            "velocity": 0.3937007874015748
          },
          {
            "duration": 0.1578944999999976,
            "durationTicks": 96,
            "midi": 0,
            "name": "C-1",
            "ticks": 63744,
            "time": 104.841948,
            "velocity": 0.3937007874015748
          },
          {
            "duration": 0.0789472499999988,
            "durationTicks": 48,
            "midi": 0,
            "name": "C-1",
            "ticks": 63840,
            "time": 104.9998425,
            "velocity": 0.3937007874015748
          },
          {
            "duration": 0.0789472499999988,
            "durationTicks": 48,
            "midi": 0,
            "name": "C-1",
            "ticks": 63840,
            "time": 104.9998425,
            "velocity": 0.3937007874015748
          },
          {
            "duration": 0.0789472499999988,
            "durationTicks": 48,
            "midi": 0,
            "name": "C-1",
            "ticks": 63840,
            "time": 104.9998425,
            "velocity": 0.3937007874015748
          },
          {
            "duration": 0.1578944999999976,
            "durationTicks": 96,
            "midi": 0,
            "name": "C-1",
            "ticks": 63840,
            "time": 104.9998425,
            "velocity": 0.3937007874015748
          },
          {
            "duration": 0.0789472499999988,
            "durationTicks": 48,
            "midi": 0,
            "name": "C-1",
            "ticks": 63888,
            "time": 105.07878975,
            "velocity": 0.3937007874015748
          },
          {
            "duration": 0.0789472499999988,
            "durationTicks": 48,
            "midi": 0,
            "name": "C-1",
            "ticks": 63888,
            "time": 105.07878975,
            "velocity": 0.3937007874015748
          },
          {
            "duration": 0.0789472499999988,
            "durationTicks": 48,
            "midi": 0,
            "name": "C-1",
            "ticks": 63888,
            "time": 105.07878975,
            "velocity": 0.3937007874015748
          },
          {
            "duration": 0.1578944999999976,
            "durationTicks": 96,
            "midi": 0,
            "name": "C-1",
            "ticks": 63936,
            "time": 105.157737,
            "velocity": 0.3937007874015748
          },
          {
            "duration": 0.1578944999999976,
            "durationTicks": 96,
            "midi": 0,
            "name": "C-1",
            "ticks": 63936,
            "time": 105.157737,
            "velocity": 0.3937007874015748
          },
          {
            "duration": 0.1578944999999976,
            "durationTicks": 96,
            "midi": 0,
            "name": "C-1",
            "ticks": 63936,
            "time": 105.157737,
            "velocity": 0.3937007874015748
          },
          {
            "duration": 0.1578944999999976,
            "durationTicks": 96,
            "midi": 0,
            "name": "C-1",
            "ticks": 63936,
            "time": 105.157737,
            "velocity": 0.3937007874015748
          },
          {
            "duration": 0.1578944999999976,
            "durationTicks": 96,
            "midi": 0,
            "name": "C-1",
            "ticks": 64032,
            "time": 105.3156315,
            "velocity": 0.3937007874015748
          },
          {
            "duration": 0.1578944999999976,
            "durationTicks": 96,
            "midi": 0,
            "name": "C-1",
            "ticks": 64128,
            "time": 105.47352599999999,
            "velocity": 0.3937007874015748
          },
          {
            "duration": 0.1578944999999976,
            "durationTicks": 96,
            "midi": 0,
            "name": "C-1",
            "ticks": 64128,
            "time": 105.47352599999999,
            "velocity": 0.3937007874015748
          },
          {
            "duration": 0.1578944999999976,
            "durationTicks": 96,
            "midi": 0,
            "name": "C-1",
            "ticks": 64128,
            "time": 105.47352599999999,
            "velocity": 0.3937007874015748
          },
          {
            "duration": 0.1578944999999976,
            "durationTicks": 96,
            "midi": 0,
            "name": "C-1",
            "ticks": 64128,
            "time": 105.47352599999999,
            "velocity": 0.3937007874015748
          },
          {
            "duration": 0.15789450000001182,
            "durationTicks": 96,
            "midi": 0,
            "name": "C-1",
            "ticks": 64224,
            "time": 105.63142049999999,
            "velocity": 0.3937007874015748
          },
          {
            "duration": 0.1578944999999976,
            "durationTicks": 96,
            "midi": 0,
            "name": "C-1",
            "ticks": 64320,
            "time": 105.789315,
            "velocity": 0.3937007874015748
          },
          {
            "duration": 0.1578944999999976,
            "durationTicks": 96,
            "midi": 0,
            "name": "C-1",
            "ticks": 64320,
            "time": 105.789315,
            "velocity": 0.3937007874015748
          },
          {
            "duration": 0.1578944999999976,
            "durationTicks": 96,
            "midi": 0,
            "name": "C-1",
            "ticks": 64320,
            "time": 105.789315,
            "velocity": 0.3937007874015748
          },
          {
            "duration": 0.1578944999999976,
            "durationTicks": 96,
            "midi": 0,
            "name": "C-1",
            "ticks": 64320,
            "time": 105.789315,
            "velocity": 0.3937007874015748
          },
          {
            "duration": 0.1578944999999976,
            "durationTicks": 96,
            "midi": 0,
            "name": "C-1",
            "ticks": 64512,
            "time": 106.105104,
            "velocity": 0.3937007874015748
          },
          {
            "duration": 0.1578944999999976,
            "durationTicks": 96,
            "midi": 0,
            "name": "C-1",
            "ticks": 64512,
            "time": 106.105104,
            "velocity": 0.3937007874015748
          },
          {
            "duration": 0.1578944999999976,
            "durationTicks": 96,
            "midi": 0,
            "name": "C-1",
            "ticks": 64512,
            "time": 106.105104,
            "velocity": 0.3937007874015748
          },
          {
            "duration": 0.1578944999999976,
            "durationTicks": 96,
            "midi": 0,
            "name": "C-1",
            "ticks": 64704,
            "time": 106.42089299999999,
            "velocity": 0.3937007874015748
          },
          {
            "duration": 0.1578944999999976,
            "durationTicks": 96,
            "midi": 0,
            "name": "C-1",
            "ticks": 64704,
            "time": 106.42089299999999,
            "velocity": 0.3937007874015748
          },
          {
            "duration": 0.1578944999999976,
            "durationTicks": 96,
            "midi": 0,
            "name": "C-1",
            "ticks": 64704,
            "time": 106.42089299999999,
            "velocity": 0.3937007874015748
          },
          {
            "duration": 0.15789450000001182,
            "durationTicks": 96,
            "midi": 0,
            "name": "C-1",
            "ticks": 64800,
            "time": 106.57878749999999,
            "velocity": 0.3937007874015748
          },
          {
            "duration": 0.1578944999999976,
            "durationTicks": 96,
            "midi": 0,
            "name": "C-1",
            "ticks": 64896,
            "time": 106.736682,
            "velocity": 0.3937007874015748
          },
          {
            "duration": 0.1578944999999976,
            "durationTicks": 96,
            "midi": 0,
            "name": "C-1",
            "ticks": 64992,
            "time": 106.8945765,
            "velocity": 0.3937007874015748
          },
          {
            "duration": 0.1578944999999976,
            "durationTicks": 96,
            "midi": 0,
            "name": "C-1",
            "ticks": 65088,
            "time": 107.052471,
            "velocity": 0.3937007874015748
          },
          {
            "duration": 0.1578944999999976,
            "durationTicks": 96,
            "midi": 0,
            "name": "C-1",
            "ticks": 65088,
            "time": 107.052471,
            "velocity": 0.3937007874015748
          },
          {
            "duration": 0.1578944999999976,
            "durationTicks": 96,
            "midi": 0,
            "name": "C-1",
            "ticks": 65088,
            "time": 107.052471,
            "velocity": 0.3937007874015748
          },
          {
            "duration": 0.1578944999999976,
            "durationTicks": 96,
            "midi": 0,
            "name": "C-1",
            "ticks": 65280,
            "time": 107.36825999999999,
            "velocity": 0.3937007874015748
          },
          {
            "duration": 0.1578944999999976,
            "durationTicks": 96,
            "midi": 0,
            "name": "C-1",
            "ticks": 65472,
            "time": 107.684049,
            "velocity": 0.3937007874015748
          },
          {
            "duration": 0.1578944999999976,
            "durationTicks": 96,
            "midi": 0,
            "name": "C-1",
            "ticks": 65472,
            "time": 107.684049,
            "velocity": 0.3937007874015748
          },
          {
            "duration": 0.1578944999999976,
            "durationTicks": 96,
            "midi": 0,
            "name": "C-1",
            "ticks": 65472,
            "time": 107.684049,
            "velocity": 0.3937007874015748
          },
          {
            "duration": 0.1578944999999976,
            "durationTicks": 96,
            "midi": 0,
            "name": "C-1",
            "ticks": 65568,
            "time": 107.8419435,
            "velocity": 0.3937007874015748
          },
          {
            "duration": 0.1578944999999976,
            "durationTicks": 96,
            "midi": 0,
            "name": "C-1",
            "ticks": 65664,
            "time": 107.999838,
            "velocity": 0.3937007874015748
          },
          {
            "duration": 0.1578944999999976,
            "durationTicks": 96,
            "midi": 0,
            "name": "C-1",
            "ticks": 65760,
            "time": 108.1577325,
            "velocity": 0.3937007874015748
          },
          {
            "duration": 0.1578944999999976,
            "durationTicks": 96,
            "midi": 0,
            "name": "C-1",
            "ticks": 65856,
            "time": 108.31562699999999,
            "velocity": 0.3937007874015748
          },
          {
            "duration": 0.1578944999999976,
            "durationTicks": 96,
            "midi": 0,
            "name": "C-1",
            "ticks": 65856,
            "time": 108.31562699999999,
            "velocity": 0.3937007874015748
          },
          {
            "duration": 0.1578944999999976,
            "durationTicks": 96,
            "midi": 0,
            "name": "C-1",
            "ticks": 65856,
            "time": 108.31562699999999,
            "velocity": 0.3937007874015748
          },
          {
            "duration": 0.1578944999999976,
            "durationTicks": 96,
            "midi": 0,
            "name": "C-1",
            "ticks": 66048,
            "time": 108.631416,
            "velocity": 0.3937007874015748
          },
          {
            "duration": 0.1578944999999976,
            "durationTicks": 96,
            "midi": 0,
            "name": "C-1",
            "ticks": 66048,
            "time": 108.631416,
            "velocity": 0.3937007874015748
          },
          {
            "duration": 0.1578944999999976,
            "durationTicks": 96,
            "midi": 0,
            "name": "C-1",
            "ticks": 66240,
            "time": 108.947205,
            "velocity": 0.3937007874015748
          },
          {
            "duration": 0.1578944999999976,
            "durationTicks": 96,
            "midi": 0,
            "name": "C-1",
            "ticks": 66240,
            "time": 108.947205,
            "velocity": 0.3937007874015748
          },
          {
            "duration": 0.1578944999999976,
            "durationTicks": 96,
            "midi": 0,
            "name": "C-1",
            "ticks": 66240,
            "time": 108.947205,
            "velocity": 0.3937007874015748
          },
          {
            "duration": 0.1578944999999976,
            "durationTicks": 96,
            "midi": 0,
            "name": "C-1",
            "ticks": 66336,
            "time": 109.1050995,
            "velocity": 0.3937007874015748
          },
          {
            "duration": 0.1578944999999976,
            "durationTicks": 96,
            "midi": 0,
            "name": "C-1",
            "ticks": 66432,
            "time": 109.26299399999999,
            "velocity": 0.3937007874015748
          },
          {
            "duration": 0.15789450000001182,
            "durationTicks": 96,
            "midi": 0,
            "name": "C-1",
            "ticks": 66528,
            "time": 109.42088849999999,
            "velocity": 0.3937007874015748
          },
          {
            "duration": 0.1578944999999976,
            "durationTicks": 96,
            "midi": 0,
            "name": "C-1",
            "ticks": 66624,
            "time": 109.578783,
            "velocity": 0.3937007874015748
          },
          {
            "duration": 0.1578944999999976,
            "durationTicks": 96,
            "midi": 0,
            "name": "C-1",
            "ticks": 66624,
            "time": 109.578783,
            "velocity": 0.3937007874015748
          },
          {
            "duration": 0.1578944999999976,
            "durationTicks": 96,
            "midi": 0,
            "name": "C-1",
            "ticks": 66624,
            "time": 109.578783,
            "velocity": 0.3937007874015748
          },
          {
            "duration": 0.1578944999999976,
            "durationTicks": 96,
            "midi": 0,
            "name": "C-1",
            "ticks": 66816,
            "time": 109.894572,
            "velocity": 0.3937007874015748
          },
          {
            "duration": 0.1578944999999976,
            "durationTicks": 96,
            "midi": 0,
            "name": "C-1",
            "ticks": 67008,
            "time": 110.21036099999999,
            "velocity": 0.3937007874015748
          },
          {
            "duration": 0.1578944999999976,
            "durationTicks": 96,
            "midi": 0,
            "name": "C-1",
            "ticks": 67008,
            "time": 110.21036099999999,
            "velocity": 0.3937007874015748
          },
          {
            "duration": 0.1578944999999976,
            "durationTicks": 96,
            "midi": 0,
            "name": "C-1",
            "ticks": 67008,
            "time": 110.21036099999999,
            "velocity": 0.3937007874015748
          },
          {
            "duration": 0.15789450000001182,
            "durationTicks": 96,
            "midi": 0,
            "name": "C-1",
            "ticks": 67104,
            "time": 110.36825549999999,
            "velocity": 0.3937007874015748
          },
          {
            "duration": 0.1578944999999976,
            "durationTicks": 96,
            "midi": 0,
            "name": "C-1",
            "ticks": 67200,
            "time": 110.52615,
            "velocity": 0.3937007874015748
          },
          {
            "duration": 0.1578944999999976,
            "durationTicks": 96,
            "midi": 0,
            "name": "C-1",
            "ticks": 67296,
            "time": 110.6840445,
            "velocity": 0.3937007874015748
          },
          {
            "duration": 0.1578944999999976,
            "durationTicks": 96,
            "midi": 0,
            "name": "C-1",
            "ticks": 67392,
            "time": 110.841939,
            "velocity": 0.3937007874015748
          },
          {
            "duration": 0.1578944999999976,
            "durationTicks": 96,
            "midi": 0,
            "name": "C-1",
            "ticks": 67392,
            "time": 110.841939,
            "velocity": 0.3937007874015748
          },
          {
            "duration": 0.1578944999999976,
            "durationTicks": 96,
            "midi": 0,
            "name": "C-1",
            "ticks": 67392,
            "time": 110.841939,
            "velocity": 0.3937007874015748
          },
          {
            "duration": 0.1578944999999976,
            "durationTicks": 96,
            "midi": 0,
            "name": "C-1",
            "ticks": 67392,
            "time": 110.841939,
            "velocity": 0.3937007874015748
          },
          {
            "duration": 0.1578944999999976,
            "durationTicks": 96,
            "midi": 0,
            "name": "C-1",
            "ticks": 67584,
            "time": 111.15772799999999,
            "velocity": 0.3937007874015748
          },
          {
            "duration": 0.1578944999999976,
            "durationTicks": 96,
            "midi": 0,
            "name": "C-1",
            "ticks": 67584,
            "time": 111.15772799999999,
            "velocity": 0.3937007874015748
          },
          {
            "duration": 0.1578944999999976,
            "durationTicks": 96,
            "midi": 0,
            "name": "C-1",
            "ticks": 67584,
            "time": 111.15772799999999,
            "velocity": 0.3937007874015748
          },
          {
            "duration": 0.1578944999999976,
            "durationTicks": 96,
            "midi": 0,
            "name": "C-1",
            "ticks": 67776,
            "time": 111.473517,
            "velocity": 0.3937007874015748
          },
          {
            "duration": 0.1578944999999976,
            "durationTicks": 96,
            "midi": 0,
            "name": "C-1",
            "ticks": 67776,
            "time": 111.473517,
            "velocity": 0.3937007874015748
          },
          {
            "duration": 0.1578944999999976,
            "durationTicks": 96,
            "midi": 0,
            "name": "C-1",
            "ticks": 67776,
            "time": 111.473517,
            "velocity": 0.3937007874015748
          },
          {
            "duration": 0.1578944999999976,
            "durationTicks": 96,
            "midi": 0,
            "name": "C-1",
            "ticks": 67872,
            "time": 111.6314115,
            "velocity": 0.3937007874015748
          },
          {
            "duration": 0.1578944999999976,
            "durationTicks": 96,
            "midi": 0,
            "name": "C-1",
            "ticks": 67968,
            "time": 111.789306,
            "velocity": 0.3937007874015748
          },
          {
            "duration": 0.1578944999999976,
            "durationTicks": 96,
            "midi": 0,
            "name": "C-1",
            "ticks": 68064,
            "time": 111.9472005,
            "velocity": 0.3937007874015748
          },
          {
            "duration": 0.1578944999999976,
            "durationTicks": 96,
            "midi": 0,
            "name": "C-1",
            "ticks": 68160,
            "time": 112.10509499999999,
            "velocity": 0.3937007874015748
          },
          {
            "duration": 0.1578944999999976,
            "durationTicks": 96,
            "midi": 0,
            "name": "C-1",
            "ticks": 68160,
            "time": 112.10509499999999,
            "velocity": 0.3937007874015748
          },
          {
            "duration": 0.1578944999999976,
            "durationTicks": 96,
            "midi": 0,
            "name": "C-1",
            "ticks": 68160,
            "time": 112.10509499999999,
            "velocity": 0.3937007874015748
          },
          {
            "duration": 0.1578944999999976,
            "durationTicks": 96,
            "midi": 0,
            "name": "C-1",
            "ticks": 68352,
            "time": 112.420884,
            "velocity": 0.3937007874015748
          },
          {
            "duration": 0.1578944999999976,
            "durationTicks": 96,
            "midi": 0,
            "name": "C-1",
            "ticks": 68544,
            "time": 112.736673,
            "velocity": 0.3937007874015748
          },
          {
            "duration": 0.1578944999999976,
            "durationTicks": 96,
            "midi": 0,
            "name": "C-1",
            "ticks": 68544,
            "time": 112.736673,
            "velocity": 0.3937007874015748
          },
          {
            "duration": 0.1578944999999976,
            "durationTicks": 96,
            "midi": 0,
            "name": "C-1",
            "ticks": 68544,
            "time": 112.736673,
            "velocity": 0.3937007874015748
          },
          {
            "duration": 0.1578944999999976,
            "durationTicks": 96,
            "midi": 0,
            "name": "C-1",
            "ticks": 68640,
            "time": 112.8945675,
            "velocity": 0.3937007874015748
          },
          {
            "duration": 0.1578944999999976,
            "durationTicks": 96,
            "midi": 0,
            "name": "C-1",
            "ticks": 68736,
            "time": 113.05246199999999,
            "velocity": 0.3937007874015748
          },
          {
            "duration": 0.15789450000001182,
            "durationTicks": 96,
            "midi": 0,
            "name": "C-1",
            "ticks": 68832,
            "time": 113.21035649999999,
            "velocity": 0.3937007874015748
          },
          {
            "duration": 0.1578944999999976,
            "durationTicks": 96,
            "midi": 0,
            "name": "C-1",
            "ticks": 68928,
            "time": 113.368251,
            "velocity": 0.3937007874015748
          },
          {
            "duration": 0.1578944999999976,
            "durationTicks": 96,
            "midi": 0,
            "name": "C-1",
            "ticks": 68928,
            "time": 113.368251,
            "velocity": 0.3937007874015748
          },
          {
            "duration": 0.1578944999999976,
            "durationTicks": 96,
            "midi": 0,
            "name": "C-1",
            "ticks": 68928,
            "time": 113.368251,
            "velocity": 0.3937007874015748
          },
          {
            "duration": 0.1578944999999976,
            "durationTicks": 96,
            "midi": 0,
            "name": "C-1",
            "ticks": 69120,
            "time": 113.68404,
            "velocity": 0.3937007874015748
          },
          {
            "duration": 0.1578944999999976,
            "durationTicks": 96,
            "midi": 0,
            "name": "C-1",
            "ticks": 69120,
            "time": 113.68404,
            "velocity": 0.3937007874015748
          },
          {
            "duration": 0.1578944999999976,
            "durationTicks": 96,
            "midi": 0,
            "name": "C-1",
            "ticks": 69312,
            "time": 113.99982899999999,
            "velocity": 0.3937007874015748
          },
          {
            "duration": 0.1578944999999976,
            "durationTicks": 96,
            "midi": 0,
            "name": "C-1",
            "ticks": 69312,
            "time": 113.99982899999999,
            "velocity": 0.3937007874015748
          },
          {
            "duration": 0.1578944999999976,
            "durationTicks": 96,
            "midi": 0,
            "name": "C-1",
            "ticks": 69312,
            "time": 113.99982899999999,
            "velocity": 0.3937007874015748
          },
          {
            "duration": 0.15789450000001182,
            "durationTicks": 96,
            "midi": 0,
            "name": "C-1",
            "ticks": 69408,
            "time": 114.15772349999999,
            "velocity": 0.3937007874015748
          },
          {
            "duration": 0.1578944999999976,
            "durationTicks": 96,
            "midi": 0,
            "name": "C-1",
            "ticks": 69504,
            "time": 114.315618,
            "velocity": 0.3937007874015748
          },
          {
            "duration": 0.1578944999999976,
            "durationTicks": 96,
            "midi": 0,
            "name": "C-1",
            "ticks": 69600,
            "time": 114.4735125,
            "velocity": 0.3937007874015748
          },
          {
            "duration": 0.1578944999999976,
            "durationTicks": 96,
            "midi": 0,
            "name": "C-1",
            "ticks": 69696,
            "time": 114.631407,
            "velocity": 0.3937007874015748
          },
          {
            "duration": 0.1578944999999976,
            "durationTicks": 96,
            "midi": 0,
            "name": "C-1",
            "ticks": 69696,
            "time": 114.631407,
            "velocity": 0.3937007874015748
          },
          {
            "duration": 0.1578944999999976,
            "durationTicks": 96,
            "midi": 0,
            "name": "C-1",
            "ticks": 69696,
            "time": 114.631407,
            "velocity": 0.3937007874015748
          },
          {
            "duration": 0.1578944999999976,
            "durationTicks": 96,
            "midi": 0,
            "name": "C-1",
            "ticks": 69888,
            "time": 114.94719599999999,
            "velocity": 0.3937007874015748
          },
          {
            "duration": 0.1578944999999976,
            "durationTicks": 96,
            "midi": 0,
            "name": "C-1",
            "ticks": 69888,
            "time": 114.94719599999999,
            "velocity": 0.3937007874015748
          },
          {
            "duration": 0.07894725000001301,
            "durationTicks": 48,
            "midi": 0,
            "name": "C-1",
            "ticks": 69984,
            "time": 115.10509049999999,
            "velocity": 0.3937007874015748
          },
          {
            "duration": 0.07894725000001301,
            "durationTicks": 48,
            "midi": 0,
            "name": "C-1",
            "ticks": 69984,
            "time": 115.10509049999999,
            "velocity": 0.3937007874015748
          },
          {
            "duration": 0.07894725000001301,
            "durationTicks": 48,
            "midi": 0,
            "name": "C-1",
            "ticks": 69984,
            "time": 115.10509049999999,
            "velocity": 0.3937007874015748
          },
          {
            "duration": 0.15789450000001182,
            "durationTicks": 96,
            "midi": 0,
            "name": "C-1",
            "ticks": 69984,
            "time": 115.10509049999999,
            "velocity": 0.3937007874015748
          },
          {
            "duration": 0.0789472499999988,
            "durationTicks": 48,
            "midi": 0,
            "name": "C-1",
            "ticks": 70032,
            "time": 115.18403775,
            "velocity": 0.3937007874015748
          },
          {
            "duration": 0.0789472499999988,
            "durationTicks": 48,
            "midi": 0,
            "name": "C-1",
            "ticks": 70032,
            "time": 115.18403775,
            "velocity": 0.3937007874015748
          },
          {
            "duration": 0.0789472499999988,
            "durationTicks": 48,
            "midi": 0,
            "name": "C-1",
            "ticks": 70032,
            "time": 115.18403775,
            "velocity": 0.3937007874015748
          },
          {
            "duration": 0.1578944999999976,
            "durationTicks": 96,
            "midi": 0,
            "name": "C-1",
            "ticks": 70080,
            "time": 115.262985,
            "velocity": 0.3937007874015748
          },
          {
            "duration": 0.1578944999999976,
            "durationTicks": 96,
            "midi": 0,
            "name": "C-1",
            "ticks": 70080,
            "time": 115.262985,
            "velocity": 0.3937007874015748
          },
          {
            "duration": 0.1578944999999976,
            "durationTicks": 96,
            "midi": 0,
            "name": "C-1",
            "ticks": 70080,
            "time": 115.262985,
            "velocity": 0.3937007874015748
          },
          {
            "duration": 0.1578944999999976,
            "durationTicks": 96,
            "midi": 0,
            "name": "C-1",
            "ticks": 70080,
            "time": 115.262985,
            "velocity": 0.3937007874015748
          },
          {
            "duration": 0.1578944999999976,
            "durationTicks": 96,
            "midi": 0,
            "name": "C-1",
            "ticks": 70176,
            "time": 115.4208795,
            "velocity": 0.3937007874015748
          },
          {
            "duration": 0.1578944999999976,
            "durationTicks": 96,
            "midi": 0,
            "name": "C-1",
            "ticks": 70272,
            "time": 115.578774,
            "velocity": 0.3937007874015748
          },
          {
            "duration": 0.1578944999999976,
            "durationTicks": 96,
            "midi": 0,
            "name": "C-1",
            "ticks": 70272,
            "time": 115.578774,
            "velocity": 0.3937007874015748
          },
          {
            "duration": 0.1578944999999976,
            "durationTicks": 96,
            "midi": 0,
            "name": "C-1",
            "ticks": 70272,
            "time": 115.578774,
            "velocity": 0.3937007874015748
          },
          {
            "duration": 0.1578944999999976,
            "durationTicks": 96,
            "midi": 0,
            "name": "C-1",
            "ticks": 70272,
            "time": 115.578774,
            "velocity": 0.3937007874015748
          },
          {
            "duration": 0.1578944999999976,
            "durationTicks": 96,
            "midi": 0,
            "name": "C-1",
            "ticks": 70368,
            "time": 115.7366685,
            "velocity": 0.3937007874015748
          },
          {
            "duration": 0.1578944999999976,
            "durationTicks": 96,
            "midi": 0,
            "name": "C-1",
            "ticks": 70464,
            "time": 115.89456299999999,
            "velocity": 0.3937007874015748
          },
          {
            "duration": 0.1578944999999976,
            "durationTicks": 96,
            "midi": 0,
            "name": "C-1",
            "ticks": 70464,
            "time": 115.89456299999999,
            "velocity": 0.3937007874015748
          },
          {
            "duration": 0.1578944999999976,
            "durationTicks": 96,
            "midi": 0,
            "name": "C-1",
            "ticks": 70464,
            "time": 115.89456299999999,
            "velocity": 0.3937007874015748
          },
          {
            "duration": 0.1578944999999976,
            "durationTicks": 96,
            "midi": 0,
            "name": "C-1",
            "ticks": 70464,
            "time": 115.89456299999999,
            "velocity": 0.3937007874015748
          },
          {
            "duration": 0.1578944999999976,
            "durationTicks": 96,
            "midi": 0,
            "name": "C-1",
            "ticks": 70656,
            "time": 116.210352,
            "velocity": 0.3937007874015748
          },
          {
            "duration": 0.1578944999999976,
            "durationTicks": 96,
            "midi": 0,
            "name": "C-1",
            "ticks": 70656,
            "time": 116.210352,
            "velocity": 0.3937007874015748
          },
          {
            "duration": 0.1578944999999976,
            "durationTicks": 96,
            "midi": 0,
            "name": "C-1",
            "ticks": 70656,
            "time": 116.210352,
            "velocity": 0.3937007874015748
          },
          {
            "duration": 0.1578944999999976,
            "durationTicks": 96,
            "midi": 0,
            "name": "C-1",
            "ticks": 70848,
            "time": 116.526141,
            "velocity": 0.3937007874015748
          },
          {
            "duration": 0.1578944999999976,
            "durationTicks": 96,
            "midi": 0,
            "name": "C-1",
            "ticks": 70848,
            "time": 116.526141,
            "velocity": 0.3937007874015748
          },
          {
            "duration": 0.1578944999999976,
            "durationTicks": 96,
            "midi": 0,
            "name": "C-1",
            "ticks": 70848,
            "time": 116.526141,
            "velocity": 0.3937007874015748
          },
          {
            "duration": 0.1578944999999976,
            "durationTicks": 96,
            "midi": 0,
            "name": "C-1",
            "ticks": 70944,
            "time": 116.6840355,
            "velocity": 0.3937007874015748
          },
          {
            "duration": 0.1578944999999976,
            "durationTicks": 96,
            "midi": 0,
            "name": "C-1",
            "ticks": 71040,
            "time": 116.84192999999999,
            "velocity": 0.3937007874015748
          },
          {
            "duration": 0.15789450000001182,
            "durationTicks": 96,
            "midi": 0,
            "name": "C-1",
            "ticks": 71136,
            "time": 116.99982449999999,
            "velocity": 0.3937007874015748
          },
          {
            "duration": 0.1578944999999976,
            "durationTicks": 96,
            "midi": 0,
            "name": "C-1",
            "ticks": 71232,
            "time": 117.157719,
            "velocity": 0.3937007874015748
          },
          {
            "duration": 0.1578944999999976,
            "durationTicks": 96,
            "midi": 0,
            "name": "C-1",
            "ticks": 71232,
            "time": 117.157719,
            "velocity": 0.3937007874015748
          },
          {
            "duration": 0.1578944999999976,
            "durationTicks": 96,
            "midi": 0,
            "name": "C-1",
            "ticks": 71232,
            "time": 117.157719,
            "velocity": 0.3937007874015748
          },
          {
            "duration": 0.1578944999999976,
            "durationTicks": 96,
            "midi": 0,
            "name": "C-1",
            "ticks": 71424,
            "time": 117.473508,
            "velocity": 0.3937007874015748
          },
          {
            "duration": 0.1578944999999976,
            "durationTicks": 96,
            "midi": 0,
            "name": "C-1",
            "ticks": 71616,
            "time": 117.78929699999999,
            "velocity": 0.3937007874015748
          },
          {
            "duration": 0.1578944999999976,
            "durationTicks": 96,
            "midi": 0,
            "name": "C-1",
            "ticks": 71616,
            "time": 117.78929699999999,
            "velocity": 0.3937007874015748
          },
          {
            "duration": 0.1578944999999976,
            "durationTicks": 96,
            "midi": 0,
            "name": "C-1",
            "ticks": 71616,
            "time": 117.78929699999999,
            "velocity": 0.3937007874015748
          },
          {
            "duration": 0.15789450000001182,
            "durationTicks": 96,
            "midi": 0,
            "name": "C-1",
            "ticks": 71712,
            "time": 117.94719149999999,
            "velocity": 0.3937007874015748
          },
          {
            "duration": 0.1578944999999976,
            "durationTicks": 96,
            "midi": 0,
            "name": "C-1",
            "ticks": 71808,
            "time": 118.105086,
            "velocity": 0.3937007874015748
          },
          {
            "duration": 0.1578944999999976,
            "durationTicks": 96,
            "midi": 0,
            "name": "C-1",
            "ticks": 71904,
            "time": 118.2629805,
            "velocity": 0.3937007874015748
          },
          {
            "duration": 0.1578944999999976,
            "durationTicks": 96,
            "midi": 0,
            "name": "C-1",
            "ticks": 72000,
            "time": 118.420875,
            "velocity": 0.3937007874015748
          },
          {
            "duration": 0.1578944999999976,
            "durationTicks": 96,
            "midi": 0,
            "name": "C-1",
            "ticks": 72000,
            "time": 118.420875,
            "velocity": 0.3937007874015748
          },
          {
            "duration": 0.1578944999999976,
            "durationTicks": 96,
            "midi": 0,
            "name": "C-1",
            "ticks": 72000,
            "time": 118.420875,
            "velocity": 0.3937007874015748
          },
          {
            "duration": 0.1578944999999976,
            "durationTicks": 96,
            "midi": 0,
            "name": "C-1",
            "ticks": 72192,
            "time": 118.73666399999999,
            "velocity": 0.3937007874015748
          },
          {
            "duration": 0.1578944999999976,
            "durationTicks": 96,
            "midi": 0,
            "name": "C-1",
            "ticks": 72192,
            "time": 118.73666399999999,
            "velocity": 0.3937007874015748
          },
          {
            "duration": 0.1578944999999976,
            "durationTicks": 96,
            "midi": 0,
            "name": "C-1",
            "ticks": 72384,
            "time": 119.052453,
            "velocity": 0.3937007874015748
          },
          {
            "duration": 0.1578944999999976,
            "durationTicks": 96,
            "midi": 0,
            "name": "C-1",
            "ticks": 72384,
            "time": 119.052453,
            "velocity": 0.3937007874015748
          },
          {
            "duration": 0.1578944999999976,
            "durationTicks": 96,
            "midi": 0,
            "name": "C-1",
            "ticks": 72384,
            "time": 119.052453,
            "velocity": 0.3937007874015748
          },
          {
            "duration": 0.1578944999999976,
            "durationTicks": 96,
            "midi": 0,
            "name": "C-1",
            "ticks": 72480,
            "time": 119.2103475,
            "velocity": 0.3937007874015748
          },
          {
            "duration": 0.1578944999999976,
            "durationTicks": 96,
            "midi": 0,
            "name": "C-1",
            "ticks": 72576,
            "time": 119.368242,
            "velocity": 0.3937007874015748
          },
          {
            "duration": 0.1578944999999976,
            "durationTicks": 96,
            "midi": 0,
            "name": "C-1",
            "ticks": 72672,
            "time": 119.52613649999999,
            "velocity": 0.3937007874015748
          },
          {
            "duration": 0.1578944999999976,
            "durationTicks": 96,
            "midi": 0,
            "name": "C-1",
            "ticks": 72768,
            "time": 119.68403099999999,
            "velocity": 0.3937007874015748
          },
          {
            "duration": 0.1578944999999976,
            "durationTicks": 96,
            "midi": 0,
            "name": "C-1",
            "ticks": 72768,
            "time": 119.68403099999999,
            "velocity": 0.3937007874015748
          },
          {
            "duration": 0.1578944999999976,
            "durationTicks": 96,
            "midi": 0,
            "name": "C-1",
            "ticks": 72768,
            "time": 119.68403099999999,
            "velocity": 0.3937007874015748
          },
          {
            "duration": 0.1578944999999976,
            "durationTicks": 96,
            "midi": 0,
            "name": "C-1",
            "ticks": 72960,
            "time": 119.99982,
            "velocity": 0.3937007874015748
          },
          {
            "duration": 0.1578944999999976,
            "durationTicks": 96,
            "midi": 0,
            "name": "C-1",
            "ticks": 73152,
            "time": 120.315609,
            "velocity": 0.3937007874015748
          },
          {
            "duration": 0.1578944999999976,
            "durationTicks": 96,
            "midi": 0,
            "name": "C-1",
            "ticks": 73152,
            "time": 120.315609,
            "velocity": 0.3937007874015748
          },
          {
            "duration": 0.1578944999999976,
            "durationTicks": 96,
            "midi": 0,
            "name": "C-1",
            "ticks": 73152,
            "time": 120.315609,
            "velocity": 0.3937007874015748
          },
          {
            "duration": 0.1578944999999976,
            "durationTicks": 96,
            "midi": 0,
            "name": "C-1",
            "ticks": 73248,
            "time": 120.47350349999999,
            "velocity": 0.3937007874015748
          },
          {
            "duration": 0.1578944999999976,
            "durationTicks": 96,
            "midi": 0,
            "name": "C-1",
            "ticks": 73344,
            "time": 120.63139799999999,
            "velocity": 0.3937007874015748
          },
          {
            "duration": 0.15789450000001182,
            "durationTicks": 96,
            "midi": 0,
            "name": "C-1",
            "ticks": 73440,
            "time": 120.78929249999999,
            "velocity": 0.3937007874015748
          },
          {
            "duration": 0.1578944999999976,
            "durationTicks": 96,
            "midi": 0,
            "name": "C-1",
            "ticks": 73536,
            "time": 120.947187,
            "velocity": 0.3937007874015748
          },
          {
            "duration": 0.1578944999999976,
            "durationTicks": 96,
            "midi": 0,
            "name": "C-1",
            "ticks": 73536,
            "time": 120.947187,
            "velocity": 0.3937007874015748
          },
          {
            "duration": 0.1578944999999976,
            "durationTicks": 96,
            "midi": 0,
            "name": "C-1",
            "ticks": 73536,
            "time": 120.947187,
            "velocity": 0.3937007874015748
          },
          {
            "duration": 0.1578944999999976,
            "durationTicks": 96,
            "midi": 0,
            "name": "C-1",
            "ticks": 73536,
            "time": 120.947187,
            "velocity": 0.3937007874015748
          },
          {
            "duration": 0.1578944999999976,
            "durationTicks": 96,
            "midi": 0,
            "name": "C-1",
            "ticks": 73728,
            "time": 121.262976,
            "velocity": 0.3937007874015748
          },
          {
            "duration": 0.1578944999999976,
            "durationTicks": 96,
            "midi": 0,
            "name": "C-1",
            "ticks": 73728,
            "time": 121.262976,
            "velocity": 0.3937007874015748
          },
          {
            "duration": 0.1578944999999976,
            "durationTicks": 96,
            "midi": 0,
            "name": "C-1",
            "ticks": 73728,
            "time": 121.262976,
            "velocity": 0.3937007874015748
          },
          {
            "duration": 0.15789450000001182,
            "durationTicks": 96,
            "midi": 0,
            "name": "C-1",
            "ticks": 73920,
            "time": 121.57876499999999,
            "velocity": 0.3937007874015748
          },
          {
            "duration": 0.15789450000001182,
            "durationTicks": 96,
            "midi": 0,
            "name": "C-1",
            "ticks": 73920,
            "time": 121.57876499999999,
            "velocity": 0.3937007874015748
          },
          {
            "duration": 0.15789450000001182,
            "durationTicks": 96,
            "midi": 0,
            "name": "C-1",
            "ticks": 73920,
            "time": 121.57876499999999,
            "velocity": 0.3937007874015748
          },
          {
            "duration": 0.1578944999999976,
            "durationTicks": 96,
            "midi": 0,
            "name": "C-1",
            "ticks": 74016,
            "time": 121.7366595,
            "velocity": 0.3937007874015748
          },
          {
            "duration": 0.1578944999999976,
            "durationTicks": 96,
            "midi": 0,
            "name": "C-1",
            "ticks": 74112,
            "time": 121.894554,
            "velocity": 0.3937007874015748
          },
          {
            "duration": 0.1578944999999976,
            "durationTicks": 96,
            "midi": 0,
            "name": "C-1",
            "ticks": 74208,
            "time": 122.0524485,
            "velocity": 0.3937007874015748
          },
          {
            "duration": 0.1578944999999976,
            "durationTicks": 96,
            "midi": 0,
            "name": "C-1",
            "ticks": 74304,
            "time": 122.210343,
            "velocity": 0.3937007874015748
          },
          {
            "duration": 0.1578944999999976,
            "durationTicks": 96,
            "midi": 0,
            "name": "C-1",
            "ticks": 74304,
            "time": 122.210343,
            "velocity": 0.3937007874015748
          },
          {
            "duration": 0.1578944999999976,
            "durationTicks": 96,
            "midi": 0,
            "name": "C-1",
            "ticks": 74304,
            "time": 122.210343,
            "velocity": 0.3937007874015748
          },
          {
            "duration": 0.15789450000001182,
            "durationTicks": 96,
            "midi": 0,
            "name": "C-1",
            "ticks": 74496,
            "time": 122.52613199999999,
            "velocity": 0.3937007874015748
          },
          {
            "duration": 0.1578944999999976,
            "durationTicks": 96,
            "midi": 0,
            "name": "C-1",
            "ticks": 74688,
            "time": 122.841921,
            "velocity": 0.3937007874015748
          },
          {
            "duration": 0.1578944999999976,
            "durationTicks": 96,
            "midi": 0,
            "name": "C-1",
            "ticks": 74688,
            "time": 122.841921,
            "velocity": 0.3937007874015748
          },
          {
            "duration": 0.1578944999999976,
            "durationTicks": 96,
            "midi": 0,
            "name": "C-1",
            "ticks": 74688,
            "time": 122.841921,
            "velocity": 0.3937007874015748
          },
          {
            "duration": 0.1578944999999976,
            "durationTicks": 96,
            "midi": 0,
            "name": "C-1",
            "ticks": 74784,
            "time": 122.9998155,
            "velocity": 0.3937007874015748
          },
          {
            "duration": 0.1578944999999976,
            "durationTicks": 96,
            "midi": 0,
            "name": "C-1",
            "ticks": 74880,
            "time": 123.15771,
            "velocity": 0.3937007874015748
          },
          {
            "duration": 0.1578944999999976,
            "durationTicks": 96,
            "midi": 0,
            "name": "C-1",
            "ticks": 74976,
            "time": 123.31560449999999,
            "velocity": 0.3937007874015748
          },
          {
            "duration": 0.15789450000001182,
            "durationTicks": 96,
            "midi": 0,
            "name": "C-1",
            "ticks": 75072,
            "time": 123.47349899999999,
            "velocity": 0.3937007874015748
          },
          {
            "duration": 0.15789450000001182,
            "durationTicks": 96,
            "midi": 0,
            "name": "C-1",
            "ticks": 75072,
            "time": 123.47349899999999,
            "velocity": 0.3937007874015748
          },
          {
            "duration": 0.15789450000001182,
            "durationTicks": 96,
            "midi": 0,
            "name": "C-1",
            "ticks": 75072,
            "time": 123.47349899999999,
            "velocity": 0.3937007874015748
          },
          {
            "duration": 0.1578944999999976,
            "durationTicks": 96,
            "midi": 0,
            "name": "C-1",
            "ticks": 75264,
            "time": 123.789288,
            "velocity": 0.3937007874015748
          },
          {
            "duration": 0.1578944999999976,
            "durationTicks": 96,
            "midi": 0,
            "name": "C-1",
            "ticks": 75264,
            "time": 123.789288,
            "velocity": 0.3937007874015748
          },
          {
            "duration": 0.1578944999999976,
            "durationTicks": 96,
            "midi": 0,
            "name": "C-1",
            "ticks": 75456,
            "time": 124.105077,
            "velocity": 0.3937007874015748
          },
          {
            "duration": 0.1578944999999976,
            "durationTicks": 96,
            "midi": 0,
            "name": "C-1",
            "ticks": 75456,
            "time": 124.105077,
            "velocity": 0.3937007874015748
          },
          {
            "duration": 0.1578944999999976,
            "durationTicks": 96,
            "midi": 0,
            "name": "C-1",
            "ticks": 75456,
            "time": 124.105077,
            "velocity": 0.3937007874015748
          },
          {
            "duration": 0.1578944999999976,
            "durationTicks": 96,
            "midi": 0,
            "name": "C-1",
            "ticks": 75552,
            "time": 124.26297149999999,
            "velocity": 0.3937007874015748
          },
          {
            "duration": 0.15789450000001182,
            "durationTicks": 96,
            "midi": 0,
            "name": "C-1",
            "ticks": 75648,
            "time": 124.42086599999999,
            "velocity": 0.3937007874015748
          },
          {
            "duration": 0.1578944999999976,
            "durationTicks": 96,
            "midi": 0,
            "name": "C-1",
            "ticks": 75744,
            "time": 124.5787605,
            "velocity": 0.3937007874015748
          },
          {
            "duration": 0.1578944999999976,
            "durationTicks": 96,
            "midi": 0,
            "name": "C-1",
            "ticks": 75840,
            "time": 124.736655,
            "velocity": 0.3937007874015748
          },
          {
            "duration": 0.1578944999999976,
            "durationTicks": 96,
            "midi": 0,
            "name": "C-1",
            "ticks": 75840,
            "time": 124.736655,
            "velocity": 0.3937007874015748
          },
          {
            "duration": 0.1578944999999976,
            "durationTicks": 96,
            "midi": 0,
            "name": "C-1",
            "ticks": 75840,
            "time": 124.736655,
            "velocity": 0.3937007874015748
          },
          {
            "duration": 0.1578944999999976,
            "durationTicks": 96,
            "midi": 0,
            "name": "C-1",
            "ticks": 76032,
            "time": 125.052444,
            "velocity": 0.3937007874015748
          },
          {
            "duration": 0.1578944999999976,
            "durationTicks": 96,
            "midi": 0,
            "name": "C-1",
            "ticks": 76032,
            "time": 125.052444,
            "velocity": 0.3937007874015748
          },
          {
            "duration": 0.0789472499999988,
            "durationTicks": 48,
            "midi": 0,
            "name": "C-1",
            "ticks": 76128,
            "time": 125.21033849999999,
            "velocity": 0.3937007874015748
          },
          {
            "duration": 0.0789472499999988,
            "durationTicks": 48,
            "midi": 0,
            "name": "C-1",
            "ticks": 76128,
            "time": 125.21033849999999,
            "velocity": 0.3937007874015748
          },
          {
            "duration": 0.0789472499999988,
            "durationTicks": 48,
            "midi": 0,
            "name": "C-1",
            "ticks": 76128,
            "time": 125.21033849999999,
            "velocity": 0.3937007874015748
          },
          {
            "duration": 0.1578944999999976,
            "durationTicks": 96,
            "midi": 0,
            "name": "C-1",
            "ticks": 76128,
            "time": 125.21033849999999,
            "velocity": 0.3937007874015748
          },
          {
            "duration": 0.0789472499999988,
            "durationTicks": 48,
            "midi": 0,
            "name": "C-1",
            "ticks": 76176,
            "time": 125.28928574999999,
            "velocity": 0.3937007874015748
          },
          {
            "duration": 0.0789472499999988,
            "durationTicks": 48,
            "midi": 0,
            "name": "C-1",
            "ticks": 76176,
            "time": 125.28928574999999,
            "velocity": 0.3937007874015748
          },
          {
            "duration": 0.0789472499999988,
            "durationTicks": 48,
            "midi": 0,
            "name": "C-1",
            "ticks": 76176,
            "time": 125.28928574999999,
            "velocity": 0.3937007874015748
          },
          {
            "duration": 0.15789450000001182,
            "durationTicks": 96,
            "midi": 0,
            "name": "C-1",
            "ticks": 76224,
            "time": 125.36823299999999,
            "velocity": 0.3937007874015748
          },
          {
            "duration": 0.15789450000001182,
            "durationTicks": 96,
            "midi": 0,
            "name": "C-1",
            "ticks": 76224,
            "time": 125.36823299999999,
            "velocity": 0.3937007874015748
          },
          {
            "duration": 0.15789450000001182,
            "durationTicks": 96,
            "midi": 0,
            "name": "C-1",
            "ticks": 76224,
            "time": 125.36823299999999,
            "velocity": 0.3937007874015748
          },
          {
            "duration": 0.15789450000001182,
            "durationTicks": 96,
            "midi": 0,
            "name": "C-1",
            "ticks": 76224,
            "time": 125.36823299999999,
            "velocity": 0.3937007874015748
          },
          {
            "duration": 0.1578944999999976,
            "durationTicks": 96,
            "midi": 0,
            "name": "C-1",
            "ticks": 76320,
            "time": 125.5261275,
            "velocity": 0.3937007874015748
          },
          {
            "duration": 0.1578944999999976,
            "durationTicks": 96,
            "midi": 0,
            "name": "C-1",
            "ticks": 76416,
            "time": 125.684022,
            "velocity": 0.3937007874015748
          },
          {
            "duration": 0.1578944999999976,
            "durationTicks": 96,
            "midi": 0,
            "name": "C-1",
            "ticks": 76416,
            "time": 125.684022,
            "velocity": 0.3937007874015748
          },
          {
            "duration": 0.1578944999999976,
            "durationTicks": 96,
            "midi": 0,
            "name": "C-1",
            "ticks": 76416,
            "time": 125.684022,
            "velocity": 0.3937007874015748
          },
          {
            "duration": 0.1578944999999976,
            "durationTicks": 96,
            "midi": 0,
            "name": "C-1",
            "ticks": 76416,
            "time": 125.684022,
            "velocity": 0.3937007874015748
          },
          {
            "duration": 0.1578944999999976,
            "durationTicks": 96,
            "midi": 0,
            "name": "C-1",
            "ticks": 76512,
            "time": 125.8419165,
            "velocity": 0.3937007874015748
          },
          {
            "duration": 0.1578944999999976,
            "durationTicks": 96,
            "midi": 0,
            "name": "C-1",
            "ticks": 76608,
            "time": 125.999811,
            "velocity": 0.3937007874015748
          },
          {
            "duration": 0.1578944999999976,
            "durationTicks": 96,
            "midi": 0,
            "name": "C-1",
            "ticks": 76608,
            "time": 125.999811,
            "velocity": 0.3937007874015748
          },
          {
            "duration": 0.1578944999999976,
            "durationTicks": 96,
            "midi": 0,
            "name": "C-1",
            "ticks": 76608,
            "time": 125.999811,
            "velocity": 0.3937007874015748
          },
          {
            "duration": 0.1578944999999976,
            "durationTicks": 96,
            "midi": 0,
            "name": "C-1",
            "ticks": 76608,
            "time": 125.999811,
            "velocity": 0.3937007874015748
          },
          {
            "duration": 0.3157890000000094,
            "durationTicks": 192,
            "midi": 0,
            "name": "C-1",
            "ticks": 76800,
            "time": 126.31559999999999,
            "velocity": 0.3937007874015748
          },
          {
            "duration": 0.3157890000000094,
            "durationTicks": 192,
            "midi": 0,
            "name": "C-1",
            "ticks": 76800,
            "time": 126.31559999999999,
            "velocity": 0.3937007874015748
          },
          {
            "duration": 0.3157889999999952,
            "durationTicks": 192,
            "midi": 0,
            "name": "C-1",
            "ticks": 76992,
            "time": 126.631389,
            "velocity": 0.3937007874015748
          },
          {
            "duration": 0.3157889999999952,
            "durationTicks": 192,
            "midi": 0,
            "name": "C-1",
            "ticks": 77184,
            "time": 126.947178,
            "velocity": 0.3937007874015748
          },
          {
            "duration": 0.3157889999999952,
            "durationTicks": 192,
            "midi": 0,
            "name": "C-1",
            "ticks": 77184,
            "time": 126.947178,
            "velocity": 0.3937007874015748
          },
          {
            "duration": 0.3157890000000094,
            "durationTicks": 192,
            "midi": 0,
            "name": "C-1",
            "ticks": 77376,
            "time": 127.26296699999999,
            "velocity": 0.3937007874015748
          },
          {
            "duration": 0.3157890000000094,
            "durationTicks": 192,
            "midi": 0,
            "name": "C-1",
            "ticks": 77376,
            "time": 127.26296699999999,
            "velocity": 0.3937007874015748
          },
          {
            "duration": 0.3157889999999952,
            "durationTicks": 192,
            "midi": 0,
            "name": "C-1",
            "ticks": 77568,
            "time": 127.578756,
            "velocity": 0.3937007874015748
          },
          {
            "duration": 0.3157889999999952,
            "durationTicks": 192,
            "midi": 0,
            "name": "C-1",
            "ticks": 77760,
            "time": 127.894545,
            "velocity": 0.3937007874015748
          },
          {
            "duration": 0.3157889999999952,
            "durationTicks": 192,
            "midi": 0,
            "name": "C-1",
            "ticks": 77760,
            "time": 127.894545,
            "velocity": 0.3937007874015748
          },
          {
            "duration": 0.3157889999999952,
            "durationTicks": 192,
            "midi": 0,
            "name": "C-1",
            "ticks": 77952,
            "time": 128.210334,
            "velocity": 0.3937007874015748
          },
          {
            "duration": 0.3157889999999952,
            "durationTicks": 192,
            "midi": 0,
            "name": "C-1",
            "ticks": 77952,
            "time": 128.210334,
            "velocity": 0.3937007874015748
          },
          {
            "duration": 0.31578900000002363,
            "durationTicks": 192,
            "midi": 0,
            "name": "C-1",
            "ticks": 78144,
            "time": 128.52612299999998,
            "velocity": 0.3937007874015748
          },
          {
            "duration": 0.3157889999999952,
            "durationTicks": 192,
            "midi": 0,
            "name": "C-1",
            "ticks": 78336,
            "time": 128.841912,
            "velocity": 0.3937007874015748
          },
          {
            "duration": 0.3157889999999952,
            "durationTicks": 192,
            "midi": 0,
            "name": "C-1",
            "ticks": 78528,
            "time": 129.157701,
            "velocity": 0.3937007874015748
          },
          {
            "duration": 0.3157889999999952,
            "durationTicks": 192,
            "midi": 0,
            "name": "C-1",
            "ticks": 78720,
            "time": 129.47349,
            "velocity": 0.3937007874015748
          },
          {
            "duration": 0.3157889999999952,
            "durationTicks": 192,
            "midi": 0,
            "name": "C-1",
            "ticks": 78720,
            "time": 129.47349,
            "velocity": 0.3937007874015748
          },
          {
            "duration": 0.3157889999999952,
            "durationTicks": 192,
            "midi": 0,
            "name": "C-1",
            "ticks": 78912,
            "time": 129.789279,
            "velocity": 0.3937007874015748
          },
          {
            "duration": 0.3157889999999952,
            "durationTicks": 192,
            "midi": 0,
            "name": "C-1",
            "ticks": 78912,
            "time": 129.789279,
            "velocity": 0.3937007874015748
          },
          {
            "duration": 0.3157889999999952,
            "durationTicks": 192,
            "midi": 0,
            "name": "C-1",
            "ticks": 79104,
            "time": 130.105068,
            "velocity": 0.3937007874015748
          },
          {
            "duration": 0.31578900000002363,
            "durationTicks": 192,
            "midi": 0,
            "name": "C-1",
            "ticks": 79296,
            "time": 130.42085699999998,
            "velocity": 0.3937007874015748
          },
          {
            "duration": 0.31578900000002363,
            "durationTicks": 192,
            "midi": 0,
            "name": "C-1",
            "ticks": 79296,
            "time": 130.42085699999998,
            "velocity": 0.3937007874015748
          },
          {
            "duration": 0.3157889999999952,
            "durationTicks": 192,
            "midi": 0,
            "name": "C-1",
            "ticks": 79488,
            "time": 130.736646,
            "velocity": 0.3937007874015748
          },
          {
            "duration": 0.3157889999999952,
            "durationTicks": 192,
            "midi": 0,
            "name": "C-1",
            "ticks": 79488,
            "time": 130.736646,
            "velocity": 0.3937007874015748
          },
          {
            "duration": 0.3157889999999952,
            "durationTicks": 192,
            "midi": 0,
            "name": "C-1",
            "ticks": 79488,
            "time": 130.736646,
            "velocity": 0.3937007874015748
          },
          {
            "duration": 0.3157889999999952,
            "durationTicks": 192,
            "midi": 0,
            "name": "C-1",
            "ticks": 79680,
            "time": 131.052435,
            "velocity": 0.3937007874015748
          },
          {
            "duration": 0.3157889999999952,
            "durationTicks": 192,
            "midi": 0,
            "name": "C-1",
            "ticks": 79680,
            "time": 131.052435,
            "velocity": 0.3937007874015748
          },
          {
            "duration": 0.3157889999999952,
            "durationTicks": 192,
            "midi": 0,
            "name": "C-1",
            "ticks": 79680,
            "time": 131.052435,
            "velocity": 0.3937007874015748
          },
          {
            "duration": 0.3157889999999952,
            "durationTicks": 192,
            "midi": 0,
            "name": "C-1",
            "ticks": 79872,
            "time": 131.368224,
            "velocity": 0.3937007874015748
          },
          {
            "duration": 0.3157889999999952,
            "durationTicks": 192,
            "midi": 0,
            "name": "C-1",
            "ticks": 79872,
            "time": 131.368224,
            "velocity": 0.3937007874015748
          },
          {
            "duration": 0.3157889999999952,
            "durationTicks": 192,
            "midi": 0,
            "name": "C-1",
            "ticks": 80064,
            "time": 131.684013,
            "velocity": 0.3937007874015748
          },
          {
            "duration": 0.3157889999999952,
            "durationTicks": 192,
            "midi": 0,
            "name": "C-1",
            "ticks": 80256,
            "time": 131.999802,
            "velocity": 0.3937007874015748
          },
          {
            "duration": 0.3157889999999952,
            "durationTicks": 192,
            "midi": 0,
            "name": "C-1",
            "ticks": 80256,
            "time": 131.999802,
            "velocity": 0.3937007874015748
          },
          {
            "duration": 0.31578900000002363,
            "durationTicks": 192,
            "midi": 0,
            "name": "C-1",
            "ticks": 80448,
            "time": 132.31559099999998,
            "velocity": 0.3937007874015748
          },
          {
            "duration": 0.31578900000002363,
            "durationTicks": 192,
            "midi": 0,
            "name": "C-1",
            "ticks": 80448,
            "time": 132.31559099999998,
            "velocity": 0.3937007874015748
          },
          {
            "duration": 0.3157889999999952,
            "durationTicks": 192,
            "midi": 0,
            "name": "C-1",
            "ticks": 80640,
            "time": 132.63138,
            "velocity": 0.3937007874015748
          },
          {
            "duration": 0.3157889999999952,
            "durationTicks": 192,
            "midi": 0,
            "name": "C-1",
            "ticks": 80832,
            "time": 132.947169,
            "velocity": 0.3937007874015748
          },
          {
            "duration": 0.3157889999999952,
            "durationTicks": 192,
            "midi": 0,
            "name": "C-1",
            "ticks": 80832,
            "time": 132.947169,
            "velocity": 0.3937007874015748
          },
          {
            "duration": 0.3157889999999952,
            "durationTicks": 192,
            "midi": 0,
            "name": "C-1",
            "ticks": 81024,
            "time": 133.262958,
            "velocity": 0.3937007874015748
          },
          {
            "duration": 0.3157889999999952,
            "durationTicks": 192,
            "midi": 0,
            "name": "C-1",
            "ticks": 81024,
            "time": 133.262958,
            "velocity": 0.3937007874015748
          },
          {
            "duration": 0.3157889999999952,
            "durationTicks": 192,
            "midi": 0,
            "name": "C-1",
            "ticks": 81216,
            "time": 133.578747,
            "velocity": 0.3937007874015748
          },
          {
            "duration": 0.3157889999999952,
            "durationTicks": 192,
            "midi": 0,
            "name": "C-1",
            "ticks": 81408,
            "time": 133.894536,
            "velocity": 0.3937007874015748
          },
          {
            "duration": 0.31578900000002363,
            "durationTicks": 192,
            "midi": 0,
            "name": "C-1",
            "ticks": 81600,
            "time": 134.21032499999998,
            "velocity": 0.3937007874015748
          },
          {
            "duration": 0.3157889999999952,
            "durationTicks": 192,
            "midi": 0,
            "name": "C-1",
            "ticks": 81792,
            "time": 134.526114,
            "velocity": 0.3937007874015748
          },
          {
            "duration": 0.3157889999999952,
            "durationTicks": 192,
            "midi": 0,
            "name": "C-1",
            "ticks": 81792,
            "time": 134.526114,
            "velocity": 0.3937007874015748
          },
          {
            "duration": 0.3157889999999952,
            "durationTicks": 192,
            "midi": 0,
            "name": "C-1",
            "ticks": 81984,
            "time": 134.841903,
            "velocity": 0.3937007874015748
          },
          {
            "duration": 0.3157889999999952,
            "durationTicks": 192,
            "midi": 0,
            "name": "C-1",
            "ticks": 81984,
            "time": 134.841903,
            "velocity": 0.3937007874015748
          },
          {
            "duration": 0.3157889999999952,
            "durationTicks": 192,
            "midi": 0,
            "name": "C-1",
            "ticks": 82176,
            "time": 135.157692,
            "velocity": 0.3937007874015748
          },
          {
            "duration": 0.3157889999999952,
            "durationTicks": 192,
            "midi": 0,
            "name": "C-1",
            "ticks": 82368,
            "time": 135.473481,
            "velocity": 0.3937007874015748
          },
          {
            "duration": 0.3157889999999952,
            "durationTicks": 192,
            "midi": 0,
            "name": "C-1",
            "ticks": 82368,
            "time": 135.473481,
            "velocity": 0.3937007874015748
          },
          {
            "duration": 0.3157889999999952,
            "durationTicks": 192,
            "midi": 0,
            "name": "C-1",
            "ticks": 82560,
            "time": 135.78927,
            "velocity": 0.3937007874015748
          },
          {
            "duration": 0.3157889999999952,
            "durationTicks": 192,
            "midi": 0,
            "name": "C-1",
            "ticks": 82560,
            "time": 135.78927,
            "velocity": 0.3937007874015748
          },
          {
            "duration": 0.31578900000002363,
            "durationTicks": 192,
            "midi": 0,
            "name": "C-1",
            "ticks": 82752,
            "time": 136.10505899999998,
            "velocity": 0.3937007874015748
          },
          {
            "duration": 0.3157889999999952,
            "durationTicks": 192,
            "midi": 0,
            "name": "C-1",
            "ticks": 82944,
            "time": 136.420848,
            "velocity": 0.3937007874015748
          },
          {
            "duration": 0.3157889999999952,
            "durationTicks": 192,
            "midi": 0,
            "name": "C-1",
            "ticks": 83136,
            "time": 136.736637,
            "velocity": 0.3937007874015748
          },
          {
            "duration": 0.3157889999999952,
            "durationTicks": 192,
            "midi": 0,
            "name": "C-1",
            "ticks": 83328,
            "time": 137.052426,
            "velocity": 0.3937007874015748
          },
          {
            "duration": 0.3157889999999952,
            "durationTicks": 192,
            "midi": 0,
            "name": "C-1",
            "ticks": 83328,
            "time": 137.052426,
            "velocity": 0.3937007874015748
          },
          {
            "duration": 0.3157889999999952,
            "durationTicks": 192,
            "midi": 0,
            "name": "C-1",
            "ticks": 83520,
            "time": 137.368215,
            "velocity": 0.3937007874015748
          },
          {
            "duration": 0.3157889999999952,
            "durationTicks": 192,
            "midi": 0,
            "name": "C-1",
            "ticks": 83520,
            "time": 137.368215,
            "velocity": 0.3937007874015748
          },
          {
            "duration": 0.3157889999999952,
            "durationTicks": 192,
            "midi": 0,
            "name": "C-1",
            "ticks": 83712,
            "time": 137.684004,
            "velocity": 0.3937007874015748
          },
          {
            "duration": 0.31578900000002363,
            "durationTicks": 192,
            "midi": 0,
            "name": "C-1",
            "ticks": 83904,
            "time": 137.99979299999998,
            "velocity": 0.3937007874015748
          },
          {
            "duration": 0.31578900000002363,
            "durationTicks": 192,
            "midi": 0,
            "name": "C-1",
            "ticks": 83904,
            "time": 137.99979299999998,
            "velocity": 0.3937007874015748
          },
          {
            "duration": 0.31578900000002363,
            "durationTicks": 192,
            "midi": 0,
            "name": "C-1",
            "ticks": 83904,
            "time": 137.99979299999998,
            "velocity": 0.3937007874015748
          },
          {
            "duration": 0.3157889999999952,
            "durationTicks": 192,
            "midi": 0,
            "name": "C-1",
            "ticks": 84096,
            "time": 138.315582,
            "velocity": 0.3937007874015748
          },
          {
            "duration": 0.3157889999999952,
            "durationTicks": 192,
            "midi": 0,
            "name": "C-1",
            "ticks": 84288,
            "time": 138.631371,
            "velocity": 0.3937007874015748
          },
          {
            "duration": 0.3157889999999952,
            "durationTicks": 192,
            "midi": 0,
            "name": "C-1",
            "ticks": 84480,
            "time": 138.94716,
            "velocity": 0.3937007874015748
          },
          {
            "duration": 0.3157889999999952,
            "durationTicks": 192,
            "midi": 0,
            "name": "C-1",
            "ticks": 84672,
            "time": 139.262949,
            "velocity": 0.3937007874015748
          },
          {
            "duration": 0.3157889999999952,
            "durationTicks": 192,
            "midi": 0,
            "name": "C-1",
            "ticks": 84864,
            "time": 139.578738,
            "velocity": 0.3937007874015748
          },
          {
            "duration": 0.3157889999999952,
            "durationTicks": 192,
            "midi": 0,
            "name": "C-1",
            "ticks": 84864,
            "time": 139.578738,
            "velocity": 0.3937007874015748
          },
          {
            "duration": 0.31578900000002363,
            "durationTicks": 192,
            "midi": 0,
            "name": "C-1",
            "ticks": 85056,
            "time": 139.89452699999998,
            "velocity": 0.3937007874015748
          },
          {
            "duration": 0.31578900000002363,
            "durationTicks": 192,
            "midi": 0,
            "name": "C-1",
            "ticks": 85056,
            "time": 139.89452699999998,
            "velocity": 0.3937007874015748
          },
          {
            "duration": 0.3157889999999952,
            "durationTicks": 192,
            "midi": 0,
            "name": "C-1",
            "ticks": 85248,
            "time": 140.210316,
            "velocity": 0.3937007874015748
          },
          {
            "duration": 0.3157889999999952,
            "durationTicks": 192,
            "midi": 0,
            "name": "C-1",
            "ticks": 85440,
            "time": 140.526105,
            "velocity": 0.3937007874015748
          },
          {
            "duration": 0.3157889999999952,
            "durationTicks": 192,
            "midi": 0,
            "name": "C-1",
            "ticks": 85440,
            "time": 140.526105,
            "velocity": 0.3937007874015748
          },
          {
            "duration": 0.3157889999999952,
            "durationTicks": 192,
            "midi": 0,
            "name": "C-1",
            "ticks": 85632,
            "time": 140.841894,
            "velocity": 0.3937007874015748
          },
          {
            "duration": 0.3157889999999952,
            "durationTicks": 192,
            "midi": 0,
            "name": "C-1",
            "ticks": 85632,
            "time": 140.841894,
            "velocity": 0.3937007874015748
          },
          {
            "duration": 0.3157889999999952,
            "durationTicks": 192,
            "midi": 0,
            "name": "C-1",
            "ticks": 85824,
            "time": 141.157683,
            "velocity": 0.3937007874015748
          },
          {
            "duration": 0.3157889999999952,
            "durationTicks": 192,
            "midi": 0,
            "name": "C-1",
            "ticks": 86016,
            "time": 141.473472,
            "velocity": 0.3937007874015748
          },
          {
            "duration": 0.31578900000002363,
            "durationTicks": 192,
            "midi": 0,
            "name": "C-1",
            "ticks": 86208,
            "time": 141.78926099999998,
            "velocity": 0.3937007874015748
          },
          {
            "duration": 0.3157889999999952,
            "durationTicks": 192,
            "midi": 0,
            "name": "C-1",
            "ticks": 86400,
            "time": 142.10505,
            "velocity": 0.3937007874015748
          },
          {
            "duration": 0.3157889999999952,
            "durationTicks": 192,
            "midi": 0,
            "name": "C-1",
            "ticks": 86400,
            "time": 142.10505,
            "velocity": 0.3937007874015748
          },
          {
            "duration": 0.3157889999999952,
            "durationTicks": 192,
            "midi": 0,
            "name": "C-1",
            "ticks": 86592,
            "time": 142.420839,
            "velocity": 0.3937007874015748
          },
          {
            "duration": 0.3157889999999952,
            "durationTicks": 192,
            "midi": 0,
            "name": "C-1",
            "ticks": 86592,
            "time": 142.420839,
            "velocity": 0.3937007874015748
          },
          {
            "duration": 0.3157889999999952,
            "durationTicks": 192,
            "midi": 0,
            "name": "C-1",
            "ticks": 86784,
            "time": 142.736628,
            "velocity": 0.3937007874015748
          },
          {
            "duration": 0.3157889999999952,
            "durationTicks": 192,
            "midi": 0,
            "name": "C-1",
            "ticks": 86976,
            "time": 143.052417,
            "velocity": 0.3937007874015748
          },
          {
            "duration": 0.3157889999999952,
            "durationTicks": 192,
            "midi": 0,
            "name": "C-1",
            "ticks": 86976,
            "time": 143.052417,
            "velocity": 0.3937007874015748
          },
          {
            "duration": 0.3157889999999952,
            "durationTicks": 192,
            "midi": 0,
            "name": "C-1",
            "ticks": 87168,
            "time": 143.368206,
            "velocity": 0.3937007874015748
          },
          {
            "duration": 0.3157889999999952,
            "durationTicks": 192,
            "midi": 0,
            "name": "C-1",
            "ticks": 87168,
            "time": 143.368206,
            "velocity": 0.3937007874015748
          },
          {
            "duration": 0.31578900000002363,
            "durationTicks": 192,
            "midi": 0,
            "name": "C-1",
            "ticks": 87360,
            "time": 143.68399499999998,
            "velocity": 0.3937007874015748
          },
          {
            "duration": 0.3157889999999952,
            "durationTicks": 192,
            "midi": 0,
            "name": "C-1",
            "ticks": 87552,
            "time": 143.999784,
            "velocity": 0.3937007874015748
          },
          {
            "duration": 0.3157889999999952,
            "durationTicks": 192,
            "midi": 0,
            "name": "C-1",
            "ticks": 87744,
            "time": 144.315573,
            "velocity": 0.3937007874015748
          },
          {
            "duration": 0.3157889999999952,
            "durationTicks": 192,
            "midi": 0,
            "name": "C-1",
            "ticks": 87936,
            "time": 144.631362,
            "velocity": 0.3937007874015748
          },
          {
            "duration": 0.3157889999999952,
            "durationTicks": 192,
            "midi": 0,
            "name": "C-1",
            "ticks": 87936,
            "time": 144.631362,
            "velocity": 0.3937007874015748
          },
          {
            "duration": 0.3157889999999952,
            "durationTicks": 192,
            "midi": 0,
            "name": "C-1",
            "ticks": 88128,
            "time": 144.947151,
            "velocity": 0.3937007874015748
          },
          {
            "duration": 0.3157889999999952,
            "durationTicks": 192,
            "midi": 0,
            "name": "C-1",
            "ticks": 88128,
            "time": 144.947151,
            "velocity": 0.3937007874015748
          },
          {
            "duration": 0.3157889999999952,
            "durationTicks": 192,
            "midi": 0,
            "name": "C-1",
            "ticks": 88320,
            "time": 145.26294,
            "velocity": 0.3937007874015748
          },
          {
            "duration": 0.31578900000002363,
            "durationTicks": 192,
            "midi": 0,
            "name": "C-1",
            "ticks": 88512,
            "time": 145.57872899999998,
            "velocity": 0.3937007874015748
          },
          {
            "duration": 0.31578900000002363,
            "durationTicks": 192,
            "midi": 0,
            "name": "C-1",
            "ticks": 88512,
            "time": 145.57872899999998,
            "velocity": 0.3937007874015748
          },
          {
            "duration": 0.3157889999999952,
            "durationTicks": 192,
            "midi": 0,
            "name": "C-1",
            "ticks": 88704,
            "time": 145.894518,
            "velocity": 0.3937007874015748
          },
          {
            "duration": 0.3157889999999952,
            "durationTicks": 192,
            "midi": 0,
            "name": "C-1",
            "ticks": 88704,
            "time": 145.894518,
            "velocity": 0.3937007874015748
          },
          {
            "duration": 0.3157889999999952,
            "durationTicks": 192,
            "midi": 0,
            "name": "C-1",
            "ticks": 88896,
            "time": 146.210307,
            "velocity": 0.3937007874015748
          },
          {
            "duration": 0.3157889999999952,
            "durationTicks": 192,
            "midi": 0,
            "name": "C-1",
            "ticks": 89088,
            "time": 146.526096,
            "velocity": 0.3937007874015748
          },
          {
            "duration": 0.3157889999999952,
            "durationTicks": 192,
            "midi": 0,
            "name": "C-1",
            "ticks": 89280,
            "time": 146.841885,
            "velocity": 0.3937007874015748
          },
          {
            "duration": 0.3157889999999952,
            "durationTicks": 192,
            "midi": 0,
            "name": "C-1",
            "ticks": 89472,
            "time": 147.157674,
            "velocity": 0.3937007874015748
          },
          {
            "duration": 0.3157889999999952,
            "durationTicks": 192,
            "midi": 0,
            "name": "C-1",
            "ticks": 89472,
            "time": 147.157674,
            "velocity": 0.3937007874015748
          },
          {
            "duration": 0.31578900000002363,
            "durationTicks": 192,
            "midi": 0,
            "name": "C-1",
            "ticks": 89664,
            "time": 147.47346299999998,
            "velocity": 0.3937007874015748
          },
          {
            "duration": 0.31578900000002363,
            "durationTicks": 192,
            "midi": 0,
            "name": "C-1",
            "ticks": 89664,
            "time": 147.47346299999998,
            "velocity": 0.3937007874015748
          },
          {
            "duration": 0.3157889999999952,
            "durationTicks": 192,
            "midi": 0,
            "name": "C-1",
            "ticks": 89856,
            "time": 147.789252,
            "velocity": 0.3937007874015748
          },
          {
            "duration": 0.3157889999999952,
            "durationTicks": 192,
            "midi": 0,
            "name": "C-1",
            "ticks": 90048,
            "time": 148.105041,
            "velocity": 0.3937007874015748
          },
          {
            "duration": 0.3157889999999952,
            "durationTicks": 192,
            "midi": 0,
            "name": "C-1",
            "ticks": 90048,
            "time": 148.105041,
            "velocity": 0.3937007874015748
          },
          {
            "duration": 0.3157889999999952,
            "durationTicks": 192,
            "midi": 0,
            "name": "C-1",
            "ticks": 90240,
            "time": 148.42083,
            "velocity": 0.3937007874015748
          },
          {
            "duration": 0.3157889999999952,
            "durationTicks": 192,
            "midi": 0,
            "name": "C-1",
            "ticks": 90240,
            "time": 148.42083,
            "velocity": 0.3937007874015748
          },
          {
            "duration": 0.3157889999999952,
            "durationTicks": 192,
            "midi": 0,
            "name": "C-1",
            "ticks": 90432,
            "time": 148.736619,
            "velocity": 0.3937007874015748
          },
          {
            "duration": 0.3157889999999952,
            "durationTicks": 192,
            "midi": 0,
            "name": "C-1",
            "ticks": 90624,
            "time": 149.05240799999999,
            "velocity": 0.3937007874015748
          },
          {
            "duration": 0.31578900000002363,
            "durationTicks": 192,
            "midi": 0,
            "name": "C-1",
            "ticks": 90816,
            "time": 149.36819699999998,
            "velocity": 0.3937007874015748
          },
          {
            "duration": 0.3157889999999952,
            "durationTicks": 192,
            "midi": 0,
            "name": "C-1",
            "ticks": 91008,
            "time": 149.683986,
            "velocity": 0.3937007874015748
          },
          {
            "duration": 0.3157889999999952,
            "durationTicks": 192,
            "midi": 0,
            "name": "C-1",
            "ticks": 91008,
            "time": 149.683986,
            "velocity": 0.3937007874015748
          },
          {
            "duration": 0.3157889999999952,
            "durationTicks": 192,
            "midi": 0,
            "name": "C-1",
            "ticks": 91200,
            "time": 149.999775,
            "velocity": 0.3937007874015748
          },
          {
            "duration": 0.3157889999999952,
            "durationTicks": 192,
            "midi": 0,
            "name": "C-1",
            "ticks": 91200,
            "time": 149.999775,
            "velocity": 0.3937007874015748
          },
          {
            "duration": 0.3157889999999952,
            "durationTicks": 192,
            "midi": 0,
            "name": "C-1",
            "ticks": 91392,
            "time": 150.315564,
            "velocity": 0.3937007874015748
          },
          {
            "duration": 0.3157889999999952,
            "durationTicks": 192,
            "midi": 0,
            "name": "C-1",
            "ticks": 91584,
            "time": 150.631353,
            "velocity": 0.3937007874015748
          },
          {
            "duration": 0.3157889999999952,
            "durationTicks": 192,
            "midi": 0,
            "name": "C-1",
            "ticks": 91584,
            "time": 150.631353,
            "velocity": 0.3937007874015748
          },
          {
            "duration": 0.3157889999999952,
            "durationTicks": 192,
            "midi": 0,
            "name": "C-1",
            "ticks": 91776,
            "time": 150.94714199999999,
            "velocity": 0.3937007874015748
          },
          {
            "duration": 0.3157889999999952,
            "durationTicks": 192,
            "midi": 0,
            "name": "C-1",
            "ticks": 91776,
            "time": 150.94714199999999,
            "velocity": 0.3937007874015748
          },
          {
            "duration": 0.31578900000002363,
            "durationTicks": 192,
            "midi": 0,
            "name": "C-1",
            "ticks": 91968,
            "time": 151.26293099999998,
            "velocity": 0.3937007874015748
          },
          {
            "duration": 0.3157889999999952,
            "durationTicks": 192,
            "midi": 0,
            "name": "C-1",
            "ticks": 92160,
            "time": 151.57872,
            "velocity": 0.3937007874015748
          },
          {
            "duration": 0.3157889999999952,
            "durationTicks": 192,
            "midi": 0,
            "name": "C-1",
            "ticks": 92352,
            "time": 151.894509,
            "velocity": 0.3937007874015748
          },
          {
            "duration": 0.3157889999999952,
            "durationTicks": 192,
            "midi": 0,
            "name": "C-1",
            "ticks": 92544,
            "time": 152.210298,
            "velocity": 0.3937007874015748
          },
          {
            "duration": 0.3157889999999952,
            "durationTicks": 192,
            "midi": 0,
            "name": "C-1",
            "ticks": 92544,
            "time": 152.210298,
            "velocity": 0.3937007874015748
          },
          {
            "duration": 0.3157889999999952,
            "durationTicks": 192,
            "midi": 0,
            "name": "C-1",
            "ticks": 92736,
            "time": 152.526087,
            "velocity": 0.3937007874015748
          },
          {
            "duration": 0.3157889999999952,
            "durationTicks": 192,
            "midi": 0,
            "name": "C-1",
            "ticks": 92736,
            "time": 152.526087,
            "velocity": 0.3937007874015748
          },
          {
            "duration": 0.3157889999999952,
            "durationTicks": 192,
            "midi": 0,
            "name": "C-1",
            "ticks": 92928,
            "time": 152.84187599999998,
            "velocity": 0.3937007874015748
          },
          {
            "duration": 0.31578900000002363,
            "durationTicks": 192,
            "midi": 0,
            "name": "C-1",
            "ticks": 93120,
            "time": 153.15766499999998,
            "velocity": 0.3937007874015748
          },
          {
            "duration": 0.31578900000002363,
            "durationTicks": 192,
            "midi": 0,
            "name": "C-1",
            "ticks": 93120,
            "time": 153.15766499999998,
            "velocity": 0.3937007874015748
          },
          {
            "duration": 0.3157889999999952,
            "durationTicks": 192,
            "midi": 0,
            "name": "C-1",
            "ticks": 93312,
            "time": 153.473454,
            "velocity": 0.3937007874015748
          },
          {
            "duration": 0.3157889999999952,
            "durationTicks": 192,
            "midi": 0,
            "name": "C-1",
            "ticks": 93312,
            "time": 153.473454,
            "velocity": 0.3937007874015748
          },
          {
            "duration": 0.3157889999999952,
            "durationTicks": 192,
            "midi": 0,
            "name": "C-1",
            "ticks": 93504,
            "time": 153.789243,
            "velocity": 0.3937007874015748
          },
          {
            "duration": 0.3157889999999952,
            "durationTicks": 192,
            "midi": 0,
            "name": "C-1",
            "ticks": 93696,
            "time": 154.105032,
            "velocity": 0.3937007874015748
          },
          {
            "duration": 0.3157889999999952,
            "durationTicks": 192,
            "midi": 0,
            "name": "C-1",
            "ticks": 93888,
            "time": 154.420821,
            "velocity": 0.3937007874015748
          },
          {
            "duration": 0.3157889999999952,
            "durationTicks": 192,
            "midi": 0,
            "name": "C-1",
            "ticks": 94080,
            "time": 154.73660999999998,
            "velocity": 0.3937007874015748
          },
          {
            "duration": 0.3157889999999952,
            "durationTicks": 192,
            "midi": 0,
            "name": "C-1",
            "ticks": 94080,
            "time": 154.73660999999998,
            "velocity": 0.3937007874015748
          },
          {
            "duration": 0.31578900000002363,
            "durationTicks": 192,
            "midi": 0,
            "name": "C-1",
            "ticks": 94272,
            "time": 155.05239899999998,
            "velocity": 0.3937007874015748
          },
          {
            "duration": 0.31578900000002363,
            "durationTicks": 192,
            "midi": 0,
            "name": "C-1",
            "ticks": 94272,
            "time": 155.05239899999998,
            "velocity": 0.3937007874015748
          },
          {
            "duration": 0.3157889999999952,
            "durationTicks": 192,
            "midi": 0,
            "name": "C-1",
            "ticks": 94464,
            "time": 155.368188,
            "velocity": 0.3937007874015748
          },
          {
            "duration": 0.3157889999999952,
            "durationTicks": 192,
            "midi": 0,
            "name": "C-1",
            "ticks": 94656,
            "time": 155.683977,
            "velocity": 0.3937007874015748
          },
          {
            "duration": 0.3157889999999952,
            "durationTicks": 192,
            "midi": 0,
            "name": "C-1",
            "ticks": 94656,
            "time": 155.683977,
            "velocity": 0.3937007874015748
          },
          {
            "duration": 0.3157889999999952,
            "durationTicks": 192,
            "midi": 0,
            "name": "C-1",
            "ticks": 94656,
            "time": 155.683977,
            "velocity": 0.3937007874015748
          },
          {
            "duration": 0.3157889999999952,
            "durationTicks": 192,
            "midi": 0,
            "name": "C-1",
            "ticks": 94848,
            "time": 155.999766,
            "velocity": 0.3937007874015748
          },
          {
            "duration": 0.3157889999999952,
            "durationTicks": 192,
            "midi": 0,
            "name": "C-1",
            "ticks": 95040,
            "time": 156.315555,
            "velocity": 0.3937007874015748
          },
          {
            "duration": 0.3157889999999952,
            "durationTicks": 192,
            "midi": 0,
            "name": "C-1",
            "ticks": 95232,
            "time": 156.63134399999998,
            "velocity": 0.3937007874015748
          },
          {
            "duration": 0.31578900000002363,
            "durationTicks": 192,
            "midi": 0,
            "name": "C-1",
            "ticks": 95424,
            "time": 156.94713299999998,
            "velocity": 0.3937007874015748
          },
          {
            "duration": 0.3157889999999952,
            "durationTicks": 192,
            "midi": 0,
            "name": "C-1",
            "ticks": 95616,
            "time": 157.262922,
            "velocity": 0.3937007874015748
          },
          {
            "duration": 0.3157889999999952,
            "durationTicks": 192,
            "midi": 0,
            "name": "C-1",
            "ticks": 95616,
            "time": 157.262922,
            "velocity": 0.3937007874015748
          },
          {
            "duration": 0.3157889999999952,
            "durationTicks": 192,
            "midi": 0,
            "name": "C-1",
            "ticks": 95808,
            "time": 157.578711,
            "velocity": 0.3937007874015748
          },
          {
            "duration": 0.3157889999999952,
            "durationTicks": 192,
            "midi": 0,
            "name": "C-1",
            "ticks": 95808,
            "time": 157.578711,
            "velocity": 0.3937007874015748
          },
          {
            "duration": 0.3157889999999952,
            "durationTicks": 192,
            "midi": 0,
            "name": "C-1",
            "ticks": 96000,
            "time": 157.8945,
            "velocity": 0.3937007874015748
          },
          {
            "duration": 0.3157889999999952,
            "durationTicks": 192,
            "midi": 0,
            "name": "C-1",
            "ticks": 96192,
            "time": 158.210289,
            "velocity": 0.3937007874015748
          },
          {
            "duration": 0.3157889999999952,
            "durationTicks": 192,
            "midi": 0,
            "name": "C-1",
            "ticks": 96192,
            "time": 158.210289,
            "velocity": 0.3937007874015748
          },
          {
            "duration": 0.3157889999999952,
            "durationTicks": 192,
            "midi": 0,
            "name": "C-1",
            "ticks": 96384,
            "time": 158.52607799999998,
            "velocity": 0.3937007874015748
          },
          {
            "duration": 0.3157889999999952,
            "durationTicks": 192,
            "midi": 0,
            "name": "C-1",
            "ticks": 96384,
            "time": 158.52607799999998,
            "velocity": 0.3937007874015748
          },
          {
            "duration": 0.31578900000002363,
            "durationTicks": 192,
            "midi": 0,
            "name": "C-1",
            "ticks": 96576,
            "time": 158.84186699999998,
            "velocity": 0.3937007874015748
          },
          {
            "duration": 0.3157889999999952,
            "durationTicks": 192,
            "midi": 0,
            "name": "C-1",
            "ticks": 96768,
            "time": 159.157656,
            "velocity": 0.3937007874015748
          },
          {
            "duration": 0.3157889999999952,
            "durationTicks": 192,
            "midi": 0,
            "name": "C-1",
            "ticks": 96960,
            "time": 159.473445,
            "velocity": 0.3937007874015748
          },
          {
            "duration": 0.3157889999999952,
            "durationTicks": 192,
            "midi": 0,
            "name": "C-1",
            "ticks": 97152,
            "time": 159.789234,
            "velocity": 0.3937007874015748
          },
          {
            "duration": 0.3157889999999952,
            "durationTicks": 192,
            "midi": 0,
            "name": "C-1",
            "ticks": 97152,
            "time": 159.789234,
            "velocity": 0.3937007874015748
          },
          {
            "duration": 0.3157889999999952,
            "durationTicks": 192,
            "midi": 0,
            "name": "C-1",
            "ticks": 97344,
            "time": 160.105023,
            "velocity": 0.3937007874015748
          },
          {
            "duration": 0.3157889999999952,
            "durationTicks": 192,
            "midi": 0,
            "name": "C-1",
            "ticks": 97344,
            "time": 160.105023,
            "velocity": 0.3937007874015748
          },
          {
            "duration": 0.3157889999999952,
            "durationTicks": 192,
            "midi": 0,
            "name": "C-1",
            "ticks": 97536,
            "time": 160.42081199999998,
            "velocity": 0.3937007874015748
          },
          {
            "duration": 0.31578900000002363,
            "durationTicks": 192,
            "midi": 0,
            "name": "C-1",
            "ticks": 97728,
            "time": 160.73660099999998,
            "velocity": 0.3937007874015748
          },
          {
            "duration": 0.31578900000002363,
            "durationTicks": 192,
            "midi": 0,
            "name": "C-1",
            "ticks": 97728,
            "time": 160.73660099999998,
            "velocity": 0.3937007874015748
          },
          {
            "duration": 0.3157889999999952,
            "durationTicks": 192,
            "midi": 0,
            "name": "C-1",
            "ticks": 97920,
            "time": 161.05239,
            "velocity": 0.3937007874015748
          },
          {
            "duration": 0.3157889999999952,
            "durationTicks": 192,
            "midi": 0,
            "name": "C-1",
            "ticks": 97920,
            "time": 161.05239,
            "velocity": 0.3937007874015748
          },
          {
            "duration": 0.3157889999999952,
            "durationTicks": 192,
            "midi": 0,
            "name": "C-1",
            "ticks": 98112,
            "time": 161.368179,
            "velocity": 0.3937007874015748
          },
          {
            "duration": 0.3157889999999952,
            "durationTicks": 192,
            "midi": 0,
            "name": "C-1",
            "ticks": 98304,
            "time": 161.683968,
            "velocity": 0.3937007874015748
          },
          {
            "duration": 0.3157889999999952,
            "durationTicks": 192,
            "midi": 0,
            "name": "C-1",
            "ticks": 98496,
            "time": 161.999757,
            "velocity": 0.3937007874015748
          },
          {
            "duration": 0.31578900000002363,
            "durationTicks": 192,
            "midi": 0,
            "name": "C-1",
            "ticks": 98688,
            "time": 162.31554599999998,
            "velocity": 0.3937007874015748
          },
          {
            "duration": 0.31578900000002363,
            "durationTicks": 192,
            "midi": 0,
            "name": "C-1",
            "ticks": 98688,
            "time": 162.31554599999998,
            "velocity": 0.3937007874015748
          },
          {
            "duration": 0.3157889999999952,
            "durationTicks": 192,
            "midi": 0,
            "name": "C-1",
            "ticks": 98880,
            "time": 162.631335,
            "velocity": 0.3937007874015748
          },
          {
            "duration": 0.3157889999999952,
            "durationTicks": 192,
            "midi": 0,
            "name": "C-1",
            "ticks": 98880,
            "time": 162.631335,
            "velocity": 0.3937007874015748
          },
          {
            "duration": 0.3157889999999952,
            "durationTicks": 192,
            "midi": 0,
            "name": "C-1",
            "ticks": 99072,
            "time": 162.947124,
            "velocity": 0.3937007874015748
          },
          {
            "duration": 0.3157889999999952,
            "durationTicks": 192,
            "midi": 0,
            "name": "C-1",
            "ticks": 99264,
            "time": 163.262913,
            "velocity": 0.3937007874015748
          },
          {
            "duration": 0.3157889999999952,
            "durationTicks": 192,
            "midi": 0,
            "name": "C-1",
            "ticks": 99264,
            "time": 163.262913,
            "velocity": 0.3937007874015748
          },
          {
            "duration": 0.3157889999999952,
            "durationTicks": 192,
            "midi": 0,
            "name": "C-1",
            "ticks": 99456,
            "time": 163.578702,
            "velocity": 0.3937007874015748
          },
          {
            "duration": 0.3157889999999952,
            "durationTicks": 192,
            "midi": 0,
            "name": "C-1",
            "ticks": 99456,
            "time": 163.578702,
            "velocity": 0.3937007874015748
          },
          {
            "duration": 0.3157889999999952,
            "durationTicks": 192,
            "midi": 0,
            "name": "C-1",
            "ticks": 99648,
            "time": 163.894491,
            "velocity": 0.3937007874015748
          },
          {
            "duration": 0.31578900000002363,
            "durationTicks": 192,
            "midi": 0,
            "name": "C-1",
            "ticks": 99840,
            "time": 164.21027999999998,
            "velocity": 0.3937007874015748
          },
          {
            "duration": 0.3157889999999952,
            "durationTicks": 192,
            "midi": 0,
            "name": "C-1",
            "ticks": 100032,
            "time": 164.526069,
            "velocity": 0.3937007874015748
          },
          {
            "duration": 0.1578944999999976,
            "durationTicks": 96,
            "midi": 0,
            "name": "C-1",
            "ticks": 100224,
            "time": 164.841858,
            "velocity": 0.3937007874015748
          },
          {
            "duration": 0.1578944999999976,
            "durationTicks": 96,
            "midi": 0,
            "name": "C-1",
            "ticks": 100224,
            "time": 164.841858,
            "velocity": 0.3937007874015748
          },
          {
            "duration": 0.1578944999999976,
            "durationTicks": 96,
            "midi": 0,
            "name": "C-1",
            "ticks": 100320,
            "time": 164.9997525,
            "velocity": 0.3937007874015748
          },
          {
            "duration": 0.1578944999999976,
            "durationTicks": 96,
            "midi": 0,
            "name": "C-1",
            "ticks": 100320,
            "time": 164.9997525,
            "velocity": 0.3937007874015748
          },
          {
            "duration": 0.3157889999999952,
            "durationTicks": 192,
            "midi": 0,
            "name": "C-1",
            "ticks": 100416,
            "time": 165.157647,
            "velocity": 0.3937007874015748
          },
          {
            "duration": 0.3157889999999952,
            "durationTicks": 192,
            "midi": 0,
            "name": "C-1",
            "ticks": 100416,
            "time": 165.157647,
            "velocity": 0.3937007874015748
          },
          {
            "duration": 0.1578944999999976,
            "durationTicks": 96,
            "midi": 0,
            "name": "C-1",
            "ticks": 100512,
            "time": 165.3155415,
            "velocity": 0.3937007874015748
          },
          {
            "duration": 0.1578944999999976,
            "durationTicks": 96,
            "midi": 0,
            "name": "C-1",
            "ticks": 100512,
            "time": 165.3155415,
            "velocity": 0.3937007874015748
          },
          {
            "duration": 0.3157889999999952,
            "durationTicks": 192,
            "midi": 0,
            "name": "C-1",
            "ticks": 100608,
            "time": 165.473436,
            "velocity": 0.3937007874015748
          },
          {
            "duration": 0.3157889999999952,
            "durationTicks": 192,
            "midi": 0,
            "name": "C-1",
            "ticks": 100608,
            "time": 165.473436,
            "velocity": 0.3937007874015748
          },
          {
            "duration": 0.3157889999999952,
            "durationTicks": 192,
            "midi": 0,
            "name": "C-1",
            "ticks": 100800,
            "time": 165.789225,
            "velocity": 0.3937007874015748
          },
          {
            "duration": 0.3157889999999952,
            "durationTicks": 192,
            "midi": 0,
            "name": "C-1",
            "ticks": 100800,
            "time": 165.789225,
            "velocity": 0.3937007874015748
          },
          {
            "duration": 0.1578944999999976,
            "durationTicks": 96,
            "midi": 0,
            "name": "C-1",
            "ticks": 100992,
            "time": 166.10501399999998,
            "velocity": 0.3937007874015748
          },
          {
            "duration": 0.1578944999999976,
            "durationTicks": 96,
            "midi": 0,
            "name": "C-1",
            "ticks": 100992,
            "time": 166.10501399999998,
            "velocity": 0.3937007874015748
          },
          {
            "duration": 0.15789450000002603,
            "durationTicks": 96,
            "midi": 0,
            "name": "C-1",
            "ticks": 101088,
            "time": 166.26290849999998,
            "velocity": 0.3937007874015748
          },
          {
            "duration": 0.15789450000002603,
            "durationTicks": 96,
            "midi": 0,
            "name": "C-1",
            "ticks": 101088,
            "time": 166.26290849999998,
            "velocity": 0.3937007874015748
          },
          {
            "duration": 0.1578944999999976,
            "durationTicks": 96,
            "midi": 0,
            "name": "C-1",
            "ticks": 101184,
            "time": 166.420803,
            "velocity": 0.3937007874015748
          },
          {
            "duration": 0.1578944999999976,
            "durationTicks": 96,
            "midi": 0,
            "name": "C-1",
            "ticks": 101184,
            "time": 166.420803,
            "velocity": 0.3937007874015748
          },
          {
            "duration": 0.3157889999999952,
            "durationTicks": 192,
            "midi": 0,
            "name": "C-1",
            "ticks": 101184,
            "time": 166.420803,
            "velocity": 0.3937007874015748
          },
          {
            "duration": 0.1578944999999976,
            "durationTicks": 96,
            "midi": 0,
            "name": "C-1",
            "ticks": 101280,
            "time": 166.5786975,
            "velocity": 0.3937007874015748
          },
          {
            "duration": 0.1578944999999976,
            "durationTicks": 96,
            "midi": 0,
            "name": "C-1",
            "ticks": 101280,
            "time": 166.5786975,
            "velocity": 0.3937007874015748
          },
          {
            "duration": 0.1578944999999976,
            "durationTicks": 96,
            "midi": 0,
            "name": "C-1",
            "ticks": 101376,
            "time": 166.736592,
            "velocity": 0.3937007874015748
          },
          {
            "duration": 0.1578944999999976,
            "durationTicks": 96,
            "midi": 0,
            "name": "C-1",
            "ticks": 101568,
            "time": 167.052381,
            "velocity": 0.3937007874015748
          },
          {
            "duration": 0.1578944999999976,
            "durationTicks": 96,
            "midi": 0,
            "name": "C-1",
            "ticks": 101568,
            "time": 167.052381,
            "velocity": 0.3937007874015748
          },
          {
            "duration": 0.1578944999999976,
            "durationTicks": 96,
            "midi": 0,
            "name": "C-1",
            "ticks": 101568,
            "time": 167.052381,
            "velocity": 0.3937007874015748
          },
          {
            "duration": 0.1578944999999976,
            "durationTicks": 96,
            "midi": 0,
            "name": "C-1",
            "ticks": 101664,
            "time": 167.2102755,
            "velocity": 0.3937007874015748
          },
          {
            "duration": 0.1578944999999976,
            "durationTicks": 96,
            "midi": 0,
            "name": "C-1",
            "ticks": 101856,
            "time": 167.5260645,
            "velocity": 0.3937007874015748
          },
          {
            "duration": 0.1578944999999976,
            "durationTicks": 96,
            "midi": 0,
            "name": "C-1",
            "ticks": 101952,
            "time": 167.683959,
            "velocity": 0.3937007874015748
          },
          {
            "duration": 0.1578944999999976,
            "durationTicks": 96,
            "midi": 0,
            "name": "C-1",
            "ticks": 101952,
            "time": 167.683959,
            "velocity": 0.3937007874015748
          },
          {
            "duration": 0.1578944999999976,
            "durationTicks": 96,
            "midi": 0,
            "name": "C-1",
            "ticks": 101952,
            "time": 167.683959,
            "velocity": 0.3937007874015748
          },
          {
            "duration": 0.1578944999999976,
            "durationTicks": 96,
            "midi": 0,
            "name": "C-1",
            "ticks": 102336,
            "time": 168.315537,
            "velocity": 0.3937007874015748
          },
          {
            "duration": 0.1578944999999976,
            "durationTicks": 96,
            "midi": 0,
            "name": "C-1",
            "ticks": 102336,
            "time": 168.315537,
            "velocity": 0.3937007874015748
          },
          {
            "duration": 0.1578944999999976,
            "durationTicks": 96,
            "midi": 0,
            "name": "C-1",
            "ticks": 102336,
            "time": 168.315537,
            "velocity": 0.3937007874015748
          },
          {
            "duration": 0.1578944999999976,
            "durationTicks": 96,
            "midi": 0,
            "name": "C-1",
            "ticks": 102432,
            "time": 168.4734315,
            "velocity": 0.3937007874015748
          },
          {
            "duration": 0.1578944999999976,
            "durationTicks": 96,
            "midi": 0,
            "name": "C-1",
            "ticks": 102624,
            "time": 168.7892205,
            "velocity": 0.3937007874015748
          },
          {
            "duration": 0.1578944999999976,
            "durationTicks": 96,
            "midi": 0,
            "name": "C-1",
            "ticks": 102720,
            "time": 168.947115,
            "velocity": 0.3937007874015748
          },
          {
            "duration": 0.1578944999999976,
            "durationTicks": 96,
            "midi": 0,
            "name": "C-1",
            "ticks": 102720,
            "time": 168.947115,
            "velocity": 0.3937007874015748
          },
          {
            "duration": 0.1578944999999976,
            "durationTicks": 96,
            "midi": 0,
            "name": "C-1",
            "ticks": 102720,
            "time": 168.947115,
            "velocity": 0.3937007874015748
          },
          {
            "duration": 0.1578944999999976,
            "durationTicks": 96,
            "midi": 0,
            "name": "C-1",
            "ticks": 102912,
            "time": 169.262904,
            "velocity": 0.3937007874015748
          },
          {
            "duration": 0.1578944999999976,
            "durationTicks": 96,
            "midi": 0,
            "name": "C-1",
            "ticks": 103104,
            "time": 169.578693,
            "velocity": 0.3937007874015748
          },
          {
            "duration": 0.1578944999999976,
            "durationTicks": 96,
            "midi": 0,
            "name": "C-1",
            "ticks": 103104,
            "time": 169.578693,
            "velocity": 0.3937007874015748
          },
          {
            "duration": 0.1578944999999976,
            "durationTicks": 96,
            "midi": 0,
            "name": "C-1",
            "ticks": 103104,
            "time": 169.578693,
            "velocity": 0.3937007874015748
          },
          {
            "duration": 0.1578944999999976,
            "durationTicks": 96,
            "midi": 0,
            "name": "C-1",
            "ticks": 103200,
            "time": 169.73658749999998,
            "velocity": 0.3937007874015748
          },
          {
            "duration": 0.15789450000002603,
            "durationTicks": 96,
            "midi": 0,
            "name": "C-1",
            "ticks": 103392,
            "time": 170.05237649999998,
            "velocity": 0.3937007874015748
          },
          {
            "duration": 0.1578944999999976,
            "durationTicks": 96,
            "midi": 0,
            "name": "C-1",
            "ticks": 103488,
            "time": 170.210271,
            "velocity": 0.3937007874015748
          },
          {
            "duration": 0.1578944999999976,
            "durationTicks": 96,
            "midi": 0,
            "name": "C-1",
            "ticks": 103488,
            "time": 170.210271,
            "velocity": 0.3937007874015748
          },
          {
            "duration": 0.1578944999999976,
            "durationTicks": 96,
            "midi": 0,
            "name": "C-1",
            "ticks": 103488,
            "time": 170.210271,
            "velocity": 0.3937007874015748
          },
          {
            "duration": 0.1578944999999976,
            "durationTicks": 96,
            "midi": 0,
            "name": "C-1",
            "ticks": 103872,
            "time": 170.841849,
            "velocity": 0.3937007874015748
          },
          {
            "duration": 0.1578944999999976,
            "durationTicks": 96,
            "midi": 0,
            "name": "C-1",
            "ticks": 103872,
            "time": 170.841849,
            "velocity": 0.3937007874015748
          },
          {
            "duration": 0.1578944999999976,
            "durationTicks": 96,
            "midi": 0,
            "name": "C-1",
            "ticks": 103872,
            "time": 170.841849,
            "velocity": 0.3937007874015748
          },
          {
            "duration": 0.1578944999999976,
            "durationTicks": 96,
            "midi": 0,
            "name": "C-1",
            "ticks": 103968,
            "time": 170.9997435,
            "velocity": 0.3937007874015748
          },
          {
            "duration": 0.1578944999999976,
            "durationTicks": 96,
            "midi": 0,
            "name": "C-1",
            "ticks": 104160,
            "time": 171.3155325,
            "velocity": 0.3937007874015748
          },
          {
            "duration": 0.1578944999999976,
            "durationTicks": 96,
            "midi": 0,
            "name": "C-1",
            "ticks": 104256,
            "time": 171.473427,
            "velocity": 0.3937007874015748
          },
          {
            "duration": 0.1578944999999976,
            "durationTicks": 96,
            "midi": 0,
            "name": "C-1",
            "ticks": 104256,
            "time": 171.473427,
            "velocity": 0.3937007874015748
          },
          {
            "duration": 0.1578944999999976,
            "durationTicks": 96,
            "midi": 0,
            "name": "C-1",
            "ticks": 104256,
            "time": 171.473427,
            "velocity": 0.3937007874015748
          },
          {
            "duration": 0.1578944999999976,
            "durationTicks": 96,
            "midi": 0,
            "name": "C-1",
            "ticks": 104448,
            "time": 171.78921599999998,
            "velocity": 0.3937007874015748
          },
          {
            "duration": 0.1578944999999976,
            "durationTicks": 96,
            "midi": 0,
            "name": "C-1",
            "ticks": 104640,
            "time": 172.105005,
            "velocity": 0.3937007874015748
          },
          {
            "duration": 0.1578944999999976,
            "durationTicks": 96,
            "midi": 0,
            "name": "C-1",
            "ticks": 104640,
            "time": 172.105005,
            "velocity": 0.3937007874015748
          },
          {
            "duration": 0.1578944999999976,
            "durationTicks": 96,
            "midi": 0,
            "name": "C-1",
            "ticks": 104640,
            "time": 172.105005,
            "velocity": 0.3937007874015748
          },
          {
            "duration": 0.1578944999999976,
            "durationTicks": 96,
            "midi": 0,
            "name": "C-1",
            "ticks": 104736,
            "time": 172.2628995,
            "velocity": 0.3937007874015748
          },
          {
            "duration": 0.1578944999999976,
            "durationTicks": 96,
            "midi": 0,
            "name": "C-1",
            "ticks": 104928,
            "time": 172.5786885,
            "velocity": 0.3937007874015748
          },
          {
            "duration": 0.1578944999999976,
            "durationTicks": 96,
            "midi": 0,
            "name": "C-1",
            "ticks": 105024,
            "time": 172.736583,
            "velocity": 0.3937007874015748
          },
          {
            "duration": 0.1578944999999976,
            "durationTicks": 96,
            "midi": 0,
            "name": "C-1",
            "ticks": 105024,
            "time": 172.736583,
            "velocity": 0.3937007874015748
          },
          {
            "duration": 0.1578944999999976,
            "durationTicks": 96,
            "midi": 0,
            "name": "C-1",
            "ticks": 105024,
            "time": 172.736583,
            "velocity": 0.3937007874015748
          },
          {
            "duration": 0.1578944999999976,
            "durationTicks": 96,
            "midi": 0,
            "name": "C-1",
            "ticks": 105408,
            "time": 173.368161,
            "velocity": 0.3937007874015748
          },
          {
            "duration": 0.1578944999999976,
            "durationTicks": 96,
            "midi": 0,
            "name": "C-1",
            "ticks": 105408,
            "time": 173.368161,
            "velocity": 0.3937007874015748
          },
          {
            "duration": 0.1578944999999976,
            "durationTicks": 96,
            "midi": 0,
            "name": "C-1",
            "ticks": 105408,
            "time": 173.368161,
            "velocity": 0.3937007874015748
          },
          {
            "duration": 0.1578944999999976,
            "durationTicks": 96,
            "midi": 0,
            "name": "C-1",
            "ticks": 105504,
            "time": 173.52605549999998,
            "velocity": 0.3937007874015748
          },
          {
            "duration": 0.15789450000002603,
            "durationTicks": 96,
            "midi": 0,
            "name": "C-1",
            "ticks": 105696,
            "time": 173.84184449999998,
            "velocity": 0.3937007874015748
          },
          {
            "duration": 0.1578944999999976,
            "durationTicks": 96,
            "midi": 0,
            "name": "C-1",
            "ticks": 105792,
            "time": 173.999739,
            "velocity": 0.3937007874015748
          },
          {
            "duration": 0.1578944999999976,
            "durationTicks": 96,
            "midi": 0,
            "name": "C-1",
            "ticks": 105792,
            "time": 173.999739,
            "velocity": 0.3937007874015748
          },
          {
            "duration": 0.1578944999999976,
            "durationTicks": 96,
            "midi": 0,
            "name": "C-1",
            "ticks": 105792,
            "time": 173.999739,
            "velocity": 0.3937007874015748
          },
          {
            "duration": 0.1578944999999976,
            "durationTicks": 96,
            "midi": 0,
            "name": "C-1",
            "ticks": 105984,
            "time": 174.315528,
            "velocity": 0.3937007874015748
          },
          {
            "duration": 0.1578944999999976,
            "durationTicks": 96,
            "midi": 0,
            "name": "C-1",
            "ticks": 106176,
            "time": 174.631317,
            "velocity": 0.3937007874015748
          },
          {
            "duration": 0.1578944999999976,
            "durationTicks": 96,
            "midi": 0,
            "name": "C-1",
            "ticks": 106176,
            "time": 174.631317,
            "velocity": 0.3937007874015748
          },
          {
            "duration": 0.1578944999999976,
            "durationTicks": 96,
            "midi": 0,
            "name": "C-1",
            "ticks": 106176,
            "time": 174.631317,
            "velocity": 0.3937007874015748
          },
          {
            "duration": 0.1578944999999976,
            "durationTicks": 96,
            "midi": 0,
            "name": "C-1",
            "ticks": 106272,
            "time": 174.7892115,
            "velocity": 0.3937007874015748
          },
          {
            "duration": 0.1578944999999976,
            "durationTicks": 96,
            "midi": 0,
            "name": "C-1",
            "ticks": 106464,
            "time": 175.1050005,
            "velocity": 0.3937007874015748
          },
          {
            "duration": 0.1578944999999976,
            "durationTicks": 96,
            "midi": 0,
            "name": "C-1",
            "ticks": 106560,
            "time": 175.262895,
            "velocity": 0.3937007874015748
          },
          {
            "duration": 0.1578944999999976,
            "durationTicks": 96,
            "midi": 0,
            "name": "C-1",
            "ticks": 106560,
            "time": 175.262895,
            "velocity": 0.3937007874015748
          },
          {
            "duration": 0.1578944999999976,
            "durationTicks": 96,
            "midi": 0,
            "name": "C-1",
            "ticks": 106560,
            "time": 175.262895,
            "velocity": 0.3937007874015748
          },
          {
            "duration": 0.1578944999999976,
            "durationTicks": 96,
            "midi": 0,
            "name": "C-1",
            "ticks": 106752,
            "time": 175.57868399999998,
            "velocity": 0.3937007874015748
          },
          {
            "duration": 0.07894725000002722,
            "durationTicks": 48,
            "midi": 0,
            "name": "C-1",
            "ticks": 106848,
            "time": 175.73657849999998,
            "velocity": 0.3937007874015748
          },
          {
            "duration": 0.07894725000002722,
            "durationTicks": 48,
            "midi": 0,
            "name": "C-1",
            "ticks": 106848,
            "time": 175.73657849999998,
            "velocity": 0.3937007874015748
          },
          {
            "duration": 0.07894725000002722,
            "durationTicks": 48,
            "midi": 0,
            "name": "C-1",
            "ticks": 106848,
            "time": 175.73657849999998,
            "velocity": 0.3937007874015748
          },
          {
            "duration": 0.0789472499999988,
            "durationTicks": 48,
            "midi": 0,
            "name": "C-1",
            "ticks": 106896,
            "time": 175.81552575,
            "velocity": 0.3937007874015748
          },
          {
            "duration": 0.0789472499999988,
            "durationTicks": 48,
            "midi": 0,
            "name": "C-1",
            "ticks": 106896,
            "time": 175.81552575,
            "velocity": 0.3937007874015748
          },
          {
            "duration": 0.0789472499999988,
            "durationTicks": 48,
            "midi": 0,
            "name": "C-1",
            "ticks": 106896,
            "time": 175.81552575,
            "velocity": 0.3937007874015748
          },
          {
            "duration": 0.1578944999999976,
            "durationTicks": 96,
            "midi": 0,
            "name": "C-1",
            "ticks": 106944,
            "time": 175.894473,
            "velocity": 0.3937007874015748
          },
          {
            "duration": 0.1578944999999976,
            "durationTicks": 96,
            "midi": 0,
            "name": "C-1",
            "ticks": 106944,
            "time": 175.894473,
            "velocity": 0.3937007874015748
          },
          {
            "duration": 0.1578944999999976,
            "durationTicks": 96,
            "midi": 0,
            "name": "C-1",
            "ticks": 106944,
            "time": 175.894473,
            "velocity": 0.3937007874015748
          },
          {
            "duration": 0.1578944999999976,
            "durationTicks": 96,
            "midi": 0,
            "name": "C-1",
            "ticks": 107040,
            "time": 176.0523675,
            "velocity": 0.3937007874015748
          },
          {
            "duration": 0.1578944999999976,
            "durationTicks": 96,
            "midi": 0,
            "name": "C-1",
            "ticks": 107136,
            "time": 176.210262,
            "velocity": 0.3937007874015748
          },
          {
            "duration": 0.1578944999999976,
            "durationTicks": 96,
            "midi": 0,
            "name": "C-1",
            "ticks": 107136,
            "time": 176.210262,
            "velocity": 0.3937007874015748
          },
          {
            "duration": 0.1578944999999976,
            "durationTicks": 96,
            "midi": 0,
            "name": "C-1",
            "ticks": 107136,
            "time": 176.210262,
            "velocity": 0.3937007874015748
          },
          {
            "duration": 0.1578944999999976,
            "durationTicks": 96,
            "midi": 0,
            "name": "C-1",
            "ticks": 107232,
            "time": 176.3681565,
            "velocity": 0.3937007874015748
          },
          {
            "duration": 0.1578944999999976,
            "durationTicks": 96,
            "midi": 0,
            "name": "C-1",
            "ticks": 107328,
            "time": 176.526051,
            "velocity": 0.3937007874015748
          },
          {
            "duration": 0.1578944999999976,
            "durationTicks": 96,
            "midi": 0,
            "name": "C-1",
            "ticks": 107328,
            "time": 176.526051,
            "velocity": 0.3937007874015748
          },
          {
            "duration": 0.1578944999999976,
            "durationTicks": 96,
            "midi": 0,
            "name": "C-1",
            "ticks": 107328,
            "time": 176.526051,
            "velocity": 0.3937007874015748
          }
        ],
        "endOfTrackTicks": 107424
      },
      {
        "channel": 6,
        "controlChanges": {},
        "pitchBends": [],
        "instrument": {
          "family": "piano",
          "number": 0,
          "name": "acoustic grand piano"
        },
        "name": "Electric Piano",
        "notes": [
          {
            "duration": 2.210522999999995,
            "durationTicks": 1344,
            "midi": 85,
            "name": "C#6",
            "ticks": 76800,
            "time": 126.31559999999999,
            "velocity": 0.7874015748031497
          },
          {
            "duration": 2.210522999999995,
            "durationTicks": 1344,
            "midi": 73,
            "name": "C#5",
            "ticks": 76800,
            "time": 126.31559999999999,
            "velocity": 0.7874015748031497
          },
          {
            "duration": 0.31578900000002363,
            "durationTicks": 192,
            "midi": 76,
            "name": "E5",
            "ticks": 78144,
            "time": 128.52612299999998,
            "velocity": 0.7874015748031497
          },
          {
            "duration": 0.31578900000002363,
            "durationTicks": 192,
            "midi": 88,
            "name": "E6",
            "ticks": 78144,
            "time": 128.52612299999998,
            "velocity": 0.7874015748031497
          },
          {
            "duration": 1.8947339999999997,
            "durationTicks": 1152,
            "midi": 87,
            "name": "D#6",
            "ticks": 78336,
            "time": 128.841912,
            "velocity": 0.7874015748031497
          },
          {
            "duration": 1.8947339999999997,
            "durationTicks": 1152,
            "midi": 75,
            "name": "D#5",
            "ticks": 78336,
            "time": 128.841912,
            "velocity": 0.7874015748031497
          },
          {
            "duration": 0.3157889999999952,
            "durationTicks": 192,
            "midi": 68,
            "name": "G#4",
            "ticks": 79488,
            "time": 130.736646,
            "velocity": 0.7874015748031497
          },
          {
            "duration": 0.3157889999999952,
            "durationTicks": 192,
            "midi": 80,
            "name": "G#5",
            "ticks": 79488,
            "time": 130.736646,
            "velocity": 0.7874015748031497
          },
          {
            "duration": 0.3157889999999952,
            "durationTicks": 192,
            "midi": 83,
            "name": "B5",
            "ticks": 79680,
            "time": 131.052435,
            "velocity": 0.7874015748031497
          },
          {
            "duration": 0.3157889999999952,
            "durationTicks": 192,
            "midi": 71,
            "name": "B4",
            "ticks": 79680,
            "time": 131.052435,
            "velocity": 0.7874015748031497
          },
          {
            "duration": 1.5789450000000045,
            "durationTicks": 960,
            "midi": 73,
            "name": "C#5",
            "ticks": 79872,
            "time": 131.368224,
            "velocity": 0.7874015748031497
          },
          {
            "duration": 1.5789450000000045,
            "durationTicks": 960,
            "midi": 85,
            "name": "C#6",
            "ticks": 79872,
            "time": 131.368224,
            "velocity": 0.7874015748031497
          },
          {
            "duration": 0.3157889999999952,
            "durationTicks": 192,
            "midi": 80,
            "name": "G#5",
            "ticks": 80832,
            "time": 132.947169,
            "velocity": 0.7874015748031497
          },
          {
            "duration": 0.3157889999999952,
            "durationTicks": 192,
            "midi": 68,
            "name": "G#4",
            "ticks": 80832,
            "time": 132.947169,
            "velocity": 0.7874015748031497
          },
          {
            "duration": 0.3157889999999952,
            "durationTicks": 192,
            "midi": 73,
            "name": "C#5",
            "ticks": 81024,
            "time": 133.262958,
            "velocity": 0.7874015748031497
          },
          {
            "duration": 0.3157889999999952,
            "durationTicks": 192,
            "midi": 85,
            "name": "C#6",
            "ticks": 81024,
            "time": 133.262958,
            "velocity": 0.7874015748031497
          },
          {
            "duration": 0.3157889999999952,
            "durationTicks": 192,
            "midi": 92,
            "name": "G#6",
            "ticks": 81216,
            "time": 133.578747,
            "velocity": 0.7874015748031497
          },
          {
            "duration": 0.3157889999999952,
            "durationTicks": 192,
            "midi": 80,
            "name": "G#5",
            "ticks": 81216,
            "time": 133.578747,
            "velocity": 0.7874015748031497
          },
          {
            "duration": 1.8947339999999997,
            "durationTicks": 1152,
            "midi": 90,
            "name": "F#6",
            "ticks": 81408,
            "time": 133.894536,
            "velocity": 0.7874015748031497
          },
          {
            "duration": 1.8947339999999997,
            "durationTicks": 1152,
            "midi": 78,
            "name": "F#5",
            "ticks": 81408,
            "time": 133.894536,
            "velocity": 0.7874015748031497
          },
          {
            "duration": 0.6315780000000188,
            "durationTicks": 384,
            "midi": 92,
            "name": "G#6",
            "ticks": 82560,
            "time": 135.78927,
            "velocity": 0.7874015748031497
          },
          {
            "duration": 0.6315780000000188,
            "durationTicks": 384,
            "midi": 80,
            "name": "G#5",
            "ticks": 82560,
            "time": 135.78927,
            "velocity": 0.7874015748031497
          },
          {
            "duration": 1.578944999999976,
            "durationTicks": 960,
            "midi": 88,
            "name": "E6",
            "ticks": 82944,
            "time": 136.420848,
            "velocity": 0.7874015748031497
          },
          {
            "duration": 1.578944999999976,
            "durationTicks": 960,
            "midi": 76,
            "name": "E5",
            "ticks": 82944,
            "time": 136.420848,
            "velocity": 0.7874015748031497
          },
          {
            "duration": 0.31578900000002363,
            "durationTicks": 192,
            "midi": 73,
            "name": "C#5",
            "ticks": 83904,
            "time": 137.99979299999998,
            "velocity": 0.7874015748031497
          },
          {
            "duration": 0.31578900000002363,
            "durationTicks": 192,
            "midi": 85,
            "name": "C#6",
            "ticks": 83904,
            "time": 137.99979299999998,
            "velocity": 0.7874015748031497
          },
          {
            "duration": 0.3157889999999952,
            "durationTicks": 192,
            "midi": 87,
            "name": "D#6",
            "ticks": 84096,
            "time": 138.315582,
            "velocity": 0.7874015748031497
          },
          {
            "duration": 0.3157889999999952,
            "durationTicks": 192,
            "midi": 75,
            "name": "D#5",
            "ticks": 84096,
            "time": 138.315582,
            "velocity": 0.7874015748031497
          },
          {
            "duration": 0.3157889999999952,
            "durationTicks": 192,
            "midi": 76,
            "name": "E5",
            "ticks": 84288,
            "time": 138.631371,
            "velocity": 0.7874015748031497
          },
          {
            "duration": 0.3157889999999952,
            "durationTicks": 192,
            "midi": 88,
            "name": "E6",
            "ticks": 84288,
            "time": 138.631371,
            "velocity": 0.7874015748031497
          },
          {
            "duration": 0.9473669999999856,
            "durationTicks": 576,
            "midi": 76,
            "name": "E5",
            "ticks": 84480,
            "time": 138.94716,
            "velocity": 0.7874015748031497
          },
          {
            "duration": 0.9473669999999856,
            "durationTicks": 576,
            "midi": 88,
            "name": "E6",
            "ticks": 84480,
            "time": 138.94716,
            "velocity": 0.7874015748031497
          },
          {
            "duration": 0.31578900000002363,
            "durationTicks": 192,
            "midi": 87,
            "name": "D#6",
            "ticks": 85056,
            "time": 139.89452699999998,
            "velocity": 0.7874015748031497
          },
          {
            "duration": 0.31578900000002363,
            "durationTicks": 192,
            "midi": 75,
            "name": "D#5",
            "ticks": 85056,
            "time": 139.89452699999998,
            "velocity": 0.7874015748031497
          },
          {
            "duration": 0.6315779999999904,
            "durationTicks": 384,
            "midi": 87,
            "name": "D#6",
            "ticks": 85248,
            "time": 140.210316,
            "velocity": 0.7874015748031497
          },
          {
            "duration": 0.6315779999999904,
            "durationTicks": 384,
            "midi": 75,
            "name": "D#5",
            "ticks": 85248,
            "time": 140.210316,
            "velocity": 0.7874015748031497
          },
          {
            "duration": 0.6315779999999904,
            "durationTicks": 384,
            "midi": 73,
            "name": "C#5",
            "ticks": 85632,
            "time": 140.841894,
            "velocity": 0.7874015748031497
          },
          {
            "duration": 0.6315779999999904,
            "durationTicks": 384,
            "midi": 85,
            "name": "C#6",
            "ticks": 85632,
            "time": 140.841894,
            "velocity": 0.7874015748031497
          },
          {
            "duration": 1.2631560000000093,
            "durationTicks": 768,
            "midi": 85,
            "name": "C#6",
            "ticks": 86016,
            "time": 141.473472,
            "velocity": 0.7874015748031497
          },
          {
            "duration": 1.2631560000000093,
            "durationTicks": 768,
            "midi": 73,
            "name": "C#5",
            "ticks": 86016,
            "time": 141.473472,
            "velocity": 0.7874015748031497
          },
          {
            "duration": 0.6315779999999904,
            "durationTicks": 384,
            "midi": 80,
            "name": "G#5",
            "ticks": 86784,
            "time": 142.736628,
            "velocity": 0.7874015748031497
          },
          {
            "duration": 0.6315779999999904,
            "durationTicks": 384,
            "midi": 92,
            "name": "G#6",
            "ticks": 86784,
            "time": 142.736628,
            "velocity": 0.7874015748031497
          },
          {
            "duration": 0.6315780000000188,
            "durationTicks": 384,
            "midi": 73,
            "name": "C#5",
            "ticks": 87168,
            "time": 143.368206,
            "velocity": 0.7874015748031497
          },
          {
            "duration": 0.6315780000000188,
            "durationTicks": 384,
            "midi": 85,
            "name": "C#6",
            "ticks": 87168,
            "time": 143.368206,
            "velocity": 0.7874015748031497
          },
          {
            "duration": 2.52631199999999,
            "durationTicks": 1536,
            "midi": 78,
            "name": "F#5",
            "ticks": 87552,
            "time": 143.999784,
            "velocity": 0.7874015748031497
          },
          {
            "duration": 2.52631199999999,
            "durationTicks": 1536,
            "midi": 90,
            "name": "F#6",
            "ticks": 87552,
            "time": 143.999784,
            "velocity": 0.7874015748031497
          },
          {
            "duration": 2.210522999999995,
            "durationTicks": 1344,
            "midi": 85,
            "name": "C#6",
            "ticks": 89088,
            "time": 146.526096,
            "velocity": 0.7874015748031497
          },
          {
            "duration": 2.210522999999995,
            "durationTicks": 1344,
            "midi": 73,
            "name": "C#5",
            "ticks": 89088,
            "time": 146.526096,
            "velocity": 0.7874015748031497
          },
          {
            "duration": 0.3157889999999952,
            "durationTicks": 192,
            "midi": 76,
            "name": "E5",
            "ticks": 90432,
            "time": 148.736619,
            "velocity": 0.7874015748031497
          },
          {
            "duration": 0.3157889999999952,
            "durationTicks": 192,
            "midi": 88,
            "name": "E6",
            "ticks": 90432,
            "time": 148.736619,
            "velocity": 0.7874015748031497
          },
          {
            "duration": 1.8947339999999997,
            "durationTicks": 1152,
            "midi": 87,
            "name": "D#6",
            "ticks": 90624,
            "time": 149.05240799999999,
            "velocity": 0.7874015748031497
          },
          {
            "duration": 0.3157889999999952,
            "durationTicks": 192,
            "midi": 80,
            "name": "G#5",
            "ticks": 91776,
            "time": 150.94714199999999,
            "velocity": 0.7874015748031497
          },
          {
            "duration": 0.31578900000002363,
            "durationTicks": 192,
            "midi": 83,
            "name": "B5",
            "ticks": 91968,
            "time": 151.26293099999998,
            "velocity": 0.7874015748031497
          },
          {
            "duration": 1.578944999999976,
            "durationTicks": 960,
            "midi": 73,
            "name": "C#5",
            "ticks": 92160,
            "time": 151.57872,
            "velocity": 0.7874015748031497
          },
          {
            "duration": 1.578944999999976,
            "durationTicks": 960,
            "midi": 73,
            "name": "C#5",
            "ticks": 92160,
            "time": 151.57872,
            "velocity": 0.7874015748031497
          },
          {
            "duration": 1.578944999999976,
            "durationTicks": 960,
            "midi": 85,
            "name": "C#6",
            "ticks": 92160,
            "time": 151.57872,
            "velocity": 0.7874015748031497
          },
          {
            "duration": 0.31578900000002363,
            "durationTicks": 192,
            "midi": 68,
            "name": "G#4",
            "ticks": 93120,
            "time": 153.15766499999998,
            "velocity": 0.7874015748031497
          },
          {
            "duration": 0.31578900000002363,
            "durationTicks": 192,
            "midi": 80,
            "name": "G#5",
            "ticks": 93120,
            "time": 153.15766499999998,
            "velocity": 0.7874015748031497
          },
          {
            "duration": 0.3157889999999952,
            "durationTicks": 192,
            "midi": 73,
            "name": "C#5",
            "ticks": 93312,
            "time": 153.473454,
            "velocity": 0.7874015748031497
          },
          {
            "duration": 0.3157889999999952,
            "durationTicks": 192,
            "midi": 85,
            "name": "C#6",
            "ticks": 93312,
            "time": 153.473454,
            "velocity": 0.7874015748031497
          },
          {
            "duration": 0.3157889999999952,
            "durationTicks": 192,
            "midi": 73,
            "name": "C#5",
            "ticks": 93312,
            "time": 153.473454,
            "velocity": 0.7874015748031497
          },
          {
            "duration": 0.3157889999999952,
            "durationTicks": 192,
            "midi": 92,
            "name": "G#6",
            "ticks": 93504,
            "time": 153.789243,
            "velocity": 0.7874015748031497
          },
          {
            "duration": 0.3157889999999952,
            "durationTicks": 192,
            "midi": 80,
            "name": "G#5",
            "ticks": 93504,
            "time": 153.789243,
            "velocity": 0.7874015748031497
          },
          {
            "duration": 1.8947339999999997,
            "durationTicks": 1152,
            "midi": 90,
            "name": "F#6",
            "ticks": 93696,
            "time": 154.105032,
            "velocity": 0.7874015748031497
          },
          {
            "duration": 1.8947339999999997,
            "durationTicks": 1152,
            "midi": 78,
            "name": "F#5",
            "ticks": 93696,
            "time": 154.105032,
            "velocity": 0.7874015748031497
          },
          {
            "duration": 0.6315779999999904,
            "durationTicks": 384,
            "midi": 80,
            "name": "G#5",
            "ticks": 94848,
            "time": 155.999766,
            "velocity": 0.7874015748031497
          },
          {
            "duration": 0.6315779999999904,
            "durationTicks": 384,
            "midi": 92,
            "name": "G#6",
            "ticks": 94848,
            "time": 155.999766,
            "velocity": 0.7874015748031497
          },
          {
            "duration": 1.2631560000000093,
            "durationTicks": 768,
            "midi": 85,
            "name": "C#6",
            "ticks": 95232,
            "time": 156.63134399999998,
            "velocity": 0.7874015748031497
          },
          {
            "duration": 0.3157889999999952,
            "durationTicks": 192,
            "midi": 83,
            "name": "B5",
            "ticks": 96000,
            "time": 157.8945,
            "velocity": 0.7874015748031497
          },
          {
            "duration": 0.3157889999999952,
            "durationTicks": 192,
            "midi": 71,
            "name": "B4",
            "ticks": 96000,
            "time": 157.8945,
            "velocity": 0.7874015748031497
          },
          {
            "duration": 0.3157889999999952,
            "durationTicks": 192,
            "midi": 73,
            "name": "C#5",
            "ticks": 96192,
            "time": 158.210289,
            "velocity": 0.7874015748031497
          },
          {
            "duration": 0.3157889999999952,
            "durationTicks": 192,
            "midi": 73,
            "name": "C#5",
            "ticks": 96192,
            "time": 158.210289,
            "velocity": 0.7874015748031497
          },
          {
            "duration": 0.3157889999999952,
            "durationTicks": 192,
            "midi": 85,
            "name": "C#6",
            "ticks": 96192,
            "time": 158.210289,
            "velocity": 0.7874015748031497
          },
          {
            "duration": 0.3157889999999952,
            "durationTicks": 192,
            "midi": 88,
            "name": "E6",
            "ticks": 96384,
            "time": 158.52607799999998,
            "velocity": 0.7874015748031497
          },
          {
            "duration": 0.3157889999999952,
            "durationTicks": 192,
            "midi": 76,
            "name": "E5",
            "ticks": 96384,
            "time": 158.52607799999998,
            "velocity": 0.7874015748031497
          },
          {
            "duration": 0.31578900000002363,
            "durationTicks": 192,
            "midi": 80,
            "name": "G#5",
            "ticks": 96576,
            "time": 158.84186699999998,
            "velocity": 0.7874015748031497
          },
          {
            "duration": 0.31578900000002363,
            "durationTicks": 192,
            "midi": 92,
            "name": "G#6",
            "ticks": 96576,
            "time": 158.84186699999998,
            "velocity": 0.7874015748031497
          },
          {
            "duration": 1.2631559999999808,
            "durationTicks": 768,
            "midi": 78,
            "name": "F#5",
            "ticks": 96768,
            "time": 159.157656,
            "velocity": 0.7874015748031497
          },
          {
            "duration": 1.2631559999999808,
            "durationTicks": 768,
            "midi": 90,
            "name": "F#6",
            "ticks": 96768,
            "time": 159.157656,
            "velocity": 0.7874015748031497
          },
          {
            "duration": 0.3157889999999952,
            "durationTicks": 192,
            "midi": 75,
            "name": "D#5",
            "ticks": 97344,
            "time": 160.105023,
            "velocity": 0.7874015748031497
          },
          {
            "duration": 0.6315780000000188,
            "durationTicks": 384,
            "midi": 75,
            "name": "D#5",
            "ticks": 97536,
            "time": 160.42081199999998,
            "velocity": 0.7874015748031497
          },
          {
            "duration": 0.6315780000000188,
            "durationTicks": 384,
            "midi": 90,
            "name": "F#6",
            "ticks": 97536,
            "time": 160.42081199999998,
            "velocity": 0.7874015748031497
          },
          {
            "duration": 0.6315780000000188,
            "durationTicks": 384,
            "midi": 78,
            "name": "F#5",
            "ticks": 97536,
            "time": 160.42081199999998,
            "velocity": 0.7874015748031497
          },
          {
            "duration": 0.6315779999999904,
            "durationTicks": 384,
            "midi": 83,
            "name": "B5",
            "ticks": 97920,
            "time": 161.05239,
            "velocity": 0.7874015748031497
          },
          {
            "duration": 0.6315779999999904,
            "durationTicks": 384,
            "midi": 73,
            "name": "C#5",
            "ticks": 97920,
            "time": 161.05239,
            "velocity": 0.7874015748031497
          },
          {
            "duration": 0.6315779999999904,
            "durationTicks": 384,
            "midi": 71,
            "name": "B4",
            "ticks": 97920,
            "time": 161.05239,
            "velocity": 0.7874015748031497
          },
          {
            "duration": 1.2631560000000093,
            "durationTicks": 768,
            "midi": 92,
            "name": "G#6",
            "ticks": 98304,
            "time": 161.683968,
            "velocity": 0.7874015748031497
          },
          {
            "duration": 1.2631560000000093,
            "durationTicks": 768,
            "midi": 80,
            "name": "G#5",
            "ticks": 98304,
            "time": 161.683968,
            "velocity": 0.7874015748031497
          },
          {
            "duration": 1.2631560000000093,
            "durationTicks": 768,
            "midi": 73,
            "name": "C#5",
            "ticks": 98304,
            "time": 161.683968,
            "velocity": 0.7874015748031497
          },
          {
            "duration": 0.3157889999999952,
            "durationTicks": 192,
            "midi": 88,
            "name": "E6",
            "ticks": 99072,
            "time": 162.947124,
            "velocity": 0.7874015748031497
          },
          {
            "duration": 0.3157889999999952,
            "durationTicks": 192,
            "midi": 76,
            "name": "E5",
            "ticks": 99072,
            "time": 162.947124,
            "velocity": 0.7874015748031497
          },
          {
            "duration": 0.3157889999999952,
            "durationTicks": 192,
            "midi": 73,
            "name": "C#5",
            "ticks": 99264,
            "time": 163.262913,
            "velocity": 0.7874015748031497
          },
          {
            "duration": 0.3157889999999952,
            "durationTicks": 192,
            "midi": 85,
            "name": "C#6",
            "ticks": 99264,
            "time": 163.262913,
            "velocity": 0.7874015748031497
          },
          {
            "duration": 0.6315779999999904,
            "durationTicks": 384,
            "midi": 73,
            "name": "C#5",
            "ticks": 99456,
            "time": 163.578702,
            "velocity": 0.7874015748031497
          },
          {
            "duration": 0.3157889999999952,
            "durationTicks": 192,
            "midi": 76,
            "name": "E5",
            "ticks": 99456,
            "time": 163.578702,
            "velocity": 0.7874015748031497
          },
          {
            "duration": 0.3157889999999952,
            "durationTicks": 192,
            "midi": 88,
            "name": "E6",
            "ticks": 99456,
            "time": 163.578702,
            "velocity": 0.7874015748031497
          },
          {
            "duration": 0.3157889999999952,
            "durationTicks": 192,
            "midi": 80,
            "name": "G#5",
            "ticks": 99648,
            "time": 163.894491,
            "velocity": 0.7874015748031497
          },
          {
            "duration": 0.3157889999999952,
            "durationTicks": 192,
            "midi": 92,
            "name": "G#6",
            "ticks": 99648,
            "time": 163.894491,
            "velocity": 0.7874015748031497
          },
          {
            "duration": 1.2631560000000093,
            "durationTicks": 768,
            "midi": 90,
            "name": "F#6",
            "ticks": 99840,
            "time": 164.21027999999998,
            "velocity": 0.7874015748031497
          },
          {
            "duration": 1.2631560000000093,
            "durationTicks": 768,
            "midi": 78,
            "name": "F#5",
            "ticks": 99840,
            "time": 164.21027999999998,
            "velocity": 0.7874015748031497
          },
          {
            "duration": 0.6315779999999904,
            "durationTicks": 384,
            "midi": 87,
            "name": "D#6",
            "ticks": 100608,
            "time": 165.473436,
            "velocity": 0.7874015748031497
          },
          {
            "duration": 0.6315779999999904,
            "durationTicks": 384,
            "midi": 75,
            "name": "D#5",
            "ticks": 100608,
            "time": 165.473436,
            "velocity": 0.7874015748031497
          },
          {
            "duration": 0.6315780000000188,
            "durationTicks": 384,
            "midi": 83,
            "name": "B5",
            "ticks": 100992,
            "time": 166.10501399999998,
            "velocity": 0.7874015748031497
          },
          {
            "duration": 0.6315780000000188,
            "durationTicks": 384,
            "midi": 71,
            "name": "B4",
            "ticks": 100992,
            "time": 166.10501399999998,
            "velocity": 0.7874015748031497
          },
          {
            "duration": 1.8947339999999997,
            "durationTicks": 1152,
            "midi": 85,
            "name": "C#6",
            "ticks": 101376,
            "time": 166.736592,
            "velocity": 0.7874015748031497
          },
          {
            "duration": 1.8947339999999997,
            "durationTicks": 1152,
            "midi": 73,
            "name": "C#5",
            "ticks": 101376,
            "time": 166.736592,
            "velocity": 0.7874015748031497
          }
        ],
        "endOfTrackTicks": 102528
      },
      {
        "channel": 7,
        "controlChanges": {},
        "pitchBends": [],
        "instrument": {
          "family": "strings",
          "number": 42,
          "name": "cello"
        },
        "name": "Cello (Sustain)",
        "notes": [
          {
            "duration": 5.052624,
            "durationTicks": 3072,
            "midi": 37,
            "name": "C#2",
            "ticks": 0,
            "time": 0,
            "velocity": 0.3937007874015748
          },
          {
            "duration": 5.052624,
            "durationTicks": 3072,
            "midi": 37,
            "name": "C#2",
            "ticks": 3072,
            "time": 5.052624,
            "velocity": 0.3937007874015748
          },
          {
            "duration": 5.052624,
            "durationTicks": 3072,
            "midi": 37,
            "name": "C#2",
            "ticks": 6144,
            "time": 10.105248,
            "velocity": 0.3937007874015748
          },
          {
            "duration": 2.526311999999999,
            "durationTicks": 1536,
            "midi": 38,
            "name": "D2",
            "ticks": 9216,
            "time": 15.157872,
            "velocity": 0.3937007874015748
          },
          {
            "duration": 2.526312000000001,
            "durationTicks": 1536,
            "midi": 37,
            "name": "C#2",
            "ticks": 10752,
            "time": 17.684184,
            "velocity": 0.3937007874015748
          },
          {
            "duration": 2.526312000000001,
            "durationTicks": 1536,
            "midi": 42,
            "name": "F#2",
            "ticks": 12288,
            "time": 20.210496,
            "velocity": 0.3937007874015748
          },
          {
            "duration": 2.526312000000001,
            "durationTicks": 1536,
            "midi": 40,
            "name": "E2",
            "ticks": 13824,
            "time": 22.736808,
            "velocity": 0.3937007874015748
          },
          {
            "duration": 1.2631559999999986,
            "durationTicks": 768,
            "midi": 33,
            "name": "A1",
            "ticks": 15360,
            "time": 25.26312,
            "velocity": 0.3937007874015748
          },
          {
            "duration": 1.2631559999999986,
            "durationTicks": 768,
            "midi": 35,
            "name": "B1",
            "ticks": 16128,
            "time": 26.526276,
            "velocity": 0.3937007874015748
          },
          {
            "duration": 2.526312000000001,
            "durationTicks": 1536,
            "midi": 37,
            "name": "C#2",
            "ticks": 16896,
            "time": 27.789431999999998,
            "velocity": 0.3937007874015748
          },
          {
            "duration": 2.526312000000001,
            "durationTicks": 1536,
            "midi": 35,
            "name": "B1",
            "ticks": 18432,
            "time": 30.315744,
            "velocity": 0.3937007874015748
          },
          {
            "duration": 2.5263119999999972,
            "durationTicks": 1536,
            "midi": 30,
            "name": "F#1",
            "ticks": 19968,
            "time": 32.842056,
            "velocity": 0.3937007874015748
          },
          {
            "duration": 1.2631560000000022,
            "durationTicks": 768,
            "midi": 33,
            "name": "A1",
            "ticks": 21504,
            "time": 35.368368,
            "velocity": 0.3937007874015748
          },
          {
            "duration": 1.2631560000000022,
            "durationTicks": 768,
            "midi": 35,
            "name": "B1",
            "ticks": 22272,
            "time": 36.631524,
            "velocity": 0.3937007874015748
          },
          {
            "duration": 1.263155999999995,
            "durationTicks": 768,
            "midi": 37,
            "name": "C#2",
            "ticks": 23040,
            "time": 37.89468,
            "velocity": 0.3937007874015748
          },
          {
            "duration": 0.6315780000000046,
            "durationTicks": 384,
            "midi": 37,
            "name": "C#2",
            "ticks": 23808,
            "time": 39.157835999999996,
            "velocity": 0.3937007874015748
          },
          {
            "duration": 0.6315779999999975,
            "durationTicks": 384,
            "midi": 35,
            "name": "B1",
            "ticks": 24192,
            "time": 39.789414,
            "velocity": 0.3937007874015748
          },
          {
            "duration": 1.2631560000000022,
            "durationTicks": 768,
            "midi": 34,
            "name": "A#1",
            "ticks": 24576,
            "time": 40.420992,
            "velocity": 0.3937007874015748
          },
          {
            "duration": 1.263155999999995,
            "durationTicks": 768,
            "midi": 30,
            "name": "F#1",
            "ticks": 25344,
            "time": 41.684148,
            "velocity": 0.3937007874015748
          },
          {
            "duration": 1.2631560000000022,
            "durationTicks": 768,
            "midi": 33,
            "name": "A1",
            "ticks": 26112,
            "time": 42.947303999999995,
            "velocity": 0.3937007874015748
          },
          {
            "duration": 0.6315779999999975,
            "durationTicks": 384,
            "midi": 32,
            "name": "G#1",
            "ticks": 26880,
            "time": 44.21046,
            "velocity": 0.3937007874015748
          },
          {
            "duration": 0.6315780000000046,
            "durationTicks": 384,
            "midi": 35,
            "name": "B1",
            "ticks": 27264,
            "time": 44.842037999999995,
            "velocity": 0.3937007874015748
          },
          {
            "duration": 1.263155999999995,
            "durationTicks": 768,
            "midi": 37,
            "name": "C#2",
            "ticks": 27648,
            "time": 45.473616,
            "velocity": 0.3937007874015748
          }
        ],
        "endOfTrackTicks": 28416
      },
      {
        "channel": 8,
        "controlChanges": {},
        "pitchBends": [],
        "instrument": {
          "family": "strings",
          "number": 40,
          "name": "violin"
        },
        "name": "Violin (Sustain)",
        "notes": [
          {
            "duration": 1.1052615000000001,
            "durationTicks": 672,
            "midi": 73,
            "name": "C#5",
            "ticks": 3072,
            "time": 5.052624,
            "velocity": 0.15748031496062992
          },
          {
            "duration": 1.1052615000000001,
            "durationTicks": 672,
            "midi": 64,
            "name": "E4",
            "ticks": 3072,
            "time": 5.052624,
            "velocity": 0.15748031496062992
          },
          {
            "duration": 1.1052614999999992,
            "durationTicks": 672,
            "midi": 71,
            "name": "B4",
            "ticks": 3840,
            "time": 6.31578,
            "velocity": 0.15748031496062992
          },
          {
            "duration": 1.1052614999999992,
            "durationTicks": 672,
            "midi": 63,
            "name": "D#4",
            "ticks": 3840,
            "time": 6.31578,
            "velocity": 0.15748031496062992
          },
          {
            "duration": 1.1052614999999992,
            "durationTicks": 672,
            "midi": 68,
            "name": "G#4",
            "ticks": 3840,
            "time": 6.31578,
            "velocity": 0.15748031496062992
          },
          {
            "duration": 1.1052615000000001,
            "durationTicks": 672,
            "midi": 68,
            "name": "G#4",
            "ticks": 4608,
            "time": 7.578936,
            "velocity": 0.15748031496062992
          },
          {
            "duration": 1.1052615000000001,
            "durationTicks": 672,
            "midi": 63,
            "name": "D#4",
            "ticks": 4608,
            "time": 7.578936,
            "velocity": 0.15748031496062992
          },
          {
            "duration": 1.1052615000000001,
            "durationTicks": 672,
            "midi": 61,
            "name": "C#4",
            "ticks": 4608,
            "time": 7.578936,
            "velocity": 0.15748031496062992
          },
          {
            "duration": 1.105261500000001,
            "durationTicks": 672,
            "midi": 61,
            "name": "C#4",
            "ticks": 5376,
            "time": 8.842092,
            "velocity": 0.15748031496062992
          },
          {
            "duration": 1.105261500000001,
            "durationTicks": 672,
            "midi": 64,
            "name": "E4",
            "ticks": 5376,
            "time": 8.842092,
            "velocity": 0.15748031496062992
          },
          {
            "duration": 1.105261500000001,
            "durationTicks": 672,
            "midi": 68,
            "name": "G#4",
            "ticks": 5376,
            "time": 8.842092,
            "velocity": 0.15748031496062992
          },
          {
            "duration": 1.1052614999999992,
            "durationTicks": 672,
            "midi": 57,
            "name": "A3",
            "ticks": 6144,
            "time": 10.105248,
            "velocity": 0.15748031496062992
          },
          {
            "duration": 1.1052614999999992,
            "durationTicks": 672,
            "midi": 64,
            "name": "E4",
            "ticks": 6144,
            "time": 10.105248,
            "velocity": 0.15748031496062992
          },
          {
            "duration": 1.1052614999999992,
            "durationTicks": 672,
            "midi": 68,
            "name": "G#4",
            "ticks": 6144,
            "time": 10.105248,
            "velocity": 0.15748031496062992
          },
          {
            "duration": 1.1052614999999992,
            "durationTicks": 672,
            "midi": 66,
            "name": "F#4",
            "ticks": 6912,
            "time": 11.368404,
            "velocity": 0.15748031496062992
          },
          {
            "duration": 1.1052614999999992,
            "durationTicks": 672,
            "midi": 63,
            "name": "D#4",
            "ticks": 6912,
            "time": 11.368404,
            "velocity": 0.15748031496062992
          },
          {
            "duration": 1.1052614999999992,
            "durationTicks": 672,
            "midi": 59,
            "name": "B3",
            "ticks": 6912,
            "time": 11.368404,
            "velocity": 0.15748031496062992
          },
          {
            "duration": 2.3684174999999996,
            "durationTicks": 1440,
            "midi": 61,
            "name": "C#4",
            "ticks": 7680,
            "time": 12.63156,
            "velocity": 0.15748031496062992
          },
          {
            "duration": 2.3684174999999996,
            "durationTicks": 1440,
            "midi": 56,
            "name": "G#3",
            "ticks": 7680,
            "time": 12.63156,
            "velocity": 0.15748031496062992
          },
          {
            "duration": 2.3684174999999996,
            "durationTicks": 1440,
            "midi": 64,
            "name": "E4",
            "ticks": 7680,
            "time": 12.63156,
            "velocity": 0.15748031496062992
          },
          {
            "duration": 1.1052614999999992,
            "durationTicks": 672,
            "midi": 59,
            "name": "B3",
            "ticks": 9216,
            "time": 15.157872,
            "velocity": 0.15748031496062992
          },
          {
            "duration": 1.1052614999999992,
            "durationTicks": 672,
            "midi": 62,
            "name": "D4",
            "ticks": 9216,
            "time": 15.157872,
            "velocity": 0.15748031496062992
          },
          {
            "duration": 1.1052614999999992,
            "durationTicks": 672,
            "midi": 68,
            "name": "G#4",
            "ticks": 9216,
            "time": 15.157872,
            "velocity": 0.15748031496062992
          },
          {
            "duration": 1.105261500000001,
            "durationTicks": 672,
            "midi": 66,
            "name": "F#4",
            "ticks": 9984,
            "time": 16.421028,
            "velocity": 0.15748031496062992
          },
          {
            "duration": 1.105261500000001,
            "durationTicks": 672,
            "midi": 61,
            "name": "C#4",
            "ticks": 9984,
            "time": 16.421028,
            "velocity": 0.15748031496062992
          },
          {
            "duration": 1.105261500000001,
            "durationTicks": 672,
            "midi": 69,
            "name": "A4",
            "ticks": 9984,
            "time": 16.421028,
            "velocity": 0.15748031496062992
          },
          {
            "duration": 1.105261500000001,
            "durationTicks": 672,
            "midi": 68,
            "name": "G#4",
            "ticks": 10752,
            "time": 17.684184,
            "velocity": 0.15748031496062992
          },
          {
            "duration": 1.105261500000001,
            "durationTicks": 672,
            "midi": 71,
            "name": "B4",
            "ticks": 10752,
            "time": 17.684184,
            "velocity": 0.15748031496062992
          },
          {
            "duration": 1.105261500000001,
            "durationTicks": 672,
            "midi": 64,
            "name": "E4",
            "ticks": 10752,
            "time": 17.684184,
            "velocity": 0.15748031496062992
          },
          {
            "duration": 1.105261500000001,
            "durationTicks": 672,
            "midi": 59,
            "name": "B3",
            "ticks": 10752,
            "time": 17.684184,
            "velocity": 0.15748031496062992
          },
          {
            "duration": 1.1052614999999975,
            "durationTicks": 672,
            "midi": 71,
            "name": "B4",
            "ticks": 11520,
            "time": 18.94734,
            "velocity": 0.15748031496062992
          },
          {
            "duration": 1.1052614999999975,
            "durationTicks": 672,
            "midi": 76,
            "name": "E5",
            "ticks": 11520,
            "time": 18.94734,
            "velocity": 0.15748031496062992
          },
          {
            "duration": 1.1052614999999975,
            "durationTicks": 672,
            "midi": 68,
            "name": "G#4",
            "ticks": 11520,
            "time": 18.94734,
            "velocity": 0.15748031496062992
          },
          {
            "duration": 1.1052614999999975,
            "durationTicks": 672,
            "midi": 64,
            "name": "E4",
            "ticks": 11520,
            "time": 18.94734,
            "velocity": 0.15748031496062992
          },
          {
            "duration": 2.3684174999999996,
            "durationTicks": 1440,
            "midi": 73,
            "name": "C#5",
            "ticks": 12288,
            "time": 20.210496,
            "velocity": 0.15748031496062992
          },
          {
            "duration": 2.3684174999999996,
            "durationTicks": 1440,
            "midi": 68,
            "name": "G#4",
            "ticks": 12288,
            "time": 20.210496,
            "velocity": 0.15748031496062992
          },
          {
            "duration": 2.3684174999999996,
            "durationTicks": 1440,
            "midi": 66,
            "name": "F#4",
            "ticks": 12288,
            "time": 20.210496,
            "velocity": 0.15748031496062992
          },
          {
            "duration": 2.3684174999999996,
            "durationTicks": 1440,
            "midi": 61,
            "name": "C#4",
            "ticks": 12288,
            "time": 20.210496,
            "velocity": 0.15748031496062992
          },
          {
            "duration": 2.3684174999999996,
            "durationTicks": 1440,
            "midi": 64,
            "name": "E4",
            "ticks": 13824,
            "time": 22.736808,
            "velocity": 0.15748031496062992
          },
          {
            "duration": 2.3684174999999996,
            "durationTicks": 1440,
            "midi": 61,
            "name": "C#4",
            "ticks": 13824,
            "time": 22.736808,
            "velocity": 0.15748031496062992
          },
          {
            "duration": 2.3684174999999996,
            "durationTicks": 1440,
            "midi": 68,
            "name": "G#4",
            "ticks": 13824,
            "time": 22.736808,
            "velocity": 0.15748031496062992
          },
          {
            "duration": 2.3684174999999996,
            "durationTicks": 1440,
            "midi": 73,
            "name": "C#5",
            "ticks": 13824,
            "time": 22.736808,
            "velocity": 0.15748031496062992
          },
          {
            "duration": 1.1052614999999975,
            "durationTicks": 672,
            "midi": 76,
            "name": "E5",
            "ticks": 15360,
            "time": 25.26312,
            "velocity": 0.15748031496062992
          },
          {
            "duration": 1.1052614999999975,
            "durationTicks": 672,
            "midi": 73,
            "name": "C#5",
            "ticks": 15360,
            "time": 25.26312,
            "velocity": 0.15748031496062992
          },
          {
            "duration": 1.1052614999999975,
            "durationTicks": 672,
            "midi": 81,
            "name": "A5",
            "ticks": 15360,
            "time": 25.26312,
            "velocity": 0.15748031496062992
          },
          {
            "duration": 1.1052614999999975,
            "durationTicks": 672,
            "midi": 73,
            "name": "C#5",
            "ticks": 15360,
            "time": 25.26312,
            "velocity": 0.15748031496062992
          },
          {
            "duration": 1.105261500000001,
            "durationTicks": 672,
            "midi": 83,
            "name": "B5",
            "ticks": 16128,
            "time": 26.526276,
            "velocity": 0.15748031496062992
          },
          {
            "duration": 1.105261500000001,
            "durationTicks": 672,
            "midi": 75,
            "name": "D#5",
            "ticks": 16128,
            "time": 26.526276,
            "velocity": 0.15748031496062992
          },
          {
            "duration": 1.105261500000001,
            "durationTicks": 672,
            "midi": 71,
            "name": "B4",
            "ticks": 16128,
            "time": 26.526276,
            "velocity": 0.15748031496062992
          },
          {
            "duration": 1.105261500000001,
            "durationTicks": 672,
            "midi": 80,
            "name": "G#5",
            "ticks": 16128,
            "time": 26.526276,
            "velocity": 0.15748031496062992
          },
          {
            "duration": 1.105261500000001,
            "durationTicks": 672,
            "midi": 76,
            "name": "E5",
            "ticks": 16896,
            "time": 27.789431999999998,
            "velocity": 0.15748031496062992
          },
          {
            "duration": 1.105261500000001,
            "durationTicks": 672,
            "midi": 68,
            "name": "G#4",
            "ticks": 16896,
            "time": 27.789431999999998,
            "velocity": 0.15748031496062992
          },
          {
            "duration": 1.105261500000001,
            "durationTicks": 672,
            "midi": 80,
            "name": "G#5",
            "ticks": 16896,
            "time": 27.789431999999998,
            "velocity": 0.15748031496062992
          },
          {
            "duration": 1.105261500000001,
            "durationTicks": 672,
            "midi": 75,
            "name": "D#5",
            "ticks": 16896,
            "time": 27.789431999999998,
            "velocity": 0.15748031496062992
          },
          {
            "duration": 1.1052614999999975,
            "durationTicks": 672,
            "midi": 76,
            "name": "E5",
            "ticks": 17664,
            "time": 29.052588,
            "velocity": 0.15748031496062992
          },
          {
            "duration": 1.1052614999999975,
            "durationTicks": 672,
            "midi": 73,
            "name": "C#5",
            "ticks": 17664,
            "time": 29.052588,
            "velocity": 0.15748031496062992
          },
          {
            "duration": 1.1052614999999975,
            "durationTicks": 672,
            "midi": 68,
            "name": "G#4",
            "ticks": 17664,
            "time": 29.052588,
            "velocity": 0.15748031496062992
          },
          {
            "duration": 1.1052614999999975,
            "durationTicks": 672,
            "midi": 80,
            "name": "G#5",
            "ticks": 17664,
            "time": 29.052588,
            "velocity": 0.15748031496062992
          },
          {
            "duration": 1.105261500000001,
            "durationTicks": 672,
            "midi": 80,
            "name": "G#5",
            "ticks": 18432,
            "time": 30.315744,
            "velocity": 0.15748031496062992
          },
          {
            "duration": 1.105261500000001,
            "durationTicks": 672,
            "midi": 75,
            "name": "D#5",
            "ticks": 18432,
            "time": 30.315744,
            "velocity": 0.15748031496062992
          },
          {
            "duration": 1.105261500000001,
            "durationTicks": 672,
            "midi": 68,
            "name": "G#4",
            "ticks": 18432,
            "time": 30.315744,
            "velocity": 0.15748031496062992
          },
          {
            "duration": 1.105261500000001,
            "durationTicks": 672,
            "midi": 71,
            "name": "B4",
            "ticks": 18432,
            "time": 30.315744,
            "velocity": 0.15748031496062992
          },
          {
            "duration": 1.1052615000000046,
            "durationTicks": 672,
            "midi": 78,
            "name": "F#5",
            "ticks": 19200,
            "time": 31.578899999999997,
            "velocity": 0.15748031496062992
          },
          {
            "duration": 1.1052615000000046,
            "durationTicks": 672,
            "midi": 71,
            "name": "B4",
            "ticks": 19200,
            "time": 31.578899999999997,
            "velocity": 0.15748031496062992
          },
          {
            "duration": 1.1052615000000046,
            "durationTicks": 672,
            "midi": 75,
            "name": "D#5",
            "ticks": 19200,
            "time": 31.578899999999997,
            "velocity": 0.15748031496062992
          },
          {
            "duration": 1.1052615000000046,
            "durationTicks": 672,
            "midi": 66,
            "name": "F#4",
            "ticks": 19200,
            "time": 31.578899999999997,
            "velocity": 0.15748031496062992
          },
          {
            "duration": 2.3684174999999996,
            "durationTicks": 1440,
            "midi": 73,
            "name": "C#5",
            "ticks": 19968,
            "time": 32.842056,
            "velocity": 0.15748031496062992
          },
          {
            "duration": 2.3684174999999996,
            "durationTicks": 1440,
            "midi": 66,
            "name": "F#4",
            "ticks": 19968,
            "time": 32.842056,
            "velocity": 0.15748031496062992
          },
          {
            "duration": 2.3684174999999996,
            "durationTicks": 1440,
            "midi": 61,
            "name": "C#4",
            "ticks": 19968,
            "time": 32.842056,
            "velocity": 0.15748031496062992
          },
          {
            "duration": 2.3684174999999996,
            "durationTicks": 1440,
            "midi": 70,
            "name": "A#4",
            "ticks": 19968,
            "time": 32.842056,
            "velocity": 0.15748031496062992
          },
          {
            "duration": 1.1052615000000046,
            "durationTicks": 672,
            "midi": 68,
            "name": "G#4",
            "ticks": 21504,
            "time": 35.368368,
            "velocity": 0.15748031496062992
          },
          {
            "duration": 1.1052615000000046,
            "durationTicks": 672,
            "midi": 73,
            "name": "C#5",
            "ticks": 21504,
            "time": 35.368368,
            "velocity": 0.15748031496062992
          },
          {
            "duration": 1.1052615000000046,
            "durationTicks": 672,
            "midi": 61,
            "name": "C#4",
            "ticks": 21504,
            "time": 35.368368,
            "velocity": 0.15748031496062992
          },
          {
            "duration": 1.1052615000000046,
            "durationTicks": 672,
            "midi": 64,
            "name": "E4",
            "ticks": 21504,
            "time": 35.368368,
            "velocity": 0.15748031496062992
          },
          {
            "duration": 1.1052614999999975,
            "durationTicks": 672,
            "midi": 75,
            "name": "D#5",
            "ticks": 22272,
            "time": 36.631524,
            "velocity": 0.15748031496062992
          },
          {
            "duration": 1.1052614999999975,
            "durationTicks": 672,
            "midi": 71,
            "name": "B4",
            "ticks": 22272,
            "time": 36.631524,
            "velocity": 0.15748031496062992
          },
          {
            "duration": 1.1052614999999975,
            "durationTicks": 672,
            "midi": 66,
            "name": "F#4",
            "ticks": 22272,
            "time": 36.631524,
            "velocity": 0.15748031496062992
          },
          {
            "duration": 1.1052614999999975,
            "durationTicks": 672,
            "midi": 63,
            "name": "D#4",
            "ticks": 22272,
            "time": 36.631524,
            "velocity": 0.15748031496062992
          },
          {
            "duration": 1.1052614999999975,
            "durationTicks": 672,
            "midi": 68,
            "name": "G#4",
            "ticks": 23040,
            "time": 37.89468,
            "velocity": 0.15748031496062992
          },
          {
            "duration": 1.1052614999999975,
            "durationTicks": 672,
            "midi": 64,
            "name": "E4",
            "ticks": 23040,
            "time": 37.89468,
            "velocity": 0.15748031496062992
          },
          {
            "duration": 1.1052614999999975,
            "durationTicks": 672,
            "midi": 76,
            "name": "E5",
            "ticks": 23040,
            "time": 37.89468,
            "velocity": 0.15748031496062992
          },
          {
            "duration": 1.1052614999999975,
            "durationTicks": 672,
            "midi": 73,
            "name": "C#5",
            "ticks": 23040,
            "time": 37.89468,
            "velocity": 0.15748031496062992
          },
          {
            "duration": 0.4736834999999999,
            "durationTicks": 288,
            "midi": 76,
            "name": "E5",
            "ticks": 23808,
            "time": 39.157835999999996,
            "velocity": 0.15748031496062992
          },
          {
            "duration": 0.4736834999999999,
            "durationTicks": 288,
            "midi": 80,
            "name": "G#5",
            "ticks": 23808,
            "time": 39.157835999999996,
            "velocity": 0.15748031496062992
          },
          {
            "duration": 0.4736834999999999,
            "durationTicks": 288,
            "midi": 73,
            "name": "C#5",
            "ticks": 23808,
            "time": 39.157835999999996,
            "velocity": 0.15748031496062992
          },
          {
            "duration": 0.4736834999999999,
            "durationTicks": 288,
            "midi": 68,
            "name": "G#4",
            "ticks": 23808,
            "time": 39.157835999999996,
            "velocity": 0.15748031496062992
          },
          {
            "duration": 0.4736834999999999,
            "durationTicks": 288,
            "midi": 66,
            "name": "F#4",
            "ticks": 24192,
            "time": 39.789414,
            "velocity": 0.15748031496062992
          },
          {
            "duration": 0.4736834999999999,
            "durationTicks": 288,
            "midi": 71,
            "name": "B4",
            "ticks": 24192,
            "time": 39.789414,
            "velocity": 0.15748031496062992
          },
          {
            "duration": 0.4736834999999999,
            "durationTicks": 288,
            "midi": 75,
            "name": "D#5",
            "ticks": 24192,
            "time": 39.789414,
            "velocity": 0.15748031496062992
          },
          {
            "duration": 0.4736834999999999,
            "durationTicks": 288,
            "midi": 78,
            "name": "F#5",
            "ticks": 24192,
            "time": 39.789414,
            "velocity": 0.15748031496062992
          },
          {
            "duration": 1.1052614999999975,
            "durationTicks": 672,
            "midi": 70,
            "name": "A#4",
            "ticks": 24576,
            "time": 40.420992,
            "velocity": 0.15748031496062992
          },
          {
            "duration": 1.1052614999999975,
            "durationTicks": 672,
            "midi": 66,
            "name": "F#4",
            "ticks": 24576,
            "time": 40.420992,
            "velocity": 0.15748031496062992
          },
          {
            "duration": 1.1052614999999975,
            "durationTicks": 672,
            "midi": 78,
            "name": "F#5",
            "ticks": 24576,
            "time": 40.420992,
            "velocity": 0.15748031496062992
          },
          {
            "duration": 1.1052614999999975,
            "durationTicks": 672,
            "midi": 73,
            "name": "C#5",
            "ticks": 24576,
            "time": 40.420992,
            "velocity": 0.15748031496062992
          },
          {
            "duration": 1.1052614999999975,
            "durationTicks": 672,
            "midi": 61,
            "name": "C#4",
            "ticks": 25344,
            "time": 41.684148,
            "velocity": 0.15748031496062992
          },
          {
            "duration": 1.1052614999999975,
            "durationTicks": 672,
            "midi": 66,
            "name": "F#4",
            "ticks": 25344,
            "time": 41.684148,
            "velocity": 0.15748031496062992
          },
          {
            "duration": 1.1052614999999975,
            "durationTicks": 672,
            "midi": 73,
            "name": "C#5",
            "ticks": 25344,
            "time": 41.684148,
            "velocity": 0.15748031496062992
          },
          {
            "duration": 1.1052614999999975,
            "durationTicks": 672,
            "midi": 70,
            "name": "A#4",
            "ticks": 25344,
            "time": 41.684148,
            "velocity": 0.15748031496062992
          },
          {
            "duration": 1.1052615000000046,
            "durationTicks": 672,
            "midi": 73,
            "name": "C#5",
            "ticks": 26112,
            "time": 42.947303999999995,
            "velocity": 0.15748031496062992
          },
          {
            "duration": 1.1052615000000046,
            "durationTicks": 672,
            "midi": 69,
            "name": "A4",
            "ticks": 26112,
            "time": 42.947303999999995,
            "velocity": 0.15748031496062992
          },
          {
            "duration": 1.1052615000000046,
            "durationTicks": 672,
            "midi": 64,
            "name": "E4",
            "ticks": 26112,
            "time": 42.947303999999995,
            "velocity": 0.15748031496062992
          },
          {
            "duration": 1.1052614999999975,
            "durationTicks": 672,
            "midi": 78,
            "name": "F#5",
            "ticks": 26880,
            "time": 44.21046,
            "velocity": 0.15748031496062992
          },
          {
            "duration": 1.1052614999999975,
            "durationTicks": 672,
            "midi": 68,
            "name": "G#4",
            "ticks": 26880,
            "time": 44.21046,
            "velocity": 0.15748031496062992
          },
          {
            "duration": 1.1052614999999975,
            "durationTicks": 672,
            "midi": 73,
            "name": "C#5",
            "ticks": 26880,
            "time": 44.21046,
            "velocity": 0.15748031496062992
          },
          {
            "duration": 0.4736834999999999,
            "durationTicks": 288,
            "midi": 83,
            "name": "B5",
            "ticks": 27264,
            "time": 44.842037999999995,
            "velocity": 0.15748031496062992
          },
          {
            "duration": 1.1052614999999975,
            "durationTicks": 672,
            "midi": 80,
            "name": "G#5",
            "ticks": 27648,
            "time": 45.473616,
            "velocity": 0.15748031496062992
          },
          {
            "duration": 1.1052614999999975,
            "durationTicks": 672,
            "midi": 73,
            "name": "C#5",
            "ticks": 27648,
            "time": 45.473616,
            "velocity": 0.15748031496062992
          },
          {
            "duration": 1.1052614999999975,
            "durationTicks": 672,
            "midi": 68,
            "name": "G#4",
            "ticks": 27648,
            "time": 45.473616,
            "velocity": 0.15748031496062992
          },
          {
            "duration": 1.1052614999999975,
            "durationTicks": 672,
            "midi": 76,
            "name": "E5",
            "ticks": 27648,
            "time": 45.473616,
            "velocity": 0.15748031496062992
          },
          {
            "duration": 1.1052614999999975,
            "durationTicks": 672,
            "midi": 73,
            "name": "C#5",
            "ticks": 27648,
            "time": 45.473616,
            "velocity": 0.15748031496062992
          },
          {
            "duration": 1.1052615000000046,
            "durationTicks": 672,
            "midi": 59,
            "name": "B3",
            "ticks": 28416,
            "time": 46.736771999999995,
            "velocity": 0.15748031496062992
          },
          {
            "duration": 1.1052615000000046,
            "durationTicks": 672,
            "midi": 56,
            "name": "G#3",
            "ticks": 28416,
            "time": 46.736771999999995,
            "velocity": 0.15748031496062992
          },
          {
            "duration": 1.1052615000000046,
            "durationTicks": 672,
            "midi": 66,
            "name": "F#4",
            "ticks": 28416,
            "time": 46.736771999999995,
            "velocity": 0.15748031496062992
          },
          {
            "duration": 1.1052615000000046,
            "durationTicks": 672,
            "midi": 63,
            "name": "D#4",
            "ticks": 28416,
            "time": 46.736771999999995,
            "velocity": 0.15748031496062992
          },
          {
            "duration": 2.3684174999999996,
            "durationTicks": 1440,
            "midi": 66,
            "name": "F#4",
            "ticks": 29184,
            "time": 47.999928,
            "velocity": 0.15748031496062992
          },
          {
            "duration": 2.3684174999999996,
            "durationTicks": 1440,
            "midi": 61,
            "name": "C#4",
            "ticks": 29184,
            "time": 47.999928,
            "velocity": 0.15748031496062992
          },
          {
            "duration": 2.3684174999999996,
            "durationTicks": 1440,
            "midi": 62,
            "name": "D4",
            "ticks": 29184,
            "time": 47.999928,
            "velocity": 0.15748031496062992
          },
          {
            "duration": 2.3684174999999996,
            "durationTicks": 1440,
            "midi": 57,
            "name": "A3",
            "ticks": 29184,
            "time": 47.999928,
            "velocity": 0.15748031496062992
          },
          {
            "duration": 2.3684174999999996,
            "durationTicks": 1440,
            "midi": 62,
            "name": "D4",
            "ticks": 30720,
            "time": 50.52624,
            "velocity": 0.15748031496062992
          },
          {
            "duration": 2.3684174999999996,
            "durationTicks": 1440,
            "midi": 66,
            "name": "F#4",
            "ticks": 30720,
            "time": 50.52624,
            "velocity": 0.15748031496062992
          },
          {
            "duration": 2.3684174999999996,
            "durationTicks": 1440,
            "midi": 55,
            "name": "G3",
            "ticks": 30720,
            "time": 50.52624,
            "velocity": 0.15748031496062992
          },
          {
            "duration": 2.3684174999999996,
            "durationTicks": 1440,
            "midi": 57,
            "name": "A3",
            "ticks": 30720,
            "time": 50.52624,
            "velocity": 0.15748031496062992
          },
          {
            "duration": 1.1052614999999975,
            "durationTicks": 672,
            "midi": 64,
            "name": "E4",
            "ticks": 32256,
            "time": 53.052552,
            "velocity": 0.15748031496062992
          },
          {
            "duration": 1.1052614999999975,
            "durationTicks": 672,
            "midi": 59,
            "name": "B3",
            "ticks": 32256,
            "time": 53.052552,
            "velocity": 0.15748031496062992
          },
          {
            "duration": 1.1052614999999975,
            "durationTicks": 672,
            "midi": 68,
            "name": "G#4",
            "ticks": 32256,
            "time": 53.052552,
            "velocity": 0.15748031496062992
          },
          {
            "duration": 1.1052614999999975,
            "durationTicks": 672,
            "midi": 71,
            "name": "B4",
            "ticks": 32256,
            "time": 53.052552,
            "velocity": 0.15748031496062992
          },
          {
            "duration": 1.1052614999999975,
            "durationTicks": 672,
            "midi": 68,
            "name": "G#4",
            "ticks": 33024,
            "time": 54.315708,
            "velocity": 0.15748031496062992
          },
          {
            "duration": 1.1052614999999975,
            "durationTicks": 672,
            "midi": 66,
            "name": "F#4",
            "ticks": 33024,
            "time": 54.315708,
            "velocity": 0.15748031496062992
          },
          {
            "duration": 1.1052614999999975,
            "durationTicks": 672,
            "midi": 73,
            "name": "C#5",
            "ticks": 33024,
            "time": 54.315708,
            "velocity": 0.15748031496062992
          },
          {
            "duration": 1.1052614999999975,
            "durationTicks": 672,
            "midi": 63,
            "name": "D#4",
            "ticks": 33024,
            "time": 54.315708,
            "velocity": 0.15748031496062992
          },
          {
            "duration": 2.3684174999999996,
            "durationTicks": 1440,
            "midi": 63,
            "name": "D#4",
            "ticks": 33792,
            "time": 55.578863999999996,
            "velocity": 0.15748031496062992
          },
          {
            "duration": 2.3684174999999996,
            "durationTicks": 1440,
            "midi": 56,
            "name": "G#3",
            "ticks": 33792,
            "time": 55.578863999999996,
            "velocity": 0.15748031496062992
          },
          {
            "duration": 2.3684174999999996,
            "durationTicks": 1440,
            "midi": 66,
            "name": "F#4",
            "ticks": 33792,
            "time": 55.578863999999996,
            "velocity": 0.15748031496062992
          },
          {
            "duration": 2.3684174999999996,
            "durationTicks": 1440,
            "midi": 59,
            "name": "B3",
            "ticks": 33792,
            "time": 55.578863999999996,
            "velocity": 0.15748031496062992
          },
          {
            "duration": 2.3684174999999996,
            "durationTicks": 1440,
            "midi": 62,
            "name": "D4",
            "ticks": 35328,
            "time": 58.105176,
            "velocity": 0.15748031496062992
          },
          {
            "duration": 2.3684174999999996,
            "durationTicks": 1440,
            "midi": 66,
            "name": "F#4",
            "ticks": 35328,
            "time": 58.105176,
            "velocity": 0.15748031496062992
          },
          {
            "duration": 2.3684174999999996,
            "durationTicks": 1440,
            "midi": 61,
            "name": "C#4",
            "ticks": 35328,
            "time": 58.105176,
            "velocity": 0.15748031496062992
          },
          {
            "duration": 2.3684174999999996,
            "durationTicks": 1440,
            "midi": 57,
            "name": "A3",
            "ticks": 35328,
            "time": 58.105176,
            "velocity": 0.15748031496062992
          },
          {
            "duration": 2.3684174999999996,
            "durationTicks": 1440,
            "midi": 62,
            "name": "D4",
            "ticks": 36864,
            "time": 60.631488,
            "velocity": 0.15748031496062992
          },
          {
            "duration": 2.3684174999999996,
            "durationTicks": 1440,
            "midi": 66,
            "name": "F#4",
            "ticks": 36864,
            "time": 60.631488,
            "velocity": 0.15748031496062992
          },
          {
            "duration": 2.3684174999999996,
            "durationTicks": 1440,
            "midi": 55,
            "name": "G3",
            "ticks": 36864,
            "time": 60.631488,
            "velocity": 0.15748031496062992
          },
          {
            "duration": 2.3684174999999996,
            "durationTicks": 1440,
            "midi": 57,
            "name": "A3",
            "ticks": 36864,
            "time": 60.631488,
            "velocity": 0.15748031496062992
          },
          {
            "duration": 1.1052614999999975,
            "durationTicks": 672,
            "midi": 68,
            "name": "G#4",
            "ticks": 38400,
            "time": 63.157799999999995,
            "velocity": 0.15748031496062992
          },
          {
            "duration": 1.1052614999999975,
            "durationTicks": 672,
            "midi": 64,
            "name": "E4",
            "ticks": 38400,
            "time": 63.157799999999995,
            "velocity": 0.15748031496062992
          },
          {
            "duration": 1.1052614999999975,
            "durationTicks": 672,
            "midi": 59,
            "name": "B3",
            "ticks": 38400,
            "time": 63.157799999999995,
            "velocity": 0.15748031496062992
          },
          {
            "duration": 1.1052614999999975,
            "durationTicks": 672,
            "midi": 71,
            "name": "B4",
            "ticks": 38400,
            "time": 63.157799999999995,
            "velocity": 0.15748031496062992
          },
          {
            "duration": 1.1052614999999975,
            "durationTicks": 672,
            "midi": 68,
            "name": "G#4",
            "ticks": 39168,
            "time": 64.420956,
            "velocity": 0.15748031496062992
          },
          {
            "duration": 1.1052614999999975,
            "durationTicks": 672,
            "midi": 66,
            "name": "F#4",
            "ticks": 39168,
            "time": 64.420956,
            "velocity": 0.15748031496062992
          },
          {
            "duration": 1.1052614999999975,
            "durationTicks": 672,
            "midi": 73,
            "name": "C#5",
            "ticks": 39168,
            "time": 64.420956,
            "velocity": 0.15748031496062992
          },
          {
            "duration": 1.1052614999999975,
            "durationTicks": 672,
            "midi": 63,
            "name": "D#4",
            "ticks": 39168,
            "time": 64.420956,
            "velocity": 0.15748031496062992
          },
          {
            "duration": 2.3684174999999925,
            "durationTicks": 1440,
            "midi": 75,
            "name": "D#5",
            "ticks": 39936,
            "time": 65.684112,
            "velocity": 0.15748031496062992
          },
          {
            "duration": 2.3684174999999925,
            "durationTicks": 1440,
            "midi": 73,
            "name": "C#5",
            "ticks": 39936,
            "time": 65.684112,
            "velocity": 0.15748031496062992
          },
          {
            "duration": 2.3684174999999925,
            "durationTicks": 1440,
            "midi": 71,
            "name": "B4",
            "ticks": 39936,
            "time": 65.684112,
            "velocity": 0.15748031496062992
          },
          {
            "duration": 2.3684174999999925,
            "durationTicks": 1440,
            "midi": 68,
            "name": "G#4",
            "ticks": 39936,
            "time": 65.684112,
            "velocity": 0.15748031496062992
          },
          {
            "duration": 2.3684174999999925,
            "durationTicks": 1440,
            "midi": 69,
            "name": "A4",
            "ticks": 41472,
            "time": 68.210424,
            "velocity": 0.15748031496062992
          },
          {
            "duration": 2.3684174999999925,
            "durationTicks": 1440,
            "midi": 71,
            "name": "B4",
            "ticks": 41472,
            "time": 68.210424,
            "velocity": 0.15748031496062992
          },
          {
            "duration": 2.3684174999999925,
            "durationTicks": 1440,
            "midi": 78,
            "name": "F#5",
            "ticks": 41472,
            "time": 68.210424,
            "velocity": 0.15748031496062992
          },
          {
            "duration": 2.3684174999999925,
            "durationTicks": 1440,
            "midi": 73,
            "name": "C#5",
            "ticks": 41472,
            "time": 68.210424,
            "velocity": 0.15748031496062992
          },
          {
            "duration": 2.3684175000000067,
            "durationTicks": 1440,
            "midi": 74,
            "name": "D5",
            "ticks": 43008,
            "time": 70.736736,
            "velocity": 0.15748031496062992
          },
          {
            "duration": 2.3684175000000067,
            "durationTicks": 1440,
            "midi": 69,
            "name": "A4",
            "ticks": 43008,
            "time": 70.736736,
            "velocity": 0.15748031496062992
          },
          {
            "duration": 2.3684175000000067,
            "durationTicks": 1440,
            "midi": 71,
            "name": "B4",
            "ticks": 43008,
            "time": 70.736736,
            "velocity": 0.15748031496062992
          },
          {
            "duration": 1.1052614999999975,
            "durationTicks": 672,
            "midi": 76,
            "name": "E5",
            "ticks": 44544,
            "time": 73.263048,
            "velocity": 0.15748031496062992
          },
          {
            "duration": 1.1052614999999975,
            "durationTicks": 672,
            "midi": 83,
            "name": "B5",
            "ticks": 44544,
            "time": 73.263048,
            "velocity": 0.15748031496062992
          },
          {
            "duration": 1.1052614999999975,
            "durationTicks": 672,
            "midi": 80,
            "name": "G#5",
            "ticks": 44544,
            "time": 73.263048,
            "velocity": 0.15748031496062992
          },
          {
            "duration": 1.1052614999999975,
            "durationTicks": 672,
            "midi": 73,
            "name": "C#5",
            "ticks": 45312,
            "time": 74.52620399999999,
            "velocity": 0.15748031496062992
          },
          {
            "duration": 1.1052614999999975,
            "durationTicks": 672,
            "midi": 78,
            "name": "F#5",
            "ticks": 45312,
            "time": 74.52620399999999,
            "velocity": 0.15748031496062992
          },
          {
            "duration": 1.1052614999999975,
            "durationTicks": 672,
            "midi": 80,
            "name": "G#5",
            "ticks": 45312,
            "time": 74.52620399999999,
            "velocity": 0.15748031496062992
          },
          {
            "duration": 2.3684174999999925,
            "durationTicks": 1440,
            "midi": 68,
            "name": "G#4",
            "ticks": 46080,
            "time": 75.78936,
            "velocity": 0.15748031496062992
          },
          {
            "duration": 2.3684174999999925,
            "durationTicks": 1440,
            "midi": 73,
            "name": "C#5",
            "ticks": 46080,
            "time": 75.78936,
            "velocity": 0.15748031496062992
          },
          {
            "duration": 2.3684174999999925,
            "durationTicks": 1440,
            "midi": 71,
            "name": "B4",
            "ticks": 46080,
            "time": 75.78936,
            "velocity": 0.15748031496062992
          },
          {
            "duration": 2.3684174999999925,
            "durationTicks": 1440,
            "midi": 75,
            "name": "D#5",
            "ticks": 46080,
            "time": 75.78936,
            "velocity": 0.15748031496062992
          },
          {
            "duration": 2.3684175000000067,
            "durationTicks": 1440,
            "midi": 71,
            "name": "B4",
            "ticks": 47616,
            "time": 78.31567199999999,
            "velocity": 0.15748031496062992
          },
          {
            "duration": 2.3684175000000067,
            "durationTicks": 1440,
            "midi": 73,
            "name": "C#5",
            "ticks": 47616,
            "time": 78.31567199999999,
            "velocity": 0.15748031496062992
          },
          {
            "duration": 2.3684175000000067,
            "durationTicks": 1440,
            "midi": 78,
            "name": "F#5",
            "ticks": 47616,
            "time": 78.31567199999999,
            "velocity": 0.15748031496062992
          },
          {
            "duration": 2.3684175000000067,
            "durationTicks": 1440,
            "midi": 69,
            "name": "A4",
            "ticks": 47616,
            "time": 78.31567199999999,
            "velocity": 0.15748031496062992
          },
          {
            "duration": 2.3684175000000067,
            "durationTicks": 1440,
            "midi": 74,
            "name": "D5",
            "ticks": 49152,
            "time": 80.841984,
            "velocity": 0.15748031496062992
          },
          {
            "duration": 2.3684175000000067,
            "durationTicks": 1440,
            "midi": 69,
            "name": "A4",
            "ticks": 49152,
            "time": 80.841984,
            "velocity": 0.15748031496062992
          },
          {
            "duration": 2.3684175000000067,
            "durationTicks": 1440,
            "midi": 71,
            "name": "B4",
            "ticks": 49152,
            "time": 80.841984,
            "velocity": 0.15748031496062992
          },
          {
            "duration": 1.1052614999999975,
            "durationTicks": 672,
            "midi": 76,
            "name": "E5",
            "ticks": 50688,
            "time": 83.368296,
            "velocity": 0.15748031496062992
          },
          {
            "duration": 1.1052614999999975,
            "durationTicks": 672,
            "midi": 83,
            "name": "B5",
            "ticks": 50688,
            "time": 83.368296,
            "velocity": 0.15748031496062992
          },
          {
            "duration": 1.1052614999999975,
            "durationTicks": 672,
            "midi": 80,
            "name": "G#5",
            "ticks": 50688,
            "time": 83.368296,
            "velocity": 0.15748031496062992
          },
          {
            "duration": 1.1052614999999975,
            "durationTicks": 672,
            "midi": 80,
            "name": "G#5",
            "ticks": 51456,
            "time": 84.631452,
            "velocity": 0.15748031496062992
          },
          {
            "duration": 1.1052614999999975,
            "durationTicks": 672,
            "midi": 78,
            "name": "F#5",
            "ticks": 51456,
            "time": 84.631452,
            "velocity": 0.15748031496062992
          },
          {
            "duration": 1.1052614999999975,
            "durationTicks": 672,
            "midi": 73,
            "name": "C#5",
            "ticks": 51456,
            "time": 84.631452,
            "velocity": 0.15748031496062992
          },
          {
            "duration": 2.5263120000000043,
            "durationTicks": 1536,
            "midi": 57,
            "name": "A3",
            "ticks": 52224,
            "time": 85.89460799999999,
            "velocity": 0.15748031496062992
          },
          {
            "duration": 2.5263120000000043,
            "durationTicks": 1536,
            "midi": 61,
            "name": "C#4",
            "ticks": 52224,
            "time": 85.89460799999999,
            "velocity": 0.15748031496062992
          },
          {
            "duration": 2.5263120000000043,
            "durationTicks": 1536,
            "midi": 69,
            "name": "A4",
            "ticks": 52224,
            "time": 85.89460799999999,
            "velocity": 0.15748031496062992
          },
          {
            "duration": 2.5263120000000043,
            "durationTicks": 1536,
            "midi": 64,
            "name": "E4",
            "ticks": 52224,
            "time": 85.89460799999999,
            "velocity": 0.15748031496062992
          },
          {
            "duration": 2.5263120000000043,
            "durationTicks": 1536,
            "midi": 71,
            "name": "B4",
            "ticks": 53760,
            "time": 88.42092,
            "velocity": 0.15748031496062992
          },
          {
            "duration": 2.5263120000000043,
            "durationTicks": 1536,
            "midi": 66,
            "name": "F#4",
            "ticks": 53760,
            "time": 88.42092,
            "velocity": 0.15748031496062992
          },
          {
            "duration": 2.5263120000000043,
            "durationTicks": 1536,
            "midi": 63,
            "name": "D#4",
            "ticks": 53760,
            "time": 88.42092,
            "velocity": 0.15748031496062992
          },
          {
            "duration": 2.5263120000000043,
            "durationTicks": 1536,
            "midi": 59,
            "name": "B3",
            "ticks": 53760,
            "time": 88.42092,
            "velocity": 0.15748031496062992
          },
          {
            "duration": 2.52631199999999,
            "durationTicks": 1536,
            "midi": 61,
            "name": "C#4",
            "ticks": 55296,
            "time": 90.947232,
            "velocity": 0.15748031496062992
          },
          {
            "duration": 2.52631199999999,
            "durationTicks": 1536,
            "midi": 73,
            "name": "C#5",
            "ticks": 55296,
            "time": 90.947232,
            "velocity": 0.15748031496062992
          },
          {
            "duration": 2.52631199999999,
            "durationTicks": 1536,
            "midi": 68,
            "name": "G#4",
            "ticks": 55296,
            "time": 90.947232,
            "velocity": 0.15748031496062992
          },
          {
            "duration": 2.52631199999999,
            "durationTicks": 1536,
            "midi": 64,
            "name": "E4",
            "ticks": 55296,
            "time": 90.947232,
            "velocity": 0.15748031496062992
          },
          {
            "duration": 2.5263120000000043,
            "durationTicks": 1536,
            "midi": 59,
            "name": "B3",
            "ticks": 56832,
            "time": 93.47354399999999,
            "velocity": 0.15748031496062992
          },
          {
            "duration": 2.5263120000000043,
            "durationTicks": 1536,
            "midi": 71,
            "name": "B4",
            "ticks": 56832,
            "time": 93.47354399999999,
            "velocity": 0.15748031496062992
          },
          {
            "duration": 2.5263120000000043,
            "durationTicks": 1536,
            "midi": 63,
            "name": "D#4",
            "ticks": 56832,
            "time": 93.47354399999999,
            "velocity": 0.15748031496062992
          },
          {
            "duration": 2.5263120000000043,
            "durationTicks": 1536,
            "midi": 66,
            "name": "F#4",
            "ticks": 56832,
            "time": 93.47354399999999,
            "velocity": 0.15748031496062992
          },
          {
            "duration": 2.5263120000000043,
            "durationTicks": 1536,
            "midi": 69,
            "name": "A4",
            "ticks": 58368,
            "time": 95.999856,
            "velocity": 0.15748031496062992
          },
          {
            "duration": 2.5263120000000043,
            "durationTicks": 1536,
            "midi": 64,
            "name": "E4",
            "ticks": 58368,
            "time": 95.999856,
            "velocity": 0.15748031496062992
          },
          {
            "duration": 2.5263120000000043,
            "durationTicks": 1536,
            "midi": 61,
            "name": "C#4",
            "ticks": 58368,
            "time": 95.999856,
            "velocity": 0.15748031496062992
          },
          {
            "duration": 2.5263120000000043,
            "durationTicks": 1536,
            "midi": 57,
            "name": "A3",
            "ticks": 58368,
            "time": 95.999856,
            "velocity": 0.15748031496062992
          },
          {
            "duration": 2.5263120000000043,
            "durationTicks": 1536,
            "midi": 59,
            "name": "B3",
            "ticks": 59904,
            "time": 98.526168,
            "velocity": 0.15748031496062992
          },
          {
            "duration": 2.5263120000000043,
            "durationTicks": 1536,
            "midi": 71,
            "name": "B4",
            "ticks": 59904,
            "time": 98.526168,
            "velocity": 0.15748031496062992
          },
          {
            "duration": 2.5263120000000043,
            "durationTicks": 1536,
            "midi": 63,
            "name": "D#4",
            "ticks": 59904,
            "time": 98.526168,
            "velocity": 0.15748031496062992
          },
          {
            "duration": 2.5263120000000043,
            "durationTicks": 1536,
            "midi": 66,
            "name": "F#4",
            "ticks": 59904,
            "time": 98.526168,
            "velocity": 0.15748031496062992
          },
          {
            "duration": 2.52631199999999,
            "durationTicks": 1536,
            "midi": 61,
            "name": "C#4",
            "ticks": 61440,
            "time": 101.05248,
            "velocity": 0.15748031496062992
          },
          {
            "duration": 2.52631199999999,
            "durationTicks": 1536,
            "midi": 68,
            "name": "G#4",
            "ticks": 61440,
            "time": 101.05248,
            "velocity": 0.15748031496062992
          },
          {
            "duration": 2.52631199999999,
            "durationTicks": 1536,
            "midi": 64,
            "name": "E4",
            "ticks": 61440,
            "time": 101.05248,
            "velocity": 0.15748031496062992
          },
          {
            "duration": 2.52631199999999,
            "durationTicks": 1536,
            "midi": 73,
            "name": "C#5",
            "ticks": 61440,
            "time": 101.05248,
            "velocity": 0.15748031496062992
          },
          {
            "duration": 2.5263120000000043,
            "durationTicks": 1536,
            "midi": 71,
            "name": "B4",
            "ticks": 62976,
            "time": 103.57879199999999,
            "velocity": 0.15748031496062992
          },
          {
            "duration": 2.5263120000000043,
            "durationTicks": 1536,
            "midi": 63,
            "name": "D#4",
            "ticks": 62976,
            "time": 103.57879199999999,
            "velocity": 0.15748031496062992
          },
          {
            "duration": 2.5263120000000043,
            "durationTicks": 1536,
            "midi": 66,
            "name": "F#4",
            "ticks": 62976,
            "time": 103.57879199999999,
            "velocity": 0.15748031496062992
          },
          {
            "duration": 2.5263120000000043,
            "durationTicks": 1536,
            "midi": 75,
            "name": "D#5",
            "ticks": 62976,
            "time": 103.57879199999999,
            "velocity": 0.15748031496062992
          },
          {
            "duration": 2.5263120000000043,
            "durationTicks": 1536,
            "midi": 69,
            "name": "A4",
            "ticks": 64512,
            "time": 106.105104,
            "velocity": 0.15748031496062992
          },
          {
            "duration": 2.5263120000000043,
            "durationTicks": 1536,
            "midi": 57,
            "name": "A3",
            "ticks": 64512,
            "time": 106.105104,
            "velocity": 0.15748031496062992
          },
          {
            "duration": 2.5263120000000043,
            "durationTicks": 1536,
            "midi": 64,
            "name": "E4",
            "ticks": 64512,
            "time": 106.105104,
            "velocity": 0.15748031496062992
          },
          {
            "duration": 2.5263120000000043,
            "durationTicks": 1536,
            "midi": 61,
            "name": "C#4",
            "ticks": 64512,
            "time": 106.105104,
            "velocity": 0.15748031496062992
          },
          {
            "duration": 2.52631199999999,
            "durationTicks": 1536,
            "midi": 59,
            "name": "B3",
            "ticks": 66048,
            "time": 108.631416,
            "velocity": 0.15748031496062992
          },
          {
            "duration": 2.52631199999999,
            "durationTicks": 1536,
            "midi": 63,
            "name": "D#4",
            "ticks": 66048,
            "time": 108.631416,
            "velocity": 0.15748031496062992
          },
          {
            "duration": 2.52631199999999,
            "durationTicks": 1536,
            "midi": 71,
            "name": "B4",
            "ticks": 66048,
            "time": 108.631416,
            "velocity": 0.15748031496062992
          },
          {
            "duration": 2.52631199999999,
            "durationTicks": 1536,
            "midi": 66,
            "name": "F#4",
            "ticks": 66048,
            "time": 108.631416,
            "velocity": 0.15748031496062992
          },
          {
            "duration": 2.5263120000000043,
            "durationTicks": 1536,
            "midi": 61,
            "name": "C#4",
            "ticks": 67584,
            "time": 111.15772799999999,
            "velocity": 0.15748031496062992
          },
          {
            "duration": 2.5263120000000043,
            "durationTicks": 1536,
            "midi": 64,
            "name": "E4",
            "ticks": 67584,
            "time": 111.15772799999999,
            "velocity": 0.15748031496062992
          },
          {
            "duration": 2.5263120000000043,
            "durationTicks": 1536,
            "midi": 73,
            "name": "C#5",
            "ticks": 67584,
            "time": 111.15772799999999,
            "velocity": 0.15748031496062992
          },
          {
            "duration": 2.5263120000000043,
            "durationTicks": 1536,
            "midi": 68,
            "name": "G#4",
            "ticks": 67584,
            "time": 111.15772799999999,
            "velocity": 0.15748031496062992
          },
          {
            "duration": 2.5263120000000043,
            "durationTicks": 1536,
            "midi": 71,
            "name": "B4",
            "ticks": 69120,
            "time": 113.68404,
            "velocity": 0.15748031496062992
          },
          {
            "duration": 2.5263120000000043,
            "durationTicks": 1536,
            "midi": 66,
            "name": "F#4",
            "ticks": 69120,
            "time": 113.68404,
            "velocity": 0.15748031496062992
          },
          {
            "duration": 2.5263120000000043,
            "durationTicks": 1536,
            "midi": 63,
            "name": "D#4",
            "ticks": 69120,
            "time": 113.68404,
            "velocity": 0.15748031496062992
          },
          {
            "duration": 2.5263120000000043,
            "durationTicks": 1536,
            "midi": 59,
            "name": "B3",
            "ticks": 69120,
            "time": 113.68404,
            "velocity": 0.15748031496062992
          },
          {
            "duration": 2.52631199999999,
            "durationTicks": 1536,
            "midi": 64,
            "name": "E4",
            "ticks": 70656,
            "time": 116.210352,
            "velocity": 0.15748031496062992
          },
          {
            "duration": 2.52631199999999,
            "durationTicks": 1536,
            "midi": 57,
            "name": "A3",
            "ticks": 70656,
            "time": 116.210352,
            "velocity": 0.15748031496062992
          },
          {
            "duration": 2.52631199999999,
            "durationTicks": 1536,
            "midi": 69,
            "name": "A4",
            "ticks": 70656,
            "time": 116.210352,
            "velocity": 0.15748031496062992
          },
          {
            "duration": 2.52631199999999,
            "durationTicks": 1536,
            "midi": 61,
            "name": "C#4",
            "ticks": 70656,
            "time": 116.210352,
            "velocity": 0.15748031496062992
          },
          {
            "duration": 2.5263120000000043,
            "durationTicks": 1536,
            "midi": 59,
            "name": "B3",
            "ticks": 72192,
            "time": 118.73666399999999,
            "velocity": 0.15748031496062992
          },
          {
            "duration": 2.5263120000000043,
            "durationTicks": 1536,
            "midi": 71,
            "name": "B4",
            "ticks": 72192,
            "time": 118.73666399999999,
            "velocity": 0.15748031496062992
          },
          {
            "duration": 2.5263120000000043,
            "durationTicks": 1536,
            "midi": 66,
            "name": "F#4",
            "ticks": 72192,
            "time": 118.73666399999999,
            "velocity": 0.15748031496062992
          },
          {
            "duration": 2.5263120000000043,
            "durationTicks": 1536,
            "midi": 63,
            "name": "D#4",
            "ticks": 72192,
            "time": 118.73666399999999,
            "velocity": 0.15748031496062992
          },
          {
            "duration": 2.5263120000000043,
            "durationTicks": 1536,
            "midi": 61,
            "name": "C#4",
            "ticks": 73728,
            "time": 121.262976,
            "velocity": 0.15748031496062992
          },
          {
            "duration": 2.5263120000000043,
            "durationTicks": 1536,
            "midi": 68,
            "name": "G#4",
            "ticks": 73728,
            "time": 121.262976,
            "velocity": 0.15748031496062992
          },
          {
            "duration": 2.5263120000000043,
            "durationTicks": 1536,
            "midi": 73,
            "name": "C#5",
            "ticks": 73728,
            "time": 121.262976,
            "velocity": 0.15748031496062992
          },
          {
            "duration": 2.5263120000000043,
            "durationTicks": 1536,
            "midi": 64,
            "name": "E4",
            "ticks": 73728,
            "time": 121.262976,
            "velocity": 0.15748031496062992
          },
          {
            "duration": 2.52631199999999,
            "durationTicks": 1536,
            "midi": 63,
            "name": "D#4",
            "ticks": 75264,
            "time": 123.789288,
            "velocity": 0.15748031496062992
          },
          {
            "duration": 2.52631199999999,
            "durationTicks": 1536,
            "midi": 71,
            "name": "B4",
            "ticks": 75264,
            "time": 123.789288,
            "velocity": 0.15748031496062992
          },
          {
            "duration": 2.52631199999999,
            "durationTicks": 1536,
            "midi": 66,
            "name": "F#4",
            "ticks": 75264,
            "time": 123.789288,
            "velocity": 0.15748031496062992
          },
          {
            "duration": 2.52631199999999,
            "durationTicks": 1536,
            "midi": 75,
            "name": "D#5",
            "ticks": 75264,
            "time": 123.789288,
            "velocity": 0.15748031496062992
          },
          {
            "duration": 2.5263120000000185,
            "durationTicks": 1536,
            "midi": 64,
            "name": "E4",
            "ticks": 76800,
            "time": 126.31559999999999,
            "velocity": 0.15748031496062992
          },
          {
            "duration": 2.5263120000000185,
            "durationTicks": 1536,
            "midi": 73,
            "name": "C#5",
            "ticks": 76800,
            "time": 126.31559999999999,
            "velocity": 0.15748031496062992
          },
          {
            "duration": 2.5263120000000185,
            "durationTicks": 1536,
            "midi": 68,
            "name": "G#4",
            "ticks": 76800,
            "time": 126.31559999999999,
            "velocity": 0.15748031496062992
          },
          {
            "duration": 2.52631199999999,
            "durationTicks": 1536,
            "midi": 71,
            "name": "B4",
            "ticks": 78336,
            "time": 128.841912,
            "velocity": 0.15748031496062992
          },
          {
            "duration": 2.52631199999999,
            "durationTicks": 1536,
            "midi": 68,
            "name": "G#4",
            "ticks": 78336,
            "time": 128.841912,
            "velocity": 0.15748031496062992
          },
          {
            "duration": 2.52631199999999,
            "durationTicks": 1536,
            "midi": 75,
            "name": "D#5",
            "ticks": 78336,
            "time": 128.841912,
            "velocity": 0.15748031496062992
          },
          {
            "duration": 2.52631199999999,
            "durationTicks": 1536,
            "midi": 66,
            "name": "F#4",
            "ticks": 79872,
            "time": 131.368224,
            "velocity": 0.15748031496062992
          },
          {
            "duration": 2.52631199999999,
            "durationTicks": 1536,
            "midi": 73,
            "name": "C#5",
            "ticks": 79872,
            "time": 131.368224,
            "velocity": 0.15748031496062992
          },
          {
            "duration": 2.52631199999999,
            "durationTicks": 1536,
            "midi": 70,
            "name": "A#4",
            "ticks": 79872,
            "time": 131.368224,
            "velocity": 0.15748031496062992
          },
          {
            "duration": 2.5263120000000185,
            "durationTicks": 1536,
            "midi": 74,
            "name": "D5",
            "ticks": 81408,
            "time": 133.894536,
            "velocity": 0.15748031496062992
          },
          {
            "duration": 2.5263120000000185,
            "durationTicks": 1536,
            "midi": 66,
            "name": "F#4",
            "ticks": 81408,
            "time": 133.894536,
            "velocity": 0.15748031496062992
          },
          {
            "duration": 2.5263120000000185,
            "durationTicks": 1536,
            "midi": 73,
            "name": "C#5",
            "ticks": 81408,
            "time": 133.894536,
            "velocity": 0.15748031496062992
          },
          {
            "duration": 2.52631199999999,
            "durationTicks": 1536,
            "midi": 69,
            "name": "A4",
            "ticks": 82944,
            "time": 136.420848,
            "velocity": 0.15748031496062992
          },
          {
            "duration": 2.52631199999999,
            "durationTicks": 1536,
            "midi": 66,
            "name": "F#4",
            "ticks": 82944,
            "time": 136.420848,
            "velocity": 0.15748031496062992
          },
          {
            "duration": 2.52631199999999,
            "durationTicks": 1536,
            "midi": 63,
            "name": "D#4",
            "ticks": 84480,
            "time": 138.94716,
            "velocity": 0.15748031496062992
          },
          {
            "duration": 2.52631199999999,
            "durationTicks": 1536,
            "midi": 71,
            "name": "B4",
            "ticks": 84480,
            "time": 138.94716,
            "velocity": 0.15748031496062992
          },
          {
            "duration": 2.52631199999999,
            "durationTicks": 1536,
            "midi": 66,
            "name": "F#4",
            "ticks": 84480,
            "time": 138.94716,
            "velocity": 0.15748031496062992
          },
          {
            "duration": 2.5263120000000185,
            "durationTicks": 1536,
            "midi": 66,
            "name": "F#4",
            "ticks": 86016,
            "time": 141.473472,
            "velocity": 0.15748031496062992
          },
          {
            "duration": 2.5263120000000185,
            "durationTicks": 1536,
            "midi": 69,
            "name": "A4",
            "ticks": 86016,
            "time": 141.473472,
            "velocity": 0.15748031496062992
          },
          {
            "duration": 2.5263120000000185,
            "durationTicks": 1536,
            "midi": 73,
            "name": "C#5",
            "ticks": 86016,
            "time": 141.473472,
            "velocity": 0.15748031496062992
          },
          {
            "duration": 2.52631199999999,
            "durationTicks": 1536,
            "midi": 74,
            "name": "D5",
            "ticks": 87552,
            "time": 143.999784,
            "velocity": 0.15748031496062992
          },
          {
            "duration": 2.52631199999999,
            "durationTicks": 1536,
            "midi": 69,
            "name": "A4",
            "ticks": 87552,
            "time": 143.999784,
            "velocity": 0.15748031496062992
          },
          {
            "duration": 2.52631199999999,
            "durationTicks": 1536,
            "midi": 66,
            "name": "F#4",
            "ticks": 87552,
            "time": 143.999784,
            "velocity": 0.15748031496062992
          },
          {
            "duration": 2.52631199999999,
            "durationTicks": 1536,
            "midi": 64,
            "name": "E4",
            "ticks": 89088,
            "time": 146.526096,
            "velocity": 0.15748031496062992
          },
          {
            "duration": 2.52631199999999,
            "durationTicks": 1536,
            "midi": 73,
            "name": "C#5",
            "ticks": 89088,
            "time": 146.526096,
            "velocity": 0.15748031496062992
          },
          {
            "duration": 2.52631199999999,
            "durationTicks": 1536,
            "midi": 68,
            "name": "G#4",
            "ticks": 89088,
            "time": 146.526096,
            "velocity": 0.15748031496062992
          },
          {
            "duration": 2.5263120000000185,
            "durationTicks": 1536,
            "midi": 68,
            "name": "G#4",
            "ticks": 90624,
            "time": 149.05240799999999,
            "velocity": 0.15748031496062992
          },
          {
            "duration": 2.5263120000000185,
            "durationTicks": 1536,
            "midi": 75,
            "name": "D#5",
            "ticks": 90624,
            "time": 149.05240799999999,
            "velocity": 0.15748031496062992
          },
          {
            "duration": 2.5263120000000185,
            "durationTicks": 1536,
            "midi": 71,
            "name": "B4",
            "ticks": 90624,
            "time": 149.05240799999999,
            "velocity": 0.15748031496062992
          },
          {
            "duration": 2.52631199999999,
            "durationTicks": 1536,
            "midi": 70,
            "name": "A#4",
            "ticks": 92160,
            "time": 151.57872,
            "velocity": 0.15748031496062992
          },
          {
            "duration": 2.52631199999999,
            "durationTicks": 1536,
            "midi": 73,
            "name": "C#5",
            "ticks": 92160,
            "time": 151.57872,
            "velocity": 0.15748031496062992
          },
          {
            "duration": 2.52631199999999,
            "durationTicks": 1536,
            "midi": 66,
            "name": "F#4",
            "ticks": 92160,
            "time": 151.57872,
            "velocity": 0.15748031496062992
          },
          {
            "duration": 2.52631199999999,
            "durationTicks": 1536,
            "midi": 66,
            "name": "F#4",
            "ticks": 93696,
            "time": 154.105032,
            "velocity": 0.15748031496062992
          },
          {
            "duration": 2.52631199999999,
            "durationTicks": 1536,
            "midi": 73,
            "name": "C#5",
            "ticks": 93696,
            "time": 154.105032,
            "velocity": 0.15748031496062992
          },
          {
            "duration": 2.52631199999999,
            "durationTicks": 1536,
            "midi": 74,
            "name": "D5",
            "ticks": 93696,
            "time": 154.105032,
            "velocity": 0.15748031496062992
          },
          {
            "duration": 2.5263120000000185,
            "durationTicks": 1536,
            "midi": 66,
            "name": "F#4",
            "ticks": 95232,
            "time": 156.63134399999998,
            "velocity": 0.15748031496062992
          },
          {
            "duration": 2.5263120000000185,
            "durationTicks": 1536,
            "midi": 69,
            "name": "A4",
            "ticks": 95232,
            "time": 156.63134399999998,
            "velocity": 0.15748031496062992
          },
          {
            "duration": 2.52631199999999,
            "durationTicks": 1536,
            "midi": 66,
            "name": "F#4",
            "ticks": 96768,
            "time": 159.157656,
            "velocity": 0.15748031496062992
          },
          {
            "duration": 2.52631199999999,
            "durationTicks": 1536,
            "midi": 63,
            "name": "D#4",
            "ticks": 96768,
            "time": 159.157656,
            "velocity": 0.15748031496062992
          },
          {
            "duration": 2.52631199999999,
            "durationTicks": 1536,
            "midi": 71,
            "name": "B4",
            "ticks": 96768,
            "time": 159.157656,
            "velocity": 0.15748031496062992
          },
          {
            "duration": 2.52631199999999,
            "durationTicks": 1536,
            "midi": 73,
            "name": "C#5",
            "ticks": 98304,
            "time": 161.683968,
            "velocity": 0.15748031496062992
          },
          {
            "duration": 2.52631199999999,
            "durationTicks": 1536,
            "midi": 66,
            "name": "F#4",
            "ticks": 98304,
            "time": 161.683968,
            "velocity": 0.15748031496062992
          },
          {
            "duration": 2.52631199999999,
            "durationTicks": 1536,
            "midi": 69,
            "name": "A4",
            "ticks": 98304,
            "time": 161.683968,
            "velocity": 0.15748031496062992
          },
          {
            "duration": 2.5263120000000185,
            "durationTicks": 1536,
            "midi": 75,
            "name": "D#5",
            "ticks": 99840,
            "time": 164.21027999999998,
            "velocity": 0.15748031496062992
          },
          {
            "duration": 2.5263120000000185,
            "durationTicks": 1536,
            "midi": 66,
            "name": "F#4",
            "ticks": 99840,
            "time": 164.21027999999998,
            "velocity": 0.15748031496062992
          },
          {
            "duration": 2.5263120000000185,
            "durationTicks": 1536,
            "midi": 71,
            "name": "B4",
            "ticks": 99840,
            "time": 164.21027999999998,
            "velocity": 0.15748031496062992
          },
          {
            "duration": 2.3684174999999925,
            "durationTicks": 1440,
            "midi": 71,
            "name": "B4",
            "ticks": 101376,
            "time": 166.736592,
            "velocity": 0.15748031496062992
          },
          {
            "duration": 2.3684174999999925,
            "durationTicks": 1440,
            "midi": 75,
            "name": "D#5",
            "ticks": 101376,
            "time": 166.736592,
            "velocity": 0.15748031496062992
          },
          {
            "duration": 2.3684174999999925,
            "durationTicks": 1440,
            "midi": 73,
            "name": "C#5",
            "ticks": 101376,
            "time": 166.736592,
            "velocity": 0.15748031496062992
          },
          {
            "duration": 2.3684174999999925,
            "durationTicks": 1440,
            "midi": 68,
            "name": "G#4",
            "ticks": 101376,
            "time": 166.736592,
            "velocity": 0.15748031496062992
          },
          {
            "duration": 2.3684174999999925,
            "durationTicks": 1440,
            "midi": 73,
            "name": "C#5",
            "ticks": 102912,
            "time": 169.262904,
            "velocity": 0.15748031496062992
          },
          {
            "duration": 2.3684174999999925,
            "durationTicks": 1440,
            "midi": 71,
            "name": "B4",
            "ticks": 102912,
            "time": 169.262904,
            "velocity": 0.15748031496062992
          },
          {
            "duration": 2.3684174999999925,
            "durationTicks": 1440,
            "midi": 69,
            "name": "A4",
            "ticks": 102912,
            "time": 169.262904,
            "velocity": 0.15748031496062992
          },
          {
            "duration": 2.3684174999999925,
            "durationTicks": 1440,
            "midi": 78,
            "name": "F#5",
            "ticks": 102912,
            "time": 169.262904,
            "velocity": 0.15748031496062992
          },
          {
            "duration": 2.368417500000021,
            "durationTicks": 1440,
            "midi": 71,
            "name": "B4",
            "ticks": 104448,
            "time": 171.78921599999998,
            "velocity": 0.15748031496062992
          },
          {
            "duration": 2.368417500000021,
            "durationTicks": 1440,
            "midi": 69,
            "name": "A4",
            "ticks": 104448,
            "time": 171.78921599999998,
            "velocity": 0.15748031496062992
          },
          {
            "duration": 2.368417500000021,
            "durationTicks": 1440,
            "midi": 74,
            "name": "D5",
            "ticks": 104448,
            "time": 171.78921599999998,
            "velocity": 0.15748031496062992
          },
          {
            "duration": 1.1052614999999832,
            "durationTicks": 672,
            "midi": 80,
            "name": "G#5",
            "ticks": 105984,
            "time": 174.315528,
            "velocity": 0.15748031496062992
          },
          {
            "duration": 1.1052614999999832,
            "durationTicks": 672,
            "midi": 76,
            "name": "E5",
            "ticks": 105984,
            "time": 174.315528,
            "velocity": 0.15748031496062992
          },
          {
            "duration": 1.1052614999999832,
            "durationTicks": 672,
            "midi": 83,
            "name": "B5",
            "ticks": 105984,
            "time": 174.315528,
            "velocity": 0.15748031496062992
          },
          {
            "duration": 1.1052615000000117,
            "durationTicks": 672,
            "midi": 80,
            "name": "G#5",
            "ticks": 106752,
            "time": 175.57868399999998,
            "velocity": 0.15748031496062992
          },
          {
            "duration": 1.1052615000000117,
            "durationTicks": 672,
            "midi": 73,
            "name": "C#5",
            "ticks": 106752,
            "time": 175.57868399999998,
            "velocity": 0.15748031496062992
          },
          {
            "duration": 1.1052615000000117,
            "durationTicks": 672,
            "midi": 78,
            "name": "F#5",
            "ticks": 106752,
            "time": 175.57868399999998,
            "velocity": 0.15748031496062992
          }
        ],
        "endOfTrackTicks": 107424
      },
      {
        "channel": 10,
        "controlChanges": {},
        "pitchBends": [],
        "instrument": {
          "family": "strings",
          "number": 43,
          "name": "contrabass"
        },
        "name": "Strings (Sustain)",
        "notes": [
          {
            "duration": 5.052624,
            "durationTicks": 3072,
            "midi": 37,
            "name": "C#2",
            "ticks": 0,
            "time": 0,
            "velocity": 0.13385826771653545
          },
          {
            "duration": 5.052624,
            "durationTicks": 3072,
            "midi": 49,
            "name": "C#3",
            "ticks": 0,
            "time": 0,
            "velocity": 0.13385826771653545
          },
          {
            "duration": 1.1052615000000001,
            "durationTicks": 672,
            "midi": 73,
            "name": "C#5",
            "ticks": 3072,
            "time": 5.052624,
            "velocity": 0.13385826771653545
          },
          {
            "duration": 5.052624,
            "durationTicks": 3072,
            "midi": 49,
            "name": "C#3",
            "ticks": 3072,
            "time": 5.052624,
            "velocity": 0.13385826771653545
          },
          {
            "duration": 5.052624,
            "durationTicks": 3072,
            "midi": 37,
            "name": "C#2",
            "ticks": 3072,
            "time": 5.052624,
            "velocity": 0.13385826771653545
          },
          {
            "duration": 1.1052615000000001,
            "durationTicks": 672,
            "midi": 64,
            "name": "E4",
            "ticks": 3072,
            "time": 5.052624,
            "velocity": 0.13385826771653545
          },
          {
            "duration": 1.1052614999999992,
            "durationTicks": 672,
            "midi": 71,
            "name": "B4",
            "ticks": 3840,
            "time": 6.31578,
            "velocity": 0.13385826771653545
          },
          {
            "duration": 1.1052614999999992,
            "durationTicks": 672,
            "midi": 63,
            "name": "D#4",
            "ticks": 3840,
            "time": 6.31578,
            "velocity": 0.13385826771653545
          },
          {
            "duration": 1.1052614999999992,
            "durationTicks": 672,
            "midi": 68,
            "name": "G#4",
            "ticks": 3840,
            "time": 6.31578,
            "velocity": 0.13385826771653545
          },
          {
            "duration": 1.1052615000000001,
            "durationTicks": 672,
            "midi": 68,
            "name": "G#4",
            "ticks": 4608,
            "time": 7.578936,
            "velocity": 0.13385826771653545
          },
          {
            "duration": 1.1052615000000001,
            "durationTicks": 672,
            "midi": 61,
            "name": "C#4",
            "ticks": 4608,
            "time": 7.578936,
            "velocity": 0.13385826771653545
          },
          {
            "duration": 1.1052615000000001,
            "durationTicks": 672,
            "midi": 63,
            "name": "D#4",
            "ticks": 4608,
            "time": 7.578936,
            "velocity": 0.13385826771653545
          },
          {
            "duration": 1.105261500000001,
            "durationTicks": 672,
            "midi": 61,
            "name": "C#4",
            "ticks": 5376,
            "time": 8.842092,
            "velocity": 0.13385826771653545
          },
          {
            "duration": 1.105261500000001,
            "durationTicks": 672,
            "midi": 68,
            "name": "G#4",
            "ticks": 5376,
            "time": 8.842092,
            "velocity": 0.13385826771653545
          },
          {
            "duration": 1.105261500000001,
            "durationTicks": 672,
            "midi": 64,
            "name": "E4",
            "ticks": 5376,
            "time": 8.842092,
            "velocity": 0.13385826771653545
          },
          {
            "duration": 5.052624,
            "durationTicks": 3072,
            "midi": 49,
            "name": "C#3",
            "ticks": 6144,
            "time": 10.105248,
            "velocity": 0.13385826771653545
          },
          {
            "duration": 5.052624,
            "durationTicks": 3072,
            "midi": 37,
            "name": "C#2",
            "ticks": 6144,
            "time": 10.105248,
            "velocity": 0.13385826771653545
          },
          {
            "duration": 1.1052614999999992,
            "durationTicks": 672,
            "midi": 64,
            "name": "E4",
            "ticks": 6144,
            "time": 10.105248,
            "velocity": 0.13385826771653545
          },
          {
            "duration": 1.1052614999999992,
            "durationTicks": 672,
            "midi": 68,
            "name": "G#4",
            "ticks": 6144,
            "time": 10.105248,
            "velocity": 0.13385826771653545
          },
          {
            "duration": 1.1052614999999992,
            "durationTicks": 672,
            "midi": 57,
            "name": "A3",
            "ticks": 6144,
            "time": 10.105248,
            "velocity": 0.13385826771653545
          },
          {
            "duration": 1.1052614999999992,
            "durationTicks": 672,
            "midi": 66,
            "name": "F#4",
            "ticks": 6912,
            "time": 11.368404,
            "velocity": 0.13385826771653545
          },
          {
            "duration": 1.1052614999999992,
            "durationTicks": 672,
            "midi": 63,
            "name": "D#4",
            "ticks": 6912,
            "time": 11.368404,
            "velocity": 0.13385826771653545
          },
          {
            "duration": 1.1052614999999992,
            "durationTicks": 672,
            "midi": 59,
            "name": "B3",
            "ticks": 6912,
            "time": 11.368404,
            "velocity": 0.13385826771653545
          },
          {
            "duration": 2.3684174999999996,
            "durationTicks": 1440,
            "midi": 56,
            "name": "G#3",
            "ticks": 7680,
            "time": 12.63156,
            "velocity": 0.13385826771653545
          },
          {
            "duration": 2.3684174999999996,
            "durationTicks": 1440,
            "midi": 64,
            "name": "E4",
            "ticks": 7680,
            "time": 12.63156,
            "velocity": 0.13385826771653545
          },
          {
            "duration": 2.3684174999999996,
            "durationTicks": 1440,
            "midi": 61,
            "name": "C#4",
            "ticks": 7680,
            "time": 12.63156,
            "velocity": 0.13385826771653545
          },
          {
            "duration": 2.526311999999999,
            "durationTicks": 1536,
            "midi": 50,
            "name": "D3",
            "ticks": 9216,
            "time": 15.157872,
            "velocity": 0.13385826771653545
          },
          {
            "duration": 2.526311999999999,
            "durationTicks": 1536,
            "midi": 38,
            "name": "D2",
            "ticks": 9216,
            "time": 15.157872,
            "velocity": 0.13385826771653545
          },
          {
            "duration": 1.1052614999999992,
            "durationTicks": 672,
            "midi": 59,
            "name": "B3",
            "ticks": 9216,
            "time": 15.157872,
            "velocity": 0.13385826771653545
          },
          {
            "duration": 1.1052614999999992,
            "durationTicks": 672,
            "midi": 68,
            "name": "G#4",
            "ticks": 9216,
            "time": 15.157872,
            "velocity": 0.13385826771653545
          },
          {
            "duration": 1.1052614999999992,
            "durationTicks": 672,
            "midi": 62,
            "name": "D4",
            "ticks": 9216,
            "time": 15.157872,
            "velocity": 0.13385826771653545
          },
          {
            "duration": 1.105261500000001,
            "durationTicks": 672,
            "midi": 61,
            "name": "C#4",
            "ticks": 9984,
            "time": 16.421028,
            "velocity": 0.13385826771653545
          },
          {
            "duration": 1.105261500000001,
            "durationTicks": 672,
            "midi": 69,
            "name": "A4",
            "ticks": 9984,
            "time": 16.421028,
            "velocity": 0.13385826771653545
          },
          {
            "duration": 1.105261500000001,
            "durationTicks": 672,
            "midi": 66,
            "name": "F#4",
            "ticks": 9984,
            "time": 16.421028,
            "velocity": 0.13385826771653545
          },
          {
            "duration": 1.105261500000001,
            "durationTicks": 672,
            "midi": 59,
            "name": "B3",
            "ticks": 10752,
            "time": 17.684184,
            "velocity": 0.13385826771653545
          },
          {
            "duration": 1.105261500000001,
            "durationTicks": 672,
            "midi": 64,
            "name": "E4",
            "ticks": 10752,
            "time": 17.684184,
            "velocity": 0.13385826771653545
          },
          {
            "duration": 2.526312000000001,
            "durationTicks": 1536,
            "midi": 37,
            "name": "C#2",
            "ticks": 10752,
            "time": 17.684184,
            "velocity": 0.13385826771653545
          },
          {
            "duration": 2.526312000000001,
            "durationTicks": 1536,
            "midi": 49,
            "name": "C#3",
            "ticks": 10752,
            "time": 17.684184,
            "velocity": 0.13385826771653545
          },
          {
            "duration": 1.105261500000001,
            "durationTicks": 672,
            "midi": 68,
            "name": "G#4",
            "ticks": 10752,
            "time": 17.684184,
            "velocity": 0.13385826771653545
          },
          {
            "duration": 1.105261500000001,
            "durationTicks": 672,
            "midi": 71,
            "name": "B4",
            "ticks": 10752,
            "time": 17.684184,
            "velocity": 0.13385826771653545
          },
          {
            "duration": 1.1052614999999975,
            "durationTicks": 672,
            "midi": 76,
            "name": "E5",
            "ticks": 11520,
            "time": 18.94734,
            "velocity": 0.13385826771653545
          },
          {
            "duration": 1.1052614999999975,
            "durationTicks": 672,
            "midi": 68,
            "name": "G#4",
            "ticks": 11520,
            "time": 18.94734,
            "velocity": 0.13385826771653545
          },
          {
            "duration": 1.1052614999999975,
            "durationTicks": 672,
            "midi": 71,
            "name": "B4",
            "ticks": 11520,
            "time": 18.94734,
            "velocity": 0.13385826771653545
          },
          {
            "duration": 1.1052614999999975,
            "durationTicks": 672,
            "midi": 64,
            "name": "E4",
            "ticks": 11520,
            "time": 18.94734,
            "velocity": 0.13385826771653545
          },
          {
            "duration": 2.3684174999999996,
            "durationTicks": 1440,
            "midi": 61,
            "name": "C#4",
            "ticks": 12288,
            "time": 20.210496,
            "velocity": 0.13385826771653545
          },
          {
            "duration": 2.526312000000001,
            "durationTicks": 1536,
            "midi": 54,
            "name": "F#3",
            "ticks": 12288,
            "time": 20.210496,
            "velocity": 0.13385826771653545
          },
          {
            "duration": 2.3684174999999996,
            "durationTicks": 1440,
            "midi": 68,
            "name": "G#4",
            "ticks": 12288,
            "time": 20.210496,
            "velocity": 0.13385826771653545
          },
          {
            "duration": 2.3684174999999996,
            "durationTicks": 1440,
            "midi": 73,
            "name": "C#5",
            "ticks": 12288,
            "time": 20.210496,
            "velocity": 0.13385826771653545
          },
          {
            "duration": 2.526312000000001,
            "durationTicks": 1536,
            "midi": 42,
            "name": "F#2",
            "ticks": 12288,
            "time": 20.210496,
            "velocity": 0.13385826771653545
          },
          {
            "duration": 2.3684174999999996,
            "durationTicks": 1440,
            "midi": 66,
            "name": "F#4",
            "ticks": 12288,
            "time": 20.210496,
            "velocity": 0.13385826771653545
          },
          {
            "duration": 2.526312000000001,
            "durationTicks": 1536,
            "midi": 40,
            "name": "E2",
            "ticks": 13824,
            "time": 22.736808,
            "velocity": 0.13385826771653545
          },
          {
            "duration": 2.526312000000001,
            "durationTicks": 1536,
            "midi": 52,
            "name": "E3",
            "ticks": 13824,
            "time": 22.736808,
            "velocity": 0.13385826771653545
          },
          {
            "duration": 2.3684174999999996,
            "durationTicks": 1440,
            "midi": 68,
            "name": "G#4",
            "ticks": 13824,
            "time": 22.736808,
            "velocity": 0.13385826771653545
          },
          {
            "duration": 2.3684174999999996,
            "durationTicks": 1440,
            "midi": 73,
            "name": "C#5",
            "ticks": 13824,
            "time": 22.736808,
            "velocity": 0.13385826771653545
          },
          {
            "duration": 2.3684174999999996,
            "durationTicks": 1440,
            "midi": 61,
            "name": "C#4",
            "ticks": 13824,
            "time": 22.736808,
            "velocity": 0.13385826771653545
          },
          {
            "duration": 2.3684174999999996,
            "durationTicks": 1440,
            "midi": 64,
            "name": "E4",
            "ticks": 13824,
            "time": 22.736808,
            "velocity": 0.13385826771653545
          },
          {
            "duration": 1.1052614999999975,
            "durationTicks": 672,
            "midi": 81,
            "name": "A5",
            "ticks": 15360,
            "time": 25.26312,
            "velocity": 0.13385826771653545
          },
          {
            "duration": 1.1052614999999975,
            "durationTicks": 672,
            "midi": 76,
            "name": "E5",
            "ticks": 15360,
            "time": 25.26312,
            "velocity": 0.13385826771653545
          },
          {
            "duration": 1.1052614999999975,
            "durationTicks": 672,
            "midi": 73,
            "name": "C#5",
            "ticks": 15360,
            "time": 25.26312,
            "velocity": 0.13385826771653545
          },
          {
            "duration": 1.2631559999999986,
            "durationTicks": 768,
            "midi": 45,
            "name": "A2",
            "ticks": 15360,
            "time": 25.26312,
            "velocity": 0.13385826771653545
          },
          {
            "duration": 1.1052614999999975,
            "durationTicks": 672,
            "midi": 73,
            "name": "C#5",
            "ticks": 15360,
            "time": 25.26312,
            "velocity": 0.13385826771653545
          },
          {
            "duration": 1.2631559999999986,
            "durationTicks": 768,
            "midi": 33,
            "name": "A1",
            "ticks": 15360,
            "time": 25.26312,
            "velocity": 0.13385826771653545
          },
          {
            "duration": 1.105261500000001,
            "durationTicks": 672,
            "midi": 83,
            "name": "B5",
            "ticks": 16128,
            "time": 26.526276,
            "velocity": 0.13385826771653545
          },
          {
            "duration": 1.2631559999999986,
            "durationTicks": 768,
            "midi": 47,
            "name": "B2",
            "ticks": 16128,
            "time": 26.526276,
            "velocity": 0.13385826771653545
          },
          {
            "duration": 1.105261500000001,
            "durationTicks": 672,
            "midi": 75,
            "name": "D#5",
            "ticks": 16128,
            "time": 26.526276,
            "velocity": 0.13385826771653545
          },
          {
            "duration": 1.105261500000001,
            "durationTicks": 672,
            "midi": 80,
            "name": "G#5",
            "ticks": 16128,
            "time": 26.526276,
            "velocity": 0.13385826771653545
          },
          {
            "duration": 1.105261500000001,
            "durationTicks": 672,
            "midi": 71,
            "name": "B4",
            "ticks": 16128,
            "time": 26.526276,
            "velocity": 0.13385826771653545
          },
          {
            "duration": 1.2631559999999986,
            "durationTicks": 768,
            "midi": 35,
            "name": "B1",
            "ticks": 16128,
            "time": 26.526276,
            "velocity": 0.13385826771653545
          },
          {
            "duration": 1.105261500000001,
            "durationTicks": 672,
            "midi": 76,
            "name": "E5",
            "ticks": 16896,
            "time": 27.789431999999998,
            "velocity": 0.13385826771653545
          },
          {
            "duration": 2.526312000000001,
            "durationTicks": 1536,
            "midi": 49,
            "name": "C#3",
            "ticks": 16896,
            "time": 27.789431999999998,
            "velocity": 0.13385826771653545
          },
          {
            "duration": 1.105261500000001,
            "durationTicks": 672,
            "midi": 68,
            "name": "G#4",
            "ticks": 16896,
            "time": 27.789431999999998,
            "velocity": 0.13385826771653545
          },
          {
            "duration": 1.105261500000001,
            "durationTicks": 672,
            "midi": 80,
            "name": "G#5",
            "ticks": 16896,
            "time": 27.789431999999998,
            "velocity": 0.13385826771653545
          },
          {
            "duration": 2.526312000000001,
            "durationTicks": 1536,
            "midi": 37,
            "name": "C#2",
            "ticks": 16896,
            "time": 27.789431999999998,
            "velocity": 0.13385826771653545
          },
          {
            "duration": 1.105261500000001,
            "durationTicks": 672,
            "midi": 75,
            "name": "D#5",
            "ticks": 16896,
            "time": 27.789431999999998,
            "velocity": 0.13385826771653545
          },
          {
            "duration": 1.1052614999999975,
            "durationTicks": 672,
            "midi": 80,
            "name": "G#5",
            "ticks": 17664,
            "time": 29.052588,
            "velocity": 0.13385826771653545
          },
          {
            "duration": 1.1052614999999975,
            "durationTicks": 672,
            "midi": 76,
            "name": "E5",
            "ticks": 17664,
            "time": 29.052588,
            "velocity": 0.13385826771653545
          },
          {
            "duration": 1.1052614999999975,
            "durationTicks": 672,
            "midi": 73,
            "name": "C#5",
            "ticks": 17664,
            "time": 29.052588,
            "velocity": 0.13385826771653545
          },
          {
            "duration": 1.1052614999999975,
            "durationTicks": 672,
            "midi": 68,
            "name": "G#4",
            "ticks": 17664,
            "time": 29.052588,
            "velocity": 0.13385826771653545
          },
          {
            "duration": 1.105261500000001,
            "durationTicks": 672,
            "midi": 75,
            "name": "D#5",
            "ticks": 18432,
            "time": 30.315744,
            "velocity": 0.13385826771653545
          },
          {
            "duration": 2.526312000000001,
            "durationTicks": 1536,
            "midi": 35,
            "name": "B1",
            "ticks": 18432,
            "time": 30.315744,
            "velocity": 0.13385826771653545
          },
          {
            "duration": 1.105261500000001,
            "durationTicks": 672,
            "midi": 68,
            "name": "G#4",
            "ticks": 18432,
            "time": 30.315744,
            "velocity": 0.13385826771653545
          },
          {
            "duration": 1.105261500000001,
            "durationTicks": 672,
            "midi": 71,
            "name": "B4",
            "ticks": 18432,
            "time": 30.315744,
            "velocity": 0.13385826771653545
          },
          {
            "duration": 1.105261500000001,
            "durationTicks": 672,
            "midi": 80,
            "name": "G#5",
            "ticks": 18432,
            "time": 30.315744,
            "velocity": 0.13385826771653545
          },
          {
            "duration": 2.526312000000001,
            "durationTicks": 1536,
            "midi": 47,
            "name": "B2",
            "ticks": 18432,
            "time": 30.315744,
            "velocity": 0.13385826771653545
          },
          {
            "duration": 1.1052615000000046,
            "durationTicks": 672,
            "midi": 66,
            "name": "F#4",
            "ticks": 19200,
            "time": 31.578899999999997,
            "velocity": 0.13385826771653545
          },
          {
            "duration": 1.1052615000000046,
            "durationTicks": 672,
            "midi": 71,
            "name": "B4",
            "ticks": 19200,
            "time": 31.578899999999997,
            "velocity": 0.13385826771653545
          },
          {
            "duration": 1.1052615000000046,
            "durationTicks": 672,
            "midi": 78,
            "name": "F#5",
            "ticks": 19200,
            "time": 31.578899999999997,
            "velocity": 0.13385826771653545
          },
          {
            "duration": 1.1052615000000046,
            "durationTicks": 672,
            "midi": 75,
            "name": "D#5",
            "ticks": 19200,
            "time": 31.578899999999997,
            "velocity": 0.13385826771653545
          },
          {
            "duration": 2.3684174999999996,
            "durationTicks": 1440,
            "midi": 66,
            "name": "F#4",
            "ticks": 19968,
            "time": 32.842056,
            "velocity": 0.13385826771653545
          },
          {
            "duration": 2.3684174999999996,
            "durationTicks": 1440,
            "midi": 70,
            "name": "A#4",
            "ticks": 19968,
            "time": 32.842056,
            "velocity": 0.13385826771653545
          },
          {
            "duration": 2.3684174999999996,
            "durationTicks": 1440,
            "midi": 61,
            "name": "C#4",
            "ticks": 19968,
            "time": 32.842056,
            "velocity": 0.13385826771653545
          },
          {
            "duration": 2.5263119999999972,
            "durationTicks": 1536,
            "midi": 42,
            "name": "F#2",
            "ticks": 19968,
            "time": 32.842056,
            "velocity": 0.13385826771653545
          },
          {
            "duration": 2.5263119999999972,
            "durationTicks": 1536,
            "midi": 30,
            "name": "F#1",
            "ticks": 19968,
            "time": 32.842056,
            "velocity": 0.13385826771653545
          },
          {
            "duration": 2.3684174999999996,
            "durationTicks": 1440,
            "midi": 73,
            "name": "C#5",
            "ticks": 19968,
            "time": 32.842056,
            "velocity": 0.13385826771653545
          },
          {
            "duration": 1.2631560000000022,
            "durationTicks": 768,
            "midi": 33,
            "name": "A1",
            "ticks": 21504,
            "time": 35.368368,
            "velocity": 0.13385826771653545
          },
          {
            "duration": 1.1052615000000046,
            "durationTicks": 672,
            "midi": 73,
            "name": "C#5",
            "ticks": 21504,
            "time": 35.368368,
            "velocity": 0.13385826771653545
          },
          {
            "duration": 1.1052615000000046,
            "durationTicks": 672,
            "midi": 61,
            "name": "C#4",
            "ticks": 21504,
            "time": 35.368368,
            "velocity": 0.13385826771653545
          },
          {
            "duration": 1.1052615000000046,
            "durationTicks": 672,
            "midi": 68,
            "name": "G#4",
            "ticks": 21504,
            "time": 35.368368,
            "velocity": 0.13385826771653545
          },
          {
            "duration": 1.1052615000000046,
            "durationTicks": 672,
            "midi": 64,
            "name": "E4",
            "ticks": 21504,
            "time": 35.368368,
            "velocity": 0.13385826771653545
          },
          {
            "duration": 1.2631560000000022,
            "durationTicks": 768,
            "midi": 45,
            "name": "A2",
            "ticks": 21504,
            "time": 35.368368,
            "velocity": 0.13385826771653545
          },
          {
            "duration": 1.2631560000000022,
            "durationTicks": 768,
            "midi": 35,
            "name": "B1",
            "ticks": 22272,
            "time": 36.631524,
            "velocity": 0.13385826771653545
          },
          {
            "duration": 1.2631560000000022,
            "durationTicks": 768,
            "midi": 47,
            "name": "B2",
            "ticks": 22272,
            "time": 36.631524,
            "velocity": 0.13385826771653545
          },
          {
            "duration": 1.1052614999999975,
            "durationTicks": 672,
            "midi": 63,
            "name": "D#4",
            "ticks": 22272,
            "time": 36.631524,
            "velocity": 0.13385826771653545
          },
          {
            "duration": 1.1052614999999975,
            "durationTicks": 672,
            "midi": 75,
            "name": "D#5",
            "ticks": 22272,
            "time": 36.631524,
            "velocity": 0.13385826771653545
          },
          {
            "duration": 1.1052614999999975,
            "durationTicks": 672,
            "midi": 71,
            "name": "B4",
            "ticks": 22272,
            "time": 36.631524,
            "velocity": 0.13385826771653545
          },
          {
            "duration": 1.1052614999999975,
            "durationTicks": 672,
            "midi": 66,
            "name": "F#4",
            "ticks": 22272,
            "time": 36.631524,
            "velocity": 0.13385826771653545
          },
          {
            "duration": 1.1052614999999975,
            "durationTicks": 672,
            "midi": 64,
            "name": "E4",
            "ticks": 23040,
            "time": 37.89468,
            "velocity": 0.13385826771653545
          },
          {
            "duration": 1.263155999999995,
            "durationTicks": 768,
            "midi": 49,
            "name": "C#3",
            "ticks": 23040,
            "time": 37.89468,
            "velocity": 0.13385826771653545
          },
          {
            "duration": 1.263155999999995,
            "durationTicks": 768,
            "midi": 37,
            "name": "C#2",
            "ticks": 23040,
            "time": 37.89468,
            "velocity": 0.13385826771653545
          },
          {
            "duration": 1.1052614999999975,
            "durationTicks": 672,
            "midi": 76,
            "name": "E5",
            "ticks": 23040,
            "time": 37.89468,
            "velocity": 0.13385826771653545
          },
          {
            "duration": 1.1052614999999975,
            "durationTicks": 672,
            "midi": 73,
            "name": "C#5",
            "ticks": 23040,
            "time": 37.89468,
            "velocity": 0.13385826771653545
          },
          {
            "duration": 1.1052614999999975,
            "durationTicks": 672,
            "midi": 68,
            "name": "G#4",
            "ticks": 23040,
            "time": 37.89468,
            "velocity": 0.13385826771653545
          },
          {
            "duration": 0.4736834999999999,
            "durationTicks": 288,
            "midi": 68,
            "name": "G#4",
            "ticks": 23808,
            "time": 39.157835999999996,
            "velocity": 0.13385826771653545
          },
          {
            "duration": 0.4736834999999999,
            "durationTicks": 288,
            "midi": 80,
            "name": "G#5",
            "ticks": 23808,
            "time": 39.157835999999996,
            "velocity": 0.13385826771653545
          },
          {
            "duration": 0.6315780000000046,
            "durationTicks": 384,
            "midi": 37,
            "name": "C#2",
            "ticks": 23808,
            "time": 39.157835999999996,
            "velocity": 0.13385826771653545
          },
          {
            "duration": 0.4736834999999999,
            "durationTicks": 288,
            "midi": 76,
            "name": "E5",
            "ticks": 23808,
            "time": 39.157835999999996,
            "velocity": 0.13385826771653545
          },
          {
            "duration": 0.6315780000000046,
            "durationTicks": 384,
            "midi": 49,
            "name": "C#3",
            "ticks": 23808,
            "time": 39.157835999999996,
            "velocity": 0.13385826771653545
          },
          {
            "duration": 0.4736834999999999,
            "durationTicks": 288,
            "midi": 73,
            "name": "C#5",
            "ticks": 23808,
            "time": 39.157835999999996,
            "velocity": 0.13385826771653545
          },
          {
            "duration": 0.4736834999999999,
            "durationTicks": 288,
            "midi": 75,
            "name": "D#5",
            "ticks": 24192,
            "time": 39.789414,
            "velocity": 0.13385826771653545
          },
          {
            "duration": 0.4736834999999999,
            "durationTicks": 288,
            "midi": 78,
            "name": "F#5",
            "ticks": 24192,
            "time": 39.789414,
            "velocity": 0.13385826771653545
          },
          {
            "duration": 0.4736834999999999,
            "durationTicks": 288,
            "midi": 71,
            "name": "B4",
            "ticks": 24192,
            "time": 39.789414,
            "velocity": 0.13385826771653545
          },
          {
            "duration": 0.6315779999999975,
            "durationTicks": 384,
            "midi": 47,
            "name": "B2",
            "ticks": 24192,
            "time": 39.789414,
            "velocity": 0.13385826771653545
          },
          {
            "duration": 0.6315779999999975,
            "durationTicks": 384,
            "midi": 35,
            "name": "B1",
            "ticks": 24192,
            "time": 39.789414,
            "velocity": 0.13385826771653545
          },
          {
            "duration": 0.4736834999999999,
            "durationTicks": 288,
            "midi": 66,
            "name": "F#4",
            "ticks": 24192,
            "time": 39.789414,
            "velocity": 0.13385826771653545
          },
          {
            "duration": 1.1052614999999975,
            "durationTicks": 672,
            "midi": 73,
            "name": "C#5",
            "ticks": 24576,
            "time": 40.420992,
            "velocity": 0.13385826771653545
          },
          {
            "duration": 1.2631560000000022,
            "durationTicks": 768,
            "midi": 46,
            "name": "A#2",
            "ticks": 24576,
            "time": 40.420992,
            "velocity": 0.13385826771653545
          },
          {
            "duration": 1.1052614999999975,
            "durationTicks": 672,
            "midi": 70,
            "name": "A#4",
            "ticks": 24576,
            "time": 40.420992,
            "velocity": 0.13385826771653545
          },
          {
            "duration": 1.2631560000000022,
            "durationTicks": 768,
            "midi": 34,
            "name": "A#1",
            "ticks": 24576,
            "time": 40.420992,
            "velocity": 0.13385826771653545
          },
          {
            "duration": 1.1052614999999975,
            "durationTicks": 672,
            "midi": 78,
            "name": "F#5",
            "ticks": 24576,
            "time": 40.420992,
            "velocity": 0.13385826771653545
          },
          {
            "duration": 1.1052614999999975,
            "durationTicks": 672,
            "midi": 66,
            "name": "F#4",
            "ticks": 24576,
            "time": 40.420992,
            "velocity": 0.13385826771653545
          },
          {
            "duration": 1.1052614999999975,
            "durationTicks": 672,
            "midi": 70,
            "name": "A#4",
            "ticks": 25344,
            "time": 41.684148,
            "velocity": 0.13385826771653545
          },
          {
            "duration": 1.1052614999999975,
            "durationTicks": 672,
            "midi": 66,
            "name": "F#4",
            "ticks": 25344,
            "time": 41.684148,
            "velocity": 0.13385826771653545
          },
          {
            "duration": 1.263155999999995,
            "durationTicks": 768,
            "midi": 42,
            "name": "F#2",
            "ticks": 25344,
            "time": 41.684148,
            "velocity": 0.13385826771653545
          },
          {
            "duration": 1.1052614999999975,
            "durationTicks": 672,
            "midi": 61,
            "name": "C#4",
            "ticks": 25344,
            "time": 41.684148,
            "velocity": 0.13385826771653545
          },
          {
            "duration": 1.263155999999995,
            "durationTicks": 768,
            "midi": 30,
            "name": "F#1",
            "ticks": 25344,
            "time": 41.684148,
            "velocity": 0.13385826771653545
          },
          {
            "duration": 1.1052614999999975,
            "durationTicks": 672,
            "midi": 73,
            "name": "C#5",
            "ticks": 25344,
            "time": 41.684148,
            "velocity": 0.13385826771653545
          },
          {
            "duration": 1.2631560000000022,
            "durationTicks": 768,
            "midi": 33,
            "name": "A1",
            "ticks": 26112,
            "time": 42.947303999999995,
            "velocity": 0.13385826771653545
          },
          {
            "duration": 1.2631560000000022,
            "durationTicks": 768,
            "midi": 45,
            "name": "A2",
            "ticks": 26112,
            "time": 42.947303999999995,
            "velocity": 0.13385826771653545
          },
          {
            "duration": 1.1052615000000046,
            "durationTicks": 672,
            "midi": 64,
            "name": "E4",
            "ticks": 26112,
            "time": 42.947303999999995,
            "velocity": 0.13385826771653545
          },
          {
            "duration": 1.1052615000000046,
            "durationTicks": 672,
            "midi": 69,
            "name": "A4",
            "ticks": 26112,
            "time": 42.947303999999995,
            "velocity": 0.13385826771653545
          },
          {
            "duration": 1.1052615000000046,
            "durationTicks": 672,
            "midi": 73,
            "name": "C#5",
            "ticks": 26112,
            "time": 42.947303999999995,
            "velocity": 0.13385826771653545
          },
          {
            "duration": 0.6315779999999975,
            "durationTicks": 384,
            "midi": 32,
            "name": "G#1",
            "ticks": 26880,
            "time": 44.21046,
            "velocity": 0.13385826771653545
          },
          {
            "duration": 1.1052614999999975,
            "durationTicks": 672,
            "midi": 68,
            "name": "G#4",
            "ticks": 26880,
            "time": 44.21046,
            "velocity": 0.13385826771653545
          },
          {
            "duration": 0.6315779999999975,
            "durationTicks": 384,
            "midi": 44,
            "name": "G#2",
            "ticks": 26880,
            "time": 44.21046,
            "velocity": 0.13385826771653545
          },
          {
            "duration": 1.1052614999999975,
            "durationTicks": 672,
            "midi": 73,
            "name": "C#5",
            "ticks": 26880,
            "time": 44.21046,
            "velocity": 0.13385826771653545
          },
          {
            "duration": 1.1052614999999975,
            "durationTicks": 672,
            "midi": 78,
            "name": "F#5",
            "ticks": 26880,
            "time": 44.21046,
            "velocity": 0.13385826771653545
          },
          {
            "duration": 0.6315780000000046,
            "durationTicks": 384,
            "midi": 47,
            "name": "B2",
            "ticks": 27264,
            "time": 44.842037999999995,
            "velocity": 0.13385826771653545
          },
          {
            "duration": 0.4736834999999999,
            "durationTicks": 288,
            "midi": 83,
            "name": "B5",
            "ticks": 27264,
            "time": 44.842037999999995,
            "velocity": 0.13385826771653545
          },
          {
            "duration": 0.6315780000000046,
            "durationTicks": 384,
            "midi": 35,
            "name": "B1",
            "ticks": 27264,
            "time": 44.842037999999995,
            "velocity": 0.13385826771653545
          },
          {
            "duration": 1.1052614999999975,
            "durationTicks": 672,
            "midi": 68,
            "name": "G#4",
            "ticks": 27648,
            "time": 45.473616,
            "velocity": 0.13385826771653545
          },
          {
            "duration": 1.263155999999995,
            "durationTicks": 768,
            "midi": 49,
            "name": "C#3",
            "ticks": 27648,
            "time": 45.473616,
            "velocity": 0.13385826771653545
          },
          {
            "duration": 1.1052614999999975,
            "durationTicks": 672,
            "midi": 73,
            "name": "C#5",
            "ticks": 27648,
            "time": 45.473616,
            "velocity": 0.13385826771653545
          },
          {
            "duration": 1.1052614999999975,
            "durationTicks": 672,
            "midi": 73,
            "name": "C#5",
            "ticks": 27648,
            "time": 45.473616,
            "velocity": 0.13385826771653545
          },
          {
            "duration": 1.1052614999999975,
            "durationTicks": 672,
            "midi": 80,
            "name": "G#5",
            "ticks": 27648,
            "time": 45.473616,
            "velocity": 0.13385826771653545
          },
          {
            "duration": 1.1052614999999975,
            "durationTicks": 672,
            "midi": 76,
            "name": "E5",
            "ticks": 27648,
            "time": 45.473616,
            "velocity": 0.13385826771653545
          },
          {
            "duration": 1.263155999999995,
            "durationTicks": 768,
            "midi": 37,
            "name": "C#2",
            "ticks": 27648,
            "time": 45.473616,
            "velocity": 0.13385826771653545
          },
          {
            "duration": 1.1052615000000046,
            "durationTicks": 672,
            "midi": 59,
            "name": "B3",
            "ticks": 28416,
            "time": 46.736771999999995,
            "velocity": 0.13385826771653545
          },
          {
            "duration": 1.1052615000000046,
            "durationTicks": 672,
            "midi": 66,
            "name": "F#4",
            "ticks": 28416,
            "time": 46.736771999999995,
            "velocity": 0.13385826771653545
          },
          {
            "duration": 1.1052615000000046,
            "durationTicks": 672,
            "midi": 63,
            "name": "D#4",
            "ticks": 28416,
            "time": 46.736771999999995,
            "velocity": 0.13385826771653545
          },
          {
            "duration": 1.1052615000000046,
            "durationTicks": 672,
            "midi": 56,
            "name": "G#3",
            "ticks": 28416,
            "time": 46.736771999999995,
            "velocity": 0.13385826771653545
          },
          {
            "duration": 2.3684174999999996,
            "durationTicks": 1440,
            "midi": 66,
            "name": "F#4",
            "ticks": 29184,
            "time": 47.999928,
            "velocity": 0.13385826771653545
          },
          {
            "duration": 2.3684174999999996,
            "durationTicks": 1440,
            "midi": 62,
            "name": "D4",
            "ticks": 29184,
            "time": 47.999928,
            "velocity": 0.13385826771653545
          },
          {
            "duration": 2.3684174999999996,
            "durationTicks": 1440,
            "midi": 61,
            "name": "C#4",
            "ticks": 29184,
            "time": 47.999928,
            "velocity": 0.13385826771653545
          },
          {
            "duration": 2.3684174999999996,
            "durationTicks": 1440,
            "midi": 57,
            "name": "A3",
            "ticks": 29184,
            "time": 47.999928,
            "velocity": 0.13385826771653545
          },
          {
            "duration": 2.3684174999999996,
            "durationTicks": 1440,
            "midi": 66,
            "name": "F#4",
            "ticks": 30720,
            "time": 50.52624,
            "velocity": 0.13385826771653545
          },
          {
            "duration": 2.3684174999999996,
            "durationTicks": 1440,
            "midi": 62,
            "name": "D4",
            "ticks": 30720,
            "time": 50.52624,
            "velocity": 0.13385826771653545
          },
          {
            "duration": 2.3684174999999996,
            "durationTicks": 1440,
            "midi": 57,
            "name": "A3",
            "ticks": 30720,
            "time": 50.52624,
            "velocity": 0.13385826771653545
          },
          {
            "duration": 2.3684174999999996,
            "durationTicks": 1440,
            "midi": 55,
            "name": "G3",
            "ticks": 30720,
            "time": 50.52624,
            "velocity": 0.13385826771653545
          },
          {
            "duration": 1.1052614999999975,
            "durationTicks": 672,
            "midi": 59,
            "name": "B3",
            "ticks": 32256,
            "time": 53.052552,
            "velocity": 0.13385826771653545
          },
          {
            "duration": 1.1052614999999975,
            "durationTicks": 672,
            "midi": 68,
            "name": "G#4",
            "ticks": 32256,
            "time": 53.052552,
            "velocity": 0.13385826771653545
          },
          {
            "duration": 1.1052614999999975,
            "durationTicks": 672,
            "midi": 71,
            "name": "B4",
            "ticks": 32256,
            "time": 53.052552,
            "velocity": 0.13385826771653545
          },
          {
            "duration": 1.1052614999999975,
            "durationTicks": 672,
            "midi": 64,
            "name": "E4",
            "ticks": 32256,
            "time": 53.052552,
            "velocity": 0.13385826771653545
          },
          {
            "duration": 1.1052614999999975,
            "durationTicks": 672,
            "midi": 73,
            "name": "C#5",
            "ticks": 33024,
            "time": 54.315708,
            "velocity": 0.13385826771653545
          },
          {
            "duration": 1.1052614999999975,
            "durationTicks": 672,
            "midi": 68,
            "name": "G#4",
            "ticks": 33024,
            "time": 54.315708,
            "velocity": 0.13385826771653545
          },
          {
            "duration": 1.1052614999999975,
            "durationTicks": 672,
            "midi": 66,
            "name": "F#4",
            "ticks": 33024,
            "time": 54.315708,
            "velocity": 0.13385826771653545
          },
          {
            "duration": 1.1052614999999975,
            "durationTicks": 672,
            "midi": 63,
            "name": "D#4",
            "ticks": 33024,
            "time": 54.315708,
            "velocity": 0.13385826771653545
          },
          {
            "duration": 2.3684174999999996,
            "durationTicks": 1440,
            "midi": 66,
            "name": "F#4",
            "ticks": 33792,
            "time": 55.578863999999996,
            "velocity": 0.13385826771653545
          },
          {
            "duration": 2.3684174999999996,
            "durationTicks": 1440,
            "midi": 59,
            "name": "B3",
            "ticks": 33792,
            "time": 55.578863999999996,
            "velocity": 0.13385826771653545
          },
          {
            "duration": 2.3684174999999996,
            "durationTicks": 1440,
            "midi": 63,
            "name": "D#4",
            "ticks": 33792,
            "time": 55.578863999999996,
            "velocity": 0.13385826771653545
          },
          {
            "duration": 2.3684174999999996,
            "durationTicks": 1440,
            "midi": 56,
            "name": "G#3",
            "ticks": 33792,
            "time": 55.578863999999996,
            "velocity": 0.13385826771653545
          },
          {
            "duration": 2.3684174999999996,
            "durationTicks": 1440,
            "midi": 62,
            "name": "D4",
            "ticks": 35328,
            "time": 58.105176,
            "velocity": 0.13385826771653545
          },
          {
            "duration": 2.3684174999999996,
            "durationTicks": 1440,
            "midi": 66,
            "name": "F#4",
            "ticks": 35328,
            "time": 58.105176,
            "velocity": 0.13385826771653545
          },
          {
            "duration": 2.3684174999999996,
            "durationTicks": 1440,
            "midi": 61,
            "name": "C#4",
            "ticks": 35328,
            "time": 58.105176,
            "velocity": 0.13385826771653545
          },
          {
            "duration": 2.3684174999999996,
            "durationTicks": 1440,
            "midi": 57,
            "name": "A3",
            "ticks": 35328,
            "time": 58.105176,
            "velocity": 0.13385826771653545
          },
          {
            "duration": 2.3684174999999996,
            "durationTicks": 1440,
            "midi": 66,
            "name": "F#4",
            "ticks": 36864,
            "time": 60.631488,
            "velocity": 0.13385826771653545
          },
          {
            "duration": 2.3684174999999996,
            "durationTicks": 1440,
            "midi": 62,
            "name": "D4",
            "ticks": 36864,
            "time": 60.631488,
            "velocity": 0.13385826771653545
          },
          {
            "duration": 2.3684174999999996,
            "durationTicks": 1440,
            "midi": 57,
            "name": "A3",
            "ticks": 36864,
            "time": 60.631488,
            "velocity": 0.13385826771653545
          },
          {
            "duration": 2.3684174999999996,
            "durationTicks": 1440,
            "midi": 55,
            "name": "G3",
            "ticks": 36864,
            "time": 60.631488,
            "velocity": 0.13385826771653545
          },
          {
            "duration": 1.1052614999999975,
            "durationTicks": 672,
            "midi": 71,
            "name": "B4",
            "ticks": 38400,
            "time": 63.157799999999995,
            "velocity": 0.13385826771653545
          },
          {
            "duration": 1.1052614999999975,
            "durationTicks": 672,
            "midi": 64,
            "name": "E4",
            "ticks": 38400,
            "time": 63.157799999999995,
            "velocity": 0.13385826771653545
          },
          {
            "duration": 1.1052614999999975,
            "durationTicks": 672,
            "midi": 59,
            "name": "B3",
            "ticks": 38400,
            "time": 63.157799999999995,
            "velocity": 0.13385826771653545
          },
          {
            "duration": 1.1052614999999975,
            "durationTicks": 672,
            "midi": 68,
            "name": "G#4",
            "ticks": 38400,
            "time": 63.157799999999995,
            "velocity": 0.13385826771653545
          },
          {
            "duration": 1.1052614999999975,
            "durationTicks": 672,
            "midi": 63,
            "name": "D#4",
            "ticks": 39168,
            "time": 64.420956,
            "velocity": 0.13385826771653545
          },
          {
            "duration": 1.1052614999999975,
            "durationTicks": 672,
            "midi": 68,
            "name": "G#4",
            "ticks": 39168,
            "time": 64.420956,
            "velocity": 0.13385826771653545
          },
          {
            "duration": 1.1052614999999975,
            "durationTicks": 672,
            "midi": 66,
            "name": "F#4",
            "ticks": 39168,
            "time": 64.420956,
            "velocity": 0.13385826771653545
          },
          {
            "duration": 1.1052614999999975,
            "durationTicks": 672,
            "midi": 73,
            "name": "C#5",
            "ticks": 39168,
            "time": 64.420956,
            "velocity": 0.13385826771653545
          },
          {
            "duration": 2.3684174999999925,
            "durationTicks": 1440,
            "midi": 75,
            "name": "D#5",
            "ticks": 39936,
            "time": 65.684112,
            "velocity": 0.13385826771653545
          },
          {
            "duration": 2.3684174999999925,
            "durationTicks": 1440,
            "midi": 73,
            "name": "C#5",
            "ticks": 39936,
            "time": 65.684112,
            "velocity": 0.13385826771653545
          },
          {
            "duration": 2.3684174999999925,
            "durationTicks": 1440,
            "midi": 71,
            "name": "B4",
            "ticks": 39936,
            "time": 65.684112,
            "velocity": 0.13385826771653545
          },
          {
            "duration": 2.3684174999999925,
            "durationTicks": 1440,
            "midi": 68,
            "name": "G#4",
            "ticks": 39936,
            "time": 65.684112,
            "velocity": 0.13385826771653545
          },
          {
            "duration": 2.3684174999999925,
            "durationTicks": 1440,
            "midi": 78,
            "name": "F#5",
            "ticks": 41472,
            "time": 68.210424,
            "velocity": 0.13385826771653545
          },
          {
            "duration": 2.3684174999999925,
            "durationTicks": 1440,
            "midi": 73,
            "name": "C#5",
            "ticks": 41472,
            "time": 68.210424,
            "velocity": 0.13385826771653545
          },
          {
            "duration": 2.3684174999999925,
            "durationTicks": 1440,
            "midi": 69,
            "name": "A4",
            "ticks": 41472,
            "time": 68.210424,
            "velocity": 0.13385826771653545
          },
          {
            "duration": 2.3684174999999925,
            "durationTicks": 1440,
            "midi": 71,
            "name": "B4",
            "ticks": 41472,
            "time": 68.210424,
            "velocity": 0.13385826771653545
          },
          {
            "duration": 2.3684175000000067,
            "durationTicks": 1440,
            "midi": 71,
            "name": "B4",
            "ticks": 43008,
            "time": 70.736736,
            "velocity": 0.13385826771653545
          },
          {
            "duration": 2.3684175000000067,
            "durationTicks": 1440,
            "midi": 69,
            "name": "A4",
            "ticks": 43008,
            "time": 70.736736,
            "velocity": 0.13385826771653545
          },
          {
            "duration": 2.3684175000000067,
            "durationTicks": 1440,
            "midi": 74,
            "name": "D5",
            "ticks": 43008,
            "time": 70.736736,
            "velocity": 0.13385826771653545
          },
          {
            "duration": 1.1052614999999975,
            "durationTicks": 672,
            "midi": 83,
            "name": "B5",
            "ticks": 44544,
            "time": 73.263048,
            "velocity": 0.13385826771653545
          },
          {
            "duration": 1.1052614999999975,
            "durationTicks": 672,
            "midi": 80,
            "name": "G#5",
            "ticks": 44544,
            "time": 73.263048,
            "velocity": 0.13385826771653545
          },
          {
            "duration": 1.1052614999999975,
            "durationTicks": 672,
            "midi": 76,
            "name": "E5",
            "ticks": 44544,
            "time": 73.263048,
            "velocity": 0.13385826771653545
          },
          {
            "duration": 1.1052614999999975,
            "durationTicks": 672,
            "midi": 78,
            "name": "F#5",
            "ticks": 45312,
            "time": 74.52620399999999,
            "velocity": 0.13385826771653545
          },
          {
            "duration": 1.1052614999999975,
            "durationTicks": 672,
            "midi": 73,
            "name": "C#5",
            "ticks": 45312,
            "time": 74.52620399999999,
            "velocity": 0.13385826771653545
          },
          {
            "duration": 1.1052614999999975,
            "durationTicks": 672,
            "midi": 80,
            "name": "G#5",
            "ticks": 45312,
            "time": 74.52620399999999,
            "velocity": 0.13385826771653545
          },
          {
            "duration": 2.3684174999999925,
            "durationTicks": 1440,
            "midi": 71,
            "name": "B4",
            "ticks": 46080,
            "time": 75.78936,
            "velocity": 0.13385826771653545
          },
          {
            "duration": 2.3684174999999925,
            "durationTicks": 1440,
            "midi": 68,
            "name": "G#4",
            "ticks": 46080,
            "time": 75.78936,
            "velocity": 0.13385826771653545
          },
          {
            "duration": 2.3684174999999925,
            "durationTicks": 1440,
            "midi": 75,
            "name": "D#5",
            "ticks": 46080,
            "time": 75.78936,
            "velocity": 0.13385826771653545
          },
          {
            "duration": 2.3684174999999925,
            "durationTicks": 1440,
            "midi": 73,
            "name": "C#5",
            "ticks": 46080,
            "time": 75.78936,
            "velocity": 0.13385826771653545
          },
          {
            "duration": 2.3684175000000067,
            "durationTicks": 1440,
            "midi": 78,
            "name": "F#5",
            "ticks": 47616,
            "time": 78.31567199999999,
            "velocity": 0.13385826771653545
          },
          {
            "duration": 2.3684175000000067,
            "durationTicks": 1440,
            "midi": 69,
            "name": "A4",
            "ticks": 47616,
            "time": 78.31567199999999,
            "velocity": 0.13385826771653545
          },
          {
            "duration": 2.3684175000000067,
            "durationTicks": 1440,
            "midi": 71,
            "name": "B4",
            "ticks": 47616,
            "time": 78.31567199999999,
            "velocity": 0.13385826771653545
          },
          {
            "duration": 2.3684175000000067,
            "durationTicks": 1440,
            "midi": 73,
            "name": "C#5",
            "ticks": 47616,
            "time": 78.31567199999999,
            "velocity": 0.13385826771653545
          },
          {
            "duration": 2.3684175000000067,
            "durationTicks": 1440,
            "midi": 69,
            "name": "A4",
            "ticks": 49152,
            "time": 80.841984,
            "velocity": 0.13385826771653545
          },
          {
            "duration": 2.3684175000000067,
            "durationTicks": 1440,
            "midi": 71,
            "name": "B4",
            "ticks": 49152,
            "time": 80.841984,
            "velocity": 0.13385826771653545
          },
          {
            "duration": 2.3684175000000067,
            "durationTicks": 1440,
            "midi": 74,
            "name": "D5",
            "ticks": 49152,
            "time": 80.841984,
            "velocity": 0.13385826771653545
          },
          {
            "duration": 1.1052614999999975,
            "durationTicks": 672,
            "midi": 83,
            "name": "B5",
            "ticks": 50688,
            "time": 83.368296,
            "velocity": 0.13385826771653545
          },
          {
            "duration": 1.1052614999999975,
            "durationTicks": 672,
            "midi": 80,
            "name": "G#5",
            "ticks": 50688,
            "time": 83.368296,
            "velocity": 0.13385826771653545
          },
          {
            "duration": 1.1052614999999975,
            "durationTicks": 672,
            "midi": 76,
            "name": "E5",
            "ticks": 50688,
            "time": 83.368296,
            "velocity": 0.13385826771653545
          },
          {
            "duration": 1.1052614999999975,
            "durationTicks": 672,
            "midi": 73,
            "name": "C#5",
            "ticks": 51456,
            "time": 84.631452,
            "velocity": 0.13385826771653545
          },
          {
            "duration": 1.1052614999999975,
            "durationTicks": 672,
            "midi": 78,
            "name": "F#5",
            "ticks": 51456,
            "time": 84.631452,
            "velocity": 0.13385826771653545
          },
          {
            "duration": 1.1052614999999975,
            "durationTicks": 672,
            "midi": 80,
            "name": "G#5",
            "ticks": 51456,
            "time": 84.631452,
            "velocity": 0.13385826771653545
          },
          {
            "duration": 2.5263120000000043,
            "durationTicks": 1536,
            "midi": 57,
            "name": "A3",
            "ticks": 52224,
            "time": 85.89460799999999,
            "velocity": 0.13385826771653545
          },
          {
            "duration": 2.5263120000000043,
            "durationTicks": 1536,
            "midi": 61,
            "name": "C#4",
            "ticks": 52224,
            "time": 85.89460799999999,
            "velocity": 0.13385826771653545
          },
          {
            "duration": 2.5263120000000043,
            "durationTicks": 1536,
            "midi": 69,
            "name": "A4",
            "ticks": 52224,
            "time": 85.89460799999999,
            "velocity": 0.13385826771653545
          },
          {
            "duration": 2.5263120000000043,
            "durationTicks": 1536,
            "midi": 64,
            "name": "E4",
            "ticks": 52224,
            "time": 85.89460799999999,
            "velocity": 0.13385826771653545
          },
          {
            "duration": 2.5263120000000043,
            "durationTicks": 1536,
            "midi": 66,
            "name": "F#4",
            "ticks": 53760,
            "time": 88.42092,
            "velocity": 0.13385826771653545
          },
          {
            "duration": 2.5263120000000043,
            "durationTicks": 1536,
            "midi": 63,
            "name": "D#4",
            "ticks": 53760,
            "time": 88.42092,
            "velocity": 0.13385826771653545
          },
          {
            "duration": 2.5263120000000043,
            "durationTicks": 1536,
            "midi": 59,
            "name": "B3",
            "ticks": 53760,
            "time": 88.42092,
            "velocity": 0.13385826771653545
          },
          {
            "duration": 2.5263120000000043,
            "durationTicks": 1536,
            "midi": 71,
            "name": "B4",
            "ticks": 53760,
            "time": 88.42092,
            "velocity": 0.13385826771653545
          },
          {
            "duration": 2.52631199999999,
            "durationTicks": 1536,
            "midi": 64,
            "name": "E4",
            "ticks": 55296,
            "time": 90.947232,
            "velocity": 0.13385826771653545
          },
          {
            "duration": 2.52631199999999,
            "durationTicks": 1536,
            "midi": 68,
            "name": "G#4",
            "ticks": 55296,
            "time": 90.947232,
            "velocity": 0.13385826771653545
          },
          {
            "duration": 2.52631199999999,
            "durationTicks": 1536,
            "midi": 61,
            "name": "C#4",
            "ticks": 55296,
            "time": 90.947232,
            "velocity": 0.13385826771653545
          },
          {
            "duration": 2.52631199999999,
            "durationTicks": 1536,
            "midi": 73,
            "name": "C#5",
            "ticks": 55296,
            "time": 90.947232,
            "velocity": 0.13385826771653545
          },
          {
            "duration": 2.5263120000000043,
            "durationTicks": 1536,
            "midi": 63,
            "name": "D#4",
            "ticks": 56832,
            "time": 93.47354399999999,
            "velocity": 0.13385826771653545
          },
          {
            "duration": 2.5263120000000043,
            "durationTicks": 1536,
            "midi": 59,
            "name": "B3",
            "ticks": 56832,
            "time": 93.47354399999999,
            "velocity": 0.13385826771653545
          },
          {
            "duration": 2.5263120000000043,
            "durationTicks": 1536,
            "midi": 71,
            "name": "B4",
            "ticks": 56832,
            "time": 93.47354399999999,
            "velocity": 0.13385826771653545
          },
          {
            "duration": 2.5263120000000043,
            "durationTicks": 1536,
            "midi": 66,
            "name": "F#4",
            "ticks": 56832,
            "time": 93.47354399999999,
            "velocity": 0.13385826771653545
          },
          {
            "duration": 2.5263120000000043,
            "durationTicks": 1536,
            "midi": 57,
            "name": "A3",
            "ticks": 58368,
            "time": 95.999856,
            "velocity": 0.13385826771653545
          },
          {
            "duration": 2.5263120000000043,
            "durationTicks": 1536,
            "midi": 64,
            "name": "E4",
            "ticks": 58368,
            "time": 95.999856,
            "velocity": 0.13385826771653545
          },
          {
            "duration": 2.5263120000000043,
            "durationTicks": 1536,
            "midi": 61,
            "name": "C#4",
            "ticks": 58368,
            "time": 95.999856,
            "velocity": 0.13385826771653545
          },
          {
            "duration": 2.5263120000000043,
            "durationTicks": 1536,
            "midi": 69,
            "name": "A4",
            "ticks": 58368,
            "time": 95.999856,
            "velocity": 0.13385826771653545
          },
          {
            "duration": 2.5263120000000043,
            "durationTicks": 1536,
            "midi": 71,
            "name": "B4",
            "ticks": 59904,
            "time": 98.526168,
            "velocity": 0.13385826771653545
          },
          {
            "duration": 2.5263120000000043,
            "durationTicks": 1536,
            "midi": 66,
            "name": "F#4",
            "ticks": 59904,
            "time": 98.526168,
            "velocity": 0.13385826771653545
          },
          {
            "duration": 2.5263120000000043,
            "durationTicks": 1536,
            "midi": 63,
            "name": "D#4",
            "ticks": 59904,
            "time": 98.526168,
            "velocity": 0.13385826771653545
          },
          {
            "duration": 2.5263120000000043,
            "durationTicks": 1536,
            "midi": 59,
            "name": "B3",
            "ticks": 59904,
            "time": 98.526168,
            "velocity": 0.13385826771653545
          },
          {
            "duration": 2.52631199999999,
            "durationTicks": 1536,
            "midi": 61,
            "name": "C#4",
            "ticks": 61440,
            "time": 101.05248,
            "velocity": 0.13385826771653545
          },
          {
            "duration": 2.52631199999999,
            "durationTicks": 1536,
            "midi": 64,
            "name": "E4",
            "ticks": 61440,
            "time": 101.05248,
            "velocity": 0.13385826771653545
          },
          {
            "duration": 2.52631199999999,
            "durationTicks": 1536,
            "midi": 73,
            "name": "C#5",
            "ticks": 61440,
            "time": 101.05248,
            "velocity": 0.13385826771653545
          },
          {
            "duration": 2.52631199999999,
            "durationTicks": 1536,
            "midi": 68,
            "name": "G#4",
            "ticks": 61440,
            "time": 101.05248,
            "velocity": 0.13385826771653545
          },
          {
            "duration": 2.5263120000000043,
            "durationTicks": 1536,
            "midi": 66,
            "name": "F#4",
            "ticks": 62976,
            "time": 103.57879199999999,
            "velocity": 0.13385826771653545
          },
          {
            "duration": 2.5263120000000043,
            "durationTicks": 1536,
            "midi": 75,
            "name": "D#5",
            "ticks": 62976,
            "time": 103.57879199999999,
            "velocity": 0.13385826771653545
          },
          {
            "duration": 2.5263120000000043,
            "durationTicks": 1536,
            "midi": 71,
            "name": "B4",
            "ticks": 62976,
            "time": 103.57879199999999,
            "velocity": 0.13385826771653545
          },
          {
            "duration": 2.5263120000000043,
            "durationTicks": 1536,
            "midi": 63,
            "name": "D#4",
            "ticks": 62976,
            "time": 103.57879199999999,
            "velocity": 0.13385826771653545
          },
          {
            "duration": 2.5263120000000043,
            "durationTicks": 1536,
            "midi": 69,
            "name": "A4",
            "ticks": 64512,
            "time": 106.105104,
            "velocity": 0.13385826771653545
          },
          {
            "duration": 2.5263120000000043,
            "durationTicks": 1536,
            "midi": 64,
            "name": "E4",
            "ticks": 64512,
            "time": 106.105104,
            "velocity": 0.13385826771653545
          },
          {
            "duration": 2.5263120000000043,
            "durationTicks": 1536,
            "midi": 61,
            "name": "C#4",
            "ticks": 64512,
            "time": 106.105104,
            "velocity": 0.13385826771653545
          },
          {
            "duration": 2.5263120000000043,
            "durationTicks": 1536,
            "midi": 57,
            "name": "A3",
            "ticks": 64512,
            "time": 106.105104,
            "velocity": 0.13385826771653545
          },
          {
            "duration": 2.52631199999999,
            "durationTicks": 1536,
            "midi": 66,
            "name": "F#4",
            "ticks": 66048,
            "time": 108.631416,
            "velocity": 0.13385826771653545
          },
          {
            "duration": 2.52631199999999,
            "durationTicks": 1536,
            "midi": 59,
            "name": "B3",
            "ticks": 66048,
            "time": 108.631416,
            "velocity": 0.13385826771653545
          },
          {
            "duration": 2.52631199999999,
            "durationTicks": 1536,
            "midi": 71,
            "name": "B4",
            "ticks": 66048,
            "time": 108.631416,
            "velocity": 0.13385826771653545
          },
          {
            "duration": 2.52631199999999,
            "durationTicks": 1536,
            "midi": 63,
            "name": "D#4",
            "ticks": 66048,
            "time": 108.631416,
            "velocity": 0.13385826771653545
          },
          {
            "duration": 2.5263120000000043,
            "durationTicks": 1536,
            "midi": 64,
            "name": "E4",
            "ticks": 67584,
            "time": 111.15772799999999,
            "velocity": 0.13385826771653545
          },
          {
            "duration": 2.5263120000000043,
            "durationTicks": 1536,
            "midi": 68,
            "name": "G#4",
            "ticks": 67584,
            "time": 111.15772799999999,
            "velocity": 0.13385826771653545
          },
          {
            "duration": 2.5263120000000043,
            "durationTicks": 1536,
            "midi": 61,
            "name": "C#4",
            "ticks": 67584,
            "time": 111.15772799999999,
            "velocity": 0.13385826771653545
          },
          {
            "duration": 2.5263120000000043,
            "durationTicks": 1536,
            "midi": 73,
            "name": "C#5",
            "ticks": 67584,
            "time": 111.15772799999999,
            "velocity": 0.13385826771653545
          },
          {
            "duration": 2.5263120000000043,
            "durationTicks": 1536,
            "midi": 71,
            "name": "B4",
            "ticks": 69120,
            "time": 113.68404,
            "velocity": 0.13385826771653545
          },
          {
            "duration": 2.5263120000000043,
            "durationTicks": 1536,
            "midi": 63,
            "name": "D#4",
            "ticks": 69120,
            "time": 113.68404,
            "velocity": 0.13385826771653545
          },
          {
            "duration": 2.5263120000000043,
            "durationTicks": 1536,
            "midi": 59,
            "name": "B3",
            "ticks": 69120,
            "time": 113.68404,
            "velocity": 0.13385826771653545
          },
          {
            "duration": 2.5263120000000043,
            "durationTicks": 1536,
            "midi": 66,
            "name": "F#4",
            "ticks": 69120,
            "time": 113.68404,
            "velocity": 0.13385826771653545
          },
          {
            "duration": 2.52631199999999,
            "durationTicks": 1536,
            "midi": 69,
            "name": "A4",
            "ticks": 70656,
            "time": 116.210352,
            "velocity": 0.13385826771653545
          },
          {
            "duration": 2.52631199999999,
            "durationTicks": 1536,
            "midi": 57,
            "name": "A3",
            "ticks": 70656,
            "time": 116.210352,
            "velocity": 0.13385826771653545
          },
          {
            "duration": 2.52631199999999,
            "durationTicks": 1536,
            "midi": 64,
            "name": "E4",
            "ticks": 70656,
            "time": 116.210352,
            "velocity": 0.13385826771653545
          },
          {
            "duration": 2.52631199999999,
            "durationTicks": 1536,
            "midi": 61,
            "name": "C#4",
            "ticks": 70656,
            "time": 116.210352,
            "velocity": 0.13385826771653545
          },
          {
            "duration": 2.5263120000000043,
            "durationTicks": 1536,
            "midi": 59,
            "name": "B3",
            "ticks": 72192,
            "time": 118.73666399999999,
            "velocity": 0.13385826771653545
          },
          {
            "duration": 2.5263120000000043,
            "durationTicks": 1536,
            "midi": 71,
            "name": "B4",
            "ticks": 72192,
            "time": 118.73666399999999,
            "velocity": 0.13385826771653545
          },
          {
            "duration": 2.5263120000000043,
            "durationTicks": 1536,
            "midi": 63,
            "name": "D#4",
            "ticks": 72192,
            "time": 118.73666399999999,
            "velocity": 0.13385826771653545
          },
          {
            "duration": 2.5263120000000043,
            "durationTicks": 1536,
            "midi": 66,
            "name": "F#4",
            "ticks": 72192,
            "time": 118.73666399999999,
            "velocity": 0.13385826771653545
          },
          {
            "duration": 2.5263120000000043,
            "durationTicks": 1536,
            "midi": 64,
            "name": "E4",
            "ticks": 73728,
            "time": 121.262976,
            "velocity": 0.13385826771653545
          },
          {
            "duration": 2.5263120000000043,
            "durationTicks": 1536,
            "midi": 68,
            "name": "G#4",
            "ticks": 73728,
            "time": 121.262976,
            "velocity": 0.13385826771653545
          },
          {
            "duration": 2.5263120000000043,
            "durationTicks": 1536,
            "midi": 61,
            "name": "C#4",
            "ticks": 73728,
            "time": 121.262976,
            "velocity": 0.13385826771653545
          },
          {
            "duration": 2.5263120000000043,
            "durationTicks": 1536,
            "midi": 73,
            "name": "C#5",
            "ticks": 73728,
            "time": 121.262976,
            "velocity": 0.13385826771653545
          },
          {
            "duration": 2.52631199999999,
            "durationTicks": 1536,
            "midi": 71,
            "name": "B4",
            "ticks": 75264,
            "time": 123.789288,
            "velocity": 0.13385826771653545
          },
          {
            "duration": 2.52631199999999,
            "durationTicks": 1536,
            "midi": 63,
            "name": "D#4",
            "ticks": 75264,
            "time": 123.789288,
            "velocity": 0.13385826771653545
          },
          {
            "duration": 2.52631199999999,
            "durationTicks": 1536,
            "midi": 75,
            "name": "D#5",
            "ticks": 75264,
            "time": 123.789288,
            "velocity": 0.13385826771653545
          },
          {
            "duration": 2.52631199999999,
            "durationTicks": 1536,
            "midi": 66,
            "name": "F#4",
            "ticks": 75264,
            "time": 123.789288,
            "velocity": 0.13385826771653545
          },
          {
            "duration": 2.5263120000000185,
            "durationTicks": 1536,
            "midi": 64,
            "name": "E4",
            "ticks": 76800,
            "time": 126.31559999999999,
            "velocity": 0.13385826771653545
          },
          {
            "duration": 2.5263120000000185,
            "durationTicks": 1536,
            "midi": 73,
            "name": "C#5",
            "ticks": 76800,
            "time": 126.31559999999999,
            "velocity": 0.13385826771653545
          },
          {
            "duration": 2.5263120000000185,
            "durationTicks": 1536,
            "midi": 68,
            "name": "G#4",
            "ticks": 76800,
            "time": 126.31559999999999,
            "velocity": 0.13385826771653545
          },
          {
            "duration": 2.52631199999999,
            "durationTicks": 1536,
            "midi": 75,
            "name": "D#5",
            "ticks": 78336,
            "time": 128.841912,
            "velocity": 0.13385826771653545
          },
          {
            "duration": 2.52631199999999,
            "durationTicks": 1536,
            "midi": 71,
            "name": "B4",
            "ticks": 78336,
            "time": 128.841912,
            "velocity": 0.13385826771653545
          },
          {
            "duration": 2.52631199999999,
            "durationTicks": 1536,
            "midi": 68,
            "name": "G#4",
            "ticks": 78336,
            "time": 128.841912,
            "velocity": 0.13385826771653545
          },
          {
            "duration": 2.52631199999999,
            "durationTicks": 1536,
            "midi": 70,
            "name": "A#4",
            "ticks": 79872,
            "time": 131.368224,
            "velocity": 0.13385826771653545
          },
          {
            "duration": 2.52631199999999,
            "durationTicks": 1536,
            "midi": 73,
            "name": "C#5",
            "ticks": 79872,
            "time": 131.368224,
            "velocity": 0.13385826771653545
          },
          {
            "duration": 2.52631199999999,
            "durationTicks": 1536,
            "midi": 66,
            "name": "F#4",
            "ticks": 79872,
            "time": 131.368224,
            "velocity": 0.13385826771653545
          },
          {
            "duration": 2.5263120000000185,
            "durationTicks": 1536,
            "midi": 73,
            "name": "C#5",
            "ticks": 81408,
            "time": 133.894536,
            "velocity": 0.13385826771653545
          },
          {
            "duration": 2.5263120000000185,
            "durationTicks": 1536,
            "midi": 74,
            "name": "D5",
            "ticks": 81408,
            "time": 133.894536,
            "velocity": 0.13385826771653545
          },
          {
            "duration": 2.5263120000000185,
            "durationTicks": 1536,
            "midi": 66,
            "name": "F#4",
            "ticks": 81408,
            "time": 133.894536,
            "velocity": 0.13385826771653545
          },
          {
            "duration": 2.52631199999999,
            "durationTicks": 1536,
            "midi": 66,
            "name": "F#4",
            "ticks": 82944,
            "time": 136.420848,
            "velocity": 0.13385826771653545
          },
          {
            "duration": 2.52631199999999,
            "durationTicks": 1536,
            "midi": 69,
            "name": "A4",
            "ticks": 82944,
            "time": 136.420848,
            "velocity": 0.13385826771653545
          },
          {
            "duration": 2.52631199999999,
            "durationTicks": 1536,
            "midi": 71,
            "name": "B4",
            "ticks": 84480,
            "time": 138.94716,
            "velocity": 0.13385826771653545
          },
          {
            "duration": 2.52631199999999,
            "durationTicks": 1536,
            "midi": 66,
            "name": "F#4",
            "ticks": 84480,
            "time": 138.94716,
            "velocity": 0.13385826771653545
          },
          {
            "duration": 2.52631199999999,
            "durationTicks": 1536,
            "midi": 63,
            "name": "D#4",
            "ticks": 84480,
            "time": 138.94716,
            "velocity": 0.13385826771653545
          },
          {
            "duration": 2.5263120000000185,
            "durationTicks": 1536,
            "midi": 69,
            "name": "A4",
            "ticks": 86016,
            "time": 141.473472,
            "velocity": 0.13385826771653545
          },
          {
            "duration": 2.5263120000000185,
            "durationTicks": 1536,
            "midi": 66,
            "name": "F#4",
            "ticks": 86016,
            "time": 141.473472,
            "velocity": 0.13385826771653545
          },
          {
            "duration": 2.5263120000000185,
            "durationTicks": 1536,
            "midi": 73,
            "name": "C#5",
            "ticks": 86016,
            "time": 141.473472,
            "velocity": 0.13385826771653545
          },
          {
            "duration": 2.52631199999999,
            "durationTicks": 1536,
            "midi": 74,
            "name": "D5",
            "ticks": 87552,
            "time": 143.999784,
            "velocity": 0.13385826771653545
          },
          {
            "duration": 2.52631199999999,
            "durationTicks": 1536,
            "midi": 66,
            "name": "F#4",
            "ticks": 87552,
            "time": 143.999784,
            "velocity": 0.13385826771653545
          },
          {
            "duration": 2.52631199999999,
            "durationTicks": 1536,
            "midi": 69,
            "name": "A4",
            "ticks": 87552,
            "time": 143.999784,
            "velocity": 0.13385826771653545
          },
          {
            "duration": 2.52631199999999,
            "durationTicks": 1536,
            "midi": 73,
            "name": "C#5",
            "ticks": 89088,
            "time": 146.526096,
            "velocity": 0.13385826771653545
          },
          {
            "duration": 2.52631199999999,
            "durationTicks": 1536,
            "midi": 68,
            "name": "G#4",
            "ticks": 89088,
            "time": 146.526096,
            "velocity": 0.13385826771653545
          },
          {
            "duration": 2.52631199999999,
            "durationTicks": 1536,
            "midi": 64,
            "name": "E4",
            "ticks": 89088,
            "time": 146.526096,
            "velocity": 0.13385826771653545
          },
          {
            "duration": 2.5263120000000185,
            "durationTicks": 1536,
            "midi": 68,
            "name": "G#4",
            "ticks": 90624,
            "time": 149.05240799999999,
            "velocity": 0.13385826771653545
          },
          {
            "duration": 2.5263120000000185,
            "durationTicks": 1536,
            "midi": 71,
            "name": "B4",
            "ticks": 90624,
            "time": 149.05240799999999,
            "velocity": 0.13385826771653545
          },
          {
            "duration": 2.5263120000000185,
            "durationTicks": 1536,
            "midi": 75,
            "name": "D#5",
            "ticks": 90624,
            "time": 149.05240799999999,
            "velocity": 0.13385826771653545
          },
          {
            "duration": 2.52631199999999,
            "durationTicks": 1536,
            "midi": 73,
            "name": "C#5",
            "ticks": 92160,
            "time": 151.57872,
            "velocity": 0.13385826771653545
          },
          {
            "duration": 2.52631199999999,
            "durationTicks": 1536,
            "midi": 70,
            "name": "A#4",
            "ticks": 92160,
            "time": 151.57872,
            "velocity": 0.13385826771653545
          },
          {
            "duration": 2.52631199999999,
            "durationTicks": 1536,
            "midi": 66,
            "name": "F#4",
            "ticks": 92160,
            "time": 151.57872,
            "velocity": 0.13385826771653545
          },
          {
            "duration": 2.52631199999999,
            "durationTicks": 1536,
            "midi": 66,
            "name": "F#4",
            "ticks": 93696,
            "time": 154.105032,
            "velocity": 0.13385826771653545
          },
          {
            "duration": 2.52631199999999,
            "durationTicks": 1536,
            "midi": 74,
            "name": "D5",
            "ticks": 93696,
            "time": 154.105032,
            "velocity": 0.13385826771653545
          },
          {
            "duration": 2.52631199999999,
            "durationTicks": 1536,
            "midi": 73,
            "name": "C#5",
            "ticks": 93696,
            "time": 154.105032,
            "velocity": 0.13385826771653545
          },
          {
            "duration": 2.5263120000000185,
            "durationTicks": 1536,
            "midi": 69,
            "name": "A4",
            "ticks": 95232,
            "time": 156.63134399999998,
            "velocity": 0.13385826771653545
          },
          {
            "duration": 2.5263120000000185,
            "durationTicks": 1536,
            "midi": 66,
            "name": "F#4",
            "ticks": 95232,
            "time": 156.63134399999998,
            "velocity": 0.13385826771653545
          },
          {
            "duration": 2.52631199999999,
            "durationTicks": 1536,
            "midi": 63,
            "name": "D#4",
            "ticks": 96768,
            "time": 159.157656,
            "velocity": 0.13385826771653545
          },
          {
            "duration": 2.52631199999999,
            "durationTicks": 1536,
            "midi": 66,
            "name": "F#4",
            "ticks": 96768,
            "time": 159.157656,
            "velocity": 0.13385826771653545
          },
          {
            "duration": 2.52631199999999,
            "durationTicks": 1536,
            "midi": 71,
            "name": "B4",
            "ticks": 96768,
            "time": 159.157656,
            "velocity": 0.13385826771653545
          },
          {
            "duration": 2.52631199999999,
            "durationTicks": 1536,
            "midi": 73,
            "name": "C#5",
            "ticks": 98304,
            "time": 161.683968,
            "velocity": 0.13385826771653545
          },
          {
            "duration": 2.52631199999999,
            "durationTicks": 1536,
            "midi": 66,
            "name": "F#4",
            "ticks": 98304,
            "time": 161.683968,
            "velocity": 0.13385826771653545
          },
          {
            "duration": 2.52631199999999,
            "durationTicks": 1536,
            "midi": 69,
            "name": "A4",
            "ticks": 98304,
            "time": 161.683968,
            "velocity": 0.13385826771653545
          },
          {
            "duration": 2.5263120000000185,
            "durationTicks": 1536,
            "midi": 66,
            "name": "F#4",
            "ticks": 99840,
            "time": 164.21027999999998,
            "velocity": 0.13385826771653545
          },
          {
            "duration": 2.5263120000000185,
            "durationTicks": 1536,
            "midi": 71,
            "name": "B4",
            "ticks": 99840,
            "time": 164.21027999999998,
            "velocity": 0.13385826771653545
          },
          {
            "duration": 2.5263120000000185,
            "durationTicks": 1536,
            "midi": 75,
            "name": "D#5",
            "ticks": 99840,
            "time": 164.21027999999998,
            "velocity": 0.13385826771653545
          },
          {
            "duration": 2.3684174999999925,
            "durationTicks": 1440,
            "midi": 68,
            "name": "G#4",
            "ticks": 101376,
            "time": 166.736592,
            "velocity": 0.13385826771653545
          },
          {
            "duration": 2.3684174999999925,
            "durationTicks": 1440,
            "midi": 71,
            "name": "B4",
            "ticks": 101376,
            "time": 166.736592,
            "velocity": 0.13385826771653545
          },
          {
            "duration": 2.3684174999999925,
            "durationTicks": 1440,
            "midi": 73,
            "name": "C#5",
            "ticks": 101376,
            "time": 166.736592,
            "velocity": 0.13385826771653545
          },
          {
            "duration": 2.3684174999999925,
            "durationTicks": 1440,
            "midi": 75,
            "name": "D#5",
            "ticks": 101376,
            "time": 166.736592,
            "velocity": 0.13385826771653545
          },
          {
            "duration": 2.3684174999999925,
            "durationTicks": 1440,
            "midi": 73,
            "name": "C#5",
            "ticks": 102912,
            "time": 169.262904,
            "velocity": 0.13385826771653545
          },
          {
            "duration": 2.3684174999999925,
            "durationTicks": 1440,
            "midi": 78,
            "name": "F#5",
            "ticks": 102912,
            "time": 169.262904,
            "velocity": 0.13385826771653545
          },
          {
            "duration": 2.3684174999999925,
            "durationTicks": 1440,
            "midi": 71,
            "name": "B4",
            "ticks": 102912,
            "time": 169.262904,
            "velocity": 0.13385826771653545
          },
          {
            "duration": 2.3684174999999925,
            "durationTicks": 1440,
            "midi": 69,
            "name": "A4",
            "ticks": 102912,
            "time": 169.262904,
            "velocity": 0.13385826771653545
          },
          {
            "duration": 2.368417500000021,
            "durationTicks": 1440,
            "midi": 71,
            "name": "B4",
            "ticks": 104448,
            "time": 171.78921599999998,
            "velocity": 0.13385826771653545
          },
          {
            "duration": 2.368417500000021,
            "durationTicks": 1440,
            "midi": 74,
            "name": "D5",
            "ticks": 104448,
            "time": 171.78921599999998,
            "velocity": 0.13385826771653545
          },
          {
            "duration": 2.368417500000021,
            "durationTicks": 1440,
            "midi": 69,
            "name": "A4",
            "ticks": 104448,
            "time": 171.78921599999998,
            "velocity": 0.13385826771653545
          },
          {
            "duration": 1.1052614999999832,
            "durationTicks": 672,
            "midi": 83,
            "name": "B5",
            "ticks": 105984,
            "time": 174.315528,
            "velocity": 0.13385826771653545
          },
          {
            "duration": 1.1052614999999832,
            "durationTicks": 672,
            "midi": 80,
            "name": "G#5",
            "ticks": 105984,
            "time": 174.315528,
            "velocity": 0.13385826771653545
          },
          {
            "duration": 1.1052614999999832,
            "durationTicks": 672,
            "midi": 76,
            "name": "E5",
            "ticks": 105984,
            "time": 174.315528,
            "velocity": 0.13385826771653545
          },
          {
            "duration": 1.1052615000000117,
            "durationTicks": 672,
            "midi": 73,
            "name": "C#5",
            "ticks": 106752,
            "time": 175.57868399999998,
            "velocity": 0.13385826771653545
          },
          {
            "duration": 1.1052615000000117,
            "durationTicks": 672,
            "midi": 80,
            "name": "G#5",
            "ticks": 106752,
            "time": 175.57868399999998,
            "velocity": 0.13385826771653545
          },
          {
            "duration": 1.1052615000000117,
            "durationTicks": 672,
            "midi": 78,
            "name": "F#5",
            "ticks": 106752,
            "time": 175.57868399999998,
            "velocity": 0.13385826771653545
          }
        ],
        "endOfTrackTicks": 107424
      }
    ]
  }