{
    "header": {
      "keySignatures": [],
      "meta": [],
      "name": "",
      "ppq": 384,
      "tempos": [
        {
          "bpm": 100,
          "ticks": 0
        }
      ],
      "timeSignatures": [
        {
          "ticks": 0,
          "timeSignature": [
            1,
            4
          ],
          "measures": 0
        }
      ]
    },
    "tracks": [
      {
        "channel": 0,
        "controlChanges": {},
        "pitchBends": [],
        "instrument": {
          "family": "guitar",
          "number": 29,
          "name": "overdriven guitar"
        },
        "name": "Electric Guitar",
        "notes": [
          {
            "duration": 0.3,
            "durationTicks": 192,
            "midi": 51,
            "name": "D#3",
            "ticks": 0,
            "time": 0,
            "velocity": 0.3937007874015748
          },
          {
            "duration": 0.3,
            "durationTicks": 192,
            "midi": 39,
            "name": "D#2",
            "ticks": 192,
            "time": 0.3,
            "velocity": 0.3937007874015748
          },
          {
            "duration": 0.30000000000000004,
            "durationTicks": 192,
            "midi": 39,
            "name": "D#2",
            "ticks": 480,
            "time": 0.75,
            "velocity": 0.3937007874015748
          },
          {
            "duration": 0.30000000000000004,
            "durationTicks": 192,
            "midi": 39,
            "name": "D#2",
            "ticks": 768,
            "time": 1.2,
            "velocity": 0.3937007874015748
          },
          {
            "duration": 0.1499999999999999,
            "durationTicks": 96,
            "midi": 39,
            "name": "D#2",
            "ticks": 960,
            "time": 1.5,
            "velocity": 0.3937007874015748
          },
          {
            "duration": 0.30000000000000004,
            "durationTicks": 192,
            "midi": 39,
            "name": "D#2",
            "ticks": 1056,
            "time": 1.65,
            "velocity": 0.3937007874015748
          },
          {
            "duration": 0.15000000000000013,
            "durationTicks": 96,
            "midi": 39,
            "name": "D#2",
            "ticks": 1248,
            "time": 1.95,
            "velocity": 0.3937007874015748
          },
          {
            "duration": 0.1499999999999999,
            "durationTicks": 96,
            "midi": 50,
            "name": "D3",
            "ticks": 1344,
            "time": 2.1,
            "velocity": 0.3937007874015748
          },
          {
            "duration": 0.1499999999999999,
            "durationTicks": 96,
            "midi": 52,
            "name": "E3",
            "ticks": 1440,
            "time": 2.25,
            "velocity": 0.3937007874015748
          },
          {
            "duration": 0.2999999999999998,
            "durationTicks": 192,
            "midi": 51,
            "name": "D#3",
            "ticks": 1536,
            "time": 2.4,
            "velocity": 0.3937007874015748
          },
          {
            "duration": 0.30000000000000027,
            "durationTicks": 192,
            "midi": 39,
            "name": "D#2",
            "ticks": 1728,
            "time": 2.6999999999999997,
            "velocity": 0.3937007874015748
          },
          {
            "duration": 0.2999999999999998,
            "durationTicks": 192,
            "midi": 39,
            "name": "D#2",
            "ticks": 2016,
            "time": 3.15,
            "velocity": 0.3937007874015748
          },
          {
            "duration": 0.30000000000000027,
            "durationTicks": 192,
            "midi": 40,
            "name": "E2",
            "ticks": 2304,
            "time": 3.5999999999999996,
            "velocity": 0.3937007874015748
          },
          {
            "duration": 0.1499999999999999,
            "durationTicks": 96,
            "midi": 40,
            "name": "E2",
            "ticks": 2496,
            "time": 3.9,
            "velocity": 0.3937007874015748
          },
          {
            "duration": 0.5999999999999996,
            "durationTicks": 384,
            "midi": 52,
            "name": "E3",
            "ticks": 2592,
            "time": 4.05,
            "velocity": 0.3937007874015748
          },
          {
            "duration": 0.2999999999999998,
            "durationTicks": 192,
            "midi": 40,
            "name": "E2",
            "ticks": 2880,
            "time": 4.5,
            "velocity": 0.3937007874015748
          },
          {
            "duration": 0.2999999999999998,
            "durationTicks": 192,
            "midi": 51,
            "name": "D#3",
            "ticks": 3072,
            "time": 4.8,
            "velocity": 0.3937007874015748
          },
          {
            "duration": 0.2999999999999998,
            "durationTicks": 192,
            "midi": 39,
            "name": "D#2",
            "ticks": 3264,
            "time": 5.1,
            "velocity": 0.3937007874015748
          },
          {
            "duration": 0.2999999999999998,
            "durationTicks": 192,
            "midi": 39,
            "name": "D#2",
            "ticks": 3552,
            "time": 5.55,
            "velocity": 0.3937007874015748
          },
          {
            "duration": 0.2999999999999998,
            "durationTicks": 192,
            "midi": 39,
            "name": "D#2",
            "ticks": 3840,
            "time": 6,
            "velocity": 0.3937007874015748
          },
          {
            "duration": 0.15000000000000036,
            "durationTicks": 96,
            "midi": 39,
            "name": "D#2",
            "ticks": 4032,
            "time": 6.3,
            "velocity": 0.3937007874015748
          },
          {
            "duration": 0.2999999999999998,
            "durationTicks": 192,
            "midi": 39,
            "name": "D#2",
            "ticks": 4128,
            "time": 6.45,
            "velocity": 0.3937007874015748
          },
          {
            "duration": 0.14999999999999947,
            "durationTicks": 96,
            "midi": 39,
            "name": "D#2",
            "ticks": 4320,
            "time": 6.75,
            "velocity": 0.3937007874015748
          },
          {
            "duration": 0.15000000000000036,
            "durationTicks": 96,
            "midi": 50,
            "name": "D3",
            "ticks": 4416,
            "time": 6.8999999999999995,
            "velocity": 0.3937007874015748
          },
          {
            "duration": 0.14999999999999947,
            "durationTicks": 96,
            "midi": 52,
            "name": "E3",
            "ticks": 4512,
            "time": 7.05,
            "velocity": 0.3937007874015748
          },
          {
            "duration": 0.3000000000000007,
            "durationTicks": 192,
            "midi": 51,
            "name": "D#3",
            "ticks": 4608,
            "time": 7.199999999999999,
            "velocity": 0.3937007874015748
          },
          {
            "duration": 0.2999999999999998,
            "durationTicks": 192,
            "midi": 39,
            "name": "D#2",
            "ticks": 4800,
            "time": 7.5,
            "velocity": 0.3937007874015748
          },
          {
            "duration": 0.15000000000000036,
            "durationTicks": 96,
            "midi": 39,
            "name": "D#2",
            "ticks": 5088,
            "time": 7.949999999999999,
            "velocity": 0.3937007874015748
          },
          {
            "duration": 0.15000000000000036,
            "durationTicks": 96,
            "midi": 49,
            "name": "C#3",
            "ticks": 5184,
            "time": 8.1,
            "velocity": 0.3937007874015748
          },
          {
            "duration": 0.15000000000000036,
            "durationTicks": 96,
            "midi": 51,
            "name": "D#3",
            "ticks": 5280,
            "time": 8.25,
            "velocity": 0.3937007874015748
          },
          {
            "duration": 0.14999999999999858,
            "durationTicks": 96,
            "midi": 50,
            "name": "D3",
            "ticks": 5376,
            "time": 8.4,
            "velocity": 0.3937007874015748
          },
          {
            "duration": 0.15000000000000036,
            "durationTicks": 96,
            "midi": 38,
            "name": "D2",
            "ticks": 5472,
            "time": 8.549999999999999,
            "velocity": 0.3937007874015748
          },
          {
            "duration": 0.15000000000000036,
            "durationTicks": 96,
            "midi": 38,
            "name": "D2",
            "ticks": 5664,
            "time": 8.85,
            "velocity": 0.3937007874015748
          },
          {
            "duration": 0.15000000000000036,
            "durationTicks": 96,
            "midi": 38,
            "name": "D2",
            "ticks": 5952,
            "time": 9.299999999999999,
            "velocity": 0.3937007874015748
          },
          {
            "duration": 0.3000000000000007,
            "durationTicks": 192,
            "midi": 51,
            "name": "D#3",
            "ticks": 6144,
            "time": 9.6,
            "velocity": 0.3937007874015748
          },
          {
            "duration": 0.29999999999999893,
            "durationTicks": 192,
            "midi": 39,
            "name": "D#2",
            "ticks": 6336,
            "time": 9.9,
            "velocity": 0.3937007874015748
          },
          {
            "duration": 0.3000000000000007,
            "durationTicks": 192,
            "midi": 39,
            "name": "D#2",
            "ticks": 6624,
            "time": 10.35,
            "velocity": 0.3937007874015748
          },
          {
            "duration": 0.3000000000000007,
            "durationTicks": 192,
            "midi": 39,
            "name": "D#2",
            "ticks": 6912,
            "time": 10.799999999999999,
            "velocity": 0.3937007874015748
          },
          {
            "duration": 0.15000000000000036,
            "durationTicks": 96,
            "midi": 39,
            "name": "D#2",
            "ticks": 7104,
            "time": 11.1,
            "velocity": 0.3937007874015748
          },
          {
            "duration": 0.29999999999999893,
            "durationTicks": 192,
            "midi": 39,
            "name": "D#2",
            "ticks": 7200,
            "time": 11.25,
            "velocity": 0.3937007874015748
          },
          {
            "duration": 0.15000000000000036,
            "durationTicks": 96,
            "midi": 39,
            "name": "D#2",
            "ticks": 7392,
            "time": 11.549999999999999,
            "velocity": 0.3937007874015748
          },
          {
            "duration": 0.15000000000000036,
            "durationTicks": 96,
            "midi": 50,
            "name": "D3",
            "ticks": 7488,
            "time": 11.7,
            "velocity": 0.3937007874015748
          },
          {
            "duration": 0.15000000000000036,
            "durationTicks": 96,
            "midi": 52,
            "name": "E3",
            "ticks": 7584,
            "time": 11.85,
            "velocity": 0.3937007874015748
          },
          {
            "duration": 0.29999999999999893,
            "durationTicks": 192,
            "midi": 51,
            "name": "D#3",
            "ticks": 7680,
            "time": 12,
            "velocity": 0.3937007874015748
          },
          {
            "duration": 0.3000000000000007,
            "durationTicks": 192,
            "midi": 39,
            "name": "D#2",
            "ticks": 7872,
            "time": 12.299999999999999,
            "velocity": 0.3937007874015748
          },
          {
            "duration": 0.29999999999999893,
            "durationTicks": 192,
            "midi": 39,
            "name": "D#2",
            "ticks": 8160,
            "time": 12.75,
            "velocity": 0.3937007874015748
          },
          {
            "duration": 0.3000000000000007,
            "durationTicks": 192,
            "midi": 40,
            "name": "E2",
            "ticks": 8448,
            "time": 13.2,
            "velocity": 0.3937007874015748
          },
          {
            "duration": 0.15000000000000036,
            "durationTicks": 96,
            "midi": 40,
            "name": "E2",
            "ticks": 8640,
            "time": 13.5,
            "velocity": 0.3937007874015748
          },
          {
            "duration": 0.5999999999999996,
            "durationTicks": 384,
            "midi": 52,
            "name": "E3",
            "ticks": 8736,
            "time": 13.65,
            "velocity": 0.3937007874015748
          },
          {
            "duration": 0.29999999999999893,
            "durationTicks": 192,
            "midi": 40,
            "name": "E2",
            "ticks": 9024,
            "time": 14.1,
            "velocity": 0.3937007874015748
          },
          {
            "duration": 0.3000000000000007,
            "durationTicks": 192,
            "midi": 51,
            "name": "D#3",
            "ticks": 9216,
            "time": 14.399999999999999,
            "velocity": 0.3937007874015748
          },
          {
            "duration": 0.3000000000000007,
            "durationTicks": 192,
            "midi": 39,
            "name": "D#2",
            "ticks": 9408,
            "time": 14.7,
            "velocity": 0.3937007874015748
          },
          {
            "duration": 0.3000000000000007,
            "durationTicks": 192,
            "midi": 39,
            "name": "D#2",
            "ticks": 9696,
            "time": 15.149999999999999,
            "velocity": 0.3937007874015748
          },
          {
            "duration": 0.29999999999999893,
            "durationTicks": 192,
            "midi": 39,
            "name": "D#2",
            "ticks": 9984,
            "time": 15.6,
            "velocity": 0.3937007874015748
          },
          {
            "duration": 0.15000000000000213,
            "durationTicks": 96,
            "midi": 39,
            "name": "D#2",
            "ticks": 10176,
            "time": 15.899999999999999,
            "velocity": 0.3937007874015748
          },
          {
            "duration": 0.29999999999999716,
            "durationTicks": 192,
            "midi": 39,
            "name": "D#2",
            "ticks": 10272,
            "time": 16.05,
            "velocity": 0.3937007874015748
          },
          {
            "duration": 0.15000000000000213,
            "durationTicks": 96,
            "midi": 39,
            "name": "D#2",
            "ticks": 10464,
            "time": 16.349999999999998,
            "velocity": 0.3937007874015748
          },
          {
            "duration": 0.14999999999999858,
            "durationTicks": 96,
            "midi": 50,
            "name": "D3",
            "ticks": 10560,
            "time": 16.5,
            "velocity": 0.3937007874015748
          },
          {
            "duration": 0.15000000000000213,
            "durationTicks": 96,
            "midi": 52,
            "name": "E3",
            "ticks": 10656,
            "time": 16.65,
            "velocity": 0.3937007874015748
          },
          {
            "duration": 0.29999999999999716,
            "durationTicks": 192,
            "midi": 51,
            "name": "D#3",
            "ticks": 10752,
            "time": 16.8,
            "velocity": 0.3937007874015748
          },
          {
            "duration": 0.3000000000000007,
            "durationTicks": 192,
            "midi": 39,
            "name": "D#2",
            "ticks": 10944,
            "time": 17.099999999999998,
            "velocity": 0.3937007874015748
          },
          {
            "duration": 0.14999999999999858,
            "durationTicks": 96,
            "midi": 39,
            "name": "D#2",
            "ticks": 11232,
            "time": 17.55,
            "velocity": 0.3937007874015748
          },
          {
            "duration": 0.14999999999999858,
            "durationTicks": 96,
            "midi": 49,
            "name": "C#3",
            "ticks": 11328,
            "time": 17.7,
            "velocity": 0.3937007874015748
          },
          {
            "duration": 0.15000000000000213,
            "durationTicks": 96,
            "midi": 51,
            "name": "D#3",
            "ticks": 11424,
            "time": 17.849999999999998,
            "velocity": 0.3937007874015748
          },
          {
            "duration": 0.14999999999999858,
            "durationTicks": 96,
            "midi": 50,
            "name": "D3",
            "ticks": 11520,
            "time": 18,
            "velocity": 0.3937007874015748
          },
          {
            "duration": 0.15000000000000213,
            "durationTicks": 96,
            "midi": 38,
            "name": "D2",
            "ticks": 11616,
            "time": 18.15,
            "velocity": 0.3937007874015748
          },
          {
            "duration": 0.14999999999999858,
            "durationTicks": 96,
            "midi": 38,
            "name": "D2",
            "ticks": 11808,
            "time": 18.45,
            "velocity": 0.3937007874015748
          },
          {
            "duration": 0.15000000000000213,
            "durationTicks": 96,
            "midi": 38,
            "name": "D2",
            "ticks": 12096,
            "time": 18.9,
            "velocity": 0.3937007874015748
          },
          {
            "duration": 0.3000000000000007,
            "durationTicks": 192,
            "midi": 51,
            "name": "D#3",
            "ticks": 12288,
            "time": 19.2,
            "velocity": 0.3937007874015748
          },
          {
            "duration": 0.3000000000000007,
            "durationTicks": 192,
            "midi": 39,
            "name": "D#2",
            "ticks": 12480,
            "time": 19.5,
            "velocity": 0.3937007874015748
          },
          {
            "duration": 0.3000000000000007,
            "durationTicks": 192,
            "midi": 39,
            "name": "D#2",
            "ticks": 12768,
            "time": 19.95,
            "velocity": 0.3937007874015748
          },
          {
            "duration": 0.3000000000000007,
            "durationTicks": 192,
            "midi": 39,
            "name": "D#2",
            "ticks": 13056,
            "time": 20.4,
            "velocity": 0.3937007874015748
          },
          {
            "duration": 0.14999999999999858,
            "durationTicks": 96,
            "midi": 39,
            "name": "D#2",
            "ticks": 13248,
            "time": 20.7,
            "velocity": 0.3937007874015748
          },
          {
            "duration": 0.3000000000000007,
            "durationTicks": 192,
            "midi": 39,
            "name": "D#2",
            "ticks": 13344,
            "time": 20.849999999999998,
            "velocity": 0.3937007874015748
          },
          {
            "duration": 0.15000000000000213,
            "durationTicks": 96,
            "midi": 39,
            "name": "D#2",
            "ticks": 13536,
            "time": 21.15,
            "velocity": 0.3937007874015748
          },
          {
            "duration": 0.14999999999999858,
            "durationTicks": 96,
            "midi": 50,
            "name": "D3",
            "ticks": 13632,
            "time": 21.3,
            "velocity": 0.3937007874015748
          },
          {
            "duration": 0.14999999999999858,
            "durationTicks": 96,
            "midi": 52,
            "name": "E3",
            "ticks": 13728,
            "time": 21.45,
            "velocity": 0.3937007874015748
          },
          {
            "duration": 0.3000000000000007,
            "durationTicks": 192,
            "midi": 51,
            "name": "D#3",
            "ticks": 13824,
            "time": 21.599999999999998,
            "velocity": 0.3937007874015748
          },
          {
            "duration": 0.3000000000000007,
            "durationTicks": 192,
            "midi": 39,
            "name": "D#2",
            "ticks": 14016,
            "time": 21.9,
            "velocity": 0.3937007874015748
          },
          {
            "duration": 0.3000000000000007,
            "durationTicks": 192,
            "midi": 39,
            "name": "D#2",
            "ticks": 14304,
            "time": 22.349999999999998,
            "velocity": 0.3937007874015748
          },
          {
            "duration": 0.29999999999999716,
            "durationTicks": 192,
            "midi": 40,
            "name": "E2",
            "ticks": 14592,
            "time": 22.8,
            "velocity": 0.3937007874015748
          },
          {
            "duration": 0.15000000000000213,
            "durationTicks": 96,
            "midi": 40,
            "name": "E2",
            "ticks": 14784,
            "time": 23.099999999999998,
            "velocity": 0.3937007874015748
          },
          {
            "duration": 0.5999999999999979,
            "durationTicks": 384,
            "midi": 52,
            "name": "E3",
            "ticks": 14880,
            "time": 23.25,
            "velocity": 0.3937007874015748
          },
          {
            "duration": 0.3000000000000007,
            "durationTicks": 192,
            "midi": 40,
            "name": "E2",
            "ticks": 15168,
            "time": 23.7,
            "velocity": 0.3937007874015748
          },
          {
            "duration": 0.3000000000000007,
            "durationTicks": 192,
            "midi": 51,
            "name": "D#3",
            "ticks": 15360,
            "time": 24,
            "velocity": 0.3937007874015748
          },
          {
            "duration": 0.29999999999999716,
            "durationTicks": 192,
            "midi": 39,
            "name": "D#2",
            "ticks": 15552,
            "time": 24.3,
            "velocity": 0.3937007874015748
          },
          {
            "duration": 0.3000000000000007,
            "durationTicks": 192,
            "midi": 39,
            "name": "D#2",
            "ticks": 15840,
            "time": 24.75,
            "velocity": 0.3937007874015748
          },
          {
            "duration": 0.3000000000000007,
            "durationTicks": 192,
            "midi": 39,
            "name": "D#2",
            "ticks": 16128,
            "time": 25.2,
            "velocity": 0.3937007874015748
          },
          {
            "duration": 0.14999999999999858,
            "durationTicks": 96,
            "midi": 39,
            "name": "D#2",
            "ticks": 16320,
            "time": 25.5,
            "velocity": 0.3937007874015748
          },
          {
            "duration": 0.3000000000000007,
            "durationTicks": 192,
            "midi": 39,
            "name": "D#2",
            "ticks": 16416,
            "time": 25.65,
            "velocity": 0.3937007874015748
          },
          {
            "duration": 0.14999999999999858,
            "durationTicks": 96,
            "midi": 39,
            "name": "D#2",
            "ticks": 16608,
            "time": 25.95,
            "velocity": 0.3937007874015748
          },
          {
            "duration": 0.15000000000000213,
            "durationTicks": 96,
            "midi": 50,
            "name": "D3",
            "ticks": 16704,
            "time": 26.099999999999998,
            "velocity": 0.3937007874015748
          },
          {
            "duration": 0.14999999999999858,
            "durationTicks": 96,
            "midi": 52,
            "name": "E3",
            "ticks": 16800,
            "time": 26.25,
            "velocity": 0.3937007874015748
          },
          {
            "duration": 0.3000000000000007,
            "durationTicks": 192,
            "midi": 51,
            "name": "D#3",
            "ticks": 16896,
            "time": 26.4,
            "velocity": 0.3937007874015748
          },
          {
            "duration": 0.3000000000000007,
            "durationTicks": 192,
            "midi": 39,
            "name": "D#2",
            "ticks": 17088,
            "time": 26.7,
            "velocity": 0.3937007874015748
          },
          {
            "duration": 0.15000000000000213,
            "durationTicks": 96,
            "midi": 39,
            "name": "D#2",
            "ticks": 17376,
            "time": 27.15,
            "velocity": 0.3937007874015748
          },
          {
            "duration": 0.14999999999999858,
            "durationTicks": 96,
            "midi": 49,
            "name": "C#3",
            "ticks": 17472,
            "time": 27.3,
            "velocity": 0.3937007874015748
          },
          {
            "duration": 0.14999999999999858,
            "durationTicks": 96,
            "midi": 51,
            "name": "D#3",
            "ticks": 17568,
            "time": 27.45,
            "velocity": 0.3937007874015748
          },
          {
            "duration": 0.15000000000000213,
            "durationTicks": 96,
            "midi": 50,
            "name": "D3",
            "ticks": 17664,
            "time": 27.599999999999998,
            "velocity": 0.3937007874015748
          },
          {
            "duration": 0.14999999999999858,
            "durationTicks": 96,
            "midi": 38,
            "name": "D2",
            "ticks": 17760,
            "time": 27.75,
            "velocity": 0.3937007874015748
          },
          {
            "duration": 0.14999999999999858,
            "durationTicks": 96,
            "midi": 38,
            "name": "D2",
            "ticks": 17952,
            "time": 28.05,
            "velocity": 0.3937007874015748
          },
          {
            "duration": 0.14999999999999858,
            "durationTicks": 96,
            "midi": 38,
            "name": "D2",
            "ticks": 18240,
            "time": 28.5,
            "velocity": 0.3937007874015748
          },
          {
            "duration": 0.3000000000000007,
            "durationTicks": 192,
            "midi": 51,
            "name": "D#3",
            "ticks": 18432,
            "time": 28.799999999999997,
            "velocity": 0.3937007874015748
          },
          {
            "duration": 0.3000000000000007,
            "durationTicks": 192,
            "midi": 39,
            "name": "D#2",
            "ticks": 18624,
            "time": 29.099999999999998,
            "velocity": 0.3937007874015748
          },
          {
            "duration": 0.3000000000000007,
            "durationTicks": 192,
            "midi": 39,
            "name": "D#2",
            "ticks": 18912,
            "time": 29.549999999999997,
            "velocity": 0.3937007874015748
          },
          {
            "duration": 0.29999999999999716,
            "durationTicks": 192,
            "midi": 39,
            "name": "D#2",
            "ticks": 19200,
            "time": 30,
            "velocity": 0.3937007874015748
          },
          {
            "duration": 0.15000000000000213,
            "durationTicks": 96,
            "midi": 39,
            "name": "D#2",
            "ticks": 19392,
            "time": 30.299999999999997,
            "velocity": 0.3937007874015748
          },
          {
            "duration": 0.3000000000000007,
            "durationTicks": 192,
            "midi": 39,
            "name": "D#2",
            "ticks": 19488,
            "time": 30.45,
            "velocity": 0.3937007874015748
          },
          {
            "duration": 0.14999999999999858,
            "durationTicks": 96,
            "midi": 39,
            "name": "D#2",
            "ticks": 19680,
            "time": 30.75,
            "velocity": 0.3937007874015748
          },
          {
            "duration": 0.14999999999999858,
            "durationTicks": 96,
            "midi": 50,
            "name": "D3",
            "ticks": 19776,
            "time": 30.9,
            "velocity": 0.3937007874015748
          },
          {
            "duration": 0.15000000000000213,
            "durationTicks": 96,
            "midi": 52,
            "name": "E3",
            "ticks": 19872,
            "time": 31.049999999999997,
            "velocity": 0.3937007874015748
          },
          {
            "duration": 0.3000000000000007,
            "durationTicks": 192,
            "midi": 51,
            "name": "D#3",
            "ticks": 19968,
            "time": 31.2,
            "velocity": 0.3937007874015748
          },
          {
            "duration": 0.29999999999999716,
            "durationTicks": 192,
            "midi": 39,
            "name": "D#2",
            "ticks": 20160,
            "time": 31.5,
            "velocity": 0.3937007874015748
          },
          {
            "duration": 0.3000000000000007,
            "durationTicks": 192,
            "midi": 39,
            "name": "D#2",
            "ticks": 20448,
            "time": 31.95,
            "velocity": 0.3937007874015748
          },
          {
            "duration": 0.29999999999999716,
            "durationTicks": 192,
            "midi": 40,
            "name": "E2",
            "ticks": 20736,
            "time": 32.4,
            "velocity": 0.3937007874015748
          },
          {
            "duration": 0.15000000000000568,
            "durationTicks": 96,
            "midi": 40,
            "name": "E2",
            "ticks": 20928,
            "time": 32.699999999999996,
            "velocity": 0.3937007874015748
          },
          {
            "duration": 0.5999999999999943,
            "durationTicks": 384,
            "midi": 52,
            "name": "E3",
            "ticks": 21024,
            "time": 32.85,
            "velocity": 0.3937007874015748
          },
          {
            "duration": 0.30000000000000426,
            "durationTicks": 192,
            "midi": 40,
            "name": "E2",
            "ticks": 21312,
            "time": 33.3,
            "velocity": 0.3937007874015748
          },
          {
            "duration": 0.29999999999999716,
            "durationTicks": 192,
            "midi": 51,
            "name": "D#3",
            "ticks": 21504,
            "time": 33.6,
            "velocity": 0.3937007874015748
          },
          {
            "duration": 0.29999999999999716,
            "durationTicks": 192,
            "midi": 39,
            "name": "D#2",
            "ticks": 21696,
            "time": 33.9,
            "velocity": 0.3937007874015748
          },
          {
            "duration": 0.29999999999999716,
            "durationTicks": 192,
            "midi": 39,
            "name": "D#2",
            "ticks": 21984,
            "time": 34.35,
            "velocity": 0.3937007874015748
          },
          {
            "duration": 0.30000000000000426,
            "durationTicks": 192,
            "midi": 39,
            "name": "D#2",
            "ticks": 22272,
            "time": 34.8,
            "velocity": 0.3937007874015748
          },
          {
            "duration": 0.14999999999999858,
            "durationTicks": 96,
            "midi": 39,
            "name": "D#2",
            "ticks": 22464,
            "time": 35.1,
            "velocity": 0.3937007874015748
          },
          {
            "duration": 0.29999999999999716,
            "durationTicks": 192,
            "midi": 39,
            "name": "D#2",
            "ticks": 22560,
            "time": 35.25,
            "velocity": 0.3937007874015748
          },
          {
            "duration": 0.14999999999999858,
            "durationTicks": 96,
            "midi": 39,
            "name": "D#2",
            "ticks": 22752,
            "time": 35.55,
            "velocity": 0.3937007874015748
          },
          {
            "duration": 0.15000000000000568,
            "durationTicks": 96,
            "midi": 50,
            "name": "D3",
            "ticks": 22848,
            "time": 35.699999999999996,
            "velocity": 0.3937007874015748
          },
          {
            "duration": 0.14999999999999858,
            "durationTicks": 96,
            "midi": 52,
            "name": "E3",
            "ticks": 22944,
            "time": 35.85,
            "velocity": 0.3937007874015748
          },
          {
            "duration": 0.29999999999999716,
            "durationTicks": 192,
            "midi": 51,
            "name": "D#3",
            "ticks": 23040,
            "time": 36,
            "velocity": 0.3937007874015748
          },
          {
            "duration": 0.30000000000000426,
            "durationTicks": 192,
            "midi": 39,
            "name": "D#2",
            "ticks": 23232,
            "time": 36.3,
            "velocity": 0.3937007874015748
          },
          {
            "duration": 0.14999999999999858,
            "durationTicks": 96,
            "midi": 39,
            "name": "D#2",
            "ticks": 23520,
            "time": 36.75,
            "velocity": 0.3937007874015748
          },
          {
            "duration": 0.14999999999999858,
            "durationTicks": 96,
            "midi": 49,
            "name": "C#3",
            "ticks": 23616,
            "time": 36.9,
            "velocity": 0.3937007874015748
          },
          {
            "duration": 0.14999999999999858,
            "durationTicks": 96,
            "midi": 51,
            "name": "D#3",
            "ticks": 23712,
            "time": 37.05,
            "velocity": 0.3937007874015748
          },
          {
            "duration": 0.15000000000000568,
            "durationTicks": 96,
            "midi": 50,
            "name": "D3",
            "ticks": 23808,
            "time": 37.199999999999996,
            "velocity": 0.3937007874015748
          },
          {
            "duration": 0.14999999999999858,
            "durationTicks": 96,
            "midi": 38,
            "name": "D2",
            "ticks": 23904,
            "time": 37.35,
            "velocity": 0.3937007874015748
          },
          {
            "duration": 0.14999999999999858,
            "durationTicks": 96,
            "midi": 38,
            "name": "D2",
            "ticks": 24096,
            "time": 37.65,
            "velocity": 0.3937007874015748
          },
          {
            "duration": 0.14999999999999858,
            "durationTicks": 96,
            "midi": 38,
            "name": "D2",
            "ticks": 24384,
            "time": 38.1,
            "velocity": 0.3937007874015748
          },
          {
            "duration": 0.14999999999999858,
            "durationTicks": 96,
            "midi": 27,
            "name": "D#1",
            "ticks": 24576,
            "time": 38.4,
            "velocity": 0.3937007874015748
          },
          {
            "duration": 0.14999999999999858,
            "durationTicks": 96,
            "midi": 39,
            "name": "D#2",
            "ticks": 24672,
            "time": 38.55,
            "velocity": 0.3937007874015748
          },
          {
            "duration": 0.15000000000000568,
            "durationTicks": 96,
            "midi": 27,
            "name": "D#1",
            "ticks": 24768,
            "time": 38.699999999999996,
            "velocity": 0.3937007874015748
          },
          {
            "duration": 0.14999999999999858,
            "durationTicks": 96,
            "midi": 39,
            "name": "D#2",
            "ticks": 24864,
            "time": 38.85,
            "velocity": 0.3937007874015748
          },
          {
            "duration": 0.14999999999999858,
            "durationTicks": 96,
            "midi": 40,
            "name": "E2",
            "ticks": 24960,
            "time": 39,
            "velocity": 0.3937007874015748
          },
          {
            "duration": 0.14999999999999858,
            "durationTicks": 96,
            "midi": 27,
            "name": "D#1",
            "ticks": 25056,
            "time": 39.15,
            "velocity": 0.3937007874015748
          },
          {
            "duration": 0.14999999999999858,
            "durationTicks": 96,
            "midi": 38,
            "name": "D2",
            "ticks": 25152,
            "time": 39.3,
            "velocity": 0.3937007874015748
          },
          {
            "duration": 0.15000000000000568,
            "durationTicks": 96,
            "midi": 27,
            "name": "D#1",
            "ticks": 25248,
            "time": 39.449999999999996,
            "velocity": 0.3937007874015748
          },
          {
            "duration": 0.14999999999999858,
            "durationTicks": 96,
            "midi": 38,
            "name": "D2",
            "ticks": 25344,
            "time": 39.6,
            "velocity": 0.3937007874015748
          },
          {
            "duration": 0.14999999999999858,
            "durationTicks": 96,
            "midi": 27,
            "name": "D#1",
            "ticks": 25440,
            "time": 39.75,
            "velocity": 0.3937007874015748
          },
          {
            "duration": 0.14999999999999858,
            "durationTicks": 96,
            "midi": 41,
            "name": "F2",
            "ticks": 25536,
            "time": 39.9,
            "velocity": 0.3937007874015748
          },
          {
            "duration": 0.14999999999999858,
            "durationTicks": 96,
            "midi": 27,
            "name": "D#1",
            "ticks": 25632,
            "time": 40.05,
            "velocity": 0.3937007874015748
          },
          {
            "duration": 0.15000000000000568,
            "durationTicks": 96,
            "midi": 41,
            "name": "F2",
            "ticks": 25728,
            "time": 40.199999999999996,
            "velocity": 0.3937007874015748
          },
          {
            "duration": 0.14999999999999858,
            "durationTicks": 96,
            "midi": 27,
            "name": "D#1",
            "ticks": 25824,
            "time": 40.35,
            "velocity": 0.3937007874015748
          },
          {
            "duration": 0.14999999999999858,
            "durationTicks": 96,
            "midi": 38,
            "name": "D2",
            "ticks": 25920,
            "time": 40.5,
            "velocity": 0.3937007874015748
          },
          {
            "duration": 0.14999999999999858,
            "durationTicks": 96,
            "midi": 40,
            "name": "E2",
            "ticks": 26016,
            "time": 40.65,
            "velocity": 0.3937007874015748
          },
          {
            "duration": 0.14999999999999858,
            "durationTicks": 96,
            "midi": 27,
            "name": "D#1",
            "ticks": 26112,
            "time": 40.8,
            "velocity": 0.3937007874015748
          },
          {
            "duration": 0.15000000000000568,
            "durationTicks": 96,
            "midi": 39,
            "name": "D#2",
            "ticks": 26208,
            "time": 40.949999999999996,
            "velocity": 0.3937007874015748
          },
          {
            "duration": 0.14999999999999858,
            "durationTicks": 96,
            "midi": 27,
            "name": "D#1",
            "ticks": 26304,
            "time": 41.1,
            "velocity": 0.3937007874015748
          },
          {
            "duration": 0.14999999999999858,
            "durationTicks": 96,
            "midi": 39,
            "name": "D#2",
            "ticks": 26400,
            "time": 41.25,
            "velocity": 0.3937007874015748
          },
          {
            "duration": 0.14999999999999858,
            "durationTicks": 96,
            "midi": 40,
            "name": "E2",
            "ticks": 26496,
            "time": 41.4,
            "velocity": 0.3937007874015748
          },
          {
            "duration": 0.14999999999999858,
            "durationTicks": 96,
            "midi": 27,
            "name": "D#1",
            "ticks": 26592,
            "time": 41.55,
            "velocity": 0.3937007874015748
          },
          {
            "duration": 0.15000000000000568,
            "durationTicks": 96,
            "midi": 38,
            "name": "D2",
            "ticks": 26688,
            "time": 41.699999999999996,
            "velocity": 0.3937007874015748
          },
          {
            "duration": 0.14999999999999858,
            "durationTicks": 96,
            "midi": 27,
            "name": "D#1",
            "ticks": 26784,
            "time": 41.85,
            "velocity": 0.3937007874015748
          },
          {
            "duration": 0.14999999999999858,
            "durationTicks": 96,
            "midi": 38,
            "name": "D2",
            "ticks": 26880,
            "time": 42,
            "velocity": 0.3937007874015748
          },
          {
            "duration": 0.14999999999999858,
            "durationTicks": 96,
            "midi": 27,
            "name": "D#1",
            "ticks": 26976,
            "time": 42.15,
            "velocity": 0.3937007874015748
          },
          {
            "duration": 0.14999999999999858,
            "durationTicks": 96,
            "midi": 42,
            "name": "F#2",
            "ticks": 27072,
            "time": 42.3,
            "velocity": 0.3937007874015748
          },
          {
            "duration": 0.15000000000000568,
            "durationTicks": 96,
            "midi": 27,
            "name": "D#1",
            "ticks": 27168,
            "time": 42.449999999999996,
            "velocity": 0.3937007874015748
          },
          {
            "duration": 0.14999999999999858,
            "durationTicks": 96,
            "midi": 42,
            "name": "F#2",
            "ticks": 27264,
            "time": 42.6,
            "velocity": 0.3937007874015748
          },
          {
            "duration": 0.14999999999999858,
            "durationTicks": 96,
            "midi": 27,
            "name": "D#1",
            "ticks": 27360,
            "time": 42.75,
            "velocity": 0.3937007874015748
          },
          {
            "duration": 0.14999999999999858,
            "durationTicks": 96,
            "midi": 38,
            "name": "D2",
            "ticks": 27456,
            "time": 42.9,
            "velocity": 0.3937007874015748
          },
          {
            "duration": 0.14999999999999858,
            "durationTicks": 96,
            "midi": 40,
            "name": "E2",
            "ticks": 27552,
            "time": 43.05,
            "velocity": 0.3937007874015748
          },
          {
            "duration": 0.15000000000000568,
            "durationTicks": 96,
            "midi": 27,
            "name": "D#1",
            "ticks": 27648,
            "time": 43.199999999999996,
            "velocity": 0.3937007874015748
          },
          {
            "duration": 0.14999999999999858,
            "durationTicks": 96,
            "midi": 39,
            "name": "D#2",
            "ticks": 27744,
            "time": 43.35,
            "velocity": 0.3937007874015748
          },
          {
            "duration": 0.14999999999999858,
            "durationTicks": 96,
            "midi": 27,
            "name": "D#1",
            "ticks": 27840,
            "time": 43.5,
            "velocity": 0.3937007874015748
          },
          {
            "duration": 0.14999999999999858,
            "durationTicks": 96,
            "midi": 39,
            "name": "D#2",
            "ticks": 27936,
            "time": 43.65,
            "velocity": 0.3937007874015748
          },
          {
            "duration": 0.14999999999999858,
            "durationTicks": 96,
            "midi": 40,
            "name": "E2",
            "ticks": 28032,
            "time": 43.8,
            "velocity": 0.3937007874015748
          },
          {
            "duration": 0.15000000000000568,
            "durationTicks": 96,
            "midi": 27,
            "name": "D#1",
            "ticks": 28128,
            "time": 43.949999999999996,
            "velocity": 0.3937007874015748
          },
          {
            "duration": 0.14999999999999858,
            "durationTicks": 96,
            "midi": 38,
            "name": "D2",
            "ticks": 28224,
            "time": 44.1,
            "velocity": 0.3937007874015748
          },
          {
            "duration": 0.14999999999999858,
            "durationTicks": 96,
            "midi": 27,
            "name": "D#1",
            "ticks": 28320,
            "time": 44.25,
            "velocity": 0.3937007874015748
          },
          {
            "duration": 0.14999999999999858,
            "durationTicks": 96,
            "midi": 38,
            "name": "D2",
            "ticks": 28416,
            "time": 44.4,
            "velocity": 0.3937007874015748
          },
          {
            "duration": 0.14999999999999858,
            "durationTicks": 96,
            "midi": 27,
            "name": "D#1",
            "ticks": 28512,
            "time": 44.55,
            "velocity": 0.3937007874015748
          },
          {
            "duration": 0.15000000000000568,
            "durationTicks": 96,
            "midi": 41,
            "name": "F2",
            "ticks": 28608,
            "time": 44.699999999999996,
            "velocity": 0.3937007874015748
          },
          {
            "duration": 0.14999999999999858,
            "durationTicks": 96,
            "midi": 27,
            "name": "D#1",
            "ticks": 28704,
            "time": 44.85,
            "velocity": 0.3937007874015748
          },
          {
            "duration": 0.14999999999999858,
            "durationTicks": 96,
            "midi": 41,
            "name": "F2",
            "ticks": 28800,
            "time": 45,
            "velocity": 0.3937007874015748
          },
          {
            "duration": 0.14999999999999858,
            "durationTicks": 96,
            "midi": 27,
            "name": "D#1",
            "ticks": 28896,
            "time": 45.15,
            "velocity": 0.3937007874015748
          },
          {
            "duration": 0.14999999999999858,
            "durationTicks": 96,
            "midi": 38,
            "name": "D2",
            "ticks": 28992,
            "time": 45.3,
            "velocity": 0.3937007874015748
          },
          {
            "duration": 0.15000000000000568,
            "durationTicks": 96,
            "midi": 40,
            "name": "E2",
            "ticks": 29088,
            "time": 45.449999999999996,
            "velocity": 0.3937007874015748
          },
          {
            "duration": 0.14999999999999858,
            "durationTicks": 96,
            "midi": 27,
            "name": "D#1",
            "ticks": 29184,
            "time": 45.6,
            "velocity": 0.3937007874015748
          },
          {
            "duration": 0.14999999999999858,
            "durationTicks": 96,
            "midi": 39,
            "name": "D#2",
            "ticks": 29280,
            "time": 45.75,
            "velocity": 0.3937007874015748
          },
          {
            "duration": 0.14999999999999858,
            "durationTicks": 96,
            "midi": 27,
            "name": "D#1",
            "ticks": 29376,
            "time": 45.9,
            "velocity": 0.3937007874015748
          },
          {
            "duration": 0.14999999999999858,
            "durationTicks": 96,
            "midi": 39,
            "name": "D#2",
            "ticks": 29472,
            "time": 46.05,
            "velocity": 0.3937007874015748
          },
          {
            "duration": 0.15000000000000568,
            "durationTicks": 96,
            "midi": 40,
            "name": "E2",
            "ticks": 29568,
            "time": 46.199999999999996,
            "velocity": 0.3937007874015748
          },
          {
            "duration": 0.14999999999999858,
            "durationTicks": 96,
            "midi": 27,
            "name": "D#1",
            "ticks": 29664,
            "time": 46.35,
            "velocity": 0.3937007874015748
          },
          {
            "duration": 0.14999999999999858,
            "durationTicks": 96,
            "midi": 38,
            "name": "D2",
            "ticks": 29760,
            "time": 46.5,
            "velocity": 0.3937007874015748
          },
          {
            "duration": 0.14999999999999858,
            "durationTicks": 96,
            "midi": 27,
            "name": "D#1",
            "ticks": 29856,
            "time": 46.65,
            "velocity": 0.3937007874015748
          },
          {
            "duration": 0.14999999999999858,
            "durationTicks": 96,
            "midi": 38,
            "name": "D2",
            "ticks": 29952,
            "time": 46.8,
            "velocity": 0.3937007874015748
          },
          {
            "duration": 0.15000000000000568,
            "durationTicks": 96,
            "midi": 27,
            "name": "D#1",
            "ticks": 30048,
            "time": 46.949999999999996,
            "velocity": 0.3937007874015748
          },
          {
            "duration": 0.14999999999999858,
            "durationTicks": 96,
            "midi": 42,
            "name": "F#2",
            "ticks": 30144,
            "time": 47.1,
            "velocity": 0.3937007874015748
          },
          {
            "duration": 0.14999999999999858,
            "durationTicks": 96,
            "midi": 27,
            "name": "D#1",
            "ticks": 30240,
            "time": 47.25,
            "velocity": 0.3937007874015748
          },
          {
            "duration": 0.14999999999999858,
            "durationTicks": 96,
            "midi": 42,
            "name": "F#2",
            "ticks": 30336,
            "time": 47.4,
            "velocity": 0.3937007874015748
          },
          {
            "duration": 0.14999999999999858,
            "durationTicks": 96,
            "midi": 27,
            "name": "D#1",
            "ticks": 30432,
            "time": 47.55,
            "velocity": 0.3937007874015748
          },
          {
            "duration": 0.15000000000000568,
            "durationTicks": 96,
            "midi": 38,
            "name": "D2",
            "ticks": 30528,
            "time": 47.699999999999996,
            "velocity": 0.3937007874015748
          },
          {
            "duration": 0.14999999999999858,
            "durationTicks": 96,
            "midi": 40,
            "name": "E2",
            "ticks": 30624,
            "time": 47.85,
            "velocity": 0.3937007874015748
          },
          {
            "duration": 0.14999999999999858,
            "durationTicks": 96,
            "midi": 27,
            "name": "D#1",
            "ticks": 30720,
            "time": 48,
            "velocity": 0.3937007874015748
          },
          {
            "duration": 0.14999999999999858,
            "durationTicks": 96,
            "midi": 39,
            "name": "D#2",
            "ticks": 30816,
            "time": 48.15,
            "velocity": 0.3937007874015748
          },
          {
            "duration": 0.14999999999999858,
            "durationTicks": 96,
            "midi": 27,
            "name": "D#1",
            "ticks": 30912,
            "time": 48.3,
            "velocity": 0.3937007874015748
          },
          {
            "duration": 0.15000000000000568,
            "durationTicks": 96,
            "midi": 39,
            "name": "D#2",
            "ticks": 31008,
            "time": 48.449999999999996,
            "velocity": 0.3937007874015748
          },
          {
            "duration": 0.14999999999999858,
            "durationTicks": 96,
            "midi": 40,
            "name": "E2",
            "ticks": 31104,
            "time": 48.6,
            "velocity": 0.3937007874015748
          },
          {
            "duration": 0.14999999999999858,
            "durationTicks": 96,
            "midi": 27,
            "name": "D#1",
            "ticks": 31200,
            "time": 48.75,
            "velocity": 0.3937007874015748
          },
          {
            "duration": 0.14999999999999858,
            "durationTicks": 96,
            "midi": 38,
            "name": "D2",
            "ticks": 31296,
            "time": 48.9,
            "velocity": 0.3937007874015748
          },
          {
            "duration": 0.14999999999999858,
            "durationTicks": 96,
            "midi": 27,
            "name": "D#1",
            "ticks": 31392,
            "time": 49.05,
            "velocity": 0.3937007874015748
          },
          {
            "duration": 0.15000000000000568,
            "durationTicks": 96,
            "midi": 38,
            "name": "D2",
            "ticks": 31488,
            "time": 49.199999999999996,
            "velocity": 0.3937007874015748
          },
          {
            "duration": 0.14999999999999858,
            "durationTicks": 96,
            "midi": 27,
            "name": "D#1",
            "ticks": 31584,
            "time": 49.35,
            "velocity": 0.3937007874015748
          },
          {
            "duration": 0.14999999999999858,
            "durationTicks": 96,
            "midi": 41,
            "name": "F2",
            "ticks": 31680,
            "time": 49.5,
            "velocity": 0.3937007874015748
          },
          {
            "duration": 0.14999999999999858,
            "durationTicks": 96,
            "midi": 27,
            "name": "D#1",
            "ticks": 31776,
            "time": 49.65,
            "velocity": 0.3937007874015748
          },
          {
            "duration": 0.14999999999999858,
            "durationTicks": 96,
            "midi": 41,
            "name": "F2",
            "ticks": 31872,
            "time": 49.8,
            "velocity": 0.3937007874015748
          },
          {
            "duration": 0.15000000000000568,
            "durationTicks": 96,
            "midi": 27,
            "name": "D#1",
            "ticks": 31968,
            "time": 49.949999999999996,
            "velocity": 0.3937007874015748
          },
          {
            "duration": 0.14999999999999858,
            "durationTicks": 96,
            "midi": 38,
            "name": "D2",
            "ticks": 32064,
            "time": 50.1,
            "velocity": 0.3937007874015748
          },
          {
            "duration": 0.14999999999999858,
            "durationTicks": 96,
            "midi": 40,
            "name": "E2",
            "ticks": 32160,
            "time": 50.25,
            "velocity": 0.3937007874015748
          },
          {
            "duration": 0.14999999999999858,
            "durationTicks": 96,
            "midi": 27,
            "name": "D#1",
            "ticks": 32256,
            "time": 50.4,
            "velocity": 0.3937007874015748
          },
          {
            "duration": 0.14999999999999858,
            "durationTicks": 96,
            "midi": 39,
            "name": "D#2",
            "ticks": 32352,
            "time": 50.55,
            "velocity": 0.3937007874015748
          },
          {
            "duration": 0.15000000000000568,
            "durationTicks": 96,
            "midi": 27,
            "name": "D#1",
            "ticks": 32448,
            "time": 50.699999999999996,
            "velocity": 0.3937007874015748
          },
          {
            "duration": 0.14999999999999858,
            "durationTicks": 96,
            "midi": 39,
            "name": "D#2",
            "ticks": 32544,
            "time": 50.85,
            "velocity": 0.3937007874015748
          },
          {
            "duration": 0.14999999999999858,
            "durationTicks": 96,
            "midi": 40,
            "name": "E2",
            "ticks": 32640,
            "time": 51,
            "velocity": 0.3937007874015748
          },
          {
            "duration": 0.14999999999999858,
            "durationTicks": 96,
            "midi": 27,
            "name": "D#1",
            "ticks": 32736,
            "time": 51.15,
            "velocity": 0.3937007874015748
          },
          {
            "duration": 0.14999999999999858,
            "durationTicks": 96,
            "midi": 38,
            "name": "D2",
            "ticks": 32832,
            "time": 51.3,
            "velocity": 0.3937007874015748
          },
          {
            "duration": 0.15000000000000568,
            "durationTicks": 96,
            "midi": 27,
            "name": "D#1",
            "ticks": 32928,
            "time": 51.449999999999996,
            "velocity": 0.3937007874015748
          },
          {
            "duration": 0.14999999999999858,
            "durationTicks": 96,
            "midi": 38,
            "name": "D2",
            "ticks": 33024,
            "time": 51.6,
            "velocity": 0.3937007874015748
          },
          {
            "duration": 0.14999999999999858,
            "durationTicks": 96,
            "midi": 27,
            "name": "D#1",
            "ticks": 33120,
            "time": 51.75,
            "velocity": 0.3937007874015748
          },
          {
            "duration": 0.14999999999999858,
            "durationTicks": 96,
            "midi": 42,
            "name": "F#2",
            "ticks": 33216,
            "time": 51.9,
            "velocity": 0.3937007874015748
          },
          {
            "duration": 0.14999999999999858,
            "durationTicks": 96,
            "midi": 27,
            "name": "D#1",
            "ticks": 33312,
            "time": 52.05,
            "velocity": 0.3937007874015748
          },
          {
            "duration": 0.15000000000000568,
            "durationTicks": 96,
            "midi": 42,
            "name": "F#2",
            "ticks": 33408,
            "time": 52.199999999999996,
            "velocity": 0.3937007874015748
          },
          {
            "duration": 0.14999999999999858,
            "durationTicks": 96,
            "midi": 27,
            "name": "D#1",
            "ticks": 33504,
            "time": 52.35,
            "velocity": 0.3937007874015748
          },
          {
            "duration": 0.14999999999999858,
            "durationTicks": 96,
            "midi": 38,
            "name": "D2",
            "ticks": 33600,
            "time": 52.5,
            "velocity": 0.3937007874015748
          },
          {
            "duration": 0.14999999999999858,
            "durationTicks": 96,
            "midi": 40,
            "name": "E2",
            "ticks": 33696,
            "time": 52.65,
            "velocity": 0.3937007874015748
          },
          {
            "duration": 0.14999999999999858,
            "durationTicks": 96,
            "midi": 27,
            "name": "D#1",
            "ticks": 33792,
            "time": 52.8,
            "velocity": 0.3937007874015748
          },
          {
            "duration": 0.15000000000000568,
            "durationTicks": 96,
            "midi": 39,
            "name": "D#2",
            "ticks": 33888,
            "time": 52.949999999999996,
            "velocity": 0.3937007874015748
          },
          {
            "duration": 0.14999999999999858,
            "durationTicks": 96,
            "midi": 27,
            "name": "D#1",
            "ticks": 33984,
            "time": 53.1,
            "velocity": 0.3937007874015748
          },
          {
            "duration": 0.14999999999999858,
            "durationTicks": 96,
            "midi": 39,
            "name": "D#2",
            "ticks": 34080,
            "time": 53.25,
            "velocity": 0.3937007874015748
          },
          {
            "duration": 0.14999999999999858,
            "durationTicks": 96,
            "midi": 40,
            "name": "E2",
            "ticks": 34176,
            "time": 53.4,
            "velocity": 0.3937007874015748
          },
          {
            "duration": 0.14999999999999858,
            "durationTicks": 96,
            "midi": 27,
            "name": "D#1",
            "ticks": 34272,
            "time": 53.55,
            "velocity": 0.3937007874015748
          },
          {
            "duration": 0.15000000000000568,
            "durationTicks": 96,
            "midi": 38,
            "name": "D2",
            "ticks": 34368,
            "time": 53.699999999999996,
            "velocity": 0.3937007874015748
          },
          {
            "duration": 0.14999999999999858,
            "durationTicks": 96,
            "midi": 27,
            "name": "D#1",
            "ticks": 34464,
            "time": 53.85,
            "velocity": 0.3937007874015748
          },
          {
            "duration": 0.14999999999999858,
            "durationTicks": 96,
            "midi": 38,
            "name": "D2",
            "ticks": 34560,
            "time": 54,
            "velocity": 0.3937007874015748
          },
          {
            "duration": 0.14999999999999858,
            "durationTicks": 96,
            "midi": 27,
            "name": "D#1",
            "ticks": 34656,
            "time": 54.15,
            "velocity": 0.3937007874015748
          },
          {
            "duration": 0.14999999999999858,
            "durationTicks": 96,
            "midi": 41,
            "name": "F2",
            "ticks": 34752,
            "time": 54.3,
            "velocity": 0.3937007874015748
          },
          {
            "duration": 0.15000000000000568,
            "durationTicks": 96,
            "midi": 27,
            "name": "D#1",
            "ticks": 34848,
            "time": 54.449999999999996,
            "velocity": 0.3937007874015748
          },
          {
            "duration": 0.14999999999999858,
            "durationTicks": 96,
            "midi": 41,
            "name": "F2",
            "ticks": 34944,
            "time": 54.6,
            "velocity": 0.3937007874015748
          },
          {
            "duration": 0.14999999999999858,
            "durationTicks": 96,
            "midi": 27,
            "name": "D#1",
            "ticks": 35040,
            "time": 54.75,
            "velocity": 0.3937007874015748
          },
          {
            "duration": 0.14999999999999858,
            "durationTicks": 96,
            "midi": 38,
            "name": "D2",
            "ticks": 35136,
            "time": 54.9,
            "velocity": 0.3937007874015748
          },
          {
            "duration": 0.14999999999999858,
            "durationTicks": 96,
            "midi": 40,
            "name": "E2",
            "ticks": 35232,
            "time": 55.05,
            "velocity": 0.3937007874015748
          },
          {
            "duration": 0.15000000000000568,
            "durationTicks": 96,
            "midi": 27,
            "name": "D#1",
            "ticks": 35328,
            "time": 55.199999999999996,
            "velocity": 0.3937007874015748
          },
          {
            "duration": 0.14999999999999858,
            "durationTicks": 96,
            "midi": 39,
            "name": "D#2",
            "ticks": 35424,
            "time": 55.35,
            "velocity": 0.3937007874015748
          },
          {
            "duration": 0.14999999999999858,
            "durationTicks": 96,
            "midi": 27,
            "name": "D#1",
            "ticks": 35520,
            "time": 55.5,
            "velocity": 0.3937007874015748
          },
          {
            "duration": 0.14999999999999858,
            "durationTicks": 96,
            "midi": 39,
            "name": "D#2",
            "ticks": 35616,
            "time": 55.65,
            "velocity": 0.3937007874015748
          },
          {
            "duration": 0.14999999999999858,
            "durationTicks": 96,
            "midi": 40,
            "name": "E2",
            "ticks": 35712,
            "time": 55.8,
            "velocity": 0.3937007874015748
          },
          {
            "duration": 0.15000000000000568,
            "durationTicks": 96,
            "midi": 27,
            "name": "D#1",
            "ticks": 35808,
            "time": 55.949999999999996,
            "velocity": 0.3937007874015748
          },
          {
            "duration": 0.14999999999999858,
            "durationTicks": 96,
            "midi": 38,
            "name": "D2",
            "ticks": 35904,
            "time": 56.1,
            "velocity": 0.3937007874015748
          }
        ],
        "endOfTrackTicks": 36000
      },
      {
        "channel": 1,
        "controlChanges": {},
        "pitchBends": [],
        "instrument": {
          "family": "bass",
          "number": 32,
          "name": "acoustic bass"
        },
        "name": "Bass (Classic)",
        "notes": [
          {
            "duration": 0.3000000000000007,
            "durationTicks": 192,
            "midi": 63,
            "name": "D#4",
            "ticks": 6144,
            "time": 9.6,
            "velocity": 0.6456692913385826
          },
          {
            "duration": 0.29999999999999893,
            "durationTicks": 192,
            "midi": 51,
            "name": "D#3",
            "ticks": 6336,
            "time": 9.9,
            "velocity": 0.6456692913385826
          },
          {
            "duration": 0.3000000000000007,
            "durationTicks": 192,
            "midi": 51,
            "name": "D#3",
            "ticks": 6624,
            "time": 10.35,
            "velocity": 0.6456692913385826
          },
          {
            "duration": 0.3000000000000007,
            "durationTicks": 192,
            "midi": 51,
            "name": "D#3",
            "ticks": 6912,
            "time": 10.799999999999999,
            "velocity": 0.6456692913385826
          },
          {
            "duration": 0.15000000000000036,
            "durationTicks": 96,
            "midi": 51,
            "name": "D#3",
            "ticks": 7104,
            "time": 11.1,
            "velocity": 0.6456692913385826
          },
          {
            "duration": 0.29999999999999893,
            "durationTicks": 192,
            "midi": 51,
            "name": "D#3",
            "ticks": 7200,
            "time": 11.25,
            "velocity": 0.6456692913385826
          },
          {
            "duration": 0.15000000000000036,
            "durationTicks": 96,
            "midi": 51,
            "name": "D#3",
            "ticks": 7392,
            "time": 11.549999999999999,
            "velocity": 0.6456692913385826
          },
          {
            "duration": 0.15000000000000036,
            "durationTicks": 96,
            "midi": 62,
            "name": "D4",
            "ticks": 7488,
            "time": 11.7,
            "velocity": 0.6456692913385826
          },
          {
            "duration": 0.15000000000000036,
            "durationTicks": 96,
            "midi": 64,
            "name": "E4",
            "ticks": 7584,
            "time": 11.85,
            "velocity": 0.6456692913385826
          },
          {
            "duration": 0.29999999999999893,
            "durationTicks": 192,
            "midi": 63,
            "name": "D#4",
            "ticks": 7680,
            "time": 12,
            "velocity": 0.6456692913385826
          },
          {
            "duration": 0.3000000000000007,
            "durationTicks": 192,
            "midi": 51,
            "name": "D#3",
            "ticks": 7872,
            "time": 12.299999999999999,
            "velocity": 0.6456692913385826
          },
          {
            "duration": 0.29999999999999893,
            "durationTicks": 192,
            "midi": 51,
            "name": "D#3",
            "ticks": 8160,
            "time": 12.75,
            "velocity": 0.6456692913385826
          },
          {
            "duration": 0.3000000000000007,
            "durationTicks": 192,
            "midi": 52,
            "name": "E3",
            "ticks": 8448,
            "time": 13.2,
            "velocity": 0.6456692913385826
          },
          {
            "duration": 0.15000000000000036,
            "durationTicks": 96,
            "midi": 52,
            "name": "E3",
            "ticks": 8640,
            "time": 13.5,
            "velocity": 0.6456692913385826
          },
          {
            "duration": 0.5999999999999996,
            "durationTicks": 384,
            "midi": 64,
            "name": "E4",
            "ticks": 8736,
            "time": 13.65,
            "velocity": 0.6456692913385826
          },
          {
            "duration": 0.29999999999999893,
            "durationTicks": 192,
            "midi": 52,
            "name": "E3",
            "ticks": 9024,
            "time": 14.1,
            "velocity": 0.6456692913385826
          },
          {
            "duration": 0.3000000000000007,
            "durationTicks": 192,
            "midi": 63,
            "name": "D#4",
            "ticks": 9216,
            "time": 14.399999999999999,
            "velocity": 0.6456692913385826
          },
          {
            "duration": 0.3000000000000007,
            "durationTicks": 192,
            "midi": 51,
            "name": "D#3",
            "ticks": 9408,
            "time": 14.7,
            "velocity": 0.6456692913385826
          },
          {
            "duration": 0.3000000000000007,
            "durationTicks": 192,
            "midi": 51,
            "name": "D#3",
            "ticks": 9696,
            "time": 15.149999999999999,
            "velocity": 0.6456692913385826
          },
          {
            "duration": 0.29999999999999893,
            "durationTicks": 192,
            "midi": 51,
            "name": "D#3",
            "ticks": 9984,
            "time": 15.6,
            "velocity": 0.6456692913385826
          },
          {
            "duration": 0.15000000000000213,
            "durationTicks": 96,
            "midi": 51,
            "name": "D#3",
            "ticks": 10176,
            "time": 15.899999999999999,
            "velocity": 0.6456692913385826
          },
          {
            "duration": 0.29999999999999716,
            "durationTicks": 192,
            "midi": 51,
            "name": "D#3",
            "ticks": 10272,
            "time": 16.05,
            "velocity": 0.6456692913385826
          },
          {
            "duration": 0.15000000000000213,
            "durationTicks": 96,
            "midi": 51,
            "name": "D#3",
            "ticks": 10464,
            "time": 16.349999999999998,
            "velocity": 0.6456692913385826
          },
          {
            "duration": 0.14999999999999858,
            "durationTicks": 96,
            "midi": 62,
            "name": "D4",
            "ticks": 10560,
            "time": 16.5,
            "velocity": 0.6456692913385826
          },
          {
            "duration": 0.15000000000000213,
            "durationTicks": 96,
            "midi": 64,
            "name": "E4",
            "ticks": 10656,
            "time": 16.65,
            "velocity": 0.6456692913385826
          },
          {
            "duration": 0.29999999999999716,
            "durationTicks": 192,
            "midi": 63,
            "name": "D#4",
            "ticks": 10752,
            "time": 16.8,
            "velocity": 0.6456692913385826
          },
          {
            "duration": 0.3000000000000007,
            "durationTicks": 192,
            "midi": 51,
            "name": "D#3",
            "ticks": 10944,
            "time": 17.099999999999998,
            "velocity": 0.6456692913385826
          },
          {
            "duration": 0.14999999999999858,
            "durationTicks": 96,
            "midi": 51,
            "name": "D#3",
            "ticks": 11232,
            "time": 17.55,
            "velocity": 0.6456692913385826
          },
          {
            "duration": 0.14999999999999858,
            "durationTicks": 96,
            "midi": 61,
            "name": "C#4",
            "ticks": 11328,
            "time": 17.7,
            "velocity": 0.6456692913385826
          },
          {
            "duration": 0.15000000000000213,
            "durationTicks": 96,
            "midi": 63,
            "name": "D#4",
            "ticks": 11424,
            "time": 17.849999999999998,
            "velocity": 0.6456692913385826
          },
          {
            "duration": 0.14999999999999858,
            "durationTicks": 96,
            "midi": 62,
            "name": "D4",
            "ticks": 11520,
            "time": 18,
            "velocity": 0.6456692913385826
          },
          {
            "duration": 0.15000000000000213,
            "durationTicks": 96,
            "midi": 50,
            "name": "D3",
            "ticks": 11616,
            "time": 18.15,
            "velocity": 0.6456692913385826
          },
          {
            "duration": 0.14999999999999858,
            "durationTicks": 96,
            "midi": 50,
            "name": "D3",
            "ticks": 11808,
            "time": 18.45,
            "velocity": 0.6456692913385826
          },
          {
            "duration": 0.15000000000000213,
            "durationTicks": 96,
            "midi": 50,
            "name": "D3",
            "ticks": 12096,
            "time": 18.9,
            "velocity": 0.6456692913385826
          },
          {
            "duration": 0.3000000000000007,
            "durationTicks": 192,
            "midi": 63,
            "name": "D#4",
            "ticks": 12288,
            "time": 19.2,
            "velocity": 0.6456692913385826
          },
          {
            "duration": 0.3000000000000007,
            "durationTicks": 192,
            "midi": 51,
            "name": "D#3",
            "ticks": 12480,
            "time": 19.5,
            "velocity": 0.6456692913385826
          },
          {
            "duration": 0.3000000000000007,
            "durationTicks": 192,
            "midi": 51,
            "name": "D#3",
            "ticks": 12768,
            "time": 19.95,
            "velocity": 0.6456692913385826
          },
          {
            "duration": 0.3000000000000007,
            "durationTicks": 192,
            "midi": 51,
            "name": "D#3",
            "ticks": 13056,
            "time": 20.4,
            "velocity": 0.6456692913385826
          },
          {
            "duration": 0.14999999999999858,
            "durationTicks": 96,
            "midi": 51,
            "name": "D#3",
            "ticks": 13248,
            "time": 20.7,
            "velocity": 0.6456692913385826
          },
          {
            "duration": 0.3000000000000007,
            "durationTicks": 192,
            "midi": 51,
            "name": "D#3",
            "ticks": 13344,
            "time": 20.849999999999998,
            "velocity": 0.6456692913385826
          },
          {
            "duration": 0.15000000000000213,
            "durationTicks": 96,
            "midi": 51,
            "name": "D#3",
            "ticks": 13536,
            "time": 21.15,
            "velocity": 0.6456692913385826
          },
          {
            "duration": 0.14999999999999858,
            "durationTicks": 96,
            "midi": 62,
            "name": "D4",
            "ticks": 13632,
            "time": 21.3,
            "velocity": 0.6456692913385826
          },
          {
            "duration": 0.14999999999999858,
            "durationTicks": 96,
            "midi": 64,
            "name": "E4",
            "ticks": 13728,
            "time": 21.45,
            "velocity": 0.6456692913385826
          },
          {
            "duration": 0.3000000000000007,
            "durationTicks": 192,
            "midi": 63,
            "name": "D#4",
            "ticks": 13824,
            "time": 21.599999999999998,
            "velocity": 0.6456692913385826
          },
          {
            "duration": 0.3000000000000007,
            "durationTicks": 192,
            "midi": 51,
            "name": "D#3",
            "ticks": 14016,
            "time": 21.9,
            "velocity": 0.6456692913385826
          },
          {
            "duration": 0.3000000000000007,
            "durationTicks": 192,
            "midi": 51,
            "name": "D#3",
            "ticks": 14304,
            "time": 22.349999999999998,
            "velocity": 0.6456692913385826
          },
          {
            "duration": 0.29999999999999716,
            "durationTicks": 192,
            "midi": 52,
            "name": "E3",
            "ticks": 14592,
            "time": 22.8,
            "velocity": 0.6456692913385826
          },
          {
            "duration": 0.15000000000000213,
            "durationTicks": 96,
            "midi": 52,
            "name": "E3",
            "ticks": 14784,
            "time": 23.099999999999998,
            "velocity": 0.6456692913385826
          },
          {
            "duration": 0.5999999999999979,
            "durationTicks": 384,
            "midi": 64,
            "name": "E4",
            "ticks": 14880,
            "time": 23.25,
            "velocity": 0.6456692913385826
          },
          {
            "duration": 0.3000000000000007,
            "durationTicks": 192,
            "midi": 52,
            "name": "E3",
            "ticks": 15168,
            "time": 23.7,
            "velocity": 0.6456692913385826
          },
          {
            "duration": 0.3000000000000007,
            "durationTicks": 192,
            "midi": 63,
            "name": "D#4",
            "ticks": 15360,
            "time": 24,
            "velocity": 0.6456692913385826
          },
          {
            "duration": 0.29999999999999716,
            "durationTicks": 192,
            "midi": 51,
            "name": "D#3",
            "ticks": 15552,
            "time": 24.3,
            "velocity": 0.6456692913385826
          },
          {
            "duration": 0.3000000000000007,
            "durationTicks": 192,
            "midi": 51,
            "name": "D#3",
            "ticks": 15840,
            "time": 24.75,
            "velocity": 0.6456692913385826
          },
          {
            "duration": 0.3000000000000007,
            "durationTicks": 192,
            "midi": 51,
            "name": "D#3",
            "ticks": 16128,
            "time": 25.2,
            "velocity": 0.6456692913385826
          },
          {
            "duration": 0.14999999999999858,
            "durationTicks": 96,
            "midi": 51,
            "name": "D#3",
            "ticks": 16320,
            "time": 25.5,
            "velocity": 0.6456692913385826
          },
          {
            "duration": 0.3000000000000007,
            "durationTicks": 192,
            "midi": 51,
            "name": "D#3",
            "ticks": 16416,
            "time": 25.65,
            "velocity": 0.6456692913385826
          },
          {
            "duration": 0.14999999999999858,
            "durationTicks": 96,
            "midi": 51,
            "name": "D#3",
            "ticks": 16608,
            "time": 25.95,
            "velocity": 0.6456692913385826
          },
          {
            "duration": 0.15000000000000213,
            "durationTicks": 96,
            "midi": 62,
            "name": "D4",
            "ticks": 16704,
            "time": 26.099999999999998,
            "velocity": 0.6456692913385826
          },
          {
            "duration": 0.14999999999999858,
            "durationTicks": 96,
            "midi": 64,
            "name": "E4",
            "ticks": 16800,
            "time": 26.25,
            "velocity": 0.6456692913385826
          },
          {
            "duration": 0.3000000000000007,
            "durationTicks": 192,
            "midi": 63,
            "name": "D#4",
            "ticks": 16896,
            "time": 26.4,
            "velocity": 0.6456692913385826
          },
          {
            "duration": 0.3000000000000007,
            "durationTicks": 192,
            "midi": 51,
            "name": "D#3",
            "ticks": 17088,
            "time": 26.7,
            "velocity": 0.6456692913385826
          },
          {
            "duration": 0.15000000000000213,
            "durationTicks": 96,
            "midi": 51,
            "name": "D#3",
            "ticks": 17376,
            "time": 27.15,
            "velocity": 0.6456692913385826
          },
          {
            "duration": 0.14999999999999858,
            "durationTicks": 96,
            "midi": 61,
            "name": "C#4",
            "ticks": 17472,
            "time": 27.3,
            "velocity": 0.6456692913385826
          },
          {
            "duration": 0.14999999999999858,
            "durationTicks": 96,
            "midi": 63,
            "name": "D#4",
            "ticks": 17568,
            "time": 27.45,
            "velocity": 0.6456692913385826
          },
          {
            "duration": 0.15000000000000213,
            "durationTicks": 96,
            "midi": 62,
            "name": "D4",
            "ticks": 17664,
            "time": 27.599999999999998,
            "velocity": 0.6456692913385826
          },
          {
            "duration": 0.14999999999999858,
            "durationTicks": 96,
            "midi": 50,
            "name": "D3",
            "ticks": 17760,
            "time": 27.75,
            "velocity": 0.6456692913385826
          },
          {
            "duration": 0.14999999999999858,
            "durationTicks": 96,
            "midi": 50,
            "name": "D3",
            "ticks": 17952,
            "time": 28.05,
            "velocity": 0.6456692913385826
          },
          {
            "duration": 0.14999999999999858,
            "durationTicks": 96,
            "midi": 50,
            "name": "D3",
            "ticks": 18240,
            "time": 28.5,
            "velocity": 0.6456692913385826
          },
          {
            "duration": 0.3000000000000007,
            "durationTicks": 192,
            "midi": 63,
            "name": "D#4",
            "ticks": 18432,
            "time": 28.799999999999997,
            "velocity": 0.6456692913385826
          },
          {
            "duration": 0.3000000000000007,
            "durationTicks": 192,
            "midi": 51,
            "name": "D#3",
            "ticks": 18624,
            "time": 29.099999999999998,
            "velocity": 0.6456692913385826
          },
          {
            "duration": 0.3000000000000007,
            "durationTicks": 192,
            "midi": 51,
            "name": "D#3",
            "ticks": 18912,
            "time": 29.549999999999997,
            "velocity": 0.6456692913385826
          },
          {
            "duration": 0.29999999999999716,
            "durationTicks": 192,
            "midi": 51,
            "name": "D#3",
            "ticks": 19200,
            "time": 30,
            "velocity": 0.6456692913385826
          },
          {
            "duration": 0.15000000000000213,
            "durationTicks": 96,
            "midi": 51,
            "name": "D#3",
            "ticks": 19392,
            "time": 30.299999999999997,
            "velocity": 0.6456692913385826
          },
          {
            "duration": 0.3000000000000007,
            "durationTicks": 192,
            "midi": 51,
            "name": "D#3",
            "ticks": 19488,
            "time": 30.45,
            "velocity": 0.6456692913385826
          },
          {
            "duration": 0.14999999999999858,
            "durationTicks": 96,
            "midi": 51,
            "name": "D#3",
            "ticks": 19680,
            "time": 30.75,
            "velocity": 0.6456692913385826
          },
          {
            "duration": 0.14999999999999858,
            "durationTicks": 96,
            "midi": 62,
            "name": "D4",
            "ticks": 19776,
            "time": 30.9,
            "velocity": 0.6456692913385826
          },
          {
            "duration": 0.15000000000000213,
            "durationTicks": 96,
            "midi": 64,
            "name": "E4",
            "ticks": 19872,
            "time": 31.049999999999997,
            "velocity": 0.6456692913385826
          },
          {
            "duration": 0.3000000000000007,
            "durationTicks": 192,
            "midi": 63,
            "name": "D#4",
            "ticks": 19968,
            "time": 31.2,
            "velocity": 0.6456692913385826
          },
          {
            "duration": 0.29999999999999716,
            "durationTicks": 192,
            "midi": 51,
            "name": "D#3",
            "ticks": 20160,
            "time": 31.5,
            "velocity": 0.6456692913385826
          },
          {
            "duration": 0.3000000000000007,
            "durationTicks": 192,
            "midi": 51,
            "name": "D#3",
            "ticks": 20448,
            "time": 31.95,
            "velocity": 0.6456692913385826
          },
          {
            "duration": 0.29999999999999716,
            "durationTicks": 192,
            "midi": 52,
            "name": "E3",
            "ticks": 20736,
            "time": 32.4,
            "velocity": 0.6456692913385826
          },
          {
            "duration": 0.15000000000000568,
            "durationTicks": 96,
            "midi": 52,
            "name": "E3",
            "ticks": 20928,
            "time": 32.699999999999996,
            "velocity": 0.6456692913385826
          },
          {
            "duration": 0.5999999999999943,
            "durationTicks": 384,
            "midi": 64,
            "name": "E4",
            "ticks": 21024,
            "time": 32.85,
            "velocity": 0.6456692913385826
          },
          {
            "duration": 0.30000000000000426,
            "durationTicks": 192,
            "midi": 52,
            "name": "E3",
            "ticks": 21312,
            "time": 33.3,
            "velocity": 0.6456692913385826
          },
          {
            "duration": 0.29999999999999716,
            "durationTicks": 192,
            "midi": 63,
            "name": "D#4",
            "ticks": 21504,
            "time": 33.6,
            "velocity": 0.6456692913385826
          },
          {
            "duration": 0.29999999999999716,
            "durationTicks": 192,
            "midi": 51,
            "name": "D#3",
            "ticks": 21696,
            "time": 33.9,
            "velocity": 0.6456692913385826
          },
          {
            "duration": 0.29999999999999716,
            "durationTicks": 192,
            "midi": 51,
            "name": "D#3",
            "ticks": 21984,
            "time": 34.35,
            "velocity": 0.6456692913385826
          },
          {
            "duration": 0.30000000000000426,
            "durationTicks": 192,
            "midi": 51,
            "name": "D#3",
            "ticks": 22272,
            "time": 34.8,
            "velocity": 0.6456692913385826
          },
          {
            "duration": 0.14999999999999858,
            "durationTicks": 96,
            "midi": 51,
            "name": "D#3",
            "ticks": 22464,
            "time": 35.1,
            "velocity": 0.6456692913385826
          },
          {
            "duration": 0.29999999999999716,
            "durationTicks": 192,
            "midi": 51,
            "name": "D#3",
            "ticks": 22560,
            "time": 35.25,
            "velocity": 0.6456692913385826
          },
          {
            "duration": 0.14999999999999858,
            "durationTicks": 96,
            "midi": 51,
            "name": "D#3",
            "ticks": 22752,
            "time": 35.55,
            "velocity": 0.6456692913385826
          },
          {
            "duration": 0.15000000000000568,
            "durationTicks": 96,
            "midi": 62,
            "name": "D4",
            "ticks": 22848,
            "time": 35.699999999999996,
            "velocity": 0.6456692913385826
          },
          {
            "duration": 0.14999999999999858,
            "durationTicks": 96,
            "midi": 64,
            "name": "E4",
            "ticks": 22944,
            "time": 35.85,
            "velocity": 0.6456692913385826
          },
          {
            "duration": 0.29999999999999716,
            "durationTicks": 192,
            "midi": 63,
            "name": "D#4",
            "ticks": 23040,
            "time": 36,
            "velocity": 0.6456692913385826
          },
          {
            "duration": 0.30000000000000426,
            "durationTicks": 192,
            "midi": 51,
            "name": "D#3",
            "ticks": 23232,
            "time": 36.3,
            "velocity": 0.6456692913385826
          },
          {
            "duration": 0.14999999999999858,
            "durationTicks": 96,
            "midi": 51,
            "name": "D#3",
            "ticks": 23520,
            "time": 36.75,
            "velocity": 0.6456692913385826
          },
          {
            "duration": 0.14999999999999858,
            "durationTicks": 96,
            "midi": 61,
            "name": "C#4",
            "ticks": 23616,
            "time": 36.9,
            "velocity": 0.6456692913385826
          },
          {
            "duration": 0.14999999999999858,
            "durationTicks": 96,
            "midi": 63,
            "name": "D#4",
            "ticks": 23712,
            "time": 37.05,
            "velocity": 0.6456692913385826
          },
          {
            "duration": 0.15000000000000568,
            "durationTicks": 96,
            "midi": 62,
            "name": "D4",
            "ticks": 23808,
            "time": 37.199999999999996,
            "velocity": 0.6456692913385826
          },
          {
            "duration": 0.14999999999999858,
            "durationTicks": 96,
            "midi": 50,
            "name": "D3",
            "ticks": 23904,
            "time": 37.35,
            "velocity": 0.6456692913385826
          },
          {
            "duration": 0.14999999999999858,
            "durationTicks": 96,
            "midi": 50,
            "name": "D3",
            "ticks": 24096,
            "time": 37.65,
            "velocity": 0.6456692913385826
          },
          {
            "duration": 0.14999999999999858,
            "durationTicks": 96,
            "midi": 50,
            "name": "D3",
            "ticks": 24384,
            "time": 38.1,
            "velocity": 0.6456692913385826
          },
          {
            "duration": 0.14999999999999858,
            "durationTicks": 96,
            "midi": 51,
            "name": "D#3",
            "ticks": 30720,
            "time": 48,
            "velocity": 0.6456692913385826
          },
          {
            "duration": 0.14999999999999858,
            "durationTicks": 96,
            "midi": 63,
            "name": "D#4",
            "ticks": 30816,
            "time": 48.15,
            "velocity": 0.6456692913385826
          },
          {
            "duration": 0.14999999999999858,
            "durationTicks": 96,
            "midi": 51,
            "name": "D#3",
            "ticks": 30912,
            "time": 48.3,
            "velocity": 0.6456692913385826
          },
          {
            "duration": 0.15000000000000568,
            "durationTicks": 96,
            "midi": 63,
            "name": "D#4",
            "ticks": 31008,
            "time": 48.449999999999996,
            "velocity": 0.6456692913385826
          },
          {
            "duration": 0.14999999999999858,
            "durationTicks": 96,
            "midi": 64,
            "name": "E4",
            "ticks": 31104,
            "time": 48.6,
            "velocity": 0.6456692913385826
          },
          {
            "duration": 0.14999999999999858,
            "durationTicks": 96,
            "midi": 51,
            "name": "D#3",
            "ticks": 31200,
            "time": 48.75,
            "velocity": 0.6456692913385826
          },
          {
            "duration": 0.14999999999999858,
            "durationTicks": 96,
            "midi": 62,
            "name": "D4",
            "ticks": 31296,
            "time": 48.9,
            "velocity": 0.6456692913385826
          },
          {
            "duration": 0.14999999999999858,
            "durationTicks": 96,
            "midi": 51,
            "name": "D#3",
            "ticks": 31392,
            "time": 49.05,
            "velocity": 0.6456692913385826
          },
          {
            "duration": 0.15000000000000568,
            "durationTicks": 96,
            "midi": 62,
            "name": "D4",
            "ticks": 31488,
            "time": 49.199999999999996,
            "velocity": 0.6456692913385826
          },
          {
            "duration": 0.14999999999999858,
            "durationTicks": 96,
            "midi": 51,
            "name": "D#3",
            "ticks": 31584,
            "time": 49.35,
            "velocity": 0.6456692913385826
          },
          {
            "duration": 0.14999999999999858,
            "durationTicks": 96,
            "midi": 65,
            "name": "F4",
            "ticks": 31680,
            "time": 49.5,
            "velocity": 0.6456692913385826
          },
          {
            "duration": 0.14999999999999858,
            "durationTicks": 96,
            "midi": 51,
            "name": "D#3",
            "ticks": 31776,
            "time": 49.65,
            "velocity": 0.6456692913385826
          },
          {
            "duration": 0.14999999999999858,
            "durationTicks": 96,
            "midi": 65,
            "name": "F4",
            "ticks": 31872,
            "time": 49.8,
            "velocity": 0.6456692913385826
          },
          {
            "duration": 0.15000000000000568,
            "durationTicks": 96,
            "midi": 51,
            "name": "D#3",
            "ticks": 31968,
            "time": 49.949999999999996,
            "velocity": 0.6456692913385826
          },
          {
            "duration": 0.14999999999999858,
            "durationTicks": 96,
            "midi": 62,
            "name": "D4",
            "ticks": 32064,
            "time": 50.1,
            "velocity": 0.6456692913385826
          },
          {
            "duration": 0.14999999999999858,
            "durationTicks": 96,
            "midi": 64,
            "name": "E4",
            "ticks": 32160,
            "time": 50.25,
            "velocity": 0.6456692913385826
          },
          {
            "duration": 0.14999999999999858,
            "durationTicks": 96,
            "midi": 51,
            "name": "D#3",
            "ticks": 32256,
            "time": 50.4,
            "velocity": 0.6456692913385826
          },
          {
            "duration": 0.14999999999999858,
            "durationTicks": 96,
            "midi": 63,
            "name": "D#4",
            "ticks": 32352,
            "time": 50.55,
            "velocity": 0.6456692913385826
          },
          {
            "duration": 0.15000000000000568,
            "durationTicks": 96,
            "midi": 51,
            "name": "D#3",
            "ticks": 32448,
            "time": 50.699999999999996,
            "velocity": 0.6456692913385826
          },
          {
            "duration": 0.14999999999999858,
            "durationTicks": 96,
            "midi": 63,
            "name": "D#4",
            "ticks": 32544,
            "time": 50.85,
            "velocity": 0.6456692913385826
          },
          {
            "duration": 0.14999999999999858,
            "durationTicks": 96,
            "midi": 64,
            "name": "E4",
            "ticks": 32640,
            "time": 51,
            "velocity": 0.6456692913385826
          },
          {
            "duration": 0.14999999999999858,
            "durationTicks": 96,
            "midi": 51,
            "name": "D#3",
            "ticks": 32736,
            "time": 51.15,
            "velocity": 0.6456692913385826
          },
          {
            "duration": 0.14999999999999858,
            "durationTicks": 96,
            "midi": 62,
            "name": "D4",
            "ticks": 32832,
            "time": 51.3,
            "velocity": 0.6456692913385826
          },
          {
            "duration": 0.15000000000000568,
            "durationTicks": 96,
            "midi": 51,
            "name": "D#3",
            "ticks": 32928,
            "time": 51.449999999999996,
            "velocity": 0.6456692913385826
          },
          {
            "duration": 0.14999999999999858,
            "durationTicks": 96,
            "midi": 62,
            "name": "D4",
            "ticks": 33024,
            "time": 51.6,
            "velocity": 0.6456692913385826
          },
          {
            "duration": 0.14999999999999858,
            "durationTicks": 96,
            "midi": 51,
            "name": "D#3",
            "ticks": 33120,
            "time": 51.75,
            "velocity": 0.6456692913385826
          },
          {
            "duration": 0.14999999999999858,
            "durationTicks": 96,
            "midi": 66,
            "name": "F#4",
            "ticks": 33216,
            "time": 51.9,
            "velocity": 0.6456692913385826
          },
          {
            "duration": 0.14999999999999858,
            "durationTicks": 96,
            "midi": 51,
            "name": "D#3",
            "ticks": 33312,
            "time": 52.05,
            "velocity": 0.6456692913385826
          },
          {
            "duration": 0.15000000000000568,
            "durationTicks": 96,
            "midi": 66,
            "name": "F#4",
            "ticks": 33408,
            "time": 52.199999999999996,
            "velocity": 0.6456692913385826
          },
          {
            "duration": 0.14999999999999858,
            "durationTicks": 96,
            "midi": 51,
            "name": "D#3",
            "ticks": 33504,
            "time": 52.35,
            "velocity": 0.6456692913385826
          },
          {
            "duration": 0.14999999999999858,
            "durationTicks": 96,
            "midi": 62,
            "name": "D4",
            "ticks": 33600,
            "time": 52.5,
            "velocity": 0.6456692913385826
          },
          {
            "duration": 0.14999999999999858,
            "durationTicks": 96,
            "midi": 64,
            "name": "E4",
            "ticks": 33696,
            "time": 52.65,
            "velocity": 0.6456692913385826
          },
          {
            "duration": 0.14999999999999858,
            "durationTicks": 96,
            "midi": 51,
            "name": "D#3",
            "ticks": 33792,
            "time": 52.8,
            "velocity": 0.6456692913385826
          },
          {
            "duration": 0.15000000000000568,
            "durationTicks": 96,
            "midi": 63,
            "name": "D#4",
            "ticks": 33888,
            "time": 52.949999999999996,
            "velocity": 0.6456692913385826
          },
          {
            "duration": 0.14999999999999858,
            "durationTicks": 96,
            "midi": 51,
            "name": "D#3",
            "ticks": 33984,
            "time": 53.1,
            "velocity": 0.6456692913385826
          },
          {
            "duration": 0.14999999999999858,
            "durationTicks": 96,
            "midi": 63,
            "name": "D#4",
            "ticks": 34080,
            "time": 53.25,
            "velocity": 0.6456692913385826
          },
          {
            "duration": 0.14999999999999858,
            "durationTicks": 96,
            "midi": 64,
            "name": "E4",
            "ticks": 34176,
            "time": 53.4,
            "velocity": 0.6456692913385826
          },
          {
            "duration": 0.14999999999999858,
            "durationTicks": 96,
            "midi": 51,
            "name": "D#3",
            "ticks": 34272,
            "time": 53.55,
            "velocity": 0.6456692913385826
          },
          {
            "duration": 0.15000000000000568,
            "durationTicks": 96,
            "midi": 62,
            "name": "D4",
            "ticks": 34368,
            "time": 53.699999999999996,
            "velocity": 0.6456692913385826
          },
          {
            "duration": 0.14999999999999858,
            "durationTicks": 96,
            "midi": 51,
            "name": "D#3",
            "ticks": 34464,
            "time": 53.85,
            "velocity": 0.6456692913385826
          },
          {
            "duration": 0.14999999999999858,
            "durationTicks": 96,
            "midi": 62,
            "name": "D4",
            "ticks": 34560,
            "time": 54,
            "velocity": 0.6456692913385826
          },
          {
            "duration": 0.14999999999999858,
            "durationTicks": 96,
            "midi": 51,
            "name": "D#3",
            "ticks": 34656,
            "time": 54.15,
            "velocity": 0.6456692913385826
          },
          {
            "duration": 0.14999999999999858,
            "durationTicks": 96,
            "midi": 65,
            "name": "F4",
            "ticks": 34752,
            "time": 54.3,
            "velocity": 0.6456692913385826
          },
          {
            "duration": 0.15000000000000568,
            "durationTicks": 96,
            "midi": 51,
            "name": "D#3",
            "ticks": 34848,
            "time": 54.449999999999996,
            "velocity": 0.6456692913385826
          },
          {
            "duration": 0.14999999999999858,
            "durationTicks": 96,
            "midi": 65,
            "name": "F4",
            "ticks": 34944,
            "time": 54.6,
            "velocity": 0.6456692913385826
          },
          {
            "duration": 0.14999999999999858,
            "durationTicks": 96,
            "midi": 51,
            "name": "D#3",
            "ticks": 35040,
            "time": 54.75,
            "velocity": 0.6456692913385826
          },
          {
            "duration": 0.14999999999999858,
            "durationTicks": 96,
            "midi": 62,
            "name": "D4",
            "ticks": 35136,
            "time": 54.9,
            "velocity": 0.6456692913385826
          },
          {
            "duration": 0.14999999999999858,
            "durationTicks": 96,
            "midi": 64,
            "name": "E4",
            "ticks": 35232,
            "time": 55.05,
            "velocity": 0.6456692913385826
          },
          {
            "duration": 0.15000000000000568,
            "durationTicks": 96,
            "midi": 51,
            "name": "D#3",
            "ticks": 35328,
            "time": 55.199999999999996,
            "velocity": 0.6456692913385826
          },
          {
            "duration": 0.14999999999999858,
            "durationTicks": 96,
            "midi": 63,
            "name": "D#4",
            "ticks": 35424,
            "time": 55.35,
            "velocity": 0.6456692913385826
          },
          {
            "duration": 0.14999999999999858,
            "durationTicks": 96,
            "midi": 51,
            "name": "D#3",
            "ticks": 35520,
            "time": 55.5,
            "velocity": 0.6456692913385826
          },
          {
            "duration": 0.14999999999999858,
            "durationTicks": 96,
            "midi": 63,
            "name": "D#4",
            "ticks": 35616,
            "time": 55.65,
            "velocity": 0.6456692913385826
          },
          {
            "duration": 0.14999999999999858,
            "durationTicks": 96,
            "midi": 64,
            "name": "E4",
            "ticks": 35712,
            "time": 55.8,
            "velocity": 0.6456692913385826
          },
          {
            "duration": 0.15000000000000568,
            "durationTicks": 96,
            "midi": 51,
            "name": "D#3",
            "ticks": 35808,
            "time": 55.949999999999996,
            "velocity": 0.6456692913385826
          },
          {
            "duration": 0.14999999999999858,
            "durationTicks": 96,
            "midi": 62,
            "name": "D4",
            "ticks": 35904,
            "time": 56.1,
            "velocity": 0.6456692913385826
          }
        ],
        "endOfTrackTicks": 36000
      },
      {
        "channel": 2,
        "controlChanges": {},
        "pitchBends": [],
        "instrument": {
          "family": "synth lead",
          "number": 80,
          "name": "lead 1 (square)"
        },
        "name": "8-Bit Square",
        "notes": [
          {
            "duration": 0.4499999999999993,
            "durationTicks": 288,
            "midi": 63,
            "name": "D#4",
            "ticks": 12288,
            "time": 19.2,
            "velocity": 0.2204724409448819
          },
          {
            "duration": 0.4499999999999993,
            "durationTicks": 288,
            "midi": 74,
            "name": "D5",
            "ticks": 12672,
            "time": 19.8,
            "velocity": 0.2204724409448819
          },
          {
            "duration": 0.4499999999999993,
            "durationTicks": 288,
            "midi": 71,
            "name": "B4",
            "ticks": 13056,
            "time": 20.4,
            "velocity": 0.2204724409448819
          },
          {
            "duration": 0.4499999999999993,
            "durationTicks": 288,
            "midi": 70,
            "name": "A#4",
            "ticks": 13440,
            "time": 21,
            "velocity": 0.2204724409448819
          },
          {
            "duration": 0.45000000000000284,
            "durationTicks": 288,
            "midi": 75,
            "name": "D#5",
            "ticks": 13824,
            "time": 21.599999999999998,
            "velocity": 0.2204724409448819
          },
          {
            "duration": 0.4499999999999993,
            "durationTicks": 288,
            "midi": 74,
            "name": "D5",
            "ticks": 14208,
            "time": 22.2,
            "velocity": 0.2204724409448819
          },
          {
            "duration": 0.4499999999999993,
            "durationTicks": 288,
            "midi": 71,
            "name": "B4",
            "ticks": 14592,
            "time": 22.8,
            "velocity": 0.2204724409448819
          },
          {
            "duration": 0.4499999999999993,
            "durationTicks": 288,
            "midi": 70,
            "name": "A#4",
            "ticks": 14976,
            "time": 23.4,
            "velocity": 0.2204724409448819
          },
          {
            "duration": 0.4499999999999993,
            "durationTicks": 288,
            "midi": 68,
            "name": "G#4",
            "ticks": 15360,
            "time": 24,
            "velocity": 0.2204724409448819
          },
          {
            "duration": 0.45000000000000284,
            "durationTicks": 288,
            "midi": 67,
            "name": "G4",
            "ticks": 15744,
            "time": 24.599999999999998,
            "velocity": 0.2204724409448819
          },
          {
            "duration": 0.4499999999999993,
            "durationTicks": 288,
            "midi": 67,
            "name": "G4",
            "ticks": 16128,
            "time": 25.2,
            "velocity": 0.2204724409448819
          },
          {
            "duration": 0.4499999999999993,
            "durationTicks": 288,
            "midi": 67,
            "name": "G4",
            "ticks": 16512,
            "time": 25.8,
            "velocity": 0.2204724409448819
          },
          {
            "duration": 0.45000000000000284,
            "durationTicks": 288,
            "midi": 63,
            "name": "D#4",
            "ticks": 18432,
            "time": 28.799999999999997,
            "velocity": 0.2204724409448819
          },
          {
            "duration": 0.4499999999999993,
            "durationTicks": 288,
            "midi": 74,
            "name": "D5",
            "ticks": 18816,
            "time": 29.4,
            "velocity": 0.2204724409448819
          },
          {
            "duration": 0.4499999999999993,
            "durationTicks": 288,
            "midi": 71,
            "name": "B4",
            "ticks": 19200,
            "time": 30,
            "velocity": 0.2204724409448819
          },
          {
            "duration": 0.4499999999999993,
            "durationTicks": 288,
            "midi": 70,
            "name": "A#4",
            "ticks": 19584,
            "time": 30.599999999999998,
            "velocity": 0.2204724409448819
          },
          {
            "duration": 0.4499999999999993,
            "durationTicks": 288,
            "midi": 75,
            "name": "D#5",
            "ticks": 19968,
            "time": 31.2,
            "velocity": 0.2204724409448819
          },
          {
            "duration": 0.45000000000000284,
            "durationTicks": 288,
            "midi": 74,
            "name": "D5",
            "ticks": 20352,
            "time": 31.799999999999997,
            "velocity": 0.2204724409448819
          },
          {
            "duration": 0.45000000000000284,
            "durationTicks": 288,
            "midi": 71,
            "name": "B4",
            "ticks": 20736,
            "time": 32.4,
            "velocity": 0.2204724409448819
          },
          {
            "duration": 0.44999999999999574,
            "durationTicks": 288,
            "midi": 76,
            "name": "E5",
            "ticks": 21120,
            "time": 33,
            "velocity": 0.2204724409448819
          },
          {
            "duration": 0.44999999999999574,
            "durationTicks": 288,
            "midi": 75,
            "name": "D#5",
            "ticks": 21504,
            "time": 33.6,
            "velocity": 0.2204724409448819
          },
          {
            "duration": 0.45000000000000284,
            "durationTicks": 288,
            "midi": 75,
            "name": "D#5",
            "ticks": 21888,
            "time": 34.199999999999996,
            "velocity": 0.2204724409448819
          },
          {
            "duration": 0.45000000000000284,
            "durationTicks": 288,
            "midi": 75,
            "name": "D#5",
            "ticks": 22272,
            "time": 34.8,
            "velocity": 0.2204724409448819
          },
          {
            "duration": 0.45000000000000284,
            "durationTicks": 288,
            "midi": 75,
            "name": "D#5",
            "ticks": 22656,
            "time": 35.4,
            "velocity": 0.2204724409448819
          },
          {
            "duration": 0.07500000000000284,
            "durationTicks": 48,
            "midi": 63,
            "name": "D#4",
            "ticks": 36096,
            "time": 56.4,
            "velocity": 0.2204724409448819
          },
          {
            "duration": 0.07500000000000284,
            "durationTicks": 48,
            "midi": 63,
            "name": "D#4",
            "ticks": 36192,
            "time": 56.55,
            "velocity": 0.2204724409448819
          },
          {
            "duration": 0.07500000000000284,
            "durationTicks": 48,
            "midi": 63,
            "name": "D#4",
            "ticks": 36288,
            "time": 56.699999999999996,
            "velocity": 0.2204724409448819
          },
          {
            "duration": 0.03750000000000142,
            "durationTicks": 24,
            "midi": 51,
            "name": "D#3",
            "ticks": 36480,
            "time": 57,
            "velocity": 0.2204724409448819
          },
          {
            "duration": 0.03750000000000142,
            "durationTicks": 24,
            "midi": 51,
            "name": "D#3",
            "ticks": 36528,
            "time": 57.074999999999996,
            "velocity": 0.2204724409448819
          },
          {
            "duration": 0.03750000000000142,
            "durationTicks": 24,
            "midi": 51,
            "name": "D#3",
            "ticks": 36576,
            "time": 57.15,
            "velocity": 0.2204724409448819
          },
          {
            "duration": 0.03750000000000142,
            "durationTicks": 24,
            "midi": 51,
            "name": "D#3",
            "ticks": 36672,
            "time": 57.3,
            "velocity": 0.2204724409448819
          },
          {
            "duration": 0.03750000000000142,
            "durationTicks": 24,
            "midi": 51,
            "name": "D#3",
            "ticks": 36720,
            "time": 57.375,
            "velocity": 0.2204724409448819
          },
          {
            "duration": 0.03750000000000142,
            "durationTicks": 24,
            "midi": 51,
            "name": "D#3",
            "ticks": 36768,
            "time": 57.449999999999996,
            "velocity": 0.2204724409448819
          }
        ],
        "endOfTrackTicks": 36792
      },
      {
        "channel": 3,
        "controlChanges": {},
        "pitchBends": [],
        "instrument": {
          "family": "synth lead",
          "number": 81,
          "name": "lead 2 (sawtooth)"
        },
        "name": "8-Bit Sawtooth",
        "notes": [
          {
            "duration": 0.07499999999999929,
            "durationTicks": 48,
            "midi": 39,
            "name": "D#2",
            "ticks": 12288,
            "time": 19.2,
            "velocity": 0.4330708661417323
          },
          {
            "duration": 0.07500000000000284,
            "durationTicks": 48,
            "midi": 39,
            "name": "D#2",
            "ticks": 12384,
            "time": 19.349999999999998,
            "velocity": 0.4330708661417323
          },
          {
            "duration": 0.07499999999999929,
            "durationTicks": 48,
            "midi": 51,
            "name": "D#3",
            "ticks": 12480,
            "time": 19.5,
            "velocity": 0.4330708661417323
          },
          {
            "duration": 0.07499999999999929,
            "durationTicks": 48,
            "midi": 39,
            "name": "D#2",
            "ticks": 12576,
            "time": 19.65,
            "velocity": 0.4330708661417323
          },
          {
            "duration": 0.07499999999999929,
            "durationTicks": 48,
            "midi": 39,
            "name": "D#2",
            "ticks": 12672,
            "time": 19.8,
            "velocity": 0.4330708661417323
          },
          {
            "duration": 0.07499999999999929,
            "durationTicks": 48,
            "midi": 49,
            "name": "C#3",
            "ticks": 12768,
            "time": 19.95,
            "velocity": 0.4330708661417323
          },
          {
            "duration": 0.07500000000000284,
            "durationTicks": 48,
            "midi": 39,
            "name": "D#2",
            "ticks": 12864,
            "time": 20.099999999999998,
            "velocity": 0.4330708661417323
          },
          {
            "duration": 0.07499999999999929,
            "durationTicks": 48,
            "midi": 39,
            "name": "D#2",
            "ticks": 12960,
            "time": 20.25,
            "velocity": 0.4330708661417323
          },
          {
            "duration": 0.07499999999999929,
            "durationTicks": 48,
            "midi": 47,
            "name": "B2",
            "ticks": 13056,
            "time": 20.4,
            "velocity": 0.4330708661417323
          },
          {
            "duration": 0.07499999999999929,
            "durationTicks": 48,
            "midi": 39,
            "name": "D#2",
            "ticks": 13152,
            "time": 20.55,
            "velocity": 0.4330708661417323
          },
          {
            "duration": 0.07499999999999929,
            "durationTicks": 48,
            "midi": 39,
            "name": "D#2",
            "ticks": 13248,
            "time": 20.7,
            "velocity": 0.4330708661417323
          },
          {
            "duration": 0.07500000000000284,
            "durationTicks": 48,
            "midi": 45,
            "name": "A2",
            "ticks": 13344,
            "time": 20.849999999999998,
            "velocity": 0.4330708661417323
          },
          {
            "duration": 0.07499999999999929,
            "durationTicks": 48,
            "midi": 39,
            "name": "D#2",
            "ticks": 13440,
            "time": 21,
            "velocity": 0.4330708661417323
          },
          {
            "duration": 0.07499999999999929,
            "durationTicks": 48,
            "midi": 39,
            "name": "D#2",
            "ticks": 13536,
            "time": 21.15,
            "velocity": 0.4330708661417323
          },
          {
            "duration": 0.07499999999999929,
            "durationTicks": 48,
            "midi": 46,
            "name": "A#2",
            "ticks": 13632,
            "time": 21.3,
            "velocity": 0.4330708661417323
          },
          {
            "duration": 0.07499999999999929,
            "durationTicks": 48,
            "midi": 47,
            "name": "B2",
            "ticks": 13728,
            "time": 21.45,
            "velocity": 0.4330708661417323
          },
          {
            "duration": 0.07500000000000284,
            "durationTicks": 48,
            "midi": 39,
            "name": "D#2",
            "ticks": 13824,
            "time": 21.599999999999998,
            "velocity": 0.4330708661417323
          },
          {
            "duration": 0.07499999999999929,
            "durationTicks": 48,
            "midi": 39,
            "name": "D#2",
            "ticks": 13920,
            "time": 21.75,
            "velocity": 0.4330708661417323
          },
          {
            "duration": 0.07499999999999929,
            "durationTicks": 48,
            "midi": 51,
            "name": "D#3",
            "ticks": 14016,
            "time": 21.9,
            "velocity": 0.4330708661417323
          },
          {
            "duration": 0.07499999999999929,
            "durationTicks": 48,
            "midi": 39,
            "name": "D#2",
            "ticks": 14112,
            "time": 22.05,
            "velocity": 0.4330708661417323
          },
          {
            "duration": 0.07499999999999929,
            "durationTicks": 48,
            "midi": 39,
            "name": "D#2",
            "ticks": 14208,
            "time": 22.2,
            "velocity": 0.4330708661417323
          },
          {
            "duration": 0.07500000000000284,
            "durationTicks": 48,
            "midi": 49,
            "name": "C#3",
            "ticks": 14304,
            "time": 22.349999999999998,
            "velocity": 0.4330708661417323
          },
          {
            "duration": 0.07499999999999929,
            "durationTicks": 48,
            "midi": 39,
            "name": "D#2",
            "ticks": 14400,
            "time": 22.5,
            "velocity": 0.4330708661417323
          },
          {
            "duration": 0.07499999999999929,
            "durationTicks": 48,
            "midi": 39,
            "name": "D#2",
            "ticks": 14496,
            "time": 22.65,
            "velocity": 0.4330708661417323
          },
          {
            "duration": 0.07499999999999929,
            "durationTicks": 48,
            "midi": 47,
            "name": "B2",
            "ticks": 14592,
            "time": 22.8,
            "velocity": 0.4330708661417323
          },
          {
            "duration": 0.07499999999999929,
            "durationTicks": 48,
            "midi": 39,
            "name": "D#2",
            "ticks": 14688,
            "time": 22.95,
            "velocity": 0.4330708661417323
          },
          {
            "duration": 0.8250000000000028,
            "durationTicks": 528,
            "midi": 39,
            "name": "D#2",
            "ticks": 14784,
            "time": 23.099999999999998,
            "velocity": 0.4330708661417323
          },
          {
            "duration": 0.6750000000000007,
            "durationTicks": 432,
            "midi": 45,
            "name": "A2",
            "ticks": 14880,
            "time": 23.25,
            "velocity": 0.4330708661417323
          },
          {
            "duration": 0.07499999999999929,
            "durationTicks": 48,
            "midi": 39,
            "name": "D#2",
            "ticks": 15360,
            "time": 24,
            "velocity": 0.4330708661417323
          },
          {
            "duration": 0.07499999999999929,
            "durationTicks": 48,
            "midi": 39,
            "name": "D#2",
            "ticks": 15456,
            "time": 24.15,
            "velocity": 0.4330708661417323
          },
          {
            "duration": 0.07499999999999929,
            "durationTicks": 48,
            "midi": 51,
            "name": "D#3",
            "ticks": 15552,
            "time": 24.3,
            "velocity": 0.4330708661417323
          },
          {
            "duration": 0.07499999999999929,
            "durationTicks": 48,
            "midi": 39,
            "name": "D#2",
            "ticks": 15648,
            "time": 24.45,
            "velocity": 0.4330708661417323
          },
          {
            "duration": 0.07500000000000284,
            "durationTicks": 48,
            "midi": 39,
            "name": "D#2",
            "ticks": 15744,
            "time": 24.599999999999998,
            "velocity": 0.4330708661417323
          },
          {
            "duration": 0.07499999999999929,
            "durationTicks": 48,
            "midi": 49,
            "name": "C#3",
            "ticks": 15840,
            "time": 24.75,
            "velocity": 0.4330708661417323
          },
          {
            "duration": 0.07499999999999929,
            "durationTicks": 48,
            "midi": 39,
            "name": "D#2",
            "ticks": 15936,
            "time": 24.9,
            "velocity": 0.4330708661417323
          },
          {
            "duration": 0.07499999999999929,
            "durationTicks": 48,
            "midi": 39,
            "name": "D#2",
            "ticks": 16032,
            "time": 25.05,
            "velocity": 0.4330708661417323
          },
          {
            "duration": 0.07499999999999929,
            "durationTicks": 48,
            "midi": 47,
            "name": "B2",
            "ticks": 16128,
            "time": 25.2,
            "velocity": 0.4330708661417323
          },
          {
            "duration": 0.07500000000000284,
            "durationTicks": 48,
            "midi": 39,
            "name": "D#2",
            "ticks": 16224,
            "time": 25.349999999999998,
            "velocity": 0.4330708661417323
          },
          {
            "duration": 0.07499999999999929,
            "durationTicks": 48,
            "midi": 39,
            "name": "D#2",
            "ticks": 16320,
            "time": 25.5,
            "velocity": 0.4330708661417323
          },
          {
            "duration": 0.07499999999999929,
            "durationTicks": 48,
            "midi": 45,
            "name": "A2",
            "ticks": 16416,
            "time": 25.65,
            "velocity": 0.4330708661417323
          },
          {
            "duration": 0.07499999999999929,
            "durationTicks": 48,
            "midi": 39,
            "name": "D#2",
            "ticks": 16512,
            "time": 25.8,
            "velocity": 0.4330708661417323
          },
          {
            "duration": 0.07499999999999929,
            "durationTicks": 48,
            "midi": 39,
            "name": "D#2",
            "ticks": 16608,
            "time": 25.95,
            "velocity": 0.4330708661417323
          },
          {
            "duration": 0.07500000000000284,
            "durationTicks": 48,
            "midi": 46,
            "name": "A#2",
            "ticks": 16704,
            "time": 26.099999999999998,
            "velocity": 0.4330708661417323
          },
          {
            "duration": 0.07499999999999929,
            "durationTicks": 48,
            "midi": 47,
            "name": "B2",
            "ticks": 16800,
            "time": 26.25,
            "velocity": 0.4330708661417323
          },
          {
            "duration": 0.07499999999999929,
            "durationTicks": 48,
            "midi": 39,
            "name": "D#2",
            "ticks": 16896,
            "time": 26.4,
            "velocity": 0.4330708661417323
          },
          {
            "duration": 0.07499999999999929,
            "durationTicks": 48,
            "midi": 39,
            "name": "D#2",
            "ticks": 16992,
            "time": 26.55,
            "velocity": 0.4330708661417323
          },
          {
            "duration": 0.07499999999999929,
            "durationTicks": 48,
            "midi": 51,
            "name": "D#3",
            "ticks": 17088,
            "time": 26.7,
            "velocity": 0.4330708661417323
          },
          {
            "duration": 0.07500000000000284,
            "durationTicks": 48,
            "midi": 39,
            "name": "D#2",
            "ticks": 17184,
            "time": 26.849999999999998,
            "velocity": 0.4330708661417323
          },
          {
            "duration": 0.07499999999999929,
            "durationTicks": 48,
            "midi": 39,
            "name": "D#2",
            "ticks": 17280,
            "time": 27,
            "velocity": 0.4330708661417323
          },
          {
            "duration": 0.07499999999999929,
            "durationTicks": 48,
            "midi": 49,
            "name": "C#3",
            "ticks": 17376,
            "time": 27.15,
            "velocity": 0.4330708661417323
          },
          {
            "duration": 0.07499999999999929,
            "durationTicks": 48,
            "midi": 39,
            "name": "D#2",
            "ticks": 17472,
            "time": 27.3,
            "velocity": 0.4330708661417323
          },
          {
            "duration": 0.07499999999999929,
            "durationTicks": 48,
            "midi": 39,
            "name": "D#2",
            "ticks": 17568,
            "time": 27.45,
            "velocity": 0.4330708661417323
          },
          {
            "duration": 0.22500000000000142,
            "durationTicks": 144,
            "midi": 47,
            "name": "B2",
            "ticks": 17664,
            "time": 27.599999999999998,
            "velocity": 0.4330708661417323
          },
          {
            "duration": 0.07499999999999929,
            "durationTicks": 48,
            "midi": 39,
            "name": "D#2",
            "ticks": 17760,
            "time": 27.75,
            "velocity": 0.4330708661417323
          },
          {
            "duration": 0.8249999999999993,
            "durationTicks": 528,
            "midi": 39,
            "name": "D#2",
            "ticks": 17856,
            "time": 27.9,
            "velocity": 0.4330708661417323
          },
          {
            "duration": 0.6749999999999972,
            "durationTicks": 432,
            "midi": 45,
            "name": "A2",
            "ticks": 17952,
            "time": 28.05,
            "velocity": 0.4330708661417323
          },
          {
            "duration": 0.07500000000000284,
            "durationTicks": 48,
            "midi": 39,
            "name": "D#2",
            "ticks": 18432,
            "time": 28.799999999999997,
            "velocity": 0.4330708661417323
          },
          {
            "duration": 0.07499999999999929,
            "durationTicks": 48,
            "midi": 39,
            "name": "D#2",
            "ticks": 18528,
            "time": 28.95,
            "velocity": 0.4330708661417323
          },
          {
            "duration": 0.07499999999999929,
            "durationTicks": 48,
            "midi": 51,
            "name": "D#3",
            "ticks": 18624,
            "time": 29.099999999999998,
            "velocity": 0.4330708661417323
          },
          {
            "duration": 0.07499999999999929,
            "durationTicks": 48,
            "midi": 39,
            "name": "D#2",
            "ticks": 18720,
            "time": 29.25,
            "velocity": 0.4330708661417323
          },
          {
            "duration": 0.07499999999999929,
            "durationTicks": 48,
            "midi": 39,
            "name": "D#2",
            "ticks": 18816,
            "time": 29.4,
            "velocity": 0.4330708661417323
          },
          {
            "duration": 0.07500000000000284,
            "durationTicks": 48,
            "midi": 49,
            "name": "C#3",
            "ticks": 18912,
            "time": 29.549999999999997,
            "velocity": 0.4330708661417323
          },
          {
            "duration": 0.07499999999999929,
            "durationTicks": 48,
            "midi": 39,
            "name": "D#2",
            "ticks": 19008,
            "time": 29.7,
            "velocity": 0.4330708661417323
          },
          {
            "duration": 0.07499999999999929,
            "durationTicks": 48,
            "midi": 39,
            "name": "D#2",
            "ticks": 19104,
            "time": 29.849999999999998,
            "velocity": 0.4330708661417323
          },
          {
            "duration": 0.07499999999999929,
            "durationTicks": 48,
            "midi": 47,
            "name": "B2",
            "ticks": 19200,
            "time": 30,
            "velocity": 0.4330708661417323
          },
          {
            "duration": 0.07499999999999929,
            "durationTicks": 48,
            "midi": 39,
            "name": "D#2",
            "ticks": 19296,
            "time": 30.15,
            "velocity": 0.4330708661417323
          },
          {
            "duration": 0.07500000000000284,
            "durationTicks": 48,
            "midi": 39,
            "name": "D#2",
            "ticks": 19392,
            "time": 30.299999999999997,
            "velocity": 0.4330708661417323
          },
          {
            "duration": 0.07499999999999929,
            "durationTicks": 48,
            "midi": 45,
            "name": "A2",
            "ticks": 19488,
            "time": 30.45,
            "velocity": 0.4330708661417323
          },
          {
            "duration": 0.07499999999999929,
            "durationTicks": 48,
            "midi": 39,
            "name": "D#2",
            "ticks": 19584,
            "time": 30.599999999999998,
            "velocity": 0.4330708661417323
          },
          {
            "duration": 0.07499999999999929,
            "durationTicks": 48,
            "midi": 39,
            "name": "D#2",
            "ticks": 19680,
            "time": 30.75,
            "velocity": 0.4330708661417323
          },
          {
            "duration": 0.07499999999999929,
            "durationTicks": 48,
            "midi": 46,
            "name": "A#2",
            "ticks": 19776,
            "time": 30.9,
            "velocity": 0.4330708661417323
          },
          {
            "duration": 0.07500000000000284,
            "durationTicks": 48,
            "midi": 47,
            "name": "B2",
            "ticks": 19872,
            "time": 31.049999999999997,
            "velocity": 0.4330708661417323
          },
          {
            "duration": 0.07499999999999929,
            "durationTicks": 48,
            "midi": 39,
            "name": "D#2",
            "ticks": 19968,
            "time": 31.2,
            "velocity": 0.4330708661417323
          },
          {
            "duration": 0.07499999999999929,
            "durationTicks": 48,
            "midi": 39,
            "name": "D#2",
            "ticks": 20064,
            "time": 31.349999999999998,
            "velocity": 0.4330708661417323
          },
          {
            "duration": 0.07499999999999929,
            "durationTicks": 48,
            "midi": 51,
            "name": "D#3",
            "ticks": 20160,
            "time": 31.5,
            "velocity": 0.4330708661417323
          },
          {
            "duration": 0.07499999999999929,
            "durationTicks": 48,
            "midi": 39,
            "name": "D#2",
            "ticks": 20256,
            "time": 31.65,
            "velocity": 0.4330708661417323
          },
          {
            "duration": 0.07500000000000284,
            "durationTicks": 48,
            "midi": 39,
            "name": "D#2",
            "ticks": 20352,
            "time": 31.799999999999997,
            "velocity": 0.4330708661417323
          },
          {
            "duration": 0.07499999999999929,
            "durationTicks": 48,
            "midi": 49,
            "name": "C#3",
            "ticks": 20448,
            "time": 31.95,
            "velocity": 0.4330708661417323
          },
          {
            "duration": 0.07499999999999574,
            "durationTicks": 48,
            "midi": 39,
            "name": "D#2",
            "ticks": 20544,
            "time": 32.1,
            "velocity": 0.4330708661417323
          },
          {
            "duration": 0.07499999999999574,
            "durationTicks": 48,
            "midi": 39,
            "name": "D#2",
            "ticks": 20640,
            "time": 32.25,
            "velocity": 0.4330708661417323
          },
          {
            "duration": 0.07500000000000284,
            "durationTicks": 48,
            "midi": 47,
            "name": "B2",
            "ticks": 20736,
            "time": 32.4,
            "velocity": 0.4330708661417323
          },
          {
            "duration": 0.07500000000000284,
            "durationTicks": 48,
            "midi": 39,
            "name": "D#2",
            "ticks": 20832,
            "time": 32.55,
            "velocity": 0.4330708661417323
          },
          {
            "duration": 0.8250000000000028,
            "durationTicks": 528,
            "midi": 39,
            "name": "D#2",
            "ticks": 20928,
            "time": 32.699999999999996,
            "velocity": 0.4330708661417323
          },
          {
            "duration": 0.6749999999999972,
            "durationTicks": 432,
            "midi": 45,
            "name": "A2",
            "ticks": 21024,
            "time": 32.85,
            "velocity": 0.4330708661417323
          },
          {
            "duration": 0.07499999999999574,
            "durationTicks": 48,
            "midi": 39,
            "name": "D#2",
            "ticks": 21504,
            "time": 33.6,
            "velocity": 0.4330708661417323
          },
          {
            "duration": 0.07499999999999574,
            "durationTicks": 48,
            "midi": 39,
            "name": "D#2",
            "ticks": 21600,
            "time": 33.75,
            "velocity": 0.4330708661417323
          },
          {
            "duration": 0.07500000000000284,
            "durationTicks": 48,
            "midi": 51,
            "name": "D#3",
            "ticks": 21696,
            "time": 33.9,
            "velocity": 0.4330708661417323
          },
          {
            "duration": 0.07500000000000284,
            "durationTicks": 48,
            "midi": 39,
            "name": "D#2",
            "ticks": 21792,
            "time": 34.05,
            "velocity": 0.4330708661417323
          },
          {
            "duration": 0.07500000000000284,
            "durationTicks": 48,
            "midi": 39,
            "name": "D#2",
            "ticks": 21888,
            "time": 34.199999999999996,
            "velocity": 0.4330708661417323
          },
          {
            "duration": 0.07499999999999574,
            "durationTicks": 48,
            "midi": 49,
            "name": "C#3",
            "ticks": 21984,
            "time": 34.35,
            "velocity": 0.4330708661417323
          },
          {
            "duration": 0.07499999999999574,
            "durationTicks": 48,
            "midi": 39,
            "name": "D#2",
            "ticks": 22080,
            "time": 34.5,
            "velocity": 0.4330708661417323
          },
          {
            "duration": 0.07500000000000284,
            "durationTicks": 48,
            "midi": 39,
            "name": "D#2",
            "ticks": 22176,
            "time": 34.65,
            "velocity": 0.4330708661417323
          },
          {
            "duration": 0.07500000000000284,
            "durationTicks": 48,
            "midi": 47,
            "name": "B2",
            "ticks": 22272,
            "time": 34.8,
            "velocity": 0.4330708661417323
          },
          {
            "duration": 0.07500000000000284,
            "durationTicks": 48,
            "midi": 39,
            "name": "D#2",
            "ticks": 22368,
            "time": 34.949999999999996,
            "velocity": 0.4330708661417323
          },
          {
            "duration": 0.07499999999999574,
            "durationTicks": 48,
            "midi": 39,
            "name": "D#2",
            "ticks": 22464,
            "time": 35.1,
            "velocity": 0.4330708661417323
          },
          {
            "duration": 0.07499999999999574,
            "durationTicks": 48,
            "midi": 45,
            "name": "A2",
            "ticks": 22560,
            "time": 35.25,
            "velocity": 0.4330708661417323
          },
          {
            "duration": 0.07500000000000284,
            "durationTicks": 48,
            "midi": 39,
            "name": "D#2",
            "ticks": 22656,
            "time": 35.4,
            "velocity": 0.4330708661417323
          },
          {
            "duration": 0.07500000000000284,
            "durationTicks": 48,
            "midi": 39,
            "name": "D#2",
            "ticks": 22752,
            "time": 35.55,
            "velocity": 0.4330708661417323
          },
          {
            "duration": 0.07500000000000284,
            "durationTicks": 48,
            "midi": 46,
            "name": "A#2",
            "ticks": 22848,
            "time": 35.699999999999996,
            "velocity": 0.4330708661417323
          },
          {
            "duration": 0.07499999999999574,
            "durationTicks": 48,
            "midi": 47,
            "name": "B2",
            "ticks": 22944,
            "time": 35.85,
            "velocity": 0.4330708661417323
          },
          {
            "duration": 0.07499999999999574,
            "durationTicks": 48,
            "midi": 39,
            "name": "D#2",
            "ticks": 23040,
            "time": 36,
            "velocity": 0.4330708661417323
          },
          {
            "duration": 0.07500000000000284,
            "durationTicks": 48,
            "midi": 39,
            "name": "D#2",
            "ticks": 23136,
            "time": 36.15,
            "velocity": 0.4330708661417323
          },
          {
            "duration": 0.07500000000000284,
            "durationTicks": 48,
            "midi": 51,
            "name": "D#3",
            "ticks": 23232,
            "time": 36.3,
            "velocity": 0.4330708661417323
          },
          {
            "duration": 0.07500000000000284,
            "durationTicks": 48,
            "midi": 39,
            "name": "D#2",
            "ticks": 23328,
            "time": 36.449999999999996,
            "velocity": 0.4330708661417323
          },
          {
            "duration": 0.07499999999999574,
            "durationTicks": 48,
            "midi": 39,
            "name": "D#2",
            "ticks": 23424,
            "time": 36.6,
            "velocity": 0.4330708661417323
          },
          {
            "duration": 0.07499999999999574,
            "durationTicks": 48,
            "midi": 49,
            "name": "C#3",
            "ticks": 23520,
            "time": 36.75,
            "velocity": 0.4330708661417323
          },
          {
            "duration": 0.07500000000000284,
            "durationTicks": 48,
            "midi": 39,
            "name": "D#2",
            "ticks": 23616,
            "time": 36.9,
            "velocity": 0.4330708661417323
          },
          {
            "duration": 0.07500000000000284,
            "durationTicks": 48,
            "midi": 39,
            "name": "D#2",
            "ticks": 23712,
            "time": 37.05,
            "velocity": 0.4330708661417323
          },
          {
            "duration": 0.22500000000000142,
            "durationTicks": 144,
            "midi": 47,
            "name": "B2",
            "ticks": 23808,
            "time": 37.199999999999996,
            "velocity": 0.4330708661417323
          },
          {
            "duration": 0.07499999999999574,
            "durationTicks": 48,
            "midi": 39,
            "name": "D#2",
            "ticks": 23904,
            "time": 37.35,
            "velocity": 0.4330708661417323
          },
          {
            "duration": 0.8249999999999957,
            "durationTicks": 528,
            "midi": 39,
            "name": "D#2",
            "ticks": 24000,
            "time": 37.5,
            "velocity": 0.4330708661417323
          },
          {
            "duration": 0.6749999999999972,
            "durationTicks": 432,
            "midi": 45,
            "name": "A2",
            "ticks": 24096,
            "time": 37.65,
            "velocity": 0.4330708661417323
          },
          {
            "duration": 0.07500000000000284,
            "durationTicks": 48,
            "midi": 39,
            "name": "D#2",
            "ticks": 24576,
            "time": 38.4,
            "velocity": 0.4330708661417323
          },
          {
            "duration": 0.07500000000000284,
            "durationTicks": 48,
            "midi": 39,
            "name": "D#2",
            "ticks": 24672,
            "time": 38.55,
            "velocity": 0.4330708661417323
          },
          {
            "duration": 0.07500000000000284,
            "durationTicks": 48,
            "midi": 51,
            "name": "D#3",
            "ticks": 24768,
            "time": 38.699999999999996,
            "velocity": 0.4330708661417323
          },
          {
            "duration": 0.07499999999999574,
            "durationTicks": 48,
            "midi": 39,
            "name": "D#2",
            "ticks": 24864,
            "time": 38.85,
            "velocity": 0.4330708661417323
          },
          {
            "duration": 0.07499999999999574,
            "durationTicks": 48,
            "midi": 39,
            "name": "D#2",
            "ticks": 24960,
            "time": 39,
            "velocity": 0.4330708661417323
          },
          {
            "duration": 0.07500000000000284,
            "durationTicks": 48,
            "midi": 49,
            "name": "C#3",
            "ticks": 25056,
            "time": 39.15,
            "velocity": 0.4330708661417323
          },
          {
            "duration": 0.07500000000000284,
            "durationTicks": 48,
            "midi": 39,
            "name": "D#2",
            "ticks": 25152,
            "time": 39.3,
            "velocity": 0.4330708661417323
          },
          {
            "duration": 0.07500000000000284,
            "durationTicks": 48,
            "midi": 39,
            "name": "D#2",
            "ticks": 25248,
            "time": 39.449999999999996,
            "velocity": 0.4330708661417323
          },
          {
            "duration": 0.07499999999999574,
            "durationTicks": 48,
            "midi": 47,
            "name": "B2",
            "ticks": 25344,
            "time": 39.6,
            "velocity": 0.4330708661417323
          },
          {
            "duration": 0.07499999999999574,
            "durationTicks": 48,
            "midi": 39,
            "name": "D#2",
            "ticks": 25440,
            "time": 39.75,
            "velocity": 0.4330708661417323
          },
          {
            "duration": 0.07500000000000284,
            "durationTicks": 48,
            "midi": 39,
            "name": "D#2",
            "ticks": 25536,
            "time": 39.9,
            "velocity": 0.4330708661417323
          },
          {
            "duration": 0.07500000000000284,
            "durationTicks": 48,
            "midi": 45,
            "name": "A2",
            "ticks": 25632,
            "time": 40.05,
            "velocity": 0.4330708661417323
          },
          {
            "duration": 0.07500000000000284,
            "durationTicks": 48,
            "midi": 39,
            "name": "D#2",
            "ticks": 25728,
            "time": 40.199999999999996,
            "velocity": 0.4330708661417323
          },
          {
            "duration": 0.07499999999999574,
            "durationTicks": 48,
            "midi": 39,
            "name": "D#2",
            "ticks": 25824,
            "time": 40.35,
            "velocity": 0.4330708661417323
          },
          {
            "duration": 0.07499999999999574,
            "durationTicks": 48,
            "midi": 46,
            "name": "A#2",
            "ticks": 25920,
            "time": 40.5,
            "velocity": 0.4330708661417323
          },
          {
            "duration": 0.07500000000000284,
            "durationTicks": 48,
            "midi": 47,
            "name": "B2",
            "ticks": 26016,
            "time": 40.65,
            "velocity": 0.4330708661417323
          },
          {
            "duration": 0.07500000000000284,
            "durationTicks": 48,
            "midi": 39,
            "name": "D#2",
            "ticks": 26112,
            "time": 40.8,
            "velocity": 0.4330708661417323
          },
          {
            "duration": 0.07500000000000284,
            "durationTicks": 48,
            "midi": 39,
            "name": "D#2",
            "ticks": 26208,
            "time": 40.949999999999996,
            "velocity": 0.4330708661417323
          },
          {
            "duration": 0.07499999999999574,
            "durationTicks": 48,
            "midi": 51,
            "name": "D#3",
            "ticks": 26304,
            "time": 41.1,
            "velocity": 0.4330708661417323
          },
          {
            "duration": 0.07499999999999574,
            "durationTicks": 48,
            "midi": 39,
            "name": "D#2",
            "ticks": 26400,
            "time": 41.25,
            "velocity": 0.4330708661417323
          },
          {
            "duration": 0.07500000000000284,
            "durationTicks": 48,
            "midi": 39,
            "name": "D#2",
            "ticks": 26496,
            "time": 41.4,
            "velocity": 0.4330708661417323
          },
          {
            "duration": 0.07500000000000284,
            "durationTicks": 48,
            "midi": 49,
            "name": "C#3",
            "ticks": 26592,
            "time": 41.55,
            "velocity": 0.4330708661417323
          },
          {
            "duration": 0.07500000000000284,
            "durationTicks": 48,
            "midi": 39,
            "name": "D#2",
            "ticks": 26688,
            "time": 41.699999999999996,
            "velocity": 0.4330708661417323
          },
          {
            "duration": 0.07499999999999574,
            "durationTicks": 48,
            "midi": 39,
            "name": "D#2",
            "ticks": 26784,
            "time": 41.85,
            "velocity": 0.4330708661417323
          },
          {
            "duration": 0.07499999999999574,
            "durationTicks": 48,
            "midi": 47,
            "name": "B2",
            "ticks": 26880,
            "time": 42,
            "velocity": 0.4330708661417323
          },
          {
            "duration": 0.07500000000000284,
            "durationTicks": 48,
            "midi": 39,
            "name": "D#2",
            "ticks": 26976,
            "time": 42.15,
            "velocity": 0.4330708661417323
          },
          {
            "duration": 0.8250000000000028,
            "durationTicks": 528,
            "midi": 39,
            "name": "D#2",
            "ticks": 27072,
            "time": 42.3,
            "velocity": 0.4330708661417323
          },
          {
            "duration": 0.6750000000000043,
            "durationTicks": 432,
            "midi": 45,
            "name": "A2",
            "ticks": 27168,
            "time": 42.449999999999996,
            "velocity": 0.4330708661417323
          },
          {
            "duration": 0.07500000000000284,
            "durationTicks": 48,
            "midi": 39,
            "name": "D#2",
            "ticks": 27648,
            "time": 43.199999999999996,
            "velocity": 0.4330708661417323
          },
          {
            "duration": 0.07499999999999574,
            "durationTicks": 48,
            "midi": 39,
            "name": "D#2",
            "ticks": 27744,
            "time": 43.35,
            "velocity": 0.4330708661417323
          },
          {
            "duration": 0.07499999999999574,
            "durationTicks": 48,
            "midi": 51,
            "name": "D#3",
            "ticks": 27840,
            "time": 43.5,
            "velocity": 0.4330708661417323
          },
          {
            "duration": 0.07500000000000284,
            "durationTicks": 48,
            "midi": 39,
            "name": "D#2",
            "ticks": 27936,
            "time": 43.65,
            "velocity": 0.4330708661417323
          },
          {
            "duration": 0.07500000000000284,
            "durationTicks": 48,
            "midi": 39,
            "name": "D#2",
            "ticks": 28032,
            "time": 43.8,
            "velocity": 0.4330708661417323
          },
          {
            "duration": 0.07500000000000284,
            "durationTicks": 48,
            "midi": 49,
            "name": "C#3",
            "ticks": 28128,
            "time": 43.949999999999996,
            "velocity": 0.4330708661417323
          },
          {
            "duration": 0.07499999999999574,
            "durationTicks": 48,
            "midi": 39,
            "name": "D#2",
            "ticks": 28224,
            "time": 44.1,
            "velocity": 0.4330708661417323
          },
          {
            "duration": 0.07499999999999574,
            "durationTicks": 48,
            "midi": 39,
            "name": "D#2",
            "ticks": 28320,
            "time": 44.25,
            "velocity": 0.4330708661417323
          },
          {
            "duration": 0.07500000000000284,
            "durationTicks": 48,
            "midi": 47,
            "name": "B2",
            "ticks": 28416,
            "time": 44.4,
            "velocity": 0.4330708661417323
          },
          {
            "duration": 0.07500000000000284,
            "durationTicks": 48,
            "midi": 39,
            "name": "D#2",
            "ticks": 28512,
            "time": 44.55,
            "velocity": 0.4330708661417323
          },
          {
            "duration": 0.07500000000000284,
            "durationTicks": 48,
            "midi": 39,
            "name": "D#2",
            "ticks": 28608,
            "time": 44.699999999999996,
            "velocity": 0.4330708661417323
          },
          {
            "duration": 0.07499999999999574,
            "durationTicks": 48,
            "midi": 45,
            "name": "A2",
            "ticks": 28704,
            "time": 44.85,
            "velocity": 0.4330708661417323
          },
          {
            "duration": 0.07499999999999574,
            "durationTicks": 48,
            "midi": 39,
            "name": "D#2",
            "ticks": 28800,
            "time": 45,
            "velocity": 0.4330708661417323
          },
          {
            "duration": 0.07500000000000284,
            "durationTicks": 48,
            "midi": 39,
            "name": "D#2",
            "ticks": 28896,
            "time": 45.15,
            "velocity": 0.4330708661417323
          },
          {
            "duration": 0.07500000000000284,
            "durationTicks": 48,
            "midi": 46,
            "name": "A#2",
            "ticks": 28992,
            "time": 45.3,
            "velocity": 0.4330708661417323
          },
          {
            "duration": 0.07500000000000284,
            "durationTicks": 48,
            "midi": 47,
            "name": "B2",
            "ticks": 29088,
            "time": 45.449999999999996,
            "velocity": 0.4330708661417323
          },
          {
            "duration": 0.07499999999999574,
            "durationTicks": 48,
            "midi": 39,
            "name": "D#2",
            "ticks": 29184,
            "time": 45.6,
            "velocity": 0.4330708661417323
          },
          {
            "duration": 0.07499999999999574,
            "durationTicks": 48,
            "midi": 39,
            "name": "D#2",
            "ticks": 29280,
            "time": 45.75,
            "velocity": 0.4330708661417323
          },
          {
            "duration": 0.07500000000000284,
            "durationTicks": 48,
            "midi": 51,
            "name": "D#3",
            "ticks": 29376,
            "time": 45.9,
            "velocity": 0.4330708661417323
          },
          {
            "duration": 0.07500000000000284,
            "durationTicks": 48,
            "midi": 39,
            "name": "D#2",
            "ticks": 29472,
            "time": 46.05,
            "velocity": 0.4330708661417323
          },
          {
            "duration": 0.07500000000000284,
            "durationTicks": 48,
            "midi": 39,
            "name": "D#2",
            "ticks": 29568,
            "time": 46.199999999999996,
            "velocity": 0.4330708661417323
          },
          {
            "duration": 0.07499999999999574,
            "durationTicks": 48,
            "midi": 49,
            "name": "C#3",
            "ticks": 29664,
            "time": 46.35,
            "velocity": 0.4330708661417323
          },
          {
            "duration": 0.07499999999999574,
            "durationTicks": 48,
            "midi": 39,
            "name": "D#2",
            "ticks": 29760,
            "time": 46.5,
            "velocity": 0.4330708661417323
          },
          {
            "duration": 0.07500000000000284,
            "durationTicks": 48,
            "midi": 39,
            "name": "D#2",
            "ticks": 29856,
            "time": 46.65,
            "velocity": 0.4330708661417323
          },
          {
            "duration": 0.22500000000000142,
            "durationTicks": 144,
            "midi": 47,
            "name": "B2",
            "ticks": 29952,
            "time": 46.8,
            "velocity": 0.4330708661417323
          },
          {
            "duration": 0.07500000000000284,
            "durationTicks": 48,
            "midi": 39,
            "name": "D#2",
            "ticks": 30048,
            "time": 46.949999999999996,
            "velocity": 0.4330708661417323
          },
          {
            "duration": 0.8249999999999957,
            "durationTicks": 528,
            "midi": 39,
            "name": "D#2",
            "ticks": 30144,
            "time": 47.1,
            "velocity": 0.4330708661417323
          },
          {
            "duration": 0.6749999999999972,
            "durationTicks": 432,
            "midi": 45,
            "name": "A2",
            "ticks": 30240,
            "time": 47.25,
            "velocity": 0.4330708661417323
          },
          {
            "duration": 0.07499999999999574,
            "durationTicks": 48,
            "midi": 39,
            "name": "D#2",
            "ticks": 30720,
            "time": 48,
            "velocity": 0.4330708661417323
          },
          {
            "duration": 0.07500000000000284,
            "durationTicks": 48,
            "midi": 39,
            "name": "D#2",
            "ticks": 30816,
            "time": 48.15,
            "velocity": 0.4330708661417323
          },
          {
            "duration": 0.07500000000000284,
            "durationTicks": 48,
            "midi": 51,
            "name": "D#3",
            "ticks": 30912,
            "time": 48.3,
            "velocity": 0.4330708661417323
          },
          {
            "duration": 0.07500000000000284,
            "durationTicks": 48,
            "midi": 39,
            "name": "D#2",
            "ticks": 31008,
            "time": 48.449999999999996,
            "velocity": 0.4330708661417323
          },
          {
            "duration": 0.07499999999999574,
            "durationTicks": 48,
            "midi": 39,
            "name": "D#2",
            "ticks": 31104,
            "time": 48.6,
            "velocity": 0.4330708661417323
          },
          {
            "duration": 0.07499999999999574,
            "durationTicks": 48,
            "midi": 49,
            "name": "C#3",
            "ticks": 31200,
            "time": 48.75,
            "velocity": 0.4330708661417323
          },
          {
            "duration": 0.07500000000000284,
            "durationTicks": 48,
            "midi": 39,
            "name": "D#2",
            "ticks": 31296,
            "time": 48.9,
            "velocity": 0.4330708661417323
          },
          {
            "duration": 0.07500000000000284,
            "durationTicks": 48,
            "midi": 39,
            "name": "D#2",
            "ticks": 31392,
            "time": 49.05,
            "velocity": 0.4330708661417323
          },
          {
            "duration": 0.07500000000000284,
            "durationTicks": 48,
            "midi": 47,
            "name": "B2",
            "ticks": 31488,
            "time": 49.199999999999996,
            "velocity": 0.4330708661417323
          },
          {
            "duration": 0.07499999999999574,
            "durationTicks": 48,
            "midi": 39,
            "name": "D#2",
            "ticks": 31584,
            "time": 49.35,
            "velocity": 0.4330708661417323
          },
          {
            "duration": 0.07499999999999574,
            "durationTicks": 48,
            "midi": 39,
            "name": "D#2",
            "ticks": 31680,
            "time": 49.5,
            "velocity": 0.4330708661417323
          },
          {
            "duration": 0.07500000000000284,
            "durationTicks": 48,
            "midi": 45,
            "name": "A2",
            "ticks": 31776,
            "time": 49.65,
            "velocity": 0.4330708661417323
          },
          {
            "duration": 0.07500000000000284,
            "durationTicks": 48,
            "midi": 39,
            "name": "D#2",
            "ticks": 31872,
            "time": 49.8,
            "velocity": 0.4330708661417323
          },
          {
            "duration": 0.07500000000000284,
            "durationTicks": 48,
            "midi": 39,
            "name": "D#2",
            "ticks": 31968,
            "time": 49.949999999999996,
            "velocity": 0.4330708661417323
          },
          {
            "duration": 0.07499999999999574,
            "durationTicks": 48,
            "midi": 46,
            "name": "A#2",
            "ticks": 32064,
            "time": 50.1,
            "velocity": 0.4330708661417323
          },
          {
            "duration": 0.07499999999999574,
            "durationTicks": 48,
            "midi": 47,
            "name": "B2",
            "ticks": 32160,
            "time": 50.25,
            "velocity": 0.4330708661417323
          },
          {
            "duration": 0.07500000000000284,
            "durationTicks": 48,
            "midi": 39,
            "name": "D#2",
            "ticks": 32256,
            "time": 50.4,
            "velocity": 0.4330708661417323
          },
          {
            "duration": 0.07500000000000284,
            "durationTicks": 48,
            "midi": 39,
            "name": "D#2",
            "ticks": 32352,
            "time": 50.55,
            "velocity": 0.4330708661417323
          },
          {
            "duration": 0.07500000000000284,
            "durationTicks": 48,
            "midi": 51,
            "name": "D#3",
            "ticks": 32448,
            "time": 50.699999999999996,
            "velocity": 0.4330708661417323
          },
          {
            "duration": 0.07499999999999574,
            "durationTicks": 48,
            "midi": 39,
            "name": "D#2",
            "ticks": 32544,
            "time": 50.85,
            "velocity": 0.4330708661417323
          },
          {
            "duration": 0.07499999999999574,
            "durationTicks": 48,
            "midi": 39,
            "name": "D#2",
            "ticks": 32640,
            "time": 51,
            "velocity": 0.4330708661417323
          },
          {
            "duration": 0.07500000000000284,
            "durationTicks": 48,
            "midi": 49,
            "name": "C#3",
            "ticks": 32736,
            "time": 51.15,
            "velocity": 0.4330708661417323
          },
          {
            "duration": 0.07500000000000284,
            "durationTicks": 48,
            "midi": 39,
            "name": "D#2",
            "ticks": 32832,
            "time": 51.3,
            "velocity": 0.4330708661417323
          },
          {
            "duration": 0.07500000000000284,
            "durationTicks": 48,
            "midi": 39,
            "name": "D#2",
            "ticks": 32928,
            "time": 51.449999999999996,
            "velocity": 0.4330708661417323
          },
          {
            "duration": 0.07499999999999574,
            "durationTicks": 48,
            "midi": 47,
            "name": "B2",
            "ticks": 33024,
            "time": 51.6,
            "velocity": 0.4330708661417323
          },
          {
            "duration": 0.07499999999999574,
            "durationTicks": 48,
            "midi": 39,
            "name": "D#2",
            "ticks": 33120,
            "time": 51.75,
            "velocity": 0.4330708661417323
          },
          {
            "duration": 0.8250000000000028,
            "durationTicks": 528,
            "midi": 39,
            "name": "D#2",
            "ticks": 33216,
            "time": 51.9,
            "velocity": 0.4330708661417323
          },
          {
            "duration": 0.6750000000000043,
            "durationTicks": 432,
            "midi": 45,
            "name": "A2",
            "ticks": 33312,
            "time": 52.05,
            "velocity": 0.4330708661417323
          },
          {
            "duration": 0.07500000000000284,
            "durationTicks": 48,
            "midi": 39,
            "name": "D#2",
            "ticks": 33792,
            "time": 52.8,
            "velocity": 0.4330708661417323
          },
          {
            "duration": 0.07500000000000284,
            "durationTicks": 48,
            "midi": 39,
            "name": "D#2",
            "ticks": 33888,
            "time": 52.949999999999996,
            "velocity": 0.4330708661417323
          },
          {
            "duration": 0.07499999999999574,
            "durationTicks": 48,
            "midi": 51,
            "name": "D#3",
            "ticks": 33984,
            "time": 53.1,
            "velocity": 0.4330708661417323
          },
          {
            "duration": 0.07499999999999574,
            "durationTicks": 48,
            "midi": 39,
            "name": "D#2",
            "ticks": 34080,
            "time": 53.25,
            "velocity": 0.4330708661417323
          },
          {
            "duration": 0.07500000000000284,
            "durationTicks": 48,
            "midi": 39,
            "name": "D#2",
            "ticks": 34176,
            "time": 53.4,
            "velocity": 0.4330708661417323
          },
          {
            "duration": 0.07500000000000284,
            "durationTicks": 48,
            "midi": 49,
            "name": "C#3",
            "ticks": 34272,
            "time": 53.55,
            "velocity": 0.4330708661417323
          },
          {
            "duration": 0.07500000000000284,
            "durationTicks": 48,
            "midi": 39,
            "name": "D#2",
            "ticks": 34368,
            "time": 53.699999999999996,
            "velocity": 0.4330708661417323
          },
          {
            "duration": 0.07499999999999574,
            "durationTicks": 48,
            "midi": 39,
            "name": "D#2",
            "ticks": 34464,
            "time": 53.85,
            "velocity": 0.4330708661417323
          },
          {
            "duration": 0.07499999999999574,
            "durationTicks": 48,
            "midi": 47,
            "name": "B2",
            "ticks": 34560,
            "time": 54,
            "velocity": 0.4330708661417323
          },
          {
            "duration": 0.07500000000000284,
            "durationTicks": 48,
            "midi": 39,
            "name": "D#2",
            "ticks": 34656,
            "time": 54.15,
            "velocity": 0.4330708661417323
          },
          {
            "duration": 0.07500000000000284,
            "durationTicks": 48,
            "midi": 39,
            "name": "D#2",
            "ticks": 34752,
            "time": 54.3,
            "velocity": 0.4330708661417323
          },
          {
            "duration": 0.07500000000000284,
            "durationTicks": 48,
            "midi": 45,
            "name": "A2",
            "ticks": 34848,
            "time": 54.449999999999996,
            "velocity": 0.4330708661417323
          },
          {
            "duration": 0.07499999999999574,
            "durationTicks": 48,
            "midi": 39,
            "name": "D#2",
            "ticks": 34944,
            "time": 54.6,
            "velocity": 0.4330708661417323
          },
          {
            "duration": 0.07499999999999574,
            "durationTicks": 48,
            "midi": 39,
            "name": "D#2",
            "ticks": 35040,
            "time": 54.75,
            "velocity": 0.4330708661417323
          },
          {
            "duration": 0.07500000000000284,
            "durationTicks": 48,
            "midi": 46,
            "name": "A#2",
            "ticks": 35136,
            "time": 54.9,
            "velocity": 0.4330708661417323
          },
          {
            "duration": 0.07500000000000284,
            "durationTicks": 48,
            "midi": 47,
            "name": "B2",
            "ticks": 35232,
            "time": 55.05,
            "velocity": 0.4330708661417323
          },
          {
            "duration": 0.07500000000000284,
            "durationTicks": 48,
            "midi": 39,
            "name": "D#2",
            "ticks": 35328,
            "time": 55.199999999999996,
            "velocity": 0.4330708661417323
          },
          {
            "duration": 0.07499999999999574,
            "durationTicks": 48,
            "midi": 39,
            "name": "D#2",
            "ticks": 35424,
            "time": 55.35,
            "velocity": 0.4330708661417323
          },
          {
            "duration": 0.07499999999999574,
            "durationTicks": 48,
            "midi": 51,
            "name": "D#3",
            "ticks": 35520,
            "time": 55.5,
            "velocity": 0.4330708661417323
          },
          {
            "duration": 0.07500000000000284,
            "durationTicks": 48,
            "midi": 39,
            "name": "D#2",
            "ticks": 35616,
            "time": 55.65,
            "velocity": 0.4330708661417323
          },
          {
            "duration": 0.07500000000000284,
            "durationTicks": 48,
            "midi": 39,
            "name": "D#2",
            "ticks": 35712,
            "time": 55.8,
            "velocity": 0.4330708661417323
          },
          {
            "duration": 0.07500000000000284,
            "durationTicks": 48,
            "midi": 49,
            "name": "C#3",
            "ticks": 35808,
            "time": 55.949999999999996,
            "velocity": 0.4330708661417323
          },
          {
            "duration": 0.07499999999999574,
            "durationTicks": 48,
            "midi": 39,
            "name": "D#2",
            "ticks": 35904,
            "time": 56.1,
            "velocity": 0.4330708661417323
          },
          {
            "duration": 0.07499999999999574,
            "durationTicks": 48,
            "midi": 39,
            "name": "D#2",
            "ticks": 36000,
            "time": 56.25,
            "velocity": 0.4330708661417323
          },
          {
            "duration": 0.22500000000000142,
            "durationTicks": 144,
            "midi": 47,
            "name": "B2",
            "ticks": 36096,
            "time": 56.4,
            "velocity": 0.4330708661417323
          },
          {
            "duration": 0.07500000000000284,
            "durationTicks": 48,
            "midi": 39,
            "name": "D#2",
            "ticks": 36192,
            "time": 56.55,
            "velocity": 0.4330708661417323
          },
          {
            "duration": 0.8250000000000028,
            "durationTicks": 528,
            "midi": 39,
            "name": "D#2",
            "ticks": 36288,
            "time": 56.699999999999996,
            "velocity": 0.4330708661417323
          },
          {
            "duration": 0.6749999999999972,
            "durationTicks": 432,
            "midi": 45,
            "name": "A2",
            "ticks": 36384,
            "time": 56.85,
            "velocity": 0.4330708661417323
          }
        ],
        "endOfTrackTicks": 36816
      },
      {
        "channel": 4,
        "controlChanges": {},
        "pitchBends": [],
        "instrument": {
          "family": "bass",
          "number": 36,
          "name": "slap bass 1"
        },
        "name": "Slap Bass",
        "notes": [
          {
            "duration": 0.6,
            "durationTicks": 384,
            "midi": 27,
            "name": "D#1",
            "ticks": 0,
            "time": 0,
            "velocity": 0.3937007874015748
          },
          {
            "duration": 0.6000000000000001,
            "durationTicks": 384,
            "midi": 27,
            "name": "D#1",
            "ticks": 1536,
            "time": 2.4,
            "velocity": 0.3937007874015748
          },
          {
            "duration": 0.5999999999999996,
            "durationTicks": 384,
            "midi": 27,
            "name": "D#1",
            "ticks": 3072,
            "time": 4.8,
            "velocity": 0.3937007874015748
          },
          {
            "duration": 0.6000000000000005,
            "durationTicks": 384,
            "midi": 27,
            "name": "D#1",
            "ticks": 4608,
            "time": 7.199999999999999,
            "velocity": 0.3937007874015748
          },
          {
            "duration": 0.5999999999999996,
            "durationTicks": 384,
            "midi": 27,
            "name": "D#1",
            "ticks": 6144,
            "time": 9.6,
            "velocity": 0.3937007874015748
          },
          {
            "duration": 0.5999999999999996,
            "durationTicks": 384,
            "midi": 27,
            "name": "D#1",
            "ticks": 7680,
            "time": 12,
            "velocity": 0.3937007874015748
          },
          {
            "duration": 0.6000000000000014,
            "durationTicks": 384,
            "midi": 27,
            "name": "D#1",
            "ticks": 9216,
            "time": 14.399999999999999,
            "velocity": 0.3937007874015748
          },
          {
            "duration": 0.5999999999999979,
            "durationTicks": 384,
            "midi": 27,
            "name": "D#1",
            "ticks": 10752,
            "time": 16.8,
            "velocity": 0.3937007874015748
          },
          {
            "duration": 0.6000000000000014,
            "durationTicks": 384,
            "midi": 27,
            "name": "D#1",
            "ticks": 12288,
            "time": 19.2,
            "velocity": 0.3937007874015748
          },
          {
            "duration": 0.6000000000000014,
            "durationTicks": 384,
            "midi": 27,
            "name": "D#1",
            "ticks": 13824,
            "time": 21.599999999999998,
            "velocity": 0.3937007874015748
          },
          {
            "duration": 0.5999999999999979,
            "durationTicks": 384,
            "midi": 27,
            "name": "D#1",
            "ticks": 15360,
            "time": 24,
            "velocity": 0.3937007874015748
          },
          {
            "duration": 0.6000000000000014,
            "durationTicks": 384,
            "midi": 27,
            "name": "D#1",
            "ticks": 16896,
            "time": 26.4,
            "velocity": 0.3937007874015748
          },
          {
            "duration": 0.6000000000000014,
            "durationTicks": 384,
            "midi": 27,
            "name": "D#1",
            "ticks": 18432,
            "time": 28.799999999999997,
            "velocity": 0.3937007874015748
          },
          {
            "duration": 0.5999999999999979,
            "durationTicks": 384,
            "midi": 27,
            "name": "D#1",
            "ticks": 19968,
            "time": 31.2,
            "velocity": 0.3937007874015748
          },
          {
            "duration": 0.5999999999999943,
            "durationTicks": 384,
            "midi": 27,
            "name": "D#1",
            "ticks": 21504,
            "time": 33.6,
            "velocity": 0.3937007874015748
          },
          {
            "duration": 0.6000000000000014,
            "durationTicks": 384,
            "midi": 27,
            "name": "D#1",
            "ticks": 23040,
            "time": 36,
            "velocity": 0.3937007874015748
          },
          {
            "duration": 0.6000000000000014,
            "durationTicks": 384,
            "midi": 27,
            "name": "D#1",
            "ticks": 24576,
            "time": 38.4,
            "velocity": 0.3937007874015748
          },
          {
            "duration": 0.6000000000000014,
            "durationTicks": 384,
            "midi": 27,
            "name": "D#1",
            "ticks": 26112,
            "time": 40.8,
            "velocity": 0.3937007874015748
          },
          {
            "duration": 0.6000000000000014,
            "durationTicks": 384,
            "midi": 27,
            "name": "D#1",
            "ticks": 27648,
            "time": 43.199999999999996,
            "velocity": 0.3937007874015748
          },
          {
            "duration": 0.5999999999999943,
            "durationTicks": 384,
            "midi": 27,
            "name": "D#1",
            "ticks": 29184,
            "time": 45.6,
            "velocity": 0.3937007874015748
          },
          {
            "duration": 0.6000000000000014,
            "durationTicks": 384,
            "midi": 27,
            "name": "D#1",
            "ticks": 30720,
            "time": 48,
            "velocity": 0.3937007874015748
          },
          {
            "duration": 0.6000000000000014,
            "durationTicks": 384,
            "midi": 27,
            "name": "D#1",
            "ticks": 32256,
            "time": 50.4,
            "velocity": 0.3937007874015748
          },
          {
            "duration": 0.6000000000000014,
            "durationTicks": 384,
            "midi": 27,
            "name": "D#1",
            "ticks": 33792,
            "time": 52.8,
            "velocity": 0.3937007874015748
          },
          {
            "duration": 0.6000000000000014,
            "durationTicks": 384,
            "midi": 27,
            "name": "D#1",
            "ticks": 35328,
            "time": 55.199999999999996,
            "velocity": 0.3937007874015748
          }
        ],
        "endOfTrackTicks": 35712
      },
      {
        "channel": 9,
        "controlChanges": {},
        "pitchBends": [],
        "instrument": {
          "family": "drums",
          "number": 0,
          "name": "standard kit"
        },
        "name": "Electric Drum Kit",
        "notes": [
          {
            "duration": 0.15,
            "durationTicks": 96,
            "midi": 35,
            "name": "B1",
            "ticks": 0,
            "time": 0,
            "velocity": 0.3937007874015748
          },
          {
            "duration": 0.15,
            "durationTicks": 96,
            "midi": 49,
            "name": "C#3",
            "ticks": 0,
            "time": 0,
            "velocity": 0.3937007874015748
          },
          {
            "duration": 0.15,
            "durationTicks": 96,
            "midi": 38,
            "name": "D2",
            "ticks": 0,
            "time": 0,
            "velocity": 0.3937007874015748
          },
          {
            "duration": 0.14999999999999997,
            "durationTicks": 96,
            "midi": 38,
            "name": "D2",
            "ticks": 192,
            "time": 0.3,
            "velocity": 0.3937007874015748
          },
          {
            "duration": 0.14999999999999997,
            "durationTicks": 96,
            "midi": 49,
            "name": "C#3",
            "ticks": 192,
            "time": 0.3,
            "velocity": 0.3937007874015748
          },
          {
            "duration": 0.14999999999999997,
            "durationTicks": 96,
            "midi": 40,
            "name": "E2",
            "ticks": 192,
            "time": 0.3,
            "velocity": 0.3937007874015748
          },
          {
            "duration": 0.15000000000000002,
            "durationTicks": 96,
            "midi": 35,
            "name": "B1",
            "ticks": 384,
            "time": 0.6,
            "velocity": 0.3937007874015748
          },
          {
            "duration": 0.15000000000000002,
            "durationTicks": 96,
            "midi": 38,
            "name": "D2",
            "ticks": 384,
            "time": 0.6,
            "velocity": 0.3937007874015748
          },
          {
            "duration": 0.15000000000000002,
            "durationTicks": 96,
            "midi": 49,
            "name": "C#3",
            "ticks": 384,
            "time": 0.6,
            "velocity": 0.3937007874015748
          },
          {
            "duration": 0.1499999999999999,
            "durationTicks": 96,
            "midi": 38,
            "name": "D2",
            "ticks": 480,
            "time": 0.75,
            "velocity": 0.3937007874015748
          },
          {
            "duration": 0.1499999999999999,
            "durationTicks": 96,
            "midi": 35,
            "name": "B1",
            "ticks": 480,
            "time": 0.75,
            "velocity": 0.3937007874015748
          },
          {
            "duration": 0.15000000000000013,
            "durationTicks": 96,
            "midi": 40,
            "name": "E2",
            "ticks": 576,
            "time": 0.8999999999999999,
            "velocity": 0.3937007874015748
          },
          {
            "duration": 0.15000000000000013,
            "durationTicks": 96,
            "midi": 49,
            "name": "C#3",
            "ticks": 576,
            "time": 0.8999999999999999,
            "velocity": 0.3937007874015748
          },
          {
            "duration": 0.15000000000000013,
            "durationTicks": 96,
            "midi": 38,
            "name": "D2",
            "ticks": 576,
            "time": 0.8999999999999999,
            "velocity": 0.3937007874015748
          },
          {
            "duration": 0.1499999999999999,
            "durationTicks": 96,
            "midi": 38,
            "name": "D2",
            "ticks": 768,
            "time": 1.2,
            "velocity": 0.3937007874015748
          },
          {
            "duration": 0.1499999999999999,
            "durationTicks": 96,
            "midi": 49,
            "name": "C#3",
            "ticks": 768,
            "time": 1.2,
            "velocity": 0.3937007874015748
          },
          {
            "duration": 0.1499999999999999,
            "durationTicks": 96,
            "midi": 35,
            "name": "B1",
            "ticks": 768,
            "time": 1.2,
            "velocity": 0.3937007874015748
          },
          {
            "duration": 0.1499999999999999,
            "durationTicks": 96,
            "midi": 40,
            "name": "E2",
            "ticks": 960,
            "time": 1.5,
            "velocity": 0.3937007874015748
          },
          {
            "duration": 0.1499999999999999,
            "durationTicks": 96,
            "midi": 38,
            "name": "D2",
            "ticks": 960,
            "time": 1.5,
            "velocity": 0.3937007874015748
          },
          {
            "duration": 0.1499999999999999,
            "durationTicks": 96,
            "midi": 49,
            "name": "C#3",
            "ticks": 960,
            "time": 1.5,
            "velocity": 0.3937007874015748
          },
          {
            "duration": 0.15000000000000013,
            "durationTicks": 96,
            "midi": 38,
            "name": "D2",
            "ticks": 1152,
            "time": 1.7999999999999998,
            "velocity": 0.3937007874015748
          },
          {
            "duration": 0.15000000000000013,
            "durationTicks": 96,
            "midi": 49,
            "name": "C#3",
            "ticks": 1152,
            "time": 1.7999999999999998,
            "velocity": 0.3937007874015748
          },
          {
            "duration": 0.15000000000000013,
            "durationTicks": 96,
            "midi": 35,
            "name": "B1",
            "ticks": 1152,
            "time": 1.7999999999999998,
            "velocity": 0.3937007874015748
          },
          {
            "duration": 0.15000000000000013,
            "durationTicks": 96,
            "midi": 35,
            "name": "B1",
            "ticks": 1248,
            "time": 1.95,
            "velocity": 0.3937007874015748
          },
          {
            "duration": 0.15000000000000013,
            "durationTicks": 96,
            "midi": 38,
            "name": "D2",
            "ticks": 1248,
            "time": 1.95,
            "velocity": 0.3937007874015748
          },
          {
            "duration": 0.1499999999999999,
            "durationTicks": 96,
            "midi": 38,
            "name": "D2",
            "ticks": 1344,
            "time": 2.1,
            "velocity": 0.3937007874015748
          },
          {
            "duration": 0.1499999999999999,
            "durationTicks": 96,
            "midi": 40,
            "name": "E2",
            "ticks": 1344,
            "time": 2.1,
            "velocity": 0.3937007874015748
          },
          {
            "duration": 0.1499999999999999,
            "durationTicks": 96,
            "midi": 49,
            "name": "C#3",
            "ticks": 1344,
            "time": 2.1,
            "velocity": 0.3937007874015748
          },
          {
            "duration": 0.1499999999999999,
            "durationTicks": 96,
            "midi": 49,
            "name": "C#3",
            "ticks": 1536,
            "time": 2.4,
            "velocity": 0.3937007874015748
          },
          {
            "duration": 0.1499999999999999,
            "durationTicks": 96,
            "midi": 35,
            "name": "B1",
            "ticks": 1536,
            "time": 2.4,
            "velocity": 0.3937007874015748
          },
          {
            "duration": 0.1499999999999999,
            "durationTicks": 96,
            "midi": 38,
            "name": "D2",
            "ticks": 1536,
            "time": 2.4,
            "velocity": 0.3937007874015748
          },
          {
            "duration": 0.15000000000000036,
            "durationTicks": 96,
            "midi": 38,
            "name": "D2",
            "ticks": 1728,
            "time": 2.6999999999999997,
            "velocity": 0.3937007874015748
          },
          {
            "duration": 0.15000000000000036,
            "durationTicks": 96,
            "midi": 40,
            "name": "E2",
            "ticks": 1728,
            "time": 2.6999999999999997,
            "velocity": 0.3937007874015748
          },
          {
            "duration": 0.15000000000000036,
            "durationTicks": 96,
            "midi": 49,
            "name": "C#3",
            "ticks": 1728,
            "time": 2.6999999999999997,
            "velocity": 0.3937007874015748
          },
          {
            "duration": 0.1499999999999999,
            "durationTicks": 96,
            "midi": 49,
            "name": "C#3",
            "ticks": 1920,
            "time": 3,
            "velocity": 0.3937007874015748
          },
          {
            "duration": 0.1499999999999999,
            "durationTicks": 96,
            "midi": 35,
            "name": "B1",
            "ticks": 1920,
            "time": 3,
            "velocity": 0.3937007874015748
          },
          {
            "duration": 0.1499999999999999,
            "durationTicks": 96,
            "midi": 38,
            "name": "D2",
            "ticks": 1920,
            "time": 3,
            "velocity": 0.3937007874015748
          },
          {
            "duration": 0.1499999999999999,
            "durationTicks": 96,
            "midi": 38,
            "name": "D2",
            "ticks": 2016,
            "time": 3.15,
            "velocity": 0.3937007874015748
          },
          {
            "duration": 0.1499999999999999,
            "durationTicks": 96,
            "midi": 35,
            "name": "B1",
            "ticks": 2016,
            "time": 3.15,
            "velocity": 0.3937007874015748
          },
          {
            "duration": 0.1499999999999999,
            "durationTicks": 96,
            "midi": 40,
            "name": "E2",
            "ticks": 2112,
            "time": 3.3,
            "velocity": 0.3937007874015748
          },
          {
            "duration": 0.1499999999999999,
            "durationTicks": 96,
            "midi": 38,
            "name": "D2",
            "ticks": 2112,
            "time": 3.3,
            "velocity": 0.3937007874015748
          },
          {
            "duration": 0.1499999999999999,
            "durationTicks": 96,
            "midi": 49,
            "name": "C#3",
            "ticks": 2112,
            "time": 3.3,
            "velocity": 0.3937007874015748
          },
          {
            "duration": 0.15000000000000036,
            "durationTicks": 96,
            "midi": 49,
            "name": "C#3",
            "ticks": 2304,
            "time": 3.5999999999999996,
            "velocity": 0.3937007874015748
          },
          {
            "duration": 0.15000000000000036,
            "durationTicks": 96,
            "midi": 38,
            "name": "D2",
            "ticks": 2304,
            "time": 3.5999999999999996,
            "velocity": 0.3937007874015748
          },
          {
            "duration": 0.15000000000000036,
            "durationTicks": 96,
            "midi": 35,
            "name": "B1",
            "ticks": 2304,
            "time": 3.5999999999999996,
            "velocity": 0.3937007874015748
          },
          {
            "duration": 0.1499999999999999,
            "durationTicks": 96,
            "midi": 40,
            "name": "E2",
            "ticks": 2496,
            "time": 3.9,
            "velocity": 0.3937007874015748
          },
          {
            "duration": 0.1499999999999999,
            "durationTicks": 96,
            "midi": 49,
            "name": "C#3",
            "ticks": 2496,
            "time": 3.9,
            "velocity": 0.3937007874015748
          },
          {
            "duration": 0.1499999999999999,
            "durationTicks": 96,
            "midi": 38,
            "name": "D2",
            "ticks": 2496,
            "time": 3.9,
            "velocity": 0.3937007874015748
          },
          {
            "duration": 0.14999999999999947,
            "durationTicks": 96,
            "midi": 49,
            "name": "C#3",
            "ticks": 2688,
            "time": 4.2,
            "velocity": 0.3937007874015748
          },
          {
            "duration": 0.14999999999999947,
            "durationTicks": 96,
            "midi": 38,
            "name": "D2",
            "ticks": 2688,
            "time": 4.2,
            "velocity": 0.3937007874015748
          },
          {
            "duration": 0.14999999999999947,
            "durationTicks": 96,
            "midi": 35,
            "name": "B1",
            "ticks": 2688,
            "time": 4.2,
            "velocity": 0.3937007874015748
          },
          {
            "duration": 0.15000000000000036,
            "durationTicks": 96,
            "midi": 35,
            "name": "B1",
            "ticks": 2784,
            "time": 4.35,
            "velocity": 0.3937007874015748
          },
          {
            "duration": 0.15000000000000036,
            "durationTicks": 96,
            "midi": 38,
            "name": "D2",
            "ticks": 2784,
            "time": 4.35,
            "velocity": 0.3937007874015748
          },
          {
            "duration": 0.14999999999999947,
            "durationTicks": 96,
            "midi": 49,
            "name": "C#3",
            "ticks": 2880,
            "time": 4.5,
            "velocity": 0.3937007874015748
          },
          {
            "duration": 0.14999999999999947,
            "durationTicks": 96,
            "midi": 38,
            "name": "D2",
            "ticks": 2880,
            "time": 4.5,
            "velocity": 0.3937007874015748
          },
          {
            "duration": 0.14999999999999947,
            "durationTicks": 96,
            "midi": 40,
            "name": "E2",
            "ticks": 2880,
            "time": 4.5,
            "velocity": 0.3937007874015748
          },
          {
            "duration": 0.15000000000000036,
            "durationTicks": 96,
            "midi": 38,
            "name": "D2",
            "ticks": 3072,
            "time": 4.8,
            "velocity": 0.3937007874015748
          },
          {
            "duration": 0.15000000000000036,
            "durationTicks": 96,
            "midi": 35,
            "name": "B1",
            "ticks": 3072,
            "time": 4.8,
            "velocity": 0.3937007874015748
          },
          {
            "duration": 0.15000000000000036,
            "durationTicks": 96,
            "midi": 49,
            "name": "C#3",
            "ticks": 3072,
            "time": 4.8,
            "velocity": 0.3937007874015748
          },
          {
            "duration": 0.15000000000000036,
            "durationTicks": 96,
            "midi": 40,
            "name": "E2",
            "ticks": 3264,
            "time": 5.1,
            "velocity": 0.3937007874015748
          },
          {
            "duration": 0.15000000000000036,
            "durationTicks": 96,
            "midi": 49,
            "name": "C#3",
            "ticks": 3264,
            "time": 5.1,
            "velocity": 0.3937007874015748
          },
          {
            "duration": 0.15000000000000036,
            "durationTicks": 96,
            "midi": 38,
            "name": "D2",
            "ticks": 3264,
            "time": 5.1,
            "velocity": 0.3937007874015748
          },
          {
            "duration": 0.15000000000000036,
            "durationTicks": 96,
            "midi": 49,
            "name": "C#3",
            "ticks": 3456,
            "time": 5.3999999999999995,
            "velocity": 0.3937007874015748
          },
          {
            "duration": 0.15000000000000036,
            "durationTicks": 96,
            "midi": 38,
            "name": "D2",
            "ticks": 3456,
            "time": 5.3999999999999995,
            "velocity": 0.3937007874015748
          },
          {
            "duration": 0.15000000000000036,
            "durationTicks": 96,
            "midi": 35,
            "name": "B1",
            "ticks": 3456,
            "time": 5.3999999999999995,
            "velocity": 0.3937007874015748
          },
          {
            "duration": 0.15000000000000036,
            "durationTicks": 96,
            "midi": 38,
            "name": "D2",
            "ticks": 3552,
            "time": 5.55,
            "velocity": 0.3937007874015748
          },
          {
            "duration": 0.15000000000000036,
            "durationTicks": 96,
            "midi": 35,
            "name": "B1",
            "ticks": 3552,
            "time": 5.55,
            "velocity": 0.3937007874015748
          },
          {
            "duration": 0.14999999999999947,
            "durationTicks": 96,
            "midi": 40,
            "name": "E2",
            "ticks": 3648,
            "time": 5.7,
            "velocity": 0.3937007874015748
          },
          {
            "duration": 0.14999999999999947,
            "durationTicks": 96,
            "midi": 38,
            "name": "D2",
            "ticks": 3648,
            "time": 5.7,
            "velocity": 0.3937007874015748
          },
          {
            "duration": 0.14999999999999947,
            "durationTicks": 96,
            "midi": 49,
            "name": "C#3",
            "ticks": 3648,
            "time": 5.7,
            "velocity": 0.3937007874015748
          },
          {
            "duration": 0.14999999999999947,
            "durationTicks": 96,
            "midi": 35,
            "name": "B1",
            "ticks": 3840,
            "time": 6,
            "velocity": 0.3937007874015748
          },
          {
            "duration": 0.14999999999999947,
            "durationTicks": 96,
            "midi": 38,
            "name": "D2",
            "ticks": 3840,
            "time": 6,
            "velocity": 0.3937007874015748
          },
          {
            "duration": 0.14999999999999947,
            "durationTicks": 96,
            "midi": 49,
            "name": "C#3",
            "ticks": 3840,
            "time": 6,
            "velocity": 0.3937007874015748
          },
          {
            "duration": 0.15000000000000036,
            "durationTicks": 96,
            "midi": 38,
            "name": "D2",
            "ticks": 4032,
            "time": 6.3,
            "velocity": 0.3937007874015748
          },
          {
            "duration": 0.15000000000000036,
            "durationTicks": 96,
            "midi": 49,
            "name": "C#3",
            "ticks": 4032,
            "time": 6.3,
            "velocity": 0.3937007874015748
          },
          {
            "duration": 0.15000000000000036,
            "durationTicks": 96,
            "midi": 40,
            "name": "E2",
            "ticks": 4032,
            "time": 6.3,
            "velocity": 0.3937007874015748
          },
          {
            "duration": 0.15000000000000036,
            "durationTicks": 96,
            "midi": 38,
            "name": "D2",
            "ticks": 4224,
            "time": 6.6,
            "velocity": 0.3937007874015748
          },
          {
            "duration": 0.15000000000000036,
            "durationTicks": 96,
            "midi": 49,
            "name": "C#3",
            "ticks": 4224,
            "time": 6.6,
            "velocity": 0.3937007874015748
          },
          {
            "duration": 0.15000000000000036,
            "durationTicks": 96,
            "midi": 35,
            "name": "B1",
            "ticks": 4224,
            "time": 6.6,
            "velocity": 0.3937007874015748
          },
          {
            "duration": 0.14999999999999947,
            "durationTicks": 96,
            "midi": 38,
            "name": "D2",
            "ticks": 4320,
            "time": 6.75,
            "velocity": 0.3937007874015748
          },
          {
            "duration": 0.14999999999999947,
            "durationTicks": 96,
            "midi": 35,
            "name": "B1",
            "ticks": 4320,
            "time": 6.75,
            "velocity": 0.3937007874015748
          },
          {
            "duration": 0.15000000000000036,
            "durationTicks": 96,
            "midi": 49,
            "name": "C#3",
            "ticks": 4416,
            "time": 6.8999999999999995,
            "velocity": 0.3937007874015748
          },
          {
            "duration": 0.15000000000000036,
            "durationTicks": 96,
            "midi": 38,
            "name": "D2",
            "ticks": 4416,
            "time": 6.8999999999999995,
            "velocity": 0.3937007874015748
          },
          {
            "duration": 0.15000000000000036,
            "durationTicks": 96,
            "midi": 40,
            "name": "E2",
            "ticks": 4416,
            "time": 6.8999999999999995,
            "velocity": 0.3937007874015748
          },
          {
            "duration": 0.15000000000000036,
            "durationTicks": 96,
            "midi": 49,
            "name": "C#3",
            "ticks": 4608,
            "time": 7.199999999999999,
            "velocity": 0.3937007874015748
          },
          {
            "duration": 0.15000000000000036,
            "durationTicks": 96,
            "midi": 38,
            "name": "D2",
            "ticks": 4608,
            "time": 7.199999999999999,
            "velocity": 0.3937007874015748
          },
          {
            "duration": 0.15000000000000036,
            "durationTicks": 96,
            "midi": 35,
            "name": "B1",
            "ticks": 4608,
            "time": 7.199999999999999,
            "velocity": 0.3937007874015748
          },
          {
            "duration": 0.14999999999999947,
            "durationTicks": 96,
            "midi": 49,
            "name": "C#3",
            "ticks": 4800,
            "time": 7.5,
            "velocity": 0.3937007874015748
          },
          {
            "duration": 0.14999999999999947,
            "durationTicks": 96,
            "midi": 38,
            "name": "D2",
            "ticks": 4800,
            "time": 7.5,
            "velocity": 0.3937007874015748
          },
          {
            "duration": 0.14999999999999947,
            "durationTicks": 96,
            "midi": 40,
            "name": "E2",
            "ticks": 4800,
            "time": 7.5,
            "velocity": 0.3937007874015748
          },
          {
            "duration": 0.14999999999999947,
            "durationTicks": 96,
            "midi": 49,
            "name": "C#3",
            "ticks": 4992,
            "time": 7.8,
            "velocity": 0.3937007874015748
          },
          {
            "duration": 0.14999999999999947,
            "durationTicks": 96,
            "midi": 38,
            "name": "D2",
            "ticks": 4992,
            "time": 7.8,
            "velocity": 0.3937007874015748
          },
          {
            "duration": 0.14999999999999947,
            "durationTicks": 96,
            "midi": 35,
            "name": "B1",
            "ticks": 4992,
            "time": 7.8,
            "velocity": 0.3937007874015748
          },
          {
            "duration": 0.15000000000000036,
            "durationTicks": 96,
            "midi": 35,
            "name": "B1",
            "ticks": 5088,
            "time": 7.949999999999999,
            "velocity": 0.3937007874015748
          },
          {
            "duration": 0.15000000000000036,
            "durationTicks": 96,
            "midi": 38,
            "name": "D2",
            "ticks": 5088,
            "time": 7.949999999999999,
            "velocity": 0.3937007874015748
          },
          {
            "duration": 0.15000000000000036,
            "durationTicks": 96,
            "midi": 38,
            "name": "D2",
            "ticks": 5184,
            "time": 8.1,
            "velocity": 0.3937007874015748
          },
          {
            "duration": 0.15000000000000036,
            "durationTicks": 96,
            "midi": 40,
            "name": "E2",
            "ticks": 5184,
            "time": 8.1,
            "velocity": 0.3937007874015748
          },
          {
            "duration": 0.15000000000000036,
            "durationTicks": 96,
            "midi": 49,
            "name": "C#3",
            "ticks": 5184,
            "time": 8.1,
            "velocity": 0.3937007874015748
          },
          {
            "duration": 0.14999999999999858,
            "durationTicks": 96,
            "midi": 49,
            "name": "C#3",
            "ticks": 5376,
            "time": 8.4,
            "velocity": 0.3937007874015748
          },
          {
            "duration": 0.14999999999999858,
            "durationTicks": 96,
            "midi": 38,
            "name": "D2",
            "ticks": 5376,
            "time": 8.4,
            "velocity": 0.3937007874015748
          },
          {
            "duration": 0.14999999999999858,
            "durationTicks": 96,
            "midi": 35,
            "name": "B1",
            "ticks": 5376,
            "time": 8.4,
            "velocity": 0.3937007874015748
          },
          {
            "duration": 0.15000000000000036,
            "durationTicks": 96,
            "midi": 40,
            "name": "E2",
            "ticks": 5568,
            "time": 8.7,
            "velocity": 0.3937007874015748
          },
          {
            "duration": 0.15000000000000036,
            "durationTicks": 96,
            "midi": 38,
            "name": "D2",
            "ticks": 5568,
            "time": 8.7,
            "velocity": 0.3937007874015748
          },
          {
            "duration": 0.15000000000000036,
            "durationTicks": 96,
            "midi": 49,
            "name": "C#3",
            "ticks": 5568,
            "time": 8.7,
            "velocity": 0.3937007874015748
          },
          {
            "duration": 0.15000000000000036,
            "durationTicks": 96,
            "midi": 49,
            "name": "C#3",
            "ticks": 5760,
            "time": 9,
            "velocity": 0.3937007874015748
          },
          {
            "duration": 0.15000000000000036,
            "durationTicks": 96,
            "midi": 38,
            "name": "D2",
            "ticks": 5760,
            "time": 9,
            "velocity": 0.3937007874015748
          },
          {
            "duration": 0.15000000000000036,
            "durationTicks": 96,
            "midi": 35,
            "name": "B1",
            "ticks": 5760,
            "time": 9,
            "velocity": 0.3937007874015748
          },
          {
            "duration": 0.14999999999999858,
            "durationTicks": 96,
            "midi": 38,
            "name": "D2",
            "ticks": 5856,
            "time": 9.15,
            "velocity": 0.3937007874015748
          },
          {
            "duration": 0.14999999999999858,
            "durationTicks": 96,
            "midi": 35,
            "name": "B1",
            "ticks": 5856,
            "time": 9.15,
            "velocity": 0.3937007874015748
          },
          {
            "duration": 0.15000000000000036,
            "durationTicks": 96,
            "midi": 49,
            "name": "C#3",
            "ticks": 5952,
            "time": 9.299999999999999,
            "velocity": 0.3937007874015748
          },
          {
            "duration": 0.15000000000000036,
            "durationTicks": 96,
            "midi": 38,
            "name": "D2",
            "ticks": 5952,
            "time": 9.299999999999999,
            "velocity": 0.3937007874015748
          },
          {
            "duration": 0.15000000000000036,
            "durationTicks": 96,
            "midi": 40,
            "name": "E2",
            "ticks": 5952,
            "time": 9.299999999999999,
            "velocity": 0.3937007874015748
          },
          {
            "duration": 0.15000000000000036,
            "durationTicks": 96,
            "midi": 38,
            "name": "D2",
            "ticks": 6144,
            "time": 9.6,
            "velocity": 0.3937007874015748
          },
          {
            "duration": 0.15000000000000036,
            "durationTicks": 96,
            "midi": 49,
            "name": "C#3",
            "ticks": 6144,
            "time": 9.6,
            "velocity": 0.3937007874015748
          },
          {
            "duration": 0.15000000000000036,
            "durationTicks": 96,
            "midi": 35,
            "name": "B1",
            "ticks": 6144,
            "time": 9.6,
            "velocity": 0.3937007874015748
          },
          {
            "duration": 0.14999999999999858,
            "durationTicks": 96,
            "midi": 53,
            "name": "F3",
            "ticks": 6336,
            "time": 9.9,
            "velocity": 0.3937007874015748
          },
          {
            "duration": 0.14999999999999858,
            "durationTicks": 96,
            "midi": 38,
            "name": "D2",
            "ticks": 6336,
            "time": 9.9,
            "velocity": 0.3937007874015748
          },
          {
            "duration": 0.14999999999999858,
            "durationTicks": 96,
            "midi": 40,
            "name": "E2",
            "ticks": 6336,
            "time": 9.9,
            "velocity": 0.3937007874015748
          },
          {
            "duration": 0.15000000000000036,
            "durationTicks": 96,
            "midi": 53,
            "name": "F3",
            "ticks": 6528,
            "time": 10.2,
            "velocity": 0.3937007874015748
          },
          {
            "duration": 0.15000000000000036,
            "durationTicks": 96,
            "midi": 38,
            "name": "D2",
            "ticks": 6528,
            "time": 10.2,
            "velocity": 0.3937007874015748
          },
          {
            "duration": 0.15000000000000036,
            "durationTicks": 96,
            "midi": 35,
            "name": "B1",
            "ticks": 6528,
            "time": 10.2,
            "velocity": 0.3937007874015748
          },
          {
            "duration": 0.15000000000000036,
            "durationTicks": 96,
            "midi": 35,
            "name": "B1",
            "ticks": 6624,
            "time": 10.35,
            "velocity": 0.3937007874015748
          },
          {
            "duration": 0.15000000000000036,
            "durationTicks": 96,
            "midi": 38,
            "name": "D2",
            "ticks": 6624,
            "time": 10.35,
            "velocity": 0.3937007874015748
          },
          {
            "duration": 0.15000000000000036,
            "durationTicks": 96,
            "midi": 40,
            "name": "E2",
            "ticks": 6720,
            "time": 10.5,
            "velocity": 0.3937007874015748
          },
          {
            "duration": 0.15000000000000036,
            "durationTicks": 96,
            "midi": 53,
            "name": "F3",
            "ticks": 6720,
            "time": 10.5,
            "velocity": 0.3937007874015748
          },
          {
            "duration": 0.15000000000000036,
            "durationTicks": 96,
            "midi": 38,
            "name": "D2",
            "ticks": 6720,
            "time": 10.5,
            "velocity": 0.3937007874015748
          },
          {
            "duration": 0.15000000000000036,
            "durationTicks": 96,
            "midi": 38,
            "name": "D2",
            "ticks": 6912,
            "time": 10.799999999999999,
            "velocity": 0.3937007874015748
          },
          {
            "duration": 0.15000000000000036,
            "durationTicks": 96,
            "midi": 53,
            "name": "F3",
            "ticks": 6912,
            "time": 10.799999999999999,
            "velocity": 0.3937007874015748
          },
          {
            "duration": 0.15000000000000036,
            "durationTicks": 96,
            "midi": 35,
            "name": "B1",
            "ticks": 6912,
            "time": 10.799999999999999,
            "velocity": 0.3937007874015748
          },
          {
            "duration": 0.15000000000000036,
            "durationTicks": 96,
            "midi": 40,
            "name": "E2",
            "ticks": 7104,
            "time": 11.1,
            "velocity": 0.3937007874015748
          },
          {
            "duration": 0.15000000000000036,
            "durationTicks": 96,
            "midi": 53,
            "name": "F3",
            "ticks": 7104,
            "time": 11.1,
            "velocity": 0.3937007874015748
          },
          {
            "duration": 0.15000000000000036,
            "durationTicks": 96,
            "midi": 38,
            "name": "D2",
            "ticks": 7104,
            "time": 11.1,
            "velocity": 0.3937007874015748
          },
          {
            "duration": 0.14999999999999858,
            "durationTicks": 96,
            "midi": 38,
            "name": "D2",
            "ticks": 7296,
            "time": 11.4,
            "velocity": 0.3937007874015748
          },
          {
            "duration": 0.14999999999999858,
            "durationTicks": 96,
            "midi": 53,
            "name": "F3",
            "ticks": 7296,
            "time": 11.4,
            "velocity": 0.3937007874015748
          },
          {
            "duration": 0.14999999999999858,
            "durationTicks": 96,
            "midi": 35,
            "name": "B1",
            "ticks": 7296,
            "time": 11.4,
            "velocity": 0.3937007874015748
          },
          {
            "duration": 0.15000000000000036,
            "durationTicks": 96,
            "midi": 35,
            "name": "B1",
            "ticks": 7392,
            "time": 11.549999999999999,
            "velocity": 0.3937007874015748
          },
          {
            "duration": 0.15000000000000036,
            "durationTicks": 96,
            "midi": 38,
            "name": "D2",
            "ticks": 7392,
            "time": 11.549999999999999,
            "velocity": 0.3937007874015748
          },
          {
            "duration": 0.15000000000000036,
            "durationTicks": 96,
            "midi": 40,
            "name": "E2",
            "ticks": 7488,
            "time": 11.7,
            "velocity": 0.3937007874015748
          },
          {
            "duration": 0.15000000000000036,
            "durationTicks": 96,
            "midi": 53,
            "name": "F3",
            "ticks": 7488,
            "time": 11.7,
            "velocity": 0.3937007874015748
          },
          {
            "duration": 0.15000000000000036,
            "durationTicks": 96,
            "midi": 38,
            "name": "D2",
            "ticks": 7488,
            "time": 11.7,
            "velocity": 0.3937007874015748
          },
          {
            "duration": 0.15000000000000036,
            "durationTicks": 96,
            "midi": 35,
            "name": "B1",
            "ticks": 7680,
            "time": 12,
            "velocity": 0.3937007874015748
          },
          {
            "duration": 0.15000000000000036,
            "durationTicks": 96,
            "midi": 49,
            "name": "C#3",
            "ticks": 7680,
            "time": 12,
            "velocity": 0.3937007874015748
          },
          {
            "duration": 0.15000000000000036,
            "durationTicks": 96,
            "midi": 53,
            "name": "F3",
            "ticks": 7680,
            "time": 12,
            "velocity": 0.3937007874015748
          },
          {
            "duration": 0.15000000000000036,
            "durationTicks": 96,
            "midi": 38,
            "name": "D2",
            "ticks": 7680,
            "time": 12,
            "velocity": 0.3937007874015748
          },
          {
            "duration": 0.15000000000000036,
            "durationTicks": 96,
            "midi": 40,
            "name": "E2",
            "ticks": 7872,
            "time": 12.299999999999999,
            "velocity": 0.3937007874015748
          },
          {
            "duration": 0.15000000000000036,
            "durationTicks": 96,
            "midi": 38,
            "name": "D2",
            "ticks": 7872,
            "time": 12.299999999999999,
            "velocity": 0.3937007874015748
          },
          {
            "duration": 0.15000000000000036,
            "durationTicks": 96,
            "midi": 53,
            "name": "F3",
            "ticks": 7872,
            "time": 12.299999999999999,
            "velocity": 0.3937007874015748
          },
          {
            "duration": 0.15000000000000036,
            "durationTicks": 96,
            "midi": 35,
            "name": "B1",
            "ticks": 8064,
            "time": 12.6,
            "velocity": 0.3937007874015748
          },
          {
            "duration": 0.15000000000000036,
            "durationTicks": 96,
            "midi": 53,
            "name": "F3",
            "ticks": 8064,
            "time": 12.6,
            "velocity": 0.3937007874015748
          },
          {
            "duration": 0.15000000000000036,
            "durationTicks": 96,
            "midi": 38,
            "name": "D2",
            "ticks": 8064,
            "time": 12.6,
            "velocity": 0.3937007874015748
          },
          {
            "duration": 0.15000000000000036,
            "durationTicks": 96,
            "midi": 35,
            "name": "B1",
            "ticks": 8160,
            "time": 12.75,
            "velocity": 0.3937007874015748
          },
          {
            "duration": 0.15000000000000036,
            "durationTicks": 96,
            "midi": 38,
            "name": "D2",
            "ticks": 8160,
            "time": 12.75,
            "velocity": 0.3937007874015748
          },
          {
            "duration": 0.14999999999999858,
            "durationTicks": 96,
            "midi": 38,
            "name": "D2",
            "ticks": 8256,
            "time": 12.9,
            "velocity": 0.3937007874015748
          },
          {
            "duration": 0.14999999999999858,
            "durationTicks": 96,
            "midi": 53,
            "name": "F3",
            "ticks": 8256,
            "time": 12.9,
            "velocity": 0.3937007874015748
          },
          {
            "duration": 0.14999999999999858,
            "durationTicks": 96,
            "midi": 40,
            "name": "E2",
            "ticks": 8256,
            "time": 12.9,
            "velocity": 0.3937007874015748
          },
          {
            "duration": 0.15000000000000036,
            "durationTicks": 96,
            "midi": 53,
            "name": "F3",
            "ticks": 8448,
            "time": 13.2,
            "velocity": 0.3937007874015748
          },
          {
            "duration": 0.15000000000000036,
            "durationTicks": 96,
            "midi": 38,
            "name": "D2",
            "ticks": 8448,
            "time": 13.2,
            "velocity": 0.3937007874015748
          },
          {
            "duration": 0.15000000000000036,
            "durationTicks": 96,
            "midi": 35,
            "name": "B1",
            "ticks": 8448,
            "time": 13.2,
            "velocity": 0.3937007874015748
          },
          {
            "duration": 0.15000000000000036,
            "durationTicks": 96,
            "midi": 40,
            "name": "E2",
            "ticks": 8640,
            "time": 13.5,
            "velocity": 0.3937007874015748
          },
          {
            "duration": 0.15000000000000036,
            "durationTicks": 96,
            "midi": 53,
            "name": "F3",
            "ticks": 8640,
            "time": 13.5,
            "velocity": 0.3937007874015748
          },
          {
            "duration": 0.15000000000000036,
            "durationTicks": 96,
            "midi": 38,
            "name": "D2",
            "ticks": 8640,
            "time": 13.5,
            "velocity": 0.3937007874015748
          },
          {
            "duration": 0.15000000000000036,
            "durationTicks": 96,
            "midi": 35,
            "name": "B1",
            "ticks": 8832,
            "time": 13.799999999999999,
            "velocity": 0.3937007874015748
          },
          {
            "duration": 0.15000000000000036,
            "durationTicks": 96,
            "midi": 38,
            "name": "D2",
            "ticks": 8832,
            "time": 13.799999999999999,
            "velocity": 0.3937007874015748
          },
          {
            "duration": 0.15000000000000036,
            "durationTicks": 96,
            "midi": 53,
            "name": "F3",
            "ticks": 8832,
            "time": 13.799999999999999,
            "velocity": 0.3937007874015748
          },
          {
            "duration": 0.15000000000000036,
            "durationTicks": 96,
            "midi": 38,
            "name": "D2",
            "ticks": 8928,
            "time": 13.95,
            "velocity": 0.3937007874015748
          },
          {
            "duration": 0.15000000000000036,
            "durationTicks": 96,
            "midi": 35,
            "name": "B1",
            "ticks": 8928,
            "time": 13.95,
            "velocity": 0.3937007874015748
          },
          {
            "duration": 0.15000000000000036,
            "durationTicks": 96,
            "midi": 53,
            "name": "F3",
            "ticks": 9024,
            "time": 14.1,
            "velocity": 0.3937007874015748
          },
          {
            "duration": 0.15000000000000036,
            "durationTicks": 96,
            "midi": 38,
            "name": "D2",
            "ticks": 9024,
            "time": 14.1,
            "velocity": 0.3937007874015748
          },
          {
            "duration": 0.15000000000000036,
            "durationTicks": 96,
            "midi": 40,
            "name": "E2",
            "ticks": 9024,
            "time": 14.1,
            "velocity": 0.3937007874015748
          },
          {
            "duration": 0.15000000000000036,
            "durationTicks": 96,
            "midi": 53,
            "name": "F3",
            "ticks": 9216,
            "time": 14.399999999999999,
            "velocity": 0.3937007874015748
          },
          {
            "duration": 0.15000000000000036,
            "durationTicks": 96,
            "midi": 35,
            "name": "B1",
            "ticks": 9216,
            "time": 14.399999999999999,
            "velocity": 0.3937007874015748
          },
          {
            "duration": 0.15000000000000036,
            "durationTicks": 96,
            "midi": 49,
            "name": "C#3",
            "ticks": 9216,
            "time": 14.399999999999999,
            "velocity": 0.3937007874015748
          },
          {
            "duration": 0.15000000000000036,
            "durationTicks": 96,
            "midi": 38,
            "name": "D2",
            "ticks": 9216,
            "time": 14.399999999999999,
            "velocity": 0.3937007874015748
          },
          {
            "duration": 0.15000000000000036,
            "durationTicks": 96,
            "midi": 53,
            "name": "F3",
            "ticks": 9408,
            "time": 14.7,
            "velocity": 0.3937007874015748
          },
          {
            "duration": 0.15000000000000036,
            "durationTicks": 96,
            "midi": 40,
            "name": "E2",
            "ticks": 9408,
            "time": 14.7,
            "velocity": 0.3937007874015748
          },
          {
            "duration": 0.15000000000000036,
            "durationTicks": 96,
            "midi": 38,
            "name": "D2",
            "ticks": 9408,
            "time": 14.7,
            "velocity": 0.3937007874015748
          },
          {
            "duration": 0.14999999999999858,
            "durationTicks": 96,
            "midi": 38,
            "name": "D2",
            "ticks": 9600,
            "time": 15,
            "velocity": 0.3937007874015748
          },
          {
            "duration": 0.14999999999999858,
            "durationTicks": 96,
            "midi": 35,
            "name": "B1",
            "ticks": 9600,
            "time": 15,
            "velocity": 0.3937007874015748
          },
          {
            "duration": 0.14999999999999858,
            "durationTicks": 96,
            "midi": 53,
            "name": "F3",
            "ticks": 9600,
            "time": 15,
            "velocity": 0.3937007874015748
          },
          {
            "duration": 0.15000000000000036,
            "durationTicks": 96,
            "midi": 38,
            "name": "D2",
            "ticks": 9696,
            "time": 15.149999999999999,
            "velocity": 0.3937007874015748
          },
          {
            "duration": 0.15000000000000036,
            "durationTicks": 96,
            "midi": 35,
            "name": "B1",
            "ticks": 9696,
            "time": 15.149999999999999,
            "velocity": 0.3937007874015748
          },
          {
            "duration": 0.15000000000000036,
            "durationTicks": 96,
            "midi": 40,
            "name": "E2",
            "ticks": 9792,
            "time": 15.299999999999999,
            "velocity": 0.3937007874015748
          },
          {
            "duration": 0.15000000000000036,
            "durationTicks": 96,
            "midi": 53,
            "name": "F3",
            "ticks": 9792,
            "time": 15.299999999999999,
            "velocity": 0.3937007874015748
          },
          {
            "duration": 0.15000000000000036,
            "durationTicks": 96,
            "midi": 38,
            "name": "D2",
            "ticks": 9792,
            "time": 15.299999999999999,
            "velocity": 0.3937007874015748
          },
          {
            "duration": 0.15000000000000036,
            "durationTicks": 96,
            "midi": 38,
            "name": "D2",
            "ticks": 9984,
            "time": 15.6,
            "velocity": 0.3937007874015748
          },
          {
            "duration": 0.15000000000000036,
            "durationTicks": 96,
            "midi": 35,
            "name": "B1",
            "ticks": 9984,
            "time": 15.6,
            "velocity": 0.3937007874015748
          },
          {
            "duration": 0.15000000000000036,
            "durationTicks": 96,
            "midi": 53,
            "name": "F3",
            "ticks": 9984,
            "time": 15.6,
            "velocity": 0.3937007874015748
          },
          {
            "duration": 0.15000000000000213,
            "durationTicks": 96,
            "midi": 40,
            "name": "E2",
            "ticks": 10176,
            "time": 15.899999999999999,
            "velocity": 0.3937007874015748
          },
          {
            "duration": 0.15000000000000213,
            "durationTicks": 96,
            "midi": 53,
            "name": "F3",
            "ticks": 10176,
            "time": 15.899999999999999,
            "velocity": 0.3937007874015748
          },
          {
            "duration": 0.15000000000000213,
            "durationTicks": 96,
            "midi": 38,
            "name": "D2",
            "ticks": 10176,
            "time": 15.899999999999999,
            "velocity": 0.3937007874015748
          },
          {
            "duration": 0.14999999999999858,
            "durationTicks": 96,
            "midi": 53,
            "name": "F3",
            "ticks": 10368,
            "time": 16.2,
            "velocity": 0.3937007874015748
          },
          {
            "duration": 0.14999999999999858,
            "durationTicks": 96,
            "midi": 38,
            "name": "D2",
            "ticks": 10368,
            "time": 16.2,
            "velocity": 0.3937007874015748
          },
          {
            "duration": 0.14999999999999858,
            "durationTicks": 96,
            "midi": 35,
            "name": "B1",
            "ticks": 10368,
            "time": 16.2,
            "velocity": 0.3937007874015748
          },
          {
            "duration": 0.15000000000000213,
            "durationTicks": 96,
            "midi": 35,
            "name": "B1",
            "ticks": 10464,
            "time": 16.349999999999998,
            "velocity": 0.3937007874015748
          },
          {
            "duration": 0.15000000000000213,
            "durationTicks": 96,
            "midi": 38,
            "name": "D2",
            "ticks": 10464,
            "time": 16.349999999999998,
            "velocity": 0.3937007874015748
          },
          {
            "duration": 0.14999999999999858,
            "durationTicks": 96,
            "midi": 53,
            "name": "F3",
            "ticks": 10560,
            "time": 16.5,
            "velocity": 0.3937007874015748
          },
          {
            "duration": 0.14999999999999858,
            "durationTicks": 96,
            "midi": 40,
            "name": "E2",
            "ticks": 10560,
            "time": 16.5,
            "velocity": 0.3937007874015748
          },
          {
            "duration": 0.14999999999999858,
            "durationTicks": 96,
            "midi": 38,
            "name": "D2",
            "ticks": 10560,
            "time": 16.5,
            "velocity": 0.3937007874015748
          },
          {
            "duration": 0.14999999999999858,
            "durationTicks": 96,
            "midi": 38,
            "name": "D2",
            "ticks": 10752,
            "time": 16.8,
            "velocity": 0.3937007874015748
          },
          {
            "duration": 0.14999999999999858,
            "durationTicks": 96,
            "midi": 53,
            "name": "F3",
            "ticks": 10752,
            "time": 16.8,
            "velocity": 0.3937007874015748
          },
          {
            "duration": 0.14999999999999858,
            "durationTicks": 96,
            "midi": 49,
            "name": "C#3",
            "ticks": 10752,
            "time": 16.8,
            "velocity": 0.3937007874015748
          },
          {
            "duration": 0.14999999999999858,
            "durationTicks": 96,
            "midi": 35,
            "name": "B1",
            "ticks": 10752,
            "time": 16.8,
            "velocity": 0.3937007874015748
          },
          {
            "duration": 0.15000000000000213,
            "durationTicks": 96,
            "midi": 53,
            "name": "F3",
            "ticks": 10944,
            "time": 17.099999999999998,
            "velocity": 0.3937007874015748
          },
          {
            "duration": 0.15000000000000213,
            "durationTicks": 96,
            "midi": 40,
            "name": "E2",
            "ticks": 10944,
            "time": 17.099999999999998,
            "velocity": 0.3937007874015748
          },
          {
            "duration": 0.15000000000000213,
            "durationTicks": 96,
            "midi": 38,
            "name": "D2",
            "ticks": 10944,
            "time": 17.099999999999998,
            "velocity": 0.3937007874015748
          },
          {
            "duration": 0.15000000000000213,
            "durationTicks": 96,
            "midi": 38,
            "name": "D2",
            "ticks": 11136,
            "time": 17.4,
            "velocity": 0.3937007874015748
          },
          {
            "duration": 0.15000000000000213,
            "durationTicks": 96,
            "midi": 53,
            "name": "F3",
            "ticks": 11136,
            "time": 17.4,
            "velocity": 0.3937007874015748
          },
          {
            "duration": 0.15000000000000213,
            "durationTicks": 96,
            "midi": 35,
            "name": "B1",
            "ticks": 11136,
            "time": 17.4,
            "velocity": 0.3937007874015748
          },
          {
            "duration": 0.14999999999999858,
            "durationTicks": 96,
            "midi": 35,
            "name": "B1",
            "ticks": 11232,
            "time": 17.55,
            "velocity": 0.3937007874015748
          },
          {
            "duration": 0.14999999999999858,
            "durationTicks": 96,
            "midi": 38,
            "name": "D2",
            "ticks": 11232,
            "time": 17.55,
            "velocity": 0.3937007874015748
          },
          {
            "duration": 0.14999999999999858,
            "durationTicks": 96,
            "midi": 38,
            "name": "D2",
            "ticks": 11328,
            "time": 17.7,
            "velocity": 0.3937007874015748
          },
          {
            "duration": 0.14999999999999858,
            "durationTicks": 96,
            "midi": 53,
            "name": "F3",
            "ticks": 11328,
            "time": 17.7,
            "velocity": 0.3937007874015748
          },
          {
            "duration": 0.14999999999999858,
            "durationTicks": 96,
            "midi": 40,
            "name": "E2",
            "ticks": 11328,
            "time": 17.7,
            "velocity": 0.3937007874015748
          },
          {
            "duration": 0.14999999999999858,
            "durationTicks": 96,
            "midi": 35,
            "name": "B1",
            "ticks": 11520,
            "time": 18,
            "velocity": 0.3937007874015748
          },
          {
            "duration": 0.14999999999999858,
            "durationTicks": 96,
            "midi": 53,
            "name": "F3",
            "ticks": 11520,
            "time": 18,
            "velocity": 0.3937007874015748
          },
          {
            "duration": 0.14999999999999858,
            "durationTicks": 96,
            "midi": 38,
            "name": "D2",
            "ticks": 11520,
            "time": 18,
            "velocity": 0.3937007874015748
          },
          {
            "duration": 0.14999999999999858,
            "durationTicks": 96,
            "midi": 49,
            "name": "C#3",
            "ticks": 11520,
            "time": 18,
            "velocity": 0.3937007874015748
          },
          {
            "duration": 0.15000000000000213,
            "durationTicks": 96,
            "midi": 35,
            "name": "B1",
            "ticks": 11616,
            "time": 18.15,
            "velocity": 0.3937007874015748
          },
          {
            "duration": 0.15000000000000213,
            "durationTicks": 96,
            "midi": 38,
            "name": "D2",
            "ticks": 11616,
            "time": 18.15,
            "velocity": 0.3937007874015748
          },
          {
            "duration": 0.15000000000000213,
            "durationTicks": 96,
            "midi": 53,
            "name": "F3",
            "ticks": 11616,
            "time": 18.15,
            "velocity": 0.3937007874015748
          },
          {
            "duration": 0.14999999999999858,
            "durationTicks": 96,
            "midi": 53,
            "name": "F3",
            "ticks": 11712,
            "time": 18.3,
            "velocity": 0.3937007874015748
          },
          {
            "duration": 0.14999999999999858,
            "durationTicks": 96,
            "midi": 49,
            "name": "C#3",
            "ticks": 11712,
            "time": 18.3,
            "velocity": 0.3937007874015748
          },
          {
            "duration": 0.14999999999999858,
            "durationTicks": 96,
            "midi": 38,
            "name": "D2",
            "ticks": 11712,
            "time": 18.3,
            "velocity": 0.3937007874015748
          },
          {
            "duration": 0.14999999999999858,
            "durationTicks": 96,
            "midi": 35,
            "name": "B1",
            "ticks": 11712,
            "time": 18.3,
            "velocity": 0.3937007874015748
          },
          {
            "duration": 0.14999999999999858,
            "durationTicks": 96,
            "midi": 38,
            "name": "D2",
            "ticks": 11808,
            "time": 18.45,
            "velocity": 0.3937007874015748
          },
          {
            "duration": 0.14999999999999858,
            "durationTicks": 96,
            "midi": 53,
            "name": "F3",
            "ticks": 11808,
            "time": 18.45,
            "velocity": 0.3937007874015748
          },
          {
            "duration": 0.14999999999999858,
            "durationTicks": 96,
            "midi": 35,
            "name": "B1",
            "ticks": 11808,
            "time": 18.45,
            "velocity": 0.3937007874015748
          },
          {
            "duration": 0.15000000000000213,
            "durationTicks": 96,
            "midi": 35,
            "name": "B1",
            "ticks": 11904,
            "time": 18.599999999999998,
            "velocity": 0.3937007874015748
          },
          {
            "duration": 0.15000000000000213,
            "durationTicks": 96,
            "midi": 38,
            "name": "D2",
            "ticks": 11904,
            "time": 18.599999999999998,
            "velocity": 0.3937007874015748
          },
          {
            "duration": 0.15000000000000213,
            "durationTicks": 96,
            "midi": 49,
            "name": "C#3",
            "ticks": 11904,
            "time": 18.599999999999998,
            "velocity": 0.3937007874015748
          },
          {
            "duration": 0.15000000000000213,
            "durationTicks": 96,
            "midi": 53,
            "name": "F3",
            "ticks": 11904,
            "time": 18.599999999999998,
            "velocity": 0.3937007874015748
          },
          {
            "duration": 0.14999999999999858,
            "durationTicks": 96,
            "midi": 38,
            "name": "D2",
            "ticks": 12000,
            "time": 18.75,
            "velocity": 0.3937007874015748
          },
          {
            "duration": 0.14999999999999858,
            "durationTicks": 96,
            "midi": 53,
            "name": "F3",
            "ticks": 12000,
            "time": 18.75,
            "velocity": 0.3937007874015748
          },
          {
            "duration": 0.14999999999999858,
            "durationTicks": 96,
            "midi": 35,
            "name": "B1",
            "ticks": 12000,
            "time": 18.75,
            "velocity": 0.3937007874015748
          },
          {
            "duration": 0.15000000000000213,
            "durationTicks": 96,
            "midi": 38,
            "name": "D2",
            "ticks": 12096,
            "time": 18.9,
            "velocity": 0.3937007874015748
          },
          {
            "duration": 0.15000000000000213,
            "durationTicks": 96,
            "midi": 49,
            "name": "C#3",
            "ticks": 12096,
            "time": 18.9,
            "velocity": 0.3937007874015748
          },
          {
            "duration": 0.15000000000000213,
            "durationTicks": 96,
            "midi": 53,
            "name": "F3",
            "ticks": 12096,
            "time": 18.9,
            "velocity": 0.3937007874015748
          },
          {
            "duration": 0.15000000000000213,
            "durationTicks": 96,
            "midi": 35,
            "name": "B1",
            "ticks": 12096,
            "time": 18.9,
            "velocity": 0.3937007874015748
          },
          {
            "duration": 0.14999999999999858,
            "durationTicks": 96,
            "midi": 53,
            "name": "F3",
            "ticks": 12192,
            "time": 19.05,
            "velocity": 0.3937007874015748
          },
          {
            "duration": 0.14999999999999858,
            "durationTicks": 96,
            "midi": 35,
            "name": "B1",
            "ticks": 12192,
            "time": 19.05,
            "velocity": 0.3937007874015748
          },
          {
            "duration": 0.14999999999999858,
            "durationTicks": 96,
            "midi": 38,
            "name": "D2",
            "ticks": 12192,
            "time": 19.05,
            "velocity": 0.3937007874015748
          },
          {
            "duration": 0.14999999999999858,
            "durationTicks": 96,
            "midi": 49,
            "name": "C#3",
            "ticks": 12288,
            "time": 19.2,
            "velocity": 0.3937007874015748
          },
          {
            "duration": 0.14999999999999858,
            "durationTicks": 96,
            "midi": 38,
            "name": "D2",
            "ticks": 12288,
            "time": 19.2,
            "velocity": 0.3937007874015748
          },
          {
            "duration": 0.14999999999999858,
            "durationTicks": 96,
            "midi": 35,
            "name": "B1",
            "ticks": 12288,
            "time": 19.2,
            "velocity": 0.3937007874015748
          },
          {
            "duration": 0.14999999999999858,
            "durationTicks": 96,
            "midi": 40,
            "name": "E2",
            "ticks": 12480,
            "time": 19.5,
            "velocity": 0.3937007874015748
          },
          {
            "duration": 0.14999999999999858,
            "durationTicks": 96,
            "midi": 49,
            "name": "C#3",
            "ticks": 12480,
            "time": 19.5,
            "velocity": 0.3937007874015748
          },
          {
            "duration": 0.14999999999999858,
            "durationTicks": 96,
            "midi": 38,
            "name": "D2",
            "ticks": 12480,
            "time": 19.5,
            "velocity": 0.3937007874015748
          },
          {
            "duration": 0.14999999999999858,
            "durationTicks": 96,
            "midi": 35,
            "name": "B1",
            "ticks": 12672,
            "time": 19.8,
            "velocity": 0.3937007874015748
          },
          {
            "duration": 0.14999999999999858,
            "durationTicks": 96,
            "midi": 38,
            "name": "D2",
            "ticks": 12672,
            "time": 19.8,
            "velocity": 0.3937007874015748
          },
          {
            "duration": 0.14999999999999858,
            "durationTicks": 96,
            "midi": 49,
            "name": "C#3",
            "ticks": 12672,
            "time": 19.8,
            "velocity": 0.3937007874015748
          },
          {
            "duration": 0.14999999999999858,
            "durationTicks": 96,
            "midi": 35,
            "name": "B1",
            "ticks": 12768,
            "time": 19.95,
            "velocity": 0.3937007874015748
          },
          {
            "duration": 0.14999999999999858,
            "durationTicks": 96,
            "midi": 38,
            "name": "D2",
            "ticks": 12768,
            "time": 19.95,
            "velocity": 0.3937007874015748
          },
          {
            "duration": 0.15000000000000213,
            "durationTicks": 96,
            "midi": 38,
            "name": "D2",
            "ticks": 12864,
            "time": 20.099999999999998,
            "velocity": 0.3937007874015748
          },
          {
            "duration": 0.15000000000000213,
            "durationTicks": 96,
            "midi": 49,
            "name": "C#3",
            "ticks": 12864,
            "time": 20.099999999999998,
            "velocity": 0.3937007874015748
          },
          {
            "duration": 0.15000000000000213,
            "durationTicks": 96,
            "midi": 40,
            "name": "E2",
            "ticks": 12864,
            "time": 20.099999999999998,
            "velocity": 0.3937007874015748
          },
          {
            "duration": 0.15000000000000213,
            "durationTicks": 96,
            "midi": 35,
            "name": "B1",
            "ticks": 13056,
            "time": 20.4,
            "velocity": 0.3937007874015748
          },
          {
            "duration": 0.15000000000000213,
            "durationTicks": 96,
            "midi": 49,
            "name": "C#3",
            "ticks": 13056,
            "time": 20.4,
            "velocity": 0.3937007874015748
          },
          {
            "duration": 0.15000000000000213,
            "durationTicks": 96,
            "midi": 38,
            "name": "D2",
            "ticks": 13056,
            "time": 20.4,
            "velocity": 0.3937007874015748
          },
          {
            "duration": 0.14999999999999858,
            "durationTicks": 96,
            "midi": 40,
            "name": "E2",
            "ticks": 13248,
            "time": 20.7,
            "velocity": 0.3937007874015748
          },
          {
            "duration": 0.14999999999999858,
            "durationTicks": 96,
            "midi": 49,
            "name": "C#3",
            "ticks": 13248,
            "time": 20.7,
            "velocity": 0.3937007874015748
          },
          {
            "duration": 0.14999999999999858,
            "durationTicks": 96,
            "midi": 38,
            "name": "D2",
            "ticks": 13248,
            "time": 20.7,
            "velocity": 0.3937007874015748
          },
          {
            "duration": 0.14999999999999858,
            "durationTicks": 96,
            "midi": 35,
            "name": "B1",
            "ticks": 13440,
            "time": 21,
            "velocity": 0.3937007874015748
          },
          {
            "duration": 0.14999999999999858,
            "durationTicks": 96,
            "midi": 38,
            "name": "D2",
            "ticks": 13440,
            "time": 21,
            "velocity": 0.3937007874015748
          },
          {
            "duration": 0.14999999999999858,
            "durationTicks": 96,
            "midi": 49,
            "name": "C#3",
            "ticks": 13440,
            "time": 21,
            "velocity": 0.3937007874015748
          },
          {
            "duration": 0.15000000000000213,
            "durationTicks": 96,
            "midi": 38,
            "name": "D2",
            "ticks": 13536,
            "time": 21.15,
            "velocity": 0.3937007874015748
          },
          {
            "duration": 0.15000000000000213,
            "durationTicks": 96,
            "midi": 35,
            "name": "B1",
            "ticks": 13536,
            "time": 21.15,
            "velocity": 0.3937007874015748
          },
          {
            "duration": 0.14999999999999858,
            "durationTicks": 96,
            "midi": 49,
            "name": "C#3",
            "ticks": 13632,
            "time": 21.3,
            "velocity": 0.3937007874015748
          },
          {
            "duration": 0.14999999999999858,
            "durationTicks": 96,
            "midi": 40,
            "name": "E2",
            "ticks": 13632,
            "time": 21.3,
            "velocity": 0.3937007874015748
          },
          {
            "duration": 0.14999999999999858,
            "durationTicks": 96,
            "midi": 38,
            "name": "D2",
            "ticks": 13632,
            "time": 21.3,
            "velocity": 0.3937007874015748
          },
          {
            "duration": 0.15000000000000213,
            "durationTicks": 96,
            "midi": 49,
            "name": "C#3",
            "ticks": 13824,
            "time": 21.599999999999998,
            "velocity": 0.3937007874015748
          },
          {
            "duration": 0.15000000000000213,
            "durationTicks": 96,
            "midi": 35,
            "name": "B1",
            "ticks": 13824,
            "time": 21.599999999999998,
            "velocity": 0.3937007874015748
          },
          {
            "duration": 0.15000000000000213,
            "durationTicks": 96,
            "midi": 38,
            "name": "D2",
            "ticks": 13824,
            "time": 21.599999999999998,
            "velocity": 0.3937007874015748
          },
          {
            "duration": 0.15000000000000213,
            "durationTicks": 96,
            "midi": 38,
            "name": "D2",
            "ticks": 14016,
            "time": 21.9,
            "velocity": 0.3937007874015748
          },
          {
            "duration": 0.15000000000000213,
            "durationTicks": 96,
            "midi": 49,
            "name": "C#3",
            "ticks": 14016,
            "time": 21.9,
            "velocity": 0.3937007874015748
          },
          {
            "duration": 0.15000000000000213,
            "durationTicks": 96,
            "midi": 40,
            "name": "E2",
            "ticks": 14016,
            "time": 21.9,
            "velocity": 0.3937007874015748
          },
          {
            "duration": 0.14999999999999858,
            "durationTicks": 96,
            "midi": 35,
            "name": "B1",
            "ticks": 14208,
            "time": 22.2,
            "velocity": 0.3937007874015748
          },
          {
            "duration": 0.14999999999999858,
            "durationTicks": 96,
            "midi": 38,
            "name": "D2",
            "ticks": 14208,
            "time": 22.2,
            "velocity": 0.3937007874015748
          },
          {
            "duration": 0.14999999999999858,
            "durationTicks": 96,
            "midi": 49,
            "name": "C#3",
            "ticks": 14208,
            "time": 22.2,
            "velocity": 0.3937007874015748
          },
          {
            "duration": 0.15000000000000213,
            "durationTicks": 96,
            "midi": 35,
            "name": "B1",
            "ticks": 14304,
            "time": 22.349999999999998,
            "velocity": 0.3937007874015748
          },
          {
            "duration": 0.15000000000000213,
            "durationTicks": 96,
            "midi": 38,
            "name": "D2",
            "ticks": 14304,
            "time": 22.349999999999998,
            "velocity": 0.3937007874015748
          },
          {
            "duration": 0.14999999999999858,
            "durationTicks": 96,
            "midi": 38,
            "name": "D2",
            "ticks": 14400,
            "time": 22.5,
            "velocity": 0.3937007874015748
          },
          {
            "duration": 0.14999999999999858,
            "durationTicks": 96,
            "midi": 40,
            "name": "E2",
            "ticks": 14400,
            "time": 22.5,
            "velocity": 0.3937007874015748
          },
          {
            "duration": 0.14999999999999858,
            "durationTicks": 96,
            "midi": 49,
            "name": "C#3",
            "ticks": 14400,
            "time": 22.5,
            "velocity": 0.3937007874015748
          },
          {
            "duration": 0.14999999999999858,
            "durationTicks": 96,
            "midi": 35,
            "name": "B1",
            "ticks": 14592,
            "time": 22.8,
            "velocity": 0.3937007874015748
          },
          {
            "duration": 0.14999999999999858,
            "durationTicks": 96,
            "midi": 49,
            "name": "C#3",
            "ticks": 14592,
            "time": 22.8,
            "velocity": 0.3937007874015748
          },
          {
            "duration": 0.14999999999999858,
            "durationTicks": 96,
            "midi": 38,
            "name": "D2",
            "ticks": 14592,
            "time": 22.8,
            "velocity": 0.3937007874015748
          },
          {
            "duration": 0.15000000000000213,
            "durationTicks": 96,
            "midi": 49,
            "name": "C#3",
            "ticks": 14784,
            "time": 23.099999999999998,
            "velocity": 0.3937007874015748
          },
          {
            "duration": 0.15000000000000213,
            "durationTicks": 96,
            "midi": 38,
            "name": "D2",
            "ticks": 14784,
            "time": 23.099999999999998,
            "velocity": 0.3937007874015748
          },
          {
            "duration": 0.15000000000000213,
            "durationTicks": 96,
            "midi": 40,
            "name": "E2",
            "ticks": 14784,
            "time": 23.099999999999998,
            "velocity": 0.3937007874015748
          },
          {
            "duration": 0.15000000000000213,
            "durationTicks": 96,
            "midi": 35,
            "name": "B1",
            "ticks": 14976,
            "time": 23.4,
            "velocity": 0.3937007874015748
          },
          {
            "duration": 0.15000000000000213,
            "durationTicks": 96,
            "midi": 49,
            "name": "C#3",
            "ticks": 14976,
            "time": 23.4,
            "velocity": 0.3937007874015748
          },
          {
            "duration": 0.15000000000000213,
            "durationTicks": 96,
            "midi": 38,
            "name": "D2",
            "ticks": 14976,
            "time": 23.4,
            "velocity": 0.3937007874015748
          },
          {
            "duration": 0.14999999999999858,
            "durationTicks": 96,
            "midi": 38,
            "name": "D2",
            "ticks": 15072,
            "time": 23.55,
            "velocity": 0.3937007874015748
          },
          {
            "duration": 0.14999999999999858,
            "durationTicks": 96,
            "midi": 35,
            "name": "B1",
            "ticks": 15072,
            "time": 23.55,
            "velocity": 0.3937007874015748
          },
          {
            "duration": 0.14999999999999858,
            "durationTicks": 96,
            "midi": 38,
            "name": "D2",
            "ticks": 15168,
            "time": 23.7,
            "velocity": 0.3937007874015748
          },
          {
            "duration": 0.14999999999999858,
            "durationTicks": 96,
            "midi": 49,
            "name": "C#3",
            "ticks": 15168,
            "time": 23.7,
            "velocity": 0.3937007874015748
          },
          {
            "duration": 0.14999999999999858,
            "durationTicks": 96,
            "midi": 40,
            "name": "E2",
            "ticks": 15168,
            "time": 23.7,
            "velocity": 0.3937007874015748
          },
          {
            "duration": 0.14999999999999858,
            "durationTicks": 96,
            "midi": 49,
            "name": "C#3",
            "ticks": 15360,
            "time": 24,
            "velocity": 0.3937007874015748
          },
          {
            "duration": 0.14999999999999858,
            "durationTicks": 96,
            "midi": 38,
            "name": "D2",
            "ticks": 15360,
            "time": 24,
            "velocity": 0.3937007874015748
          },
          {
            "duration": 0.14999999999999858,
            "durationTicks": 96,
            "midi": 35,
            "name": "B1",
            "ticks": 15360,
            "time": 24,
            "velocity": 0.3937007874015748
          },
          {
            "duration": 0.14999999999999858,
            "durationTicks": 96,
            "midi": 38,
            "name": "D2",
            "ticks": 15552,
            "time": 24.3,
            "velocity": 0.3937007874015748
          },
          {
            "duration": 0.14999999999999858,
            "durationTicks": 96,
            "midi": 49,
            "name": "C#3",
            "ticks": 15552,
            "time": 24.3,
            "velocity": 0.3937007874015748
          },
          {
            "duration": 0.14999999999999858,
            "durationTicks": 96,
            "midi": 40,
            "name": "E2",
            "ticks": 15552,
            "time": 24.3,
            "velocity": 0.3937007874015748
          },
          {
            "duration": 0.15000000000000213,
            "durationTicks": 96,
            "midi": 38,
            "name": "D2",
            "ticks": 15744,
            "time": 24.599999999999998,
            "velocity": 0.3937007874015748
          },
          {
            "duration": 0.15000000000000213,
            "durationTicks": 96,
            "midi": 49,
            "name": "C#3",
            "ticks": 15744,
            "time": 24.599999999999998,
            "velocity": 0.3937007874015748
          },
          {
            "duration": 0.15000000000000213,
            "durationTicks": 96,
            "midi": 35,
            "name": "B1",
            "ticks": 15744,
            "time": 24.599999999999998,
            "velocity": 0.3937007874015748
          },
          {
            "duration": 0.14999999999999858,
            "durationTicks": 96,
            "midi": 38,
            "name": "D2",
            "ticks": 15840,
            "time": 24.75,
            "velocity": 0.3937007874015748
          },
          {
            "duration": 0.14999999999999858,
            "durationTicks": 96,
            "midi": 35,
            "name": "B1",
            "ticks": 15840,
            "time": 24.75,
            "velocity": 0.3937007874015748
          },
          {
            "duration": 0.15000000000000213,
            "durationTicks": 96,
            "midi": 49,
            "name": "C#3",
            "ticks": 15936,
            "time": 24.9,
            "velocity": 0.3937007874015748
          },
          {
            "duration": 0.15000000000000213,
            "durationTicks": 96,
            "midi": 40,
            "name": "E2",
            "ticks": 15936,
            "time": 24.9,
            "velocity": 0.3937007874015748
          },
          {
            "duration": 0.15000000000000213,
            "durationTicks": 96,
            "midi": 38,
            "name": "D2",
            "ticks": 15936,
            "time": 24.9,
            "velocity": 0.3937007874015748
          },
          {
            "duration": 0.14999999999999858,
            "durationTicks": 96,
            "midi": 49,
            "name": "C#3",
            "ticks": 16128,
            "time": 25.2,
            "velocity": 0.3937007874015748
          },
          {
            "duration": 0.14999999999999858,
            "durationTicks": 96,
            "midi": 38,
            "name": "D2",
            "ticks": 16128,
            "time": 25.2,
            "velocity": 0.3937007874015748
          },
          {
            "duration": 0.14999999999999858,
            "durationTicks": 96,
            "midi": 35,
            "name": "B1",
            "ticks": 16128,
            "time": 25.2,
            "velocity": 0.3937007874015748
          },
          {
            "duration": 0.14999999999999858,
            "durationTicks": 96,
            "midi": 49,
            "name": "C#3",
            "ticks": 16320,
            "time": 25.5,
            "velocity": 0.3937007874015748
          },
          {
            "duration": 0.14999999999999858,
            "durationTicks": 96,
            "midi": 40,
            "name": "E2",
            "ticks": 16320,
            "time": 25.5,
            "velocity": 0.3937007874015748
          },
          {
            "duration": 0.14999999999999858,
            "durationTicks": 96,
            "midi": 38,
            "name": "D2",
            "ticks": 16320,
            "time": 25.5,
            "velocity": 0.3937007874015748
          },
          {
            "duration": 0.14999999999999858,
            "durationTicks": 96,
            "midi": 35,
            "name": "B1",
            "ticks": 16512,
            "time": 25.8,
            "velocity": 0.3937007874015748
          },
          {
            "duration": 0.14999999999999858,
            "durationTicks": 96,
            "midi": 49,
            "name": "C#3",
            "ticks": 16512,
            "time": 25.8,
            "velocity": 0.3937007874015748
          },
          {
            "duration": 0.14999999999999858,
            "durationTicks": 96,
            "midi": 38,
            "name": "D2",
            "ticks": 16512,
            "time": 25.8,
            "velocity": 0.3937007874015748
          },
          {
            "duration": 0.14999999999999858,
            "durationTicks": 96,
            "midi": 38,
            "name": "D2",
            "ticks": 16608,
            "time": 25.95,
            "velocity": 0.3937007874015748
          },
          {
            "duration": 0.14999999999999858,
            "durationTicks": 96,
            "midi": 35,
            "name": "B1",
            "ticks": 16608,
            "time": 25.95,
            "velocity": 0.3937007874015748
          },
          {
            "duration": 0.15000000000000213,
            "durationTicks": 96,
            "midi": 40,
            "name": "E2",
            "ticks": 16704,
            "time": 26.099999999999998,
            "velocity": 0.3937007874015748
          },
          {
            "duration": 0.15000000000000213,
            "durationTicks": 96,
            "midi": 38,
            "name": "D2",
            "ticks": 16704,
            "time": 26.099999999999998,
            "velocity": 0.3937007874015748
          },
          {
            "duration": 0.15000000000000213,
            "durationTicks": 96,
            "midi": 49,
            "name": "C#3",
            "ticks": 16704,
            "time": 26.099999999999998,
            "velocity": 0.3937007874015748
          },
          {
            "duration": 0.15000000000000213,
            "durationTicks": 96,
            "midi": 38,
            "name": "D2",
            "ticks": 16896,
            "time": 26.4,
            "velocity": 0.3937007874015748
          },
          {
            "duration": 0.15000000000000213,
            "durationTicks": 96,
            "midi": 49,
            "name": "C#3",
            "ticks": 16896,
            "time": 26.4,
            "velocity": 0.3937007874015748
          },
          {
            "duration": 0.15000000000000213,
            "durationTicks": 96,
            "midi": 35,
            "name": "B1",
            "ticks": 16896,
            "time": 26.4,
            "velocity": 0.3937007874015748
          },
          {
            "duration": 0.14999999999999858,
            "durationTicks": 96,
            "midi": 38,
            "name": "D2",
            "ticks": 17088,
            "time": 26.7,
            "velocity": 0.3937007874015748
          },
          {
            "duration": 0.14999999999999858,
            "durationTicks": 96,
            "midi": 40,
            "name": "E2",
            "ticks": 17088,
            "time": 26.7,
            "velocity": 0.3937007874015748
          },
          {
            "duration": 0.14999999999999858,
            "durationTicks": 96,
            "midi": 49,
            "name": "C#3",
            "ticks": 17088,
            "time": 26.7,
            "velocity": 0.3937007874015748
          },
          {
            "duration": 0.14999999999999858,
            "durationTicks": 96,
            "midi": 49,
            "name": "C#3",
            "ticks": 17280,
            "time": 27,
            "velocity": 0.3937007874015748
          },
          {
            "duration": 0.14999999999999858,
            "durationTicks": 96,
            "midi": 38,
            "name": "D2",
            "ticks": 17280,
            "time": 27,
            "velocity": 0.3937007874015748
          },
          {
            "duration": 0.14999999999999858,
            "durationTicks": 96,
            "midi": 35,
            "name": "B1",
            "ticks": 17280,
            "time": 27,
            "velocity": 0.3937007874015748
          },
          {
            "duration": 0.15000000000000213,
            "durationTicks": 96,
            "midi": 35,
            "name": "B1",
            "ticks": 17376,
            "time": 27.15,
            "velocity": 0.3937007874015748
          },
          {
            "duration": 0.15000000000000213,
            "durationTicks": 96,
            "midi": 38,
            "name": "D2",
            "ticks": 17376,
            "time": 27.15,
            "velocity": 0.3937007874015748
          },
          {
            "duration": 0.14999999999999858,
            "durationTicks": 96,
            "midi": 38,
            "name": "D2",
            "ticks": 17472,
            "time": 27.3,
            "velocity": 0.3937007874015748
          },
          {
            "duration": 0.14999999999999858,
            "durationTicks": 96,
            "midi": 40,
            "name": "E2",
            "ticks": 17472,
            "time": 27.3,
            "velocity": 0.3937007874015748
          },
          {
            "duration": 0.14999999999999858,
            "durationTicks": 96,
            "midi": 49,
            "name": "C#3",
            "ticks": 17472,
            "time": 27.3,
            "velocity": 0.3937007874015748
          },
          {
            "duration": 0.15000000000000213,
            "durationTicks": 96,
            "midi": 49,
            "name": "C#3",
            "ticks": 17664,
            "time": 27.599999999999998,
            "velocity": 0.3937007874015748
          },
          {
            "duration": 0.15000000000000213,
            "durationTicks": 96,
            "midi": 35,
            "name": "B1",
            "ticks": 17664,
            "time": 27.599999999999998,
            "velocity": 0.3937007874015748
          },
          {
            "duration": 0.15000000000000213,
            "durationTicks": 96,
            "midi": 38,
            "name": "D2",
            "ticks": 17664,
            "time": 27.599999999999998,
            "velocity": 0.3937007874015748
          },
          {
            "duration": 0.14999999999999858,
            "durationTicks": 96,
            "midi": 38,
            "name": "D2",
            "ticks": 17760,
            "time": 27.75,
            "velocity": 0.3937007874015748
          },
          {
            "duration": 0.14999999999999858,
            "durationTicks": 96,
            "midi": 35,
            "name": "B1",
            "ticks": 17760,
            "time": 27.75,
            "velocity": 0.3937007874015748
          },
          {
            "duration": 0.15000000000000213,
            "durationTicks": 96,
            "midi": 38,
            "name": "D2",
            "ticks": 17856,
            "time": 27.9,
            "velocity": 0.3937007874015748
          },
          {
            "duration": 0.15000000000000213,
            "durationTicks": 96,
            "midi": 35,
            "name": "B1",
            "ticks": 17856,
            "time": 27.9,
            "velocity": 0.3937007874015748
          },
          {
            "duration": 0.15000000000000213,
            "durationTicks": 96,
            "midi": 49,
            "name": "C#3",
            "ticks": 17856,
            "time": 27.9,
            "velocity": 0.3937007874015748
          },
          {
            "duration": 0.14999999999999858,
            "durationTicks": 96,
            "midi": 35,
            "name": "B1",
            "ticks": 17952,
            "time": 28.05,
            "velocity": 0.3937007874015748
          },
          {
            "duration": 0.14999999999999858,
            "durationTicks": 96,
            "midi": 38,
            "name": "D2",
            "ticks": 17952,
            "time": 28.05,
            "velocity": 0.3937007874015748
          },
          {
            "duration": 0.14999999999999858,
            "durationTicks": 96,
            "midi": 35,
            "name": "B1",
            "ticks": 18048,
            "time": 28.2,
            "velocity": 0.3937007874015748
          },
          {
            "duration": 0.14999999999999858,
            "durationTicks": 96,
            "midi": 49,
            "name": "C#3",
            "ticks": 18048,
            "time": 28.2,
            "velocity": 0.3937007874015748
          },
          {
            "duration": 0.14999999999999858,
            "durationTicks": 96,
            "midi": 38,
            "name": "D2",
            "ticks": 18048,
            "time": 28.2,
            "velocity": 0.3937007874015748
          },
          {
            "duration": 0.15000000000000213,
            "durationTicks": 96,
            "midi": 38,
            "name": "D2",
            "ticks": 18144,
            "time": 28.349999999999998,
            "velocity": 0.3937007874015748
          },
          {
            "duration": 0.15000000000000213,
            "durationTicks": 96,
            "midi": 35,
            "name": "B1",
            "ticks": 18144,
            "time": 28.349999999999998,
            "velocity": 0.3937007874015748
          },
          {
            "duration": 0.14999999999999858,
            "durationTicks": 96,
            "midi": 49,
            "name": "C#3",
            "ticks": 18240,
            "time": 28.5,
            "velocity": 0.3937007874015748
          },
          {
            "duration": 0.14999999999999858,
            "durationTicks": 96,
            "midi": 35,
            "name": "B1",
            "ticks": 18240,
            "time": 28.5,
            "velocity": 0.3937007874015748
          },
          {
            "duration": 0.14999999999999858,
            "durationTicks": 96,
            "midi": 38,
            "name": "D2",
            "ticks": 18240,
            "time": 28.5,
            "velocity": 0.3937007874015748
          },
          {
            "duration": 0.14999999999999858,
            "durationTicks": 96,
            "midi": 35,
            "name": "B1",
            "ticks": 18336,
            "time": 28.65,
            "velocity": 0.3937007874015748
          },
          {
            "duration": 0.14999999999999858,
            "durationTicks": 96,
            "midi": 38,
            "name": "D2",
            "ticks": 18336,
            "time": 28.65,
            "velocity": 0.3937007874015748
          },
          {
            "duration": 0.15000000000000213,
            "durationTicks": 96,
            "midi": 35,
            "name": "B1",
            "ticks": 18432,
            "time": 28.799999999999997,
            "velocity": 0.3937007874015748
          },
          {
            "duration": 0.15000000000000213,
            "durationTicks": 96,
            "midi": 49,
            "name": "C#3",
            "ticks": 18432,
            "time": 28.799999999999997,
            "velocity": 0.3937007874015748
          },
          {
            "duration": 0.15000000000000213,
            "durationTicks": 96,
            "midi": 38,
            "name": "D2",
            "ticks": 18432,
            "time": 28.799999999999997,
            "velocity": 0.3937007874015748
          },
          {
            "duration": 0.15000000000000213,
            "durationTicks": 96,
            "midi": 49,
            "name": "C#3",
            "ticks": 18624,
            "time": 29.099999999999998,
            "velocity": 0.3937007874015748
          },
          {
            "duration": 0.15000000000000213,
            "durationTicks": 96,
            "midi": 40,
            "name": "E2",
            "ticks": 18624,
            "time": 29.099999999999998,
            "velocity": 0.3937007874015748
          },
          {
            "duration": 0.15000000000000213,
            "durationTicks": 96,
            "midi": 38,
            "name": "D2",
            "ticks": 18624,
            "time": 29.099999999999998,
            "velocity": 0.3937007874015748
          },
          {
            "duration": 0.14999999999999858,
            "durationTicks": 96,
            "midi": 38,
            "name": "D2",
            "ticks": 18816,
            "time": 29.4,
            "velocity": 0.3937007874015748
          },
          {
            "duration": 0.14999999999999858,
            "durationTicks": 96,
            "midi": 49,
            "name": "C#3",
            "ticks": 18816,
            "time": 29.4,
            "velocity": 0.3937007874015748
          },
          {
            "duration": 0.14999999999999858,
            "durationTicks": 96,
            "midi": 35,
            "name": "B1",
            "ticks": 18816,
            "time": 29.4,
            "velocity": 0.3937007874015748
          },
          {
            "duration": 0.15000000000000213,
            "durationTicks": 96,
            "midi": 38,
            "name": "D2",
            "ticks": 18912,
            "time": 29.549999999999997,
            "velocity": 0.3937007874015748
          },
          {
            "duration": 0.15000000000000213,
            "durationTicks": 96,
            "midi": 35,
            "name": "B1",
            "ticks": 18912,
            "time": 29.549999999999997,
            "velocity": 0.3937007874015748
          },
          {
            "duration": 0.14999999999999858,
            "durationTicks": 96,
            "midi": 38,
            "name": "D2",
            "ticks": 19008,
            "time": 29.7,
            "velocity": 0.3937007874015748
          },
          {
            "duration": 0.14999999999999858,
            "durationTicks": 96,
            "midi": 40,
            "name": "E2",
            "ticks": 19008,
            "time": 29.7,
            "velocity": 0.3937007874015748
          },
          {
            "duration": 0.14999999999999858,
            "durationTicks": 96,
            "midi": 49,
            "name": "C#3",
            "ticks": 19008,
            "time": 29.7,
            "velocity": 0.3937007874015748
          },
          {
            "duration": 0.14999999999999858,
            "durationTicks": 96,
            "midi": 38,
            "name": "D2",
            "ticks": 19200,
            "time": 30,
            "velocity": 0.3937007874015748
          },
          {
            "duration": 0.14999999999999858,
            "durationTicks": 96,
            "midi": 35,
            "name": "B1",
            "ticks": 19200,
            "time": 30,
            "velocity": 0.3937007874015748
          },
          {
            "duration": 0.14999999999999858,
            "durationTicks": 96,
            "midi": 49,
            "name": "C#3",
            "ticks": 19200,
            "time": 30,
            "velocity": 0.3937007874015748
          },
          {
            "duration": 0.15000000000000213,
            "durationTicks": 96,
            "midi": 49,
            "name": "C#3",
            "ticks": 19392,
            "time": 30.299999999999997,
            "velocity": 0.3937007874015748
          },
          {
            "duration": 0.15000000000000213,
            "durationTicks": 96,
            "midi": 40,
            "name": "E2",
            "ticks": 19392,
            "time": 30.299999999999997,
            "velocity": 0.3937007874015748
          },
          {
            "duration": 0.15000000000000213,
            "durationTicks": 96,
            "midi": 38,
            "name": "D2",
            "ticks": 19392,
            "time": 30.299999999999997,
            "velocity": 0.3937007874015748
          },
          {
            "duration": 0.15000000000000213,
            "durationTicks": 96,
            "midi": 35,
            "name": "B1",
            "ticks": 19584,
            "time": 30.599999999999998,
            "velocity": 0.3937007874015748
          },
          {
            "duration": 0.15000000000000213,
            "durationTicks": 96,
            "midi": 38,
            "name": "D2",
            "ticks": 19584,
            "time": 30.599999999999998,
            "velocity": 0.3937007874015748
          },
          {
            "duration": 0.15000000000000213,
            "durationTicks": 96,
            "midi": 49,
            "name": "C#3",
            "ticks": 19584,
            "time": 30.599999999999998,
            "velocity": 0.3937007874015748
          },
          {
            "duration": 0.14999999999999858,
            "durationTicks": 96,
            "midi": 35,
            "name": "B1",
            "ticks": 19680,
            "time": 30.75,
            "velocity": 0.3937007874015748
          },
          {
            "duration": 0.14999999999999858,
            "durationTicks": 96,
            "midi": 38,
            "name": "D2",
            "ticks": 19680,
            "time": 30.75,
            "velocity": 0.3937007874015748
          },
          {
            "duration": 0.14999999999999858,
            "durationTicks": 96,
            "midi": 40,
            "name": "E2",
            "ticks": 19776,
            "time": 30.9,
            "velocity": 0.3937007874015748
          },
          {
            "duration": 0.14999999999999858,
            "durationTicks": 96,
            "midi": 49,
            "name": "C#3",
            "ticks": 19776,
            "time": 30.9,
            "velocity": 0.3937007874015748
          },
          {
            "duration": 0.14999999999999858,
            "durationTicks": 96,
            "midi": 38,
            "name": "D2",
            "ticks": 19776,
            "time": 30.9,
            "velocity": 0.3937007874015748
          },
          {
            "duration": 0.14999999999999858,
            "durationTicks": 96,
            "midi": 49,
            "name": "C#3",
            "ticks": 19968,
            "time": 31.2,
            "velocity": 0.3937007874015748
          },
          {
            "duration": 0.14999999999999858,
            "durationTicks": 96,
            "midi": 38,
            "name": "D2",
            "ticks": 19968,
            "time": 31.2,
            "velocity": 0.3937007874015748
          },
          {
            "duration": 0.14999999999999858,
            "durationTicks": 96,
            "midi": 35,
            "name": "B1",
            "ticks": 19968,
            "time": 31.2,
            "velocity": 0.3937007874015748
          },
          {
            "duration": 0.14999999999999858,
            "durationTicks": 96,
            "midi": 40,
            "name": "E2",
            "ticks": 20160,
            "time": 31.5,
            "velocity": 0.3937007874015748
          },
          {
            "duration": 0.14999999999999858,
            "durationTicks": 96,
            "midi": 49,
            "name": "C#3",
            "ticks": 20160,
            "time": 31.5,
            "velocity": 0.3937007874015748
          },
          {
            "duration": 0.14999999999999858,
            "durationTicks": 96,
            "midi": 38,
            "name": "D2",
            "ticks": 20160,
            "time": 31.5,
            "velocity": 0.3937007874015748
          },
          {
            "duration": 0.15000000000000213,
            "durationTicks": 96,
            "midi": 35,
            "name": "B1",
            "ticks": 20352,
            "time": 31.799999999999997,
            "velocity": 0.3937007874015748
          },
          {
            "duration": 0.15000000000000213,
            "durationTicks": 96,
            "midi": 38,
            "name": "D2",
            "ticks": 20352,
            "time": 31.799999999999997,
            "velocity": 0.3937007874015748
          },
          {
            "duration": 0.15000000000000213,
            "durationTicks": 96,
            "midi": 49,
            "name": "C#3",
            "ticks": 20352,
            "time": 31.799999999999997,
            "velocity": 0.3937007874015748
          },
          {
            "duration": 0.15000000000000213,
            "durationTicks": 96,
            "midi": 38,
            "name": "D2",
            "ticks": 20448,
            "time": 31.95,
            "velocity": 0.3937007874015748
          },
          {
            "duration": 0.15000000000000213,
            "durationTicks": 96,
            "midi": 35,
            "name": "B1",
            "ticks": 20448,
            "time": 31.95,
            "velocity": 0.3937007874015748
          },
          {
            "duration": 0.14999999999999858,
            "durationTicks": 96,
            "midi": 49,
            "name": "C#3",
            "ticks": 20544,
            "time": 32.1,
            "velocity": 0.3937007874015748
          },
          {
            "duration": 0.14999999999999858,
            "durationTicks": 96,
            "midi": 40,
            "name": "E2",
            "ticks": 20544,
            "time": 32.1,
            "velocity": 0.3937007874015748
          },
          {
            "duration": 0.14999999999999858,
            "durationTicks": 96,
            "midi": 38,
            "name": "D2",
            "ticks": 20544,
            "time": 32.1,
            "velocity": 0.3937007874015748
          },
          {
            "duration": 0.14999999999999858,
            "durationTicks": 96,
            "midi": 35,
            "name": "B1",
            "ticks": 20736,
            "time": 32.4,
            "velocity": 0.3937007874015748
          },
          {
            "duration": 0.14999999999999858,
            "durationTicks": 96,
            "midi": 49,
            "name": "C#3",
            "ticks": 20736,
            "time": 32.4,
            "velocity": 0.3937007874015748
          },
          {
            "duration": 0.14999999999999858,
            "durationTicks": 96,
            "midi": 38,
            "name": "D2",
            "ticks": 20736,
            "time": 32.4,
            "velocity": 0.3937007874015748
          },
          {
            "duration": 0.15000000000000568,
            "durationTicks": 96,
            "midi": 40,
            "name": "E2",
            "ticks": 20928,
            "time": 32.699999999999996,
            "velocity": 0.3937007874015748
          },
          {
            "duration": 0.15000000000000568,
            "durationTicks": 96,
            "midi": 38,
            "name": "D2",
            "ticks": 20928,
            "time": 32.699999999999996,
            "velocity": 0.3937007874015748
          },
          {
            "duration": 0.15000000000000568,
            "durationTicks": 96,
            "midi": 49,
            "name": "C#3",
            "ticks": 20928,
            "time": 32.699999999999996,
            "velocity": 0.3937007874015748
          },
          {
            "duration": 0.14999999999999858,
            "durationTicks": 96,
            "midi": 49,
            "name": "C#3",
            "ticks": 21120,
            "time": 33,
            "velocity": 0.3937007874015748
          },
          {
            "duration": 0.14999999999999858,
            "durationTicks": 96,
            "midi": 35,
            "name": "B1",
            "ticks": 21120,
            "time": 33,
            "velocity": 0.3937007874015748
          },
          {
            "duration": 0.14999999999999858,
            "durationTicks": 96,
            "midi": 38,
            "name": "D2",
            "ticks": 21120,
            "time": 33,
            "velocity": 0.3937007874015748
          },
          {
            "duration": 0.14999999999999858,
            "durationTicks": 96,
            "midi": 35,
            "name": "B1",
            "ticks": 21216,
            "time": 33.15,
            "velocity": 0.3937007874015748
          },
          {
            "duration": 0.14999999999999858,
            "durationTicks": 96,
            "midi": 38,
            "name": "D2",
            "ticks": 21216,
            "time": 33.15,
            "velocity": 0.3937007874015748
          },
          {
            "duration": 0.14999999999999858,
            "durationTicks": 96,
            "midi": 38,
            "name": "D2",
            "ticks": 21312,
            "time": 33.3,
            "velocity": 0.3937007874015748
          },
          {
            "duration": 0.14999999999999858,
            "durationTicks": 96,
            "midi": 49,
            "name": "C#3",
            "ticks": 21312,
            "time": 33.3,
            "velocity": 0.3937007874015748
          },
          {
            "duration": 0.14999999999999858,
            "durationTicks": 96,
            "midi": 40,
            "name": "E2",
            "ticks": 21312,
            "time": 33.3,
            "velocity": 0.3937007874015748
          },
          {
            "duration": 0.14999999999999858,
            "durationTicks": 96,
            "midi": 38,
            "name": "D2",
            "ticks": 21504,
            "time": 33.6,
            "velocity": 0.3937007874015748
          },
          {
            "duration": 0.14999999999999858,
            "durationTicks": 96,
            "midi": 49,
            "name": "C#3",
            "ticks": 21504,
            "time": 33.6,
            "velocity": 0.3937007874015748
          },
          {
            "duration": 0.14999999999999858,
            "durationTicks": 96,
            "midi": 35,
            "name": "B1",
            "ticks": 21504,
            "time": 33.6,
            "velocity": 0.3937007874015748
          },
          {
            "duration": 0.14999999999999858,
            "durationTicks": 96,
            "midi": 38,
            "name": "D2",
            "ticks": 21696,
            "time": 33.9,
            "velocity": 0.3937007874015748
          },
          {
            "duration": 0.14999999999999858,
            "durationTicks": 96,
            "midi": 49,
            "name": "C#3",
            "ticks": 21696,
            "time": 33.9,
            "velocity": 0.3937007874015748
          },
          {
            "duration": 0.14999999999999858,
            "durationTicks": 96,
            "midi": 40,
            "name": "E2",
            "ticks": 21696,
            "time": 33.9,
            "velocity": 0.3937007874015748
          },
          {
            "duration": 0.15000000000000568,
            "durationTicks": 96,
            "midi": 38,
            "name": "D2",
            "ticks": 21888,
            "time": 34.199999999999996,
            "velocity": 0.3937007874015748
          },
          {
            "duration": 0.15000000000000568,
            "durationTicks": 96,
            "midi": 49,
            "name": "C#3",
            "ticks": 21888,
            "time": 34.199999999999996,
            "velocity": 0.3937007874015748
          },
          {
            "duration": 0.15000000000000568,
            "durationTicks": 96,
            "midi": 35,
            "name": "B1",
            "ticks": 21888,
            "time": 34.199999999999996,
            "velocity": 0.3937007874015748
          },
          {
            "duration": 0.14999999999999858,
            "durationTicks": 96,
            "midi": 35,
            "name": "B1",
            "ticks": 21984,
            "time": 34.35,
            "velocity": 0.3937007874015748
          },
          {
            "duration": 0.14999999999999858,
            "durationTicks": 96,
            "midi": 38,
            "name": "D2",
            "ticks": 21984,
            "time": 34.35,
            "velocity": 0.3937007874015748
          },
          {
            "duration": 0.14999999999999858,
            "durationTicks": 96,
            "midi": 49,
            "name": "C#3",
            "ticks": 22080,
            "time": 34.5,
            "velocity": 0.3937007874015748
          },
          {
            "duration": 0.14999999999999858,
            "durationTicks": 96,
            "midi": 38,
            "name": "D2",
            "ticks": 22080,
            "time": 34.5,
            "velocity": 0.3937007874015748
          },
          {
            "duration": 0.14999999999999858,
            "durationTicks": 96,
            "midi": 40,
            "name": "E2",
            "ticks": 22080,
            "time": 34.5,
            "velocity": 0.3937007874015748
          },
          {
            "duration": 0.14999999999999858,
            "durationTicks": 96,
            "midi": 49,
            "name": "C#3",
            "ticks": 22272,
            "time": 34.8,
            "velocity": 0.3937007874015748
          },
          {
            "duration": 0.14999999999999858,
            "durationTicks": 96,
            "midi": 35,
            "name": "B1",
            "ticks": 22272,
            "time": 34.8,
            "velocity": 0.3937007874015748
          },
          {
            "duration": 0.14999999999999858,
            "durationTicks": 96,
            "midi": 38,
            "name": "D2",
            "ticks": 22272,
            "time": 34.8,
            "velocity": 0.3937007874015748
          },
          {
            "duration": 0.14999999999999858,
            "durationTicks": 96,
            "midi": 40,
            "name": "E2",
            "ticks": 22464,
            "time": 35.1,
            "velocity": 0.3937007874015748
          },
          {
            "duration": 0.14999999999999858,
            "durationTicks": 96,
            "midi": 38,
            "name": "D2",
            "ticks": 22464,
            "time": 35.1,
            "velocity": 0.3937007874015748
          },
          {
            "duration": 0.14999999999999858,
            "durationTicks": 96,
            "midi": 49,
            "name": "C#3",
            "ticks": 22464,
            "time": 35.1,
            "velocity": 0.3937007874015748
          },
          {
            "duration": 0.14999999999999858,
            "durationTicks": 96,
            "midi": 49,
            "name": "C#3",
            "ticks": 22656,
            "time": 35.4,
            "velocity": 0.3937007874015748
          },
          {
            "duration": 0.14999999999999858,
            "durationTicks": 96,
            "midi": 35,
            "name": "B1",
            "ticks": 22656,
            "time": 35.4,
            "velocity": 0.3937007874015748
          },
          {
            "duration": 0.14999999999999858,
            "durationTicks": 96,
            "midi": 38,
            "name": "D2",
            "ticks": 22656,
            "time": 35.4,
            "velocity": 0.3937007874015748
          },
          {
            "duration": 0.14999999999999858,
            "durationTicks": 96,
            "midi": 35,
            "name": "B1",
            "ticks": 22752,
            "time": 35.55,
            "velocity": 0.3937007874015748
          },
          {
            "duration": 0.14999999999999858,
            "durationTicks": 96,
            "midi": 38,
            "name": "D2",
            "ticks": 22752,
            "time": 35.55,
            "velocity": 0.3937007874015748
          },
          {
            "duration": 0.15000000000000568,
            "durationTicks": 96,
            "midi": 49,
            "name": "C#3",
            "ticks": 22848,
            "time": 35.699999999999996,
            "velocity": 0.3937007874015748
          },
          {
            "duration": 0.15000000000000568,
            "durationTicks": 96,
            "midi": 40,
            "name": "E2",
            "ticks": 22848,
            "time": 35.699999999999996,
            "velocity": 0.3937007874015748
          },
          {
            "duration": 0.15000000000000568,
            "durationTicks": 96,
            "midi": 38,
            "name": "D2",
            "ticks": 22848,
            "time": 35.699999999999996,
            "velocity": 0.3937007874015748
          },
          {
            "duration": 0.14999999999999858,
            "durationTicks": 96,
            "midi": 38,
            "name": "D2",
            "ticks": 23040,
            "time": 36,
            "velocity": 0.3937007874015748
          },
          {
            "duration": 0.14999999999999858,
            "durationTicks": 96,
            "midi": 49,
            "name": "C#3",
            "ticks": 23040,
            "time": 36,
            "velocity": 0.3937007874015748
          },
          {
            "duration": 0.14999999999999858,
            "durationTicks": 96,
            "midi": 35,
            "name": "B1",
            "ticks": 23040,
            "time": 36,
            "velocity": 0.3937007874015748
          },
          {
            "duration": 0.14999999999999858,
            "durationTicks": 96,
            "midi": 40,
            "name": "E2",
            "ticks": 23232,
            "time": 36.3,
            "velocity": 0.3937007874015748
          },
          {
            "duration": 0.14999999999999858,
            "durationTicks": 96,
            "midi": 38,
            "name": "D2",
            "ticks": 23232,
            "time": 36.3,
            "velocity": 0.3937007874015748
          },
          {
            "duration": 0.14999999999999858,
            "durationTicks": 96,
            "midi": 49,
            "name": "C#3",
            "ticks": 23232,
            "time": 36.3,
            "velocity": 0.3937007874015748
          },
          {
            "duration": 0.14999999999999858,
            "durationTicks": 96,
            "midi": 35,
            "name": "B1",
            "ticks": 23424,
            "time": 36.6,
            "velocity": 0.3937007874015748
          },
          {
            "duration": 0.14999999999999858,
            "durationTicks": 96,
            "midi": 49,
            "name": "C#3",
            "ticks": 23424,
            "time": 36.6,
            "velocity": 0.3937007874015748
          },
          {
            "duration": 0.14999999999999858,
            "durationTicks": 96,
            "midi": 38,
            "name": "D2",
            "ticks": 23424,
            "time": 36.6,
            "velocity": 0.3937007874015748
          },
          {
            "duration": 0.14999999999999858,
            "durationTicks": 96,
            "midi": 38,
            "name": "D2",
            "ticks": 23520,
            "time": 36.75,
            "velocity": 0.3937007874015748
          },
          {
            "duration": 0.14999999999999858,
            "durationTicks": 96,
            "midi": 35,
            "name": "B1",
            "ticks": 23520,
            "time": 36.75,
            "velocity": 0.3937007874015748
          },
          {
            "duration": 0.14999999999999858,
            "durationTicks": 96,
            "midi": 49,
            "name": "C#3",
            "ticks": 23616,
            "time": 36.9,
            "velocity": 0.3937007874015748
          },
          {
            "duration": 0.14999999999999858,
            "durationTicks": 96,
            "midi": 38,
            "name": "D2",
            "ticks": 23616,
            "time": 36.9,
            "velocity": 0.3937007874015748
          },
          {
            "duration": 0.14999999999999858,
            "durationTicks": 96,
            "midi": 40,
            "name": "E2",
            "ticks": 23616,
            "time": 36.9,
            "velocity": 0.3937007874015748
          },
          {
            "duration": 0.15000000000000568,
            "durationTicks": 96,
            "midi": 35,
            "name": "B1",
            "ticks": 23808,
            "time": 37.199999999999996,
            "velocity": 0.3937007874015748
          },
          {
            "duration": 0.15000000000000568,
            "durationTicks": 96,
            "midi": 38,
            "name": "D2",
            "ticks": 23808,
            "time": 37.199999999999996,
            "velocity": 0.3937007874015748
          },
          {
            "duration": 0.15000000000000568,
            "durationTicks": 96,
            "midi": 49,
            "name": "C#3",
            "ticks": 23808,
            "time": 37.199999999999996,
            "velocity": 0.3937007874015748
          },
          {
            "duration": 0.14999999999999858,
            "durationTicks": 96,
            "midi": 38,
            "name": "D2",
            "ticks": 23904,
            "time": 37.35,
            "velocity": 0.3937007874015748
          },
          {
            "duration": 0.14999999999999858,
            "durationTicks": 96,
            "midi": 35,
            "name": "B1",
            "ticks": 23904,
            "time": 37.35,
            "velocity": 0.3937007874015748
          },
          {
            "duration": 0.14999999999999858,
            "durationTicks": 96,
            "midi": 49,
            "name": "C#3",
            "ticks": 24000,
            "time": 37.5,
            "velocity": 0.3937007874015748
          },
          {
            "duration": 0.14999999999999858,
            "durationTicks": 96,
            "midi": 38,
            "name": "D2",
            "ticks": 24000,
            "time": 37.5,
            "velocity": 0.3937007874015748
          },
          {
            "duration": 0.14999999999999858,
            "durationTicks": 96,
            "midi": 35,
            "name": "B1",
            "ticks": 24000,
            "time": 37.5,
            "velocity": 0.3937007874015748
          },
          {
            "duration": 0.14999999999999858,
            "durationTicks": 96,
            "midi": 35,
            "name": "B1",
            "ticks": 24096,
            "time": 37.65,
            "velocity": 0.3937007874015748
          },
          {
            "duration": 0.14999999999999858,
            "durationTicks": 96,
            "midi": 38,
            "name": "D2",
            "ticks": 24096,
            "time": 37.65,
            "velocity": 0.3937007874015748
          },
          {
            "duration": 0.14999999999999858,
            "durationTicks": 96,
            "midi": 38,
            "name": "D2",
            "ticks": 24192,
            "time": 37.8,
            "velocity": 0.3937007874015748
          },
          {
            "duration": 0.14999999999999858,
            "durationTicks": 96,
            "midi": 35,
            "name": "B1",
            "ticks": 24192,
            "time": 37.8,
            "velocity": 0.3937007874015748
          },
          {
            "duration": 0.14999999999999858,
            "durationTicks": 96,
            "midi": 49,
            "name": "C#3",
            "ticks": 24192,
            "time": 37.8,
            "velocity": 0.3937007874015748
          },
          {
            "duration": 0.15000000000000568,
            "durationTicks": 96,
            "midi": 35,
            "name": "B1",
            "ticks": 24288,
            "time": 37.949999999999996,
            "velocity": 0.3937007874015748
          },
          {
            "duration": 0.15000000000000568,
            "durationTicks": 96,
            "midi": 38,
            "name": "D2",
            "ticks": 24288,
            "time": 37.949999999999996,
            "velocity": 0.3937007874015748
          },
          {
            "duration": 0.14999999999999858,
            "durationTicks": 96,
            "midi": 35,
            "name": "B1",
            "ticks": 24384,
            "time": 38.1,
            "velocity": 0.3937007874015748
          },
          {
            "duration": 0.14999999999999858,
            "durationTicks": 96,
            "midi": 38,
            "name": "D2",
            "ticks": 24384,
            "time": 38.1,
            "velocity": 0.3937007874015748
          },
          {
            "duration": 0.14999999999999858,
            "durationTicks": 96,
            "midi": 49,
            "name": "C#3",
            "ticks": 24384,
            "time": 38.1,
            "velocity": 0.3937007874015748
          },
          {
            "duration": 0.14999999999999858,
            "durationTicks": 96,
            "midi": 35,
            "name": "B1",
            "ticks": 24480,
            "time": 38.25,
            "velocity": 0.3937007874015748
          },
          {
            "duration": 0.14999999999999858,
            "durationTicks": 96,
            "midi": 38,
            "name": "D2",
            "ticks": 24480,
            "time": 38.25,
            "velocity": 0.3937007874015748
          },
          {
            "duration": 0.14999999999999858,
            "durationTicks": 96,
            "midi": 38,
            "name": "D2",
            "ticks": 24576,
            "time": 38.4,
            "velocity": 0.3937007874015748
          },
          {
            "duration": 0.14999999999999858,
            "durationTicks": 96,
            "midi": 35,
            "name": "B1",
            "ticks": 24576,
            "time": 38.4,
            "velocity": 0.3937007874015748
          },
          {
            "duration": 0.14999999999999858,
            "durationTicks": 96,
            "midi": 49,
            "name": "C#3",
            "ticks": 24576,
            "time": 38.4,
            "velocity": 0.3937007874015748
          },
          {
            "duration": 0.15000000000000568,
            "durationTicks": 96,
            "midi": 53,
            "name": "F3",
            "ticks": 24768,
            "time": 38.699999999999996,
            "velocity": 0.3937007874015748
          },
          {
            "duration": 0.15000000000000568,
            "durationTicks": 96,
            "midi": 40,
            "name": "E2",
            "ticks": 24768,
            "time": 38.699999999999996,
            "velocity": 0.3937007874015748
          },
          {
            "duration": 0.15000000000000568,
            "durationTicks": 96,
            "midi": 38,
            "name": "D2",
            "ticks": 24768,
            "time": 38.699999999999996,
            "velocity": 0.3937007874015748
          },
          {
            "duration": 0.14999999999999858,
            "durationTicks": 96,
            "midi": 53,
            "name": "F3",
            "ticks": 24960,
            "time": 39,
            "velocity": 0.3937007874015748
          },
          {
            "duration": 0.14999999999999858,
            "durationTicks": 96,
            "midi": 38,
            "name": "D2",
            "ticks": 24960,
            "time": 39,
            "velocity": 0.3937007874015748
          },
          {
            "duration": 0.14999999999999858,
            "durationTicks": 96,
            "midi": 35,
            "name": "B1",
            "ticks": 24960,
            "time": 39,
            "velocity": 0.3937007874015748
          },
          {
            "duration": 0.14999999999999858,
            "durationTicks": 96,
            "midi": 35,
            "name": "B1",
            "ticks": 25056,
            "time": 39.15,
            "velocity": 0.3937007874015748
          },
          {
            "duration": 0.14999999999999858,
            "durationTicks": 96,
            "midi": 38,
            "name": "D2",
            "ticks": 25056,
            "time": 39.15,
            "velocity": 0.3937007874015748
          },
          {
            "duration": 0.14999999999999858,
            "durationTicks": 96,
            "midi": 40,
            "name": "E2",
            "ticks": 25152,
            "time": 39.3,
            "velocity": 0.3937007874015748
          },
          {
            "duration": 0.14999999999999858,
            "durationTicks": 96,
            "midi": 53,
            "name": "F3",
            "ticks": 25152,
            "time": 39.3,
            "velocity": 0.3937007874015748
          },
          {
            "duration": 0.14999999999999858,
            "durationTicks": 96,
            "midi": 38,
            "name": "D2",
            "ticks": 25152,
            "time": 39.3,
            "velocity": 0.3937007874015748
          },
          {
            "duration": 0.14999999999999858,
            "durationTicks": 96,
            "midi": 38,
            "name": "D2",
            "ticks": 25344,
            "time": 39.6,
            "velocity": 0.3937007874015748
          },
          {
            "duration": 0.14999999999999858,
            "durationTicks": 96,
            "midi": 53,
            "name": "F3",
            "ticks": 25344,
            "time": 39.6,
            "velocity": 0.3937007874015748
          },
          {
            "duration": 0.14999999999999858,
            "durationTicks": 96,
            "midi": 35,
            "name": "B1",
            "ticks": 25344,
            "time": 39.6,
            "velocity": 0.3937007874015748
          },
          {
            "duration": 0.14999999999999858,
            "durationTicks": 96,
            "midi": 53,
            "name": "F3",
            "ticks": 25536,
            "time": 39.9,
            "velocity": 0.3937007874015748
          },
          {
            "duration": 0.14999999999999858,
            "durationTicks": 96,
            "midi": 38,
            "name": "D2",
            "ticks": 25536,
            "time": 39.9,
            "velocity": 0.3937007874015748
          },
          {
            "duration": 0.14999999999999858,
            "durationTicks": 96,
            "midi": 40,
            "name": "E2",
            "ticks": 25536,
            "time": 39.9,
            "velocity": 0.3937007874015748
          },
          {
            "duration": 0.15000000000000568,
            "durationTicks": 96,
            "midi": 38,
            "name": "D2",
            "ticks": 25728,
            "time": 40.199999999999996,
            "velocity": 0.3937007874015748
          },
          {
            "duration": 0.15000000000000568,
            "durationTicks": 96,
            "midi": 35,
            "name": "B1",
            "ticks": 25728,
            "time": 40.199999999999996,
            "velocity": 0.3937007874015748
          },
          {
            "duration": 0.15000000000000568,
            "durationTicks": 96,
            "midi": 53,
            "name": "F3",
            "ticks": 25728,
            "time": 40.199999999999996,
            "velocity": 0.3937007874015748
          },
          {
            "duration": 0.14999999999999858,
            "durationTicks": 96,
            "midi": 35,
            "name": "B1",
            "ticks": 25824,
            "time": 40.35,
            "velocity": 0.3937007874015748
          },
          {
            "duration": 0.14999999999999858,
            "durationTicks": 96,
            "midi": 38,
            "name": "D2",
            "ticks": 25824,
            "time": 40.35,
            "velocity": 0.3937007874015748
          },
          {
            "duration": 0.14999999999999858,
            "durationTicks": 96,
            "midi": 40,
            "name": "E2",
            "ticks": 25920,
            "time": 40.5,
            "velocity": 0.3937007874015748
          },
          {
            "duration": 0.14999999999999858,
            "durationTicks": 96,
            "midi": 53,
            "name": "F3",
            "ticks": 25920,
            "time": 40.5,
            "velocity": 0.3937007874015748
          },
          {
            "duration": 0.14999999999999858,
            "durationTicks": 96,
            "midi": 38,
            "name": "D2",
            "ticks": 25920,
            "time": 40.5,
            "velocity": 0.3937007874015748
          },
          {
            "duration": 0.14999999999999858,
            "durationTicks": 96,
            "midi": 35,
            "name": "B1",
            "ticks": 26112,
            "time": 40.8,
            "velocity": 0.3937007874015748
          },
          {
            "duration": 0.14999999999999858,
            "durationTicks": 96,
            "midi": 49,
            "name": "C#3",
            "ticks": 26112,
            "time": 40.8,
            "velocity": 0.3937007874015748
          },
          {
            "duration": 0.14999999999999858,
            "durationTicks": 96,
            "midi": 53,
            "name": "F3",
            "ticks": 26112,
            "time": 40.8,
            "velocity": 0.3937007874015748
          },
          {
            "duration": 0.14999999999999858,
            "durationTicks": 96,
            "midi": 38,
            "name": "D2",
            "ticks": 26112,
            "time": 40.8,
            "velocity": 0.3937007874015748
          },
          {
            "duration": 0.14999999999999858,
            "durationTicks": 96,
            "midi": 38,
            "name": "D2",
            "ticks": 26304,
            "time": 41.1,
            "velocity": 0.3937007874015748
          },
          {
            "duration": 0.14999999999999858,
            "durationTicks": 96,
            "midi": 40,
            "name": "E2",
            "ticks": 26304,
            "time": 41.1,
            "velocity": 0.3937007874015748
          },
          {
            "duration": 0.14999999999999858,
            "durationTicks": 96,
            "midi": 53,
            "name": "F3",
            "ticks": 26304,
            "time": 41.1,
            "velocity": 0.3937007874015748
          },
          {
            "duration": 0.14999999999999858,
            "durationTicks": 96,
            "midi": 35,
            "name": "B1",
            "ticks": 26496,
            "time": 41.4,
            "velocity": 0.3937007874015748
          },
          {
            "duration": 0.14999999999999858,
            "durationTicks": 96,
            "midi": 53,
            "name": "F3",
            "ticks": 26496,
            "time": 41.4,
            "velocity": 0.3937007874015748
          },
          {
            "duration": 0.14999999999999858,
            "durationTicks": 96,
            "midi": 38,
            "name": "D2",
            "ticks": 26496,
            "time": 41.4,
            "velocity": 0.3937007874015748
          },
          {
            "duration": 0.14999999999999858,
            "durationTicks": 96,
            "midi": 38,
            "name": "D2",
            "ticks": 26592,
            "time": 41.55,
            "velocity": 0.3937007874015748
          },
          {
            "duration": 0.14999999999999858,
            "durationTicks": 96,
            "midi": 35,
            "name": "B1",
            "ticks": 26592,
            "time": 41.55,
            "velocity": 0.3937007874015748
          },
          {
            "duration": 0.15000000000000568,
            "durationTicks": 96,
            "midi": 53,
            "name": "F3",
            "ticks": 26688,
            "time": 41.699999999999996,
            "velocity": 0.3937007874015748
          },
          {
            "duration": 0.15000000000000568,
            "durationTicks": 96,
            "midi": 38,
            "name": "D2",
            "ticks": 26688,
            "time": 41.699999999999996,
            "velocity": 0.3937007874015748
          },
          {
            "duration": 0.15000000000000568,
            "durationTicks": 96,
            "midi": 40,
            "name": "E2",
            "ticks": 26688,
            "time": 41.699999999999996,
            "velocity": 0.3937007874015748
          },
          {
            "duration": 0.14999999999999858,
            "durationTicks": 96,
            "midi": 38,
            "name": "D2",
            "ticks": 26880,
            "time": 42,
            "velocity": 0.3937007874015748
          },
          {
            "duration": 0.14999999999999858,
            "durationTicks": 96,
            "midi": 53,
            "name": "F3",
            "ticks": 26880,
            "time": 42,
            "velocity": 0.3937007874015748
          },
          {
            "duration": 0.14999999999999858,
            "durationTicks": 96,
            "midi": 35,
            "name": "B1",
            "ticks": 26880,
            "time": 42,
            "velocity": 0.3937007874015748
          },
          {
            "duration": 0.14999999999999858,
            "durationTicks": 96,
            "midi": 40,
            "name": "E2",
            "ticks": 27072,
            "time": 42.3,
            "velocity": 0.3937007874015748
          },
          {
            "duration": 0.14999999999999858,
            "durationTicks": 96,
            "midi": 38,
            "name": "D2",
            "ticks": 27072,
            "time": 42.3,
            "velocity": 0.3937007874015748
          },
          {
            "duration": 0.14999999999999858,
            "durationTicks": 96,
            "midi": 53,
            "name": "F3",
            "ticks": 27072,
            "time": 42.3,
            "velocity": 0.3937007874015748
          },
          {
            "duration": 0.14999999999999858,
            "durationTicks": 96,
            "midi": 35,
            "name": "B1",
            "ticks": 27264,
            "time": 42.6,
            "velocity": 0.3937007874015748
          },
          {
            "duration": 0.14999999999999858,
            "durationTicks": 96,
            "midi": 38,
            "name": "D2",
            "ticks": 27264,
            "time": 42.6,
            "velocity": 0.3937007874015748
          },
          {
            "duration": 0.14999999999999858,
            "durationTicks": 96,
            "midi": 53,
            "name": "F3",
            "ticks": 27264,
            "time": 42.6,
            "velocity": 0.3937007874015748
          },
          {
            "duration": 0.14999999999999858,
            "durationTicks": 96,
            "midi": 35,
            "name": "B1",
            "ticks": 27360,
            "time": 42.75,
            "velocity": 0.3937007874015748
          },
          {
            "duration": 0.14999999999999858,
            "durationTicks": 96,
            "midi": 38,
            "name": "D2",
            "ticks": 27360,
            "time": 42.75,
            "velocity": 0.3937007874015748
          },
          {
            "duration": 0.14999999999999858,
            "durationTicks": 96,
            "midi": 53,
            "name": "F3",
            "ticks": 27456,
            "time": 42.9,
            "velocity": 0.3937007874015748
          },
          {
            "duration": 0.14999999999999858,
            "durationTicks": 96,
            "midi": 38,
            "name": "D2",
            "ticks": 27456,
            "time": 42.9,
            "velocity": 0.3937007874015748
          },
          {
            "duration": 0.14999999999999858,
            "durationTicks": 96,
            "midi": 40,
            "name": "E2",
            "ticks": 27456,
            "time": 42.9,
            "velocity": 0.3937007874015748
          },
          {
            "duration": 0.15000000000000568,
            "durationTicks": 96,
            "midi": 35,
            "name": "B1",
            "ticks": 27648,
            "time": 43.199999999999996,
            "velocity": 0.3937007874015748
          },
          {
            "duration": 0.15000000000000568,
            "durationTicks": 96,
            "midi": 38,
            "name": "D2",
            "ticks": 27648,
            "time": 43.199999999999996,
            "velocity": 0.3937007874015748
          },
          {
            "duration": 0.15000000000000568,
            "durationTicks": 96,
            "midi": 53,
            "name": "F3",
            "ticks": 27648,
            "time": 43.199999999999996,
            "velocity": 0.3937007874015748
          },
          {
            "duration": 0.14999999999999858,
            "durationTicks": 96,
            "midi": 38,
            "name": "D2",
            "ticks": 27840,
            "time": 43.5,
            "velocity": 0.3937007874015748
          },
          {
            "duration": 0.14999999999999858,
            "durationTicks": 96,
            "midi": 53,
            "name": "F3",
            "ticks": 27840,
            "time": 43.5,
            "velocity": 0.3937007874015748
          },
          {
            "duration": 0.14999999999999858,
            "durationTicks": 96,
            "midi": 40,
            "name": "E2",
            "ticks": 27840,
            "time": 43.5,
            "velocity": 0.3937007874015748
          },
          {
            "duration": 0.14999999999999858,
            "durationTicks": 96,
            "midi": 35,
            "name": "B1",
            "ticks": 28032,
            "time": 43.8,
            "velocity": 0.3937007874015748
          },
          {
            "duration": 0.14999999999999858,
            "durationTicks": 96,
            "midi": 53,
            "name": "F3",
            "ticks": 28032,
            "time": 43.8,
            "velocity": 0.3937007874015748
          },
          {
            "duration": 0.14999999999999858,
            "durationTicks": 96,
            "midi": 38,
            "name": "D2",
            "ticks": 28032,
            "time": 43.8,
            "velocity": 0.3937007874015748
          },
          {
            "duration": 0.15000000000000568,
            "durationTicks": 96,
            "midi": 38,
            "name": "D2",
            "ticks": 28128,
            "time": 43.949999999999996,
            "velocity": 0.3937007874015748
          },
          {
            "duration": 0.15000000000000568,
            "durationTicks": 96,
            "midi": 35,
            "name": "B1",
            "ticks": 28128,
            "time": 43.949999999999996,
            "velocity": 0.3937007874015748
          },
          {
            "duration": 0.14999999999999858,
            "durationTicks": 96,
            "midi": 53,
            "name": "F3",
            "ticks": 28224,
            "time": 44.1,
            "velocity": 0.3937007874015748
          },
          {
            "duration": 0.14999999999999858,
            "durationTicks": 96,
            "midi": 38,
            "name": "D2",
            "ticks": 28224,
            "time": 44.1,
            "velocity": 0.3937007874015748
          },
          {
            "duration": 0.14999999999999858,
            "durationTicks": 96,
            "midi": 40,
            "name": "E2",
            "ticks": 28224,
            "time": 44.1,
            "velocity": 0.3937007874015748
          },
          {
            "duration": 0.14999999999999858,
            "durationTicks": 96,
            "midi": 38,
            "name": "D2",
            "ticks": 28416,
            "time": 44.4,
            "velocity": 0.3937007874015748
          },
          {
            "duration": 0.14999999999999858,
            "durationTicks": 96,
            "midi": 35,
            "name": "B1",
            "ticks": 28416,
            "time": 44.4,
            "velocity": 0.3937007874015748
          },
          {
            "duration": 0.14999999999999858,
            "durationTicks": 96,
            "midi": 53,
            "name": "F3",
            "ticks": 28416,
            "time": 44.4,
            "velocity": 0.3937007874015748
          },
          {
            "duration": 0.15000000000000568,
            "durationTicks": 96,
            "midi": 40,
            "name": "E2",
            "ticks": 28608,
            "time": 44.699999999999996,
            "velocity": 0.3937007874015748
          },
          {
            "duration": 0.15000000000000568,
            "durationTicks": 96,
            "midi": 53,
            "name": "F3",
            "ticks": 28608,
            "time": 44.699999999999996,
            "velocity": 0.3937007874015748
          },
          {
            "duration": 0.15000000000000568,
            "durationTicks": 96,
            "midi": 38,
            "name": "D2",
            "ticks": 28608,
            "time": 44.699999999999996,
            "velocity": 0.3937007874015748
          },
          {
            "duration": 0.14999999999999858,
            "durationTicks": 96,
            "midi": 35,
            "name": "B1",
            "ticks": 28800,
            "time": 45,
            "velocity": 0.3937007874015748
          },
          {
            "duration": 0.14999999999999858,
            "durationTicks": 96,
            "midi": 38,
            "name": "D2",
            "ticks": 28800,
            "time": 45,
            "velocity": 0.3937007874015748
          },
          {
            "duration": 0.14999999999999858,
            "durationTicks": 96,
            "midi": 53,
            "name": "F3",
            "ticks": 28800,
            "time": 45,
            "velocity": 0.3937007874015748
          },
          {
            "duration": 0.14999999999999858,
            "durationTicks": 96,
            "midi": 35,
            "name": "B1",
            "ticks": 28896,
            "time": 45.15,
            "velocity": 0.3937007874015748
          },
          {
            "duration": 0.14999999999999858,
            "durationTicks": 96,
            "midi": 38,
            "name": "D2",
            "ticks": 28896,
            "time": 45.15,
            "velocity": 0.3937007874015748
          },
          {
            "duration": 0.14999999999999858,
            "durationTicks": 96,
            "midi": 40,
            "name": "E2",
            "ticks": 28992,
            "time": 45.3,
            "velocity": 0.3937007874015748
          },
          {
            "duration": 0.14999999999999858,
            "durationTicks": 96,
            "midi": 38,
            "name": "D2",
            "ticks": 28992,
            "time": 45.3,
            "velocity": 0.3937007874015748
          },
          {
            "duration": 0.14999999999999858,
            "durationTicks": 96,
            "midi": 53,
            "name": "F3",
            "ticks": 28992,
            "time": 45.3,
            "velocity": 0.3937007874015748
          },
          {
            "duration": 0.14999999999999858,
            "durationTicks": 96,
            "midi": 38,
            "name": "D2",
            "ticks": 29184,
            "time": 45.6,
            "velocity": 0.3937007874015748
          },
          {
            "duration": 0.14999999999999858,
            "durationTicks": 96,
            "midi": 53,
            "name": "F3",
            "ticks": 29184,
            "time": 45.6,
            "velocity": 0.3937007874015748
          },
          {
            "duration": 0.14999999999999858,
            "durationTicks": 96,
            "midi": 35,
            "name": "B1",
            "ticks": 29184,
            "time": 45.6,
            "velocity": 0.3937007874015748
          },
          {
            "duration": 0.14999999999999858,
            "durationTicks": 96,
            "midi": 40,
            "name": "E2",
            "ticks": 29376,
            "time": 45.9,
            "velocity": 0.3937007874015748
          },
          {
            "duration": 0.14999999999999858,
            "durationTicks": 96,
            "midi": 53,
            "name": "F3",
            "ticks": 29376,
            "time": 45.9,
            "velocity": 0.3937007874015748
          },
          {
            "duration": 0.14999999999999858,
            "durationTicks": 96,
            "midi": 38,
            "name": "D2",
            "ticks": 29376,
            "time": 45.9,
            "velocity": 0.3937007874015748
          },
          {
            "duration": 0.15000000000000568,
            "durationTicks": 96,
            "midi": 35,
            "name": "B1",
            "ticks": 29568,
            "time": 46.199999999999996,
            "velocity": 0.3937007874015748
          },
          {
            "duration": 0.15000000000000568,
            "durationTicks": 96,
            "midi": 53,
            "name": "F3",
            "ticks": 29568,
            "time": 46.199999999999996,
            "velocity": 0.3937007874015748
          },
          {
            "duration": 0.15000000000000568,
            "durationTicks": 96,
            "midi": 38,
            "name": "D2",
            "ticks": 29568,
            "time": 46.199999999999996,
            "velocity": 0.3937007874015748
          },
          {
            "duration": 0.14999999999999858,
            "durationTicks": 96,
            "midi": 38,
            "name": "D2",
            "ticks": 29664,
            "time": 46.35,
            "velocity": 0.3937007874015748
          },
          {
            "duration": 0.14999999999999858,
            "durationTicks": 96,
            "midi": 35,
            "name": "B1",
            "ticks": 29664,
            "time": 46.35,
            "velocity": 0.3937007874015748
          },
          {
            "duration": 0.14999999999999858,
            "durationTicks": 96,
            "midi": 40,
            "name": "E2",
            "ticks": 29760,
            "time": 46.5,
            "velocity": 0.3937007874015748
          },
          {
            "duration": 0.14999999999999858,
            "durationTicks": 96,
            "midi": 53,
            "name": "F3",
            "ticks": 29760,
            "time": 46.5,
            "velocity": 0.3937007874015748
          },
          {
            "duration": 0.14999999999999858,
            "durationTicks": 96,
            "midi": 38,
            "name": "D2",
            "ticks": 29760,
            "time": 46.5,
            "velocity": 0.3937007874015748
          },
          {
            "duration": 0.03750000000000142,
            "durationTicks": 24,
            "midi": 38,
            "name": "D2",
            "ticks": 29952,
            "time": 46.8,
            "velocity": 0.3937007874015748
          },
          {
            "duration": 0.03750000000000142,
            "durationTicks": 24,
            "midi": 35,
            "name": "B1",
            "ticks": 29952,
            "time": 46.8,
            "velocity": 0.3937007874015748
          },
          {
            "duration": 0.14999999999999858,
            "durationTicks": 96,
            "midi": 50,
            "name": "D3",
            "ticks": 29952,
            "time": 46.8,
            "velocity": 0.3937007874015748
          },
          {
            "duration": 0.03750000000000142,
            "durationTicks": 24,
            "midi": 40,
            "name": "E2",
            "ticks": 29952,
            "time": 46.8,
            "velocity": 0.3937007874015748
          },
          {
            "duration": 0.14999999999999858,
            "durationTicks": 96,
            "midi": 53,
            "name": "F3",
            "ticks": 29952,
            "time": 46.8,
            "velocity": 0.3937007874015748
          },
          {
            "duration": 0.03750000000000142,
            "durationTicks": 24,
            "midi": 35,
            "name": "B1",
            "ticks": 30000,
            "time": 46.875,
            "velocity": 0.3937007874015748
          },
          {
            "duration": 0.03750000000000142,
            "durationTicks": 24,
            "midi": 38,
            "name": "D2",
            "ticks": 30000,
            "time": 46.875,
            "velocity": 0.3937007874015748
          },
          {
            "duration": 0.03750000000000142,
            "durationTicks": 24,
            "midi": 40,
            "name": "E2",
            "ticks": 30000,
            "time": 46.875,
            "velocity": 0.3937007874015748
          },
          {
            "duration": 0.03750000000000142,
            "durationTicks": 24,
            "midi": 35,
            "name": "B1",
            "ticks": 30048,
            "time": 46.949999999999996,
            "velocity": 0.3937007874015748
          },
          {
            "duration": 0.03750000000000142,
            "durationTicks": 24,
            "midi": 38,
            "name": "D2",
            "ticks": 30048,
            "time": 46.949999999999996,
            "velocity": 0.3937007874015748
          },
          {
            "duration": 0.15000000000000568,
            "durationTicks": 96,
            "midi": 53,
            "name": "F3",
            "ticks": 30048,
            "time": 46.949999999999996,
            "velocity": 0.3937007874015748
          },
          {
            "duration": 0.03750000000000142,
            "durationTicks": 24,
            "midi": 40,
            "name": "E2",
            "ticks": 30048,
            "time": 46.949999999999996,
            "velocity": 0.3937007874015748
          },
          {
            "duration": 0.037499999999994316,
            "durationTicks": 24,
            "midi": 35,
            "name": "B1",
            "ticks": 30144,
            "time": 47.1,
            "velocity": 0.3937007874015748
          },
          {
            "duration": 0.14999999999999858,
            "durationTicks": 96,
            "midi": 48,
            "name": "C3",
            "ticks": 30144,
            "time": 47.1,
            "velocity": 0.3937007874015748
          },
          {
            "duration": 0.14999999999999858,
            "durationTicks": 96,
            "midi": 53,
            "name": "F3",
            "ticks": 30144,
            "time": 47.1,
            "velocity": 0.3937007874015748
          },
          {
            "duration": 0.037499999999994316,
            "durationTicks": 24,
            "midi": 38,
            "name": "D2",
            "ticks": 30144,
            "time": 47.1,
            "velocity": 0.3937007874015748
          },
          {
            "duration": 0.037499999999994316,
            "durationTicks": 24,
            "midi": 40,
            "name": "E2",
            "ticks": 30144,
            "time": 47.1,
            "velocity": 0.3937007874015748
          },
          {
            "duration": 0.03750000000000142,
            "durationTicks": 24,
            "midi": 38,
            "name": "D2",
            "ticks": 30192,
            "time": 47.175,
            "velocity": 0.3937007874015748
          },
          {
            "duration": 0.03750000000000142,
            "durationTicks": 24,
            "midi": 40,
            "name": "E2",
            "ticks": 30192,
            "time": 47.175,
            "velocity": 0.3937007874015748
          },
          {
            "duration": 0.03750000000000142,
            "durationTicks": 24,
            "midi": 35,
            "name": "B1",
            "ticks": 30192,
            "time": 47.175,
            "velocity": 0.3937007874015748
          },
          {
            "duration": 0.03750000000000142,
            "durationTicks": 24,
            "midi": 35,
            "name": "B1",
            "ticks": 30240,
            "time": 47.25,
            "velocity": 0.3937007874015748
          },
          {
            "duration": 0.14999999999999858,
            "durationTicks": 96,
            "midi": 53,
            "name": "F3",
            "ticks": 30240,
            "time": 47.25,
            "velocity": 0.3937007874015748
          },
          {
            "duration": 0.03750000000000142,
            "durationTicks": 24,
            "midi": 38,
            "name": "D2",
            "ticks": 30240,
            "time": 47.25,
            "velocity": 0.3937007874015748
          },
          {
            "duration": 0.03750000000000142,
            "durationTicks": 24,
            "midi": 40,
            "name": "E2",
            "ticks": 30240,
            "time": 47.25,
            "velocity": 0.3937007874015748
          },
          {
            "duration": 0.03750000000000142,
            "durationTicks": 24,
            "midi": 40,
            "name": "E2",
            "ticks": 30336,
            "time": 47.4,
            "velocity": 0.3937007874015748
          },
          {
            "duration": 0.03750000000000142,
            "durationTicks": 24,
            "midi": 38,
            "name": "D2",
            "ticks": 30336,
            "time": 47.4,
            "velocity": 0.3937007874015748
          },
          {
            "duration": 0.14999999999999858,
            "durationTicks": 96,
            "midi": 45,
            "name": "A2",
            "ticks": 30336,
            "time": 47.4,
            "velocity": 0.3937007874015748
          },
          {
            "duration": 0.14999999999999858,
            "durationTicks": 96,
            "midi": 53,
            "name": "F3",
            "ticks": 30336,
            "time": 47.4,
            "velocity": 0.3937007874015748
          },
          {
            "duration": 0.03750000000000142,
            "durationTicks": 24,
            "midi": 35,
            "name": "B1",
            "ticks": 30336,
            "time": 47.4,
            "velocity": 0.3937007874015748
          },
          {
            "duration": 0.037499999999994316,
            "durationTicks": 24,
            "midi": 40,
            "name": "E2",
            "ticks": 30384,
            "time": 47.475,
            "velocity": 0.3937007874015748
          },
          {
            "duration": 0.037499999999994316,
            "durationTicks": 24,
            "midi": 35,
            "name": "B1",
            "ticks": 30384,
            "time": 47.475,
            "velocity": 0.3937007874015748
          },
          {
            "duration": 0.037499999999994316,
            "durationTicks": 24,
            "midi": 38,
            "name": "D2",
            "ticks": 30384,
            "time": 47.475,
            "velocity": 0.3937007874015748
          },
          {
            "duration": 0.03750000000000142,
            "durationTicks": 24,
            "midi": 40,
            "name": "E2",
            "ticks": 30432,
            "time": 47.55,
            "velocity": 0.3937007874015748
          },
          {
            "duration": 0.14999999999999858,
            "durationTicks": 96,
            "midi": 53,
            "name": "F3",
            "ticks": 30432,
            "time": 47.55,
            "velocity": 0.3937007874015748
          },
          {
            "duration": 0.03750000000000142,
            "durationTicks": 24,
            "midi": 38,
            "name": "D2",
            "ticks": 30432,
            "time": 47.55,
            "velocity": 0.3937007874015748
          },
          {
            "duration": 0.03750000000000142,
            "durationTicks": 24,
            "midi": 35,
            "name": "B1",
            "ticks": 30432,
            "time": 47.55,
            "velocity": 0.3937007874015748
          },
          {
            "duration": 0.03750000000000142,
            "durationTicks": 24,
            "midi": 38,
            "name": "D2",
            "ticks": 30528,
            "time": 47.699999999999996,
            "velocity": 0.3937007874015748
          },
          {
            "duration": 0.15000000000000568,
            "durationTicks": 96,
            "midi": 53,
            "name": "F3",
            "ticks": 30528,
            "time": 47.699999999999996,
            "velocity": 0.3937007874015748
          },
          {
            "duration": 0.15000000000000568,
            "durationTicks": 96,
            "midi": 43,
            "name": "G2",
            "ticks": 30528,
            "time": 47.699999999999996,
            "velocity": 0.3937007874015748
          },
          {
            "duration": 0.03750000000000142,
            "durationTicks": 24,
            "midi": 35,
            "name": "B1",
            "ticks": 30528,
            "time": 47.699999999999996,
            "velocity": 0.3937007874015748
          },
          {
            "duration": 0.03750000000000142,
            "durationTicks": 24,
            "midi": 40,
            "name": "E2",
            "ticks": 30528,
            "time": 47.699999999999996,
            "velocity": 0.3937007874015748
          },
          {
            "duration": 0.03750000000000142,
            "durationTicks": 24,
            "midi": 38,
            "name": "D2",
            "ticks": 30576,
            "time": 47.775,
            "velocity": 0.3937007874015748
          },
          {
            "duration": 0.03750000000000142,
            "durationTicks": 24,
            "midi": 35,
            "name": "B1",
            "ticks": 30576,
            "time": 47.775,
            "velocity": 0.3937007874015748
          },
          {
            "duration": 0.03750000000000142,
            "durationTicks": 24,
            "midi": 40,
            "name": "E2",
            "ticks": 30576,
            "time": 47.775,
            "velocity": 0.3937007874015748
          },
          {
            "duration": 0.14999999999999858,
            "durationTicks": 96,
            "midi": 53,
            "name": "F3",
            "ticks": 30624,
            "time": 47.85,
            "velocity": 0.3937007874015748
          },
          {
            "duration": 0.037499999999994316,
            "durationTicks": 24,
            "midi": 35,
            "name": "B1",
            "ticks": 30624,
            "time": 47.85,
            "velocity": 0.3937007874015748
          },
          {
            "duration": 0.037499999999994316,
            "durationTicks": 24,
            "midi": 40,
            "name": "E2",
            "ticks": 30624,
            "time": 47.85,
            "velocity": 0.3937007874015748
          },
          {
            "duration": 0.037499999999994316,
            "durationTicks": 24,
            "midi": 38,
            "name": "D2",
            "ticks": 30624,
            "time": 47.85,
            "velocity": 0.3937007874015748
          },
          {
            "duration": 0.14999999999999858,
            "durationTicks": 96,
            "midi": 38,
            "name": "D2",
            "ticks": 30720,
            "time": 48,
            "velocity": 0.3937007874015748
          },
          {
            "duration": 0.14999999999999858,
            "durationTicks": 96,
            "midi": 49,
            "name": "C#3",
            "ticks": 30720,
            "time": 48,
            "velocity": 0.3937007874015748
          },
          {
            "duration": 0.14999999999999858,
            "durationTicks": 96,
            "midi": 35,
            "name": "B1",
            "ticks": 30720,
            "time": 48,
            "velocity": 0.3937007874015748
          },
          {
            "duration": 0.14999999999999858,
            "durationTicks": 96,
            "midi": 53,
            "name": "F3",
            "ticks": 30912,
            "time": 48.3,
            "velocity": 0.3937007874015748
          },
          {
            "duration": 0.14999999999999858,
            "durationTicks": 96,
            "midi": 40,
            "name": "E2",
            "ticks": 30912,
            "time": 48.3,
            "velocity": 0.3937007874015748
          },
          {
            "duration": 0.14999999999999858,
            "durationTicks": 96,
            "midi": 38,
            "name": "D2",
            "ticks": 30912,
            "time": 48.3,
            "velocity": 0.3937007874015748
          },
          {
            "duration": 0.14999999999999858,
            "durationTicks": 96,
            "midi": 35,
            "name": "B1",
            "ticks": 31104,
            "time": 48.6,
            "velocity": 0.3937007874015748
          },
          {
            "duration": 0.14999999999999858,
            "durationTicks": 96,
            "midi": 53,
            "name": "F3",
            "ticks": 31104,
            "time": 48.6,
            "velocity": 0.3937007874015748
          },
          {
            "duration": 0.14999999999999858,
            "durationTicks": 96,
            "midi": 38,
            "name": "D2",
            "ticks": 31104,
            "time": 48.6,
            "velocity": 0.3937007874015748
          },
          {
            "duration": 0.14999999999999858,
            "durationTicks": 96,
            "midi": 35,
            "name": "B1",
            "ticks": 31200,
            "time": 48.75,
            "velocity": 0.3937007874015748
          },
          {
            "duration": 0.14999999999999858,
            "durationTicks": 96,
            "midi": 38,
            "name": "D2",
            "ticks": 31200,
            "time": 48.75,
            "velocity": 0.3937007874015748
          },
          {
            "duration": 0.14999999999999858,
            "durationTicks": 96,
            "midi": 38,
            "name": "D2",
            "ticks": 31296,
            "time": 48.9,
            "velocity": 0.3937007874015748
          },
          {
            "duration": 0.14999999999999858,
            "durationTicks": 96,
            "midi": 40,
            "name": "E2",
            "ticks": 31296,
            "time": 48.9,
            "velocity": 0.3937007874015748
          },
          {
            "duration": 0.14999999999999858,
            "durationTicks": 96,
            "midi": 53,
            "name": "F3",
            "ticks": 31296,
            "time": 48.9,
            "velocity": 0.3937007874015748
          },
          {
            "duration": 0.15000000000000568,
            "durationTicks": 96,
            "midi": 35,
            "name": "B1",
            "ticks": 31488,
            "time": 49.199999999999996,
            "velocity": 0.3937007874015748
          },
          {
            "duration": 0.15000000000000568,
            "durationTicks": 96,
            "midi": 38,
            "name": "D2",
            "ticks": 31488,
            "time": 49.199999999999996,
            "velocity": 0.3937007874015748
          },
          {
            "duration": 0.15000000000000568,
            "durationTicks": 96,
            "midi": 53,
            "name": "F3",
            "ticks": 31488,
            "time": 49.199999999999996,
            "velocity": 0.3937007874015748
          },
          {
            "duration": 0.14999999999999858,
            "durationTicks": 96,
            "midi": 38,
            "name": "D2",
            "ticks": 31680,
            "time": 49.5,
            "velocity": 0.3937007874015748
          },
          {
            "duration": 0.14999999999999858,
            "durationTicks": 96,
            "midi": 40,
            "name": "E2",
            "ticks": 31680,
            "time": 49.5,
            "velocity": 0.3937007874015748
          },
          {
            "duration": 0.14999999999999858,
            "durationTicks": 96,
            "midi": 53,
            "name": "F3",
            "ticks": 31680,
            "time": 49.5,
            "velocity": 0.3937007874015748
          },
          {
            "duration": 0.14999999999999858,
            "durationTicks": 96,
            "midi": 38,
            "name": "D2",
            "ticks": 31872,
            "time": 49.8,
            "velocity": 0.3937007874015748
          },
          {
            "duration": 0.14999999999999858,
            "durationTicks": 96,
            "midi": 35,
            "name": "B1",
            "ticks": 31872,
            "time": 49.8,
            "velocity": 0.3937007874015748
          },
          {
            "duration": 0.14999999999999858,
            "durationTicks": 96,
            "midi": 53,
            "name": "F3",
            "ticks": 31872,
            "time": 49.8,
            "velocity": 0.3937007874015748
          },
          {
            "duration": 0.15000000000000568,
            "durationTicks": 96,
            "midi": 35,
            "name": "B1",
            "ticks": 31968,
            "time": 49.949999999999996,
            "velocity": 0.3937007874015748
          },
          {
            "duration": 0.15000000000000568,
            "durationTicks": 96,
            "midi": 38,
            "name": "D2",
            "ticks": 31968,
            "time": 49.949999999999996,
            "velocity": 0.3937007874015748
          },
          {
            "duration": 0.14999999999999858,
            "durationTicks": 96,
            "midi": 40,
            "name": "E2",
            "ticks": 32064,
            "time": 50.1,
            "velocity": 0.3937007874015748
          },
          {
            "duration": 0.14999999999999858,
            "durationTicks": 96,
            "midi": 38,
            "name": "D2",
            "ticks": 32064,
            "time": 50.1,
            "velocity": 0.3937007874015748
          },
          {
            "duration": 0.14999999999999858,
            "durationTicks": 96,
            "midi": 53,
            "name": "F3",
            "ticks": 32064,
            "time": 50.1,
            "velocity": 0.3937007874015748
          },
          {
            "duration": 0.14999999999999858,
            "durationTicks": 96,
            "midi": 49,
            "name": "C#3",
            "ticks": 32256,
            "time": 50.4,
            "velocity": 0.3937007874015748
          },
          {
            "duration": 0.14999999999999858,
            "durationTicks": 96,
            "midi": 35,
            "name": "B1",
            "ticks": 32256,
            "time": 50.4,
            "velocity": 0.3937007874015748
          },
          {
            "duration": 0.14999999999999858,
            "durationTicks": 96,
            "midi": 53,
            "name": "F3",
            "ticks": 32256,
            "time": 50.4,
            "velocity": 0.3937007874015748
          },
          {
            "duration": 0.14999999999999858,
            "durationTicks": 96,
            "midi": 38,
            "name": "D2",
            "ticks": 32256,
            "time": 50.4,
            "velocity": 0.3937007874015748
          },
          {
            "duration": 0.15000000000000568,
            "durationTicks": 96,
            "midi": 38,
            "name": "D2",
            "ticks": 32448,
            "time": 50.699999999999996,
            "velocity": 0.3937007874015748
          },
          {
            "duration": 0.15000000000000568,
            "durationTicks": 96,
            "midi": 40,
            "name": "E2",
            "ticks": 32448,
            "time": 50.699999999999996,
            "velocity": 0.3937007874015748
          },
          {
            "duration": 0.15000000000000568,
            "durationTicks": 96,
            "midi": 53,
            "name": "F3",
            "ticks": 32448,
            "time": 50.699999999999996,
            "velocity": 0.3937007874015748
          },
          {
            "duration": 0.14999999999999858,
            "durationTicks": 96,
            "midi": 53,
            "name": "F3",
            "ticks": 32640,
            "time": 51,
            "velocity": 0.3937007874015748
          },
          {
            "duration": 0.14999999999999858,
            "durationTicks": 96,
            "midi": 38,
            "name": "D2",
            "ticks": 32640,
            "time": 51,
            "velocity": 0.3937007874015748
          },
          {
            "duration": 0.14999999999999858,
            "durationTicks": 96,
            "midi": 35,
            "name": "B1",
            "ticks": 32640,
            "time": 51,
            "velocity": 0.3937007874015748
          },
          {
            "duration": 0.14999999999999858,
            "durationTicks": 96,
            "midi": 38,
            "name": "D2",
            "ticks": 32736,
            "time": 51.15,
            "velocity": 0.3937007874015748
          },
          {
            "duration": 0.14999999999999858,
            "durationTicks": 96,
            "midi": 35,
            "name": "B1",
            "ticks": 32736,
            "time": 51.15,
            "velocity": 0.3937007874015748
          },
          {
            "duration": 0.14999999999999858,
            "durationTicks": 96,
            "midi": 40,
            "name": "E2",
            "ticks": 32832,
            "time": 51.3,
            "velocity": 0.3937007874015748
          },
          {
            "duration": 0.14999999999999858,
            "durationTicks": 96,
            "midi": 38,
            "name": "D2",
            "ticks": 32832,
            "time": 51.3,
            "velocity": 0.3937007874015748
          },
          {
            "duration": 0.14999999999999858,
            "durationTicks": 96,
            "midi": 53,
            "name": "F3",
            "ticks": 32832,
            "time": 51.3,
            "velocity": 0.3937007874015748
          },
          {
            "duration": 0.14999999999999858,
            "durationTicks": 96,
            "midi": 38,
            "name": "D2",
            "ticks": 33024,
            "time": 51.6,
            "velocity": 0.3937007874015748
          },
          {
            "duration": 0.14999999999999858,
            "durationTicks": 96,
            "midi": 35,
            "name": "B1",
            "ticks": 33024,
            "time": 51.6,
            "velocity": 0.3937007874015748
          },
          {
            "duration": 0.14999999999999858,
            "durationTicks": 96,
            "midi": 53,
            "name": "F3",
            "ticks": 33024,
            "time": 51.6,
            "velocity": 0.3937007874015748
          },
          {
            "duration": 0.14999999999999858,
            "durationTicks": 96,
            "midi": 40,
            "name": "E2",
            "ticks": 33216,
            "time": 51.9,
            "velocity": 0.3937007874015748
          },
          {
            "duration": 0.14999999999999858,
            "durationTicks": 96,
            "midi": 53,
            "name": "F3",
            "ticks": 33216,
            "time": 51.9,
            "velocity": 0.3937007874015748
          },
          {
            "duration": 0.14999999999999858,
            "durationTicks": 96,
            "midi": 38,
            "name": "D2",
            "ticks": 33216,
            "time": 51.9,
            "velocity": 0.3937007874015748
          },
          {
            "duration": 0.15000000000000568,
            "durationTicks": 96,
            "midi": 53,
            "name": "F3",
            "ticks": 33408,
            "time": 52.199999999999996,
            "velocity": 0.3937007874015748
          },
          {
            "duration": 0.15000000000000568,
            "durationTicks": 96,
            "midi": 35,
            "name": "B1",
            "ticks": 33408,
            "time": 52.199999999999996,
            "velocity": 0.3937007874015748
          },
          {
            "duration": 0.15000000000000568,
            "durationTicks": 96,
            "midi": 38,
            "name": "D2",
            "ticks": 33408,
            "time": 52.199999999999996,
            "velocity": 0.3937007874015748
          },
          {
            "duration": 0.14999999999999858,
            "durationTicks": 96,
            "midi": 38,
            "name": "D2",
            "ticks": 33504,
            "time": 52.35,
            "velocity": 0.3937007874015748
          },
          {
            "duration": 0.14999999999999858,
            "durationTicks": 96,
            "midi": 35,
            "name": "B1",
            "ticks": 33504,
            "time": 52.35,
            "velocity": 0.3937007874015748
          },
          {
            "duration": 0.14999999999999858,
            "durationTicks": 96,
            "midi": 40,
            "name": "E2",
            "ticks": 33600,
            "time": 52.5,
            "velocity": 0.3937007874015748
          },
          {
            "duration": 0.14999999999999858,
            "durationTicks": 96,
            "midi": 38,
            "name": "D2",
            "ticks": 33600,
            "time": 52.5,
            "velocity": 0.3937007874015748
          },
          {
            "duration": 0.14999999999999858,
            "durationTicks": 96,
            "midi": 53,
            "name": "F3",
            "ticks": 33600,
            "time": 52.5,
            "velocity": 0.3937007874015748
          },
          {
            "duration": 0.14999999999999858,
            "durationTicks": 96,
            "midi": 53,
            "name": "F3",
            "ticks": 33792,
            "time": 52.8,
            "velocity": 0.3937007874015748
          },
          {
            "duration": 0.14999999999999858,
            "durationTicks": 96,
            "midi": 35,
            "name": "B1",
            "ticks": 33792,
            "time": 52.8,
            "velocity": 0.3937007874015748
          },
          {
            "duration": 0.14999999999999858,
            "durationTicks": 96,
            "midi": 38,
            "name": "D2",
            "ticks": 33792,
            "time": 52.8,
            "velocity": 0.3937007874015748
          },
          {
            "duration": 0.14999999999999858,
            "durationTicks": 96,
            "midi": 38,
            "name": "D2",
            "ticks": 33984,
            "time": 53.1,
            "velocity": 0.3937007874015748
          },
          {
            "duration": 0.14999999999999858,
            "durationTicks": 96,
            "midi": 40,
            "name": "E2",
            "ticks": 33984,
            "time": 53.1,
            "velocity": 0.3937007874015748
          },
          {
            "duration": 0.14999999999999858,
            "durationTicks": 96,
            "midi": 53,
            "name": "F3",
            "ticks": 33984,
            "time": 53.1,
            "velocity": 0.3937007874015748
          },
          {
            "duration": 0.14999999999999858,
            "durationTicks": 96,
            "midi": 35,
            "name": "B1",
            "ticks": 34176,
            "time": 53.4,
            "velocity": 0.3937007874015748
          },
          {
            "duration": 0.14999999999999858,
            "durationTicks": 96,
            "midi": 53,
            "name": "F3",
            "ticks": 34176,
            "time": 53.4,
            "velocity": 0.3937007874015748
          },
          {
            "duration": 0.14999999999999858,
            "durationTicks": 96,
            "midi": 38,
            "name": "D2",
            "ticks": 34176,
            "time": 53.4,
            "velocity": 0.3937007874015748
          },
          {
            "duration": 0.14999999999999858,
            "durationTicks": 96,
            "midi": 35,
            "name": "B1",
            "ticks": 34272,
            "time": 53.55,
            "velocity": 0.3937007874015748
          },
          {
            "duration": 0.14999999999999858,
            "durationTicks": 96,
            "midi": 38,
            "name": "D2",
            "ticks": 34272,
            "time": 53.55,
            "velocity": 0.3937007874015748
          },
          {
            "duration": 0.15000000000000568,
            "durationTicks": 96,
            "midi": 53,
            "name": "F3",
            "ticks": 34368,
            "time": 53.699999999999996,
            "velocity": 0.3937007874015748
          },
          {
            "duration": 0.15000000000000568,
            "durationTicks": 96,
            "midi": 38,
            "name": "D2",
            "ticks": 34368,
            "time": 53.699999999999996,
            "velocity": 0.3937007874015748
          },
          {
            "duration": 0.15000000000000568,
            "durationTicks": 96,
            "midi": 40,
            "name": "E2",
            "ticks": 34368,
            "time": 53.699999999999996,
            "velocity": 0.3937007874015748
          },
          {
            "duration": 0.14999999999999858,
            "durationTicks": 96,
            "midi": 38,
            "name": "D2",
            "ticks": 34560,
            "time": 54,
            "velocity": 0.3937007874015748
          },
          {
            "duration": 0.14999999999999858,
            "durationTicks": 96,
            "midi": 53,
            "name": "F3",
            "ticks": 34560,
            "time": 54,
            "velocity": 0.3937007874015748
          },
          {
            "duration": 0.14999999999999858,
            "durationTicks": 96,
            "midi": 35,
            "name": "B1",
            "ticks": 34560,
            "time": 54,
            "velocity": 0.3937007874015748
          },
          {
            "duration": 0.14999999999999858,
            "durationTicks": 96,
            "midi": 38,
            "name": "D2",
            "ticks": 34752,
            "time": 54.3,
            "velocity": 0.3937007874015748
          },
          {
            "duration": 0.14999999999999858,
            "durationTicks": 96,
            "midi": 40,
            "name": "E2",
            "ticks": 34752,
            "time": 54.3,
            "velocity": 0.3937007874015748
          },
          {
            "duration": 0.14999999999999858,
            "durationTicks": 96,
            "midi": 53,
            "name": "F3",
            "ticks": 34752,
            "time": 54.3,
            "velocity": 0.3937007874015748
          },
          {
            "duration": 0.14999999999999858,
            "durationTicks": 96,
            "midi": 35,
            "name": "B1",
            "ticks": 34944,
            "time": 54.6,
            "velocity": 0.3937007874015748
          },
          {
            "duration": 0.14999999999999858,
            "durationTicks": 96,
            "midi": 53,
            "name": "F3",
            "ticks": 34944,
            "time": 54.6,
            "velocity": 0.3937007874015748
          },
          {
            "duration": 0.14999999999999858,
            "durationTicks": 96,
            "midi": 38,
            "name": "D2",
            "ticks": 34944,
            "time": 54.6,
            "velocity": 0.3937007874015748
          },
          {
            "duration": 0.14999999999999858,
            "durationTicks": 96,
            "midi": 35,
            "name": "B1",
            "ticks": 35040,
            "time": 54.75,
            "velocity": 0.3937007874015748
          },
          {
            "duration": 0.14999999999999858,
            "durationTicks": 96,
            "midi": 38,
            "name": "D2",
            "ticks": 35040,
            "time": 54.75,
            "velocity": 0.3937007874015748
          },
          {
            "duration": 0.14999999999999858,
            "durationTicks": 96,
            "midi": 53,
            "name": "F3",
            "ticks": 35136,
            "time": 54.9,
            "velocity": 0.3937007874015748
          },
          {
            "duration": 0.14999999999999858,
            "durationTicks": 96,
            "midi": 40,
            "name": "E2",
            "ticks": 35136,
            "time": 54.9,
            "velocity": 0.3937007874015748
          },
          {
            "duration": 0.14999999999999858,
            "durationTicks": 96,
            "midi": 38,
            "name": "D2",
            "ticks": 35136,
            "time": 54.9,
            "velocity": 0.3937007874015748
          },
          {
            "duration": 0.15000000000000568,
            "durationTicks": 96,
            "midi": 53,
            "name": "F3",
            "ticks": 35328,
            "time": 55.199999999999996,
            "velocity": 0.3937007874015748
          },
          {
            "duration": 0.15000000000000568,
            "durationTicks": 96,
            "midi": 38,
            "name": "D2",
            "ticks": 35328,
            "time": 55.199999999999996,
            "velocity": 0.3937007874015748
          },
          {
            "duration": 0.15000000000000568,
            "durationTicks": 96,
            "midi": 35,
            "name": "B1",
            "ticks": 35328,
            "time": 55.199999999999996,
            "velocity": 0.3937007874015748
          },
          {
            "duration": 0.14999999999999858,
            "durationTicks": 96,
            "midi": 40,
            "name": "E2",
            "ticks": 35520,
            "time": 55.5,
            "velocity": 0.3937007874015748
          },
          {
            "duration": 0.14999999999999858,
            "durationTicks": 96,
            "midi": 38,
            "name": "D2",
            "ticks": 35520,
            "time": 55.5,
            "velocity": 0.3937007874015748
          },
          {
            "duration": 0.14999999999999858,
            "durationTicks": 96,
            "midi": 53,
            "name": "F3",
            "ticks": 35520,
            "time": 55.5,
            "velocity": 0.3937007874015748
          },
          {
            "duration": 0.14999999999999858,
            "durationTicks": 96,
            "midi": 35,
            "name": "B1",
            "ticks": 35712,
            "time": 55.8,
            "velocity": 0.3937007874015748
          },
          {
            "duration": 0.14999999999999858,
            "durationTicks": 96,
            "midi": 53,
            "name": "F3",
            "ticks": 35712,
            "time": 55.8,
            "velocity": 0.3937007874015748
          },
          {
            "duration": 0.14999999999999858,
            "durationTicks": 96,
            "midi": 38,
            "name": "D2",
            "ticks": 35712,
            "time": 55.8,
            "velocity": 0.3937007874015748
          },
          {
            "duration": 0.15000000000000568,
            "durationTicks": 96,
            "midi": 35,
            "name": "B1",
            "ticks": 35808,
            "time": 55.949999999999996,
            "velocity": 0.3937007874015748
          },
          {
            "duration": 0.15000000000000568,
            "durationTicks": 96,
            "midi": 38,
            "name": "D2",
            "ticks": 35808,
            "time": 55.949999999999996,
            "velocity": 0.3937007874015748
          },
          {
            "duration": 0.14999999999999858,
            "durationTicks": 96,
            "midi": 38,
            "name": "D2",
            "ticks": 35904,
            "time": 56.1,
            "velocity": 0.3937007874015748
          },
          {
            "duration": 0.14999999999999858,
            "durationTicks": 96,
            "midi": 40,
            "name": "E2",
            "ticks": 35904,
            "time": 56.1,
            "velocity": 0.3937007874015748
          },
          {
            "duration": 0.14999999999999858,
            "durationTicks": 96,
            "midi": 53,
            "name": "F3",
            "ticks": 35904,
            "time": 56.1,
            "velocity": 0.3937007874015748
          },
          {
            "duration": 0.03750000000000142,
            "durationTicks": 24,
            "midi": 35,
            "name": "B1",
            "ticks": 36096,
            "time": 56.4,
            "velocity": 0.3937007874015748
          },
          {
            "duration": 0.03750000000000142,
            "durationTicks": 24,
            "midi": 38,
            "name": "D2",
            "ticks": 36096,
            "time": 56.4,
            "velocity": 0.3937007874015748
          },
          {
            "duration": 0.14999999999999858,
            "durationTicks": 96,
            "midi": 53,
            "name": "F3",
            "ticks": 36096,
            "time": 56.4,
            "velocity": 0.3937007874015748
          },
          {
            "duration": 0.03750000000000142,
            "durationTicks": 24,
            "midi": 40,
            "name": "E2",
            "ticks": 36096,
            "time": 56.4,
            "velocity": 0.3937007874015748
          },
          {
            "duration": 0.14999999999999858,
            "durationTicks": 96,
            "midi": 50,
            "name": "D3",
            "ticks": 36096,
            "time": 56.4,
            "velocity": 0.3937007874015748
          },
          {
            "duration": 0.037499999999994316,
            "durationTicks": 24,
            "midi": 35,
            "name": "B1",
            "ticks": 36144,
            "time": 56.475,
            "velocity": 0.3937007874015748
          },
          {
            "duration": 0.037499999999994316,
            "durationTicks": 24,
            "midi": 40,
            "name": "E2",
            "ticks": 36144,
            "time": 56.475,
            "velocity": 0.3937007874015748
          },
          {
            "duration": 0.037499999999994316,
            "durationTicks": 24,
            "midi": 38,
            "name": "D2",
            "ticks": 36144,
            "time": 56.475,
            "velocity": 0.3937007874015748
          },
          {
            "duration": 0.03750000000000142,
            "durationTicks": 24,
            "midi": 35,
            "name": "B1",
            "ticks": 36192,
            "time": 56.55,
            "velocity": 0.3937007874015748
          },
          {
            "duration": 0.03750000000000142,
            "durationTicks": 24,
            "midi": 40,
            "name": "E2",
            "ticks": 36192,
            "time": 56.55,
            "velocity": 0.3937007874015748
          },
          {
            "duration": 0.14999999999999858,
            "durationTicks": 96,
            "midi": 53,
            "name": "F3",
            "ticks": 36192,
            "time": 56.55,
            "velocity": 0.3937007874015748
          },
          {
            "duration": 0.03750000000000142,
            "durationTicks": 24,
            "midi": 38,
            "name": "D2",
            "ticks": 36192,
            "time": 56.55,
            "velocity": 0.3937007874015748
          },
          {
            "duration": 0.15000000000000568,
            "durationTicks": 96,
            "midi": 53,
            "name": "F3",
            "ticks": 36288,
            "time": 56.699999999999996,
            "velocity": 0.3937007874015748
          },
          {
            "duration": 0.03750000000000142,
            "durationTicks": 24,
            "midi": 40,
            "name": "E2",
            "ticks": 36288,
            "time": 56.699999999999996,
            "velocity": 0.3937007874015748
          },
          {
            "duration": 0.15000000000000568,
            "durationTicks": 96,
            "midi": 48,
            "name": "C3",
            "ticks": 36288,
            "time": 56.699999999999996,
            "velocity": 0.3937007874015748
          },
          {
            "duration": 0.03750000000000142,
            "durationTicks": 24,
            "midi": 35,
            "name": "B1",
            "ticks": 36288,
            "time": 56.699999999999996,
            "velocity": 0.3937007874015748
          },
          {
            "duration": 0.03750000000000142,
            "durationTicks": 24,
            "midi": 38,
            "name": "D2",
            "ticks": 36288,
            "time": 56.699999999999996,
            "velocity": 0.3937007874015748
          },
          {
            "duration": 0.03750000000000142,
            "durationTicks": 24,
            "midi": 40,
            "name": "E2",
            "ticks": 36336,
            "time": 56.775,
            "velocity": 0.3937007874015748
          },
          {
            "duration": 0.03750000000000142,
            "durationTicks": 24,
            "midi": 38,
            "name": "D2",
            "ticks": 36336,
            "time": 56.775,
            "velocity": 0.3937007874015748
          },
          {
            "duration": 0.03750000000000142,
            "durationTicks": 24,
            "midi": 35,
            "name": "B1",
            "ticks": 36336,
            "time": 56.775,
            "velocity": 0.3937007874015748
          },
          {
            "duration": 0.037499999999994316,
            "durationTicks": 24,
            "midi": 38,
            "name": "D2",
            "ticks": 36384,
            "time": 56.85,
            "velocity": 0.3937007874015748
          },
          {
            "duration": 0.14999999999999858,
            "durationTicks": 96,
            "midi": 53,
            "name": "F3",
            "ticks": 36384,
            "time": 56.85,
            "velocity": 0.3937007874015748
          },
          {
            "duration": 0.037499999999994316,
            "durationTicks": 24,
            "midi": 40,
            "name": "E2",
            "ticks": 36384,
            "time": 56.85,
            "velocity": 0.3937007874015748
          },
          {
            "duration": 0.037499999999994316,
            "durationTicks": 24,
            "midi": 35,
            "name": "B1",
            "ticks": 36384,
            "time": 56.85,
            "velocity": 0.3937007874015748
          },
          {
            "duration": 0.03750000000000142,
            "durationTicks": 24,
            "midi": 40,
            "name": "E2",
            "ticks": 36480,
            "time": 57,
            "velocity": 0.3937007874015748
          },
          {
            "duration": 0.03750000000000142,
            "durationTicks": 24,
            "midi": 35,
            "name": "B1",
            "ticks": 36480,
            "time": 57,
            "velocity": 0.3937007874015748
          },
          {
            "duration": 0.14999999999999858,
            "durationTicks": 96,
            "midi": 53,
            "name": "F3",
            "ticks": 36480,
            "time": 57,
            "velocity": 0.3937007874015748
          },
          {
            "duration": 0.14999999999999858,
            "durationTicks": 96,
            "midi": 45,
            "name": "A2",
            "ticks": 36480,
            "time": 57,
            "velocity": 0.3937007874015748
          },
          {
            "duration": 0.03750000000000142,
            "durationTicks": 24,
            "midi": 38,
            "name": "D2",
            "ticks": 36480,
            "time": 57,
            "velocity": 0.3937007874015748
          },
          {
            "duration": 0.03750000000000142,
            "durationTicks": 24,
            "midi": 40,
            "name": "E2",
            "ticks": 36528,
            "time": 57.074999999999996,
            "velocity": 0.3937007874015748
          },
          {
            "duration": 0.03750000000000142,
            "durationTicks": 24,
            "midi": 35,
            "name": "B1",
            "ticks": 36528,
            "time": 57.074999999999996,
            "velocity": 0.3937007874015748
          },
          {
            "duration": 0.03750000000000142,
            "durationTicks": 24,
            "midi": 38,
            "name": "D2",
            "ticks": 36528,
            "time": 57.074999999999996,
            "velocity": 0.3937007874015748
          },
          {
            "duration": 0.03750000000000142,
            "durationTicks": 24,
            "midi": 35,
            "name": "B1",
            "ticks": 36576,
            "time": 57.15,
            "velocity": 0.3937007874015748
          },
          {
            "duration": 0.03750000000000142,
            "durationTicks": 24,
            "midi": 38,
            "name": "D2",
            "ticks": 36576,
            "time": 57.15,
            "velocity": 0.3937007874015748
          },
          {
            "duration": 0.14999999999999858,
            "durationTicks": 96,
            "midi": 53,
            "name": "F3",
            "ticks": 36576,
            "time": 57.15,
            "velocity": 0.3937007874015748
          },
          {
            "duration": 0.03750000000000142,
            "durationTicks": 24,
            "midi": 40,
            "name": "E2",
            "ticks": 36576,
            "time": 57.15,
            "velocity": 0.3937007874015748
          },
          {
            "duration": 0.14999999999999858,
            "durationTicks": 96,
            "midi": 43,
            "name": "G2",
            "ticks": 36672,
            "time": 57.3,
            "velocity": 0.3937007874015748
          },
          {
            "duration": 0.14999999999999858,
            "durationTicks": 96,
            "midi": 53,
            "name": "F3",
            "ticks": 36672,
            "time": 57.3,
            "velocity": 0.3937007874015748
          },
          {
            "duration": 0.03750000000000142,
            "durationTicks": 24,
            "midi": 35,
            "name": "B1",
            "ticks": 36672,
            "time": 57.3,
            "velocity": 0.3937007874015748
          },
          {
            "duration": 0.03750000000000142,
            "durationTicks": 24,
            "midi": 40,
            "name": "E2",
            "ticks": 36672,
            "time": 57.3,
            "velocity": 0.3937007874015748
          },
          {
            "duration": 0.03750000000000142,
            "durationTicks": 24,
            "midi": 38,
            "name": "D2",
            "ticks": 36672,
            "time": 57.3,
            "velocity": 0.3937007874015748
          },
          {
            "duration": 0.03750000000000142,
            "durationTicks": 24,
            "midi": 35,
            "name": "B1",
            "ticks": 36720,
            "time": 57.375,
            "velocity": 0.3937007874015748
          },
          {
            "duration": 0.03750000000000142,
            "durationTicks": 24,
            "midi": 38,
            "name": "D2",
            "ticks": 36720,
            "time": 57.375,
            "velocity": 0.3937007874015748
          },
          {
            "duration": 0.03750000000000142,
            "durationTicks": 24,
            "midi": 40,
            "name": "E2",
            "ticks": 36720,
            "time": 57.375,
            "velocity": 0.3937007874015748
          },
          {
            "duration": 0.03750000000000142,
            "durationTicks": 24,
            "midi": 35,
            "name": "B1",
            "ticks": 36768,
            "time": 57.449999999999996,
            "velocity": 0.3937007874015748
          },
          {
            "duration": 0.03750000000000142,
            "durationTicks": 24,
            "midi": 40,
            "name": "E2",
            "ticks": 36768,
            "time": 57.449999999999996,
            "velocity": 0.3937007874015748
          },
          {
            "duration": 0.03750000000000142,
            "durationTicks": 24,
            "midi": 38,
            "name": "D2",
            "ticks": 36768,
            "time": 57.449999999999996,
            "velocity": 0.3937007874015748
          },
          {
            "duration": 0.14999999999999858,
            "durationTicks": 96,
            "midi": 53,
            "name": "F3",
            "ticks": 36768,
            "time": 57.449999999999996,
            "velocity": 0.3937007874015748
          }
        ],
        "endOfTrackTicks": 36864
      }
    ]
  }