{
    "header": {
      "keySignatures": [],
      "meta": [],
      "name": "",
      "ppq": 384,
      "tempos": [
        {
          "bpm": 90.00009000009,
          "ticks": 0
        }
      ],
      "timeSignatures": [
        {
          "ticks": 0,
          "timeSignature": [
            1,
            4
          ],
          "measures": 0
        }
      ]
    },
    "tracks": [
      {
        "channel": 0,
        "controlChanges": {},
        "pitchBends": [],
        "instrument": {
          "family": "guitar",
          "number": 29,
          "name": "overdriven guitar"
        },
        "name": "Electric Guitar",
        "notes": [
          {
            "duration": 0.1666665,
            "durationTicks": 96,
            "midi": 43,
            "name": "G2",
            "ticks": 0,
            "time": 0,
            "velocity": 0.11811023622047244
          },
          {
            "duration": 0.16493039062500003,
            "durationTicks": 95,
            "midi": 43,
            "name": "G2",
            "ticks": 82,
            "time": 0.14236096874999998,
            "velocity": 0.12598425196850394
          },
          {
            "duration": 0.16666650000000005,
            "durationTicks": 96,
            "midi": 55,
            "name": "G3",
            "ticks": 164,
            "time": 0.28472193749999997,
            "velocity": 0.12598425196850394
          },
          {
            "duration": 0.16666650000000005,
            "durationTicks": 96,
            "midi": 43,
            "name": "G2",
            "ticks": 250,
            "time": 0.43402734374999996,
            "velocity": 0.12598425196850394
          },
          {
            "duration": 0.16493039062500003,
            "durationTicks": 95,
            "midi": 43,
            "name": "G2",
            "ticks": 332,
            "time": 0.5763883125,
            "velocity": 0.12598425196850394
          },
          {
            "duration": 0.16493039062500015,
            "durationTicks": 95,
            "midi": 53,
            "name": "F3",
            "ticks": 413,
            "time": 0.7170131718749999,
            "velocity": 0.12598425196850394
          },
          {
            "duration": 0.16493039062499992,
            "durationTicks": 95,
            "midi": 43,
            "name": "G2",
            "ticks": 495,
            "time": 0.859374140625,
            "velocity": 0.11811023622047244
          },
          {
            "duration": 0.16493039062500003,
            "durationTicks": 95,
            "midi": 43,
            "name": "G2",
            "ticks": 576,
            "time": 0.999999,
            "velocity": 0.12598425196850394
          },
          {
            "duration": 0.16493039062499992,
            "durationTicks": 95,
            "midi": 51,
            "name": "D#3",
            "ticks": 658,
            "time": 1.1423599687500001,
            "velocity": 0.12598425196850394
          },
          {
            "duration": 0.16493039062499992,
            "durationTicks": 95,
            "midi": 43,
            "name": "G2",
            "ticks": 739,
            "time": 1.282984828125,
            "velocity": 0.11811023622047244
          },
          {
            "duration": 0.16493039062499992,
            "durationTicks": 95,
            "midi": 43,
            "name": "G2",
            "ticks": 820,
            "time": 1.4236096875,
            "velocity": 0.12598425196850394
          },
          {
            "duration": 0.16493039062499992,
            "durationTicks": 95,
            "midi": 49,
            "name": "C#3",
            "ticks": 902,
            "time": 1.56597065625,
            "velocity": 0.12598425196850394
          },
          {
            "duration": 0.1649303906249997,
            "durationTicks": 95,
            "midi": 43,
            "name": "G2",
            "ticks": 983,
            "time": 1.7065955156250001,
            "velocity": 0.12598425196850394
          },
          {
            "duration": 0.3333330000000001,
            "durationTicks": 192,
            "midi": 43,
            "name": "G2",
            "ticks": 1065,
            "time": 1.848956484375,
            "velocity": 0.12598425196850394
          },
          {
            "duration": 0.16666649999999983,
            "durationTicks": 96,
            "midi": 50,
            "name": "D3",
            "ticks": 1150,
            "time": 1.99652578125,
            "velocity": 0.12598425196850394
          },
          {
            "duration": 0.16666649999999983,
            "durationTicks": 96,
            "midi": 51,
            "name": "D#3",
            "ticks": 1233,
            "time": 2.140622859375,
            "velocity": 0.13385826771653545
          },
          {
            "duration": 0.16493039062499992,
            "durationTicks": 95,
            "midi": 43,
            "name": "G2",
            "ticks": 1315,
            "time": 2.282983828125,
            "velocity": 0.12598425196850394
          },
          {
            "duration": 0.16493039062499948,
            "durationTicks": 95,
            "midi": 43,
            "name": "G2",
            "ticks": 1397,
            "time": 2.425344796875,
            "velocity": 0.12598425196850394
          },
          {
            "duration": 0.16493039062499992,
            "durationTicks": 95,
            "midi": 55,
            "name": "G3",
            "ticks": 1478,
            "time": 2.56596965625,
            "velocity": 0.12598425196850394
          },
          {
            "duration": 0.16493039062500037,
            "durationTicks": 95,
            "midi": 43,
            "name": "G2",
            "ticks": 1559,
            "time": 2.7065945156249995,
            "velocity": 0.11811023622047244
          },
          {
            "duration": 0.16493039062499992,
            "durationTicks": 95,
            "midi": 43,
            "name": "G2",
            "ticks": 1641,
            "time": 2.848955484375,
            "velocity": 0.11811023622047244
          },
          {
            "duration": 0.16493039062499992,
            "durationTicks": 95,
            "midi": 53,
            "name": "F3",
            "ticks": 1722,
            "time": 2.9895803437499997,
            "velocity": 0.11811023622047244
          },
          {
            "duration": 0.16493039062499992,
            "durationTicks": 95,
            "midi": 43,
            "name": "G2",
            "ticks": 1804,
            "time": 3.1319413125,
            "velocity": 0.12598425196850394
          },
          {
            "duration": 0.16493039062499948,
            "durationTicks": 95,
            "midi": 43,
            "name": "G2",
            "ticks": 1885,
            "time": 3.2725661718750003,
            "velocity": 0.11811023622047244
          },
          {
            "duration": 0.16666649999999983,
            "durationTicks": 96,
            "midi": 51,
            "name": "D#3",
            "ticks": 1966,
            "time": 3.4131910312500002,
            "velocity": 0.13385826771653545
          },
          {
            "duration": 0.16666649999999983,
            "durationTicks": 96,
            "midi": 43,
            "name": "G2",
            "ticks": 2052,
            "time": 3.5624964375,
            "velocity": 0.12598425196850394
          },
          {
            "duration": 0.8315963906250006,
            "durationTicks": 479,
            "midi": 43,
            "name": "G2",
            "ticks": 2135,
            "time": 3.706593515625,
            "velocity": 0.12598425196850394
          },
          {
            "duration": 0.6666660000000002,
            "durationTicks": 384,
            "midi": 49,
            "name": "C#3",
            "ticks": 2216,
            "time": 3.8472183749999997,
            "velocity": 0.12598425196850394
          },
          {
            "duration": 0.16666649999999983,
            "durationTicks": 96,
            "midi": 43,
            "name": "G2",
            "ticks": 2626,
            "time": 4.55902321875,
            "velocity": 0.11811023622047244
          },
          {
            "duration": 0.1649303906250008,
            "durationTicks": 95,
            "midi": 43,
            "name": "G2",
            "ticks": 2708,
            "time": 4.7013841874999995,
            "velocity": 0.11811023622047244
          },
          {
            "duration": 0.16493039062499992,
            "durationTicks": 95,
            "midi": 55,
            "name": "G3",
            "ticks": 2790,
            "time": 4.84374515625,
            "velocity": 0.12598425196850394
          },
          {
            "duration": 0.16666649999999983,
            "durationTicks": 96,
            "midi": 43,
            "name": "G2",
            "ticks": 2871,
            "time": 4.984370015625,
            "velocity": 0.11811023622047244
          },
          {
            "duration": 0.16666649999999983,
            "durationTicks": 96,
            "midi": 43,
            "name": "G2",
            "ticks": 2957,
            "time": 5.133675421875,
            "velocity": 0.12598425196850394
          },
          {
            "duration": 0.16493039062499992,
            "durationTicks": 95,
            "midi": 53,
            "name": "F3",
            "ticks": 3040,
            "time": 5.2777725,
            "velocity": 0.12598425196850394
          },
          {
            "duration": 0.16493039062499992,
            "durationTicks": 95,
            "midi": 43,
            "name": "G2",
            "ticks": 3121,
            "time": 5.418397359375,
            "velocity": 0.12598425196850394
          },
          {
            "duration": 0.1649303906250008,
            "durationTicks": 95,
            "midi": 43,
            "name": "G2",
            "ticks": 3202,
            "time": 5.559022218749999,
            "velocity": 0.12598425196850394
          },
          {
            "duration": 0.16493039062499903,
            "durationTicks": 95,
            "midi": 51,
            "name": "D#3",
            "ticks": 3284,
            "time": 5.7013831875,
            "velocity": 0.13385826771653545
          },
          {
            "duration": 0.16493039062499903,
            "durationTicks": 95,
            "midi": 43,
            "name": "G2",
            "ticks": 3365,
            "time": 5.842008046875001,
            "velocity": 0.11811023622047244
          },
          {
            "duration": 0.16493039062499903,
            "durationTicks": 95,
            "midi": 43,
            "name": "G2",
            "ticks": 3446,
            "time": 5.98263290625,
            "velocity": 0.11811023622047244
          },
          {
            "duration": 0.1649303906250008,
            "durationTicks": 95,
            "midi": 49,
            "name": "C#3",
            "ticks": 3528,
            "time": 6.1249938749999995,
            "velocity": 0.12598425196850394
          },
          {
            "duration": 0.1649303906250008,
            "durationTicks": 95,
            "midi": 43,
            "name": "G2",
            "ticks": 3609,
            "time": 6.265618734375,
            "velocity": 0.12598425196850394
          },
          {
            "duration": 0.33159689062500064,
            "durationTicks": 191,
            "midi": 43,
            "name": "G2",
            "ticks": 3691,
            "time": 6.407979703124999,
            "velocity": 0.12598425196850394
          },
          {
            "duration": 0.16666649999999983,
            "durationTicks": 96,
            "midi": 50,
            "name": "D3",
            "ticks": 3772,
            "time": 6.5486045625,
            "velocity": 0.12598425196850394
          },
          {
            "duration": 0.16666650000000072,
            "durationTicks": 96,
            "midi": 51,
            "name": "D#3",
            "ticks": 3858,
            "time": 6.697909968749999,
            "velocity": 0.12598425196850394
          },
          {
            "duration": 0.16493039062499992,
            "durationTicks": 95,
            "midi": 43,
            "name": "G2",
            "ticks": 3940,
            "time": 6.8402709375,
            "velocity": 0.12598425196850394
          },
          {
            "duration": 0.16493039062499903,
            "durationTicks": 95,
            "midi": 43,
            "name": "G2",
            "ticks": 4022,
            "time": 6.98263190625,
            "velocity": 0.11811023622047244
          },
          {
            "duration": 0.16493039062499903,
            "durationTicks": 95,
            "midi": 55,
            "name": "G3",
            "ticks": 4103,
            "time": 7.123256765625,
            "velocity": 0.13385826771653545
          },
          {
            "duration": 0.1649303906250008,
            "durationTicks": 95,
            "midi": 43,
            "name": "G2",
            "ticks": 4185,
            "time": 7.265617734375,
            "velocity": 0.12598425196850394
          },
          {
            "duration": 0.16493039062499992,
            "durationTicks": 95,
            "midi": 43,
            "name": "G2",
            "ticks": 4266,
            "time": 7.40624259375,
            "velocity": 0.11811023622047244
          },
          {
            "duration": 0.1649303906250008,
            "durationTicks": 95,
            "midi": 53,
            "name": "F3",
            "ticks": 4347,
            "time": 7.5468674531249995,
            "velocity": 0.12598425196850394
          },
          {
            "duration": 0.16493039062499992,
            "durationTicks": 95,
            "midi": 43,
            "name": "G2",
            "ticks": 4429,
            "time": 7.689228421875,
            "velocity": 0.12598425196850394
          },
          {
            "duration": 0.1649303906250008,
            "durationTicks": 95,
            "midi": 43,
            "name": "G2",
            "ticks": 4510,
            "time": 7.829853281249999,
            "velocity": 0.12598425196850394
          },
          {
            "duration": 0.1649303906250008,
            "durationTicks": 95,
            "midi": 51,
            "name": "D#3",
            "ticks": 4591,
            "time": 7.970478140625,
            "velocity": 0.13385826771653545
          },
          {
            "duration": 0.16666649999999983,
            "durationTicks": 96,
            "midi": 43,
            "name": "G2",
            "ticks": 4673,
            "time": 8.112839109375,
            "velocity": 0.12598425196850394
          },
          {
            "duration": 0.8333324999999991,
            "durationTicks": 480,
            "midi": 43,
            "name": "G2",
            "ticks": 4759,
            "time": 8.262144515625,
            "velocity": 0.12598425196850394
          },
          {
            "duration": 0.6666659999999993,
            "durationTicks": 384,
            "midi": 49,
            "name": "C#3",
            "ticks": 4841,
            "time": 8.404505484375001,
            "velocity": 0.12598425196850394
          },
          {
            "duration": 0.16840260937499885,
            "durationTicks": 97,
            "midi": 43,
            "name": "G2",
            "ticks": 5247,
            "time": 9.109365890625,
            "velocity": 0.11811023622047244
          },
          {
            "duration": 0.16840260937500062,
            "durationTicks": 97,
            "midi": 43,
            "name": "G2",
            "ticks": 5251,
            "time": 9.116310328125,
            "velocity": 0.11811023622047244
          },
          {
            "duration": 0.16840260937500062,
            "durationTicks": 97,
            "midi": 43,
            "name": "G2",
            "ticks": 5329,
            "time": 9.251726859375,
            "velocity": 0.12598425196850394
          },
          {
            "duration": 0.16840260937499885,
            "durationTicks": 97,
            "midi": 43,
            "name": "G2",
            "ticks": 5334,
            "time": 9.26040740625,
            "velocity": 0.12598425196850394
          },
          {
            "duration": 0.16666649999999983,
            "durationTicks": 96,
            "midi": 55,
            "name": "G3",
            "ticks": 5416,
            "time": 9.402768374999999,
            "velocity": 0.12598425196850394
          },
          {
            "duration": 0.16666649999999983,
            "durationTicks": 96,
            "midi": 55,
            "name": "G3",
            "ticks": 5416,
            "time": 9.402768374999999,
            "velocity": 0.12598425196850394
          },
          {
            "duration": 0.16493039062499903,
            "durationTicks": 95,
            "midi": 43,
            "name": "G2",
            "ticks": 5498,
            "time": 9.54512934375,
            "velocity": 0.12598425196850394
          },
          {
            "duration": 0.16493039062499903,
            "durationTicks": 95,
            "midi": 43,
            "name": "G2",
            "ticks": 5498,
            "time": 9.54512934375,
            "velocity": 0.12598425196850394
          },
          {
            "duration": 0.16666649999999983,
            "durationTicks": 96,
            "midi": 43,
            "name": "G2",
            "ticks": 5580,
            "time": 9.6874903125,
            "velocity": 0.12598425196850394
          },
          {
            "duration": 0.16666649999999983,
            "durationTicks": 96,
            "midi": 43,
            "name": "G2",
            "ticks": 5580,
            "time": 9.6874903125,
            "velocity": 0.12598425196850394
          },
          {
            "duration": 0.16840260937499885,
            "durationTicks": 97,
            "midi": 53,
            "name": "F3",
            "ticks": 5661,
            "time": 9.828115171875,
            "velocity": 0.12598425196850394
          },
          {
            "duration": 0.16840260937499885,
            "durationTicks": 97,
            "midi": 53,
            "name": "F3",
            "ticks": 5666,
            "time": 9.83679571875,
            "velocity": 0.12598425196850394
          },
          {
            "duration": 0.16840260937500062,
            "durationTicks": 97,
            "midi": 43,
            "name": "G2",
            "ticks": 5743,
            "time": 9.970476140625,
            "velocity": 0.11811023622047244
          },
          {
            "duration": 0.16840260937499885,
            "durationTicks": 97,
            "midi": 43,
            "name": "G2",
            "ticks": 5748,
            "time": 9.9791566875,
            "velocity": 0.11811023622047244
          },
          {
            "duration": 0.16840260937500062,
            "durationTicks": 97,
            "midi": 43,
            "name": "G2",
            "ticks": 5826,
            "time": 10.11457321875,
            "velocity": 0.12598425196850394
          },
          {
            "duration": 0.16840260937500062,
            "durationTicks": 97,
            "midi": 43,
            "name": "G2",
            "ticks": 5830,
            "time": 10.121517656249999,
            "velocity": 0.12598425196850394
          },
          {
            "duration": 0.16840260937500062,
            "durationTicks": 97,
            "midi": 51,
            "name": "D#3",
            "ticks": 5908,
            "time": 10.256934187499999,
            "velocity": 0.12598425196850394
          },
          {
            "duration": 0.16840260937500062,
            "durationTicks": 97,
            "midi": 51,
            "name": "D#3",
            "ticks": 5913,
            "time": 10.265614734375,
            "velocity": 0.12598425196850394
          },
          {
            "duration": 0.16840260937500062,
            "durationTicks": 97,
            "midi": 43,
            "name": "G2",
            "ticks": 5991,
            "time": 10.401031265624999,
            "velocity": 0.11811023622047244
          },
          {
            "duration": 0.16840260937500062,
            "durationTicks": 97,
            "midi": 43,
            "name": "G2",
            "ticks": 5995,
            "time": 10.407975703124999,
            "velocity": 0.11811023622047244
          },
          {
            "duration": 0.16840260937499885,
            "durationTicks": 97,
            "midi": 43,
            "name": "G2",
            "ticks": 6073,
            "time": 10.543392234375,
            "velocity": 0.12598425196850394
          },
          {
            "duration": 0.1684026093750024,
            "durationTicks": 97,
            "midi": 43,
            "name": "G2",
            "ticks": 6078,
            "time": 10.552072781249999,
            "velocity": 0.12598425196850394
          },
          {
            "duration": 0.16840260937500062,
            "durationTicks": 97,
            "midi": 49,
            "name": "C#3",
            "ticks": 6155,
            "time": 10.685753203125,
            "velocity": 0.12598425196850394
          },
          {
            "duration": 0.16840260937499885,
            "durationTicks": 97,
            "midi": 49,
            "name": "C#3",
            "ticks": 6160,
            "time": 10.69443375,
            "velocity": 0.12598425196850394
          },
          {
            "duration": 0.16840260937499885,
            "durationTicks": 97,
            "midi": 43,
            "name": "G2",
            "ticks": 6238,
            "time": 10.82985028125,
            "velocity": 0.12598425196850394
          },
          {
            "duration": 0.16840260937500062,
            "durationTicks": 97,
            "midi": 43,
            "name": "G2",
            "ticks": 6242,
            "time": 10.83679471875,
            "velocity": 0.12598425196850394
          },
          {
            "duration": 0.33333299999999966,
            "durationTicks": 192,
            "midi": 43,
            "name": "G2",
            "ticks": 6325,
            "time": 10.980891796875001,
            "velocity": 0.12598425196850394
          },
          {
            "duration": 0.33333299999999966,
            "durationTicks": 192,
            "midi": 43,
            "name": "G2",
            "ticks": 6325,
            "time": 10.980891796875001,
            "velocity": 0.12598425196850394
          },
          {
            "duration": 0.16666649999999983,
            "durationTicks": 96,
            "midi": 50,
            "name": "D3",
            "ticks": 6407,
            "time": 11.123252765624999,
            "velocity": 0.12598425196850394
          },
          {
            "duration": 0.16666649999999983,
            "durationTicks": 96,
            "midi": 50,
            "name": "D3",
            "ticks": 6407,
            "time": 11.123252765624999,
            "velocity": 0.12598425196850394
          },
          {
            "duration": 0.16666649999999983,
            "durationTicks": 96,
            "midi": 51,
            "name": "D#3",
            "ticks": 6490,
            "time": 11.26734984375,
            "velocity": 0.13385826771653545
          },
          {
            "duration": 0.16666649999999983,
            "durationTicks": 96,
            "midi": 51,
            "name": "D#3",
            "ticks": 6490,
            "time": 11.26734984375,
            "velocity": 0.13385826771653545
          },
          {
            "duration": 0.16840260937499707,
            "durationTicks": 97,
            "midi": 43,
            "name": "G2",
            "ticks": 6571,
            "time": 11.407974703125001,
            "velocity": 0.12598425196850394
          },
          {
            "duration": 0.16840260937500062,
            "durationTicks": 97,
            "midi": 43,
            "name": "G2",
            "ticks": 6575,
            "time": 11.414919140624999,
            "velocity": 0.12598425196850394
          },
          {
            "duration": 0.16840260937500062,
            "durationTicks": 97,
            "midi": 43,
            "name": "G2",
            "ticks": 6653,
            "time": 11.550335671874999,
            "velocity": 0.12598425196850394
          },
          {
            "duration": 0.16840260937499707,
            "durationTicks": 97,
            "midi": 43,
            "name": "G2",
            "ticks": 6658,
            "time": 11.559016218750001,
            "velocity": 0.12598425196850394
          },
          {
            "duration": 0.16840260937499885,
            "durationTicks": 97,
            "midi": 55,
            "name": "G3",
            "ticks": 6736,
            "time": 11.69443275,
            "velocity": 0.12598425196850394
          },
          {
            "duration": 0.16840260937500062,
            "durationTicks": 97,
            "midi": 55,
            "name": "G3",
            "ticks": 6740,
            "time": 11.701377187499999,
            "velocity": 0.12598425196850394
          },
          {
            "duration": 0.16840260937500062,
            "durationTicks": 97,
            "midi": 43,
            "name": "G2",
            "ticks": 6818,
            "time": 11.836793718749998,
            "velocity": 0.11811023622047244
          },
          {
            "duration": 0.16840260937499885,
            "durationTicks": 97,
            "midi": 43,
            "name": "G2",
            "ticks": 6823,
            "time": 11.845474265625,
            "velocity": 0.11811023622047244
          },
          {
            "duration": 0.16840260937500062,
            "durationTicks": 97,
            "midi": 43,
            "name": "G2",
            "ticks": 6900,
            "time": 11.9791546875,
            "velocity": 0.11811023622047244
          },
          {
            "duration": 0.1684026093750024,
            "durationTicks": 97,
            "midi": 43,
            "name": "G2",
            "ticks": 6905,
            "time": 11.987835234374998,
            "velocity": 0.11811023622047244
          },
          {
            "duration": 0.16840260937500062,
            "durationTicks": 97,
            "midi": 53,
            "name": "F3",
            "ticks": 6983,
            "time": 12.123251765625,
            "velocity": 0.11811023622047244
          },
          {
            "duration": 0.16840260937500062,
            "durationTicks": 97,
            "midi": 53,
            "name": "F3",
            "ticks": 6987,
            "time": 12.130196203125,
            "velocity": 0.11811023622047244
          },
          {
            "duration": 0.16840260937500062,
            "durationTicks": 97,
            "midi": 43,
            "name": "G2",
            "ticks": 7065,
            "time": 12.265612734374999,
            "velocity": 0.12598425196850394
          },
          {
            "duration": 0.16840260937500062,
            "durationTicks": 97,
            "midi": 43,
            "name": "G2",
            "ticks": 7070,
            "time": 12.27429328125,
            "velocity": 0.12598425196850394
          },
          {
            "duration": 0.16840260937500062,
            "durationTicks": 97,
            "midi": 43,
            "name": "G2",
            "ticks": 7148,
            "time": 12.4097098125,
            "velocity": 0.11811023622047244
          },
          {
            "duration": 0.1684026093750024,
            "durationTicks": 97,
            "midi": 43,
            "name": "G2",
            "ticks": 7152,
            "time": 12.416654249999999,
            "velocity": 0.11811023622047244
          },
          {
            "duration": 0.16666649999999983,
            "durationTicks": 96,
            "midi": 51,
            "name": "D#3",
            "ticks": 7235,
            "time": 12.560751328124999,
            "velocity": 0.13385826771653545
          },
          {
            "duration": 0.16666649999999983,
            "durationTicks": 96,
            "midi": 51,
            "name": "D#3",
            "ticks": 7235,
            "time": 12.560751328124999,
            "velocity": 0.13385826771653545
          },
          {
            "duration": 0.16493039062499903,
            "durationTicks": 95,
            "midi": 43,
            "name": "G2",
            "ticks": 7317,
            "time": 12.703112296875,
            "velocity": 0.12598425196850394
          },
          {
            "duration": 0.16493039062499903,
            "durationTicks": 95,
            "midi": 43,
            "name": "G2",
            "ticks": 7317,
            "time": 12.703112296875,
            "velocity": 0.12598425196850394
          },
          {
            "duration": 0.8333324999999991,
            "durationTicks": 480,
            "midi": 43,
            "name": "G2",
            "ticks": 7398,
            "time": 12.84373715625,
            "velocity": 0.12598425196850394
          },
          {
            "duration": 0.8333324999999991,
            "durationTicks": 480,
            "midi": 43,
            "name": "G2",
            "ticks": 7398,
            "time": 12.84373715625,
            "velocity": 0.12598425196850394
          },
          {
            "duration": 0.6666660000000011,
            "durationTicks": 384,
            "midi": 49,
            "name": "C#3",
            "ticks": 7480,
            "time": 12.986098125,
            "velocity": 0.12598425196850394
          },
          {
            "duration": 0.6666659999999993,
            "durationTicks": 384,
            "midi": 49,
            "name": "C#3",
            "ticks": 7484,
            "time": 12.9930425625,
            "velocity": 0.12598425196850394
          },
          {
            "duration": 0.16840260937500062,
            "durationTicks": 97,
            "midi": 43,
            "name": "G2",
            "ticks": 7890,
            "time": 13.69790296875,
            "velocity": 0.11811023622047244
          },
          {
            "duration": 0.16840260937499885,
            "durationTicks": 97,
            "midi": 43,
            "name": "G2",
            "ticks": 7894,
            "time": 13.70484740625,
            "velocity": 0.11811023622047244
          },
          {
            "duration": 0.16840260937499885,
            "durationTicks": 97,
            "midi": 43,
            "name": "G2",
            "ticks": 7972,
            "time": 13.8402639375,
            "velocity": 0.11811023622047244
          },
          {
            "duration": 0.16840260937500062,
            "durationTicks": 97,
            "midi": 43,
            "name": "G2",
            "ticks": 7977,
            "time": 13.848944484375,
            "velocity": 0.11811023622047244
          },
          {
            "duration": 0.16840260937500062,
            "durationTicks": 97,
            "midi": 55,
            "name": "G3",
            "ticks": 8054,
            "time": 13.982624906249999,
            "velocity": 0.12598425196850394
          },
          {
            "duration": 0.16840260937499707,
            "durationTicks": 97,
            "midi": 55,
            "name": "G3",
            "ticks": 8059,
            "time": 13.991305453125001,
            "velocity": 0.12598425196850394
          },
          {
            "duration": 0.16666649999999983,
            "durationTicks": 96,
            "midi": 43,
            "name": "G2",
            "ticks": 8141,
            "time": 14.133666421874999,
            "velocity": 0.11811023622047244
          },
          {
            "duration": 0.16666649999999983,
            "durationTicks": 96,
            "midi": 43,
            "name": "G2",
            "ticks": 8141,
            "time": 14.133666421874999,
            "velocity": 0.11811023622047244
          },
          {
            "duration": 0.16493039062499903,
            "durationTicks": 95,
            "midi": 43,
            "name": "G2",
            "ticks": 8224,
            "time": 14.2777635,
            "velocity": 0.12598425196850394
          },
          {
            "duration": 0.16493039062499903,
            "durationTicks": 95,
            "midi": 43,
            "name": "G2",
            "ticks": 8224,
            "time": 14.2777635,
            "velocity": 0.12598425196850394
          },
          {
            "duration": 0.16666649999999983,
            "durationTicks": 96,
            "midi": 53,
            "name": "F3",
            "ticks": 8305,
            "time": 14.418388359375001,
            "velocity": 0.12598425196850394
          },
          {
            "duration": 0.16666649999999983,
            "durationTicks": 96,
            "midi": 53,
            "name": "F3",
            "ticks": 8305,
            "time": 14.418388359375001,
            "velocity": 0.12598425196850394
          },
          {
            "duration": 0.16840260937500062,
            "durationTicks": 97,
            "midi": 43,
            "name": "G2",
            "ticks": 8387,
            "time": 14.560749328124999,
            "velocity": 0.12598425196850394
          },
          {
            "duration": 0.16840260937500062,
            "durationTicks": 97,
            "midi": 43,
            "name": "G2",
            "ticks": 8391,
            "time": 14.567693765625,
            "velocity": 0.12598425196850394
          },
          {
            "duration": 0.16840260937500062,
            "durationTicks": 97,
            "midi": 43,
            "name": "G2",
            "ticks": 8469,
            "time": 14.703110296875,
            "velocity": 0.12598425196850394
          },
          {
            "duration": 0.16840260937499707,
            "durationTicks": 97,
            "midi": 43,
            "name": "G2",
            "ticks": 8473,
            "time": 14.710054734375001,
            "velocity": 0.12598425196850394
          },
          {
            "duration": 0.16840260937499707,
            "durationTicks": 97,
            "midi": 51,
            "name": "D#3",
            "ticks": 8551,
            "time": 14.845471265625001,
            "velocity": 0.13385826771653545
          },
          {
            "duration": 0.16840260937500062,
            "durationTicks": 97,
            "midi": 51,
            "name": "D#3",
            "ticks": 8556,
            "time": 14.8541518125,
            "velocity": 0.13385826771653545
          },
          {
            "duration": 0.16840260937500062,
            "durationTicks": 97,
            "midi": 43,
            "name": "G2",
            "ticks": 8634,
            "time": 14.98956834375,
            "velocity": 0.11811023622047244
          },
          {
            "duration": 0.16840260937499885,
            "durationTicks": 97,
            "midi": 43,
            "name": "G2",
            "ticks": 8638,
            "time": 14.99651278125,
            "velocity": 0.11811023622047244
          },
          {
            "duration": 0.16840260937499885,
            "durationTicks": 97,
            "midi": 43,
            "name": "G2",
            "ticks": 8716,
            "time": 15.1319293125,
            "velocity": 0.11811023622047244
          },
          {
            "duration": 0.16840260937500062,
            "durationTicks": 97,
            "midi": 43,
            "name": "G2",
            "ticks": 8721,
            "time": 15.140609859375,
            "velocity": 0.11811023622047244
          },
          {
            "duration": 0.16840260937500062,
            "durationTicks": 97,
            "midi": 49,
            "name": "C#3",
            "ticks": 8799,
            "time": 15.276026390624999,
            "velocity": 0.12598425196850394
          },
          {
            "duration": 0.16840260937499885,
            "durationTicks": 97,
            "midi": 49,
            "name": "C#3",
            "ticks": 8803,
            "time": 15.282970828125,
            "velocity": 0.12598425196850394
          },
          {
            "duration": 0.16840260937499885,
            "durationTicks": 97,
            "midi": 43,
            "name": "G2",
            "ticks": 8881,
            "time": 15.418387359375,
            "velocity": 0.12598425196850394
          },
          {
            "duration": 0.1684026093750024,
            "durationTicks": 97,
            "midi": 43,
            "name": "G2",
            "ticks": 8885,
            "time": 15.425331796874998,
            "velocity": 0.12598425196850394
          },
          {
            "duration": 0.33506910937500045,
            "durationTicks": 193,
            "midi": 43,
            "name": "G2",
            "ticks": 8963,
            "time": 15.560748328125,
            "velocity": 0.12598425196850394
          },
          {
            "duration": 0.3350691093749987,
            "durationTicks": 193,
            "midi": 43,
            "name": "G2",
            "ticks": 8968,
            "time": 15.569428875,
            "velocity": 0.12598425196850394
          },
          {
            "duration": 0.16666649999999983,
            "durationTicks": 96,
            "midi": 50,
            "name": "D3",
            "ticks": 9050,
            "time": 15.71178984375,
            "velocity": 0.12598425196850394
          },
          {
            "duration": 0.16666649999999983,
            "durationTicks": 96,
            "midi": 50,
            "name": "D3",
            "ticks": 9050,
            "time": 15.71178984375,
            "velocity": 0.12598425196850394
          },
          {
            "duration": 0.16666649999999805,
            "durationTicks": 96,
            "midi": 51,
            "name": "D#3",
            "ticks": 9133,
            "time": 15.855886921875001,
            "velocity": 0.12598425196850394
          },
          {
            "duration": 0.16666649999999805,
            "durationTicks": 96,
            "midi": 51,
            "name": "D#3",
            "ticks": 9133,
            "time": 15.855886921875001,
            "velocity": 0.12598425196850394
          },
          {
            "duration": 0.1666665000000016,
            "durationTicks": 96,
            "midi": 43,
            "name": "G2",
            "ticks": 9215,
            "time": 15.998247890624999,
            "velocity": 0.12598425196850394
          },
          {
            "duration": 0.1666665000000016,
            "durationTicks": 96,
            "midi": 43,
            "name": "G2",
            "ticks": 9215,
            "time": 15.998247890624999,
            "velocity": 0.12598425196850394
          },
          {
            "duration": 0.16840260937500062,
            "durationTicks": 97,
            "midi": 43,
            "name": "G2",
            "ticks": 9296,
            "time": 16.138872749999997,
            "velocity": 0.11811023622047244
          },
          {
            "duration": 0.16840260937500062,
            "durationTicks": 97,
            "midi": 43,
            "name": "G2",
            "ticks": 9301,
            "time": 16.147553296875,
            "velocity": 0.11811023622047244
          },
          {
            "duration": 0.16840260937499707,
            "durationTicks": 97,
            "midi": 55,
            "name": "G3",
            "ticks": 9379,
            "time": 16.282969828125,
            "velocity": 0.13385826771653545
          },
          {
            "duration": 0.16840260937500418,
            "durationTicks": 97,
            "midi": 55,
            "name": "G3",
            "ticks": 9383,
            "time": 16.289914265624997,
            "velocity": 0.13385826771653545
          },
          {
            "duration": 0.16840260937500062,
            "durationTicks": 97,
            "midi": 43,
            "name": "G2",
            "ticks": 9461,
            "time": 16.425330796875,
            "velocity": 0.12598425196850394
          },
          {
            "duration": 0.16840260937499707,
            "durationTicks": 97,
            "midi": 43,
            "name": "G2",
            "ticks": 9466,
            "time": 16.43401134375,
            "velocity": 0.12598425196850394
          },
          {
            "duration": 0.16840260937500062,
            "durationTicks": 97,
            "midi": 43,
            "name": "G2",
            "ticks": 9544,
            "time": 16.569427875,
            "velocity": 0.11811023622047244
          },
          {
            "duration": 0.16840260937500062,
            "durationTicks": 97,
            "midi": 43,
            "name": "G2",
            "ticks": 9548,
            "time": 16.5763723125,
            "velocity": 0.11811023622047244
          },
          {
            "duration": 0.16840260937500062,
            "durationTicks": 97,
            "midi": 53,
            "name": "F3",
            "ticks": 9626,
            "time": 16.71178884375,
            "velocity": 0.12598425196850394
          },
          {
            "duration": 0.16840260937500062,
            "durationTicks": 97,
            "midi": 53,
            "name": "F3",
            "ticks": 9630,
            "time": 16.71873328125,
            "velocity": 0.12598425196850394
          },
          {
            "duration": 0.16840260937500062,
            "durationTicks": 97,
            "midi": 43,
            "name": "G2",
            "ticks": 9708,
            "time": 16.8541498125,
            "velocity": 0.12598425196850394
          },
          {
            "duration": 0.16840260937500062,
            "durationTicks": 97,
            "midi": 43,
            "name": "G2",
            "ticks": 9713,
            "time": 16.862830359375,
            "velocity": 0.12598425196850394
          },
          {
            "duration": 0.16840260937500062,
            "durationTicks": 97,
            "midi": 43,
            "name": "G2",
            "ticks": 9791,
            "time": 16.998246890624998,
            "velocity": 0.12598425196850394
          },
          {
            "duration": 0.16840260937500062,
            "durationTicks": 97,
            "midi": 43,
            "name": "G2",
            "ticks": 9795,
            "time": 17.005191328125,
            "velocity": 0.12598425196850394
          },
          {
            "duration": 0.16840260937500062,
            "durationTicks": 97,
            "midi": 66,
            "name": "F#4",
            "ticks": 9873,
            "time": 17.140607859375,
            "velocity": 0.12598425196850394
          },
          {
            "duration": 0.16840260937500062,
            "durationTicks": 97,
            "midi": 69,
            "name": "A4",
            "ticks": 9878,
            "time": 17.149288406249998,
            "velocity": 0.12598425196850394
          },
          {
            "duration": 0.16840260937500062,
            "durationTicks": 97,
            "midi": 63,
            "name": "D#4",
            "ticks": 9917,
            "time": 17.216996671875,
            "velocity": 0.11811023622047244
          },
          {
            "duration": 0.16840260937499707,
            "durationTicks": 97,
            "midi": 67,
            "name": "G4",
            "ticks": 9922,
            "time": 17.22567721875,
            "velocity": 0.11811023622047244
          },
          {
            "duration": 0.16840260937500062,
            "durationTicks": 97,
            "midi": 62,
            "name": "D4",
            "ticks": 9960,
            "time": 17.291649375,
            "velocity": 0.12598425196850394
          },
          {
            "duration": 0.16840260937500062,
            "durationTicks": 97,
            "midi": 66,
            "name": "F#4",
            "ticks": 9960,
            "time": 17.291649375,
            "velocity": 0.12598425196850394
          },
          {
            "duration": 0.16840260937500062,
            "durationTicks": 97,
            "midi": 66,
            "name": "F#4",
            "ticks": 9999,
            "time": 17.359357640625,
            "velocity": 0.11811023622047244
          },
          {
            "duration": 0.16840260937500062,
            "durationTicks": 97,
            "midi": 69,
            "name": "A4",
            "ticks": 10004,
            "time": 17.368038187499998,
            "velocity": 0.11811023622047244
          },
          {
            "duration": 0.1666665000000016,
            "durationTicks": 96,
            "midi": 72,
            "name": "C5",
            "ticks": 10043,
            "time": 17.435746453125,
            "velocity": 0.12598425196850394
          },
          {
            "duration": 0.1666665000000016,
            "durationTicks": 96,
            "midi": 69,
            "name": "A4",
            "ticks": 10043,
            "time": 17.435746453125,
            "velocity": 0.12598425196850394
          },
          {
            "duration": 0.16840260937500062,
            "durationTicks": 97,
            "midi": 67,
            "name": "G4",
            "ticks": 10082,
            "time": 17.50345471875,
            "velocity": 0.11023622047244094
          },
          {
            "duration": 0.16840260937500062,
            "durationTicks": 97,
            "midi": 70,
            "name": "A#4",
            "ticks": 10086,
            "time": 17.51039915625,
            "velocity": 0.11023622047244094
          },
          {
            "duration": 0.16840260937500062,
            "durationTicks": 97,
            "midi": 69,
            "name": "A4",
            "ticks": 10126,
            "time": 17.57984353125,
            "velocity": 0.12598425196850394
          },
          {
            "duration": 0.16840260937500062,
            "durationTicks": 97,
            "midi": 66,
            "name": "F#4",
            "ticks": 10126,
            "time": 17.57984353125,
            "velocity": 0.12598425196850394
          },
          {
            "duration": 0.17013871874999964,
            "durationTicks": 98,
            "midi": 62,
            "name": "D4",
            "ticks": 10164,
            "time": 17.6458156875,
            "velocity": 0.11811023622047244
          },
          {
            "duration": 0.17013871874999964,
            "durationTicks": 98,
            "midi": 66,
            "name": "F#4",
            "ticks": 10169,
            "time": 17.654496234375,
            "velocity": 0.11811023622047244
          },
          {
            "duration": 0.17013871874999964,
            "durationTicks": 98,
            "midi": 66,
            "name": "F#4",
            "ticks": 10208,
            "time": 17.7222045,
            "velocity": 0.12598425196850394
          },
          {
            "duration": 0.17013871874999964,
            "durationTicks": 98,
            "midi": 69,
            "name": "A4",
            "ticks": 10213,
            "time": 17.730885046875,
            "velocity": 0.12598425196850394
          },
          {
            "duration": 0.17013871874999964,
            "durationTicks": 98,
            "midi": 67,
            "name": "G4",
            "ticks": 10248,
            "time": 17.791648875,
            "velocity": 0.11023622047244094
          },
          {
            "duration": 0.17013871874999964,
            "durationTicks": 98,
            "midi": 70,
            "name": "A#4",
            "ticks": 10252,
            "time": 17.7985933125,
            "velocity": 0.11023622047244094
          },
          {
            "duration": 0.17013871874999964,
            "durationTicks": 98,
            "midi": 69,
            "name": "A4",
            "ticks": 10292,
            "time": 17.8680376875,
            "velocity": 0.12598425196850394
          },
          {
            "duration": 0.17013871874999964,
            "durationTicks": 98,
            "midi": 72,
            "name": "C5",
            "ticks": 10296,
            "time": 17.874982125,
            "velocity": 0.12598425196850394
          },
          {
            "duration": 0.17013871874999964,
            "durationTicks": 98,
            "midi": 70,
            "name": "A#4",
            "ticks": 10331,
            "time": 17.935745953125,
            "velocity": 0.11811023622047244
          },
          {
            "duration": 0.17013871874999964,
            "durationTicks": 98,
            "midi": 74,
            "name": "D5",
            "ticks": 10336,
            "time": 17.9444265,
            "velocity": 0.11811023622047244
          },
          {
            "duration": 0.17013871874999964,
            "durationTicks": 98,
            "midi": 69,
            "name": "A4",
            "ticks": 10375,
            "time": 18.012134765625,
            "velocity": 0.12598425196850394
          },
          {
            "duration": 0.17013871874999964,
            "durationTicks": 98,
            "midi": 72,
            "name": "C5",
            "ticks": 10379,
            "time": 18.019079203125,
            "velocity": 0.12598425196850394
          },
          {
            "duration": 0.16840260937500062,
            "durationTicks": 97,
            "midi": 67,
            "name": "G4",
            "ticks": 10419,
            "time": 18.088523578125,
            "velocity": 0.11023622047244094
          },
          {
            "duration": 0.16840260937500062,
            "durationTicks": 97,
            "midi": 70,
            "name": "A#4",
            "ticks": 10419,
            "time": 18.088523578125,
            "velocity": 0.11023622047244094
          },
          {
            "duration": 0.16840260937500062,
            "durationTicks": 97,
            "midi": 66,
            "name": "F#4",
            "ticks": 10458,
            "time": 18.15623184375,
            "velocity": 0.12598425196850394
          },
          {
            "duration": 0.16840260937500062,
            "durationTicks": 97,
            "midi": 69,
            "name": "A4",
            "ticks": 10463,
            "time": 18.164912390625,
            "velocity": 0.12598425196850394
          },
          {
            "duration": 0.16666649999999805,
            "durationTicks": 96,
            "midi": 66,
            "name": "F#4",
            "ticks": 10502,
            "time": 18.23262065625,
            "velocity": 0.11811023622047244
          },
          {
            "duration": 0.16666649999999805,
            "durationTicks": 96,
            "midi": 62,
            "name": "D4",
            "ticks": 10502,
            "time": 18.23262065625,
            "velocity": 0.11811023622047244
          },
          {
            "duration": 0.16840260937500062,
            "durationTicks": 97,
            "midi": 43,
            "name": "G2",
            "ticks": 10541,
            "time": 18.300328921875,
            "velocity": 0.11811023622047244
          },
          {
            "duration": 0.16840260937500062,
            "durationTicks": 97,
            "midi": 43,
            "name": "G2",
            "ticks": 10545,
            "time": 18.307273359375,
            "velocity": 0.11811023622047244
          },
          {
            "duration": 0.16840260937500062,
            "durationTicks": 97,
            "midi": 43,
            "name": "G2",
            "ticks": 10623,
            "time": 18.442689890625,
            "velocity": 0.12598425196850394
          },
          {
            "duration": 0.16840260937500062,
            "durationTicks": 97,
            "midi": 43,
            "name": "G2",
            "ticks": 10628,
            "time": 18.4513704375,
            "velocity": 0.12598425196850394
          },
          {
            "duration": 0.16840260937500062,
            "durationTicks": 97,
            "midi": 55,
            "name": "G3",
            "ticks": 10706,
            "time": 18.586786968749998,
            "velocity": 0.12598425196850394
          },
          {
            "duration": 0.16840260937500062,
            "durationTicks": 97,
            "midi": 55,
            "name": "G3",
            "ticks": 10710,
            "time": 18.59373140625,
            "velocity": 0.12598425196850394
          },
          {
            "duration": 0.16840260937500062,
            "durationTicks": 97,
            "midi": 43,
            "name": "G2",
            "ticks": 10788,
            "time": 18.7291479375,
            "velocity": 0.12598425196850394
          },
          {
            "duration": 0.16840260937499707,
            "durationTicks": 97,
            "midi": 43,
            "name": "G2",
            "ticks": 10792,
            "time": 18.736092375000002,
            "velocity": 0.12598425196850394
          },
          {
            "duration": 0.1666665000000016,
            "durationTicks": 96,
            "midi": 43,
            "name": "G2",
            "ticks": 10875,
            "time": 18.880189453125,
            "velocity": 0.12598425196850394
          },
          {
            "duration": 0.1666665000000016,
            "durationTicks": 96,
            "midi": 43,
            "name": "G2",
            "ticks": 10875,
            "time": 18.880189453125,
            "velocity": 0.12598425196850394
          },
          {
            "duration": 0.16493039062499903,
            "durationTicks": 95,
            "midi": 53,
            "name": "F3",
            "ticks": 10957,
            "time": 19.022550421875,
            "velocity": 0.12598425196850394
          },
          {
            "duration": 0.16493039062499903,
            "durationTicks": 95,
            "midi": 53,
            "name": "F3",
            "ticks": 10957,
            "time": 19.022550421875,
            "velocity": 0.12598425196850394
          },
          {
            "duration": 0.1666665000000016,
            "durationTicks": 96,
            "midi": 43,
            "name": "G2",
            "ticks": 11039,
            "time": 19.164911390624997,
            "velocity": 0.11811023622047244
          },
          {
            "duration": 0.1666665000000016,
            "durationTicks": 96,
            "midi": 43,
            "name": "G2",
            "ticks": 11039,
            "time": 19.164911390624997,
            "velocity": 0.11811023622047244
          },
          {
            "duration": 0.16840260937500062,
            "durationTicks": 97,
            "midi": 43,
            "name": "G2",
            "ticks": 11120,
            "time": 19.30553625,
            "velocity": 0.12598425196850394
          },
          {
            "duration": 0.16840260937499707,
            "durationTicks": 97,
            "midi": 43,
            "name": "G2",
            "ticks": 11125,
            "time": 19.314216796875,
            "velocity": 0.12598425196850394
          },
          {
            "duration": 0.16840260937500062,
            "durationTicks": 97,
            "midi": 51,
            "name": "D#3",
            "ticks": 11202,
            "time": 19.44789721875,
            "velocity": 0.12598425196850394
          },
          {
            "duration": 0.16840260937500062,
            "durationTicks": 97,
            "midi": 51,
            "name": "D#3",
            "ticks": 11207,
            "time": 19.456577765625,
            "velocity": 0.12598425196850394
          },
          {
            "duration": 0.16840260937500062,
            "durationTicks": 97,
            "midi": 43,
            "name": "G2",
            "ticks": 11285,
            "time": 19.591994296874997,
            "velocity": 0.11811023622047244
          },
          {
            "duration": 0.16840260937500062,
            "durationTicks": 97,
            "midi": 43,
            "name": "G2",
            "ticks": 11289,
            "time": 19.598938734375,
            "velocity": 0.11811023622047244
          },
          {
            "duration": 0.16840260937500062,
            "durationTicks": 97,
            "midi": 43,
            "name": "G2",
            "ticks": 11367,
            "time": 19.734355265625,
            "velocity": 0.12598425196850394
          },
          {
            "duration": 0.16840260937500418,
            "durationTicks": 97,
            "midi": 43,
            "name": "G2",
            "ticks": 11372,
            "time": 19.743035812499997,
            "velocity": 0.12598425196850394
          },
          {
            "duration": 0.16840260937500062,
            "durationTicks": 97,
            "midi": 49,
            "name": "C#3",
            "ticks": 11450,
            "time": 19.87845234375,
            "velocity": 0.12598425196850394
          },
          {
            "duration": 0.16840260937500062,
            "durationTicks": 97,
            "midi": 49,
            "name": "C#3",
            "ticks": 11454,
            "time": 19.885396781249998,
            "velocity": 0.12598425196850394
          },
          {
            "duration": 0.16840260937500062,
            "durationTicks": 97,
            "midi": 43,
            "name": "G2",
            "ticks": 11532,
            "time": 20.0208133125,
            "velocity": 0.12598425196850394
          },
          {
            "duration": 0.16840260937500062,
            "durationTicks": 97,
            "midi": 43,
            "name": "G2",
            "ticks": 11536,
            "time": 20.02775775,
            "velocity": 0.12598425196850394
          },
          {
            "duration": 0.3368052187499977,
            "durationTicks": 194,
            "midi": 43,
            "name": "G2",
            "ticks": 11614,
            "time": 20.16317428125,
            "velocity": 0.12598425196850394
          },
          {
            "duration": 0.3368052187499977,
            "durationTicks": 194,
            "midi": 43,
            "name": "G2",
            "ticks": 11619,
            "time": 20.171854828125,
            "velocity": 0.12598425196850394
          },
          {
            "duration": 0.16840260937500062,
            "durationTicks": 97,
            "midi": 50,
            "name": "D3",
            "ticks": 11697,
            "time": 20.307271359375,
            "velocity": 0.12598425196850394
          },
          {
            "duration": 0.16840260937499707,
            "durationTicks": 97,
            "midi": 50,
            "name": "D3",
            "ticks": 11701,
            "time": 20.314215796875,
            "velocity": 0.12598425196850394
          },
          {
            "duration": 0.16840260937500062,
            "durationTicks": 97,
            "midi": 51,
            "name": "D#3",
            "ticks": 11784,
            "time": 20.458312875,
            "velocity": 0.13385826771653545
          },
          {
            "duration": 0.16840260937500062,
            "durationTicks": 97,
            "midi": 51,
            "name": "D#3",
            "ticks": 11784,
            "time": 20.458312875,
            "velocity": 0.13385826771653545
          },
          {
            "duration": 0.1649303906250026,
            "durationTicks": 95,
            "midi": 43,
            "name": "G2",
            "ticks": 11867,
            "time": 20.602409953124997,
            "velocity": 0.12598425196850394
          },
          {
            "duration": 0.1649303906250026,
            "durationTicks": 95,
            "midi": 43,
            "name": "G2",
            "ticks": 11867,
            "time": 20.602409953124997,
            "velocity": 0.12598425196850394
          },
          {
            "duration": 0.16666649999999805,
            "durationTicks": 96,
            "midi": 43,
            "name": "G2",
            "ticks": 11948,
            "time": 20.7430348125,
            "velocity": 0.12598425196850394
          },
          {
            "duration": 0.16666649999999805,
            "durationTicks": 96,
            "midi": 43,
            "name": "G2",
            "ticks": 11948,
            "time": 20.7430348125,
            "velocity": 0.12598425196850394
          },
          {
            "duration": 0.16840260937500062,
            "durationTicks": 97,
            "midi": 55,
            "name": "G3",
            "ticks": 12030,
            "time": 20.88539578125,
            "velocity": 0.12598425196850394
          },
          {
            "duration": 0.16840260937499707,
            "durationTicks": 97,
            "midi": 55,
            "name": "G3",
            "ticks": 12034,
            "time": 20.89234021875,
            "velocity": 0.12598425196850394
          },
          {
            "duration": 0.16840260937499707,
            "durationTicks": 97,
            "midi": 43,
            "name": "G2",
            "ticks": 12112,
            "time": 21.02775675,
            "velocity": 0.11811023622047244
          },
          {
            "duration": 0.16840260937500062,
            "durationTicks": 97,
            "midi": 43,
            "name": "G2",
            "ticks": 12117,
            "time": 21.036437296875,
            "velocity": 0.11811023622047244
          },
          {
            "duration": 0.16840260937500062,
            "durationTicks": 97,
            "midi": 43,
            "name": "G2",
            "ticks": 12195,
            "time": 21.171853828125,
            "velocity": 0.11811023622047244
          },
          {
            "duration": 0.16840260937500062,
            "durationTicks": 97,
            "midi": 43,
            "name": "G2",
            "ticks": 12199,
            "time": 21.178798265625,
            "velocity": 0.11811023622047244
          },
          {
            "duration": 0.16840260937500062,
            "durationTicks": 97,
            "midi": 53,
            "name": "F3",
            "ticks": 12277,
            "time": 21.314214796875,
            "velocity": 0.11811023622047244
          },
          {
            "duration": 0.16840260937500062,
            "durationTicks": 97,
            "midi": 53,
            "name": "F3",
            "ticks": 12282,
            "time": 21.322895343749998,
            "velocity": 0.11811023622047244
          },
          {
            "duration": 0.16840260937499707,
            "durationTicks": 97,
            "midi": 43,
            "name": "G2",
            "ticks": 12359,
            "time": 21.456575765625,
            "velocity": 0.12598425196850394
          },
          {
            "duration": 0.16840260937500062,
            "durationTicks": 97,
            "midi": 43,
            "name": "G2",
            "ticks": 12364,
            "time": 21.4652563125,
            "velocity": 0.12598425196850394
          },
          {
            "duration": 0.16840260937500418,
            "durationTicks": 97,
            "midi": 43,
            "name": "G2",
            "ticks": 12442,
            "time": 21.600672843749997,
            "velocity": 0.11811023622047244
          },
          {
            "duration": 0.16840260937500062,
            "durationTicks": 97,
            "midi": 43,
            "name": "G2",
            "ticks": 12446,
            "time": 21.60761728125,
            "velocity": 0.11811023622047244
          },
          {
            "duration": 0.16840260937499707,
            "durationTicks": 97,
            "midi": 51,
            "name": "D#3",
            "ticks": 12524,
            "time": 21.743033812500002,
            "velocity": 0.13385826771653545
          },
          {
            "duration": 0.16840260937500418,
            "durationTicks": 97,
            "midi": 51,
            "name": "D#3",
            "ticks": 12529,
            "time": 21.751714359374997,
            "velocity": 0.13385826771653545
          },
          {
            "duration": 0.16840260937500062,
            "durationTicks": 97,
            "midi": 43,
            "name": "G2",
            "ticks": 12607,
            "time": 21.887130890625,
            "velocity": 0.12598425196850394
          },
          {
            "duration": 0.16840260937499707,
            "durationTicks": 97,
            "midi": 43,
            "name": "G2",
            "ticks": 12611,
            "time": 21.894075328125002,
            "velocity": 0.12598425196850394
          },
          {
            "duration": 0.8333325000000009,
            "durationTicks": 480,
            "midi": 43,
            "name": "G2",
            "ticks": 12693,
            "time": 22.036436296875,
            "velocity": 0.12598425196850394
          },
          {
            "duration": 0.8333325000000009,
            "durationTicks": 480,
            "midi": 43,
            "name": "G2",
            "ticks": 12693,
            "time": 22.036436296875,
            "velocity": 0.12598425196850394
          },
          {
            "duration": 0.6666660000000029,
            "durationTicks": 384,
            "midi": 49,
            "name": "C#3",
            "ticks": 12776,
            "time": 22.180533375,
            "velocity": 0.12598425196850394
          },
          {
            "duration": 0.6666660000000029,
            "durationTicks": 384,
            "midi": 49,
            "name": "C#3",
            "ticks": 12776,
            "time": 22.180533375,
            "velocity": 0.12598425196850394
          },
          {
            "duration": 0.16840260937499707,
            "durationTicks": 97,
            "midi": 43,
            "name": "G2",
            "ticks": 13185,
            "time": 22.890602109375,
            "velocity": 0.11811023622047244
          },
          {
            "duration": 0.16840260937500062,
            "durationTicks": 97,
            "midi": 43,
            "name": "G2",
            "ticks": 13189,
            "time": 22.897546546875,
            "velocity": 0.11811023622047244
          },
          {
            "duration": 0.16840260937500418,
            "durationTicks": 97,
            "midi": 43,
            "name": "G2",
            "ticks": 13267,
            "time": 23.032963078124997,
            "velocity": 0.11811023622047244
          },
          {
            "duration": 0.16840260937499707,
            "durationTicks": 97,
            "midi": 43,
            "name": "G2",
            "ticks": 13272,
            "time": 23.041643625,
            "velocity": 0.11811023622047244
          },
          {
            "duration": 0.16840260937499707,
            "durationTicks": 97,
            "midi": 55,
            "name": "G3",
            "ticks": 13350,
            "time": 23.17706015625,
            "velocity": 0.12598425196850394
          },
          {
            "duration": 0.16840260937500418,
            "durationTicks": 97,
            "midi": 55,
            "name": "G3",
            "ticks": 13354,
            "time": 23.184004593749997,
            "velocity": 0.12598425196850394
          },
          {
            "duration": 0.16840260937500418,
            "durationTicks": 97,
            "midi": 43,
            "name": "G2",
            "ticks": 13432,
            "time": 23.319421124999998,
            "velocity": 0.11811023622047244
          },
          {
            "duration": 0.16840260937499707,
            "durationTicks": 97,
            "midi": 43,
            "name": "G2",
            "ticks": 13437,
            "time": 23.328101671875,
            "velocity": 0.11811023622047244
          },
          {
            "duration": 0.16840260937500062,
            "durationTicks": 97,
            "midi": 43,
            "name": "G2",
            "ticks": 13514,
            "time": 23.46178209375,
            "velocity": 0.12598425196850394
          },
          {
            "duration": 0.16840260937500418,
            "durationTicks": 97,
            "midi": 43,
            "name": "G2",
            "ticks": 13519,
            "time": 23.470462640624998,
            "velocity": 0.12598425196850394
          },
          {
            "duration": 0.16666649999999805,
            "durationTicks": 96,
            "midi": 53,
            "name": "F3",
            "ticks": 13601,
            "time": 23.612823609375003,
            "velocity": 0.12598425196850394
          },
          {
            "duration": 0.16666649999999805,
            "durationTicks": 96,
            "midi": 53,
            "name": "F3",
            "ticks": 13601,
            "time": 23.612823609375003,
            "velocity": 0.12598425196850394
          },
          {
            "duration": 0.16493039062499903,
            "durationTicks": 95,
            "midi": 43,
            "name": "G2",
            "ticks": 13684,
            "time": 23.7569206875,
            "velocity": 0.12598425196850394
          },
          {
            "duration": 0.16493039062499903,
            "durationTicks": 95,
            "midi": 43,
            "name": "G2",
            "ticks": 13684,
            "time": 23.7569206875,
            "velocity": 0.12598425196850394
          },
          {
            "duration": 0.1666665000000016,
            "durationTicks": 96,
            "midi": 43,
            "name": "G2",
            "ticks": 13765,
            "time": 23.897545546874998,
            "velocity": 0.12598425196850394
          },
          {
            "duration": 0.1666665000000016,
            "durationTicks": 96,
            "midi": 43,
            "name": "G2",
            "ticks": 13765,
            "time": 23.897545546874998,
            "velocity": 0.12598425196850394
          },
          {
            "duration": 0.16840260937500418,
            "durationTicks": 97,
            "midi": 51,
            "name": "D#3",
            "ticks": 13846,
            "time": 24.038170406249996,
            "velocity": 0.13385826771653545
          },
          {
            "duration": 0.16840260937500062,
            "durationTicks": 97,
            "midi": 51,
            "name": "D#3",
            "ticks": 13851,
            "time": 24.046850953125,
            "velocity": 0.13385826771653545
          },
          {
            "duration": 0.16840260937499707,
            "durationTicks": 97,
            "midi": 43,
            "name": "G2",
            "ticks": 13929,
            "time": 24.182267484375,
            "velocity": 0.11811023622047244
          },
          {
            "duration": 0.16840260937500418,
            "durationTicks": 97,
            "midi": 43,
            "name": "G2",
            "ticks": 13933,
            "time": 24.189211921874996,
            "velocity": 0.11811023622047244
          },
          {
            "duration": 0.16840260937500418,
            "durationTicks": 97,
            "midi": 43,
            "name": "G2",
            "ticks": 14011,
            "time": 24.324628453124998,
            "velocity": 0.11811023622047244
          },
          {
            "duration": 0.16840260937499707,
            "durationTicks": 97,
            "midi": 43,
            "name": "G2",
            "ticks": 14016,
            "time": 24.333309,
            "velocity": 0.11811023622047244
          },
          {
            "duration": 0.16840260937500062,
            "durationTicks": 97,
            "midi": 49,
            "name": "C#3",
            "ticks": 14094,
            "time": 24.468725531249998,
            "velocity": 0.12598425196850394
          },
          {
            "duration": 0.16840260937500418,
            "durationTicks": 97,
            "midi": 49,
            "name": "C#3",
            "ticks": 14098,
            "time": 24.475669968749997,
            "velocity": 0.12598425196850394
          },
          {
            "duration": 0.16840260937500062,
            "durationTicks": 97,
            "midi": 43,
            "name": "G2",
            "ticks": 14176,
            "time": 24.6110865,
            "velocity": 0.12598425196850394
          },
          {
            "duration": 0.16840260937500062,
            "durationTicks": 97,
            "midi": 43,
            "name": "G2",
            "ticks": 14181,
            "time": 24.619767046874998,
            "velocity": 0.12598425196850394
          },
          {
            "duration": 0.3368052187499977,
            "durationTicks": 194,
            "midi": 43,
            "name": "G2",
            "ticks": 14258,
            "time": 24.75344746875,
            "velocity": 0.12598425196850394
          },
          {
            "duration": 0.33680521875000125,
            "durationTicks": 194,
            "midi": 43,
            "name": "G2",
            "ticks": 14263,
            "time": 24.762128015625,
            "velocity": 0.12598425196850394
          },
          {
            "duration": 0.16840260937500418,
            "durationTicks": 97,
            "midi": 50,
            "name": "D3",
            "ticks": 14341,
            "time": 24.897544546874997,
            "velocity": 0.12598425196850394
          },
          {
            "duration": 0.16840260937500062,
            "durationTicks": 97,
            "midi": 50,
            "name": "D3",
            "ticks": 14345,
            "time": 24.904488984375,
            "velocity": 0.12598425196850394
          },
          {
            "duration": 0.1701387187499961,
            "durationTicks": 98,
            "midi": 51,
            "name": "D#3",
            "ticks": 14423,
            "time": 25.039905515625,
            "velocity": 0.12598425196850394
          },
          {
            "duration": 0.1701387187500032,
            "durationTicks": 98,
            "midi": 51,
            "name": "D#3",
            "ticks": 14428,
            "time": 25.048586062499997,
            "velocity": 0.12598425196850394
          },
          {
            "duration": 0.16666649999999805,
            "durationTicks": 96,
            "midi": 43,
            "name": "G2",
            "ticks": 14511,
            "time": 25.192683140625,
            "velocity": 0.12598425196850394
          },
          {
            "duration": 0.16666649999999805,
            "durationTicks": 96,
            "midi": 43,
            "name": "G2",
            "ticks": 14511,
            "time": 25.192683140625,
            "velocity": 0.12598425196850394
          },
          {
            "duration": 0.16493039062499903,
            "durationTicks": 95,
            "midi": 43,
            "name": "G2",
            "ticks": 14594,
            "time": 25.33678021875,
            "velocity": 0.11811023622047244
          },
          {
            "duration": 0.3315968906249971,
            "durationTicks": 191,
            "midi": 43,
            "name": "G2",
            "ticks": 14594,
            "time": 25.33678021875,
            "velocity": 0.11811023622047244
          },
          {
            "duration": 0.16666649999999805,
            "durationTicks": 96,
            "midi": 55,
            "name": "G3",
            "ticks": 14675,
            "time": 25.477405078125003,
            "velocity": 0.13385826771653545
          },
          {
            "duration": 0.16666649999999805,
            "durationTicks": 96,
            "midi": 55,
            "name": "G3",
            "ticks": 14675,
            "time": 25.477405078125003,
            "velocity": 0.13385826771653545
          },
          {
            "duration": 0.16840260937499707,
            "durationTicks": 97,
            "midi": 43,
            "name": "G2",
            "ticks": 14756,
            "time": 25.6180299375,
            "velocity": 0.12598425196850394
          },
          {
            "duration": 0.16840260937500418,
            "durationTicks": 97,
            "midi": 43,
            "name": "G2",
            "ticks": 14761,
            "time": 25.626710484374996,
            "velocity": 0.12598425196850394
          },
          {
            "duration": 0.16840260937500418,
            "durationTicks": 97,
            "midi": 43,
            "name": "G2",
            "ticks": 14839,
            "time": 25.762127015624998,
            "velocity": 0.11811023622047244
          },
          {
            "duration": 0.16840260937499707,
            "durationTicks": 97,
            "midi": 43,
            "name": "G2",
            "ticks": 14843,
            "time": 25.769071453125,
            "velocity": 0.11811023622047244
          },
          {
            "duration": 0.16840260937499707,
            "durationTicks": 97,
            "midi": 53,
            "name": "F3",
            "ticks": 14921,
            "time": 25.904487984375002,
            "velocity": 0.12598425196850394
          },
          {
            "duration": 0.16840260937500418,
            "durationTicks": 97,
            "midi": 53,
            "name": "F3",
            "ticks": 14926,
            "time": 25.913168531249998,
            "velocity": 0.12598425196850394
          },
          {
            "duration": 0.16840260937499707,
            "durationTicks": 97,
            "midi": 43,
            "name": "G2",
            "ticks": 15003,
            "time": 26.046848953125,
            "velocity": 0.12598425196850394
          },
          {
            "duration": 0.16840260937499707,
            "durationTicks": 97,
            "midi": 43,
            "name": "G2",
            "ticks": 15008,
            "time": 26.055529500000002,
            "velocity": 0.12598425196850394
          },
          {
            "duration": 0.16840260937500062,
            "durationTicks": 97,
            "midi": 43,
            "name": "G2",
            "ticks": 15086,
            "time": 26.19094603125,
            "velocity": 0.12598425196850394
          },
          {
            "duration": 0.16840260937499707,
            "durationTicks": 97,
            "midi": 43,
            "name": "G2",
            "ticks": 15090,
            "time": 26.19789046875,
            "velocity": 0.12598425196850394
          },
          {
            "duration": 0.1701387187500032,
            "durationTicks": 98,
            "midi": 70,
            "name": "A#4",
            "ticks": 15168,
            "time": 26.333306999999998,
            "velocity": 0.12598425196850394
          },
          {
            "duration": 0.1701387187499961,
            "durationTicks": 98,
            "midi": 74,
            "name": "D5",
            "ticks": 15173,
            "time": 26.341987546875,
            "velocity": 0.12598425196850394
          },
          {
            "duration": 0.1701387187499961,
            "durationTicks": 98,
            "midi": 67,
            "name": "G4",
            "ticks": 15212,
            "time": 26.4096958125,
            "velocity": 0.11811023622047244
          },
          {
            "duration": 0.17013871874999964,
            "durationTicks": 98,
            "midi": 70,
            "name": "A#4",
            "ticks": 15217,
            "time": 26.418376359375,
            "velocity": 0.11811023622047244
          },
          {
            "duration": 0.17013871874999964,
            "durationTicks": 98,
            "midi": 62,
            "name": "D4",
            "ticks": 15252,
            "time": 26.4791401875,
            "velocity": 0.12598425196850394
          },
          {
            "duration": 0.1701387187500032,
            "durationTicks": 98,
            "midi": 67,
            "name": "G4",
            "ticks": 15256,
            "time": 26.486084624999997,
            "velocity": 0.12598425196850394
          },
          {
            "duration": 0.1701387187499961,
            "durationTicks": 98,
            "midi": 67,
            "name": "G4",
            "ticks": 15296,
            "time": 26.555529,
            "velocity": 0.11811023622047244
          },
          {
            "duration": 0.17013871874999964,
            "durationTicks": 98,
            "midi": 70,
            "name": "A#4",
            "ticks": 15300,
            "time": 26.5624734375,
            "velocity": 0.11811023622047244
          },
          {
            "duration": 0.1701387187499961,
            "durationTicks": 98,
            "midi": 70,
            "name": "A#4",
            "ticks": 15335,
            "time": 26.623237265625,
            "velocity": 0.12598425196850394
          },
          {
            "duration": 0.17013871874999964,
            "durationTicks": 98,
            "midi": 74,
            "name": "D5",
            "ticks": 15340,
            "time": 26.6319178125,
            "velocity": 0.12598425196850394
          },
          {
            "duration": 0.1701387187500032,
            "durationTicks": 98,
            "midi": 67,
            "name": "G4",
            "ticks": 15379,
            "time": 26.699626078124997,
            "velocity": 0.11023622047244094
          },
          {
            "duration": 0.17013871874999964,
            "durationTicks": 98,
            "midi": 70,
            "name": "A#4",
            "ticks": 15383,
            "time": 26.706570515625,
            "velocity": 0.11023622047244094
          },
          {
            "duration": 0.16840260937499707,
            "durationTicks": 97,
            "midi": 74,
            "name": "D5",
            "ticks": 15423,
            "time": 26.776014890625,
            "velocity": 0.12598425196850394
          },
          {
            "duration": 0.16840260937499707,
            "durationTicks": 97,
            "midi": 70,
            "name": "A#4",
            "ticks": 15423,
            "time": 26.776014890625,
            "velocity": 0.12598425196850394
          },
          {
            "duration": 0.16840260937499707,
            "durationTicks": 97,
            "midi": 74,
            "name": "D5",
            "ticks": 15462,
            "time": 26.84372315625,
            "velocity": 0.11811023622047244
          },
          {
            "duration": 0.16840260937499707,
            "durationTicks": 97,
            "midi": 79,
            "name": "G5",
            "ticks": 15467,
            "time": 26.852403703125002,
            "velocity": 0.11811023622047244
          },
          {
            "duration": 0.1666665000000016,
            "durationTicks": 96,
            "midi": 74,
            "name": "D5",
            "ticks": 15506,
            "time": 26.92011196875,
            "velocity": 0.12598425196850394
          },
          {
            "duration": 0.1666665000000016,
            "durationTicks": 96,
            "midi": 70,
            "name": "A#4",
            "ticks": 15506,
            "time": 26.92011196875,
            "velocity": 0.12598425196850394
          },
          {
            "duration": 0.16840260937499707,
            "durationTicks": 97,
            "midi": 67,
            "name": "G4",
            "ticks": 15545,
            "time": 26.987820234375,
            "velocity": 0.11023622047244094
          },
          {
            "duration": 0.16840260937499707,
            "durationTicks": 97,
            "midi": 70,
            "name": "A#4",
            "ticks": 15549,
            "time": 26.994764671875,
            "velocity": 0.11023622047244094
          },
          {
            "duration": 0.16840260937500418,
            "durationTicks": 97,
            "midi": 70,
            "name": "A#4",
            "ticks": 15589,
            "time": 27.064209046874996,
            "velocity": 0.12598425196850394
          },
          {
            "duration": 0.16840260937500418,
            "durationTicks": 97,
            "midi": 74,
            "name": "D5",
            "ticks": 15589,
            "time": 27.064209046874996,
            "velocity": 0.12598425196850394
          },
          {
            "duration": 0.1701387187500032,
            "durationTicks": 98,
            "midi": 67,
            "name": "G4",
            "ticks": 15627,
            "time": 27.130181203124998,
            "velocity": 0.11811023622047244
          },
          {
            "duration": 0.1701387187499961,
            "durationTicks": 98,
            "midi": 70,
            "name": "A#4",
            "ticks": 15632,
            "time": 27.13886175,
            "velocity": 0.11811023622047244
          },
          {
            "duration": 0.1701387187499961,
            "durationTicks": 98,
            "midi": 70,
            "name": "A#4",
            "ticks": 15671,
            "time": 27.206570015625,
            "velocity": 0.12598425196850394
          },
          {
            "duration": 0.1701387187500032,
            "durationTicks": 98,
            "midi": 74,
            "name": "D5",
            "ticks": 15676,
            "time": 27.215250562499996,
            "velocity": 0.12598425196850394
          },
          {
            "duration": 0.17013871874999964,
            "durationTicks": 98,
            "midi": 74,
            "name": "D5",
            "ticks": 15711,
            "time": 27.276014390625,
            "velocity": 0.11023622047244094
          },
          {
            "duration": 0.1701387187500032,
            "durationTicks": 98,
            "midi": 79,
            "name": "G5",
            "ticks": 15715,
            "time": 27.282958828124997,
            "velocity": 0.11023622047244094
          },
          {
            "duration": 0.1701387187499961,
            "durationTicks": 98,
            "midi": 79,
            "name": "G5",
            "ticks": 15755,
            "time": 27.352403203125,
            "velocity": 0.12598425196850394
          },
          {
            "duration": 0.17013871874999964,
            "durationTicks": 98,
            "midi": 82,
            "name": "A#5",
            "ticks": 15759,
            "time": 27.359347640625,
            "velocity": 0.12598425196850394
          },
          {
            "duration": 0.1701387187499961,
            "durationTicks": 98,
            "midi": 82,
            "name": "A#5",
            "ticks": 15794,
            "time": 27.42011146875,
            "velocity": 0.11811023622047244
          },
          {
            "duration": 0.17013871874999964,
            "durationTicks": 98,
            "midi": 86,
            "name": "D6",
            "ticks": 15798,
            "time": 27.42705590625,
            "velocity": 0.11811023622047244
          },
          {
            "duration": 0.1701387187500032,
            "durationTicks": 98,
            "midi": 48,
            "name": "C3",
            "ticks": 15838,
            "time": 27.496500281249997,
            "velocity": 0.11811023622047244
          },
          {
            "duration": 0.1701387187499961,
            "durationTicks": 98,
            "midi": 48,
            "name": "C3",
            "ticks": 15842,
            "time": 27.50344471875,
            "velocity": 0.11811023622047244
          },
          {
            "duration": 0.16840260937499707,
            "durationTicks": 97,
            "midi": 48,
            "name": "C3",
            "ticks": 15921,
            "time": 27.640597359375,
            "velocity": 0.12598425196850394
          },
          {
            "duration": 0.16840260937500062,
            "durationTicks": 97,
            "midi": 48,
            "name": "C3",
            "ticks": 15926,
            "time": 27.64927790625,
            "velocity": 0.12598425196850394
          },
          {
            "duration": 0.16840260937499707,
            "durationTicks": 97,
            "midi": 60,
            "name": "C4",
            "ticks": 16004,
            "time": 27.7846944375,
            "velocity": 0.12598425196850394
          },
          {
            "duration": 0.16840260937499707,
            "durationTicks": 97,
            "midi": 60,
            "name": "C4",
            "ticks": 16008,
            "time": 27.791638875,
            "velocity": 0.12598425196850394
          },
          {
            "duration": 0.16840260937500062,
            "durationTicks": 97,
            "midi": 48,
            "name": "C3",
            "ticks": 16086,
            "time": 27.92705540625,
            "velocity": 0.12598425196850394
          },
          {
            "duration": 0.16840260937499707,
            "durationTicks": 97,
            "midi": 48,
            "name": "C3",
            "ticks": 16091,
            "time": 27.935735953125,
            "velocity": 0.12598425196850394
          },
          {
            "duration": 0.16840260937500418,
            "durationTicks": 97,
            "midi": 48,
            "name": "C3",
            "ticks": 16168,
            "time": 28.069416374999996,
            "velocity": 0.12598425196850394
          },
          {
            "duration": 0.16840260937500062,
            "durationTicks": 97,
            "midi": 48,
            "name": "C3",
            "ticks": 16173,
            "time": 28.078096921874998,
            "velocity": 0.12598425196850394
          },
          {
            "duration": 0.16840260937499707,
            "durationTicks": 97,
            "midi": 58,
            "name": "A#3",
            "ticks": 16251,
            "time": 28.213513453125,
            "velocity": 0.12598425196850394
          },
          {
            "duration": 0.16840260937500062,
            "durationTicks": 97,
            "midi": 58,
            "name": "A#3",
            "ticks": 16255,
            "time": 28.220457890625,
            "velocity": 0.12598425196850394
          },
          {
            "duration": 0.16666649999999805,
            "durationTicks": 96,
            "midi": 48,
            "name": "C3",
            "ticks": 16338,
            "time": 28.36455496875,
            "velocity": 0.11811023622047244
          },
          {
            "duration": 0.16666649999999805,
            "durationTicks": 96,
            "midi": 48,
            "name": "C3",
            "ticks": 16338,
            "time": 28.36455496875,
            "velocity": 0.11811023622047244
          },
          {
            "duration": 0.1649303906250026,
            "durationTicks": 95,
            "midi": 48,
            "name": "C3",
            "ticks": 16420,
            "time": 28.506915937499997,
            "velocity": 0.12598425196850394
          },
          {
            "duration": 0.1649303906250026,
            "durationTicks": 95,
            "midi": 48,
            "name": "C3",
            "ticks": 16420,
            "time": 28.506915937499997,
            "velocity": 0.12598425196850394
          },
          {
            "duration": 0.16666649999999805,
            "durationTicks": 96,
            "midi": 56,
            "name": "G#3",
            "ticks": 16502,
            "time": 28.64927690625,
            "velocity": 0.12598425196850394
          },
          {
            "duration": 0.16666649999999805,
            "durationTicks": 96,
            "midi": 56,
            "name": "G#3",
            "ticks": 16502,
            "time": 28.64927690625,
            "velocity": 0.12598425196850394
          },
          {
            "duration": 0.16840260937500062,
            "durationTicks": 97,
            "midi": 48,
            "name": "C3",
            "ticks": 16583,
            "time": 28.789901765625,
            "velocity": 0.11811023622047244
          },
          {
            "duration": 0.16840260937499707,
            "durationTicks": 97,
            "midi": 48,
            "name": "C3",
            "ticks": 16587,
            "time": 28.796846203125,
            "velocity": 0.11811023622047244
          },
          {
            "duration": 0.16840260937500062,
            "durationTicks": 97,
            "midi": 48,
            "name": "C3",
            "ticks": 16665,
            "time": 28.932262734374998,
            "velocity": 0.12598425196850394
          },
          {
            "duration": 0.16840260937500062,
            "durationTicks": 97,
            "midi": 48,
            "name": "C3",
            "ticks": 16670,
            "time": 28.94094328125,
            "velocity": 0.12598425196850394
          },
          {
            "duration": 0.16840260937499707,
            "durationTicks": 97,
            "midi": 54,
            "name": "F#3",
            "ticks": 16748,
            "time": 29.0763598125,
            "velocity": 0.12598425196850394
          },
          {
            "duration": 0.16840260937500062,
            "durationTicks": 97,
            "midi": 54,
            "name": "F#3",
            "ticks": 16752,
            "time": 29.083304249999998,
            "velocity": 0.12598425196850394
          },
          {
            "duration": 0.16840260937499707,
            "durationTicks": 97,
            "midi": 48,
            "name": "C3",
            "ticks": 16830,
            "time": 29.21872078125,
            "velocity": 0.12598425196850394
          },
          {
            "duration": 0.16840260937499707,
            "durationTicks": 97,
            "midi": 48,
            "name": "C3",
            "ticks": 16835,
            "time": 29.227401328125,
            "velocity": 0.12598425196850394
          },
          {
            "duration": 0.3368052187499977,
            "durationTicks": 194,
            "midi": 48,
            "name": "C3",
            "ticks": 16913,
            "time": 29.362817859375,
            "velocity": 0.12598425196850394
          },
          {
            "duration": 0.33680521875000125,
            "durationTicks": 194,
            "midi": 48,
            "name": "C3",
            "ticks": 16917,
            "time": 29.369762296875,
            "velocity": 0.12598425196850394
          },
          {
            "duration": 0.16840260937499707,
            "durationTicks": 97,
            "midi": 55,
            "name": "G3",
            "ticks": 16995,
            "time": 29.505178828125,
            "velocity": 0.12598425196850394
          },
          {
            "duration": 0.16840260937500418,
            "durationTicks": 97,
            "midi": 55,
            "name": "G3",
            "ticks": 16999,
            "time": 29.512123265624997,
            "velocity": 0.12598425196850394
          },
          {
            "duration": 0.17013871874999964,
            "durationTicks": 98,
            "midi": 56,
            "name": "G#3",
            "ticks": 17077,
            "time": 29.647539796874998,
            "velocity": 0.13385826771653545
          },
          {
            "duration": 0.17013871874999964,
            "durationTicks": 98,
            "midi": 56,
            "name": "G#3",
            "ticks": 17082,
            "time": 29.65622034375,
            "velocity": 0.13385826771653545
          },
          {
            "duration": 0.16840260937500418,
            "durationTicks": 97,
            "midi": 48,
            "name": "C3",
            "ticks": 17161,
            "time": 29.793372984374997,
            "velocity": 0.12598425196850394
          },
          {
            "duration": 0.16840260937499707,
            "durationTicks": 97,
            "midi": 48,
            "name": "C3",
            "ticks": 17165,
            "time": 29.800317421875,
            "velocity": 0.12598425196850394
          },
          {
            "duration": 0.1666665000000016,
            "durationTicks": 96,
            "midi": 48,
            "name": "C3",
            "ticks": 17248,
            "time": 29.944414499999997,
            "velocity": 0.12598425196850394
          },
          {
            "duration": 0.1666665000000016,
            "durationTicks": 96,
            "midi": 48,
            "name": "C3",
            "ticks": 17248,
            "time": 29.944414499999997,
            "velocity": 0.12598425196850394
          },
          {
            "duration": 0.16493039062499548,
            "durationTicks": 95,
            "midi": 60,
            "name": "C4",
            "ticks": 17330,
            "time": 30.08677546875,
            "velocity": 0.12598425196850394
          },
          {
            "duration": 0.16493039062499548,
            "durationTicks": 95,
            "midi": 60,
            "name": "C4",
            "ticks": 17330,
            "time": 30.08677546875,
            "velocity": 0.12598425196850394
          },
          {
            "duration": 0.1666665000000016,
            "durationTicks": 96,
            "midi": 48,
            "name": "C3",
            "ticks": 17411,
            "time": 30.227400328125,
            "velocity": 0.11811023622047244
          },
          {
            "duration": 0.1666665000000016,
            "durationTicks": 96,
            "midi": 48,
            "name": "C3",
            "ticks": 17411,
            "time": 30.227400328125,
            "velocity": 0.11811023622047244
          },
          {
            "duration": 0.16840260937500062,
            "durationTicks": 97,
            "midi": 48,
            "name": "C3",
            "ticks": 17493,
            "time": 30.369761296874998,
            "velocity": 0.11811023622047244
          },
          {
            "duration": 0.16840260937500418,
            "durationTicks": 97,
            "midi": 48,
            "name": "C3",
            "ticks": 17497,
            "time": 30.376705734374998,
            "velocity": 0.11811023622047244
          },
          {
            "duration": 0.16840260937500062,
            "durationTicks": 97,
            "midi": 58,
            "name": "A#3",
            "ticks": 17575,
            "time": 30.512122265625,
            "velocity": 0.11811023622047244
          },
          {
            "duration": 0.16840260937500062,
            "durationTicks": 97,
            "midi": 58,
            "name": "A#3",
            "ticks": 17580,
            "time": 30.520802812499998,
            "velocity": 0.11811023622047244
          },
          {
            "duration": 0.16840260937499707,
            "durationTicks": 97,
            "midi": 48,
            "name": "C3",
            "ticks": 17658,
            "time": 30.65621934375,
            "velocity": 0.12598425196850394
          },
          {
            "duration": 0.16840260937500062,
            "durationTicks": 97,
            "midi": 48,
            "name": "C3",
            "ticks": 17662,
            "time": 30.66316378125,
            "velocity": 0.12598425196850394
          },
          {
            "duration": 0.16840260937500418,
            "durationTicks": 97,
            "midi": 48,
            "name": "C3",
            "ticks": 17740,
            "time": 30.798580312499997,
            "velocity": 0.11811023622047244
          },
          {
            "duration": 0.16840260937500062,
            "durationTicks": 97,
            "midi": 48,
            "name": "C3",
            "ticks": 17744,
            "time": 30.80552475,
            "velocity": 0.11811023622047244
          },
          {
            "duration": 0.16840260937499707,
            "durationTicks": 97,
            "midi": 56,
            "name": "G#3",
            "ticks": 17822,
            "time": 30.94094128125,
            "velocity": 0.13385826771653545
          },
          {
            "duration": 0.16840260937500418,
            "durationTicks": 97,
            "midi": 56,
            "name": "G#3",
            "ticks": 17827,
            "time": 30.949621828124997,
            "velocity": 0.13385826771653545
          },
          {
            "duration": 0.16840260937500418,
            "durationTicks": 97,
            "midi": 48,
            "name": "C3",
            "ticks": 17905,
            "time": 31.085038359374998,
            "velocity": 0.12598425196850394
          },
          {
            "duration": 0.16840260937499707,
            "durationTicks": 97,
            "midi": 48,
            "name": "C3",
            "ticks": 17909,
            "time": 31.091982796875,
            "velocity": 0.12598425196850394
          },
          {
            "duration": 0.8350686093749964,
            "durationTicks": 481,
            "midi": 48,
            "name": "C3",
            "ticks": 17987,
            "time": 31.227399328125,
            "velocity": 0.12598425196850394
          },
          {
            "duration": 0.8350686093750035,
            "durationTicks": 481,
            "midi": 48,
            "name": "C3",
            "ticks": 17992,
            "time": 31.236079874999998,
            "velocity": 0.12598425196850394
          },
          {
            "duration": 0.6666659999999993,
            "durationTicks": 384,
            "midi": 54,
            "name": "F#3",
            "ticks": 18070,
            "time": 31.371496406249996,
            "velocity": 0.12598425196850394
          },
          {
            "duration": 0.6666659999999993,
            "durationTicks": 384,
            "midi": 54,
            "name": "F#3",
            "ticks": 18074,
            "time": 31.37844084375,
            "velocity": 0.12598425196850394
          },
          {
            "duration": 0.16840260937499352,
            "durationTicks": 97,
            "midi": 48,
            "name": "C3",
            "ticks": 18485,
            "time": 32.091981796875004,
            "velocity": 0.11811023622047244
          },
          {
            "duration": 0.16840260937500062,
            "durationTicks": 97,
            "midi": 48,
            "name": "C3",
            "ticks": 18489,
            "time": 32.098926234375,
            "velocity": 0.11811023622047244
          },
          {
            "duration": 0.16840260937499352,
            "durationTicks": 97,
            "midi": 48,
            "name": "C3",
            "ticks": 18567,
            "time": 32.234342765625,
            "velocity": 0.11811023622047244
          },
          {
            "duration": 0.16840260937500062,
            "durationTicks": 97,
            "midi": 48,
            "name": "C3",
            "ticks": 18572,
            "time": 32.2430233125,
            "velocity": 0.11811023622047244
          },
          {
            "duration": 0.16840260937500062,
            "durationTicks": 97,
            "midi": 60,
            "name": "C4",
            "ticks": 18650,
            "time": 32.37843984375,
            "velocity": 0.12598425196850394
          },
          {
            "duration": 0.16840260937500062,
            "durationTicks": 97,
            "midi": 60,
            "name": "C4",
            "ticks": 18654,
            "time": 32.38538428125,
            "velocity": 0.12598425196850394
          },
          {
            "duration": 0.16840260937500062,
            "durationTicks": 97,
            "midi": 48,
            "name": "C3",
            "ticks": 18732,
            "time": 32.5208008125,
            "velocity": 0.11811023622047244
          },
          {
            "duration": 0.16840260937500062,
            "durationTicks": 97,
            "midi": 48,
            "name": "C3",
            "ticks": 18737,
            "time": 32.529481359375,
            "velocity": 0.11811023622047244
          },
          {
            "duration": 0.16840260937500062,
            "durationTicks": 97,
            "midi": 48,
            "name": "C3",
            "ticks": 18815,
            "time": 32.664897890625,
            "velocity": 0.12598425196850394
          },
          {
            "duration": 0.16840260937499352,
            "durationTicks": 97,
            "midi": 48,
            "name": "C3",
            "ticks": 18819,
            "time": 32.671842328125,
            "velocity": 0.12598425196850394
          },
          {
            "duration": 0.16840260937500062,
            "durationTicks": 97,
            "midi": 58,
            "name": "A#3",
            "ticks": 18897,
            "time": 32.807258859375,
            "velocity": 0.12598425196850394
          },
          {
            "duration": 0.16840260937500062,
            "durationTicks": 97,
            "midi": 58,
            "name": "A#3",
            "ticks": 18901,
            "time": 32.814203296875,
            "velocity": 0.12598425196850394
          },
          {
            "duration": 0.16840260937500773,
            "durationTicks": 97,
            "midi": 48,
            "name": "C3",
            "ticks": 18979,
            "time": 32.949619828124995,
            "velocity": 0.12598425196850394
          },
          {
            "duration": 0.16840260937500062,
            "durationTicks": 97,
            "midi": 48,
            "name": "C3",
            "ticks": 18984,
            "time": 32.958300375,
            "velocity": 0.12598425196850394
          },
          {
            "duration": 0.16666649999999805,
            "durationTicks": 96,
            "midi": 48,
            "name": "C3",
            "ticks": 19066,
            "time": 33.10066134375,
            "velocity": 0.12598425196850394
          },
          {
            "duration": 0.16666649999999805,
            "durationTicks": 96,
            "midi": 48,
            "name": "C3",
            "ticks": 19066,
            "time": 33.10066134375,
            "velocity": 0.12598425196850394
          },
          {
            "duration": 0.1649303906250026,
            "durationTicks": 95,
            "midi": 56,
            "name": "G#3",
            "ticks": 19149,
            "time": 33.244758421875,
            "velocity": 0.13385826771653545
          },
          {
            "duration": 0.1649303906250026,
            "durationTicks": 95,
            "midi": 56,
            "name": "G#3",
            "ticks": 19149,
            "time": 33.244758421875,
            "velocity": 0.13385826771653545
          },
          {
            "duration": 0.16666649999999805,
            "durationTicks": 96,
            "midi": 48,
            "name": "C3",
            "ticks": 19230,
            "time": 33.38538328125,
            "velocity": 0.11811023622047244
          },
          {
            "duration": 0.16666649999999805,
            "durationTicks": 96,
            "midi": 48,
            "name": "C3",
            "ticks": 19230,
            "time": 33.38538328125,
            "velocity": 0.11811023622047244
          },
          {
            "duration": 0.16840260937499352,
            "durationTicks": 97,
            "midi": 48,
            "name": "C3",
            "ticks": 19311,
            "time": 33.526008140625,
            "velocity": 0.11811023622047244
          },
          {
            "duration": 0.16840260937500062,
            "durationTicks": 97,
            "midi": 48,
            "name": "C3",
            "ticks": 19316,
            "time": 33.5346886875,
            "velocity": 0.11811023622047244
          },
          {
            "duration": 0.16840260937499352,
            "durationTicks": 97,
            "midi": 54,
            "name": "F#3",
            "ticks": 19394,
            "time": 33.67010521875,
            "velocity": 0.12598425196850394
          },
          {
            "duration": 0.16840260937500062,
            "durationTicks": 97,
            "midi": 54,
            "name": "F#3",
            "ticks": 19398,
            "time": 33.67704965625,
            "velocity": 0.12598425196850394
          },
          {
            "duration": 0.16840260937500062,
            "durationTicks": 97,
            "midi": 48,
            "name": "C3",
            "ticks": 19476,
            "time": 33.8124661875,
            "velocity": 0.12598425196850394
          },
          {
            "duration": 0.16840260937500062,
            "durationTicks": 97,
            "midi": 48,
            "name": "C3",
            "ticks": 19481,
            "time": 33.821146734375,
            "velocity": 0.12598425196850394
          },
          {
            "duration": 0.33680521874999414,
            "durationTicks": 194,
            "midi": 48,
            "name": "C3",
            "ticks": 19559,
            "time": 33.956563265625,
            "velocity": 0.12598425196850394
          },
          {
            "duration": 0.33680521875000125,
            "durationTicks": 194,
            "midi": 48,
            "name": "C3",
            "ticks": 19563,
            "time": 33.963507703124996,
            "velocity": 0.12598425196850394
          },
          {
            "duration": 0.16840260937500062,
            "durationTicks": 97,
            "midi": 55,
            "name": "G3",
            "ticks": 19641,
            "time": 34.098924234375,
            "velocity": 0.12598425196850394
          },
          {
            "duration": 0.16840260937500773,
            "durationTicks": 97,
            "midi": 55,
            "name": "G3",
            "ticks": 19645,
            "time": 34.105868671874994,
            "velocity": 0.12598425196850394
          },
          {
            "duration": 0.1701387187500032,
            "durationTicks": 98,
            "midi": 56,
            "name": "G#3",
            "ticks": 19723,
            "time": 34.241285203124995,
            "velocity": 0.12598425196850394
          },
          {
            "duration": 0.1701387187499961,
            "durationTicks": 98,
            "midi": 56,
            "name": "G#3",
            "ticks": 19728,
            "time": 34.24996575,
            "velocity": 0.12598425196850394
          },
          {
            "duration": 0.16840260937500062,
            "durationTicks": 97,
            "midi": 48,
            "name": "C3",
            "ticks": 19807,
            "time": 34.387118390625,
            "velocity": 0.12598425196850394
          },
          {
            "duration": 0.16840260937500062,
            "durationTicks": 97,
            "midi": 48,
            "name": "C3",
            "ticks": 19811,
            "time": 34.394062828125,
            "velocity": 0.12598425196850394
          },
          {
            "duration": 0.1753470468749967,
            "durationTicks": 101,
            "midi": 48,
            "name": "C3",
            "ticks": 19889,
            "time": 34.529479359375,
            "velocity": 0.11811023622047244
          },
          {
            "duration": 0.32465245312500457,
            "durationTicks": 187,
            "midi": 48,
            "name": "C3",
            "ticks": 19894,
            "time": 34.538159906249994,
            "velocity": 0.11811023622047244
          },
          {
            "duration": 0.16493039062499548,
            "durationTicks": 95,
            "midi": 60,
            "name": "C4",
            "ticks": 19976,
            "time": 34.680520875,
            "velocity": 0.13385826771653545
          },
          {
            "duration": 0.16493039062499548,
            "durationTicks": 95,
            "midi": 60,
            "name": "C4",
            "ticks": 19976,
            "time": 34.680520875,
            "velocity": 0.13385826771653545
          },
          {
            "duration": 0.16666649999999805,
            "durationTicks": 96,
            "midi": 48,
            "name": "C3",
            "ticks": 20057,
            "time": 34.821145734375,
            "velocity": 0.12598425196850394
          },
          {
            "duration": 0.16666649999999805,
            "durationTicks": 96,
            "midi": 48,
            "name": "C3",
            "ticks": 20057,
            "time": 34.821145734375,
            "velocity": 0.12598425196850394
          },
          {
            "duration": 0.16666650000000516,
            "durationTicks": 96,
            "midi": 48,
            "name": "C3",
            "ticks": 20140,
            "time": 34.965242812499994,
            "velocity": 0.11811023622047244
          },
          {
            "duration": 0.16666650000000516,
            "durationTicks": 96,
            "midi": 48,
            "name": "C3",
            "ticks": 20140,
            "time": 34.965242812499994,
            "velocity": 0.11811023622047244
          },
          {
            "duration": 0.16840260937500062,
            "durationTicks": 97,
            "midi": 58,
            "name": "A#3",
            "ticks": 20221,
            "time": 35.105867671875,
            "velocity": 0.12598425196850394
          },
          {
            "duration": 0.16840260937499352,
            "durationTicks": 97,
            "midi": 58,
            "name": "A#3",
            "ticks": 20226,
            "time": 35.11454821875,
            "velocity": 0.12598425196850394
          },
          {
            "duration": 0.16840260937500062,
            "durationTicks": 97,
            "midi": 48,
            "name": "C3",
            "ticks": 20304,
            "time": 35.24996475,
            "velocity": 0.12598425196850394
          },
          {
            "duration": 0.16840260937500062,
            "durationTicks": 97,
            "midi": 48,
            "name": "C3",
            "ticks": 20308,
            "time": 35.2569091875,
            "velocity": 0.12598425196850394
          },
          {
            "duration": 0.16840260937500773,
            "durationTicks": 97,
            "midi": 48,
            "name": "C3",
            "ticks": 20386,
            "time": 35.392325718749994,
            "velocity": 0.12598425196850394
          },
          {
            "duration": 0.16840260937500062,
            "durationTicks": 97,
            "midi": 48,
            "name": "C3",
            "ticks": 20391,
            "time": 35.401006265625,
            "velocity": 0.12598425196850394
          },
          {
            "duration": 0.16840260937500062,
            "durationTicks": 97,
            "midi": 72,
            "name": "C5",
            "ticks": 20468,
            "time": 35.5346866875,
            "velocity": 0.12598425196850394
          },
          {
            "duration": 0.16840260937500062,
            "durationTicks": 97,
            "midi": 67,
            "name": "G4",
            "ticks": 20473,
            "time": 35.543367234375,
            "velocity": 0.12598425196850394
          },
          {
            "duration": 0.16666649999999805,
            "durationTicks": 96,
            "midi": 68,
            "name": "G#4",
            "ticks": 20512,
            "time": 35.6110755,
            "velocity": 0.11811023622047244
          },
          {
            "duration": 0.16666649999999805,
            "durationTicks": 96,
            "midi": 65,
            "name": "F4",
            "ticks": 20512,
            "time": 35.6110755,
            "velocity": 0.11811023622047244
          },
          {
            "duration": 0.16840260937500062,
            "durationTicks": 97,
            "midi": 67,
            "name": "G4",
            "ticks": 20551,
            "time": 35.678783765625,
            "velocity": 0.12598425196850394
          },
          {
            "duration": 0.16840260937499352,
            "durationTicks": 97,
            "midi": 63,
            "name": "D#4",
            "ticks": 20555,
            "time": 35.685728203125,
            "velocity": 0.12598425196850394
          },
          {
            "duration": 0.16840260937500062,
            "durationTicks": 97,
            "midi": 67,
            "name": "G4",
            "ticks": 20595,
            "time": 35.755172578125,
            "velocity": 0.11811023622047244
          },
          {
            "duration": 0.16840260937500062,
            "durationTicks": 97,
            "midi": 72,
            "name": "C5",
            "ticks": 20595,
            "time": 35.755172578125,
            "velocity": 0.11811023622047244
          },
          {
            "duration": 0.1701387187499961,
            "durationTicks": 98,
            "midi": 67,
            "name": "G4",
            "ticks": 20633,
            "time": 35.821144734375004,
            "velocity": 0.12598425196850394
          },
          {
            "duration": 0.1701387187500032,
            "durationTicks": 98,
            "midi": 63,
            "name": "D#4",
            "ticks": 20638,
            "time": 35.829825281249995,
            "velocity": 0.12598425196850394
          },
          {
            "duration": 0.1701387187500032,
            "durationTicks": 98,
            "midi": 63,
            "name": "D#4",
            "ticks": 20677,
            "time": 35.897533546874996,
            "velocity": 0.11023622047244094
          },
          {
            "duration": 0.1701387187499961,
            "durationTicks": 98,
            "midi": 60,
            "name": "C4",
            "ticks": 20682,
            "time": 35.90621409375,
            "velocity": 0.11023622047244094
          },
          {
            "duration": 0.1701387187499961,
            "durationTicks": 98,
            "midi": 67,
            "name": "G4",
            "ticks": 20717,
            "time": 35.966977921875,
            "velocity": 0.12598425196850394
          },
          {
            "duration": 0.1701387187500032,
            "durationTicks": 98,
            "midi": 63,
            "name": "D#4",
            "ticks": 20721,
            "time": 35.973922359374995,
            "velocity": 0.12598425196850394
          },
          {
            "duration": 0.1701387187500032,
            "durationTicks": 98,
            "midi": 72,
            "name": "C5",
            "ticks": 20761,
            "time": 36.043366734375,
            "velocity": 0.11811023622047244
          },
          {
            "duration": 0.1701387187499961,
            "durationTicks": 98,
            "midi": 67,
            "name": "G4",
            "ticks": 20765,
            "time": 36.050311171875,
            "velocity": 0.11811023622047244
          },
          {
            "duration": 0.1701387187499961,
            "durationTicks": 98,
            "midi": 75,
            "name": "D#5",
            "ticks": 20800,
            "time": 36.111075,
            "velocity": 0.12598425196850394
          },
          {
            "duration": 0.1701387187499961,
            "durationTicks": 98,
            "midi": 72,
            "name": "C5",
            "ticks": 20804,
            "time": 36.1180194375,
            "velocity": 0.12598425196850394
          },
          {
            "duration": 0.1701387187500032,
            "durationTicks": 98,
            "midi": 72,
            "name": "C5",
            "ticks": 20844,
            "time": 36.1874638125,
            "velocity": 0.11023622047244094
          },
          {
            "duration": 0.1701387187500032,
            "durationTicks": 98,
            "midi": 67,
            "name": "G4",
            "ticks": 20848,
            "time": 36.194408249999995,
            "velocity": 0.11023622047244094
          },
          {
            "duration": 0.16840260937500062,
            "durationTicks": 97,
            "midi": 67,
            "name": "G4",
            "ticks": 20888,
            "time": 36.263852625,
            "velocity": 0.12598425196850394
          },
          {
            "duration": 0.16840260937500062,
            "durationTicks": 97,
            "midi": 63,
            "name": "D#4",
            "ticks": 20888,
            "time": 36.263852625,
            "velocity": 0.12598425196850394
          },
          {
            "duration": 0.16840260937500062,
            "durationTicks": 97,
            "midi": 72,
            "name": "C5",
            "ticks": 20927,
            "time": 36.331560890625,
            "velocity": 0.11811023622047244
          },
          {
            "duration": 0.16840260937500062,
            "durationTicks": 97,
            "midi": 67,
            "name": "G4",
            "ticks": 20932,
            "time": 36.3402414375,
            "velocity": 0.11811023622047244
          },
          {
            "duration": 0.16666649999999805,
            "durationTicks": 96,
            "midi": 67,
            "name": "G4",
            "ticks": 20971,
            "time": 36.407949703125,
            "velocity": 0.12598425196850394
          },
          {
            "duration": 0.16666649999999805,
            "durationTicks": 96,
            "midi": 63,
            "name": "D#4",
            "ticks": 20971,
            "time": 36.407949703125,
            "velocity": 0.12598425196850394
          },
          {
            "duration": 0.16840260937500062,
            "durationTicks": 97,
            "midi": 72,
            "name": "C5",
            "ticks": 21010,
            "time": 36.47565796875,
            "velocity": 0.11023622047244094
          },
          {
            "duration": 0.16840260937499352,
            "durationTicks": 97,
            "midi": 67,
            "name": "G4",
            "ticks": 21014,
            "time": 36.48260240625,
            "velocity": 0.11023622047244094
          },
          {
            "duration": 0.16840260937500062,
            "durationTicks": 97,
            "midi": 63,
            "name": "D#4",
            "ticks": 21054,
            "time": 36.55204678125,
            "velocity": 0.12598425196850394
          },
          {
            "duration": 0.16840260937500062,
            "durationTicks": 97,
            "midi": 67,
            "name": "G4",
            "ticks": 21054,
            "time": 36.55204678125,
            "velocity": 0.12598425196850394
          },
          {
            "duration": 0.16840260937499352,
            "durationTicks": 97,
            "midi": 63,
            "name": "D#4",
            "ticks": 21092,
            "time": 36.618018937500004,
            "velocity": 0.11811023622047244
          },
          {
            "duration": 0.16840260937500773,
            "durationTicks": 97,
            "midi": 60,
            "name": "C4",
            "ticks": 21097,
            "time": 36.626699484374996,
            "velocity": 0.11811023622047244
          },
          {
            "duration": 0.16840260937500773,
            "durationTicks": 97,
            "midi": 43,
            "name": "G2",
            "ticks": 21136,
            "time": 36.694407749999996,
            "velocity": 0.11811023622047244
          },
          {
            "duration": 0.16840260937499352,
            "durationTicks": 97,
            "midi": 43,
            "name": "G2",
            "ticks": 21141,
            "time": 36.703088296875,
            "velocity": 0.11811023622047244
          },
          {
            "duration": 0.16840260937500062,
            "durationTicks": 97,
            "midi": 43,
            "name": "G2",
            "ticks": 21218,
            "time": 36.83676871875,
            "velocity": 0.12598425196850394
          },
          {
            "duration": 0.16840260937500062,
            "durationTicks": 97,
            "midi": 43,
            "name": "G2",
            "ticks": 21223,
            "time": 36.845449265625,
            "velocity": 0.12598425196850394
          },
          {
            "duration": 0.16840260937500773,
            "durationTicks": 97,
            "midi": 55,
            "name": "G3",
            "ticks": 21301,
            "time": 36.980865796874994,
            "velocity": 0.12598425196850394
          },
          {
            "duration": 0.16840260937500062,
            "durationTicks": 97,
            "midi": 55,
            "name": "G3",
            "ticks": 21305,
            "time": 36.987810234375,
            "velocity": 0.12598425196850394
          },
          {
            "duration": 0.16840260937500062,
            "durationTicks": 97,
            "midi": 43,
            "name": "G2",
            "ticks": 21383,
            "time": 37.123226765625,
            "velocity": 0.12598425196850394
          },
          {
            "duration": 0.16840260937500062,
            "durationTicks": 97,
            "midi": 43,
            "name": "G2",
            "ticks": 21388,
            "time": 37.1319073125,
            "velocity": 0.12598425196850394
          },
          {
            "duration": 0.16840260937500062,
            "durationTicks": 97,
            "midi": 43,
            "name": "G2",
            "ticks": 21466,
            "time": 37.26732384375,
            "velocity": 0.12598425196850394
          },
          {
            "duration": 0.16840260937499352,
            "durationTicks": 97,
            "midi": 43,
            "name": "G2",
            "ticks": 21470,
            "time": 37.27426828125,
            "velocity": 0.12598425196850394
          },
          {
            "duration": 0.16840260937499352,
            "durationTicks": 97,
            "midi": 53,
            "name": "F3",
            "ticks": 21548,
            "time": 37.409684812500004,
            "velocity": 0.12598425196850394
          },
          {
            "duration": 0.16840260937500773,
            "durationTicks": 97,
            "midi": 53,
            "name": "F3",
            "ticks": 21553,
            "time": 37.418365359374995,
            "velocity": 0.12598425196850394
          },
          {
            "duration": 0.16840260937499352,
            "durationTicks": 97,
            "midi": 43,
            "name": "G2",
            "ticks": 21630,
            "time": 37.55204578125,
            "velocity": 0.11811023622047244
          },
          {
            "duration": 0.16840260937500062,
            "durationTicks": 97,
            "midi": 43,
            "name": "G2",
            "ticks": 21635,
            "time": 37.560726328125,
            "velocity": 0.11811023622047244
          },
          {
            "duration": 0.16840260937500062,
            "durationTicks": 97,
            "midi": 43,
            "name": "G2",
            "ticks": 21713,
            "time": 37.696142859375,
            "velocity": 0.12598425196850394
          },
          {
            "duration": 0.16840260937500062,
            "durationTicks": 97,
            "midi": 43,
            "name": "G2",
            "ticks": 21717,
            "time": 37.703087296875,
            "velocity": 0.12598425196850394
          },
          {
            "duration": 0.16666650000000516,
            "durationTicks": 96,
            "midi": 51,
            "name": "D#3",
            "ticks": 21800,
            "time": 37.847184375,
            "velocity": 0.12598425196850394
          },
          {
            "duration": 0.16666650000000516,
            "durationTicks": 96,
            "midi": 51,
            "name": "D#3",
            "ticks": 21800,
            "time": 37.847184375,
            "velocity": 0.12598425196850394
          },
          {
            "duration": 0.16493039062499548,
            "durationTicks": 95,
            "midi": 43,
            "name": "G2",
            "ticks": 21882,
            "time": 37.98954534375,
            "velocity": 0.11811023622047244
          },
          {
            "duration": 0.16493039062499548,
            "durationTicks": 95,
            "midi": 43,
            "name": "G2",
            "ticks": 21882,
            "time": 37.98954534375,
            "velocity": 0.11811023622047244
          },
          {
            "duration": 0.16666649999999805,
            "durationTicks": 96,
            "midi": 43,
            "name": "G2",
            "ticks": 21963,
            "time": 38.130170203125,
            "velocity": 0.12598425196850394
          },
          {
            "duration": 0.16666649999999805,
            "durationTicks": 96,
            "midi": 43,
            "name": "G2",
            "ticks": 21963,
            "time": 38.130170203125,
            "velocity": 0.12598425196850394
          },
          {
            "duration": 0.16840260937500773,
            "durationTicks": 97,
            "midi": 49,
            "name": "C#3",
            "ticks": 22045,
            "time": 38.272531171874995,
            "velocity": 0.12598425196850394
          },
          {
            "duration": 0.16840260937500062,
            "durationTicks": 97,
            "midi": 49,
            "name": "C#3",
            "ticks": 22049,
            "time": 38.279475609375,
            "velocity": 0.12598425196850394
          },
          {
            "duration": 0.16840260937500062,
            "durationTicks": 97,
            "midi": 43,
            "name": "G2",
            "ticks": 22127,
            "time": 38.414892140625,
            "velocity": 0.12598425196850394
          },
          {
            "duration": 0.16840260937500062,
            "durationTicks": 97,
            "midi": 43,
            "name": "G2",
            "ticks": 22132,
            "time": 38.4235726875,
            "velocity": 0.12598425196850394
          },
          {
            "duration": 0.33680521875000125,
            "durationTicks": 194,
            "midi": 43,
            "name": "G2",
            "ticks": 22210,
            "time": 38.55898921875,
            "velocity": 0.12598425196850394
          },
          {
            "duration": 0.33680521874999414,
            "durationTicks": 194,
            "midi": 43,
            "name": "G2",
            "ticks": 22214,
            "time": 38.56593365625,
            "velocity": 0.12598425196850394
          },
          {
            "duration": 0.16840260937500062,
            "durationTicks": 97,
            "midi": 50,
            "name": "D3",
            "ticks": 22292,
            "time": 38.7013501875,
            "velocity": 0.12598425196850394
          },
          {
            "duration": 0.16840260937500773,
            "durationTicks": 97,
            "midi": 50,
            "name": "D3",
            "ticks": 22297,
            "time": 38.710030734374996,
            "velocity": 0.12598425196850394
          },
          {
            "duration": 0.1701387187499961,
            "durationTicks": 98,
            "midi": 51,
            "name": "D#3",
            "ticks": 22374,
            "time": 38.84371115625,
            "velocity": 0.13385826771653545
          },
          {
            "duration": 0.1701387187499961,
            "durationTicks": 98,
            "midi": 51,
            "name": "D#3",
            "ticks": 22379,
            "time": 38.852391703125,
            "velocity": 0.13385826771653545
          },
          {
            "duration": 0.16840260937500062,
            "durationTicks": 97,
            "midi": 43,
            "name": "G2",
            "ticks": 22458,
            "time": 38.98954434375,
            "velocity": 0.12598425196850394
          },
          {
            "duration": 0.16840260937500773,
            "durationTicks": 97,
            "midi": 43,
            "name": "G2",
            "ticks": 22462,
            "time": 38.996488781249994,
            "velocity": 0.12598425196850394
          },
          {
            "duration": 0.16840260937500773,
            "durationTicks": 97,
            "midi": 43,
            "name": "G2",
            "ticks": 22540,
            "time": 39.131905312499995,
            "velocity": 0.12598425196850394
          },
          {
            "duration": 0.16840260937499352,
            "durationTicks": 97,
            "midi": 43,
            "name": "G2",
            "ticks": 22545,
            "time": 39.140585859375,
            "velocity": 0.12598425196850394
          },
          {
            "duration": 0.16840260937500062,
            "durationTicks": 97,
            "midi": 55,
            "name": "G3",
            "ticks": 22623,
            "time": 39.276002390624996,
            "velocity": 0.12598425196850394
          },
          {
            "duration": 0.16840260937500062,
            "durationTicks": 97,
            "midi": 55,
            "name": "G3",
            "ticks": 22627,
            "time": 39.282946828125,
            "velocity": 0.12598425196850394
          },
          {
            "duration": 0.16666649999999805,
            "durationTicks": 96,
            "midi": 43,
            "name": "G2",
            "ticks": 22710,
            "time": 39.42704390625,
            "velocity": 0.11811023622047244
          },
          {
            "duration": 0.16666649999999805,
            "durationTicks": 96,
            "midi": 43,
            "name": "G2",
            "ticks": 22710,
            "time": 39.42704390625,
            "velocity": 0.11811023622047244
          },
          {
            "duration": 0.1649303906250026,
            "durationTicks": 95,
            "midi": 43,
            "name": "G2",
            "ticks": 22792,
            "time": 39.569404875,
            "velocity": 0.11811023622047244
          },
          {
            "duration": 0.1649303906250026,
            "durationTicks": 95,
            "midi": 43,
            "name": "G2",
            "ticks": 22792,
            "time": 39.569404875,
            "velocity": 0.11811023622047244
          },
          {
            "duration": 0.16666649999999805,
            "durationTicks": 96,
            "midi": 53,
            "name": "F3",
            "ticks": 22873,
            "time": 39.710029734375,
            "velocity": 0.11811023622047244
          },
          {
            "duration": 0.16666649999999805,
            "durationTicks": 96,
            "midi": 53,
            "name": "F3",
            "ticks": 22873,
            "time": 39.710029734375,
            "velocity": 0.11811023622047244
          },
          {
            "duration": 0.16840260937499352,
            "durationTicks": 97,
            "midi": 43,
            "name": "G2",
            "ticks": 22955,
            "time": 39.852390703125,
            "velocity": 0.12598425196850394
          },
          {
            "duration": 0.16840260937500062,
            "durationTicks": 97,
            "midi": 43,
            "name": "G2",
            "ticks": 22959,
            "time": 39.859335140625,
            "velocity": 0.12598425196850394
          },
          {
            "duration": 0.16840260937499352,
            "durationTicks": 97,
            "midi": 43,
            "name": "G2",
            "ticks": 23037,
            "time": 39.994751671875,
            "velocity": 0.11811023622047244
          },
          {
            "duration": 0.16840260937500062,
            "durationTicks": 97,
            "midi": 43,
            "name": "G2",
            "ticks": 23042,
            "time": 40.00343221875,
            "velocity": 0.11811023622047244
          },
          {
            "duration": 0.16840260937500062,
            "durationTicks": 97,
            "midi": 51,
            "name": "D#3",
            "ticks": 23119,
            "time": 40.137112640625,
            "velocity": 0.13385826771653545
          },
          {
            "duration": 0.16840260937500062,
            "durationTicks": 97,
            "midi": 51,
            "name": "D#3",
            "ticks": 23124,
            "time": 40.1457931875,
            "velocity": 0.13385826771653545
          },
          {
            "duration": 0.16840260937500062,
            "durationTicks": 97,
            "midi": 43,
            "name": "G2",
            "ticks": 23202,
            "time": 40.28120971875,
            "velocity": 0.12598425196850394
          },
          {
            "duration": 0.16840260937500773,
            "durationTicks": 97,
            "midi": 43,
            "name": "G2",
            "ticks": 23206,
            "time": 40.288154156249995,
            "velocity": 0.12598425196850394
          },
          {
            "duration": 0.835068609375007,
            "durationTicks": 481,
            "midi": 43,
            "name": "G2",
            "ticks": 23284,
            "time": 40.423570687499996,
            "velocity": 0.12598425196850394
          },
          {
            "duration": 0.8350686093749928,
            "durationTicks": 481,
            "midi": 43,
            "name": "G2",
            "ticks": 23289,
            "time": 40.432251234375,
            "velocity": 0.12598425196850394
          },
          {
            "duration": 0.6666659999999993,
            "durationTicks": 384,
            "midi": 49,
            "name": "C#3",
            "ticks": 23367,
            "time": 40.567667765624996,
            "velocity": 0.12598425196850394
          },
          {
            "duration": 0.6666659999999993,
            "durationTicks": 384,
            "midi": 49,
            "name": "C#3",
            "ticks": 23371,
            "time": 40.574612203125,
            "velocity": 0.12598425196850394
          },
          {
            "duration": 0.16840260937500062,
            "durationTicks": 97,
            "midi": 43,
            "name": "G2",
            "ticks": 23782,
            "time": 41.28815315625,
            "velocity": 0.11811023622047244
          },
          {
            "duration": 0.16840260937500062,
            "durationTicks": 97,
            "midi": 43,
            "name": "G2",
            "ticks": 23782,
            "time": 41.28815315625,
            "velocity": 0.11811023622047244
          },
          {
            "duration": 0.16840260937500062,
            "durationTicks": 97,
            "midi": 43,
            "name": "G2",
            "ticks": 23865,
            "time": 41.432250234375,
            "velocity": 0.11811023622047244
          },
          {
            "duration": 0.16840260937500062,
            "durationTicks": 97,
            "midi": 43,
            "name": "G2",
            "ticks": 23869,
            "time": 41.439194671875,
            "velocity": 0.11811023622047244
          },
          {
            "duration": 0.16840260937500773,
            "durationTicks": 97,
            "midi": 55,
            "name": "G3",
            "ticks": 23947,
            "time": 41.574611203124995,
            "velocity": 0.12598425196850394
          },
          {
            "duration": 0.16840260937500062,
            "durationTicks": 97,
            "midi": 55,
            "name": "G3",
            "ticks": 23951,
            "time": 41.581555640625,
            "velocity": 0.12598425196850394
          },
          {
            "duration": 0.16840260937500062,
            "durationTicks": 97,
            "midi": 43,
            "name": "G2",
            "ticks": 24029,
            "time": 41.716972171875,
            "velocity": 0.11811023622047244
          },
          {
            "duration": 0.16840260937500062,
            "durationTicks": 97,
            "midi": 43,
            "name": "G2",
            "ticks": 24034,
            "time": 41.72565271875,
            "velocity": 0.11811023622047244
          },
          {
            "duration": 0.16840260937500062,
            "durationTicks": 97,
            "midi": 43,
            "name": "G2",
            "ticks": 24112,
            "time": 41.86106925,
            "velocity": 0.12598425196850394
          },
          {
            "duration": 0.16840260937499352,
            "durationTicks": 97,
            "midi": 43,
            "name": "G2",
            "ticks": 24116,
            "time": 41.8680136875,
            "velocity": 0.12598425196850394
          },
          {
            "duration": 0.16840260937500062,
            "durationTicks": 97,
            "midi": 53,
            "name": "F3",
            "ticks": 24194,
            "time": 42.00343021875,
            "velocity": 0.12598425196850394
          },
          {
            "duration": 0.16840260937500773,
            "durationTicks": 97,
            "midi": 53,
            "name": "F3",
            "ticks": 24199,
            "time": 42.012110765624996,
            "velocity": 0.12598425196850394
          },
          {
            "duration": 0.16840260937499352,
            "durationTicks": 97,
            "midi": 43,
            "name": "G2",
            "ticks": 24276,
            "time": 42.1457911875,
            "velocity": 0.12598425196850394
          },
          {
            "duration": 0.16840260937500062,
            "durationTicks": 97,
            "midi": 43,
            "name": "G2",
            "ticks": 24281,
            "time": 42.154471734375,
            "velocity": 0.12598425196850394
          },
          {
            "duration": 0.16840260937499352,
            "durationTicks": 97,
            "midi": 43,
            "name": "G2",
            "ticks": 24359,
            "time": 42.289888265625,
            "velocity": 0.12598425196850394
          },
          {
            "duration": 0.16840260937500062,
            "durationTicks": 97,
            "midi": 43,
            "name": "G2",
            "ticks": 24363,
            "time": 42.296832703125,
            "velocity": 0.12598425196850394
          },
          {
            "duration": 0.16840260937500062,
            "durationTicks": 97,
            "midi": 51,
            "name": "D#3",
            "ticks": 24441,
            "time": 42.432249234375,
            "velocity": 0.13385826771653545
          },
          {
            "duration": 0.16840260937500062,
            "durationTicks": 97,
            "midi": 51,
            "name": "D#3",
            "ticks": 24446,
            "time": 42.44092978125,
            "velocity": 0.13385826771653545
          },
          {
            "duration": 0.16666650000000516,
            "durationTicks": 96,
            "midi": 43,
            "name": "G2",
            "ticks": 24528,
            "time": 42.583290749999996,
            "velocity": 0.11811023622047244
          },
          {
            "duration": 0.16666650000000516,
            "durationTicks": 96,
            "midi": 43,
            "name": "G2",
            "ticks": 24528,
            "time": 42.583290749999996,
            "velocity": 0.11811023622047244
          },
          {
            "duration": 0.1649303906250026,
            "durationTicks": 95,
            "midi": 43,
            "name": "G2",
            "ticks": 24611,
            "time": 42.727387828124996,
            "velocity": 0.11811023622047244
          },
          {
            "duration": 0.1649303906250026,
            "durationTicks": 95,
            "midi": 43,
            "name": "G2",
            "ticks": 24611,
            "time": 42.727387828124996,
            "velocity": 0.11811023622047244
          },
          {
            "duration": 0.16666649999999805,
            "durationTicks": 96,
            "midi": 49,
            "name": "C#3",
            "ticks": 24692,
            "time": 42.8680126875,
            "velocity": 0.12598425196850394
          },
          {
            "duration": 0.16666649999999805,
            "durationTicks": 96,
            "midi": 49,
            "name": "C#3",
            "ticks": 24692,
            "time": 42.8680126875,
            "velocity": 0.12598425196850394
          },
          {
            "duration": 0.16840260937500773,
            "durationTicks": 97,
            "midi": 43,
            "name": "G2",
            "ticks": 24773,
            "time": 43.00863754687499,
            "velocity": 0.12598425196850394
          },
          {
            "duration": 0.16840260937499352,
            "durationTicks": 97,
            "midi": 43,
            "name": "G2",
            "ticks": 24778,
            "time": 43.01731809375,
            "velocity": 0.12598425196850394
          },
          {
            "duration": 0.33680521875000125,
            "durationTicks": 194,
            "midi": 43,
            "name": "G2",
            "ticks": 24856,
            "time": 43.152734625,
            "velocity": 0.12598425196850394
          },
          {
            "duration": 0.33680521875000835,
            "durationTicks": 194,
            "midi": 43,
            "name": "G2",
            "ticks": 24860,
            "time": 43.1596790625,
            "velocity": 0.12598425196850394
          },
          {
            "duration": 0.16840260937500062,
            "durationTicks": 97,
            "midi": 50,
            "name": "D3",
            "ticks": 24938,
            "time": 43.29509559375,
            "velocity": 0.12598425196850394
          },
          {
            "duration": 0.16840260937499352,
            "durationTicks": 97,
            "midi": 50,
            "name": "D3",
            "ticks": 24943,
            "time": 43.303776140625004,
            "velocity": 0.12598425196850394
          },
          {
            "duration": 0.1701387187500032,
            "durationTicks": 98,
            "midi": 51,
            "name": "D#3",
            "ticks": 25021,
            "time": 43.439192671875,
            "velocity": 0.12598425196850394
          },
          {
            "duration": 0.1701387187500103,
            "durationTicks": 98,
            "midi": 51,
            "name": "D#3",
            "ticks": 25025,
            "time": 43.446137109374995,
            "velocity": 0.12598425196850394
          },
          {
            "duration": 0.16840260937500062,
            "durationTicks": 97,
            "midi": 43,
            "name": "G2",
            "ticks": 25104,
            "time": 43.58328975,
            "velocity": 0.12598425196850394
          },
          {
            "duration": 0.16840260937499352,
            "durationTicks": 97,
            "midi": 43,
            "name": "G2",
            "ticks": 25108,
            "time": 43.5902341875,
            "velocity": 0.12598425196850394
          },
          {
            "duration": 0.16840260937499352,
            "durationTicks": 97,
            "midi": 43,
            "name": "G2",
            "ticks": 25186,
            "time": 43.72565071875,
            "velocity": 0.11811023622047244
          },
          {
            "duration": 0.16840260937500062,
            "durationTicks": 97,
            "midi": 43,
            "name": "G2",
            "ticks": 25191,
            "time": 43.734331265625,
            "velocity": 0.11811023622047244
          },
          {
            "duration": 0.16840260937500773,
            "durationTicks": 97,
            "midi": 55,
            "name": "G3",
            "ticks": 25269,
            "time": 43.869747796875,
            "velocity": 0.13385826771653545
          },
          {
            "duration": 0.16840260937499352,
            "durationTicks": 97,
            "midi": 55,
            "name": "G3",
            "ticks": 25273,
            "time": 43.876692234375,
            "velocity": 0.13385826771653545
          },
          {
            "duration": 0.16840260937499352,
            "durationTicks": 97,
            "midi": 43,
            "name": "G2",
            "ticks": 25351,
            "time": 44.012108765625,
            "velocity": 0.12598425196850394
          },
          {
            "duration": 0.16840260937500062,
            "durationTicks": 97,
            "midi": 43,
            "name": "G2",
            "ticks": 25356,
            "time": 44.0207893125,
            "velocity": 0.12598425196850394
          },
          {
            "duration": 0.16666649999999805,
            "durationTicks": 96,
            "midi": 43,
            "name": "G2",
            "ticks": 25438,
            "time": 44.163150281250005,
            "velocity": 0.11811023622047244
          },
          {
            "duration": 0.16666649999999805,
            "durationTicks": 96,
            "midi": 43,
            "name": "G2",
            "ticks": 25438,
            "time": 44.163150281250005,
            "velocity": 0.11811023622047244
          },
          {
            "duration": 0.1649303906250097,
            "durationTicks": 95,
            "midi": 53,
            "name": "F3",
            "ticks": 25520,
            "time": 44.305511249999995,
            "velocity": 0.12598425196850394
          },
          {
            "duration": 0.1649303906250097,
            "durationTicks": 95,
            "midi": 53,
            "name": "F3",
            "ticks": 25520,
            "time": 44.305511249999995,
            "velocity": 0.12598425196850394
          },
          {
            "duration": 0.16666649999999805,
            "durationTicks": 96,
            "midi": 43,
            "name": "G2",
            "ticks": 25602,
            "time": 44.44787221875,
            "velocity": 0.12598425196850394
          },
          {
            "duration": 0.16666649999999805,
            "durationTicks": 96,
            "midi": 43,
            "name": "G2",
            "ticks": 25602,
            "time": 44.44787221875,
            "velocity": 0.12598425196850394
          },
          {
            "duration": 0.16840260937500062,
            "durationTicks": 97,
            "midi": 43,
            "name": "G2",
            "ticks": 25683,
            "time": 44.588497078125,
            "velocity": 0.12598425196850394
          },
          {
            "duration": 0.16840260937500773,
            "durationTicks": 97,
            "midi": 43,
            "name": "G2",
            "ticks": 25688,
            "time": 44.59717762499999,
            "velocity": 0.12598425196850394
          },
          {
            "duration": 0.16840260937500062,
            "durationTicks": 97,
            "midi": 51,
            "name": "D#3",
            "ticks": 25766,
            "time": 44.732594156249995,
            "velocity": 0.13385826771653545
          },
          {
            "duration": 0.16840260937500062,
            "durationTicks": 97,
            "midi": 51,
            "name": "D#3",
            "ticks": 25770,
            "time": 44.73953859375,
            "velocity": 0.13385826771653545
          },
          {
            "duration": 0.16840260937500062,
            "durationTicks": 97,
            "midi": 43,
            "name": "G2",
            "ticks": 25848,
            "time": 44.874955125,
            "velocity": 0.12598425196850394
          },
          {
            "duration": 0.16840260937499352,
            "durationTicks": 97,
            "midi": 43,
            "name": "G2",
            "ticks": 25852,
            "time": 44.8818995625,
            "velocity": 0.12598425196850394
          },
          {
            "duration": 0.8350686093749928,
            "durationTicks": 481,
            "midi": 43,
            "name": "G2",
            "ticks": 25930,
            "time": 45.017316093750004,
            "velocity": 0.12598425196850394
          },
          {
            "duration": 0.835068609375007,
            "durationTicks": 481,
            "midi": 43,
            "name": "G2",
            "ticks": 25935,
            "time": 45.025996640624996,
            "velocity": 0.12598425196850394
          },
          {
            "duration": 0.6666659999999993,
            "durationTicks": 384,
            "midi": 49,
            "name": "C#3",
            "ticks": 26013,
            "time": 45.161413171875,
            "velocity": 0.12598425196850394
          },
          {
            "duration": 0.6666659999999993,
            "durationTicks": 384,
            "midi": 49,
            "name": "C#3",
            "ticks": 26017,
            "time": 45.168357609375,
            "velocity": 0.12598425196850394
          },
          {
            "duration": 0.16666649999999805,
            "durationTicks": 96,
            "midi": 52,
            "name": "E3",
            "ticks": 26428,
            "time": 45.881898562500005,
            "velocity": 0.11811023622047244
          },
          {
            "duration": 0.16666649999999805,
            "durationTicks": 96,
            "midi": 52,
            "name": "E3",
            "ticks": 26428,
            "time": 45.881898562500005,
            "velocity": 0.11811023622047244
          },
          {
            "duration": 0.16666649999999805,
            "durationTicks": 96,
            "midi": 52,
            "name": "E3",
            "ticks": 26511,
            "time": 46.025995640625,
            "velocity": 0.12598425196850394
          },
          {
            "duration": 0.16666649999999805,
            "durationTicks": 96,
            "midi": 52,
            "name": "E3",
            "ticks": 26511,
            "time": 46.025995640625,
            "velocity": 0.12598425196850394
          },
          {
            "duration": 0.16840260937500062,
            "durationTicks": 97,
            "midi": 64,
            "name": "E4",
            "ticks": 26592,
            "time": 46.1666205,
            "velocity": 0.12598425196850394
          },
          {
            "duration": 0.16840260937499352,
            "durationTicks": 97,
            "midi": 64,
            "name": "E4",
            "ticks": 26596,
            "time": 46.173564937500004,
            "velocity": 0.12598425196850394
          },
          {
            "duration": 0.16840260937499352,
            "durationTicks": 97,
            "midi": 52,
            "name": "E3",
            "ticks": 26674,
            "time": 46.308981468750005,
            "velocity": 0.12598425196850394
          },
          {
            "duration": 0.16840260937500773,
            "durationTicks": 97,
            "midi": 52,
            "name": "E3",
            "ticks": 26679,
            "time": 46.317662015625,
            "velocity": 0.12598425196850394
          },
          {
            "duration": 0.16840260937500062,
            "durationTicks": 97,
            "midi": 52,
            "name": "E3",
            "ticks": 26757,
            "time": 46.453078546875,
            "velocity": 0.12598425196850394
          },
          {
            "duration": 0.16840260937499352,
            "durationTicks": 97,
            "midi": 52,
            "name": "E3",
            "ticks": 26761,
            "time": 46.460022984375,
            "velocity": 0.12598425196850394
          },
          {
            "duration": 0.16840260937499352,
            "durationTicks": 97,
            "midi": 62,
            "name": "D4",
            "ticks": 26839,
            "time": 46.595439515625,
            "velocity": 0.12598425196850394
          },
          {
            "duration": 0.16840260937500062,
            "durationTicks": 97,
            "midi": 62,
            "name": "D4",
            "ticks": 26844,
            "time": 46.6041200625,
            "velocity": 0.12598425196850394
          },
          {
            "duration": 0.16840260937500773,
            "durationTicks": 97,
            "midi": 52,
            "name": "E3",
            "ticks": 26922,
            "time": 46.739536593749996,
            "velocity": 0.11811023622047244
          },
          {
            "duration": 0.16840260937499352,
            "durationTicks": 97,
            "midi": 52,
            "name": "E3",
            "ticks": 26926,
            "time": 46.74648103125,
            "velocity": 0.11811023622047244
          },
          {
            "duration": 0.16840260937499352,
            "durationTicks": 97,
            "midi": 52,
            "name": "E3",
            "ticks": 27004,
            "time": 46.8818975625,
            "velocity": 0.12598425196850394
          },
          {
            "duration": 0.16840260937500062,
            "durationTicks": 97,
            "midi": 52,
            "name": "E3",
            "ticks": 27008,
            "time": 46.888842,
            "velocity": 0.12598425196850394
          },
          {
            "duration": 0.16840260937500062,
            "durationTicks": 97,
            "midi": 60,
            "name": "C4",
            "ticks": 27086,
            "time": 47.02425853125,
            "velocity": 0.12598425196850394
          },
          {
            "duration": 0.16840260937499352,
            "durationTicks": 97,
            "midi": 60,
            "name": "C4",
            "ticks": 27091,
            "time": 47.032939078125004,
            "velocity": 0.12598425196850394
          },
          {
            "duration": 0.16840260937499352,
            "durationTicks": 97,
            "midi": 52,
            "name": "E3",
            "ticks": 27169,
            "time": 47.168355609375,
            "velocity": 0.11811023622047244
          },
          {
            "duration": 0.16840260937500062,
            "durationTicks": 97,
            "midi": 52,
            "name": "E3",
            "ticks": 27173,
            "time": 47.175300046874995,
            "velocity": 0.11811023622047244
          },
          {
            "duration": 0.16666649999999805,
            "durationTicks": 96,
            "midi": 52,
            "name": "E3",
            "ticks": 27256,
            "time": 47.319397125,
            "velocity": 0.12598425196850394
          },
          {
            "duration": 0.16666649999999805,
            "durationTicks": 96,
            "midi": 52,
            "name": "E3",
            "ticks": 27256,
            "time": 47.319397125,
            "velocity": 0.12598425196850394
          },
          {
            "duration": 0.1649303906250097,
            "durationTicks": 95,
            "midi": 58,
            "name": "A#3",
            "ticks": 27338,
            "time": 47.46175809374999,
            "velocity": 0.12598425196850394
          },
          {
            "duration": 0.1649303906250097,
            "durationTicks": 95,
            "midi": 58,
            "name": "A#3",
            "ticks": 27338,
            "time": 47.46175809374999,
            "velocity": 0.12598425196850394
          },
          {
            "duration": 0.16666649999999805,
            "durationTicks": 96,
            "midi": 52,
            "name": "E3",
            "ticks": 27419,
            "time": 47.602382953124994,
            "velocity": 0.12598425196850394
          },
          {
            "duration": 0.16666649999999805,
            "durationTicks": 96,
            "midi": 52,
            "name": "E3",
            "ticks": 27419,
            "time": 47.602382953124994,
            "velocity": 0.12598425196850394
          },
          {
            "duration": 0.33680521874999414,
            "durationTicks": 194,
            "midi": 52,
            "name": "E3",
            "ticks": 27501,
            "time": 47.744743921875,
            "velocity": 0.12598425196850394
          },
          {
            "duration": 0.33680521874999414,
            "durationTicks": 194,
            "midi": 52,
            "name": "E3",
            "ticks": 27505,
            "time": 47.751688359375,
            "velocity": 0.12598425196850394
          },
          {
            "duration": 0.16840260937499352,
            "durationTicks": 97,
            "midi": 59,
            "name": "B3",
            "ticks": 27583,
            "time": 47.887104890625004,
            "velocity": 0.12598425196850394
          },
          {
            "duration": 0.16840260937500773,
            "durationTicks": 97,
            "midi": 59,
            "name": "B3",
            "ticks": 27588,
            "time": 47.895785437499995,
            "velocity": 0.12598425196850394
          },
          {
            "duration": 0.1701387187499961,
            "durationTicks": 98,
            "midi": 60,
            "name": "C4",
            "ticks": 27666,
            "time": 48.03120196875,
            "velocity": 0.13385826771653545
          },
          {
            "duration": 0.1701387187499961,
            "durationTicks": 98,
            "midi": 60,
            "name": "C4",
            "ticks": 27670,
            "time": 48.03814640625,
            "velocity": 0.13385826771653545
          },
          {
            "duration": 0.16840260937500062,
            "durationTicks": 97,
            "midi": 50,
            "name": "D3",
            "ticks": 27749,
            "time": 48.175299046875,
            "velocity": 0.12598425196850394
          },
          {
            "duration": 0.16840260937500062,
            "durationTicks": 97,
            "midi": 50,
            "name": "D3",
            "ticks": 27753,
            "time": 48.182243484375,
            "velocity": 0.12598425196850394
          },
          {
            "duration": 0.16840260937500062,
            "durationTicks": 97,
            "midi": 50,
            "name": "D3",
            "ticks": 27831,
            "time": 48.317660015625,
            "velocity": 0.12598425196850394
          },
          {
            "duration": 0.16840260937500773,
            "durationTicks": 97,
            "midi": 50,
            "name": "D3",
            "ticks": 27836,
            "time": 48.32634056249999,
            "velocity": 0.12598425196850394
          },
          {
            "duration": 0.16840260937500062,
            "durationTicks": 97,
            "midi": 62,
            "name": "D4",
            "ticks": 27914,
            "time": 48.461757093749995,
            "velocity": 0.12598425196850394
          },
          {
            "duration": 0.16840260937500062,
            "durationTicks": 97,
            "midi": 62,
            "name": "D4",
            "ticks": 27918,
            "time": 48.46870153125,
            "velocity": 0.12598425196850394
          },
          {
            "duration": 0.16840260937500062,
            "durationTicks": 97,
            "midi": 50,
            "name": "D3",
            "ticks": 27996,
            "time": 48.6041180625,
            "velocity": 0.11811023622047244
          },
          {
            "duration": 0.16840260937500062,
            "durationTicks": 97,
            "midi": 50,
            "name": "D3",
            "ticks": 28001,
            "time": 48.612798609375,
            "velocity": 0.11811023622047244
          },
          {
            "duration": 0.16840260937500773,
            "durationTicks": 97,
            "midi": 50,
            "name": "D3",
            "ticks": 28079,
            "time": 48.74821514062499,
            "velocity": 0.11811023622047244
          },
          {
            "duration": 0.16840260937500773,
            "durationTicks": 97,
            "midi": 50,
            "name": "D3",
            "ticks": 28083,
            "time": 48.755159578124996,
            "velocity": 0.11811023622047244
          },
          {
            "duration": 0.16666649999999805,
            "durationTicks": 96,
            "midi": 60,
            "name": "C4",
            "ticks": 28165,
            "time": 48.897520546875,
            "velocity": 0.11811023622047244
          },
          {
            "duration": 0.16666649999999805,
            "durationTicks": 96,
            "midi": 60,
            "name": "C4",
            "ticks": 28165,
            "time": 48.897520546875,
            "velocity": 0.11811023622047244
          },
          {
            "duration": 0.16493039062499548,
            "durationTicks": 95,
            "midi": 50,
            "name": "D3",
            "ticks": 28248,
            "time": 49.041617625,
            "velocity": 0.12598425196850394
          },
          {
            "duration": 0.16493039062499548,
            "durationTicks": 95,
            "midi": 50,
            "name": "D3",
            "ticks": 28248,
            "time": 49.041617625,
            "velocity": 0.12598425196850394
          },
          {
            "duration": 0.16666650000000516,
            "durationTicks": 96,
            "midi": 50,
            "name": "D3",
            "ticks": 28329,
            "time": 49.182242484374996,
            "velocity": 0.11811023622047244
          },
          {
            "duration": 0.16666650000000516,
            "durationTicks": 96,
            "midi": 50,
            "name": "D3",
            "ticks": 28329,
            "time": 49.182242484374996,
            "velocity": 0.11811023622047244
          },
          {
            "duration": 0.16840260937499352,
            "durationTicks": 97,
            "midi": 58,
            "name": "A#3",
            "ticks": 28411,
            "time": 49.324603453125,
            "velocity": 0.13385826771653545
          },
          {
            "duration": 0.16840260937500062,
            "durationTicks": 97,
            "midi": 58,
            "name": "A#3",
            "ticks": 28415,
            "time": 49.331547890625,
            "velocity": 0.13385826771653545
          },
          {
            "duration": 0.16840260937500062,
            "durationTicks": 97,
            "midi": 49,
            "name": "C#3",
            "ticks": 28493,
            "time": 49.466964421875,
            "velocity": 0.12598425196850394
          },
          {
            "duration": 0.16840260937500062,
            "durationTicks": 97,
            "midi": 49,
            "name": "C#3",
            "ticks": 28497,
            "time": 49.473908859375,
            "velocity": 0.12598425196850394
          },
          {
            "duration": 0.835068609375007,
            "durationTicks": 481,
            "midi": 48,
            "name": "C3",
            "ticks": 28575,
            "time": 49.609325390624996,
            "velocity": 0.12598425196850394
          },
          {
            "duration": 0.835068609375007,
            "durationTicks": 481,
            "midi": 48,
            "name": "C3",
            "ticks": 28580,
            "time": 49.618005937499994,
            "velocity": 0.12598425196850394
          },
          {
            "duration": 0.6666659999999993,
            "durationTicks": 384,
            "midi": 56,
            "name": "G#3",
            "ticks": 28658,
            "time": 49.753422468749996,
            "velocity": 0.12598425196850394
          },
          {
            "duration": 0.6666659999999993,
            "durationTicks": 384,
            "midi": 56,
            "name": "G#3",
            "ticks": 28662,
            "time": 49.76036690625,
            "velocity": 0.12598425196850394
          },
          {
            "duration": 0.16666650000000516,
            "durationTicks": 96,
            "midi": 43,
            "name": "G2",
            "ticks": 29073,
            "time": 50.473907859375,
            "velocity": 0.11811023622047244
          },
          {
            "duration": 0.16666650000000516,
            "durationTicks": 96,
            "midi": 43,
            "name": "G2",
            "ticks": 29073,
            "time": 50.473907859375,
            "velocity": 0.11811023622047244
          },
          {
            "duration": 0.1649303906250026,
            "durationTicks": 95,
            "midi": 43,
            "name": "G2",
            "ticks": 29156,
            "time": 50.6180049375,
            "velocity": 0.11811023622047244
          },
          {
            "duration": 0.1649303906250026,
            "durationTicks": 95,
            "midi": 43,
            "name": "G2",
            "ticks": 29156,
            "time": 50.6180049375,
            "velocity": 0.11811023622047244
          },
          {
            "duration": 0.16666649999999805,
            "durationTicks": 96,
            "midi": 55,
            "name": "G3",
            "ticks": 29237,
            "time": 50.758629796875,
            "velocity": 0.12598425196850394
          },
          {
            "duration": 0.16666649999999805,
            "durationTicks": 96,
            "midi": 55,
            "name": "G3",
            "ticks": 29237,
            "time": 50.758629796875,
            "velocity": 0.12598425196850394
          },
          {
            "duration": 0.16840260937500773,
            "durationTicks": 97,
            "midi": 43,
            "name": "G2",
            "ticks": 29318,
            "time": 50.899254656249994,
            "velocity": 0.11811023622047244
          },
          {
            "duration": 0.16840260937499352,
            "durationTicks": 97,
            "midi": 43,
            "name": "G2",
            "ticks": 29323,
            "time": 50.907935203125,
            "velocity": 0.11811023622047244
          },
          {
            "duration": 0.16840260937499352,
            "durationTicks": 97,
            "midi": 43,
            "name": "G2",
            "ticks": 29401,
            "time": 51.043351734375,
            "velocity": 0.12598425196850394
          },
          {
            "duration": 0.16840260937500062,
            "durationTicks": 97,
            "midi": 43,
            "name": "G2",
            "ticks": 29405,
            "time": 51.050296171875,
            "velocity": 0.12598425196850394
          },
          {
            "duration": 0.16840260937500062,
            "durationTicks": 97,
            "midi": 53,
            "name": "F3",
            "ticks": 29483,
            "time": 51.185712703125,
            "velocity": 0.12598425196850394
          },
          {
            "duration": 0.16840260937499352,
            "durationTicks": 97,
            "midi": 53,
            "name": "F3",
            "ticks": 29488,
            "time": 51.194393250000005,
            "velocity": 0.12598425196850394
          },
          {
            "duration": 0.16840260937499352,
            "durationTicks": 97,
            "midi": 43,
            "name": "G2",
            "ticks": 29566,
            "time": 51.32980978125,
            "velocity": 0.12598425196850394
          },
          {
            "duration": 0.16840260937500062,
            "durationTicks": 97,
            "midi": 43,
            "name": "G2",
            "ticks": 29570,
            "time": 51.336754218749995,
            "velocity": 0.12598425196850394
          },
          {
            "duration": 0.16840260937500062,
            "durationTicks": 97,
            "midi": 43,
            "name": "G2",
            "ticks": 29648,
            "time": 51.47217075,
            "velocity": 0.12598425196850394
          },
          {
            "duration": 0.16840260937500062,
            "durationTicks": 97,
            "midi": 43,
            "name": "G2",
            "ticks": 29652,
            "time": 51.4791151875,
            "velocity": 0.12598425196850394
          },
          {
            "duration": 0.16840260937500062,
            "durationTicks": 97,
            "midi": 51,
            "name": "D#3",
            "ticks": 29730,
            "time": 51.61453171875,
            "velocity": 0.13385826771653545
          },
          {
            "duration": 0.16840260937500773,
            "durationTicks": 97,
            "midi": 51,
            "name": "D#3",
            "ticks": 29735,
            "time": 51.62321226562499,
            "velocity": 0.13385826771653545
          },
          {
            "duration": 0.16840260937500773,
            "durationTicks": 97,
            "midi": 43,
            "name": "G2",
            "ticks": 29813,
            "time": 51.758628796874994,
            "velocity": 0.11811023622047244
          },
          {
            "duration": 0.16840260937500773,
            "durationTicks": 97,
            "midi": 43,
            "name": "G2",
            "ticks": 29817,
            "time": 51.765573234375,
            "velocity": 0.11811023622047244
          },
          {
            "duration": 0.16840260937500062,
            "durationTicks": 97,
            "midi": 43,
            "name": "G2",
            "ticks": 29895,
            "time": 51.900989765625,
            "velocity": 0.11811023622047244
          },
          {
            "duration": 0.16840260937500062,
            "durationTicks": 97,
            "midi": 43,
            "name": "G2",
            "ticks": 29900,
            "time": 51.9096703125,
            "velocity": 0.11811023622047244
          },
          {
            "duration": 0.16666650000000516,
            "durationTicks": 96,
            "midi": 49,
            "name": "C#3",
            "ticks": 29982,
            "time": 52.052031281249995,
            "velocity": 0.12598425196850394
          },
          {
            "duration": 0.16666650000000516,
            "durationTicks": 96,
            "midi": 49,
            "name": "C#3",
            "ticks": 29982,
            "time": 52.052031281249995,
            "velocity": 0.12598425196850394
          },
          {
            "duration": 0.16493039062499548,
            "durationTicks": 95,
            "midi": 43,
            "name": "G2",
            "ticks": 30064,
            "time": 52.19439225,
            "velocity": 0.12598425196850394
          },
          {
            "duration": 0.16493039062499548,
            "durationTicks": 95,
            "midi": 43,
            "name": "G2",
            "ticks": 30064,
            "time": 52.19439225,
            "velocity": 0.12598425196850394
          },
          {
            "duration": 0.3350691093749987,
            "durationTicks": 193,
            "midi": 43,
            "name": "G2",
            "ticks": 30146,
            "time": 52.33675321875,
            "velocity": 0.12598425196850394
          },
          {
            "duration": 0.3350691093749987,
            "durationTicks": 193,
            "midi": 43,
            "name": "G2",
            "ticks": 30146,
            "time": 52.33675321875,
            "velocity": 0.12598425196850394
          },
          {
            "duration": 0.16840260937500773,
            "durationTicks": 97,
            "midi": 50,
            "name": "D3",
            "ticks": 30227,
            "time": 52.47737807812499,
            "velocity": 0.12598425196850394
          },
          {
            "duration": 0.16840260937499352,
            "durationTicks": 97,
            "midi": 50,
            "name": "D3",
            "ticks": 30232,
            "time": 52.486058625,
            "velocity": 0.12598425196850394
          },
          {
            "duration": 0.1701387187499961,
            "durationTicks": 98,
            "midi": 51,
            "name": "D#3",
            "ticks": 30310,
            "time": 52.62147515625,
            "velocity": 0.12598425196850394
          },
          {
            "duration": 0.1701387187500032,
            "durationTicks": 98,
            "midi": 51,
            "name": "D#3",
            "ticks": 30314,
            "time": 52.628419593749996,
            "velocity": 0.12598425196850394
          },
          {
            "duration": 0.16840260937500062,
            "durationTicks": 97,
            "midi": 43,
            "name": "G2",
            "ticks": 30393,
            "time": 52.765572234375,
            "velocity": 0.12598425196850394
          },
          {
            "duration": 0.16840260937500062,
            "durationTicks": 97,
            "midi": 43,
            "name": "G2",
            "ticks": 30398,
            "time": 52.77425278125,
            "velocity": 0.12598425196850394
          },
          {
            "duration": 0.16840260937499352,
            "durationTicks": 97,
            "midi": 43,
            "name": "G2",
            "ticks": 30475,
            "time": 52.907933203125005,
            "velocity": 0.11811023622047244
          },
          {
            "duration": 0.16840260937500773,
            "durationTicks": 97,
            "midi": 43,
            "name": "G2",
            "ticks": 30480,
            "time": 52.916613749999996,
            "velocity": 0.11811023622047244
          },
          {
            "duration": 0.16840260937500062,
            "durationTicks": 97,
            "midi": 55,
            "name": "G3",
            "ticks": 30558,
            "time": 53.05203028125,
            "velocity": 0.13385826771653545
          },
          {
            "duration": 0.16840260937499352,
            "durationTicks": 97,
            "midi": 55,
            "name": "G3",
            "ticks": 30562,
            "time": 53.05897471875,
            "velocity": 0.13385826771653545
          },
          {
            "duration": 0.16840260937499352,
            "durationTicks": 97,
            "midi": 43,
            "name": "G2",
            "ticks": 30640,
            "time": 53.19439125,
            "velocity": 0.12598425196850394
          },
          {
            "duration": 0.16840260937500062,
            "durationTicks": 97,
            "midi": 43,
            "name": "G2",
            "ticks": 30645,
            "time": 53.203071796875,
            "velocity": 0.12598425196850394
          },
          {
            "duration": 0.16840260937500773,
            "durationTicks": 97,
            "midi": 43,
            "name": "G2",
            "ticks": 30723,
            "time": 53.338488328124996,
            "velocity": 0.11811023622047244
          },
          {
            "duration": 0.16840260937499352,
            "durationTicks": 97,
            "midi": 43,
            "name": "G2",
            "ticks": 30727,
            "time": 53.345432765625,
            "velocity": 0.11811023622047244
          },
          {
            "duration": 0.16840260937499352,
            "durationTicks": 97,
            "midi": 53,
            "name": "F3",
            "ticks": 30805,
            "time": 53.480849296875,
            "velocity": 0.12598425196850394
          },
          {
            "duration": 0.16840260937500062,
            "durationTicks": 97,
            "midi": 53,
            "name": "F3",
            "ticks": 30809,
            "time": 53.487793734374996,
            "velocity": 0.12598425196850394
          },
          {
            "duration": 0.16666649999999805,
            "durationTicks": 96,
            "midi": 43,
            "name": "G2",
            "ticks": 30892,
            "time": 53.631890812500004,
            "velocity": 0.12598425196850394
          },
          {
            "duration": 0.16666649999999805,
            "durationTicks": 96,
            "midi": 43,
            "name": "G2",
            "ticks": 30892,
            "time": 53.631890812500004,
            "velocity": 0.12598425196850394
          },
          {
            "duration": 0.1649303906250097,
            "durationTicks": 95,
            "midi": 43,
            "name": "G2",
            "ticks": 30974,
            "time": 53.774251781249994,
            "velocity": 0.12598425196850394
          },
          {
            "duration": 0.1649303906250097,
            "durationTicks": 95,
            "midi": 43,
            "name": "G2",
            "ticks": 30974,
            "time": 53.774251781249994,
            "velocity": 0.12598425196850394
          },
          {
            "duration": 0.16666649999999805,
            "durationTicks": 96,
            "midi": 70,
            "name": "A#4",
            "ticks": 31056,
            "time": 53.91661275,
            "velocity": 0.12598425196850394
          },
          {
            "duration": 0.16666649999999805,
            "durationTicks": 96,
            "midi": 67,
            "name": "G4",
            "ticks": 31056,
            "time": 53.91661275,
            "velocity": 0.12598425196850394
          },
          {
            "duration": 0.16840260937500062,
            "durationTicks": 97,
            "midi": 74,
            "name": "D5",
            "ticks": 31094,
            "time": 53.98258490625,
            "velocity": 0.11811023622047244
          },
          {
            "duration": 0.16840260937499352,
            "durationTicks": 97,
            "midi": 70,
            "name": "A#4",
            "ticks": 31099,
            "time": 53.991265453125,
            "velocity": 0.11811023622047244
          },
          {
            "duration": 0.1701387187499961,
            "durationTicks": 98,
            "midi": 67,
            "name": "G4",
            "ticks": 31137,
            "time": 54.057237609375,
            "velocity": 0.12598425196850394
          },
          {
            "duration": 0.1701387187500103,
            "durationTicks": 98,
            "midi": 62,
            "name": "D4",
            "ticks": 31142,
            "time": 54.06591815624999,
            "velocity": 0.12598425196850394
          },
          {
            "duration": 0.1701387187499961,
            "durationTicks": 98,
            "midi": 62,
            "name": "D4",
            "ticks": 31177,
            "time": 54.126681984375004,
            "velocity": 0.11811023622047244
          },
          {
            "duration": 0.1701387187500103,
            "durationTicks": 98,
            "midi": 58,
            "name": "A#3",
            "ticks": 31181,
            "time": 54.13362642187499,
            "velocity": 0.11811023622047244
          },
          {
            "duration": 0.1701387187500103,
            "durationTicks": 98,
            "midi": 70,
            "name": "A#4",
            "ticks": 31220,
            "time": 54.201334687499994,
            "velocity": 0.12598425196850394
          },
          {
            "duration": 0.1701387187499961,
            "durationTicks": 98,
            "midi": 67,
            "name": "G4",
            "ticks": 31225,
            "time": 54.210015234375,
            "velocity": 0.12598425196850394
          },
          {
            "duration": 0.1701387187499961,
            "durationTicks": 98,
            "midi": 67,
            "name": "G4",
            "ticks": 31260,
            "time": 54.2707790625,
            "velocity": 0.11023622047244094
          },
          {
            "duration": 0.1701387187499961,
            "durationTicks": 98,
            "midi": 62,
            "name": "D4",
            "ticks": 31264,
            "time": 54.2777235,
            "velocity": 0.11023622047244094
          },
          {
            "duration": 0.1701387187500032,
            "durationTicks": 98,
            "midi": 74,
            "name": "D5",
            "ticks": 31304,
            "time": 54.347167875,
            "velocity": 0.12598425196850394
          },
          {
            "duration": 0.1701387187499961,
            "durationTicks": 98,
            "midi": 70,
            "name": "A#4",
            "ticks": 31308,
            "time": 54.3541123125,
            "velocity": 0.12598425196850394
          },
          {
            "duration": 0.16840260937499352,
            "durationTicks": 97,
            "midi": 67,
            "name": "G4",
            "ticks": 31348,
            "time": 54.4235566875,
            "velocity": 0.11811023622047244
          },
          {
            "duration": 0.16840260937499352,
            "durationTicks": 97,
            "midi": 70,
            "name": "A#4",
            "ticks": 31348,
            "time": 54.4235566875,
            "velocity": 0.11811023622047244
          },
          {
            "duration": 0.16840260937499352,
            "durationTicks": 97,
            "midi": 74,
            "name": "D5",
            "ticks": 31387,
            "time": 54.491264953125004,
            "velocity": 0.12598425196850394
          },
          {
            "duration": 0.16840260937500773,
            "durationTicks": 97,
            "midi": 70,
            "name": "A#4",
            "ticks": 31392,
            "time": 54.499945499999995,
            "velocity": 0.12598425196850394
          },
          {
            "duration": 0.16666650000000516,
            "durationTicks": 96,
            "midi": 67,
            "name": "G4",
            "ticks": 31431,
            "time": 54.567653765624996,
            "velocity": 0.11023622047244094
          },
          {
            "duration": 0.16666650000000516,
            "durationTicks": 96,
            "midi": 70,
            "name": "A#4",
            "ticks": 31431,
            "time": 54.567653765624996,
            "velocity": 0.11023622047244094
          },
          {
            "duration": 0.16840260937500773,
            "durationTicks": 97,
            "midi": 67,
            "name": "G4",
            "ticks": 31470,
            "time": 54.63536203125,
            "velocity": 0.12598425196850394
          },
          {
            "duration": 0.16840260937499352,
            "durationTicks": 97,
            "midi": 62,
            "name": "D4",
            "ticks": 31474,
            "time": 54.64230646875,
            "velocity": 0.12598425196850394
          },
          {
            "duration": 0.16840260937500062,
            "durationTicks": 97,
            "midi": 58,
            "name": "A#3",
            "ticks": 31514,
            "time": 54.711750843749996,
            "velocity": 0.11811023622047244
          },
          {
            "duration": 0.16840260937500062,
            "durationTicks": 97,
            "midi": 62,
            "name": "D4",
            "ticks": 31514,
            "time": 54.711750843749996,
            "velocity": 0.11811023622047244
          },
          {
            "duration": 0.1701387187499961,
            "durationTicks": 98,
            "midi": 70,
            "name": "A#4",
            "ticks": 31552,
            "time": 54.777723,
            "velocity": 0.12598425196850394
          },
          {
            "duration": 0.1701387187499961,
            "durationTicks": 98,
            "midi": 67,
            "name": "G4",
            "ticks": 31557,
            "time": 54.786403546875,
            "velocity": 0.12598425196850394
          },
          {
            "duration": 0.1701387187499961,
            "durationTicks": 98,
            "midi": 74,
            "name": "D5",
            "ticks": 31596,
            "time": 54.8541118125,
            "velocity": 0.11023622047244094
          },
          {
            "duration": 0.1701387187499961,
            "durationTicks": 98,
            "midi": 70,
            "name": "A#4",
            "ticks": 31600,
            "time": 54.861056250000004,
            "velocity": 0.11023622047244094
          },
          {
            "duration": 0.1701387187499961,
            "durationTicks": 98,
            "midi": 79,
            "name": "G5",
            "ticks": 31635,
            "time": 54.921820078125,
            "velocity": 0.12598425196850394
          },
          {
            "duration": 0.1701387187500103,
            "durationTicks": 98,
            "midi": 74,
            "name": "D5",
            "ticks": 31640,
            "time": 54.93050062499999,
            "velocity": 0.12598425196850394
          },
          {
            "duration": 0.16840260937500773,
            "durationTicks": 97,
            "midi": 82,
            "name": "A#5",
            "ticks": 31679,
            "time": 54.998208890624994,
            "velocity": 0.11811023622047244
          },
          {
            "duration": 0.16840260937499352,
            "durationTicks": 97,
            "midi": 79,
            "name": "G5",
            "ticks": 31684,
            "time": 55.0068894375,
            "velocity": 0.11811023622047244
          },
          {
            "duration": 0.16840260937500062,
            "durationTicks": 97,
            "midi": 43,
            "name": "G2",
            "ticks": 31719,
            "time": 55.067653265625,
            "velocity": 0.11811023622047244
          },
          {
            "duration": 0.16840260937499352,
            "durationTicks": 97,
            "midi": 43,
            "name": "G2",
            "ticks": 31723,
            "time": 55.074597703125,
            "velocity": 0.11811023622047244
          },
          {
            "duration": 0.16666649999999805,
            "durationTicks": 96,
            "midi": 43,
            "name": "G2",
            "ticks": 31806,
            "time": 55.21869478125,
            "velocity": 0.12598425196850394
          },
          {
            "duration": 0.16666649999999805,
            "durationTicks": 96,
            "midi": 43,
            "name": "G2",
            "ticks": 31806,
            "time": 55.21869478125,
            "velocity": 0.12598425196850394
          },
          {
            "duration": 0.1649303906250026,
            "durationTicks": 95,
            "midi": 55,
            "name": "G3",
            "ticks": 31888,
            "time": 55.36105575,
            "velocity": 0.12598425196850394
          },
          {
            "duration": 0.1649303906250026,
            "durationTicks": 95,
            "midi": 55,
            "name": "G3",
            "ticks": 31888,
            "time": 55.36105575,
            "velocity": 0.12598425196850394
          },
          {
            "duration": 0.16666649999999805,
            "durationTicks": 96,
            "midi": 43,
            "name": "G2",
            "ticks": 31969,
            "time": 55.501680609375,
            "velocity": 0.12598425196850394
          },
          {
            "duration": 0.16666649999999805,
            "durationTicks": 96,
            "midi": 43,
            "name": "G2",
            "ticks": 31969,
            "time": 55.501680609375,
            "velocity": 0.12598425196850394
          },
          {
            "duration": 0.16840260937500062,
            "durationTicks": 97,
            "midi": 43,
            "name": "G2",
            "ticks": 32051,
            "time": 55.644041578125,
            "velocity": 0.12598425196850394
          },
          {
            "duration": 0.16840260937500062,
            "durationTicks": 97,
            "midi": 43,
            "name": "G2",
            "ticks": 32055,
            "time": 55.650986015625,
            "velocity": 0.12598425196850394
          },
          {
            "duration": 0.16840260937500773,
            "durationTicks": 97,
            "midi": 53,
            "name": "F3",
            "ticks": 32133,
            "time": 55.786402546874996,
            "velocity": 0.12598425196850394
          },
          {
            "duration": 0.16840260937500062,
            "durationTicks": 97,
            "midi": 53,
            "name": "F3",
            "ticks": 32138,
            "time": 55.795083093749994,
            "velocity": 0.12598425196850394
          },
          {
            "duration": 0.16840260937500062,
            "durationTicks": 97,
            "midi": 43,
            "name": "G2",
            "ticks": 32216,
            "time": 55.930499624999996,
            "velocity": 0.11811023622047244
          },
          {
            "duration": 0.16840260937500062,
            "durationTicks": 97,
            "midi": 43,
            "name": "G2",
            "ticks": 32220,
            "time": 55.9374440625,
            "velocity": 0.11811023622047244
          },
          {
            "duration": 0.16840260937500062,
            "durationTicks": 97,
            "midi": 43,
            "name": "G2",
            "ticks": 32298,
            "time": 56.07286059375,
            "velocity": 0.12598425196850394
          },
          {
            "duration": 0.16840260937500773,
            "durationTicks": 97,
            "midi": 43,
            "name": "G2",
            "ticks": 32303,
            "time": 56.08154114062499,
            "velocity": 0.12598425196850394
          },
          {
            "duration": 0.16840260937499352,
            "durationTicks": 97,
            "midi": 51,
            "name": "D#3",
            "ticks": 32380,
            "time": 56.2152215625,
            "velocity": 0.12598425196850394
          },
          {
            "duration": 0.16840260937500773,
            "durationTicks": 97,
            "midi": 51,
            "name": "D#3",
            "ticks": 32385,
            "time": 56.223902109375,
            "velocity": 0.12598425196850394
          },
          {
            "duration": 0.16840260937500062,
            "durationTicks": 97,
            "midi": 43,
            "name": "G2",
            "ticks": 32463,
            "time": 56.359318640625,
            "velocity": 0.11811023622047244
          },
          {
            "duration": 0.16840260937499352,
            "durationTicks": 97,
            "midi": 43,
            "name": "G2",
            "ticks": 32467,
            "time": 56.366263078125,
            "velocity": 0.11811023622047244
          },
          {
            "duration": 0.16840260937499352,
            "durationTicks": 97,
            "midi": 43,
            "name": "G2",
            "ticks": 32545,
            "time": 56.501679609375,
            "velocity": 0.12598425196850394
          },
          {
            "duration": 0.16840260937500062,
            "durationTicks": 97,
            "midi": 43,
            "name": "G2",
            "ticks": 32550,
            "time": 56.51036015625,
            "velocity": 0.12598425196850394
          },
          {
            "duration": 0.16840260937500773,
            "durationTicks": 97,
            "midi": 49,
            "name": "C#3",
            "ticks": 32628,
            "time": 56.645776687499996,
            "velocity": 0.12598425196850394
          },
          {
            "duration": 0.16840260937499352,
            "durationTicks": 97,
            "midi": 49,
            "name": "C#3",
            "ticks": 32632,
            "time": 56.652721125,
            "velocity": 0.12598425196850394
          },
          {
            "duration": 0.16666649999999805,
            "durationTicks": 96,
            "midi": 43,
            "name": "G2",
            "ticks": 32715,
            "time": 56.796818203125,
            "velocity": 0.12598425196850394
          },
          {
            "duration": 0.16666649999999805,
            "durationTicks": 96,
            "midi": 43,
            "name": "G2",
            "ticks": 32715,
            "time": 56.796818203125,
            "velocity": 0.12598425196850394
          },
          {
            "duration": 0.3333329999999961,
            "durationTicks": 192,
            "midi": 43,
            "name": "G2",
            "ticks": 32797,
            "time": 56.939179171875004,
            "velocity": 0.12598425196850394
          },
          {
            "duration": 0.3333329999999961,
            "durationTicks": 192,
            "midi": 43,
            "name": "G2",
            "ticks": 32797,
            "time": 56.939179171875004,
            "velocity": 0.12598425196850394
          },
          {
            "duration": 0.16840260937499352,
            "durationTicks": 97,
            "midi": 50,
            "name": "D3",
            "ticks": 32878,
            "time": 57.07980403125,
            "velocity": 0.12598425196850394
          },
          {
            "duration": 0.16840260937499352,
            "durationTicks": 97,
            "midi": 50,
            "name": "D3",
            "ticks": 32878,
            "time": 57.07980403125,
            "velocity": 0.12598425196850394
          },
          {
            "duration": 0.16840260937500062,
            "durationTicks": 97,
            "midi": 51,
            "name": "D#3",
            "ticks": 32961,
            "time": 57.223901109375,
            "velocity": 0.13385826771653545
          },
          {
            "duration": 0.16840260937499352,
            "durationTicks": 97,
            "midi": 51,
            "name": "D#3",
            "ticks": 32965,
            "time": 57.230845546875,
            "velocity": 0.13385826771653545
          },
          {
            "duration": 0.16840260937499352,
            "durationTicks": 97,
            "midi": 43,
            "name": "G2",
            "ticks": 33043,
            "time": 57.366262078125004,
            "velocity": 0.12598425196850394
          },
          {
            "duration": 0.16840260937500773,
            "durationTicks": 97,
            "midi": 43,
            "name": "G2",
            "ticks": 33048,
            "time": 57.374942624999996,
            "velocity": 0.12598425196850394
          },
          {
            "duration": 0.16840260937500062,
            "durationTicks": 97,
            "midi": 43,
            "name": "G2",
            "ticks": 33125,
            "time": 57.508623046874995,
            "velocity": 0.12598425196850394
          },
          {
            "duration": 0.16840260937499352,
            "durationTicks": 97,
            "midi": 43,
            "name": "G2",
            "ticks": 33130,
            "time": 57.51730359375,
            "velocity": 0.12598425196850394
          },
          {
            "duration": 0.16840260937499352,
            "durationTicks": 97,
            "midi": 55,
            "name": "G3",
            "ticks": 33208,
            "time": 57.652720125,
            "velocity": 0.12598425196850394
          },
          {
            "duration": 0.16840260937500062,
            "durationTicks": 97,
            "midi": 55,
            "name": "G3",
            "ticks": 33212,
            "time": 57.6596645625,
            "velocity": 0.12598425196850394
          },
          {
            "duration": 0.16840260937500773,
            "durationTicks": 97,
            "midi": 43,
            "name": "G2",
            "ticks": 33290,
            "time": 57.79508109374999,
            "velocity": 0.11811023622047244
          },
          {
            "duration": 0.16840260937499352,
            "durationTicks": 97,
            "midi": 43,
            "name": "G2",
            "ticks": 33295,
            "time": 57.803761640625,
            "velocity": 0.11811023622047244
          },
          {
            "duration": 0.16840260937499352,
            "durationTicks": 97,
            "midi": 43,
            "name": "G2",
            "ticks": 33373,
            "time": 57.939178171875,
            "velocity": 0.11811023622047244
          },
          {
            "duration": 0.16840260937500062,
            "durationTicks": 97,
            "midi": 43,
            "name": "G2",
            "ticks": 33377,
            "time": 57.946122609374996,
            "velocity": 0.11811023622047244
          },
          {
            "duration": 0.16840260937500062,
            "durationTicks": 97,
            "midi": 53,
            "name": "F3",
            "ticks": 33455,
            "time": 58.081539140625,
            "velocity": 0.11811023622047244
          },
          {
            "duration": 0.16840260937499352,
            "durationTicks": 97,
            "midi": 53,
            "name": "F3",
            "ticks": 33460,
            "time": 58.0902196875,
            "velocity": 0.11811023622047244
          },
          {
            "duration": 0.16840260937500773,
            "durationTicks": 97,
            "midi": 43,
            "name": "G2",
            "ticks": 33537,
            "time": 58.223900109374995,
            "velocity": 0.12598425196850394
          },
          {
            "duration": 0.16840260937500773,
            "durationTicks": 97,
            "midi": 43,
            "name": "G2",
            "ticks": 33542,
            "time": 58.23258065624999,
            "velocity": 0.12598425196850394
          },
          {
            "duration": 0.16666649999999805,
            "durationTicks": 96,
            "midi": 43,
            "name": "G2",
            "ticks": 33624,
            "time": 58.374941625,
            "velocity": 0.11811023622047244
          },
          {
            "duration": 0.16666649999999805,
            "durationTicks": 96,
            "midi": 43,
            "name": "G2",
            "ticks": 33624,
            "time": 58.374941625,
            "velocity": 0.11811023622047244
          },
          {
            "duration": 0.1649303906250026,
            "durationTicks": 95,
            "midi": 51,
            "name": "D#3",
            "ticks": 33707,
            "time": 58.519038703125,
            "velocity": 0.13385826771653545
          },
          {
            "duration": 0.1649303906250026,
            "durationTicks": 95,
            "midi": 51,
            "name": "D#3",
            "ticks": 33707,
            "time": 58.519038703125,
            "velocity": 0.13385826771653545
          },
          {
            "duration": 0.16666650000000516,
            "durationTicks": 96,
            "midi": 43,
            "name": "G2",
            "ticks": 33788,
            "time": 58.65966356249999,
            "velocity": 0.12598425196850394
          },
          {
            "duration": 0.16666650000000516,
            "durationTicks": 96,
            "midi": 43,
            "name": "G2",
            "ticks": 33788,
            "time": 58.65966356249999,
            "velocity": 0.12598425196850394
          },
          {
            "duration": 0.8350686093749999,
            "durationTicks": 481,
            "midi": 43,
            "name": "G2",
            "ticks": 33870,
            "time": 58.80202453125,
            "velocity": 0.12598425196850394
          },
          {
            "duration": 0.8350686093749928,
            "durationTicks": 481,
            "midi": 43,
            "name": "G2",
            "ticks": 33874,
            "time": 58.80896896875,
            "velocity": 0.12598425196850394
          },
          {
            "duration": 0.6666659999999993,
            "durationTicks": 384,
            "midi": 49,
            "name": "C#3",
            "ticks": 33952,
            "time": 58.9443855,
            "velocity": 0.12598425196850394
          },
          {
            "duration": 0.6666660000000064,
            "durationTicks": 384,
            "midi": 49,
            "name": "C#3",
            "ticks": 33956,
            "time": 58.95132993749999,
            "velocity": 0.12598425196850394
          },
          {
            "duration": 0.16840260937499352,
            "durationTicks": 97,
            "midi": 43,
            "name": "G2",
            "ticks": 34363,
            "time": 59.657926453125,
            "velocity": 0.11811023622047244
          },
          {
            "duration": 0.16840260937500062,
            "durationTicks": 97,
            "midi": 43,
            "name": "G2",
            "ticks": 34367,
            "time": 59.664870890625,
            "velocity": 0.11811023622047244
          },
          {
            "duration": 0.16840260937500062,
            "durationTicks": 97,
            "midi": 43,
            "name": "G2",
            "ticks": 34445,
            "time": 59.800287421875,
            "velocity": 0.11811023622047244
          },
          {
            "duration": 0.16840260937499352,
            "durationTicks": 97,
            "midi": 43,
            "name": "G2",
            "ticks": 34450,
            "time": 59.808967968750004,
            "velocity": 0.11811023622047244
          },
          {
            "duration": 0.16666649999999805,
            "durationTicks": 96,
            "midi": 55,
            "name": "G3",
            "ticks": 34532,
            "time": 59.951328937499994,
            "velocity": 0.12598425196850394
          },
          {
            "duration": 0.16666649999999805,
            "durationTicks": 96,
            "midi": 55,
            "name": "G3",
            "ticks": 34532,
            "time": 59.951328937499994,
            "velocity": 0.12598425196850394
          },
          {
            "duration": 0.16493039062499548,
            "durationTicks": 95,
            "midi": 43,
            "name": "G2",
            "ticks": 34615,
            "time": 60.095426015625,
            "velocity": 0.11811023622047244
          },
          {
            "duration": 0.16493039062499548,
            "durationTicks": 95,
            "midi": 43,
            "name": "G2",
            "ticks": 34615,
            "time": 60.095426015625,
            "velocity": 0.11811023622047244
          },
          {
            "duration": 0.16666649999999805,
            "durationTicks": 96,
            "midi": 43,
            "name": "G2",
            "ticks": 34696,
            "time": 60.236050875000004,
            "velocity": 0.12598425196850394
          },
          {
            "duration": 0.16666649999999805,
            "durationTicks": 96,
            "midi": 43,
            "name": "G2",
            "ticks": 34696,
            "time": 60.236050875000004,
            "velocity": 0.12598425196850394
          },
          {
            "duration": 0.16840260937499352,
            "durationTicks": 97,
            "midi": 53,
            "name": "F3",
            "ticks": 34777,
            "time": 60.376675734375,
            "velocity": 0.12598425196850394
          },
          {
            "duration": 0.16840260937500062,
            "durationTicks": 97,
            "midi": 53,
            "name": "F3",
            "ticks": 34782,
            "time": 60.38535628125,
            "velocity": 0.12598425196850394
          },
          {
            "duration": 0.16840260937500062,
            "durationTicks": 97,
            "midi": 43,
            "name": "G2",
            "ticks": 34860,
            "time": 60.5207728125,
            "velocity": 0.12598425196850394
          },
          {
            "duration": 0.16840260937499352,
            "durationTicks": 97,
            "midi": 43,
            "name": "G2",
            "ticks": 34864,
            "time": 60.52771725,
            "velocity": 0.12598425196850394
          },
          {
            "duration": 0.16840260937499352,
            "durationTicks": 97,
            "midi": 43,
            "name": "G2",
            "ticks": 34942,
            "time": 60.66313378125,
            "velocity": 0.12598425196850394
          },
          {
            "duration": 0.16840260937500773,
            "durationTicks": 97,
            "midi": 43,
            "name": "G2",
            "ticks": 34947,
            "time": 60.671814328124995,
            "velocity": 0.12598425196850394
          },
          {
            "duration": 0.16840260937500773,
            "durationTicks": 97,
            "midi": 51,
            "name": "D#3",
            "ticks": 35025,
            "time": 60.807230859375,
            "velocity": 0.13385826771653545
          },
          {
            "duration": 0.16840260937499352,
            "durationTicks": 97,
            "midi": 51,
            "name": "D#3",
            "ticks": 35029,
            "time": 60.814175296875,
            "velocity": 0.13385826771653545
          },
          {
            "duration": 0.16840260937499352,
            "durationTicks": 97,
            "midi": 43,
            "name": "G2",
            "ticks": 35107,
            "time": 60.949591828125,
            "velocity": 0.11811023622047244
          },
          {
            "duration": 0.16840260937500062,
            "durationTicks": 97,
            "midi": 43,
            "name": "G2",
            "ticks": 35111,
            "time": 60.956536265625,
            "velocity": 0.11811023622047244
          },
          {
            "duration": 0.16840260937500773,
            "durationTicks": 97,
            "midi": 43,
            "name": "G2",
            "ticks": 35189,
            "time": 61.09195279687499,
            "velocity": 0.11811023622047244
          },
          {
            "duration": 0.16840260937499352,
            "durationTicks": 97,
            "midi": 43,
            "name": "G2",
            "ticks": 35194,
            "time": 61.100633343750005,
            "velocity": 0.11811023622047244
          },
          {
            "duration": 0.16840260937499352,
            "durationTicks": 97,
            "midi": 49,
            "name": "C#3",
            "ticks": 35272,
            "time": 61.236049875,
            "velocity": 0.12598425196850394
          },
          {
            "duration": 0.16840260937500062,
            "durationTicks": 97,
            "midi": 49,
            "name": "C#3",
            "ticks": 35276,
            "time": 61.242994312499995,
            "velocity": 0.12598425196850394
          },
          {
            "duration": 0.16840260937500062,
            "durationTicks": 97,
            "midi": 43,
            "name": "G2",
            "ticks": 35354,
            "time": 61.37841084375,
            "velocity": 0.12598425196850394
          },
          {
            "duration": 0.16840260937499352,
            "durationTicks": 97,
            "midi": 43,
            "name": "G2",
            "ticks": 35359,
            "time": 61.387091390625,
            "velocity": 0.12598425196850394
          },
          {
            "duration": 0.3333330000000032,
            "durationTicks": 192,
            "midi": 43,
            "name": "G2",
            "ticks": 35441,
            "time": 61.52945235937499,
            "velocity": 0.12598425196850394
          },
          {
            "duration": 0.3333330000000032,
            "durationTicks": 192,
            "midi": 43,
            "name": "G2",
            "ticks": 35441,
            "time": 61.52945235937499,
            "velocity": 0.12598425196850394
          },
          {
            "duration": 0.16666649999999805,
            "durationTicks": 96,
            "midi": 50,
            "name": "D3",
            "ticks": 35523,
            "time": 61.671813328125,
            "velocity": 0.12598425196850394
          },
          {
            "duration": 0.16666649999999805,
            "durationTicks": 96,
            "midi": 50,
            "name": "D3",
            "ticks": 35523,
            "time": 61.671813328125,
            "velocity": 0.12598425196850394
          },
          {
            "duration": 0.16666649999999805,
            "durationTicks": 96,
            "midi": 51,
            "name": "D#3",
            "ticks": 35606,
            "time": 61.81591040625,
            "velocity": 0.12598425196850394
          },
          {
            "duration": 0.16666649999999805,
            "durationTicks": 96,
            "midi": 51,
            "name": "D#3",
            "ticks": 35606,
            "time": 61.81591040625,
            "velocity": 0.12598425196850394
          },
          {
            "duration": 0.16840260937500773,
            "durationTicks": 97,
            "midi": 43,
            "name": "G2",
            "ticks": 35687,
            "time": 61.95653526562499,
            "velocity": 0.12598425196850394
          },
          {
            "duration": 0.16840260937499352,
            "durationTicks": 97,
            "midi": 43,
            "name": "G2",
            "ticks": 35692,
            "time": 61.9652158125,
            "velocity": 0.12598425196850394
          },
          {
            "duration": 0.16840260937499352,
            "durationTicks": 97,
            "midi": 43,
            "name": "G2",
            "ticks": 35770,
            "time": 62.10063234375,
            "velocity": 0.11811023622047244
          },
          {
            "duration": 0.16840260937500062,
            "durationTicks": 97,
            "midi": 43,
            "name": "G2",
            "ticks": 35774,
            "time": 62.107576781249996,
            "velocity": 0.11811023622047244
          },
          {
            "duration": 0.16840260937500062,
            "durationTicks": 97,
            "midi": 55,
            "name": "G3",
            "ticks": 35852,
            "time": 62.2429933125,
            "velocity": 0.13385826771653545
          },
          {
            "duration": 0.16840260937500062,
            "durationTicks": 97,
            "midi": 55,
            "name": "G3",
            "ticks": 35856,
            "time": 62.24993775,
            "velocity": 0.13385826771653545
          },
          {
            "duration": 0.16840260937500773,
            "durationTicks": 97,
            "midi": 43,
            "name": "G2",
            "ticks": 35934,
            "time": 62.385354281249995,
            "velocity": 0.12598425196850394
          },
          {
            "duration": 0.16840260937500773,
            "durationTicks": 97,
            "midi": 43,
            "name": "G2",
            "ticks": 35939,
            "time": 62.394034828124994,
            "velocity": 0.12598425196850394
          },
          {
            "duration": 0.16840260937500062,
            "durationTicks": 97,
            "midi": 43,
            "name": "G2",
            "ticks": 36017,
            "time": 62.529451359374995,
            "velocity": 0.11811023622047244
          },
          {
            "duration": 0.16840260937500062,
            "durationTicks": 97,
            "midi": 43,
            "name": "G2",
            "ticks": 36021,
            "time": 62.536395796875,
            "velocity": 0.11811023622047244
          },
          {
            "duration": 0.16840260937500062,
            "durationTicks": 97,
            "midi": 53,
            "name": "F3",
            "ticks": 36099,
            "time": 62.671812328125,
            "velocity": 0.12598425196850394
          },
          {
            "duration": 0.16840260937500773,
            "durationTicks": 97,
            "midi": 53,
            "name": "F3",
            "ticks": 36104,
            "time": 62.68049287499999,
            "velocity": 0.12598425196850394
          },
          {
            "duration": 0.16840260937500773,
            "durationTicks": 97,
            "midi": 43,
            "name": "G2",
            "ticks": 36182,
            "time": 62.81590940624999,
            "velocity": 0.12598425196850394
          },
          {
            "duration": 0.16840260937500773,
            "durationTicks": 97,
            "midi": 43,
            "name": "G2",
            "ticks": 36186,
            "time": 62.822853843749996,
            "velocity": 0.12598425196850394
          },
          {
            "duration": 0.16840260937500062,
            "durationTicks": 97,
            "midi": 43,
            "name": "G2",
            "ticks": 36264,
            "time": 62.958270375,
            "velocity": 0.12598425196850394
          },
          {
            "duration": 0.16840260937499352,
            "durationTicks": 97,
            "midi": 43,
            "name": "G2",
            "ticks": 36268,
            "time": 62.9652148125,
            "velocity": 0.12598425196850394
          },
          {
            "duration": 0.16666649999999805,
            "durationTicks": 96,
            "midi": 69,
            "name": "A4",
            "ticks": 36351,
            "time": 63.109311890625,
            "velocity": 0.12598425196850394
          },
          {
            "duration": 0.16666649999999805,
            "durationTicks": 96,
            "midi": 66,
            "name": "F#4",
            "ticks": 36351,
            "time": 63.109311890625,
            "velocity": 0.12598425196850394
          },
          {
            "duration": 0.16666650000000516,
            "durationTicks": 96,
            "midi": 67,
            "name": "G4",
            "ticks": 36390,
            "time": 63.177020156249995,
            "velocity": 0.11811023622047244
          },
          {
            "duration": 0.16666649999999805,
            "durationTicks": 96,
            "midi": 63,
            "name": "D#4",
            "ticks": 36395,
            "time": 63.18570070312499,
            "velocity": 0.11811023622047244
          },
          {
            "duration": 0.16666650000000516,
            "durationTicks": 96,
            "midi": 62,
            "name": "D4",
            "ticks": 36433,
            "time": 63.251672859375,
            "velocity": 0.12598425196850394
          },
          {
            "duration": 0.16666650000000516,
            "durationTicks": 96,
            "midi": 66,
            "name": "F#4",
            "ticks": 36433,
            "time": 63.251672859375,
            "velocity": 0.12598425196850394
          },
          {
            "duration": 0.16840260937499352,
            "durationTicks": 97,
            "midi": 62,
            "name": "D4",
            "ticks": 36472,
            "time": 63.319381125,
            "velocity": 0.11811023622047244
          },
          {
            "duration": 0.16840260937500062,
            "durationTicks": 97,
            "midi": 57,
            "name": "A3",
            "ticks": 36476,
            "time": 63.326325562499996,
            "velocity": 0.11811023622047244
          },
          {
            "duration": 0.16840260937500062,
            "durationTicks": 97,
            "midi": 72,
            "name": "C5",
            "ticks": 36516,
            "time": 63.3957699375,
            "velocity": 0.12598425196850394
          },
          {
            "duration": 0.16840260937500062,
            "durationTicks": 97,
            "midi": 69,
            "name": "A4",
            "ticks": 36516,
            "time": 63.3957699375,
            "velocity": 0.12598425196850394
          },
          {
            "duration": 0.1701387187500032,
            "durationTicks": 98,
            "midi": 69,
            "name": "A4",
            "ticks": 36554,
            "time": 63.46174209375,
            "velocity": 0.11023622047244094
          },
          {
            "duration": 0.1701387187499961,
            "durationTicks": 98,
            "midi": 66,
            "name": "F#4",
            "ticks": 36559,
            "time": 63.470422640625,
            "velocity": 0.11023622047244094
          },
          {
            "duration": 0.1701387187499961,
            "durationTicks": 98,
            "midi": 66,
            "name": "F#4",
            "ticks": 36598,
            "time": 63.538130906250004,
            "velocity": 0.12598425196850394
          },
          {
            "duration": 0.1701387187500103,
            "durationTicks": 98,
            "midi": 62,
            "name": "D4",
            "ticks": 36602,
            "time": 63.54507534374999,
            "velocity": 0.12598425196850394
          },
          {
            "duration": 0.1701387187499961,
            "durationTicks": 98,
            "midi": 62,
            "name": "D4",
            "ticks": 36637,
            "time": 63.605839171875004,
            "velocity": 0.11811023622047244
          },
          {
            "duration": 0.1701387187499961,
            "durationTicks": 98,
            "midi": 60,
            "name": "C4",
            "ticks": 36642,
            "time": 63.614519718749996,
            "velocity": 0.11811023622047244
          },
          {
            "duration": 0.1701387187499961,
            "durationTicks": 98,
            "midi": 74,
            "name": "D5",
            "ticks": 36681,
            "time": 63.682227984375,
            "velocity": 0.12598425196850394
          },
          {
            "duration": 0.1701387187500032,
            "durationTicks": 98,
            "midi": 72,
            "name": "C5",
            "ticks": 36686,
            "time": 63.690908531249995,
            "velocity": 0.12598425196850394
          },
          {
            "duration": 0.1701387187499961,
            "durationTicks": 98,
            "midi": 72,
            "name": "C5",
            "ticks": 36721,
            "time": 63.751672359375,
            "velocity": 0.11023622047244094
          },
          {
            "duration": 0.1701387187500032,
            "durationTicks": 98,
            "midi": 69,
            "name": "A4",
            "ticks": 36725,
            "time": 63.758616796874996,
            "velocity": 0.11023622047244094
          },
          {
            "duration": 0.1701387187499961,
            "durationTicks": 98,
            "midi": 69,
            "name": "A4",
            "ticks": 36765,
            "time": 63.828061171875,
            "velocity": 0.12598425196850394
          },
          {
            "duration": 0.1701387187499961,
            "durationTicks": 98,
            "midi": 66,
            "name": "F#4",
            "ticks": 36769,
            "time": 63.835005609375,
            "velocity": 0.12598425196850394
          },
          {
            "duration": 0.16840260937500773,
            "durationTicks": 97,
            "midi": 62,
            "name": "D4",
            "ticks": 36809,
            "time": 63.90444998437499,
            "velocity": 0.11811023622047244
          },
          {
            "duration": 0.16840260937500773,
            "durationTicks": 97,
            "midi": 66,
            "name": "F#4",
            "ticks": 36809,
            "time": 63.90444998437499,
            "velocity": 0.11811023622047244
          },
          {
            "duration": 0.16840260937500773,
            "durationTicks": 97,
            "midi": 78,
            "name": "F#5",
            "ticks": 36848,
            "time": 63.97215824999999,
            "velocity": 0.12598425196850394
          },
          {
            "duration": 0.16840260937500062,
            "durationTicks": 97,
            "midi": 74,
            "name": "D5",
            "ticks": 36853,
            "time": 63.980838796875,
            "velocity": 0.12598425196850394
          },
          {
            "duration": 0.16666649999999095,
            "durationTicks": 96,
            "midi": 72,
            "name": "C5",
            "ticks": 36892,
            "time": 64.0485470625,
            "velocity": 0.11023622047244094
          },
          {
            "duration": 0.16666649999999095,
            "durationTicks": 96,
            "midi": 76,
            "name": "E5",
            "ticks": 36892,
            "time": 64.0485470625,
            "velocity": 0.11023622047244094
          },
          {
            "duration": 0.16840260937499352,
            "durationTicks": 97,
            "midi": 74,
            "name": "D5",
            "ticks": 36931,
            "time": 64.116255328125,
            "velocity": 0.12598425196850394
          },
          {
            "duration": 0.16840260937500773,
            "durationTicks": 97,
            "midi": 69,
            "name": "A4",
            "ticks": 36935,
            "time": 64.12319976562499,
            "velocity": 0.12598425196850394
          },
          {
            "duration": 0.16666650000000516,
            "durationTicks": 96,
            "midi": 66,
            "name": "F#4",
            "ticks": 36975,
            "time": 64.19264414062499,
            "velocity": 0.11811023622047244
          },
          {
            "duration": 0.16666650000000516,
            "durationTicks": 96,
            "midi": 72,
            "name": "C5",
            "ticks": 36975,
            "time": 64.19264414062499,
            "velocity": 0.11811023622047244
          },
          {
            "duration": 0.16840260937500773,
            "durationTicks": 97,
            "midi": 43,
            "name": "G2",
            "ticks": 37013,
            "time": 64.25861629687499,
            "velocity": 0.11811023622047244
          },
          {
            "duration": 0.16840260937500773,
            "durationTicks": 97,
            "midi": 43,
            "name": "G2",
            "ticks": 37017,
            "time": 64.265560734375,
            "velocity": 0.11811023622047244
          },
          {
            "duration": 0.16840260937499352,
            "durationTicks": 97,
            "midi": 43,
            "name": "G2",
            "ticks": 37095,
            "time": 64.400977265625,
            "velocity": 0.12598425196850394
          },
          {
            "duration": 0.16840260937499352,
            "durationTicks": 97,
            "midi": 43,
            "name": "G2",
            "ticks": 37100,
            "time": 64.4096578125,
            "velocity": 0.12598425196850394
          },
          {
            "duration": 0.16840260937500773,
            "durationTicks": 97,
            "midi": 55,
            "name": "G3",
            "ticks": 37178,
            "time": 64.54507434374999,
            "velocity": 0.12598425196850394
          },
          {
            "duration": 0.16840260937500773,
            "durationTicks": 97,
            "midi": 58,
            "name": "A#3",
            "ticks": 37182,
            "time": 64.55201878125,
            "velocity": 0.12598425196850394
          },
          {
            "duration": 0.16666649999999095,
            "durationTicks": 96,
            "midi": 43,
            "name": "G2",
            "ticks": 37265,
            "time": 64.696115859375,
            "velocity": 0.12598425196850394
          },
          {
            "duration": 0.16666649999999095,
            "durationTicks": 96,
            "midi": 43,
            "name": "G2",
            "ticks": 37265,
            "time": 64.696115859375,
            "velocity": 0.12598425196850394
          },
          {
            "duration": 0.1649303906250026,
            "durationTicks": 95,
            "midi": 43,
            "name": "G2",
            "ticks": 37347,
            "time": 64.838476828125,
            "velocity": 0.12598425196850394
          },
          {
            "duration": 0.1649303906250026,
            "durationTicks": 95,
            "midi": 43,
            "name": "G2",
            "ticks": 37347,
            "time": 64.838476828125,
            "velocity": 0.12598425196850394
          },
          {
            "duration": 0.16666650000000516,
            "durationTicks": 96,
            "midi": 57,
            "name": "A3",
            "ticks": 37428,
            "time": 64.97910168749999,
            "velocity": 0.12598425196850394
          },
          {
            "duration": 0.16666650000000516,
            "durationTicks": 96,
            "midi": 53,
            "name": "F3",
            "ticks": 37428,
            "time": 64.97910168749999,
            "velocity": 0.12598425196850394
          },
          {
            "duration": 0.16840260937499352,
            "durationTicks": 97,
            "midi": 43,
            "name": "G2",
            "ticks": 37510,
            "time": 65.12146265625,
            "velocity": 0.11811023622047244
          },
          {
            "duration": 0.16840260937499352,
            "durationTicks": 97,
            "midi": 43,
            "name": "G2",
            "ticks": 37514,
            "time": 65.12840709375,
            "velocity": 0.11811023622047244
          },
          {
            "duration": 0.16840260937499352,
            "durationTicks": 97,
            "midi": 43,
            "name": "G2",
            "ticks": 37592,
            "time": 65.263823625,
            "velocity": 0.12598425196850394
          },
          {
            "duration": 0.16840260937499352,
            "durationTicks": 97,
            "midi": 43,
            "name": "G2",
            "ticks": 37597,
            "time": 65.272504171875,
            "velocity": 0.12598425196850394
          },
          {
            "duration": 0.16840260937499352,
            "durationTicks": 97,
            "midi": 51,
            "name": "D#3",
            "ticks": 37675,
            "time": 65.407920703125,
            "velocity": 0.12598425196850394
          },
          {
            "duration": 0.16840260937500773,
            "durationTicks": 97,
            "midi": 54,
            "name": "F#3",
            "ticks": 37679,
            "time": 65.414865140625,
            "velocity": 0.12598425196850394
          },
          {
            "duration": 0.16840260937499352,
            "durationTicks": 97,
            "midi": 43,
            "name": "G2",
            "ticks": 37757,
            "time": 65.550281671875,
            "velocity": 0.11811023622047244
          },
          {
            "duration": 0.16840260937500773,
            "durationTicks": 97,
            "midi": 43,
            "name": "G2",
            "ticks": 37761,
            "time": 65.557226109375,
            "velocity": 0.11811023622047244
          },
          {
            "duration": 0.16840260937500773,
            "durationTicks": 97,
            "midi": 43,
            "name": "G2",
            "ticks": 37839,
            "time": 65.692642640625,
            "velocity": 0.12598425196850394
          },
          {
            "duration": 0.16840260937500773,
            "durationTicks": 97,
            "midi": 43,
            "name": "G2",
            "ticks": 37844,
            "time": 65.7013231875,
            "velocity": 0.12598425196850394
          },
          {
            "duration": 0.16840260937500773,
            "durationTicks": 97,
            "midi": 49,
            "name": "C#3",
            "ticks": 37922,
            "time": 65.83673971875,
            "velocity": 0.12598425196850394
          },
          {
            "duration": 0.16840260937500773,
            "durationTicks": 97,
            "midi": 53,
            "name": "F3",
            "ticks": 37926,
            "time": 65.84368415624999,
            "velocity": 0.12598425196850394
          },
          {
            "duration": 0.16840260937500773,
            "durationTicks": 97,
            "midi": 43,
            "name": "G2",
            "ticks": 38004,
            "time": 65.9791006875,
            "velocity": 0.12598425196850394
          },
          {
            "duration": 0.16840260937500773,
            "durationTicks": 97,
            "midi": 43,
            "name": "G2",
            "ticks": 38009,
            "time": 65.98778123437499,
            "velocity": 0.12598425196850394
          },
          {
            "duration": 0.3350691093749987,
            "durationTicks": 193,
            "midi": 43,
            "name": "G2",
            "ticks": 38087,
            "time": 66.123197765625,
            "velocity": 0.12598425196850394
          },
          {
            "duration": 0.3350691093749987,
            "durationTicks": 193,
            "midi": 43,
            "name": "G2",
            "ticks": 38091,
            "time": 66.130142203125,
            "velocity": 0.12598425196850394
          },
          {
            "duration": 0.16666650000000516,
            "durationTicks": 96,
            "midi": 53,
            "name": "F3",
            "ticks": 38173,
            "time": 66.272503171875,
            "velocity": 0.12598425196850394
          },
          {
            "duration": 0.16666650000000516,
            "durationTicks": 96,
            "midi": 50,
            "name": "D3",
            "ticks": 38173,
            "time": 66.272503171875,
            "velocity": 0.12598425196850394
          },
          {
            "duration": 0.16666649999999095,
            "durationTicks": 96,
            "midi": 55,
            "name": "G3",
            "ticks": 38256,
            "time": 66.41660025,
            "velocity": 0.13385826771653545
          },
          {
            "duration": 0.16666649999999095,
            "durationTicks": 96,
            "midi": 51,
            "name": "D#3",
            "ticks": 38256,
            "time": 66.41660025,
            "velocity": 0.13385826771653545
          },
          {
            "duration": 0.16666650000000516,
            "durationTicks": 96,
            "midi": 43,
            "name": "G2",
            "ticks": 38338,
            "time": 66.55896121875,
            "velocity": 0.12598425196850394
          },
          {
            "duration": 0.16666650000000516,
            "durationTicks": 96,
            "midi": 43,
            "name": "G2",
            "ticks": 38338,
            "time": 66.55896121875,
            "velocity": 0.12598425196850394
          },
          {
            "duration": 0.16840260937500773,
            "durationTicks": 97,
            "midi": 43,
            "name": "G2",
            "ticks": 38420,
            "time": 66.7013221875,
            "velocity": 0.12598425196850394
          },
          {
            "duration": 0.16840260937500773,
            "durationTicks": 97,
            "midi": 43,
            "name": "G2",
            "ticks": 38424,
            "time": 66.708266625,
            "velocity": 0.12598425196850394
          },
          {
            "duration": 0.16840260937500773,
            "durationTicks": 97,
            "midi": 55,
            "name": "G3",
            "ticks": 38502,
            "time": 66.84368315625,
            "velocity": 0.12598425196850394
          },
          {
            "duration": 0.16840260937500773,
            "durationTicks": 97,
            "midi": 58,
            "name": "A#3",
            "ticks": 38507,
            "time": 66.852363703125,
            "velocity": 0.12598425196850394
          },
          {
            "duration": 0.16840260937499352,
            "durationTicks": 97,
            "midi": 43,
            "name": "G2",
            "ticks": 38584,
            "time": 66.986044125,
            "velocity": 0.11811023622047244
          },
          {
            "duration": 0.16840260937499352,
            "durationTicks": 97,
            "midi": 43,
            "name": "G2",
            "ticks": 38589,
            "time": 66.994724671875,
            "velocity": 0.11811023622047244
          },
          {
            "duration": 0.16840260937500773,
            "durationTicks": 97,
            "midi": 43,
            "name": "G2",
            "ticks": 38667,
            "time": 67.13014120312499,
            "velocity": 0.11811023622047244
          },
          {
            "duration": 0.16840260937499352,
            "durationTicks": 97,
            "midi": 43,
            "name": "G2",
            "ticks": 38671,
            "time": 67.137085640625,
            "velocity": 0.11811023622047244
          },
          {
            "duration": 0.16840260937499352,
            "durationTicks": 97,
            "midi": 53,
            "name": "F3",
            "ticks": 38749,
            "time": 67.272502171875,
            "velocity": 0.11811023622047244
          },
          {
            "duration": 0.16840260937499352,
            "durationTicks": 97,
            "midi": 57,
            "name": "A3",
            "ticks": 38754,
            "time": 67.28118271875,
            "velocity": 0.11811023622047244
          },
          {
            "duration": 0.16840260937499352,
            "durationTicks": 97,
            "midi": 43,
            "name": "G2",
            "ticks": 38832,
            "time": 67.41659925,
            "velocity": 0.12598425196850394
          },
          {
            "duration": 0.16840260937499352,
            "durationTicks": 97,
            "midi": 43,
            "name": "G2",
            "ticks": 38836,
            "time": 67.4235436875,
            "velocity": 0.12598425196850394
          },
          {
            "duration": 0.16840260937499352,
            "durationTicks": 97,
            "midi": 43,
            "name": "G2",
            "ticks": 38914,
            "time": 67.55896021875,
            "velocity": 0.11811023622047244
          },
          {
            "duration": 0.16840260937499352,
            "durationTicks": 97,
            "midi": 43,
            "name": "G2",
            "ticks": 38918,
            "time": 67.56590465625,
            "velocity": 0.11811023622047244
          },
          {
            "duration": 0.16840260937499352,
            "durationTicks": 97,
            "midi": 51,
            "name": "D#3",
            "ticks": 38996,
            "time": 67.7013211875,
            "velocity": 0.13385826771653545
          },
          {
            "duration": 0.16840260937499352,
            "durationTicks": 97,
            "midi": 55,
            "name": "G3",
            "ticks": 39001,
            "time": 67.710001734375,
            "velocity": 0.13385826771653545
          },
          {
            "duration": 0.16666650000000516,
            "durationTicks": 96,
            "midi": 43,
            "name": "G2",
            "ticks": 39083,
            "time": 67.852362703125,
            "velocity": 0.12598425196850394
          },
          {
            "duration": 0.16666650000000516,
            "durationTicks": 96,
            "midi": 43,
            "name": "G2",
            "ticks": 39083,
            "time": 67.852362703125,
            "velocity": 0.12598425196850394
          },
          {
            "duration": 0.831596390625009,
            "durationTicks": 479,
            "midi": 43,
            "name": "G2",
            "ticks": 39166,
            "time": 67.99645978125,
            "velocity": 0.12598425196850394
          },
          {
            "duration": 0.831596390625009,
            "durationTicks": 479,
            "midi": 43,
            "name": "G2",
            "ticks": 39166,
            "time": 67.99645978125,
            "velocity": 0.12598425196850394
          },
          {
            "duration": 0.6666659999999922,
            "durationTicks": 384,
            "midi": 52,
            "name": "E3",
            "ticks": 39247,
            "time": 68.137084640625,
            "velocity": 0.12598425196850394
          },
          {
            "duration": 0.6666659999999922,
            "durationTicks": 384,
            "midi": 49,
            "name": "C#3",
            "ticks": 39247,
            "time": 68.137084640625,
            "velocity": 0.12598425196850394
          },
          {
            "duration": 0.16840260937500773,
            "durationTicks": 97,
            "midi": 43,
            "name": "G2",
            "ticks": 39657,
            "time": 68.848889484375,
            "velocity": 0.11811023622047244
          },
          {
            "duration": 0.16840260937500773,
            "durationTicks": 97,
            "midi": 43,
            "name": "G2",
            "ticks": 39662,
            "time": 68.85757003124999,
            "velocity": 0.11811023622047244
          },
          {
            "duration": 0.16840260937499352,
            "durationTicks": 97,
            "midi": 43,
            "name": "G2",
            "ticks": 39739,
            "time": 68.991250453125,
            "velocity": 0.11811023622047244
          },
          {
            "duration": 0.16840260937499352,
            "durationTicks": 97,
            "midi": 43,
            "name": "G2",
            "ticks": 39744,
            "time": 68.999931,
            "velocity": 0.11811023622047244
          },
          {
            "duration": 0.16840260937500773,
            "durationTicks": 97,
            "midi": 55,
            "name": "G3",
            "ticks": 39822,
            "time": 69.13534753124999,
            "velocity": 0.12598425196850394
          },
          {
            "duration": 0.16840260937499352,
            "durationTicks": 97,
            "midi": 58,
            "name": "A#3",
            "ticks": 39826,
            "time": 69.14229196875,
            "velocity": 0.12598425196850394
          },
          {
            "duration": 0.16840260937499352,
            "durationTicks": 97,
            "midi": 43,
            "name": "G2",
            "ticks": 39904,
            "time": 69.2777085,
            "velocity": 0.11811023622047244
          },
          {
            "duration": 0.16840260937499352,
            "durationTicks": 97,
            "midi": 43,
            "name": "G2",
            "ticks": 39909,
            "time": 69.286389046875,
            "velocity": 0.11811023622047244
          },
          {
            "duration": 0.16666650000000516,
            "durationTicks": 96,
            "midi": 43,
            "name": "G2",
            "ticks": 39991,
            "time": 69.428750015625,
            "velocity": 0.12598425196850394
          },
          {
            "duration": 0.16666650000000516,
            "durationTicks": 96,
            "midi": 43,
            "name": "G2",
            "ticks": 39991,
            "time": 69.428750015625,
            "velocity": 0.12598425196850394
          },
          {
            "duration": 0.1649303906250026,
            "durationTicks": 95,
            "midi": 57,
            "name": "A3",
            "ticks": 40073,
            "time": 69.571110984375,
            "velocity": 0.12598425196850394
          },
          {
            "duration": 0.1649303906250026,
            "durationTicks": 95,
            "midi": 53,
            "name": "F3",
            "ticks": 40073,
            "time": 69.571110984375,
            "velocity": 0.12598425196850394
          },
          {
            "duration": 0.16666650000000516,
            "durationTicks": 96,
            "midi": 43,
            "name": "G2",
            "ticks": 40155,
            "time": 69.713471953125,
            "velocity": 0.12598425196850394
          },
          {
            "duration": 0.16666650000000516,
            "durationTicks": 96,
            "midi": 43,
            "name": "G2",
            "ticks": 40155,
            "time": 69.713471953125,
            "velocity": 0.12598425196850394
          },
          {
            "duration": 0.16840260937499352,
            "durationTicks": 97,
            "midi": 43,
            "name": "G2",
            "ticks": 40236,
            "time": 69.8540968125,
            "velocity": 0.12598425196850394
          },
          {
            "duration": 0.16840260937500773,
            "durationTicks": 97,
            "midi": 43,
            "name": "G2",
            "ticks": 40241,
            "time": 69.86277735937499,
            "velocity": 0.12598425196850394
          },
          {
            "duration": 0.16840260937500773,
            "durationTicks": 97,
            "midi": 51,
            "name": "D#3",
            "ticks": 40319,
            "time": 69.99819389062499,
            "velocity": 0.13385826771653545
          },
          {
            "duration": 0.16840260937500773,
            "durationTicks": 97,
            "midi": 54,
            "name": "F#3",
            "ticks": 40323,
            "time": 70.005138328125,
            "velocity": 0.13385826771653545
          },
          {
            "duration": 0.16840260937499352,
            "durationTicks": 97,
            "midi": 43,
            "name": "G2",
            "ticks": 40401,
            "time": 70.140554859375,
            "velocity": 0.11811023622047244
          },
          {
            "duration": 0.16840260937499352,
            "durationTicks": 97,
            "midi": 43,
            "name": "G2",
            "ticks": 40406,
            "time": 70.14923540625,
            "velocity": 0.11811023622047244
          },
          {
            "duration": 0.16840260937499352,
            "durationTicks": 97,
            "midi": 43,
            "name": "G2",
            "ticks": 40483,
            "time": 70.282915828125,
            "velocity": 0.11811023622047244
          },
          {
            "duration": 0.16840260937500773,
            "durationTicks": 97,
            "midi": 43,
            "name": "G2",
            "ticks": 40488,
            "time": 70.291596375,
            "velocity": 0.11811023622047244
          },
          {
            "duration": 0.16840260937500773,
            "durationTicks": 97,
            "midi": 49,
            "name": "C#3",
            "ticks": 40566,
            "time": 70.42701290625,
            "velocity": 0.12598425196850394
          },
          {
            "duration": 0.16840260937499352,
            "durationTicks": 97,
            "midi": 53,
            "name": "F3",
            "ticks": 40570,
            "time": 70.43395734375,
            "velocity": 0.12598425196850394
          },
          {
            "duration": 0.16840260937499352,
            "durationTicks": 97,
            "midi": 43,
            "name": "G2",
            "ticks": 40648,
            "time": 70.569373875,
            "velocity": 0.12598425196850394
          },
          {
            "duration": 0.16840260937500773,
            "durationTicks": 97,
            "midi": 43,
            "name": "G2",
            "ticks": 40653,
            "time": 70.578054421875,
            "velocity": 0.12598425196850394
          },
          {
            "duration": 0.33680521875000125,
            "durationTicks": 194,
            "midi": 43,
            "name": "G2",
            "ticks": 40731,
            "time": 70.713470953125,
            "velocity": 0.12598425196850394
          },
          {
            "duration": 0.33680521874998703,
            "durationTicks": 194,
            "midi": 43,
            "name": "G2",
            "ticks": 40735,
            "time": 70.720415390625,
            "velocity": 0.12598425196850394
          },
          {
            "duration": 0.16840260937499352,
            "durationTicks": 97,
            "midi": 50,
            "name": "D3",
            "ticks": 40813,
            "time": 70.855831921875,
            "velocity": 0.12598425196850394
          },
          {
            "duration": 0.16840260937500773,
            "durationTicks": 97,
            "midi": 53,
            "name": "F3",
            "ticks": 40818,
            "time": 70.86451246875,
            "velocity": 0.12598425196850394
          },
          {
            "duration": 0.16840260937499352,
            "durationTicks": 97,
            "midi": 55,
            "name": "G3",
            "ticks": 40900,
            "time": 71.0068734375,
            "velocity": 0.12598425196850394
          },
          {
            "duration": 0.16840260937499352,
            "durationTicks": 97,
            "midi": 51,
            "name": "D#3",
            "ticks": 40900,
            "time": 71.0068734375,
            "velocity": 0.12598425196850394
          },
          {
            "duration": 0.16493039062498838,
            "durationTicks": 95,
            "midi": 43,
            "name": "G2",
            "ticks": 40983,
            "time": 71.150970515625,
            "velocity": 0.12598425196850394
          },
          {
            "duration": 0.16493039062498838,
            "durationTicks": 95,
            "midi": 43,
            "name": "G2",
            "ticks": 40983,
            "time": 71.150970515625,
            "velocity": 0.12598425196850394
          },
          {
            "duration": 0.16666650000000516,
            "durationTicks": 96,
            "midi": 43,
            "name": "G2",
            "ticks": 41065,
            "time": 71.293331484375,
            "velocity": 0.11811023622047244
          },
          {
            "duration": 0.3350691093749987,
            "durationTicks": 193,
            "midi": 43,
            "name": "G2",
            "ticks": 41065,
            "time": 71.293331484375,
            "velocity": 0.11811023622047244
          },
          {
            "duration": 0.16840260937499352,
            "durationTicks": 97,
            "midi": 55,
            "name": "G3",
            "ticks": 41146,
            "time": 71.43395634375,
            "velocity": 0.13385826771653545
          },
          {
            "duration": 0.16840260937500773,
            "durationTicks": 97,
            "midi": 58,
            "name": "A#3",
            "ticks": 41151,
            "time": 71.442636890625,
            "velocity": 0.13385826771653545
          },
          {
            "duration": 0.1701387187500103,
            "durationTicks": 98,
            "midi": 43,
            "name": "G2",
            "ticks": 41228,
            "time": 71.5763173125,
            "velocity": 0.12598425196850394
          },
          {
            "duration": 0.1701387187499961,
            "durationTicks": 98,
            "midi": 43,
            "name": "G2",
            "ticks": 41233,
            "time": 71.58499785937501,
            "velocity": 0.12598425196850394
          },
          {
            "duration": 0.16840260937499352,
            "durationTicks": 97,
            "midi": 43,
            "name": "G2",
            "ticks": 41312,
            "time": 71.7221505,
            "velocity": 0.11811023622047244
          },
          {
            "duration": 0.16840260937500773,
            "durationTicks": 97,
            "midi": 43,
            "name": "G2",
            "ticks": 41316,
            "time": 71.7290949375,
            "velocity": 0.11811023622047244
          },
          {
            "duration": 0.16840260937500773,
            "durationTicks": 97,
            "midi": 53,
            "name": "F3",
            "ticks": 41394,
            "time": 71.86451146875,
            "velocity": 0.12598425196850394
          },
          {
            "duration": 0.16840260937500773,
            "durationTicks": 97,
            "midi": 57,
            "name": "A3",
            "ticks": 41399,
            "time": 71.873192015625,
            "velocity": 0.12598425196850394
          },
          {
            "duration": 0.16840260937500773,
            "durationTicks": 97,
            "midi": 43,
            "name": "G2",
            "ticks": 41477,
            "time": 72.008608546875,
            "velocity": 0.12598425196850394
          },
          {
            "duration": 0.16840260937500773,
            "durationTicks": 97,
            "midi": 43,
            "name": "G2",
            "ticks": 41481,
            "time": 72.01555298437499,
            "velocity": 0.12598425196850394
          },
          {
            "duration": 0.16840260937500773,
            "durationTicks": 97,
            "midi": 43,
            "name": "G2",
            "ticks": 41559,
            "time": 72.150969515625,
            "velocity": 0.12598425196850394
          },
          {
            "duration": 0.16840260937500773,
            "durationTicks": 97,
            "midi": 43,
            "name": "G2",
            "ticks": 41564,
            "time": 72.15965006249999,
            "velocity": 0.12598425196850394
          },
          {
            "duration": 0.1701387187499961,
            "durationTicks": 98,
            "midi": 82,
            "name": "A#5",
            "ticks": 41641,
            "time": 72.293330484375,
            "velocity": 0.11811023622047244
          },
          {
            "duration": 0.1701387187499961,
            "durationTicks": 98,
            "midi": 79,
            "name": "G5",
            "ticks": 41646,
            "time": 72.30201103125,
            "velocity": 0.11811023622047244
          },
          {
            "duration": 0.1701387187499961,
            "durationTicks": 98,
            "midi": 79,
            "name": "G5",
            "ticks": 41685,
            "time": 72.369719296875,
            "velocity": 0.12598425196850394
          },
          {
            "duration": 0.1701387187500103,
            "durationTicks": 98,
            "midi": 74,
            "name": "D5",
            "ticks": 41690,
            "time": 72.37839984374999,
            "velocity": 0.12598425196850394
          },
          {
            "duration": 0.1701387187499961,
            "durationTicks": 98,
            "midi": 74,
            "name": "D5",
            "ticks": 41725,
            "time": 72.43916367187501,
            "velocity": 0.11023622047244094
          },
          {
            "duration": 0.1701387187500103,
            "durationTicks": 98,
            "midi": 70,
            "name": "A#4",
            "ticks": 41729,
            "time": 72.44610810937499,
            "velocity": 0.11023622047244094
          },
          {
            "duration": 0.1701387187499961,
            "durationTicks": 98,
            "midi": 70,
            "name": "A#4",
            "ticks": 41769,
            "time": 72.515552484375,
            "velocity": 0.12598425196850394
          },
          {
            "duration": 0.1701387187499961,
            "durationTicks": 98,
            "midi": 67,
            "name": "G4",
            "ticks": 41773,
            "time": 72.522496921875,
            "velocity": 0.12598425196850394
          },
          {
            "duration": 0.16840260937500773,
            "durationTicks": 97,
            "midi": 74,
            "name": "D5",
            "ticks": 41813,
            "time": 72.59194129687499,
            "velocity": 0.11811023622047244
          },
          {
            "duration": 0.16840260937500773,
            "durationTicks": 97,
            "midi": 79,
            "name": "G5",
            "ticks": 41813,
            "time": 72.59194129687499,
            "velocity": 0.11811023622047244
          },
          {
            "duration": 0.16840260937500773,
            "durationTicks": 97,
            "midi": 82,
            "name": "A#5",
            "ticks": 41852,
            "time": 72.6596495625,
            "velocity": 0.12598425196850394
          },
          {
            "duration": 0.16840260937499352,
            "durationTicks": 97,
            "midi": 79,
            "name": "G5",
            "ticks": 41857,
            "time": 72.668330109375,
            "velocity": 0.12598425196850394
          },
          {
            "duration": 0.16666649999999095,
            "durationTicks": 96,
            "midi": 79,
            "name": "G5",
            "ticks": 41896,
            "time": 72.736038375,
            "velocity": 0.11023622047244094
          },
          {
            "duration": 0.16666649999999095,
            "durationTicks": 96,
            "midi": 74,
            "name": "D5",
            "ticks": 41896,
            "time": 72.736038375,
            "velocity": 0.11023622047244094
          },
          {
            "duration": 0.16840260937499352,
            "durationTicks": 97,
            "midi": 74,
            "name": "D5",
            "ticks": 41935,
            "time": 72.80374664062501,
            "velocity": 0.12598425196850394
          },
          {
            "duration": 0.16840260937500773,
            "durationTicks": 97,
            "midi": 70,
            "name": "A#4",
            "ticks": 41939,
            "time": 72.81069107812499,
            "velocity": 0.12598425196850394
          },
          {
            "duration": 0.16840260937500773,
            "durationTicks": 97,
            "midi": 67,
            "name": "G4",
            "ticks": 41979,
            "time": 72.88013545312499,
            "velocity": 0.11811023622047244
          },
          {
            "duration": 0.16840260937500773,
            "durationTicks": 97,
            "midi": 70,
            "name": "A#4",
            "ticks": 41979,
            "time": 72.88013545312499,
            "velocity": 0.11811023622047244
          },
          {
            "duration": 0.1701387187500103,
            "durationTicks": 98,
            "midi": 74,
            "name": "D5",
            "ticks": 42017,
            "time": 72.94610760937499,
            "velocity": 0.12598425196850394
          },
          {
            "duration": 0.1701387187499961,
            "durationTicks": 98,
            "midi": 70,
            "name": "A#4",
            "ticks": 42021,
            "time": 72.953052046875,
            "velocity": 0.12598425196850394
          },
          {
            "duration": 0.1701387187499961,
            "durationTicks": 98,
            "midi": 79,
            "name": "G5",
            "ticks": 42061,
            "time": 73.022496421875,
            "velocity": 0.11023622047244094
          },
          {
            "duration": 0.1701387187499961,
            "durationTicks": 98,
            "midi": 74,
            "name": "D5",
            "ticks": 42065,
            "time": 73.029440859375,
            "velocity": 0.11023622047244094
          },
          {
            "duration": 0.1701387187499961,
            "durationTicks": 98,
            "midi": 74,
            "name": "D5",
            "ticks": 42100,
            "time": 73.0902046875,
            "velocity": 0.12598425196850394
          },
          {
            "duration": 0.1701387187499961,
            "durationTicks": 98,
            "midi": 70,
            "name": "A#4",
            "ticks": 42105,
            "time": 73.098885234375,
            "velocity": 0.12598425196850394
          },
          {
            "duration": 0.1701387187499961,
            "durationTicks": 98,
            "midi": 82,
            "name": "A#5",
            "ticks": 42144,
            "time": 73.1665935,
            "velocity": 0.11811023622047244
          },
          {
            "duration": 0.1701387187500103,
            "durationTicks": 98,
            "midi": 79,
            "name": "G5",
            "ticks": 42149,
            "time": 73.17527404687499,
            "velocity": 0.11811023622047244
          },
          {
            "duration": 0.1701387187499961,
            "durationTicks": 98,
            "midi": 79,
            "name": "G5",
            "ticks": 42184,
            "time": 73.23603787500001,
            "velocity": 0.12598425196850394
          },
          {
            "duration": 0.1701387187500103,
            "durationTicks": 98,
            "midi": 74,
            "name": "D5",
            "ticks": 42188,
            "time": 73.24298231249999,
            "velocity": 0.12598425196850394
          },
          {
            "duration": 0.1701387187499961,
            "durationTicks": 98,
            "midi": 74,
            "name": "D5",
            "ticks": 42228,
            "time": 73.3124266875,
            "velocity": 0.11811023622047244
          },
          {
            "duration": 0.1701387187499961,
            "durationTicks": 98,
            "midi": 70,
            "name": "A#4",
            "ticks": 42232,
            "time": 73.319371125,
            "velocity": 0.11811023622047244
          },
          {
            "duration": 0.16840260937500773,
            "durationTicks": 97,
            "midi": 67,
            "name": "G4",
            "ticks": 42272,
            "time": 73.38881549999999,
            "velocity": 0.12598425196850394
          },
          {
            "duration": 0.16840260937500773,
            "durationTicks": 97,
            "midi": 70,
            "name": "A#4",
            "ticks": 42272,
            "time": 73.38881549999999,
            "velocity": 0.12598425196850394
          },
          {
            "duration": 0.16840260937500773,
            "durationTicks": 97,
            "midi": 48,
            "name": "C3",
            "ticks": 42311,
            "time": 73.456523765625,
            "velocity": 0.11811023622047244
          },
          {
            "duration": 0.16840260937499352,
            "durationTicks": 97,
            "midi": 48,
            "name": "C3",
            "ticks": 42316,
            "time": 73.4652043125,
            "velocity": 0.11811023622047244
          },
          {
            "duration": 0.16840260937500773,
            "durationTicks": 97,
            "midi": 48,
            "name": "C3",
            "ticks": 42393,
            "time": 73.59888473437499,
            "velocity": 0.12598425196850394
          },
          {
            "duration": 0.16840260937500773,
            "durationTicks": 97,
            "midi": 48,
            "name": "C3",
            "ticks": 42398,
            "time": 73.60756528124999,
            "velocity": 0.12598425196850394
          },
          {
            "duration": 0.16840260937500773,
            "durationTicks": 97,
            "midi": 60,
            "name": "C4",
            "ticks": 42476,
            "time": 73.74298181249999,
            "velocity": 0.12598425196850394
          },
          {
            "duration": 0.16840260937499352,
            "durationTicks": 97,
            "midi": 63,
            "name": "D#4",
            "ticks": 42480,
            "time": 73.74992625,
            "velocity": 0.12598425196850394
          },
          {
            "duration": 0.16840260937499352,
            "durationTicks": 97,
            "midi": 48,
            "name": "C3",
            "ticks": 42558,
            "time": 73.88534278125,
            "velocity": 0.12598425196850394
          },
          {
            "duration": 0.16840260937499352,
            "durationTicks": 97,
            "midi": 48,
            "name": "C3",
            "ticks": 42563,
            "time": 73.894023328125,
            "velocity": 0.12598425196850394
          },
          {
            "duration": 0.16840260937500773,
            "durationTicks": 97,
            "midi": 48,
            "name": "C3",
            "ticks": 42641,
            "time": 74.02943985937499,
            "velocity": 0.12598425196850394
          },
          {
            "duration": 0.16840260937500773,
            "durationTicks": 97,
            "midi": 48,
            "name": "C3",
            "ticks": 42645,
            "time": 74.036384296875,
            "velocity": 0.12598425196850394
          },
          {
            "duration": 0.16666649999999095,
            "durationTicks": 96,
            "midi": 62,
            "name": "D4",
            "ticks": 42728,
            "time": 74.180481375,
            "velocity": 0.12598425196850394
          },
          {
            "duration": 0.16666649999999095,
            "durationTicks": 96,
            "midi": 58,
            "name": "A#3",
            "ticks": 42728,
            "time": 74.180481375,
            "velocity": 0.12598425196850394
          },
          {
            "duration": 0.1649303906250026,
            "durationTicks": 95,
            "midi": 48,
            "name": "C3",
            "ticks": 42810,
            "time": 74.32284234375,
            "velocity": 0.11811023622047244
          },
          {
            "duration": 0.1649303906250026,
            "durationTicks": 95,
            "midi": 48,
            "name": "C3",
            "ticks": 42810,
            "time": 74.32284234375,
            "velocity": 0.11811023622047244
          },
          {
            "duration": 0.16666650000000516,
            "durationTicks": 96,
            "midi": 48,
            "name": "C3",
            "ticks": 42891,
            "time": 74.46346720312499,
            "velocity": 0.12598425196850394
          },
          {
            "duration": 0.16666650000000516,
            "durationTicks": 96,
            "midi": 48,
            "name": "C3",
            "ticks": 42891,
            "time": 74.46346720312499,
            "velocity": 0.12598425196850394
          },
          {
            "duration": 0.16840260937499352,
            "durationTicks": 97,
            "midi": 56,
            "name": "G#3",
            "ticks": 42973,
            "time": 74.605828171875,
            "velocity": 0.12598425196850394
          },
          {
            "duration": 0.16840260937499352,
            "durationTicks": 97,
            "midi": 59,
            "name": "B3",
            "ticks": 42977,
            "time": 74.612772609375,
            "velocity": 0.12598425196850394
          },
          {
            "duration": 0.16840260937499352,
            "durationTicks": 97,
            "midi": 48,
            "name": "C3",
            "ticks": 43055,
            "time": 74.748189140625,
            "velocity": 0.11811023622047244
          },
          {
            "duration": 0.16840260937499352,
            "durationTicks": 97,
            "midi": 48,
            "name": "C3",
            "ticks": 43060,
            "time": 74.7568696875,
            "velocity": 0.11811023622047244
          },
          {
            "duration": 0.16840260937499352,
            "durationTicks": 97,
            "midi": 48,
            "name": "C3",
            "ticks": 43138,
            "time": 74.89228621875,
            "velocity": 0.12598425196850394
          },
          {
            "duration": 0.16840260937499352,
            "durationTicks": 97,
            "midi": 48,
            "name": "C3",
            "ticks": 43142,
            "time": 74.89923065625,
            "velocity": 0.12598425196850394
          },
          {
            "duration": 0.16840260937499352,
            "durationTicks": 97,
            "midi": 54,
            "name": "F#3",
            "ticks": 43220,
            "time": 75.0346471875,
            "velocity": 0.12598425196850394
          },
          {
            "duration": 0.16840260937500773,
            "durationTicks": 97,
            "midi": 58,
            "name": "A#3",
            "ticks": 43224,
            "time": 75.041591625,
            "velocity": 0.12598425196850394
          },
          {
            "duration": 0.16840260937500773,
            "durationTicks": 97,
            "midi": 48,
            "name": "C3",
            "ticks": 43302,
            "time": 75.17700815625,
            "velocity": 0.12598425196850394
          },
          {
            "duration": 0.16840260937500773,
            "durationTicks": 97,
            "midi": 48,
            "name": "C3",
            "ticks": 43307,
            "time": 75.185688703125,
            "velocity": 0.12598425196850394
          },
          {
            "duration": 0.33680521875000125,
            "durationTicks": 194,
            "midi": 48,
            "name": "C3",
            "ticks": 43385,
            "time": 75.321105234375,
            "velocity": 0.12598425196850394
          },
          {
            "duration": 0.33680521875000125,
            "durationTicks": 194,
            "midi": 48,
            "name": "C3",
            "ticks": 43389,
            "time": 75.328049671875,
            "velocity": 0.12598425196850394
          },
          {
            "duration": 0.16840260937500773,
            "durationTicks": 97,
            "midi": 55,
            "name": "G3",
            "ticks": 43467,
            "time": 75.463466203125,
            "velocity": 0.12598425196850394
          },
          {
            "duration": 0.16840260937500773,
            "durationTicks": 97,
            "midi": 58,
            "name": "A#3",
            "ticks": 43472,
            "time": 75.47214675,
            "velocity": 0.12598425196850394
          },
          {
            "duration": 0.1701387187499961,
            "durationTicks": 98,
            "midi": 56,
            "name": "G#3",
            "ticks": 43549,
            "time": 75.605827171875,
            "velocity": 0.13385826771653545
          },
          {
            "duration": 0.1701387187500103,
            "durationTicks": 98,
            "midi": 60,
            "name": "C4",
            "ticks": 43554,
            "time": 75.61450771874999,
            "velocity": 0.13385826771653545
          },
          {
            "duration": 0.16666650000000516,
            "durationTicks": 96,
            "midi": 48,
            "name": "C3",
            "ticks": 43637,
            "time": 75.75860479687499,
            "velocity": 0.12598425196850394
          },
          {
            "duration": 0.16666650000000516,
            "durationTicks": 96,
            "midi": 48,
            "name": "C3",
            "ticks": 43637,
            "time": 75.75860479687499,
            "velocity": 0.12598425196850394
          },
          {
            "duration": 0.16493039062498838,
            "durationTicks": 95,
            "midi": 48,
            "name": "C3",
            "ticks": 43720,
            "time": 75.902701875,
            "velocity": 0.12598425196850394
          },
          {
            "duration": 0.16493039062498838,
            "durationTicks": 95,
            "midi": 48,
            "name": "C3",
            "ticks": 43720,
            "time": 75.902701875,
            "velocity": 0.12598425196850394
          },
          {
            "duration": 0.16666650000000516,
            "durationTicks": 96,
            "midi": 63,
            "name": "D#4",
            "ticks": 43801,
            "time": 76.043326734375,
            "velocity": 0.12598425196850394
          },
          {
            "duration": 0.16666650000000516,
            "durationTicks": 96,
            "midi": 60,
            "name": "C4",
            "ticks": 43801,
            "time": 76.043326734375,
            "velocity": 0.12598425196850394
          },
          {
            "duration": 0.16840260937499352,
            "durationTicks": 97,
            "midi": 48,
            "name": "C3",
            "ticks": 43883,
            "time": 76.185687703125,
            "velocity": 0.11811023622047244
          },
          {
            "duration": 0.16840260937500773,
            "durationTicks": 97,
            "midi": 48,
            "name": "C3",
            "ticks": 43887,
            "time": 76.192632140625,
            "velocity": 0.11811023622047244
          },
          {
            "duration": 0.16840260937500773,
            "durationTicks": 97,
            "midi": 48,
            "name": "C3",
            "ticks": 43965,
            "time": 76.328048671875,
            "velocity": 0.11811023622047244
          },
          {
            "duration": 0.16840260937499352,
            "durationTicks": 97,
            "midi": 48,
            "name": "C3",
            "ticks": 43969,
            "time": 76.334993109375,
            "velocity": 0.11811023622047244
          },
          {
            "duration": 0.16840260937499352,
            "durationTicks": 97,
            "midi": 58,
            "name": "A#3",
            "ticks": 44047,
            "time": 76.47040964062501,
            "velocity": 0.11811023622047244
          },
          {
            "duration": 0.16840260937500773,
            "durationTicks": 97,
            "midi": 62,
            "name": "D4",
            "ticks": 44052,
            "time": 76.47909018749999,
            "velocity": 0.11811023622047244
          },
          {
            "duration": 0.16840260937500773,
            "durationTicks": 97,
            "midi": 48,
            "name": "C3",
            "ticks": 44130,
            "time": 76.61450671875,
            "velocity": 0.12598425196850394
          },
          {
            "duration": 0.16840260937499352,
            "durationTicks": 97,
            "midi": 48,
            "name": "C3",
            "ticks": 44134,
            "time": 76.62145115625,
            "velocity": 0.12598425196850394
          },
          {
            "duration": 0.16840260937499352,
            "durationTicks": 97,
            "midi": 48,
            "name": "C3",
            "ticks": 44212,
            "time": 76.7568676875,
            "velocity": 0.11811023622047244
          },
          {
            "duration": 0.16840260937499352,
            "durationTicks": 97,
            "midi": 48,
            "name": "C3",
            "ticks": 44217,
            "time": 76.765548234375,
            "velocity": 0.11811023622047244
          },
          {
            "duration": 0.16840260937500773,
            "durationTicks": 97,
            "midi": 56,
            "name": "G#3",
            "ticks": 44295,
            "time": 76.90096476562499,
            "velocity": 0.13385826771653545
          },
          {
            "duration": 0.16840260937499352,
            "durationTicks": 97,
            "midi": 60,
            "name": "C4",
            "ticks": 44299,
            "time": 76.907909203125,
            "velocity": 0.13385826771653545
          },
          {
            "duration": 0.16840260937499352,
            "durationTicks": 97,
            "midi": 48,
            "name": "C3",
            "ticks": 44377,
            "time": 77.043325734375,
            "velocity": 0.12598425196850394
          },
          {
            "duration": 0.16840260937499352,
            "durationTicks": 97,
            "midi": 48,
            "name": "C3",
            "ticks": 44381,
            "time": 77.050270171875,
            "velocity": 0.12598425196850394
          },
          {
            "duration": 0.8350686093749999,
            "durationTicks": 481,
            "midi": 48,
            "name": "C3",
            "ticks": 44459,
            "time": 77.185686703125,
            "velocity": 0.12598425196850394
          },
          {
            "duration": 0.8350686093749999,
            "durationTicks": 481,
            "midi": 48,
            "name": "C3",
            "ticks": 44464,
            "time": 77.19436725,
            "velocity": 0.12598425196850394
          },
          {
            "duration": 0.6666659999999922,
            "durationTicks": 384,
            "midi": 58,
            "name": "A#3",
            "ticks": 44546,
            "time": 77.33672821875,
            "velocity": 0.12598425196850394
          },
          {
            "duration": 0.6666659999999922,
            "durationTicks": 384,
            "midi": 54,
            "name": "F#3",
            "ticks": 44546,
            "time": 77.33672821875,
            "velocity": 0.12598425196850394
          },
          {
            "duration": 0.16840260937499352,
            "durationTicks": 97,
            "midi": 48,
            "name": "C3",
            "ticks": 44957,
            "time": 78.050269171875,
            "velocity": 0.11811023622047244
          },
          {
            "duration": 0.16840260937499352,
            "durationTicks": 97,
            "midi": 48,
            "name": "C3",
            "ticks": 44962,
            "time": 78.05894971875,
            "velocity": 0.11811023622047244
          },
          {
            "duration": 0.16840260937499352,
            "durationTicks": 97,
            "midi": 48,
            "name": "C3",
            "ticks": 45040,
            "time": 78.19436625,
            "velocity": 0.11811023622047244
          },
          {
            "duration": 0.16840260937499352,
            "durationTicks": 97,
            "midi": 48,
            "name": "C3",
            "ticks": 45044,
            "time": 78.2013106875,
            "velocity": 0.11811023622047244
          },
          {
            "duration": 0.16840260937499352,
            "durationTicks": 97,
            "midi": 60,
            "name": "C4",
            "ticks": 45122,
            "time": 78.33672721875,
            "velocity": 0.12598425196850394
          },
          {
            "duration": 0.16840260937500773,
            "durationTicks": 97,
            "midi": 63,
            "name": "D#4",
            "ticks": 45126,
            "time": 78.34367165625,
            "velocity": 0.12598425196850394
          },
          {
            "duration": 0.16840260937500773,
            "durationTicks": 97,
            "midi": 48,
            "name": "C3",
            "ticks": 45204,
            "time": 78.4790881875,
            "velocity": 0.11811023622047244
          },
          {
            "duration": 0.16840260937500773,
            "durationTicks": 97,
            "midi": 48,
            "name": "C3",
            "ticks": 45209,
            "time": 78.487768734375,
            "velocity": 0.11811023622047244
          },
          {
            "duration": 0.16840260937500773,
            "durationTicks": 97,
            "midi": 48,
            "name": "C3",
            "ticks": 45287,
            "time": 78.623185265625,
            "velocity": 0.12598425196850394
          },
          {
            "duration": 0.16840260937500773,
            "durationTicks": 97,
            "midi": 48,
            "name": "C3",
            "ticks": 45291,
            "time": 78.630129703125,
            "velocity": 0.12598425196850394
          },
          {
            "duration": 0.16840260937500773,
            "durationTicks": 97,
            "midi": 58,
            "name": "A#3",
            "ticks": 45369,
            "time": 78.765546234375,
            "velocity": 0.12598425196850394
          },
          {
            "duration": 0.16840260937500773,
            "durationTicks": 97,
            "midi": 62,
            "name": "D4",
            "ticks": 45374,
            "time": 78.77422678125,
            "velocity": 0.12598425196850394
          },
          {
            "duration": 0.16666650000000516,
            "durationTicks": 96,
            "midi": 48,
            "name": "C3",
            "ticks": 45456,
            "time": 78.91658774999999,
            "velocity": 0.12598425196850394
          },
          {
            "duration": 0.16666650000000516,
            "durationTicks": 96,
            "midi": 48,
            "name": "C3",
            "ticks": 45456,
            "time": 78.91658774999999,
            "velocity": 0.12598425196850394
          },
          {
            "duration": 0.16493039062498838,
            "durationTicks": 95,
            "midi": 48,
            "name": "C3",
            "ticks": 45538,
            "time": 79.05894871875,
            "velocity": 0.12598425196850394
          },
          {
            "duration": 0.16493039062498838,
            "durationTicks": 95,
            "midi": 48,
            "name": "C3",
            "ticks": 45538,
            "time": 79.05894871875,
            "velocity": 0.12598425196850394
          },
          {
            "duration": 0.16666649999999095,
            "durationTicks": 96,
            "midi": 56,
            "name": "G#3",
            "ticks": 45620,
            "time": 79.2013096875,
            "velocity": 0.13385826771653545
          },
          {
            "duration": 0.16666649999999095,
            "durationTicks": 96,
            "midi": 59,
            "name": "B3",
            "ticks": 45620,
            "time": 79.2013096875,
            "velocity": 0.13385826771653545
          },
          {
            "duration": 0.16840260937500773,
            "durationTicks": 97,
            "midi": 48,
            "name": "C3",
            "ticks": 45701,
            "time": 79.341934546875,
            "velocity": 0.11811023622047244
          },
          {
            "duration": 0.16840260937500773,
            "durationTicks": 97,
            "midi": 48,
            "name": "C3",
            "ticks": 45706,
            "time": 79.35061509375,
            "velocity": 0.11811023622047244
          },
          {
            "duration": 0.16840260937499352,
            "durationTicks": 97,
            "midi": 48,
            "name": "C3",
            "ticks": 45784,
            "time": 79.486031625,
            "velocity": 0.11811023622047244
          },
          {
            "duration": 0.16840260937500773,
            "durationTicks": 97,
            "midi": 48,
            "name": "C3",
            "ticks": 45788,
            "time": 79.49297606249999,
            "velocity": 0.11811023622047244
          },
          {
            "duration": 0.16840260937500773,
            "durationTicks": 97,
            "midi": 54,
            "name": "F#3",
            "ticks": 45866,
            "time": 79.62839259375,
            "velocity": 0.12598425196850394
          },
          {
            "duration": 0.16840260937499352,
            "durationTicks": 97,
            "midi": 58,
            "name": "A#3",
            "ticks": 45870,
            "time": 79.63533703125,
            "velocity": 0.12598425196850394
          },
          {
            "duration": 0.16840260937500773,
            "durationTicks": 97,
            "midi": 48,
            "name": "C3",
            "ticks": 45948,
            "time": 79.77075356249999,
            "velocity": 0.12598425196850394
          },
          {
            "duration": 0.16840260937500773,
            "durationTicks": 97,
            "midi": 48,
            "name": "C3",
            "ticks": 45953,
            "time": 79.77943410937499,
            "velocity": 0.12598425196850394
          },
          {
            "duration": 0.33680521875001546,
            "durationTicks": 194,
            "midi": 48,
            "name": "C3",
            "ticks": 46031,
            "time": 79.91485064062499,
            "velocity": 0.12598425196850394
          },
          {
            "duration": 0.33680521874998703,
            "durationTicks": 194,
            "midi": 48,
            "name": "C3",
            "ticks": 46035,
            "time": 79.921795078125,
            "velocity": 0.12598425196850394
          },
          {
            "duration": 0.16840260937499352,
            "durationTicks": 97,
            "midi": 55,
            "name": "G3",
            "ticks": 46113,
            "time": 80.057211609375,
            "velocity": 0.12598425196850394
          },
          {
            "duration": 0.16840260937499352,
            "durationTicks": 97,
            "midi": 58,
            "name": "A#3",
            "ticks": 46118,
            "time": 80.06589215625,
            "velocity": 0.12598425196850394
          },
          {
            "duration": 0.1701387187500103,
            "durationTicks": 98,
            "midi": 56,
            "name": "G#3",
            "ticks": 46196,
            "time": 80.20130868749999,
            "velocity": 0.12598425196850394
          },
          {
            "duration": 0.1701387187499961,
            "durationTicks": 98,
            "midi": 60,
            "name": "C4",
            "ticks": 46200,
            "time": 80.208253125,
            "velocity": 0.12598425196850394
          },
          {
            "duration": 0.16840260937499352,
            "durationTicks": 97,
            "midi": 48,
            "name": "C3",
            "ticks": 46279,
            "time": 80.345405765625,
            "velocity": 0.12598425196850394
          },
          {
            "duration": 0.16840260937499352,
            "durationTicks": 97,
            "midi": 48,
            "name": "C3",
            "ticks": 46283,
            "time": 80.352350203125,
            "velocity": 0.12598425196850394
          },
          {
            "duration": 0.16666650000000516,
            "durationTicks": 96,
            "midi": 48,
            "name": "C3",
            "ticks": 46366,
            "time": 80.49644728125,
            "velocity": 0.11811023622047244
          },
          {
            "duration": 0.33159689062499353,
            "durationTicks": 191,
            "midi": 48,
            "name": "C3",
            "ticks": 46366,
            "time": 80.49644728125,
            "velocity": 0.11811023622047244
          },
          {
            "duration": 0.1649303906250026,
            "durationTicks": 95,
            "midi": 63,
            "name": "D#4",
            "ticks": 46448,
            "time": 80.63880825,
            "velocity": 0.13385826771653545
          },
          {
            "duration": 0.1649303906250026,
            "durationTicks": 95,
            "midi": 60,
            "name": "C4",
            "ticks": 46448,
            "time": 80.63880825,
            "velocity": 0.13385826771653545
          },
          {
            "duration": 0.16666650000000516,
            "durationTicks": 96,
            "midi": 48,
            "name": "C3",
            "ticks": 46530,
            "time": 80.78116921875,
            "velocity": 0.12598425196850394
          },
          {
            "duration": 0.16666650000000516,
            "durationTicks": 96,
            "midi": 48,
            "name": "C3",
            "ticks": 46530,
            "time": 80.78116921875,
            "velocity": 0.12598425196850394
          },
          {
            "duration": 0.16840260937499352,
            "durationTicks": 97,
            "midi": 48,
            "name": "C3",
            "ticks": 46611,
            "time": 80.921794078125,
            "velocity": 0.11811023622047244
          },
          {
            "duration": 0.16840260937500773,
            "durationTicks": 97,
            "midi": 48,
            "name": "C3",
            "ticks": 46616,
            "time": 80.93047462499999,
            "velocity": 0.11811023622047244
          },
          {
            "duration": 0.16840260937499352,
            "durationTicks": 97,
            "midi": 58,
            "name": "A#3",
            "ticks": 46693,
            "time": 81.064155046875,
            "velocity": 0.12598425196850394
          },
          {
            "duration": 0.16840260937500773,
            "durationTicks": 97,
            "midi": 62,
            "name": "D4",
            "ticks": 46698,
            "time": 81.07283559375,
            "velocity": 0.12598425196850394
          },
          {
            "duration": 0.16840260937499352,
            "durationTicks": 97,
            "midi": 48,
            "name": "C3",
            "ticks": 46776,
            "time": 81.208252125,
            "velocity": 0.12598425196850394
          },
          {
            "duration": 0.16840260937499352,
            "durationTicks": 97,
            "midi": 48,
            "name": "C3",
            "ticks": 46780,
            "time": 81.2151965625,
            "velocity": 0.12598425196850394
          },
          {
            "duration": 0.16840260937499352,
            "durationTicks": 97,
            "midi": 48,
            "name": "C3",
            "ticks": 46858,
            "time": 81.35061309375,
            "velocity": 0.12598425196850394
          },
          {
            "duration": 0.16840260937500773,
            "durationTicks": 97,
            "midi": 48,
            "name": "C3",
            "ticks": 46863,
            "time": 81.359293640625,
            "velocity": 0.12598425196850394
          },
          {
            "duration": 0.16840260937500773,
            "durationTicks": 97,
            "midi": 72,
            "name": "C5",
            "ticks": 46941,
            "time": 81.494710171875,
            "velocity": 0.12598425196850394
          },
          {
            "duration": 0.16840260937499352,
            "durationTicks": 97,
            "midi": 67,
            "name": "G4",
            "ticks": 46945,
            "time": 81.501654609375,
            "velocity": 0.12598425196850394
          },
          {
            "duration": 0.16840260937499352,
            "durationTicks": 97,
            "midi": 65,
            "name": "F4",
            "ticks": 46985,
            "time": 81.571098984375,
            "velocity": 0.11811023622047244
          },
          {
            "duration": 0.16840260937499352,
            "durationTicks": 97,
            "midi": 68,
            "name": "G#4",
            "ticks": 46985,
            "time": 81.571098984375,
            "velocity": 0.11811023622047244
          },
          {
            "duration": 0.1701387187499961,
            "durationTicks": 98,
            "midi": 67,
            "name": "G4",
            "ticks": 47023,
            "time": 81.637071140625,
            "velocity": 0.12598425196850394
          },
          {
            "duration": 0.1701387187500103,
            "durationTicks": 98,
            "midi": 63,
            "name": "D#4",
            "ticks": 47027,
            "time": 81.64401557812499,
            "velocity": 0.12598425196850394
          },
          {
            "duration": 0.1701387187499961,
            "durationTicks": 98,
            "midi": 72,
            "name": "C5",
            "ticks": 47067,
            "time": 81.713459953125,
            "velocity": 0.11811023622047244
          },
          {
            "duration": 0.1701387187499961,
            "durationTicks": 98,
            "midi": 67,
            "name": "G4",
            "ticks": 47071,
            "time": 81.720404390625,
            "velocity": 0.11811023622047244
          },
          {
            "duration": 0.1701387187499961,
            "durationTicks": 98,
            "midi": 67,
            "name": "G4",
            "ticks": 47106,
            "time": 81.78116821875,
            "velocity": 0.12598425196850394
          },
          {
            "duration": 0.1701387187500103,
            "durationTicks": 98,
            "midi": 63,
            "name": "D#4",
            "ticks": 47111,
            "time": 81.789848765625,
            "velocity": 0.12598425196850394
          },
          {
            "duration": 0.1701387187500103,
            "durationTicks": 98,
            "midi": 63,
            "name": "D#4",
            "ticks": 47150,
            "time": 81.85755703125,
            "velocity": 0.11023622047244094
          },
          {
            "duration": 0.1701387187499961,
            "durationTicks": 98,
            "midi": 60,
            "name": "C4",
            "ticks": 47155,
            "time": 81.866237578125,
            "velocity": 0.11023622047244094
          },
          {
            "duration": 0.1701387187499961,
            "durationTicks": 98,
            "midi": 67,
            "name": "G4",
            "ticks": 47190,
            "time": 81.92700140625,
            "velocity": 0.12598425196850394
          },
          {
            "duration": 0.1701387187499961,
            "durationTicks": 98,
            "midi": 63,
            "name": "D#4",
            "ticks": 47194,
            "time": 81.93394584375,
            "velocity": 0.12598425196850394
          },
          {
            "duration": 0.1701387187499961,
            "durationTicks": 98,
            "midi": 72,
            "name": "C5",
            "ticks": 47234,
            "time": 82.00339021875,
            "velocity": 0.11811023622047244
          },
          {
            "duration": 0.1701387187499961,
            "durationTicks": 98,
            "midi": 67,
            "name": "G4",
            "ticks": 47238,
            "time": 82.01033465625,
            "velocity": 0.11811023622047244
          },
          {
            "duration": 0.16840260937499352,
            "durationTicks": 97,
            "midi": 72,
            "name": "C5",
            "ticks": 47278,
            "time": 82.07977903125,
            "velocity": 0.12598425196850394
          },
          {
            "duration": 0.16840260937499352,
            "durationTicks": 97,
            "midi": 75,
            "name": "D#5",
            "ticks": 47278,
            "time": 82.07977903125,
            "velocity": 0.12598425196850394
          },
          {
            "duration": 0.16840260937499352,
            "durationTicks": 97,
            "midi": 72,
            "name": "C5",
            "ticks": 47317,
            "time": 82.147487296875,
            "velocity": 0.11023622047244094
          },
          {
            "duration": 0.16840260937500773,
            "durationTicks": 97,
            "midi": 67,
            "name": "G4",
            "ticks": 47322,
            "time": 82.15616784375,
            "velocity": 0.11023622047244094
          },
          {
            "duration": 0.16666650000000516,
            "durationTicks": 96,
            "midi": 67,
            "name": "G4",
            "ticks": 47361,
            "time": 82.223876109375,
            "velocity": 0.12598425196850394
          },
          {
            "duration": 0.16666650000000516,
            "durationTicks": 96,
            "midi": 63,
            "name": "D#4",
            "ticks": 47361,
            "time": 82.223876109375,
            "velocity": 0.12598425196850394
          },
          {
            "duration": 0.16840260937500773,
            "durationTicks": 97,
            "midi": 72,
            "name": "C5",
            "ticks": 47399,
            "time": 82.289848265625,
            "velocity": 0.11811023622047244
          },
          {
            "duration": 0.16840260937499352,
            "durationTicks": 97,
            "midi": 67,
            "name": "G4",
            "ticks": 47404,
            "time": 82.2985288125,
            "velocity": 0.11811023622047244
          },
          {
            "duration": 0.16840260937499352,
            "durationTicks": 97,
            "midi": 63,
            "name": "D#4",
            "ticks": 47443,
            "time": 82.366237078125,
            "velocity": 0.12598425196850394
          },
          {
            "duration": 0.16840260937499352,
            "durationTicks": 97,
            "midi": 67,
            "name": "G4",
            "ticks": 47443,
            "time": 82.366237078125,
            "velocity": 0.12598425196850394
          },
          {
            "duration": 0.1701387187499961,
            "durationTicks": 98,
            "midi": 72,
            "name": "C5",
            "ticks": 47482,
            "time": 82.43394534375,
            "velocity": 0.11023622047244094
          },
          {
            "duration": 0.1701387187500103,
            "durationTicks": 98,
            "midi": 67,
            "name": "G4",
            "ticks": 47486,
            "time": 82.44088978125,
            "velocity": 0.11023622047244094
          },
          {
            "duration": 0.1701387187499961,
            "durationTicks": 98,
            "midi": 67,
            "name": "G4",
            "ticks": 47526,
            "time": 82.51033415625,
            "velocity": 0.12598425196850394
          },
          {
            "duration": 0.1701387187499961,
            "durationTicks": 98,
            "midi": 63,
            "name": "D#4",
            "ticks": 47530,
            "time": 82.51727859375,
            "velocity": 0.12598425196850394
          },
          {
            "duration": 0.1701387187499961,
            "durationTicks": 98,
            "midi": 63,
            "name": "D#4",
            "ticks": 47565,
            "time": 82.578042421875,
            "velocity": 0.11811023622047244
          },
          {
            "duration": 0.1701387187500103,
            "durationTicks": 98,
            "midi": 60,
            "name": "C4",
            "ticks": 47570,
            "time": 82.58672296875,
            "velocity": 0.11811023622047244
          },
          {
            "duration": 0.1701387187500103,
            "durationTicks": 98,
            "midi": 43,
            "name": "G2",
            "ticks": 47609,
            "time": 82.654431234375,
            "velocity": 0.11811023622047244
          },
          {
            "duration": 0.1701387187499961,
            "durationTicks": 98,
            "midi": 43,
            "name": "G2",
            "ticks": 47614,
            "time": 82.66311178125,
            "velocity": 0.11811023622047244
          },
          {
            "duration": 0.16840260937499352,
            "durationTicks": 97,
            "midi": 43,
            "name": "G2",
            "ticks": 47693,
            "time": 82.800264421875,
            "velocity": 0.12598425196850394
          },
          {
            "duration": 0.16840260937500773,
            "durationTicks": 97,
            "midi": 43,
            "name": "G2",
            "ticks": 47697,
            "time": 82.807208859375,
            "velocity": 0.12598425196850394
          },
          {
            "duration": 0.16840260937500773,
            "durationTicks": 97,
            "midi": 55,
            "name": "G3",
            "ticks": 47775,
            "time": 82.942625390625,
            "velocity": 0.12598425196850394
          },
          {
            "duration": 0.16840260937500773,
            "durationTicks": 97,
            "midi": 58,
            "name": "A#3",
            "ticks": 47780,
            "time": 82.9513059375,
            "velocity": 0.12598425196850394
          },
          {
            "duration": 0.16840260937499352,
            "durationTicks": 97,
            "midi": 43,
            "name": "G2",
            "ticks": 47857,
            "time": 83.084986359375,
            "velocity": 0.12598425196850394
          },
          {
            "duration": 0.16840260937500773,
            "durationTicks": 97,
            "midi": 43,
            "name": "G2",
            "ticks": 47862,
            "time": 83.09366690625,
            "velocity": 0.12598425196850394
          },
          {
            "duration": 0.16840260937500773,
            "durationTicks": 97,
            "midi": 43,
            "name": "G2",
            "ticks": 47940,
            "time": 83.2290834375,
            "velocity": 0.12598425196850394
          },
          {
            "duration": 0.16840260937499352,
            "durationTicks": 97,
            "midi": 43,
            "name": "G2",
            "ticks": 47944,
            "time": 83.236027875,
            "velocity": 0.12598425196850394
          },
          {
            "duration": 0.16840260937499352,
            "durationTicks": 97,
            "midi": 53,
            "name": "F3",
            "ticks": 48022,
            "time": 83.37144440625,
            "velocity": 0.12598425196850394
          },
          {
            "duration": 0.16840260937500773,
            "durationTicks": 97,
            "midi": 57,
            "name": "A3",
            "ticks": 48027,
            "time": 83.38012495312499,
            "velocity": 0.12598425196850394
          },
          {
            "duration": 0.16840260937500773,
            "durationTicks": 97,
            "midi": 43,
            "name": "G2",
            "ticks": 48105,
            "time": 83.51554148437499,
            "velocity": 0.11811023622047244
          },
          {
            "duration": 0.16840260937499352,
            "durationTicks": 97,
            "midi": 43,
            "name": "G2",
            "ticks": 48109,
            "time": 83.522485921875,
            "velocity": 0.11811023622047244
          },
          {
            "duration": 0.16666649999999095,
            "durationTicks": 96,
            "midi": 43,
            "name": "G2",
            "ticks": 48191,
            "time": 83.664846890625,
            "velocity": 0.12598425196850394
          },
          {
            "duration": 0.16666649999999095,
            "durationTicks": 96,
            "midi": 43,
            "name": "G2",
            "ticks": 48191,
            "time": 83.664846890625,
            "velocity": 0.12598425196850394
          },
          {
            "duration": 0.1649303906250026,
            "durationTicks": 95,
            "midi": 51,
            "name": "D#3",
            "ticks": 48274,
            "time": 83.80894396875,
            "velocity": 0.12598425196850394
          },
          {
            "duration": 0.1649303906250026,
            "durationTicks": 95,
            "midi": 54,
            "name": "F#3",
            "ticks": 48274,
            "time": 83.80894396875,
            "velocity": 0.12598425196850394
          },
          {
            "duration": 0.16666650000000516,
            "durationTicks": 96,
            "midi": 43,
            "name": "G2",
            "ticks": 48355,
            "time": 83.949568828125,
            "velocity": 0.11811023622047244
          },
          {
            "duration": 0.16666650000000516,
            "durationTicks": 96,
            "midi": 43,
            "name": "G2",
            "ticks": 48355,
            "time": 83.949568828125,
            "velocity": 0.11811023622047244
          },
          {
            "duration": 0.16840260937500773,
            "durationTicks": 97,
            "midi": 43,
            "name": "G2",
            "ticks": 48437,
            "time": 84.091929796875,
            "velocity": 0.12598425196850394
          },
          {
            "duration": 0.16840260937499352,
            "durationTicks": 97,
            "midi": 43,
            "name": "G2",
            "ticks": 48441,
            "time": 84.098874234375,
            "velocity": 0.12598425196850394
          },
          {
            "duration": 0.16840260937500773,
            "durationTicks": 97,
            "midi": 49,
            "name": "C#3",
            "ticks": 48519,
            "time": 84.23429076562499,
            "velocity": 0.12598425196850394
          },
          {
            "duration": 0.16840260937500773,
            "durationTicks": 97,
            "midi": 53,
            "name": "F3",
            "ticks": 48524,
            "time": 84.24297131249999,
            "velocity": 0.12598425196850394
          },
          {
            "duration": 0.16840260937499352,
            "durationTicks": 97,
            "midi": 43,
            "name": "G2",
            "ticks": 48601,
            "time": 84.376651734375,
            "velocity": 0.12598425196850394
          },
          {
            "duration": 0.16840260937499352,
            "durationTicks": 97,
            "midi": 43,
            "name": "G2",
            "ticks": 48606,
            "time": 84.38533228125,
            "velocity": 0.12598425196850394
          },
          {
            "duration": 0.33680521874998703,
            "durationTicks": 194,
            "midi": 43,
            "name": "G2",
            "ticks": 48684,
            "time": 84.5207488125,
            "velocity": 0.12598425196850394
          },
          {
            "duration": 0.33680521875000125,
            "durationTicks": 194,
            "midi": 43,
            "name": "G2",
            "ticks": 48688,
            "time": 84.52769325,
            "velocity": 0.12598425196850394
          },
          {
            "duration": 0.16840260937499352,
            "durationTicks": 97,
            "midi": 50,
            "name": "D3",
            "ticks": 48766,
            "time": 84.66310978125,
            "velocity": 0.12598425196850394
          },
          {
            "duration": 0.16840260937500773,
            "durationTicks": 97,
            "midi": 53,
            "name": "F3",
            "ticks": 48771,
            "time": 84.671790328125,
            "velocity": 0.12598425196850394
          },
          {
            "duration": 0.1701387187499961,
            "durationTicks": 98,
            "midi": 51,
            "name": "D#3",
            "ticks": 48849,
            "time": 84.807206859375,
            "velocity": 0.13385826771653545
          },
          {
            "duration": 0.1701387187499961,
            "durationTicks": 98,
            "midi": 55,
            "name": "G3",
            "ticks": 48853,
            "time": 84.814151296875,
            "velocity": 0.13385826771653545
          },
          {
            "duration": 0.16840260937499352,
            "durationTicks": 97,
            "midi": 43,
            "name": "G2",
            "ticks": 48932,
            "time": 84.9513039375,
            "velocity": 0.12598425196850394
          },
          {
            "duration": 0.16840260937499352,
            "durationTicks": 97,
            "midi": 43,
            "name": "G2",
            "ticks": 48937,
            "time": 84.959984484375,
            "velocity": 0.12598425196850394
          },
          {
            "duration": 0.16840260937500773,
            "durationTicks": 97,
            "midi": 43,
            "name": "G2",
            "ticks": 49014,
            "time": 85.09366490625,
            "velocity": 0.12598425196850394
          },
          {
            "duration": 0.16840260937500773,
            "durationTicks": 97,
            "midi": 43,
            "name": "G2",
            "ticks": 49019,
            "time": 85.102345453125,
            "velocity": 0.12598425196850394
          },
          {
            "duration": 0.16666650000000516,
            "durationTicks": 96,
            "midi": 58,
            "name": "A#3",
            "ticks": 49101,
            "time": 85.244706421875,
            "velocity": 0.12598425196850394
          },
          {
            "duration": 0.16666650000000516,
            "durationTicks": 96,
            "midi": 55,
            "name": "G3",
            "ticks": 49101,
            "time": 85.244706421875,
            "velocity": 0.12598425196850394
          },
          {
            "duration": 0.16493039062498838,
            "durationTicks": 95,
            "midi": 43,
            "name": "G2",
            "ticks": 49184,
            "time": 85.38880350000001,
            "velocity": 0.11811023622047244
          },
          {
            "duration": 0.16493039062498838,
            "durationTicks": 95,
            "midi": 43,
            "name": "G2",
            "ticks": 49184,
            "time": 85.38880350000001,
            "velocity": 0.11811023622047244
          },
          {
            "duration": 0.16666650000000516,
            "durationTicks": 96,
            "midi": 43,
            "name": "G2",
            "ticks": 49265,
            "time": 85.529428359375,
            "velocity": 0.11811023622047244
          },
          {
            "duration": 0.16666650000000516,
            "durationTicks": 96,
            "midi": 43,
            "name": "G2",
            "ticks": 49265,
            "time": 85.529428359375,
            "velocity": 0.11811023622047244
          },
          {
            "duration": 0.16840260937499352,
            "durationTicks": 97,
            "midi": 53,
            "name": "F3",
            "ticks": 49346,
            "time": 85.67005321875,
            "velocity": 0.11811023622047244
          },
          {
            "duration": 0.16840260937500773,
            "durationTicks": 97,
            "midi": 57,
            "name": "A3",
            "ticks": 49351,
            "time": 85.678733765625,
            "velocity": 0.11811023622047244
          },
          {
            "duration": 0.16840260937502194,
            "durationTicks": 97,
            "midi": 43,
            "name": "G2",
            "ticks": 49429,
            "time": 85.81415029687498,
            "velocity": 0.12598425196850394
          },
          {
            "duration": 0.16840260937499352,
            "durationTicks": 97,
            "midi": 43,
            "name": "G2",
            "ticks": 49433,
            "time": 85.82109473437501,
            "velocity": 0.12598425196850394
          },
          {
            "duration": 0.16840260937499352,
            "durationTicks": 97,
            "midi": 43,
            "name": "G2",
            "ticks": 49511,
            "time": 85.95651126562501,
            "velocity": 0.11811023622047244
          },
          {
            "duration": 0.16840260937500773,
            "durationTicks": 97,
            "midi": 43,
            "name": "G2",
            "ticks": 49516,
            "time": 85.9651918125,
            "velocity": 0.11811023622047244
          },
          {
            "duration": 0.16840260937500773,
            "durationTicks": 97,
            "midi": 51,
            "name": "D#3",
            "ticks": 49594,
            "time": 86.10060834375,
            "velocity": 0.13385826771653545
          },
          {
            "duration": 0.16840260937499352,
            "durationTicks": 97,
            "midi": 55,
            "name": "G3",
            "ticks": 49598,
            "time": 86.10755278125,
            "velocity": 0.13385826771653545
          },
          {
            "duration": 0.16840260937499352,
            "durationTicks": 97,
            "midi": 43,
            "name": "G2",
            "ticks": 49676,
            "time": 86.24296931250001,
            "velocity": 0.12598425196850394
          },
          {
            "duration": 0.16840260937500773,
            "durationTicks": 97,
            "midi": 43,
            "name": "G2",
            "ticks": 49681,
            "time": 86.251649859375,
            "velocity": 0.12598425196850394
          },
          {
            "duration": 0.8350686093749999,
            "durationTicks": 481,
            "midi": 43,
            "name": "G2",
            "ticks": 49758,
            "time": 86.38533028124999,
            "velocity": 0.12598425196850394
          },
          {
            "duration": 0.8350686093749857,
            "durationTicks": 481,
            "midi": 43,
            "name": "G2",
            "ticks": 49763,
            "time": 86.394010828125,
            "velocity": 0.12598425196850394
          },
          {
            "duration": 0.6666659999999922,
            "durationTicks": 384,
            "midi": 49,
            "name": "C#3",
            "ticks": 49841,
            "time": 86.529427359375,
            "velocity": 0.12598425196850394
          },
          {
            "duration": 0.6666659999999922,
            "durationTicks": 384,
            "midi": 52,
            "name": "E3",
            "ticks": 49845,
            "time": 86.536371796875,
            "velocity": 0.12598425196850394
          },
          {
            "duration": 0.16840260937499352,
            "durationTicks": 97,
            "midi": 43,
            "name": "G2",
            "ticks": 50256,
            "time": 87.24991275,
            "velocity": 0.11811023622047244
          },
          {
            "duration": 0.16840260937499352,
            "durationTicks": 97,
            "midi": 43,
            "name": "G2",
            "ticks": 50261,
            "time": 87.258593296875,
            "velocity": 0.11811023622047244
          },
          {
            "duration": 0.16840260937499352,
            "durationTicks": 97,
            "midi": 43,
            "name": "G2",
            "ticks": 50339,
            "time": 87.39400982812501,
            "velocity": 0.11811023622047244
          },
          {
            "duration": 0.16840260937499352,
            "durationTicks": 97,
            "midi": 43,
            "name": "G2",
            "ticks": 50343,
            "time": 87.400954265625,
            "velocity": 0.11811023622047244
          },
          {
            "duration": 0.16840260937499352,
            "durationTicks": 97,
            "midi": 55,
            "name": "G3",
            "ticks": 50421,
            "time": 87.53637079687499,
            "velocity": 0.12598425196850394
          },
          {
            "duration": 0.16840260937499352,
            "durationTicks": 97,
            "midi": 58,
            "name": "A#3",
            "ticks": 50426,
            "time": 87.54505134375,
            "velocity": 0.12598425196850394
          },
          {
            "duration": 0.16840260937502194,
            "durationTicks": 97,
            "midi": 43,
            "name": "G2",
            "ticks": 50503,
            "time": 87.67873176562499,
            "velocity": 0.11811023622047244
          },
          {
            "duration": 0.16840260937499352,
            "durationTicks": 97,
            "midi": 43,
            "name": "G2",
            "ticks": 50508,
            "time": 87.6874123125,
            "velocity": 0.11811023622047244
          },
          {
            "duration": 0.16840260937499352,
            "durationTicks": 97,
            "midi": 43,
            "name": "G2",
            "ticks": 50586,
            "time": 87.82282884375,
            "velocity": 0.12598425196850394
          },
          {
            "duration": 0.16840260937502194,
            "durationTicks": 97,
            "midi": 43,
            "name": "G2",
            "ticks": 50590,
            "time": 87.82977328124998,
            "velocity": 0.12598425196850394
          },
          {
            "duration": 0.16840260937502194,
            "durationTicks": 97,
            "midi": 53,
            "name": "F3",
            "ticks": 50668,
            "time": 87.96518981249999,
            "velocity": 0.12598425196850394
          },
          {
            "duration": 0.16840260937499352,
            "durationTicks": 97,
            "midi": 57,
            "name": "A3",
            "ticks": 50673,
            "time": 87.973870359375,
            "velocity": 0.12598425196850394
          },
          {
            "duration": 0.16840260937499352,
            "durationTicks": 97,
            "midi": 43,
            "name": "G2",
            "ticks": 50751,
            "time": 88.109286890625,
            "velocity": 0.12598425196850394
          },
          {
            "duration": 0.16840260937500773,
            "durationTicks": 97,
            "midi": 43,
            "name": "G2",
            "ticks": 50755,
            "time": 88.116231328125,
            "velocity": 0.12598425196850394
          },
          {
            "duration": 0.16840260937500773,
            "durationTicks": 97,
            "midi": 43,
            "name": "G2",
            "ticks": 50833,
            "time": 88.251647859375,
            "velocity": 0.12598425196850394
          },
          {
            "duration": 0.16840260937499352,
            "durationTicks": 97,
            "midi": 43,
            "name": "G2",
            "ticks": 50838,
            "time": 88.26032840625,
            "velocity": 0.12598425196850394
          },
          {
            "duration": 0.16666649999999095,
            "durationTicks": 96,
            "midi": 51,
            "name": "D#3",
            "ticks": 50920,
            "time": 88.402689375,
            "velocity": 0.13385826771653545
          },
          {
            "duration": 0.16666649999999095,
            "durationTicks": 96,
            "midi": 54,
            "name": "F#3",
            "ticks": 50920,
            "time": 88.402689375,
            "velocity": 0.13385826771653545
          },
          {
            "duration": 0.16493039062498838,
            "durationTicks": 95,
            "midi": 43,
            "name": "G2",
            "ticks": 51002,
            "time": 88.54505034375,
            "velocity": 0.11811023622047244
          },
          {
            "duration": 0.16493039062498838,
            "durationTicks": 95,
            "midi": 43,
            "name": "G2",
            "ticks": 51002,
            "time": 88.54505034375,
            "velocity": 0.11811023622047244
          },
          {
            "duration": 0.16666649999999095,
            "durationTicks": 96,
            "midi": 43,
            "name": "G2",
            "ticks": 51084,
            "time": 88.6874113125,
            "velocity": 0.11811023622047244
          },
          {
            "duration": 0.16666649999999095,
            "durationTicks": 96,
            "midi": 43,
            "name": "G2",
            "ticks": 51084,
            "time": 88.6874113125,
            "velocity": 0.11811023622047244
          },
          {
            "duration": 0.16840260937499352,
            "durationTicks": 97,
            "midi": 49,
            "name": "C#3",
            "ticks": 51165,
            "time": 88.828036171875,
            "velocity": 0.12598425196850394
          },
          {
            "duration": 0.16840260937499352,
            "durationTicks": 97,
            "midi": 53,
            "name": "F3",
            "ticks": 51170,
            "time": 88.83671671875,
            "velocity": 0.12598425196850394
          },
          {
            "duration": 0.16840260937499352,
            "durationTicks": 97,
            "midi": 43,
            "name": "G2",
            "ticks": 51248,
            "time": 88.97213325,
            "velocity": 0.12598425196850394
          },
          {
            "duration": 0.16840260937499352,
            "durationTicks": 97,
            "midi": 43,
            "name": "G2",
            "ticks": 51252,
            "time": 88.9790776875,
            "velocity": 0.12598425196850394
          },
          {
            "duration": 0.33680521875000125,
            "durationTicks": 194,
            "midi": 43,
            "name": "G2",
            "ticks": 51330,
            "time": 89.11449421875,
            "velocity": 0.12598425196850394
          },
          {
            "duration": 0.33680521875000125,
            "durationTicks": 194,
            "midi": 43,
            "name": "G2",
            "ticks": 51334,
            "time": 89.12143865624999,
            "velocity": 0.12598425196850394
          },
          {
            "duration": 0.16840260937500773,
            "durationTicks": 97,
            "midi": 50,
            "name": "D3",
            "ticks": 51412,
            "time": 89.2568551875,
            "velocity": 0.12598425196850394
          },
          {
            "duration": 0.16840260937499352,
            "durationTicks": 97,
            "midi": 53,
            "name": "F3",
            "ticks": 51417,
            "time": 89.26553573437499,
            "velocity": 0.12598425196850394
          },
          {
            "duration": 0.1701387187500103,
            "durationTicks": 98,
            "midi": 51,
            "name": "D#3",
            "ticks": 51495,
            "time": 89.400952265625,
            "velocity": 0.12598425196850394
          },
          {
            "duration": 0.1701387187500103,
            "durationTicks": 98,
            "midi": 55,
            "name": "G3",
            "ticks": 51499,
            "time": 89.40789670312499,
            "velocity": 0.12598425196850394
          },
          {
            "duration": 0.16840260937499352,
            "durationTicks": 97,
            "midi": 43,
            "name": "G2",
            "ticks": 51578,
            "time": 89.54504934375001,
            "velocity": 0.12598425196850394
          },
          {
            "duration": 0.16840260937500773,
            "durationTicks": 97,
            "midi": 43,
            "name": "G2",
            "ticks": 51583,
            "time": 89.553729890625,
            "velocity": 0.12598425196850394
          },
          {
            "duration": 0.175347046875018,
            "durationTicks": 101,
            "midi": 43,
            "name": "G2",
            "ticks": 51660,
            "time": 89.68741031249999,
            "velocity": 0.11811023622047244
          },
          {
            "duration": 0.3263885624999858,
            "durationTicks": 188,
            "midi": 43,
            "name": "G2",
            "ticks": 51665,
            "time": 89.696090859375,
            "velocity": 0.11811023622047244
          },
          {
            "duration": 0.16666649999999095,
            "durationTicks": 96,
            "midi": 55,
            "name": "G3",
            "ticks": 51743,
            "time": 89.831507390625,
            "velocity": 0.13385826771653545
          },
          {
            "duration": 0.16666649999999095,
            "durationTicks": 96,
            "midi": 58,
            "name": "A#3",
            "ticks": 51747,
            "time": 89.838451828125,
            "velocity": 0.13385826771653545
          },
          {
            "duration": 0.16840260937502194,
            "durationTicks": 97,
            "midi": 43,
            "name": "G2",
            "ticks": 51829,
            "time": 89.98081279687499,
            "velocity": 0.12598425196850394
          },
          {
            "duration": 0.16840260937502194,
            "durationTicks": 97,
            "midi": 43,
            "name": "G2",
            "ticks": 51829,
            "time": 89.98081279687499,
            "velocity": 0.12598425196850394
          },
          {
            "duration": 0.1649303906250026,
            "durationTicks": 95,
            "midi": 43,
            "name": "G2",
            "ticks": 51912,
            "time": 90.124909875,
            "velocity": 0.11811023622047244
          },
          {
            "duration": 0.1649303906250026,
            "durationTicks": 95,
            "midi": 43,
            "name": "G2",
            "ticks": 51912,
            "time": 90.124909875,
            "velocity": 0.11811023622047244
          },
          {
            "duration": 0.16666649999999095,
            "durationTicks": 96,
            "midi": 57,
            "name": "A3",
            "ticks": 51994,
            "time": 90.26727084375,
            "velocity": 0.12598425196850394
          },
          {
            "duration": 0.16666649999999095,
            "durationTicks": 96,
            "midi": 53,
            "name": "F3",
            "ticks": 51994,
            "time": 90.26727084375,
            "velocity": 0.12598425196850394
          },
          {
            "duration": 0.16840260937500773,
            "durationTicks": 97,
            "midi": 43,
            "name": "G2",
            "ticks": 52075,
            "time": 90.40789570312499,
            "velocity": 0.12598425196850394
          },
          {
            "duration": 0.16840260937499352,
            "durationTicks": 97,
            "midi": 43,
            "name": "G2",
            "ticks": 52079,
            "time": 90.414840140625,
            "velocity": 0.12598425196850394
          },
          {
            "duration": 0.16840260937499352,
            "durationTicks": 97,
            "midi": 43,
            "name": "G2",
            "ticks": 52157,
            "time": 90.550256671875,
            "velocity": 0.12598425196850394
          },
          {
            "duration": 0.16840260937500773,
            "durationTicks": 97,
            "midi": 43,
            "name": "G2",
            "ticks": 52162,
            "time": 90.55893721874999,
            "velocity": 0.12598425196850394
          },
          {
            "duration": 0.16840260937500773,
            "durationTicks": 97,
            "midi": 51,
            "name": "D#3",
            "ticks": 52240,
            "time": 90.69435374999999,
            "velocity": 0.13385826771653545
          },
          {
            "duration": 0.16840260937499352,
            "durationTicks": 97,
            "midi": 55,
            "name": "G3",
            "ticks": 52244,
            "time": 90.7012981875,
            "velocity": 0.13385826771653545
          },
          {
            "duration": 0.16840260937499352,
            "durationTicks": 97,
            "midi": 43,
            "name": "G2",
            "ticks": 52322,
            "time": 90.83671471875,
            "velocity": 0.12598425196850394
          },
          {
            "duration": 0.16840260937502194,
            "durationTicks": 97,
            "midi": 43,
            "name": "G2",
            "ticks": 52327,
            "time": 90.84539526562499,
            "velocity": 0.12598425196850394
          },
          {
            "duration": 0.8350686093750141,
            "durationTicks": 481,
            "midi": 43,
            "name": "G2",
            "ticks": 52405,
            "time": 90.98081179687499,
            "velocity": 0.12598425196850394
          },
          {
            "duration": 0.8350686093749999,
            "durationTicks": 481,
            "midi": 43,
            "name": "G2",
            "ticks": 52409,
            "time": 90.987756234375,
            "velocity": 0.12598425196850394
          },
          {
            "duration": 0.6666660000000064,
            "durationTicks": 384,
            "midi": 49,
            "name": "C#3",
            "ticks": 52487,
            "time": 91.123172765625,
            "velocity": 0.12598425196850394
          },
          {
            "duration": 0.6666660000000064,
            "durationTicks": 384,
            "midi": 52,
            "name": "E3",
            "ticks": 52491,
            "time": 91.130117203125,
            "velocity": 0.12598425196850394
          },
          {
            "duration": 0.16840260937499352,
            "durationTicks": 97,
            "midi": 52,
            "name": "E3",
            "ticks": 52902,
            "time": 91.84365815625,
            "velocity": 0.11811023622047244
          },
          {
            "duration": 0.16840260937499352,
            "durationTicks": 97,
            "midi": 52,
            "name": "E3",
            "ticks": 52902,
            "time": 91.84365815625,
            "velocity": 0.11811023622047244
          },
          {
            "duration": 0.16840260937499352,
            "durationTicks": 97,
            "midi": 52,
            "name": "E3",
            "ticks": 52985,
            "time": 91.987755234375,
            "velocity": 0.12598425196850394
          },
          {
            "duration": 0.16840260937499352,
            "durationTicks": 97,
            "midi": 52,
            "name": "E3",
            "ticks": 52989,
            "time": 91.994699671875,
            "velocity": 0.12598425196850394
          },
          {
            "duration": 0.16840260937499352,
            "durationTicks": 97,
            "midi": 64,
            "name": "E4",
            "ticks": 53067,
            "time": 92.130116203125,
            "velocity": 0.12598425196850394
          },
          {
            "duration": 0.16840260937499352,
            "durationTicks": 97,
            "midi": 70,
            "name": "A#4",
            "ticks": 53072,
            "time": 92.13879675,
            "velocity": 0.12598425196850394
          },
          {
            "duration": 0.16840260937499352,
            "durationTicks": 97,
            "midi": 52,
            "name": "E3",
            "ticks": 53150,
            "time": 92.27421328125,
            "velocity": 0.12598425196850394
          },
          {
            "duration": 0.16840260937499352,
            "durationTicks": 97,
            "midi": 52,
            "name": "E3",
            "ticks": 53154,
            "time": 92.28115771875,
            "velocity": 0.12598425196850394
          },
          {
            "duration": 0.16840260937499352,
            "durationTicks": 97,
            "midi": 52,
            "name": "E3",
            "ticks": 53232,
            "time": 92.41657425,
            "velocity": 0.12598425196850394
          },
          {
            "duration": 0.16840260937500773,
            "durationTicks": 97,
            "midi": 52,
            "name": "E3",
            "ticks": 53236,
            "time": 92.42351868749999,
            "velocity": 0.12598425196850394
          },
          {
            "duration": 0.16840260937500773,
            "durationTicks": 97,
            "midi": 62,
            "name": "D4",
            "ticks": 53314,
            "time": 92.55893521875,
            "velocity": 0.12598425196850394
          },
          {
            "duration": 0.16840260937499352,
            "durationTicks": 97,
            "midi": 69,
            "name": "A4",
            "ticks": 53319,
            "time": 92.56761576562499,
            "velocity": 0.12598425196850394
          },
          {
            "duration": 0.16840260937499352,
            "durationTicks": 97,
            "midi": 52,
            "name": "E3",
            "ticks": 53397,
            "time": 92.703032296875,
            "velocity": 0.11811023622047244
          },
          {
            "duration": 0.16840260937500773,
            "durationTicks": 97,
            "midi": 52,
            "name": "E3",
            "ticks": 53401,
            "time": 92.70997673437499,
            "velocity": 0.11811023622047244
          },
          {
            "duration": 0.16840260937500773,
            "durationTicks": 97,
            "midi": 52,
            "name": "E3",
            "ticks": 53479,
            "time": 92.84539326562499,
            "velocity": 0.12598425196850394
          },
          {
            "duration": 0.16840260937499352,
            "durationTicks": 97,
            "midi": 52,
            "name": "E3",
            "ticks": 53484,
            "time": 92.85407381249999,
            "velocity": 0.12598425196850394
          },
          {
            "duration": 0.16840260937499352,
            "durationTicks": 97,
            "midi": 60,
            "name": "C4",
            "ticks": 53562,
            "time": 92.98949034374999,
            "velocity": 0.12598425196850394
          },
          {
            "duration": 0.16840260937502194,
            "durationTicks": 97,
            "midi": 67,
            "name": "G4",
            "ticks": 53566,
            "time": 92.99643478124999,
            "velocity": 0.12598425196850394
          },
          {
            "duration": 0.16666650000000516,
            "durationTicks": 96,
            "midi": 52,
            "name": "E3",
            "ticks": 53648,
            "time": 93.13879575,
            "velocity": 0.11811023622047244
          },
          {
            "duration": 0.16666650000000516,
            "durationTicks": 96,
            "midi": 52,
            "name": "E3",
            "ticks": 53648,
            "time": 93.13879575,
            "velocity": 0.11811023622047244
          },
          {
            "duration": 0.1649303906250168,
            "durationTicks": 95,
            "midi": 52,
            "name": "E3",
            "ticks": 53731,
            "time": 93.28289282812499,
            "velocity": 0.12598425196850394
          },
          {
            "duration": 0.1649303906250168,
            "durationTicks": 95,
            "midi": 52,
            "name": "E3",
            "ticks": 53731,
            "time": 93.28289282812499,
            "velocity": 0.12598425196850394
          },
          {
            "duration": 0.16666649999999095,
            "durationTicks": 96,
            "midi": 64,
            "name": "E4",
            "ticks": 53812,
            "time": 93.4235176875,
            "velocity": 0.12598425196850394
          },
          {
            "duration": 0.16666649999999095,
            "durationTicks": 96,
            "midi": 58,
            "name": "A#3",
            "ticks": 53812,
            "time": 93.4235176875,
            "velocity": 0.12598425196850394
          },
          {
            "duration": 0.16840260937499352,
            "durationTicks": 97,
            "midi": 52,
            "name": "E3",
            "ticks": 53894,
            "time": 93.56587865625,
            "velocity": 0.12598425196850394
          },
          {
            "duration": 0.16840260937499352,
            "durationTicks": 97,
            "midi": 52,
            "name": "E3",
            "ticks": 53898,
            "time": 93.57282309375,
            "velocity": 0.12598425196850394
          },
          {
            "duration": 0.33680521875001546,
            "durationTicks": 194,
            "midi": 52,
            "name": "E3",
            "ticks": 53976,
            "time": 93.70823962499999,
            "velocity": 0.12598425196850394
          },
          {
            "duration": 0.33680521875001546,
            "durationTicks": 194,
            "midi": 52,
            "name": "E3",
            "ticks": 53980,
            "time": 93.71518406249999,
            "velocity": 0.12598425196850394
          },
          {
            "duration": 0.16840260937502194,
            "durationTicks": 97,
            "midi": 59,
            "name": "B3",
            "ticks": 54058,
            "time": 93.85060059374999,
            "velocity": 0.12598425196850394
          },
          {
            "duration": 0.16840260937499352,
            "durationTicks": 97,
            "midi": 64,
            "name": "E4",
            "ticks": 54063,
            "time": 93.859281140625,
            "velocity": 0.12598425196850394
          },
          {
            "duration": 0.1701387187499961,
            "durationTicks": 98,
            "midi": 60,
            "name": "C4",
            "ticks": 54141,
            "time": 93.994697671875,
            "velocity": 0.13385826771653545
          },
          {
            "duration": 0.1701387187500103,
            "durationTicks": 98,
            "midi": 67,
            "name": "G4",
            "ticks": 54145,
            "time": 94.00164210937498,
            "velocity": 0.13385826771653545
          },
          {
            "duration": 0.16840260937499352,
            "durationTicks": 97,
            "midi": 50,
            "name": "D3",
            "ticks": 54224,
            "time": 94.13879475,
            "velocity": 0.12598425196850394
          },
          {
            "duration": 0.16840260937502194,
            "durationTicks": 97,
            "midi": 50,
            "name": "D3",
            "ticks": 54229,
            "time": 94.14747529687499,
            "velocity": 0.12598425196850394
          },
          {
            "duration": 0.16840260937502194,
            "durationTicks": 97,
            "midi": 50,
            "name": "D3",
            "ticks": 54307,
            "time": 94.28289182812499,
            "velocity": 0.12598425196850394
          },
          {
            "duration": 0.16840260937499352,
            "durationTicks": 97,
            "midi": 50,
            "name": "D3",
            "ticks": 54311,
            "time": 94.289836265625,
            "velocity": 0.12598425196850394
          },
          {
            "duration": 0.16840260937499352,
            "durationTicks": 97,
            "midi": 62,
            "name": "D4",
            "ticks": 54389,
            "time": 94.425252796875,
            "velocity": 0.12598425196850394
          },
          {
            "duration": 0.16840260937499352,
            "durationTicks": 97,
            "midi": 69,
            "name": "A4",
            "ticks": 54393,
            "time": 94.432197234375,
            "velocity": 0.12598425196850394
          },
          {
            "duration": 0.16840260937499352,
            "durationTicks": 97,
            "midi": 50,
            "name": "D3",
            "ticks": 54471,
            "time": 94.567613765625,
            "velocity": 0.11811023622047244
          },
          {
            "duration": 0.16840260937499352,
            "durationTicks": 97,
            "midi": 50,
            "name": "D3",
            "ticks": 54476,
            "time": 94.57629431250001,
            "velocity": 0.11811023622047244
          },
          {
            "duration": 0.16666650000000516,
            "durationTicks": 96,
            "midi": 50,
            "name": "D3",
            "ticks": 54558,
            "time": 94.71865528125,
            "velocity": 0.11811023622047244
          },
          {
            "duration": 0.16666650000000516,
            "durationTicks": 96,
            "midi": 50,
            "name": "D3",
            "ticks": 54558,
            "time": 94.71865528125,
            "velocity": 0.11811023622047244
          },
          {
            "duration": 0.16493039062498838,
            "durationTicks": 95,
            "midi": 60,
            "name": "C4",
            "ticks": 54641,
            "time": 94.86275235937501,
            "velocity": 0.11811023622047244
          },
          {
            "duration": 0.16493039062498838,
            "durationTicks": 95,
            "midi": 67,
            "name": "G4",
            "ticks": 54641,
            "time": 94.86275235937501,
            "velocity": 0.11811023622047244
          },
          {
            "duration": 0.16666650000000516,
            "durationTicks": 96,
            "midi": 50,
            "name": "D3",
            "ticks": 54722,
            "time": 95.00337721875,
            "velocity": 0.12598425196850394
          },
          {
            "duration": 0.16666650000000516,
            "durationTicks": 96,
            "midi": 50,
            "name": "D3",
            "ticks": 54722,
            "time": 95.00337721875,
            "velocity": 0.12598425196850394
          },
          {
            "duration": 0.16840260937499352,
            "durationTicks": 97,
            "midi": 50,
            "name": "D3",
            "ticks": 54803,
            "time": 95.144002078125,
            "velocity": 0.11811023622047244
          },
          {
            "duration": 0.16840260937500773,
            "durationTicks": 97,
            "midi": 50,
            "name": "D3",
            "ticks": 54808,
            "time": 95.152682625,
            "velocity": 0.11811023622047244
          },
          {
            "duration": 0.16840260937502194,
            "durationTicks": 97,
            "midi": 58,
            "name": "A#3",
            "ticks": 54886,
            "time": 95.28809915624998,
            "velocity": 0.13385826771653545
          },
          {
            "duration": 0.16840260937499352,
            "durationTicks": 97,
            "midi": 66,
            "name": "F#4",
            "ticks": 54890,
            "time": 95.29504359375001,
            "velocity": 0.13385826771653545
          },
          {
            "duration": 0.16840260937499352,
            "durationTicks": 97,
            "midi": 49,
            "name": "C#3",
            "ticks": 54968,
            "time": 95.43046012500001,
            "velocity": 0.12598425196850394
          },
          {
            "duration": 0.16840260937500773,
            "durationTicks": 97,
            "midi": 49,
            "name": "C#3",
            "ticks": 54973,
            "time": 95.439140671875,
            "velocity": 0.12598425196850394
          },
          {
            "duration": 0.8350686093750141,
            "durationTicks": 481,
            "midi": 48,
            "name": "C3",
            "ticks": 55051,
            "time": 95.574557203125,
            "velocity": 0.12598425196850394
          },
          {
            "duration": 0.8350686093749857,
            "durationTicks": 481,
            "midi": 48,
            "name": "C3",
            "ticks": 55055,
            "time": 95.581501640625,
            "velocity": 0.12598425196850394
          },
          {
            "duration": 0.6666659999999922,
            "durationTicks": 384,
            "midi": 56,
            "name": "G#3",
            "ticks": 55133,
            "time": 95.71691817187501,
            "velocity": 0.12598425196850394
          },
          {
            "duration": 0.6666659999999922,
            "durationTicks": 384,
            "midi": 62,
            "name": "D4",
            "ticks": 55137,
            "time": 95.723862609375,
            "velocity": 0.12598425196850394
          },
          {
            "duration": 0.16666650000000516,
            "durationTicks": 96,
            "midi": 43,
            "name": "G2",
            "ticks": 55548,
            "time": 96.4374035625,
            "velocity": 0.11811023622047244
          },
          {
            "duration": 0.16666650000000516,
            "durationTicks": 96,
            "midi": 43,
            "name": "G2",
            "ticks": 55548,
            "time": 96.4374035625,
            "velocity": 0.11811023622047244
          },
          {
            "duration": 0.16666649999999095,
            "durationTicks": 96,
            "midi": 43,
            "name": "G2",
            "ticks": 55631,
            "time": 96.58150064062501,
            "velocity": 0.11811023622047244
          },
          {
            "duration": 0.16666649999999095,
            "durationTicks": 96,
            "midi": 43,
            "name": "G2",
            "ticks": 55631,
            "time": 96.58150064062501,
            "velocity": 0.11811023622047244
          },
          {
            "duration": 0.16840260937499352,
            "durationTicks": 97,
            "midi": 55,
            "name": "G3",
            "ticks": 55712,
            "time": 96.7221255,
            "velocity": 0.12598425196850394
          },
          {
            "duration": 0.16840260937502194,
            "durationTicks": 97,
            "midi": 58,
            "name": "A#3",
            "ticks": 55717,
            "time": 96.73080604687499,
            "velocity": 0.12598425196850394
          },
          {
            "duration": 0.16840260937500773,
            "durationTicks": 97,
            "midi": 43,
            "name": "G2",
            "ticks": 55795,
            "time": 96.86622257812499,
            "velocity": 0.11811023622047244
          },
          {
            "duration": 0.16840260937499352,
            "durationTicks": 97,
            "midi": 43,
            "name": "G2",
            "ticks": 55799,
            "time": 96.873167015625,
            "velocity": 0.11811023622047244
          },
          {
            "duration": 0.16840260937499352,
            "durationTicks": 97,
            "midi": 43,
            "name": "G2",
            "ticks": 55877,
            "time": 97.008583546875,
            "velocity": 0.12598425196850394
          },
          {
            "duration": 0.16840260937499352,
            "durationTicks": 97,
            "midi": 43,
            "name": "G2",
            "ticks": 55881,
            "time": 97.015527984375,
            "velocity": 0.12598425196850394
          },
          {
            "duration": 0.16840260937499352,
            "durationTicks": 97,
            "midi": 53,
            "name": "F3",
            "ticks": 55959,
            "time": 97.150944515625,
            "velocity": 0.12598425196850394
          },
          {
            "duration": 0.16840260937499352,
            "durationTicks": 97,
            "midi": 57,
            "name": "A3",
            "ticks": 55964,
            "time": 97.1596250625,
            "velocity": 0.12598425196850394
          },
          {
            "duration": 0.16840260937499352,
            "durationTicks": 97,
            "midi": 43,
            "name": "G2",
            "ticks": 56042,
            "time": 97.29504159375,
            "velocity": 0.12598425196850394
          },
          {
            "duration": 0.16840260937499352,
            "durationTicks": 97,
            "midi": 43,
            "name": "G2",
            "ticks": 56046,
            "time": 97.30198603125,
            "velocity": 0.12598425196850394
          },
          {
            "duration": 0.16840260937499352,
            "durationTicks": 97,
            "midi": 43,
            "name": "G2",
            "ticks": 56124,
            "time": 97.4374025625,
            "velocity": 0.12598425196850394
          },
          {
            "duration": 0.16840260937499352,
            "durationTicks": 97,
            "midi": 43,
            "name": "G2",
            "ticks": 56129,
            "time": 97.44608310937501,
            "velocity": 0.12598425196850394
          },
          {
            "duration": 0.16840260937499352,
            "durationTicks": 97,
            "midi": 51,
            "name": "D#3",
            "ticks": 56207,
            "time": 97.581499640625,
            "velocity": 0.13385826771653545
          },
          {
            "duration": 0.16840260937499352,
            "durationTicks": 97,
            "midi": 54,
            "name": "F#3",
            "ticks": 56211,
            "time": 97.588444078125,
            "velocity": 0.13385826771653545
          },
          {
            "duration": 0.16840260937499352,
            "durationTicks": 97,
            "midi": 43,
            "name": "G2",
            "ticks": 56289,
            "time": 97.723860609375,
            "velocity": 0.11811023622047244
          },
          {
            "duration": 0.16840260937500773,
            "durationTicks": 97,
            "midi": 43,
            "name": "G2",
            "ticks": 56293,
            "time": 97.73080504687499,
            "velocity": 0.11811023622047244
          },
          {
            "duration": 0.16666650000000516,
            "durationTicks": 96,
            "midi": 43,
            "name": "G2",
            "ticks": 56376,
            "time": 97.87490212499999,
            "velocity": 0.11811023622047244
          },
          {
            "duration": 0.16666650000000516,
            "durationTicks": 96,
            "midi": 43,
            "name": "G2",
            "ticks": 56376,
            "time": 97.87490212499999,
            "velocity": 0.11811023622047244
          },
          {
            "duration": 0.1649303906250026,
            "durationTicks": 95,
            "midi": 53,
            "name": "F3",
            "ticks": 56458,
            "time": 98.01726309374999,
            "velocity": 0.12598425196850394
          },
          {
            "duration": 0.1649303906250026,
            "durationTicks": 95,
            "midi": 49,
            "name": "C#3",
            "ticks": 56458,
            "time": 98.01726309374999,
            "velocity": 0.12598425196850394
          },
          {
            "duration": 0.16666650000000516,
            "durationTicks": 96,
            "midi": 43,
            "name": "G2",
            "ticks": 56540,
            "time": 98.1596240625,
            "velocity": 0.12598425196850394
          },
          {
            "duration": 0.16666650000000516,
            "durationTicks": 96,
            "midi": 43,
            "name": "G2",
            "ticks": 56540,
            "time": 98.1596240625,
            "velocity": 0.12598425196850394
          },
          {
            "duration": 0.33680521874998703,
            "durationTicks": 194,
            "midi": 43,
            "name": "G2",
            "ticks": 56621,
            "time": 98.30024892187501,
            "velocity": 0.12598425196850394
          },
          {
            "duration": 0.33680521875000125,
            "durationTicks": 194,
            "midi": 43,
            "name": "G2",
            "ticks": 56626,
            "time": 98.30892946875,
            "velocity": 0.12598425196850394
          },
          {
            "duration": 0.16840260937499352,
            "durationTicks": 97,
            "midi": 50,
            "name": "D3",
            "ticks": 56703,
            "time": 98.442609890625,
            "velocity": 0.12598425196850394
          },
          {
            "duration": 0.16840260937499352,
            "durationTicks": 97,
            "midi": 53,
            "name": "F3",
            "ticks": 56708,
            "time": 98.4512904375,
            "velocity": 0.12598425196850394
          },
          {
            "duration": 0.17013871874998188,
            "durationTicks": 98,
            "midi": 51,
            "name": "D#3",
            "ticks": 56786,
            "time": 98.58670696875001,
            "velocity": 0.12598425196850394
          },
          {
            "duration": 0.1701387187499961,
            "durationTicks": 98,
            "midi": 55,
            "name": "G3",
            "ticks": 56790,
            "time": 98.59365140625,
            "velocity": 0.12598425196850394
          },
          {
            "duration": 0.16840260937500773,
            "durationTicks": 97,
            "midi": 43,
            "name": "G2",
            "ticks": 56869,
            "time": 98.730804046875,
            "velocity": 0.12598425196850394
          },
          {
            "duration": 0.16840260937499352,
            "durationTicks": 97,
            "midi": 43,
            "name": "G2",
            "ticks": 56874,
            "time": 98.73948459374999,
            "velocity": 0.12598425196850394
          },
          {
            "duration": 0.16840260937499352,
            "durationTicks": 97,
            "midi": 43,
            "name": "G2",
            "ticks": 56952,
            "time": 98.874901125,
            "velocity": 0.11811023622047244
          },
          {
            "duration": 0.16840260937500773,
            "durationTicks": 97,
            "midi": 43,
            "name": "G2",
            "ticks": 56956,
            "time": 98.88184556249999,
            "velocity": 0.11811023622047244
          },
          {
            "duration": 0.16840260937500773,
            "durationTicks": 97,
            "midi": 55,
            "name": "G3",
            "ticks": 57034,
            "time": 99.01726209374999,
            "velocity": 0.13385826771653545
          },
          {
            "duration": 0.16840260937499352,
            "durationTicks": 97,
            "midi": 58,
            "name": "A#3",
            "ticks": 57038,
            "time": 99.02420653125,
            "velocity": 0.13385826771653545
          },
          {
            "duration": 0.16840260937499352,
            "durationTicks": 97,
            "midi": 43,
            "name": "G2",
            "ticks": 57116,
            "time": 99.1596230625,
            "velocity": 0.12598425196850394
          },
          {
            "duration": 0.16840260937502194,
            "durationTicks": 97,
            "midi": 43,
            "name": "G2",
            "ticks": 57121,
            "time": 99.16830360937499,
            "velocity": 0.12598425196850394
          },
          {
            "duration": 0.16840260937500773,
            "durationTicks": 97,
            "midi": 43,
            "name": "G2",
            "ticks": 57199,
            "time": 99.30372014062499,
            "velocity": 0.11811023622047244
          },
          {
            "duration": 0.16840260937499352,
            "durationTicks": 97,
            "midi": 43,
            "name": "G2",
            "ticks": 57203,
            "time": 99.310664578125,
            "velocity": 0.11811023622047244
          },
          {
            "duration": 0.16666650000000516,
            "durationTicks": 96,
            "midi": 53,
            "name": "F3",
            "ticks": 57286,
            "time": 99.45476165624999,
            "velocity": 0.12598425196850394
          },
          {
            "duration": 0.16666650000000516,
            "durationTicks": 96,
            "midi": 57,
            "name": "A3",
            "ticks": 57286,
            "time": 99.45476165624999,
            "velocity": 0.12598425196850394
          },
          {
            "duration": 0.16493039062498838,
            "durationTicks": 95,
            "midi": 43,
            "name": "G2",
            "ticks": 57368,
            "time": 99.597122625,
            "velocity": 0.12598425196850394
          },
          {
            "duration": 0.16493039062498838,
            "durationTicks": 95,
            "midi": 43,
            "name": "G2",
            "ticks": 57368,
            "time": 99.597122625,
            "velocity": 0.12598425196850394
          },
          {
            "duration": 0.16666649999999095,
            "durationTicks": 96,
            "midi": 43,
            "name": "G2",
            "ticks": 57449,
            "time": 99.737747484375,
            "velocity": 0.12598425196850394
          },
          {
            "duration": 0.16666649999999095,
            "durationTicks": 96,
            "midi": 43,
            "name": "G2",
            "ticks": 57449,
            "time": 99.737747484375,
            "velocity": 0.12598425196850394
          },
          {
            "duration": 0.16840260937499352,
            "durationTicks": 97,
            "midi": 74,
            "name": "D5",
            "ticks": 57531,
            "time": 99.880108453125,
            "velocity": 0.12598425196850394
          },
          {
            "duration": 0.16840260937502194,
            "durationTicks": 97,
            "midi": 72,
            "name": "C5",
            "ticks": 57535,
            "time": 99.88705289062499,
            "velocity": 0.12598425196850394
          },
          {
            "duration": 0.16840260937499352,
            "durationTicks": 97,
            "midi": 72,
            "name": "C5",
            "ticks": 57570,
            "time": 99.94781671874999,
            "velocity": 0.11811023622047244
          },
          {
            "duration": 0.16840260937499352,
            "durationTicks": 97,
            "midi": 69,
            "name": "A4",
            "ticks": 57575,
            "time": 99.956497265625,
            "velocity": 0.11811023622047244
          },
          {
            "duration": 0.1701387187500103,
            "durationTicks": 98,
            "midi": 69,
            "name": "A4",
            "ticks": 57613,
            "time": 100.02246942187499,
            "velocity": 0.12598425196850394
          },
          {
            "duration": 0.1701387187499961,
            "durationTicks": 98,
            "midi": 66,
            "name": "F#4",
            "ticks": 57618,
            "time": 100.03114996875,
            "velocity": 0.12598425196850394
          },
          {
            "duration": 0.17013871874998188,
            "durationTicks": 98,
            "midi": 66,
            "name": "F#4",
            "ticks": 57653,
            "time": 100.091913796875,
            "velocity": 0.11811023622047244
          },
          {
            "duration": 0.1701387187499961,
            "durationTicks": 98,
            "midi": 62,
            "name": "D4",
            "ticks": 57657,
            "time": 100.098858234375,
            "velocity": 0.11811023622047244
          },
          {
            "duration": 0.1701387187500103,
            "durationTicks": 98,
            "midi": 62,
            "name": "D4",
            "ticks": 57697,
            "time": 100.16830260937499,
            "velocity": 0.12598425196850394
          },
          {
            "duration": 0.1701387187499961,
            "durationTicks": 98,
            "midi": 60,
            "name": "C4",
            "ticks": 57701,
            "time": 100.175247046875,
            "velocity": 0.12598425196850394
          },
          {
            "duration": 0.16840260937499352,
            "durationTicks": 97,
            "midi": 60,
            "name": "C4",
            "ticks": 57741,
            "time": 100.244691421875,
            "velocity": 0.11023622047244094
          },
          {
            "duration": 0.16840260937499352,
            "durationTicks": 97,
            "midi": 57,
            "name": "A3",
            "ticks": 57741,
            "time": 100.244691421875,
            "velocity": 0.11023622047244094
          },
          {
            "duration": 0.16840260937499352,
            "durationTicks": 97,
            "midi": 57,
            "name": "A3",
            "ticks": 57780,
            "time": 100.31239968749999,
            "velocity": 0.12598425196850394
          },
          {
            "duration": 0.16840260937499352,
            "durationTicks": 97,
            "midi": 54,
            "name": "F#3",
            "ticks": 57785,
            "time": 100.321080234375,
            "velocity": 0.12598425196850394
          },
          {
            "duration": 0.16666650000000516,
            "durationTicks": 96,
            "midi": 54,
            "name": "F#3",
            "ticks": 57824,
            "time": 100.3887885,
            "velocity": 0.11811023622047244
          },
          {
            "duration": 0.16666650000000516,
            "durationTicks": 96,
            "midi": 50,
            "name": "D3",
            "ticks": 57824,
            "time": 100.3887885,
            "velocity": 0.11811023622047244
          },
          {
            "duration": 0.16840260937502194,
            "durationTicks": 97,
            "midi": 78,
            "name": "F#5",
            "ticks": 57862,
            "time": 100.45476065624999,
            "velocity": 0.12598425196850394
          },
          {
            "duration": 0.16840260937499352,
            "durationTicks": 97,
            "midi": 74,
            "name": "D5",
            "ticks": 57867,
            "time": 100.463441203125,
            "velocity": 0.12598425196850394
          },
          {
            "duration": 0.16840260937499352,
            "durationTicks": 97,
            "midi": 72,
            "name": "C5",
            "ticks": 57906,
            "time": 100.53114946875,
            "velocity": 0.11023622047244094
          },
          {
            "duration": 0.16840260937499352,
            "durationTicks": 97,
            "midi": 76,
            "name": "E5",
            "ticks": 57906,
            "time": 100.53114946875,
            "velocity": 0.11023622047244094
          },
          {
            "duration": 0.1701387187499961,
            "durationTicks": 98,
            "midi": 74,
            "name": "D5",
            "ticks": 57945,
            "time": 100.598857734375,
            "velocity": 0.12598425196850394
          },
          {
            "duration": 0.1701387187500103,
            "durationTicks": 98,
            "midi": 69,
            "name": "A4",
            "ticks": 57949,
            "time": 100.60580217187498,
            "velocity": 0.12598425196850394
          },
          {
            "duration": 0.1701387187499961,
            "durationTicks": 98,
            "midi": 72,
            "name": "C5",
            "ticks": 57989,
            "time": 100.675246546875,
            "velocity": 0.11811023622047244
          },
          {
            "duration": 0.1701387187500103,
            "durationTicks": 98,
            "midi": 66,
            "name": "F#4",
            "ticks": 57993,
            "time": 100.682190984375,
            "velocity": 0.11811023622047244
          },
          {
            "duration": 0.17013871874998188,
            "durationTicks": 98,
            "midi": 69,
            "name": "A4",
            "ticks": 58028,
            "time": 100.7429548125,
            "velocity": 0.12598425196850394
          },
          {
            "duration": 0.1701387187500103,
            "durationTicks": 98,
            "midi": 62,
            "name": "D4",
            "ticks": 58033,
            "time": 100.75163535937499,
            "velocity": 0.12598425196850394
          },
          {
            "duration": 0.1701387187500103,
            "durationTicks": 98,
            "midi": 66,
            "name": "F#4",
            "ticks": 58072,
            "time": 100.81934362499999,
            "velocity": 0.11023622047244094
          },
          {
            "duration": 0.1701387187499961,
            "durationTicks": 98,
            "midi": 60,
            "name": "C4",
            "ticks": 58077,
            "time": 100.828024171875,
            "velocity": 0.11023622047244094
          },
          {
            "duration": 0.17013871874998188,
            "durationTicks": 98,
            "midi": 62,
            "name": "D4",
            "ticks": 58112,
            "time": 100.888788,
            "velocity": 0.12598425196850394
          },
          {
            "duration": 0.1701387187499961,
            "durationTicks": 98,
            "midi": 57,
            "name": "A3",
            "ticks": 58116,
            "time": 100.8957324375,
            "velocity": 0.12598425196850394
          },
          {
            "duration": 0.16840260937500773,
            "durationTicks": 97,
            "midi": 60,
            "name": "C4",
            "ticks": 58156,
            "time": 100.96517681249999,
            "velocity": 0.11811023622047244
          },
          {
            "duration": 0.16840260937499352,
            "durationTicks": 97,
            "midi": 54,
            "name": "F#3",
            "ticks": 58160,
            "time": 100.97212125,
            "velocity": 0.11811023622047244
          }
        ],
        "endOfTrackTicks": 58257
      },
      {
        "channel": 1,
        "controlChanges": {},
        "pitchBends": [],
        "instrument": {
          "family": "bass",
          "number": 32,
          "name": "acoustic bass"
        },
        "name": "Bass (Classic)",
        "notes": [
          {
            "duration": 0.1666665,
            "durationTicks": 96,
            "midi": 43,
            "name": "G2",
            "ticks": 0,
            "time": 0,
            "velocity": 0.2047244094488189
          },
          {
            "duration": 0.16666649999999983,
            "durationTicks": 96,
            "midi": 43,
            "name": "G2",
            "ticks": 1316,
            "time": 2.2847199375000002,
            "velocity": 0.2204724409448819
          },
          {
            "duration": 0.16666649999999983,
            "durationTicks": 96,
            "midi": 43,
            "name": "G2",
            "ticks": 2632,
            "time": 4.5694398750000005,
            "velocity": 0.2204724409448819
          },
          {
            "duration": 0.16666649999999983,
            "durationTicks": 96,
            "midi": 43,
            "name": "G2",
            "ticks": 3952,
            "time": 6.8611042499999995,
            "velocity": 0.2204724409448819
          },
          {
            "duration": 0.16666649999999983,
            "durationTicks": 96,
            "midi": 43,
            "name": "G2",
            "ticks": 5268,
            "time": 9.1458241875,
            "velocity": 0.2047244094488189
          },
          {
            "duration": 0.16666649999999983,
            "durationTicks": 96,
            "midi": 43,
            "name": "G2",
            "ticks": 6588,
            "time": 11.4374885625,
            "velocity": 0.2125984251968504
          },
          {
            "duration": 0.16666649999999983,
            "durationTicks": 96,
            "midi": 43,
            "name": "G2",
            "ticks": 7904,
            "time": 13.722208499999999,
            "velocity": 0.2125984251968504
          },
          {
            "duration": 0.1666665000000016,
            "durationTicks": 96,
            "midi": 43,
            "name": "G2",
            "ticks": 9224,
            "time": 16.013872874999997,
            "velocity": 0.1968503937007874
          },
          {
            "duration": 0.16666649999999805,
            "durationTicks": 96,
            "midi": 43,
            "name": "G2",
            "ticks": 10540,
            "time": 18.2985928125,
            "velocity": 0.14173228346456693
          },
          {
            "duration": 0.1666665000000016,
            "durationTicks": 96,
            "midi": 43,
            "name": "G2",
            "ticks": 10704,
            "time": 18.58331475,
            "velocity": 0.15748031496062992
          },
          {
            "duration": 0.1666665000000016,
            "durationTicks": 96,
            "midi": 43,
            "name": "G2",
            "ticks": 10872,
            "time": 18.874981124999998,
            "velocity": 0.14173228346456693
          },
          {
            "duration": 0.16666649999999805,
            "durationTicks": 96,
            "midi": 43,
            "name": "G2",
            "ticks": 11036,
            "time": 19.1597030625,
            "velocity": 0.15748031496062992
          },
          {
            "duration": 0.16666649999999805,
            "durationTicks": 96,
            "midi": 43,
            "name": "G2",
            "ticks": 11199,
            "time": 19.442688890625,
            "velocity": 0.14960629921259844
          },
          {
            "duration": 0.1666665000000016,
            "durationTicks": 96,
            "midi": 43,
            "name": "G2",
            "ticks": 11363,
            "time": 19.727410828125,
            "velocity": 0.15748031496062992
          },
          {
            "duration": 0.16666649999999805,
            "durationTicks": 96,
            "midi": 43,
            "name": "G2",
            "ticks": 11527,
            "time": 20.012132765625,
            "velocity": 0.14173228346456693
          },
          {
            "duration": 0.16666649999999805,
            "durationTicks": 96,
            "midi": 43,
            "name": "G2",
            "ticks": 11691,
            "time": 20.296854703125,
            "velocity": 0.14173228346456693
          },
          {
            "duration": 0.1666665000000016,
            "durationTicks": 96,
            "midi": 43,
            "name": "G2",
            "ticks": 11859,
            "time": 20.588521078124998,
            "velocity": 0.15748031496062992
          },
          {
            "duration": 0.1666665000000016,
            "durationTicks": 96,
            "midi": 43,
            "name": "G2",
            "ticks": 12023,
            "time": 20.873243015624997,
            "velocity": 0.15748031496062992
          },
          {
            "duration": 0.1666665000000016,
            "durationTicks": 96,
            "midi": 43,
            "name": "G2",
            "ticks": 12187,
            "time": 21.157964953125,
            "velocity": 0.14960629921259844
          },
          {
            "duration": 0.16666649999999805,
            "durationTicks": 96,
            "midi": 43,
            "name": "G2",
            "ticks": 12350,
            "time": 21.440950781250002,
            "velocity": 0.14173228346456693
          },
          {
            "duration": 0.1666665000000016,
            "durationTicks": 96,
            "midi": 43,
            "name": "G2",
            "ticks": 12514,
            "time": 21.725672718749998,
            "velocity": 0.14960629921259844
          },
          {
            "duration": 0.16666649999999805,
            "durationTicks": 96,
            "midi": 43,
            "name": "G2",
            "ticks": 12682,
            "time": 22.01733909375,
            "velocity": 0.15748031496062992
          },
          {
            "duration": 0.1666665000000016,
            "durationTicks": 96,
            "midi": 43,
            "name": "G2",
            "ticks": 12846,
            "time": 22.30206103125,
            "velocity": 0.14173228346456693
          },
          {
            "duration": 0.1666665000000016,
            "durationTicks": 96,
            "midi": 43,
            "name": "G2",
            "ticks": 13010,
            "time": 22.58678296875,
            "velocity": 0.11811023622047244
          },
          {
            "duration": 0.16666649999999805,
            "durationTicks": 96,
            "midi": 43,
            "name": "G2",
            "ticks": 13174,
            "time": 22.87150490625,
            "velocity": 0.12598425196850394
          },
          {
            "duration": 0.1666665000000016,
            "durationTicks": 96,
            "midi": 43,
            "name": "G2",
            "ticks": 13338,
            "time": 23.156226843749998,
            "velocity": 0.15748031496062992
          },
          {
            "duration": 0.1666665000000016,
            "durationTicks": 96,
            "midi": 43,
            "name": "G2",
            "ticks": 13501,
            "time": 23.439212671874998,
            "velocity": 0.15748031496062992
          },
          {
            "duration": 0.16666649999999805,
            "durationTicks": 96,
            "midi": 43,
            "name": "G2",
            "ticks": 13670,
            "time": 23.732615156250002,
            "velocity": 0.14960629921259844
          },
          {
            "duration": 0.1666665000000016,
            "durationTicks": 96,
            "midi": 43,
            "name": "G2",
            "ticks": 13833,
            "time": 24.015600984375,
            "velocity": 0.16535433070866143
          },
          {
            "duration": 0.1666665000000016,
            "durationTicks": 96,
            "midi": 43,
            "name": "G2",
            "ticks": 13997,
            "time": 24.300322921875,
            "velocity": 0.14960629921259844
          },
          {
            "duration": 0.1666665000000016,
            "durationTicks": 96,
            "midi": 43,
            "name": "G2",
            "ticks": 14161,
            "time": 24.585044859374996,
            "velocity": 0.14173228346456693
          },
          {
            "duration": 0.1666665000000016,
            "durationTicks": 96,
            "midi": 43,
            "name": "G2",
            "ticks": 14325,
            "time": 24.869766796875,
            "velocity": 0.15748031496062992
          },
          {
            "duration": 0.16666649999999805,
            "durationTicks": 96,
            "midi": 43,
            "name": "G2",
            "ticks": 14493,
            "time": 25.161433171875,
            "velocity": 0.15748031496062992
          },
          {
            "duration": 0.16666649999999805,
            "durationTicks": 96,
            "midi": 43,
            "name": "G2",
            "ticks": 14657,
            "time": 25.446155109375002,
            "velocity": 0.14173228346456693
          },
          {
            "duration": 0.1666665000000016,
            "durationTicks": 96,
            "midi": 43,
            "name": "G2",
            "ticks": 14821,
            "time": 25.730877046874998,
            "velocity": 0.14960629921259844
          },
          {
            "duration": 0.1666665000000016,
            "durationTicks": 96,
            "midi": 43,
            "name": "G2",
            "ticks": 14984,
            "time": 26.013862875,
            "velocity": 0.16535433070866143
          },
          {
            "duration": 0.1666665000000016,
            "durationTicks": 96,
            "midi": 43,
            "name": "G2",
            "ticks": 15148,
            "time": 26.298584812499996,
            "velocity": 0.1732283464566929
          },
          {
            "duration": 0.1666665000000016,
            "durationTicks": 96,
            "midi": 43,
            "name": "G2",
            "ticks": 15312,
            "time": 26.58330675,
            "velocity": 0.16535433070866143
          },
          {
            "duration": 0.16666649999999805,
            "durationTicks": 96,
            "midi": 43,
            "name": "G2",
            "ticks": 15480,
            "time": 26.874973125,
            "velocity": 0.15748031496062992
          },
          {
            "duration": 0.1666665000000016,
            "durationTicks": 96,
            "midi": 43,
            "name": "G2",
            "ticks": 15644,
            "time": 27.1596950625,
            "velocity": 0.1732283464566929
          },
          {
            "duration": 0.16666649999999805,
            "durationTicks": 96,
            "midi": 36,
            "name": "C2",
            "ticks": 15808,
            "time": 27.444416999999998,
            "velocity": 0.14173228346456693
          },
          {
            "duration": 0.16666649999999805,
            "durationTicks": 96,
            "midi": 36,
            "name": "C2",
            "ticks": 15972,
            "time": 27.7291389375,
            "velocity": 0.15748031496062992
          },
          {
            "duration": 0.1666665000000016,
            "durationTicks": 96,
            "midi": 36,
            "name": "C2",
            "ticks": 16135,
            "time": 28.012124765624996,
            "velocity": 0.14173228346456693
          },
          {
            "duration": 0.1666665000000016,
            "durationTicks": 96,
            "midi": 36,
            "name": "C2",
            "ticks": 16304,
            "time": 28.30552725,
            "velocity": 0.15748031496062992
          },
          {
            "duration": 0.1666665000000016,
            "durationTicks": 96,
            "midi": 36,
            "name": "C2",
            "ticks": 16468,
            "time": 28.590249187499996,
            "velocity": 0.14960629921259844
          },
          {
            "duration": 0.1666665000000016,
            "durationTicks": 96,
            "midi": 36,
            "name": "C2",
            "ticks": 16631,
            "time": 28.873235015625,
            "velocity": 0.15748031496062992
          },
          {
            "duration": 0.16666649999999805,
            "durationTicks": 96,
            "midi": 36,
            "name": "C2",
            "ticks": 16795,
            "time": 29.157956953124998,
            "velocity": 0.14173228346456693
          },
          {
            "duration": 0.16666649999999805,
            "durationTicks": 96,
            "midi": 36,
            "name": "C2",
            "ticks": 16959,
            "time": 29.442678890625,
            "velocity": 0.14173228346456693
          },
          {
            "duration": 0.1666665000000016,
            "durationTicks": 96,
            "midi": 36,
            "name": "C2",
            "ticks": 17123,
            "time": 29.727400828125,
            "velocity": 0.15748031496062992
          },
          {
            "duration": 0.16666649999999805,
            "durationTicks": 96,
            "midi": 36,
            "name": "C2",
            "ticks": 17291,
            "time": 30.019067203125,
            "velocity": 0.15748031496062992
          },
          {
            "duration": 0.1666665000000016,
            "durationTicks": 96,
            "midi": 36,
            "name": "C2",
            "ticks": 17455,
            "time": 30.303789140624996,
            "velocity": 0.14960629921259844
          },
          {
            "duration": 0.1666665000000016,
            "durationTicks": 96,
            "midi": 36,
            "name": "C2",
            "ticks": 17619,
            "time": 30.588511078125,
            "velocity": 0.14173228346456693
          },
          {
            "duration": 0.16666649999999805,
            "durationTicks": 96,
            "midi": 36,
            "name": "C2",
            "ticks": 17782,
            "time": 30.871496906249998,
            "velocity": 0.14960629921259844
          },
          {
            "duration": 0.16666649999999805,
            "durationTicks": 96,
            "midi": 36,
            "name": "C2",
            "ticks": 17946,
            "time": 31.15621884375,
            "velocity": 0.15748031496062992
          },
          {
            "duration": 0.1666665000000016,
            "durationTicks": 96,
            "midi": 36,
            "name": "C2",
            "ticks": 18114,
            "time": 31.44788521875,
            "velocity": 0.14173228346456693
          },
          {
            "duration": 0.16666649999999805,
            "durationTicks": 96,
            "midi": 36,
            "name": "C2",
            "ticks": 18278,
            "time": 31.73260715625,
            "velocity": 0.11811023622047244
          },
          {
            "duration": 0.16666649999999805,
            "durationTicks": 96,
            "midi": 36,
            "name": "C2",
            "ticks": 18442,
            "time": 32.01732909375,
            "velocity": 0.12598425196850394
          },
          {
            "duration": 0.16666649999999805,
            "durationTicks": 96,
            "midi": 36,
            "name": "C2",
            "ticks": 18606,
            "time": 32.30205103125,
            "velocity": 0.15748031496062992
          },
          {
            "duration": 0.16666650000000516,
            "durationTicks": 96,
            "midi": 36,
            "name": "C2",
            "ticks": 18770,
            "time": 32.58677296875,
            "velocity": 0.15748031496062992
          },
          {
            "duration": 0.16666650000000516,
            "durationTicks": 96,
            "midi": 36,
            "name": "C2",
            "ticks": 18933,
            "time": 32.869758796875,
            "velocity": 0.14960629921259844
          },
          {
            "duration": 0.16666649999999805,
            "durationTicks": 96,
            "midi": 36,
            "name": "C2",
            "ticks": 19102,
            "time": 33.16316128125,
            "velocity": 0.16535433070866143
          },
          {
            "duration": 0.16666650000000516,
            "durationTicks": 96,
            "midi": 36,
            "name": "C2",
            "ticks": 19265,
            "time": 33.446147109375,
            "velocity": 0.14960629921259844
          },
          {
            "duration": 0.16666649999999805,
            "durationTicks": 96,
            "midi": 36,
            "name": "C2",
            "ticks": 19429,
            "time": 33.730869046875,
            "velocity": 0.14173228346456693
          },
          {
            "duration": 0.16666649999999805,
            "durationTicks": 96,
            "midi": 36,
            "name": "C2",
            "ticks": 19593,
            "time": 34.015590984375,
            "velocity": 0.15748031496062992
          },
          {
            "duration": 0.16666650000000516,
            "durationTicks": 96,
            "midi": 36,
            "name": "C2",
            "ticks": 19757,
            "time": 34.300312921875,
            "velocity": 0.15748031496062992
          },
          {
            "duration": 0.16666649999999805,
            "durationTicks": 96,
            "midi": 36,
            "name": "C2",
            "ticks": 19925,
            "time": 34.591979296875,
            "velocity": 0.14173228346456693
          },
          {
            "duration": 0.16666649999999805,
            "durationTicks": 96,
            "midi": 36,
            "name": "C2",
            "ticks": 20089,
            "time": 34.876701234375,
            "velocity": 0.14960629921259844
          },
          {
            "duration": 0.16666649999999805,
            "durationTicks": 96,
            "midi": 36,
            "name": "C2",
            "ticks": 20253,
            "time": 35.161423171875,
            "velocity": 0.16535433070866143
          },
          {
            "duration": 0.16666649999999805,
            "durationTicks": 96,
            "midi": 36,
            "name": "C2",
            "ticks": 20416,
            "time": 35.444409,
            "velocity": 0.1732283464566929
          },
          {
            "duration": 0.16666650000000516,
            "durationTicks": 96,
            "midi": 36,
            "name": "C2",
            "ticks": 20580,
            "time": 35.729130937499995,
            "velocity": 0.16535433070866143
          },
          {
            "duration": 0.16666650000000516,
            "durationTicks": 96,
            "midi": 36,
            "name": "C2",
            "ticks": 20744,
            "time": 36.013852875,
            "velocity": 0.15748031496062992
          },
          {
            "duration": 0.16666649999999805,
            "durationTicks": 96,
            "midi": 36,
            "name": "C2",
            "ticks": 20912,
            "time": 36.30551925,
            "velocity": 0.1732283464566929
          },
          {
            "duration": 0.16666649999999805,
            "durationTicks": 96,
            "midi": 43,
            "name": "G2",
            "ticks": 21076,
            "time": 36.5902411875,
            "velocity": 0.14173228346456693
          },
          {
            "duration": 0.16666649999999805,
            "durationTicks": 96,
            "midi": 43,
            "name": "G2",
            "ticks": 21240,
            "time": 36.874963125,
            "velocity": 0.15748031496062992
          },
          {
            "duration": 0.16666649999999805,
            "durationTicks": 96,
            "midi": 43,
            "name": "G2",
            "ticks": 21404,
            "time": 37.1596850625,
            "velocity": 0.14173228346456693
          },
          {
            "duration": 0.16666650000000516,
            "durationTicks": 96,
            "midi": 43,
            "name": "G2",
            "ticks": 21567,
            "time": 37.442670890624996,
            "velocity": 0.15748031496062992
          },
          {
            "duration": 0.16666649999999805,
            "durationTicks": 96,
            "midi": 43,
            "name": "G2",
            "ticks": 21736,
            "time": 37.736073375,
            "velocity": 0.14960629921259844
          },
          {
            "duration": 0.16666649999999805,
            "durationTicks": 96,
            "midi": 43,
            "name": "G2",
            "ticks": 21899,
            "time": 38.019059203125,
            "velocity": 0.15748031496062992
          },
          {
            "duration": 0.16666649999999805,
            "durationTicks": 96,
            "midi": 43,
            "name": "G2",
            "ticks": 22063,
            "time": 38.303781140625,
            "velocity": 0.14173228346456693
          },
          {
            "duration": 0.16666649999999805,
            "durationTicks": 96,
            "midi": 43,
            "name": "G2",
            "ticks": 22227,
            "time": 38.588503078125,
            "velocity": 0.14173228346456693
          },
          {
            "duration": 0.16666649999999805,
            "durationTicks": 96,
            "midi": 43,
            "name": "G2",
            "ticks": 22391,
            "time": 38.873225015625,
            "velocity": 0.15748031496062992
          },
          {
            "duration": 0.16666649999999805,
            "durationTicks": 96,
            "midi": 43,
            "name": "G2",
            "ticks": 22555,
            "time": 39.157946953125,
            "velocity": 0.15748031496062992
          },
          {
            "duration": 0.16666649999999805,
            "durationTicks": 96,
            "midi": 43,
            "name": "G2",
            "ticks": 22723,
            "time": 39.449613328125,
            "velocity": 0.14960629921259844
          },
          {
            "duration": 0.16666649999999805,
            "durationTicks": 96,
            "midi": 43,
            "name": "G2",
            "ticks": 22887,
            "time": 39.734335265625,
            "velocity": 0.14173228346456693
          },
          {
            "duration": 0.16666649999999805,
            "durationTicks": 96,
            "midi": 43,
            "name": "G2",
            "ticks": 23050,
            "time": 40.01732109375,
            "velocity": 0.14960629921259844
          },
          {
            "duration": 0.16666649999999805,
            "durationTicks": 96,
            "midi": 43,
            "name": "G2",
            "ticks": 23214,
            "time": 40.30204303125,
            "velocity": 0.15748031496062992
          },
          {
            "duration": 0.16666649999999805,
            "durationTicks": 96,
            "midi": 43,
            "name": "G2",
            "ticks": 23378,
            "time": 40.58676496875,
            "velocity": 0.14173228346456693
          },
          {
            "duration": 0.16666649999999805,
            "durationTicks": 96,
            "midi": 43,
            "name": "G2",
            "ticks": 23546,
            "time": 40.87843134375,
            "velocity": 0.11811023622047244
          },
          {
            "duration": 0.16666649999999805,
            "durationTicks": 96,
            "midi": 43,
            "name": "G2",
            "ticks": 23710,
            "time": 41.16315328125,
            "velocity": 0.12598425196850394
          },
          {
            "duration": 0.16666649999999805,
            "durationTicks": 96,
            "midi": 43,
            "name": "G2",
            "ticks": 23874,
            "time": 41.44787521875,
            "velocity": 0.15748031496062992
          },
          {
            "duration": 0.16666649999999805,
            "durationTicks": 96,
            "midi": 43,
            "name": "G2",
            "ticks": 24038,
            "time": 41.73259715625,
            "velocity": 0.15748031496062992
          },
          {
            "duration": 0.16666649999999805,
            "durationTicks": 96,
            "midi": 43,
            "name": "G2",
            "ticks": 24201,
            "time": 42.015582984375,
            "velocity": 0.14960629921259844
          },
          {
            "duration": 0.16666649999999805,
            "durationTicks": 96,
            "midi": 43,
            "name": "G2",
            "ticks": 24365,
            "time": 42.300304921875004,
            "velocity": 0.16535433070866143
          },
          {
            "duration": 0.16666649999999805,
            "durationTicks": 96,
            "midi": 43,
            "name": "G2",
            "ticks": 24534,
            "time": 42.59370740625,
            "velocity": 0.14960629921259844
          },
          {
            "duration": 0.16666649999999805,
            "durationTicks": 96,
            "midi": 43,
            "name": "G2",
            "ticks": 24697,
            "time": 42.876693234375004,
            "velocity": 0.14173228346456693
          },
          {
            "duration": 0.16666649999999805,
            "durationTicks": 96,
            "midi": 43,
            "name": "G2",
            "ticks": 24861,
            "time": 43.161415171875,
            "velocity": 0.15748031496062992
          },
          {
            "duration": 0.16666649999999805,
            "durationTicks": 96,
            "midi": 43,
            "name": "G2",
            "ticks": 25025,
            "time": 43.446137109374995,
            "velocity": 0.15748031496062992
          },
          {
            "duration": 0.16666649999999805,
            "durationTicks": 96,
            "midi": 43,
            "name": "G2",
            "ticks": 25189,
            "time": 43.730859046875004,
            "velocity": 0.14173228346456693
          },
          {
            "duration": 0.16666649999999805,
            "durationTicks": 96,
            "midi": 43,
            "name": "G2",
            "ticks": 25357,
            "time": 44.022525421875,
            "velocity": 0.14960629921259844
          },
          {
            "duration": 0.16666649999999805,
            "durationTicks": 96,
            "midi": 43,
            "name": "G2",
            "ticks": 25521,
            "time": 44.307247359375,
            "velocity": 0.16535433070866143
          },
          {
            "duration": 0.16666650000000516,
            "durationTicks": 96,
            "midi": 43,
            "name": "G2",
            "ticks": 25685,
            "time": 44.59196929687499,
            "velocity": 0.1732283464566929
          },
          {
            "duration": 0.16666649999999805,
            "durationTicks": 96,
            "midi": 43,
            "name": "G2",
            "ticks": 25848,
            "time": 44.874955125,
            "velocity": 0.16535433070866143
          },
          {
            "duration": 0.16666649999999805,
            "durationTicks": 96,
            "midi": 43,
            "name": "G2",
            "ticks": 26012,
            "time": 45.159677062499995,
            "velocity": 0.15748031496062992
          },
          {
            "duration": 0.16666649999999805,
            "durationTicks": 96,
            "midi": 43,
            "name": "G2",
            "ticks": 26176,
            "time": 45.444399000000004,
            "velocity": 0.1732283464566929
          },
          {
            "duration": 0.16666649999999805,
            "durationTicks": 96,
            "midi": 40,
            "name": "E2",
            "ticks": 26344,
            "time": 45.736065375,
            "velocity": 0.1889763779527559
          },
          {
            "duration": 0.16666649999999805,
            "durationTicks": 96,
            "midi": 40,
            "name": "E2",
            "ticks": 26508,
            "time": 46.0207873125,
            "velocity": 0.16535433070866143
          },
          {
            "duration": 0.16666650000000516,
            "durationTicks": 96,
            "midi": 40,
            "name": "E2",
            "ticks": 26672,
            "time": 46.30550924999999,
            "velocity": 0.14960629921259844
          },
          {
            "duration": 0.16666649999999805,
            "durationTicks": 96,
            "midi": 40,
            "name": "E2",
            "ticks": 26836,
            "time": 46.5902311875,
            "velocity": 0.1732283464566929
          },
          {
            "duration": 0.16666649999999805,
            "durationTicks": 96,
            "midi": 40,
            "name": "E2",
            "ticks": 26999,
            "time": 46.873217015624995,
            "velocity": 0.1968503937007874
          },
          {
            "duration": 0.16666650000000516,
            "durationTicks": 96,
            "midi": 40,
            "name": "E2",
            "ticks": 27168,
            "time": 47.166619499999996,
            "velocity": 0.1732283464566929
          },
          {
            "duration": 0.16666649999999805,
            "durationTicks": 96,
            "midi": 40,
            "name": "E2",
            "ticks": 27331,
            "time": 47.449605328125,
            "velocity": 0.1732283464566929
          },
          {
            "duration": 0.16666649999999805,
            "durationTicks": 96,
            "midi": 40,
            "name": "E2",
            "ticks": 27495,
            "time": 47.734327265625,
            "velocity": 0.16535433070866143
          },
          {
            "duration": 0.16666650000000516,
            "durationTicks": 96,
            "midi": 38,
            "name": "D2",
            "ticks": 27659,
            "time": 48.01904920312499,
            "velocity": 0.12598425196850394
          },
          {
            "duration": 0.16666649999999805,
            "durationTicks": 96,
            "midi": 38,
            "name": "D2",
            "ticks": 27823,
            "time": 48.303771140625,
            "velocity": 0.15748031496062992
          },
          {
            "duration": 0.16666649999999805,
            "durationTicks": 96,
            "midi": 38,
            "name": "D2",
            "ticks": 27987,
            "time": 48.588493078125,
            "velocity": 0.1732283464566929
          },
          {
            "duration": 0.16666650000000516,
            "durationTicks": 96,
            "midi": 38,
            "name": "D2",
            "ticks": 28155,
            "time": 48.880159453124996,
            "velocity": 0.14173228346456693
          },
          {
            "duration": 0.16666649999999805,
            "durationTicks": 96,
            "midi": 36,
            "name": "C2",
            "ticks": 28319,
            "time": 49.164881390625,
            "velocity": 0.16535433070866143
          },
          {
            "duration": 0.16666649999999805,
            "durationTicks": 96,
            "midi": 36,
            "name": "C2",
            "ticks": 28482,
            "time": 49.44786721875,
            "velocity": 0.16535433070866143
          },
          {
            "duration": 0.16666650000000516,
            "durationTicks": 96,
            "midi": 36,
            "name": "C2",
            "ticks": 28646,
            "time": 49.73258915624999,
            "velocity": 0.14173228346456693
          },
          {
            "duration": 0.16666649999999805,
            "durationTicks": 96,
            "midi": 36,
            "name": "C2",
            "ticks": 28810,
            "time": 50.01731109375,
            "velocity": 0.14960629921259844
          },
          {
            "duration": 0.16666649999999805,
            "durationTicks": 96,
            "midi": 43,
            "name": "G2",
            "ticks": 28978,
            "time": 50.30897746875,
            "velocity": 0.13385826771653545
          },
          {
            "duration": 0.16666650000000516,
            "durationTicks": 96,
            "midi": 43,
            "name": "G2",
            "ticks": 29142,
            "time": 50.593699406249996,
            "velocity": 0.14173228346456693
          },
          {
            "duration": 0.16666649999999805,
            "durationTicks": 96,
            "midi": 43,
            "name": "G2",
            "ticks": 29306,
            "time": 50.87842134375,
            "velocity": 0.14173228346456693
          },
          {
            "duration": 0.16666649999999805,
            "durationTicks": 96,
            "midi": 43,
            "name": "G2",
            "ticks": 29470,
            "time": 51.16314328125,
            "velocity": 0.14173228346456693
          },
          {
            "duration": 0.16666650000000516,
            "durationTicks": 96,
            "midi": 43,
            "name": "G2",
            "ticks": 29633,
            "time": 51.44612910937499,
            "velocity": 0.12598425196850394
          },
          {
            "duration": 0.16666649999999805,
            "durationTicks": 96,
            "midi": 43,
            "name": "G2",
            "ticks": 29797,
            "time": 51.730851046875,
            "velocity": 0.12598425196850394
          },
          {
            "duration": 0.16666649999999805,
            "durationTicks": 96,
            "midi": 43,
            "name": "G2",
            "ticks": 29965,
            "time": 52.022517421875,
            "velocity": 0.14960629921259844
          },
          {
            "duration": 0.16666650000000516,
            "durationTicks": 96,
            "midi": 43,
            "name": "G2",
            "ticks": 30129,
            "time": 52.307239359375,
            "velocity": 0.14173228346456693
          },
          {
            "duration": 0.16666649999999805,
            "durationTicks": 96,
            "midi": 43,
            "name": "G2",
            "ticks": 30293,
            "time": 52.591961296875,
            "velocity": 0.14173228346456693
          },
          {
            "duration": 0.16666649999999805,
            "durationTicks": 96,
            "midi": 43,
            "name": "G2",
            "ticks": 30457,
            "time": 52.876683234375,
            "velocity": 0.16535433070866143
          },
          {
            "duration": 0.16666650000000516,
            "durationTicks": 96,
            "midi": 43,
            "name": "G2",
            "ticks": 30621,
            "time": 53.161405171874996,
            "velocity": 0.14960629921259844
          },
          {
            "duration": 0.16666649999999805,
            "durationTicks": 96,
            "midi": 43,
            "name": "G2",
            "ticks": 30789,
            "time": 53.453071546875,
            "velocity": 0.1732283464566929
          },
          {
            "duration": 0.16666649999999805,
            "durationTicks": 96,
            "midi": 31,
            "name": "G1",
            "ticks": 30953,
            "time": 53.737793484375,
            "velocity": 0.1732283464566929
          },
          {
            "duration": 0.16666650000000516,
            "durationTicks": 96,
            "midi": 43,
            "name": "G2",
            "ticks": 31609,
            "time": 54.876681234375,
            "velocity": 0.2047244094488189
          },
          {
            "duration": 0.16666649999999805,
            "durationTicks": 96,
            "midi": 43,
            "name": "G2",
            "ticks": 32929,
            "time": 57.168345609375,
            "velocity": 0.2125984251968504
          },
          {
            "duration": 0.16666650000000516,
            "durationTicks": 96,
            "midi": 43,
            "name": "G2",
            "ticks": 34245,
            "time": 59.453065546874996,
            "velocity": 0.2125984251968504
          },
          {
            "duration": 0.16666649999999805,
            "durationTicks": 96,
            "midi": 43,
            "name": "G2",
            "ticks": 35565,
            "time": 61.744729921875,
            "velocity": 0.1968503937007874
          },
          {
            "duration": 0.16666650000000516,
            "durationTicks": 96,
            "midi": 43,
            "name": "G2",
            "ticks": 36881,
            "time": 64.02944985937499,
            "velocity": 0.14173228346456693
          },
          {
            "duration": 0.16666650000000516,
            "durationTicks": 96,
            "midi": 43,
            "name": "G2",
            "ticks": 37045,
            "time": 64.314171796875,
            "velocity": 0.15748031496062992
          },
          {
            "duration": 0.16666649999999095,
            "durationTicks": 96,
            "midi": 43,
            "name": "G2",
            "ticks": 37213,
            "time": 64.605838171875,
            "velocity": 0.14173228346456693
          },
          {
            "duration": 0.16666649999999095,
            "durationTicks": 96,
            "midi": 43,
            "name": "G2",
            "ticks": 37377,
            "time": 64.890560109375,
            "velocity": 0.15748031496062992
          },
          {
            "duration": 0.16666649999999095,
            "durationTicks": 96,
            "midi": 43,
            "name": "G2",
            "ticks": 37541,
            "time": 65.175282046875,
            "velocity": 0.14960629921259844
          },
          {
            "duration": 0.16666649999999095,
            "durationTicks": 96,
            "midi": 43,
            "name": "G2",
            "ticks": 37704,
            "time": 65.458267875,
            "velocity": 0.15748031496062992
          },
          {
            "duration": 0.16666649999999095,
            "durationTicks": 96,
            "midi": 43,
            "name": "G2",
            "ticks": 37868,
            "time": 65.7429898125,
            "velocity": 0.14173228346456693
          },
          {
            "duration": 0.16666650000000516,
            "durationTicks": 96,
            "midi": 43,
            "name": "G2",
            "ticks": 38036,
            "time": 66.03465618749999,
            "velocity": 0.14173228346456693
          },
          {
            "duration": 0.16666650000000516,
            "durationTicks": 96,
            "midi": 43,
            "name": "G2",
            "ticks": 38200,
            "time": 66.319378125,
            "velocity": 0.15748031496062992
          },
          {
            "duration": 0.16666650000000516,
            "durationTicks": 96,
            "midi": 43,
            "name": "G2",
            "ticks": 38364,
            "time": 66.6041000625,
            "velocity": 0.15748031496062992
          },
          {
            "duration": 0.16666650000000516,
            "durationTicks": 96,
            "midi": 43,
            "name": "G2",
            "ticks": 38528,
            "time": 66.88882199999999,
            "velocity": 0.14960629921259844
          },
          {
            "duration": 0.16666650000000516,
            "durationTicks": 96,
            "midi": 43,
            "name": "G2",
            "ticks": 38692,
            "time": 67.1735439375,
            "velocity": 0.14173228346456693
          },
          {
            "duration": 0.16666650000000516,
            "durationTicks": 96,
            "midi": 43,
            "name": "G2",
            "ticks": 38855,
            "time": 67.45652976562499,
            "velocity": 0.14960629921259844
          },
          {
            "duration": 0.16666649999999095,
            "durationTicks": 96,
            "midi": 43,
            "name": "G2",
            "ticks": 39024,
            "time": 67.74993225,
            "velocity": 0.15748031496062992
          },
          {
            "duration": 0.16666649999999095,
            "durationTicks": 96,
            "midi": 43,
            "name": "G2",
            "ticks": 39187,
            "time": 68.03291807812501,
            "velocity": 0.14173228346456693
          },
          {
            "duration": 0.16666649999999095,
            "durationTicks": 96,
            "midi": 43,
            "name": "G2",
            "ticks": 39351,
            "time": 68.317640015625,
            "velocity": 0.11811023622047244
          },
          {
            "duration": 0.16666649999999095,
            "durationTicks": 96,
            "midi": 43,
            "name": "G2",
            "ticks": 39515,
            "time": 68.602361953125,
            "velocity": 0.12598425196850394
          },
          {
            "duration": 0.16666649999999095,
            "durationTicks": 96,
            "midi": 43,
            "name": "G2",
            "ticks": 39679,
            "time": 68.88708389062501,
            "velocity": 0.15748031496062992
          },
          {
            "duration": 0.16666650000000516,
            "durationTicks": 96,
            "midi": 43,
            "name": "G2",
            "ticks": 39847,
            "time": 69.178750265625,
            "velocity": 0.15748031496062992
          },
          {
            "duration": 0.16666650000000516,
            "durationTicks": 96,
            "midi": 43,
            "name": "G2",
            "ticks": 40011,
            "time": 69.463472203125,
            "velocity": 0.14960629921259844
          },
          {
            "duration": 0.16666650000000516,
            "durationTicks": 96,
            "midi": 43,
            "name": "G2",
            "ticks": 40175,
            "time": 69.74819414062499,
            "velocity": 0.16535433070866143
          },
          {
            "duration": 0.16666650000000516,
            "durationTicks": 96,
            "midi": 43,
            "name": "G2",
            "ticks": 40338,
            "time": 70.03117996875,
            "velocity": 0.14960629921259844
          },
          {
            "duration": 0.16666650000000516,
            "durationTicks": 96,
            "midi": 43,
            "name": "G2",
            "ticks": 40502,
            "time": 70.31590190624999,
            "velocity": 0.14173228346456693
          },
          {
            "duration": 0.16666650000000516,
            "durationTicks": 96,
            "midi": 43,
            "name": "G2",
            "ticks": 40666,
            "time": 70.60062384375,
            "velocity": 0.15748031496062992
          },
          {
            "duration": 0.16666649999999095,
            "durationTicks": 96,
            "midi": 43,
            "name": "G2",
            "ticks": 40834,
            "time": 70.89229021875,
            "velocity": 0.15748031496062992
          },
          {
            "duration": 0.16666649999999095,
            "durationTicks": 96,
            "midi": 43,
            "name": "G2",
            "ticks": 40998,
            "time": 71.17701215625,
            "velocity": 0.14173228346456693
          },
          {
            "duration": 0.16666650000000516,
            "durationTicks": 96,
            "midi": 43,
            "name": "G2",
            "ticks": 41162,
            "time": 71.46173409375,
            "velocity": 0.14960629921259844
          },
          {
            "duration": 0.16666649999999095,
            "durationTicks": 96,
            "midi": 43,
            "name": "G2",
            "ticks": 41326,
            "time": 71.74645603125,
            "velocity": 0.16535433070866143
          },
          {
            "duration": 0.16666649999999095,
            "durationTicks": 96,
            "midi": 43,
            "name": "G2",
            "ticks": 41489,
            "time": 72.029441859375,
            "velocity": 0.1732283464566929
          },
          {
            "duration": 0.16666650000000516,
            "durationTicks": 96,
            "midi": 43,
            "name": "G2",
            "ticks": 41658,
            "time": 72.32284434374999,
            "velocity": 0.16535433070866143
          },
          {
            "duration": 0.16666649999999095,
            "durationTicks": 96,
            "midi": 43,
            "name": "G2",
            "ticks": 41822,
            "time": 72.60756628125,
            "velocity": 0.15748031496062992
          },
          {
            "duration": 0.16666650000000516,
            "durationTicks": 96,
            "midi": 43,
            "name": "G2",
            "ticks": 41985,
            "time": 72.890552109375,
            "velocity": 0.1732283464566929
          },
          {
            "duration": 0.16666650000000516,
            "durationTicks": 96,
            "midi": 36,
            "name": "C2",
            "ticks": 42149,
            "time": 73.17527404687499,
            "velocity": 0.14173228346456693
          },
          {
            "duration": 0.16666650000000516,
            "durationTicks": 96,
            "midi": 36,
            "name": "C2",
            "ticks": 42313,
            "time": 73.459995984375,
            "velocity": 0.15748031496062992
          },
          {
            "duration": 0.16666650000000516,
            "durationTicks": 96,
            "midi": 36,
            "name": "C2",
            "ticks": 42477,
            "time": 73.744717921875,
            "velocity": 0.14173228346456693
          },
          {
            "duration": 0.16666650000000516,
            "durationTicks": 96,
            "midi": 36,
            "name": "C2",
            "ticks": 42645,
            "time": 74.036384296875,
            "velocity": 0.15748031496062992
          },
          {
            "duration": 0.16666650000000516,
            "durationTicks": 96,
            "midi": 36,
            "name": "C2",
            "ticks": 42809,
            "time": 74.321106234375,
            "velocity": 0.14960629921259844
          },
          {
            "duration": 0.16666649999999095,
            "durationTicks": 96,
            "midi": 36,
            "name": "C2",
            "ticks": 42973,
            "time": 74.605828171875,
            "velocity": 0.15748031496062992
          },
          {
            "duration": 0.16666650000000516,
            "durationTicks": 96,
            "midi": 36,
            "name": "C2",
            "ticks": 43136,
            "time": 74.888814,
            "velocity": 0.14173228346456693
          },
          {
            "duration": 0.16666649999999095,
            "durationTicks": 96,
            "midi": 36,
            "name": "C2",
            "ticks": 43300,
            "time": 75.1735359375,
            "velocity": 0.14173228346456693
          },
          {
            "duration": 0.16666650000000516,
            "durationTicks": 96,
            "midi": 36,
            "name": "C2",
            "ticks": 43468,
            "time": 75.4652023125,
            "velocity": 0.15748031496062992
          },
          {
            "duration": 0.16666650000000516,
            "durationTicks": 96,
            "midi": 36,
            "name": "C2",
            "ticks": 43632,
            "time": 75.74992424999999,
            "velocity": 0.15748031496062992
          },
          {
            "duration": 0.16666649999999095,
            "durationTicks": 96,
            "midi": 36,
            "name": "C2",
            "ticks": 43796,
            "time": 76.0346461875,
            "velocity": 0.14960629921259844
          },
          {
            "duration": 0.16666650000000516,
            "durationTicks": 96,
            "midi": 36,
            "name": "C2",
            "ticks": 43960,
            "time": 76.319368125,
            "velocity": 0.14173228346456693
          },
          {
            "duration": 0.16666650000000516,
            "durationTicks": 96,
            "midi": 36,
            "name": "C2",
            "ticks": 44124,
            "time": 76.60409006249999,
            "velocity": 0.14960629921259844
          },
          {
            "duration": 0.16666650000000516,
            "durationTicks": 96,
            "midi": 36,
            "name": "C2",
            "ticks": 44287,
            "time": 76.887075890625,
            "velocity": 0.15748031496062992
          },
          {
            "duration": 0.16666650000000516,
            "durationTicks": 96,
            "midi": 36,
            "name": "C2",
            "ticks": 44456,
            "time": 77.18047837499999,
            "velocity": 0.14173228346456693
          },
          {
            "duration": 0.16666650000000516,
            "durationTicks": 96,
            "midi": 36,
            "name": "C2",
            "ticks": 44619,
            "time": 77.463464203125,
            "velocity": 0.11811023622047244
          },
          {
            "duration": 0.16666650000000516,
            "durationTicks": 96,
            "midi": 36,
            "name": "C2",
            "ticks": 44783,
            "time": 77.748186140625,
            "velocity": 0.12598425196850394
          },
          {
            "duration": 0.16666649999999095,
            "durationTicks": 96,
            "midi": 36,
            "name": "C2",
            "ticks": 44947,
            "time": 78.032908078125,
            "velocity": 0.15748031496062992
          },
          {
            "duration": 0.16666650000000516,
            "durationTicks": 96,
            "midi": 36,
            "name": "C2",
            "ticks": 45111,
            "time": 78.317630015625,
            "velocity": 0.15748031496062992
          },
          {
            "duration": 0.16666650000000516,
            "durationTicks": 96,
            "midi": 36,
            "name": "C2",
            "ticks": 45279,
            "time": 78.60929639062499,
            "velocity": 0.14960629921259844
          },
          {
            "duration": 0.16666649999999095,
            "durationTicks": 96,
            "midi": 36,
            "name": "C2",
            "ticks": 45443,
            "time": 78.894018328125,
            "velocity": 0.16535433070866143
          },
          {
            "duration": 0.16666650000000516,
            "durationTicks": 96,
            "midi": 36,
            "name": "C2",
            "ticks": 45607,
            "time": 79.178740265625,
            "velocity": 0.14960629921259844
          },
          {
            "duration": 0.16666650000000516,
            "durationTicks": 96,
            "midi": 36,
            "name": "C2",
            "ticks": 45770,
            "time": 79.46172609374999,
            "velocity": 0.14173228346456693
          },
          {
            "duration": 0.16666650000000516,
            "durationTicks": 96,
            "midi": 36,
            "name": "C2",
            "ticks": 45934,
            "time": 79.74644803125,
            "velocity": 0.15748031496062992
          },
          {
            "duration": 0.16666650000000516,
            "durationTicks": 96,
            "midi": 36,
            "name": "C2",
            "ticks": 46098,
            "time": 80.03116996874999,
            "velocity": 0.15748031496062992
          },
          {
            "duration": 0.16666650000000516,
            "durationTicks": 96,
            "midi": 36,
            "name": "C2",
            "ticks": 46266,
            "time": 80.32283634375,
            "velocity": 0.14173228346456693
          },
          {
            "duration": 0.16666650000000516,
            "durationTicks": 96,
            "midi": 36,
            "name": "C2",
            "ticks": 46430,
            "time": 80.60755828125,
            "velocity": 0.14960629921259844
          },
          {
            "duration": 0.16666650000000516,
            "durationTicks": 96,
            "midi": 36,
            "name": "C2",
            "ticks": 46594,
            "time": 80.89228021875,
            "velocity": 0.16535433070866143
          },
          {
            "duration": 0.16666650000000516,
            "durationTicks": 96,
            "midi": 36,
            "name": "C2",
            "ticks": 46758,
            "time": 81.17700215625,
            "velocity": 0.1732283464566929
          },
          {
            "duration": 0.16666649999999095,
            "durationTicks": 96,
            "midi": 36,
            "name": "C2",
            "ticks": 46921,
            "time": 81.459987984375,
            "velocity": 0.16535433070866143
          },
          {
            "duration": 0.16666649999999095,
            "durationTicks": 96,
            "midi": 36,
            "name": "C2",
            "ticks": 47090,
            "time": 81.75339046875,
            "velocity": 0.15748031496062992
          },
          {
            "duration": 0.16666650000000516,
            "durationTicks": 96,
            "midi": 36,
            "name": "C2",
            "ticks": 47253,
            "time": 82.03637629687499,
            "velocity": 0.1732283464566929
          },
          {
            "duration": 0.16666649999999095,
            "durationTicks": 96,
            "midi": 43,
            "name": "G2",
            "ticks": 47417,
            "time": 82.321098234375,
            "velocity": 0.14173228346456693
          },
          {
            "duration": 0.16666650000000516,
            "durationTicks": 96,
            "midi": 43,
            "name": "G2",
            "ticks": 47581,
            "time": 82.605820171875,
            "velocity": 0.15748031496062992
          },
          {
            "duration": 0.16666650000000516,
            "durationTicks": 96,
            "midi": 43,
            "name": "G2",
            "ticks": 47745,
            "time": 82.89054210937499,
            "velocity": 0.14173228346456693
          },
          {
            "duration": 0.16666649999999095,
            "durationTicks": 96,
            "midi": 43,
            "name": "G2",
            "ticks": 47909,
            "time": 83.175264046875,
            "velocity": 0.15748031496062992
          },
          {
            "duration": 0.16666650000000516,
            "durationTicks": 96,
            "midi": 43,
            "name": "G2",
            "ticks": 48077,
            "time": 83.46693042187499,
            "velocity": 0.14960629921259844
          },
          {
            "duration": 0.16666650000000516,
            "durationTicks": 96,
            "midi": 43,
            "name": "G2",
            "ticks": 48241,
            "time": 83.751652359375,
            "velocity": 0.15748031496062992
          },
          {
            "duration": 0.16666650000000516,
            "durationTicks": 96,
            "midi": 43,
            "name": "G2",
            "ticks": 48404,
            "time": 84.0346381875,
            "velocity": 0.14173228346456693
          },
          {
            "duration": 0.16666649999999095,
            "durationTicks": 96,
            "midi": 43,
            "name": "G2",
            "ticks": 48568,
            "time": 84.319360125,
            "velocity": 0.14173228346456693
          },
          {
            "duration": 0.16666650000000516,
            "durationTicks": 96,
            "midi": 43,
            "name": "G2",
            "ticks": 48732,
            "time": 84.6040820625,
            "velocity": 0.15748031496062992
          },
          {
            "duration": 0.16666649999999095,
            "durationTicks": 96,
            "midi": 43,
            "name": "G2",
            "ticks": 48900,
            "time": 84.8957484375,
            "velocity": 0.15748031496062992
          },
          {
            "duration": 0.16666650000000516,
            "durationTicks": 96,
            "midi": 43,
            "name": "G2",
            "ticks": 49064,
            "time": 85.180470375,
            "velocity": 0.14960629921259844
          },
          {
            "duration": 0.16666649999999095,
            "durationTicks": 96,
            "midi": 43,
            "name": "G2",
            "ticks": 49228,
            "time": 85.4651923125,
            "velocity": 0.14173228346456693
          },
          {
            "duration": 0.16666649999999095,
            "durationTicks": 96,
            "midi": 43,
            "name": "G2",
            "ticks": 49392,
            "time": 85.74991425,
            "velocity": 0.14960629921259844
          },
          {
            "duration": 0.16666649999999095,
            "durationTicks": 96,
            "midi": 43,
            "name": "G2",
            "ticks": 49555,
            "time": 86.032900078125,
            "velocity": 0.15748031496062992
          },
          {
            "duration": 0.16666650000000516,
            "durationTicks": 96,
            "midi": 43,
            "name": "G2",
            "ticks": 49719,
            "time": 86.31762201562499,
            "velocity": 0.14173228346456693
          },
          {
            "duration": 0.16666650000000516,
            "durationTicks": 96,
            "midi": 43,
            "name": "G2",
            "ticks": 49888,
            "time": 86.61102449999998,
            "velocity": 0.11811023622047244
          },
          {
            "duration": 0.16666649999999095,
            "durationTicks": 96,
            "midi": 43,
            "name": "G2",
            "ticks": 50051,
            "time": 86.894010328125,
            "velocity": 0.12598425196850394
          },
          {
            "duration": 0.16666650000000516,
            "durationTicks": 96,
            "midi": 43,
            "name": "G2",
            "ticks": 50215,
            "time": 87.17873226562499,
            "velocity": 0.15748031496062992
          },
          {
            "duration": 0.16666650000000516,
            "durationTicks": 96,
            "midi": 43,
            "name": "G2",
            "ticks": 50379,
            "time": 87.463454203125,
            "velocity": 0.15748031496062992
          },
          {
            "duration": 0.16666649999999095,
            "durationTicks": 96,
            "midi": 43,
            "name": "G2",
            "ticks": 50543,
            "time": 87.748176140625,
            "velocity": 0.14960629921259844
          },
          {
            "duration": 0.16666650000000516,
            "durationTicks": 96,
            "midi": 43,
            "name": "G2",
            "ticks": 50711,
            "time": 88.039842515625,
            "velocity": 0.16535433070866143
          },
          {
            "duration": 0.16666650000000516,
            "durationTicks": 96,
            "midi": 43,
            "name": "G2",
            "ticks": 50875,
            "time": 88.32456445312499,
            "velocity": 0.14960629921259844
          },
          {
            "duration": 0.16666649999999095,
            "durationTicks": 96,
            "midi": 43,
            "name": "G2",
            "ticks": 51039,
            "time": 88.609286390625,
            "velocity": 0.14173228346456693
          },
          {
            "duration": 0.16666649999999095,
            "durationTicks": 96,
            "midi": 43,
            "name": "G2",
            "ticks": 51202,
            "time": 88.89227221875,
            "velocity": 0.15748031496062992
          },
          {
            "duration": 0.16666649999999095,
            "durationTicks": 96,
            "midi": 43,
            "name": "G2",
            "ticks": 51366,
            "time": 89.17699415625,
            "velocity": 0.15748031496062992
          },
          {
            "duration": 0.16666650000000516,
            "durationTicks": 96,
            "midi": 43,
            "name": "G2",
            "ticks": 51530,
            "time": 89.46171609375,
            "velocity": 0.14173228346456693
          },
          {
            "duration": 0.16666650000000516,
            "durationTicks": 96,
            "midi": 43,
            "name": "G2",
            "ticks": 51698,
            "time": 89.75338246875,
            "velocity": 0.14960629921259844
          },
          {
            "duration": 0.16666650000000516,
            "durationTicks": 96,
            "midi": 43,
            "name": "G2",
            "ticks": 51862,
            "time": 90.03810440624999,
            "velocity": 0.16535433070866143
          },
          {
            "duration": 0.16666650000000516,
            "durationTicks": 96,
            "midi": 43,
            "name": "G2",
            "ticks": 52026,
            "time": 90.32282634375,
            "velocity": 0.1732283464566929
          },
          {
            "duration": 0.16666650000000516,
            "durationTicks": 96,
            "midi": 43,
            "name": "G2",
            "ticks": 52190,
            "time": 90.60754828125,
            "velocity": 0.16535433070866143
          },
          {
            "duration": 0.16666650000000516,
            "durationTicks": 96,
            "midi": 43,
            "name": "G2",
            "ticks": 52353,
            "time": 90.890534109375,
            "velocity": 0.15748031496062992
          },
          {
            "duration": 0.16666650000000516,
            "durationTicks": 96,
            "midi": 43,
            "name": "G2",
            "ticks": 52522,
            "time": 91.18393659374999,
            "velocity": 0.1732283464566929
          },
          {
            "duration": 0.16666650000000516,
            "durationTicks": 96,
            "midi": 40,
            "name": "E2",
            "ticks": 52685,
            "time": 91.466922421875,
            "velocity": 0.1889763779527559
          },
          {
            "duration": 0.16666650000000516,
            "durationTicks": 96,
            "midi": 40,
            "name": "E2",
            "ticks": 52849,
            "time": 91.75164435937499,
            "velocity": 0.16535433070866143
          },
          {
            "duration": 0.16666649999999095,
            "durationTicks": 96,
            "midi": 40,
            "name": "E2",
            "ticks": 53013,
            "time": 92.036366296875,
            "velocity": 0.14960629921259844
          },
          {
            "duration": 0.16666650000000516,
            "durationTicks": 96,
            "midi": 40,
            "name": "E2",
            "ticks": 53177,
            "time": 92.321088234375,
            "velocity": 0.1732283464566929
          },
          {
            "duration": 0.16666650000000516,
            "durationTicks": 96,
            "midi": 40,
            "name": "E2",
            "ticks": 53341,
            "time": 92.60581017187499,
            "velocity": 0.1968503937007874
          },
          {
            "duration": 0.16666649999999095,
            "durationTicks": 96,
            "midi": 40,
            "name": "E2",
            "ticks": 53509,
            "time": 92.897476546875,
            "velocity": 0.1732283464566929
          },
          {
            "duration": 0.16666650000000516,
            "durationTicks": 96,
            "midi": 40,
            "name": "E2",
            "ticks": 53673,
            "time": 93.182198484375,
            "velocity": 0.1732283464566929
          },
          {
            "duration": 0.16666650000000516,
            "durationTicks": 96,
            "midi": 40,
            "name": "E2",
            "ticks": 53836,
            "time": 93.46518431249999,
            "velocity": 0.16535433070866143
          },
          {
            "duration": 0.16666650000000516,
            "durationTicks": 96,
            "midi": 38,
            "name": "D2",
            "ticks": 54000,
            "time": 93.74990625,
            "velocity": 0.12598425196850394
          },
          {
            "duration": 0.16666650000000516,
            "durationTicks": 96,
            "midi": 38,
            "name": "D2",
            "ticks": 54164,
            "time": 94.0346281875,
            "velocity": 0.15748031496062992
          },
          {
            "duration": 0.16666649999999095,
            "durationTicks": 96,
            "midi": 38,
            "name": "D2",
            "ticks": 54332,
            "time": 94.32629456250001,
            "velocity": 0.1732283464566929
          },
          {
            "duration": 0.16666650000000516,
            "durationTicks": 96,
            "midi": 38,
            "name": "D2",
            "ticks": 54496,
            "time": 94.61101649999999,
            "velocity": 0.14173228346456693
          },
          {
            "duration": 0.16666649999999095,
            "durationTicks": 96,
            "midi": 36,
            "name": "C2",
            "ticks": 54660,
            "time": 94.8957384375,
            "velocity": 0.16535433070866143
          },
          {
            "duration": 0.16666649999999095,
            "durationTicks": 96,
            "midi": 36,
            "name": "C2",
            "ticks": 54824,
            "time": 95.18046037500001,
            "velocity": 0.16535433070866143
          },
          {
            "duration": 0.16666649999999095,
            "durationTicks": 96,
            "midi": 36,
            "name": "C2",
            "ticks": 54987,
            "time": 95.463446203125,
            "velocity": 0.14173228346456693
          },
          {
            "duration": 0.16666650000000516,
            "durationTicks": 96,
            "midi": 36,
            "name": "C2",
            "ticks": 55151,
            "time": 95.748168140625,
            "velocity": 0.14960629921259844
          },
          {
            "duration": 0.16666650000000516,
            "durationTicks": 96,
            "midi": 43,
            "name": "G2",
            "ticks": 55319,
            "time": 96.039834515625,
            "velocity": 0.13385826771653545
          },
          {
            "duration": 0.16666650000000516,
            "durationTicks": 96,
            "midi": 43,
            "name": "G2",
            "ticks": 55483,
            "time": 96.32455645312498,
            "velocity": 0.14173228346456693
          },
          {
            "duration": 0.16666650000000516,
            "durationTicks": 96,
            "midi": 43,
            "name": "G2",
            "ticks": 55647,
            "time": 96.609278390625,
            "velocity": 0.14173228346456693
          },
          {
            "duration": 0.16666650000000516,
            "durationTicks": 96,
            "midi": 43,
            "name": "G2",
            "ticks": 55811,
            "time": 96.894000328125,
            "velocity": 0.14173228346456693
          },
          {
            "duration": 0.16666650000000516,
            "durationTicks": 96,
            "midi": 43,
            "name": "G2",
            "ticks": 55975,
            "time": 97.17872226562498,
            "velocity": 0.12598425196850394
          },
          {
            "duration": 0.16666650000000516,
            "durationTicks": 96,
            "midi": 43,
            "name": "G2",
            "ticks": 56143,
            "time": 97.47038864062499,
            "velocity": 0.12598425196850394
          },
          {
            "duration": 0.16666650000000516,
            "durationTicks": 96,
            "midi": 43,
            "name": "G2",
            "ticks": 56307,
            "time": 97.755110578125,
            "velocity": 0.14960629921259844
          },
          {
            "duration": 0.16666650000000516,
            "durationTicks": 96,
            "midi": 43,
            "name": "G2",
            "ticks": 56470,
            "time": 98.03809640624999,
            "velocity": 0.14173228346456693
          },
          {
            "duration": 0.16666649999999095,
            "durationTicks": 96,
            "midi": 43,
            "name": "G2",
            "ticks": 56634,
            "time": 98.32281834375,
            "velocity": 0.14173228346456693
          },
          {
            "duration": 0.16666649999999095,
            "durationTicks": 96,
            "midi": 43,
            "name": "G2",
            "ticks": 56798,
            "time": 98.60754028125001,
            "velocity": 0.16535433070866143
          },
          {
            "duration": 0.16666650000000516,
            "durationTicks": 96,
            "midi": 43,
            "name": "G2",
            "ticks": 56962,
            "time": 98.89226221874999,
            "velocity": 0.14960629921259844
          },
          {
            "duration": 0.16666649999999095,
            "durationTicks": 96,
            "midi": 43,
            "name": "G2",
            "ticks": 57130,
            "time": 99.18392859375,
            "velocity": 0.1732283464566929
          },
          {
            "duration": 0.16666650000000516,
            "durationTicks": 96,
            "midi": 31,
            "name": "G1",
            "ticks": 57294,
            "time": 99.46865053124999,
            "velocity": 0.1732283464566929
          }
        ],
        "endOfTrackTicks": 57390
      },
      {
        "channel": 9,
        "controlChanges": {},
        "pitchBends": [],
        "instrument": {
          "family": "drums",
          "number": 0,
          "name": "standard kit"
        },
        "name": "Electric Drum Kit",
        "notes": [
          {
            "duration": 0.1666665,
            "durationTicks": 96,
            "midi": 39,
            "name": "D#2",
            "ticks": 0,
            "time": 0,
            "velocity": 0.2204724409448819
          },
          {
            "duration": 0.1666665,
            "durationTicks": 96,
            "midi": 43,
            "name": "G2",
            "ticks": 0,
            "time": 0,
            "velocity": 0.2047244094488189
          },
          {
            "duration": 0.1666665,
            "durationTicks": 96,
            "midi": 44,
            "name": "G#2",
            "ticks": 0,
            "time": 0,
            "velocity": 0.2125984251968504
          },
          {
            "duration": 0.16666649999999983,
            "durationTicks": 96,
            "midi": 44,
            "name": "G#2",
            "ticks": 1316,
            "time": 2.2847199375000002,
            "velocity": 0.2204724409448819
          },
          {
            "duration": 0.16666649999999983,
            "durationTicks": 96,
            "midi": 39,
            "name": "D#2",
            "ticks": 1316,
            "time": 2.2847199375000002,
            "velocity": 0.2204724409448819
          },
          {
            "duration": 0.16666649999999983,
            "durationTicks": 96,
            "midi": 43,
            "name": "G2",
            "ticks": 1316,
            "time": 2.2847199375000002,
            "velocity": 0.2204724409448819
          },
          {
            "duration": 0.16666649999999983,
            "durationTicks": 96,
            "midi": 44,
            "name": "G#2",
            "ticks": 2632,
            "time": 4.5694398750000005,
            "velocity": 0.2204724409448819
          },
          {
            "duration": 0.16666649999999983,
            "durationTicks": 96,
            "midi": 43,
            "name": "G2",
            "ticks": 2632,
            "time": 4.5694398750000005,
            "velocity": 0.2204724409448819
          },
          {
            "duration": 0.16666649999999983,
            "durationTicks": 96,
            "midi": 39,
            "name": "D#2",
            "ticks": 2632,
            "time": 4.5694398750000005,
            "velocity": 0.2204724409448819
          },
          {
            "duration": 0.16666649999999983,
            "durationTicks": 96,
            "midi": 39,
            "name": "D#2",
            "ticks": 3952,
            "time": 6.8611042499999995,
            "velocity": 0.2125984251968504
          },
          {
            "duration": 0.16666649999999983,
            "durationTicks": 96,
            "midi": 44,
            "name": "G#2",
            "ticks": 3952,
            "time": 6.8611042499999995,
            "velocity": 0.2204724409448819
          },
          {
            "duration": 0.16666649999999983,
            "durationTicks": 96,
            "midi": 43,
            "name": "G2",
            "ticks": 3952,
            "time": 6.8611042499999995,
            "velocity": 0.2125984251968504
          },
          {
            "duration": 0.16666649999999983,
            "durationTicks": 96,
            "midi": 43,
            "name": "G2",
            "ticks": 5268,
            "time": 9.1458241875,
            "velocity": 0.2204724409448819
          },
          {
            "duration": 0.16666649999999983,
            "durationTicks": 96,
            "midi": 60,
            "name": "C4",
            "ticks": 5268,
            "time": 9.1458241875,
            "velocity": 0.10236220472440945
          },
          {
            "duration": 0.16666649999999983,
            "durationTicks": 96,
            "midi": 44,
            "name": "G#2",
            "ticks": 5268,
            "time": 9.1458241875,
            "velocity": 0.2204724409448819
          },
          {
            "duration": 0.16666649999999983,
            "durationTicks": 96,
            "midi": 52,
            "name": "E3",
            "ticks": 5268,
            "time": 9.1458241875,
            "velocity": 0.12598425196850394
          },
          {
            "duration": 0.16666649999999983,
            "durationTicks": 96,
            "midi": 39,
            "name": "D#2",
            "ticks": 5268,
            "time": 9.1458241875,
            "velocity": 0.2204724409448819
          },
          {
            "duration": 0.16666649999999983,
            "durationTicks": 96,
            "midi": 60,
            "name": "C4",
            "ticks": 5393,
            "time": 9.362837859375,
            "velocity": 0.03937007874015748
          },
          {
            "duration": 0.16666649999999983,
            "durationTicks": 96,
            "midi": 52,
            "name": "E3",
            "ticks": 5393,
            "time": 9.362837859375,
            "velocity": 0.03937007874015748
          },
          {
            "duration": 0.16666649999999983,
            "durationTicks": 96,
            "midi": 60,
            "name": "C4",
            "ticks": 6588,
            "time": 11.4374885625,
            "velocity": 0.11023622047244094
          },
          {
            "duration": 0.16666649999999983,
            "durationTicks": 96,
            "midi": 39,
            "name": "D#2",
            "ticks": 6588,
            "time": 11.4374885625,
            "velocity": 0.2204724409448819
          },
          {
            "duration": 0.16666649999999983,
            "durationTicks": 96,
            "midi": 52,
            "name": "E3",
            "ticks": 6588,
            "time": 11.4374885625,
            "velocity": 0.11811023622047244
          },
          {
            "duration": 0.16666649999999983,
            "durationTicks": 96,
            "midi": 43,
            "name": "G2",
            "ticks": 6588,
            "time": 11.4374885625,
            "velocity": 0.2204724409448819
          },
          {
            "duration": 0.16666649999999983,
            "durationTicks": 96,
            "midi": 44,
            "name": "G#2",
            "ticks": 6588,
            "time": 11.4374885625,
            "velocity": 0.2204724409448819
          },
          {
            "duration": 0.16666649999999983,
            "durationTicks": 96,
            "midi": 52,
            "name": "E3",
            "ticks": 6709,
            "time": 11.647557796875,
            "velocity": 0.03937007874015748
          },
          {
            "duration": 0.16666649999999983,
            "durationTicks": 96,
            "midi": 60,
            "name": "C4",
            "ticks": 6709,
            "time": 11.647557796875,
            "velocity": 0.03937007874015748
          },
          {
            "duration": 0.16666649999999983,
            "durationTicks": 96,
            "midi": 52,
            "name": "E3",
            "ticks": 7904,
            "time": 13.722208499999999,
            "velocity": 0.12598425196850394
          },
          {
            "duration": 0.16666649999999983,
            "durationTicks": 96,
            "midi": 60,
            "name": "C4",
            "ticks": 7904,
            "time": 13.722208499999999,
            "velocity": 0.09448818897637795
          },
          {
            "duration": 0.16666649999999983,
            "durationTicks": 96,
            "midi": 39,
            "name": "D#2",
            "ticks": 7904,
            "time": 13.722208499999999,
            "velocity": 0.2125984251968504
          },
          {
            "duration": 0.16666649999999983,
            "durationTicks": 96,
            "midi": 43,
            "name": "G2",
            "ticks": 7904,
            "time": 13.722208499999999,
            "velocity": 0.2125984251968504
          },
          {
            "duration": 0.16666649999999983,
            "durationTicks": 96,
            "midi": 44,
            "name": "G#2",
            "ticks": 7904,
            "time": 13.722208499999999,
            "velocity": 0.2204724409448819
          },
          {
            "duration": 0.16666649999999983,
            "durationTicks": 96,
            "midi": 52,
            "name": "E3",
            "ticks": 8029,
            "time": 13.939222171875,
            "velocity": 0.03937007874015748
          },
          {
            "duration": 0.16666649999999983,
            "durationTicks": 96,
            "midi": 60,
            "name": "C4",
            "ticks": 8029,
            "time": 13.939222171875,
            "velocity": 0.03937007874015748
          },
          {
            "duration": 0.1666665000000016,
            "durationTicks": 96,
            "midi": 44,
            "name": "G#2",
            "ticks": 9224,
            "time": 16.013872874999997,
            "velocity": 0.2204724409448819
          },
          {
            "duration": 0.1666665000000016,
            "durationTicks": 96,
            "midi": 39,
            "name": "D#2",
            "ticks": 9224,
            "time": 16.013872874999997,
            "velocity": 0.2204724409448819
          },
          {
            "duration": 0.1666665000000016,
            "durationTicks": 96,
            "midi": 52,
            "name": "E3",
            "ticks": 9224,
            "time": 16.013872874999997,
            "velocity": 0.12598425196850394
          },
          {
            "duration": 0.1666665000000016,
            "durationTicks": 96,
            "midi": 43,
            "name": "G2",
            "ticks": 9224,
            "time": 16.013872874999997,
            "velocity": 0.2204724409448819
          },
          {
            "duration": 0.1666665000000016,
            "durationTicks": 96,
            "midi": 60,
            "name": "C4",
            "ticks": 9224,
            "time": 16.013872874999997,
            "velocity": 0.11811023622047244
          },
          {
            "duration": 0.1666665000000016,
            "durationTicks": 96,
            "midi": 52,
            "name": "E3",
            "ticks": 9345,
            "time": 16.223942109375,
            "velocity": 0.03937007874015748
          },
          {
            "duration": 0.1666665000000016,
            "durationTicks": 96,
            "midi": 60,
            "name": "C4",
            "ticks": 9345,
            "time": 16.223942109375,
            "velocity": 0.03937007874015748
          },
          {
            "duration": 0.1666665000000016,
            "durationTicks": 96,
            "midi": 39,
            "name": "D#2",
            "ticks": 9880,
            "time": 17.152760625,
            "velocity": 0.16535433070866143
          },
          {
            "duration": 0.1666665000000016,
            "durationTicks": 96,
            "midi": 44,
            "name": "G#2",
            "ticks": 9880,
            "time": 17.152760625,
            "velocity": 0.15748031496062992
          },
          {
            "duration": 0.1666665000000016,
            "durationTicks": 96,
            "midi": 43,
            "name": "G2",
            "ticks": 9880,
            "time": 17.152760625,
            "velocity": 0.15748031496062992
          },
          {
            "duration": 0.16666649999999805,
            "durationTicks": 96,
            "midi": 44,
            "name": "G#2",
            "ticks": 9966,
            "time": 17.30206603125,
            "velocity": 0.16535433070866143
          },
          {
            "duration": 0.16666649999999805,
            "durationTicks": 96,
            "midi": 43,
            "name": "G2",
            "ticks": 9966,
            "time": 17.30206603125,
            "velocity": 0.14173228346456693
          },
          {
            "duration": 0.16666649999999805,
            "durationTicks": 96,
            "midi": 39,
            "name": "D#2",
            "ticks": 9966,
            "time": 17.30206603125,
            "velocity": 0.14960629921259844
          },
          {
            "duration": 0.16493039062499903,
            "durationTicks": 95,
            "midi": 43,
            "name": "G2",
            "ticks": 10048,
            "time": 17.444427,
            "velocity": 0.15748031496062992
          },
          {
            "duration": 0.16493039062499903,
            "durationTicks": 95,
            "midi": 44,
            "name": "G#2",
            "ticks": 10048,
            "time": 17.444427,
            "velocity": 0.15748031496062992
          },
          {
            "duration": 0.16493039062499903,
            "durationTicks": 95,
            "midi": 39,
            "name": "D#2",
            "ticks": 10048,
            "time": 17.444427,
            "velocity": 0.15748031496062992
          },
          {
            "duration": 0.1649303906250026,
            "durationTicks": 95,
            "midi": 43,
            "name": "G2",
            "ticks": 10130,
            "time": 17.58678796875,
            "velocity": 0.12598425196850394
          },
          {
            "duration": 0.1649303906250026,
            "durationTicks": 95,
            "midi": 44,
            "name": "G#2",
            "ticks": 10130,
            "time": 17.58678796875,
            "velocity": 0.15748031496062992
          },
          {
            "duration": 0.1649303906250026,
            "durationTicks": 95,
            "midi": 39,
            "name": "D#2",
            "ticks": 10130,
            "time": 17.58678796875,
            "velocity": 0.15748031496062992
          },
          {
            "duration": 0.1649303906250026,
            "durationTicks": 95,
            "midi": 44,
            "name": "G#2",
            "ticks": 10211,
            "time": 17.727412828124997,
            "velocity": 0.15748031496062992
          },
          {
            "duration": 0.1649303906250026,
            "durationTicks": 95,
            "midi": 39,
            "name": "D#2",
            "ticks": 10211,
            "time": 17.727412828124997,
            "velocity": 0.16535433070866143
          },
          {
            "duration": 0.1649303906250026,
            "durationTicks": 95,
            "midi": 43,
            "name": "G2",
            "ticks": 10211,
            "time": 17.727412828124997,
            "velocity": 0.15748031496062992
          },
          {
            "duration": 0.16493039062499903,
            "durationTicks": 95,
            "midi": 39,
            "name": "D#2",
            "ticks": 10293,
            "time": 17.869773796875,
            "velocity": 0.16535433070866143
          },
          {
            "duration": 0.16493039062499903,
            "durationTicks": 95,
            "midi": 43,
            "name": "G2",
            "ticks": 10293,
            "time": 17.869773796875,
            "velocity": 0.14173228346456693
          },
          {
            "duration": 0.16493039062499903,
            "durationTicks": 95,
            "midi": 44,
            "name": "G#2",
            "ticks": 10293,
            "time": 17.869773796875,
            "velocity": 0.14960629921259844
          },
          {
            "duration": 0.16493039062499903,
            "durationTicks": 95,
            "midi": 39,
            "name": "D#2",
            "ticks": 10374,
            "time": 18.01039865625,
            "velocity": 0.15748031496062992
          },
          {
            "duration": 0.16493039062499903,
            "durationTicks": 95,
            "midi": 43,
            "name": "G2",
            "ticks": 10374,
            "time": 18.01039865625,
            "velocity": 0.15748031496062992
          },
          {
            "duration": 0.16493039062499903,
            "durationTicks": 95,
            "midi": 44,
            "name": "G#2",
            "ticks": 10374,
            "time": 18.01039865625,
            "velocity": 0.16535433070866143
          },
          {
            "duration": 0.1666665000000016,
            "durationTicks": 96,
            "midi": 44,
            "name": "G#2",
            "ticks": 10455,
            "time": 18.151023515625,
            "velocity": 0.16535433070866143
          },
          {
            "duration": 0.1666665000000016,
            "durationTicks": 96,
            "midi": 39,
            "name": "D#2",
            "ticks": 10455,
            "time": 18.151023515625,
            "velocity": 0.16535433070866143
          },
          {
            "duration": 0.1666665000000016,
            "durationTicks": 96,
            "midi": 43,
            "name": "G2",
            "ticks": 10455,
            "time": 18.151023515625,
            "velocity": 0.15748031496062992
          },
          {
            "duration": 0.16840260937499707,
            "durationTicks": 97,
            "midi": 39,
            "name": "D#2",
            "ticks": 10537,
            "time": 18.293384484375,
            "velocity": 0.2047244094488189
          },
          {
            "duration": 0.16840260937500062,
            "durationTicks": 97,
            "midi": 49,
            "name": "C#3",
            "ticks": 10541,
            "time": 18.300328921875,
            "velocity": 0.12598425196850394
          },
          {
            "duration": 0.16666649999999805,
            "durationTicks": 96,
            "midi": 43,
            "name": "G2",
            "ticks": 10702,
            "time": 18.57984253125,
            "velocity": 0.2047244094488189
          },
          {
            "duration": 0.1666665000000016,
            "durationTicks": 96,
            "midi": 49,
            "name": "C#3",
            "ticks": 10711,
            "time": 18.595467515625,
            "velocity": 0.14960629921259844
          },
          {
            "duration": 0.1666665000000016,
            "durationTicks": 96,
            "midi": 39,
            "name": "D#2",
            "ticks": 10870,
            "time": 18.87150890625,
            "velocity": 0.2047244094488189
          },
          {
            "duration": 0.16666649999999805,
            "durationTicks": 96,
            "midi": 49,
            "name": "C#3",
            "ticks": 10879,
            "time": 18.887133890625,
            "velocity": 0.14173228346456693
          },
          {
            "duration": 0.16840260937500062,
            "durationTicks": 97,
            "midi": 39,
            "name": "D#2",
            "ticks": 10952,
            "time": 19.013869874999997,
            "velocity": 0.2047244094488189
          },
          {
            "duration": 0.16840260937499707,
            "durationTicks": 97,
            "midi": 43,
            "name": "G2",
            "ticks": 11035,
            "time": 19.157966953125,
            "velocity": 0.2204724409448819
          },
          {
            "duration": 0.16840260937500062,
            "durationTicks": 97,
            "midi": 49,
            "name": "C#3",
            "ticks": 11044,
            "time": 19.1735919375,
            "velocity": 0.14173228346456693
          },
          {
            "duration": 0.1666665000000016,
            "durationTicks": 96,
            "midi": 39,
            "name": "D#2",
            "ticks": 11200,
            "time": 19.444425,
            "velocity": 0.2204724409448819
          },
          {
            "duration": 0.16666649999999805,
            "durationTicks": 96,
            "midi": 49,
            "name": "C#3",
            "ticks": 11205,
            "time": 19.453105546875,
            "velocity": 0.13385826771653545
          },
          {
            "duration": 0.1666665000000016,
            "durationTicks": 96,
            "midi": 43,
            "name": "G2",
            "ticks": 11364,
            "time": 19.729146937499998,
            "velocity": 0.2047244094488189
          },
          {
            "duration": 0.1666665000000016,
            "durationTicks": 96,
            "midi": 49,
            "name": "C#3",
            "ticks": 11377,
            "time": 19.751716359375,
            "velocity": 0.12598425196850394
          },
          {
            "duration": 0.16666649999999805,
            "durationTicks": 96,
            "midi": 39,
            "name": "D#2",
            "ticks": 11528,
            "time": 20.013868875,
            "velocity": 0.2047244094488189
          },
          {
            "duration": 0.1666665000000016,
            "durationTicks": 96,
            "midi": 49,
            "name": "C#3",
            "ticks": 11537,
            "time": 20.029493859375,
            "velocity": 0.13385826771653545
          },
          {
            "duration": 0.16840260937500062,
            "durationTicks": 97,
            "midi": 39,
            "name": "D#2",
            "ticks": 11610,
            "time": 20.15622984375,
            "velocity": 0.2125984251968504
          },
          {
            "duration": 0.16840260937500062,
            "durationTicks": 97,
            "midi": 43,
            "name": "G2",
            "ticks": 11693,
            "time": 20.300326921874998,
            "velocity": 0.2125984251968504
          },
          {
            "duration": 0.16840260937500062,
            "durationTicks": 97,
            "midi": 49,
            "name": "C#3",
            "ticks": 11702,
            "time": 20.31595190625,
            "velocity": 0.13385826771653545
          },
          {
            "duration": 0.1666665000000016,
            "durationTicks": 96,
            "midi": 39,
            "name": "D#2",
            "ticks": 11862,
            "time": 20.59372940625,
            "velocity": 0.2125984251968504
          },
          {
            "duration": 0.1666665000000016,
            "durationTicks": 96,
            "midi": 49,
            "name": "C#3",
            "ticks": 11867,
            "time": 20.602409953124997,
            "velocity": 0.11811023622047244
          },
          {
            "duration": 0.1666665000000016,
            "durationTicks": 96,
            "midi": 43,
            "name": "G2",
            "ticks": 12026,
            "time": 20.878451343749997,
            "velocity": 0.2125984251968504
          },
          {
            "duration": 0.16666649999999805,
            "durationTicks": 96,
            "midi": 49,
            "name": "C#3",
            "ticks": 12035,
            "time": 20.894076328125,
            "velocity": 0.12598425196850394
          },
          {
            "duration": 0.1649303906250026,
            "durationTicks": 95,
            "midi": 39,
            "name": "D#2",
            "ticks": 12191,
            "time": 21.164909390625,
            "velocity": 0.2047244094488189
          },
          {
            "duration": 0.16493039062499903,
            "durationTicks": 95,
            "midi": 49,
            "name": "C#3",
            "ticks": 12208,
            "time": 21.19442325,
            "velocity": 0.11023622047244094
          },
          {
            "duration": 0.16493039062499903,
            "durationTicks": 95,
            "midi": 39,
            "name": "D#2",
            "ticks": 12272,
            "time": 21.305534249999997,
            "velocity": 0.2047244094488189
          },
          {
            "duration": 0.1666665000000016,
            "durationTicks": 96,
            "midi": 43,
            "name": "G2",
            "ticks": 12353,
            "time": 21.446159109375,
            "velocity": 0.2125984251968504
          },
          {
            "duration": 0.16666649999999805,
            "durationTicks": 96,
            "midi": 49,
            "name": "C#3",
            "ticks": 12366,
            "time": 21.46872853125,
            "velocity": 0.13385826771653545
          },
          {
            "duration": 0.16666649999999805,
            "durationTicks": 96,
            "midi": 39,
            "name": "D#2",
            "ticks": 12517,
            "time": 21.730881046874998,
            "velocity": 0.2204724409448819
          },
          {
            "duration": 0.16666649999999805,
            "durationTicks": 96,
            "midi": 49,
            "name": "C#3",
            "ticks": 12517,
            "time": 21.730881046874998,
            "velocity": 0.13385826771653545
          },
          {
            "duration": 0.1666665000000016,
            "durationTicks": 96,
            "midi": 43,
            "name": "G2",
            "ticks": 12685,
            "time": 22.022547421874997,
            "velocity": 0.2047244094488189
          },
          {
            "duration": 0.1666665000000016,
            "durationTicks": 96,
            "midi": 49,
            "name": "C#3",
            "ticks": 12685,
            "time": 22.022547421874997,
            "velocity": 0.11811023622047244
          },
          {
            "duration": 0.16840260937500062,
            "durationTicks": 97,
            "midi": 49,
            "name": "C#3",
            "ticks": 12845,
            "time": 22.300324921875,
            "velocity": 0.12598425196850394
          },
          {
            "duration": 0.16840260937500062,
            "durationTicks": 97,
            "midi": 39,
            "name": "D#2",
            "ticks": 12849,
            "time": 22.307269359375,
            "velocity": 0.2125984251968504
          },
          {
            "duration": 0.16840260937499707,
            "durationTicks": 97,
            "midi": 39,
            "name": "D#2",
            "ticks": 12932,
            "time": 22.451366437500003,
            "velocity": 0.2125984251968504
          },
          {
            "duration": 0.16840260937499707,
            "durationTicks": 97,
            "midi": 43,
            "name": "G2",
            "ticks": 13014,
            "time": 22.59372740625,
            "velocity": 0.2125984251968504
          },
          {
            "duration": 0.16840260937499707,
            "durationTicks": 97,
            "midi": 49,
            "name": "C#3",
            "ticks": 13019,
            "time": 22.602407953125002,
            "velocity": 0.12598425196850394
          },
          {
            "duration": 0.16666649999999805,
            "durationTicks": 96,
            "midi": 49,
            "name": "C#3",
            "ticks": 13175,
            "time": 22.873241015625002,
            "velocity": 0.13385826771653545
          },
          {
            "duration": 0.1666665000000016,
            "durationTicks": 96,
            "midi": 39,
            "name": "D#2",
            "ticks": 13180,
            "time": 22.881921562499997,
            "velocity": 0.2125984251968504
          },
          {
            "duration": 0.1666665000000016,
            "durationTicks": 96,
            "midi": 43,
            "name": "G2",
            "ticks": 13344,
            "time": 23.1666435,
            "velocity": 0.2125984251968504
          },
          {
            "duration": 0.1666665000000016,
            "durationTicks": 96,
            "midi": 49,
            "name": "C#3",
            "ticks": 13344,
            "time": 23.1666435,
            "velocity": 0.11811023622047244
          },
          {
            "duration": 0.16666649999999805,
            "durationTicks": 96,
            "midi": 39,
            "name": "D#2",
            "ticks": 13507,
            "time": 23.449629328125,
            "velocity": 0.2125984251968504
          },
          {
            "duration": 0.16666649999999805,
            "durationTicks": 96,
            "midi": 49,
            "name": "C#3",
            "ticks": 13507,
            "time": 23.449629328125,
            "velocity": 0.14173228346456693
          },
          {
            "duration": 0.16666649999999805,
            "durationTicks": 96,
            "midi": 39,
            "name": "D#2",
            "ticks": 13593,
            "time": 23.598934734375,
            "velocity": 0.2047244094488189
          },
          {
            "duration": 0.1666665000000016,
            "durationTicks": 96,
            "midi": 49,
            "name": "C#3",
            "ticks": 13671,
            "time": 23.734351265624998,
            "velocity": 0.12598425196850394
          },
          {
            "duration": 0.1666665000000016,
            "durationTicks": 96,
            "midi": 43,
            "name": "G2",
            "ticks": 13676,
            "time": 23.7430318125,
            "velocity": 0.2204724409448819
          },
          {
            "duration": 0.16666649999999805,
            "durationTicks": 96,
            "midi": 39,
            "name": "D#2",
            "ticks": 13839,
            "time": 24.026017640625,
            "velocity": 0.2125984251968504
          },
          {
            "duration": 0.16666649999999805,
            "durationTicks": 96,
            "midi": 49,
            "name": "C#3",
            "ticks": 13844,
            "time": 24.034698187500002,
            "velocity": 0.11023622047244094
          },
          {
            "duration": 0.16666649999999805,
            "durationTicks": 96,
            "midi": 43,
            "name": "G2",
            "ticks": 14003,
            "time": 24.310739578125002,
            "velocity": 0.2125984251968504
          },
          {
            "duration": 0.1666665000000016,
            "durationTicks": 96,
            "midi": 49,
            "name": "C#3",
            "ticks": 14008,
            "time": 24.319420124999997,
            "velocity": 0.13385826771653545
          },
          {
            "duration": 0.1666665000000016,
            "durationTicks": 96,
            "midi": 39,
            "name": "D#2",
            "ticks": 14167,
            "time": 24.595461515624997,
            "velocity": 0.2125984251968504
          },
          {
            "duration": 0.1666665000000016,
            "durationTicks": 96,
            "midi": 49,
            "name": "C#3",
            "ticks": 14167,
            "time": 24.595461515624997,
            "velocity": 0.12598425196850394
          },
          {
            "duration": 0.16666649999999805,
            "durationTicks": 96,
            "midi": 43,
            "name": "G2",
            "ticks": 14331,
            "time": 24.880183453125,
            "velocity": 0.2125984251968504
          },
          {
            "duration": 0.1666665000000016,
            "durationTicks": 96,
            "midi": 49,
            "name": "C#3",
            "ticks": 14340,
            "time": 24.895808437499998,
            "velocity": 0.12598425196850394
          },
          {
            "duration": 0.1666665000000016,
            "durationTicks": 96,
            "midi": 49,
            "name": "C#3",
            "ticks": 14499,
            "time": 25.171849828124998,
            "velocity": 0.12598425196850394
          },
          {
            "duration": 0.1666665000000016,
            "durationTicks": 96,
            "midi": 39,
            "name": "D#2",
            "ticks": 14499,
            "time": 25.171849828124998,
            "velocity": 0.2204724409448819
          },
          {
            "duration": 0.1666665000000016,
            "durationTicks": 96,
            "midi": 49,
            "name": "C#3",
            "ticks": 14658,
            "time": 25.447891218749998,
            "velocity": 0.12598425196850394
          },
          {
            "duration": 0.1666665000000016,
            "durationTicks": 96,
            "midi": 43,
            "name": "G2",
            "ticks": 14663,
            "time": 25.456571765625,
            "velocity": 0.2204724409448819
          },
          {
            "duration": 0.16840260937500062,
            "durationTicks": 97,
            "midi": 49,
            "name": "C#3",
            "ticks": 14822,
            "time": 25.73261315625,
            "velocity": 0.12598425196850394
          },
          {
            "duration": 0.16840260937500062,
            "durationTicks": 97,
            "midi": 39,
            "name": "D#2",
            "ticks": 14827,
            "time": 25.741293703125,
            "velocity": 0.2125984251968504
          },
          {
            "duration": 0.16840260937500062,
            "durationTicks": 97,
            "midi": 39,
            "name": "D#2",
            "ticks": 14909,
            "time": 25.883654671875,
            "velocity": 0.2125984251968504
          },
          {
            "duration": 0.16840260937500062,
            "durationTicks": 97,
            "midi": 43,
            "name": "G2",
            "ticks": 14991,
            "time": 26.026015640624998,
            "velocity": 0.2125984251968504
          },
          {
            "duration": 0.16840260937500062,
            "durationTicks": 97,
            "midi": 49,
            "name": "C#3",
            "ticks": 14996,
            "time": 26.0346961875,
            "velocity": 0.12598425196850394
          },
          {
            "duration": 0.1666665000000016,
            "durationTicks": 96,
            "midi": 39,
            "name": "D#2",
            "ticks": 15156,
            "time": 26.3124736875,
            "velocity": 0.14173228346456693
          },
          {
            "duration": 0.16666649999999805,
            "durationTicks": 96,
            "midi": 53,
            "name": "F3",
            "ticks": 15161,
            "time": 26.321154234375,
            "velocity": 0.15748031496062992
          },
          {
            "duration": 0.16666649999999805,
            "durationTicks": 96,
            "midi": 43,
            "name": "G2",
            "ticks": 15165,
            "time": 26.328098671875,
            "velocity": 0.14173228346456693
          },
          {
            "duration": 0.16840260937500062,
            "durationTicks": 97,
            "midi": 39,
            "name": "D#2",
            "ticks": 15239,
            "time": 26.456570765625,
            "velocity": 0.16535433070866143
          },
          {
            "duration": 0.16840260937499707,
            "durationTicks": 97,
            "midi": 39,
            "name": "D#2",
            "ticks": 15321,
            "time": 26.598931734375,
            "velocity": 0.16535433070866143
          },
          {
            "duration": 0.16840260937500062,
            "durationTicks": 97,
            "midi": 43,
            "name": "G2",
            "ticks": 15330,
            "time": 26.61455671875,
            "velocity": 0.14960629921259844
          },
          {
            "duration": 0.16840260937499707,
            "durationTicks": 97,
            "midi": 50,
            "name": "D3",
            "ticks": 15335,
            "time": 26.623237265625,
            "velocity": 0.14960629921259844
          },
          {
            "duration": 0.16840260937499707,
            "durationTicks": 97,
            "midi": 39,
            "name": "D#2",
            "ticks": 15408,
            "time": 26.74997325,
            "velocity": 0.16535433070866143
          },
          {
            "duration": 0.16493039062499903,
            "durationTicks": 95,
            "midi": 39,
            "name": "D#2",
            "ticks": 15491,
            "time": 26.894070328125,
            "velocity": 0.14960629921259844
          },
          {
            "duration": 0.1649303906250026,
            "durationTicks": 95,
            "midi": 48,
            "name": "C3",
            "ticks": 15504,
            "time": 26.916639749999998,
            "velocity": 0.16535433070866143
          },
          {
            "duration": 0.1649303906250026,
            "durationTicks": 95,
            "midi": 43,
            "name": "G2",
            "ticks": 15508,
            "time": 26.923584187499998,
            "velocity": 0.15748031496062992
          },
          {
            "duration": 0.1649303906250026,
            "durationTicks": 95,
            "midi": 39,
            "name": "D#2",
            "ticks": 15573,
            "time": 27.036431296874998,
            "velocity": 0.16535433070866143
          },
          {
            "duration": 0.16666649999999805,
            "durationTicks": 96,
            "midi": 39,
            "name": "D#2",
            "ticks": 15654,
            "time": 27.17705615625,
            "velocity": 0.16535433070866143
          },
          {
            "duration": 0.16666649999999805,
            "durationTicks": 96,
            "midi": 43,
            "name": "G2",
            "ticks": 15667,
            "time": 27.199625578124998,
            "velocity": 0.15748031496062992
          },
          {
            "duration": 0.16666649999999805,
            "durationTicks": 96,
            "midi": 44,
            "name": "G#2",
            "ticks": 15671,
            "time": 27.206570015625,
            "velocity": 0.12598425196850394
          },
          {
            "duration": 0.1666665000000016,
            "durationTicks": 96,
            "midi": 39,
            "name": "D#2",
            "ticks": 15736,
            "time": 27.319417124999998,
            "velocity": 0.16535433070866143
          },
          {
            "duration": 0.16666649999999805,
            "durationTicks": 96,
            "midi": 44,
            "name": "G#2",
            "ticks": 15745,
            "time": 27.335042109375,
            "velocity": 0.15748031496062992
          },
          {
            "duration": 0.16666649999999805,
            "durationTicks": 96,
            "midi": 43,
            "name": "G2",
            "ticks": 15745,
            "time": 27.335042109375,
            "velocity": 0.15748031496062992
          },
          {
            "duration": 0.16666649999999805,
            "durationTicks": 96,
            "midi": 54,
            "name": "F#3",
            "ticks": 15818,
            "time": 27.461778093750002,
            "velocity": 0.1968503937007874
          },
          {
            "duration": 0.16666649999999805,
            "durationTicks": 96,
            "midi": 39,
            "name": "D#2",
            "ticks": 15818,
            "time": 27.461778093750002,
            "velocity": 0.2047244094488189
          },
          {
            "duration": 0.1666665000000016,
            "durationTicks": 96,
            "midi": 43,
            "name": "G2",
            "ticks": 15982,
            "time": 27.746500031249997,
            "velocity": 0.2047244094488189
          },
          {
            "duration": 0.1666665000000016,
            "durationTicks": 96,
            "midi": 54,
            "name": "F#3",
            "ticks": 15982,
            "time": 27.746500031249997,
            "velocity": 0.2047244094488189
          },
          {
            "duration": 0.1666665000000016,
            "durationTicks": 96,
            "midi": 54,
            "name": "F#3",
            "ticks": 16145,
            "time": 28.029485859375,
            "velocity": 0.2047244094488189
          },
          {
            "duration": 0.1666665000000016,
            "durationTicks": 96,
            "midi": 39,
            "name": "D#2",
            "ticks": 16145,
            "time": 28.029485859375,
            "velocity": 0.2047244094488189
          },
          {
            "duration": 0.1666665000000016,
            "durationTicks": 96,
            "midi": 39,
            "name": "D#2",
            "ticks": 16228,
            "time": 28.173582937499997,
            "velocity": 0.2047244094488189
          },
          {
            "duration": 0.1666665000000016,
            "durationTicks": 96,
            "midi": 54,
            "name": "F#3",
            "ticks": 16314,
            "time": 28.322888343749998,
            "velocity": 0.1968503937007874
          },
          {
            "duration": 0.1666665000000016,
            "durationTicks": 96,
            "midi": 43,
            "name": "G2",
            "ticks": 16314,
            "time": 28.322888343749998,
            "velocity": 0.2204724409448819
          },
          {
            "duration": 0.1666665000000016,
            "durationTicks": 96,
            "midi": 39,
            "name": "D#2",
            "ticks": 16478,
            "time": 28.60761028125,
            "velocity": 0.2204724409448819
          },
          {
            "duration": 0.1666665000000016,
            "durationTicks": 96,
            "midi": 54,
            "name": "F#3",
            "ticks": 16478,
            "time": 28.60761028125,
            "velocity": 0.2047244094488189
          },
          {
            "duration": 0.16666649999999805,
            "durationTicks": 96,
            "midi": 43,
            "name": "G2",
            "ticks": 16641,
            "time": 28.890596109375,
            "velocity": 0.2047244094488189
          },
          {
            "duration": 0.16666649999999805,
            "durationTicks": 96,
            "midi": 54,
            "name": "F#3",
            "ticks": 16641,
            "time": 28.890596109375,
            "velocity": 0.2125984251968504
          },
          {
            "duration": 0.16666649999999805,
            "durationTicks": 96,
            "midi": 39,
            "name": "D#2",
            "ticks": 16805,
            "time": 29.175318046875002,
            "velocity": 0.2047244094488189
          },
          {
            "duration": 0.16666649999999805,
            "durationTicks": 96,
            "midi": 54,
            "name": "F#3",
            "ticks": 16805,
            "time": 29.175318046875002,
            "velocity": 0.1968503937007874
          },
          {
            "duration": 0.16493039062499903,
            "durationTicks": 95,
            "midi": 39,
            "name": "D#2",
            "ticks": 16888,
            "time": 29.319415125,
            "velocity": 0.2125984251968504
          },
          {
            "duration": 0.1666665000000016,
            "durationTicks": 96,
            "midi": 54,
            "name": "F#3",
            "ticks": 16969,
            "time": 29.460039984374998,
            "velocity": 0.1968503937007874
          },
          {
            "duration": 0.1666665000000016,
            "durationTicks": 96,
            "midi": 43,
            "name": "G2",
            "ticks": 16969,
            "time": 29.460039984374998,
            "velocity": 0.2125984251968504
          },
          {
            "duration": 0.16666649999999805,
            "durationTicks": 96,
            "midi": 54,
            "name": "F#3",
            "ticks": 17133,
            "time": 29.744761921875,
            "velocity": 0.1889763779527559
          },
          {
            "duration": 0.16666649999999805,
            "durationTicks": 96,
            "midi": 39,
            "name": "D#2",
            "ticks": 17133,
            "time": 29.744761921875,
            "velocity": 0.2125984251968504
          },
          {
            "duration": 0.1666665000000016,
            "durationTicks": 96,
            "midi": 43,
            "name": "G2",
            "ticks": 17301,
            "time": 30.036428296875,
            "velocity": 0.2125984251968504
          },
          {
            "duration": 0.1666665000000016,
            "durationTicks": 96,
            "midi": 54,
            "name": "F#3",
            "ticks": 17301,
            "time": 30.036428296875,
            "velocity": 0.1968503937007874
          },
          {
            "duration": 0.1666665000000016,
            "durationTicks": 96,
            "midi": 39,
            "name": "D#2",
            "ticks": 17465,
            "time": 30.321150234375,
            "velocity": 0.2047244094488189
          },
          {
            "duration": 0.1666665000000016,
            "durationTicks": 96,
            "midi": 54,
            "name": "F#3",
            "ticks": 17465,
            "time": 30.321150234375,
            "velocity": 0.18110236220472442
          },
          {
            "duration": 0.1649303906250026,
            "durationTicks": 95,
            "midi": 39,
            "name": "D#2",
            "ticks": 17547,
            "time": 30.463511203124998,
            "velocity": 0.2047244094488189
          },
          {
            "duration": 0.16666649999999805,
            "durationTicks": 96,
            "midi": 43,
            "name": "G2",
            "ticks": 17629,
            "time": 30.605872171875,
            "velocity": 0.2125984251968504
          },
          {
            "duration": 0.16666649999999805,
            "durationTicks": 96,
            "midi": 54,
            "name": "F#3",
            "ticks": 17629,
            "time": 30.605872171875,
            "velocity": 0.1968503937007874
          },
          {
            "duration": 0.1666665000000016,
            "durationTicks": 96,
            "midi": 39,
            "name": "D#2",
            "ticks": 17792,
            "time": 30.888858,
            "velocity": 0.2204724409448819
          },
          {
            "duration": 0.1666665000000016,
            "durationTicks": 96,
            "midi": 54,
            "name": "F#3",
            "ticks": 17792,
            "time": 30.888858,
            "velocity": 0.18110236220472442
          },
          {
            "duration": 0.16666649999999805,
            "durationTicks": 96,
            "midi": 54,
            "name": "F#3",
            "ticks": 17956,
            "time": 31.173579937499998,
            "velocity": 0.1889763779527559
          },
          {
            "duration": 0.16666649999999805,
            "durationTicks": 96,
            "midi": 43,
            "name": "G2",
            "ticks": 17956,
            "time": 31.173579937499998,
            "velocity": 0.2047244094488189
          },
          {
            "duration": 0.1666665000000016,
            "durationTicks": 96,
            "midi": 54,
            "name": "F#3",
            "ticks": 18124,
            "time": 31.465246312499996,
            "velocity": 0.2047244094488189
          },
          {
            "duration": 0.1666665000000016,
            "durationTicks": 96,
            "midi": 39,
            "name": "D#2",
            "ticks": 18124,
            "time": 31.465246312499996,
            "velocity": 0.2125984251968504
          },
          {
            "duration": 0.16493039062499903,
            "durationTicks": 95,
            "midi": 39,
            "name": "D#2",
            "ticks": 18207,
            "time": 31.609343390625,
            "velocity": 0.2125984251968504
          },
          {
            "duration": 0.1666665000000016,
            "durationTicks": 96,
            "midi": 54,
            "name": "F#3",
            "ticks": 18288,
            "time": 31.74996825,
            "velocity": 0.1889763779527559
          },
          {
            "duration": 0.1666665000000016,
            "durationTicks": 96,
            "midi": 43,
            "name": "G2",
            "ticks": 18288,
            "time": 31.74996825,
            "velocity": 0.2125984251968504
          },
          {
            "duration": 0.16666650000000516,
            "durationTicks": 96,
            "midi": 54,
            "name": "F#3",
            "ticks": 18452,
            "time": 32.0346901875,
            "velocity": 0.1889763779527559
          },
          {
            "duration": 0.16666650000000516,
            "durationTicks": 96,
            "midi": 39,
            "name": "D#2",
            "ticks": 18452,
            "time": 32.0346901875,
            "velocity": 0.2125984251968504
          },
          {
            "duration": 0.16666649999999805,
            "durationTicks": 96,
            "midi": 54,
            "name": "F#3",
            "ticks": 18616,
            "time": 32.319412125,
            "velocity": 0.2047244094488189
          },
          {
            "duration": 0.16666649999999805,
            "durationTicks": 96,
            "midi": 43,
            "name": "G2",
            "ticks": 18616,
            "time": 32.319412125,
            "velocity": 0.2125984251968504
          },
          {
            "duration": 0.16666649999999805,
            "durationTicks": 96,
            "midi": 54,
            "name": "F#3",
            "ticks": 18780,
            "time": 32.6041340625,
            "velocity": 0.1889763779527559
          },
          {
            "duration": 0.16666649999999805,
            "durationTicks": 96,
            "midi": 39,
            "name": "D#2",
            "ticks": 18780,
            "time": 32.6041340625,
            "velocity": 0.2125984251968504
          },
          {
            "duration": 0.1649303906250026,
            "durationTicks": 95,
            "midi": 39,
            "name": "D#2",
            "ticks": 18862,
            "time": 32.74649503125,
            "velocity": 0.2047244094488189
          },
          {
            "duration": 0.16666650000000516,
            "durationTicks": 96,
            "midi": 43,
            "name": "G2",
            "ticks": 18943,
            "time": 32.887119890624994,
            "velocity": 0.2204724409448819
          },
          {
            "duration": 0.16666650000000516,
            "durationTicks": 96,
            "midi": 54,
            "name": "F#3",
            "ticks": 18943,
            "time": 32.887119890624994,
            "velocity": 0.2047244094488189
          },
          {
            "duration": 0.16666649999999805,
            "durationTicks": 96,
            "midi": 39,
            "name": "D#2",
            "ticks": 19112,
            "time": 33.180522375,
            "velocity": 0.2125984251968504
          },
          {
            "duration": 0.16666649999999805,
            "durationTicks": 96,
            "midi": 54,
            "name": "F#3",
            "ticks": 19112,
            "time": 33.180522375,
            "velocity": 0.1968503937007874
          },
          {
            "duration": 0.16666649999999805,
            "durationTicks": 96,
            "midi": 54,
            "name": "F#3",
            "ticks": 19275,
            "time": 33.463508203125,
            "velocity": 0.2125984251968504
          },
          {
            "duration": 0.16666649999999805,
            "durationTicks": 96,
            "midi": 43,
            "name": "G2",
            "ticks": 19275,
            "time": 33.463508203125,
            "velocity": 0.2125984251968504
          },
          {
            "duration": 0.16666650000000516,
            "durationTicks": 96,
            "midi": 39,
            "name": "D#2",
            "ticks": 19439,
            "time": 33.748230140625,
            "velocity": 0.2125984251968504
          },
          {
            "duration": 0.16666650000000516,
            "durationTicks": 96,
            "midi": 54,
            "name": "F#3",
            "ticks": 19439,
            "time": 33.748230140625,
            "velocity": 0.1968503937007874
          },
          {
            "duration": 0.16666649999999805,
            "durationTicks": 96,
            "midi": 54,
            "name": "F#3",
            "ticks": 19603,
            "time": 34.032952078125,
            "velocity": 0.1968503937007874
          },
          {
            "duration": 0.16666649999999805,
            "durationTicks": 96,
            "midi": 43,
            "name": "G2",
            "ticks": 19603,
            "time": 34.032952078125,
            "velocity": 0.2125984251968504
          },
          {
            "duration": 0.16666649999999805,
            "durationTicks": 96,
            "midi": 54,
            "name": "F#3",
            "ticks": 19767,
            "time": 34.317674015625,
            "velocity": 0.2125984251968504
          },
          {
            "duration": 0.16666649999999805,
            "durationTicks": 96,
            "midi": 39,
            "name": "D#2",
            "ticks": 19767,
            "time": 34.317674015625,
            "velocity": 0.2204724409448819
          },
          {
            "duration": 0.16666649999999805,
            "durationTicks": 96,
            "midi": 54,
            "name": "F#3",
            "ticks": 19935,
            "time": 34.609340390625,
            "velocity": 0.2047244094488189
          },
          {
            "duration": 0.16666649999999805,
            "durationTicks": 96,
            "midi": 43,
            "name": "G2",
            "ticks": 19935,
            "time": 34.609340390625,
            "velocity": 0.2204724409448819
          },
          {
            "duration": 0.16666649999999805,
            "durationTicks": 96,
            "midi": 54,
            "name": "F#3",
            "ticks": 20099,
            "time": 34.894062328125,
            "velocity": 0.2125984251968504
          },
          {
            "duration": 0.16666649999999805,
            "durationTicks": 96,
            "midi": 39,
            "name": "D#2",
            "ticks": 20099,
            "time": 34.894062328125,
            "velocity": 0.2125984251968504
          },
          {
            "duration": 0.1649303906250026,
            "durationTicks": 95,
            "midi": 39,
            "name": "D#2",
            "ticks": 20181,
            "time": 35.036423296875,
            "velocity": 0.2125984251968504
          },
          {
            "duration": 0.16666649999999805,
            "durationTicks": 96,
            "midi": 43,
            "name": "G2",
            "ticks": 20263,
            "time": 35.178784265625,
            "velocity": 0.2125984251968504
          },
          {
            "duration": 0.16666649999999805,
            "durationTicks": 96,
            "midi": 54,
            "name": "F#3",
            "ticks": 20263,
            "time": 35.178784265625,
            "velocity": 0.2047244094488189
          },
          {
            "duration": 0.16840260937500062,
            "durationTicks": 97,
            "midi": 54,
            "name": "F#3",
            "ticks": 20426,
            "time": 35.46177009375,
            "velocity": 0.1968503937007874
          },
          {
            "duration": 0.16840260937500062,
            "durationTicks": 97,
            "midi": 43,
            "name": "G2",
            "ticks": 20435,
            "time": 35.477395078125,
            "velocity": 0.14173228346456693
          },
          {
            "duration": 0.16840260937500062,
            "durationTicks": 97,
            "midi": 43,
            "name": "G2",
            "ticks": 20470,
            "time": 35.53815890625,
            "velocity": 0.15748031496062992
          },
          {
            "duration": 0.16840260937500062,
            "durationTicks": 97,
            "midi": 39,
            "name": "D#2",
            "ticks": 20513,
            "time": 35.612811609375,
            "velocity": 0.14173228346456693
          },
          {
            "duration": 0.16666649999999805,
            "durationTicks": 96,
            "midi": 43,
            "name": "G2",
            "ticks": 20592,
            "time": 35.74996425,
            "velocity": 0.16535433070866143
          },
          {
            "duration": 0.16666650000000516,
            "durationTicks": 96,
            "midi": 39,
            "name": "D#2",
            "ticks": 20678,
            "time": 35.89926965625,
            "velocity": 0.15748031496062992
          },
          {
            "duration": 0.16493039062499548,
            "durationTicks": 95,
            "midi": 39,
            "name": "D#2",
            "ticks": 20718,
            "time": 35.96871403125,
            "velocity": 0.14960629921259844
          },
          {
            "duration": 0.16666650000000516,
            "durationTicks": 96,
            "midi": 43,
            "name": "G2",
            "ticks": 20760,
            "time": 36.041630624999996,
            "velocity": 0.16535433070866143
          },
          {
            "duration": 0.16840260937500062,
            "durationTicks": 97,
            "midi": 43,
            "name": "G2",
            "ticks": 20799,
            "time": 36.109338890625,
            "velocity": 0.14960629921259844
          },
          {
            "duration": 0.16840260937500062,
            "durationTicks": 97,
            "midi": 39,
            "name": "D#2",
            "ticks": 20846,
            "time": 36.19093603125,
            "velocity": 0.14960629921259844
          },
          {
            "duration": 0.16840260937499352,
            "durationTicks": 97,
            "midi": 39,
            "name": "D#2",
            "ticks": 20886,
            "time": 36.26038040625,
            "velocity": 0.16535433070866143
          },
          {
            "duration": 0.16666649999999805,
            "durationTicks": 96,
            "midi": 43,
            "name": "G2",
            "ticks": 20930,
            "time": 36.33676921875,
            "velocity": 0.16535433070866143
          },
          {
            "duration": 0.16666650000000516,
            "durationTicks": 96,
            "midi": 43,
            "name": "G2",
            "ticks": 20973,
            "time": 36.411421921875,
            "velocity": 0.15748031496062992
          },
          {
            "duration": 0.1649303906250026,
            "durationTicks": 95,
            "midi": 39,
            "name": "D#2",
            "ticks": 21012,
            "time": 36.4791301875,
            "velocity": 0.16535433070866143
          },
          {
            "duration": 0.16666649999999805,
            "durationTicks": 96,
            "midi": 39,
            "name": "D#2",
            "ticks": 21089,
            "time": 36.612810609375,
            "velocity": 0.2047244094488189
          },
          {
            "duration": 0.16666649999999805,
            "durationTicks": 96,
            "midi": 49,
            "name": "C#3",
            "ticks": 21089,
            "time": 36.612810609375,
            "velocity": 0.12598425196850394
          },
          {
            "duration": 0.16666649999999805,
            "durationTicks": 96,
            "midi": 43,
            "name": "G2",
            "ticks": 21253,
            "time": 36.897532546875,
            "velocity": 0.2047244094488189
          },
          {
            "duration": 0.16666649999999805,
            "durationTicks": 96,
            "midi": 49,
            "name": "C#3",
            "ticks": 21257,
            "time": 36.904476984375,
            "velocity": 0.14960629921259844
          },
          {
            "duration": 0.16666649999999805,
            "durationTicks": 96,
            "midi": 39,
            "name": "D#2",
            "ticks": 21417,
            "time": 37.182254484375,
            "velocity": 0.2047244094488189
          },
          {
            "duration": 0.16666650000000516,
            "durationTicks": 96,
            "midi": 49,
            "name": "C#3",
            "ticks": 21426,
            "time": 37.197879468749996,
            "velocity": 0.14173228346456693
          },
          {
            "duration": 0.16666649999999805,
            "durationTicks": 96,
            "midi": 39,
            "name": "D#2",
            "ticks": 21499,
            "time": 37.324615453125,
            "velocity": 0.2047244094488189
          },
          {
            "duration": 0.16666649999999805,
            "durationTicks": 96,
            "midi": 43,
            "name": "G2",
            "ticks": 21581,
            "time": 37.466976421875,
            "velocity": 0.2204724409448819
          },
          {
            "duration": 0.16666649999999805,
            "durationTicks": 96,
            "midi": 49,
            "name": "C#3",
            "ticks": 21594,
            "time": 37.48954584375,
            "velocity": 0.14173228346456693
          },
          {
            "duration": 0.16666650000000516,
            "durationTicks": 96,
            "midi": 39,
            "name": "D#2",
            "ticks": 21750,
            "time": 37.76037890625,
            "velocity": 0.2204724409448819
          },
          {
            "duration": 0.16666649999999805,
            "durationTicks": 96,
            "midi": 49,
            "name": "C#3",
            "ticks": 21754,
            "time": 37.76732334375,
            "velocity": 0.13385826771653545
          },
          {
            "duration": 0.16666649999999805,
            "durationTicks": 96,
            "midi": 43,
            "name": "G2",
            "ticks": 21913,
            "time": 38.043364734375,
            "velocity": 0.2047244094488189
          },
          {
            "duration": 0.16666649999999805,
            "durationTicks": 96,
            "midi": 49,
            "name": "C#3",
            "ticks": 21922,
            "time": 38.05898971875,
            "velocity": 0.12598425196850394
          },
          {
            "duration": 0.16666650000000516,
            "durationTicks": 96,
            "midi": 39,
            "name": "D#2",
            "ticks": 22078,
            "time": 38.329822781249995,
            "velocity": 0.2047244094488189
          },
          {
            "duration": 0.16666649999999805,
            "durationTicks": 96,
            "midi": 49,
            "name": "C#3",
            "ticks": 22083,
            "time": 38.338503328125,
            "velocity": 0.13385826771653545
          },
          {
            "duration": 0.16666649999999805,
            "durationTicks": 96,
            "midi": 39,
            "name": "D#2",
            "ticks": 22161,
            "time": 38.473919859375,
            "velocity": 0.2125984251968504
          },
          {
            "duration": 0.16840260937500062,
            "durationTicks": 97,
            "midi": 43,
            "name": "G2",
            "ticks": 22242,
            "time": 38.61454471875,
            "velocity": 0.2125984251968504
          },
          {
            "duration": 0.16840260937500062,
            "durationTicks": 97,
            "midi": 49,
            "name": "C#3",
            "ticks": 22251,
            "time": 38.630169703125,
            "velocity": 0.13385826771653545
          },
          {
            "duration": 0.16666649999999805,
            "durationTicks": 96,
            "midi": 39,
            "name": "D#2",
            "ticks": 22408,
            "time": 38.902738875,
            "velocity": 0.2125984251968504
          },
          {
            "duration": 0.16666649999999805,
            "durationTicks": 96,
            "midi": 49,
            "name": "C#3",
            "ticks": 22412,
            "time": 38.9096833125,
            "velocity": 0.11811023622047244
          },
          {
            "duration": 0.16666649999999805,
            "durationTicks": 96,
            "midi": 43,
            "name": "G2",
            "ticks": 22572,
            "time": 39.1874608125,
            "velocity": 0.2125984251968504
          },
          {
            "duration": 0.16666649999999805,
            "durationTicks": 96,
            "midi": 49,
            "name": "C#3",
            "ticks": 22581,
            "time": 39.203085796875,
            "velocity": 0.12598425196850394
          },
          {
            "duration": 0.1649303906250026,
            "durationTicks": 95,
            "midi": 39,
            "name": "D#2",
            "ticks": 22740,
            "time": 39.4791271875,
            "velocity": 0.2047244094488189
          },
          {
            "duration": 0.16493039062499548,
            "durationTicks": 95,
            "midi": 49,
            "name": "C#3",
            "ticks": 22757,
            "time": 39.508641046875,
            "velocity": 0.11023622047244094
          },
          {
            "duration": 0.1649303906250026,
            "durationTicks": 95,
            "midi": 39,
            "name": "D#2",
            "ticks": 22821,
            "time": 39.619752046875,
            "velocity": 0.2047244094488189
          },
          {
            "duration": 0.16666649999999805,
            "durationTicks": 96,
            "midi": 43,
            "name": "G2",
            "ticks": 22903,
            "time": 39.762113015625,
            "velocity": 0.2125984251968504
          },
          {
            "duration": 0.16666649999999805,
            "durationTicks": 96,
            "midi": 49,
            "name": "C#3",
            "ticks": 22915,
            "time": 39.782946328125,
            "velocity": 0.13385826771653545
          },
          {
            "duration": 0.16666650000000516,
            "durationTicks": 96,
            "midi": 39,
            "name": "D#2",
            "ticks": 23066,
            "time": 40.04509884375,
            "velocity": 0.2204724409448819
          },
          {
            "duration": 0.16666650000000516,
            "durationTicks": 96,
            "midi": 49,
            "name": "C#3",
            "ticks": 23066,
            "time": 40.04509884375,
            "velocity": 0.13385826771653545
          },
          {
            "duration": 0.16666649999999805,
            "durationTicks": 96,
            "midi": 43,
            "name": "G2",
            "ticks": 23230,
            "time": 40.32982078125,
            "velocity": 0.2047244094488189
          },
          {
            "duration": 0.16666649999999805,
            "durationTicks": 96,
            "midi": 49,
            "name": "C#3",
            "ticks": 23235,
            "time": 40.338501328125,
            "velocity": 0.11811023622047244
          },
          {
            "duration": 0.16666649999999805,
            "durationTicks": 96,
            "midi": 39,
            "name": "D#2",
            "ticks": 23394,
            "time": 40.61454271875,
            "velocity": 0.2125984251968504
          },
          {
            "duration": 0.16666649999999805,
            "durationTicks": 96,
            "midi": 49,
            "name": "C#3",
            "ticks": 23394,
            "time": 40.61454271875,
            "velocity": 0.12598425196850394
          },
          {
            "duration": 0.16666649999999805,
            "durationTicks": 96,
            "midi": 39,
            "name": "D#2",
            "ticks": 23476,
            "time": 40.7569036875,
            "velocity": 0.2125984251968504
          },
          {
            "duration": 0.16666649999999805,
            "durationTicks": 96,
            "midi": 43,
            "name": "G2",
            "ticks": 23562,
            "time": 40.90620909375,
            "velocity": 0.2125984251968504
          },
          {
            "duration": 0.16666649999999805,
            "durationTicks": 96,
            "midi": 49,
            "name": "C#3",
            "ticks": 23567,
            "time": 40.914889640625,
            "velocity": 0.12598425196850394
          },
          {
            "duration": 0.16666649999999805,
            "durationTicks": 96,
            "midi": 49,
            "name": "C#3",
            "ticks": 23723,
            "time": 41.185722703125,
            "velocity": 0.13385826771653545
          },
          {
            "duration": 0.16666649999999805,
            "durationTicks": 96,
            "midi": 39,
            "name": "D#2",
            "ticks": 23727,
            "time": 41.192667140625,
            "velocity": 0.2125984251968504
          },
          {
            "duration": 0.16666649999999805,
            "durationTicks": 96,
            "midi": 49,
            "name": "C#3",
            "ticks": 23886,
            "time": 41.46870853125,
            "velocity": 0.11811023622047244
          },
          {
            "duration": 0.16666649999999805,
            "durationTicks": 96,
            "midi": 43,
            "name": "G2",
            "ticks": 23891,
            "time": 41.477389078125,
            "velocity": 0.2125984251968504
          },
          {
            "duration": 0.16666650000000516,
            "durationTicks": 96,
            "midi": 39,
            "name": "D#2",
            "ticks": 24055,
            "time": 41.762111015624996,
            "velocity": 0.2125984251968504
          },
          {
            "duration": 0.16666650000000516,
            "durationTicks": 96,
            "midi": 49,
            "name": "C#3",
            "ticks": 24055,
            "time": 41.762111015624996,
            "velocity": 0.14173228346456693
          },
          {
            "duration": 0.16493039062499548,
            "durationTicks": 95,
            "midi": 39,
            "name": "D#2",
            "ticks": 24137,
            "time": 41.904471984375,
            "velocity": 0.2047244094488189
          },
          {
            "duration": 0.16666649999999805,
            "durationTicks": 96,
            "midi": 43,
            "name": "G2",
            "ticks": 24218,
            "time": 42.04509684375,
            "velocity": 0.2204724409448819
          },
          {
            "duration": 0.16666649999999805,
            "durationTicks": 96,
            "midi": 49,
            "name": "C#3",
            "ticks": 24218,
            "time": 42.04509684375,
            "velocity": 0.12598425196850394
          },
          {
            "duration": 0.16666649999999805,
            "durationTicks": 96,
            "midi": 39,
            "name": "D#2",
            "ticks": 24382,
            "time": 42.32981878125,
            "velocity": 0.2125984251968504
          },
          {
            "duration": 0.16666649999999805,
            "durationTicks": 96,
            "midi": 49,
            "name": "C#3",
            "ticks": 24391,
            "time": 42.345443765625,
            "velocity": 0.11023622047244094
          },
          {
            "duration": 0.16666649999999805,
            "durationTicks": 96,
            "midi": 43,
            "name": "G2",
            "ticks": 24551,
            "time": 42.623221265625,
            "velocity": 0.2125984251968504
          },
          {
            "duration": 0.16666649999999805,
            "durationTicks": 96,
            "midi": 49,
            "name": "C#3",
            "ticks": 24555,
            "time": 42.630165703125,
            "velocity": 0.13385826771653545
          },
          {
            "duration": 0.16666649999999805,
            "durationTicks": 96,
            "midi": 49,
            "name": "C#3",
            "ticks": 24714,
            "time": 42.90620709375,
            "velocity": 0.12598425196850394
          },
          {
            "duration": 0.16666649999999805,
            "durationTicks": 96,
            "midi": 39,
            "name": "D#2",
            "ticks": 24714,
            "time": 42.90620709375,
            "velocity": 0.2125984251968504
          },
          {
            "duration": 0.16666650000000516,
            "durationTicks": 96,
            "midi": 43,
            "name": "G2",
            "ticks": 24878,
            "time": 43.19092903124999,
            "velocity": 0.2125984251968504
          },
          {
            "duration": 0.16666649999999805,
            "durationTicks": 96,
            "midi": 49,
            "name": "C#3",
            "ticks": 24887,
            "time": 43.206554015624995,
            "velocity": 0.12598425196850394
          },
          {
            "duration": 0.16666649999999805,
            "durationTicks": 96,
            "midi": 39,
            "name": "D#2",
            "ticks": 25043,
            "time": 43.477387078125,
            "velocity": 0.2204724409448819
          },
          {
            "duration": 0.16666649999999805,
            "durationTicks": 96,
            "midi": 49,
            "name": "C#3",
            "ticks": 25047,
            "time": 43.484331515625,
            "velocity": 0.12598425196850394
          },
          {
            "duration": 0.16666649999999805,
            "durationTicks": 96,
            "midi": 49,
            "name": "C#3",
            "ticks": 25203,
            "time": 43.755164578125,
            "velocity": 0.12598425196850394
          },
          {
            "duration": 0.16666649999999805,
            "durationTicks": 96,
            "midi": 43,
            "name": "G2",
            "ticks": 25208,
            "time": 43.763845124999996,
            "velocity": 0.2204724409448819
          },
          {
            "duration": 0.16840260937500773,
            "durationTicks": 97,
            "midi": 49,
            "name": "C#3",
            "ticks": 25371,
            "time": 44.046830953124996,
            "velocity": 0.12598425196850394
          },
          {
            "duration": 0.16840260937500773,
            "durationTicks": 97,
            "midi": 39,
            "name": "D#2",
            "ticks": 25376,
            "time": 44.055511499999994,
            "velocity": 0.2125984251968504
          },
          {
            "duration": 0.16840260937500062,
            "durationTicks": 97,
            "midi": 39,
            "name": "D#2",
            "ticks": 25458,
            "time": 44.19787246875,
            "velocity": 0.2125984251968504
          },
          {
            "duration": 0.16840260937500773,
            "durationTicks": 97,
            "midi": 43,
            "name": "G2",
            "ticks": 25541,
            "time": 44.34196954687499,
            "velocity": 0.2125984251968504
          },
          {
            "duration": 0.16840260937500773,
            "durationTicks": 97,
            "midi": 49,
            "name": "C#3",
            "ticks": 25545,
            "time": 44.348913984374995,
            "velocity": 0.12598425196850394
          },
          {
            "duration": 0.16666649999999805,
            "durationTicks": 96,
            "midi": 41,
            "name": "F2",
            "ticks": 25706,
            "time": 44.62842759375,
            "velocity": 0.14960629921259844
          },
          {
            "duration": 0.16666649999999805,
            "durationTicks": 96,
            "midi": 43,
            "name": "G2",
            "ticks": 25706,
            "time": 44.62842759375,
            "velocity": 0.16535433070866143
          },
          {
            "duration": 0.16840260937500062,
            "durationTicks": 97,
            "midi": 39,
            "name": "D#2",
            "ticks": 25779,
            "time": 44.755163578125,
            "velocity": 0.14960629921259844
          },
          {
            "duration": 0.16840260937499352,
            "durationTicks": 97,
            "midi": 41,
            "name": "F2",
            "ticks": 25861,
            "time": 44.897524546875005,
            "velocity": 0.14173228346456693
          },
          {
            "duration": 0.16840260937500773,
            "durationTicks": 97,
            "midi": 43,
            "name": "G2",
            "ticks": 25866,
            "time": 44.906205093749996,
            "velocity": 0.16535433070866143
          },
          {
            "duration": 0.16840260937499352,
            "durationTicks": 97,
            "midi": 39,
            "name": "D#2",
            "ticks": 25948,
            "time": 45.0485660625,
            "velocity": 0.15748031496062992
          },
          {
            "duration": 0.16666649999999805,
            "durationTicks": 96,
            "midi": 43,
            "name": "G2",
            "ticks": 26035,
            "time": 45.199607578125004,
            "velocity": 0.15748031496062992
          },
          {
            "duration": 0.16666649999999805,
            "durationTicks": 96,
            "midi": 41,
            "name": "F2",
            "ticks": 26035,
            "time": 45.199607578125004,
            "velocity": 0.14173228346456693
          },
          {
            "duration": 0.16666649999999805,
            "durationTicks": 96,
            "midi": 41,
            "name": "F2",
            "ticks": 26070,
            "time": 45.26037140625,
            "velocity": 0.14173228346456693
          },
          {
            "duration": 0.16666650000000516,
            "durationTicks": 96,
            "midi": 43,
            "name": "G2",
            "ticks": 26075,
            "time": 45.26905195312499,
            "velocity": 0.15748031496062992
          },
          {
            "duration": 0.16666649999999805,
            "durationTicks": 96,
            "midi": 39,
            "name": "D#2",
            "ticks": 26118,
            "time": 45.34370465625,
            "velocity": 0.16535433070866143
          },
          {
            "duration": 0.1649303906250026,
            "durationTicks": 95,
            "midi": 41,
            "name": "F2",
            "ticks": 26195,
            "time": 45.477385078124996,
            "velocity": 0.14960629921259844
          },
          {
            "duration": 0.16493039062499548,
            "durationTicks": 95,
            "midi": 43,
            "name": "G2",
            "ticks": 26200,
            "time": 45.486065625,
            "velocity": 0.16535433070866143
          },
          {
            "duration": 0.16666649999999805,
            "durationTicks": 96,
            "midi": 39,
            "name": "D#2",
            "ticks": 26277,
            "time": 45.619746046875,
            "velocity": 0.16535433070866143
          },
          {
            "duration": 0.16666649999999805,
            "durationTicks": 96,
            "midi": 60,
            "name": "C4",
            "ticks": 26367,
            "time": 45.775995890625,
            "velocity": 0.14173228346456693
          },
          {
            "duration": 0.16666649999999805,
            "durationTicks": 96,
            "midi": 39,
            "name": "D#2",
            "ticks": 26367,
            "time": 45.775995890625,
            "velocity": 0.2047244094488189
          },
          {
            "duration": 0.16666649999999805,
            "durationTicks": 96,
            "midi": 56,
            "name": "G#3",
            "ticks": 26526,
            "time": 46.05203728125,
            "velocity": 0.2204724409448819
          },
          {
            "duration": 0.16666650000000516,
            "durationTicks": 96,
            "midi": 43,
            "name": "G2",
            "ticks": 26531,
            "time": 46.06071782812499,
            "velocity": 0.2047244094488189
          },
          {
            "duration": 0.16840260937500062,
            "durationTicks": 97,
            "midi": 56,
            "name": "G#3",
            "ticks": 26690,
            "time": 46.33675921875,
            "velocity": 0.2204724409448819
          },
          {
            "duration": 0.16840260937499352,
            "durationTicks": 97,
            "midi": 39,
            "name": "D#2",
            "ticks": 26695,
            "time": 46.345439765625,
            "velocity": 0.2047244094488189
          },
          {
            "duration": 0.16666650000000516,
            "durationTicks": 96,
            "midi": 39,
            "name": "D#2",
            "ticks": 26777,
            "time": 46.48780073437499,
            "velocity": 0.2047244094488189
          },
          {
            "duration": 0.16666649999999805,
            "durationTicks": 96,
            "midi": 56,
            "name": "G#3",
            "ticks": 26855,
            "time": 46.623217265624994,
            "velocity": 0.2125984251968504
          },
          {
            "duration": 0.16666650000000516,
            "durationTicks": 96,
            "midi": 43,
            "name": "G2",
            "ticks": 26860,
            "time": 46.6318978125,
            "velocity": 0.2204724409448819
          },
          {
            "duration": 0.16666650000000516,
            "durationTicks": 96,
            "midi": 56,
            "name": "G#3",
            "ticks": 27023,
            "time": 46.91488364062499,
            "velocity": 0.2204724409448819
          },
          {
            "duration": 0.16666650000000516,
            "durationTicks": 96,
            "midi": 39,
            "name": "D#2",
            "ticks": 27023,
            "time": 46.91488364062499,
            "velocity": 0.2204724409448819
          },
          {
            "duration": 0.16666649999999805,
            "durationTicks": 96,
            "midi": 56,
            "name": "G#3",
            "ticks": 27192,
            "time": 47.208286125,
            "velocity": 0.2047244094488189
          },
          {
            "duration": 0.16666649999999805,
            "durationTicks": 96,
            "midi": 43,
            "name": "G2",
            "ticks": 27192,
            "time": 47.208286125,
            "velocity": 0.2047244094488189
          },
          {
            "duration": 0.16666649999999805,
            "durationTicks": 96,
            "midi": 39,
            "name": "D#2",
            "ticks": 27355,
            "time": 47.491271953125,
            "velocity": 0.2047244094488189
          },
          {
            "duration": 0.16666649999999805,
            "durationTicks": 96,
            "midi": 56,
            "name": "G#3",
            "ticks": 27355,
            "time": 47.491271953125,
            "velocity": 0.2125984251968504
          },
          {
            "duration": 0.16493039062499548,
            "durationTicks": 95,
            "midi": 39,
            "name": "D#2",
            "ticks": 27438,
            "time": 47.63536903125,
            "velocity": 0.2125984251968504
          },
          {
            "duration": 0.16666650000000516,
            "durationTicks": 96,
            "midi": 56,
            "name": "G#3",
            "ticks": 27515,
            "time": 47.76904945312499,
            "velocity": 0.2204724409448819
          },
          {
            "duration": 0.16666650000000516,
            "durationTicks": 96,
            "midi": 43,
            "name": "G2",
            "ticks": 27519,
            "time": 47.775993890624996,
            "velocity": 0.2125984251968504
          },
          {
            "duration": 0.16666649999999805,
            "durationTicks": 96,
            "midi": 39,
            "name": "D#2",
            "ticks": 27683,
            "time": 48.060715828125,
            "velocity": 0.2125984251968504
          },
          {
            "duration": 0.16666649999999805,
            "durationTicks": 96,
            "midi": 52,
            "name": "E3",
            "ticks": 27683,
            "time": 48.060715828125,
            "velocity": 0.14173228346456693
          },
          {
            "duration": 0.16666649999999805,
            "durationTicks": 96,
            "midi": 56,
            "name": "G#3",
            "ticks": 27842,
            "time": 48.336757218749995,
            "velocity": 0.2204724409448819
          },
          {
            "duration": 0.16666649999999805,
            "durationTicks": 96,
            "midi": 43,
            "name": "G2",
            "ticks": 27847,
            "time": 48.345437765625,
            "velocity": 0.2125984251968504
          },
          {
            "duration": 0.16666649999999805,
            "durationTicks": 96,
            "midi": 56,
            "name": "G#3",
            "ticks": 28006,
            "time": 48.621479156250004,
            "velocity": 0.2125984251968504
          },
          {
            "duration": 0.16666650000000516,
            "durationTicks": 96,
            "midi": 39,
            "name": "D#2",
            "ticks": 28011,
            "time": 48.630159703124995,
            "velocity": 0.2047244094488189
          },
          {
            "duration": 0.16666649999999805,
            "durationTicks": 96,
            "midi": 39,
            "name": "D#2",
            "ticks": 28096,
            "time": 48.777729,
            "velocity": 0.2047244094488189
          },
          {
            "duration": 0.16666649999999805,
            "durationTicks": 96,
            "midi": 56,
            "name": "G#3",
            "ticks": 28170,
            "time": 48.90620109375,
            "velocity": 0.2204724409448819
          },
          {
            "duration": 0.16666649999999805,
            "durationTicks": 96,
            "midi": 43,
            "name": "G2",
            "ticks": 28179,
            "time": 48.921826078125,
            "velocity": 0.2125984251968504
          },
          {
            "duration": 0.16666649999999805,
            "durationTicks": 96,
            "midi": 56,
            "name": "G#3",
            "ticks": 28338,
            "time": 49.19786746875,
            "velocity": 0.2204724409448819
          },
          {
            "duration": 0.16666649999999805,
            "durationTicks": 96,
            "midi": 39,
            "name": "D#2",
            "ticks": 28343,
            "time": 49.206548015624996,
            "velocity": 0.2204724409448819
          },
          {
            "duration": 0.16666650000000516,
            "durationTicks": 96,
            "midi": 56,
            "name": "G#3",
            "ticks": 28506,
            "time": 49.489533843749996,
            "velocity": 0.2204724409448819
          },
          {
            "duration": 0.16666650000000516,
            "durationTicks": 96,
            "midi": 43,
            "name": "G2",
            "ticks": 28506,
            "time": 49.489533843749996,
            "velocity": 0.2047244094488189
          },
          {
            "duration": 0.16666649999999805,
            "durationTicks": 96,
            "midi": 56,
            "name": "G#3",
            "ticks": 28670,
            "time": 49.77425578125,
            "velocity": 0.2204724409448819
          },
          {
            "duration": 0.16666649999999805,
            "durationTicks": 96,
            "midi": 39,
            "name": "D#2",
            "ticks": 28670,
            "time": 49.77425578125,
            "velocity": 0.2125984251968504
          },
          {
            "duration": 0.1649303906250026,
            "durationTicks": 95,
            "midi": 39,
            "name": "D#2",
            "ticks": 28753,
            "time": 49.918352859375,
            "velocity": 0.2125984251968504
          },
          {
            "duration": 0.16666649999999805,
            "durationTicks": 96,
            "midi": 56,
            "name": "G#3",
            "ticks": 28834,
            "time": 50.05897771875,
            "velocity": 0.2204724409448819
          },
          {
            "duration": 0.16666649999999805,
            "durationTicks": 96,
            "midi": 43,
            "name": "G2",
            "ticks": 28834,
            "time": 50.05897771875,
            "velocity": 0.2125984251968504
          },
          {
            "duration": 0.16666650000000516,
            "durationTicks": 96,
            "midi": 60,
            "name": "C4",
            "ticks": 29002,
            "time": 50.35064409375,
            "velocity": 0.14173228346456693
          },
          {
            "duration": 0.16666650000000516,
            "durationTicks": 96,
            "midi": 39,
            "name": "D#2",
            "ticks": 29002,
            "time": 50.35064409375,
            "velocity": 0.2125984251968504
          },
          {
            "duration": 0.16666649999999805,
            "durationTicks": 96,
            "midi": 56,
            "name": "G#3",
            "ticks": 29162,
            "time": 50.62842159375,
            "velocity": 0.2204724409448819
          },
          {
            "duration": 0.16666649999999805,
            "durationTicks": 96,
            "midi": 43,
            "name": "G2",
            "ticks": 29166,
            "time": 50.63536603125,
            "velocity": 0.2125984251968504
          },
          {
            "duration": 0.16666649999999805,
            "durationTicks": 96,
            "midi": 56,
            "name": "G#3",
            "ticks": 29330,
            "time": 50.920087968749996,
            "velocity": 0.2204724409448819
          },
          {
            "duration": 0.16666649999999805,
            "durationTicks": 96,
            "midi": 39,
            "name": "D#2",
            "ticks": 29330,
            "time": 50.920087968749996,
            "velocity": 0.2125984251968504
          },
          {
            "duration": 0.16666649999999805,
            "durationTicks": 96,
            "midi": 39,
            "name": "D#2",
            "ticks": 29412,
            "time": 51.0624489375,
            "velocity": 0.2047244094488189
          },
          {
            "duration": 0.16666650000000516,
            "durationTicks": 96,
            "midi": 56,
            "name": "G#3",
            "ticks": 29486,
            "time": 51.19092103124999,
            "velocity": 0.2204724409448819
          },
          {
            "duration": 0.16666649999999805,
            "durationTicks": 96,
            "midi": 43,
            "name": "G2",
            "ticks": 29495,
            "time": 51.206546015624994,
            "velocity": 0.2204724409448819
          },
          {
            "duration": 0.16666649999999805,
            "durationTicks": 96,
            "midi": 56,
            "name": "G#3",
            "ticks": 29654,
            "time": 51.48258740625,
            "velocity": 0.2204724409448819
          },
          {
            "duration": 0.16666649999999805,
            "durationTicks": 96,
            "midi": 39,
            "name": "D#2",
            "ticks": 29658,
            "time": 51.48953184375,
            "velocity": 0.2125984251968504
          },
          {
            "duration": 0.16666650000000516,
            "durationTicks": 96,
            "midi": 56,
            "name": "G#3",
            "ticks": 29818,
            "time": 51.76730934375,
            "velocity": 0.2204724409448819
          },
          {
            "duration": 0.16666649999999805,
            "durationTicks": 96,
            "midi": 43,
            "name": "G2",
            "ticks": 29822,
            "time": 51.774253781249996,
            "velocity": 0.2125984251968504
          },
          {
            "duration": 0.16666650000000516,
            "durationTicks": 96,
            "midi": 56,
            "name": "G#3",
            "ticks": 29986,
            "time": 52.05897571875,
            "velocity": 0.2204724409448819
          },
          {
            "duration": 0.16666649999999805,
            "durationTicks": 96,
            "midi": 39,
            "name": "D#2",
            "ticks": 29990,
            "time": 52.065920156249994,
            "velocity": 0.2125984251968504
          },
          {
            "duration": 0.16666649999999805,
            "durationTicks": 96,
            "midi": 56,
            "name": "G#3",
            "ticks": 30154,
            "time": 52.350642093750004,
            "velocity": 0.2125984251968504
          },
          {
            "duration": 0.16666649999999805,
            "durationTicks": 96,
            "midi": 43,
            "name": "G2",
            "ticks": 30154,
            "time": 52.350642093750004,
            "velocity": 0.2125984251968504
          },
          {
            "duration": 0.16666649999999805,
            "durationTicks": 96,
            "midi": 56,
            "name": "G#3",
            "ticks": 30318,
            "time": 52.63536403125,
            "velocity": 0.2204724409448819
          },
          {
            "duration": 0.16666649999999805,
            "durationTicks": 96,
            "midi": 39,
            "name": "D#2",
            "ticks": 30318,
            "time": 52.63536403125,
            "velocity": 0.2204724409448819
          },
          {
            "duration": 0.16666649999999805,
            "durationTicks": 96,
            "midi": 43,
            "name": "G2",
            "ticks": 30482,
            "time": 52.920085968749994,
            "velocity": 0.2204724409448819
          },
          {
            "duration": 0.16666649999999805,
            "durationTicks": 96,
            "midi": 56,
            "name": "G#3",
            "ticks": 30486,
            "time": 52.92703040625,
            "velocity": 0.2204724409448819
          },
          {
            "duration": 0.16666649999999805,
            "durationTicks": 96,
            "midi": 39,
            "name": "D#2",
            "ticks": 30646,
            "time": 53.204807906250004,
            "velocity": 0.2125984251968504
          },
          {
            "duration": 0.16666650000000516,
            "durationTicks": 96,
            "midi": 56,
            "name": "G#3",
            "ticks": 30650,
            "time": 53.21175234374999,
            "velocity": 0.2204724409448819
          },
          {
            "duration": 0.16666649999999805,
            "durationTicks": 96,
            "midi": 39,
            "name": "D#2",
            "ticks": 30728,
            "time": 53.347168874999994,
            "velocity": 0.2125984251968504
          },
          {
            "duration": 0.16840260937500062,
            "durationTicks": 97,
            "midi": 56,
            "name": "G#3",
            "ticks": 30809,
            "time": 53.487793734374996,
            "velocity": 0.2204724409448819
          },
          {
            "duration": 0.16840260937499352,
            "durationTicks": 97,
            "midi": 43,
            "name": "G2",
            "ticks": 30814,
            "time": 53.49647428125,
            "velocity": 0.2125984251968504
          },
          {
            "duration": 0.16666650000000516,
            "durationTicks": 96,
            "midi": 39,
            "name": "D#2",
            "ticks": 30979,
            "time": 53.782932328125,
            "velocity": 0.1732283464566929
          },
          {
            "duration": 0.16666650000000516,
            "durationTicks": 96,
            "midi": 56,
            "name": "G#3",
            "ticks": 30979,
            "time": 53.782932328125,
            "velocity": 0.2204724409448819
          },
          {
            "duration": 0.16666650000000516,
            "durationTicks": 96,
            "midi": 41,
            "name": "F2",
            "ticks": 30979,
            "time": 53.782932328125,
            "velocity": 0.2047244094488189
          },
          {
            "duration": 0.16666650000000516,
            "durationTicks": 96,
            "midi": 43,
            "name": "G2",
            "ticks": 30979,
            "time": 53.782932328125,
            "velocity": 0.2125984251968504
          },
          {
            "duration": 0.16666649999999805,
            "durationTicks": 96,
            "midi": 43,
            "name": "G2",
            "ticks": 31635,
            "time": 54.921820078125,
            "velocity": 0.2204724409448819
          },
          {
            "duration": 0.16666649999999805,
            "durationTicks": 96,
            "midi": 60,
            "name": "C4",
            "ticks": 31635,
            "time": 54.921820078125,
            "velocity": 0.10236220472440945
          },
          {
            "duration": 0.16666649999999805,
            "durationTicks": 96,
            "midi": 52,
            "name": "E3",
            "ticks": 31635,
            "time": 54.921820078125,
            "velocity": 0.12598425196850394
          },
          {
            "duration": 0.16666649999999805,
            "durationTicks": 96,
            "midi": 44,
            "name": "G#2",
            "ticks": 31635,
            "time": 54.921820078125,
            "velocity": 0.2204724409448819
          },
          {
            "duration": 0.16666649999999805,
            "durationTicks": 96,
            "midi": 39,
            "name": "D#2",
            "ticks": 31635,
            "time": 54.921820078125,
            "velocity": 0.2204724409448819
          },
          {
            "duration": 0.16666649999999805,
            "durationTicks": 96,
            "midi": 60,
            "name": "C4",
            "ticks": 31760,
            "time": 55.138833749999996,
            "velocity": 0.03937007874015748
          },
          {
            "duration": 0.16666649999999805,
            "durationTicks": 96,
            "midi": 52,
            "name": "E3",
            "ticks": 31760,
            "time": 55.138833749999996,
            "velocity": 0.03937007874015748
          },
          {
            "duration": 0.16666649999999805,
            "durationTicks": 96,
            "midi": 52,
            "name": "E3",
            "ticks": 32955,
            "time": 57.213484453125,
            "velocity": 0.11811023622047244
          },
          {
            "duration": 0.16666649999999805,
            "durationTicks": 96,
            "midi": 60,
            "name": "C4",
            "ticks": 32955,
            "time": 57.213484453125,
            "velocity": 0.11023622047244094
          },
          {
            "duration": 0.16666649999999805,
            "durationTicks": 96,
            "midi": 43,
            "name": "G2",
            "ticks": 32955,
            "time": 57.213484453125,
            "velocity": 0.2204724409448819
          },
          {
            "duration": 0.16666649999999805,
            "durationTicks": 96,
            "midi": 39,
            "name": "D#2",
            "ticks": 32955,
            "time": 57.213484453125,
            "velocity": 0.2204724409448819
          },
          {
            "duration": 0.16666649999999805,
            "durationTicks": 96,
            "midi": 44,
            "name": "G#2",
            "ticks": 32955,
            "time": 57.213484453125,
            "velocity": 0.2204724409448819
          },
          {
            "duration": 0.16666650000000516,
            "durationTicks": 96,
            "midi": 60,
            "name": "C4",
            "ticks": 33080,
            "time": 57.43049812499999,
            "velocity": 0.03937007874015748
          },
          {
            "duration": 0.16666650000000516,
            "durationTicks": 96,
            "midi": 52,
            "name": "E3",
            "ticks": 33080,
            "time": 57.43049812499999,
            "velocity": 0.03937007874015748
          },
          {
            "duration": 0.16666649999999805,
            "durationTicks": 96,
            "midi": 43,
            "name": "G2",
            "ticks": 34271,
            "time": 59.498204390625,
            "velocity": 0.2125984251968504
          },
          {
            "duration": 0.16666649999999805,
            "durationTicks": 96,
            "midi": 44,
            "name": "G#2",
            "ticks": 34271,
            "time": 59.498204390625,
            "velocity": 0.2204724409448819
          },
          {
            "duration": 0.16666649999999805,
            "durationTicks": 96,
            "midi": 39,
            "name": "D#2",
            "ticks": 34271,
            "time": 59.498204390625,
            "velocity": 0.2125984251968504
          },
          {
            "duration": 0.16666649999999805,
            "durationTicks": 96,
            "midi": 60,
            "name": "C4",
            "ticks": 34271,
            "time": 59.498204390625,
            "velocity": 0.09448818897637795
          },
          {
            "duration": 0.16666649999999805,
            "durationTicks": 96,
            "midi": 52,
            "name": "E3",
            "ticks": 34271,
            "time": 59.498204390625,
            "velocity": 0.12598425196850394
          },
          {
            "duration": 0.16666649999999805,
            "durationTicks": 96,
            "midi": 52,
            "name": "E3",
            "ticks": 34396,
            "time": 59.7152180625,
            "velocity": 0.03937007874015748
          },
          {
            "duration": 0.16666649999999805,
            "durationTicks": 96,
            "midi": 60,
            "name": "C4",
            "ticks": 34396,
            "time": 59.7152180625,
            "velocity": 0.03937007874015748
          },
          {
            "duration": 0.16666649999999805,
            "durationTicks": 96,
            "midi": 44,
            "name": "G#2",
            "ticks": 35591,
            "time": 61.789868765624995,
            "velocity": 0.2204724409448819
          },
          {
            "duration": 0.16666649999999805,
            "durationTicks": 96,
            "midi": 39,
            "name": "D#2",
            "ticks": 35591,
            "time": 61.789868765624995,
            "velocity": 0.2204724409448819
          },
          {
            "duration": 0.16666649999999805,
            "durationTicks": 96,
            "midi": 60,
            "name": "C4",
            "ticks": 35591,
            "time": 61.789868765624995,
            "velocity": 0.11811023622047244
          },
          {
            "duration": 0.16666649999999805,
            "durationTicks": 96,
            "midi": 43,
            "name": "G2",
            "ticks": 35591,
            "time": 61.789868765624995,
            "velocity": 0.2204724409448819
          },
          {
            "duration": 0.16666649999999805,
            "durationTicks": 96,
            "midi": 52,
            "name": "E3",
            "ticks": 35591,
            "time": 61.789868765624995,
            "velocity": 0.12598425196850394
          },
          {
            "duration": 0.16666649999999805,
            "durationTicks": 96,
            "midi": 60,
            "name": "C4",
            "ticks": 35712,
            "time": 61.999938,
            "velocity": 0.03937007874015748
          },
          {
            "duration": 0.16666649999999805,
            "durationTicks": 96,
            "midi": 52,
            "name": "E3",
            "ticks": 35712,
            "time": 61.999938,
            "velocity": 0.03937007874015748
          },
          {
            "duration": 0.16666650000000516,
            "durationTicks": 96,
            "midi": 44,
            "name": "G#2",
            "ticks": 36252,
            "time": 62.937437062499995,
            "velocity": 0.15748031496062992
          },
          {
            "duration": 0.16666650000000516,
            "durationTicks": 96,
            "midi": 43,
            "name": "G2",
            "ticks": 36252,
            "time": 62.937437062499995,
            "velocity": 0.15748031496062992
          },
          {
            "duration": 0.16493039062499548,
            "durationTicks": 95,
            "midi": 39,
            "name": "D#2",
            "ticks": 36334,
            "time": 63.07979803125,
            "velocity": 0.16535433070866143
          },
          {
            "duration": 0.1649303906250026,
            "durationTicks": 95,
            "midi": 44,
            "name": "G#2",
            "ticks": 36416,
            "time": 63.222159,
            "velocity": 0.15748031496062992
          },
          {
            "duration": 0.1649303906250026,
            "durationTicks": 95,
            "midi": 43,
            "name": "G2",
            "ticks": 36416,
            "time": 63.222159,
            "velocity": 0.15748031496062992
          },
          {
            "duration": 0.1649303906250097,
            "durationTicks": 95,
            "midi": 39,
            "name": "D#2",
            "ticks": 36497,
            "time": 63.36278385937499,
            "velocity": 0.15748031496062992
          },
          {
            "duration": 0.1649303906250097,
            "durationTicks": 95,
            "midi": 44,
            "name": "G#2",
            "ticks": 36578,
            "time": 63.503408718749995,
            "velocity": 0.15748031496062992
          },
          {
            "duration": 0.1649303906250097,
            "durationTicks": 95,
            "midi": 39,
            "name": "D#2",
            "ticks": 36578,
            "time": 63.503408718749995,
            "velocity": 0.16535433070866143
          },
          {
            "duration": 0.1649303906250097,
            "durationTicks": 95,
            "midi": 43,
            "name": "G2",
            "ticks": 36578,
            "time": 63.503408718749995,
            "velocity": 0.15748031496062992
          },
          {
            "duration": 0.16493039062499548,
            "durationTicks": 95,
            "midi": 44,
            "name": "G#2",
            "ticks": 36660,
            "time": 63.6457696875,
            "velocity": 0.14960629921259844
          },
          {
            "duration": 0.16493039062499548,
            "durationTicks": 95,
            "midi": 39,
            "name": "D#2",
            "ticks": 36660,
            "time": 63.6457696875,
            "velocity": 0.16535433070866143
          },
          {
            "duration": 0.16493039062499548,
            "durationTicks": 95,
            "midi": 43,
            "name": "G2",
            "ticks": 36660,
            "time": 63.6457696875,
            "velocity": 0.14173228346456693
          },
          {
            "duration": 0.1649303906250026,
            "durationTicks": 95,
            "midi": 44,
            "name": "G#2",
            "ticks": 36741,
            "time": 63.786394546874995,
            "velocity": 0.16535433070866143
          },
          {
            "duration": 0.1649303906250026,
            "durationTicks": 95,
            "midi": 43,
            "name": "G2",
            "ticks": 36741,
            "time": 63.786394546874995,
            "velocity": 0.15748031496062992
          },
          {
            "duration": 0.1649303906250026,
            "durationTicks": 95,
            "midi": 39,
            "name": "D#2",
            "ticks": 36741,
            "time": 63.786394546874995,
            "velocity": 0.15748031496062992
          },
          {
            "duration": 0.16666650000000516,
            "durationTicks": 96,
            "midi": 43,
            "name": "G2",
            "ticks": 36823,
            "time": 63.928755515625,
            "velocity": 0.15748031496062992
          },
          {
            "duration": 0.16666650000000516,
            "durationTicks": 96,
            "midi": 44,
            "name": "G#2",
            "ticks": 36823,
            "time": 63.928755515625,
            "velocity": 0.16535433070866143
          },
          {
            "duration": 0.16666650000000516,
            "durationTicks": 96,
            "midi": 39,
            "name": "D#2",
            "ticks": 36823,
            "time": 63.928755515625,
            "velocity": 0.16535433070866143
          },
          {
            "duration": 0.16840260937499352,
            "durationTicks": 97,
            "midi": 39,
            "name": "D#2",
            "ticks": 36904,
            "time": 64.069380375,
            "velocity": 0.2047244094488189
          },
          {
            "duration": 0.16840260937500773,
            "durationTicks": 97,
            "midi": 49,
            "name": "C#3",
            "ticks": 36908,
            "time": 64.07632481249999,
            "velocity": 0.12598425196850394
          },
          {
            "duration": 0.16666649999999095,
            "durationTicks": 96,
            "midi": 43,
            "name": "G2",
            "ticks": 37069,
            "time": 64.355838421875,
            "velocity": 0.2047244094488189
          },
          {
            "duration": 0.16666650000000516,
            "durationTicks": 96,
            "midi": 49,
            "name": "C#3",
            "ticks": 37078,
            "time": 64.37146340625,
            "velocity": 0.14960629921259844
          },
          {
            "duration": 0.16666650000000516,
            "durationTicks": 96,
            "midi": 39,
            "name": "D#2",
            "ticks": 37237,
            "time": 64.647504796875,
            "velocity": 0.2047244094488189
          },
          {
            "duration": 0.16666649999999095,
            "durationTicks": 96,
            "midi": 49,
            "name": "C#3",
            "ticks": 37246,
            "time": 64.66312978125,
            "velocity": 0.14173228346456693
          },
          {
            "duration": 0.16666650000000516,
            "durationTicks": 96,
            "midi": 39,
            "name": "D#2",
            "ticks": 37319,
            "time": 64.789865765625,
            "velocity": 0.2047244094488189
          },
          {
            "duration": 0.16666650000000516,
            "durationTicks": 96,
            "midi": 43,
            "name": "G2",
            "ticks": 37402,
            "time": 64.93396284375,
            "velocity": 0.2204724409448819
          },
          {
            "duration": 0.16666650000000516,
            "durationTicks": 96,
            "midi": 49,
            "name": "C#3",
            "ticks": 37414,
            "time": 64.95479615625,
            "velocity": 0.14173228346456693
          },
          {
            "duration": 0.16666649999999095,
            "durationTicks": 96,
            "midi": 39,
            "name": "D#2",
            "ticks": 37566,
            "time": 65.21868478125,
            "velocity": 0.2204724409448819
          },
          {
            "duration": 0.16666650000000516,
            "durationTicks": 96,
            "midi": 49,
            "name": "C#3",
            "ticks": 37575,
            "time": 65.234309765625,
            "velocity": 0.13385826771653545
          },
          {
            "duration": 0.16666649999999095,
            "durationTicks": 96,
            "midi": 43,
            "name": "G2",
            "ticks": 37730,
            "time": 65.50340671875,
            "velocity": 0.2047244094488189
          },
          {
            "duration": 0.16666649999999095,
            "durationTicks": 96,
            "midi": 49,
            "name": "C#3",
            "ticks": 37743,
            "time": 65.525976140625,
            "velocity": 0.12598425196850394
          },
          {
            "duration": 0.16666650000000516,
            "durationTicks": 96,
            "midi": 39,
            "name": "D#2",
            "ticks": 37894,
            "time": 65.78812865625,
            "velocity": 0.2047244094488189
          },
          {
            "duration": 0.16666649999999095,
            "durationTicks": 96,
            "midi": 49,
            "name": "C#3",
            "ticks": 37903,
            "time": 65.803753640625,
            "velocity": 0.13385826771653545
          },
          {
            "duration": 0.16666650000000516,
            "durationTicks": 96,
            "midi": 39,
            "name": "D#2",
            "ticks": 37977,
            "time": 65.932225734375,
            "velocity": 0.2125984251968504
          },
          {
            "duration": 0.16666650000000516,
            "durationTicks": 96,
            "midi": 43,
            "name": "G2",
            "ticks": 38062,
            "time": 66.07979503125,
            "velocity": 0.2125984251968504
          },
          {
            "duration": 0.16666650000000516,
            "durationTicks": 96,
            "midi": 49,
            "name": "C#3",
            "ticks": 38067,
            "time": 66.088475578125,
            "velocity": 0.13385826771653545
          },
          {
            "duration": 0.16666650000000516,
            "durationTicks": 96,
            "midi": 39,
            "name": "D#2",
            "ticks": 38226,
            "time": 66.36451696875,
            "velocity": 0.2125984251968504
          },
          {
            "duration": 0.16666650000000516,
            "durationTicks": 96,
            "midi": 49,
            "name": "C#3",
            "ticks": 38231,
            "time": 66.373197515625,
            "velocity": 0.11811023622047244
          },
          {
            "duration": 0.16666650000000516,
            "durationTicks": 96,
            "midi": 43,
            "name": "G2",
            "ticks": 38390,
            "time": 66.64923890624999,
            "velocity": 0.2125984251968504
          },
          {
            "duration": 0.16666649999999095,
            "durationTicks": 96,
            "midi": 49,
            "name": "C#3",
            "ticks": 38399,
            "time": 66.664863890625,
            "velocity": 0.12598425196850394
          },
          {
            "duration": 0.1649303906250168,
            "durationTicks": 95,
            "midi": 39,
            "name": "D#2",
            "ticks": 38555,
            "time": 66.93569695312499,
            "velocity": 0.2047244094488189
          },
          {
            "duration": 0.16493039062498838,
            "durationTicks": 95,
            "midi": 49,
            "name": "C#3",
            "ticks": 38572,
            "time": 66.9652108125,
            "velocity": 0.11023622047244094
          },
          {
            "duration": 0.1649303906250026,
            "durationTicks": 95,
            "midi": 39,
            "name": "D#2",
            "ticks": 38636,
            "time": 67.0763218125,
            "velocity": 0.2047244094488189
          },
          {
            "duration": 0.16666650000000516,
            "durationTicks": 96,
            "midi": 43,
            "name": "G2",
            "ticks": 38718,
            "time": 67.21868278125,
            "velocity": 0.2125984251968504
          },
          {
            "duration": 0.16666650000000516,
            "durationTicks": 96,
            "midi": 49,
            "name": "C#3",
            "ticks": 38730,
            "time": 67.23951609375,
            "velocity": 0.13385826771653545
          },
          {
            "duration": 0.16666650000000516,
            "durationTicks": 96,
            "midi": 49,
            "name": "C#3",
            "ticks": 38881,
            "time": 67.501668609375,
            "velocity": 0.13385826771653545
          },
          {
            "duration": 0.16666650000000516,
            "durationTicks": 96,
            "midi": 39,
            "name": "D#2",
            "ticks": 38881,
            "time": 67.501668609375,
            "velocity": 0.2204724409448819
          },
          {
            "duration": 0.16666650000000516,
            "durationTicks": 96,
            "midi": 43,
            "name": "G2",
            "ticks": 39050,
            "time": 67.79507109375,
            "velocity": 0.2047244094488189
          },
          {
            "duration": 0.16666650000000516,
            "durationTicks": 96,
            "midi": 49,
            "name": "C#3",
            "ticks": 39050,
            "time": 67.79507109375,
            "velocity": 0.11811023622047244
          },
          {
            "duration": 0.16666649999999095,
            "durationTicks": 96,
            "midi": 39,
            "name": "D#2",
            "ticks": 39213,
            "time": 68.078056921875,
            "velocity": 0.2125984251968504
          },
          {
            "duration": 0.16666649999999095,
            "durationTicks": 96,
            "midi": 49,
            "name": "C#3",
            "ticks": 39213,
            "time": 68.078056921875,
            "velocity": 0.12598425196850394
          },
          {
            "duration": 0.16666650000000516,
            "durationTicks": 96,
            "midi": 39,
            "name": "D#2",
            "ticks": 39296,
            "time": 68.22215399999999,
            "velocity": 0.2125984251968504
          },
          {
            "duration": 0.16840260937499352,
            "durationTicks": 97,
            "midi": 43,
            "name": "G2",
            "ticks": 39377,
            "time": 68.362778859375,
            "velocity": 0.2125984251968504
          },
          {
            "duration": 0.16840260937499352,
            "durationTicks": 97,
            "midi": 49,
            "name": "C#3",
            "ticks": 39382,
            "time": 68.37145940625,
            "velocity": 0.12598425196850394
          },
          {
            "duration": 0.16666650000000516,
            "durationTicks": 96,
            "midi": 49,
            "name": "C#3",
            "ticks": 39542,
            "time": 68.64923690625,
            "velocity": 0.13385826771653545
          },
          {
            "duration": 0.16666650000000516,
            "durationTicks": 96,
            "midi": 39,
            "name": "D#2",
            "ticks": 39542,
            "time": 68.64923690625,
            "velocity": 0.2125984251968504
          },
          {
            "duration": 0.16666649999999095,
            "durationTicks": 96,
            "midi": 49,
            "name": "C#3",
            "ticks": 39706,
            "time": 68.93395884375,
            "velocity": 0.11811023622047244
          },
          {
            "duration": 0.16666649999999095,
            "durationTicks": 96,
            "midi": 43,
            "name": "G2",
            "ticks": 39706,
            "time": 68.93395884375,
            "velocity": 0.2125984251968504
          },
          {
            "duration": 0.16840260937499352,
            "durationTicks": 97,
            "midi": 49,
            "name": "C#3",
            "ticks": 39870,
            "time": 69.21868078125,
            "velocity": 0.14173228346456693
          },
          {
            "duration": 0.16840260937499352,
            "durationTicks": 97,
            "midi": 39,
            "name": "D#2",
            "ticks": 39874,
            "time": 69.22562521875,
            "velocity": 0.2125984251968504
          },
          {
            "duration": 0.16666650000000516,
            "durationTicks": 96,
            "midi": 39,
            "name": "D#2",
            "ticks": 39956,
            "time": 69.3679861875,
            "velocity": 0.2047244094488189
          },
          {
            "duration": 0.16666650000000516,
            "durationTicks": 96,
            "midi": 49,
            "name": "C#3",
            "ticks": 40034,
            "time": 69.50340271875,
            "velocity": 0.12598425196850394
          },
          {
            "duration": 0.16666650000000516,
            "durationTicks": 96,
            "midi": 43,
            "name": "G2",
            "ticks": 40039,
            "time": 69.512083265625,
            "velocity": 0.2204724409448819
          },
          {
            "duration": 0.16666649999999095,
            "durationTicks": 96,
            "midi": 39,
            "name": "D#2",
            "ticks": 40203,
            "time": 69.796805203125,
            "velocity": 0.2125984251968504
          },
          {
            "duration": 0.16666650000000516,
            "durationTicks": 96,
            "midi": 49,
            "name": "C#3",
            "ticks": 40207,
            "time": 69.803749640625,
            "velocity": 0.11023622047244094
          },
          {
            "duration": 0.16666650000000516,
            "durationTicks": 96,
            "midi": 43,
            "name": "G2",
            "ticks": 40366,
            "time": 70.07979103125,
            "velocity": 0.2125984251968504
          },
          {
            "duration": 0.16666650000000516,
            "durationTicks": 96,
            "midi": 49,
            "name": "C#3",
            "ticks": 40371,
            "time": 70.088471578125,
            "velocity": 0.13385826771653545
          },
          {
            "duration": 0.16666650000000516,
            "durationTicks": 96,
            "midi": 49,
            "name": "C#3",
            "ticks": 40530,
            "time": 70.36451296874999,
            "velocity": 0.12598425196850394
          },
          {
            "duration": 0.16666650000000516,
            "durationTicks": 96,
            "midi": 39,
            "name": "D#2",
            "ticks": 40530,
            "time": 70.36451296874999,
            "velocity": 0.2125984251968504
          },
          {
            "duration": 0.16666649999999095,
            "durationTicks": 96,
            "midi": 43,
            "name": "G2",
            "ticks": 40694,
            "time": 70.64923490625,
            "velocity": 0.2125984251968504
          },
          {
            "duration": 0.16666650000000516,
            "durationTicks": 96,
            "midi": 49,
            "name": "C#3",
            "ticks": 40703,
            "time": 70.664859890625,
            "velocity": 0.12598425196850394
          },
          {
            "duration": 0.16666650000000516,
            "durationTicks": 96,
            "midi": 49,
            "name": "C#3",
            "ticks": 40862,
            "time": 70.94090128124999,
            "velocity": 0.12598425196850394
          },
          {
            "duration": 0.16666650000000516,
            "durationTicks": 96,
            "midi": 39,
            "name": "D#2",
            "ticks": 40862,
            "time": 70.94090128124999,
            "velocity": 0.2204724409448819
          },
          {
            "duration": 0.16666650000000516,
            "durationTicks": 96,
            "midi": 49,
            "name": "C#3",
            "ticks": 41022,
            "time": 71.21867878124999,
            "velocity": 0.12598425196850394
          },
          {
            "duration": 0.16666650000000516,
            "durationTicks": 96,
            "midi": 43,
            "name": "G2",
            "ticks": 41026,
            "time": 71.22562321875,
            "velocity": 0.2204724409448819
          },
          {
            "duration": 0.16666650000000516,
            "durationTicks": 96,
            "midi": 39,
            "name": "D#2",
            "ticks": 41190,
            "time": 71.51034515625,
            "velocity": 0.2125984251968504
          },
          {
            "duration": 0.16666650000000516,
            "durationTicks": 96,
            "midi": 49,
            "name": "C#3",
            "ticks": 41190,
            "time": 71.51034515625,
            "velocity": 0.12598425196850394
          },
          {
            "duration": 0.16666650000000516,
            "durationTicks": 96,
            "midi": 39,
            "name": "D#2",
            "ticks": 41272,
            "time": 71.652706125,
            "velocity": 0.2125984251968504
          },
          {
            "duration": 0.16840260937500773,
            "durationTicks": 97,
            "midi": 43,
            "name": "G2",
            "ticks": 41354,
            "time": 71.79506709374999,
            "velocity": 0.2125984251968504
          },
          {
            "duration": 0.16840260937499352,
            "durationTicks": 97,
            "midi": 49,
            "name": "C#3",
            "ticks": 41358,
            "time": 71.80201153125,
            "velocity": 0.12598425196850394
          },
          {
            "duration": 0.16666650000000516,
            "durationTicks": 96,
            "midi": 39,
            "name": "D#2",
            "ticks": 41518,
            "time": 72.07978903125,
            "velocity": 0.14173228346456693
          },
          {
            "duration": 0.16666649999999095,
            "durationTicks": 96,
            "midi": 53,
            "name": "F3",
            "ticks": 41523,
            "time": 72.088469578125,
            "velocity": 0.15748031496062992
          },
          {
            "duration": 0.16666650000000516,
            "durationTicks": 96,
            "midi": 43,
            "name": "G2",
            "ticks": 41527,
            "time": 72.095414015625,
            "velocity": 0.14173228346456693
          },
          {
            "duration": 0.16666649999999095,
            "durationTicks": 96,
            "midi": 39,
            "name": "D#2",
            "ticks": 41601,
            "time": 72.223886109375,
            "velocity": 0.16535433070866143
          },
          {
            "duration": 0.16666650000000516,
            "durationTicks": 96,
            "midi": 39,
            "name": "D#2",
            "ticks": 41687,
            "time": 72.373191515625,
            "velocity": 0.16535433070866143
          },
          {
            "duration": 0.16666650000000516,
            "durationTicks": 96,
            "midi": 43,
            "name": "G2",
            "ticks": 41691,
            "time": 72.38013595312499,
            "velocity": 0.14960629921259844
          },
          {
            "duration": 0.16666650000000516,
            "durationTicks": 96,
            "midi": 50,
            "name": "D3",
            "ticks": 41696,
            "time": 72.38881649999999,
            "velocity": 0.14960629921259844
          },
          {
            "duration": 0.16666650000000516,
            "durationTicks": 96,
            "midi": 39,
            "name": "D#2",
            "ticks": 41769,
            "time": 72.515552484375,
            "velocity": 0.16535433070866143
          },
          {
            "duration": 0.1649303906250026,
            "durationTicks": 95,
            "midi": 39,
            "name": "D#2",
            "ticks": 41852,
            "time": 72.6596495625,
            "velocity": 0.14960629921259844
          },
          {
            "duration": 0.1649303906250026,
            "durationTicks": 95,
            "midi": 48,
            "name": "C3",
            "ticks": 41864,
            "time": 72.680482875,
            "velocity": 0.16535433070866143
          },
          {
            "duration": 0.1649303906250026,
            "durationTicks": 95,
            "midi": 43,
            "name": "G2",
            "ticks": 41868,
            "time": 72.68742731249999,
            "velocity": 0.15748031496062992
          },
          {
            "duration": 0.1649303906250168,
            "durationTicks": 95,
            "midi": 39,
            "name": "D#2",
            "ticks": 41933,
            "time": 72.80027442187499,
            "velocity": 0.16535433070866143
          },
          {
            "duration": 0.1649303906250026,
            "durationTicks": 95,
            "midi": 39,
            "name": "D#2",
            "ticks": 42014,
            "time": 72.94089928125,
            "velocity": 0.16535433070866143
          },
          {
            "duration": 0.16493039062498838,
            "durationTicks": 95,
            "midi": 43,
            "name": "G2",
            "ticks": 42027,
            "time": 72.963468703125,
            "velocity": 0.15748031496062992
          },
          {
            "duration": 0.1649303906250026,
            "durationTicks": 95,
            "midi": 44,
            "name": "G#2",
            "ticks": 42031,
            "time": 72.970413140625,
            "velocity": 0.12598425196850394
          },
          {
            "duration": 0.1649303906250026,
            "durationTicks": 95,
            "midi": 39,
            "name": "D#2",
            "ticks": 42096,
            "time": 73.08326025,
            "velocity": 0.16535433070866143
          },
          {
            "duration": 0.16666649999999095,
            "durationTicks": 96,
            "midi": 54,
            "name": "F#3",
            "ticks": 42177,
            "time": 73.223885109375,
            "velocity": 0.1968503937007874
          },
          {
            "duration": 0.16666649999999095,
            "durationTicks": 96,
            "midi": 39,
            "name": "D#2",
            "ticks": 42177,
            "time": 73.223885109375,
            "velocity": 0.2047244094488189
          },
          {
            "duration": 0.16666649999999095,
            "durationTicks": 96,
            "midi": 54,
            "name": "F#3",
            "ticks": 42341,
            "time": 73.508607046875,
            "velocity": 0.2047244094488189
          },
          {
            "duration": 0.16666649999999095,
            "durationTicks": 96,
            "midi": 43,
            "name": "G2",
            "ticks": 42341,
            "time": 73.508607046875,
            "velocity": 0.2047244094488189
          },
          {
            "duration": 0.16666650000000516,
            "durationTicks": 96,
            "midi": 39,
            "name": "D#2",
            "ticks": 42505,
            "time": 73.793328984375,
            "velocity": 0.2047244094488189
          },
          {
            "duration": 0.16666650000000516,
            "durationTicks": 96,
            "midi": 54,
            "name": "F#3",
            "ticks": 42505,
            "time": 73.793328984375,
            "velocity": 0.2047244094488189
          },
          {
            "duration": 0.16666649999999095,
            "durationTicks": 96,
            "midi": 39,
            "name": "D#2",
            "ticks": 42591,
            "time": 73.942634390625,
            "velocity": 0.2047244094488189
          },
          {
            "duration": 0.16666650000000516,
            "durationTicks": 96,
            "midi": 43,
            "name": "G2",
            "ticks": 42673,
            "time": 74.084995359375,
            "velocity": 0.2204724409448819
          },
          {
            "duration": 0.16666650000000516,
            "durationTicks": 96,
            "midi": 54,
            "name": "F#3",
            "ticks": 42673,
            "time": 74.084995359375,
            "velocity": 0.1968503937007874
          },
          {
            "duration": 0.16666650000000516,
            "durationTicks": 96,
            "midi": 54,
            "name": "F#3",
            "ticks": 42837,
            "time": 74.369717296875,
            "velocity": 0.2047244094488189
          },
          {
            "duration": 0.16666650000000516,
            "durationTicks": 96,
            "midi": 39,
            "name": "D#2",
            "ticks": 42837,
            "time": 74.369717296875,
            "velocity": 0.2204724409448819
          },
          {
            "duration": 0.16666650000000516,
            "durationTicks": 96,
            "midi": 43,
            "name": "G2",
            "ticks": 43001,
            "time": 74.65443923437499,
            "velocity": 0.2047244094488189
          },
          {
            "duration": 0.16666650000000516,
            "durationTicks": 96,
            "midi": 54,
            "name": "F#3",
            "ticks": 43001,
            "time": 74.65443923437499,
            "velocity": 0.2125984251968504
          },
          {
            "duration": 0.16666650000000516,
            "durationTicks": 96,
            "midi": 54,
            "name": "F#3",
            "ticks": 43164,
            "time": 74.9374250625,
            "velocity": 0.1968503937007874
          },
          {
            "duration": 0.16666650000000516,
            "durationTicks": 96,
            "midi": 39,
            "name": "D#2",
            "ticks": 43164,
            "time": 74.9374250625,
            "velocity": 0.2047244094488189
          },
          {
            "duration": 0.1649303906250026,
            "durationTicks": 95,
            "midi": 39,
            "name": "D#2",
            "ticks": 43247,
            "time": 75.081522140625,
            "velocity": 0.2125984251968504
          },
          {
            "duration": 0.16666650000000516,
            "durationTicks": 96,
            "midi": 43,
            "name": "G2",
            "ticks": 43328,
            "time": 75.22214699999999,
            "velocity": 0.2125984251968504
          },
          {
            "duration": 0.16666650000000516,
            "durationTicks": 96,
            "midi": 54,
            "name": "F#3",
            "ticks": 43328,
            "time": 75.22214699999999,
            "velocity": 0.1968503937007874
          },
          {
            "duration": 0.16666649999999095,
            "durationTicks": 96,
            "midi": 39,
            "name": "D#2",
            "ticks": 43496,
            "time": 75.513813375,
            "velocity": 0.2125984251968504
          },
          {
            "duration": 0.16666649999999095,
            "durationTicks": 96,
            "midi": 54,
            "name": "F#3",
            "ticks": 43496,
            "time": 75.513813375,
            "velocity": 0.1889763779527559
          },
          {
            "duration": 0.16666649999999095,
            "durationTicks": 96,
            "midi": 43,
            "name": "G2",
            "ticks": 43660,
            "time": 75.79853531250001,
            "velocity": 0.2125984251968504
          },
          {
            "duration": 0.16666649999999095,
            "durationTicks": 96,
            "midi": 54,
            "name": "F#3",
            "ticks": 43660,
            "time": 75.79853531250001,
            "velocity": 0.1968503937007874
          },
          {
            "duration": 0.16666649999999095,
            "durationTicks": 96,
            "midi": 39,
            "name": "D#2",
            "ticks": 43824,
            "time": 76.08325725,
            "velocity": 0.2047244094488189
          },
          {
            "duration": 0.16666649999999095,
            "durationTicks": 96,
            "midi": 54,
            "name": "F#3",
            "ticks": 43824,
            "time": 76.08325725,
            "velocity": 0.18110236220472442
          },
          {
            "duration": 0.1649303906250026,
            "durationTicks": 95,
            "midi": 39,
            "name": "D#2",
            "ticks": 43906,
            "time": 76.22561821875,
            "velocity": 0.2047244094488189
          },
          {
            "duration": 0.16666649999999095,
            "durationTicks": 96,
            "midi": 54,
            "name": "F#3",
            "ticks": 43988,
            "time": 76.3679791875,
            "velocity": 0.1968503937007874
          },
          {
            "duration": 0.16666649999999095,
            "durationTicks": 96,
            "midi": 43,
            "name": "G2",
            "ticks": 43988,
            "time": 76.3679791875,
            "velocity": 0.2125984251968504
          },
          {
            "duration": 0.16666649999999095,
            "durationTicks": 96,
            "midi": 54,
            "name": "F#3",
            "ticks": 44152,
            "time": 76.65270112500001,
            "velocity": 0.18110236220472442
          },
          {
            "duration": 0.16666649999999095,
            "durationTicks": 96,
            "midi": 39,
            "name": "D#2",
            "ticks": 44152,
            "time": 76.65270112500001,
            "velocity": 0.2204724409448819
          },
          {
            "duration": 0.16666649999999095,
            "durationTicks": 96,
            "midi": 43,
            "name": "G2",
            "ticks": 44315,
            "time": 76.935686953125,
            "velocity": 0.2047244094488189
          },
          {
            "duration": 0.16666649999999095,
            "durationTicks": 96,
            "midi": 54,
            "name": "F#3",
            "ticks": 44315,
            "time": 76.935686953125,
            "velocity": 0.1889763779527559
          },
          {
            "duration": 0.16666650000000516,
            "durationTicks": 96,
            "midi": 39,
            "name": "D#2",
            "ticks": 44484,
            "time": 77.2290894375,
            "velocity": 0.2125984251968504
          },
          {
            "duration": 0.16666650000000516,
            "durationTicks": 96,
            "midi": 54,
            "name": "F#3",
            "ticks": 44484,
            "time": 77.2290894375,
            "velocity": 0.2047244094488189
          },
          {
            "duration": 0.16493039062498838,
            "durationTicks": 95,
            "midi": 39,
            "name": "D#2",
            "ticks": 44566,
            "time": 77.37145040625,
            "velocity": 0.2125984251968504
          },
          {
            "duration": 0.16666650000000516,
            "durationTicks": 96,
            "midi": 43,
            "name": "G2",
            "ticks": 44647,
            "time": 77.512075265625,
            "velocity": 0.2125984251968504
          },
          {
            "duration": 0.16666650000000516,
            "durationTicks": 96,
            "midi": 54,
            "name": "F#3",
            "ticks": 44647,
            "time": 77.512075265625,
            "velocity": 0.1889763779527559
          },
          {
            "duration": 0.16666650000000516,
            "durationTicks": 96,
            "midi": 39,
            "name": "D#2",
            "ticks": 44811,
            "time": 77.796797203125,
            "velocity": 0.2125984251968504
          },
          {
            "duration": 0.16666650000000516,
            "durationTicks": 96,
            "midi": 54,
            "name": "F#3",
            "ticks": 44811,
            "time": 77.796797203125,
            "velocity": 0.1889763779527559
          },
          {
            "duration": 0.16666650000000516,
            "durationTicks": 96,
            "midi": 54,
            "name": "F#3",
            "ticks": 44975,
            "time": 78.08151914062499,
            "velocity": 0.2047244094488189
          },
          {
            "duration": 0.16666650000000516,
            "durationTicks": 96,
            "midi": 43,
            "name": "G2",
            "ticks": 44975,
            "time": 78.08151914062499,
            "velocity": 0.2125984251968504
          },
          {
            "duration": 0.16666650000000516,
            "durationTicks": 96,
            "midi": 54,
            "name": "F#3",
            "ticks": 45139,
            "time": 78.366241078125,
            "velocity": 0.1889763779527559
          },
          {
            "duration": 0.16666650000000516,
            "durationTicks": 96,
            "midi": 39,
            "name": "D#2",
            "ticks": 45139,
            "time": 78.366241078125,
            "velocity": 0.2125984251968504
          },
          {
            "duration": 0.16666649999999095,
            "durationTicks": 96,
            "midi": 39,
            "name": "D#2",
            "ticks": 45221,
            "time": 78.508602046875,
            "velocity": 0.2047244094488189
          },
          {
            "duration": 0.16666649999999095,
            "durationTicks": 96,
            "midi": 54,
            "name": "F#3",
            "ticks": 45307,
            "time": 78.657907453125,
            "velocity": 0.2047244094488189
          },
          {
            "duration": 0.16666649999999095,
            "durationTicks": 96,
            "midi": 43,
            "name": "G2",
            "ticks": 45307,
            "time": 78.657907453125,
            "velocity": 0.2204724409448819
          },
          {
            "duration": 0.16666649999999095,
            "durationTicks": 96,
            "midi": 54,
            "name": "F#3",
            "ticks": 45471,
            "time": 78.942629390625,
            "velocity": 0.1968503937007874
          },
          {
            "duration": 0.16666649999999095,
            "durationTicks": 96,
            "midi": 39,
            "name": "D#2",
            "ticks": 45471,
            "time": 78.942629390625,
            "velocity": 0.2125984251968504
          },
          {
            "duration": 0.16666650000000516,
            "durationTicks": 96,
            "midi": 54,
            "name": "F#3",
            "ticks": 45635,
            "time": 79.227351328125,
            "velocity": 0.2125984251968504
          },
          {
            "duration": 0.16666650000000516,
            "durationTicks": 96,
            "midi": 43,
            "name": "G2",
            "ticks": 45635,
            "time": 79.227351328125,
            "velocity": 0.2125984251968504
          },
          {
            "duration": 0.16666649999999095,
            "durationTicks": 96,
            "midi": 39,
            "name": "D#2",
            "ticks": 45798,
            "time": 79.51033715625,
            "velocity": 0.2125984251968504
          },
          {
            "duration": 0.16666649999999095,
            "durationTicks": 96,
            "midi": 54,
            "name": "F#3",
            "ticks": 45798,
            "time": 79.51033715625,
            "velocity": 0.1968503937007874
          },
          {
            "duration": 0.16666649999999095,
            "durationTicks": 96,
            "midi": 43,
            "name": "G2",
            "ticks": 45962,
            "time": 79.79505909375,
            "velocity": 0.2125984251968504
          },
          {
            "duration": 0.16666649999999095,
            "durationTicks": 96,
            "midi": 54,
            "name": "F#3",
            "ticks": 45962,
            "time": 79.79505909375,
            "velocity": 0.1968503937007874
          },
          {
            "duration": 0.16666649999999095,
            "durationTicks": 96,
            "midi": 39,
            "name": "D#2",
            "ticks": 46126,
            "time": 80.07978103125001,
            "velocity": 0.2204724409448819
          },
          {
            "duration": 0.16666649999999095,
            "durationTicks": 96,
            "midi": 54,
            "name": "F#3",
            "ticks": 46126,
            "time": 80.07978103125001,
            "velocity": 0.2125984251968504
          },
          {
            "duration": 0.16666650000000516,
            "durationTicks": 96,
            "midi": 54,
            "name": "F#3",
            "ticks": 46294,
            "time": 80.37144740625,
            "velocity": 0.2047244094488189
          },
          {
            "duration": 0.16666650000000516,
            "durationTicks": 96,
            "midi": 43,
            "name": "G2",
            "ticks": 46294,
            "time": 80.37144740625,
            "velocity": 0.2204724409448819
          },
          {
            "duration": 0.16666650000000516,
            "durationTicks": 96,
            "midi": 39,
            "name": "D#2",
            "ticks": 46458,
            "time": 80.65616934375,
            "velocity": 0.2125984251968504
          },
          {
            "duration": 0.16666650000000516,
            "durationTicks": 96,
            "midi": 54,
            "name": "F#3",
            "ticks": 46458,
            "time": 80.65616934375,
            "velocity": 0.2125984251968504
          },
          {
            "duration": 0.16493039062498838,
            "durationTicks": 95,
            "midi": 39,
            "name": "D#2",
            "ticks": 46540,
            "time": 80.7985303125,
            "velocity": 0.2125984251968504
          },
          {
            "duration": 0.16666650000000516,
            "durationTicks": 96,
            "midi": 54,
            "name": "F#3",
            "ticks": 46622,
            "time": 80.94089128124999,
            "velocity": 0.2047244094488189
          },
          {
            "duration": 0.16666650000000516,
            "durationTicks": 96,
            "midi": 43,
            "name": "G2",
            "ticks": 46622,
            "time": 80.94089128124999,
            "velocity": 0.2125984251968504
          },
          {
            "duration": 0.16840260937499352,
            "durationTicks": 97,
            "midi": 54,
            "name": "F#3",
            "ticks": 46786,
            "time": 81.22561321875,
            "velocity": 0.1968503937007874
          },
          {
            "duration": 0.16840260937499352,
            "durationTicks": 97,
            "midi": 43,
            "name": "G2",
            "ticks": 46795,
            "time": 81.24123820312501,
            "velocity": 0.14173228346456693
          },
          {
            "duration": 0.16840260937500773,
            "durationTicks": 97,
            "midi": 39,
            "name": "D#2",
            "ticks": 46872,
            "time": 81.37491862499999,
            "velocity": 0.14173228346456693
          },
          {
            "duration": 0.16666650000000516,
            "durationTicks": 96,
            "midi": 43,
            "name": "G2",
            "ticks": 46951,
            "time": 81.512071265625,
            "velocity": 0.16535433070866143
          },
          {
            "duration": 0.16666649999999095,
            "durationTicks": 96,
            "midi": 39,
            "name": "D#2",
            "ticks": 47037,
            "time": 81.661376671875,
            "velocity": 0.15748031496062992
          },
          {
            "duration": 0.16493039062498838,
            "durationTicks": 95,
            "midi": 39,
            "name": "D#2",
            "ticks": 47077,
            "time": 81.73082104687501,
            "velocity": 0.14960629921259844
          },
          {
            "duration": 0.16666650000000516,
            "durationTicks": 96,
            "midi": 43,
            "name": "G2",
            "ticks": 47120,
            "time": 81.80547374999999,
            "velocity": 0.16535433070866143
          },
          {
            "duration": 0.16666650000000516,
            "durationTicks": 96,
            "midi": 43,
            "name": "G2",
            "ticks": 47158,
            "time": 81.87144590625,
            "velocity": 0.14960629921259844
          },
          {
            "duration": 0.16666650000000516,
            "durationTicks": 96,
            "midi": 39,
            "name": "D#2",
            "ticks": 47206,
            "time": 81.95477915625,
            "velocity": 0.14960629921259844
          },
          {
            "duration": 0.1649303906250026,
            "durationTicks": 95,
            "midi": 43,
            "name": "G2",
            "ticks": 47288,
            "time": 82.097140125,
            "velocity": 0.16535433070866143
          },
          {
            "duration": 0.1649303906250168,
            "durationTicks": 95,
            "midi": 39,
            "name": "D#2",
            "ticks": 47369,
            "time": 82.23776498437499,
            "velocity": 0.16535433070866143
          },
          {
            "duration": 0.16666650000000516,
            "durationTicks": 96,
            "midi": 39,
            "name": "D#2",
            "ticks": 47403,
            "time": 82.29679270312499,
            "velocity": 0.15748031496062992
          },
          {
            "duration": 0.16666649999999095,
            "durationTicks": 96,
            "midi": 39,
            "name": "D#2",
            "ticks": 47446,
            "time": 82.37144540625,
            "velocity": 0.2047244094488189
          },
          {
            "duration": 0.16666649999999095,
            "durationTicks": 96,
            "midi": 49,
            "name": "C#3",
            "ticks": 47446,
            "time": 82.37144540625,
            "velocity": 0.12598425196850394
          },
          {
            "duration": 0.16666650000000516,
            "durationTicks": 96,
            "midi": 43,
            "name": "G2",
            "ticks": 47610,
            "time": 82.65616734375,
            "velocity": 0.2047244094488189
          },
          {
            "duration": 0.16666649999999095,
            "durationTicks": 96,
            "midi": 49,
            "name": "C#3",
            "ticks": 47615,
            "time": 82.664847890625,
            "velocity": 0.14960629921259844
          },
          {
            "duration": 0.16666650000000516,
            "durationTicks": 96,
            "midi": 39,
            "name": "D#2",
            "ticks": 47774,
            "time": 82.94088928125,
            "velocity": 0.2047244094488189
          },
          {
            "duration": 0.16666650000000516,
            "durationTicks": 96,
            "midi": 49,
            "name": "C#3",
            "ticks": 47783,
            "time": 82.95651426562499,
            "velocity": 0.14173228346456693
          },
          {
            "duration": 0.16666650000000516,
            "durationTicks": 96,
            "midi": 39,
            "name": "D#2",
            "ticks": 47856,
            "time": 83.08325024999999,
            "velocity": 0.2047244094488189
          },
          {
            "duration": 0.16666650000000516,
            "durationTicks": 96,
            "midi": 43,
            "name": "G2",
            "ticks": 47939,
            "time": 83.22734732812499,
            "velocity": 0.2204724409448819
          },
          {
            "duration": 0.16666650000000516,
            "durationTicks": 96,
            "midi": 49,
            "name": "C#3",
            "ticks": 47951,
            "time": 83.248180640625,
            "velocity": 0.14173228346456693
          },
          {
            "duration": 0.16666649999999095,
            "durationTicks": 96,
            "midi": 39,
            "name": "D#2",
            "ticks": 48107,
            "time": 83.519013703125,
            "velocity": 0.2204724409448819
          },
          {
            "duration": 0.16666650000000516,
            "durationTicks": 96,
            "midi": 49,
            "name": "C#3",
            "ticks": 48111,
            "time": 83.525958140625,
            "velocity": 0.13385826771653545
          },
          {
            "duration": 0.16666649999999095,
            "durationTicks": 96,
            "midi": 43,
            "name": "G2",
            "ticks": 48271,
            "time": 83.803735640625,
            "velocity": 0.2047244094488189
          },
          {
            "duration": 0.16666650000000516,
            "durationTicks": 96,
            "midi": 49,
            "name": "C#3",
            "ticks": 48283,
            "time": 83.824568953125,
            "velocity": 0.12598425196850394
          },
          {
            "duration": 0.16666649999999095,
            "durationTicks": 96,
            "midi": 39,
            "name": "D#2",
            "ticks": 48434,
            "time": 84.08672146875,
            "velocity": 0.2047244094488189
          },
          {
            "duration": 0.16666650000000516,
            "durationTicks": 96,
            "midi": 49,
            "name": "C#3",
            "ticks": 48439,
            "time": 84.095402015625,
            "velocity": 0.13385826771653545
          },
          {
            "duration": 0.16666650000000516,
            "durationTicks": 96,
            "midi": 39,
            "name": "D#2",
            "ticks": 48517,
            "time": 84.230818546875,
            "velocity": 0.2125984251968504
          },
          {
            "duration": 0.16840260937499352,
            "durationTicks": 97,
            "midi": 43,
            "name": "G2",
            "ticks": 48598,
            "time": 84.37144340625,
            "velocity": 0.2125984251968504
          },
          {
            "duration": 0.16840260937499352,
            "durationTicks": 97,
            "midi": 49,
            "name": "C#3",
            "ticks": 48607,
            "time": 84.387068390625,
            "velocity": 0.13385826771653545
          },
          {
            "duration": 0.16666650000000516,
            "durationTicks": 96,
            "midi": 39,
            "name": "D#2",
            "ticks": 48764,
            "time": 84.6596375625,
            "velocity": 0.2125984251968504
          },
          {
            "duration": 0.16666650000000516,
            "durationTicks": 96,
            "midi": 49,
            "name": "C#3",
            "ticks": 48769,
            "time": 84.668318109375,
            "velocity": 0.11811023622047244
          },
          {
            "duration": 0.16666649999999095,
            "durationTicks": 96,
            "midi": 43,
            "name": "G2",
            "ticks": 48932,
            "time": 84.9513039375,
            "velocity": 0.2125984251968504
          },
          {
            "duration": 0.16666650000000516,
            "durationTicks": 96,
            "midi": 49,
            "name": "C#3",
            "ticks": 48937,
            "time": 84.959984484375,
            "velocity": 0.12598425196850394
          },
          {
            "duration": 0.1649303906250026,
            "durationTicks": 95,
            "midi": 39,
            "name": "D#2",
            "ticks": 49096,
            "time": 85.236025875,
            "velocity": 0.2047244094488189
          },
          {
            "duration": 0.1649303906250026,
            "durationTicks": 95,
            "midi": 49,
            "name": "C#3",
            "ticks": 49113,
            "time": 85.265539734375,
            "velocity": 0.11023622047244094
          },
          {
            "duration": 0.1649303906250026,
            "durationTicks": 95,
            "midi": 39,
            "name": "D#2",
            "ticks": 49177,
            "time": 85.37665073437499,
            "velocity": 0.2047244094488189
          },
          {
            "duration": 0.16666650000000516,
            "durationTicks": 96,
            "midi": 43,
            "name": "G2",
            "ticks": 49259,
            "time": 85.519011703125,
            "velocity": 0.2125984251968504
          },
          {
            "duration": 0.16666650000000516,
            "durationTicks": 96,
            "midi": 49,
            "name": "C#3",
            "ticks": 49271,
            "time": 85.539845015625,
            "velocity": 0.13385826771653545
          },
          {
            "duration": 0.16666649999999095,
            "durationTicks": 96,
            "midi": 49,
            "name": "C#3",
            "ticks": 49423,
            "time": 85.803733640625,
            "velocity": 0.13385826771653545
          },
          {
            "duration": 0.16666649999999095,
            "durationTicks": 96,
            "midi": 39,
            "name": "D#2",
            "ticks": 49423,
            "time": 85.803733640625,
            "velocity": 0.2204724409448819
          },
          {
            "duration": 0.16666650000000516,
            "durationTicks": 96,
            "midi": 43,
            "name": "G2",
            "ticks": 49586,
            "time": 86.08671946875,
            "velocity": 0.2047244094488189
          },
          {
            "duration": 0.16666650000000516,
            "durationTicks": 96,
            "midi": 49,
            "name": "C#3",
            "ticks": 49591,
            "time": 86.09540001562499,
            "velocity": 0.11811023622047244
          },
          {
            "duration": 0.16666650000000516,
            "durationTicks": 96,
            "midi": 39,
            "name": "D#2",
            "ticks": 49750,
            "time": 86.37144140624999,
            "velocity": 0.2125984251968504
          },
          {
            "duration": 0.16666650000000516,
            "durationTicks": 96,
            "midi": 49,
            "name": "C#3",
            "ticks": 49750,
            "time": 86.37144140624999,
            "velocity": 0.12598425196850394
          },
          {
            "duration": 0.16840260937499352,
            "durationTicks": 97,
            "midi": 39,
            "name": "D#2",
            "ticks": 49836,
            "time": 86.5207468125,
            "velocity": 0.2125984251968504
          },
          {
            "duration": 0.16840260937499352,
            "durationTicks": 97,
            "midi": 43,
            "name": "G2",
            "ticks": 49919,
            "time": 86.66484389062501,
            "velocity": 0.2125984251968504
          },
          {
            "duration": 0.16840260937499352,
            "durationTicks": 97,
            "midi": 49,
            "name": "C#3",
            "ticks": 49923,
            "time": 86.671788328125,
            "velocity": 0.12598425196850394
          },
          {
            "duration": 0.16666649999999095,
            "durationTicks": 96,
            "midi": 49,
            "name": "C#3",
            "ticks": 50080,
            "time": 86.9443575,
            "velocity": 0.13385826771653545
          },
          {
            "duration": 0.16666650000000516,
            "durationTicks": 96,
            "midi": 39,
            "name": "D#2",
            "ticks": 50084,
            "time": 86.9513019375,
            "velocity": 0.2125984251968504
          },
          {
            "duration": 0.16666650000000516,
            "durationTicks": 96,
            "midi": 49,
            "name": "C#3",
            "ticks": 50244,
            "time": 87.22907943749999,
            "velocity": 0.11811023622047244
          },
          {
            "duration": 0.16666650000000516,
            "durationTicks": 96,
            "midi": 43,
            "name": "G2",
            "ticks": 50248,
            "time": 87.23602387499999,
            "velocity": 0.2125984251968504
          },
          {
            "duration": 0.16666650000000516,
            "durationTicks": 96,
            "midi": 49,
            "name": "C#3",
            "ticks": 50412,
            "time": 87.5207458125,
            "velocity": 0.14173228346456693
          },
          {
            "duration": 0.16666650000000516,
            "durationTicks": 96,
            "midi": 39,
            "name": "D#2",
            "ticks": 50412,
            "time": 87.5207458125,
            "velocity": 0.2125984251968504
          },
          {
            "duration": 0.1649303906250026,
            "durationTicks": 95,
            "midi": 39,
            "name": "D#2",
            "ticks": 50494,
            "time": 87.66310678125,
            "velocity": 0.2047244094488189
          },
          {
            "duration": 0.16666650000000516,
            "durationTicks": 96,
            "midi": 49,
            "name": "C#3",
            "ticks": 50576,
            "time": 87.80546775,
            "velocity": 0.12598425196850394
          },
          {
            "duration": 0.16666650000000516,
            "durationTicks": 96,
            "midi": 43,
            "name": "G2",
            "ticks": 50576,
            "time": 87.80546775,
            "velocity": 0.2204724409448819
          },
          {
            "duration": 0.16666649999999095,
            "durationTicks": 96,
            "midi": 39,
            "name": "D#2",
            "ticks": 50744,
            "time": 88.09713412500001,
            "velocity": 0.2125984251968504
          },
          {
            "duration": 0.16666650000000516,
            "durationTicks": 96,
            "midi": 49,
            "name": "C#3",
            "ticks": 50748,
            "time": 88.10407856249999,
            "velocity": 0.11023622047244094
          },
          {
            "duration": 0.16666650000000516,
            "durationTicks": 96,
            "midi": 43,
            "name": "G2",
            "ticks": 50908,
            "time": 88.38185606249999,
            "velocity": 0.2125984251968504
          },
          {
            "duration": 0.16666650000000516,
            "durationTicks": 96,
            "midi": 49,
            "name": "C#3",
            "ticks": 50912,
            "time": 88.3888005,
            "velocity": 0.13385826771653545
          },
          {
            "duration": 0.16666649999999095,
            "durationTicks": 96,
            "midi": 39,
            "name": "D#2",
            "ticks": 51072,
            "time": 88.666578,
            "velocity": 0.2125984251968504
          },
          {
            "duration": 0.16666649999999095,
            "durationTicks": 96,
            "midi": 49,
            "name": "C#3",
            "ticks": 51072,
            "time": 88.666578,
            "velocity": 0.12598425196850394
          },
          {
            "duration": 0.16666649999999095,
            "durationTicks": 96,
            "midi": 43,
            "name": "G2",
            "ticks": 51235,
            "time": 88.949563828125,
            "velocity": 0.2125984251968504
          },
          {
            "duration": 0.16666650000000516,
            "durationTicks": 96,
            "midi": 49,
            "name": "C#3",
            "ticks": 51244,
            "time": 88.96518881249999,
            "velocity": 0.12598425196850394
          },
          {
            "duration": 0.16666650000000516,
            "durationTicks": 96,
            "midi": 39,
            "name": "D#2",
            "ticks": 51400,
            "time": 89.23602187499999,
            "velocity": 0.2204724409448819
          },
          {
            "duration": 0.16666649999999095,
            "durationTicks": 96,
            "midi": 49,
            "name": "C#3",
            "ticks": 51405,
            "time": 89.244702421875,
            "velocity": 0.12598425196850394
          },
          {
            "duration": 0.16666650000000516,
            "durationTicks": 96,
            "midi": 49,
            "name": "C#3",
            "ticks": 51560,
            "time": 89.513799375,
            "velocity": 0.12598425196850394
          },
          {
            "duration": 0.16666650000000516,
            "durationTicks": 96,
            "midi": 43,
            "name": "G2",
            "ticks": 51565,
            "time": 89.52247992187499,
            "velocity": 0.2204724409448819
          },
          {
            "duration": 0.16840260937499352,
            "durationTicks": 97,
            "midi": 49,
            "name": "C#3",
            "ticks": 51729,
            "time": 89.807201859375,
            "velocity": 0.12598425196850394
          },
          {
            "duration": 0.16840260937500773,
            "durationTicks": 97,
            "midi": 39,
            "name": "D#2",
            "ticks": 51733,
            "time": 89.814146296875,
            "velocity": 0.2125984251968504
          },
          {
            "duration": 0.16840260937499352,
            "durationTicks": 97,
            "midi": 39,
            "name": "D#2",
            "ticks": 51816,
            "time": 89.958243375,
            "velocity": 0.2125984251968504
          },
          {
            "duration": 0.16840260937500773,
            "durationTicks": 97,
            "midi": 43,
            "name": "G2",
            "ticks": 51898,
            "time": 90.10060434374999,
            "velocity": 0.2125984251968504
          },
          {
            "duration": 0.16840260937499352,
            "durationTicks": 97,
            "midi": 49,
            "name": "C#3",
            "ticks": 51902,
            "time": 90.10754878125,
            "velocity": 0.12598425196850394
          },
          {
            "duration": 0.16666650000000516,
            "durationTicks": 96,
            "midi": 41,
            "name": "F2",
            "ticks": 52063,
            "time": 90.38706239062499,
            "velocity": 0.14960629921259844
          },
          {
            "duration": 0.16666650000000516,
            "durationTicks": 96,
            "midi": 43,
            "name": "G2",
            "ticks": 52063,
            "time": 90.38706239062499,
            "velocity": 0.16535433070866143
          },
          {
            "duration": 0.16840260937499352,
            "durationTicks": 97,
            "midi": 39,
            "name": "D#2",
            "ticks": 52136,
            "time": 90.51379837500001,
            "velocity": 0.14960629921259844
          },
          {
            "duration": 0.16840260937500773,
            "durationTicks": 97,
            "midi": 41,
            "name": "F2",
            "ticks": 52219,
            "time": 90.657895453125,
            "velocity": 0.14173228346456693
          },
          {
            "duration": 0.16840260937499352,
            "durationTicks": 97,
            "midi": 43,
            "name": "G2",
            "ticks": 52223,
            "time": 90.664839890625,
            "velocity": 0.16535433070866143
          },
          {
            "duration": 0.16840260937499352,
            "durationTicks": 97,
            "midi": 39,
            "name": "D#2",
            "ticks": 52305,
            "time": 90.807200859375,
            "velocity": 0.15748031496062992
          },
          {
            "duration": 0.16666650000000516,
            "durationTicks": 96,
            "midi": 41,
            "name": "F2",
            "ticks": 52392,
            "time": 90.958242375,
            "velocity": 0.14173228346456693
          },
          {
            "duration": 0.16666649999999095,
            "durationTicks": 96,
            "midi": 43,
            "name": "G2",
            "ticks": 52397,
            "time": 90.96692292187501,
            "velocity": 0.15748031496062992
          },
          {
            "duration": 0.16666650000000516,
            "durationTicks": 96,
            "midi": 41,
            "name": "F2",
            "ticks": 52427,
            "time": 91.019006203125,
            "velocity": 0.14173228346456693
          },
          {
            "duration": 0.16666650000000516,
            "durationTicks": 96,
            "midi": 43,
            "name": "G2",
            "ticks": 52432,
            "time": 91.02768674999999,
            "velocity": 0.15748031496062992
          },
          {
            "duration": 0.16666650000000516,
            "durationTicks": 96,
            "midi": 39,
            "name": "D#2",
            "ticks": 52475,
            "time": 91.102339453125,
            "velocity": 0.16535433070866143
          },
          {
            "duration": 0.16493039062498838,
            "durationTicks": 95,
            "midi": 41,
            "name": "F2",
            "ticks": 52553,
            "time": 91.237755984375,
            "velocity": 0.14960629921259844
          },
          {
            "duration": 0.1649303906250026,
            "durationTicks": 95,
            "midi": 43,
            "name": "G2",
            "ticks": 52557,
            "time": 91.244700421875,
            "velocity": 0.16535433070866143
          },
          {
            "duration": 0.16666649999999095,
            "durationTicks": 96,
            "midi": 39,
            "name": "D#2",
            "ticks": 52634,
            "time": 91.37838084375001,
            "velocity": 0.16535433070866143
          },
          {
            "duration": 0.16666650000000516,
            "durationTicks": 96,
            "midi": 60,
            "name": "C4",
            "ticks": 52724,
            "time": 91.5346306875,
            "velocity": 0.14173228346456693
          },
          {
            "duration": 0.16666650000000516,
            "durationTicks": 96,
            "midi": 39,
            "name": "D#2",
            "ticks": 52724,
            "time": 91.5346306875,
            "velocity": 0.2047244094488189
          },
          {
            "duration": 0.16666650000000516,
            "durationTicks": 96,
            "midi": 56,
            "name": "G#3",
            "ticks": 52884,
            "time": 91.8124081875,
            "velocity": 0.2204724409448819
          },
          {
            "duration": 0.16666649999999095,
            "durationTicks": 96,
            "midi": 43,
            "name": "G2",
            "ticks": 52888,
            "time": 91.819352625,
            "velocity": 0.2047244094488189
          },
          {
            "duration": 0.16840260937500773,
            "durationTicks": 97,
            "midi": 56,
            "name": "G#3",
            "ticks": 53047,
            "time": 92.09539401562499,
            "velocity": 0.2204724409448819
          },
          {
            "duration": 0.16840260937499352,
            "durationTicks": 97,
            "midi": 39,
            "name": "D#2",
            "ticks": 53052,
            "time": 92.1040745625,
            "velocity": 0.2047244094488189
          },
          {
            "duration": 0.16666650000000516,
            "durationTicks": 96,
            "midi": 39,
            "name": "D#2",
            "ticks": 53134,
            "time": 92.24643553124999,
            "velocity": 0.2047244094488189
          },
          {
            "duration": 0.16666650000000516,
            "durationTicks": 96,
            "midi": 56,
            "name": "G#3",
            "ticks": 53212,
            "time": 92.38185206249999,
            "velocity": 0.2125984251968504
          },
          {
            "duration": 0.16666649999999095,
            "durationTicks": 96,
            "midi": 43,
            "name": "G2",
            "ticks": 53217,
            "time": 92.390532609375,
            "velocity": 0.2204724409448819
          },
          {
            "duration": 0.16666649999999095,
            "durationTicks": 96,
            "midi": 56,
            "name": "G#3",
            "ticks": 53381,
            "time": 92.67525454687501,
            "velocity": 0.2204724409448819
          },
          {
            "duration": 0.16666649999999095,
            "durationTicks": 96,
            "midi": 39,
            "name": "D#2",
            "ticks": 53381,
            "time": 92.67525454687501,
            "velocity": 0.2204724409448819
          },
          {
            "duration": 0.16666650000000516,
            "durationTicks": 96,
            "midi": 43,
            "name": "G2",
            "ticks": 53549,
            "time": 92.966920921875,
            "velocity": 0.2047244094488189
          },
          {
            "duration": 0.16666650000000516,
            "durationTicks": 96,
            "midi": 56,
            "name": "G#3",
            "ticks": 53549,
            "time": 92.966920921875,
            "velocity": 0.2047244094488189
          },
          {
            "duration": 0.16666649999999095,
            "durationTicks": 96,
            "midi": 56,
            "name": "G#3",
            "ticks": 53713,
            "time": 93.251642859375,
            "velocity": 0.2125984251968504
          },
          {
            "duration": 0.16666649999999095,
            "durationTicks": 96,
            "midi": 39,
            "name": "D#2",
            "ticks": 53713,
            "time": 93.251642859375,
            "velocity": 0.2047244094488189
          },
          {
            "duration": 0.16493039062498838,
            "durationTicks": 95,
            "midi": 39,
            "name": "D#2",
            "ticks": 53795,
            "time": 93.39400382812501,
            "velocity": 0.2125984251968504
          },
          {
            "duration": 0.16666649999999095,
            "durationTicks": 96,
            "midi": 56,
            "name": "G#3",
            "ticks": 53872,
            "time": 93.52768425,
            "velocity": 0.2204724409448819
          },
          {
            "duration": 0.16666650000000516,
            "durationTicks": 96,
            "midi": 43,
            "name": "G2",
            "ticks": 53876,
            "time": 93.5346286875,
            "velocity": 0.2125984251968504
          },
          {
            "duration": 0.16666650000000516,
            "durationTicks": 96,
            "midi": 39,
            "name": "D#2",
            "ticks": 54040,
            "time": 93.81935062499998,
            "velocity": 0.2125984251968504
          },
          {
            "duration": 0.16666650000000516,
            "durationTicks": 96,
            "midi": 52,
            "name": "E3",
            "ticks": 54040,
            "time": 93.81935062499998,
            "velocity": 0.14173228346456693
          },
          {
            "duration": 0.16666650000000516,
            "durationTicks": 96,
            "midi": 56,
            "name": "G#3",
            "ticks": 54204,
            "time": 94.1040725625,
            "velocity": 0.2204724409448819
          },
          {
            "duration": 0.16666650000000516,
            "durationTicks": 96,
            "midi": 43,
            "name": "G2",
            "ticks": 54204,
            "time": 94.1040725625,
            "velocity": 0.2125984251968504
          },
          {
            "duration": 0.16840260937499352,
            "durationTicks": 97,
            "midi": 56,
            "name": "G#3",
            "ticks": 54368,
            "time": 94.3887945,
            "velocity": 0.2125984251968504
          },
          {
            "duration": 0.16840260937499352,
            "durationTicks": 97,
            "midi": 39,
            "name": "D#2",
            "ticks": 54372,
            "time": 94.3957389375,
            "velocity": 0.2047244094488189
          },
          {
            "duration": 0.16840260937499352,
            "durationTicks": 97,
            "midi": 39,
            "name": "D#2",
            "ticks": 54455,
            "time": 94.539836015625,
            "velocity": 0.2047244094488189
          },
          {
            "duration": 0.16666650000000516,
            "durationTicks": 96,
            "midi": 56,
            "name": "G#3",
            "ticks": 54529,
            "time": 94.66830810937499,
            "velocity": 0.2204724409448819
          },
          {
            "duration": 0.16666650000000516,
            "durationTicks": 96,
            "midi": 43,
            "name": "G2",
            "ticks": 54538,
            "time": 94.68393309374999,
            "velocity": 0.2125984251968504
          },
          {
            "duration": 0.16666649999999095,
            "durationTicks": 96,
            "midi": 56,
            "name": "G#3",
            "ticks": 54697,
            "time": 94.959974484375,
            "velocity": 0.2204724409448819
          },
          {
            "duration": 0.16666650000000516,
            "durationTicks": 96,
            "midi": 39,
            "name": "D#2",
            "ticks": 54702,
            "time": 94.96865503125,
            "velocity": 0.2204724409448819
          },
          {
            "duration": 0.16666650000000516,
            "durationTicks": 96,
            "midi": 43,
            "name": "G2",
            "ticks": 54866,
            "time": 95.25337696875,
            "velocity": 0.2047244094488189
          },
          {
            "duration": 0.16666650000000516,
            "durationTicks": 96,
            "midi": 56,
            "name": "G#3",
            "ticks": 54866,
            "time": 95.25337696875,
            "velocity": 0.2204724409448819
          },
          {
            "duration": 0.16666650000000516,
            "durationTicks": 96,
            "midi": 56,
            "name": "G#3",
            "ticks": 55029,
            "time": 95.536362796875,
            "velocity": 0.2204724409448819
          },
          {
            "duration": 0.16666650000000516,
            "durationTicks": 96,
            "midi": 39,
            "name": "D#2",
            "ticks": 55029,
            "time": 95.536362796875,
            "velocity": 0.2125984251968504
          },
          {
            "duration": 0.16493039062498838,
            "durationTicks": 95,
            "midi": 39,
            "name": "D#2",
            "ticks": 55112,
            "time": 95.680459875,
            "velocity": 0.2125984251968504
          },
          {
            "duration": 0.16666649999999095,
            "durationTicks": 96,
            "midi": 43,
            "name": "G2",
            "ticks": 55193,
            "time": 95.821084734375,
            "velocity": 0.2125984251968504
          },
          {
            "duration": 0.16666649999999095,
            "durationTicks": 96,
            "midi": 56,
            "name": "G#3",
            "ticks": 55193,
            "time": 95.821084734375,
            "velocity": 0.2204724409448819
          },
          {
            "duration": 0.16666650000000516,
            "durationTicks": 96,
            "midi": 60,
            "name": "C4",
            "ticks": 55361,
            "time": 96.112751109375,
            "velocity": 0.14173228346456693
          },
          {
            "duration": 0.16666650000000516,
            "durationTicks": 96,
            "midi": 39,
            "name": "D#2",
            "ticks": 55361,
            "time": 96.112751109375,
            "velocity": 0.2125984251968504
          },
          {
            "duration": 0.16666650000000516,
            "durationTicks": 96,
            "midi": 56,
            "name": "G#3",
            "ticks": 55521,
            "time": 96.390528609375,
            "velocity": 0.2204724409448819
          },
          {
            "duration": 0.16666650000000516,
            "durationTicks": 96,
            "midi": 43,
            "name": "G2",
            "ticks": 55525,
            "time": 96.39747304687499,
            "velocity": 0.2125984251968504
          },
          {
            "duration": 0.16666649999999095,
            "durationTicks": 96,
            "midi": 39,
            "name": "D#2",
            "ticks": 55689,
            "time": 96.682194984375,
            "velocity": 0.2125984251968504
          },
          {
            "duration": 0.16666649999999095,
            "durationTicks": 96,
            "midi": 56,
            "name": "G#3",
            "ticks": 55689,
            "time": 96.682194984375,
            "velocity": 0.2204724409448819
          },
          {
            "duration": 0.16666650000000516,
            "durationTicks": 96,
            "midi": 39,
            "name": "D#2",
            "ticks": 55771,
            "time": 96.82455595312499,
            "velocity": 0.2047244094488189
          },
          {
            "duration": 0.16666650000000516,
            "durationTicks": 96,
            "midi": 56,
            "name": "G#3",
            "ticks": 55845,
            "time": 96.95302804687499,
            "velocity": 0.2204724409448819
          },
          {
            "duration": 0.16666649999999095,
            "durationTicks": 96,
            "midi": 43,
            "name": "G2",
            "ticks": 55854,
            "time": 96.96865303125,
            "velocity": 0.2204724409448819
          },
          {
            "duration": 0.16666650000000516,
            "durationTicks": 96,
            "midi": 56,
            "name": "G#3",
            "ticks": 56013,
            "time": 97.244694421875,
            "velocity": 0.2204724409448819
          },
          {
            "duration": 0.16666649999999095,
            "durationTicks": 96,
            "midi": 39,
            "name": "D#2",
            "ticks": 56018,
            "time": 97.25337496875001,
            "velocity": 0.2125984251968504
          },
          {
            "duration": 0.16666649999999095,
            "durationTicks": 96,
            "midi": 56,
            "name": "G#3",
            "ticks": 56181,
            "time": 97.536360796875,
            "velocity": 0.2204724409448819
          },
          {
            "duration": 0.16666650000000516,
            "durationTicks": 96,
            "midi": 43,
            "name": "G2",
            "ticks": 56186,
            "time": 97.54504134375,
            "velocity": 0.2125984251968504
          },
          {
            "duration": 0.16666650000000516,
            "durationTicks": 96,
            "midi": 56,
            "name": "G#3",
            "ticks": 56345,
            "time": 97.821082734375,
            "velocity": 0.2204724409448819
          },
          {
            "duration": 0.16666649999999095,
            "durationTicks": 96,
            "midi": 39,
            "name": "D#2",
            "ticks": 56350,
            "time": 97.82976328125,
            "velocity": 0.2125984251968504
          },
          {
            "duration": 0.16666650000000516,
            "durationTicks": 96,
            "midi": 43,
            "name": "G2",
            "ticks": 56513,
            "time": 98.112749109375,
            "velocity": 0.2125984251968504
          },
          {
            "duration": 0.16666650000000516,
            "durationTicks": 96,
            "midi": 56,
            "name": "G#3",
            "ticks": 56513,
            "time": 98.112749109375,
            "velocity": 0.2125984251968504
          },
          {
            "duration": 0.16666649999999095,
            "durationTicks": 96,
            "midi": 56,
            "name": "G#3",
            "ticks": 56677,
            "time": 98.397471046875,
            "velocity": 0.2204724409448819
          },
          {
            "duration": 0.16666649999999095,
            "durationTicks": 96,
            "midi": 39,
            "name": "D#2",
            "ticks": 56677,
            "time": 98.397471046875,
            "velocity": 0.2204724409448819
          },
          {
            "duration": 0.16666650000000516,
            "durationTicks": 96,
            "midi": 43,
            "name": "G2",
            "ticks": 56841,
            "time": 98.68219298437499,
            "velocity": 0.2204724409448819
          },
          {
            "duration": 0.16666650000000516,
            "durationTicks": 96,
            "midi": 56,
            "name": "G#3",
            "ticks": 56845,
            "time": 98.68913742187499,
            "velocity": 0.2204724409448819
          },
          {
            "duration": 0.16840260937499352,
            "durationTicks": 97,
            "midi": 39,
            "name": "D#2",
            "ticks": 57005,
            "time": 98.966914921875,
            "velocity": 0.2125984251968504
          },
          {
            "duration": 0.16840260937499352,
            "durationTicks": 97,
            "midi": 56,
            "name": "G#3",
            "ticks": 57009,
            "time": 98.973859359375,
            "velocity": 0.2204724409448819
          },
          {
            "duration": 0.16666650000000516,
            "durationTicks": 96,
            "midi": 39,
            "name": "D#2",
            "ticks": 57092,
            "time": 99.1179564375,
            "velocity": 0.2125984251968504
          },
          {
            "duration": 0.16666650000000516,
            "durationTicks": 96,
            "midi": 56,
            "name": "G#3",
            "ticks": 57170,
            "time": 99.25337296875,
            "velocity": 0.2204724409448819
          },
          {
            "duration": 0.16666650000000516,
            "durationTicks": 96,
            "midi": 43,
            "name": "G2",
            "ticks": 57174,
            "time": 99.26031740625,
            "velocity": 0.2125984251968504
          },
          {
            "duration": 0.16666649999999095,
            "durationTicks": 96,
            "midi": 39,
            "name": "D#2",
            "ticks": 57338,
            "time": 99.54503934375,
            "velocity": 0.1732283464566929
          },
          {
            "duration": 0.16666649999999095,
            "durationTicks": 96,
            "midi": 41,
            "name": "F2",
            "ticks": 57338,
            "time": 99.54503934375,
            "velocity": 0.2047244094488189
          },
          {
            "duration": 0.16666649999999095,
            "durationTicks": 96,
            "midi": 56,
            "name": "G#3",
            "ticks": 57338,
            "time": 99.54503934375,
            "velocity": 0.2204724409448819
          },
          {
            "duration": 0.16666649999999095,
            "durationTicks": 96,
            "midi": 43,
            "name": "G2",
            "ticks": 57342,
            "time": 99.55198378125,
            "velocity": 0.2125984251968504
          }
        ],
        "endOfTrackTicks": 57438
      }
    ]
  }