{
    "header": {
      "keySignatures": [],
      "meta": [],
      "name": "",
      "ppq": 384,
      "tempos": [
        {
          "bpm": 150,
          "ticks": 0
        }
      ],
      "timeSignatures": [
        {
          "ticks": 0,
          "timeSignature": [
            1,
            4
          ],
          "measures": 0
        }
      ]
    },
    "tracks": [
      {
        "channel": 0,
        "controlChanges": {},
        "pitchBends": [],
        "instrument": {
          "family": "guitar",
          "number": 29,
          "name": "overdriven guitar"
        },
        "name": "Electric Guitar",
        "notes": [
          {
            "duration": 0.19999999999999574,
            "durationTicks": 192,
            "midi": 74,
            "name": "D5",
            "ticks": 58368,
            "time": 60.800000000000004,
            "velocity": 0.3937007874015748
          },
          {
            "duration": 0.20000000000000284,
            "durationTicks": 192,
            "midi": 69,
            "name": "A4",
            "ticks": 58560,
            "time": 61,
            "velocity": 0.3937007874015748
          },
          {
            "duration": 0.20000000000000284,
            "durationTicks": 192,
            "midi": 73,
            "name": "C#5",
            "ticks": 58752,
            "time": 61.2,
            "velocity": 0.3937007874015748
          },
          {
            "duration": 0.19999999999999574,
            "durationTicks": 192,
            "midi": 74,
            "name": "D5",
            "ticks": 58944,
            "time": 61.400000000000006,
            "velocity": 0.3937007874015748
          },
          {
            "duration": 0.20000000000000284,
            "durationTicks": 192,
            "midi": 76,
            "name": "E5",
            "ticks": 59136,
            "time": 61.6,
            "velocity": 0.3937007874015748
          },
          {
            "duration": 0.19999999999999574,
            "durationTicks": 192,
            "midi": 69,
            "name": "A4",
            "ticks": 59328,
            "time": 61.800000000000004,
            "velocity": 0.3937007874015748
          },
          {
            "duration": 0.20000000000000284,
            "durationTicks": 192,
            "midi": 74,
            "name": "D5",
            "ticks": 59520,
            "time": 62,
            "velocity": 0.3937007874015748
          },
          {
            "duration": 0.20000000000000284,
            "durationTicks": 192,
            "midi": 76,
            "name": "E5",
            "ticks": 59712,
            "time": 62.2,
            "velocity": 0.3937007874015748
          },
          {
            "duration": 0.19999999999999574,
            "durationTicks": 192,
            "midi": 77,
            "name": "F5",
            "ticks": 59904,
            "time": 62.400000000000006,
            "velocity": 0.3937007874015748
          },
          {
            "duration": 0.20000000000000284,
            "durationTicks": 192,
            "midi": 69,
            "name": "A4",
            "ticks": 60096,
            "time": 62.6,
            "velocity": 0.3937007874015748
          },
          {
            "duration": 0.19999999999999574,
            "durationTicks": 192,
            "midi": 74,
            "name": "D5",
            "ticks": 60288,
            "time": 62.800000000000004,
            "velocity": 0.3937007874015748
          },
          {
            "duration": 0.20000000000000284,
            "durationTicks": 192,
            "midi": 77,
            "name": "F5",
            "ticks": 60480,
            "time": 63,
            "velocity": 0.3937007874015748
          },
          {
            "duration": 0.20000000000000284,
            "durationTicks": 192,
            "midi": 76,
            "name": "E5",
            "ticks": 60672,
            "time": 63.2,
            "velocity": 0.3937007874015748
          },
          {
            "duration": 0.19999999999999574,
            "durationTicks": 192,
            "midi": 69,
            "name": "A4",
            "ticks": 60864,
            "time": 63.400000000000006,
            "velocity": 0.3937007874015748
          },
          {
            "duration": 0.20000000000000284,
            "durationTicks": 192,
            "midi": 73,
            "name": "C#5",
            "ticks": 61056,
            "time": 63.6,
            "velocity": 0.3937007874015748
          },
          {
            "duration": 0.19999999999999574,
            "durationTicks": 192,
            "midi": 74,
            "name": "D5",
            "ticks": 61248,
            "time": 63.800000000000004,
            "velocity": 0.3937007874015748
          },
          {
            "duration": 0.20000000000000284,
            "durationTicks": 192,
            "midi": 74,
            "name": "D5",
            "ticks": 61440,
            "time": 64,
            "velocity": 0.3937007874015748
          },
          {
            "duration": 0.20000000000000284,
            "durationTicks": 192,
            "midi": 69,
            "name": "A4",
            "ticks": 61632,
            "time": 64.2,
            "velocity": 0.3937007874015748
          },
          {
            "duration": 0.20000000000000284,
            "durationTicks": 192,
            "midi": 73,
            "name": "C#5",
            "ticks": 61824,
            "time": 64.4,
            "velocity": 0.3937007874015748
          },
          {
            "duration": 0.19999999999998863,
            "durationTicks": 192,
            "midi": 74,
            "name": "D5",
            "ticks": 62016,
            "time": 64.60000000000001,
            "velocity": 0.3937007874015748
          },
          {
            "duration": 0.20000000000000284,
            "durationTicks": 192,
            "midi": 76,
            "name": "E5",
            "ticks": 62208,
            "time": 64.8,
            "velocity": 0.3937007874015748
          },
          {
            "duration": 0.20000000000000284,
            "durationTicks": 192,
            "midi": 69,
            "name": "A4",
            "ticks": 62400,
            "time": 65,
            "velocity": 0.3937007874015748
          },
          {
            "duration": 0.20000000000000284,
            "durationTicks": 192,
            "midi": 74,
            "name": "D5",
            "ticks": 62592,
            "time": 65.2,
            "velocity": 0.3937007874015748
          },
          {
            "duration": 0.20000000000000284,
            "durationTicks": 192,
            "midi": 76,
            "name": "E5",
            "ticks": 62784,
            "time": 65.4,
            "velocity": 0.3937007874015748
          },
          {
            "duration": 0.3499999999999943,
            "durationTicks": 336,
            "midi": 79,
            "name": "G5",
            "ticks": 62976,
            "time": 65.60000000000001,
            "velocity": 0.3937007874015748
          },
          {
            "duration": 0.3500000000000085,
            "durationTicks": 336,
            "midi": 78,
            "name": "F#5",
            "ticks": 63360,
            "time": 66,
            "velocity": 0.3937007874015748
          },
          {
            "duration": 0.3499999999999943,
            "durationTicks": 336,
            "midi": 77,
            "name": "F5",
            "ticks": 63744,
            "time": 66.4,
            "velocity": 0.3937007874015748
          },
          {
            "duration": 0.3500000000000085,
            "durationTicks": 336,
            "midi": 76,
            "name": "E5",
            "ticks": 64128,
            "time": 66.8,
            "velocity": 0.3937007874015748
          },
          {
            "duration": 0.20000000000000284,
            "durationTicks": 192,
            "midi": 74,
            "name": "D5",
            "ticks": 64512,
            "time": 67.2,
            "velocity": 0.3937007874015748
          },
          {
            "duration": 0.20000000000000284,
            "durationTicks": 192,
            "midi": 69,
            "name": "A4",
            "ticks": 64704,
            "time": 67.4,
            "velocity": 0.3937007874015748
          },
          {
            "duration": 0.19999999999998863,
            "durationTicks": 192,
            "midi": 73,
            "name": "C#5",
            "ticks": 64896,
            "time": 67.60000000000001,
            "velocity": 0.3937007874015748
          },
          {
            "duration": 0.20000000000000284,
            "durationTicks": 192,
            "midi": 74,
            "name": "D5",
            "ticks": 65088,
            "time": 67.8,
            "velocity": 0.3937007874015748
          },
          {
            "duration": 0.20000000000000284,
            "durationTicks": 192,
            "midi": 76,
            "name": "E5",
            "ticks": 65280,
            "time": 68,
            "velocity": 0.3937007874015748
          },
          {
            "duration": 0.20000000000000284,
            "durationTicks": 192,
            "midi": 69,
            "name": "A4",
            "ticks": 65472,
            "time": 68.2,
            "velocity": 0.3937007874015748
          },
          {
            "duration": 0.20000000000000284,
            "durationTicks": 192,
            "midi": 74,
            "name": "D5",
            "ticks": 65664,
            "time": 68.4,
            "velocity": 0.3937007874015748
          },
          {
            "duration": 0.19999999999998863,
            "durationTicks": 192,
            "midi": 76,
            "name": "E5",
            "ticks": 65856,
            "time": 68.60000000000001,
            "velocity": 0.3937007874015748
          },
          {
            "duration": 0.20000000000000284,
            "durationTicks": 192,
            "midi": 77,
            "name": "F5",
            "ticks": 66048,
            "time": 68.8,
            "velocity": 0.3937007874015748
          },
          {
            "duration": 0.20000000000000284,
            "durationTicks": 192,
            "midi": 69,
            "name": "A4",
            "ticks": 66240,
            "time": 69,
            "velocity": 0.3937007874015748
          },
          {
            "duration": 0.20000000000000284,
            "durationTicks": 192,
            "midi": 74,
            "name": "D5",
            "ticks": 66432,
            "time": 69.2,
            "velocity": 0.3937007874015748
          },
          {
            "duration": 0.20000000000000284,
            "durationTicks": 192,
            "midi": 77,
            "name": "F5",
            "ticks": 66624,
            "time": 69.4,
            "velocity": 0.3937007874015748
          },
          {
            "duration": 0.19999999999998863,
            "durationTicks": 192,
            "midi": 76,
            "name": "E5",
            "ticks": 66816,
            "time": 69.60000000000001,
            "velocity": 0.3937007874015748
          },
          {
            "duration": 0.20000000000000284,
            "durationTicks": 192,
            "midi": 69,
            "name": "A4",
            "ticks": 67008,
            "time": 69.8,
            "velocity": 0.3937007874015748
          },
          {
            "duration": 0.20000000000000284,
            "durationTicks": 192,
            "midi": 73,
            "name": "C#5",
            "ticks": 67200,
            "time": 70,
            "velocity": 0.3937007874015748
          },
          {
            "duration": 0.20000000000000284,
            "durationTicks": 192,
            "midi": 74,
            "name": "D5",
            "ticks": 67392,
            "time": 70.2,
            "velocity": 0.3937007874015748
          },
          {
            "duration": 0.20000000000000284,
            "durationTicks": 192,
            "midi": 74,
            "name": "D5",
            "ticks": 67584,
            "time": 70.4,
            "velocity": 0.3937007874015748
          },
          {
            "duration": 0.19999999999998863,
            "durationTicks": 192,
            "midi": 69,
            "name": "A4",
            "ticks": 67776,
            "time": 70.60000000000001,
            "velocity": 0.3937007874015748
          },
          {
            "duration": 0.20000000000000284,
            "durationTicks": 192,
            "midi": 73,
            "name": "C#5",
            "ticks": 67968,
            "time": 70.8,
            "velocity": 0.3937007874015748
          },
          {
            "duration": 0.20000000000000284,
            "durationTicks": 192,
            "midi": 74,
            "name": "D5",
            "ticks": 68160,
            "time": 71,
            "velocity": 0.3937007874015748
          },
          {
            "duration": 0.20000000000000284,
            "durationTicks": 192,
            "midi": 76,
            "name": "E5",
            "ticks": 68352,
            "time": 71.2,
            "velocity": 0.3937007874015748
          },
          {
            "duration": 0.20000000000000284,
            "durationTicks": 192,
            "midi": 69,
            "name": "A4",
            "ticks": 68544,
            "time": 71.4,
            "velocity": 0.3937007874015748
          },
          {
            "duration": 0.19999999999998863,
            "durationTicks": 192,
            "midi": 74,
            "name": "D5",
            "ticks": 68736,
            "time": 71.60000000000001,
            "velocity": 0.3937007874015748
          },
          {
            "duration": 0.20000000000000284,
            "durationTicks": 192,
            "midi": 76,
            "name": "E5",
            "ticks": 68928,
            "time": 71.8,
            "velocity": 0.3937007874015748
          },
          {
            "duration": 0.3500000000000085,
            "durationTicks": 336,
            "midi": 79,
            "name": "G5",
            "ticks": 69120,
            "time": 72,
            "velocity": 0.3937007874015748
          },
          {
            "duration": 0.3499999999999943,
            "durationTicks": 336,
            "midi": 78,
            "name": "F#5",
            "ticks": 69504,
            "time": 72.4,
            "velocity": 0.3937007874015748
          },
          {
            "duration": 0.3500000000000085,
            "durationTicks": 336,
            "midi": 77,
            "name": "F5",
            "ticks": 69888,
            "time": 72.8,
            "velocity": 0.3937007874015748
          },
          {
            "duration": 0.3499999999999943,
            "durationTicks": 336,
            "midi": 76,
            "name": "E5",
            "ticks": 70272,
            "time": 73.2,
            "velocity": 0.3937007874015748
          }
        ],
        "endOfTrackTicks": 70608
      },
      {
        "channel": 1,
        "controlChanges": {},
        "pitchBends": [],
        "instrument": {
          "family": "piano",
          "number": 0,
          "name": "acoustic grand piano"
        },
        "name": "Grand Piano (Classic)",
        "notes": [
          {
            "duration": 0.2,
            "durationTicks": 192,
            "midi": 50,
            "name": "D3",
            "ticks": 0,
            "time": 0,
            "velocity": 0.7874015748031497
          },
          {
            "duration": 0.2,
            "durationTicks": 192,
            "midi": 38,
            "name": "D2",
            "ticks": 192,
            "time": 0.2,
            "velocity": 0.7874015748031497
          },
          {
            "duration": 0.20000000000000007,
            "durationTicks": 192,
            "midi": 50,
            "name": "D3",
            "ticks": 384,
            "time": 0.4,
            "velocity": 0.7874015748031497
          },
          {
            "duration": 0.19999999999999996,
            "durationTicks": 192,
            "midi": 38,
            "name": "D2",
            "ticks": 576,
            "time": 0.6000000000000001,
            "velocity": 0.7874015748031497
          },
          {
            "duration": 0.19999999999999996,
            "durationTicks": 192,
            "midi": 50,
            "name": "D3",
            "ticks": 768,
            "time": 0.8,
            "velocity": 0.7874015748031497
          },
          {
            "duration": 0.20000000000000018,
            "durationTicks": 192,
            "midi": 38,
            "name": "D2",
            "ticks": 960,
            "time": 1,
            "velocity": 0.7874015748031497
          },
          {
            "duration": 0.19999999999999996,
            "durationTicks": 192,
            "midi": 50,
            "name": "D3",
            "ticks": 1152,
            "time": 1.2000000000000002,
            "velocity": 0.7874015748031497
          },
          {
            "duration": 0.19999999999999996,
            "durationTicks": 192,
            "midi": 38,
            "name": "D2",
            "ticks": 1344,
            "time": 1.4000000000000001,
            "velocity": 0.7874015748031497
          },
          {
            "duration": 0.19999999999999996,
            "durationTicks": 192,
            "midi": 50,
            "name": "D3",
            "ticks": 1536,
            "time": 1.6,
            "velocity": 0.7874015748031497
          },
          {
            "duration": 0.19999999999999996,
            "durationTicks": 192,
            "midi": 38,
            "name": "D2",
            "ticks": 1728,
            "time": 1.8,
            "velocity": 0.7874015748031497
          },
          {
            "duration": 0.20000000000000018,
            "durationTicks": 192,
            "midi": 50,
            "name": "D3",
            "ticks": 1920,
            "time": 2,
            "velocity": 0.7874015748031497
          },
          {
            "duration": 0.20000000000000018,
            "durationTicks": 192,
            "midi": 38,
            "name": "D2",
            "ticks": 2112,
            "time": 2.2,
            "velocity": 0.7874015748031497
          },
          {
            "duration": 0.19999999999999973,
            "durationTicks": 192,
            "midi": 50,
            "name": "D3",
            "ticks": 2304,
            "time": 2.4000000000000004,
            "velocity": 0.7874015748031497
          },
          {
            "duration": 0.20000000000000018,
            "durationTicks": 192,
            "midi": 38,
            "name": "D2",
            "ticks": 2496,
            "time": 2.6,
            "velocity": 0.7874015748031497
          },
          {
            "duration": 0.19999999999999973,
            "durationTicks": 192,
            "midi": 50,
            "name": "D3",
            "ticks": 2688,
            "time": 2.8000000000000003,
            "velocity": 0.7874015748031497
          },
          {
            "duration": 0.20000000000000018,
            "durationTicks": 192,
            "midi": 38,
            "name": "D2",
            "ticks": 2880,
            "time": 3,
            "velocity": 0.7874015748031497
          },
          {
            "duration": 0.20000000000000018,
            "durationTicks": 192,
            "midi": 50,
            "name": "D3",
            "ticks": 3072,
            "time": 3.2,
            "velocity": 0.7874015748031497
          },
          {
            "duration": 0.19999999999999973,
            "durationTicks": 192,
            "midi": 38,
            "name": "D2",
            "ticks": 3264,
            "time": 3.4000000000000004,
            "velocity": 0.7874015748031497
          },
          {
            "duration": 0.20000000000000018,
            "durationTicks": 192,
            "midi": 50,
            "name": "D3",
            "ticks": 3456,
            "time": 3.6,
            "velocity": 0.7874015748031497
          },
          {
            "duration": 0.19999999999999973,
            "durationTicks": 192,
            "midi": 38,
            "name": "D2",
            "ticks": 3648,
            "time": 3.8000000000000003,
            "velocity": 0.7874015748031497
          },
          {
            "duration": 0.20000000000000018,
            "durationTicks": 192,
            "midi": 50,
            "name": "D3",
            "ticks": 3840,
            "time": 4,
            "velocity": 0.7874015748031497
          },
          {
            "duration": 0.20000000000000018,
            "durationTicks": 192,
            "midi": 38,
            "name": "D2",
            "ticks": 4032,
            "time": 4.2,
            "velocity": 0.7874015748031497
          },
          {
            "duration": 0.20000000000000018,
            "durationTicks": 192,
            "midi": 50,
            "name": "D3",
            "ticks": 4224,
            "time": 4.4,
            "velocity": 0.7874015748031497
          },
          {
            "duration": 0.20000000000000018,
            "durationTicks": 192,
            "midi": 38,
            "name": "D2",
            "ticks": 4416,
            "time": 4.6000000000000005,
            "velocity": 0.7874015748031497
          },
          {
            "duration": 0.1999999999999993,
            "durationTicks": 192,
            "midi": 50,
            "name": "D3",
            "ticks": 4608,
            "time": 4.800000000000001,
            "velocity": 0.7874015748031497
          },
          {
            "duration": 0.20000000000000018,
            "durationTicks": 192,
            "midi": 38,
            "name": "D2",
            "ticks": 4800,
            "time": 5,
            "velocity": 0.7874015748031497
          },
          {
            "duration": 0.20000000000000018,
            "durationTicks": 192,
            "midi": 50,
            "name": "D3",
            "ticks": 4992,
            "time": 5.2,
            "velocity": 0.7874015748031497
          },
          {
            "duration": 0.20000000000000018,
            "durationTicks": 192,
            "midi": 38,
            "name": "D2",
            "ticks": 5184,
            "time": 5.4,
            "velocity": 0.7874015748031497
          },
          {
            "duration": 0.20000000000000018,
            "durationTicks": 192,
            "midi": 50,
            "name": "D3",
            "ticks": 5376,
            "time": 5.6000000000000005,
            "velocity": 0.7874015748031497
          },
          {
            "duration": 0.1999999999999993,
            "durationTicks": 192,
            "midi": 38,
            "name": "D2",
            "ticks": 5568,
            "time": 5.800000000000001,
            "velocity": 0.7874015748031497
          },
          {
            "duration": 0.20000000000000018,
            "durationTicks": 192,
            "midi": 50,
            "name": "D3",
            "ticks": 5760,
            "time": 6,
            "velocity": 0.7874015748031497
          },
          {
            "duration": 0.20000000000000018,
            "durationTicks": 192,
            "midi": 38,
            "name": "D2",
            "ticks": 5952,
            "time": 6.2,
            "velocity": 0.7874015748031497
          },
          {
            "duration": 0.20000000000000018,
            "durationTicks": 192,
            "midi": 50,
            "name": "D3",
            "ticks": 6144,
            "time": 6.4,
            "velocity": 0.7874015748031497
          },
          {
            "duration": 0.20000000000000018,
            "durationTicks": 192,
            "midi": 38,
            "name": "D2",
            "ticks": 6336,
            "time": 6.6000000000000005,
            "velocity": 0.7874015748031497
          },
          {
            "duration": 0.1999999999999993,
            "durationTicks": 192,
            "midi": 50,
            "name": "D3",
            "ticks": 6528,
            "time": 6.800000000000001,
            "velocity": 0.7874015748031497
          },
          {
            "duration": 0.20000000000000018,
            "durationTicks": 192,
            "midi": 38,
            "name": "D2",
            "ticks": 6720,
            "time": 7,
            "velocity": 0.7874015748031497
          },
          {
            "duration": 0.20000000000000018,
            "durationTicks": 192,
            "midi": 50,
            "name": "D3",
            "ticks": 6912,
            "time": 7.2,
            "velocity": 0.7874015748031497
          },
          {
            "duration": 0.20000000000000018,
            "durationTicks": 192,
            "midi": 38,
            "name": "D2",
            "ticks": 7104,
            "time": 7.4,
            "velocity": 0.7874015748031497
          },
          {
            "duration": 0.20000000000000018,
            "durationTicks": 192,
            "midi": 50,
            "name": "D3",
            "ticks": 7104,
            "time": 7.4,
            "velocity": 0.7874015748031497
          },
          {
            "duration": 0.1999999999999993,
            "durationTicks": 192,
            "midi": 38,
            "name": "D2",
            "ticks": 7488,
            "time": 7.800000000000001,
            "velocity": 0.7874015748031497
          },
          {
            "duration": 0.1999999999999993,
            "durationTicks": 192,
            "midi": 50,
            "name": "D3",
            "ticks": 7488,
            "time": 7.800000000000001,
            "velocity": 0.7874015748031497
          },
          {
            "duration": 0.20000000000000107,
            "durationTicks": 192,
            "midi": 50,
            "name": "D3",
            "ticks": 7680,
            "time": 8,
            "velocity": 0.7874015748031497
          },
          {
            "duration": 0.20000000000000107,
            "durationTicks": 192,
            "midi": 38,
            "name": "D2",
            "ticks": 7680,
            "time": 8,
            "velocity": 0.7874015748031497
          },
          {
            "duration": 0.1999999999999993,
            "durationTicks": 192,
            "midi": 38,
            "name": "D2",
            "ticks": 7872,
            "time": 8.200000000000001,
            "velocity": 0.7874015748031497
          },
          {
            "duration": 0.1999999999999993,
            "durationTicks": 192,
            "midi": 50,
            "name": "D3",
            "ticks": 8064,
            "time": 8.4,
            "velocity": 0.7874015748031497
          },
          {
            "duration": 0.20000000000000107,
            "durationTicks": 192,
            "midi": 38,
            "name": "D2",
            "ticks": 8256,
            "time": 8.6,
            "velocity": 0.7874015748031497
          },
          {
            "duration": 0.1999999999999993,
            "durationTicks": 192,
            "midi": 50,
            "name": "D3",
            "ticks": 8448,
            "time": 8.8,
            "velocity": 0.7874015748031497
          },
          {
            "duration": 0.20000000000000107,
            "durationTicks": 192,
            "midi": 38,
            "name": "D2",
            "ticks": 8640,
            "time": 9,
            "velocity": 0.7874015748031497
          },
          {
            "duration": 0.1999999999999993,
            "durationTicks": 192,
            "midi": 50,
            "name": "D3",
            "ticks": 8832,
            "time": 9.200000000000001,
            "velocity": 0.7874015748031497
          },
          {
            "duration": 0.20000000000000107,
            "durationTicks": 192,
            "midi": 38,
            "name": "D2",
            "ticks": 9024,
            "time": 9.4,
            "velocity": 0.7874015748031497
          },
          {
            "duration": 0.1999999999999993,
            "durationTicks": 192,
            "midi": 50,
            "name": "D3",
            "ticks": 9216,
            "time": 9.600000000000001,
            "velocity": 0.7874015748031497
          },
          {
            "duration": 0.1999999999999993,
            "durationTicks": 192,
            "midi": 38,
            "name": "D2",
            "ticks": 9408,
            "time": 9.8,
            "velocity": 0.7874015748031497
          },
          {
            "duration": 0.20000000000000107,
            "durationTicks": 192,
            "midi": 50,
            "name": "D3",
            "ticks": 9600,
            "time": 10,
            "velocity": 0.7874015748031497
          },
          {
            "duration": 0.1999999999999993,
            "durationTicks": 192,
            "midi": 38,
            "name": "D2",
            "ticks": 9792,
            "time": 10.200000000000001,
            "velocity": 0.7874015748031497
          },
          {
            "duration": 0.20000000000000107,
            "durationTicks": 192,
            "midi": 50,
            "name": "D3",
            "ticks": 9984,
            "time": 10.4,
            "velocity": 0.7874015748031497
          },
          {
            "duration": 0.1999999999999993,
            "durationTicks": 192,
            "midi": 38,
            "name": "D2",
            "ticks": 10176,
            "time": 10.600000000000001,
            "velocity": 0.7874015748031497
          },
          {
            "duration": 0.1999999999999993,
            "durationTicks": 192,
            "midi": 50,
            "name": "D3",
            "ticks": 10368,
            "time": 10.8,
            "velocity": 0.7874015748031497
          },
          {
            "duration": 0.20000000000000107,
            "durationTicks": 192,
            "midi": 38,
            "name": "D2",
            "ticks": 10560,
            "time": 11,
            "velocity": 0.7874015748031497
          },
          {
            "duration": 0.1999999999999993,
            "durationTicks": 192,
            "midi": 43,
            "name": "G2",
            "ticks": 10752,
            "time": 11.200000000000001,
            "velocity": 0.7874015748031497
          },
          {
            "duration": 0.20000000000000107,
            "durationTicks": 192,
            "midi": 31,
            "name": "G1",
            "ticks": 10944,
            "time": 11.4,
            "velocity": 0.7874015748031497
          },
          {
            "duration": 0.1999999999999993,
            "durationTicks": 192,
            "midi": 42,
            "name": "F#2",
            "ticks": 11136,
            "time": 11.600000000000001,
            "velocity": 0.7874015748031497
          },
          {
            "duration": 0.1999999999999993,
            "durationTicks": 192,
            "midi": 30,
            "name": "F#1",
            "ticks": 11328,
            "time": 11.8,
            "velocity": 0.7874015748031497
          },
          {
            "duration": 0.20000000000000107,
            "durationTicks": 192,
            "midi": 41,
            "name": "F2",
            "ticks": 11520,
            "time": 12,
            "velocity": 0.7874015748031497
          },
          {
            "duration": 0.1999999999999993,
            "durationTicks": 192,
            "midi": 29,
            "name": "F1",
            "ticks": 11712,
            "time": 12.200000000000001,
            "velocity": 0.7874015748031497
          },
          {
            "duration": 0.20000000000000107,
            "durationTicks": 192,
            "midi": 40,
            "name": "E2",
            "ticks": 11904,
            "time": 12.4,
            "velocity": 0.7874015748031497
          },
          {
            "duration": 0.1999999999999993,
            "durationTicks": 192,
            "midi": 28,
            "name": "E1",
            "ticks": 12096,
            "time": 12.600000000000001,
            "velocity": 0.7874015748031497
          },
          {
            "duration": 0.1999999999999993,
            "durationTicks": 192,
            "midi": 26,
            "name": "D1",
            "ticks": 12288,
            "time": 12.8,
            "velocity": 0.7874015748031497
          },
          {
            "duration": 0.1999999999999993,
            "durationTicks": 192,
            "midi": 38,
            "name": "D2",
            "ticks": 12288,
            "time": 12.8,
            "velocity": 0.7874015748031497
          },
          {
            "duration": 0.1999999999999993,
            "durationTicks": 192,
            "midi": 38,
            "name": "D2",
            "ticks": 13056,
            "time": 13.600000000000001,
            "velocity": 0.7874015748031497
          },
          {
            "duration": 0.1999999999999993,
            "durationTicks": 192,
            "midi": 26,
            "name": "D1",
            "ticks": 13056,
            "time": 13.600000000000001,
            "velocity": 0.7874015748031497
          },
          {
            "duration": 0.20000000000000107,
            "durationTicks": 192,
            "midi": 38,
            "name": "D2",
            "ticks": 13440,
            "time": 14,
            "velocity": 0.7874015748031497
          },
          {
            "duration": 0.20000000000000107,
            "durationTicks": 192,
            "midi": 26,
            "name": "D1",
            "ticks": 13440,
            "time": 14,
            "velocity": 0.7874015748031497
          },
          {
            "duration": 0.20000000000000107,
            "durationTicks": 192,
            "midi": 38,
            "name": "D2",
            "ticks": 13824,
            "time": 14.4,
            "velocity": 0.7874015748031497
          },
          {
            "duration": 0.20000000000000107,
            "durationTicks": 192,
            "midi": 26,
            "name": "D1",
            "ticks": 13824,
            "time": 14.4,
            "velocity": 0.7874015748031497
          },
          {
            "duration": 0.1999999999999993,
            "durationTicks": 192,
            "midi": 38,
            "name": "D2",
            "ticks": 14592,
            "time": 15.200000000000001,
            "velocity": 0.7874015748031497
          },
          {
            "duration": 0.1999999999999993,
            "durationTicks": 192,
            "midi": 26,
            "name": "D1",
            "ticks": 14592,
            "time": 15.200000000000001,
            "velocity": 0.7874015748031497
          },
          {
            "duration": 0.1999999999999993,
            "durationTicks": 192,
            "midi": 38,
            "name": "D2",
            "ticks": 14976,
            "time": 15.600000000000001,
            "velocity": 0.7874015748031497
          },
          {
            "duration": 0.1999999999999993,
            "durationTicks": 192,
            "midi": 26,
            "name": "D1",
            "ticks": 14976,
            "time": 15.600000000000001,
            "velocity": 0.7874015748031497
          },
          {
            "duration": 0.1999999999999993,
            "durationTicks": 192,
            "midi": 26,
            "name": "D1",
            "ticks": 15360,
            "time": 16,
            "velocity": 0.7874015748031497
          },
          {
            "duration": 0.20000000000000284,
            "durationTicks": 192,
            "midi": 38,
            "name": "D2",
            "ticks": 15552,
            "time": 16.2,
            "velocity": 0.7874015748031497
          },
          {
            "duration": 0.1999999999999993,
            "durationTicks": 192,
            "midi": 26,
            "name": "D1",
            "ticks": 15744,
            "time": 16.400000000000002,
            "velocity": 0.7874015748031497
          },
          {
            "duration": 0.1999999999999993,
            "durationTicks": 192,
            "midi": 38,
            "name": "D2",
            "ticks": 15936,
            "time": 16.6,
            "velocity": 0.7874015748031497
          },
          {
            "duration": 0.1999999999999993,
            "durationTicks": 192,
            "midi": 26,
            "name": "D1",
            "ticks": 16128,
            "time": 16.8,
            "velocity": 0.7874015748031497
          },
          {
            "duration": 0.1999999999999993,
            "durationTicks": 192,
            "midi": 38,
            "name": "D2",
            "ticks": 16320,
            "time": 17,
            "velocity": 0.7874015748031497
          },
          {
            "duration": 0.20000000000000284,
            "durationTicks": 192,
            "midi": 26,
            "name": "D1",
            "ticks": 16512,
            "time": 17.2,
            "velocity": 0.7874015748031497
          },
          {
            "duration": 0.1999999999999993,
            "durationTicks": 192,
            "midi": 38,
            "name": "D2",
            "ticks": 16704,
            "time": 17.400000000000002,
            "velocity": 0.7874015748031497
          },
          {
            "duration": 0.1999999999999993,
            "durationTicks": 192,
            "midi": 28,
            "name": "E1",
            "ticks": 16896,
            "time": 17.6,
            "velocity": 0.7874015748031497
          },
          {
            "duration": 0.1999999999999993,
            "durationTicks": 192,
            "midi": 40,
            "name": "E2",
            "ticks": 17088,
            "time": 17.8,
            "velocity": 0.7874015748031497
          },
          {
            "duration": 0.1999999999999993,
            "durationTicks": 192,
            "midi": 28,
            "name": "E1",
            "ticks": 17280,
            "time": 18,
            "velocity": 0.7874015748031497
          },
          {
            "duration": 0.20000000000000284,
            "durationTicks": 192,
            "midi": 40,
            "name": "E2",
            "ticks": 17472,
            "time": 18.2,
            "velocity": 0.7874015748031497
          },
          {
            "duration": 0.1999999999999993,
            "durationTicks": 192,
            "midi": 28,
            "name": "E1",
            "ticks": 17664,
            "time": 18.400000000000002,
            "velocity": 0.7874015748031497
          },
          {
            "duration": 0.1999999999999993,
            "durationTicks": 192,
            "midi": 40,
            "name": "E2",
            "ticks": 17856,
            "time": 18.6,
            "velocity": 0.7874015748031497
          },
          {
            "duration": 0.1999999999999993,
            "durationTicks": 192,
            "midi": 28,
            "name": "E1",
            "ticks": 18048,
            "time": 18.8,
            "velocity": 0.7874015748031497
          },
          {
            "duration": 0.20000000000000284,
            "durationTicks": 192,
            "midi": 40,
            "name": "E2",
            "ticks": 18240,
            "time": 19,
            "velocity": 0.7874015748031497
          },
          {
            "duration": 0.1999999999999993,
            "durationTicks": 192,
            "midi": 29,
            "name": "F1",
            "ticks": 18432,
            "time": 19.200000000000003,
            "velocity": 0.7874015748031497
          },
          {
            "duration": 0.1999999999999993,
            "durationTicks": 192,
            "midi": 41,
            "name": "F2",
            "ticks": 18624,
            "time": 19.400000000000002,
            "velocity": 0.7874015748031497
          },
          {
            "duration": 0.1999999999999993,
            "durationTicks": 192,
            "midi": 29,
            "name": "F1",
            "ticks": 18816,
            "time": 19.6,
            "velocity": 0.7874015748031497
          },
          {
            "duration": 0.1999999999999993,
            "durationTicks": 192,
            "midi": 41,
            "name": "F2",
            "ticks": 19008,
            "time": 19.8,
            "velocity": 0.7874015748031497
          },
          {
            "duration": 0.20000000000000284,
            "durationTicks": 192,
            "midi": 32,
            "name": "G#1",
            "ticks": 19200,
            "time": 20,
            "velocity": 0.7874015748031497
          },
          {
            "duration": 0.1999999999999993,
            "durationTicks": 192,
            "midi": 35,
            "name": "B1",
            "ticks": 19392,
            "time": 20.200000000000003,
            "velocity": 0.7874015748031497
          },
          {
            "duration": 0.1999999999999993,
            "durationTicks": 192,
            "midi": 38,
            "name": "D2",
            "ticks": 19584,
            "time": 20.400000000000002,
            "velocity": 0.7874015748031497
          },
          {
            "duration": 0.1999999999999993,
            "durationTicks": 192,
            "midi": 41,
            "name": "F2",
            "ticks": 19776,
            "time": 20.6,
            "velocity": 0.7874015748031497
          },
          {
            "duration": 0.1999999999999993,
            "durationTicks": 192,
            "midi": 45,
            "name": "A2",
            "ticks": 19968,
            "time": 20.8,
            "velocity": 0.7874015748031497
          },
          {
            "duration": 0.1999999999999993,
            "durationTicks": 192,
            "midi": 33,
            "name": "A1",
            "ticks": 19968,
            "time": 20.8,
            "velocity": 0.7874015748031497
          },
          {
            "duration": 0.13333333333333286,
            "durationTicks": 128,
            "midi": 44,
            "name": "G#2",
            "ticks": 20736,
            "time": 21.6,
            "velocity": 0.7874015748031497
          },
          {
            "duration": 0.13333333333333286,
            "durationTicks": 128,
            "midi": 43,
            "name": "G2",
            "ticks": 20864,
            "time": 21.733333333333334,
            "velocity": 0.7874015748031497
          },
          {
            "duration": 0.13333333333333286,
            "durationTicks": 128,
            "midi": 42,
            "name": "F#2",
            "ticks": 20992,
            "time": 21.866666666666667,
            "velocity": 0.7874015748031497
          },
          {
            "duration": 0.1333333333333364,
            "durationTicks": 128,
            "midi": 41,
            "name": "F2",
            "ticks": 21120,
            "time": 22,
            "velocity": 0.7874015748031497
          },
          {
            "duration": 0.1333333333333293,
            "durationTicks": 128,
            "midi": 40,
            "name": "E2",
            "ticks": 21248,
            "time": 22.133333333333336,
            "velocity": 0.7874015748031497
          },
          {
            "duration": 0.1333333333333364,
            "durationTicks": 128,
            "midi": 39,
            "name": "D#2",
            "ticks": 21376,
            "time": 22.266666666666666,
            "velocity": 0.7874015748031497
          },
          {
            "duration": 0.1999999999999993,
            "durationTicks": 192,
            "midi": 26,
            "name": "D1",
            "ticks": 21504,
            "time": 22.400000000000002,
            "velocity": 0.7874015748031497
          },
          {
            "duration": 0.1999999999999993,
            "durationTicks": 192,
            "midi": 38,
            "name": "D2",
            "ticks": 21696,
            "time": 22.6,
            "velocity": 0.7874015748031497
          },
          {
            "duration": 0.1999999999999993,
            "durationTicks": 192,
            "midi": 26,
            "name": "D1",
            "ticks": 21888,
            "time": 22.8,
            "velocity": 0.7874015748031497
          },
          {
            "duration": 0.20000000000000284,
            "durationTicks": 192,
            "midi": 38,
            "name": "D2",
            "ticks": 22080,
            "time": 23,
            "velocity": 0.7874015748031497
          },
          {
            "duration": 0.1999999999999993,
            "durationTicks": 192,
            "midi": 26,
            "name": "D1",
            "ticks": 22272,
            "time": 23.200000000000003,
            "velocity": 0.7874015748031497
          },
          {
            "duration": 0.1999999999999993,
            "durationTicks": 192,
            "midi": 38,
            "name": "D2",
            "ticks": 22464,
            "time": 23.400000000000002,
            "velocity": 0.7874015748031497
          },
          {
            "duration": 0.1999999999999993,
            "durationTicks": 192,
            "midi": 26,
            "name": "D1",
            "ticks": 22656,
            "time": 23.6,
            "velocity": 0.7874015748031497
          },
          {
            "duration": 0.1999999999999993,
            "durationTicks": 192,
            "midi": 38,
            "name": "D2",
            "ticks": 22848,
            "time": 23.8,
            "velocity": 0.7874015748031497
          },
          {
            "duration": 0.20000000000000284,
            "durationTicks": 192,
            "midi": 28,
            "name": "E1",
            "ticks": 23040,
            "time": 24,
            "velocity": 0.7874015748031497
          },
          {
            "duration": 0.1999999999999993,
            "durationTicks": 192,
            "midi": 40,
            "name": "E2",
            "ticks": 23232,
            "time": 24.200000000000003,
            "velocity": 0.7874015748031497
          },
          {
            "duration": 0.1999999999999993,
            "durationTicks": 192,
            "midi": 28,
            "name": "E1",
            "ticks": 23424,
            "time": 24.400000000000002,
            "velocity": 0.7874015748031497
          },
          {
            "duration": 0.1999999999999993,
            "durationTicks": 192,
            "midi": 40,
            "name": "E2",
            "ticks": 23616,
            "time": 24.6,
            "velocity": 0.7874015748031497
          },
          {
            "duration": 0.1999999999999993,
            "durationTicks": 192,
            "midi": 28,
            "name": "E1",
            "ticks": 23808,
            "time": 24.8,
            "velocity": 0.7874015748031497
          },
          {
            "duration": 0.20000000000000284,
            "durationTicks": 192,
            "midi": 40,
            "name": "E2",
            "ticks": 24000,
            "time": 25,
            "velocity": 0.7874015748031497
          },
          {
            "duration": 0.1999999999999993,
            "durationTicks": 192,
            "midi": 28,
            "name": "E1",
            "ticks": 24192,
            "time": 25.200000000000003,
            "velocity": 0.7874015748031497
          },
          {
            "duration": 0.1999999999999993,
            "durationTicks": 192,
            "midi": 40,
            "name": "E2",
            "ticks": 24384,
            "time": 25.400000000000002,
            "velocity": 0.7874015748031497
          },
          {
            "duration": 0.1999999999999993,
            "durationTicks": 192,
            "midi": 31,
            "name": "G1",
            "ticks": 24576,
            "time": 25.6,
            "velocity": 0.7874015748031497
          },
          {
            "duration": 0.1999999999999993,
            "durationTicks": 192,
            "midi": 43,
            "name": "G2",
            "ticks": 24768,
            "time": 25.8,
            "velocity": 0.7874015748031497
          },
          {
            "duration": 0.20000000000000284,
            "durationTicks": 192,
            "midi": 31,
            "name": "G1",
            "ticks": 24960,
            "time": 26,
            "velocity": 0.7874015748031497
          },
          {
            "duration": 0.1999999999999993,
            "durationTicks": 192,
            "midi": 43,
            "name": "G2",
            "ticks": 25152,
            "time": 26.200000000000003,
            "velocity": 0.7874015748031497
          },
          {
            "duration": 0.1999999999999993,
            "durationTicks": 192,
            "midi": 30,
            "name": "F#1",
            "ticks": 25344,
            "time": 26.400000000000002,
            "velocity": 0.7874015748031497
          },
          {
            "duration": 0.1999999999999993,
            "durationTicks": 192,
            "midi": 42,
            "name": "F#2",
            "ticks": 25536,
            "time": 26.6,
            "velocity": 0.7874015748031497
          },
          {
            "duration": 0.1999999999999993,
            "durationTicks": 192,
            "midi": 30,
            "name": "F#1",
            "ticks": 25728,
            "time": 26.8,
            "velocity": 0.7874015748031497
          },
          {
            "duration": 0.20000000000000284,
            "durationTicks": 192,
            "midi": 42,
            "name": "F#2",
            "ticks": 25920,
            "time": 27,
            "velocity": 0.7874015748031497
          },
          {
            "duration": 0.1999999999999993,
            "durationTicks": 192,
            "midi": 29,
            "name": "F1",
            "ticks": 26112,
            "time": 27.200000000000003,
            "velocity": 0.7874015748031497
          },
          {
            "duration": 0.1999999999999993,
            "durationTicks": 192,
            "midi": 41,
            "name": "F2",
            "ticks": 26304,
            "time": 27.400000000000002,
            "velocity": 0.7874015748031497
          },
          {
            "duration": 0.1999999999999993,
            "durationTicks": 192,
            "midi": 29,
            "name": "F1",
            "ticks": 26496,
            "time": 27.6,
            "velocity": 0.7874015748031497
          },
          {
            "duration": 0.1999999999999993,
            "durationTicks": 192,
            "midi": 41,
            "name": "F2",
            "ticks": 26688,
            "time": 27.8,
            "velocity": 0.7874015748031497
          },
          {
            "duration": 0.13333333333333286,
            "durationTicks": 128,
            "midi": 29,
            "name": "F1",
            "ticks": 26880,
            "time": 28,
            "velocity": 0.7874015748031497
          },
          {
            "duration": 0.13333333333333286,
            "durationTicks": 128,
            "midi": 41,
            "name": "F2",
            "ticks": 26880,
            "time": 28,
            "velocity": 0.7874015748031497
          },
          {
            "duration": 0.13333333333333286,
            "durationTicks": 128,
            "midi": 29,
            "name": "F1",
            "ticks": 27136,
            "time": 28.26666666666667,
            "velocity": 0.7874015748031497
          },
          {
            "duration": 0.13333333333333286,
            "durationTicks": 128,
            "midi": 41,
            "name": "F2",
            "ticks": 27136,
            "time": 28.26666666666667,
            "velocity": 0.7874015748031497
          },
          {
            "duration": 0.13333333333333997,
            "durationTicks": 128,
            "midi": 41,
            "name": "F2",
            "ticks": 27392,
            "time": 28.53333333333333,
            "velocity": 0.7874015748031497
          },
          {
            "duration": 0.13333333333333997,
            "durationTicks": 128,
            "midi": 29,
            "name": "F1",
            "ticks": 27392,
            "time": 28.53333333333333,
            "velocity": 0.7874015748031497
          },
          {
            "duration": 0.1999999999999993,
            "durationTicks": 192,
            "midi": 33,
            "name": "A1",
            "ticks": 27648,
            "time": 28.8,
            "velocity": 0.7874015748031497
          },
          {
            "duration": 0.20000000000000284,
            "durationTicks": 192,
            "midi": 45,
            "name": "A2",
            "ticks": 27840,
            "time": 29,
            "velocity": 0.7874015748031497
          },
          {
            "duration": 0.1999999999999993,
            "durationTicks": 192,
            "midi": 33,
            "name": "A1",
            "ticks": 28032,
            "time": 29.200000000000003,
            "velocity": 0.7874015748031497
          },
          {
            "duration": 0.1999999999999993,
            "durationTicks": 192,
            "midi": 45,
            "name": "A2",
            "ticks": 28224,
            "time": 29.400000000000002,
            "velocity": 0.7874015748031497
          },
          {
            "duration": 0.1999999999999993,
            "durationTicks": 192,
            "midi": 33,
            "name": "A1",
            "ticks": 28416,
            "time": 29.6,
            "velocity": 0.7874015748031497
          },
          {
            "duration": 0.1999999999999993,
            "durationTicks": 192,
            "midi": 45,
            "name": "A2",
            "ticks": 28608,
            "time": 29.8,
            "velocity": 0.7874015748031497
          },
          {
            "duration": 0.20000000000000284,
            "durationTicks": 192,
            "midi": 33,
            "name": "A1",
            "ticks": 28800,
            "time": 30,
            "velocity": 0.7874015748031497
          },
          {
            "duration": 0.1999999999999993,
            "durationTicks": 192,
            "midi": 45,
            "name": "A2",
            "ticks": 28992,
            "time": 30.200000000000003,
            "velocity": 0.7874015748031497
          },
          {
            "duration": 0.1999999999999993,
            "durationTicks": 192,
            "midi": 33,
            "name": "A1",
            "ticks": 29184,
            "time": 30.400000000000002,
            "velocity": 0.7874015748031497
          },
          {
            "duration": 0.1999999999999993,
            "durationTicks": 192,
            "midi": 45,
            "name": "A2",
            "ticks": 29376,
            "time": 30.6,
            "velocity": 0.7874015748031497
          },
          {
            "duration": 0.1999999999999993,
            "durationTicks": 192,
            "midi": 33,
            "name": "A1",
            "ticks": 29568,
            "time": 30.8,
            "velocity": 0.7874015748031497
          },
          {
            "duration": 0.20000000000000284,
            "durationTicks": 192,
            "midi": 45,
            "name": "A2",
            "ticks": 29760,
            "time": 31,
            "velocity": 0.7874015748031497
          },
          {
            "duration": 0.1999999999999993,
            "durationTicks": 192,
            "midi": 33,
            "name": "A1",
            "ticks": 29952,
            "time": 31.200000000000003,
            "velocity": 0.7874015748031497
          },
          {
            "duration": 0.1999999999999993,
            "durationTicks": 192,
            "midi": 45,
            "name": "A2",
            "ticks": 30144,
            "time": 31.400000000000002,
            "velocity": 0.7874015748031497
          },
          {
            "duration": 0.1999999999999993,
            "durationTicks": 192,
            "midi": 33,
            "name": "A1",
            "ticks": 30336,
            "time": 31.6,
            "velocity": 0.7874015748031497
          },
          {
            "duration": 0.1999999999999993,
            "durationTicks": 192,
            "midi": 45,
            "name": "A2",
            "ticks": 30528,
            "time": 31.8,
            "velocity": 0.7874015748031497
          },
          {
            "duration": 0.13333333333333286,
            "durationTicks": 128,
            "midi": 53,
            "name": "F3",
            "ticks": 30720,
            "time": 32,
            "velocity": 0.7874015748031497
          },
          {
            "duration": 0.13333333333333997,
            "durationTicks": 128,
            "midi": 52,
            "name": "E3",
            "ticks": 30848,
            "time": 32.13333333333333,
            "velocity": 0.7874015748031497
          },
          {
            "duration": 0.13333333333332575,
            "durationTicks": 128,
            "midi": 51,
            "name": "D#3",
            "ticks": 30976,
            "time": 32.26666666666667,
            "velocity": 0.7874015748031497
          },
          {
            "duration": 0.13333333333333286,
            "durationTicks": 128,
            "midi": 50,
            "name": "D3",
            "ticks": 31104,
            "time": 32.4,
            "velocity": 0.7874015748031497
          },
          {
            "duration": 0.13333333333333997,
            "durationTicks": 128,
            "midi": 49,
            "name": "C#3",
            "ticks": 31232,
            "time": 32.53333333333333,
            "velocity": 0.7874015748031497
          },
          {
            "duration": 0.13333333333333286,
            "durationTicks": 128,
            "midi": 48,
            "name": "C3",
            "ticks": 31360,
            "time": 32.66666666666667,
            "velocity": 0.7874015748031497
          },
          {
            "duration": 0.13333333333332575,
            "durationTicks": 128,
            "midi": 47,
            "name": "B2",
            "ticks": 31488,
            "time": 32.800000000000004,
            "velocity": 0.7874015748031497
          },
          {
            "duration": 0.13333333333333997,
            "durationTicks": 128,
            "midi": 46,
            "name": "A#2",
            "ticks": 31616,
            "time": 32.93333333333333,
            "velocity": 0.7874015748031497
          },
          {
            "duration": 0.13333333333333286,
            "durationTicks": 128,
            "midi": 45,
            "name": "A2",
            "ticks": 31744,
            "time": 33.06666666666667,
            "velocity": 0.7874015748031497
          },
          {
            "duration": 0.13333333333333286,
            "durationTicks": 128,
            "midi": 44,
            "name": "G#2",
            "ticks": 31872,
            "time": 33.2,
            "velocity": 0.7874015748031497
          },
          {
            "duration": 0.13333333333333286,
            "durationTicks": 128,
            "midi": 52,
            "name": "E3",
            "ticks": 32384,
            "time": 33.733333333333334,
            "velocity": 0.7874015748031497
          },
          {
            "duration": 0.13333333333333286,
            "durationTicks": 128,
            "midi": 51,
            "name": "D#3",
            "ticks": 32512,
            "time": 33.86666666666667,
            "velocity": 0.7874015748031497
          },
          {
            "duration": 0.13333333333333286,
            "durationTicks": 128,
            "midi": 50,
            "name": "D3",
            "ticks": 32640,
            "time": 34,
            "velocity": 0.7874015748031497
          },
          {
            "duration": 0.13333333333333997,
            "durationTicks": 128,
            "midi": 49,
            "name": "C#3",
            "ticks": 32768,
            "time": 34.13333333333333,
            "velocity": 0.7874015748031497
          },
          {
            "duration": 0.13333333333332575,
            "durationTicks": 128,
            "midi": 48,
            "name": "C3",
            "ticks": 32896,
            "time": 34.26666666666667,
            "velocity": 0.7874015748031497
          },
          {
            "duration": 0.13333333333333286,
            "durationTicks": 128,
            "midi": 47,
            "name": "B2",
            "ticks": 33024,
            "time": 34.4,
            "velocity": 0.7874015748031497
          },
          {
            "duration": 0.13333333333333997,
            "durationTicks": 128,
            "midi": 46,
            "name": "A#2",
            "ticks": 33152,
            "time": 34.53333333333333,
            "velocity": 0.7874015748031497
          },
          {
            "duration": 0.13333333333333286,
            "durationTicks": 128,
            "midi": 45,
            "name": "A2",
            "ticks": 33280,
            "time": 34.66666666666667,
            "velocity": 0.7874015748031497
          },
          {
            "duration": 0.13333333333332575,
            "durationTicks": 128,
            "midi": 44,
            "name": "G#2",
            "ticks": 33408,
            "time": 34.800000000000004,
            "velocity": 0.7874015748031497
          },
          {
            "duration": 0.19999999999999574,
            "durationTicks": 192,
            "midi": 45,
            "name": "A2",
            "ticks": 33792,
            "time": 35.2,
            "velocity": 0.7874015748031497
          },
          {
            "duration": 0.20000000000000284,
            "durationTicks": 192,
            "midi": 57,
            "name": "A3",
            "ticks": 33984,
            "time": 35.4,
            "velocity": 0.7874015748031497
          },
          {
            "duration": 0.20000000000000284,
            "durationTicks": 192,
            "midi": 45,
            "name": "A2",
            "ticks": 34176,
            "time": 35.6,
            "velocity": 0.7874015748031497
          },
          {
            "duration": 0.19999999999999574,
            "durationTicks": 192,
            "midi": 57,
            "name": "A3",
            "ticks": 34368,
            "time": 35.800000000000004,
            "velocity": 0.7874015748031497
          },
          {
            "duration": 0.20000000000000284,
            "durationTicks": 192,
            "midi": 45,
            "name": "A2",
            "ticks": 34560,
            "time": 36,
            "velocity": 0.7874015748031497
          },
          {
            "duration": 0.19999999999999574,
            "durationTicks": 192,
            "midi": 57,
            "name": "A3",
            "ticks": 34752,
            "time": 36.2,
            "velocity": 0.7874015748031497
          },
          {
            "duration": 0.20000000000000284,
            "durationTicks": 192,
            "midi": 45,
            "name": "A2",
            "ticks": 34944,
            "time": 36.4,
            "velocity": 0.7874015748031497
          },
          {
            "duration": 0.20000000000000284,
            "durationTicks": 192,
            "midi": 57,
            "name": "A3",
            "ticks": 35136,
            "time": 36.6,
            "velocity": 0.7874015748031497
          },
          {
            "duration": 0.19999999999999574,
            "durationTicks": 192,
            "midi": 45,
            "name": "A2",
            "ticks": 35328,
            "time": 36.800000000000004,
            "velocity": 0.7874015748031497
          },
          {
            "duration": 0.20000000000000284,
            "durationTicks": 192,
            "midi": 57,
            "name": "A3",
            "ticks": 35520,
            "time": 37,
            "velocity": 0.7874015748031497
          },
          {
            "duration": 0.19999999999999574,
            "durationTicks": 192,
            "midi": 45,
            "name": "A2",
            "ticks": 35712,
            "time": 37.2,
            "velocity": 0.7874015748031497
          },
          {
            "duration": 0.20000000000000284,
            "durationTicks": 192,
            "midi": 57,
            "name": "A3",
            "ticks": 35904,
            "time": 37.4,
            "velocity": 0.7874015748031497
          },
          {
            "duration": 0.20000000000000284,
            "durationTicks": 192,
            "midi": 45,
            "name": "A2",
            "ticks": 36096,
            "time": 37.6,
            "velocity": 0.7874015748031497
          },
          {
            "duration": 0.19999999999999574,
            "durationTicks": 192,
            "midi": 57,
            "name": "A3",
            "ticks": 36288,
            "time": 37.800000000000004,
            "velocity": 0.7874015748031497
          },
          {
            "duration": 0.20000000000000284,
            "durationTicks": 192,
            "midi": 45,
            "name": "A2",
            "ticks": 36480,
            "time": 38,
            "velocity": 0.7874015748031497
          },
          {
            "duration": 0.20000000000000284,
            "durationTicks": 192,
            "midi": 57,
            "name": "A3",
            "ticks": 36672,
            "time": 38.2,
            "velocity": 0.7874015748031497
          },
          {
            "duration": 0.19999999999999574,
            "durationTicks": 192,
            "midi": 50,
            "name": "D3",
            "ticks": 36864,
            "time": 38.400000000000006,
            "velocity": 0.7874015748031497
          },
          {
            "duration": 0.20000000000000284,
            "durationTicks": 192,
            "midi": 62,
            "name": "D4",
            "ticks": 37056,
            "time": 38.6,
            "velocity": 0.7874015748031497
          },
          {
            "duration": 0.19999999999999574,
            "durationTicks": 192,
            "midi": 50,
            "name": "D3",
            "ticks": 37248,
            "time": 38.800000000000004,
            "velocity": 0.7874015748031497
          },
          {
            "duration": 0.20000000000000284,
            "durationTicks": 192,
            "midi": 62,
            "name": "D4",
            "ticks": 37440,
            "time": 39,
            "velocity": 0.7874015748031497
          },
          {
            "duration": 0.20000000000000284,
            "durationTicks": 192,
            "midi": 49,
            "name": "C#3",
            "ticks": 37632,
            "time": 39.2,
            "velocity": 0.7874015748031497
          },
          {
            "duration": 0.19999999999999574,
            "durationTicks": 192,
            "midi": 61,
            "name": "C#4",
            "ticks": 37824,
            "time": 39.400000000000006,
            "velocity": 0.7874015748031497
          },
          {
            "duration": 0.20000000000000284,
            "durationTicks": 192,
            "midi": 49,
            "name": "C#3",
            "ticks": 38016,
            "time": 39.6,
            "velocity": 0.7874015748031497
          },
          {
            "duration": 0.19999999999999574,
            "durationTicks": 192,
            "midi": 61,
            "name": "C#4",
            "ticks": 38208,
            "time": 39.800000000000004,
            "velocity": 0.7874015748031497
          },
          {
            "duration": 0.20000000000000284,
            "durationTicks": 192,
            "midi": 48,
            "name": "C3",
            "ticks": 38400,
            "time": 40,
            "velocity": 0.7874015748031497
          },
          {
            "duration": 0.20000000000000284,
            "durationTicks": 192,
            "midi": 60,
            "name": "C4",
            "ticks": 38592,
            "time": 40.2,
            "velocity": 0.7874015748031497
          },
          {
            "duration": 0.19999999999999574,
            "durationTicks": 192,
            "midi": 48,
            "name": "C3",
            "ticks": 38784,
            "time": 40.400000000000006,
            "velocity": 0.7874015748031497
          },
          {
            "duration": 0.20000000000000284,
            "durationTicks": 192,
            "midi": 60,
            "name": "C4",
            "ticks": 38976,
            "time": 40.6,
            "velocity": 0.7874015748031497
          },
          {
            "duration": 0.19999999999999574,
            "durationTicks": 192,
            "midi": 42,
            "name": "F#2",
            "ticks": 39168,
            "time": 40.800000000000004,
            "velocity": 0.7874015748031497
          },
          {
            "duration": 0.20000000000000284,
            "durationTicks": 192,
            "midi": 54,
            "name": "F#3",
            "ticks": 39360,
            "time": 41,
            "velocity": 0.7874015748031497
          },
          {
            "duration": 0.20000000000000284,
            "durationTicks": 192,
            "midi": 42,
            "name": "F#2",
            "ticks": 39552,
            "time": 41.2,
            "velocity": 0.7874015748031497
          },
          {
            "duration": 0.19999999999999574,
            "durationTicks": 192,
            "midi": 54,
            "name": "F#3",
            "ticks": 39744,
            "time": 41.400000000000006,
            "velocity": 0.7874015748031497
          },
          {
            "duration": 0.20000000000000284,
            "durationTicks": 192,
            "midi": 40,
            "name": "E2",
            "ticks": 39936,
            "time": 41.6,
            "velocity": 0.7874015748031497
          },
          {
            "duration": 0.19999999999999574,
            "durationTicks": 192,
            "midi": 52,
            "name": "E3",
            "ticks": 40128,
            "time": 41.800000000000004,
            "velocity": 0.7874015748031497
          },
          {
            "duration": 0.20000000000000284,
            "durationTicks": 192,
            "midi": 40,
            "name": "E2",
            "ticks": 40320,
            "time": 42,
            "velocity": 0.7874015748031497
          },
          {
            "duration": 0.20000000000000284,
            "durationTicks": 192,
            "midi": 52,
            "name": "E3",
            "ticks": 40512,
            "time": 42.2,
            "velocity": 0.7874015748031497
          },
          {
            "duration": 0.19999999999999574,
            "durationTicks": 192,
            "midi": 39,
            "name": "D#2",
            "ticks": 40704,
            "time": 42.400000000000006,
            "velocity": 0.7874015748031497
          },
          {
            "duration": 0.20000000000000284,
            "durationTicks": 192,
            "midi": 51,
            "name": "D#3",
            "ticks": 40896,
            "time": 42.6,
            "velocity": 0.7874015748031497
          },
          {
            "duration": 0.19999999999999574,
            "durationTicks": 192,
            "midi": 39,
            "name": "D#2",
            "ticks": 41088,
            "time": 42.800000000000004,
            "velocity": 0.7874015748031497
          },
          {
            "duration": 0.20000000000000284,
            "durationTicks": 192,
            "midi": 51,
            "name": "D#3",
            "ticks": 41280,
            "time": 43,
            "velocity": 0.7874015748031497
          },
          {
            "duration": 0.20000000000000284,
            "durationTicks": 192,
            "midi": 38,
            "name": "D2",
            "ticks": 41472,
            "time": 43.2,
            "velocity": 0.7874015748031497
          },
          {
            "duration": 0.19999999999999574,
            "durationTicks": 192,
            "midi": 50,
            "name": "D3",
            "ticks": 41664,
            "time": 43.400000000000006,
            "velocity": 0.7874015748031497
          },
          {
            "duration": 0.20000000000000284,
            "durationTicks": 192,
            "midi": 38,
            "name": "D2",
            "ticks": 41856,
            "time": 43.6,
            "velocity": 0.7874015748031497
          },
          {
            "duration": 0.19999999999999574,
            "durationTicks": 192,
            "midi": 50,
            "name": "D3",
            "ticks": 42048,
            "time": 43.800000000000004,
            "velocity": 0.7874015748031497
          },
          {
            "duration": 0.20000000000000284,
            "durationTicks": 192,
            "midi": 32,
            "name": "G#1",
            "ticks": 42240,
            "time": 44,
            "velocity": 0.7874015748031497
          },
          {
            "duration": 0.20000000000000284,
            "durationTicks": 192,
            "midi": 44,
            "name": "G#2",
            "ticks": 42432,
            "time": 44.2,
            "velocity": 0.7874015748031497
          },
          {
            "duration": 0.19999999999999574,
            "durationTicks": 192,
            "midi": 32,
            "name": "G#1",
            "ticks": 42624,
            "time": 44.400000000000006,
            "velocity": 0.7874015748031497
          },
          {
            "duration": 0.20000000000000284,
            "durationTicks": 192,
            "midi": 44,
            "name": "G#2",
            "ticks": 42816,
            "time": 44.6,
            "velocity": 0.7874015748031497
          },
          {
            "duration": 0.19999999999999574,
            "durationTicks": 192,
            "midi": 42,
            "name": "F#2",
            "ticks": 43008,
            "time": 44.800000000000004,
            "velocity": 0.7874015748031497
          },
          {
            "duration": 0.20000000000000284,
            "durationTicks": 192,
            "midi": 54,
            "name": "F#3",
            "ticks": 43200,
            "time": 45,
            "velocity": 0.7874015748031497
          },
          {
            "duration": 0.20000000000000284,
            "durationTicks": 192,
            "midi": 42,
            "name": "F#2",
            "ticks": 43392,
            "time": 45.2,
            "velocity": 0.7874015748031497
          },
          {
            "duration": 0.19999999999999574,
            "durationTicks": 192,
            "midi": 54,
            "name": "F#3",
            "ticks": 43584,
            "time": 45.400000000000006,
            "velocity": 0.7874015748031497
          },
          {
            "duration": 0.20000000000000284,
            "durationTicks": 192,
            "midi": 41,
            "name": "F2",
            "ticks": 43776,
            "time": 45.6,
            "velocity": 0.7874015748031497
          },
          {
            "duration": 0.19999999999999574,
            "durationTicks": 192,
            "midi": 53,
            "name": "F3",
            "ticks": 43968,
            "time": 45.800000000000004,
            "velocity": 0.7874015748031497
          },
          {
            "duration": 0.20000000000000284,
            "durationTicks": 192,
            "midi": 40,
            "name": "E2",
            "ticks": 44160,
            "time": 46,
            "velocity": 0.7874015748031497
          },
          {
            "duration": 0.20000000000000284,
            "durationTicks": 192,
            "midi": 52,
            "name": "E3",
            "ticks": 44352,
            "time": 46.2,
            "velocity": 0.7874015748031497
          },
          {
            "duration": 0.19999999999999574,
            "durationTicks": 192,
            "midi": 44,
            "name": "G#2",
            "ticks": 44544,
            "time": 46.400000000000006,
            "velocity": 0.7874015748031497
          },
          {
            "duration": 0.20000000000000284,
            "durationTicks": 192,
            "midi": 56,
            "name": "G#3",
            "ticks": 44736,
            "time": 46.6,
            "velocity": 0.7874015748031497
          },
          {
            "duration": 0.19999999999999574,
            "durationTicks": 192,
            "midi": 44,
            "name": "G#2",
            "ticks": 44928,
            "time": 46.800000000000004,
            "velocity": 0.7874015748031497
          },
          {
            "duration": 0.20000000000000284,
            "durationTicks": 192,
            "midi": 56,
            "name": "G#3",
            "ticks": 45120,
            "time": 47,
            "velocity": 0.7874015748031497
          },
          {
            "duration": 0.20000000000000284,
            "durationTicks": 192,
            "midi": 43,
            "name": "G2",
            "ticks": 45312,
            "time": 47.2,
            "velocity": 0.7874015748031497
          },
          {
            "duration": 0.19999999999999574,
            "durationTicks": 192,
            "midi": 55,
            "name": "G3",
            "ticks": 45504,
            "time": 47.400000000000006,
            "velocity": 0.7874015748031497
          },
          {
            "duration": 0.20000000000000284,
            "durationTicks": 192,
            "midi": 42,
            "name": "F#2",
            "ticks": 45696,
            "time": 47.6,
            "velocity": 0.7874015748031497
          },
          {
            "duration": 0.19999999999999574,
            "durationTicks": 192,
            "midi": 54,
            "name": "F#3",
            "ticks": 45888,
            "time": 47.800000000000004,
            "velocity": 0.7874015748031497
          },
          {
            "duration": 0.20000000000000284,
            "durationTicks": 192,
            "midi": 46,
            "name": "A#2",
            "ticks": 46080,
            "time": 48,
            "velocity": 0.7874015748031497
          },
          {
            "duration": 0.20000000000000284,
            "durationTicks": 192,
            "midi": 58,
            "name": "A#3",
            "ticks": 46272,
            "time": 48.2,
            "velocity": 0.7874015748031497
          },
          {
            "duration": 0.19999999999999574,
            "durationTicks": 192,
            "midi": 46,
            "name": "A#2",
            "ticks": 46464,
            "time": 48.400000000000006,
            "velocity": 0.7874015748031497
          },
          {
            "duration": 0.20000000000000284,
            "durationTicks": 192,
            "midi": 58,
            "name": "A#3",
            "ticks": 46656,
            "time": 48.6,
            "velocity": 0.7874015748031497
          },
          {
            "duration": 0.19999999999999574,
            "durationTicks": 192,
            "midi": 46,
            "name": "A#2",
            "ticks": 46848,
            "time": 48.800000000000004,
            "velocity": 0.7874015748031497
          },
          {
            "duration": 0.20000000000000284,
            "durationTicks": 192,
            "midi": 58,
            "name": "A#3",
            "ticks": 47040,
            "time": 49,
            "velocity": 0.7874015748031497
          },
          {
            "duration": 0.20000000000000284,
            "durationTicks": 192,
            "midi": 46,
            "name": "A#2",
            "ticks": 47232,
            "time": 49.2,
            "velocity": 0.7874015748031497
          },
          {
            "duration": 0.19999999999999574,
            "durationTicks": 192,
            "midi": 58,
            "name": "A#3",
            "ticks": 47424,
            "time": 49.400000000000006,
            "velocity": 0.7874015748031497
          },
          {
            "duration": 0.20000000000000284,
            "durationTicks": 192,
            "midi": 46,
            "name": "A#2",
            "ticks": 47616,
            "time": 49.6,
            "velocity": 0.7874015748031497
          },
          {
            "duration": 0.19999999999999574,
            "durationTicks": 192,
            "midi": 58,
            "name": "A#3",
            "ticks": 47808,
            "time": 49.800000000000004,
            "velocity": 0.7874015748031497
          },
          {
            "duration": 0.20000000000000284,
            "durationTicks": 192,
            "midi": 46,
            "name": "A#2",
            "ticks": 48000,
            "time": 50,
            "velocity": 0.7874015748031497
          },
          {
            "duration": 0.20000000000000284,
            "durationTicks": 192,
            "midi": 58,
            "name": "A#3",
            "ticks": 48192,
            "time": 50.2,
            "velocity": 0.7874015748031497
          },
          {
            "duration": 0.19999999999999574,
            "durationTicks": 192,
            "midi": 46,
            "name": "A#2",
            "ticks": 48384,
            "time": 50.400000000000006,
            "velocity": 0.7874015748031497
          },
          {
            "duration": 0.20000000000000284,
            "durationTicks": 192,
            "midi": 58,
            "name": "A#3",
            "ticks": 48576,
            "time": 50.6,
            "velocity": 0.7874015748031497
          },
          {
            "duration": 0.19999999999999574,
            "durationTicks": 192,
            "midi": 46,
            "name": "A#2",
            "ticks": 48768,
            "time": 50.800000000000004,
            "velocity": 0.7874015748031497
          },
          {
            "duration": 0.20000000000000284,
            "durationTicks": 192,
            "midi": 58,
            "name": "A#3",
            "ticks": 48960,
            "time": 51,
            "velocity": 0.7874015748031497
          },
          {
            "duration": 0.20000000000000284,
            "durationTicks": 192,
            "midi": 30,
            "name": "F#1",
            "ticks": 49152,
            "time": 51.2,
            "velocity": 0.7874015748031497
          },
          {
            "duration": 0.19999999999999574,
            "durationTicks": 192,
            "midi": 42,
            "name": "F#2",
            "ticks": 49344,
            "time": 51.400000000000006,
            "velocity": 0.7874015748031497
          },
          {
            "duration": 0.20000000000000284,
            "durationTicks": 192,
            "midi": 30,
            "name": "F#1",
            "ticks": 49536,
            "time": 51.6,
            "velocity": 0.7874015748031497
          },
          {
            "duration": 0.19999999999999574,
            "durationTicks": 192,
            "midi": 42,
            "name": "F#2",
            "ticks": 49728,
            "time": 51.800000000000004,
            "velocity": 0.7874015748031497
          },
          {
            "duration": 0.20000000000000284,
            "durationTicks": 192,
            "midi": 30,
            "name": "F#1",
            "ticks": 49920,
            "time": 52,
            "velocity": 0.7874015748031497
          },
          {
            "duration": 0.20000000000000284,
            "durationTicks": 192,
            "midi": 42,
            "name": "F#2",
            "ticks": 50112,
            "time": 52.2,
            "velocity": 0.7874015748031497
          },
          {
            "duration": 0.19999999999999574,
            "durationTicks": 192,
            "midi": 30,
            "name": "F#1",
            "ticks": 50304,
            "time": 52.400000000000006,
            "velocity": 0.7874015748031497
          },
          {
            "duration": 0.20000000000000284,
            "durationTicks": 192,
            "midi": 42,
            "name": "F#2",
            "ticks": 50496,
            "time": 52.6,
            "velocity": 0.7874015748031497
          },
          {
            "duration": 0.2666666666666586,
            "durationTicks": 256,
            "midi": 31,
            "name": "G1",
            "ticks": 50688,
            "time": 52.800000000000004,
            "velocity": 0.7874015748031497
          },
          {
            "duration": 0.2666666666666586,
            "durationTicks": 256,
            "midi": 43,
            "name": "G2",
            "ticks": 50688,
            "time": 52.800000000000004,
            "velocity": 0.7874015748031497
          },
          {
            "duration": 0.26666666666667993,
            "durationTicks": 256,
            "midi": 42,
            "name": "F#2",
            "ticks": 50944,
            "time": 53.06666666666666,
            "velocity": 0.7874015748031497
          },
          {
            "duration": 0.26666666666667993,
            "durationTicks": 256,
            "midi": 30,
            "name": "F#1",
            "ticks": 50944,
            "time": 53.06666666666666,
            "velocity": 0.7874015748031497
          },
          {
            "duration": 0.2666666666666586,
            "durationTicks": 256,
            "midi": 41,
            "name": "F2",
            "ticks": 51200,
            "time": 53.33333333333334,
            "velocity": 0.7874015748031497
          },
          {
            "duration": 0.2666666666666586,
            "durationTicks": 256,
            "midi": 29,
            "name": "F1",
            "ticks": 51200,
            "time": 53.33333333333334,
            "velocity": 0.7874015748031497
          },
          {
            "duration": 0.2666666666666657,
            "durationTicks": 256,
            "midi": 28,
            "name": "E1",
            "ticks": 51456,
            "time": 53.6,
            "velocity": 0.7874015748031497
          },
          {
            "duration": 0.2666666666666657,
            "durationTicks": 256,
            "midi": 40,
            "name": "E2",
            "ticks": 51456,
            "time": 53.6,
            "velocity": 0.7874015748031497
          },
          {
            "duration": 0.2666666666666728,
            "durationTicks": 256,
            "midi": 39,
            "name": "D#2",
            "ticks": 51712,
            "time": 53.86666666666667,
            "velocity": 0.7874015748031497
          },
          {
            "duration": 0.2666666666666728,
            "durationTicks": 256,
            "midi": 27,
            "name": "D#1",
            "ticks": 51712,
            "time": 53.86666666666667,
            "velocity": 0.7874015748031497
          },
          {
            "duration": 0.2666666666666657,
            "durationTicks": 256,
            "midi": 26,
            "name": "D1",
            "ticks": 51968,
            "time": 54.13333333333334,
            "velocity": 0.7874015748031497
          },
          {
            "duration": 0.2666666666666657,
            "durationTicks": 256,
            "midi": 38,
            "name": "D2",
            "ticks": 51968,
            "time": 54.13333333333334,
            "velocity": 0.7874015748031497
          },
          {
            "duration": 0.19999999999999574,
            "durationTicks": 192,
            "midi": 25,
            "name": "C#1",
            "ticks": 52224,
            "time": 54.400000000000006,
            "velocity": 0.7874015748031497
          },
          {
            "duration": 0.20000000000000284,
            "durationTicks": 192,
            "midi": 37,
            "name": "C#2",
            "ticks": 52416,
            "time": 54.6,
            "velocity": 0.7874015748031497
          },
          {
            "duration": 0.19999999999999574,
            "durationTicks": 192,
            "midi": 25,
            "name": "C#1",
            "ticks": 52608,
            "time": 54.800000000000004,
            "velocity": 0.7874015748031497
          },
          {
            "duration": 0.20000000000000284,
            "durationTicks": 192,
            "midi": 37,
            "name": "C#2",
            "ticks": 52800,
            "time": 55,
            "velocity": 0.7874015748031497
          },
          {
            "duration": 0.20000000000000284,
            "durationTicks": 192,
            "midi": 25,
            "name": "C#1",
            "ticks": 52992,
            "time": 55.2,
            "velocity": 0.7874015748031497
          },
          {
            "duration": 0.19999999999999574,
            "durationTicks": 192,
            "midi": 37,
            "name": "C#2",
            "ticks": 53184,
            "time": 55.400000000000006,
            "velocity": 0.7874015748031497
          },
          {
            "duration": 0.20000000000000284,
            "durationTicks": 192,
            "midi": 27,
            "name": "D#1",
            "ticks": 53376,
            "time": 55.6,
            "velocity": 0.7874015748031497
          },
          {
            "duration": 0.19999999999999574,
            "durationTicks": 192,
            "midi": 39,
            "name": "D#2",
            "ticks": 53568,
            "time": 55.800000000000004,
            "velocity": 0.7874015748031497
          },
          {
            "duration": 0.20000000000000284,
            "durationTicks": 192,
            "midi": 29,
            "name": "F1",
            "ticks": 53760,
            "time": 56,
            "velocity": 0.7874015748031497
          },
          {
            "duration": 0.20000000000000284,
            "durationTicks": 192,
            "midi": 41,
            "name": "F2",
            "ticks": 53952,
            "time": 56.2,
            "velocity": 0.7874015748031497
          },
          {
            "duration": 0.19999999999999574,
            "durationTicks": 192,
            "midi": 29,
            "name": "F1",
            "ticks": 54144,
            "time": 56.400000000000006,
            "velocity": 0.7874015748031497
          },
          {
            "duration": 0.20000000000000284,
            "durationTicks": 192,
            "midi": 41,
            "name": "F2",
            "ticks": 54336,
            "time": 56.6,
            "velocity": 0.7874015748031497
          },
          {
            "duration": 0.19999999999999574,
            "durationTicks": 192,
            "midi": 30,
            "name": "F#1",
            "ticks": 54528,
            "time": 56.800000000000004,
            "velocity": 0.7874015748031497
          },
          {
            "duration": 0.20000000000000284,
            "durationTicks": 192,
            "midi": 42,
            "name": "F#2",
            "ticks": 54720,
            "time": 57,
            "velocity": 0.7874015748031497
          },
          {
            "duration": 0.20000000000000284,
            "durationTicks": 192,
            "midi": 32,
            "name": "G#1",
            "ticks": 54912,
            "time": 57.2,
            "velocity": 0.7874015748031497
          },
          {
            "duration": 0.19999999999999574,
            "durationTicks": 192,
            "midi": 44,
            "name": "G#2",
            "ticks": 55104,
            "time": 57.400000000000006,
            "velocity": 0.7874015748031497
          },
          {
            "duration": 0.20000000000000284,
            "durationTicks": 192,
            "midi": 33,
            "name": "A1",
            "ticks": 55296,
            "time": 57.6,
            "velocity": 0.7874015748031497
          },
          {
            "duration": 0.19999999999999574,
            "durationTicks": 192,
            "midi": 45,
            "name": "A2",
            "ticks": 55488,
            "time": 57.800000000000004,
            "velocity": 0.7874015748031497
          },
          {
            "duration": 0.20000000000000284,
            "durationTicks": 192,
            "midi": 33,
            "name": "A1",
            "ticks": 55680,
            "time": 58,
            "velocity": 0.7874015748031497
          },
          {
            "duration": 0.20000000000000284,
            "durationTicks": 192,
            "midi": 45,
            "name": "A2",
            "ticks": 55872,
            "time": 58.2,
            "velocity": 0.7874015748031497
          },
          {
            "duration": 0.19999999999999574,
            "durationTicks": 192,
            "midi": 33,
            "name": "A1",
            "ticks": 56064,
            "time": 58.400000000000006,
            "velocity": 0.7874015748031497
          },
          {
            "duration": 0.20000000000000284,
            "durationTicks": 192,
            "midi": 45,
            "name": "A2",
            "ticks": 56256,
            "time": 58.6,
            "velocity": 0.7874015748031497
          },
          {
            "duration": 0.19999999999999574,
            "durationTicks": 192,
            "midi": 33,
            "name": "A1",
            "ticks": 56448,
            "time": 58.800000000000004,
            "velocity": 0.7874015748031497
          },
          {
            "duration": 0.20000000000000284,
            "durationTicks": 192,
            "midi": 45,
            "name": "A2",
            "ticks": 56640,
            "time": 59,
            "velocity": 0.7874015748031497
          },
          {
            "duration": 0.20000000000000284,
            "durationTicks": 192,
            "midi": 33,
            "name": "A1",
            "ticks": 56832,
            "time": 59.2,
            "velocity": 0.7874015748031497
          },
          {
            "duration": 0.19999999999999574,
            "durationTicks": 192,
            "midi": 45,
            "name": "A2",
            "ticks": 57024,
            "time": 59.400000000000006,
            "velocity": 0.7874015748031497
          },
          {
            "duration": 0.20000000000000284,
            "durationTicks": 192,
            "midi": 33,
            "name": "A1",
            "ticks": 57216,
            "time": 59.6,
            "velocity": 0.7874015748031497
          },
          {
            "duration": 0.19999999999999574,
            "durationTicks": 192,
            "midi": 45,
            "name": "A2",
            "ticks": 57408,
            "time": 59.800000000000004,
            "velocity": 0.7874015748031497
          },
          {
            "duration": 0.20000000000000284,
            "durationTicks": 192,
            "midi": 33,
            "name": "A1",
            "ticks": 57600,
            "time": 60,
            "velocity": 0.7874015748031497
          },
          {
            "duration": 0.20000000000000284,
            "durationTicks": 192,
            "midi": 45,
            "name": "A2",
            "ticks": 57792,
            "time": 60.2,
            "velocity": 0.7874015748031497
          },
          {
            "duration": 0.19999999999999574,
            "durationTicks": 192,
            "midi": 33,
            "name": "A1",
            "ticks": 57984,
            "time": 60.400000000000006,
            "velocity": 0.7874015748031497
          },
          {
            "duration": 0.20000000000000284,
            "durationTicks": 192,
            "midi": 45,
            "name": "A2",
            "ticks": 58176,
            "time": 60.6,
            "velocity": 0.7874015748031497
          },
          {
            "duration": 0.19999999999999574,
            "durationTicks": 192,
            "midi": 26,
            "name": "D1",
            "ticks": 58368,
            "time": 60.800000000000004,
            "velocity": 0.7874015748031497
          },
          {
            "duration": 0.20000000000000284,
            "durationTicks": 192,
            "midi": 26,
            "name": "D1",
            "ticks": 58560,
            "time": 61,
            "velocity": 0.7874015748031497
          },
          {
            "duration": 0.20000000000000284,
            "durationTicks": 192,
            "midi": 26,
            "name": "D1",
            "ticks": 58752,
            "time": 61.2,
            "velocity": 0.7874015748031497
          },
          {
            "duration": 0.19999999999999574,
            "durationTicks": 192,
            "midi": 26,
            "name": "D1",
            "ticks": 58944,
            "time": 61.400000000000006,
            "velocity": 0.7874015748031497
          },
          {
            "duration": 0.20000000000000284,
            "durationTicks": 192,
            "midi": 26,
            "name": "D1",
            "ticks": 59136,
            "time": 61.6,
            "velocity": 0.7874015748031497
          },
          {
            "duration": 0.19999999999999574,
            "durationTicks": 192,
            "midi": 26,
            "name": "D1",
            "ticks": 59328,
            "time": 61.800000000000004,
            "velocity": 0.7874015748031497
          },
          {
            "duration": 0.20000000000000284,
            "durationTicks": 192,
            "midi": 26,
            "name": "D1",
            "ticks": 59520,
            "time": 62,
            "velocity": 0.7874015748031497
          },
          {
            "duration": 0.20000000000000284,
            "durationTicks": 192,
            "midi": 26,
            "name": "D1",
            "ticks": 59712,
            "time": 62.2,
            "velocity": 0.7874015748031497
          },
          {
            "duration": 0.19999999999999574,
            "durationTicks": 192,
            "midi": 26,
            "name": "D1",
            "ticks": 59904,
            "time": 62.400000000000006,
            "velocity": 0.7874015748031497
          },
          {
            "duration": 0.20000000000000284,
            "durationTicks": 192,
            "midi": 26,
            "name": "D1",
            "ticks": 60096,
            "time": 62.6,
            "velocity": 0.7874015748031497
          },
          {
            "duration": 0.19999999999999574,
            "durationTicks": 192,
            "midi": 26,
            "name": "D1",
            "ticks": 60288,
            "time": 62.800000000000004,
            "velocity": 0.7874015748031497
          },
          {
            "duration": 0.20000000000000284,
            "durationTicks": 192,
            "midi": 26,
            "name": "D1",
            "ticks": 60480,
            "time": 63,
            "velocity": 0.7874015748031497
          },
          {
            "duration": 0.20000000000000284,
            "durationTicks": 192,
            "midi": 26,
            "name": "D1",
            "ticks": 60672,
            "time": 63.2,
            "velocity": 0.7874015748031497
          },
          {
            "duration": 0.19999999999999574,
            "durationTicks": 192,
            "midi": 26,
            "name": "D1",
            "ticks": 60864,
            "time": 63.400000000000006,
            "velocity": 0.7874015748031497
          },
          {
            "duration": 0.20000000000000284,
            "durationTicks": 192,
            "midi": 26,
            "name": "D1",
            "ticks": 61056,
            "time": 63.6,
            "velocity": 0.7874015748031497
          },
          {
            "duration": 0.19999999999999574,
            "durationTicks": 192,
            "midi": 26,
            "name": "D1",
            "ticks": 61248,
            "time": 63.800000000000004,
            "velocity": 0.7874015748031497
          },
          {
            "duration": 0.20000000000000284,
            "durationTicks": 192,
            "midi": 26,
            "name": "D1",
            "ticks": 61440,
            "time": 64,
            "velocity": 0.7874015748031497
          },
          {
            "duration": 0.20000000000000284,
            "durationTicks": 192,
            "midi": 26,
            "name": "D1",
            "ticks": 61632,
            "time": 64.2,
            "velocity": 0.7874015748031497
          },
          {
            "duration": 0.20000000000000284,
            "durationTicks": 192,
            "midi": 26,
            "name": "D1",
            "ticks": 61824,
            "time": 64.4,
            "velocity": 0.7874015748031497
          },
          {
            "duration": 0.19999999999998863,
            "durationTicks": 192,
            "midi": 26,
            "name": "D1",
            "ticks": 62016,
            "time": 64.60000000000001,
            "velocity": 0.7874015748031497
          },
          {
            "duration": 0.20000000000000284,
            "durationTicks": 192,
            "midi": 26,
            "name": "D1",
            "ticks": 62208,
            "time": 64.8,
            "velocity": 0.7874015748031497
          },
          {
            "duration": 0.20000000000000284,
            "durationTicks": 192,
            "midi": 26,
            "name": "D1",
            "ticks": 62400,
            "time": 65,
            "velocity": 0.7874015748031497
          },
          {
            "duration": 0.20000000000000284,
            "durationTicks": 192,
            "midi": 26,
            "name": "D1",
            "ticks": 62592,
            "time": 65.2,
            "velocity": 0.7874015748031497
          },
          {
            "duration": 0.20000000000000284,
            "durationTicks": 192,
            "midi": 26,
            "name": "D1",
            "ticks": 62784,
            "time": 65.4,
            "velocity": 0.7874015748031497
          },
          {
            "duration": 0.19999999999998863,
            "durationTicks": 192,
            "midi": 26,
            "name": "D1",
            "ticks": 62976,
            "time": 65.60000000000001,
            "velocity": 0.7874015748031497
          },
          {
            "duration": 0.20000000000000284,
            "durationTicks": 192,
            "midi": 26,
            "name": "D1",
            "ticks": 63360,
            "time": 66,
            "velocity": 0.7874015748031497
          },
          {
            "duration": 0.20000000000000284,
            "durationTicks": 192,
            "midi": 26,
            "name": "D1",
            "ticks": 63744,
            "time": 66.4,
            "velocity": 0.7874015748031497
          },
          {
            "duration": 0.20000000000000284,
            "durationTicks": 192,
            "midi": 26,
            "name": "D1",
            "ticks": 64128,
            "time": 66.8,
            "velocity": 0.7874015748031497
          },
          {
            "duration": 0.20000000000000284,
            "durationTicks": 192,
            "midi": 26,
            "name": "D1",
            "ticks": 64512,
            "time": 67.2,
            "velocity": 0.7874015748031497
          },
          {
            "duration": 0.20000000000000284,
            "durationTicks": 192,
            "midi": 26,
            "name": "D1",
            "ticks": 64704,
            "time": 67.4,
            "velocity": 0.7874015748031497
          },
          {
            "duration": 0.19999999999998863,
            "durationTicks": 192,
            "midi": 26,
            "name": "D1",
            "ticks": 64896,
            "time": 67.60000000000001,
            "velocity": 0.7874015748031497
          },
          {
            "duration": 0.20000000000000284,
            "durationTicks": 192,
            "midi": 26,
            "name": "D1",
            "ticks": 65088,
            "time": 67.8,
            "velocity": 0.7874015748031497
          },
          {
            "duration": 0.20000000000000284,
            "durationTicks": 192,
            "midi": 26,
            "name": "D1",
            "ticks": 65280,
            "time": 68,
            "velocity": 0.7874015748031497
          },
          {
            "duration": 0.20000000000000284,
            "durationTicks": 192,
            "midi": 38,
            "name": "D2",
            "ticks": 65472,
            "time": 68.2,
            "velocity": 0.7874015748031497
          },
          {
            "duration": 0.20000000000000284,
            "durationTicks": 192,
            "midi": 50,
            "name": "D3",
            "ticks": 65472,
            "time": 68.2,
            "velocity": 0.7874015748031497
          },
          {
            "duration": 0.20000000000000284,
            "durationTicks": 192,
            "midi": 26,
            "name": "D1",
            "ticks": 65472,
            "time": 68.2,
            "velocity": 0.7874015748031497
          },
          {
            "duration": 0.20000000000000284,
            "durationTicks": 192,
            "midi": 26,
            "name": "D1",
            "ticks": 65664,
            "time": 68.4,
            "velocity": 0.7874015748031497
          },
          {
            "duration": 0.19999999999998863,
            "durationTicks": 192,
            "midi": 26,
            "name": "D1",
            "ticks": 65856,
            "time": 68.60000000000001,
            "velocity": 0.7874015748031497
          },
          {
            "duration": 0.19999999999998863,
            "durationTicks": 192,
            "midi": 50,
            "name": "D3",
            "ticks": 65856,
            "time": 68.60000000000001,
            "velocity": 0.7874015748031497
          },
          {
            "duration": 0.19999999999998863,
            "durationTicks": 192,
            "midi": 38,
            "name": "D2",
            "ticks": 65856,
            "time": 68.60000000000001,
            "velocity": 0.7874015748031497
          },
          {
            "duration": 0.20000000000000284,
            "durationTicks": 192,
            "midi": 26,
            "name": "D1",
            "ticks": 66048,
            "time": 68.8,
            "velocity": 0.7874015748031497
          },
          {
            "duration": 0.20000000000000284,
            "durationTicks": 192,
            "midi": 50,
            "name": "D3",
            "ticks": 66048,
            "time": 68.8,
            "velocity": 0.7874015748031497
          },
          {
            "duration": 0.20000000000000284,
            "durationTicks": 192,
            "midi": 38,
            "name": "D2",
            "ticks": 66048,
            "time": 68.8,
            "velocity": 0.7874015748031497
          },
          {
            "duration": 0.20000000000000284,
            "durationTicks": 192,
            "midi": 26,
            "name": "D1",
            "ticks": 66240,
            "time": 69,
            "velocity": 0.7874015748031497
          },
          {
            "duration": 0.20000000000000284,
            "durationTicks": 192,
            "midi": 26,
            "name": "D1",
            "ticks": 66432,
            "time": 69.2,
            "velocity": 0.7874015748031497
          },
          {
            "duration": 0.20000000000000284,
            "durationTicks": 192,
            "midi": 26,
            "name": "D1",
            "ticks": 66624,
            "time": 69.4,
            "velocity": 0.7874015748031497
          },
          {
            "duration": 0.19999999999998863,
            "durationTicks": 192,
            "midi": 26,
            "name": "D1",
            "ticks": 66816,
            "time": 69.60000000000001,
            "velocity": 0.7874015748031497
          },
          {
            "duration": 0.20000000000000284,
            "durationTicks": 192,
            "midi": 50,
            "name": "D3",
            "ticks": 67008,
            "time": 69.8,
            "velocity": 0.7874015748031497
          },
          {
            "duration": 0.20000000000000284,
            "durationTicks": 192,
            "midi": 38,
            "name": "D2",
            "ticks": 67008,
            "time": 69.8,
            "velocity": 0.7874015748031497
          },
          {
            "duration": 0.20000000000000284,
            "durationTicks": 192,
            "midi": 26,
            "name": "D1",
            "ticks": 67008,
            "time": 69.8,
            "velocity": 0.7874015748031497
          },
          {
            "duration": 0.20000000000000284,
            "durationTicks": 192,
            "midi": 26,
            "name": "D1",
            "ticks": 67200,
            "time": 70,
            "velocity": 0.7874015748031497
          },
          {
            "duration": 0.20000000000000284,
            "durationTicks": 192,
            "midi": 26,
            "name": "D1",
            "ticks": 67392,
            "time": 70.2,
            "velocity": 0.7874015748031497
          },
          {
            "duration": 0.20000000000000284,
            "durationTicks": 192,
            "midi": 38,
            "name": "D2",
            "ticks": 67392,
            "time": 70.2,
            "velocity": 0.7874015748031497
          },
          {
            "duration": 0.20000000000000284,
            "durationTicks": 192,
            "midi": 50,
            "name": "D3",
            "ticks": 67392,
            "time": 70.2,
            "velocity": 0.7874015748031497
          },
          {
            "duration": 0.20000000000000284,
            "durationTicks": 192,
            "midi": 50,
            "name": "D3",
            "ticks": 67584,
            "time": 70.4,
            "velocity": 0.7874015748031497
          },
          {
            "duration": 0.20000000000000284,
            "durationTicks": 192,
            "midi": 26,
            "name": "D1",
            "ticks": 67584,
            "time": 70.4,
            "velocity": 0.7874015748031497
          },
          {
            "duration": 0.20000000000000284,
            "durationTicks": 192,
            "midi": 38,
            "name": "D2",
            "ticks": 67584,
            "time": 70.4,
            "velocity": 0.7874015748031497
          },
          {
            "duration": 0.19999999999998863,
            "durationTicks": 192,
            "midi": 26,
            "name": "D1",
            "ticks": 67776,
            "time": 70.60000000000001,
            "velocity": 0.7874015748031497
          },
          {
            "duration": 0.20000000000000284,
            "durationTicks": 192,
            "midi": 26,
            "name": "D1",
            "ticks": 67968,
            "time": 70.8,
            "velocity": 0.7874015748031497
          },
          {
            "duration": 0.20000000000000284,
            "durationTicks": 192,
            "midi": 26,
            "name": "D1",
            "ticks": 68160,
            "time": 71,
            "velocity": 0.7874015748031497
          },
          {
            "duration": 0.20000000000000284,
            "durationTicks": 192,
            "midi": 26,
            "name": "D1",
            "ticks": 68352,
            "time": 71.2,
            "velocity": 0.7874015748031497
          },
          {
            "duration": 0.20000000000000284,
            "durationTicks": 192,
            "midi": 38,
            "name": "D2",
            "ticks": 68544,
            "time": 71.4,
            "velocity": 0.7874015748031497
          },
          {
            "duration": 0.20000000000000284,
            "durationTicks": 192,
            "midi": 26,
            "name": "D1",
            "ticks": 68544,
            "time": 71.4,
            "velocity": 0.7874015748031497
          },
          {
            "duration": 0.20000000000000284,
            "durationTicks": 192,
            "midi": 50,
            "name": "D3",
            "ticks": 68544,
            "time": 71.4,
            "velocity": 0.7874015748031497
          },
          {
            "duration": 0.19999999999998863,
            "durationTicks": 192,
            "midi": 26,
            "name": "D1",
            "ticks": 68736,
            "time": 71.60000000000001,
            "velocity": 0.7874015748031497
          },
          {
            "duration": 0.20000000000000284,
            "durationTicks": 192,
            "midi": 50,
            "name": "D3",
            "ticks": 68928,
            "time": 71.8,
            "velocity": 0.7874015748031497
          },
          {
            "duration": 0.20000000000000284,
            "durationTicks": 192,
            "midi": 38,
            "name": "D2",
            "ticks": 68928,
            "time": 71.8,
            "velocity": 0.7874015748031497
          },
          {
            "duration": 0.20000000000000284,
            "durationTicks": 192,
            "midi": 26,
            "name": "D1",
            "ticks": 68928,
            "time": 71.8,
            "velocity": 0.7874015748031497
          },
          {
            "duration": 0.20000000000000284,
            "durationTicks": 192,
            "midi": 50,
            "name": "D3",
            "ticks": 69120,
            "time": 72,
            "velocity": 0.7874015748031497
          },
          {
            "duration": 0.20000000000000284,
            "durationTicks": 192,
            "midi": 26,
            "name": "D1",
            "ticks": 69120,
            "time": 72,
            "velocity": 0.7874015748031497
          },
          {
            "duration": 0.20000000000000284,
            "durationTicks": 192,
            "midi": 38,
            "name": "D2",
            "ticks": 69120,
            "time": 72,
            "velocity": 0.7874015748031497
          },
          {
            "duration": 0.20000000000000284,
            "durationTicks": 192,
            "midi": 26,
            "name": "D1",
            "ticks": 69504,
            "time": 72.4,
            "velocity": 0.7874015748031497
          },
          {
            "duration": 0.20000000000000284,
            "durationTicks": 192,
            "midi": 49,
            "name": "C#3",
            "ticks": 69504,
            "time": 72.4,
            "velocity": 0.7874015748031497
          },
          {
            "duration": 0.20000000000000284,
            "durationTicks": 192,
            "midi": 26,
            "name": "D1",
            "ticks": 69888,
            "time": 72.8,
            "velocity": 0.7874015748031497
          },
          {
            "duration": 0.20000000000000284,
            "durationTicks": 192,
            "midi": 48,
            "name": "C3",
            "ticks": 69888,
            "time": 72.8,
            "velocity": 0.7874015748031497
          },
          {
            "duration": 0.20000000000000284,
            "durationTicks": 192,
            "midi": 26,
            "name": "D1",
            "ticks": 70272,
            "time": 73.2,
            "velocity": 0.7874015748031497
          },
          {
            "duration": 0.20000000000000284,
            "durationTicks": 192,
            "midi": 47,
            "name": "B2",
            "ticks": 70272,
            "time": 73.2,
            "velocity": 0.7874015748031497
          },
          {
            "duration": 1.5,
            "durationTicks": 1440,
            "midi": 46,
            "name": "A#2",
            "ticks": 70656,
            "time": 73.60000000000001,
            "velocity": 0.7874015748031497
          }
        ],
        "endOfTrackTicks": 72096
      },
      {
        "channel": 2,
        "controlChanges": {},
        "pitchBends": [],
        "instrument": {
          "family": "piano",
          "number": 6,
          "name": "harpsichord"
        },
        "name": "Harpsichord",
        "notes": [
          {
            "duration": 0.2,
            "durationTicks": 192,
            "midi": 62,
            "name": "D4",
            "ticks": 0,
            "time": 0,
            "velocity": 0.3937007874015748
          },
          {
            "duration": 0.2,
            "durationTicks": 192,
            "midi": 57,
            "name": "A3",
            "ticks": 192,
            "time": 0.2,
            "velocity": 0.3937007874015748
          },
          {
            "duration": 0.20000000000000007,
            "durationTicks": 192,
            "midi": 61,
            "name": "C#4",
            "ticks": 384,
            "time": 0.4,
            "velocity": 0.3937007874015748
          },
          {
            "duration": 0.19999999999999996,
            "durationTicks": 192,
            "midi": 62,
            "name": "D4",
            "ticks": 576,
            "time": 0.6000000000000001,
            "velocity": 0.3937007874015748
          },
          {
            "duration": 0.19999999999999996,
            "durationTicks": 192,
            "midi": 64,
            "name": "E4",
            "ticks": 768,
            "time": 0.8,
            "velocity": 0.3937007874015748
          },
          {
            "duration": 0.20000000000000018,
            "durationTicks": 192,
            "midi": 57,
            "name": "A3",
            "ticks": 960,
            "time": 1,
            "velocity": 0.3937007874015748
          },
          {
            "duration": 0.19999999999999996,
            "durationTicks": 192,
            "midi": 62,
            "name": "D4",
            "ticks": 1152,
            "time": 1.2000000000000002,
            "velocity": 0.3937007874015748
          },
          {
            "duration": 0.19999999999999996,
            "durationTicks": 192,
            "midi": 64,
            "name": "E4",
            "ticks": 1344,
            "time": 1.4000000000000001,
            "velocity": 0.3937007874015748
          },
          {
            "duration": 0.19999999999999996,
            "durationTicks": 192,
            "midi": 65,
            "name": "F4",
            "ticks": 1536,
            "time": 1.6,
            "velocity": 0.3937007874015748
          },
          {
            "duration": 0.19999999999999996,
            "durationTicks": 192,
            "midi": 57,
            "name": "A3",
            "ticks": 1728,
            "time": 1.8,
            "velocity": 0.3937007874015748
          },
          {
            "duration": 0.20000000000000018,
            "durationTicks": 192,
            "midi": 62,
            "name": "D4",
            "ticks": 1920,
            "time": 2,
            "velocity": 0.3937007874015748
          },
          {
            "duration": 0.20000000000000018,
            "durationTicks": 192,
            "midi": 65,
            "name": "F4",
            "ticks": 2112,
            "time": 2.2,
            "velocity": 0.3937007874015748
          },
          {
            "duration": 0.19999999999999973,
            "durationTicks": 192,
            "midi": 64,
            "name": "E4",
            "ticks": 2304,
            "time": 2.4000000000000004,
            "velocity": 0.3937007874015748
          },
          {
            "duration": 0.20000000000000018,
            "durationTicks": 192,
            "midi": 57,
            "name": "A3",
            "ticks": 2496,
            "time": 2.6,
            "velocity": 0.3937007874015748
          },
          {
            "duration": 0.19999999999999973,
            "durationTicks": 192,
            "midi": 61,
            "name": "C#4",
            "ticks": 2688,
            "time": 2.8000000000000003,
            "velocity": 0.3937007874015748
          },
          {
            "duration": 0.20000000000000018,
            "durationTicks": 192,
            "midi": 62,
            "name": "D4",
            "ticks": 2880,
            "time": 3,
            "velocity": 0.3937007874015748
          },
          {
            "duration": 0.20000000000000018,
            "durationTicks": 192,
            "midi": 62,
            "name": "D4",
            "ticks": 3072,
            "time": 3.2,
            "velocity": 0.3937007874015748
          },
          {
            "duration": 0.19999999999999973,
            "durationTicks": 192,
            "midi": 57,
            "name": "A3",
            "ticks": 3264,
            "time": 3.4000000000000004,
            "velocity": 0.3937007874015748
          },
          {
            "duration": 0.20000000000000018,
            "durationTicks": 192,
            "midi": 61,
            "name": "C#4",
            "ticks": 3456,
            "time": 3.6,
            "velocity": 0.3937007874015748
          },
          {
            "duration": 0.19999999999999973,
            "durationTicks": 192,
            "midi": 62,
            "name": "D4",
            "ticks": 3648,
            "time": 3.8000000000000003,
            "velocity": 0.3937007874015748
          },
          {
            "duration": 0.20000000000000018,
            "durationTicks": 192,
            "midi": 64,
            "name": "E4",
            "ticks": 3840,
            "time": 4,
            "velocity": 0.3937007874015748
          },
          {
            "duration": 0.20000000000000018,
            "durationTicks": 192,
            "midi": 57,
            "name": "A3",
            "ticks": 4032,
            "time": 4.2,
            "velocity": 0.3937007874015748
          },
          {
            "duration": 0.20000000000000018,
            "durationTicks": 192,
            "midi": 62,
            "name": "D4",
            "ticks": 4224,
            "time": 4.4,
            "velocity": 0.3937007874015748
          },
          {
            "duration": 0.20000000000000018,
            "durationTicks": 192,
            "midi": 64,
            "name": "E4",
            "ticks": 4416,
            "time": 4.6000000000000005,
            "velocity": 0.3937007874015748
          },
          {
            "duration": 0.1999999999999993,
            "durationTicks": 192,
            "midi": 67,
            "name": "G4",
            "ticks": 4608,
            "time": 4.800000000000001,
            "velocity": 0.3937007874015748
          },
          {
            "duration": 0.20000000000000018,
            "durationTicks": 192,
            "midi": 66,
            "name": "F#4",
            "ticks": 4992,
            "time": 5.2,
            "velocity": 0.3937007874015748
          },
          {
            "duration": 0.20000000000000018,
            "durationTicks": 192,
            "midi": 65,
            "name": "F4",
            "ticks": 5376,
            "time": 5.6000000000000005,
            "velocity": 0.3937007874015748
          },
          {
            "duration": 0.20000000000000018,
            "durationTicks": 192,
            "midi": 64,
            "name": "E4",
            "ticks": 5760,
            "time": 6,
            "velocity": 0.3937007874015748
          },
          {
            "duration": 0.20000000000000018,
            "durationTicks": 192,
            "midi": 62,
            "name": "D4",
            "ticks": 6144,
            "time": 6.4,
            "velocity": 0.3937007874015748
          },
          {
            "duration": 0.20000000000000018,
            "durationTicks": 192,
            "midi": 57,
            "name": "A3",
            "ticks": 6336,
            "time": 6.6000000000000005,
            "velocity": 0.3937007874015748
          },
          {
            "duration": 0.1999999999999993,
            "durationTicks": 192,
            "midi": 61,
            "name": "C#4",
            "ticks": 6528,
            "time": 6.800000000000001,
            "velocity": 0.3937007874015748
          },
          {
            "duration": 0.20000000000000018,
            "durationTicks": 192,
            "midi": 62,
            "name": "D4",
            "ticks": 6720,
            "time": 7,
            "velocity": 0.3937007874015748
          },
          {
            "duration": 0.20000000000000018,
            "durationTicks": 192,
            "midi": 64,
            "name": "E4",
            "ticks": 6912,
            "time": 7.2,
            "velocity": 0.3937007874015748
          },
          {
            "duration": 0.20000000000000018,
            "durationTicks": 192,
            "midi": 57,
            "name": "A3",
            "ticks": 7104,
            "time": 7.4,
            "velocity": 0.3937007874015748
          },
          {
            "duration": 0.20000000000000018,
            "durationTicks": 192,
            "midi": 62,
            "name": "D4",
            "ticks": 7296,
            "time": 7.6000000000000005,
            "velocity": 0.3937007874015748
          },
          {
            "duration": 0.1999999999999993,
            "durationTicks": 192,
            "midi": 64,
            "name": "E4",
            "ticks": 7488,
            "time": 7.800000000000001,
            "velocity": 0.3937007874015748
          },
          {
            "duration": 0.20000000000000107,
            "durationTicks": 192,
            "midi": 65,
            "name": "F4",
            "ticks": 7680,
            "time": 8,
            "velocity": 0.3937007874015748
          },
          {
            "duration": 0.1999999999999993,
            "durationTicks": 192,
            "midi": 57,
            "name": "A3",
            "ticks": 7872,
            "time": 8.200000000000001,
            "velocity": 0.3937007874015748
          },
          {
            "duration": 0.1999999999999993,
            "durationTicks": 192,
            "midi": 62,
            "name": "D4",
            "ticks": 8064,
            "time": 8.4,
            "velocity": 0.3937007874015748
          },
          {
            "duration": 0.20000000000000107,
            "durationTicks": 192,
            "midi": 65,
            "name": "F4",
            "ticks": 8256,
            "time": 8.6,
            "velocity": 0.3937007874015748
          },
          {
            "duration": 0.1999999999999993,
            "durationTicks": 192,
            "midi": 64,
            "name": "E4",
            "ticks": 8448,
            "time": 8.8,
            "velocity": 0.3937007874015748
          },
          {
            "duration": 0.20000000000000107,
            "durationTicks": 192,
            "midi": 57,
            "name": "A3",
            "ticks": 8640,
            "time": 9,
            "velocity": 0.3937007874015748
          },
          {
            "duration": 0.1999999999999993,
            "durationTicks": 192,
            "midi": 61,
            "name": "C#4",
            "ticks": 8832,
            "time": 9.200000000000001,
            "velocity": 0.3937007874015748
          },
          {
            "duration": 0.20000000000000107,
            "durationTicks": 192,
            "midi": 62,
            "name": "D4",
            "ticks": 9024,
            "time": 9.4,
            "velocity": 0.3937007874015748
          },
          {
            "duration": 0.1999999999999993,
            "durationTicks": 192,
            "midi": 62,
            "name": "D4",
            "ticks": 9216,
            "time": 9.600000000000001,
            "velocity": 0.3937007874015748
          },
          {
            "duration": 0.1999999999999993,
            "durationTicks": 192,
            "midi": 57,
            "name": "A3",
            "ticks": 9408,
            "time": 9.8,
            "velocity": 0.3937007874015748
          },
          {
            "duration": 0.20000000000000107,
            "durationTicks": 192,
            "midi": 61,
            "name": "C#4",
            "ticks": 9600,
            "time": 10,
            "velocity": 0.3937007874015748
          },
          {
            "duration": 0.1999999999999993,
            "durationTicks": 192,
            "midi": 62,
            "name": "D4",
            "ticks": 9792,
            "time": 10.200000000000001,
            "velocity": 0.3937007874015748
          },
          {
            "duration": 0.20000000000000107,
            "durationTicks": 192,
            "midi": 64,
            "name": "E4",
            "ticks": 9984,
            "time": 10.4,
            "velocity": 0.3937007874015748
          },
          {
            "duration": 0.1999999999999993,
            "durationTicks": 192,
            "midi": 57,
            "name": "A3",
            "ticks": 10176,
            "time": 10.600000000000001,
            "velocity": 0.3937007874015748
          },
          {
            "duration": 0.1999999999999993,
            "durationTicks": 192,
            "midi": 62,
            "name": "D4",
            "ticks": 10368,
            "time": 10.8,
            "velocity": 0.3937007874015748
          },
          {
            "duration": 0.20000000000000107,
            "durationTicks": 192,
            "midi": 64,
            "name": "E4",
            "ticks": 10560,
            "time": 11,
            "velocity": 0.3937007874015748
          },
          {
            "duration": 0.1999999999999993,
            "durationTicks": 192,
            "midi": 67,
            "name": "G4",
            "ticks": 10752,
            "time": 11.200000000000001,
            "velocity": 0.3937007874015748
          },
          {
            "duration": 0.1999999999999993,
            "durationTicks": 192,
            "midi": 66,
            "name": "F#4",
            "ticks": 11136,
            "time": 11.600000000000001,
            "velocity": 0.3937007874015748
          },
          {
            "duration": 0.20000000000000107,
            "durationTicks": 192,
            "midi": 65,
            "name": "F4",
            "ticks": 11520,
            "time": 12,
            "velocity": 0.3937007874015748
          },
          {
            "duration": 0.20000000000000107,
            "durationTicks": 192,
            "midi": 64,
            "name": "E4",
            "ticks": 11904,
            "time": 12.4,
            "velocity": 0.3937007874015748
          },
          {
            "duration": 0.1999999999999993,
            "durationTicks": 192,
            "midi": 62,
            "name": "D4",
            "ticks": 12288,
            "time": 12.8,
            "velocity": 0.3937007874015748
          },
          {
            "duration": 0.20000000000000107,
            "durationTicks": 192,
            "midi": 57,
            "name": "A3",
            "ticks": 12480,
            "time": 13,
            "velocity": 0.3937007874015748
          },
          {
            "duration": 0.1999999999999993,
            "durationTicks": 192,
            "midi": 61,
            "name": "C#4",
            "ticks": 12672,
            "time": 13.200000000000001,
            "velocity": 0.3937007874015748
          },
          {
            "duration": 0.20000000000000107,
            "durationTicks": 192,
            "midi": 62,
            "name": "D4",
            "ticks": 12864,
            "time": 13.4,
            "velocity": 0.3937007874015748
          },
          {
            "duration": 0.1999999999999993,
            "durationTicks": 192,
            "midi": 62,
            "name": "D4",
            "ticks": 13056,
            "time": 13.600000000000001,
            "velocity": 0.3937007874015748
          },
          {
            "duration": 0.1999999999999993,
            "durationTicks": 192,
            "midi": 57,
            "name": "A3",
            "ticks": 13248,
            "time": 13.8,
            "velocity": 0.3937007874015748
          },
          {
            "duration": 0.20000000000000107,
            "durationTicks": 192,
            "midi": 61,
            "name": "C#4",
            "ticks": 13440,
            "time": 14,
            "velocity": 0.3937007874015748
          },
          {
            "duration": 0.1999999999999993,
            "durationTicks": 192,
            "midi": 62,
            "name": "D4",
            "ticks": 13632,
            "time": 14.200000000000001,
            "velocity": 0.3937007874015748
          },
          {
            "duration": 0.20000000000000107,
            "durationTicks": 192,
            "midi": 62,
            "name": "D4",
            "ticks": 13824,
            "time": 14.4,
            "velocity": 0.3937007874015748
          },
          {
            "duration": 0.1999999999999993,
            "durationTicks": 192,
            "midi": 57,
            "name": "A3",
            "ticks": 14016,
            "time": 14.600000000000001,
            "velocity": 0.3937007874015748
          },
          {
            "duration": 0.1999999999999993,
            "durationTicks": 192,
            "midi": 61,
            "name": "C#4",
            "ticks": 14208,
            "time": 14.8,
            "velocity": 0.3937007874015748
          },
          {
            "duration": 0.20000000000000107,
            "durationTicks": 192,
            "midi": 62,
            "name": "D4",
            "ticks": 14400,
            "time": 15,
            "velocity": 0.3937007874015748
          },
          {
            "duration": 0.1999999999999993,
            "durationTicks": 192,
            "midi": 62,
            "name": "D4",
            "ticks": 14592,
            "time": 15.200000000000001,
            "velocity": 0.3937007874015748
          },
          {
            "duration": 0.20000000000000107,
            "durationTicks": 192,
            "midi": 57,
            "name": "A3",
            "ticks": 14784,
            "time": 15.4,
            "velocity": 0.3937007874015748
          },
          {
            "duration": 0.1999999999999993,
            "durationTicks": 192,
            "midi": 61,
            "name": "C#4",
            "ticks": 14976,
            "time": 15.600000000000001,
            "velocity": 0.3937007874015748
          },
          {
            "duration": 0.1999999999999993,
            "durationTicks": 192,
            "midi": 62,
            "name": "D4",
            "ticks": 15168,
            "time": 15.8,
            "velocity": 0.3937007874015748
          }
        ],
        "endOfTrackTicks": 15360
      },
      {
        "channel": 3,
        "controlChanges": {},
        "pitchBends": [],
        "instrument": {
          "family": "piano",
          "number": 3,
          "name": "honky-tonk piano"
        },
        "name": "Ragtime Piano",
        "notes": [
          {
            "duration": 0.4,
            "durationTicks": 384,
            "midi": 50,
            "name": "D3",
            "ticks": 0,
            "time": 0,
            "velocity": 0.3937007874015748
          },
          {
            "duration": 0.3999999999999999,
            "durationTicks": 384,
            "midi": 50,
            "name": "D3",
            "ticks": 3072,
            "time": 3.2,
            "velocity": 0.3937007874015748
          },
          {
            "duration": 0.39999999999999947,
            "durationTicks": 384,
            "midi": 55,
            "name": "G3",
            "ticks": 4608,
            "time": 4.800000000000001,
            "velocity": 0.3937007874015748
          },
          {
            "duration": 0.40000000000000036,
            "durationTicks": 384,
            "midi": 54,
            "name": "F#3",
            "ticks": 4992,
            "time": 5.2,
            "velocity": 0.3937007874015748
          },
          {
            "duration": 0.39999999999999947,
            "durationTicks": 384,
            "midi": 53,
            "name": "F3",
            "ticks": 5376,
            "time": 5.6000000000000005,
            "velocity": 0.3937007874015748
          },
          {
            "duration": 0.40000000000000036,
            "durationTicks": 384,
            "midi": 52,
            "name": "E3",
            "ticks": 5760,
            "time": 6,
            "velocity": 0.3937007874015748
          },
          {
            "duration": 0.40000000000000036,
            "durationTicks": 384,
            "midi": 50,
            "name": "D3",
            "ticks": 6144,
            "time": 6.4,
            "velocity": 0.3937007874015748
          },
          {
            "duration": 0.3999999999999986,
            "durationTicks": 384,
            "midi": 50,
            "name": "D3",
            "ticks": 9216,
            "time": 9.600000000000001,
            "velocity": 0.3937007874015748
          },
          {
            "duration": 0.40000000000000036,
            "durationTicks": 384,
            "midi": 55,
            "name": "G3",
            "ticks": 10752,
            "time": 11.200000000000001,
            "velocity": 0.3937007874015748
          },
          {
            "duration": 0.3999999999999986,
            "durationTicks": 384,
            "midi": 54,
            "name": "F#3",
            "ticks": 11136,
            "time": 11.600000000000001,
            "velocity": 0.3937007874015748
          },
          {
            "duration": 0.40000000000000036,
            "durationTicks": 384,
            "midi": 53,
            "name": "F3",
            "ticks": 11520,
            "time": 12,
            "velocity": 0.3937007874015748
          },
          {
            "duration": 0.40000000000000036,
            "durationTicks": 384,
            "midi": 52,
            "name": "E3",
            "ticks": 11904,
            "time": 12.4,
            "velocity": 0.3937007874015748
          },
          {
            "duration": 0.40000000000000036,
            "durationTicks": 384,
            "midi": 50,
            "name": "D3",
            "ticks": 12288,
            "time": 12.8,
            "velocity": 0.3937007874015748
          },
          {
            "duration": 0.20000000000000107,
            "durationTicks": 192,
            "midi": 50,
            "name": "D3",
            "ticks": 12864,
            "time": 13.4,
            "velocity": 0.3937007874015748
          },
          {
            "duration": 0.3999999999999986,
            "durationTicks": 384,
            "midi": 50,
            "name": "D3",
            "ticks": 13056,
            "time": 13.600000000000001,
            "velocity": 0.3937007874015748
          },
          {
            "duration": 0.1999999999999993,
            "durationTicks": 192,
            "midi": 50,
            "name": "D3",
            "ticks": 13632,
            "time": 14.200000000000001,
            "velocity": 0.3937007874015748
          },
          {
            "duration": 0.40000000000000036,
            "durationTicks": 384,
            "midi": 50,
            "name": "D3",
            "ticks": 13824,
            "time": 14.4,
            "velocity": 0.3937007874015748
          },
          {
            "duration": 0.20000000000000107,
            "durationTicks": 192,
            "midi": 50,
            "name": "D3",
            "ticks": 14400,
            "time": 15,
            "velocity": 0.3937007874015748
          },
          {
            "duration": 0.40000000000000036,
            "durationTicks": 384,
            "midi": 50,
            "name": "D3",
            "ticks": 14592,
            "time": 15.200000000000001,
            "velocity": 0.3937007874015748
          },
          {
            "duration": 0.1999999999999993,
            "durationTicks": 192,
            "midi": 50,
            "name": "D3",
            "ticks": 15168,
            "time": 15.8,
            "velocity": 0.3937007874015748
          }
        ],
        "endOfTrackTicks": 15360
      },
      {
        "channel": 4,
        "controlChanges": {},
        "pitchBends": [],
        "instrument": {
          "family": "organ",
          "number": 19,
          "name": "church organ"
        },
        "name": "Church Organ",
        "notes": [
          {
            "duration": 0.8000000000000007,
            "durationTicks": 768,
            "midi": 62,
            "name": "D4",
            "ticks": 15360,
            "time": 16,
            "velocity": 0.6456692913385826
          },
          {
            "duration": 0.8000000000000007,
            "durationTicks": 768,
            "midi": 50,
            "name": "D3",
            "ticks": 15360,
            "time": 16,
            "velocity": 0.6456692913385826
          },
          {
            "duration": 0.3999999999999986,
            "durationTicks": 384,
            "midi": 49,
            "name": "C#3",
            "ticks": 16128,
            "time": 16.8,
            "velocity": 0.6456692913385826
          },
          {
            "duration": 0.3999999999999986,
            "durationTicks": 384,
            "midi": 61,
            "name": "C#4",
            "ticks": 16128,
            "time": 16.8,
            "velocity": 0.6456692913385826
          },
          {
            "duration": 0.40000000000000213,
            "durationTicks": 384,
            "midi": 50,
            "name": "D3",
            "ticks": 16512,
            "time": 17.2,
            "velocity": 0.6456692913385826
          },
          {
            "duration": 0.40000000000000213,
            "durationTicks": 384,
            "midi": 62,
            "name": "D4",
            "ticks": 16512,
            "time": 17.2,
            "velocity": 0.6456692913385826
          },
          {
            "duration": 0.8000000000000007,
            "durationTicks": 768,
            "midi": 52,
            "name": "E3",
            "ticks": 16896,
            "time": 17.6,
            "velocity": 0.6456692913385826
          },
          {
            "duration": 0.8000000000000007,
            "durationTicks": 768,
            "midi": 64,
            "name": "E4",
            "ticks": 16896,
            "time": 17.6,
            "velocity": 0.6456692913385826
          },
          {
            "duration": 0.3999999999999986,
            "durationTicks": 384,
            "midi": 62,
            "name": "D4",
            "ticks": 17664,
            "time": 18.400000000000002,
            "velocity": 0.6456692913385826
          },
          {
            "duration": 0.3999999999999986,
            "durationTicks": 384,
            "midi": 50,
            "name": "D3",
            "ticks": 17664,
            "time": 18.400000000000002,
            "velocity": 0.6456692913385826
          },
          {
            "duration": 0.40000000000000213,
            "durationTicks": 384,
            "midi": 64,
            "name": "E4",
            "ticks": 18048,
            "time": 18.8,
            "velocity": 0.6456692913385826
          },
          {
            "duration": 0.40000000000000213,
            "durationTicks": 384,
            "midi": 52,
            "name": "E3",
            "ticks": 18048,
            "time": 18.8,
            "velocity": 0.6456692913385826
          },
          {
            "duration": 1.5999999999999979,
            "durationTicks": 1536,
            "midi": 56,
            "name": "G#3",
            "ticks": 18432,
            "time": 19.200000000000003,
            "velocity": 0.6456692913385826
          },
          {
            "duration": 1.5999999999999979,
            "durationTicks": 1536,
            "midi": 65,
            "name": "F4",
            "ticks": 18432,
            "time": 19.200000000000003,
            "velocity": 0.6456692913385826
          },
          {
            "duration": 1.5999999999999979,
            "durationTicks": 1536,
            "midi": 59,
            "name": "B3",
            "ticks": 18432,
            "time": 19.200000000000003,
            "velocity": 0.6456692913385826
          },
          {
            "duration": 1.5999999999999979,
            "durationTicks": 1536,
            "midi": 62,
            "name": "D4",
            "ticks": 18432,
            "time": 19.200000000000003,
            "velocity": 0.6456692913385826
          },
          {
            "duration": 1.6000000000000014,
            "durationTicks": 1536,
            "midi": 64,
            "name": "E4",
            "ticks": 19968,
            "time": 20.8,
            "velocity": 0.6456692913385826
          },
          {
            "duration": 1.6000000000000014,
            "durationTicks": 1536,
            "midi": 61,
            "name": "C#4",
            "ticks": 19968,
            "time": 20.8,
            "velocity": 0.6456692913385826
          },
          {
            "duration": 1.6000000000000014,
            "durationTicks": 1536,
            "midi": 57,
            "name": "A3",
            "ticks": 19968,
            "time": 20.8,
            "velocity": 0.6456692913385826
          },
          {
            "duration": 0.8000000000000007,
            "durationTicks": 768,
            "midi": 62,
            "name": "D4",
            "ticks": 21504,
            "time": 22.400000000000002,
            "velocity": 0.6456692913385826
          },
          {
            "duration": 0.8000000000000007,
            "durationTicks": 768,
            "midi": 50,
            "name": "D3",
            "ticks": 21504,
            "time": 22.400000000000002,
            "velocity": 0.6456692913385826
          },
          {
            "duration": 0.3999999999999986,
            "durationTicks": 384,
            "midi": 49,
            "name": "C#3",
            "ticks": 22272,
            "time": 23.200000000000003,
            "velocity": 0.6456692913385826
          },
          {
            "duration": 0.3999999999999986,
            "durationTicks": 384,
            "midi": 61,
            "name": "C#4",
            "ticks": 22272,
            "time": 23.200000000000003,
            "velocity": 0.6456692913385826
          },
          {
            "duration": 0.3999999999999986,
            "durationTicks": 384,
            "midi": 50,
            "name": "D3",
            "ticks": 22656,
            "time": 23.6,
            "velocity": 0.6456692913385826
          },
          {
            "duration": 0.3999999999999986,
            "durationTicks": 384,
            "midi": 62,
            "name": "D4",
            "ticks": 22656,
            "time": 23.6,
            "velocity": 0.6456692913385826
          },
          {
            "duration": 0.8000000000000007,
            "durationTicks": 768,
            "midi": 52,
            "name": "E3",
            "ticks": 23040,
            "time": 24,
            "velocity": 0.6456692913385826
          },
          {
            "duration": 0.8000000000000007,
            "durationTicks": 768,
            "midi": 64,
            "name": "E4",
            "ticks": 23040,
            "time": 24,
            "velocity": 0.6456692913385826
          },
          {
            "duration": 0.40000000000000213,
            "durationTicks": 384,
            "midi": 62,
            "name": "D4",
            "ticks": 23808,
            "time": 24.8,
            "velocity": 0.6456692913385826
          },
          {
            "duration": 0.40000000000000213,
            "durationTicks": 384,
            "midi": 50,
            "name": "D3",
            "ticks": 23808,
            "time": 24.8,
            "velocity": 0.6456692913385826
          },
          {
            "duration": 0.3999999999999986,
            "durationTicks": 384,
            "midi": 52,
            "name": "E3",
            "ticks": 24192,
            "time": 25.200000000000003,
            "velocity": 0.6456692913385826
          },
          {
            "duration": 0.3999999999999986,
            "durationTicks": 384,
            "midi": 64,
            "name": "E4",
            "ticks": 24192,
            "time": 25.200000000000003,
            "velocity": 0.6456692913385826
          },
          {
            "duration": 0.8000000000000007,
            "durationTicks": 768,
            "midi": 61,
            "name": "C#4",
            "ticks": 24576,
            "time": 25.6,
            "velocity": 0.6456692913385826
          },
          {
            "duration": 0.8000000000000007,
            "durationTicks": 768,
            "midi": 58,
            "name": "A#3",
            "ticks": 24576,
            "time": 25.6,
            "velocity": 0.6456692913385826
          },
          {
            "duration": 0.8000000000000007,
            "durationTicks": 768,
            "midi": 64,
            "name": "E4",
            "ticks": 24576,
            "time": 25.6,
            "velocity": 0.6456692913385826
          },
          {
            "duration": 0.8000000000000007,
            "durationTicks": 768,
            "midi": 67,
            "name": "G4",
            "ticks": 24576,
            "time": 25.6,
            "velocity": 0.6456692913385826
          },
          {
            "duration": 0.8000000000000007,
            "durationTicks": 768,
            "midi": 66,
            "name": "F#4",
            "ticks": 25344,
            "time": 26.400000000000002,
            "velocity": 0.6456692913385826
          },
          {
            "duration": 0.8000000000000007,
            "durationTicks": 768,
            "midi": 57,
            "name": "A3",
            "ticks": 25344,
            "time": 26.400000000000002,
            "velocity": 0.6456692913385826
          },
          {
            "duration": 0.8000000000000007,
            "durationTicks": 768,
            "midi": 63,
            "name": "D#4",
            "ticks": 25344,
            "time": 26.400000000000002,
            "velocity": 0.6456692913385826
          },
          {
            "duration": 0.8000000000000007,
            "durationTicks": 768,
            "midi": 60,
            "name": "C4",
            "ticks": 25344,
            "time": 26.400000000000002,
            "velocity": 0.6456692913385826
          },
          {
            "duration": 1.5999999999999979,
            "durationTicks": 1536,
            "midi": 56,
            "name": "G#3",
            "ticks": 26112,
            "time": 27.200000000000003,
            "velocity": 0.6456692913385826
          },
          {
            "duration": 1.5999999999999979,
            "durationTicks": 1536,
            "midi": 62,
            "name": "D4",
            "ticks": 26112,
            "time": 27.200000000000003,
            "velocity": 0.6456692913385826
          },
          {
            "duration": 1.5999999999999979,
            "durationTicks": 1536,
            "midi": 65,
            "name": "F4",
            "ticks": 26112,
            "time": 27.200000000000003,
            "velocity": 0.6456692913385826
          },
          {
            "duration": 1.5999999999999979,
            "durationTicks": 1536,
            "midi": 59,
            "name": "B3",
            "ticks": 26112,
            "time": 27.200000000000003,
            "velocity": 0.6456692913385826
          },
          {
            "duration": 0.8000000000000007,
            "durationTicks": 768,
            "midi": 69,
            "name": "A4",
            "ticks": 27648,
            "time": 28.8,
            "velocity": 0.6456692913385826
          },
          {
            "duration": 0.8000000000000007,
            "durationTicks": 768,
            "midi": 57,
            "name": "A3",
            "ticks": 27648,
            "time": 28.8,
            "velocity": 0.6456692913385826
          },
          {
            "duration": 0.8000000000000007,
            "durationTicks": 768,
            "midi": 60,
            "name": "C4",
            "ticks": 27648,
            "time": 28.8,
            "velocity": 0.6456692913385826
          },
          {
            "duration": 0.8000000000000007,
            "durationTicks": 768,
            "midi": 64,
            "name": "E4",
            "ticks": 27648,
            "time": 28.8,
            "velocity": 0.6456692913385826
          },
          {
            "duration": 0.3999999999999986,
            "durationTicks": 384,
            "midi": 56,
            "name": "G#3",
            "ticks": 28416,
            "time": 29.6,
            "velocity": 0.6456692913385826
          },
          {
            "duration": 0.3999999999999986,
            "durationTicks": 384,
            "midi": 64,
            "name": "E4",
            "ticks": 28416,
            "time": 29.6,
            "velocity": 0.6456692913385826
          },
          {
            "duration": 0.3999999999999986,
            "durationTicks": 384,
            "midi": 60,
            "name": "C4",
            "ticks": 28416,
            "time": 29.6,
            "velocity": 0.6456692913385826
          },
          {
            "duration": 0.3999999999999986,
            "durationTicks": 384,
            "midi": 68,
            "name": "G#4",
            "ticks": 28416,
            "time": 29.6,
            "velocity": 0.6456692913385826
          },
          {
            "duration": 0.40000000000000213,
            "durationTicks": 384,
            "midi": 64,
            "name": "E4",
            "ticks": 28800,
            "time": 30,
            "velocity": 0.6456692913385826
          },
          {
            "duration": 0.40000000000000213,
            "durationTicks": 384,
            "midi": 57,
            "name": "A3",
            "ticks": 28800,
            "time": 30,
            "velocity": 0.6456692913385826
          },
          {
            "duration": 0.40000000000000213,
            "durationTicks": 384,
            "midi": 69,
            "name": "A4",
            "ticks": 28800,
            "time": 30,
            "velocity": 0.6456692913385826
          },
          {
            "duration": 0.40000000000000213,
            "durationTicks": 384,
            "midi": 60,
            "name": "C4",
            "ticks": 28800,
            "time": 30,
            "velocity": 0.6456692913385826
          },
          {
            "duration": 0.8000000000000007,
            "durationTicks": 768,
            "midi": 59,
            "name": "B3",
            "ticks": 29184,
            "time": 30.400000000000002,
            "velocity": 0.6456692913385826
          },
          {
            "duration": 0.8000000000000007,
            "durationTicks": 768,
            "midi": 71,
            "name": "B4",
            "ticks": 29184,
            "time": 30.400000000000002,
            "velocity": 0.6456692913385826
          },
          {
            "duration": 0.8000000000000007,
            "durationTicks": 768,
            "midi": 68,
            "name": "G#4",
            "ticks": 29184,
            "time": 30.400000000000002,
            "velocity": 0.6456692913385826
          },
          {
            "duration": 0.8000000000000007,
            "durationTicks": 768,
            "midi": 64,
            "name": "E4",
            "ticks": 29184,
            "time": 30.400000000000002,
            "velocity": 0.6456692913385826
          },
          {
            "duration": 0.3999999999999986,
            "durationTicks": 384,
            "midi": 69,
            "name": "A4",
            "ticks": 29952,
            "time": 31.200000000000003,
            "velocity": 0.6456692913385826
          },
          {
            "duration": 0.3999999999999986,
            "durationTicks": 384,
            "midi": 60,
            "name": "C4",
            "ticks": 29952,
            "time": 31.200000000000003,
            "velocity": 0.6456692913385826
          },
          {
            "duration": 0.3999999999999986,
            "durationTicks": 384,
            "midi": 64,
            "name": "E4",
            "ticks": 29952,
            "time": 31.200000000000003,
            "velocity": 0.6456692913385826
          },
          {
            "duration": 0.3999999999999986,
            "durationTicks": 384,
            "midi": 59,
            "name": "B3",
            "ticks": 30336,
            "time": 31.6,
            "velocity": 0.6456692913385826
          },
          {
            "duration": 0.3999999999999986,
            "durationTicks": 384,
            "midi": 71,
            "name": "B4",
            "ticks": 30336,
            "time": 31.6,
            "velocity": 0.6456692913385826
          },
          {
            "duration": 0.3999999999999986,
            "durationTicks": 384,
            "midi": 64,
            "name": "E4",
            "ticks": 30336,
            "time": 31.6,
            "velocity": 0.6456692913385826
          },
          {
            "duration": 0.3999999999999986,
            "durationTicks": 384,
            "midi": 68,
            "name": "G#4",
            "ticks": 30336,
            "time": 31.6,
            "velocity": 0.6456692913385826
          },
          {
            "duration": 1.6000000000000014,
            "durationTicks": 1536,
            "midi": 72,
            "name": "C5",
            "ticks": 30720,
            "time": 32,
            "velocity": 0.6456692913385826
          },
          {
            "duration": 1.6000000000000014,
            "durationTicks": 1536,
            "midi": 60,
            "name": "C4",
            "ticks": 30720,
            "time": 32,
            "velocity": 0.6456692913385826
          },
          {
            "duration": 1.6000000000000014,
            "durationTicks": 1536,
            "midi": 63,
            "name": "D#4",
            "ticks": 30720,
            "time": 32,
            "velocity": 0.6456692913385826
          },
          {
            "duration": 1.6000000000000014,
            "durationTicks": 1536,
            "midi": 69,
            "name": "A4",
            "ticks": 30720,
            "time": 32,
            "velocity": 0.6456692913385826
          },
          {
            "duration": 1.6000000000000014,
            "durationTicks": 1536,
            "midi": 71,
            "name": "B4",
            "ticks": 32256,
            "time": 33.6,
            "velocity": 0.6456692913385826
          },
          {
            "duration": 1.6000000000000014,
            "durationTicks": 1536,
            "midi": 64,
            "name": "E4",
            "ticks": 32256,
            "time": 33.6,
            "velocity": 0.6456692913385826
          },
          {
            "duration": 1.6000000000000014,
            "durationTicks": 1536,
            "midi": 59,
            "name": "B3",
            "ticks": 32256,
            "time": 33.6,
            "velocity": 0.6456692913385826
          },
          {
            "duration": 1.6000000000000014,
            "durationTicks": 1536,
            "midi": 68,
            "name": "G#4",
            "ticks": 32256,
            "time": 33.6,
            "velocity": 0.6456692913385826
          },
          {
            "duration": 0.7999999999999972,
            "durationTicks": 768,
            "midi": 60,
            "name": "C4",
            "ticks": 33792,
            "time": 35.2,
            "velocity": 0.6456692913385826
          },
          {
            "duration": 0.7999999999999972,
            "durationTicks": 768,
            "midi": 69,
            "name": "A4",
            "ticks": 33792,
            "time": 35.2,
            "velocity": 0.6456692913385826
          },
          {
            "duration": 0.7999999999999972,
            "durationTicks": 768,
            "midi": 64,
            "name": "E4",
            "ticks": 33792,
            "time": 35.2,
            "velocity": 0.6456692913385826
          },
          {
            "duration": 0.7999999999999972,
            "durationTicks": 768,
            "midi": 57,
            "name": "A3",
            "ticks": 33792,
            "time": 35.2,
            "velocity": 0.6456692913385826
          },
          {
            "duration": 0.3999999999999986,
            "durationTicks": 384,
            "midi": 68,
            "name": "G#4",
            "ticks": 34560,
            "time": 36,
            "velocity": 0.6456692913385826
          },
          {
            "duration": 0.3999999999999986,
            "durationTicks": 384,
            "midi": 56,
            "name": "G#3",
            "ticks": 34560,
            "time": 36,
            "velocity": 0.6456692913385826
          },
          {
            "duration": 0.3999999999999986,
            "durationTicks": 384,
            "midi": 60,
            "name": "C4",
            "ticks": 34560,
            "time": 36,
            "velocity": 0.6456692913385826
          },
          {
            "duration": 0.3999999999999986,
            "durationTicks": 384,
            "midi": 64,
            "name": "E4",
            "ticks": 34560,
            "time": 36,
            "velocity": 0.6456692913385826
          },
          {
            "duration": 0.4000000000000057,
            "durationTicks": 384,
            "midi": 69,
            "name": "A4",
            "ticks": 34944,
            "time": 36.4,
            "velocity": 0.6456692913385826
          },
          {
            "duration": 0.4000000000000057,
            "durationTicks": 384,
            "midi": 64,
            "name": "E4",
            "ticks": 34944,
            "time": 36.4,
            "velocity": 0.6456692913385826
          },
          {
            "duration": 0.4000000000000057,
            "durationTicks": 384,
            "midi": 60,
            "name": "C4",
            "ticks": 34944,
            "time": 36.4,
            "velocity": 0.6456692913385826
          },
          {
            "duration": 0.4000000000000057,
            "durationTicks": 384,
            "midi": 57,
            "name": "A3",
            "ticks": 34944,
            "time": 36.4,
            "velocity": 0.6456692913385826
          },
          {
            "duration": 0.7999999999999972,
            "durationTicks": 768,
            "midi": 68,
            "name": "G#4",
            "ticks": 35328,
            "time": 36.800000000000004,
            "velocity": 0.6456692913385826
          },
          {
            "duration": 0.7999999999999972,
            "durationTicks": 768,
            "midi": 59,
            "name": "B3",
            "ticks": 35328,
            "time": 36.800000000000004,
            "velocity": 0.6456692913385826
          },
          {
            "duration": 0.7999999999999972,
            "durationTicks": 768,
            "midi": 71,
            "name": "B4",
            "ticks": 35328,
            "time": 36.800000000000004,
            "velocity": 0.6456692913385826
          },
          {
            "duration": 0.7999999999999972,
            "durationTicks": 768,
            "midi": 64,
            "name": "E4",
            "ticks": 35328,
            "time": 36.800000000000004,
            "velocity": 0.6456692913385826
          },
          {
            "duration": 0.3999999999999986,
            "durationTicks": 384,
            "midi": 69,
            "name": "A4",
            "ticks": 36096,
            "time": 37.6,
            "velocity": 0.6456692913385826
          },
          {
            "duration": 0.3999999999999986,
            "durationTicks": 384,
            "midi": 60,
            "name": "C4",
            "ticks": 36096,
            "time": 37.6,
            "velocity": 0.6456692913385826
          },
          {
            "duration": 0.3999999999999986,
            "durationTicks": 384,
            "midi": 64,
            "name": "E4",
            "ticks": 36096,
            "time": 37.6,
            "velocity": 0.6456692913385826
          },
          {
            "duration": 0.4000000000000057,
            "durationTicks": 384,
            "midi": 68,
            "name": "G#4",
            "ticks": 36480,
            "time": 38,
            "velocity": 0.6456692913385826
          },
          {
            "duration": 0.4000000000000057,
            "durationTicks": 384,
            "midi": 59,
            "name": "B3",
            "ticks": 36480,
            "time": 38,
            "velocity": 0.6456692913385826
          },
          {
            "duration": 0.4000000000000057,
            "durationTicks": 384,
            "midi": 64,
            "name": "E4",
            "ticks": 36480,
            "time": 38,
            "velocity": 0.6456692913385826
          },
          {
            "duration": 0.4000000000000057,
            "durationTicks": 384,
            "midi": 71,
            "name": "B4",
            "ticks": 36480,
            "time": 38,
            "velocity": 0.6456692913385826
          },
          {
            "duration": 0.7999999999999972,
            "durationTicks": 768,
            "midi": 74,
            "name": "D5",
            "ticks": 36864,
            "time": 38.400000000000006,
            "velocity": 0.6456692913385826
          },
          {
            "duration": 0.7999999999999972,
            "durationTicks": 768,
            "midi": 65,
            "name": "F4",
            "ticks": 36864,
            "time": 38.400000000000006,
            "velocity": 0.6456692913385826
          },
          {
            "duration": 0.7999999999999972,
            "durationTicks": 768,
            "midi": 71,
            "name": "B4",
            "ticks": 36864,
            "time": 38.400000000000006,
            "velocity": 0.6456692913385826
          },
          {
            "duration": 0.7999999999999972,
            "durationTicks": 768,
            "midi": 68,
            "name": "G#4",
            "ticks": 36864,
            "time": 38.400000000000006,
            "velocity": 0.6456692913385826
          },
          {
            "duration": 0.7999999999999972,
            "durationTicks": 768,
            "midi": 64,
            "name": "E4",
            "ticks": 37632,
            "time": 39.2,
            "velocity": 0.6456692913385826
          },
          {
            "duration": 0.7999999999999972,
            "durationTicks": 768,
            "midi": 70,
            "name": "A#4",
            "ticks": 37632,
            "time": 39.2,
            "velocity": 0.6456692913385826
          },
          {
            "duration": 0.7999999999999972,
            "durationTicks": 768,
            "midi": 67,
            "name": "G4",
            "ticks": 37632,
            "time": 39.2,
            "velocity": 0.6456692913385826
          },
          {
            "duration": 0.7999999999999972,
            "durationTicks": 768,
            "midi": 73,
            "name": "C#5",
            "ticks": 37632,
            "time": 39.2,
            "velocity": 0.6456692913385826
          },
          {
            "duration": 1.6000000000000014,
            "durationTicks": 1536,
            "midi": 72,
            "name": "C5",
            "ticks": 38400,
            "time": 40,
            "velocity": 0.6456692913385826
          },
          {
            "duration": 1.6000000000000014,
            "durationTicks": 1536,
            "midi": 69,
            "name": "A4",
            "ticks": 38400,
            "time": 40,
            "velocity": 0.6456692913385826
          },
          {
            "duration": 1.6000000000000014,
            "durationTicks": 1536,
            "midi": 63,
            "name": "D#4",
            "ticks": 38400,
            "time": 40,
            "velocity": 0.6456692913385826
          },
          {
            "duration": 1.6000000000000014,
            "durationTicks": 1536,
            "midi": 66,
            "name": "F#4",
            "ticks": 38400,
            "time": 40,
            "velocity": 0.6456692913385826
          },
          {
            "duration": 0.8000000000000043,
            "durationTicks": 768,
            "midi": 61,
            "name": "C#4",
            "ticks": 39936,
            "time": 41.6,
            "velocity": 0.6456692913385826
          },
          {
            "duration": 0.8000000000000043,
            "durationTicks": 768,
            "midi": 55,
            "name": "G3",
            "ticks": 39936,
            "time": 41.6,
            "velocity": 0.6456692913385826
          },
          {
            "duration": 0.8000000000000043,
            "durationTicks": 768,
            "midi": 64,
            "name": "E4",
            "ticks": 39936,
            "time": 41.6,
            "velocity": 0.6456692913385826
          },
          {
            "duration": 0.8000000000000043,
            "durationTicks": 768,
            "midi": 58,
            "name": "A#3",
            "ticks": 39936,
            "time": 41.6,
            "velocity": 0.6456692913385826
          },
          {
            "duration": 0.7999999999999972,
            "durationTicks": 768,
            "midi": 63,
            "name": "D#4",
            "ticks": 40704,
            "time": 42.400000000000006,
            "velocity": 0.6456692913385826
          },
          {
            "duration": 0.7999999999999972,
            "durationTicks": 768,
            "midi": 54,
            "name": "F#3",
            "ticks": 40704,
            "time": 42.400000000000006,
            "velocity": 0.6456692913385826
          },
          {
            "duration": 0.7999999999999972,
            "durationTicks": 768,
            "midi": 57,
            "name": "A3",
            "ticks": 40704,
            "time": 42.400000000000006,
            "velocity": 0.6456692913385826
          },
          {
            "duration": 0.7999999999999972,
            "durationTicks": 768,
            "midi": 60,
            "name": "C4",
            "ticks": 40704,
            "time": 42.400000000000006,
            "velocity": 0.6456692913385826
          },
          {
            "duration": 1.6000000000000014,
            "durationTicks": 1536,
            "midi": 62,
            "name": "D4",
            "ticks": 41472,
            "time": 43.2,
            "velocity": 0.6456692913385826
          },
          {
            "duration": 1.6000000000000014,
            "durationTicks": 1536,
            "midi": 59,
            "name": "B3",
            "ticks": 41472,
            "time": 43.2,
            "velocity": 0.6456692913385826
          },
          {
            "duration": 1.6000000000000014,
            "durationTicks": 1536,
            "midi": 53,
            "name": "F3",
            "ticks": 41472,
            "time": 43.2,
            "velocity": 0.6456692913385826
          },
          {
            "duration": 1.6000000000000014,
            "durationTicks": 1536,
            "midi": 56,
            "name": "G#3",
            "ticks": 41472,
            "time": 43.2,
            "velocity": 0.6456692913385826
          },
          {
            "duration": 0.7999999999999972,
            "durationTicks": 768,
            "midi": 66,
            "name": "F#4",
            "ticks": 43008,
            "time": 44.800000000000004,
            "velocity": 0.6456692913385826
          },
          {
            "duration": 0.7999999999999972,
            "durationTicks": 768,
            "midi": 63,
            "name": "D#4",
            "ticks": 43008,
            "time": 44.800000000000004,
            "velocity": 0.6456692913385826
          },
          {
            "duration": 0.7999999999999972,
            "durationTicks": 768,
            "midi": 60,
            "name": "C4",
            "ticks": 43008,
            "time": 44.800000000000004,
            "velocity": 0.6456692913385826
          },
          {
            "duration": 0.7999999999999972,
            "durationTicks": 768,
            "midi": 57,
            "name": "A3",
            "ticks": 43008,
            "time": 44.800000000000004,
            "velocity": 0.6456692913385826
          },
          {
            "duration": 0.3999999999999986,
            "durationTicks": 384,
            "midi": 65,
            "name": "F4",
            "ticks": 43776,
            "time": 45.6,
            "velocity": 0.6456692913385826
          },
          {
            "duration": 0.3999999999999986,
            "durationTicks": 384,
            "midi": 62,
            "name": "D4",
            "ticks": 43776,
            "time": 45.6,
            "velocity": 0.6456692913385826
          },
          {
            "duration": 0.3999999999999986,
            "durationTicks": 384,
            "midi": 56,
            "name": "G#3",
            "ticks": 43776,
            "time": 45.6,
            "velocity": 0.6456692913385826
          },
          {
            "duration": 0.3999999999999986,
            "durationTicks": 384,
            "midi": 59,
            "name": "B3",
            "ticks": 43776,
            "time": 45.6,
            "velocity": 0.6456692913385826
          },
          {
            "duration": 0.4000000000000057,
            "durationTicks": 384,
            "midi": 58,
            "name": "A#3",
            "ticks": 44160,
            "time": 46,
            "velocity": 0.6456692913385826
          },
          {
            "duration": 0.4000000000000057,
            "durationTicks": 384,
            "midi": 55,
            "name": "G3",
            "ticks": 44160,
            "time": 46,
            "velocity": 0.6456692913385826
          },
          {
            "duration": 0.4000000000000057,
            "durationTicks": 384,
            "midi": 64,
            "name": "E4",
            "ticks": 44160,
            "time": 46,
            "velocity": 0.6456692913385826
          },
          {
            "duration": 0.4000000000000057,
            "durationTicks": 384,
            "midi": 61,
            "name": "C#4",
            "ticks": 44160,
            "time": 46,
            "velocity": 0.6456692913385826
          },
          {
            "duration": 0.7999999999999972,
            "durationTicks": 768,
            "midi": 59,
            "name": "B3",
            "ticks": 44544,
            "time": 46.400000000000006,
            "velocity": 0.6456692913385826
          },
          {
            "duration": 0.7999999999999972,
            "durationTicks": 768,
            "midi": 65,
            "name": "F4",
            "ticks": 44544,
            "time": 46.400000000000006,
            "velocity": 0.6456692913385826
          },
          {
            "duration": 0.7999999999999972,
            "durationTicks": 768,
            "midi": 62,
            "name": "D4",
            "ticks": 44544,
            "time": 46.400000000000006,
            "velocity": 0.6456692913385826
          },
          {
            "duration": 0.7999999999999972,
            "durationTicks": 768,
            "midi": 68,
            "name": "G#4",
            "ticks": 44544,
            "time": 46.400000000000006,
            "velocity": 0.6456692913385826
          },
          {
            "duration": 0.3999999999999986,
            "durationTicks": 384,
            "midi": 61,
            "name": "C#4",
            "ticks": 45312,
            "time": 47.2,
            "velocity": 0.6456692913385826
          },
          {
            "duration": 0.3999999999999986,
            "durationTicks": 384,
            "midi": 67,
            "name": "G4",
            "ticks": 45312,
            "time": 47.2,
            "velocity": 0.6456692913385826
          },
          {
            "duration": 0.3999999999999986,
            "durationTicks": 384,
            "midi": 64,
            "name": "E4",
            "ticks": 45312,
            "time": 47.2,
            "velocity": 0.6456692913385826
          },
          {
            "duration": 0.3999999999999986,
            "durationTicks": 384,
            "midi": 58,
            "name": "A#3",
            "ticks": 45312,
            "time": 47.2,
            "velocity": 0.6456692913385826
          },
          {
            "duration": 0.3999999999999986,
            "durationTicks": 384,
            "midi": 66,
            "name": "F#4",
            "ticks": 45696,
            "time": 47.6,
            "velocity": 0.6456692913385826
          },
          {
            "duration": 0.3999999999999986,
            "durationTicks": 384,
            "midi": 63,
            "name": "D#4",
            "ticks": 45696,
            "time": 47.6,
            "velocity": 0.6456692913385826
          },
          {
            "duration": 0.3999999999999986,
            "durationTicks": 384,
            "midi": 60,
            "name": "C4",
            "ticks": 45696,
            "time": 47.6,
            "velocity": 0.6456692913385826
          },
          {
            "duration": 0.3999999999999986,
            "durationTicks": 384,
            "midi": 57,
            "name": "A3",
            "ticks": 45696,
            "time": 47.6,
            "velocity": 0.6456692913385826
          },
          {
            "duration": 1.6000000000000014,
            "durationTicks": 1536,
            "midi": 58,
            "name": "A#3",
            "ticks": 46080,
            "time": 48,
            "velocity": 0.6456692913385826
          },
          {
            "duration": 1.6000000000000014,
            "durationTicks": 1536,
            "midi": 70,
            "name": "A#4",
            "ticks": 46080,
            "time": 48,
            "velocity": 0.6456692913385826
          },
          {
            "duration": 1.6000000000000014,
            "durationTicks": 1536,
            "midi": 61,
            "name": "C#4",
            "ticks": 46080,
            "time": 48,
            "velocity": 0.6456692913385826
          },
          {
            "duration": 1.6000000000000014,
            "durationTicks": 1536,
            "midi": 65,
            "name": "F4",
            "ticks": 46080,
            "time": 48,
            "velocity": 0.6456692913385826
          },
          {
            "duration": 0.8000000000000043,
            "durationTicks": 768,
            "midi": 65,
            "name": "F4",
            "ticks": 47616,
            "time": 49.6,
            "velocity": 0.6456692913385826
          },
          {
            "duration": 0.8000000000000043,
            "durationTicks": 768,
            "midi": 58,
            "name": "A#3",
            "ticks": 47616,
            "time": 49.6,
            "velocity": 0.6456692913385826
          },
          {
            "duration": 0.8000000000000043,
            "durationTicks": 768,
            "midi": 61,
            "name": "C#4",
            "ticks": 47616,
            "time": 49.6,
            "velocity": 0.6456692913385826
          },
          {
            "duration": 0.7999999999999972,
            "durationTicks": 768,
            "midi": 53,
            "name": "F3",
            "ticks": 48384,
            "time": 50.400000000000006,
            "velocity": 0.6456692913385826
          },
          {
            "duration": 0.7999999999999972,
            "durationTicks": 768,
            "midi": 58,
            "name": "A#3",
            "ticks": 48384,
            "time": 50.400000000000006,
            "velocity": 0.6456692913385826
          },
          {
            "duration": 0.7999999999999972,
            "durationTicks": 768,
            "midi": 61,
            "name": "C#4",
            "ticks": 48384,
            "time": 50.400000000000006,
            "velocity": 0.6456692913385826
          },
          {
            "duration": 1.6000000000000014,
            "durationTicks": 1536,
            "midi": 61,
            "name": "C#4",
            "ticks": 49152,
            "time": 51.2,
            "velocity": 0.6456692913385826
          },
          {
            "duration": 1.6000000000000014,
            "durationTicks": 1536,
            "midi": 66,
            "name": "F#4",
            "ticks": 49152,
            "time": 51.2,
            "velocity": 0.6456692913385826
          },
          {
            "duration": 1.6000000000000014,
            "durationTicks": 1536,
            "midi": 58,
            "name": "A#3",
            "ticks": 49152,
            "time": 51.2,
            "velocity": 0.6456692913385826
          },
          {
            "duration": 1.6000000000000014,
            "durationTicks": 1536,
            "midi": 54,
            "name": "F#3",
            "ticks": 49152,
            "time": 51.2,
            "velocity": 0.6456692913385826
          },
          {
            "duration": 0.2666666666666586,
            "durationTicks": 256,
            "midi": 67,
            "name": "G4",
            "ticks": 50688,
            "time": 52.800000000000004,
            "velocity": 0.6456692913385826
          },
          {
            "duration": 0.2666666666666586,
            "durationTicks": 256,
            "midi": 55,
            "name": "G3",
            "ticks": 50688,
            "time": 52.800000000000004,
            "velocity": 0.6456692913385826
          },
          {
            "duration": 0.2666666666666586,
            "durationTicks": 256,
            "midi": 79,
            "name": "G5",
            "ticks": 50688,
            "time": 52.800000000000004,
            "velocity": 0.6456692913385826
          },
          {
            "duration": 0.26666666666667993,
            "durationTicks": 256,
            "midi": 78,
            "name": "F#5",
            "ticks": 50944,
            "time": 53.06666666666666,
            "velocity": 0.6456692913385826
          },
          {
            "duration": 0.26666666666667993,
            "durationTicks": 256,
            "midi": 54,
            "name": "F#3",
            "ticks": 50944,
            "time": 53.06666666666666,
            "velocity": 0.6456692913385826
          },
          {
            "duration": 0.26666666666667993,
            "durationTicks": 256,
            "midi": 66,
            "name": "F#4",
            "ticks": 50944,
            "time": 53.06666666666666,
            "velocity": 0.6456692913385826
          },
          {
            "duration": 0.2666666666666586,
            "durationTicks": 256,
            "midi": 77,
            "name": "F5",
            "ticks": 51200,
            "time": 53.33333333333334,
            "velocity": 0.6456692913385826
          },
          {
            "duration": 0.2666666666666586,
            "durationTicks": 256,
            "midi": 65,
            "name": "F4",
            "ticks": 51200,
            "time": 53.33333333333334,
            "velocity": 0.6456692913385826
          },
          {
            "duration": 0.2666666666666586,
            "durationTicks": 256,
            "midi": 53,
            "name": "F3",
            "ticks": 51200,
            "time": 53.33333333333334,
            "velocity": 0.6456692913385826
          },
          {
            "duration": 0.2666666666666657,
            "durationTicks": 256,
            "midi": 64,
            "name": "E4",
            "ticks": 51456,
            "time": 53.6,
            "velocity": 0.6456692913385826
          },
          {
            "duration": 0.2666666666666657,
            "durationTicks": 256,
            "midi": 76,
            "name": "E5",
            "ticks": 51456,
            "time": 53.6,
            "velocity": 0.6456692913385826
          },
          {
            "duration": 0.2666666666666657,
            "durationTicks": 256,
            "midi": 52,
            "name": "E3",
            "ticks": 51456,
            "time": 53.6,
            "velocity": 0.6456692913385826
          },
          {
            "duration": 0.2666666666666728,
            "durationTicks": 256,
            "midi": 75,
            "name": "D#5",
            "ticks": 51712,
            "time": 53.86666666666667,
            "velocity": 0.6456692913385826
          },
          {
            "duration": 0.2666666666666728,
            "durationTicks": 256,
            "midi": 51,
            "name": "D#3",
            "ticks": 51712,
            "time": 53.86666666666667,
            "velocity": 0.6456692913385826
          },
          {
            "duration": 0.2666666666666728,
            "durationTicks": 256,
            "midi": 63,
            "name": "D#4",
            "ticks": 51712,
            "time": 53.86666666666667,
            "velocity": 0.6456692913385826
          },
          {
            "duration": 0.2666666666666657,
            "durationTicks": 256,
            "midi": 50,
            "name": "D3",
            "ticks": 51968,
            "time": 54.13333333333334,
            "velocity": 0.6456692913385826
          },
          {
            "duration": 0.2666666666666657,
            "durationTicks": 256,
            "midi": 62,
            "name": "D4",
            "ticks": 51968,
            "time": 54.13333333333334,
            "velocity": 0.6456692913385826
          },
          {
            "duration": 0.2666666666666657,
            "durationTicks": 256,
            "midi": 74,
            "name": "D5",
            "ticks": 51968,
            "time": 54.13333333333334,
            "velocity": 0.6456692913385826
          },
          {
            "duration": 1.5999999999999943,
            "durationTicks": 1536,
            "midi": 58,
            "name": "A#3",
            "ticks": 52224,
            "time": 54.400000000000006,
            "velocity": 0.6456692913385826
          },
          {
            "duration": 1.5999999999999943,
            "durationTicks": 1536,
            "midi": 70,
            "name": "A#4",
            "ticks": 52224,
            "time": 54.400000000000006,
            "velocity": 0.6456692913385826
          },
          {
            "duration": 1.5999999999999943,
            "durationTicks": 1536,
            "midi": 61,
            "name": "C#4",
            "ticks": 52224,
            "time": 54.400000000000006,
            "velocity": 0.6456692913385826
          },
          {
            "duration": 1.5999999999999943,
            "durationTicks": 1536,
            "midi": 65,
            "name": "F4",
            "ticks": 52224,
            "time": 54.400000000000006,
            "velocity": 0.6456692913385826
          },
          {
            "duration": 0.8000000000000043,
            "durationTicks": 768,
            "midi": 61,
            "name": "C#4",
            "ticks": 53760,
            "time": 56,
            "velocity": 0.6456692913385826
          },
          {
            "duration": 0.8000000000000043,
            "durationTicks": 768,
            "midi": 58,
            "name": "A#3",
            "ticks": 53760,
            "time": 56,
            "velocity": 0.6456692913385826
          },
          {
            "duration": 0.8000000000000043,
            "durationTicks": 768,
            "midi": 65,
            "name": "F4",
            "ticks": 53760,
            "time": 56,
            "velocity": 0.6456692913385826
          },
          {
            "duration": 0.7999999999999972,
            "durationTicks": 768,
            "midi": 53,
            "name": "F3",
            "ticks": 54528,
            "time": 56.800000000000004,
            "velocity": 0.6456692913385826
          },
          {
            "duration": 0.7999999999999972,
            "durationTicks": 768,
            "midi": 61,
            "name": "C#4",
            "ticks": 54528,
            "time": 56.800000000000004,
            "velocity": 0.6456692913385826
          },
          {
            "duration": 0.7999999999999972,
            "durationTicks": 768,
            "midi": 58,
            "name": "A#3",
            "ticks": 54528,
            "time": 56.800000000000004,
            "velocity": 0.6456692913385826
          },
          {
            "duration": 1.6000000000000014,
            "durationTicks": 1536,
            "midi": 61,
            "name": "C#4",
            "ticks": 55296,
            "time": 57.6,
            "velocity": 0.6456692913385826
          },
          {
            "duration": 1.6000000000000014,
            "durationTicks": 1536,
            "midi": 58,
            "name": "A#3",
            "ticks": 55296,
            "time": 57.6,
            "velocity": 0.6456692913385826
          },
          {
            "duration": 1.6000000000000014,
            "durationTicks": 1536,
            "midi": 53,
            "name": "F3",
            "ticks": 55296,
            "time": 57.6,
            "velocity": 0.6456692913385826
          },
          {
            "duration": 1.6000000000000014,
            "durationTicks": 1536,
            "midi": 52,
            "name": "E3",
            "ticks": 56832,
            "time": 59.2,
            "velocity": 0.6456692913385826
          },
          {
            "duration": 1.6000000000000014,
            "durationTicks": 1536,
            "midi": 57,
            "name": "A3",
            "ticks": 56832,
            "time": 59.2,
            "velocity": 0.6456692913385826
          },
          {
            "duration": 1.6000000000000014,
            "durationTicks": 1536,
            "midi": 61,
            "name": "C#4",
            "ticks": 56832,
            "time": 59.2,
            "velocity": 0.6456692913385826
          }
        ],
        "endOfTrackTicks": 58368
      },
      {
        "channel": 9,
        "controlChanges": {},
        "pitchBends": [],
        "instrument": {
          "family": "drums",
          "number": 0,
          "name": "standard kit"
        },
        "name": "Electric Drum Kit",
        "notes": [
          {
            "duration": 0.2,
            "durationTicks": 192,
            "midi": 44,
            "name": "G#2",
            "ticks": 0,
            "time": 0,
            "velocity": 0.25984251968503935
          },
          {
            "duration": 0.2,
            "durationTicks": 192,
            "midi": 44,
            "name": "G#2",
            "ticks": 192,
            "time": 0.2,
            "velocity": 0.25984251968503935
          },
          {
            "duration": 0.20000000000000007,
            "durationTicks": 192,
            "midi": 44,
            "name": "G#2",
            "ticks": 384,
            "time": 0.4,
            "velocity": 0.25984251968503935
          },
          {
            "duration": 0.19999999999999996,
            "durationTicks": 192,
            "midi": 44,
            "name": "G#2",
            "ticks": 576,
            "time": 0.6000000000000001,
            "velocity": 0.25984251968503935
          },
          {
            "duration": 0.19999999999999996,
            "durationTicks": 192,
            "midi": 44,
            "name": "G#2",
            "ticks": 768,
            "time": 0.8,
            "velocity": 0.25984251968503935
          },
          {
            "duration": 0.20000000000000018,
            "durationTicks": 192,
            "midi": 44,
            "name": "G#2",
            "ticks": 960,
            "time": 1,
            "velocity": 0.25984251968503935
          },
          {
            "duration": 0.19999999999999996,
            "durationTicks": 192,
            "midi": 44,
            "name": "G#2",
            "ticks": 1152,
            "time": 1.2000000000000002,
            "velocity": 0.25984251968503935
          },
          {
            "duration": 0.19999999999999996,
            "durationTicks": 192,
            "midi": 44,
            "name": "G#2",
            "ticks": 1344,
            "time": 1.4000000000000001,
            "velocity": 0.25984251968503935
          },
          {
            "duration": 0.19999999999999996,
            "durationTicks": 192,
            "midi": 44,
            "name": "G#2",
            "ticks": 1536,
            "time": 1.6,
            "velocity": 0.25984251968503935
          },
          {
            "duration": 0.19999999999999996,
            "durationTicks": 192,
            "midi": 44,
            "name": "G#2",
            "ticks": 1728,
            "time": 1.8,
            "velocity": 0.25984251968503935
          },
          {
            "duration": 0.20000000000000018,
            "durationTicks": 192,
            "midi": 44,
            "name": "G#2",
            "ticks": 1920,
            "time": 2,
            "velocity": 0.25984251968503935
          },
          {
            "duration": 0.20000000000000018,
            "durationTicks": 192,
            "midi": 44,
            "name": "G#2",
            "ticks": 2112,
            "time": 2.2,
            "velocity": 0.25984251968503935
          },
          {
            "duration": 0.19999999999999973,
            "durationTicks": 192,
            "midi": 44,
            "name": "G#2",
            "ticks": 2304,
            "time": 2.4000000000000004,
            "velocity": 0.25984251968503935
          },
          {
            "duration": 0.20000000000000018,
            "durationTicks": 192,
            "midi": 44,
            "name": "G#2",
            "ticks": 2496,
            "time": 2.6,
            "velocity": 0.25984251968503935
          },
          {
            "duration": 0.19999999999999973,
            "durationTicks": 192,
            "midi": 44,
            "name": "G#2",
            "ticks": 2688,
            "time": 2.8000000000000003,
            "velocity": 0.25984251968503935
          },
          {
            "duration": 0.20000000000000018,
            "durationTicks": 192,
            "midi": 44,
            "name": "G#2",
            "ticks": 2880,
            "time": 3,
            "velocity": 0.25984251968503935
          },
          {
            "duration": 0.20000000000000018,
            "durationTicks": 192,
            "midi": 44,
            "name": "G#2",
            "ticks": 3072,
            "time": 3.2,
            "velocity": 0.25984251968503935
          },
          {
            "duration": 0.19999999999999973,
            "durationTicks": 192,
            "midi": 44,
            "name": "G#2",
            "ticks": 3264,
            "time": 3.4000000000000004,
            "velocity": 0.25984251968503935
          },
          {
            "duration": 0.20000000000000018,
            "durationTicks": 192,
            "midi": 44,
            "name": "G#2",
            "ticks": 3456,
            "time": 3.6,
            "velocity": 0.25984251968503935
          },
          {
            "duration": 0.19999999999999973,
            "durationTicks": 192,
            "midi": 44,
            "name": "G#2",
            "ticks": 3648,
            "time": 3.8000000000000003,
            "velocity": 0.25984251968503935
          },
          {
            "duration": 0.20000000000000018,
            "durationTicks": 192,
            "midi": 44,
            "name": "G#2",
            "ticks": 3840,
            "time": 4,
            "velocity": 0.25984251968503935
          },
          {
            "duration": 0.20000000000000018,
            "durationTicks": 192,
            "midi": 44,
            "name": "G#2",
            "ticks": 4032,
            "time": 4.2,
            "velocity": 0.25984251968503935
          },
          {
            "duration": 0.20000000000000018,
            "durationTicks": 192,
            "midi": 44,
            "name": "G#2",
            "ticks": 4224,
            "time": 4.4,
            "velocity": 0.25984251968503935
          },
          {
            "duration": 0.20000000000000018,
            "durationTicks": 192,
            "midi": 44,
            "name": "G#2",
            "ticks": 4416,
            "time": 4.6000000000000005,
            "velocity": 0.25984251968503935
          },
          {
            "duration": 0.1999999999999993,
            "durationTicks": 192,
            "midi": 49,
            "name": "C#3",
            "ticks": 4608,
            "time": 4.800000000000001,
            "velocity": 0.25984251968503935
          },
          {
            "duration": 0.1999999999999993,
            "durationTicks": 192,
            "midi": 40,
            "name": "E2",
            "ticks": 4608,
            "time": 4.800000000000001,
            "velocity": 0.25984251968503935
          },
          {
            "duration": 0.1999999999999993,
            "durationTicks": 192,
            "midi": 38,
            "name": "D2",
            "ticks": 4608,
            "time": 4.800000000000001,
            "velocity": 0.25984251968503935
          },
          {
            "duration": 0.1999999999999993,
            "durationTicks": 192,
            "midi": 43,
            "name": "G2",
            "ticks": 4608,
            "time": 4.800000000000001,
            "velocity": 0.25984251968503935
          },
          {
            "duration": 0.1999999999999993,
            "durationTicks": 192,
            "midi": 36,
            "name": "C2",
            "ticks": 4608,
            "time": 4.800000000000001,
            "velocity": 0.25984251968503935
          },
          {
            "duration": 0.20000000000000018,
            "durationTicks": 192,
            "midi": 44,
            "name": "G#2",
            "ticks": 4800,
            "time": 5,
            "velocity": 0.25984251968503935
          },
          {
            "duration": 0.20000000000000018,
            "durationTicks": 192,
            "midi": 41,
            "name": "F2",
            "ticks": 4800,
            "time": 5,
            "velocity": 0.25984251968503935
          },
          {
            "duration": 0.20000000000000018,
            "durationTicks": 192,
            "midi": 38,
            "name": "D2",
            "ticks": 4992,
            "time": 5.2,
            "velocity": 0.25984251968503935
          },
          {
            "duration": 0.20000000000000018,
            "durationTicks": 192,
            "midi": 40,
            "name": "E2",
            "ticks": 4992,
            "time": 5.2,
            "velocity": 0.25984251968503935
          },
          {
            "duration": 0.20000000000000018,
            "durationTicks": 192,
            "midi": 36,
            "name": "C2",
            "ticks": 4992,
            "time": 5.2,
            "velocity": 0.25984251968503935
          },
          {
            "duration": 0.20000000000000018,
            "durationTicks": 192,
            "midi": 49,
            "name": "C#3",
            "ticks": 4992,
            "time": 5.2,
            "velocity": 0.25984251968503935
          },
          {
            "duration": 0.20000000000000018,
            "durationTicks": 192,
            "midi": 43,
            "name": "G2",
            "ticks": 4992,
            "time": 5.2,
            "velocity": 0.25984251968503935
          },
          {
            "duration": 0.20000000000000018,
            "durationTicks": 192,
            "midi": 41,
            "name": "F2",
            "ticks": 5184,
            "time": 5.4,
            "velocity": 0.25984251968503935
          },
          {
            "duration": 0.20000000000000018,
            "durationTicks": 192,
            "midi": 44,
            "name": "G#2",
            "ticks": 5184,
            "time": 5.4,
            "velocity": 0.25984251968503935
          },
          {
            "duration": 0.20000000000000018,
            "durationTicks": 192,
            "midi": 43,
            "name": "G2",
            "ticks": 5376,
            "time": 5.6000000000000005,
            "velocity": 0.25984251968503935
          },
          {
            "duration": 0.20000000000000018,
            "durationTicks": 192,
            "midi": 38,
            "name": "D2",
            "ticks": 5376,
            "time": 5.6000000000000005,
            "velocity": 0.25984251968503935
          },
          {
            "duration": 0.20000000000000018,
            "durationTicks": 192,
            "midi": 36,
            "name": "C2",
            "ticks": 5376,
            "time": 5.6000000000000005,
            "velocity": 0.25984251968503935
          },
          {
            "duration": 0.20000000000000018,
            "durationTicks": 192,
            "midi": 49,
            "name": "C#3",
            "ticks": 5376,
            "time": 5.6000000000000005,
            "velocity": 0.25984251968503935
          },
          {
            "duration": 0.20000000000000018,
            "durationTicks": 192,
            "midi": 40,
            "name": "E2",
            "ticks": 5376,
            "time": 5.6000000000000005,
            "velocity": 0.25984251968503935
          },
          {
            "duration": 0.1999999999999993,
            "durationTicks": 192,
            "midi": 44,
            "name": "G#2",
            "ticks": 5568,
            "time": 5.800000000000001,
            "velocity": 0.25984251968503935
          },
          {
            "duration": 0.1999999999999993,
            "durationTicks": 192,
            "midi": 41,
            "name": "F2",
            "ticks": 5568,
            "time": 5.800000000000001,
            "velocity": 0.25984251968503935
          },
          {
            "duration": 0.20000000000000018,
            "durationTicks": 192,
            "midi": 36,
            "name": "C2",
            "ticks": 5760,
            "time": 6,
            "velocity": 0.25984251968503935
          },
          {
            "duration": 0.20000000000000018,
            "durationTicks": 192,
            "midi": 40,
            "name": "E2",
            "ticks": 5760,
            "time": 6,
            "velocity": 0.25984251968503935
          },
          {
            "duration": 0.20000000000000018,
            "durationTicks": 192,
            "midi": 38,
            "name": "D2",
            "ticks": 5760,
            "time": 6,
            "velocity": 0.25984251968503935
          },
          {
            "duration": 0.20000000000000018,
            "durationTicks": 192,
            "midi": 43,
            "name": "G2",
            "ticks": 5760,
            "time": 6,
            "velocity": 0.25984251968503935
          },
          {
            "duration": 0.20000000000000018,
            "durationTicks": 192,
            "midi": 49,
            "name": "C#3",
            "ticks": 5760,
            "time": 6,
            "velocity": 0.25984251968503935
          },
          {
            "duration": 0.20000000000000018,
            "durationTicks": 192,
            "midi": 44,
            "name": "G#2",
            "ticks": 5952,
            "time": 6.2,
            "velocity": 0.25984251968503935
          },
          {
            "duration": 0.20000000000000018,
            "durationTicks": 192,
            "midi": 41,
            "name": "F2",
            "ticks": 5952,
            "time": 6.2,
            "velocity": 0.25984251968503935
          },
          {
            "duration": 0.20000000000000018,
            "durationTicks": 192,
            "midi": 44,
            "name": "G#2",
            "ticks": 6144,
            "time": 6.4,
            "velocity": 0.25984251968503935
          },
          {
            "duration": 0.20000000000000018,
            "durationTicks": 192,
            "midi": 44,
            "name": "G#2",
            "ticks": 6336,
            "time": 6.6000000000000005,
            "velocity": 0.25984251968503935
          },
          {
            "duration": 0.1999999999999993,
            "durationTicks": 192,
            "midi": 44,
            "name": "G#2",
            "ticks": 6528,
            "time": 6.800000000000001,
            "velocity": 0.25984251968503935
          },
          {
            "duration": 0.20000000000000018,
            "durationTicks": 192,
            "midi": 44,
            "name": "G#2",
            "ticks": 6720,
            "time": 7,
            "velocity": 0.25984251968503935
          },
          {
            "duration": 0.20000000000000018,
            "durationTicks": 192,
            "midi": 44,
            "name": "G#2",
            "ticks": 6912,
            "time": 7.2,
            "velocity": 0.25984251968503935
          },
          {
            "duration": 0.20000000000000018,
            "durationTicks": 192,
            "midi": 40,
            "name": "E2",
            "ticks": 7104,
            "time": 7.4,
            "velocity": 0.25984251968503935
          },
          {
            "duration": 0.20000000000000018,
            "durationTicks": 192,
            "midi": 49,
            "name": "C#3",
            "ticks": 7104,
            "time": 7.4,
            "velocity": 0.25984251968503935
          },
          {
            "duration": 0.20000000000000018,
            "durationTicks": 192,
            "midi": 41,
            "name": "F2",
            "ticks": 7104,
            "time": 7.4,
            "velocity": 0.25984251968503935
          },
          {
            "duration": 0.20000000000000018,
            "durationTicks": 192,
            "midi": 36,
            "name": "C2",
            "ticks": 7104,
            "time": 7.4,
            "velocity": 0.25984251968503935
          },
          {
            "duration": 0.20000000000000018,
            "durationTicks": 192,
            "midi": 44,
            "name": "G#2",
            "ticks": 7296,
            "time": 7.6000000000000005,
            "velocity": 0.25984251968503935
          },
          {
            "duration": 0.1999999999999993,
            "durationTicks": 192,
            "midi": 36,
            "name": "C2",
            "ticks": 7488,
            "time": 7.800000000000001,
            "velocity": 0.25984251968503935
          },
          {
            "duration": 0.1999999999999993,
            "durationTicks": 192,
            "midi": 40,
            "name": "E2",
            "ticks": 7488,
            "time": 7.800000000000001,
            "velocity": 0.25984251968503935
          },
          {
            "duration": 0.1999999999999993,
            "durationTicks": 192,
            "midi": 41,
            "name": "F2",
            "ticks": 7488,
            "time": 7.800000000000001,
            "velocity": 0.25984251968503935
          },
          {
            "duration": 0.1999999999999993,
            "durationTicks": 192,
            "midi": 49,
            "name": "C#3",
            "ticks": 7488,
            "time": 7.800000000000001,
            "velocity": 0.25984251968503935
          },
          {
            "duration": 0.20000000000000107,
            "durationTicks": 192,
            "midi": 36,
            "name": "C2",
            "ticks": 7680,
            "time": 8,
            "velocity": 0.25984251968503935
          },
          {
            "duration": 0.20000000000000107,
            "durationTicks": 192,
            "midi": 40,
            "name": "E2",
            "ticks": 7680,
            "time": 8,
            "velocity": 0.25984251968503935
          },
          {
            "duration": 0.20000000000000107,
            "durationTicks": 192,
            "midi": 41,
            "name": "F2",
            "ticks": 7680,
            "time": 8,
            "velocity": 0.25984251968503935
          },
          {
            "duration": 0.20000000000000107,
            "durationTicks": 192,
            "midi": 49,
            "name": "C#3",
            "ticks": 7680,
            "time": 8,
            "velocity": 0.25984251968503935
          },
          {
            "duration": 0.1999999999999993,
            "durationTicks": 192,
            "midi": 44,
            "name": "G#2",
            "ticks": 7872,
            "time": 8.200000000000001,
            "velocity": 0.25984251968503935
          },
          {
            "duration": 0.1999999999999993,
            "durationTicks": 192,
            "midi": 44,
            "name": "G#2",
            "ticks": 8064,
            "time": 8.4,
            "velocity": 0.25984251968503935
          },
          {
            "duration": 0.20000000000000107,
            "durationTicks": 192,
            "midi": 44,
            "name": "G#2",
            "ticks": 8256,
            "time": 8.6,
            "velocity": 0.25984251968503935
          },
          {
            "duration": 0.1999999999999993,
            "durationTicks": 192,
            "midi": 44,
            "name": "G#2",
            "ticks": 8448,
            "time": 8.8,
            "velocity": 0.25984251968503935
          },
          {
            "duration": 0.20000000000000107,
            "durationTicks": 192,
            "midi": 41,
            "name": "F2",
            "ticks": 8640,
            "time": 9,
            "velocity": 0.25984251968503935
          },
          {
            "duration": 0.20000000000000107,
            "durationTicks": 192,
            "midi": 40,
            "name": "E2",
            "ticks": 8640,
            "time": 9,
            "velocity": 0.25984251968503935
          },
          {
            "duration": 0.20000000000000107,
            "durationTicks": 192,
            "midi": 49,
            "name": "C#3",
            "ticks": 8640,
            "time": 9,
            "velocity": 0.25984251968503935
          },
          {
            "duration": 0.20000000000000107,
            "durationTicks": 192,
            "midi": 36,
            "name": "C2",
            "ticks": 8640,
            "time": 9,
            "velocity": 0.25984251968503935
          },
          {
            "duration": 0.1999999999999993,
            "durationTicks": 192,
            "midi": 44,
            "name": "G#2",
            "ticks": 8832,
            "time": 9.200000000000001,
            "velocity": 0.25984251968503935
          },
          {
            "duration": 0.20000000000000107,
            "durationTicks": 192,
            "midi": 36,
            "name": "C2",
            "ticks": 9024,
            "time": 9.4,
            "velocity": 0.25984251968503935
          },
          {
            "duration": 0.20000000000000107,
            "durationTicks": 192,
            "midi": 40,
            "name": "E2",
            "ticks": 9024,
            "time": 9.4,
            "velocity": 0.25984251968503935
          },
          {
            "duration": 0.20000000000000107,
            "durationTicks": 192,
            "midi": 49,
            "name": "C#3",
            "ticks": 9024,
            "time": 9.4,
            "velocity": 0.25984251968503935
          },
          {
            "duration": 0.20000000000000107,
            "durationTicks": 192,
            "midi": 41,
            "name": "F2",
            "ticks": 9024,
            "time": 9.4,
            "velocity": 0.25984251968503935
          },
          {
            "duration": 0.1999999999999993,
            "durationTicks": 192,
            "midi": 41,
            "name": "F2",
            "ticks": 9216,
            "time": 9.600000000000001,
            "velocity": 0.25984251968503935
          },
          {
            "duration": 0.1999999999999993,
            "durationTicks": 192,
            "midi": 49,
            "name": "C#3",
            "ticks": 9216,
            "time": 9.600000000000001,
            "velocity": 0.25984251968503935
          },
          {
            "duration": 0.1999999999999993,
            "durationTicks": 192,
            "midi": 40,
            "name": "E2",
            "ticks": 9216,
            "time": 9.600000000000001,
            "velocity": 0.25984251968503935
          },
          {
            "duration": 0.1999999999999993,
            "durationTicks": 192,
            "midi": 36,
            "name": "C2",
            "ticks": 9216,
            "time": 9.600000000000001,
            "velocity": 0.25984251968503935
          },
          {
            "duration": 0.1999999999999993,
            "durationTicks": 192,
            "midi": 44,
            "name": "G#2",
            "ticks": 9408,
            "time": 9.8,
            "velocity": 0.25984251968503935
          },
          {
            "duration": 0.20000000000000107,
            "durationTicks": 192,
            "midi": 44,
            "name": "G#2",
            "ticks": 9600,
            "time": 10,
            "velocity": 0.25984251968503935
          },
          {
            "duration": 0.1999999999999993,
            "durationTicks": 192,
            "midi": 44,
            "name": "G#2",
            "ticks": 9792,
            "time": 10.200000000000001,
            "velocity": 0.25984251968503935
          },
          {
            "duration": 0.20000000000000107,
            "durationTicks": 192,
            "midi": 44,
            "name": "G#2",
            "ticks": 9984,
            "time": 10.4,
            "velocity": 0.25984251968503935
          },
          {
            "duration": 0.1999999999999993,
            "durationTicks": 192,
            "midi": 40,
            "name": "E2",
            "ticks": 10176,
            "time": 10.600000000000001,
            "velocity": 0.25984251968503935
          },
          {
            "duration": 0.1999999999999993,
            "durationTicks": 192,
            "midi": 36,
            "name": "C2",
            "ticks": 10176,
            "time": 10.600000000000001,
            "velocity": 0.25984251968503935
          },
          {
            "duration": 0.1999999999999993,
            "durationTicks": 192,
            "midi": 41,
            "name": "F2",
            "ticks": 10176,
            "time": 10.600000000000001,
            "velocity": 0.25984251968503935
          },
          {
            "duration": 0.1999999999999993,
            "durationTicks": 192,
            "midi": 49,
            "name": "C#3",
            "ticks": 10176,
            "time": 10.600000000000001,
            "velocity": 0.25984251968503935
          },
          {
            "duration": 0.1999999999999993,
            "durationTicks": 192,
            "midi": 44,
            "name": "G#2",
            "ticks": 10368,
            "time": 10.8,
            "velocity": 0.25984251968503935
          },
          {
            "duration": 0.20000000000000107,
            "durationTicks": 192,
            "midi": 36,
            "name": "C2",
            "ticks": 10560,
            "time": 11,
            "velocity": 0.25984251968503935
          },
          {
            "duration": 0.20000000000000107,
            "durationTicks": 192,
            "midi": 41,
            "name": "F2",
            "ticks": 10560,
            "time": 11,
            "velocity": 0.25984251968503935
          },
          {
            "duration": 0.20000000000000107,
            "durationTicks": 192,
            "midi": 40,
            "name": "E2",
            "ticks": 10560,
            "time": 11,
            "velocity": 0.25984251968503935
          },
          {
            "duration": 0.20000000000000107,
            "durationTicks": 192,
            "midi": 49,
            "name": "C#3",
            "ticks": 10560,
            "time": 11,
            "velocity": 0.25984251968503935
          },
          {
            "duration": 0.13333333333333286,
            "durationTicks": 128,
            "midi": 41,
            "name": "F2",
            "ticks": 10752,
            "time": 11.200000000000001,
            "velocity": 0.25984251968503935
          },
          {
            "duration": 0.13333333333333286,
            "durationTicks": 128,
            "midi": 40,
            "name": "E2",
            "ticks": 10752,
            "time": 11.200000000000001,
            "velocity": 0.25984251968503935
          },
          {
            "duration": 0.13333333333333286,
            "durationTicks": 128,
            "midi": 36,
            "name": "C2",
            "ticks": 10752,
            "time": 11.200000000000001,
            "velocity": 0.25984251968503935
          },
          {
            "duration": 0.13333333333333286,
            "durationTicks": 128,
            "midi": 49,
            "name": "C#3",
            "ticks": 10752,
            "time": 11.200000000000001,
            "velocity": 0.25984251968503935
          },
          {
            "duration": 0.13333333333333464,
            "durationTicks": 128,
            "midi": 41,
            "name": "F2",
            "ticks": 10880,
            "time": 11.333333333333334,
            "velocity": 0.25984251968503935
          },
          {
            "duration": 0.13333333333333464,
            "durationTicks": 128,
            "midi": 36,
            "name": "C2",
            "ticks": 10880,
            "time": 11.333333333333334,
            "velocity": 0.25984251968503935
          },
          {
            "duration": 0.13333333333333464,
            "durationTicks": 128,
            "midi": 40,
            "name": "E2",
            "ticks": 10880,
            "time": 11.333333333333334,
            "velocity": 0.25984251968503935
          },
          {
            "duration": 0.13333333333333286,
            "durationTicks": 128,
            "midi": 40,
            "name": "E2",
            "ticks": 11008,
            "time": 11.466666666666669,
            "velocity": 0.25984251968503935
          },
          {
            "duration": 0.13333333333333286,
            "durationTicks": 128,
            "midi": 36,
            "name": "C2",
            "ticks": 11008,
            "time": 11.466666666666669,
            "velocity": 0.25984251968503935
          },
          {
            "duration": 0.13333333333333286,
            "durationTicks": 128,
            "midi": 41,
            "name": "F2",
            "ticks": 11008,
            "time": 11.466666666666669,
            "velocity": 0.25984251968503935
          },
          {
            "duration": 0.13333333333333286,
            "durationTicks": 128,
            "midi": 38,
            "name": "D2",
            "ticks": 11136,
            "time": 11.600000000000001,
            "velocity": 0.25984251968503935
          },
          {
            "duration": 0.13333333333333286,
            "durationTicks": 128,
            "midi": 43,
            "name": "G2",
            "ticks": 11136,
            "time": 11.600000000000001,
            "velocity": 0.25984251968503935
          },
          {
            "duration": 0.13333333333333286,
            "durationTicks": 128,
            "midi": 49,
            "name": "C#3",
            "ticks": 11136,
            "time": 11.600000000000001,
            "velocity": 0.25984251968503935
          },
          {
            "duration": 0.13333333333333286,
            "durationTicks": 128,
            "midi": 35,
            "name": "B1",
            "ticks": 11136,
            "time": 11.600000000000001,
            "velocity": 0.25984251968503935
          },
          {
            "duration": 0.13333333333333286,
            "durationTicks": 128,
            "midi": 43,
            "name": "G2",
            "ticks": 11264,
            "time": 11.733333333333334,
            "velocity": 0.25984251968503935
          },
          {
            "duration": 0.13333333333333286,
            "durationTicks": 128,
            "midi": 35,
            "name": "B1",
            "ticks": 11264,
            "time": 11.733333333333334,
            "velocity": 0.25984251968503935
          },
          {
            "duration": 0.13333333333333286,
            "durationTicks": 128,
            "midi": 38,
            "name": "D2",
            "ticks": 11264,
            "time": 11.733333333333334,
            "velocity": 0.25984251968503935
          },
          {
            "duration": 0.13333333333333286,
            "durationTicks": 128,
            "midi": 35,
            "name": "B1",
            "ticks": 11392,
            "time": 11.866666666666667,
            "velocity": 0.25984251968503935
          },
          {
            "duration": 0.13333333333333286,
            "durationTicks": 128,
            "midi": 38,
            "name": "D2",
            "ticks": 11392,
            "time": 11.866666666666667,
            "velocity": 0.25984251968503935
          },
          {
            "duration": 0.13333333333333286,
            "durationTicks": 128,
            "midi": 43,
            "name": "G2",
            "ticks": 11392,
            "time": 11.866666666666667,
            "velocity": 0.25984251968503935
          },
          {
            "duration": 0.13333333333333286,
            "durationTicks": 128,
            "midi": 40,
            "name": "E2",
            "ticks": 11520,
            "time": 12,
            "velocity": 0.25984251968503935
          },
          {
            "duration": 0.13333333333333286,
            "durationTicks": 128,
            "midi": 36,
            "name": "C2",
            "ticks": 11520,
            "time": 12,
            "velocity": 0.25984251968503935
          },
          {
            "duration": 0.13333333333333286,
            "durationTicks": 128,
            "midi": 41,
            "name": "F2",
            "ticks": 11520,
            "time": 12,
            "velocity": 0.25984251968503935
          },
          {
            "duration": 0.13333333333333286,
            "durationTicks": 128,
            "midi": 49,
            "name": "C#3",
            "ticks": 11520,
            "time": 12,
            "velocity": 0.25984251968503935
          },
          {
            "duration": 0.13333333333333464,
            "durationTicks": 128,
            "midi": 40,
            "name": "E2",
            "ticks": 11648,
            "time": 12.133333333333333,
            "velocity": 0.25984251968503935
          },
          {
            "duration": 0.13333333333333464,
            "durationTicks": 128,
            "midi": 41,
            "name": "F2",
            "ticks": 11648,
            "time": 12.133333333333333,
            "velocity": 0.25984251968503935
          },
          {
            "duration": 0.13333333333333464,
            "durationTicks": 128,
            "midi": 36,
            "name": "C2",
            "ticks": 11648,
            "time": 12.133333333333333,
            "velocity": 0.25984251968503935
          },
          {
            "duration": 0.13333333333333286,
            "durationTicks": 128,
            "midi": 41,
            "name": "F2",
            "ticks": 11776,
            "time": 12.266666666666667,
            "velocity": 0.25984251968503935
          },
          {
            "duration": 0.13333333333333286,
            "durationTicks": 128,
            "midi": 36,
            "name": "C2",
            "ticks": 11776,
            "time": 12.266666666666667,
            "velocity": 0.25984251968503935
          },
          {
            "duration": 0.13333333333333286,
            "durationTicks": 128,
            "midi": 40,
            "name": "E2",
            "ticks": 11776,
            "time": 12.266666666666667,
            "velocity": 0.25984251968503935
          },
          {
            "duration": 0.13333333333333286,
            "durationTicks": 128,
            "midi": 35,
            "name": "B1",
            "ticks": 11904,
            "time": 12.4,
            "velocity": 0.25984251968503935
          },
          {
            "duration": 0.13333333333333286,
            "durationTicks": 128,
            "midi": 38,
            "name": "D2",
            "ticks": 11904,
            "time": 12.4,
            "velocity": 0.25984251968503935
          },
          {
            "duration": 0.13333333333333286,
            "durationTicks": 128,
            "midi": 43,
            "name": "G2",
            "ticks": 11904,
            "time": 12.4,
            "velocity": 0.25984251968503935
          },
          {
            "duration": 0.13333333333333286,
            "durationTicks": 128,
            "midi": 49,
            "name": "C#3",
            "ticks": 11904,
            "time": 12.4,
            "velocity": 0.25984251968503935
          },
          {
            "duration": 0.13333333333333464,
            "durationTicks": 128,
            "midi": 35,
            "name": "B1",
            "ticks": 12032,
            "time": 12.533333333333333,
            "velocity": 0.25984251968503935
          },
          {
            "duration": 0.13333333333333464,
            "durationTicks": 128,
            "midi": 43,
            "name": "G2",
            "ticks": 12032,
            "time": 12.533333333333333,
            "velocity": 0.25984251968503935
          },
          {
            "duration": 0.13333333333333464,
            "durationTicks": 128,
            "midi": 38,
            "name": "D2",
            "ticks": 12032,
            "time": 12.533333333333333,
            "velocity": 0.25984251968503935
          },
          {
            "duration": 0.13333333333333286,
            "durationTicks": 128,
            "midi": 35,
            "name": "B1",
            "ticks": 12160,
            "time": 12.666666666666668,
            "velocity": 0.25984251968503935
          },
          {
            "duration": 0.13333333333333286,
            "durationTicks": 128,
            "midi": 38,
            "name": "D2",
            "ticks": 12160,
            "time": 12.666666666666668,
            "velocity": 0.25984251968503935
          },
          {
            "duration": 0.13333333333333286,
            "durationTicks": 128,
            "midi": 43,
            "name": "G2",
            "ticks": 12160,
            "time": 12.666666666666668,
            "velocity": 0.25984251968503935
          },
          {
            "duration": 0.1999999999999993,
            "durationTicks": 192,
            "midi": 40,
            "name": "E2",
            "ticks": 12288,
            "time": 12.8,
            "velocity": 0.25984251968503935
          },
          {
            "duration": 0.1999999999999993,
            "durationTicks": 192,
            "midi": 36,
            "name": "C2",
            "ticks": 12288,
            "time": 12.8,
            "velocity": 0.25984251968503935
          },
          {
            "duration": 0.1999999999999993,
            "durationTicks": 192,
            "midi": 43,
            "name": "G2",
            "ticks": 12288,
            "time": 12.8,
            "velocity": 0.25984251968503935
          },
          {
            "duration": 0.09999999999999964,
            "durationTicks": 96,
            "midi": 40,
            "name": "E2",
            "ticks": 12864,
            "time": 13.4,
            "velocity": 0.25984251968503935
          },
          {
            "duration": 0.09999999999999964,
            "durationTicks": 96,
            "midi": 36,
            "name": "C2",
            "ticks": 12864,
            "time": 13.4,
            "velocity": 0.25984251968503935
          },
          {
            "duration": 0.09999999999999964,
            "durationTicks": 96,
            "midi": 43,
            "name": "G2",
            "ticks": 12864,
            "time": 13.4,
            "velocity": 0.25984251968503935
          },
          {
            "duration": 0.10000000000000142,
            "durationTicks": 96,
            "midi": 36,
            "name": "C2",
            "ticks": 12960,
            "time": 13.5,
            "velocity": 0.25984251968503935
          },
          {
            "duration": 0.10000000000000142,
            "durationTicks": 96,
            "midi": 43,
            "name": "G2",
            "ticks": 12960,
            "time": 13.5,
            "velocity": 0.25984251968503935
          },
          {
            "duration": 0.10000000000000142,
            "durationTicks": 96,
            "midi": 40,
            "name": "E2",
            "ticks": 12960,
            "time": 13.5,
            "velocity": 0.25984251968503935
          },
          {
            "duration": 0.1999999999999993,
            "durationTicks": 192,
            "midi": 35,
            "name": "B1",
            "ticks": 13056,
            "time": 13.600000000000001,
            "velocity": 0.25984251968503935
          },
          {
            "duration": 0.1999999999999993,
            "durationTicks": 192,
            "midi": 40,
            "name": "E2",
            "ticks": 13056,
            "time": 13.600000000000001,
            "velocity": 0.25984251968503935
          },
          {
            "duration": 0.1999999999999993,
            "durationTicks": 192,
            "midi": 45,
            "name": "A2",
            "ticks": 13056,
            "time": 13.600000000000001,
            "velocity": 0.25984251968503935
          },
          {
            "duration": 0.1999999999999993,
            "durationTicks": 192,
            "midi": 41,
            "name": "F2",
            "ticks": 13056,
            "time": 13.600000000000001,
            "velocity": 0.25984251968503935
          },
          {
            "duration": 0.20000000000000107,
            "durationTicks": 192,
            "midi": 40,
            "name": "E2",
            "ticks": 13440,
            "time": 14,
            "velocity": 0.25984251968503935
          },
          {
            "duration": 0.20000000000000107,
            "durationTicks": 192,
            "midi": 45,
            "name": "A2",
            "ticks": 13440,
            "time": 14,
            "velocity": 0.25984251968503935
          },
          {
            "duration": 0.20000000000000107,
            "durationTicks": 192,
            "midi": 35,
            "name": "B1",
            "ticks": 13440,
            "time": 14,
            "velocity": 0.25984251968503935
          },
          {
            "duration": 0.20000000000000107,
            "durationTicks": 192,
            "midi": 41,
            "name": "F2",
            "ticks": 13440,
            "time": 14,
            "velocity": 0.25984251968503935
          },
          {
            "duration": 0.20000000000000107,
            "durationTicks": 192,
            "midi": 40,
            "name": "E2",
            "ticks": 13824,
            "time": 14.4,
            "velocity": 0.25984251968503935
          },
          {
            "duration": 0.20000000000000107,
            "durationTicks": 192,
            "midi": 36,
            "name": "C2",
            "ticks": 13824,
            "time": 14.4,
            "velocity": 0.25984251968503935
          },
          {
            "duration": 0.20000000000000107,
            "durationTicks": 192,
            "midi": 43,
            "name": "G2",
            "ticks": 13824,
            "time": 14.4,
            "velocity": 0.25984251968503935
          },
          {
            "duration": 0.10000000000000142,
            "durationTicks": 96,
            "midi": 36,
            "name": "C2",
            "ticks": 14400,
            "time": 15,
            "velocity": 0.25984251968503935
          },
          {
            "duration": 0.10000000000000142,
            "durationTicks": 96,
            "midi": 40,
            "name": "E2",
            "ticks": 14400,
            "time": 15,
            "velocity": 0.25984251968503935
          },
          {
            "duration": 0.10000000000000142,
            "durationTicks": 96,
            "midi": 43,
            "name": "G2",
            "ticks": 14400,
            "time": 15,
            "velocity": 0.25984251968503935
          },
          {
            "duration": 0.09999999999999964,
            "durationTicks": 96,
            "midi": 40,
            "name": "E2",
            "ticks": 14496,
            "time": 15.100000000000001,
            "velocity": 0.25984251968503935
          },
          {
            "duration": 0.09999999999999964,
            "durationTicks": 96,
            "midi": 36,
            "name": "C2",
            "ticks": 14496,
            "time": 15.100000000000001,
            "velocity": 0.25984251968503935
          },
          {
            "duration": 0.09999999999999964,
            "durationTicks": 96,
            "midi": 43,
            "name": "G2",
            "ticks": 14496,
            "time": 15.100000000000001,
            "velocity": 0.25984251968503935
          },
          {
            "duration": 0.1999999999999993,
            "durationTicks": 192,
            "midi": 40,
            "name": "E2",
            "ticks": 14592,
            "time": 15.200000000000001,
            "velocity": 0.25984251968503935
          },
          {
            "duration": 0.1999999999999993,
            "durationTicks": 192,
            "midi": 45,
            "name": "A2",
            "ticks": 14592,
            "time": 15.200000000000001,
            "velocity": 0.25984251968503935
          },
          {
            "duration": 0.1999999999999993,
            "durationTicks": 192,
            "midi": 41,
            "name": "F2",
            "ticks": 14592,
            "time": 15.200000000000001,
            "velocity": 0.25984251968503935
          },
          {
            "duration": 0.1999999999999993,
            "durationTicks": 192,
            "midi": 35,
            "name": "B1",
            "ticks": 14592,
            "time": 15.200000000000001,
            "velocity": 0.25984251968503935
          },
          {
            "duration": 0.1999999999999993,
            "durationTicks": 192,
            "midi": 35,
            "name": "B1",
            "ticks": 14976,
            "time": 15.600000000000001,
            "velocity": 0.25984251968503935
          },
          {
            "duration": 0.1999999999999993,
            "durationTicks": 192,
            "midi": 40,
            "name": "E2",
            "ticks": 14976,
            "time": 15.600000000000001,
            "velocity": 0.25984251968503935
          },
          {
            "duration": 0.1999999999999993,
            "durationTicks": 192,
            "midi": 41,
            "name": "F2",
            "ticks": 14976,
            "time": 15.600000000000001,
            "velocity": 0.25984251968503935
          },
          {
            "duration": 0.1999999999999993,
            "durationTicks": 192,
            "midi": 45,
            "name": "A2",
            "ticks": 14976,
            "time": 15.600000000000001,
            "velocity": 0.25984251968503935
          },
          {
            "duration": 0.1999999999999993,
            "durationTicks": 192,
            "midi": 38,
            "name": "D2",
            "ticks": 15360,
            "time": 16,
            "velocity": 0.25984251968503935
          },
          {
            "duration": 0.1999999999999993,
            "durationTicks": 192,
            "midi": 36,
            "name": "C2",
            "ticks": 15360,
            "time": 16,
            "velocity": 0.25984251968503935
          },
          {
            "duration": 0.10000000000000142,
            "durationTicks": 96,
            "midi": 40,
            "name": "E2",
            "ticks": 15360,
            "time": 16,
            "velocity": 0.25984251968503935
          },
          {
            "duration": 0.10000000000000142,
            "durationTicks": 96,
            "midi": 35,
            "name": "B1",
            "ticks": 15360,
            "time": 16,
            "velocity": 0.25984251968503935
          },
          {
            "duration": 0.09999999999999787,
            "durationTicks": 96,
            "midi": 40,
            "name": "E2",
            "ticks": 15456,
            "time": 16.1,
            "velocity": 0.25984251968503935
          },
          {
            "duration": 0.09999999999999787,
            "durationTicks": 96,
            "midi": 35,
            "name": "B1",
            "ticks": 15456,
            "time": 16.1,
            "velocity": 0.25984251968503935
          },
          {
            "duration": 0.20000000000000284,
            "durationTicks": 192,
            "midi": 41,
            "name": "F2",
            "ticks": 15552,
            "time": 16.2,
            "velocity": 0.25984251968503935
          },
          {
            "duration": 0.10000000000000142,
            "durationTicks": 96,
            "midi": 43,
            "name": "G2",
            "ticks": 15552,
            "time": 16.2,
            "velocity": 0.25984251968503935
          },
          {
            "duration": 0.10000000000000142,
            "durationTicks": 96,
            "midi": 35,
            "name": "B1",
            "ticks": 15552,
            "time": 16.2,
            "velocity": 0.25984251968503935
          },
          {
            "duration": 0.10000000000000142,
            "durationTicks": 96,
            "midi": 35,
            "name": "B1",
            "ticks": 15648,
            "time": 16.3,
            "velocity": 0.25984251968503935
          },
          {
            "duration": 0.10000000000000142,
            "durationTicks": 96,
            "midi": 43,
            "name": "G2",
            "ticks": 15648,
            "time": 16.3,
            "velocity": 0.25984251968503935
          },
          {
            "duration": 0.1999999999999993,
            "durationTicks": 192,
            "midi": 38,
            "name": "D2",
            "ticks": 15744,
            "time": 16.400000000000002,
            "velocity": 0.25984251968503935
          },
          {
            "duration": 0.09999999999999787,
            "durationTicks": 96,
            "midi": 35,
            "name": "B1",
            "ticks": 15744,
            "time": 16.400000000000002,
            "velocity": 0.25984251968503935
          },
          {
            "duration": 0.1999999999999993,
            "durationTicks": 192,
            "midi": 40,
            "name": "E2",
            "ticks": 15744,
            "time": 16.400000000000002,
            "velocity": 0.25984251968503935
          },
          {
            "duration": 0.1999999999999993,
            "durationTicks": 192,
            "midi": 36,
            "name": "C2",
            "ticks": 15744,
            "time": 16.400000000000002,
            "velocity": 0.25984251968503935
          },
          {
            "duration": 0.10000000000000142,
            "durationTicks": 96,
            "midi": 35,
            "name": "B1",
            "ticks": 15840,
            "time": 16.5,
            "velocity": 0.25984251968503935
          },
          {
            "duration": 0.1999999999999993,
            "durationTicks": 192,
            "midi": 41,
            "name": "F2",
            "ticks": 15936,
            "time": 16.6,
            "velocity": 0.25984251968503935
          },
          {
            "duration": 0.09999999999999787,
            "durationTicks": 96,
            "midi": 35,
            "name": "B1",
            "ticks": 15936,
            "time": 16.6,
            "velocity": 0.25984251968503935
          },
          {
            "duration": 0.09999999999999787,
            "durationTicks": 96,
            "midi": 43,
            "name": "G2",
            "ticks": 15936,
            "time": 16.6,
            "velocity": 0.25984251968503935
          },
          {
            "duration": 0.10000000000000142,
            "durationTicks": 96,
            "midi": 35,
            "name": "B1",
            "ticks": 16032,
            "time": 16.7,
            "velocity": 0.25984251968503935
          },
          {
            "duration": 0.10000000000000142,
            "durationTicks": 96,
            "midi": 43,
            "name": "G2",
            "ticks": 16032,
            "time": 16.7,
            "velocity": 0.25984251968503935
          },
          {
            "duration": 0.10000000000000142,
            "durationTicks": 96,
            "midi": 40,
            "name": "E2",
            "ticks": 16128,
            "time": 16.8,
            "velocity": 0.25984251968503935
          },
          {
            "duration": 0.10000000000000142,
            "durationTicks": 96,
            "midi": 35,
            "name": "B1",
            "ticks": 16128,
            "time": 16.8,
            "velocity": 0.25984251968503935
          },
          {
            "duration": 0.1999999999999993,
            "durationTicks": 192,
            "midi": 36,
            "name": "C2",
            "ticks": 16128,
            "time": 16.8,
            "velocity": 0.25984251968503935
          },
          {
            "duration": 0.1999999999999993,
            "durationTicks": 192,
            "midi": 38,
            "name": "D2",
            "ticks": 16128,
            "time": 16.8,
            "velocity": 0.25984251968503935
          },
          {
            "duration": 0.09999999999999787,
            "durationTicks": 96,
            "midi": 35,
            "name": "B1",
            "ticks": 16224,
            "time": 16.900000000000002,
            "velocity": 0.25984251968503935
          },
          {
            "duration": 0.09999999999999787,
            "durationTicks": 96,
            "midi": 40,
            "name": "E2",
            "ticks": 16224,
            "time": 16.900000000000002,
            "velocity": 0.25984251968503935
          },
          {
            "duration": 0.1999999999999993,
            "durationTicks": 192,
            "midi": 41,
            "name": "F2",
            "ticks": 16320,
            "time": 17,
            "velocity": 0.25984251968503935
          },
          {
            "duration": 0.10000000000000142,
            "durationTicks": 96,
            "midi": 35,
            "name": "B1",
            "ticks": 16320,
            "time": 17,
            "velocity": 0.25984251968503935
          },
          {
            "duration": 0.10000000000000142,
            "durationTicks": 96,
            "midi": 43,
            "name": "G2",
            "ticks": 16320,
            "time": 17,
            "velocity": 0.25984251968503935
          },
          {
            "duration": 0.09999999999999787,
            "durationTicks": 96,
            "midi": 35,
            "name": "B1",
            "ticks": 16416,
            "time": 17.1,
            "velocity": 0.25984251968503935
          },
          {
            "duration": 0.09999999999999787,
            "durationTicks": 96,
            "midi": 43,
            "name": "G2",
            "ticks": 16416,
            "time": 17.1,
            "velocity": 0.25984251968503935
          },
          {
            "duration": 0.20000000000000284,
            "durationTicks": 192,
            "midi": 38,
            "name": "D2",
            "ticks": 16512,
            "time": 17.2,
            "velocity": 0.25984251968503935
          },
          {
            "duration": 0.10000000000000142,
            "durationTicks": 96,
            "midi": 35,
            "name": "B1",
            "ticks": 16512,
            "time": 17.2,
            "velocity": 0.25984251968503935
          },
          {
            "duration": 0.20000000000000284,
            "durationTicks": 192,
            "midi": 40,
            "name": "E2",
            "ticks": 16512,
            "time": 17.2,
            "velocity": 0.25984251968503935
          },
          {
            "duration": 0.20000000000000284,
            "durationTicks": 192,
            "midi": 36,
            "name": "C2",
            "ticks": 16512,
            "time": 17.2,
            "velocity": 0.25984251968503935
          },
          {
            "duration": 0.10000000000000142,
            "durationTicks": 96,
            "midi": 35,
            "name": "B1",
            "ticks": 16608,
            "time": 17.3,
            "velocity": 0.25984251968503935
          },
          {
            "duration": 0.09999999999999787,
            "durationTicks": 96,
            "midi": 43,
            "name": "G2",
            "ticks": 16704,
            "time": 17.400000000000002,
            "velocity": 0.25984251968503935
          },
          {
            "duration": 0.1999999999999993,
            "durationTicks": 192,
            "midi": 41,
            "name": "F2",
            "ticks": 16704,
            "time": 17.400000000000002,
            "velocity": 0.25984251968503935
          },
          {
            "duration": 0.09999999999999787,
            "durationTicks": 96,
            "midi": 35,
            "name": "B1",
            "ticks": 16704,
            "time": 17.400000000000002,
            "velocity": 0.25984251968503935
          },
          {
            "duration": 0.10000000000000142,
            "durationTicks": 96,
            "midi": 43,
            "name": "G2",
            "ticks": 16800,
            "time": 17.5,
            "velocity": 0.25984251968503935
          },
          {
            "duration": 0.10000000000000142,
            "durationTicks": 96,
            "midi": 35,
            "name": "B1",
            "ticks": 16800,
            "time": 17.5,
            "velocity": 0.25984251968503935
          },
          {
            "duration": 0.1999999999999993,
            "durationTicks": 192,
            "midi": 38,
            "name": "D2",
            "ticks": 16896,
            "time": 17.6,
            "velocity": 0.25984251968503935
          },
          {
            "duration": 0.09999999999999787,
            "durationTicks": 96,
            "midi": 35,
            "name": "B1",
            "ticks": 16896,
            "time": 17.6,
            "velocity": 0.25984251968503935
          },
          {
            "duration": 0.09999999999999787,
            "durationTicks": 96,
            "midi": 40,
            "name": "E2",
            "ticks": 16896,
            "time": 17.6,
            "velocity": 0.25984251968503935
          },
          {
            "duration": 0.1999999999999993,
            "durationTicks": 192,
            "midi": 36,
            "name": "C2",
            "ticks": 16896,
            "time": 17.6,
            "velocity": 0.25984251968503935
          },
          {
            "duration": 0.10000000000000142,
            "durationTicks": 96,
            "midi": 40,
            "name": "E2",
            "ticks": 16992,
            "time": 17.7,
            "velocity": 0.25984251968503935
          },
          {
            "duration": 0.10000000000000142,
            "durationTicks": 96,
            "midi": 35,
            "name": "B1",
            "ticks": 16992,
            "time": 17.7,
            "velocity": 0.25984251968503935
          },
          {
            "duration": 0.10000000000000142,
            "durationTicks": 96,
            "midi": 35,
            "name": "B1",
            "ticks": 17088,
            "time": 17.8,
            "velocity": 0.25984251968503935
          },
          {
            "duration": 0.10000000000000142,
            "durationTicks": 96,
            "midi": 43,
            "name": "G2",
            "ticks": 17088,
            "time": 17.8,
            "velocity": 0.25984251968503935
          },
          {
            "duration": 0.1999999999999993,
            "durationTicks": 192,
            "midi": 41,
            "name": "F2",
            "ticks": 17088,
            "time": 17.8,
            "velocity": 0.25984251968503935
          },
          {
            "duration": 0.09999999999999787,
            "durationTicks": 96,
            "midi": 43,
            "name": "G2",
            "ticks": 17184,
            "time": 17.900000000000002,
            "velocity": 0.25984251968503935
          },
          {
            "duration": 0.09999999999999787,
            "durationTicks": 96,
            "midi": 35,
            "name": "B1",
            "ticks": 17184,
            "time": 17.900000000000002,
            "velocity": 0.25984251968503935
          },
          {
            "duration": 0.1999999999999993,
            "durationTicks": 192,
            "midi": 40,
            "name": "E2",
            "ticks": 17280,
            "time": 18,
            "velocity": 0.25984251968503935
          },
          {
            "duration": 0.10000000000000142,
            "durationTicks": 96,
            "midi": 35,
            "name": "B1",
            "ticks": 17280,
            "time": 18,
            "velocity": 0.25984251968503935
          },
          {
            "duration": 0.1999999999999993,
            "durationTicks": 192,
            "midi": 38,
            "name": "D2",
            "ticks": 17280,
            "time": 18,
            "velocity": 0.25984251968503935
          },
          {
            "duration": 0.1999999999999993,
            "durationTicks": 192,
            "midi": 36,
            "name": "C2",
            "ticks": 17280,
            "time": 18,
            "velocity": 0.25984251968503935
          },
          {
            "duration": 0.09999999999999787,
            "durationTicks": 96,
            "midi": 35,
            "name": "B1",
            "ticks": 17376,
            "time": 18.1,
            "velocity": 0.25984251968503935
          },
          {
            "duration": 0.10000000000000142,
            "durationTicks": 96,
            "midi": 43,
            "name": "G2",
            "ticks": 17472,
            "time": 18.2,
            "velocity": 0.25984251968503935
          },
          {
            "duration": 0.10000000000000142,
            "durationTicks": 96,
            "midi": 35,
            "name": "B1",
            "ticks": 17472,
            "time": 18.2,
            "velocity": 0.25984251968503935
          },
          {
            "duration": 0.20000000000000284,
            "durationTicks": 192,
            "midi": 41,
            "name": "F2",
            "ticks": 17472,
            "time": 18.2,
            "velocity": 0.25984251968503935
          },
          {
            "duration": 0.10000000000000142,
            "durationTicks": 96,
            "midi": 43,
            "name": "G2",
            "ticks": 17568,
            "time": 18.3,
            "velocity": 0.25984251968503935
          },
          {
            "duration": 0.10000000000000142,
            "durationTicks": 96,
            "midi": 35,
            "name": "B1",
            "ticks": 17568,
            "time": 18.3,
            "velocity": 0.25984251968503935
          },
          {
            "duration": 0.1999999999999993,
            "durationTicks": 192,
            "midi": 36,
            "name": "C2",
            "ticks": 17664,
            "time": 18.400000000000002,
            "velocity": 0.25984251968503935
          },
          {
            "duration": 0.1999999999999993,
            "durationTicks": 192,
            "midi": 38,
            "name": "D2",
            "ticks": 17664,
            "time": 18.400000000000002,
            "velocity": 0.25984251968503935
          },
          {
            "duration": 0.09999999999999787,
            "durationTicks": 96,
            "midi": 35,
            "name": "B1",
            "ticks": 17664,
            "time": 18.400000000000002,
            "velocity": 0.25984251968503935
          },
          {
            "duration": 0.09999999999999787,
            "durationTicks": 96,
            "midi": 40,
            "name": "E2",
            "ticks": 17664,
            "time": 18.400000000000002,
            "velocity": 0.25984251968503935
          },
          {
            "duration": 0.10000000000000142,
            "durationTicks": 96,
            "midi": 35,
            "name": "B1",
            "ticks": 17760,
            "time": 18.5,
            "velocity": 0.25984251968503935
          },
          {
            "duration": 0.10000000000000142,
            "durationTicks": 96,
            "midi": 40,
            "name": "E2",
            "ticks": 17760,
            "time": 18.5,
            "velocity": 0.25984251968503935
          },
          {
            "duration": 0.09999999999999787,
            "durationTicks": 96,
            "midi": 43,
            "name": "G2",
            "ticks": 17856,
            "time": 18.6,
            "velocity": 0.25984251968503935
          },
          {
            "duration": 0.09999999999999787,
            "durationTicks": 96,
            "midi": 35,
            "name": "B1",
            "ticks": 17856,
            "time": 18.6,
            "velocity": 0.25984251968503935
          },
          {
            "duration": 0.1999999999999993,
            "durationTicks": 192,
            "midi": 41,
            "name": "F2",
            "ticks": 17856,
            "time": 18.6,
            "velocity": 0.25984251968503935
          },
          {
            "duration": 0.10000000000000142,
            "durationTicks": 96,
            "midi": 35,
            "name": "B1",
            "ticks": 17952,
            "time": 18.7,
            "velocity": 0.25984251968503935
          },
          {
            "duration": 0.10000000000000142,
            "durationTicks": 96,
            "midi": 43,
            "name": "G2",
            "ticks": 17952,
            "time": 18.7,
            "velocity": 0.25984251968503935
          },
          {
            "duration": 0.1999999999999993,
            "durationTicks": 192,
            "midi": 36,
            "name": "C2",
            "ticks": 18048,
            "time": 18.8,
            "velocity": 0.25984251968503935
          },
          {
            "duration": 0.1999999999999993,
            "durationTicks": 192,
            "midi": 40,
            "name": "E2",
            "ticks": 18048,
            "time": 18.8,
            "velocity": 0.25984251968503935
          },
          {
            "duration": 0.1999999999999993,
            "durationTicks": 192,
            "midi": 38,
            "name": "D2",
            "ticks": 18048,
            "time": 18.8,
            "velocity": 0.25984251968503935
          },
          {
            "duration": 0.10000000000000142,
            "durationTicks": 96,
            "midi": 35,
            "name": "B1",
            "ticks": 18048,
            "time": 18.8,
            "velocity": 0.25984251968503935
          },
          {
            "duration": 0.09999999999999787,
            "durationTicks": 96,
            "midi": 35,
            "name": "B1",
            "ticks": 18144,
            "time": 18.900000000000002,
            "velocity": 0.25984251968503935
          },
          {
            "duration": 0.10000000000000142,
            "durationTicks": 96,
            "midi": 35,
            "name": "B1",
            "ticks": 18240,
            "time": 19,
            "velocity": 0.25984251968503935
          },
          {
            "duration": 0.20000000000000284,
            "durationTicks": 192,
            "midi": 41,
            "name": "F2",
            "ticks": 18240,
            "time": 19,
            "velocity": 0.25984251968503935
          },
          {
            "duration": 0.10000000000000142,
            "durationTicks": 96,
            "midi": 43,
            "name": "G2",
            "ticks": 18240,
            "time": 19,
            "velocity": 0.25984251968503935
          },
          {
            "duration": 0.10000000000000142,
            "durationTicks": 96,
            "midi": 43,
            "name": "G2",
            "ticks": 18336,
            "time": 19.1,
            "velocity": 0.25984251968503935
          },
          {
            "duration": 0.10000000000000142,
            "durationTicks": 96,
            "midi": 35,
            "name": "B1",
            "ticks": 18336,
            "time": 19.1,
            "velocity": 0.25984251968503935
          },
          {
            "duration": 0.13333333333333286,
            "durationTicks": 128,
            "midi": 36,
            "name": "C2",
            "ticks": 18432,
            "time": 19.200000000000003,
            "velocity": 0.25984251968503935
          },
          {
            "duration": 0.13333333333333286,
            "durationTicks": 128,
            "midi": 35,
            "name": "B1",
            "ticks": 18432,
            "time": 19.200000000000003,
            "velocity": 0.25984251968503935
          },
          {
            "duration": 0.13333333333333286,
            "durationTicks": 128,
            "midi": 40,
            "name": "E2",
            "ticks": 18432,
            "time": 19.200000000000003,
            "velocity": 0.25984251968503935
          },
          {
            "duration": 0.13333333333333286,
            "durationTicks": 128,
            "midi": 43,
            "name": "G2",
            "ticks": 18432,
            "time": 19.200000000000003,
            "velocity": 0.25984251968503935
          },
          {
            "duration": 0.13333333333333286,
            "durationTicks": 128,
            "midi": 38,
            "name": "D2",
            "ticks": 18432,
            "time": 19.200000000000003,
            "velocity": 0.25984251968503935
          },
          {
            "duration": 0.13333333333333286,
            "durationTicks": 128,
            "midi": 38,
            "name": "D2",
            "ticks": 18688,
            "time": 19.46666666666667,
            "velocity": 0.25984251968503935
          },
          {
            "duration": 0.13333333333333286,
            "durationTicks": 128,
            "midi": 40,
            "name": "E2",
            "ticks": 18688,
            "time": 19.46666666666667,
            "velocity": 0.25984251968503935
          },
          {
            "duration": 0.13333333333333286,
            "durationTicks": 128,
            "midi": 40,
            "name": "E2",
            "ticks": 18944,
            "time": 19.733333333333334,
            "velocity": 0.25984251968503935
          },
          {
            "duration": 0.13333333333333286,
            "durationTicks": 128,
            "midi": 38,
            "name": "D2",
            "ticks": 18944,
            "time": 19.733333333333334,
            "velocity": 0.25984251968503935
          },
          {
            "duration": 0.1333333333333364,
            "durationTicks": 128,
            "midi": 35,
            "name": "B1",
            "ticks": 19200,
            "time": 20,
            "velocity": 0.25984251968503935
          },
          {
            "duration": 0.1333333333333364,
            "durationTicks": 128,
            "midi": 38,
            "name": "D2",
            "ticks": 19200,
            "time": 20,
            "velocity": 0.25984251968503935
          },
          {
            "duration": 0.1333333333333364,
            "durationTicks": 128,
            "midi": 38,
            "name": "D2",
            "ticks": 19456,
            "time": 20.266666666666666,
            "velocity": 0.25984251968503935
          },
          {
            "duration": 0.1333333333333364,
            "durationTicks": 128,
            "midi": 40,
            "name": "E2",
            "ticks": 19456,
            "time": 20.266666666666666,
            "velocity": 0.25984251968503935
          },
          {
            "duration": 0.13333333333333286,
            "durationTicks": 128,
            "midi": 40,
            "name": "E2",
            "ticks": 19712,
            "time": 20.533333333333335,
            "velocity": 0.25984251968503935
          },
          {
            "duration": 0.13333333333333286,
            "durationTicks": 128,
            "midi": 38,
            "name": "D2",
            "ticks": 19712,
            "time": 20.533333333333335,
            "velocity": 0.25984251968503935
          },
          {
            "duration": 0.1333333333333364,
            "durationTicks": 128,
            "midi": 40,
            "name": "E2",
            "ticks": 19968,
            "time": 20.8,
            "velocity": 0.25984251968503935
          },
          {
            "duration": 0.1333333333333364,
            "durationTicks": 128,
            "midi": 35,
            "name": "B1",
            "ticks": 19968,
            "time": 20.8,
            "velocity": 0.25984251968503935
          },
          {
            "duration": 0.1333333333333364,
            "durationTicks": 128,
            "midi": 36,
            "name": "C2",
            "ticks": 19968,
            "time": 20.8,
            "velocity": 0.25984251968503935
          },
          {
            "duration": 0.1333333333333364,
            "durationTicks": 128,
            "midi": 43,
            "name": "G2",
            "ticks": 19968,
            "time": 20.8,
            "velocity": 0.25984251968503935
          },
          {
            "duration": 0.1333333333333364,
            "durationTicks": 128,
            "midi": 38,
            "name": "D2",
            "ticks": 19968,
            "time": 20.8,
            "velocity": 0.25984251968503935
          },
          {
            "duration": 0.1333333333333364,
            "durationTicks": 128,
            "midi": 38,
            "name": "D2",
            "ticks": 20224,
            "time": 21.066666666666666,
            "velocity": 0.25984251968503935
          },
          {
            "duration": 0.1333333333333364,
            "durationTicks": 128,
            "midi": 40,
            "name": "E2",
            "ticks": 20224,
            "time": 21.066666666666666,
            "velocity": 0.25984251968503935
          },
          {
            "duration": 0.13333333333333286,
            "durationTicks": 128,
            "midi": 40,
            "name": "E2",
            "ticks": 20480,
            "time": 21.333333333333336,
            "velocity": 0.25984251968503935
          },
          {
            "duration": 0.13333333333333286,
            "durationTicks": 128,
            "midi": 38,
            "name": "D2",
            "ticks": 20480,
            "time": 21.333333333333336,
            "velocity": 0.25984251968503935
          },
          {
            "duration": 0.13333333333333286,
            "durationTicks": 128,
            "midi": 35,
            "name": "B1",
            "ticks": 20736,
            "time": 21.6,
            "velocity": 0.25984251968503935
          },
          {
            "duration": 0.13333333333333286,
            "durationTicks": 128,
            "midi": 38,
            "name": "D2",
            "ticks": 20736,
            "time": 21.6,
            "velocity": 0.25984251968503935
          },
          {
            "duration": 0.13333333333333286,
            "durationTicks": 128,
            "midi": 40,
            "name": "E2",
            "ticks": 20992,
            "time": 21.866666666666667,
            "velocity": 0.25984251968503935
          },
          {
            "duration": 0.13333333333333286,
            "durationTicks": 128,
            "midi": 38,
            "name": "D2",
            "ticks": 20992,
            "time": 21.866666666666667,
            "velocity": 0.25984251968503935
          },
          {
            "duration": 0.1333333333333293,
            "durationTicks": 128,
            "midi": 40,
            "name": "E2",
            "ticks": 21248,
            "time": 22.133333333333336,
            "velocity": 0.25984251968503935
          },
          {
            "duration": 0.1333333333333293,
            "durationTicks": 128,
            "midi": 38,
            "name": "D2",
            "ticks": 21248,
            "time": 22.133333333333336,
            "velocity": 0.25984251968503935
          },
          {
            "duration": 0.1999999999999993,
            "durationTicks": 192,
            "midi": 36,
            "name": "C2",
            "ticks": 21504,
            "time": 22.400000000000002,
            "velocity": 0.25984251968503935
          },
          {
            "duration": 0.09999999999999787,
            "durationTicks": 96,
            "midi": 40,
            "name": "E2",
            "ticks": 21504,
            "time": 22.400000000000002,
            "velocity": 0.25984251968503935
          },
          {
            "duration": 0.09999999999999787,
            "durationTicks": 96,
            "midi": 35,
            "name": "B1",
            "ticks": 21504,
            "time": 22.400000000000002,
            "velocity": 0.25984251968503935
          },
          {
            "duration": 0.1999999999999993,
            "durationTicks": 192,
            "midi": 38,
            "name": "D2",
            "ticks": 21504,
            "time": 22.400000000000002,
            "velocity": 0.25984251968503935
          },
          {
            "duration": 0.10000000000000142,
            "durationTicks": 96,
            "midi": 40,
            "name": "E2",
            "ticks": 21600,
            "time": 22.5,
            "velocity": 0.25984251968503935
          },
          {
            "duration": 0.10000000000000142,
            "durationTicks": 96,
            "midi": 35,
            "name": "B1",
            "ticks": 21600,
            "time": 22.5,
            "velocity": 0.25984251968503935
          },
          {
            "duration": 0.10000000000000142,
            "durationTicks": 96,
            "midi": 43,
            "name": "G2",
            "ticks": 21696,
            "time": 22.6,
            "velocity": 0.25984251968503935
          },
          {
            "duration": 0.10000000000000142,
            "durationTicks": 96,
            "midi": 35,
            "name": "B1",
            "ticks": 21696,
            "time": 22.6,
            "velocity": 0.25984251968503935
          },
          {
            "duration": 0.1999999999999993,
            "durationTicks": 192,
            "midi": 41,
            "name": "F2",
            "ticks": 21696,
            "time": 22.6,
            "velocity": 0.25984251968503935
          },
          {
            "duration": 0.09999999999999787,
            "durationTicks": 96,
            "midi": 43,
            "name": "G2",
            "ticks": 21792,
            "time": 22.700000000000003,
            "velocity": 0.25984251968503935
          },
          {
            "duration": 0.09999999999999787,
            "durationTicks": 96,
            "midi": 35,
            "name": "B1",
            "ticks": 21792,
            "time": 22.700000000000003,
            "velocity": 0.25984251968503935
          },
          {
            "duration": 0.1999999999999993,
            "durationTicks": 192,
            "midi": 40,
            "name": "E2",
            "ticks": 21888,
            "time": 22.8,
            "velocity": 0.25984251968503935
          },
          {
            "duration": 0.10000000000000142,
            "durationTicks": 96,
            "midi": 35,
            "name": "B1",
            "ticks": 21888,
            "time": 22.8,
            "velocity": 0.25984251968503935
          },
          {
            "duration": 0.1999999999999993,
            "durationTicks": 192,
            "midi": 36,
            "name": "C2",
            "ticks": 21888,
            "time": 22.8,
            "velocity": 0.25984251968503935
          },
          {
            "duration": 0.1999999999999993,
            "durationTicks": 192,
            "midi": 38,
            "name": "D2",
            "ticks": 21888,
            "time": 22.8,
            "velocity": 0.25984251968503935
          },
          {
            "duration": 0.09999999999999787,
            "durationTicks": 96,
            "midi": 35,
            "name": "B1",
            "ticks": 21984,
            "time": 22.900000000000002,
            "velocity": 0.25984251968503935
          },
          {
            "duration": 0.20000000000000284,
            "durationTicks": 192,
            "midi": 41,
            "name": "F2",
            "ticks": 22080,
            "time": 23,
            "velocity": 0.25984251968503935
          },
          {
            "duration": 0.10000000000000142,
            "durationTicks": 96,
            "midi": 35,
            "name": "B1",
            "ticks": 22080,
            "time": 23,
            "velocity": 0.25984251968503935
          },
          {
            "duration": 0.10000000000000142,
            "durationTicks": 96,
            "midi": 43,
            "name": "G2",
            "ticks": 22080,
            "time": 23,
            "velocity": 0.25984251968503935
          },
          {
            "duration": 0.10000000000000142,
            "durationTicks": 96,
            "midi": 43,
            "name": "G2",
            "ticks": 22176,
            "time": 23.1,
            "velocity": 0.25984251968503935
          },
          {
            "duration": 0.10000000000000142,
            "durationTicks": 96,
            "midi": 35,
            "name": "B1",
            "ticks": 22176,
            "time": 23.1,
            "velocity": 0.25984251968503935
          },
          {
            "duration": 0.09999999999999787,
            "durationTicks": 96,
            "midi": 35,
            "name": "B1",
            "ticks": 22272,
            "time": 23.200000000000003,
            "velocity": 0.25984251968503935
          },
          {
            "duration": 0.1999999999999993,
            "durationTicks": 192,
            "midi": 36,
            "name": "C2",
            "ticks": 22272,
            "time": 23.200000000000003,
            "velocity": 0.25984251968503935
          },
          {
            "duration": 0.09999999999999787,
            "durationTicks": 96,
            "midi": 40,
            "name": "E2",
            "ticks": 22272,
            "time": 23.200000000000003,
            "velocity": 0.25984251968503935
          },
          {
            "duration": 0.1999999999999993,
            "durationTicks": 192,
            "midi": 38,
            "name": "D2",
            "ticks": 22272,
            "time": 23.200000000000003,
            "velocity": 0.25984251968503935
          },
          {
            "duration": 0.10000000000000142,
            "durationTicks": 96,
            "midi": 40,
            "name": "E2",
            "ticks": 22368,
            "time": 23.3,
            "velocity": 0.25984251968503935
          },
          {
            "duration": 0.10000000000000142,
            "durationTicks": 96,
            "midi": 35,
            "name": "B1",
            "ticks": 22368,
            "time": 23.3,
            "velocity": 0.25984251968503935
          },
          {
            "duration": 0.09999999999999787,
            "durationTicks": 96,
            "midi": 43,
            "name": "G2",
            "ticks": 22464,
            "time": 23.400000000000002,
            "velocity": 0.25984251968503935
          },
          {
            "duration": 0.09999999999999787,
            "durationTicks": 96,
            "midi": 35,
            "name": "B1",
            "ticks": 22464,
            "time": 23.400000000000002,
            "velocity": 0.25984251968503935
          },
          {
            "duration": 0.1999999999999993,
            "durationTicks": 192,
            "midi": 41,
            "name": "F2",
            "ticks": 22464,
            "time": 23.400000000000002,
            "velocity": 0.25984251968503935
          },
          {
            "duration": 0.10000000000000142,
            "durationTicks": 96,
            "midi": 43,
            "name": "G2",
            "ticks": 22560,
            "time": 23.5,
            "velocity": 0.25984251968503935
          },
          {
            "duration": 0.10000000000000142,
            "durationTicks": 96,
            "midi": 35,
            "name": "B1",
            "ticks": 22560,
            "time": 23.5,
            "velocity": 0.25984251968503935
          },
          {
            "duration": 0.1999999999999993,
            "durationTicks": 192,
            "midi": 36,
            "name": "C2",
            "ticks": 22656,
            "time": 23.6,
            "velocity": 0.25984251968503935
          },
          {
            "duration": 0.10000000000000142,
            "durationTicks": 96,
            "midi": 35,
            "name": "B1",
            "ticks": 22656,
            "time": 23.6,
            "velocity": 0.25984251968503935
          },
          {
            "duration": 0.1999999999999993,
            "durationTicks": 192,
            "midi": 38,
            "name": "D2",
            "ticks": 22656,
            "time": 23.6,
            "velocity": 0.25984251968503935
          },
          {
            "duration": 0.1999999999999993,
            "durationTicks": 192,
            "midi": 40,
            "name": "E2",
            "ticks": 22656,
            "time": 23.6,
            "velocity": 0.25984251968503935
          },
          {
            "duration": 0.09999999999999787,
            "durationTicks": 96,
            "midi": 35,
            "name": "B1",
            "ticks": 22752,
            "time": 23.700000000000003,
            "velocity": 0.25984251968503935
          },
          {
            "duration": 0.10000000000000142,
            "durationTicks": 96,
            "midi": 43,
            "name": "G2",
            "ticks": 22848,
            "time": 23.8,
            "velocity": 0.25984251968503935
          },
          {
            "duration": 0.1999999999999993,
            "durationTicks": 192,
            "midi": 41,
            "name": "F2",
            "ticks": 22848,
            "time": 23.8,
            "velocity": 0.25984251968503935
          },
          {
            "duration": 0.10000000000000142,
            "durationTicks": 96,
            "midi": 35,
            "name": "B1",
            "ticks": 22848,
            "time": 23.8,
            "velocity": 0.25984251968503935
          },
          {
            "duration": 0.09999999999999787,
            "durationTicks": 96,
            "midi": 35,
            "name": "B1",
            "ticks": 22944,
            "time": 23.900000000000002,
            "velocity": 0.25984251968503935
          },
          {
            "duration": 0.09999999999999787,
            "durationTicks": 96,
            "midi": 43,
            "name": "G2",
            "ticks": 22944,
            "time": 23.900000000000002,
            "velocity": 0.25984251968503935
          },
          {
            "duration": 0.20000000000000284,
            "durationTicks": 192,
            "midi": 38,
            "name": "D2",
            "ticks": 23040,
            "time": 24,
            "velocity": 0.25984251968503935
          },
          {
            "duration": 0.20000000000000284,
            "durationTicks": 192,
            "midi": 36,
            "name": "C2",
            "ticks": 23040,
            "time": 24,
            "velocity": 0.25984251968503935
          },
          {
            "duration": 0.10000000000000142,
            "durationTicks": 96,
            "midi": 40,
            "name": "E2",
            "ticks": 23040,
            "time": 24,
            "velocity": 0.25984251968503935
          },
          {
            "duration": 0.10000000000000142,
            "durationTicks": 96,
            "midi": 35,
            "name": "B1",
            "ticks": 23040,
            "time": 24,
            "velocity": 0.25984251968503935
          },
          {
            "duration": 0.10000000000000142,
            "durationTicks": 96,
            "midi": 40,
            "name": "E2",
            "ticks": 23136,
            "time": 24.1,
            "velocity": 0.25984251968503935
          },
          {
            "duration": 0.10000000000000142,
            "durationTicks": 96,
            "midi": 35,
            "name": "B1",
            "ticks": 23136,
            "time": 24.1,
            "velocity": 0.25984251968503935
          },
          {
            "duration": 0.1999999999999993,
            "durationTicks": 192,
            "midi": 41,
            "name": "F2",
            "ticks": 23232,
            "time": 24.200000000000003,
            "velocity": 0.25984251968503935
          },
          {
            "duration": 0.09999999999999787,
            "durationTicks": 96,
            "midi": 35,
            "name": "B1",
            "ticks": 23232,
            "time": 24.200000000000003,
            "velocity": 0.25984251968503935
          },
          {
            "duration": 0.09999999999999787,
            "durationTicks": 96,
            "midi": 43,
            "name": "G2",
            "ticks": 23232,
            "time": 24.200000000000003,
            "velocity": 0.25984251968503935
          },
          {
            "duration": 0.10000000000000142,
            "durationTicks": 96,
            "midi": 35,
            "name": "B1",
            "ticks": 23328,
            "time": 24.3,
            "velocity": 0.25984251968503935
          },
          {
            "duration": 0.10000000000000142,
            "durationTicks": 96,
            "midi": 43,
            "name": "G2",
            "ticks": 23328,
            "time": 24.3,
            "velocity": 0.25984251968503935
          },
          {
            "duration": 0.1999999999999993,
            "durationTicks": 192,
            "midi": 36,
            "name": "C2",
            "ticks": 23424,
            "time": 24.400000000000002,
            "velocity": 0.25984251968503935
          },
          {
            "duration": 0.1999999999999993,
            "durationTicks": 192,
            "midi": 40,
            "name": "E2",
            "ticks": 23424,
            "time": 24.400000000000002,
            "velocity": 0.25984251968503935
          },
          {
            "duration": 0.1999999999999993,
            "durationTicks": 192,
            "midi": 38,
            "name": "D2",
            "ticks": 23424,
            "time": 24.400000000000002,
            "velocity": 0.25984251968503935
          },
          {
            "duration": 0.09999999999999787,
            "durationTicks": 96,
            "midi": 35,
            "name": "B1",
            "ticks": 23424,
            "time": 24.400000000000002,
            "velocity": 0.25984251968503935
          },
          {
            "duration": 0.10000000000000142,
            "durationTicks": 96,
            "midi": 35,
            "name": "B1",
            "ticks": 23520,
            "time": 24.5,
            "velocity": 0.25984251968503935
          },
          {
            "duration": 0.10000000000000142,
            "durationTicks": 96,
            "midi": 43,
            "name": "G2",
            "ticks": 23616,
            "time": 24.6,
            "velocity": 0.25984251968503935
          },
          {
            "duration": 0.10000000000000142,
            "durationTicks": 96,
            "midi": 35,
            "name": "B1",
            "ticks": 23616,
            "time": 24.6,
            "velocity": 0.25984251968503935
          },
          {
            "duration": 0.1999999999999993,
            "durationTicks": 192,
            "midi": 41,
            "name": "F2",
            "ticks": 23616,
            "time": 24.6,
            "velocity": 0.25984251968503935
          },
          {
            "duration": 0.09999999999999787,
            "durationTicks": 96,
            "midi": 43,
            "name": "G2",
            "ticks": 23712,
            "time": 24.700000000000003,
            "velocity": 0.25984251968503935
          },
          {
            "duration": 0.09999999999999787,
            "durationTicks": 96,
            "midi": 35,
            "name": "B1",
            "ticks": 23712,
            "time": 24.700000000000003,
            "velocity": 0.25984251968503935
          },
          {
            "duration": 0.10000000000000142,
            "durationTicks": 96,
            "midi": 35,
            "name": "B1",
            "ticks": 23808,
            "time": 24.8,
            "velocity": 0.25984251968503935
          },
          {
            "duration": 0.1999999999999993,
            "durationTicks": 192,
            "midi": 38,
            "name": "D2",
            "ticks": 23808,
            "time": 24.8,
            "velocity": 0.25984251968503935
          },
          {
            "duration": 0.10000000000000142,
            "durationTicks": 96,
            "midi": 40,
            "name": "E2",
            "ticks": 23808,
            "time": 24.8,
            "velocity": 0.25984251968503935
          },
          {
            "duration": 0.1999999999999993,
            "durationTicks": 192,
            "midi": 36,
            "name": "C2",
            "ticks": 23808,
            "time": 24.8,
            "velocity": 0.25984251968503935
          },
          {
            "duration": 0.09999999999999787,
            "durationTicks": 96,
            "midi": 40,
            "name": "E2",
            "ticks": 23904,
            "time": 24.900000000000002,
            "velocity": 0.25984251968503935
          },
          {
            "duration": 0.09999999999999787,
            "durationTicks": 96,
            "midi": 35,
            "name": "B1",
            "ticks": 23904,
            "time": 24.900000000000002,
            "velocity": 0.25984251968503935
          },
          {
            "duration": 0.10000000000000142,
            "durationTicks": 96,
            "midi": 35,
            "name": "B1",
            "ticks": 24000,
            "time": 25,
            "velocity": 0.25984251968503935
          },
          {
            "duration": 0.10000000000000142,
            "durationTicks": 96,
            "midi": 43,
            "name": "G2",
            "ticks": 24000,
            "time": 25,
            "velocity": 0.25984251968503935
          },
          {
            "duration": 0.20000000000000284,
            "durationTicks": 192,
            "midi": 41,
            "name": "F2",
            "ticks": 24000,
            "time": 25,
            "velocity": 0.25984251968503935
          },
          {
            "duration": 0.10000000000000142,
            "durationTicks": 96,
            "midi": 43,
            "name": "G2",
            "ticks": 24096,
            "time": 25.1,
            "velocity": 0.25984251968503935
          },
          {
            "duration": 0.10000000000000142,
            "durationTicks": 96,
            "midi": 35,
            "name": "B1",
            "ticks": 24096,
            "time": 25.1,
            "velocity": 0.25984251968503935
          },
          {
            "duration": 0.1999999999999993,
            "durationTicks": 192,
            "midi": 40,
            "name": "E2",
            "ticks": 24192,
            "time": 25.200000000000003,
            "velocity": 0.25984251968503935
          },
          {
            "duration": 0.09999999999999787,
            "durationTicks": 96,
            "midi": 35,
            "name": "B1",
            "ticks": 24192,
            "time": 25.200000000000003,
            "velocity": 0.25984251968503935
          },
          {
            "duration": 0.1999999999999993,
            "durationTicks": 192,
            "midi": 36,
            "name": "C2",
            "ticks": 24192,
            "time": 25.200000000000003,
            "velocity": 0.25984251968503935
          },
          {
            "duration": 0.1999999999999993,
            "durationTicks": 192,
            "midi": 38,
            "name": "D2",
            "ticks": 24192,
            "time": 25.200000000000003,
            "velocity": 0.25984251968503935
          },
          {
            "duration": 0.10000000000000142,
            "durationTicks": 96,
            "midi": 35,
            "name": "B1",
            "ticks": 24288,
            "time": 25.3,
            "velocity": 0.25984251968503935
          },
          {
            "duration": 0.09999999999999787,
            "durationTicks": 96,
            "midi": 35,
            "name": "B1",
            "ticks": 24384,
            "time": 25.400000000000002,
            "velocity": 0.25984251968503935
          },
          {
            "duration": 0.1999999999999993,
            "durationTicks": 192,
            "midi": 41,
            "name": "F2",
            "ticks": 24384,
            "time": 25.400000000000002,
            "velocity": 0.25984251968503935
          },
          {
            "duration": 0.09999999999999787,
            "durationTicks": 96,
            "midi": 43,
            "name": "G2",
            "ticks": 24384,
            "time": 25.400000000000002,
            "velocity": 0.25984251968503935
          },
          {
            "duration": 0.10000000000000142,
            "durationTicks": 96,
            "midi": 43,
            "name": "G2",
            "ticks": 24480,
            "time": 25.5,
            "velocity": 0.25984251968503935
          },
          {
            "duration": 0.10000000000000142,
            "durationTicks": 96,
            "midi": 35,
            "name": "B1",
            "ticks": 24480,
            "time": 25.5,
            "velocity": 0.25984251968503935
          },
          {
            "duration": 0.13333333333333286,
            "durationTicks": 128,
            "midi": 40,
            "name": "E2",
            "ticks": 24576,
            "time": 25.6,
            "velocity": 0.25984251968503935
          },
          {
            "duration": 0.13333333333333286,
            "durationTicks": 128,
            "midi": 38,
            "name": "D2",
            "ticks": 24576,
            "time": 25.6,
            "velocity": 0.25984251968503935
          },
          {
            "duration": 0.1333333333333293,
            "durationTicks": 128,
            "midi": 38,
            "name": "D2",
            "ticks": 24832,
            "time": 25.86666666666667,
            "velocity": 0.25984251968503935
          },
          {
            "duration": 0.1333333333333293,
            "durationTicks": 128,
            "midi": 40,
            "name": "E2",
            "ticks": 24832,
            "time": 25.86666666666667,
            "velocity": 0.25984251968503935
          },
          {
            "duration": 0.1333333333333364,
            "durationTicks": 128,
            "midi": 40,
            "name": "E2",
            "ticks": 25088,
            "time": 26.133333333333333,
            "velocity": 0.25984251968503935
          },
          {
            "duration": 0.1333333333333364,
            "durationTicks": 128,
            "midi": 38,
            "name": "D2",
            "ticks": 25088,
            "time": 26.133333333333333,
            "velocity": 0.25984251968503935
          },
          {
            "duration": 0.1333333333333293,
            "durationTicks": 128,
            "midi": 38,
            "name": "D2",
            "ticks": 25344,
            "time": 26.400000000000002,
            "velocity": 0.25984251968503935
          },
          {
            "duration": 0.1333333333333293,
            "durationTicks": 128,
            "midi": 43,
            "name": "G2",
            "ticks": 25344,
            "time": 26.400000000000002,
            "velocity": 0.25984251968503935
          },
          {
            "duration": 0.1333333333333293,
            "durationTicks": 128,
            "midi": 38,
            "name": "D2",
            "ticks": 25600,
            "time": 26.66666666666667,
            "velocity": 0.25984251968503935
          },
          {
            "duration": 0.1333333333333293,
            "durationTicks": 128,
            "midi": 43,
            "name": "G2",
            "ticks": 25600,
            "time": 26.66666666666667,
            "velocity": 0.25984251968503935
          },
          {
            "duration": 0.1333333333333364,
            "durationTicks": 128,
            "midi": 43,
            "name": "G2",
            "ticks": 25856,
            "time": 26.933333333333334,
            "velocity": 0.25984251968503935
          },
          {
            "duration": 0.1333333333333364,
            "durationTicks": 128,
            "midi": 38,
            "name": "D2",
            "ticks": 25856,
            "time": 26.933333333333334,
            "velocity": 0.25984251968503935
          },
          {
            "duration": 0.1333333333333293,
            "durationTicks": 128,
            "midi": 35,
            "name": "B1",
            "ticks": 26112,
            "time": 27.200000000000003,
            "velocity": 0.25984251968503935
          },
          {
            "duration": 0.1333333333333293,
            "durationTicks": 128,
            "midi": 38,
            "name": "D2",
            "ticks": 26112,
            "time": 27.200000000000003,
            "velocity": 0.25984251968503935
          },
          {
            "duration": 0.13333333333333286,
            "durationTicks": 128,
            "midi": 35,
            "name": "B1",
            "ticks": 26368,
            "time": 27.46666666666667,
            "velocity": 0.25984251968503935
          },
          {
            "duration": 0.13333333333333286,
            "durationTicks": 128,
            "midi": 38,
            "name": "D2",
            "ticks": 26368,
            "time": 27.46666666666667,
            "velocity": 0.25984251968503935
          },
          {
            "duration": 0.1333333333333364,
            "durationTicks": 128,
            "midi": 38,
            "name": "D2",
            "ticks": 26624,
            "time": 27.733333333333334,
            "velocity": 0.25984251968503935
          },
          {
            "duration": 0.1333333333333364,
            "durationTicks": 128,
            "midi": 35,
            "name": "B1",
            "ticks": 26624,
            "time": 27.733333333333334,
            "velocity": 0.25984251968503935
          },
          {
            "duration": 0.13333333333333286,
            "durationTicks": 128,
            "midi": 40,
            "name": "E2",
            "ticks": 26880,
            "time": 28,
            "velocity": 0.25984251968503935
          },
          {
            "duration": 0.13333333333333286,
            "durationTicks": 128,
            "midi": 35,
            "name": "B1",
            "ticks": 26880,
            "time": 28,
            "velocity": 0.25984251968503935
          },
          {
            "duration": 0.1333333333333364,
            "durationTicks": 128,
            "midi": 38,
            "name": "D2",
            "ticks": 27008,
            "time": 28.133333333333333,
            "velocity": 0.25984251968503935
          },
          {
            "duration": 0.13333333333333286,
            "durationTicks": 128,
            "midi": 38,
            "name": "D2",
            "ticks": 27136,
            "time": 28.26666666666667,
            "velocity": 0.25984251968503935
          },
          {
            "duration": 0.13333333333333286,
            "durationTicks": 128,
            "midi": 35,
            "name": "B1",
            "ticks": 27136,
            "time": 28.26666666666667,
            "velocity": 0.25984251968503935
          },
          {
            "duration": 0.13333333333333286,
            "durationTicks": 128,
            "midi": 40,
            "name": "E2",
            "ticks": 27136,
            "time": 28.26666666666667,
            "velocity": 0.25984251968503935
          },
          {
            "duration": 0.1333333333333293,
            "durationTicks": 128,
            "midi": 38,
            "name": "D2",
            "ticks": 27264,
            "time": 28.400000000000002,
            "velocity": 0.25984251968503935
          },
          {
            "duration": 0.13333333333333997,
            "durationTicks": 128,
            "midi": 38,
            "name": "D2",
            "ticks": 27392,
            "time": 28.53333333333333,
            "velocity": 0.25984251968503935
          },
          {
            "duration": 0.13333333333333997,
            "durationTicks": 128,
            "midi": 40,
            "name": "E2",
            "ticks": 27392,
            "time": 28.53333333333333,
            "velocity": 0.25984251968503935
          },
          {
            "duration": 0.13333333333333997,
            "durationTicks": 128,
            "midi": 35,
            "name": "B1",
            "ticks": 27392,
            "time": 28.53333333333333,
            "velocity": 0.25984251968503935
          },
          {
            "duration": 0.1333333333333293,
            "durationTicks": 128,
            "midi": 38,
            "name": "D2",
            "ticks": 27520,
            "time": 28.66666666666667,
            "velocity": 0.25984251968503935
          },
          {
            "duration": 0.10000000000000142,
            "durationTicks": 96,
            "midi": 35,
            "name": "B1",
            "ticks": 27648,
            "time": 28.8,
            "velocity": 0.25984251968503935
          },
          {
            "duration": 0.1999999999999993,
            "durationTicks": 192,
            "midi": 38,
            "name": "D2",
            "ticks": 27648,
            "time": 28.8,
            "velocity": 0.25984251968503935
          },
          {
            "duration": 0.10000000000000142,
            "durationTicks": 96,
            "midi": 40,
            "name": "E2",
            "ticks": 27648,
            "time": 28.8,
            "velocity": 0.25984251968503935
          },
          {
            "duration": 0.1999999999999993,
            "durationTicks": 192,
            "midi": 36,
            "name": "C2",
            "ticks": 27648,
            "time": 28.8,
            "velocity": 0.25984251968503935
          },
          {
            "duration": 0.09999999999999787,
            "durationTicks": 96,
            "midi": 40,
            "name": "E2",
            "ticks": 27744,
            "time": 28.900000000000002,
            "velocity": 0.25984251968503935
          },
          {
            "duration": 0.09999999999999787,
            "durationTicks": 96,
            "midi": 35,
            "name": "B1",
            "ticks": 27744,
            "time": 28.900000000000002,
            "velocity": 0.25984251968503935
          },
          {
            "duration": 0.10000000000000142,
            "durationTicks": 96,
            "midi": 35,
            "name": "B1",
            "ticks": 27840,
            "time": 29,
            "velocity": 0.25984251968503935
          },
          {
            "duration": 0.20000000000000284,
            "durationTicks": 192,
            "midi": 41,
            "name": "F2",
            "ticks": 27840,
            "time": 29,
            "velocity": 0.25984251968503935
          },
          {
            "duration": 0.10000000000000142,
            "durationTicks": 96,
            "midi": 43,
            "name": "G2",
            "ticks": 27840,
            "time": 29,
            "velocity": 0.25984251968503935
          },
          {
            "duration": 0.10000000000000142,
            "durationTicks": 96,
            "midi": 35,
            "name": "B1",
            "ticks": 27936,
            "time": 29.1,
            "velocity": 0.25984251968503935
          },
          {
            "duration": 0.10000000000000142,
            "durationTicks": 96,
            "midi": 43,
            "name": "G2",
            "ticks": 27936,
            "time": 29.1,
            "velocity": 0.25984251968503935
          },
          {
            "duration": 0.1999999999999993,
            "durationTicks": 192,
            "midi": 38,
            "name": "D2",
            "ticks": 28032,
            "time": 29.200000000000003,
            "velocity": 0.25984251968503935
          },
          {
            "duration": 0.1999999999999993,
            "durationTicks": 192,
            "midi": 40,
            "name": "E2",
            "ticks": 28032,
            "time": 29.200000000000003,
            "velocity": 0.25984251968503935
          },
          {
            "duration": 0.09999999999999787,
            "durationTicks": 96,
            "midi": 35,
            "name": "B1",
            "ticks": 28032,
            "time": 29.200000000000003,
            "velocity": 0.25984251968503935
          },
          {
            "duration": 0.1999999999999993,
            "durationTicks": 192,
            "midi": 36,
            "name": "C2",
            "ticks": 28032,
            "time": 29.200000000000003,
            "velocity": 0.25984251968503935
          },
          {
            "duration": 0.10000000000000142,
            "durationTicks": 96,
            "midi": 35,
            "name": "B1",
            "ticks": 28128,
            "time": 29.3,
            "velocity": 0.25984251968503935
          },
          {
            "duration": 0.09999999999999787,
            "durationTicks": 96,
            "midi": 35,
            "name": "B1",
            "ticks": 28224,
            "time": 29.400000000000002,
            "velocity": 0.25984251968503935
          },
          {
            "duration": 0.09999999999999787,
            "durationTicks": 96,
            "midi": 43,
            "name": "G2",
            "ticks": 28224,
            "time": 29.400000000000002,
            "velocity": 0.25984251968503935
          },
          {
            "duration": 0.1999999999999993,
            "durationTicks": 192,
            "midi": 41,
            "name": "F2",
            "ticks": 28224,
            "time": 29.400000000000002,
            "velocity": 0.25984251968503935
          },
          {
            "duration": 0.10000000000000142,
            "durationTicks": 96,
            "midi": 35,
            "name": "B1",
            "ticks": 28320,
            "time": 29.5,
            "velocity": 0.25984251968503935
          },
          {
            "duration": 0.10000000000000142,
            "durationTicks": 96,
            "midi": 43,
            "name": "G2",
            "ticks": 28320,
            "time": 29.5,
            "velocity": 0.25984251968503935
          },
          {
            "duration": 0.1999999999999993,
            "durationTicks": 192,
            "midi": 36,
            "name": "C2",
            "ticks": 28416,
            "time": 29.6,
            "velocity": 0.25984251968503935
          },
          {
            "duration": 0.10000000000000142,
            "durationTicks": 96,
            "midi": 35,
            "name": "B1",
            "ticks": 28416,
            "time": 29.6,
            "velocity": 0.25984251968503935
          },
          {
            "duration": 0.10000000000000142,
            "durationTicks": 96,
            "midi": 40,
            "name": "E2",
            "ticks": 28416,
            "time": 29.6,
            "velocity": 0.25984251968503935
          },
          {
            "duration": 0.1999999999999993,
            "durationTicks": 192,
            "midi": 38,
            "name": "D2",
            "ticks": 28416,
            "time": 29.6,
            "velocity": 0.25984251968503935
          },
          {
            "duration": 0.09999999999999787,
            "durationTicks": 96,
            "midi": 40,
            "name": "E2",
            "ticks": 28512,
            "time": 29.700000000000003,
            "velocity": 0.25984251968503935
          },
          {
            "duration": 0.09999999999999787,
            "durationTicks": 96,
            "midi": 35,
            "name": "B1",
            "ticks": 28512,
            "time": 29.700000000000003,
            "velocity": 0.25984251968503935
          },
          {
            "duration": 0.10000000000000142,
            "durationTicks": 96,
            "midi": 43,
            "name": "G2",
            "ticks": 28608,
            "time": 29.8,
            "velocity": 0.25984251968503935
          },
          {
            "duration": 0.10000000000000142,
            "durationTicks": 96,
            "midi": 35,
            "name": "B1",
            "ticks": 28608,
            "time": 29.8,
            "velocity": 0.25984251968503935
          },
          {
            "duration": 0.1999999999999993,
            "durationTicks": 192,
            "midi": 41,
            "name": "F2",
            "ticks": 28608,
            "time": 29.8,
            "velocity": 0.25984251968503935
          },
          {
            "duration": 0.09999999999999787,
            "durationTicks": 96,
            "midi": 35,
            "name": "B1",
            "ticks": 28704,
            "time": 29.900000000000002,
            "velocity": 0.25984251968503935
          },
          {
            "duration": 0.09999999999999787,
            "durationTicks": 96,
            "midi": 43,
            "name": "G2",
            "ticks": 28704,
            "time": 29.900000000000002,
            "velocity": 0.25984251968503935
          },
          {
            "duration": 0.20000000000000284,
            "durationTicks": 192,
            "midi": 40,
            "name": "E2",
            "ticks": 28800,
            "time": 30,
            "velocity": 0.25984251968503935
          },
          {
            "duration": 0.20000000000000284,
            "durationTicks": 192,
            "midi": 36,
            "name": "C2",
            "ticks": 28800,
            "time": 30,
            "velocity": 0.25984251968503935
          },
          {
            "duration": 0.10000000000000142,
            "durationTicks": 96,
            "midi": 35,
            "name": "B1",
            "ticks": 28800,
            "time": 30,
            "velocity": 0.25984251968503935
          },
          {
            "duration": 0.20000000000000284,
            "durationTicks": 192,
            "midi": 38,
            "name": "D2",
            "ticks": 28800,
            "time": 30,
            "velocity": 0.25984251968503935
          },
          {
            "duration": 0.10000000000000142,
            "durationTicks": 96,
            "midi": 35,
            "name": "B1",
            "ticks": 28896,
            "time": 30.1,
            "velocity": 0.25984251968503935
          },
          {
            "duration": 0.1999999999999993,
            "durationTicks": 192,
            "midi": 41,
            "name": "F2",
            "ticks": 28992,
            "time": 30.200000000000003,
            "velocity": 0.25984251968503935
          },
          {
            "duration": 0.09999999999999787,
            "durationTicks": 96,
            "midi": 35,
            "name": "B1",
            "ticks": 28992,
            "time": 30.200000000000003,
            "velocity": 0.25984251968503935
          },
          {
            "duration": 0.09999999999999787,
            "durationTicks": 96,
            "midi": 43,
            "name": "G2",
            "ticks": 28992,
            "time": 30.200000000000003,
            "velocity": 0.25984251968503935
          },
          {
            "duration": 0.10000000000000142,
            "durationTicks": 96,
            "midi": 35,
            "name": "B1",
            "ticks": 29088,
            "time": 30.3,
            "velocity": 0.25984251968503935
          },
          {
            "duration": 0.10000000000000142,
            "durationTicks": 96,
            "midi": 43,
            "name": "G2",
            "ticks": 29088,
            "time": 30.3,
            "velocity": 0.25984251968503935
          },
          {
            "duration": 0.1999999999999993,
            "durationTicks": 192,
            "midi": 38,
            "name": "D2",
            "ticks": 29184,
            "time": 30.400000000000002,
            "velocity": 0.25984251968503935
          },
          {
            "duration": 0.09999999999999787,
            "durationTicks": 96,
            "midi": 40,
            "name": "E2",
            "ticks": 29184,
            "time": 30.400000000000002,
            "velocity": 0.25984251968503935
          },
          {
            "duration": 0.1999999999999993,
            "durationTicks": 192,
            "midi": 36,
            "name": "C2",
            "ticks": 29184,
            "time": 30.400000000000002,
            "velocity": 0.25984251968503935
          },
          {
            "duration": 0.09999999999999787,
            "durationTicks": 96,
            "midi": 35,
            "name": "B1",
            "ticks": 29184,
            "time": 30.400000000000002,
            "velocity": 0.25984251968503935
          },
          {
            "duration": 0.10000000000000142,
            "durationTicks": 96,
            "midi": 40,
            "name": "E2",
            "ticks": 29280,
            "time": 30.5,
            "velocity": 0.25984251968503935
          },
          {
            "duration": 0.10000000000000142,
            "durationTicks": 96,
            "midi": 35,
            "name": "B1",
            "ticks": 29280,
            "time": 30.5,
            "velocity": 0.25984251968503935
          },
          {
            "duration": 0.1999999999999993,
            "durationTicks": 192,
            "midi": 41,
            "name": "F2",
            "ticks": 29376,
            "time": 30.6,
            "velocity": 0.25984251968503935
          },
          {
            "duration": 0.10000000000000142,
            "durationTicks": 96,
            "midi": 43,
            "name": "G2",
            "ticks": 29376,
            "time": 30.6,
            "velocity": 0.25984251968503935
          },
          {
            "duration": 0.10000000000000142,
            "durationTicks": 96,
            "midi": 35,
            "name": "B1",
            "ticks": 29376,
            "time": 30.6,
            "velocity": 0.25984251968503935
          },
          {
            "duration": 0.09999999999999787,
            "durationTicks": 96,
            "midi": 35,
            "name": "B1",
            "ticks": 29472,
            "time": 30.700000000000003,
            "velocity": 0.25984251968503935
          },
          {
            "duration": 0.09999999999999787,
            "durationTicks": 96,
            "midi": 43,
            "name": "G2",
            "ticks": 29472,
            "time": 30.700000000000003,
            "velocity": 0.25984251968503935
          },
          {
            "duration": 0.1999999999999993,
            "durationTicks": 192,
            "midi": 36,
            "name": "C2",
            "ticks": 29568,
            "time": 30.8,
            "velocity": 0.25984251968503935
          },
          {
            "duration": 0.1999999999999993,
            "durationTicks": 192,
            "midi": 40,
            "name": "E2",
            "ticks": 29568,
            "time": 30.8,
            "velocity": 0.25984251968503935
          },
          {
            "duration": 0.10000000000000142,
            "durationTicks": 96,
            "midi": 35,
            "name": "B1",
            "ticks": 29568,
            "time": 30.8,
            "velocity": 0.25984251968503935
          },
          {
            "duration": 0.1999999999999993,
            "durationTicks": 192,
            "midi": 38,
            "name": "D2",
            "ticks": 29568,
            "time": 30.8,
            "velocity": 0.25984251968503935
          },
          {
            "duration": 0.09999999999999787,
            "durationTicks": 96,
            "midi": 35,
            "name": "B1",
            "ticks": 29664,
            "time": 30.900000000000002,
            "velocity": 0.25984251968503935
          },
          {
            "duration": 0.10000000000000142,
            "durationTicks": 96,
            "midi": 43,
            "name": "G2",
            "ticks": 29760,
            "time": 31,
            "velocity": 0.25984251968503935
          },
          {
            "duration": 0.20000000000000284,
            "durationTicks": 192,
            "midi": 41,
            "name": "F2",
            "ticks": 29760,
            "time": 31,
            "velocity": 0.25984251968503935
          },
          {
            "duration": 0.10000000000000142,
            "durationTicks": 96,
            "midi": 35,
            "name": "B1",
            "ticks": 29760,
            "time": 31,
            "velocity": 0.25984251968503935
          },
          {
            "duration": 0.10000000000000142,
            "durationTicks": 96,
            "midi": 35,
            "name": "B1",
            "ticks": 29856,
            "time": 31.1,
            "velocity": 0.25984251968503935
          },
          {
            "duration": 0.10000000000000142,
            "durationTicks": 96,
            "midi": 43,
            "name": "G2",
            "ticks": 29856,
            "time": 31.1,
            "velocity": 0.25984251968503935
          },
          {
            "duration": 0.1999999999999993,
            "durationTicks": 192,
            "midi": 36,
            "name": "C2",
            "ticks": 29952,
            "time": 31.200000000000003,
            "velocity": 0.25984251968503935
          },
          {
            "duration": 0.1999999999999993,
            "durationTicks": 192,
            "midi": 38,
            "name": "D2",
            "ticks": 29952,
            "time": 31.200000000000003,
            "velocity": 0.25984251968503935
          },
          {
            "duration": 0.09999999999999787,
            "durationTicks": 96,
            "midi": 35,
            "name": "B1",
            "ticks": 29952,
            "time": 31.200000000000003,
            "velocity": 0.25984251968503935
          },
          {
            "duration": 0.09999999999999787,
            "durationTicks": 96,
            "midi": 40,
            "name": "E2",
            "ticks": 29952,
            "time": 31.200000000000003,
            "velocity": 0.25984251968503935
          },
          {
            "duration": 0.10000000000000142,
            "durationTicks": 96,
            "midi": 35,
            "name": "B1",
            "ticks": 30048,
            "time": 31.3,
            "velocity": 0.25984251968503935
          },
          {
            "duration": 0.10000000000000142,
            "durationTicks": 96,
            "midi": 40,
            "name": "E2",
            "ticks": 30048,
            "time": 31.3,
            "velocity": 0.25984251968503935
          },
          {
            "duration": 0.09999999999999787,
            "durationTicks": 96,
            "midi": 43,
            "name": "G2",
            "ticks": 30144,
            "time": 31.400000000000002,
            "velocity": 0.25984251968503935
          },
          {
            "duration": 0.09999999999999787,
            "durationTicks": 96,
            "midi": 35,
            "name": "B1",
            "ticks": 30144,
            "time": 31.400000000000002,
            "velocity": 0.25984251968503935
          },
          {
            "duration": 0.1999999999999993,
            "durationTicks": 192,
            "midi": 41,
            "name": "F2",
            "ticks": 30144,
            "time": 31.400000000000002,
            "velocity": 0.25984251968503935
          },
          {
            "duration": 0.10000000000000142,
            "durationTicks": 96,
            "midi": 35,
            "name": "B1",
            "ticks": 30240,
            "time": 31.5,
            "velocity": 0.25984251968503935
          },
          {
            "duration": 0.10000000000000142,
            "durationTicks": 96,
            "midi": 43,
            "name": "G2",
            "ticks": 30240,
            "time": 31.5,
            "velocity": 0.25984251968503935
          },
          {
            "duration": 0.1999999999999993,
            "durationTicks": 192,
            "midi": 40,
            "name": "E2",
            "ticks": 30336,
            "time": 31.6,
            "velocity": 0.25984251968503935
          },
          {
            "duration": 0.1999999999999993,
            "durationTicks": 192,
            "midi": 38,
            "name": "D2",
            "ticks": 30336,
            "time": 31.6,
            "velocity": 0.25984251968503935
          },
          {
            "duration": 0.1999999999999993,
            "durationTicks": 192,
            "midi": 36,
            "name": "C2",
            "ticks": 30336,
            "time": 31.6,
            "velocity": 0.25984251968503935
          },
          {
            "duration": 0.10000000000000142,
            "durationTicks": 96,
            "midi": 35,
            "name": "B1",
            "ticks": 30336,
            "time": 31.6,
            "velocity": 0.25984251968503935
          },
          {
            "duration": 0.09999999999999787,
            "durationTicks": 96,
            "midi": 35,
            "name": "B1",
            "ticks": 30432,
            "time": 31.700000000000003,
            "velocity": 0.25984251968503935
          },
          {
            "duration": 0.1999999999999993,
            "durationTicks": 192,
            "midi": 41,
            "name": "F2",
            "ticks": 30528,
            "time": 31.8,
            "velocity": 0.25984251968503935
          },
          {
            "duration": 0.10000000000000142,
            "durationTicks": 96,
            "midi": 43,
            "name": "G2",
            "ticks": 30528,
            "time": 31.8,
            "velocity": 0.25984251968503935
          },
          {
            "duration": 0.10000000000000142,
            "durationTicks": 96,
            "midi": 35,
            "name": "B1",
            "ticks": 30528,
            "time": 31.8,
            "velocity": 0.25984251968503935
          },
          {
            "duration": 0.09999999999999787,
            "durationTicks": 96,
            "midi": 43,
            "name": "G2",
            "ticks": 30624,
            "time": 31.900000000000002,
            "velocity": 0.25984251968503935
          },
          {
            "duration": 0.09999999999999787,
            "durationTicks": 96,
            "midi": 35,
            "name": "B1",
            "ticks": 30624,
            "time": 31.900000000000002,
            "velocity": 0.25984251968503935
          },
          {
            "duration": 0.20000000000000284,
            "durationTicks": 192,
            "midi": 38,
            "name": "D2",
            "ticks": 30720,
            "time": 32,
            "velocity": 0.25984251968503935
          },
          {
            "duration": 0.10000000000000142,
            "durationTicks": 96,
            "midi": 40,
            "name": "E2",
            "ticks": 30720,
            "time": 32,
            "velocity": 0.25984251968503935
          },
          {
            "duration": 0.10000000000000142,
            "durationTicks": 96,
            "midi": 35,
            "name": "B1",
            "ticks": 30720,
            "time": 32,
            "velocity": 0.25984251968503935
          },
          {
            "duration": 0.20000000000000284,
            "durationTicks": 192,
            "midi": 36,
            "name": "C2",
            "ticks": 30720,
            "time": 32,
            "velocity": 0.25984251968503935
          },
          {
            "duration": 0.10000000000000142,
            "durationTicks": 96,
            "midi": 35,
            "name": "B1",
            "ticks": 30816,
            "time": 32.1,
            "velocity": 0.25984251968503935
          },
          {
            "duration": 0.10000000000000142,
            "durationTicks": 96,
            "midi": 40,
            "name": "E2",
            "ticks": 30816,
            "time": 32.1,
            "velocity": 0.25984251968503935
          },
          {
            "duration": 0.10000000000000142,
            "durationTicks": 96,
            "midi": 35,
            "name": "B1",
            "ticks": 30912,
            "time": 32.2,
            "velocity": 0.25984251968503935
          },
          {
            "duration": 0.10000000000000142,
            "durationTicks": 96,
            "midi": 43,
            "name": "G2",
            "ticks": 30912,
            "time": 32.2,
            "velocity": 0.25984251968503935
          },
          {
            "duration": 0.19999999999999574,
            "durationTicks": 192,
            "midi": 41,
            "name": "F2",
            "ticks": 30912,
            "time": 32.2,
            "velocity": 0.25984251968503935
          },
          {
            "duration": 0.09999999999999432,
            "durationTicks": 96,
            "midi": 43,
            "name": "G2",
            "ticks": 31008,
            "time": 32.300000000000004,
            "velocity": 0.25984251968503935
          },
          {
            "duration": 0.09999999999999432,
            "durationTicks": 96,
            "midi": 35,
            "name": "B1",
            "ticks": 31008,
            "time": 32.300000000000004,
            "velocity": 0.25984251968503935
          },
          {
            "duration": 0.20000000000000284,
            "durationTicks": 192,
            "midi": 40,
            "name": "E2",
            "ticks": 31104,
            "time": 32.4,
            "velocity": 0.25984251968503935
          },
          {
            "duration": 0.10000000000000142,
            "durationTicks": 96,
            "midi": 35,
            "name": "B1",
            "ticks": 31104,
            "time": 32.4,
            "velocity": 0.25984251968503935
          },
          {
            "duration": 0.20000000000000284,
            "durationTicks": 192,
            "midi": 36,
            "name": "C2",
            "ticks": 31104,
            "time": 32.4,
            "velocity": 0.25984251968503935
          },
          {
            "duration": 0.20000000000000284,
            "durationTicks": 192,
            "midi": 38,
            "name": "D2",
            "ticks": 31104,
            "time": 32.4,
            "velocity": 0.25984251968503935
          },
          {
            "duration": 0.10000000000000142,
            "durationTicks": 96,
            "midi": 35,
            "name": "B1",
            "ticks": 31200,
            "time": 32.5,
            "velocity": 0.25984251968503935
          },
          {
            "duration": 0.10000000000000142,
            "durationTicks": 96,
            "midi": 35,
            "name": "B1",
            "ticks": 31296,
            "time": 32.6,
            "velocity": 0.25984251968503935
          },
          {
            "duration": 0.20000000000000284,
            "durationTicks": 192,
            "midi": 41,
            "name": "F2",
            "ticks": 31296,
            "time": 32.6,
            "velocity": 0.25984251968503935
          },
          {
            "duration": 0.10000000000000142,
            "durationTicks": 96,
            "midi": 43,
            "name": "G2",
            "ticks": 31296,
            "time": 32.6,
            "velocity": 0.25984251968503935
          },
          {
            "duration": 0.10000000000000142,
            "durationTicks": 96,
            "midi": 43,
            "name": "G2",
            "ticks": 31392,
            "time": 32.7,
            "velocity": 0.25984251968503935
          },
          {
            "duration": 0.10000000000000142,
            "durationTicks": 96,
            "midi": 35,
            "name": "B1",
            "ticks": 31392,
            "time": 32.7,
            "velocity": 0.25984251968503935
          },
          {
            "duration": 0.09999999999999432,
            "durationTicks": 96,
            "midi": 35,
            "name": "B1",
            "ticks": 31488,
            "time": 32.800000000000004,
            "velocity": 0.25984251968503935
          },
          {
            "duration": 0.19999999999999574,
            "durationTicks": 192,
            "midi": 36,
            "name": "C2",
            "ticks": 31488,
            "time": 32.800000000000004,
            "velocity": 0.25984251968503935
          },
          {
            "duration": 0.19999999999999574,
            "durationTicks": 192,
            "midi": 38,
            "name": "D2",
            "ticks": 31488,
            "time": 32.800000000000004,
            "velocity": 0.25984251968503935
          },
          {
            "duration": 0.09999999999999432,
            "durationTicks": 96,
            "midi": 40,
            "name": "E2",
            "ticks": 31488,
            "time": 32.800000000000004,
            "velocity": 0.25984251968503935
          },
          {
            "duration": 0.10000000000000142,
            "durationTicks": 96,
            "midi": 35,
            "name": "B1",
            "ticks": 31584,
            "time": 32.9,
            "velocity": 0.25984251968503935
          },
          {
            "duration": 0.10000000000000142,
            "durationTicks": 96,
            "midi": 40,
            "name": "E2",
            "ticks": 31584,
            "time": 32.9,
            "velocity": 0.25984251968503935
          },
          {
            "duration": 0.20000000000000284,
            "durationTicks": 192,
            "midi": 41,
            "name": "F2",
            "ticks": 31680,
            "time": 33,
            "velocity": 0.25984251968503935
          },
          {
            "duration": 0.10000000000000142,
            "durationTicks": 96,
            "midi": 43,
            "name": "G2",
            "ticks": 31680,
            "time": 33,
            "velocity": 0.25984251968503935
          },
          {
            "duration": 0.10000000000000142,
            "durationTicks": 96,
            "midi": 35,
            "name": "B1",
            "ticks": 31680,
            "time": 33,
            "velocity": 0.25984251968503935
          },
          {
            "duration": 0.10000000000000142,
            "durationTicks": 96,
            "midi": 35,
            "name": "B1",
            "ticks": 31776,
            "time": 33.1,
            "velocity": 0.25984251968503935
          },
          {
            "duration": 0.10000000000000142,
            "durationTicks": 96,
            "midi": 43,
            "name": "G2",
            "ticks": 31776,
            "time": 33.1,
            "velocity": 0.25984251968503935
          },
          {
            "duration": 0.19999999999999574,
            "durationTicks": 192,
            "midi": 36,
            "name": "C2",
            "ticks": 31872,
            "time": 33.2,
            "velocity": 0.25984251968503935
          },
          {
            "duration": 0.19999999999999574,
            "durationTicks": 192,
            "midi": 40,
            "name": "E2",
            "ticks": 31872,
            "time": 33.2,
            "velocity": 0.25984251968503935
          },
          {
            "duration": 0.19999999999999574,
            "durationTicks": 192,
            "midi": 38,
            "name": "D2",
            "ticks": 31872,
            "time": 33.2,
            "velocity": 0.25984251968503935
          },
          {
            "duration": 0.10000000000000142,
            "durationTicks": 96,
            "midi": 35,
            "name": "B1",
            "ticks": 31872,
            "time": 33.2,
            "velocity": 0.25984251968503935
          },
          {
            "duration": 0.09999999999999432,
            "durationTicks": 96,
            "midi": 35,
            "name": "B1",
            "ticks": 31968,
            "time": 33.300000000000004,
            "velocity": 0.25984251968503935
          },
          {
            "duration": 0.20000000000000284,
            "durationTicks": 192,
            "midi": 41,
            "name": "F2",
            "ticks": 32064,
            "time": 33.4,
            "velocity": 0.25984251968503935
          },
          {
            "duration": 0.10000000000000142,
            "durationTicks": 96,
            "midi": 35,
            "name": "B1",
            "ticks": 32064,
            "time": 33.4,
            "velocity": 0.25984251968503935
          },
          {
            "duration": 0.10000000000000142,
            "durationTicks": 96,
            "midi": 43,
            "name": "G2",
            "ticks": 32064,
            "time": 33.4,
            "velocity": 0.25984251968503935
          },
          {
            "duration": 0.10000000000000142,
            "durationTicks": 96,
            "midi": 43,
            "name": "G2",
            "ticks": 32160,
            "time": 33.5,
            "velocity": 0.25984251968503935
          },
          {
            "duration": 0.10000000000000142,
            "durationTicks": 96,
            "midi": 35,
            "name": "B1",
            "ticks": 32160,
            "time": 33.5,
            "velocity": 0.25984251968503935
          },
          {
            "duration": 0.20000000000000284,
            "durationTicks": 192,
            "midi": 38,
            "name": "D2",
            "ticks": 32256,
            "time": 33.6,
            "velocity": 0.25984251968503935
          },
          {
            "duration": 0.10000000000000142,
            "durationTicks": 96,
            "midi": 35,
            "name": "B1",
            "ticks": 32256,
            "time": 33.6,
            "velocity": 0.25984251968503935
          },
          {
            "duration": 0.20000000000000284,
            "durationTicks": 192,
            "midi": 36,
            "name": "C2",
            "ticks": 32256,
            "time": 33.6,
            "velocity": 0.25984251968503935
          },
          {
            "duration": 0.10000000000000142,
            "durationTicks": 96,
            "midi": 40,
            "name": "E2",
            "ticks": 32256,
            "time": 33.6,
            "velocity": 0.25984251968503935
          },
          {
            "duration": 0.10000000000000142,
            "durationTicks": 96,
            "midi": 35,
            "name": "B1",
            "ticks": 32352,
            "time": 33.7,
            "velocity": 0.25984251968503935
          },
          {
            "duration": 0.10000000000000142,
            "durationTicks": 96,
            "midi": 40,
            "name": "E2",
            "ticks": 32352,
            "time": 33.7,
            "velocity": 0.25984251968503935
          },
          {
            "duration": 0.09999999999999432,
            "durationTicks": 96,
            "midi": 43,
            "name": "G2",
            "ticks": 32448,
            "time": 33.800000000000004,
            "velocity": 0.25984251968503935
          },
          {
            "duration": 0.19999999999999574,
            "durationTicks": 192,
            "midi": 41,
            "name": "F2",
            "ticks": 32448,
            "time": 33.800000000000004,
            "velocity": 0.25984251968503935
          },
          {
            "duration": 0.09999999999999432,
            "durationTicks": 96,
            "midi": 35,
            "name": "B1",
            "ticks": 32448,
            "time": 33.800000000000004,
            "velocity": 0.25984251968503935
          },
          {
            "duration": 0.10000000000000142,
            "durationTicks": 96,
            "midi": 43,
            "name": "G2",
            "ticks": 32544,
            "time": 33.9,
            "velocity": 0.25984251968503935
          },
          {
            "duration": 0.10000000000000142,
            "durationTicks": 96,
            "midi": 35,
            "name": "B1",
            "ticks": 32544,
            "time": 33.9,
            "velocity": 0.25984251968503935
          },
          {
            "duration": 0.20000000000000284,
            "durationTicks": 192,
            "midi": 38,
            "name": "D2",
            "ticks": 32640,
            "time": 34,
            "velocity": 0.25984251968503935
          },
          {
            "duration": 0.10000000000000142,
            "durationTicks": 96,
            "midi": 35,
            "name": "B1",
            "ticks": 32640,
            "time": 34,
            "velocity": 0.25984251968503935
          },
          {
            "duration": 0.20000000000000284,
            "durationTicks": 192,
            "midi": 40,
            "name": "E2",
            "ticks": 32640,
            "time": 34,
            "velocity": 0.25984251968503935
          },
          {
            "duration": 0.20000000000000284,
            "durationTicks": 192,
            "midi": 36,
            "name": "C2",
            "ticks": 32640,
            "time": 34,
            "velocity": 0.25984251968503935
          },
          {
            "duration": 0.10000000000000142,
            "durationTicks": 96,
            "midi": 35,
            "name": "B1",
            "ticks": 32736,
            "time": 34.1,
            "velocity": 0.25984251968503935
          },
          {
            "duration": 0.10000000000000142,
            "durationTicks": 96,
            "midi": 35,
            "name": "B1",
            "ticks": 32832,
            "time": 34.2,
            "velocity": 0.25984251968503935
          },
          {
            "duration": 0.10000000000000142,
            "durationTicks": 96,
            "midi": 43,
            "name": "G2",
            "ticks": 32832,
            "time": 34.2,
            "velocity": 0.25984251968503935
          },
          {
            "duration": 0.19999999999999574,
            "durationTicks": 192,
            "midi": 41,
            "name": "F2",
            "ticks": 32832,
            "time": 34.2,
            "velocity": 0.25984251968503935
          },
          {
            "duration": 0.09999999999999432,
            "durationTicks": 96,
            "midi": 35,
            "name": "B1",
            "ticks": 32928,
            "time": 34.300000000000004,
            "velocity": 0.25984251968503935
          },
          {
            "duration": 0.09999999999999432,
            "durationTicks": 96,
            "midi": 43,
            "name": "G2",
            "ticks": 32928,
            "time": 34.300000000000004,
            "velocity": 0.25984251968503935
          },
          {
            "duration": 0.20000000000000284,
            "durationTicks": 192,
            "midi": 38,
            "name": "D2",
            "ticks": 33024,
            "time": 34.4,
            "velocity": 0.25984251968503935
          },
          {
            "duration": 0.10000000000000142,
            "durationTicks": 96,
            "midi": 40,
            "name": "E2",
            "ticks": 33024,
            "time": 34.4,
            "velocity": 0.25984251968503935
          },
          {
            "duration": 0.10000000000000142,
            "durationTicks": 96,
            "midi": 35,
            "name": "B1",
            "ticks": 33024,
            "time": 34.4,
            "velocity": 0.25984251968503935
          },
          {
            "duration": 0.20000000000000284,
            "durationTicks": 192,
            "midi": 36,
            "name": "C2",
            "ticks": 33024,
            "time": 34.4,
            "velocity": 0.25984251968503935
          },
          {
            "duration": 0.10000000000000142,
            "durationTicks": 96,
            "midi": 35,
            "name": "B1",
            "ticks": 33120,
            "time": 34.5,
            "velocity": 0.25984251968503935
          },
          {
            "duration": 0.10000000000000142,
            "durationTicks": 96,
            "midi": 40,
            "name": "E2",
            "ticks": 33120,
            "time": 34.5,
            "velocity": 0.25984251968503935
          },
          {
            "duration": 0.10000000000000142,
            "durationTicks": 96,
            "midi": 43,
            "name": "G2",
            "ticks": 33216,
            "time": 34.6,
            "velocity": 0.25984251968503935
          },
          {
            "duration": 0.20000000000000284,
            "durationTicks": 192,
            "midi": 41,
            "name": "F2",
            "ticks": 33216,
            "time": 34.6,
            "velocity": 0.25984251968503935
          },
          {
            "duration": 0.10000000000000142,
            "durationTicks": 96,
            "midi": 35,
            "name": "B1",
            "ticks": 33216,
            "time": 34.6,
            "velocity": 0.25984251968503935
          },
          {
            "duration": 0.10000000000000142,
            "durationTicks": 96,
            "midi": 35,
            "name": "B1",
            "ticks": 33312,
            "time": 34.7,
            "velocity": 0.25984251968503935
          },
          {
            "duration": 0.10000000000000142,
            "durationTicks": 96,
            "midi": 43,
            "name": "G2",
            "ticks": 33312,
            "time": 34.7,
            "velocity": 0.25984251968503935
          },
          {
            "duration": 0.09999999999999432,
            "durationTicks": 96,
            "midi": 35,
            "name": "B1",
            "ticks": 33408,
            "time": 34.800000000000004,
            "velocity": 0.25984251968503935
          },
          {
            "duration": 0.19999999999999574,
            "durationTicks": 192,
            "midi": 38,
            "name": "D2",
            "ticks": 33408,
            "time": 34.800000000000004,
            "velocity": 0.25984251968503935
          },
          {
            "duration": 0.19999999999999574,
            "durationTicks": 192,
            "midi": 40,
            "name": "E2",
            "ticks": 33408,
            "time": 34.800000000000004,
            "velocity": 0.25984251968503935
          },
          {
            "duration": 0.19999999999999574,
            "durationTicks": 192,
            "midi": 36,
            "name": "C2",
            "ticks": 33408,
            "time": 34.800000000000004,
            "velocity": 0.25984251968503935
          },
          {
            "duration": 0.10000000000000142,
            "durationTicks": 96,
            "midi": 35,
            "name": "B1",
            "ticks": 33504,
            "time": 34.9,
            "velocity": 0.25984251968503935
          },
          {
            "duration": 0.10000000000000142,
            "durationTicks": 96,
            "midi": 35,
            "name": "B1",
            "ticks": 33600,
            "time": 35,
            "velocity": 0.25984251968503935
          },
          {
            "duration": 0.10000000000000142,
            "durationTicks": 96,
            "midi": 43,
            "name": "G2",
            "ticks": 33600,
            "time": 35,
            "velocity": 0.25984251968503935
          },
          {
            "duration": 0.20000000000000284,
            "durationTicks": 192,
            "midi": 41,
            "name": "F2",
            "ticks": 33600,
            "time": 35,
            "velocity": 0.25984251968503935
          },
          {
            "duration": 0.10000000000000142,
            "durationTicks": 96,
            "midi": 35,
            "name": "B1",
            "ticks": 33696,
            "time": 35.1,
            "velocity": 0.25984251968503935
          },
          {
            "duration": 0.10000000000000142,
            "durationTicks": 96,
            "midi": 43,
            "name": "G2",
            "ticks": 33696,
            "time": 35.1,
            "velocity": 0.25984251968503935
          },
          {
            "duration": 0.19999999999999574,
            "durationTicks": 192,
            "midi": 38,
            "name": "D2",
            "ticks": 33792,
            "time": 35.2,
            "velocity": 0.25984251968503935
          },
          {
            "duration": 0.10000000000000142,
            "durationTicks": 96,
            "midi": 40,
            "name": "E2",
            "ticks": 33792,
            "time": 35.2,
            "velocity": 0.25984251968503935
          },
          {
            "duration": 0.10000000000000142,
            "durationTicks": 96,
            "midi": 35,
            "name": "B1",
            "ticks": 33792,
            "time": 35.2,
            "velocity": 0.25984251968503935
          },
          {
            "duration": 0.19999999999999574,
            "durationTicks": 192,
            "midi": 36,
            "name": "C2",
            "ticks": 33792,
            "time": 35.2,
            "velocity": 0.25984251968503935
          },
          {
            "duration": 0.09999999999999432,
            "durationTicks": 96,
            "midi": 35,
            "name": "B1",
            "ticks": 33888,
            "time": 35.300000000000004,
            "velocity": 0.25984251968503935
          },
          {
            "duration": 0.09999999999999432,
            "durationTicks": 96,
            "midi": 40,
            "name": "E2",
            "ticks": 33888,
            "time": 35.300000000000004,
            "velocity": 0.25984251968503935
          },
          {
            "duration": 0.10000000000000142,
            "durationTicks": 96,
            "midi": 43,
            "name": "G2",
            "ticks": 33984,
            "time": 35.4,
            "velocity": 0.25984251968503935
          },
          {
            "duration": 0.20000000000000284,
            "durationTicks": 192,
            "midi": 41,
            "name": "F2",
            "ticks": 33984,
            "time": 35.4,
            "velocity": 0.25984251968503935
          },
          {
            "duration": 0.10000000000000142,
            "durationTicks": 96,
            "midi": 35,
            "name": "B1",
            "ticks": 33984,
            "time": 35.4,
            "velocity": 0.25984251968503935
          },
          {
            "duration": 0.10000000000000142,
            "durationTicks": 96,
            "midi": 35,
            "name": "B1",
            "ticks": 34080,
            "time": 35.5,
            "velocity": 0.25984251968503935
          },
          {
            "duration": 0.10000000000000142,
            "durationTicks": 96,
            "midi": 43,
            "name": "G2",
            "ticks": 34080,
            "time": 35.5,
            "velocity": 0.25984251968503935
          },
          {
            "duration": 0.20000000000000284,
            "durationTicks": 192,
            "midi": 40,
            "name": "E2",
            "ticks": 34176,
            "time": 35.6,
            "velocity": 0.25984251968503935
          },
          {
            "duration": 0.20000000000000284,
            "durationTicks": 192,
            "midi": 36,
            "name": "C2",
            "ticks": 34176,
            "time": 35.6,
            "velocity": 0.25984251968503935
          },
          {
            "duration": 0.10000000000000142,
            "durationTicks": 96,
            "midi": 35,
            "name": "B1",
            "ticks": 34176,
            "time": 35.6,
            "velocity": 0.25984251968503935
          },
          {
            "duration": 0.20000000000000284,
            "durationTicks": 192,
            "midi": 38,
            "name": "D2",
            "ticks": 34176,
            "time": 35.6,
            "velocity": 0.25984251968503935
          },
          {
            "duration": 0.10000000000000142,
            "durationTicks": 96,
            "midi": 35,
            "name": "B1",
            "ticks": 34272,
            "time": 35.7,
            "velocity": 0.25984251968503935
          },
          {
            "duration": 0.09999999999999432,
            "durationTicks": 96,
            "midi": 35,
            "name": "B1",
            "ticks": 34368,
            "time": 35.800000000000004,
            "velocity": 0.25984251968503935
          },
          {
            "duration": 0.09999999999999432,
            "durationTicks": 96,
            "midi": 43,
            "name": "G2",
            "ticks": 34368,
            "time": 35.800000000000004,
            "velocity": 0.25984251968503935
          },
          {
            "duration": 0.19999999999999574,
            "durationTicks": 192,
            "midi": 41,
            "name": "F2",
            "ticks": 34368,
            "time": 35.800000000000004,
            "velocity": 0.25984251968503935
          },
          {
            "duration": 0.10000000000000142,
            "durationTicks": 96,
            "midi": 35,
            "name": "B1",
            "ticks": 34464,
            "time": 35.9,
            "velocity": 0.25984251968503935
          },
          {
            "duration": 0.10000000000000142,
            "durationTicks": 96,
            "midi": 43,
            "name": "G2",
            "ticks": 34464,
            "time": 35.9,
            "velocity": 0.25984251968503935
          },
          {
            "duration": 0.20000000000000284,
            "durationTicks": 192,
            "midi": 38,
            "name": "D2",
            "ticks": 34560,
            "time": 36,
            "velocity": 0.25984251968503935
          },
          {
            "duration": 0.10000000000000142,
            "durationTicks": 96,
            "midi": 35,
            "name": "B1",
            "ticks": 34560,
            "time": 36,
            "velocity": 0.25984251968503935
          },
          {
            "duration": 0.10000000000000142,
            "durationTicks": 96,
            "midi": 40,
            "name": "E2",
            "ticks": 34560,
            "time": 36,
            "velocity": 0.25984251968503935
          },
          {
            "duration": 0.20000000000000284,
            "durationTicks": 192,
            "midi": 36,
            "name": "C2",
            "ticks": 34560,
            "time": 36,
            "velocity": 0.25984251968503935
          },
          {
            "duration": 0.10000000000000142,
            "durationTicks": 96,
            "midi": 40,
            "name": "E2",
            "ticks": 34656,
            "time": 36.1,
            "velocity": 0.25984251968503935
          },
          {
            "duration": 0.10000000000000142,
            "durationTicks": 96,
            "midi": 35,
            "name": "B1",
            "ticks": 34656,
            "time": 36.1,
            "velocity": 0.25984251968503935
          },
          {
            "duration": 0.10000000000000142,
            "durationTicks": 96,
            "midi": 43,
            "name": "G2",
            "ticks": 34752,
            "time": 36.2,
            "velocity": 0.25984251968503935
          },
          {
            "duration": 0.19999999999999574,
            "durationTicks": 192,
            "midi": 41,
            "name": "F2",
            "ticks": 34752,
            "time": 36.2,
            "velocity": 0.25984251968503935
          },
          {
            "duration": 0.10000000000000142,
            "durationTicks": 96,
            "midi": 35,
            "name": "B1",
            "ticks": 34752,
            "time": 36.2,
            "velocity": 0.25984251968503935
          },
          {
            "duration": 0.09999999999999432,
            "durationTicks": 96,
            "midi": 35,
            "name": "B1",
            "ticks": 34848,
            "time": 36.300000000000004,
            "velocity": 0.25984251968503935
          },
          {
            "duration": 0.09999999999999432,
            "durationTicks": 96,
            "midi": 43,
            "name": "G2",
            "ticks": 34848,
            "time": 36.300000000000004,
            "velocity": 0.25984251968503935
          },
          {
            "duration": 0.20000000000000284,
            "durationTicks": 192,
            "midi": 40,
            "name": "E2",
            "ticks": 34944,
            "time": 36.4,
            "velocity": 0.25984251968503935
          },
          {
            "duration": 0.10000000000000142,
            "durationTicks": 96,
            "midi": 35,
            "name": "B1",
            "ticks": 34944,
            "time": 36.4,
            "velocity": 0.25984251968503935
          },
          {
            "duration": 0.20000000000000284,
            "durationTicks": 192,
            "midi": 38,
            "name": "D2",
            "ticks": 34944,
            "time": 36.4,
            "velocity": 0.25984251968503935
          },
          {
            "duration": 0.20000000000000284,
            "durationTicks": 192,
            "midi": 36,
            "name": "C2",
            "ticks": 34944,
            "time": 36.4,
            "velocity": 0.25984251968503935
          },
          {
            "duration": 0.10000000000000142,
            "durationTicks": 96,
            "midi": 35,
            "name": "B1",
            "ticks": 35040,
            "time": 36.5,
            "velocity": 0.25984251968503935
          },
          {
            "duration": 0.10000000000000142,
            "durationTicks": 96,
            "midi": 35,
            "name": "B1",
            "ticks": 35136,
            "time": 36.6,
            "velocity": 0.25984251968503935
          },
          {
            "duration": 0.20000000000000284,
            "durationTicks": 192,
            "midi": 41,
            "name": "F2",
            "ticks": 35136,
            "time": 36.6,
            "velocity": 0.25984251968503935
          },
          {
            "duration": 0.10000000000000142,
            "durationTicks": 96,
            "midi": 43,
            "name": "G2",
            "ticks": 35136,
            "time": 36.6,
            "velocity": 0.25984251968503935
          },
          {
            "duration": 0.10000000000000142,
            "durationTicks": 96,
            "midi": 43,
            "name": "G2",
            "ticks": 35232,
            "time": 36.7,
            "velocity": 0.25984251968503935
          },
          {
            "duration": 0.10000000000000142,
            "durationTicks": 96,
            "midi": 35,
            "name": "B1",
            "ticks": 35232,
            "time": 36.7,
            "velocity": 0.25984251968503935
          },
          {
            "duration": 0.09999999999999432,
            "durationTicks": 96,
            "midi": 40,
            "name": "E2",
            "ticks": 35328,
            "time": 36.800000000000004,
            "velocity": 0.25984251968503935
          },
          {
            "duration": 0.19999999999999574,
            "durationTicks": 192,
            "midi": 36,
            "name": "C2",
            "ticks": 35328,
            "time": 36.800000000000004,
            "velocity": 0.25984251968503935
          },
          {
            "duration": 0.09999999999999432,
            "durationTicks": 96,
            "midi": 35,
            "name": "B1",
            "ticks": 35328,
            "time": 36.800000000000004,
            "velocity": 0.25984251968503935
          },
          {
            "duration": 0.19999999999999574,
            "durationTicks": 192,
            "midi": 38,
            "name": "D2",
            "ticks": 35328,
            "time": 36.800000000000004,
            "velocity": 0.25984251968503935
          },
          {
            "duration": 0.10000000000000142,
            "durationTicks": 96,
            "midi": 40,
            "name": "E2",
            "ticks": 35424,
            "time": 36.9,
            "velocity": 0.25984251968503935
          },
          {
            "duration": 0.10000000000000142,
            "durationTicks": 96,
            "midi": 35,
            "name": "B1",
            "ticks": 35424,
            "time": 36.9,
            "velocity": 0.25984251968503935
          },
          {
            "duration": 0.10000000000000142,
            "durationTicks": 96,
            "midi": 35,
            "name": "B1",
            "ticks": 35520,
            "time": 37,
            "velocity": 0.25984251968503935
          },
          {
            "duration": 0.10000000000000142,
            "durationTicks": 96,
            "midi": 43,
            "name": "G2",
            "ticks": 35520,
            "time": 37,
            "velocity": 0.25984251968503935
          },
          {
            "duration": 0.20000000000000284,
            "durationTicks": 192,
            "midi": 41,
            "name": "F2",
            "ticks": 35520,
            "time": 37,
            "velocity": 0.25984251968503935
          },
          {
            "duration": 0.10000000000000142,
            "durationTicks": 96,
            "midi": 35,
            "name": "B1",
            "ticks": 35616,
            "time": 37.1,
            "velocity": 0.25984251968503935
          },
          {
            "duration": 0.10000000000000142,
            "durationTicks": 96,
            "midi": 43,
            "name": "G2",
            "ticks": 35616,
            "time": 37.1,
            "velocity": 0.25984251968503935
          },
          {
            "duration": 0.10000000000000142,
            "durationTicks": 96,
            "midi": 35,
            "name": "B1",
            "ticks": 35712,
            "time": 37.2,
            "velocity": 0.25984251968503935
          },
          {
            "duration": 0.19999999999999574,
            "durationTicks": 192,
            "midi": 38,
            "name": "D2",
            "ticks": 35712,
            "time": 37.2,
            "velocity": 0.25984251968503935
          },
          {
            "duration": 0.19999999999999574,
            "durationTicks": 192,
            "midi": 36,
            "name": "C2",
            "ticks": 35712,
            "time": 37.2,
            "velocity": 0.25984251968503935
          },
          {
            "duration": 0.19999999999999574,
            "durationTicks": 192,
            "midi": 40,
            "name": "E2",
            "ticks": 35712,
            "time": 37.2,
            "velocity": 0.25984251968503935
          },
          {
            "duration": 0.09999999999999432,
            "durationTicks": 96,
            "midi": 35,
            "name": "B1",
            "ticks": 35808,
            "time": 37.300000000000004,
            "velocity": 0.25984251968503935
          },
          {
            "duration": 0.10000000000000142,
            "durationTicks": 96,
            "midi": 43,
            "name": "G2",
            "ticks": 35904,
            "time": 37.4,
            "velocity": 0.25984251968503935
          },
          {
            "duration": 0.10000000000000142,
            "durationTicks": 96,
            "midi": 35,
            "name": "B1",
            "ticks": 35904,
            "time": 37.4,
            "velocity": 0.25984251968503935
          },
          {
            "duration": 0.20000000000000284,
            "durationTicks": 192,
            "midi": 41,
            "name": "F2",
            "ticks": 35904,
            "time": 37.4,
            "velocity": 0.25984251968503935
          },
          {
            "duration": 0.10000000000000142,
            "durationTicks": 96,
            "midi": 35,
            "name": "B1",
            "ticks": 36000,
            "time": 37.5,
            "velocity": 0.25984251968503935
          },
          {
            "duration": 0.10000000000000142,
            "durationTicks": 96,
            "midi": 43,
            "name": "G2",
            "ticks": 36000,
            "time": 37.5,
            "velocity": 0.25984251968503935
          },
          {
            "duration": 0.20000000000000284,
            "durationTicks": 192,
            "midi": 36,
            "name": "C2",
            "ticks": 36096,
            "time": 37.6,
            "velocity": 0.25984251968503935
          },
          {
            "duration": 0.10000000000000142,
            "durationTicks": 96,
            "midi": 40,
            "name": "E2",
            "ticks": 36096,
            "time": 37.6,
            "velocity": 0.25984251968503935
          },
          {
            "duration": 0.10000000000000142,
            "durationTicks": 96,
            "midi": 35,
            "name": "B1",
            "ticks": 36096,
            "time": 37.6,
            "velocity": 0.25984251968503935
          },
          {
            "duration": 0.20000000000000284,
            "durationTicks": 192,
            "midi": 38,
            "name": "D2",
            "ticks": 36096,
            "time": 37.6,
            "velocity": 0.25984251968503935
          },
          {
            "duration": 0.10000000000000142,
            "durationTicks": 96,
            "midi": 40,
            "name": "E2",
            "ticks": 36192,
            "time": 37.7,
            "velocity": 0.25984251968503935
          },
          {
            "duration": 0.10000000000000142,
            "durationTicks": 96,
            "midi": 35,
            "name": "B1",
            "ticks": 36192,
            "time": 37.7,
            "velocity": 0.25984251968503935
          },
          {
            "duration": 0.09999999999999432,
            "durationTicks": 96,
            "midi": 43,
            "name": "G2",
            "ticks": 36288,
            "time": 37.800000000000004,
            "velocity": 0.25984251968503935
          },
          {
            "duration": 0.09999999999999432,
            "durationTicks": 96,
            "midi": 35,
            "name": "B1",
            "ticks": 36288,
            "time": 37.800000000000004,
            "velocity": 0.25984251968503935
          },
          {
            "duration": 0.19999999999999574,
            "durationTicks": 192,
            "midi": 41,
            "name": "F2",
            "ticks": 36288,
            "time": 37.800000000000004,
            "velocity": 0.25984251968503935
          },
          {
            "duration": 0.10000000000000142,
            "durationTicks": 96,
            "midi": 35,
            "name": "B1",
            "ticks": 36384,
            "time": 37.9,
            "velocity": 0.25984251968503935
          },
          {
            "duration": 0.10000000000000142,
            "durationTicks": 96,
            "midi": 43,
            "name": "G2",
            "ticks": 36384,
            "time": 37.9,
            "velocity": 0.25984251968503935
          },
          {
            "duration": 0.20000000000000284,
            "durationTicks": 192,
            "midi": 38,
            "name": "D2",
            "ticks": 36480,
            "time": 38,
            "velocity": 0.25984251968503935
          },
          {
            "duration": 0.20000000000000284,
            "durationTicks": 192,
            "midi": 36,
            "name": "C2",
            "ticks": 36480,
            "time": 38,
            "velocity": 0.25984251968503935
          },
          {
            "duration": 0.20000000000000284,
            "durationTicks": 192,
            "midi": 40,
            "name": "E2",
            "ticks": 36480,
            "time": 38,
            "velocity": 0.25984251968503935
          },
          {
            "duration": 0.10000000000000142,
            "durationTicks": 96,
            "midi": 35,
            "name": "B1",
            "ticks": 36480,
            "time": 38,
            "velocity": 0.25984251968503935
          },
          {
            "duration": 0.10000000000000142,
            "durationTicks": 96,
            "midi": 35,
            "name": "B1",
            "ticks": 36576,
            "time": 38.1,
            "velocity": 0.25984251968503935
          },
          {
            "duration": 0.20000000000000284,
            "durationTicks": 192,
            "midi": 41,
            "name": "F2",
            "ticks": 36672,
            "time": 38.2,
            "velocity": 0.25984251968503935
          },
          {
            "duration": 0.10000000000000142,
            "durationTicks": 96,
            "midi": 35,
            "name": "B1",
            "ticks": 36672,
            "time": 38.2,
            "velocity": 0.25984251968503935
          },
          {
            "duration": 0.10000000000000142,
            "durationTicks": 96,
            "midi": 43,
            "name": "G2",
            "ticks": 36672,
            "time": 38.2,
            "velocity": 0.25984251968503935
          },
          {
            "duration": 0.10000000000000142,
            "durationTicks": 96,
            "midi": 35,
            "name": "B1",
            "ticks": 36768,
            "time": 38.300000000000004,
            "velocity": 0.25984251968503935
          },
          {
            "duration": 0.10000000000000142,
            "durationTicks": 96,
            "midi": 43,
            "name": "G2",
            "ticks": 36768,
            "time": 38.300000000000004,
            "velocity": 0.25984251968503935
          },
          {
            "duration": 0.13333333333332575,
            "durationTicks": 128,
            "midi": 40,
            "name": "E2",
            "ticks": 36864,
            "time": 38.400000000000006,
            "velocity": 0.25984251968503935
          },
          {
            "duration": 0.13333333333332575,
            "durationTicks": 128,
            "midi": 38,
            "name": "D2",
            "ticks": 36864,
            "time": 38.400000000000006,
            "velocity": 0.25984251968503935
          },
          {
            "duration": 0.13333333333333286,
            "durationTicks": 128,
            "midi": 38,
            "name": "D2",
            "ticks": 37120,
            "time": 38.66666666666667,
            "velocity": 0.25984251968503935
          },
          {
            "duration": 0.13333333333333286,
            "durationTicks": 128,
            "midi": 40,
            "name": "E2",
            "ticks": 37120,
            "time": 38.66666666666667,
            "velocity": 0.25984251968503935
          },
          {
            "duration": 0.13333333333333286,
            "durationTicks": 128,
            "midi": 40,
            "name": "E2",
            "ticks": 37376,
            "time": 38.93333333333334,
            "velocity": 0.25984251968503935
          },
          {
            "duration": 0.13333333333333286,
            "durationTicks": 128,
            "midi": 38,
            "name": "D2",
            "ticks": 37376,
            "time": 38.93333333333334,
            "velocity": 0.25984251968503935
          },
          {
            "duration": 0.13333333333333286,
            "durationTicks": 128,
            "midi": 38,
            "name": "D2",
            "ticks": 37632,
            "time": 39.2,
            "velocity": 0.25984251968503935
          },
          {
            "duration": 0.13333333333333286,
            "durationTicks": 128,
            "midi": 43,
            "name": "G2",
            "ticks": 37632,
            "time": 39.2,
            "velocity": 0.25984251968503935
          },
          {
            "duration": 0.13333333333333286,
            "durationTicks": 128,
            "midi": 38,
            "name": "D2",
            "ticks": 37888,
            "time": 39.46666666666667,
            "velocity": 0.25984251968503935
          },
          {
            "duration": 0.13333333333333286,
            "durationTicks": 128,
            "midi": 43,
            "name": "G2",
            "ticks": 37888,
            "time": 39.46666666666667,
            "velocity": 0.25984251968503935
          },
          {
            "duration": 0.13333333333333997,
            "durationTicks": 128,
            "midi": 38,
            "name": "D2",
            "ticks": 38144,
            "time": 39.733333333333334,
            "velocity": 0.25984251968503935
          },
          {
            "duration": 0.13333333333333997,
            "durationTicks": 128,
            "midi": 43,
            "name": "G2",
            "ticks": 38144,
            "time": 39.733333333333334,
            "velocity": 0.25984251968503935
          },
          {
            "duration": 0.13333333333333286,
            "durationTicks": 128,
            "midi": 38,
            "name": "D2",
            "ticks": 38400,
            "time": 40,
            "velocity": 0.25984251968503935
          },
          {
            "duration": 0.13333333333333286,
            "durationTicks": 128,
            "midi": 35,
            "name": "B1",
            "ticks": 38400,
            "time": 40,
            "velocity": 0.25984251968503935
          },
          {
            "duration": 0.13333333333333286,
            "durationTicks": 128,
            "midi": 35,
            "name": "B1",
            "ticks": 38656,
            "time": 40.26666666666667,
            "velocity": 0.25984251968503935
          },
          {
            "duration": 0.13333333333333286,
            "durationTicks": 128,
            "midi": 38,
            "name": "D2",
            "ticks": 38656,
            "time": 40.26666666666667,
            "velocity": 0.25984251968503935
          },
          {
            "duration": 0.13333333333333997,
            "durationTicks": 128,
            "midi": 38,
            "name": "D2",
            "ticks": 38912,
            "time": 40.53333333333333,
            "velocity": 0.25984251968503935
          },
          {
            "duration": 0.13333333333333997,
            "durationTicks": 128,
            "midi": 35,
            "name": "B1",
            "ticks": 38912,
            "time": 40.53333333333333,
            "velocity": 0.25984251968503935
          },
          {
            "duration": 0.13333333333333286,
            "durationTicks": 128,
            "midi": 40,
            "name": "E2",
            "ticks": 39168,
            "time": 40.800000000000004,
            "velocity": 0.25984251968503935
          },
          {
            "duration": 0.13333333333333286,
            "durationTicks": 128,
            "midi": 35,
            "name": "B1",
            "ticks": 39168,
            "time": 40.800000000000004,
            "velocity": 0.25984251968503935
          },
          {
            "duration": 0.13333333333333286,
            "durationTicks": 128,
            "midi": 38,
            "name": "D2",
            "ticks": 39296,
            "time": 40.93333333333334,
            "velocity": 0.25984251968503935
          },
          {
            "duration": 0.13333333333333286,
            "durationTicks": 128,
            "midi": 35,
            "name": "B1",
            "ticks": 39424,
            "time": 41.06666666666667,
            "velocity": 0.25984251968503935
          },
          {
            "duration": 0.13333333333333286,
            "durationTicks": 128,
            "midi": 38,
            "name": "D2",
            "ticks": 39424,
            "time": 41.06666666666667,
            "velocity": 0.25984251968503935
          },
          {
            "duration": 0.13333333333333286,
            "durationTicks": 128,
            "midi": 40,
            "name": "E2",
            "ticks": 39424,
            "time": 41.06666666666667,
            "velocity": 0.25984251968503935
          },
          {
            "duration": 0.13333333333333286,
            "durationTicks": 128,
            "midi": 38,
            "name": "D2",
            "ticks": 39552,
            "time": 41.2,
            "velocity": 0.25984251968503935
          },
          {
            "duration": 0.13333333333333286,
            "durationTicks": 128,
            "midi": 40,
            "name": "E2",
            "ticks": 39680,
            "time": 41.333333333333336,
            "velocity": 0.25984251968503935
          },
          {
            "duration": 0.13333333333333286,
            "durationTicks": 128,
            "midi": 35,
            "name": "B1",
            "ticks": 39680,
            "time": 41.333333333333336,
            "velocity": 0.25984251968503935
          },
          {
            "duration": 0.13333333333333286,
            "durationTicks": 128,
            "midi": 38,
            "name": "D2",
            "ticks": 39680,
            "time": 41.333333333333336,
            "velocity": 0.25984251968503935
          },
          {
            "duration": 0.13333333333333286,
            "durationTicks": 128,
            "midi": 38,
            "name": "D2",
            "ticks": 39808,
            "time": 41.46666666666667,
            "velocity": 0.25984251968503935
          },
          {
            "duration": 0.13333333333333286,
            "durationTicks": 128,
            "midi": 40,
            "name": "E2",
            "ticks": 39936,
            "time": 41.6,
            "velocity": 0.25984251968503935
          },
          {
            "duration": 0.13333333333333286,
            "durationTicks": 128,
            "midi": 38,
            "name": "D2",
            "ticks": 39936,
            "time": 41.6,
            "velocity": 0.25984251968503935
          },
          {
            "duration": 0.13333333333332575,
            "durationTicks": 128,
            "midi": 40,
            "name": "E2",
            "ticks": 40192,
            "time": 41.866666666666674,
            "velocity": 0.25984251968503935
          },
          {
            "duration": 0.13333333333332575,
            "durationTicks": 128,
            "midi": 38,
            "name": "D2",
            "ticks": 40192,
            "time": 41.866666666666674,
            "velocity": 0.25984251968503935
          },
          {
            "duration": 0.13333333333333997,
            "durationTicks": 128,
            "midi": 38,
            "name": "D2",
            "ticks": 40448,
            "time": 42.13333333333333,
            "velocity": 0.25984251968503935
          },
          {
            "duration": 0.13333333333333997,
            "durationTicks": 128,
            "midi": 40,
            "name": "E2",
            "ticks": 40448,
            "time": 42.13333333333333,
            "velocity": 0.25984251968503935
          },
          {
            "duration": 0.13333333333332575,
            "durationTicks": 128,
            "midi": 43,
            "name": "G2",
            "ticks": 40704,
            "time": 42.400000000000006,
            "velocity": 0.25984251968503935
          },
          {
            "duration": 0.13333333333332575,
            "durationTicks": 128,
            "midi": 38,
            "name": "D2",
            "ticks": 40704,
            "time": 42.400000000000006,
            "velocity": 0.25984251968503935
          },
          {
            "duration": 0.13333333333333286,
            "durationTicks": 128,
            "midi": 43,
            "name": "G2",
            "ticks": 40960,
            "time": 42.66666666666667,
            "velocity": 0.25984251968503935
          },
          {
            "duration": 0.13333333333333286,
            "durationTicks": 128,
            "midi": 38,
            "name": "D2",
            "ticks": 40960,
            "time": 42.66666666666667,
            "velocity": 0.25984251968503935
          },
          {
            "duration": 0.13333333333333286,
            "durationTicks": 128,
            "midi": 38,
            "name": "D2",
            "ticks": 41216,
            "time": 42.93333333333334,
            "velocity": 0.25984251968503935
          },
          {
            "duration": 0.13333333333333286,
            "durationTicks": 128,
            "midi": 43,
            "name": "G2",
            "ticks": 41216,
            "time": 42.93333333333334,
            "velocity": 0.25984251968503935
          },
          {
            "duration": 0.13333333333333286,
            "durationTicks": 128,
            "midi": 35,
            "name": "B1",
            "ticks": 41472,
            "time": 43.2,
            "velocity": 0.25984251968503935
          },
          {
            "duration": 0.13333333333333286,
            "durationTicks": 128,
            "midi": 38,
            "name": "D2",
            "ticks": 41472,
            "time": 43.2,
            "velocity": 0.25984251968503935
          },
          {
            "duration": 0.13333333333333286,
            "durationTicks": 128,
            "midi": 35,
            "name": "B1",
            "ticks": 41728,
            "time": 43.46666666666667,
            "velocity": 0.25984251968503935
          },
          {
            "duration": 0.13333333333333286,
            "durationTicks": 128,
            "midi": 38,
            "name": "D2",
            "ticks": 41728,
            "time": 43.46666666666667,
            "velocity": 0.25984251968503935
          },
          {
            "duration": 0.13333333333333997,
            "durationTicks": 128,
            "midi": 35,
            "name": "B1",
            "ticks": 41984,
            "time": 43.733333333333334,
            "velocity": 0.25984251968503935
          },
          {
            "duration": 0.13333333333333997,
            "durationTicks": 128,
            "midi": 38,
            "name": "D2",
            "ticks": 41984,
            "time": 43.733333333333334,
            "velocity": 0.25984251968503935
          },
          {
            "duration": 0.13333333333333286,
            "durationTicks": 128,
            "midi": 40,
            "name": "E2",
            "ticks": 42240,
            "time": 44,
            "velocity": 0.25984251968503935
          },
          {
            "duration": 0.13333333333333286,
            "durationTicks": 128,
            "midi": 35,
            "name": "B1",
            "ticks": 42240,
            "time": 44,
            "velocity": 0.25984251968503935
          },
          {
            "duration": 0.13333333333333997,
            "durationTicks": 128,
            "midi": 38,
            "name": "D2",
            "ticks": 42368,
            "time": 44.13333333333333,
            "velocity": 0.25984251968503935
          },
          {
            "duration": 0.13333333333333286,
            "durationTicks": 128,
            "midi": 35,
            "name": "B1",
            "ticks": 42496,
            "time": 44.26666666666667,
            "velocity": 0.25984251968503935
          },
          {
            "duration": 0.13333333333333286,
            "durationTicks": 128,
            "midi": 40,
            "name": "E2",
            "ticks": 42496,
            "time": 44.26666666666667,
            "velocity": 0.25984251968503935
          },
          {
            "duration": 0.13333333333333286,
            "durationTicks": 128,
            "midi": 38,
            "name": "D2",
            "ticks": 42496,
            "time": 44.26666666666667,
            "velocity": 0.25984251968503935
          },
          {
            "duration": 0.13333333333332575,
            "durationTicks": 128,
            "midi": 38,
            "name": "D2",
            "ticks": 42624,
            "time": 44.400000000000006,
            "velocity": 0.25984251968503935
          },
          {
            "duration": 0.13333333333333997,
            "durationTicks": 128,
            "midi": 38,
            "name": "D2",
            "ticks": 42752,
            "time": 44.53333333333333,
            "velocity": 0.25984251968503935
          },
          {
            "duration": 0.13333333333333997,
            "durationTicks": 128,
            "midi": 35,
            "name": "B1",
            "ticks": 42752,
            "time": 44.53333333333333,
            "velocity": 0.25984251968503935
          },
          {
            "duration": 0.13333333333333997,
            "durationTicks": 128,
            "midi": 40,
            "name": "E2",
            "ticks": 42752,
            "time": 44.53333333333333,
            "velocity": 0.25984251968503935
          },
          {
            "duration": 0.13333333333333286,
            "durationTicks": 128,
            "midi": 38,
            "name": "D2",
            "ticks": 42880,
            "time": 44.66666666666667,
            "velocity": 0.25984251968503935
          },
          {
            "duration": 0.13333333333333286,
            "durationTicks": 128,
            "midi": 38,
            "name": "D2",
            "ticks": 43008,
            "time": 44.800000000000004,
            "velocity": 0.25984251968503935
          },
          {
            "duration": 0.13333333333333286,
            "durationTicks": 128,
            "midi": 40,
            "name": "E2",
            "ticks": 43008,
            "time": 44.800000000000004,
            "velocity": 0.25984251968503935
          },
          {
            "duration": 0.13333333333333286,
            "durationTicks": 128,
            "midi": 38,
            "name": "D2",
            "ticks": 43264,
            "time": 45.06666666666667,
            "velocity": 0.25984251968503935
          },
          {
            "duration": 0.13333333333333286,
            "durationTicks": 128,
            "midi": 40,
            "name": "E2",
            "ticks": 43264,
            "time": 45.06666666666667,
            "velocity": 0.25984251968503935
          },
          {
            "duration": 0.13333333333333286,
            "durationTicks": 128,
            "midi": 40,
            "name": "E2",
            "ticks": 43520,
            "time": 45.333333333333336,
            "velocity": 0.25984251968503935
          },
          {
            "duration": 0.13333333333333286,
            "durationTicks": 128,
            "midi": 38,
            "name": "D2",
            "ticks": 43520,
            "time": 45.333333333333336,
            "velocity": 0.25984251968503935
          },
          {
            "duration": 0.13333333333333286,
            "durationTicks": 128,
            "midi": 38,
            "name": "D2",
            "ticks": 43776,
            "time": 45.6,
            "velocity": 0.25984251968503935
          },
          {
            "duration": 0.13333333333333286,
            "durationTicks": 128,
            "midi": 43,
            "name": "G2",
            "ticks": 43776,
            "time": 45.6,
            "velocity": 0.25984251968503935
          },
          {
            "duration": 0.13333333333333286,
            "durationTicks": 128,
            "midi": 35,
            "name": "B1",
            "ticks": 44160,
            "time": 46,
            "velocity": 0.25984251968503935
          },
          {
            "duration": 0.13333333333333286,
            "durationTicks": 128,
            "midi": 38,
            "name": "D2",
            "ticks": 44160,
            "time": 46,
            "velocity": 0.25984251968503935
          },
          {
            "duration": 0.13333333333332575,
            "durationTicks": 128,
            "midi": 38,
            "name": "D2",
            "ticks": 44544,
            "time": 46.400000000000006,
            "velocity": 0.25984251968503935
          },
          {
            "duration": 0.13333333333332575,
            "durationTicks": 128,
            "midi": 40,
            "name": "E2",
            "ticks": 44544,
            "time": 46.400000000000006,
            "velocity": 0.25984251968503935
          },
          {
            "duration": 0.13333333333333286,
            "durationTicks": 128,
            "midi": 40,
            "name": "E2",
            "ticks": 44800,
            "time": 46.66666666666667,
            "velocity": 0.25984251968503935
          },
          {
            "duration": 0.13333333333333286,
            "durationTicks": 128,
            "midi": 38,
            "name": "D2",
            "ticks": 44800,
            "time": 46.66666666666667,
            "velocity": 0.25984251968503935
          },
          {
            "duration": 0.13333333333333286,
            "durationTicks": 128,
            "midi": 38,
            "name": "D2",
            "ticks": 45056,
            "time": 46.93333333333334,
            "velocity": 0.25984251968503935
          },
          {
            "duration": 0.13333333333333286,
            "durationTicks": 128,
            "midi": 40,
            "name": "E2",
            "ticks": 45056,
            "time": 46.93333333333334,
            "velocity": 0.25984251968503935
          },
          {
            "duration": 0.13333333333333286,
            "durationTicks": 128,
            "midi": 38,
            "name": "D2",
            "ticks": 45312,
            "time": 47.2,
            "velocity": 0.25984251968503935
          },
          {
            "duration": 0.13333333333333286,
            "durationTicks": 128,
            "midi": 43,
            "name": "G2",
            "ticks": 45312,
            "time": 47.2,
            "velocity": 0.25984251968503935
          },
          {
            "duration": 0.13333333333333286,
            "durationTicks": 128,
            "midi": 38,
            "name": "D2",
            "ticks": 45696,
            "time": 47.6,
            "velocity": 0.25984251968503935
          },
          {
            "duration": 0.13333333333333286,
            "durationTicks": 128,
            "midi": 35,
            "name": "B1",
            "ticks": 45696,
            "time": 47.6,
            "velocity": 0.25984251968503935
          },
          {
            "duration": 0.10000000000000142,
            "durationTicks": 96,
            "midi": 35,
            "name": "B1",
            "ticks": 46080,
            "time": 48,
            "velocity": 0.25984251968503935
          },
          {
            "duration": 0.13333333333333286,
            "durationTicks": 128,
            "midi": 49,
            "name": "C#3",
            "ticks": 46080,
            "time": 48,
            "velocity": 0.25984251968503935
          },
          {
            "duration": 0.20000000000000284,
            "durationTicks": 192,
            "midi": 36,
            "name": "C2",
            "ticks": 46080,
            "time": 48,
            "velocity": 0.25984251968503935
          },
          {
            "duration": 0.20000000000000284,
            "durationTicks": 192,
            "midi": 38,
            "name": "D2",
            "ticks": 46080,
            "time": 48,
            "velocity": 0.25984251968503935
          },
          {
            "duration": 0.10000000000000142,
            "durationTicks": 96,
            "midi": 40,
            "name": "E2",
            "ticks": 46080,
            "time": 48,
            "velocity": 0.25984251968503935
          },
          {
            "duration": 0.10000000000000142,
            "durationTicks": 96,
            "midi": 40,
            "name": "E2",
            "ticks": 46176,
            "time": 48.1,
            "velocity": 0.25984251968503935
          },
          {
            "duration": 0.10000000000000142,
            "durationTicks": 96,
            "midi": 35,
            "name": "B1",
            "ticks": 46176,
            "time": 48.1,
            "velocity": 0.25984251968503935
          },
          {
            "duration": 0.10000000000000142,
            "durationTicks": 96,
            "midi": 35,
            "name": "B1",
            "ticks": 46272,
            "time": 48.2,
            "velocity": 0.25984251968503935
          },
          {
            "duration": 0.10000000000000142,
            "durationTicks": 96,
            "midi": 43,
            "name": "G2",
            "ticks": 46272,
            "time": 48.2,
            "velocity": 0.25984251968503935
          },
          {
            "duration": 0.20000000000000284,
            "durationTicks": 192,
            "midi": 41,
            "name": "F2",
            "ticks": 46272,
            "time": 48.2,
            "velocity": 0.25984251968503935
          },
          {
            "duration": 0.10000000000000142,
            "durationTicks": 96,
            "midi": 43,
            "name": "G2",
            "ticks": 46368,
            "time": 48.300000000000004,
            "velocity": 0.25984251968503935
          },
          {
            "duration": 0.10000000000000142,
            "durationTicks": 96,
            "midi": 35,
            "name": "B1",
            "ticks": 46368,
            "time": 48.300000000000004,
            "velocity": 0.25984251968503935
          },
          {
            "duration": 0.19999999999999574,
            "durationTicks": 192,
            "midi": 38,
            "name": "D2",
            "ticks": 46464,
            "time": 48.400000000000006,
            "velocity": 0.25984251968503935
          },
          {
            "duration": 0.19999999999999574,
            "durationTicks": 192,
            "midi": 40,
            "name": "E2",
            "ticks": 46464,
            "time": 48.400000000000006,
            "velocity": 0.25984251968503935
          },
          {
            "duration": 0.19999999999999574,
            "durationTicks": 192,
            "midi": 36,
            "name": "C2",
            "ticks": 46464,
            "time": 48.400000000000006,
            "velocity": 0.25984251968503935
          },
          {
            "duration": 0.09999999999999432,
            "durationTicks": 96,
            "midi": 35,
            "name": "B1",
            "ticks": 46464,
            "time": 48.400000000000006,
            "velocity": 0.25984251968503935
          },
          {
            "duration": 0.10000000000000142,
            "durationTicks": 96,
            "midi": 35,
            "name": "B1",
            "ticks": 46560,
            "time": 48.5,
            "velocity": 0.25984251968503935
          },
          {
            "duration": 0.20000000000000284,
            "durationTicks": 192,
            "midi": 41,
            "name": "F2",
            "ticks": 46656,
            "time": 48.6,
            "velocity": 0.25984251968503935
          },
          {
            "duration": 0.10000000000000142,
            "durationTicks": 96,
            "midi": 43,
            "name": "G2",
            "ticks": 46656,
            "time": 48.6,
            "velocity": 0.25984251968503935
          },
          {
            "duration": 0.10000000000000142,
            "durationTicks": 96,
            "midi": 35,
            "name": "B1",
            "ticks": 46656,
            "time": 48.6,
            "velocity": 0.25984251968503935
          },
          {
            "duration": 0.10000000000000142,
            "durationTicks": 96,
            "midi": 35,
            "name": "B1",
            "ticks": 46752,
            "time": 48.7,
            "velocity": 0.25984251968503935
          },
          {
            "duration": 0.10000000000000142,
            "durationTicks": 96,
            "midi": 43,
            "name": "G2",
            "ticks": 46752,
            "time": 48.7,
            "velocity": 0.25984251968503935
          },
          {
            "duration": 0.19999999999999574,
            "durationTicks": 192,
            "midi": 36,
            "name": "C2",
            "ticks": 46848,
            "time": 48.800000000000004,
            "velocity": 0.25984251968503935
          },
          {
            "duration": 0.10000000000000142,
            "durationTicks": 96,
            "midi": 40,
            "name": "E2",
            "ticks": 46848,
            "time": 48.800000000000004,
            "velocity": 0.25984251968503935
          },
          {
            "duration": 0.19999999999999574,
            "durationTicks": 192,
            "midi": 38,
            "name": "D2",
            "ticks": 46848,
            "time": 48.800000000000004,
            "velocity": 0.25984251968503935
          },
          {
            "duration": 0.10000000000000142,
            "durationTicks": 96,
            "midi": 35,
            "name": "B1",
            "ticks": 46848,
            "time": 48.800000000000004,
            "velocity": 0.25984251968503935
          },
          {
            "duration": 0.09999999999999432,
            "durationTicks": 96,
            "midi": 35,
            "name": "B1",
            "ticks": 46944,
            "time": 48.900000000000006,
            "velocity": 0.25984251968503935
          },
          {
            "duration": 0.09999999999999432,
            "durationTicks": 96,
            "midi": 40,
            "name": "E2",
            "ticks": 46944,
            "time": 48.900000000000006,
            "velocity": 0.25984251968503935
          },
          {
            "duration": 0.10000000000000142,
            "durationTicks": 96,
            "midi": 35,
            "name": "B1",
            "ticks": 47040,
            "time": 49,
            "velocity": 0.25984251968503935
          },
          {
            "duration": 0.20000000000000284,
            "durationTicks": 192,
            "midi": 41,
            "name": "F2",
            "ticks": 47040,
            "time": 49,
            "velocity": 0.25984251968503935
          },
          {
            "duration": 0.10000000000000142,
            "durationTicks": 96,
            "midi": 43,
            "name": "G2",
            "ticks": 47040,
            "time": 49,
            "velocity": 0.25984251968503935
          },
          {
            "duration": 0.10000000000000142,
            "durationTicks": 96,
            "midi": 43,
            "name": "G2",
            "ticks": 47136,
            "time": 49.1,
            "velocity": 0.25984251968503935
          },
          {
            "duration": 0.10000000000000142,
            "durationTicks": 96,
            "midi": 35,
            "name": "B1",
            "ticks": 47136,
            "time": 49.1,
            "velocity": 0.25984251968503935
          },
          {
            "duration": 0.20000000000000284,
            "durationTicks": 192,
            "midi": 36,
            "name": "C2",
            "ticks": 47232,
            "time": 49.2,
            "velocity": 0.25984251968503935
          },
          {
            "duration": 0.20000000000000284,
            "durationTicks": 192,
            "midi": 38,
            "name": "D2",
            "ticks": 47232,
            "time": 49.2,
            "velocity": 0.25984251968503935
          },
          {
            "duration": 0.20000000000000284,
            "durationTicks": 192,
            "midi": 40,
            "name": "E2",
            "ticks": 47232,
            "time": 49.2,
            "velocity": 0.25984251968503935
          },
          {
            "duration": 0.10000000000000142,
            "durationTicks": 96,
            "midi": 35,
            "name": "B1",
            "ticks": 47232,
            "time": 49.2,
            "velocity": 0.25984251968503935
          },
          {
            "duration": 0.10000000000000142,
            "durationTicks": 96,
            "midi": 35,
            "name": "B1",
            "ticks": 47328,
            "time": 49.300000000000004,
            "velocity": 0.25984251968503935
          },
          {
            "duration": 0.09999999999999432,
            "durationTicks": 96,
            "midi": 43,
            "name": "G2",
            "ticks": 47424,
            "time": 49.400000000000006,
            "velocity": 0.25984251968503935
          },
          {
            "duration": 0.19999999999999574,
            "durationTicks": 192,
            "midi": 41,
            "name": "F2",
            "ticks": 47424,
            "time": 49.400000000000006,
            "velocity": 0.25984251968503935
          },
          {
            "duration": 0.09999999999999432,
            "durationTicks": 96,
            "midi": 35,
            "name": "B1",
            "ticks": 47424,
            "time": 49.400000000000006,
            "velocity": 0.25984251968503935
          },
          {
            "duration": 0.10000000000000142,
            "durationTicks": 96,
            "midi": 43,
            "name": "G2",
            "ticks": 47520,
            "time": 49.5,
            "velocity": 0.25984251968503935
          },
          {
            "duration": 0.10000000000000142,
            "durationTicks": 96,
            "midi": 35,
            "name": "B1",
            "ticks": 47520,
            "time": 49.5,
            "velocity": 0.25984251968503935
          },
          {
            "duration": 0.10000000000000142,
            "durationTicks": 96,
            "midi": 40,
            "name": "E2",
            "ticks": 47616,
            "time": 49.6,
            "velocity": 0.25984251968503935
          },
          {
            "duration": 0.20000000000000284,
            "durationTicks": 192,
            "midi": 38,
            "name": "D2",
            "ticks": 47616,
            "time": 49.6,
            "velocity": 0.25984251968503935
          },
          {
            "duration": 0.20000000000000284,
            "durationTicks": 192,
            "midi": 36,
            "name": "C2",
            "ticks": 47616,
            "time": 49.6,
            "velocity": 0.25984251968503935
          },
          {
            "duration": 0.10000000000000142,
            "durationTicks": 96,
            "midi": 35,
            "name": "B1",
            "ticks": 47616,
            "time": 49.6,
            "velocity": 0.25984251968503935
          },
          {
            "duration": 0.10000000000000142,
            "durationTicks": 96,
            "midi": 40,
            "name": "E2",
            "ticks": 47712,
            "time": 49.7,
            "velocity": 0.25984251968503935
          },
          {
            "duration": 0.10000000000000142,
            "durationTicks": 96,
            "midi": 35,
            "name": "B1",
            "ticks": 47712,
            "time": 49.7,
            "velocity": 0.25984251968503935
          },
          {
            "duration": 0.10000000000000142,
            "durationTicks": 96,
            "midi": 43,
            "name": "G2",
            "ticks": 47808,
            "time": 49.800000000000004,
            "velocity": 0.25984251968503935
          },
          {
            "duration": 0.19999999999999574,
            "durationTicks": 192,
            "midi": 41,
            "name": "F2",
            "ticks": 47808,
            "time": 49.800000000000004,
            "velocity": 0.25984251968503935
          },
          {
            "duration": 0.10000000000000142,
            "durationTicks": 96,
            "midi": 35,
            "name": "B1",
            "ticks": 47808,
            "time": 49.800000000000004,
            "velocity": 0.25984251968503935
          },
          {
            "duration": 0.09999999999999432,
            "durationTicks": 96,
            "midi": 43,
            "name": "G2",
            "ticks": 47904,
            "time": 49.900000000000006,
            "velocity": 0.25984251968503935
          },
          {
            "duration": 0.09999999999999432,
            "durationTicks": 96,
            "midi": 35,
            "name": "B1",
            "ticks": 47904,
            "time": 49.900000000000006,
            "velocity": 0.25984251968503935
          },
          {
            "duration": 0.20000000000000284,
            "durationTicks": 192,
            "midi": 36,
            "name": "C2",
            "ticks": 48000,
            "time": 50,
            "velocity": 0.25984251968503935
          },
          {
            "duration": 0.20000000000000284,
            "durationTicks": 192,
            "midi": 38,
            "name": "D2",
            "ticks": 48000,
            "time": 50,
            "velocity": 0.25984251968503935
          },
          {
            "duration": 0.20000000000000284,
            "durationTicks": 192,
            "midi": 40,
            "name": "E2",
            "ticks": 48000,
            "time": 50,
            "velocity": 0.25984251968503935
          },
          {
            "duration": 0.10000000000000142,
            "durationTicks": 96,
            "midi": 35,
            "name": "B1",
            "ticks": 48000,
            "time": 50,
            "velocity": 0.25984251968503935
          },
          {
            "duration": 0.10000000000000142,
            "durationTicks": 96,
            "midi": 35,
            "name": "B1",
            "ticks": 48096,
            "time": 50.1,
            "velocity": 0.25984251968503935
          },
          {
            "duration": 0.20000000000000284,
            "durationTicks": 192,
            "midi": 41,
            "name": "F2",
            "ticks": 48192,
            "time": 50.2,
            "velocity": 0.25984251968503935
          },
          {
            "duration": 0.10000000000000142,
            "durationTicks": 96,
            "midi": 35,
            "name": "B1",
            "ticks": 48192,
            "time": 50.2,
            "velocity": 0.25984251968503935
          },
          {
            "duration": 0.10000000000000142,
            "durationTicks": 96,
            "midi": 43,
            "name": "G2",
            "ticks": 48192,
            "time": 50.2,
            "velocity": 0.25984251968503935
          },
          {
            "duration": 0.10000000000000142,
            "durationTicks": 96,
            "midi": 43,
            "name": "G2",
            "ticks": 48288,
            "time": 50.300000000000004,
            "velocity": 0.25984251968503935
          },
          {
            "duration": 0.10000000000000142,
            "durationTicks": 96,
            "midi": 35,
            "name": "B1",
            "ticks": 48288,
            "time": 50.300000000000004,
            "velocity": 0.25984251968503935
          },
          {
            "duration": 0.09999999999999432,
            "durationTicks": 96,
            "midi": 40,
            "name": "E2",
            "ticks": 48384,
            "time": 50.400000000000006,
            "velocity": 0.25984251968503935
          },
          {
            "duration": 0.19999999999999574,
            "durationTicks": 192,
            "midi": 38,
            "name": "D2",
            "ticks": 48384,
            "time": 50.400000000000006,
            "velocity": 0.25984251968503935
          },
          {
            "duration": 0.19999999999999574,
            "durationTicks": 192,
            "midi": 36,
            "name": "C2",
            "ticks": 48384,
            "time": 50.400000000000006,
            "velocity": 0.25984251968503935
          },
          {
            "duration": 0.09999999999999432,
            "durationTicks": 96,
            "midi": 35,
            "name": "B1",
            "ticks": 48384,
            "time": 50.400000000000006,
            "velocity": 0.25984251968503935
          },
          {
            "duration": 0.10000000000000142,
            "durationTicks": 96,
            "midi": 35,
            "name": "B1",
            "ticks": 48480,
            "time": 50.5,
            "velocity": 0.25984251968503935
          },
          {
            "duration": 0.10000000000000142,
            "durationTicks": 96,
            "midi": 40,
            "name": "E2",
            "ticks": 48480,
            "time": 50.5,
            "velocity": 0.25984251968503935
          },
          {
            "duration": 0.10000000000000142,
            "durationTicks": 96,
            "midi": 35,
            "name": "B1",
            "ticks": 48576,
            "time": 50.6,
            "velocity": 0.25984251968503935
          },
          {
            "duration": 0.10000000000000142,
            "durationTicks": 96,
            "midi": 43,
            "name": "G2",
            "ticks": 48576,
            "time": 50.6,
            "velocity": 0.25984251968503935
          },
          {
            "duration": 0.20000000000000284,
            "durationTicks": 192,
            "midi": 41,
            "name": "F2",
            "ticks": 48576,
            "time": 50.6,
            "velocity": 0.25984251968503935
          },
          {
            "duration": 0.10000000000000142,
            "durationTicks": 96,
            "midi": 35,
            "name": "B1",
            "ticks": 48672,
            "time": 50.7,
            "velocity": 0.25984251968503935
          },
          {
            "duration": 0.10000000000000142,
            "durationTicks": 96,
            "midi": 43,
            "name": "G2",
            "ticks": 48672,
            "time": 50.7,
            "velocity": 0.25984251968503935
          },
          {
            "duration": 0.19999999999999574,
            "durationTicks": 192,
            "midi": 40,
            "name": "E2",
            "ticks": 48768,
            "time": 50.800000000000004,
            "velocity": 0.25984251968503935
          },
          {
            "duration": 0.19999999999999574,
            "durationTicks": 192,
            "midi": 38,
            "name": "D2",
            "ticks": 48768,
            "time": 50.800000000000004,
            "velocity": 0.25984251968503935
          },
          {
            "duration": 0.19999999999999574,
            "durationTicks": 192,
            "midi": 36,
            "name": "C2",
            "ticks": 48768,
            "time": 50.800000000000004,
            "velocity": 0.25984251968503935
          },
          {
            "duration": 0.10000000000000142,
            "durationTicks": 96,
            "midi": 35,
            "name": "B1",
            "ticks": 48768,
            "time": 50.800000000000004,
            "velocity": 0.25984251968503935
          },
          {
            "duration": 0.09999999999999432,
            "durationTicks": 96,
            "midi": 35,
            "name": "B1",
            "ticks": 48864,
            "time": 50.900000000000006,
            "velocity": 0.25984251968503935
          },
          {
            "duration": 0.20000000000000284,
            "durationTicks": 192,
            "midi": 41,
            "name": "F2",
            "ticks": 48960,
            "time": 51,
            "velocity": 0.25984251968503935
          },
          {
            "duration": 0.10000000000000142,
            "durationTicks": 96,
            "midi": 35,
            "name": "B1",
            "ticks": 48960,
            "time": 51,
            "velocity": 0.25984251968503935
          },
          {
            "duration": 0.10000000000000142,
            "durationTicks": 96,
            "midi": 43,
            "name": "G2",
            "ticks": 48960,
            "time": 51,
            "velocity": 0.25984251968503935
          },
          {
            "duration": 0.10000000000000142,
            "durationTicks": 96,
            "midi": 43,
            "name": "G2",
            "ticks": 49056,
            "time": 51.1,
            "velocity": 0.25984251968503935
          },
          {
            "duration": 0.10000000000000142,
            "durationTicks": 96,
            "midi": 35,
            "name": "B1",
            "ticks": 49056,
            "time": 51.1,
            "velocity": 0.25984251968503935
          },
          {
            "duration": 0.10000000000000142,
            "durationTicks": 96,
            "midi": 35,
            "name": "B1",
            "ticks": 49152,
            "time": 51.2,
            "velocity": 0.25984251968503935
          },
          {
            "duration": 0.20000000000000284,
            "durationTicks": 192,
            "midi": 38,
            "name": "D2",
            "ticks": 49152,
            "time": 51.2,
            "velocity": 0.25984251968503935
          },
          {
            "duration": 0.10000000000000142,
            "durationTicks": 96,
            "midi": 40,
            "name": "E2",
            "ticks": 49152,
            "time": 51.2,
            "velocity": 0.25984251968503935
          },
          {
            "duration": 0.20000000000000284,
            "durationTicks": 192,
            "midi": 36,
            "name": "C2",
            "ticks": 49152,
            "time": 51.2,
            "velocity": 0.25984251968503935
          },
          {
            "duration": 0.10000000000000142,
            "durationTicks": 96,
            "midi": 35,
            "name": "B1",
            "ticks": 49248,
            "time": 51.300000000000004,
            "velocity": 0.25984251968503935
          },
          {
            "duration": 0.10000000000000142,
            "durationTicks": 96,
            "midi": 40,
            "name": "E2",
            "ticks": 49248,
            "time": 51.300000000000004,
            "velocity": 0.25984251968503935
          },
          {
            "duration": 0.19999999999999574,
            "durationTicks": 192,
            "midi": 41,
            "name": "F2",
            "ticks": 49344,
            "time": 51.400000000000006,
            "velocity": 0.25984251968503935
          },
          {
            "duration": 0.09999999999999432,
            "durationTicks": 96,
            "midi": 35,
            "name": "B1",
            "ticks": 49344,
            "time": 51.400000000000006,
            "velocity": 0.25984251968503935
          },
          {
            "duration": 0.09999999999999432,
            "durationTicks": 96,
            "midi": 43,
            "name": "G2",
            "ticks": 49344,
            "time": 51.400000000000006,
            "velocity": 0.25984251968503935
          },
          {
            "duration": 0.10000000000000142,
            "durationTicks": 96,
            "midi": 43,
            "name": "G2",
            "ticks": 49440,
            "time": 51.5,
            "velocity": 0.25984251968503935
          },
          {
            "duration": 0.10000000000000142,
            "durationTicks": 96,
            "midi": 35,
            "name": "B1",
            "ticks": 49440,
            "time": 51.5,
            "velocity": 0.25984251968503935
          },
          {
            "duration": 0.20000000000000284,
            "durationTicks": 192,
            "midi": 38,
            "name": "D2",
            "ticks": 49536,
            "time": 51.6,
            "velocity": 0.25984251968503935
          },
          {
            "duration": 0.20000000000000284,
            "durationTicks": 192,
            "midi": 40,
            "name": "E2",
            "ticks": 49536,
            "time": 51.6,
            "velocity": 0.25984251968503935
          },
          {
            "duration": 0.20000000000000284,
            "durationTicks": 192,
            "midi": 36,
            "name": "C2",
            "ticks": 49536,
            "time": 51.6,
            "velocity": 0.25984251968503935
          },
          {
            "duration": 0.10000000000000142,
            "durationTicks": 96,
            "midi": 35,
            "name": "B1",
            "ticks": 49536,
            "time": 51.6,
            "velocity": 0.25984251968503935
          },
          {
            "duration": 0.10000000000000142,
            "durationTicks": 96,
            "midi": 35,
            "name": "B1",
            "ticks": 49632,
            "time": 51.7,
            "velocity": 0.25984251968503935
          },
          {
            "duration": 0.10000000000000142,
            "durationTicks": 96,
            "midi": 35,
            "name": "B1",
            "ticks": 49728,
            "time": 51.800000000000004,
            "velocity": 0.25984251968503935
          },
          {
            "duration": 0.19999999999999574,
            "durationTicks": 192,
            "midi": 41,
            "name": "F2",
            "ticks": 49728,
            "time": 51.800000000000004,
            "velocity": 0.25984251968503935
          },
          {
            "duration": 0.10000000000000142,
            "durationTicks": 96,
            "midi": 43,
            "name": "G2",
            "ticks": 49728,
            "time": 51.800000000000004,
            "velocity": 0.25984251968503935
          },
          {
            "duration": 0.09999999999999432,
            "durationTicks": 96,
            "midi": 43,
            "name": "G2",
            "ticks": 49824,
            "time": 51.900000000000006,
            "velocity": 0.25984251968503935
          },
          {
            "duration": 0.09999999999999432,
            "durationTicks": 96,
            "midi": 35,
            "name": "B1",
            "ticks": 49824,
            "time": 51.900000000000006,
            "velocity": 0.25984251968503935
          },
          {
            "duration": 0.20000000000000284,
            "durationTicks": 192,
            "midi": 38,
            "name": "D2",
            "ticks": 49920,
            "time": 52,
            "velocity": 0.25984251968503935
          },
          {
            "duration": 0.20000000000000284,
            "durationTicks": 192,
            "midi": 36,
            "name": "C2",
            "ticks": 49920,
            "time": 52,
            "velocity": 0.25984251968503935
          },
          {
            "duration": 0.10000000000000142,
            "durationTicks": 96,
            "midi": 35,
            "name": "B1",
            "ticks": 49920,
            "time": 52,
            "velocity": 0.25984251968503935
          },
          {
            "duration": 0.10000000000000142,
            "durationTicks": 96,
            "midi": 40,
            "name": "E2",
            "ticks": 49920,
            "time": 52,
            "velocity": 0.25984251968503935
          },
          {
            "duration": 0.10000000000000142,
            "durationTicks": 96,
            "midi": 40,
            "name": "E2",
            "ticks": 50016,
            "time": 52.1,
            "velocity": 0.25984251968503935
          },
          {
            "duration": 0.10000000000000142,
            "durationTicks": 96,
            "midi": 35,
            "name": "B1",
            "ticks": 50016,
            "time": 52.1,
            "velocity": 0.25984251968503935
          },
          {
            "duration": 0.10000000000000142,
            "durationTicks": 96,
            "midi": 43,
            "name": "G2",
            "ticks": 50112,
            "time": 52.2,
            "velocity": 0.25984251968503935
          },
          {
            "duration": 0.20000000000000284,
            "durationTicks": 192,
            "midi": 41,
            "name": "F2",
            "ticks": 50112,
            "time": 52.2,
            "velocity": 0.25984251968503935
          },
          {
            "duration": 0.10000000000000142,
            "durationTicks": 96,
            "midi": 35,
            "name": "B1",
            "ticks": 50112,
            "time": 52.2,
            "velocity": 0.25984251968503935
          },
          {
            "duration": 0.10000000000000142,
            "durationTicks": 96,
            "midi": 35,
            "name": "B1",
            "ticks": 50208,
            "time": 52.300000000000004,
            "velocity": 0.25984251968503935
          },
          {
            "duration": 0.10000000000000142,
            "durationTicks": 96,
            "midi": 43,
            "name": "G2",
            "ticks": 50208,
            "time": 52.300000000000004,
            "velocity": 0.25984251968503935
          },
          {
            "duration": 0.19999999999999574,
            "durationTicks": 192,
            "midi": 36,
            "name": "C2",
            "ticks": 50304,
            "time": 52.400000000000006,
            "velocity": 0.25984251968503935
          },
          {
            "duration": 0.19999999999999574,
            "durationTicks": 192,
            "midi": 38,
            "name": "D2",
            "ticks": 50304,
            "time": 52.400000000000006,
            "velocity": 0.25984251968503935
          },
          {
            "duration": 0.09999999999999432,
            "durationTicks": 96,
            "midi": 35,
            "name": "B1",
            "ticks": 50304,
            "time": 52.400000000000006,
            "velocity": 0.25984251968503935
          },
          {
            "duration": 0.19999999999999574,
            "durationTicks": 192,
            "midi": 40,
            "name": "E2",
            "ticks": 50304,
            "time": 52.400000000000006,
            "velocity": 0.25984251968503935
          },
          {
            "duration": 0.10000000000000142,
            "durationTicks": 96,
            "midi": 35,
            "name": "B1",
            "ticks": 50400,
            "time": 52.5,
            "velocity": 0.25984251968503935
          },
          {
            "duration": 0.20000000000000284,
            "durationTicks": 192,
            "midi": 41,
            "name": "F2",
            "ticks": 50496,
            "time": 52.6,
            "velocity": 0.25984251968503935
          },
          {
            "duration": 0.10000000000000142,
            "durationTicks": 96,
            "midi": 35,
            "name": "B1",
            "ticks": 50496,
            "time": 52.6,
            "velocity": 0.25984251968503935
          },
          {
            "duration": 0.10000000000000142,
            "durationTicks": 96,
            "midi": 43,
            "name": "G2",
            "ticks": 50496,
            "time": 52.6,
            "velocity": 0.25984251968503935
          },
          {
            "duration": 0.10000000000000142,
            "durationTicks": 96,
            "midi": 43,
            "name": "G2",
            "ticks": 50592,
            "time": 52.7,
            "velocity": 0.25984251968503935
          },
          {
            "duration": 0.10000000000000142,
            "durationTicks": 96,
            "midi": 35,
            "name": "B1",
            "ticks": 50592,
            "time": 52.7,
            "velocity": 0.25984251968503935
          },
          {
            "duration": 0.13333333333333286,
            "durationTicks": 128,
            "midi": 38,
            "name": "D2",
            "ticks": 50688,
            "time": 52.800000000000004,
            "velocity": 0.25984251968503935
          },
          {
            "duration": 0.13333333333333286,
            "durationTicks": 128,
            "midi": 35,
            "name": "B1",
            "ticks": 50688,
            "time": 52.800000000000004,
            "velocity": 0.25984251968503935
          },
          {
            "duration": 0.13333333333333286,
            "durationTicks": 128,
            "midi": 50,
            "name": "D3",
            "ticks": 50688,
            "time": 52.800000000000004,
            "velocity": 0.25984251968503935
          },
          {
            "duration": 0.13333333333332575,
            "durationTicks": 128,
            "midi": 38,
            "name": "D2",
            "ticks": 50816,
            "time": 52.93333333333334,
            "velocity": 0.25984251968503935
          },
          {
            "duration": 0.13333333333332575,
            "durationTicks": 128,
            "midi": 36,
            "name": "C2",
            "ticks": 50816,
            "time": 52.93333333333334,
            "velocity": 0.25984251968503935
          },
          {
            "duration": 0.13333333333333997,
            "durationTicks": 128,
            "midi": 48,
            "name": "C3",
            "ticks": 50944,
            "time": 53.06666666666666,
            "velocity": 0.25984251968503935
          },
          {
            "duration": 0.13333333333333997,
            "durationTicks": 128,
            "midi": 38,
            "name": "D2",
            "ticks": 50944,
            "time": 53.06666666666666,
            "velocity": 0.25984251968503935
          },
          {
            "duration": 0.13333333333333997,
            "durationTicks": 128,
            "midi": 35,
            "name": "B1",
            "ticks": 50944,
            "time": 53.06666666666666,
            "velocity": 0.25984251968503935
          },
          {
            "duration": 0.13333333333333997,
            "durationTicks": 128,
            "midi": 38,
            "name": "D2",
            "ticks": 51072,
            "time": 53.2,
            "velocity": 0.25984251968503935
          },
          {
            "duration": 0.13333333333333997,
            "durationTicks": 128,
            "midi": 36,
            "name": "C2",
            "ticks": 51072,
            "time": 53.2,
            "velocity": 0.25984251968503935
          },
          {
            "duration": 0.13333333333332575,
            "durationTicks": 128,
            "midi": 47,
            "name": "B2",
            "ticks": 51200,
            "time": 53.33333333333334,
            "velocity": 0.25984251968503935
          },
          {
            "duration": 0.13333333333332575,
            "durationTicks": 128,
            "midi": 38,
            "name": "D2",
            "ticks": 51200,
            "time": 53.33333333333334,
            "velocity": 0.25984251968503935
          },
          {
            "duration": 0.13333333333332575,
            "durationTicks": 128,
            "midi": 35,
            "name": "B1",
            "ticks": 51200,
            "time": 53.33333333333334,
            "velocity": 0.25984251968503935
          },
          {
            "duration": 0.13333333333333286,
            "durationTicks": 128,
            "midi": 38,
            "name": "D2",
            "ticks": 51328,
            "time": 53.46666666666667,
            "velocity": 0.25984251968503935
          },
          {
            "duration": 0.13333333333333286,
            "durationTicks": 128,
            "midi": 36,
            "name": "C2",
            "ticks": 51328,
            "time": 53.46666666666667,
            "velocity": 0.25984251968503935
          },
          {
            "duration": 0.13333333333333997,
            "durationTicks": 128,
            "midi": 35,
            "name": "B1",
            "ticks": 51456,
            "time": 53.6,
            "velocity": 0.25984251968503935
          },
          {
            "duration": 0.13333333333333997,
            "durationTicks": 128,
            "midi": 45,
            "name": "A2",
            "ticks": 51456,
            "time": 53.6,
            "velocity": 0.25984251968503935
          },
          {
            "duration": 0.13333333333333997,
            "durationTicks": 128,
            "midi": 40,
            "name": "E2",
            "ticks": 51456,
            "time": 53.6,
            "velocity": 0.25984251968503935
          },
          {
            "duration": 0.13333333333332575,
            "durationTicks": 128,
            "midi": 40,
            "name": "E2",
            "ticks": 51584,
            "time": 53.73333333333334,
            "velocity": 0.25984251968503935
          },
          {
            "duration": 0.13333333333332575,
            "durationTicks": 128,
            "midi": 36,
            "name": "C2",
            "ticks": 51584,
            "time": 53.73333333333334,
            "velocity": 0.25984251968503935
          },
          {
            "duration": 0.13333333333333286,
            "durationTicks": 128,
            "midi": 40,
            "name": "E2",
            "ticks": 51712,
            "time": 53.86666666666667,
            "velocity": 0.25984251968503935
          },
          {
            "duration": 0.13333333333333286,
            "durationTicks": 128,
            "midi": 35,
            "name": "B1",
            "ticks": 51712,
            "time": 53.86666666666667,
            "velocity": 0.25984251968503935
          },
          {
            "duration": 0.13333333333333286,
            "durationTicks": 128,
            "midi": 43,
            "name": "G2",
            "ticks": 51712,
            "time": 53.86666666666667,
            "velocity": 0.25984251968503935
          },
          {
            "duration": 0.13333333333333997,
            "durationTicks": 128,
            "midi": 36,
            "name": "C2",
            "ticks": 51840,
            "time": 54,
            "velocity": 0.25984251968503935
          },
          {
            "duration": 0.13333333333333997,
            "durationTicks": 128,
            "midi": 40,
            "name": "E2",
            "ticks": 51840,
            "time": 54,
            "velocity": 0.25984251968503935
          },
          {
            "duration": 0.13333333333332575,
            "durationTicks": 128,
            "midi": 41,
            "name": "F2",
            "ticks": 51968,
            "time": 54.13333333333334,
            "velocity": 0.25984251968503935
          },
          {
            "duration": 0.13333333333332575,
            "durationTicks": 128,
            "midi": 35,
            "name": "B1",
            "ticks": 51968,
            "time": 54.13333333333334,
            "velocity": 0.25984251968503935
          },
          {
            "duration": 0.13333333333332575,
            "durationTicks": 128,
            "midi": 40,
            "name": "E2",
            "ticks": 51968,
            "time": 54.13333333333334,
            "velocity": 0.25984251968503935
          },
          {
            "duration": 0.13333333333333997,
            "durationTicks": 128,
            "midi": 36,
            "name": "C2",
            "ticks": 52096,
            "time": 54.266666666666666,
            "velocity": 0.25984251968503935
          },
          {
            "duration": 0.13333333333333997,
            "durationTicks": 128,
            "midi": 40,
            "name": "E2",
            "ticks": 52096,
            "time": 54.266666666666666,
            "velocity": 0.25984251968503935
          },
          {
            "duration": 0.19999999999999574,
            "durationTicks": 192,
            "midi": 38,
            "name": "D2",
            "ticks": 52224,
            "time": 54.400000000000006,
            "velocity": 0.25984251968503935
          },
          {
            "duration": 0.19999999999999574,
            "durationTicks": 192,
            "midi": 36,
            "name": "C2",
            "ticks": 52224,
            "time": 54.400000000000006,
            "velocity": 0.25984251968503935
          },
          {
            "duration": 0.09999999999999432,
            "durationTicks": 96,
            "midi": 40,
            "name": "E2",
            "ticks": 52224,
            "time": 54.400000000000006,
            "velocity": 0.25984251968503935
          },
          {
            "duration": 0.09999999999999432,
            "durationTicks": 96,
            "midi": 35,
            "name": "B1",
            "ticks": 52224,
            "time": 54.400000000000006,
            "velocity": 0.25984251968503935
          },
          {
            "duration": 0.10000000000000142,
            "durationTicks": 96,
            "midi": 40,
            "name": "E2",
            "ticks": 52320,
            "time": 54.5,
            "velocity": 0.25984251968503935
          },
          {
            "duration": 0.10000000000000142,
            "durationTicks": 96,
            "midi": 35,
            "name": "B1",
            "ticks": 52320,
            "time": 54.5,
            "velocity": 0.25984251968503935
          },
          {
            "duration": 0.10000000000000142,
            "durationTicks": 96,
            "midi": 43,
            "name": "G2",
            "ticks": 52416,
            "time": 54.6,
            "velocity": 0.25984251968503935
          },
          {
            "duration": 0.10000000000000142,
            "durationTicks": 96,
            "midi": 35,
            "name": "B1",
            "ticks": 52416,
            "time": 54.6,
            "velocity": 0.25984251968503935
          },
          {
            "duration": 0.20000000000000284,
            "durationTicks": 192,
            "midi": 41,
            "name": "F2",
            "ticks": 52416,
            "time": 54.6,
            "velocity": 0.25984251968503935
          },
          {
            "duration": 0.10000000000000142,
            "durationTicks": 96,
            "midi": 35,
            "name": "B1",
            "ticks": 52512,
            "time": 54.7,
            "velocity": 0.25984251968503935
          },
          {
            "duration": 0.10000000000000142,
            "durationTicks": 96,
            "midi": 43,
            "name": "G2",
            "ticks": 52512,
            "time": 54.7,
            "velocity": 0.25984251968503935
          },
          {
            "duration": 0.19999999999999574,
            "durationTicks": 192,
            "midi": 38,
            "name": "D2",
            "ticks": 52608,
            "time": 54.800000000000004,
            "velocity": 0.25984251968503935
          },
          {
            "duration": 0.10000000000000142,
            "durationTicks": 96,
            "midi": 35,
            "name": "B1",
            "ticks": 52608,
            "time": 54.800000000000004,
            "velocity": 0.25984251968503935
          },
          {
            "duration": 0.19999999999999574,
            "durationTicks": 192,
            "midi": 40,
            "name": "E2",
            "ticks": 52608,
            "time": 54.800000000000004,
            "velocity": 0.25984251968503935
          },
          {
            "duration": 0.19999999999999574,
            "durationTicks": 192,
            "midi": 36,
            "name": "C2",
            "ticks": 52608,
            "time": 54.800000000000004,
            "velocity": 0.25984251968503935
          },
          {
            "duration": 0.09999999999999432,
            "durationTicks": 96,
            "midi": 35,
            "name": "B1",
            "ticks": 52704,
            "time": 54.900000000000006,
            "velocity": 0.25984251968503935
          },
          {
            "duration": 0.10000000000000142,
            "durationTicks": 96,
            "midi": 35,
            "name": "B1",
            "ticks": 52800,
            "time": 55,
            "velocity": 0.25984251968503935
          },
          {
            "duration": 0.20000000000000284,
            "durationTicks": 192,
            "midi": 41,
            "name": "F2",
            "ticks": 52800,
            "time": 55,
            "velocity": 0.25984251968503935
          },
          {
            "duration": 0.10000000000000142,
            "durationTicks": 96,
            "midi": 43,
            "name": "G2",
            "ticks": 52800,
            "time": 55,
            "velocity": 0.25984251968503935
          },
          {
            "duration": 0.10000000000000142,
            "durationTicks": 96,
            "midi": 43,
            "name": "G2",
            "ticks": 52896,
            "time": 55.1,
            "velocity": 0.25984251968503935
          },
          {
            "duration": 0.10000000000000142,
            "durationTicks": 96,
            "midi": 35,
            "name": "B1",
            "ticks": 52896,
            "time": 55.1,
            "velocity": 0.25984251968503935
          },
          {
            "duration": 0.10000000000000142,
            "durationTicks": 96,
            "midi": 40,
            "name": "E2",
            "ticks": 52992,
            "time": 55.2,
            "velocity": 0.25984251968503935
          },
          {
            "duration": 0.20000000000000284,
            "durationTicks": 192,
            "midi": 38,
            "name": "D2",
            "ticks": 52992,
            "time": 55.2,
            "velocity": 0.25984251968503935
          },
          {
            "duration": 0.10000000000000142,
            "durationTicks": 96,
            "midi": 35,
            "name": "B1",
            "ticks": 52992,
            "time": 55.2,
            "velocity": 0.25984251968503935
          },
          {
            "duration": 0.20000000000000284,
            "durationTicks": 192,
            "midi": 36,
            "name": "C2",
            "ticks": 52992,
            "time": 55.2,
            "velocity": 0.25984251968503935
          },
          {
            "duration": 0.10000000000000142,
            "durationTicks": 96,
            "midi": 40,
            "name": "E2",
            "ticks": 53088,
            "time": 55.300000000000004,
            "velocity": 0.25984251968503935
          },
          {
            "duration": 0.10000000000000142,
            "durationTicks": 96,
            "midi": 35,
            "name": "B1",
            "ticks": 53088,
            "time": 55.300000000000004,
            "velocity": 0.25984251968503935
          },
          {
            "duration": 0.09999999999999432,
            "durationTicks": 96,
            "midi": 43,
            "name": "G2",
            "ticks": 53184,
            "time": 55.400000000000006,
            "velocity": 0.25984251968503935
          },
          {
            "duration": 0.09999999999999432,
            "durationTicks": 96,
            "midi": 35,
            "name": "B1",
            "ticks": 53184,
            "time": 55.400000000000006,
            "velocity": 0.25984251968503935
          },
          {
            "duration": 0.19999999999999574,
            "durationTicks": 192,
            "midi": 41,
            "name": "F2",
            "ticks": 53184,
            "time": 55.400000000000006,
            "velocity": 0.25984251968503935
          },
          {
            "duration": 0.10000000000000142,
            "durationTicks": 96,
            "midi": 35,
            "name": "B1",
            "ticks": 53280,
            "time": 55.5,
            "velocity": 0.25984251968503935
          },
          {
            "duration": 0.10000000000000142,
            "durationTicks": 96,
            "midi": 43,
            "name": "G2",
            "ticks": 53280,
            "time": 55.5,
            "velocity": 0.25984251968503935
          },
          {
            "duration": 0.20000000000000284,
            "durationTicks": 192,
            "midi": 40,
            "name": "E2",
            "ticks": 53376,
            "time": 55.6,
            "velocity": 0.25984251968503935
          },
          {
            "duration": 0.20000000000000284,
            "durationTicks": 192,
            "midi": 36,
            "name": "C2",
            "ticks": 53376,
            "time": 55.6,
            "velocity": 0.25984251968503935
          },
          {
            "duration": 0.10000000000000142,
            "durationTicks": 96,
            "midi": 35,
            "name": "B1",
            "ticks": 53376,
            "time": 55.6,
            "velocity": 0.25984251968503935
          },
          {
            "duration": 0.20000000000000284,
            "durationTicks": 192,
            "midi": 38,
            "name": "D2",
            "ticks": 53376,
            "time": 55.6,
            "velocity": 0.25984251968503935
          },
          {
            "duration": 0.10000000000000142,
            "durationTicks": 96,
            "midi": 35,
            "name": "B1",
            "ticks": 53472,
            "time": 55.7,
            "velocity": 0.25984251968503935
          },
          {
            "duration": 0.10000000000000142,
            "durationTicks": 96,
            "midi": 35,
            "name": "B1",
            "ticks": 53568,
            "time": 55.800000000000004,
            "velocity": 0.25984251968503935
          },
          {
            "duration": 0.10000000000000142,
            "durationTicks": 96,
            "midi": 43,
            "name": "G2",
            "ticks": 53568,
            "time": 55.800000000000004,
            "velocity": 0.25984251968503935
          },
          {
            "duration": 0.19999999999999574,
            "durationTicks": 192,
            "midi": 41,
            "name": "F2",
            "ticks": 53568,
            "time": 55.800000000000004,
            "velocity": 0.25984251968503935
          },
          {
            "duration": 0.09999999999999432,
            "durationTicks": 96,
            "midi": 43,
            "name": "G2",
            "ticks": 53664,
            "time": 55.900000000000006,
            "velocity": 0.25984251968503935
          },
          {
            "duration": 0.09999999999999432,
            "durationTicks": 96,
            "midi": 35,
            "name": "B1",
            "ticks": 53664,
            "time": 55.900000000000006,
            "velocity": 0.25984251968503935
          },
          {
            "duration": 0.20000000000000284,
            "durationTicks": 192,
            "midi": 36,
            "name": "C2",
            "ticks": 53760,
            "time": 56,
            "velocity": 0.25984251968503935
          },
          {
            "duration": 0.10000000000000142,
            "durationTicks": 96,
            "midi": 40,
            "name": "E2",
            "ticks": 53760,
            "time": 56,
            "velocity": 0.25984251968503935
          },
          {
            "duration": 0.10000000000000142,
            "durationTicks": 96,
            "midi": 35,
            "name": "B1",
            "ticks": 53760,
            "time": 56,
            "velocity": 0.25984251968503935
          },
          {
            "duration": 0.20000000000000284,
            "durationTicks": 192,
            "midi": 38,
            "name": "D2",
            "ticks": 53760,
            "time": 56,
            "velocity": 0.25984251968503935
          },
          {
            "duration": 0.10000000000000142,
            "durationTicks": 96,
            "midi": 35,
            "name": "B1",
            "ticks": 53856,
            "time": 56.1,
            "velocity": 0.25984251968503935
          },
          {
            "duration": 0.10000000000000142,
            "durationTicks": 96,
            "midi": 40,
            "name": "E2",
            "ticks": 53856,
            "time": 56.1,
            "velocity": 0.25984251968503935
          },
          {
            "duration": 0.10000000000000142,
            "durationTicks": 96,
            "midi": 35,
            "name": "B1",
            "ticks": 53952,
            "time": 56.2,
            "velocity": 0.25984251968503935
          },
          {
            "duration": 0.20000000000000284,
            "durationTicks": 192,
            "midi": 41,
            "name": "F2",
            "ticks": 53952,
            "time": 56.2,
            "velocity": 0.25984251968503935
          },
          {
            "duration": 0.10000000000000142,
            "durationTicks": 96,
            "midi": 43,
            "name": "G2",
            "ticks": 53952,
            "time": 56.2,
            "velocity": 0.25984251968503935
          },
          {
            "duration": 0.10000000000000142,
            "durationTicks": 96,
            "midi": 43,
            "name": "G2",
            "ticks": 54048,
            "time": 56.300000000000004,
            "velocity": 0.25984251968503935
          },
          {
            "duration": 0.10000000000000142,
            "durationTicks": 96,
            "midi": 35,
            "name": "B1",
            "ticks": 54048,
            "time": 56.300000000000004,
            "velocity": 0.25984251968503935
          },
          {
            "duration": 0.19999999999999574,
            "durationTicks": 192,
            "midi": 36,
            "name": "C2",
            "ticks": 54144,
            "time": 56.400000000000006,
            "velocity": 0.25984251968503935
          },
          {
            "duration": 0.09999999999999432,
            "durationTicks": 96,
            "midi": 35,
            "name": "B1",
            "ticks": 54144,
            "time": 56.400000000000006,
            "velocity": 0.25984251968503935
          },
          {
            "duration": 0.19999999999999574,
            "durationTicks": 192,
            "midi": 40,
            "name": "E2",
            "ticks": 54144,
            "time": 56.400000000000006,
            "velocity": 0.25984251968503935
          },
          {
            "duration": 0.19999999999999574,
            "durationTicks": 192,
            "midi": 38,
            "name": "D2",
            "ticks": 54144,
            "time": 56.400000000000006,
            "velocity": 0.25984251968503935
          },
          {
            "duration": 0.10000000000000142,
            "durationTicks": 96,
            "midi": 35,
            "name": "B1",
            "ticks": 54240,
            "time": 56.5,
            "velocity": 0.25984251968503935
          },
          {
            "duration": 0.10000000000000142,
            "durationTicks": 96,
            "midi": 35,
            "name": "B1",
            "ticks": 54336,
            "time": 56.6,
            "velocity": 0.25984251968503935
          },
          {
            "duration": 0.10000000000000142,
            "durationTicks": 96,
            "midi": 43,
            "name": "G2",
            "ticks": 54336,
            "time": 56.6,
            "velocity": 0.25984251968503935
          },
          {
            "duration": 0.20000000000000284,
            "durationTicks": 192,
            "midi": 41,
            "name": "F2",
            "ticks": 54336,
            "time": 56.6,
            "velocity": 0.25984251968503935
          },
          {
            "duration": 0.10000000000000142,
            "durationTicks": 96,
            "midi": 35,
            "name": "B1",
            "ticks": 54432,
            "time": 56.7,
            "velocity": 0.25984251968503935
          },
          {
            "duration": 0.10000000000000142,
            "durationTicks": 96,
            "midi": 43,
            "name": "G2",
            "ticks": 54432,
            "time": 56.7,
            "velocity": 0.25984251968503935
          },
          {
            "duration": 0.10000000000000142,
            "durationTicks": 96,
            "midi": 35,
            "name": "B1",
            "ticks": 54528,
            "time": 56.800000000000004,
            "velocity": 0.25984251968503935
          },
          {
            "duration": 0.19999999999999574,
            "durationTicks": 192,
            "midi": 36,
            "name": "C2",
            "ticks": 54528,
            "time": 56.800000000000004,
            "velocity": 0.25984251968503935
          },
          {
            "duration": 0.19999999999999574,
            "durationTicks": 192,
            "midi": 38,
            "name": "D2",
            "ticks": 54528,
            "time": 56.800000000000004,
            "velocity": 0.25984251968503935
          },
          {
            "duration": 0.10000000000000142,
            "durationTicks": 96,
            "midi": 40,
            "name": "E2",
            "ticks": 54528,
            "time": 56.800000000000004,
            "velocity": 0.25984251968503935
          },
          {
            "duration": 0.09999999999999432,
            "durationTicks": 96,
            "midi": 35,
            "name": "B1",
            "ticks": 54624,
            "time": 56.900000000000006,
            "velocity": 0.25984251968503935
          },
          {
            "duration": 0.09999999999999432,
            "durationTicks": 96,
            "midi": 40,
            "name": "E2",
            "ticks": 54624,
            "time": 56.900000000000006,
            "velocity": 0.25984251968503935
          },
          {
            "duration": 0.10000000000000142,
            "durationTicks": 96,
            "midi": 43,
            "name": "G2",
            "ticks": 54720,
            "time": 57,
            "velocity": 0.25984251968503935
          },
          {
            "duration": 0.10000000000000142,
            "durationTicks": 96,
            "midi": 35,
            "name": "B1",
            "ticks": 54720,
            "time": 57,
            "velocity": 0.25984251968503935
          },
          {
            "duration": 0.20000000000000284,
            "durationTicks": 192,
            "midi": 41,
            "name": "F2",
            "ticks": 54720,
            "time": 57,
            "velocity": 0.25984251968503935
          },
          {
            "duration": 0.10000000000000142,
            "durationTicks": 96,
            "midi": 43,
            "name": "G2",
            "ticks": 54816,
            "time": 57.1,
            "velocity": 0.25984251968503935
          },
          {
            "duration": 0.10000000000000142,
            "durationTicks": 96,
            "midi": 35,
            "name": "B1",
            "ticks": 54816,
            "time": 57.1,
            "velocity": 0.25984251968503935
          },
          {
            "duration": 0.20000000000000284,
            "durationTicks": 192,
            "midi": 38,
            "name": "D2",
            "ticks": 54912,
            "time": 57.2,
            "velocity": 0.25984251968503935
          },
          {
            "duration": 0.10000000000000142,
            "durationTicks": 96,
            "midi": 35,
            "name": "B1",
            "ticks": 54912,
            "time": 57.2,
            "velocity": 0.25984251968503935
          },
          {
            "duration": 0.20000000000000284,
            "durationTicks": 192,
            "midi": 36,
            "name": "C2",
            "ticks": 54912,
            "time": 57.2,
            "velocity": 0.25984251968503935
          },
          {
            "duration": 0.20000000000000284,
            "durationTicks": 192,
            "midi": 40,
            "name": "E2",
            "ticks": 54912,
            "time": 57.2,
            "velocity": 0.25984251968503935
          },
          {
            "duration": 0.10000000000000142,
            "durationTicks": 96,
            "midi": 35,
            "name": "B1",
            "ticks": 55008,
            "time": 57.300000000000004,
            "velocity": 0.25984251968503935
          },
          {
            "duration": 0.09999999999999432,
            "durationTicks": 96,
            "midi": 35,
            "name": "B1",
            "ticks": 55104,
            "time": 57.400000000000006,
            "velocity": 0.25984251968503935
          },
          {
            "duration": 0.09999999999999432,
            "durationTicks": 96,
            "midi": 43,
            "name": "G2",
            "ticks": 55104,
            "time": 57.400000000000006,
            "velocity": 0.25984251968503935
          },
          {
            "duration": 0.19999999999999574,
            "durationTicks": 192,
            "midi": 41,
            "name": "F2",
            "ticks": 55104,
            "time": 57.400000000000006,
            "velocity": 0.25984251968503935
          },
          {
            "duration": 0.10000000000000142,
            "durationTicks": 96,
            "midi": 43,
            "name": "G2",
            "ticks": 55200,
            "time": 57.5,
            "velocity": 0.25984251968503935
          },
          {
            "duration": 0.10000000000000142,
            "durationTicks": 96,
            "midi": 35,
            "name": "B1",
            "ticks": 55200,
            "time": 57.5,
            "velocity": 0.25984251968503935
          },
          {
            "duration": 0.10000000000000142,
            "durationTicks": 96,
            "midi": 35,
            "name": "B1",
            "ticks": 55296,
            "time": 57.6,
            "velocity": 0.25984251968503935
          },
          {
            "duration": 0.20000000000000284,
            "durationTicks": 192,
            "midi": 38,
            "name": "D2",
            "ticks": 55296,
            "time": 57.6,
            "velocity": 0.25984251968503935
          },
          {
            "duration": 0.20000000000000284,
            "durationTicks": 192,
            "midi": 36,
            "name": "C2",
            "ticks": 55296,
            "time": 57.6,
            "velocity": 0.25984251968503935
          },
          {
            "duration": 0.10000000000000142,
            "durationTicks": 96,
            "midi": 40,
            "name": "E2",
            "ticks": 55296,
            "time": 57.6,
            "velocity": 0.25984251968503935
          },
          {
            "duration": 0.10000000000000142,
            "durationTicks": 96,
            "midi": 35,
            "name": "B1",
            "ticks": 55392,
            "time": 57.7,
            "velocity": 0.25984251968503935
          },
          {
            "duration": 0.10000000000000142,
            "durationTicks": 96,
            "midi": 40,
            "name": "E2",
            "ticks": 55392,
            "time": 57.7,
            "velocity": 0.25984251968503935
          },
          {
            "duration": 0.10000000000000142,
            "durationTicks": 96,
            "midi": 35,
            "name": "B1",
            "ticks": 55488,
            "time": 57.800000000000004,
            "velocity": 0.25984251968503935
          },
          {
            "duration": 0.10000000000000142,
            "durationTicks": 96,
            "midi": 43,
            "name": "G2",
            "ticks": 55488,
            "time": 57.800000000000004,
            "velocity": 0.25984251968503935
          },
          {
            "duration": 0.19999999999999574,
            "durationTicks": 192,
            "midi": 41,
            "name": "F2",
            "ticks": 55488,
            "time": 57.800000000000004,
            "velocity": 0.25984251968503935
          },
          {
            "duration": 0.09999999999999432,
            "durationTicks": 96,
            "midi": 43,
            "name": "G2",
            "ticks": 55584,
            "time": 57.900000000000006,
            "velocity": 0.25984251968503935
          },
          {
            "duration": 0.09999999999999432,
            "durationTicks": 96,
            "midi": 35,
            "name": "B1",
            "ticks": 55584,
            "time": 57.900000000000006,
            "velocity": 0.25984251968503935
          },
          {
            "duration": 0.10000000000000142,
            "durationTicks": 96,
            "midi": 35,
            "name": "B1",
            "ticks": 55680,
            "time": 58,
            "velocity": 0.25984251968503935
          },
          {
            "duration": 0.20000000000000284,
            "durationTicks": 192,
            "midi": 40,
            "name": "E2",
            "ticks": 55680,
            "time": 58,
            "velocity": 0.25984251968503935
          },
          {
            "duration": 0.20000000000000284,
            "durationTicks": 192,
            "midi": 36,
            "name": "C2",
            "ticks": 55680,
            "time": 58,
            "velocity": 0.25984251968503935
          },
          {
            "duration": 0.20000000000000284,
            "durationTicks": 192,
            "midi": 38,
            "name": "D2",
            "ticks": 55680,
            "time": 58,
            "velocity": 0.25984251968503935
          },
          {
            "duration": 0.10000000000000142,
            "durationTicks": 96,
            "midi": 35,
            "name": "B1",
            "ticks": 55776,
            "time": 58.1,
            "velocity": 0.25984251968503935
          },
          {
            "duration": 0.10000000000000142,
            "durationTicks": 96,
            "midi": 43,
            "name": "G2",
            "ticks": 55872,
            "time": 58.2,
            "velocity": 0.25984251968503935
          },
          {
            "duration": 0.20000000000000284,
            "durationTicks": 192,
            "midi": 41,
            "name": "F2",
            "ticks": 55872,
            "time": 58.2,
            "velocity": 0.25984251968503935
          },
          {
            "duration": 0.10000000000000142,
            "durationTicks": 96,
            "midi": 35,
            "name": "B1",
            "ticks": 55872,
            "time": 58.2,
            "velocity": 0.25984251968503935
          },
          {
            "duration": 0.10000000000000142,
            "durationTicks": 96,
            "midi": 35,
            "name": "B1",
            "ticks": 55968,
            "time": 58.300000000000004,
            "velocity": 0.25984251968503935
          },
          {
            "duration": 0.10000000000000142,
            "durationTicks": 96,
            "midi": 43,
            "name": "G2",
            "ticks": 55968,
            "time": 58.300000000000004,
            "velocity": 0.25984251968503935
          },
          {
            "duration": 0.19999999999999574,
            "durationTicks": 192,
            "midi": 38,
            "name": "D2",
            "ticks": 56064,
            "time": 58.400000000000006,
            "velocity": 0.25984251968503935
          },
          {
            "duration": 0.09999999999999432,
            "durationTicks": 96,
            "midi": 40,
            "name": "E2",
            "ticks": 56064,
            "time": 58.400000000000006,
            "velocity": 0.25984251968503935
          },
          {
            "duration": 0.19999999999999574,
            "durationTicks": 192,
            "midi": 36,
            "name": "C2",
            "ticks": 56064,
            "time": 58.400000000000006,
            "velocity": 0.25984251968503935
          },
          {
            "duration": 0.09999999999999432,
            "durationTicks": 96,
            "midi": 35,
            "name": "B1",
            "ticks": 56064,
            "time": 58.400000000000006,
            "velocity": 0.25984251968503935
          },
          {
            "duration": 0.10000000000000142,
            "durationTicks": 96,
            "midi": 40,
            "name": "E2",
            "ticks": 56160,
            "time": 58.5,
            "velocity": 0.25984251968503935
          },
          {
            "duration": 0.10000000000000142,
            "durationTicks": 96,
            "midi": 35,
            "name": "B1",
            "ticks": 56160,
            "time": 58.5,
            "velocity": 0.25984251968503935
          },
          {
            "duration": 0.10000000000000142,
            "durationTicks": 96,
            "midi": 43,
            "name": "G2",
            "ticks": 56256,
            "time": 58.6,
            "velocity": 0.25984251968503935
          },
          {
            "duration": 0.20000000000000284,
            "durationTicks": 192,
            "midi": 41,
            "name": "F2",
            "ticks": 56256,
            "time": 58.6,
            "velocity": 0.25984251968503935
          },
          {
            "duration": 0.10000000000000142,
            "durationTicks": 96,
            "midi": 35,
            "name": "B1",
            "ticks": 56256,
            "time": 58.6,
            "velocity": 0.25984251968503935
          },
          {
            "duration": 0.10000000000000142,
            "durationTicks": 96,
            "midi": 43,
            "name": "G2",
            "ticks": 56352,
            "time": 58.7,
            "velocity": 0.25984251968503935
          },
          {
            "duration": 0.10000000000000142,
            "durationTicks": 96,
            "midi": 35,
            "name": "B1",
            "ticks": 56352,
            "time": 58.7,
            "velocity": 0.25984251968503935
          },
          {
            "duration": 0.10000000000000142,
            "durationTicks": 96,
            "midi": 35,
            "name": "B1",
            "ticks": 56448,
            "time": 58.800000000000004,
            "velocity": 0.25984251968503935
          },
          {
            "duration": 0.19999999999999574,
            "durationTicks": 192,
            "midi": 36,
            "name": "C2",
            "ticks": 56448,
            "time": 58.800000000000004,
            "velocity": 0.25984251968503935
          },
          {
            "duration": 0.19999999999999574,
            "durationTicks": 192,
            "midi": 38,
            "name": "D2",
            "ticks": 56448,
            "time": 58.800000000000004,
            "velocity": 0.25984251968503935
          },
          {
            "duration": 0.19999999999999574,
            "durationTicks": 192,
            "midi": 40,
            "name": "E2",
            "ticks": 56448,
            "time": 58.800000000000004,
            "velocity": 0.25984251968503935
          },
          {
            "duration": 0.09999999999999432,
            "durationTicks": 96,
            "midi": 35,
            "name": "B1",
            "ticks": 56544,
            "time": 58.900000000000006,
            "velocity": 0.25984251968503935
          },
          {
            "duration": 0.10000000000000142,
            "durationTicks": 96,
            "midi": 35,
            "name": "B1",
            "ticks": 56640,
            "time": 59,
            "velocity": 0.25984251968503935
          },
          {
            "duration": 0.20000000000000284,
            "durationTicks": 192,
            "midi": 41,
            "name": "F2",
            "ticks": 56640,
            "time": 59,
            "velocity": 0.25984251968503935
          },
          {
            "duration": 0.10000000000000142,
            "durationTicks": 96,
            "midi": 43,
            "name": "G2",
            "ticks": 56640,
            "time": 59,
            "velocity": 0.25984251968503935
          },
          {
            "duration": 0.10000000000000142,
            "durationTicks": 96,
            "midi": 35,
            "name": "B1",
            "ticks": 56736,
            "time": 59.1,
            "velocity": 0.25984251968503935
          },
          {
            "duration": 0.10000000000000142,
            "durationTicks": 96,
            "midi": 43,
            "name": "G2",
            "ticks": 56736,
            "time": 59.1,
            "velocity": 0.25984251968503935
          },
          {
            "duration": 0.10000000000000142,
            "durationTicks": 96,
            "midi": 40,
            "name": "E2",
            "ticks": 56832,
            "time": 59.2,
            "velocity": 0.25984251968503935
          },
          {
            "duration": 0.20000000000000284,
            "durationTicks": 192,
            "midi": 38,
            "name": "D2",
            "ticks": 56832,
            "time": 59.2,
            "velocity": 0.25984251968503935
          },
          {
            "duration": 0.20000000000000284,
            "durationTicks": 192,
            "midi": 36,
            "name": "C2",
            "ticks": 56832,
            "time": 59.2,
            "velocity": 0.25984251968503935
          },
          {
            "duration": 0.10000000000000142,
            "durationTicks": 96,
            "midi": 35,
            "name": "B1",
            "ticks": 56832,
            "time": 59.2,
            "velocity": 0.25984251968503935
          },
          {
            "duration": 0.10000000000000142,
            "durationTicks": 96,
            "midi": 40,
            "name": "E2",
            "ticks": 56928,
            "time": 59.300000000000004,
            "velocity": 0.25984251968503935
          },
          {
            "duration": 0.10000000000000142,
            "durationTicks": 96,
            "midi": 35,
            "name": "B1",
            "ticks": 56928,
            "time": 59.300000000000004,
            "velocity": 0.25984251968503935
          },
          {
            "duration": 0.09999999999999432,
            "durationTicks": 96,
            "midi": 43,
            "name": "G2",
            "ticks": 57024,
            "time": 59.400000000000006,
            "velocity": 0.25984251968503935
          },
          {
            "duration": 0.09999999999999432,
            "durationTicks": 96,
            "midi": 35,
            "name": "B1",
            "ticks": 57024,
            "time": 59.400000000000006,
            "velocity": 0.25984251968503935
          },
          {
            "duration": 0.19999999999999574,
            "durationTicks": 192,
            "midi": 41,
            "name": "F2",
            "ticks": 57024,
            "time": 59.400000000000006,
            "velocity": 0.25984251968503935
          },
          {
            "duration": 0.10000000000000142,
            "durationTicks": 96,
            "midi": 43,
            "name": "G2",
            "ticks": 57120,
            "time": 59.5,
            "velocity": 0.25984251968503935
          },
          {
            "duration": 0.10000000000000142,
            "durationTicks": 96,
            "midi": 35,
            "name": "B1",
            "ticks": 57120,
            "time": 59.5,
            "velocity": 0.25984251968503935
          },
          {
            "duration": 0.10000000000000142,
            "durationTicks": 96,
            "midi": 35,
            "name": "B1",
            "ticks": 57216,
            "time": 59.6,
            "velocity": 0.25984251968503935
          },
          {
            "duration": 0.20000000000000284,
            "durationTicks": 192,
            "midi": 40,
            "name": "E2",
            "ticks": 57216,
            "time": 59.6,
            "velocity": 0.25984251968503935
          },
          {
            "duration": 0.20000000000000284,
            "durationTicks": 192,
            "midi": 38,
            "name": "D2",
            "ticks": 57216,
            "time": 59.6,
            "velocity": 0.25984251968503935
          },
          {
            "duration": 0.20000000000000284,
            "durationTicks": 192,
            "midi": 36,
            "name": "C2",
            "ticks": 57216,
            "time": 59.6,
            "velocity": 0.25984251968503935
          },
          {
            "duration": 0.10000000000000142,
            "durationTicks": 96,
            "midi": 35,
            "name": "B1",
            "ticks": 57312,
            "time": 59.7,
            "velocity": 0.25984251968503935
          },
          {
            "duration": 0.10000000000000142,
            "durationTicks": 96,
            "midi": 43,
            "name": "G2",
            "ticks": 57408,
            "time": 59.800000000000004,
            "velocity": 0.25984251968503935
          },
          {
            "duration": 0.10000000000000142,
            "durationTicks": 96,
            "midi": 35,
            "name": "B1",
            "ticks": 57408,
            "time": 59.800000000000004,
            "velocity": 0.25984251968503935
          },
          {
            "duration": 0.19999999999999574,
            "durationTicks": 192,
            "midi": 41,
            "name": "F2",
            "ticks": 57408,
            "time": 59.800000000000004,
            "velocity": 0.25984251968503935
          },
          {
            "duration": 0.09999999999999432,
            "durationTicks": 96,
            "midi": 35,
            "name": "B1",
            "ticks": 57504,
            "time": 59.900000000000006,
            "velocity": 0.25984251968503935
          },
          {
            "duration": 0.09999999999999432,
            "durationTicks": 96,
            "midi": 43,
            "name": "G2",
            "ticks": 57504,
            "time": 59.900000000000006,
            "velocity": 0.25984251968503935
          },
          {
            "duration": 0.20000000000000284,
            "durationTicks": 192,
            "midi": 36,
            "name": "C2",
            "ticks": 57600,
            "time": 60,
            "velocity": 0.25984251968503935
          },
          {
            "duration": 0.20000000000000284,
            "durationTicks": 192,
            "midi": 38,
            "name": "D2",
            "ticks": 57600,
            "time": 60,
            "velocity": 0.25984251968503935
          },
          {
            "duration": 0.10000000000000142,
            "durationTicks": 96,
            "midi": 40,
            "name": "E2",
            "ticks": 57600,
            "time": 60,
            "velocity": 0.25984251968503935
          },
          {
            "duration": 0.10000000000000142,
            "durationTicks": 96,
            "midi": 35,
            "name": "B1",
            "ticks": 57600,
            "time": 60,
            "velocity": 0.25984251968503935
          },
          {
            "duration": 0.10000000000000142,
            "durationTicks": 96,
            "midi": 40,
            "name": "E2",
            "ticks": 57696,
            "time": 60.1,
            "velocity": 0.25984251968503935
          },
          {
            "duration": 0.10000000000000142,
            "durationTicks": 96,
            "midi": 35,
            "name": "B1",
            "ticks": 57696,
            "time": 60.1,
            "velocity": 0.25984251968503935
          },
          {
            "duration": 0.10000000000000142,
            "durationTicks": 96,
            "midi": 35,
            "name": "B1",
            "ticks": 57792,
            "time": 60.2,
            "velocity": 0.25984251968503935
          },
          {
            "duration": 0.10000000000000142,
            "durationTicks": 96,
            "midi": 43,
            "name": "G2",
            "ticks": 57792,
            "time": 60.2,
            "velocity": 0.25984251968503935
          },
          {
            "duration": 0.20000000000000284,
            "durationTicks": 192,
            "midi": 41,
            "name": "F2",
            "ticks": 57792,
            "time": 60.2,
            "velocity": 0.25984251968503935
          },
          {
            "duration": 0.10000000000000142,
            "durationTicks": 96,
            "midi": 43,
            "name": "G2",
            "ticks": 57888,
            "time": 60.300000000000004,
            "velocity": 0.25984251968503935
          },
          {
            "duration": 0.10000000000000142,
            "durationTicks": 96,
            "midi": 35,
            "name": "B1",
            "ticks": 57888,
            "time": 60.300000000000004,
            "velocity": 0.25984251968503935
          },
          {
            "duration": 0.19999999999999574,
            "durationTicks": 192,
            "midi": 38,
            "name": "D2",
            "ticks": 57984,
            "time": 60.400000000000006,
            "velocity": 0.25984251968503935
          },
          {
            "duration": 0.19999999999999574,
            "durationTicks": 192,
            "midi": 36,
            "name": "C2",
            "ticks": 57984,
            "time": 60.400000000000006,
            "velocity": 0.25984251968503935
          },
          {
            "duration": 0.19999999999999574,
            "durationTicks": 192,
            "midi": 40,
            "name": "E2",
            "ticks": 57984,
            "time": 60.400000000000006,
            "velocity": 0.25984251968503935
          },
          {
            "duration": 0.09999999999999432,
            "durationTicks": 96,
            "midi": 35,
            "name": "B1",
            "ticks": 57984,
            "time": 60.400000000000006,
            "velocity": 0.25984251968503935
          },
          {
            "duration": 0.10000000000000142,
            "durationTicks": 96,
            "midi": 35,
            "name": "B1",
            "ticks": 58080,
            "time": 60.5,
            "velocity": 0.25984251968503935
          },
          {
            "duration": 0.20000000000000284,
            "durationTicks": 192,
            "midi": 41,
            "name": "F2",
            "ticks": 58176,
            "time": 60.6,
            "velocity": 0.25984251968503935
          },
          {
            "duration": 0.10000000000000142,
            "durationTicks": 96,
            "midi": 35,
            "name": "B1",
            "ticks": 58176,
            "time": 60.6,
            "velocity": 0.25984251968503935
          },
          {
            "duration": 0.10000000000000142,
            "durationTicks": 96,
            "midi": 43,
            "name": "G2",
            "ticks": 58176,
            "time": 60.6,
            "velocity": 0.25984251968503935
          },
          {
            "duration": 0.10000000000000142,
            "durationTicks": 96,
            "midi": 43,
            "name": "G2",
            "ticks": 58272,
            "time": 60.7,
            "velocity": 0.25984251968503935
          },
          {
            "duration": 0.10000000000000142,
            "durationTicks": 96,
            "midi": 35,
            "name": "B1",
            "ticks": 58272,
            "time": 60.7,
            "velocity": 0.25984251968503935
          },
          {
            "duration": 0.10000000000000142,
            "durationTicks": 96,
            "midi": 38,
            "name": "D2",
            "ticks": 58368,
            "time": 60.800000000000004,
            "velocity": 0.25984251968503935
          },
          {
            "duration": 0.10000000000000142,
            "durationTicks": 96,
            "midi": 40,
            "name": "E2",
            "ticks": 58368,
            "time": 60.800000000000004,
            "velocity": 0.25984251968503935
          },
          {
            "duration": 0.10000000000000142,
            "durationTicks": 96,
            "midi": 35,
            "name": "B1",
            "ticks": 58368,
            "time": 60.800000000000004,
            "velocity": 0.25984251968503935
          },
          {
            "duration": 0.10000000000000142,
            "durationTicks": 96,
            "midi": 44,
            "name": "G#2",
            "ticks": 58368,
            "time": 60.800000000000004,
            "velocity": 0.25984251968503935
          },
          {
            "duration": 0.09999999999999432,
            "durationTicks": 96,
            "midi": 36,
            "name": "C2",
            "ticks": 58464,
            "time": 60.900000000000006,
            "velocity": 0.25984251968503935
          },
          {
            "duration": 0.09999999999999432,
            "durationTicks": 96,
            "midi": 44,
            "name": "G#2",
            "ticks": 58464,
            "time": 60.900000000000006,
            "velocity": 0.25984251968503935
          },
          {
            "duration": 0.09999999999999432,
            "durationTicks": 96,
            "midi": 40,
            "name": "E2",
            "ticks": 58464,
            "time": 60.900000000000006,
            "velocity": 0.25984251968503935
          },
          {
            "duration": 0.09999999999999432,
            "durationTicks": 96,
            "midi": 38,
            "name": "D2",
            "ticks": 58464,
            "time": 60.900000000000006,
            "velocity": 0.25984251968503935
          },
          {
            "duration": 0.10000000000000142,
            "durationTicks": 96,
            "midi": 44,
            "name": "G#2",
            "ticks": 58560,
            "time": 61,
            "velocity": 0.25984251968503935
          },
          {
            "duration": 0.10000000000000142,
            "durationTicks": 96,
            "midi": 38,
            "name": "D2",
            "ticks": 58560,
            "time": 61,
            "velocity": 0.25984251968503935
          },
          {
            "duration": 0.10000000000000142,
            "durationTicks": 96,
            "midi": 41,
            "name": "F2",
            "ticks": 58560,
            "time": 61,
            "velocity": 0.25984251968503935
          },
          {
            "duration": 0.10000000000000142,
            "durationTicks": 96,
            "midi": 35,
            "name": "B1",
            "ticks": 58560,
            "time": 61,
            "velocity": 0.25984251968503935
          },
          {
            "duration": 0.10000000000000142,
            "durationTicks": 96,
            "midi": 38,
            "name": "D2",
            "ticks": 58656,
            "time": 61.1,
            "velocity": 0.25984251968503935
          },
          {
            "duration": 0.10000000000000142,
            "durationTicks": 96,
            "midi": 41,
            "name": "F2",
            "ticks": 58656,
            "time": 61.1,
            "velocity": 0.25984251968503935
          },
          {
            "duration": 0.10000000000000142,
            "durationTicks": 96,
            "midi": 44,
            "name": "G#2",
            "ticks": 58656,
            "time": 61.1,
            "velocity": 0.25984251968503935
          },
          {
            "duration": 0.10000000000000142,
            "durationTicks": 96,
            "midi": 36,
            "name": "C2",
            "ticks": 58656,
            "time": 61.1,
            "velocity": 0.25984251968503935
          },
          {
            "duration": 0.10000000000000142,
            "durationTicks": 96,
            "midi": 44,
            "name": "G#2",
            "ticks": 58752,
            "time": 61.2,
            "velocity": 0.25984251968503935
          },
          {
            "duration": 0.10000000000000142,
            "durationTicks": 96,
            "midi": 40,
            "name": "E2",
            "ticks": 58752,
            "time": 61.2,
            "velocity": 0.25984251968503935
          },
          {
            "duration": 0.10000000000000142,
            "durationTicks": 96,
            "midi": 38,
            "name": "D2",
            "ticks": 58752,
            "time": 61.2,
            "velocity": 0.25984251968503935
          },
          {
            "duration": 0.10000000000000142,
            "durationTicks": 96,
            "midi": 35,
            "name": "B1",
            "ticks": 58752,
            "time": 61.2,
            "velocity": 0.25984251968503935
          },
          {
            "duration": 0.10000000000000142,
            "durationTicks": 96,
            "midi": 38,
            "name": "D2",
            "ticks": 58848,
            "time": 61.300000000000004,
            "velocity": 0.25984251968503935
          },
          {
            "duration": 0.10000000000000142,
            "durationTicks": 96,
            "midi": 36,
            "name": "C2",
            "ticks": 58848,
            "time": 61.300000000000004,
            "velocity": 0.25984251968503935
          },
          {
            "duration": 0.10000000000000142,
            "durationTicks": 96,
            "midi": 40,
            "name": "E2",
            "ticks": 58848,
            "time": 61.300000000000004,
            "velocity": 0.25984251968503935
          },
          {
            "duration": 0.10000000000000142,
            "durationTicks": 96,
            "midi": 44,
            "name": "G#2",
            "ticks": 58848,
            "time": 61.300000000000004,
            "velocity": 0.25984251968503935
          },
          {
            "duration": 0.09999999999999432,
            "durationTicks": 96,
            "midi": 41,
            "name": "F2",
            "ticks": 58944,
            "time": 61.400000000000006,
            "velocity": 0.25984251968503935
          },
          {
            "duration": 0.09999999999999432,
            "durationTicks": 96,
            "midi": 38,
            "name": "D2",
            "ticks": 58944,
            "time": 61.400000000000006,
            "velocity": 0.25984251968503935
          },
          {
            "duration": 0.09999999999999432,
            "durationTicks": 96,
            "midi": 44,
            "name": "G#2",
            "ticks": 58944,
            "time": 61.400000000000006,
            "velocity": 0.25984251968503935
          },
          {
            "duration": 0.09999999999999432,
            "durationTicks": 96,
            "midi": 35,
            "name": "B1",
            "ticks": 58944,
            "time": 61.400000000000006,
            "velocity": 0.25984251968503935
          },
          {
            "duration": 0.10000000000000142,
            "durationTicks": 96,
            "midi": 36,
            "name": "C2",
            "ticks": 59040,
            "time": 61.5,
            "velocity": 0.25984251968503935
          },
          {
            "duration": 0.10000000000000142,
            "durationTicks": 96,
            "midi": 38,
            "name": "D2",
            "ticks": 59040,
            "time": 61.5,
            "velocity": 0.25984251968503935
          },
          {
            "duration": 0.10000000000000142,
            "durationTicks": 96,
            "midi": 41,
            "name": "F2",
            "ticks": 59040,
            "time": 61.5,
            "velocity": 0.25984251968503935
          },
          {
            "duration": 0.10000000000000142,
            "durationTicks": 96,
            "midi": 44,
            "name": "G#2",
            "ticks": 59040,
            "time": 61.5,
            "velocity": 0.25984251968503935
          },
          {
            "duration": 0.10000000000000142,
            "durationTicks": 96,
            "midi": 40,
            "name": "E2",
            "ticks": 59136,
            "time": 61.6,
            "velocity": 0.25984251968503935
          },
          {
            "duration": 0.10000000000000142,
            "durationTicks": 96,
            "midi": 44,
            "name": "G#2",
            "ticks": 59136,
            "time": 61.6,
            "velocity": 0.25984251968503935
          },
          {
            "duration": 0.10000000000000142,
            "durationTicks": 96,
            "midi": 38,
            "name": "D2",
            "ticks": 59136,
            "time": 61.6,
            "velocity": 0.25984251968503935
          },
          {
            "duration": 0.10000000000000142,
            "durationTicks": 96,
            "midi": 35,
            "name": "B1",
            "ticks": 59136,
            "time": 61.6,
            "velocity": 0.25984251968503935
          },
          {
            "duration": 0.10000000000000142,
            "durationTicks": 96,
            "midi": 36,
            "name": "C2",
            "ticks": 59232,
            "time": 61.7,
            "velocity": 0.25984251968503935
          },
          {
            "duration": 0.10000000000000142,
            "durationTicks": 96,
            "midi": 38,
            "name": "D2",
            "ticks": 59232,
            "time": 61.7,
            "velocity": 0.25984251968503935
          },
          {
            "duration": 0.10000000000000142,
            "durationTicks": 96,
            "midi": 40,
            "name": "E2",
            "ticks": 59232,
            "time": 61.7,
            "velocity": 0.25984251968503935
          },
          {
            "duration": 0.10000000000000142,
            "durationTicks": 96,
            "midi": 44,
            "name": "G#2",
            "ticks": 59232,
            "time": 61.7,
            "velocity": 0.25984251968503935
          },
          {
            "duration": 0.10000000000000142,
            "durationTicks": 96,
            "midi": 44,
            "name": "G#2",
            "ticks": 59328,
            "time": 61.800000000000004,
            "velocity": 0.25984251968503935
          },
          {
            "duration": 0.10000000000000142,
            "durationTicks": 96,
            "midi": 38,
            "name": "D2",
            "ticks": 59328,
            "time": 61.800000000000004,
            "velocity": 0.25984251968503935
          },
          {
            "duration": 0.10000000000000142,
            "durationTicks": 96,
            "midi": 35,
            "name": "B1",
            "ticks": 59328,
            "time": 61.800000000000004,
            "velocity": 0.25984251968503935
          },
          {
            "duration": 0.10000000000000142,
            "durationTicks": 96,
            "midi": 41,
            "name": "F2",
            "ticks": 59328,
            "time": 61.800000000000004,
            "velocity": 0.25984251968503935
          },
          {
            "duration": 0.09999999999999432,
            "durationTicks": 96,
            "midi": 41,
            "name": "F2",
            "ticks": 59424,
            "time": 61.900000000000006,
            "velocity": 0.25984251968503935
          },
          {
            "duration": 0.09999999999999432,
            "durationTicks": 96,
            "midi": 38,
            "name": "D2",
            "ticks": 59424,
            "time": 61.900000000000006,
            "velocity": 0.25984251968503935
          },
          {
            "duration": 0.09999999999999432,
            "durationTicks": 96,
            "midi": 36,
            "name": "C2",
            "ticks": 59424,
            "time": 61.900000000000006,
            "velocity": 0.25984251968503935
          },
          {
            "duration": 0.09999999999999432,
            "durationTicks": 96,
            "midi": 44,
            "name": "G#2",
            "ticks": 59424,
            "time": 61.900000000000006,
            "velocity": 0.25984251968503935
          },
          {
            "duration": 0.10000000000000142,
            "durationTicks": 96,
            "midi": 44,
            "name": "G#2",
            "ticks": 59520,
            "time": 62,
            "velocity": 0.25984251968503935
          },
          {
            "duration": 0.10000000000000142,
            "durationTicks": 96,
            "midi": 35,
            "name": "B1",
            "ticks": 59520,
            "time": 62,
            "velocity": 0.25984251968503935
          },
          {
            "duration": 0.10000000000000142,
            "durationTicks": 96,
            "midi": 40,
            "name": "E2",
            "ticks": 59520,
            "time": 62,
            "velocity": 0.25984251968503935
          },
          {
            "duration": 0.10000000000000142,
            "durationTicks": 96,
            "midi": 38,
            "name": "D2",
            "ticks": 59520,
            "time": 62,
            "velocity": 0.25984251968503935
          },
          {
            "duration": 0.10000000000000142,
            "durationTicks": 96,
            "midi": 44,
            "name": "G#2",
            "ticks": 59616,
            "time": 62.1,
            "velocity": 0.25984251968503935
          },
          {
            "duration": 0.10000000000000142,
            "durationTicks": 96,
            "midi": 38,
            "name": "D2",
            "ticks": 59616,
            "time": 62.1,
            "velocity": 0.25984251968503935
          },
          {
            "duration": 0.10000000000000142,
            "durationTicks": 96,
            "midi": 40,
            "name": "E2",
            "ticks": 59616,
            "time": 62.1,
            "velocity": 0.25984251968503935
          },
          {
            "duration": 0.10000000000000142,
            "durationTicks": 96,
            "midi": 36,
            "name": "C2",
            "ticks": 59616,
            "time": 62.1,
            "velocity": 0.25984251968503935
          },
          {
            "duration": 0.10000000000000142,
            "durationTicks": 96,
            "midi": 35,
            "name": "B1",
            "ticks": 59712,
            "time": 62.2,
            "velocity": 0.25984251968503935
          },
          {
            "duration": 0.10000000000000142,
            "durationTicks": 96,
            "midi": 41,
            "name": "F2",
            "ticks": 59712,
            "time": 62.2,
            "velocity": 0.25984251968503935
          },
          {
            "duration": 0.10000000000000142,
            "durationTicks": 96,
            "midi": 38,
            "name": "D2",
            "ticks": 59712,
            "time": 62.2,
            "velocity": 0.25984251968503935
          },
          {
            "duration": 0.10000000000000142,
            "durationTicks": 96,
            "midi": 44,
            "name": "G#2",
            "ticks": 59712,
            "time": 62.2,
            "velocity": 0.25984251968503935
          },
          {
            "duration": 0.10000000000000142,
            "durationTicks": 96,
            "midi": 38,
            "name": "D2",
            "ticks": 59808,
            "time": 62.300000000000004,
            "velocity": 0.25984251968503935
          },
          {
            "duration": 0.10000000000000142,
            "durationTicks": 96,
            "midi": 41,
            "name": "F2",
            "ticks": 59808,
            "time": 62.300000000000004,
            "velocity": 0.25984251968503935
          },
          {
            "duration": 0.10000000000000142,
            "durationTicks": 96,
            "midi": 44,
            "name": "G#2",
            "ticks": 59808,
            "time": 62.300000000000004,
            "velocity": 0.25984251968503935
          },
          {
            "duration": 0.10000000000000142,
            "durationTicks": 96,
            "midi": 36,
            "name": "C2",
            "ticks": 59808,
            "time": 62.300000000000004,
            "velocity": 0.25984251968503935
          },
          {
            "duration": 0.09999999999999432,
            "durationTicks": 96,
            "midi": 44,
            "name": "G#2",
            "ticks": 59904,
            "time": 62.400000000000006,
            "velocity": 0.25984251968503935
          },
          {
            "duration": 0.09999999999999432,
            "durationTicks": 96,
            "midi": 38,
            "name": "D2",
            "ticks": 59904,
            "time": 62.400000000000006,
            "velocity": 0.25984251968503935
          },
          {
            "duration": 0.09999999999999432,
            "durationTicks": 96,
            "midi": 40,
            "name": "E2",
            "ticks": 59904,
            "time": 62.400000000000006,
            "velocity": 0.25984251968503935
          },
          {
            "duration": 0.09999999999999432,
            "durationTicks": 96,
            "midi": 35,
            "name": "B1",
            "ticks": 59904,
            "time": 62.400000000000006,
            "velocity": 0.25984251968503935
          },
          {
            "duration": 0.10000000000000142,
            "durationTicks": 96,
            "midi": 40,
            "name": "E2",
            "ticks": 60000,
            "time": 62.5,
            "velocity": 0.25984251968503935
          },
          {
            "duration": 0.10000000000000142,
            "durationTicks": 96,
            "midi": 38,
            "name": "D2",
            "ticks": 60000,
            "time": 62.5,
            "velocity": 0.25984251968503935
          },
          {
            "duration": 0.10000000000000142,
            "durationTicks": 96,
            "midi": 36,
            "name": "C2",
            "ticks": 60000,
            "time": 62.5,
            "velocity": 0.25984251968503935
          },
          {
            "duration": 0.10000000000000142,
            "durationTicks": 96,
            "midi": 44,
            "name": "G#2",
            "ticks": 60000,
            "time": 62.5,
            "velocity": 0.25984251968503935
          },
          {
            "duration": 0.10000000000000142,
            "durationTicks": 96,
            "midi": 41,
            "name": "F2",
            "ticks": 60096,
            "time": 62.6,
            "velocity": 0.25984251968503935
          },
          {
            "duration": 0.10000000000000142,
            "durationTicks": 96,
            "midi": 38,
            "name": "D2",
            "ticks": 60096,
            "time": 62.6,
            "velocity": 0.25984251968503935
          },
          {
            "duration": 0.10000000000000142,
            "durationTicks": 96,
            "midi": 44,
            "name": "G#2",
            "ticks": 60096,
            "time": 62.6,
            "velocity": 0.25984251968503935
          },
          {
            "duration": 0.10000000000000142,
            "durationTicks": 96,
            "midi": 35,
            "name": "B1",
            "ticks": 60096,
            "time": 62.6,
            "velocity": 0.25984251968503935
          },
          {
            "duration": 0.10000000000000142,
            "durationTicks": 96,
            "midi": 38,
            "name": "D2",
            "ticks": 60192,
            "time": 62.7,
            "velocity": 0.25984251968503935
          },
          {
            "duration": 0.10000000000000142,
            "durationTicks": 96,
            "midi": 36,
            "name": "C2",
            "ticks": 60192,
            "time": 62.7,
            "velocity": 0.25984251968503935
          },
          {
            "duration": 0.10000000000000142,
            "durationTicks": 96,
            "midi": 44,
            "name": "G#2",
            "ticks": 60192,
            "time": 62.7,
            "velocity": 0.25984251968503935
          },
          {
            "duration": 0.10000000000000142,
            "durationTicks": 96,
            "midi": 41,
            "name": "F2",
            "ticks": 60192,
            "time": 62.7,
            "velocity": 0.25984251968503935
          },
          {
            "duration": 0.10000000000000142,
            "durationTicks": 96,
            "midi": 35,
            "name": "B1",
            "ticks": 60288,
            "time": 62.800000000000004,
            "velocity": 0.25984251968503935
          },
          {
            "duration": 0.10000000000000142,
            "durationTicks": 96,
            "midi": 44,
            "name": "G#2",
            "ticks": 60288,
            "time": 62.800000000000004,
            "velocity": 0.25984251968503935
          },
          {
            "duration": 0.10000000000000142,
            "durationTicks": 96,
            "midi": 40,
            "name": "E2",
            "ticks": 60288,
            "time": 62.800000000000004,
            "velocity": 0.25984251968503935
          },
          {
            "duration": 0.10000000000000142,
            "durationTicks": 96,
            "midi": 38,
            "name": "D2",
            "ticks": 60288,
            "time": 62.800000000000004,
            "velocity": 0.25984251968503935
          },
          {
            "duration": 0.09999999999999432,
            "durationTicks": 96,
            "midi": 44,
            "name": "G#2",
            "ticks": 60384,
            "time": 62.900000000000006,
            "velocity": 0.25984251968503935
          },
          {
            "duration": 0.09999999999999432,
            "durationTicks": 96,
            "midi": 36,
            "name": "C2",
            "ticks": 60384,
            "time": 62.900000000000006,
            "velocity": 0.25984251968503935
          },
          {
            "duration": 0.09999999999999432,
            "durationTicks": 96,
            "midi": 38,
            "name": "D2",
            "ticks": 60384,
            "time": 62.900000000000006,
            "velocity": 0.25984251968503935
          },
          {
            "duration": 0.09999999999999432,
            "durationTicks": 96,
            "midi": 40,
            "name": "E2",
            "ticks": 60384,
            "time": 62.900000000000006,
            "velocity": 0.25984251968503935
          },
          {
            "duration": 0.10000000000000142,
            "durationTicks": 96,
            "midi": 44,
            "name": "G#2",
            "ticks": 60480,
            "time": 63,
            "velocity": 0.25984251968503935
          },
          {
            "duration": 0.10000000000000142,
            "durationTicks": 96,
            "midi": 35,
            "name": "B1",
            "ticks": 60480,
            "time": 63,
            "velocity": 0.25984251968503935
          },
          {
            "duration": 0.10000000000000142,
            "durationTicks": 96,
            "midi": 41,
            "name": "F2",
            "ticks": 60480,
            "time": 63,
            "velocity": 0.25984251968503935
          },
          {
            "duration": 0.10000000000000142,
            "durationTicks": 96,
            "midi": 38,
            "name": "D2",
            "ticks": 60480,
            "time": 63,
            "velocity": 0.25984251968503935
          },
          {
            "duration": 0.10000000000000142,
            "durationTicks": 96,
            "midi": 36,
            "name": "C2",
            "ticks": 60576,
            "time": 63.1,
            "velocity": 0.25984251968503935
          },
          {
            "duration": 0.10000000000000142,
            "durationTicks": 96,
            "midi": 38,
            "name": "D2",
            "ticks": 60576,
            "time": 63.1,
            "velocity": 0.25984251968503935
          },
          {
            "duration": 0.10000000000000142,
            "durationTicks": 96,
            "midi": 41,
            "name": "F2",
            "ticks": 60576,
            "time": 63.1,
            "velocity": 0.25984251968503935
          },
          {
            "duration": 0.10000000000000142,
            "durationTicks": 96,
            "midi": 44,
            "name": "G#2",
            "ticks": 60576,
            "time": 63.1,
            "velocity": 0.25984251968503935
          },
          {
            "duration": 0.10000000000000142,
            "durationTicks": 96,
            "midi": 44,
            "name": "G#2",
            "ticks": 60672,
            "time": 63.2,
            "velocity": 0.25984251968503935
          },
          {
            "duration": 0.10000000000000142,
            "durationTicks": 96,
            "midi": 40,
            "name": "E2",
            "ticks": 60672,
            "time": 63.2,
            "velocity": 0.25984251968503935
          },
          {
            "duration": 0.10000000000000142,
            "durationTicks": 96,
            "midi": 35,
            "name": "B1",
            "ticks": 60672,
            "time": 63.2,
            "velocity": 0.25984251968503935
          },
          {
            "duration": 0.10000000000000142,
            "durationTicks": 96,
            "midi": 38,
            "name": "D2",
            "ticks": 60672,
            "time": 63.2,
            "velocity": 0.25984251968503935
          },
          {
            "duration": 0.10000000000000142,
            "durationTicks": 96,
            "midi": 36,
            "name": "C2",
            "ticks": 60768,
            "time": 63.300000000000004,
            "velocity": 0.25984251968503935
          },
          {
            "duration": 0.10000000000000142,
            "durationTicks": 96,
            "midi": 40,
            "name": "E2",
            "ticks": 60768,
            "time": 63.300000000000004,
            "velocity": 0.25984251968503935
          },
          {
            "duration": 0.10000000000000142,
            "durationTicks": 96,
            "midi": 44,
            "name": "G#2",
            "ticks": 60768,
            "time": 63.300000000000004,
            "velocity": 0.25984251968503935
          },
          {
            "duration": 0.10000000000000142,
            "durationTicks": 96,
            "midi": 38,
            "name": "D2",
            "ticks": 60768,
            "time": 63.300000000000004,
            "velocity": 0.25984251968503935
          },
          {
            "duration": 0.09999999999999432,
            "durationTicks": 96,
            "midi": 41,
            "name": "F2",
            "ticks": 60864,
            "time": 63.400000000000006,
            "velocity": 0.25984251968503935
          },
          {
            "duration": 0.09999999999999432,
            "durationTicks": 96,
            "midi": 35,
            "name": "B1",
            "ticks": 60864,
            "time": 63.400000000000006,
            "velocity": 0.25984251968503935
          },
          {
            "duration": 0.09999999999999432,
            "durationTicks": 96,
            "midi": 44,
            "name": "G#2",
            "ticks": 60864,
            "time": 63.400000000000006,
            "velocity": 0.25984251968503935
          },
          {
            "duration": 0.09999999999999432,
            "durationTicks": 96,
            "midi": 38,
            "name": "D2",
            "ticks": 60864,
            "time": 63.400000000000006,
            "velocity": 0.25984251968503935
          },
          {
            "duration": 0.10000000000000142,
            "durationTicks": 96,
            "midi": 41,
            "name": "F2",
            "ticks": 60960,
            "time": 63.5,
            "velocity": 0.25984251968503935
          },
          {
            "duration": 0.10000000000000142,
            "durationTicks": 96,
            "midi": 38,
            "name": "D2",
            "ticks": 60960,
            "time": 63.5,
            "velocity": 0.25984251968503935
          },
          {
            "duration": 0.10000000000000142,
            "durationTicks": 96,
            "midi": 36,
            "name": "C2",
            "ticks": 60960,
            "time": 63.5,
            "velocity": 0.25984251968503935
          },
          {
            "duration": 0.10000000000000142,
            "durationTicks": 96,
            "midi": 44,
            "name": "G#2",
            "ticks": 60960,
            "time": 63.5,
            "velocity": 0.25984251968503935
          },
          {
            "duration": 0.10000000000000142,
            "durationTicks": 96,
            "midi": 35,
            "name": "B1",
            "ticks": 61056,
            "time": 63.6,
            "velocity": 0.25984251968503935
          },
          {
            "duration": 0.10000000000000142,
            "durationTicks": 96,
            "midi": 40,
            "name": "E2",
            "ticks": 61056,
            "time": 63.6,
            "velocity": 0.25984251968503935
          },
          {
            "duration": 0.10000000000000142,
            "durationTicks": 96,
            "midi": 38,
            "name": "D2",
            "ticks": 61056,
            "time": 63.6,
            "velocity": 0.25984251968503935
          },
          {
            "duration": 0.10000000000000142,
            "durationTicks": 96,
            "midi": 44,
            "name": "G#2",
            "ticks": 61056,
            "time": 63.6,
            "velocity": 0.25984251968503935
          },
          {
            "duration": 0.10000000000000142,
            "durationTicks": 96,
            "midi": 36,
            "name": "C2",
            "ticks": 61152,
            "time": 63.7,
            "velocity": 0.25984251968503935
          },
          {
            "duration": 0.10000000000000142,
            "durationTicks": 96,
            "midi": 40,
            "name": "E2",
            "ticks": 61152,
            "time": 63.7,
            "velocity": 0.25984251968503935
          },
          {
            "duration": 0.10000000000000142,
            "durationTicks": 96,
            "midi": 44,
            "name": "G#2",
            "ticks": 61152,
            "time": 63.7,
            "velocity": 0.25984251968503935
          },
          {
            "duration": 0.10000000000000142,
            "durationTicks": 96,
            "midi": 38,
            "name": "D2",
            "ticks": 61152,
            "time": 63.7,
            "velocity": 0.25984251968503935
          },
          {
            "duration": 0.10000000000000142,
            "durationTicks": 96,
            "midi": 41,
            "name": "F2",
            "ticks": 61248,
            "time": 63.800000000000004,
            "velocity": 0.25984251968503935
          },
          {
            "duration": 0.10000000000000142,
            "durationTicks": 96,
            "midi": 35,
            "name": "B1",
            "ticks": 61248,
            "time": 63.800000000000004,
            "velocity": 0.25984251968503935
          },
          {
            "duration": 0.10000000000000142,
            "durationTicks": 96,
            "midi": 38,
            "name": "D2",
            "ticks": 61248,
            "time": 63.800000000000004,
            "velocity": 0.25984251968503935
          },
          {
            "duration": 0.10000000000000142,
            "durationTicks": 96,
            "midi": 44,
            "name": "G#2",
            "ticks": 61248,
            "time": 63.800000000000004,
            "velocity": 0.25984251968503935
          },
          {
            "duration": 0.09999999999999432,
            "durationTicks": 96,
            "midi": 38,
            "name": "D2",
            "ticks": 61344,
            "time": 63.900000000000006,
            "velocity": 0.25984251968503935
          },
          {
            "duration": 0.09999999999999432,
            "durationTicks": 96,
            "midi": 41,
            "name": "F2",
            "ticks": 61344,
            "time": 63.900000000000006,
            "velocity": 0.25984251968503935
          },
          {
            "duration": 0.09999999999999432,
            "durationTicks": 96,
            "midi": 44,
            "name": "G#2",
            "ticks": 61344,
            "time": 63.900000000000006,
            "velocity": 0.25984251968503935
          },
          {
            "duration": 0.09999999999999432,
            "durationTicks": 96,
            "midi": 36,
            "name": "C2",
            "ticks": 61344,
            "time": 63.900000000000006,
            "velocity": 0.25984251968503935
          },
          {
            "duration": 0.10000000000000853,
            "durationTicks": 96,
            "midi": 40,
            "name": "E2",
            "ticks": 61440,
            "time": 64,
            "velocity": 0.25984251968503935
          },
          {
            "duration": 0.10000000000000853,
            "durationTicks": 96,
            "midi": 35,
            "name": "B1",
            "ticks": 61440,
            "time": 64,
            "velocity": 0.25984251968503935
          },
          {
            "duration": 0.10000000000000853,
            "durationTicks": 96,
            "midi": 44,
            "name": "G#2",
            "ticks": 61440,
            "time": 64,
            "velocity": 0.25984251968503935
          },
          {
            "duration": 0.10000000000000853,
            "durationTicks": 96,
            "midi": 38,
            "name": "D2",
            "ticks": 61440,
            "time": 64,
            "velocity": 0.25984251968503935
          },
          {
            "duration": 0.09999999999999432,
            "durationTicks": 96,
            "midi": 38,
            "name": "D2",
            "ticks": 61536,
            "time": 64.10000000000001,
            "velocity": 0.25984251968503935
          },
          {
            "duration": 0.09999999999999432,
            "durationTicks": 96,
            "midi": 44,
            "name": "G#2",
            "ticks": 61536,
            "time": 64.10000000000001,
            "velocity": 0.25984251968503935
          },
          {
            "duration": 0.09999999999999432,
            "durationTicks": 96,
            "midi": 40,
            "name": "E2",
            "ticks": 61536,
            "time": 64.10000000000001,
            "velocity": 0.25984251968503935
          },
          {
            "duration": 0.09999999999999432,
            "durationTicks": 96,
            "midi": 36,
            "name": "C2",
            "ticks": 61536,
            "time": 64.10000000000001,
            "velocity": 0.25984251968503935
          },
          {
            "duration": 0.09999999999999432,
            "durationTicks": 96,
            "midi": 41,
            "name": "F2",
            "ticks": 61632,
            "time": 64.2,
            "velocity": 0.25984251968503935
          },
          {
            "duration": 0.09999999999999432,
            "durationTicks": 96,
            "midi": 38,
            "name": "D2",
            "ticks": 61632,
            "time": 64.2,
            "velocity": 0.25984251968503935
          },
          {
            "duration": 0.09999999999999432,
            "durationTicks": 96,
            "midi": 44,
            "name": "G#2",
            "ticks": 61632,
            "time": 64.2,
            "velocity": 0.25984251968503935
          },
          {
            "duration": 0.09999999999999432,
            "durationTicks": 96,
            "midi": 35,
            "name": "B1",
            "ticks": 61632,
            "time": 64.2,
            "velocity": 0.25984251968503935
          },
          {
            "duration": 0.10000000000000853,
            "durationTicks": 96,
            "midi": 36,
            "name": "C2",
            "ticks": 61728,
            "time": 64.3,
            "velocity": 0.25984251968503935
          },
          {
            "duration": 0.10000000000000853,
            "durationTicks": 96,
            "midi": 38,
            "name": "D2",
            "ticks": 61728,
            "time": 64.3,
            "velocity": 0.25984251968503935
          },
          {
            "duration": 0.10000000000000853,
            "durationTicks": 96,
            "midi": 44,
            "name": "G#2",
            "ticks": 61728,
            "time": 64.3,
            "velocity": 0.25984251968503935
          },
          {
            "duration": 0.10000000000000853,
            "durationTicks": 96,
            "midi": 41,
            "name": "F2",
            "ticks": 61728,
            "time": 64.3,
            "velocity": 0.25984251968503935
          },
          {
            "duration": 0.09999999999999432,
            "durationTicks": 96,
            "midi": 40,
            "name": "E2",
            "ticks": 61824,
            "time": 64.4,
            "velocity": 0.25984251968503935
          },
          {
            "duration": 0.09999999999999432,
            "durationTicks": 96,
            "midi": 44,
            "name": "G#2",
            "ticks": 61824,
            "time": 64.4,
            "velocity": 0.25984251968503935
          },
          {
            "duration": 0.09999999999999432,
            "durationTicks": 96,
            "midi": 35,
            "name": "B1",
            "ticks": 61824,
            "time": 64.4,
            "velocity": 0.25984251968503935
          },
          {
            "duration": 0.09999999999999432,
            "durationTicks": 96,
            "midi": 38,
            "name": "D2",
            "ticks": 61824,
            "time": 64.4,
            "velocity": 0.25984251968503935
          },
          {
            "duration": 0.10000000000000853,
            "durationTicks": 96,
            "midi": 40,
            "name": "E2",
            "ticks": 61920,
            "time": 64.5,
            "velocity": 0.25984251968503935
          },
          {
            "duration": 0.10000000000000853,
            "durationTicks": 96,
            "midi": 36,
            "name": "C2",
            "ticks": 61920,
            "time": 64.5,
            "velocity": 0.25984251968503935
          },
          {
            "duration": 0.10000000000000853,
            "durationTicks": 96,
            "midi": 44,
            "name": "G#2",
            "ticks": 61920,
            "time": 64.5,
            "velocity": 0.25984251968503935
          },
          {
            "duration": 0.10000000000000853,
            "durationTicks": 96,
            "midi": 38,
            "name": "D2",
            "ticks": 61920,
            "time": 64.5,
            "velocity": 0.25984251968503935
          },
          {
            "duration": 0.09999999999999432,
            "durationTicks": 96,
            "midi": 41,
            "name": "F2",
            "ticks": 62016,
            "time": 64.60000000000001,
            "velocity": 0.25984251968503935
          },
          {
            "duration": 0.09999999999999432,
            "durationTicks": 96,
            "midi": 35,
            "name": "B1",
            "ticks": 62016,
            "time": 64.60000000000001,
            "velocity": 0.25984251968503935
          },
          {
            "duration": 0.09999999999999432,
            "durationTicks": 96,
            "midi": 44,
            "name": "G#2",
            "ticks": 62016,
            "time": 64.60000000000001,
            "velocity": 0.25984251968503935
          },
          {
            "duration": 0.09999999999999432,
            "durationTicks": 96,
            "midi": 38,
            "name": "D2",
            "ticks": 62016,
            "time": 64.60000000000001,
            "velocity": 0.25984251968503935
          },
          {
            "duration": 0.09999999999999432,
            "durationTicks": 96,
            "midi": 36,
            "name": "C2",
            "ticks": 62112,
            "time": 64.7,
            "velocity": 0.25984251968503935
          },
          {
            "duration": 0.09999999999999432,
            "durationTicks": 96,
            "midi": 41,
            "name": "F2",
            "ticks": 62112,
            "time": 64.7,
            "velocity": 0.25984251968503935
          },
          {
            "duration": 0.09999999999999432,
            "durationTicks": 96,
            "midi": 44,
            "name": "G#2",
            "ticks": 62112,
            "time": 64.7,
            "velocity": 0.25984251968503935
          },
          {
            "duration": 0.09999999999999432,
            "durationTicks": 96,
            "midi": 38,
            "name": "D2",
            "ticks": 62112,
            "time": 64.7,
            "velocity": 0.25984251968503935
          },
          {
            "duration": 0.10000000000000853,
            "durationTicks": 96,
            "midi": 35,
            "name": "B1",
            "ticks": 62208,
            "time": 64.8,
            "velocity": 0.25984251968503935
          },
          {
            "duration": 0.10000000000000853,
            "durationTicks": 96,
            "midi": 38,
            "name": "D2",
            "ticks": 62208,
            "time": 64.8,
            "velocity": 0.25984251968503935
          },
          {
            "duration": 0.10000000000000853,
            "durationTicks": 96,
            "midi": 40,
            "name": "E2",
            "ticks": 62208,
            "time": 64.8,
            "velocity": 0.25984251968503935
          },
          {
            "duration": 0.10000000000000853,
            "durationTicks": 96,
            "midi": 44,
            "name": "G#2",
            "ticks": 62208,
            "time": 64.8,
            "velocity": 0.25984251968503935
          },
          {
            "duration": 0.09999999999999432,
            "durationTicks": 96,
            "midi": 38,
            "name": "D2",
            "ticks": 62304,
            "time": 64.9,
            "velocity": 0.25984251968503935
          },
          {
            "duration": 0.09999999999999432,
            "durationTicks": 96,
            "midi": 44,
            "name": "G#2",
            "ticks": 62304,
            "time": 64.9,
            "velocity": 0.25984251968503935
          },
          {
            "duration": 0.09999999999999432,
            "durationTicks": 96,
            "midi": 36,
            "name": "C2",
            "ticks": 62304,
            "time": 64.9,
            "velocity": 0.25984251968503935
          },
          {
            "duration": 0.09999999999999432,
            "durationTicks": 96,
            "midi": 40,
            "name": "E2",
            "ticks": 62304,
            "time": 64.9,
            "velocity": 0.25984251968503935
          },
          {
            "duration": 0.10000000000000853,
            "durationTicks": 96,
            "midi": 38,
            "name": "D2",
            "ticks": 62400,
            "time": 65,
            "velocity": 0.25984251968503935
          },
          {
            "duration": 0.10000000000000853,
            "durationTicks": 96,
            "midi": 41,
            "name": "F2",
            "ticks": 62400,
            "time": 65,
            "velocity": 0.25984251968503935
          },
          {
            "duration": 0.10000000000000853,
            "durationTicks": 96,
            "midi": 44,
            "name": "G#2",
            "ticks": 62400,
            "time": 65,
            "velocity": 0.25984251968503935
          },
          {
            "duration": 0.10000000000000853,
            "durationTicks": 96,
            "midi": 35,
            "name": "B1",
            "ticks": 62400,
            "time": 65,
            "velocity": 0.25984251968503935
          },
          {
            "duration": 0.09999999999999432,
            "durationTicks": 96,
            "midi": 44,
            "name": "G#2",
            "ticks": 62496,
            "time": 65.10000000000001,
            "velocity": 0.25984251968503935
          },
          {
            "duration": 0.09999999999999432,
            "durationTicks": 96,
            "midi": 38,
            "name": "D2",
            "ticks": 62496,
            "time": 65.10000000000001,
            "velocity": 0.25984251968503935
          },
          {
            "duration": 0.09999999999999432,
            "durationTicks": 96,
            "midi": 41,
            "name": "F2",
            "ticks": 62496,
            "time": 65.10000000000001,
            "velocity": 0.25984251968503935
          },
          {
            "duration": 0.09999999999999432,
            "durationTicks": 96,
            "midi": 36,
            "name": "C2",
            "ticks": 62496,
            "time": 65.10000000000001,
            "velocity": 0.25984251968503935
          },
          {
            "duration": 0.09999999999999432,
            "durationTicks": 96,
            "midi": 38,
            "name": "D2",
            "ticks": 62592,
            "time": 65.2,
            "velocity": 0.25984251968503935
          },
          {
            "duration": 0.09999999999999432,
            "durationTicks": 96,
            "midi": 40,
            "name": "E2",
            "ticks": 62592,
            "time": 65.2,
            "velocity": 0.25984251968503935
          },
          {
            "duration": 0.09999999999999432,
            "durationTicks": 96,
            "midi": 44,
            "name": "G#2",
            "ticks": 62592,
            "time": 65.2,
            "velocity": 0.25984251968503935
          },
          {
            "duration": 0.09999999999999432,
            "durationTicks": 96,
            "midi": 35,
            "name": "B1",
            "ticks": 62592,
            "time": 65.2,
            "velocity": 0.25984251968503935
          },
          {
            "duration": 0.10000000000000853,
            "durationTicks": 96,
            "midi": 40,
            "name": "E2",
            "ticks": 62688,
            "time": 65.3,
            "velocity": 0.25984251968503935
          },
          {
            "duration": 0.10000000000000853,
            "durationTicks": 96,
            "midi": 44,
            "name": "G#2",
            "ticks": 62688,
            "time": 65.3,
            "velocity": 0.25984251968503935
          },
          {
            "duration": 0.10000000000000853,
            "durationTicks": 96,
            "midi": 38,
            "name": "D2",
            "ticks": 62688,
            "time": 65.3,
            "velocity": 0.25984251968503935
          },
          {
            "duration": 0.10000000000000853,
            "durationTicks": 96,
            "midi": 36,
            "name": "C2",
            "ticks": 62688,
            "time": 65.3,
            "velocity": 0.25984251968503935
          },
          {
            "duration": 0.09999999999999432,
            "durationTicks": 96,
            "midi": 38,
            "name": "D2",
            "ticks": 62784,
            "time": 65.4,
            "velocity": 0.25984251968503935
          },
          {
            "duration": 0.09999999999999432,
            "durationTicks": 96,
            "midi": 44,
            "name": "G#2",
            "ticks": 62784,
            "time": 65.4,
            "velocity": 0.25984251968503935
          },
          {
            "duration": 0.09999999999999432,
            "durationTicks": 96,
            "midi": 35,
            "name": "B1",
            "ticks": 62784,
            "time": 65.4,
            "velocity": 0.25984251968503935
          },
          {
            "duration": 0.09999999999999432,
            "durationTicks": 96,
            "midi": 41,
            "name": "F2",
            "ticks": 62784,
            "time": 65.4,
            "velocity": 0.25984251968503935
          },
          {
            "duration": 0.10000000000000853,
            "durationTicks": 96,
            "midi": 41,
            "name": "F2",
            "ticks": 62880,
            "time": 65.5,
            "velocity": 0.25984251968503935
          },
          {
            "duration": 0.10000000000000853,
            "durationTicks": 96,
            "midi": 44,
            "name": "G#2",
            "ticks": 62880,
            "time": 65.5,
            "velocity": 0.25984251968503935
          },
          {
            "duration": 0.10000000000000853,
            "durationTicks": 96,
            "midi": 38,
            "name": "D2",
            "ticks": 62880,
            "time": 65.5,
            "velocity": 0.25984251968503935
          },
          {
            "duration": 0.10000000000000853,
            "durationTicks": 96,
            "midi": 36,
            "name": "C2",
            "ticks": 62880,
            "time": 65.5,
            "velocity": 0.25984251968503935
          },
          {
            "duration": 0.13333333333332575,
            "durationTicks": 128,
            "midi": 35,
            "name": "B1",
            "ticks": 62976,
            "time": 65.60000000000001,
            "velocity": 0.25984251968503935
          },
          {
            "duration": 0.13333333333332575,
            "durationTicks": 128,
            "midi": 38,
            "name": "D2",
            "ticks": 62976,
            "time": 65.60000000000001,
            "velocity": 0.25984251968503935
          },
          {
            "duration": 0.13333333333332575,
            "durationTicks": 128,
            "midi": 44,
            "name": "G#2",
            "ticks": 62976,
            "time": 65.60000000000001,
            "velocity": 0.25984251968503935
          },
          {
            "duration": 0.13333333333332575,
            "durationTicks": 128,
            "midi": 40,
            "name": "E2",
            "ticks": 62976,
            "time": 65.60000000000001,
            "velocity": 0.25984251968503935
          },
          {
            "duration": 0.13333333333332575,
            "durationTicks": 128,
            "midi": 44,
            "name": "G#2",
            "ticks": 63104,
            "time": 65.73333333333333,
            "velocity": 0.25984251968503935
          },
          {
            "duration": 0.13333333333332575,
            "durationTicks": 128,
            "midi": 40,
            "name": "E2",
            "ticks": 63104,
            "time": 65.73333333333333,
            "velocity": 0.25984251968503935
          },
          {
            "duration": 0.13333333333332575,
            "durationTicks": 128,
            "midi": 38,
            "name": "D2",
            "ticks": 63104,
            "time": 65.73333333333333,
            "velocity": 0.25984251968503935
          },
          {
            "duration": 0.13333333333332575,
            "durationTicks": 128,
            "midi": 36,
            "name": "C2",
            "ticks": 63104,
            "time": 65.73333333333333,
            "velocity": 0.25984251968503935
          },
          {
            "duration": 0.13333333333333997,
            "durationTicks": 128,
            "midi": 38,
            "name": "D2",
            "ticks": 63232,
            "time": 65.86666666666666,
            "velocity": 0.25984251968503935
          },
          {
            "duration": 0.13333333333333997,
            "durationTicks": 128,
            "midi": 44,
            "name": "G#2",
            "ticks": 63232,
            "time": 65.86666666666666,
            "velocity": 0.25984251968503935
          },
          {
            "duration": 0.13333333333333997,
            "durationTicks": 128,
            "midi": 35,
            "name": "B1",
            "ticks": 63232,
            "time": 65.86666666666666,
            "velocity": 0.25984251968503935
          },
          {
            "duration": 0.13333333333333997,
            "durationTicks": 128,
            "midi": 40,
            "name": "E2",
            "ticks": 63232,
            "time": 65.86666666666666,
            "velocity": 0.25984251968503935
          },
          {
            "duration": 0.13333333333333997,
            "durationTicks": 128,
            "midi": 44,
            "name": "G#2",
            "ticks": 63360,
            "time": 66,
            "velocity": 0.25984251968503935
          },
          {
            "duration": 0.13333333333333997,
            "durationTicks": 128,
            "midi": 41,
            "name": "F2",
            "ticks": 63360,
            "time": 66,
            "velocity": 0.25984251968503935
          },
          {
            "duration": 0.13333333333333997,
            "durationTicks": 128,
            "midi": 36,
            "name": "C2",
            "ticks": 63360,
            "time": 66,
            "velocity": 0.25984251968503935
          },
          {
            "duration": 0.13333333333333997,
            "durationTicks": 128,
            "midi": 38,
            "name": "D2",
            "ticks": 63360,
            "time": 66,
            "velocity": 0.25984251968503935
          },
          {
            "duration": 0.13333333333332575,
            "durationTicks": 128,
            "midi": 35,
            "name": "B1",
            "ticks": 63488,
            "time": 66.13333333333334,
            "velocity": 0.25984251968503935
          },
          {
            "duration": 0.13333333333332575,
            "durationTicks": 128,
            "midi": 41,
            "name": "F2",
            "ticks": 63488,
            "time": 66.13333333333334,
            "velocity": 0.25984251968503935
          },
          {
            "duration": 0.13333333333332575,
            "durationTicks": 128,
            "midi": 44,
            "name": "G#2",
            "ticks": 63488,
            "time": 66.13333333333334,
            "velocity": 0.25984251968503935
          },
          {
            "duration": 0.13333333333332575,
            "durationTicks": 128,
            "midi": 38,
            "name": "D2",
            "ticks": 63488,
            "time": 66.13333333333334,
            "velocity": 0.25984251968503935
          },
          {
            "duration": 0.13333333333333997,
            "durationTicks": 128,
            "midi": 44,
            "name": "G#2",
            "ticks": 63616,
            "time": 66.26666666666667,
            "velocity": 0.25984251968503935
          },
          {
            "duration": 0.13333333333333997,
            "durationTicks": 128,
            "midi": 38,
            "name": "D2",
            "ticks": 63616,
            "time": 66.26666666666667,
            "velocity": 0.25984251968503935
          },
          {
            "duration": 0.13333333333333997,
            "durationTicks": 128,
            "midi": 36,
            "name": "C2",
            "ticks": 63616,
            "time": 66.26666666666667,
            "velocity": 0.25984251968503935
          },
          {
            "duration": 0.13333333333333997,
            "durationTicks": 128,
            "midi": 41,
            "name": "F2",
            "ticks": 63616,
            "time": 66.26666666666667,
            "velocity": 0.25984251968503935
          },
          {
            "duration": 0.13333333333333997,
            "durationTicks": 128,
            "midi": 44,
            "name": "G#2",
            "ticks": 63744,
            "time": 66.4,
            "velocity": 0.25984251968503935
          },
          {
            "duration": 0.13333333333333997,
            "durationTicks": 128,
            "midi": 35,
            "name": "B1",
            "ticks": 63744,
            "time": 66.4,
            "velocity": 0.25984251968503935
          },
          {
            "duration": 0.13333333333333997,
            "durationTicks": 128,
            "midi": 40,
            "name": "E2",
            "ticks": 63744,
            "time": 66.4,
            "velocity": 0.25984251968503935
          },
          {
            "duration": 0.13333333333333997,
            "durationTicks": 128,
            "midi": 38,
            "name": "D2",
            "ticks": 63744,
            "time": 66.4,
            "velocity": 0.25984251968503935
          },
          {
            "duration": 0.13333333333332575,
            "durationTicks": 128,
            "midi": 44,
            "name": "G#2",
            "ticks": 63872,
            "time": 66.53333333333335,
            "velocity": 0.25984251968503935
          },
          {
            "duration": 0.13333333333332575,
            "durationTicks": 128,
            "midi": 38,
            "name": "D2",
            "ticks": 63872,
            "time": 66.53333333333335,
            "velocity": 0.25984251968503935
          },
          {
            "duration": 0.13333333333332575,
            "durationTicks": 128,
            "midi": 36,
            "name": "C2",
            "ticks": 63872,
            "time": 66.53333333333335,
            "velocity": 0.25984251968503935
          },
          {
            "duration": 0.13333333333332575,
            "durationTicks": 128,
            "midi": 40,
            "name": "E2",
            "ticks": 63872,
            "time": 66.53333333333335,
            "velocity": 0.25984251968503935
          },
          {
            "duration": 0.13333333333332575,
            "durationTicks": 128,
            "midi": 40,
            "name": "E2",
            "ticks": 64000,
            "time": 66.66666666666667,
            "velocity": 0.25984251968503935
          },
          {
            "duration": 0.13333333333332575,
            "durationTicks": 128,
            "midi": 44,
            "name": "G#2",
            "ticks": 64000,
            "time": 66.66666666666667,
            "velocity": 0.25984251968503935
          },
          {
            "duration": 0.13333333333332575,
            "durationTicks": 128,
            "midi": 38,
            "name": "D2",
            "ticks": 64000,
            "time": 66.66666666666667,
            "velocity": 0.25984251968503935
          },
          {
            "duration": 0.13333333333332575,
            "durationTicks": 128,
            "midi": 35,
            "name": "B1",
            "ticks": 64000,
            "time": 66.66666666666667,
            "velocity": 0.25984251968503935
          },
          {
            "duration": 0.13333333333333997,
            "durationTicks": 128,
            "midi": 38,
            "name": "D2",
            "ticks": 64128,
            "time": 66.8,
            "velocity": 0.25984251968503935
          },
          {
            "duration": 0.13333333333333997,
            "durationTicks": 128,
            "midi": 44,
            "name": "G#2",
            "ticks": 64128,
            "time": 66.8,
            "velocity": 0.25984251968503935
          },
          {
            "duration": 0.13333333333333997,
            "durationTicks": 128,
            "midi": 36,
            "name": "C2",
            "ticks": 64128,
            "time": 66.8,
            "velocity": 0.25984251968503935
          },
          {
            "duration": 0.13333333333333997,
            "durationTicks": 128,
            "midi": 41,
            "name": "F2",
            "ticks": 64128,
            "time": 66.8,
            "velocity": 0.25984251968503935
          },
          {
            "duration": 0.13333333333332575,
            "durationTicks": 128,
            "midi": 38,
            "name": "D2",
            "ticks": 64256,
            "time": 66.93333333333334,
            "velocity": 0.25984251968503935
          },
          {
            "duration": 0.13333333333332575,
            "durationTicks": 128,
            "midi": 41,
            "name": "F2",
            "ticks": 64256,
            "time": 66.93333333333334,
            "velocity": 0.25984251968503935
          },
          {
            "duration": 0.13333333333332575,
            "durationTicks": 128,
            "midi": 35,
            "name": "B1",
            "ticks": 64256,
            "time": 66.93333333333334,
            "velocity": 0.25984251968503935
          },
          {
            "duration": 0.13333333333332575,
            "durationTicks": 128,
            "midi": 44,
            "name": "G#2",
            "ticks": 64256,
            "time": 66.93333333333334,
            "velocity": 0.25984251968503935
          },
          {
            "duration": 0.13333333333333997,
            "durationTicks": 128,
            "midi": 41,
            "name": "F2",
            "ticks": 64384,
            "time": 67.06666666666666,
            "velocity": 0.25984251968503935
          },
          {
            "duration": 0.13333333333333997,
            "durationTicks": 128,
            "midi": 44,
            "name": "G#2",
            "ticks": 64384,
            "time": 67.06666666666666,
            "velocity": 0.25984251968503935
          },
          {
            "duration": 0.13333333333333997,
            "durationTicks": 128,
            "midi": 38,
            "name": "D2",
            "ticks": 64384,
            "time": 67.06666666666666,
            "velocity": 0.25984251968503935
          },
          {
            "duration": 0.13333333333333997,
            "durationTicks": 128,
            "midi": 36,
            "name": "C2",
            "ticks": 64384,
            "time": 67.06666666666666,
            "velocity": 0.25984251968503935
          },
          {
            "duration": 0.09999999999999432,
            "durationTicks": 96,
            "midi": 44,
            "name": "G#2",
            "ticks": 64512,
            "time": 67.2,
            "velocity": 0.25984251968503935
          },
          {
            "duration": 0.09999999999999432,
            "durationTicks": 96,
            "midi": 35,
            "name": "B1",
            "ticks": 64512,
            "time": 67.2,
            "velocity": 0.25984251968503935
          },
          {
            "duration": 0.09999999999999432,
            "durationTicks": 96,
            "midi": 40,
            "name": "E2",
            "ticks": 64512,
            "time": 67.2,
            "velocity": 0.25984251968503935
          },
          {
            "duration": 0.09999999999999432,
            "durationTicks": 96,
            "midi": 38,
            "name": "D2",
            "ticks": 64512,
            "time": 67.2,
            "velocity": 0.25984251968503935
          },
          {
            "duration": 0.10000000000000853,
            "durationTicks": 96,
            "midi": 40,
            "name": "E2",
            "ticks": 64608,
            "time": 67.3,
            "velocity": 0.25984251968503935
          },
          {
            "duration": 0.10000000000000853,
            "durationTicks": 96,
            "midi": 36,
            "name": "C2",
            "ticks": 64608,
            "time": 67.3,
            "velocity": 0.25984251968503935
          },
          {
            "duration": 0.10000000000000853,
            "durationTicks": 96,
            "midi": 44,
            "name": "G#2",
            "ticks": 64608,
            "time": 67.3,
            "velocity": 0.25984251968503935
          },
          {
            "duration": 0.10000000000000853,
            "durationTicks": 96,
            "midi": 38,
            "name": "D2",
            "ticks": 64608,
            "time": 67.3,
            "velocity": 0.25984251968503935
          },
          {
            "duration": 0.09999999999999432,
            "durationTicks": 96,
            "midi": 35,
            "name": "B1",
            "ticks": 64704,
            "time": 67.4,
            "velocity": 0.25984251968503935
          },
          {
            "duration": 0.09999999999999432,
            "durationTicks": 96,
            "midi": 38,
            "name": "D2",
            "ticks": 64704,
            "time": 67.4,
            "velocity": 0.25984251968503935
          },
          {
            "duration": 0.09999999999999432,
            "durationTicks": 96,
            "midi": 41,
            "name": "F2",
            "ticks": 64704,
            "time": 67.4,
            "velocity": 0.25984251968503935
          },
          {
            "duration": 0.09999999999999432,
            "durationTicks": 96,
            "midi": 44,
            "name": "G#2",
            "ticks": 64704,
            "time": 67.4,
            "velocity": 0.25984251968503935
          },
          {
            "duration": 0.10000000000000853,
            "durationTicks": 96,
            "midi": 38,
            "name": "D2",
            "ticks": 64800,
            "time": 67.5,
            "velocity": 0.25984251968503935
          },
          {
            "duration": 0.10000000000000853,
            "durationTicks": 96,
            "midi": 41,
            "name": "F2",
            "ticks": 64800,
            "time": 67.5,
            "velocity": 0.25984251968503935
          },
          {
            "duration": 0.10000000000000853,
            "durationTicks": 96,
            "midi": 36,
            "name": "C2",
            "ticks": 64800,
            "time": 67.5,
            "velocity": 0.25984251968503935
          },
          {
            "duration": 0.10000000000000853,
            "durationTicks": 96,
            "midi": 44,
            "name": "G#2",
            "ticks": 64800,
            "time": 67.5,
            "velocity": 0.25984251968503935
          },
          {
            "duration": 0.09999999999999432,
            "durationTicks": 96,
            "midi": 35,
            "name": "B1",
            "ticks": 64896,
            "time": 67.60000000000001,
            "velocity": 0.25984251968503935
          },
          {
            "duration": 0.09999999999999432,
            "durationTicks": 96,
            "midi": 38,
            "name": "D2",
            "ticks": 64896,
            "time": 67.60000000000001,
            "velocity": 0.25984251968503935
          },
          {
            "duration": 0.09999999999999432,
            "durationTicks": 96,
            "midi": 40,
            "name": "E2",
            "ticks": 64896,
            "time": 67.60000000000001,
            "velocity": 0.25984251968503935
          },
          {
            "duration": 0.09999999999999432,
            "durationTicks": 96,
            "midi": 44,
            "name": "G#2",
            "ticks": 64896,
            "time": 67.60000000000001,
            "velocity": 0.25984251968503935
          },
          {
            "duration": 0.09999999999999432,
            "durationTicks": 96,
            "midi": 38,
            "name": "D2",
            "ticks": 64992,
            "time": 67.7,
            "velocity": 0.25984251968503935
          },
          {
            "duration": 0.09999999999999432,
            "durationTicks": 96,
            "midi": 36,
            "name": "C2",
            "ticks": 64992,
            "time": 67.7,
            "velocity": 0.25984251968503935
          },
          {
            "duration": 0.09999999999999432,
            "durationTicks": 96,
            "midi": 44,
            "name": "G#2",
            "ticks": 64992,
            "time": 67.7,
            "velocity": 0.25984251968503935
          },
          {
            "duration": 0.09999999999999432,
            "durationTicks": 96,
            "midi": 40,
            "name": "E2",
            "ticks": 64992,
            "time": 67.7,
            "velocity": 0.25984251968503935
          },
          {
            "duration": 0.10000000000000853,
            "durationTicks": 96,
            "midi": 38,
            "name": "D2",
            "ticks": 65088,
            "time": 67.8,
            "velocity": 0.25984251968503935
          },
          {
            "duration": 0.10000000000000853,
            "durationTicks": 96,
            "midi": 35,
            "name": "B1",
            "ticks": 65088,
            "time": 67.8,
            "velocity": 0.25984251968503935
          },
          {
            "duration": 0.10000000000000853,
            "durationTicks": 96,
            "midi": 44,
            "name": "G#2",
            "ticks": 65088,
            "time": 67.8,
            "velocity": 0.25984251968503935
          },
          {
            "duration": 0.10000000000000853,
            "durationTicks": 96,
            "midi": 41,
            "name": "F2",
            "ticks": 65088,
            "time": 67.8,
            "velocity": 0.25984251968503935
          },
          {
            "duration": 0.09999999999999432,
            "durationTicks": 96,
            "midi": 41,
            "name": "F2",
            "ticks": 65184,
            "time": 67.9,
            "velocity": 0.25984251968503935
          },
          {
            "duration": 0.09999999999999432,
            "durationTicks": 96,
            "midi": 44,
            "name": "G#2",
            "ticks": 65184,
            "time": 67.9,
            "velocity": 0.25984251968503935
          },
          {
            "duration": 0.09999999999999432,
            "durationTicks": 96,
            "midi": 36,
            "name": "C2",
            "ticks": 65184,
            "time": 67.9,
            "velocity": 0.25984251968503935
          },
          {
            "duration": 0.09999999999999432,
            "durationTicks": 96,
            "midi": 38,
            "name": "D2",
            "ticks": 65184,
            "time": 67.9,
            "velocity": 0.25984251968503935
          },
          {
            "duration": 0.10000000000000853,
            "durationTicks": 96,
            "midi": 44,
            "name": "G#2",
            "ticks": 65280,
            "time": 68,
            "velocity": 0.25984251968503935
          },
          {
            "duration": 0.10000000000000853,
            "durationTicks": 96,
            "midi": 38,
            "name": "D2",
            "ticks": 65280,
            "time": 68,
            "velocity": 0.25984251968503935
          },
          {
            "duration": 0.10000000000000853,
            "durationTicks": 96,
            "midi": 35,
            "name": "B1",
            "ticks": 65280,
            "time": 68,
            "velocity": 0.25984251968503935
          },
          {
            "duration": 0.10000000000000853,
            "durationTicks": 96,
            "midi": 40,
            "name": "E2",
            "ticks": 65280,
            "time": 68,
            "velocity": 0.25984251968503935
          },
          {
            "duration": 0.09999999999999432,
            "durationTicks": 96,
            "midi": 44,
            "name": "G#2",
            "ticks": 65376,
            "time": 68.10000000000001,
            "velocity": 0.25984251968503935
          },
          {
            "duration": 0.09999999999999432,
            "durationTicks": 96,
            "midi": 38,
            "name": "D2",
            "ticks": 65376,
            "time": 68.10000000000001,
            "velocity": 0.25984251968503935
          },
          {
            "duration": 0.09999999999999432,
            "durationTicks": 96,
            "midi": 36,
            "name": "C2",
            "ticks": 65376,
            "time": 68.10000000000001,
            "velocity": 0.25984251968503935
          },
          {
            "duration": 0.09999999999999432,
            "durationTicks": 96,
            "midi": 40,
            "name": "E2",
            "ticks": 65376,
            "time": 68.10000000000001,
            "velocity": 0.25984251968503935
          },
          {
            "duration": 0.09999999999999432,
            "durationTicks": 96,
            "midi": 35,
            "name": "B1",
            "ticks": 65472,
            "time": 68.2,
            "velocity": 0.25984251968503935
          },
          {
            "duration": 0.09999999999999432,
            "durationTicks": 96,
            "midi": 44,
            "name": "G#2",
            "ticks": 65472,
            "time": 68.2,
            "velocity": 0.25984251968503935
          },
          {
            "duration": 0.09999999999999432,
            "durationTicks": 96,
            "midi": 41,
            "name": "F2",
            "ticks": 65472,
            "time": 68.2,
            "velocity": 0.25984251968503935
          },
          {
            "duration": 0.09999999999999432,
            "durationTicks": 96,
            "midi": 38,
            "name": "D2",
            "ticks": 65472,
            "time": 68.2,
            "velocity": 0.25984251968503935
          },
          {
            "duration": 0.10000000000000853,
            "durationTicks": 96,
            "midi": 41,
            "name": "F2",
            "ticks": 65568,
            "time": 68.3,
            "velocity": 0.25984251968503935
          },
          {
            "duration": 0.10000000000000853,
            "durationTicks": 96,
            "midi": 38,
            "name": "D2",
            "ticks": 65568,
            "time": 68.3,
            "velocity": 0.25984251968503935
          },
          {
            "duration": 0.10000000000000853,
            "durationTicks": 96,
            "midi": 36,
            "name": "C2",
            "ticks": 65568,
            "time": 68.3,
            "velocity": 0.25984251968503935
          },
          {
            "duration": 0.10000000000000853,
            "durationTicks": 96,
            "midi": 44,
            "name": "G#2",
            "ticks": 65568,
            "time": 68.3,
            "velocity": 0.25984251968503935
          },
          {
            "duration": 0.09999999999999432,
            "durationTicks": 96,
            "midi": 35,
            "name": "B1",
            "ticks": 65664,
            "time": 68.4,
            "velocity": 0.25984251968503935
          },
          {
            "duration": 0.09999999999999432,
            "durationTicks": 96,
            "midi": 40,
            "name": "E2",
            "ticks": 65664,
            "time": 68.4,
            "velocity": 0.25984251968503935
          },
          {
            "duration": 0.09999999999999432,
            "durationTicks": 96,
            "midi": 38,
            "name": "D2",
            "ticks": 65664,
            "time": 68.4,
            "velocity": 0.25984251968503935
          },
          {
            "duration": 0.09999999999999432,
            "durationTicks": 96,
            "midi": 44,
            "name": "G#2",
            "ticks": 65664,
            "time": 68.4,
            "velocity": 0.25984251968503935
          },
          {
            "duration": 0.10000000000000853,
            "durationTicks": 96,
            "midi": 38,
            "name": "D2",
            "ticks": 65760,
            "time": 68.5,
            "velocity": 0.25984251968503935
          },
          {
            "duration": 0.10000000000000853,
            "durationTicks": 96,
            "midi": 40,
            "name": "E2",
            "ticks": 65760,
            "time": 68.5,
            "velocity": 0.25984251968503935
          },
          {
            "duration": 0.10000000000000853,
            "durationTicks": 96,
            "midi": 44,
            "name": "G#2",
            "ticks": 65760,
            "time": 68.5,
            "velocity": 0.25984251968503935
          },
          {
            "duration": 0.10000000000000853,
            "durationTicks": 96,
            "midi": 36,
            "name": "C2",
            "ticks": 65760,
            "time": 68.5,
            "velocity": 0.25984251968503935
          },
          {
            "duration": 0.09999999999999432,
            "durationTicks": 96,
            "midi": 44,
            "name": "G#2",
            "ticks": 65856,
            "time": 68.60000000000001,
            "velocity": 0.25984251968503935
          },
          {
            "duration": 0.09999999999999432,
            "durationTicks": 96,
            "midi": 35,
            "name": "B1",
            "ticks": 65856,
            "time": 68.60000000000001,
            "velocity": 0.25984251968503935
          },
          {
            "duration": 0.09999999999999432,
            "durationTicks": 96,
            "midi": 41,
            "name": "F2",
            "ticks": 65856,
            "time": 68.60000000000001,
            "velocity": 0.25984251968503935
          },
          {
            "duration": 0.09999999999999432,
            "durationTicks": 96,
            "midi": 38,
            "name": "D2",
            "ticks": 65856,
            "time": 68.60000000000001,
            "velocity": 0.25984251968503935
          },
          {
            "duration": 0.09999999999999432,
            "durationTicks": 96,
            "midi": 44,
            "name": "G#2",
            "ticks": 65952,
            "time": 68.7,
            "velocity": 0.25984251968503935
          },
          {
            "duration": 0.09999999999999432,
            "durationTicks": 96,
            "midi": 36,
            "name": "C2",
            "ticks": 65952,
            "time": 68.7,
            "velocity": 0.25984251968503935
          },
          {
            "duration": 0.09999999999999432,
            "durationTicks": 96,
            "midi": 38,
            "name": "D2",
            "ticks": 65952,
            "time": 68.7,
            "velocity": 0.25984251968503935
          },
          {
            "duration": 0.09999999999999432,
            "durationTicks": 96,
            "midi": 41,
            "name": "F2",
            "ticks": 65952,
            "time": 68.7,
            "velocity": 0.25984251968503935
          },
          {
            "duration": 0.10000000000000853,
            "durationTicks": 96,
            "midi": 44,
            "name": "G#2",
            "ticks": 66048,
            "time": 68.8,
            "velocity": 0.25984251968503935
          },
          {
            "duration": 0.10000000000000853,
            "durationTicks": 96,
            "midi": 35,
            "name": "B1",
            "ticks": 66048,
            "time": 68.8,
            "velocity": 0.25984251968503935
          },
          {
            "duration": 0.10000000000000853,
            "durationTicks": 96,
            "midi": 40,
            "name": "E2",
            "ticks": 66048,
            "time": 68.8,
            "velocity": 0.25984251968503935
          },
          {
            "duration": 0.10000000000000853,
            "durationTicks": 96,
            "midi": 38,
            "name": "D2",
            "ticks": 66048,
            "time": 68.8,
            "velocity": 0.25984251968503935
          },
          {
            "duration": 0.09999999999999432,
            "durationTicks": 96,
            "midi": 40,
            "name": "E2",
            "ticks": 66144,
            "time": 68.9,
            "velocity": 0.25984251968503935
          },
          {
            "duration": 0.09999999999999432,
            "durationTicks": 96,
            "midi": 38,
            "name": "D2",
            "ticks": 66144,
            "time": 68.9,
            "velocity": 0.25984251968503935
          },
          {
            "duration": 0.09999999999999432,
            "durationTicks": 96,
            "midi": 44,
            "name": "G#2",
            "ticks": 66144,
            "time": 68.9,
            "velocity": 0.25984251968503935
          },
          {
            "duration": 0.09999999999999432,
            "durationTicks": 96,
            "midi": 36,
            "name": "C2",
            "ticks": 66144,
            "time": 68.9,
            "velocity": 0.25984251968503935
          },
          {
            "duration": 0.10000000000000853,
            "durationTicks": 96,
            "midi": 41,
            "name": "F2",
            "ticks": 66240,
            "time": 69,
            "velocity": 0.25984251968503935
          },
          {
            "duration": 0.10000000000000853,
            "durationTicks": 96,
            "midi": 35,
            "name": "B1",
            "ticks": 66240,
            "time": 69,
            "velocity": 0.25984251968503935
          },
          {
            "duration": 0.10000000000000853,
            "durationTicks": 96,
            "midi": 44,
            "name": "G#2",
            "ticks": 66240,
            "time": 69,
            "velocity": 0.25984251968503935
          },
          {
            "duration": 0.10000000000000853,
            "durationTicks": 96,
            "midi": 38,
            "name": "D2",
            "ticks": 66240,
            "time": 69,
            "velocity": 0.25984251968503935
          },
          {
            "duration": 0.09999999999999432,
            "durationTicks": 96,
            "midi": 41,
            "name": "F2",
            "ticks": 66336,
            "time": 69.10000000000001,
            "velocity": 0.25984251968503935
          },
          {
            "duration": 0.09999999999999432,
            "durationTicks": 96,
            "midi": 36,
            "name": "C2",
            "ticks": 66336,
            "time": 69.10000000000001,
            "velocity": 0.25984251968503935
          },
          {
            "duration": 0.09999999999999432,
            "durationTicks": 96,
            "midi": 44,
            "name": "G#2",
            "ticks": 66336,
            "time": 69.10000000000001,
            "velocity": 0.25984251968503935
          },
          {
            "duration": 0.09999999999999432,
            "durationTicks": 96,
            "midi": 38,
            "name": "D2",
            "ticks": 66336,
            "time": 69.10000000000001,
            "velocity": 0.25984251968503935
          },
          {
            "duration": 0.09999999999999432,
            "durationTicks": 96,
            "midi": 38,
            "name": "D2",
            "ticks": 66432,
            "time": 69.2,
            "velocity": 0.25984251968503935
          },
          {
            "duration": 0.09999999999999432,
            "durationTicks": 96,
            "midi": 44,
            "name": "G#2",
            "ticks": 66432,
            "time": 69.2,
            "velocity": 0.25984251968503935
          },
          {
            "duration": 0.09999999999999432,
            "durationTicks": 96,
            "midi": 35,
            "name": "B1",
            "ticks": 66432,
            "time": 69.2,
            "velocity": 0.25984251968503935
          },
          {
            "duration": 0.09999999999999432,
            "durationTicks": 96,
            "midi": 40,
            "name": "E2",
            "ticks": 66432,
            "time": 69.2,
            "velocity": 0.25984251968503935
          },
          {
            "duration": 0.10000000000000853,
            "durationTicks": 96,
            "midi": 44,
            "name": "G#2",
            "ticks": 66528,
            "time": 69.3,
            "velocity": 0.25984251968503935
          },
          {
            "duration": 0.10000000000000853,
            "durationTicks": 96,
            "midi": 36,
            "name": "C2",
            "ticks": 66528,
            "time": 69.3,
            "velocity": 0.25984251968503935
          },
          {
            "duration": 0.10000000000000853,
            "durationTicks": 96,
            "midi": 38,
            "name": "D2",
            "ticks": 66528,
            "time": 69.3,
            "velocity": 0.25984251968503935
          },
          {
            "duration": 0.10000000000000853,
            "durationTicks": 96,
            "midi": 40,
            "name": "E2",
            "ticks": 66528,
            "time": 69.3,
            "velocity": 0.25984251968503935
          },
          {
            "duration": 0.09999999999999432,
            "durationTicks": 96,
            "midi": 38,
            "name": "D2",
            "ticks": 66624,
            "time": 69.4,
            "velocity": 0.25984251968503935
          },
          {
            "duration": 0.09999999999999432,
            "durationTicks": 96,
            "midi": 41,
            "name": "F2",
            "ticks": 66624,
            "time": 69.4,
            "velocity": 0.25984251968503935
          },
          {
            "duration": 0.09999999999999432,
            "durationTicks": 96,
            "midi": 44,
            "name": "G#2",
            "ticks": 66624,
            "time": 69.4,
            "velocity": 0.25984251968503935
          },
          {
            "duration": 0.09999999999999432,
            "durationTicks": 96,
            "midi": 35,
            "name": "B1",
            "ticks": 66624,
            "time": 69.4,
            "velocity": 0.25984251968503935
          },
          {
            "duration": 0.10000000000000853,
            "durationTicks": 96,
            "midi": 41,
            "name": "F2",
            "ticks": 66720,
            "time": 69.5,
            "velocity": 0.25984251968503935
          },
          {
            "duration": 0.10000000000000853,
            "durationTicks": 96,
            "midi": 38,
            "name": "D2",
            "ticks": 66720,
            "time": 69.5,
            "velocity": 0.25984251968503935
          },
          {
            "duration": 0.10000000000000853,
            "durationTicks": 96,
            "midi": 44,
            "name": "G#2",
            "ticks": 66720,
            "time": 69.5,
            "velocity": 0.25984251968503935
          },
          {
            "duration": 0.10000000000000853,
            "durationTicks": 96,
            "midi": 36,
            "name": "C2",
            "ticks": 66720,
            "time": 69.5,
            "velocity": 0.25984251968503935
          },
          {
            "duration": 0.09999999999999432,
            "durationTicks": 96,
            "midi": 35,
            "name": "B1",
            "ticks": 66816,
            "time": 69.60000000000001,
            "velocity": 0.25984251968503935
          },
          {
            "duration": 0.09999999999999432,
            "durationTicks": 96,
            "midi": 44,
            "name": "G#2",
            "ticks": 66816,
            "time": 69.60000000000001,
            "velocity": 0.25984251968503935
          },
          {
            "duration": 0.09999999999999432,
            "durationTicks": 96,
            "midi": 40,
            "name": "E2",
            "ticks": 66816,
            "time": 69.60000000000001,
            "velocity": 0.25984251968503935
          },
          {
            "duration": 0.09999999999999432,
            "durationTicks": 96,
            "midi": 38,
            "name": "D2",
            "ticks": 66816,
            "time": 69.60000000000001,
            "velocity": 0.25984251968503935
          },
          {
            "duration": 0.09999999999999432,
            "durationTicks": 96,
            "midi": 40,
            "name": "E2",
            "ticks": 66912,
            "time": 69.7,
            "velocity": 0.25984251968503935
          },
          {
            "duration": 0.09999999999999432,
            "durationTicks": 96,
            "midi": 44,
            "name": "G#2",
            "ticks": 66912,
            "time": 69.7,
            "velocity": 0.25984251968503935
          },
          {
            "duration": 0.09999999999999432,
            "durationTicks": 96,
            "midi": 38,
            "name": "D2",
            "ticks": 66912,
            "time": 69.7,
            "velocity": 0.25984251968503935
          },
          {
            "duration": 0.09999999999999432,
            "durationTicks": 96,
            "midi": 36,
            "name": "C2",
            "ticks": 66912,
            "time": 69.7,
            "velocity": 0.25984251968503935
          },
          {
            "duration": 0.10000000000000853,
            "durationTicks": 96,
            "midi": 35,
            "name": "B1",
            "ticks": 67008,
            "time": 69.8,
            "velocity": 0.25984251968503935
          },
          {
            "duration": 0.10000000000000853,
            "durationTicks": 96,
            "midi": 44,
            "name": "G#2",
            "ticks": 67008,
            "time": 69.8,
            "velocity": 0.25984251968503935
          },
          {
            "duration": 0.10000000000000853,
            "durationTicks": 96,
            "midi": 38,
            "name": "D2",
            "ticks": 67008,
            "time": 69.8,
            "velocity": 0.25984251968503935
          },
          {
            "duration": 0.10000000000000853,
            "durationTicks": 96,
            "midi": 41,
            "name": "F2",
            "ticks": 67008,
            "time": 69.8,
            "velocity": 0.25984251968503935
          },
          {
            "duration": 0.09999999999999432,
            "durationTicks": 96,
            "midi": 36,
            "name": "C2",
            "ticks": 67104,
            "time": 69.9,
            "velocity": 0.25984251968503935
          },
          {
            "duration": 0.09999999999999432,
            "durationTicks": 96,
            "midi": 38,
            "name": "D2",
            "ticks": 67104,
            "time": 69.9,
            "velocity": 0.25984251968503935
          },
          {
            "duration": 0.09999999999999432,
            "durationTicks": 96,
            "midi": 41,
            "name": "F2",
            "ticks": 67104,
            "time": 69.9,
            "velocity": 0.25984251968503935
          },
          {
            "duration": 0.09999999999999432,
            "durationTicks": 96,
            "midi": 44,
            "name": "G#2",
            "ticks": 67104,
            "time": 69.9,
            "velocity": 0.25984251968503935
          },
          {
            "duration": 0.10000000000000853,
            "durationTicks": 96,
            "midi": 35,
            "name": "B1",
            "ticks": 67200,
            "time": 70,
            "velocity": 0.25984251968503935
          },
          {
            "duration": 0.10000000000000853,
            "durationTicks": 96,
            "midi": 38,
            "name": "D2",
            "ticks": 67200,
            "time": 70,
            "velocity": 0.25984251968503935
          },
          {
            "duration": 0.10000000000000853,
            "durationTicks": 96,
            "midi": 40,
            "name": "E2",
            "ticks": 67200,
            "time": 70,
            "velocity": 0.25984251968503935
          },
          {
            "duration": 0.10000000000000853,
            "durationTicks": 96,
            "midi": 44,
            "name": "G#2",
            "ticks": 67200,
            "time": 70,
            "velocity": 0.25984251968503935
          },
          {
            "duration": 0.09999999999999432,
            "durationTicks": 96,
            "midi": 44,
            "name": "G#2",
            "ticks": 67296,
            "time": 70.10000000000001,
            "velocity": 0.25984251968503935
          },
          {
            "duration": 0.09999999999999432,
            "durationTicks": 96,
            "midi": 40,
            "name": "E2",
            "ticks": 67296,
            "time": 70.10000000000001,
            "velocity": 0.25984251968503935
          },
          {
            "duration": 0.09999999999999432,
            "durationTicks": 96,
            "midi": 36,
            "name": "C2",
            "ticks": 67296,
            "time": 70.10000000000001,
            "velocity": 0.25984251968503935
          },
          {
            "duration": 0.09999999999999432,
            "durationTicks": 96,
            "midi": 38,
            "name": "D2",
            "ticks": 67296,
            "time": 70.10000000000001,
            "velocity": 0.25984251968503935
          },
          {
            "duration": 0.09999999999999432,
            "durationTicks": 96,
            "midi": 44,
            "name": "G#2",
            "ticks": 67392,
            "time": 70.2,
            "velocity": 0.25984251968503935
          },
          {
            "duration": 0.09999999999999432,
            "durationTicks": 96,
            "midi": 41,
            "name": "F2",
            "ticks": 67392,
            "time": 70.2,
            "velocity": 0.25984251968503935
          },
          {
            "duration": 0.09999999999999432,
            "durationTicks": 96,
            "midi": 35,
            "name": "B1",
            "ticks": 67392,
            "time": 70.2,
            "velocity": 0.25984251968503935
          },
          {
            "duration": 0.09999999999999432,
            "durationTicks": 96,
            "midi": 38,
            "name": "D2",
            "ticks": 67392,
            "time": 70.2,
            "velocity": 0.25984251968503935
          },
          {
            "duration": 0.10000000000000853,
            "durationTicks": 96,
            "midi": 38,
            "name": "D2",
            "ticks": 67488,
            "time": 70.3,
            "velocity": 0.25984251968503935
          },
          {
            "duration": 0.10000000000000853,
            "durationTicks": 96,
            "midi": 44,
            "name": "G#2",
            "ticks": 67488,
            "time": 70.3,
            "velocity": 0.25984251968503935
          },
          {
            "duration": 0.10000000000000853,
            "durationTicks": 96,
            "midi": 36,
            "name": "C2",
            "ticks": 67488,
            "time": 70.3,
            "velocity": 0.25984251968503935
          },
          {
            "duration": 0.10000000000000853,
            "durationTicks": 96,
            "midi": 41,
            "name": "F2",
            "ticks": 67488,
            "time": 70.3,
            "velocity": 0.25984251968503935
          },
          {
            "duration": 0.09999999999999432,
            "durationTicks": 96,
            "midi": 44,
            "name": "G#2",
            "ticks": 67584,
            "time": 70.4,
            "velocity": 0.25984251968503935
          },
          {
            "duration": 0.09999999999999432,
            "durationTicks": 96,
            "midi": 35,
            "name": "B1",
            "ticks": 67584,
            "time": 70.4,
            "velocity": 0.25984251968503935
          },
          {
            "duration": 0.09999999999999432,
            "durationTicks": 96,
            "midi": 40,
            "name": "E2",
            "ticks": 67584,
            "time": 70.4,
            "velocity": 0.25984251968503935
          },
          {
            "duration": 0.09999999999999432,
            "durationTicks": 96,
            "midi": 38,
            "name": "D2",
            "ticks": 67584,
            "time": 70.4,
            "velocity": 0.25984251968503935
          },
          {
            "duration": 0.10000000000000853,
            "durationTicks": 96,
            "midi": 36,
            "name": "C2",
            "ticks": 67680,
            "time": 70.5,
            "velocity": 0.25984251968503935
          },
          {
            "duration": 0.10000000000000853,
            "durationTicks": 96,
            "midi": 38,
            "name": "D2",
            "ticks": 67680,
            "time": 70.5,
            "velocity": 0.25984251968503935
          },
          {
            "duration": 0.10000000000000853,
            "durationTicks": 96,
            "midi": 44,
            "name": "G#2",
            "ticks": 67680,
            "time": 70.5,
            "velocity": 0.25984251968503935
          },
          {
            "duration": 0.10000000000000853,
            "durationTicks": 96,
            "midi": 40,
            "name": "E2",
            "ticks": 67680,
            "time": 70.5,
            "velocity": 0.25984251968503935
          },
          {
            "duration": 0.09999999999999432,
            "durationTicks": 96,
            "midi": 44,
            "name": "G#2",
            "ticks": 67776,
            "time": 70.60000000000001,
            "velocity": 0.25984251968503935
          },
          {
            "duration": 0.09999999999999432,
            "durationTicks": 96,
            "midi": 35,
            "name": "B1",
            "ticks": 67776,
            "time": 70.60000000000001,
            "velocity": 0.25984251968503935
          },
          {
            "duration": 0.09999999999999432,
            "durationTicks": 96,
            "midi": 38,
            "name": "D2",
            "ticks": 67776,
            "time": 70.60000000000001,
            "velocity": 0.25984251968503935
          },
          {
            "duration": 0.09999999999999432,
            "durationTicks": 96,
            "midi": 41,
            "name": "F2",
            "ticks": 67776,
            "time": 70.60000000000001,
            "velocity": 0.25984251968503935
          },
          {
            "duration": 0.09999999999999432,
            "durationTicks": 96,
            "midi": 41,
            "name": "F2",
            "ticks": 67872,
            "time": 70.7,
            "velocity": 0.25984251968503935
          },
          {
            "duration": 0.09999999999999432,
            "durationTicks": 96,
            "midi": 36,
            "name": "C2",
            "ticks": 67872,
            "time": 70.7,
            "velocity": 0.25984251968503935
          },
          {
            "duration": 0.09999999999999432,
            "durationTicks": 96,
            "midi": 38,
            "name": "D2",
            "ticks": 67872,
            "time": 70.7,
            "velocity": 0.25984251968503935
          },
          {
            "duration": 0.09999999999999432,
            "durationTicks": 96,
            "midi": 44,
            "name": "G#2",
            "ticks": 67872,
            "time": 70.7,
            "velocity": 0.25984251968503935
          },
          {
            "duration": 0.10000000000000853,
            "durationTicks": 96,
            "midi": 40,
            "name": "E2",
            "ticks": 67968,
            "time": 70.8,
            "velocity": 0.25984251968503935
          },
          {
            "duration": 0.10000000000000853,
            "durationTicks": 96,
            "midi": 35,
            "name": "B1",
            "ticks": 67968,
            "time": 70.8,
            "velocity": 0.25984251968503935
          },
          {
            "duration": 0.10000000000000853,
            "durationTicks": 96,
            "midi": 38,
            "name": "D2",
            "ticks": 67968,
            "time": 70.8,
            "velocity": 0.25984251968503935
          },
          {
            "duration": 0.10000000000000853,
            "durationTicks": 96,
            "midi": 44,
            "name": "G#2",
            "ticks": 67968,
            "time": 70.8,
            "velocity": 0.25984251968503935
          },
          {
            "duration": 0.09999999999999432,
            "durationTicks": 96,
            "midi": 40,
            "name": "E2",
            "ticks": 68064,
            "time": 70.9,
            "velocity": 0.25984251968503935
          },
          {
            "duration": 0.09999999999999432,
            "durationTicks": 96,
            "midi": 36,
            "name": "C2",
            "ticks": 68064,
            "time": 70.9,
            "velocity": 0.25984251968503935
          },
          {
            "duration": 0.09999999999999432,
            "durationTicks": 96,
            "midi": 38,
            "name": "D2",
            "ticks": 68064,
            "time": 70.9,
            "velocity": 0.25984251968503935
          },
          {
            "duration": 0.09999999999999432,
            "durationTicks": 96,
            "midi": 44,
            "name": "G#2",
            "ticks": 68064,
            "time": 70.9,
            "velocity": 0.25984251968503935
          },
          {
            "duration": 0.10000000000000853,
            "durationTicks": 96,
            "midi": 41,
            "name": "F2",
            "ticks": 68160,
            "time": 71,
            "velocity": 0.25984251968503935
          },
          {
            "duration": 0.10000000000000853,
            "durationTicks": 96,
            "midi": 35,
            "name": "B1",
            "ticks": 68160,
            "time": 71,
            "velocity": 0.25984251968503935
          },
          {
            "duration": 0.10000000000000853,
            "durationTicks": 96,
            "midi": 44,
            "name": "G#2",
            "ticks": 68160,
            "time": 71,
            "velocity": 0.25984251968503935
          },
          {
            "duration": 0.10000000000000853,
            "durationTicks": 96,
            "midi": 38,
            "name": "D2",
            "ticks": 68160,
            "time": 71,
            "velocity": 0.25984251968503935
          },
          {
            "duration": 0.09999999999999432,
            "durationTicks": 96,
            "midi": 44,
            "name": "G#2",
            "ticks": 68256,
            "time": 71.10000000000001,
            "velocity": 0.25984251968503935
          },
          {
            "duration": 0.09999999999999432,
            "durationTicks": 96,
            "midi": 36,
            "name": "C2",
            "ticks": 68256,
            "time": 71.10000000000001,
            "velocity": 0.25984251968503935
          },
          {
            "duration": 0.09999999999999432,
            "durationTicks": 96,
            "midi": 41,
            "name": "F2",
            "ticks": 68256,
            "time": 71.10000000000001,
            "velocity": 0.25984251968503935
          },
          {
            "duration": 0.09999999999999432,
            "durationTicks": 96,
            "midi": 38,
            "name": "D2",
            "ticks": 68256,
            "time": 71.10000000000001,
            "velocity": 0.25984251968503935
          },
          {
            "duration": 0.09999999999999432,
            "durationTicks": 96,
            "midi": 35,
            "name": "B1",
            "ticks": 68352,
            "time": 71.2,
            "velocity": 0.25984251968503935
          },
          {
            "duration": 0.09999999999999432,
            "durationTicks": 96,
            "midi": 44,
            "name": "G#2",
            "ticks": 68352,
            "time": 71.2,
            "velocity": 0.25984251968503935
          },
          {
            "duration": 0.09999999999999432,
            "durationTicks": 96,
            "midi": 38,
            "name": "D2",
            "ticks": 68352,
            "time": 71.2,
            "velocity": 0.25984251968503935
          },
          {
            "duration": 0.09999999999999432,
            "durationTicks": 96,
            "midi": 40,
            "name": "E2",
            "ticks": 68352,
            "time": 71.2,
            "velocity": 0.25984251968503935
          },
          {
            "duration": 0.10000000000000853,
            "durationTicks": 96,
            "midi": 40,
            "name": "E2",
            "ticks": 68448,
            "time": 71.3,
            "velocity": 0.25984251968503935
          },
          {
            "duration": 0.10000000000000853,
            "durationTicks": 96,
            "midi": 44,
            "name": "G#2",
            "ticks": 68448,
            "time": 71.3,
            "velocity": 0.25984251968503935
          },
          {
            "duration": 0.10000000000000853,
            "durationTicks": 96,
            "midi": 38,
            "name": "D2",
            "ticks": 68448,
            "time": 71.3,
            "velocity": 0.25984251968503935
          },
          {
            "duration": 0.10000000000000853,
            "durationTicks": 96,
            "midi": 36,
            "name": "C2",
            "ticks": 68448,
            "time": 71.3,
            "velocity": 0.25984251968503935
          },
          {
            "duration": 0.09999999999999432,
            "durationTicks": 96,
            "midi": 41,
            "name": "F2",
            "ticks": 68544,
            "time": 71.4,
            "velocity": 0.25984251968503935
          },
          {
            "duration": 0.09999999999999432,
            "durationTicks": 96,
            "midi": 44,
            "name": "G#2",
            "ticks": 68544,
            "time": 71.4,
            "velocity": 0.25984251968503935
          },
          {
            "duration": 0.09999999999999432,
            "durationTicks": 96,
            "midi": 38,
            "name": "D2",
            "ticks": 68544,
            "time": 71.4,
            "velocity": 0.25984251968503935
          },
          {
            "duration": 0.09999999999999432,
            "durationTicks": 96,
            "midi": 35,
            "name": "B1",
            "ticks": 68544,
            "time": 71.4,
            "velocity": 0.25984251968503935
          },
          {
            "duration": 0.10000000000000853,
            "durationTicks": 96,
            "midi": 36,
            "name": "C2",
            "ticks": 68640,
            "time": 71.5,
            "velocity": 0.25984251968503935
          },
          {
            "duration": 0.10000000000000853,
            "durationTicks": 96,
            "midi": 41,
            "name": "F2",
            "ticks": 68640,
            "time": 71.5,
            "velocity": 0.25984251968503935
          },
          {
            "duration": 0.10000000000000853,
            "durationTicks": 96,
            "midi": 44,
            "name": "G#2",
            "ticks": 68640,
            "time": 71.5,
            "velocity": 0.25984251968503935
          },
          {
            "duration": 0.10000000000000853,
            "durationTicks": 96,
            "midi": 38,
            "name": "D2",
            "ticks": 68640,
            "time": 71.5,
            "velocity": 0.25984251968503935
          },
          {
            "duration": 0.09999999999999432,
            "durationTicks": 96,
            "midi": 40,
            "name": "E2",
            "ticks": 68736,
            "time": 71.60000000000001,
            "velocity": 0.25984251968503935
          },
          {
            "duration": 0.09999999999999432,
            "durationTicks": 96,
            "midi": 44,
            "name": "G#2",
            "ticks": 68736,
            "time": 71.60000000000001,
            "velocity": 0.25984251968503935
          },
          {
            "duration": 0.09999999999999432,
            "durationTicks": 96,
            "midi": 35,
            "name": "B1",
            "ticks": 68736,
            "time": 71.60000000000001,
            "velocity": 0.25984251968503935
          },
          {
            "duration": 0.09999999999999432,
            "durationTicks": 96,
            "midi": 38,
            "name": "D2",
            "ticks": 68736,
            "time": 71.60000000000001,
            "velocity": 0.25984251968503935
          },
          {
            "duration": 0.09999999999999432,
            "durationTicks": 96,
            "midi": 38,
            "name": "D2",
            "ticks": 68832,
            "time": 71.7,
            "velocity": 0.25984251968503935
          },
          {
            "duration": 0.09999999999999432,
            "durationTicks": 96,
            "midi": 36,
            "name": "C2",
            "ticks": 68832,
            "time": 71.7,
            "velocity": 0.25984251968503935
          },
          {
            "duration": 0.09999999999999432,
            "durationTicks": 96,
            "midi": 44,
            "name": "G#2",
            "ticks": 68832,
            "time": 71.7,
            "velocity": 0.25984251968503935
          },
          {
            "duration": 0.09999999999999432,
            "durationTicks": 96,
            "midi": 40,
            "name": "E2",
            "ticks": 68832,
            "time": 71.7,
            "velocity": 0.25984251968503935
          },
          {
            "duration": 0.10000000000000853,
            "durationTicks": 96,
            "midi": 41,
            "name": "F2",
            "ticks": 68928,
            "time": 71.8,
            "velocity": 0.25984251968503935
          },
          {
            "duration": 0.10000000000000853,
            "durationTicks": 96,
            "midi": 35,
            "name": "B1",
            "ticks": 68928,
            "time": 71.8,
            "velocity": 0.25984251968503935
          },
          {
            "duration": 0.10000000000000853,
            "durationTicks": 96,
            "midi": 44,
            "name": "G#2",
            "ticks": 68928,
            "time": 71.8,
            "velocity": 0.25984251968503935
          },
          {
            "duration": 0.10000000000000853,
            "durationTicks": 96,
            "midi": 38,
            "name": "D2",
            "ticks": 68928,
            "time": 71.8,
            "velocity": 0.25984251968503935
          },
          {
            "duration": 0.09999999999999432,
            "durationTicks": 96,
            "midi": 41,
            "name": "F2",
            "ticks": 69024,
            "time": 71.9,
            "velocity": 0.25984251968503935
          },
          {
            "duration": 0.09999999999999432,
            "durationTicks": 96,
            "midi": 44,
            "name": "G#2",
            "ticks": 69024,
            "time": 71.9,
            "velocity": 0.25984251968503935
          },
          {
            "duration": 0.09999999999999432,
            "durationTicks": 96,
            "midi": 38,
            "name": "D2",
            "ticks": 69024,
            "time": 71.9,
            "velocity": 0.25984251968503935
          },
          {
            "duration": 0.09999999999999432,
            "durationTicks": 96,
            "midi": 36,
            "name": "C2",
            "ticks": 69024,
            "time": 71.9,
            "velocity": 0.25984251968503935
          },
          {
            "duration": 0.13333333333333997,
            "durationTicks": 128,
            "midi": 35,
            "name": "B1",
            "ticks": 69120,
            "time": 72,
            "velocity": 0.25984251968503935
          },
          {
            "duration": 0.13333333333333997,
            "durationTicks": 128,
            "midi": 44,
            "name": "G#2",
            "ticks": 69120,
            "time": 72,
            "velocity": 0.25984251968503935
          },
          {
            "duration": 0.13333333333333997,
            "durationTicks": 128,
            "midi": 38,
            "name": "D2",
            "ticks": 69120,
            "time": 72,
            "velocity": 0.25984251968503935
          },
          {
            "duration": 0.13333333333333997,
            "durationTicks": 128,
            "midi": 40,
            "name": "E2",
            "ticks": 69120,
            "time": 72,
            "velocity": 0.25984251968503935
          },
          {
            "duration": 0.13333333333332575,
            "durationTicks": 128,
            "midi": 38,
            "name": "D2",
            "ticks": 69248,
            "time": 72.13333333333334,
            "velocity": 0.25984251968503935
          },
          {
            "duration": 0.13333333333332575,
            "durationTicks": 128,
            "midi": 36,
            "name": "C2",
            "ticks": 69248,
            "time": 72.13333333333334,
            "velocity": 0.25984251968503935
          },
          {
            "duration": 0.13333333333332575,
            "durationTicks": 128,
            "midi": 40,
            "name": "E2",
            "ticks": 69248,
            "time": 72.13333333333334,
            "velocity": 0.25984251968503935
          },
          {
            "duration": 0.13333333333332575,
            "durationTicks": 128,
            "midi": 44,
            "name": "G#2",
            "ticks": 69248,
            "time": 72.13333333333334,
            "velocity": 0.25984251968503935
          },
          {
            "duration": 0.13333333333333997,
            "durationTicks": 128,
            "midi": 35,
            "name": "B1",
            "ticks": 69376,
            "time": 72.26666666666667,
            "velocity": 0.25984251968503935
          },
          {
            "duration": 0.13333333333333997,
            "durationTicks": 128,
            "midi": 44,
            "name": "G#2",
            "ticks": 69376,
            "time": 72.26666666666667,
            "velocity": 0.25984251968503935
          },
          {
            "duration": 0.13333333333333997,
            "durationTicks": 128,
            "midi": 40,
            "name": "E2",
            "ticks": 69376,
            "time": 72.26666666666667,
            "velocity": 0.25984251968503935
          },
          {
            "duration": 0.13333333333333997,
            "durationTicks": 128,
            "midi": 38,
            "name": "D2",
            "ticks": 69376,
            "time": 72.26666666666667,
            "velocity": 0.25984251968503935
          },
          {
            "duration": 0.13333333333333997,
            "durationTicks": 128,
            "midi": 41,
            "name": "F2",
            "ticks": 69504,
            "time": 72.4,
            "velocity": 0.25984251968503935
          },
          {
            "duration": 0.13333333333333997,
            "durationTicks": 128,
            "midi": 44,
            "name": "G#2",
            "ticks": 69504,
            "time": 72.4,
            "velocity": 0.25984251968503935
          },
          {
            "duration": 0.13333333333333997,
            "durationTicks": 128,
            "midi": 38,
            "name": "D2",
            "ticks": 69504,
            "time": 72.4,
            "velocity": 0.25984251968503935
          },
          {
            "duration": 0.13333333333333997,
            "durationTicks": 128,
            "midi": 36,
            "name": "C2",
            "ticks": 69504,
            "time": 72.4,
            "velocity": 0.25984251968503935
          },
          {
            "duration": 0.13333333333332575,
            "durationTicks": 128,
            "midi": 44,
            "name": "G#2",
            "ticks": 69632,
            "time": 72.53333333333335,
            "velocity": 0.25984251968503935
          },
          {
            "duration": 0.13333333333332575,
            "durationTicks": 128,
            "midi": 41,
            "name": "F2",
            "ticks": 69632,
            "time": 72.53333333333335,
            "velocity": 0.25984251968503935
          },
          {
            "duration": 0.13333333333332575,
            "durationTicks": 128,
            "midi": 38,
            "name": "D2",
            "ticks": 69632,
            "time": 72.53333333333335,
            "velocity": 0.25984251968503935
          },
          {
            "duration": 0.13333333333332575,
            "durationTicks": 128,
            "midi": 35,
            "name": "B1",
            "ticks": 69632,
            "time": 72.53333333333335,
            "velocity": 0.25984251968503935
          },
          {
            "duration": 0.13333333333332575,
            "durationTicks": 128,
            "midi": 44,
            "name": "G#2",
            "ticks": 69760,
            "time": 72.66666666666667,
            "velocity": 0.25984251968503935
          },
          {
            "duration": 0.13333333333332575,
            "durationTicks": 128,
            "midi": 38,
            "name": "D2",
            "ticks": 69760,
            "time": 72.66666666666667,
            "velocity": 0.25984251968503935
          },
          {
            "duration": 0.13333333333332575,
            "durationTicks": 128,
            "midi": 41,
            "name": "F2",
            "ticks": 69760,
            "time": 72.66666666666667,
            "velocity": 0.25984251968503935
          },
          {
            "duration": 0.13333333333332575,
            "durationTicks": 128,
            "midi": 36,
            "name": "C2",
            "ticks": 69760,
            "time": 72.66666666666667,
            "velocity": 0.25984251968503935
          },
          {
            "duration": 0.13333333333333997,
            "durationTicks": 128,
            "midi": 38,
            "name": "D2",
            "ticks": 69888,
            "time": 72.8,
            "velocity": 0.25984251968503935
          },
          {
            "duration": 0.13333333333333997,
            "durationTicks": 128,
            "midi": 44,
            "name": "G#2",
            "ticks": 69888,
            "time": 72.8,
            "velocity": 0.25984251968503935
          },
          {
            "duration": 0.13333333333333997,
            "durationTicks": 128,
            "midi": 35,
            "name": "B1",
            "ticks": 69888,
            "time": 72.8,
            "velocity": 0.25984251968503935
          },
          {
            "duration": 0.13333333333333997,
            "durationTicks": 128,
            "midi": 40,
            "name": "E2",
            "ticks": 69888,
            "time": 72.8,
            "velocity": 0.25984251968503935
          },
          {
            "duration": 0.13333333333332575,
            "durationTicks": 128,
            "midi": 40,
            "name": "E2",
            "ticks": 70016,
            "time": 72.93333333333334,
            "velocity": 0.25984251968503935
          },
          {
            "duration": 0.13333333333332575,
            "durationTicks": 128,
            "midi": 36,
            "name": "C2",
            "ticks": 70016,
            "time": 72.93333333333334,
            "velocity": 0.25984251968503935
          },
          {
            "duration": 0.13333333333332575,
            "durationTicks": 128,
            "midi": 38,
            "name": "D2",
            "ticks": 70016,
            "time": 72.93333333333334,
            "velocity": 0.25984251968503935
          },
          {
            "duration": 0.13333333333332575,
            "durationTicks": 128,
            "midi": 44,
            "name": "G#2",
            "ticks": 70016,
            "time": 72.93333333333334,
            "velocity": 0.25984251968503935
          },
          {
            "duration": 0.13333333333333997,
            "durationTicks": 128,
            "midi": 40,
            "name": "E2",
            "ticks": 70144,
            "time": 73.06666666666666,
            "velocity": 0.25984251968503935
          },
          {
            "duration": 0.13333333333333997,
            "durationTicks": 128,
            "midi": 35,
            "name": "B1",
            "ticks": 70144,
            "time": 73.06666666666666,
            "velocity": 0.25984251968503935
          },
          {
            "duration": 0.13333333333333997,
            "durationTicks": 128,
            "midi": 44,
            "name": "G#2",
            "ticks": 70144,
            "time": 73.06666666666666,
            "velocity": 0.25984251968503935
          },
          {
            "duration": 0.13333333333333997,
            "durationTicks": 128,
            "midi": 38,
            "name": "D2",
            "ticks": 70144,
            "time": 73.06666666666666,
            "velocity": 0.25984251968503935
          },
          {
            "duration": 0.13333333333333997,
            "durationTicks": 128,
            "midi": 41,
            "name": "F2",
            "ticks": 70272,
            "time": 73.2,
            "velocity": 0.25984251968503935
          },
          {
            "duration": 0.13333333333333997,
            "durationTicks": 128,
            "midi": 38,
            "name": "D2",
            "ticks": 70272,
            "time": 73.2,
            "velocity": 0.25984251968503935
          },
          {
            "duration": 0.13333333333333997,
            "durationTicks": 128,
            "midi": 44,
            "name": "G#2",
            "ticks": 70272,
            "time": 73.2,
            "velocity": 0.25984251968503935
          },
          {
            "duration": 0.13333333333333997,
            "durationTicks": 128,
            "midi": 36,
            "name": "C2",
            "ticks": 70272,
            "time": 73.2,
            "velocity": 0.25984251968503935
          },
          {
            "duration": 0.13333333333332575,
            "durationTicks": 128,
            "midi": 38,
            "name": "D2",
            "ticks": 70400,
            "time": 73.33333333333334,
            "velocity": 0.25984251968503935
          },
          {
            "duration": 0.13333333333332575,
            "durationTicks": 128,
            "midi": 41,
            "name": "F2",
            "ticks": 70400,
            "time": 73.33333333333334,
            "velocity": 0.25984251968503935
          },
          {
            "duration": 0.13333333333332575,
            "durationTicks": 128,
            "midi": 44,
            "name": "G#2",
            "ticks": 70400,
            "time": 73.33333333333334,
            "velocity": 0.25984251968503935
          },
          {
            "duration": 0.13333333333332575,
            "durationTicks": 128,
            "midi": 35,
            "name": "B1",
            "ticks": 70400,
            "time": 73.33333333333334,
            "velocity": 0.25984251968503935
          },
          {
            "duration": 0.13333333333333997,
            "durationTicks": 128,
            "midi": 38,
            "name": "D2",
            "ticks": 70528,
            "time": 73.46666666666667,
            "velocity": 0.25984251968503935
          },
          {
            "duration": 0.13333333333333997,
            "durationTicks": 128,
            "midi": 44,
            "name": "G#2",
            "ticks": 70528,
            "time": 73.46666666666667,
            "velocity": 0.25984251968503935
          },
          {
            "duration": 0.13333333333333997,
            "durationTicks": 128,
            "midi": 36,
            "name": "C2",
            "ticks": 70528,
            "time": 73.46666666666667,
            "velocity": 0.25984251968503935
          },
          {
            "duration": 0.13333333333333997,
            "durationTicks": 128,
            "midi": 41,
            "name": "F2",
            "ticks": 70528,
            "time": 73.46666666666667,
            "velocity": 0.25984251968503935
          }
        ],
        "endOfTrackTicks": 70656
      },
      {
        "channel": 5,
        "controlChanges": {},
        "pitchBends": [],
        "instrument": {
          "family": "guitar",
          "number": 30,
          "name": "distortion guitar"
        },
        "name": "Distortion Guitar",
        "notes": [
          {
            "duration": 0.19999999999999574,
            "durationTicks": 192,
            "midi": 62,
            "name": "D4",
            "ticks": 58368,
            "time": 60.800000000000004,
            "velocity": 0.3937007874015748
          },
          {
            "duration": 0.19999999999999574,
            "durationTicks": 192,
            "midi": 50,
            "name": "D3",
            "ticks": 58368,
            "time": 60.800000000000004,
            "velocity": 0.3937007874015748
          },
          {
            "duration": 0.19999999999999574,
            "durationTicks": 192,
            "midi": 50,
            "name": "D3",
            "ticks": 58368,
            "time": 60.800000000000004,
            "velocity": 0.3937007874015748
          },
          {
            "duration": 0.20000000000000284,
            "durationTicks": 192,
            "midi": 45,
            "name": "A2",
            "ticks": 58560,
            "time": 61,
            "velocity": 0.3937007874015748
          },
          {
            "duration": 0.20000000000000284,
            "durationTicks": 192,
            "midi": 50,
            "name": "D3",
            "ticks": 58560,
            "time": 61,
            "velocity": 0.3937007874015748
          },
          {
            "duration": 0.20000000000000284,
            "durationTicks": 192,
            "midi": 57,
            "name": "A3",
            "ticks": 58560,
            "time": 61,
            "velocity": 0.3937007874015748
          },
          {
            "duration": 0.20000000000000284,
            "durationTicks": 192,
            "midi": 49,
            "name": "C#3",
            "ticks": 58752,
            "time": 61.2,
            "velocity": 0.3937007874015748
          },
          {
            "duration": 0.20000000000000284,
            "durationTicks": 192,
            "midi": 50,
            "name": "D3",
            "ticks": 58752,
            "time": 61.2,
            "velocity": 0.3937007874015748
          },
          {
            "duration": 0.20000000000000284,
            "durationTicks": 192,
            "midi": 61,
            "name": "C#4",
            "ticks": 58752,
            "time": 61.2,
            "velocity": 0.3937007874015748
          },
          {
            "duration": 0.19999999999999574,
            "durationTicks": 192,
            "midi": 62,
            "name": "D4",
            "ticks": 58944,
            "time": 61.400000000000006,
            "velocity": 0.3937007874015748
          },
          {
            "duration": 0.19999999999999574,
            "durationTicks": 192,
            "midi": 50,
            "name": "D3",
            "ticks": 58944,
            "time": 61.400000000000006,
            "velocity": 0.3937007874015748
          },
          {
            "duration": 0.19999999999999574,
            "durationTicks": 192,
            "midi": 50,
            "name": "D3",
            "ticks": 58944,
            "time": 61.400000000000006,
            "velocity": 0.3937007874015748
          },
          {
            "duration": 0.20000000000000284,
            "durationTicks": 192,
            "midi": 64,
            "name": "E4",
            "ticks": 59136,
            "time": 61.6,
            "velocity": 0.3937007874015748
          },
          {
            "duration": 0.20000000000000284,
            "durationTicks": 192,
            "midi": 52,
            "name": "E3",
            "ticks": 59136,
            "time": 61.6,
            "velocity": 0.3937007874015748
          },
          {
            "duration": 0.20000000000000284,
            "durationTicks": 192,
            "midi": 52,
            "name": "E3",
            "ticks": 59136,
            "time": 61.6,
            "velocity": 0.3937007874015748
          },
          {
            "duration": 0.19999999999999574,
            "durationTicks": 192,
            "midi": 57,
            "name": "A3",
            "ticks": 59328,
            "time": 61.800000000000004,
            "velocity": 0.3937007874015748
          },
          {
            "duration": 0.19999999999999574,
            "durationTicks": 192,
            "midi": 45,
            "name": "A2",
            "ticks": 59328,
            "time": 61.800000000000004,
            "velocity": 0.3937007874015748
          },
          {
            "duration": 0.19999999999999574,
            "durationTicks": 192,
            "midi": 52,
            "name": "E3",
            "ticks": 59328,
            "time": 61.800000000000004,
            "velocity": 0.3937007874015748
          },
          {
            "duration": 0.20000000000000284,
            "durationTicks": 192,
            "midi": 52,
            "name": "E3",
            "ticks": 59520,
            "time": 62,
            "velocity": 0.3937007874015748
          },
          {
            "duration": 0.20000000000000284,
            "durationTicks": 192,
            "midi": 50,
            "name": "D3",
            "ticks": 59520,
            "time": 62,
            "velocity": 0.3937007874015748
          },
          {
            "duration": 0.20000000000000284,
            "durationTicks": 192,
            "midi": 62,
            "name": "D4",
            "ticks": 59520,
            "time": 62,
            "velocity": 0.3937007874015748
          },
          {
            "duration": 0.20000000000000284,
            "durationTicks": 192,
            "midi": 52,
            "name": "E3",
            "ticks": 59712,
            "time": 62.2,
            "velocity": 0.3937007874015748
          },
          {
            "duration": 0.20000000000000284,
            "durationTicks": 192,
            "midi": 52,
            "name": "E3",
            "ticks": 59712,
            "time": 62.2,
            "velocity": 0.3937007874015748
          },
          {
            "duration": 0.20000000000000284,
            "durationTicks": 192,
            "midi": 64,
            "name": "E4",
            "ticks": 59712,
            "time": 62.2,
            "velocity": 0.3937007874015748
          },
          {
            "duration": 0.19999999999999574,
            "durationTicks": 192,
            "midi": 53,
            "name": "F3",
            "ticks": 59904,
            "time": 62.400000000000006,
            "velocity": 0.3937007874015748
          },
          {
            "duration": 0.19999999999999574,
            "durationTicks": 192,
            "midi": 65,
            "name": "F4",
            "ticks": 59904,
            "time": 62.400000000000006,
            "velocity": 0.3937007874015748
          },
          {
            "duration": 0.19999999999999574,
            "durationTicks": 192,
            "midi": 53,
            "name": "F3",
            "ticks": 59904,
            "time": 62.400000000000006,
            "velocity": 0.3937007874015748
          },
          {
            "duration": 0.20000000000000284,
            "durationTicks": 192,
            "midi": 45,
            "name": "A2",
            "ticks": 60096,
            "time": 62.6,
            "velocity": 0.3937007874015748
          },
          {
            "duration": 0.20000000000000284,
            "durationTicks": 192,
            "midi": 53,
            "name": "F3",
            "ticks": 60096,
            "time": 62.6,
            "velocity": 0.3937007874015748
          },
          {
            "duration": 0.20000000000000284,
            "durationTicks": 192,
            "midi": 57,
            "name": "A3",
            "ticks": 60096,
            "time": 62.6,
            "velocity": 0.3937007874015748
          },
          {
            "duration": 0.19999999999999574,
            "durationTicks": 192,
            "midi": 53,
            "name": "F3",
            "ticks": 60288,
            "time": 62.800000000000004,
            "velocity": 0.3937007874015748
          },
          {
            "duration": 0.19999999999999574,
            "durationTicks": 192,
            "midi": 62,
            "name": "D4",
            "ticks": 60288,
            "time": 62.800000000000004,
            "velocity": 0.3937007874015748
          },
          {
            "duration": 0.19999999999999574,
            "durationTicks": 192,
            "midi": 50,
            "name": "D3",
            "ticks": 60288,
            "time": 62.800000000000004,
            "velocity": 0.3937007874015748
          },
          {
            "duration": 0.20000000000000284,
            "durationTicks": 192,
            "midi": 65,
            "name": "F4",
            "ticks": 60480,
            "time": 63,
            "velocity": 0.3937007874015748
          },
          {
            "duration": 0.20000000000000284,
            "durationTicks": 192,
            "midi": 53,
            "name": "F3",
            "ticks": 60480,
            "time": 63,
            "velocity": 0.3937007874015748
          },
          {
            "duration": 0.20000000000000284,
            "durationTicks": 192,
            "midi": 53,
            "name": "F3",
            "ticks": 60480,
            "time": 63,
            "velocity": 0.3937007874015748
          },
          {
            "duration": 0.20000000000000284,
            "durationTicks": 192,
            "midi": 52,
            "name": "E3",
            "ticks": 60672,
            "time": 63.2,
            "velocity": 0.3937007874015748
          },
          {
            "duration": 0.20000000000000284,
            "durationTicks": 192,
            "midi": 52,
            "name": "E3",
            "ticks": 60672,
            "time": 63.2,
            "velocity": 0.3937007874015748
          },
          {
            "duration": 0.20000000000000284,
            "durationTicks": 192,
            "midi": 64,
            "name": "E4",
            "ticks": 60672,
            "time": 63.2,
            "velocity": 0.3937007874015748
          },
          {
            "duration": 0.19999999999999574,
            "durationTicks": 192,
            "midi": 45,
            "name": "A2",
            "ticks": 60864,
            "time": 63.400000000000006,
            "velocity": 0.3937007874015748
          },
          {
            "duration": 0.19999999999999574,
            "durationTicks": 192,
            "midi": 52,
            "name": "E3",
            "ticks": 60864,
            "time": 63.400000000000006,
            "velocity": 0.3937007874015748
          },
          {
            "duration": 0.19999999999999574,
            "durationTicks": 192,
            "midi": 57,
            "name": "A3",
            "ticks": 60864,
            "time": 63.400000000000006,
            "velocity": 0.3937007874015748
          },
          {
            "duration": 0.20000000000000284,
            "durationTicks": 192,
            "midi": 49,
            "name": "C#3",
            "ticks": 61056,
            "time": 63.6,
            "velocity": 0.3937007874015748
          },
          {
            "duration": 0.20000000000000284,
            "durationTicks": 192,
            "midi": 61,
            "name": "C#4",
            "ticks": 61056,
            "time": 63.6,
            "velocity": 0.3937007874015748
          },
          {
            "duration": 0.20000000000000284,
            "durationTicks": 192,
            "midi": 52,
            "name": "E3",
            "ticks": 61056,
            "time": 63.6,
            "velocity": 0.3937007874015748
          },
          {
            "duration": 0.19999999999999574,
            "durationTicks": 192,
            "midi": 52,
            "name": "E3",
            "ticks": 61248,
            "time": 63.800000000000004,
            "velocity": 0.3937007874015748
          },
          {
            "duration": 0.19999999999999574,
            "durationTicks": 192,
            "midi": 62,
            "name": "D4",
            "ticks": 61248,
            "time": 63.800000000000004,
            "velocity": 0.3937007874015748
          },
          {
            "duration": 0.19999999999999574,
            "durationTicks": 192,
            "midi": 50,
            "name": "D3",
            "ticks": 61248,
            "time": 63.800000000000004,
            "velocity": 0.3937007874015748
          },
          {
            "duration": 0.20000000000000284,
            "durationTicks": 192,
            "midi": 50,
            "name": "D3",
            "ticks": 61440,
            "time": 64,
            "velocity": 0.3937007874015748
          },
          {
            "duration": 0.20000000000000284,
            "durationTicks": 192,
            "midi": 62,
            "name": "D4",
            "ticks": 61440,
            "time": 64,
            "velocity": 0.3937007874015748
          },
          {
            "duration": 0.20000000000000284,
            "durationTicks": 192,
            "midi": 50,
            "name": "D3",
            "ticks": 61440,
            "time": 64,
            "velocity": 0.3937007874015748
          },
          {
            "duration": 0.20000000000000284,
            "durationTicks": 192,
            "midi": 57,
            "name": "A3",
            "ticks": 61632,
            "time": 64.2,
            "velocity": 0.3937007874015748
          },
          {
            "duration": 0.20000000000000284,
            "durationTicks": 192,
            "midi": 45,
            "name": "A2",
            "ticks": 61632,
            "time": 64.2,
            "velocity": 0.3937007874015748
          },
          {
            "duration": 0.20000000000000284,
            "durationTicks": 192,
            "midi": 50,
            "name": "D3",
            "ticks": 61632,
            "time": 64.2,
            "velocity": 0.3937007874015748
          },
          {
            "duration": 0.20000000000000284,
            "durationTicks": 192,
            "midi": 50,
            "name": "D3",
            "ticks": 61824,
            "time": 64.4,
            "velocity": 0.3937007874015748
          },
          {
            "duration": 0.20000000000000284,
            "durationTicks": 192,
            "midi": 61,
            "name": "C#4",
            "ticks": 61824,
            "time": 64.4,
            "velocity": 0.3937007874015748
          },
          {
            "duration": 0.20000000000000284,
            "durationTicks": 192,
            "midi": 49,
            "name": "C#3",
            "ticks": 61824,
            "time": 64.4,
            "velocity": 0.3937007874015748
          },
          {
            "duration": 0.19999999999998863,
            "durationTicks": 192,
            "midi": 50,
            "name": "D3",
            "ticks": 62016,
            "time": 64.60000000000001,
            "velocity": 0.3937007874015748
          },
          {
            "duration": 0.19999999999998863,
            "durationTicks": 192,
            "midi": 50,
            "name": "D3",
            "ticks": 62016,
            "time": 64.60000000000001,
            "velocity": 0.3937007874015748
          },
          {
            "duration": 0.19999999999998863,
            "durationTicks": 192,
            "midi": 62,
            "name": "D4",
            "ticks": 62016,
            "time": 64.60000000000001,
            "velocity": 0.3937007874015748
          },
          {
            "duration": 0.20000000000000284,
            "durationTicks": 192,
            "midi": 52,
            "name": "E3",
            "ticks": 62208,
            "time": 64.8,
            "velocity": 0.3937007874015748
          },
          {
            "duration": 0.20000000000000284,
            "durationTicks": 192,
            "midi": 52,
            "name": "E3",
            "ticks": 62208,
            "time": 64.8,
            "velocity": 0.3937007874015748
          },
          {
            "duration": 0.20000000000000284,
            "durationTicks": 192,
            "midi": 64,
            "name": "E4",
            "ticks": 62208,
            "time": 64.8,
            "velocity": 0.3937007874015748
          },
          {
            "duration": 0.20000000000000284,
            "durationTicks": 192,
            "midi": 45,
            "name": "A2",
            "ticks": 62400,
            "time": 65,
            "velocity": 0.3937007874015748
          },
          {
            "duration": 0.20000000000000284,
            "durationTicks": 192,
            "midi": 57,
            "name": "A3",
            "ticks": 62400,
            "time": 65,
            "velocity": 0.3937007874015748
          },
          {
            "duration": 0.20000000000000284,
            "durationTicks": 192,
            "midi": 52,
            "name": "E3",
            "ticks": 62400,
            "time": 65,
            "velocity": 0.3937007874015748
          },
          {
            "duration": 0.20000000000000284,
            "durationTicks": 192,
            "midi": 52,
            "name": "E3",
            "ticks": 62592,
            "time": 65.2,
            "velocity": 0.3937007874015748
          },
          {
            "duration": 0.20000000000000284,
            "durationTicks": 192,
            "midi": 50,
            "name": "D3",
            "ticks": 62592,
            "time": 65.2,
            "velocity": 0.3937007874015748
          },
          {
            "duration": 0.20000000000000284,
            "durationTicks": 192,
            "midi": 62,
            "name": "D4",
            "ticks": 62592,
            "time": 65.2,
            "velocity": 0.3937007874015748
          },
          {
            "duration": 0.20000000000000284,
            "durationTicks": 192,
            "midi": 52,
            "name": "E3",
            "ticks": 62784,
            "time": 65.4,
            "velocity": 0.3937007874015748
          },
          {
            "duration": 0.20000000000000284,
            "durationTicks": 192,
            "midi": 52,
            "name": "E3",
            "ticks": 62784,
            "time": 65.4,
            "velocity": 0.3937007874015748
          },
          {
            "duration": 0.20000000000000284,
            "durationTicks": 192,
            "midi": 64,
            "name": "E4",
            "ticks": 62784,
            "time": 65.4,
            "velocity": 0.3937007874015748
          },
          {
            "duration": 0.3499999999999943,
            "durationTicks": 336,
            "midi": 67,
            "name": "G4",
            "ticks": 62976,
            "time": 65.60000000000001,
            "velocity": 0.3937007874015748
          },
          {
            "duration": 0.3499999999999943,
            "durationTicks": 336,
            "midi": 55,
            "name": "G3",
            "ticks": 62976,
            "time": 65.60000000000001,
            "velocity": 0.3937007874015748
          },
          {
            "duration": 0.3499999999999943,
            "durationTicks": 336,
            "midi": 55,
            "name": "G3",
            "ticks": 62976,
            "time": 65.60000000000001,
            "velocity": 0.3937007874015748
          },
          {
            "duration": 0.3500000000000085,
            "durationTicks": 336,
            "midi": 66,
            "name": "F#4",
            "ticks": 63360,
            "time": 66,
            "velocity": 0.3937007874015748
          },
          {
            "duration": 0.3500000000000085,
            "durationTicks": 336,
            "midi": 54,
            "name": "F#3",
            "ticks": 63360,
            "time": 66,
            "velocity": 0.3937007874015748
          },
          {
            "duration": 0.3500000000000085,
            "durationTicks": 336,
            "midi": 54,
            "name": "F#3",
            "ticks": 63360,
            "time": 66,
            "velocity": 0.3937007874015748
          },
          {
            "duration": 0.3499999999999943,
            "durationTicks": 336,
            "midi": 53,
            "name": "F3",
            "ticks": 63744,
            "time": 66.4,
            "velocity": 0.3937007874015748
          },
          {
            "duration": 0.3499999999999943,
            "durationTicks": 336,
            "midi": 65,
            "name": "F4",
            "ticks": 63744,
            "time": 66.4,
            "velocity": 0.3937007874015748
          },
          {
            "duration": 0.3499999999999943,
            "durationTicks": 336,
            "midi": 53,
            "name": "F3",
            "ticks": 63744,
            "time": 66.4,
            "velocity": 0.3937007874015748
          },
          {
            "duration": 0.3500000000000085,
            "durationTicks": 336,
            "midi": 64,
            "name": "E4",
            "ticks": 64128,
            "time": 66.8,
            "velocity": 0.3937007874015748
          },
          {
            "duration": 0.3500000000000085,
            "durationTicks": 336,
            "midi": 52,
            "name": "E3",
            "ticks": 64128,
            "time": 66.8,
            "velocity": 0.3937007874015748
          },
          {
            "duration": 0.3500000000000085,
            "durationTicks": 336,
            "midi": 52,
            "name": "E3",
            "ticks": 64128,
            "time": 66.8,
            "velocity": 0.3937007874015748
          },
          {
            "duration": 0.20000000000000284,
            "durationTicks": 192,
            "midi": 50,
            "name": "D3",
            "ticks": 64512,
            "time": 67.2,
            "velocity": 0.3937007874015748
          },
          {
            "duration": 0.20000000000000284,
            "durationTicks": 192,
            "midi": 50,
            "name": "D3",
            "ticks": 64512,
            "time": 67.2,
            "velocity": 0.3937007874015748
          },
          {
            "duration": 0.20000000000000284,
            "durationTicks": 192,
            "midi": 62,
            "name": "D4",
            "ticks": 64512,
            "time": 67.2,
            "velocity": 0.3937007874015748
          },
          {
            "duration": 0.20000000000000284,
            "durationTicks": 192,
            "midi": 45,
            "name": "A2",
            "ticks": 64704,
            "time": 67.4,
            "velocity": 0.3937007874015748
          },
          {
            "duration": 0.20000000000000284,
            "durationTicks": 192,
            "midi": 50,
            "name": "D3",
            "ticks": 64704,
            "time": 67.4,
            "velocity": 0.3937007874015748
          },
          {
            "duration": 0.20000000000000284,
            "durationTicks": 192,
            "midi": 57,
            "name": "A3",
            "ticks": 64704,
            "time": 67.4,
            "velocity": 0.3937007874015748
          },
          {
            "duration": 0.19999999999998863,
            "durationTicks": 192,
            "midi": 61,
            "name": "C#4",
            "ticks": 64896,
            "time": 67.60000000000001,
            "velocity": 0.3937007874015748
          },
          {
            "duration": 0.19999999999998863,
            "durationTicks": 192,
            "midi": 49,
            "name": "C#3",
            "ticks": 64896,
            "time": 67.60000000000001,
            "velocity": 0.3937007874015748
          },
          {
            "duration": 0.19999999999998863,
            "durationTicks": 192,
            "midi": 50,
            "name": "D3",
            "ticks": 64896,
            "time": 67.60000000000001,
            "velocity": 0.3937007874015748
          },
          {
            "duration": 0.20000000000000284,
            "durationTicks": 192,
            "midi": 62,
            "name": "D4",
            "ticks": 65088,
            "time": 67.8,
            "velocity": 0.3937007874015748
          },
          {
            "duration": 0.20000000000000284,
            "durationTicks": 192,
            "midi": 50,
            "name": "D3",
            "ticks": 65088,
            "time": 67.8,
            "velocity": 0.3937007874015748
          },
          {
            "duration": 0.20000000000000284,
            "durationTicks": 192,
            "midi": 50,
            "name": "D3",
            "ticks": 65088,
            "time": 67.8,
            "velocity": 0.3937007874015748
          },
          {
            "duration": 0.20000000000000284,
            "durationTicks": 192,
            "midi": 64,
            "name": "E4",
            "ticks": 65280,
            "time": 68,
            "velocity": 0.3937007874015748
          },
          {
            "duration": 0.20000000000000284,
            "durationTicks": 192,
            "midi": 52,
            "name": "E3",
            "ticks": 65280,
            "time": 68,
            "velocity": 0.3937007874015748
          },
          {
            "duration": 0.20000000000000284,
            "durationTicks": 192,
            "midi": 52,
            "name": "E3",
            "ticks": 65280,
            "time": 68,
            "velocity": 0.3937007874015748
          },
          {
            "duration": 0.20000000000000284,
            "durationTicks": 192,
            "midi": 45,
            "name": "A2",
            "ticks": 65472,
            "time": 68.2,
            "velocity": 0.3937007874015748
          },
          {
            "duration": 0.20000000000000284,
            "durationTicks": 192,
            "midi": 57,
            "name": "A3",
            "ticks": 65472,
            "time": 68.2,
            "velocity": 0.3937007874015748
          },
          {
            "duration": 0.20000000000000284,
            "durationTicks": 192,
            "midi": 52,
            "name": "E3",
            "ticks": 65472,
            "time": 68.2,
            "velocity": 0.3937007874015748
          },
          {
            "duration": 0.20000000000000284,
            "durationTicks": 192,
            "midi": 52,
            "name": "E3",
            "ticks": 65664,
            "time": 68.4,
            "velocity": 0.3937007874015748
          },
          {
            "duration": 0.20000000000000284,
            "durationTicks": 192,
            "midi": 62,
            "name": "D4",
            "ticks": 65664,
            "time": 68.4,
            "velocity": 0.3937007874015748
          },
          {
            "duration": 0.20000000000000284,
            "durationTicks": 192,
            "midi": 50,
            "name": "D3",
            "ticks": 65664,
            "time": 68.4,
            "velocity": 0.3937007874015748
          },
          {
            "duration": 0.19999999999998863,
            "durationTicks": 192,
            "midi": 64,
            "name": "E4",
            "ticks": 65856,
            "time": 68.60000000000001,
            "velocity": 0.3937007874015748
          },
          {
            "duration": 0.19999999999998863,
            "durationTicks": 192,
            "midi": 52,
            "name": "E3",
            "ticks": 65856,
            "time": 68.60000000000001,
            "velocity": 0.3937007874015748
          },
          {
            "duration": 0.19999999999998863,
            "durationTicks": 192,
            "midi": 52,
            "name": "E3",
            "ticks": 65856,
            "time": 68.60000000000001,
            "velocity": 0.3937007874015748
          },
          {
            "duration": 0.20000000000000284,
            "durationTicks": 192,
            "midi": 53,
            "name": "F3",
            "ticks": 66048,
            "time": 68.8,
            "velocity": 0.3937007874015748
          },
          {
            "duration": 0.20000000000000284,
            "durationTicks": 192,
            "midi": 65,
            "name": "F4",
            "ticks": 66048,
            "time": 68.8,
            "velocity": 0.3937007874015748
          },
          {
            "duration": 0.20000000000000284,
            "durationTicks": 192,
            "midi": 53,
            "name": "F3",
            "ticks": 66048,
            "time": 68.8,
            "velocity": 0.3937007874015748
          },
          {
            "duration": 0.20000000000000284,
            "durationTicks": 192,
            "midi": 53,
            "name": "F3",
            "ticks": 66240,
            "time": 69,
            "velocity": 0.3937007874015748
          },
          {
            "duration": 0.20000000000000284,
            "durationTicks": 192,
            "midi": 57,
            "name": "A3",
            "ticks": 66240,
            "time": 69,
            "velocity": 0.3937007874015748
          },
          {
            "duration": 0.20000000000000284,
            "durationTicks": 192,
            "midi": 45,
            "name": "A2",
            "ticks": 66240,
            "time": 69,
            "velocity": 0.3937007874015748
          },
          {
            "duration": 0.20000000000000284,
            "durationTicks": 192,
            "midi": 50,
            "name": "D3",
            "ticks": 66432,
            "time": 69.2,
            "velocity": 0.3937007874015748
          },
          {
            "duration": 0.20000000000000284,
            "durationTicks": 192,
            "midi": 53,
            "name": "F3",
            "ticks": 66432,
            "time": 69.2,
            "velocity": 0.3937007874015748
          },
          {
            "duration": 0.20000000000000284,
            "durationTicks": 192,
            "midi": 62,
            "name": "D4",
            "ticks": 66432,
            "time": 69.2,
            "velocity": 0.3937007874015748
          },
          {
            "duration": 0.20000000000000284,
            "durationTicks": 192,
            "midi": 65,
            "name": "F4",
            "ticks": 66624,
            "time": 69.4,
            "velocity": 0.3937007874015748
          },
          {
            "duration": 0.20000000000000284,
            "durationTicks": 192,
            "midi": 53,
            "name": "F3",
            "ticks": 66624,
            "time": 69.4,
            "velocity": 0.3937007874015748
          },
          {
            "duration": 0.20000000000000284,
            "durationTicks": 192,
            "midi": 53,
            "name": "F3",
            "ticks": 66624,
            "time": 69.4,
            "velocity": 0.3937007874015748
          },
          {
            "duration": 0.19999999999998863,
            "durationTicks": 192,
            "midi": 64,
            "name": "E4",
            "ticks": 66816,
            "time": 69.60000000000001,
            "velocity": 0.3937007874015748
          },
          {
            "duration": 0.19999999999998863,
            "durationTicks": 192,
            "midi": 52,
            "name": "E3",
            "ticks": 66816,
            "time": 69.60000000000001,
            "velocity": 0.3937007874015748
          },
          {
            "duration": 0.19999999999998863,
            "durationTicks": 192,
            "midi": 52,
            "name": "E3",
            "ticks": 66816,
            "time": 69.60000000000001,
            "velocity": 0.3937007874015748
          },
          {
            "duration": 0.20000000000000284,
            "durationTicks": 192,
            "midi": 45,
            "name": "A2",
            "ticks": 67008,
            "time": 69.8,
            "velocity": 0.3937007874015748
          },
          {
            "duration": 0.20000000000000284,
            "durationTicks": 192,
            "midi": 57,
            "name": "A3",
            "ticks": 67008,
            "time": 69.8,
            "velocity": 0.3937007874015748
          },
          {
            "duration": 0.20000000000000284,
            "durationTicks": 192,
            "midi": 52,
            "name": "E3",
            "ticks": 67008,
            "time": 69.8,
            "velocity": 0.3937007874015748
          },
          {
            "duration": 0.20000000000000284,
            "durationTicks": 192,
            "midi": 52,
            "name": "E3",
            "ticks": 67200,
            "time": 70,
            "velocity": 0.3937007874015748
          },
          {
            "duration": 0.20000000000000284,
            "durationTicks": 192,
            "midi": 61,
            "name": "C#4",
            "ticks": 67200,
            "time": 70,
            "velocity": 0.3937007874015748
          },
          {
            "duration": 0.20000000000000284,
            "durationTicks": 192,
            "midi": 49,
            "name": "C#3",
            "ticks": 67200,
            "time": 70,
            "velocity": 0.3937007874015748
          },
          {
            "duration": 0.20000000000000284,
            "durationTicks": 192,
            "midi": 52,
            "name": "E3",
            "ticks": 67392,
            "time": 70.2,
            "velocity": 0.3937007874015748
          },
          {
            "duration": 0.20000000000000284,
            "durationTicks": 192,
            "midi": 50,
            "name": "D3",
            "ticks": 67392,
            "time": 70.2,
            "velocity": 0.3937007874015748
          },
          {
            "duration": 0.20000000000000284,
            "durationTicks": 192,
            "midi": 62,
            "name": "D4",
            "ticks": 67392,
            "time": 70.2,
            "velocity": 0.3937007874015748
          },
          {
            "duration": 0.20000000000000284,
            "durationTicks": 192,
            "midi": 50,
            "name": "D3",
            "ticks": 67584,
            "time": 70.4,
            "velocity": 0.3937007874015748
          },
          {
            "duration": 0.20000000000000284,
            "durationTicks": 192,
            "midi": 62,
            "name": "D4",
            "ticks": 67584,
            "time": 70.4,
            "velocity": 0.3937007874015748
          },
          {
            "duration": 0.20000000000000284,
            "durationTicks": 192,
            "midi": 50,
            "name": "D3",
            "ticks": 67584,
            "time": 70.4,
            "velocity": 0.3937007874015748
          },
          {
            "duration": 0.19999999999998863,
            "durationTicks": 192,
            "midi": 45,
            "name": "A2",
            "ticks": 67776,
            "time": 70.60000000000001,
            "velocity": 0.3937007874015748
          },
          {
            "duration": 0.19999999999998863,
            "durationTicks": 192,
            "midi": 50,
            "name": "D3",
            "ticks": 67776,
            "time": 70.60000000000001,
            "velocity": 0.3937007874015748
          },
          {
            "duration": 0.19999999999998863,
            "durationTicks": 192,
            "midi": 57,
            "name": "A3",
            "ticks": 67776,
            "time": 70.60000000000001,
            "velocity": 0.3937007874015748
          },
          {
            "duration": 0.20000000000000284,
            "durationTicks": 192,
            "midi": 49,
            "name": "C#3",
            "ticks": 67968,
            "time": 70.8,
            "velocity": 0.3937007874015748
          },
          {
            "duration": 0.20000000000000284,
            "durationTicks": 192,
            "midi": 50,
            "name": "D3",
            "ticks": 67968,
            "time": 70.8,
            "velocity": 0.3937007874015748
          },
          {
            "duration": 0.20000000000000284,
            "durationTicks": 192,
            "midi": 61,
            "name": "C#4",
            "ticks": 67968,
            "time": 70.8,
            "velocity": 0.3937007874015748
          },
          {
            "duration": 0.20000000000000284,
            "durationTicks": 192,
            "midi": 62,
            "name": "D4",
            "ticks": 68160,
            "time": 71,
            "velocity": 0.3937007874015748
          },
          {
            "duration": 0.20000000000000284,
            "durationTicks": 192,
            "midi": 50,
            "name": "D3",
            "ticks": 68160,
            "time": 71,
            "velocity": 0.3937007874015748
          },
          {
            "duration": 0.20000000000000284,
            "durationTicks": 192,
            "midi": 50,
            "name": "D3",
            "ticks": 68160,
            "time": 71,
            "velocity": 0.3937007874015748
          },
          {
            "duration": 0.20000000000000284,
            "durationTicks": 192,
            "midi": 64,
            "name": "E4",
            "ticks": 68352,
            "time": 71.2,
            "velocity": 0.3937007874015748
          },
          {
            "duration": 0.20000000000000284,
            "durationTicks": 192,
            "midi": 52,
            "name": "E3",
            "ticks": 68352,
            "time": 71.2,
            "velocity": 0.3937007874015748
          },
          {
            "duration": 0.20000000000000284,
            "durationTicks": 192,
            "midi": 52,
            "name": "E3",
            "ticks": 68352,
            "time": 71.2,
            "velocity": 0.3937007874015748
          },
          {
            "duration": 0.20000000000000284,
            "durationTicks": 192,
            "midi": 57,
            "name": "A3",
            "ticks": 68544,
            "time": 71.4,
            "velocity": 0.3937007874015748
          },
          {
            "duration": 0.20000000000000284,
            "durationTicks": 192,
            "midi": 45,
            "name": "A2",
            "ticks": 68544,
            "time": 71.4,
            "velocity": 0.3937007874015748
          },
          {
            "duration": 0.20000000000000284,
            "durationTicks": 192,
            "midi": 52,
            "name": "E3",
            "ticks": 68544,
            "time": 71.4,
            "velocity": 0.3937007874015748
          },
          {
            "duration": 0.19999999999998863,
            "durationTicks": 192,
            "midi": 52,
            "name": "E3",
            "ticks": 68736,
            "time": 71.60000000000001,
            "velocity": 0.3937007874015748
          },
          {
            "duration": 0.19999999999998863,
            "durationTicks": 192,
            "midi": 50,
            "name": "D3",
            "ticks": 68736,
            "time": 71.60000000000001,
            "velocity": 0.3937007874015748
          },
          {
            "duration": 0.19999999999998863,
            "durationTicks": 192,
            "midi": 62,
            "name": "D4",
            "ticks": 68736,
            "time": 71.60000000000001,
            "velocity": 0.3937007874015748
          },
          {
            "duration": 0.20000000000000284,
            "durationTicks": 192,
            "midi": 64,
            "name": "E4",
            "ticks": 68928,
            "time": 71.8,
            "velocity": 0.3937007874015748
          },
          {
            "duration": 0.20000000000000284,
            "durationTicks": 192,
            "midi": 52,
            "name": "E3",
            "ticks": 68928,
            "time": 71.8,
            "velocity": 0.3937007874015748
          },
          {
            "duration": 0.20000000000000284,
            "durationTicks": 192,
            "midi": 52,
            "name": "E3",
            "ticks": 68928,
            "time": 71.8,
            "velocity": 0.3937007874015748
          },
          {
            "duration": 0.3500000000000085,
            "durationTicks": 336,
            "midi": 67,
            "name": "G4",
            "ticks": 69120,
            "time": 72,
            "velocity": 0.3937007874015748
          },
          {
            "duration": 0.20000000000000284,
            "durationTicks": 192,
            "midi": 55,
            "name": "G3",
            "ticks": 69120,
            "time": 72,
            "velocity": 0.3937007874015748
          },
          {
            "duration": 0.20000000000000284,
            "durationTicks": 192,
            "midi": 55,
            "name": "G3",
            "ticks": 69120,
            "time": 72,
            "velocity": 0.3937007874015748
          },
          {
            "duration": 0.20000000000000284,
            "durationTicks": 192,
            "midi": 54,
            "name": "F#3",
            "ticks": 69504,
            "time": 72.4,
            "velocity": 0.3937007874015748
          },
          {
            "duration": 0.20000000000000284,
            "durationTicks": 192,
            "midi": 54,
            "name": "F#3",
            "ticks": 69504,
            "time": 72.4,
            "velocity": 0.3937007874015748
          },
          {
            "duration": 0.3499999999999943,
            "durationTicks": 336,
            "midi": 66,
            "name": "F#4",
            "ticks": 69504,
            "time": 72.4,
            "velocity": 0.3937007874015748
          },
          {
            "duration": 0.3500000000000085,
            "durationTicks": 336,
            "midi": 65,
            "name": "F4",
            "ticks": 69888,
            "time": 72.8,
            "velocity": 0.3937007874015748
          },
          {
            "duration": 0.20000000000000284,
            "durationTicks": 192,
            "midi": 53,
            "name": "F3",
            "ticks": 69888,
            "time": 72.8,
            "velocity": 0.3937007874015748
          },
          {
            "duration": 0.20000000000000284,
            "durationTicks": 192,
            "midi": 53,
            "name": "F3",
            "ticks": 69888,
            "time": 72.8,
            "velocity": 0.3937007874015748
          },
          {
            "duration": 0.20000000000000284,
            "durationTicks": 192,
            "midi": 52,
            "name": "E3",
            "ticks": 70272,
            "time": 73.2,
            "velocity": 0.3937007874015748
          },
          {
            "duration": 0.20000000000000284,
            "durationTicks": 192,
            "midi": 52,
            "name": "E3",
            "ticks": 70272,
            "time": 73.2,
            "velocity": 0.3937007874015748
          },
          {
            "duration": 0.3499999999999943,
            "durationTicks": 336,
            "midi": 64,
            "name": "E4",
            "ticks": 70272,
            "time": 73.2,
            "velocity": 0.3937007874015748
          },
          {
            "duration": 2,
            "durationTicks": 1920,
            "midi": 63,
            "name": "D#4",
            "ticks": 70656,
            "time": 73.60000000000001,
            "velocity": 0.3937007874015748
          },
          {
            "duration": 0.6499999999999915,
            "durationTicks": 624,
            "midi": 51,
            "name": "D#3",
            "ticks": 70656,
            "time": 73.60000000000001,
            "velocity": 0.3937007874015748
          },
          {
            "duration": 1.5,
            "durationTicks": 1440,
            "midi": 51,
            "name": "D#3",
            "ticks": 70656,
            "time": 73.60000000000001,
            "velocity": 0.3937007874015748
          }
        ],
        "endOfTrackTicks": 72576
      }
    ]
  }