{
    "header": {
      "keySignatures": [],
      "meta": [],
      "name": "",
      "ppq": 384,
      "tempos": [
        {
          "bpm": 80,
          "ticks": 0
        }
      ],
      "timeSignatures": [
        {
          "ticks": 0,
          "timeSignature": [
            1,
            4
          ],
          "measures": 0
        }
      ]
    },
    "tracks": [
      {
        "channel": 0,
        "controlChanges": {},
        "pitchBends": [],
        "instrument": {
          "family": "piano",
          "number": 0,
          "name": "acoustic grand piano"
        },
        "name": "Elec. Piano (Classic)",
        "notes": [
          {
            "duration": 0.1875,
            "durationTicks": 96,
            "midi": 42,
            "name": "F#2",
            "ticks": 0,
            "time": 0,
            "velocity": 0.3937007874015748
          },
          {
            "duration": 0.1875,
            "durationTicks": 96,
            "midi": 30,
            "name": "F#1",
            "ticks": 0,
            "time": 0,
            "velocity": 0.3937007874015748
          },
          {
            "duration": 0.1875,
            "durationTicks": 96,
            "midi": 30,
            "name": "F#1",
            "ticks": 96,
            "time": 0.1875,
            "velocity": 0.3937007874015748
          },
          {
            "duration": 0.1875,
            "durationTicks": 96,
            "midi": 30,
            "name": "F#1",
            "ticks": 192,
            "time": 0.375,
            "velocity": 0.3937007874015748
          },
          {
            "duration": 0.1875,
            "durationTicks": 96,
            "midi": 30,
            "name": "F#1",
            "ticks": 288,
            "time": 0.5625,
            "velocity": 0.3937007874015748
          },
          {
            "duration": 0.1875,
            "durationTicks": 96,
            "midi": 42,
            "name": "F#2",
            "ticks": 288,
            "time": 0.5625,
            "velocity": 0.3937007874015748
          },
          {
            "duration": 0.1875,
            "durationTicks": 96,
            "midi": 30,
            "name": "F#1",
            "ticks": 384,
            "time": 0.75,
            "velocity": 0.3937007874015748
          },
          {
            "duration": 0.1875,
            "durationTicks": 96,
            "midi": 30,
            "name": "F#1",
            "ticks": 480,
            "time": 0.9375,
            "velocity": 0.3937007874015748
          },
          {
            "duration": 0.1875,
            "durationTicks": 96,
            "midi": 42,
            "name": "F#2",
            "ticks": 480,
            "time": 0.9375,
            "velocity": 0.3937007874015748
          },
          {
            "duration": 0.1875,
            "durationTicks": 96,
            "midi": 45,
            "name": "A2",
            "ticks": 576,
            "time": 1.125,
            "velocity": 0.3937007874015748
          },
          {
            "duration": 0.1875,
            "durationTicks": 96,
            "midi": 33,
            "name": "A1",
            "ticks": 576,
            "time": 1.125,
            "velocity": 0.3937007874015748
          },
          {
            "duration": 0.1875,
            "durationTicks": 96,
            "midi": 32,
            "name": "G#1",
            "ticks": 672,
            "time": 1.3125,
            "velocity": 0.3937007874015748
          },
          {
            "duration": 0.1875,
            "durationTicks": 96,
            "midi": 30,
            "name": "F#1",
            "ticks": 768,
            "time": 1.5,
            "velocity": 0.3937007874015748
          },
          {
            "duration": 0.1875,
            "durationTicks": 96,
            "midi": 42,
            "name": "F#2",
            "ticks": 768,
            "time": 1.5,
            "velocity": 0.3937007874015748
          },
          {
            "duration": 0.1875,
            "durationTicks": 96,
            "midi": 30,
            "name": "F#1",
            "ticks": 864,
            "time": 1.6875,
            "velocity": 0.3937007874015748
          },
          {
            "duration": 0.1875,
            "durationTicks": 96,
            "midi": 30,
            "name": "F#1",
            "ticks": 960,
            "time": 1.875,
            "velocity": 0.3937007874015748
          },
          {
            "duration": 0.1875,
            "durationTicks": 96,
            "midi": 30,
            "name": "F#1",
            "ticks": 1056,
            "time": 2.0625,
            "velocity": 0.3937007874015748
          },
          {
            "duration": 0.1875,
            "durationTicks": 96,
            "midi": 42,
            "name": "F#2",
            "ticks": 1056,
            "time": 2.0625,
            "velocity": 0.3937007874015748
          },
          {
            "duration": 0.1875,
            "durationTicks": 96,
            "midi": 30,
            "name": "F#1",
            "ticks": 1152,
            "time": 2.25,
            "velocity": 0.3937007874015748
          },
          {
            "duration": 0.1875,
            "durationTicks": 96,
            "midi": 33,
            "name": "A1",
            "ticks": 1248,
            "time": 2.4375,
            "velocity": 0.3937007874015748
          },
          {
            "duration": 0.1875,
            "durationTicks": 96,
            "midi": 45,
            "name": "A2",
            "ticks": 1248,
            "time": 2.4375,
            "velocity": 0.3937007874015748
          },
          {
            "duration": 0.1875,
            "durationTicks": 96,
            "midi": 44,
            "name": "G#2",
            "ticks": 1344,
            "time": 2.625,
            "velocity": 0.3937007874015748
          },
          {
            "duration": 0.1875,
            "durationTicks": 96,
            "midi": 32,
            "name": "G#1",
            "ticks": 1344,
            "time": 2.625,
            "velocity": 0.3937007874015748
          },
          {
            "duration": 0.1875,
            "durationTicks": 96,
            "midi": 42,
            "name": "F#2",
            "ticks": 1440,
            "time": 2.8125,
            "velocity": 0.3937007874015748
          },
          {
            "duration": 0.1875,
            "durationTicks": 96,
            "midi": 30,
            "name": "F#1",
            "ticks": 1440,
            "time": 2.8125,
            "velocity": 0.3937007874015748
          },
          {
            "duration": 0.1875,
            "durationTicks": 96,
            "midi": 29,
            "name": "F1",
            "ticks": 1536,
            "time": 3,
            "velocity": 0.3937007874015748
          },
          {
            "duration": 0.1875,
            "durationTicks": 96,
            "midi": 41,
            "name": "F2",
            "ticks": 1536,
            "time": 3,
            "velocity": 0.3937007874015748
          },
          {
            "duration": 0.1875,
            "durationTicks": 96,
            "midi": 29,
            "name": "F1",
            "ticks": 1632,
            "time": 3.1875,
            "velocity": 0.3937007874015748
          },
          {
            "duration": 0.1875,
            "durationTicks": 96,
            "midi": 29,
            "name": "F1",
            "ticks": 1728,
            "time": 3.375,
            "velocity": 0.3937007874015748
          },
          {
            "duration": 0.1875,
            "durationTicks": 96,
            "midi": 41,
            "name": "F2",
            "ticks": 1824,
            "time": 3.5625,
            "velocity": 0.3937007874015748
          },
          {
            "duration": 0.1875,
            "durationTicks": 96,
            "midi": 29,
            "name": "F1",
            "ticks": 1824,
            "time": 3.5625,
            "velocity": 0.3937007874015748
          },
          {
            "duration": 0.1875,
            "durationTicks": 96,
            "midi": 29,
            "name": "F1",
            "ticks": 1920,
            "time": 3.75,
            "velocity": 0.3937007874015748
          },
          {
            "duration": 0.1875,
            "durationTicks": 96,
            "midi": 29,
            "name": "F1",
            "ticks": 2016,
            "time": 3.9375,
            "velocity": 0.3937007874015748
          },
          {
            "duration": 0.1875,
            "durationTicks": 96,
            "midi": 41,
            "name": "F2",
            "ticks": 2016,
            "time": 3.9375,
            "velocity": 0.3937007874015748
          },
          {
            "duration": 0.1875,
            "durationTicks": 96,
            "midi": 41,
            "name": "F2",
            "ticks": 2112,
            "time": 4.125,
            "velocity": 0.3937007874015748
          },
          {
            "duration": 0.1875,
            "durationTicks": 96,
            "midi": 29,
            "name": "F1",
            "ticks": 2112,
            "time": 4.125,
            "velocity": 0.3937007874015748
          },
          {
            "duration": 0.1875,
            "durationTicks": 96,
            "midi": 28,
            "name": "E1",
            "ticks": 2208,
            "time": 4.3125,
            "velocity": 0.3937007874015748
          },
          {
            "duration": 0.1875,
            "durationTicks": 96,
            "midi": 38,
            "name": "D2",
            "ticks": 2304,
            "time": 4.5,
            "velocity": 0.3937007874015748
          },
          {
            "duration": 0.1875,
            "durationTicks": 96,
            "midi": 26,
            "name": "D1",
            "ticks": 2304,
            "time": 4.5,
            "velocity": 0.3937007874015748
          },
          {
            "duration": 0.1875,
            "durationTicks": 96,
            "midi": 26,
            "name": "D1",
            "ticks": 2400,
            "time": 4.6875,
            "velocity": 0.3937007874015748
          },
          {
            "duration": 0.1875,
            "durationTicks": 96,
            "midi": 26,
            "name": "D1",
            "ticks": 2496,
            "time": 4.875,
            "velocity": 0.3937007874015748
          },
          {
            "duration": 0.1875,
            "durationTicks": 96,
            "midi": 38,
            "name": "D2",
            "ticks": 2592,
            "time": 5.0625,
            "velocity": 0.3937007874015748
          },
          {
            "duration": 0.1875,
            "durationTicks": 96,
            "midi": 26,
            "name": "D1",
            "ticks": 2592,
            "time": 5.0625,
            "velocity": 0.3937007874015748
          },
          {
            "duration": 0.1875,
            "durationTicks": 96,
            "midi": 26,
            "name": "D1",
            "ticks": 2688,
            "time": 5.25,
            "velocity": 0.3937007874015748
          },
          {
            "duration": 0.1875,
            "durationTicks": 96,
            "midi": 26,
            "name": "D1",
            "ticks": 2784,
            "time": 5.4375,
            "velocity": 0.3937007874015748
          },
          {
            "duration": 0.1875,
            "durationTicks": 96,
            "midi": 38,
            "name": "D2",
            "ticks": 2784,
            "time": 5.4375,
            "velocity": 0.3937007874015748
          },
          {
            "duration": 0.1875,
            "durationTicks": 96,
            "midi": 28,
            "name": "E1",
            "ticks": 2880,
            "time": 5.625,
            "velocity": 0.3937007874015748
          },
          {
            "duration": 0.1875,
            "durationTicks": 96,
            "midi": 40,
            "name": "E2",
            "ticks": 2880,
            "time": 5.625,
            "velocity": 0.3937007874015748
          },
          {
            "duration": 0.1875,
            "durationTicks": 96,
            "midi": 41,
            "name": "F2",
            "ticks": 2976,
            "time": 5.8125,
            "velocity": 0.3937007874015748
          },
          {
            "duration": 0.1875,
            "durationTicks": 96,
            "midi": 29,
            "name": "F1",
            "ticks": 2976,
            "time": 5.8125,
            "velocity": 0.3937007874015748
          },
          {
            "duration": 0.1875,
            "durationTicks": 96,
            "midi": 30,
            "name": "F#1",
            "ticks": 3072,
            "time": 6,
            "velocity": 0.3937007874015748
          },
          {
            "duration": 0.1875,
            "durationTicks": 96,
            "midi": 42,
            "name": "F#2",
            "ticks": 3072,
            "time": 6,
            "velocity": 0.3937007874015748
          },
          {
            "duration": 0.1875,
            "durationTicks": 96,
            "midi": 30,
            "name": "F#1",
            "ticks": 3168,
            "time": 6.1875,
            "velocity": 0.3937007874015748
          },
          {
            "duration": 0.1875,
            "durationTicks": 96,
            "midi": 30,
            "name": "F#1",
            "ticks": 3264,
            "time": 6.375,
            "velocity": 0.3937007874015748
          },
          {
            "duration": 0.1875,
            "durationTicks": 96,
            "midi": 30,
            "name": "F#1",
            "ticks": 3360,
            "time": 6.5625,
            "velocity": 0.3937007874015748
          },
          {
            "duration": 0.1875,
            "durationTicks": 96,
            "midi": 42,
            "name": "F#2",
            "ticks": 3360,
            "time": 6.5625,
            "velocity": 0.3937007874015748
          },
          {
            "duration": 0.1875,
            "durationTicks": 96,
            "midi": 30,
            "name": "F#1",
            "ticks": 3456,
            "time": 6.75,
            "velocity": 0.3937007874015748
          },
          {
            "duration": 0.1875,
            "durationTicks": 96,
            "midi": 42,
            "name": "F#2",
            "ticks": 3552,
            "time": 6.9375,
            "velocity": 0.3937007874015748
          },
          {
            "duration": 0.1875,
            "durationTicks": 96,
            "midi": 30,
            "name": "F#1",
            "ticks": 3552,
            "time": 6.9375,
            "velocity": 0.3937007874015748
          },
          {
            "duration": 0.1875,
            "durationTicks": 96,
            "midi": 33,
            "name": "A1",
            "ticks": 3648,
            "time": 7.125,
            "velocity": 0.3937007874015748
          },
          {
            "duration": 0.1875,
            "durationTicks": 96,
            "midi": 45,
            "name": "A2",
            "ticks": 3648,
            "time": 7.125,
            "velocity": 0.3937007874015748
          },
          {
            "duration": 0.1875,
            "durationTicks": 96,
            "midi": 32,
            "name": "G#1",
            "ticks": 3744,
            "time": 7.3125,
            "velocity": 0.3937007874015748
          },
          {
            "duration": 0.1875,
            "durationTicks": 96,
            "midi": 42,
            "name": "F#2",
            "ticks": 3840,
            "time": 7.5,
            "velocity": 0.3937007874015748
          },
          {
            "duration": 0.1875,
            "durationTicks": 96,
            "midi": 30,
            "name": "F#1",
            "ticks": 3840,
            "time": 7.5,
            "velocity": 0.3937007874015748
          },
          {
            "duration": 0.1875,
            "durationTicks": 96,
            "midi": 30,
            "name": "F#1",
            "ticks": 3936,
            "time": 7.6875,
            "velocity": 0.3937007874015748
          },
          {
            "duration": 0.1875,
            "durationTicks": 96,
            "midi": 30,
            "name": "F#1",
            "ticks": 4032,
            "time": 7.875,
            "velocity": 0.3937007874015748
          },
          {
            "duration": 0.1875,
            "durationTicks": 96,
            "midi": 42,
            "name": "F#2",
            "ticks": 4128,
            "time": 8.0625,
            "velocity": 0.3937007874015748
          },
          {
            "duration": 0.1875,
            "durationTicks": 96,
            "midi": 30,
            "name": "F#1",
            "ticks": 4128,
            "time": 8.0625,
            "velocity": 0.3937007874015748
          },
          {
            "duration": 0.1875,
            "durationTicks": 96,
            "midi": 30,
            "name": "F#1",
            "ticks": 4224,
            "time": 8.25,
            "velocity": 0.3937007874015748
          },
          {
            "duration": 0.1875,
            "durationTicks": 96,
            "midi": 45,
            "name": "A2",
            "ticks": 4320,
            "time": 8.4375,
            "velocity": 0.3937007874015748
          },
          {
            "duration": 0.1875,
            "durationTicks": 96,
            "midi": 33,
            "name": "A1",
            "ticks": 4320,
            "time": 8.4375,
            "velocity": 0.3937007874015748
          },
          {
            "duration": 0.1875,
            "durationTicks": 96,
            "midi": 44,
            "name": "G#2",
            "ticks": 4416,
            "time": 8.625,
            "velocity": 0.3937007874015748
          },
          {
            "duration": 0.1875,
            "durationTicks": 96,
            "midi": 32,
            "name": "G#1",
            "ticks": 4416,
            "time": 8.625,
            "velocity": 0.3937007874015748
          },
          {
            "duration": 0.1875,
            "durationTicks": 96,
            "midi": 42,
            "name": "F#2",
            "ticks": 4512,
            "time": 8.8125,
            "velocity": 0.3937007874015748
          },
          {
            "duration": 0.1875,
            "durationTicks": 96,
            "midi": 30,
            "name": "F#1",
            "ticks": 4512,
            "time": 8.8125,
            "velocity": 0.3937007874015748
          },
          {
            "duration": 0.1875,
            "durationTicks": 96,
            "midi": 41,
            "name": "F2",
            "ticks": 4608,
            "time": 9,
            "velocity": 0.3937007874015748
          },
          {
            "duration": 0.1875,
            "durationTicks": 96,
            "midi": 29,
            "name": "F1",
            "ticks": 4608,
            "time": 9,
            "velocity": 0.3937007874015748
          },
          {
            "duration": 0.1875,
            "durationTicks": 96,
            "midi": 29,
            "name": "F1",
            "ticks": 4704,
            "time": 9.1875,
            "velocity": 0.3937007874015748
          },
          {
            "duration": 0.1875,
            "durationTicks": 96,
            "midi": 29,
            "name": "F1",
            "ticks": 4800,
            "time": 9.375,
            "velocity": 0.3937007874015748
          },
          {
            "duration": 0.1875,
            "durationTicks": 96,
            "midi": 41,
            "name": "F2",
            "ticks": 4896,
            "time": 9.5625,
            "velocity": 0.3937007874015748
          },
          {
            "duration": 0.1875,
            "durationTicks": 96,
            "midi": 29,
            "name": "F1",
            "ticks": 4896,
            "time": 9.5625,
            "velocity": 0.3937007874015748
          },
          {
            "duration": 0.1875,
            "durationTicks": 96,
            "midi": 29,
            "name": "F1",
            "ticks": 4992,
            "time": 9.75,
            "velocity": 0.3937007874015748
          },
          {
            "duration": 0.1875,
            "durationTicks": 96,
            "midi": 41,
            "name": "F2",
            "ticks": 5088,
            "time": 9.9375,
            "velocity": 0.3937007874015748
          },
          {
            "duration": 0.1875,
            "durationTicks": 96,
            "midi": 29,
            "name": "F1",
            "ticks": 5088,
            "time": 9.9375,
            "velocity": 0.3937007874015748
          },
          {
            "duration": 0.1875,
            "durationTicks": 96,
            "midi": 41,
            "name": "F2",
            "ticks": 5184,
            "time": 10.125,
            "velocity": 0.3937007874015748
          },
          {
            "duration": 0.1875,
            "durationTicks": 96,
            "midi": 29,
            "name": "F1",
            "ticks": 5184,
            "time": 10.125,
            "velocity": 0.3937007874015748
          },
          {
            "duration": 0.1875,
            "durationTicks": 96,
            "midi": 28,
            "name": "E1",
            "ticks": 5280,
            "time": 10.3125,
            "velocity": 0.3937007874015748
          },
          {
            "duration": 0.1875,
            "durationTicks": 96,
            "midi": 26,
            "name": "D1",
            "ticks": 5376,
            "time": 10.5,
            "velocity": 0.3937007874015748
          },
          {
            "duration": 0.1875,
            "durationTicks": 96,
            "midi": 38,
            "name": "D2",
            "ticks": 5376,
            "time": 10.5,
            "velocity": 0.3937007874015748
          },
          {
            "duration": 0.1875,
            "durationTicks": 96,
            "midi": 26,
            "name": "D1",
            "ticks": 5472,
            "time": 10.6875,
            "velocity": 0.3937007874015748
          },
          {
            "duration": 0.1875,
            "durationTicks": 96,
            "midi": 26,
            "name": "D1",
            "ticks": 5568,
            "time": 10.875,
            "velocity": 0.3937007874015748
          },
          {
            "duration": 0.1875,
            "durationTicks": 96,
            "midi": 38,
            "name": "D2",
            "ticks": 5664,
            "time": 11.0625,
            "velocity": 0.3937007874015748
          },
          {
            "duration": 0.1875,
            "durationTicks": 96,
            "midi": 26,
            "name": "D1",
            "ticks": 5664,
            "time": 11.0625,
            "velocity": 0.3937007874015748
          },
          {
            "duration": 0.1875,
            "durationTicks": 96,
            "midi": 26,
            "name": "D1",
            "ticks": 5760,
            "time": 11.25,
            "velocity": 0.3937007874015748
          },
          {
            "duration": 0.1875,
            "durationTicks": 96,
            "midi": 38,
            "name": "D2",
            "ticks": 5856,
            "time": 11.4375,
            "velocity": 0.3937007874015748
          },
          {
            "duration": 0.1875,
            "durationTicks": 96,
            "midi": 26,
            "name": "D1",
            "ticks": 5856,
            "time": 11.4375,
            "velocity": 0.3937007874015748
          },
          {
            "duration": 0.1875,
            "durationTicks": 96,
            "midi": 40,
            "name": "E2",
            "ticks": 5952,
            "time": 11.625,
            "velocity": 0.3937007874015748
          },
          {
            "duration": 0.1875,
            "durationTicks": 96,
            "midi": 52,
            "name": "E3",
            "ticks": 5952,
            "time": 11.625,
            "velocity": 0.3937007874015748
          },
          {
            "duration": 0.1875,
            "durationTicks": 96,
            "midi": 28,
            "name": "E1",
            "ticks": 5952,
            "time": 11.625,
            "velocity": 0.3937007874015748
          },
          {
            "duration": 0.1875,
            "durationTicks": 96,
            "midi": 64,
            "name": "E4",
            "ticks": 5952,
            "time": 11.625,
            "velocity": 0.3937007874015748
          },
          {
            "duration": 0.1875,
            "durationTicks": 96,
            "midi": 29,
            "name": "F1",
            "ticks": 6048,
            "time": 11.8125,
            "velocity": 0.3937007874015748
          },
          {
            "duration": 0.1875,
            "durationTicks": 96,
            "midi": 57,
            "name": "A3",
            "ticks": 6048,
            "time": 11.8125,
            "velocity": 0.3937007874015748
          },
          {
            "duration": 0.1875,
            "durationTicks": 96,
            "midi": 65,
            "name": "F4",
            "ticks": 6048,
            "time": 11.8125,
            "velocity": 0.3937007874015748
          },
          {
            "duration": 0.1875,
            "durationTicks": 96,
            "midi": 41,
            "name": "F2",
            "ticks": 6048,
            "time": 11.8125,
            "velocity": 0.3937007874015748
          },
          {
            "duration": 0.1875,
            "durationTicks": 96,
            "midi": 30,
            "name": "F#1",
            "ticks": 6144,
            "time": 12,
            "velocity": 0.3937007874015748
          },
          {
            "duration": 0.1875,
            "durationTicks": 96,
            "midi": 66,
            "name": "F#4",
            "ticks": 6144,
            "time": 12,
            "velocity": 0.3937007874015748
          },
          {
            "duration": 0.1875,
            "durationTicks": 96,
            "midi": 42,
            "name": "F#2",
            "ticks": 6144,
            "time": 12,
            "velocity": 0.3937007874015748
          },
          {
            "duration": 0.1875,
            "durationTicks": 96,
            "midi": 54,
            "name": "F#3",
            "ticks": 6144,
            "time": 12,
            "velocity": 0.3937007874015748
          },
          {
            "duration": 0.1875,
            "durationTicks": 96,
            "midi": 66,
            "name": "F#4",
            "ticks": 6240,
            "time": 12.1875,
            "velocity": 0.3937007874015748
          },
          {
            "duration": 0.1875,
            "durationTicks": 96,
            "midi": 30,
            "name": "F#1",
            "ticks": 6240,
            "time": 12.1875,
            "velocity": 0.3937007874015748
          },
          {
            "duration": 0.1875,
            "durationTicks": 96,
            "midi": 54,
            "name": "F#3",
            "ticks": 6240,
            "time": 12.1875,
            "velocity": 0.3937007874015748
          },
          {
            "duration": 0.1875,
            "durationTicks": 96,
            "midi": 69,
            "name": "A4",
            "ticks": 6336,
            "time": 12.375,
            "velocity": 0.3937007874015748
          },
          {
            "duration": 0.1875,
            "durationTicks": 96,
            "midi": 30,
            "name": "F#1",
            "ticks": 6336,
            "time": 12.375,
            "velocity": 0.3937007874015748
          },
          {
            "duration": 0.1875,
            "durationTicks": 96,
            "midi": 57,
            "name": "A3",
            "ticks": 6336,
            "time": 12.375,
            "velocity": 0.3937007874015748
          },
          {
            "duration": 0.1875,
            "durationTicks": 96,
            "midi": 42,
            "name": "F#2",
            "ticks": 6432,
            "time": 12.5625,
            "velocity": 0.3937007874015748
          },
          {
            "duration": 0.1875,
            "durationTicks": 96,
            "midi": 57,
            "name": "A3",
            "ticks": 6432,
            "time": 12.5625,
            "velocity": 0.3937007874015748
          },
          {
            "duration": 0.1875,
            "durationTicks": 96,
            "midi": 69,
            "name": "A4",
            "ticks": 6432,
            "time": 12.5625,
            "velocity": 0.3937007874015748
          },
          {
            "duration": 0.1875,
            "durationTicks": 96,
            "midi": 30,
            "name": "F#1",
            "ticks": 6432,
            "time": 12.5625,
            "velocity": 0.3937007874015748
          },
          {
            "duration": 0.1875,
            "durationTicks": 96,
            "midi": 54,
            "name": "F#3",
            "ticks": 6528,
            "time": 12.75,
            "velocity": 0.3937007874015748
          },
          {
            "duration": 0.1875,
            "durationTicks": 96,
            "midi": 66,
            "name": "F#4",
            "ticks": 6528,
            "time": 12.75,
            "velocity": 0.3937007874015748
          },
          {
            "duration": 0.1875,
            "durationTicks": 96,
            "midi": 30,
            "name": "F#1",
            "ticks": 6528,
            "time": 12.75,
            "velocity": 0.3937007874015748
          },
          {
            "duration": 0.1875,
            "durationTicks": 96,
            "midi": 66,
            "name": "F#4",
            "ticks": 6624,
            "time": 12.9375,
            "velocity": 0.3937007874015748
          },
          {
            "duration": 0.1875,
            "durationTicks": 96,
            "midi": 30,
            "name": "F#1",
            "ticks": 6624,
            "time": 12.9375,
            "velocity": 0.3937007874015748
          },
          {
            "duration": 0.1875,
            "durationTicks": 96,
            "midi": 42,
            "name": "F#2",
            "ticks": 6624,
            "time": 12.9375,
            "velocity": 0.3937007874015748
          },
          {
            "duration": 0.1875,
            "durationTicks": 96,
            "midi": 54,
            "name": "F#3",
            "ticks": 6624,
            "time": 12.9375,
            "velocity": 0.3937007874015748
          },
          {
            "duration": 0.1875,
            "durationTicks": 96,
            "midi": 45,
            "name": "A2",
            "ticks": 6720,
            "time": 13.125,
            "velocity": 0.3937007874015748
          },
          {
            "duration": 0.1875,
            "durationTicks": 96,
            "midi": 61,
            "name": "C#4",
            "ticks": 6720,
            "time": 13.125,
            "velocity": 0.3937007874015748
          },
          {
            "duration": 0.1875,
            "durationTicks": 96,
            "midi": 33,
            "name": "A1",
            "ticks": 6720,
            "time": 13.125,
            "velocity": 0.3937007874015748
          },
          {
            "duration": 0.1875,
            "durationTicks": 96,
            "midi": 49,
            "name": "C#3",
            "ticks": 6720,
            "time": 13.125,
            "velocity": 0.3937007874015748
          },
          {
            "duration": 0.1875,
            "durationTicks": 96,
            "midi": 49,
            "name": "C#3",
            "ticks": 6816,
            "time": 13.3125,
            "velocity": 0.3937007874015748
          },
          {
            "duration": 0.1875,
            "durationTicks": 96,
            "midi": 61,
            "name": "C#4",
            "ticks": 6816,
            "time": 13.3125,
            "velocity": 0.3937007874015748
          },
          {
            "duration": 0.1875,
            "durationTicks": 96,
            "midi": 32,
            "name": "G#1",
            "ticks": 6816,
            "time": 13.3125,
            "velocity": 0.3937007874015748
          },
          {
            "duration": 0.1875,
            "durationTicks": 96,
            "midi": 54,
            "name": "F#3",
            "ticks": 6912,
            "time": 13.5,
            "velocity": 0.3937007874015748
          },
          {
            "duration": 0.1875,
            "durationTicks": 96,
            "midi": 42,
            "name": "F#2",
            "ticks": 6912,
            "time": 13.5,
            "velocity": 0.3937007874015748
          },
          {
            "duration": 0.1875,
            "durationTicks": 96,
            "midi": 66,
            "name": "F#4",
            "ticks": 6912,
            "time": 13.5,
            "velocity": 0.3937007874015748
          },
          {
            "duration": 0.1875,
            "durationTicks": 96,
            "midi": 30,
            "name": "F#1",
            "ticks": 6912,
            "time": 13.5,
            "velocity": 0.3937007874015748
          },
          {
            "duration": 0.1875,
            "durationTicks": 96,
            "midi": 66,
            "name": "F#4",
            "ticks": 7008,
            "time": 13.6875,
            "velocity": 0.3937007874015748
          },
          {
            "duration": 0.1875,
            "durationTicks": 96,
            "midi": 54,
            "name": "F#3",
            "ticks": 7008,
            "time": 13.6875,
            "velocity": 0.3937007874015748
          },
          {
            "duration": 0.1875,
            "durationTicks": 96,
            "midi": 30,
            "name": "F#1",
            "ticks": 7008,
            "time": 13.6875,
            "velocity": 0.3937007874015748
          },
          {
            "duration": 0.1875,
            "durationTicks": 96,
            "midi": 66,
            "name": "F#4",
            "ticks": 7104,
            "time": 13.875,
            "velocity": 0.3937007874015748
          },
          {
            "duration": 0.1875,
            "durationTicks": 96,
            "midi": 30,
            "name": "F#1",
            "ticks": 7104,
            "time": 13.875,
            "velocity": 0.3937007874015748
          },
          {
            "duration": 0.1875,
            "durationTicks": 96,
            "midi": 54,
            "name": "F#3",
            "ticks": 7104,
            "time": 13.875,
            "velocity": 0.3937007874015748
          },
          {
            "duration": 0.1875,
            "durationTicks": 96,
            "midi": 54,
            "name": "F#3",
            "ticks": 7200,
            "time": 14.0625,
            "velocity": 0.3937007874015748
          },
          {
            "duration": 0.1875,
            "durationTicks": 96,
            "midi": 30,
            "name": "F#1",
            "ticks": 7200,
            "time": 14.0625,
            "velocity": 0.3937007874015748
          },
          {
            "duration": 0.1875,
            "durationTicks": 96,
            "midi": 42,
            "name": "F#2",
            "ticks": 7200,
            "time": 14.0625,
            "velocity": 0.3937007874015748
          },
          {
            "duration": 0.1875,
            "durationTicks": 96,
            "midi": 42,
            "name": "F#2",
            "ticks": 7296,
            "time": 14.25,
            "velocity": 0.3937007874015748
          },
          {
            "duration": 0.1875,
            "durationTicks": 96,
            "midi": 54,
            "name": "F#3",
            "ticks": 7296,
            "time": 14.25,
            "velocity": 0.3937007874015748
          },
          {
            "duration": 0.1875,
            "durationTicks": 96,
            "midi": 30,
            "name": "F#1",
            "ticks": 7296,
            "time": 14.25,
            "velocity": 0.3937007874015748
          },
          {
            "duration": 0.1875,
            "durationTicks": 96,
            "midi": 42,
            "name": "F#2",
            "ticks": 7392,
            "time": 14.4375,
            "velocity": 0.3937007874015748
          },
          {
            "duration": 0.1875,
            "durationTicks": 96,
            "midi": 45,
            "name": "A2",
            "ticks": 7392,
            "time": 14.4375,
            "velocity": 0.3937007874015748
          },
          {
            "duration": 0.1875,
            "durationTicks": 96,
            "midi": 54,
            "name": "F#3",
            "ticks": 7392,
            "time": 14.4375,
            "velocity": 0.3937007874015748
          },
          {
            "duration": 0.1875,
            "durationTicks": 96,
            "midi": 33,
            "name": "A1",
            "ticks": 7392,
            "time": 14.4375,
            "velocity": 0.3937007874015748
          },
          {
            "duration": 0.1875,
            "durationTicks": 96,
            "midi": 44,
            "name": "G#2",
            "ticks": 7488,
            "time": 14.625,
            "velocity": 0.3937007874015748
          },
          {
            "duration": 0.1875,
            "durationTicks": 96,
            "midi": 32,
            "name": "G#1",
            "ticks": 7488,
            "time": 14.625,
            "velocity": 0.3937007874015748
          },
          {
            "duration": 0.1875,
            "durationTicks": 96,
            "midi": 57,
            "name": "A3",
            "ticks": 7488,
            "time": 14.625,
            "velocity": 0.3937007874015748
          },
          {
            "duration": 0.1875,
            "durationTicks": 96,
            "midi": 45,
            "name": "A2",
            "ticks": 7488,
            "time": 14.625,
            "velocity": 0.3937007874015748
          },
          {
            "duration": 0.1875,
            "durationTicks": 96,
            "midi": 58,
            "name": "A#3",
            "ticks": 7584,
            "time": 14.8125,
            "velocity": 0.3937007874015748
          },
          {
            "duration": 0.1875,
            "durationTicks": 96,
            "midi": 46,
            "name": "A#2",
            "ticks": 7584,
            "time": 14.8125,
            "velocity": 0.3937007874015748
          },
          {
            "duration": 0.1875,
            "durationTicks": 96,
            "midi": 42,
            "name": "F#2",
            "ticks": 7584,
            "time": 14.8125,
            "velocity": 0.3937007874015748
          },
          {
            "duration": 0.1875,
            "durationTicks": 96,
            "midi": 30,
            "name": "F#1",
            "ticks": 7584,
            "time": 14.8125,
            "velocity": 0.3937007874015748
          },
          {
            "duration": 0.1875,
            "durationTicks": 96,
            "midi": 60,
            "name": "C4",
            "ticks": 7680,
            "time": 15,
            "velocity": 0.3937007874015748
          },
          {
            "duration": 0.1875,
            "durationTicks": 96,
            "midi": 48,
            "name": "C3",
            "ticks": 7680,
            "time": 15,
            "velocity": 0.3937007874015748
          },
          {
            "duration": 0.1875,
            "durationTicks": 96,
            "midi": 41,
            "name": "F2",
            "ticks": 7680,
            "time": 15,
            "velocity": 0.3937007874015748
          },
          {
            "duration": 0.1875,
            "durationTicks": 96,
            "midi": 29,
            "name": "F1",
            "ticks": 7680,
            "time": 15,
            "velocity": 0.3937007874015748
          },
          {
            "duration": 0.1875,
            "durationTicks": 96,
            "midi": 60,
            "name": "C4",
            "ticks": 7776,
            "time": 15.1875,
            "velocity": 0.3937007874015748
          },
          {
            "duration": 0.1875,
            "durationTicks": 96,
            "midi": 48,
            "name": "C3",
            "ticks": 7776,
            "time": 15.1875,
            "velocity": 0.3937007874015748
          },
          {
            "duration": 0.1875,
            "durationTicks": 96,
            "midi": 29,
            "name": "F1",
            "ticks": 7776,
            "time": 15.1875,
            "velocity": 0.3937007874015748
          },
          {
            "duration": 0.1875,
            "durationTicks": 96,
            "midi": 29,
            "name": "F1",
            "ticks": 7872,
            "time": 15.375,
            "velocity": 0.3937007874015748
          },
          {
            "duration": 0.1875,
            "durationTicks": 96,
            "midi": 60,
            "name": "C4",
            "ticks": 7872,
            "time": 15.375,
            "velocity": 0.3937007874015748
          },
          {
            "duration": 0.1875,
            "durationTicks": 96,
            "midi": 48,
            "name": "C3",
            "ticks": 7872,
            "time": 15.375,
            "velocity": 0.3937007874015748
          },
          {
            "duration": 0.1875,
            "durationTicks": 96,
            "midi": 48,
            "name": "C3",
            "ticks": 7968,
            "time": 15.5625,
            "velocity": 0.3937007874015748
          },
          {
            "duration": 0.1875,
            "durationTicks": 96,
            "midi": 29,
            "name": "F1",
            "ticks": 7968,
            "time": 15.5625,
            "velocity": 0.3937007874015748
          },
          {
            "duration": 0.1875,
            "durationTicks": 96,
            "midi": 60,
            "name": "C4",
            "ticks": 7968,
            "time": 15.5625,
            "velocity": 0.3937007874015748
          },
          {
            "duration": 0.1875,
            "durationTicks": 96,
            "midi": 41,
            "name": "F2",
            "ticks": 7968,
            "time": 15.5625,
            "velocity": 0.3937007874015748
          },
          {
            "duration": 0.1875,
            "durationTicks": 96,
            "midi": 60,
            "name": "C4",
            "ticks": 8064,
            "time": 15.75,
            "velocity": 0.3937007874015748
          },
          {
            "duration": 0.1875,
            "durationTicks": 96,
            "midi": 48,
            "name": "C3",
            "ticks": 8064,
            "time": 15.75,
            "velocity": 0.3937007874015748
          },
          {
            "duration": 0.1875,
            "durationTicks": 96,
            "midi": 29,
            "name": "F1",
            "ticks": 8064,
            "time": 15.75,
            "velocity": 0.3937007874015748
          },
          {
            "duration": 0.1875,
            "durationTicks": 96,
            "midi": 41,
            "name": "F2",
            "ticks": 8160,
            "time": 15.9375,
            "velocity": 0.3937007874015748
          },
          {
            "duration": 0.1875,
            "durationTicks": 96,
            "midi": 48,
            "name": "C3",
            "ticks": 8160,
            "time": 15.9375,
            "velocity": 0.3937007874015748
          },
          {
            "duration": 0.1875,
            "durationTicks": 96,
            "midi": 60,
            "name": "C4",
            "ticks": 8160,
            "time": 15.9375,
            "velocity": 0.3937007874015748
          },
          {
            "duration": 0.1875,
            "durationTicks": 96,
            "midi": 29,
            "name": "F1",
            "ticks": 8160,
            "time": 15.9375,
            "velocity": 0.3937007874015748
          },
          {
            "duration": 0.1875,
            "durationTicks": 96,
            "midi": 29,
            "name": "F1",
            "ticks": 8256,
            "time": 16.125,
            "velocity": 0.3937007874015748
          },
          {
            "duration": 0.1875,
            "durationTicks": 96,
            "midi": 47,
            "name": "B2",
            "ticks": 8256,
            "time": 16.125,
            "velocity": 0.3937007874015748
          },
          {
            "duration": 0.1875,
            "durationTicks": 96,
            "midi": 41,
            "name": "F2",
            "ticks": 8256,
            "time": 16.125,
            "velocity": 0.3937007874015748
          },
          {
            "duration": 0.1875,
            "durationTicks": 96,
            "midi": 59,
            "name": "B3",
            "ticks": 8256,
            "time": 16.125,
            "velocity": 0.3937007874015748
          },
          {
            "duration": 0.1875,
            "durationTicks": 96,
            "midi": 28,
            "name": "E1",
            "ticks": 8352,
            "time": 16.3125,
            "velocity": 0.3937007874015748
          },
          {
            "duration": 0.1875,
            "durationTicks": 96,
            "midi": 58,
            "name": "A#3",
            "ticks": 8352,
            "time": 16.3125,
            "velocity": 0.3937007874015748
          },
          {
            "duration": 0.1875,
            "durationTicks": 96,
            "midi": 46,
            "name": "A#2",
            "ticks": 8352,
            "time": 16.3125,
            "velocity": 0.3937007874015748
          },
          {
            "duration": 0.1875,
            "durationTicks": 96,
            "midi": 38,
            "name": "D2",
            "ticks": 8448,
            "time": 16.5,
            "velocity": 0.3937007874015748
          },
          {
            "duration": 0.1875,
            "durationTicks": 96,
            "midi": 57,
            "name": "A3",
            "ticks": 8448,
            "time": 16.5,
            "velocity": 0.3937007874015748
          },
          {
            "duration": 0.1875,
            "durationTicks": 96,
            "midi": 45,
            "name": "A2",
            "ticks": 8448,
            "time": 16.5,
            "velocity": 0.3937007874015748
          },
          {
            "duration": 0.1875,
            "durationTicks": 96,
            "midi": 26,
            "name": "D1",
            "ticks": 8448,
            "time": 16.5,
            "velocity": 0.3937007874015748
          },
          {
            "duration": 0.1875,
            "durationTicks": 96,
            "midi": 45,
            "name": "A2",
            "ticks": 8544,
            "time": 16.6875,
            "velocity": 0.3937007874015748
          },
          {
            "duration": 0.1875,
            "durationTicks": 96,
            "midi": 57,
            "name": "A3",
            "ticks": 8544,
            "time": 16.6875,
            "velocity": 0.3937007874015748
          },
          {
            "duration": 0.1875,
            "durationTicks": 96,
            "midi": 26,
            "name": "D1",
            "ticks": 8544,
            "time": 16.6875,
            "velocity": 0.3937007874015748
          },
          {
            "duration": 0.1875,
            "durationTicks": 96,
            "midi": 26,
            "name": "D1",
            "ticks": 8640,
            "time": 16.875,
            "velocity": 0.3937007874015748
          },
          {
            "duration": 0.1875,
            "durationTicks": 96,
            "midi": 45,
            "name": "A2",
            "ticks": 8640,
            "time": 16.875,
            "velocity": 0.3937007874015748
          },
          {
            "duration": 0.1875,
            "durationTicks": 96,
            "midi": 57,
            "name": "A3",
            "ticks": 8640,
            "time": 16.875,
            "velocity": 0.3937007874015748
          },
          {
            "duration": 0.1875,
            "durationTicks": 96,
            "midi": 38,
            "name": "D2",
            "ticks": 8736,
            "time": 17.0625,
            "velocity": 0.3937007874015748
          },
          {
            "duration": 0.1875,
            "durationTicks": 96,
            "midi": 57,
            "name": "A3",
            "ticks": 8736,
            "time": 17.0625,
            "velocity": 0.3937007874015748
          },
          {
            "duration": 0.1875,
            "durationTicks": 96,
            "midi": 26,
            "name": "D1",
            "ticks": 8736,
            "time": 17.0625,
            "velocity": 0.3937007874015748
          },
          {
            "duration": 0.1875,
            "durationTicks": 96,
            "midi": 45,
            "name": "A2",
            "ticks": 8736,
            "time": 17.0625,
            "velocity": 0.3937007874015748
          },
          {
            "duration": 0.1875,
            "durationTicks": 96,
            "midi": 61,
            "name": "C#4",
            "ticks": 8832,
            "time": 17.25,
            "velocity": 0.3937007874015748
          },
          {
            "duration": 0.1875,
            "durationTicks": 96,
            "midi": 26,
            "name": "D1",
            "ticks": 8832,
            "time": 17.25,
            "velocity": 0.3937007874015748
          },
          {
            "duration": 0.1875,
            "durationTicks": 96,
            "midi": 49,
            "name": "C#3",
            "ticks": 8832,
            "time": 17.25,
            "velocity": 0.3937007874015748
          },
          {
            "duration": 0.1875,
            "durationTicks": 96,
            "midi": 26,
            "name": "D1",
            "ticks": 8928,
            "time": 17.4375,
            "velocity": 0.3937007874015748
          },
          {
            "duration": 0.1875,
            "durationTicks": 96,
            "midi": 49,
            "name": "C#3",
            "ticks": 8928,
            "time": 17.4375,
            "velocity": 0.3937007874015748
          },
          {
            "duration": 0.1875,
            "durationTicks": 96,
            "midi": 61,
            "name": "C#4",
            "ticks": 8928,
            "time": 17.4375,
            "velocity": 0.3937007874015748
          },
          {
            "duration": 0.1875,
            "durationTicks": 96,
            "midi": 38,
            "name": "D2",
            "ticks": 8928,
            "time": 17.4375,
            "velocity": 0.3937007874015748
          },
          {
            "duration": 0.1875,
            "durationTicks": 96,
            "midi": 64,
            "name": "E4",
            "ticks": 9024,
            "time": 17.625,
            "velocity": 0.3937007874015748
          },
          {
            "duration": 0.1875,
            "durationTicks": 96,
            "midi": 52,
            "name": "E3",
            "ticks": 9024,
            "time": 17.625,
            "velocity": 0.3937007874015748
          },
          {
            "duration": 0.1875,
            "durationTicks": 96,
            "midi": 40,
            "name": "E2",
            "ticks": 9024,
            "time": 17.625,
            "velocity": 0.3937007874015748
          },
          {
            "duration": 0.1875,
            "durationTicks": 96,
            "midi": 28,
            "name": "E1",
            "ticks": 9024,
            "time": 17.625,
            "velocity": 0.3937007874015748
          },
          {
            "duration": 0.1875,
            "durationTicks": 96,
            "midi": 65,
            "name": "F4",
            "ticks": 9120,
            "time": 17.8125,
            "velocity": 0.3937007874015748
          },
          {
            "duration": 0.1875,
            "durationTicks": 96,
            "midi": 53,
            "name": "F3",
            "ticks": 9120,
            "time": 17.8125,
            "velocity": 0.3937007874015748
          },
          {
            "duration": 0.1875,
            "durationTicks": 96,
            "midi": 29,
            "name": "F1",
            "ticks": 9120,
            "time": 17.8125,
            "velocity": 0.3937007874015748
          },
          {
            "duration": 0.1875,
            "durationTicks": 96,
            "midi": 41,
            "name": "F2",
            "ticks": 9120,
            "time": 17.8125,
            "velocity": 0.3937007874015748
          },
          {
            "duration": 0.1875,
            "durationTicks": 96,
            "midi": 66,
            "name": "F#4",
            "ticks": 9216,
            "time": 18,
            "velocity": 0.3937007874015748
          },
          {
            "duration": 0.1875,
            "durationTicks": 96,
            "midi": 42,
            "name": "F#2",
            "ticks": 9216,
            "time": 18,
            "velocity": 0.3937007874015748
          },
          {
            "duration": 0.1875,
            "durationTicks": 96,
            "midi": 54,
            "name": "F#3",
            "ticks": 9216,
            "time": 18,
            "velocity": 0.3937007874015748
          },
          {
            "duration": 0.1875,
            "durationTicks": 96,
            "midi": 54,
            "name": "F#3",
            "ticks": 9216,
            "time": 18,
            "velocity": 0.3937007874015748
          },
          {
            "duration": 0.1875,
            "durationTicks": 96,
            "midi": 30,
            "name": "F#1",
            "ticks": 9216,
            "time": 18,
            "velocity": 0.3937007874015748
          },
          {
            "duration": 0.1875,
            "durationTicks": 96,
            "midi": 30,
            "name": "F#1",
            "ticks": 9312,
            "time": 18.1875,
            "velocity": 0.3937007874015748
          },
          {
            "duration": 0.1875,
            "durationTicks": 96,
            "midi": 66,
            "name": "F#4",
            "ticks": 9312,
            "time": 18.1875,
            "velocity": 0.3937007874015748
          },
          {
            "duration": 0.1875,
            "durationTicks": 96,
            "midi": 54,
            "name": "F#3",
            "ticks": 9312,
            "time": 18.1875,
            "velocity": 0.3937007874015748
          },
          {
            "duration": 0.1875,
            "durationTicks": 96,
            "midi": 30,
            "name": "F#1",
            "ticks": 9408,
            "time": 18.375,
            "velocity": 0.3937007874015748
          },
          {
            "duration": 0.1875,
            "durationTicks": 96,
            "midi": 57,
            "name": "A3",
            "ticks": 9408,
            "time": 18.375,
            "velocity": 0.3937007874015748
          },
          {
            "duration": 0.1875,
            "durationTicks": 96,
            "midi": 69,
            "name": "A4",
            "ticks": 9408,
            "time": 18.375,
            "velocity": 0.3937007874015748
          },
          {
            "duration": 0.1875,
            "durationTicks": 96,
            "midi": 42,
            "name": "F#2",
            "ticks": 9504,
            "time": 18.5625,
            "velocity": 0.3937007874015748
          },
          {
            "duration": 0.1875,
            "durationTicks": 96,
            "midi": 57,
            "name": "A3",
            "ticks": 9504,
            "time": 18.5625,
            "velocity": 0.3937007874015748
          },
          {
            "duration": 0.1875,
            "durationTicks": 96,
            "midi": 30,
            "name": "F#1",
            "ticks": 9504,
            "time": 18.5625,
            "velocity": 0.3937007874015748
          },
          {
            "duration": 0.1875,
            "durationTicks": 96,
            "midi": 69,
            "name": "A4",
            "ticks": 9504,
            "time": 18.5625,
            "velocity": 0.3937007874015748
          },
          {
            "duration": 0.1875,
            "durationTicks": 96,
            "midi": 54,
            "name": "F#3",
            "ticks": 9600,
            "time": 18.75,
            "velocity": 0.3937007874015748
          },
          {
            "duration": 0.1875,
            "durationTicks": 96,
            "midi": 66,
            "name": "F#4",
            "ticks": 9600,
            "time": 18.75,
            "velocity": 0.3937007874015748
          },
          {
            "duration": 0.1875,
            "durationTicks": 96,
            "midi": 30,
            "name": "F#1",
            "ticks": 9600,
            "time": 18.75,
            "velocity": 0.3937007874015748
          },
          {
            "duration": 0.1875,
            "durationTicks": 96,
            "midi": 30,
            "name": "F#1",
            "ticks": 9696,
            "time": 18.9375,
            "velocity": 0.3937007874015748
          },
          {
            "duration": 0.1875,
            "durationTicks": 96,
            "midi": 42,
            "name": "F#2",
            "ticks": 9696,
            "time": 18.9375,
            "velocity": 0.3937007874015748
          },
          {
            "duration": 0.1875,
            "durationTicks": 96,
            "midi": 54,
            "name": "F#3",
            "ticks": 9696,
            "time": 18.9375,
            "velocity": 0.3937007874015748
          },
          {
            "duration": 0.1875,
            "durationTicks": 96,
            "midi": 66,
            "name": "F#4",
            "ticks": 9696,
            "time": 18.9375,
            "velocity": 0.3937007874015748
          },
          {
            "duration": 0.1875,
            "durationTicks": 96,
            "midi": 61,
            "name": "C#4",
            "ticks": 9792,
            "time": 19.125,
            "velocity": 0.3937007874015748
          },
          {
            "duration": 0.1875,
            "durationTicks": 96,
            "midi": 49,
            "name": "C#3",
            "ticks": 9792,
            "time": 19.125,
            "velocity": 0.3937007874015748
          },
          {
            "duration": 0.1875,
            "durationTicks": 96,
            "midi": 45,
            "name": "A2",
            "ticks": 9792,
            "time": 19.125,
            "velocity": 0.3937007874015748
          },
          {
            "duration": 0.1875,
            "durationTicks": 96,
            "midi": 33,
            "name": "A1",
            "ticks": 9792,
            "time": 19.125,
            "velocity": 0.3937007874015748
          },
          {
            "duration": 0.1875,
            "durationTicks": 96,
            "midi": 49,
            "name": "C#3",
            "ticks": 9888,
            "time": 19.3125,
            "velocity": 0.3937007874015748
          },
          {
            "duration": 0.1875,
            "durationTicks": 96,
            "midi": 61,
            "name": "C#4",
            "ticks": 9888,
            "time": 19.3125,
            "velocity": 0.3937007874015748
          },
          {
            "duration": 0.1875,
            "durationTicks": 96,
            "midi": 32,
            "name": "G#1",
            "ticks": 9888,
            "time": 19.3125,
            "velocity": 0.3937007874015748
          },
          {
            "duration": 0.1875,
            "durationTicks": 96,
            "midi": 54,
            "name": "F#3",
            "ticks": 9984,
            "time": 19.5,
            "velocity": 0.3937007874015748
          },
          {
            "duration": 0.1875,
            "durationTicks": 96,
            "midi": 66,
            "name": "F#4",
            "ticks": 9984,
            "time": 19.5,
            "velocity": 0.3937007874015748
          },
          {
            "duration": 0.1875,
            "durationTicks": 96,
            "midi": 42,
            "name": "F#2",
            "ticks": 9984,
            "time": 19.5,
            "velocity": 0.3937007874015748
          },
          {
            "duration": 0.1875,
            "durationTicks": 96,
            "midi": 30,
            "name": "F#1",
            "ticks": 9984,
            "time": 19.5,
            "velocity": 0.3937007874015748
          },
          {
            "duration": 0.1875,
            "durationTicks": 96,
            "midi": 54,
            "name": "F#3",
            "ticks": 10080,
            "time": 19.6875,
            "velocity": 0.3937007874015748
          },
          {
            "duration": 0.1875,
            "durationTicks": 96,
            "midi": 66,
            "name": "F#4",
            "ticks": 10080,
            "time": 19.6875,
            "velocity": 0.3937007874015748
          },
          {
            "duration": 0.1875,
            "durationTicks": 96,
            "midi": 30,
            "name": "F#1",
            "ticks": 10080,
            "time": 19.6875,
            "velocity": 0.3937007874015748
          },
          {
            "duration": 0.1875,
            "durationTicks": 96,
            "midi": 66,
            "name": "F#4",
            "ticks": 10176,
            "time": 19.875,
            "velocity": 0.3937007874015748
          },
          {
            "duration": 0.1875,
            "durationTicks": 96,
            "midi": 54,
            "name": "F#3",
            "ticks": 10176,
            "time": 19.875,
            "velocity": 0.3937007874015748
          },
          {
            "duration": 0.1875,
            "durationTicks": 96,
            "midi": 30,
            "name": "F#1",
            "ticks": 10176,
            "time": 19.875,
            "velocity": 0.3937007874015748
          },
          {
            "duration": 0.1875,
            "durationTicks": 96,
            "midi": 54,
            "name": "F#3",
            "ticks": 10272,
            "time": 20.0625,
            "velocity": 0.3937007874015748
          },
          {
            "duration": 0.1875,
            "durationTicks": 96,
            "midi": 30,
            "name": "F#1",
            "ticks": 10272,
            "time": 20.0625,
            "velocity": 0.3937007874015748
          },
          {
            "duration": 0.1875,
            "durationTicks": 96,
            "midi": 42,
            "name": "F#2",
            "ticks": 10272,
            "time": 20.0625,
            "velocity": 0.3937007874015748
          },
          {
            "duration": 0.1875,
            "durationTicks": 96,
            "midi": 54,
            "name": "F#3",
            "ticks": 10368,
            "time": 20.25,
            "velocity": 0.3937007874015748
          },
          {
            "duration": 0.1875,
            "durationTicks": 96,
            "midi": 42,
            "name": "F#2",
            "ticks": 10368,
            "time": 20.25,
            "velocity": 0.3937007874015748
          },
          {
            "duration": 0.1875,
            "durationTicks": 96,
            "midi": 30,
            "name": "F#1",
            "ticks": 10368,
            "time": 20.25,
            "velocity": 0.3937007874015748
          },
          {
            "duration": 0.1875,
            "durationTicks": 96,
            "midi": 56,
            "name": "G#3",
            "ticks": 10464,
            "time": 20.4375,
            "velocity": 0.3937007874015748
          },
          {
            "duration": 0.1875,
            "durationTicks": 96,
            "midi": 45,
            "name": "A2",
            "ticks": 10464,
            "time": 20.4375,
            "velocity": 0.3937007874015748
          },
          {
            "duration": 0.1875,
            "durationTicks": 96,
            "midi": 33,
            "name": "A1",
            "ticks": 10464,
            "time": 20.4375,
            "velocity": 0.3937007874015748
          },
          {
            "duration": 0.1875,
            "durationTicks": 96,
            "midi": 44,
            "name": "G#2",
            "ticks": 10464,
            "time": 20.4375,
            "velocity": 0.3937007874015748
          },
          {
            "duration": 0.1875,
            "durationTicks": 96,
            "midi": 45,
            "name": "A2",
            "ticks": 10560,
            "time": 20.625,
            "velocity": 0.3937007874015748
          },
          {
            "duration": 0.1875,
            "durationTicks": 96,
            "midi": 44,
            "name": "G#2",
            "ticks": 10560,
            "time": 20.625,
            "velocity": 0.3937007874015748
          },
          {
            "duration": 0.1875,
            "durationTicks": 96,
            "midi": 57,
            "name": "A3",
            "ticks": 10560,
            "time": 20.625,
            "velocity": 0.3937007874015748
          },
          {
            "duration": 0.1875,
            "durationTicks": 96,
            "midi": 32,
            "name": "G#1",
            "ticks": 10560,
            "time": 20.625,
            "velocity": 0.3937007874015748
          },
          {
            "duration": 0.1875,
            "durationTicks": 96,
            "midi": 42,
            "name": "F#2",
            "ticks": 10656,
            "time": 20.8125,
            "velocity": 0.3937007874015748
          },
          {
            "duration": 0.1875,
            "durationTicks": 96,
            "midi": 30,
            "name": "F#1",
            "ticks": 10656,
            "time": 20.8125,
            "velocity": 0.3937007874015748
          },
          {
            "duration": 0.1875,
            "durationTicks": 96,
            "midi": 37,
            "name": "C#2",
            "ticks": 10656,
            "time": 20.8125,
            "velocity": 0.3937007874015748
          },
          {
            "duration": 0.1875,
            "durationTicks": 96,
            "midi": 46,
            "name": "A#2",
            "ticks": 10656,
            "time": 20.8125,
            "velocity": 0.3937007874015748
          },
          {
            "duration": 0.1875,
            "durationTicks": 96,
            "midi": 58,
            "name": "A#3",
            "ticks": 10656,
            "time": 20.8125,
            "velocity": 0.3937007874015748
          },
          {
            "duration": 0.1875,
            "durationTicks": 96,
            "midi": 29,
            "name": "F1",
            "ticks": 10752,
            "time": 21,
            "velocity": 0.3937007874015748
          },
          {
            "duration": 0.1875,
            "durationTicks": 96,
            "midi": 41,
            "name": "F2",
            "ticks": 10752,
            "time": 21,
            "velocity": 0.3937007874015748
          },
          {
            "duration": 0.1875,
            "durationTicks": 96,
            "midi": 48,
            "name": "C3",
            "ticks": 10752,
            "time": 21,
            "velocity": 0.3937007874015748
          },
          {
            "duration": 0.1875,
            "durationTicks": 96,
            "midi": 60,
            "name": "C4",
            "ticks": 10752,
            "time": 21,
            "velocity": 0.3937007874015748
          },
          {
            "duration": 0.1875,
            "durationTicks": 96,
            "midi": 60,
            "name": "C4",
            "ticks": 10848,
            "time": 21.1875,
            "velocity": 0.3937007874015748
          },
          {
            "duration": 0.1875,
            "durationTicks": 96,
            "midi": 48,
            "name": "C3",
            "ticks": 10848,
            "time": 21.1875,
            "velocity": 0.3937007874015748
          },
          {
            "duration": 0.1875,
            "durationTicks": 96,
            "midi": 29,
            "name": "F1",
            "ticks": 10848,
            "time": 21.1875,
            "velocity": 0.3937007874015748
          },
          {
            "duration": 0.1875,
            "durationTicks": 96,
            "midi": 29,
            "name": "F1",
            "ticks": 10944,
            "time": 21.375,
            "velocity": 0.3937007874015748
          },
          {
            "duration": 0.1875,
            "durationTicks": 96,
            "midi": 48,
            "name": "C3",
            "ticks": 10944,
            "time": 21.375,
            "velocity": 0.3937007874015748
          },
          {
            "duration": 0.1875,
            "durationTicks": 96,
            "midi": 60,
            "name": "C4",
            "ticks": 10944,
            "time": 21.375,
            "velocity": 0.3937007874015748
          },
          {
            "duration": 0.1875,
            "durationTicks": 96,
            "midi": 29,
            "name": "F1",
            "ticks": 11040,
            "time": 21.5625,
            "velocity": 0.3937007874015748
          },
          {
            "duration": 0.1875,
            "durationTicks": 96,
            "midi": 60,
            "name": "C4",
            "ticks": 11040,
            "time": 21.5625,
            "velocity": 0.3937007874015748
          },
          {
            "duration": 0.1875,
            "durationTicks": 96,
            "midi": 48,
            "name": "C3",
            "ticks": 11040,
            "time": 21.5625,
            "velocity": 0.3937007874015748
          },
          {
            "duration": 0.1875,
            "durationTicks": 96,
            "midi": 41,
            "name": "F2",
            "ticks": 11040,
            "time": 21.5625,
            "velocity": 0.3937007874015748
          },
          {
            "duration": 0.1875,
            "durationTicks": 96,
            "midi": 29,
            "name": "F1",
            "ticks": 11136,
            "time": 21.75,
            "velocity": 0.3937007874015748
          },
          {
            "duration": 0.1875,
            "durationTicks": 96,
            "midi": 60,
            "name": "C4",
            "ticks": 11136,
            "time": 21.75,
            "velocity": 0.3937007874015748
          },
          {
            "duration": 0.1875,
            "durationTicks": 96,
            "midi": 48,
            "name": "C3",
            "ticks": 11136,
            "time": 21.75,
            "velocity": 0.3937007874015748
          },
          {
            "duration": 0.1875,
            "durationTicks": 96,
            "midi": 29,
            "name": "F1",
            "ticks": 11232,
            "time": 21.9375,
            "velocity": 0.3937007874015748
          },
          {
            "duration": 0.1875,
            "durationTicks": 96,
            "midi": 48,
            "name": "C3",
            "ticks": 11232,
            "time": 21.9375,
            "velocity": 0.3937007874015748
          },
          {
            "duration": 0.1875,
            "durationTicks": 96,
            "midi": 41,
            "name": "F2",
            "ticks": 11232,
            "time": 21.9375,
            "velocity": 0.3937007874015748
          },
          {
            "duration": 0.1875,
            "durationTicks": 96,
            "midi": 60,
            "name": "C4",
            "ticks": 11232,
            "time": 21.9375,
            "velocity": 0.3937007874015748
          },
          {
            "duration": 0.1875,
            "durationTicks": 96,
            "midi": 41,
            "name": "F2",
            "ticks": 11328,
            "time": 22.125,
            "velocity": 0.3937007874015748
          },
          {
            "duration": 0.1875,
            "durationTicks": 96,
            "midi": 60,
            "name": "C4",
            "ticks": 11328,
            "time": 22.125,
            "velocity": 0.3937007874015748
          },
          {
            "duration": 0.1875,
            "durationTicks": 96,
            "midi": 29,
            "name": "F1",
            "ticks": 11328,
            "time": 22.125,
            "velocity": 0.3937007874015748
          },
          {
            "duration": 0.1875,
            "durationTicks": 96,
            "midi": 48,
            "name": "C3",
            "ticks": 11328,
            "time": 22.125,
            "velocity": 0.3937007874015748
          },
          {
            "duration": 0.1875,
            "durationTicks": 96,
            "midi": 28,
            "name": "E1",
            "ticks": 11424,
            "time": 22.3125,
            "velocity": 0.3937007874015748
          },
          {
            "duration": 0.1875,
            "durationTicks": 96,
            "midi": 59,
            "name": "B3",
            "ticks": 11424,
            "time": 22.3125,
            "velocity": 0.3937007874015748
          },
          {
            "duration": 0.1875,
            "durationTicks": 96,
            "midi": 47,
            "name": "B2",
            "ticks": 11424,
            "time": 22.3125,
            "velocity": 0.3937007874015748
          },
          {
            "duration": 0.1875,
            "durationTicks": 96,
            "midi": 57,
            "name": "A3",
            "ticks": 11520,
            "time": 22.5,
            "velocity": 0.3937007874015748
          },
          {
            "duration": 0.1875,
            "durationTicks": 96,
            "midi": 45,
            "name": "A2",
            "ticks": 11520,
            "time": 22.5,
            "velocity": 0.3937007874015748
          },
          {
            "duration": 0.1875,
            "durationTicks": 96,
            "midi": 26,
            "name": "D1",
            "ticks": 11520,
            "time": 22.5,
            "velocity": 0.3937007874015748
          },
          {
            "duration": 0.1875,
            "durationTicks": 96,
            "midi": 38,
            "name": "D2",
            "ticks": 11520,
            "time": 22.5,
            "velocity": 0.3937007874015748
          },
          {
            "duration": 0.1875,
            "durationTicks": 96,
            "midi": 45,
            "name": "A2",
            "ticks": 11616,
            "time": 22.6875,
            "velocity": 0.3937007874015748
          },
          {
            "duration": 0.1875,
            "durationTicks": 96,
            "midi": 26,
            "name": "D1",
            "ticks": 11616,
            "time": 22.6875,
            "velocity": 0.3937007874015748
          },
          {
            "duration": 0.1875,
            "durationTicks": 96,
            "midi": 57,
            "name": "A3",
            "ticks": 11616,
            "time": 22.6875,
            "velocity": 0.3937007874015748
          },
          {
            "duration": 0.1875,
            "durationTicks": 96,
            "midi": 57,
            "name": "A3",
            "ticks": 11712,
            "time": 22.875,
            "velocity": 0.3937007874015748
          },
          {
            "duration": 0.1875,
            "durationTicks": 96,
            "midi": 45,
            "name": "A2",
            "ticks": 11712,
            "time": 22.875,
            "velocity": 0.3937007874015748
          },
          {
            "duration": 0.1875,
            "durationTicks": 96,
            "midi": 26,
            "name": "D1",
            "ticks": 11712,
            "time": 22.875,
            "velocity": 0.3937007874015748
          },
          {
            "duration": 0.1875,
            "durationTicks": 96,
            "midi": 26,
            "name": "D1",
            "ticks": 11808,
            "time": 23.0625,
            "velocity": 0.3937007874015748
          },
          {
            "duration": 0.1875,
            "durationTicks": 96,
            "midi": 57,
            "name": "A3",
            "ticks": 11808,
            "time": 23.0625,
            "velocity": 0.3937007874015748
          },
          {
            "duration": 0.1875,
            "durationTicks": 96,
            "midi": 38,
            "name": "D2",
            "ticks": 11808,
            "time": 23.0625,
            "velocity": 0.3937007874015748
          },
          {
            "duration": 0.1875,
            "durationTicks": 96,
            "midi": 45,
            "name": "A2",
            "ticks": 11808,
            "time": 23.0625,
            "velocity": 0.3937007874015748
          },
          {
            "duration": 0.1875,
            "durationTicks": 96,
            "midi": 26,
            "name": "D1",
            "ticks": 11904,
            "time": 23.25,
            "velocity": 0.3937007874015748
          },
          {
            "duration": 0.1875,
            "durationTicks": 96,
            "midi": 38,
            "name": "D2",
            "ticks": 11904,
            "time": 23.25,
            "velocity": 0.3937007874015748
          },
          {
            "duration": 0.1875,
            "durationTicks": 96,
            "midi": 50,
            "name": "D3",
            "ticks": 11904,
            "time": 23.25,
            "velocity": 0.3937007874015748
          },
          {
            "duration": 0.1875,
            "durationTicks": 96,
            "midi": 26,
            "name": "D1",
            "ticks": 12000,
            "time": 23.4375,
            "velocity": 0.3937007874015748
          },
          {
            "duration": 0.1875,
            "durationTicks": 96,
            "midi": 38,
            "name": "D2",
            "ticks": 12000,
            "time": 23.4375,
            "velocity": 0.3937007874015748
          },
          {
            "duration": 0.1875,
            "durationTicks": 96,
            "midi": 50,
            "name": "D3",
            "ticks": 12000,
            "time": 23.4375,
            "velocity": 0.3937007874015748
          },
          {
            "duration": 0.1875,
            "durationTicks": 96,
            "midi": 50,
            "name": "D3",
            "ticks": 12096,
            "time": 23.625,
            "velocity": 0.3937007874015748
          },
          {
            "duration": 0.1875,
            "durationTicks": 96,
            "midi": 38,
            "name": "D2",
            "ticks": 12096,
            "time": 23.625,
            "velocity": 0.3937007874015748
          },
          {
            "duration": 0.1875,
            "durationTicks": 96,
            "midi": 40,
            "name": "E2",
            "ticks": 12096,
            "time": 23.625,
            "velocity": 0.3937007874015748
          },
          {
            "duration": 0.1875,
            "durationTicks": 96,
            "midi": 28,
            "name": "E1",
            "ticks": 12096,
            "time": 23.625,
            "velocity": 0.3937007874015748
          },
          {
            "duration": 0.1875,
            "durationTicks": 96,
            "midi": 38,
            "name": "D2",
            "ticks": 12192,
            "time": 23.8125,
            "velocity": 0.3937007874015748
          },
          {
            "duration": 0.1875,
            "durationTicks": 96,
            "midi": 41,
            "name": "F2",
            "ticks": 12192,
            "time": 23.8125,
            "velocity": 0.3937007874015748
          },
          {
            "duration": 0.1875,
            "durationTicks": 96,
            "midi": 29,
            "name": "F1",
            "ticks": 12192,
            "time": 23.8125,
            "velocity": 0.3937007874015748
          },
          {
            "duration": 0.1875,
            "durationTicks": 96,
            "midi": 50,
            "name": "D3",
            "ticks": 12192,
            "time": 23.8125,
            "velocity": 0.3937007874015748
          },
          {
            "duration": 0.1875,
            "durationTicks": 96,
            "midi": 30,
            "name": "F#1",
            "ticks": 12288,
            "time": 24,
            "velocity": 0.3937007874015748
          },
          {
            "duration": 0.1875,
            "durationTicks": 96,
            "midi": 42,
            "name": "F#2",
            "ticks": 12288,
            "time": 24,
            "velocity": 0.3937007874015748
          },
          {
            "duration": 0.1875,
            "durationTicks": 96,
            "midi": 54,
            "name": "F#3",
            "ticks": 12384,
            "time": 24.1875,
            "velocity": 0.3937007874015748
          },
          {
            "duration": 0.1875,
            "durationTicks": 96,
            "midi": 66,
            "name": "F#4",
            "ticks": 12384,
            "time": 24.1875,
            "velocity": 0.3937007874015748
          },
          {
            "duration": 0.1875,
            "durationTicks": 96,
            "midi": 30,
            "name": "F#1",
            "ticks": 12384,
            "time": 24.1875,
            "velocity": 0.3937007874015748
          },
          {
            "duration": 0.1875,
            "durationTicks": 96,
            "midi": 30,
            "name": "F#1",
            "ticks": 12480,
            "time": 24.375,
            "velocity": 0.3937007874015748
          },
          {
            "duration": 0.1875,
            "durationTicks": 96,
            "midi": 42,
            "name": "F#2",
            "ticks": 12576,
            "time": 24.5625,
            "velocity": 0.3937007874015748
          },
          {
            "duration": 0.1875,
            "durationTicks": 96,
            "midi": 30,
            "name": "F#1",
            "ticks": 12576,
            "time": 24.5625,
            "velocity": 0.3937007874015748
          },
          {
            "duration": 0.1875,
            "durationTicks": 96,
            "midi": 54,
            "name": "F#3",
            "ticks": 12576,
            "time": 24.5625,
            "velocity": 0.3937007874015748
          },
          {
            "duration": 0.1875,
            "durationTicks": 96,
            "midi": 66,
            "name": "F#4",
            "ticks": 12576,
            "time": 24.5625,
            "velocity": 0.3937007874015748
          },
          {
            "duration": 0.1875,
            "durationTicks": 96,
            "midi": 30,
            "name": "F#1",
            "ticks": 12672,
            "time": 24.75,
            "velocity": 0.3937007874015748
          },
          {
            "duration": 0.1875,
            "durationTicks": 96,
            "midi": 42,
            "name": "F#2",
            "ticks": 12768,
            "time": 24.9375,
            "velocity": 0.3937007874015748
          },
          {
            "duration": 0.1875,
            "durationTicks": 96,
            "midi": 30,
            "name": "F#1",
            "ticks": 12768,
            "time": 24.9375,
            "velocity": 0.3937007874015748
          },
          {
            "duration": 0.1875,
            "durationTicks": 96,
            "midi": 54,
            "name": "F#3",
            "ticks": 12864,
            "time": 25.125,
            "velocity": 0.3937007874015748
          },
          {
            "duration": 0.1875,
            "durationTicks": 96,
            "midi": 33,
            "name": "A1",
            "ticks": 12864,
            "time": 25.125,
            "velocity": 0.3937007874015748
          },
          {
            "duration": 0.1875,
            "durationTicks": 96,
            "midi": 45,
            "name": "A2",
            "ticks": 12864,
            "time": 25.125,
            "velocity": 0.3937007874015748
          },
          {
            "duration": 0.1875,
            "durationTicks": 96,
            "midi": 66,
            "name": "F#4",
            "ticks": 12864,
            "time": 25.125,
            "velocity": 0.3937007874015748
          },
          {
            "duration": 0.1875,
            "durationTicks": 96,
            "midi": 32,
            "name": "G#1",
            "ticks": 12960,
            "time": 25.3125,
            "velocity": 0.3937007874015748
          },
          {
            "duration": 0.1875,
            "durationTicks": 96,
            "midi": 42,
            "name": "F#2",
            "ticks": 13056,
            "time": 25.5,
            "velocity": 0.3937007874015748
          },
          {
            "duration": 0.1875,
            "durationTicks": 96,
            "midi": 30,
            "name": "F#1",
            "ticks": 13056,
            "time": 25.5,
            "velocity": 0.3937007874015748
          },
          {
            "duration": 0.1875,
            "durationTicks": 96,
            "midi": 66,
            "name": "F#4",
            "ticks": 13152,
            "time": 25.6875,
            "velocity": 0.3937007874015748
          },
          {
            "duration": 0.1875,
            "durationTicks": 96,
            "midi": 54,
            "name": "F#3",
            "ticks": 13152,
            "time": 25.6875,
            "velocity": 0.3937007874015748
          },
          {
            "duration": 0.1875,
            "durationTicks": 96,
            "midi": 30,
            "name": "F#1",
            "ticks": 13152,
            "time": 25.6875,
            "velocity": 0.3937007874015748
          },
          {
            "duration": 0.1875,
            "durationTicks": 96,
            "midi": 30,
            "name": "F#1",
            "ticks": 13248,
            "time": 25.875,
            "velocity": 0.3937007874015748
          },
          {
            "duration": 0.1875,
            "durationTicks": 96,
            "midi": 30,
            "name": "F#1",
            "ticks": 13344,
            "time": 26.0625,
            "velocity": 0.3937007874015748
          },
          {
            "duration": 0.1875,
            "durationTicks": 96,
            "midi": 54,
            "name": "F#3",
            "ticks": 13344,
            "time": 26.0625,
            "velocity": 0.3937007874015748
          },
          {
            "duration": 0.1875,
            "durationTicks": 96,
            "midi": 66,
            "name": "F#4",
            "ticks": 13344,
            "time": 26.0625,
            "velocity": 0.3937007874015748
          },
          {
            "duration": 0.1875,
            "durationTicks": 96,
            "midi": 42,
            "name": "F#2",
            "ticks": 13344,
            "time": 26.0625,
            "velocity": 0.3937007874015748
          },
          {
            "duration": 0.1875,
            "durationTicks": 96,
            "midi": 30,
            "name": "F#1",
            "ticks": 13440,
            "time": 26.25,
            "velocity": 0.3937007874015748
          },
          {
            "duration": 0.1875,
            "durationTicks": 96,
            "midi": 45,
            "name": "A2",
            "ticks": 13536,
            "time": 26.4375,
            "velocity": 0.3937007874015748
          },
          {
            "duration": 0.1875,
            "durationTicks": 96,
            "midi": 33,
            "name": "A1",
            "ticks": 13536,
            "time": 26.4375,
            "velocity": 0.3937007874015748
          },
          {
            "duration": 0.1875,
            "durationTicks": 96,
            "midi": 32,
            "name": "G#1",
            "ticks": 13632,
            "time": 26.625,
            "velocity": 0.3937007874015748
          },
          {
            "duration": 0.1875,
            "durationTicks": 96,
            "midi": 68,
            "name": "G#4",
            "ticks": 13632,
            "time": 26.625,
            "velocity": 0.3937007874015748
          },
          {
            "duration": 0.1875,
            "durationTicks": 96,
            "midi": 56,
            "name": "G#3",
            "ticks": 13632,
            "time": 26.625,
            "velocity": 0.3937007874015748
          },
          {
            "duration": 0.1875,
            "durationTicks": 96,
            "midi": 44,
            "name": "G#2",
            "ticks": 13632,
            "time": 26.625,
            "velocity": 0.3937007874015748
          },
          {
            "duration": 0.1875,
            "durationTicks": 96,
            "midi": 42,
            "name": "F#2",
            "ticks": 13728,
            "time": 26.8125,
            "velocity": 0.3937007874015748
          },
          {
            "duration": 0.1875,
            "durationTicks": 96,
            "midi": 30,
            "name": "F#1",
            "ticks": 13728,
            "time": 26.8125,
            "velocity": 0.3937007874015748
          },
          {
            "duration": 0.1875,
            "durationTicks": 96,
            "midi": 29,
            "name": "F1",
            "ticks": 13824,
            "time": 27,
            "velocity": 0.3937007874015748
          },
          {
            "duration": 0.1875,
            "durationTicks": 96,
            "midi": 41,
            "name": "F2",
            "ticks": 13824,
            "time": 27,
            "velocity": 0.3937007874015748
          },
          {
            "duration": 0.1875,
            "durationTicks": 96,
            "midi": 53,
            "name": "F3",
            "ticks": 13920,
            "time": 27.1875,
            "velocity": 0.3937007874015748
          },
          {
            "duration": 0.1875,
            "durationTicks": 96,
            "midi": 65,
            "name": "F4",
            "ticks": 13920,
            "time": 27.1875,
            "velocity": 0.3937007874015748
          },
          {
            "duration": 0.1875,
            "durationTicks": 96,
            "midi": 29,
            "name": "F1",
            "ticks": 13920,
            "time": 27.1875,
            "velocity": 0.3937007874015748
          },
          {
            "duration": 0.1875,
            "durationTicks": 96,
            "midi": 29,
            "name": "F1",
            "ticks": 14016,
            "time": 27.375,
            "velocity": 0.3937007874015748
          },
          {
            "duration": 0.1875,
            "durationTicks": 96,
            "midi": 65,
            "name": "F4",
            "ticks": 14112,
            "time": 27.5625,
            "velocity": 0.3937007874015748
          },
          {
            "duration": 0.1875,
            "durationTicks": 96,
            "midi": 53,
            "name": "F3",
            "ticks": 14112,
            "time": 27.5625,
            "velocity": 0.3937007874015748
          },
          {
            "duration": 0.1875,
            "durationTicks": 96,
            "midi": 29,
            "name": "F1",
            "ticks": 14112,
            "time": 27.5625,
            "velocity": 0.3937007874015748
          },
          {
            "duration": 0.1875,
            "durationTicks": 96,
            "midi": 41,
            "name": "F2",
            "ticks": 14112,
            "time": 27.5625,
            "velocity": 0.3937007874015748
          },
          {
            "duration": 0.1875,
            "durationTicks": 96,
            "midi": 29,
            "name": "F1",
            "ticks": 14208,
            "time": 27.75,
            "velocity": 0.3937007874015748
          },
          {
            "duration": 0.1875,
            "durationTicks": 96,
            "midi": 41,
            "name": "F2",
            "ticks": 14304,
            "time": 27.9375,
            "velocity": 0.3937007874015748
          },
          {
            "duration": 0.1875,
            "durationTicks": 96,
            "midi": 29,
            "name": "F1",
            "ticks": 14304,
            "time": 27.9375,
            "velocity": 0.3937007874015748
          },
          {
            "duration": 0.1875,
            "durationTicks": 96,
            "midi": 65,
            "name": "F4",
            "ticks": 14400,
            "time": 28.125,
            "velocity": 0.3937007874015748
          },
          {
            "duration": 0.1875,
            "durationTicks": 96,
            "midi": 53,
            "name": "F3",
            "ticks": 14400,
            "time": 28.125,
            "velocity": 0.3937007874015748
          },
          {
            "duration": 0.1875,
            "durationTicks": 96,
            "midi": 29,
            "name": "F1",
            "ticks": 14400,
            "time": 28.125,
            "velocity": 0.3937007874015748
          },
          {
            "duration": 0.1875,
            "durationTicks": 96,
            "midi": 41,
            "name": "F2",
            "ticks": 14400,
            "time": 28.125,
            "velocity": 0.3937007874015748
          },
          {
            "duration": 0.1875,
            "durationTicks": 96,
            "midi": 28,
            "name": "E1",
            "ticks": 14496,
            "time": 28.3125,
            "velocity": 0.3937007874015748
          },
          {
            "duration": 0.1875,
            "durationTicks": 96,
            "midi": 26,
            "name": "D1",
            "ticks": 14592,
            "time": 28.5,
            "velocity": 0.3937007874015748
          },
          {
            "duration": 0.1875,
            "durationTicks": 96,
            "midi": 38,
            "name": "D2",
            "ticks": 14592,
            "time": 28.5,
            "velocity": 0.3937007874015748
          },
          {
            "duration": 0.1875,
            "durationTicks": 96,
            "midi": 50,
            "name": "D3",
            "ticks": 14688,
            "time": 28.6875,
            "velocity": 0.3937007874015748
          },
          {
            "duration": 0.1875,
            "durationTicks": 96,
            "midi": 26,
            "name": "D1",
            "ticks": 14688,
            "time": 28.6875,
            "velocity": 0.3937007874015748
          },
          {
            "duration": 0.1875,
            "durationTicks": 96,
            "midi": 62,
            "name": "D4",
            "ticks": 14688,
            "time": 28.6875,
            "velocity": 0.3937007874015748
          },
          {
            "duration": 0.1875,
            "durationTicks": 96,
            "midi": 26,
            "name": "D1",
            "ticks": 14784,
            "time": 28.875,
            "velocity": 0.3937007874015748
          },
          {
            "duration": 0.1875,
            "durationTicks": 96,
            "midi": 38,
            "name": "D2",
            "ticks": 14880,
            "time": 29.0625,
            "velocity": 0.3937007874015748
          },
          {
            "duration": 0.1875,
            "durationTicks": 96,
            "midi": 62,
            "name": "D4",
            "ticks": 14880,
            "time": 29.0625,
            "velocity": 0.3937007874015748
          },
          {
            "duration": 0.1875,
            "durationTicks": 96,
            "midi": 26,
            "name": "D1",
            "ticks": 14880,
            "time": 29.0625,
            "velocity": 0.3937007874015748
          },
          {
            "duration": 0.1875,
            "durationTicks": 96,
            "midi": 50,
            "name": "D3",
            "ticks": 14880,
            "time": 29.0625,
            "velocity": 0.3937007874015748
          },
          {
            "duration": 0.1875,
            "durationTicks": 96,
            "midi": 26,
            "name": "D1",
            "ticks": 14976,
            "time": 29.25,
            "velocity": 0.3937007874015748
          },
          {
            "duration": 0.1875,
            "durationTicks": 96,
            "midi": 26,
            "name": "D1",
            "ticks": 15072,
            "time": 29.4375,
            "velocity": 0.3937007874015748
          },
          {
            "duration": 0.1875,
            "durationTicks": 96,
            "midi": 28,
            "name": "E1",
            "ticks": 15168,
            "time": 29.625,
            "velocity": 0.3937007874015748
          },
          {
            "duration": 0.1875,
            "durationTicks": 96,
            "midi": 40,
            "name": "E2",
            "ticks": 15168,
            "time": 29.625,
            "velocity": 0.3937007874015748
          },
          {
            "duration": 0.1875,
            "durationTicks": 96,
            "midi": 52,
            "name": "E3",
            "ticks": 15168,
            "time": 29.625,
            "velocity": 0.3937007874015748
          },
          {
            "duration": 0.1875,
            "durationTicks": 96,
            "midi": 64,
            "name": "E4",
            "ticks": 15168,
            "time": 29.625,
            "velocity": 0.3937007874015748
          },
          {
            "duration": 0.1875,
            "durationTicks": 96,
            "midi": 29,
            "name": "F1",
            "ticks": 15264,
            "time": 29.8125,
            "velocity": 0.3937007874015748
          },
          {
            "duration": 0.1875,
            "durationTicks": 96,
            "midi": 41,
            "name": "F2",
            "ticks": 15264,
            "time": 29.8125,
            "velocity": 0.3937007874015748
          },
          {
            "duration": 0.1875,
            "durationTicks": 96,
            "midi": 42,
            "name": "F#2",
            "ticks": 15360,
            "time": 30,
            "velocity": 0.3937007874015748
          },
          {
            "duration": 0.1875,
            "durationTicks": 96,
            "midi": 30,
            "name": "F#1",
            "ticks": 15360,
            "time": 30,
            "velocity": 0.3937007874015748
          },
          {
            "duration": 0.1875,
            "durationTicks": 96,
            "midi": 30,
            "name": "F#1",
            "ticks": 15456,
            "time": 30.1875,
            "velocity": 0.3937007874015748
          },
          {
            "duration": 0.1875,
            "durationTicks": 96,
            "midi": 66,
            "name": "F#4",
            "ticks": 15456,
            "time": 30.1875,
            "velocity": 0.3937007874015748
          },
          {
            "duration": 0.1875,
            "durationTicks": 96,
            "midi": 54,
            "name": "F#3",
            "ticks": 15456,
            "time": 30.1875,
            "velocity": 0.3937007874015748
          },
          {
            "duration": 0.1875,
            "durationTicks": 96,
            "midi": 30,
            "name": "F#1",
            "ticks": 15552,
            "time": 30.375,
            "velocity": 0.3937007874015748
          },
          {
            "duration": 0.1875,
            "durationTicks": 96,
            "midi": 54,
            "name": "F#3",
            "ticks": 15648,
            "time": 30.5625,
            "velocity": 0.3937007874015748
          },
          {
            "duration": 0.1875,
            "durationTicks": 96,
            "midi": 66,
            "name": "F#4",
            "ticks": 15648,
            "time": 30.5625,
            "velocity": 0.3937007874015748
          },
          {
            "duration": 0.1875,
            "durationTicks": 96,
            "midi": 42,
            "name": "F#2",
            "ticks": 15648,
            "time": 30.5625,
            "velocity": 0.3937007874015748
          },
          {
            "duration": 0.1875,
            "durationTicks": 96,
            "midi": 30,
            "name": "F#1",
            "ticks": 15648,
            "time": 30.5625,
            "velocity": 0.3937007874015748
          },
          {
            "duration": 0.1875,
            "durationTicks": 96,
            "midi": 30,
            "name": "F#1",
            "ticks": 15744,
            "time": 30.75,
            "velocity": 0.3937007874015748
          },
          {
            "duration": 0.1875,
            "durationTicks": 96,
            "midi": 30,
            "name": "F#1",
            "ticks": 15840,
            "time": 30.9375,
            "velocity": 0.3937007874015748
          },
          {
            "duration": 0.1875,
            "durationTicks": 96,
            "midi": 42,
            "name": "F#2",
            "ticks": 15840,
            "time": 30.9375,
            "velocity": 0.3937007874015748
          },
          {
            "duration": 0.1875,
            "durationTicks": 96,
            "midi": 45,
            "name": "A2",
            "ticks": 15936,
            "time": 31.125,
            "velocity": 0.3937007874015748
          },
          {
            "duration": 0.1875,
            "durationTicks": 96,
            "midi": 54,
            "name": "F#3",
            "ticks": 15936,
            "time": 31.125,
            "velocity": 0.3937007874015748
          },
          {
            "duration": 0.1875,
            "durationTicks": 96,
            "midi": 66,
            "name": "F#4",
            "ticks": 15936,
            "time": 31.125,
            "velocity": 0.3937007874015748
          },
          {
            "duration": 0.1875,
            "durationTicks": 96,
            "midi": 33,
            "name": "A1",
            "ticks": 15936,
            "time": 31.125,
            "velocity": 0.3937007874015748
          },
          {
            "duration": 0.1875,
            "durationTicks": 96,
            "midi": 32,
            "name": "G#1",
            "ticks": 16032,
            "time": 31.3125,
            "velocity": 0.3937007874015748
          },
          {
            "duration": 0.1875,
            "durationTicks": 96,
            "midi": 30,
            "name": "F#1",
            "ticks": 16128,
            "time": 31.5,
            "velocity": 0.3937007874015748
          },
          {
            "duration": 0.1875,
            "durationTicks": 96,
            "midi": 42,
            "name": "F#2",
            "ticks": 16128,
            "time": 31.5,
            "velocity": 0.3937007874015748
          },
          {
            "duration": 0.1875,
            "durationTicks": 96,
            "midi": 54,
            "name": "F#3",
            "ticks": 16224,
            "time": 31.6875,
            "velocity": 0.3937007874015748
          },
          {
            "duration": 0.1875,
            "durationTicks": 96,
            "midi": 30,
            "name": "F#1",
            "ticks": 16224,
            "time": 31.6875,
            "velocity": 0.3937007874015748
          },
          {
            "duration": 0.1875,
            "durationTicks": 96,
            "midi": 66,
            "name": "F#4",
            "ticks": 16224,
            "time": 31.6875,
            "velocity": 0.3937007874015748
          },
          {
            "duration": 0.1875,
            "durationTicks": 96,
            "midi": 30,
            "name": "F#1",
            "ticks": 16320,
            "time": 31.875,
            "velocity": 0.3937007874015748
          },
          {
            "duration": 0.1875,
            "durationTicks": 96,
            "midi": 42,
            "name": "F#2",
            "ticks": 16416,
            "time": 32.0625,
            "velocity": 0.3937007874015748
          },
          {
            "duration": 0.1875,
            "durationTicks": 96,
            "midi": 30,
            "name": "F#1",
            "ticks": 16416,
            "time": 32.0625,
            "velocity": 0.3937007874015748
          },
          {
            "duration": 0.1875,
            "durationTicks": 96,
            "midi": 54,
            "name": "F#3",
            "ticks": 16416,
            "time": 32.0625,
            "velocity": 0.3937007874015748
          },
          {
            "duration": 0.1875,
            "durationTicks": 96,
            "midi": 66,
            "name": "F#4",
            "ticks": 16416,
            "time": 32.0625,
            "velocity": 0.3937007874015748
          },
          {
            "duration": 0.1875,
            "durationTicks": 96,
            "midi": 30,
            "name": "F#1",
            "ticks": 16512,
            "time": 32.25,
            "velocity": 0.3937007874015748
          },
          {
            "duration": 0.1875,
            "durationTicks": 96,
            "midi": 33,
            "name": "A1",
            "ticks": 16608,
            "time": 32.4375,
            "velocity": 0.3937007874015748
          },
          {
            "duration": 0.1875,
            "durationTicks": 96,
            "midi": 45,
            "name": "A2",
            "ticks": 16608,
            "time": 32.4375,
            "velocity": 0.3937007874015748
          },
          {
            "duration": 0.1875,
            "durationTicks": 96,
            "midi": 32,
            "name": "G#1",
            "ticks": 16704,
            "time": 32.625,
            "velocity": 0.3937007874015748
          },
          {
            "duration": 0.1875,
            "durationTicks": 96,
            "midi": 44,
            "name": "G#2",
            "ticks": 16704,
            "time": 32.625,
            "velocity": 0.3937007874015748
          },
          {
            "duration": 0.1875,
            "durationTicks": 96,
            "midi": 56,
            "name": "G#3",
            "ticks": 16704,
            "time": 32.625,
            "velocity": 0.3937007874015748
          },
          {
            "duration": 0.1875,
            "durationTicks": 96,
            "midi": 68,
            "name": "G#4",
            "ticks": 16704,
            "time": 32.625,
            "velocity": 0.3937007874015748
          },
          {
            "duration": 0.1875,
            "durationTicks": 96,
            "midi": 42,
            "name": "F#2",
            "ticks": 16800,
            "time": 32.8125,
            "velocity": 0.3937007874015748
          },
          {
            "duration": 0.1875,
            "durationTicks": 96,
            "midi": 30,
            "name": "F#1",
            "ticks": 16800,
            "time": 32.8125,
            "velocity": 0.3937007874015748
          },
          {
            "duration": 0.1875,
            "durationTicks": 96,
            "midi": 29,
            "name": "F1",
            "ticks": 16896,
            "time": 33,
            "velocity": 0.3937007874015748
          },
          {
            "duration": 0.1875,
            "durationTicks": 96,
            "midi": 41,
            "name": "F2",
            "ticks": 16896,
            "time": 33,
            "velocity": 0.3937007874015748
          },
          {
            "duration": 0.1875,
            "durationTicks": 96,
            "midi": 65,
            "name": "F4",
            "ticks": 16992,
            "time": 33.1875,
            "velocity": 0.3937007874015748
          },
          {
            "duration": 0.1875,
            "durationTicks": 96,
            "midi": 29,
            "name": "F1",
            "ticks": 16992,
            "time": 33.1875,
            "velocity": 0.3937007874015748
          },
          {
            "duration": 0.1875,
            "durationTicks": 96,
            "midi": 53,
            "name": "F3",
            "ticks": 16992,
            "time": 33.1875,
            "velocity": 0.3937007874015748
          },
          {
            "duration": 0.1875,
            "durationTicks": 96,
            "midi": 29,
            "name": "F1",
            "ticks": 17088,
            "time": 33.375,
            "velocity": 0.3937007874015748
          },
          {
            "duration": 0.1875,
            "durationTicks": 96,
            "midi": 29,
            "name": "F1",
            "ticks": 17184,
            "time": 33.5625,
            "velocity": 0.3937007874015748
          },
          {
            "duration": 0.1875,
            "durationTicks": 96,
            "midi": 65,
            "name": "F4",
            "ticks": 17184,
            "time": 33.5625,
            "velocity": 0.3937007874015748
          },
          {
            "duration": 0.1875,
            "durationTicks": 96,
            "midi": 53,
            "name": "F3",
            "ticks": 17184,
            "time": 33.5625,
            "velocity": 0.3937007874015748
          },
          {
            "duration": 0.1875,
            "durationTicks": 96,
            "midi": 41,
            "name": "F2",
            "ticks": 17184,
            "time": 33.5625,
            "velocity": 0.3937007874015748
          },
          {
            "duration": 0.1875,
            "durationTicks": 96,
            "midi": 29,
            "name": "F1",
            "ticks": 17280,
            "time": 33.75,
            "velocity": 0.3937007874015748
          },
          {
            "duration": 0.1875,
            "durationTicks": 96,
            "midi": 29,
            "name": "F1",
            "ticks": 17376,
            "time": 33.9375,
            "velocity": 0.3937007874015748
          },
          {
            "duration": 0.1875,
            "durationTicks": 96,
            "midi": 41,
            "name": "F2",
            "ticks": 17376,
            "time": 33.9375,
            "velocity": 0.3937007874015748
          },
          {
            "duration": 0.1875,
            "durationTicks": 96,
            "midi": 65,
            "name": "F4",
            "ticks": 17472,
            "time": 34.125,
            "velocity": 0.3937007874015748
          },
          {
            "duration": 0.1875,
            "durationTicks": 96,
            "midi": 29,
            "name": "F1",
            "ticks": 17472,
            "time": 34.125,
            "velocity": 0.3937007874015748
          },
          {
            "duration": 0.1875,
            "durationTicks": 96,
            "midi": 41,
            "name": "F2",
            "ticks": 17472,
            "time": 34.125,
            "velocity": 0.3937007874015748
          },
          {
            "duration": 0.1875,
            "durationTicks": 96,
            "midi": 53,
            "name": "F3",
            "ticks": 17472,
            "time": 34.125,
            "velocity": 0.3937007874015748
          },
          {
            "duration": 0.1875,
            "durationTicks": 96,
            "midi": 28,
            "name": "E1",
            "ticks": 17568,
            "time": 34.3125,
            "velocity": 0.3937007874015748
          },
          {
            "duration": 0.1875,
            "durationTicks": 96,
            "midi": 38,
            "name": "D2",
            "ticks": 17664,
            "time": 34.5,
            "velocity": 0.3937007874015748
          },
          {
            "duration": 0.1875,
            "durationTicks": 96,
            "midi": 26,
            "name": "D1",
            "ticks": 17664,
            "time": 34.5,
            "velocity": 0.3937007874015748
          },
          {
            "duration": 0.1875,
            "durationTicks": 96,
            "midi": 50,
            "name": "D3",
            "ticks": 17760,
            "time": 34.6875,
            "velocity": 0.3937007874015748
          },
          {
            "duration": 0.1875,
            "durationTicks": 96,
            "midi": 62,
            "name": "D4",
            "ticks": 17760,
            "time": 34.6875,
            "velocity": 0.3937007874015748
          },
          {
            "duration": 0.1875,
            "durationTicks": 96,
            "midi": 26,
            "name": "D1",
            "ticks": 17760,
            "time": 34.6875,
            "velocity": 0.3937007874015748
          },
          {
            "duration": 0.1875,
            "durationTicks": 96,
            "midi": 26,
            "name": "D1",
            "ticks": 17856,
            "time": 34.875,
            "velocity": 0.3937007874015748
          },
          {
            "duration": 0.1875,
            "durationTicks": 96,
            "midi": 26,
            "name": "D1",
            "ticks": 17952,
            "time": 35.0625,
            "velocity": 0.3937007874015748
          },
          {
            "duration": 0.1875,
            "durationTicks": 96,
            "midi": 38,
            "name": "D2",
            "ticks": 17952,
            "time": 35.0625,
            "velocity": 0.3937007874015748
          },
          {
            "duration": 0.1875,
            "durationTicks": 96,
            "midi": 62,
            "name": "D4",
            "ticks": 17952,
            "time": 35.0625,
            "velocity": 0.3937007874015748
          },
          {
            "duration": 0.1875,
            "durationTicks": 96,
            "midi": 50,
            "name": "D3",
            "ticks": 17952,
            "time": 35.0625,
            "velocity": 0.3937007874015748
          },
          {
            "duration": 0.1875,
            "durationTicks": 96,
            "midi": 26,
            "name": "D1",
            "ticks": 18048,
            "time": 35.25,
            "velocity": 0.3937007874015748
          },
          {
            "duration": 0.1875,
            "durationTicks": 96,
            "midi": 26,
            "name": "D1",
            "ticks": 18144,
            "time": 35.4375,
            "velocity": 0.3937007874015748
          },
          {
            "duration": 0.1875,
            "durationTicks": 96,
            "midi": 64,
            "name": "E4",
            "ticks": 18240,
            "time": 35.625,
            "velocity": 0.3937007874015748
          },
          {
            "duration": 0.1875,
            "durationTicks": 96,
            "midi": 52,
            "name": "E3",
            "ticks": 18240,
            "time": 35.625,
            "velocity": 0.3937007874015748
          },
          {
            "duration": 0.1875,
            "durationTicks": 96,
            "midi": 40,
            "name": "E2",
            "ticks": 18240,
            "time": 35.625,
            "velocity": 0.3937007874015748
          },
          {
            "duration": 0.1875,
            "durationTicks": 96,
            "midi": 28,
            "name": "E1",
            "ticks": 18240,
            "time": 35.625,
            "velocity": 0.3937007874015748
          },
          {
            "duration": 0.1875,
            "durationTicks": 96,
            "midi": 29,
            "name": "F1",
            "ticks": 18336,
            "time": 35.8125,
            "velocity": 0.3937007874015748
          },
          {
            "duration": 0.1875,
            "durationTicks": 96,
            "midi": 41,
            "name": "F2",
            "ticks": 18336,
            "time": 35.8125,
            "velocity": 0.3937007874015748
          },
          {
            "duration": 0.1875,
            "durationTicks": 96,
            "midi": 42,
            "name": "F#2",
            "ticks": 18432,
            "time": 36,
            "velocity": 0.3937007874015748
          },
          {
            "duration": 0.1875,
            "durationTicks": 96,
            "midi": 30,
            "name": "F#1",
            "ticks": 18432,
            "time": 36,
            "velocity": 0.3937007874015748
          },
          {
            "duration": 0.1875,
            "durationTicks": 96,
            "midi": 30,
            "name": "F#1",
            "ticks": 18528,
            "time": 36.1875,
            "velocity": 0.3937007874015748
          },
          {
            "duration": 0.1875,
            "durationTicks": 96,
            "midi": 54,
            "name": "F#3",
            "ticks": 18528,
            "time": 36.1875,
            "velocity": 0.3937007874015748
          },
          {
            "duration": 0.1875,
            "durationTicks": 96,
            "midi": 66,
            "name": "F#4",
            "ticks": 18528,
            "time": 36.1875,
            "velocity": 0.3937007874015748
          },
          {
            "duration": 0.1875,
            "durationTicks": 96,
            "midi": 30,
            "name": "F#1",
            "ticks": 18624,
            "time": 36.375,
            "velocity": 0.3937007874015748
          },
          {
            "duration": 0.1875,
            "durationTicks": 96,
            "midi": 66,
            "name": "F#4",
            "ticks": 18720,
            "time": 36.5625,
            "velocity": 0.3937007874015748
          },
          {
            "duration": 0.1875,
            "durationTicks": 96,
            "midi": 42,
            "name": "F#2",
            "ticks": 18720,
            "time": 36.5625,
            "velocity": 0.3937007874015748
          },
          {
            "duration": 0.1875,
            "durationTicks": 96,
            "midi": 54,
            "name": "F#3",
            "ticks": 18720,
            "time": 36.5625,
            "velocity": 0.3937007874015748
          },
          {
            "duration": 0.1875,
            "durationTicks": 96,
            "midi": 30,
            "name": "F#1",
            "ticks": 18720,
            "time": 36.5625,
            "velocity": 0.3937007874015748
          },
          {
            "duration": 0.1875,
            "durationTicks": 96,
            "midi": 30,
            "name": "F#1",
            "ticks": 18816,
            "time": 36.75,
            "velocity": 0.3937007874015748
          },
          {
            "duration": 0.1875,
            "durationTicks": 96,
            "midi": 30,
            "name": "F#1",
            "ticks": 18912,
            "time": 36.9375,
            "velocity": 0.3937007874015748
          },
          {
            "duration": 0.1875,
            "durationTicks": 96,
            "midi": 42,
            "name": "F#2",
            "ticks": 18912,
            "time": 36.9375,
            "velocity": 0.3937007874015748
          },
          {
            "duration": 0.1875,
            "durationTicks": 96,
            "midi": 45,
            "name": "A2",
            "ticks": 19008,
            "time": 37.125,
            "velocity": 0.3937007874015748
          },
          {
            "duration": 0.1875,
            "durationTicks": 96,
            "midi": 66,
            "name": "F#4",
            "ticks": 19008,
            "time": 37.125,
            "velocity": 0.3937007874015748
          },
          {
            "duration": 0.1875,
            "durationTicks": 96,
            "midi": 54,
            "name": "F#3",
            "ticks": 19008,
            "time": 37.125,
            "velocity": 0.3937007874015748
          },
          {
            "duration": 0.1875,
            "durationTicks": 96,
            "midi": 33,
            "name": "A1",
            "ticks": 19008,
            "time": 37.125,
            "velocity": 0.3937007874015748
          },
          {
            "duration": 0.1875,
            "durationTicks": 96,
            "midi": 32,
            "name": "G#1",
            "ticks": 19104,
            "time": 37.3125,
            "velocity": 0.3937007874015748
          },
          {
            "duration": 0.1875,
            "durationTicks": 96,
            "midi": 30,
            "name": "F#1",
            "ticks": 19200,
            "time": 37.5,
            "velocity": 0.3937007874015748
          },
          {
            "duration": 0.1875,
            "durationTicks": 96,
            "midi": 42,
            "name": "F#2",
            "ticks": 19200,
            "time": 37.5,
            "velocity": 0.3937007874015748
          },
          {
            "duration": 0.1875,
            "durationTicks": 96,
            "midi": 54,
            "name": "F#3",
            "ticks": 19296,
            "time": 37.6875,
            "velocity": 0.3937007874015748
          },
          {
            "duration": 0.1875,
            "durationTicks": 96,
            "midi": 66,
            "name": "F#4",
            "ticks": 19296,
            "time": 37.6875,
            "velocity": 0.3937007874015748
          },
          {
            "duration": 0.1875,
            "durationTicks": 96,
            "midi": 30,
            "name": "F#1",
            "ticks": 19296,
            "time": 37.6875,
            "velocity": 0.3937007874015748
          },
          {
            "duration": 0.1875,
            "durationTicks": 96,
            "midi": 30,
            "name": "F#1",
            "ticks": 19392,
            "time": 37.875,
            "velocity": 0.3937007874015748
          },
          {
            "duration": 0.1875,
            "durationTicks": 96,
            "midi": 66,
            "name": "F#4",
            "ticks": 19488,
            "time": 38.0625,
            "velocity": 0.3937007874015748
          },
          {
            "duration": 0.1875,
            "durationTicks": 96,
            "midi": 54,
            "name": "F#3",
            "ticks": 19488,
            "time": 38.0625,
            "velocity": 0.3937007874015748
          },
          {
            "duration": 0.1875,
            "durationTicks": 96,
            "midi": 42,
            "name": "F#2",
            "ticks": 19488,
            "time": 38.0625,
            "velocity": 0.3937007874015748
          },
          {
            "duration": 0.1875,
            "durationTicks": 96,
            "midi": 30,
            "name": "F#1",
            "ticks": 19488,
            "time": 38.0625,
            "velocity": 0.3937007874015748
          },
          {
            "duration": 0.1875,
            "durationTicks": 96,
            "midi": 30,
            "name": "F#1",
            "ticks": 19584,
            "time": 38.25,
            "velocity": 0.3937007874015748
          },
          {
            "duration": 0.1875,
            "durationTicks": 96,
            "midi": 45,
            "name": "A2",
            "ticks": 19680,
            "time": 38.4375,
            "velocity": 0.3937007874015748
          },
          {
            "duration": 0.1875,
            "durationTicks": 96,
            "midi": 33,
            "name": "A1",
            "ticks": 19680,
            "time": 38.4375,
            "velocity": 0.3937007874015748
          },
          {
            "duration": 0.1875,
            "durationTicks": 96,
            "midi": 32,
            "name": "G#1",
            "ticks": 19776,
            "time": 38.625,
            "velocity": 0.3937007874015748
          },
          {
            "duration": 0.1875,
            "durationTicks": 96,
            "midi": 44,
            "name": "G#2",
            "ticks": 19776,
            "time": 38.625,
            "velocity": 0.3937007874015748
          },
          {
            "duration": 0.1875,
            "durationTicks": 96,
            "midi": 56,
            "name": "G#3",
            "ticks": 19776,
            "time": 38.625,
            "velocity": 0.3937007874015748
          },
          {
            "duration": 0.1875,
            "durationTicks": 96,
            "midi": 68,
            "name": "G#4",
            "ticks": 19776,
            "time": 38.625,
            "velocity": 0.3937007874015748
          },
          {
            "duration": 0.1875,
            "durationTicks": 96,
            "midi": 42,
            "name": "F#2",
            "ticks": 19872,
            "time": 38.8125,
            "velocity": 0.3937007874015748
          },
          {
            "duration": 0.1875,
            "durationTicks": 96,
            "midi": 30,
            "name": "F#1",
            "ticks": 19872,
            "time": 38.8125,
            "velocity": 0.3937007874015748
          },
          {
            "duration": 0.1875,
            "durationTicks": 96,
            "midi": 41,
            "name": "F2",
            "ticks": 19968,
            "time": 39,
            "velocity": 0.3937007874015748
          },
          {
            "duration": 0.1875,
            "durationTicks": 96,
            "midi": 29,
            "name": "F1",
            "ticks": 19968,
            "time": 39,
            "velocity": 0.3937007874015748
          },
          {
            "duration": 0.1875,
            "durationTicks": 96,
            "midi": 65,
            "name": "F4",
            "ticks": 20064,
            "time": 39.1875,
            "velocity": 0.3937007874015748
          },
          {
            "duration": 0.1875,
            "durationTicks": 96,
            "midi": 53,
            "name": "F3",
            "ticks": 20064,
            "time": 39.1875,
            "velocity": 0.3937007874015748
          },
          {
            "duration": 0.1875,
            "durationTicks": 96,
            "midi": 29,
            "name": "F1",
            "ticks": 20064,
            "time": 39.1875,
            "velocity": 0.3937007874015748
          },
          {
            "duration": 0.1875,
            "durationTicks": 96,
            "midi": 29,
            "name": "F1",
            "ticks": 20160,
            "time": 39.375,
            "velocity": 0.3937007874015748
          },
          {
            "duration": 0.1875,
            "durationTicks": 96,
            "midi": 29,
            "name": "F1",
            "ticks": 20256,
            "time": 39.5625,
            "velocity": 0.3937007874015748
          },
          {
            "duration": 0.1875,
            "durationTicks": 96,
            "midi": 53,
            "name": "F3",
            "ticks": 20256,
            "time": 39.5625,
            "velocity": 0.3937007874015748
          },
          {
            "duration": 0.1875,
            "durationTicks": 96,
            "midi": 41,
            "name": "F2",
            "ticks": 20256,
            "time": 39.5625,
            "velocity": 0.3937007874015748
          },
          {
            "duration": 0.1875,
            "durationTicks": 96,
            "midi": 65,
            "name": "F4",
            "ticks": 20256,
            "time": 39.5625,
            "velocity": 0.3937007874015748
          },
          {
            "duration": 0.1875,
            "durationTicks": 96,
            "midi": 29,
            "name": "F1",
            "ticks": 20352,
            "time": 39.75,
            "velocity": 0.3937007874015748
          },
          {
            "duration": 0.1875,
            "durationTicks": 96,
            "midi": 29,
            "name": "F1",
            "ticks": 20448,
            "time": 39.9375,
            "velocity": 0.3937007874015748
          },
          {
            "duration": 0.1875,
            "durationTicks": 96,
            "midi": 41,
            "name": "F2",
            "ticks": 20448,
            "time": 39.9375,
            "velocity": 0.3937007874015748
          },
          {
            "duration": 0.1875,
            "durationTicks": 96,
            "midi": 29,
            "name": "F1",
            "ticks": 20544,
            "time": 40.125,
            "velocity": 0.3937007874015748
          },
          {
            "duration": 0.1875,
            "durationTicks": 96,
            "midi": 41,
            "name": "F2",
            "ticks": 20544,
            "time": 40.125,
            "velocity": 0.3937007874015748
          },
          {
            "duration": 0.1875,
            "durationTicks": 96,
            "midi": 53,
            "name": "F3",
            "ticks": 20544,
            "time": 40.125,
            "velocity": 0.3937007874015748
          },
          {
            "duration": 0.1875,
            "durationTicks": 96,
            "midi": 65,
            "name": "F4",
            "ticks": 20544,
            "time": 40.125,
            "velocity": 0.3937007874015748
          },
          {
            "duration": 0.1875,
            "durationTicks": 96,
            "midi": 28,
            "name": "E1",
            "ticks": 20640,
            "time": 40.3125,
            "velocity": 0.3937007874015748
          },
          {
            "duration": 0.1875,
            "durationTicks": 96,
            "midi": 38,
            "name": "D2",
            "ticks": 20736,
            "time": 40.5,
            "velocity": 0.3937007874015748
          },
          {
            "duration": 0.1875,
            "durationTicks": 96,
            "midi": 50,
            "name": "D3",
            "ticks": 20736,
            "time": 40.5,
            "velocity": 0.3937007874015748
          },
          {
            "duration": 0.1875,
            "durationTicks": 96,
            "midi": 62,
            "name": "D4",
            "ticks": 20736,
            "time": 40.5,
            "velocity": 0.3937007874015748
          },
          {
            "duration": 0.1875,
            "durationTicks": 96,
            "midi": 26,
            "name": "D1",
            "ticks": 20736,
            "time": 40.5,
            "velocity": 0.3937007874015748
          },
          {
            "duration": 0.1875,
            "durationTicks": 96,
            "midi": 26,
            "name": "D1",
            "ticks": 20832,
            "time": 40.6875,
            "velocity": 0.3937007874015748
          },
          {
            "duration": 0.1875,
            "durationTicks": 96,
            "midi": 62,
            "name": "D4",
            "ticks": 20832,
            "time": 40.6875,
            "velocity": 0.3937007874015748
          },
          {
            "duration": 0.1875,
            "durationTicks": 96,
            "midi": 38,
            "name": "D2",
            "ticks": 20832,
            "time": 40.6875,
            "velocity": 0.3937007874015748
          },
          {
            "duration": 0.1875,
            "durationTicks": 96,
            "midi": 50,
            "name": "D3",
            "ticks": 20832,
            "time": 40.6875,
            "velocity": 0.3937007874015748
          },
          {
            "duration": 0.1875,
            "durationTicks": 96,
            "midi": 63,
            "name": "D#4",
            "ticks": 20928,
            "time": 40.875,
            "velocity": 0.3937007874015748
          },
          {
            "duration": 0.1875,
            "durationTicks": 96,
            "midi": 51,
            "name": "D#3",
            "ticks": 20928,
            "time": 40.875,
            "velocity": 0.3937007874015748
          },
          {
            "duration": 0.1875,
            "durationTicks": 96,
            "midi": 27,
            "name": "D#1",
            "ticks": 20928,
            "time": 40.875,
            "velocity": 0.3937007874015748
          },
          {
            "duration": 0.1875,
            "durationTicks": 96,
            "midi": 39,
            "name": "D#2",
            "ticks": 20928,
            "time": 40.875,
            "velocity": 0.3937007874015748
          },
          {
            "duration": 0.1875,
            "durationTicks": 96,
            "midi": 63,
            "name": "D#4",
            "ticks": 21024,
            "time": 41.0625,
            "velocity": 0.3937007874015748
          },
          {
            "duration": 0.1875,
            "durationTicks": 96,
            "midi": 39,
            "name": "D#2",
            "ticks": 21024,
            "time": 41.0625,
            "velocity": 0.3937007874015748
          },
          {
            "duration": 0.1875,
            "durationTicks": 96,
            "midi": 27,
            "name": "D#1",
            "ticks": 21024,
            "time": 41.0625,
            "velocity": 0.3937007874015748
          },
          {
            "duration": 0.1875,
            "durationTicks": 96,
            "midi": 51,
            "name": "D#3",
            "ticks": 21024,
            "time": 41.0625,
            "velocity": 0.3937007874015748
          },
          {
            "duration": 0.1875,
            "durationTicks": 96,
            "midi": 64,
            "name": "E4",
            "ticks": 21120,
            "time": 41.25,
            "velocity": 0.3937007874015748
          },
          {
            "duration": 0.1875,
            "durationTicks": 96,
            "midi": 40,
            "name": "E2",
            "ticks": 21120,
            "time": 41.25,
            "velocity": 0.3937007874015748
          },
          {
            "duration": 0.1875,
            "durationTicks": 96,
            "midi": 52,
            "name": "E3",
            "ticks": 21120,
            "time": 41.25,
            "velocity": 0.3937007874015748
          },
          {
            "duration": 0.1875,
            "durationTicks": 96,
            "midi": 28,
            "name": "E1",
            "ticks": 21120,
            "time": 41.25,
            "velocity": 0.3937007874015748
          },
          {
            "duration": 0.1875,
            "durationTicks": 96,
            "midi": 64,
            "name": "E4",
            "ticks": 21216,
            "time": 41.4375,
            "velocity": 0.3937007874015748
          },
          {
            "duration": 0.1875,
            "durationTicks": 96,
            "midi": 28,
            "name": "E1",
            "ticks": 21216,
            "time": 41.4375,
            "velocity": 0.3937007874015748
          },
          {
            "duration": 0.1875,
            "durationTicks": 96,
            "midi": 40,
            "name": "E2",
            "ticks": 21216,
            "time": 41.4375,
            "velocity": 0.3937007874015748
          },
          {
            "duration": 0.1875,
            "durationTicks": 96,
            "midi": 52,
            "name": "E3",
            "ticks": 21216,
            "time": 41.4375,
            "velocity": 0.3937007874015748
          },
          {
            "duration": 0.1875,
            "durationTicks": 96,
            "midi": 29,
            "name": "F1",
            "ticks": 21312,
            "time": 41.625,
            "velocity": 0.3937007874015748
          },
          {
            "duration": 0.1875,
            "durationTicks": 96,
            "midi": 65,
            "name": "F4",
            "ticks": 21312,
            "time": 41.625,
            "velocity": 0.3937007874015748
          },
          {
            "duration": 0.1875,
            "durationTicks": 96,
            "midi": 41,
            "name": "F2",
            "ticks": 21312,
            "time": 41.625,
            "velocity": 0.3937007874015748
          },
          {
            "duration": 0.1875,
            "durationTicks": 96,
            "midi": 53,
            "name": "F3",
            "ticks": 21312,
            "time": 41.625,
            "velocity": 0.3937007874015748
          },
          {
            "duration": 0.1875,
            "durationTicks": 96,
            "midi": 41,
            "name": "F2",
            "ticks": 21408,
            "time": 41.8125,
            "velocity": 0.3937007874015748
          },
          {
            "duration": 0.1875,
            "durationTicks": 96,
            "midi": 29,
            "name": "F1",
            "ticks": 21408,
            "time": 41.8125,
            "velocity": 0.3937007874015748
          },
          {
            "duration": 0.1875,
            "durationTicks": 96,
            "midi": 53,
            "name": "F3",
            "ticks": 21408,
            "time": 41.8125,
            "velocity": 0.3937007874015748
          },
          {
            "duration": 0.1875,
            "durationTicks": 96,
            "midi": 65,
            "name": "F4",
            "ticks": 21408,
            "time": 41.8125,
            "velocity": 0.3937007874015748
          },
          {
            "duration": 0.1875,
            "durationTicks": 96,
            "midi": 42,
            "name": "F#2",
            "ticks": 21504,
            "time": 42,
            "velocity": 0.3937007874015748
          },
          {
            "duration": 0.1875,
            "durationTicks": 96,
            "midi": 30,
            "name": "F#1",
            "ticks": 21504,
            "time": 42,
            "velocity": 0.3937007874015748
          },
          {
            "duration": 0.1875,
            "durationTicks": 96,
            "midi": 66,
            "name": "F#4",
            "ticks": 21504,
            "time": 42,
            "velocity": 0.3937007874015748
          },
          {
            "duration": 0.1875,
            "durationTicks": 96,
            "midi": 54,
            "name": "F#3",
            "ticks": 21504,
            "time": 42,
            "velocity": 0.3937007874015748
          },
          {
            "duration": 0.1875,
            "durationTicks": 96,
            "midi": 30,
            "name": "F#1",
            "ticks": 21600,
            "time": 42.1875,
            "velocity": 0.3937007874015748
          },
          {
            "duration": 0.1875,
            "durationTicks": 96,
            "midi": 54,
            "name": "F#3",
            "ticks": 21600,
            "time": 42.1875,
            "velocity": 0.3937007874015748
          },
          {
            "duration": 0.1875,
            "durationTicks": 96,
            "midi": 66,
            "name": "F#4",
            "ticks": 21600,
            "time": 42.1875,
            "velocity": 0.3937007874015748
          },
          {
            "duration": 0.1875,
            "durationTicks": 96,
            "midi": 30,
            "name": "F#1",
            "ticks": 21696,
            "time": 42.375,
            "velocity": 0.3937007874015748
          },
          {
            "duration": 0.1875,
            "durationTicks": 96,
            "midi": 69,
            "name": "A4",
            "ticks": 21696,
            "time": 42.375,
            "velocity": 0.3937007874015748
          },
          {
            "duration": 0.1875,
            "durationTicks": 96,
            "midi": 57,
            "name": "A3",
            "ticks": 21696,
            "time": 42.375,
            "velocity": 0.3937007874015748
          },
          {
            "duration": 0.1875,
            "durationTicks": 96,
            "midi": 69,
            "name": "A4",
            "ticks": 21792,
            "time": 42.5625,
            "velocity": 0.3937007874015748
          },
          {
            "duration": 0.1875,
            "durationTicks": 96,
            "midi": 57,
            "name": "A3",
            "ticks": 21792,
            "time": 42.5625,
            "velocity": 0.3937007874015748
          },
          {
            "duration": 0.1875,
            "durationTicks": 96,
            "midi": 42,
            "name": "F#2",
            "ticks": 21792,
            "time": 42.5625,
            "velocity": 0.3937007874015748
          },
          {
            "duration": 0.1875,
            "durationTicks": 96,
            "midi": 30,
            "name": "F#1",
            "ticks": 21792,
            "time": 42.5625,
            "velocity": 0.3937007874015748
          },
          {
            "duration": 0.1875,
            "durationTicks": 96,
            "midi": 30,
            "name": "F#1",
            "ticks": 21888,
            "time": 42.75,
            "velocity": 0.3937007874015748
          },
          {
            "duration": 0.1875,
            "durationTicks": 96,
            "midi": 66,
            "name": "F#4",
            "ticks": 21888,
            "time": 42.75,
            "velocity": 0.3937007874015748
          },
          {
            "duration": 0.1875,
            "durationTicks": 96,
            "midi": 54,
            "name": "F#3",
            "ticks": 21888,
            "time": 42.75,
            "velocity": 0.3937007874015748
          },
          {
            "duration": 0.1875,
            "durationTicks": 96,
            "midi": 30,
            "name": "F#1",
            "ticks": 21984,
            "time": 42.9375,
            "velocity": 0.3937007874015748
          },
          {
            "duration": 0.1875,
            "durationTicks": 96,
            "midi": 42,
            "name": "F#2",
            "ticks": 21984,
            "time": 42.9375,
            "velocity": 0.3937007874015748
          },
          {
            "duration": 0.1875,
            "durationTicks": 96,
            "midi": 66,
            "name": "F#4",
            "ticks": 21984,
            "time": 42.9375,
            "velocity": 0.3937007874015748
          },
          {
            "duration": 0.1875,
            "durationTicks": 96,
            "midi": 54,
            "name": "F#3",
            "ticks": 21984,
            "time": 42.9375,
            "velocity": 0.3937007874015748
          },
          {
            "duration": 0.1875,
            "durationTicks": 96,
            "midi": 33,
            "name": "A1",
            "ticks": 22080,
            "time": 43.125,
            "velocity": 0.3937007874015748
          },
          {
            "duration": 0.1875,
            "durationTicks": 96,
            "midi": 61,
            "name": "C#4",
            "ticks": 22080,
            "time": 43.125,
            "velocity": 0.3937007874015748
          },
          {
            "duration": 0.1875,
            "durationTicks": 96,
            "midi": 45,
            "name": "A2",
            "ticks": 22080,
            "time": 43.125,
            "velocity": 0.3937007874015748
          },
          {
            "duration": 0.1875,
            "durationTicks": 96,
            "midi": 49,
            "name": "C#3",
            "ticks": 22080,
            "time": 43.125,
            "velocity": 0.3937007874015748
          },
          {
            "duration": 0.1875,
            "durationTicks": 96,
            "midi": 32,
            "name": "G#1",
            "ticks": 22176,
            "time": 43.3125,
            "velocity": 0.3937007874015748
          },
          {
            "duration": 0.1875,
            "durationTicks": 96,
            "midi": 61,
            "name": "C#4",
            "ticks": 22176,
            "time": 43.3125,
            "velocity": 0.3937007874015748
          },
          {
            "duration": 0.1875,
            "durationTicks": 96,
            "midi": 49,
            "name": "C#3",
            "ticks": 22176,
            "time": 43.3125,
            "velocity": 0.3937007874015748
          },
          {
            "duration": 0.1875,
            "durationTicks": 96,
            "midi": 30,
            "name": "F#1",
            "ticks": 22272,
            "time": 43.5,
            "velocity": 0.3937007874015748
          },
          {
            "duration": 0.1875,
            "durationTicks": 96,
            "midi": 42,
            "name": "F#2",
            "ticks": 22272,
            "time": 43.5,
            "velocity": 0.3937007874015748
          },
          {
            "duration": 0.1875,
            "durationTicks": 96,
            "midi": 61,
            "name": "C#4",
            "ticks": 22272,
            "time": 43.5,
            "velocity": 0.3937007874015748
          },
          {
            "duration": 0.1875,
            "durationTicks": 96,
            "midi": 49,
            "name": "C#3",
            "ticks": 22272,
            "time": 43.5,
            "velocity": 0.3937007874015748
          },
          {
            "duration": 0.1875,
            "durationTicks": 96,
            "midi": 49,
            "name": "C#3",
            "ticks": 22368,
            "time": 43.6875,
            "velocity": 0.3937007874015748
          },
          {
            "duration": 0.1875,
            "durationTicks": 96,
            "midi": 61,
            "name": "C#4",
            "ticks": 22368,
            "time": 43.6875,
            "velocity": 0.3937007874015748
          },
          {
            "duration": 0.1875,
            "durationTicks": 96,
            "midi": 30,
            "name": "F#1",
            "ticks": 22368,
            "time": 43.6875,
            "velocity": 0.3937007874015748
          },
          {
            "duration": 0.1875,
            "durationTicks": 96,
            "midi": 30,
            "name": "F#1",
            "ticks": 22464,
            "time": 43.875,
            "velocity": 0.3937007874015748
          },
          {
            "duration": 0.1875,
            "durationTicks": 96,
            "midi": 61,
            "name": "C#4",
            "ticks": 22464,
            "time": 43.875,
            "velocity": 0.3937007874015748
          },
          {
            "duration": 0.1875,
            "durationTicks": 96,
            "midi": 49,
            "name": "C#3",
            "ticks": 22464,
            "time": 43.875,
            "velocity": 0.3937007874015748
          },
          {
            "duration": 0.1875,
            "durationTicks": 96,
            "midi": 49,
            "name": "C#3",
            "ticks": 22560,
            "time": 44.0625,
            "velocity": 0.3937007874015748
          },
          {
            "duration": 0.1875,
            "durationTicks": 96,
            "midi": 30,
            "name": "F#1",
            "ticks": 22560,
            "time": 44.0625,
            "velocity": 0.3937007874015748
          },
          {
            "duration": 0.1875,
            "durationTicks": 96,
            "midi": 42,
            "name": "F#2",
            "ticks": 22560,
            "time": 44.0625,
            "velocity": 0.3937007874015748
          },
          {
            "duration": 0.1875,
            "durationTicks": 96,
            "midi": 61,
            "name": "C#4",
            "ticks": 22560,
            "time": 44.0625,
            "velocity": 0.3937007874015748
          },
          {
            "duration": 0.1875,
            "durationTicks": 96,
            "midi": 30,
            "name": "F#1",
            "ticks": 22656,
            "time": 44.25,
            "velocity": 0.3937007874015748
          },
          {
            "duration": 0.1875,
            "durationTicks": 96,
            "midi": 61,
            "name": "C#4",
            "ticks": 22656,
            "time": 44.25,
            "velocity": 0.3937007874015748
          },
          {
            "duration": 0.1875,
            "durationTicks": 96,
            "midi": 49,
            "name": "C#3",
            "ticks": 22656,
            "time": 44.25,
            "velocity": 0.3937007874015748
          },
          {
            "duration": 0.1875,
            "durationTicks": 96,
            "midi": 54,
            "name": "F#3",
            "ticks": 22752,
            "time": 44.4375,
            "velocity": 0.3937007874015748
          },
          {
            "duration": 0.1875,
            "durationTicks": 96,
            "midi": 30,
            "name": "F#1",
            "ticks": 22752,
            "time": 44.4375,
            "velocity": 0.3937007874015748
          },
          {
            "duration": 0.1875,
            "durationTicks": 96,
            "midi": 42,
            "name": "F#2",
            "ticks": 22752,
            "time": 44.4375,
            "velocity": 0.3937007874015748
          },
          {
            "duration": 0.1875,
            "durationTicks": 96,
            "midi": 32,
            "name": "G#1",
            "ticks": 22848,
            "time": 44.625,
            "velocity": 0.3937007874015748
          },
          {
            "duration": 0.1875,
            "durationTicks": 96,
            "midi": 42,
            "name": "F#2",
            "ticks": 22848,
            "time": 44.625,
            "velocity": 0.3937007874015748
          },
          {
            "duration": 0.1875,
            "durationTicks": 96,
            "midi": 54,
            "name": "F#3",
            "ticks": 22848,
            "time": 44.625,
            "velocity": 0.3937007874015748
          },
          {
            "duration": 0.1875,
            "durationTicks": 96,
            "midi": 44,
            "name": "G#2",
            "ticks": 22848,
            "time": 44.625,
            "velocity": 0.3937007874015748
          },
          {
            "duration": 0.1875,
            "durationTicks": 96,
            "midi": 42,
            "name": "F#2",
            "ticks": 22944,
            "time": 44.8125,
            "velocity": 0.3937007874015748
          },
          {
            "duration": 0.1875,
            "durationTicks": 96,
            "midi": 45,
            "name": "A2",
            "ticks": 22944,
            "time": 44.8125,
            "velocity": 0.3937007874015748
          },
          {
            "duration": 0.1875,
            "durationTicks": 96,
            "midi": 33,
            "name": "A1",
            "ticks": 22944,
            "time": 44.8125,
            "velocity": 0.3937007874015748
          },
          {
            "duration": 0.1875,
            "durationTicks": 96,
            "midi": 54,
            "name": "F#3",
            "ticks": 22944,
            "time": 44.8125,
            "velocity": 0.3937007874015748
          },
          {
            "duration": 0.1875,
            "durationTicks": 96,
            "midi": 45,
            "name": "A2",
            "ticks": 23040,
            "time": 45,
            "velocity": 0.3937007874015748
          },
          {
            "duration": 0.1875,
            "durationTicks": 96,
            "midi": 47,
            "name": "B2",
            "ticks": 23040,
            "time": 45,
            "velocity": 0.3937007874015748
          },
          {
            "duration": 0.1875,
            "durationTicks": 96,
            "midi": 35,
            "name": "B1",
            "ticks": 23040,
            "time": 45,
            "velocity": 0.3937007874015748
          },
          {
            "duration": 0.1875,
            "durationTicks": 96,
            "midi": 57,
            "name": "A3",
            "ticks": 23040,
            "time": 45,
            "velocity": 0.3937007874015748
          },
          {
            "duration": 0.1875,
            "durationTicks": 96,
            "midi": 57,
            "name": "A3",
            "ticks": 23136,
            "time": 45.1875,
            "velocity": 0.3937007874015748
          },
          {
            "duration": 0.1875,
            "durationTicks": 96,
            "midi": 45,
            "name": "A2",
            "ticks": 23136,
            "time": 45.1875,
            "velocity": 0.3937007874015748
          },
          {
            "duration": 0.1875,
            "durationTicks": 96,
            "midi": 35,
            "name": "B1",
            "ticks": 23136,
            "time": 45.1875,
            "velocity": 0.3937007874015748
          },
          {
            "duration": 0.1875,
            "durationTicks": 96,
            "midi": 57,
            "name": "A3",
            "ticks": 23232,
            "time": 45.375,
            "velocity": 0.3937007874015748
          },
          {
            "duration": 0.1875,
            "durationTicks": 96,
            "midi": 35,
            "name": "B1",
            "ticks": 23232,
            "time": 45.375,
            "velocity": 0.3937007874015748
          },
          {
            "duration": 0.1875,
            "durationTicks": 96,
            "midi": 45,
            "name": "A2",
            "ticks": 23232,
            "time": 45.375,
            "velocity": 0.3937007874015748
          },
          {
            "duration": 0.1875,
            "durationTicks": 96,
            "midi": 47,
            "name": "B2",
            "ticks": 23328,
            "time": 45.5625,
            "velocity": 0.3937007874015748
          },
          {
            "duration": 0.1875,
            "durationTicks": 96,
            "midi": 59,
            "name": "B3",
            "ticks": 23328,
            "time": 45.5625,
            "velocity": 0.3937007874015748
          },
          {
            "duration": 0.1875,
            "durationTicks": 96,
            "midi": 35,
            "name": "B1",
            "ticks": 23328,
            "time": 45.5625,
            "velocity": 0.3937007874015748
          },
          {
            "duration": 0.1875,
            "durationTicks": 96,
            "midi": 59,
            "name": "B3",
            "ticks": 23424,
            "time": 45.75,
            "velocity": 0.3937007874015748
          },
          {
            "duration": 0.1875,
            "durationTicks": 96,
            "midi": 35,
            "name": "B1",
            "ticks": 23424,
            "time": 45.75,
            "velocity": 0.3937007874015748
          },
          {
            "duration": 0.1875,
            "durationTicks": 96,
            "midi": 47,
            "name": "B2",
            "ticks": 23424,
            "time": 45.75,
            "velocity": 0.3937007874015748
          },
          {
            "duration": 0.1875,
            "durationTicks": 96,
            "midi": 59,
            "name": "B3",
            "ticks": 23520,
            "time": 45.9375,
            "velocity": 0.3937007874015748
          },
          {
            "duration": 0.1875,
            "durationTicks": 96,
            "midi": 47,
            "name": "B2",
            "ticks": 23520,
            "time": 45.9375,
            "velocity": 0.3937007874015748
          },
          {
            "duration": 0.1875,
            "durationTicks": 96,
            "midi": 47,
            "name": "B2",
            "ticks": 23520,
            "time": 45.9375,
            "velocity": 0.3937007874015748
          },
          {
            "duration": 0.1875,
            "durationTicks": 96,
            "midi": 35,
            "name": "B1",
            "ticks": 23520,
            "time": 45.9375,
            "velocity": 0.3937007874015748
          },
          {
            "duration": 0.1875,
            "durationTicks": 96,
            "midi": 47,
            "name": "B2",
            "ticks": 23616,
            "time": 46.125,
            "velocity": 0.3937007874015748
          },
          {
            "duration": 0.1875,
            "durationTicks": 96,
            "midi": 35,
            "name": "B1",
            "ticks": 23616,
            "time": 46.125,
            "velocity": 0.3937007874015748
          },
          {
            "duration": 0.1875,
            "durationTicks": 96,
            "midi": 59,
            "name": "B3",
            "ticks": 23616,
            "time": 46.125,
            "velocity": 0.3937007874015748
          },
          {
            "duration": 0.1875,
            "durationTicks": 96,
            "midi": 47,
            "name": "B2",
            "ticks": 23712,
            "time": 46.3125,
            "velocity": 0.3937007874015748
          },
          {
            "duration": 0.1875,
            "durationTicks": 96,
            "midi": 35,
            "name": "B1",
            "ticks": 23712,
            "time": 46.3125,
            "velocity": 0.3937007874015748
          },
          {
            "duration": 0.1875,
            "durationTicks": 96,
            "midi": 28,
            "name": "E1",
            "ticks": 23808,
            "time": 46.5,
            "velocity": 0.3937007874015748
          },
          {
            "duration": 0.1875,
            "durationTicks": 96,
            "midi": 40,
            "name": "E2",
            "ticks": 23808,
            "time": 46.5,
            "velocity": 0.3937007874015748
          },
          {
            "duration": 0.1875,
            "durationTicks": 96,
            "midi": 64,
            "name": "E4",
            "ticks": 23808,
            "time": 46.5,
            "velocity": 0.3937007874015748
          },
          {
            "duration": 0.1875,
            "durationTicks": 96,
            "midi": 52,
            "name": "E3",
            "ticks": 23808,
            "time": 46.5,
            "velocity": 0.3937007874015748
          },
          {
            "duration": 0.1875,
            "durationTicks": 96,
            "midi": 28,
            "name": "E1",
            "ticks": 23904,
            "time": 46.6875,
            "velocity": 0.3937007874015748
          },
          {
            "duration": 0.1875,
            "durationTicks": 96,
            "midi": 64,
            "name": "E4",
            "ticks": 23904,
            "time": 46.6875,
            "velocity": 0.3937007874015748
          },
          {
            "duration": 0.1875,
            "durationTicks": 96,
            "midi": 52,
            "name": "E3",
            "ticks": 23904,
            "time": 46.6875,
            "velocity": 0.3937007874015748
          },
          {
            "duration": 0.1875,
            "durationTicks": 96,
            "midi": 64,
            "name": "E4",
            "ticks": 24000,
            "time": 46.875,
            "velocity": 0.3937007874015748
          },
          {
            "duration": 0.1875,
            "durationTicks": 96,
            "midi": 28,
            "name": "E1",
            "ticks": 24000,
            "time": 46.875,
            "velocity": 0.3937007874015748
          },
          {
            "duration": 0.1875,
            "durationTicks": 96,
            "midi": 52,
            "name": "E3",
            "ticks": 24000,
            "time": 46.875,
            "velocity": 0.3937007874015748
          },
          {
            "duration": 0.1875,
            "durationTicks": 96,
            "midi": 40,
            "name": "E2",
            "ticks": 24096,
            "time": 47.0625,
            "velocity": 0.3937007874015748
          },
          {
            "duration": 0.1875,
            "durationTicks": 96,
            "midi": 52,
            "name": "E3",
            "ticks": 24096,
            "time": 47.0625,
            "velocity": 0.3937007874015748
          },
          {
            "duration": 0.1875,
            "durationTicks": 96,
            "midi": 64,
            "name": "E4",
            "ticks": 24096,
            "time": 47.0625,
            "velocity": 0.3937007874015748
          },
          {
            "duration": 0.1875,
            "durationTicks": 96,
            "midi": 28,
            "name": "E1",
            "ticks": 24096,
            "time": 47.0625,
            "velocity": 0.3937007874015748
          },
          {
            "duration": 0.1875,
            "durationTicks": 96,
            "midi": 28,
            "name": "E1",
            "ticks": 24192,
            "time": 47.25,
            "velocity": 0.3937007874015748
          },
          {
            "duration": 0.1875,
            "durationTicks": 96,
            "midi": 66,
            "name": "F#4",
            "ticks": 24192,
            "time": 47.25,
            "velocity": 0.3937007874015748
          },
          {
            "duration": 0.1875,
            "durationTicks": 96,
            "midi": 54,
            "name": "F#3",
            "ticks": 24192,
            "time": 47.25,
            "velocity": 0.3937007874015748
          },
          {
            "duration": 0.1875,
            "durationTicks": 96,
            "midi": 54,
            "name": "F#3",
            "ticks": 24288,
            "time": 47.4375,
            "velocity": 0.3937007874015748
          },
          {
            "duration": 0.1875,
            "durationTicks": 96,
            "midi": 66,
            "name": "F#4",
            "ticks": 24288,
            "time": 47.4375,
            "velocity": 0.3937007874015748
          },
          {
            "duration": 0.1875,
            "durationTicks": 96,
            "midi": 28,
            "name": "E1",
            "ticks": 24288,
            "time": 47.4375,
            "velocity": 0.3937007874015748
          },
          {
            "duration": 0.1875,
            "durationTicks": 96,
            "midi": 54,
            "name": "F#3",
            "ticks": 24384,
            "time": 47.625,
            "velocity": 0.3937007874015748
          },
          {
            "duration": 0.1875,
            "durationTicks": 96,
            "midi": 66,
            "name": "F#4",
            "ticks": 24384,
            "time": 47.625,
            "velocity": 0.3937007874015748
          },
          {
            "duration": 0.1875,
            "durationTicks": 96,
            "midi": 40,
            "name": "E2",
            "ticks": 24384,
            "time": 47.625,
            "velocity": 0.3937007874015748
          },
          {
            "duration": 0.1875,
            "durationTicks": 96,
            "midi": 28,
            "name": "E1",
            "ticks": 24384,
            "time": 47.625,
            "velocity": 0.3937007874015748
          },
          {
            "duration": 0.1875,
            "durationTicks": 96,
            "midi": 29,
            "name": "F1",
            "ticks": 24480,
            "time": 47.8125,
            "velocity": 0.3937007874015748
          },
          {
            "duration": 0.1875,
            "durationTicks": 96,
            "midi": 41,
            "name": "F2",
            "ticks": 24480,
            "time": 47.8125,
            "velocity": 0.3937007874015748
          },
          {
            "duration": 0.1875,
            "durationTicks": 96,
            "midi": 66,
            "name": "F#4",
            "ticks": 24576,
            "time": 48,
            "velocity": 0.3937007874015748
          },
          {
            "duration": 0.1875,
            "durationTicks": 96,
            "midi": 30,
            "name": "F#1",
            "ticks": 24576,
            "time": 48,
            "velocity": 0.3937007874015748
          },
          {
            "duration": 0.1875,
            "durationTicks": 96,
            "midi": 42,
            "name": "F#2",
            "ticks": 24576,
            "time": 48,
            "velocity": 0.3937007874015748
          },
          {
            "duration": 0.1875,
            "durationTicks": 96,
            "midi": 54,
            "name": "F#3",
            "ticks": 24576,
            "time": 48,
            "velocity": 0.3937007874015748
          },
          {
            "duration": 0.1875,
            "durationTicks": 96,
            "midi": 54,
            "name": "F#3",
            "ticks": 24672,
            "time": 48.1875,
            "velocity": 0.3937007874015748
          },
          {
            "duration": 0.1875,
            "durationTicks": 96,
            "midi": 66,
            "name": "F#4",
            "ticks": 24672,
            "time": 48.1875,
            "velocity": 0.3937007874015748
          },
          {
            "duration": 0.1875,
            "durationTicks": 96,
            "midi": 30,
            "name": "F#1",
            "ticks": 24672,
            "time": 48.1875,
            "velocity": 0.3937007874015748
          },
          {
            "duration": 0.1875,
            "durationTicks": 96,
            "midi": 30,
            "name": "F#1",
            "ticks": 24768,
            "time": 48.375,
            "velocity": 0.3937007874015748
          },
          {
            "duration": 0.1875,
            "durationTicks": 96,
            "midi": 54,
            "name": "F#3",
            "ticks": 24768,
            "time": 48.375,
            "velocity": 0.3937007874015748
          },
          {
            "duration": 0.1875,
            "durationTicks": 96,
            "midi": 66,
            "name": "F#4",
            "ticks": 24768,
            "time": 48.375,
            "velocity": 0.3937007874015748
          },
          {
            "duration": 0.1875,
            "durationTicks": 96,
            "midi": 54,
            "name": "F#3",
            "ticks": 24864,
            "time": 48.5625,
            "velocity": 0.3937007874015748
          },
          {
            "duration": 0.1875,
            "durationTicks": 96,
            "midi": 30,
            "name": "F#1",
            "ticks": 24864,
            "time": 48.5625,
            "velocity": 0.3937007874015748
          },
          {
            "duration": 0.1875,
            "durationTicks": 96,
            "midi": 42,
            "name": "F#2",
            "ticks": 24864,
            "time": 48.5625,
            "velocity": 0.3937007874015748
          },
          {
            "duration": 0.1875,
            "durationTicks": 96,
            "midi": 66,
            "name": "F#4",
            "ticks": 24864,
            "time": 48.5625,
            "velocity": 0.3937007874015748
          },
          {
            "duration": 0.1875,
            "durationTicks": 96,
            "midi": 30,
            "name": "F#1",
            "ticks": 24960,
            "time": 48.75,
            "velocity": 0.3937007874015748
          },
          {
            "duration": 0.1875,
            "durationTicks": 96,
            "midi": 54,
            "name": "F#3",
            "ticks": 24960,
            "time": 48.75,
            "velocity": 0.3937007874015748
          },
          {
            "duration": 0.1875,
            "durationTicks": 96,
            "midi": 66,
            "name": "F#4",
            "ticks": 24960,
            "time": 48.75,
            "velocity": 0.3937007874015748
          },
          {
            "duration": 0.1875,
            "durationTicks": 96,
            "midi": 66,
            "name": "F#4",
            "ticks": 25056,
            "time": 48.9375,
            "velocity": 0.3937007874015748
          },
          {
            "duration": 0.1875,
            "durationTicks": 96,
            "midi": 54,
            "name": "F#3",
            "ticks": 25056,
            "time": 48.9375,
            "velocity": 0.3937007874015748
          },
          {
            "duration": 0.1875,
            "durationTicks": 96,
            "midi": 30,
            "name": "F#1",
            "ticks": 25056,
            "time": 48.9375,
            "velocity": 0.3937007874015748
          },
          {
            "duration": 0.1875,
            "durationTicks": 96,
            "midi": 42,
            "name": "F#2",
            "ticks": 25056,
            "time": 48.9375,
            "velocity": 0.3937007874015748
          },
          {
            "duration": 0.1875,
            "durationTicks": 96,
            "midi": 49,
            "name": "C#3",
            "ticks": 25152,
            "time": 49.125,
            "velocity": 0.3937007874015748
          },
          {
            "duration": 0.1875,
            "durationTicks": 96,
            "midi": 33,
            "name": "A1",
            "ticks": 25152,
            "time": 49.125,
            "velocity": 0.3937007874015748
          },
          {
            "duration": 0.1875,
            "durationTicks": 96,
            "midi": 45,
            "name": "A2",
            "ticks": 25152,
            "time": 49.125,
            "velocity": 0.3937007874015748
          },
          {
            "duration": 0.1875,
            "durationTicks": 96,
            "midi": 61,
            "name": "C#4",
            "ticks": 25152,
            "time": 49.125,
            "velocity": 0.3937007874015748
          },
          {
            "duration": 0.1875,
            "durationTicks": 96,
            "midi": 61,
            "name": "C#4",
            "ticks": 25248,
            "time": 49.3125,
            "velocity": 0.3937007874015748
          },
          {
            "duration": 0.1875,
            "durationTicks": 96,
            "midi": 32,
            "name": "G#1",
            "ticks": 25248,
            "time": 49.3125,
            "velocity": 0.3937007874015748
          },
          {
            "duration": 0.1875,
            "durationTicks": 96,
            "midi": 49,
            "name": "C#3",
            "ticks": 25248,
            "time": 49.3125,
            "velocity": 0.3937007874015748
          },
          {
            "duration": 0.1875,
            "durationTicks": 96,
            "midi": 42,
            "name": "F#2",
            "ticks": 25344,
            "time": 49.5,
            "velocity": 0.3937007874015748
          },
          {
            "duration": 0.1875,
            "durationTicks": 96,
            "midi": 66,
            "name": "F#4",
            "ticks": 25344,
            "time": 49.5,
            "velocity": 0.3937007874015748
          },
          {
            "duration": 0.1875,
            "durationTicks": 96,
            "midi": 54,
            "name": "F#3",
            "ticks": 25344,
            "time": 49.5,
            "velocity": 0.3937007874015748
          },
          {
            "duration": 0.1875,
            "durationTicks": 96,
            "midi": 30,
            "name": "F#1",
            "ticks": 25344,
            "time": 49.5,
            "velocity": 0.3937007874015748
          },
          {
            "duration": 0.1875,
            "durationTicks": 96,
            "midi": 66,
            "name": "F#4",
            "ticks": 25440,
            "time": 49.6875,
            "velocity": 0.3937007874015748
          },
          {
            "duration": 0.1875,
            "durationTicks": 96,
            "midi": 30,
            "name": "F#1",
            "ticks": 25440,
            "time": 49.6875,
            "velocity": 0.3937007874015748
          },
          {
            "duration": 0.1875,
            "durationTicks": 96,
            "midi": 54,
            "name": "F#3",
            "ticks": 25440,
            "time": 49.6875,
            "velocity": 0.3937007874015748
          },
          {
            "duration": 0.1875,
            "durationTicks": 96,
            "midi": 30,
            "name": "F#1",
            "ticks": 25536,
            "time": 49.875,
            "velocity": 0.3937007874015748
          },
          {
            "duration": 0.1875,
            "durationTicks": 96,
            "midi": 54,
            "name": "F#3",
            "ticks": 25536,
            "time": 49.875,
            "velocity": 0.3937007874015748
          },
          {
            "duration": 0.1875,
            "durationTicks": 96,
            "midi": 44,
            "name": "G#2",
            "ticks": 25536,
            "time": 49.875,
            "velocity": 0.3937007874015748
          },
          {
            "duration": 0.1875,
            "durationTicks": 96,
            "midi": 66,
            "name": "F#4",
            "ticks": 25536,
            "time": 49.875,
            "velocity": 0.3937007874015748
          },
          {
            "duration": 0.1875,
            "durationTicks": 96,
            "midi": 44,
            "name": "G#2",
            "ticks": 25632,
            "time": 50.0625,
            "velocity": 0.3937007874015748
          },
          {
            "duration": 0.1875,
            "durationTicks": 96,
            "midi": 54,
            "name": "F#3",
            "ticks": 25632,
            "time": 50.0625,
            "velocity": 0.3937007874015748
          },
          {
            "duration": 0.1875,
            "durationTicks": 96,
            "midi": 42,
            "name": "F#2",
            "ticks": 25632,
            "time": 50.0625,
            "velocity": 0.3937007874015748
          },
          {
            "duration": 0.1875,
            "durationTicks": 96,
            "midi": 30,
            "name": "F#1",
            "ticks": 25632,
            "time": 50.0625,
            "velocity": 0.3937007874015748
          },
          {
            "duration": 0.1875,
            "durationTicks": 96,
            "midi": 30,
            "name": "F#1",
            "ticks": 25728,
            "time": 50.25,
            "velocity": 0.3937007874015748
          },
          {
            "duration": 0.1875,
            "durationTicks": 96,
            "midi": 42,
            "name": "F#2",
            "ticks": 25728,
            "time": 50.25,
            "velocity": 0.3937007874015748
          },
          {
            "duration": 0.1875,
            "durationTicks": 96,
            "midi": 54,
            "name": "F#3",
            "ticks": 25728,
            "time": 50.25,
            "velocity": 0.3937007874015748
          },
          {
            "duration": 0.1875,
            "durationTicks": 96,
            "midi": 42,
            "name": "F#2",
            "ticks": 25824,
            "time": 50.4375,
            "velocity": 0.3937007874015748
          },
          {
            "duration": 0.1875,
            "durationTicks": 96,
            "midi": 30,
            "name": "F#1",
            "ticks": 25824,
            "time": 50.4375,
            "velocity": 0.3937007874015748
          },
          {
            "duration": 0.1875,
            "durationTicks": 96,
            "midi": 54,
            "name": "F#3",
            "ticks": 25824,
            "time": 50.4375,
            "velocity": 0.3937007874015748
          },
          {
            "duration": 0.1875,
            "durationTicks": 96,
            "midi": 32,
            "name": "G#1",
            "ticks": 25920,
            "time": 50.625,
            "velocity": 0.3937007874015748
          },
          {
            "duration": 0.1875,
            "durationTicks": 96,
            "midi": 56,
            "name": "G#3",
            "ticks": 25920,
            "time": 50.625,
            "velocity": 0.3937007874015748
          },
          {
            "duration": 0.1875,
            "durationTicks": 96,
            "midi": 44,
            "name": "G#2",
            "ticks": 25920,
            "time": 50.625,
            "velocity": 0.3937007874015748
          },
          {
            "duration": 0.1875,
            "durationTicks": 96,
            "midi": 33,
            "name": "A1",
            "ticks": 26016,
            "time": 50.8125,
            "velocity": 0.3937007874015748
          },
          {
            "duration": 0.1875,
            "durationTicks": 96,
            "midi": 57,
            "name": "A3",
            "ticks": 26016,
            "time": 50.8125,
            "velocity": 0.3937007874015748
          },
          {
            "duration": 0.1875,
            "durationTicks": 96,
            "midi": 45,
            "name": "A2",
            "ticks": 26016,
            "time": 50.8125,
            "velocity": 0.3937007874015748
          },
          {
            "duration": 0.1875,
            "durationTicks": 96,
            "midi": 59,
            "name": "B3",
            "ticks": 26112,
            "time": 51,
            "velocity": 0.3937007874015748
          },
          {
            "duration": 0.1875,
            "durationTicks": 96,
            "midi": 47,
            "name": "B2",
            "ticks": 26112,
            "time": 51,
            "velocity": 0.3937007874015748
          },
          {
            "duration": 0.1875,
            "durationTicks": 96,
            "midi": 35,
            "name": "B1",
            "ticks": 26112,
            "time": 51,
            "velocity": 0.3937007874015748
          },
          {
            "duration": 0.1875,
            "durationTicks": 96,
            "midi": 35,
            "name": "B1",
            "ticks": 26208,
            "time": 51.1875,
            "velocity": 0.3937007874015748
          },
          {
            "duration": 0.1875,
            "durationTicks": 96,
            "midi": 59,
            "name": "B3",
            "ticks": 26208,
            "time": 51.1875,
            "velocity": 0.3937007874015748
          },
          {
            "duration": 0.1875,
            "durationTicks": 96,
            "midi": 59,
            "name": "B3",
            "ticks": 26304,
            "time": 51.375,
            "velocity": 0.3937007874015748
          },
          {
            "duration": 0.1875,
            "durationTicks": 96,
            "midi": 35,
            "name": "B1",
            "ticks": 26304,
            "time": 51.375,
            "velocity": 0.3937007874015748
          },
          {
            "duration": 0.1875,
            "durationTicks": 96,
            "midi": 50,
            "name": "D3",
            "ticks": 26400,
            "time": 51.5625,
            "velocity": 0.3937007874015748
          },
          {
            "duration": 0.1875,
            "durationTicks": 96,
            "midi": 62,
            "name": "D4",
            "ticks": 26400,
            "time": 51.5625,
            "velocity": 0.3937007874015748
          },
          {
            "duration": 0.1875,
            "durationTicks": 96,
            "midi": 47,
            "name": "B2",
            "ticks": 26400,
            "time": 51.5625,
            "velocity": 0.3937007874015748
          },
          {
            "duration": 0.1875,
            "durationTicks": 96,
            "midi": 35,
            "name": "B1",
            "ticks": 26400,
            "time": 51.5625,
            "velocity": 0.3937007874015748
          },
          {
            "duration": 0.1875,
            "durationTicks": 96,
            "midi": 50,
            "name": "D3",
            "ticks": 26496,
            "time": 51.75,
            "velocity": 0.3937007874015748
          },
          {
            "duration": 0.1875,
            "durationTicks": 96,
            "midi": 62,
            "name": "D4",
            "ticks": 26496,
            "time": 51.75,
            "velocity": 0.3937007874015748
          },
          {
            "duration": 0.1875,
            "durationTicks": 96,
            "midi": 35,
            "name": "B1",
            "ticks": 26496,
            "time": 51.75,
            "velocity": 0.3937007874015748
          },
          {
            "duration": 0.1875,
            "durationTicks": 96,
            "midi": 50,
            "name": "D3",
            "ticks": 26592,
            "time": 51.9375,
            "velocity": 0.3937007874015748
          },
          {
            "duration": 0.1875,
            "durationTicks": 96,
            "midi": 47,
            "name": "B2",
            "ticks": 26592,
            "time": 51.9375,
            "velocity": 0.3937007874015748
          },
          {
            "duration": 0.1875,
            "durationTicks": 96,
            "midi": 62,
            "name": "D4",
            "ticks": 26592,
            "time": 51.9375,
            "velocity": 0.3937007874015748
          },
          {
            "duration": 0.1875,
            "durationTicks": 96,
            "midi": 35,
            "name": "B1",
            "ticks": 26592,
            "time": 51.9375,
            "velocity": 0.3937007874015748
          },
          {
            "duration": 0.1875,
            "durationTicks": 96,
            "midi": 35,
            "name": "B1",
            "ticks": 26688,
            "time": 52.125,
            "velocity": 0.3937007874015748
          },
          {
            "duration": 0.1875,
            "durationTicks": 96,
            "midi": 47,
            "name": "B2",
            "ticks": 26688,
            "time": 52.125,
            "velocity": 0.3937007874015748
          },
          {
            "duration": 0.1875,
            "durationTicks": 96,
            "midi": 35,
            "name": "B1",
            "ticks": 26784,
            "time": 52.3125,
            "velocity": 0.3937007874015748
          },
          {
            "duration": 0.1875,
            "durationTicks": 96,
            "midi": 28,
            "name": "E1",
            "ticks": 26880,
            "time": 52.5,
            "velocity": 0.3937007874015748
          },
          {
            "duration": 0.1875,
            "durationTicks": 96,
            "midi": 52,
            "name": "E3",
            "ticks": 26880,
            "time": 52.5,
            "velocity": 0.3937007874015748
          },
          {
            "duration": 0.1875,
            "durationTicks": 96,
            "midi": 64,
            "name": "E4",
            "ticks": 26880,
            "time": 52.5,
            "velocity": 0.3937007874015748
          },
          {
            "duration": 0.1875,
            "durationTicks": 96,
            "midi": 40,
            "name": "E2",
            "ticks": 26880,
            "time": 52.5,
            "velocity": 0.3937007874015748
          },
          {
            "duration": 0.1875,
            "durationTicks": 96,
            "midi": 64,
            "name": "E4",
            "ticks": 26976,
            "time": 52.6875,
            "velocity": 0.3937007874015748
          },
          {
            "duration": 0.1875,
            "durationTicks": 96,
            "midi": 52,
            "name": "E3",
            "ticks": 26976,
            "time": 52.6875,
            "velocity": 0.3937007874015748
          },
          {
            "duration": 0.1875,
            "durationTicks": 96,
            "midi": 28,
            "name": "E1",
            "ticks": 26976,
            "time": 52.6875,
            "velocity": 0.3937007874015748
          },
          {
            "duration": 0.1875,
            "durationTicks": 96,
            "midi": 28,
            "name": "E1",
            "ticks": 27072,
            "time": 52.875,
            "velocity": 0.3937007874015748
          },
          {
            "duration": 0.1875,
            "durationTicks": 96,
            "midi": 52,
            "name": "E3",
            "ticks": 27072,
            "time": 52.875,
            "velocity": 0.3937007874015748
          },
          {
            "duration": 0.1875,
            "durationTicks": 96,
            "midi": 64,
            "name": "E4",
            "ticks": 27072,
            "time": 52.875,
            "velocity": 0.3937007874015748
          },
          {
            "duration": 0.1875,
            "durationTicks": 96,
            "midi": 64,
            "name": "E4",
            "ticks": 27168,
            "time": 53.0625,
            "velocity": 0.3937007874015748
          },
          {
            "duration": 0.1875,
            "durationTicks": 96,
            "midi": 52,
            "name": "E3",
            "ticks": 27168,
            "time": 53.0625,
            "velocity": 0.3937007874015748
          },
          {
            "duration": 0.1875,
            "durationTicks": 96,
            "midi": 28,
            "name": "E1",
            "ticks": 27168,
            "time": 53.0625,
            "velocity": 0.3937007874015748
          },
          {
            "duration": 0.1875,
            "durationTicks": 96,
            "midi": 40,
            "name": "E2",
            "ticks": 27168,
            "time": 53.0625,
            "velocity": 0.3937007874015748
          },
          {
            "duration": 0.1875,
            "durationTicks": 96,
            "midi": 66,
            "name": "F#4",
            "ticks": 27264,
            "time": 53.25,
            "velocity": 0.3937007874015748
          },
          {
            "duration": 0.1875,
            "durationTicks": 96,
            "midi": 28,
            "name": "E1",
            "ticks": 27264,
            "time": 53.25,
            "velocity": 0.3937007874015748
          },
          {
            "duration": 0.1875,
            "durationTicks": 96,
            "midi": 54,
            "name": "F#3",
            "ticks": 27264,
            "time": 53.25,
            "velocity": 0.3937007874015748
          },
          {
            "duration": 0.1875,
            "durationTicks": 96,
            "midi": 66,
            "name": "F#4",
            "ticks": 27360,
            "time": 53.4375,
            "velocity": 0.3937007874015748
          },
          {
            "duration": 0.1875,
            "durationTicks": 96,
            "midi": 28,
            "name": "E1",
            "ticks": 27360,
            "time": 53.4375,
            "velocity": 0.3937007874015748
          },
          {
            "duration": 0.1875,
            "durationTicks": 96,
            "midi": 54,
            "name": "F#3",
            "ticks": 27360,
            "time": 53.4375,
            "velocity": 0.3937007874015748
          },
          {
            "duration": 0.1875,
            "durationTicks": 96,
            "midi": 28,
            "name": "E1",
            "ticks": 27456,
            "time": 53.625,
            "velocity": 0.3937007874015748
          },
          {
            "duration": 0.1875,
            "durationTicks": 96,
            "midi": 66,
            "name": "F#4",
            "ticks": 27456,
            "time": 53.625,
            "velocity": 0.3937007874015748
          },
          {
            "duration": 0.1875,
            "durationTicks": 96,
            "midi": 40,
            "name": "E2",
            "ticks": 27456,
            "time": 53.625,
            "velocity": 0.3937007874015748
          },
          {
            "duration": 0.1875,
            "durationTicks": 96,
            "midi": 54,
            "name": "F#3",
            "ticks": 27456,
            "time": 53.625,
            "velocity": 0.3937007874015748
          },
          {
            "duration": 0.1875,
            "durationTicks": 96,
            "midi": 29,
            "name": "F1",
            "ticks": 27552,
            "time": 53.8125,
            "velocity": 0.3937007874015748
          },
          {
            "duration": 0.1875,
            "durationTicks": 96,
            "midi": 41,
            "name": "F2",
            "ticks": 27552,
            "time": 53.8125,
            "velocity": 0.3937007874015748
          },
          {
            "duration": 0.1875,
            "durationTicks": 96,
            "midi": 30,
            "name": "F#1",
            "ticks": 27648,
            "time": 54,
            "velocity": 0.3937007874015748
          },
          {
            "duration": 0.1875,
            "durationTicks": 96,
            "midi": 66,
            "name": "F#4",
            "ticks": 27648,
            "time": 54,
            "velocity": 0.3937007874015748
          },
          {
            "duration": 0.1875,
            "durationTicks": 96,
            "midi": 42,
            "name": "F#2",
            "ticks": 27648,
            "time": 54,
            "velocity": 0.3937007874015748
          },
          {
            "duration": 0.1875,
            "durationTicks": 96,
            "midi": 54,
            "name": "F#3",
            "ticks": 27648,
            "time": 54,
            "velocity": 0.3937007874015748
          },
          {
            "duration": 0.1875,
            "durationTicks": 96,
            "midi": 66,
            "name": "F#4",
            "ticks": 27744,
            "time": 54.1875,
            "velocity": 0.3937007874015748
          },
          {
            "duration": 0.1875,
            "durationTicks": 96,
            "midi": 30,
            "name": "F#1",
            "ticks": 27744,
            "time": 54.1875,
            "velocity": 0.3937007874015748
          },
          {
            "duration": 0.1875,
            "durationTicks": 96,
            "midi": 54,
            "name": "F#3",
            "ticks": 27744,
            "time": 54.1875,
            "velocity": 0.3937007874015748
          },
          {
            "duration": 0.1875,
            "durationTicks": 96,
            "midi": 54,
            "name": "F#3",
            "ticks": 27840,
            "time": 54.375,
            "velocity": 0.3937007874015748
          },
          {
            "duration": 0.1875,
            "durationTicks": 96,
            "midi": 30,
            "name": "F#1",
            "ticks": 27840,
            "time": 54.375,
            "velocity": 0.3937007874015748
          },
          {
            "duration": 0.1875,
            "durationTicks": 96,
            "midi": 66,
            "name": "F#4",
            "ticks": 27840,
            "time": 54.375,
            "velocity": 0.3937007874015748
          },
          {
            "duration": 0.1875,
            "durationTicks": 96,
            "midi": 66,
            "name": "F#4",
            "ticks": 27936,
            "time": 54.5625,
            "velocity": 0.3937007874015748
          },
          {
            "duration": 0.1875,
            "durationTicks": 96,
            "midi": 54,
            "name": "F#3",
            "ticks": 27936,
            "time": 54.5625,
            "velocity": 0.3937007874015748
          },
          {
            "duration": 0.1875,
            "durationTicks": 96,
            "midi": 42,
            "name": "F#2",
            "ticks": 27936,
            "time": 54.5625,
            "velocity": 0.3937007874015748
          },
          {
            "duration": 0.1875,
            "durationTicks": 96,
            "midi": 30,
            "name": "F#1",
            "ticks": 27936,
            "time": 54.5625,
            "velocity": 0.3937007874015748
          },
          {
            "duration": 0.1875,
            "durationTicks": 96,
            "midi": 66,
            "name": "F#4",
            "ticks": 28032,
            "time": 54.75,
            "velocity": 0.3937007874015748
          },
          {
            "duration": 0.1875,
            "durationTicks": 96,
            "midi": 30,
            "name": "F#1",
            "ticks": 28032,
            "time": 54.75,
            "velocity": 0.3937007874015748
          },
          {
            "duration": 0.1875,
            "durationTicks": 96,
            "midi": 54,
            "name": "F#3",
            "ticks": 28032,
            "time": 54.75,
            "velocity": 0.3937007874015748
          },
          {
            "duration": 0.1875,
            "durationTicks": 96,
            "midi": 42,
            "name": "F#2",
            "ticks": 28128,
            "time": 54.9375,
            "velocity": 0.3937007874015748
          },
          {
            "duration": 0.1875,
            "durationTicks": 96,
            "midi": 54,
            "name": "F#3",
            "ticks": 28128,
            "time": 54.9375,
            "velocity": 0.3937007874015748
          },
          {
            "duration": 0.1875,
            "durationTicks": 96,
            "midi": 30,
            "name": "F#1",
            "ticks": 28128,
            "time": 54.9375,
            "velocity": 0.3937007874015748
          },
          {
            "duration": 0.1875,
            "durationTicks": 96,
            "midi": 66,
            "name": "F#4",
            "ticks": 28128,
            "time": 54.9375,
            "velocity": 0.3937007874015748
          },
          {
            "duration": 0.1875,
            "durationTicks": 96,
            "midi": 49,
            "name": "C#3",
            "ticks": 28224,
            "time": 55.125,
            "velocity": 0.3937007874015748
          },
          {
            "duration": 0.1875,
            "durationTicks": 96,
            "midi": 61,
            "name": "C#4",
            "ticks": 28224,
            "time": 55.125,
            "velocity": 0.3937007874015748
          },
          {
            "duration": 0.1875,
            "durationTicks": 96,
            "midi": 33,
            "name": "A1",
            "ticks": 28224,
            "time": 55.125,
            "velocity": 0.3937007874015748
          },
          {
            "duration": 0.1875,
            "durationTicks": 96,
            "midi": 45,
            "name": "A2",
            "ticks": 28224,
            "time": 55.125,
            "velocity": 0.3937007874015748
          },
          {
            "duration": 0.1875,
            "durationTicks": 96,
            "midi": 42,
            "name": "F#2",
            "ticks": 28320,
            "time": 55.3125,
            "velocity": 0.3937007874015748
          },
          {
            "duration": 0.1875,
            "durationTicks": 96,
            "midi": 61,
            "name": "C#4",
            "ticks": 28320,
            "time": 55.3125,
            "velocity": 0.3937007874015748
          },
          {
            "duration": 0.1875,
            "durationTicks": 96,
            "midi": 49,
            "name": "C#3",
            "ticks": 28320,
            "time": 55.3125,
            "velocity": 0.3937007874015748
          },
          {
            "duration": 0.1875,
            "durationTicks": 96,
            "midi": 32,
            "name": "G#1",
            "ticks": 28320,
            "time": 55.3125,
            "velocity": 0.3937007874015748
          },
          {
            "duration": 0.1875,
            "durationTicks": 96,
            "midi": 66,
            "name": "F#4",
            "ticks": 28416,
            "time": 55.5,
            "velocity": 0.3937007874015748
          },
          {
            "duration": 0.1875,
            "durationTicks": 96,
            "midi": 42,
            "name": "F#2",
            "ticks": 28416,
            "time": 55.5,
            "velocity": 0.3937007874015748
          },
          {
            "duration": 0.1875,
            "durationTicks": 96,
            "midi": 30,
            "name": "F#1",
            "ticks": 28416,
            "time": 55.5,
            "velocity": 0.3937007874015748
          },
          {
            "duration": 0.1875,
            "durationTicks": 96,
            "midi": 54,
            "name": "F#3",
            "ticks": 28416,
            "time": 55.5,
            "velocity": 0.3937007874015748
          },
          {
            "duration": 0.1875,
            "durationTicks": 96,
            "midi": 66,
            "name": "F#4",
            "ticks": 28512,
            "time": 55.6875,
            "velocity": 0.3937007874015748
          },
          {
            "duration": 0.1875,
            "durationTicks": 96,
            "midi": 30,
            "name": "F#1",
            "ticks": 28512,
            "time": 55.6875,
            "velocity": 0.3937007874015748
          },
          {
            "duration": 0.1875,
            "durationTicks": 96,
            "midi": 54,
            "name": "F#3",
            "ticks": 28512,
            "time": 55.6875,
            "velocity": 0.3937007874015748
          },
          {
            "duration": 0.1875,
            "durationTicks": 96,
            "midi": 54,
            "name": "F#3",
            "ticks": 28608,
            "time": 55.875,
            "velocity": 0.3937007874015748
          },
          {
            "duration": 0.1875,
            "durationTicks": 96,
            "midi": 66,
            "name": "F#4",
            "ticks": 28608,
            "time": 55.875,
            "velocity": 0.3937007874015748
          },
          {
            "duration": 0.1875,
            "durationTicks": 96,
            "midi": 30,
            "name": "F#1",
            "ticks": 28608,
            "time": 55.875,
            "velocity": 0.3937007874015748
          },
          {
            "duration": 0.1875,
            "durationTicks": 96,
            "midi": 30,
            "name": "F#1",
            "ticks": 28704,
            "time": 56.0625,
            "velocity": 0.3937007874015748
          },
          {
            "duration": 0.1875,
            "durationTicks": 96,
            "midi": 54,
            "name": "F#3",
            "ticks": 28704,
            "time": 56.0625,
            "velocity": 0.3937007874015748
          },
          {
            "duration": 0.1875,
            "durationTicks": 96,
            "midi": 66,
            "name": "F#4",
            "ticks": 28704,
            "time": 56.0625,
            "velocity": 0.3937007874015748
          },
          {
            "duration": 0.1875,
            "durationTicks": 96,
            "midi": 42,
            "name": "F#2",
            "ticks": 28704,
            "time": 56.0625,
            "velocity": 0.3937007874015748
          },
          {
            "duration": 0.1875,
            "durationTicks": 96,
            "midi": 66,
            "name": "F#4",
            "ticks": 28800,
            "time": 56.25,
            "velocity": 0.3937007874015748
          },
          {
            "duration": 0.1875,
            "durationTicks": 96,
            "midi": 54,
            "name": "F#3",
            "ticks": 28800,
            "time": 56.25,
            "velocity": 0.3937007874015748
          },
          {
            "duration": 0.1875,
            "durationTicks": 96,
            "midi": 30,
            "name": "F#1",
            "ticks": 28800,
            "time": 56.25,
            "velocity": 0.3937007874015748
          },
          {
            "duration": 0.1875,
            "durationTicks": 96,
            "midi": 54,
            "name": "F#3",
            "ticks": 28896,
            "time": 56.4375,
            "velocity": 0.3937007874015748
          },
          {
            "duration": 0.1875,
            "durationTicks": 96,
            "midi": 66,
            "name": "F#4",
            "ticks": 28896,
            "time": 56.4375,
            "velocity": 0.3937007874015748
          },
          {
            "duration": 0.1875,
            "durationTicks": 96,
            "midi": 30,
            "name": "F#1",
            "ticks": 28896,
            "time": 56.4375,
            "velocity": 0.3937007874015748
          },
          {
            "duration": 0.1875,
            "durationTicks": 96,
            "midi": 42,
            "name": "F#2",
            "ticks": 28896,
            "time": 56.4375,
            "velocity": 0.3937007874015748
          },
          {
            "duration": 0.1875,
            "durationTicks": 96,
            "midi": 32,
            "name": "G#1",
            "ticks": 28992,
            "time": 56.625,
            "velocity": 0.3937007874015748
          },
          {
            "duration": 0.1875,
            "durationTicks": 96,
            "midi": 44,
            "name": "G#2",
            "ticks": 28992,
            "time": 56.625,
            "velocity": 0.3937007874015748
          },
          {
            "duration": 0.1875,
            "durationTicks": 96,
            "midi": 54,
            "name": "F#3",
            "ticks": 28992,
            "time": 56.625,
            "velocity": 0.3937007874015748
          },
          {
            "duration": 0.1875,
            "durationTicks": 96,
            "midi": 45,
            "name": "A2",
            "ticks": 29088,
            "time": 56.8125,
            "velocity": 0.3937007874015748
          },
          {
            "duration": 0.1875,
            "durationTicks": 96,
            "midi": 33,
            "name": "A1",
            "ticks": 29088,
            "time": 56.8125,
            "velocity": 0.3937007874015748
          },
          {
            "duration": 0.1875,
            "durationTicks": 96,
            "midi": 35,
            "name": "B1",
            "ticks": 29184,
            "time": 57,
            "velocity": 0.3937007874015748
          },
          {
            "duration": 0.1875,
            "durationTicks": 96,
            "midi": 59,
            "name": "B3",
            "ticks": 29184,
            "time": 57,
            "velocity": 0.3937007874015748
          },
          {
            "duration": 0.1875,
            "durationTicks": 96,
            "midi": 47,
            "name": "B2",
            "ticks": 29184,
            "time": 57,
            "velocity": 0.3937007874015748
          },
          {
            "duration": 0.1875,
            "durationTicks": 96,
            "midi": 47,
            "name": "B2",
            "ticks": 29280,
            "time": 57.1875,
            "velocity": 0.3937007874015748
          },
          {
            "duration": 0.1875,
            "durationTicks": 96,
            "midi": 35,
            "name": "B1",
            "ticks": 29280,
            "time": 57.1875,
            "velocity": 0.3937007874015748
          },
          {
            "duration": 0.1875,
            "durationTicks": 96,
            "midi": 59,
            "name": "B3",
            "ticks": 29280,
            "time": 57.1875,
            "velocity": 0.3937007874015748
          },
          {
            "duration": 0.1875,
            "durationTicks": 96,
            "midi": 47,
            "name": "B2",
            "ticks": 29376,
            "time": 57.375,
            "velocity": 0.3937007874015748
          },
          {
            "duration": 0.1875,
            "durationTicks": 96,
            "midi": 35,
            "name": "B1",
            "ticks": 29376,
            "time": 57.375,
            "velocity": 0.3937007874015748
          },
          {
            "duration": 0.1875,
            "durationTicks": 96,
            "midi": 59,
            "name": "B3",
            "ticks": 29376,
            "time": 57.375,
            "velocity": 0.3937007874015748
          },
          {
            "duration": 0.1875,
            "durationTicks": 96,
            "midi": 35,
            "name": "B1",
            "ticks": 29472,
            "time": 57.5625,
            "velocity": 0.3937007874015748
          },
          {
            "duration": 0.1875,
            "durationTicks": 96,
            "midi": 62,
            "name": "D4",
            "ticks": 29472,
            "time": 57.5625,
            "velocity": 0.3937007874015748
          },
          {
            "duration": 0.1875,
            "durationTicks": 96,
            "midi": 47,
            "name": "B2",
            "ticks": 29472,
            "time": 57.5625,
            "velocity": 0.3937007874015748
          },
          {
            "duration": 0.1875,
            "durationTicks": 96,
            "midi": 50,
            "name": "D3",
            "ticks": 29472,
            "time": 57.5625,
            "velocity": 0.3937007874015748
          },
          {
            "duration": 0.1875,
            "durationTicks": 96,
            "midi": 35,
            "name": "B1",
            "ticks": 29568,
            "time": 57.75,
            "velocity": 0.3937007874015748
          },
          {
            "duration": 0.1875,
            "durationTicks": 96,
            "midi": 50,
            "name": "D3",
            "ticks": 29568,
            "time": 57.75,
            "velocity": 0.3937007874015748
          },
          {
            "duration": 0.1875,
            "durationTicks": 96,
            "midi": 62,
            "name": "D4",
            "ticks": 29568,
            "time": 57.75,
            "velocity": 0.3937007874015748
          },
          {
            "duration": 0.1875,
            "durationTicks": 96,
            "midi": 47,
            "name": "B2",
            "ticks": 29664,
            "time": 57.9375,
            "velocity": 0.3937007874015748
          },
          {
            "duration": 0.1875,
            "durationTicks": 96,
            "midi": 50,
            "name": "D3",
            "ticks": 29664,
            "time": 57.9375,
            "velocity": 0.3937007874015748
          },
          {
            "duration": 0.1875,
            "durationTicks": 96,
            "midi": 35,
            "name": "B1",
            "ticks": 29664,
            "time": 57.9375,
            "velocity": 0.3937007874015748
          },
          {
            "duration": 0.1875,
            "durationTicks": 96,
            "midi": 62,
            "name": "D4",
            "ticks": 29664,
            "time": 57.9375,
            "velocity": 0.3937007874015748
          },
          {
            "duration": 0.1875,
            "durationTicks": 96,
            "midi": 47,
            "name": "B2",
            "ticks": 29760,
            "time": 58.125,
            "velocity": 0.3937007874015748
          },
          {
            "duration": 0.1875,
            "durationTicks": 96,
            "midi": 50,
            "name": "D3",
            "ticks": 29760,
            "time": 58.125,
            "velocity": 0.3937007874015748
          },
          {
            "duration": 0.1875,
            "durationTicks": 96,
            "midi": 35,
            "name": "B1",
            "ticks": 29760,
            "time": 58.125,
            "velocity": 0.3937007874015748
          },
          {
            "duration": 0.1875,
            "durationTicks": 96,
            "midi": 62,
            "name": "D4",
            "ticks": 29760,
            "time": 58.125,
            "velocity": 0.3937007874015748
          },
          {
            "duration": 0.1875,
            "durationTicks": 96,
            "midi": 35,
            "name": "B1",
            "ticks": 29856,
            "time": 58.3125,
            "velocity": 0.3937007874015748
          },
          {
            "duration": 0.1875,
            "durationTicks": 96,
            "midi": 52,
            "name": "E3",
            "ticks": 29952,
            "time": 58.5,
            "velocity": 0.3937007874015748
          },
          {
            "duration": 0.1875,
            "durationTicks": 96,
            "midi": 28,
            "name": "E1",
            "ticks": 29952,
            "time": 58.5,
            "velocity": 0.3937007874015748
          },
          {
            "duration": 0.1875,
            "durationTicks": 96,
            "midi": 64,
            "name": "E4",
            "ticks": 29952,
            "time": 58.5,
            "velocity": 0.3937007874015748
          },
          {
            "duration": 0.1875,
            "durationTicks": 96,
            "midi": 40,
            "name": "E2",
            "ticks": 29952,
            "time": 58.5,
            "velocity": 0.3937007874015748
          },
          {
            "duration": 0.1875,
            "durationTicks": 96,
            "midi": 64,
            "name": "E4",
            "ticks": 30048,
            "time": 58.6875,
            "velocity": 0.3937007874015748
          },
          {
            "duration": 0.1875,
            "durationTicks": 96,
            "midi": 52,
            "name": "E3",
            "ticks": 30048,
            "time": 58.6875,
            "velocity": 0.3937007874015748
          },
          {
            "duration": 0.1875,
            "durationTicks": 96,
            "midi": 28,
            "name": "E1",
            "ticks": 30048,
            "time": 58.6875,
            "velocity": 0.3937007874015748
          },
          {
            "duration": 0.1875,
            "durationTicks": 96,
            "midi": 52,
            "name": "E3",
            "ticks": 30144,
            "time": 58.875,
            "velocity": 0.3937007874015748
          },
          {
            "duration": 0.1875,
            "durationTicks": 96,
            "midi": 28,
            "name": "E1",
            "ticks": 30144,
            "time": 58.875,
            "velocity": 0.3937007874015748
          },
          {
            "duration": 0.1875,
            "durationTicks": 96,
            "midi": 64,
            "name": "E4",
            "ticks": 30144,
            "time": 58.875,
            "velocity": 0.3937007874015748
          },
          {
            "duration": 0.1875,
            "durationTicks": 96,
            "midi": 40,
            "name": "E2",
            "ticks": 30240,
            "time": 59.0625,
            "velocity": 0.3937007874015748
          },
          {
            "duration": 0.1875,
            "durationTicks": 96,
            "midi": 52,
            "name": "E3",
            "ticks": 30240,
            "time": 59.0625,
            "velocity": 0.3937007874015748
          },
          {
            "duration": 0.1875,
            "durationTicks": 96,
            "midi": 64,
            "name": "E4",
            "ticks": 30240,
            "time": 59.0625,
            "velocity": 0.3937007874015748
          },
          {
            "duration": 0.1875,
            "durationTicks": 96,
            "midi": 28,
            "name": "E1",
            "ticks": 30240,
            "time": 59.0625,
            "velocity": 0.3937007874015748
          },
          {
            "duration": 0.1875,
            "durationTicks": 96,
            "midi": 66,
            "name": "F#4",
            "ticks": 30336,
            "time": 59.25,
            "velocity": 0.3937007874015748
          },
          {
            "duration": 0.1875,
            "durationTicks": 96,
            "midi": 54,
            "name": "F#3",
            "ticks": 30336,
            "time": 59.25,
            "velocity": 0.3937007874015748
          },
          {
            "duration": 0.1875,
            "durationTicks": 96,
            "midi": 28,
            "name": "E1",
            "ticks": 30336,
            "time": 59.25,
            "velocity": 0.3937007874015748
          },
          {
            "duration": 0.1875,
            "durationTicks": 96,
            "midi": 66,
            "name": "F#4",
            "ticks": 30432,
            "time": 59.4375,
            "velocity": 0.3937007874015748
          },
          {
            "duration": 0.1875,
            "durationTicks": 96,
            "midi": 54,
            "name": "F#3",
            "ticks": 30432,
            "time": 59.4375,
            "velocity": 0.3937007874015748
          },
          {
            "duration": 0.1875,
            "durationTicks": 96,
            "midi": 28,
            "name": "E1",
            "ticks": 30432,
            "time": 59.4375,
            "velocity": 0.3937007874015748
          },
          {
            "duration": 0.1875,
            "durationTicks": 96,
            "midi": 66,
            "name": "F#4",
            "ticks": 30528,
            "time": 59.625,
            "velocity": 0.3937007874015748
          },
          {
            "duration": 0.1875,
            "durationTicks": 96,
            "midi": 54,
            "name": "F#3",
            "ticks": 30528,
            "time": 59.625,
            "velocity": 0.3937007874015748
          },
          {
            "duration": 0.1875,
            "durationTicks": 96,
            "midi": 28,
            "name": "E1",
            "ticks": 30528,
            "time": 59.625,
            "velocity": 0.3937007874015748
          },
          {
            "duration": 0.1875,
            "durationTicks": 96,
            "midi": 40,
            "name": "E2",
            "ticks": 30528,
            "time": 59.625,
            "velocity": 0.3937007874015748
          },
          {
            "duration": 0.1875,
            "durationTicks": 96,
            "midi": 41,
            "name": "F2",
            "ticks": 30624,
            "time": 59.8125,
            "velocity": 0.3937007874015748
          },
          {
            "duration": 0.1875,
            "durationTicks": 96,
            "midi": 29,
            "name": "F1",
            "ticks": 30624,
            "time": 59.8125,
            "velocity": 0.3937007874015748
          },
          {
            "duration": 0.1875,
            "durationTicks": 96,
            "midi": 54,
            "name": "F#3",
            "ticks": 30720,
            "time": 60,
            "velocity": 0.3937007874015748
          },
          {
            "duration": 0.1875,
            "durationTicks": 96,
            "midi": 42,
            "name": "F#2",
            "ticks": 30720,
            "time": 60,
            "velocity": 0.3937007874015748
          },
          {
            "duration": 0.1875,
            "durationTicks": 96,
            "midi": 30,
            "name": "F#1",
            "ticks": 30720,
            "time": 60,
            "velocity": 0.3937007874015748
          },
          {
            "duration": 0.1875,
            "durationTicks": 96,
            "midi": 66,
            "name": "F#4",
            "ticks": 30720,
            "time": 60,
            "velocity": 0.3937007874015748
          },
          {
            "duration": 0.1875,
            "durationTicks": 96,
            "midi": 30,
            "name": "F#1",
            "ticks": 30816,
            "time": 60.1875,
            "velocity": 0.3937007874015748
          },
          {
            "duration": 0.1875,
            "durationTicks": 96,
            "midi": 54,
            "name": "F#3",
            "ticks": 30816,
            "time": 60.1875,
            "velocity": 0.3937007874015748
          },
          {
            "duration": 0.1875,
            "durationTicks": 96,
            "midi": 66,
            "name": "F#4",
            "ticks": 30816,
            "time": 60.1875,
            "velocity": 0.3937007874015748
          },
          {
            "duration": 0.1875,
            "durationTicks": 96,
            "midi": 66,
            "name": "F#4",
            "ticks": 30816,
            "time": 60.1875,
            "velocity": 0.3937007874015748
          },
          {
            "duration": 0.1875,
            "durationTicks": 96,
            "midi": 30,
            "name": "F#1",
            "ticks": 30912,
            "time": 60.375,
            "velocity": 0.3937007874015748
          },
          {
            "duration": 0.1875,
            "durationTicks": 96,
            "midi": 49,
            "name": "C#3",
            "ticks": 30912,
            "time": 60.375,
            "velocity": 0.3937007874015748
          },
          {
            "duration": 0.1875,
            "durationTicks": 96,
            "midi": 61,
            "name": "C#4",
            "ticks": 30912,
            "time": 60.375,
            "velocity": 0.3937007874015748
          },
          {
            "duration": 0.1875,
            "durationTicks": 96,
            "midi": 49,
            "name": "C#3",
            "ticks": 31008,
            "time": 60.5625,
            "velocity": 0.3937007874015748
          },
          {
            "duration": 0.1875,
            "durationTicks": 96,
            "midi": 61,
            "name": "C#4",
            "ticks": 31008,
            "time": 60.5625,
            "velocity": 0.3937007874015748
          },
          {
            "duration": 0.1875,
            "durationTicks": 96,
            "midi": 30,
            "name": "F#1",
            "ticks": 31008,
            "time": 60.5625,
            "velocity": 0.3937007874015748
          },
          {
            "duration": 0.1875,
            "durationTicks": 96,
            "midi": 42,
            "name": "F#2",
            "ticks": 31008,
            "time": 60.5625,
            "velocity": 0.3937007874015748
          },
          {
            "duration": 0.1875,
            "durationTicks": 96,
            "midi": 30,
            "name": "F#1",
            "ticks": 31104,
            "time": 60.75,
            "velocity": 0.3937007874015748
          },
          {
            "duration": 0.1875,
            "durationTicks": 96,
            "midi": 42,
            "name": "F#2",
            "ticks": 31200,
            "time": 60.9375,
            "velocity": 0.3937007874015748
          },
          {
            "duration": 0.1875,
            "durationTicks": 96,
            "midi": 30,
            "name": "F#1",
            "ticks": 31200,
            "time": 60.9375,
            "velocity": 0.3937007874015748
          },
          {
            "duration": 0.1875,
            "durationTicks": 96,
            "midi": 45,
            "name": "A2",
            "ticks": 31296,
            "time": 61.125,
            "velocity": 0.3937007874015748
          },
          {
            "duration": 0.1875,
            "durationTicks": 96,
            "midi": 49,
            "name": "C#3",
            "ticks": 31296,
            "time": 61.125,
            "velocity": 0.3937007874015748
          },
          {
            "duration": 0.1875,
            "durationTicks": 96,
            "midi": 33,
            "name": "A1",
            "ticks": 31296,
            "time": 61.125,
            "velocity": 0.3937007874015748
          },
          {
            "duration": 0.1875,
            "durationTicks": 96,
            "midi": 61,
            "name": "C#4",
            "ticks": 31296,
            "time": 61.125,
            "velocity": 0.3937007874015748
          },
          {
            "duration": 0.1875,
            "durationTicks": 96,
            "midi": 32,
            "name": "G#1",
            "ticks": 31392,
            "time": 61.3125,
            "velocity": 0.3937007874015748
          },
          {
            "duration": 0.1875,
            "durationTicks": 96,
            "midi": 61,
            "name": "C#4",
            "ticks": 31392,
            "time": 61.3125,
            "velocity": 0.3937007874015748
          },
          {
            "duration": 0.1875,
            "durationTicks": 96,
            "midi": 49,
            "name": "C#3",
            "ticks": 31392,
            "time": 61.3125,
            "velocity": 0.3937007874015748
          },
          {
            "duration": 0.1875,
            "durationTicks": 96,
            "midi": 61,
            "name": "C#4",
            "ticks": 31488,
            "time": 61.5,
            "velocity": 0.3937007874015748
          },
          {
            "duration": 0.1875,
            "durationTicks": 96,
            "midi": 42,
            "name": "F#2",
            "ticks": 31488,
            "time": 61.5,
            "velocity": 0.3937007874015748
          },
          {
            "duration": 0.1875,
            "durationTicks": 96,
            "midi": 49,
            "name": "C#3",
            "ticks": 31488,
            "time": 61.5,
            "velocity": 0.3937007874015748
          },
          {
            "duration": 0.1875,
            "durationTicks": 96,
            "midi": 30,
            "name": "F#1",
            "ticks": 31488,
            "time": 61.5,
            "velocity": 0.3937007874015748
          },
          {
            "duration": 0.1875,
            "durationTicks": 96,
            "midi": 61,
            "name": "C#4",
            "ticks": 31584,
            "time": 61.6875,
            "velocity": 0.3937007874015748
          },
          {
            "duration": 0.1875,
            "durationTicks": 96,
            "midi": 30,
            "name": "F#1",
            "ticks": 31584,
            "time": 61.6875,
            "velocity": 0.3937007874015748
          },
          {
            "duration": 0.1875,
            "durationTicks": 96,
            "midi": 49,
            "name": "C#3",
            "ticks": 31584,
            "time": 61.6875,
            "velocity": 0.3937007874015748
          },
          {
            "duration": 0.1875,
            "durationTicks": 96,
            "midi": 49,
            "name": "C#3",
            "ticks": 31680,
            "time": 61.875,
            "velocity": 0.3937007874015748
          },
          {
            "duration": 0.1875,
            "durationTicks": 96,
            "midi": 61,
            "name": "C#4",
            "ticks": 31680,
            "time": 61.875,
            "velocity": 0.3937007874015748
          },
          {
            "duration": 0.1875,
            "durationTicks": 96,
            "midi": 30,
            "name": "F#1",
            "ticks": 31680,
            "time": 61.875,
            "velocity": 0.3937007874015748
          },
          {
            "duration": 0.1875,
            "durationTicks": 96,
            "midi": 54,
            "name": "F#3",
            "ticks": 31776,
            "time": 62.0625,
            "velocity": 0.3937007874015748
          },
          {
            "duration": 0.1875,
            "durationTicks": 96,
            "midi": 42,
            "name": "F#2",
            "ticks": 31776,
            "time": 62.0625,
            "velocity": 0.3937007874015748
          },
          {
            "duration": 0.1875,
            "durationTicks": 96,
            "midi": 30,
            "name": "F#1",
            "ticks": 31776,
            "time": 62.0625,
            "velocity": 0.3937007874015748
          },
          {
            "duration": 0.1875,
            "durationTicks": 96,
            "midi": 30,
            "name": "F#1",
            "ticks": 31872,
            "time": 62.25,
            "velocity": 0.3937007874015748
          },
          {
            "duration": 0.1875,
            "durationTicks": 96,
            "midi": 42,
            "name": "F#2",
            "ticks": 31968,
            "time": 62.4375,
            "velocity": 0.3937007874015748
          },
          {
            "duration": 0.1875,
            "durationTicks": 96,
            "midi": 30,
            "name": "F#1",
            "ticks": 31968,
            "time": 62.4375,
            "velocity": 0.3937007874015748
          },
          {
            "duration": 0.1875,
            "durationTicks": 96,
            "midi": 44,
            "name": "G#2",
            "ticks": 32064,
            "time": 62.625,
            "velocity": 0.3937007874015748
          },
          {
            "duration": 0.1875,
            "durationTicks": 96,
            "midi": 32,
            "name": "G#1",
            "ticks": 32064,
            "time": 62.625,
            "velocity": 0.3937007874015748
          },
          {
            "duration": 0.1875,
            "durationTicks": 96,
            "midi": 33,
            "name": "A1",
            "ticks": 32160,
            "time": 62.8125,
            "velocity": 0.3937007874015748
          },
          {
            "duration": 0.1875,
            "durationTicks": 96,
            "midi": 45,
            "name": "A2",
            "ticks": 32160,
            "time": 62.8125,
            "velocity": 0.3937007874015748
          },
          {
            "duration": 0.1875,
            "durationTicks": 96,
            "midi": 42,
            "name": "F#2",
            "ticks": 32160,
            "time": 62.8125,
            "velocity": 0.3937007874015748
          },
          {
            "duration": 0.1875,
            "durationTicks": 96,
            "midi": 35,
            "name": "B1",
            "ticks": 32256,
            "time": 63,
            "velocity": 0.3937007874015748
          },
          {
            "duration": 0.1875,
            "durationTicks": 96,
            "midi": 59,
            "name": "B3",
            "ticks": 32256,
            "time": 63,
            "velocity": 0.3937007874015748
          },
          {
            "duration": 0.1875,
            "durationTicks": 96,
            "midi": 47,
            "name": "B2",
            "ticks": 32256,
            "time": 63,
            "velocity": 0.3937007874015748
          },
          {
            "duration": 0.1875,
            "durationTicks": 96,
            "midi": 47,
            "name": "B2",
            "ticks": 32352,
            "time": 63.1875,
            "velocity": 0.3937007874015748
          },
          {
            "duration": 0.1875,
            "durationTicks": 96,
            "midi": 59,
            "name": "B3",
            "ticks": 32352,
            "time": 63.1875,
            "velocity": 0.3937007874015748
          },
          {
            "duration": 0.1875,
            "durationTicks": 96,
            "midi": 35,
            "name": "B1",
            "ticks": 32352,
            "time": 63.1875,
            "velocity": 0.3937007874015748
          },
          {
            "duration": 0.1875,
            "durationTicks": 96,
            "midi": 59,
            "name": "B3",
            "ticks": 32448,
            "time": 63.375,
            "velocity": 0.3937007874015748
          },
          {
            "duration": 0.1875,
            "durationTicks": 96,
            "midi": 35,
            "name": "B1",
            "ticks": 32448,
            "time": 63.375,
            "velocity": 0.3937007874015748
          },
          {
            "duration": 0.1875,
            "durationTicks": 96,
            "midi": 47,
            "name": "B2",
            "ticks": 32448,
            "time": 63.375,
            "velocity": 0.3937007874015748
          },
          {
            "duration": 0.1875,
            "durationTicks": 96,
            "midi": 35,
            "name": "B1",
            "ticks": 32544,
            "time": 63.5625,
            "velocity": 0.3937007874015748
          },
          {
            "duration": 0.1875,
            "durationTicks": 96,
            "midi": 47,
            "name": "B2",
            "ticks": 32544,
            "time": 63.5625,
            "velocity": 0.3937007874015748
          },
          {
            "duration": 0.1875,
            "durationTicks": 96,
            "midi": 62,
            "name": "D4",
            "ticks": 32544,
            "time": 63.5625,
            "velocity": 0.3937007874015748
          },
          {
            "duration": 0.1875,
            "durationTicks": 96,
            "midi": 50,
            "name": "D3",
            "ticks": 32544,
            "time": 63.5625,
            "velocity": 0.3937007874015748
          },
          {
            "duration": 0.1875,
            "durationTicks": 96,
            "midi": 35,
            "name": "B1",
            "ticks": 32640,
            "time": 63.75,
            "velocity": 0.3937007874015748
          },
          {
            "duration": 0.1875,
            "durationTicks": 96,
            "midi": 50,
            "name": "D3",
            "ticks": 32640,
            "time": 63.75,
            "velocity": 0.3937007874015748
          },
          {
            "duration": 0.1875,
            "durationTicks": 96,
            "midi": 62,
            "name": "D4",
            "ticks": 32640,
            "time": 63.75,
            "velocity": 0.3937007874015748
          },
          {
            "duration": 0.1875,
            "durationTicks": 96,
            "midi": 47,
            "name": "B2",
            "ticks": 32736,
            "time": 63.9375,
            "velocity": 0.3937007874015748
          },
          {
            "duration": 0.1875,
            "durationTicks": 96,
            "midi": 50,
            "name": "D3",
            "ticks": 32736,
            "time": 63.9375,
            "velocity": 0.3937007874015748
          },
          {
            "duration": 0.1875,
            "durationTicks": 96,
            "midi": 35,
            "name": "B1",
            "ticks": 32736,
            "time": 63.9375,
            "velocity": 0.3937007874015748
          },
          {
            "duration": 0.1875,
            "durationTicks": 96,
            "midi": 62,
            "name": "D4",
            "ticks": 32736,
            "time": 63.9375,
            "velocity": 0.3937007874015748
          },
          {
            "duration": 0.1875,
            "durationTicks": 96,
            "midi": 62,
            "name": "D4",
            "ticks": 32832,
            "time": 64.125,
            "velocity": 0.3937007874015748
          },
          {
            "duration": 0.1875,
            "durationTicks": 96,
            "midi": 50,
            "name": "D3",
            "ticks": 32832,
            "time": 64.125,
            "velocity": 0.3937007874015748
          },
          {
            "duration": 0.1875,
            "durationTicks": 96,
            "midi": 47,
            "name": "B2",
            "ticks": 32832,
            "time": 64.125,
            "velocity": 0.3937007874015748
          },
          {
            "duration": 0.1875,
            "durationTicks": 96,
            "midi": 35,
            "name": "B1",
            "ticks": 32832,
            "time": 64.125,
            "velocity": 0.3937007874015748
          },
          {
            "duration": 0.1875,
            "durationTicks": 96,
            "midi": 35,
            "name": "B1",
            "ticks": 32928,
            "time": 64.3125,
            "velocity": 0.3937007874015748
          },
          {
            "duration": 0.1875,
            "durationTicks": 96,
            "midi": 62,
            "name": "D4",
            "ticks": 32928,
            "time": 64.3125,
            "velocity": 0.3937007874015748
          },
          {
            "duration": 0.1875,
            "durationTicks": 96,
            "midi": 50,
            "name": "D3",
            "ticks": 32928,
            "time": 64.3125,
            "velocity": 0.3937007874015748
          },
          {
            "duration": 0.1875,
            "durationTicks": 96,
            "midi": 40,
            "name": "E2",
            "ticks": 33024,
            "time": 64.5,
            "velocity": 0.3937007874015748
          },
          {
            "duration": 0.1875,
            "durationTicks": 96,
            "midi": 64,
            "name": "E4",
            "ticks": 33024,
            "time": 64.5,
            "velocity": 0.3937007874015748
          },
          {
            "duration": 0.1875,
            "durationTicks": 96,
            "midi": 28,
            "name": "E1",
            "ticks": 33024,
            "time": 64.5,
            "velocity": 0.3937007874015748
          },
          {
            "duration": 0.1875,
            "durationTicks": 96,
            "midi": 52,
            "name": "E3",
            "ticks": 33024,
            "time": 64.5,
            "velocity": 0.3937007874015748
          },
          {
            "duration": 0.1875,
            "durationTicks": 96,
            "midi": 28,
            "name": "E1",
            "ticks": 33120,
            "time": 64.6875,
            "velocity": 0.3937007874015748
          },
          {
            "duration": 0.1875,
            "durationTicks": 96,
            "midi": 52,
            "name": "E3",
            "ticks": 33120,
            "time": 64.6875,
            "velocity": 0.3937007874015748
          },
          {
            "duration": 0.1875,
            "durationTicks": 96,
            "midi": 64,
            "name": "E4",
            "ticks": 33120,
            "time": 64.6875,
            "velocity": 0.3937007874015748
          },
          {
            "duration": 0.1875,
            "durationTicks": 96,
            "midi": 28,
            "name": "E1",
            "ticks": 33216,
            "time": 64.875,
            "velocity": 0.3937007874015748
          },
          {
            "duration": 0.1875,
            "durationTicks": 96,
            "midi": 52,
            "name": "E3",
            "ticks": 33216,
            "time": 64.875,
            "velocity": 0.3937007874015748
          },
          {
            "duration": 0.1875,
            "durationTicks": 96,
            "midi": 64,
            "name": "E4",
            "ticks": 33216,
            "time": 64.875,
            "velocity": 0.3937007874015748
          },
          {
            "duration": 0.1875,
            "durationTicks": 96,
            "midi": 40,
            "name": "E2",
            "ticks": 33312,
            "time": 65.0625,
            "velocity": 0.3937007874015748
          },
          {
            "duration": 0.1875,
            "durationTicks": 96,
            "midi": 52,
            "name": "E3",
            "ticks": 33312,
            "time": 65.0625,
            "velocity": 0.3937007874015748
          },
          {
            "duration": 0.1875,
            "durationTicks": 96,
            "midi": 28,
            "name": "E1",
            "ticks": 33312,
            "time": 65.0625,
            "velocity": 0.3937007874015748
          },
          {
            "duration": 0.1875,
            "durationTicks": 96,
            "midi": 64,
            "name": "E4",
            "ticks": 33312,
            "time": 65.0625,
            "velocity": 0.3937007874015748
          },
          {
            "duration": 0.1875,
            "durationTicks": 96,
            "midi": 52,
            "name": "E3",
            "ticks": 33408,
            "time": 65.25,
            "velocity": 0.3937007874015748
          },
          {
            "duration": 0.1875,
            "durationTicks": 96,
            "midi": 28,
            "name": "E1",
            "ticks": 33408,
            "time": 65.25,
            "velocity": 0.3937007874015748
          },
          {
            "duration": 0.1875,
            "durationTicks": 96,
            "midi": 64,
            "name": "E4",
            "ticks": 33408,
            "time": 65.25,
            "velocity": 0.3937007874015748
          },
          {
            "duration": 0.1875,
            "durationTicks": 96,
            "midi": 66,
            "name": "F#4",
            "ticks": 33504,
            "time": 65.4375,
            "velocity": 0.3937007874015748
          },
          {
            "duration": 0.1875,
            "durationTicks": 96,
            "midi": 54,
            "name": "F#3",
            "ticks": 33504,
            "time": 65.4375,
            "velocity": 0.3937007874015748
          },
          {
            "duration": 0.1875,
            "durationTicks": 96,
            "midi": 28,
            "name": "E1",
            "ticks": 33504,
            "time": 65.4375,
            "velocity": 0.3937007874015748
          },
          {
            "duration": 0.1875,
            "durationTicks": 96,
            "midi": 54,
            "name": "F#3",
            "ticks": 33600,
            "time": 65.625,
            "velocity": 0.3937007874015748
          },
          {
            "duration": 0.1875,
            "durationTicks": 96,
            "midi": 54,
            "name": "F#3",
            "ticks": 33696,
            "time": 65.8125,
            "velocity": 0.3937007874015748
          },
          {
            "duration": 0.1875,
            "durationTicks": 96,
            "midi": 42,
            "name": "F#2",
            "ticks": 33696,
            "time": 65.8125,
            "velocity": 0.3937007874015748
          },
          {
            "duration": 0.1875,
            "durationTicks": 96,
            "midi": 42,
            "name": "F#2",
            "ticks": 33792,
            "time": 66,
            "velocity": 0.3937007874015748
          },
          {
            "duration": 0.1875,
            "durationTicks": 96,
            "midi": 30,
            "name": "F#1",
            "ticks": 33792,
            "time": 66,
            "velocity": 0.3937007874015748
          },
          {
            "duration": 0.1875,
            "durationTicks": 96,
            "midi": 30,
            "name": "F#1",
            "ticks": 33888,
            "time": 66.1875,
            "velocity": 0.3937007874015748
          },
          {
            "duration": 0.1875,
            "durationTicks": 96,
            "midi": 30,
            "name": "F#1",
            "ticks": 33984,
            "time": 66.375,
            "velocity": 0.3937007874015748
          },
          {
            "duration": 0.1875,
            "durationTicks": 96,
            "midi": 54,
            "name": "F#3",
            "ticks": 33984,
            "time": 66.375,
            "velocity": 0.3937007874015748
          },
          {
            "duration": 0.1875,
            "durationTicks": 96,
            "midi": 66,
            "name": "F#4",
            "ticks": 33984,
            "time": 66.375,
            "velocity": 0.3937007874015748
          },
          {
            "duration": 0.1875,
            "durationTicks": 96,
            "midi": 54,
            "name": "F#3",
            "ticks": 34080,
            "time": 66.5625,
            "velocity": 0.3937007874015748
          },
          {
            "duration": 0.1875,
            "durationTicks": 96,
            "midi": 30,
            "name": "F#1",
            "ticks": 34080,
            "time": 66.5625,
            "velocity": 0.3937007874015748
          },
          {
            "duration": 0.1875,
            "durationTicks": 96,
            "midi": 42,
            "name": "F#2",
            "ticks": 34080,
            "time": 66.5625,
            "velocity": 0.3937007874015748
          },
          {
            "duration": 0.1875,
            "durationTicks": 96,
            "midi": 66,
            "name": "F#4",
            "ticks": 34080,
            "time": 66.5625,
            "velocity": 0.3937007874015748
          },
          {
            "duration": 0.1875,
            "durationTicks": 96,
            "midi": 30,
            "name": "F#1",
            "ticks": 34176,
            "time": 66.75,
            "velocity": 0.3937007874015748
          },
          {
            "duration": 0.1875,
            "durationTicks": 96,
            "midi": 30,
            "name": "F#1",
            "ticks": 34272,
            "time": 66.9375,
            "velocity": 0.3937007874015748
          },
          {
            "duration": 0.1875,
            "durationTicks": 96,
            "midi": 42,
            "name": "F#2",
            "ticks": 34272,
            "time": 66.9375,
            "velocity": 0.3937007874015748
          },
          {
            "duration": 0.1875,
            "durationTicks": 96,
            "midi": 45,
            "name": "A2",
            "ticks": 34368,
            "time": 67.125,
            "velocity": 0.3937007874015748
          },
          {
            "duration": 0.1875,
            "durationTicks": 96,
            "midi": 54,
            "name": "F#3",
            "ticks": 34368,
            "time": 67.125,
            "velocity": 0.3937007874015748
          },
          {
            "duration": 0.1875,
            "durationTicks": 96,
            "midi": 66,
            "name": "F#4",
            "ticks": 34368,
            "time": 67.125,
            "velocity": 0.3937007874015748
          },
          {
            "duration": 0.1875,
            "durationTicks": 96,
            "midi": 33,
            "name": "A1",
            "ticks": 34368,
            "time": 67.125,
            "velocity": 0.3937007874015748
          },
          {
            "duration": 0.1875,
            "durationTicks": 96,
            "midi": 32,
            "name": "G#1",
            "ticks": 34464,
            "time": 67.3125,
            "velocity": 0.3937007874015748
          },
          {
            "duration": 0.1875,
            "durationTicks": 96,
            "midi": 42,
            "name": "F#2",
            "ticks": 34560,
            "time": 67.5,
            "velocity": 0.3937007874015748
          },
          {
            "duration": 0.1875,
            "durationTicks": 96,
            "midi": 30,
            "name": "F#1",
            "ticks": 34560,
            "time": 67.5,
            "velocity": 0.3937007874015748
          },
          {
            "duration": 0.1875,
            "durationTicks": 96,
            "midi": 30,
            "name": "F#1",
            "ticks": 34656,
            "time": 67.6875,
            "velocity": 0.3937007874015748
          },
          {
            "duration": 0.1875,
            "durationTicks": 96,
            "midi": 66,
            "name": "F#4",
            "ticks": 34752,
            "time": 67.875,
            "velocity": 0.3937007874015748
          },
          {
            "duration": 0.1875,
            "durationTicks": 96,
            "midi": 54,
            "name": "F#3",
            "ticks": 34752,
            "time": 67.875,
            "velocity": 0.3937007874015748
          },
          {
            "duration": 0.1875,
            "durationTicks": 96,
            "midi": 30,
            "name": "F#1",
            "ticks": 34752,
            "time": 67.875,
            "velocity": 0.3937007874015748
          },
          {
            "duration": 0.1875,
            "durationTicks": 96,
            "midi": 66,
            "name": "F#4",
            "ticks": 34848,
            "time": 68.0625,
            "velocity": 0.3937007874015748
          },
          {
            "duration": 0.1875,
            "durationTicks": 96,
            "midi": 54,
            "name": "F#3",
            "ticks": 34848,
            "time": 68.0625,
            "velocity": 0.3937007874015748
          },
          {
            "duration": 0.1875,
            "durationTicks": 96,
            "midi": 30,
            "name": "F#1",
            "ticks": 34848,
            "time": 68.0625,
            "velocity": 0.3937007874015748
          },
          {
            "duration": 0.1875,
            "durationTicks": 96,
            "midi": 42,
            "name": "F#2",
            "ticks": 34848,
            "time": 68.0625,
            "velocity": 0.3937007874015748
          },
          {
            "duration": 0.1875,
            "durationTicks": 96,
            "midi": 30,
            "name": "F#1",
            "ticks": 34944,
            "time": 68.25,
            "velocity": 0.3937007874015748
          },
          {
            "duration": 0.1875,
            "durationTicks": 96,
            "midi": 45,
            "name": "A2",
            "ticks": 35040,
            "time": 68.4375,
            "velocity": 0.3937007874015748
          },
          {
            "duration": 0.1875,
            "durationTicks": 96,
            "midi": 33,
            "name": "A1",
            "ticks": 35040,
            "time": 68.4375,
            "velocity": 0.3937007874015748
          },
          {
            "duration": 0.1875,
            "durationTicks": 96,
            "midi": 56,
            "name": "G#3",
            "ticks": 35136,
            "time": 68.625,
            "velocity": 0.3937007874015748
          },
          {
            "duration": 0.1875,
            "durationTicks": 96,
            "midi": 68,
            "name": "G#4",
            "ticks": 35136,
            "time": 68.625,
            "velocity": 0.3937007874015748
          },
          {
            "duration": 0.1875,
            "durationTicks": 96,
            "midi": 44,
            "name": "G#2",
            "ticks": 35136,
            "time": 68.625,
            "velocity": 0.3937007874015748
          },
          {
            "duration": 0.1875,
            "durationTicks": 96,
            "midi": 32,
            "name": "G#1",
            "ticks": 35136,
            "time": 68.625,
            "velocity": 0.3937007874015748
          },
          {
            "duration": 0.1875,
            "durationTicks": 96,
            "midi": 30,
            "name": "F#1",
            "ticks": 35232,
            "time": 68.8125,
            "velocity": 0.3937007874015748
          },
          {
            "duration": 0.1875,
            "durationTicks": 96,
            "midi": 42,
            "name": "F#2",
            "ticks": 35232,
            "time": 68.8125,
            "velocity": 0.3937007874015748
          },
          {
            "duration": 0.1875,
            "durationTicks": 96,
            "midi": 29,
            "name": "F1",
            "ticks": 35328,
            "time": 69,
            "velocity": 0.3937007874015748
          },
          {
            "duration": 0.1875,
            "durationTicks": 96,
            "midi": 41,
            "name": "F2",
            "ticks": 35328,
            "time": 69,
            "velocity": 0.3937007874015748
          },
          {
            "duration": 0.1875,
            "durationTicks": 96,
            "midi": 29,
            "name": "F1",
            "ticks": 35424,
            "time": 69.1875,
            "velocity": 0.3937007874015748
          },
          {
            "duration": 0.1875,
            "durationTicks": 96,
            "midi": 29,
            "name": "F1",
            "ticks": 35520,
            "time": 69.375,
            "velocity": 0.3937007874015748
          },
          {
            "duration": 0.1875,
            "durationTicks": 96,
            "midi": 53,
            "name": "F3",
            "ticks": 35520,
            "time": 69.375,
            "velocity": 0.3937007874015748
          },
          {
            "duration": 0.1875,
            "durationTicks": 96,
            "midi": 65,
            "name": "F4",
            "ticks": 35520,
            "time": 69.375,
            "velocity": 0.3937007874015748
          },
          {
            "duration": 0.1875,
            "durationTicks": 96,
            "midi": 29,
            "name": "F1",
            "ticks": 35616,
            "time": 69.5625,
            "velocity": 0.3937007874015748
          },
          {
            "duration": 0.1875,
            "durationTicks": 96,
            "midi": 41,
            "name": "F2",
            "ticks": 35616,
            "time": 69.5625,
            "velocity": 0.3937007874015748
          },
          {
            "duration": 0.1875,
            "durationTicks": 96,
            "midi": 53,
            "name": "F3",
            "ticks": 35616,
            "time": 69.5625,
            "velocity": 0.3937007874015748
          },
          {
            "duration": 0.1875,
            "durationTicks": 96,
            "midi": 65,
            "name": "F4",
            "ticks": 35616,
            "time": 69.5625,
            "velocity": 0.3937007874015748
          },
          {
            "duration": 0.1875,
            "durationTicks": 96,
            "midi": 29,
            "name": "F1",
            "ticks": 35712,
            "time": 69.75,
            "velocity": 0.3937007874015748
          },
          {
            "duration": 0.1875,
            "durationTicks": 96,
            "midi": 41,
            "name": "F2",
            "ticks": 35808,
            "time": 69.9375,
            "velocity": 0.3937007874015748
          },
          {
            "duration": 0.1875,
            "durationTicks": 96,
            "midi": 29,
            "name": "F1",
            "ticks": 35808,
            "time": 69.9375,
            "velocity": 0.3937007874015748
          },
          {
            "duration": 0.1875,
            "durationTicks": 96,
            "midi": 65,
            "name": "F4",
            "ticks": 35904,
            "time": 70.125,
            "velocity": 0.3937007874015748
          },
          {
            "duration": 0.1875,
            "durationTicks": 96,
            "midi": 29,
            "name": "F1",
            "ticks": 35904,
            "time": 70.125,
            "velocity": 0.3937007874015748
          },
          {
            "duration": 0.1875,
            "durationTicks": 96,
            "midi": 41,
            "name": "F2",
            "ticks": 35904,
            "time": 70.125,
            "velocity": 0.3937007874015748
          },
          {
            "duration": 0.1875,
            "durationTicks": 96,
            "midi": 53,
            "name": "F3",
            "ticks": 35904,
            "time": 70.125,
            "velocity": 0.3937007874015748
          },
          {
            "duration": 0.1875,
            "durationTicks": 96,
            "midi": 28,
            "name": "E1",
            "ticks": 36000,
            "time": 70.3125,
            "velocity": 0.3937007874015748
          },
          {
            "duration": 0.1875,
            "durationTicks": 96,
            "midi": 38,
            "name": "D2",
            "ticks": 36096,
            "time": 70.5,
            "velocity": 0.3937007874015748
          },
          {
            "duration": 0.1875,
            "durationTicks": 96,
            "midi": 26,
            "name": "D1",
            "ticks": 36096,
            "time": 70.5,
            "velocity": 0.3937007874015748
          },
          {
            "duration": 0.1875,
            "durationTicks": 96,
            "midi": 26,
            "name": "D1",
            "ticks": 36192,
            "time": 70.6875,
            "velocity": 0.3937007874015748
          },
          {
            "duration": 0.1875,
            "durationTicks": 96,
            "midi": 50,
            "name": "D3",
            "ticks": 36288,
            "time": 70.875,
            "velocity": 0.3937007874015748
          },
          {
            "duration": 0.1875,
            "durationTicks": 96,
            "midi": 62,
            "name": "D4",
            "ticks": 36288,
            "time": 70.875,
            "velocity": 0.3937007874015748
          },
          {
            "duration": 0.1875,
            "durationTicks": 96,
            "midi": 26,
            "name": "D1",
            "ticks": 36288,
            "time": 70.875,
            "velocity": 0.3937007874015748
          },
          {
            "duration": 0.1875,
            "durationTicks": 96,
            "midi": 38,
            "name": "D2",
            "ticks": 36384,
            "time": 71.0625,
            "velocity": 0.3937007874015748
          },
          {
            "duration": 0.1875,
            "durationTicks": 96,
            "midi": 26,
            "name": "D1",
            "ticks": 36384,
            "time": 71.0625,
            "velocity": 0.3937007874015748
          },
          {
            "duration": 0.1875,
            "durationTicks": 96,
            "midi": 62,
            "name": "D4",
            "ticks": 36384,
            "time": 71.0625,
            "velocity": 0.3937007874015748
          },
          {
            "duration": 0.1875,
            "durationTicks": 96,
            "midi": 50,
            "name": "D3",
            "ticks": 36384,
            "time": 71.0625,
            "velocity": 0.3937007874015748
          },
          {
            "duration": 0.1875,
            "durationTicks": 96,
            "midi": 26,
            "name": "D1",
            "ticks": 36480,
            "time": 71.25,
            "velocity": 0.3937007874015748
          },
          {
            "duration": 0.1875,
            "durationTicks": 96,
            "midi": 26,
            "name": "D1",
            "ticks": 36576,
            "time": 71.4375,
            "velocity": 0.3937007874015748
          },
          {
            "duration": 0.1875,
            "durationTicks": 96,
            "midi": 28,
            "name": "E1",
            "ticks": 36672,
            "time": 71.625,
            "velocity": 0.3937007874015748
          },
          {
            "duration": 0.1875,
            "durationTicks": 96,
            "midi": 40,
            "name": "E2",
            "ticks": 36672,
            "time": 71.625,
            "velocity": 0.3937007874015748
          },
          {
            "duration": 0.1875,
            "durationTicks": 96,
            "midi": 64,
            "name": "E4",
            "ticks": 36672,
            "time": 71.625,
            "velocity": 0.3937007874015748
          },
          {
            "duration": 0.1875,
            "durationTicks": 96,
            "midi": 52,
            "name": "E3",
            "ticks": 36672,
            "time": 71.625,
            "velocity": 0.3937007874015748
          },
          {
            "duration": 0.1875,
            "durationTicks": 96,
            "midi": 65,
            "name": "F4",
            "ticks": 36768,
            "time": 71.8125,
            "velocity": 0.3937007874015748
          },
          {
            "duration": 0.1875,
            "durationTicks": 96,
            "midi": 41,
            "name": "F2",
            "ticks": 36768,
            "time": 71.8125,
            "velocity": 0.3937007874015748
          },
          {
            "duration": 0.1875,
            "durationTicks": 96,
            "midi": 53,
            "name": "F3",
            "ticks": 36768,
            "time": 71.8125,
            "velocity": 0.3937007874015748
          },
          {
            "duration": 0.1875,
            "durationTicks": 96,
            "midi": 29,
            "name": "F1",
            "ticks": 36768,
            "time": 71.8125,
            "velocity": 0.3937007874015748
          },
          {
            "duration": 0.1875,
            "durationTicks": 96,
            "midi": 54,
            "name": "F#3",
            "ticks": 36864,
            "time": 72,
            "velocity": 0.3937007874015748
          },
          {
            "duration": 0.1875,
            "durationTicks": 96,
            "midi": 42,
            "name": "F#2",
            "ticks": 36864,
            "time": 72,
            "velocity": 0.3937007874015748
          },
          {
            "duration": 0.1875,
            "durationTicks": 96,
            "midi": 66,
            "name": "F#4",
            "ticks": 36864,
            "time": 72,
            "velocity": 0.3937007874015748
          },
          {
            "duration": 0.1875,
            "durationTicks": 96,
            "midi": 30,
            "name": "F#1",
            "ticks": 36864,
            "time": 72,
            "velocity": 0.3937007874015748
          },
          {
            "duration": 0.1875,
            "durationTicks": 96,
            "midi": 66,
            "name": "F#4",
            "ticks": 36960,
            "time": 72.1875,
            "velocity": 0.3937007874015748
          },
          {
            "duration": 0.1875,
            "durationTicks": 96,
            "midi": 30,
            "name": "F#1",
            "ticks": 36960,
            "time": 72.1875,
            "velocity": 0.3937007874015748
          },
          {
            "duration": 0.1875,
            "durationTicks": 96,
            "midi": 54,
            "name": "F#3",
            "ticks": 36960,
            "time": 72.1875,
            "velocity": 0.3937007874015748
          },
          {
            "duration": 0.1875,
            "durationTicks": 96,
            "midi": 66,
            "name": "F#4",
            "ticks": 37056,
            "time": 72.375,
            "velocity": 0.3937007874015748
          },
          {
            "duration": 0.1875,
            "durationTicks": 96,
            "midi": 54,
            "name": "F#3",
            "ticks": 37056,
            "time": 72.375,
            "velocity": 0.3937007874015748
          },
          {
            "duration": 0.1875,
            "durationTicks": 96,
            "midi": 30,
            "name": "F#1",
            "ticks": 37056,
            "time": 72.375,
            "velocity": 0.3937007874015748
          },
          {
            "duration": 0.1875,
            "durationTicks": 96,
            "midi": 42,
            "name": "F#2",
            "ticks": 37056,
            "time": 72.375,
            "velocity": 0.3937007874015748
          },
          {
            "duration": 0.1875,
            "durationTicks": 96,
            "midi": 66,
            "name": "F#4",
            "ticks": 37152,
            "time": 72.5625,
            "velocity": 0.3937007874015748
          },
          {
            "duration": 0.1875,
            "durationTicks": 96,
            "midi": 42,
            "name": "F#2",
            "ticks": 37152,
            "time": 72.5625,
            "velocity": 0.3937007874015748
          },
          {
            "duration": 0.1875,
            "durationTicks": 96,
            "midi": 30,
            "name": "F#1",
            "ticks": 37152,
            "time": 72.5625,
            "velocity": 0.3937007874015748
          },
          {
            "duration": 0.1875,
            "durationTicks": 96,
            "midi": 54,
            "name": "F#3",
            "ticks": 37152,
            "time": 72.5625,
            "velocity": 0.3937007874015748
          },
          {
            "duration": 0.1875,
            "durationTicks": 96,
            "midi": 68,
            "name": "G#4",
            "ticks": 37248,
            "time": 72.75,
            "velocity": 0.3937007874015748
          },
          {
            "duration": 0.1875,
            "durationTicks": 96,
            "midi": 56,
            "name": "G#3",
            "ticks": 37248,
            "time": 72.75,
            "velocity": 0.3937007874015748
          },
          {
            "duration": 0.1875,
            "durationTicks": 96,
            "midi": 30,
            "name": "F#1",
            "ticks": 37248,
            "time": 72.75,
            "velocity": 0.3937007874015748
          },
          {
            "duration": 0.1875,
            "durationTicks": 96,
            "midi": 30,
            "name": "F#1",
            "ticks": 37344,
            "time": 72.9375,
            "velocity": 0.3937007874015748
          },
          {
            "duration": 0.1875,
            "durationTicks": 96,
            "midi": 42,
            "name": "F#2",
            "ticks": 37344,
            "time": 72.9375,
            "velocity": 0.3937007874015748
          },
          {
            "duration": 0.1875,
            "durationTicks": 96,
            "midi": 56,
            "name": "G#3",
            "ticks": 37344,
            "time": 72.9375,
            "velocity": 0.3937007874015748
          },
          {
            "duration": 0.1875,
            "durationTicks": 96,
            "midi": 68,
            "name": "G#4",
            "ticks": 37344,
            "time": 72.9375,
            "velocity": 0.3937007874015748
          },
          {
            "duration": 0.1875,
            "durationTicks": 96,
            "midi": 54,
            "name": "F#3",
            "ticks": 37440,
            "time": 73.125,
            "velocity": 0.3937007874015748
          },
          {
            "duration": 0.1875,
            "durationTicks": 96,
            "midi": 45,
            "name": "A2",
            "ticks": 37440,
            "time": 73.125,
            "velocity": 0.3937007874015748
          },
          {
            "duration": 0.1875,
            "durationTicks": 96,
            "midi": 68,
            "name": "G#4",
            "ticks": 37440,
            "time": 73.125,
            "velocity": 0.3937007874015748
          },
          {
            "duration": 0.1875,
            "durationTicks": 96,
            "midi": 66,
            "name": "F#4",
            "ticks": 37440,
            "time": 73.125,
            "velocity": 0.3937007874015748
          },
          {
            "duration": 0.1875,
            "durationTicks": 96,
            "midi": 33,
            "name": "A1",
            "ticks": 37440,
            "time": 73.125,
            "velocity": 0.3937007874015748
          },
          {
            "duration": 0.1875,
            "durationTicks": 96,
            "midi": 56,
            "name": "G#3",
            "ticks": 37440,
            "time": 73.125,
            "velocity": 0.3937007874015748
          },
          {
            "duration": 0.1875,
            "durationTicks": 96,
            "midi": 32,
            "name": "G#1",
            "ticks": 37536,
            "time": 73.3125,
            "velocity": 0.3937007874015748
          },
          {
            "duration": 0.1875,
            "durationTicks": 96,
            "midi": 69,
            "name": "A4",
            "ticks": 37536,
            "time": 73.3125,
            "velocity": 0.3937007874015748
          },
          {
            "duration": 0.1875,
            "durationTicks": 96,
            "midi": 57,
            "name": "A3",
            "ticks": 37536,
            "time": 73.3125,
            "velocity": 0.3937007874015748
          },
          {
            "duration": 0.1875,
            "durationTicks": 96,
            "midi": 30,
            "name": "F#1",
            "ticks": 37632,
            "time": 73.5,
            "velocity": 0.3937007874015748
          },
          {
            "duration": 0.1875,
            "durationTicks": 96,
            "midi": 57,
            "name": "A3",
            "ticks": 37632,
            "time": 73.5,
            "velocity": 0.3937007874015748
          },
          {
            "duration": 0.1875,
            "durationTicks": 96,
            "midi": 69,
            "name": "A4",
            "ticks": 37632,
            "time": 73.5,
            "velocity": 0.3937007874015748
          },
          {
            "duration": 0.1875,
            "durationTicks": 96,
            "midi": 42,
            "name": "F#2",
            "ticks": 37632,
            "time": 73.5,
            "velocity": 0.3937007874015748
          },
          {
            "duration": 0.1875,
            "durationTicks": 96,
            "midi": 57,
            "name": "A3",
            "ticks": 37728,
            "time": 73.6875,
            "velocity": 0.3937007874015748
          },
          {
            "duration": 0.1875,
            "durationTicks": 96,
            "midi": 30,
            "name": "F#1",
            "ticks": 37728,
            "time": 73.6875,
            "velocity": 0.3937007874015748
          },
          {
            "duration": 0.1875,
            "durationTicks": 96,
            "midi": 69,
            "name": "A4",
            "ticks": 37728,
            "time": 73.6875,
            "velocity": 0.3937007874015748
          },
          {
            "duration": 0.1875,
            "durationTicks": 96,
            "midi": 69,
            "name": "A4",
            "ticks": 37824,
            "time": 73.875,
            "velocity": 0.3937007874015748
          },
          {
            "duration": 0.1875,
            "durationTicks": 96,
            "midi": 57,
            "name": "A3",
            "ticks": 37824,
            "time": 73.875,
            "velocity": 0.3937007874015748
          },
          {
            "duration": 0.1875,
            "durationTicks": 96,
            "midi": 66,
            "name": "F#4",
            "ticks": 37824,
            "time": 73.875,
            "velocity": 0.3937007874015748
          },
          {
            "duration": 0.1875,
            "durationTicks": 96,
            "midi": 30,
            "name": "F#1",
            "ticks": 37824,
            "time": 73.875,
            "velocity": 0.3937007874015748
          },
          {
            "duration": 0.1875,
            "durationTicks": 96,
            "midi": 54,
            "name": "F#3",
            "ticks": 37824,
            "time": 73.875,
            "velocity": 0.3937007874015748
          },
          {
            "duration": 0.1875,
            "durationTicks": 96,
            "midi": 66,
            "name": "F#4",
            "ticks": 37920,
            "time": 74.0625,
            "velocity": 0.3937007874015748
          },
          {
            "duration": 0.1875,
            "durationTicks": 96,
            "midi": 57,
            "name": "A3",
            "ticks": 37920,
            "time": 74.0625,
            "velocity": 0.3937007874015748
          },
          {
            "duration": 0.1875,
            "durationTicks": 96,
            "midi": 42,
            "name": "F#2",
            "ticks": 37920,
            "time": 74.0625,
            "velocity": 0.3937007874015748
          },
          {
            "duration": 0.1875,
            "durationTicks": 96,
            "midi": 30,
            "name": "F#1",
            "ticks": 37920,
            "time": 74.0625,
            "velocity": 0.3937007874015748
          },
          {
            "duration": 0.1875,
            "durationTicks": 96,
            "midi": 69,
            "name": "A4",
            "ticks": 37920,
            "time": 74.0625,
            "velocity": 0.3937007874015748
          },
          {
            "duration": 0.1875,
            "durationTicks": 96,
            "midi": 54,
            "name": "F#3",
            "ticks": 37920,
            "time": 74.0625,
            "velocity": 0.3937007874015748
          },
          {
            "duration": 0.1875,
            "durationTicks": 96,
            "midi": 30,
            "name": "F#1",
            "ticks": 38016,
            "time": 74.25,
            "velocity": 0.3937007874015748
          },
          {
            "duration": 0.1875,
            "durationTicks": 96,
            "midi": 33,
            "name": "A1",
            "ticks": 38112,
            "time": 74.4375,
            "velocity": 0.3937007874015748
          },
          {
            "duration": 0.1875,
            "durationTicks": 96,
            "midi": 45,
            "name": "A2",
            "ticks": 38112,
            "time": 74.4375,
            "velocity": 0.3937007874015748
          },
          {
            "duration": 0.1875,
            "durationTicks": 96,
            "midi": 57,
            "name": "A3",
            "ticks": 38208,
            "time": 74.625,
            "velocity": 0.3937007874015748
          },
          {
            "duration": 0.1875,
            "durationTicks": 96,
            "midi": 68,
            "name": "G#4",
            "ticks": 38208,
            "time": 74.625,
            "velocity": 0.3937007874015748
          },
          {
            "duration": 0.1875,
            "durationTicks": 96,
            "midi": 56,
            "name": "G#3",
            "ticks": 38208,
            "time": 74.625,
            "velocity": 0.3937007874015748
          },
          {
            "duration": 0.1875,
            "durationTicks": 96,
            "midi": 69,
            "name": "A4",
            "ticks": 38208,
            "time": 74.625,
            "velocity": 0.3937007874015748
          },
          {
            "duration": 0.1875,
            "durationTicks": 96,
            "midi": 32,
            "name": "G#1",
            "ticks": 38208,
            "time": 74.625,
            "velocity": 0.3937007874015748
          },
          {
            "duration": 0.1875,
            "durationTicks": 96,
            "midi": 44,
            "name": "G#2",
            "ticks": 38208,
            "time": 74.625,
            "velocity": 0.3937007874015748
          },
          {
            "duration": 0.1875,
            "durationTicks": 96,
            "midi": 30,
            "name": "F#1",
            "ticks": 38304,
            "time": 74.8125,
            "velocity": 0.3937007874015748
          },
          {
            "duration": 0.1875,
            "durationTicks": 96,
            "midi": 57,
            "name": "A3",
            "ticks": 38304,
            "time": 74.8125,
            "velocity": 0.3937007874015748
          },
          {
            "duration": 0.1875,
            "durationTicks": 96,
            "midi": 69,
            "name": "A4",
            "ticks": 38304,
            "time": 74.8125,
            "velocity": 0.3937007874015748
          },
          {
            "duration": 0.1875,
            "durationTicks": 96,
            "midi": 42,
            "name": "F#2",
            "ticks": 38304,
            "time": 74.8125,
            "velocity": 0.3937007874015748
          },
          {
            "duration": 0.1875,
            "durationTicks": 96,
            "midi": 56,
            "name": "G#3",
            "ticks": 38400,
            "time": 75,
            "velocity": 0.3937007874015748
          },
          {
            "duration": 0.1875,
            "durationTicks": 96,
            "midi": 29,
            "name": "F1",
            "ticks": 38400,
            "time": 75,
            "velocity": 0.3937007874015748
          },
          {
            "duration": 0.1875,
            "durationTicks": 96,
            "midi": 41,
            "name": "F2",
            "ticks": 38400,
            "time": 75,
            "velocity": 0.3937007874015748
          },
          {
            "duration": 0.1875,
            "durationTicks": 96,
            "midi": 68,
            "name": "G#4",
            "ticks": 38400,
            "time": 75,
            "velocity": 0.3937007874015748
          },
          {
            "duration": 0.1875,
            "durationTicks": 96,
            "midi": 68,
            "name": "G#4",
            "ticks": 38496,
            "time": 75.1875,
            "velocity": 0.3937007874015748
          },
          {
            "duration": 0.1875,
            "durationTicks": 96,
            "midi": 56,
            "name": "G#3",
            "ticks": 38496,
            "time": 75.1875,
            "velocity": 0.3937007874015748
          },
          {
            "duration": 0.1875,
            "durationTicks": 96,
            "midi": 29,
            "name": "F1",
            "ticks": 38496,
            "time": 75.1875,
            "velocity": 0.3937007874015748
          },
          {
            "duration": 0.1875,
            "durationTicks": 96,
            "midi": 65,
            "name": "F4",
            "ticks": 38592,
            "time": 75.375,
            "velocity": 0.3937007874015748
          },
          {
            "duration": 0.1875,
            "durationTicks": 96,
            "midi": 53,
            "name": "F3",
            "ticks": 38592,
            "time": 75.375,
            "velocity": 0.3937007874015748
          },
          {
            "duration": 0.1875,
            "durationTicks": 96,
            "midi": 29,
            "name": "F1",
            "ticks": 38592,
            "time": 75.375,
            "velocity": 0.3937007874015748
          },
          {
            "duration": 0.1875,
            "durationTicks": 96,
            "midi": 56,
            "name": "G#3",
            "ticks": 38592,
            "time": 75.375,
            "velocity": 0.3937007874015748
          },
          {
            "duration": 0.1875,
            "durationTicks": 96,
            "midi": 68,
            "name": "G#4",
            "ticks": 38592,
            "time": 75.375,
            "velocity": 0.3937007874015748
          },
          {
            "duration": 0.1875,
            "durationTicks": 96,
            "midi": 65,
            "name": "F4",
            "ticks": 38688,
            "time": 75.5625,
            "velocity": 0.3937007874015748
          },
          {
            "duration": 0.1875,
            "durationTicks": 96,
            "midi": 68,
            "name": "G#4",
            "ticks": 38688,
            "time": 75.5625,
            "velocity": 0.3937007874015748
          },
          {
            "duration": 0.1875,
            "durationTicks": 96,
            "midi": 29,
            "name": "F1",
            "ticks": 38688,
            "time": 75.5625,
            "velocity": 0.3937007874015748
          },
          {
            "duration": 0.1875,
            "durationTicks": 96,
            "midi": 53,
            "name": "F3",
            "ticks": 38688,
            "time": 75.5625,
            "velocity": 0.3937007874015748
          },
          {
            "duration": 0.1875,
            "durationTicks": 96,
            "midi": 41,
            "name": "F2",
            "ticks": 38688,
            "time": 75.5625,
            "velocity": 0.3937007874015748
          },
          {
            "duration": 0.1875,
            "durationTicks": 96,
            "midi": 56,
            "name": "G#3",
            "ticks": 38688,
            "time": 75.5625,
            "velocity": 0.3937007874015748
          },
          {
            "duration": 0.1875,
            "durationTicks": 96,
            "midi": 29,
            "name": "F1",
            "ticks": 38784,
            "time": 75.75,
            "velocity": 0.3937007874015748
          },
          {
            "duration": 0.1875,
            "durationTicks": 96,
            "midi": 68,
            "name": "G#4",
            "ticks": 38784,
            "time": 75.75,
            "velocity": 0.3937007874015748
          },
          {
            "duration": 0.1875,
            "durationTicks": 96,
            "midi": 56,
            "name": "G#3",
            "ticks": 38784,
            "time": 75.75,
            "velocity": 0.3937007874015748
          },
          {
            "duration": 0.1875,
            "durationTicks": 96,
            "midi": 29,
            "name": "F1",
            "ticks": 38880,
            "time": 75.9375,
            "velocity": 0.3937007874015748
          },
          {
            "duration": 0.1875,
            "durationTicks": 96,
            "midi": 53,
            "name": "F3",
            "ticks": 38880,
            "time": 75.9375,
            "velocity": 0.3937007874015748
          },
          {
            "duration": 0.1875,
            "durationTicks": 96,
            "midi": 41,
            "name": "F2",
            "ticks": 38880,
            "time": 75.9375,
            "velocity": 0.3937007874015748
          },
          {
            "duration": 0.1875,
            "durationTicks": 96,
            "midi": 65,
            "name": "F4",
            "ticks": 38880,
            "time": 75.9375,
            "velocity": 0.3937007874015748
          },
          {
            "duration": 0.1875,
            "durationTicks": 96,
            "midi": 65,
            "name": "F4",
            "ticks": 38976,
            "time": 76.125,
            "velocity": 0.3937007874015748
          },
          {
            "duration": 0.1875,
            "durationTicks": 96,
            "midi": 53,
            "name": "F3",
            "ticks": 38976,
            "time": 76.125,
            "velocity": 0.3937007874015748
          },
          {
            "duration": 0.1875,
            "durationTicks": 96,
            "midi": 29,
            "name": "F1",
            "ticks": 38976,
            "time": 76.125,
            "velocity": 0.3937007874015748
          },
          {
            "duration": 0.1875,
            "durationTicks": 96,
            "midi": 41,
            "name": "F2",
            "ticks": 38976,
            "time": 76.125,
            "velocity": 0.3937007874015748
          },
          {
            "duration": 0.1875,
            "durationTicks": 96,
            "midi": 28,
            "name": "E1",
            "ticks": 39072,
            "time": 76.3125,
            "velocity": 0.3937007874015748
          },
          {
            "duration": 0.1875,
            "durationTicks": 96,
            "midi": 53,
            "name": "F3",
            "ticks": 39168,
            "time": 76.5,
            "velocity": 0.3937007874015748
          },
          {
            "duration": 0.1875,
            "durationTicks": 96,
            "midi": 65,
            "name": "F4",
            "ticks": 39168,
            "time": 76.5,
            "velocity": 0.3937007874015748
          },
          {
            "duration": 0.1875,
            "durationTicks": 96,
            "midi": 26,
            "name": "D1",
            "ticks": 39168,
            "time": 76.5,
            "velocity": 0.3937007874015748
          },
          {
            "duration": 0.1875,
            "durationTicks": 96,
            "midi": 38,
            "name": "D2",
            "ticks": 39168,
            "time": 76.5,
            "velocity": 0.3937007874015748
          },
          {
            "duration": 0.1875,
            "durationTicks": 96,
            "midi": 26,
            "name": "D1",
            "ticks": 39264,
            "time": 76.6875,
            "velocity": 0.3937007874015748
          },
          {
            "duration": 0.1875,
            "durationTicks": 96,
            "midi": 26,
            "name": "D1",
            "ticks": 39360,
            "time": 76.875,
            "velocity": 0.3937007874015748
          },
          {
            "duration": 0.1875,
            "durationTicks": 96,
            "midi": 66,
            "name": "F#4",
            "ticks": 39360,
            "time": 76.875,
            "velocity": 0.3937007874015748
          },
          {
            "duration": 0.1875,
            "durationTicks": 96,
            "midi": 54,
            "name": "F#3",
            "ticks": 39360,
            "time": 76.875,
            "velocity": 0.3937007874015748
          },
          {
            "duration": 0.1875,
            "durationTicks": 96,
            "midi": 66,
            "name": "F#4",
            "ticks": 39456,
            "time": 77.0625,
            "velocity": 0.3937007874015748
          },
          {
            "duration": 0.1875,
            "durationTicks": 96,
            "midi": 54,
            "name": "F#3",
            "ticks": 39456,
            "time": 77.0625,
            "velocity": 0.3937007874015748
          },
          {
            "duration": 0.1875,
            "durationTicks": 96,
            "midi": 38,
            "name": "D2",
            "ticks": 39456,
            "time": 77.0625,
            "velocity": 0.3937007874015748
          },
          {
            "duration": 0.1875,
            "durationTicks": 96,
            "midi": 26,
            "name": "D1",
            "ticks": 39456,
            "time": 77.0625,
            "velocity": 0.3937007874015748
          },
          {
            "duration": 0.1875,
            "durationTicks": 96,
            "midi": 26,
            "name": "D1",
            "ticks": 39552,
            "time": 77.25,
            "velocity": 0.3937007874015748
          },
          {
            "duration": 0.1875,
            "durationTicks": 96,
            "midi": 26,
            "name": "D1",
            "ticks": 39648,
            "time": 77.4375,
            "velocity": 0.3937007874015748
          },
          {
            "duration": 0.1875,
            "durationTicks": 96,
            "midi": 64,
            "name": "E4",
            "ticks": 39744,
            "time": 77.625,
            "velocity": 0.3937007874015748
          },
          {
            "duration": 0.1875,
            "durationTicks": 96,
            "midi": 28,
            "name": "E1",
            "ticks": 39744,
            "time": 77.625,
            "velocity": 0.3937007874015748
          },
          {
            "duration": 0.1875,
            "durationTicks": 96,
            "midi": 52,
            "name": "E3",
            "ticks": 39744,
            "time": 77.625,
            "velocity": 0.3937007874015748
          },
          {
            "duration": 0.1875,
            "durationTicks": 96,
            "midi": 54,
            "name": "F#3",
            "ticks": 39744,
            "time": 77.625,
            "velocity": 0.3937007874015748
          },
          {
            "duration": 0.1875,
            "durationTicks": 96,
            "midi": 40,
            "name": "E2",
            "ticks": 39744,
            "time": 77.625,
            "velocity": 0.3937007874015748
          },
          {
            "duration": 0.1875,
            "durationTicks": 96,
            "midi": 66,
            "name": "F#4",
            "ticks": 39744,
            "time": 77.625,
            "velocity": 0.3937007874015748
          },
          {
            "duration": 0.1875,
            "durationTicks": 96,
            "midi": 53,
            "name": "F3",
            "ticks": 39840,
            "time": 77.8125,
            "velocity": 0.3937007874015748
          },
          {
            "duration": 0.1875,
            "durationTicks": 96,
            "midi": 29,
            "name": "F1",
            "ticks": 39840,
            "time": 77.8125,
            "velocity": 0.3937007874015748
          },
          {
            "duration": 0.1875,
            "durationTicks": 96,
            "midi": 41,
            "name": "F2",
            "ticks": 39840,
            "time": 77.8125,
            "velocity": 0.3937007874015748
          },
          {
            "duration": 0.1875,
            "durationTicks": 96,
            "midi": 65,
            "name": "F4",
            "ticks": 39840,
            "time": 77.8125,
            "velocity": 0.3937007874015748
          },
          {
            "duration": 0.1875,
            "durationTicks": 96,
            "midi": 54,
            "name": "F#3",
            "ticks": 39936,
            "time": 78,
            "velocity": 0.3937007874015748
          },
          {
            "duration": 0.1875,
            "durationTicks": 96,
            "midi": 30,
            "name": "F#1",
            "ticks": 39936,
            "time": 78,
            "velocity": 0.3937007874015748
          },
          {
            "duration": 0.1875,
            "durationTicks": 96,
            "midi": 66,
            "name": "F#4",
            "ticks": 39936,
            "time": 78,
            "velocity": 0.3937007874015748
          },
          {
            "duration": 0.1875,
            "durationTicks": 96,
            "midi": 42,
            "name": "F#2",
            "ticks": 39936,
            "time": 78,
            "velocity": 0.3937007874015748
          },
          {
            "duration": 0.1875,
            "durationTicks": 96,
            "midi": 66,
            "name": "F#4",
            "ticks": 40032,
            "time": 78.1875,
            "velocity": 0.3937007874015748
          },
          {
            "duration": 0.1875,
            "durationTicks": 96,
            "midi": 30,
            "name": "F#1",
            "ticks": 40032,
            "time": 78.1875,
            "velocity": 0.3937007874015748
          },
          {
            "duration": 0.1875,
            "durationTicks": 96,
            "midi": 54,
            "name": "F#3",
            "ticks": 40032,
            "time": 78.1875,
            "velocity": 0.3937007874015748
          },
          {
            "duration": 0.1875,
            "durationTicks": 96,
            "midi": 54,
            "name": "F#3",
            "ticks": 40128,
            "time": 78.375,
            "velocity": 0.3937007874015748
          },
          {
            "duration": 0.1875,
            "durationTicks": 96,
            "midi": 30,
            "name": "F#1",
            "ticks": 40128,
            "time": 78.375,
            "velocity": 0.3937007874015748
          },
          {
            "duration": 0.1875,
            "durationTicks": 96,
            "midi": 66,
            "name": "F#4",
            "ticks": 40128,
            "time": 78.375,
            "velocity": 0.3937007874015748
          },
          {
            "duration": 0.1875,
            "durationTicks": 96,
            "midi": 66,
            "name": "F#4",
            "ticks": 40224,
            "time": 78.5625,
            "velocity": 0.3937007874015748
          },
          {
            "duration": 0.1875,
            "durationTicks": 96,
            "midi": 54,
            "name": "F#3",
            "ticks": 40224,
            "time": 78.5625,
            "velocity": 0.3937007874015748
          },
          {
            "duration": 0.1875,
            "durationTicks": 96,
            "midi": 30,
            "name": "F#1",
            "ticks": 40224,
            "time": 78.5625,
            "velocity": 0.3937007874015748
          },
          {
            "duration": 0.1875,
            "durationTicks": 96,
            "midi": 42,
            "name": "F#2",
            "ticks": 40224,
            "time": 78.5625,
            "velocity": 0.3937007874015748
          },
          {
            "duration": 0.1875,
            "durationTicks": 96,
            "midi": 56,
            "name": "G#3",
            "ticks": 40320,
            "time": 78.75,
            "velocity": 0.3937007874015748
          },
          {
            "duration": 0.1875,
            "durationTicks": 96,
            "midi": 30,
            "name": "F#1",
            "ticks": 40320,
            "time": 78.75,
            "velocity": 0.3937007874015748
          },
          {
            "duration": 0.1875,
            "durationTicks": 96,
            "midi": 68,
            "name": "G#4",
            "ticks": 40320,
            "time": 78.75,
            "velocity": 0.3937007874015748
          },
          {
            "duration": 0.1875,
            "durationTicks": 96,
            "midi": 68,
            "name": "G#4",
            "ticks": 40416,
            "time": 78.9375,
            "velocity": 0.3937007874015748
          },
          {
            "duration": 0.1875,
            "durationTicks": 96,
            "midi": 56,
            "name": "G#3",
            "ticks": 40416,
            "time": 78.9375,
            "velocity": 0.3937007874015748
          },
          {
            "duration": 0.1875,
            "durationTicks": 96,
            "midi": 30,
            "name": "F#1",
            "ticks": 40416,
            "time": 78.9375,
            "velocity": 0.3937007874015748
          },
          {
            "duration": 0.1875,
            "durationTicks": 96,
            "midi": 42,
            "name": "F#2",
            "ticks": 40416,
            "time": 78.9375,
            "velocity": 0.3937007874015748
          },
          {
            "duration": 0.1875,
            "durationTicks": 96,
            "midi": 56,
            "name": "G#3",
            "ticks": 40512,
            "time": 79.125,
            "velocity": 0.3937007874015748
          },
          {
            "duration": 0.1875,
            "durationTicks": 96,
            "midi": 54,
            "name": "F#3",
            "ticks": 40512,
            "time": 79.125,
            "velocity": 0.3937007874015748
          },
          {
            "duration": 0.1875,
            "durationTicks": 96,
            "midi": 33,
            "name": "A1",
            "ticks": 40512,
            "time": 79.125,
            "velocity": 0.3937007874015748
          },
          {
            "duration": 0.1875,
            "durationTicks": 96,
            "midi": 68,
            "name": "G#4",
            "ticks": 40512,
            "time": 79.125,
            "velocity": 0.3937007874015748
          },
          {
            "duration": 0.1875,
            "durationTicks": 96,
            "midi": 45,
            "name": "A2",
            "ticks": 40512,
            "time": 79.125,
            "velocity": 0.3937007874015748
          },
          {
            "duration": 0.1875,
            "durationTicks": 96,
            "midi": 66,
            "name": "F#4",
            "ticks": 40512,
            "time": 79.125,
            "velocity": 0.3937007874015748
          },
          {
            "duration": 0.1875,
            "durationTicks": 96,
            "midi": 57,
            "name": "A3",
            "ticks": 40608,
            "time": 79.3125,
            "velocity": 0.3937007874015748
          },
          {
            "duration": 0.1875,
            "durationTicks": 96,
            "midi": 69,
            "name": "A4",
            "ticks": 40608,
            "time": 79.3125,
            "velocity": 0.3937007874015748
          },
          {
            "duration": 0.1875,
            "durationTicks": 96,
            "midi": 32,
            "name": "G#1",
            "ticks": 40608,
            "time": 79.3125,
            "velocity": 0.3937007874015748
          },
          {
            "duration": 0.1875,
            "durationTicks": 96,
            "midi": 42,
            "name": "F#2",
            "ticks": 40704,
            "time": 79.5,
            "velocity": 0.3937007874015748
          },
          {
            "duration": 0.1875,
            "durationTicks": 96,
            "midi": 30,
            "name": "F#1",
            "ticks": 40704,
            "time": 79.5,
            "velocity": 0.3937007874015748
          },
          {
            "duration": 0.1875,
            "durationTicks": 96,
            "midi": 57,
            "name": "A3",
            "ticks": 40704,
            "time": 79.5,
            "velocity": 0.3937007874015748
          },
          {
            "duration": 0.1875,
            "durationTicks": 96,
            "midi": 69,
            "name": "A4",
            "ticks": 40704,
            "time": 79.5,
            "velocity": 0.3937007874015748
          },
          {
            "duration": 0.1875,
            "durationTicks": 96,
            "midi": 57,
            "name": "A3",
            "ticks": 40800,
            "time": 79.6875,
            "velocity": 0.3937007874015748
          },
          {
            "duration": 0.1875,
            "durationTicks": 96,
            "midi": 30,
            "name": "F#1",
            "ticks": 40800,
            "time": 79.6875,
            "velocity": 0.3937007874015748
          },
          {
            "duration": 0.1875,
            "durationTicks": 96,
            "midi": 69,
            "name": "A4",
            "ticks": 40800,
            "time": 79.6875,
            "velocity": 0.3937007874015748
          },
          {
            "duration": 0.1875,
            "durationTicks": 96,
            "midi": 30,
            "name": "F#1",
            "ticks": 40896,
            "time": 79.875,
            "velocity": 0.3937007874015748
          },
          {
            "duration": 0.1875,
            "durationTicks": 96,
            "midi": 66,
            "name": "F#4",
            "ticks": 40896,
            "time": 79.875,
            "velocity": 0.3937007874015748
          },
          {
            "duration": 0.1875,
            "durationTicks": 96,
            "midi": 57,
            "name": "A3",
            "ticks": 40896,
            "time": 79.875,
            "velocity": 0.3937007874015748
          },
          {
            "duration": 0.1875,
            "durationTicks": 96,
            "midi": 69,
            "name": "A4",
            "ticks": 40896,
            "time": 79.875,
            "velocity": 0.3937007874015748
          },
          {
            "duration": 0.1875,
            "durationTicks": 96,
            "midi": 54,
            "name": "F#3",
            "ticks": 40896,
            "time": 79.875,
            "velocity": 0.3937007874015748
          },
          {
            "duration": 0.1875,
            "durationTicks": 96,
            "midi": 42,
            "name": "F#2",
            "ticks": 40992,
            "time": 80.0625,
            "velocity": 0.3937007874015748
          },
          {
            "duration": 0.1875,
            "durationTicks": 96,
            "midi": 66,
            "name": "F#4",
            "ticks": 40992,
            "time": 80.0625,
            "velocity": 0.3937007874015748
          },
          {
            "duration": 0.1875,
            "durationTicks": 96,
            "midi": 69,
            "name": "A4",
            "ticks": 40992,
            "time": 80.0625,
            "velocity": 0.3937007874015748
          },
          {
            "duration": 0.1875,
            "durationTicks": 96,
            "midi": 30,
            "name": "F#1",
            "ticks": 40992,
            "time": 80.0625,
            "velocity": 0.3937007874015748
          },
          {
            "duration": 0.1875,
            "durationTicks": 96,
            "midi": 57,
            "name": "A3",
            "ticks": 40992,
            "time": 80.0625,
            "velocity": 0.3937007874015748
          },
          {
            "duration": 0.1875,
            "durationTicks": 96,
            "midi": 54,
            "name": "F#3",
            "ticks": 40992,
            "time": 80.0625,
            "velocity": 0.3937007874015748
          },
          {
            "duration": 0.1875,
            "durationTicks": 96,
            "midi": 30,
            "name": "F#1",
            "ticks": 41088,
            "time": 80.25,
            "velocity": 0.3937007874015748
          },
          {
            "duration": 0.1875,
            "durationTicks": 96,
            "midi": 33,
            "name": "A1",
            "ticks": 41184,
            "time": 80.4375,
            "velocity": 0.3937007874015748
          },
          {
            "duration": 0.1875,
            "durationTicks": 96,
            "midi": 45,
            "name": "A2",
            "ticks": 41184,
            "time": 80.4375,
            "velocity": 0.3937007874015748
          },
          {
            "duration": 0.1875,
            "durationTicks": 96,
            "midi": 57,
            "name": "A3",
            "ticks": 41280,
            "time": 80.625,
            "velocity": 0.3937007874015748
          },
          {
            "duration": 0.1875,
            "durationTicks": 96,
            "midi": 56,
            "name": "G#3",
            "ticks": 41280,
            "time": 80.625,
            "velocity": 0.3937007874015748
          },
          {
            "duration": 0.1875,
            "durationTicks": 96,
            "midi": 69,
            "name": "A4",
            "ticks": 41280,
            "time": 80.625,
            "velocity": 0.3937007874015748
          },
          {
            "duration": 0.1875,
            "durationTicks": 96,
            "midi": 32,
            "name": "G#1",
            "ticks": 41280,
            "time": 80.625,
            "velocity": 0.3937007874015748
          },
          {
            "duration": 0.1875,
            "durationTicks": 96,
            "midi": 68,
            "name": "G#4",
            "ticks": 41280,
            "time": 80.625,
            "velocity": 0.3937007874015748
          },
          {
            "duration": 0.1875,
            "durationTicks": 96,
            "midi": 44,
            "name": "G#2",
            "ticks": 41280,
            "time": 80.625,
            "velocity": 0.3937007874015748
          },
          {
            "duration": 0.1875,
            "durationTicks": 96,
            "midi": 57,
            "name": "A3",
            "ticks": 41376,
            "time": 80.8125,
            "velocity": 0.3937007874015748
          },
          {
            "duration": 0.1875,
            "durationTicks": 96,
            "midi": 69,
            "name": "A4",
            "ticks": 41376,
            "time": 80.8125,
            "velocity": 0.3937007874015748
          },
          {
            "duration": 0.1875,
            "durationTicks": 96,
            "midi": 42,
            "name": "F#2",
            "ticks": 41376,
            "time": 80.8125,
            "velocity": 0.3937007874015748
          },
          {
            "duration": 0.1875,
            "durationTicks": 96,
            "midi": 30,
            "name": "F#1",
            "ticks": 41376,
            "time": 80.8125,
            "velocity": 0.3937007874015748
          },
          {
            "duration": 0.1875,
            "durationTicks": 96,
            "midi": 29,
            "name": "F1",
            "ticks": 41472,
            "time": 81,
            "velocity": 0.3937007874015748
          },
          {
            "duration": 0.1875,
            "durationTicks": 96,
            "midi": 56,
            "name": "G#3",
            "ticks": 41472,
            "time": 81,
            "velocity": 0.3937007874015748
          },
          {
            "duration": 0.1875,
            "durationTicks": 96,
            "midi": 41,
            "name": "F2",
            "ticks": 41472,
            "time": 81,
            "velocity": 0.3937007874015748
          },
          {
            "duration": 0.1875,
            "durationTicks": 96,
            "midi": 68,
            "name": "G#4",
            "ticks": 41472,
            "time": 81,
            "velocity": 0.3937007874015748
          },
          {
            "duration": 0.1875,
            "durationTicks": 96,
            "midi": 29,
            "name": "F1",
            "ticks": 41568,
            "time": 81.1875,
            "velocity": 0.3937007874015748
          },
          {
            "duration": 0.1875,
            "durationTicks": 96,
            "midi": 56,
            "name": "G#3",
            "ticks": 41568,
            "time": 81.1875,
            "velocity": 0.3937007874015748
          },
          {
            "duration": 0.1875,
            "durationTicks": 96,
            "midi": 68,
            "name": "G#4",
            "ticks": 41568,
            "time": 81.1875,
            "velocity": 0.3937007874015748
          },
          {
            "duration": 0.1875,
            "durationTicks": 96,
            "midi": 53,
            "name": "F3",
            "ticks": 41664,
            "time": 81.375,
            "velocity": 0.3937007874015748
          },
          {
            "duration": 0.1875,
            "durationTicks": 96,
            "midi": 65,
            "name": "F4",
            "ticks": 41664,
            "time": 81.375,
            "velocity": 0.3937007874015748
          },
          {
            "duration": 0.1875,
            "durationTicks": 96,
            "midi": 56,
            "name": "G#3",
            "ticks": 41664,
            "time": 81.375,
            "velocity": 0.3937007874015748
          },
          {
            "duration": 0.1875,
            "durationTicks": 96,
            "midi": 68,
            "name": "G#4",
            "ticks": 41664,
            "time": 81.375,
            "velocity": 0.3937007874015748
          },
          {
            "duration": 0.1875,
            "durationTicks": 96,
            "midi": 29,
            "name": "F1",
            "ticks": 41664,
            "time": 81.375,
            "velocity": 0.3937007874015748
          },
          {
            "duration": 0.1875,
            "durationTicks": 96,
            "midi": 68,
            "name": "G#4",
            "ticks": 41760,
            "time": 81.5625,
            "velocity": 0.3937007874015748
          },
          {
            "duration": 0.1875,
            "durationTicks": 96,
            "midi": 41,
            "name": "F2",
            "ticks": 41760,
            "time": 81.5625,
            "velocity": 0.3937007874015748
          },
          {
            "duration": 0.1875,
            "durationTicks": 96,
            "midi": 56,
            "name": "G#3",
            "ticks": 41760,
            "time": 81.5625,
            "velocity": 0.3937007874015748
          },
          {
            "duration": 0.1875,
            "durationTicks": 96,
            "midi": 29,
            "name": "F1",
            "ticks": 41760,
            "time": 81.5625,
            "velocity": 0.3937007874015748
          },
          {
            "duration": 0.1875,
            "durationTicks": 96,
            "midi": 65,
            "name": "F4",
            "ticks": 41760,
            "time": 81.5625,
            "velocity": 0.3937007874015748
          },
          {
            "duration": 0.1875,
            "durationTicks": 96,
            "midi": 53,
            "name": "F3",
            "ticks": 41760,
            "time": 81.5625,
            "velocity": 0.3937007874015748
          },
          {
            "duration": 0.1875,
            "durationTicks": 96,
            "midi": 68,
            "name": "G#4",
            "ticks": 41856,
            "time": 81.75,
            "velocity": 0.3937007874015748
          },
          {
            "duration": 0.1875,
            "durationTicks": 96,
            "midi": 56,
            "name": "G#3",
            "ticks": 41856,
            "time": 81.75,
            "velocity": 0.3937007874015748
          },
          {
            "duration": 0.1875,
            "durationTicks": 96,
            "midi": 29,
            "name": "F1",
            "ticks": 41856,
            "time": 81.75,
            "velocity": 0.3937007874015748
          },
          {
            "duration": 0.1875,
            "durationTicks": 96,
            "midi": 53,
            "name": "F3",
            "ticks": 41952,
            "time": 81.9375,
            "velocity": 0.3937007874015748
          },
          {
            "duration": 0.1875,
            "durationTicks": 96,
            "midi": 65,
            "name": "F4",
            "ticks": 41952,
            "time": 81.9375,
            "velocity": 0.3937007874015748
          },
          {
            "duration": 0.1875,
            "durationTicks": 96,
            "midi": 29,
            "name": "F1",
            "ticks": 41952,
            "time": 81.9375,
            "velocity": 0.3937007874015748
          },
          {
            "duration": 0.1875,
            "durationTicks": 96,
            "midi": 41,
            "name": "F2",
            "ticks": 41952,
            "time": 81.9375,
            "velocity": 0.3937007874015748
          },
          {
            "duration": 0.1875,
            "durationTicks": 96,
            "midi": 53,
            "name": "F3",
            "ticks": 42048,
            "time": 82.125,
            "velocity": 0.3937007874015748
          },
          {
            "duration": 0.1875,
            "durationTicks": 96,
            "midi": 29,
            "name": "F1",
            "ticks": 42048,
            "time": 82.125,
            "velocity": 0.3937007874015748
          },
          {
            "duration": 0.1875,
            "durationTicks": 96,
            "midi": 65,
            "name": "F4",
            "ticks": 42048,
            "time": 82.125,
            "velocity": 0.3937007874015748
          },
          {
            "duration": 0.1875,
            "durationTicks": 96,
            "midi": 41,
            "name": "F2",
            "ticks": 42048,
            "time": 82.125,
            "velocity": 0.3937007874015748
          },
          {
            "duration": 0.1875,
            "durationTicks": 96,
            "midi": 28,
            "name": "E1",
            "ticks": 42144,
            "time": 82.3125,
            "velocity": 0.3937007874015748
          },
          {
            "duration": 0.1875,
            "durationTicks": 96,
            "midi": 26,
            "name": "D1",
            "ticks": 42240,
            "time": 82.5,
            "velocity": 0.3937007874015748
          },
          {
            "duration": 0.1875,
            "durationTicks": 96,
            "midi": 53,
            "name": "F3",
            "ticks": 42240,
            "time": 82.5,
            "velocity": 0.3937007874015748
          },
          {
            "duration": 0.1875,
            "durationTicks": 96,
            "midi": 65,
            "name": "F4",
            "ticks": 42240,
            "time": 82.5,
            "velocity": 0.3937007874015748
          },
          {
            "duration": 0.1875,
            "durationTicks": 96,
            "midi": 38,
            "name": "D2",
            "ticks": 42240,
            "time": 82.5,
            "velocity": 0.3937007874015748
          },
          {
            "duration": 0.1875,
            "durationTicks": 96,
            "midi": 26,
            "name": "D1",
            "ticks": 42336,
            "time": 82.6875,
            "velocity": 0.3937007874015748
          },
          {
            "duration": 0.1875,
            "durationTicks": 96,
            "midi": 62,
            "name": "D4",
            "ticks": 42432,
            "time": 82.875,
            "velocity": 0.3937007874015748
          },
          {
            "duration": 0.1875,
            "durationTicks": 96,
            "midi": 26,
            "name": "D1",
            "ticks": 42432,
            "time": 82.875,
            "velocity": 0.3937007874015748
          },
          {
            "duration": 0.1875,
            "durationTicks": 96,
            "midi": 50,
            "name": "D3",
            "ticks": 42432,
            "time": 82.875,
            "velocity": 0.3937007874015748
          },
          {
            "duration": 0.1875,
            "durationTicks": 96,
            "midi": 62,
            "name": "D4",
            "ticks": 42528,
            "time": 83.0625,
            "velocity": 0.3937007874015748
          },
          {
            "duration": 0.1875,
            "durationTicks": 96,
            "midi": 50,
            "name": "D3",
            "ticks": 42528,
            "time": 83.0625,
            "velocity": 0.3937007874015748
          },
          {
            "duration": 0.1875,
            "durationTicks": 96,
            "midi": 38,
            "name": "D2",
            "ticks": 42528,
            "time": 83.0625,
            "velocity": 0.3937007874015748
          },
          {
            "duration": 0.1875,
            "durationTicks": 96,
            "midi": 26,
            "name": "D1",
            "ticks": 42528,
            "time": 83.0625,
            "velocity": 0.3937007874015748
          },
          {
            "duration": 0.1875,
            "durationTicks": 96,
            "midi": 26,
            "name": "D1",
            "ticks": 42624,
            "time": 83.25,
            "velocity": 0.3937007874015748
          },
          {
            "duration": 0.1875,
            "durationTicks": 96,
            "midi": 26,
            "name": "D1",
            "ticks": 42720,
            "time": 83.4375,
            "velocity": 0.3937007874015748
          },
          {
            "duration": 0.1875,
            "durationTicks": 96,
            "midi": 40,
            "name": "E2",
            "ticks": 42816,
            "time": 83.625,
            "velocity": 0.3937007874015748
          },
          {
            "duration": 0.1875,
            "durationTicks": 96,
            "midi": 65,
            "name": "F4",
            "ticks": 42816,
            "time": 83.625,
            "velocity": 0.3937007874015748
          },
          {
            "duration": 0.1875,
            "durationTicks": 96,
            "midi": 64,
            "name": "E4",
            "ticks": 42816,
            "time": 83.625,
            "velocity": 0.3937007874015748
          },
          {
            "duration": 0.1875,
            "durationTicks": 96,
            "midi": 28,
            "name": "E1",
            "ticks": 42816,
            "time": 83.625,
            "velocity": 0.3937007874015748
          },
          {
            "duration": 0.1875,
            "durationTicks": 96,
            "midi": 52,
            "name": "E3",
            "ticks": 42816,
            "time": 83.625,
            "velocity": 0.3937007874015748
          },
          {
            "duration": 0.1875,
            "durationTicks": 96,
            "midi": 53,
            "name": "F3",
            "ticks": 42816,
            "time": 83.625,
            "velocity": 0.3937007874015748
          },
          {
            "duration": 0.1875,
            "durationTicks": 96,
            "midi": 53,
            "name": "F3",
            "ticks": 42912,
            "time": 83.8125,
            "velocity": 0.3937007874015748
          },
          {
            "duration": 0.1875,
            "durationTicks": 96,
            "midi": 29,
            "name": "F1",
            "ticks": 42912,
            "time": 83.8125,
            "velocity": 0.3937007874015748
          },
          {
            "duration": 0.1875,
            "durationTicks": 96,
            "midi": 65,
            "name": "F4",
            "ticks": 42912,
            "time": 83.8125,
            "velocity": 0.3937007874015748
          },
          {
            "duration": 0.1875,
            "durationTicks": 96,
            "midi": 41,
            "name": "F2",
            "ticks": 42912,
            "time": 83.8125,
            "velocity": 0.3937007874015748
          },
          {
            "duration": 0.1875,
            "durationTicks": 96,
            "midi": 42,
            "name": "F#2",
            "ticks": 43008,
            "time": 84,
            "velocity": 0.3937007874015748
          },
          {
            "duration": 0.1875,
            "durationTicks": 96,
            "midi": 66,
            "name": "F#4",
            "ticks": 43008,
            "time": 84,
            "velocity": 0.3937007874015748
          },
          {
            "duration": 0.1875,
            "durationTicks": 96,
            "midi": 30,
            "name": "F#1",
            "ticks": 43008,
            "time": 84,
            "velocity": 0.3937007874015748
          },
          {
            "duration": 0.1875,
            "durationTicks": 96,
            "midi": 54,
            "name": "F#3",
            "ticks": 43008,
            "time": 84,
            "velocity": 0.3937007874015748
          },
          {
            "duration": 0.1875,
            "durationTicks": 96,
            "midi": 30,
            "name": "F#1",
            "ticks": 43104,
            "time": 84.1875,
            "velocity": 0.3937007874015748
          },
          {
            "duration": 0.1875,
            "durationTicks": 96,
            "midi": 66,
            "name": "F#4",
            "ticks": 43104,
            "time": 84.1875,
            "velocity": 0.3937007874015748
          },
          {
            "duration": 0.1875,
            "durationTicks": 96,
            "midi": 54,
            "name": "F#3",
            "ticks": 43104,
            "time": 84.1875,
            "velocity": 0.3937007874015748
          },
          {
            "duration": 0.1875,
            "durationTicks": 96,
            "midi": 66,
            "name": "F#4",
            "ticks": 43200,
            "time": 84.375,
            "velocity": 0.3937007874015748
          },
          {
            "duration": 0.1875,
            "durationTicks": 96,
            "midi": 30,
            "name": "F#1",
            "ticks": 43200,
            "time": 84.375,
            "velocity": 0.3937007874015748
          },
          {
            "duration": 0.1875,
            "durationTicks": 96,
            "midi": 54,
            "name": "F#3",
            "ticks": 43200,
            "time": 84.375,
            "velocity": 0.3937007874015748
          },
          {
            "duration": 0.1875,
            "durationTicks": 96,
            "midi": 54,
            "name": "F#3",
            "ticks": 43296,
            "time": 84.5625,
            "velocity": 0.3937007874015748
          },
          {
            "duration": 0.1875,
            "durationTicks": 96,
            "midi": 42,
            "name": "F#2",
            "ticks": 43296,
            "time": 84.5625,
            "velocity": 0.3937007874015748
          },
          {
            "duration": 0.1875,
            "durationTicks": 96,
            "midi": 30,
            "name": "F#1",
            "ticks": 43296,
            "time": 84.5625,
            "velocity": 0.3937007874015748
          },
          {
            "duration": 0.1875,
            "durationTicks": 96,
            "midi": 66,
            "name": "F#4",
            "ticks": 43296,
            "time": 84.5625,
            "velocity": 0.3937007874015748
          },
          {
            "duration": 0.1875,
            "durationTicks": 96,
            "midi": 56,
            "name": "G#3",
            "ticks": 43392,
            "time": 84.75,
            "velocity": 0.3937007874015748
          },
          {
            "duration": 0.1875,
            "durationTicks": 96,
            "midi": 30,
            "name": "F#1",
            "ticks": 43392,
            "time": 84.75,
            "velocity": 0.3937007874015748
          },
          {
            "duration": 0.1875,
            "durationTicks": 96,
            "midi": 68,
            "name": "G#4",
            "ticks": 43392,
            "time": 84.75,
            "velocity": 0.3937007874015748
          },
          {
            "duration": 0.1875,
            "durationTicks": 96,
            "midi": 42,
            "name": "F#2",
            "ticks": 43488,
            "time": 84.9375,
            "velocity": 0.3937007874015748
          },
          {
            "duration": 0.1875,
            "durationTicks": 96,
            "midi": 30,
            "name": "F#1",
            "ticks": 43488,
            "time": 84.9375,
            "velocity": 0.3937007874015748
          },
          {
            "duration": 0.1875,
            "durationTicks": 96,
            "midi": 68,
            "name": "G#4",
            "ticks": 43488,
            "time": 84.9375,
            "velocity": 0.3937007874015748
          },
          {
            "duration": 0.1875,
            "durationTicks": 96,
            "midi": 56,
            "name": "G#3",
            "ticks": 43488,
            "time": 84.9375,
            "velocity": 0.3937007874015748
          },
          {
            "duration": 0.1875,
            "durationTicks": 96,
            "midi": 45,
            "name": "A2",
            "ticks": 43584,
            "time": 85.125,
            "velocity": 0.3937007874015748
          },
          {
            "duration": 0.1875,
            "durationTicks": 96,
            "midi": 56,
            "name": "G#3",
            "ticks": 43584,
            "time": 85.125,
            "velocity": 0.3937007874015748
          },
          {
            "duration": 0.1875,
            "durationTicks": 96,
            "midi": 68,
            "name": "G#4",
            "ticks": 43584,
            "time": 85.125,
            "velocity": 0.3937007874015748
          },
          {
            "duration": 0.1875,
            "durationTicks": 96,
            "midi": 54,
            "name": "F#3",
            "ticks": 43584,
            "time": 85.125,
            "velocity": 0.3937007874015748
          },
          {
            "duration": 0.1875,
            "durationTicks": 96,
            "midi": 66,
            "name": "F#4",
            "ticks": 43584,
            "time": 85.125,
            "velocity": 0.3937007874015748
          },
          {
            "duration": 0.1875,
            "durationTicks": 96,
            "midi": 33,
            "name": "A1",
            "ticks": 43584,
            "time": 85.125,
            "velocity": 0.3937007874015748
          },
          {
            "duration": 0.1875,
            "durationTicks": 96,
            "midi": 57,
            "name": "A3",
            "ticks": 43680,
            "time": 85.3125,
            "velocity": 0.3937007874015748
          },
          {
            "duration": 0.1875,
            "durationTicks": 96,
            "midi": 69,
            "name": "A4",
            "ticks": 43680,
            "time": 85.3125,
            "velocity": 0.3937007874015748
          },
          {
            "duration": 0.1875,
            "durationTicks": 96,
            "midi": 32,
            "name": "G#1",
            "ticks": 43680,
            "time": 85.3125,
            "velocity": 0.3937007874015748
          },
          {
            "duration": 0.1875,
            "durationTicks": 96,
            "midi": 30,
            "name": "F#1",
            "ticks": 43776,
            "time": 85.5,
            "velocity": 0.3937007874015748
          },
          {
            "duration": 0.1875,
            "durationTicks": 96,
            "midi": 69,
            "name": "A4",
            "ticks": 43776,
            "time": 85.5,
            "velocity": 0.3937007874015748
          },
          {
            "duration": 0.1875,
            "durationTicks": 96,
            "midi": 57,
            "name": "A3",
            "ticks": 43776,
            "time": 85.5,
            "velocity": 0.3937007874015748
          },
          {
            "duration": 0.1875,
            "durationTicks": 96,
            "midi": 42,
            "name": "F#2",
            "ticks": 43776,
            "time": 85.5,
            "velocity": 0.3937007874015748
          },
          {
            "duration": 0.1875,
            "durationTicks": 96,
            "midi": 57,
            "name": "A3",
            "ticks": 43872,
            "time": 85.6875,
            "velocity": 0.3937007874015748
          },
          {
            "duration": 0.1875,
            "durationTicks": 96,
            "midi": 30,
            "name": "F#1",
            "ticks": 43872,
            "time": 85.6875,
            "velocity": 0.3937007874015748
          },
          {
            "duration": 0.1875,
            "durationTicks": 96,
            "midi": 69,
            "name": "A4",
            "ticks": 43872,
            "time": 85.6875,
            "velocity": 0.3937007874015748
          },
          {
            "duration": 0.1875,
            "durationTicks": 96,
            "midi": 69,
            "name": "A4",
            "ticks": 43968,
            "time": 85.875,
            "velocity": 0.3937007874015748
          },
          {
            "duration": 0.1875,
            "durationTicks": 96,
            "midi": 57,
            "name": "A3",
            "ticks": 43968,
            "time": 85.875,
            "velocity": 0.3937007874015748
          },
          {
            "duration": 0.1875,
            "durationTicks": 96,
            "midi": 54,
            "name": "F#3",
            "ticks": 43968,
            "time": 85.875,
            "velocity": 0.3937007874015748
          },
          {
            "duration": 0.1875,
            "durationTicks": 96,
            "midi": 66,
            "name": "F#4",
            "ticks": 43968,
            "time": 85.875,
            "velocity": 0.3937007874015748
          },
          {
            "duration": 0.1875,
            "durationTicks": 96,
            "midi": 30,
            "name": "F#1",
            "ticks": 43968,
            "time": 85.875,
            "velocity": 0.3937007874015748
          },
          {
            "duration": 0.1875,
            "durationTicks": 96,
            "midi": 42,
            "name": "F#2",
            "ticks": 44064,
            "time": 86.0625,
            "velocity": 0.3937007874015748
          },
          {
            "duration": 0.1875,
            "durationTicks": 96,
            "midi": 54,
            "name": "F#3",
            "ticks": 44064,
            "time": 86.0625,
            "velocity": 0.3937007874015748
          },
          {
            "duration": 0.1875,
            "durationTicks": 96,
            "midi": 66,
            "name": "F#4",
            "ticks": 44064,
            "time": 86.0625,
            "velocity": 0.3937007874015748
          },
          {
            "duration": 0.1875,
            "durationTicks": 96,
            "midi": 57,
            "name": "A3",
            "ticks": 44064,
            "time": 86.0625,
            "velocity": 0.3937007874015748
          },
          {
            "duration": 0.1875,
            "durationTicks": 96,
            "midi": 30,
            "name": "F#1",
            "ticks": 44064,
            "time": 86.0625,
            "velocity": 0.3937007874015748
          },
          {
            "duration": 0.1875,
            "durationTicks": 96,
            "midi": 69,
            "name": "A4",
            "ticks": 44064,
            "time": 86.0625,
            "velocity": 0.3937007874015748
          },
          {
            "duration": 0.1875,
            "durationTicks": 96,
            "midi": 30,
            "name": "F#1",
            "ticks": 44160,
            "time": 86.25,
            "velocity": 0.3937007874015748
          },
          {
            "duration": 0.1875,
            "durationTicks": 96,
            "midi": 33,
            "name": "A1",
            "ticks": 44256,
            "time": 86.4375,
            "velocity": 0.3937007874015748
          },
          {
            "duration": 0.1875,
            "durationTicks": 96,
            "midi": 45,
            "name": "A2",
            "ticks": 44256,
            "time": 86.4375,
            "velocity": 0.3937007874015748
          },
          {
            "duration": 0.1875,
            "durationTicks": 96,
            "midi": 56,
            "name": "G#3",
            "ticks": 44352,
            "time": 86.625,
            "velocity": 0.3937007874015748
          },
          {
            "duration": 0.1875,
            "durationTicks": 96,
            "midi": 57,
            "name": "A3",
            "ticks": 44352,
            "time": 86.625,
            "velocity": 0.3937007874015748
          },
          {
            "duration": 0.1875,
            "durationTicks": 96,
            "midi": 69,
            "name": "A4",
            "ticks": 44352,
            "time": 86.625,
            "velocity": 0.3937007874015748
          },
          {
            "duration": 0.1875,
            "durationTicks": 96,
            "midi": 68,
            "name": "G#4",
            "ticks": 44352,
            "time": 86.625,
            "velocity": 0.3937007874015748
          },
          {
            "duration": 0.1875,
            "durationTicks": 96,
            "midi": 32,
            "name": "G#1",
            "ticks": 44352,
            "time": 86.625,
            "velocity": 0.3937007874015748
          },
          {
            "duration": 0.1875,
            "durationTicks": 96,
            "midi": 44,
            "name": "G#2",
            "ticks": 44352,
            "time": 86.625,
            "velocity": 0.3937007874015748
          },
          {
            "duration": 0.1875,
            "durationTicks": 96,
            "midi": 42,
            "name": "F#2",
            "ticks": 44448,
            "time": 86.8125,
            "velocity": 0.3937007874015748
          },
          {
            "duration": 0.1875,
            "durationTicks": 96,
            "midi": 57,
            "name": "A3",
            "ticks": 44448,
            "time": 86.8125,
            "velocity": 0.3937007874015748
          },
          {
            "duration": 0.1875,
            "durationTicks": 96,
            "midi": 69,
            "name": "A4",
            "ticks": 44448,
            "time": 86.8125,
            "velocity": 0.3937007874015748
          },
          {
            "duration": 0.1875,
            "durationTicks": 96,
            "midi": 30,
            "name": "F#1",
            "ticks": 44448,
            "time": 86.8125,
            "velocity": 0.3937007874015748
          },
          {
            "duration": 0.1875,
            "durationTicks": 96,
            "midi": 56,
            "name": "G#3",
            "ticks": 44544,
            "time": 87,
            "velocity": 0.3937007874015748
          },
          {
            "duration": 0.1875,
            "durationTicks": 96,
            "midi": 41,
            "name": "F2",
            "ticks": 44544,
            "time": 87,
            "velocity": 0.3937007874015748
          },
          {
            "duration": 0.1875,
            "durationTicks": 96,
            "midi": 68,
            "name": "G#4",
            "ticks": 44544,
            "time": 87,
            "velocity": 0.3937007874015748
          },
          {
            "duration": 0.1875,
            "durationTicks": 96,
            "midi": 29,
            "name": "F1",
            "ticks": 44544,
            "time": 87,
            "velocity": 0.3937007874015748
          },
          {
            "duration": 0.1875,
            "durationTicks": 96,
            "midi": 29,
            "name": "F1",
            "ticks": 44640,
            "time": 87.1875,
            "velocity": 0.3937007874015748
          },
          {
            "duration": 0.1875,
            "durationTicks": 96,
            "midi": 68,
            "name": "G#4",
            "ticks": 44640,
            "time": 87.1875,
            "velocity": 0.3937007874015748
          },
          {
            "duration": 0.1875,
            "durationTicks": 96,
            "midi": 56,
            "name": "G#3",
            "ticks": 44640,
            "time": 87.1875,
            "velocity": 0.3937007874015748
          },
          {
            "duration": 0.1875,
            "durationTicks": 96,
            "midi": 65,
            "name": "F4",
            "ticks": 44736,
            "time": 87.375,
            "velocity": 0.3937007874015748
          },
          {
            "duration": 0.1875,
            "durationTicks": 96,
            "midi": 29,
            "name": "F1",
            "ticks": 44736,
            "time": 87.375,
            "velocity": 0.3937007874015748
          },
          {
            "duration": 0.1875,
            "durationTicks": 96,
            "midi": 68,
            "name": "G#4",
            "ticks": 44736,
            "time": 87.375,
            "velocity": 0.3937007874015748
          },
          {
            "duration": 0.1875,
            "durationTicks": 96,
            "midi": 56,
            "name": "G#3",
            "ticks": 44736,
            "time": 87.375,
            "velocity": 0.3937007874015748
          },
          {
            "duration": 0.1875,
            "durationTicks": 96,
            "midi": 53,
            "name": "F3",
            "ticks": 44736,
            "time": 87.375,
            "velocity": 0.3937007874015748
          },
          {
            "duration": 0.1875,
            "durationTicks": 96,
            "midi": 56,
            "name": "G#3",
            "ticks": 44832,
            "time": 87.5625,
            "velocity": 0.3937007874015748
          },
          {
            "duration": 0.1875,
            "durationTicks": 96,
            "midi": 53,
            "name": "F3",
            "ticks": 44832,
            "time": 87.5625,
            "velocity": 0.3937007874015748
          },
          {
            "duration": 0.1875,
            "durationTicks": 96,
            "midi": 65,
            "name": "F4",
            "ticks": 44832,
            "time": 87.5625,
            "velocity": 0.3937007874015748
          },
          {
            "duration": 0.1875,
            "durationTicks": 96,
            "midi": 41,
            "name": "F2",
            "ticks": 44832,
            "time": 87.5625,
            "velocity": 0.3937007874015748
          },
          {
            "duration": 0.1875,
            "durationTicks": 96,
            "midi": 68,
            "name": "G#4",
            "ticks": 44832,
            "time": 87.5625,
            "velocity": 0.3937007874015748
          },
          {
            "duration": 0.1875,
            "durationTicks": 96,
            "midi": 29,
            "name": "F1",
            "ticks": 44832,
            "time": 87.5625,
            "velocity": 0.3937007874015748
          },
          {
            "duration": 0.1875,
            "durationTicks": 96,
            "midi": 56,
            "name": "G#3",
            "ticks": 44928,
            "time": 87.75,
            "velocity": 0.3937007874015748
          },
          {
            "duration": 0.1875,
            "durationTicks": 96,
            "midi": 29,
            "name": "F1",
            "ticks": 44928,
            "time": 87.75,
            "velocity": 0.3937007874015748
          },
          {
            "duration": 0.1875,
            "durationTicks": 96,
            "midi": 68,
            "name": "G#4",
            "ticks": 44928,
            "time": 87.75,
            "velocity": 0.3937007874015748
          },
          {
            "duration": 0.1875,
            "durationTicks": 96,
            "midi": 29,
            "name": "F1",
            "ticks": 45024,
            "time": 87.9375,
            "velocity": 0.3937007874015748
          },
          {
            "duration": 0.1875,
            "durationTicks": 96,
            "midi": 41,
            "name": "F2",
            "ticks": 45024,
            "time": 87.9375,
            "velocity": 0.3937007874015748
          },
          {
            "duration": 0.1875,
            "durationTicks": 96,
            "midi": 65,
            "name": "F4",
            "ticks": 45024,
            "time": 87.9375,
            "velocity": 0.3937007874015748
          },
          {
            "duration": 0.1875,
            "durationTicks": 96,
            "midi": 53,
            "name": "F3",
            "ticks": 45024,
            "time": 87.9375,
            "velocity": 0.3937007874015748
          },
          {
            "duration": 0.1875,
            "durationTicks": 96,
            "midi": 29,
            "name": "F1",
            "ticks": 45120,
            "time": 88.125,
            "velocity": 0.3937007874015748
          },
          {
            "duration": 0.1875,
            "durationTicks": 96,
            "midi": 41,
            "name": "F2",
            "ticks": 45120,
            "time": 88.125,
            "velocity": 0.3937007874015748
          },
          {
            "duration": 0.1875,
            "durationTicks": 96,
            "midi": 53,
            "name": "F3",
            "ticks": 45120,
            "time": 88.125,
            "velocity": 0.3937007874015748
          },
          {
            "duration": 0.1875,
            "durationTicks": 96,
            "midi": 65,
            "name": "F4",
            "ticks": 45120,
            "time": 88.125,
            "velocity": 0.3937007874015748
          },
          {
            "duration": 0.1875,
            "durationTicks": 96,
            "midi": 28,
            "name": "E1",
            "ticks": 45216,
            "time": 88.3125,
            "velocity": 0.3937007874015748
          },
          {
            "duration": 0.1875,
            "durationTicks": 96,
            "midi": 53,
            "name": "F3",
            "ticks": 45312,
            "time": 88.5,
            "velocity": 0.3937007874015748
          },
          {
            "duration": 0.1875,
            "durationTicks": 96,
            "midi": 65,
            "name": "F4",
            "ticks": 45312,
            "time": 88.5,
            "velocity": 0.3937007874015748
          },
          {
            "duration": 0.1875,
            "durationTicks": 96,
            "midi": 26,
            "name": "D1",
            "ticks": 45312,
            "time": 88.5,
            "velocity": 0.3937007874015748
          },
          {
            "duration": 0.1875,
            "durationTicks": 96,
            "midi": 38,
            "name": "D2",
            "ticks": 45312,
            "time": 88.5,
            "velocity": 0.3937007874015748
          },
          {
            "duration": 0.1875,
            "durationTicks": 96,
            "midi": 26,
            "name": "D1",
            "ticks": 45408,
            "time": 88.6875,
            "velocity": 0.3937007874015748
          },
          {
            "duration": 0.1875,
            "durationTicks": 96,
            "midi": 26,
            "name": "D1",
            "ticks": 45504,
            "time": 88.875,
            "velocity": 0.3937007874015748
          },
          {
            "duration": 0.1875,
            "durationTicks": 96,
            "midi": 62,
            "name": "D4",
            "ticks": 45504,
            "time": 88.875,
            "velocity": 0.3937007874015748
          },
          {
            "duration": 0.1875,
            "durationTicks": 96,
            "midi": 50,
            "name": "D3",
            "ticks": 45504,
            "time": 88.875,
            "velocity": 0.3937007874015748
          },
          {
            "duration": 0.1875,
            "durationTicks": 96,
            "midi": 26,
            "name": "D1",
            "ticks": 45600,
            "time": 89.0625,
            "velocity": 0.3937007874015748
          },
          {
            "duration": 0.1875,
            "durationTicks": 96,
            "midi": 62,
            "name": "D4",
            "ticks": 45600,
            "time": 89.0625,
            "velocity": 0.3937007874015748
          },
          {
            "duration": 0.1875,
            "durationTicks": 96,
            "midi": 50,
            "name": "D3",
            "ticks": 45600,
            "time": 89.0625,
            "velocity": 0.3937007874015748
          },
          {
            "duration": 0.1875,
            "durationTicks": 96,
            "midi": 38,
            "name": "D2",
            "ticks": 45600,
            "time": 89.0625,
            "velocity": 0.3937007874015748
          },
          {
            "duration": 0.1875,
            "durationTicks": 96,
            "midi": 26,
            "name": "D1",
            "ticks": 45696,
            "time": 89.25,
            "velocity": 0.3937007874015748
          },
          {
            "duration": 0.1875,
            "durationTicks": 96,
            "midi": 26,
            "name": "D1",
            "ticks": 45792,
            "time": 89.4375,
            "velocity": 0.3937007874015748
          },
          {
            "duration": 0.1875,
            "durationTicks": 96,
            "midi": 40,
            "name": "E2",
            "ticks": 45888,
            "time": 89.625,
            "velocity": 0.3937007874015748
          },
          {
            "duration": 0.1875,
            "durationTicks": 96,
            "midi": 65,
            "name": "F4",
            "ticks": 45888,
            "time": 89.625,
            "velocity": 0.3937007874015748
          },
          {
            "duration": 0.1875,
            "durationTicks": 96,
            "midi": 53,
            "name": "F3",
            "ticks": 45888,
            "time": 89.625,
            "velocity": 0.3937007874015748
          },
          {
            "duration": 0.1875,
            "durationTicks": 96,
            "midi": 28,
            "name": "E1",
            "ticks": 45888,
            "time": 89.625,
            "velocity": 0.3937007874015748
          },
          {
            "duration": 0.1875,
            "durationTicks": 96,
            "midi": 41,
            "name": "F2",
            "ticks": 45984,
            "time": 89.8125,
            "velocity": 0.3937007874015748
          },
          {
            "duration": 0.1875,
            "durationTicks": 96,
            "midi": 29,
            "name": "F1",
            "ticks": 45984,
            "time": 89.8125,
            "velocity": 0.3937007874015748
          },
          {
            "duration": 0.1875,
            "durationTicks": 96,
            "midi": 30,
            "name": "F#1",
            "ticks": 46080,
            "time": 90,
            "velocity": 0.3937007874015748
          },
          {
            "duration": 0.1875,
            "durationTicks": 96,
            "midi": 42,
            "name": "F#2",
            "ticks": 46080,
            "time": 90,
            "velocity": 0.3937007874015748
          },
          {
            "duration": 0.1875,
            "durationTicks": 96,
            "midi": 30,
            "name": "F#1",
            "ticks": 46176,
            "time": 90.1875,
            "velocity": 0.3937007874015748
          },
          {
            "duration": 0.1875,
            "durationTicks": 96,
            "midi": 30,
            "name": "F#1",
            "ticks": 46272,
            "time": 90.375,
            "velocity": 0.3937007874015748
          },
          {
            "duration": 0.1875,
            "durationTicks": 96,
            "midi": 42,
            "name": "F#2",
            "ticks": 46368,
            "time": 90.5625,
            "velocity": 0.3937007874015748
          },
          {
            "duration": 0.1875,
            "durationTicks": 96,
            "midi": 30,
            "name": "F#1",
            "ticks": 46368,
            "time": 90.5625,
            "velocity": 0.3937007874015748
          },
          {
            "duration": 0.1875,
            "durationTicks": 96,
            "midi": 40,
            "name": "E2",
            "ticks": 46464,
            "time": 90.75,
            "velocity": 0.3937007874015748
          },
          {
            "duration": 0.1875,
            "durationTicks": 96,
            "midi": 28,
            "name": "E1",
            "ticks": 46464,
            "time": 90.75,
            "velocity": 0.3937007874015748
          },
          {
            "duration": 0.1875,
            "durationTicks": 96,
            "midi": 28,
            "name": "E1",
            "ticks": 46560,
            "time": 90.9375,
            "velocity": 0.3937007874015748
          },
          {
            "duration": 0.1875,
            "durationTicks": 96,
            "midi": 44,
            "name": "G#2",
            "ticks": 46656,
            "time": 91.125,
            "velocity": 0.3937007874015748
          },
          {
            "duration": 0.1875,
            "durationTicks": 96,
            "midi": 32,
            "name": "G#1",
            "ticks": 46656,
            "time": 91.125,
            "velocity": 0.3937007874015748
          },
          {
            "duration": 0.1875,
            "durationTicks": 96,
            "midi": 32,
            "name": "G#1",
            "ticks": 46752,
            "time": 91.3125,
            "velocity": 0.3937007874015748
          },
          {
            "duration": 0.1875,
            "durationTicks": 96,
            "midi": 42,
            "name": "F#2",
            "ticks": 46848,
            "time": 91.5,
            "velocity": 0.3937007874015748
          },
          {
            "duration": 0.1875,
            "durationTicks": 96,
            "midi": 30,
            "name": "F#1",
            "ticks": 46848,
            "time": 91.5,
            "velocity": 0.3937007874015748
          },
          {
            "duration": 0.1875,
            "durationTicks": 96,
            "midi": 30,
            "name": "F#1",
            "ticks": 46944,
            "time": 91.6875,
            "velocity": 0.3937007874015748
          },
          {
            "duration": 0.1875,
            "durationTicks": 96,
            "midi": 30,
            "name": "F#1",
            "ticks": 47040,
            "time": 91.875,
            "velocity": 0.3937007874015748
          },
          {
            "duration": 0.1875,
            "durationTicks": 96,
            "midi": 30,
            "name": "F#1",
            "ticks": 47136,
            "time": 92.0625,
            "velocity": 0.3937007874015748
          },
          {
            "duration": 0.1875,
            "durationTicks": 96,
            "midi": 42,
            "name": "F#2",
            "ticks": 47136,
            "time": 92.0625,
            "velocity": 0.3937007874015748
          },
          {
            "duration": 0.1875,
            "durationTicks": 96,
            "midi": 28,
            "name": "E1",
            "ticks": 47232,
            "time": 92.25,
            "velocity": 0.3937007874015748
          },
          {
            "duration": 0.1875,
            "durationTicks": 96,
            "midi": 40,
            "name": "E2",
            "ticks": 47232,
            "time": 92.25,
            "velocity": 0.3937007874015748
          },
          {
            "duration": 0.1875,
            "durationTicks": 96,
            "midi": 28,
            "name": "E1",
            "ticks": 47328,
            "time": 92.4375,
            "velocity": 0.3937007874015748
          },
          {
            "duration": 0.1875,
            "durationTicks": 96,
            "midi": 44,
            "name": "G#2",
            "ticks": 47424,
            "time": 92.625,
            "velocity": 0.3937007874015748
          },
          {
            "duration": 0.1875,
            "durationTicks": 96,
            "midi": 32,
            "name": "G#1",
            "ticks": 47424,
            "time": 92.625,
            "velocity": 0.3937007874015748
          },
          {
            "duration": 0.1875,
            "durationTicks": 96,
            "midi": 28,
            "name": "E1",
            "ticks": 47520,
            "time": 92.8125,
            "velocity": 0.3937007874015748
          },
          {
            "duration": 0.1875,
            "durationTicks": 96,
            "midi": 26,
            "name": "D1",
            "ticks": 47616,
            "time": 93,
            "velocity": 0.3937007874015748
          },
          {
            "duration": 0.1875,
            "durationTicks": 96,
            "midi": 38,
            "name": "D2",
            "ticks": 47616,
            "time": 93,
            "velocity": 0.3937007874015748
          },
          {
            "duration": 0.1875,
            "durationTicks": 96,
            "midi": 26,
            "name": "D1",
            "ticks": 47712,
            "time": 93.1875,
            "velocity": 0.3937007874015748
          },
          {
            "duration": 0.1875,
            "durationTicks": 96,
            "midi": 26,
            "name": "D1",
            "ticks": 47808,
            "time": 93.375,
            "velocity": 0.3937007874015748
          },
          {
            "duration": 0.1875,
            "durationTicks": 96,
            "midi": 26,
            "name": "D1",
            "ticks": 47904,
            "time": 93.5625,
            "velocity": 0.3937007874015748
          },
          {
            "duration": 0.1875,
            "durationTicks": 96,
            "midi": 35,
            "name": "B1",
            "ticks": 48000,
            "time": 93.75,
            "velocity": 0.3937007874015748
          },
          {
            "duration": 0.1875,
            "durationTicks": 96,
            "midi": 47,
            "name": "B2",
            "ticks": 48000,
            "time": 93.75,
            "velocity": 0.3937007874015748
          },
          {
            "duration": 0.1875,
            "durationTicks": 96,
            "midi": 35,
            "name": "B1",
            "ticks": 48096,
            "time": 93.9375,
            "velocity": 0.3937007874015748
          },
          {
            "duration": 0.1875,
            "durationTicks": 96,
            "midi": 32,
            "name": "G#1",
            "ticks": 48192,
            "time": 94.125,
            "velocity": 0.3937007874015748
          },
          {
            "duration": 0.1875,
            "durationTicks": 96,
            "midi": 28,
            "name": "E1",
            "ticks": 48288,
            "time": 94.3125,
            "velocity": 0.3937007874015748
          },
          {
            "duration": 0.1875,
            "durationTicks": 96,
            "midi": 40,
            "name": "E2",
            "ticks": 48288,
            "time": 94.3125,
            "velocity": 0.3937007874015748
          },
          {
            "duration": 0.1875,
            "durationTicks": 96,
            "midi": 28,
            "name": "E1",
            "ticks": 48384,
            "time": 94.5,
            "velocity": 0.3937007874015748
          },
          {
            "duration": 0.1875,
            "durationTicks": 96,
            "midi": 28,
            "name": "E1",
            "ticks": 48480,
            "time": 94.6875,
            "velocity": 0.3937007874015748
          },
          {
            "duration": 0.1875,
            "durationTicks": 96,
            "midi": 28,
            "name": "E1",
            "ticks": 48576,
            "time": 94.875,
            "velocity": 0.3937007874015748
          },
          {
            "duration": 0.1875,
            "durationTicks": 96,
            "midi": 28,
            "name": "E1",
            "ticks": 48672,
            "time": 95.0625,
            "velocity": 0.3937007874015748
          },
          {
            "duration": 0.1875,
            "durationTicks": 96,
            "midi": 35,
            "name": "B1",
            "ticks": 48768,
            "time": 95.25,
            "velocity": 0.3937007874015748
          },
          {
            "duration": 0.1875,
            "durationTicks": 96,
            "midi": 47,
            "name": "B2",
            "ticks": 48768,
            "time": 95.25,
            "velocity": 0.3937007874015748
          },
          {
            "duration": 0.1875,
            "durationTicks": 96,
            "midi": 35,
            "name": "B1",
            "ticks": 48864,
            "time": 95.4375,
            "velocity": 0.3937007874015748
          },
          {
            "duration": 0.1875,
            "durationTicks": 96,
            "midi": 33,
            "name": "A1",
            "ticks": 48960,
            "time": 95.625,
            "velocity": 0.3937007874015748
          },
          {
            "duration": 0.1875,
            "durationTicks": 96,
            "midi": 30,
            "name": "F#1",
            "ticks": 49056,
            "time": 95.8125,
            "velocity": 0.3937007874015748
          },
          {
            "duration": 0.1875,
            "durationTicks": 96,
            "midi": 42,
            "name": "F#2",
            "ticks": 49056,
            "time": 95.8125,
            "velocity": 0.3937007874015748
          },
          {
            "duration": 0.1875,
            "durationTicks": 96,
            "midi": 30,
            "name": "F#1",
            "ticks": 49152,
            "time": 96,
            "velocity": 0.3937007874015748
          },
          {
            "duration": 0.1875,
            "durationTicks": 96,
            "midi": 30,
            "name": "F#1",
            "ticks": 49248,
            "time": 96.1875,
            "velocity": 0.3937007874015748
          },
          {
            "duration": 0.1875,
            "durationTicks": 96,
            "midi": 30,
            "name": "F#1",
            "ticks": 49344,
            "time": 96.375,
            "velocity": 0.3937007874015748
          },
          {
            "duration": 0.1875,
            "durationTicks": 96,
            "midi": 42,
            "name": "F#2",
            "ticks": 49440,
            "time": 96.5625,
            "velocity": 0.3937007874015748
          },
          {
            "duration": 0.1875,
            "durationTicks": 96,
            "midi": 30,
            "name": "F#1",
            "ticks": 49440,
            "time": 96.5625,
            "velocity": 0.3937007874015748
          },
          {
            "duration": 0.1875,
            "durationTicks": 96,
            "midi": 40,
            "name": "E2",
            "ticks": 49536,
            "time": 96.75,
            "velocity": 0.3937007874015748
          },
          {
            "duration": 0.1875,
            "durationTicks": 96,
            "midi": 28,
            "name": "E1",
            "ticks": 49536,
            "time": 96.75,
            "velocity": 0.3937007874015748
          },
          {
            "duration": 0.1875,
            "durationTicks": 96,
            "midi": 28,
            "name": "E1",
            "ticks": 49632,
            "time": 96.9375,
            "velocity": 0.3937007874015748
          },
          {
            "duration": 0.1875,
            "durationTicks": 96,
            "midi": 32,
            "name": "G#1",
            "ticks": 49728,
            "time": 97.125,
            "velocity": 0.3937007874015748
          },
          {
            "duration": 0.1875,
            "durationTicks": 96,
            "midi": 44,
            "name": "G#2",
            "ticks": 49728,
            "time": 97.125,
            "velocity": 0.3937007874015748
          },
          {
            "duration": 0.1875,
            "durationTicks": 96,
            "midi": 32,
            "name": "G#1",
            "ticks": 49824,
            "time": 97.3125,
            "velocity": 0.3937007874015748
          },
          {
            "duration": 0.1875,
            "durationTicks": 96,
            "midi": 42,
            "name": "F#2",
            "ticks": 49920,
            "time": 97.5,
            "velocity": 0.3937007874015748
          },
          {
            "duration": 0.1875,
            "durationTicks": 96,
            "midi": 30,
            "name": "F#1",
            "ticks": 49920,
            "time": 97.5,
            "velocity": 0.3937007874015748
          },
          {
            "duration": 0.1875,
            "durationTicks": 96,
            "midi": 30,
            "name": "F#1",
            "ticks": 50016,
            "time": 97.6875,
            "velocity": 0.3937007874015748
          },
          {
            "duration": 0.1875,
            "durationTicks": 96,
            "midi": 30,
            "name": "F#1",
            "ticks": 50112,
            "time": 97.875,
            "velocity": 0.3937007874015748
          },
          {
            "duration": 0.1875,
            "durationTicks": 96,
            "midi": 42,
            "name": "F#2",
            "ticks": 50208,
            "time": 98.0625,
            "velocity": 0.3937007874015748
          },
          {
            "duration": 0.1875,
            "durationTicks": 96,
            "midi": 30,
            "name": "F#1",
            "ticks": 50208,
            "time": 98.0625,
            "velocity": 0.3937007874015748
          },
          {
            "duration": 0.1875,
            "durationTicks": 96,
            "midi": 40,
            "name": "E2",
            "ticks": 50304,
            "time": 98.25,
            "velocity": 0.3937007874015748
          },
          {
            "duration": 0.1875,
            "durationTicks": 96,
            "midi": 28,
            "name": "E1",
            "ticks": 50304,
            "time": 98.25,
            "velocity": 0.3937007874015748
          },
          {
            "duration": 0.1875,
            "durationTicks": 96,
            "midi": 28,
            "name": "E1",
            "ticks": 50400,
            "time": 98.4375,
            "velocity": 0.3937007874015748
          },
          {
            "duration": 0.1875,
            "durationTicks": 96,
            "midi": 44,
            "name": "G#2",
            "ticks": 50496,
            "time": 98.625,
            "velocity": 0.3937007874015748
          },
          {
            "duration": 0.1875,
            "durationTicks": 96,
            "midi": 32,
            "name": "G#1",
            "ticks": 50496,
            "time": 98.625,
            "velocity": 0.3937007874015748
          },
          {
            "duration": 0.1875,
            "durationTicks": 96,
            "midi": 28,
            "name": "E1",
            "ticks": 50592,
            "time": 98.8125,
            "velocity": 0.3937007874015748
          },
          {
            "duration": 0.1875,
            "durationTicks": 96,
            "midi": 26,
            "name": "D1",
            "ticks": 50688,
            "time": 99,
            "velocity": 0.3937007874015748
          },
          {
            "duration": 0.1875,
            "durationTicks": 96,
            "midi": 38,
            "name": "D2",
            "ticks": 50688,
            "time": 99,
            "velocity": 0.3937007874015748
          },
          {
            "duration": 0.1875,
            "durationTicks": 96,
            "midi": 26,
            "name": "D1",
            "ticks": 50784,
            "time": 99.1875,
            "velocity": 0.3937007874015748
          },
          {
            "duration": 0.1875,
            "durationTicks": 96,
            "midi": 26,
            "name": "D1",
            "ticks": 50880,
            "time": 99.375,
            "velocity": 0.3937007874015748
          },
          {
            "duration": 0.1875,
            "durationTicks": 96,
            "midi": 26,
            "name": "D1",
            "ticks": 50976,
            "time": 99.5625,
            "velocity": 0.3937007874015748
          },
          {
            "duration": 0.1875,
            "durationTicks": 96,
            "midi": 47,
            "name": "B2",
            "ticks": 51072,
            "time": 99.75,
            "velocity": 0.3937007874015748
          },
          {
            "duration": 0.1875,
            "durationTicks": 96,
            "midi": 35,
            "name": "B1",
            "ticks": 51072,
            "time": 99.75,
            "velocity": 0.3937007874015748
          },
          {
            "duration": 0.1875,
            "durationTicks": 96,
            "midi": 35,
            "name": "B1",
            "ticks": 51168,
            "time": 99.9375,
            "velocity": 0.3937007874015748
          },
          {
            "duration": 0.1875,
            "durationTicks": 96,
            "midi": 32,
            "name": "G#1",
            "ticks": 51264,
            "time": 100.125,
            "velocity": 0.3937007874015748
          },
          {
            "duration": 0.1875,
            "durationTicks": 96,
            "midi": 40,
            "name": "E2",
            "ticks": 51360,
            "time": 100.3125,
            "velocity": 0.3937007874015748
          },
          {
            "duration": 0.1875,
            "durationTicks": 96,
            "midi": 28,
            "name": "E1",
            "ticks": 51360,
            "time": 100.3125,
            "velocity": 0.3937007874015748
          },
          {
            "duration": 0.1875,
            "durationTicks": 96,
            "midi": 28,
            "name": "E1",
            "ticks": 51456,
            "time": 100.5,
            "velocity": 0.3937007874015748
          },
          {
            "duration": 0.1875,
            "durationTicks": 96,
            "midi": 28,
            "name": "E1",
            "ticks": 51552,
            "time": 100.6875,
            "velocity": 0.3937007874015748
          },
          {
            "duration": 0.1875,
            "durationTicks": 96,
            "midi": 28,
            "name": "E1",
            "ticks": 51648,
            "time": 100.875,
            "velocity": 0.3937007874015748
          },
          {
            "duration": 0.1875,
            "durationTicks": 96,
            "midi": 28,
            "name": "E1",
            "ticks": 51744,
            "time": 101.0625,
            "velocity": 0.3937007874015748
          },
          {
            "duration": 0.1875,
            "durationTicks": 96,
            "midi": 47,
            "name": "B2",
            "ticks": 51840,
            "time": 101.25,
            "velocity": 0.3937007874015748
          },
          {
            "duration": 0.1875,
            "durationTicks": 96,
            "midi": 35,
            "name": "B1",
            "ticks": 51840,
            "time": 101.25,
            "velocity": 0.3937007874015748
          },
          {
            "duration": 0.1875,
            "durationTicks": 96,
            "midi": 35,
            "name": "B1",
            "ticks": 51936,
            "time": 101.4375,
            "velocity": 0.3937007874015748
          },
          {
            "duration": 0.1875,
            "durationTicks": 96,
            "midi": 33,
            "name": "A1",
            "ticks": 52032,
            "time": 101.625,
            "velocity": 0.3937007874015748
          },
          {
            "duration": 0.1875,
            "durationTicks": 96,
            "midi": 42,
            "name": "F#2",
            "ticks": 52128,
            "time": 101.8125,
            "velocity": 0.3937007874015748
          },
          {
            "duration": 0.1875,
            "durationTicks": 96,
            "midi": 30,
            "name": "F#1",
            "ticks": 52128,
            "time": 101.8125,
            "velocity": 0.3937007874015748
          },
          {
            "duration": 0.1875,
            "durationTicks": 96,
            "midi": 66,
            "name": "F#4",
            "ticks": 52224,
            "time": 102,
            "velocity": 0.3937007874015748
          },
          {
            "duration": 0.1875,
            "durationTicks": 96,
            "midi": 78,
            "name": "F#5",
            "ticks": 52224,
            "time": 102,
            "velocity": 0.3937007874015748
          },
          {
            "duration": 0.1875,
            "durationTicks": 96,
            "midi": 78,
            "name": "F#5",
            "ticks": 52320,
            "time": 102.1875,
            "velocity": 0.3937007874015748
          },
          {
            "duration": 0.1875,
            "durationTicks": 96,
            "midi": 66,
            "name": "F#4",
            "ticks": 52320,
            "time": 102.1875,
            "velocity": 0.3937007874015748
          },
          {
            "duration": 0.1875,
            "durationTicks": 96,
            "midi": 81,
            "name": "A5",
            "ticks": 52416,
            "time": 102.375,
            "velocity": 0.3937007874015748
          },
          {
            "duration": 0.1875,
            "durationTicks": 96,
            "midi": 69,
            "name": "A4",
            "ticks": 52416,
            "time": 102.375,
            "velocity": 0.3937007874015748
          },
          {
            "duration": 0.1875,
            "durationTicks": 96,
            "midi": 66,
            "name": "F#4",
            "ticks": 52512,
            "time": 102.5625,
            "velocity": 0.3937007874015748
          },
          {
            "duration": 0.1875,
            "durationTicks": 96,
            "midi": 78,
            "name": "F#5",
            "ticks": 52512,
            "time": 102.5625,
            "velocity": 0.3937007874015748
          },
          {
            "duration": 0.1875,
            "durationTicks": 96,
            "midi": 69,
            "name": "A4",
            "ticks": 52608,
            "time": 102.75,
            "velocity": 0.3937007874015748
          },
          {
            "duration": 0.1875,
            "durationTicks": 96,
            "midi": 81,
            "name": "A5",
            "ticks": 52608,
            "time": 102.75,
            "velocity": 0.3937007874015748
          },
          {
            "duration": 0.1875,
            "durationTicks": 96,
            "midi": 69,
            "name": "A4",
            "ticks": 52704,
            "time": 102.9375,
            "velocity": 0.3937007874015748
          },
          {
            "duration": 0.1875,
            "durationTicks": 96,
            "midi": 81,
            "name": "A5",
            "ticks": 52704,
            "time": 102.9375,
            "velocity": 0.3937007874015748
          },
          {
            "duration": 0.1875,
            "durationTicks": 96,
            "midi": 68,
            "name": "G#4",
            "ticks": 52800,
            "time": 103.125,
            "velocity": 0.3937007874015748
          },
          {
            "duration": 0.1875,
            "durationTicks": 96,
            "midi": 80,
            "name": "G#5",
            "ticks": 52800,
            "time": 103.125,
            "velocity": 0.3937007874015748
          },
          {
            "duration": 0.1875,
            "durationTicks": 96,
            "midi": 66,
            "name": "F#4",
            "ticks": 52896,
            "time": 103.3125,
            "velocity": 0.3937007874015748
          },
          {
            "duration": 0.1875,
            "durationTicks": 96,
            "midi": 78,
            "name": "F#5",
            "ticks": 52896,
            "time": 103.3125,
            "velocity": 0.3937007874015748
          },
          {
            "duration": 0.1875,
            "durationTicks": 96,
            "midi": 76,
            "name": "E5",
            "ticks": 52992,
            "time": 103.5,
            "velocity": 0.3937007874015748
          },
          {
            "duration": 0.1875,
            "durationTicks": 96,
            "midi": 64,
            "name": "E4",
            "ticks": 52992,
            "time": 103.5,
            "velocity": 0.3937007874015748
          },
          {
            "duration": 0.1875,
            "durationTicks": 96,
            "midi": 64,
            "name": "E4",
            "ticks": 53088,
            "time": 103.6875,
            "velocity": 0.3937007874015748
          },
          {
            "duration": 0.1875,
            "durationTicks": 96,
            "midi": 76,
            "name": "E5",
            "ticks": 53088,
            "time": 103.6875,
            "velocity": 0.3937007874015748
          },
          {
            "duration": 0.1875,
            "durationTicks": 96,
            "midi": 78,
            "name": "F#5",
            "ticks": 53184,
            "time": 103.875,
            "velocity": 0.3937007874015748
          },
          {
            "duration": 0.1875,
            "durationTicks": 96,
            "midi": 66,
            "name": "F#4",
            "ticks": 53184,
            "time": 103.875,
            "velocity": 0.3937007874015748
          },
          {
            "duration": 0.1875,
            "durationTicks": 96,
            "midi": 66,
            "name": "F#4",
            "ticks": 53280,
            "time": 104.0625,
            "velocity": 0.3937007874015748
          },
          {
            "duration": 0.1875,
            "durationTicks": 96,
            "midi": 78,
            "name": "F#5",
            "ticks": 53280,
            "time": 104.0625,
            "velocity": 0.3937007874015748
          },
          {
            "duration": 0.1875,
            "durationTicks": 96,
            "midi": 68,
            "name": "G#4",
            "ticks": 53760,
            "time": 105,
            "velocity": 0.3937007874015748
          },
          {
            "duration": 0.1875,
            "durationTicks": 96,
            "midi": 80,
            "name": "G#5",
            "ticks": 53760,
            "time": 105,
            "velocity": 0.3937007874015748
          },
          {
            "duration": 0.1875,
            "durationTicks": 96,
            "midi": 81,
            "name": "A5",
            "ticks": 53856,
            "time": 105.1875,
            "velocity": 0.3937007874015748
          },
          {
            "duration": 0.1875,
            "durationTicks": 96,
            "midi": 81,
            "name": "A5",
            "ticks": 53856,
            "time": 105.1875,
            "velocity": 0.3937007874015748
          },
          {
            "duration": 0.1875,
            "durationTicks": 96,
            "midi": 69,
            "name": "A4",
            "ticks": 53856,
            "time": 105.1875,
            "velocity": 0.3937007874015748
          },
          {
            "duration": 0.1875,
            "durationTicks": 96,
            "midi": 81,
            "name": "A5",
            "ticks": 53952,
            "time": 105.375,
            "velocity": 0.3937007874015748
          },
          {
            "duration": 0.1875,
            "durationTicks": 96,
            "midi": 69,
            "name": "A4",
            "ticks": 53952,
            "time": 105.375,
            "velocity": 0.3937007874015748
          },
          {
            "duration": 0.1875,
            "durationTicks": 96,
            "midi": 66,
            "name": "F#4",
            "ticks": 54048,
            "time": 105.5625,
            "velocity": 0.3937007874015748
          },
          {
            "duration": 0.1875,
            "durationTicks": 96,
            "midi": 78,
            "name": "F#5",
            "ticks": 54048,
            "time": 105.5625,
            "velocity": 0.3937007874015748
          },
          {
            "duration": 0.1875,
            "durationTicks": 96,
            "midi": 66,
            "name": "F#4",
            "ticks": 54144,
            "time": 105.75,
            "velocity": 0.3937007874015748
          },
          {
            "duration": 0.1875,
            "durationTicks": 96,
            "midi": 78,
            "name": "F#5",
            "ticks": 54144,
            "time": 105.75,
            "velocity": 0.3937007874015748
          },
          {
            "duration": 0.1875,
            "durationTicks": 96,
            "midi": 83,
            "name": "B5",
            "ticks": 54240,
            "time": 105.9375,
            "velocity": 0.3937007874015748
          },
          {
            "duration": 0.1875,
            "durationTicks": 96,
            "midi": 71,
            "name": "B4",
            "ticks": 54240,
            "time": 105.9375,
            "velocity": 0.3937007874015748
          },
          {
            "duration": 0.1875,
            "durationTicks": 96,
            "midi": 69,
            "name": "A4",
            "ticks": 54336,
            "time": 106.125,
            "velocity": 0.3937007874015748
          },
          {
            "duration": 0.1875,
            "durationTicks": 96,
            "midi": 81,
            "name": "A5",
            "ticks": 54336,
            "time": 106.125,
            "velocity": 0.3937007874015748
          },
          {
            "duration": 0.1875,
            "durationTicks": 96,
            "midi": 68,
            "name": "G#4",
            "ticks": 54432,
            "time": 106.3125,
            "velocity": 0.3937007874015748
          },
          {
            "duration": 0.1875,
            "durationTicks": 96,
            "midi": 80,
            "name": "G#5",
            "ticks": 54432,
            "time": 106.3125,
            "velocity": 0.3937007874015748
          },
          {
            "duration": 0.1875,
            "durationTicks": 96,
            "midi": 68,
            "name": "G#4",
            "ticks": 54528,
            "time": 106.5,
            "velocity": 0.3937007874015748
          },
          {
            "duration": 0.1875,
            "durationTicks": 96,
            "midi": 80,
            "name": "G#5",
            "ticks": 54528,
            "time": 106.5,
            "velocity": 0.3937007874015748
          },
          {
            "duration": 0.1875,
            "durationTicks": 96,
            "midi": 69,
            "name": "A4",
            "ticks": 54624,
            "time": 106.6875,
            "velocity": 0.3937007874015748
          },
          {
            "duration": 0.1875,
            "durationTicks": 96,
            "midi": 81,
            "name": "A5",
            "ticks": 54624,
            "time": 106.6875,
            "velocity": 0.3937007874015748
          },
          {
            "duration": 0.1875,
            "durationTicks": 96,
            "midi": 81,
            "name": "A5",
            "ticks": 54720,
            "time": 106.875,
            "velocity": 0.3937007874015748
          },
          {
            "duration": 0.1875,
            "durationTicks": 96,
            "midi": 69,
            "name": "A4",
            "ticks": 54720,
            "time": 106.875,
            "velocity": 0.3937007874015748
          },
          {
            "duration": 0.1875,
            "durationTicks": 96,
            "midi": 81,
            "name": "A5",
            "ticks": 54816,
            "time": 107.0625,
            "velocity": 0.3937007874015748
          },
          {
            "duration": 0.1875,
            "durationTicks": 96,
            "midi": 69,
            "name": "A4",
            "ticks": 54816,
            "time": 107.0625,
            "velocity": 0.3937007874015748
          },
          {
            "duration": 0.1875,
            "durationTicks": 96,
            "midi": 81,
            "name": "A5",
            "ticks": 54912,
            "time": 107.25,
            "velocity": 0.3937007874015748
          },
          {
            "duration": 0.1875,
            "durationTicks": 96,
            "midi": 69,
            "name": "A4",
            "ticks": 54912,
            "time": 107.25,
            "velocity": 0.3937007874015748
          },
          {
            "duration": 0.1875,
            "durationTicks": 96,
            "midi": 80,
            "name": "G#5",
            "ticks": 55008,
            "time": 107.4375,
            "velocity": 0.3937007874015748
          },
          {
            "duration": 0.1875,
            "durationTicks": 96,
            "midi": 68,
            "name": "G#4",
            "ticks": 55008,
            "time": 107.4375,
            "velocity": 0.3937007874015748
          },
          {
            "duration": 0.1875,
            "durationTicks": 96,
            "midi": 68,
            "name": "G#4",
            "ticks": 55104,
            "time": 107.625,
            "velocity": 0.3937007874015748
          },
          {
            "duration": 0.1875,
            "durationTicks": 96,
            "midi": 80,
            "name": "G#5",
            "ticks": 55104,
            "time": 107.625,
            "velocity": 0.3937007874015748
          },
          {
            "duration": 0.1875,
            "durationTicks": 96,
            "midi": 80,
            "name": "G#5",
            "ticks": 55200,
            "time": 107.8125,
            "velocity": 0.3937007874015748
          },
          {
            "duration": 0.1875,
            "durationTicks": 96,
            "midi": 68,
            "name": "G#4",
            "ticks": 55200,
            "time": 107.8125,
            "velocity": 0.3937007874015748
          },
          {
            "duration": 0.1875,
            "durationTicks": 96,
            "midi": 68,
            "name": "G#4",
            "ticks": 55296,
            "time": 108,
            "velocity": 0.3937007874015748
          },
          {
            "duration": 0.1875,
            "durationTicks": 96,
            "midi": 80,
            "name": "G#5",
            "ticks": 55296,
            "time": 108,
            "velocity": 0.3937007874015748
          },
          {
            "duration": 0.1875,
            "durationTicks": 96,
            "midi": 66,
            "name": "F#4",
            "ticks": 55392,
            "time": 108.1875,
            "velocity": 0.3937007874015748
          },
          {
            "duration": 0.1875,
            "durationTicks": 96,
            "midi": 78,
            "name": "F#5",
            "ticks": 55392,
            "time": 108.1875,
            "velocity": 0.3937007874015748
          },
          {
            "duration": 0.1875,
            "durationTicks": 96,
            "midi": 69,
            "name": "A4",
            "ticks": 55488,
            "time": 108.375,
            "velocity": 0.3937007874015748
          },
          {
            "duration": 0.1875,
            "durationTicks": 96,
            "midi": 81,
            "name": "A5",
            "ticks": 55488,
            "time": 108.375,
            "velocity": 0.3937007874015748
          },
          {
            "duration": 0.1875,
            "durationTicks": 96,
            "midi": 66,
            "name": "F#4",
            "ticks": 55584,
            "time": 108.5625,
            "velocity": 0.3937007874015748
          },
          {
            "duration": 0.1875,
            "durationTicks": 96,
            "midi": 78,
            "name": "F#5",
            "ticks": 55584,
            "time": 108.5625,
            "velocity": 0.3937007874015748
          },
          {
            "duration": 0.1875,
            "durationTicks": 96,
            "midi": 69,
            "name": "A4",
            "ticks": 55680,
            "time": 108.75,
            "velocity": 0.3937007874015748
          },
          {
            "duration": 0.1875,
            "durationTicks": 96,
            "midi": 81,
            "name": "A5",
            "ticks": 55680,
            "time": 108.75,
            "velocity": 0.3937007874015748
          },
          {
            "duration": 0.1875,
            "durationTicks": 96,
            "midi": 81,
            "name": "A5",
            "ticks": 55776,
            "time": 108.9375,
            "velocity": 0.3937007874015748
          },
          {
            "duration": 0.1875,
            "durationTicks": 96,
            "midi": 69,
            "name": "A4",
            "ticks": 55776,
            "time": 108.9375,
            "velocity": 0.3937007874015748
          },
          {
            "duration": 0.1875,
            "durationTicks": 96,
            "midi": 78,
            "name": "F#5",
            "ticks": 55872,
            "time": 109.125,
            "velocity": 0.3937007874015748
          },
          {
            "duration": 0.1875,
            "durationTicks": 96,
            "midi": 66,
            "name": "F#4",
            "ticks": 55872,
            "time": 109.125,
            "velocity": 0.3937007874015748
          },
          {
            "duration": 0.1875,
            "durationTicks": 96,
            "midi": 80,
            "name": "G#5",
            "ticks": 55968,
            "time": 109.3125,
            "velocity": 0.3937007874015748
          },
          {
            "duration": 0.1875,
            "durationTicks": 96,
            "midi": 68,
            "name": "G#4",
            "ticks": 55968,
            "time": 109.3125,
            "velocity": 0.3937007874015748
          },
          {
            "duration": 0.1875,
            "durationTicks": 96,
            "midi": 83,
            "name": "B5",
            "ticks": 56064,
            "time": 109.5,
            "velocity": 0.3937007874015748
          },
          {
            "duration": 0.1875,
            "durationTicks": 96,
            "midi": 71,
            "name": "B4",
            "ticks": 56064,
            "time": 109.5,
            "velocity": 0.3937007874015748
          },
          {
            "duration": 0.1875,
            "durationTicks": 96,
            "midi": 85,
            "name": "C#6",
            "ticks": 56160,
            "time": 109.6875,
            "velocity": 0.3937007874015748
          },
          {
            "duration": 0.1875,
            "durationTicks": 96,
            "midi": 73,
            "name": "C#5",
            "ticks": 56160,
            "time": 109.6875,
            "velocity": 0.3937007874015748
          },
          {
            "duration": 0.1875,
            "durationTicks": 96,
            "midi": 78,
            "name": "F#5",
            "ticks": 56256,
            "time": 109.875,
            "velocity": 0.3937007874015748
          },
          {
            "duration": 0.1875,
            "durationTicks": 96,
            "midi": 66,
            "name": "F#4",
            "ticks": 56256,
            "time": 109.875,
            "velocity": 0.3937007874015748
          },
          {
            "duration": 0.1875,
            "durationTicks": 96,
            "midi": 78,
            "name": "F#5",
            "ticks": 56352,
            "time": 110.0625,
            "velocity": 0.3937007874015748
          },
          {
            "duration": 0.1875,
            "durationTicks": 96,
            "midi": 66,
            "name": "F#4",
            "ticks": 56352,
            "time": 110.0625,
            "velocity": 0.3937007874015748
          },
          {
            "duration": 0.1875,
            "durationTicks": 96,
            "midi": 78,
            "name": "F#5",
            "ticks": 56448,
            "time": 110.25,
            "velocity": 0.3937007874015748
          },
          {
            "duration": 0.1875,
            "durationTicks": 96,
            "midi": 90,
            "name": "F#6",
            "ticks": 56448,
            "time": 110.25,
            "velocity": 0.3937007874015748
          },
          {
            "duration": 0.1875,
            "durationTicks": 96,
            "midi": 90,
            "name": "F#6",
            "ticks": 56544,
            "time": 110.4375,
            "velocity": 0.3937007874015748
          },
          {
            "duration": 0.1875,
            "durationTicks": 96,
            "midi": 78,
            "name": "F#5",
            "ticks": 56544,
            "time": 110.4375,
            "velocity": 0.3937007874015748
          },
          {
            "duration": 0.1875,
            "durationTicks": 96,
            "midi": 78,
            "name": "F#5",
            "ticks": 56640,
            "time": 110.625,
            "velocity": 0.3937007874015748
          },
          {
            "duration": 0.1875,
            "durationTicks": 96,
            "midi": 66,
            "name": "F#4",
            "ticks": 56640,
            "time": 110.625,
            "velocity": 0.3937007874015748
          },
          {
            "duration": 0.1875,
            "durationTicks": 96,
            "midi": 66,
            "name": "F#4",
            "ticks": 56736,
            "time": 110.8125,
            "velocity": 0.3937007874015748
          },
          {
            "duration": 0.1875,
            "durationTicks": 96,
            "midi": 78,
            "name": "F#5",
            "ticks": 56736,
            "time": 110.8125,
            "velocity": 0.3937007874015748
          },
          {
            "duration": 0.1875,
            "durationTicks": 96,
            "midi": 78,
            "name": "F#5",
            "ticks": 56832,
            "time": 111,
            "velocity": 0.3937007874015748
          },
          {
            "duration": 0.1875,
            "durationTicks": 96,
            "midi": 66,
            "name": "F#4",
            "ticks": 56832,
            "time": 111,
            "velocity": 0.3937007874015748
          },
          {
            "duration": 0.1875,
            "durationTicks": 96,
            "midi": 80,
            "name": "G#5",
            "ticks": 56928,
            "time": 111.1875,
            "velocity": 0.3937007874015748
          },
          {
            "duration": 0.1875,
            "durationTicks": 96,
            "midi": 68,
            "name": "G#4",
            "ticks": 56928,
            "time": 111.1875,
            "velocity": 0.3937007874015748
          },
          {
            "duration": 0.1875,
            "durationTicks": 96,
            "midi": 71,
            "name": "B4",
            "ticks": 57024,
            "time": 111.375,
            "velocity": 0.3937007874015748
          },
          {
            "duration": 0.1875,
            "durationTicks": 96,
            "midi": 83,
            "name": "B5",
            "ticks": 57024,
            "time": 111.375,
            "velocity": 0.3937007874015748
          },
          {
            "duration": 0.1875,
            "durationTicks": 96,
            "midi": 71,
            "name": "B4",
            "ticks": 57120,
            "time": 111.5625,
            "velocity": 0.3937007874015748
          },
          {
            "duration": 0.1875,
            "durationTicks": 96,
            "midi": 83,
            "name": "B5",
            "ticks": 57120,
            "time": 111.5625,
            "velocity": 0.3937007874015748
          },
          {
            "duration": 0.1875,
            "durationTicks": 96,
            "midi": 74,
            "name": "D5",
            "ticks": 57216,
            "time": 111.75,
            "velocity": 0.3937007874015748
          },
          {
            "duration": 0.1875,
            "durationTicks": 96,
            "midi": 86,
            "name": "D6",
            "ticks": 57216,
            "time": 111.75,
            "velocity": 0.3937007874015748
          },
          {
            "duration": 0.1875,
            "durationTicks": 96,
            "midi": 76,
            "name": "E5",
            "ticks": 57312,
            "time": 111.9375,
            "velocity": 0.3937007874015748
          },
          {
            "duration": 0.1875,
            "durationTicks": 96,
            "midi": 88,
            "name": "E6",
            "ticks": 57312,
            "time": 111.9375,
            "velocity": 0.3937007874015748
          },
          {
            "duration": 0.1875,
            "durationTicks": 96,
            "midi": 80,
            "name": "G#5",
            "ticks": 57408,
            "time": 112.125,
            "velocity": 0.3937007874015748
          },
          {
            "duration": 0.1875,
            "durationTicks": 96,
            "midi": 92,
            "name": "G#6",
            "ticks": 57408,
            "time": 112.125,
            "velocity": 0.3937007874015748
          },
          {
            "duration": 0.1875,
            "durationTicks": 96,
            "midi": 92,
            "name": "G#6",
            "ticks": 57504,
            "time": 112.3125,
            "velocity": 0.3937007874015748
          },
          {
            "duration": 0.1875,
            "durationTicks": 96,
            "midi": 80,
            "name": "G#5",
            "ticks": 57504,
            "time": 112.3125,
            "velocity": 0.3937007874015748
          },
          {
            "duration": 0.1875,
            "durationTicks": 96,
            "midi": 93,
            "name": "A6",
            "ticks": 57600,
            "time": 112.5,
            "velocity": 0.3937007874015748
          },
          {
            "duration": 0.1875,
            "durationTicks": 96,
            "midi": 81,
            "name": "A5",
            "ticks": 57600,
            "time": 112.5,
            "velocity": 0.3937007874015748
          },
          {
            "duration": 0.1875,
            "durationTicks": 96,
            "midi": 81,
            "name": "A5",
            "ticks": 57696,
            "time": 112.6875,
            "velocity": 0.3937007874015748
          },
          {
            "duration": 0.1875,
            "durationTicks": 96,
            "midi": 93,
            "name": "A6",
            "ticks": 57696,
            "time": 112.6875,
            "velocity": 0.3937007874015748
          },
          {
            "duration": 0.1875,
            "durationTicks": 96,
            "midi": 81,
            "name": "A5",
            "ticks": 57792,
            "time": 112.875,
            "velocity": 0.3937007874015748
          },
          {
            "duration": 0.1875,
            "durationTicks": 96,
            "midi": 93,
            "name": "A6",
            "ticks": 57792,
            "time": 112.875,
            "velocity": 0.3937007874015748
          },
          {
            "duration": 0.1875,
            "durationTicks": 96,
            "midi": 93,
            "name": "A6",
            "ticks": 57888,
            "time": 113.0625,
            "velocity": 0.3937007874015748
          },
          {
            "duration": 0.1875,
            "durationTicks": 96,
            "midi": 81,
            "name": "A5",
            "ticks": 57888,
            "time": 113.0625,
            "velocity": 0.3937007874015748
          },
          {
            "duration": 0.1875,
            "durationTicks": 96,
            "midi": 92,
            "name": "G#6",
            "ticks": 57984,
            "time": 113.25,
            "velocity": 0.3937007874015748
          },
          {
            "duration": 0.1875,
            "durationTicks": 96,
            "midi": 80,
            "name": "G#5",
            "ticks": 57984,
            "time": 113.25,
            "velocity": 0.3937007874015748
          },
          {
            "duration": 0.1875,
            "durationTicks": 96,
            "midi": 92,
            "name": "G#6",
            "ticks": 58080,
            "time": 113.4375,
            "velocity": 0.3937007874015748
          },
          {
            "duration": 0.1875,
            "durationTicks": 96,
            "midi": 80,
            "name": "G#5",
            "ticks": 58080,
            "time": 113.4375,
            "velocity": 0.3937007874015748
          },
          {
            "duration": 0.1875,
            "durationTicks": 96,
            "midi": 92,
            "name": "G#6",
            "ticks": 58176,
            "time": 113.625,
            "velocity": 0.3937007874015748
          },
          {
            "duration": 0.1875,
            "durationTicks": 96,
            "midi": 80,
            "name": "G#5",
            "ticks": 58176,
            "time": 113.625,
            "velocity": 0.3937007874015748
          },
          {
            "duration": 0.1875,
            "durationTicks": 96,
            "midi": 80,
            "name": "G#5",
            "ticks": 58272,
            "time": 113.8125,
            "velocity": 0.3937007874015748
          },
          {
            "duration": 0.1875,
            "durationTicks": 96,
            "midi": 92,
            "name": "G#6",
            "ticks": 58272,
            "time": 113.8125,
            "velocity": 0.3937007874015748
          },
          {
            "duration": 0.1875,
            "durationTicks": 96,
            "midi": 78,
            "name": "F#5",
            "ticks": 58368,
            "time": 114,
            "velocity": 0.3937007874015748
          },
          {
            "duration": 0.1875,
            "durationTicks": 96,
            "midi": 90,
            "name": "F#6",
            "ticks": 58368,
            "time": 114,
            "velocity": 0.3937007874015748
          },
          {
            "duration": 0.1875,
            "durationTicks": 96,
            "midi": 90,
            "name": "F#6",
            "ticks": 58464,
            "time": 114.1875,
            "velocity": 0.3937007874015748
          },
          {
            "duration": 0.1875,
            "durationTicks": 96,
            "midi": 78,
            "name": "F#5",
            "ticks": 58464,
            "time": 114.1875,
            "velocity": 0.3937007874015748
          },
          {
            "duration": 0.1875,
            "durationTicks": 96,
            "midi": 78,
            "name": "F#5",
            "ticks": 58560,
            "time": 114.375,
            "velocity": 0.3937007874015748
          },
          {
            "duration": 0.1875,
            "durationTicks": 96,
            "midi": 90,
            "name": "F#6",
            "ticks": 58560,
            "time": 114.375,
            "velocity": 0.3937007874015748
          },
          {
            "duration": 0.1875,
            "durationTicks": 96,
            "midi": 90,
            "name": "F#6",
            "ticks": 58656,
            "time": 114.5625,
            "velocity": 0.3937007874015748
          },
          {
            "duration": 0.1875,
            "durationTicks": 96,
            "midi": 78,
            "name": "F#5",
            "ticks": 58656,
            "time": 114.5625,
            "velocity": 0.3937007874015748
          },
          {
            "duration": 0.1875,
            "durationTicks": 96,
            "midi": 78,
            "name": "F#5",
            "ticks": 58752,
            "time": 114.75,
            "velocity": 0.3937007874015748
          },
          {
            "duration": 0.1875,
            "durationTicks": 96,
            "midi": 90,
            "name": "F#6",
            "ticks": 58752,
            "time": 114.75,
            "velocity": 0.3937007874015748
          },
          {
            "duration": 0.1875,
            "durationTicks": 96,
            "midi": 78,
            "name": "F#5",
            "ticks": 58848,
            "time": 114.9375,
            "velocity": 0.3937007874015748
          },
          {
            "duration": 0.1875,
            "durationTicks": 96,
            "midi": 90,
            "name": "F#6",
            "ticks": 58848,
            "time": 114.9375,
            "velocity": 0.3937007874015748
          },
          {
            "duration": 0.1875,
            "durationTicks": 96,
            "midi": 90,
            "name": "F#6",
            "ticks": 58944,
            "time": 115.125,
            "velocity": 0.3937007874015748
          },
          {
            "duration": 0.1875,
            "durationTicks": 96,
            "midi": 78,
            "name": "F#5",
            "ticks": 58944,
            "time": 115.125,
            "velocity": 0.3937007874015748
          },
          {
            "duration": 0.1875,
            "durationTicks": 96,
            "midi": 90,
            "name": "F#6",
            "ticks": 59040,
            "time": 115.3125,
            "velocity": 0.3937007874015748
          },
          {
            "duration": 0.1875,
            "durationTicks": 96,
            "midi": 78,
            "name": "F#5",
            "ticks": 59040,
            "time": 115.3125,
            "velocity": 0.3937007874015748
          },
          {
            "duration": 0.1875,
            "durationTicks": 96,
            "midi": 90,
            "name": "F#6",
            "ticks": 59136,
            "time": 115.5,
            "velocity": 0.3937007874015748
          },
          {
            "duration": 0.1875,
            "durationTicks": 96,
            "midi": 78,
            "name": "F#5",
            "ticks": 59136,
            "time": 115.5,
            "velocity": 0.3937007874015748
          },
          {
            "duration": 0.1875,
            "durationTicks": 96,
            "midi": 89,
            "name": "F6",
            "ticks": 59904,
            "time": 117,
            "velocity": 0.3937007874015748
          },
          {
            "duration": 0.1875,
            "durationTicks": 96,
            "midi": 77,
            "name": "F5",
            "ticks": 59904,
            "time": 117,
            "velocity": 0.3937007874015748
          },
          {
            "duration": 0.1875,
            "durationTicks": 96,
            "midi": 89,
            "name": "F6",
            "ticks": 60000,
            "time": 117.1875,
            "velocity": 0.3937007874015748
          },
          {
            "duration": 0.1875,
            "durationTicks": 96,
            "midi": 77,
            "name": "F5",
            "ticks": 60000,
            "time": 117.1875,
            "velocity": 0.3937007874015748
          },
          {
            "duration": 0.1875,
            "durationTicks": 96,
            "midi": 77,
            "name": "F5",
            "ticks": 60096,
            "time": 117.375,
            "velocity": 0.3937007874015748
          },
          {
            "duration": 0.1875,
            "durationTicks": 96,
            "midi": 89,
            "name": "F6",
            "ticks": 60096,
            "time": 117.375,
            "velocity": 0.3937007874015748
          },
          {
            "duration": 0.1875,
            "durationTicks": 96,
            "midi": 77,
            "name": "F5",
            "ticks": 60192,
            "time": 117.5625,
            "velocity": 0.3937007874015748
          },
          {
            "duration": 0.1875,
            "durationTicks": 96,
            "midi": 89,
            "name": "F6",
            "ticks": 60192,
            "time": 117.5625,
            "velocity": 0.3937007874015748
          },
          {
            "duration": 0.1875,
            "durationTicks": 96,
            "midi": 93,
            "name": "A6",
            "ticks": 60288,
            "time": 117.75,
            "velocity": 0.3937007874015748
          },
          {
            "duration": 0.1875,
            "durationTicks": 96,
            "midi": 81,
            "name": "A5",
            "ticks": 60288,
            "time": 117.75,
            "velocity": 0.3937007874015748
          },
          {
            "duration": 0.1875,
            "durationTicks": 96,
            "midi": 80,
            "name": "G#5",
            "ticks": 60384,
            "time": 117.9375,
            "velocity": 0.3937007874015748
          },
          {
            "duration": 0.1875,
            "durationTicks": 96,
            "midi": 92,
            "name": "G#6",
            "ticks": 60384,
            "time": 117.9375,
            "velocity": 0.3937007874015748
          },
          {
            "duration": 0.1875,
            "durationTicks": 96,
            "midi": 78,
            "name": "F#5",
            "ticks": 60480,
            "time": 118.125,
            "velocity": 0.3937007874015748
          },
          {
            "duration": 0.1875,
            "durationTicks": 96,
            "midi": 90,
            "name": "F#6",
            "ticks": 60480,
            "time": 118.125,
            "velocity": 0.3937007874015748
          },
          {
            "duration": 0.1875,
            "durationTicks": 96,
            "midi": 76,
            "name": "E5",
            "ticks": 60576,
            "time": 118.3125,
            "velocity": 0.3937007874015748
          },
          {
            "duration": 0.1875,
            "durationTicks": 96,
            "midi": 88,
            "name": "E6",
            "ticks": 60576,
            "time": 118.3125,
            "velocity": 0.3937007874015748
          },
          {
            "duration": 0.1875,
            "durationTicks": 96,
            "midi": 85,
            "name": "C#6",
            "ticks": 60672,
            "time": 118.5,
            "velocity": 0.3937007874015748
          },
          {
            "duration": 0.1875,
            "durationTicks": 96,
            "midi": 73,
            "name": "C#5",
            "ticks": 60672,
            "time": 118.5,
            "velocity": 0.3937007874015748
          },
          {
            "duration": 0.1875,
            "durationTicks": 96,
            "midi": 73,
            "name": "C#5",
            "ticks": 60768,
            "time": 118.6875,
            "velocity": 0.3937007874015748
          },
          {
            "duration": 0.1875,
            "durationTicks": 96,
            "midi": 85,
            "name": "C#6",
            "ticks": 60768,
            "time": 118.6875,
            "velocity": 0.3937007874015748
          },
          {
            "duration": 0.1875,
            "durationTicks": 96,
            "midi": 76,
            "name": "E5",
            "ticks": 60864,
            "time": 118.875,
            "velocity": 0.3937007874015748
          },
          {
            "duration": 0.1875,
            "durationTicks": 96,
            "midi": 88,
            "name": "E6",
            "ticks": 60864,
            "time": 118.875,
            "velocity": 0.3937007874015748
          },
          {
            "duration": 0.1875,
            "durationTicks": 96,
            "midi": 76,
            "name": "E5",
            "ticks": 60960,
            "time": 119.0625,
            "velocity": 0.3937007874015748
          },
          {
            "duration": 0.1875,
            "durationTicks": 96,
            "midi": 88,
            "name": "E6",
            "ticks": 60960,
            "time": 119.0625,
            "velocity": 0.3937007874015748
          },
          {
            "duration": 0.1875,
            "durationTicks": 96,
            "midi": 78,
            "name": "F#5",
            "ticks": 61056,
            "time": 119.25,
            "velocity": 0.3937007874015748
          },
          {
            "duration": 0.1875,
            "durationTicks": 96,
            "midi": 90,
            "name": "F#6",
            "ticks": 61056,
            "time": 119.25,
            "velocity": 0.3937007874015748
          },
          {
            "duration": 0.1875,
            "durationTicks": 96,
            "midi": 81,
            "name": "A5",
            "ticks": 61152,
            "time": 119.4375,
            "velocity": 0.3937007874015748
          },
          {
            "duration": 0.1875,
            "durationTicks": 96,
            "midi": 69,
            "name": "A4",
            "ticks": 61152,
            "time": 119.4375,
            "velocity": 0.3937007874015748
          },
          {
            "duration": 0.1875,
            "durationTicks": 96,
            "midi": 61,
            "name": "C#4",
            "ticks": 61248,
            "time": 119.625,
            "velocity": 0.3937007874015748
          },
          {
            "duration": 0.1875,
            "durationTicks": 96,
            "midi": 73,
            "name": "C#5",
            "ticks": 61248,
            "time": 119.625,
            "velocity": 0.3937007874015748
          },
          {
            "duration": 0.1875,
            "durationTicks": 96,
            "midi": 81,
            "name": "A5",
            "ticks": 61344,
            "time": 119.8125,
            "velocity": 0.3937007874015748
          },
          {
            "duration": 0.1875,
            "durationTicks": 96,
            "midi": 93,
            "name": "A6",
            "ticks": 61344,
            "time": 119.8125,
            "velocity": 0.3937007874015748
          },
          {
            "duration": 0.1875,
            "durationTicks": 96,
            "midi": 90,
            "name": "F#6",
            "ticks": 61440,
            "time": 120,
            "velocity": 0.3937007874015748
          },
          {
            "duration": 0.1875,
            "durationTicks": 96,
            "midi": 78,
            "name": "F#5",
            "ticks": 61440,
            "time": 120,
            "velocity": 0.3937007874015748
          },
          {
            "duration": 0.1875,
            "durationTicks": 96,
            "midi": 81,
            "name": "A5",
            "ticks": 61536,
            "time": 120.1875,
            "velocity": 0.3937007874015748
          },
          {
            "duration": 0.1875,
            "durationTicks": 96,
            "midi": 69,
            "name": "A4",
            "ticks": 61536,
            "time": 120.1875,
            "velocity": 0.3937007874015748
          },
          {
            "duration": 0.1875,
            "durationTicks": 96,
            "midi": 61,
            "name": "C#4",
            "ticks": 61632,
            "time": 120.375,
            "velocity": 0.3937007874015748
          },
          {
            "duration": 0.1875,
            "durationTicks": 96,
            "midi": 73,
            "name": "C#5",
            "ticks": 61632,
            "time": 120.375,
            "velocity": 0.3937007874015748
          },
          {
            "duration": 0.1875,
            "durationTicks": 96,
            "midi": 68,
            "name": "G#4",
            "ticks": 61728,
            "time": 120.5625,
            "velocity": 0.3937007874015748
          },
          {
            "duration": 0.1875,
            "durationTicks": 96,
            "midi": 80,
            "name": "G#5",
            "ticks": 61728,
            "time": 120.5625,
            "velocity": 0.3937007874015748
          },
          {
            "duration": 0.1875,
            "durationTicks": 96,
            "midi": 90,
            "name": "F#6",
            "ticks": 61824,
            "time": 120.75,
            "velocity": 0.3937007874015748
          },
          {
            "duration": 0.1875,
            "durationTicks": 96,
            "midi": 78,
            "name": "F#5",
            "ticks": 61824,
            "time": 120.75,
            "velocity": 0.3937007874015748
          },
          {
            "duration": 0.1875,
            "durationTicks": 96,
            "midi": 81,
            "name": "A5",
            "ticks": 61920,
            "time": 120.9375,
            "velocity": 0.3937007874015748
          },
          {
            "duration": 0.1875,
            "durationTicks": 96,
            "midi": 69,
            "name": "A4",
            "ticks": 61920,
            "time": 120.9375,
            "velocity": 0.3937007874015748
          },
          {
            "duration": 0.1875,
            "durationTicks": 96,
            "midi": 61,
            "name": "C#4",
            "ticks": 62016,
            "time": 121.125,
            "velocity": 0.3937007874015748
          },
          {
            "duration": 0.1875,
            "durationTicks": 96,
            "midi": 73,
            "name": "C#5",
            "ticks": 62016,
            "time": 121.125,
            "velocity": 0.3937007874015748
          },
          {
            "duration": 0.1875,
            "durationTicks": 96,
            "midi": 80,
            "name": "G#5",
            "ticks": 62112,
            "time": 121.3125,
            "velocity": 0.3937007874015748
          },
          {
            "duration": 0.1875,
            "durationTicks": 96,
            "midi": 68,
            "name": "G#4",
            "ticks": 62112,
            "time": 121.3125,
            "velocity": 0.3937007874015748
          },
          {
            "duration": 0.1875,
            "durationTicks": 96,
            "midi": 80,
            "name": "G#5",
            "ticks": 62208,
            "time": 121.5,
            "velocity": 0.3937007874015748
          },
          {
            "duration": 0.1875,
            "durationTicks": 96,
            "midi": 92,
            "name": "G#6",
            "ticks": 62208,
            "time": 121.5,
            "velocity": 0.3937007874015748
          },
          {
            "duration": 0.1875,
            "durationTicks": 96,
            "midi": 80,
            "name": "G#5",
            "ticks": 62304,
            "time": 121.6875,
            "velocity": 0.3937007874015748
          },
          {
            "duration": 0.1875,
            "durationTicks": 96,
            "midi": 92,
            "name": "G#6",
            "ticks": 62304,
            "time": 121.6875,
            "velocity": 0.3937007874015748
          },
          {
            "duration": 0.1875,
            "durationTicks": 96,
            "midi": 93,
            "name": "A6",
            "ticks": 62400,
            "time": 121.875,
            "velocity": 0.3937007874015748
          },
          {
            "duration": 0.1875,
            "durationTicks": 96,
            "midi": 81,
            "name": "A5",
            "ticks": 62400,
            "time": 121.875,
            "velocity": 0.3937007874015748
          },
          {
            "duration": 0.1875,
            "durationTicks": 96,
            "midi": 81,
            "name": "A5",
            "ticks": 62496,
            "time": 122.0625,
            "velocity": 0.3937007874015748
          },
          {
            "duration": 0.1875,
            "durationTicks": 96,
            "midi": 93,
            "name": "A6",
            "ticks": 62496,
            "time": 122.0625,
            "velocity": 0.3937007874015748
          },
          {
            "duration": 0.1875,
            "durationTicks": 96,
            "midi": 89,
            "name": "F6",
            "ticks": 62592,
            "time": 122.25,
            "velocity": 0.3937007874015748
          },
          {
            "duration": 0.1875,
            "durationTicks": 96,
            "midi": 77,
            "name": "F5",
            "ticks": 62592,
            "time": 122.25,
            "velocity": 0.3937007874015748
          },
          {
            "duration": 0.1875,
            "durationTicks": 96,
            "midi": 89,
            "name": "F6",
            "ticks": 62688,
            "time": 122.4375,
            "velocity": 0.3937007874015748
          },
          {
            "duration": 0.1875,
            "durationTicks": 96,
            "midi": 77,
            "name": "F5",
            "ticks": 62688,
            "time": 122.4375,
            "velocity": 0.3937007874015748
          },
          {
            "duration": 0.1875,
            "durationTicks": 96,
            "midi": 89,
            "name": "F6",
            "ticks": 62784,
            "time": 122.625,
            "velocity": 0.3937007874015748
          },
          {
            "duration": 0.1875,
            "durationTicks": 96,
            "midi": 89,
            "name": "F6",
            "ticks": 62880,
            "time": 122.8125,
            "velocity": 0.3937007874015748
          }
        ],
        "endOfTrackTicks": 62976
      },
      {
        "channel": 9,
        "controlChanges": {},
        "pitchBends": [],
        "instrument": {
          "family": "drums",
          "number": 0,
          "name": "standard kit"
        },
        "name": "Electric Drum Kit",
        "notes": [
          {
            "duration": 0.1875,
            "durationTicks": 96,
            "midi": 35,
            "name": "B1",
            "ticks": 3072,
            "time": 6,
            "velocity": 0.3937007874015748
          },
          {
            "duration": 0.1875,
            "durationTicks": 96,
            "midi": 38,
            "name": "D2",
            "ticks": 3456,
            "time": 6.75,
            "velocity": 0.3937007874015748
          },
          {
            "duration": 0.1875,
            "durationTicks": 96,
            "midi": 35,
            "name": "B1",
            "ticks": 3840,
            "time": 7.5,
            "velocity": 0.3937007874015748
          },
          {
            "duration": 0.1875,
            "durationTicks": 96,
            "midi": 38,
            "name": "D2",
            "ticks": 4224,
            "time": 8.25,
            "velocity": 0.3937007874015748
          },
          {
            "duration": 0.1875,
            "durationTicks": 96,
            "midi": 35,
            "name": "B1",
            "ticks": 4608,
            "time": 9,
            "velocity": 0.3937007874015748
          },
          {
            "duration": 0.1875,
            "durationTicks": 96,
            "midi": 38,
            "name": "D2",
            "ticks": 4992,
            "time": 9.75,
            "velocity": 0.3937007874015748
          },
          {
            "duration": 0.1875,
            "durationTicks": 96,
            "midi": 35,
            "name": "B1",
            "ticks": 5376,
            "time": 10.5,
            "velocity": 0.3937007874015748
          },
          {
            "duration": 0.1875,
            "durationTicks": 96,
            "midi": 38,
            "name": "D2",
            "ticks": 5664,
            "time": 11.0625,
            "velocity": 0.3937007874015748
          },
          {
            "duration": 0.1875,
            "durationTicks": 96,
            "midi": 38,
            "name": "D2",
            "ticks": 5760,
            "time": 11.25,
            "velocity": 0.3937007874015748
          },
          {
            "duration": 0.1875,
            "durationTicks": 96,
            "midi": 35,
            "name": "B1",
            "ticks": 6144,
            "time": 12,
            "velocity": 0.3937007874015748
          },
          {
            "duration": 0.1875,
            "durationTicks": 96,
            "midi": 31,
            "name": "G1",
            "ticks": 6336,
            "time": 12.375,
            "velocity": 0.3937007874015748
          },
          {
            "duration": 0.1875,
            "durationTicks": 96,
            "midi": 44,
            "name": "G#2",
            "ticks": 6432,
            "time": 12.5625,
            "velocity": 0.3937007874015748
          },
          {
            "duration": 0.1875,
            "durationTicks": 96,
            "midi": 38,
            "name": "D2",
            "ticks": 6528,
            "time": 12.75,
            "velocity": 0.3937007874015748
          },
          {
            "duration": 0.1875,
            "durationTicks": 96,
            "midi": 35,
            "name": "B1",
            "ticks": 6720,
            "time": 13.125,
            "velocity": 0.3937007874015748
          },
          {
            "duration": 0.1875,
            "durationTicks": 96,
            "midi": 35,
            "name": "B1",
            "ticks": 6912,
            "time": 13.5,
            "velocity": 0.3937007874015748
          },
          {
            "duration": 0.1875,
            "durationTicks": 96,
            "midi": 31,
            "name": "G1",
            "ticks": 7104,
            "time": 13.875,
            "velocity": 0.3937007874015748
          },
          {
            "duration": 0.1875,
            "durationTicks": 96,
            "midi": 38,
            "name": "D2",
            "ticks": 7296,
            "time": 14.25,
            "velocity": 0.3937007874015748
          },
          {
            "duration": 0.1875,
            "durationTicks": 96,
            "midi": 35,
            "name": "B1",
            "ticks": 7392,
            "time": 14.4375,
            "velocity": 0.3937007874015748
          },
          {
            "duration": 0.1875,
            "durationTicks": 96,
            "midi": 35,
            "name": "B1",
            "ticks": 7680,
            "time": 15,
            "velocity": 0.3937007874015748
          },
          {
            "duration": 0.1875,
            "durationTicks": 96,
            "midi": 44,
            "name": "G#2",
            "ticks": 7968,
            "time": 15.5625,
            "velocity": 0.3937007874015748
          },
          {
            "duration": 0.1875,
            "durationTicks": 96,
            "midi": 38,
            "name": "D2",
            "ticks": 8064,
            "time": 15.75,
            "velocity": 0.3937007874015748
          },
          {
            "duration": 0.1875,
            "durationTicks": 96,
            "midi": 35,
            "name": "B1",
            "ticks": 8256,
            "time": 16.125,
            "velocity": 0.3937007874015748
          },
          {
            "duration": 0.1875,
            "durationTicks": 96,
            "midi": 31,
            "name": "G1",
            "ticks": 8352,
            "time": 16.3125,
            "velocity": 0.3937007874015748
          },
          {
            "duration": 0.1875,
            "durationTicks": 96,
            "midi": 35,
            "name": "B1",
            "ticks": 8448,
            "time": 16.5,
            "velocity": 0.3937007874015748
          },
          {
            "duration": 0.1875,
            "durationTicks": 96,
            "midi": 31,
            "name": "G1",
            "ticks": 8640,
            "time": 16.875,
            "velocity": 0.3937007874015748
          },
          {
            "duration": 0.1875,
            "durationTicks": 96,
            "midi": 38,
            "name": "D2",
            "ticks": 8736,
            "time": 17.0625,
            "velocity": 0.3937007874015748
          },
          {
            "duration": 0.1875,
            "durationTicks": 96,
            "midi": 38,
            "name": "D2",
            "ticks": 8832,
            "time": 17.25,
            "velocity": 0.3937007874015748
          },
          {
            "duration": 0.1875,
            "durationTicks": 96,
            "midi": 31,
            "name": "G1",
            "ticks": 8832,
            "time": 17.25,
            "velocity": 0.3937007874015748
          },
          {
            "duration": 0.1875,
            "durationTicks": 96,
            "midi": 35,
            "name": "B1",
            "ticks": 8928,
            "time": 17.4375,
            "velocity": 0.3937007874015748
          },
          {
            "duration": 0.1875,
            "durationTicks": 96,
            "midi": 35,
            "name": "B1",
            "ticks": 9216,
            "time": 18,
            "velocity": 0.3937007874015748
          },
          {
            "duration": 0.1875,
            "durationTicks": 96,
            "midi": 38,
            "name": "D2",
            "ticks": 9600,
            "time": 18.75,
            "velocity": 0.3937007874015748
          },
          {
            "duration": 0.1875,
            "durationTicks": 96,
            "midi": 35,
            "name": "B1",
            "ticks": 9984,
            "time": 19.5,
            "velocity": 0.3937007874015748
          },
          {
            "duration": 0.1875,
            "durationTicks": 96,
            "midi": 38,
            "name": "D2",
            "ticks": 10368,
            "time": 20.25,
            "velocity": 0.3937007874015748
          },
          {
            "duration": 0.1875,
            "durationTicks": 96,
            "midi": 35,
            "name": "B1",
            "ticks": 10752,
            "time": 21,
            "velocity": 0.3937007874015748
          },
          {
            "duration": 0.1875,
            "durationTicks": 96,
            "midi": 38,
            "name": "D2",
            "ticks": 11136,
            "time": 21.75,
            "velocity": 0.3937007874015748
          },
          {
            "duration": 0.1875,
            "durationTicks": 96,
            "midi": 35,
            "name": "B1",
            "ticks": 11520,
            "time": 22.5,
            "velocity": 0.3937007874015748
          },
          {
            "duration": 0.1875,
            "durationTicks": 96,
            "midi": 38,
            "name": "D2",
            "ticks": 11808,
            "time": 23.0625,
            "velocity": 0.3937007874015748
          },
          {
            "duration": 0.1875,
            "durationTicks": 96,
            "midi": 38,
            "name": "D2",
            "ticks": 11904,
            "time": 23.25,
            "velocity": 0.3937007874015748
          },
          {
            "duration": 0.1875,
            "durationTicks": 96,
            "midi": 35,
            "name": "B1",
            "ticks": 12288,
            "time": 24,
            "velocity": 0.3937007874015748
          },
          {
            "duration": 0.1875,
            "durationTicks": 96,
            "midi": 31,
            "name": "G1",
            "ticks": 12480,
            "time": 24.375,
            "velocity": 0.3937007874015748
          },
          {
            "duration": 0.1875,
            "durationTicks": 96,
            "midi": 44,
            "name": "G#2",
            "ticks": 12576,
            "time": 24.5625,
            "velocity": 0.3937007874015748
          },
          {
            "duration": 0.1875,
            "durationTicks": 96,
            "midi": 38,
            "name": "D2",
            "ticks": 12672,
            "time": 24.75,
            "velocity": 0.3937007874015748
          },
          {
            "duration": 0.1875,
            "durationTicks": 96,
            "midi": 35,
            "name": "B1",
            "ticks": 12864,
            "time": 25.125,
            "velocity": 0.3937007874015748
          },
          {
            "duration": 0.1875,
            "durationTicks": 96,
            "midi": 35,
            "name": "B1",
            "ticks": 13056,
            "time": 25.5,
            "velocity": 0.3937007874015748
          },
          {
            "duration": 0.1875,
            "durationTicks": 96,
            "midi": 31,
            "name": "G1",
            "ticks": 13248,
            "time": 25.875,
            "velocity": 0.3937007874015748
          },
          {
            "duration": 0.1875,
            "durationTicks": 96,
            "midi": 38,
            "name": "D2",
            "ticks": 13440,
            "time": 26.25,
            "velocity": 0.3937007874015748
          },
          {
            "duration": 0.1875,
            "durationTicks": 96,
            "midi": 35,
            "name": "B1",
            "ticks": 13536,
            "time": 26.4375,
            "velocity": 0.3937007874015748
          },
          {
            "duration": 0.1875,
            "durationTicks": 96,
            "midi": 35,
            "name": "B1",
            "ticks": 13824,
            "time": 27,
            "velocity": 0.3937007874015748
          },
          {
            "duration": 0.1875,
            "durationTicks": 96,
            "midi": 44,
            "name": "G#2",
            "ticks": 14112,
            "time": 27.5625,
            "velocity": 0.3937007874015748
          },
          {
            "duration": 0.1875,
            "durationTicks": 96,
            "midi": 38,
            "name": "D2",
            "ticks": 14208,
            "time": 27.75,
            "velocity": 0.3937007874015748
          },
          {
            "duration": 0.1875,
            "durationTicks": 96,
            "midi": 35,
            "name": "B1",
            "ticks": 14400,
            "time": 28.125,
            "velocity": 0.3937007874015748
          },
          {
            "duration": 0.1875,
            "durationTicks": 96,
            "midi": 31,
            "name": "G1",
            "ticks": 14496,
            "time": 28.3125,
            "velocity": 0.3937007874015748
          },
          {
            "duration": 0.1875,
            "durationTicks": 96,
            "midi": 35,
            "name": "B1",
            "ticks": 14592,
            "time": 28.5,
            "velocity": 0.3937007874015748
          },
          {
            "duration": 0.1875,
            "durationTicks": 96,
            "midi": 31,
            "name": "G1",
            "ticks": 14784,
            "time": 28.875,
            "velocity": 0.3937007874015748
          },
          {
            "duration": 0.1875,
            "durationTicks": 96,
            "midi": 38,
            "name": "D2",
            "ticks": 14880,
            "time": 29.0625,
            "velocity": 0.3937007874015748
          },
          {
            "duration": 0.1875,
            "durationTicks": 96,
            "midi": 31,
            "name": "G1",
            "ticks": 14976,
            "time": 29.25,
            "velocity": 0.3937007874015748
          },
          {
            "duration": 0.1875,
            "durationTicks": 96,
            "midi": 38,
            "name": "D2",
            "ticks": 14976,
            "time": 29.25,
            "velocity": 0.3937007874015748
          },
          {
            "duration": 0.1875,
            "durationTicks": 96,
            "midi": 35,
            "name": "B1",
            "ticks": 15072,
            "time": 29.4375,
            "velocity": 0.3937007874015748
          },
          {
            "duration": 0.1875,
            "durationTicks": 96,
            "midi": 35,
            "name": "B1",
            "ticks": 15360,
            "time": 30,
            "velocity": 0.3937007874015748
          },
          {
            "duration": 0.1875,
            "durationTicks": 96,
            "midi": 38,
            "name": "D2",
            "ticks": 15744,
            "time": 30.75,
            "velocity": 0.3937007874015748
          },
          {
            "duration": 0.1875,
            "durationTicks": 96,
            "midi": 35,
            "name": "B1",
            "ticks": 16128,
            "time": 31.5,
            "velocity": 0.3937007874015748
          },
          {
            "duration": 0.1875,
            "durationTicks": 96,
            "midi": 38,
            "name": "D2",
            "ticks": 16512,
            "time": 32.25,
            "velocity": 0.3937007874015748
          },
          {
            "duration": 0.1875,
            "durationTicks": 96,
            "midi": 35,
            "name": "B1",
            "ticks": 16896,
            "time": 33,
            "velocity": 0.3937007874015748
          },
          {
            "duration": 0.1875,
            "durationTicks": 96,
            "midi": 38,
            "name": "D2",
            "ticks": 17280,
            "time": 33.75,
            "velocity": 0.3937007874015748
          },
          {
            "duration": 0.1875,
            "durationTicks": 96,
            "midi": 35,
            "name": "B1",
            "ticks": 17664,
            "time": 34.5,
            "velocity": 0.3937007874015748
          },
          {
            "duration": 0.1875,
            "durationTicks": 96,
            "midi": 38,
            "name": "D2",
            "ticks": 17952,
            "time": 35.0625,
            "velocity": 0.3937007874015748
          },
          {
            "duration": 0.1875,
            "durationTicks": 96,
            "midi": 38,
            "name": "D2",
            "ticks": 18048,
            "time": 35.25,
            "velocity": 0.3937007874015748
          },
          {
            "duration": 0.1875,
            "durationTicks": 96,
            "midi": 35,
            "name": "B1",
            "ticks": 18432,
            "time": 36,
            "velocity": 0.3937007874015748
          },
          {
            "duration": 0.1875,
            "durationTicks": 96,
            "midi": 31,
            "name": "G1",
            "ticks": 18624,
            "time": 36.375,
            "velocity": 0.3937007874015748
          },
          {
            "duration": 0.1875,
            "durationTicks": 96,
            "midi": 44,
            "name": "G#2",
            "ticks": 18720,
            "time": 36.5625,
            "velocity": 0.3937007874015748
          },
          {
            "duration": 0.1875,
            "durationTicks": 96,
            "midi": 38,
            "name": "D2",
            "ticks": 18816,
            "time": 36.75,
            "velocity": 0.3937007874015748
          },
          {
            "duration": 0.1875,
            "durationTicks": 96,
            "midi": 35,
            "name": "B1",
            "ticks": 19008,
            "time": 37.125,
            "velocity": 0.3937007874015748
          },
          {
            "duration": 0.1875,
            "durationTicks": 96,
            "midi": 35,
            "name": "B1",
            "ticks": 19200,
            "time": 37.5,
            "velocity": 0.3937007874015748
          },
          {
            "duration": 0.1875,
            "durationTicks": 96,
            "midi": 31,
            "name": "G1",
            "ticks": 19392,
            "time": 37.875,
            "velocity": 0.3937007874015748
          },
          {
            "duration": 0.1875,
            "durationTicks": 96,
            "midi": 38,
            "name": "D2",
            "ticks": 19584,
            "time": 38.25,
            "velocity": 0.3937007874015748
          },
          {
            "duration": 0.1875,
            "durationTicks": 96,
            "midi": 35,
            "name": "B1",
            "ticks": 19680,
            "time": 38.4375,
            "velocity": 0.3937007874015748
          },
          {
            "duration": 0.1875,
            "durationTicks": 96,
            "midi": 35,
            "name": "B1",
            "ticks": 19968,
            "time": 39,
            "velocity": 0.3937007874015748
          },
          {
            "duration": 0.1875,
            "durationTicks": 96,
            "midi": 44,
            "name": "G#2",
            "ticks": 20256,
            "time": 39.5625,
            "velocity": 0.3937007874015748
          },
          {
            "duration": 0.1875,
            "durationTicks": 96,
            "midi": 38,
            "name": "D2",
            "ticks": 20352,
            "time": 39.75,
            "velocity": 0.3937007874015748
          },
          {
            "duration": 0.1875,
            "durationTicks": 96,
            "midi": 35,
            "name": "B1",
            "ticks": 20544,
            "time": 40.125,
            "velocity": 0.3937007874015748
          },
          {
            "duration": 0.1875,
            "durationTicks": 96,
            "midi": 31,
            "name": "G1",
            "ticks": 20640,
            "time": 40.3125,
            "velocity": 0.3937007874015748
          },
          {
            "duration": 0.1875,
            "durationTicks": 96,
            "midi": 35,
            "name": "B1",
            "ticks": 20736,
            "time": 40.5,
            "velocity": 0.3937007874015748
          },
          {
            "duration": 0.1875,
            "durationTicks": 96,
            "midi": 31,
            "name": "G1",
            "ticks": 20928,
            "time": 40.875,
            "velocity": 0.3937007874015748
          },
          {
            "duration": 0.1875,
            "durationTicks": 96,
            "midi": 38,
            "name": "D2",
            "ticks": 21024,
            "time": 41.0625,
            "velocity": 0.3937007874015748
          },
          {
            "duration": 0.1875,
            "durationTicks": 96,
            "midi": 38,
            "name": "D2",
            "ticks": 21120,
            "time": 41.25,
            "velocity": 0.3937007874015748
          },
          {
            "duration": 0.1875,
            "durationTicks": 96,
            "midi": 31,
            "name": "G1",
            "ticks": 21120,
            "time": 41.25,
            "velocity": 0.3937007874015748
          },
          {
            "duration": 0.1875,
            "durationTicks": 96,
            "midi": 35,
            "name": "B1",
            "ticks": 21216,
            "time": 41.4375,
            "velocity": 0.3937007874015748
          },
          {
            "duration": 0.1875,
            "durationTicks": 96,
            "midi": 35,
            "name": "B1",
            "ticks": 21504,
            "time": 42,
            "velocity": 0.3937007874015748
          },
          {
            "duration": 0.1875,
            "durationTicks": 96,
            "midi": 38,
            "name": "D2",
            "ticks": 21888,
            "time": 42.75,
            "velocity": 0.3937007874015748
          },
          {
            "duration": 0.1875,
            "durationTicks": 96,
            "midi": 35,
            "name": "B1",
            "ticks": 22272,
            "time": 43.5,
            "velocity": 0.3937007874015748
          },
          {
            "duration": 0.1875,
            "durationTicks": 96,
            "midi": 38,
            "name": "D2",
            "ticks": 22656,
            "time": 44.25,
            "velocity": 0.3937007874015748
          },
          {
            "duration": 0.1875,
            "durationTicks": 96,
            "midi": 35,
            "name": "B1",
            "ticks": 23040,
            "time": 45,
            "velocity": 0.3937007874015748
          },
          {
            "duration": 0.1875,
            "durationTicks": 96,
            "midi": 38,
            "name": "D2",
            "ticks": 23424,
            "time": 45.75,
            "velocity": 0.3937007874015748
          },
          {
            "duration": 0.1875,
            "durationTicks": 96,
            "midi": 35,
            "name": "B1",
            "ticks": 23808,
            "time": 46.5,
            "velocity": 0.3937007874015748
          },
          {
            "duration": 0.1875,
            "durationTicks": 96,
            "midi": 38,
            "name": "D2",
            "ticks": 24096,
            "time": 47.0625,
            "velocity": 0.3937007874015748
          },
          {
            "duration": 0.1875,
            "durationTicks": 96,
            "midi": 38,
            "name": "D2",
            "ticks": 24192,
            "time": 47.25,
            "velocity": 0.3937007874015748
          },
          {
            "duration": 0.1875,
            "durationTicks": 96,
            "midi": 35,
            "name": "B1",
            "ticks": 24576,
            "time": 48,
            "velocity": 0.3937007874015748
          },
          {
            "duration": 0.1875,
            "durationTicks": 96,
            "midi": 31,
            "name": "G1",
            "ticks": 24768,
            "time": 48.375,
            "velocity": 0.3937007874015748
          },
          {
            "duration": 0.1875,
            "durationTicks": 96,
            "midi": 44,
            "name": "G#2",
            "ticks": 24864,
            "time": 48.5625,
            "velocity": 0.3937007874015748
          },
          {
            "duration": 0.1875,
            "durationTicks": 96,
            "midi": 38,
            "name": "D2",
            "ticks": 24960,
            "time": 48.75,
            "velocity": 0.3937007874015748
          },
          {
            "duration": 0.1875,
            "durationTicks": 96,
            "midi": 35,
            "name": "B1",
            "ticks": 25152,
            "time": 49.125,
            "velocity": 0.3937007874015748
          },
          {
            "duration": 0.1875,
            "durationTicks": 96,
            "midi": 35,
            "name": "B1",
            "ticks": 25344,
            "time": 49.5,
            "velocity": 0.3937007874015748
          },
          {
            "duration": 0.1875,
            "durationTicks": 96,
            "midi": 31,
            "name": "G1",
            "ticks": 25536,
            "time": 49.875,
            "velocity": 0.3937007874015748
          },
          {
            "duration": 0.1875,
            "durationTicks": 96,
            "midi": 38,
            "name": "D2",
            "ticks": 25728,
            "time": 50.25,
            "velocity": 0.3937007874015748
          },
          {
            "duration": 0.1875,
            "durationTicks": 96,
            "midi": 35,
            "name": "B1",
            "ticks": 25824,
            "time": 50.4375,
            "velocity": 0.3937007874015748
          },
          {
            "duration": 0.1875,
            "durationTicks": 96,
            "midi": 35,
            "name": "B1",
            "ticks": 26112,
            "time": 51,
            "velocity": 0.3937007874015748
          },
          {
            "duration": 0.1875,
            "durationTicks": 96,
            "midi": 44,
            "name": "G#2",
            "ticks": 26400,
            "time": 51.5625,
            "velocity": 0.3937007874015748
          },
          {
            "duration": 0.1875,
            "durationTicks": 96,
            "midi": 38,
            "name": "D2",
            "ticks": 26496,
            "time": 51.75,
            "velocity": 0.3937007874015748
          },
          {
            "duration": 0.1875,
            "durationTicks": 96,
            "midi": 35,
            "name": "B1",
            "ticks": 26688,
            "time": 52.125,
            "velocity": 0.3937007874015748
          },
          {
            "duration": 0.1875,
            "durationTicks": 96,
            "midi": 31,
            "name": "G1",
            "ticks": 26784,
            "time": 52.3125,
            "velocity": 0.3937007874015748
          },
          {
            "duration": 0.1875,
            "durationTicks": 96,
            "midi": 35,
            "name": "B1",
            "ticks": 26880,
            "time": 52.5,
            "velocity": 0.3937007874015748
          },
          {
            "duration": 0.1875,
            "durationTicks": 96,
            "midi": 31,
            "name": "G1",
            "ticks": 27072,
            "time": 52.875,
            "velocity": 0.3937007874015748
          },
          {
            "duration": 0.1875,
            "durationTicks": 96,
            "midi": 38,
            "name": "D2",
            "ticks": 27168,
            "time": 53.0625,
            "velocity": 0.3937007874015748
          },
          {
            "duration": 0.1875,
            "durationTicks": 96,
            "midi": 31,
            "name": "G1",
            "ticks": 27264,
            "time": 53.25,
            "velocity": 0.3937007874015748
          },
          {
            "duration": 0.1875,
            "durationTicks": 96,
            "midi": 38,
            "name": "D2",
            "ticks": 27264,
            "time": 53.25,
            "velocity": 0.3937007874015748
          },
          {
            "duration": 0.1875,
            "durationTicks": 96,
            "midi": 35,
            "name": "B1",
            "ticks": 27360,
            "time": 53.4375,
            "velocity": 0.3937007874015748
          },
          {
            "duration": 0.1875,
            "durationTicks": 96,
            "midi": 35,
            "name": "B1",
            "ticks": 27648,
            "time": 54,
            "velocity": 0.3937007874015748
          },
          {
            "duration": 0.1875,
            "durationTicks": 96,
            "midi": 38,
            "name": "D2",
            "ticks": 28032,
            "time": 54.75,
            "velocity": 0.3937007874015748
          },
          {
            "duration": 0.1875,
            "durationTicks": 96,
            "midi": 35,
            "name": "B1",
            "ticks": 28416,
            "time": 55.5,
            "velocity": 0.3937007874015748
          },
          {
            "duration": 0.1875,
            "durationTicks": 96,
            "midi": 38,
            "name": "D2",
            "ticks": 28800,
            "time": 56.25,
            "velocity": 0.3937007874015748
          },
          {
            "duration": 0.1875,
            "durationTicks": 96,
            "midi": 35,
            "name": "B1",
            "ticks": 29184,
            "time": 57,
            "velocity": 0.3937007874015748
          },
          {
            "duration": 0.1875,
            "durationTicks": 96,
            "midi": 38,
            "name": "D2",
            "ticks": 29568,
            "time": 57.75,
            "velocity": 0.3937007874015748
          },
          {
            "duration": 0.1875,
            "durationTicks": 96,
            "midi": 35,
            "name": "B1",
            "ticks": 29952,
            "time": 58.5,
            "velocity": 0.3937007874015748
          },
          {
            "duration": 0.1875,
            "durationTicks": 96,
            "midi": 38,
            "name": "D2",
            "ticks": 30240,
            "time": 59.0625,
            "velocity": 0.3937007874015748
          },
          {
            "duration": 0.1875,
            "durationTicks": 96,
            "midi": 38,
            "name": "D2",
            "ticks": 30336,
            "time": 59.25,
            "velocity": 0.3937007874015748
          },
          {
            "duration": 0.1875,
            "durationTicks": 96,
            "midi": 35,
            "name": "B1",
            "ticks": 30720,
            "time": 60,
            "velocity": 0.3937007874015748
          },
          {
            "duration": 0.1875,
            "durationTicks": 96,
            "midi": 31,
            "name": "G1",
            "ticks": 30912,
            "time": 60.375,
            "velocity": 0.3937007874015748
          },
          {
            "duration": 0.1875,
            "durationTicks": 96,
            "midi": 44,
            "name": "G#2",
            "ticks": 31008,
            "time": 60.5625,
            "velocity": 0.3937007874015748
          },
          {
            "duration": 0.1875,
            "durationTicks": 96,
            "midi": 38,
            "name": "D2",
            "ticks": 31104,
            "time": 60.75,
            "velocity": 0.3937007874015748
          },
          {
            "duration": 0.1875,
            "durationTicks": 96,
            "midi": 35,
            "name": "B1",
            "ticks": 31296,
            "time": 61.125,
            "velocity": 0.3937007874015748
          },
          {
            "duration": 0.1875,
            "durationTicks": 96,
            "midi": 35,
            "name": "B1",
            "ticks": 31488,
            "time": 61.5,
            "velocity": 0.3937007874015748
          },
          {
            "duration": 0.1875,
            "durationTicks": 96,
            "midi": 31,
            "name": "G1",
            "ticks": 31680,
            "time": 61.875,
            "velocity": 0.3937007874015748
          },
          {
            "duration": 0.1875,
            "durationTicks": 96,
            "midi": 38,
            "name": "D2",
            "ticks": 31872,
            "time": 62.25,
            "velocity": 0.3937007874015748
          },
          {
            "duration": 0.1875,
            "durationTicks": 96,
            "midi": 35,
            "name": "B1",
            "ticks": 31968,
            "time": 62.4375,
            "velocity": 0.3937007874015748
          },
          {
            "duration": 0.1875,
            "durationTicks": 96,
            "midi": 35,
            "name": "B1",
            "ticks": 32256,
            "time": 63,
            "velocity": 0.3937007874015748
          },
          {
            "duration": 0.1875,
            "durationTicks": 96,
            "midi": 44,
            "name": "G#2",
            "ticks": 32544,
            "time": 63.5625,
            "velocity": 0.3937007874015748
          },
          {
            "duration": 0.1875,
            "durationTicks": 96,
            "midi": 38,
            "name": "D2",
            "ticks": 32640,
            "time": 63.75,
            "velocity": 0.3937007874015748
          },
          {
            "duration": 0.1875,
            "durationTicks": 96,
            "midi": 35,
            "name": "B1",
            "ticks": 32832,
            "time": 64.125,
            "velocity": 0.3937007874015748
          },
          {
            "duration": 0.1875,
            "durationTicks": 96,
            "midi": 31,
            "name": "G1",
            "ticks": 32928,
            "time": 64.3125,
            "velocity": 0.3937007874015748
          },
          {
            "duration": 0.1875,
            "durationTicks": 96,
            "midi": 35,
            "name": "B1",
            "ticks": 33024,
            "time": 64.5,
            "velocity": 0.3937007874015748
          },
          {
            "duration": 0.1875,
            "durationTicks": 96,
            "midi": 31,
            "name": "G1",
            "ticks": 33216,
            "time": 64.875,
            "velocity": 0.3937007874015748
          },
          {
            "duration": 0.1875,
            "durationTicks": 96,
            "midi": 38,
            "name": "D2",
            "ticks": 33312,
            "time": 65.0625,
            "velocity": 0.3937007874015748
          },
          {
            "duration": 0.1875,
            "durationTicks": 96,
            "midi": 31,
            "name": "G1",
            "ticks": 33408,
            "time": 65.25,
            "velocity": 0.3937007874015748
          },
          {
            "duration": 0.1875,
            "durationTicks": 96,
            "midi": 38,
            "name": "D2",
            "ticks": 33408,
            "time": 65.25,
            "velocity": 0.3937007874015748
          },
          {
            "duration": 0.1875,
            "durationTicks": 96,
            "midi": 35,
            "name": "B1",
            "ticks": 33504,
            "time": 65.4375,
            "velocity": 0.3937007874015748
          },
          {
            "duration": 0.1875,
            "durationTicks": 96,
            "midi": 35,
            "name": "B1",
            "ticks": 33792,
            "time": 66,
            "velocity": 0.3937007874015748
          },
          {
            "duration": 0.1875,
            "durationTicks": 96,
            "midi": 38,
            "name": "D2",
            "ticks": 34176,
            "time": 66.75,
            "velocity": 0.3937007874015748
          },
          {
            "duration": 0.1875,
            "durationTicks": 96,
            "midi": 35,
            "name": "B1",
            "ticks": 34560,
            "time": 67.5,
            "velocity": 0.3937007874015748
          },
          {
            "duration": 0.1875,
            "durationTicks": 96,
            "midi": 38,
            "name": "D2",
            "ticks": 34944,
            "time": 68.25,
            "velocity": 0.3937007874015748
          },
          {
            "duration": 0.1875,
            "durationTicks": 96,
            "midi": 35,
            "name": "B1",
            "ticks": 35328,
            "time": 69,
            "velocity": 0.3937007874015748
          },
          {
            "duration": 0.1875,
            "durationTicks": 96,
            "midi": 38,
            "name": "D2",
            "ticks": 35712,
            "time": 69.75,
            "velocity": 0.3937007874015748
          },
          {
            "duration": 0.1875,
            "durationTicks": 96,
            "midi": 35,
            "name": "B1",
            "ticks": 36096,
            "time": 70.5,
            "velocity": 0.3937007874015748
          },
          {
            "duration": 0.1875,
            "durationTicks": 96,
            "midi": 38,
            "name": "D2",
            "ticks": 36384,
            "time": 71.0625,
            "velocity": 0.3937007874015748
          },
          {
            "duration": 0.1875,
            "durationTicks": 96,
            "midi": 38,
            "name": "D2",
            "ticks": 36480,
            "time": 71.25,
            "velocity": 0.3937007874015748
          },
          {
            "duration": 0.1875,
            "durationTicks": 96,
            "midi": 35,
            "name": "B1",
            "ticks": 36864,
            "time": 72,
            "velocity": 0.3937007874015748
          },
          {
            "duration": 0.1875,
            "durationTicks": 96,
            "midi": 31,
            "name": "G1",
            "ticks": 37056,
            "time": 72.375,
            "velocity": 0.3937007874015748
          },
          {
            "duration": 0.1875,
            "durationTicks": 96,
            "midi": 44,
            "name": "G#2",
            "ticks": 37152,
            "time": 72.5625,
            "velocity": 0.3937007874015748
          },
          {
            "duration": 0.1875,
            "durationTicks": 96,
            "midi": 38,
            "name": "D2",
            "ticks": 37248,
            "time": 72.75,
            "velocity": 0.3937007874015748
          },
          {
            "duration": 0.1875,
            "durationTicks": 96,
            "midi": 35,
            "name": "B1",
            "ticks": 37440,
            "time": 73.125,
            "velocity": 0.3937007874015748
          },
          {
            "duration": 0.1875,
            "durationTicks": 96,
            "midi": 35,
            "name": "B1",
            "ticks": 37632,
            "time": 73.5,
            "velocity": 0.3937007874015748
          },
          {
            "duration": 0.1875,
            "durationTicks": 96,
            "midi": 31,
            "name": "G1",
            "ticks": 37824,
            "time": 73.875,
            "velocity": 0.3937007874015748
          },
          {
            "duration": 0.1875,
            "durationTicks": 96,
            "midi": 38,
            "name": "D2",
            "ticks": 38016,
            "time": 74.25,
            "velocity": 0.3937007874015748
          },
          {
            "duration": 0.1875,
            "durationTicks": 96,
            "midi": 35,
            "name": "B1",
            "ticks": 38112,
            "time": 74.4375,
            "velocity": 0.3937007874015748
          },
          {
            "duration": 0.1875,
            "durationTicks": 96,
            "midi": 35,
            "name": "B1",
            "ticks": 38400,
            "time": 75,
            "velocity": 0.3937007874015748
          },
          {
            "duration": 0.1875,
            "durationTicks": 96,
            "midi": 44,
            "name": "G#2",
            "ticks": 38688,
            "time": 75.5625,
            "velocity": 0.3937007874015748
          },
          {
            "duration": 0.1875,
            "durationTicks": 96,
            "midi": 38,
            "name": "D2",
            "ticks": 38784,
            "time": 75.75,
            "velocity": 0.3937007874015748
          },
          {
            "duration": 0.1875,
            "durationTicks": 96,
            "midi": 35,
            "name": "B1",
            "ticks": 38976,
            "time": 76.125,
            "velocity": 0.3937007874015748
          },
          {
            "duration": 0.1875,
            "durationTicks": 96,
            "midi": 31,
            "name": "G1",
            "ticks": 39072,
            "time": 76.3125,
            "velocity": 0.3937007874015748
          },
          {
            "duration": 0.1875,
            "durationTicks": 96,
            "midi": 35,
            "name": "B1",
            "ticks": 39168,
            "time": 76.5,
            "velocity": 0.3937007874015748
          },
          {
            "duration": 0.1875,
            "durationTicks": 96,
            "midi": 31,
            "name": "G1",
            "ticks": 39360,
            "time": 76.875,
            "velocity": 0.3937007874015748
          },
          {
            "duration": 0.1875,
            "durationTicks": 96,
            "midi": 38,
            "name": "D2",
            "ticks": 39456,
            "time": 77.0625,
            "velocity": 0.3937007874015748
          },
          {
            "duration": 0.1875,
            "durationTicks": 96,
            "midi": 31,
            "name": "G1",
            "ticks": 39552,
            "time": 77.25,
            "velocity": 0.3937007874015748
          },
          {
            "duration": 0.1875,
            "durationTicks": 96,
            "midi": 38,
            "name": "D2",
            "ticks": 39552,
            "time": 77.25,
            "velocity": 0.3937007874015748
          },
          {
            "duration": 0.1875,
            "durationTicks": 96,
            "midi": 35,
            "name": "B1",
            "ticks": 39648,
            "time": 77.4375,
            "velocity": 0.3937007874015748
          },
          {
            "duration": 0.1875,
            "durationTicks": 96,
            "midi": 35,
            "name": "B1",
            "ticks": 39936,
            "time": 78,
            "velocity": 0.3937007874015748
          },
          {
            "duration": 0.1875,
            "durationTicks": 96,
            "midi": 38,
            "name": "D2",
            "ticks": 40320,
            "time": 78.75,
            "velocity": 0.3937007874015748
          },
          {
            "duration": 0.1875,
            "durationTicks": 96,
            "midi": 35,
            "name": "B1",
            "ticks": 40704,
            "time": 79.5,
            "velocity": 0.3937007874015748
          },
          {
            "duration": 0.1875,
            "durationTicks": 96,
            "midi": 38,
            "name": "D2",
            "ticks": 41088,
            "time": 80.25,
            "velocity": 0.3937007874015748
          },
          {
            "duration": 0.1875,
            "durationTicks": 96,
            "midi": 35,
            "name": "B1",
            "ticks": 41472,
            "time": 81,
            "velocity": 0.3937007874015748
          },
          {
            "duration": 0.1875,
            "durationTicks": 96,
            "midi": 38,
            "name": "D2",
            "ticks": 41856,
            "time": 81.75,
            "velocity": 0.3937007874015748
          },
          {
            "duration": 0.1875,
            "durationTicks": 96,
            "midi": 35,
            "name": "B1",
            "ticks": 42240,
            "time": 82.5,
            "velocity": 0.3937007874015748
          },
          {
            "duration": 0.1875,
            "durationTicks": 96,
            "midi": 38,
            "name": "D2",
            "ticks": 42528,
            "time": 83.0625,
            "velocity": 0.3937007874015748
          },
          {
            "duration": 0.1875,
            "durationTicks": 96,
            "midi": 38,
            "name": "D2",
            "ticks": 42624,
            "time": 83.25,
            "velocity": 0.3937007874015748
          },
          {
            "duration": 0.1875,
            "durationTicks": 96,
            "midi": 35,
            "name": "B1",
            "ticks": 43008,
            "time": 84,
            "velocity": 0.3937007874015748
          },
          {
            "duration": 0.1875,
            "durationTicks": 96,
            "midi": 31,
            "name": "G1",
            "ticks": 43200,
            "time": 84.375,
            "velocity": 0.3937007874015748
          },
          {
            "duration": 0.1875,
            "durationTicks": 96,
            "midi": 44,
            "name": "G#2",
            "ticks": 43296,
            "time": 84.5625,
            "velocity": 0.3937007874015748
          },
          {
            "duration": 0.1875,
            "durationTicks": 96,
            "midi": 38,
            "name": "D2",
            "ticks": 43392,
            "time": 84.75,
            "velocity": 0.3937007874015748
          },
          {
            "duration": 0.1875,
            "durationTicks": 96,
            "midi": 35,
            "name": "B1",
            "ticks": 43584,
            "time": 85.125,
            "velocity": 0.3937007874015748
          },
          {
            "duration": 0.1875,
            "durationTicks": 96,
            "midi": 35,
            "name": "B1",
            "ticks": 43776,
            "time": 85.5,
            "velocity": 0.3937007874015748
          },
          {
            "duration": 0.1875,
            "durationTicks": 96,
            "midi": 31,
            "name": "G1",
            "ticks": 43968,
            "time": 85.875,
            "velocity": 0.3937007874015748
          },
          {
            "duration": 0.1875,
            "durationTicks": 96,
            "midi": 38,
            "name": "D2",
            "ticks": 44160,
            "time": 86.25,
            "velocity": 0.3937007874015748
          },
          {
            "duration": 0.1875,
            "durationTicks": 96,
            "midi": 35,
            "name": "B1",
            "ticks": 44256,
            "time": 86.4375,
            "velocity": 0.3937007874015748
          },
          {
            "duration": 0.1875,
            "durationTicks": 96,
            "midi": 35,
            "name": "B1",
            "ticks": 44544,
            "time": 87,
            "velocity": 0.3937007874015748
          },
          {
            "duration": 0.1875,
            "durationTicks": 96,
            "midi": 44,
            "name": "G#2",
            "ticks": 44832,
            "time": 87.5625,
            "velocity": 0.3937007874015748
          },
          {
            "duration": 0.1875,
            "durationTicks": 96,
            "midi": 38,
            "name": "D2",
            "ticks": 44928,
            "time": 87.75,
            "velocity": 0.3937007874015748
          },
          {
            "duration": 0.1875,
            "durationTicks": 96,
            "midi": 35,
            "name": "B1",
            "ticks": 45120,
            "time": 88.125,
            "velocity": 0.3937007874015748
          },
          {
            "duration": 0.1875,
            "durationTicks": 96,
            "midi": 31,
            "name": "G1",
            "ticks": 45216,
            "time": 88.3125,
            "velocity": 0.3937007874015748
          },
          {
            "duration": 0.1875,
            "durationTicks": 96,
            "midi": 35,
            "name": "B1",
            "ticks": 45312,
            "time": 88.5,
            "velocity": 0.3937007874015748
          },
          {
            "duration": 0.1875,
            "durationTicks": 96,
            "midi": 31,
            "name": "G1",
            "ticks": 45504,
            "time": 88.875,
            "velocity": 0.3937007874015748
          },
          {
            "duration": 0.1875,
            "durationTicks": 96,
            "midi": 38,
            "name": "D2",
            "ticks": 45600,
            "time": 89.0625,
            "velocity": 0.3937007874015748
          },
          {
            "duration": 0.1875,
            "durationTicks": 96,
            "midi": 31,
            "name": "G1",
            "ticks": 45696,
            "time": 89.25,
            "velocity": 0.3937007874015748
          },
          {
            "duration": 0.1875,
            "durationTicks": 96,
            "midi": 38,
            "name": "D2",
            "ticks": 45696,
            "time": 89.25,
            "velocity": 0.3937007874015748
          },
          {
            "duration": 0.1875,
            "durationTicks": 96,
            "midi": 35,
            "name": "B1",
            "ticks": 45792,
            "time": 89.4375,
            "velocity": 0.3937007874015748
          },
          {
            "duration": 0.1875,
            "durationTicks": 96,
            "midi": 35,
            "name": "B1",
            "ticks": 46080,
            "time": 90,
            "velocity": 0.3937007874015748
          },
          {
            "duration": 0.1875,
            "durationTicks": 96,
            "midi": 38,
            "name": "D2",
            "ticks": 46464,
            "time": 90.75,
            "velocity": 0.3937007874015748
          },
          {
            "duration": 0.1875,
            "durationTicks": 96,
            "midi": 35,
            "name": "B1",
            "ticks": 46848,
            "time": 91.5,
            "velocity": 0.3937007874015748
          },
          {
            "duration": 0.1875,
            "durationTicks": 96,
            "midi": 38,
            "name": "D2",
            "ticks": 47232,
            "time": 92.25,
            "velocity": 0.3937007874015748
          },
          {
            "duration": 0.1875,
            "durationTicks": 96,
            "midi": 35,
            "name": "B1",
            "ticks": 47616,
            "time": 93,
            "velocity": 0.3937007874015748
          },
          {
            "duration": 0.1875,
            "durationTicks": 96,
            "midi": 38,
            "name": "D2",
            "ticks": 48000,
            "time": 93.75,
            "velocity": 0.3937007874015748
          },
          {
            "duration": 0.1875,
            "durationTicks": 96,
            "midi": 35,
            "name": "B1",
            "ticks": 48384,
            "time": 94.5,
            "velocity": 0.3937007874015748
          },
          {
            "duration": 0.1875,
            "durationTicks": 96,
            "midi": 38,
            "name": "D2",
            "ticks": 48672,
            "time": 95.0625,
            "velocity": 0.3937007874015748
          },
          {
            "duration": 0.1875,
            "durationTicks": 96,
            "midi": 38,
            "name": "D2",
            "ticks": 48768,
            "time": 95.25,
            "velocity": 0.3937007874015748
          },
          {
            "duration": 0.1875,
            "durationTicks": 96,
            "midi": 35,
            "name": "B1",
            "ticks": 49152,
            "time": 96,
            "velocity": 0.3937007874015748
          },
          {
            "duration": 0.1875,
            "durationTicks": 96,
            "midi": 31,
            "name": "G1",
            "ticks": 49344,
            "time": 96.375,
            "velocity": 0.3937007874015748
          },
          {
            "duration": 0.1875,
            "durationTicks": 96,
            "midi": 44,
            "name": "G#2",
            "ticks": 49440,
            "time": 96.5625,
            "velocity": 0.3937007874015748
          },
          {
            "duration": 0.1875,
            "durationTicks": 96,
            "midi": 38,
            "name": "D2",
            "ticks": 49536,
            "time": 96.75,
            "velocity": 0.3937007874015748
          },
          {
            "duration": 0.1875,
            "durationTicks": 96,
            "midi": 35,
            "name": "B1",
            "ticks": 49728,
            "time": 97.125,
            "velocity": 0.3937007874015748
          },
          {
            "duration": 0.1875,
            "durationTicks": 96,
            "midi": 35,
            "name": "B1",
            "ticks": 49920,
            "time": 97.5,
            "velocity": 0.3937007874015748
          },
          {
            "duration": 0.1875,
            "durationTicks": 96,
            "midi": 31,
            "name": "G1",
            "ticks": 50112,
            "time": 97.875,
            "velocity": 0.3937007874015748
          },
          {
            "duration": 0.1875,
            "durationTicks": 96,
            "midi": 38,
            "name": "D2",
            "ticks": 50304,
            "time": 98.25,
            "velocity": 0.3937007874015748
          },
          {
            "duration": 0.1875,
            "durationTicks": 96,
            "midi": 35,
            "name": "B1",
            "ticks": 50400,
            "time": 98.4375,
            "velocity": 0.3937007874015748
          },
          {
            "duration": 0.1875,
            "durationTicks": 96,
            "midi": 35,
            "name": "B1",
            "ticks": 50688,
            "time": 99,
            "velocity": 0.3937007874015748
          },
          {
            "duration": 0.1875,
            "durationTicks": 96,
            "midi": 44,
            "name": "G#2",
            "ticks": 50976,
            "time": 99.5625,
            "velocity": 0.3937007874015748
          },
          {
            "duration": 0.1875,
            "durationTicks": 96,
            "midi": 38,
            "name": "D2",
            "ticks": 51072,
            "time": 99.75,
            "velocity": 0.3937007874015748
          },
          {
            "duration": 0.1875,
            "durationTicks": 96,
            "midi": 35,
            "name": "B1",
            "ticks": 51264,
            "time": 100.125,
            "velocity": 0.3937007874015748
          },
          {
            "duration": 0.1875,
            "durationTicks": 96,
            "midi": 31,
            "name": "G1",
            "ticks": 51360,
            "time": 100.3125,
            "velocity": 0.3937007874015748
          },
          {
            "duration": 0.1875,
            "durationTicks": 96,
            "midi": 35,
            "name": "B1",
            "ticks": 51456,
            "time": 100.5,
            "velocity": 0.3937007874015748
          },
          {
            "duration": 0.1875,
            "durationTicks": 96,
            "midi": 31,
            "name": "G1",
            "ticks": 51648,
            "time": 100.875,
            "velocity": 0.3937007874015748
          },
          {
            "duration": 0.1875,
            "durationTicks": 96,
            "midi": 38,
            "name": "D2",
            "ticks": 51744,
            "time": 101.0625,
            "velocity": 0.3937007874015748
          },
          {
            "duration": 0.1875,
            "durationTicks": 96,
            "midi": 31,
            "name": "G1",
            "ticks": 51840,
            "time": 101.25,
            "velocity": 0.3937007874015748
          },
          {
            "duration": 0.1875,
            "durationTicks": 96,
            "midi": 38,
            "name": "D2",
            "ticks": 51840,
            "time": 101.25,
            "velocity": 0.3937007874015748
          },
          {
            "duration": 0.1875,
            "durationTicks": 96,
            "midi": 35,
            "name": "B1",
            "ticks": 51936,
            "time": 101.4375,
            "velocity": 0.3937007874015748
          },
          {
            "duration": 0.1875,
            "durationTicks": 96,
            "midi": 44,
            "name": "G#2",
            "ticks": 52032,
            "time": 101.625,
            "velocity": 0.3937007874015748
          },
          {
            "duration": 0.1875,
            "durationTicks": 96,
            "midi": 31,
            "name": "G1",
            "ticks": 52032,
            "time": 101.625,
            "velocity": 0.3937007874015748
          },
          {
            "duration": 0.1875,
            "durationTicks": 96,
            "midi": 40,
            "name": "E2",
            "ticks": 52032,
            "time": 101.625,
            "velocity": 0.3937007874015748
          },
          {
            "duration": 0.1875,
            "durationTicks": 96,
            "midi": 38,
            "name": "D2",
            "ticks": 52032,
            "time": 101.625,
            "velocity": 0.3937007874015748
          }
        ],
        "endOfTrackTicks": 52128
      }
    ]
  }