{
    "header": {
      "keySignatures": [],
      "meta": [],
      "name": "",
      "ppq": 384,
      "tempos": [
        {
          "bpm": 160,
          "ticks": 0
        }
      ],
      "timeSignatures": [
        {
          "ticks": 0,
          "timeSignature": [
            1,
            4
          ],
          "measures": 0
        }
      ]
    },
    "tracks": [
      {
        "channel": 9,
        "controlChanges": {},
        "pitchBends": [],
        "instrument": {
          "family": "drums",
          "number": 0,
          "name": "standard kit"
        },
        "name": "Drum Kit",
        "notes": [
          {
            "duration": 0.09375,
            "durationTicks": 96,
            "midi": 40,
            "name": "E2",
            "ticks": 2304,
            "time": 2.25,
            "velocity": 0.28346456692913385
          },
          {
            "duration": 0.09375,
            "durationTicks": 96,
            "midi": 40,
            "name": "E2",
            "ticks": 2400,
            "time": 2.34375,
            "velocity": 0.3228346456692913
          },
          {
            "duration": 0.09375,
            "durationTicks": 96,
            "midi": 40,
            "name": "E2",
            "ticks": 2496,
            "time": 2.4375,
            "velocity": 0.36220472440944884
          },
          {
            "duration": 0.09375,
            "durationTicks": 96,
            "midi": 40,
            "name": "E2",
            "ticks": 2592,
            "time": 2.53125,
            "velocity": 0.4015748031496063
          },
          {
            "duration": 0.09375,
            "durationTicks": 96,
            "midi": 40,
            "name": "E2",
            "ticks": 2688,
            "time": 2.625,
            "velocity": 0.4409448818897638
          },
          {
            "duration": 0.09375,
            "durationTicks": 96,
            "midi": 40,
            "name": "E2",
            "ticks": 2784,
            "time": 2.71875,
            "velocity": 0.48031496062992124
          },
          {
            "duration": 0.09375,
            "durationTicks": 96,
            "midi": 40,
            "name": "E2",
            "ticks": 2880,
            "time": 2.8125,
            "velocity": 0.5196850393700787
          },
          {
            "duration": 0.09375,
            "durationTicks": 96,
            "midi": 40,
            "name": "E2",
            "ticks": 2976,
            "time": 2.90625,
            "velocity": 0.5590551181102362
          },
          {
            "duration": 0.1875,
            "durationTicks": 192,
            "midi": 36,
            "name": "C2",
            "ticks": 3072,
            "time": 3,
            "velocity": 0.28346456692913385
          },
          {
            "duration": 0.1875,
            "durationTicks": 192,
            "midi": 49,
            "name": "C#3",
            "ticks": 3072,
            "time": 3,
            "velocity": 0.28346456692913385
          },
          {
            "duration": 0.1875,
            "durationTicks": 192,
            "midi": 57,
            "name": "A3",
            "ticks": 3072,
            "time": 3,
            "velocity": 0.28346456692913385
          },
          {
            "duration": 0.1875,
            "durationTicks": 192,
            "midi": 40,
            "name": "E2",
            "ticks": 3264,
            "time": 3.1875,
            "velocity": 0.28346456692913385
          },
          {
            "duration": 0.09375,
            "durationTicks": 96,
            "midi": 28,
            "name": "E1",
            "ticks": 3264,
            "time": 3.1875,
            "velocity": 0.3937007874015748
          },
          {
            "duration": 0.1875,
            "durationTicks": 192,
            "midi": 36,
            "name": "C2",
            "ticks": 3456,
            "time": 3.375,
            "velocity": 0.28346456692913385
          },
          {
            "duration": 0.09375,
            "durationTicks": 96,
            "midi": 28,
            "name": "E1",
            "ticks": 3648,
            "time": 3.5625,
            "velocity": 0.3937007874015748
          },
          {
            "duration": 0.1875,
            "durationTicks": 192,
            "midi": 40,
            "name": "E2",
            "ticks": 3648,
            "time": 3.5625,
            "velocity": 0.28346456692913385
          },
          {
            "duration": 0.1875,
            "durationTicks": 192,
            "midi": 36,
            "name": "C2",
            "ticks": 3840,
            "time": 3.75,
            "velocity": 0.28346456692913385
          },
          {
            "duration": 0.09375,
            "durationTicks": 96,
            "midi": 28,
            "name": "E1",
            "ticks": 4032,
            "time": 3.9375,
            "velocity": 0.3937007874015748
          },
          {
            "duration": 0.1875,
            "durationTicks": 192,
            "midi": 40,
            "name": "E2",
            "ticks": 4032,
            "time": 3.9375,
            "velocity": 0.28346456692913385
          },
          {
            "duration": 0.1875,
            "durationTicks": 192,
            "midi": 36,
            "name": "C2",
            "ticks": 4224,
            "time": 4.125,
            "velocity": 0.28346456692913385
          },
          {
            "duration": 0.09375,
            "durationTicks": 96,
            "midi": 28,
            "name": "E1",
            "ticks": 4416,
            "time": 4.3125,
            "velocity": 0.3937007874015748
          },
          {
            "duration": 0.1875,
            "durationTicks": 192,
            "midi": 40,
            "name": "E2",
            "ticks": 4416,
            "time": 4.3125,
            "velocity": 0.28346456692913385
          },
          {
            "duration": 0.1875,
            "durationTicks": 192,
            "midi": 36,
            "name": "C2",
            "ticks": 4608,
            "time": 4.5,
            "velocity": 0.28346456692913385
          },
          {
            "duration": 0.1875,
            "durationTicks": 192,
            "midi": 40,
            "name": "E2",
            "ticks": 4800,
            "time": 4.6875,
            "velocity": 0.28346456692913385
          },
          {
            "duration": 0.09375,
            "durationTicks": 96,
            "midi": 28,
            "name": "E1",
            "ticks": 4800,
            "time": 4.6875,
            "velocity": 0.3937007874015748
          },
          {
            "duration": 0.1875,
            "durationTicks": 192,
            "midi": 36,
            "name": "C2",
            "ticks": 4992,
            "time": 4.875,
            "velocity": 0.28346456692913385
          },
          {
            "duration": 0.1875,
            "durationTicks": 192,
            "midi": 40,
            "name": "E2",
            "ticks": 5184,
            "time": 5.0625,
            "velocity": 0.28346456692913385
          },
          {
            "duration": 0.09375,
            "durationTicks": 96,
            "midi": 28,
            "name": "E1",
            "ticks": 5184,
            "time": 5.0625,
            "velocity": 0.3937007874015748
          },
          {
            "duration": 0.1875,
            "durationTicks": 192,
            "midi": 36,
            "name": "C2",
            "ticks": 5376,
            "time": 5.25,
            "velocity": 0.28346456692913385
          },
          {
            "duration": 0.1875,
            "durationTicks": 192,
            "midi": 40,
            "name": "E2",
            "ticks": 5568,
            "time": 5.4375,
            "velocity": 0.28346456692913385
          },
          {
            "duration": 0.09375,
            "durationTicks": 96,
            "midi": 28,
            "name": "E1",
            "ticks": 5568,
            "time": 5.4375,
            "velocity": 0.3937007874015748
          },
          {
            "duration": 0.1875,
            "durationTicks": 192,
            "midi": 36,
            "name": "C2",
            "ticks": 5760,
            "time": 5.625,
            "velocity": 0.28346456692913385
          },
          {
            "duration": 0.1875,
            "durationTicks": 192,
            "midi": 40,
            "name": "E2",
            "ticks": 5952,
            "time": 5.8125,
            "velocity": 0.28346456692913385
          },
          {
            "duration": 0.09375,
            "durationTicks": 96,
            "midi": 28,
            "name": "E1",
            "ticks": 5952,
            "time": 5.8125,
            "velocity": 0.3937007874015748
          },
          {
            "duration": 0.1875,
            "durationTicks": 192,
            "midi": 36,
            "name": "C2",
            "ticks": 6144,
            "time": 6,
            "velocity": 0.28346456692913385
          },
          {
            "duration": 0.1875,
            "durationTicks": 192,
            "midi": 40,
            "name": "E2",
            "ticks": 6336,
            "time": 6.1875,
            "velocity": 0.28346456692913385
          },
          {
            "duration": 0.09375,
            "durationTicks": 96,
            "midi": 28,
            "name": "E1",
            "ticks": 6336,
            "time": 6.1875,
            "velocity": 0.3937007874015748
          },
          {
            "duration": 0.1875,
            "durationTicks": 192,
            "midi": 36,
            "name": "C2",
            "ticks": 6528,
            "time": 6.375,
            "velocity": 0.28346456692913385
          },
          {
            "duration": 0.1875,
            "durationTicks": 192,
            "midi": 40,
            "name": "E2",
            "ticks": 6720,
            "time": 6.5625,
            "velocity": 0.28346456692913385
          },
          {
            "duration": 0.09375,
            "durationTicks": 96,
            "midi": 28,
            "name": "E1",
            "ticks": 6720,
            "time": 6.5625,
            "velocity": 0.3937007874015748
          },
          {
            "duration": 0.1875,
            "durationTicks": 192,
            "midi": 36,
            "name": "C2",
            "ticks": 6912,
            "time": 6.75,
            "velocity": 0.28346456692913385
          },
          {
            "duration": 0.09375,
            "durationTicks": 96,
            "midi": 28,
            "name": "E1",
            "ticks": 7104,
            "time": 6.9375,
            "velocity": 0.3937007874015748
          },
          {
            "duration": 0.1875,
            "durationTicks": 192,
            "midi": 40,
            "name": "E2",
            "ticks": 7104,
            "time": 6.9375,
            "velocity": 0.28346456692913385
          },
          {
            "duration": 0.1875,
            "durationTicks": 192,
            "midi": 36,
            "name": "C2",
            "ticks": 7296,
            "time": 7.125,
            "velocity": 0.28346456692913385
          },
          {
            "duration": 0.09375,
            "durationTicks": 96,
            "midi": 28,
            "name": "E1",
            "ticks": 7488,
            "time": 7.3125,
            "velocity": 0.3937007874015748
          },
          {
            "duration": 0.1875,
            "durationTicks": 192,
            "midi": 40,
            "name": "E2",
            "ticks": 7488,
            "time": 7.3125,
            "velocity": 0.28346456692913385
          },
          {
            "duration": 0.1875,
            "durationTicks": 192,
            "midi": 36,
            "name": "C2",
            "ticks": 7680,
            "time": 7.5,
            "velocity": 0.28346456692913385
          },
          {
            "duration": 0.09375,
            "durationTicks": 96,
            "midi": 28,
            "name": "E1",
            "ticks": 7872,
            "time": 7.6875,
            "velocity": 0.3937007874015748
          },
          {
            "duration": 0.1875,
            "durationTicks": 192,
            "midi": 40,
            "name": "E2",
            "ticks": 7872,
            "time": 7.6875,
            "velocity": 0.28346456692913385
          },
          {
            "duration": 0.1875,
            "durationTicks": 192,
            "midi": 36,
            "name": "C2",
            "ticks": 8064,
            "time": 7.875,
            "velocity": 0.28346456692913385
          },
          {
            "duration": 0.1875,
            "durationTicks": 192,
            "midi": 40,
            "name": "E2",
            "ticks": 8256,
            "time": 8.0625,
            "velocity": 0.28346456692913385
          },
          {
            "duration": 0.09375,
            "durationTicks": 96,
            "midi": 28,
            "name": "E1",
            "ticks": 8256,
            "time": 8.0625,
            "velocity": 0.3937007874015748
          },
          {
            "duration": 0.1875,
            "durationTicks": 192,
            "midi": 36,
            "name": "C2",
            "ticks": 8448,
            "time": 8.25,
            "velocity": 0.28346456692913385
          },
          {
            "duration": 0.09375,
            "durationTicks": 96,
            "midi": 28,
            "name": "E1",
            "ticks": 8640,
            "time": 8.4375,
            "velocity": 0.3937007874015748
          },
          {
            "duration": 0.09375,
            "durationTicks": 96,
            "midi": 40,
            "name": "E2",
            "ticks": 8640,
            "time": 8.4375,
            "velocity": 0.28346456692913385
          },
          {
            "duration": 0.09375,
            "durationTicks": 96,
            "midi": 40,
            "name": "E2",
            "ticks": 8736,
            "time": 8.53125,
            "velocity": 0.28346456692913385
          },
          {
            "duration": 0.1875,
            "durationTicks": 192,
            "midi": 36,
            "name": "C2",
            "ticks": 8832,
            "time": 8.625,
            "velocity": 0.28346456692913385
          },
          {
            "duration": 0.1875,
            "durationTicks": 192,
            "midi": 40,
            "name": "E2",
            "ticks": 9024,
            "time": 8.8125,
            "velocity": 0.28346456692913385
          },
          {
            "duration": 0.09375,
            "durationTicks": 96,
            "midi": 28,
            "name": "E1",
            "ticks": 9024,
            "time": 8.8125,
            "velocity": 0.3937007874015748
          },
          {
            "duration": 0.1875,
            "durationTicks": 192,
            "midi": 36,
            "name": "C2",
            "ticks": 9216,
            "time": 9,
            "velocity": 0.28346456692913385
          },
          {
            "duration": 0.1875,
            "durationTicks": 192,
            "midi": 49,
            "name": "C#3",
            "ticks": 9216,
            "time": 9,
            "velocity": 0.28346456692913385
          },
          {
            "duration": 0.1875,
            "durationTicks": 192,
            "midi": 57,
            "name": "A3",
            "ticks": 9216,
            "time": 9,
            "velocity": 0.28346456692913385
          },
          {
            "duration": 0.09375,
            "durationTicks": 96,
            "midi": 28,
            "name": "E1",
            "ticks": 9408,
            "time": 9.1875,
            "velocity": 0.3937007874015748
          },
          {
            "duration": 0.1875,
            "durationTicks": 192,
            "midi": 40,
            "name": "E2",
            "ticks": 9408,
            "time": 9.1875,
            "velocity": 0.28346456692913385
          },
          {
            "duration": 0.1875,
            "durationTicks": 192,
            "midi": 36,
            "name": "C2",
            "ticks": 9600,
            "time": 9.375,
            "velocity": 0.28346456692913385
          },
          {
            "duration": 0.1875,
            "durationTicks": 192,
            "midi": 40,
            "name": "E2",
            "ticks": 9792,
            "time": 9.5625,
            "velocity": 0.28346456692913385
          },
          {
            "duration": 0.09375,
            "durationTicks": 96,
            "midi": 28,
            "name": "E1",
            "ticks": 9792,
            "time": 9.5625,
            "velocity": 0.3937007874015748
          },
          {
            "duration": 0.1875,
            "durationTicks": 192,
            "midi": 36,
            "name": "C2",
            "ticks": 9984,
            "time": 9.75,
            "velocity": 0.28346456692913385
          },
          {
            "duration": 0.09375,
            "durationTicks": 96,
            "midi": 28,
            "name": "E1",
            "ticks": 10176,
            "time": 9.9375,
            "velocity": 0.3937007874015748
          },
          {
            "duration": 0.1875,
            "durationTicks": 192,
            "midi": 40,
            "name": "E2",
            "ticks": 10176,
            "time": 9.9375,
            "velocity": 0.28346456692913385
          },
          {
            "duration": 0.1875,
            "durationTicks": 192,
            "midi": 36,
            "name": "C2",
            "ticks": 10368,
            "time": 10.125,
            "velocity": 0.28346456692913385
          },
          {
            "duration": 0.1875,
            "durationTicks": 192,
            "midi": 40,
            "name": "E2",
            "ticks": 10560,
            "time": 10.3125,
            "velocity": 0.28346456692913385
          },
          {
            "duration": 0.09375,
            "durationTicks": 96,
            "midi": 28,
            "name": "E1",
            "ticks": 10560,
            "time": 10.3125,
            "velocity": 0.3937007874015748
          },
          {
            "duration": 0.1875,
            "durationTicks": 192,
            "midi": 36,
            "name": "C2",
            "ticks": 10752,
            "time": 10.5,
            "velocity": 0.28346456692913385
          },
          {
            "duration": 0.1875,
            "durationTicks": 192,
            "midi": 40,
            "name": "E2",
            "ticks": 10944,
            "time": 10.6875,
            "velocity": 0.28346456692913385
          },
          {
            "duration": 0.09375,
            "durationTicks": 96,
            "midi": 28,
            "name": "E1",
            "ticks": 10944,
            "time": 10.6875,
            "velocity": 0.3937007874015748
          },
          {
            "duration": 0.1875,
            "durationTicks": 192,
            "midi": 36,
            "name": "C2",
            "ticks": 11136,
            "time": 10.875,
            "velocity": 0.28346456692913385
          },
          {
            "duration": 0.09375,
            "durationTicks": 96,
            "midi": 28,
            "name": "E1",
            "ticks": 11328,
            "time": 11.0625,
            "velocity": 0.3937007874015748
          },
          {
            "duration": 0.1875,
            "durationTicks": 192,
            "midi": 40,
            "name": "E2",
            "ticks": 11328,
            "time": 11.0625,
            "velocity": 0.28346456692913385
          },
          {
            "duration": 0.1875,
            "durationTicks": 192,
            "midi": 36,
            "name": "C2",
            "ticks": 11520,
            "time": 11.25,
            "velocity": 0.28346456692913385
          },
          {
            "duration": 0.09375,
            "durationTicks": 96,
            "midi": 40,
            "name": "E2",
            "ticks": 11712,
            "time": 11.4375,
            "velocity": 0.28346456692913385
          },
          {
            "duration": 0.09375,
            "durationTicks": 96,
            "midi": 28,
            "name": "E1",
            "ticks": 11712,
            "time": 11.4375,
            "velocity": 0.3937007874015748
          },
          {
            "duration": 0.09375,
            "durationTicks": 96,
            "midi": 40,
            "name": "E2",
            "ticks": 11808,
            "time": 11.53125,
            "velocity": 0.28346456692913385
          },
          {
            "duration": 0.1875,
            "durationTicks": 192,
            "midi": 36,
            "name": "C2",
            "ticks": 11904,
            "time": 11.625,
            "velocity": 0.28346456692913385
          },
          {
            "duration": 0.09375,
            "durationTicks": 96,
            "midi": 28,
            "name": "E1",
            "ticks": 12096,
            "time": 11.8125,
            "velocity": 0.3937007874015748
          },
          {
            "duration": 0.1875,
            "durationTicks": 192,
            "midi": 40,
            "name": "E2",
            "ticks": 12096,
            "time": 11.8125,
            "velocity": 0.28346456692913385
          },
          {
            "duration": 0.1875,
            "durationTicks": 192,
            "midi": 36,
            "name": "C2",
            "ticks": 12288,
            "time": 12,
            "velocity": 0.28346456692913385
          },
          {
            "duration": 0.09375,
            "durationTicks": 96,
            "midi": 28,
            "name": "E1",
            "ticks": 12480,
            "time": 12.1875,
            "velocity": 0.3937007874015748
          },
          {
            "duration": 0.1875,
            "durationTicks": 192,
            "midi": 40,
            "name": "E2",
            "ticks": 12480,
            "time": 12.1875,
            "velocity": 0.28346456692913385
          },
          {
            "duration": 0.1875,
            "durationTicks": 192,
            "midi": 36,
            "name": "C2",
            "ticks": 12672,
            "time": 12.375,
            "velocity": 0.28346456692913385
          },
          {
            "duration": 0.09375,
            "durationTicks": 96,
            "midi": 28,
            "name": "E1",
            "ticks": 12864,
            "time": 12.5625,
            "velocity": 0.3937007874015748
          },
          {
            "duration": 0.1875,
            "durationTicks": 192,
            "midi": 40,
            "name": "E2",
            "ticks": 12864,
            "time": 12.5625,
            "velocity": 0.28346456692913385
          },
          {
            "duration": 0.1875,
            "durationTicks": 192,
            "midi": 36,
            "name": "C2",
            "ticks": 13056,
            "time": 12.75,
            "velocity": 0.28346456692913385
          },
          {
            "duration": 0.1875,
            "durationTicks": 192,
            "midi": 40,
            "name": "E2",
            "ticks": 13248,
            "time": 12.9375,
            "velocity": 0.28346456692913385
          },
          {
            "duration": 0.09375,
            "durationTicks": 96,
            "midi": 28,
            "name": "E1",
            "ticks": 13248,
            "time": 12.9375,
            "velocity": 0.3937007874015748
          },
          {
            "duration": 0.1875,
            "durationTicks": 192,
            "midi": 36,
            "name": "C2",
            "ticks": 13440,
            "time": 13.125,
            "velocity": 0.28346456692913385
          },
          {
            "duration": 0.1875,
            "durationTicks": 192,
            "midi": 40,
            "name": "E2",
            "ticks": 13632,
            "time": 13.3125,
            "velocity": 0.28346456692913385
          },
          {
            "duration": 0.09375,
            "durationTicks": 96,
            "midi": 28,
            "name": "E1",
            "ticks": 13632,
            "time": 13.3125,
            "velocity": 0.3937007874015748
          },
          {
            "duration": 0.1875,
            "durationTicks": 192,
            "midi": 36,
            "name": "C2",
            "ticks": 13824,
            "time": 13.5,
            "velocity": 0.28346456692913385
          },
          {
            "duration": 0.09375,
            "durationTicks": 96,
            "midi": 28,
            "name": "E1",
            "ticks": 14016,
            "time": 13.6875,
            "velocity": 0.3937007874015748
          },
          {
            "duration": 0.1875,
            "durationTicks": 192,
            "midi": 40,
            "name": "E2",
            "ticks": 14016,
            "time": 13.6875,
            "velocity": 0.28346456692913385
          },
          {
            "duration": 0.1875,
            "durationTicks": 192,
            "midi": 36,
            "name": "C2",
            "ticks": 14208,
            "time": 13.875,
            "velocity": 0.28346456692913385
          },
          {
            "duration": 0.1875,
            "durationTicks": 192,
            "midi": 40,
            "name": "E2",
            "ticks": 14400,
            "time": 14.0625,
            "velocity": 0.28346456692913385
          },
          {
            "duration": 0.09375,
            "durationTicks": 96,
            "midi": 28,
            "name": "E1",
            "ticks": 14400,
            "time": 14.0625,
            "velocity": 0.3937007874015748
          },
          {
            "duration": 0.1875,
            "durationTicks": 192,
            "midi": 36,
            "name": "C2",
            "ticks": 14592,
            "time": 14.25,
            "velocity": 0.28346456692913385
          },
          {
            "duration": 0.09375,
            "durationTicks": 96,
            "midi": 28,
            "name": "E1",
            "ticks": 14784,
            "time": 14.4375,
            "velocity": 0.3937007874015748
          },
          {
            "duration": 0.09375,
            "durationTicks": 96,
            "midi": 40,
            "name": "E2",
            "ticks": 14784,
            "time": 14.4375,
            "velocity": 0.28346456692913385
          },
          {
            "duration": 0.09375,
            "durationTicks": 96,
            "midi": 40,
            "name": "E2",
            "ticks": 14880,
            "time": 14.53125,
            "velocity": 0.28346456692913385
          },
          {
            "duration": 0.09375,
            "durationTicks": 96,
            "midi": 36,
            "name": "C2",
            "ticks": 14976,
            "time": 14.625,
            "velocity": 0.28346456692913385
          },
          {
            "duration": 0.09375,
            "durationTicks": 96,
            "midi": 40,
            "name": "E2",
            "ticks": 15072,
            "time": 14.71875,
            "velocity": 0.28346456692913385
          },
          {
            "duration": 0.09375,
            "durationTicks": 96,
            "midi": 28,
            "name": "E1",
            "ticks": 15168,
            "time": 14.8125,
            "velocity": 0.3937007874015748
          },
          {
            "duration": 0.09375,
            "durationTicks": 96,
            "midi": 40,
            "name": "E2",
            "ticks": 15168,
            "time": 14.8125,
            "velocity": 0.28346456692913385
          },
          {
            "duration": 0.09375,
            "durationTicks": 96,
            "midi": 40,
            "name": "E2",
            "ticks": 15264,
            "time": 14.90625,
            "velocity": 0.28346456692913385
          },
          {
            "duration": 0.1875,
            "durationTicks": 192,
            "midi": 36,
            "name": "C2",
            "ticks": 15360,
            "time": 15,
            "velocity": 0.28346456692913385
          },
          {
            "duration": 0.1875,
            "durationTicks": 192,
            "midi": 57,
            "name": "A3",
            "ticks": 15360,
            "time": 15,
            "velocity": 0.28346456692913385
          },
          {
            "duration": 0.1875,
            "durationTicks": 192,
            "midi": 49,
            "name": "C#3",
            "ticks": 15360,
            "time": 15,
            "velocity": 0.28346456692913385
          },
          {
            "duration": 0.09375,
            "durationTicks": 96,
            "midi": 28,
            "name": "E1",
            "ticks": 15552,
            "time": 15.1875,
            "velocity": 0.3937007874015748
          },
          {
            "duration": 0.1875,
            "durationTicks": 192,
            "midi": 40,
            "name": "E2",
            "ticks": 15552,
            "time": 15.1875,
            "velocity": 0.28346456692913385
          },
          {
            "duration": 0.1875,
            "durationTicks": 192,
            "midi": 36,
            "name": "C2",
            "ticks": 15744,
            "time": 15.375,
            "velocity": 0.28346456692913385
          },
          {
            "duration": 0.09375,
            "durationTicks": 96,
            "midi": 28,
            "name": "E1",
            "ticks": 15936,
            "time": 15.5625,
            "velocity": 0.3937007874015748
          },
          {
            "duration": 0.1875,
            "durationTicks": 192,
            "midi": 40,
            "name": "E2",
            "ticks": 15936,
            "time": 15.5625,
            "velocity": 0.28346456692913385
          },
          {
            "duration": 0.1875,
            "durationTicks": 192,
            "midi": 36,
            "name": "C2",
            "ticks": 16128,
            "time": 15.75,
            "velocity": 0.28346456692913385
          },
          {
            "duration": 0.09375,
            "durationTicks": 96,
            "midi": 28,
            "name": "E1",
            "ticks": 16320,
            "time": 15.9375,
            "velocity": 0.3937007874015748
          },
          {
            "duration": 0.1875,
            "durationTicks": 192,
            "midi": 40,
            "name": "E2",
            "ticks": 16320,
            "time": 15.9375,
            "velocity": 0.28346456692913385
          },
          {
            "duration": 0.1875,
            "durationTicks": 192,
            "midi": 36,
            "name": "C2",
            "ticks": 16512,
            "time": 16.125,
            "velocity": 0.28346456692913385
          },
          {
            "duration": 0.1875,
            "durationTicks": 192,
            "midi": 40,
            "name": "E2",
            "ticks": 16704,
            "time": 16.3125,
            "velocity": 0.28346456692913385
          },
          {
            "duration": 0.09375,
            "durationTicks": 96,
            "midi": 28,
            "name": "E1",
            "ticks": 16704,
            "time": 16.3125,
            "velocity": 0.3937007874015748
          },
          {
            "duration": 0.1875,
            "durationTicks": 192,
            "midi": 36,
            "name": "C2",
            "ticks": 16896,
            "time": 16.5,
            "velocity": 0.28346456692913385
          },
          {
            "duration": 0.09375,
            "durationTicks": 96,
            "midi": 28,
            "name": "E1",
            "ticks": 17088,
            "time": 16.6875,
            "velocity": 0.3937007874015748
          },
          {
            "duration": 0.1875,
            "durationTicks": 192,
            "midi": 40,
            "name": "E2",
            "ticks": 17088,
            "time": 16.6875,
            "velocity": 0.28346456692913385
          },
          {
            "duration": 0.1875,
            "durationTicks": 192,
            "midi": 36,
            "name": "C2",
            "ticks": 17280,
            "time": 16.875,
            "velocity": 0.28346456692913385
          },
          {
            "duration": 0.09375,
            "durationTicks": 96,
            "midi": 28,
            "name": "E1",
            "ticks": 17472,
            "time": 17.0625,
            "velocity": 0.3937007874015748
          },
          {
            "duration": 0.1875,
            "durationTicks": 192,
            "midi": 40,
            "name": "E2",
            "ticks": 17472,
            "time": 17.0625,
            "velocity": 0.28346456692913385
          },
          {
            "duration": 0.1875,
            "durationTicks": 192,
            "midi": 36,
            "name": "C2",
            "ticks": 17664,
            "time": 17.25,
            "velocity": 0.28346456692913385
          },
          {
            "duration": 0.09375,
            "durationTicks": 96,
            "midi": 40,
            "name": "E2",
            "ticks": 17856,
            "time": 17.4375,
            "velocity": 0.28346456692913385
          },
          {
            "duration": 0.09375,
            "durationTicks": 96,
            "midi": 28,
            "name": "E1",
            "ticks": 17856,
            "time": 17.4375,
            "velocity": 0.3937007874015748
          },
          {
            "duration": 0.09375,
            "durationTicks": 96,
            "midi": 40,
            "name": "E2",
            "ticks": 17952,
            "time": 17.53125,
            "velocity": 0.28346456692913385
          },
          {
            "duration": 0.1875,
            "durationTicks": 192,
            "midi": 36,
            "name": "C2",
            "ticks": 18048,
            "time": 17.625,
            "velocity": 0.28346456692913385
          },
          {
            "duration": 0.1875,
            "durationTicks": 192,
            "midi": 40,
            "name": "E2",
            "ticks": 18240,
            "time": 17.8125,
            "velocity": 0.28346456692913385
          },
          {
            "duration": 0.09375,
            "durationTicks": 96,
            "midi": 28,
            "name": "E1",
            "ticks": 18240,
            "time": 17.8125,
            "velocity": 0.3937007874015748
          },
          {
            "duration": 0.1875,
            "durationTicks": 192,
            "midi": 36,
            "name": "C2",
            "ticks": 18432,
            "time": 18,
            "velocity": 0.28346456692913385
          },
          {
            "duration": 0.1875,
            "durationTicks": 192,
            "midi": 40,
            "name": "E2",
            "ticks": 18624,
            "time": 18.1875,
            "velocity": 0.28346456692913385
          },
          {
            "duration": 0.09375,
            "durationTicks": 96,
            "midi": 28,
            "name": "E1",
            "ticks": 18624,
            "time": 18.1875,
            "velocity": 0.3937007874015748
          },
          {
            "duration": 0.1875,
            "durationTicks": 192,
            "midi": 36,
            "name": "C2",
            "ticks": 18816,
            "time": 18.375,
            "velocity": 0.28346456692913385
          },
          {
            "duration": 0.09375,
            "durationTicks": 96,
            "midi": 28,
            "name": "E1",
            "ticks": 19008,
            "time": 18.5625,
            "velocity": 0.3937007874015748
          },
          {
            "duration": 0.1875,
            "durationTicks": 192,
            "midi": 40,
            "name": "E2",
            "ticks": 19008,
            "time": 18.5625,
            "velocity": 0.28346456692913385
          },
          {
            "duration": 0.1875,
            "durationTicks": 192,
            "midi": 36,
            "name": "C2",
            "ticks": 19200,
            "time": 18.75,
            "velocity": 0.28346456692913385
          },
          {
            "duration": 0.09375,
            "durationTicks": 96,
            "midi": 28,
            "name": "E1",
            "ticks": 19392,
            "time": 18.9375,
            "velocity": 0.3937007874015748
          },
          {
            "duration": 0.1875,
            "durationTicks": 192,
            "midi": 40,
            "name": "E2",
            "ticks": 19392,
            "time": 18.9375,
            "velocity": 0.28346456692913385
          },
          {
            "duration": 0.1875,
            "durationTicks": 192,
            "midi": 36,
            "name": "C2",
            "ticks": 19584,
            "time": 19.125,
            "velocity": 0.28346456692913385
          },
          {
            "duration": 0.09375,
            "durationTicks": 96,
            "midi": 28,
            "name": "E1",
            "ticks": 19776,
            "time": 19.3125,
            "velocity": 0.3937007874015748
          },
          {
            "duration": 0.1875,
            "durationTicks": 192,
            "midi": 40,
            "name": "E2",
            "ticks": 19776,
            "time": 19.3125,
            "velocity": 0.28346456692913385
          },
          {
            "duration": 0.1875,
            "durationTicks": 192,
            "midi": 36,
            "name": "C2",
            "ticks": 19968,
            "time": 19.5,
            "velocity": 0.28346456692913385
          },
          {
            "duration": 0.1875,
            "durationTicks": 192,
            "midi": 40,
            "name": "E2",
            "ticks": 20160,
            "time": 19.6875,
            "velocity": 0.28346456692913385
          },
          {
            "duration": 0.09375,
            "durationTicks": 96,
            "midi": 28,
            "name": "E1",
            "ticks": 20160,
            "time": 19.6875,
            "velocity": 0.3937007874015748
          },
          {
            "duration": 0.1875,
            "durationTicks": 192,
            "midi": 36,
            "name": "C2",
            "ticks": 20352,
            "time": 19.875,
            "velocity": 0.28346456692913385
          },
          {
            "duration": 0.09375,
            "durationTicks": 96,
            "midi": 28,
            "name": "E1",
            "ticks": 20544,
            "time": 20.0625,
            "velocity": 0.3937007874015748
          },
          {
            "duration": 0.1875,
            "durationTicks": 192,
            "midi": 40,
            "name": "E2",
            "ticks": 20544,
            "time": 20.0625,
            "velocity": 0.28346456692913385
          },
          {
            "duration": 0.1875,
            "durationTicks": 192,
            "midi": 36,
            "name": "C2",
            "ticks": 20736,
            "time": 20.25,
            "velocity": 0.28346456692913385
          },
          {
            "duration": 0.1875,
            "durationTicks": 192,
            "midi": 40,
            "name": "E2",
            "ticks": 20928,
            "time": 20.4375,
            "velocity": 0.28346456692913385
          },
          {
            "duration": 0.09375,
            "durationTicks": 96,
            "midi": 28,
            "name": "E1",
            "ticks": 20928,
            "time": 20.4375,
            "velocity": 0.3937007874015748
          },
          {
            "duration": 0.1875,
            "durationTicks": 192,
            "midi": 36,
            "name": "C2",
            "ticks": 21120,
            "time": 20.625,
            "velocity": 0.28346456692913385
          },
          {
            "duration": 0.1875,
            "durationTicks": 192,
            "midi": 40,
            "name": "E2",
            "ticks": 21312,
            "time": 20.8125,
            "velocity": 0.28346456692913385
          },
          {
            "duration": 0.09375,
            "durationTicks": 96,
            "midi": 28,
            "name": "E1",
            "ticks": 21312,
            "time": 20.8125,
            "velocity": 0.3937007874015748
          },
          {
            "duration": 0.1875,
            "durationTicks": 192,
            "midi": 57,
            "name": "A3",
            "ticks": 21504,
            "time": 21,
            "velocity": 0.28346456692913385
          },
          {
            "duration": 0.1875,
            "durationTicks": 192,
            "midi": 36,
            "name": "C2",
            "ticks": 21504,
            "time": 21,
            "velocity": 0.28346456692913385
          },
          {
            "duration": 0.1875,
            "durationTicks": 192,
            "midi": 49,
            "name": "C#3",
            "ticks": 21504,
            "time": 21,
            "velocity": 0.28346456692913385
          },
          {
            "duration": 0.1875,
            "durationTicks": 192,
            "midi": 40,
            "name": "E2",
            "ticks": 21696,
            "time": 21.1875,
            "velocity": 0.28346456692913385
          },
          {
            "duration": 0.09375,
            "durationTicks": 96,
            "midi": 28,
            "name": "E1",
            "ticks": 21696,
            "time": 21.1875,
            "velocity": 0.3937007874015748
          },
          {
            "duration": 0.1875,
            "durationTicks": 192,
            "midi": 36,
            "name": "C2",
            "ticks": 21888,
            "time": 21.375,
            "velocity": 0.28346456692913385
          },
          {
            "duration": 0.09375,
            "durationTicks": 96,
            "midi": 28,
            "name": "E1",
            "ticks": 22080,
            "time": 21.5625,
            "velocity": 0.3937007874015748
          },
          {
            "duration": 0.1875,
            "durationTicks": 192,
            "midi": 40,
            "name": "E2",
            "ticks": 22080,
            "time": 21.5625,
            "velocity": 0.28346456692913385
          },
          {
            "duration": 0.1875,
            "durationTicks": 192,
            "midi": 36,
            "name": "C2",
            "ticks": 22272,
            "time": 21.75,
            "velocity": 0.28346456692913385
          },
          {
            "duration": 0.09375,
            "durationTicks": 96,
            "midi": 28,
            "name": "E1",
            "ticks": 22464,
            "time": 21.9375,
            "velocity": 0.3937007874015748
          },
          {
            "duration": 0.1875,
            "durationTicks": 192,
            "midi": 40,
            "name": "E2",
            "ticks": 22464,
            "time": 21.9375,
            "velocity": 0.28346456692913385
          },
          {
            "duration": 0.1875,
            "durationTicks": 192,
            "midi": 36,
            "name": "C2",
            "ticks": 22656,
            "time": 22.125,
            "velocity": 0.28346456692913385
          },
          {
            "duration": 0.09375,
            "durationTicks": 96,
            "midi": 28,
            "name": "E1",
            "ticks": 22848,
            "time": 22.3125,
            "velocity": 0.3937007874015748
          },
          {
            "duration": 0.1875,
            "durationTicks": 192,
            "midi": 40,
            "name": "E2",
            "ticks": 22848,
            "time": 22.3125,
            "velocity": 0.28346456692913385
          },
          {
            "duration": 0.1875,
            "durationTicks": 192,
            "midi": 36,
            "name": "C2",
            "ticks": 23040,
            "time": 22.5,
            "velocity": 0.28346456692913385
          },
          {
            "duration": 0.1875,
            "durationTicks": 192,
            "midi": 40,
            "name": "E2",
            "ticks": 23232,
            "time": 22.6875,
            "velocity": 0.28346456692913385
          },
          {
            "duration": 0.09375,
            "durationTicks": 96,
            "midi": 28,
            "name": "E1",
            "ticks": 23232,
            "time": 22.6875,
            "velocity": 0.3937007874015748
          },
          {
            "duration": 0.1875,
            "durationTicks": 192,
            "midi": 36,
            "name": "C2",
            "ticks": 23424,
            "time": 22.875,
            "velocity": 0.28346456692913385
          },
          {
            "duration": 0.1875,
            "durationTicks": 192,
            "midi": 40,
            "name": "E2",
            "ticks": 23616,
            "time": 23.0625,
            "velocity": 0.28346456692913385
          },
          {
            "duration": 0.09375,
            "durationTicks": 96,
            "midi": 28,
            "name": "E1",
            "ticks": 23616,
            "time": 23.0625,
            "velocity": 0.3937007874015748
          },
          {
            "duration": 0.1875,
            "durationTicks": 192,
            "midi": 36,
            "name": "C2",
            "ticks": 23808,
            "time": 23.25,
            "velocity": 0.28346456692913385
          },
          {
            "duration": 0.09375,
            "durationTicks": 96,
            "midi": 28,
            "name": "E1",
            "ticks": 24000,
            "time": 23.4375,
            "velocity": 0.3937007874015748
          },
          {
            "duration": 0.09375,
            "durationTicks": 96,
            "midi": 40,
            "name": "E2",
            "ticks": 24000,
            "time": 23.4375,
            "velocity": 0.28346456692913385
          },
          {
            "duration": 0.09375,
            "durationTicks": 96,
            "midi": 40,
            "name": "E2",
            "ticks": 24096,
            "time": 23.53125,
            "velocity": 0.28346456692913385
          },
          {
            "duration": 0.1875,
            "durationTicks": 192,
            "midi": 36,
            "name": "C2",
            "ticks": 24192,
            "time": 23.625,
            "velocity": 0.28346456692913385
          },
          {
            "duration": 0.1875,
            "durationTicks": 192,
            "midi": 40,
            "name": "E2",
            "ticks": 24384,
            "time": 23.8125,
            "velocity": 0.28346456692913385
          },
          {
            "duration": 0.09375,
            "durationTicks": 96,
            "midi": 28,
            "name": "E1",
            "ticks": 24384,
            "time": 23.8125,
            "velocity": 0.3937007874015748
          },
          {
            "duration": 0.1875,
            "durationTicks": 192,
            "midi": 36,
            "name": "C2",
            "ticks": 24576,
            "time": 24,
            "velocity": 0.28346456692913385
          },
          {
            "duration": 0.09375,
            "durationTicks": 96,
            "midi": 28,
            "name": "E1",
            "ticks": 24768,
            "time": 24.1875,
            "velocity": 0.3937007874015748
          },
          {
            "duration": 0.1875,
            "durationTicks": 192,
            "midi": 40,
            "name": "E2",
            "ticks": 24768,
            "time": 24.1875,
            "velocity": 0.28346456692913385
          },
          {
            "duration": 0.1875,
            "durationTicks": 192,
            "midi": 36,
            "name": "C2",
            "ticks": 24960,
            "time": 24.375,
            "velocity": 0.28346456692913385
          },
          {
            "duration": 0.1875,
            "durationTicks": 192,
            "midi": 40,
            "name": "E2",
            "ticks": 25152,
            "time": 24.5625,
            "velocity": 0.28346456692913385
          },
          {
            "duration": 0.09375,
            "durationTicks": 96,
            "midi": 28,
            "name": "E1",
            "ticks": 25152,
            "time": 24.5625,
            "velocity": 0.3937007874015748
          },
          {
            "duration": 0.1875,
            "durationTicks": 192,
            "midi": 36,
            "name": "C2",
            "ticks": 25344,
            "time": 24.75,
            "velocity": 0.28346456692913385
          },
          {
            "duration": 0.1875,
            "durationTicks": 192,
            "midi": 40,
            "name": "E2",
            "ticks": 25536,
            "time": 24.9375,
            "velocity": 0.28346456692913385
          },
          {
            "duration": 0.09375,
            "durationTicks": 96,
            "midi": 28,
            "name": "E1",
            "ticks": 25536,
            "time": 24.9375,
            "velocity": 0.3937007874015748
          },
          {
            "duration": 0.1875,
            "durationTicks": 192,
            "midi": 36,
            "name": "C2",
            "ticks": 25728,
            "time": 25.125,
            "velocity": 0.28346456692913385
          },
          {
            "duration": 0.09375,
            "durationTicks": 96,
            "midi": 28,
            "name": "E1",
            "ticks": 25920,
            "time": 25.3125,
            "velocity": 0.3937007874015748
          },
          {
            "duration": 0.1875,
            "durationTicks": 192,
            "midi": 40,
            "name": "E2",
            "ticks": 25920,
            "time": 25.3125,
            "velocity": 0.28346456692913385
          },
          {
            "duration": 0.1875,
            "durationTicks": 192,
            "midi": 36,
            "name": "C2",
            "ticks": 26112,
            "time": 25.5,
            "velocity": 0.28346456692913385
          },
          {
            "duration": 0.1875,
            "durationTicks": 192,
            "midi": 40,
            "name": "E2",
            "ticks": 26304,
            "time": 25.6875,
            "velocity": 0.28346456692913385
          },
          {
            "duration": 0.09375,
            "durationTicks": 96,
            "midi": 28,
            "name": "E1",
            "ticks": 26304,
            "time": 25.6875,
            "velocity": 0.3937007874015748
          },
          {
            "duration": 0.1875,
            "durationTicks": 192,
            "midi": 36,
            "name": "C2",
            "ticks": 26496,
            "time": 25.875,
            "velocity": 0.28346456692913385
          },
          {
            "duration": 0.09375,
            "durationTicks": 96,
            "midi": 40,
            "name": "E2",
            "ticks": 26688,
            "time": 26.0625,
            "velocity": 0.28346456692913385
          },
          {
            "duration": 0.09375,
            "durationTicks": 96,
            "midi": 28,
            "name": "E1",
            "ticks": 26688,
            "time": 26.0625,
            "velocity": 0.3937007874015748
          },
          {
            "duration": 0.09375,
            "durationTicks": 96,
            "midi": 40,
            "name": "E2",
            "ticks": 26784,
            "time": 26.15625,
            "velocity": 0.28346456692913385
          },
          {
            "duration": 0.09375,
            "durationTicks": 96,
            "midi": 40,
            "name": "E2",
            "ticks": 26880,
            "time": 26.25,
            "velocity": 0.28346456692913385
          },
          {
            "duration": 0.09375,
            "durationTicks": 96,
            "midi": 36,
            "name": "C2",
            "ticks": 26880,
            "time": 26.25,
            "velocity": 0.28346456692913385
          },
          {
            "duration": 0.09375,
            "durationTicks": 96,
            "midi": 40,
            "name": "E2",
            "ticks": 26976,
            "time": 26.34375,
            "velocity": 0.28346456692913385
          },
          {
            "duration": 0.09375,
            "durationTicks": 96,
            "midi": 28,
            "name": "E1",
            "ticks": 27072,
            "time": 26.4375,
            "velocity": 0.3937007874015748
          },
          {
            "duration": 0.09375,
            "durationTicks": 96,
            "midi": 40,
            "name": "E2",
            "ticks": 27072,
            "time": 26.4375,
            "velocity": 0.28346456692913385
          },
          {
            "duration": 0.09375,
            "durationTicks": 96,
            "midi": 40,
            "name": "E2",
            "ticks": 27168,
            "time": 26.53125,
            "velocity": 0.28346456692913385
          },
          {
            "duration": 0.1875,
            "durationTicks": 192,
            "midi": 36,
            "name": "C2",
            "ticks": 27264,
            "time": 26.625,
            "velocity": 0.28346456692913385
          },
          {
            "duration": 0.1875,
            "durationTicks": 192,
            "midi": 40,
            "name": "E2",
            "ticks": 27264,
            "time": 26.625,
            "velocity": 0.28346456692913385
          },
          {
            "duration": 0.09375,
            "durationTicks": 96,
            "midi": 28,
            "name": "E1",
            "ticks": 27456,
            "time": 26.8125,
            "velocity": 0.3937007874015748
          },
          {
            "duration": 0.09375,
            "durationTicks": 96,
            "midi": 40,
            "name": "E2",
            "ticks": 27456,
            "time": 26.8125,
            "velocity": 0.28346456692913385
          },
          {
            "duration": 0.09375,
            "durationTicks": 96,
            "midi": 40,
            "name": "E2",
            "ticks": 27552,
            "time": 26.90625,
            "velocity": 0.28346456692913385
          },
          {
            "duration": 0.1875,
            "durationTicks": 192,
            "midi": 36,
            "name": "C2",
            "ticks": 27648,
            "time": 27,
            "velocity": 0.28346456692913385
          },
          {
            "duration": 0.1875,
            "durationTicks": 192,
            "midi": 49,
            "name": "C#3",
            "ticks": 27648,
            "time": 27,
            "velocity": 0.28346456692913385
          },
          {
            "duration": 0.1875,
            "durationTicks": 192,
            "midi": 57,
            "name": "A3",
            "ticks": 27648,
            "time": 27,
            "velocity": 0.28346456692913385
          },
          {
            "duration": 0.09375,
            "durationTicks": 96,
            "midi": 28,
            "name": "E1",
            "ticks": 27840,
            "time": 27.1875,
            "velocity": 0.3937007874015748
          },
          {
            "duration": 0.1875,
            "durationTicks": 192,
            "midi": 40,
            "name": "E2",
            "ticks": 27840,
            "time": 27.1875,
            "velocity": 0.28346456692913385
          },
          {
            "duration": 0.1875,
            "durationTicks": 192,
            "midi": 36,
            "name": "C2",
            "ticks": 28032,
            "time": 27.375,
            "velocity": 0.28346456692913385
          },
          {
            "duration": 0.1875,
            "durationTicks": 192,
            "midi": 40,
            "name": "E2",
            "ticks": 28224,
            "time": 27.5625,
            "velocity": 0.28346456692913385
          },
          {
            "duration": 0.09375,
            "durationTicks": 96,
            "midi": 28,
            "name": "E1",
            "ticks": 28224,
            "time": 27.5625,
            "velocity": 0.3937007874015748
          },
          {
            "duration": 0.1875,
            "durationTicks": 192,
            "midi": 36,
            "name": "C2",
            "ticks": 28416,
            "time": 27.75,
            "velocity": 0.28346456692913385
          },
          {
            "duration": 0.1875,
            "durationTicks": 192,
            "midi": 40,
            "name": "E2",
            "ticks": 28608,
            "time": 27.9375,
            "velocity": 0.28346456692913385
          },
          {
            "duration": 0.09375,
            "durationTicks": 96,
            "midi": 28,
            "name": "E1",
            "ticks": 28608,
            "time": 27.9375,
            "velocity": 0.3937007874015748
          },
          {
            "duration": 0.1875,
            "durationTicks": 192,
            "midi": 36,
            "name": "C2",
            "ticks": 28800,
            "time": 28.125,
            "velocity": 0.28346456692913385
          },
          {
            "duration": 0.09375,
            "durationTicks": 96,
            "midi": 28,
            "name": "E1",
            "ticks": 28992,
            "time": 28.3125,
            "velocity": 0.3937007874015748
          },
          {
            "duration": 0.1875,
            "durationTicks": 192,
            "midi": 40,
            "name": "E2",
            "ticks": 28992,
            "time": 28.3125,
            "velocity": 0.28346456692913385
          },
          {
            "duration": 0.1875,
            "durationTicks": 192,
            "midi": 36,
            "name": "C2",
            "ticks": 29184,
            "time": 28.5,
            "velocity": 0.28346456692913385
          },
          {
            "duration": 0.09375,
            "durationTicks": 96,
            "midi": 28,
            "name": "E1",
            "ticks": 29376,
            "time": 28.6875,
            "velocity": 0.3937007874015748
          },
          {
            "duration": 0.1875,
            "durationTicks": 192,
            "midi": 40,
            "name": "E2",
            "ticks": 29376,
            "time": 28.6875,
            "velocity": 0.28346456692913385
          },
          {
            "duration": 0.1875,
            "durationTicks": 192,
            "midi": 36,
            "name": "C2",
            "ticks": 29568,
            "time": 28.875,
            "velocity": 0.28346456692913385
          },
          {
            "duration": 0.1875,
            "durationTicks": 192,
            "midi": 40,
            "name": "E2",
            "ticks": 29760,
            "time": 29.0625,
            "velocity": 0.28346456692913385
          },
          {
            "duration": 0.09375,
            "durationTicks": 96,
            "midi": 28,
            "name": "E1",
            "ticks": 29760,
            "time": 29.0625,
            "velocity": 0.3937007874015748
          },
          {
            "duration": 0.1875,
            "durationTicks": 192,
            "midi": 36,
            "name": "C2",
            "ticks": 29952,
            "time": 29.25,
            "velocity": 0.28346456692913385
          },
          {
            "duration": 0.09375,
            "durationTicks": 96,
            "midi": 28,
            "name": "E1",
            "ticks": 30144,
            "time": 29.4375,
            "velocity": 0.3937007874015748
          },
          {
            "duration": 0.1875,
            "durationTicks": 192,
            "midi": 40,
            "name": "E2",
            "ticks": 30144,
            "time": 29.4375,
            "velocity": 0.28346456692913385
          },
          {
            "duration": 0.1875,
            "durationTicks": 192,
            "midi": 36,
            "name": "C2",
            "ticks": 30336,
            "time": 29.625,
            "velocity": 0.28346456692913385
          },
          {
            "duration": 0.1875,
            "durationTicks": 192,
            "midi": 40,
            "name": "E2",
            "ticks": 30528,
            "time": 29.8125,
            "velocity": 0.28346456692913385
          },
          {
            "duration": 0.09375,
            "durationTicks": 96,
            "midi": 28,
            "name": "E1",
            "ticks": 30528,
            "time": 29.8125,
            "velocity": 0.3937007874015748
          },
          {
            "duration": 0.1875,
            "durationTicks": 192,
            "midi": 36,
            "name": "C2",
            "ticks": 30720,
            "time": 30,
            "velocity": 0.28346456692913385
          },
          {
            "duration": 0.1875,
            "durationTicks": 192,
            "midi": 40,
            "name": "E2",
            "ticks": 30912,
            "time": 30.1875,
            "velocity": 0.28346456692913385
          },
          {
            "duration": 0.09375,
            "durationTicks": 96,
            "midi": 28,
            "name": "E1",
            "ticks": 30912,
            "time": 30.1875,
            "velocity": 0.3937007874015748
          },
          {
            "duration": 0.1875,
            "durationTicks": 192,
            "midi": 36,
            "name": "C2",
            "ticks": 31104,
            "time": 30.375,
            "velocity": 0.28346456692913385
          },
          {
            "duration": 0.09375,
            "durationTicks": 96,
            "midi": 28,
            "name": "E1",
            "ticks": 31296,
            "time": 30.5625,
            "velocity": 0.3937007874015748
          },
          {
            "duration": 0.1875,
            "durationTicks": 192,
            "midi": 40,
            "name": "E2",
            "ticks": 31296,
            "time": 30.5625,
            "velocity": 0.28346456692913385
          },
          {
            "duration": 0.1875,
            "durationTicks": 192,
            "midi": 36,
            "name": "C2",
            "ticks": 31488,
            "time": 30.75,
            "velocity": 0.28346456692913385
          },
          {
            "duration": 0.09375,
            "durationTicks": 96,
            "midi": 28,
            "name": "E1",
            "ticks": 31680,
            "time": 30.9375,
            "velocity": 0.3937007874015748
          },
          {
            "duration": 0.1875,
            "durationTicks": 192,
            "midi": 40,
            "name": "E2",
            "ticks": 31680,
            "time": 30.9375,
            "velocity": 0.28346456692913385
          },
          {
            "duration": 0.1875,
            "durationTicks": 192,
            "midi": 36,
            "name": "C2",
            "ticks": 31872,
            "time": 31.125,
            "velocity": 0.28346456692913385
          },
          {
            "duration": 0.1875,
            "durationTicks": 192,
            "midi": 40,
            "name": "E2",
            "ticks": 32064,
            "time": 31.3125,
            "velocity": 0.28346456692913385
          },
          {
            "duration": 0.09375,
            "durationTicks": 96,
            "midi": 28,
            "name": "E1",
            "ticks": 32064,
            "time": 31.3125,
            "velocity": 0.3937007874015748
          },
          {
            "duration": 0.1875,
            "durationTicks": 192,
            "midi": 36,
            "name": "C2",
            "ticks": 32256,
            "time": 31.5,
            "velocity": 0.28346456692913385
          },
          {
            "duration": 0.09375,
            "durationTicks": 96,
            "midi": 28,
            "name": "E1",
            "ticks": 32448,
            "time": 31.6875,
            "velocity": 0.3937007874015748
          },
          {
            "duration": 0.1875,
            "durationTicks": 192,
            "midi": 40,
            "name": "E2",
            "ticks": 32448,
            "time": 31.6875,
            "velocity": 0.28346456692913385
          },
          {
            "duration": 0.1875,
            "durationTicks": 192,
            "midi": 36,
            "name": "C2",
            "ticks": 32640,
            "time": 31.875,
            "velocity": 0.28346456692913385
          },
          {
            "duration": 0.1875,
            "durationTicks": 192,
            "midi": 40,
            "name": "E2",
            "ticks": 32832,
            "time": 32.0625,
            "velocity": 0.28346456692913385
          },
          {
            "duration": 0.09375,
            "durationTicks": 96,
            "midi": 28,
            "name": "E1",
            "ticks": 32832,
            "time": 32.0625,
            "velocity": 0.3937007874015748
          },
          {
            "duration": 0.1875,
            "durationTicks": 192,
            "midi": 36,
            "name": "C2",
            "ticks": 33024,
            "time": 32.25,
            "velocity": 0.28346456692913385
          },
          {
            "duration": 0.09375,
            "durationTicks": 96,
            "midi": 28,
            "name": "E1",
            "ticks": 33216,
            "time": 32.4375,
            "velocity": 0.3937007874015748
          },
          {
            "duration": 0.09375,
            "durationTicks": 96,
            "midi": 40,
            "name": "E2",
            "ticks": 33216,
            "time": 32.4375,
            "velocity": 0.28346456692913385
          },
          {
            "duration": 0.09375,
            "durationTicks": 96,
            "midi": 40,
            "name": "E2",
            "ticks": 33312,
            "time": 32.53125,
            "velocity": 0.28346456692913385
          },
          {
            "duration": 0.1875,
            "durationTicks": 192,
            "midi": 36,
            "name": "C2",
            "ticks": 33408,
            "time": 32.625,
            "velocity": 0.28346456692913385
          },
          {
            "duration": 0.1875,
            "durationTicks": 192,
            "midi": 40,
            "name": "E2",
            "ticks": 33600,
            "time": 32.8125,
            "velocity": 0.28346456692913385
          },
          {
            "duration": 0.09375,
            "durationTicks": 96,
            "midi": 28,
            "name": "E1",
            "ticks": 33600,
            "time": 32.8125,
            "velocity": 0.3937007874015748
          },
          {
            "duration": 0.1875,
            "durationTicks": 192,
            "midi": 49,
            "name": "C#3",
            "ticks": 33792,
            "time": 33,
            "velocity": 0.28346456692913385
          },
          {
            "duration": 0.1875,
            "durationTicks": 192,
            "midi": 57,
            "name": "A3",
            "ticks": 33792,
            "time": 33,
            "velocity": 0.28346456692913385
          },
          {
            "duration": 0.1875,
            "durationTicks": 192,
            "midi": 36,
            "name": "C2",
            "ticks": 33792,
            "time": 33,
            "velocity": 0.28346456692913385
          },
          {
            "duration": 0.1875,
            "durationTicks": 192,
            "midi": 40,
            "name": "E2",
            "ticks": 33984,
            "time": 33.1875,
            "velocity": 0.28346456692913385
          },
          {
            "duration": 0.09375,
            "durationTicks": 96,
            "midi": 28,
            "name": "E1",
            "ticks": 33984,
            "time": 33.1875,
            "velocity": 0.3937007874015748
          },
          {
            "duration": 0.1875,
            "durationTicks": 192,
            "midi": 36,
            "name": "C2",
            "ticks": 34176,
            "time": 33.375,
            "velocity": 0.28346456692913385
          },
          {
            "duration": 0.09375,
            "durationTicks": 96,
            "midi": 28,
            "name": "E1",
            "ticks": 34368,
            "time": 33.5625,
            "velocity": 0.3937007874015748
          },
          {
            "duration": 0.1875,
            "durationTicks": 192,
            "midi": 40,
            "name": "E2",
            "ticks": 34368,
            "time": 33.5625,
            "velocity": 0.28346456692913385
          },
          {
            "duration": 0.1875,
            "durationTicks": 192,
            "midi": 36,
            "name": "C2",
            "ticks": 34560,
            "time": 33.75,
            "velocity": 0.28346456692913385
          },
          {
            "duration": 0.1875,
            "durationTicks": 192,
            "midi": 40,
            "name": "E2",
            "ticks": 34752,
            "time": 33.9375,
            "velocity": 0.28346456692913385
          },
          {
            "duration": 0.09375,
            "durationTicks": 96,
            "midi": 28,
            "name": "E1",
            "ticks": 34752,
            "time": 33.9375,
            "velocity": 0.3937007874015748
          },
          {
            "duration": 0.1875,
            "durationTicks": 192,
            "midi": 36,
            "name": "C2",
            "ticks": 34944,
            "time": 34.125,
            "velocity": 0.28346456692913385
          },
          {
            "duration": 0.1875,
            "durationTicks": 192,
            "midi": 40,
            "name": "E2",
            "ticks": 35136,
            "time": 34.3125,
            "velocity": 0.28346456692913385
          },
          {
            "duration": 0.09375,
            "durationTicks": 96,
            "midi": 28,
            "name": "E1",
            "ticks": 35136,
            "time": 34.3125,
            "velocity": 0.3937007874015748
          },
          {
            "duration": 0.1875,
            "durationTicks": 192,
            "midi": 36,
            "name": "C2",
            "ticks": 35328,
            "time": 34.5,
            "velocity": 0.28346456692913385
          },
          {
            "duration": 0.1875,
            "durationTicks": 192,
            "midi": 40,
            "name": "E2",
            "ticks": 35520,
            "time": 34.6875,
            "velocity": 0.28346456692913385
          },
          {
            "duration": 0.09375,
            "durationTicks": 96,
            "midi": 28,
            "name": "E1",
            "ticks": 35520,
            "time": 34.6875,
            "velocity": 0.3937007874015748
          },
          {
            "duration": 0.1875,
            "durationTicks": 192,
            "midi": 36,
            "name": "C2",
            "ticks": 35712,
            "time": 34.875,
            "velocity": 0.28346456692913385
          },
          {
            "duration": 0.1875,
            "durationTicks": 192,
            "midi": 40,
            "name": "E2",
            "ticks": 35904,
            "time": 35.0625,
            "velocity": 0.28346456692913385
          },
          {
            "duration": 0.09375,
            "durationTicks": 96,
            "midi": 28,
            "name": "E1",
            "ticks": 35904,
            "time": 35.0625,
            "velocity": 0.3937007874015748
          },
          {
            "duration": 0.1875,
            "durationTicks": 192,
            "midi": 36,
            "name": "C2",
            "ticks": 36096,
            "time": 35.25,
            "velocity": 0.28346456692913385
          },
          {
            "duration": 0.09375,
            "durationTicks": 96,
            "midi": 40,
            "name": "E2",
            "ticks": 36288,
            "time": 35.4375,
            "velocity": 0.28346456692913385
          },
          {
            "duration": 0.09375,
            "durationTicks": 96,
            "midi": 28,
            "name": "E1",
            "ticks": 36288,
            "time": 35.4375,
            "velocity": 0.3937007874015748
          },
          {
            "duration": 0.09375,
            "durationTicks": 96,
            "midi": 40,
            "name": "E2",
            "ticks": 36384,
            "time": 35.53125,
            "velocity": 0.28346456692913385
          },
          {
            "duration": 0.1875,
            "durationTicks": 192,
            "midi": 36,
            "name": "C2",
            "ticks": 36480,
            "time": 35.625,
            "velocity": 0.28346456692913385
          },
          {
            "duration": 0.1875,
            "durationTicks": 192,
            "midi": 40,
            "name": "E2",
            "ticks": 36672,
            "time": 35.8125,
            "velocity": 0.28346456692913385
          },
          {
            "duration": 0.09375,
            "durationTicks": 96,
            "midi": 28,
            "name": "E1",
            "ticks": 36672,
            "time": 35.8125,
            "velocity": 0.3937007874015748
          },
          {
            "duration": 0.1875,
            "durationTicks": 192,
            "midi": 36,
            "name": "C2",
            "ticks": 36864,
            "time": 36,
            "velocity": 0.28346456692913385
          },
          {
            "duration": 0.09375,
            "durationTicks": 96,
            "midi": 28,
            "name": "E1",
            "ticks": 37056,
            "time": 36.1875,
            "velocity": 0.3937007874015748
          },
          {
            "duration": 0.1875,
            "durationTicks": 192,
            "midi": 40,
            "name": "E2",
            "ticks": 37056,
            "time": 36.1875,
            "velocity": 0.28346456692913385
          },
          {
            "duration": 0.1875,
            "durationTicks": 192,
            "midi": 36,
            "name": "C2",
            "ticks": 37248,
            "time": 36.375,
            "velocity": 0.28346456692913385
          },
          {
            "duration": 0.1875,
            "durationTicks": 192,
            "midi": 40,
            "name": "E2",
            "ticks": 37440,
            "time": 36.5625,
            "velocity": 0.28346456692913385
          },
          {
            "duration": 0.09375,
            "durationTicks": 96,
            "midi": 28,
            "name": "E1",
            "ticks": 37440,
            "time": 36.5625,
            "velocity": 0.3937007874015748
          },
          {
            "duration": 0.1875,
            "durationTicks": 192,
            "midi": 36,
            "name": "C2",
            "ticks": 37632,
            "time": 36.75,
            "velocity": 0.28346456692913385
          },
          {
            "duration": 0.1875,
            "durationTicks": 192,
            "midi": 40,
            "name": "E2",
            "ticks": 37824,
            "time": 36.9375,
            "velocity": 0.28346456692913385
          },
          {
            "duration": 0.09375,
            "durationTicks": 96,
            "midi": 28,
            "name": "E1",
            "ticks": 37824,
            "time": 36.9375,
            "velocity": 0.3937007874015748
          },
          {
            "duration": 0.1875,
            "durationTicks": 192,
            "midi": 36,
            "name": "C2",
            "ticks": 38016,
            "time": 37.125,
            "velocity": 0.28346456692913385
          },
          {
            "duration": 0.09375,
            "durationTicks": 96,
            "midi": 28,
            "name": "E1",
            "ticks": 38208,
            "time": 37.3125,
            "velocity": 0.3937007874015748
          },
          {
            "duration": 0.1875,
            "durationTicks": 192,
            "midi": 40,
            "name": "E2",
            "ticks": 38208,
            "time": 37.3125,
            "velocity": 0.28346456692913385
          },
          {
            "duration": 0.1875,
            "durationTicks": 192,
            "midi": 36,
            "name": "C2",
            "ticks": 38400,
            "time": 37.5,
            "velocity": 0.28346456692913385
          },
          {
            "duration": 0.1875,
            "durationTicks": 192,
            "midi": 40,
            "name": "E2",
            "ticks": 38592,
            "time": 37.6875,
            "velocity": 0.28346456692913385
          },
          {
            "duration": 0.09375,
            "durationTicks": 96,
            "midi": 28,
            "name": "E1",
            "ticks": 38592,
            "time": 37.6875,
            "velocity": 0.3937007874015748
          },
          {
            "duration": 0.1875,
            "durationTicks": 192,
            "midi": 36,
            "name": "C2",
            "ticks": 38784,
            "time": 37.875,
            "velocity": 0.28346456692913385
          },
          {
            "duration": 0.09375,
            "durationTicks": 96,
            "midi": 28,
            "name": "E1",
            "ticks": 38976,
            "time": 38.0625,
            "velocity": 0.3937007874015748
          },
          {
            "duration": 0.1875,
            "durationTicks": 192,
            "midi": 40,
            "name": "E2",
            "ticks": 38976,
            "time": 38.0625,
            "velocity": 0.28346456692913385
          },
          {
            "duration": 0.1875,
            "durationTicks": 192,
            "midi": 36,
            "name": "C2",
            "ticks": 39168,
            "time": 38.25,
            "velocity": 0.28346456692913385
          },
          {
            "duration": 0.09375,
            "durationTicks": 96,
            "midi": 40,
            "name": "E2",
            "ticks": 39360,
            "time": 38.4375,
            "velocity": 0.28346456692913385
          },
          {
            "duration": 0.09375,
            "durationTicks": 96,
            "midi": 28,
            "name": "E1",
            "ticks": 39360,
            "time": 38.4375,
            "velocity": 0.3937007874015748
          },
          {
            "duration": 0.09375,
            "durationTicks": 96,
            "midi": 40,
            "name": "E2",
            "ticks": 39456,
            "time": 38.53125,
            "velocity": 0.28346456692913385
          },
          {
            "duration": 0.09375,
            "durationTicks": 96,
            "midi": 36,
            "name": "C2",
            "ticks": 39552,
            "time": 38.625,
            "velocity": 0.28346456692913385
          },
          {
            "duration": 0.09375,
            "durationTicks": 96,
            "midi": 40,
            "name": "E2",
            "ticks": 39648,
            "time": 38.71875,
            "velocity": 0.28346456692913385
          },
          {
            "duration": 0.09375,
            "durationTicks": 96,
            "midi": 28,
            "name": "E1",
            "ticks": 39744,
            "time": 38.8125,
            "velocity": 0.3937007874015748
          },
          {
            "duration": 0.09375,
            "durationTicks": 96,
            "midi": 40,
            "name": "E2",
            "ticks": 39744,
            "time": 38.8125,
            "velocity": 0.28346456692913385
          },
          {
            "duration": 0.09375,
            "durationTicks": 96,
            "midi": 40,
            "name": "E2",
            "ticks": 39840,
            "time": 38.90625,
            "velocity": 0.28346456692913385
          },
          {
            "duration": 0.1875,
            "durationTicks": 192,
            "midi": 49,
            "name": "C#3",
            "ticks": 39936,
            "time": 39,
            "velocity": 0.28346456692913385
          },
          {
            "duration": 0.1875,
            "durationTicks": 192,
            "midi": 57,
            "name": "A3",
            "ticks": 39936,
            "time": 39,
            "velocity": 0.28346456692913385
          },
          {
            "duration": 0.1875,
            "durationTicks": 192,
            "midi": 36,
            "name": "C2",
            "ticks": 39936,
            "time": 39,
            "velocity": 0.28346456692913385
          },
          {
            "duration": 0.09375,
            "durationTicks": 96,
            "midi": 28,
            "name": "E1",
            "ticks": 40128,
            "time": 39.1875,
            "velocity": 0.3937007874015748
          },
          {
            "duration": 0.1875,
            "durationTicks": 192,
            "midi": 40,
            "name": "E2",
            "ticks": 40128,
            "time": 39.1875,
            "velocity": 0.28346456692913385
          },
          {
            "duration": 0.1875,
            "durationTicks": 192,
            "midi": 36,
            "name": "C2",
            "ticks": 40320,
            "time": 39.375,
            "velocity": 0.28346456692913385
          },
          {
            "duration": 0.09375,
            "durationTicks": 96,
            "midi": 28,
            "name": "E1",
            "ticks": 40512,
            "time": 39.5625,
            "velocity": 0.3937007874015748
          },
          {
            "duration": 0.1875,
            "durationTicks": 192,
            "midi": 40,
            "name": "E2",
            "ticks": 40512,
            "time": 39.5625,
            "velocity": 0.28346456692913385
          },
          {
            "duration": 0.1875,
            "durationTicks": 192,
            "midi": 36,
            "name": "C2",
            "ticks": 40704,
            "time": 39.75,
            "velocity": 0.28346456692913385
          },
          {
            "duration": 0.09375,
            "durationTicks": 96,
            "midi": 28,
            "name": "E1",
            "ticks": 40896,
            "time": 39.9375,
            "velocity": 0.3937007874015748
          },
          {
            "duration": 0.1875,
            "durationTicks": 192,
            "midi": 40,
            "name": "E2",
            "ticks": 40896,
            "time": 39.9375,
            "velocity": 0.28346456692913385
          },
          {
            "duration": 0.1875,
            "durationTicks": 192,
            "midi": 36,
            "name": "C2",
            "ticks": 41088,
            "time": 40.125,
            "velocity": 0.28346456692913385
          },
          {
            "duration": 0.1875,
            "durationTicks": 192,
            "midi": 40,
            "name": "E2",
            "ticks": 41280,
            "time": 40.3125,
            "velocity": 0.28346456692913385
          },
          {
            "duration": 0.09375,
            "durationTicks": 96,
            "midi": 28,
            "name": "E1",
            "ticks": 41280,
            "time": 40.3125,
            "velocity": 0.3937007874015748
          },
          {
            "duration": 0.1875,
            "durationTicks": 192,
            "midi": 36,
            "name": "C2",
            "ticks": 41472,
            "time": 40.5,
            "velocity": 0.28346456692913385
          },
          {
            "duration": 0.1875,
            "durationTicks": 192,
            "midi": 40,
            "name": "E2",
            "ticks": 41664,
            "time": 40.6875,
            "velocity": 0.28346456692913385
          },
          {
            "duration": 0.09375,
            "durationTicks": 96,
            "midi": 28,
            "name": "E1",
            "ticks": 41664,
            "time": 40.6875,
            "velocity": 0.3937007874015748
          },
          {
            "duration": 0.1875,
            "durationTicks": 192,
            "midi": 36,
            "name": "C2",
            "ticks": 41856,
            "time": 40.875,
            "velocity": 0.28346456692913385
          },
          {
            "duration": 0.09375,
            "durationTicks": 96,
            "midi": 28,
            "name": "E1",
            "ticks": 42048,
            "time": 41.0625,
            "velocity": 0.3937007874015748
          },
          {
            "duration": 0.1875,
            "durationTicks": 192,
            "midi": 40,
            "name": "E2",
            "ticks": 42048,
            "time": 41.0625,
            "velocity": 0.28346456692913385
          },
          {
            "duration": 0.1875,
            "durationTicks": 192,
            "midi": 36,
            "name": "C2",
            "ticks": 42240,
            "time": 41.25,
            "velocity": 0.28346456692913385
          },
          {
            "duration": 0.09375,
            "durationTicks": 96,
            "midi": 28,
            "name": "E1",
            "ticks": 42432,
            "time": 41.4375,
            "velocity": 0.3937007874015748
          },
          {
            "duration": 0.09375,
            "durationTicks": 96,
            "midi": 40,
            "name": "E2",
            "ticks": 42432,
            "time": 41.4375,
            "velocity": 0.28346456692913385
          },
          {
            "duration": 0.09375,
            "durationTicks": 96,
            "midi": 40,
            "name": "E2",
            "ticks": 42528,
            "time": 41.53125,
            "velocity": 0.28346456692913385
          },
          {
            "duration": 0.1875,
            "durationTicks": 192,
            "midi": 36,
            "name": "C2",
            "ticks": 42624,
            "time": 41.625,
            "velocity": 0.28346456692913385
          },
          {
            "duration": 0.09375,
            "durationTicks": 96,
            "midi": 28,
            "name": "E1",
            "ticks": 42816,
            "time": 41.8125,
            "velocity": 0.3937007874015748
          },
          {
            "duration": 0.1875,
            "durationTicks": 192,
            "midi": 40,
            "name": "E2",
            "ticks": 42816,
            "time": 41.8125,
            "velocity": 0.28346456692913385
          },
          {
            "duration": 0.1875,
            "durationTicks": 192,
            "midi": 36,
            "name": "C2",
            "ticks": 43008,
            "time": 42,
            "velocity": 0.28346456692913385
          },
          {
            "duration": 0.1875,
            "durationTicks": 192,
            "midi": 40,
            "name": "E2",
            "ticks": 43200,
            "time": 42.1875,
            "velocity": 0.28346456692913385
          },
          {
            "duration": 0.09375,
            "durationTicks": 96,
            "midi": 28,
            "name": "E1",
            "ticks": 43200,
            "time": 42.1875,
            "velocity": 0.3937007874015748
          },
          {
            "duration": 0.1875,
            "durationTicks": 192,
            "midi": 36,
            "name": "C2",
            "ticks": 43392,
            "time": 42.375,
            "velocity": 0.28346456692913385
          },
          {
            "duration": 0.09375,
            "durationTicks": 96,
            "midi": 28,
            "name": "E1",
            "ticks": 43584,
            "time": 42.5625,
            "velocity": 0.3937007874015748
          },
          {
            "duration": 0.1875,
            "durationTicks": 192,
            "midi": 40,
            "name": "E2",
            "ticks": 43584,
            "time": 42.5625,
            "velocity": 0.28346456692913385
          },
          {
            "duration": 0.1875,
            "durationTicks": 192,
            "midi": 36,
            "name": "C2",
            "ticks": 43776,
            "time": 42.75,
            "velocity": 0.28346456692913385
          },
          {
            "duration": 0.1875,
            "durationTicks": 192,
            "midi": 40,
            "name": "E2",
            "ticks": 43968,
            "time": 42.9375,
            "velocity": 0.28346456692913385
          },
          {
            "duration": 0.09375,
            "durationTicks": 96,
            "midi": 28,
            "name": "E1",
            "ticks": 43968,
            "time": 42.9375,
            "velocity": 0.3937007874015748
          },
          {
            "duration": 0.1875,
            "durationTicks": 192,
            "midi": 36,
            "name": "C2",
            "ticks": 44160,
            "time": 43.125,
            "velocity": 0.28346456692913385
          },
          {
            "duration": 0.1875,
            "durationTicks": 192,
            "midi": 40,
            "name": "E2",
            "ticks": 44352,
            "time": 43.3125,
            "velocity": 0.28346456692913385
          },
          {
            "duration": 0.09375,
            "durationTicks": 96,
            "midi": 28,
            "name": "E1",
            "ticks": 44352,
            "time": 43.3125,
            "velocity": 0.3937007874015748
          },
          {
            "duration": 0.1875,
            "durationTicks": 192,
            "midi": 36,
            "name": "C2",
            "ticks": 44544,
            "time": 43.5,
            "velocity": 0.28346456692913385
          },
          {
            "duration": 0.09375,
            "durationTicks": 96,
            "midi": 28,
            "name": "E1",
            "ticks": 44736,
            "time": 43.6875,
            "velocity": 0.3937007874015748
          },
          {
            "duration": 0.1875,
            "durationTicks": 192,
            "midi": 40,
            "name": "E2",
            "ticks": 44736,
            "time": 43.6875,
            "velocity": 0.28346456692913385
          },
          {
            "duration": 0.1875,
            "durationTicks": 192,
            "midi": 36,
            "name": "C2",
            "ticks": 44928,
            "time": 43.875,
            "velocity": 0.28346456692913385
          },
          {
            "duration": 0.09375,
            "durationTicks": 96,
            "midi": 28,
            "name": "E1",
            "ticks": 45120,
            "time": 44.0625,
            "velocity": 0.3937007874015748
          },
          {
            "duration": 0.1875,
            "durationTicks": 192,
            "midi": 40,
            "name": "E2",
            "ticks": 45120,
            "time": 44.0625,
            "velocity": 0.28346456692913385
          },
          {
            "duration": 0.1875,
            "durationTicks": 192,
            "midi": 36,
            "name": "C2",
            "ticks": 45312,
            "time": 44.25,
            "velocity": 0.28346456692913385
          },
          {
            "duration": 0.1875,
            "durationTicks": 192,
            "midi": 40,
            "name": "E2",
            "ticks": 45504,
            "time": 44.4375,
            "velocity": 0.28346456692913385
          },
          {
            "duration": 0.09375,
            "durationTicks": 96,
            "midi": 28,
            "name": "E1",
            "ticks": 45504,
            "time": 44.4375,
            "velocity": 0.3937007874015748
          },
          {
            "duration": 0.1875,
            "durationTicks": 192,
            "midi": 36,
            "name": "C2",
            "ticks": 45696,
            "time": 44.625,
            "velocity": 0.28346456692913385
          },
          {
            "duration": 0.1875,
            "durationTicks": 192,
            "midi": 40,
            "name": "E2",
            "ticks": 45888,
            "time": 44.8125,
            "velocity": 0.28346456692913385
          },
          {
            "duration": 0.09375,
            "durationTicks": 96,
            "midi": 28,
            "name": "E1",
            "ticks": 45888,
            "time": 44.8125,
            "velocity": 0.3937007874015748
          },
          {
            "duration": 0.1875,
            "durationTicks": 192,
            "midi": 49,
            "name": "C#3",
            "ticks": 46080,
            "time": 45,
            "velocity": 0.28346456692913385
          },
          {
            "duration": 0.1875,
            "durationTicks": 192,
            "midi": 57,
            "name": "A3",
            "ticks": 46080,
            "time": 45,
            "velocity": 0.28346456692913385
          },
          {
            "duration": 0.1875,
            "durationTicks": 192,
            "midi": 36,
            "name": "C2",
            "ticks": 46080,
            "time": 45,
            "velocity": 0.28346456692913385
          },
          {
            "duration": 0.09375,
            "durationTicks": 96,
            "midi": 28,
            "name": "E1",
            "ticks": 46272,
            "time": 45.1875,
            "velocity": 0.3937007874015748
          },
          {
            "duration": 0.1875,
            "durationTicks": 192,
            "midi": 40,
            "name": "E2",
            "ticks": 46272,
            "time": 45.1875,
            "velocity": 0.28346456692913385
          },
          {
            "duration": 0.1875,
            "durationTicks": 192,
            "midi": 36,
            "name": "C2",
            "ticks": 46464,
            "time": 45.375,
            "velocity": 0.28346456692913385
          },
          {
            "duration": 0.1875,
            "durationTicks": 192,
            "midi": 40,
            "name": "E2",
            "ticks": 46656,
            "time": 45.5625,
            "velocity": 0.28346456692913385
          },
          {
            "duration": 0.09375,
            "durationTicks": 96,
            "midi": 28,
            "name": "E1",
            "ticks": 46656,
            "time": 45.5625,
            "velocity": 0.3937007874015748
          },
          {
            "duration": 0.1875,
            "durationTicks": 192,
            "midi": 36,
            "name": "C2",
            "ticks": 46848,
            "time": 45.75,
            "velocity": 0.28346456692913385
          },
          {
            "duration": 0.09375,
            "durationTicks": 96,
            "midi": 28,
            "name": "E1",
            "ticks": 47040,
            "time": 45.9375,
            "velocity": 0.3937007874015748
          },
          {
            "duration": 0.1875,
            "durationTicks": 192,
            "midi": 40,
            "name": "E2",
            "ticks": 47040,
            "time": 45.9375,
            "velocity": 0.28346456692913385
          },
          {
            "duration": 0.1875,
            "durationTicks": 192,
            "midi": 36,
            "name": "C2",
            "ticks": 47232,
            "time": 46.125,
            "velocity": 0.28346456692913385
          },
          {
            "duration": 0.1875,
            "durationTicks": 192,
            "midi": 40,
            "name": "E2",
            "ticks": 47424,
            "time": 46.3125,
            "velocity": 0.28346456692913385
          },
          {
            "duration": 0.09375,
            "durationTicks": 96,
            "midi": 28,
            "name": "E1",
            "ticks": 47424,
            "time": 46.3125,
            "velocity": 0.3937007874015748
          },
          {
            "duration": 0.1875,
            "durationTicks": 192,
            "midi": 36,
            "name": "C2",
            "ticks": 47616,
            "time": 46.5,
            "velocity": 0.28346456692913385
          },
          {
            "duration": 0.1875,
            "durationTicks": 192,
            "midi": 40,
            "name": "E2",
            "ticks": 47808,
            "time": 46.6875,
            "velocity": 0.28346456692913385
          },
          {
            "duration": 0.09375,
            "durationTicks": 96,
            "midi": 28,
            "name": "E1",
            "ticks": 47808,
            "time": 46.6875,
            "velocity": 0.3937007874015748
          },
          {
            "duration": 0.1875,
            "durationTicks": 192,
            "midi": 36,
            "name": "C2",
            "ticks": 48000,
            "time": 46.875,
            "velocity": 0.28346456692913385
          },
          {
            "duration": 0.09375,
            "durationTicks": 96,
            "midi": 28,
            "name": "E1",
            "ticks": 48192,
            "time": 47.0625,
            "velocity": 0.3937007874015748
          },
          {
            "duration": 0.1875,
            "durationTicks": 192,
            "midi": 40,
            "name": "E2",
            "ticks": 48192,
            "time": 47.0625,
            "velocity": 0.28346456692913385
          },
          {
            "duration": 0.1875,
            "durationTicks": 192,
            "midi": 36,
            "name": "C2",
            "ticks": 48384,
            "time": 47.25,
            "velocity": 0.28346456692913385
          },
          {
            "duration": 0.09375,
            "durationTicks": 96,
            "midi": 40,
            "name": "E2",
            "ticks": 48576,
            "time": 47.4375,
            "velocity": 0.28346456692913385
          },
          {
            "duration": 0.09375,
            "durationTicks": 96,
            "midi": 28,
            "name": "E1",
            "ticks": 48576,
            "time": 47.4375,
            "velocity": 0.3937007874015748
          },
          {
            "duration": 0.09375,
            "durationTicks": 96,
            "midi": 40,
            "name": "E2",
            "ticks": 48672,
            "time": 47.53125,
            "velocity": 0.28346456692913385
          },
          {
            "duration": 0.1875,
            "durationTicks": 192,
            "midi": 36,
            "name": "C2",
            "ticks": 48768,
            "time": 47.625,
            "velocity": 0.28346456692913385
          },
          {
            "duration": 0.1875,
            "durationTicks": 192,
            "midi": 40,
            "name": "E2",
            "ticks": 48960,
            "time": 47.8125,
            "velocity": 0.28346456692913385
          },
          {
            "duration": 0.09375,
            "durationTicks": 96,
            "midi": 28,
            "name": "E1",
            "ticks": 48960,
            "time": 47.8125,
            "velocity": 0.3937007874015748
          },
          {
            "duration": 0.1875,
            "durationTicks": 192,
            "midi": 36,
            "name": "C2",
            "ticks": 49152,
            "time": 48,
            "velocity": 0.28346456692913385
          },
          {
            "duration": 0.09375,
            "durationTicks": 96,
            "midi": 28,
            "name": "E1",
            "ticks": 49344,
            "time": 48.1875,
            "velocity": 0.3937007874015748
          },
          {
            "duration": 0.1875,
            "durationTicks": 192,
            "midi": 40,
            "name": "E2",
            "ticks": 49344,
            "time": 48.1875,
            "velocity": 0.28346456692913385
          },
          {
            "duration": 0.1875,
            "durationTicks": 192,
            "midi": 36,
            "name": "C2",
            "ticks": 49536,
            "time": 48.375,
            "velocity": 0.28346456692913385
          },
          {
            "duration": 0.1875,
            "durationTicks": 192,
            "midi": 40,
            "name": "E2",
            "ticks": 49728,
            "time": 48.5625,
            "velocity": 0.28346456692913385
          },
          {
            "duration": 0.09375,
            "durationTicks": 96,
            "midi": 28,
            "name": "E1",
            "ticks": 49728,
            "time": 48.5625,
            "velocity": 0.3937007874015748
          },
          {
            "duration": 0.1875,
            "durationTicks": 192,
            "midi": 36,
            "name": "C2",
            "ticks": 49920,
            "time": 48.75,
            "velocity": 0.28346456692913385
          },
          {
            "duration": 0.09375,
            "durationTicks": 96,
            "midi": 28,
            "name": "E1",
            "ticks": 50112,
            "time": 48.9375,
            "velocity": 0.3937007874015748
          },
          {
            "duration": 0.1875,
            "durationTicks": 192,
            "midi": 40,
            "name": "E2",
            "ticks": 50112,
            "time": 48.9375,
            "velocity": 0.28346456692913385
          },
          {
            "duration": 0.1875,
            "durationTicks": 192,
            "midi": 36,
            "name": "C2",
            "ticks": 50304,
            "time": 49.125,
            "velocity": 0.28346456692913385
          },
          {
            "duration": 0.1875,
            "durationTicks": 192,
            "midi": 40,
            "name": "E2",
            "ticks": 50496,
            "time": 49.3125,
            "velocity": 0.28346456692913385
          },
          {
            "duration": 0.09375,
            "durationTicks": 96,
            "midi": 28,
            "name": "E1",
            "ticks": 50496,
            "time": 49.3125,
            "velocity": 0.3937007874015748
          },
          {
            "duration": 0.1875,
            "durationTicks": 192,
            "midi": 36,
            "name": "C2",
            "ticks": 50688,
            "time": 49.5,
            "velocity": 0.28346456692913385
          },
          {
            "duration": 0.09375,
            "durationTicks": 96,
            "midi": 28,
            "name": "E1",
            "ticks": 50880,
            "time": 49.6875,
            "velocity": 0.3937007874015748
          },
          {
            "duration": 0.1875,
            "durationTicks": 192,
            "midi": 40,
            "name": "E2",
            "ticks": 50880,
            "time": 49.6875,
            "velocity": 0.28346456692913385
          },
          {
            "duration": 0.1875,
            "durationTicks": 192,
            "midi": 36,
            "name": "C2",
            "ticks": 51072,
            "time": 49.875,
            "velocity": 0.28346456692913385
          },
          {
            "duration": 0.09375,
            "durationTicks": 96,
            "midi": 40,
            "name": "E2",
            "ticks": 51264,
            "time": 50.0625,
            "velocity": 0.28346456692913385
          },
          {
            "duration": 0.09375,
            "durationTicks": 96,
            "midi": 28,
            "name": "E1",
            "ticks": 51264,
            "time": 50.0625,
            "velocity": 0.3937007874015748
          },
          {
            "duration": 0.09375,
            "durationTicks": 96,
            "midi": 40,
            "name": "E2",
            "ticks": 51360,
            "time": 50.15625,
            "velocity": 0.28346456692913385
          },
          {
            "duration": 0.09375,
            "durationTicks": 96,
            "midi": 36,
            "name": "C2",
            "ticks": 51456,
            "time": 50.25,
            "velocity": 0.28346456692913385
          },
          {
            "duration": 0.09375,
            "durationTicks": 96,
            "midi": 40,
            "name": "E2",
            "ticks": 51456,
            "time": 50.25,
            "velocity": 0.28346456692913385
          },
          {
            "duration": 0.09375,
            "durationTicks": 96,
            "midi": 40,
            "name": "E2",
            "ticks": 51552,
            "time": 50.34375,
            "velocity": 0.28346456692913385
          },
          {
            "duration": 0.09375,
            "durationTicks": 96,
            "midi": 40,
            "name": "E2",
            "ticks": 51648,
            "time": 50.4375,
            "velocity": 0.28346456692913385
          },
          {
            "duration": 0.09375,
            "durationTicks": 96,
            "midi": 28,
            "name": "E1",
            "ticks": 51648,
            "time": 50.4375,
            "velocity": 0.3937007874015748
          },
          {
            "duration": 0.09375,
            "durationTicks": 96,
            "midi": 40,
            "name": "E2",
            "ticks": 51744,
            "time": 50.53125,
            "velocity": 0.28346456692913385
          },
          {
            "duration": 0.1875,
            "durationTicks": 192,
            "midi": 40,
            "name": "E2",
            "ticks": 51840,
            "time": 50.625,
            "velocity": 0.28346456692913385
          },
          {
            "duration": 0.1875,
            "durationTicks": 192,
            "midi": 36,
            "name": "C2",
            "ticks": 51840,
            "time": 50.625,
            "velocity": 0.28346456692913385
          },
          {
            "duration": 0.09375,
            "durationTicks": 96,
            "midi": 28,
            "name": "E1",
            "ticks": 52032,
            "time": 50.8125,
            "velocity": 0.3937007874015748
          },
          {
            "duration": 0.09375,
            "durationTicks": 96,
            "midi": 40,
            "name": "E2",
            "ticks": 52032,
            "time": 50.8125,
            "velocity": 0.28346456692913385
          },
          {
            "duration": 0.09375,
            "durationTicks": 96,
            "midi": 40,
            "name": "E2",
            "ticks": 52128,
            "time": 50.90625,
            "velocity": 0.28346456692913385
          }
        ],
        "endOfTrackTicks": 52224
      },
      {
        "channel": 0,
        "controlChanges": {},
        "pitchBends": [],
        "instrument": {
          "family": "synth lead",
          "number": 82,
          "name": "lead 3 (calliope)"
        },
        "name": "8-Bit Sine",
        "notes": [
          {
            "duration": 0.09375,
            "durationTicks": 96,
            "midi": 38,
            "name": "D2",
            "ticks": 2496,
            "time": 2.4375,
            "velocity": 0.6692913385826772
          },
          {
            "duration": 0.09375,
            "durationTicks": 96,
            "midi": 26,
            "name": "D1",
            "ticks": 2496,
            "time": 2.4375,
            "velocity": 0.4645669291338583
          },
          {
            "duration": 0.09375,
            "durationTicks": 96,
            "midi": 40,
            "name": "E2",
            "ticks": 2688,
            "time": 2.625,
            "velocity": 0.6692913385826772
          },
          {
            "duration": 0.09375,
            "durationTicks": 96,
            "midi": 28,
            "name": "E1",
            "ticks": 2688,
            "time": 2.625,
            "velocity": 0.4645669291338583
          },
          {
            "duration": 0.09375,
            "durationTicks": 96,
            "midi": 30,
            "name": "F#1",
            "ticks": 2880,
            "time": 2.8125,
            "velocity": 0.4645669291338583
          },
          {
            "duration": 0.09375,
            "durationTicks": 96,
            "midi": 42,
            "name": "F#2",
            "ticks": 2880,
            "time": 2.8125,
            "velocity": 0.6692913385826772
          },
          {
            "duration": 0.28125,
            "durationTicks": 288,
            "midi": 31,
            "name": "G1",
            "ticks": 3072,
            "time": 3,
            "velocity": 0.4645669291338583
          },
          {
            "duration": 0.28125,
            "durationTicks": 288,
            "midi": 43,
            "name": "G2",
            "ticks": 3072,
            "time": 3,
            "velocity": 0.6692913385826772
          },
          {
            "duration": 0.28125,
            "durationTicks": 288,
            "midi": 26,
            "name": "D1",
            "ticks": 3456,
            "time": 3.375,
            "velocity": 0.4645669291338583
          },
          {
            "duration": 0.1875,
            "durationTicks": 192,
            "midi": 38,
            "name": "D2",
            "ticks": 3456,
            "time": 3.375,
            "velocity": 0.6692913385826772
          },
          {
            "duration": 0.09375,
            "durationTicks": 96,
            "midi": 31,
            "name": "G1",
            "ticks": 3744,
            "time": 3.65625,
            "velocity": 0.4645669291338583
          },
          {
            "duration": 0.09375,
            "durationTicks": 96,
            "midi": 43,
            "name": "G2",
            "ticks": 3744,
            "time": 3.65625,
            "velocity": 0.6692913385826772
          },
          {
            "duration": 0.1875,
            "durationTicks": 192,
            "midi": 31,
            "name": "G1",
            "ticks": 3840,
            "time": 3.75,
            "velocity": 0.4645669291338583
          },
          {
            "duration": 0.09375,
            "durationTicks": 96,
            "midi": 43,
            "name": "G2",
            "ticks": 3840,
            "time": 3.75,
            "velocity": 0.6692913385826772
          },
          {
            "duration": 0.1875,
            "durationTicks": 192,
            "midi": 31,
            "name": "G1",
            "ticks": 4032,
            "time": 3.9375,
            "velocity": 0.4645669291338583
          },
          {
            "duration": 0.09375,
            "durationTicks": 96,
            "midi": 43,
            "name": "G2",
            "ticks": 4032,
            "time": 3.9375,
            "velocity": 0.6692913385826772
          },
          {
            "duration": 0.1875,
            "durationTicks": 192,
            "midi": 33,
            "name": "A1",
            "ticks": 4224,
            "time": 4.125,
            "velocity": 0.4645669291338583
          },
          {
            "duration": 0.09375,
            "durationTicks": 96,
            "midi": 45,
            "name": "A2",
            "ticks": 4224,
            "time": 4.125,
            "velocity": 0.6692913385826772
          },
          {
            "duration": 0.1875,
            "durationTicks": 192,
            "midi": 35,
            "name": "B1",
            "ticks": 4416,
            "time": 4.3125,
            "velocity": 0.4645669291338583
          },
          {
            "duration": 0.09375,
            "durationTicks": 96,
            "midi": 47,
            "name": "B2",
            "ticks": 4416,
            "time": 4.3125,
            "velocity": 0.6692913385826772
          },
          {
            "duration": 0.28125,
            "durationTicks": 288,
            "midi": 48,
            "name": "C3",
            "ticks": 4608,
            "time": 4.5,
            "velocity": 0.6692913385826772
          },
          {
            "duration": 0.28125,
            "durationTicks": 288,
            "midi": 36,
            "name": "C2",
            "ticks": 4608,
            "time": 4.5,
            "velocity": 0.4645669291338583
          },
          {
            "duration": 0.1875,
            "durationTicks": 192,
            "midi": 43,
            "name": "G2",
            "ticks": 4992,
            "time": 4.875,
            "velocity": 0.6692913385826772
          },
          {
            "duration": 0.28125,
            "durationTicks": 288,
            "midi": 31,
            "name": "G1",
            "ticks": 4992,
            "time": 4.875,
            "velocity": 0.4645669291338583
          },
          {
            "duration": 0.09375,
            "durationTicks": 96,
            "midi": 36,
            "name": "C2",
            "ticks": 5280,
            "time": 5.15625,
            "velocity": 0.4645669291338583
          },
          {
            "duration": 0.09375,
            "durationTicks": 96,
            "midi": 48,
            "name": "C3",
            "ticks": 5280,
            "time": 5.15625,
            "velocity": 0.6692913385826772
          },
          {
            "duration": 0.09375,
            "durationTicks": 96,
            "midi": 48,
            "name": "C3",
            "ticks": 5376,
            "time": 5.25,
            "velocity": 0.6692913385826772
          },
          {
            "duration": 0.1875,
            "durationTicks": 192,
            "midi": 36,
            "name": "C2",
            "ticks": 5376,
            "time": 5.25,
            "velocity": 0.4645669291338583
          },
          {
            "duration": 0.09375,
            "durationTicks": 96,
            "midi": 48,
            "name": "C3",
            "ticks": 5568,
            "time": 5.4375,
            "velocity": 0.6692913385826772
          },
          {
            "duration": 0.1875,
            "durationTicks": 192,
            "midi": 36,
            "name": "C2",
            "ticks": 5568,
            "time": 5.4375,
            "velocity": 0.4645669291338583
          },
          {
            "duration": 0.1875,
            "durationTicks": 192,
            "midi": 35,
            "name": "B1",
            "ticks": 5760,
            "time": 5.625,
            "velocity": 0.4645669291338583
          },
          {
            "duration": 0.09375,
            "durationTicks": 96,
            "midi": 47,
            "name": "B2",
            "ticks": 5760,
            "time": 5.625,
            "velocity": 0.6692913385826772
          },
          {
            "duration": 0.1875,
            "durationTicks": 192,
            "midi": 33,
            "name": "A1",
            "ticks": 5952,
            "time": 5.8125,
            "velocity": 0.4645669291338583
          },
          {
            "duration": 0.09375,
            "durationTicks": 96,
            "midi": 45,
            "name": "A2",
            "ticks": 5952,
            "time": 5.8125,
            "velocity": 0.6692913385826772
          },
          {
            "duration": 0.28125,
            "durationTicks": 288,
            "midi": 31,
            "name": "G1",
            "ticks": 6144,
            "time": 6,
            "velocity": 0.4645669291338583
          },
          {
            "duration": 0.28125,
            "durationTicks": 288,
            "midi": 43,
            "name": "G2",
            "ticks": 6144,
            "time": 6,
            "velocity": 0.6692913385826772
          },
          {
            "duration": 0.28125,
            "durationTicks": 288,
            "midi": 26,
            "name": "D1",
            "ticks": 6528,
            "time": 6.375,
            "velocity": 0.4645669291338583
          },
          {
            "duration": 0.1875,
            "durationTicks": 192,
            "midi": 38,
            "name": "D2",
            "ticks": 6528,
            "time": 6.375,
            "velocity": 0.6692913385826772
          },
          {
            "duration": 0.09375,
            "durationTicks": 96,
            "midi": 43,
            "name": "G2",
            "ticks": 6816,
            "time": 6.65625,
            "velocity": 0.6692913385826772
          },
          {
            "duration": 0.09375,
            "durationTicks": 96,
            "midi": 31,
            "name": "G1",
            "ticks": 6816,
            "time": 6.65625,
            "velocity": 0.4645669291338583
          },
          {
            "duration": 0.09375,
            "durationTicks": 96,
            "midi": 43,
            "name": "G2",
            "ticks": 6912,
            "time": 6.75,
            "velocity": 0.6692913385826772
          },
          {
            "duration": 0.1875,
            "durationTicks": 192,
            "midi": 31,
            "name": "G1",
            "ticks": 6912,
            "time": 6.75,
            "velocity": 0.4645669291338583
          },
          {
            "duration": 0.09375,
            "durationTicks": 96,
            "midi": 43,
            "name": "G2",
            "ticks": 7104,
            "time": 6.9375,
            "velocity": 0.6692913385826772
          },
          {
            "duration": 0.1875,
            "durationTicks": 192,
            "midi": 31,
            "name": "G1",
            "ticks": 7104,
            "time": 6.9375,
            "velocity": 0.4645669291338583
          },
          {
            "duration": 0.1875,
            "durationTicks": 192,
            "midi": 33,
            "name": "A1",
            "ticks": 7296,
            "time": 7.125,
            "velocity": 0.4645669291338583
          },
          {
            "duration": 0.09375,
            "durationTicks": 96,
            "midi": 45,
            "name": "A2",
            "ticks": 7296,
            "time": 7.125,
            "velocity": 0.6692913385826772
          },
          {
            "duration": 0.1875,
            "durationTicks": 192,
            "midi": 35,
            "name": "B1",
            "ticks": 7488,
            "time": 7.3125,
            "velocity": 0.4645669291338583
          },
          {
            "duration": 0.09375,
            "durationTicks": 96,
            "midi": 47,
            "name": "B2",
            "ticks": 7488,
            "time": 7.3125,
            "velocity": 0.6692913385826772
          },
          {
            "duration": 0.28125,
            "durationTicks": 288,
            "midi": 38,
            "name": "D2",
            "ticks": 7680,
            "time": 7.5,
            "velocity": 0.4645669291338583
          },
          {
            "duration": 0.28125,
            "durationTicks": 288,
            "midi": 50,
            "name": "D3",
            "ticks": 7680,
            "time": 7.5,
            "velocity": 0.6692913385826772
          },
          {
            "duration": 0.28125,
            "durationTicks": 288,
            "midi": 33,
            "name": "A1",
            "ticks": 8064,
            "time": 7.875,
            "velocity": 0.4645669291338583
          },
          {
            "duration": 0.1875,
            "durationTicks": 192,
            "midi": 45,
            "name": "A2",
            "ticks": 8064,
            "time": 7.875,
            "velocity": 0.6692913385826772
          },
          {
            "duration": 0.09375,
            "durationTicks": 96,
            "midi": 50,
            "name": "D3",
            "ticks": 8352,
            "time": 8.15625,
            "velocity": 0.6692913385826772
          },
          {
            "duration": 0.09375,
            "durationTicks": 96,
            "midi": 38,
            "name": "D2",
            "ticks": 8352,
            "time": 8.15625,
            "velocity": 0.4645669291338583
          },
          {
            "duration": 0.09375,
            "durationTicks": 96,
            "midi": 42,
            "name": "F#2",
            "ticks": 8448,
            "time": 8.25,
            "velocity": 0.6692913385826772
          },
          {
            "duration": 0.1875,
            "durationTicks": 192,
            "midi": 42,
            "name": "F#2",
            "ticks": 8448,
            "time": 8.25,
            "velocity": 0.4645669291338583
          },
          {
            "duration": 0.09375,
            "durationTicks": 96,
            "midi": 42,
            "name": "F#2",
            "ticks": 8640,
            "time": 8.4375,
            "velocity": 0.6692913385826772
          },
          {
            "duration": 0.1875,
            "durationTicks": 192,
            "midi": 42,
            "name": "F#2",
            "ticks": 8640,
            "time": 8.4375,
            "velocity": 0.4645669291338583
          },
          {
            "duration": 0.09375,
            "durationTicks": 96,
            "midi": 40,
            "name": "E2",
            "ticks": 8832,
            "time": 8.625,
            "velocity": 0.4645669291338583
          },
          {
            "duration": 0.1875,
            "durationTicks": 192,
            "midi": 40,
            "name": "E2",
            "ticks": 8832,
            "time": 8.625,
            "velocity": 0.6692913385826772
          },
          {
            "duration": 0.09375,
            "durationTicks": 96,
            "midi": 38,
            "name": "D2",
            "ticks": 9024,
            "time": 8.8125,
            "velocity": 0.4645669291338583
          },
          {
            "duration": 0.1875,
            "durationTicks": 192,
            "midi": 38,
            "name": "D2",
            "ticks": 9024,
            "time": 8.8125,
            "velocity": 0.6692913385826772
          },
          {
            "duration": 0.28125,
            "durationTicks": 288,
            "midi": 31,
            "name": "G1",
            "ticks": 9216,
            "time": 9,
            "velocity": 0.4645669291338583
          },
          {
            "duration": 0.28125,
            "durationTicks": 288,
            "midi": 43,
            "name": "G2",
            "ticks": 9216,
            "time": 9,
            "velocity": 0.6692913385826772
          },
          {
            "duration": 0.1875,
            "durationTicks": 192,
            "midi": 38,
            "name": "D2",
            "ticks": 9600,
            "time": 9.375,
            "velocity": 0.6692913385826772
          },
          {
            "duration": 0.28125,
            "durationTicks": 288,
            "midi": 26,
            "name": "D1",
            "ticks": 9600,
            "time": 9.375,
            "velocity": 0.4645669291338583
          },
          {
            "duration": 0.09375,
            "durationTicks": 96,
            "midi": 31,
            "name": "G1",
            "ticks": 9888,
            "time": 9.65625,
            "velocity": 0.4645669291338583
          },
          {
            "duration": 0.09375,
            "durationTicks": 96,
            "midi": 43,
            "name": "G2",
            "ticks": 9888,
            "time": 9.65625,
            "velocity": 0.6692913385826772
          },
          {
            "duration": 0.1875,
            "durationTicks": 192,
            "midi": 31,
            "name": "G1",
            "ticks": 9984,
            "time": 9.75,
            "velocity": 0.4645669291338583
          },
          {
            "duration": 0.09375,
            "durationTicks": 96,
            "midi": 43,
            "name": "G2",
            "ticks": 9984,
            "time": 9.75,
            "velocity": 0.6692913385826772
          },
          {
            "duration": 0.1875,
            "durationTicks": 192,
            "midi": 31,
            "name": "G1",
            "ticks": 10176,
            "time": 9.9375,
            "velocity": 0.4645669291338583
          },
          {
            "duration": 0.09375,
            "durationTicks": 96,
            "midi": 43,
            "name": "G2",
            "ticks": 10176,
            "time": 9.9375,
            "velocity": 0.6692913385826772
          },
          {
            "duration": 0.1875,
            "durationTicks": 192,
            "midi": 33,
            "name": "A1",
            "ticks": 10368,
            "time": 10.125,
            "velocity": 0.4645669291338583
          },
          {
            "duration": 0.09375,
            "durationTicks": 96,
            "midi": 45,
            "name": "A2",
            "ticks": 10368,
            "time": 10.125,
            "velocity": 0.6692913385826772
          },
          {
            "duration": 0.09375,
            "durationTicks": 96,
            "midi": 47,
            "name": "B2",
            "ticks": 10560,
            "time": 10.3125,
            "velocity": 0.6692913385826772
          },
          {
            "duration": 0.1875,
            "durationTicks": 192,
            "midi": 35,
            "name": "B1",
            "ticks": 10560,
            "time": 10.3125,
            "velocity": 0.4645669291338583
          },
          {
            "duration": 0.28125,
            "durationTicks": 288,
            "midi": 48,
            "name": "C3",
            "ticks": 10752,
            "time": 10.5,
            "velocity": 0.6692913385826772
          },
          {
            "duration": 0.28125,
            "durationTicks": 288,
            "midi": 36,
            "name": "C2",
            "ticks": 10752,
            "time": 10.5,
            "velocity": 0.4645669291338583
          },
          {
            "duration": 0.28125,
            "durationTicks": 288,
            "midi": 31,
            "name": "G1",
            "ticks": 11136,
            "time": 10.875,
            "velocity": 0.4645669291338583
          },
          {
            "duration": 0.1875,
            "durationTicks": 192,
            "midi": 43,
            "name": "G2",
            "ticks": 11136,
            "time": 10.875,
            "velocity": 0.6692913385826772
          },
          {
            "duration": 0.09375,
            "durationTicks": 96,
            "midi": 31,
            "name": "G1",
            "ticks": 11424,
            "time": 11.15625,
            "velocity": 0.4645669291338583
          },
          {
            "duration": 0.09375,
            "durationTicks": 96,
            "midi": 43,
            "name": "G2",
            "ticks": 11424,
            "time": 11.15625,
            "velocity": 0.6692913385826772
          },
          {
            "duration": 0.09375,
            "durationTicks": 96,
            "midi": 48,
            "name": "C3",
            "ticks": 11520,
            "time": 11.25,
            "velocity": 0.6692913385826772
          },
          {
            "duration": 0.1875,
            "durationTicks": 192,
            "midi": 36,
            "name": "C2",
            "ticks": 11520,
            "time": 11.25,
            "velocity": 0.4645669291338583
          },
          {
            "duration": 0.1875,
            "durationTicks": 192,
            "midi": 36,
            "name": "C2",
            "ticks": 11712,
            "time": 11.4375,
            "velocity": 0.4645669291338583
          },
          {
            "duration": 0.09375,
            "durationTicks": 96,
            "midi": 48,
            "name": "C3",
            "ticks": 11712,
            "time": 11.4375,
            "velocity": 0.6692913385826772
          },
          {
            "duration": 0.09375,
            "durationTicks": 96,
            "midi": 43,
            "name": "G2",
            "ticks": 11904,
            "time": 11.625,
            "velocity": 0.6692913385826772
          },
          {
            "duration": 0.1875,
            "durationTicks": 192,
            "midi": 31,
            "name": "G1",
            "ticks": 11904,
            "time": 11.625,
            "velocity": 0.4645669291338583
          },
          {
            "duration": 0.09375,
            "durationTicks": 96,
            "midi": 48,
            "name": "C3",
            "ticks": 12096,
            "time": 11.8125,
            "velocity": 0.6692913385826772
          },
          {
            "duration": 0.1875,
            "durationTicks": 192,
            "midi": 36,
            "name": "C2",
            "ticks": 12096,
            "time": 11.8125,
            "velocity": 0.4645669291338583
          },
          {
            "duration": 0.28125,
            "durationTicks": 288,
            "midi": 31,
            "name": "G1",
            "ticks": 12288,
            "time": 12,
            "velocity": 0.4645669291338583
          },
          {
            "duration": 0.28125,
            "durationTicks": 288,
            "midi": 43,
            "name": "G2",
            "ticks": 12288,
            "time": 12,
            "velocity": 0.6692913385826772
          },
          {
            "duration": 0.28125,
            "durationTicks": 288,
            "midi": 35,
            "name": "B1",
            "ticks": 12672,
            "time": 12.375,
            "velocity": 0.4645669291338583
          },
          {
            "duration": 0.1875,
            "durationTicks": 192,
            "midi": 47,
            "name": "B2",
            "ticks": 12672,
            "time": 12.375,
            "velocity": 0.6692913385826772
          },
          {
            "duration": 0.09375,
            "durationTicks": 96,
            "midi": 48,
            "name": "C3",
            "ticks": 12960,
            "time": 12.65625,
            "velocity": 0.6692913385826772
          },
          {
            "duration": 0.09375,
            "durationTicks": 96,
            "midi": 36,
            "name": "C2",
            "ticks": 12960,
            "time": 12.65625,
            "velocity": 0.4645669291338583
          },
          {
            "duration": 0.1875,
            "durationTicks": 192,
            "midi": 38,
            "name": "D2",
            "ticks": 13056,
            "time": 12.75,
            "velocity": 0.4645669291338583
          },
          {
            "duration": 0.09375,
            "durationTicks": 96,
            "midi": 50,
            "name": "D3",
            "ticks": 13056,
            "time": 12.75,
            "velocity": 0.6692913385826772
          },
          {
            "duration": 0.09375,
            "durationTicks": 96,
            "midi": 38,
            "name": "D2",
            "ticks": 13248,
            "time": 12.9375,
            "velocity": 0.6692913385826772
          },
          {
            "duration": 0.1875,
            "durationTicks": 192,
            "midi": 26,
            "name": "D1",
            "ticks": 13248,
            "time": 12.9375,
            "velocity": 0.4645669291338583
          },
          {
            "duration": 0.09375,
            "durationTicks": 96,
            "midi": 45,
            "name": "A2",
            "ticks": 13440,
            "time": 13.125,
            "velocity": 0.6692913385826772
          },
          {
            "duration": 0.1875,
            "durationTicks": 192,
            "midi": 33,
            "name": "A1",
            "ticks": 13440,
            "time": 13.125,
            "velocity": 0.4645669291338583
          },
          {
            "duration": 0.09375,
            "durationTicks": 96,
            "midi": 42,
            "name": "F#2",
            "ticks": 13632,
            "time": 13.3125,
            "velocity": 0.6692913385826772
          },
          {
            "duration": 0.1875,
            "durationTicks": 192,
            "midi": 30,
            "name": "F#1",
            "ticks": 13632,
            "time": 13.3125,
            "velocity": 0.4645669291338583
          },
          {
            "duration": 0.09375,
            "durationTicks": 96,
            "midi": 43,
            "name": "G2",
            "ticks": 13824,
            "time": 13.5,
            "velocity": 0.6692913385826772
          },
          {
            "duration": 0.1875,
            "durationTicks": 192,
            "midi": 43,
            "name": "G2",
            "ticks": 13824,
            "time": 13.5,
            "velocity": 0.4645669291338583
          },
          {
            "duration": 0.09375,
            "durationTicks": 96,
            "midi": 40,
            "name": "E2",
            "ticks": 14016,
            "time": 13.6875,
            "velocity": 0.6692913385826772
          },
          {
            "duration": 0.1875,
            "durationTicks": 192,
            "midi": 40,
            "name": "E2",
            "ticks": 14016,
            "time": 13.6875,
            "velocity": 0.4645669291338583
          },
          {
            "duration": 0.09375,
            "durationTicks": 96,
            "midi": 38,
            "name": "D2",
            "ticks": 14208,
            "time": 13.875,
            "velocity": 0.6692913385826772
          },
          {
            "duration": 0.1875,
            "durationTicks": 192,
            "midi": 38,
            "name": "D2",
            "ticks": 14208,
            "time": 13.875,
            "velocity": 0.4645669291338583
          },
          {
            "duration": 0.09375,
            "durationTicks": 96,
            "midi": 35,
            "name": "B1",
            "ticks": 14400,
            "time": 14.0625,
            "velocity": 0.6692913385826772
          },
          {
            "duration": 0.1875,
            "durationTicks": 192,
            "midi": 35,
            "name": "B1",
            "ticks": 14400,
            "time": 14.0625,
            "velocity": 0.4645669291338583
          },
          {
            "duration": 0.09375,
            "durationTicks": 96,
            "midi": 31,
            "name": "G1",
            "ticks": 14592,
            "time": 14.25,
            "velocity": 0.6692913385826772
          },
          {
            "duration": 0.1875,
            "durationTicks": 192,
            "midi": 31,
            "name": "G1",
            "ticks": 14592,
            "time": 14.25,
            "velocity": 0.4645669291338583
          },
          {
            "duration": 0.09375,
            "durationTicks": 96,
            "midi": 33,
            "name": "A1",
            "ticks": 14784,
            "time": 14.4375,
            "velocity": 0.6692913385826772
          },
          {
            "duration": 0.1875,
            "durationTicks": 192,
            "midi": 33,
            "name": "A1",
            "ticks": 14784,
            "time": 14.4375,
            "velocity": 0.4645669291338583
          },
          {
            "duration": 0.09375,
            "durationTicks": 96,
            "midi": 35,
            "name": "B1",
            "ticks": 14976,
            "time": 14.625,
            "velocity": 0.4645669291338583
          },
          {
            "duration": 0.1875,
            "durationTicks": 192,
            "midi": 35,
            "name": "B1",
            "ticks": 14976,
            "time": 14.625,
            "velocity": 0.6692913385826772
          },
          {
            "duration": 0.09375,
            "durationTicks": 96,
            "midi": 38,
            "name": "D2",
            "ticks": 15168,
            "time": 14.8125,
            "velocity": 0.6692913385826772
          },
          {
            "duration": 0.1875,
            "durationTicks": 192,
            "midi": 38,
            "name": "D2",
            "ticks": 15168,
            "time": 14.8125,
            "velocity": 0.4645669291338583
          },
          {
            "duration": 0.28125,
            "durationTicks": 288,
            "midi": 31,
            "name": "G1",
            "ticks": 15360,
            "time": 15,
            "velocity": 0.4645669291338583
          },
          {
            "duration": 0.28125,
            "durationTicks": 288,
            "midi": 43,
            "name": "G2",
            "ticks": 15360,
            "time": 15,
            "velocity": 0.6692913385826772
          },
          {
            "duration": 0.1875,
            "durationTicks": 192,
            "midi": 38,
            "name": "D2",
            "ticks": 15744,
            "time": 15.375,
            "velocity": 0.6692913385826772
          },
          {
            "duration": 0.28125,
            "durationTicks": 288,
            "midi": 26,
            "name": "D1",
            "ticks": 15744,
            "time": 15.375,
            "velocity": 0.4645669291338583
          },
          {
            "duration": 0.09375,
            "durationTicks": 96,
            "midi": 43,
            "name": "G2",
            "ticks": 16032,
            "time": 15.65625,
            "velocity": 0.6692913385826772
          },
          {
            "duration": 0.09375,
            "durationTicks": 96,
            "midi": 31,
            "name": "G1",
            "ticks": 16032,
            "time": 15.65625,
            "velocity": 0.4645669291338583
          },
          {
            "duration": 0.1875,
            "durationTicks": 192,
            "midi": 31,
            "name": "G1",
            "ticks": 16128,
            "time": 15.75,
            "velocity": 0.4645669291338583
          },
          {
            "duration": 0.09375,
            "durationTicks": 96,
            "midi": 43,
            "name": "G2",
            "ticks": 16128,
            "time": 15.75,
            "velocity": 0.6692913385826772
          },
          {
            "duration": 0.1875,
            "durationTicks": 192,
            "midi": 31,
            "name": "G1",
            "ticks": 16320,
            "time": 15.9375,
            "velocity": 0.4645669291338583
          },
          {
            "duration": 0.09375,
            "durationTicks": 96,
            "midi": 43,
            "name": "G2",
            "ticks": 16320,
            "time": 15.9375,
            "velocity": 0.6692913385826772
          },
          {
            "duration": 0.09375,
            "durationTicks": 96,
            "midi": 45,
            "name": "A2",
            "ticks": 16512,
            "time": 16.125,
            "velocity": 0.6692913385826772
          },
          {
            "duration": 0.1875,
            "durationTicks": 192,
            "midi": 33,
            "name": "A1",
            "ticks": 16512,
            "time": 16.125,
            "velocity": 0.4645669291338583
          },
          {
            "duration": 0.09375,
            "durationTicks": 96,
            "midi": 47,
            "name": "B2",
            "ticks": 16704,
            "time": 16.3125,
            "velocity": 0.6692913385826772
          },
          {
            "duration": 0.1875,
            "durationTicks": 192,
            "midi": 35,
            "name": "B1",
            "ticks": 16704,
            "time": 16.3125,
            "velocity": 0.4645669291338583
          },
          {
            "duration": 0.28125,
            "durationTicks": 288,
            "midi": 48,
            "name": "C3",
            "ticks": 16896,
            "time": 16.5,
            "velocity": 0.6692913385826772
          },
          {
            "duration": 0.28125,
            "durationTicks": 288,
            "midi": 36,
            "name": "C2",
            "ticks": 16896,
            "time": 16.5,
            "velocity": 0.4645669291338583
          },
          {
            "duration": 0.1875,
            "durationTicks": 192,
            "midi": 43,
            "name": "G2",
            "ticks": 17280,
            "time": 16.875,
            "velocity": 0.6692913385826772
          },
          {
            "duration": 0.28125,
            "durationTicks": 288,
            "midi": 31,
            "name": "G1",
            "ticks": 17280,
            "time": 16.875,
            "velocity": 0.4645669291338583
          },
          {
            "duration": 0.09375,
            "durationTicks": 96,
            "midi": 36,
            "name": "C2",
            "ticks": 17568,
            "time": 17.15625,
            "velocity": 0.4645669291338583
          },
          {
            "duration": 0.09375,
            "durationTicks": 96,
            "midi": 48,
            "name": "C3",
            "ticks": 17568,
            "time": 17.15625,
            "velocity": 0.6692913385826772
          },
          {
            "duration": 0.1875,
            "durationTicks": 192,
            "midi": 36,
            "name": "C2",
            "ticks": 17664,
            "time": 17.25,
            "velocity": 0.4645669291338583
          },
          {
            "duration": 0.09375,
            "durationTicks": 96,
            "midi": 48,
            "name": "C3",
            "ticks": 17664,
            "time": 17.25,
            "velocity": 0.6692913385826772
          },
          {
            "duration": 0.1875,
            "durationTicks": 192,
            "midi": 36,
            "name": "C2",
            "ticks": 17856,
            "time": 17.4375,
            "velocity": 0.4645669291338583
          },
          {
            "duration": 0.09375,
            "durationTicks": 96,
            "midi": 48,
            "name": "C3",
            "ticks": 17856,
            "time": 17.4375,
            "velocity": 0.6692913385826772
          },
          {
            "duration": 0.09375,
            "durationTicks": 96,
            "midi": 47,
            "name": "B2",
            "ticks": 18048,
            "time": 17.625,
            "velocity": 0.6692913385826772
          },
          {
            "duration": 0.1875,
            "durationTicks": 192,
            "midi": 35,
            "name": "B1",
            "ticks": 18048,
            "time": 17.625,
            "velocity": 0.4645669291338583
          },
          {
            "duration": 0.1875,
            "durationTicks": 192,
            "midi": 33,
            "name": "A1",
            "ticks": 18240,
            "time": 17.8125,
            "velocity": 0.4645669291338583
          },
          {
            "duration": 0.09375,
            "durationTicks": 96,
            "midi": 45,
            "name": "A2",
            "ticks": 18240,
            "time": 17.8125,
            "velocity": 0.6692913385826772
          },
          {
            "duration": 0.28125,
            "durationTicks": 288,
            "midi": 43,
            "name": "G2",
            "ticks": 18432,
            "time": 18,
            "velocity": 0.6692913385826772
          },
          {
            "duration": 0.28125,
            "durationTicks": 288,
            "midi": 31,
            "name": "G1",
            "ticks": 18432,
            "time": 18,
            "velocity": 0.4645669291338583
          },
          {
            "duration": 0.1875,
            "durationTicks": 192,
            "midi": 38,
            "name": "D2",
            "ticks": 18816,
            "time": 18.375,
            "velocity": 0.6692913385826772
          },
          {
            "duration": 0.28125,
            "durationTicks": 288,
            "midi": 26,
            "name": "D1",
            "ticks": 18816,
            "time": 18.375,
            "velocity": 0.4645669291338583
          },
          {
            "duration": 0.09375,
            "durationTicks": 96,
            "midi": 43,
            "name": "G2",
            "ticks": 19104,
            "time": 18.65625,
            "velocity": 0.6692913385826772
          },
          {
            "duration": 0.09375,
            "durationTicks": 96,
            "midi": 31,
            "name": "G1",
            "ticks": 19104,
            "time": 18.65625,
            "velocity": 0.4645669291338583
          },
          {
            "duration": 0.09375,
            "durationTicks": 96,
            "midi": 43,
            "name": "G2",
            "ticks": 19200,
            "time": 18.75,
            "velocity": 0.6692913385826772
          },
          {
            "duration": 0.1875,
            "durationTicks": 192,
            "midi": 31,
            "name": "G1",
            "ticks": 19200,
            "time": 18.75,
            "velocity": 0.4645669291338583
          },
          {
            "duration": 0.09375,
            "durationTicks": 96,
            "midi": 43,
            "name": "G2",
            "ticks": 19392,
            "time": 18.9375,
            "velocity": 0.6692913385826772
          },
          {
            "duration": 0.1875,
            "durationTicks": 192,
            "midi": 31,
            "name": "G1",
            "ticks": 19392,
            "time": 18.9375,
            "velocity": 0.4645669291338583
          },
          {
            "duration": 0.1875,
            "durationTicks": 192,
            "midi": 33,
            "name": "A1",
            "ticks": 19584,
            "time": 19.125,
            "velocity": 0.4645669291338583
          },
          {
            "duration": 0.09375,
            "durationTicks": 96,
            "midi": 45,
            "name": "A2",
            "ticks": 19584,
            "time": 19.125,
            "velocity": 0.6692913385826772
          },
          {
            "duration": 0.1875,
            "durationTicks": 192,
            "midi": 35,
            "name": "B1",
            "ticks": 19776,
            "time": 19.3125,
            "velocity": 0.4645669291338583
          },
          {
            "duration": 0.09375,
            "durationTicks": 96,
            "midi": 47,
            "name": "B2",
            "ticks": 19776,
            "time": 19.3125,
            "velocity": 0.6692913385826772
          },
          {
            "duration": 0.28125,
            "durationTicks": 288,
            "midi": 38,
            "name": "D2",
            "ticks": 19968,
            "time": 19.5,
            "velocity": 0.4645669291338583
          },
          {
            "duration": 0.28125,
            "durationTicks": 288,
            "midi": 50,
            "name": "D3",
            "ticks": 19968,
            "time": 19.5,
            "velocity": 0.6692913385826772
          },
          {
            "duration": 0.1875,
            "durationTicks": 192,
            "midi": 45,
            "name": "A2",
            "ticks": 20352,
            "time": 19.875,
            "velocity": 0.6692913385826772
          },
          {
            "duration": 0.28125,
            "durationTicks": 288,
            "midi": 33,
            "name": "A1",
            "ticks": 20352,
            "time": 19.875,
            "velocity": 0.4645669291338583
          },
          {
            "duration": 0.09375,
            "durationTicks": 96,
            "midi": 38,
            "name": "D2",
            "ticks": 20640,
            "time": 20.15625,
            "velocity": 0.4645669291338583
          },
          {
            "duration": 0.09375,
            "durationTicks": 96,
            "midi": 50,
            "name": "D3",
            "ticks": 20640,
            "time": 20.15625,
            "velocity": 0.6692913385826772
          },
          {
            "duration": 0.09375,
            "durationTicks": 96,
            "midi": 42,
            "name": "F#2",
            "ticks": 20736,
            "time": 20.25,
            "velocity": 0.6692913385826772
          },
          {
            "duration": 0.1875,
            "durationTicks": 192,
            "midi": 42,
            "name": "F#2",
            "ticks": 20736,
            "time": 20.25,
            "velocity": 0.4645669291338583
          },
          {
            "duration": 0.09375,
            "durationTicks": 96,
            "midi": 42,
            "name": "F#2",
            "ticks": 20928,
            "time": 20.4375,
            "velocity": 0.4645669291338583
          },
          {
            "duration": 0.1875,
            "durationTicks": 192,
            "midi": 42,
            "name": "F#2",
            "ticks": 20928,
            "time": 20.4375,
            "velocity": 0.6692913385826772
          },
          {
            "duration": 0.09375,
            "durationTicks": 96,
            "midi": 40,
            "name": "E2",
            "ticks": 21120,
            "time": 20.625,
            "velocity": 0.4645669291338583
          },
          {
            "duration": 0.1875,
            "durationTicks": 192,
            "midi": 40,
            "name": "E2",
            "ticks": 21120,
            "time": 20.625,
            "velocity": 0.6692913385826772
          },
          {
            "duration": 0.09375,
            "durationTicks": 96,
            "midi": 38,
            "name": "D2",
            "ticks": 21312,
            "time": 20.8125,
            "velocity": 0.6692913385826772
          },
          {
            "duration": 0.1875,
            "durationTicks": 192,
            "midi": 38,
            "name": "D2",
            "ticks": 21312,
            "time": 20.8125,
            "velocity": 0.4645669291338583
          },
          {
            "duration": 0.28125,
            "durationTicks": 288,
            "midi": 31,
            "name": "G1",
            "ticks": 21504,
            "time": 21,
            "velocity": 0.4645669291338583
          },
          {
            "duration": 0.28125,
            "durationTicks": 288,
            "midi": 43,
            "name": "G2",
            "ticks": 21504,
            "time": 21,
            "velocity": 0.6692913385826772
          },
          {
            "duration": 0.1875,
            "durationTicks": 192,
            "midi": 38,
            "name": "D2",
            "ticks": 21888,
            "time": 21.375,
            "velocity": 0.6692913385826772
          },
          {
            "duration": 0.28125,
            "durationTicks": 288,
            "midi": 26,
            "name": "D1",
            "ticks": 21888,
            "time": 21.375,
            "velocity": 0.4645669291338583
          },
          {
            "duration": 0.09375,
            "durationTicks": 96,
            "midi": 43,
            "name": "G2",
            "ticks": 22176,
            "time": 21.65625,
            "velocity": 0.6692913385826772
          },
          {
            "duration": 0.09375,
            "durationTicks": 96,
            "midi": 31,
            "name": "G1",
            "ticks": 22176,
            "time": 21.65625,
            "velocity": 0.4645669291338583
          },
          {
            "duration": 0.1875,
            "durationTicks": 192,
            "midi": 31,
            "name": "G1",
            "ticks": 22272,
            "time": 21.75,
            "velocity": 0.4645669291338583
          },
          {
            "duration": 0.09375,
            "durationTicks": 96,
            "midi": 43,
            "name": "G2",
            "ticks": 22272,
            "time": 21.75,
            "velocity": 0.6692913385826772
          },
          {
            "duration": 0.09375,
            "durationTicks": 96,
            "midi": 43,
            "name": "G2",
            "ticks": 22464,
            "time": 21.9375,
            "velocity": 0.6692913385826772
          },
          {
            "duration": 0.1875,
            "durationTicks": 192,
            "midi": 31,
            "name": "G1",
            "ticks": 22464,
            "time": 21.9375,
            "velocity": 0.4645669291338583
          },
          {
            "duration": 0.1875,
            "durationTicks": 192,
            "midi": 33,
            "name": "A1",
            "ticks": 22656,
            "time": 22.125,
            "velocity": 0.4645669291338583
          },
          {
            "duration": 0.09375,
            "durationTicks": 96,
            "midi": 45,
            "name": "A2",
            "ticks": 22656,
            "time": 22.125,
            "velocity": 0.6692913385826772
          },
          {
            "duration": 0.09375,
            "durationTicks": 96,
            "midi": 47,
            "name": "B2",
            "ticks": 22848,
            "time": 22.3125,
            "velocity": 0.6692913385826772
          },
          {
            "duration": 0.1875,
            "durationTicks": 192,
            "midi": 35,
            "name": "B1",
            "ticks": 22848,
            "time": 22.3125,
            "velocity": 0.4645669291338583
          },
          {
            "duration": 0.28125,
            "durationTicks": 288,
            "midi": 48,
            "name": "C3",
            "ticks": 23040,
            "time": 22.5,
            "velocity": 0.6692913385826772
          },
          {
            "duration": 0.28125,
            "durationTicks": 288,
            "midi": 36,
            "name": "C2",
            "ticks": 23040,
            "time": 22.5,
            "velocity": 0.4645669291338583
          },
          {
            "duration": 0.28125,
            "durationTicks": 288,
            "midi": 31,
            "name": "G1",
            "ticks": 23424,
            "time": 22.875,
            "velocity": 0.4645669291338583
          },
          {
            "duration": 0.1875,
            "durationTicks": 192,
            "midi": 43,
            "name": "G2",
            "ticks": 23424,
            "time": 22.875,
            "velocity": 0.6692913385826772
          },
          {
            "duration": 0.09375,
            "durationTicks": 96,
            "midi": 43,
            "name": "G2",
            "ticks": 23712,
            "time": 23.15625,
            "velocity": 0.6692913385826772
          },
          {
            "duration": 0.09375,
            "durationTicks": 96,
            "midi": 31,
            "name": "G1",
            "ticks": 23712,
            "time": 23.15625,
            "velocity": 0.4645669291338583
          },
          {
            "duration": 0.09375,
            "durationTicks": 96,
            "midi": 48,
            "name": "C3",
            "ticks": 23808,
            "time": 23.25,
            "velocity": 0.6692913385826772
          },
          {
            "duration": 0.1875,
            "durationTicks": 192,
            "midi": 36,
            "name": "C2",
            "ticks": 23808,
            "time": 23.25,
            "velocity": 0.4645669291338583
          },
          {
            "duration": 0.1875,
            "durationTicks": 192,
            "midi": 36,
            "name": "C2",
            "ticks": 24000,
            "time": 23.4375,
            "velocity": 0.4645669291338583
          },
          {
            "duration": 0.09375,
            "durationTicks": 96,
            "midi": 48,
            "name": "C3",
            "ticks": 24000,
            "time": 23.4375,
            "velocity": 0.6692913385826772
          },
          {
            "duration": 0.1875,
            "durationTicks": 192,
            "midi": 31,
            "name": "G1",
            "ticks": 24192,
            "time": 23.625,
            "velocity": 0.4645669291338583
          },
          {
            "duration": 0.09375,
            "durationTicks": 96,
            "midi": 43,
            "name": "G2",
            "ticks": 24192,
            "time": 23.625,
            "velocity": 0.6692913385826772
          },
          {
            "duration": 0.09375,
            "durationTicks": 96,
            "midi": 48,
            "name": "C3",
            "ticks": 24384,
            "time": 23.8125,
            "velocity": 0.6692913385826772
          },
          {
            "duration": 0.1875,
            "durationTicks": 192,
            "midi": 36,
            "name": "C2",
            "ticks": 24384,
            "time": 23.8125,
            "velocity": 0.4645669291338583
          },
          {
            "duration": 0.28125,
            "durationTicks": 288,
            "midi": 43,
            "name": "G2",
            "ticks": 24576,
            "time": 24,
            "velocity": 0.6692913385826772
          },
          {
            "duration": 0.28125,
            "durationTicks": 288,
            "midi": 31,
            "name": "G1",
            "ticks": 24576,
            "time": 24,
            "velocity": 0.4645669291338583
          },
          {
            "duration": 0.1875,
            "durationTicks": 192,
            "midi": 47,
            "name": "B2",
            "ticks": 24960,
            "time": 24.375,
            "velocity": 0.6692913385826772
          },
          {
            "duration": 0.28125,
            "durationTicks": 288,
            "midi": 35,
            "name": "B1",
            "ticks": 24960,
            "time": 24.375,
            "velocity": 0.4645669291338583
          },
          {
            "duration": 0.09375,
            "durationTicks": 96,
            "midi": 48,
            "name": "C3",
            "ticks": 25248,
            "time": 24.65625,
            "velocity": 0.6692913385826772
          },
          {
            "duration": 0.09375,
            "durationTicks": 96,
            "midi": 36,
            "name": "C2",
            "ticks": 25248,
            "time": 24.65625,
            "velocity": 0.4645669291338583
          },
          {
            "duration": 0.1875,
            "durationTicks": 192,
            "midi": 38,
            "name": "D2",
            "ticks": 25344,
            "time": 24.75,
            "velocity": 0.4645669291338583
          },
          {
            "duration": 0.09375,
            "durationTicks": 96,
            "midi": 50,
            "name": "D3",
            "ticks": 25344,
            "time": 24.75,
            "velocity": 0.6692913385826772
          },
          {
            "duration": 0.1875,
            "durationTicks": 192,
            "midi": 26,
            "name": "D1",
            "ticks": 25536,
            "time": 24.9375,
            "velocity": 0.4645669291338583
          },
          {
            "duration": 0.09375,
            "durationTicks": 96,
            "midi": 38,
            "name": "D2",
            "ticks": 25536,
            "time": 24.9375,
            "velocity": 0.6692913385826772
          },
          {
            "duration": 0.09375,
            "durationTicks": 96,
            "midi": 45,
            "name": "A2",
            "ticks": 25728,
            "time": 25.125,
            "velocity": 0.6692913385826772
          },
          {
            "duration": 0.1875,
            "durationTicks": 192,
            "midi": 33,
            "name": "A1",
            "ticks": 25728,
            "time": 25.125,
            "velocity": 0.4645669291338583
          },
          {
            "duration": 0.1875,
            "durationTicks": 192,
            "midi": 30,
            "name": "F#1",
            "ticks": 25920,
            "time": 25.3125,
            "velocity": 0.4645669291338583
          },
          {
            "duration": 0.09375,
            "durationTicks": 96,
            "midi": 42,
            "name": "F#2",
            "ticks": 25920,
            "time": 25.3125,
            "velocity": 0.6692913385826772
          },
          {
            "duration": 0.09375,
            "durationTicks": 96,
            "midi": 43,
            "name": "G2",
            "ticks": 26112,
            "time": 25.5,
            "velocity": 0.6692913385826772
          },
          {
            "duration": 0.1875,
            "durationTicks": 192,
            "midi": 43,
            "name": "G2",
            "ticks": 26112,
            "time": 25.5,
            "velocity": 0.4645669291338583
          },
          {
            "duration": 0.09375,
            "durationTicks": 96,
            "midi": 40,
            "name": "E2",
            "ticks": 26304,
            "time": 25.6875,
            "velocity": 0.4645669291338583
          },
          {
            "duration": 0.1875,
            "durationTicks": 192,
            "midi": 40,
            "name": "E2",
            "ticks": 26304,
            "time": 25.6875,
            "velocity": 0.6692913385826772
          },
          {
            "duration": 0.09375,
            "durationTicks": 96,
            "midi": 38,
            "name": "D2",
            "ticks": 26496,
            "time": 25.875,
            "velocity": 0.4645669291338583
          },
          {
            "duration": 0.1875,
            "durationTicks": 192,
            "midi": 38,
            "name": "D2",
            "ticks": 26496,
            "time": 25.875,
            "velocity": 0.6692913385826772
          },
          {
            "duration": 0.09375,
            "durationTicks": 96,
            "midi": 35,
            "name": "B1",
            "ticks": 26688,
            "time": 26.0625,
            "velocity": 0.6692913385826772
          },
          {
            "duration": 0.1875,
            "durationTicks": 192,
            "midi": 35,
            "name": "B1",
            "ticks": 26688,
            "time": 26.0625,
            "velocity": 0.4645669291338583
          },
          {
            "duration": 0.09375,
            "durationTicks": 96,
            "midi": 31,
            "name": "G1",
            "ticks": 26880,
            "time": 26.25,
            "velocity": 0.4645669291338583
          },
          {
            "duration": 0.1875,
            "durationTicks": 192,
            "midi": 31,
            "name": "G1",
            "ticks": 26880,
            "time": 26.25,
            "velocity": 0.6692913385826772
          },
          {
            "duration": 0.09375,
            "durationTicks": 96,
            "midi": 33,
            "name": "A1",
            "ticks": 27072,
            "time": 26.4375,
            "velocity": 0.6692913385826772
          },
          {
            "duration": 0.1875,
            "durationTicks": 192,
            "midi": 33,
            "name": "A1",
            "ticks": 27072,
            "time": 26.4375,
            "velocity": 0.4645669291338583
          },
          {
            "duration": 0.09375,
            "durationTicks": 96,
            "midi": 35,
            "name": "B1",
            "ticks": 27264,
            "time": 26.625,
            "velocity": 0.4645669291338583
          },
          {
            "duration": 0.1875,
            "durationTicks": 192,
            "midi": 35,
            "name": "B1",
            "ticks": 27264,
            "time": 26.625,
            "velocity": 0.6692913385826772
          },
          {
            "duration": 0.09375,
            "durationTicks": 96,
            "midi": 38,
            "name": "D2",
            "ticks": 27456,
            "time": 26.8125,
            "velocity": 0.4645669291338583
          },
          {
            "duration": 0.1875,
            "durationTicks": 192,
            "midi": 38,
            "name": "D2",
            "ticks": 27456,
            "time": 26.8125,
            "velocity": 0.6692913385826772
          },
          {
            "duration": 0.28125,
            "durationTicks": 288,
            "midi": 31,
            "name": "G1",
            "ticks": 27648,
            "time": 27,
            "velocity": 0.4645669291338583
          },
          {
            "duration": 0.28125,
            "durationTicks": 288,
            "midi": 43,
            "name": "G2",
            "ticks": 27648,
            "time": 27,
            "velocity": 0.6692913385826772
          },
          {
            "duration": 0.28125,
            "durationTicks": 288,
            "midi": 26,
            "name": "D1",
            "ticks": 28032,
            "time": 27.375,
            "velocity": 0.4645669291338583
          },
          {
            "duration": 0.1875,
            "durationTicks": 192,
            "midi": 38,
            "name": "D2",
            "ticks": 28032,
            "time": 27.375,
            "velocity": 0.6692913385826772
          },
          {
            "duration": 0.09375,
            "durationTicks": 96,
            "midi": 43,
            "name": "G2",
            "ticks": 28320,
            "time": 27.65625,
            "velocity": 0.6692913385826772
          },
          {
            "duration": 0.09375,
            "durationTicks": 96,
            "midi": 31,
            "name": "G1",
            "ticks": 28320,
            "time": 27.65625,
            "velocity": 0.4645669291338583
          },
          {
            "duration": 0.1875,
            "durationTicks": 192,
            "midi": 31,
            "name": "G1",
            "ticks": 28416,
            "time": 27.75,
            "velocity": 0.4645669291338583
          },
          {
            "duration": 0.09375,
            "durationTicks": 96,
            "midi": 43,
            "name": "G2",
            "ticks": 28416,
            "time": 27.75,
            "velocity": 0.6692913385826772
          },
          {
            "duration": 0.1875,
            "durationTicks": 192,
            "midi": 31,
            "name": "G1",
            "ticks": 28608,
            "time": 27.9375,
            "velocity": 0.4645669291338583
          },
          {
            "duration": 0.09375,
            "durationTicks": 96,
            "midi": 43,
            "name": "G2",
            "ticks": 28608,
            "time": 27.9375,
            "velocity": 0.6692913385826772
          },
          {
            "duration": 0.09375,
            "durationTicks": 96,
            "midi": 45,
            "name": "A2",
            "ticks": 28800,
            "time": 28.125,
            "velocity": 0.6692913385826772
          },
          {
            "duration": 0.1875,
            "durationTicks": 192,
            "midi": 33,
            "name": "A1",
            "ticks": 28800,
            "time": 28.125,
            "velocity": 0.4645669291338583
          },
          {
            "duration": 0.1875,
            "durationTicks": 192,
            "midi": 35,
            "name": "B1",
            "ticks": 28992,
            "time": 28.3125,
            "velocity": 0.4645669291338583
          },
          {
            "duration": 0.09375,
            "durationTicks": 96,
            "midi": 47,
            "name": "B2",
            "ticks": 28992,
            "time": 28.3125,
            "velocity": 0.6692913385826772
          },
          {
            "duration": 0.28125,
            "durationTicks": 288,
            "midi": 48,
            "name": "C3",
            "ticks": 29184,
            "time": 28.5,
            "velocity": 0.6692913385826772
          },
          {
            "duration": 0.28125,
            "durationTicks": 288,
            "midi": 36,
            "name": "C2",
            "ticks": 29184,
            "time": 28.5,
            "velocity": 0.4645669291338583
          },
          {
            "duration": 0.1875,
            "durationTicks": 192,
            "midi": 43,
            "name": "G2",
            "ticks": 29568,
            "time": 28.875,
            "velocity": 0.6692913385826772
          },
          {
            "duration": 0.28125,
            "durationTicks": 288,
            "midi": 31,
            "name": "G1",
            "ticks": 29568,
            "time": 28.875,
            "velocity": 0.4645669291338583
          },
          {
            "duration": 0.09375,
            "durationTicks": 96,
            "midi": 48,
            "name": "C3",
            "ticks": 29856,
            "time": 29.15625,
            "velocity": 0.6692913385826772
          },
          {
            "duration": 0.09375,
            "durationTicks": 96,
            "midi": 36,
            "name": "C2",
            "ticks": 29856,
            "time": 29.15625,
            "velocity": 0.4645669291338583
          },
          {
            "duration": 0.09375,
            "durationTicks": 96,
            "midi": 48,
            "name": "C3",
            "ticks": 29952,
            "time": 29.25,
            "velocity": 0.6692913385826772
          },
          {
            "duration": 0.1875,
            "durationTicks": 192,
            "midi": 36,
            "name": "C2",
            "ticks": 29952,
            "time": 29.25,
            "velocity": 0.4645669291338583
          },
          {
            "duration": 0.09375,
            "durationTicks": 96,
            "midi": 48,
            "name": "C3",
            "ticks": 30144,
            "time": 29.4375,
            "velocity": 0.6692913385826772
          },
          {
            "duration": 0.1875,
            "durationTicks": 192,
            "midi": 36,
            "name": "C2",
            "ticks": 30144,
            "time": 29.4375,
            "velocity": 0.4645669291338583
          },
          {
            "duration": 0.09375,
            "durationTicks": 96,
            "midi": 47,
            "name": "B2",
            "ticks": 30336,
            "time": 29.625,
            "velocity": 0.6692913385826772
          },
          {
            "duration": 0.1875,
            "durationTicks": 192,
            "midi": 35,
            "name": "B1",
            "ticks": 30336,
            "time": 29.625,
            "velocity": 0.4645669291338583
          },
          {
            "duration": 0.1875,
            "durationTicks": 192,
            "midi": 33,
            "name": "A1",
            "ticks": 30528,
            "time": 29.8125,
            "velocity": 0.4645669291338583
          },
          {
            "duration": 0.09375,
            "durationTicks": 96,
            "midi": 45,
            "name": "A2",
            "ticks": 30528,
            "time": 29.8125,
            "velocity": 0.6692913385826772
          },
          {
            "duration": 0.28125,
            "durationTicks": 288,
            "midi": 31,
            "name": "G1",
            "ticks": 30720,
            "time": 30,
            "velocity": 0.4645669291338583
          },
          {
            "duration": 0.28125,
            "durationTicks": 288,
            "midi": 43,
            "name": "G2",
            "ticks": 30720,
            "time": 30,
            "velocity": 0.6692913385826772
          },
          {
            "duration": 0.28125,
            "durationTicks": 288,
            "midi": 26,
            "name": "D1",
            "ticks": 31104,
            "time": 30.375,
            "velocity": 0.4645669291338583
          },
          {
            "duration": 0.1875,
            "durationTicks": 192,
            "midi": 38,
            "name": "D2",
            "ticks": 31104,
            "time": 30.375,
            "velocity": 0.6692913385826772
          },
          {
            "duration": 0.09375,
            "durationTicks": 96,
            "midi": 31,
            "name": "G1",
            "ticks": 31392,
            "time": 30.65625,
            "velocity": 0.4645669291338583
          },
          {
            "duration": 0.09375,
            "durationTicks": 96,
            "midi": 43,
            "name": "G2",
            "ticks": 31392,
            "time": 30.65625,
            "velocity": 0.6692913385826772
          },
          {
            "duration": 0.1875,
            "durationTicks": 192,
            "midi": 31,
            "name": "G1",
            "ticks": 31488,
            "time": 30.75,
            "velocity": 0.4645669291338583
          },
          {
            "duration": 0.09375,
            "durationTicks": 96,
            "midi": 43,
            "name": "G2",
            "ticks": 31488,
            "time": 30.75,
            "velocity": 0.6692913385826772
          },
          {
            "duration": 0.1875,
            "durationTicks": 192,
            "midi": 31,
            "name": "G1",
            "ticks": 31680,
            "time": 30.9375,
            "velocity": 0.4645669291338583
          },
          {
            "duration": 0.09375,
            "durationTicks": 96,
            "midi": 43,
            "name": "G2",
            "ticks": 31680,
            "time": 30.9375,
            "velocity": 0.6692913385826772
          },
          {
            "duration": 0.1875,
            "durationTicks": 192,
            "midi": 33,
            "name": "A1",
            "ticks": 31872,
            "time": 31.125,
            "velocity": 0.4645669291338583
          },
          {
            "duration": 0.09375,
            "durationTicks": 96,
            "midi": 45,
            "name": "A2",
            "ticks": 31872,
            "time": 31.125,
            "velocity": 0.6692913385826772
          },
          {
            "duration": 0.09375,
            "durationTicks": 96,
            "midi": 47,
            "name": "B2",
            "ticks": 32064,
            "time": 31.3125,
            "velocity": 0.6692913385826772
          },
          {
            "duration": 0.1875,
            "durationTicks": 192,
            "midi": 35,
            "name": "B1",
            "ticks": 32064,
            "time": 31.3125,
            "velocity": 0.4645669291338583
          },
          {
            "duration": 0.28125,
            "durationTicks": 288,
            "midi": 38,
            "name": "D2",
            "ticks": 32256,
            "time": 31.5,
            "velocity": 0.4645669291338583
          },
          {
            "duration": 0.28125,
            "durationTicks": 288,
            "midi": 50,
            "name": "D3",
            "ticks": 32256,
            "time": 31.5,
            "velocity": 0.6692913385826772
          },
          {
            "duration": 0.1875,
            "durationTicks": 192,
            "midi": 45,
            "name": "A2",
            "ticks": 32640,
            "time": 31.875,
            "velocity": 0.6692913385826772
          },
          {
            "duration": 0.28125,
            "durationTicks": 288,
            "midi": 33,
            "name": "A1",
            "ticks": 32640,
            "time": 31.875,
            "velocity": 0.4645669291338583
          },
          {
            "duration": 0.09375,
            "durationTicks": 96,
            "midi": 50,
            "name": "D3",
            "ticks": 32928,
            "time": 32.15625,
            "velocity": 0.6692913385826772
          },
          {
            "duration": 0.09375,
            "durationTicks": 96,
            "midi": 38,
            "name": "D2",
            "ticks": 32928,
            "time": 32.15625,
            "velocity": 0.4645669291338583
          },
          {
            "duration": 0.09375,
            "durationTicks": 96,
            "midi": 42,
            "name": "F#2",
            "ticks": 33024,
            "time": 32.25,
            "velocity": 0.4645669291338583
          },
          {
            "duration": 0.1875,
            "durationTicks": 192,
            "midi": 42,
            "name": "F#2",
            "ticks": 33024,
            "time": 32.25,
            "velocity": 0.6692913385826772
          },
          {
            "duration": 0.09375,
            "durationTicks": 96,
            "midi": 42,
            "name": "F#2",
            "ticks": 33216,
            "time": 32.4375,
            "velocity": 0.6692913385826772
          },
          {
            "duration": 0.1875,
            "durationTicks": 192,
            "midi": 42,
            "name": "F#2",
            "ticks": 33216,
            "time": 32.4375,
            "velocity": 0.4645669291338583
          },
          {
            "duration": 0.09375,
            "durationTicks": 96,
            "midi": 40,
            "name": "E2",
            "ticks": 33408,
            "time": 32.625,
            "velocity": 0.6692913385826772
          },
          {
            "duration": 0.1875,
            "durationTicks": 192,
            "midi": 40,
            "name": "E2",
            "ticks": 33408,
            "time": 32.625,
            "velocity": 0.4645669291338583
          },
          {
            "duration": 0.09375,
            "durationTicks": 96,
            "midi": 38,
            "name": "D2",
            "ticks": 33600,
            "time": 32.8125,
            "velocity": 0.6692913385826772
          },
          {
            "duration": 0.1875,
            "durationTicks": 192,
            "midi": 38,
            "name": "D2",
            "ticks": 33600,
            "time": 32.8125,
            "velocity": 0.4645669291338583
          },
          {
            "duration": 0.28125,
            "durationTicks": 288,
            "midi": 31,
            "name": "G1",
            "ticks": 33792,
            "time": 33,
            "velocity": 0.4645669291338583
          },
          {
            "duration": 0.28125,
            "durationTicks": 288,
            "midi": 43,
            "name": "G2",
            "ticks": 33792,
            "time": 33,
            "velocity": 0.6692913385826772
          },
          {
            "duration": 0.28125,
            "durationTicks": 288,
            "midi": 26,
            "name": "D1",
            "ticks": 34176,
            "time": 33.375,
            "velocity": 0.4645669291338583
          },
          {
            "duration": 0.1875,
            "durationTicks": 192,
            "midi": 38,
            "name": "D2",
            "ticks": 34176,
            "time": 33.375,
            "velocity": 0.6692913385826772
          },
          {
            "duration": 0.09375,
            "durationTicks": 96,
            "midi": 43,
            "name": "G2",
            "ticks": 34464,
            "time": 33.65625,
            "velocity": 0.6692913385826772
          },
          {
            "duration": 0.09375,
            "durationTicks": 96,
            "midi": 31,
            "name": "G1",
            "ticks": 34464,
            "time": 33.65625,
            "velocity": 0.4645669291338583
          },
          {
            "duration": 0.1875,
            "durationTicks": 192,
            "midi": 31,
            "name": "G1",
            "ticks": 34560,
            "time": 33.75,
            "velocity": 0.4645669291338583
          },
          {
            "duration": 0.09375,
            "durationTicks": 96,
            "midi": 43,
            "name": "G2",
            "ticks": 34560,
            "time": 33.75,
            "velocity": 0.6692913385826772
          },
          {
            "duration": 0.1875,
            "durationTicks": 192,
            "midi": 31,
            "name": "G1",
            "ticks": 34752,
            "time": 33.9375,
            "velocity": 0.4645669291338583
          },
          {
            "duration": 0.09375,
            "durationTicks": 96,
            "midi": 43,
            "name": "G2",
            "ticks": 34752,
            "time": 33.9375,
            "velocity": 0.6692913385826772
          },
          {
            "duration": 0.1875,
            "durationTicks": 192,
            "midi": 33,
            "name": "A1",
            "ticks": 34944,
            "time": 34.125,
            "velocity": 0.4645669291338583
          },
          {
            "duration": 0.09375,
            "durationTicks": 96,
            "midi": 45,
            "name": "A2",
            "ticks": 34944,
            "time": 34.125,
            "velocity": 0.6692913385826772
          },
          {
            "duration": 0.1875,
            "durationTicks": 192,
            "midi": 35,
            "name": "B1",
            "ticks": 35136,
            "time": 34.3125,
            "velocity": 0.4645669291338583
          },
          {
            "duration": 0.09375,
            "durationTicks": 96,
            "midi": 47,
            "name": "B2",
            "ticks": 35136,
            "time": 34.3125,
            "velocity": 0.6692913385826772
          },
          {
            "duration": 0.28125,
            "durationTicks": 288,
            "midi": 48,
            "name": "C3",
            "ticks": 35328,
            "time": 34.5,
            "velocity": 0.6692913385826772
          },
          {
            "duration": 0.28125,
            "durationTicks": 288,
            "midi": 36,
            "name": "C2",
            "ticks": 35328,
            "time": 34.5,
            "velocity": 0.4645669291338583
          },
          {
            "duration": 0.28125,
            "durationTicks": 288,
            "midi": 31,
            "name": "G1",
            "ticks": 35712,
            "time": 34.875,
            "velocity": 0.4645669291338583
          },
          {
            "duration": 0.1875,
            "durationTicks": 192,
            "midi": 43,
            "name": "G2",
            "ticks": 35712,
            "time": 34.875,
            "velocity": 0.6692913385826772
          },
          {
            "duration": 0.09375,
            "durationTicks": 96,
            "midi": 43,
            "name": "G2",
            "ticks": 36000,
            "time": 35.15625,
            "velocity": 0.6692913385826772
          },
          {
            "duration": 0.09375,
            "durationTicks": 96,
            "midi": 31,
            "name": "G1",
            "ticks": 36000,
            "time": 35.15625,
            "velocity": 0.4645669291338583
          },
          {
            "duration": 0.1875,
            "durationTicks": 192,
            "midi": 36,
            "name": "C2",
            "ticks": 36096,
            "time": 35.25,
            "velocity": 0.4645669291338583
          },
          {
            "duration": 0.09375,
            "durationTicks": 96,
            "midi": 48,
            "name": "C3",
            "ticks": 36096,
            "time": 35.25,
            "velocity": 0.6692913385826772
          },
          {
            "duration": 0.09375,
            "durationTicks": 96,
            "midi": 48,
            "name": "C3",
            "ticks": 36288,
            "time": 35.4375,
            "velocity": 0.6692913385826772
          },
          {
            "duration": 0.1875,
            "durationTicks": 192,
            "midi": 36,
            "name": "C2",
            "ticks": 36288,
            "time": 35.4375,
            "velocity": 0.4645669291338583
          },
          {
            "duration": 0.09375,
            "durationTicks": 96,
            "midi": 43,
            "name": "G2",
            "ticks": 36480,
            "time": 35.625,
            "velocity": 0.6692913385826772
          },
          {
            "duration": 0.1875,
            "durationTicks": 192,
            "midi": 31,
            "name": "G1",
            "ticks": 36480,
            "time": 35.625,
            "velocity": 0.4645669291338583
          },
          {
            "duration": 0.09375,
            "durationTicks": 96,
            "midi": 48,
            "name": "C3",
            "ticks": 36672,
            "time": 35.8125,
            "velocity": 0.6692913385826772
          },
          {
            "duration": 0.1875,
            "durationTicks": 192,
            "midi": 36,
            "name": "C2",
            "ticks": 36672,
            "time": 35.8125,
            "velocity": 0.4645669291338583
          },
          {
            "duration": 0.28125,
            "durationTicks": 288,
            "midi": 43,
            "name": "G2",
            "ticks": 36864,
            "time": 36,
            "velocity": 0.6692913385826772
          },
          {
            "duration": 0.28125,
            "durationTicks": 288,
            "midi": 31,
            "name": "G1",
            "ticks": 36864,
            "time": 36,
            "velocity": 0.4645669291338583
          },
          {
            "duration": 0.28125,
            "durationTicks": 288,
            "midi": 35,
            "name": "B1",
            "ticks": 37248,
            "time": 36.375,
            "velocity": 0.4645669291338583
          },
          {
            "duration": 0.1875,
            "durationTicks": 192,
            "midi": 47,
            "name": "B2",
            "ticks": 37248,
            "time": 36.375,
            "velocity": 0.6692913385826772
          },
          {
            "duration": 0.09375,
            "durationTicks": 96,
            "midi": 48,
            "name": "C3",
            "ticks": 37536,
            "time": 36.65625,
            "velocity": 0.6692913385826772
          },
          {
            "duration": 0.09375,
            "durationTicks": 96,
            "midi": 36,
            "name": "C2",
            "ticks": 37536,
            "time": 36.65625,
            "velocity": 0.4645669291338583
          },
          {
            "duration": 0.09375,
            "durationTicks": 96,
            "midi": 50,
            "name": "D3",
            "ticks": 37632,
            "time": 36.75,
            "velocity": 0.6692913385826772
          },
          {
            "duration": 0.1875,
            "durationTicks": 192,
            "midi": 38,
            "name": "D2",
            "ticks": 37632,
            "time": 36.75,
            "velocity": 0.4645669291338583
          },
          {
            "duration": 0.09375,
            "durationTicks": 96,
            "midi": 38,
            "name": "D2",
            "ticks": 37824,
            "time": 36.9375,
            "velocity": 0.6692913385826772
          },
          {
            "duration": 0.1875,
            "durationTicks": 192,
            "midi": 26,
            "name": "D1",
            "ticks": 37824,
            "time": 36.9375,
            "velocity": 0.4645669291338583
          },
          {
            "duration": 0.1875,
            "durationTicks": 192,
            "midi": 33,
            "name": "A1",
            "ticks": 38016,
            "time": 37.125,
            "velocity": 0.4645669291338583
          },
          {
            "duration": 0.09375,
            "durationTicks": 96,
            "midi": 45,
            "name": "A2",
            "ticks": 38016,
            "time": 37.125,
            "velocity": 0.6692913385826772
          },
          {
            "duration": 0.1875,
            "durationTicks": 192,
            "midi": 30,
            "name": "F#1",
            "ticks": 38208,
            "time": 37.3125,
            "velocity": 0.4645669291338583
          },
          {
            "duration": 0.09375,
            "durationTicks": 96,
            "midi": 42,
            "name": "F#2",
            "ticks": 38208,
            "time": 37.3125,
            "velocity": 0.6692913385826772
          },
          {
            "duration": 0.09375,
            "durationTicks": 96,
            "midi": 43,
            "name": "G2",
            "ticks": 38400,
            "time": 37.5,
            "velocity": 0.4645669291338583
          },
          {
            "duration": 0.1875,
            "durationTicks": 192,
            "midi": 43,
            "name": "G2",
            "ticks": 38400,
            "time": 37.5,
            "velocity": 0.6692913385826772
          },
          {
            "duration": 0.09375,
            "durationTicks": 96,
            "midi": 40,
            "name": "E2",
            "ticks": 38592,
            "time": 37.6875,
            "velocity": 0.6692913385826772
          },
          {
            "duration": 0.1875,
            "durationTicks": 192,
            "midi": 40,
            "name": "E2",
            "ticks": 38592,
            "time": 37.6875,
            "velocity": 0.4645669291338583
          },
          {
            "duration": 0.09375,
            "durationTicks": 96,
            "midi": 38,
            "name": "D2",
            "ticks": 38784,
            "time": 37.875,
            "velocity": 0.6692913385826772
          },
          {
            "duration": 0.1875,
            "durationTicks": 192,
            "midi": 38,
            "name": "D2",
            "ticks": 38784,
            "time": 37.875,
            "velocity": 0.4645669291338583
          },
          {
            "duration": 0.09375,
            "durationTicks": 96,
            "midi": 35,
            "name": "B1",
            "ticks": 38976,
            "time": 38.0625,
            "velocity": 0.4645669291338583
          },
          {
            "duration": 0.1875,
            "durationTicks": 192,
            "midi": 35,
            "name": "B1",
            "ticks": 38976,
            "time": 38.0625,
            "velocity": 0.6692913385826772
          },
          {
            "duration": 0.09375,
            "durationTicks": 96,
            "midi": 31,
            "name": "G1",
            "ticks": 39168,
            "time": 38.25,
            "velocity": 0.6692913385826772
          },
          {
            "duration": 0.1875,
            "durationTicks": 192,
            "midi": 31,
            "name": "G1",
            "ticks": 39168,
            "time": 38.25,
            "velocity": 0.4645669291338583
          },
          {
            "duration": 0.09375,
            "durationTicks": 96,
            "midi": 33,
            "name": "A1",
            "ticks": 39360,
            "time": 38.4375,
            "velocity": 0.6692913385826772
          },
          {
            "duration": 0.1875,
            "durationTicks": 192,
            "midi": 33,
            "name": "A1",
            "ticks": 39360,
            "time": 38.4375,
            "velocity": 0.4645669291338583
          },
          {
            "duration": 0.09375,
            "durationTicks": 96,
            "midi": 35,
            "name": "B1",
            "ticks": 39552,
            "time": 38.625,
            "velocity": 0.6692913385826772
          },
          {
            "duration": 0.1875,
            "durationTicks": 192,
            "midi": 35,
            "name": "B1",
            "ticks": 39552,
            "time": 38.625,
            "velocity": 0.4645669291338583
          },
          {
            "duration": 0.09375,
            "durationTicks": 96,
            "midi": 38,
            "name": "D2",
            "ticks": 39744,
            "time": 38.8125,
            "velocity": 0.4645669291338583
          },
          {
            "duration": 0.1875,
            "durationTicks": 192,
            "midi": 38,
            "name": "D2",
            "ticks": 39744,
            "time": 38.8125,
            "velocity": 0.6692913385826772
          },
          {
            "duration": 0.28125,
            "durationTicks": 288,
            "midi": 43,
            "name": "G2",
            "ticks": 39936,
            "time": 39,
            "velocity": 0.6692913385826772
          },
          {
            "duration": 0.28125,
            "durationTicks": 288,
            "midi": 31,
            "name": "G1",
            "ticks": 39936,
            "time": 39,
            "velocity": 0.4645669291338583
          },
          {
            "duration": 0.1875,
            "durationTicks": 192,
            "midi": 38,
            "name": "D2",
            "ticks": 40320,
            "time": 39.375,
            "velocity": 0.6692913385826772
          },
          {
            "duration": 0.28125,
            "durationTicks": 288,
            "midi": 26,
            "name": "D1",
            "ticks": 40320,
            "time": 39.375,
            "velocity": 0.4645669291338583
          },
          {
            "duration": 0.09375,
            "durationTicks": 96,
            "midi": 31,
            "name": "G1",
            "ticks": 40608,
            "time": 39.65625,
            "velocity": 0.4645669291338583
          },
          {
            "duration": 0.09375,
            "durationTicks": 96,
            "midi": 43,
            "name": "G2",
            "ticks": 40608,
            "time": 39.65625,
            "velocity": 0.6692913385826772
          },
          {
            "duration": 0.1875,
            "durationTicks": 192,
            "midi": 31,
            "name": "G1",
            "ticks": 40704,
            "time": 39.75,
            "velocity": 0.4645669291338583
          },
          {
            "duration": 0.09375,
            "durationTicks": 96,
            "midi": 43,
            "name": "G2",
            "ticks": 40704,
            "time": 39.75,
            "velocity": 0.6692913385826772
          },
          {
            "duration": 0.09375,
            "durationTicks": 96,
            "midi": 43,
            "name": "G2",
            "ticks": 40896,
            "time": 39.9375,
            "velocity": 0.6692913385826772
          },
          {
            "duration": 0.1875,
            "durationTicks": 192,
            "midi": 31,
            "name": "G1",
            "ticks": 40896,
            "time": 39.9375,
            "velocity": 0.4645669291338583
          },
          {
            "duration": 0.09375,
            "durationTicks": 96,
            "midi": 45,
            "name": "A2",
            "ticks": 41088,
            "time": 40.125,
            "velocity": 0.6692913385826772
          },
          {
            "duration": 0.1875,
            "durationTicks": 192,
            "midi": 33,
            "name": "A1",
            "ticks": 41088,
            "time": 40.125,
            "velocity": 0.4645669291338583
          },
          {
            "duration": 0.09375,
            "durationTicks": 96,
            "midi": 47,
            "name": "B2",
            "ticks": 41280,
            "time": 40.3125,
            "velocity": 0.6692913385826772
          },
          {
            "duration": 0.1875,
            "durationTicks": 192,
            "midi": 35,
            "name": "B1",
            "ticks": 41280,
            "time": 40.3125,
            "velocity": 0.4645669291338583
          },
          {
            "duration": 0.28125,
            "durationTicks": 288,
            "midi": 48,
            "name": "C3",
            "ticks": 41472,
            "time": 40.5,
            "velocity": 0.6692913385826772
          },
          {
            "duration": 0.28125,
            "durationTicks": 288,
            "midi": 36,
            "name": "C2",
            "ticks": 41472,
            "time": 40.5,
            "velocity": 0.4645669291338583
          },
          {
            "duration": 0.28125,
            "durationTicks": 288,
            "midi": 31,
            "name": "G1",
            "ticks": 41856,
            "time": 40.875,
            "velocity": 0.4645669291338583
          },
          {
            "duration": 0.1875,
            "durationTicks": 192,
            "midi": 43,
            "name": "G2",
            "ticks": 41856,
            "time": 40.875,
            "velocity": 0.6692913385826772
          },
          {
            "duration": 0.09375,
            "durationTicks": 96,
            "midi": 48,
            "name": "C3",
            "ticks": 42144,
            "time": 41.15625,
            "velocity": 0.6692913385826772
          },
          {
            "duration": 0.09375,
            "durationTicks": 96,
            "midi": 36,
            "name": "C2",
            "ticks": 42144,
            "time": 41.15625,
            "velocity": 0.4645669291338583
          },
          {
            "duration": 0.1875,
            "durationTicks": 192,
            "midi": 36,
            "name": "C2",
            "ticks": 42240,
            "time": 41.25,
            "velocity": 0.4645669291338583
          },
          {
            "duration": 0.09375,
            "durationTicks": 96,
            "midi": 48,
            "name": "C3",
            "ticks": 42240,
            "time": 41.25,
            "velocity": 0.6692913385826772
          },
          {
            "duration": 0.09375,
            "durationTicks": 96,
            "midi": 48,
            "name": "C3",
            "ticks": 42432,
            "time": 41.4375,
            "velocity": 0.6692913385826772
          },
          {
            "duration": 0.1875,
            "durationTicks": 192,
            "midi": 36,
            "name": "C2",
            "ticks": 42432,
            "time": 41.4375,
            "velocity": 0.4645669291338583
          },
          {
            "duration": 0.1875,
            "durationTicks": 192,
            "midi": 35,
            "name": "B1",
            "ticks": 42624,
            "time": 41.625,
            "velocity": 0.4645669291338583
          },
          {
            "duration": 0.09375,
            "durationTicks": 96,
            "midi": 47,
            "name": "B2",
            "ticks": 42624,
            "time": 41.625,
            "velocity": 0.6692913385826772
          },
          {
            "duration": 0.1875,
            "durationTicks": 192,
            "midi": 33,
            "name": "A1",
            "ticks": 42816,
            "time": 41.8125,
            "velocity": 0.4645669291338583
          },
          {
            "duration": 0.09375,
            "durationTicks": 96,
            "midi": 45,
            "name": "A2",
            "ticks": 42816,
            "time": 41.8125,
            "velocity": 0.6692913385826772
          },
          {
            "duration": 0.28125,
            "durationTicks": 288,
            "midi": 43,
            "name": "G2",
            "ticks": 43008,
            "time": 42,
            "velocity": 0.6692913385826772
          },
          {
            "duration": 0.28125,
            "durationTicks": 288,
            "midi": 31,
            "name": "G1",
            "ticks": 43008,
            "time": 42,
            "velocity": 0.4645669291338583
          },
          {
            "duration": 0.1875,
            "durationTicks": 192,
            "midi": 38,
            "name": "D2",
            "ticks": 43392,
            "time": 42.375,
            "velocity": 0.6692913385826772
          },
          {
            "duration": 0.28125,
            "durationTicks": 288,
            "midi": 26,
            "name": "D1",
            "ticks": 43392,
            "time": 42.375,
            "velocity": 0.4645669291338583
          },
          {
            "duration": 0.09375,
            "durationTicks": 96,
            "midi": 31,
            "name": "G1",
            "ticks": 43680,
            "time": 42.65625,
            "velocity": 0.4645669291338583
          },
          {
            "duration": 0.09375,
            "durationTicks": 96,
            "midi": 43,
            "name": "G2",
            "ticks": 43680,
            "time": 42.65625,
            "velocity": 0.6692913385826772
          },
          {
            "duration": 0.1875,
            "durationTicks": 192,
            "midi": 31,
            "name": "G1",
            "ticks": 43776,
            "time": 42.75,
            "velocity": 0.4645669291338583
          },
          {
            "duration": 0.09375,
            "durationTicks": 96,
            "midi": 43,
            "name": "G2",
            "ticks": 43776,
            "time": 42.75,
            "velocity": 0.6692913385826772
          },
          {
            "duration": 0.09375,
            "durationTicks": 96,
            "midi": 43,
            "name": "G2",
            "ticks": 43968,
            "time": 42.9375,
            "velocity": 0.6692913385826772
          },
          {
            "duration": 0.1875,
            "durationTicks": 192,
            "midi": 31,
            "name": "G1",
            "ticks": 43968,
            "time": 42.9375,
            "velocity": 0.4645669291338583
          },
          {
            "duration": 0.1875,
            "durationTicks": 192,
            "midi": 33,
            "name": "A1",
            "ticks": 44160,
            "time": 43.125,
            "velocity": 0.4645669291338583
          },
          {
            "duration": 0.09375,
            "durationTicks": 96,
            "midi": 45,
            "name": "A2",
            "ticks": 44160,
            "time": 43.125,
            "velocity": 0.6692913385826772
          },
          {
            "duration": 0.1875,
            "durationTicks": 192,
            "midi": 35,
            "name": "B1",
            "ticks": 44352,
            "time": 43.3125,
            "velocity": 0.4645669291338583
          },
          {
            "duration": 0.09375,
            "durationTicks": 96,
            "midi": 47,
            "name": "B2",
            "ticks": 44352,
            "time": 43.3125,
            "velocity": 0.6692913385826772
          },
          {
            "duration": 0.28125,
            "durationTicks": 288,
            "midi": 50,
            "name": "D3",
            "ticks": 44544,
            "time": 43.5,
            "velocity": 0.6692913385826772
          },
          {
            "duration": 0.28125,
            "durationTicks": 288,
            "midi": 38,
            "name": "D2",
            "ticks": 44544,
            "time": 43.5,
            "velocity": 0.4645669291338583
          },
          {
            "duration": 0.28125,
            "durationTicks": 288,
            "midi": 33,
            "name": "A1",
            "ticks": 44928,
            "time": 43.875,
            "velocity": 0.4645669291338583
          },
          {
            "duration": 0.1875,
            "durationTicks": 192,
            "midi": 45,
            "name": "A2",
            "ticks": 44928,
            "time": 43.875,
            "velocity": 0.6692913385826772
          },
          {
            "duration": 0.09375,
            "durationTicks": 96,
            "midi": 38,
            "name": "D2",
            "ticks": 45216,
            "time": 44.15625,
            "velocity": 0.4645669291338583
          },
          {
            "duration": 0.09375,
            "durationTicks": 96,
            "midi": 50,
            "name": "D3",
            "ticks": 45216,
            "time": 44.15625,
            "velocity": 0.6692913385826772
          },
          {
            "duration": 0.09375,
            "durationTicks": 96,
            "midi": 42,
            "name": "F#2",
            "ticks": 45312,
            "time": 44.25,
            "velocity": 0.6692913385826772
          },
          {
            "duration": 0.1875,
            "durationTicks": 192,
            "midi": 42,
            "name": "F#2",
            "ticks": 45312,
            "time": 44.25,
            "velocity": 0.4645669291338583
          },
          {
            "duration": 0.09375,
            "durationTicks": 96,
            "midi": 42,
            "name": "F#2",
            "ticks": 45504,
            "time": 44.4375,
            "velocity": 0.6692913385826772
          },
          {
            "duration": 0.1875,
            "durationTicks": 192,
            "midi": 42,
            "name": "F#2",
            "ticks": 45504,
            "time": 44.4375,
            "velocity": 0.4645669291338583
          },
          {
            "duration": 0.09375,
            "durationTicks": 96,
            "midi": 40,
            "name": "E2",
            "ticks": 45696,
            "time": 44.625,
            "velocity": 0.4645669291338583
          },
          {
            "duration": 0.1875,
            "durationTicks": 192,
            "midi": 40,
            "name": "E2",
            "ticks": 45696,
            "time": 44.625,
            "velocity": 0.6692913385826772
          },
          {
            "duration": 0.09375,
            "durationTicks": 96,
            "midi": 38,
            "name": "D2",
            "ticks": 45888,
            "time": 44.8125,
            "velocity": 0.4645669291338583
          },
          {
            "duration": 0.1875,
            "durationTicks": 192,
            "midi": 38,
            "name": "D2",
            "ticks": 45888,
            "time": 44.8125,
            "velocity": 0.6692913385826772
          },
          {
            "duration": 0.28125,
            "durationTicks": 288,
            "midi": 43,
            "name": "G2",
            "ticks": 46080,
            "time": 45,
            "velocity": 0.6692913385826772
          },
          {
            "duration": 0.28125,
            "durationTicks": 288,
            "midi": 31,
            "name": "G1",
            "ticks": 46080,
            "time": 45,
            "velocity": 0.4645669291338583
          },
          {
            "duration": 0.1875,
            "durationTicks": 192,
            "midi": 38,
            "name": "D2",
            "ticks": 46464,
            "time": 45.375,
            "velocity": 0.6692913385826772
          },
          {
            "duration": 0.28125,
            "durationTicks": 288,
            "midi": 26,
            "name": "D1",
            "ticks": 46464,
            "time": 45.375,
            "velocity": 0.4645669291338583
          },
          {
            "duration": 0.09375,
            "durationTicks": 96,
            "midi": 43,
            "name": "G2",
            "ticks": 46752,
            "time": 45.65625,
            "velocity": 0.6692913385826772
          },
          {
            "duration": 0.09375,
            "durationTicks": 96,
            "midi": 31,
            "name": "G1",
            "ticks": 46752,
            "time": 45.65625,
            "velocity": 0.4645669291338583
          },
          {
            "duration": 0.09375,
            "durationTicks": 96,
            "midi": 43,
            "name": "G2",
            "ticks": 46848,
            "time": 45.75,
            "velocity": 0.6692913385826772
          },
          {
            "duration": 0.1875,
            "durationTicks": 192,
            "midi": 31,
            "name": "G1",
            "ticks": 46848,
            "time": 45.75,
            "velocity": 0.4645669291338583
          },
          {
            "duration": 0.1875,
            "durationTicks": 192,
            "midi": 31,
            "name": "G1",
            "ticks": 47040,
            "time": 45.9375,
            "velocity": 0.4645669291338583
          },
          {
            "duration": 0.09375,
            "durationTicks": 96,
            "midi": 43,
            "name": "G2",
            "ticks": 47040,
            "time": 45.9375,
            "velocity": 0.6692913385826772
          },
          {
            "duration": 0.09375,
            "durationTicks": 96,
            "midi": 45,
            "name": "A2",
            "ticks": 47232,
            "time": 46.125,
            "velocity": 0.6692913385826772
          },
          {
            "duration": 0.1875,
            "durationTicks": 192,
            "midi": 33,
            "name": "A1",
            "ticks": 47232,
            "time": 46.125,
            "velocity": 0.4645669291338583
          },
          {
            "duration": 0.09375,
            "durationTicks": 96,
            "midi": 47,
            "name": "B2",
            "ticks": 47424,
            "time": 46.3125,
            "velocity": 0.6692913385826772
          },
          {
            "duration": 0.1875,
            "durationTicks": 192,
            "midi": 35,
            "name": "B1",
            "ticks": 47424,
            "time": 46.3125,
            "velocity": 0.4645669291338583
          },
          {
            "duration": 0.28125,
            "durationTicks": 288,
            "midi": 36,
            "name": "C2",
            "ticks": 47616,
            "time": 46.5,
            "velocity": 0.4645669291338583
          },
          {
            "duration": 0.28125,
            "durationTicks": 288,
            "midi": 48,
            "name": "C3",
            "ticks": 47616,
            "time": 46.5,
            "velocity": 0.6692913385826772
          },
          {
            "duration": 0.28125,
            "durationTicks": 288,
            "midi": 31,
            "name": "G1",
            "ticks": 48000,
            "time": 46.875,
            "velocity": 0.4645669291338583
          },
          {
            "duration": 0.1875,
            "durationTicks": 192,
            "midi": 43,
            "name": "G2",
            "ticks": 48000,
            "time": 46.875,
            "velocity": 0.6692913385826772
          },
          {
            "duration": 0.09375,
            "durationTicks": 96,
            "midi": 31,
            "name": "G1",
            "ticks": 48288,
            "time": 47.15625,
            "velocity": 0.4645669291338583
          },
          {
            "duration": 0.09375,
            "durationTicks": 96,
            "midi": 43,
            "name": "G2",
            "ticks": 48288,
            "time": 47.15625,
            "velocity": 0.6692913385826772
          },
          {
            "duration": 0.1875,
            "durationTicks": 192,
            "midi": 36,
            "name": "C2",
            "ticks": 48384,
            "time": 47.25,
            "velocity": 0.4645669291338583
          },
          {
            "duration": 0.09375,
            "durationTicks": 96,
            "midi": 48,
            "name": "C3",
            "ticks": 48384,
            "time": 47.25,
            "velocity": 0.6692913385826772
          },
          {
            "duration": 0.09375,
            "durationTicks": 96,
            "midi": 48,
            "name": "C3",
            "ticks": 48576,
            "time": 47.4375,
            "velocity": 0.6692913385826772
          },
          {
            "duration": 0.1875,
            "durationTicks": 192,
            "midi": 36,
            "name": "C2",
            "ticks": 48576,
            "time": 47.4375,
            "velocity": 0.4645669291338583
          },
          {
            "duration": 0.1875,
            "durationTicks": 192,
            "midi": 31,
            "name": "G1",
            "ticks": 48768,
            "time": 47.625,
            "velocity": 0.4645669291338583
          },
          {
            "duration": 0.09375,
            "durationTicks": 96,
            "midi": 43,
            "name": "G2",
            "ticks": 48768,
            "time": 47.625,
            "velocity": 0.6692913385826772
          },
          {
            "duration": 0.09375,
            "durationTicks": 96,
            "midi": 48,
            "name": "C3",
            "ticks": 48960,
            "time": 47.8125,
            "velocity": 0.6692913385826772
          },
          {
            "duration": 0.1875,
            "durationTicks": 192,
            "midi": 36,
            "name": "C2",
            "ticks": 48960,
            "time": 47.8125,
            "velocity": 0.4645669291338583
          },
          {
            "duration": 0.28125,
            "durationTicks": 288,
            "midi": 31,
            "name": "G1",
            "ticks": 49152,
            "time": 48,
            "velocity": 0.4645669291338583
          },
          {
            "duration": 0.28125,
            "durationTicks": 288,
            "midi": 43,
            "name": "G2",
            "ticks": 49152,
            "time": 48,
            "velocity": 0.6692913385826772
          },
          {
            "duration": 0.28125,
            "durationTicks": 288,
            "midi": 35,
            "name": "B1",
            "ticks": 49536,
            "time": 48.375,
            "velocity": 0.4645669291338583
          },
          {
            "duration": 0.1875,
            "durationTicks": 192,
            "midi": 47,
            "name": "B2",
            "ticks": 49536,
            "time": 48.375,
            "velocity": 0.6692913385826772
          },
          {
            "duration": 0.09375,
            "durationTicks": 96,
            "midi": 36,
            "name": "C2",
            "ticks": 49824,
            "time": 48.65625,
            "velocity": 0.4645669291338583
          },
          {
            "duration": 0.09375,
            "durationTicks": 96,
            "midi": 48,
            "name": "C3",
            "ticks": 49824,
            "time": 48.65625,
            "velocity": 0.6692913385826772
          },
          {
            "duration": 0.1875,
            "durationTicks": 192,
            "midi": 38,
            "name": "D2",
            "ticks": 49920,
            "time": 48.75,
            "velocity": 0.4645669291338583
          },
          {
            "duration": 0.09375,
            "durationTicks": 96,
            "midi": 50,
            "name": "D3",
            "ticks": 49920,
            "time": 48.75,
            "velocity": 0.6692913385826772
          },
          {
            "duration": 0.1875,
            "durationTicks": 192,
            "midi": 26,
            "name": "D1",
            "ticks": 50112,
            "time": 48.9375,
            "velocity": 0.4645669291338583
          },
          {
            "duration": 0.09375,
            "durationTicks": 96,
            "midi": 38,
            "name": "D2",
            "ticks": 50112,
            "time": 48.9375,
            "velocity": 0.6692913385826772
          },
          {
            "duration": 0.09375,
            "durationTicks": 96,
            "midi": 45,
            "name": "A2",
            "ticks": 50304,
            "time": 49.125,
            "velocity": 0.6692913385826772
          },
          {
            "duration": 0.1875,
            "durationTicks": 192,
            "midi": 33,
            "name": "A1",
            "ticks": 50304,
            "time": 49.125,
            "velocity": 0.4645669291338583
          },
          {
            "duration": 0.1875,
            "durationTicks": 192,
            "midi": 30,
            "name": "F#1",
            "ticks": 50496,
            "time": 49.3125,
            "velocity": 0.4645669291338583
          },
          {
            "duration": 0.09375,
            "durationTicks": 96,
            "midi": 42,
            "name": "F#2",
            "ticks": 50496,
            "time": 49.3125,
            "velocity": 0.6692913385826772
          },
          {
            "duration": 0.09375,
            "durationTicks": 96,
            "midi": 43,
            "name": "G2",
            "ticks": 50688,
            "time": 49.5,
            "velocity": 0.4645669291338583
          },
          {
            "duration": 0.1875,
            "durationTicks": 192,
            "midi": 43,
            "name": "G2",
            "ticks": 50688,
            "time": 49.5,
            "velocity": 0.6692913385826772
          },
          {
            "duration": 0.09375,
            "durationTicks": 96,
            "midi": 40,
            "name": "E2",
            "ticks": 50880,
            "time": 49.6875,
            "velocity": 0.6692913385826772
          },
          {
            "duration": 0.1875,
            "durationTicks": 192,
            "midi": 40,
            "name": "E2",
            "ticks": 50880,
            "time": 49.6875,
            "velocity": 0.4645669291338583
          },
          {
            "duration": 0.09375,
            "durationTicks": 96,
            "midi": 38,
            "name": "D2",
            "ticks": 51072,
            "time": 49.875,
            "velocity": 0.6692913385826772
          },
          {
            "duration": 0.1875,
            "durationTicks": 192,
            "midi": 38,
            "name": "D2",
            "ticks": 51072,
            "time": 49.875,
            "velocity": 0.4645669291338583
          },
          {
            "duration": 0.09375,
            "durationTicks": 96,
            "midi": 35,
            "name": "B1",
            "ticks": 51264,
            "time": 50.0625,
            "velocity": 0.6692913385826772
          },
          {
            "duration": 0.1875,
            "durationTicks": 192,
            "midi": 35,
            "name": "B1",
            "ticks": 51264,
            "time": 50.0625,
            "velocity": 0.4645669291338583
          },
          {
            "duration": 0.09375,
            "durationTicks": 96,
            "midi": 31,
            "name": "G1",
            "ticks": 51456,
            "time": 50.25,
            "velocity": 0.6692913385826772
          },
          {
            "duration": 0.1875,
            "durationTicks": 192,
            "midi": 31,
            "name": "G1",
            "ticks": 51456,
            "time": 50.25,
            "velocity": 0.4645669291338583
          },
          {
            "duration": 0.09375,
            "durationTicks": 96,
            "midi": 33,
            "name": "A1",
            "ticks": 51648,
            "time": 50.4375,
            "velocity": 0.6692913385826772
          },
          {
            "duration": 0.1875,
            "durationTicks": 192,
            "midi": 33,
            "name": "A1",
            "ticks": 51648,
            "time": 50.4375,
            "velocity": 0.4645669291338583
          },
          {
            "duration": 0.09375,
            "durationTicks": 96,
            "midi": 35,
            "name": "B1",
            "ticks": 51840,
            "time": 50.625,
            "velocity": 0.6692913385826772
          },
          {
            "duration": 0.1875,
            "durationTicks": 192,
            "midi": 35,
            "name": "B1",
            "ticks": 51840,
            "time": 50.625,
            "velocity": 0.4645669291338583
          },
          {
            "duration": 0.09375,
            "durationTicks": 96,
            "midi": 38,
            "name": "D2",
            "ticks": 52032,
            "time": 50.8125,
            "velocity": 0.6692913385826772
          },
          {
            "duration": 0.1875,
            "durationTicks": 192,
            "midi": 38,
            "name": "D2",
            "ticks": 52032,
            "time": 50.8125,
            "velocity": 0.4645669291338583
          },
          {
            "duration": 0.1875,
            "durationTicks": 192,
            "midi": 31,
            "name": "G1",
            "ticks": 52224,
            "time": 51,
            "velocity": 0.4645669291338583
          }
        ],
        "endOfTrackTicks": 52416
      },
      {
        "channel": 1,
        "controlChanges": {},
        "pitchBends": [],
        "instrument": {
          "family": "synth lead",
          "number": 80,
          "name": "lead 1 (square)"
        },
        "name": "8-Bit Square",
        "notes": [
          {
            "duration": 0.1875,
            "durationTicks": 192,
            "midi": 55,
            "name": "G3",
            "ticks": 2496,
            "time": 2.4375,
            "velocity": 0.2677165354330709
          },
          {
            "duration": 0.1875,
            "durationTicks": 192,
            "midi": 59,
            "name": "B3",
            "ticks": 2496,
            "time": 2.4375,
            "velocity": 0.2677165354330709
          },
          {
            "duration": 0.1875,
            "durationTicks": 192,
            "midi": 57,
            "name": "A3",
            "ticks": 2688,
            "time": 2.625,
            "velocity": 0.2677165354330709
          },
          {
            "duration": 0.1875,
            "durationTicks": 192,
            "midi": 60,
            "name": "C4",
            "ticks": 2688,
            "time": 2.625,
            "velocity": 0.2677165354330709
          },
          {
            "duration": 0.1875,
            "durationTicks": 192,
            "midi": 58,
            "name": "A#3",
            "ticks": 2880,
            "time": 2.8125,
            "velocity": 0.2677165354330709
          },
          {
            "duration": 0.1875,
            "durationTicks": 192,
            "midi": 61,
            "name": "C#4",
            "ticks": 2880,
            "time": 2.8125,
            "velocity": 0.2677165354330709
          },
          {
            "duration": 0.09375,
            "durationTicks": 96,
            "midi": 62,
            "name": "D4",
            "ticks": 3072,
            "time": 3,
            "velocity": 0.2125984251968504
          },
          {
            "duration": 0.09375,
            "durationTicks": 96,
            "midi": 55,
            "name": "G3",
            "ticks": 3168,
            "time": 3.09375,
            "velocity": 0.2125984251968504
          },
          {
            "duration": 0.09375,
            "durationTicks": 96,
            "midi": 59,
            "name": "B3",
            "ticks": 3264,
            "time": 3.1875,
            "velocity": 0.2125984251968504
          },
          {
            "duration": 0.09375,
            "durationTicks": 96,
            "midi": 62,
            "name": "D4",
            "ticks": 3360,
            "time": 3.28125,
            "velocity": 0.2125984251968504
          },
          {
            "duration": 0.09375,
            "durationTicks": 96,
            "midi": 55,
            "name": "G3",
            "ticks": 3456,
            "time": 3.375,
            "velocity": 0.2125984251968504
          },
          {
            "duration": 0.09375,
            "durationTicks": 96,
            "midi": 59,
            "name": "B3",
            "ticks": 3552,
            "time": 3.46875,
            "velocity": 0.2125984251968504
          },
          {
            "duration": 0.09375,
            "durationTicks": 96,
            "midi": 62,
            "name": "D4",
            "ticks": 3648,
            "time": 3.5625,
            "velocity": 0.2125984251968504
          },
          {
            "duration": 0.09375,
            "durationTicks": 96,
            "midi": 55,
            "name": "G3",
            "ticks": 3744,
            "time": 3.65625,
            "velocity": 0.2125984251968504
          },
          {
            "duration": 0.09375,
            "durationTicks": 96,
            "midi": 59,
            "name": "B3",
            "ticks": 3840,
            "time": 3.75,
            "velocity": 0.2125984251968504
          },
          {
            "duration": 0.09375,
            "durationTicks": 96,
            "midi": 62,
            "name": "D4",
            "ticks": 3936,
            "time": 3.84375,
            "velocity": 0.2125984251968504
          },
          {
            "duration": 0.09375,
            "durationTicks": 96,
            "midi": 55,
            "name": "G3",
            "ticks": 4032,
            "time": 3.9375,
            "velocity": 0.2125984251968504
          },
          {
            "duration": 0.09375,
            "durationTicks": 96,
            "midi": 59,
            "name": "B3",
            "ticks": 4128,
            "time": 4.03125,
            "velocity": 0.2125984251968504
          },
          {
            "duration": 0.09375,
            "durationTicks": 96,
            "midi": 62,
            "name": "D4",
            "ticks": 4224,
            "time": 4.125,
            "velocity": 0.2125984251968504
          },
          {
            "duration": 0.09375,
            "durationTicks": 96,
            "midi": 55,
            "name": "G3",
            "ticks": 4320,
            "time": 4.21875,
            "velocity": 0.2125984251968504
          },
          {
            "duration": 0.09375,
            "durationTicks": 96,
            "midi": 59,
            "name": "B3",
            "ticks": 4416,
            "time": 4.3125,
            "velocity": 0.2125984251968504
          },
          {
            "duration": 0.09375,
            "durationTicks": 96,
            "midi": 63,
            "name": "D#4",
            "ticks": 4512,
            "time": 4.40625,
            "velocity": 0.2125984251968504
          },
          {
            "duration": 0.09375,
            "durationTicks": 96,
            "midi": 64,
            "name": "E4",
            "ticks": 4608,
            "time": 4.5,
            "velocity": 0.2125984251968504
          },
          {
            "duration": 0.09375,
            "durationTicks": 96,
            "midi": 60,
            "name": "C4",
            "ticks": 4704,
            "time": 4.59375,
            "velocity": 0.2125984251968504
          },
          {
            "duration": 0.09375,
            "durationTicks": 96,
            "midi": 55,
            "name": "G3",
            "ticks": 4800,
            "time": 4.6875,
            "velocity": 0.2125984251968504
          },
          {
            "duration": 0.09375,
            "durationTicks": 96,
            "midi": 64,
            "name": "E4",
            "ticks": 4896,
            "time": 4.78125,
            "velocity": 0.2125984251968504
          },
          {
            "duration": 0.09375,
            "durationTicks": 96,
            "midi": 60,
            "name": "C4",
            "ticks": 4992,
            "time": 4.875,
            "velocity": 0.2125984251968504
          },
          {
            "duration": 0.09375,
            "durationTicks": 96,
            "midi": 55,
            "name": "G3",
            "ticks": 5088,
            "time": 4.96875,
            "velocity": 0.2125984251968504
          },
          {
            "duration": 0.09375,
            "durationTicks": 96,
            "midi": 64,
            "name": "E4",
            "ticks": 5184,
            "time": 5.0625,
            "velocity": 0.2125984251968504
          },
          {
            "duration": 0.09375,
            "durationTicks": 96,
            "midi": 60,
            "name": "C4",
            "ticks": 5280,
            "time": 5.15625,
            "velocity": 0.2125984251968504
          },
          {
            "duration": 0.09375,
            "durationTicks": 96,
            "midi": 55,
            "name": "G3",
            "ticks": 5376,
            "time": 5.25,
            "velocity": 0.2125984251968504
          },
          {
            "duration": 0.09375,
            "durationTicks": 96,
            "midi": 67,
            "name": "G4",
            "ticks": 5472,
            "time": 5.34375,
            "velocity": 0.2125984251968504
          },
          {
            "duration": 0.09375,
            "durationTicks": 96,
            "midi": 64,
            "name": "E4",
            "ticks": 5568,
            "time": 5.4375,
            "velocity": 0.2125984251968504
          },
          {
            "duration": 0.09375,
            "durationTicks": 96,
            "midi": 55,
            "name": "G3",
            "ticks": 5664,
            "time": 5.53125,
            "velocity": 0.2125984251968504
          },
          {
            "duration": 0.09375,
            "durationTicks": 96,
            "midi": 62,
            "name": "D4",
            "ticks": 5760,
            "time": 5.625,
            "velocity": 0.2125984251968504
          },
          {
            "duration": 0.09375,
            "durationTicks": 96,
            "midi": 55,
            "name": "G3",
            "ticks": 5856,
            "time": 5.71875,
            "velocity": 0.2125984251968504
          },
          {
            "duration": 0.09375,
            "durationTicks": 96,
            "midi": 60,
            "name": "C4",
            "ticks": 5952,
            "time": 5.8125,
            "velocity": 0.2125984251968504
          },
          {
            "duration": 0.09375,
            "durationTicks": 96,
            "midi": 55,
            "name": "G3",
            "ticks": 6048,
            "time": 5.90625,
            "velocity": 0.2125984251968504
          },
          {
            "duration": 0.09375,
            "durationTicks": 96,
            "midi": 62,
            "name": "D4",
            "ticks": 6144,
            "time": 6,
            "velocity": 0.2125984251968504
          },
          {
            "duration": 0.09375,
            "durationTicks": 96,
            "midi": 55,
            "name": "G3",
            "ticks": 6240,
            "time": 6.09375,
            "velocity": 0.2125984251968504
          },
          {
            "duration": 0.09375,
            "durationTicks": 96,
            "midi": 59,
            "name": "B3",
            "ticks": 6336,
            "time": 6.1875,
            "velocity": 0.2125984251968504
          },
          {
            "duration": 0.09375,
            "durationTicks": 96,
            "midi": 62,
            "name": "D4",
            "ticks": 6432,
            "time": 6.28125,
            "velocity": 0.2125984251968504
          },
          {
            "duration": 0.09375,
            "durationTicks": 96,
            "midi": 55,
            "name": "G3",
            "ticks": 6528,
            "time": 6.375,
            "velocity": 0.2125984251968504
          },
          {
            "duration": 0.09375,
            "durationTicks": 96,
            "midi": 59,
            "name": "B3",
            "ticks": 6624,
            "time": 6.46875,
            "velocity": 0.2125984251968504
          },
          {
            "duration": 0.09375,
            "durationTicks": 96,
            "midi": 62,
            "name": "D4",
            "ticks": 6720,
            "time": 6.5625,
            "velocity": 0.2125984251968504
          },
          {
            "duration": 0.09375,
            "durationTicks": 96,
            "midi": 55,
            "name": "G3",
            "ticks": 6816,
            "time": 6.65625,
            "velocity": 0.2125984251968504
          },
          {
            "duration": 0.09375,
            "durationTicks": 96,
            "midi": 59,
            "name": "B3",
            "ticks": 6912,
            "time": 6.75,
            "velocity": 0.2125984251968504
          },
          {
            "duration": 0.09375,
            "durationTicks": 96,
            "midi": 62,
            "name": "D4",
            "ticks": 7008,
            "time": 6.84375,
            "velocity": 0.2125984251968504
          },
          {
            "duration": 0.09375,
            "durationTicks": 96,
            "midi": 55,
            "name": "G3",
            "ticks": 7104,
            "time": 6.9375,
            "velocity": 0.2125984251968504
          },
          {
            "duration": 0.09375,
            "durationTicks": 96,
            "midi": 59,
            "name": "B3",
            "ticks": 7200,
            "time": 7.03125,
            "velocity": 0.2125984251968504
          },
          {
            "duration": 0.09375,
            "durationTicks": 96,
            "midi": 60,
            "name": "C4",
            "ticks": 7296,
            "time": 7.125,
            "velocity": 0.2125984251968504
          },
          {
            "duration": 0.09375,
            "durationTicks": 96,
            "midi": 55,
            "name": "G3",
            "ticks": 7392,
            "time": 7.21875,
            "velocity": 0.2125984251968504
          },
          {
            "duration": 0.09375,
            "durationTicks": 96,
            "midi": 59,
            "name": "B3",
            "ticks": 7488,
            "time": 7.3125,
            "velocity": 0.2125984251968504
          },
          {
            "duration": 0.09375,
            "durationTicks": 96,
            "midi": 55,
            "name": "G3",
            "ticks": 7584,
            "time": 7.40625,
            "velocity": 0.2125984251968504
          },
          {
            "duration": 0.09375,
            "durationTicks": 96,
            "midi": 62,
            "name": "D4",
            "ticks": 7680,
            "time": 7.5,
            "velocity": 0.2125984251968504
          },
          {
            "duration": 0.09375,
            "durationTicks": 96,
            "midi": 54,
            "name": "F#3",
            "ticks": 7776,
            "time": 7.59375,
            "velocity": 0.2125984251968504
          },
          {
            "duration": 0.09375,
            "durationTicks": 96,
            "midi": 57,
            "name": "A3",
            "ticks": 7872,
            "time": 7.6875,
            "velocity": 0.2125984251968504
          },
          {
            "duration": 0.09375,
            "durationTicks": 96,
            "midi": 62,
            "name": "D4",
            "ticks": 7968,
            "time": 7.78125,
            "velocity": 0.2125984251968504
          },
          {
            "duration": 0.09375,
            "durationTicks": 96,
            "midi": 54,
            "name": "F#3",
            "ticks": 8064,
            "time": 7.875,
            "velocity": 0.2125984251968504
          },
          {
            "duration": 0.09375,
            "durationTicks": 96,
            "midi": 57,
            "name": "A3",
            "ticks": 8160,
            "time": 7.96875,
            "velocity": 0.2125984251968504
          },
          {
            "duration": 0.09375,
            "durationTicks": 96,
            "midi": 62,
            "name": "D4",
            "ticks": 8256,
            "time": 8.0625,
            "velocity": 0.2125984251968504
          },
          {
            "duration": 0.09375,
            "durationTicks": 96,
            "midi": 54,
            "name": "F#3",
            "ticks": 8352,
            "time": 8.15625,
            "velocity": 0.2125984251968504
          },
          {
            "duration": 0.09375,
            "durationTicks": 96,
            "midi": 57,
            "name": "A3",
            "ticks": 8448,
            "time": 8.25,
            "velocity": 0.2125984251968504
          },
          {
            "duration": 0.09375,
            "durationTicks": 96,
            "midi": 62,
            "name": "D4",
            "ticks": 8544,
            "time": 8.34375,
            "velocity": 0.2125984251968504
          },
          {
            "duration": 0.09375,
            "durationTicks": 96,
            "midi": 54,
            "name": "F#3",
            "ticks": 8640,
            "time": 8.4375,
            "velocity": 0.2125984251968504
          },
          {
            "duration": 0.09375,
            "durationTicks": 96,
            "midi": 57,
            "name": "A3",
            "ticks": 8736,
            "time": 8.53125,
            "velocity": 0.2125984251968504
          },
          {
            "duration": 0.09375,
            "durationTicks": 96,
            "midi": 64,
            "name": "E4",
            "ticks": 8832,
            "time": 8.625,
            "velocity": 0.2125984251968504
          },
          {
            "duration": 0.09375,
            "durationTicks": 96,
            "midi": 54,
            "name": "F#3",
            "ticks": 8928,
            "time": 8.71875,
            "velocity": 0.2125984251968504
          },
          {
            "duration": 0.09375,
            "durationTicks": 96,
            "midi": 62,
            "name": "D4",
            "ticks": 9024,
            "time": 8.8125,
            "velocity": 0.2125984251968504
          },
          {
            "duration": 0.09375,
            "durationTicks": 96,
            "midi": 54,
            "name": "F#3",
            "ticks": 9120,
            "time": 8.90625,
            "velocity": 0.2125984251968504
          },
          {
            "duration": 0.09375,
            "durationTicks": 96,
            "midi": 62,
            "name": "D4",
            "ticks": 9216,
            "time": 9,
            "velocity": 0.2125984251968504
          },
          {
            "duration": 0.09375,
            "durationTicks": 96,
            "midi": 55,
            "name": "G3",
            "ticks": 9312,
            "time": 9.09375,
            "velocity": 0.2125984251968504
          },
          {
            "duration": 0.09375,
            "durationTicks": 96,
            "midi": 59,
            "name": "B3",
            "ticks": 9408,
            "time": 9.1875,
            "velocity": 0.2125984251968504
          },
          {
            "duration": 0.09375,
            "durationTicks": 96,
            "midi": 62,
            "name": "D4",
            "ticks": 9504,
            "time": 9.28125,
            "velocity": 0.2125984251968504
          },
          {
            "duration": 0.09375,
            "durationTicks": 96,
            "midi": 55,
            "name": "G3",
            "ticks": 9600,
            "time": 9.375,
            "velocity": 0.2125984251968504
          },
          {
            "duration": 0.09375,
            "durationTicks": 96,
            "midi": 59,
            "name": "B3",
            "ticks": 9696,
            "time": 9.46875,
            "velocity": 0.2125984251968504
          },
          {
            "duration": 0.09375,
            "durationTicks": 96,
            "midi": 62,
            "name": "D4",
            "ticks": 9792,
            "time": 9.5625,
            "velocity": 0.2125984251968504
          },
          {
            "duration": 0.09375,
            "durationTicks": 96,
            "midi": 55,
            "name": "G3",
            "ticks": 9888,
            "time": 9.65625,
            "velocity": 0.2125984251968504
          },
          {
            "duration": 0.09375,
            "durationTicks": 96,
            "midi": 59,
            "name": "B3",
            "ticks": 9984,
            "time": 9.75,
            "velocity": 0.2125984251968504
          },
          {
            "duration": 0.09375,
            "durationTicks": 96,
            "midi": 62,
            "name": "D4",
            "ticks": 10080,
            "time": 9.84375,
            "velocity": 0.2125984251968504
          },
          {
            "duration": 0.09375,
            "durationTicks": 96,
            "midi": 55,
            "name": "G3",
            "ticks": 10176,
            "time": 9.9375,
            "velocity": 0.2125984251968504
          },
          {
            "duration": 0.09375,
            "durationTicks": 96,
            "midi": 59,
            "name": "B3",
            "ticks": 10272,
            "time": 10.03125,
            "velocity": 0.2125984251968504
          },
          {
            "duration": 0.09375,
            "durationTicks": 96,
            "midi": 62,
            "name": "D4",
            "ticks": 10368,
            "time": 10.125,
            "velocity": 0.2125984251968504
          },
          {
            "duration": 0.09375,
            "durationTicks": 96,
            "midi": 55,
            "name": "G3",
            "ticks": 10464,
            "time": 10.21875,
            "velocity": 0.2125984251968504
          },
          {
            "duration": 0.09375,
            "durationTicks": 96,
            "midi": 59,
            "name": "B3",
            "ticks": 10560,
            "time": 10.3125,
            "velocity": 0.2125984251968504
          },
          {
            "duration": 0.09375,
            "durationTicks": 96,
            "midi": 63,
            "name": "D#4",
            "ticks": 10656,
            "time": 10.40625,
            "velocity": 0.2125984251968504
          },
          {
            "duration": 0.09375,
            "durationTicks": 96,
            "midi": 64,
            "name": "E4",
            "ticks": 10752,
            "time": 10.5,
            "velocity": 0.2125984251968504
          },
          {
            "duration": 0.09375,
            "durationTicks": 96,
            "midi": 55,
            "name": "G3",
            "ticks": 10848,
            "time": 10.59375,
            "velocity": 0.2125984251968504
          },
          {
            "duration": 0.09375,
            "durationTicks": 96,
            "midi": 60,
            "name": "C4",
            "ticks": 10944,
            "time": 10.6875,
            "velocity": 0.2125984251968504
          },
          {
            "duration": 0.09375,
            "durationTicks": 96,
            "midi": 64,
            "name": "E4",
            "ticks": 11040,
            "time": 10.78125,
            "velocity": 0.2125984251968504
          },
          {
            "duration": 0.09375,
            "durationTicks": 96,
            "midi": 55,
            "name": "G3",
            "ticks": 11136,
            "time": 10.875,
            "velocity": 0.2125984251968504
          },
          {
            "duration": 0.09375,
            "durationTicks": 96,
            "midi": 60,
            "name": "C4",
            "ticks": 11232,
            "time": 10.96875,
            "velocity": 0.2125984251968504
          },
          {
            "duration": 0.09375,
            "durationTicks": 96,
            "midi": 64,
            "name": "E4",
            "ticks": 11328,
            "time": 11.0625,
            "velocity": 0.2125984251968504
          },
          {
            "duration": 0.09375,
            "durationTicks": 96,
            "midi": 55,
            "name": "G3",
            "ticks": 11424,
            "time": 11.15625,
            "velocity": 0.2125984251968504
          },
          {
            "duration": 0.09375,
            "durationTicks": 96,
            "midi": 60,
            "name": "C4",
            "ticks": 11520,
            "time": 11.25,
            "velocity": 0.2125984251968504
          },
          {
            "duration": 0.09375,
            "durationTicks": 96,
            "midi": 64,
            "name": "E4",
            "ticks": 11616,
            "time": 11.34375,
            "velocity": 0.2125984251968504
          },
          {
            "duration": 0.09375,
            "durationTicks": 96,
            "midi": 55,
            "name": "G3",
            "ticks": 11712,
            "time": 11.4375,
            "velocity": 0.2125984251968504
          },
          {
            "duration": 0.09375,
            "durationTicks": 96,
            "midi": 60,
            "name": "C4",
            "ticks": 11808,
            "time": 11.53125,
            "velocity": 0.2125984251968504
          },
          {
            "duration": 0.09375,
            "durationTicks": 96,
            "midi": 64,
            "name": "E4",
            "ticks": 11904,
            "time": 11.625,
            "velocity": 0.2125984251968504
          },
          {
            "duration": 0.09375,
            "durationTicks": 96,
            "midi": 55,
            "name": "G3",
            "ticks": 12000,
            "time": 11.71875,
            "velocity": 0.2125984251968504
          },
          {
            "duration": 0.09375,
            "durationTicks": 96,
            "midi": 60,
            "name": "C4",
            "ticks": 12096,
            "time": 11.8125,
            "velocity": 0.2125984251968504
          },
          {
            "duration": 0.09375,
            "durationTicks": 96,
            "midi": 55,
            "name": "G3",
            "ticks": 12192,
            "time": 11.90625,
            "velocity": 0.2125984251968504
          },
          {
            "duration": 0.09375,
            "durationTicks": 96,
            "midi": 62,
            "name": "D4",
            "ticks": 12288,
            "time": 12,
            "velocity": 0.2125984251968504
          },
          {
            "duration": 0.09375,
            "durationTicks": 96,
            "midi": 55,
            "name": "G3",
            "ticks": 12384,
            "time": 12.09375,
            "velocity": 0.2125984251968504
          },
          {
            "duration": 0.09375,
            "durationTicks": 96,
            "midi": 59,
            "name": "B3",
            "ticks": 12480,
            "time": 12.1875,
            "velocity": 0.2125984251968504
          },
          {
            "duration": 0.09375,
            "durationTicks": 96,
            "midi": 62,
            "name": "D4",
            "ticks": 12576,
            "time": 12.28125,
            "velocity": 0.2125984251968504
          },
          {
            "duration": 0.09375,
            "durationTicks": 96,
            "midi": 55,
            "name": "G3",
            "ticks": 12672,
            "time": 12.375,
            "velocity": 0.2125984251968504
          },
          {
            "duration": 0.09375,
            "durationTicks": 96,
            "midi": 59,
            "name": "B3",
            "ticks": 12768,
            "time": 12.46875,
            "velocity": 0.2125984251968504
          },
          {
            "duration": 0.09375,
            "durationTicks": 96,
            "midi": 62,
            "name": "D4",
            "ticks": 12864,
            "time": 12.5625,
            "velocity": 0.2125984251968504
          },
          {
            "duration": 0.09375,
            "durationTicks": 96,
            "midi": 55,
            "name": "G3",
            "ticks": 12960,
            "time": 12.65625,
            "velocity": 0.2125984251968504
          },
          {
            "duration": 0.09375,
            "durationTicks": 96,
            "midi": 62,
            "name": "D4",
            "ticks": 13056,
            "time": 12.75,
            "velocity": 0.2125984251968504
          },
          {
            "duration": 0.09375,
            "durationTicks": 96,
            "midi": 54,
            "name": "F#3",
            "ticks": 13152,
            "time": 12.84375,
            "velocity": 0.2125984251968504
          },
          {
            "duration": 0.09375,
            "durationTicks": 96,
            "midi": 64,
            "name": "E4",
            "ticks": 13248,
            "time": 12.9375,
            "velocity": 0.2125984251968504
          },
          {
            "duration": 0.09375,
            "durationTicks": 96,
            "midi": 62,
            "name": "D4",
            "ticks": 13344,
            "time": 13.03125,
            "velocity": 0.2125984251968504
          },
          {
            "duration": 0.09375,
            "durationTicks": 96,
            "midi": 54,
            "name": "F#3",
            "ticks": 13440,
            "time": 13.125,
            "velocity": 0.2125984251968504
          },
          {
            "duration": 0.09375,
            "durationTicks": 96,
            "midi": 57,
            "name": "A3",
            "ticks": 13536,
            "time": 13.21875,
            "velocity": 0.2125984251968504
          },
          {
            "duration": 0.09375,
            "durationTicks": 96,
            "midi": 62,
            "name": "D4",
            "ticks": 13632,
            "time": 13.3125,
            "velocity": 0.2125984251968504
          },
          {
            "duration": 0.09375,
            "durationTicks": 96,
            "midi": 54,
            "name": "F#3",
            "ticks": 13728,
            "time": 13.40625,
            "velocity": 0.2125984251968504
          },
          {
            "duration": 0.09375,
            "durationTicks": 96,
            "midi": 62,
            "name": "D4",
            "ticks": 13824,
            "time": 13.5,
            "velocity": 0.2125984251968504
          },
          {
            "duration": 0.09375,
            "durationTicks": 96,
            "midi": 55,
            "name": "G3",
            "ticks": 13920,
            "time": 13.59375,
            "velocity": 0.2125984251968504
          },
          {
            "duration": 0.09375,
            "durationTicks": 96,
            "midi": 59,
            "name": "B3",
            "ticks": 14016,
            "time": 13.6875,
            "velocity": 0.2125984251968504
          },
          {
            "duration": 0.09375,
            "durationTicks": 96,
            "midi": 62,
            "name": "D4",
            "ticks": 14112,
            "time": 13.78125,
            "velocity": 0.2125984251968504
          },
          {
            "duration": 0.09375,
            "durationTicks": 96,
            "midi": 55,
            "name": "G3",
            "ticks": 14208,
            "time": 13.875,
            "velocity": 0.2125984251968504
          },
          {
            "duration": 0.09375,
            "durationTicks": 96,
            "midi": 58,
            "name": "A#3",
            "ticks": 14304,
            "time": 13.96875,
            "velocity": 0.2125984251968504
          },
          {
            "duration": 0.09375,
            "durationTicks": 96,
            "midi": 57,
            "name": "A3",
            "ticks": 14400,
            "time": 14.0625,
            "velocity": 0.2125984251968504
          },
          {
            "duration": 0.09375,
            "durationTicks": 96,
            "midi": 52,
            "name": "E3",
            "ticks": 14496,
            "time": 14.15625,
            "velocity": 0.2125984251968504
          },
          {
            "duration": 0.09375,
            "durationTicks": 96,
            "midi": 58,
            "name": "A#3",
            "ticks": 14592,
            "time": 14.25,
            "velocity": 0.2125984251968504
          },
          {
            "duration": 0.09375,
            "durationTicks": 96,
            "midi": 57,
            "name": "A3",
            "ticks": 14688,
            "time": 14.34375,
            "velocity": 0.2125984251968504
          },
          {
            "duration": 0.09375,
            "durationTicks": 96,
            "midi": 52,
            "name": "E3",
            "ticks": 14784,
            "time": 14.4375,
            "velocity": 0.2125984251968504
          },
          {
            "duration": 0.09375,
            "durationTicks": 96,
            "midi": 55,
            "name": "G3",
            "ticks": 14880,
            "time": 14.53125,
            "velocity": 0.2125984251968504
          },
          {
            "duration": 0.09375,
            "durationTicks": 96,
            "midi": 55,
            "name": "G3",
            "ticks": 14976,
            "time": 14.625,
            "velocity": 0.2125984251968504
          },
          {
            "duration": 0.09375,
            "durationTicks": 96,
            "midi": 50,
            "name": "D3",
            "ticks": 15072,
            "time": 14.71875,
            "velocity": 0.2125984251968504
          },
          {
            "duration": 0.09375,
            "durationTicks": 96,
            "midi": 52,
            "name": "E3",
            "ticks": 15168,
            "time": 14.8125,
            "velocity": 0.2125984251968504
          },
          {
            "duration": 0.09375,
            "durationTicks": 96,
            "midi": 55,
            "name": "G3",
            "ticks": 15264,
            "time": 14.90625,
            "velocity": 0.2125984251968504
          },
          {
            "duration": 0.09375,
            "durationTicks": 96,
            "midi": 62,
            "name": "D4",
            "ticks": 15360,
            "time": 15,
            "velocity": 0.2125984251968504
          },
          {
            "duration": 0.09375,
            "durationTicks": 96,
            "midi": 55,
            "name": "G3",
            "ticks": 15456,
            "time": 15.09375,
            "velocity": 0.2125984251968504
          },
          {
            "duration": 0.09375,
            "durationTicks": 96,
            "midi": 59,
            "name": "B3",
            "ticks": 15552,
            "time": 15.1875,
            "velocity": 0.2125984251968504
          },
          {
            "duration": 0.09375,
            "durationTicks": 96,
            "midi": 62,
            "name": "D4",
            "ticks": 15648,
            "time": 15.28125,
            "velocity": 0.2125984251968504
          },
          {
            "duration": 0.09375,
            "durationTicks": 96,
            "midi": 55,
            "name": "G3",
            "ticks": 15744,
            "time": 15.375,
            "velocity": 0.2125984251968504
          },
          {
            "duration": 0.09375,
            "durationTicks": 96,
            "midi": 59,
            "name": "B3",
            "ticks": 15840,
            "time": 15.46875,
            "velocity": 0.2125984251968504
          },
          {
            "duration": 0.09375,
            "durationTicks": 96,
            "midi": 62,
            "name": "D4",
            "ticks": 15936,
            "time": 15.5625,
            "velocity": 0.2125984251968504
          },
          {
            "duration": 0.09375,
            "durationTicks": 96,
            "midi": 55,
            "name": "G3",
            "ticks": 16032,
            "time": 15.65625,
            "velocity": 0.2125984251968504
          },
          {
            "duration": 0.09375,
            "durationTicks": 96,
            "midi": 59,
            "name": "B3",
            "ticks": 16128,
            "time": 15.75,
            "velocity": 0.2125984251968504
          },
          {
            "duration": 0.09375,
            "durationTicks": 96,
            "midi": 62,
            "name": "D4",
            "ticks": 16224,
            "time": 15.84375,
            "velocity": 0.2125984251968504
          },
          {
            "duration": 0.09375,
            "durationTicks": 96,
            "midi": 55,
            "name": "G3",
            "ticks": 16320,
            "time": 15.9375,
            "velocity": 0.2125984251968504
          },
          {
            "duration": 0.09375,
            "durationTicks": 96,
            "midi": 59,
            "name": "B3",
            "ticks": 16416,
            "time": 16.03125,
            "velocity": 0.2125984251968504
          },
          {
            "duration": 0.09375,
            "durationTicks": 96,
            "midi": 62,
            "name": "D4",
            "ticks": 16512,
            "time": 16.125,
            "velocity": 0.2125984251968504
          },
          {
            "duration": 0.09375,
            "durationTicks": 96,
            "midi": 55,
            "name": "G3",
            "ticks": 16608,
            "time": 16.21875,
            "velocity": 0.2125984251968504
          },
          {
            "duration": 0.09375,
            "durationTicks": 96,
            "midi": 59,
            "name": "B3",
            "ticks": 16704,
            "time": 16.3125,
            "velocity": 0.2125984251968504
          },
          {
            "duration": 0.09375,
            "durationTicks": 96,
            "midi": 63,
            "name": "D#4",
            "ticks": 16800,
            "time": 16.40625,
            "velocity": 0.2125984251968504
          },
          {
            "duration": 0.09375,
            "durationTicks": 96,
            "midi": 64,
            "name": "E4",
            "ticks": 16896,
            "time": 16.5,
            "velocity": 0.2125984251968504
          },
          {
            "duration": 0.09375,
            "durationTicks": 96,
            "midi": 60,
            "name": "C4",
            "ticks": 16992,
            "time": 16.59375,
            "velocity": 0.2125984251968504
          },
          {
            "duration": 0.09375,
            "durationTicks": 96,
            "midi": 55,
            "name": "G3",
            "ticks": 17088,
            "time": 16.6875,
            "velocity": 0.2125984251968504
          },
          {
            "duration": 0.09375,
            "durationTicks": 96,
            "midi": 64,
            "name": "E4",
            "ticks": 17184,
            "time": 16.78125,
            "velocity": 0.2125984251968504
          },
          {
            "duration": 0.09375,
            "durationTicks": 96,
            "midi": 60,
            "name": "C4",
            "ticks": 17280,
            "time": 16.875,
            "velocity": 0.2125984251968504
          },
          {
            "duration": 0.09375,
            "durationTicks": 96,
            "midi": 55,
            "name": "G3",
            "ticks": 17376,
            "time": 16.96875,
            "velocity": 0.2125984251968504
          },
          {
            "duration": 0.09375,
            "durationTicks": 96,
            "midi": 64,
            "name": "E4",
            "ticks": 17472,
            "time": 17.0625,
            "velocity": 0.2125984251968504
          },
          {
            "duration": 0.09375,
            "durationTicks": 96,
            "midi": 60,
            "name": "C4",
            "ticks": 17568,
            "time": 17.15625,
            "velocity": 0.2125984251968504
          },
          {
            "duration": 0.09375,
            "durationTicks": 96,
            "midi": 55,
            "name": "G3",
            "ticks": 17664,
            "time": 17.25,
            "velocity": 0.2125984251968504
          },
          {
            "duration": 0.09375,
            "durationTicks": 96,
            "midi": 67,
            "name": "G4",
            "ticks": 17760,
            "time": 17.34375,
            "velocity": 0.2125984251968504
          },
          {
            "duration": 0.09375,
            "durationTicks": 96,
            "midi": 64,
            "name": "E4",
            "ticks": 17856,
            "time": 17.4375,
            "velocity": 0.2125984251968504
          },
          {
            "duration": 0.09375,
            "durationTicks": 96,
            "midi": 55,
            "name": "G3",
            "ticks": 17952,
            "time": 17.53125,
            "velocity": 0.2125984251968504
          },
          {
            "duration": 0.09375,
            "durationTicks": 96,
            "midi": 62,
            "name": "D4",
            "ticks": 18048,
            "time": 17.625,
            "velocity": 0.2125984251968504
          },
          {
            "duration": 0.09375,
            "durationTicks": 96,
            "midi": 55,
            "name": "G3",
            "ticks": 18144,
            "time": 17.71875,
            "velocity": 0.2125984251968504
          },
          {
            "duration": 0.09375,
            "durationTicks": 96,
            "midi": 60,
            "name": "C4",
            "ticks": 18240,
            "time": 17.8125,
            "velocity": 0.2125984251968504
          },
          {
            "duration": 0.09375,
            "durationTicks": 96,
            "midi": 55,
            "name": "G3",
            "ticks": 18336,
            "time": 17.90625,
            "velocity": 0.2125984251968504
          },
          {
            "duration": 0.09375,
            "durationTicks": 96,
            "midi": 62,
            "name": "D4",
            "ticks": 18432,
            "time": 18,
            "velocity": 0.2125984251968504
          },
          {
            "duration": 0.09375,
            "durationTicks": 96,
            "midi": 55,
            "name": "G3",
            "ticks": 18528,
            "time": 18.09375,
            "velocity": 0.2125984251968504
          },
          {
            "duration": 0.09375,
            "durationTicks": 96,
            "midi": 59,
            "name": "B3",
            "ticks": 18624,
            "time": 18.1875,
            "velocity": 0.2125984251968504
          },
          {
            "duration": 0.09375,
            "durationTicks": 96,
            "midi": 62,
            "name": "D4",
            "ticks": 18720,
            "time": 18.28125,
            "velocity": 0.2125984251968504
          },
          {
            "duration": 0.09375,
            "durationTicks": 96,
            "midi": 55,
            "name": "G3",
            "ticks": 18816,
            "time": 18.375,
            "velocity": 0.2125984251968504
          },
          {
            "duration": 0.09375,
            "durationTicks": 96,
            "midi": 59,
            "name": "B3",
            "ticks": 18912,
            "time": 18.46875,
            "velocity": 0.2125984251968504
          },
          {
            "duration": 0.09375,
            "durationTicks": 96,
            "midi": 62,
            "name": "D4",
            "ticks": 19008,
            "time": 18.5625,
            "velocity": 0.2125984251968504
          },
          {
            "duration": 0.09375,
            "durationTicks": 96,
            "midi": 55,
            "name": "G3",
            "ticks": 19104,
            "time": 18.65625,
            "velocity": 0.2125984251968504
          },
          {
            "duration": 0.09375,
            "durationTicks": 96,
            "midi": 59,
            "name": "B3",
            "ticks": 19200,
            "time": 18.75,
            "velocity": 0.2125984251968504
          },
          {
            "duration": 0.09375,
            "durationTicks": 96,
            "midi": 62,
            "name": "D4",
            "ticks": 19296,
            "time": 18.84375,
            "velocity": 0.2125984251968504
          },
          {
            "duration": 0.09375,
            "durationTicks": 96,
            "midi": 55,
            "name": "G3",
            "ticks": 19392,
            "time": 18.9375,
            "velocity": 0.2125984251968504
          },
          {
            "duration": 0.09375,
            "durationTicks": 96,
            "midi": 59,
            "name": "B3",
            "ticks": 19488,
            "time": 19.03125,
            "velocity": 0.2125984251968504
          },
          {
            "duration": 0.09375,
            "durationTicks": 96,
            "midi": 60,
            "name": "C4",
            "ticks": 19584,
            "time": 19.125,
            "velocity": 0.2125984251968504
          },
          {
            "duration": 0.09375,
            "durationTicks": 96,
            "midi": 55,
            "name": "G3",
            "ticks": 19680,
            "time": 19.21875,
            "velocity": 0.2125984251968504
          },
          {
            "duration": 0.09375,
            "durationTicks": 96,
            "midi": 59,
            "name": "B3",
            "ticks": 19776,
            "time": 19.3125,
            "velocity": 0.2125984251968504
          },
          {
            "duration": 0.09375,
            "durationTicks": 96,
            "midi": 55,
            "name": "G3",
            "ticks": 19872,
            "time": 19.40625,
            "velocity": 0.2125984251968504
          },
          {
            "duration": 0.09375,
            "durationTicks": 96,
            "midi": 62,
            "name": "D4",
            "ticks": 19968,
            "time": 19.5,
            "velocity": 0.2125984251968504
          },
          {
            "duration": 0.09375,
            "durationTicks": 96,
            "midi": 54,
            "name": "F#3",
            "ticks": 20064,
            "time": 19.59375,
            "velocity": 0.2125984251968504
          },
          {
            "duration": 0.09375,
            "durationTicks": 96,
            "midi": 64,
            "name": "E4",
            "ticks": 20160,
            "time": 19.6875,
            "velocity": 0.2125984251968504
          },
          {
            "duration": 0.09375,
            "durationTicks": 96,
            "midi": 62,
            "name": "D4",
            "ticks": 20256,
            "time": 19.78125,
            "velocity": 0.2125984251968504
          },
          {
            "duration": 0.09375,
            "durationTicks": 96,
            "midi": 54,
            "name": "F#3",
            "ticks": 20352,
            "time": 19.875,
            "velocity": 0.2125984251968504
          },
          {
            "duration": 0.09375,
            "durationTicks": 96,
            "midi": 57,
            "name": "A3",
            "ticks": 20448,
            "time": 19.96875,
            "velocity": 0.2125984251968504
          },
          {
            "duration": 0.09375,
            "durationTicks": 96,
            "midi": 62,
            "name": "D4",
            "ticks": 20544,
            "time": 20.0625,
            "velocity": 0.2125984251968504
          },
          {
            "duration": 0.09375,
            "durationTicks": 96,
            "midi": 54,
            "name": "F#3",
            "ticks": 20640,
            "time": 20.15625,
            "velocity": 0.2125984251968504
          },
          {
            "duration": 0.09375,
            "durationTicks": 96,
            "midi": 57,
            "name": "A3",
            "ticks": 20736,
            "time": 20.25,
            "velocity": 0.2125984251968504
          },
          {
            "duration": 0.09375,
            "durationTicks": 96,
            "midi": 62,
            "name": "D4",
            "ticks": 20832,
            "time": 20.34375,
            "velocity": 0.2125984251968504
          },
          {
            "duration": 0.09375,
            "durationTicks": 96,
            "midi": 54,
            "name": "F#3",
            "ticks": 20928,
            "time": 20.4375,
            "velocity": 0.2125984251968504
          },
          {
            "duration": 0.09375,
            "durationTicks": 96,
            "midi": 57,
            "name": "A3",
            "ticks": 21024,
            "time": 20.53125,
            "velocity": 0.2125984251968504
          },
          {
            "duration": 0.09375,
            "durationTicks": 96,
            "midi": 64,
            "name": "E4",
            "ticks": 21120,
            "time": 20.625,
            "velocity": 0.2125984251968504
          },
          {
            "duration": 0.09375,
            "durationTicks": 96,
            "midi": 54,
            "name": "F#3",
            "ticks": 21216,
            "time": 20.71875,
            "velocity": 0.2125984251968504
          },
          {
            "duration": 0.09375,
            "durationTicks": 96,
            "midi": 62,
            "name": "D4",
            "ticks": 21312,
            "time": 20.8125,
            "velocity": 0.2125984251968504
          },
          {
            "duration": 0.09375,
            "durationTicks": 96,
            "midi": 54,
            "name": "F#3",
            "ticks": 21408,
            "time": 20.90625,
            "velocity": 0.2125984251968504
          },
          {
            "duration": 0.09375,
            "durationTicks": 96,
            "midi": 62,
            "name": "D4",
            "ticks": 21504,
            "time": 21,
            "velocity": 0.2125984251968504
          },
          {
            "duration": 0.09375,
            "durationTicks": 96,
            "midi": 55,
            "name": "G3",
            "ticks": 21600,
            "time": 21.09375,
            "velocity": 0.2125984251968504
          },
          {
            "duration": 0.09375,
            "durationTicks": 96,
            "midi": 59,
            "name": "B3",
            "ticks": 21696,
            "time": 21.1875,
            "velocity": 0.2125984251968504
          },
          {
            "duration": 0.09375,
            "durationTicks": 96,
            "midi": 62,
            "name": "D4",
            "ticks": 21792,
            "time": 21.28125,
            "velocity": 0.2125984251968504
          },
          {
            "duration": 0.09375,
            "durationTicks": 96,
            "midi": 55,
            "name": "G3",
            "ticks": 21888,
            "time": 21.375,
            "velocity": 0.2125984251968504
          },
          {
            "duration": 0.09375,
            "durationTicks": 96,
            "midi": 59,
            "name": "B3",
            "ticks": 21984,
            "time": 21.46875,
            "velocity": 0.2125984251968504
          },
          {
            "duration": 0.09375,
            "durationTicks": 96,
            "midi": 62,
            "name": "D4",
            "ticks": 22080,
            "time": 21.5625,
            "velocity": 0.2125984251968504
          },
          {
            "duration": 0.09375,
            "durationTicks": 96,
            "midi": 55,
            "name": "G3",
            "ticks": 22176,
            "time": 21.65625,
            "velocity": 0.2125984251968504
          },
          {
            "duration": 0.09375,
            "durationTicks": 96,
            "midi": 59,
            "name": "B3",
            "ticks": 22272,
            "time": 21.75,
            "velocity": 0.2125984251968504
          },
          {
            "duration": 0.09375,
            "durationTicks": 96,
            "midi": 62,
            "name": "D4",
            "ticks": 22368,
            "time": 21.84375,
            "velocity": 0.2125984251968504
          },
          {
            "duration": 0.09375,
            "durationTicks": 96,
            "midi": 55,
            "name": "G3",
            "ticks": 22464,
            "time": 21.9375,
            "velocity": 0.2125984251968504
          },
          {
            "duration": 0.09375,
            "durationTicks": 96,
            "midi": 59,
            "name": "B3",
            "ticks": 22560,
            "time": 22.03125,
            "velocity": 0.2125984251968504
          },
          {
            "duration": 0.09375,
            "durationTicks": 96,
            "midi": 62,
            "name": "D4",
            "ticks": 22656,
            "time": 22.125,
            "velocity": 0.2125984251968504
          },
          {
            "duration": 0.09375,
            "durationTicks": 96,
            "midi": 55,
            "name": "G3",
            "ticks": 22752,
            "time": 22.21875,
            "velocity": 0.2125984251968504
          },
          {
            "duration": 0.09375,
            "durationTicks": 96,
            "midi": 59,
            "name": "B3",
            "ticks": 22848,
            "time": 22.3125,
            "velocity": 0.2125984251968504
          },
          {
            "duration": 0.09375,
            "durationTicks": 96,
            "midi": 63,
            "name": "D#4",
            "ticks": 22944,
            "time": 22.40625,
            "velocity": 0.2125984251968504
          },
          {
            "duration": 0.09375,
            "durationTicks": 96,
            "midi": 64,
            "name": "E4",
            "ticks": 23040,
            "time": 22.5,
            "velocity": 0.2125984251968504
          },
          {
            "duration": 0.09375,
            "durationTicks": 96,
            "midi": 55,
            "name": "G3",
            "ticks": 23136,
            "time": 22.59375,
            "velocity": 0.2125984251968504
          },
          {
            "duration": 0.09375,
            "durationTicks": 96,
            "midi": 60,
            "name": "C4",
            "ticks": 23232,
            "time": 22.6875,
            "velocity": 0.2125984251968504
          },
          {
            "duration": 0.09375,
            "durationTicks": 96,
            "midi": 64,
            "name": "E4",
            "ticks": 23328,
            "time": 22.78125,
            "velocity": 0.2125984251968504
          },
          {
            "duration": 0.09375,
            "durationTicks": 96,
            "midi": 55,
            "name": "G3",
            "ticks": 23424,
            "time": 22.875,
            "velocity": 0.2125984251968504
          },
          {
            "duration": 0.09375,
            "durationTicks": 96,
            "midi": 60,
            "name": "C4",
            "ticks": 23520,
            "time": 22.96875,
            "velocity": 0.2125984251968504
          },
          {
            "duration": 0.09375,
            "durationTicks": 96,
            "midi": 64,
            "name": "E4",
            "ticks": 23616,
            "time": 23.0625,
            "velocity": 0.2125984251968504
          },
          {
            "duration": 0.09375,
            "durationTicks": 96,
            "midi": 55,
            "name": "G3",
            "ticks": 23712,
            "time": 23.15625,
            "velocity": 0.2125984251968504
          },
          {
            "duration": 0.09375,
            "durationTicks": 96,
            "midi": 60,
            "name": "C4",
            "ticks": 23808,
            "time": 23.25,
            "velocity": 0.2125984251968504
          },
          {
            "duration": 0.09375,
            "durationTicks": 96,
            "midi": 64,
            "name": "E4",
            "ticks": 23904,
            "time": 23.34375,
            "velocity": 0.2125984251968504
          },
          {
            "duration": 0.09375,
            "durationTicks": 96,
            "midi": 55,
            "name": "G3",
            "ticks": 24000,
            "time": 23.4375,
            "velocity": 0.2125984251968504
          },
          {
            "duration": 0.09375,
            "durationTicks": 96,
            "midi": 60,
            "name": "C4",
            "ticks": 24096,
            "time": 23.53125,
            "velocity": 0.2125984251968504
          },
          {
            "duration": 0.09375,
            "durationTicks": 96,
            "midi": 64,
            "name": "E4",
            "ticks": 24192,
            "time": 23.625,
            "velocity": 0.2125984251968504
          },
          {
            "duration": 0.09375,
            "durationTicks": 96,
            "midi": 55,
            "name": "G3",
            "ticks": 24288,
            "time": 23.71875,
            "velocity": 0.2125984251968504
          },
          {
            "duration": 0.09375,
            "durationTicks": 96,
            "midi": 60,
            "name": "C4",
            "ticks": 24384,
            "time": 23.8125,
            "velocity": 0.2125984251968504
          },
          {
            "duration": 0.09375,
            "durationTicks": 96,
            "midi": 55,
            "name": "G3",
            "ticks": 24480,
            "time": 23.90625,
            "velocity": 0.2125984251968504
          },
          {
            "duration": 0.09375,
            "durationTicks": 96,
            "midi": 62,
            "name": "D4",
            "ticks": 24576,
            "time": 24,
            "velocity": 0.2125984251968504
          },
          {
            "duration": 0.09375,
            "durationTicks": 96,
            "midi": 55,
            "name": "G3",
            "ticks": 24672,
            "time": 24.09375,
            "velocity": 0.2125984251968504
          },
          {
            "duration": 0.09375,
            "durationTicks": 96,
            "midi": 59,
            "name": "B3",
            "ticks": 24768,
            "time": 24.1875,
            "velocity": 0.2125984251968504
          },
          {
            "duration": 0.09375,
            "durationTicks": 96,
            "midi": 62,
            "name": "D4",
            "ticks": 24864,
            "time": 24.28125,
            "velocity": 0.2125984251968504
          },
          {
            "duration": 0.09375,
            "durationTicks": 96,
            "midi": 55,
            "name": "G3",
            "ticks": 24960,
            "time": 24.375,
            "velocity": 0.2125984251968504
          },
          {
            "duration": 0.09375,
            "durationTicks": 96,
            "midi": 59,
            "name": "B3",
            "ticks": 25056,
            "time": 24.46875,
            "velocity": 0.2125984251968504
          },
          {
            "duration": 0.09375,
            "durationTicks": 96,
            "midi": 62,
            "name": "D4",
            "ticks": 25152,
            "time": 24.5625,
            "velocity": 0.2125984251968504
          },
          {
            "duration": 0.09375,
            "durationTicks": 96,
            "midi": 55,
            "name": "G3",
            "ticks": 25248,
            "time": 24.65625,
            "velocity": 0.2125984251968504
          },
          {
            "duration": 0.09375,
            "durationTicks": 96,
            "midi": 62,
            "name": "D4",
            "ticks": 25344,
            "time": 24.75,
            "velocity": 0.2125984251968504
          },
          {
            "duration": 0.09375,
            "durationTicks": 96,
            "midi": 54,
            "name": "F#3",
            "ticks": 25440,
            "time": 24.84375,
            "velocity": 0.2125984251968504
          },
          {
            "duration": 0.09375,
            "durationTicks": 96,
            "midi": 64,
            "name": "E4",
            "ticks": 25536,
            "time": 24.9375,
            "velocity": 0.2125984251968504
          },
          {
            "duration": 0.09375,
            "durationTicks": 96,
            "midi": 62,
            "name": "D4",
            "ticks": 25632,
            "time": 25.03125,
            "velocity": 0.2125984251968504
          },
          {
            "duration": 0.09375,
            "durationTicks": 96,
            "midi": 54,
            "name": "F#3",
            "ticks": 25728,
            "time": 25.125,
            "velocity": 0.2125984251968504
          },
          {
            "duration": 0.09375,
            "durationTicks": 96,
            "midi": 57,
            "name": "A3",
            "ticks": 25824,
            "time": 25.21875,
            "velocity": 0.2125984251968504
          },
          {
            "duration": 0.09375,
            "durationTicks": 96,
            "midi": 62,
            "name": "D4",
            "ticks": 25920,
            "time": 25.3125,
            "velocity": 0.2125984251968504
          },
          {
            "duration": 0.09375,
            "durationTicks": 96,
            "midi": 54,
            "name": "F#3",
            "ticks": 26016,
            "time": 25.40625,
            "velocity": 0.2125984251968504
          },
          {
            "duration": 0.09375,
            "durationTicks": 96,
            "midi": 62,
            "name": "D4",
            "ticks": 26112,
            "time": 25.5,
            "velocity": 0.2125984251968504
          },
          {
            "duration": 0.09375,
            "durationTicks": 96,
            "midi": 55,
            "name": "G3",
            "ticks": 26208,
            "time": 25.59375,
            "velocity": 0.2125984251968504
          },
          {
            "duration": 0.09375,
            "durationTicks": 96,
            "midi": 59,
            "name": "B3",
            "ticks": 26304,
            "time": 25.6875,
            "velocity": 0.2125984251968504
          },
          {
            "duration": 0.09375,
            "durationTicks": 96,
            "midi": 62,
            "name": "D4",
            "ticks": 26400,
            "time": 25.78125,
            "velocity": 0.2125984251968504
          },
          {
            "duration": 0.09375,
            "durationTicks": 96,
            "midi": 55,
            "name": "G3",
            "ticks": 26496,
            "time": 25.875,
            "velocity": 0.2125984251968504
          },
          {
            "duration": 0.09375,
            "durationTicks": 96,
            "midi": 58,
            "name": "A#3",
            "ticks": 26592,
            "time": 25.96875,
            "velocity": 0.2125984251968504
          },
          {
            "duration": 0.09375,
            "durationTicks": 96,
            "midi": 57,
            "name": "A3",
            "ticks": 26688,
            "time": 26.0625,
            "velocity": 0.2125984251968504
          },
          {
            "duration": 0.09375,
            "durationTicks": 96,
            "midi": 52,
            "name": "E3",
            "ticks": 26784,
            "time": 26.15625,
            "velocity": 0.2125984251968504
          },
          {
            "duration": 0.09375,
            "durationTicks": 96,
            "midi": 58,
            "name": "A#3",
            "ticks": 26880,
            "time": 26.25,
            "velocity": 0.2125984251968504
          },
          {
            "duration": 0.09375,
            "durationTicks": 96,
            "midi": 57,
            "name": "A3",
            "ticks": 26976,
            "time": 26.34375,
            "velocity": 0.2125984251968504
          },
          {
            "duration": 0.09375,
            "durationTicks": 96,
            "midi": 52,
            "name": "E3",
            "ticks": 27072,
            "time": 26.4375,
            "velocity": 0.2125984251968504
          },
          {
            "duration": 0.09375,
            "durationTicks": 96,
            "midi": 55,
            "name": "G3",
            "ticks": 27168,
            "time": 26.53125,
            "velocity": 0.2125984251968504
          },
          {
            "duration": 0.09375,
            "durationTicks": 96,
            "midi": 55,
            "name": "G3",
            "ticks": 27264,
            "time": 26.625,
            "velocity": 0.2125984251968504
          },
          {
            "duration": 0.09375,
            "durationTicks": 96,
            "midi": 50,
            "name": "D3",
            "ticks": 27360,
            "time": 26.71875,
            "velocity": 0.2125984251968504
          },
          {
            "duration": 0.09375,
            "durationTicks": 96,
            "midi": 52,
            "name": "E3",
            "ticks": 27456,
            "time": 26.8125,
            "velocity": 0.2125984251968504
          },
          {
            "duration": 0.09375,
            "durationTicks": 96,
            "midi": 55,
            "name": "G3",
            "ticks": 27552,
            "time": 26.90625,
            "velocity": 0.2125984251968504
          },
          {
            "duration": 0.09375,
            "durationTicks": 96,
            "midi": 62,
            "name": "D4",
            "ticks": 27648,
            "time": 27,
            "velocity": 0.2125984251968504
          },
          {
            "duration": 0.09375,
            "durationTicks": 96,
            "midi": 55,
            "name": "G3",
            "ticks": 27744,
            "time": 27.09375,
            "velocity": 0.2125984251968504
          },
          {
            "duration": 0.09375,
            "durationTicks": 96,
            "midi": 59,
            "name": "B3",
            "ticks": 27840,
            "time": 27.1875,
            "velocity": 0.2125984251968504
          },
          {
            "duration": 0.09375,
            "durationTicks": 96,
            "midi": 62,
            "name": "D4",
            "ticks": 27936,
            "time": 27.28125,
            "velocity": 0.2125984251968504
          },
          {
            "duration": 0.09375,
            "durationTicks": 96,
            "midi": 55,
            "name": "G3",
            "ticks": 28032,
            "time": 27.375,
            "velocity": 0.2125984251968504
          },
          {
            "duration": 0.09375,
            "durationTicks": 96,
            "midi": 59,
            "name": "B3",
            "ticks": 28128,
            "time": 27.46875,
            "velocity": 0.2125984251968504
          },
          {
            "duration": 0.09375,
            "durationTicks": 96,
            "midi": 62,
            "name": "D4",
            "ticks": 28224,
            "time": 27.5625,
            "velocity": 0.2125984251968504
          },
          {
            "duration": 0.09375,
            "durationTicks": 96,
            "midi": 55,
            "name": "G3",
            "ticks": 28320,
            "time": 27.65625,
            "velocity": 0.2125984251968504
          },
          {
            "duration": 0.09375,
            "durationTicks": 96,
            "midi": 59,
            "name": "B3",
            "ticks": 28416,
            "time": 27.75,
            "velocity": 0.2125984251968504
          },
          {
            "duration": 0.09375,
            "durationTicks": 96,
            "midi": 62,
            "name": "D4",
            "ticks": 28512,
            "time": 27.84375,
            "velocity": 0.2125984251968504
          },
          {
            "duration": 0.09375,
            "durationTicks": 96,
            "midi": 55,
            "name": "G3",
            "ticks": 28608,
            "time": 27.9375,
            "velocity": 0.2125984251968504
          },
          {
            "duration": 0.09375,
            "durationTicks": 96,
            "midi": 59,
            "name": "B3",
            "ticks": 28704,
            "time": 28.03125,
            "velocity": 0.2125984251968504
          },
          {
            "duration": 0.09375,
            "durationTicks": 96,
            "midi": 62,
            "name": "D4",
            "ticks": 28800,
            "time": 28.125,
            "velocity": 0.2125984251968504
          },
          {
            "duration": 0.09375,
            "durationTicks": 96,
            "midi": 55,
            "name": "G3",
            "ticks": 28896,
            "time": 28.21875,
            "velocity": 0.2125984251968504
          },
          {
            "duration": 0.09375,
            "durationTicks": 96,
            "midi": 59,
            "name": "B3",
            "ticks": 28992,
            "time": 28.3125,
            "velocity": 0.2125984251968504
          },
          {
            "duration": 0.09375,
            "durationTicks": 96,
            "midi": 63,
            "name": "D#4",
            "ticks": 29088,
            "time": 28.40625,
            "velocity": 0.2125984251968504
          },
          {
            "duration": 0.09375,
            "durationTicks": 96,
            "midi": 64,
            "name": "E4",
            "ticks": 29184,
            "time": 28.5,
            "velocity": 0.2125984251968504
          },
          {
            "duration": 0.09375,
            "durationTicks": 96,
            "midi": 60,
            "name": "C4",
            "ticks": 29280,
            "time": 28.59375,
            "velocity": 0.2125984251968504
          },
          {
            "duration": 0.09375,
            "durationTicks": 96,
            "midi": 55,
            "name": "G3",
            "ticks": 29376,
            "time": 28.6875,
            "velocity": 0.2125984251968504
          },
          {
            "duration": 0.09375,
            "durationTicks": 96,
            "midi": 64,
            "name": "E4",
            "ticks": 29472,
            "time": 28.78125,
            "velocity": 0.2125984251968504
          },
          {
            "duration": 0.09375,
            "durationTicks": 96,
            "midi": 60,
            "name": "C4",
            "ticks": 29568,
            "time": 28.875,
            "velocity": 0.2125984251968504
          },
          {
            "duration": 0.09375,
            "durationTicks": 96,
            "midi": 55,
            "name": "G3",
            "ticks": 29664,
            "time": 28.96875,
            "velocity": 0.2125984251968504
          },
          {
            "duration": 0.09375,
            "durationTicks": 96,
            "midi": 64,
            "name": "E4",
            "ticks": 29760,
            "time": 29.0625,
            "velocity": 0.2125984251968504
          },
          {
            "duration": 0.09375,
            "durationTicks": 96,
            "midi": 60,
            "name": "C4",
            "ticks": 29856,
            "time": 29.15625,
            "velocity": 0.2125984251968504
          },
          {
            "duration": 0.09375,
            "durationTicks": 96,
            "midi": 55,
            "name": "G3",
            "ticks": 29952,
            "time": 29.25,
            "velocity": 0.2125984251968504
          },
          {
            "duration": 0.09375,
            "durationTicks": 96,
            "midi": 67,
            "name": "G4",
            "ticks": 30048,
            "time": 29.34375,
            "velocity": 0.2125984251968504
          },
          {
            "duration": 0.09375,
            "durationTicks": 96,
            "midi": 64,
            "name": "E4",
            "ticks": 30144,
            "time": 29.4375,
            "velocity": 0.2125984251968504
          },
          {
            "duration": 0.09375,
            "durationTicks": 96,
            "midi": 55,
            "name": "G3",
            "ticks": 30240,
            "time": 29.53125,
            "velocity": 0.2125984251968504
          },
          {
            "duration": 0.09375,
            "durationTicks": 96,
            "midi": 62,
            "name": "D4",
            "ticks": 30336,
            "time": 29.625,
            "velocity": 0.2125984251968504
          },
          {
            "duration": 0.09375,
            "durationTicks": 96,
            "midi": 55,
            "name": "G3",
            "ticks": 30432,
            "time": 29.71875,
            "velocity": 0.2125984251968504
          },
          {
            "duration": 0.09375,
            "durationTicks": 96,
            "midi": 60,
            "name": "C4",
            "ticks": 30528,
            "time": 29.8125,
            "velocity": 0.2125984251968504
          },
          {
            "duration": 0.09375,
            "durationTicks": 96,
            "midi": 55,
            "name": "G3",
            "ticks": 30624,
            "time": 29.90625,
            "velocity": 0.2125984251968504
          },
          {
            "duration": 0.09375,
            "durationTicks": 96,
            "midi": 62,
            "name": "D4",
            "ticks": 30720,
            "time": 30,
            "velocity": 0.2125984251968504
          },
          {
            "duration": 0.09375,
            "durationTicks": 96,
            "midi": 55,
            "name": "G3",
            "ticks": 30816,
            "time": 30.09375,
            "velocity": 0.2125984251968504
          },
          {
            "duration": 0.09375,
            "durationTicks": 96,
            "midi": 59,
            "name": "B3",
            "ticks": 30912,
            "time": 30.1875,
            "velocity": 0.2125984251968504
          },
          {
            "duration": 0.09375,
            "durationTicks": 96,
            "midi": 62,
            "name": "D4",
            "ticks": 31008,
            "time": 30.28125,
            "velocity": 0.2125984251968504
          },
          {
            "duration": 0.09375,
            "durationTicks": 96,
            "midi": 55,
            "name": "G3",
            "ticks": 31104,
            "time": 30.375,
            "velocity": 0.2125984251968504
          },
          {
            "duration": 0.09375,
            "durationTicks": 96,
            "midi": 59,
            "name": "B3",
            "ticks": 31200,
            "time": 30.46875,
            "velocity": 0.2125984251968504
          },
          {
            "duration": 0.09375,
            "durationTicks": 96,
            "midi": 62,
            "name": "D4",
            "ticks": 31296,
            "time": 30.5625,
            "velocity": 0.2125984251968504
          },
          {
            "duration": 0.09375,
            "durationTicks": 96,
            "midi": 55,
            "name": "G3",
            "ticks": 31392,
            "time": 30.65625,
            "velocity": 0.2125984251968504
          },
          {
            "duration": 0.09375,
            "durationTicks": 96,
            "midi": 59,
            "name": "B3",
            "ticks": 31488,
            "time": 30.75,
            "velocity": 0.2125984251968504
          },
          {
            "duration": 0.09375,
            "durationTicks": 96,
            "midi": 62,
            "name": "D4",
            "ticks": 31584,
            "time": 30.84375,
            "velocity": 0.2125984251968504
          },
          {
            "duration": 0.09375,
            "durationTicks": 96,
            "midi": 55,
            "name": "G3",
            "ticks": 31680,
            "time": 30.9375,
            "velocity": 0.2125984251968504
          },
          {
            "duration": 0.09375,
            "durationTicks": 96,
            "midi": 59,
            "name": "B3",
            "ticks": 31776,
            "time": 31.03125,
            "velocity": 0.2125984251968504
          },
          {
            "duration": 0.09375,
            "durationTicks": 96,
            "midi": 60,
            "name": "C4",
            "ticks": 31872,
            "time": 31.125,
            "velocity": 0.2125984251968504
          },
          {
            "duration": 0.09375,
            "durationTicks": 96,
            "midi": 55,
            "name": "G3",
            "ticks": 31968,
            "time": 31.21875,
            "velocity": 0.2125984251968504
          },
          {
            "duration": 0.09375,
            "durationTicks": 96,
            "midi": 59,
            "name": "B3",
            "ticks": 32064,
            "time": 31.3125,
            "velocity": 0.2125984251968504
          },
          {
            "duration": 0.09375,
            "durationTicks": 96,
            "midi": 55,
            "name": "G3",
            "ticks": 32160,
            "time": 31.40625,
            "velocity": 0.2125984251968504
          },
          {
            "duration": 0.09375,
            "durationTicks": 96,
            "midi": 62,
            "name": "D4",
            "ticks": 32256,
            "time": 31.5,
            "velocity": 0.2125984251968504
          },
          {
            "duration": 0.09375,
            "durationTicks": 96,
            "midi": 54,
            "name": "F#3",
            "ticks": 32352,
            "time": 31.59375,
            "velocity": 0.2125984251968504
          },
          {
            "duration": 0.09375,
            "durationTicks": 96,
            "midi": 57,
            "name": "A3",
            "ticks": 32448,
            "time": 31.6875,
            "velocity": 0.2125984251968504
          },
          {
            "duration": 0.09375,
            "durationTicks": 96,
            "midi": 62,
            "name": "D4",
            "ticks": 32544,
            "time": 31.78125,
            "velocity": 0.2125984251968504
          },
          {
            "duration": 0.09375,
            "durationTicks": 96,
            "midi": 54,
            "name": "F#3",
            "ticks": 32640,
            "time": 31.875,
            "velocity": 0.2125984251968504
          },
          {
            "duration": 0.09375,
            "durationTicks": 96,
            "midi": 57,
            "name": "A3",
            "ticks": 32736,
            "time": 31.96875,
            "velocity": 0.2125984251968504
          },
          {
            "duration": 0.09375,
            "durationTicks": 96,
            "midi": 62,
            "name": "D4",
            "ticks": 32832,
            "time": 32.0625,
            "velocity": 0.2125984251968504
          },
          {
            "duration": 0.09375,
            "durationTicks": 96,
            "midi": 54,
            "name": "F#3",
            "ticks": 32928,
            "time": 32.15625,
            "velocity": 0.2125984251968504
          },
          {
            "duration": 0.09375,
            "durationTicks": 96,
            "midi": 57,
            "name": "A3",
            "ticks": 33024,
            "time": 32.25,
            "velocity": 0.2125984251968504
          },
          {
            "duration": 0.09375,
            "durationTicks": 96,
            "midi": 62,
            "name": "D4",
            "ticks": 33120,
            "time": 32.34375,
            "velocity": 0.2125984251968504
          },
          {
            "duration": 0.09375,
            "durationTicks": 96,
            "midi": 54,
            "name": "F#3",
            "ticks": 33216,
            "time": 32.4375,
            "velocity": 0.2125984251968504
          },
          {
            "duration": 0.09375,
            "durationTicks": 96,
            "midi": 57,
            "name": "A3",
            "ticks": 33312,
            "time": 32.53125,
            "velocity": 0.2125984251968504
          },
          {
            "duration": 0.09375,
            "durationTicks": 96,
            "midi": 64,
            "name": "E4",
            "ticks": 33408,
            "time": 32.625,
            "velocity": 0.2125984251968504
          },
          {
            "duration": 0.09375,
            "durationTicks": 96,
            "midi": 54,
            "name": "F#3",
            "ticks": 33504,
            "time": 32.71875,
            "velocity": 0.2125984251968504
          },
          {
            "duration": 0.09375,
            "durationTicks": 96,
            "midi": 62,
            "name": "D4",
            "ticks": 33600,
            "time": 32.8125,
            "velocity": 0.2125984251968504
          },
          {
            "duration": 0.09375,
            "durationTicks": 96,
            "midi": 54,
            "name": "F#3",
            "ticks": 33696,
            "time": 32.90625,
            "velocity": 0.2125984251968504
          },
          {
            "duration": 0.09375,
            "durationTicks": 96,
            "midi": 62,
            "name": "D4",
            "ticks": 33792,
            "time": 33,
            "velocity": 0.2125984251968504
          },
          {
            "duration": 0.09375,
            "durationTicks": 96,
            "midi": 55,
            "name": "G3",
            "ticks": 33888,
            "time": 33.09375,
            "velocity": 0.2125984251968504
          },
          {
            "duration": 0.09375,
            "durationTicks": 96,
            "midi": 59,
            "name": "B3",
            "ticks": 33984,
            "time": 33.1875,
            "velocity": 0.2125984251968504
          },
          {
            "duration": 0.09375,
            "durationTicks": 96,
            "midi": 62,
            "name": "D4",
            "ticks": 34080,
            "time": 33.28125,
            "velocity": 0.2125984251968504
          },
          {
            "duration": 0.09375,
            "durationTicks": 96,
            "midi": 55,
            "name": "G3",
            "ticks": 34176,
            "time": 33.375,
            "velocity": 0.2125984251968504
          },
          {
            "duration": 0.09375,
            "durationTicks": 96,
            "midi": 59,
            "name": "B3",
            "ticks": 34272,
            "time": 33.46875,
            "velocity": 0.2125984251968504
          },
          {
            "duration": 0.09375,
            "durationTicks": 96,
            "midi": 62,
            "name": "D4",
            "ticks": 34368,
            "time": 33.5625,
            "velocity": 0.2125984251968504
          },
          {
            "duration": 0.09375,
            "durationTicks": 96,
            "midi": 55,
            "name": "G3",
            "ticks": 34464,
            "time": 33.65625,
            "velocity": 0.2125984251968504
          },
          {
            "duration": 0.09375,
            "durationTicks": 96,
            "midi": 59,
            "name": "B3",
            "ticks": 34560,
            "time": 33.75,
            "velocity": 0.2125984251968504
          },
          {
            "duration": 0.09375,
            "durationTicks": 96,
            "midi": 62,
            "name": "D4",
            "ticks": 34656,
            "time": 33.84375,
            "velocity": 0.2125984251968504
          },
          {
            "duration": 0.09375,
            "durationTicks": 96,
            "midi": 55,
            "name": "G3",
            "ticks": 34752,
            "time": 33.9375,
            "velocity": 0.2125984251968504
          },
          {
            "duration": 0.09375,
            "durationTicks": 96,
            "midi": 59,
            "name": "B3",
            "ticks": 34848,
            "time": 34.03125,
            "velocity": 0.2125984251968504
          },
          {
            "duration": 0.09375,
            "durationTicks": 96,
            "midi": 62,
            "name": "D4",
            "ticks": 34944,
            "time": 34.125,
            "velocity": 0.2125984251968504
          },
          {
            "duration": 0.09375,
            "durationTicks": 96,
            "midi": 55,
            "name": "G3",
            "ticks": 35040,
            "time": 34.21875,
            "velocity": 0.2125984251968504
          },
          {
            "duration": 0.09375,
            "durationTicks": 96,
            "midi": 59,
            "name": "B3",
            "ticks": 35136,
            "time": 34.3125,
            "velocity": 0.2125984251968504
          },
          {
            "duration": 0.09375,
            "durationTicks": 96,
            "midi": 63,
            "name": "D#4",
            "ticks": 35232,
            "time": 34.40625,
            "velocity": 0.2125984251968504
          },
          {
            "duration": 0.09375,
            "durationTicks": 96,
            "midi": 64,
            "name": "E4",
            "ticks": 35328,
            "time": 34.5,
            "velocity": 0.2125984251968504
          },
          {
            "duration": 0.09375,
            "durationTicks": 96,
            "midi": 55,
            "name": "G3",
            "ticks": 35424,
            "time": 34.59375,
            "velocity": 0.2125984251968504
          },
          {
            "duration": 0.09375,
            "durationTicks": 96,
            "midi": 60,
            "name": "C4",
            "ticks": 35520,
            "time": 34.6875,
            "velocity": 0.2125984251968504
          },
          {
            "duration": 0.09375,
            "durationTicks": 96,
            "midi": 64,
            "name": "E4",
            "ticks": 35616,
            "time": 34.78125,
            "velocity": 0.2125984251968504
          },
          {
            "duration": 0.09375,
            "durationTicks": 96,
            "midi": 55,
            "name": "G3",
            "ticks": 35712,
            "time": 34.875,
            "velocity": 0.2125984251968504
          },
          {
            "duration": 0.09375,
            "durationTicks": 96,
            "midi": 60,
            "name": "C4",
            "ticks": 35808,
            "time": 34.96875,
            "velocity": 0.2125984251968504
          },
          {
            "duration": 0.09375,
            "durationTicks": 96,
            "midi": 64,
            "name": "E4",
            "ticks": 35904,
            "time": 35.0625,
            "velocity": 0.2125984251968504
          },
          {
            "duration": 0.09375,
            "durationTicks": 96,
            "midi": 55,
            "name": "G3",
            "ticks": 36000,
            "time": 35.15625,
            "velocity": 0.2125984251968504
          },
          {
            "duration": 0.09375,
            "durationTicks": 96,
            "midi": 60,
            "name": "C4",
            "ticks": 36096,
            "time": 35.25,
            "velocity": 0.2125984251968504
          },
          {
            "duration": 0.09375,
            "durationTicks": 96,
            "midi": 64,
            "name": "E4",
            "ticks": 36192,
            "time": 35.34375,
            "velocity": 0.2125984251968504
          },
          {
            "duration": 0.09375,
            "durationTicks": 96,
            "midi": 55,
            "name": "G3",
            "ticks": 36288,
            "time": 35.4375,
            "velocity": 0.2125984251968504
          },
          {
            "duration": 0.09375,
            "durationTicks": 96,
            "midi": 60,
            "name": "C4",
            "ticks": 36384,
            "time": 35.53125,
            "velocity": 0.2125984251968504
          },
          {
            "duration": 0.09375,
            "durationTicks": 96,
            "midi": 64,
            "name": "E4",
            "ticks": 36480,
            "time": 35.625,
            "velocity": 0.2125984251968504
          },
          {
            "duration": 0.09375,
            "durationTicks": 96,
            "midi": 55,
            "name": "G3",
            "ticks": 36576,
            "time": 35.71875,
            "velocity": 0.2125984251968504
          },
          {
            "duration": 0.09375,
            "durationTicks": 96,
            "midi": 60,
            "name": "C4",
            "ticks": 36672,
            "time": 35.8125,
            "velocity": 0.2125984251968504
          },
          {
            "duration": 0.09375,
            "durationTicks": 96,
            "midi": 55,
            "name": "G3",
            "ticks": 36768,
            "time": 35.90625,
            "velocity": 0.2125984251968504
          },
          {
            "duration": 0.09375,
            "durationTicks": 96,
            "midi": 62,
            "name": "D4",
            "ticks": 36864,
            "time": 36,
            "velocity": 0.2125984251968504
          },
          {
            "duration": 0.09375,
            "durationTicks": 96,
            "midi": 55,
            "name": "G3",
            "ticks": 36960,
            "time": 36.09375,
            "velocity": 0.2125984251968504
          },
          {
            "duration": 0.09375,
            "durationTicks": 96,
            "midi": 59,
            "name": "B3",
            "ticks": 37056,
            "time": 36.1875,
            "velocity": 0.2125984251968504
          },
          {
            "duration": 0.09375,
            "durationTicks": 96,
            "midi": 62,
            "name": "D4",
            "ticks": 37152,
            "time": 36.28125,
            "velocity": 0.2125984251968504
          },
          {
            "duration": 0.09375,
            "durationTicks": 96,
            "midi": 55,
            "name": "G3",
            "ticks": 37248,
            "time": 36.375,
            "velocity": 0.2125984251968504
          },
          {
            "duration": 0.09375,
            "durationTicks": 96,
            "midi": 59,
            "name": "B3",
            "ticks": 37344,
            "time": 36.46875,
            "velocity": 0.2125984251968504
          },
          {
            "duration": 0.09375,
            "durationTicks": 96,
            "midi": 62,
            "name": "D4",
            "ticks": 37440,
            "time": 36.5625,
            "velocity": 0.2125984251968504
          },
          {
            "duration": 0.09375,
            "durationTicks": 96,
            "midi": 55,
            "name": "G3",
            "ticks": 37536,
            "time": 36.65625,
            "velocity": 0.2125984251968504
          },
          {
            "duration": 0.09375,
            "durationTicks": 96,
            "midi": 62,
            "name": "D4",
            "ticks": 37632,
            "time": 36.75,
            "velocity": 0.2125984251968504
          },
          {
            "duration": 0.09375,
            "durationTicks": 96,
            "midi": 54,
            "name": "F#3",
            "ticks": 37728,
            "time": 36.84375,
            "velocity": 0.2125984251968504
          },
          {
            "duration": 0.09375,
            "durationTicks": 96,
            "midi": 64,
            "name": "E4",
            "ticks": 37824,
            "time": 36.9375,
            "velocity": 0.2125984251968504
          },
          {
            "duration": 0.09375,
            "durationTicks": 96,
            "midi": 62,
            "name": "D4",
            "ticks": 37920,
            "time": 37.03125,
            "velocity": 0.2125984251968504
          },
          {
            "duration": 0.09375,
            "durationTicks": 96,
            "midi": 54,
            "name": "F#3",
            "ticks": 38016,
            "time": 37.125,
            "velocity": 0.2125984251968504
          },
          {
            "duration": 0.09375,
            "durationTicks": 96,
            "midi": 57,
            "name": "A3",
            "ticks": 38112,
            "time": 37.21875,
            "velocity": 0.2125984251968504
          },
          {
            "duration": 0.09375,
            "durationTicks": 96,
            "midi": 62,
            "name": "D4",
            "ticks": 38208,
            "time": 37.3125,
            "velocity": 0.2125984251968504
          },
          {
            "duration": 0.09375,
            "durationTicks": 96,
            "midi": 54,
            "name": "F#3",
            "ticks": 38304,
            "time": 37.40625,
            "velocity": 0.2125984251968504
          },
          {
            "duration": 0.09375,
            "durationTicks": 96,
            "midi": 62,
            "name": "D4",
            "ticks": 38400,
            "time": 37.5,
            "velocity": 0.2125984251968504
          },
          {
            "duration": 0.09375,
            "durationTicks": 96,
            "midi": 55,
            "name": "G3",
            "ticks": 38496,
            "time": 37.59375,
            "velocity": 0.2125984251968504
          },
          {
            "duration": 0.09375,
            "durationTicks": 96,
            "midi": 59,
            "name": "B3",
            "ticks": 38592,
            "time": 37.6875,
            "velocity": 0.2125984251968504
          },
          {
            "duration": 0.09375,
            "durationTicks": 96,
            "midi": 62,
            "name": "D4",
            "ticks": 38688,
            "time": 37.78125,
            "velocity": 0.2125984251968504
          },
          {
            "duration": 0.09375,
            "durationTicks": 96,
            "midi": 55,
            "name": "G3",
            "ticks": 38784,
            "time": 37.875,
            "velocity": 0.2125984251968504
          },
          {
            "duration": 0.09375,
            "durationTicks": 96,
            "midi": 58,
            "name": "A#3",
            "ticks": 38880,
            "time": 37.96875,
            "velocity": 0.2125984251968504
          },
          {
            "duration": 0.09375,
            "durationTicks": 96,
            "midi": 57,
            "name": "A3",
            "ticks": 38976,
            "time": 38.0625,
            "velocity": 0.2125984251968504
          },
          {
            "duration": 0.09375,
            "durationTicks": 96,
            "midi": 52,
            "name": "E3",
            "ticks": 39072,
            "time": 38.15625,
            "velocity": 0.2125984251968504
          },
          {
            "duration": 0.09375,
            "durationTicks": 96,
            "midi": 58,
            "name": "A#3",
            "ticks": 39168,
            "time": 38.25,
            "velocity": 0.2125984251968504
          },
          {
            "duration": 0.09375,
            "durationTicks": 96,
            "midi": 57,
            "name": "A3",
            "ticks": 39264,
            "time": 38.34375,
            "velocity": 0.2125984251968504
          },
          {
            "duration": 0.09375,
            "durationTicks": 96,
            "midi": 52,
            "name": "E3",
            "ticks": 39360,
            "time": 38.4375,
            "velocity": 0.2125984251968504
          },
          {
            "duration": 0.09375,
            "durationTicks": 96,
            "midi": 55,
            "name": "G3",
            "ticks": 39456,
            "time": 38.53125,
            "velocity": 0.2125984251968504
          },
          {
            "duration": 0.09375,
            "durationTicks": 96,
            "midi": 55,
            "name": "G3",
            "ticks": 39552,
            "time": 38.625,
            "velocity": 0.2125984251968504
          },
          {
            "duration": 0.09375,
            "durationTicks": 96,
            "midi": 50,
            "name": "D3",
            "ticks": 39648,
            "time": 38.71875,
            "velocity": 0.2125984251968504
          },
          {
            "duration": 0.09375,
            "durationTicks": 96,
            "midi": 52,
            "name": "E3",
            "ticks": 39744,
            "time": 38.8125,
            "velocity": 0.2125984251968504
          },
          {
            "duration": 0.09375,
            "durationTicks": 96,
            "midi": 55,
            "name": "G3",
            "ticks": 39840,
            "time": 38.90625,
            "velocity": 0.2125984251968504
          },
          {
            "duration": 0.09375,
            "durationTicks": 96,
            "midi": 62,
            "name": "D4",
            "ticks": 39936,
            "time": 39,
            "velocity": 0.2125984251968504
          },
          {
            "duration": 0.09375,
            "durationTicks": 96,
            "midi": 55,
            "name": "G3",
            "ticks": 40032,
            "time": 39.09375,
            "velocity": 0.2125984251968504
          },
          {
            "duration": 0.09375,
            "durationTicks": 96,
            "midi": 59,
            "name": "B3",
            "ticks": 40128,
            "time": 39.1875,
            "velocity": 0.2125984251968504
          },
          {
            "duration": 0.09375,
            "durationTicks": 96,
            "midi": 62,
            "name": "D4",
            "ticks": 40224,
            "time": 39.28125,
            "velocity": 0.2125984251968504
          },
          {
            "duration": 0.09375,
            "durationTicks": 96,
            "midi": 55,
            "name": "G3",
            "ticks": 40320,
            "time": 39.375,
            "velocity": 0.2125984251968504
          },
          {
            "duration": 0.09375,
            "durationTicks": 96,
            "midi": 59,
            "name": "B3",
            "ticks": 40416,
            "time": 39.46875,
            "velocity": 0.2125984251968504
          },
          {
            "duration": 0.09375,
            "durationTicks": 96,
            "midi": 62,
            "name": "D4",
            "ticks": 40512,
            "time": 39.5625,
            "velocity": 0.2125984251968504
          },
          {
            "duration": 0.09375,
            "durationTicks": 96,
            "midi": 55,
            "name": "G3",
            "ticks": 40608,
            "time": 39.65625,
            "velocity": 0.2125984251968504
          },
          {
            "duration": 0.09375,
            "durationTicks": 96,
            "midi": 59,
            "name": "B3",
            "ticks": 40704,
            "time": 39.75,
            "velocity": 0.2125984251968504
          },
          {
            "duration": 0.09375,
            "durationTicks": 96,
            "midi": 62,
            "name": "D4",
            "ticks": 40800,
            "time": 39.84375,
            "velocity": 0.2125984251968504
          },
          {
            "duration": 0.09375,
            "durationTicks": 96,
            "midi": 55,
            "name": "G3",
            "ticks": 40896,
            "time": 39.9375,
            "velocity": 0.2125984251968504
          },
          {
            "duration": 0.09375,
            "durationTicks": 96,
            "midi": 59,
            "name": "B3",
            "ticks": 40992,
            "time": 40.03125,
            "velocity": 0.2125984251968504
          },
          {
            "duration": 0.09375,
            "durationTicks": 96,
            "midi": 62,
            "name": "D4",
            "ticks": 41088,
            "time": 40.125,
            "velocity": 0.2125984251968504
          },
          {
            "duration": 0.09375,
            "durationTicks": 96,
            "midi": 55,
            "name": "G3",
            "ticks": 41184,
            "time": 40.21875,
            "velocity": 0.2125984251968504
          },
          {
            "duration": 0.09375,
            "durationTicks": 96,
            "midi": 59,
            "name": "B3",
            "ticks": 41280,
            "time": 40.3125,
            "velocity": 0.2125984251968504
          },
          {
            "duration": 0.09375,
            "durationTicks": 96,
            "midi": 63,
            "name": "D#4",
            "ticks": 41376,
            "time": 40.40625,
            "velocity": 0.2125984251968504
          },
          {
            "duration": 0.09375,
            "durationTicks": 96,
            "midi": 64,
            "name": "E4",
            "ticks": 41472,
            "time": 40.5,
            "velocity": 0.2125984251968504
          },
          {
            "duration": 0.09375,
            "durationTicks": 96,
            "midi": 60,
            "name": "C4",
            "ticks": 41568,
            "time": 40.59375,
            "velocity": 0.2125984251968504
          },
          {
            "duration": 0.09375,
            "durationTicks": 96,
            "midi": 55,
            "name": "G3",
            "ticks": 41664,
            "time": 40.6875,
            "velocity": 0.2125984251968504
          },
          {
            "duration": 0.09375,
            "durationTicks": 96,
            "midi": 64,
            "name": "E4",
            "ticks": 41760,
            "time": 40.78125,
            "velocity": 0.2125984251968504
          },
          {
            "duration": 0.09375,
            "durationTicks": 96,
            "midi": 60,
            "name": "C4",
            "ticks": 41856,
            "time": 40.875,
            "velocity": 0.2125984251968504
          },
          {
            "duration": 0.09375,
            "durationTicks": 96,
            "midi": 55,
            "name": "G3",
            "ticks": 41952,
            "time": 40.96875,
            "velocity": 0.2125984251968504
          },
          {
            "duration": 0.09375,
            "durationTicks": 96,
            "midi": 64,
            "name": "E4",
            "ticks": 42048,
            "time": 41.0625,
            "velocity": 0.2125984251968504
          },
          {
            "duration": 0.09375,
            "durationTicks": 96,
            "midi": 60,
            "name": "C4",
            "ticks": 42144,
            "time": 41.15625,
            "velocity": 0.2125984251968504
          },
          {
            "duration": 0.09375,
            "durationTicks": 96,
            "midi": 55,
            "name": "G3",
            "ticks": 42240,
            "time": 41.25,
            "velocity": 0.2125984251968504
          },
          {
            "duration": 0.09375,
            "durationTicks": 96,
            "midi": 67,
            "name": "G4",
            "ticks": 42336,
            "time": 41.34375,
            "velocity": 0.2125984251968504
          },
          {
            "duration": 0.09375,
            "durationTicks": 96,
            "midi": 64,
            "name": "E4",
            "ticks": 42432,
            "time": 41.4375,
            "velocity": 0.2125984251968504
          },
          {
            "duration": 0.09375,
            "durationTicks": 96,
            "midi": 55,
            "name": "G3",
            "ticks": 42528,
            "time": 41.53125,
            "velocity": 0.2125984251968504
          },
          {
            "duration": 0.09375,
            "durationTicks": 96,
            "midi": 62,
            "name": "D4",
            "ticks": 42624,
            "time": 41.625,
            "velocity": 0.2125984251968504
          },
          {
            "duration": 0.09375,
            "durationTicks": 96,
            "midi": 55,
            "name": "G3",
            "ticks": 42720,
            "time": 41.71875,
            "velocity": 0.2125984251968504
          },
          {
            "duration": 0.09375,
            "durationTicks": 96,
            "midi": 60,
            "name": "C4",
            "ticks": 42816,
            "time": 41.8125,
            "velocity": 0.2125984251968504
          },
          {
            "duration": 0.09375,
            "durationTicks": 96,
            "midi": 55,
            "name": "G3",
            "ticks": 42912,
            "time": 41.90625,
            "velocity": 0.2125984251968504
          },
          {
            "duration": 0.09375,
            "durationTicks": 96,
            "midi": 62,
            "name": "D4",
            "ticks": 43008,
            "time": 42,
            "velocity": 0.2125984251968504
          },
          {
            "duration": 0.09375,
            "durationTicks": 96,
            "midi": 55,
            "name": "G3",
            "ticks": 43104,
            "time": 42.09375,
            "velocity": 0.2125984251968504
          },
          {
            "duration": 0.09375,
            "durationTicks": 96,
            "midi": 59,
            "name": "B3",
            "ticks": 43200,
            "time": 42.1875,
            "velocity": 0.2125984251968504
          },
          {
            "duration": 0.09375,
            "durationTicks": 96,
            "midi": 62,
            "name": "D4",
            "ticks": 43296,
            "time": 42.28125,
            "velocity": 0.2125984251968504
          },
          {
            "duration": 0.09375,
            "durationTicks": 96,
            "midi": 55,
            "name": "G3",
            "ticks": 43392,
            "time": 42.375,
            "velocity": 0.2125984251968504
          },
          {
            "duration": 0.09375,
            "durationTicks": 96,
            "midi": 59,
            "name": "B3",
            "ticks": 43488,
            "time": 42.46875,
            "velocity": 0.2125984251968504
          },
          {
            "duration": 0.09375,
            "durationTicks": 96,
            "midi": 62,
            "name": "D4",
            "ticks": 43584,
            "time": 42.5625,
            "velocity": 0.2125984251968504
          },
          {
            "duration": 0.09375,
            "durationTicks": 96,
            "midi": 55,
            "name": "G3",
            "ticks": 43680,
            "time": 42.65625,
            "velocity": 0.2125984251968504
          },
          {
            "duration": 0.09375,
            "durationTicks": 96,
            "midi": 59,
            "name": "B3",
            "ticks": 43776,
            "time": 42.75,
            "velocity": 0.2125984251968504
          },
          {
            "duration": 0.09375,
            "durationTicks": 96,
            "midi": 62,
            "name": "D4",
            "ticks": 43872,
            "time": 42.84375,
            "velocity": 0.2125984251968504
          },
          {
            "duration": 0.09375,
            "durationTicks": 96,
            "midi": 55,
            "name": "G3",
            "ticks": 43968,
            "time": 42.9375,
            "velocity": 0.2125984251968504
          },
          {
            "duration": 0.09375,
            "durationTicks": 96,
            "midi": 59,
            "name": "B3",
            "ticks": 44064,
            "time": 43.03125,
            "velocity": 0.2125984251968504
          },
          {
            "duration": 0.09375,
            "durationTicks": 96,
            "midi": 60,
            "name": "C4",
            "ticks": 44160,
            "time": 43.125,
            "velocity": 0.2125984251968504
          },
          {
            "duration": 0.09375,
            "durationTicks": 96,
            "midi": 55,
            "name": "G3",
            "ticks": 44256,
            "time": 43.21875,
            "velocity": 0.2125984251968504
          },
          {
            "duration": 0.09375,
            "durationTicks": 96,
            "midi": 59,
            "name": "B3",
            "ticks": 44352,
            "time": 43.3125,
            "velocity": 0.2125984251968504
          },
          {
            "duration": 0.09375,
            "durationTicks": 96,
            "midi": 55,
            "name": "G3",
            "ticks": 44448,
            "time": 43.40625,
            "velocity": 0.2125984251968504
          },
          {
            "duration": 0.09375,
            "durationTicks": 96,
            "midi": 62,
            "name": "D4",
            "ticks": 44544,
            "time": 43.5,
            "velocity": 0.2125984251968504
          },
          {
            "duration": 0.09375,
            "durationTicks": 96,
            "midi": 54,
            "name": "F#3",
            "ticks": 44640,
            "time": 43.59375,
            "velocity": 0.2125984251968504
          },
          {
            "duration": 0.09375,
            "durationTicks": 96,
            "midi": 64,
            "name": "E4",
            "ticks": 44736,
            "time": 43.6875,
            "velocity": 0.2125984251968504
          },
          {
            "duration": 0.09375,
            "durationTicks": 96,
            "midi": 62,
            "name": "D4",
            "ticks": 44832,
            "time": 43.78125,
            "velocity": 0.2125984251968504
          },
          {
            "duration": 0.09375,
            "durationTicks": 96,
            "midi": 54,
            "name": "F#3",
            "ticks": 44928,
            "time": 43.875,
            "velocity": 0.2125984251968504
          },
          {
            "duration": 0.09375,
            "durationTicks": 96,
            "midi": 57,
            "name": "A3",
            "ticks": 45024,
            "time": 43.96875,
            "velocity": 0.2125984251968504
          },
          {
            "duration": 0.09375,
            "durationTicks": 96,
            "midi": 62,
            "name": "D4",
            "ticks": 45120,
            "time": 44.0625,
            "velocity": 0.2125984251968504
          },
          {
            "duration": 0.09375,
            "durationTicks": 96,
            "midi": 54,
            "name": "F#3",
            "ticks": 45216,
            "time": 44.15625,
            "velocity": 0.2125984251968504
          },
          {
            "duration": 0.09375,
            "durationTicks": 96,
            "midi": 57,
            "name": "A3",
            "ticks": 45312,
            "time": 44.25,
            "velocity": 0.2125984251968504
          },
          {
            "duration": 0.09375,
            "durationTicks": 96,
            "midi": 62,
            "name": "D4",
            "ticks": 45408,
            "time": 44.34375,
            "velocity": 0.2125984251968504
          },
          {
            "duration": 0.09375,
            "durationTicks": 96,
            "midi": 54,
            "name": "F#3",
            "ticks": 45504,
            "time": 44.4375,
            "velocity": 0.2125984251968504
          },
          {
            "duration": 0.09375,
            "durationTicks": 96,
            "midi": 57,
            "name": "A3",
            "ticks": 45600,
            "time": 44.53125,
            "velocity": 0.2125984251968504
          },
          {
            "duration": 0.09375,
            "durationTicks": 96,
            "midi": 64,
            "name": "E4",
            "ticks": 45696,
            "time": 44.625,
            "velocity": 0.2125984251968504
          },
          {
            "duration": 0.09375,
            "durationTicks": 96,
            "midi": 54,
            "name": "F#3",
            "ticks": 45792,
            "time": 44.71875,
            "velocity": 0.2125984251968504
          },
          {
            "duration": 0.09375,
            "durationTicks": 96,
            "midi": 62,
            "name": "D4",
            "ticks": 45888,
            "time": 44.8125,
            "velocity": 0.2125984251968504
          },
          {
            "duration": 0.09375,
            "durationTicks": 96,
            "midi": 54,
            "name": "F#3",
            "ticks": 45984,
            "time": 44.90625,
            "velocity": 0.2125984251968504
          },
          {
            "duration": 0.09375,
            "durationTicks": 96,
            "midi": 62,
            "name": "D4",
            "ticks": 46080,
            "time": 45,
            "velocity": 0.2125984251968504
          },
          {
            "duration": 0.09375,
            "durationTicks": 96,
            "midi": 55,
            "name": "G3",
            "ticks": 46176,
            "time": 45.09375,
            "velocity": 0.2125984251968504
          },
          {
            "duration": 0.09375,
            "durationTicks": 96,
            "midi": 59,
            "name": "B3",
            "ticks": 46272,
            "time": 45.1875,
            "velocity": 0.2125984251968504
          },
          {
            "duration": 0.09375,
            "durationTicks": 96,
            "midi": 62,
            "name": "D4",
            "ticks": 46368,
            "time": 45.28125,
            "velocity": 0.2125984251968504
          },
          {
            "duration": 0.09375,
            "durationTicks": 96,
            "midi": 55,
            "name": "G3",
            "ticks": 46464,
            "time": 45.375,
            "velocity": 0.2125984251968504
          },
          {
            "duration": 0.09375,
            "durationTicks": 96,
            "midi": 59,
            "name": "B3",
            "ticks": 46560,
            "time": 45.46875,
            "velocity": 0.2125984251968504
          },
          {
            "duration": 0.09375,
            "durationTicks": 96,
            "midi": 62,
            "name": "D4",
            "ticks": 46656,
            "time": 45.5625,
            "velocity": 0.2125984251968504
          },
          {
            "duration": 0.09375,
            "durationTicks": 96,
            "midi": 55,
            "name": "G3",
            "ticks": 46752,
            "time": 45.65625,
            "velocity": 0.2125984251968504
          },
          {
            "duration": 0.09375,
            "durationTicks": 96,
            "midi": 59,
            "name": "B3",
            "ticks": 46848,
            "time": 45.75,
            "velocity": 0.2125984251968504
          },
          {
            "duration": 0.09375,
            "durationTicks": 96,
            "midi": 62,
            "name": "D4",
            "ticks": 46944,
            "time": 45.84375,
            "velocity": 0.2125984251968504
          },
          {
            "duration": 0.09375,
            "durationTicks": 96,
            "midi": 55,
            "name": "G3",
            "ticks": 47040,
            "time": 45.9375,
            "velocity": 0.2125984251968504
          },
          {
            "duration": 0.09375,
            "durationTicks": 96,
            "midi": 59,
            "name": "B3",
            "ticks": 47136,
            "time": 46.03125,
            "velocity": 0.2125984251968504
          },
          {
            "duration": 0.09375,
            "durationTicks": 96,
            "midi": 62,
            "name": "D4",
            "ticks": 47232,
            "time": 46.125,
            "velocity": 0.2125984251968504
          },
          {
            "duration": 0.09375,
            "durationTicks": 96,
            "midi": 55,
            "name": "G3",
            "ticks": 47328,
            "time": 46.21875,
            "velocity": 0.2125984251968504
          },
          {
            "duration": 0.09375,
            "durationTicks": 96,
            "midi": 59,
            "name": "B3",
            "ticks": 47424,
            "time": 46.3125,
            "velocity": 0.2125984251968504
          },
          {
            "duration": 0.09375,
            "durationTicks": 96,
            "midi": 63,
            "name": "D#4",
            "ticks": 47520,
            "time": 46.40625,
            "velocity": 0.2125984251968504
          },
          {
            "duration": 0.09375,
            "durationTicks": 96,
            "midi": 64,
            "name": "E4",
            "ticks": 47616,
            "time": 46.5,
            "velocity": 0.2125984251968504
          },
          {
            "duration": 0.09375,
            "durationTicks": 96,
            "midi": 55,
            "name": "G3",
            "ticks": 47712,
            "time": 46.59375,
            "velocity": 0.2125984251968504
          },
          {
            "duration": 0.09375,
            "durationTicks": 96,
            "midi": 60,
            "name": "C4",
            "ticks": 47808,
            "time": 46.6875,
            "velocity": 0.2125984251968504
          },
          {
            "duration": 0.09375,
            "durationTicks": 96,
            "midi": 64,
            "name": "E4",
            "ticks": 47904,
            "time": 46.78125,
            "velocity": 0.2125984251968504
          },
          {
            "duration": 0.09375,
            "durationTicks": 96,
            "midi": 55,
            "name": "G3",
            "ticks": 48000,
            "time": 46.875,
            "velocity": 0.2125984251968504
          },
          {
            "duration": 0.09375,
            "durationTicks": 96,
            "midi": 60,
            "name": "C4",
            "ticks": 48096,
            "time": 46.96875,
            "velocity": 0.2125984251968504
          },
          {
            "duration": 0.09375,
            "durationTicks": 96,
            "midi": 64,
            "name": "E4",
            "ticks": 48192,
            "time": 47.0625,
            "velocity": 0.2125984251968504
          },
          {
            "duration": 0.09375,
            "durationTicks": 96,
            "midi": 55,
            "name": "G3",
            "ticks": 48288,
            "time": 47.15625,
            "velocity": 0.2125984251968504
          },
          {
            "duration": 0.09375,
            "durationTicks": 96,
            "midi": 60,
            "name": "C4",
            "ticks": 48384,
            "time": 47.25,
            "velocity": 0.2125984251968504
          },
          {
            "duration": 0.09375,
            "durationTicks": 96,
            "midi": 64,
            "name": "E4",
            "ticks": 48480,
            "time": 47.34375,
            "velocity": 0.2125984251968504
          },
          {
            "duration": 0.09375,
            "durationTicks": 96,
            "midi": 55,
            "name": "G3",
            "ticks": 48576,
            "time": 47.4375,
            "velocity": 0.2125984251968504
          },
          {
            "duration": 0.09375,
            "durationTicks": 96,
            "midi": 60,
            "name": "C4",
            "ticks": 48672,
            "time": 47.53125,
            "velocity": 0.2125984251968504
          },
          {
            "duration": 0.09375,
            "durationTicks": 96,
            "midi": 64,
            "name": "E4",
            "ticks": 48768,
            "time": 47.625,
            "velocity": 0.2125984251968504
          },
          {
            "duration": 0.09375,
            "durationTicks": 96,
            "midi": 55,
            "name": "G3",
            "ticks": 48864,
            "time": 47.71875,
            "velocity": 0.2125984251968504
          },
          {
            "duration": 0.09375,
            "durationTicks": 96,
            "midi": 60,
            "name": "C4",
            "ticks": 48960,
            "time": 47.8125,
            "velocity": 0.2125984251968504
          },
          {
            "duration": 0.09375,
            "durationTicks": 96,
            "midi": 55,
            "name": "G3",
            "ticks": 49056,
            "time": 47.90625,
            "velocity": 0.2125984251968504
          },
          {
            "duration": 0.09375,
            "durationTicks": 96,
            "midi": 62,
            "name": "D4",
            "ticks": 49152,
            "time": 48,
            "velocity": 0.2125984251968504
          },
          {
            "duration": 0.09375,
            "durationTicks": 96,
            "midi": 55,
            "name": "G3",
            "ticks": 49248,
            "time": 48.09375,
            "velocity": 0.2125984251968504
          },
          {
            "duration": 0.09375,
            "durationTicks": 96,
            "midi": 59,
            "name": "B3",
            "ticks": 49344,
            "time": 48.1875,
            "velocity": 0.2125984251968504
          },
          {
            "duration": 0.09375,
            "durationTicks": 96,
            "midi": 62,
            "name": "D4",
            "ticks": 49440,
            "time": 48.28125,
            "velocity": 0.2125984251968504
          },
          {
            "duration": 0.09375,
            "durationTicks": 96,
            "midi": 55,
            "name": "G3",
            "ticks": 49536,
            "time": 48.375,
            "velocity": 0.2125984251968504
          },
          {
            "duration": 0.09375,
            "durationTicks": 96,
            "midi": 59,
            "name": "B3",
            "ticks": 49632,
            "time": 48.46875,
            "velocity": 0.2125984251968504
          },
          {
            "duration": 0.09375,
            "durationTicks": 96,
            "midi": 62,
            "name": "D4",
            "ticks": 49728,
            "time": 48.5625,
            "velocity": 0.2125984251968504
          },
          {
            "duration": 0.09375,
            "durationTicks": 96,
            "midi": 55,
            "name": "G3",
            "ticks": 49824,
            "time": 48.65625,
            "velocity": 0.2125984251968504
          },
          {
            "duration": 0.09375,
            "durationTicks": 96,
            "midi": 62,
            "name": "D4",
            "ticks": 49920,
            "time": 48.75,
            "velocity": 0.2125984251968504
          },
          {
            "duration": 0.09375,
            "durationTicks": 96,
            "midi": 54,
            "name": "F#3",
            "ticks": 50016,
            "time": 48.84375,
            "velocity": 0.2125984251968504
          },
          {
            "duration": 0.09375,
            "durationTicks": 96,
            "midi": 64,
            "name": "E4",
            "ticks": 50112,
            "time": 48.9375,
            "velocity": 0.2125984251968504
          },
          {
            "duration": 0.09375,
            "durationTicks": 96,
            "midi": 62,
            "name": "D4",
            "ticks": 50208,
            "time": 49.03125,
            "velocity": 0.2125984251968504
          },
          {
            "duration": 0.09375,
            "durationTicks": 96,
            "midi": 54,
            "name": "F#3",
            "ticks": 50304,
            "time": 49.125,
            "velocity": 0.2125984251968504
          },
          {
            "duration": 0.09375,
            "durationTicks": 96,
            "midi": 57,
            "name": "A3",
            "ticks": 50400,
            "time": 49.21875,
            "velocity": 0.2125984251968504
          },
          {
            "duration": 0.09375,
            "durationTicks": 96,
            "midi": 62,
            "name": "D4",
            "ticks": 50496,
            "time": 49.3125,
            "velocity": 0.2125984251968504
          },
          {
            "duration": 0.09375,
            "durationTicks": 96,
            "midi": 54,
            "name": "F#3",
            "ticks": 50592,
            "time": 49.40625,
            "velocity": 0.2125984251968504
          },
          {
            "duration": 0.09375,
            "durationTicks": 96,
            "midi": 62,
            "name": "D4",
            "ticks": 50688,
            "time": 49.5,
            "velocity": 0.2125984251968504
          },
          {
            "duration": 0.09375,
            "durationTicks": 96,
            "midi": 55,
            "name": "G3",
            "ticks": 50784,
            "time": 49.59375,
            "velocity": 0.2125984251968504
          },
          {
            "duration": 0.09375,
            "durationTicks": 96,
            "midi": 59,
            "name": "B3",
            "ticks": 50880,
            "time": 49.6875,
            "velocity": 0.2125984251968504
          },
          {
            "duration": 0.09375,
            "durationTicks": 96,
            "midi": 62,
            "name": "D4",
            "ticks": 50976,
            "time": 49.78125,
            "velocity": 0.2125984251968504
          },
          {
            "duration": 0.09375,
            "durationTicks": 96,
            "midi": 55,
            "name": "G3",
            "ticks": 51072,
            "time": 49.875,
            "velocity": 0.2125984251968504
          },
          {
            "duration": 0.09375,
            "durationTicks": 96,
            "midi": 58,
            "name": "A#3",
            "ticks": 51168,
            "time": 49.96875,
            "velocity": 0.2125984251968504
          },
          {
            "duration": 0.09375,
            "durationTicks": 96,
            "midi": 57,
            "name": "A3",
            "ticks": 51264,
            "time": 50.0625,
            "velocity": 0.2125984251968504
          },
          {
            "duration": 0.09375,
            "durationTicks": 96,
            "midi": 52,
            "name": "E3",
            "ticks": 51360,
            "time": 50.15625,
            "velocity": 0.2125984251968504
          },
          {
            "duration": 0.09375,
            "durationTicks": 96,
            "midi": 58,
            "name": "A#3",
            "ticks": 51456,
            "time": 50.25,
            "velocity": 0.2125984251968504
          },
          {
            "duration": 0.09375,
            "durationTicks": 96,
            "midi": 57,
            "name": "A3",
            "ticks": 51552,
            "time": 50.34375,
            "velocity": 0.2125984251968504
          },
          {
            "duration": 0.09375,
            "durationTicks": 96,
            "midi": 52,
            "name": "E3",
            "ticks": 51648,
            "time": 50.4375,
            "velocity": 0.2125984251968504
          },
          {
            "duration": 0.09375,
            "durationTicks": 96,
            "midi": 55,
            "name": "G3",
            "ticks": 51744,
            "time": 50.53125,
            "velocity": 0.2125984251968504
          },
          {
            "duration": 0.09375,
            "durationTicks": 96,
            "midi": 55,
            "name": "G3",
            "ticks": 51840,
            "time": 50.625,
            "velocity": 0.2125984251968504
          },
          {
            "duration": 0.09375,
            "durationTicks": 96,
            "midi": 50,
            "name": "D3",
            "ticks": 51936,
            "time": 50.71875,
            "velocity": 0.2125984251968504
          },
          {
            "duration": 0.09375,
            "durationTicks": 96,
            "midi": 52,
            "name": "E3",
            "ticks": 52032,
            "time": 50.8125,
            "velocity": 0.2125984251968504
          },
          {
            "duration": 0.09375,
            "durationTicks": 96,
            "midi": 55,
            "name": "G3",
            "ticks": 52128,
            "time": 50.90625,
            "velocity": 0.2125984251968504
          }
        ],
        "endOfTrackTicks": 52224
      },
      {
        "channel": 2,
        "controlChanges": {},
        "pitchBends": [],
        "instrument": {
          "family": "synth lead",
          "number": 81,
          "name": "lead 2 (sawtooth)"
        },
        "name": "8-Bit Sawtooth",
        "notes": [
          {
            "duration": 0.09375,
            "durationTicks": 96,
            "midi": 67,
            "name": "G4",
            "ticks": 3072,
            "time": 3,
            "velocity": 0.33070866141732286
          },
          {
            "duration": 0.09375,
            "durationTicks": 96,
            "midi": 64,
            "name": "E4",
            "ticks": 3264,
            "time": 3.1875,
            "velocity": 0.33070866141732286
          },
          {
            "duration": 0.09375,
            "durationTicks": 96,
            "midi": 62,
            "name": "D4",
            "ticks": 3456,
            "time": 3.375,
            "velocity": 0.33070866141732286
          },
          {
            "duration": 0.09375,
            "durationTicks": 96,
            "midi": 60,
            "name": "C4",
            "ticks": 3552,
            "time": 3.46875,
            "velocity": 0.33070866141732286
          },
          {
            "duration": 0.28125,
            "durationTicks": 288,
            "midi": 59,
            "name": "B3",
            "ticks": 3744,
            "time": 3.65625,
            "velocity": 0.33070866141732286
          },
          {
            "duration": 0.09375,
            "durationTicks": 96,
            "midi": 60,
            "name": "C4",
            "ticks": 4032,
            "time": 3.9375,
            "velocity": 0.33070866141732286
          },
          {
            "duration": 0.09375,
            "durationTicks": 96,
            "midi": 62,
            "name": "D4",
            "ticks": 4224,
            "time": 4.125,
            "velocity": 0.33070866141732286
          },
          {
            "duration": 0.09375,
            "durationTicks": 96,
            "midi": 64,
            "name": "E4",
            "ticks": 4416,
            "time": 4.3125,
            "velocity": 0.33070866141732286
          },
          {
            "duration": 0.1875,
            "durationTicks": 192,
            "midi": 62,
            "name": "D4",
            "ticks": 4608,
            "time": 4.5,
            "velocity": 0.33070866141732286
          },
          {
            "duration": 0.28125,
            "durationTicks": 288,
            "midi": 60,
            "name": "C4",
            "ticks": 4800,
            "time": 4.6875,
            "velocity": 0.33070866141732286
          },
          {
            "duration": 0.84375,
            "durationTicks": 864,
            "midi": 55,
            "name": "G3",
            "ticks": 5184,
            "time": 5.0625,
            "velocity": 0.33070866141732286
          },
          {
            "duration": 0.84375,
            "durationTicks": 864,
            "midi": 60,
            "name": "C4",
            "ticks": 5184,
            "time": 5.0625,
            "velocity": 0.33070866141732286
          },
          {
            "duration": 0.28125,
            "durationTicks": 288,
            "midi": 59,
            "name": "B3",
            "ticks": 6144,
            "time": 6,
            "velocity": 0.33070866141732286
          },
          {
            "duration": 0.28125,
            "durationTicks": 288,
            "midi": 62,
            "name": "D4",
            "ticks": 6528,
            "time": 6.375,
            "velocity": 0.33070866141732286
          },
          {
            "duration": 0.28125,
            "durationTicks": 288,
            "midi": 60,
            "name": "C4",
            "ticks": 6912,
            "time": 6.75,
            "velocity": 0.33070866141732286
          },
          {
            "duration": 0.28125,
            "durationTicks": 288,
            "midi": 59,
            "name": "B3",
            "ticks": 7296,
            "time": 7.125,
            "velocity": 0.33070866141732286
          },
          {
            "duration": 0.09375,
            "durationTicks": 96,
            "midi": 59,
            "name": "B3",
            "ticks": 7680,
            "time": 7.5,
            "velocity": 0.33070866141732286
          },
          {
            "duration": 0.65625,
            "durationTicks": 672,
            "midi": 57,
            "name": "A3",
            "ticks": 7872,
            "time": 7.6875,
            "velocity": 0.33070866141732286
          },
          {
            "duration": 0.09375,
            "durationTicks": 96,
            "midi": 59,
            "name": "B3",
            "ticks": 8640,
            "time": 8.4375,
            "velocity": 0.33070866141732286
          },
          {
            "duration": 0.09375,
            "durationTicks": 96,
            "midi": 62,
            "name": "D4",
            "ticks": 8832,
            "time": 8.625,
            "velocity": 0.33070866141732286
          },
          {
            "duration": 0.09375,
            "durationTicks": 96,
            "midi": 64,
            "name": "E4",
            "ticks": 9024,
            "time": 8.8125,
            "velocity": 0.33070866141732286
          },
          {
            "duration": 0.09375,
            "durationTicks": 96,
            "midi": 67,
            "name": "G4",
            "ticks": 9216,
            "time": 9,
            "velocity": 0.33070866141732286
          },
          {
            "duration": 0.09375,
            "durationTicks": 96,
            "midi": 64,
            "name": "E4",
            "ticks": 9408,
            "time": 9.1875,
            "velocity": 0.33070866141732286
          },
          {
            "duration": 0.09375,
            "durationTicks": 96,
            "midi": 62,
            "name": "D4",
            "ticks": 9600,
            "time": 9.375,
            "velocity": 0.33070866141732286
          },
          {
            "duration": 0.09375,
            "durationTicks": 96,
            "midi": 60,
            "name": "C4",
            "ticks": 9696,
            "time": 9.46875,
            "velocity": 0.33070866141732286
          },
          {
            "duration": 0.28125,
            "durationTicks": 288,
            "midi": 59,
            "name": "B3",
            "ticks": 9888,
            "time": 9.65625,
            "velocity": 0.33070866141732286
          },
          {
            "duration": 0.09375,
            "durationTicks": 96,
            "midi": 60,
            "name": "C4",
            "ticks": 10176,
            "time": 9.9375,
            "velocity": 0.33070866141732286
          },
          {
            "duration": 0.09375,
            "durationTicks": 96,
            "midi": 62,
            "name": "D4",
            "ticks": 10368,
            "time": 10.125,
            "velocity": 0.33070866141732286
          },
          {
            "duration": 0.09375,
            "durationTicks": 96,
            "midi": 64,
            "name": "E4",
            "ticks": 10560,
            "time": 10.3125,
            "velocity": 0.33070866141732286
          },
          {
            "duration": 0.28125,
            "durationTicks": 288,
            "midi": 67,
            "name": "G4",
            "ticks": 10752,
            "time": 10.5,
            "velocity": 0.33070866141732286
          },
          {
            "duration": 0.28125,
            "durationTicks": 288,
            "midi": 69,
            "name": "A4",
            "ticks": 11136,
            "time": 10.875,
            "velocity": 0.33070866141732286
          },
          {
            "duration": 0.09375,
            "durationTicks": 96,
            "midi": 67,
            "name": "G4",
            "ticks": 11520,
            "time": 11.25,
            "velocity": 0.33070866141732286
          },
          {
            "duration": 0.46875,
            "durationTicks": 480,
            "midi": 64,
            "name": "E4",
            "ticks": 11712,
            "time": 11.4375,
            "velocity": 0.33070866141732286
          },
          {
            "duration": 0.09375,
            "durationTicks": 96,
            "midi": 62,
            "name": "D4",
            "ticks": 12288,
            "time": 12,
            "velocity": 0.33070866141732286
          },
          {
            "duration": 0.09375,
            "durationTicks": 96,
            "midi": 64,
            "name": "E4",
            "ticks": 12480,
            "time": 12.1875,
            "velocity": 0.33070866141732286
          },
          {
            "duration": 0.09375,
            "durationTicks": 96,
            "midi": 67,
            "name": "G4",
            "ticks": 12672,
            "time": 12.375,
            "velocity": 0.33070866141732286
          },
          {
            "duration": 0.09375,
            "durationTicks": 96,
            "midi": 69,
            "name": "A4",
            "ticks": 12768,
            "time": 12.46875,
            "velocity": 0.33070866141732286
          },
          {
            "duration": 0.28125,
            "durationTicks": 288,
            "midi": 70,
            "name": "A#4",
            "ticks": 12960,
            "time": 12.65625,
            "velocity": 0.33070866141732286
          },
          {
            "duration": 0.09375,
            "durationTicks": 96,
            "midi": 71,
            "name": "B4",
            "ticks": 13248,
            "time": 12.9375,
            "velocity": 0.33070866141732286
          },
          {
            "duration": 0.09375,
            "durationTicks": 96,
            "midi": 67,
            "name": "G4",
            "ticks": 13440,
            "time": 13.125,
            "velocity": 0.33070866141732286
          },
          {
            "duration": 0.09375,
            "durationTicks": 96,
            "midi": 69,
            "name": "A4",
            "ticks": 13632,
            "time": 13.3125,
            "velocity": 0.33070866141732286
          },
          {
            "duration": 1.125,
            "durationTicks": 1152,
            "midi": 62,
            "name": "D4",
            "ticks": 13824,
            "time": 13.5,
            "velocity": 0.33070866141732286
          },
          {
            "duration": 1.125,
            "durationTicks": 1152,
            "midi": 67,
            "name": "G4",
            "ticks": 13824,
            "time": 13.5,
            "velocity": 0.33070866141732286
          },
          {
            "duration": 0.09375,
            "durationTicks": 96,
            "midi": 67,
            "name": "G4",
            "ticks": 15360,
            "time": 15,
            "velocity": 0.33070866141732286
          },
          {
            "duration": 0.09375,
            "durationTicks": 96,
            "midi": 73,
            "name": "C#5",
            "ticks": 15360,
            "time": 15,
            "velocity": 0.33070866141732286
          },
          {
            "duration": 0.09375,
            "durationTicks": 96,
            "midi": 74,
            "name": "D5",
            "ticks": 15456,
            "time": 15.09375,
            "velocity": 0.33070866141732286
          },
          {
            "duration": 0.09375,
            "durationTicks": 96,
            "midi": 67,
            "name": "G4",
            "ticks": 15456,
            "time": 15.09375,
            "velocity": 0.33070866141732286
          },
          {
            "duration": 0.09375,
            "durationTicks": 96,
            "midi": 67,
            "name": "G4",
            "ticks": 15552,
            "time": 15.1875,
            "velocity": 0.33070866141732286
          },
          {
            "duration": 0.09375,
            "durationTicks": 96,
            "midi": 74,
            "name": "D5",
            "ticks": 15552,
            "time": 15.1875,
            "velocity": 0.33070866141732286
          },
          {
            "duration": 0.28125,
            "durationTicks": 288,
            "midi": 67,
            "name": "G4",
            "ticks": 15744,
            "time": 15.375,
            "velocity": 0.33070866141732286
          },
          {
            "duration": 0.28125,
            "durationTicks": 288,
            "midi": 74,
            "name": "D5",
            "ticks": 15744,
            "time": 15.375,
            "velocity": 0.33070866141732286
          },
          {
            "duration": 0.09375,
            "durationTicks": 96,
            "midi": 73,
            "name": "C#5",
            "ticks": 16128,
            "time": 15.75,
            "velocity": 0.33070866141732286
          },
          {
            "duration": 0.09375,
            "durationTicks": 96,
            "midi": 67,
            "name": "G4",
            "ticks": 16128,
            "time": 15.75,
            "velocity": 0.33070866141732286
          },
          {
            "duration": 0.09375,
            "durationTicks": 96,
            "midi": 67,
            "name": "G4",
            "ticks": 16224,
            "time": 15.84375,
            "velocity": 0.33070866141732286
          },
          {
            "duration": 0.09375,
            "durationTicks": 96,
            "midi": 74,
            "name": "D5",
            "ticks": 16224,
            "time": 15.84375,
            "velocity": 0.33070866141732286
          },
          {
            "duration": 0.09375,
            "durationTicks": 96,
            "midi": 67,
            "name": "G4",
            "ticks": 16320,
            "time": 15.9375,
            "velocity": 0.33070866141732286
          },
          {
            "duration": 0.09375,
            "durationTicks": 96,
            "midi": 74,
            "name": "D5",
            "ticks": 16320,
            "time": 15.9375,
            "velocity": 0.33070866141732286
          },
          {
            "duration": 0.28125,
            "durationTicks": 288,
            "midi": 67,
            "name": "G4",
            "ticks": 16512,
            "time": 16.125,
            "velocity": 0.33070866141732286
          },
          {
            "duration": 0.28125,
            "durationTicks": 288,
            "midi": 74,
            "name": "D5",
            "ticks": 16512,
            "time": 16.125,
            "velocity": 0.33070866141732286
          },
          {
            "duration": 0.28125,
            "durationTicks": 288,
            "midi": 67,
            "name": "G4",
            "ticks": 16896,
            "time": 16.5,
            "velocity": 0.33070866141732286
          },
          {
            "duration": 0.28125,
            "durationTicks": 288,
            "midi": 74,
            "name": "D5",
            "ticks": 16896,
            "time": 16.5,
            "velocity": 0.33070866141732286
          },
          {
            "duration": 0.28125,
            "durationTicks": 288,
            "midi": 67,
            "name": "G4",
            "ticks": 17280,
            "time": 16.875,
            "velocity": 0.33070866141732286
          },
          {
            "duration": 0.28125,
            "durationTicks": 288,
            "midi": 72,
            "name": "C5",
            "ticks": 17280,
            "time": 16.875,
            "velocity": 0.33070866141732286
          },
          {
            "duration": 0.09375,
            "durationTicks": 96,
            "midi": 67,
            "name": "G4",
            "ticks": 17664,
            "time": 17.25,
            "velocity": 0.33070866141732286
          },
          {
            "duration": 0.09375,
            "durationTicks": 96,
            "midi": 71,
            "name": "B4",
            "ticks": 17664,
            "time": 17.25,
            "velocity": 0.33070866141732286
          },
          {
            "duration": 0.46875,
            "durationTicks": 480,
            "midi": 62,
            "name": "D4",
            "ticks": 17856,
            "time": 17.4375,
            "velocity": 0.33070866141732286
          },
          {
            "duration": 0.46875,
            "durationTicks": 480,
            "midi": 69,
            "name": "A4",
            "ticks": 17856,
            "time": 17.4375,
            "velocity": 0.33070866141732286
          },
          {
            "duration": 0.09375,
            "durationTicks": 96,
            "midi": 74,
            "name": "D5",
            "ticks": 18432,
            "time": 18,
            "velocity": 0.33070866141732286
          },
          {
            "duration": 0.09375,
            "durationTicks": 96,
            "midi": 67,
            "name": "G4",
            "ticks": 18432,
            "time": 18,
            "velocity": 0.33070866141732286
          },
          {
            "duration": 0.09375,
            "durationTicks": 96,
            "midi": 67,
            "name": "G4",
            "ticks": 18624,
            "time": 18.1875,
            "velocity": 0.33070866141732286
          },
          {
            "duration": 0.09375,
            "durationTicks": 96,
            "midi": 74,
            "name": "D5",
            "ticks": 18624,
            "time": 18.1875,
            "velocity": 0.33070866141732286
          },
          {
            "duration": 0.09375,
            "durationTicks": 96,
            "midi": 67,
            "name": "G4",
            "ticks": 18720,
            "time": 18.28125,
            "velocity": 0.33070866141732286
          },
          {
            "duration": 0.09375,
            "durationTicks": 96,
            "midi": 74,
            "name": "D5",
            "ticks": 18720,
            "time": 18.28125,
            "velocity": 0.33070866141732286
          },
          {
            "duration": 0.28125,
            "durationTicks": 288,
            "midi": 67,
            "name": "G4",
            "ticks": 18912,
            "time": 18.46875,
            "velocity": 0.33070866141732286
          },
          {
            "duration": 0.28125,
            "durationTicks": 288,
            "midi": 74,
            "name": "D5",
            "ticks": 18912,
            "time": 18.46875,
            "velocity": 0.33070866141732286
          },
          {
            "duration": 0.1875,
            "durationTicks": 192,
            "midi": 74,
            "name": "D5",
            "ticks": 19296,
            "time": 18.84375,
            "velocity": 0.33070866141732286
          },
          {
            "duration": 0.1875,
            "durationTicks": 192,
            "midi": 67,
            "name": "G4",
            "ticks": 19296,
            "time": 18.84375,
            "velocity": 0.33070866141732286
          },
          {
            "duration": 0.1875,
            "durationTicks": 192,
            "midi": 67,
            "name": "G4",
            "ticks": 19584,
            "time": 19.125,
            "velocity": 0.33070866141732286
          },
          {
            "duration": 0.1875,
            "durationTicks": 192,
            "midi": 76,
            "name": "E5",
            "ticks": 19584,
            "time": 19.125,
            "velocity": 0.33070866141732286
          },
          {
            "duration": 0.09375,
            "durationTicks": 96,
            "midi": 67,
            "name": "G4",
            "ticks": 19776,
            "time": 19.3125,
            "velocity": 0.33070866141732286
          },
          {
            "duration": 0.09375,
            "durationTicks": 96,
            "midi": 74,
            "name": "D5",
            "ticks": 19776,
            "time": 19.3125,
            "velocity": 0.33070866141732286
          },
          {
            "duration": 0.09375,
            "durationTicks": 96,
            "midi": 74,
            "name": "D5",
            "ticks": 19968,
            "time": 19.5,
            "velocity": 0.33070866141732286
          },
          {
            "duration": 0.09375,
            "durationTicks": 96,
            "midi": 67,
            "name": "G4",
            "ticks": 19968,
            "time": 19.5,
            "velocity": 0.33070866141732286
          },
          {
            "duration": 1.125,
            "durationTicks": 1152,
            "midi": 66,
            "name": "F#4",
            "ticks": 20160,
            "time": 19.6875,
            "velocity": 0.3779527559055118
          },
          {
            "duration": 1.125,
            "durationTicks": 1152,
            "midi": 69,
            "name": "A4",
            "ticks": 20160,
            "time": 19.6875,
            "velocity": 0.1968503937007874
          },
          {
            "duration": 0.09375,
            "durationTicks": 96,
            "midi": 67,
            "name": "G4",
            "ticks": 21504,
            "time": 21,
            "velocity": 0.33070866141732286
          },
          {
            "duration": 0.09375,
            "durationTicks": 96,
            "midi": 73,
            "name": "C#5",
            "ticks": 21504,
            "time": 21,
            "velocity": 0.33070866141732286
          },
          {
            "duration": 0.09375,
            "durationTicks": 96,
            "midi": 67,
            "name": "G4",
            "ticks": 21600,
            "time": 21.09375,
            "velocity": 0.33070866141732286
          },
          {
            "duration": 0.09375,
            "durationTicks": 96,
            "midi": 74,
            "name": "D5",
            "ticks": 21600,
            "time": 21.09375,
            "velocity": 0.33070866141732286
          },
          {
            "duration": 0.09375,
            "durationTicks": 96,
            "midi": 74,
            "name": "D5",
            "ticks": 21696,
            "time": 21.1875,
            "velocity": 0.33070866141732286
          },
          {
            "duration": 0.09375,
            "durationTicks": 96,
            "midi": 67,
            "name": "G4",
            "ticks": 21696,
            "time": 21.1875,
            "velocity": 0.33070866141732286
          },
          {
            "duration": 0.28125,
            "durationTicks": 288,
            "midi": 67,
            "name": "G4",
            "ticks": 21888,
            "time": 21.375,
            "velocity": 0.33070866141732286
          },
          {
            "duration": 0.28125,
            "durationTicks": 288,
            "midi": 74,
            "name": "D5",
            "ticks": 21888,
            "time": 21.375,
            "velocity": 0.33070866141732286
          },
          {
            "duration": 0.09375,
            "durationTicks": 96,
            "midi": 67,
            "name": "G4",
            "ticks": 22272,
            "time": 21.75,
            "velocity": 0.33070866141732286
          },
          {
            "duration": 0.09375,
            "durationTicks": 96,
            "midi": 73,
            "name": "C#5",
            "ticks": 22272,
            "time": 21.75,
            "velocity": 0.33070866141732286
          },
          {
            "duration": 0.09375,
            "durationTicks": 96,
            "midi": 67,
            "name": "G4",
            "ticks": 22368,
            "time": 21.84375,
            "velocity": 0.33070866141732286
          },
          {
            "duration": 0.09375,
            "durationTicks": 96,
            "midi": 74,
            "name": "D5",
            "ticks": 22368,
            "time": 21.84375,
            "velocity": 0.33070866141732286
          },
          {
            "duration": 0.09375,
            "durationTicks": 96,
            "midi": 74,
            "name": "D5",
            "ticks": 22464,
            "time": 21.9375,
            "velocity": 0.33070866141732286
          },
          {
            "duration": 0.09375,
            "durationTicks": 96,
            "midi": 67,
            "name": "G4",
            "ticks": 22464,
            "time": 21.9375,
            "velocity": 0.33070866141732286
          },
          {
            "duration": 0.28125,
            "durationTicks": 288,
            "midi": 67,
            "name": "G4",
            "ticks": 22656,
            "time": 22.125,
            "velocity": 0.33070866141732286
          },
          {
            "duration": 0.28125,
            "durationTicks": 288,
            "midi": 74,
            "name": "D5",
            "ticks": 22656,
            "time": 22.125,
            "velocity": 0.33070866141732286
          },
          {
            "duration": 0.28125,
            "durationTicks": 288,
            "midi": 67,
            "name": "G4",
            "ticks": 23040,
            "time": 22.5,
            "velocity": 0.33070866141732286
          },
          {
            "duration": 0.28125,
            "durationTicks": 288,
            "midi": 74,
            "name": "D5",
            "ticks": 23040,
            "time": 22.5,
            "velocity": 0.33070866141732286
          },
          {
            "duration": 0.28125,
            "durationTicks": 288,
            "midi": 72,
            "name": "C5",
            "ticks": 23424,
            "time": 22.875,
            "velocity": 0.33070866141732286
          },
          {
            "duration": 0.28125,
            "durationTicks": 288,
            "midi": 67,
            "name": "G4",
            "ticks": 23424,
            "time": 22.875,
            "velocity": 0.33070866141732286
          },
          {
            "duration": 0.09375,
            "durationTicks": 96,
            "midi": 71,
            "name": "B4",
            "ticks": 23808,
            "time": 23.25,
            "velocity": 0.33070866141732286
          },
          {
            "duration": 0.09375,
            "durationTicks": 96,
            "midi": 67,
            "name": "G4",
            "ticks": 23808,
            "time": 23.25,
            "velocity": 0.33070866141732286
          },
          {
            "duration": 0.46875,
            "durationTicks": 480,
            "midi": 62,
            "name": "D4",
            "ticks": 24000,
            "time": 23.4375,
            "velocity": 0.33070866141732286
          },
          {
            "duration": 0.46875,
            "durationTicks": 480,
            "midi": 69,
            "name": "A4",
            "ticks": 24000,
            "time": 23.4375,
            "velocity": 0.33070866141732286
          },
          {
            "duration": 0.28125,
            "durationTicks": 288,
            "midi": 67,
            "name": "G4",
            "ticks": 24576,
            "time": 24,
            "velocity": 0.33070866141732286
          },
          {
            "duration": 0.28125,
            "durationTicks": 288,
            "midi": 72,
            "name": "C5",
            "ticks": 24576,
            "time": 24,
            "velocity": 0.33070866141732286
          },
          {
            "duration": 0.28125,
            "durationTicks": 288,
            "midi": 71,
            "name": "B4",
            "ticks": 24960,
            "time": 24.375,
            "velocity": 0.33070866141732286
          },
          {
            "duration": 0.28125,
            "durationTicks": 288,
            "midi": 67,
            "name": "G4",
            "ticks": 24960,
            "time": 24.375,
            "velocity": 0.33070866141732286
          },
          {
            "duration": 0.28125,
            "durationTicks": 288,
            "midi": 66,
            "name": "F#4",
            "ticks": 25344,
            "time": 24.75,
            "velocity": 0.33070866141732286
          },
          {
            "duration": 0.28125,
            "durationTicks": 288,
            "midi": 70,
            "name": "A#4",
            "ticks": 25344,
            "time": 24.75,
            "velocity": 0.33070866141732286
          },
          {
            "duration": 0.28125,
            "durationTicks": 288,
            "midi": 66,
            "name": "F#4",
            "ticks": 25728,
            "time": 25.125,
            "velocity": 0.33070866141732286
          },
          {
            "duration": 0.28125,
            "durationTicks": 288,
            "midi": 69,
            "name": "A4",
            "ticks": 25728,
            "time": 25.125,
            "velocity": 0.33070866141732286
          },
          {
            "duration": 1.03125,
            "durationTicks": 1056,
            "midi": 62,
            "name": "D4",
            "ticks": 26112,
            "time": 25.5,
            "velocity": 0.33070866141732286
          },
          {
            "duration": 1.03125,
            "durationTicks": 1056,
            "midi": 67,
            "name": "G4",
            "ticks": 26112,
            "time": 25.5,
            "velocity": 0.33070866141732286
          },
          {
            "duration": 0.09375,
            "durationTicks": 96,
            "midi": 67,
            "name": "G4",
            "ticks": 27648,
            "time": 27,
            "velocity": 0.33070866141732286
          },
          {
            "duration": 0.09375,
            "durationTicks": 96,
            "midi": 64,
            "name": "E4",
            "ticks": 27840,
            "time": 27.1875,
            "velocity": 0.33070866141732286
          },
          {
            "duration": 0.09375,
            "durationTicks": 96,
            "midi": 62,
            "name": "D4",
            "ticks": 28032,
            "time": 27.375,
            "velocity": 0.33070866141732286
          },
          {
            "duration": 0.09375,
            "durationTicks": 96,
            "midi": 60,
            "name": "C4",
            "ticks": 28128,
            "time": 27.46875,
            "velocity": 0.33070866141732286
          },
          {
            "duration": 0.28125,
            "durationTicks": 288,
            "midi": 59,
            "name": "B3",
            "ticks": 28320,
            "time": 27.65625,
            "velocity": 0.33070866141732286
          },
          {
            "duration": 0.09375,
            "durationTicks": 96,
            "midi": 60,
            "name": "C4",
            "ticks": 28608,
            "time": 27.9375,
            "velocity": 0.33070866141732286
          },
          {
            "duration": 0.09375,
            "durationTicks": 96,
            "midi": 62,
            "name": "D4",
            "ticks": 28800,
            "time": 28.125,
            "velocity": 0.33070866141732286
          },
          {
            "duration": 0.09375,
            "durationTicks": 96,
            "midi": 64,
            "name": "E4",
            "ticks": 28992,
            "time": 28.3125,
            "velocity": 0.33070866141732286
          },
          {
            "duration": 0.1875,
            "durationTicks": 192,
            "midi": 62,
            "name": "D4",
            "ticks": 29184,
            "time": 28.5,
            "velocity": 0.33070866141732286
          },
          {
            "duration": 0.28125,
            "durationTicks": 288,
            "midi": 60,
            "name": "C4",
            "ticks": 29376,
            "time": 28.6875,
            "velocity": 0.33070866141732286
          },
          {
            "duration": 0.84375,
            "durationTicks": 864,
            "midi": 55,
            "name": "G3",
            "ticks": 29760,
            "time": 29.0625,
            "velocity": 0.33070866141732286
          },
          {
            "duration": 0.84375,
            "durationTicks": 864,
            "midi": 60,
            "name": "C4",
            "ticks": 29760,
            "time": 29.0625,
            "velocity": 0.33070866141732286
          },
          {
            "duration": 0.28125,
            "durationTicks": 288,
            "midi": 59,
            "name": "B3",
            "ticks": 30720,
            "time": 30,
            "velocity": 0.33070866141732286
          },
          {
            "duration": 0.28125,
            "durationTicks": 288,
            "midi": 62,
            "name": "D4",
            "ticks": 31104,
            "time": 30.375,
            "velocity": 0.33070866141732286
          },
          {
            "duration": 0.28125,
            "durationTicks": 288,
            "midi": 60,
            "name": "C4",
            "ticks": 31488,
            "time": 30.75,
            "velocity": 0.33070866141732286
          },
          {
            "duration": 0.28125,
            "durationTicks": 288,
            "midi": 59,
            "name": "B3",
            "ticks": 31872,
            "time": 31.125,
            "velocity": 0.33070866141732286
          },
          {
            "duration": 0.09375,
            "durationTicks": 96,
            "midi": 59,
            "name": "B3",
            "ticks": 32256,
            "time": 31.5,
            "velocity": 0.33070866141732286
          },
          {
            "duration": 0.65625,
            "durationTicks": 672,
            "midi": 57,
            "name": "A3",
            "ticks": 32448,
            "time": 31.6875,
            "velocity": 0.33070866141732286
          },
          {
            "duration": 0.09375,
            "durationTicks": 96,
            "midi": 59,
            "name": "B3",
            "ticks": 33216,
            "time": 32.4375,
            "velocity": 0.33070866141732286
          },
          {
            "duration": 0.09375,
            "durationTicks": 96,
            "midi": 62,
            "name": "D4",
            "ticks": 33408,
            "time": 32.625,
            "velocity": 0.33070866141732286
          },
          {
            "duration": 0.09375,
            "durationTicks": 96,
            "midi": 64,
            "name": "E4",
            "ticks": 33600,
            "time": 32.8125,
            "velocity": 0.33070866141732286
          },
          {
            "duration": 0.09375,
            "durationTicks": 96,
            "midi": 67,
            "name": "G4",
            "ticks": 33792,
            "time": 33,
            "velocity": 0.33070866141732286
          },
          {
            "duration": 0.09375,
            "durationTicks": 96,
            "midi": 64,
            "name": "E4",
            "ticks": 33984,
            "time": 33.1875,
            "velocity": 0.33070866141732286
          },
          {
            "duration": 0.09375,
            "durationTicks": 96,
            "midi": 62,
            "name": "D4",
            "ticks": 34176,
            "time": 33.375,
            "velocity": 0.33070866141732286
          },
          {
            "duration": 0.09375,
            "durationTicks": 96,
            "midi": 60,
            "name": "C4",
            "ticks": 34272,
            "time": 33.46875,
            "velocity": 0.33070866141732286
          },
          {
            "duration": 0.28125,
            "durationTicks": 288,
            "midi": 59,
            "name": "B3",
            "ticks": 34464,
            "time": 33.65625,
            "velocity": 0.33070866141732286
          },
          {
            "duration": 0.09375,
            "durationTicks": 96,
            "midi": 60,
            "name": "C4",
            "ticks": 34752,
            "time": 33.9375,
            "velocity": 0.33070866141732286
          },
          {
            "duration": 0.09375,
            "durationTicks": 96,
            "midi": 62,
            "name": "D4",
            "ticks": 34944,
            "time": 34.125,
            "velocity": 0.33070866141732286
          },
          {
            "duration": 0.09375,
            "durationTicks": 96,
            "midi": 64,
            "name": "E4",
            "ticks": 35136,
            "time": 34.3125,
            "velocity": 0.33070866141732286
          },
          {
            "duration": 0.28125,
            "durationTicks": 288,
            "midi": 67,
            "name": "G4",
            "ticks": 35328,
            "time": 34.5,
            "velocity": 0.33070866141732286
          },
          {
            "duration": 0.28125,
            "durationTicks": 288,
            "midi": 69,
            "name": "A4",
            "ticks": 35712,
            "time": 34.875,
            "velocity": 0.33070866141732286
          },
          {
            "duration": 0.09375,
            "durationTicks": 96,
            "midi": 67,
            "name": "G4",
            "ticks": 36096,
            "time": 35.25,
            "velocity": 0.33070866141732286
          },
          {
            "duration": 0.46875,
            "durationTicks": 480,
            "midi": 64,
            "name": "E4",
            "ticks": 36288,
            "time": 35.4375,
            "velocity": 0.33070866141732286
          },
          {
            "duration": 0.09375,
            "durationTicks": 96,
            "midi": 62,
            "name": "D4",
            "ticks": 36864,
            "time": 36,
            "velocity": 0.33070866141732286
          },
          {
            "duration": 0.09375,
            "durationTicks": 96,
            "midi": 64,
            "name": "E4",
            "ticks": 37056,
            "time": 36.1875,
            "velocity": 0.33070866141732286
          },
          {
            "duration": 0.09375,
            "durationTicks": 96,
            "midi": 67,
            "name": "G4",
            "ticks": 37248,
            "time": 36.375,
            "velocity": 0.33070866141732286
          },
          {
            "duration": 0.09375,
            "durationTicks": 96,
            "midi": 69,
            "name": "A4",
            "ticks": 37344,
            "time": 36.46875,
            "velocity": 0.33070866141732286
          },
          {
            "duration": 0.28125,
            "durationTicks": 288,
            "midi": 70,
            "name": "A#4",
            "ticks": 37536,
            "time": 36.65625,
            "velocity": 0.33070866141732286
          },
          {
            "duration": 0.09375,
            "durationTicks": 96,
            "midi": 71,
            "name": "B4",
            "ticks": 37824,
            "time": 36.9375,
            "velocity": 0.33070866141732286
          },
          {
            "duration": 0.09375,
            "durationTicks": 96,
            "midi": 67,
            "name": "G4",
            "ticks": 38016,
            "time": 37.125,
            "velocity": 0.33070866141732286
          },
          {
            "duration": 0.09375,
            "durationTicks": 96,
            "midi": 69,
            "name": "A4",
            "ticks": 38208,
            "time": 37.3125,
            "velocity": 0.33070866141732286
          },
          {
            "duration": 1.125,
            "durationTicks": 1152,
            "midi": 62,
            "name": "D4",
            "ticks": 38400,
            "time": 37.5,
            "velocity": 0.33070866141732286
          },
          {
            "duration": 1.125,
            "durationTicks": 1152,
            "midi": 67,
            "name": "G4",
            "ticks": 38400,
            "time": 37.5,
            "velocity": 0.33070866141732286
          },
          {
            "duration": 0.09375,
            "durationTicks": 96,
            "midi": 67,
            "name": "G4",
            "ticks": 39936,
            "time": 39,
            "velocity": 0.33070866141732286
          },
          {
            "duration": 0.09375,
            "durationTicks": 96,
            "midi": 73,
            "name": "C#5",
            "ticks": 39936,
            "time": 39,
            "velocity": 0.33070866141732286
          },
          {
            "duration": 0.09375,
            "durationTicks": 96,
            "midi": 74,
            "name": "D5",
            "ticks": 40032,
            "time": 39.09375,
            "velocity": 0.33070866141732286
          },
          {
            "duration": 0.09375,
            "durationTicks": 96,
            "midi": 67,
            "name": "G4",
            "ticks": 40032,
            "time": 39.09375,
            "velocity": 0.33070866141732286
          },
          {
            "duration": 0.09375,
            "durationTicks": 96,
            "midi": 67,
            "name": "G4",
            "ticks": 40128,
            "time": 39.1875,
            "velocity": 0.33070866141732286
          },
          {
            "duration": 0.09375,
            "durationTicks": 96,
            "midi": 74,
            "name": "D5",
            "ticks": 40128,
            "time": 39.1875,
            "velocity": 0.33070866141732286
          },
          {
            "duration": 0.28125,
            "durationTicks": 288,
            "midi": 67,
            "name": "G4",
            "ticks": 40320,
            "time": 39.375,
            "velocity": 0.33070866141732286
          },
          {
            "duration": 0.28125,
            "durationTicks": 288,
            "midi": 74,
            "name": "D5",
            "ticks": 40320,
            "time": 39.375,
            "velocity": 0.33070866141732286
          },
          {
            "duration": 0.09375,
            "durationTicks": 96,
            "midi": 73,
            "name": "C#5",
            "ticks": 40704,
            "time": 39.75,
            "velocity": 0.33070866141732286
          },
          {
            "duration": 0.09375,
            "durationTicks": 96,
            "midi": 67,
            "name": "G4",
            "ticks": 40704,
            "time": 39.75,
            "velocity": 0.33070866141732286
          },
          {
            "duration": 0.09375,
            "durationTicks": 96,
            "midi": 67,
            "name": "G4",
            "ticks": 40800,
            "time": 39.84375,
            "velocity": 0.33070866141732286
          },
          {
            "duration": 0.09375,
            "durationTicks": 96,
            "midi": 74,
            "name": "D5",
            "ticks": 40800,
            "time": 39.84375,
            "velocity": 0.33070866141732286
          },
          {
            "duration": 0.09375,
            "durationTicks": 96,
            "midi": 67,
            "name": "G4",
            "ticks": 40896,
            "time": 39.9375,
            "velocity": 0.33070866141732286
          },
          {
            "duration": 0.09375,
            "durationTicks": 96,
            "midi": 74,
            "name": "D5",
            "ticks": 40896,
            "time": 39.9375,
            "velocity": 0.33070866141732286
          },
          {
            "duration": 0.28125,
            "durationTicks": 288,
            "midi": 67,
            "name": "G4",
            "ticks": 41088,
            "time": 40.125,
            "velocity": 0.33070866141732286
          },
          {
            "duration": 0.28125,
            "durationTicks": 288,
            "midi": 74,
            "name": "D5",
            "ticks": 41088,
            "time": 40.125,
            "velocity": 0.33070866141732286
          },
          {
            "duration": 0.28125,
            "durationTicks": 288,
            "midi": 74,
            "name": "D5",
            "ticks": 41472,
            "time": 40.5,
            "velocity": 0.33070866141732286
          },
          {
            "duration": 0.28125,
            "durationTicks": 288,
            "midi": 67,
            "name": "G4",
            "ticks": 41472,
            "time": 40.5,
            "velocity": 0.33070866141732286
          },
          {
            "duration": 0.28125,
            "durationTicks": 288,
            "midi": 67,
            "name": "G4",
            "ticks": 41856,
            "time": 40.875,
            "velocity": 0.33070866141732286
          },
          {
            "duration": 0.28125,
            "durationTicks": 288,
            "midi": 72,
            "name": "C5",
            "ticks": 41856,
            "time": 40.875,
            "velocity": 0.33070866141732286
          },
          {
            "duration": 0.09375,
            "durationTicks": 96,
            "midi": 67,
            "name": "G4",
            "ticks": 42240,
            "time": 41.25,
            "velocity": 0.33070866141732286
          },
          {
            "duration": 0.09375,
            "durationTicks": 96,
            "midi": 71,
            "name": "B4",
            "ticks": 42240,
            "time": 41.25,
            "velocity": 0.33070866141732286
          },
          {
            "duration": 0.46875,
            "durationTicks": 480,
            "midi": 62,
            "name": "D4",
            "ticks": 42432,
            "time": 41.4375,
            "velocity": 0.33070866141732286
          },
          {
            "duration": 0.46875,
            "durationTicks": 480,
            "midi": 69,
            "name": "A4",
            "ticks": 42432,
            "time": 41.4375,
            "velocity": 0.33070866141732286
          },
          {
            "duration": 0.09375,
            "durationTicks": 96,
            "midi": 74,
            "name": "D5",
            "ticks": 43008,
            "time": 42,
            "velocity": 0.33070866141732286
          },
          {
            "duration": 0.09375,
            "durationTicks": 96,
            "midi": 67,
            "name": "G4",
            "ticks": 43008,
            "time": 42,
            "velocity": 0.33070866141732286
          },
          {
            "duration": 0.09375,
            "durationTicks": 96,
            "midi": 67,
            "name": "G4",
            "ticks": 43200,
            "time": 42.1875,
            "velocity": 0.33070866141732286
          },
          {
            "duration": 0.09375,
            "durationTicks": 96,
            "midi": 74,
            "name": "D5",
            "ticks": 43200,
            "time": 42.1875,
            "velocity": 0.33070866141732286
          },
          {
            "duration": 0.09375,
            "durationTicks": 96,
            "midi": 67,
            "name": "G4",
            "ticks": 43296,
            "time": 42.28125,
            "velocity": 0.33070866141732286
          },
          {
            "duration": 0.09375,
            "durationTicks": 96,
            "midi": 74,
            "name": "D5",
            "ticks": 43296,
            "time": 42.28125,
            "velocity": 0.33070866141732286
          },
          {
            "duration": 0.28125,
            "durationTicks": 288,
            "midi": 67,
            "name": "G4",
            "ticks": 43488,
            "time": 42.46875,
            "velocity": 0.33070866141732286
          },
          {
            "duration": 0.28125,
            "durationTicks": 288,
            "midi": 74,
            "name": "D5",
            "ticks": 43488,
            "time": 42.46875,
            "velocity": 0.33070866141732286
          },
          {
            "duration": 0.1875,
            "durationTicks": 192,
            "midi": 74,
            "name": "D5",
            "ticks": 43872,
            "time": 42.84375,
            "velocity": 0.33070866141732286
          },
          {
            "duration": 0.1875,
            "durationTicks": 192,
            "midi": 67,
            "name": "G4",
            "ticks": 43872,
            "time": 42.84375,
            "velocity": 0.33070866141732286
          },
          {
            "duration": 0.1875,
            "durationTicks": 192,
            "midi": 67,
            "name": "G4",
            "ticks": 44160,
            "time": 43.125,
            "velocity": 0.33070866141732286
          },
          {
            "duration": 0.1875,
            "durationTicks": 192,
            "midi": 76,
            "name": "E5",
            "ticks": 44160,
            "time": 43.125,
            "velocity": 0.33070866141732286
          },
          {
            "duration": 0.09375,
            "durationTicks": 96,
            "midi": 67,
            "name": "G4",
            "ticks": 44352,
            "time": 43.3125,
            "velocity": 0.33070866141732286
          },
          {
            "duration": 0.09375,
            "durationTicks": 96,
            "midi": 74,
            "name": "D5",
            "ticks": 44352,
            "time": 43.3125,
            "velocity": 0.33070866141732286
          },
          {
            "duration": 0.09375,
            "durationTicks": 96,
            "midi": 74,
            "name": "D5",
            "ticks": 44544,
            "time": 43.5,
            "velocity": 0.33070866141732286
          },
          {
            "duration": 0.09375,
            "durationTicks": 96,
            "midi": 67,
            "name": "G4",
            "ticks": 44544,
            "time": 43.5,
            "velocity": 0.33070866141732286
          },
          {
            "duration": 1.125,
            "durationTicks": 1152,
            "midi": 69,
            "name": "A4",
            "ticks": 44736,
            "time": 43.6875,
            "velocity": 0.1968503937007874
          },
          {
            "duration": 1.125,
            "durationTicks": 1152,
            "midi": 66,
            "name": "F#4",
            "ticks": 44736,
            "time": 43.6875,
            "velocity": 0.3779527559055118
          },
          {
            "duration": 0.09375,
            "durationTicks": 96,
            "midi": 67,
            "name": "G4",
            "ticks": 46080,
            "time": 45,
            "velocity": 0.33070866141732286
          },
          {
            "duration": 0.09375,
            "durationTicks": 96,
            "midi": 73,
            "name": "C#5",
            "ticks": 46080,
            "time": 45,
            "velocity": 0.33070866141732286
          },
          {
            "duration": 0.09375,
            "durationTicks": 96,
            "midi": 67,
            "name": "G4",
            "ticks": 46176,
            "time": 45.09375,
            "velocity": 0.33070866141732286
          },
          {
            "duration": 0.09375,
            "durationTicks": 96,
            "midi": 74,
            "name": "D5",
            "ticks": 46176,
            "time": 45.09375,
            "velocity": 0.33070866141732286
          },
          {
            "duration": 0.09375,
            "durationTicks": 96,
            "midi": 74,
            "name": "D5",
            "ticks": 46272,
            "time": 45.1875,
            "velocity": 0.33070866141732286
          },
          {
            "duration": 0.09375,
            "durationTicks": 96,
            "midi": 67,
            "name": "G4",
            "ticks": 46272,
            "time": 45.1875,
            "velocity": 0.33070866141732286
          },
          {
            "duration": 0.28125,
            "durationTicks": 288,
            "midi": 67,
            "name": "G4",
            "ticks": 46464,
            "time": 45.375,
            "velocity": 0.33070866141732286
          },
          {
            "duration": 0.28125,
            "durationTicks": 288,
            "midi": 74,
            "name": "D5",
            "ticks": 46464,
            "time": 45.375,
            "velocity": 0.33070866141732286
          },
          {
            "duration": 0.09375,
            "durationTicks": 96,
            "midi": 67,
            "name": "G4",
            "ticks": 46848,
            "time": 45.75,
            "velocity": 0.33070866141732286
          },
          {
            "duration": 0.09375,
            "durationTicks": 96,
            "midi": 73,
            "name": "C#5",
            "ticks": 46848,
            "time": 45.75,
            "velocity": 0.33070866141732286
          },
          {
            "duration": 0.09375,
            "durationTicks": 96,
            "midi": 67,
            "name": "G4",
            "ticks": 46944,
            "time": 45.84375,
            "velocity": 0.33070866141732286
          },
          {
            "duration": 0.09375,
            "durationTicks": 96,
            "midi": 74,
            "name": "D5",
            "ticks": 46944,
            "time": 45.84375,
            "velocity": 0.33070866141732286
          },
          {
            "duration": 0.09375,
            "durationTicks": 96,
            "midi": 74,
            "name": "D5",
            "ticks": 47040,
            "time": 45.9375,
            "velocity": 0.33070866141732286
          },
          {
            "duration": 0.09375,
            "durationTicks": 96,
            "midi": 67,
            "name": "G4",
            "ticks": 47040,
            "time": 45.9375,
            "velocity": 0.33070866141732286
          },
          {
            "duration": 0.28125,
            "durationTicks": 288,
            "midi": 67,
            "name": "G4",
            "ticks": 47232,
            "time": 46.125,
            "velocity": 0.33070866141732286
          },
          {
            "duration": 0.28125,
            "durationTicks": 288,
            "midi": 74,
            "name": "D5",
            "ticks": 47232,
            "time": 46.125,
            "velocity": 0.33070866141732286
          },
          {
            "duration": 0.28125,
            "durationTicks": 288,
            "midi": 67,
            "name": "G4",
            "ticks": 47616,
            "time": 46.5,
            "velocity": 0.33070866141732286
          },
          {
            "duration": 0.28125,
            "durationTicks": 288,
            "midi": 74,
            "name": "D5",
            "ticks": 47616,
            "time": 46.5,
            "velocity": 0.33070866141732286
          },
          {
            "duration": 0.28125,
            "durationTicks": 288,
            "midi": 72,
            "name": "C5",
            "ticks": 48000,
            "time": 46.875,
            "velocity": 0.33070866141732286
          },
          {
            "duration": 0.28125,
            "durationTicks": 288,
            "midi": 67,
            "name": "G4",
            "ticks": 48000,
            "time": 46.875,
            "velocity": 0.33070866141732286
          },
          {
            "duration": 0.09375,
            "durationTicks": 96,
            "midi": 71,
            "name": "B4",
            "ticks": 48384,
            "time": 47.25,
            "velocity": 0.33070866141732286
          },
          {
            "duration": 0.09375,
            "durationTicks": 96,
            "midi": 67,
            "name": "G4",
            "ticks": 48384,
            "time": 47.25,
            "velocity": 0.33070866141732286
          },
          {
            "duration": 0.46875,
            "durationTicks": 480,
            "midi": 62,
            "name": "D4",
            "ticks": 48576,
            "time": 47.4375,
            "velocity": 0.33070866141732286
          },
          {
            "duration": 0.46875,
            "durationTicks": 480,
            "midi": 69,
            "name": "A4",
            "ticks": 48576,
            "time": 47.4375,
            "velocity": 0.33070866141732286
          },
          {
            "duration": 0.28125,
            "durationTicks": 288,
            "midi": 67,
            "name": "G4",
            "ticks": 49152,
            "time": 48,
            "velocity": 0.33070866141732286
          },
          {
            "duration": 0.28125,
            "durationTicks": 288,
            "midi": 72,
            "name": "C5",
            "ticks": 49152,
            "time": 48,
            "velocity": 0.33070866141732286
          },
          {
            "duration": 0.28125,
            "durationTicks": 288,
            "midi": 71,
            "name": "B4",
            "ticks": 49536,
            "time": 48.375,
            "velocity": 0.33070866141732286
          },
          {
            "duration": 0.28125,
            "durationTicks": 288,
            "midi": 67,
            "name": "G4",
            "ticks": 49536,
            "time": 48.375,
            "velocity": 0.33070866141732286
          },
          {
            "duration": 0.28125,
            "durationTicks": 288,
            "midi": 66,
            "name": "F#4",
            "ticks": 49920,
            "time": 48.75,
            "velocity": 0.33070866141732286
          },
          {
            "duration": 0.28125,
            "durationTicks": 288,
            "midi": 70,
            "name": "A#4",
            "ticks": 49920,
            "time": 48.75,
            "velocity": 0.33070866141732286
          },
          {
            "duration": 0.28125,
            "durationTicks": 288,
            "midi": 66,
            "name": "F#4",
            "ticks": 50304,
            "time": 49.125,
            "velocity": 0.33070866141732286
          },
          {
            "duration": 0.28125,
            "durationTicks": 288,
            "midi": 69,
            "name": "A4",
            "ticks": 50304,
            "time": 49.125,
            "velocity": 0.33070866141732286
          },
          {
            "duration": 1.03125,
            "durationTicks": 1056,
            "midi": 62,
            "name": "D4",
            "ticks": 50688,
            "time": 49.5,
            "velocity": 0.33070866141732286
          },
          {
            "duration": 1.03125,
            "durationTicks": 1056,
            "midi": 67,
            "name": "G4",
            "ticks": 50688,
            "time": 49.5,
            "velocity": 0.33070866141732286
          }
        ],
        "endOfTrackTicks": 51744
      },
      {
        "channel": 3,
        "controlChanges": {},
        "pitchBends": [],
        "instrument": {
          "family": "synth lead",
          "number": 87,
          "name": "lead 8 (bass + lead)"
        },
        "name": "8-Bit Triangle",
        "notes": [
          {
            "duration": 0.65625,
            "durationTicks": 672,
            "midi": 69,
            "name": "A4",
            "ticks": 0,
            "time": 0,
            "velocity": 0.5669291338582677
          },
          {
            "duration": 0.609375,
            "durationTicks": 624,
            "midi": 74,
            "name": "D5",
            "ticks": 48,
            "time": 0.046875,
            "velocity": 0.5669291338582677
          },
          {
            "duration": 0.65625,
            "durationTicks": 672,
            "midi": 69,
            "name": "A4",
            "ticks": 768,
            "time": 0.75,
            "velocity": 0.5669291338582677
          },
          {
            "duration": 0.609375,
            "durationTicks": 624,
            "midi": 74,
            "name": "D5",
            "ticks": 816,
            "time": 0.796875,
            "velocity": 0.5669291338582677
          },
          {
            "duration": 0.28125,
            "durationTicks": 288,
            "midi": 69,
            "name": "A4",
            "ticks": 1536,
            "time": 1.5,
            "velocity": 0.5669291338582677
          },
          {
            "duration": 0.2578125,
            "durationTicks": 264,
            "midi": 74,
            "name": "D5",
            "ticks": 1560,
            "time": 1.5234375,
            "velocity": 0.5669291338582677
          },
          {
            "duration": 0.28125,
            "durationTicks": 288,
            "midi": 69,
            "name": "A4",
            "ticks": 1920,
            "time": 1.875,
            "velocity": 0.5669291338582677
          },
          {
            "duration": 0.2578125,
            "durationTicks": 264,
            "midi": 74,
            "name": "D5",
            "ticks": 1944,
            "time": 1.8984375,
            "velocity": 0.5669291338582677
          },
          {
            "duration": 0.28125,
            "durationTicks": 288,
            "midi": 69,
            "name": "A4",
            "ticks": 2304,
            "time": 2.25,
            "velocity": 0.5669291338582677
          },
          {
            "duration": 0.2578125,
            "durationTicks": 264,
            "midi": 74,
            "name": "D5",
            "ticks": 2328,
            "time": 2.2734375,
            "velocity": 0.5669291338582677
          },
          {
            "duration": 0.28125,
            "durationTicks": 288,
            "midi": 69,
            "name": "A4",
            "ticks": 2688,
            "time": 2.625,
            "velocity": 0.5669291338582677
          },
          {
            "duration": 0.2578125,
            "durationTicks": 264,
            "midi": 74,
            "name": "D5",
            "ticks": 2712,
            "time": 2.6484375,
            "velocity": 0.5669291338582677
          },
          {
            "duration": 0.09375,
            "durationTicks": 96,
            "midi": 47,
            "name": "B2",
            "ticks": 3072,
            "time": 3,
            "velocity": 0.3700787401574803
          },
          {
            "duration": 0.09375,
            "durationTicks": 96,
            "midi": 43,
            "name": "G2",
            "ticks": 3072,
            "time": 3,
            "velocity": 0.3700787401574803
          },
          {
            "duration": 0.09375,
            "durationTicks": 96,
            "midi": 50,
            "name": "D3",
            "ticks": 3072,
            "time": 3,
            "velocity": 0.3700787401574803
          },
          {
            "duration": 0.09375,
            "durationTicks": 96,
            "midi": 43,
            "name": "G2",
            "ticks": 3264,
            "time": 3.1875,
            "velocity": 0.3700787401574803
          },
          {
            "duration": 0.09375,
            "durationTicks": 96,
            "midi": 47,
            "name": "B2",
            "ticks": 3264,
            "time": 3.1875,
            "velocity": 0.3700787401574803
          },
          {
            "duration": 0.09375,
            "durationTicks": 96,
            "midi": 50,
            "name": "D3",
            "ticks": 3264,
            "time": 3.1875,
            "velocity": 0.3700787401574803
          },
          {
            "duration": 0.09375,
            "durationTicks": 96,
            "midi": 47,
            "name": "B2",
            "ticks": 3456,
            "time": 3.375,
            "velocity": 0.3700787401574803
          },
          {
            "duration": 0.09375,
            "durationTicks": 96,
            "midi": 50,
            "name": "D3",
            "ticks": 3456,
            "time": 3.375,
            "velocity": 0.3700787401574803
          },
          {
            "duration": 0.09375,
            "durationTicks": 96,
            "midi": 43,
            "name": "G2",
            "ticks": 3456,
            "time": 3.375,
            "velocity": 0.3700787401574803
          },
          {
            "duration": 0.09375,
            "durationTicks": 96,
            "midi": 43,
            "name": "G2",
            "ticks": 3648,
            "time": 3.5625,
            "velocity": 0.3700787401574803
          },
          {
            "duration": 0.09375,
            "durationTicks": 96,
            "midi": 47,
            "name": "B2",
            "ticks": 3648,
            "time": 3.5625,
            "velocity": 0.3700787401574803
          },
          {
            "duration": 0.09375,
            "durationTicks": 96,
            "midi": 50,
            "name": "D3",
            "ticks": 3648,
            "time": 3.5625,
            "velocity": 0.3700787401574803
          },
          {
            "duration": 0.09375,
            "durationTicks": 96,
            "midi": 47,
            "name": "B2",
            "ticks": 3840,
            "time": 3.75,
            "velocity": 0.3700787401574803
          },
          {
            "duration": 0.09375,
            "durationTicks": 96,
            "midi": 43,
            "name": "G2",
            "ticks": 3840,
            "time": 3.75,
            "velocity": 0.3700787401574803
          },
          {
            "duration": 0.09375,
            "durationTicks": 96,
            "midi": 50,
            "name": "D3",
            "ticks": 3840,
            "time": 3.75,
            "velocity": 0.3700787401574803
          },
          {
            "duration": 0.09375,
            "durationTicks": 96,
            "midi": 43,
            "name": "G2",
            "ticks": 4032,
            "time": 3.9375,
            "velocity": 0.3700787401574803
          },
          {
            "duration": 0.09375,
            "durationTicks": 96,
            "midi": 47,
            "name": "B2",
            "ticks": 4032,
            "time": 3.9375,
            "velocity": 0.3700787401574803
          },
          {
            "duration": 0.09375,
            "durationTicks": 96,
            "midi": 50,
            "name": "D3",
            "ticks": 4032,
            "time": 3.9375,
            "velocity": 0.3700787401574803
          },
          {
            "duration": 0.09375,
            "durationTicks": 96,
            "midi": 47,
            "name": "B2",
            "ticks": 4224,
            "time": 4.125,
            "velocity": 0.3700787401574803
          },
          {
            "duration": 0.09375,
            "durationTicks": 96,
            "midi": 50,
            "name": "D3",
            "ticks": 4224,
            "time": 4.125,
            "velocity": 0.3700787401574803
          },
          {
            "duration": 0.09375,
            "durationTicks": 96,
            "midi": 43,
            "name": "G2",
            "ticks": 4224,
            "time": 4.125,
            "velocity": 0.3700787401574803
          },
          {
            "duration": 0.09375,
            "durationTicks": 96,
            "midi": 43,
            "name": "G2",
            "ticks": 4416,
            "time": 4.3125,
            "velocity": 0.3700787401574803
          },
          {
            "duration": 0.09375,
            "durationTicks": 96,
            "midi": 47,
            "name": "B2",
            "ticks": 4416,
            "time": 4.3125,
            "velocity": 0.3700787401574803
          },
          {
            "duration": 0.09375,
            "durationTicks": 96,
            "midi": 50,
            "name": "D3",
            "ticks": 4416,
            "time": 4.3125,
            "velocity": 0.3700787401574803
          },
          {
            "duration": 0.09375,
            "durationTicks": 96,
            "midi": 43,
            "name": "G2",
            "ticks": 4608,
            "time": 4.5,
            "velocity": 0.3700787401574803
          },
          {
            "duration": 0.09375,
            "durationTicks": 96,
            "midi": 48,
            "name": "C3",
            "ticks": 4608,
            "time": 4.5,
            "velocity": 0.3700787401574803
          },
          {
            "duration": 0.09375,
            "durationTicks": 96,
            "midi": 52,
            "name": "E3",
            "ticks": 4608,
            "time": 4.5,
            "velocity": 0.3700787401574803
          },
          {
            "duration": 0.09375,
            "durationTicks": 96,
            "midi": 52,
            "name": "E3",
            "ticks": 4800,
            "time": 4.6875,
            "velocity": 0.3700787401574803
          },
          {
            "duration": 0.09375,
            "durationTicks": 96,
            "midi": 43,
            "name": "G2",
            "ticks": 4800,
            "time": 4.6875,
            "velocity": 0.3700787401574803
          },
          {
            "duration": 0.09375,
            "durationTicks": 96,
            "midi": 48,
            "name": "C3",
            "ticks": 4800,
            "time": 4.6875,
            "velocity": 0.3700787401574803
          },
          {
            "duration": 0.09375,
            "durationTicks": 96,
            "midi": 48,
            "name": "C3",
            "ticks": 4992,
            "time": 4.875,
            "velocity": 0.3700787401574803
          },
          {
            "duration": 0.09375,
            "durationTicks": 96,
            "midi": 52,
            "name": "E3",
            "ticks": 4992,
            "time": 4.875,
            "velocity": 0.3700787401574803
          },
          {
            "duration": 0.09375,
            "durationTicks": 96,
            "midi": 43,
            "name": "G2",
            "ticks": 4992,
            "time": 4.875,
            "velocity": 0.3700787401574803
          },
          {
            "duration": 0.09375,
            "durationTicks": 96,
            "midi": 43,
            "name": "G2",
            "ticks": 5184,
            "time": 5.0625,
            "velocity": 0.3700787401574803
          },
          {
            "duration": 0.09375,
            "durationTicks": 96,
            "midi": 48,
            "name": "C3",
            "ticks": 5184,
            "time": 5.0625,
            "velocity": 0.3700787401574803
          },
          {
            "duration": 0.09375,
            "durationTicks": 96,
            "midi": 52,
            "name": "E3",
            "ticks": 5184,
            "time": 5.0625,
            "velocity": 0.3700787401574803
          },
          {
            "duration": 0.09375,
            "durationTicks": 96,
            "midi": 48,
            "name": "C3",
            "ticks": 5376,
            "time": 5.25,
            "velocity": 0.3700787401574803
          },
          {
            "duration": 0.09375,
            "durationTicks": 96,
            "midi": 43,
            "name": "G2",
            "ticks": 5376,
            "time": 5.25,
            "velocity": 0.3700787401574803
          },
          {
            "duration": 0.09375,
            "durationTicks": 96,
            "midi": 52,
            "name": "E3",
            "ticks": 5376,
            "time": 5.25,
            "velocity": 0.3700787401574803
          },
          {
            "duration": 0.09375,
            "durationTicks": 96,
            "midi": 52,
            "name": "E3",
            "ticks": 5568,
            "time": 5.4375,
            "velocity": 0.3700787401574803
          },
          {
            "duration": 0.09375,
            "durationTicks": 96,
            "midi": 43,
            "name": "G2",
            "ticks": 5568,
            "time": 5.4375,
            "velocity": 0.3700787401574803
          },
          {
            "duration": 0.09375,
            "durationTicks": 96,
            "midi": 48,
            "name": "C3",
            "ticks": 5568,
            "time": 5.4375,
            "velocity": 0.3700787401574803
          },
          {
            "duration": 0.09375,
            "durationTicks": 96,
            "midi": 52,
            "name": "E3",
            "ticks": 5760,
            "time": 5.625,
            "velocity": 0.3700787401574803
          },
          {
            "duration": 0.09375,
            "durationTicks": 96,
            "midi": 48,
            "name": "C3",
            "ticks": 5760,
            "time": 5.625,
            "velocity": 0.3700787401574803
          },
          {
            "duration": 0.09375,
            "durationTicks": 96,
            "midi": 43,
            "name": "G2",
            "ticks": 5760,
            "time": 5.625,
            "velocity": 0.3700787401574803
          },
          {
            "duration": 0.09375,
            "durationTicks": 96,
            "midi": 43,
            "name": "G2",
            "ticks": 5952,
            "time": 5.8125,
            "velocity": 0.3700787401574803
          },
          {
            "duration": 0.09375,
            "durationTicks": 96,
            "midi": 48,
            "name": "C3",
            "ticks": 5952,
            "time": 5.8125,
            "velocity": 0.3700787401574803
          },
          {
            "duration": 0.09375,
            "durationTicks": 96,
            "midi": 52,
            "name": "E3",
            "ticks": 5952,
            "time": 5.8125,
            "velocity": 0.3700787401574803
          },
          {
            "duration": 0.09375,
            "durationTicks": 96,
            "midi": 47,
            "name": "B2",
            "ticks": 6144,
            "time": 6,
            "velocity": 0.3700787401574803
          },
          {
            "duration": 0.09375,
            "durationTicks": 96,
            "midi": 43,
            "name": "G2",
            "ticks": 6144,
            "time": 6,
            "velocity": 0.3700787401574803
          },
          {
            "duration": 0.09375,
            "durationTicks": 96,
            "midi": 50,
            "name": "D3",
            "ticks": 6144,
            "time": 6,
            "velocity": 0.3700787401574803
          },
          {
            "duration": 0.09375,
            "durationTicks": 96,
            "midi": 43,
            "name": "G2",
            "ticks": 6336,
            "time": 6.1875,
            "velocity": 0.3700787401574803
          },
          {
            "duration": 0.09375,
            "durationTicks": 96,
            "midi": 47,
            "name": "B2",
            "ticks": 6336,
            "time": 6.1875,
            "velocity": 0.3700787401574803
          },
          {
            "duration": 0.09375,
            "durationTicks": 96,
            "midi": 50,
            "name": "D3",
            "ticks": 6336,
            "time": 6.1875,
            "velocity": 0.3700787401574803
          },
          {
            "duration": 0.09375,
            "durationTicks": 96,
            "midi": 47,
            "name": "B2",
            "ticks": 6528,
            "time": 6.375,
            "velocity": 0.3700787401574803
          },
          {
            "duration": 0.09375,
            "durationTicks": 96,
            "midi": 50,
            "name": "D3",
            "ticks": 6528,
            "time": 6.375,
            "velocity": 0.3700787401574803
          },
          {
            "duration": 0.09375,
            "durationTicks": 96,
            "midi": 43,
            "name": "G2",
            "ticks": 6528,
            "time": 6.375,
            "velocity": 0.3700787401574803
          },
          {
            "duration": 0.09375,
            "durationTicks": 96,
            "midi": 43,
            "name": "G2",
            "ticks": 6720,
            "time": 6.5625,
            "velocity": 0.3700787401574803
          },
          {
            "duration": 0.09375,
            "durationTicks": 96,
            "midi": 47,
            "name": "B2",
            "ticks": 6720,
            "time": 6.5625,
            "velocity": 0.3700787401574803
          },
          {
            "duration": 0.09375,
            "durationTicks": 96,
            "midi": 50,
            "name": "D3",
            "ticks": 6720,
            "time": 6.5625,
            "velocity": 0.3700787401574803
          },
          {
            "duration": 0.09375,
            "durationTicks": 96,
            "midi": 50,
            "name": "D3",
            "ticks": 6912,
            "time": 6.75,
            "velocity": 0.3700787401574803
          },
          {
            "duration": 0.09375,
            "durationTicks": 96,
            "midi": 43,
            "name": "G2",
            "ticks": 6912,
            "time": 6.75,
            "velocity": 0.3700787401574803
          },
          {
            "duration": 0.09375,
            "durationTicks": 96,
            "midi": 47,
            "name": "B2",
            "ticks": 6912,
            "time": 6.75,
            "velocity": 0.3700787401574803
          },
          {
            "duration": 0.09375,
            "durationTicks": 96,
            "midi": 50,
            "name": "D3",
            "ticks": 7104,
            "time": 6.9375,
            "velocity": 0.3700787401574803
          },
          {
            "duration": 0.09375,
            "durationTicks": 96,
            "midi": 43,
            "name": "G2",
            "ticks": 7104,
            "time": 6.9375,
            "velocity": 0.3700787401574803
          },
          {
            "duration": 0.09375,
            "durationTicks": 96,
            "midi": 47,
            "name": "B2",
            "ticks": 7104,
            "time": 6.9375,
            "velocity": 0.3700787401574803
          },
          {
            "duration": 0.09375,
            "durationTicks": 96,
            "midi": 50,
            "name": "D3",
            "ticks": 7296,
            "time": 7.125,
            "velocity": 0.3700787401574803
          },
          {
            "duration": 0.09375,
            "durationTicks": 96,
            "midi": 47,
            "name": "B2",
            "ticks": 7296,
            "time": 7.125,
            "velocity": 0.3700787401574803
          },
          {
            "duration": 0.09375,
            "durationTicks": 96,
            "midi": 43,
            "name": "G2",
            "ticks": 7296,
            "time": 7.125,
            "velocity": 0.3700787401574803
          },
          {
            "duration": 0.09375,
            "durationTicks": 96,
            "midi": 43,
            "name": "G2",
            "ticks": 7488,
            "time": 7.3125,
            "velocity": 0.3700787401574803
          },
          {
            "duration": 0.09375,
            "durationTicks": 96,
            "midi": 47,
            "name": "B2",
            "ticks": 7488,
            "time": 7.3125,
            "velocity": 0.3700787401574803
          },
          {
            "duration": 0.09375,
            "durationTicks": 96,
            "midi": 50,
            "name": "D3",
            "ticks": 7488,
            "time": 7.3125,
            "velocity": 0.3700787401574803
          },
          {
            "duration": 0.09375,
            "durationTicks": 96,
            "midi": 45,
            "name": "A2",
            "ticks": 7680,
            "time": 7.5,
            "velocity": 0.3700787401574803
          },
          {
            "duration": 0.09375,
            "durationTicks": 96,
            "midi": 42,
            "name": "F#2",
            "ticks": 7680,
            "time": 7.5,
            "velocity": 0.3700787401574803
          },
          {
            "duration": 0.09375,
            "durationTicks": 96,
            "midi": 50,
            "name": "D3",
            "ticks": 7680,
            "time": 7.5,
            "velocity": 0.3700787401574803
          },
          {
            "duration": 0.09375,
            "durationTicks": 96,
            "midi": 42,
            "name": "F#2",
            "ticks": 7872,
            "time": 7.6875,
            "velocity": 0.3700787401574803
          },
          {
            "duration": 0.09375,
            "durationTicks": 96,
            "midi": 45,
            "name": "A2",
            "ticks": 7872,
            "time": 7.6875,
            "velocity": 0.3700787401574803
          },
          {
            "duration": 0.09375,
            "durationTicks": 96,
            "midi": 50,
            "name": "D3",
            "ticks": 7872,
            "time": 7.6875,
            "velocity": 0.3700787401574803
          },
          {
            "duration": 0.09375,
            "durationTicks": 96,
            "midi": 45,
            "name": "A2",
            "ticks": 8064,
            "time": 7.875,
            "velocity": 0.3700787401574803
          },
          {
            "duration": 0.09375,
            "durationTicks": 96,
            "midi": 50,
            "name": "D3",
            "ticks": 8064,
            "time": 7.875,
            "velocity": 0.3700787401574803
          },
          {
            "duration": 0.09375,
            "durationTicks": 96,
            "midi": 42,
            "name": "F#2",
            "ticks": 8064,
            "time": 7.875,
            "velocity": 0.3700787401574803
          },
          {
            "duration": 0.09375,
            "durationTicks": 96,
            "midi": 42,
            "name": "F#2",
            "ticks": 8256,
            "time": 8.0625,
            "velocity": 0.3700787401574803
          },
          {
            "duration": 0.09375,
            "durationTicks": 96,
            "midi": 45,
            "name": "A2",
            "ticks": 8256,
            "time": 8.0625,
            "velocity": 0.3700787401574803
          },
          {
            "duration": 0.09375,
            "durationTicks": 96,
            "midi": 50,
            "name": "D3",
            "ticks": 8256,
            "time": 8.0625,
            "velocity": 0.3700787401574803
          },
          {
            "duration": 0.09375,
            "durationTicks": 96,
            "midi": 50,
            "name": "D3",
            "ticks": 8448,
            "time": 8.25,
            "velocity": 0.3700787401574803
          },
          {
            "duration": 0.09375,
            "durationTicks": 96,
            "midi": 42,
            "name": "F#2",
            "ticks": 8448,
            "time": 8.25,
            "velocity": 0.3700787401574803
          },
          {
            "duration": 0.09375,
            "durationTicks": 96,
            "midi": 45,
            "name": "A2",
            "ticks": 8448,
            "time": 8.25,
            "velocity": 0.3700787401574803
          },
          {
            "duration": 0.09375,
            "durationTicks": 96,
            "midi": 50,
            "name": "D3",
            "ticks": 8640,
            "time": 8.4375,
            "velocity": 0.3700787401574803
          },
          {
            "duration": 0.09375,
            "durationTicks": 96,
            "midi": 42,
            "name": "F#2",
            "ticks": 8640,
            "time": 8.4375,
            "velocity": 0.3700787401574803
          },
          {
            "duration": 0.09375,
            "durationTicks": 96,
            "midi": 45,
            "name": "A2",
            "ticks": 8640,
            "time": 8.4375,
            "velocity": 0.3700787401574803
          },
          {
            "duration": 0.09375,
            "durationTicks": 96,
            "midi": 42,
            "name": "F#2",
            "ticks": 8832,
            "time": 8.625,
            "velocity": 0.3700787401574803
          },
          {
            "duration": 0.09375,
            "durationTicks": 96,
            "midi": 45,
            "name": "A2",
            "ticks": 8832,
            "time": 8.625,
            "velocity": 0.3700787401574803
          },
          {
            "duration": 0.09375,
            "durationTicks": 96,
            "midi": 50,
            "name": "D3",
            "ticks": 8832,
            "time": 8.625,
            "velocity": 0.3700787401574803
          },
          {
            "duration": 0.09375,
            "durationTicks": 96,
            "midi": 42,
            "name": "F#2",
            "ticks": 9024,
            "time": 8.8125,
            "velocity": 0.3700787401574803
          },
          {
            "duration": 0.09375,
            "durationTicks": 96,
            "midi": 45,
            "name": "A2",
            "ticks": 9024,
            "time": 8.8125,
            "velocity": 0.3700787401574803
          },
          {
            "duration": 0.09375,
            "durationTicks": 96,
            "midi": 50,
            "name": "D3",
            "ticks": 9024,
            "time": 8.8125,
            "velocity": 0.3700787401574803
          },
          {
            "duration": 0.09375,
            "durationTicks": 96,
            "midi": 50,
            "name": "D3",
            "ticks": 9216,
            "time": 9,
            "velocity": 0.3700787401574803
          },
          {
            "duration": 0.09375,
            "durationTicks": 96,
            "midi": 47,
            "name": "B2",
            "ticks": 9216,
            "time": 9,
            "velocity": 0.3700787401574803
          },
          {
            "duration": 0.09375,
            "durationTicks": 96,
            "midi": 43,
            "name": "G2",
            "ticks": 9216,
            "time": 9,
            "velocity": 0.3700787401574803
          },
          {
            "duration": 0.09375,
            "durationTicks": 96,
            "midi": 50,
            "name": "D3",
            "ticks": 9408,
            "time": 9.1875,
            "velocity": 0.3700787401574803
          },
          {
            "duration": 0.09375,
            "durationTicks": 96,
            "midi": 43,
            "name": "G2",
            "ticks": 9408,
            "time": 9.1875,
            "velocity": 0.3700787401574803
          },
          {
            "duration": 0.09375,
            "durationTicks": 96,
            "midi": 47,
            "name": "B2",
            "ticks": 9408,
            "time": 9.1875,
            "velocity": 0.3700787401574803
          },
          {
            "duration": 0.09375,
            "durationTicks": 96,
            "midi": 50,
            "name": "D3",
            "ticks": 9600,
            "time": 9.375,
            "velocity": 0.3700787401574803
          },
          {
            "duration": 0.09375,
            "durationTicks": 96,
            "midi": 47,
            "name": "B2",
            "ticks": 9600,
            "time": 9.375,
            "velocity": 0.3700787401574803
          },
          {
            "duration": 0.09375,
            "durationTicks": 96,
            "midi": 43,
            "name": "G2",
            "ticks": 9600,
            "time": 9.375,
            "velocity": 0.3700787401574803
          },
          {
            "duration": 0.09375,
            "durationTicks": 96,
            "midi": 43,
            "name": "G2",
            "ticks": 9792,
            "time": 9.5625,
            "velocity": 0.3700787401574803
          },
          {
            "duration": 0.09375,
            "durationTicks": 96,
            "midi": 47,
            "name": "B2",
            "ticks": 9792,
            "time": 9.5625,
            "velocity": 0.3700787401574803
          },
          {
            "duration": 0.09375,
            "durationTicks": 96,
            "midi": 50,
            "name": "D3",
            "ticks": 9792,
            "time": 9.5625,
            "velocity": 0.3700787401574803
          },
          {
            "duration": 0.09375,
            "durationTicks": 96,
            "midi": 47,
            "name": "B2",
            "ticks": 9984,
            "time": 9.75,
            "velocity": 0.3700787401574803
          },
          {
            "duration": 0.09375,
            "durationTicks": 96,
            "midi": 50,
            "name": "D3",
            "ticks": 9984,
            "time": 9.75,
            "velocity": 0.3700787401574803
          },
          {
            "duration": 0.09375,
            "durationTicks": 96,
            "midi": 43,
            "name": "G2",
            "ticks": 9984,
            "time": 9.75,
            "velocity": 0.3700787401574803
          },
          {
            "duration": 0.09375,
            "durationTicks": 96,
            "midi": 50,
            "name": "D3",
            "ticks": 10176,
            "time": 9.9375,
            "velocity": 0.3700787401574803
          },
          {
            "duration": 0.09375,
            "durationTicks": 96,
            "midi": 47,
            "name": "B2",
            "ticks": 10176,
            "time": 9.9375,
            "velocity": 0.3700787401574803
          },
          {
            "duration": 0.09375,
            "durationTicks": 96,
            "midi": 43,
            "name": "G2",
            "ticks": 10176,
            "time": 9.9375,
            "velocity": 0.3700787401574803
          },
          {
            "duration": 0.09375,
            "durationTicks": 96,
            "midi": 47,
            "name": "B2",
            "ticks": 10368,
            "time": 10.125,
            "velocity": 0.3700787401574803
          },
          {
            "duration": 0.09375,
            "durationTicks": 96,
            "midi": 50,
            "name": "D3",
            "ticks": 10368,
            "time": 10.125,
            "velocity": 0.3700787401574803
          },
          {
            "duration": 0.09375,
            "durationTicks": 96,
            "midi": 43,
            "name": "G2",
            "ticks": 10368,
            "time": 10.125,
            "velocity": 0.3700787401574803
          },
          {
            "duration": 0.09375,
            "durationTicks": 96,
            "midi": 43,
            "name": "G2",
            "ticks": 10560,
            "time": 10.3125,
            "velocity": 0.3700787401574803
          },
          {
            "duration": 0.09375,
            "durationTicks": 96,
            "midi": 47,
            "name": "B2",
            "ticks": 10560,
            "time": 10.3125,
            "velocity": 0.3700787401574803
          },
          {
            "duration": 0.09375,
            "durationTicks": 96,
            "midi": 50,
            "name": "D3",
            "ticks": 10560,
            "time": 10.3125,
            "velocity": 0.3700787401574803
          },
          {
            "duration": 0.09375,
            "durationTicks": 96,
            "midi": 48,
            "name": "C3",
            "ticks": 10752,
            "time": 10.5,
            "velocity": 0.3700787401574803
          },
          {
            "duration": 0.09375,
            "durationTicks": 96,
            "midi": 52,
            "name": "E3",
            "ticks": 10752,
            "time": 10.5,
            "velocity": 0.3700787401574803
          },
          {
            "duration": 0.09375,
            "durationTicks": 96,
            "midi": 43,
            "name": "G2",
            "ticks": 10752,
            "time": 10.5,
            "velocity": 0.3700787401574803
          },
          {
            "duration": 0.09375,
            "durationTicks": 96,
            "midi": 52,
            "name": "E3",
            "ticks": 10944,
            "time": 10.6875,
            "velocity": 0.3700787401574803
          },
          {
            "duration": 0.09375,
            "durationTicks": 96,
            "midi": 43,
            "name": "G2",
            "ticks": 10944,
            "time": 10.6875,
            "velocity": 0.3700787401574803
          },
          {
            "duration": 0.09375,
            "durationTicks": 96,
            "midi": 48,
            "name": "C3",
            "ticks": 10944,
            "time": 10.6875,
            "velocity": 0.3700787401574803
          },
          {
            "duration": 0.09375,
            "durationTicks": 96,
            "midi": 48,
            "name": "C3",
            "ticks": 11136,
            "time": 10.875,
            "velocity": 0.3700787401574803
          },
          {
            "duration": 0.09375,
            "durationTicks": 96,
            "midi": 52,
            "name": "E3",
            "ticks": 11136,
            "time": 10.875,
            "velocity": 0.3700787401574803
          },
          {
            "duration": 0.09375,
            "durationTicks": 96,
            "midi": 43,
            "name": "G2",
            "ticks": 11136,
            "time": 10.875,
            "velocity": 0.3700787401574803
          },
          {
            "duration": 0.09375,
            "durationTicks": 96,
            "midi": 43,
            "name": "G2",
            "ticks": 11328,
            "time": 11.0625,
            "velocity": 0.3700787401574803
          },
          {
            "duration": 0.09375,
            "durationTicks": 96,
            "midi": 48,
            "name": "C3",
            "ticks": 11328,
            "time": 11.0625,
            "velocity": 0.3700787401574803
          },
          {
            "duration": 0.09375,
            "durationTicks": 96,
            "midi": 52,
            "name": "E3",
            "ticks": 11328,
            "time": 11.0625,
            "velocity": 0.3700787401574803
          },
          {
            "duration": 0.09375,
            "durationTicks": 96,
            "midi": 52,
            "name": "E3",
            "ticks": 11520,
            "time": 11.25,
            "velocity": 0.3700787401574803
          },
          {
            "duration": 0.09375,
            "durationTicks": 96,
            "midi": 48,
            "name": "C3",
            "ticks": 11520,
            "time": 11.25,
            "velocity": 0.3700787401574803
          },
          {
            "duration": 0.09375,
            "durationTicks": 96,
            "midi": 43,
            "name": "G2",
            "ticks": 11520,
            "time": 11.25,
            "velocity": 0.3700787401574803
          },
          {
            "duration": 0.09375,
            "durationTicks": 96,
            "midi": 48,
            "name": "C3",
            "ticks": 11712,
            "time": 11.4375,
            "velocity": 0.3700787401574803
          },
          {
            "duration": 0.09375,
            "durationTicks": 96,
            "midi": 43,
            "name": "G2",
            "ticks": 11712,
            "time": 11.4375,
            "velocity": 0.3700787401574803
          },
          {
            "duration": 0.09375,
            "durationTicks": 96,
            "midi": 52,
            "name": "E3",
            "ticks": 11712,
            "time": 11.4375,
            "velocity": 0.3700787401574803
          },
          {
            "duration": 0.09375,
            "durationTicks": 96,
            "midi": 52,
            "name": "E3",
            "ticks": 11904,
            "time": 11.625,
            "velocity": 0.3700787401574803
          },
          {
            "duration": 0.09375,
            "durationTicks": 96,
            "midi": 48,
            "name": "C3",
            "ticks": 11904,
            "time": 11.625,
            "velocity": 0.3700787401574803
          },
          {
            "duration": 0.09375,
            "durationTicks": 96,
            "midi": 43,
            "name": "G2",
            "ticks": 11904,
            "time": 11.625,
            "velocity": 0.3700787401574803
          },
          {
            "duration": 0.09375,
            "durationTicks": 96,
            "midi": 43,
            "name": "G2",
            "ticks": 12096,
            "time": 11.8125,
            "velocity": 0.3700787401574803
          },
          {
            "duration": 0.09375,
            "durationTicks": 96,
            "midi": 48,
            "name": "C3",
            "ticks": 12096,
            "time": 11.8125,
            "velocity": 0.3700787401574803
          },
          {
            "duration": 0.09375,
            "durationTicks": 96,
            "midi": 52,
            "name": "E3",
            "ticks": 12096,
            "time": 11.8125,
            "velocity": 0.3700787401574803
          },
          {
            "duration": 0.09375,
            "durationTicks": 96,
            "midi": 47,
            "name": "B2",
            "ticks": 12288,
            "time": 12,
            "velocity": 0.3700787401574803
          },
          {
            "duration": 0.09375,
            "durationTicks": 96,
            "midi": 50,
            "name": "D3",
            "ticks": 12288,
            "time": 12,
            "velocity": 0.3700787401574803
          },
          {
            "duration": 0.09375,
            "durationTicks": 96,
            "midi": 43,
            "name": "G2",
            "ticks": 12288,
            "time": 12,
            "velocity": 0.3700787401574803
          },
          {
            "duration": 0.09375,
            "durationTicks": 96,
            "midi": 50,
            "name": "D3",
            "ticks": 12480,
            "time": 12.1875,
            "velocity": 0.3700787401574803
          },
          {
            "duration": 0.09375,
            "durationTicks": 96,
            "midi": 43,
            "name": "G2",
            "ticks": 12480,
            "time": 12.1875,
            "velocity": 0.3700787401574803
          },
          {
            "duration": 0.09375,
            "durationTicks": 96,
            "midi": 47,
            "name": "B2",
            "ticks": 12480,
            "time": 12.1875,
            "velocity": 0.3700787401574803
          },
          {
            "duration": 0.09375,
            "durationTicks": 96,
            "midi": 47,
            "name": "B2",
            "ticks": 12672,
            "time": 12.375,
            "velocity": 0.3700787401574803
          },
          {
            "duration": 0.09375,
            "durationTicks": 96,
            "midi": 50,
            "name": "D3",
            "ticks": 12672,
            "time": 12.375,
            "velocity": 0.3700787401574803
          },
          {
            "duration": 0.09375,
            "durationTicks": 96,
            "midi": 43,
            "name": "G2",
            "ticks": 12672,
            "time": 12.375,
            "velocity": 0.3700787401574803
          },
          {
            "duration": 0.09375,
            "durationTicks": 96,
            "midi": 43,
            "name": "G2",
            "ticks": 12864,
            "time": 12.5625,
            "velocity": 0.3700787401574803
          },
          {
            "duration": 0.09375,
            "durationTicks": 96,
            "midi": 47,
            "name": "B2",
            "ticks": 12864,
            "time": 12.5625,
            "velocity": 0.3700787401574803
          },
          {
            "duration": 0.09375,
            "durationTicks": 96,
            "midi": 50,
            "name": "D3",
            "ticks": 12864,
            "time": 12.5625,
            "velocity": 0.3700787401574803
          },
          {
            "duration": 0.09375,
            "durationTicks": 96,
            "midi": 50,
            "name": "D3",
            "ticks": 13056,
            "time": 12.75,
            "velocity": 0.3700787401574803
          },
          {
            "duration": 0.09375,
            "durationTicks": 96,
            "midi": 45,
            "name": "A2",
            "ticks": 13056,
            "time": 12.75,
            "velocity": 0.3700787401574803
          },
          {
            "duration": 0.09375,
            "durationTicks": 96,
            "midi": 42,
            "name": "F#2",
            "ticks": 13056,
            "time": 12.75,
            "velocity": 0.3700787401574803
          },
          {
            "duration": 0.09375,
            "durationTicks": 96,
            "midi": 50,
            "name": "D3",
            "ticks": 13248,
            "time": 12.9375,
            "velocity": 0.3700787401574803
          },
          {
            "duration": 0.09375,
            "durationTicks": 96,
            "midi": 42,
            "name": "F#2",
            "ticks": 13248,
            "time": 12.9375,
            "velocity": 0.3700787401574803
          },
          {
            "duration": 0.09375,
            "durationTicks": 96,
            "midi": 45,
            "name": "A2",
            "ticks": 13248,
            "time": 12.9375,
            "velocity": 0.3700787401574803
          },
          {
            "duration": 0.09375,
            "durationTicks": 96,
            "midi": 45,
            "name": "A2",
            "ticks": 13440,
            "time": 13.125,
            "velocity": 0.3700787401574803
          },
          {
            "duration": 0.09375,
            "durationTicks": 96,
            "midi": 50,
            "name": "D3",
            "ticks": 13440,
            "time": 13.125,
            "velocity": 0.3700787401574803
          },
          {
            "duration": 0.09375,
            "durationTicks": 96,
            "midi": 42,
            "name": "F#2",
            "ticks": 13440,
            "time": 13.125,
            "velocity": 0.3700787401574803
          },
          {
            "duration": 0.09375,
            "durationTicks": 96,
            "midi": 42,
            "name": "F#2",
            "ticks": 13632,
            "time": 13.3125,
            "velocity": 0.3700787401574803
          },
          {
            "duration": 0.09375,
            "durationTicks": 96,
            "midi": 45,
            "name": "A2",
            "ticks": 13632,
            "time": 13.3125,
            "velocity": 0.3700787401574803
          },
          {
            "duration": 0.09375,
            "durationTicks": 96,
            "midi": 50,
            "name": "D3",
            "ticks": 13632,
            "time": 13.3125,
            "velocity": 0.3700787401574803
          },
          {
            "duration": 0.09375,
            "durationTicks": 96,
            "midi": 47,
            "name": "B2",
            "ticks": 13824,
            "time": 13.5,
            "velocity": 0.3700787401574803
          },
          {
            "duration": 0.09375,
            "durationTicks": 96,
            "midi": 50,
            "name": "D3",
            "ticks": 13824,
            "time": 13.5,
            "velocity": 0.3700787401574803
          },
          {
            "duration": 0.09375,
            "durationTicks": 96,
            "midi": 43,
            "name": "G2",
            "ticks": 13824,
            "time": 13.5,
            "velocity": 0.3700787401574803
          },
          {
            "duration": 0.09375,
            "durationTicks": 96,
            "midi": 50,
            "name": "D3",
            "ticks": 14016,
            "time": 13.6875,
            "velocity": 0.3700787401574803
          },
          {
            "duration": 0.09375,
            "durationTicks": 96,
            "midi": 43,
            "name": "G2",
            "ticks": 14016,
            "time": 13.6875,
            "velocity": 0.3700787401574803
          },
          {
            "duration": 0.09375,
            "durationTicks": 96,
            "midi": 47,
            "name": "B2",
            "ticks": 14016,
            "time": 13.6875,
            "velocity": 0.3700787401574803
          },
          {
            "duration": 0.09375,
            "durationTicks": 96,
            "midi": 47,
            "name": "B2",
            "ticks": 14208,
            "time": 13.875,
            "velocity": 0.3700787401574803
          },
          {
            "duration": 0.09375,
            "durationTicks": 96,
            "midi": 50,
            "name": "D3",
            "ticks": 14208,
            "time": 13.875,
            "velocity": 0.3700787401574803
          },
          {
            "duration": 0.09375,
            "durationTicks": 96,
            "midi": 43,
            "name": "G2",
            "ticks": 14208,
            "time": 13.875,
            "velocity": 0.3700787401574803
          },
          {
            "duration": 0.09375,
            "durationTicks": 96,
            "midi": 43,
            "name": "G2",
            "ticks": 14400,
            "time": 14.0625,
            "velocity": 0.3700787401574803
          },
          {
            "duration": 0.09375,
            "durationTicks": 96,
            "midi": 47,
            "name": "B2",
            "ticks": 14400,
            "time": 14.0625,
            "velocity": 0.3700787401574803
          },
          {
            "duration": 0.09375,
            "durationTicks": 96,
            "midi": 50,
            "name": "D3",
            "ticks": 14400,
            "time": 14.0625,
            "velocity": 0.3700787401574803
          },
          {
            "duration": 0.09375,
            "durationTicks": 96,
            "midi": 43,
            "name": "G2",
            "ticks": 14592,
            "time": 14.25,
            "velocity": 0.3700787401574803
          },
          {
            "duration": 0.09375,
            "durationTicks": 96,
            "midi": 47,
            "name": "B2",
            "ticks": 14592,
            "time": 14.25,
            "velocity": 0.3700787401574803
          },
          {
            "duration": 0.09375,
            "durationTicks": 96,
            "midi": 50,
            "name": "D3",
            "ticks": 14592,
            "time": 14.25,
            "velocity": 0.3700787401574803
          },
          {
            "duration": 0.09375,
            "durationTicks": 96,
            "midi": 50,
            "name": "D3",
            "ticks": 14784,
            "time": 14.4375,
            "velocity": 0.3700787401574803
          },
          {
            "duration": 0.09375,
            "durationTicks": 96,
            "midi": 47,
            "name": "B2",
            "ticks": 14784,
            "time": 14.4375,
            "velocity": 0.3700787401574803
          },
          {
            "duration": 0.09375,
            "durationTicks": 96,
            "midi": 43,
            "name": "G2",
            "ticks": 14784,
            "time": 14.4375,
            "velocity": 0.3700787401574803
          },
          {
            "duration": 0.09375,
            "durationTicks": 96,
            "midi": 50,
            "name": "D3",
            "ticks": 14976,
            "time": 14.625,
            "velocity": 0.3700787401574803
          },
          {
            "duration": 0.09375,
            "durationTicks": 96,
            "midi": 43,
            "name": "G2",
            "ticks": 14976,
            "time": 14.625,
            "velocity": 0.3700787401574803
          },
          {
            "duration": 0.09375,
            "durationTicks": 96,
            "midi": 47,
            "name": "B2",
            "ticks": 14976,
            "time": 14.625,
            "velocity": 0.3700787401574803
          },
          {
            "duration": 0.09375,
            "durationTicks": 96,
            "midi": 43,
            "name": "G2",
            "ticks": 15168,
            "time": 14.8125,
            "velocity": 0.3700787401574803
          },
          {
            "duration": 0.09375,
            "durationTicks": 96,
            "midi": 47,
            "name": "B2",
            "ticks": 15168,
            "time": 14.8125,
            "velocity": 0.3700787401574803
          },
          {
            "duration": 0.09375,
            "durationTicks": 96,
            "midi": 50,
            "name": "D3",
            "ticks": 15168,
            "time": 14.8125,
            "velocity": 0.3700787401574803
          },
          {
            "duration": 0.09375,
            "durationTicks": 96,
            "midi": 43,
            "name": "G2",
            "ticks": 15360,
            "time": 15,
            "velocity": 0.3700787401574803
          },
          {
            "duration": 0.09375,
            "durationTicks": 96,
            "midi": 47,
            "name": "B2",
            "ticks": 15360,
            "time": 15,
            "velocity": 0.3700787401574803
          },
          {
            "duration": 0.09375,
            "durationTicks": 96,
            "midi": 50,
            "name": "D3",
            "ticks": 15360,
            "time": 15,
            "velocity": 0.3700787401574803
          },
          {
            "duration": 0.09375,
            "durationTicks": 96,
            "midi": 50,
            "name": "D3",
            "ticks": 15552,
            "time": 15.1875,
            "velocity": 0.3700787401574803
          },
          {
            "duration": 0.09375,
            "durationTicks": 96,
            "midi": 47,
            "name": "B2",
            "ticks": 15552,
            "time": 15.1875,
            "velocity": 0.3700787401574803
          },
          {
            "duration": 0.09375,
            "durationTicks": 96,
            "midi": 43,
            "name": "G2",
            "ticks": 15552,
            "time": 15.1875,
            "velocity": 0.3700787401574803
          },
          {
            "duration": 0.09375,
            "durationTicks": 96,
            "midi": 47,
            "name": "B2",
            "ticks": 15744,
            "time": 15.375,
            "velocity": 0.3700787401574803
          },
          {
            "duration": 0.09375,
            "durationTicks": 96,
            "midi": 50,
            "name": "D3",
            "ticks": 15744,
            "time": 15.375,
            "velocity": 0.3700787401574803
          },
          {
            "duration": 0.09375,
            "durationTicks": 96,
            "midi": 43,
            "name": "G2",
            "ticks": 15744,
            "time": 15.375,
            "velocity": 0.3700787401574803
          },
          {
            "duration": 0.09375,
            "durationTicks": 96,
            "midi": 50,
            "name": "D3",
            "ticks": 15936,
            "time": 15.5625,
            "velocity": 0.3700787401574803
          },
          {
            "duration": 0.09375,
            "durationTicks": 96,
            "midi": 47,
            "name": "B2",
            "ticks": 15936,
            "time": 15.5625,
            "velocity": 0.3700787401574803
          },
          {
            "duration": 0.09375,
            "durationTicks": 96,
            "midi": 43,
            "name": "G2",
            "ticks": 15936,
            "time": 15.5625,
            "velocity": 0.3700787401574803
          },
          {
            "duration": 0.09375,
            "durationTicks": 96,
            "midi": 43,
            "name": "G2",
            "ticks": 16128,
            "time": 15.75,
            "velocity": 0.3700787401574803
          },
          {
            "duration": 0.09375,
            "durationTicks": 96,
            "midi": 47,
            "name": "B2",
            "ticks": 16128,
            "time": 15.75,
            "velocity": 0.3700787401574803
          },
          {
            "duration": 0.09375,
            "durationTicks": 96,
            "midi": 50,
            "name": "D3",
            "ticks": 16128,
            "time": 15.75,
            "velocity": 0.3700787401574803
          },
          {
            "duration": 0.09375,
            "durationTicks": 96,
            "midi": 47,
            "name": "B2",
            "ticks": 16320,
            "time": 15.9375,
            "velocity": 0.3700787401574803
          },
          {
            "duration": 0.09375,
            "durationTicks": 96,
            "midi": 50,
            "name": "D3",
            "ticks": 16320,
            "time": 15.9375,
            "velocity": 0.3700787401574803
          },
          {
            "duration": 0.09375,
            "durationTicks": 96,
            "midi": 43,
            "name": "G2",
            "ticks": 16320,
            "time": 15.9375,
            "velocity": 0.3700787401574803
          },
          {
            "duration": 0.09375,
            "durationTicks": 96,
            "midi": 47,
            "name": "B2",
            "ticks": 16512,
            "time": 16.125,
            "velocity": 0.3700787401574803
          },
          {
            "duration": 0.09375,
            "durationTicks": 96,
            "midi": 50,
            "name": "D3",
            "ticks": 16512,
            "time": 16.125,
            "velocity": 0.3700787401574803
          },
          {
            "duration": 0.09375,
            "durationTicks": 96,
            "midi": 43,
            "name": "G2",
            "ticks": 16512,
            "time": 16.125,
            "velocity": 0.3700787401574803
          },
          {
            "duration": 0.09375,
            "durationTicks": 96,
            "midi": 50,
            "name": "D3",
            "ticks": 16704,
            "time": 16.3125,
            "velocity": 0.3700787401574803
          },
          {
            "duration": 0.09375,
            "durationTicks": 96,
            "midi": 47,
            "name": "B2",
            "ticks": 16704,
            "time": 16.3125,
            "velocity": 0.3700787401574803
          },
          {
            "duration": 0.09375,
            "durationTicks": 96,
            "midi": 43,
            "name": "G2",
            "ticks": 16704,
            "time": 16.3125,
            "velocity": 0.3700787401574803
          },
          {
            "duration": 0.09375,
            "durationTicks": 96,
            "midi": 43,
            "name": "G2",
            "ticks": 16896,
            "time": 16.5,
            "velocity": 0.3700787401574803
          },
          {
            "duration": 0.09375,
            "durationTicks": 96,
            "midi": 48,
            "name": "C3",
            "ticks": 16896,
            "time": 16.5,
            "velocity": 0.3700787401574803
          },
          {
            "duration": 0.09375,
            "durationTicks": 96,
            "midi": 52,
            "name": "E3",
            "ticks": 16896,
            "time": 16.5,
            "velocity": 0.3700787401574803
          },
          {
            "duration": 0.09375,
            "durationTicks": 96,
            "midi": 48,
            "name": "C3",
            "ticks": 17088,
            "time": 16.6875,
            "velocity": 0.3700787401574803
          },
          {
            "duration": 0.09375,
            "durationTicks": 96,
            "midi": 52,
            "name": "E3",
            "ticks": 17088,
            "time": 16.6875,
            "velocity": 0.3700787401574803
          },
          {
            "duration": 0.09375,
            "durationTicks": 96,
            "midi": 43,
            "name": "G2",
            "ticks": 17088,
            "time": 16.6875,
            "velocity": 0.3700787401574803
          },
          {
            "duration": 0.09375,
            "durationTicks": 96,
            "midi": 48,
            "name": "C3",
            "ticks": 17280,
            "time": 16.875,
            "velocity": 0.3700787401574803
          },
          {
            "duration": 0.09375,
            "durationTicks": 96,
            "midi": 52,
            "name": "E3",
            "ticks": 17280,
            "time": 16.875,
            "velocity": 0.3700787401574803
          },
          {
            "duration": 0.09375,
            "durationTicks": 96,
            "midi": 43,
            "name": "G2",
            "ticks": 17280,
            "time": 16.875,
            "velocity": 0.3700787401574803
          },
          {
            "duration": 0.09375,
            "durationTicks": 96,
            "midi": 48,
            "name": "C3",
            "ticks": 17472,
            "time": 17.0625,
            "velocity": 0.3700787401574803
          },
          {
            "duration": 0.09375,
            "durationTicks": 96,
            "midi": 52,
            "name": "E3",
            "ticks": 17472,
            "time": 17.0625,
            "velocity": 0.3700787401574803
          },
          {
            "duration": 0.09375,
            "durationTicks": 96,
            "midi": 43,
            "name": "G2",
            "ticks": 17472,
            "time": 17.0625,
            "velocity": 0.3700787401574803
          },
          {
            "duration": 0.09375,
            "durationTicks": 96,
            "midi": 43,
            "name": "G2",
            "ticks": 17664,
            "time": 17.25,
            "velocity": 0.3700787401574803
          },
          {
            "duration": 0.09375,
            "durationTicks": 96,
            "midi": 48,
            "name": "C3",
            "ticks": 17664,
            "time": 17.25,
            "velocity": 0.3700787401574803
          },
          {
            "duration": 0.09375,
            "durationTicks": 96,
            "midi": 52,
            "name": "E3",
            "ticks": 17664,
            "time": 17.25,
            "velocity": 0.3700787401574803
          },
          {
            "duration": 0.09375,
            "durationTicks": 96,
            "midi": 52,
            "name": "E3",
            "ticks": 17856,
            "time": 17.4375,
            "velocity": 0.3700787401574803
          },
          {
            "duration": 0.09375,
            "durationTicks": 96,
            "midi": 48,
            "name": "C3",
            "ticks": 17856,
            "time": 17.4375,
            "velocity": 0.3700787401574803
          },
          {
            "duration": 0.09375,
            "durationTicks": 96,
            "midi": 43,
            "name": "G2",
            "ticks": 17856,
            "time": 17.4375,
            "velocity": 0.3700787401574803
          },
          {
            "duration": 0.09375,
            "durationTicks": 96,
            "midi": 43,
            "name": "G2",
            "ticks": 18048,
            "time": 17.625,
            "velocity": 0.3700787401574803
          },
          {
            "duration": 0.09375,
            "durationTicks": 96,
            "midi": 52,
            "name": "E3",
            "ticks": 18048,
            "time": 17.625,
            "velocity": 0.3700787401574803
          },
          {
            "duration": 0.09375,
            "durationTicks": 96,
            "midi": 48,
            "name": "C3",
            "ticks": 18048,
            "time": 17.625,
            "velocity": 0.3700787401574803
          },
          {
            "duration": 0.09375,
            "durationTicks": 96,
            "midi": 52,
            "name": "E3",
            "ticks": 18240,
            "time": 17.8125,
            "velocity": 0.3700787401574803
          },
          {
            "duration": 0.09375,
            "durationTicks": 96,
            "midi": 48,
            "name": "C3",
            "ticks": 18240,
            "time": 17.8125,
            "velocity": 0.3700787401574803
          },
          {
            "duration": 0.09375,
            "durationTicks": 96,
            "midi": 43,
            "name": "G2",
            "ticks": 18240,
            "time": 17.8125,
            "velocity": 0.3700787401574803
          },
          {
            "duration": 0.09375,
            "durationTicks": 96,
            "midi": 43,
            "name": "G2",
            "ticks": 18432,
            "time": 18,
            "velocity": 0.3700787401574803
          },
          {
            "duration": 0.09375,
            "durationTicks": 96,
            "midi": 47,
            "name": "B2",
            "ticks": 18432,
            "time": 18,
            "velocity": 0.3700787401574803
          },
          {
            "duration": 0.09375,
            "durationTicks": 96,
            "midi": 50,
            "name": "D3",
            "ticks": 18432,
            "time": 18,
            "velocity": 0.3700787401574803
          },
          {
            "duration": 0.09375,
            "durationTicks": 96,
            "midi": 50,
            "name": "D3",
            "ticks": 18624,
            "time": 18.1875,
            "velocity": 0.3700787401574803
          },
          {
            "duration": 0.09375,
            "durationTicks": 96,
            "midi": 47,
            "name": "B2",
            "ticks": 18624,
            "time": 18.1875,
            "velocity": 0.3700787401574803
          },
          {
            "duration": 0.09375,
            "durationTicks": 96,
            "midi": 43,
            "name": "G2",
            "ticks": 18624,
            "time": 18.1875,
            "velocity": 0.3700787401574803
          },
          {
            "duration": 0.09375,
            "durationTicks": 96,
            "midi": 50,
            "name": "D3",
            "ticks": 18816,
            "time": 18.375,
            "velocity": 0.3700787401574803
          },
          {
            "duration": 0.09375,
            "durationTicks": 96,
            "midi": 43,
            "name": "G2",
            "ticks": 18816,
            "time": 18.375,
            "velocity": 0.3700787401574803
          },
          {
            "duration": 0.09375,
            "durationTicks": 96,
            "midi": 47,
            "name": "B2",
            "ticks": 18816,
            "time": 18.375,
            "velocity": 0.3700787401574803
          },
          {
            "duration": 0.09375,
            "durationTicks": 96,
            "midi": 47,
            "name": "B2",
            "ticks": 19008,
            "time": 18.5625,
            "velocity": 0.3700787401574803
          },
          {
            "duration": 0.09375,
            "durationTicks": 96,
            "midi": 50,
            "name": "D3",
            "ticks": 19008,
            "time": 18.5625,
            "velocity": 0.3700787401574803
          },
          {
            "duration": 0.09375,
            "durationTicks": 96,
            "midi": 43,
            "name": "G2",
            "ticks": 19008,
            "time": 18.5625,
            "velocity": 0.3700787401574803
          },
          {
            "duration": 0.09375,
            "durationTicks": 96,
            "midi": 43,
            "name": "G2",
            "ticks": 19200,
            "time": 18.75,
            "velocity": 0.3700787401574803
          },
          {
            "duration": 0.09375,
            "durationTicks": 96,
            "midi": 47,
            "name": "B2",
            "ticks": 19200,
            "time": 18.75,
            "velocity": 0.3700787401574803
          },
          {
            "duration": 0.09375,
            "durationTicks": 96,
            "midi": 50,
            "name": "D3",
            "ticks": 19200,
            "time": 18.75,
            "velocity": 0.3700787401574803
          },
          {
            "duration": 0.09375,
            "durationTicks": 96,
            "midi": 43,
            "name": "G2",
            "ticks": 19392,
            "time": 18.9375,
            "velocity": 0.3700787401574803
          },
          {
            "duration": 0.09375,
            "durationTicks": 96,
            "midi": 47,
            "name": "B2",
            "ticks": 19392,
            "time": 18.9375,
            "velocity": 0.3700787401574803
          },
          {
            "duration": 0.09375,
            "durationTicks": 96,
            "midi": 50,
            "name": "D3",
            "ticks": 19392,
            "time": 18.9375,
            "velocity": 0.3700787401574803
          },
          {
            "duration": 0.09375,
            "durationTicks": 96,
            "midi": 47,
            "name": "B2",
            "ticks": 19584,
            "time": 19.125,
            "velocity": 0.3700787401574803
          },
          {
            "duration": 0.09375,
            "durationTicks": 96,
            "midi": 50,
            "name": "D3",
            "ticks": 19584,
            "time": 19.125,
            "velocity": 0.3700787401574803
          },
          {
            "duration": 0.09375,
            "durationTicks": 96,
            "midi": 43,
            "name": "G2",
            "ticks": 19584,
            "time": 19.125,
            "velocity": 0.3700787401574803
          },
          {
            "duration": 0.09375,
            "durationTicks": 96,
            "midi": 50,
            "name": "D3",
            "ticks": 19776,
            "time": 19.3125,
            "velocity": 0.3700787401574803
          },
          {
            "duration": 0.09375,
            "durationTicks": 96,
            "midi": 47,
            "name": "B2",
            "ticks": 19776,
            "time": 19.3125,
            "velocity": 0.3700787401574803
          },
          {
            "duration": 0.09375,
            "durationTicks": 96,
            "midi": 43,
            "name": "G2",
            "ticks": 19776,
            "time": 19.3125,
            "velocity": 0.3700787401574803
          },
          {
            "duration": 0.09375,
            "durationTicks": 96,
            "midi": 42,
            "name": "F#2",
            "ticks": 19968,
            "time": 19.5,
            "velocity": 0.3700787401574803
          },
          {
            "duration": 0.09375,
            "durationTicks": 96,
            "midi": 45,
            "name": "A2",
            "ticks": 19968,
            "time": 19.5,
            "velocity": 0.3700787401574803
          },
          {
            "duration": 0.09375,
            "durationTicks": 96,
            "midi": 50,
            "name": "D3",
            "ticks": 19968,
            "time": 19.5,
            "velocity": 0.3700787401574803
          },
          {
            "duration": 0.09375,
            "durationTicks": 96,
            "midi": 50,
            "name": "D3",
            "ticks": 20160,
            "time": 19.6875,
            "velocity": 0.3700787401574803
          },
          {
            "duration": 0.09375,
            "durationTicks": 96,
            "midi": 45,
            "name": "A2",
            "ticks": 20160,
            "time": 19.6875,
            "velocity": 0.3700787401574803
          },
          {
            "duration": 0.09375,
            "durationTicks": 96,
            "midi": 42,
            "name": "F#2",
            "ticks": 20160,
            "time": 19.6875,
            "velocity": 0.3700787401574803
          },
          {
            "duration": 0.09375,
            "durationTicks": 96,
            "midi": 50,
            "name": "D3",
            "ticks": 20352,
            "time": 19.875,
            "velocity": 0.3700787401574803
          },
          {
            "duration": 0.09375,
            "durationTicks": 96,
            "midi": 42,
            "name": "F#2",
            "ticks": 20352,
            "time": 19.875,
            "velocity": 0.3700787401574803
          },
          {
            "duration": 0.09375,
            "durationTicks": 96,
            "midi": 45,
            "name": "A2",
            "ticks": 20352,
            "time": 19.875,
            "velocity": 0.3700787401574803
          },
          {
            "duration": 0.09375,
            "durationTicks": 96,
            "midi": 45,
            "name": "A2",
            "ticks": 20544,
            "time": 20.0625,
            "velocity": 0.3700787401574803
          },
          {
            "duration": 0.09375,
            "durationTicks": 96,
            "midi": 50,
            "name": "D3",
            "ticks": 20544,
            "time": 20.0625,
            "velocity": 0.3700787401574803
          },
          {
            "duration": 0.09375,
            "durationTicks": 96,
            "midi": 42,
            "name": "F#2",
            "ticks": 20544,
            "time": 20.0625,
            "velocity": 0.3700787401574803
          },
          {
            "duration": 0.09375,
            "durationTicks": 96,
            "midi": 42,
            "name": "F#2",
            "ticks": 20736,
            "time": 20.25,
            "velocity": 0.3700787401574803
          },
          {
            "duration": 0.09375,
            "durationTicks": 96,
            "midi": 45,
            "name": "A2",
            "ticks": 20736,
            "time": 20.25,
            "velocity": 0.3700787401574803
          },
          {
            "duration": 0.09375,
            "durationTicks": 96,
            "midi": 50,
            "name": "D3",
            "ticks": 20736,
            "time": 20.25,
            "velocity": 0.3700787401574803
          },
          {
            "duration": 0.09375,
            "durationTicks": 96,
            "midi": 42,
            "name": "F#2",
            "ticks": 20928,
            "time": 20.4375,
            "velocity": 0.3700787401574803
          },
          {
            "duration": 0.09375,
            "durationTicks": 96,
            "midi": 45,
            "name": "A2",
            "ticks": 20928,
            "time": 20.4375,
            "velocity": 0.3700787401574803
          },
          {
            "duration": 0.09375,
            "durationTicks": 96,
            "midi": 50,
            "name": "D3",
            "ticks": 20928,
            "time": 20.4375,
            "velocity": 0.3700787401574803
          },
          {
            "duration": 0.09375,
            "durationTicks": 96,
            "midi": 50,
            "name": "D3",
            "ticks": 21120,
            "time": 20.625,
            "velocity": 0.3700787401574803
          },
          {
            "duration": 0.09375,
            "durationTicks": 96,
            "midi": 45,
            "name": "A2",
            "ticks": 21120,
            "time": 20.625,
            "velocity": 0.3700787401574803
          },
          {
            "duration": 0.09375,
            "durationTicks": 96,
            "midi": 42,
            "name": "F#2",
            "ticks": 21120,
            "time": 20.625,
            "velocity": 0.3700787401574803
          },
          {
            "duration": 0.09375,
            "durationTicks": 96,
            "midi": 42,
            "name": "F#2",
            "ticks": 21312,
            "time": 20.8125,
            "velocity": 0.3700787401574803
          },
          {
            "duration": 0.09375,
            "durationTicks": 96,
            "midi": 45,
            "name": "A2",
            "ticks": 21312,
            "time": 20.8125,
            "velocity": 0.3700787401574803
          },
          {
            "duration": 0.09375,
            "durationTicks": 96,
            "midi": 50,
            "name": "D3",
            "ticks": 21312,
            "time": 20.8125,
            "velocity": 0.3700787401574803
          },
          {
            "duration": 0.09375,
            "durationTicks": 96,
            "midi": 43,
            "name": "G2",
            "ticks": 21504,
            "time": 21,
            "velocity": 0.3700787401574803
          },
          {
            "duration": 0.09375,
            "durationTicks": 96,
            "midi": 47,
            "name": "B2",
            "ticks": 21504,
            "time": 21,
            "velocity": 0.3700787401574803
          },
          {
            "duration": 0.09375,
            "durationTicks": 96,
            "midi": 50,
            "name": "D3",
            "ticks": 21504,
            "time": 21,
            "velocity": 0.3700787401574803
          },
          {
            "duration": 0.09375,
            "durationTicks": 96,
            "midi": 50,
            "name": "D3",
            "ticks": 21696,
            "time": 21.1875,
            "velocity": 0.3700787401574803
          },
          {
            "duration": 0.09375,
            "durationTicks": 96,
            "midi": 47,
            "name": "B2",
            "ticks": 21696,
            "time": 21.1875,
            "velocity": 0.3700787401574803
          },
          {
            "duration": 0.09375,
            "durationTicks": 96,
            "midi": 43,
            "name": "G2",
            "ticks": 21696,
            "time": 21.1875,
            "velocity": 0.3700787401574803
          },
          {
            "duration": 0.09375,
            "durationTicks": 96,
            "midi": 50,
            "name": "D3",
            "ticks": 21888,
            "time": 21.375,
            "velocity": 0.3700787401574803
          },
          {
            "duration": 0.09375,
            "durationTicks": 96,
            "midi": 43,
            "name": "G2",
            "ticks": 21888,
            "time": 21.375,
            "velocity": 0.3700787401574803
          },
          {
            "duration": 0.09375,
            "durationTicks": 96,
            "midi": 47,
            "name": "B2",
            "ticks": 21888,
            "time": 21.375,
            "velocity": 0.3700787401574803
          },
          {
            "duration": 0.09375,
            "durationTicks": 96,
            "midi": 50,
            "name": "D3",
            "ticks": 22080,
            "time": 21.5625,
            "velocity": 0.3700787401574803
          },
          {
            "duration": 0.09375,
            "durationTicks": 96,
            "midi": 47,
            "name": "B2",
            "ticks": 22080,
            "time": 21.5625,
            "velocity": 0.3700787401574803
          },
          {
            "duration": 0.09375,
            "durationTicks": 96,
            "midi": 43,
            "name": "G2",
            "ticks": 22080,
            "time": 21.5625,
            "velocity": 0.3700787401574803
          },
          {
            "duration": 0.09375,
            "durationTicks": 96,
            "midi": 43,
            "name": "G2",
            "ticks": 22272,
            "time": 21.75,
            "velocity": 0.3700787401574803
          },
          {
            "duration": 0.09375,
            "durationTicks": 96,
            "midi": 47,
            "name": "B2",
            "ticks": 22272,
            "time": 21.75,
            "velocity": 0.3700787401574803
          },
          {
            "duration": 0.09375,
            "durationTicks": 96,
            "midi": 50,
            "name": "D3",
            "ticks": 22272,
            "time": 21.75,
            "velocity": 0.3700787401574803
          },
          {
            "duration": 0.09375,
            "durationTicks": 96,
            "midi": 47,
            "name": "B2",
            "ticks": 22464,
            "time": 21.9375,
            "velocity": 0.3700787401574803
          },
          {
            "duration": 0.09375,
            "durationTicks": 96,
            "midi": 50,
            "name": "D3",
            "ticks": 22464,
            "time": 21.9375,
            "velocity": 0.3700787401574803
          },
          {
            "duration": 0.09375,
            "durationTicks": 96,
            "midi": 43,
            "name": "G2",
            "ticks": 22464,
            "time": 21.9375,
            "velocity": 0.3700787401574803
          },
          {
            "duration": 0.09375,
            "durationTicks": 96,
            "midi": 50,
            "name": "D3",
            "ticks": 22656,
            "time": 22.125,
            "velocity": 0.3700787401574803
          },
          {
            "duration": 0.09375,
            "durationTicks": 96,
            "midi": 43,
            "name": "G2",
            "ticks": 22656,
            "time": 22.125,
            "velocity": 0.3700787401574803
          },
          {
            "duration": 0.09375,
            "durationTicks": 96,
            "midi": 47,
            "name": "B2",
            "ticks": 22656,
            "time": 22.125,
            "velocity": 0.3700787401574803
          },
          {
            "duration": 0.09375,
            "durationTicks": 96,
            "midi": 47,
            "name": "B2",
            "ticks": 22848,
            "time": 22.3125,
            "velocity": 0.3700787401574803
          },
          {
            "duration": 0.09375,
            "durationTicks": 96,
            "midi": 50,
            "name": "D3",
            "ticks": 22848,
            "time": 22.3125,
            "velocity": 0.3700787401574803
          },
          {
            "duration": 0.09375,
            "durationTicks": 96,
            "midi": 43,
            "name": "G2",
            "ticks": 22848,
            "time": 22.3125,
            "velocity": 0.3700787401574803
          },
          {
            "duration": 0.09375,
            "durationTicks": 96,
            "midi": 43,
            "name": "G2",
            "ticks": 23040,
            "time": 22.5,
            "velocity": 0.3700787401574803
          },
          {
            "duration": 0.09375,
            "durationTicks": 96,
            "midi": 48,
            "name": "C3",
            "ticks": 23040,
            "time": 22.5,
            "velocity": 0.3700787401574803
          },
          {
            "duration": 0.09375,
            "durationTicks": 96,
            "midi": 52,
            "name": "E3",
            "ticks": 23040,
            "time": 22.5,
            "velocity": 0.3700787401574803
          },
          {
            "duration": 0.09375,
            "durationTicks": 96,
            "midi": 48,
            "name": "C3",
            "ticks": 23232,
            "time": 22.6875,
            "velocity": 0.3700787401574803
          },
          {
            "duration": 0.09375,
            "durationTicks": 96,
            "midi": 52,
            "name": "E3",
            "ticks": 23232,
            "time": 22.6875,
            "velocity": 0.3700787401574803
          },
          {
            "duration": 0.09375,
            "durationTicks": 96,
            "midi": 43,
            "name": "G2",
            "ticks": 23232,
            "time": 22.6875,
            "velocity": 0.3700787401574803
          },
          {
            "duration": 0.09375,
            "durationTicks": 96,
            "midi": 52,
            "name": "E3",
            "ticks": 23424,
            "time": 22.875,
            "velocity": 0.3700787401574803
          },
          {
            "duration": 0.09375,
            "durationTicks": 96,
            "midi": 43,
            "name": "G2",
            "ticks": 23424,
            "time": 22.875,
            "velocity": 0.3700787401574803
          },
          {
            "duration": 0.09375,
            "durationTicks": 96,
            "midi": 48,
            "name": "C3",
            "ticks": 23424,
            "time": 22.875,
            "velocity": 0.3700787401574803
          },
          {
            "duration": 0.09375,
            "durationTicks": 96,
            "midi": 48,
            "name": "C3",
            "ticks": 23616,
            "time": 23.0625,
            "velocity": 0.3700787401574803
          },
          {
            "duration": 0.09375,
            "durationTicks": 96,
            "midi": 52,
            "name": "E3",
            "ticks": 23616,
            "time": 23.0625,
            "velocity": 0.3700787401574803
          },
          {
            "duration": 0.09375,
            "durationTicks": 96,
            "midi": 43,
            "name": "G2",
            "ticks": 23616,
            "time": 23.0625,
            "velocity": 0.3700787401574803
          },
          {
            "duration": 0.09375,
            "durationTicks": 96,
            "midi": 43,
            "name": "G2",
            "ticks": 23808,
            "time": 23.25,
            "velocity": 0.3700787401574803
          },
          {
            "duration": 0.09375,
            "durationTicks": 96,
            "midi": 48,
            "name": "C3",
            "ticks": 23808,
            "time": 23.25,
            "velocity": 0.3700787401574803
          },
          {
            "duration": 0.09375,
            "durationTicks": 96,
            "midi": 52,
            "name": "E3",
            "ticks": 23808,
            "time": 23.25,
            "velocity": 0.3700787401574803
          },
          {
            "duration": 0.09375,
            "durationTicks": 96,
            "midi": 52,
            "name": "E3",
            "ticks": 24000,
            "time": 23.4375,
            "velocity": 0.3700787401574803
          },
          {
            "duration": 0.09375,
            "durationTicks": 96,
            "midi": 48,
            "name": "C3",
            "ticks": 24000,
            "time": 23.4375,
            "velocity": 0.3700787401574803
          },
          {
            "duration": 0.09375,
            "durationTicks": 96,
            "midi": 43,
            "name": "G2",
            "ticks": 24000,
            "time": 23.4375,
            "velocity": 0.3700787401574803
          },
          {
            "duration": 0.09375,
            "durationTicks": 96,
            "midi": 52,
            "name": "E3",
            "ticks": 24192,
            "time": 23.625,
            "velocity": 0.3700787401574803
          },
          {
            "duration": 0.09375,
            "durationTicks": 96,
            "midi": 43,
            "name": "G2",
            "ticks": 24192,
            "time": 23.625,
            "velocity": 0.3700787401574803
          },
          {
            "duration": 0.09375,
            "durationTicks": 96,
            "midi": 48,
            "name": "C3",
            "ticks": 24192,
            "time": 23.625,
            "velocity": 0.3700787401574803
          },
          {
            "duration": 0.09375,
            "durationTicks": 96,
            "midi": 52,
            "name": "E3",
            "ticks": 24384,
            "time": 23.8125,
            "velocity": 0.3700787401574803
          },
          {
            "duration": 0.09375,
            "durationTicks": 96,
            "midi": 48,
            "name": "C3",
            "ticks": 24384,
            "time": 23.8125,
            "velocity": 0.3700787401574803
          },
          {
            "duration": 0.09375,
            "durationTicks": 96,
            "midi": 43,
            "name": "G2",
            "ticks": 24384,
            "time": 23.8125,
            "velocity": 0.3700787401574803
          },
          {
            "duration": 0.09375,
            "durationTicks": 96,
            "midi": 43,
            "name": "G2",
            "ticks": 24576,
            "time": 24,
            "velocity": 0.3700787401574803
          },
          {
            "duration": 0.09375,
            "durationTicks": 96,
            "midi": 47,
            "name": "B2",
            "ticks": 24576,
            "time": 24,
            "velocity": 0.3700787401574803
          },
          {
            "duration": 0.09375,
            "durationTicks": 96,
            "midi": 50,
            "name": "D3",
            "ticks": 24576,
            "time": 24,
            "velocity": 0.3700787401574803
          },
          {
            "duration": 0.09375,
            "durationTicks": 96,
            "midi": 47,
            "name": "B2",
            "ticks": 24768,
            "time": 24.1875,
            "velocity": 0.3700787401574803
          },
          {
            "duration": 0.09375,
            "durationTicks": 96,
            "midi": 50,
            "name": "D3",
            "ticks": 24768,
            "time": 24.1875,
            "velocity": 0.3700787401574803
          },
          {
            "duration": 0.09375,
            "durationTicks": 96,
            "midi": 43,
            "name": "G2",
            "ticks": 24768,
            "time": 24.1875,
            "velocity": 0.3700787401574803
          },
          {
            "duration": 0.09375,
            "durationTicks": 96,
            "midi": 50,
            "name": "D3",
            "ticks": 24960,
            "time": 24.375,
            "velocity": 0.3700787401574803
          },
          {
            "duration": 0.09375,
            "durationTicks": 96,
            "midi": 43,
            "name": "G2",
            "ticks": 24960,
            "time": 24.375,
            "velocity": 0.3700787401574803
          },
          {
            "duration": 0.09375,
            "durationTicks": 96,
            "midi": 47,
            "name": "B2",
            "ticks": 24960,
            "time": 24.375,
            "velocity": 0.3700787401574803
          },
          {
            "duration": 0.09375,
            "durationTicks": 96,
            "midi": 47,
            "name": "B2",
            "ticks": 25152,
            "time": 24.5625,
            "velocity": 0.3700787401574803
          },
          {
            "duration": 0.09375,
            "durationTicks": 96,
            "midi": 50,
            "name": "D3",
            "ticks": 25152,
            "time": 24.5625,
            "velocity": 0.3700787401574803
          },
          {
            "duration": 0.09375,
            "durationTicks": 96,
            "midi": 43,
            "name": "G2",
            "ticks": 25152,
            "time": 24.5625,
            "velocity": 0.3700787401574803
          },
          {
            "duration": 0.09375,
            "durationTicks": 96,
            "midi": 42,
            "name": "F#2",
            "ticks": 25344,
            "time": 24.75,
            "velocity": 0.3700787401574803
          },
          {
            "duration": 0.09375,
            "durationTicks": 96,
            "midi": 45,
            "name": "A2",
            "ticks": 25344,
            "time": 24.75,
            "velocity": 0.3700787401574803
          },
          {
            "duration": 0.09375,
            "durationTicks": 96,
            "midi": 50,
            "name": "D3",
            "ticks": 25344,
            "time": 24.75,
            "velocity": 0.3700787401574803
          },
          {
            "duration": 0.09375,
            "durationTicks": 96,
            "midi": 50,
            "name": "D3",
            "ticks": 25536,
            "time": 24.9375,
            "velocity": 0.3700787401574803
          },
          {
            "duration": 0.09375,
            "durationTicks": 96,
            "midi": 45,
            "name": "A2",
            "ticks": 25536,
            "time": 24.9375,
            "velocity": 0.3700787401574803
          },
          {
            "duration": 0.09375,
            "durationTicks": 96,
            "midi": 42,
            "name": "F#2",
            "ticks": 25536,
            "time": 24.9375,
            "velocity": 0.3700787401574803
          },
          {
            "duration": 0.09375,
            "durationTicks": 96,
            "midi": 50,
            "name": "D3",
            "ticks": 25728,
            "time": 25.125,
            "velocity": 0.3700787401574803
          },
          {
            "duration": 0.09375,
            "durationTicks": 96,
            "midi": 42,
            "name": "F#2",
            "ticks": 25728,
            "time": 25.125,
            "velocity": 0.3700787401574803
          },
          {
            "duration": 0.09375,
            "durationTicks": 96,
            "midi": 45,
            "name": "A2",
            "ticks": 25728,
            "time": 25.125,
            "velocity": 0.3700787401574803
          },
          {
            "duration": 0.09375,
            "durationTicks": 96,
            "midi": 45,
            "name": "A2",
            "ticks": 25920,
            "time": 25.3125,
            "velocity": 0.3700787401574803
          },
          {
            "duration": 0.09375,
            "durationTicks": 96,
            "midi": 50,
            "name": "D3",
            "ticks": 25920,
            "time": 25.3125,
            "velocity": 0.3700787401574803
          },
          {
            "duration": 0.09375,
            "durationTicks": 96,
            "midi": 42,
            "name": "F#2",
            "ticks": 25920,
            "time": 25.3125,
            "velocity": 0.3700787401574803
          },
          {
            "duration": 0.09375,
            "durationTicks": 96,
            "midi": 43,
            "name": "G2",
            "ticks": 26112,
            "time": 25.5,
            "velocity": 0.3700787401574803
          },
          {
            "duration": 0.09375,
            "durationTicks": 96,
            "midi": 47,
            "name": "B2",
            "ticks": 26112,
            "time": 25.5,
            "velocity": 0.3700787401574803
          },
          {
            "duration": 0.09375,
            "durationTicks": 96,
            "midi": 50,
            "name": "D3",
            "ticks": 26112,
            "time": 25.5,
            "velocity": 0.3700787401574803
          },
          {
            "duration": 0.09375,
            "durationTicks": 96,
            "midi": 47,
            "name": "B2",
            "ticks": 26304,
            "time": 25.6875,
            "velocity": 0.3700787401574803
          },
          {
            "duration": 0.09375,
            "durationTicks": 96,
            "midi": 50,
            "name": "D3",
            "ticks": 26304,
            "time": 25.6875,
            "velocity": 0.3700787401574803
          },
          {
            "duration": 0.09375,
            "durationTicks": 96,
            "midi": 43,
            "name": "G2",
            "ticks": 26304,
            "time": 25.6875,
            "velocity": 0.3700787401574803
          },
          {
            "duration": 0.09375,
            "durationTicks": 96,
            "midi": 50,
            "name": "D3",
            "ticks": 26496,
            "time": 25.875,
            "velocity": 0.3700787401574803
          },
          {
            "duration": 0.09375,
            "durationTicks": 96,
            "midi": 43,
            "name": "G2",
            "ticks": 26496,
            "time": 25.875,
            "velocity": 0.3700787401574803
          },
          {
            "duration": 0.09375,
            "durationTicks": 96,
            "midi": 47,
            "name": "B2",
            "ticks": 26496,
            "time": 25.875,
            "velocity": 0.3700787401574803
          },
          {
            "duration": 0.09375,
            "durationTicks": 96,
            "midi": 47,
            "name": "B2",
            "ticks": 26688,
            "time": 26.0625,
            "velocity": 0.3700787401574803
          },
          {
            "duration": 0.09375,
            "durationTicks": 96,
            "midi": 50,
            "name": "D3",
            "ticks": 26688,
            "time": 26.0625,
            "velocity": 0.3700787401574803
          },
          {
            "duration": 0.09375,
            "durationTicks": 96,
            "midi": 43,
            "name": "G2",
            "ticks": 26688,
            "time": 26.0625,
            "velocity": 0.3700787401574803
          },
          {
            "duration": 0.09375,
            "durationTicks": 96,
            "midi": 43,
            "name": "G2",
            "ticks": 26880,
            "time": 26.25,
            "velocity": 0.3700787401574803
          },
          {
            "duration": 0.09375,
            "durationTicks": 96,
            "midi": 47,
            "name": "B2",
            "ticks": 26880,
            "time": 26.25,
            "velocity": 0.3700787401574803
          },
          {
            "duration": 0.09375,
            "durationTicks": 96,
            "midi": 50,
            "name": "D3",
            "ticks": 26880,
            "time": 26.25,
            "velocity": 0.3700787401574803
          },
          {
            "duration": 0.09375,
            "durationTicks": 96,
            "midi": 43,
            "name": "G2",
            "ticks": 27072,
            "time": 26.4375,
            "velocity": 0.3700787401574803
          },
          {
            "duration": 0.09375,
            "durationTicks": 96,
            "midi": 47,
            "name": "B2",
            "ticks": 27072,
            "time": 26.4375,
            "velocity": 0.3700787401574803
          },
          {
            "duration": 0.09375,
            "durationTicks": 96,
            "midi": 50,
            "name": "D3",
            "ticks": 27072,
            "time": 26.4375,
            "velocity": 0.3700787401574803
          },
          {
            "duration": 0.09375,
            "durationTicks": 96,
            "midi": 47,
            "name": "B2",
            "ticks": 27264,
            "time": 26.625,
            "velocity": 0.3700787401574803
          },
          {
            "duration": 0.09375,
            "durationTicks": 96,
            "midi": 43,
            "name": "G2",
            "ticks": 27264,
            "time": 26.625,
            "velocity": 0.3700787401574803
          },
          {
            "duration": 0.09375,
            "durationTicks": 96,
            "midi": 50,
            "name": "D3",
            "ticks": 27264,
            "time": 26.625,
            "velocity": 0.3700787401574803
          },
          {
            "duration": 0.09375,
            "durationTicks": 96,
            "midi": 50,
            "name": "D3",
            "ticks": 27456,
            "time": 26.8125,
            "velocity": 0.3700787401574803
          },
          {
            "duration": 0.09375,
            "durationTicks": 96,
            "midi": 43,
            "name": "G2",
            "ticks": 27456,
            "time": 26.8125,
            "velocity": 0.3700787401574803
          },
          {
            "duration": 0.09375,
            "durationTicks": 96,
            "midi": 47,
            "name": "B2",
            "ticks": 27456,
            "time": 26.8125,
            "velocity": 0.3700787401574803
          },
          {
            "duration": 0.09375,
            "durationTicks": 96,
            "midi": 43,
            "name": "G2",
            "ticks": 27648,
            "time": 27,
            "velocity": 0.3700787401574803
          },
          {
            "duration": 0.09375,
            "durationTicks": 96,
            "midi": 47,
            "name": "B2",
            "ticks": 27648,
            "time": 27,
            "velocity": 0.3700787401574803
          },
          {
            "duration": 0.09375,
            "durationTicks": 96,
            "midi": 50,
            "name": "D3",
            "ticks": 27648,
            "time": 27,
            "velocity": 0.3700787401574803
          },
          {
            "duration": 0.09375,
            "durationTicks": 96,
            "midi": 43,
            "name": "G2",
            "ticks": 27840,
            "time": 27.1875,
            "velocity": 0.3700787401574803
          },
          {
            "duration": 0.09375,
            "durationTicks": 96,
            "midi": 47,
            "name": "B2",
            "ticks": 27840,
            "time": 27.1875,
            "velocity": 0.3700787401574803
          },
          {
            "duration": 0.09375,
            "durationTicks": 96,
            "midi": 50,
            "name": "D3",
            "ticks": 27840,
            "time": 27.1875,
            "velocity": 0.3700787401574803
          },
          {
            "duration": 0.09375,
            "durationTicks": 96,
            "midi": 50,
            "name": "D3",
            "ticks": 28032,
            "time": 27.375,
            "velocity": 0.3700787401574803
          },
          {
            "duration": 0.09375,
            "durationTicks": 96,
            "midi": 47,
            "name": "B2",
            "ticks": 28032,
            "time": 27.375,
            "velocity": 0.3700787401574803
          },
          {
            "duration": 0.09375,
            "durationTicks": 96,
            "midi": 43,
            "name": "G2",
            "ticks": 28032,
            "time": 27.375,
            "velocity": 0.3700787401574803
          },
          {
            "duration": 0.09375,
            "durationTicks": 96,
            "midi": 47,
            "name": "B2",
            "ticks": 28224,
            "time": 27.5625,
            "velocity": 0.3700787401574803
          },
          {
            "duration": 0.09375,
            "durationTicks": 96,
            "midi": 50,
            "name": "D3",
            "ticks": 28224,
            "time": 27.5625,
            "velocity": 0.3700787401574803
          },
          {
            "duration": 0.09375,
            "durationTicks": 96,
            "midi": 43,
            "name": "G2",
            "ticks": 28224,
            "time": 27.5625,
            "velocity": 0.3700787401574803
          },
          {
            "duration": 0.09375,
            "durationTicks": 96,
            "midi": 50,
            "name": "D3",
            "ticks": 28416,
            "time": 27.75,
            "velocity": 0.3700787401574803
          },
          {
            "duration": 0.09375,
            "durationTicks": 96,
            "midi": 47,
            "name": "B2",
            "ticks": 28416,
            "time": 27.75,
            "velocity": 0.3700787401574803
          },
          {
            "duration": 0.09375,
            "durationTicks": 96,
            "midi": 43,
            "name": "G2",
            "ticks": 28416,
            "time": 27.75,
            "velocity": 0.3700787401574803
          },
          {
            "duration": 0.09375,
            "durationTicks": 96,
            "midi": 43,
            "name": "G2",
            "ticks": 28608,
            "time": 27.9375,
            "velocity": 0.3700787401574803
          },
          {
            "duration": 0.09375,
            "durationTicks": 96,
            "midi": 47,
            "name": "B2",
            "ticks": 28608,
            "time": 27.9375,
            "velocity": 0.3700787401574803
          },
          {
            "duration": 0.09375,
            "durationTicks": 96,
            "midi": 50,
            "name": "D3",
            "ticks": 28608,
            "time": 27.9375,
            "velocity": 0.3700787401574803
          },
          {
            "duration": 0.09375,
            "durationTicks": 96,
            "midi": 47,
            "name": "B2",
            "ticks": 28800,
            "time": 28.125,
            "velocity": 0.3700787401574803
          },
          {
            "duration": 0.09375,
            "durationTicks": 96,
            "midi": 50,
            "name": "D3",
            "ticks": 28800,
            "time": 28.125,
            "velocity": 0.3700787401574803
          },
          {
            "duration": 0.09375,
            "durationTicks": 96,
            "midi": 43,
            "name": "G2",
            "ticks": 28800,
            "time": 28.125,
            "velocity": 0.3700787401574803
          },
          {
            "duration": 0.09375,
            "durationTicks": 96,
            "midi": 47,
            "name": "B2",
            "ticks": 28992,
            "time": 28.3125,
            "velocity": 0.3700787401574803
          },
          {
            "duration": 0.09375,
            "durationTicks": 96,
            "midi": 50,
            "name": "D3",
            "ticks": 28992,
            "time": 28.3125,
            "velocity": 0.3700787401574803
          },
          {
            "duration": 0.09375,
            "durationTicks": 96,
            "midi": 43,
            "name": "G2",
            "ticks": 28992,
            "time": 28.3125,
            "velocity": 0.3700787401574803
          },
          {
            "duration": 0.09375,
            "durationTicks": 96,
            "midi": 52,
            "name": "E3",
            "ticks": 29184,
            "time": 28.5,
            "velocity": 0.3700787401574803
          },
          {
            "duration": 0.09375,
            "durationTicks": 96,
            "midi": 48,
            "name": "C3",
            "ticks": 29184,
            "time": 28.5,
            "velocity": 0.3700787401574803
          },
          {
            "duration": 0.09375,
            "durationTicks": 96,
            "midi": 43,
            "name": "G2",
            "ticks": 29184,
            "time": 28.5,
            "velocity": 0.3700787401574803
          },
          {
            "duration": 0.09375,
            "durationTicks": 96,
            "midi": 43,
            "name": "G2",
            "ticks": 29376,
            "time": 28.6875,
            "velocity": 0.3700787401574803
          },
          {
            "duration": 0.09375,
            "durationTicks": 96,
            "midi": 48,
            "name": "C3",
            "ticks": 29376,
            "time": 28.6875,
            "velocity": 0.3700787401574803
          },
          {
            "duration": 0.09375,
            "durationTicks": 96,
            "midi": 52,
            "name": "E3",
            "ticks": 29376,
            "time": 28.6875,
            "velocity": 0.3700787401574803
          },
          {
            "duration": 0.09375,
            "durationTicks": 96,
            "midi": 48,
            "name": "C3",
            "ticks": 29568,
            "time": 28.875,
            "velocity": 0.3700787401574803
          },
          {
            "duration": 0.09375,
            "durationTicks": 96,
            "midi": 52,
            "name": "E3",
            "ticks": 29568,
            "time": 28.875,
            "velocity": 0.3700787401574803
          },
          {
            "duration": 0.09375,
            "durationTicks": 96,
            "midi": 43,
            "name": "G2",
            "ticks": 29568,
            "time": 28.875,
            "velocity": 0.3700787401574803
          },
          {
            "duration": 0.09375,
            "durationTicks": 96,
            "midi": 48,
            "name": "C3",
            "ticks": 29760,
            "time": 29.0625,
            "velocity": 0.3700787401574803
          },
          {
            "duration": 0.09375,
            "durationTicks": 96,
            "midi": 52,
            "name": "E3",
            "ticks": 29760,
            "time": 29.0625,
            "velocity": 0.3700787401574803
          },
          {
            "duration": 0.09375,
            "durationTicks": 96,
            "midi": 43,
            "name": "G2",
            "ticks": 29760,
            "time": 29.0625,
            "velocity": 0.3700787401574803
          },
          {
            "duration": 0.09375,
            "durationTicks": 96,
            "midi": 48,
            "name": "C3",
            "ticks": 29952,
            "time": 29.25,
            "velocity": 0.3700787401574803
          },
          {
            "duration": 0.09375,
            "durationTicks": 96,
            "midi": 52,
            "name": "E3",
            "ticks": 29952,
            "time": 29.25,
            "velocity": 0.3700787401574803
          },
          {
            "duration": 0.09375,
            "durationTicks": 96,
            "midi": 43,
            "name": "G2",
            "ticks": 29952,
            "time": 29.25,
            "velocity": 0.3700787401574803
          },
          {
            "duration": 0.09375,
            "durationTicks": 96,
            "midi": 43,
            "name": "G2",
            "ticks": 30144,
            "time": 29.4375,
            "velocity": 0.3700787401574803
          },
          {
            "duration": 0.09375,
            "durationTicks": 96,
            "midi": 48,
            "name": "C3",
            "ticks": 30144,
            "time": 29.4375,
            "velocity": 0.3700787401574803
          },
          {
            "duration": 0.09375,
            "durationTicks": 96,
            "midi": 52,
            "name": "E3",
            "ticks": 30144,
            "time": 29.4375,
            "velocity": 0.3700787401574803
          },
          {
            "duration": 0.09375,
            "durationTicks": 96,
            "midi": 52,
            "name": "E3",
            "ticks": 30336,
            "time": 29.625,
            "velocity": 0.3700787401574803
          },
          {
            "duration": 0.09375,
            "durationTicks": 96,
            "midi": 48,
            "name": "C3",
            "ticks": 30336,
            "time": 29.625,
            "velocity": 0.3700787401574803
          },
          {
            "duration": 0.09375,
            "durationTicks": 96,
            "midi": 43,
            "name": "G2",
            "ticks": 30336,
            "time": 29.625,
            "velocity": 0.3700787401574803
          },
          {
            "duration": 0.09375,
            "durationTicks": 96,
            "midi": 48,
            "name": "C3",
            "ticks": 30528,
            "time": 29.8125,
            "velocity": 0.3700787401574803
          },
          {
            "duration": 0.09375,
            "durationTicks": 96,
            "midi": 52,
            "name": "E3",
            "ticks": 30528,
            "time": 29.8125,
            "velocity": 0.3700787401574803
          },
          {
            "duration": 0.09375,
            "durationTicks": 96,
            "midi": 43,
            "name": "G2",
            "ticks": 30528,
            "time": 29.8125,
            "velocity": 0.3700787401574803
          },
          {
            "duration": 0.09375,
            "durationTicks": 96,
            "midi": 50,
            "name": "D3",
            "ticks": 30720,
            "time": 30,
            "velocity": 0.3700787401574803
          },
          {
            "duration": 0.09375,
            "durationTicks": 96,
            "midi": 47,
            "name": "B2",
            "ticks": 30720,
            "time": 30,
            "velocity": 0.3700787401574803
          },
          {
            "duration": 0.09375,
            "durationTicks": 96,
            "midi": 43,
            "name": "G2",
            "ticks": 30720,
            "time": 30,
            "velocity": 0.3700787401574803
          },
          {
            "duration": 0.09375,
            "durationTicks": 96,
            "midi": 43,
            "name": "G2",
            "ticks": 30912,
            "time": 30.1875,
            "velocity": 0.3700787401574803
          },
          {
            "duration": 0.09375,
            "durationTicks": 96,
            "midi": 47,
            "name": "B2",
            "ticks": 30912,
            "time": 30.1875,
            "velocity": 0.3700787401574803
          },
          {
            "duration": 0.09375,
            "durationTicks": 96,
            "midi": 50,
            "name": "D3",
            "ticks": 30912,
            "time": 30.1875,
            "velocity": 0.3700787401574803
          },
          {
            "duration": 0.09375,
            "durationTicks": 96,
            "midi": 50,
            "name": "D3",
            "ticks": 31104,
            "time": 30.375,
            "velocity": 0.3700787401574803
          },
          {
            "duration": 0.09375,
            "durationTicks": 96,
            "midi": 47,
            "name": "B2",
            "ticks": 31104,
            "time": 30.375,
            "velocity": 0.3700787401574803
          },
          {
            "duration": 0.09375,
            "durationTicks": 96,
            "midi": 43,
            "name": "G2",
            "ticks": 31104,
            "time": 30.375,
            "velocity": 0.3700787401574803
          },
          {
            "duration": 0.09375,
            "durationTicks": 96,
            "midi": 50,
            "name": "D3",
            "ticks": 31296,
            "time": 30.5625,
            "velocity": 0.3700787401574803
          },
          {
            "duration": 0.09375,
            "durationTicks": 96,
            "midi": 43,
            "name": "G2",
            "ticks": 31296,
            "time": 30.5625,
            "velocity": 0.3700787401574803
          },
          {
            "duration": 0.09375,
            "durationTicks": 96,
            "midi": 47,
            "name": "B2",
            "ticks": 31296,
            "time": 30.5625,
            "velocity": 0.3700787401574803
          },
          {
            "duration": 0.09375,
            "durationTicks": 96,
            "midi": 47,
            "name": "B2",
            "ticks": 31488,
            "time": 30.75,
            "velocity": 0.3700787401574803
          },
          {
            "duration": 0.09375,
            "durationTicks": 96,
            "midi": 50,
            "name": "D3",
            "ticks": 31488,
            "time": 30.75,
            "velocity": 0.3700787401574803
          },
          {
            "duration": 0.09375,
            "durationTicks": 96,
            "midi": 43,
            "name": "G2",
            "ticks": 31488,
            "time": 30.75,
            "velocity": 0.3700787401574803
          },
          {
            "duration": 0.09375,
            "durationTicks": 96,
            "midi": 43,
            "name": "G2",
            "ticks": 31680,
            "time": 30.9375,
            "velocity": 0.3700787401574803
          },
          {
            "duration": 0.09375,
            "durationTicks": 96,
            "midi": 47,
            "name": "B2",
            "ticks": 31680,
            "time": 30.9375,
            "velocity": 0.3700787401574803
          },
          {
            "duration": 0.09375,
            "durationTicks": 96,
            "midi": 50,
            "name": "D3",
            "ticks": 31680,
            "time": 30.9375,
            "velocity": 0.3700787401574803
          },
          {
            "duration": 0.09375,
            "durationTicks": 96,
            "midi": 43,
            "name": "G2",
            "ticks": 31872,
            "time": 31.125,
            "velocity": 0.3700787401574803
          },
          {
            "duration": 0.09375,
            "durationTicks": 96,
            "midi": 47,
            "name": "B2",
            "ticks": 31872,
            "time": 31.125,
            "velocity": 0.3700787401574803
          },
          {
            "duration": 0.09375,
            "durationTicks": 96,
            "midi": 50,
            "name": "D3",
            "ticks": 31872,
            "time": 31.125,
            "velocity": 0.3700787401574803
          },
          {
            "duration": 0.09375,
            "durationTicks": 96,
            "midi": 47,
            "name": "B2",
            "ticks": 32064,
            "time": 31.3125,
            "velocity": 0.3700787401574803
          },
          {
            "duration": 0.09375,
            "durationTicks": 96,
            "midi": 50,
            "name": "D3",
            "ticks": 32064,
            "time": 31.3125,
            "velocity": 0.3700787401574803
          },
          {
            "duration": 0.09375,
            "durationTicks": 96,
            "midi": 43,
            "name": "G2",
            "ticks": 32064,
            "time": 31.3125,
            "velocity": 0.3700787401574803
          },
          {
            "duration": 0.09375,
            "durationTicks": 96,
            "midi": 50,
            "name": "D3",
            "ticks": 32256,
            "time": 31.5,
            "velocity": 0.3700787401574803
          },
          {
            "duration": 0.09375,
            "durationTicks": 96,
            "midi": 45,
            "name": "A2",
            "ticks": 32256,
            "time": 31.5,
            "velocity": 0.3700787401574803
          },
          {
            "duration": 0.09375,
            "durationTicks": 96,
            "midi": 42,
            "name": "F#2",
            "ticks": 32256,
            "time": 31.5,
            "velocity": 0.3700787401574803
          },
          {
            "duration": 0.09375,
            "durationTicks": 96,
            "midi": 42,
            "name": "F#2",
            "ticks": 32448,
            "time": 31.6875,
            "velocity": 0.3700787401574803
          },
          {
            "duration": 0.09375,
            "durationTicks": 96,
            "midi": 45,
            "name": "A2",
            "ticks": 32448,
            "time": 31.6875,
            "velocity": 0.3700787401574803
          },
          {
            "duration": 0.09375,
            "durationTicks": 96,
            "midi": 50,
            "name": "D3",
            "ticks": 32448,
            "time": 31.6875,
            "velocity": 0.3700787401574803
          },
          {
            "duration": 0.09375,
            "durationTicks": 96,
            "midi": 50,
            "name": "D3",
            "ticks": 32640,
            "time": 31.875,
            "velocity": 0.3700787401574803
          },
          {
            "duration": 0.09375,
            "durationTicks": 96,
            "midi": 45,
            "name": "A2",
            "ticks": 32640,
            "time": 31.875,
            "velocity": 0.3700787401574803
          },
          {
            "duration": 0.09375,
            "durationTicks": 96,
            "midi": 42,
            "name": "F#2",
            "ticks": 32640,
            "time": 31.875,
            "velocity": 0.3700787401574803
          },
          {
            "duration": 0.09375,
            "durationTicks": 96,
            "midi": 50,
            "name": "D3",
            "ticks": 32832,
            "time": 32.0625,
            "velocity": 0.3700787401574803
          },
          {
            "duration": 0.09375,
            "durationTicks": 96,
            "midi": 42,
            "name": "F#2",
            "ticks": 32832,
            "time": 32.0625,
            "velocity": 0.3700787401574803
          },
          {
            "duration": 0.09375,
            "durationTicks": 96,
            "midi": 45,
            "name": "A2",
            "ticks": 32832,
            "time": 32.0625,
            "velocity": 0.3700787401574803
          },
          {
            "duration": 0.09375,
            "durationTicks": 96,
            "midi": 45,
            "name": "A2",
            "ticks": 33024,
            "time": 32.25,
            "velocity": 0.3700787401574803
          },
          {
            "duration": 0.09375,
            "durationTicks": 96,
            "midi": 50,
            "name": "D3",
            "ticks": 33024,
            "time": 32.25,
            "velocity": 0.3700787401574803
          },
          {
            "duration": 0.09375,
            "durationTicks": 96,
            "midi": 42,
            "name": "F#2",
            "ticks": 33024,
            "time": 32.25,
            "velocity": 0.3700787401574803
          },
          {
            "duration": 0.09375,
            "durationTicks": 96,
            "midi": 42,
            "name": "F#2",
            "ticks": 33216,
            "time": 32.4375,
            "velocity": 0.3700787401574803
          },
          {
            "duration": 0.09375,
            "durationTicks": 96,
            "midi": 45,
            "name": "A2",
            "ticks": 33216,
            "time": 32.4375,
            "velocity": 0.3700787401574803
          },
          {
            "duration": 0.09375,
            "durationTicks": 96,
            "midi": 50,
            "name": "D3",
            "ticks": 33216,
            "time": 32.4375,
            "velocity": 0.3700787401574803
          },
          {
            "duration": 0.09375,
            "durationTicks": 96,
            "midi": 42,
            "name": "F#2",
            "ticks": 33408,
            "time": 32.625,
            "velocity": 0.3700787401574803
          },
          {
            "duration": 0.09375,
            "durationTicks": 96,
            "midi": 45,
            "name": "A2",
            "ticks": 33408,
            "time": 32.625,
            "velocity": 0.3700787401574803
          },
          {
            "duration": 0.09375,
            "durationTicks": 96,
            "midi": 50,
            "name": "D3",
            "ticks": 33408,
            "time": 32.625,
            "velocity": 0.3700787401574803
          },
          {
            "duration": 0.09375,
            "durationTicks": 96,
            "midi": 42,
            "name": "F#2",
            "ticks": 33600,
            "time": 32.8125,
            "velocity": 0.3700787401574803
          },
          {
            "duration": 0.09375,
            "durationTicks": 96,
            "midi": 50,
            "name": "D3",
            "ticks": 33600,
            "time": 32.8125,
            "velocity": 0.3700787401574803
          },
          {
            "duration": 0.09375,
            "durationTicks": 96,
            "midi": 45,
            "name": "A2",
            "ticks": 33600,
            "time": 32.8125,
            "velocity": 0.3700787401574803
          },
          {
            "duration": 0.09375,
            "durationTicks": 96,
            "midi": 43,
            "name": "G2",
            "ticks": 33792,
            "time": 33,
            "velocity": 0.3700787401574803
          },
          {
            "duration": 0.09375,
            "durationTicks": 96,
            "midi": 47,
            "name": "B2",
            "ticks": 33792,
            "time": 33,
            "velocity": 0.3700787401574803
          },
          {
            "duration": 0.09375,
            "durationTicks": 96,
            "midi": 50,
            "name": "D3",
            "ticks": 33792,
            "time": 33,
            "velocity": 0.3700787401574803
          },
          {
            "duration": 0.09375,
            "durationTicks": 96,
            "midi": 43,
            "name": "G2",
            "ticks": 33984,
            "time": 33.1875,
            "velocity": 0.3700787401574803
          },
          {
            "duration": 0.09375,
            "durationTicks": 96,
            "midi": 47,
            "name": "B2",
            "ticks": 33984,
            "time": 33.1875,
            "velocity": 0.3700787401574803
          },
          {
            "duration": 0.09375,
            "durationTicks": 96,
            "midi": 50,
            "name": "D3",
            "ticks": 33984,
            "time": 33.1875,
            "velocity": 0.3700787401574803
          },
          {
            "duration": 0.09375,
            "durationTicks": 96,
            "midi": 50,
            "name": "D3",
            "ticks": 34176,
            "time": 33.375,
            "velocity": 0.3700787401574803
          },
          {
            "duration": 0.09375,
            "durationTicks": 96,
            "midi": 47,
            "name": "B2",
            "ticks": 34176,
            "time": 33.375,
            "velocity": 0.3700787401574803
          },
          {
            "duration": 0.09375,
            "durationTicks": 96,
            "midi": 43,
            "name": "G2",
            "ticks": 34176,
            "time": 33.375,
            "velocity": 0.3700787401574803
          },
          {
            "duration": 0.09375,
            "durationTicks": 96,
            "midi": 50,
            "name": "D3",
            "ticks": 34368,
            "time": 33.5625,
            "velocity": 0.3700787401574803
          },
          {
            "duration": 0.09375,
            "durationTicks": 96,
            "midi": 43,
            "name": "G2",
            "ticks": 34368,
            "time": 33.5625,
            "velocity": 0.3700787401574803
          },
          {
            "duration": 0.09375,
            "durationTicks": 96,
            "midi": 47,
            "name": "B2",
            "ticks": 34368,
            "time": 33.5625,
            "velocity": 0.3700787401574803
          },
          {
            "duration": 0.09375,
            "durationTicks": 96,
            "midi": 50,
            "name": "D3",
            "ticks": 34560,
            "time": 33.75,
            "velocity": 0.3700787401574803
          },
          {
            "duration": 0.09375,
            "durationTicks": 96,
            "midi": 47,
            "name": "B2",
            "ticks": 34560,
            "time": 33.75,
            "velocity": 0.3700787401574803
          },
          {
            "duration": 0.09375,
            "durationTicks": 96,
            "midi": 43,
            "name": "G2",
            "ticks": 34560,
            "time": 33.75,
            "velocity": 0.3700787401574803
          },
          {
            "duration": 0.09375,
            "durationTicks": 96,
            "midi": 43,
            "name": "G2",
            "ticks": 34752,
            "time": 33.9375,
            "velocity": 0.3700787401574803
          },
          {
            "duration": 0.09375,
            "durationTicks": 96,
            "midi": 47,
            "name": "B2",
            "ticks": 34752,
            "time": 33.9375,
            "velocity": 0.3700787401574803
          },
          {
            "duration": 0.09375,
            "durationTicks": 96,
            "midi": 50,
            "name": "D3",
            "ticks": 34752,
            "time": 33.9375,
            "velocity": 0.3700787401574803
          },
          {
            "duration": 0.09375,
            "durationTicks": 96,
            "midi": 47,
            "name": "B2",
            "ticks": 34944,
            "time": 34.125,
            "velocity": 0.3700787401574803
          },
          {
            "duration": 0.09375,
            "durationTicks": 96,
            "midi": 50,
            "name": "D3",
            "ticks": 34944,
            "time": 34.125,
            "velocity": 0.3700787401574803
          },
          {
            "duration": 0.09375,
            "durationTicks": 96,
            "midi": 43,
            "name": "G2",
            "ticks": 34944,
            "time": 34.125,
            "velocity": 0.3700787401574803
          },
          {
            "duration": 0.09375,
            "durationTicks": 96,
            "midi": 50,
            "name": "D3",
            "ticks": 35136,
            "time": 34.3125,
            "velocity": 0.3700787401574803
          },
          {
            "duration": 0.09375,
            "durationTicks": 96,
            "midi": 43,
            "name": "G2",
            "ticks": 35136,
            "time": 34.3125,
            "velocity": 0.3700787401574803
          },
          {
            "duration": 0.09375,
            "durationTicks": 96,
            "midi": 47,
            "name": "B2",
            "ticks": 35136,
            "time": 34.3125,
            "velocity": 0.3700787401574803
          },
          {
            "duration": 0.09375,
            "durationTicks": 96,
            "midi": 48,
            "name": "C3",
            "ticks": 35328,
            "time": 34.5,
            "velocity": 0.3700787401574803
          },
          {
            "duration": 0.09375,
            "durationTicks": 96,
            "midi": 52,
            "name": "E3",
            "ticks": 35328,
            "time": 34.5,
            "velocity": 0.3700787401574803
          },
          {
            "duration": 0.09375,
            "durationTicks": 96,
            "midi": 43,
            "name": "G2",
            "ticks": 35328,
            "time": 34.5,
            "velocity": 0.3700787401574803
          },
          {
            "duration": 0.09375,
            "durationTicks": 96,
            "midi": 43,
            "name": "G2",
            "ticks": 35520,
            "time": 34.6875,
            "velocity": 0.3700787401574803
          },
          {
            "duration": 0.09375,
            "durationTicks": 96,
            "midi": 48,
            "name": "C3",
            "ticks": 35520,
            "time": 34.6875,
            "velocity": 0.3700787401574803
          },
          {
            "duration": 0.09375,
            "durationTicks": 96,
            "midi": 52,
            "name": "E3",
            "ticks": 35520,
            "time": 34.6875,
            "velocity": 0.3700787401574803
          },
          {
            "duration": 0.09375,
            "durationTicks": 96,
            "midi": 48,
            "name": "C3",
            "ticks": 35712,
            "time": 34.875,
            "velocity": 0.3700787401574803
          },
          {
            "duration": 0.09375,
            "durationTicks": 96,
            "midi": 52,
            "name": "E3",
            "ticks": 35712,
            "time": 34.875,
            "velocity": 0.3700787401574803
          },
          {
            "duration": 0.09375,
            "durationTicks": 96,
            "midi": 43,
            "name": "G2",
            "ticks": 35712,
            "time": 34.875,
            "velocity": 0.3700787401574803
          },
          {
            "duration": 0.09375,
            "durationTicks": 96,
            "midi": 52,
            "name": "E3",
            "ticks": 35904,
            "time": 35.0625,
            "velocity": 0.3700787401574803
          },
          {
            "duration": 0.09375,
            "durationTicks": 96,
            "midi": 43,
            "name": "G2",
            "ticks": 35904,
            "time": 35.0625,
            "velocity": 0.3700787401574803
          },
          {
            "duration": 0.09375,
            "durationTicks": 96,
            "midi": 48,
            "name": "C3",
            "ticks": 35904,
            "time": 35.0625,
            "velocity": 0.3700787401574803
          },
          {
            "duration": 0.09375,
            "durationTicks": 96,
            "midi": 48,
            "name": "C3",
            "ticks": 36096,
            "time": 35.25,
            "velocity": 0.3700787401574803
          },
          {
            "duration": 0.09375,
            "durationTicks": 96,
            "midi": 52,
            "name": "E3",
            "ticks": 36096,
            "time": 35.25,
            "velocity": 0.3700787401574803
          },
          {
            "duration": 0.09375,
            "durationTicks": 96,
            "midi": 43,
            "name": "G2",
            "ticks": 36096,
            "time": 35.25,
            "velocity": 0.3700787401574803
          },
          {
            "duration": 0.09375,
            "durationTicks": 96,
            "midi": 43,
            "name": "G2",
            "ticks": 36288,
            "time": 35.4375,
            "velocity": 0.3700787401574803
          },
          {
            "duration": 0.09375,
            "durationTicks": 96,
            "midi": 48,
            "name": "C3",
            "ticks": 36288,
            "time": 35.4375,
            "velocity": 0.3700787401574803
          },
          {
            "duration": 0.09375,
            "durationTicks": 96,
            "midi": 52,
            "name": "E3",
            "ticks": 36288,
            "time": 35.4375,
            "velocity": 0.3700787401574803
          },
          {
            "duration": 0.09375,
            "durationTicks": 96,
            "midi": 52,
            "name": "E3",
            "ticks": 36480,
            "time": 35.625,
            "velocity": 0.3700787401574803
          },
          {
            "duration": 0.09375,
            "durationTicks": 96,
            "midi": 48,
            "name": "C3",
            "ticks": 36480,
            "time": 35.625,
            "velocity": 0.3700787401574803
          },
          {
            "duration": 0.09375,
            "durationTicks": 96,
            "midi": 43,
            "name": "G2",
            "ticks": 36480,
            "time": 35.625,
            "velocity": 0.3700787401574803
          },
          {
            "duration": 0.09375,
            "durationTicks": 96,
            "midi": 52,
            "name": "E3",
            "ticks": 36672,
            "time": 35.8125,
            "velocity": 0.3700787401574803
          },
          {
            "duration": 0.09375,
            "durationTicks": 96,
            "midi": 43,
            "name": "G2",
            "ticks": 36672,
            "time": 35.8125,
            "velocity": 0.3700787401574803
          },
          {
            "duration": 0.09375,
            "durationTicks": 96,
            "midi": 48,
            "name": "C3",
            "ticks": 36672,
            "time": 35.8125,
            "velocity": 0.3700787401574803
          },
          {
            "duration": 0.09375,
            "durationTicks": 96,
            "midi": 50,
            "name": "D3",
            "ticks": 36864,
            "time": 36,
            "velocity": 0.3700787401574803
          },
          {
            "duration": 0.09375,
            "durationTicks": 96,
            "midi": 47,
            "name": "B2",
            "ticks": 36864,
            "time": 36,
            "velocity": 0.3700787401574803
          },
          {
            "duration": 0.09375,
            "durationTicks": 96,
            "midi": 43,
            "name": "G2",
            "ticks": 36864,
            "time": 36,
            "velocity": 0.3700787401574803
          },
          {
            "duration": 0.09375,
            "durationTicks": 96,
            "midi": 43,
            "name": "G2",
            "ticks": 37056,
            "time": 36.1875,
            "velocity": 0.3700787401574803
          },
          {
            "duration": 0.09375,
            "durationTicks": 96,
            "midi": 47,
            "name": "B2",
            "ticks": 37056,
            "time": 36.1875,
            "velocity": 0.3700787401574803
          },
          {
            "duration": 0.09375,
            "durationTicks": 96,
            "midi": 50,
            "name": "D3",
            "ticks": 37056,
            "time": 36.1875,
            "velocity": 0.3700787401574803
          },
          {
            "duration": 0.09375,
            "durationTicks": 96,
            "midi": 47,
            "name": "B2",
            "ticks": 37248,
            "time": 36.375,
            "velocity": 0.3700787401574803
          },
          {
            "duration": 0.09375,
            "durationTicks": 96,
            "midi": 50,
            "name": "D3",
            "ticks": 37248,
            "time": 36.375,
            "velocity": 0.3700787401574803
          },
          {
            "duration": 0.09375,
            "durationTicks": 96,
            "midi": 43,
            "name": "G2",
            "ticks": 37248,
            "time": 36.375,
            "velocity": 0.3700787401574803
          },
          {
            "duration": 0.09375,
            "durationTicks": 96,
            "midi": 50,
            "name": "D3",
            "ticks": 37440,
            "time": 36.5625,
            "velocity": 0.3700787401574803
          },
          {
            "duration": 0.09375,
            "durationTicks": 96,
            "midi": 43,
            "name": "G2",
            "ticks": 37440,
            "time": 36.5625,
            "velocity": 0.3700787401574803
          },
          {
            "duration": 0.09375,
            "durationTicks": 96,
            "midi": 47,
            "name": "B2",
            "ticks": 37440,
            "time": 36.5625,
            "velocity": 0.3700787401574803
          },
          {
            "duration": 0.09375,
            "durationTicks": 96,
            "midi": 45,
            "name": "A2",
            "ticks": 37632,
            "time": 36.75,
            "velocity": 0.3700787401574803
          },
          {
            "duration": 0.09375,
            "durationTicks": 96,
            "midi": 50,
            "name": "D3",
            "ticks": 37632,
            "time": 36.75,
            "velocity": 0.3700787401574803
          },
          {
            "duration": 0.09375,
            "durationTicks": 96,
            "midi": 42,
            "name": "F#2",
            "ticks": 37632,
            "time": 36.75,
            "velocity": 0.3700787401574803
          },
          {
            "duration": 0.09375,
            "durationTicks": 96,
            "midi": 42,
            "name": "F#2",
            "ticks": 37824,
            "time": 36.9375,
            "velocity": 0.3700787401574803
          },
          {
            "duration": 0.09375,
            "durationTicks": 96,
            "midi": 45,
            "name": "A2",
            "ticks": 37824,
            "time": 36.9375,
            "velocity": 0.3700787401574803
          },
          {
            "duration": 0.09375,
            "durationTicks": 96,
            "midi": 50,
            "name": "D3",
            "ticks": 37824,
            "time": 36.9375,
            "velocity": 0.3700787401574803
          },
          {
            "duration": 0.09375,
            "durationTicks": 96,
            "midi": 50,
            "name": "D3",
            "ticks": 38016,
            "time": 37.125,
            "velocity": 0.3700787401574803
          },
          {
            "duration": 0.09375,
            "durationTicks": 96,
            "midi": 45,
            "name": "A2",
            "ticks": 38016,
            "time": 37.125,
            "velocity": 0.3700787401574803
          },
          {
            "duration": 0.09375,
            "durationTicks": 96,
            "midi": 42,
            "name": "F#2",
            "ticks": 38016,
            "time": 37.125,
            "velocity": 0.3700787401574803
          },
          {
            "duration": 0.09375,
            "durationTicks": 96,
            "midi": 50,
            "name": "D3",
            "ticks": 38208,
            "time": 37.3125,
            "velocity": 0.3700787401574803
          },
          {
            "duration": 0.09375,
            "durationTicks": 96,
            "midi": 42,
            "name": "F#2",
            "ticks": 38208,
            "time": 37.3125,
            "velocity": 0.3700787401574803
          },
          {
            "duration": 0.09375,
            "durationTicks": 96,
            "midi": 45,
            "name": "A2",
            "ticks": 38208,
            "time": 37.3125,
            "velocity": 0.3700787401574803
          },
          {
            "duration": 0.09375,
            "durationTicks": 96,
            "midi": 47,
            "name": "B2",
            "ticks": 38400,
            "time": 37.5,
            "velocity": 0.3700787401574803
          },
          {
            "duration": 0.09375,
            "durationTicks": 96,
            "midi": 50,
            "name": "D3",
            "ticks": 38400,
            "time": 37.5,
            "velocity": 0.3700787401574803
          },
          {
            "duration": 0.09375,
            "durationTicks": 96,
            "midi": 43,
            "name": "G2",
            "ticks": 38400,
            "time": 37.5,
            "velocity": 0.3700787401574803
          },
          {
            "duration": 0.09375,
            "durationTicks": 96,
            "midi": 43,
            "name": "G2",
            "ticks": 38592,
            "time": 37.6875,
            "velocity": 0.3700787401574803
          },
          {
            "duration": 0.09375,
            "durationTicks": 96,
            "midi": 47,
            "name": "B2",
            "ticks": 38592,
            "time": 37.6875,
            "velocity": 0.3700787401574803
          },
          {
            "duration": 0.09375,
            "durationTicks": 96,
            "midi": 50,
            "name": "D3",
            "ticks": 38592,
            "time": 37.6875,
            "velocity": 0.3700787401574803
          },
          {
            "duration": 0.09375,
            "durationTicks": 96,
            "midi": 47,
            "name": "B2",
            "ticks": 38784,
            "time": 37.875,
            "velocity": 0.3700787401574803
          },
          {
            "duration": 0.09375,
            "durationTicks": 96,
            "midi": 50,
            "name": "D3",
            "ticks": 38784,
            "time": 37.875,
            "velocity": 0.3700787401574803
          },
          {
            "duration": 0.09375,
            "durationTicks": 96,
            "midi": 43,
            "name": "G2",
            "ticks": 38784,
            "time": 37.875,
            "velocity": 0.3700787401574803
          },
          {
            "duration": 0.09375,
            "durationTicks": 96,
            "midi": 50,
            "name": "D3",
            "ticks": 38976,
            "time": 38.0625,
            "velocity": 0.3700787401574803
          },
          {
            "duration": 0.09375,
            "durationTicks": 96,
            "midi": 43,
            "name": "G2",
            "ticks": 38976,
            "time": 38.0625,
            "velocity": 0.3700787401574803
          },
          {
            "duration": 0.09375,
            "durationTicks": 96,
            "midi": 47,
            "name": "B2",
            "ticks": 38976,
            "time": 38.0625,
            "velocity": 0.3700787401574803
          },
          {
            "duration": 0.09375,
            "durationTicks": 96,
            "midi": 47,
            "name": "B2",
            "ticks": 39168,
            "time": 38.25,
            "velocity": 0.3700787401574803
          },
          {
            "duration": 0.09375,
            "durationTicks": 96,
            "midi": 50,
            "name": "D3",
            "ticks": 39168,
            "time": 38.25,
            "velocity": 0.3700787401574803
          },
          {
            "duration": 0.09375,
            "durationTicks": 96,
            "midi": 43,
            "name": "G2",
            "ticks": 39168,
            "time": 38.25,
            "velocity": 0.3700787401574803
          },
          {
            "duration": 0.09375,
            "durationTicks": 96,
            "midi": 43,
            "name": "G2",
            "ticks": 39360,
            "time": 38.4375,
            "velocity": 0.3700787401574803
          },
          {
            "duration": 0.09375,
            "durationTicks": 96,
            "midi": 47,
            "name": "B2",
            "ticks": 39360,
            "time": 38.4375,
            "velocity": 0.3700787401574803
          },
          {
            "duration": 0.09375,
            "durationTicks": 96,
            "midi": 50,
            "name": "D3",
            "ticks": 39360,
            "time": 38.4375,
            "velocity": 0.3700787401574803
          },
          {
            "duration": 0.09375,
            "durationTicks": 96,
            "midi": 43,
            "name": "G2",
            "ticks": 39552,
            "time": 38.625,
            "velocity": 0.3700787401574803
          },
          {
            "duration": 0.09375,
            "durationTicks": 96,
            "midi": 47,
            "name": "B2",
            "ticks": 39552,
            "time": 38.625,
            "velocity": 0.3700787401574803
          },
          {
            "duration": 0.09375,
            "durationTicks": 96,
            "midi": 50,
            "name": "D3",
            "ticks": 39552,
            "time": 38.625,
            "velocity": 0.3700787401574803
          },
          {
            "duration": 0.09375,
            "durationTicks": 96,
            "midi": 50,
            "name": "D3",
            "ticks": 39744,
            "time": 38.8125,
            "velocity": 0.3700787401574803
          },
          {
            "duration": 0.09375,
            "durationTicks": 96,
            "midi": 47,
            "name": "B2",
            "ticks": 39744,
            "time": 38.8125,
            "velocity": 0.3700787401574803
          },
          {
            "duration": 0.09375,
            "durationTicks": 96,
            "midi": 43,
            "name": "G2",
            "ticks": 39744,
            "time": 38.8125,
            "velocity": 0.3700787401574803
          },
          {
            "duration": 0.09375,
            "durationTicks": 96,
            "midi": 50,
            "name": "D3",
            "ticks": 39936,
            "time": 39,
            "velocity": 0.3700787401574803
          },
          {
            "duration": 0.09375,
            "durationTicks": 96,
            "midi": 43,
            "name": "G2",
            "ticks": 39936,
            "time": 39,
            "velocity": 0.3700787401574803
          },
          {
            "duration": 0.09375,
            "durationTicks": 96,
            "midi": 47,
            "name": "B2",
            "ticks": 39936,
            "time": 39,
            "velocity": 0.3700787401574803
          },
          {
            "duration": 0.09375,
            "durationTicks": 96,
            "midi": 43,
            "name": "G2",
            "ticks": 40128,
            "time": 39.1875,
            "velocity": 0.3700787401574803
          },
          {
            "duration": 0.09375,
            "durationTicks": 96,
            "midi": 47,
            "name": "B2",
            "ticks": 40128,
            "time": 39.1875,
            "velocity": 0.3700787401574803
          },
          {
            "duration": 0.09375,
            "durationTicks": 96,
            "midi": 50,
            "name": "D3",
            "ticks": 40128,
            "time": 39.1875,
            "velocity": 0.3700787401574803
          },
          {
            "duration": 0.09375,
            "durationTicks": 96,
            "midi": 43,
            "name": "G2",
            "ticks": 40320,
            "time": 39.375,
            "velocity": 0.3700787401574803
          },
          {
            "duration": 0.09375,
            "durationTicks": 96,
            "midi": 47,
            "name": "B2",
            "ticks": 40320,
            "time": 39.375,
            "velocity": 0.3700787401574803
          },
          {
            "duration": 0.09375,
            "durationTicks": 96,
            "midi": 50,
            "name": "D3",
            "ticks": 40320,
            "time": 39.375,
            "velocity": 0.3700787401574803
          },
          {
            "duration": 0.09375,
            "durationTicks": 96,
            "midi": 50,
            "name": "D3",
            "ticks": 40512,
            "time": 39.5625,
            "velocity": 0.3700787401574803
          },
          {
            "duration": 0.09375,
            "durationTicks": 96,
            "midi": 47,
            "name": "B2",
            "ticks": 40512,
            "time": 39.5625,
            "velocity": 0.3700787401574803
          },
          {
            "duration": 0.09375,
            "durationTicks": 96,
            "midi": 43,
            "name": "G2",
            "ticks": 40512,
            "time": 39.5625,
            "velocity": 0.3700787401574803
          },
          {
            "duration": 0.09375,
            "durationTicks": 96,
            "midi": 47,
            "name": "B2",
            "ticks": 40704,
            "time": 39.75,
            "velocity": 0.3700787401574803
          },
          {
            "duration": 0.09375,
            "durationTicks": 96,
            "midi": 50,
            "name": "D3",
            "ticks": 40704,
            "time": 39.75,
            "velocity": 0.3700787401574803
          },
          {
            "duration": 0.09375,
            "durationTicks": 96,
            "midi": 43,
            "name": "G2",
            "ticks": 40704,
            "time": 39.75,
            "velocity": 0.3700787401574803
          },
          {
            "duration": 0.09375,
            "durationTicks": 96,
            "midi": 50,
            "name": "D3",
            "ticks": 40896,
            "time": 39.9375,
            "velocity": 0.3700787401574803
          },
          {
            "duration": 0.09375,
            "durationTicks": 96,
            "midi": 47,
            "name": "B2",
            "ticks": 40896,
            "time": 39.9375,
            "velocity": 0.3700787401574803
          },
          {
            "duration": 0.09375,
            "durationTicks": 96,
            "midi": 43,
            "name": "G2",
            "ticks": 40896,
            "time": 39.9375,
            "velocity": 0.3700787401574803
          },
          {
            "duration": 0.09375,
            "durationTicks": 96,
            "midi": 43,
            "name": "G2",
            "ticks": 41088,
            "time": 40.125,
            "velocity": 0.3700787401574803
          },
          {
            "duration": 0.09375,
            "durationTicks": 96,
            "midi": 47,
            "name": "B2",
            "ticks": 41088,
            "time": 40.125,
            "velocity": 0.3700787401574803
          },
          {
            "duration": 0.09375,
            "durationTicks": 96,
            "midi": 50,
            "name": "D3",
            "ticks": 41088,
            "time": 40.125,
            "velocity": 0.3700787401574803
          },
          {
            "duration": 0.09375,
            "durationTicks": 96,
            "midi": 47,
            "name": "B2",
            "ticks": 41280,
            "time": 40.3125,
            "velocity": 0.3700787401574803
          },
          {
            "duration": 0.09375,
            "durationTicks": 96,
            "midi": 50,
            "name": "D3",
            "ticks": 41280,
            "time": 40.3125,
            "velocity": 0.3700787401574803
          },
          {
            "duration": 0.09375,
            "durationTicks": 96,
            "midi": 43,
            "name": "G2",
            "ticks": 41280,
            "time": 40.3125,
            "velocity": 0.3700787401574803
          },
          {
            "duration": 0.09375,
            "durationTicks": 96,
            "midi": 43,
            "name": "G2",
            "ticks": 41472,
            "time": 40.5,
            "velocity": 0.3700787401574803
          },
          {
            "duration": 0.09375,
            "durationTicks": 96,
            "midi": 52,
            "name": "E3",
            "ticks": 41472,
            "time": 40.5,
            "velocity": 0.3700787401574803
          },
          {
            "duration": 0.09375,
            "durationTicks": 96,
            "midi": 48,
            "name": "C3",
            "ticks": 41472,
            "time": 40.5,
            "velocity": 0.3700787401574803
          },
          {
            "duration": 0.09375,
            "durationTicks": 96,
            "midi": 52,
            "name": "E3",
            "ticks": 41664,
            "time": 40.6875,
            "velocity": 0.3700787401574803
          },
          {
            "duration": 0.09375,
            "durationTicks": 96,
            "midi": 48,
            "name": "C3",
            "ticks": 41664,
            "time": 40.6875,
            "velocity": 0.3700787401574803
          },
          {
            "duration": 0.09375,
            "durationTicks": 96,
            "midi": 43,
            "name": "G2",
            "ticks": 41664,
            "time": 40.6875,
            "velocity": 0.3700787401574803
          },
          {
            "duration": 0.09375,
            "durationTicks": 96,
            "midi": 43,
            "name": "G2",
            "ticks": 41856,
            "time": 40.875,
            "velocity": 0.3700787401574803
          },
          {
            "duration": 0.09375,
            "durationTicks": 96,
            "midi": 48,
            "name": "C3",
            "ticks": 41856,
            "time": 40.875,
            "velocity": 0.3700787401574803
          },
          {
            "duration": 0.09375,
            "durationTicks": 96,
            "midi": 52,
            "name": "E3",
            "ticks": 41856,
            "time": 40.875,
            "velocity": 0.3700787401574803
          },
          {
            "duration": 0.09375,
            "durationTicks": 96,
            "midi": 48,
            "name": "C3",
            "ticks": 42048,
            "time": 41.0625,
            "velocity": 0.3700787401574803
          },
          {
            "duration": 0.09375,
            "durationTicks": 96,
            "midi": 52,
            "name": "E3",
            "ticks": 42048,
            "time": 41.0625,
            "velocity": 0.3700787401574803
          },
          {
            "duration": 0.09375,
            "durationTicks": 96,
            "midi": 43,
            "name": "G2",
            "ticks": 42048,
            "time": 41.0625,
            "velocity": 0.3700787401574803
          },
          {
            "duration": 0.09375,
            "durationTicks": 96,
            "midi": 48,
            "name": "C3",
            "ticks": 42240,
            "time": 41.25,
            "velocity": 0.3700787401574803
          },
          {
            "duration": 0.09375,
            "durationTicks": 96,
            "midi": 52,
            "name": "E3",
            "ticks": 42240,
            "time": 41.25,
            "velocity": 0.3700787401574803
          },
          {
            "duration": 0.09375,
            "durationTicks": 96,
            "midi": 43,
            "name": "G2",
            "ticks": 42240,
            "time": 41.25,
            "velocity": 0.3700787401574803
          },
          {
            "duration": 0.09375,
            "durationTicks": 96,
            "midi": 48,
            "name": "C3",
            "ticks": 42432,
            "time": 41.4375,
            "velocity": 0.3700787401574803
          },
          {
            "duration": 0.09375,
            "durationTicks": 96,
            "midi": 52,
            "name": "E3",
            "ticks": 42432,
            "time": 41.4375,
            "velocity": 0.3700787401574803
          },
          {
            "duration": 0.09375,
            "durationTicks": 96,
            "midi": 43,
            "name": "G2",
            "ticks": 42432,
            "time": 41.4375,
            "velocity": 0.3700787401574803
          },
          {
            "duration": 0.09375,
            "durationTicks": 96,
            "midi": 43,
            "name": "G2",
            "ticks": 42624,
            "time": 41.625,
            "velocity": 0.3700787401574803
          },
          {
            "duration": 0.09375,
            "durationTicks": 96,
            "midi": 48,
            "name": "C3",
            "ticks": 42624,
            "time": 41.625,
            "velocity": 0.3700787401574803
          },
          {
            "duration": 0.09375,
            "durationTicks": 96,
            "midi": 52,
            "name": "E3",
            "ticks": 42624,
            "time": 41.625,
            "velocity": 0.3700787401574803
          },
          {
            "duration": 0.09375,
            "durationTicks": 96,
            "midi": 52,
            "name": "E3",
            "ticks": 42816,
            "time": 41.8125,
            "velocity": 0.3700787401574803
          },
          {
            "duration": 0.09375,
            "durationTicks": 96,
            "midi": 48,
            "name": "C3",
            "ticks": 42816,
            "time": 41.8125,
            "velocity": 0.3700787401574803
          },
          {
            "duration": 0.09375,
            "durationTicks": 96,
            "midi": 43,
            "name": "G2",
            "ticks": 42816,
            "time": 41.8125,
            "velocity": 0.3700787401574803
          },
          {
            "duration": 0.09375,
            "durationTicks": 96,
            "midi": 50,
            "name": "D3",
            "ticks": 43008,
            "time": 42,
            "velocity": 0.3700787401574803
          },
          {
            "duration": 0.09375,
            "durationTicks": 96,
            "midi": 47,
            "name": "B2",
            "ticks": 43008,
            "time": 42,
            "velocity": 0.3700787401574803
          },
          {
            "duration": 0.09375,
            "durationTicks": 96,
            "midi": 43,
            "name": "G2",
            "ticks": 43008,
            "time": 42,
            "velocity": 0.3700787401574803
          },
          {
            "duration": 0.09375,
            "durationTicks": 96,
            "midi": 50,
            "name": "D3",
            "ticks": 43200,
            "time": 42.1875,
            "velocity": 0.3700787401574803
          },
          {
            "duration": 0.09375,
            "durationTicks": 96,
            "midi": 47,
            "name": "B2",
            "ticks": 43200,
            "time": 42.1875,
            "velocity": 0.3700787401574803
          },
          {
            "duration": 0.09375,
            "durationTicks": 96,
            "midi": 43,
            "name": "G2",
            "ticks": 43200,
            "time": 42.1875,
            "velocity": 0.3700787401574803
          },
          {
            "duration": 0.09375,
            "durationTicks": 96,
            "midi": 43,
            "name": "G2",
            "ticks": 43392,
            "time": 42.375,
            "velocity": 0.3700787401574803
          },
          {
            "duration": 0.09375,
            "durationTicks": 96,
            "midi": 47,
            "name": "B2",
            "ticks": 43392,
            "time": 42.375,
            "velocity": 0.3700787401574803
          },
          {
            "duration": 0.09375,
            "durationTicks": 96,
            "midi": 50,
            "name": "D3",
            "ticks": 43392,
            "time": 42.375,
            "velocity": 0.3700787401574803
          },
          {
            "duration": 0.09375,
            "durationTicks": 96,
            "midi": 50,
            "name": "D3",
            "ticks": 43584,
            "time": 42.5625,
            "velocity": 0.3700787401574803
          },
          {
            "duration": 0.09375,
            "durationTicks": 96,
            "midi": 47,
            "name": "B2",
            "ticks": 43584,
            "time": 42.5625,
            "velocity": 0.3700787401574803
          },
          {
            "duration": 0.09375,
            "durationTicks": 96,
            "midi": 43,
            "name": "G2",
            "ticks": 43584,
            "time": 42.5625,
            "velocity": 0.3700787401574803
          },
          {
            "duration": 0.09375,
            "durationTicks": 96,
            "midi": 50,
            "name": "D3",
            "ticks": 43776,
            "time": 42.75,
            "velocity": 0.3700787401574803
          },
          {
            "duration": 0.09375,
            "durationTicks": 96,
            "midi": 43,
            "name": "G2",
            "ticks": 43776,
            "time": 42.75,
            "velocity": 0.3700787401574803
          },
          {
            "duration": 0.09375,
            "durationTicks": 96,
            "midi": 47,
            "name": "B2",
            "ticks": 43776,
            "time": 42.75,
            "velocity": 0.3700787401574803
          },
          {
            "duration": 0.09375,
            "durationTicks": 96,
            "midi": 47,
            "name": "B2",
            "ticks": 43968,
            "time": 42.9375,
            "velocity": 0.3700787401574803
          },
          {
            "duration": 0.09375,
            "durationTicks": 96,
            "midi": 50,
            "name": "D3",
            "ticks": 43968,
            "time": 42.9375,
            "velocity": 0.3700787401574803
          },
          {
            "duration": 0.09375,
            "durationTicks": 96,
            "midi": 43,
            "name": "G2",
            "ticks": 43968,
            "time": 42.9375,
            "velocity": 0.3700787401574803
          },
          {
            "duration": 0.09375,
            "durationTicks": 96,
            "midi": 43,
            "name": "G2",
            "ticks": 44160,
            "time": 43.125,
            "velocity": 0.3700787401574803
          },
          {
            "duration": 0.09375,
            "durationTicks": 96,
            "midi": 47,
            "name": "B2",
            "ticks": 44160,
            "time": 43.125,
            "velocity": 0.3700787401574803
          },
          {
            "duration": 0.09375,
            "durationTicks": 96,
            "midi": 50,
            "name": "D3",
            "ticks": 44160,
            "time": 43.125,
            "velocity": 0.3700787401574803
          },
          {
            "duration": 0.09375,
            "durationTicks": 96,
            "midi": 43,
            "name": "G2",
            "ticks": 44352,
            "time": 43.3125,
            "velocity": 0.3700787401574803
          },
          {
            "duration": 0.09375,
            "durationTicks": 96,
            "midi": 47,
            "name": "B2",
            "ticks": 44352,
            "time": 43.3125,
            "velocity": 0.3700787401574803
          },
          {
            "duration": 0.09375,
            "durationTicks": 96,
            "midi": 50,
            "name": "D3",
            "ticks": 44352,
            "time": 43.3125,
            "velocity": 0.3700787401574803
          },
          {
            "duration": 0.09375,
            "durationTicks": 96,
            "midi": 45,
            "name": "A2",
            "ticks": 44544,
            "time": 43.5,
            "velocity": 0.3700787401574803
          },
          {
            "duration": 0.09375,
            "durationTicks": 96,
            "midi": 50,
            "name": "D3",
            "ticks": 44544,
            "time": 43.5,
            "velocity": 0.3700787401574803
          },
          {
            "duration": 0.09375,
            "durationTicks": 96,
            "midi": 42,
            "name": "F#2",
            "ticks": 44544,
            "time": 43.5,
            "velocity": 0.3700787401574803
          },
          {
            "duration": 0.09375,
            "durationTicks": 96,
            "midi": 50,
            "name": "D3",
            "ticks": 44736,
            "time": 43.6875,
            "velocity": 0.3700787401574803
          },
          {
            "duration": 0.09375,
            "durationTicks": 96,
            "midi": 45,
            "name": "A2",
            "ticks": 44736,
            "time": 43.6875,
            "velocity": 0.3700787401574803
          },
          {
            "duration": 0.09375,
            "durationTicks": 96,
            "midi": 42,
            "name": "F#2",
            "ticks": 44736,
            "time": 43.6875,
            "velocity": 0.3700787401574803
          },
          {
            "duration": 0.09375,
            "durationTicks": 96,
            "midi": 42,
            "name": "F#2",
            "ticks": 44928,
            "time": 43.875,
            "velocity": 0.3700787401574803
          },
          {
            "duration": 0.09375,
            "durationTicks": 96,
            "midi": 45,
            "name": "A2",
            "ticks": 44928,
            "time": 43.875,
            "velocity": 0.3700787401574803
          },
          {
            "duration": 0.09375,
            "durationTicks": 96,
            "midi": 50,
            "name": "D3",
            "ticks": 44928,
            "time": 43.875,
            "velocity": 0.3700787401574803
          },
          {
            "duration": 0.09375,
            "durationTicks": 96,
            "midi": 50,
            "name": "D3",
            "ticks": 45120,
            "time": 44.0625,
            "velocity": 0.3700787401574803
          },
          {
            "duration": 0.09375,
            "durationTicks": 96,
            "midi": 45,
            "name": "A2",
            "ticks": 45120,
            "time": 44.0625,
            "velocity": 0.3700787401574803
          },
          {
            "duration": 0.09375,
            "durationTicks": 96,
            "midi": 42,
            "name": "F#2",
            "ticks": 45120,
            "time": 44.0625,
            "velocity": 0.3700787401574803
          },
          {
            "duration": 0.09375,
            "durationTicks": 96,
            "midi": 50,
            "name": "D3",
            "ticks": 45312,
            "time": 44.25,
            "velocity": 0.3700787401574803
          },
          {
            "duration": 0.09375,
            "durationTicks": 96,
            "midi": 42,
            "name": "F#2",
            "ticks": 45312,
            "time": 44.25,
            "velocity": 0.3700787401574803
          },
          {
            "duration": 0.09375,
            "durationTicks": 96,
            "midi": 45,
            "name": "A2",
            "ticks": 45312,
            "time": 44.25,
            "velocity": 0.3700787401574803
          },
          {
            "duration": 0.09375,
            "durationTicks": 96,
            "midi": 45,
            "name": "A2",
            "ticks": 45504,
            "time": 44.4375,
            "velocity": 0.3700787401574803
          },
          {
            "duration": 0.09375,
            "durationTicks": 96,
            "midi": 50,
            "name": "D3",
            "ticks": 45504,
            "time": 44.4375,
            "velocity": 0.3700787401574803
          },
          {
            "duration": 0.09375,
            "durationTicks": 96,
            "midi": 42,
            "name": "F#2",
            "ticks": 45504,
            "time": 44.4375,
            "velocity": 0.3700787401574803
          },
          {
            "duration": 0.09375,
            "durationTicks": 96,
            "midi": 42,
            "name": "F#2",
            "ticks": 45696,
            "time": 44.625,
            "velocity": 0.3700787401574803
          },
          {
            "duration": 0.09375,
            "durationTicks": 96,
            "midi": 45,
            "name": "A2",
            "ticks": 45696,
            "time": 44.625,
            "velocity": 0.3700787401574803
          },
          {
            "duration": 0.09375,
            "durationTicks": 96,
            "midi": 50,
            "name": "D3",
            "ticks": 45696,
            "time": 44.625,
            "velocity": 0.3700787401574803
          },
          {
            "duration": 0.09375,
            "durationTicks": 96,
            "midi": 42,
            "name": "F#2",
            "ticks": 45888,
            "time": 44.8125,
            "velocity": 0.3700787401574803
          },
          {
            "duration": 0.09375,
            "durationTicks": 96,
            "midi": 45,
            "name": "A2",
            "ticks": 45888,
            "time": 44.8125,
            "velocity": 0.3700787401574803
          },
          {
            "duration": 0.09375,
            "durationTicks": 96,
            "midi": 50,
            "name": "D3",
            "ticks": 45888,
            "time": 44.8125,
            "velocity": 0.3700787401574803
          },
          {
            "duration": 0.09375,
            "durationTicks": 96,
            "midi": 47,
            "name": "B2",
            "ticks": 46080,
            "time": 45,
            "velocity": 0.3700787401574803
          },
          {
            "duration": 0.09375,
            "durationTicks": 96,
            "midi": 43,
            "name": "G2",
            "ticks": 46080,
            "time": 45,
            "velocity": 0.3700787401574803
          },
          {
            "duration": 0.09375,
            "durationTicks": 96,
            "midi": 50,
            "name": "D3",
            "ticks": 46080,
            "time": 45,
            "velocity": 0.3700787401574803
          },
          {
            "duration": 0.09375,
            "durationTicks": 96,
            "midi": 43,
            "name": "G2",
            "ticks": 46272,
            "time": 45.1875,
            "velocity": 0.3700787401574803
          },
          {
            "duration": 0.09375,
            "durationTicks": 96,
            "midi": 47,
            "name": "B2",
            "ticks": 46272,
            "time": 45.1875,
            "velocity": 0.3700787401574803
          },
          {
            "duration": 0.09375,
            "durationTicks": 96,
            "midi": 50,
            "name": "D3",
            "ticks": 46272,
            "time": 45.1875,
            "velocity": 0.3700787401574803
          },
          {
            "duration": 0.09375,
            "durationTicks": 96,
            "midi": 43,
            "name": "G2",
            "ticks": 46464,
            "time": 45.375,
            "velocity": 0.3700787401574803
          },
          {
            "duration": 0.09375,
            "durationTicks": 96,
            "midi": 47,
            "name": "B2",
            "ticks": 46464,
            "time": 45.375,
            "velocity": 0.3700787401574803
          },
          {
            "duration": 0.09375,
            "durationTicks": 96,
            "midi": 50,
            "name": "D3",
            "ticks": 46464,
            "time": 45.375,
            "velocity": 0.3700787401574803
          },
          {
            "duration": 0.09375,
            "durationTicks": 96,
            "midi": 50,
            "name": "D3",
            "ticks": 46656,
            "time": 45.5625,
            "velocity": 0.3700787401574803
          },
          {
            "duration": 0.09375,
            "durationTicks": 96,
            "midi": 47,
            "name": "B2",
            "ticks": 46656,
            "time": 45.5625,
            "velocity": 0.3700787401574803
          },
          {
            "duration": 0.09375,
            "durationTicks": 96,
            "midi": 43,
            "name": "G2",
            "ticks": 46656,
            "time": 45.5625,
            "velocity": 0.3700787401574803
          },
          {
            "duration": 0.09375,
            "durationTicks": 96,
            "midi": 43,
            "name": "G2",
            "ticks": 46848,
            "time": 45.75,
            "velocity": 0.3700787401574803
          },
          {
            "duration": 0.09375,
            "durationTicks": 96,
            "midi": 47,
            "name": "B2",
            "ticks": 46848,
            "time": 45.75,
            "velocity": 0.3700787401574803
          },
          {
            "duration": 0.09375,
            "durationTicks": 96,
            "midi": 50,
            "name": "D3",
            "ticks": 46848,
            "time": 45.75,
            "velocity": 0.3700787401574803
          },
          {
            "duration": 0.09375,
            "durationTicks": 96,
            "midi": 43,
            "name": "G2",
            "ticks": 47040,
            "time": 45.9375,
            "velocity": 0.3700787401574803
          },
          {
            "duration": 0.09375,
            "durationTicks": 96,
            "midi": 50,
            "name": "D3",
            "ticks": 47040,
            "time": 45.9375,
            "velocity": 0.3700787401574803
          },
          {
            "duration": 0.09375,
            "durationTicks": 96,
            "midi": 47,
            "name": "B2",
            "ticks": 47040,
            "time": 45.9375,
            "velocity": 0.3700787401574803
          },
          {
            "duration": 0.09375,
            "durationTicks": 96,
            "midi": 43,
            "name": "G2",
            "ticks": 47232,
            "time": 46.125,
            "velocity": 0.3700787401574803
          },
          {
            "duration": 0.09375,
            "durationTicks": 96,
            "midi": 47,
            "name": "B2",
            "ticks": 47232,
            "time": 46.125,
            "velocity": 0.3700787401574803
          },
          {
            "duration": 0.09375,
            "durationTicks": 96,
            "midi": 50,
            "name": "D3",
            "ticks": 47232,
            "time": 46.125,
            "velocity": 0.3700787401574803
          },
          {
            "duration": 0.09375,
            "durationTicks": 96,
            "midi": 47,
            "name": "B2",
            "ticks": 47424,
            "time": 46.3125,
            "velocity": 0.3700787401574803
          },
          {
            "duration": 0.09375,
            "durationTicks": 96,
            "midi": 50,
            "name": "D3",
            "ticks": 47424,
            "time": 46.3125,
            "velocity": 0.3700787401574803
          },
          {
            "duration": 0.09375,
            "durationTicks": 96,
            "midi": 43,
            "name": "G2",
            "ticks": 47424,
            "time": 46.3125,
            "velocity": 0.3700787401574803
          },
          {
            "duration": 0.09375,
            "durationTicks": 96,
            "midi": 52,
            "name": "E3",
            "ticks": 47616,
            "time": 46.5,
            "velocity": 0.3700787401574803
          },
          {
            "duration": 0.09375,
            "durationTicks": 96,
            "midi": 43,
            "name": "G2",
            "ticks": 47616,
            "time": 46.5,
            "velocity": 0.3700787401574803
          },
          {
            "duration": 0.09375,
            "durationTicks": 96,
            "midi": 48,
            "name": "C3",
            "ticks": 47616,
            "time": 46.5,
            "velocity": 0.3700787401574803
          },
          {
            "duration": 0.09375,
            "durationTicks": 96,
            "midi": 48,
            "name": "C3",
            "ticks": 47808,
            "time": 46.6875,
            "velocity": 0.3700787401574803
          },
          {
            "duration": 0.09375,
            "durationTicks": 96,
            "midi": 52,
            "name": "E3",
            "ticks": 47808,
            "time": 46.6875,
            "velocity": 0.3700787401574803
          },
          {
            "duration": 0.09375,
            "durationTicks": 96,
            "midi": 43,
            "name": "G2",
            "ticks": 47808,
            "time": 46.6875,
            "velocity": 0.3700787401574803
          },
          {
            "duration": 0.09375,
            "durationTicks": 96,
            "midi": 43,
            "name": "G2",
            "ticks": 48000,
            "time": 46.875,
            "velocity": 0.3700787401574803
          },
          {
            "duration": 0.09375,
            "durationTicks": 96,
            "midi": 48,
            "name": "C3",
            "ticks": 48000,
            "time": 46.875,
            "velocity": 0.3700787401574803
          },
          {
            "duration": 0.09375,
            "durationTicks": 96,
            "midi": 52,
            "name": "E3",
            "ticks": 48000,
            "time": 46.875,
            "velocity": 0.3700787401574803
          },
          {
            "duration": 0.09375,
            "durationTicks": 96,
            "midi": 48,
            "name": "C3",
            "ticks": 48192,
            "time": 47.0625,
            "velocity": 0.3700787401574803
          },
          {
            "duration": 0.09375,
            "durationTicks": 96,
            "midi": 52,
            "name": "E3",
            "ticks": 48192,
            "time": 47.0625,
            "velocity": 0.3700787401574803
          },
          {
            "duration": 0.09375,
            "durationTicks": 96,
            "midi": 43,
            "name": "G2",
            "ticks": 48192,
            "time": 47.0625,
            "velocity": 0.3700787401574803
          },
          {
            "duration": 0.09375,
            "durationTicks": 96,
            "midi": 52,
            "name": "E3",
            "ticks": 48384,
            "time": 47.25,
            "velocity": 0.3700787401574803
          },
          {
            "duration": 0.09375,
            "durationTicks": 96,
            "midi": 43,
            "name": "G2",
            "ticks": 48384,
            "time": 47.25,
            "velocity": 0.3700787401574803
          },
          {
            "duration": 0.09375,
            "durationTicks": 96,
            "midi": 48,
            "name": "C3",
            "ticks": 48384,
            "time": 47.25,
            "velocity": 0.3700787401574803
          },
          {
            "duration": 0.09375,
            "durationTicks": 96,
            "midi": 48,
            "name": "C3",
            "ticks": 48576,
            "time": 47.4375,
            "velocity": 0.3700787401574803
          },
          {
            "duration": 0.09375,
            "durationTicks": 96,
            "midi": 52,
            "name": "E3",
            "ticks": 48576,
            "time": 47.4375,
            "velocity": 0.3700787401574803
          },
          {
            "duration": 0.09375,
            "durationTicks": 96,
            "midi": 43,
            "name": "G2",
            "ticks": 48576,
            "time": 47.4375,
            "velocity": 0.3700787401574803
          },
          {
            "duration": 0.09375,
            "durationTicks": 96,
            "midi": 43,
            "name": "G2",
            "ticks": 48768,
            "time": 47.625,
            "velocity": 0.3700787401574803
          },
          {
            "duration": 0.09375,
            "durationTicks": 96,
            "midi": 48,
            "name": "C3",
            "ticks": 48768,
            "time": 47.625,
            "velocity": 0.3700787401574803
          },
          {
            "duration": 0.09375,
            "durationTicks": 96,
            "midi": 52,
            "name": "E3",
            "ticks": 48768,
            "time": 47.625,
            "velocity": 0.3700787401574803
          },
          {
            "duration": 0.09375,
            "durationTicks": 96,
            "midi": 52,
            "name": "E3",
            "ticks": 48960,
            "time": 47.8125,
            "velocity": 0.3700787401574803
          },
          {
            "duration": 0.09375,
            "durationTicks": 96,
            "midi": 48,
            "name": "C3",
            "ticks": 48960,
            "time": 47.8125,
            "velocity": 0.3700787401574803
          },
          {
            "duration": 0.09375,
            "durationTicks": 96,
            "midi": 43,
            "name": "G2",
            "ticks": 48960,
            "time": 47.8125,
            "velocity": 0.3700787401574803
          },
          {
            "duration": 0.09375,
            "durationTicks": 96,
            "midi": 47,
            "name": "B2",
            "ticks": 49152,
            "time": 48,
            "velocity": 0.3700787401574803
          },
          {
            "duration": 0.09375,
            "durationTicks": 96,
            "midi": 50,
            "name": "D3",
            "ticks": 49152,
            "time": 48,
            "velocity": 0.3700787401574803
          },
          {
            "duration": 0.09375,
            "durationTicks": 96,
            "midi": 43,
            "name": "G2",
            "ticks": 49152,
            "time": 48,
            "velocity": 0.3700787401574803
          },
          {
            "duration": 0.09375,
            "durationTicks": 96,
            "midi": 50,
            "name": "D3",
            "ticks": 49344,
            "time": 48.1875,
            "velocity": 0.3700787401574803
          },
          {
            "duration": 0.09375,
            "durationTicks": 96,
            "midi": 47,
            "name": "B2",
            "ticks": 49344,
            "time": 48.1875,
            "velocity": 0.3700787401574803
          },
          {
            "duration": 0.09375,
            "durationTicks": 96,
            "midi": 43,
            "name": "G2",
            "ticks": 49344,
            "time": 48.1875,
            "velocity": 0.3700787401574803
          },
          {
            "duration": 0.09375,
            "durationTicks": 96,
            "midi": 43,
            "name": "G2",
            "ticks": 49536,
            "time": 48.375,
            "velocity": 0.3700787401574803
          },
          {
            "duration": 0.09375,
            "durationTicks": 96,
            "midi": 47,
            "name": "B2",
            "ticks": 49536,
            "time": 48.375,
            "velocity": 0.3700787401574803
          },
          {
            "duration": 0.09375,
            "durationTicks": 96,
            "midi": 50,
            "name": "D3",
            "ticks": 49536,
            "time": 48.375,
            "velocity": 0.3700787401574803
          },
          {
            "duration": 0.09375,
            "durationTicks": 96,
            "midi": 47,
            "name": "B2",
            "ticks": 49728,
            "time": 48.5625,
            "velocity": 0.3700787401574803
          },
          {
            "duration": 0.09375,
            "durationTicks": 96,
            "midi": 50,
            "name": "D3",
            "ticks": 49728,
            "time": 48.5625,
            "velocity": 0.3700787401574803
          },
          {
            "duration": 0.09375,
            "durationTicks": 96,
            "midi": 43,
            "name": "G2",
            "ticks": 49728,
            "time": 48.5625,
            "velocity": 0.3700787401574803
          },
          {
            "duration": 0.09375,
            "durationTicks": 96,
            "midi": 50,
            "name": "D3",
            "ticks": 49920,
            "time": 48.75,
            "velocity": 0.3700787401574803
          },
          {
            "duration": 0.09375,
            "durationTicks": 96,
            "midi": 42,
            "name": "F#2",
            "ticks": 49920,
            "time": 48.75,
            "velocity": 0.3700787401574803
          },
          {
            "duration": 0.09375,
            "durationTicks": 96,
            "midi": 45,
            "name": "A2",
            "ticks": 49920,
            "time": 48.75,
            "velocity": 0.3700787401574803
          },
          {
            "duration": 0.09375,
            "durationTicks": 96,
            "midi": 45,
            "name": "A2",
            "ticks": 50112,
            "time": 48.9375,
            "velocity": 0.3700787401574803
          },
          {
            "duration": 0.09375,
            "durationTicks": 96,
            "midi": 50,
            "name": "D3",
            "ticks": 50112,
            "time": 48.9375,
            "velocity": 0.3700787401574803
          },
          {
            "duration": 0.09375,
            "durationTicks": 96,
            "midi": 42,
            "name": "F#2",
            "ticks": 50112,
            "time": 48.9375,
            "velocity": 0.3700787401574803
          },
          {
            "duration": 0.09375,
            "durationTicks": 96,
            "midi": 42,
            "name": "F#2",
            "ticks": 50304,
            "time": 49.125,
            "velocity": 0.3700787401574803
          },
          {
            "duration": 0.09375,
            "durationTicks": 96,
            "midi": 45,
            "name": "A2",
            "ticks": 50304,
            "time": 49.125,
            "velocity": 0.3700787401574803
          },
          {
            "duration": 0.09375,
            "durationTicks": 96,
            "midi": 50,
            "name": "D3",
            "ticks": 50304,
            "time": 49.125,
            "velocity": 0.3700787401574803
          },
          {
            "duration": 0.09375,
            "durationTicks": 96,
            "midi": 50,
            "name": "D3",
            "ticks": 50496,
            "time": 49.3125,
            "velocity": 0.3700787401574803
          },
          {
            "duration": 0.09375,
            "durationTicks": 96,
            "midi": 45,
            "name": "A2",
            "ticks": 50496,
            "time": 49.3125,
            "velocity": 0.3700787401574803
          },
          {
            "duration": 0.09375,
            "durationTicks": 96,
            "midi": 42,
            "name": "F#2",
            "ticks": 50496,
            "time": 49.3125,
            "velocity": 0.3700787401574803
          },
          {
            "duration": 0.09375,
            "durationTicks": 96,
            "midi": 47,
            "name": "B2",
            "ticks": 50688,
            "time": 49.5,
            "velocity": 0.3700787401574803
          },
          {
            "duration": 0.09375,
            "durationTicks": 96,
            "midi": 50,
            "name": "D3",
            "ticks": 50688,
            "time": 49.5,
            "velocity": 0.3700787401574803
          },
          {
            "duration": 0.09375,
            "durationTicks": 96,
            "midi": 43,
            "name": "G2",
            "ticks": 50688,
            "time": 49.5,
            "velocity": 0.3700787401574803
          },
          {
            "duration": 0.09375,
            "durationTicks": 96,
            "midi": 47,
            "name": "B2",
            "ticks": 50880,
            "time": 49.6875,
            "velocity": 0.3700787401574803
          },
          {
            "duration": 0.09375,
            "durationTicks": 96,
            "midi": 50,
            "name": "D3",
            "ticks": 50880,
            "time": 49.6875,
            "velocity": 0.3700787401574803
          },
          {
            "duration": 0.09375,
            "durationTicks": 96,
            "midi": 43,
            "name": "G2",
            "ticks": 50880,
            "time": 49.6875,
            "velocity": 0.3700787401574803
          },
          {
            "duration": 0.09375,
            "durationTicks": 96,
            "midi": 43,
            "name": "G2",
            "ticks": 51072,
            "time": 49.875,
            "velocity": 0.3700787401574803
          },
          {
            "duration": 0.09375,
            "durationTicks": 96,
            "midi": 47,
            "name": "B2",
            "ticks": 51072,
            "time": 49.875,
            "velocity": 0.3700787401574803
          },
          {
            "duration": 0.09375,
            "durationTicks": 96,
            "midi": 50,
            "name": "D3",
            "ticks": 51072,
            "time": 49.875,
            "velocity": 0.3700787401574803
          },
          {
            "duration": 0.09375,
            "durationTicks": 96,
            "midi": 47,
            "name": "B2",
            "ticks": 51264,
            "time": 50.0625,
            "velocity": 0.3700787401574803
          },
          {
            "duration": 0.09375,
            "durationTicks": 96,
            "midi": 50,
            "name": "D3",
            "ticks": 51264,
            "time": 50.0625,
            "velocity": 0.3700787401574803
          },
          {
            "duration": 0.09375,
            "durationTicks": 96,
            "midi": 43,
            "name": "G2",
            "ticks": 51264,
            "time": 50.0625,
            "velocity": 0.3700787401574803
          },
          {
            "duration": 0.09375,
            "durationTicks": 96,
            "midi": 47,
            "name": "B2",
            "ticks": 51456,
            "time": 50.25,
            "velocity": 0.3700787401574803
          },
          {
            "duration": 0.09375,
            "durationTicks": 96,
            "midi": 50,
            "name": "D3",
            "ticks": 51456,
            "time": 50.25,
            "velocity": 0.3700787401574803
          },
          {
            "duration": 0.09375,
            "durationTicks": 96,
            "midi": 43,
            "name": "G2",
            "ticks": 51456,
            "time": 50.25,
            "velocity": 0.3700787401574803
          },
          {
            "duration": 0.09375,
            "durationTicks": 96,
            "midi": 47,
            "name": "B2",
            "ticks": 51648,
            "time": 50.4375,
            "velocity": 0.3700787401574803
          },
          {
            "duration": 0.09375,
            "durationTicks": 96,
            "midi": 50,
            "name": "D3",
            "ticks": 51648,
            "time": 50.4375,
            "velocity": 0.3700787401574803
          },
          {
            "duration": 0.09375,
            "durationTicks": 96,
            "midi": 43,
            "name": "G2",
            "ticks": 51648,
            "time": 50.4375,
            "velocity": 0.3700787401574803
          },
          {
            "duration": 0.09375,
            "durationTicks": 96,
            "midi": 47,
            "name": "B2",
            "ticks": 51840,
            "time": 50.625,
            "velocity": 0.3700787401574803
          },
          {
            "duration": 0.09375,
            "durationTicks": 96,
            "midi": 50,
            "name": "D3",
            "ticks": 51840,
            "time": 50.625,
            "velocity": 0.3700787401574803
          },
          {
            "duration": 0.09375,
            "durationTicks": 96,
            "midi": 43,
            "name": "G2",
            "ticks": 51840,
            "time": 50.625,
            "velocity": 0.3700787401574803
          },
          {
            "duration": 0.09375,
            "durationTicks": 96,
            "midi": 43,
            "name": "G2",
            "ticks": 52032,
            "time": 50.8125,
            "velocity": 0.3700787401574803
          },
          {
            "duration": 0.09375,
            "durationTicks": 96,
            "midi": 47,
            "name": "B2",
            "ticks": 52032,
            "time": 50.8125,
            "velocity": 0.3700787401574803
          },
          {
            "duration": 0.09375,
            "durationTicks": 96,
            "midi": 50,
            "name": "D3",
            "ticks": 52032,
            "time": 50.8125,
            "velocity": 0.3700787401574803
          }
        ],
        "endOfTrackTicks": 52128
      },
      {
        "channel": 4,
        "controlChanges": {},
        "pitchBends": [],
        "instrument": {
          "family": "ensemble",
          "number": 50,
          "name": "synthstrings 1"
        },
        "name": "Pop Synth",
        "notes": [
          {
            "duration": 0.1875,
            "durationTicks": 192,
            "midi": 59,
            "name": "B3",
            "ticks": 3072,
            "time": 3,
            "velocity": 0.11811023622047244
          },
          {
            "duration": 0.1875,
            "durationTicks": 192,
            "midi": 59,
            "name": "B3",
            "ticks": 3264,
            "time": 3.1875,
            "velocity": 0.11811023622047244
          },
          {
            "duration": 0.1875,
            "durationTicks": 192,
            "midi": 59,
            "name": "B3",
            "ticks": 3456,
            "time": 3.375,
            "velocity": 0.11811023622047244
          },
          {
            "duration": 0.1875,
            "durationTicks": 192,
            "midi": 59,
            "name": "B3",
            "ticks": 3648,
            "time": 3.5625,
            "velocity": 0.11811023622047244
          },
          {
            "duration": 0.1875,
            "durationTicks": 192,
            "midi": 59,
            "name": "B3",
            "ticks": 3840,
            "time": 3.75,
            "velocity": 0.11811023622047244
          },
          {
            "duration": 0.1875,
            "durationTicks": 192,
            "midi": 59,
            "name": "B3",
            "ticks": 4032,
            "time": 3.9375,
            "velocity": 0.11811023622047244
          },
          {
            "duration": 0.1875,
            "durationTicks": 192,
            "midi": 59,
            "name": "B3",
            "ticks": 4224,
            "time": 4.125,
            "velocity": 0.11811023622047244
          },
          {
            "duration": 0.1875,
            "durationTicks": 192,
            "midi": 59,
            "name": "B3",
            "ticks": 4416,
            "time": 4.3125,
            "velocity": 0.11811023622047244
          },
          {
            "duration": 0.1875,
            "durationTicks": 192,
            "midi": 60,
            "name": "C4",
            "ticks": 4608,
            "time": 4.5,
            "velocity": 0.11811023622047244
          },
          {
            "duration": 0.1875,
            "durationTicks": 192,
            "midi": 60,
            "name": "C4",
            "ticks": 4800,
            "time": 4.6875,
            "velocity": 0.11811023622047244
          },
          {
            "duration": 0.1875,
            "durationTicks": 192,
            "midi": 60,
            "name": "C4",
            "ticks": 4992,
            "time": 4.875,
            "velocity": 0.11811023622047244
          },
          {
            "duration": 0.1875,
            "durationTicks": 192,
            "midi": 60,
            "name": "C4",
            "ticks": 5184,
            "time": 5.0625,
            "velocity": 0.11811023622047244
          },
          {
            "duration": 0.1875,
            "durationTicks": 192,
            "midi": 60,
            "name": "C4",
            "ticks": 5376,
            "time": 5.25,
            "velocity": 0.11811023622047244
          },
          {
            "duration": 0.1875,
            "durationTicks": 192,
            "midi": 60,
            "name": "C4",
            "ticks": 5568,
            "time": 5.4375,
            "velocity": 0.11811023622047244
          },
          {
            "duration": 0.1875,
            "durationTicks": 192,
            "midi": 60,
            "name": "C4",
            "ticks": 5760,
            "time": 5.625,
            "velocity": 0.11811023622047244
          },
          {
            "duration": 0.1875,
            "durationTicks": 192,
            "midi": 60,
            "name": "C4",
            "ticks": 5952,
            "time": 5.8125,
            "velocity": 0.11811023622047244
          },
          {
            "duration": 0.1875,
            "durationTicks": 192,
            "midi": 59,
            "name": "B3",
            "ticks": 6144,
            "time": 6,
            "velocity": 0.11811023622047244
          },
          {
            "duration": 0.1875,
            "durationTicks": 192,
            "midi": 59,
            "name": "B3",
            "ticks": 6336,
            "time": 6.1875,
            "velocity": 0.11811023622047244
          },
          {
            "duration": 0.1875,
            "durationTicks": 192,
            "midi": 59,
            "name": "B3",
            "ticks": 6528,
            "time": 6.375,
            "velocity": 0.11811023622047244
          },
          {
            "duration": 0.1875,
            "durationTicks": 192,
            "midi": 59,
            "name": "B3",
            "ticks": 6720,
            "time": 6.5625,
            "velocity": 0.11811023622047244
          },
          {
            "duration": 0.1875,
            "durationTicks": 192,
            "midi": 59,
            "name": "B3",
            "ticks": 6912,
            "time": 6.75,
            "velocity": 0.11811023622047244
          },
          {
            "duration": 0.1875,
            "durationTicks": 192,
            "midi": 59,
            "name": "B3",
            "ticks": 7104,
            "time": 6.9375,
            "velocity": 0.11811023622047244
          },
          {
            "duration": 0.1875,
            "durationTicks": 192,
            "midi": 59,
            "name": "B3",
            "ticks": 7296,
            "time": 7.125,
            "velocity": 0.11811023622047244
          },
          {
            "duration": 0.1875,
            "durationTicks": 192,
            "midi": 59,
            "name": "B3",
            "ticks": 7488,
            "time": 7.3125,
            "velocity": 0.11811023622047244
          },
          {
            "duration": 0.1875,
            "durationTicks": 192,
            "midi": 57,
            "name": "A3",
            "ticks": 7680,
            "time": 7.5,
            "velocity": 0.11811023622047244
          },
          {
            "duration": 0.1875,
            "durationTicks": 192,
            "midi": 57,
            "name": "A3",
            "ticks": 7872,
            "time": 7.6875,
            "velocity": 0.11811023622047244
          },
          {
            "duration": 0.1875,
            "durationTicks": 192,
            "midi": 57,
            "name": "A3",
            "ticks": 8064,
            "time": 7.875,
            "velocity": 0.11811023622047244
          },
          {
            "duration": 0.1875,
            "durationTicks": 192,
            "midi": 57,
            "name": "A3",
            "ticks": 8256,
            "time": 8.0625,
            "velocity": 0.11811023622047244
          },
          {
            "duration": 0.1875,
            "durationTicks": 192,
            "midi": 57,
            "name": "A3",
            "ticks": 8448,
            "time": 8.25,
            "velocity": 0.11811023622047244
          },
          {
            "duration": 0.1875,
            "durationTicks": 192,
            "midi": 57,
            "name": "A3",
            "ticks": 8640,
            "time": 8.4375,
            "velocity": 0.11811023622047244
          },
          {
            "duration": 0.1875,
            "durationTicks": 192,
            "midi": 57,
            "name": "A3",
            "ticks": 8832,
            "time": 8.625,
            "velocity": 0.11811023622047244
          },
          {
            "duration": 0.1875,
            "durationTicks": 192,
            "midi": 57,
            "name": "A3",
            "ticks": 9024,
            "time": 8.8125,
            "velocity": 0.11811023622047244
          },
          {
            "duration": 0.1875,
            "durationTicks": 192,
            "midi": 59,
            "name": "B3",
            "ticks": 9216,
            "time": 9,
            "velocity": 0.11811023622047244
          },
          {
            "duration": 0.1875,
            "durationTicks": 192,
            "midi": 59,
            "name": "B3",
            "ticks": 9408,
            "time": 9.1875,
            "velocity": 0.11811023622047244
          },
          {
            "duration": 0.1875,
            "durationTicks": 192,
            "midi": 59,
            "name": "B3",
            "ticks": 9600,
            "time": 9.375,
            "velocity": 0.11811023622047244
          },
          {
            "duration": 0.1875,
            "durationTicks": 192,
            "midi": 59,
            "name": "B3",
            "ticks": 9792,
            "time": 9.5625,
            "velocity": 0.11811023622047244
          },
          {
            "duration": 0.1875,
            "durationTicks": 192,
            "midi": 59,
            "name": "B3",
            "ticks": 9984,
            "time": 9.75,
            "velocity": 0.11811023622047244
          },
          {
            "duration": 0.1875,
            "durationTicks": 192,
            "midi": 59,
            "name": "B3",
            "ticks": 10176,
            "time": 9.9375,
            "velocity": 0.11811023622047244
          },
          {
            "duration": 0.1875,
            "durationTicks": 192,
            "midi": 59,
            "name": "B3",
            "ticks": 10368,
            "time": 10.125,
            "velocity": 0.11811023622047244
          },
          {
            "duration": 0.1875,
            "durationTicks": 192,
            "midi": 59,
            "name": "B3",
            "ticks": 10560,
            "time": 10.3125,
            "velocity": 0.11811023622047244
          },
          {
            "duration": 0.1875,
            "durationTicks": 192,
            "midi": 60,
            "name": "C4",
            "ticks": 10752,
            "time": 10.5,
            "velocity": 0.11811023622047244
          },
          {
            "duration": 0.1875,
            "durationTicks": 192,
            "midi": 60,
            "name": "C4",
            "ticks": 10944,
            "time": 10.6875,
            "velocity": 0.11811023622047244
          },
          {
            "duration": 0.1875,
            "durationTicks": 192,
            "midi": 60,
            "name": "C4",
            "ticks": 11136,
            "time": 10.875,
            "velocity": 0.11811023622047244
          },
          {
            "duration": 0.1875,
            "durationTicks": 192,
            "midi": 60,
            "name": "C4",
            "ticks": 11328,
            "time": 11.0625,
            "velocity": 0.11811023622047244
          },
          {
            "duration": 0.1875,
            "durationTicks": 192,
            "midi": 60,
            "name": "C4",
            "ticks": 11520,
            "time": 11.25,
            "velocity": 0.11811023622047244
          },
          {
            "duration": 0.1875,
            "durationTicks": 192,
            "midi": 60,
            "name": "C4",
            "ticks": 11712,
            "time": 11.4375,
            "velocity": 0.11811023622047244
          },
          {
            "duration": 0.1875,
            "durationTicks": 192,
            "midi": 60,
            "name": "C4",
            "ticks": 11904,
            "time": 11.625,
            "velocity": 0.11811023622047244
          },
          {
            "duration": 0.1875,
            "durationTicks": 192,
            "midi": 60,
            "name": "C4",
            "ticks": 12096,
            "time": 11.8125,
            "velocity": 0.11811023622047244
          },
          {
            "duration": 0.1875,
            "durationTicks": 192,
            "midi": 59,
            "name": "B3",
            "ticks": 12288,
            "time": 12,
            "velocity": 0.11811023622047244
          },
          {
            "duration": 0.1875,
            "durationTicks": 192,
            "midi": 59,
            "name": "B3",
            "ticks": 12480,
            "time": 12.1875,
            "velocity": 0.11811023622047244
          },
          {
            "duration": 0.1875,
            "durationTicks": 192,
            "midi": 59,
            "name": "B3",
            "ticks": 12672,
            "time": 12.375,
            "velocity": 0.11811023622047244
          },
          {
            "duration": 0.1875,
            "durationTicks": 192,
            "midi": 59,
            "name": "B3",
            "ticks": 12864,
            "time": 12.5625,
            "velocity": 0.11811023622047244
          },
          {
            "duration": 0.1875,
            "durationTicks": 192,
            "midi": 62,
            "name": "D4",
            "ticks": 13056,
            "time": 12.75,
            "velocity": 0.11811023622047244
          },
          {
            "duration": 0.1875,
            "durationTicks": 192,
            "midi": 62,
            "name": "D4",
            "ticks": 13248,
            "time": 12.9375,
            "velocity": 0.11811023622047244
          },
          {
            "duration": 0.1875,
            "durationTicks": 192,
            "midi": 62,
            "name": "D4",
            "ticks": 13440,
            "time": 13.125,
            "velocity": 0.11811023622047244
          },
          {
            "duration": 0.1875,
            "durationTicks": 192,
            "midi": 62,
            "name": "D4",
            "ticks": 13632,
            "time": 13.3125,
            "velocity": 0.11811023622047244
          },
          {
            "duration": 0.1875,
            "durationTicks": 192,
            "midi": 55,
            "name": "G3",
            "ticks": 13824,
            "time": 13.5,
            "velocity": 0.11811023622047244
          },
          {
            "duration": 0.1875,
            "durationTicks": 192,
            "midi": 55,
            "name": "G3",
            "ticks": 14016,
            "time": 13.6875,
            "velocity": 0.11811023622047244
          },
          {
            "duration": 0.1875,
            "durationTicks": 192,
            "midi": 55,
            "name": "G3",
            "ticks": 14208,
            "time": 13.875,
            "velocity": 0.11811023622047244
          },
          {
            "duration": 0.1875,
            "durationTicks": 192,
            "midi": 55,
            "name": "G3",
            "ticks": 14400,
            "time": 14.0625,
            "velocity": 0.11811023622047244
          },
          {
            "duration": 0.1875,
            "durationTicks": 192,
            "midi": 55,
            "name": "G3",
            "ticks": 14592,
            "time": 14.25,
            "velocity": 0.11811023622047244
          },
          {
            "duration": 0.1875,
            "durationTicks": 192,
            "midi": 55,
            "name": "G3",
            "ticks": 14784,
            "time": 14.4375,
            "velocity": 0.11811023622047244
          },
          {
            "duration": 0.1875,
            "durationTicks": 192,
            "midi": 55,
            "name": "G3",
            "ticks": 14976,
            "time": 14.625,
            "velocity": 0.11811023622047244
          },
          {
            "duration": 0.1875,
            "durationTicks": 192,
            "midi": 55,
            "name": "G3",
            "ticks": 15168,
            "time": 14.8125,
            "velocity": 0.11811023622047244
          },
          {
            "duration": 0.1875,
            "durationTicks": 192,
            "midi": 62,
            "name": "D4",
            "ticks": 15360,
            "time": 15,
            "velocity": 0.11811023622047244
          },
          {
            "duration": 0.1875,
            "durationTicks": 192,
            "midi": 62,
            "name": "D4",
            "ticks": 15552,
            "time": 15.1875,
            "velocity": 0.11811023622047244
          },
          {
            "duration": 0.1875,
            "durationTicks": 192,
            "midi": 62,
            "name": "D4",
            "ticks": 15744,
            "time": 15.375,
            "velocity": 0.11811023622047244
          },
          {
            "duration": 0.1875,
            "durationTicks": 192,
            "midi": 62,
            "name": "D4",
            "ticks": 15936,
            "time": 15.5625,
            "velocity": 0.11811023622047244
          },
          {
            "duration": 0.1875,
            "durationTicks": 192,
            "midi": 62,
            "name": "D4",
            "ticks": 16128,
            "time": 15.75,
            "velocity": 0.11811023622047244
          },
          {
            "duration": 0.1875,
            "durationTicks": 192,
            "midi": 62,
            "name": "D4",
            "ticks": 16320,
            "time": 15.9375,
            "velocity": 0.11811023622047244
          },
          {
            "duration": 0.1875,
            "durationTicks": 192,
            "midi": 62,
            "name": "D4",
            "ticks": 16512,
            "time": 16.125,
            "velocity": 0.11811023622047244
          },
          {
            "duration": 0.1875,
            "durationTicks": 192,
            "midi": 62,
            "name": "D4",
            "ticks": 16704,
            "time": 16.3125,
            "velocity": 0.11811023622047244
          },
          {
            "duration": 0.1875,
            "durationTicks": 192,
            "midi": 64,
            "name": "E4",
            "ticks": 16896,
            "time": 16.5,
            "velocity": 0.11811023622047244
          },
          {
            "duration": 0.1875,
            "durationTicks": 192,
            "midi": 64,
            "name": "E4",
            "ticks": 17088,
            "time": 16.6875,
            "velocity": 0.11811023622047244
          },
          {
            "duration": 0.1875,
            "durationTicks": 192,
            "midi": 64,
            "name": "E4",
            "ticks": 17280,
            "time": 16.875,
            "velocity": 0.11811023622047244
          },
          {
            "duration": 0.1875,
            "durationTicks": 192,
            "midi": 64,
            "name": "E4",
            "ticks": 17472,
            "time": 17.0625,
            "velocity": 0.11811023622047244
          },
          {
            "duration": 0.1875,
            "durationTicks": 192,
            "midi": 64,
            "name": "E4",
            "ticks": 17664,
            "time": 17.25,
            "velocity": 0.11811023622047244
          },
          {
            "duration": 0.1875,
            "durationTicks": 192,
            "midi": 64,
            "name": "E4",
            "ticks": 17856,
            "time": 17.4375,
            "velocity": 0.11811023622047244
          },
          {
            "duration": 0.1875,
            "durationTicks": 192,
            "midi": 64,
            "name": "E4",
            "ticks": 18048,
            "time": 17.625,
            "velocity": 0.11811023622047244
          },
          {
            "duration": 0.1875,
            "durationTicks": 192,
            "midi": 64,
            "name": "E4",
            "ticks": 18240,
            "time": 17.8125,
            "velocity": 0.11811023622047244
          },
          {
            "duration": 0.1875,
            "durationTicks": 192,
            "midi": 62,
            "name": "D4",
            "ticks": 18432,
            "time": 18,
            "velocity": 0.11811023622047244
          },
          {
            "duration": 0.1875,
            "durationTicks": 192,
            "midi": 62,
            "name": "D4",
            "ticks": 18624,
            "time": 18.1875,
            "velocity": 0.11811023622047244
          },
          {
            "duration": 0.1875,
            "durationTicks": 192,
            "midi": 62,
            "name": "D4",
            "ticks": 18816,
            "time": 18.375,
            "velocity": 0.11811023622047244
          },
          {
            "duration": 0.1875,
            "durationTicks": 192,
            "midi": 62,
            "name": "D4",
            "ticks": 19008,
            "time": 18.5625,
            "velocity": 0.11811023622047244
          },
          {
            "duration": 0.1875,
            "durationTicks": 192,
            "midi": 62,
            "name": "D4",
            "ticks": 19200,
            "time": 18.75,
            "velocity": 0.11811023622047244
          },
          {
            "duration": 0.1875,
            "durationTicks": 192,
            "midi": 62,
            "name": "D4",
            "ticks": 19392,
            "time": 18.9375,
            "velocity": 0.11811023622047244
          },
          {
            "duration": 0.1875,
            "durationTicks": 192,
            "midi": 62,
            "name": "D4",
            "ticks": 19584,
            "time": 19.125,
            "velocity": 0.11811023622047244
          },
          {
            "duration": 0.1875,
            "durationTicks": 192,
            "midi": 62,
            "name": "D4",
            "ticks": 19776,
            "time": 19.3125,
            "velocity": 0.11811023622047244
          },
          {
            "duration": 0.1875,
            "durationTicks": 192,
            "midi": 62,
            "name": "D4",
            "ticks": 19968,
            "time": 19.5,
            "velocity": 0.11811023622047244
          },
          {
            "duration": 0.1875,
            "durationTicks": 192,
            "midi": 62,
            "name": "D4",
            "ticks": 20160,
            "time": 19.6875,
            "velocity": 0.11811023622047244
          },
          {
            "duration": 0.1875,
            "durationTicks": 192,
            "midi": 62,
            "name": "D4",
            "ticks": 20352,
            "time": 19.875,
            "velocity": 0.11811023622047244
          },
          {
            "duration": 0.1875,
            "durationTicks": 192,
            "midi": 62,
            "name": "D4",
            "ticks": 20544,
            "time": 20.0625,
            "velocity": 0.11811023622047244
          },
          {
            "duration": 0.1875,
            "durationTicks": 192,
            "midi": 62,
            "name": "D4",
            "ticks": 20736,
            "time": 20.25,
            "velocity": 0.11811023622047244
          },
          {
            "duration": 0.1875,
            "durationTicks": 192,
            "midi": 62,
            "name": "D4",
            "ticks": 20928,
            "time": 20.4375,
            "velocity": 0.11811023622047244
          },
          {
            "duration": 0.1875,
            "durationTicks": 192,
            "midi": 62,
            "name": "D4",
            "ticks": 21120,
            "time": 20.625,
            "velocity": 0.11811023622047244
          },
          {
            "duration": 0.1875,
            "durationTicks": 192,
            "midi": 62,
            "name": "D4",
            "ticks": 21312,
            "time": 20.8125,
            "velocity": 0.11811023622047244
          },
          {
            "duration": 0.1875,
            "durationTicks": 192,
            "midi": 62,
            "name": "D4",
            "ticks": 21504,
            "time": 21,
            "velocity": 0.11811023622047244
          },
          {
            "duration": 0.1875,
            "durationTicks": 192,
            "midi": 62,
            "name": "D4",
            "ticks": 21696,
            "time": 21.1875,
            "velocity": 0.11811023622047244
          },
          {
            "duration": 0.1875,
            "durationTicks": 192,
            "midi": 62,
            "name": "D4",
            "ticks": 21888,
            "time": 21.375,
            "velocity": 0.11811023622047244
          },
          {
            "duration": 0.1875,
            "durationTicks": 192,
            "midi": 62,
            "name": "D4",
            "ticks": 22080,
            "time": 21.5625,
            "velocity": 0.11811023622047244
          },
          {
            "duration": 0.1875,
            "durationTicks": 192,
            "midi": 62,
            "name": "D4",
            "ticks": 22272,
            "time": 21.75,
            "velocity": 0.11811023622047244
          },
          {
            "duration": 0.1875,
            "durationTicks": 192,
            "midi": 62,
            "name": "D4",
            "ticks": 22464,
            "time": 21.9375,
            "velocity": 0.11811023622047244
          },
          {
            "duration": 0.1875,
            "durationTicks": 192,
            "midi": 62,
            "name": "D4",
            "ticks": 22656,
            "time": 22.125,
            "velocity": 0.11811023622047244
          },
          {
            "duration": 0.1875,
            "durationTicks": 192,
            "midi": 62,
            "name": "D4",
            "ticks": 22848,
            "time": 22.3125,
            "velocity": 0.11811023622047244
          },
          {
            "duration": 0.1875,
            "durationTicks": 192,
            "midi": 64,
            "name": "E4",
            "ticks": 23040,
            "time": 22.5,
            "velocity": 0.11811023622047244
          },
          {
            "duration": 0.1875,
            "durationTicks": 192,
            "midi": 64,
            "name": "E4",
            "ticks": 23232,
            "time": 22.6875,
            "velocity": 0.11811023622047244
          },
          {
            "duration": 0.1875,
            "durationTicks": 192,
            "midi": 64,
            "name": "E4",
            "ticks": 23424,
            "time": 22.875,
            "velocity": 0.11811023622047244
          },
          {
            "duration": 0.1875,
            "durationTicks": 192,
            "midi": 64,
            "name": "E4",
            "ticks": 23616,
            "time": 23.0625,
            "velocity": 0.11811023622047244
          },
          {
            "duration": 0.1875,
            "durationTicks": 192,
            "midi": 64,
            "name": "E4",
            "ticks": 23808,
            "time": 23.25,
            "velocity": 0.11811023622047244
          },
          {
            "duration": 0.1875,
            "durationTicks": 192,
            "midi": 64,
            "name": "E4",
            "ticks": 24000,
            "time": 23.4375,
            "velocity": 0.11811023622047244
          },
          {
            "duration": 0.1875,
            "durationTicks": 192,
            "midi": 64,
            "name": "E4",
            "ticks": 24192,
            "time": 23.625,
            "velocity": 0.11811023622047244
          },
          {
            "duration": 0.1875,
            "durationTicks": 192,
            "midi": 64,
            "name": "E4",
            "ticks": 24384,
            "time": 23.8125,
            "velocity": 0.11811023622047244
          },
          {
            "duration": 0.1875,
            "durationTicks": 192,
            "midi": 62,
            "name": "D4",
            "ticks": 24576,
            "time": 24,
            "velocity": 0.11811023622047244
          },
          {
            "duration": 0.1875,
            "durationTicks": 192,
            "midi": 62,
            "name": "D4",
            "ticks": 24768,
            "time": 24.1875,
            "velocity": 0.11811023622047244
          },
          {
            "duration": 0.1875,
            "durationTicks": 192,
            "midi": 62,
            "name": "D4",
            "ticks": 24960,
            "time": 24.375,
            "velocity": 0.11811023622047244
          },
          {
            "duration": 0.1875,
            "durationTicks": 192,
            "midi": 62,
            "name": "D4",
            "ticks": 25152,
            "time": 24.5625,
            "velocity": 0.11811023622047244
          },
          {
            "duration": 0.1875,
            "durationTicks": 192,
            "midi": 62,
            "name": "D4",
            "ticks": 25344,
            "time": 24.75,
            "velocity": 0.11811023622047244
          },
          {
            "duration": 0.1875,
            "durationTicks": 192,
            "midi": 62,
            "name": "D4",
            "ticks": 25536,
            "time": 24.9375,
            "velocity": 0.11811023622047244
          },
          {
            "duration": 0.1875,
            "durationTicks": 192,
            "midi": 62,
            "name": "D4",
            "ticks": 25728,
            "time": 25.125,
            "velocity": 0.11811023622047244
          },
          {
            "duration": 0.1875,
            "durationTicks": 192,
            "midi": 62,
            "name": "D4",
            "ticks": 25920,
            "time": 25.3125,
            "velocity": 0.11811023622047244
          },
          {
            "duration": 0.1875,
            "durationTicks": 192,
            "midi": 62,
            "name": "D4",
            "ticks": 26112,
            "time": 25.5,
            "velocity": 0.11811023622047244
          },
          {
            "duration": 0.1875,
            "durationTicks": 192,
            "midi": 62,
            "name": "D4",
            "ticks": 26304,
            "time": 25.6875,
            "velocity": 0.11811023622047244
          },
          {
            "duration": 0.1875,
            "durationTicks": 192,
            "midi": 62,
            "name": "D4",
            "ticks": 26496,
            "time": 25.875,
            "velocity": 0.11811023622047244
          },
          {
            "duration": 0.1875,
            "durationTicks": 192,
            "midi": 62,
            "name": "D4",
            "ticks": 26688,
            "time": 26.0625,
            "velocity": 0.11811023622047244
          },
          {
            "duration": 0.1875,
            "durationTicks": 192,
            "midi": 62,
            "name": "D4",
            "ticks": 26880,
            "time": 26.25,
            "velocity": 0.11811023622047244
          },
          {
            "duration": 0.1875,
            "durationTicks": 192,
            "midi": 62,
            "name": "D4",
            "ticks": 27072,
            "time": 26.4375,
            "velocity": 0.11811023622047244
          },
          {
            "duration": 0.1875,
            "durationTicks": 192,
            "midi": 62,
            "name": "D4",
            "ticks": 27264,
            "time": 26.625,
            "velocity": 0.11811023622047244
          },
          {
            "duration": 0.1875,
            "durationTicks": 192,
            "midi": 62,
            "name": "D4",
            "ticks": 27456,
            "time": 26.8125,
            "velocity": 0.11811023622047244
          },
          {
            "duration": 0.1875,
            "durationTicks": 192,
            "midi": 59,
            "name": "B3",
            "ticks": 27648,
            "time": 27,
            "velocity": 0.11811023622047244
          },
          {
            "duration": 0.1875,
            "durationTicks": 192,
            "midi": 59,
            "name": "B3",
            "ticks": 27840,
            "time": 27.1875,
            "velocity": 0.11811023622047244
          },
          {
            "duration": 0.1875,
            "durationTicks": 192,
            "midi": 59,
            "name": "B3",
            "ticks": 28032,
            "time": 27.375,
            "velocity": 0.11811023622047244
          },
          {
            "duration": 0.1875,
            "durationTicks": 192,
            "midi": 59,
            "name": "B3",
            "ticks": 28224,
            "time": 27.5625,
            "velocity": 0.11811023622047244
          },
          {
            "duration": 0.1875,
            "durationTicks": 192,
            "midi": 59,
            "name": "B3",
            "ticks": 28416,
            "time": 27.75,
            "velocity": 0.11811023622047244
          },
          {
            "duration": 0.1875,
            "durationTicks": 192,
            "midi": 59,
            "name": "B3",
            "ticks": 28608,
            "time": 27.9375,
            "velocity": 0.11811023622047244
          },
          {
            "duration": 0.1875,
            "durationTicks": 192,
            "midi": 59,
            "name": "B3",
            "ticks": 28800,
            "time": 28.125,
            "velocity": 0.11811023622047244
          },
          {
            "duration": 0.1875,
            "durationTicks": 192,
            "midi": 59,
            "name": "B3",
            "ticks": 28992,
            "time": 28.3125,
            "velocity": 0.11811023622047244
          },
          {
            "duration": 0.1875,
            "durationTicks": 192,
            "midi": 60,
            "name": "C4",
            "ticks": 29184,
            "time": 28.5,
            "velocity": 0.11811023622047244
          },
          {
            "duration": 0.1875,
            "durationTicks": 192,
            "midi": 60,
            "name": "C4",
            "ticks": 29376,
            "time": 28.6875,
            "velocity": 0.11811023622047244
          },
          {
            "duration": 0.1875,
            "durationTicks": 192,
            "midi": 60,
            "name": "C4",
            "ticks": 29568,
            "time": 28.875,
            "velocity": 0.11811023622047244
          },
          {
            "duration": 0.1875,
            "durationTicks": 192,
            "midi": 60,
            "name": "C4",
            "ticks": 29760,
            "time": 29.0625,
            "velocity": 0.11811023622047244
          },
          {
            "duration": 0.1875,
            "durationTicks": 192,
            "midi": 60,
            "name": "C4",
            "ticks": 29952,
            "time": 29.25,
            "velocity": 0.11811023622047244
          },
          {
            "duration": 0.1875,
            "durationTicks": 192,
            "midi": 60,
            "name": "C4",
            "ticks": 30144,
            "time": 29.4375,
            "velocity": 0.11811023622047244
          },
          {
            "duration": 0.1875,
            "durationTicks": 192,
            "midi": 60,
            "name": "C4",
            "ticks": 30336,
            "time": 29.625,
            "velocity": 0.11811023622047244
          },
          {
            "duration": 0.1875,
            "durationTicks": 192,
            "midi": 60,
            "name": "C4",
            "ticks": 30528,
            "time": 29.8125,
            "velocity": 0.11811023622047244
          },
          {
            "duration": 0.1875,
            "durationTicks": 192,
            "midi": 59,
            "name": "B3",
            "ticks": 30720,
            "time": 30,
            "velocity": 0.11811023622047244
          },
          {
            "duration": 0.1875,
            "durationTicks": 192,
            "midi": 59,
            "name": "B3",
            "ticks": 30912,
            "time": 30.1875,
            "velocity": 0.11811023622047244
          },
          {
            "duration": 0.1875,
            "durationTicks": 192,
            "midi": 59,
            "name": "B3",
            "ticks": 31104,
            "time": 30.375,
            "velocity": 0.11811023622047244
          },
          {
            "duration": 0.1875,
            "durationTicks": 192,
            "midi": 59,
            "name": "B3",
            "ticks": 31296,
            "time": 30.5625,
            "velocity": 0.11811023622047244
          },
          {
            "duration": 0.1875,
            "durationTicks": 192,
            "midi": 59,
            "name": "B3",
            "ticks": 31488,
            "time": 30.75,
            "velocity": 0.11811023622047244
          },
          {
            "duration": 0.1875,
            "durationTicks": 192,
            "midi": 59,
            "name": "B3",
            "ticks": 31680,
            "time": 30.9375,
            "velocity": 0.11811023622047244
          },
          {
            "duration": 0.1875,
            "durationTicks": 192,
            "midi": 59,
            "name": "B3",
            "ticks": 31872,
            "time": 31.125,
            "velocity": 0.11811023622047244
          },
          {
            "duration": 0.1875,
            "durationTicks": 192,
            "midi": 59,
            "name": "B3",
            "ticks": 32064,
            "time": 31.3125,
            "velocity": 0.11811023622047244
          },
          {
            "duration": 0.1875,
            "durationTicks": 192,
            "midi": 57,
            "name": "A3",
            "ticks": 32256,
            "time": 31.5,
            "velocity": 0.11811023622047244
          },
          {
            "duration": 0.1875,
            "durationTicks": 192,
            "midi": 57,
            "name": "A3",
            "ticks": 32448,
            "time": 31.6875,
            "velocity": 0.11811023622047244
          },
          {
            "duration": 0.1875,
            "durationTicks": 192,
            "midi": 57,
            "name": "A3",
            "ticks": 32640,
            "time": 31.875,
            "velocity": 0.11811023622047244
          },
          {
            "duration": 0.1875,
            "durationTicks": 192,
            "midi": 57,
            "name": "A3",
            "ticks": 32832,
            "time": 32.0625,
            "velocity": 0.11811023622047244
          },
          {
            "duration": 0.1875,
            "durationTicks": 192,
            "midi": 57,
            "name": "A3",
            "ticks": 33024,
            "time": 32.25,
            "velocity": 0.11811023622047244
          },
          {
            "duration": 0.1875,
            "durationTicks": 192,
            "midi": 57,
            "name": "A3",
            "ticks": 33216,
            "time": 32.4375,
            "velocity": 0.11811023622047244
          },
          {
            "duration": 0.1875,
            "durationTicks": 192,
            "midi": 57,
            "name": "A3",
            "ticks": 33408,
            "time": 32.625,
            "velocity": 0.11811023622047244
          },
          {
            "duration": 0.1875,
            "durationTicks": 192,
            "midi": 57,
            "name": "A3",
            "ticks": 33600,
            "time": 32.8125,
            "velocity": 0.11811023622047244
          },
          {
            "duration": 0.1875,
            "durationTicks": 192,
            "midi": 59,
            "name": "B3",
            "ticks": 33792,
            "time": 33,
            "velocity": 0.11811023622047244
          },
          {
            "duration": 0.1875,
            "durationTicks": 192,
            "midi": 59,
            "name": "B3",
            "ticks": 33984,
            "time": 33.1875,
            "velocity": 0.11811023622047244
          },
          {
            "duration": 0.1875,
            "durationTicks": 192,
            "midi": 59,
            "name": "B3",
            "ticks": 34176,
            "time": 33.375,
            "velocity": 0.11811023622047244
          },
          {
            "duration": 0.1875,
            "durationTicks": 192,
            "midi": 59,
            "name": "B3",
            "ticks": 34368,
            "time": 33.5625,
            "velocity": 0.11811023622047244
          },
          {
            "duration": 0.1875,
            "durationTicks": 192,
            "midi": 59,
            "name": "B3",
            "ticks": 34560,
            "time": 33.75,
            "velocity": 0.11811023622047244
          },
          {
            "duration": 0.1875,
            "durationTicks": 192,
            "midi": 59,
            "name": "B3",
            "ticks": 34752,
            "time": 33.9375,
            "velocity": 0.11811023622047244
          },
          {
            "duration": 0.1875,
            "durationTicks": 192,
            "midi": 59,
            "name": "B3",
            "ticks": 34944,
            "time": 34.125,
            "velocity": 0.11811023622047244
          },
          {
            "duration": 0.1875,
            "durationTicks": 192,
            "midi": 59,
            "name": "B3",
            "ticks": 35136,
            "time": 34.3125,
            "velocity": 0.11811023622047244
          },
          {
            "duration": 0.1875,
            "durationTicks": 192,
            "midi": 60,
            "name": "C4",
            "ticks": 35328,
            "time": 34.5,
            "velocity": 0.11811023622047244
          },
          {
            "duration": 0.1875,
            "durationTicks": 192,
            "midi": 60,
            "name": "C4",
            "ticks": 35520,
            "time": 34.6875,
            "velocity": 0.11811023622047244
          },
          {
            "duration": 0.1875,
            "durationTicks": 192,
            "midi": 60,
            "name": "C4",
            "ticks": 35712,
            "time": 34.875,
            "velocity": 0.11811023622047244
          },
          {
            "duration": 0.1875,
            "durationTicks": 192,
            "midi": 60,
            "name": "C4",
            "ticks": 35904,
            "time": 35.0625,
            "velocity": 0.11811023622047244
          },
          {
            "duration": 0.1875,
            "durationTicks": 192,
            "midi": 60,
            "name": "C4",
            "ticks": 36096,
            "time": 35.25,
            "velocity": 0.11811023622047244
          },
          {
            "duration": 0.1875,
            "durationTicks": 192,
            "midi": 60,
            "name": "C4",
            "ticks": 36288,
            "time": 35.4375,
            "velocity": 0.11811023622047244
          },
          {
            "duration": 0.1875,
            "durationTicks": 192,
            "midi": 60,
            "name": "C4",
            "ticks": 36480,
            "time": 35.625,
            "velocity": 0.11811023622047244
          },
          {
            "duration": 0.1875,
            "durationTicks": 192,
            "midi": 60,
            "name": "C4",
            "ticks": 36672,
            "time": 35.8125,
            "velocity": 0.11811023622047244
          },
          {
            "duration": 0.1875,
            "durationTicks": 192,
            "midi": 59,
            "name": "B3",
            "ticks": 36864,
            "time": 36,
            "velocity": 0.11811023622047244
          },
          {
            "duration": 0.1875,
            "durationTicks": 192,
            "midi": 59,
            "name": "B3",
            "ticks": 37056,
            "time": 36.1875,
            "velocity": 0.11811023622047244
          },
          {
            "duration": 0.1875,
            "durationTicks": 192,
            "midi": 59,
            "name": "B3",
            "ticks": 37248,
            "time": 36.375,
            "velocity": 0.11811023622047244
          },
          {
            "duration": 0.1875,
            "durationTicks": 192,
            "midi": 59,
            "name": "B3",
            "ticks": 37440,
            "time": 36.5625,
            "velocity": 0.11811023622047244
          },
          {
            "duration": 0.1875,
            "durationTicks": 192,
            "midi": 62,
            "name": "D4",
            "ticks": 37632,
            "time": 36.75,
            "velocity": 0.11811023622047244
          },
          {
            "duration": 0.1875,
            "durationTicks": 192,
            "midi": 62,
            "name": "D4",
            "ticks": 37824,
            "time": 36.9375,
            "velocity": 0.11811023622047244
          },
          {
            "duration": 0.1875,
            "durationTicks": 192,
            "midi": 62,
            "name": "D4",
            "ticks": 38016,
            "time": 37.125,
            "velocity": 0.11811023622047244
          },
          {
            "duration": 0.1875,
            "durationTicks": 192,
            "midi": 62,
            "name": "D4",
            "ticks": 38208,
            "time": 37.3125,
            "velocity": 0.11811023622047244
          },
          {
            "duration": 0.1875,
            "durationTicks": 192,
            "midi": 55,
            "name": "G3",
            "ticks": 38400,
            "time": 37.5,
            "velocity": 0.11811023622047244
          },
          {
            "duration": 0.1875,
            "durationTicks": 192,
            "midi": 55,
            "name": "G3",
            "ticks": 38592,
            "time": 37.6875,
            "velocity": 0.11811023622047244
          },
          {
            "duration": 0.1875,
            "durationTicks": 192,
            "midi": 55,
            "name": "G3",
            "ticks": 38784,
            "time": 37.875,
            "velocity": 0.11811023622047244
          },
          {
            "duration": 0.1875,
            "durationTicks": 192,
            "midi": 55,
            "name": "G3",
            "ticks": 38976,
            "time": 38.0625,
            "velocity": 0.11811023622047244
          },
          {
            "duration": 0.1875,
            "durationTicks": 192,
            "midi": 55,
            "name": "G3",
            "ticks": 39168,
            "time": 38.25,
            "velocity": 0.11811023622047244
          },
          {
            "duration": 0.1875,
            "durationTicks": 192,
            "midi": 55,
            "name": "G3",
            "ticks": 39360,
            "time": 38.4375,
            "velocity": 0.11811023622047244
          },
          {
            "duration": 0.1875,
            "durationTicks": 192,
            "midi": 55,
            "name": "G3",
            "ticks": 39552,
            "time": 38.625,
            "velocity": 0.11811023622047244
          },
          {
            "duration": 0.1875,
            "durationTicks": 192,
            "midi": 55,
            "name": "G3",
            "ticks": 39744,
            "time": 38.8125,
            "velocity": 0.11811023622047244
          },
          {
            "duration": 0.1875,
            "durationTicks": 192,
            "midi": 62,
            "name": "D4",
            "ticks": 39936,
            "time": 39,
            "velocity": 0.11811023622047244
          },
          {
            "duration": 0.1875,
            "durationTicks": 192,
            "midi": 62,
            "name": "D4",
            "ticks": 40128,
            "time": 39.1875,
            "velocity": 0.11811023622047244
          },
          {
            "duration": 0.1875,
            "durationTicks": 192,
            "midi": 62,
            "name": "D4",
            "ticks": 40320,
            "time": 39.375,
            "velocity": 0.11811023622047244
          },
          {
            "duration": 0.1875,
            "durationTicks": 192,
            "midi": 62,
            "name": "D4",
            "ticks": 40512,
            "time": 39.5625,
            "velocity": 0.11811023622047244
          },
          {
            "duration": 0.1875,
            "durationTicks": 192,
            "midi": 62,
            "name": "D4",
            "ticks": 40704,
            "time": 39.75,
            "velocity": 0.11811023622047244
          },
          {
            "duration": 0.1875,
            "durationTicks": 192,
            "midi": 62,
            "name": "D4",
            "ticks": 40896,
            "time": 39.9375,
            "velocity": 0.11811023622047244
          },
          {
            "duration": 0.1875,
            "durationTicks": 192,
            "midi": 62,
            "name": "D4",
            "ticks": 41088,
            "time": 40.125,
            "velocity": 0.11811023622047244
          },
          {
            "duration": 0.1875,
            "durationTicks": 192,
            "midi": 62,
            "name": "D4",
            "ticks": 41280,
            "time": 40.3125,
            "velocity": 0.11811023622047244
          },
          {
            "duration": 0.1875,
            "durationTicks": 192,
            "midi": 64,
            "name": "E4",
            "ticks": 41472,
            "time": 40.5,
            "velocity": 0.11811023622047244
          },
          {
            "duration": 0.1875,
            "durationTicks": 192,
            "midi": 64,
            "name": "E4",
            "ticks": 41664,
            "time": 40.6875,
            "velocity": 0.11811023622047244
          },
          {
            "duration": 0.1875,
            "durationTicks": 192,
            "midi": 64,
            "name": "E4",
            "ticks": 41856,
            "time": 40.875,
            "velocity": 0.11811023622047244
          },
          {
            "duration": 0.1875,
            "durationTicks": 192,
            "midi": 64,
            "name": "E4",
            "ticks": 42048,
            "time": 41.0625,
            "velocity": 0.11811023622047244
          },
          {
            "duration": 0.1875,
            "durationTicks": 192,
            "midi": 64,
            "name": "E4",
            "ticks": 42240,
            "time": 41.25,
            "velocity": 0.11811023622047244
          },
          {
            "duration": 0.1875,
            "durationTicks": 192,
            "midi": 64,
            "name": "E4",
            "ticks": 42432,
            "time": 41.4375,
            "velocity": 0.11811023622047244
          },
          {
            "duration": 0.1875,
            "durationTicks": 192,
            "midi": 64,
            "name": "E4",
            "ticks": 42624,
            "time": 41.625,
            "velocity": 0.11811023622047244
          },
          {
            "duration": 0.1875,
            "durationTicks": 192,
            "midi": 64,
            "name": "E4",
            "ticks": 42816,
            "time": 41.8125,
            "velocity": 0.11811023622047244
          },
          {
            "duration": 0.1875,
            "durationTicks": 192,
            "midi": 62,
            "name": "D4",
            "ticks": 43008,
            "time": 42,
            "velocity": 0.11811023622047244
          },
          {
            "duration": 0.1875,
            "durationTicks": 192,
            "midi": 62,
            "name": "D4",
            "ticks": 43200,
            "time": 42.1875,
            "velocity": 0.11811023622047244
          },
          {
            "duration": 0.1875,
            "durationTicks": 192,
            "midi": 62,
            "name": "D4",
            "ticks": 43392,
            "time": 42.375,
            "velocity": 0.11811023622047244
          },
          {
            "duration": 0.1875,
            "durationTicks": 192,
            "midi": 62,
            "name": "D4",
            "ticks": 43584,
            "time": 42.5625,
            "velocity": 0.11811023622047244
          },
          {
            "duration": 0.1875,
            "durationTicks": 192,
            "midi": 62,
            "name": "D4",
            "ticks": 43776,
            "time": 42.75,
            "velocity": 0.11811023622047244
          },
          {
            "duration": 0.1875,
            "durationTicks": 192,
            "midi": 62,
            "name": "D4",
            "ticks": 43968,
            "time": 42.9375,
            "velocity": 0.11811023622047244
          },
          {
            "duration": 0.1875,
            "durationTicks": 192,
            "midi": 62,
            "name": "D4",
            "ticks": 44160,
            "time": 43.125,
            "velocity": 0.11811023622047244
          },
          {
            "duration": 0.1875,
            "durationTicks": 192,
            "midi": 62,
            "name": "D4",
            "ticks": 44352,
            "time": 43.3125,
            "velocity": 0.11811023622047244
          },
          {
            "duration": 0.1875,
            "durationTicks": 192,
            "midi": 62,
            "name": "D4",
            "ticks": 44544,
            "time": 43.5,
            "velocity": 0.11811023622047244
          },
          {
            "duration": 0.1875,
            "durationTicks": 192,
            "midi": 62,
            "name": "D4",
            "ticks": 44736,
            "time": 43.6875,
            "velocity": 0.11811023622047244
          },
          {
            "duration": 0.1875,
            "durationTicks": 192,
            "midi": 62,
            "name": "D4",
            "ticks": 44928,
            "time": 43.875,
            "velocity": 0.11811023622047244
          },
          {
            "duration": 0.1875,
            "durationTicks": 192,
            "midi": 62,
            "name": "D4",
            "ticks": 45120,
            "time": 44.0625,
            "velocity": 0.11811023622047244
          },
          {
            "duration": 0.1875,
            "durationTicks": 192,
            "midi": 62,
            "name": "D4",
            "ticks": 45312,
            "time": 44.25,
            "velocity": 0.11811023622047244
          },
          {
            "duration": 0.1875,
            "durationTicks": 192,
            "midi": 62,
            "name": "D4",
            "ticks": 45504,
            "time": 44.4375,
            "velocity": 0.11811023622047244
          },
          {
            "duration": 0.1875,
            "durationTicks": 192,
            "midi": 62,
            "name": "D4",
            "ticks": 45696,
            "time": 44.625,
            "velocity": 0.11811023622047244
          },
          {
            "duration": 0.1875,
            "durationTicks": 192,
            "midi": 62,
            "name": "D4",
            "ticks": 45888,
            "time": 44.8125,
            "velocity": 0.11811023622047244
          },
          {
            "duration": 0.1875,
            "durationTicks": 192,
            "midi": 62,
            "name": "D4",
            "ticks": 46080,
            "time": 45,
            "velocity": 0.11811023622047244
          },
          {
            "duration": 0.1875,
            "durationTicks": 192,
            "midi": 62,
            "name": "D4",
            "ticks": 46272,
            "time": 45.1875,
            "velocity": 0.11811023622047244
          },
          {
            "duration": 0.1875,
            "durationTicks": 192,
            "midi": 62,
            "name": "D4",
            "ticks": 46464,
            "time": 45.375,
            "velocity": 0.11811023622047244
          },
          {
            "duration": 0.1875,
            "durationTicks": 192,
            "midi": 62,
            "name": "D4",
            "ticks": 46656,
            "time": 45.5625,
            "velocity": 0.11811023622047244
          },
          {
            "duration": 0.1875,
            "durationTicks": 192,
            "midi": 62,
            "name": "D4",
            "ticks": 46848,
            "time": 45.75,
            "velocity": 0.11811023622047244
          },
          {
            "duration": 0.1875,
            "durationTicks": 192,
            "midi": 62,
            "name": "D4",
            "ticks": 47040,
            "time": 45.9375,
            "velocity": 0.11811023622047244
          },
          {
            "duration": 0.1875,
            "durationTicks": 192,
            "midi": 62,
            "name": "D4",
            "ticks": 47232,
            "time": 46.125,
            "velocity": 0.11811023622047244
          },
          {
            "duration": 0.1875,
            "durationTicks": 192,
            "midi": 62,
            "name": "D4",
            "ticks": 47424,
            "time": 46.3125,
            "velocity": 0.11811023622047244
          },
          {
            "duration": 0.1875,
            "durationTicks": 192,
            "midi": 64,
            "name": "E4",
            "ticks": 47616,
            "time": 46.5,
            "velocity": 0.11811023622047244
          },
          {
            "duration": 0.1875,
            "durationTicks": 192,
            "midi": 64,
            "name": "E4",
            "ticks": 47808,
            "time": 46.6875,
            "velocity": 0.11811023622047244
          },
          {
            "duration": 0.1875,
            "durationTicks": 192,
            "midi": 64,
            "name": "E4",
            "ticks": 48000,
            "time": 46.875,
            "velocity": 0.11811023622047244
          },
          {
            "duration": 0.1875,
            "durationTicks": 192,
            "midi": 64,
            "name": "E4",
            "ticks": 48192,
            "time": 47.0625,
            "velocity": 0.11811023622047244
          },
          {
            "duration": 0.1875,
            "durationTicks": 192,
            "midi": 64,
            "name": "E4",
            "ticks": 48384,
            "time": 47.25,
            "velocity": 0.11811023622047244
          },
          {
            "duration": 0.1875,
            "durationTicks": 192,
            "midi": 64,
            "name": "E4",
            "ticks": 48576,
            "time": 47.4375,
            "velocity": 0.11811023622047244
          },
          {
            "duration": 0.1875,
            "durationTicks": 192,
            "midi": 64,
            "name": "E4",
            "ticks": 48768,
            "time": 47.625,
            "velocity": 0.11811023622047244
          },
          {
            "duration": 0.1875,
            "durationTicks": 192,
            "midi": 64,
            "name": "E4",
            "ticks": 48960,
            "time": 47.8125,
            "velocity": 0.11811023622047244
          },
          {
            "duration": 0.1875,
            "durationTicks": 192,
            "midi": 62,
            "name": "D4",
            "ticks": 49152,
            "time": 48,
            "velocity": 0.11811023622047244
          },
          {
            "duration": 0.1875,
            "durationTicks": 192,
            "midi": 62,
            "name": "D4",
            "ticks": 49344,
            "time": 48.1875,
            "velocity": 0.11811023622047244
          },
          {
            "duration": 0.1875,
            "durationTicks": 192,
            "midi": 62,
            "name": "D4",
            "ticks": 49536,
            "time": 48.375,
            "velocity": 0.11811023622047244
          },
          {
            "duration": 0.1875,
            "durationTicks": 192,
            "midi": 62,
            "name": "D4",
            "ticks": 49728,
            "time": 48.5625,
            "velocity": 0.11811023622047244
          },
          {
            "duration": 0.1875,
            "durationTicks": 192,
            "midi": 62,
            "name": "D4",
            "ticks": 49920,
            "time": 48.75,
            "velocity": 0.11811023622047244
          },
          {
            "duration": 0.1875,
            "durationTicks": 192,
            "midi": 62,
            "name": "D4",
            "ticks": 50112,
            "time": 48.9375,
            "velocity": 0.11811023622047244
          },
          {
            "duration": 0.1875,
            "durationTicks": 192,
            "midi": 62,
            "name": "D4",
            "ticks": 50304,
            "time": 49.125,
            "velocity": 0.11811023622047244
          },
          {
            "duration": 0.1875,
            "durationTicks": 192,
            "midi": 62,
            "name": "D4",
            "ticks": 50496,
            "time": 49.3125,
            "velocity": 0.11811023622047244
          },
          {
            "duration": 0.1875,
            "durationTicks": 192,
            "midi": 62,
            "name": "D4",
            "ticks": 50688,
            "time": 49.5,
            "velocity": 0.11811023622047244
          },
          {
            "duration": 0.1875,
            "durationTicks": 192,
            "midi": 62,
            "name": "D4",
            "ticks": 50880,
            "time": 49.6875,
            "velocity": 0.11811023622047244
          },
          {
            "duration": 0.1875,
            "durationTicks": 192,
            "midi": 62,
            "name": "D4",
            "ticks": 51072,
            "time": 49.875,
            "velocity": 0.11811023622047244
          },
          {
            "duration": 0.1875,
            "durationTicks": 192,
            "midi": 62,
            "name": "D4",
            "ticks": 51264,
            "time": 50.0625,
            "velocity": 0.11811023622047244
          },
          {
            "duration": 0.1875,
            "durationTicks": 192,
            "midi": 62,
            "name": "D4",
            "ticks": 51456,
            "time": 50.25,
            "velocity": 0.11811023622047244
          },
          {
            "duration": 0.1875,
            "durationTicks": 192,
            "midi": 62,
            "name": "D4",
            "ticks": 51648,
            "time": 50.4375,
            "velocity": 0.11811023622047244
          }
        ],
        "endOfTrackTicks": 51840
      }
    ]
  }