{
    "header": {
      "keySignatures": [
        {
          "key": "C",
          "scale": "major",
          "ticks": 0
        }
      ],
      "meta": [],
      "name": "",
      "ppq": 120,
      "tempos": [
        {
          "bpm": 125,
          "ticks": 0
        }
      ],
      "timeSignatures": [
        {
          "ticks": 0,
          "timeSignature": [
            4,
            4
          ],
          "measures": 0
        }
      ]
    },
    "tracks": [
      {
        "channel": 0,
        "controlChanges": {
          "7": [
            {
              "number": 7,
              "ticks": 0,
              "time": 0,
              "value": 0.8661417322834646
            }
          ]
        },
        "pitchBends": [],
        "instrument": {
          "family": "synth lead",
          "number": 87,
          "name": "lead 8 (bass + lead)"
        },
        "name": "Bass",
        "notes": [
          {
            "duration": 0.112,
            "durationTicks": 28,
            "midi": 36,
            "name": "C2",
            "ticks": 0,
            "time": 0,
            "velocity": 0.5905511811023622
          },
          {
            "duration": 0.11599999999999999,
            "durationTicks": 29,
            "midi": 48,
            "name": "C3",
            "ticks": 60,
            "time": 0.24,
            "velocity": 0.5118110236220472
          },
          {
            "duration": 0.124,
            "durationTicks": 31,
            "midi": 36,
            "name": "C2",
            "ticks": 120,
            "time": 0.48,
            "velocity": 0.47244094488188976
          },
          {
            "duration": 0.11199999999999999,
            "durationTicks": 28,
            "midi": 48,
            "name": "C3",
            "ticks": 180,
            "time": 0.72,
            "velocity": 0.5275590551181102
          },
          {
            "duration": 0.12399999999999989,
            "durationTicks": 31,
            "midi": 36,
            "name": "C2",
            "ticks": 240,
            "time": 0.96,
            "velocity": 0.4881889763779528
          },
          {
            "duration": 0.1359999999999999,
            "durationTicks": 34,
            "midi": 48,
            "name": "C3",
            "ticks": 300,
            "time": 1.2,
            "velocity": 0.5669291338582677
          },
          {
            "duration": 0.1120000000000001,
            "durationTicks": 28,
            "midi": 36,
            "name": "C2",
            "ticks": 360,
            "time": 1.44,
            "velocity": 0.5118110236220472
          },
          {
            "duration": 0.07599999999999985,
            "durationTicks": 19,
            "midi": 48,
            "name": "C3",
            "ticks": 420,
            "time": 1.68,
            "velocity": 0.5905511811023622
          },
          {
            "duration": 0.1120000000000001,
            "durationTicks": 28,
            "midi": 36,
            "name": "C2",
            "ticks": 480,
            "time": 1.92,
            "velocity": 0.5905511811023622
          },
          {
            "duration": 0.11599999999999966,
            "durationTicks": 29,
            "midi": 48,
            "name": "C3",
            "ticks": 540,
            "time": 2.16,
            "velocity": 0.5118110236220472
          },
          {
            "duration": 0.12400000000000011,
            "durationTicks": 31,
            "midi": 36,
            "name": "C2",
            "ticks": 600,
            "time": 2.4,
            "velocity": 0.47244094488188976
          },
          {
            "duration": 0.1120000000000001,
            "durationTicks": 28,
            "midi": 48,
            "name": "C3",
            "ticks": 660,
            "time": 2.6399999999999997,
            "velocity": 0.5275590551181102
          },
          {
            "duration": 0.12400000000000011,
            "durationTicks": 31,
            "midi": 36,
            "name": "C2",
            "ticks": 720,
            "time": 2.88,
            "velocity": 0.4881889763779528
          },
          {
            "duration": 0.13599999999999968,
            "durationTicks": 34,
            "midi": 48,
            "name": "C3",
            "ticks": 780,
            "time": 3.12,
            "velocity": 0.5669291338582677
          },
          {
            "duration": 0.1120000000000001,
            "durationTicks": 28,
            "midi": 36,
            "name": "C2",
            "ticks": 840,
            "time": 3.36,
            "velocity": 0.5118110236220472
          },
          {
            "duration": 0.07600000000000007,
            "durationTicks": 19,
            "midi": 48,
            "name": "C3",
            "ticks": 900,
            "time": 3.5999999999999996,
            "velocity": 0.5905511811023622
          },
          {
            "duration": 0.11199999999999966,
            "durationTicks": 28,
            "midi": 36,
            "name": "C2",
            "ticks": 960,
            "time": 3.84,
            "velocity": 0.5905511811023622
          },
          {
            "duration": 0.11599999999999966,
            "durationTicks": 29,
            "midi": 48,
            "name": "C3",
            "ticks": 1020,
            "time": 4.08,
            "velocity": 0.5118110236220472
          },
          {
            "duration": 0.12399999999999967,
            "durationTicks": 31,
            "midi": 36,
            "name": "C2",
            "ticks": 1080,
            "time": 4.32,
            "velocity": 0.47244094488188976
          },
          {
            "duration": 0.1120000000000001,
            "durationTicks": 28,
            "midi": 48,
            "name": "C3",
            "ticks": 1140,
            "time": 4.56,
            "velocity": 0.5275590551181102
          },
          {
            "duration": 0.12399999999999967,
            "durationTicks": 31,
            "midi": 36,
            "name": "C2",
            "ticks": 1200,
            "time": 4.8,
            "velocity": 0.4881889763779528
          },
          {
            "duration": 0.13600000000000012,
            "durationTicks": 34,
            "midi": 48,
            "name": "C3",
            "ticks": 1260,
            "time": 5.04,
            "velocity": 0.5669291338582677
          },
          {
            "duration": 0.1120000000000001,
            "durationTicks": 28,
            "midi": 36,
            "name": "C2",
            "ticks": 1320,
            "time": 5.279999999999999,
            "velocity": 0.5118110236220472
          },
          {
            "duration": 0.07600000000000051,
            "durationTicks": 19,
            "midi": 48,
            "name": "C3",
            "ticks": 1380,
            "time": 5.52,
            "velocity": 0.5905511811023622
          },
          {
            "duration": 0.11199999999999921,
            "durationTicks": 28,
            "midi": 36,
            "name": "C2",
            "ticks": 1440,
            "time": 5.76,
            "velocity": 0.5905511811023622
          },
          {
            "duration": 0.11599999999999966,
            "durationTicks": 29,
            "midi": 48,
            "name": "C3",
            "ticks": 1500,
            "time": 6,
            "velocity": 0.5118110236220472
          },
          {
            "duration": 0.12399999999999967,
            "durationTicks": 31,
            "midi": 36,
            "name": "C2",
            "ticks": 1560,
            "time": 6.24,
            "velocity": 0.47244094488188976
          },
          {
            "duration": 0.1120000000000001,
            "durationTicks": 28,
            "midi": 48,
            "name": "C3",
            "ticks": 1620,
            "time": 6.4799999999999995,
            "velocity": 0.5275590551181102
          },
          {
            "duration": 0.12399999999999967,
            "durationTicks": 31,
            "midi": 36,
            "name": "C2",
            "ticks": 1680,
            "time": 6.72,
            "velocity": 0.4881889763779528
          },
          {
            "duration": 0.13600000000000012,
            "durationTicks": 34,
            "midi": 48,
            "name": "C3",
            "ticks": 1740,
            "time": 6.96,
            "velocity": 0.5669291338582677
          },
          {
            "duration": 0.1120000000000001,
            "durationTicks": 28,
            "midi": 36,
            "name": "C2",
            "ticks": 1800,
            "time": 7.199999999999999,
            "velocity": 0.5118110236220472
          },
          {
            "duration": 0.07600000000000051,
            "durationTicks": 19,
            "midi": 48,
            "name": "C3",
            "ticks": 1860,
            "time": 7.4399999999999995,
            "velocity": 0.5905511811023622
          },
          {
            "duration": 0.1120000000000001,
            "durationTicks": 28,
            "midi": 36,
            "name": "C2",
            "ticks": 1920,
            "time": 7.68,
            "velocity": 0.5905511811023622
          },
          {
            "duration": 0.11599999999999966,
            "durationTicks": 29,
            "midi": 48,
            "name": "C3",
            "ticks": 1980,
            "time": 7.92,
            "velocity": 0.5118110236220472
          },
          {
            "duration": 0.12399999999999878,
            "durationTicks": 31,
            "midi": 36,
            "name": "C2",
            "ticks": 2040,
            "time": 8.16,
            "velocity": 0.47244094488188976
          },
          {
            "duration": 0.1120000000000001,
            "durationTicks": 28,
            "midi": 48,
            "name": "C3",
            "ticks": 2100,
            "time": 8.4,
            "velocity": 0.5275590551181102
          },
          {
            "duration": 0.12399999999999878,
            "durationTicks": 31,
            "midi": 36,
            "name": "C2",
            "ticks": 2160,
            "time": 8.64,
            "velocity": 0.4881889763779528
          },
          {
            "duration": 0.136000000000001,
            "durationTicks": 34,
            "midi": 48,
            "name": "C3",
            "ticks": 2220,
            "time": 8.879999999999999,
            "velocity": 0.5669291338582677
          },
          {
            "duration": 0.1120000000000001,
            "durationTicks": 28,
            "midi": 36,
            "name": "C2",
            "ticks": 2280,
            "time": 9.12,
            "velocity": 0.5118110236220472
          },
          {
            "duration": 0.07600000000000051,
            "durationTicks": 19,
            "midi": 48,
            "name": "C3",
            "ticks": 2340,
            "time": 9.36,
            "velocity": 0.5905511811023622
          },
          {
            "duration": 0.1120000000000001,
            "durationTicks": 28,
            "midi": 36,
            "name": "C2",
            "ticks": 2400,
            "time": 9.6,
            "velocity": 0.5905511811023622
          },
          {
            "duration": 0.11599999999999966,
            "durationTicks": 29,
            "midi": 48,
            "name": "C3",
            "ticks": 2460,
            "time": 9.84,
            "velocity": 0.5118110236220472
          },
          {
            "duration": 0.12399999999999878,
            "durationTicks": 31,
            "midi": 36,
            "name": "C2",
            "ticks": 2520,
            "time": 10.08,
            "velocity": 0.47244094488188976
          },
          {
            "duration": 0.1120000000000001,
            "durationTicks": 28,
            "midi": 48,
            "name": "C3",
            "ticks": 2580,
            "time": 10.32,
            "velocity": 0.5275590551181102
          },
          {
            "duration": 0.12400000000000055,
            "durationTicks": 31,
            "midi": 36,
            "name": "C2",
            "ticks": 2640,
            "time": 10.559999999999999,
            "velocity": 0.4881889763779528
          },
          {
            "duration": 0.136000000000001,
            "durationTicks": 34,
            "midi": 48,
            "name": "C3",
            "ticks": 2700,
            "time": 10.799999999999999,
            "velocity": 0.5669291338582677
          },
          {
            "duration": 0.1120000000000001,
            "durationTicks": 28,
            "midi": 36,
            "name": "C2",
            "ticks": 2760,
            "time": 11.04,
            "velocity": 0.5118110236220472
          },
          {
            "duration": 0.07600000000000051,
            "durationTicks": 19,
            "midi": 48,
            "name": "C3",
            "ticks": 2820,
            "time": 11.28,
            "velocity": 0.5905511811023622
          },
          {
            "duration": 0.1120000000000001,
            "durationTicks": 28,
            "midi": 36,
            "name": "C2",
            "ticks": 2880,
            "time": 11.52,
            "velocity": 0.5905511811023622
          },
          {
            "duration": 0.11599999999999966,
            "durationTicks": 29,
            "midi": 48,
            "name": "C3",
            "ticks": 2940,
            "time": 11.76,
            "velocity": 0.5118110236220472
          },
          {
            "duration": 0.12399999999999878,
            "durationTicks": 31,
            "midi": 36,
            "name": "C2",
            "ticks": 3000,
            "time": 12,
            "velocity": 0.47244094488188976
          },
          {
            "duration": 0.1120000000000001,
            "durationTicks": 28,
            "midi": 48,
            "name": "C3",
            "ticks": 3060,
            "time": 12.24,
            "velocity": 0.5275590551181102
          },
          {
            "duration": 0.12399999999999878,
            "durationTicks": 31,
            "midi": 36,
            "name": "C2",
            "ticks": 3120,
            "time": 12.48,
            "velocity": 0.4881889763779528
          },
          {
            "duration": 0.136000000000001,
            "durationTicks": 34,
            "midi": 48,
            "name": "C3",
            "ticks": 3180,
            "time": 12.719999999999999,
            "velocity": 0.5669291338582677
          },
          {
            "duration": 0.1120000000000001,
            "durationTicks": 28,
            "midi": 36,
            "name": "C2",
            "ticks": 3240,
            "time": 12.959999999999999,
            "velocity": 0.5118110236220472
          },
          {
            "duration": 0.07600000000000051,
            "durationTicks": 19,
            "midi": 48,
            "name": "C3",
            "ticks": 3300,
            "time": 13.2,
            "velocity": 0.5905511811023622
          },
          {
            "duration": 0.1120000000000001,
            "durationTicks": 28,
            "midi": 36,
            "name": "C2",
            "ticks": 3360,
            "time": 13.44,
            "velocity": 0.5905511811023622
          },
          {
            "duration": 0.11599999999999966,
            "durationTicks": 29,
            "midi": 48,
            "name": "C3",
            "ticks": 3420,
            "time": 13.68,
            "velocity": 0.5118110236220472
          },
          {
            "duration": 0.12399999999999878,
            "durationTicks": 31,
            "midi": 36,
            "name": "C2",
            "ticks": 3480,
            "time": 13.92,
            "velocity": 0.47244094488188976
          },
          {
            "duration": 0.1120000000000001,
            "durationTicks": 28,
            "midi": 48,
            "name": "C3",
            "ticks": 3540,
            "time": 14.16,
            "velocity": 0.5275590551181102
          },
          {
            "duration": 0.12400000000000055,
            "durationTicks": 31,
            "midi": 36,
            "name": "C2",
            "ticks": 3600,
            "time": 14.399999999999999,
            "velocity": 0.4881889763779528
          },
          {
            "duration": 0.136000000000001,
            "durationTicks": 34,
            "midi": 48,
            "name": "C3",
            "ticks": 3660,
            "time": 14.639999999999999,
            "velocity": 0.5669291338582677
          },
          {
            "duration": 0.1120000000000001,
            "durationTicks": 28,
            "midi": 36,
            "name": "C2",
            "ticks": 3720,
            "time": 14.879999999999999,
            "velocity": 0.5118110236220472
          },
          {
            "duration": 0.07600000000000051,
            "durationTicks": 19,
            "midi": 48,
            "name": "C3",
            "ticks": 3780,
            "time": 15.12,
            "velocity": 0.5905511811023622
          },
          {
            "duration": 0.1120000000000001,
            "durationTicks": 28,
            "midi": 36,
            "name": "C2",
            "ticks": 3840,
            "time": 15.36,
            "velocity": 0.5905511811023622
          },
          {
            "duration": 0.11599999999999966,
            "durationTicks": 29,
            "midi": 48,
            "name": "C3",
            "ticks": 3900,
            "time": 15.6,
            "velocity": 0.5118110236220472
          },
          {
            "duration": 0.12399999999999878,
            "durationTicks": 31,
            "midi": 36,
            "name": "C2",
            "ticks": 3960,
            "time": 15.84,
            "velocity": 0.47244094488188976
          },
          {
            "duration": 0.11200000000000188,
            "durationTicks": 28,
            "midi": 48,
            "name": "C3",
            "ticks": 4020,
            "time": 16.08,
            "velocity": 0.5275590551181102
          },
          {
            "duration": 0.12399999999999878,
            "durationTicks": 31,
            "midi": 36,
            "name": "C2",
            "ticks": 4080,
            "time": 16.32,
            "velocity": 0.4881889763779528
          },
          {
            "duration": 0.13599999999999923,
            "durationTicks": 34,
            "midi": 48,
            "name": "C3",
            "ticks": 4140,
            "time": 16.56,
            "velocity": 0.5669291338582677
          },
          {
            "duration": 0.11199999999999832,
            "durationTicks": 28,
            "midi": 36,
            "name": "C2",
            "ticks": 4200,
            "time": 16.8,
            "velocity": 0.5118110236220472
          },
          {
            "duration": 0.07600000000000051,
            "durationTicks": 19,
            "midi": 48,
            "name": "C3",
            "ticks": 4260,
            "time": 17.04,
            "velocity": 0.5905511811023622
          },
          {
            "duration": 0.11199999999999832,
            "durationTicks": 28,
            "midi": 36,
            "name": "C2",
            "ticks": 4320,
            "time": 17.28,
            "velocity": 0.5905511811023622
          },
          {
            "duration": 0.11599999999999966,
            "durationTicks": 29,
            "midi": 48,
            "name": "C3",
            "ticks": 4380,
            "time": 17.52,
            "velocity": 0.5118110236220472
          },
          {
            "duration": 0.12400000000000233,
            "durationTicks": 31,
            "midi": 36,
            "name": "C2",
            "ticks": 4440,
            "time": 17.759999999999998,
            "velocity": 0.47244094488188976
          },
          {
            "duration": 0.11199999999999832,
            "durationTicks": 28,
            "midi": 48,
            "name": "C3",
            "ticks": 4500,
            "time": 18,
            "velocity": 0.5275590551181102
          },
          {
            "duration": 0.12400000000000233,
            "durationTicks": 31,
            "midi": 36,
            "name": "C2",
            "ticks": 4560,
            "time": 18.24,
            "velocity": 0.4881889763779528
          },
          {
            "duration": 0.13599999999999923,
            "durationTicks": 34,
            "midi": 48,
            "name": "C3",
            "ticks": 4620,
            "time": 18.48,
            "velocity": 0.5669291338582677
          },
          {
            "duration": 0.11200000000000188,
            "durationTicks": 28,
            "midi": 36,
            "name": "C2",
            "ticks": 4680,
            "time": 18.72,
            "velocity": 0.5118110236220472
          },
          {
            "duration": 0.07599999999999696,
            "durationTicks": 19,
            "midi": 48,
            "name": "C3",
            "ticks": 4740,
            "time": 18.96,
            "velocity": 0.5905511811023622
          },
          {
            "duration": 0.11200000000000188,
            "durationTicks": 28,
            "midi": 36,
            "name": "C2",
            "ticks": 4800,
            "time": 19.2,
            "velocity": 0.5905511811023622
          },
          {
            "duration": 0.11600000000000321,
            "durationTicks": 29,
            "midi": 48,
            "name": "C3",
            "ticks": 4860,
            "time": 19.439999999999998,
            "velocity": 0.5118110236220472
          },
          {
            "duration": 0.12399999999999878,
            "durationTicks": 31,
            "midi": 36,
            "name": "C2",
            "ticks": 4920,
            "time": 19.68,
            "velocity": 0.47244094488188976
          },
          {
            "duration": 0.11200000000000188,
            "durationTicks": 28,
            "midi": 48,
            "name": "C3",
            "ticks": 4980,
            "time": 19.919999999999998,
            "velocity": 0.5275590551181102
          },
          {
            "duration": 0.12399999999999878,
            "durationTicks": 31,
            "midi": 36,
            "name": "C2",
            "ticks": 5040,
            "time": 20.16,
            "velocity": 0.4881889763779528
          },
          {
            "duration": 0.13599999999999923,
            "durationTicks": 34,
            "midi": 48,
            "name": "C3",
            "ticks": 5100,
            "time": 20.4,
            "velocity": 0.5669291338582677
          },
          {
            "duration": 0.11199999999999832,
            "durationTicks": 28,
            "midi": 36,
            "name": "C2",
            "ticks": 5160,
            "time": 20.64,
            "velocity": 0.5118110236220472
          },
          {
            "duration": 0.07600000000000051,
            "durationTicks": 19,
            "midi": 48,
            "name": "C3",
            "ticks": 5220,
            "time": 20.88,
            "velocity": 0.5905511811023622
          },
          {
            "duration": 0.11200000000000188,
            "durationTicks": 28,
            "midi": 36,
            "name": "C2",
            "ticks": 5280,
            "time": 21.119999999999997,
            "velocity": 0.5905511811023622
          },
          {
            "duration": 0.11599999999999966,
            "durationTicks": 29,
            "midi": 48,
            "name": "C3",
            "ticks": 5340,
            "time": 21.36,
            "velocity": 0.5118110236220472
          },
          {
            "duration": 0.12400000000000233,
            "durationTicks": 31,
            "midi": 36,
            "name": "C2",
            "ticks": 5400,
            "time": 21.599999999999998,
            "velocity": 0.47244094488188976
          },
          {
            "duration": 0.11199999999999832,
            "durationTicks": 28,
            "midi": 48,
            "name": "C3",
            "ticks": 5460,
            "time": 21.84,
            "velocity": 0.5275590551181102
          },
          {
            "duration": 0.12400000000000233,
            "durationTicks": 31,
            "midi": 36,
            "name": "C2",
            "ticks": 5520,
            "time": 22.08,
            "velocity": 0.4881889763779528
          },
          {
            "duration": 0.13599999999999923,
            "durationTicks": 34,
            "midi": 48,
            "name": "C3",
            "ticks": 5580,
            "time": 22.32,
            "velocity": 0.5669291338582677
          },
          {
            "duration": 0.11200000000000188,
            "durationTicks": 28,
            "midi": 36,
            "name": "C2",
            "ticks": 5640,
            "time": 22.56,
            "velocity": 0.5118110236220472
          },
          {
            "duration": 0.07599999999999696,
            "durationTicks": 19,
            "midi": 48,
            "name": "C3",
            "ticks": 5700,
            "time": 22.8,
            "velocity": 0.5905511811023622
          },
          {
            "duration": 0.11200000000000188,
            "durationTicks": 28,
            "midi": 36,
            "name": "C2",
            "ticks": 5760,
            "time": 23.04,
            "velocity": 0.5905511811023622
          },
          {
            "duration": 0.11600000000000321,
            "durationTicks": 29,
            "midi": 48,
            "name": "C3",
            "ticks": 5820,
            "time": 23.279999999999998,
            "velocity": 0.5118110236220472
          },
          {
            "duration": 0.12399999999999878,
            "durationTicks": 31,
            "midi": 36,
            "name": "C2",
            "ticks": 5880,
            "time": 23.52,
            "velocity": 0.47244094488188976
          },
          {
            "duration": 0.11200000000000188,
            "durationTicks": 28,
            "midi": 48,
            "name": "C3",
            "ticks": 5940,
            "time": 23.759999999999998,
            "velocity": 0.5275590551181102
          },
          {
            "duration": 0.12399999999999878,
            "durationTicks": 31,
            "midi": 36,
            "name": "C2",
            "ticks": 6000,
            "time": 24,
            "velocity": 0.4881889763779528
          },
          {
            "duration": 0.13599999999999923,
            "durationTicks": 34,
            "midi": 48,
            "name": "C3",
            "ticks": 6060,
            "time": 24.24,
            "velocity": 0.5669291338582677
          },
          {
            "duration": 0.11199999999999832,
            "durationTicks": 28,
            "midi": 36,
            "name": "C2",
            "ticks": 6120,
            "time": 24.48,
            "velocity": 0.5118110236220472
          },
          {
            "duration": 0.07600000000000051,
            "durationTicks": 19,
            "midi": 48,
            "name": "C3",
            "ticks": 6180,
            "time": 24.72,
            "velocity": 0.5905511811023622
          },
          {
            "duration": 0.11199999999999832,
            "durationTicks": 28,
            "midi": 36,
            "name": "C2",
            "ticks": 6240,
            "time": 24.96,
            "velocity": 0.5905511811023622
          },
          {
            "duration": 0.11599999999999966,
            "durationTicks": 29,
            "midi": 48,
            "name": "C3",
            "ticks": 6300,
            "time": 25.2,
            "velocity": 0.5118110236220472
          },
          {
            "duration": 0.12400000000000233,
            "durationTicks": 31,
            "midi": 36,
            "name": "C2",
            "ticks": 6360,
            "time": 25.439999999999998,
            "velocity": 0.47244094488188976
          },
          {
            "duration": 0.11199999999999832,
            "durationTicks": 28,
            "midi": 48,
            "name": "C3",
            "ticks": 6420,
            "time": 25.68,
            "velocity": 0.5275590551181102
          },
          {
            "duration": 0.12400000000000233,
            "durationTicks": 31,
            "midi": 36,
            "name": "C2",
            "ticks": 6480,
            "time": 25.919999999999998,
            "velocity": 0.4881889763779528
          },
          {
            "duration": 0.13599999999999923,
            "durationTicks": 34,
            "midi": 48,
            "name": "C3",
            "ticks": 6540,
            "time": 26.16,
            "velocity": 0.5669291338582677
          },
          {
            "duration": 0.11200000000000188,
            "durationTicks": 28,
            "midi": 36,
            "name": "C2",
            "ticks": 6600,
            "time": 26.4,
            "velocity": 0.5118110236220472
          },
          {
            "duration": 0.07599999999999696,
            "durationTicks": 19,
            "midi": 48,
            "name": "C3",
            "ticks": 6660,
            "time": 26.64,
            "velocity": 0.5905511811023622
          },
          {
            "duration": 0.11600000000000321,
            "durationTicks": 29,
            "midi": 43,
            "name": "G2",
            "ticks": 6719,
            "time": 26.875999999999998,
            "velocity": 0.5433070866141733
          },
          {
            "duration": 0.12399999999999878,
            "durationTicks": 31,
            "midi": 43,
            "name": "G2",
            "ticks": 6720,
            "time": 26.88,
            "velocity": 0.5275590551181102
          },
          {
            "duration": 0.1280000000000001,
            "durationTicks": 32,
            "midi": 55,
            "name": "G3",
            "ticks": 6780,
            "time": 27.119999999999997,
            "velocity": 0.47244094488188976
          },
          {
            "duration": 0.120000000000001,
            "durationTicks": 30,
            "midi": 43,
            "name": "G2",
            "ticks": 6840,
            "time": 27.36,
            "velocity": 0.4645669291338583
          },
          {
            "duration": 0.14399999999999835,
            "durationTicks": 36,
            "midi": 55,
            "name": "G3",
            "ticks": 6900,
            "time": 27.599999999999998,
            "velocity": 0.47244094488188976
          },
          {
            "duration": 0.1280000000000001,
            "durationTicks": 32,
            "midi": 43,
            "name": "G2",
            "ticks": 6960,
            "time": 27.84,
            "velocity": 0.4645669291338583
          },
          {
            "duration": 0.14399999999999835,
            "durationTicks": 36,
            "midi": 55,
            "name": "G3",
            "ticks": 7020,
            "time": 28.08,
            "velocity": 0.47244094488188976
          },
          {
            "duration": 0.10800000000000054,
            "durationTicks": 27,
            "midi": 43,
            "name": "G2",
            "ticks": 7080,
            "time": 28.32,
            "velocity": 0.5275590551181102
          },
          {
            "duration": 0.08799999999999741,
            "durationTicks": 22,
            "midi": 55,
            "name": "G3",
            "ticks": 7140,
            "time": 28.56,
            "velocity": 0.5039370078740157
          },
          {
            "duration": 0.11200000000000188,
            "durationTicks": 28,
            "midi": 43,
            "name": "G2",
            "ticks": 7200,
            "time": 28.799999999999997,
            "velocity": 0.5275590551181102
          },
          {
            "duration": 0.1280000000000001,
            "durationTicks": 32,
            "midi": 55,
            "name": "G3",
            "ticks": 7260,
            "time": 29.04,
            "velocity": 0.47244094488188976
          },
          {
            "duration": 0.120000000000001,
            "durationTicks": 30,
            "midi": 43,
            "name": "G2",
            "ticks": 7320,
            "time": 29.279999999999998,
            "velocity": 0.4645669291338583
          },
          {
            "duration": 0.14399999999999835,
            "durationTicks": 36,
            "midi": 55,
            "name": "G3",
            "ticks": 7380,
            "time": 29.52,
            "velocity": 0.47244094488188976
          },
          {
            "duration": 0.1280000000000001,
            "durationTicks": 32,
            "midi": 43,
            "name": "G2",
            "ticks": 7440,
            "time": 29.759999999999998,
            "velocity": 0.4645669291338583
          },
          {
            "duration": 0.14399999999999835,
            "durationTicks": 36,
            "midi": 55,
            "name": "G3",
            "ticks": 7500,
            "time": 30,
            "velocity": 0.47244094488188976
          },
          {
            "duration": 0.10800000000000054,
            "durationTicks": 27,
            "midi": 43,
            "name": "G2",
            "ticks": 7560,
            "time": 30.24,
            "velocity": 0.5275590551181102
          },
          {
            "duration": 0.08799999999999741,
            "durationTicks": 22,
            "midi": 55,
            "name": "G3",
            "ticks": 7620,
            "time": 30.48,
            "velocity": 0.5039370078740157
          },
          {
            "duration": 0.11200000000000188,
            "durationTicks": 28,
            "midi": 43,
            "name": "G2",
            "ticks": 7680,
            "time": 30.72,
            "velocity": 0.5275590551181102
          },
          {
            "duration": 0.1280000000000001,
            "durationTicks": 32,
            "midi": 55,
            "name": "G3",
            "ticks": 7740,
            "time": 30.959999999999997,
            "velocity": 0.47244094488188976
          },
          {
            "duration": 0.120000000000001,
            "durationTicks": 30,
            "midi": 43,
            "name": "G2",
            "ticks": 7800,
            "time": 31.2,
            "velocity": 0.4645669291338583
          },
          {
            "duration": 0.14399999999999835,
            "durationTicks": 36,
            "midi": 55,
            "name": "G3",
            "ticks": 7860,
            "time": 31.439999999999998,
            "velocity": 0.47244094488188976
          },
          {
            "duration": 0.1280000000000001,
            "durationTicks": 32,
            "midi": 43,
            "name": "G2",
            "ticks": 7920,
            "time": 31.68,
            "velocity": 0.4645669291338583
          },
          {
            "duration": 0.1440000000000019,
            "durationTicks": 36,
            "midi": 55,
            "name": "G3",
            "ticks": 7980,
            "time": 31.919999999999998,
            "velocity": 0.47244094488188976
          },
          {
            "duration": 0.10799999999999699,
            "durationTicks": 27,
            "midi": 43,
            "name": "G2",
            "ticks": 8040,
            "time": 32.16,
            "velocity": 0.5275590551181102
          },
          {
            "duration": 0.08800000000000097,
            "durationTicks": 22,
            "midi": 55,
            "name": "G3",
            "ticks": 8100,
            "time": 32.4,
            "velocity": 0.5039370078740157
          },
          {
            "duration": 0.11200000000000188,
            "durationTicks": 28,
            "midi": 43,
            "name": "G2",
            "ticks": 8160,
            "time": 32.64,
            "velocity": 0.5275590551181102
          },
          {
            "duration": 0.1280000000000001,
            "durationTicks": 32,
            "midi": 55,
            "name": "G3",
            "ticks": 8220,
            "time": 32.879999999999995,
            "velocity": 0.47244094488188976
          },
          {
            "duration": 0.12000000000000455,
            "durationTicks": 30,
            "midi": 43,
            "name": "G2",
            "ticks": 8280,
            "time": 33.12,
            "velocity": 0.4645669291338583
          },
          {
            "duration": 0.14399999999999835,
            "durationTicks": 36,
            "midi": 55,
            "name": "G3",
            "ticks": 8340,
            "time": 33.36,
            "velocity": 0.47244094488188976
          },
          {
            "duration": 0.1280000000000001,
            "durationTicks": 32,
            "midi": 43,
            "name": "G2",
            "ticks": 8400,
            "time": 33.6,
            "velocity": 0.4645669291338583
          },
          {
            "duration": 0.14399999999999835,
            "durationTicks": 36,
            "midi": 55,
            "name": "G3",
            "ticks": 8460,
            "time": 33.839999999999996,
            "velocity": 0.47244094488188976
          },
          {
            "duration": 0.10799999999999699,
            "durationTicks": 27,
            "midi": 43,
            "name": "G2",
            "ticks": 8520,
            "time": 34.08,
            "velocity": 0.5275590551181102
          },
          {
            "duration": 0.08800000000000097,
            "durationTicks": 22,
            "midi": 55,
            "name": "G3",
            "ticks": 8580,
            "time": 34.32,
            "velocity": 0.5039370078740157
          },
          {
            "duration": 0.1039999999999992,
            "durationTicks": 26,
            "midi": 43,
            "name": "G2",
            "ticks": 8640,
            "time": 34.56,
            "velocity": 0.5433070866141733
          },
          {
            "duration": 0.14000000000000057,
            "durationTicks": 35,
            "midi": 55,
            "name": "G3",
            "ticks": 8700,
            "time": 34.8,
            "velocity": 0.44881889763779526
          },
          {
            "duration": 0.11599999999999966,
            "durationTicks": 29,
            "midi": 43,
            "name": "G2",
            "ticks": 8760,
            "time": 35.04,
            "velocity": 0.49606299212598426
          },
          {
            "duration": 0.14399999999999835,
            "durationTicks": 36,
            "midi": 55,
            "name": "G3",
            "ticks": 8820,
            "time": 35.28,
            "velocity": 0.44881889763779526
          },
          {
            "duration": 0.10799999999999699,
            "durationTicks": 27,
            "midi": 41,
            "name": "F2",
            "ticks": 8880,
            "time": 35.519999999999996,
            "velocity": 0.47244094488188976
          },
          {
            "duration": 0.11999999999999744,
            "durationTicks": 30,
            "midi": 53,
            "name": "F3",
            "ticks": 8940,
            "time": 35.76,
            "velocity": 0.47244094488188976
          },
          {
            "duration": 0.1039999999999992,
            "durationTicks": 26,
            "midi": 41,
            "name": "F2",
            "ticks": 9000,
            "time": 36,
            "velocity": 0.47244094488188976
          },
          {
            "duration": 0.16799999999999216,
            "durationTicks": 42,
            "midi": 53,
            "name": "F3",
            "ticks": 9060,
            "time": 36.24,
            "velocity": 0.4566929133858268
          },
          {
            "duration": 0.10000000000000142,
            "durationTicks": 25,
            "midi": 40,
            "name": "E2",
            "ticks": 9120,
            "time": 36.48,
            "velocity": 0.4645669291338583
          },
          {
            "duration": 0.13599999999999568,
            "durationTicks": 34,
            "midi": 52,
            "name": "E3",
            "ticks": 9180,
            "time": 36.72,
            "velocity": 0.49606299212598426
          },
          {
            "duration": 0.1319999999999979,
            "durationTicks": 33,
            "midi": 40,
            "name": "E2",
            "ticks": 9240,
            "time": 36.96,
            "velocity": 0.4645669291338583
          },
          {
            "duration": 0.15200000000000102,
            "durationTicks": 38,
            "midi": 52,
            "name": "E3",
            "ticks": 9300,
            "time": 37.199999999999996,
            "velocity": 0.5039370078740157
          },
          {
            "duration": 0.14000000000000057,
            "durationTicks": 35,
            "midi": 38,
            "name": "D2",
            "ticks": 9360,
            "time": 37.44,
            "velocity": 0.4645669291338583
          },
          {
            "duration": 0.14399999999999835,
            "durationTicks": 36,
            "midi": 50,
            "name": "D3",
            "ticks": 9420,
            "time": 37.68,
            "velocity": 0.4881889763779528
          },
          {
            "duration": 0.14000000000000057,
            "durationTicks": 35,
            "midi": 38,
            "name": "D2",
            "ticks": 9480,
            "time": 37.92,
            "velocity": 0.47244094488188976
          },
          {
            "duration": 0.10000000000000142,
            "durationTicks": 25,
            "midi": 50,
            "name": "D3",
            "ticks": 9540,
            "time": 38.16,
            "velocity": 0.5433070866141733
          },
          {
            "duration": 0.11200000000000188,
            "durationTicks": 28,
            "midi": 36,
            "name": "C2",
            "ticks": 9600,
            "time": 38.4,
            "velocity": 0.5905511811023622
          },
          {
            "duration": 0.11599999999999255,
            "durationTicks": 29,
            "midi": 48,
            "name": "C3",
            "ticks": 9660,
            "time": 38.64,
            "velocity": 0.5118110236220472
          },
          {
            "duration": 0.12400000000000944,
            "durationTicks": 31,
            "midi": 36,
            "name": "C2",
            "ticks": 9720,
            "time": 38.879999999999995,
            "velocity": 0.47244094488188976
          },
          {
            "duration": 0.11200000000000188,
            "durationTicks": 28,
            "midi": 48,
            "name": "C3",
            "ticks": 9780,
            "time": 39.12,
            "velocity": 0.5275590551181102
          },
          {
            "duration": 0.12400000000000233,
            "durationTicks": 31,
            "midi": 36,
            "name": "C2",
            "ticks": 9840,
            "time": 39.36,
            "velocity": 0.4881889763779528
          },
          {
            "duration": 0.13599999999999568,
            "durationTicks": 34,
            "midi": 48,
            "name": "C3",
            "ticks": 9900,
            "time": 39.6,
            "velocity": 0.5669291338582677
          },
          {
            "duration": 0.11200000000000188,
            "durationTicks": 28,
            "midi": 36,
            "name": "C2",
            "ticks": 9960,
            "time": 39.839999999999996,
            "velocity": 0.5118110236220472
          },
          {
            "duration": 0.07600000000000051,
            "durationTicks": 19,
            "midi": 48,
            "name": "C3",
            "ticks": 10020,
            "time": 40.08,
            "velocity": 0.5905511811023622
          },
          {
            "duration": 0.11200000000000188,
            "durationTicks": 28,
            "midi": 36,
            "name": "C2",
            "ticks": 10080,
            "time": 40.32,
            "velocity": 0.5905511811023622
          },
          {
            "duration": 0.11599999999999966,
            "durationTicks": 29,
            "midi": 48,
            "name": "C3",
            "ticks": 10140,
            "time": 40.559999999999995,
            "velocity": 0.5118110236220472
          },
          {
            "duration": 0.12400000000000233,
            "durationTicks": 31,
            "midi": 36,
            "name": "C2",
            "ticks": 10200,
            "time": 40.8,
            "velocity": 0.47244094488188976
          },
          {
            "duration": 0.11200000000000188,
            "durationTicks": 28,
            "midi": 48,
            "name": "C3",
            "ticks": 10260,
            "time": 41.04,
            "velocity": 0.5275590551181102
          },
          {
            "duration": 0.12400000000000233,
            "durationTicks": 31,
            "midi": 36,
            "name": "C2",
            "ticks": 10320,
            "time": 41.28,
            "velocity": 0.4881889763779528
          },
          {
            "duration": 0.13600000000000279,
            "durationTicks": 34,
            "midi": 48,
            "name": "C3",
            "ticks": 10380,
            "time": 41.519999999999996,
            "velocity": 0.5669291338582677
          },
          {
            "duration": 0.11200000000000188,
            "durationTicks": 28,
            "midi": 36,
            "name": "C2",
            "ticks": 10440,
            "time": 41.76,
            "velocity": 0.5118110236220472
          },
          {
            "duration": 0.07600000000000051,
            "durationTicks": 19,
            "midi": 48,
            "name": "C3",
            "ticks": 10500,
            "time": 42,
            "velocity": 0.5905511811023622
          },
          {
            "duration": 0.11200000000000188,
            "durationTicks": 28,
            "midi": 36,
            "name": "C2",
            "ticks": 10560,
            "time": 42.239999999999995,
            "velocity": 0.5905511811023622
          },
          {
            "duration": 0.11599999999999966,
            "durationTicks": 29,
            "midi": 48,
            "name": "C3",
            "ticks": 10620,
            "time": 42.48,
            "velocity": 0.5118110236220472
          },
          {
            "duration": 0.12400000000000233,
            "durationTicks": 31,
            "midi": 36,
            "name": "C2",
            "ticks": 10680,
            "time": 42.72,
            "velocity": 0.47244094488188976
          },
          {
            "duration": 0.11199999999999477,
            "durationTicks": 28,
            "midi": 48,
            "name": "C3",
            "ticks": 10740,
            "time": 42.96,
            "velocity": 0.5275590551181102
          },
          {
            "duration": 0.12400000000000233,
            "durationTicks": 31,
            "midi": 36,
            "name": "C2",
            "ticks": 10800,
            "time": 43.199999999999996,
            "velocity": 0.4881889763779528
          },
          {
            "duration": 0.13600000000000279,
            "durationTicks": 34,
            "midi": 48,
            "name": "C3",
            "ticks": 10860,
            "time": 43.44,
            "velocity": 0.5669291338582677
          },
          {
            "duration": 0.11200000000000188,
            "durationTicks": 28,
            "midi": 36,
            "name": "C2",
            "ticks": 10920,
            "time": 43.68,
            "velocity": 0.5118110236220472
          },
          {
            "duration": 0.0759999999999934,
            "durationTicks": 19,
            "midi": 48,
            "name": "C3",
            "ticks": 10980,
            "time": 43.92,
            "velocity": 0.5905511811023622
          },
          {
            "duration": 0.11200000000000188,
            "durationTicks": 28,
            "midi": 36,
            "name": "C2",
            "ticks": 11040,
            "time": 44.16,
            "velocity": 0.5905511811023622
          },
          {
            "duration": 0.11599999999999966,
            "durationTicks": 29,
            "midi": 48,
            "name": "C3",
            "ticks": 11100,
            "time": 44.4,
            "velocity": 0.5118110236220472
          },
          {
            "duration": 0.12400000000000233,
            "durationTicks": 31,
            "midi": 36,
            "name": "C2",
            "ticks": 11160,
            "time": 44.64,
            "velocity": 0.47244094488188976
          },
          {
            "duration": 0.11200000000000188,
            "durationTicks": 28,
            "midi": 48,
            "name": "C3",
            "ticks": 11220,
            "time": 44.879999999999995,
            "velocity": 0.5275590551181102
          },
          {
            "duration": 0.12400000000000233,
            "durationTicks": 31,
            "midi": 36,
            "name": "C2",
            "ticks": 11280,
            "time": 45.12,
            "velocity": 0.4881889763779528
          },
          {
            "duration": 0.13599999999999568,
            "durationTicks": 34,
            "midi": 48,
            "name": "C3",
            "ticks": 11340,
            "time": 45.36,
            "velocity": 0.5669291338582677
          },
          {
            "duration": 0.11199999999999477,
            "durationTicks": 28,
            "midi": 36,
            "name": "C2",
            "ticks": 11400,
            "time": 45.6,
            "velocity": 0.5118110236220472
          },
          {
            "duration": 0.07600000000000051,
            "durationTicks": 19,
            "midi": 48,
            "name": "C3",
            "ticks": 11460,
            "time": 45.839999999999996,
            "velocity": 0.5905511811023622
          },
          {
            "duration": 0.11200000000000188,
            "durationTicks": 28,
            "midi": 36,
            "name": "C2",
            "ticks": 11520,
            "time": 46.08,
            "velocity": 0.5905511811023622
          },
          {
            "duration": 0.11599999999999255,
            "durationTicks": 29,
            "midi": 48,
            "name": "C3",
            "ticks": 11580,
            "time": 46.32,
            "velocity": 0.5118110236220472
          },
          {
            "duration": 0.12400000000000944,
            "durationTicks": 31,
            "midi": 36,
            "name": "C2",
            "ticks": 11640,
            "time": 46.559999999999995,
            "velocity": 0.47244094488188976
          },
          {
            "duration": 0.11200000000000188,
            "durationTicks": 28,
            "midi": 48,
            "name": "C3",
            "ticks": 11700,
            "time": 46.8,
            "velocity": 0.5275590551181102
          },
          {
            "duration": 0.12400000000000233,
            "durationTicks": 31,
            "midi": 36,
            "name": "C2",
            "ticks": 11760,
            "time": 47.04,
            "velocity": 0.4881889763779528
          },
          {
            "duration": 0.13599999999999568,
            "durationTicks": 34,
            "midi": 48,
            "name": "C3",
            "ticks": 11820,
            "time": 47.28,
            "velocity": 0.5669291338582677
          },
          {
            "duration": 0.11200000000000188,
            "durationTicks": 28,
            "midi": 36,
            "name": "C2",
            "ticks": 11880,
            "time": 47.519999999999996,
            "velocity": 0.5118110236220472
          },
          {
            "duration": 0.07600000000000051,
            "durationTicks": 19,
            "midi": 48,
            "name": "C3",
            "ticks": 11940,
            "time": 47.76,
            "velocity": 0.5905511811023622
          },
          {
            "duration": 0.11200000000000188,
            "durationTicks": 28,
            "midi": 36,
            "name": "C2",
            "ticks": 12000,
            "time": 48,
            "velocity": 0.5905511811023622
          },
          {
            "duration": 0.11599999999999966,
            "durationTicks": 29,
            "midi": 48,
            "name": "C3",
            "ticks": 12060,
            "time": 48.239999999999995,
            "velocity": 0.5118110236220472
          },
          {
            "duration": 0.12400000000000233,
            "durationTicks": 31,
            "midi": 36,
            "name": "C2",
            "ticks": 12120,
            "time": 48.48,
            "velocity": 0.47244094488188976
          },
          {
            "duration": 0.11200000000000188,
            "durationTicks": 28,
            "midi": 48,
            "name": "C3",
            "ticks": 12180,
            "time": 48.72,
            "velocity": 0.5275590551181102
          },
          {
            "duration": 0.12400000000000233,
            "durationTicks": 31,
            "midi": 36,
            "name": "C2",
            "ticks": 12240,
            "time": 48.96,
            "velocity": 0.4881889763779528
          },
          {
            "duration": 0.13600000000000279,
            "durationTicks": 34,
            "midi": 48,
            "name": "C3",
            "ticks": 12300,
            "time": 49.199999999999996,
            "velocity": 0.5669291338582677
          },
          {
            "duration": 0.11200000000000188,
            "durationTicks": 28,
            "midi": 36,
            "name": "C2",
            "ticks": 12360,
            "time": 49.44,
            "velocity": 0.5118110236220472
          },
          {
            "duration": 0.07600000000000051,
            "durationTicks": 19,
            "midi": 48,
            "name": "C3",
            "ticks": 12420,
            "time": 49.68,
            "velocity": 0.5905511811023622
          },
          {
            "duration": 0.11199999999999477,
            "durationTicks": 28,
            "midi": 36,
            "name": "C2",
            "ticks": 12480,
            "time": 49.92,
            "velocity": 0.5905511811023622
          },
          {
            "duration": 0.11599999999999966,
            "durationTicks": 29,
            "midi": 48,
            "name": "C3",
            "ticks": 12540,
            "time": 50.16,
            "velocity": 0.5118110236220472
          },
          {
            "duration": 0.12400000000000233,
            "durationTicks": 31,
            "midi": 36,
            "name": "C2",
            "ticks": 12600,
            "time": 50.4,
            "velocity": 0.47244094488188976
          },
          {
            "duration": 0.11199999999999477,
            "durationTicks": 28,
            "midi": 48,
            "name": "C3",
            "ticks": 12660,
            "time": 50.64,
            "velocity": 0.5275590551181102
          },
          {
            "duration": 0.12400000000000233,
            "durationTicks": 31,
            "midi": 36,
            "name": "C2",
            "ticks": 12720,
            "time": 50.879999999999995,
            "velocity": 0.4881889763779528
          },
          {
            "duration": 0.13600000000000279,
            "durationTicks": 34,
            "midi": 48,
            "name": "C3",
            "ticks": 12780,
            "time": 51.12,
            "velocity": 0.5669291338582677
          },
          {
            "duration": 0.11200000000000188,
            "durationTicks": 28,
            "midi": 36,
            "name": "C2",
            "ticks": 12840,
            "time": 51.36,
            "velocity": 0.5118110236220472
          },
          {
            "duration": 0.0759999999999934,
            "durationTicks": 19,
            "midi": 48,
            "name": "C3",
            "ticks": 12900,
            "time": 51.6,
            "velocity": 0.5905511811023622
          },
          {
            "duration": 0.11200000000000188,
            "durationTicks": 28,
            "midi": 36,
            "name": "C2",
            "ticks": 12960,
            "time": 51.839999999999996,
            "velocity": 0.5905511811023622
          },
          {
            "duration": 0.11599999999999966,
            "durationTicks": 29,
            "midi": 48,
            "name": "C3",
            "ticks": 13020,
            "time": 52.08,
            "velocity": 0.5118110236220472
          },
          {
            "duration": 0.12400000000000233,
            "durationTicks": 31,
            "midi": 36,
            "name": "C2",
            "ticks": 13080,
            "time": 52.32,
            "velocity": 0.47244094488188976
          },
          {
            "duration": 0.11200000000000188,
            "durationTicks": 28,
            "midi": 48,
            "name": "C3",
            "ticks": 13140,
            "time": 52.559999999999995,
            "velocity": 0.5275590551181102
          },
          {
            "duration": 0.12400000000000233,
            "durationTicks": 31,
            "midi": 36,
            "name": "C2",
            "ticks": 13200,
            "time": 52.8,
            "velocity": 0.4881889763779528
          },
          {
            "duration": 0.13599999999999568,
            "durationTicks": 34,
            "midi": 48,
            "name": "C3",
            "ticks": 13260,
            "time": 53.04,
            "velocity": 0.5669291338582677
          },
          {
            "duration": 0.11199999999999477,
            "durationTicks": 28,
            "midi": 36,
            "name": "C2",
            "ticks": 13320,
            "time": 53.28,
            "velocity": 0.5118110236220472
          },
          {
            "duration": 0.07600000000000051,
            "durationTicks": 19,
            "midi": 48,
            "name": "C3",
            "ticks": 13380,
            "time": 53.519999999999996,
            "velocity": 0.5905511811023622
          },
          {
            "duration": 0.1039999999999992,
            "durationTicks": 26,
            "midi": 43,
            "name": "G2",
            "ticks": 13440,
            "time": 53.76,
            "velocity": 0.5433070866141733
          },
          {
            "duration": 0.14000000000000057,
            "durationTicks": 35,
            "midi": 55,
            "name": "G3",
            "ticks": 13500,
            "time": 54,
            "velocity": 0.44881889763779526
          },
          {
            "duration": 0.11599999999999966,
            "durationTicks": 29,
            "midi": 43,
            "name": "G2",
            "ticks": 13560,
            "time": 54.239999999999995,
            "velocity": 0.49606299212598426
          },
          {
            "duration": 0.14399999999999835,
            "durationTicks": 36,
            "midi": 55,
            "name": "G3",
            "ticks": 13620,
            "time": 54.48,
            "velocity": 0.44881889763779526
          },
          {
            "duration": 0.10799999999999699,
            "durationTicks": 27,
            "midi": 41,
            "name": "F2",
            "ticks": 13680,
            "time": 54.72,
            "velocity": 0.47244094488188976
          },
          {
            "duration": 0.11999999999999744,
            "durationTicks": 30,
            "midi": 53,
            "name": "F3",
            "ticks": 13740,
            "time": 54.96,
            "velocity": 0.47244094488188976
          },
          {
            "duration": 0.10400000000000631,
            "durationTicks": 26,
            "midi": 41,
            "name": "F2",
            "ticks": 13800,
            "time": 55.199999999999996,
            "velocity": 0.47244094488188976
          },
          {
            "duration": 0.16799999999999926,
            "durationTicks": 42,
            "midi": 53,
            "name": "F3",
            "ticks": 13860,
            "time": 55.44,
            "velocity": 0.4566929133858268
          },
          {
            "duration": 0.09999999999999432,
            "durationTicks": 25,
            "midi": 40,
            "name": "E2",
            "ticks": 13920,
            "time": 55.68,
            "velocity": 0.4645669291338583
          },
          {
            "duration": 0.13600000000000279,
            "durationTicks": 34,
            "midi": 52,
            "name": "E3",
            "ticks": 13980,
            "time": 55.919999999999995,
            "velocity": 0.49606299212598426
          },
          {
            "duration": 0.132000000000005,
            "durationTicks": 33,
            "midi": 40,
            "name": "E2",
            "ticks": 14040,
            "time": 56.16,
            "velocity": 0.4645669291338583
          },
          {
            "duration": 0.15200000000000102,
            "durationTicks": 38,
            "midi": 52,
            "name": "E3",
            "ticks": 14100,
            "time": 56.4,
            "velocity": 0.5039370078740157
          },
          {
            "duration": 0.14000000000000057,
            "durationTicks": 35,
            "midi": 38,
            "name": "D2",
            "ticks": 14160,
            "time": 56.64,
            "velocity": 0.4645669291338583
          },
          {
            "duration": 0.14399999999999835,
            "durationTicks": 36,
            "midi": 50,
            "name": "D3",
            "ticks": 14220,
            "time": 56.879999999999995,
            "velocity": 0.4881889763779528
          },
          {
            "duration": 0.14000000000000057,
            "durationTicks": 35,
            "midi": 38,
            "name": "D2",
            "ticks": 14280,
            "time": 57.12,
            "velocity": 0.47244094488188976
          },
          {
            "duration": 0.09999999999999432,
            "durationTicks": 25,
            "midi": 50,
            "name": "D3",
            "ticks": 14340,
            "time": 57.36,
            "velocity": 0.5433070866141733
          },
          {
            "duration": 0.1280000000000001,
            "durationTicks": 32,
            "midi": 36,
            "name": "C2",
            "ticks": 14396,
            "time": 57.583999999999996,
            "velocity": 0.5826771653543307
          },
          {
            "duration": 0.11599999999999966,
            "durationTicks": 29,
            "midi": 36,
            "name": "C2",
            "ticks": 14400,
            "time": 57.599999999999994,
            "velocity": 0.5118110236220472
          },
          {
            "duration": 0.12000000000000455,
            "durationTicks": 30,
            "midi": 48,
            "name": "C3",
            "ticks": 14460,
            "time": 57.839999999999996,
            "velocity": 0.49606299212598426
          },
          {
            "duration": 0.13999999999999346,
            "durationTicks": 35,
            "midi": 36,
            "name": "C2",
            "ticks": 15360,
            "time": 61.44,
            "velocity": 0.4409448818897638
          },
          {
            "duration": 0.19999999999999574,
            "durationTicks": 50,
            "midi": 36,
            "name": "C2",
            "ticks": 15420,
            "time": 61.68,
            "velocity": 0.4330708661417323
          },
          {
            "duration": 0.13600000000000279,
            "durationTicks": 34,
            "midi": 31,
            "name": "G1",
            "ticks": 15480,
            "time": 61.919999999999995,
            "velocity": 0.4566929133858268
          },
          {
            "duration": 0.17600000000000193,
            "durationTicks": 44,
            "midi": 31,
            "name": "G1",
            "ticks": 15540,
            "time": 62.16,
            "velocity": 0.4094488188976378
          },
          {
            "duration": 0.11599999999999966,
            "durationTicks": 29,
            "midi": 34,
            "name": "A#1",
            "ticks": 15600,
            "time": 62.4,
            "velocity": 0.4330708661417323
          },
          {
            "duration": 0.16799999999999216,
            "durationTicks": 42,
            "midi": 34,
            "name": "A#1",
            "ticks": 15660,
            "time": 62.64,
            "velocity": 0.3937007874015748
          },
          {
            "duration": 0.13600000000000279,
            "durationTicks": 34,
            "midi": 35,
            "name": "B1",
            "ticks": 15720,
            "time": 62.879999999999995,
            "velocity": 0.4251968503937008
          },
          {
            "duration": 0.20400000000000773,
            "durationTicks": 51,
            "midi": 35,
            "name": "B1",
            "ticks": 15780,
            "time": 63.12,
            "velocity": 0.3937007874015748
          },
          {
            "duration": 0.1600000000000037,
            "durationTicks": 40,
            "midi": 36,
            "name": "C2",
            "ticks": 15840,
            "time": 63.36,
            "velocity": 0.4645669291338583
          },
          {
            "duration": 0.1880000000000095,
            "durationTicks": 47,
            "midi": 36,
            "name": "C2",
            "ticks": 15900,
            "time": 63.599999999999994,
            "velocity": 0.3779527559055118
          },
          {
            "duration": 0.1840000000000046,
            "durationTicks": 46,
            "midi": 31,
            "name": "G1",
            "ticks": 15960,
            "time": 63.839999999999996,
            "velocity": 0.41732283464566927
          },
          {
            "duration": 0.1600000000000108,
            "durationTicks": 40,
            "midi": 31,
            "name": "G1",
            "ticks": 16020,
            "time": 64.08,
            "velocity": 0.4330708661417323
          },
          {
            "duration": 0.12000000000000455,
            "durationTicks": 30,
            "midi": 34,
            "name": "A#1",
            "ticks": 16080,
            "time": 64.32,
            "velocity": 0.3937007874015748
          },
          {
            "duration": 0.1839999999999975,
            "durationTicks": 46,
            "midi": 34,
            "name": "A#1",
            "ticks": 16140,
            "time": 64.56,
            "velocity": 0.41732283464566927
          },
          {
            "duration": 0.18000000000000682,
            "durationTicks": 45,
            "midi": 35,
            "name": "B1",
            "ticks": 16200,
            "time": 64.8,
            "velocity": 0.48031496062992124
          },
          {
            "duration": 0.13999999999998636,
            "durationTicks": 35,
            "midi": 36,
            "name": "C2",
            "ticks": 16320,
            "time": 65.28,
            "velocity": 0.4409448818897638
          },
          {
            "duration": 0.20000000000000284,
            "durationTicks": 50,
            "midi": 36,
            "name": "C2",
            "ticks": 16380,
            "time": 65.52,
            "velocity": 0.4330708661417323
          },
          {
            "duration": 0.1360000000000099,
            "durationTicks": 34,
            "midi": 31,
            "name": "G1",
            "ticks": 16440,
            "time": 65.75999999999999,
            "velocity": 0.4566929133858268
          },
          {
            "duration": 0.17600000000000193,
            "durationTicks": 44,
            "midi": 31,
            "name": "G1",
            "ticks": 16500,
            "time": 66,
            "velocity": 0.4094488188976378
          },
          {
            "duration": 0.11599999999999966,
            "durationTicks": 29,
            "midi": 34,
            "name": "A#1",
            "ticks": 16560,
            "time": 66.24,
            "velocity": 0.4330708661417323
          },
          {
            "duration": 0.16799999999999216,
            "durationTicks": 42,
            "midi": 34,
            "name": "A#1",
            "ticks": 16620,
            "time": 66.48,
            "velocity": 0.3937007874015748
          },
          {
            "duration": 0.13599999999999568,
            "durationTicks": 34,
            "midi": 35,
            "name": "B1",
            "ticks": 16680,
            "time": 66.72,
            "velocity": 0.4251968503937008
          },
          {
            "duration": 0.20400000000000773,
            "durationTicks": 51,
            "midi": 35,
            "name": "B1",
            "ticks": 16740,
            "time": 66.96,
            "velocity": 0.3937007874015748
          },
          {
            "duration": 0.1599999999999966,
            "durationTicks": 40,
            "midi": 36,
            "name": "C2",
            "ticks": 16800,
            "time": 67.2,
            "velocity": 0.4645669291338583
          },
          {
            "duration": 0.1880000000000024,
            "durationTicks": 47,
            "midi": 36,
            "name": "C2",
            "ticks": 16860,
            "time": 67.44,
            "velocity": 0.3779527559055118
          },
          {
            "duration": 0.1839999999999975,
            "durationTicks": 46,
            "midi": 31,
            "name": "G1",
            "ticks": 16920,
            "time": 67.67999999999999,
            "velocity": 0.41732283464566927
          },
          {
            "duration": 0.1599999999999966,
            "durationTicks": 40,
            "midi": 31,
            "name": "G1",
            "ticks": 16980,
            "time": 67.92,
            "velocity": 0.4330708661417323
          },
          {
            "duration": 0.12000000000000455,
            "durationTicks": 30,
            "midi": 34,
            "name": "A#1",
            "ticks": 17040,
            "time": 68.16,
            "velocity": 0.3937007874015748
          },
          {
            "duration": 0.1839999999999975,
            "durationTicks": 46,
            "midi": 34,
            "name": "A#1",
            "ticks": 17100,
            "time": 68.39999999999999,
            "velocity": 0.41732283464566927
          },
          {
            "duration": 0.1799999999999926,
            "durationTicks": 45,
            "midi": 35,
            "name": "B1",
            "ticks": 17160,
            "time": 68.64,
            "velocity": 0.48031496062992124
          },
          {
            "duration": 0.13999999999998636,
            "durationTicks": 35,
            "midi": 36,
            "name": "C2",
            "ticks": 17280,
            "time": 69.12,
            "velocity": 0.4409448818897638
          },
          {
            "duration": 0.19999999999998863,
            "durationTicks": 50,
            "midi": 36,
            "name": "C2",
            "ticks": 17340,
            "time": 69.36,
            "velocity": 0.4330708661417323
          },
          {
            "duration": 0.13599999999999568,
            "durationTicks": 34,
            "midi": 31,
            "name": "G1",
            "ticks": 17400,
            "time": 69.6,
            "velocity": 0.4566929133858268
          },
          {
            "duration": 0.17600000000000193,
            "durationTicks": 44,
            "midi": 31,
            "name": "G1",
            "ticks": 17460,
            "time": 69.84,
            "velocity": 0.4094488188976378
          },
          {
            "duration": 0.11599999999999966,
            "durationTicks": 29,
            "midi": 34,
            "name": "A#1",
            "ticks": 17520,
            "time": 70.08,
            "velocity": 0.4330708661417323
          },
          {
            "duration": 0.16800000000000637,
            "durationTicks": 42,
            "midi": 34,
            "name": "A#1",
            "ticks": 17580,
            "time": 70.32,
            "velocity": 0.3937007874015748
          },
          {
            "duration": 0.13599999999999568,
            "durationTicks": 34,
            "midi": 35,
            "name": "B1",
            "ticks": 17640,
            "time": 70.56,
            "velocity": 0.4251968503937008
          },
          {
            "duration": 0.20400000000000773,
            "durationTicks": 51,
            "midi": 35,
            "name": "B1",
            "ticks": 17700,
            "time": 70.8,
            "velocity": 0.3937007874015748
          },
          {
            "duration": 0.1600000000000108,
            "durationTicks": 40,
            "midi": 36,
            "name": "C2",
            "ticks": 17760,
            "time": 71.03999999999999,
            "velocity": 0.4645669291338583
          },
          {
            "duration": 0.1880000000000024,
            "durationTicks": 47,
            "midi": 36,
            "name": "C2",
            "ticks": 17820,
            "time": 71.28,
            "velocity": 0.3779527559055118
          },
          {
            "duration": 0.1839999999999975,
            "durationTicks": 46,
            "midi": 31,
            "name": "G1",
            "ticks": 17880,
            "time": 71.52,
            "velocity": 0.41732283464566927
          },
          {
            "duration": 0.1600000000000108,
            "durationTicks": 40,
            "midi": 31,
            "name": "G1",
            "ticks": 17940,
            "time": 71.75999999999999,
            "velocity": 0.4330708661417323
          },
          {
            "duration": 0.11999999999999034,
            "durationTicks": 30,
            "midi": 34,
            "name": "A#1",
            "ticks": 18000,
            "time": 72,
            "velocity": 0.3937007874015748
          },
          {
            "duration": 0.1839999999999975,
            "durationTicks": 46,
            "midi": 34,
            "name": "A#1",
            "ticks": 18060,
            "time": 72.24,
            "velocity": 0.41732283464566927
          },
          {
            "duration": 0.1799999999999926,
            "durationTicks": 45,
            "midi": 35,
            "name": "B1",
            "ticks": 18120,
            "time": 72.48,
            "velocity": 0.48031496062992124
          },
          {
            "duration": 0.14000000000000057,
            "durationTicks": 35,
            "midi": 36,
            "name": "C2",
            "ticks": 18240,
            "time": 72.96,
            "velocity": 0.4409448818897638
          },
          {
            "duration": 0.19999999999998863,
            "durationTicks": 50,
            "midi": 36,
            "name": "C2",
            "ticks": 18300,
            "time": 73.2,
            "velocity": 0.4330708661417323
          },
          {
            "duration": 0.13599999999999568,
            "durationTicks": 34,
            "midi": 31,
            "name": "G1",
            "ticks": 18360,
            "time": 73.44,
            "velocity": 0.4566929133858268
          },
          {
            "duration": 0.17600000000000193,
            "durationTicks": 44,
            "midi": 31,
            "name": "G1",
            "ticks": 18420,
            "time": 73.67999999999999,
            "velocity": 0.4094488188976378
          },
          {
            "duration": 0.11599999999999966,
            "durationTicks": 29,
            "midi": 34,
            "name": "A#1",
            "ticks": 18480,
            "time": 73.92,
            "velocity": 0.4330708661417323
          },
          {
            "duration": 0.16799999999999216,
            "durationTicks": 42,
            "midi": 34,
            "name": "A#1",
            "ticks": 18540,
            "time": 74.16,
            "velocity": 0.3937007874015748
          },
          {
            "duration": 0.1360000000000099,
            "durationTicks": 34,
            "midi": 35,
            "name": "B1",
            "ticks": 18600,
            "time": 74.39999999999999,
            "velocity": 0.4251968503937008
          },
          {
            "duration": 0.20400000000000773,
            "durationTicks": 51,
            "midi": 35,
            "name": "B1",
            "ticks": 18660,
            "time": 74.64,
            "velocity": 0.3937007874015748
          },
          {
            "duration": 0.1600000000000108,
            "durationTicks": 40,
            "midi": 36,
            "name": "C2",
            "ticks": 18720,
            "time": 74.88,
            "velocity": 0.4645669291338583
          },
          {
            "duration": 0.1880000000000166,
            "durationTicks": 47,
            "midi": 36,
            "name": "C2",
            "ticks": 18780,
            "time": 75.11999999999999,
            "velocity": 0.3779527559055118
          },
          {
            "duration": 0.1839999999999975,
            "durationTicks": 46,
            "midi": 31,
            "name": "G1",
            "ticks": 18840,
            "time": 75.36,
            "velocity": 0.41732283464566927
          },
          {
            "duration": 0.1600000000000108,
            "durationTicks": 40,
            "midi": 31,
            "name": "G1",
            "ticks": 18900,
            "time": 75.6,
            "velocity": 0.4330708661417323
          },
          {
            "duration": 0.11999999999999034,
            "durationTicks": 30,
            "midi": 34,
            "name": "A#1",
            "ticks": 18960,
            "time": 75.84,
            "velocity": 0.3937007874015748
          },
          {
            "duration": 0.1839999999999975,
            "durationTicks": 46,
            "midi": 34,
            "name": "A#1",
            "ticks": 19020,
            "time": 76.08,
            "velocity": 0.41732283464566927
          },
          {
            "duration": 0.18000000000000682,
            "durationTicks": 45,
            "midi": 35,
            "name": "B1",
            "ticks": 19080,
            "time": 76.32,
            "velocity": 0.48031496062992124
          },
          {
            "duration": 0.14000000000000057,
            "durationTicks": 35,
            "midi": 36,
            "name": "C2",
            "ticks": 19200,
            "time": 76.8,
            "velocity": 0.4409448818897638
          },
          {
            "duration": 0.20000000000000284,
            "durationTicks": 50,
            "midi": 36,
            "name": "C2",
            "ticks": 19260,
            "time": 77.03999999999999,
            "velocity": 0.4330708661417323
          },
          {
            "duration": 0.13599999999999568,
            "durationTicks": 34,
            "midi": 31,
            "name": "G1",
            "ticks": 19320,
            "time": 77.28,
            "velocity": 0.4566929133858268
          },
          {
            "duration": 0.17600000000000193,
            "durationTicks": 44,
            "midi": 31,
            "name": "G1",
            "ticks": 19380,
            "time": 77.52,
            "velocity": 0.4094488188976378
          },
          {
            "duration": 0.11600000000001387,
            "durationTicks": 29,
            "midi": 34,
            "name": "A#1",
            "ticks": 19440,
            "time": 77.75999999999999,
            "velocity": 0.4330708661417323
          },
          {
            "duration": 0.16799999999999216,
            "durationTicks": 42,
            "midi": 34,
            "name": "A#1",
            "ticks": 19500,
            "time": 78,
            "velocity": 0.3937007874015748
          },
          {
            "duration": 0.13599999999999568,
            "durationTicks": 34,
            "midi": 35,
            "name": "B1",
            "ticks": 19560,
            "time": 78.24,
            "velocity": 0.4251968503937008
          },
          {
            "duration": 0.20399999999999352,
            "durationTicks": 51,
            "midi": 35,
            "name": "B1",
            "ticks": 19620,
            "time": 78.48,
            "velocity": 0.3937007874015748
          },
          {
            "duration": 0.1599999999999966,
            "durationTicks": 40,
            "midi": 36,
            "name": "C2",
            "ticks": 19680,
            "time": 78.72,
            "velocity": 0.4645669291338583
          },
          {
            "duration": 0.1880000000000166,
            "durationTicks": 47,
            "midi": 36,
            "name": "C2",
            "ticks": 19740,
            "time": 78.96,
            "velocity": 0.3779527559055118
          },
          {
            "duration": 0.1839999999999975,
            "durationTicks": 46,
            "midi": 31,
            "name": "G1",
            "ticks": 19800,
            "time": 79.2,
            "velocity": 0.41732283464566927
          },
          {
            "duration": 0.1600000000000108,
            "durationTicks": 40,
            "midi": 31,
            "name": "G1",
            "ticks": 19860,
            "time": 79.44,
            "velocity": 0.4330708661417323
          },
          {
            "duration": 0.12000000000000455,
            "durationTicks": 30,
            "midi": 34,
            "name": "A#1",
            "ticks": 19920,
            "time": 79.67999999999999,
            "velocity": 0.3937007874015748
          },
          {
            "duration": 0.1839999999999975,
            "durationTicks": 46,
            "midi": 34,
            "name": "A#1",
            "ticks": 19980,
            "time": 79.92,
            "velocity": 0.41732283464566927
          },
          {
            "duration": 0.18000000000000682,
            "durationTicks": 45,
            "midi": 35,
            "name": "B1",
            "ticks": 20040,
            "time": 80.16,
            "velocity": 0.48031496062992124
          },
          {
            "duration": 0.13999999999998636,
            "durationTicks": 35,
            "midi": 36,
            "name": "C2",
            "ticks": 20160,
            "time": 80.64,
            "velocity": 0.4409448818897638
          },
          {
            "duration": 0.20000000000000284,
            "durationTicks": 50,
            "midi": 36,
            "name": "C2",
            "ticks": 20220,
            "time": 80.88,
            "velocity": 0.4330708661417323
          },
          {
            "duration": 0.1360000000000099,
            "durationTicks": 34,
            "midi": 31,
            "name": "G1",
            "ticks": 20280,
            "time": 81.11999999999999,
            "velocity": 0.4566929133858268
          },
          {
            "duration": 0.17600000000000193,
            "durationTicks": 44,
            "midi": 31,
            "name": "G1",
            "ticks": 20340,
            "time": 81.36,
            "velocity": 0.4094488188976378
          },
          {
            "duration": 0.11599999999999966,
            "durationTicks": 29,
            "midi": 34,
            "name": "A#1",
            "ticks": 20400,
            "time": 81.6,
            "velocity": 0.4330708661417323
          },
          {
            "duration": 0.16799999999999216,
            "durationTicks": 42,
            "midi": 34,
            "name": "A#1",
            "ticks": 20460,
            "time": 81.84,
            "velocity": 0.3937007874015748
          },
          {
            "duration": 0.13599999999999568,
            "durationTicks": 34,
            "midi": 35,
            "name": "B1",
            "ticks": 20520,
            "time": 82.08,
            "velocity": 0.4251968503937008
          },
          {
            "duration": 0.20400000000000773,
            "durationTicks": 51,
            "midi": 35,
            "name": "B1",
            "ticks": 20580,
            "time": 82.32,
            "velocity": 0.3937007874015748
          },
          {
            "duration": 0.1599999999999966,
            "durationTicks": 40,
            "midi": 36,
            "name": "C2",
            "ticks": 20640,
            "time": 82.56,
            "velocity": 0.4645669291338583
          },
          {
            "duration": 0.1880000000000024,
            "durationTicks": 47,
            "midi": 36,
            "name": "C2",
            "ticks": 20700,
            "time": 82.8,
            "velocity": 0.3779527559055118
          },
          {
            "duration": 0.1839999999999975,
            "durationTicks": 46,
            "midi": 31,
            "name": "G1",
            "ticks": 20760,
            "time": 83.03999999999999,
            "velocity": 0.41732283464566927
          },
          {
            "duration": 0.1599999999999966,
            "durationTicks": 40,
            "midi": 31,
            "name": "G1",
            "ticks": 20820,
            "time": 83.28,
            "velocity": 0.4330708661417323
          },
          {
            "duration": 0.12000000000000455,
            "durationTicks": 30,
            "midi": 34,
            "name": "A#1",
            "ticks": 20880,
            "time": 83.52,
            "velocity": 0.3937007874015748
          },
          {
            "duration": 0.1839999999999975,
            "durationTicks": 46,
            "midi": 34,
            "name": "A#1",
            "ticks": 20940,
            "time": 83.75999999999999,
            "velocity": 0.41732283464566927
          },
          {
            "duration": 0.1799999999999926,
            "durationTicks": 45,
            "midi": 35,
            "name": "B1",
            "ticks": 21000,
            "time": 84,
            "velocity": 0.48031496062992124
          },
          {
            "duration": 0.14000000000000057,
            "durationTicks": 35,
            "midi": 36,
            "name": "C2",
            "ticks": 21120,
            "time": 84.47999999999999,
            "velocity": 0.4409448818897638
          },
          {
            "duration": 0.19999999999998863,
            "durationTicks": 50,
            "midi": 36,
            "name": "C2",
            "ticks": 21180,
            "time": 84.72,
            "velocity": 0.4330708661417323
          },
          {
            "duration": 0.13599999999999568,
            "durationTicks": 34,
            "midi": 31,
            "name": "G1",
            "ticks": 21240,
            "time": 84.96,
            "velocity": 0.4566929133858268
          },
          {
            "duration": 0.17600000000000193,
            "durationTicks": 44,
            "midi": 31,
            "name": "G1",
            "ticks": 21300,
            "time": 85.2,
            "velocity": 0.4094488188976378
          },
          {
            "duration": 0.11599999999999966,
            "durationTicks": 29,
            "midi": 34,
            "name": "A#1",
            "ticks": 21360,
            "time": 85.44,
            "velocity": 0.4330708661417323
          },
          {
            "duration": 0.16800000000000637,
            "durationTicks": 42,
            "midi": 34,
            "name": "A#1",
            "ticks": 21420,
            "time": 85.67999999999999,
            "velocity": 0.3937007874015748
          },
          {
            "duration": 0.13599999999999568,
            "durationTicks": 34,
            "midi": 35,
            "name": "B1",
            "ticks": 21480,
            "time": 85.92,
            "velocity": 0.4251968503937008
          },
          {
            "duration": 0.20400000000000773,
            "durationTicks": 51,
            "midi": 35,
            "name": "B1",
            "ticks": 21540,
            "time": 86.16,
            "velocity": 0.3937007874015748
          },
          {
            "duration": 0.1600000000000108,
            "durationTicks": 40,
            "midi": 36,
            "name": "C2",
            "ticks": 21600,
            "time": 86.39999999999999,
            "velocity": 0.4645669291338583
          },
          {
            "duration": 0.1880000000000024,
            "durationTicks": 47,
            "midi": 36,
            "name": "C2",
            "ticks": 21660,
            "time": 86.64,
            "velocity": 0.3779527559055118
          },
          {
            "duration": 0.1839999999999975,
            "durationTicks": 46,
            "midi": 31,
            "name": "G1",
            "ticks": 21720,
            "time": 86.88,
            "velocity": 0.41732283464566927
          },
          {
            "duration": 0.1600000000000108,
            "durationTicks": 40,
            "midi": 31,
            "name": "G1",
            "ticks": 21780,
            "time": 87.11999999999999,
            "velocity": 0.4330708661417323
          },
          {
            "duration": 0.11999999999999034,
            "durationTicks": 30,
            "midi": 34,
            "name": "A#1",
            "ticks": 21840,
            "time": 87.36,
            "velocity": 0.3937007874015748
          },
          {
            "duration": 0.1839999999999975,
            "durationTicks": 46,
            "midi": 34,
            "name": "A#1",
            "ticks": 21900,
            "time": 87.6,
            "velocity": 0.41732283464566927
          },
          {
            "duration": 0.1799999999999926,
            "durationTicks": 45,
            "midi": 35,
            "name": "B1",
            "ticks": 21960,
            "time": 87.84,
            "velocity": 0.48031496062992124
          },
          {
            "duration": 0.14000000000000057,
            "durationTicks": 35,
            "midi": 36,
            "name": "C2",
            "ticks": 22080,
            "time": 88.32,
            "velocity": 0.4409448818897638
          },
          {
            "duration": 0.19999999999998863,
            "durationTicks": 50,
            "midi": 36,
            "name": "C2",
            "ticks": 22140,
            "time": 88.56,
            "velocity": 0.4330708661417323
          },
          {
            "duration": 0.13599999999999568,
            "durationTicks": 34,
            "midi": 31,
            "name": "G1",
            "ticks": 22200,
            "time": 88.8,
            "velocity": 0.4566929133858268
          },
          {
            "duration": 0.17600000000000193,
            "durationTicks": 44,
            "midi": 31,
            "name": "G1",
            "ticks": 22260,
            "time": 89.03999999999999,
            "velocity": 0.4094488188976378
          },
          {
            "duration": 0.11599999999999966,
            "durationTicks": 29,
            "midi": 34,
            "name": "A#1",
            "ticks": 22320,
            "time": 89.28,
            "velocity": 0.4330708661417323
          },
          {
            "duration": 0.16799999999999216,
            "durationTicks": 42,
            "midi": 34,
            "name": "A#1",
            "ticks": 22380,
            "time": 89.52,
            "velocity": 0.3937007874015748
          },
          {
            "duration": 0.1360000000000099,
            "durationTicks": 34,
            "midi": 35,
            "name": "B1",
            "ticks": 22440,
            "time": 89.75999999999999,
            "velocity": 0.4251968503937008
          },
          {
            "duration": 0.20400000000000773,
            "durationTicks": 51,
            "midi": 35,
            "name": "B1",
            "ticks": 22500,
            "time": 90,
            "velocity": 0.3937007874015748
          },
          {
            "duration": 0.1600000000000108,
            "durationTicks": 40,
            "midi": 36,
            "name": "C2",
            "ticks": 22560,
            "time": 90.24,
            "velocity": 0.4645669291338583
          },
          {
            "duration": 0.1880000000000166,
            "durationTicks": 47,
            "midi": 36,
            "name": "C2",
            "ticks": 22620,
            "time": 90.47999999999999,
            "velocity": 0.3779527559055118
          },
          {
            "duration": 0.1839999999999975,
            "durationTicks": 46,
            "midi": 31,
            "name": "G1",
            "ticks": 22680,
            "time": 90.72,
            "velocity": 0.41732283464566927
          },
          {
            "duration": 0.1600000000000108,
            "durationTicks": 40,
            "midi": 31,
            "name": "G1",
            "ticks": 22740,
            "time": 90.96,
            "velocity": 0.4330708661417323
          },
          {
            "duration": 0.11999999999999034,
            "durationTicks": 30,
            "midi": 34,
            "name": "A#1",
            "ticks": 22800,
            "time": 91.2,
            "velocity": 0.3937007874015748
          },
          {
            "duration": 0.1839999999999975,
            "durationTicks": 46,
            "midi": 34,
            "name": "A#1",
            "ticks": 22860,
            "time": 91.44,
            "velocity": 0.41732283464566927
          },
          {
            "duration": 0.18000000000000682,
            "durationTicks": 45,
            "midi": 35,
            "name": "B1",
            "ticks": 22920,
            "time": 91.67999999999999,
            "velocity": 0.48031496062992124
          },
          {
            "duration": 0.14000000000000057,
            "durationTicks": 35,
            "midi": 36,
            "name": "C2",
            "ticks": 23040,
            "time": 92.16,
            "velocity": 0.4409448818897638
          },
          {
            "duration": 0.20000000000000284,
            "durationTicks": 50,
            "midi": 36,
            "name": "C2",
            "ticks": 23100,
            "time": 92.39999999999999,
            "velocity": 0.4330708661417323
          },
          {
            "duration": 0.13599999999999568,
            "durationTicks": 34,
            "midi": 31,
            "name": "G1",
            "ticks": 23160,
            "time": 92.64,
            "velocity": 0.4566929133858268
          },
          {
            "duration": 0.17600000000000193,
            "durationTicks": 44,
            "midi": 31,
            "name": "G1",
            "ticks": 23220,
            "time": 92.88,
            "velocity": 0.4094488188976378
          },
          {
            "duration": 0.11600000000001387,
            "durationTicks": 29,
            "midi": 34,
            "name": "A#1",
            "ticks": 23280,
            "time": 93.11999999999999,
            "velocity": 0.4330708661417323
          },
          {
            "duration": 0.16799999999999216,
            "durationTicks": 42,
            "midi": 34,
            "name": "A#1",
            "ticks": 23340,
            "time": 93.36,
            "velocity": 0.3937007874015748
          },
          {
            "duration": 0.13599999999999568,
            "durationTicks": 34,
            "midi": 35,
            "name": "B1",
            "ticks": 23400,
            "time": 93.6,
            "velocity": 0.4251968503937008
          },
          {
            "duration": 0.20399999999999352,
            "durationTicks": 51,
            "midi": 35,
            "name": "B1",
            "ticks": 23460,
            "time": 93.84,
            "velocity": 0.3937007874015748
          },
          {
            "duration": 0.1599999999999966,
            "durationTicks": 40,
            "midi": 36,
            "name": "C2",
            "ticks": 23520,
            "time": 94.08,
            "velocity": 0.4645669291338583
          },
          {
            "duration": 0.1880000000000166,
            "durationTicks": 47,
            "midi": 36,
            "name": "C2",
            "ticks": 23580,
            "time": 94.32,
            "velocity": 0.3779527559055118
          },
          {
            "duration": 0.1839999999999975,
            "durationTicks": 46,
            "midi": 31,
            "name": "G1",
            "ticks": 23640,
            "time": 94.56,
            "velocity": 0.41732283464566927
          },
          {
            "duration": 0.1600000000000108,
            "durationTicks": 40,
            "midi": 31,
            "name": "G1",
            "ticks": 23700,
            "time": 94.8,
            "velocity": 0.4330708661417323
          },
          {
            "duration": 0.12000000000000455,
            "durationTicks": 30,
            "midi": 34,
            "name": "A#1",
            "ticks": 23760,
            "time": 95.03999999999999,
            "velocity": 0.3937007874015748
          },
          {
            "duration": 0.1839999999999975,
            "durationTicks": 46,
            "midi": 34,
            "name": "A#1",
            "ticks": 23820,
            "time": 95.28,
            "velocity": 0.41732283464566927
          },
          {
            "duration": 0.18000000000000682,
            "durationTicks": 45,
            "midi": 35,
            "name": "B1",
            "ticks": 23880,
            "time": 95.52,
            "velocity": 0.48031496062992124
          },
          {
            "duration": 0.0799999999999983,
            "durationTicks": 20,
            "midi": 41,
            "name": "F2",
            "ticks": 24000,
            "time": 96,
            "velocity": 0.5905511811023622
          },
          {
            "duration": 0.07200000000000273,
            "durationTicks": 18,
            "midi": 29,
            "name": "F1",
            "ticks": 24000,
            "time": 96,
            "velocity": 0.6220472440944882
          },
          {
            "duration": 0.10000000000000853,
            "durationTicks": 25,
            "midi": 41,
            "name": "F2",
            "ticks": 24030,
            "time": 96.11999999999999,
            "velocity": 0.4645669291338583
          },
          {
            "duration": 0.09600000000000364,
            "durationTicks": 24,
            "midi": 29,
            "name": "F1",
            "ticks": 24030,
            "time": 96.11999999999999,
            "velocity": 0.49606299212598426
          },
          {
            "duration": 0.1039999999999992,
            "durationTicks": 26,
            "midi": 41,
            "name": "F2",
            "ticks": 24090,
            "time": 96.36,
            "velocity": 0.5433070866141733
          },
          {
            "duration": 0.09599999999998943,
            "durationTicks": 24,
            "midi": 29,
            "name": "F1",
            "ticks": 24090,
            "time": 96.36,
            "velocity": 0.5905511811023622
          },
          {
            "duration": 0.11199999999999477,
            "durationTicks": 28,
            "midi": 41,
            "name": "F2",
            "ticks": 24150,
            "time": 96.6,
            "velocity": 0.5118110236220472
          },
          {
            "duration": 0.10000000000000853,
            "durationTicks": 25,
            "midi": 29,
            "name": "F1",
            "ticks": 24150,
            "time": 96.6,
            "velocity": 0.5039370078740157
          },
          {
            "duration": 0.055999999999997385,
            "durationTicks": 14,
            "midi": 41,
            "name": "F2",
            "ticks": 24210,
            "time": 96.84,
            "velocity": 0.5118110236220472
          },
          {
            "duration": 0.04399999999999693,
            "durationTicks": 11,
            "midi": 29,
            "name": "F1",
            "ticks": 24210,
            "time": 96.84,
            "velocity": 0.5275590551181102
          },
          {
            "duration": 0.12000000000000455,
            "durationTicks": 30,
            "midi": 41,
            "name": "F2",
            "ticks": 24240,
            "time": 96.96,
            "velocity": 0.5118110236220472
          },
          {
            "duration": 0.1039999999999992,
            "durationTicks": 26,
            "midi": 29,
            "name": "F1",
            "ticks": 24240,
            "time": 96.96,
            "velocity": 0.5669291338582677
          },
          {
            "duration": 0.06399999999999295,
            "durationTicks": 16,
            "midi": 29,
            "name": "F1",
            "ticks": 24960,
            "time": 99.84,
            "velocity": 0.6614173228346457
          },
          {
            "duration": 0.09199999999998454,
            "durationTicks": 23,
            "midi": 41,
            "name": "F2",
            "ticks": 24960,
            "time": 99.84,
            "velocity": 0.5826771653543307
          },
          {
            "duration": 0.11599999999999966,
            "durationTicks": 29,
            "midi": 41,
            "name": "F2",
            "ticks": 24990,
            "time": 99.96,
            "velocity": 0.47244094488188976
          },
          {
            "duration": 0.1039999999999992,
            "durationTicks": 26,
            "midi": 29,
            "name": "F1",
            "ticks": 24990,
            "time": 99.96,
            "velocity": 0.5433070866141733
          },
          {
            "duration": 0.1039999999999992,
            "durationTicks": 26,
            "midi": 41,
            "name": "F2",
            "ticks": 25050,
            "time": 100.2,
            "velocity": 0.5433070866141733
          },
          {
            "duration": 0.09199999999998454,
            "durationTicks": 23,
            "midi": 29,
            "name": "F1",
            "ticks": 25050,
            "time": 100.2,
            "velocity": 0.5905511811023622
          },
          {
            "duration": 0.09599999999998943,
            "durationTicks": 24,
            "midi": 41,
            "name": "F2",
            "ticks": 25110,
            "time": 100.44,
            "velocity": 0.5669291338582677
          },
          {
            "duration": 0.10000000000000853,
            "durationTicks": 25,
            "midi": 29,
            "name": "F1",
            "ticks": 25110,
            "time": 100.44,
            "velocity": 0.5905511811023622
          },
          {
            "duration": 0.060000000000002274,
            "durationTicks": 15,
            "midi": 29,
            "name": "F1",
            "ticks": 25170,
            "time": 100.67999999999999,
            "velocity": 0.49606299212598426
          },
          {
            "duration": 0.060000000000002274,
            "durationTicks": 15,
            "midi": 41,
            "name": "F2",
            "ticks": 25170,
            "time": 100.67999999999999,
            "velocity": 0.4881889763779528
          },
          {
            "duration": 0.1039999999999992,
            "durationTicks": 26,
            "midi": 29,
            "name": "F1",
            "ticks": 25200,
            "time": 100.8,
            "velocity": 0.5826771653543307
          },
          {
            "duration": 0.12000000000000455,
            "durationTicks": 30,
            "midi": 41,
            "name": "F2",
            "ticks": 25200,
            "time": 100.8,
            "velocity": 0.5905511811023622
          },
          {
            "duration": 0.06800000000001205,
            "durationTicks": 17,
            "midi": 29,
            "name": "F1",
            "ticks": 25920,
            "time": 103.67999999999999,
            "velocity": 0.6614173228346457
          },
          {
            "duration": 0.0799999999999983,
            "durationTicks": 20,
            "midi": 41,
            "name": "F2",
            "ticks": 25920,
            "time": 103.67999999999999,
            "velocity": 0.5826771653543307
          },
          {
            "duration": 0.10000000000000853,
            "durationTicks": 25,
            "midi": 29,
            "name": "F1",
            "ticks": 25950,
            "time": 103.8,
            "velocity": 0.47244094488188976
          },
          {
            "duration": 0.10000000000000853,
            "durationTicks": 25,
            "midi": 41,
            "name": "F2",
            "ticks": 25950,
            "time": 103.8,
            "velocity": 0.4566929133858268
          },
          {
            "duration": 0.10000000000000853,
            "durationTicks": 25,
            "midi": 41,
            "name": "F2",
            "ticks": 26010,
            "time": 104.03999999999999,
            "velocity": 0.5905511811023622
          },
          {
            "duration": 0.10000000000000853,
            "durationTicks": 25,
            "midi": 29,
            "name": "F1",
            "ticks": 26010,
            "time": 104.03999999999999,
            "velocity": 0.5433070866141733
          },
          {
            "duration": 0.09599999999998943,
            "durationTicks": 24,
            "midi": 41,
            "name": "F2",
            "ticks": 26070,
            "time": 104.28,
            "velocity": 0.5826771653543307
          },
          {
            "duration": 0.09199999999999875,
            "durationTicks": 23,
            "midi": 29,
            "name": "F1",
            "ticks": 26070,
            "time": 104.28,
            "velocity": 0.5118110236220472
          },
          {
            "duration": 0.0519999999999925,
            "durationTicks": 13,
            "midi": 29,
            "name": "F1",
            "ticks": 26130,
            "time": 104.52,
            "velocity": 0.4881889763779528
          },
          {
            "duration": 0.060000000000002274,
            "durationTicks": 15,
            "midi": 41,
            "name": "F2",
            "ticks": 26130,
            "time": 104.52,
            "velocity": 0.47244094488188976
          },
          {
            "duration": 0.11199999999999477,
            "durationTicks": 28,
            "midi": 29,
            "name": "F1",
            "ticks": 26160,
            "time": 104.64,
            "velocity": 0.5905511811023622
          },
          {
            "duration": 0.11199999999999477,
            "durationTicks": 28,
            "midi": 41,
            "name": "F2",
            "ticks": 26160,
            "time": 104.64,
            "velocity": 0.5905511811023622
          },
          {
            "duration": 0.0759999999999934,
            "durationTicks": 19,
            "midi": 29,
            "name": "F1",
            "ticks": 26880,
            "time": 107.52,
            "velocity": 0.5905511811023622
          },
          {
            "duration": 0.06399999999999295,
            "durationTicks": 16,
            "midi": 41,
            "name": "F2",
            "ticks": 26880,
            "time": 107.52,
            "velocity": 0.5433070866141733
          },
          {
            "duration": 0.11199999999999477,
            "durationTicks": 28,
            "midi": 41,
            "name": "F2",
            "ticks": 26910,
            "time": 107.64,
            "velocity": 0.4645669291338583
          },
          {
            "duration": 0.1039999999999992,
            "durationTicks": 26,
            "midi": 29,
            "name": "F1",
            "ticks": 26910,
            "time": 107.64,
            "velocity": 0.47244094488188976
          },
          {
            "duration": 0.1039999999999992,
            "durationTicks": 26,
            "midi": 41,
            "name": "F2",
            "ticks": 26970,
            "time": 107.88,
            "velocity": 0.5826771653543307
          },
          {
            "duration": 0.10000000000000853,
            "durationTicks": 25,
            "midi": 29,
            "name": "F1",
            "ticks": 26970,
            "time": 107.88,
            "velocity": 0.5826771653543307
          },
          {
            "duration": 0.10000000000000853,
            "durationTicks": 25,
            "midi": 41,
            "name": "F2",
            "ticks": 27030,
            "time": 108.11999999999999,
            "velocity": 0.49606299212598426
          },
          {
            "duration": 0.09199999999999875,
            "durationTicks": 23,
            "midi": 29,
            "name": "F1",
            "ticks": 27030,
            "time": 108.11999999999999,
            "velocity": 0.5826771653543307
          },
          {
            "duration": 0.0519999999999925,
            "durationTicks": 13,
            "midi": 41,
            "name": "F2",
            "ticks": 27090,
            "time": 108.36,
            "velocity": 0.49606299212598426
          },
          {
            "duration": 0.0519999999999925,
            "durationTicks": 13,
            "midi": 29,
            "name": "F1",
            "ticks": 27090,
            "time": 108.36,
            "velocity": 0.49606299212598426
          },
          {
            "duration": 0.11199999999999477,
            "durationTicks": 28,
            "midi": 41,
            "name": "F2",
            "ticks": 27120,
            "time": 108.47999999999999,
            "velocity": 0.5433070866141733
          },
          {
            "duration": 0.11199999999999477,
            "durationTicks": 28,
            "midi": 29,
            "name": "F1",
            "ticks": 27120,
            "time": 108.47999999999999,
            "velocity": 0.5905511811023622
          },
          {
            "duration": 0.13999999999998636,
            "durationTicks": 35,
            "midi": 36,
            "name": "C2",
            "ticks": 27840,
            "time": 111.36,
            "velocity": 0.4409448818897638
          },
          {
            "duration": 0.20000000000000284,
            "durationTicks": 50,
            "midi": 36,
            "name": "C2",
            "ticks": 27900,
            "time": 111.6,
            "velocity": 0.4330708661417323
          },
          {
            "duration": 0.1360000000000099,
            "durationTicks": 34,
            "midi": 31,
            "name": "G1",
            "ticks": 27960,
            "time": 111.83999999999999,
            "velocity": 0.4566929133858268
          },
          {
            "duration": 0.17600000000000193,
            "durationTicks": 44,
            "midi": 31,
            "name": "G1",
            "ticks": 28020,
            "time": 112.08,
            "velocity": 0.4094488188976378
          },
          {
            "duration": 0.11599999999999966,
            "durationTicks": 29,
            "midi": 34,
            "name": "A#1",
            "ticks": 28080,
            "time": 112.32,
            "velocity": 0.4330708661417323
          },
          {
            "duration": 0.16799999999999216,
            "durationTicks": 42,
            "midi": 34,
            "name": "A#1",
            "ticks": 28140,
            "time": 112.56,
            "velocity": 0.3937007874015748
          },
          {
            "duration": 0.13599999999999568,
            "durationTicks": 34,
            "midi": 35,
            "name": "B1",
            "ticks": 28200,
            "time": 112.8,
            "velocity": 0.4251968503937008
          },
          {
            "duration": 0.20400000000000773,
            "durationTicks": 51,
            "midi": 35,
            "name": "B1",
            "ticks": 28260,
            "time": 113.03999999999999,
            "velocity": 0.3937007874015748
          },
          {
            "duration": 0.1599999999999966,
            "durationTicks": 40,
            "midi": 36,
            "name": "C2",
            "ticks": 28320,
            "time": 113.28,
            "velocity": 0.4645669291338583
          },
          {
            "duration": 0.1880000000000024,
            "durationTicks": 47,
            "midi": 36,
            "name": "C2",
            "ticks": 28380,
            "time": 113.52,
            "velocity": 0.3779527559055118
          },
          {
            "duration": 0.1839999999999975,
            "durationTicks": 46,
            "midi": 31,
            "name": "G1",
            "ticks": 28440,
            "time": 113.75999999999999,
            "velocity": 0.41732283464566927
          },
          {
            "duration": 0.1599999999999966,
            "durationTicks": 40,
            "midi": 31,
            "name": "G1",
            "ticks": 28500,
            "time": 114,
            "velocity": 0.4330708661417323
          },
          {
            "duration": 0.12000000000000455,
            "durationTicks": 30,
            "midi": 34,
            "name": "A#1",
            "ticks": 28560,
            "time": 114.24,
            "velocity": 0.3937007874015748
          },
          {
            "duration": 0.1839999999999975,
            "durationTicks": 46,
            "midi": 34,
            "name": "A#1",
            "ticks": 28620,
            "time": 114.47999999999999,
            "velocity": 0.41732283464566927
          },
          {
            "duration": 0.1799999999999926,
            "durationTicks": 45,
            "midi": 35,
            "name": "B1",
            "ticks": 28680,
            "time": 114.72,
            "velocity": 0.48031496062992124
          },
          {
            "duration": 0.14000000000000057,
            "durationTicks": 35,
            "midi": 36,
            "name": "C2",
            "ticks": 28800,
            "time": 115.19999999999999,
            "velocity": 0.4409448818897638
          },
          {
            "duration": 0.19999999999998863,
            "durationTicks": 50,
            "midi": 36,
            "name": "C2",
            "ticks": 28860,
            "time": 115.44,
            "velocity": 0.4330708661417323
          },
          {
            "duration": 0.13599999999999568,
            "durationTicks": 34,
            "midi": 31,
            "name": "G1",
            "ticks": 28920,
            "time": 115.67999999999999,
            "velocity": 0.4566929133858268
          },
          {
            "duration": 0.17600000000000193,
            "durationTicks": 44,
            "midi": 31,
            "name": "G1",
            "ticks": 28980,
            "time": 115.92,
            "velocity": 0.4094488188976378
          },
          {
            "duration": 0.11599999999999966,
            "durationTicks": 29,
            "midi": 34,
            "name": "A#1",
            "ticks": 29040,
            "time": 116.16,
            "velocity": 0.4330708661417323
          },
          {
            "duration": 0.16800000000000637,
            "durationTicks": 42,
            "midi": 34,
            "name": "A#1",
            "ticks": 29100,
            "time": 116.39999999999999,
            "velocity": 0.3937007874015748
          },
          {
            "duration": 0.13599999999999568,
            "durationTicks": 34,
            "midi": 35,
            "name": "B1",
            "ticks": 29160,
            "time": 116.64,
            "velocity": 0.4251968503937008
          },
          {
            "duration": 0.20400000000000773,
            "durationTicks": 51,
            "midi": 35,
            "name": "B1",
            "ticks": 29220,
            "time": 116.88,
            "velocity": 0.3937007874015748
          },
          {
            "duration": 0.1600000000000108,
            "durationTicks": 40,
            "midi": 36,
            "name": "C2",
            "ticks": 29280,
            "time": 117.11999999999999,
            "velocity": 0.4645669291338583
          },
          {
            "duration": 0.1880000000000024,
            "durationTicks": 47,
            "midi": 36,
            "name": "C2",
            "ticks": 29340,
            "time": 117.36,
            "velocity": 0.3779527559055118
          },
          {
            "duration": 0.1839999999999975,
            "durationTicks": 46,
            "midi": 31,
            "name": "G1",
            "ticks": 29400,
            "time": 117.6,
            "velocity": 0.41732283464566927
          },
          {
            "duration": 0.1600000000000108,
            "durationTicks": 40,
            "midi": 31,
            "name": "G1",
            "ticks": 29460,
            "time": 117.83999999999999,
            "velocity": 0.4330708661417323
          },
          {
            "duration": 0.11999999999999034,
            "durationTicks": 30,
            "midi": 34,
            "name": "A#1",
            "ticks": 29520,
            "time": 118.08,
            "velocity": 0.3937007874015748
          },
          {
            "duration": 0.1839999999999975,
            "durationTicks": 46,
            "midi": 34,
            "name": "A#1",
            "ticks": 29580,
            "time": 118.32,
            "velocity": 0.41732283464566927
          },
          {
            "duration": 0.1799999999999926,
            "durationTicks": 45,
            "midi": 35,
            "name": "B1",
            "ticks": 29640,
            "time": 118.56,
            "velocity": 0.48031496062992124
          },
          {
            "duration": 0.14000000000000057,
            "durationTicks": 35,
            "midi": 36,
            "name": "C2",
            "ticks": 29760,
            "time": 119.03999999999999,
            "velocity": 0.4409448818897638
          },
          {
            "duration": 0.19999999999998863,
            "durationTicks": 50,
            "midi": 36,
            "name": "C2",
            "ticks": 29820,
            "time": 119.28,
            "velocity": 0.4330708661417323
          },
          {
            "duration": 0.13599999999999568,
            "durationTicks": 34,
            "midi": 31,
            "name": "G1",
            "ticks": 29880,
            "time": 119.52,
            "velocity": 0.4566929133858268
          },
          {
            "duration": 0.17600000000000193,
            "durationTicks": 44,
            "midi": 31,
            "name": "G1",
            "ticks": 29940,
            "time": 119.75999999999999,
            "velocity": 0.4094488188976378
          },
          {
            "duration": 0.11599999999999966,
            "durationTicks": 29,
            "midi": 34,
            "name": "A#1",
            "ticks": 30000,
            "time": 120,
            "velocity": 0.4330708661417323
          },
          {
            "duration": 0.16799999999999216,
            "durationTicks": 42,
            "midi": 34,
            "name": "A#1",
            "ticks": 30060,
            "time": 120.24,
            "velocity": 0.3937007874015748
          },
          {
            "duration": 0.1360000000000099,
            "durationTicks": 34,
            "midi": 35,
            "name": "B1",
            "ticks": 30120,
            "time": 120.47999999999999,
            "velocity": 0.4251968503937008
          },
          {
            "duration": 0.20400000000000773,
            "durationTicks": 51,
            "midi": 35,
            "name": "B1",
            "ticks": 30180,
            "time": 120.72,
            "velocity": 0.3937007874015748
          },
          {
            "duration": 0.1600000000000108,
            "durationTicks": 40,
            "midi": 36,
            "name": "C2",
            "ticks": 30240,
            "time": 120.96,
            "velocity": 0.4645669291338583
          },
          {
            "duration": 0.1880000000000166,
            "durationTicks": 47,
            "midi": 36,
            "name": "C2",
            "ticks": 30300,
            "time": 121.19999999999999,
            "velocity": 0.3779527559055118
          },
          {
            "duration": 0.1839999999999975,
            "durationTicks": 46,
            "midi": 31,
            "name": "G1",
            "ticks": 30360,
            "time": 121.44,
            "velocity": 0.41732283464566927
          },
          {
            "duration": 0.1600000000000108,
            "durationTicks": 40,
            "midi": 31,
            "name": "G1",
            "ticks": 30420,
            "time": 121.67999999999999,
            "velocity": 0.4330708661417323
          },
          {
            "duration": 0.11999999999999034,
            "durationTicks": 30,
            "midi": 34,
            "name": "A#1",
            "ticks": 30480,
            "time": 121.92,
            "velocity": 0.3937007874015748
          },
          {
            "duration": 0.1839999999999975,
            "durationTicks": 46,
            "midi": 34,
            "name": "A#1",
            "ticks": 30540,
            "time": 122.16,
            "velocity": 0.41732283464566927
          },
          {
            "duration": 0.18000000000000682,
            "durationTicks": 45,
            "midi": 35,
            "name": "B1",
            "ticks": 30600,
            "time": 122.39999999999999,
            "velocity": 0.48031496062992124
          },
          {
            "duration": 0.14000000000001478,
            "durationTicks": 35,
            "midi": 36,
            "name": "C2",
            "ticks": 30720,
            "time": 122.88,
            "velocity": 0.4409448818897638
          },
          {
            "duration": 0.20000000000001705,
            "durationTicks": 50,
            "midi": 36,
            "name": "C2",
            "ticks": 30780,
            "time": 123.11999999999999,
            "velocity": 0.4330708661417323
          },
          {
            "duration": 0.1360000000000099,
            "durationTicks": 34,
            "midi": 31,
            "name": "G1",
            "ticks": 30840,
            "time": 123.36,
            "velocity": 0.4566929133858268
          },
          {
            "duration": 0.17600000000000193,
            "durationTicks": 44,
            "midi": 31,
            "name": "G1",
            "ticks": 30900,
            "time": 123.6,
            "velocity": 0.4094488188976378
          },
          {
            "duration": 0.11600000000001387,
            "durationTicks": 29,
            "midi": 34,
            "name": "A#1",
            "ticks": 30960,
            "time": 123.83999999999999,
            "velocity": 0.4330708661417323
          },
          {
            "duration": 0.16800000000000637,
            "durationTicks": 42,
            "midi": 34,
            "name": "A#1",
            "ticks": 31020,
            "time": 124.08,
            "velocity": 0.3937007874015748
          },
          {
            "duration": 0.1360000000000099,
            "durationTicks": 34,
            "midi": 35,
            "name": "B1",
            "ticks": 31080,
            "time": 124.32,
            "velocity": 0.4251968503937008
          },
          {
            "duration": 0.20399999999999352,
            "durationTicks": 51,
            "midi": 35,
            "name": "B1",
            "ticks": 31140,
            "time": 124.56,
            "velocity": 0.3937007874015748
          },
          {
            "duration": 0.15999999999998238,
            "durationTicks": 40,
            "midi": 36,
            "name": "C2",
            "ticks": 31200,
            "time": 124.8,
            "velocity": 0.4645669291338583
          },
          {
            "duration": 0.1880000000000024,
            "durationTicks": 47,
            "midi": 36,
            "name": "C2",
            "ticks": 31260,
            "time": 125.03999999999999,
            "velocity": 0.3779527559055118
          },
          {
            "duration": 0.1839999999999975,
            "durationTicks": 46,
            "midi": 31,
            "name": "G1",
            "ticks": 31320,
            "time": 125.28,
            "velocity": 0.41732283464566927
          },
          {
            "duration": 0.1599999999999966,
            "durationTicks": 40,
            "midi": 31,
            "name": "G1",
            "ticks": 31380,
            "time": 125.52,
            "velocity": 0.4330708661417323
          },
          {
            "duration": 0.12000000000000455,
            "durationTicks": 30,
            "midi": 34,
            "name": "A#1",
            "ticks": 31440,
            "time": 125.75999999999999,
            "velocity": 0.3937007874015748
          },
          {
            "duration": 0.1839999999999975,
            "durationTicks": 46,
            "midi": 34,
            "name": "A#1",
            "ticks": 31500,
            "time": 126,
            "velocity": 0.41732283464566927
          },
          {
            "duration": 0.18000000000000682,
            "durationTicks": 45,
            "midi": 35,
            "name": "B1",
            "ticks": 31560,
            "time": 126.24,
            "velocity": 0.48031496062992124
          },
          {
            "duration": 0.11200000000000898,
            "durationTicks": 28,
            "midi": 36,
            "name": "C2",
            "ticks": 31680,
            "time": 126.72,
            "velocity": 0.5905511811023622
          },
          {
            "duration": 0.11599999999999966,
            "durationTicks": 29,
            "midi": 48,
            "name": "C3",
            "ticks": 31740,
            "time": 126.96,
            "velocity": 0.5118110236220472
          },
          {
            "duration": 0.12400000000000944,
            "durationTicks": 31,
            "midi": 36,
            "name": "C2",
            "ticks": 31800,
            "time": 127.19999999999999,
            "velocity": 0.47244094488188976
          },
          {
            "duration": 0.11200000000000898,
            "durationTicks": 28,
            "midi": 48,
            "name": "C3",
            "ticks": 31860,
            "time": 127.44,
            "velocity": 0.5275590551181102
          },
          {
            "duration": 0.12399999999999523,
            "durationTicks": 31,
            "midi": 36,
            "name": "C2",
            "ticks": 31920,
            "time": 127.67999999999999,
            "velocity": 0.4881889763779528
          },
          {
            "duration": 0.1360000000000099,
            "durationTicks": 34,
            "midi": 48,
            "name": "C3",
            "ticks": 31980,
            "time": 127.92,
            "velocity": 0.5669291338582677
          },
          {
            "duration": 0.11199999999999477,
            "durationTicks": 28,
            "midi": 36,
            "name": "C2",
            "ticks": 32040,
            "time": 128.16,
            "velocity": 0.5118110236220472
          },
          {
            "duration": 0.0759999999999934,
            "durationTicks": 19,
            "midi": 48,
            "name": "C3",
            "ticks": 32100,
            "time": 128.4,
            "velocity": 0.5905511811023622
          },
          {
            "duration": 0.11200000000002319,
            "durationTicks": 28,
            "midi": 36,
            "name": "C2",
            "ticks": 32160,
            "time": 128.64,
            "velocity": 0.5905511811023622
          },
          {
            "duration": 0.11600000000001387,
            "durationTicks": 29,
            "midi": 48,
            "name": "C3",
            "ticks": 32220,
            "time": 128.88,
            "velocity": 0.5118110236220472
          },
          {
            "duration": 0.12399999999999523,
            "durationTicks": 31,
            "midi": 36,
            "name": "C2",
            "ticks": 32280,
            "time": 129.12,
            "velocity": 0.47244094488188976
          },
          {
            "duration": 0.11200000000002319,
            "durationTicks": 28,
            "midi": 48,
            "name": "C3",
            "ticks": 32340,
            "time": 129.35999999999999,
            "velocity": 0.5275590551181102
          },
          {
            "duration": 0.12399999999999523,
            "durationTicks": 31,
            "midi": 36,
            "name": "C2",
            "ticks": 32400,
            "time": 129.6,
            "velocity": 0.4881889763779528
          },
          {
            "duration": 0.13599999999999568,
            "durationTicks": 34,
            "midi": 48,
            "name": "C3",
            "ticks": 32460,
            "time": 129.84,
            "velocity": 0.5669291338582677
          },
          {
            "duration": 0.11200000000002319,
            "durationTicks": 28,
            "midi": 36,
            "name": "C2",
            "ticks": 32520,
            "time": 130.07999999999998,
            "velocity": 0.5118110236220472
          },
          {
            "duration": 0.07600000000002183,
            "durationTicks": 19,
            "midi": 48,
            "name": "C3",
            "ticks": 32580,
            "time": 130.32,
            "velocity": 0.5905511811023622
          },
          {
            "duration": 0.11199999999999477,
            "durationTicks": 28,
            "midi": 36,
            "name": "C2",
            "ticks": 32640,
            "time": 130.56,
            "velocity": 0.5905511811023622
          },
          {
            "duration": 0.11600000000001387,
            "durationTicks": 29,
            "midi": 48,
            "name": "C3",
            "ticks": 32700,
            "time": 130.79999999999998,
            "velocity": 0.5118110236220472
          },
          {
            "duration": 0.12399999999999523,
            "durationTicks": 31,
            "midi": 36,
            "name": "C2",
            "ticks": 32760,
            "time": 131.04,
            "velocity": 0.47244094488188976
          },
          {
            "duration": 0.11199999999999477,
            "durationTicks": 28,
            "midi": 48,
            "name": "C3",
            "ticks": 32820,
            "time": 131.28,
            "velocity": 0.5275590551181102
          },
          {
            "duration": 0.12400000000002365,
            "durationTicks": 31,
            "midi": 36,
            "name": "C2",
            "ticks": 32880,
            "time": 131.51999999999998,
            "velocity": 0.4881889763779528
          },
          {
            "duration": 0.1360000000000241,
            "durationTicks": 34,
            "midi": 48,
            "name": "C3",
            "ticks": 32940,
            "time": 131.76,
            "velocity": 0.5669291338582677
          },
          {
            "duration": 0.11199999999999477,
            "durationTicks": 28,
            "midi": 36,
            "name": "C2",
            "ticks": 33000,
            "time": 132,
            "velocity": 0.5118110236220472
          },
          {
            "duration": 0.0759999999999934,
            "durationTicks": 19,
            "midi": 48,
            "name": "C3",
            "ticks": 33060,
            "time": 132.24,
            "velocity": 0.5905511811023622
          },
          {
            "duration": 0.11200000000002319,
            "durationTicks": 28,
            "midi": 36,
            "name": "C2",
            "ticks": 33120,
            "time": 132.48,
            "velocity": 0.5905511811023622
          },
          {
            "duration": 0.11600000000001387,
            "durationTicks": 29,
            "midi": 48,
            "name": "C3",
            "ticks": 33180,
            "time": 132.72,
            "velocity": 0.5118110236220472
          },
          {
            "duration": 0.12399999999999523,
            "durationTicks": 31,
            "midi": 36,
            "name": "C2",
            "ticks": 33240,
            "time": 132.96,
            "velocity": 0.47244094488188976
          },
          {
            "duration": 0.11200000000002319,
            "durationTicks": 28,
            "midi": 48,
            "name": "C3",
            "ticks": 33300,
            "time": 133.2,
            "velocity": 0.5275590551181102
          },
          {
            "duration": 0.12399999999999523,
            "durationTicks": 31,
            "midi": 36,
            "name": "C2",
            "ticks": 33360,
            "time": 133.44,
            "velocity": 0.4881889763779528
          },
          {
            "duration": 0.13599999999999568,
            "durationTicks": 34,
            "midi": 48,
            "name": "C3",
            "ticks": 33420,
            "time": 133.68,
            "velocity": 0.5669291338582677
          },
          {
            "duration": 0.11200000000002319,
            "durationTicks": 28,
            "midi": 36,
            "name": "C2",
            "ticks": 33480,
            "time": 133.92,
            "velocity": 0.5118110236220472
          },
          {
            "duration": 0.07600000000002183,
            "durationTicks": 19,
            "midi": 48,
            "name": "C3",
            "ticks": 33540,
            "time": 134.16,
            "velocity": 0.5905511811023622
          },
          {
            "duration": 0.11199999999999477,
            "durationTicks": 28,
            "midi": 36,
            "name": "C2",
            "ticks": 33600,
            "time": 134.4,
            "velocity": 0.5905511811023622
          },
          {
            "duration": 0.11600000000001387,
            "durationTicks": 29,
            "midi": 48,
            "name": "C3",
            "ticks": 33660,
            "time": 134.64,
            "velocity": 0.5118110236220472
          },
          {
            "duration": 0.12399999999999523,
            "durationTicks": 31,
            "midi": 36,
            "name": "C2",
            "ticks": 33720,
            "time": 134.88,
            "velocity": 0.47244094488188976
          },
          {
            "duration": 0.11199999999999477,
            "durationTicks": 28,
            "midi": 48,
            "name": "C3",
            "ticks": 33780,
            "time": 135.12,
            "velocity": 0.5275590551181102
          },
          {
            "duration": 0.12399999999999523,
            "durationTicks": 31,
            "midi": 36,
            "name": "C2",
            "ticks": 33840,
            "time": 135.35999999999999,
            "velocity": 0.4881889763779528
          },
          {
            "duration": 0.1360000000000241,
            "durationTicks": 34,
            "midi": 48,
            "name": "C3",
            "ticks": 33900,
            "time": 135.6,
            "velocity": 0.5669291338582677
          },
          {
            "duration": 0.11199999999999477,
            "durationTicks": 28,
            "midi": 36,
            "name": "C2",
            "ticks": 33960,
            "time": 135.84,
            "velocity": 0.5118110236220472
          },
          {
            "duration": 0.07600000000002183,
            "durationTicks": 19,
            "midi": 48,
            "name": "C3",
            "ticks": 34020,
            "time": 136.07999999999998,
            "velocity": 0.5905511811023622
          },
          {
            "duration": 0.11200000000002319,
            "durationTicks": 28,
            "midi": 36,
            "name": "C2",
            "ticks": 34080,
            "time": 136.32,
            "velocity": 0.5905511811023622
          },
          {
            "duration": 0.11599999999998545,
            "durationTicks": 29,
            "midi": 48,
            "name": "C3",
            "ticks": 34140,
            "time": 136.56,
            "velocity": 0.5118110236220472
          },
          {
            "duration": 0.12399999999999523,
            "durationTicks": 31,
            "midi": 36,
            "name": "C2",
            "ticks": 34200,
            "time": 136.79999999999998,
            "velocity": 0.47244094488188976
          },
          {
            "duration": 0.11200000000002319,
            "durationTicks": 28,
            "midi": 48,
            "name": "C3",
            "ticks": 34260,
            "time": 137.04,
            "velocity": 0.5275590551181102
          },
          {
            "duration": 0.12399999999999523,
            "durationTicks": 31,
            "midi": 36,
            "name": "C2",
            "ticks": 34320,
            "time": 137.28,
            "velocity": 0.4881889763779528
          },
          {
            "duration": 0.1360000000000241,
            "durationTicks": 34,
            "midi": 48,
            "name": "C3",
            "ticks": 34380,
            "time": 137.51999999999998,
            "velocity": 0.5669291338582677
          },
          {
            "duration": 0.11200000000002319,
            "durationTicks": 28,
            "midi": 36,
            "name": "C2",
            "ticks": 34440,
            "time": 137.76,
            "velocity": 0.5118110236220472
          },
          {
            "duration": 0.07600000000002183,
            "durationTicks": 19,
            "midi": 48,
            "name": "C3",
            "ticks": 34500,
            "time": 138,
            "velocity": 0.5905511811023622
          },
          {
            "duration": 0.11199999999999477,
            "durationTicks": 28,
            "midi": 36,
            "name": "C2",
            "ticks": 34560,
            "time": 138.24,
            "velocity": 0.5905511811023622
          },
          {
            "duration": 0.11600000000001387,
            "durationTicks": 29,
            "midi": 48,
            "name": "C3",
            "ticks": 34620,
            "time": 138.48,
            "velocity": 0.5118110236220472
          },
          {
            "duration": 0.12399999999999523,
            "durationTicks": 31,
            "midi": 36,
            "name": "C2",
            "ticks": 34680,
            "time": 138.72,
            "velocity": 0.47244094488188976
          },
          {
            "duration": 0.11199999999999477,
            "durationTicks": 28,
            "midi": 48,
            "name": "C3",
            "ticks": 34740,
            "time": 138.96,
            "velocity": 0.5275590551181102
          },
          {
            "duration": 0.12399999999999523,
            "durationTicks": 31,
            "midi": 36,
            "name": "C2",
            "ticks": 34800,
            "time": 139.2,
            "velocity": 0.4881889763779528
          },
          {
            "duration": 0.13599999999999568,
            "durationTicks": 34,
            "midi": 48,
            "name": "C3",
            "ticks": 34860,
            "time": 139.44,
            "velocity": 0.5669291338582677
          },
          {
            "duration": 0.11199999999999477,
            "durationTicks": 28,
            "midi": 36,
            "name": "C2",
            "ticks": 34920,
            "time": 139.68,
            "velocity": 0.5118110236220472
          },
          {
            "duration": 0.07600000000002183,
            "durationTicks": 19,
            "midi": 48,
            "name": "C3",
            "ticks": 34980,
            "time": 139.92,
            "velocity": 0.5905511811023622
          },
          {
            "duration": 0.11199999999999477,
            "durationTicks": 28,
            "midi": 36,
            "name": "C2",
            "ticks": 35040,
            "time": 140.16,
            "velocity": 0.5905511811023622
          },
          {
            "duration": 0.11599999999998545,
            "durationTicks": 29,
            "midi": 48,
            "name": "C3",
            "ticks": 35100,
            "time": 140.4,
            "velocity": 0.5118110236220472
          },
          {
            "duration": 0.12399999999999523,
            "durationTicks": 31,
            "midi": 36,
            "name": "C2",
            "ticks": 35160,
            "time": 140.64,
            "velocity": 0.47244094488188976
          },
          {
            "duration": 0.11199999999999477,
            "durationTicks": 28,
            "midi": 48,
            "name": "C3",
            "ticks": 35220,
            "time": 140.88,
            "velocity": 0.5275590551181102
          },
          {
            "duration": 0.12399999999999523,
            "durationTicks": 31,
            "midi": 36,
            "name": "C2",
            "ticks": 35280,
            "time": 141.12,
            "velocity": 0.4881889763779528
          },
          {
            "duration": 0.1360000000000241,
            "durationTicks": 34,
            "midi": 48,
            "name": "C3",
            "ticks": 35340,
            "time": 141.35999999999999,
            "velocity": 0.5669291338582677
          },
          {
            "duration": 0.11199999999999477,
            "durationTicks": 28,
            "midi": 36,
            "name": "C2",
            "ticks": 35400,
            "time": 141.6,
            "velocity": 0.5118110236220472
          },
          {
            "duration": 0.0759999999999934,
            "durationTicks": 19,
            "midi": 48,
            "name": "C3",
            "ticks": 35460,
            "time": 141.84,
            "velocity": 0.5905511811023622
          },
          {
            "duration": 0.11200000000002319,
            "durationTicks": 28,
            "midi": 36,
            "name": "C2",
            "ticks": 35520,
            "time": 142.07999999999998,
            "velocity": 0.5905511811023622
          },
          {
            "duration": 0.11600000000001387,
            "durationTicks": 29,
            "midi": 48,
            "name": "C3",
            "ticks": 35580,
            "time": 142.32,
            "velocity": 0.5118110236220472
          },
          {
            "duration": 0.12399999999999523,
            "durationTicks": 31,
            "midi": 36,
            "name": "C2",
            "ticks": 35640,
            "time": 142.56,
            "velocity": 0.47244094488188976
          },
          {
            "duration": 0.11200000000002319,
            "durationTicks": 28,
            "midi": 48,
            "name": "C3",
            "ticks": 35700,
            "time": 142.79999999999998,
            "velocity": 0.5275590551181102
          },
          {
            "duration": 0.12399999999999523,
            "durationTicks": 31,
            "midi": 36,
            "name": "C2",
            "ticks": 35760,
            "time": 143.04,
            "velocity": 0.4881889763779528
          },
          {
            "duration": 0.13599999999999568,
            "durationTicks": 34,
            "midi": 48,
            "name": "C3",
            "ticks": 35820,
            "time": 143.28,
            "velocity": 0.5669291338582677
          },
          {
            "duration": 0.11200000000002319,
            "durationTicks": 28,
            "midi": 36,
            "name": "C2",
            "ticks": 35880,
            "time": 143.51999999999998,
            "velocity": 0.5118110236220472
          },
          {
            "duration": 0.07600000000002183,
            "durationTicks": 19,
            "midi": 48,
            "name": "C3",
            "ticks": 35940,
            "time": 143.76,
            "velocity": 0.5905511811023622
          },
          {
            "duration": 0.11199999999999477,
            "durationTicks": 28,
            "midi": 36,
            "name": "C2",
            "ticks": 36000,
            "time": 144,
            "velocity": 0.5905511811023622
          },
          {
            "duration": 0.11600000000001387,
            "durationTicks": 29,
            "midi": 48,
            "name": "C3",
            "ticks": 36060,
            "time": 144.23999999999998,
            "velocity": 0.5118110236220472
          },
          {
            "duration": 0.12399999999999523,
            "durationTicks": 31,
            "midi": 36,
            "name": "C2",
            "ticks": 36120,
            "time": 144.48,
            "velocity": 0.47244094488188976
          },
          {
            "duration": 0.11199999999999477,
            "durationTicks": 28,
            "midi": 48,
            "name": "C3",
            "ticks": 36180,
            "time": 144.72,
            "velocity": 0.5275590551181102
          },
          {
            "duration": 0.12399999999999523,
            "durationTicks": 31,
            "midi": 36,
            "name": "C2",
            "ticks": 36240,
            "time": 144.96,
            "velocity": 0.4881889763779528
          },
          {
            "duration": 0.1360000000000241,
            "durationTicks": 34,
            "midi": 48,
            "name": "C3",
            "ticks": 36300,
            "time": 145.2,
            "velocity": 0.5669291338582677
          },
          {
            "duration": 0.11199999999999477,
            "durationTicks": 28,
            "midi": 36,
            "name": "C2",
            "ticks": 36360,
            "time": 145.44,
            "velocity": 0.5118110236220472
          },
          {
            "duration": 0.0759999999999934,
            "durationTicks": 19,
            "midi": 48,
            "name": "C3",
            "ticks": 36420,
            "time": 145.68,
            "velocity": 0.5905511811023622
          },
          {
            "duration": 0.11200000000002319,
            "durationTicks": 28,
            "midi": 36,
            "name": "C2",
            "ticks": 36480,
            "time": 145.92,
            "velocity": 0.5905511811023622
          },
          {
            "duration": 0.11600000000001387,
            "durationTicks": 29,
            "midi": 48,
            "name": "C3",
            "ticks": 36540,
            "time": 146.16,
            "velocity": 0.5118110236220472
          },
          {
            "duration": 0.12399999999999523,
            "durationTicks": 31,
            "midi": 36,
            "name": "C2",
            "ticks": 36600,
            "time": 146.4,
            "velocity": 0.47244094488188976
          },
          {
            "duration": 0.11200000000002319,
            "durationTicks": 28,
            "midi": 48,
            "name": "C3",
            "ticks": 36660,
            "time": 146.64,
            "velocity": 0.5275590551181102
          },
          {
            "duration": 0.12399999999999523,
            "durationTicks": 31,
            "midi": 36,
            "name": "C2",
            "ticks": 36720,
            "time": 146.88,
            "velocity": 0.4881889763779528
          },
          {
            "duration": 0.13599999999999568,
            "durationTicks": 34,
            "midi": 48,
            "name": "C3",
            "ticks": 36780,
            "time": 147.12,
            "velocity": 0.5669291338582677
          },
          {
            "duration": 0.11200000000002319,
            "durationTicks": 28,
            "midi": 36,
            "name": "C2",
            "ticks": 36840,
            "time": 147.35999999999999,
            "velocity": 0.5118110236220472
          },
          {
            "duration": 0.07600000000002183,
            "durationTicks": 19,
            "midi": 48,
            "name": "C3",
            "ticks": 36900,
            "time": 147.6,
            "velocity": 0.5905511811023622
          },
          {
            "duration": 0.11199999999999477,
            "durationTicks": 28,
            "midi": 36,
            "name": "C2",
            "ticks": 36960,
            "time": 147.84,
            "velocity": 0.5905511811023622
          },
          {
            "duration": 0.11600000000001387,
            "durationTicks": 29,
            "midi": 48,
            "name": "C3",
            "ticks": 37020,
            "time": 148.07999999999998,
            "velocity": 0.5118110236220472
          },
          {
            "duration": 0.12399999999999523,
            "durationTicks": 31,
            "midi": 36,
            "name": "C2",
            "ticks": 37080,
            "time": 148.32,
            "velocity": 0.47244094488188976
          },
          {
            "duration": 0.11199999999999477,
            "durationTicks": 28,
            "midi": 48,
            "name": "C3",
            "ticks": 37140,
            "time": 148.56,
            "velocity": 0.5275590551181102
          },
          {
            "duration": 0.12399999999999523,
            "durationTicks": 31,
            "midi": 36,
            "name": "C2",
            "ticks": 37200,
            "time": 148.79999999999998,
            "velocity": 0.4881889763779528
          },
          {
            "duration": 0.1360000000000241,
            "durationTicks": 34,
            "midi": 48,
            "name": "C3",
            "ticks": 37260,
            "time": 149.04,
            "velocity": 0.5669291338582677
          },
          {
            "duration": 0.11199999999999477,
            "durationTicks": 28,
            "midi": 36,
            "name": "C2",
            "ticks": 37320,
            "time": 149.28,
            "velocity": 0.5118110236220472
          },
          {
            "duration": 0.07600000000002183,
            "durationTicks": 19,
            "midi": 48,
            "name": "C3",
            "ticks": 37380,
            "time": 149.51999999999998,
            "velocity": 0.5905511811023622
          },
          {
            "duration": 0.11200000000002319,
            "durationTicks": 28,
            "midi": 36,
            "name": "C2",
            "ticks": 37440,
            "time": 149.76,
            "velocity": 0.5905511811023622
          },
          {
            "duration": 0.11599999999998545,
            "durationTicks": 29,
            "midi": 48,
            "name": "C3",
            "ticks": 37500,
            "time": 150,
            "velocity": 0.5118110236220472
          },
          {
            "duration": 0.12400000000002365,
            "durationTicks": 31,
            "midi": 36,
            "name": "C2",
            "ticks": 37560,
            "time": 150.23999999999998,
            "velocity": 0.47244094488188976
          },
          {
            "duration": 0.11200000000002319,
            "durationTicks": 28,
            "midi": 48,
            "name": "C3",
            "ticks": 37620,
            "time": 150.48,
            "velocity": 0.5275590551181102
          },
          {
            "duration": 0.12399999999999523,
            "durationTicks": 31,
            "midi": 36,
            "name": "C2",
            "ticks": 37680,
            "time": 150.72,
            "velocity": 0.4881889763779528
          },
          {
            "duration": 0.13599999999999568,
            "durationTicks": 34,
            "midi": 48,
            "name": "C3",
            "ticks": 37740,
            "time": 150.96,
            "velocity": 0.5669291338582677
          },
          {
            "duration": 0.11200000000002319,
            "durationTicks": 28,
            "midi": 36,
            "name": "C2",
            "ticks": 37800,
            "time": 151.2,
            "velocity": 0.5118110236220472
          },
          {
            "duration": 0.07600000000002183,
            "durationTicks": 19,
            "midi": 48,
            "name": "C3",
            "ticks": 37860,
            "time": 151.44,
            "velocity": 0.5905511811023622
          },
          {
            "duration": 0.11199999999999477,
            "durationTicks": 28,
            "midi": 36,
            "name": "C2",
            "ticks": 37920,
            "time": 151.68,
            "velocity": 0.5905511811023622
          },
          {
            "duration": 0.11600000000001387,
            "durationTicks": 29,
            "midi": 48,
            "name": "C3",
            "ticks": 37980,
            "time": 151.92,
            "velocity": 0.5118110236220472
          },
          {
            "duration": 0.12399999999999523,
            "durationTicks": 31,
            "midi": 36,
            "name": "C2",
            "ticks": 38040,
            "time": 152.16,
            "velocity": 0.47244094488188976
          },
          {
            "duration": 0.11199999999999477,
            "durationTicks": 28,
            "midi": 48,
            "name": "C3",
            "ticks": 38100,
            "time": 152.4,
            "velocity": 0.5275590551181102
          },
          {
            "duration": 0.12399999999999523,
            "durationTicks": 31,
            "midi": 36,
            "name": "C2",
            "ticks": 38160,
            "time": 152.64,
            "velocity": 0.4881889763779528
          },
          {
            "duration": 0.1360000000000241,
            "durationTicks": 34,
            "midi": 48,
            "name": "C3",
            "ticks": 38220,
            "time": 152.88,
            "velocity": 0.5669291338582677
          },
          {
            "duration": 0.11199999999999477,
            "durationTicks": 28,
            "midi": 36,
            "name": "C2",
            "ticks": 38280,
            "time": 153.12,
            "velocity": 0.5118110236220472
          },
          {
            "duration": 0.07600000000002183,
            "durationTicks": 19,
            "midi": 48,
            "name": "C3",
            "ticks": 38340,
            "time": 153.35999999999999,
            "velocity": 0.5905511811023622
          },
          {
            "duration": 0.11199999999999477,
            "durationTicks": 28,
            "midi": 43,
            "name": "G2",
            "ticks": 38400,
            "time": 153.6,
            "velocity": 0.5275590551181102
          },
          {
            "duration": 0.1279999999999859,
            "durationTicks": 32,
            "midi": 55,
            "name": "G3",
            "ticks": 38460,
            "time": 153.84,
            "velocity": 0.47244094488188976
          },
          {
            "duration": 0.12000000000000455,
            "durationTicks": 30,
            "midi": 43,
            "name": "G2",
            "ticks": 38520,
            "time": 154.07999999999998,
            "velocity": 0.4645669291338583
          },
          {
            "duration": 0.14400000000000546,
            "durationTicks": 36,
            "midi": 55,
            "name": "G3",
            "ticks": 38580,
            "time": 154.32,
            "velocity": 0.47244094488188976
          },
          {
            "duration": 0.1279999999999859,
            "durationTicks": 32,
            "midi": 43,
            "name": "G2",
            "ticks": 38640,
            "time": 154.56,
            "velocity": 0.4645669291338583
          },
          {
            "duration": 0.14400000000000546,
            "durationTicks": 36,
            "midi": 55,
            "name": "G3",
            "ticks": 38700,
            "time": 154.79999999999998,
            "velocity": 0.47244094488188976
          },
          {
            "duration": 0.10800000000000409,
            "durationTicks": 27,
            "midi": 43,
            "name": "G2",
            "ticks": 38760,
            "time": 155.04,
            "velocity": 0.5275590551181102
          },
          {
            "duration": 0.08799999999999386,
            "durationTicks": 22,
            "midi": 55,
            "name": "G3",
            "ticks": 38820,
            "time": 155.28,
            "velocity": 0.5039370078740157
          },
          {
            "duration": 0.11200000000002319,
            "durationTicks": 28,
            "midi": 43,
            "name": "G2",
            "ticks": 38880,
            "time": 155.51999999999998,
            "velocity": 0.5275590551181102
          },
          {
            "duration": 0.1279999999999859,
            "durationTicks": 32,
            "midi": 55,
            "name": "G3",
            "ticks": 38940,
            "time": 155.76,
            "velocity": 0.47244094488188976
          },
          {
            "duration": 0.12000000000000455,
            "durationTicks": 30,
            "midi": 43,
            "name": "G2",
            "ticks": 39000,
            "time": 156,
            "velocity": 0.4645669291338583
          },
          {
            "duration": 0.14400000000000546,
            "durationTicks": 36,
            "midi": 55,
            "name": "G3",
            "ticks": 39060,
            "time": 156.23999999999998,
            "velocity": 0.47244094488188976
          },
          {
            "duration": 0.1279999999999859,
            "durationTicks": 32,
            "midi": 43,
            "name": "G2",
            "ticks": 39120,
            "time": 156.48,
            "velocity": 0.4645669291338583
          },
          {
            "duration": 0.14400000000000546,
            "durationTicks": 36,
            "midi": 55,
            "name": "G3",
            "ticks": 39180,
            "time": 156.72,
            "velocity": 0.47244094488188976
          },
          {
            "duration": 0.10800000000000409,
            "durationTicks": 27,
            "midi": 43,
            "name": "G2",
            "ticks": 39240,
            "time": 156.96,
            "velocity": 0.5275590551181102
          },
          {
            "duration": 0.08799999999999386,
            "durationTicks": 22,
            "midi": 55,
            "name": "G3",
            "ticks": 39300,
            "time": 157.2,
            "velocity": 0.5039370078740157
          },
          {
            "duration": 0.11199999999999477,
            "durationTicks": 28,
            "midi": 43,
            "name": "G2",
            "ticks": 39360,
            "time": 157.44,
            "velocity": 0.5275590551181102
          },
          {
            "duration": 0.1279999999999859,
            "durationTicks": 32,
            "midi": 55,
            "name": "G3",
            "ticks": 39420,
            "time": 157.68,
            "velocity": 0.47244094488188976
          },
          {
            "duration": 0.12000000000000455,
            "durationTicks": 30,
            "midi": 43,
            "name": "G2",
            "ticks": 39480,
            "time": 157.92,
            "velocity": 0.4645669291338583
          },
          {
            "duration": 0.14400000000000546,
            "durationTicks": 36,
            "midi": 55,
            "name": "G3",
            "ticks": 39540,
            "time": 158.16,
            "velocity": 0.47244094488188976
          },
          {
            "duration": 0.1279999999999859,
            "durationTicks": 32,
            "midi": 43,
            "name": "G2",
            "ticks": 39600,
            "time": 158.4,
            "velocity": 0.4645669291338583
          },
          {
            "duration": 0.14400000000000546,
            "durationTicks": 36,
            "midi": 55,
            "name": "G3",
            "ticks": 39660,
            "time": 158.64,
            "velocity": 0.47244094488188976
          },
          {
            "duration": 0.10800000000000409,
            "durationTicks": 27,
            "midi": 43,
            "name": "G2",
            "ticks": 39720,
            "time": 158.88,
            "velocity": 0.5275590551181102
          },
          {
            "duration": 0.08799999999999386,
            "durationTicks": 22,
            "midi": 55,
            "name": "G3",
            "ticks": 39780,
            "time": 159.12,
            "velocity": 0.5039370078740157
          },
          {
            "duration": 0.11200000000002319,
            "durationTicks": 28,
            "midi": 43,
            "name": "G2",
            "ticks": 39840,
            "time": 159.35999999999999,
            "velocity": 0.5275590551181102
          },
          {
            "duration": 0.1279999999999859,
            "durationTicks": 32,
            "midi": 55,
            "name": "G3",
            "ticks": 39900,
            "time": 159.6,
            "velocity": 0.47244094488188976
          },
          {
            "duration": 0.12000000000000455,
            "durationTicks": 30,
            "midi": 43,
            "name": "G2",
            "ticks": 39960,
            "time": 159.84,
            "velocity": 0.4645669291338583
          },
          {
            "duration": 0.14400000000000546,
            "durationTicks": 36,
            "midi": 55,
            "name": "G3",
            "ticks": 40020,
            "time": 160.07999999999998,
            "velocity": 0.47244094488188976
          },
          {
            "duration": 0.1279999999999859,
            "durationTicks": 32,
            "midi": 43,
            "name": "G2",
            "ticks": 40080,
            "time": 160.32,
            "velocity": 0.4645669291338583
          },
          {
            "duration": 0.14400000000000546,
            "durationTicks": 36,
            "midi": 55,
            "name": "G3",
            "ticks": 40140,
            "time": 160.56,
            "velocity": 0.47244094488188976
          },
          {
            "duration": 0.10800000000003251,
            "durationTicks": 27,
            "midi": 43,
            "name": "G2",
            "ticks": 40200,
            "time": 160.79999999999998,
            "velocity": 0.5275590551181102
          },
          {
            "duration": 0.08799999999999386,
            "durationTicks": 22,
            "midi": 55,
            "name": "G3",
            "ticks": 40260,
            "time": 161.04,
            "velocity": 0.5039370078740157
          },
          {
            "duration": 0.103999999999985,
            "durationTicks": 26,
            "midi": 43,
            "name": "G2",
            "ticks": 40320,
            "time": 161.28,
            "velocity": 0.5433070866141733
          },
          {
            "duration": 0.14000000000001478,
            "durationTicks": 35,
            "midi": 55,
            "name": "G3",
            "ticks": 40380,
            "time": 161.51999999999998,
            "velocity": 0.44881889763779526
          },
          {
            "duration": 0.11600000000001387,
            "durationTicks": 29,
            "midi": 43,
            "name": "G2",
            "ticks": 40440,
            "time": 161.76,
            "velocity": 0.49606299212598426
          },
          {
            "duration": 0.14400000000000546,
            "durationTicks": 36,
            "midi": 55,
            "name": "G3",
            "ticks": 40500,
            "time": 162,
            "velocity": 0.44881889763779526
          },
          {
            "duration": 0.10800000000003251,
            "durationTicks": 27,
            "midi": 41,
            "name": "F2",
            "ticks": 40560,
            "time": 162.23999999999998,
            "velocity": 0.47244094488188976
          },
          {
            "duration": 0.12000000000000455,
            "durationTicks": 30,
            "midi": 53,
            "name": "F3",
            "ticks": 40620,
            "time": 162.48,
            "velocity": 0.47244094488188976
          },
          {
            "duration": 0.103999999999985,
            "durationTicks": 26,
            "midi": 41,
            "name": "F2",
            "ticks": 40680,
            "time": 162.72,
            "velocity": 0.47244094488188976
          },
          {
            "duration": 0.16800000000000637,
            "durationTicks": 42,
            "midi": 53,
            "name": "F3",
            "ticks": 40740,
            "time": 162.96,
            "velocity": 0.4566929133858268
          },
          {
            "duration": 0.09999999999999432,
            "durationTicks": 25,
            "midi": 40,
            "name": "E2",
            "ticks": 40800,
            "time": 163.2,
            "velocity": 0.4645669291338583
          },
          {
            "duration": 0.13599999999999568,
            "durationTicks": 34,
            "midi": 52,
            "name": "E3",
            "ticks": 40860,
            "time": 163.44,
            "velocity": 0.49606299212598426
          },
          {
            "duration": 0.13199999999997658,
            "durationTicks": 33,
            "midi": 40,
            "name": "E2",
            "ticks": 40920,
            "time": 163.68,
            "velocity": 0.4645669291338583
          },
          {
            "duration": 0.15200000000001523,
            "durationTicks": 38,
            "midi": 52,
            "name": "E3",
            "ticks": 40980,
            "time": 163.92,
            "velocity": 0.5039370078740157
          },
          {
            "duration": 0.14000000000001478,
            "durationTicks": 35,
            "midi": 38,
            "name": "D2",
            "ticks": 41040,
            "time": 164.16,
            "velocity": 0.4645669291338583
          },
          {
            "duration": 0.14400000000000546,
            "durationTicks": 36,
            "midi": 50,
            "name": "D3",
            "ticks": 41100,
            "time": 164.4,
            "velocity": 0.4881889763779528
          },
          {
            "duration": 0.14000000000001478,
            "durationTicks": 35,
            "midi": 38,
            "name": "D2",
            "ticks": 41160,
            "time": 164.64,
            "velocity": 0.47244094488188976
          },
          {
            "duration": 0.09999999999999432,
            "durationTicks": 25,
            "midi": 50,
            "name": "D3",
            "ticks": 41220,
            "time": 164.88,
            "velocity": 0.5433070866141733
          },
          {
            "duration": 0.11199999999999477,
            "durationTicks": 28,
            "midi": 36,
            "name": "C2",
            "ticks": 41280,
            "time": 165.12,
            "velocity": 0.5905511811023622
          },
          {
            "duration": 0.11600000000001387,
            "durationTicks": 29,
            "midi": 48,
            "name": "C3",
            "ticks": 41340,
            "time": 165.35999999999999,
            "velocity": 0.5118110236220472
          },
          {
            "duration": 0.12399999999999523,
            "durationTicks": 31,
            "midi": 36,
            "name": "C2",
            "ticks": 41400,
            "time": 165.6,
            "velocity": 0.47244094488188976
          },
          {
            "duration": 0.11199999999999477,
            "durationTicks": 28,
            "midi": 48,
            "name": "C3",
            "ticks": 41460,
            "time": 165.84,
            "velocity": 0.5275590551181102
          },
          {
            "duration": 0.12399999999999523,
            "durationTicks": 31,
            "midi": 36,
            "name": "C2",
            "ticks": 41520,
            "time": 166.07999999999998,
            "velocity": 0.4881889763779528
          },
          {
            "duration": 0.1360000000000241,
            "durationTicks": 34,
            "midi": 48,
            "name": "C3",
            "ticks": 41580,
            "time": 166.32,
            "velocity": 0.5669291338582677
          },
          {
            "duration": 0.11199999999999477,
            "durationTicks": 28,
            "midi": 36,
            "name": "C2",
            "ticks": 41640,
            "time": 166.56,
            "velocity": 0.5118110236220472
          },
          {
            "duration": 0.07600000000002183,
            "durationTicks": 19,
            "midi": 48,
            "name": "C3",
            "ticks": 41700,
            "time": 166.79999999999998,
            "velocity": 0.5905511811023622
          },
          {
            "duration": 0.11200000000002319,
            "durationTicks": 28,
            "midi": 36,
            "name": "C2",
            "ticks": 41760,
            "time": 167.04,
            "velocity": 0.5905511811023622
          },
          {
            "duration": 0.11599999999998545,
            "durationTicks": 29,
            "midi": 48,
            "name": "C3",
            "ticks": 41820,
            "time": 167.28,
            "velocity": 0.5118110236220472
          },
          {
            "duration": 0.12399999999999523,
            "durationTicks": 31,
            "midi": 36,
            "name": "C2",
            "ticks": 41880,
            "time": 167.51999999999998,
            "velocity": 0.47244094488188976
          },
          {
            "duration": 0.11200000000002319,
            "durationTicks": 28,
            "midi": 48,
            "name": "C3",
            "ticks": 41940,
            "time": 167.76,
            "velocity": 0.5275590551181102
          },
          {
            "duration": 0.12399999999999523,
            "durationTicks": 31,
            "midi": 36,
            "name": "C2",
            "ticks": 42000,
            "time": 168,
            "velocity": 0.4881889763779528
          },
          {
            "duration": 0.1360000000000241,
            "durationTicks": 34,
            "midi": 48,
            "name": "C3",
            "ticks": 42060,
            "time": 168.23999999999998,
            "velocity": 0.5669291338582677
          },
          {
            "duration": 0.11200000000002319,
            "durationTicks": 28,
            "midi": 36,
            "name": "C2",
            "ticks": 42120,
            "time": 168.48,
            "velocity": 0.5118110236220472
          },
          {
            "duration": 0.07600000000002183,
            "durationTicks": 19,
            "midi": 48,
            "name": "C3",
            "ticks": 42180,
            "time": 168.72,
            "velocity": 0.5905511811023622
          },
          {
            "duration": 0.11200000000002319,
            "durationTicks": 28,
            "midi": 36,
            "name": "C2",
            "ticks": 42240,
            "time": 168.95999999999998,
            "velocity": 0.5905511811023622
          },
          {
            "duration": 0.11600000000001387,
            "durationTicks": 29,
            "midi": 48,
            "name": "C3",
            "ticks": 42300,
            "time": 169.2,
            "velocity": 0.5118110236220472
          },
          {
            "duration": 0.12399999999999523,
            "durationTicks": 31,
            "midi": 36,
            "name": "C2",
            "ticks": 42360,
            "time": 169.44,
            "velocity": 0.47244094488188976
          },
          {
            "duration": 0.11199999999999477,
            "durationTicks": 28,
            "midi": 48,
            "name": "C3",
            "ticks": 42420,
            "time": 169.68,
            "velocity": 0.5275590551181102
          },
          {
            "duration": 0.12399999999999523,
            "durationTicks": 31,
            "midi": 36,
            "name": "C2",
            "ticks": 42480,
            "time": 169.92,
            "velocity": 0.4881889763779528
          },
          {
            "duration": 0.13599999999999568,
            "durationTicks": 34,
            "midi": 48,
            "name": "C3",
            "ticks": 42540,
            "time": 170.16,
            "velocity": 0.5669291338582677
          },
          {
            "duration": 0.11199999999999477,
            "durationTicks": 28,
            "midi": 36,
            "name": "C2",
            "ticks": 42600,
            "time": 170.4,
            "velocity": 0.5118110236220472
          },
          {
            "duration": 0.07600000000002183,
            "durationTicks": 19,
            "midi": 48,
            "name": "C3",
            "ticks": 42660,
            "time": 170.64,
            "velocity": 0.5905511811023622
          },
          {
            "duration": 0.11199999999999477,
            "durationTicks": 28,
            "midi": 36,
            "name": "C2",
            "ticks": 42720,
            "time": 170.88,
            "velocity": 0.5905511811023622
          },
          {
            "duration": 0.11599999999998545,
            "durationTicks": 29,
            "midi": 48,
            "name": "C3",
            "ticks": 42780,
            "time": 171.12,
            "velocity": 0.5118110236220472
          },
          {
            "duration": 0.12399999999999523,
            "durationTicks": 31,
            "midi": 36,
            "name": "C2",
            "ticks": 42840,
            "time": 171.35999999999999,
            "velocity": 0.47244094488188976
          },
          {
            "duration": 0.11199999999999477,
            "durationTicks": 28,
            "midi": 48,
            "name": "C3",
            "ticks": 42900,
            "time": 171.6,
            "velocity": 0.5275590551181102
          },
          {
            "duration": 0.12399999999999523,
            "durationTicks": 31,
            "midi": 36,
            "name": "C2",
            "ticks": 42960,
            "time": 171.84,
            "velocity": 0.4881889763779528
          },
          {
            "duration": 0.1360000000000241,
            "durationTicks": 34,
            "midi": 48,
            "name": "C3",
            "ticks": 43020,
            "time": 172.07999999999998,
            "velocity": 0.5669291338582677
          },
          {
            "duration": 0.11199999999999477,
            "durationTicks": 28,
            "midi": 36,
            "name": "C2",
            "ticks": 43080,
            "time": 172.32,
            "velocity": 0.5118110236220472
          },
          {
            "duration": 0.0759999999999934,
            "durationTicks": 19,
            "midi": 48,
            "name": "C3",
            "ticks": 43140,
            "time": 172.56,
            "velocity": 0.5905511811023622
          },
          {
            "duration": 0.11200000000002319,
            "durationTicks": 28,
            "midi": 36,
            "name": "C2",
            "ticks": 43200,
            "time": 172.79999999999998,
            "velocity": 0.5905511811023622
          },
          {
            "duration": 0.11600000000001387,
            "durationTicks": 29,
            "midi": 48,
            "name": "C3",
            "ticks": 43260,
            "time": 173.04,
            "velocity": 0.5118110236220472
          },
          {
            "duration": 0.12399999999999523,
            "durationTicks": 31,
            "midi": 36,
            "name": "C2",
            "ticks": 43320,
            "time": 173.28,
            "velocity": 0.47244094488188976
          },
          {
            "duration": 0.11200000000002319,
            "durationTicks": 28,
            "midi": 48,
            "name": "C3",
            "ticks": 43380,
            "time": 173.51999999999998,
            "velocity": 0.5275590551181102
          },
          {
            "duration": 0.12399999999999523,
            "durationTicks": 31,
            "midi": 36,
            "name": "C2",
            "ticks": 43440,
            "time": 173.76,
            "velocity": 0.4881889763779528
          },
          {
            "duration": 0.13599999999999568,
            "durationTicks": 34,
            "midi": 48,
            "name": "C3",
            "ticks": 43500,
            "time": 174,
            "velocity": 0.5669291338582677
          },
          {
            "duration": 0.11200000000002319,
            "durationTicks": 28,
            "midi": 36,
            "name": "C2",
            "ticks": 43560,
            "time": 174.23999999999998,
            "velocity": 0.5118110236220472
          },
          {
            "duration": 0.07600000000002183,
            "durationTicks": 19,
            "midi": 48,
            "name": "C3",
            "ticks": 43620,
            "time": 174.48,
            "velocity": 0.5905511811023622
          },
          {
            "duration": 0.11199999999999477,
            "durationTicks": 28,
            "midi": 36,
            "name": "C2",
            "ticks": 43680,
            "time": 174.72,
            "velocity": 0.5905511811023622
          },
          {
            "duration": 0.11600000000001387,
            "durationTicks": 29,
            "midi": 48,
            "name": "C3",
            "ticks": 43740,
            "time": 174.95999999999998,
            "velocity": 0.5118110236220472
          },
          {
            "duration": 0.12399999999999523,
            "durationTicks": 31,
            "midi": 36,
            "name": "C2",
            "ticks": 43800,
            "time": 175.2,
            "velocity": 0.47244094488188976
          },
          {
            "duration": 0.11199999999999477,
            "durationTicks": 28,
            "midi": 48,
            "name": "C3",
            "ticks": 43860,
            "time": 175.44,
            "velocity": 0.5275590551181102
          },
          {
            "duration": 0.12399999999999523,
            "durationTicks": 31,
            "midi": 36,
            "name": "C2",
            "ticks": 43920,
            "time": 175.68,
            "velocity": 0.4881889763779528
          },
          {
            "duration": 0.1360000000000241,
            "durationTicks": 34,
            "midi": 48,
            "name": "C3",
            "ticks": 43980,
            "time": 175.92,
            "velocity": 0.5669291338582677
          },
          {
            "duration": 0.11199999999999477,
            "durationTicks": 28,
            "midi": 36,
            "name": "C2",
            "ticks": 44040,
            "time": 176.16,
            "velocity": 0.5118110236220472
          },
          {
            "duration": 0.0759999999999934,
            "durationTicks": 19,
            "midi": 48,
            "name": "C3",
            "ticks": 44100,
            "time": 176.4,
            "velocity": 0.5905511811023622
          },
          {
            "duration": 0.11200000000002319,
            "durationTicks": 28,
            "midi": 36,
            "name": "C2",
            "ticks": 44160,
            "time": 176.64,
            "velocity": 0.5905511811023622
          },
          {
            "duration": 0.11600000000001387,
            "durationTicks": 29,
            "midi": 48,
            "name": "C3",
            "ticks": 44220,
            "time": 176.88,
            "velocity": 0.5118110236220472
          },
          {
            "duration": 0.12399999999999523,
            "durationTicks": 31,
            "midi": 36,
            "name": "C2",
            "ticks": 44280,
            "time": 177.12,
            "velocity": 0.47244094488188976
          },
          {
            "duration": 0.11200000000002319,
            "durationTicks": 28,
            "midi": 48,
            "name": "C3",
            "ticks": 44340,
            "time": 177.35999999999999,
            "velocity": 0.5275590551181102
          },
          {
            "duration": 0.12399999999999523,
            "durationTicks": 31,
            "midi": 36,
            "name": "C2",
            "ticks": 44400,
            "time": 177.6,
            "velocity": 0.4881889763779528
          },
          {
            "duration": 0.13599999999999568,
            "durationTicks": 34,
            "midi": 48,
            "name": "C3",
            "ticks": 44460,
            "time": 177.84,
            "velocity": 0.5669291338582677
          },
          {
            "duration": 0.11200000000002319,
            "durationTicks": 28,
            "midi": 36,
            "name": "C2",
            "ticks": 44520,
            "time": 178.07999999999998,
            "velocity": 0.5118110236220472
          },
          {
            "duration": 0.07600000000002183,
            "durationTicks": 19,
            "midi": 48,
            "name": "C3",
            "ticks": 44580,
            "time": 178.32,
            "velocity": 0.5905511811023622
          },
          {
            "duration": 0.11199999999999477,
            "durationTicks": 28,
            "midi": 36,
            "name": "C2",
            "ticks": 44640,
            "time": 178.56,
            "velocity": 0.5905511811023622
          },
          {
            "duration": 0.11600000000001387,
            "durationTicks": 29,
            "midi": 48,
            "name": "C3",
            "ticks": 44700,
            "time": 178.79999999999998,
            "velocity": 0.5118110236220472
          },
          {
            "duration": 0.12399999999999523,
            "durationTicks": 31,
            "midi": 36,
            "name": "C2",
            "ticks": 44760,
            "time": 179.04,
            "velocity": 0.47244094488188976
          },
          {
            "duration": 0.11199999999999477,
            "durationTicks": 28,
            "midi": 48,
            "name": "C3",
            "ticks": 44820,
            "time": 179.28,
            "velocity": 0.5275590551181102
          },
          {
            "duration": 0.12399999999999523,
            "durationTicks": 31,
            "midi": 36,
            "name": "C2",
            "ticks": 44880,
            "time": 179.51999999999998,
            "velocity": 0.4881889763779528
          },
          {
            "duration": 0.1360000000000241,
            "durationTicks": 34,
            "midi": 48,
            "name": "C3",
            "ticks": 44940,
            "time": 179.76,
            "velocity": 0.5669291338582677
          },
          {
            "duration": 0.11199999999999477,
            "durationTicks": 28,
            "midi": 36,
            "name": "C2",
            "ticks": 45000,
            "time": 180,
            "velocity": 0.5118110236220472
          },
          {
            "duration": 0.07600000000002183,
            "durationTicks": 19,
            "midi": 48,
            "name": "C3",
            "ticks": 45060,
            "time": 180.23999999999998,
            "velocity": 0.5905511811023622
          },
          {
            "duration": 0.103999999999985,
            "durationTicks": 26,
            "midi": 31,
            "name": "G1",
            "ticks": 45120,
            "time": 180.48,
            "velocity": 0.5433070866141733
          },
          {
            "duration": 0.14000000000001478,
            "durationTicks": 35,
            "midi": 43,
            "name": "G2",
            "ticks": 45180,
            "time": 180.72,
            "velocity": 0.44881889763779526
          },
          {
            "duration": 0.11600000000001387,
            "durationTicks": 29,
            "midi": 31,
            "name": "G1",
            "ticks": 45240,
            "time": 180.95999999999998,
            "velocity": 0.49606299212598426
          },
          {
            "duration": 0.14400000000000546,
            "durationTicks": 36,
            "midi": 43,
            "name": "G2",
            "ticks": 45300,
            "time": 181.2,
            "velocity": 0.44881889763779526
          },
          {
            "duration": 0.10800000000000409,
            "durationTicks": 27,
            "midi": 29,
            "name": "F1",
            "ticks": 45360,
            "time": 181.44,
            "velocity": 0.47244094488188976
          },
          {
            "duration": 0.11999999999997613,
            "durationTicks": 30,
            "midi": 41,
            "name": "F2",
            "ticks": 45420,
            "time": 181.68,
            "velocity": 0.47244094488188976
          },
          {
            "duration": 0.103999999999985,
            "durationTicks": 26,
            "midi": 29,
            "name": "F1",
            "ticks": 45480,
            "time": 181.92,
            "velocity": 0.47244094488188976
          },
          {
            "duration": 0.16800000000000637,
            "durationTicks": 42,
            "midi": 41,
            "name": "F2",
            "ticks": 45540,
            "time": 182.16,
            "velocity": 0.4566929133858268
          },
          {
            "duration": 0.0999999999999659,
            "durationTicks": 25,
            "midi": 28,
            "name": "E1",
            "ticks": 45600,
            "time": 182.4,
            "velocity": 0.4645669291338583
          },
          {
            "duration": 0.1360000000000241,
            "durationTicks": 34,
            "midi": 40,
            "name": "E2",
            "ticks": 45660,
            "time": 182.64,
            "velocity": 0.49606299212598426
          },
          {
            "duration": 0.13199999999997658,
            "durationTicks": 33,
            "midi": 28,
            "name": "E1",
            "ticks": 45720,
            "time": 182.88,
            "velocity": 0.4645669291338583
          },
          {
            "duration": 0.1519999999999868,
            "durationTicks": 38,
            "midi": 40,
            "name": "E2",
            "ticks": 45780,
            "time": 183.12,
            "velocity": 0.5039370078740157
          },
          {
            "duration": 0.14000000000001478,
            "durationTicks": 35,
            "midi": 26,
            "name": "D1",
            "ticks": 45840,
            "time": 183.35999999999999,
            "velocity": 0.4645669291338583
          },
          {
            "duration": 0.14400000000000546,
            "durationTicks": 36,
            "midi": 38,
            "name": "D2",
            "ticks": 45900,
            "time": 183.6,
            "velocity": 0.4881889763779528
          },
          {
            "duration": 0.13999999999998636,
            "durationTicks": 35,
            "midi": 26,
            "name": "D1",
            "ticks": 45960,
            "time": 183.84,
            "velocity": 0.47244094488188976
          },
          {
            "duration": 0.09999999999999432,
            "durationTicks": 25,
            "midi": 38,
            "name": "D2",
            "ticks": 46020,
            "time": 184.07999999999998,
            "velocity": 0.5433070866141733
          },
          {
            "duration": 0.160000000000025,
            "durationTicks": 40,
            "midi": 36,
            "name": "C2",
            "ticks": 46076,
            "time": 184.30399999999997,
            "velocity": 0.4645669291338583
          },
          {
            "duration": 0.1519999999999868,
            "durationTicks": 38,
            "midi": 24,
            "name": "C1",
            "ticks": 46080,
            "time": 184.32,
            "velocity": 0.47244094488188976
          },
          {
            "duration": 0.17199999999999704,
            "durationTicks": 43,
            "midi": 36,
            "name": "C2",
            "ticks": 46142,
            "time": 184.56799999999998,
            "velocity": 0.5118110236220472
          },
          {
            "duration": 0.14000000000001478,
            "durationTicks": 35,
            "midi": 36,
            "name": "C2",
            "ticks": 47040,
            "time": 188.16,
            "velocity": 0.4409448818897638
          },
          {
            "duration": 0.19999999999998863,
            "durationTicks": 50,
            "midi": 36,
            "name": "C2",
            "ticks": 47100,
            "time": 188.4,
            "velocity": 0.4330708661417323
          },
          {
            "duration": 0.1360000000000241,
            "durationTicks": 34,
            "midi": 31,
            "name": "G1",
            "ticks": 47160,
            "time": 188.64,
            "velocity": 0.4566929133858268
          },
          {
            "duration": 0.17599999999998772,
            "durationTicks": 44,
            "midi": 31,
            "name": "G1",
            "ticks": 47220,
            "time": 188.88,
            "velocity": 0.4094488188976378
          },
          {
            "duration": 0.11599999999998545,
            "durationTicks": 29,
            "midi": 34,
            "name": "A#1",
            "ticks": 47280,
            "time": 189.12,
            "velocity": 0.4330708661417323
          },
          {
            "duration": 0.16800000000000637,
            "durationTicks": 42,
            "midi": 34,
            "name": "A#1",
            "ticks": 47340,
            "time": 189.35999999999999,
            "velocity": 0.3937007874015748
          },
          {
            "duration": 0.1360000000000241,
            "durationTicks": 34,
            "midi": 35,
            "name": "B1",
            "ticks": 47400,
            "time": 189.6,
            "velocity": 0.4251968503937008
          },
          {
            "duration": 0.20400000000000773,
            "durationTicks": 51,
            "midi": 35,
            "name": "B1",
            "ticks": 47460,
            "time": 189.84,
            "velocity": 0.3937007874015748
          },
          {
            "duration": 0.1599999999999966,
            "durationTicks": 40,
            "midi": 36,
            "name": "C2",
            "ticks": 47520,
            "time": 190.07999999999998,
            "velocity": 0.4645669291338583
          },
          {
            "duration": 0.18799999999998818,
            "durationTicks": 47,
            "midi": 36,
            "name": "C2",
            "ticks": 47580,
            "time": 190.32,
            "velocity": 0.3779527559055118
          },
          {
            "duration": 0.1839999999999975,
            "durationTicks": 46,
            "midi": 31,
            "name": "G1",
            "ticks": 47640,
            "time": 190.56,
            "velocity": 0.41732283464566927
          },
          {
            "duration": 0.1599999999999966,
            "durationTicks": 40,
            "midi": 31,
            "name": "G1",
            "ticks": 47700,
            "time": 190.79999999999998,
            "velocity": 0.4330708661417323
          },
          {
            "duration": 0.12000000000000455,
            "durationTicks": 30,
            "midi": 34,
            "name": "A#1",
            "ticks": 47760,
            "time": 191.04,
            "velocity": 0.3937007874015748
          },
          {
            "duration": 0.1839999999999975,
            "durationTicks": 46,
            "midi": 34,
            "name": "A#1",
            "ticks": 47820,
            "time": 191.28,
            "velocity": 0.41732283464566927
          },
          {
            "duration": 0.18000000000000682,
            "durationTicks": 45,
            "midi": 35,
            "name": "B1",
            "ticks": 47880,
            "time": 191.51999999999998,
            "velocity": 0.48031496062992124
          },
          {
            "duration": 0.14000000000001478,
            "durationTicks": 35,
            "midi": 36,
            "name": "C2",
            "ticks": 48000,
            "time": 192,
            "velocity": 0.4409448818897638
          },
          {
            "duration": 0.20000000000001705,
            "durationTicks": 50,
            "midi": 36,
            "name": "C2",
            "ticks": 48060,
            "time": 192.23999999999998,
            "velocity": 0.4330708661417323
          },
          {
            "duration": 0.1360000000000241,
            "durationTicks": 34,
            "midi": 31,
            "name": "G1",
            "ticks": 48120,
            "time": 192.48,
            "velocity": 0.4566929133858268
          },
          {
            "duration": 0.17599999999998772,
            "durationTicks": 44,
            "midi": 31,
            "name": "G1",
            "ticks": 48180,
            "time": 192.72,
            "velocity": 0.4094488188976378
          },
          {
            "duration": 0.11600000000001387,
            "durationTicks": 29,
            "midi": 34,
            "name": "A#1",
            "ticks": 48240,
            "time": 192.95999999999998,
            "velocity": 0.4330708661417323
          },
          {
            "duration": 0.16800000000000637,
            "durationTicks": 42,
            "midi": 34,
            "name": "A#1",
            "ticks": 48300,
            "time": 193.2,
            "velocity": 0.3937007874015748
          },
          {
            "duration": 0.13599999999999568,
            "durationTicks": 34,
            "midi": 35,
            "name": "B1",
            "ticks": 48360,
            "time": 193.44,
            "velocity": 0.4251968503937008
          },
          {
            "duration": 0.2039999999999793,
            "durationTicks": 51,
            "midi": 35,
            "name": "B1",
            "ticks": 48420,
            "time": 193.68,
            "velocity": 0.3937007874015748
          },
          {
            "duration": 0.1599999999999966,
            "durationTicks": 40,
            "midi": 36,
            "name": "C2",
            "ticks": 48480,
            "time": 193.92,
            "velocity": 0.4645669291338583
          },
          {
            "duration": 0.18799999999998818,
            "durationTicks": 47,
            "midi": 36,
            "name": "C2",
            "ticks": 48540,
            "time": 194.16,
            "velocity": 0.3779527559055118
          },
          {
            "duration": 0.1839999999999975,
            "durationTicks": 46,
            "midi": 31,
            "name": "G1",
            "ticks": 48600,
            "time": 194.4,
            "velocity": 0.41732283464566927
          },
          {
            "duration": 0.1599999999999966,
            "durationTicks": 40,
            "midi": 31,
            "name": "G1",
            "ticks": 48660,
            "time": 194.64,
            "velocity": 0.4330708661417323
          },
          {
            "duration": 0.12000000000000455,
            "durationTicks": 30,
            "midi": 34,
            "name": "A#1",
            "ticks": 48720,
            "time": 194.88,
            "velocity": 0.3937007874015748
          },
          {
            "duration": 0.1839999999999975,
            "durationTicks": 46,
            "midi": 34,
            "name": "A#1",
            "ticks": 48780,
            "time": 195.12,
            "velocity": 0.41732283464566927
          },
          {
            "duration": 0.18000000000000682,
            "durationTicks": 45,
            "midi": 35,
            "name": "B1",
            "ticks": 48840,
            "time": 195.35999999999999,
            "velocity": 0.48031496062992124
          },
          {
            "duration": 0.13999999999998636,
            "durationTicks": 35,
            "midi": 36,
            "name": "C2",
            "ticks": 48960,
            "time": 195.84,
            "velocity": 0.4409448818897638
          },
          {
            "duration": 0.20000000000001705,
            "durationTicks": 50,
            "midi": 36,
            "name": "C2",
            "ticks": 49020,
            "time": 196.07999999999998,
            "velocity": 0.4330708661417323
          },
          {
            "duration": 0.1360000000000241,
            "durationTicks": 34,
            "midi": 31,
            "name": "G1",
            "ticks": 49080,
            "time": 196.32,
            "velocity": 0.4566929133858268
          },
          {
            "duration": 0.17599999999998772,
            "durationTicks": 44,
            "midi": 31,
            "name": "G1",
            "ticks": 49140,
            "time": 196.56,
            "velocity": 0.4094488188976378
          },
          {
            "duration": 0.11600000000001387,
            "durationTicks": 29,
            "midi": 34,
            "name": "A#1",
            "ticks": 49200,
            "time": 196.79999999999998,
            "velocity": 0.4330708661417323
          },
          {
            "duration": 0.16800000000000637,
            "durationTicks": 42,
            "midi": 34,
            "name": "A#1",
            "ticks": 49260,
            "time": 197.04,
            "velocity": 0.3937007874015748
          },
          {
            "duration": 0.13599999999999568,
            "durationTicks": 34,
            "midi": 35,
            "name": "B1",
            "ticks": 49320,
            "time": 197.28,
            "velocity": 0.4251968503937008
          },
          {
            "duration": 0.20400000000000773,
            "durationTicks": 51,
            "midi": 35,
            "name": "B1",
            "ticks": 49380,
            "time": 197.51999999999998,
            "velocity": 0.3937007874015748
          },
          {
            "duration": 0.1599999999999966,
            "durationTicks": 40,
            "midi": 36,
            "name": "C2",
            "ticks": 49440,
            "time": 197.76,
            "velocity": 0.4645669291338583
          },
          {
            "duration": 0.18799999999998818,
            "durationTicks": 47,
            "midi": 36,
            "name": "C2",
            "ticks": 49500,
            "time": 198,
            "velocity": 0.3779527559055118
          },
          {
            "duration": 0.1839999999999975,
            "durationTicks": 46,
            "midi": 31,
            "name": "G1",
            "ticks": 49560,
            "time": 198.23999999999998,
            "velocity": 0.41732283464566927
          },
          {
            "duration": 0.1599999999999966,
            "durationTicks": 40,
            "midi": 31,
            "name": "G1",
            "ticks": 49620,
            "time": 198.48,
            "velocity": 0.4330708661417323
          },
          {
            "duration": 0.12000000000000455,
            "durationTicks": 30,
            "midi": 34,
            "name": "A#1",
            "ticks": 49680,
            "time": 198.72,
            "velocity": 0.3937007874015748
          },
          {
            "duration": 0.1839999999999975,
            "durationTicks": 46,
            "midi": 34,
            "name": "A#1",
            "ticks": 49740,
            "time": 198.95999999999998,
            "velocity": 0.41732283464566927
          },
          {
            "duration": 0.18000000000000682,
            "durationTicks": 45,
            "midi": 35,
            "name": "B1",
            "ticks": 49800,
            "time": 199.2,
            "velocity": 0.48031496062992124
          },
          {
            "duration": 0.13999999999998636,
            "durationTicks": 35,
            "midi": 36,
            "name": "C2",
            "ticks": 49920,
            "time": 199.68,
            "velocity": 0.4409448818897638
          },
          {
            "duration": 0.20000000000001705,
            "durationTicks": 50,
            "midi": 36,
            "name": "C2",
            "ticks": 49980,
            "time": 199.92,
            "velocity": 0.4330708661417323
          },
          {
            "duration": 0.13599999999999568,
            "durationTicks": 34,
            "midi": 31,
            "name": "G1",
            "ticks": 50040,
            "time": 200.16,
            "velocity": 0.4566929133858268
          },
          {
            "duration": 0.17599999999998772,
            "durationTicks": 44,
            "midi": 31,
            "name": "G1",
            "ticks": 50100,
            "time": 200.4,
            "velocity": 0.4094488188976378
          },
          {
            "duration": 0.11600000000001387,
            "durationTicks": 29,
            "midi": 34,
            "name": "A#1",
            "ticks": 50160,
            "time": 200.64,
            "velocity": 0.4330708661417323
          },
          {
            "duration": 0.16800000000000637,
            "durationTicks": 42,
            "midi": 34,
            "name": "A#1",
            "ticks": 50220,
            "time": 200.88,
            "velocity": 0.3937007874015748
          },
          {
            "duration": 0.13599999999999568,
            "durationTicks": 34,
            "midi": 35,
            "name": "B1",
            "ticks": 50280,
            "time": 201.12,
            "velocity": 0.4251968503937008
          },
          {
            "duration": 0.20400000000000773,
            "durationTicks": 51,
            "midi": 35,
            "name": "B1",
            "ticks": 50340,
            "time": 201.35999999999999,
            "velocity": 0.3937007874015748
          },
          {
            "duration": 0.1599999999999966,
            "durationTicks": 40,
            "midi": 36,
            "name": "C2",
            "ticks": 50400,
            "time": 201.6,
            "velocity": 0.4645669291338583
          },
          {
            "duration": 0.18799999999998818,
            "durationTicks": 47,
            "midi": 36,
            "name": "C2",
            "ticks": 50460,
            "time": 201.84,
            "velocity": 0.3779527559055118
          },
          {
            "duration": 0.1839999999999975,
            "durationTicks": 46,
            "midi": 31,
            "name": "G1",
            "ticks": 50520,
            "time": 202.07999999999998,
            "velocity": 0.41732283464566927
          },
          {
            "duration": 0.1599999999999966,
            "durationTicks": 40,
            "midi": 31,
            "name": "G1",
            "ticks": 50580,
            "time": 202.32,
            "velocity": 0.4330708661417323
          },
          {
            "duration": 0.11999999999997613,
            "durationTicks": 30,
            "midi": 34,
            "name": "A#1",
            "ticks": 50640,
            "time": 202.56,
            "velocity": 0.3937007874015748
          },
          {
            "duration": 0.1839999999999975,
            "durationTicks": 46,
            "midi": 34,
            "name": "A#1",
            "ticks": 50700,
            "time": 202.79999999999998,
            "velocity": 0.41732283464566927
          },
          {
            "duration": 0.18000000000000682,
            "durationTicks": 45,
            "midi": 35,
            "name": "B1",
            "ticks": 50760,
            "time": 203.04,
            "velocity": 0.48031496062992124
          },
          {
            "duration": 0.14000000000001478,
            "durationTicks": 35,
            "midi": 36,
            "name": "C2",
            "ticks": 50880,
            "time": 203.51999999999998,
            "velocity": 0.4409448818897638
          },
          {
            "duration": 0.20000000000001705,
            "durationTicks": 50,
            "midi": 36,
            "name": "C2",
            "ticks": 50940,
            "time": 203.76,
            "velocity": 0.4330708661417323
          },
          {
            "duration": 0.13599999999999568,
            "durationTicks": 34,
            "midi": 31,
            "name": "G1",
            "ticks": 51000,
            "time": 204,
            "velocity": 0.4566929133858268
          },
          {
            "duration": 0.17600000000001614,
            "durationTicks": 44,
            "midi": 31,
            "name": "G1",
            "ticks": 51060,
            "time": 204.23999999999998,
            "velocity": 0.4094488188976378
          },
          {
            "duration": 0.11600000000001387,
            "durationTicks": 29,
            "midi": 34,
            "name": "A#1",
            "ticks": 51120,
            "time": 204.48,
            "velocity": 0.4330708661417323
          },
          {
            "duration": 0.16800000000000637,
            "durationTicks": 42,
            "midi": 34,
            "name": "A#1",
            "ticks": 51180,
            "time": 204.72,
            "velocity": 0.3937007874015748
          },
          {
            "duration": 0.1360000000000241,
            "durationTicks": 34,
            "midi": 35,
            "name": "B1",
            "ticks": 51240,
            "time": 204.95999999999998,
            "velocity": 0.4251968503937008
          },
          {
            "duration": 0.20400000000000773,
            "durationTicks": 51,
            "midi": 35,
            "name": "B1",
            "ticks": 51300,
            "time": 205.2,
            "velocity": 0.3937007874015748
          },
          {
            "duration": 0.1599999999999966,
            "durationTicks": 40,
            "midi": 36,
            "name": "C2",
            "ticks": 51360,
            "time": 205.44,
            "velocity": 0.4645669291338583
          },
          {
            "duration": 0.1880000000000166,
            "durationTicks": 47,
            "midi": 36,
            "name": "C2",
            "ticks": 51420,
            "time": 205.67999999999998,
            "velocity": 0.3779527559055118
          },
          {
            "duration": 0.1839999999999975,
            "durationTicks": 46,
            "midi": 31,
            "name": "G1",
            "ticks": 51480,
            "time": 205.92,
            "velocity": 0.41732283464566927
          },
          {
            "duration": 0.1599999999999966,
            "durationTicks": 40,
            "midi": 31,
            "name": "G1",
            "ticks": 51540,
            "time": 206.16,
            "velocity": 0.4330708661417323
          },
          {
            "duration": 0.11999999999997613,
            "durationTicks": 30,
            "midi": 34,
            "name": "A#1",
            "ticks": 51600,
            "time": 206.4,
            "velocity": 0.3937007874015748
          },
          {
            "duration": 0.1839999999999975,
            "durationTicks": 46,
            "midi": 34,
            "name": "A#1",
            "ticks": 51660,
            "time": 206.64,
            "velocity": 0.41732283464566927
          },
          {
            "duration": 0.18000000000000682,
            "durationTicks": 45,
            "midi": 35,
            "name": "B1",
            "ticks": 51720,
            "time": 206.88,
            "velocity": 0.48031496062992124
          },
          {
            "duration": 0.14000000000001478,
            "durationTicks": 35,
            "midi": 36,
            "name": "C2",
            "ticks": 51840,
            "time": 207.35999999999999,
            "velocity": 0.4409448818897638
          },
          {
            "duration": 0.20000000000001705,
            "durationTicks": 50,
            "midi": 36,
            "name": "C2",
            "ticks": 51900,
            "time": 207.6,
            "velocity": 0.4330708661417323
          },
          {
            "duration": 0.13599999999999568,
            "durationTicks": 34,
            "midi": 31,
            "name": "G1",
            "ticks": 51960,
            "time": 207.84,
            "velocity": 0.4566929133858268
          },
          {
            "duration": 0.17600000000001614,
            "durationTicks": 44,
            "midi": 31,
            "name": "G1",
            "ticks": 52020,
            "time": 208.07999999999998,
            "velocity": 0.4094488188976378
          },
          {
            "duration": 0.11600000000001387,
            "durationTicks": 29,
            "midi": 34,
            "name": "A#1",
            "ticks": 52080,
            "time": 208.32,
            "velocity": 0.4330708661417323
          },
          {
            "duration": 0.16800000000000637,
            "durationTicks": 42,
            "midi": 34,
            "name": "A#1",
            "ticks": 52140,
            "time": 208.56,
            "velocity": 0.3937007874015748
          },
          {
            "duration": 0.1360000000000241,
            "durationTicks": 34,
            "midi": 35,
            "name": "B1",
            "ticks": 52200,
            "time": 208.79999999999998,
            "velocity": 0.4251968503937008
          },
          {
            "duration": 0.20400000000000773,
            "durationTicks": 51,
            "midi": 35,
            "name": "B1",
            "ticks": 52260,
            "time": 209.04,
            "velocity": 0.3937007874015748
          },
          {
            "duration": 0.15999999999996817,
            "durationTicks": 40,
            "midi": 36,
            "name": "C2",
            "ticks": 52320,
            "time": 209.28,
            "velocity": 0.4645669291338583
          },
          {
            "duration": 0.1880000000000166,
            "durationTicks": 47,
            "midi": 36,
            "name": "C2",
            "ticks": 52380,
            "time": 209.51999999999998,
            "velocity": 0.3779527559055118
          },
          {
            "duration": 0.1839999999999975,
            "durationTicks": 46,
            "midi": 31,
            "name": "G1",
            "ticks": 52440,
            "time": 209.76,
            "velocity": 0.41732283464566927
          },
          {
            "duration": 0.1599999999999966,
            "durationTicks": 40,
            "midi": 31,
            "name": "G1",
            "ticks": 52500,
            "time": 210,
            "velocity": 0.4330708661417323
          },
          {
            "duration": 0.12000000000000455,
            "durationTicks": 30,
            "midi": 34,
            "name": "A#1",
            "ticks": 52560,
            "time": 210.23999999999998,
            "velocity": 0.3937007874015748
          },
          {
            "duration": 0.1839999999999975,
            "durationTicks": 46,
            "midi": 34,
            "name": "A#1",
            "ticks": 52620,
            "time": 210.48,
            "velocity": 0.41732283464566927
          },
          {
            "duration": 0.18000000000000682,
            "durationTicks": 45,
            "midi": 35,
            "name": "B1",
            "ticks": 52680,
            "time": 210.72,
            "velocity": 0.48031496062992124
          },
          {
            "duration": 0.14000000000001478,
            "durationTicks": 35,
            "midi": 36,
            "name": "C2",
            "ticks": 52800,
            "time": 211.2,
            "velocity": 0.4409448818897638
          },
          {
            "duration": 0.20000000000001705,
            "durationTicks": 50,
            "midi": 36,
            "name": "C2",
            "ticks": 52860,
            "time": 211.44,
            "velocity": 0.4330708661417323
          },
          {
            "duration": 0.1360000000000241,
            "durationTicks": 34,
            "midi": 31,
            "name": "G1",
            "ticks": 52920,
            "time": 211.67999999999998,
            "velocity": 0.4566929133858268
          },
          {
            "duration": 0.17600000000001614,
            "durationTicks": 44,
            "midi": 31,
            "name": "G1",
            "ticks": 52980,
            "time": 211.92,
            "velocity": 0.4094488188976378
          },
          {
            "duration": 0.11599999999998545,
            "durationTicks": 29,
            "midi": 34,
            "name": "A#1",
            "ticks": 53040,
            "time": 212.16,
            "velocity": 0.4330708661417323
          },
          {
            "duration": 0.16800000000000637,
            "durationTicks": 42,
            "midi": 34,
            "name": "A#1",
            "ticks": 53100,
            "time": 212.4,
            "velocity": 0.3937007874015748
          },
          {
            "duration": 0.1360000000000241,
            "durationTicks": 34,
            "midi": 35,
            "name": "B1",
            "ticks": 53160,
            "time": 212.64,
            "velocity": 0.4251968503937008
          },
          {
            "duration": 0.20400000000000773,
            "durationTicks": 51,
            "midi": 35,
            "name": "B1",
            "ticks": 53220,
            "time": 212.88,
            "velocity": 0.3937007874015748
          },
          {
            "duration": 0.15999999999996817,
            "durationTicks": 40,
            "midi": 36,
            "name": "C2",
            "ticks": 53280,
            "time": 213.12,
            "velocity": 0.4645669291338583
          },
          {
            "duration": 0.18799999999998818,
            "durationTicks": 47,
            "midi": 36,
            "name": "C2",
            "ticks": 53340,
            "time": 213.35999999999999,
            "velocity": 0.3779527559055118
          },
          {
            "duration": 0.1839999999999975,
            "durationTicks": 46,
            "midi": 31,
            "name": "G1",
            "ticks": 53400,
            "time": 213.6,
            "velocity": 0.41732283464566927
          },
          {
            "duration": 0.15999999999996817,
            "durationTicks": 40,
            "midi": 31,
            "name": "G1",
            "ticks": 53460,
            "time": 213.84,
            "velocity": 0.4330708661417323
          },
          {
            "duration": 0.12000000000000455,
            "durationTicks": 30,
            "midi": 34,
            "name": "A#1",
            "ticks": 53520,
            "time": 214.07999999999998,
            "velocity": 0.3937007874015748
          },
          {
            "duration": 0.1839999999999975,
            "durationTicks": 46,
            "midi": 34,
            "name": "A#1",
            "ticks": 53580,
            "time": 214.32,
            "velocity": 0.41732283464566927
          },
          {
            "duration": 0.1799999999999784,
            "durationTicks": 45,
            "midi": 35,
            "name": "B1",
            "ticks": 53640,
            "time": 214.56,
            "velocity": 0.48031496062992124
          },
          {
            "duration": 0.14000000000001478,
            "durationTicks": 35,
            "midi": 36,
            "name": "C2",
            "ticks": 53760,
            "time": 215.04,
            "velocity": 0.4409448818897638
          },
          {
            "duration": 0.19999999999998863,
            "durationTicks": 50,
            "midi": 36,
            "name": "C2",
            "ticks": 53820,
            "time": 215.28,
            "velocity": 0.4330708661417323
          },
          {
            "duration": 0.1360000000000241,
            "durationTicks": 34,
            "midi": 31,
            "name": "G1",
            "ticks": 53880,
            "time": 215.51999999999998,
            "velocity": 0.4566929133858268
          },
          {
            "duration": 0.17600000000001614,
            "durationTicks": 44,
            "midi": 31,
            "name": "G1",
            "ticks": 53940,
            "time": 215.76,
            "velocity": 0.4094488188976378
          },
          {
            "duration": 0.11599999999998545,
            "durationTicks": 29,
            "midi": 34,
            "name": "A#1",
            "ticks": 54000,
            "time": 216,
            "velocity": 0.4330708661417323
          },
          {
            "duration": 0.1680000000000348,
            "durationTicks": 42,
            "midi": 34,
            "name": "A#1",
            "ticks": 54060,
            "time": 216.23999999999998,
            "velocity": 0.3937007874015748
          },
          {
            "duration": 0.1360000000000241,
            "durationTicks": 34,
            "midi": 35,
            "name": "B1",
            "ticks": 54120,
            "time": 216.48,
            "velocity": 0.4251968503937008
          },
          {
            "duration": 0.20400000000000773,
            "durationTicks": 51,
            "midi": 35,
            "name": "B1",
            "ticks": 54180,
            "time": 216.72,
            "velocity": 0.3937007874015748
          },
          {
            "duration": 0.1599999999999966,
            "durationTicks": 40,
            "midi": 36,
            "name": "C2",
            "ticks": 54240,
            "time": 216.95999999999998,
            "velocity": 0.4645669291338583
          },
          {
            "duration": 0.18799999999998818,
            "durationTicks": 47,
            "midi": 36,
            "name": "C2",
            "ticks": 54300,
            "time": 217.2,
            "velocity": 0.3779527559055118
          },
          {
            "duration": 0.1839999999999975,
            "durationTicks": 46,
            "midi": 31,
            "name": "G1",
            "ticks": 54360,
            "time": 217.44,
            "velocity": 0.41732283464566927
          },
          {
            "duration": 0.1599999999999966,
            "durationTicks": 40,
            "midi": 31,
            "name": "G1",
            "ticks": 54420,
            "time": 217.67999999999998,
            "velocity": 0.4330708661417323
          },
          {
            "duration": 0.12000000000000455,
            "durationTicks": 30,
            "midi": 34,
            "name": "A#1",
            "ticks": 54480,
            "time": 217.92,
            "velocity": 0.3937007874015748
          },
          {
            "duration": 0.1839999999999975,
            "durationTicks": 46,
            "midi": 34,
            "name": "A#1",
            "ticks": 54540,
            "time": 218.16,
            "velocity": 0.41732283464566927
          },
          {
            "duration": 0.1799999999999784,
            "durationTicks": 45,
            "midi": 35,
            "name": "B1",
            "ticks": 54600,
            "time": 218.4,
            "velocity": 0.48031496062992124
          },
          {
            "duration": 0.14000000000001478,
            "durationTicks": 35,
            "midi": 36,
            "name": "C2",
            "ticks": 54720,
            "time": 218.88,
            "velocity": 0.4409448818897638
          },
          {
            "duration": 0.19999999999998863,
            "durationTicks": 50,
            "midi": 36,
            "name": "C2",
            "ticks": 54780,
            "time": 219.12,
            "velocity": 0.4330708661417323
          },
          {
            "duration": 0.1360000000000241,
            "durationTicks": 34,
            "midi": 31,
            "name": "G1",
            "ticks": 54840,
            "time": 219.35999999999999,
            "velocity": 0.4566929133858268
          },
          {
            "duration": 0.17599999999998772,
            "durationTicks": 44,
            "midi": 31,
            "name": "G1",
            "ticks": 54900,
            "time": 219.6,
            "velocity": 0.4094488188976378
          },
          {
            "duration": 0.11599999999998545,
            "durationTicks": 29,
            "midi": 34,
            "name": "A#1",
            "ticks": 54960,
            "time": 219.84,
            "velocity": 0.4330708661417323
          },
          {
            "duration": 0.16800000000000637,
            "durationTicks": 42,
            "midi": 34,
            "name": "A#1",
            "ticks": 55020,
            "time": 220.07999999999998,
            "velocity": 0.3937007874015748
          },
          {
            "duration": 0.1360000000000241,
            "durationTicks": 34,
            "midi": 35,
            "name": "B1",
            "ticks": 55080,
            "time": 220.32,
            "velocity": 0.4251968503937008
          },
          {
            "duration": 0.20400000000000773,
            "durationTicks": 51,
            "midi": 35,
            "name": "B1",
            "ticks": 55140,
            "time": 220.56,
            "velocity": 0.3937007874015748
          },
          {
            "duration": 0.1599999999999966,
            "durationTicks": 40,
            "midi": 36,
            "name": "C2",
            "ticks": 55200,
            "time": 220.79999999999998,
            "velocity": 0.4645669291338583
          },
          {
            "duration": 0.18799999999998818,
            "durationTicks": 47,
            "midi": 36,
            "name": "C2",
            "ticks": 55260,
            "time": 221.04,
            "velocity": 0.3779527559055118
          },
          {
            "duration": 0.1839999999999975,
            "durationTicks": 46,
            "midi": 31,
            "name": "G1",
            "ticks": 55320,
            "time": 221.28,
            "velocity": 0.41732283464566927
          },
          {
            "duration": 0.1599999999999966,
            "durationTicks": 40,
            "midi": 31,
            "name": "G1",
            "ticks": 55380,
            "time": 221.51999999999998,
            "velocity": 0.4330708661417323
          },
          {
            "duration": 0.12000000000000455,
            "durationTicks": 30,
            "midi": 34,
            "name": "A#1",
            "ticks": 55440,
            "time": 221.76,
            "velocity": 0.3937007874015748
          },
          {
            "duration": 0.1839999999999975,
            "durationTicks": 46,
            "midi": 34,
            "name": "A#1",
            "ticks": 55500,
            "time": 222,
            "velocity": 0.41732283464566927
          },
          {
            "duration": 0.18000000000000682,
            "durationTicks": 45,
            "midi": 35,
            "name": "B1",
            "ticks": 55560,
            "time": 222.23999999999998,
            "velocity": 0.48031496062992124
          },
          {
            "duration": 0.14000000000001478,
            "durationTicks": 35,
            "midi": 36,
            "name": "C2",
            "ticks": 55680,
            "time": 222.72,
            "velocity": 0.4409448818897638
          },
          {
            "duration": 0.20000000000001705,
            "durationTicks": 50,
            "midi": 36,
            "name": "C2",
            "ticks": 55740,
            "time": 222.95999999999998,
            "velocity": 0.4330708661417323
          },
          {
            "duration": 0.1360000000000241,
            "durationTicks": 34,
            "midi": 31,
            "name": "G1",
            "ticks": 55800,
            "time": 223.2,
            "velocity": 0.4566929133858268
          },
          {
            "duration": 0.17599999999998772,
            "durationTicks": 44,
            "midi": 31,
            "name": "G1",
            "ticks": 55860,
            "time": 223.44,
            "velocity": 0.4094488188976378
          },
          {
            "duration": 0.11600000000001387,
            "durationTicks": 29,
            "midi": 34,
            "name": "A#1",
            "ticks": 55920,
            "time": 223.67999999999998,
            "velocity": 0.4330708661417323
          },
          {
            "duration": 0.16800000000000637,
            "durationTicks": 42,
            "midi": 34,
            "name": "A#1",
            "ticks": 55980,
            "time": 223.92,
            "velocity": 0.3937007874015748
          },
          {
            "duration": 0.13599999999999568,
            "durationTicks": 34,
            "midi": 35,
            "name": "B1",
            "ticks": 56040,
            "time": 224.16,
            "velocity": 0.4251968503937008
          },
          {
            "duration": 0.2039999999999793,
            "durationTicks": 51,
            "midi": 35,
            "name": "B1",
            "ticks": 56100,
            "time": 224.4,
            "velocity": 0.3937007874015748
          },
          {
            "duration": 0.1599999999999966,
            "durationTicks": 40,
            "midi": 36,
            "name": "C2",
            "ticks": 56160,
            "time": 224.64,
            "velocity": 0.4645669291338583
          },
          {
            "duration": 0.18799999999998818,
            "durationTicks": 47,
            "midi": 36,
            "name": "C2",
            "ticks": 56220,
            "time": 224.88,
            "velocity": 0.3779527559055118
          },
          {
            "duration": 0.1839999999999975,
            "durationTicks": 46,
            "midi": 31,
            "name": "G1",
            "ticks": 56280,
            "time": 225.12,
            "velocity": 0.41732283464566927
          },
          {
            "duration": 0.1599999999999966,
            "durationTicks": 40,
            "midi": 31,
            "name": "G1",
            "ticks": 56340,
            "time": 225.35999999999999,
            "velocity": 0.4330708661417323
          },
          {
            "duration": 0.12000000000000455,
            "durationTicks": 30,
            "midi": 34,
            "name": "A#1",
            "ticks": 56400,
            "time": 225.6,
            "velocity": 0.3937007874015748
          },
          {
            "duration": 0.1839999999999975,
            "durationTicks": 46,
            "midi": 34,
            "name": "A#1",
            "ticks": 56460,
            "time": 225.84,
            "velocity": 0.41732283464566927
          },
          {
            "duration": 0.18000000000000682,
            "durationTicks": 45,
            "midi": 35,
            "name": "B1",
            "ticks": 56520,
            "time": 226.07999999999998,
            "velocity": 0.48031496062992124
          },
          {
            "duration": 0.13999999999998636,
            "durationTicks": 35,
            "midi": 36,
            "name": "C2",
            "ticks": 56640,
            "time": 226.56,
            "velocity": 0.4409448818897638
          },
          {
            "duration": 0.20000000000001705,
            "durationTicks": 50,
            "midi": 36,
            "name": "C2",
            "ticks": 56700,
            "time": 226.79999999999998,
            "velocity": 0.4330708661417323
          },
          {
            "duration": 0.1360000000000241,
            "durationTicks": 34,
            "midi": 31,
            "name": "G1",
            "ticks": 56760,
            "time": 227.04,
            "velocity": 0.4566929133858268
          },
          {
            "duration": 0.17599999999998772,
            "durationTicks": 44,
            "midi": 31,
            "name": "G1",
            "ticks": 56820,
            "time": 227.28,
            "velocity": 0.4094488188976378
          },
          {
            "duration": 0.11600000000001387,
            "durationTicks": 29,
            "midi": 34,
            "name": "A#1",
            "ticks": 56880,
            "time": 227.51999999999998,
            "velocity": 0.4330708661417323
          },
          {
            "duration": 0.16800000000000637,
            "durationTicks": 42,
            "midi": 34,
            "name": "A#1",
            "ticks": 56940,
            "time": 227.76,
            "velocity": 0.3937007874015748
          },
          {
            "duration": 0.13599999999999568,
            "durationTicks": 34,
            "midi": 35,
            "name": "B1",
            "ticks": 57000,
            "time": 228,
            "velocity": 0.4251968503937008
          },
          {
            "duration": 0.20400000000000773,
            "durationTicks": 51,
            "midi": 35,
            "name": "B1",
            "ticks": 57060,
            "time": 228.23999999999998,
            "velocity": 0.3937007874015748
          },
          {
            "duration": 0.1599999999999966,
            "durationTicks": 40,
            "midi": 36,
            "name": "C2",
            "ticks": 57120,
            "time": 228.48,
            "velocity": 0.4645669291338583
          },
          {
            "duration": 0.18799999999998818,
            "durationTicks": 47,
            "midi": 36,
            "name": "C2",
            "ticks": 57180,
            "time": 228.72,
            "velocity": 0.3779527559055118
          },
          {
            "duration": 0.1839999999999975,
            "durationTicks": 46,
            "midi": 31,
            "name": "G1",
            "ticks": 57240,
            "time": 228.95999999999998,
            "velocity": 0.41732283464566927
          },
          {
            "duration": 0.1599999999999966,
            "durationTicks": 40,
            "midi": 31,
            "name": "G1",
            "ticks": 57300,
            "time": 229.2,
            "velocity": 0.4330708661417323
          },
          {
            "duration": 0.12000000000000455,
            "durationTicks": 30,
            "midi": 34,
            "name": "A#1",
            "ticks": 57360,
            "time": 229.44,
            "velocity": 0.3937007874015748
          },
          {
            "duration": 0.1839999999999975,
            "durationTicks": 46,
            "midi": 34,
            "name": "A#1",
            "ticks": 57420,
            "time": 229.67999999999998,
            "velocity": 0.41732283464566927
          },
          {
            "duration": 0.18000000000000682,
            "durationTicks": 45,
            "midi": 35,
            "name": "B1",
            "ticks": 57480,
            "time": 229.92,
            "velocity": 0.48031496062992124
          },
          {
            "duration": 0.14000000000001478,
            "durationTicks": 35,
            "midi": 36,
            "name": "C2",
            "ticks": 57600,
            "time": 230.39999999999998,
            "velocity": 0.4409448818897638
          },
          {
            "duration": 0.20000000000001705,
            "durationTicks": 50,
            "midi": 36,
            "name": "C2",
            "ticks": 57660,
            "time": 230.64,
            "velocity": 0.4330708661417323
          },
          {
            "duration": 0.13599999999999568,
            "durationTicks": 34,
            "midi": 31,
            "name": "G1",
            "ticks": 57720,
            "time": 230.88,
            "velocity": 0.4566929133858268
          },
          {
            "duration": 0.17599999999998772,
            "durationTicks": 44,
            "midi": 31,
            "name": "G1",
            "ticks": 57780,
            "time": 231.12,
            "velocity": 0.4094488188976378
          },
          {
            "duration": 0.11600000000001387,
            "durationTicks": 29,
            "midi": 34,
            "name": "A#1",
            "ticks": 57840,
            "time": 231.35999999999999,
            "velocity": 0.4330708661417323
          },
          {
            "duration": 0.16800000000000637,
            "durationTicks": 42,
            "midi": 34,
            "name": "A#1",
            "ticks": 57900,
            "time": 231.6,
            "velocity": 0.3937007874015748
          },
          {
            "duration": 0.13599999999999568,
            "durationTicks": 34,
            "midi": 35,
            "name": "B1",
            "ticks": 57960,
            "time": 231.84,
            "velocity": 0.4251968503937008
          },
          {
            "duration": 0.20400000000000773,
            "durationTicks": 51,
            "midi": 35,
            "name": "B1",
            "ticks": 58020,
            "time": 232.07999999999998,
            "velocity": 0.3937007874015748
          },
          {
            "duration": 0.1599999999999966,
            "durationTicks": 40,
            "midi": 36,
            "name": "C2",
            "ticks": 58080,
            "time": 232.32,
            "velocity": 0.4645669291338583
          },
          {
            "duration": 0.18799999999998818,
            "durationTicks": 47,
            "midi": 36,
            "name": "C2",
            "ticks": 58140,
            "time": 232.56,
            "velocity": 0.3779527559055118
          },
          {
            "duration": 0.1839999999999975,
            "durationTicks": 46,
            "midi": 31,
            "name": "G1",
            "ticks": 58200,
            "time": 232.79999999999998,
            "velocity": 0.41732283464566927
          },
          {
            "duration": 0.1599999999999966,
            "durationTicks": 40,
            "midi": 31,
            "name": "G1",
            "ticks": 58260,
            "time": 233.04,
            "velocity": 0.4330708661417323
          },
          {
            "duration": 0.11999999999997613,
            "durationTicks": 30,
            "midi": 34,
            "name": "A#1",
            "ticks": 58320,
            "time": 233.28,
            "velocity": 0.3937007874015748
          },
          {
            "duration": 0.1839999999999975,
            "durationTicks": 46,
            "midi": 34,
            "name": "A#1",
            "ticks": 58380,
            "time": 233.51999999999998,
            "velocity": 0.41732283464566927
          },
          {
            "duration": 0.18000000000000682,
            "durationTicks": 45,
            "midi": 35,
            "name": "B1",
            "ticks": 58440,
            "time": 233.76,
            "velocity": 0.48031496062992124
          },
          {
            "duration": 0.14000000000001478,
            "durationTicks": 35,
            "midi": 36,
            "name": "C2",
            "ticks": 58560,
            "time": 234.23999999999998,
            "velocity": 0.4409448818897638
          },
          {
            "duration": 0.20000000000001705,
            "durationTicks": 50,
            "midi": 36,
            "name": "C2",
            "ticks": 58620,
            "time": 234.48,
            "velocity": 0.4330708661417323
          },
          {
            "duration": 0.13599999999999568,
            "durationTicks": 34,
            "midi": 31,
            "name": "G1",
            "ticks": 58680,
            "time": 234.72,
            "velocity": 0.4566929133858268
          },
          {
            "duration": 0.17600000000001614,
            "durationTicks": 44,
            "midi": 31,
            "name": "G1",
            "ticks": 58740,
            "time": 234.95999999999998,
            "velocity": 0.4094488188976378
          },
          {
            "duration": 0.11600000000001387,
            "durationTicks": 29,
            "midi": 34,
            "name": "A#1",
            "ticks": 58800,
            "time": 235.2,
            "velocity": 0.4330708661417323
          },
          {
            "duration": 0.16800000000000637,
            "durationTicks": 42,
            "midi": 34,
            "name": "A#1",
            "ticks": 58860,
            "time": 235.44,
            "velocity": 0.3937007874015748
          },
          {
            "duration": 0.1360000000000241,
            "durationTicks": 34,
            "midi": 35,
            "name": "B1",
            "ticks": 58920,
            "time": 235.67999999999998,
            "velocity": 0.4251968503937008
          },
          {
            "duration": 0.20400000000000773,
            "durationTicks": 51,
            "midi": 35,
            "name": "B1",
            "ticks": 58980,
            "time": 235.92,
            "velocity": 0.3937007874015748
          },
          {
            "duration": 0.1599999999999966,
            "durationTicks": 40,
            "midi": 36,
            "name": "C2",
            "ticks": 59040,
            "time": 236.16,
            "velocity": 0.4645669291338583
          },
          {
            "duration": 0.1880000000000166,
            "durationTicks": 47,
            "midi": 36,
            "name": "C2",
            "ticks": 59100,
            "time": 236.39999999999998,
            "velocity": 0.3779527559055118
          },
          {
            "duration": 0.1839999999999975,
            "durationTicks": 46,
            "midi": 31,
            "name": "G1",
            "ticks": 59160,
            "time": 236.64,
            "velocity": 0.41732283464566927
          },
          {
            "duration": 0.1599999999999966,
            "durationTicks": 40,
            "midi": 31,
            "name": "G1",
            "ticks": 59220,
            "time": 236.88,
            "velocity": 0.4330708661417323
          },
          {
            "duration": 0.11999999999997613,
            "durationTicks": 30,
            "midi": 34,
            "name": "A#1",
            "ticks": 59280,
            "time": 237.12,
            "velocity": 0.3937007874015748
          },
          {
            "duration": 0.1839999999999975,
            "durationTicks": 46,
            "midi": 35,
            "name": "B1",
            "ticks": 59340,
            "time": 237.35999999999999,
            "velocity": 0.41732283464566927
          },
          {
            "duration": 0.18000000000000682,
            "durationTicks": 45,
            "midi": 36,
            "name": "C2",
            "ticks": 59400,
            "time": 237.6,
            "velocity": 0.48031496062992124
          }
        ],
        "endOfTrackTicks": 59445
      },
      {
        "channel": 1,
        "controlChanges": {
          "7": [
            {
              "number": 7,
              "ticks": 0,
              "time": 0,
              "value": 1
            }
          ]
        },
        "pitchBends": [],
        "instrument": {
          "family": "synth lead",
          "number": 81,
          "name": "lead 2 (sawtooth)"
        },
        "name": "Saw Wave",
        "notes": [
          {
            "duration": 0.13200000000000012,
            "durationTicks": 33,
            "midi": 72,
            "name": "C5",
            "ticks": 960,
            "time": 3.84,
            "velocity": 0.5433070866141733
          },
          {
            "duration": 0.1559999999999997,
            "durationTicks": 39,
            "midi": 72,
            "name": "C5",
            "ticks": 1020,
            "time": 4.08,
            "velocity": 0.48031496062992124
          },
          {
            "duration": 0.13999999999999968,
            "durationTicks": 35,
            "midi": 70,
            "name": "A#4",
            "ticks": 1080,
            "time": 4.32,
            "velocity": 0.5433070866141733
          },
          {
            "duration": 0.12399999999999967,
            "durationTicks": 31,
            "midi": 72,
            "name": "C5",
            "ticks": 1140,
            "time": 4.56,
            "velocity": 0.5826771653543307
          },
          {
            "duration": 0.1639999999999997,
            "durationTicks": 41,
            "midi": 67,
            "name": "G4",
            "ticks": 1260,
            "time": 5.04,
            "velocity": 0.5118110236220472
          },
          {
            "duration": 0.11600000000000055,
            "durationTicks": 29,
            "midi": 67,
            "name": "G4",
            "ticks": 1380,
            "time": 5.52,
            "velocity": 0.4881889763779528
          },
          {
            "duration": 0.1639999999999997,
            "durationTicks": 41,
            "midi": 72,
            "name": "C5",
            "ticks": 1440,
            "time": 5.76,
            "velocity": 0.4645669291338583
          },
          {
            "duration": 0.1280000000000001,
            "durationTicks": 32,
            "midi": 77,
            "name": "F5",
            "ticks": 1500,
            "time": 6,
            "velocity": 0.4881889763779528
          },
          {
            "duration": 0.13999999999999968,
            "durationTicks": 35,
            "midi": 76,
            "name": "E5",
            "ticks": 1560,
            "time": 6.24,
            "velocity": 0.4566929133858268
          },
          {
            "duration": 0.14800000000000058,
            "durationTicks": 37,
            "midi": 72,
            "name": "C5",
            "ticks": 1620,
            "time": 6.4799999999999995,
            "velocity": 0.5905511811023622
          },
          {
            "duration": 0.14000000000000057,
            "durationTicks": 35,
            "midi": 72,
            "name": "C5",
            "ticks": 1920,
            "time": 7.68,
            "velocity": 0.5826771653543307
          },
          {
            "duration": 0.14000000000000057,
            "durationTicks": 35,
            "midi": 72,
            "name": "C5",
            "ticks": 1980,
            "time": 7.92,
            "velocity": 0.4881889763779528
          },
          {
            "duration": 0.1479999999999997,
            "durationTicks": 37,
            "midi": 70,
            "name": "A#4",
            "ticks": 2040,
            "time": 8.16,
            "velocity": 0.49606299212598426
          },
          {
            "duration": 0.11999999999999922,
            "durationTicks": 30,
            "midi": 72,
            "name": "C5",
            "ticks": 2100,
            "time": 8.4,
            "velocity": 0.5433070866141733
          },
          {
            "duration": 0.18400000000000105,
            "durationTicks": 46,
            "midi": 67,
            "name": "G4",
            "ticks": 2220,
            "time": 8.879999999999999,
            "velocity": 0.5118110236220472
          },
          {
            "duration": 0.1039999999999992,
            "durationTicks": 26,
            "midi": 67,
            "name": "G4",
            "ticks": 2340,
            "time": 9.36,
            "velocity": 0.4881889763779528
          },
          {
            "duration": 0.1559999999999988,
            "durationTicks": 39,
            "midi": 72,
            "name": "C5",
            "ticks": 2400,
            "time": 9.6,
            "velocity": 0.47244094488188976
          },
          {
            "duration": 0.11999999999999922,
            "durationTicks": 30,
            "midi": 77,
            "name": "F5",
            "ticks": 2460,
            "time": 9.84,
            "velocity": 0.4645669291338583
          },
          {
            "duration": 0.14400000000000013,
            "durationTicks": 36,
            "midi": 76,
            "name": "E5",
            "ticks": 2520,
            "time": 10.08,
            "velocity": 0.49606299212598426
          },
          {
            "duration": 0.136000000000001,
            "durationTicks": 34,
            "midi": 72,
            "name": "C5",
            "ticks": 2580,
            "time": 10.32,
            "velocity": 0.5433070866141733
          },
          {
            "duration": 0.1399999999999988,
            "durationTicks": 35,
            "midi": 72,
            "name": "C5",
            "ticks": 3840,
            "time": 15.36,
            "velocity": 0.5118110236220472
          },
          {
            "duration": 0.15200000000000102,
            "durationTicks": 38,
            "midi": 72,
            "name": "C5",
            "ticks": 3900,
            "time": 15.6,
            "velocity": 0.5275590551181102
          },
          {
            "duration": 0.16000000000000014,
            "durationTicks": 40,
            "midi": 70,
            "name": "A#4",
            "ticks": 3960,
            "time": 15.84,
            "velocity": 0.5905511811023622
          },
          {
            "duration": 0.12400000000000233,
            "durationTicks": 31,
            "midi": 72,
            "name": "C5",
            "ticks": 4020,
            "time": 16.08,
            "velocity": 0.5433070866141733
          },
          {
            "duration": 0.1999999999999993,
            "durationTicks": 50,
            "midi": 67,
            "name": "G4",
            "ticks": 4140,
            "time": 16.56,
            "velocity": 0.4645669291338583
          },
          {
            "duration": 0.120000000000001,
            "durationTicks": 30,
            "midi": 67,
            "name": "G4",
            "ticks": 4260,
            "time": 17.04,
            "velocity": 0.4645669291338583
          },
          {
            "duration": 0.1319999999999979,
            "durationTicks": 33,
            "midi": 72,
            "name": "C5",
            "ticks": 4320,
            "time": 17.28,
            "velocity": 0.47244094488188976
          },
          {
            "duration": 0.120000000000001,
            "durationTicks": 30,
            "midi": 77,
            "name": "F5",
            "ticks": 4380,
            "time": 17.52,
            "velocity": 0.47244094488188976
          },
          {
            "duration": 0.14399999999999835,
            "durationTicks": 36,
            "midi": 76,
            "name": "E5",
            "ticks": 4440,
            "time": 17.759999999999998,
            "velocity": 0.47244094488188976
          },
          {
            "duration": 0.1319999999999979,
            "durationTicks": 33,
            "midi": 72,
            "name": "C5",
            "ticks": 4500,
            "time": 18,
            "velocity": 0.5669291338582677
          },
          {
            "duration": 0.15200000000000102,
            "durationTicks": 38,
            "midi": 72,
            "name": "C5",
            "ticks": 5760,
            "time": 23.04,
            "velocity": 0.5669291338582677
          },
          {
            "duration": 0.1440000000000019,
            "durationTicks": 36,
            "midi": 72,
            "name": "C5",
            "ticks": 5820,
            "time": 23.279999999999998,
            "velocity": 0.4645669291338583
          },
          {
            "duration": 0.16000000000000014,
            "durationTicks": 40,
            "midi": 70,
            "name": "A#4",
            "ticks": 5880,
            "time": 23.52,
            "velocity": 0.5275590551181102
          },
          {
            "duration": 0.1280000000000001,
            "durationTicks": 32,
            "midi": 72,
            "name": "C5",
            "ticks": 5940,
            "time": 23.759999999999998,
            "velocity": 0.5433070866141733
          },
          {
            "duration": 0.15600000000000236,
            "durationTicks": 39,
            "midi": 67,
            "name": "G4",
            "ticks": 6060,
            "time": 24.24,
            "velocity": 0.4566929133858268
          },
          {
            "duration": 0.12399999999999878,
            "durationTicks": 31,
            "midi": 67,
            "name": "G4",
            "ticks": 6180,
            "time": 24.72,
            "velocity": 0.5433070866141733
          },
          {
            "duration": 0.15200000000000102,
            "durationTicks": 38,
            "midi": 72,
            "name": "C5",
            "ticks": 6240,
            "time": 24.96,
            "velocity": 0.5039370078740157
          },
          {
            "duration": 0.12399999999999878,
            "durationTicks": 31,
            "midi": 77,
            "name": "F5",
            "ticks": 6300,
            "time": 25.2,
            "velocity": 0.5118110236220472
          },
          {
            "duration": 0.14000000000000057,
            "durationTicks": 35,
            "midi": 76,
            "name": "E5",
            "ticks": 6360,
            "time": 25.439999999999998,
            "velocity": 0.47244094488188976
          },
          {
            "duration": 0.14399999999999835,
            "durationTicks": 36,
            "midi": 72,
            "name": "C5",
            "ticks": 6420,
            "time": 25.68,
            "velocity": 0.5905511811023622
          },
          {
            "duration": 0.14000000000000057,
            "durationTicks": 35,
            "midi": 67,
            "name": "G4",
            "ticks": 7680,
            "time": 30.72,
            "velocity": 0.5826771653543307
          },
          {
            "duration": 0.16000000000000014,
            "durationTicks": 40,
            "midi": 67,
            "name": "G4",
            "ticks": 7740,
            "time": 30.959999999999997,
            "velocity": 0.5118110236220472
          },
          {
            "duration": 0.15600000000000236,
            "durationTicks": 39,
            "midi": 65,
            "name": "F4",
            "ticks": 7800,
            "time": 31.2,
            "velocity": 0.49606299212598426
          },
          {
            "duration": 0.13599999999999923,
            "durationTicks": 34,
            "midi": 67,
            "name": "G4",
            "ticks": 7860,
            "time": 31.439999999999998,
            "velocity": 0.5669291338582677
          },
          {
            "duration": 0.18400000000000105,
            "durationTicks": 46,
            "midi": 62,
            "name": "D4",
            "ticks": 7980,
            "time": 31.919999999999998,
            "velocity": 0.4330708661417323
          },
          {
            "duration": 0.11999999999999744,
            "durationTicks": 30,
            "midi": 62,
            "name": "D4",
            "ticks": 8100,
            "time": 32.4,
            "velocity": 0.4251968503937008
          },
          {
            "duration": 0.14399999999999835,
            "durationTicks": 36,
            "midi": 67,
            "name": "G4",
            "ticks": 8160,
            "time": 32.64,
            "velocity": 0.5433070866141733
          },
          {
            "duration": 0.12400000000000944,
            "durationTicks": 31,
            "midi": 72,
            "name": "C5",
            "ticks": 8220,
            "time": 32.879999999999995,
            "velocity": 0.4881889763779528
          },
          {
            "duration": 0.14800000000000324,
            "durationTicks": 37,
            "midi": 71,
            "name": "B4",
            "ticks": 8280,
            "time": 33.12,
            "velocity": 0.47244094488188976
          },
          {
            "duration": 0.16400000000000148,
            "durationTicks": 41,
            "midi": 67,
            "name": "G4",
            "ticks": 8340,
            "time": 33.36,
            "velocity": 0.5275590551181102
          },
          {
            "duration": 0.15200000000000102,
            "durationTicks": 38,
            "midi": 72,
            "name": "C5",
            "ticks": 9600,
            "time": 38.4,
            "velocity": 0.49606299212598426
          },
          {
            "duration": 0.17199999999999704,
            "durationTicks": 43,
            "midi": 72,
            "name": "C5",
            "ticks": 9660,
            "time": 38.64,
            "velocity": 0.5118110236220472
          },
          {
            "duration": 0.17200000000000415,
            "durationTicks": 43,
            "midi": 70,
            "name": "A#4",
            "ticks": 9720,
            "time": 38.879999999999995,
            "velocity": 0.5118110236220472
          },
          {
            "duration": 0.13600000000000279,
            "durationTicks": 34,
            "midi": 72,
            "name": "C5",
            "ticks": 9780,
            "time": 39.12,
            "velocity": 0.4881889763779528
          },
          {
            "duration": 0.17999999999999972,
            "durationTicks": 45,
            "midi": 67,
            "name": "G4",
            "ticks": 9900,
            "time": 39.6,
            "velocity": 0.5118110236220472
          },
          {
            "duration": 0.12400000000000233,
            "durationTicks": 31,
            "midi": 67,
            "name": "G4",
            "ticks": 10020,
            "time": 40.08,
            "velocity": 0.4881889763779528
          },
          {
            "duration": 0.18799999999999528,
            "durationTicks": 47,
            "midi": 72,
            "name": "C5",
            "ticks": 10080,
            "time": 40.32,
            "velocity": 0.47244094488188976
          },
          {
            "duration": 0.14000000000000767,
            "durationTicks": 35,
            "midi": 77,
            "name": "F5",
            "ticks": 10140,
            "time": 40.559999999999995,
            "velocity": 0.4645669291338583
          },
          {
            "duration": 0.1599999999999966,
            "durationTicks": 40,
            "midi": 76,
            "name": "E5",
            "ticks": 10200,
            "time": 40.8,
            "velocity": 0.3937007874015748
          },
          {
            "duration": 0.132000000000005,
            "durationTicks": 33,
            "midi": 72,
            "name": "C5",
            "ticks": 10260,
            "time": 41.04,
            "velocity": 0.5039370078740157
          },
          {
            "duration": 0.14399999999999835,
            "durationTicks": 36,
            "midi": 67,
            "name": "G4",
            "ticks": 10500,
            "time": 42,
            "velocity": 0.47244094488188976
          },
          {
            "duration": 0.15200000000000102,
            "durationTicks": 38,
            "midi": 72,
            "name": "C5",
            "ticks": 10560,
            "time": 42.239999999999995,
            "velocity": 0.4881889763779528
          },
          {
            "duration": 0.1560000000000059,
            "durationTicks": 39,
            "midi": 72,
            "name": "C5",
            "ticks": 10620,
            "time": 42.48,
            "velocity": 0.4881889763779528
          },
          {
            "duration": 0.1559999999999988,
            "durationTicks": 39,
            "midi": 70,
            "name": "A#4",
            "ticks": 10680,
            "time": 42.72,
            "velocity": 0.48031496062992124
          },
          {
            "duration": 0.12400000000000233,
            "durationTicks": 31,
            "midi": 72,
            "name": "C5",
            "ticks": 10740,
            "time": 42.96,
            "velocity": 0.49606299212598426
          },
          {
            "duration": 0.16799999999999926,
            "durationTicks": 42,
            "midi": 67,
            "name": "G4",
            "ticks": 10860,
            "time": 43.44,
            "velocity": 0.4645669291338583
          },
          {
            "duration": 0.1319999999999979,
            "durationTicks": 33,
            "midi": 67,
            "name": "G4",
            "ticks": 10980,
            "time": 43.92,
            "velocity": 0.47244094488188976
          },
          {
            "duration": 0.16400000000000148,
            "durationTicks": 41,
            "midi": 72,
            "name": "C5",
            "ticks": 11040,
            "time": 44.16,
            "velocity": 0.5039370078740157
          },
          {
            "duration": 0.027999999999998693,
            "durationTicks": 7,
            "midi": 75,
            "name": "D#5",
            "ticks": 11100,
            "time": 44.4,
            "velocity": 0.4015748031496063
          },
          {
            "duration": 0.15200000000000102,
            "durationTicks": 38,
            "midi": 77,
            "name": "F5",
            "ticks": 11100,
            "time": 44.4,
            "velocity": 0.4645669291338583
          },
          {
            "duration": 0.14799999999999613,
            "durationTicks": 37,
            "midi": 76,
            "name": "E5",
            "ticks": 11160,
            "time": 44.64,
            "velocity": 0.47244094488188976
          },
          {
            "duration": 0.1280000000000001,
            "durationTicks": 32,
            "midi": 72,
            "name": "C5",
            "ticks": 11220,
            "time": 44.879999999999995,
            "velocity": 0.5433070866141733
          },
          {
            "duration": 0.12400000000000233,
            "durationTicks": 31,
            "midi": 67,
            "name": "G4",
            "ticks": 11460,
            "time": 45.839999999999996,
            "velocity": 0.4251968503937008
          },
          {
            "duration": 0.1599999999999966,
            "durationTicks": 40,
            "midi": 72,
            "name": "C5",
            "ticks": 11520,
            "time": 46.08,
            "velocity": 0.49606299212598426
          },
          {
            "duration": 0.15199999999999392,
            "durationTicks": 38,
            "midi": 72,
            "name": "C5",
            "ticks": 11580,
            "time": 46.32,
            "velocity": 0.5275590551181102
          },
          {
            "duration": 0.1600000000000037,
            "durationTicks": 40,
            "midi": 70,
            "name": "A#4",
            "ticks": 11640,
            "time": 46.559999999999995,
            "velocity": 0.4566929133858268
          },
          {
            "duration": 0.12000000000000455,
            "durationTicks": 30,
            "midi": 72,
            "name": "C5",
            "ticks": 11700,
            "time": 46.8,
            "velocity": 0.5118110236220472
          },
          {
            "duration": 0.16799999999999216,
            "durationTicks": 42,
            "midi": 67,
            "name": "G4",
            "ticks": 11820,
            "time": 47.28,
            "velocity": 0.48031496062992124
          },
          {
            "duration": 0.11999999999999744,
            "durationTicks": 30,
            "midi": 67,
            "name": "G4",
            "ticks": 11940,
            "time": 47.76,
            "velocity": 0.47244094488188976
          },
          {
            "duration": 0.1599999999999966,
            "durationTicks": 40,
            "midi": 72,
            "name": "C5",
            "ticks": 12000,
            "time": 48,
            "velocity": 0.4881889763779528
          },
          {
            "duration": 0.14400000000000546,
            "durationTicks": 36,
            "midi": 77,
            "name": "F5",
            "ticks": 12060,
            "time": 48.239999999999995,
            "velocity": 0.4566929133858268
          },
          {
            "duration": 0.15200000000000102,
            "durationTicks": 38,
            "midi": 76,
            "name": "E5",
            "ticks": 12120,
            "time": 48.48,
            "velocity": 0.47244094488188976
          },
          {
            "duration": 0.15200000000000102,
            "durationTicks": 38,
            "midi": 72,
            "name": "C5",
            "ticks": 12180,
            "time": 48.72,
            "velocity": 0.4881889763779528
          },
          {
            "duration": 0.11999999999999744,
            "durationTicks": 30,
            "midi": 67,
            "name": "G4",
            "ticks": 12420,
            "time": 49.68,
            "velocity": 0.4015748031496063
          },
          {
            "duration": 0.16399999999999437,
            "durationTicks": 41,
            "midi": 72,
            "name": "C5",
            "ticks": 12480,
            "time": 49.92,
            "velocity": 0.5039370078740157
          },
          {
            "duration": 0.15200000000000102,
            "durationTicks": 38,
            "midi": 72,
            "name": "C5",
            "ticks": 12540,
            "time": 50.16,
            "velocity": 0.4881889763779528
          },
          {
            "duration": 0.1840000000000046,
            "durationTicks": 46,
            "midi": 70,
            "name": "A#4",
            "ticks": 12600,
            "time": 50.4,
            "velocity": 0.4645669291338583
          },
          {
            "duration": 0.12400000000000233,
            "durationTicks": 31,
            "midi": 72,
            "name": "C5",
            "ticks": 12660,
            "time": 50.64,
            "velocity": 0.4645669291338583
          },
          {
            "duration": 0.1599999999999966,
            "durationTicks": 40,
            "midi": 67,
            "name": "G4",
            "ticks": 12780,
            "time": 51.12,
            "velocity": 0.4881889763779528
          },
          {
            "duration": 0.1319999999999979,
            "durationTicks": 33,
            "midi": 67,
            "name": "G4",
            "ticks": 12900,
            "time": 51.6,
            "velocity": 0.48031496062992124
          },
          {
            "duration": 0.17600000000000193,
            "durationTicks": 44,
            "midi": 72,
            "name": "C5",
            "ticks": 12960,
            "time": 51.839999999999996,
            "velocity": 0.47244094488188976
          },
          {
            "duration": 0.14399999999999835,
            "durationTicks": 36,
            "midi": 77,
            "name": "F5",
            "ticks": 13020,
            "time": 52.08,
            "velocity": 0.4645669291338583
          },
          {
            "duration": 0.16400000000000148,
            "durationTicks": 41,
            "midi": 76,
            "name": "E5",
            "ticks": 13080,
            "time": 52.32,
            "velocity": 0.4566929133858268
          },
          {
            "duration": 0.15200000000000102,
            "durationTicks": 38,
            "midi": 72,
            "name": "C5",
            "ticks": 13140,
            "time": 52.559999999999995,
            "velocity": 0.5118110236220472
          },
          {
            "duration": 0.13199999999997658,
            "durationTicks": 33,
            "midi": 72,
            "name": "C5",
            "ticks": 32640,
            "time": 130.56,
            "velocity": 0.5433070866141733
          },
          {
            "duration": 0.1560000000000059,
            "durationTicks": 39,
            "midi": 72,
            "name": "C5",
            "ticks": 32700,
            "time": 130.79999999999998,
            "velocity": 0.48031496062992124
          },
          {
            "duration": 0.14000000000001478,
            "durationTicks": 35,
            "midi": 70,
            "name": "A#4",
            "ticks": 32760,
            "time": 131.04,
            "velocity": 0.5433070866141733
          },
          {
            "duration": 0.12399999999999523,
            "durationTicks": 31,
            "midi": 72,
            "name": "C5",
            "ticks": 32820,
            "time": 131.28,
            "velocity": 0.5826771653543307
          },
          {
            "duration": 0.16399999999998727,
            "durationTicks": 41,
            "midi": 67,
            "name": "G4",
            "ticks": 32940,
            "time": 131.76,
            "velocity": 0.5118110236220472
          },
          {
            "duration": 0.11599999999998545,
            "durationTicks": 29,
            "midi": 67,
            "name": "G4",
            "ticks": 33060,
            "time": 132.24,
            "velocity": 0.4881889763779528
          },
          {
            "duration": 0.16399999999998727,
            "durationTicks": 41,
            "midi": 72,
            "name": "C5",
            "ticks": 33120,
            "time": 132.48,
            "velocity": 0.4645669291338583
          },
          {
            "duration": 0.1279999999999859,
            "durationTicks": 32,
            "midi": 77,
            "name": "F5",
            "ticks": 33180,
            "time": 132.72,
            "velocity": 0.4881889763779528
          },
          {
            "duration": 0.13999999999998636,
            "durationTicks": 35,
            "midi": 76,
            "name": "E5",
            "ticks": 33240,
            "time": 132.96,
            "velocity": 0.4566929133858268
          },
          {
            "duration": 0.14799999999999613,
            "durationTicks": 37,
            "midi": 72,
            "name": "C5",
            "ticks": 33300,
            "time": 133.2,
            "velocity": 0.5905511811023622
          },
          {
            "duration": 0.13999999999998636,
            "durationTicks": 35,
            "midi": 72,
            "name": "C5",
            "ticks": 33600,
            "time": 134.4,
            "velocity": 0.5826771653543307
          },
          {
            "duration": 0.14000000000001478,
            "durationTicks": 35,
            "midi": 72,
            "name": "C5",
            "ticks": 33660,
            "time": 134.64,
            "velocity": 0.4881889763779528
          },
          {
            "duration": 0.14799999999999613,
            "durationTicks": 37,
            "midi": 70,
            "name": "A#4",
            "ticks": 33720,
            "time": 134.88,
            "velocity": 0.49606299212598426
          },
          {
            "duration": 0.12000000000000455,
            "durationTicks": 30,
            "midi": 72,
            "name": "C5",
            "ticks": 33780,
            "time": 135.12,
            "velocity": 0.5433070866141733
          },
          {
            "duration": 0.1839999999999975,
            "durationTicks": 46,
            "midi": 67,
            "name": "G4",
            "ticks": 33900,
            "time": 135.6,
            "velocity": 0.5118110236220472
          },
          {
            "duration": 0.103999999999985,
            "durationTicks": 26,
            "midi": 67,
            "name": "G4",
            "ticks": 34020,
            "time": 136.07999999999998,
            "velocity": 0.4881889763779528
          },
          {
            "duration": 0.1560000000000059,
            "durationTicks": 39,
            "midi": 72,
            "name": "C5",
            "ticks": 34080,
            "time": 136.32,
            "velocity": 0.47244094488188976
          },
          {
            "duration": 0.12000000000000455,
            "durationTicks": 30,
            "midi": 77,
            "name": "F5",
            "ticks": 34140,
            "time": 136.56,
            "velocity": 0.4645669291338583
          },
          {
            "duration": 0.14400000000000546,
            "durationTicks": 36,
            "midi": 76,
            "name": "E5",
            "ticks": 34200,
            "time": 136.79999999999998,
            "velocity": 0.49606299212598426
          },
          {
            "duration": 0.1360000000000241,
            "durationTicks": 34,
            "midi": 72,
            "name": "C5",
            "ticks": 34260,
            "time": 137.04,
            "velocity": 0.5433070866141733
          },
          {
            "duration": 0.14000000000001478,
            "durationTicks": 35,
            "midi": 72,
            "name": "C5",
            "ticks": 35520,
            "time": 142.07999999999998,
            "velocity": 0.5118110236220472
          },
          {
            "duration": 0.1519999999999868,
            "durationTicks": 38,
            "midi": 72,
            "name": "C5",
            "ticks": 35580,
            "time": 142.32,
            "velocity": 0.5275590551181102
          },
          {
            "duration": 0.1599999999999966,
            "durationTicks": 40,
            "midi": 70,
            "name": "A#4",
            "ticks": 35640,
            "time": 142.56,
            "velocity": 0.5905511811023622
          },
          {
            "duration": 0.12399999999999523,
            "durationTicks": 31,
            "midi": 72,
            "name": "C5",
            "ticks": 35700,
            "time": 142.79999999999998,
            "velocity": 0.5433070866141733
          },
          {
            "duration": 0.19999999999998863,
            "durationTicks": 50,
            "midi": 67,
            "name": "G4",
            "ticks": 35820,
            "time": 143.28,
            "velocity": 0.4645669291338583
          },
          {
            "duration": 0.12000000000000455,
            "durationTicks": 30,
            "midi": 67,
            "name": "G4",
            "ticks": 35940,
            "time": 143.76,
            "velocity": 0.4645669291338583
          },
          {
            "duration": 0.13199999999997658,
            "durationTicks": 33,
            "midi": 72,
            "name": "C5",
            "ticks": 36000,
            "time": 144,
            "velocity": 0.47244094488188976
          },
          {
            "duration": 0.12000000000000455,
            "durationTicks": 30,
            "midi": 77,
            "name": "F5",
            "ticks": 36060,
            "time": 144.23999999999998,
            "velocity": 0.47244094488188976
          },
          {
            "duration": 0.14400000000000546,
            "durationTicks": 36,
            "midi": 76,
            "name": "E5",
            "ticks": 36120,
            "time": 144.48,
            "velocity": 0.47244094488188976
          },
          {
            "duration": 0.13199999999997658,
            "durationTicks": 33,
            "midi": 72,
            "name": "C5",
            "ticks": 36180,
            "time": 144.72,
            "velocity": 0.5669291338582677
          },
          {
            "duration": 0.14799999999999613,
            "durationTicks": 37,
            "midi": 72,
            "name": "C5",
            "ticks": 37440,
            "time": 149.76,
            "velocity": 0.47244094488188976
          },
          {
            "duration": 0.14400000000000546,
            "durationTicks": 36,
            "midi": 72,
            "name": "C5",
            "ticks": 37500,
            "time": 150,
            "velocity": 0.47244094488188976
          },
          {
            "duration": 0.17200000000002547,
            "durationTicks": 43,
            "midi": 70,
            "name": "A#4",
            "ticks": 37560,
            "time": 150.23999999999998,
            "velocity": 0.47244094488188976
          },
          {
            "duration": 0.1279999999999859,
            "durationTicks": 32,
            "midi": 72,
            "name": "C5",
            "ticks": 37620,
            "time": 150.48,
            "velocity": 0.47244094488188976
          },
          {
            "duration": 0.1519999999999868,
            "durationTicks": 38,
            "midi": 67,
            "name": "G4",
            "ticks": 37740,
            "time": 150.96,
            "velocity": 0.5118110236220472
          },
          {
            "duration": 0.14000000000001478,
            "durationTicks": 35,
            "midi": 67,
            "name": "G4",
            "ticks": 37860,
            "time": 151.44,
            "velocity": 0.44881889763779526
          },
          {
            "duration": 0.17199999999999704,
            "durationTicks": 43,
            "midi": 72,
            "name": "C5",
            "ticks": 37920,
            "time": 151.68,
            "velocity": 0.4645669291338583
          },
          {
            "duration": 0.15200000000001523,
            "durationTicks": 38,
            "midi": 77,
            "name": "F5",
            "ticks": 37980,
            "time": 151.92,
            "velocity": 0.4645669291338583
          },
          {
            "duration": 0.1599999999999966,
            "durationTicks": 40,
            "midi": 76,
            "name": "E5",
            "ticks": 38040,
            "time": 152.16,
            "velocity": 0.4645669291338583
          },
          {
            "duration": 0.1559999999999775,
            "durationTicks": 39,
            "midi": 72,
            "name": "C5",
            "ticks": 38100,
            "time": 152.4,
            "velocity": 0.49606299212598426
          },
          {
            "duration": 0.14000000000001478,
            "durationTicks": 35,
            "midi": 67,
            "name": "G4",
            "ticks": 39360,
            "time": 157.44,
            "velocity": 0.5826771653543307
          },
          {
            "duration": 0.15999999999996817,
            "durationTicks": 40,
            "midi": 67,
            "name": "G4",
            "ticks": 39420,
            "time": 157.68,
            "velocity": 0.5118110236220472
          },
          {
            "duration": 0.1560000000000059,
            "durationTicks": 39,
            "midi": 65,
            "name": "F4",
            "ticks": 39480,
            "time": 157.92,
            "velocity": 0.49606299212598426
          },
          {
            "duration": 0.1360000000000241,
            "durationTicks": 34,
            "midi": 67,
            "name": "G4",
            "ticks": 39540,
            "time": 158.16,
            "velocity": 0.5669291338582677
          },
          {
            "duration": 0.1839999999999975,
            "durationTicks": 46,
            "midi": 62,
            "name": "D4",
            "ticks": 39660,
            "time": 158.64,
            "velocity": 0.4330708661417323
          },
          {
            "duration": 0.11999999999997613,
            "durationTicks": 30,
            "midi": 62,
            "name": "D4",
            "ticks": 39780,
            "time": 159.12,
            "velocity": 0.4251968503937008
          },
          {
            "duration": 0.14400000000000546,
            "durationTicks": 36,
            "midi": 67,
            "name": "G4",
            "ticks": 39840,
            "time": 159.35999999999999,
            "velocity": 0.5433070866141733
          },
          {
            "duration": 0.12399999999999523,
            "durationTicks": 31,
            "midi": 72,
            "name": "C5",
            "ticks": 39900,
            "time": 159.6,
            "velocity": 0.4881889763779528
          },
          {
            "duration": 0.14799999999999613,
            "durationTicks": 37,
            "midi": 71,
            "name": "B4",
            "ticks": 39960,
            "time": 159.84,
            "velocity": 0.47244094488188976
          },
          {
            "duration": 0.16399999999998727,
            "durationTicks": 41,
            "midi": 67,
            "name": "G4",
            "ticks": 40020,
            "time": 160.07999999999998,
            "velocity": 0.5275590551181102
          },
          {
            "duration": 0.1519999999999868,
            "durationTicks": 38,
            "midi": 72,
            "name": "C5",
            "ticks": 41280,
            "time": 165.12,
            "velocity": 0.49606299212598426
          },
          {
            "duration": 0.17200000000002547,
            "durationTicks": 43,
            "midi": 72,
            "name": "C5",
            "ticks": 41340,
            "time": 165.35999999999999,
            "velocity": 0.5118110236220472
          },
          {
            "duration": 0.17199999999999704,
            "durationTicks": 43,
            "midi": 70,
            "name": "A#4",
            "ticks": 41400,
            "time": 165.6,
            "velocity": 0.5118110236220472
          },
          {
            "duration": 0.13599999999999568,
            "durationTicks": 34,
            "midi": 72,
            "name": "C5",
            "ticks": 41460,
            "time": 165.84,
            "velocity": 0.4881889763779528
          },
          {
            "duration": 0.18000000000000682,
            "durationTicks": 45,
            "midi": 67,
            "name": "G4",
            "ticks": 41580,
            "time": 166.32,
            "velocity": 0.5118110236220472
          },
          {
            "duration": 0.12399999999999523,
            "durationTicks": 31,
            "midi": 67,
            "name": "G4",
            "ticks": 41700,
            "time": 166.79999999999998,
            "velocity": 0.4881889763779528
          },
          {
            "duration": 0.18799999999998818,
            "durationTicks": 47,
            "midi": 72,
            "name": "C5",
            "ticks": 41760,
            "time": 167.04,
            "velocity": 0.47244094488188976
          },
          {
            "duration": 0.14000000000001478,
            "durationTicks": 35,
            "midi": 77,
            "name": "F5",
            "ticks": 41820,
            "time": 167.28,
            "velocity": 0.4645669291338583
          },
          {
            "duration": 0.1599999999999966,
            "durationTicks": 40,
            "midi": 76,
            "name": "E5",
            "ticks": 41880,
            "time": 167.51999999999998,
            "velocity": 0.3937007874015748
          },
          {
            "duration": 0.132000000000005,
            "durationTicks": 33,
            "midi": 72,
            "name": "C5",
            "ticks": 41940,
            "time": 167.76,
            "velocity": 0.5039370078740157
          },
          {
            "duration": 0.14400000000000546,
            "durationTicks": 36,
            "midi": 67,
            "name": "G4",
            "ticks": 42180,
            "time": 168.72,
            "velocity": 0.47244094488188976
          },
          {
            "duration": 0.15200000000001523,
            "durationTicks": 38,
            "midi": 72,
            "name": "C5",
            "ticks": 42240,
            "time": 168.95999999999998,
            "velocity": 0.4881889763779528
          },
          {
            "duration": 0.1560000000000059,
            "durationTicks": 39,
            "midi": 72,
            "name": "C5",
            "ticks": 42300,
            "time": 169.2,
            "velocity": 0.4881889763779528
          },
          {
            "duration": 0.1559999999999775,
            "durationTicks": 39,
            "midi": 70,
            "name": "A#4",
            "ticks": 42360,
            "time": 169.44,
            "velocity": 0.48031496062992124
          },
          {
            "duration": 0.12399999999999523,
            "durationTicks": 31,
            "midi": 72,
            "name": "C5",
            "ticks": 42420,
            "time": 169.68,
            "velocity": 0.49606299212598426
          },
          {
            "duration": 0.16800000000000637,
            "durationTicks": 42,
            "midi": 67,
            "name": "G4",
            "ticks": 42540,
            "time": 170.16,
            "velocity": 0.4645669291338583
          },
          {
            "duration": 0.132000000000005,
            "durationTicks": 33,
            "midi": 67,
            "name": "G4",
            "ticks": 42660,
            "time": 170.64,
            "velocity": 0.47244094488188976
          },
          {
            "duration": 0.16399999999998727,
            "durationTicks": 41,
            "midi": 72,
            "name": "C5",
            "ticks": 42720,
            "time": 170.88,
            "velocity": 0.5039370078740157
          },
          {
            "duration": 0.027999999999991587,
            "durationTicks": 7,
            "midi": 75,
            "name": "D#5",
            "ticks": 42780,
            "time": 171.12,
            "velocity": 0.4015748031496063
          },
          {
            "duration": 0.1519999999999868,
            "durationTicks": 38,
            "midi": 77,
            "name": "F5",
            "ticks": 42780,
            "time": 171.12,
            "velocity": 0.4645669291338583
          },
          {
            "duration": 0.14799999999999613,
            "durationTicks": 37,
            "midi": 76,
            "name": "E5",
            "ticks": 42840,
            "time": 171.35999999999999,
            "velocity": 0.47244094488188976
          },
          {
            "duration": 0.1279999999999859,
            "durationTicks": 32,
            "midi": 72,
            "name": "C5",
            "ticks": 42900,
            "time": 171.6,
            "velocity": 0.5433070866141733
          },
          {
            "duration": 0.12399999999999523,
            "durationTicks": 31,
            "midi": 67,
            "name": "G4",
            "ticks": 43140,
            "time": 172.56,
            "velocity": 0.4251968503937008
          },
          {
            "duration": 0.1599999999999966,
            "durationTicks": 40,
            "midi": 72,
            "name": "C5",
            "ticks": 43200,
            "time": 172.79999999999998,
            "velocity": 0.49606299212598426
          },
          {
            "duration": 0.1519999999999868,
            "durationTicks": 38,
            "midi": 72,
            "name": "C5",
            "ticks": 43260,
            "time": 173.04,
            "velocity": 0.5275590551181102
          },
          {
            "duration": 0.1599999999999966,
            "durationTicks": 40,
            "midi": 70,
            "name": "A#4",
            "ticks": 43320,
            "time": 173.28,
            "velocity": 0.4566929133858268
          },
          {
            "duration": 0.12000000000000455,
            "durationTicks": 30,
            "midi": 72,
            "name": "C5",
            "ticks": 43380,
            "time": 173.51999999999998,
            "velocity": 0.5118110236220472
          },
          {
            "duration": 0.16800000000000637,
            "durationTicks": 42,
            "midi": 67,
            "name": "G4",
            "ticks": 43500,
            "time": 174,
            "velocity": 0.48031496062992124
          },
          {
            "duration": 0.12000000000000455,
            "durationTicks": 30,
            "midi": 67,
            "name": "G4",
            "ticks": 43620,
            "time": 174.48,
            "velocity": 0.47244094488188976
          },
          {
            "duration": 0.1599999999999966,
            "durationTicks": 40,
            "midi": 72,
            "name": "C5",
            "ticks": 43680,
            "time": 174.72,
            "velocity": 0.4881889763779528
          },
          {
            "duration": 0.14400000000000546,
            "durationTicks": 36,
            "midi": 77,
            "name": "F5",
            "ticks": 43740,
            "time": 174.95999999999998,
            "velocity": 0.4566929133858268
          },
          {
            "duration": 0.15200000000001523,
            "durationTicks": 38,
            "midi": 76,
            "name": "E5",
            "ticks": 43800,
            "time": 175.2,
            "velocity": 0.47244094488188976
          },
          {
            "duration": 0.1519999999999868,
            "durationTicks": 38,
            "midi": 72,
            "name": "C5",
            "ticks": 43860,
            "time": 175.44,
            "velocity": 0.4881889763779528
          },
          {
            "duration": 0.11999999999997613,
            "durationTicks": 30,
            "midi": 67,
            "name": "G4",
            "ticks": 44100,
            "time": 176.4,
            "velocity": 0.4015748031496063
          },
          {
            "duration": 0.16399999999998727,
            "durationTicks": 41,
            "midi": 72,
            "name": "C5",
            "ticks": 44160,
            "time": 176.64,
            "velocity": 0.5039370078740157
          },
          {
            "duration": 0.1519999999999868,
            "durationTicks": 38,
            "midi": 72,
            "name": "C5",
            "ticks": 44220,
            "time": 176.88,
            "velocity": 0.4881889763779528
          },
          {
            "duration": 0.1839999999999975,
            "durationTicks": 46,
            "midi": 70,
            "name": "A#4",
            "ticks": 44280,
            "time": 177.12,
            "velocity": 0.4645669291338583
          },
          {
            "duration": 0.12399999999999523,
            "durationTicks": 31,
            "midi": 72,
            "name": "C5",
            "ticks": 44340,
            "time": 177.35999999999999,
            "velocity": 0.4645669291338583
          },
          {
            "duration": 0.15999999999996817,
            "durationTicks": 40,
            "midi": 67,
            "name": "G4",
            "ticks": 44460,
            "time": 177.84,
            "velocity": 0.4881889763779528
          },
          {
            "duration": 0.13199999999997658,
            "durationTicks": 33,
            "midi": 67,
            "name": "G4",
            "ticks": 44580,
            "time": 178.32,
            "velocity": 0.48031496062992124
          },
          {
            "duration": 0.17599999999998772,
            "durationTicks": 44,
            "midi": 72,
            "name": "C5",
            "ticks": 44640,
            "time": 178.56,
            "velocity": 0.47244094488188976
          },
          {
            "duration": 0.14400000000000546,
            "durationTicks": 36,
            "midi": 77,
            "name": "F5",
            "ticks": 44700,
            "time": 178.79999999999998,
            "velocity": 0.4645669291338583
          },
          {
            "duration": 0.16399999999998727,
            "durationTicks": 41,
            "midi": 76,
            "name": "E5",
            "ticks": 44760,
            "time": 179.04,
            "velocity": 0.4566929133858268
          },
          {
            "duration": 0.1519999999999868,
            "durationTicks": 38,
            "midi": 72,
            "name": "C5",
            "ticks": 44820,
            "time": 179.28,
            "velocity": 0.5118110236220472
          }
        ],
        "endOfTrackTicks": 44858
      },
      {
        "channel": 0,
        "controlChanges": {
          "7": [
            {
              "number": 7,
              "ticks": 0,
              "time": 0,
              "value": 0.905511811023622
            }
          ]
        },
        "pitchBends": [],
        "instrument": {
          "family": "piano",
          "number": 0,
          "name": "acoustic grand piano"
        },
        "name": "Ooh",
        "notes": [],
        "endOfTrackTicks": 37400
      },
      {
        "channel": 2,
        "controlChanges": {},
        "pitchBends": [],
        "instrument": {
          "family": "ensemble",
          "number": 53,
          "name": "voice oohs"
        },
        "name": "",
        "notes": [
          {
            "duration": 0.4559999999999995,
            "durationTicks": 114,
            "midi": 60,
            "name": "C4",
            "ticks": 2810,
            "time": 11.24,
            "velocity": 0.5905511811023622
          },
          {
            "duration": 0.10800000000000054,
            "durationTicks": 27,
            "midi": 60,
            "name": "C4",
            "ticks": 2943,
            "time": 11.771999999999998,
            "velocity": 0.4645669291338583
          },
          {
            "duration": 0.11999999999999922,
            "durationTicks": 30,
            "midi": 60,
            "name": "C4",
            "ticks": 3000,
            "time": 12,
            "velocity": 0.5039370078740157
          },
          {
            "duration": 0.1999999999999993,
            "durationTicks": 50,
            "midi": 60,
            "name": "C4",
            "ticks": 3057,
            "time": 12.228,
            "velocity": 0.4881889763779528
          },
          {
            "duration": 0.43599999999999994,
            "durationTicks": 109,
            "midi": 64,
            "name": "E4",
            "ticks": 3111,
            "time": 12.443999999999999,
            "velocity": 0.5039370078740157
          },
          {
            "duration": 0.14399999999999835,
            "durationTicks": 36,
            "midi": 64,
            "name": "E4",
            "ticks": 3237,
            "time": 12.948,
            "velocity": 0.5039370078740157
          },
          {
            "duration": 0.136000000000001,
            "durationTicks": 34,
            "midi": 64,
            "name": "E4",
            "ticks": 3293,
            "time": 13.171999999999999,
            "velocity": 0.4566929133858268
          },
          {
            "duration": 0.17999999999999972,
            "durationTicks": 45,
            "midi": 67,
            "name": "G4",
            "ticks": 3354,
            "time": 13.415999999999999,
            "velocity": 0.5118110236220472
          },
          {
            "duration": 0.2839999999999989,
            "durationTicks": 71,
            "midi": 67,
            "name": "G4",
            "ticks": 3419,
            "time": 13.676,
            "velocity": 0.49606299212598426
          },
          {
            "duration": 0.3879999999999999,
            "durationTicks": 97,
            "midi": 76,
            "name": "E5",
            "ticks": 3535,
            "time": 14.139999999999999,
            "velocity": 0.5118110236220472
          },
          {
            "duration": 0.14000000000000057,
            "durationTicks": 35,
            "midi": 74,
            "name": "D5",
            "ticks": 3654,
            "time": 14.616,
            "velocity": 0.5905511811023622
          },
          {
            "duration": 0.379999999999999,
            "durationTicks": 95,
            "midi": 72,
            "name": "C5",
            "ticks": 3714,
            "time": 14.856,
            "velocity": 0.6220472440944882
          },
          {
            "duration": 0.43599999999999994,
            "durationTicks": 109,
            "midi": 60,
            "name": "C4",
            "ticks": 4735,
            "time": 18.94,
            "velocity": 0.5433070866141733
          },
          {
            "duration": 0.13599999999999923,
            "durationTicks": 34,
            "midi": 60,
            "name": "C4",
            "ticks": 4860,
            "time": 19.439999999999998,
            "velocity": 0.4645669291338583
          },
          {
            "duration": 0.120000000000001,
            "durationTicks": 30,
            "midi": 60,
            "name": "C4",
            "ticks": 4920,
            "time": 19.68,
            "velocity": 0.4881889763779528
          },
          {
            "duration": 0.11200000000000188,
            "durationTicks": 28,
            "midi": 60,
            "name": "C4",
            "ticks": 4980,
            "time": 19.919999999999998,
            "velocity": 0.4881889763779528
          },
          {
            "duration": 0.1280000000000001,
            "durationTicks": 32,
            "midi": 64,
            "name": "E4",
            "ticks": 5034,
            "time": 20.136,
            "velocity": 0.5118110236220472
          },
          {
            "duration": 0.11599999999999966,
            "durationTicks": 29,
            "midi": 64,
            "name": "E4",
            "ticks": 5099,
            "time": 20.396,
            "velocity": 0.5039370078740157
          },
          {
            "duration": 0.11200000000000188,
            "durationTicks": 28,
            "midi": 64,
            "name": "E4",
            "ticks": 5161,
            "time": 20.644,
            "velocity": 0.47244094488188976
          },
          {
            "duration": 0.09999999999999787,
            "durationTicks": 25,
            "midi": 64,
            "name": "E4",
            "ticks": 5215,
            "time": 20.86,
            "velocity": 0.4566929133858268
          },
          {
            "duration": 0.12400000000000233,
            "durationTicks": 31,
            "midi": 67,
            "name": "G4",
            "ticks": 5278,
            "time": 21.112,
            "velocity": 0.49606299212598426
          },
          {
            "duration": 0.120000000000001,
            "durationTicks": 30,
            "midi": 67,
            "name": "G4",
            "ticks": 5337,
            "time": 21.348,
            "velocity": 0.4566929133858268
          },
          {
            "duration": 0.09199999999999875,
            "durationTicks": 23,
            "midi": 67,
            "name": "G4",
            "ticks": 5398,
            "time": 21.592,
            "velocity": 0.4566929133858268
          },
          {
            "duration": 0.09999999999999787,
            "durationTicks": 25,
            "midi": 67,
            "name": "G4",
            "ticks": 5453,
            "time": 21.812,
            "velocity": 0.4094488188976378
          },
          {
            "duration": 0.17600000000000193,
            "durationTicks": 44,
            "midi": 76,
            "name": "E5",
            "ticks": 5522,
            "time": 22.087999999999997,
            "velocity": 0.5511811023622047
          },
          {
            "duration": 0.12399999999999878,
            "durationTicks": 31,
            "midi": 74,
            "name": "D5",
            "ticks": 5577,
            "time": 22.308,
            "velocity": 0.5275590551181102
          },
          {
            "duration": 0.33200000000000074,
            "durationTicks": 83,
            "midi": 72,
            "name": "C5",
            "ticks": 5637,
            "time": 22.548,
            "velocity": 0.6850393700787402
          },
          {
            "duration": 0.45599999999998886,
            "durationTicks": 114,
            "midi": 60,
            "name": "C4",
            "ticks": 34490,
            "time": 137.96,
            "velocity": 0.5905511811023622
          },
          {
            "duration": 0.10800000000000409,
            "durationTicks": 27,
            "midi": 60,
            "name": "C4",
            "ticks": 34623,
            "time": 138.492,
            "velocity": 0.4645669291338583
          },
          {
            "duration": 0.12000000000000455,
            "durationTicks": 30,
            "midi": 60,
            "name": "C4",
            "ticks": 34680,
            "time": 138.72,
            "velocity": 0.5039370078740157
          },
          {
            "duration": 0.19999999999998863,
            "durationTicks": 50,
            "midi": 60,
            "name": "C4",
            "ticks": 34737,
            "time": 138.948,
            "velocity": 0.4881889763779528
          },
          {
            "duration": 0.43600000000000705,
            "durationTicks": 109,
            "midi": 64,
            "name": "E4",
            "ticks": 34791,
            "time": 139.164,
            "velocity": 0.5039370078740157
          },
          {
            "duration": 0.14399999999997704,
            "durationTicks": 36,
            "midi": 64,
            "name": "E4",
            "ticks": 34917,
            "time": 139.668,
            "velocity": 0.5039370078740157
          },
          {
            "duration": 0.13599999999999568,
            "durationTicks": 34,
            "midi": 64,
            "name": "E4",
            "ticks": 34973,
            "time": 139.892,
            "velocity": 0.4566929133858268
          },
          {
            "duration": 0.18000000000000682,
            "durationTicks": 45,
            "midi": 67,
            "name": "G4",
            "ticks": 35034,
            "time": 140.136,
            "velocity": 0.5118110236220472
          },
          {
            "duration": 0.2839999999999918,
            "durationTicks": 71,
            "midi": 67,
            "name": "G4",
            "ticks": 35099,
            "time": 140.396,
            "velocity": 0.49606299212598426
          },
          {
            "duration": 0.38800000000000523,
            "durationTicks": 97,
            "midi": 76,
            "name": "E5",
            "ticks": 35215,
            "time": 140.85999999999999,
            "velocity": 0.5118110236220472
          },
          {
            "duration": 0.14000000000001478,
            "durationTicks": 35,
            "midi": 74,
            "name": "D5",
            "ticks": 35334,
            "time": 141.33599999999998,
            "velocity": 0.5905511811023622
          },
          {
            "duration": 0.37999999999999545,
            "durationTicks": 95,
            "midi": 72,
            "name": "C5",
            "ticks": 35394,
            "time": 141.576,
            "velocity": 0.6220472440944882
          },
          {
            "duration": 0.43600000000000705,
            "durationTicks": 109,
            "midi": 60,
            "name": "C4",
            "ticks": 36415,
            "time": 145.66,
            "velocity": 0.5433070866141733
          },
          {
            "duration": 0.1360000000000241,
            "durationTicks": 34,
            "midi": 60,
            "name": "C4",
            "ticks": 36540,
            "time": 146.16,
            "velocity": 0.4645669291338583
          },
          {
            "duration": 0.11999999999997613,
            "durationTicks": 30,
            "midi": 60,
            "name": "C4",
            "ticks": 36600,
            "time": 146.4,
            "velocity": 0.4881889763779528
          },
          {
            "duration": 0.11200000000002319,
            "durationTicks": 28,
            "midi": 60,
            "name": "C4",
            "ticks": 36660,
            "time": 146.64,
            "velocity": 0.4881889763779528
          },
          {
            "duration": 0.1279999999999859,
            "durationTicks": 32,
            "midi": 64,
            "name": "E4",
            "ticks": 36714,
            "time": 146.856,
            "velocity": 0.5118110236220472
          },
          {
            "duration": 0.11600000000001387,
            "durationTicks": 29,
            "midi": 64,
            "name": "E4",
            "ticks": 36779,
            "time": 147.11599999999999,
            "velocity": 0.5039370078740157
          },
          {
            "duration": 0.11199999999999477,
            "durationTicks": 28,
            "midi": 64,
            "name": "E4",
            "ticks": 36841,
            "time": 147.364,
            "velocity": 0.47244094488188976
          },
          {
            "duration": 0.10000000000002274,
            "durationTicks": 25,
            "midi": 64,
            "name": "E4",
            "ticks": 36895,
            "time": 147.57999999999998,
            "velocity": 0.4566929133858268
          },
          {
            "duration": 0.12399999999999523,
            "durationTicks": 31,
            "midi": 67,
            "name": "G4",
            "ticks": 36958,
            "time": 147.832,
            "velocity": 0.49606299212598426
          },
          {
            "duration": 0.12000000000000455,
            "durationTicks": 30,
            "midi": 67,
            "name": "G4",
            "ticks": 37017,
            "time": 148.068,
            "velocity": 0.4566929133858268
          },
          {
            "duration": 0.09199999999998454,
            "durationTicks": 23,
            "midi": 67,
            "name": "G4",
            "ticks": 37078,
            "time": 148.312,
            "velocity": 0.4566929133858268
          },
          {
            "duration": 0.09999999999999432,
            "durationTicks": 25,
            "midi": 67,
            "name": "G4",
            "ticks": 37133,
            "time": 148.53199999999998,
            "velocity": 0.4094488188976378
          },
          {
            "duration": 0.17599999999998772,
            "durationTicks": 44,
            "midi": 76,
            "name": "E5",
            "ticks": 37202,
            "time": 148.808,
            "velocity": 0.5511811023622047
          },
          {
            "duration": 0.12400000000002365,
            "durationTicks": 31,
            "midi": 74,
            "name": "D5",
            "ticks": 37257,
            "time": 149.028,
            "velocity": 0.5275590551181102
          },
          {
            "duration": 0.33199999999999363,
            "durationTicks": 83,
            "midi": 72,
            "name": "C5",
            "ticks": 37317,
            "time": 149.268,
            "velocity": 0.6850393700787402
          }
        ]
      },
      {
        "channel": 0,
        "controlChanges": {
          "7": [
            {
              "number": 7,
              "ticks": 0,
              "time": 0,
              "value": 0.952755905511811
            }
          ]
        },
        "pitchBends": [],
        "instrument": {
          "family": "piano",
          "number": 0,
          "name": "acoustic grand piano"
        },
        "name": "Strings",
        "notes": [],
        "endOfTrackTicks": 55626
      },
      {
        "channel": 3,
        "controlChanges": {},
        "pitchBends": [],
        "instrument": {
          "family": "ensemble",
          "number": 48,
          "name": "string ensemble 1"
        },
        "name": "",
        "notes": [
          {
            "duration": 0.14799999999999613,
            "durationTicks": 37,
            "midi": 67,
            "name": "G4",
            "ticks": 20340,
            "time": 81.36,
            "velocity": 0.4881889763779528
          },
          {
            "duration": 0.1600000000000108,
            "durationTicks": 40,
            "midi": 70,
            "name": "A#4",
            "ticks": 20400,
            "time": 81.6,
            "velocity": 0.6850393700787402
          },
          {
            "duration": 0.14799999999999613,
            "durationTicks": 37,
            "midi": 67,
            "name": "G4",
            "ticks": 20460,
            "time": 81.84,
            "velocity": 0.4645669291338583
          },
          {
            "duration": 0.1839999999999975,
            "durationTicks": 46,
            "midi": 70,
            "name": "A#4",
            "ticks": 20520,
            "time": 82.08,
            "velocity": 0.6850393700787402
          },
          {
            "duration": 0.15200000000000102,
            "durationTicks": 38,
            "midi": 67,
            "name": "G4",
            "ticks": 20580,
            "time": 82.32,
            "velocity": 0.5118110236220472
          },
          {
            "duration": 0.13599999999999568,
            "durationTicks": 34,
            "midi": 70,
            "name": "A#4",
            "ticks": 20820,
            "time": 83.28,
            "velocity": 0.48031496062992124
          },
          {
            "duration": 0.16400000000000148,
            "durationTicks": 41,
            "midi": 72,
            "name": "C5",
            "ticks": 20880,
            "time": 83.52,
            "velocity": 0.5039370078740157
          },
          {
            "duration": 0.14800000000001035,
            "durationTicks": 37,
            "midi": 70,
            "name": "A#4",
            "ticks": 20940,
            "time": 83.75999999999999,
            "velocity": 0.5433070866141733
          },
          {
            "duration": 0.3199999999999932,
            "durationTicks": 80,
            "midi": 75,
            "name": "D#5",
            "ticks": 21000,
            "time": 84,
            "velocity": 0.5118110236220472
          },
          {
            "duration": 0.1319999999999908,
            "durationTicks": 33,
            "midi": 67,
            "name": "G4",
            "ticks": 21300,
            "time": 85.2,
            "velocity": 0.5118110236220472
          },
          {
            "duration": 0.1799999999999926,
            "durationTicks": 45,
            "midi": 70,
            "name": "A#4",
            "ticks": 21360,
            "time": 85.44,
            "velocity": 0.6220472440944882
          },
          {
            "duration": 0.12800000000001432,
            "durationTicks": 32,
            "midi": 67,
            "name": "G4",
            "ticks": 21420,
            "time": 85.67999999999999,
            "velocity": 0.48031496062992124
          },
          {
            "duration": 0.20399999999999352,
            "durationTicks": 51,
            "midi": 70,
            "name": "A#4",
            "ticks": 21480,
            "time": 85.92,
            "velocity": 0.6850393700787402
          },
          {
            "duration": 0.1600000000000108,
            "durationTicks": 40,
            "midi": 72,
            "name": "C5",
            "ticks": 21540,
            "time": 86.16,
            "velocity": 0.4881889763779528
          },
          {
            "duration": 0.1600000000000108,
            "durationTicks": 40,
            "midi": 70,
            "name": "A#4",
            "ticks": 21780,
            "time": 87.11999999999999,
            "velocity": 0.6220472440944882
          },
          {
            "duration": 0.15200000000000102,
            "durationTicks": 38,
            "midi": 72,
            "name": "C5",
            "ticks": 21840,
            "time": 87.36,
            "velocity": 0.5275590551181102
          },
          {
            "duration": 0.14400000000000546,
            "durationTicks": 36,
            "midi": 72,
            "name": "C5",
            "ticks": 21900,
            "time": 87.6,
            "velocity": 0.4881889763779528
          },
          {
            "duration": 0.2639999999999958,
            "durationTicks": 66,
            "midi": 63,
            "name": "D#4",
            "ticks": 21960,
            "time": 87.84,
            "velocity": 0.5118110236220472
          },
          {
            "duration": 0.14800000000001035,
            "durationTicks": 37,
            "midi": 67,
            "name": "G4",
            "ticks": 22260,
            "time": 89.03999999999999,
            "velocity": 0.4881889763779528
          },
          {
            "duration": 0.1599999999999966,
            "durationTicks": 40,
            "midi": 70,
            "name": "A#4",
            "ticks": 22320,
            "time": 89.28,
            "velocity": 0.6850393700787402
          },
          {
            "duration": 0.14799999999999613,
            "durationTicks": 37,
            "midi": 67,
            "name": "G4",
            "ticks": 22380,
            "time": 89.52,
            "velocity": 0.4645669291338583
          },
          {
            "duration": 0.1839999999999975,
            "durationTicks": 46,
            "midi": 70,
            "name": "A#4",
            "ticks": 22440,
            "time": 89.75999999999999,
            "velocity": 0.6850393700787402
          },
          {
            "duration": 0.15200000000000102,
            "durationTicks": 38,
            "midi": 67,
            "name": "G4",
            "ticks": 22500,
            "time": 90,
            "velocity": 0.5118110236220472
          },
          {
            "duration": 0.13599999999999568,
            "durationTicks": 34,
            "midi": 70,
            "name": "A#4",
            "ticks": 22740,
            "time": 90.96,
            "velocity": 0.48031496062992124
          },
          {
            "duration": 0.16400000000000148,
            "durationTicks": 41,
            "midi": 72,
            "name": "C5",
            "ticks": 22800,
            "time": 91.2,
            "velocity": 0.5039370078740157
          },
          {
            "duration": 0.14799999999999613,
            "durationTicks": 37,
            "midi": 70,
            "name": "A#4",
            "ticks": 22860,
            "time": 91.44,
            "velocity": 0.5433070866141733
          },
          {
            "duration": 0.3199999999999932,
            "durationTicks": 80,
            "midi": 75,
            "name": "D#5",
            "ticks": 22920,
            "time": 91.67999999999999,
            "velocity": 0.5118110236220472
          },
          {
            "duration": 0.132000000000005,
            "durationTicks": 33,
            "midi": 67,
            "name": "G4",
            "ticks": 23220,
            "time": 92.88,
            "velocity": 0.5118110236220472
          },
          {
            "duration": 0.18000000000000682,
            "durationTicks": 45,
            "midi": 70,
            "name": "A#4",
            "ticks": 23280,
            "time": 93.11999999999999,
            "velocity": 0.6220472440944882
          },
          {
            "duration": 0.1280000000000001,
            "durationTicks": 32,
            "midi": 67,
            "name": "G4",
            "ticks": 23340,
            "time": 93.36,
            "velocity": 0.48031496062992124
          },
          {
            "duration": 0.20400000000000773,
            "durationTicks": 51,
            "midi": 70,
            "name": "A#4",
            "ticks": 23400,
            "time": 93.6,
            "velocity": 0.6850393700787402
          },
          {
            "duration": 0.1599999999999966,
            "durationTicks": 40,
            "midi": 72,
            "name": "C5",
            "ticks": 23460,
            "time": 93.84,
            "velocity": 0.4881889763779528
          },
          {
            "duration": 0.1600000000000108,
            "durationTicks": 40,
            "midi": 70,
            "name": "A#4",
            "ticks": 23700,
            "time": 94.8,
            "velocity": 0.6220472440944882
          },
          {
            "duration": 0.15200000000000102,
            "durationTicks": 38,
            "midi": 72,
            "name": "C5",
            "ticks": 23760,
            "time": 95.03999999999999,
            "velocity": 0.5275590551181102
          },
          {
            "duration": 0.14400000000000546,
            "durationTicks": 36,
            "midi": 72,
            "name": "C5",
            "ticks": 23820,
            "time": 95.28,
            "velocity": 0.4881889763779528
          },
          {
            "duration": 0.26400000000001,
            "durationTicks": 66,
            "midi": 63,
            "name": "D#4",
            "ticks": 23880,
            "time": 95.52,
            "velocity": 0.5118110236220472
          },
          {
            "duration": 0.14799999999999613,
            "durationTicks": 37,
            "midi": 67,
            "name": "G4",
            "ticks": 52020,
            "time": 208.07999999999998,
            "velocity": 0.4881889763779528
          },
          {
            "duration": 0.1599999999999966,
            "durationTicks": 40,
            "midi": 70,
            "name": "A#4",
            "ticks": 52080,
            "time": 208.32,
            "velocity": 0.6850393700787402
          },
          {
            "duration": 0.14799999999999613,
            "durationTicks": 37,
            "midi": 67,
            "name": "G4",
            "ticks": 52140,
            "time": 208.56,
            "velocity": 0.4645669291338583
          },
          {
            "duration": 0.1839999999999975,
            "durationTicks": 46,
            "midi": 70,
            "name": "A#4",
            "ticks": 52200,
            "time": 208.79999999999998,
            "velocity": 0.6850393700787402
          },
          {
            "duration": 0.1519999999999868,
            "durationTicks": 38,
            "midi": 67,
            "name": "G4",
            "ticks": 52260,
            "time": 209.04,
            "velocity": 0.5118110236220472
          },
          {
            "duration": 0.13599999999999568,
            "durationTicks": 34,
            "midi": 70,
            "name": "A#4",
            "ticks": 52500,
            "time": 210,
            "velocity": 0.48031496062992124
          },
          {
            "duration": 0.16399999999998727,
            "durationTicks": 41,
            "midi": 72,
            "name": "C5",
            "ticks": 52560,
            "time": 210.23999999999998,
            "velocity": 0.5039370078740157
          },
          {
            "duration": 0.14799999999999613,
            "durationTicks": 37,
            "midi": 70,
            "name": "A#4",
            "ticks": 52620,
            "time": 210.48,
            "velocity": 0.5433070866141733
          },
          {
            "duration": 0.3199999999999932,
            "durationTicks": 80,
            "midi": 75,
            "name": "D#5",
            "ticks": 52680,
            "time": 210.72,
            "velocity": 0.5118110236220472
          },
          {
            "duration": 0.132000000000005,
            "durationTicks": 33,
            "midi": 67,
            "name": "G4",
            "ticks": 52980,
            "time": 211.92,
            "velocity": 0.5118110236220472
          },
          {
            "duration": 0.18000000000000682,
            "durationTicks": 45,
            "midi": 70,
            "name": "A#4",
            "ticks": 53040,
            "time": 212.16,
            "velocity": 0.6220472440944882
          },
          {
            "duration": 0.1279999999999859,
            "durationTicks": 32,
            "midi": 67,
            "name": "G4",
            "ticks": 53100,
            "time": 212.4,
            "velocity": 0.48031496062992124
          },
          {
            "duration": 0.20400000000000773,
            "durationTicks": 51,
            "midi": 70,
            "name": "A#4",
            "ticks": 53160,
            "time": 212.64,
            "velocity": 0.6850393700787402
          },
          {
            "duration": 0.1599999999999966,
            "durationTicks": 40,
            "midi": 72,
            "name": "C5",
            "ticks": 53220,
            "time": 212.88,
            "velocity": 0.4881889763779528
          },
          {
            "duration": 0.15999999999996817,
            "durationTicks": 40,
            "midi": 70,
            "name": "A#4",
            "ticks": 53460,
            "time": 213.84,
            "velocity": 0.6220472440944882
          },
          {
            "duration": 0.15200000000001523,
            "durationTicks": 38,
            "midi": 72,
            "name": "C5",
            "ticks": 53520,
            "time": 214.07999999999998,
            "velocity": 0.5275590551181102
          },
          {
            "duration": 0.14400000000000546,
            "durationTicks": 36,
            "midi": 72,
            "name": "C5",
            "ticks": 53580,
            "time": 214.32,
            "velocity": 0.4881889763779528
          },
          {
            "duration": 0.2639999999999816,
            "durationTicks": 66,
            "midi": 63,
            "name": "D#4",
            "ticks": 53640,
            "time": 214.56,
            "velocity": 0.5118110236220472
          },
          {
            "duration": 0.14799999999999613,
            "durationTicks": 37,
            "midi": 67,
            "name": "G4",
            "ticks": 53940,
            "time": 215.76,
            "velocity": 0.4881889763779528
          },
          {
            "duration": 0.1599999999999966,
            "durationTicks": 40,
            "midi": 70,
            "name": "A#4",
            "ticks": 54000,
            "time": 216,
            "velocity": 0.6850393700787402
          },
          {
            "duration": 0.14800000000002456,
            "durationTicks": 37,
            "midi": 67,
            "name": "G4",
            "ticks": 54060,
            "time": 216.23999999999998,
            "velocity": 0.4645669291338583
          },
          {
            "duration": 0.1839999999999975,
            "durationTicks": 46,
            "midi": 70,
            "name": "A#4",
            "ticks": 54120,
            "time": 216.48,
            "velocity": 0.6850393700787402
          },
          {
            "duration": 0.1519999999999868,
            "durationTicks": 38,
            "midi": 67,
            "name": "G4",
            "ticks": 54180,
            "time": 216.72,
            "velocity": 0.5118110236220472
          },
          {
            "duration": 0.1360000000000241,
            "durationTicks": 34,
            "midi": 70,
            "name": "A#4",
            "ticks": 54420,
            "time": 217.67999999999998,
            "velocity": 0.48031496062992124
          },
          {
            "duration": 0.16399999999998727,
            "durationTicks": 41,
            "midi": 72,
            "name": "C5",
            "ticks": 54480,
            "time": 217.92,
            "velocity": 0.5039370078740157
          },
          {
            "duration": 0.14799999999999613,
            "durationTicks": 37,
            "midi": 70,
            "name": "A#4",
            "ticks": 54540,
            "time": 218.16,
            "velocity": 0.5433070866141733
          },
          {
            "duration": 0.3199999999999932,
            "durationTicks": 80,
            "midi": 75,
            "name": "D#5",
            "ticks": 54600,
            "time": 218.4,
            "velocity": 0.5118110236220472
          },
          {
            "duration": 0.13199999999997658,
            "durationTicks": 33,
            "midi": 67,
            "name": "G4",
            "ticks": 54900,
            "time": 219.6,
            "velocity": 0.5118110236220472
          },
          {
            "duration": 0.1799999999999784,
            "durationTicks": 45,
            "midi": 70,
            "name": "A#4",
            "ticks": 54960,
            "time": 219.84,
            "velocity": 0.6220472440944882
          },
          {
            "duration": 0.12800000000001432,
            "durationTicks": 32,
            "midi": 67,
            "name": "G4",
            "ticks": 55020,
            "time": 220.07999999999998,
            "velocity": 0.48031496062992124
          },
          {
            "duration": 0.20400000000000773,
            "durationTicks": 51,
            "midi": 70,
            "name": "A#4",
            "ticks": 55080,
            "time": 220.32,
            "velocity": 0.6850393700787402
          },
          {
            "duration": 0.15999999999996817,
            "durationTicks": 40,
            "midi": 72,
            "name": "C5",
            "ticks": 55140,
            "time": 220.56,
            "velocity": 0.4881889763779528
          },
          {
            "duration": 0.1599999999999966,
            "durationTicks": 40,
            "midi": 70,
            "name": "A#4",
            "ticks": 55380,
            "time": 221.51999999999998,
            "velocity": 0.6220472440944882
          },
          {
            "duration": 0.1519999999999868,
            "durationTicks": 38,
            "midi": 72,
            "name": "C5",
            "ticks": 55440,
            "time": 221.76,
            "velocity": 0.5275590551181102
          },
          {
            "duration": 0.14400000000000546,
            "durationTicks": 36,
            "midi": 72,
            "name": "C5",
            "ticks": 55500,
            "time": 222,
            "velocity": 0.4881889763779528
          },
          {
            "duration": 0.26400000000001,
            "durationTicks": 66,
            "midi": 63,
            "name": "D#4",
            "ticks": 55560,
            "time": 222.23999999999998,
            "velocity": 0.5118110236220472
          }
        ]
      },
      {
        "channel": 0,
        "controlChanges": {
          "7": [
            {
              "number": 7,
              "ticks": 0,
              "time": 0,
              "value": 0.905511811023622
            }
          ]
        },
        "pitchBends": [],
        "instrument": {
          "family": "piano",
          "number": 0,
          "name": "acoustic grand piano"
        },
        "name": "Guitar",
        "notes": [],
        "endOfTrackTicks": 59439
      },
      {
        "channel": 4,
        "controlChanges": {},
        "pitchBends": [],
        "instrument": {
          "family": "guitar",
          "number": 27,
          "name": "electric guitar (clean)"
        },
        "name": "",
        "notes": [
          {
            "duration": 0.3119999999999976,
            "durationTicks": 78,
            "midi": 63,
            "name": "D#4",
            "ticks": 16323,
            "time": 65.292,
            "velocity": 0.4645669291338583
          },
          {
            "duration": 0.3160000000000025,
            "durationTicks": 79,
            "midi": 65,
            "name": "F4",
            "ticks": 16323,
            "time": 65.292,
            "velocity": 0.5039370078740157
          },
          {
            "duration": 0.2879999999999967,
            "durationTicks": 72,
            "midi": 60,
            "name": "C4",
            "ticks": 16324,
            "time": 65.29599999999999,
            "velocity": 0.4645669291338583
          },
          {
            "duration": 0.06799999999999784,
            "durationTicks": 17,
            "midi": 65,
            "name": "F4",
            "ticks": 16415,
            "time": 65.66,
            "velocity": 0.47244094488188976
          },
          {
            "duration": 0.07200000000000273,
            "durationTicks": 18,
            "midi": 60,
            "name": "C4",
            "ticks": 16415,
            "time": 65.66,
            "velocity": 0.4330708661417323
          },
          {
            "duration": 0.06400000000000716,
            "durationTicks": 16,
            "midi": 63,
            "name": "D#4",
            "ticks": 16415,
            "time": 65.66,
            "velocity": 0.44881889763779526
          },
          {
            "duration": 0.11199999999999477,
            "durationTicks": 28,
            "midi": 63,
            "name": "D#4",
            "ticks": 16443,
            "time": 65.772,
            "velocity": 0.5118110236220472
          },
          {
            "duration": 0.11199999999999477,
            "durationTicks": 28,
            "midi": 65,
            "name": "F4",
            "ticks": 16443,
            "time": 65.772,
            "velocity": 0.4881889763779528
          },
          {
            "duration": 0.1039999999999992,
            "durationTicks": 26,
            "midi": 60,
            "name": "C4",
            "ticks": 16443,
            "time": 65.772,
            "velocity": 0.49606299212598426
          },
          {
            "duration": 0.3119999999999976,
            "durationTicks": 78,
            "midi": 63,
            "name": "D#4",
            "ticks": 16803,
            "time": 67.212,
            "velocity": 0.4645669291338583
          },
          {
            "duration": 0.3160000000000025,
            "durationTicks": 79,
            "midi": 65,
            "name": "F4",
            "ticks": 16803,
            "time": 67.212,
            "velocity": 0.5039370078740157
          },
          {
            "duration": 0.2879999999999967,
            "durationTicks": 72,
            "midi": 60,
            "name": "C4",
            "ticks": 16804,
            "time": 67.216,
            "velocity": 0.4645669291338583
          },
          {
            "duration": 0.06799999999999784,
            "durationTicks": 17,
            "midi": 65,
            "name": "F4",
            "ticks": 16895,
            "time": 67.58,
            "velocity": 0.47244094488188976
          },
          {
            "duration": 0.07200000000000273,
            "durationTicks": 18,
            "midi": 60,
            "name": "C4",
            "ticks": 16895,
            "time": 67.58,
            "velocity": 0.4330708661417323
          },
          {
            "duration": 0.06400000000000716,
            "durationTicks": 16,
            "midi": 63,
            "name": "D#4",
            "ticks": 16895,
            "time": 67.58,
            "velocity": 0.44881889763779526
          },
          {
            "duration": 0.11199999999998056,
            "durationTicks": 28,
            "midi": 63,
            "name": "D#4",
            "ticks": 16923,
            "time": 67.69200000000001,
            "velocity": 0.5118110236220472
          },
          {
            "duration": 0.11199999999998056,
            "durationTicks": 28,
            "midi": 65,
            "name": "F4",
            "ticks": 16923,
            "time": 67.69200000000001,
            "velocity": 0.4881889763779528
          },
          {
            "duration": 0.1039999999999992,
            "durationTicks": 26,
            "midi": 60,
            "name": "C4",
            "ticks": 16923,
            "time": 67.69200000000001,
            "velocity": 0.49606299212598426
          },
          {
            "duration": 0.3119999999999976,
            "durationTicks": 78,
            "midi": 63,
            "name": "D#4",
            "ticks": 17283,
            "time": 69.132,
            "velocity": 0.4645669291338583
          },
          {
            "duration": 0.3159999999999883,
            "durationTicks": 79,
            "midi": 65,
            "name": "F4",
            "ticks": 17283,
            "time": 69.132,
            "velocity": 0.5039370078740157
          },
          {
            "duration": 0.2879999999999967,
            "durationTicks": 72,
            "midi": 60,
            "name": "C4",
            "ticks": 17284,
            "time": 69.136,
            "velocity": 0.4645669291338583
          },
          {
            "duration": 0.06800000000001205,
            "durationTicks": 17,
            "midi": 65,
            "name": "F4",
            "ticks": 17375,
            "time": 69.49999999999999,
            "velocity": 0.47244094488188976
          },
          {
            "duration": 0.07200000000000273,
            "durationTicks": 18,
            "midi": 60,
            "name": "C4",
            "ticks": 17375,
            "time": 69.49999999999999,
            "velocity": 0.4330708661417323
          },
          {
            "duration": 0.06400000000002137,
            "durationTicks": 16,
            "midi": 63,
            "name": "D#4",
            "ticks": 17375,
            "time": 69.49999999999999,
            "velocity": 0.44881889763779526
          },
          {
            "duration": 0.11199999999999477,
            "durationTicks": 28,
            "midi": 63,
            "name": "D#4",
            "ticks": 17403,
            "time": 69.612,
            "velocity": 0.5118110236220472
          },
          {
            "duration": 0.11199999999999477,
            "durationTicks": 28,
            "midi": 65,
            "name": "F4",
            "ticks": 17403,
            "time": 69.612,
            "velocity": 0.4881889763779528
          },
          {
            "duration": 0.1039999999999992,
            "durationTicks": 26,
            "midi": 60,
            "name": "C4",
            "ticks": 17403,
            "time": 69.612,
            "velocity": 0.49606299212598426
          },
          {
            "duration": 0.3119999999999976,
            "durationTicks": 78,
            "midi": 63,
            "name": "D#4",
            "ticks": 17763,
            "time": 71.052,
            "velocity": 0.4645669291338583
          },
          {
            "duration": 0.3159999999999883,
            "durationTicks": 79,
            "midi": 65,
            "name": "F4",
            "ticks": 17763,
            "time": 71.052,
            "velocity": 0.5039370078740157
          },
          {
            "duration": 0.2879999999999967,
            "durationTicks": 72,
            "midi": 60,
            "name": "C4",
            "ticks": 17764,
            "time": 71.056,
            "velocity": 0.4645669291338583
          },
          {
            "duration": 0.06800000000001205,
            "durationTicks": 17,
            "midi": 65,
            "name": "F4",
            "ticks": 17855,
            "time": 71.41999999999999,
            "velocity": 0.47244094488188976
          },
          {
            "duration": 0.07200000000000273,
            "durationTicks": 18,
            "midi": 60,
            "name": "C4",
            "ticks": 17855,
            "time": 71.41999999999999,
            "velocity": 0.4330708661417323
          },
          {
            "duration": 0.06400000000002137,
            "durationTicks": 16,
            "midi": 63,
            "name": "D#4",
            "ticks": 17855,
            "time": 71.41999999999999,
            "velocity": 0.44881889763779526
          },
          {
            "duration": 0.11199999999999477,
            "durationTicks": 28,
            "midi": 63,
            "name": "D#4",
            "ticks": 17883,
            "time": 71.532,
            "velocity": 0.5118110236220472
          },
          {
            "duration": 0.11199999999999477,
            "durationTicks": 28,
            "midi": 65,
            "name": "F4",
            "ticks": 17883,
            "time": 71.532,
            "velocity": 0.4881889763779528
          },
          {
            "duration": 0.1039999999999992,
            "durationTicks": 26,
            "midi": 60,
            "name": "C4",
            "ticks": 17883,
            "time": 71.532,
            "velocity": 0.49606299212598426
          },
          {
            "duration": 0.3120000000000118,
            "durationTicks": 78,
            "midi": 63,
            "name": "D#4",
            "ticks": 18243,
            "time": 72.972,
            "velocity": 0.4645669291338583
          },
          {
            "duration": 0.3160000000000025,
            "durationTicks": 79,
            "midi": 65,
            "name": "F4",
            "ticks": 18243,
            "time": 72.972,
            "velocity": 0.5039370078740157
          },
          {
            "duration": 0.2879999999999967,
            "durationTicks": 72,
            "midi": 60,
            "name": "C4",
            "ticks": 18244,
            "time": 72.976,
            "velocity": 0.4645669291338583
          },
          {
            "duration": 0.06800000000001205,
            "durationTicks": 17,
            "midi": 65,
            "name": "F4",
            "ticks": 18335,
            "time": 73.33999999999999,
            "velocity": 0.47244094488188976
          },
          {
            "duration": 0.07200000000000273,
            "durationTicks": 18,
            "midi": 60,
            "name": "C4",
            "ticks": 18335,
            "time": 73.33999999999999,
            "velocity": 0.4330708661417323
          },
          {
            "duration": 0.06400000000000716,
            "durationTicks": 16,
            "midi": 63,
            "name": "D#4",
            "ticks": 18335,
            "time": 73.33999999999999,
            "velocity": 0.44881889763779526
          },
          {
            "duration": 0.11199999999999477,
            "durationTicks": 28,
            "midi": 63,
            "name": "D#4",
            "ticks": 18363,
            "time": 73.452,
            "velocity": 0.5118110236220472
          },
          {
            "duration": 0.11199999999999477,
            "durationTicks": 28,
            "midi": 65,
            "name": "F4",
            "ticks": 18363,
            "time": 73.452,
            "velocity": 0.4881889763779528
          },
          {
            "duration": 0.1039999999999992,
            "durationTicks": 26,
            "midi": 60,
            "name": "C4",
            "ticks": 18363,
            "time": 73.452,
            "velocity": 0.49606299212598426
          },
          {
            "duration": 0.3120000000000118,
            "durationTicks": 78,
            "midi": 63,
            "name": "D#4",
            "ticks": 18723,
            "time": 74.892,
            "velocity": 0.4645669291338583
          },
          {
            "duration": 0.3160000000000025,
            "durationTicks": 79,
            "midi": 65,
            "name": "F4",
            "ticks": 18723,
            "time": 74.892,
            "velocity": 0.5039370078740157
          },
          {
            "duration": 0.2879999999999967,
            "durationTicks": 72,
            "midi": 60,
            "name": "C4",
            "ticks": 18724,
            "time": 74.896,
            "velocity": 0.4645669291338583
          },
          {
            "duration": 0.06800000000001205,
            "durationTicks": 17,
            "midi": 65,
            "name": "F4",
            "ticks": 18815,
            "time": 75.25999999999999,
            "velocity": 0.47244094488188976
          },
          {
            "duration": 0.07200000000000273,
            "durationTicks": 18,
            "midi": 60,
            "name": "C4",
            "ticks": 18815,
            "time": 75.25999999999999,
            "velocity": 0.4330708661417323
          },
          {
            "duration": 0.06400000000000716,
            "durationTicks": 16,
            "midi": 63,
            "name": "D#4",
            "ticks": 18815,
            "time": 75.25999999999999,
            "velocity": 0.44881889763779526
          },
          {
            "duration": 0.11199999999999477,
            "durationTicks": 28,
            "midi": 63,
            "name": "D#4",
            "ticks": 18843,
            "time": 75.372,
            "velocity": 0.5118110236220472
          },
          {
            "duration": 0.11199999999999477,
            "durationTicks": 28,
            "midi": 65,
            "name": "F4",
            "ticks": 18843,
            "time": 75.372,
            "velocity": 0.4881889763779528
          },
          {
            "duration": 0.1039999999999992,
            "durationTicks": 26,
            "midi": 60,
            "name": "C4",
            "ticks": 18843,
            "time": 75.372,
            "velocity": 0.49606299212598426
          },
          {
            "duration": 0.3120000000000118,
            "durationTicks": 78,
            "midi": 63,
            "name": "D#4",
            "ticks": 19203,
            "time": 76.812,
            "velocity": 0.4645669291338583
          },
          {
            "duration": 0.3160000000000025,
            "durationTicks": 79,
            "midi": 65,
            "name": "F4",
            "ticks": 19203,
            "time": 76.812,
            "velocity": 0.5039370078740157
          },
          {
            "duration": 0.2879999999999967,
            "durationTicks": 72,
            "midi": 60,
            "name": "C4",
            "ticks": 19204,
            "time": 76.816,
            "velocity": 0.4645669291338583
          },
          {
            "duration": 0.06800000000001205,
            "durationTicks": 17,
            "midi": 65,
            "name": "F4",
            "ticks": 19295,
            "time": 77.17999999999999,
            "velocity": 0.47244094488188976
          },
          {
            "duration": 0.07200000000000273,
            "durationTicks": 18,
            "midi": 60,
            "name": "C4",
            "ticks": 19295,
            "time": 77.17999999999999,
            "velocity": 0.4330708661417323
          },
          {
            "duration": 0.06400000000000716,
            "durationTicks": 16,
            "midi": 63,
            "name": "D#4",
            "ticks": 19295,
            "time": 77.17999999999999,
            "velocity": 0.44881889763779526
          },
          {
            "duration": 0.11199999999999477,
            "durationTicks": 28,
            "midi": 63,
            "name": "D#4",
            "ticks": 19323,
            "time": 77.292,
            "velocity": 0.5118110236220472
          },
          {
            "duration": 0.11199999999999477,
            "durationTicks": 28,
            "midi": 65,
            "name": "F4",
            "ticks": 19323,
            "time": 77.292,
            "velocity": 0.4881889763779528
          },
          {
            "duration": 0.1039999999999992,
            "durationTicks": 26,
            "midi": 60,
            "name": "C4",
            "ticks": 19323,
            "time": 77.292,
            "velocity": 0.49606299212598426
          },
          {
            "duration": 0.3119999999999976,
            "durationTicks": 78,
            "midi": 63,
            "name": "D#4",
            "ticks": 19683,
            "time": 78.732,
            "velocity": 0.4645669291338583
          },
          {
            "duration": 0.3160000000000025,
            "durationTicks": 79,
            "midi": 65,
            "name": "F4",
            "ticks": 19683,
            "time": 78.732,
            "velocity": 0.5039370078740157
          },
          {
            "duration": 0.2879999999999967,
            "durationTicks": 72,
            "midi": 60,
            "name": "C4",
            "ticks": 19684,
            "time": 78.73599999999999,
            "velocity": 0.4645669291338583
          },
          {
            "duration": 0.06799999999999784,
            "durationTicks": 17,
            "midi": 65,
            "name": "F4",
            "ticks": 19775,
            "time": 79.1,
            "velocity": 0.47244094488188976
          },
          {
            "duration": 0.07200000000000273,
            "durationTicks": 18,
            "midi": 60,
            "name": "C4",
            "ticks": 19775,
            "time": 79.1,
            "velocity": 0.4330708661417323
          },
          {
            "duration": 0.06400000000000716,
            "durationTicks": 16,
            "midi": 63,
            "name": "D#4",
            "ticks": 19775,
            "time": 79.1,
            "velocity": 0.44881889763779526
          },
          {
            "duration": 0.11199999999999477,
            "durationTicks": 28,
            "midi": 63,
            "name": "D#4",
            "ticks": 19803,
            "time": 79.212,
            "velocity": 0.5118110236220472
          },
          {
            "duration": 0.11199999999999477,
            "durationTicks": 28,
            "midi": 65,
            "name": "F4",
            "ticks": 19803,
            "time": 79.212,
            "velocity": 0.4881889763779528
          },
          {
            "duration": 0.1039999999999992,
            "durationTicks": 26,
            "midi": 60,
            "name": "C4",
            "ticks": 19803,
            "time": 79.212,
            "velocity": 0.49606299212598426
          },
          {
            "duration": 0.3119999999999976,
            "durationTicks": 78,
            "midi": 63,
            "name": "D#4",
            "ticks": 20163,
            "time": 80.652,
            "velocity": 0.4645669291338583
          },
          {
            "duration": 0.3160000000000025,
            "durationTicks": 79,
            "midi": 65,
            "name": "F4",
            "ticks": 20163,
            "time": 80.652,
            "velocity": 0.5039370078740157
          },
          {
            "duration": 0.2879999999999967,
            "durationTicks": 72,
            "midi": 60,
            "name": "C4",
            "ticks": 20164,
            "time": 80.65599999999999,
            "velocity": 0.4645669291338583
          },
          {
            "duration": 0.06799999999999784,
            "durationTicks": 17,
            "midi": 65,
            "name": "F4",
            "ticks": 20255,
            "time": 81.02,
            "velocity": 0.47244094488188976
          },
          {
            "duration": 0.07200000000000273,
            "durationTicks": 18,
            "midi": 60,
            "name": "C4",
            "ticks": 20255,
            "time": 81.02,
            "velocity": 0.4330708661417323
          },
          {
            "duration": 0.06400000000000716,
            "durationTicks": 16,
            "midi": 63,
            "name": "D#4",
            "ticks": 20255,
            "time": 81.02,
            "velocity": 0.44881889763779526
          },
          {
            "duration": 0.11199999999999477,
            "durationTicks": 28,
            "midi": 63,
            "name": "D#4",
            "ticks": 20283,
            "time": 81.132,
            "velocity": 0.5118110236220472
          },
          {
            "duration": 0.11199999999999477,
            "durationTicks": 28,
            "midi": 65,
            "name": "F4",
            "ticks": 20283,
            "time": 81.132,
            "velocity": 0.4881889763779528
          },
          {
            "duration": 0.1039999999999992,
            "durationTicks": 26,
            "midi": 60,
            "name": "C4",
            "ticks": 20283,
            "time": 81.132,
            "velocity": 0.49606299212598426
          },
          {
            "duration": 0.3119999999999976,
            "durationTicks": 78,
            "midi": 63,
            "name": "D#4",
            "ticks": 20643,
            "time": 82.572,
            "velocity": 0.4645669291338583
          },
          {
            "duration": 0.3160000000000025,
            "durationTicks": 79,
            "midi": 65,
            "name": "F4",
            "ticks": 20643,
            "time": 82.572,
            "velocity": 0.5039370078740157
          },
          {
            "duration": 0.2879999999999967,
            "durationTicks": 72,
            "midi": 60,
            "name": "C4",
            "ticks": 20644,
            "time": 82.576,
            "velocity": 0.4645669291338583
          },
          {
            "duration": 0.06799999999999784,
            "durationTicks": 17,
            "midi": 65,
            "name": "F4",
            "ticks": 20735,
            "time": 82.94,
            "velocity": 0.47244094488188976
          },
          {
            "duration": 0.07200000000000273,
            "durationTicks": 18,
            "midi": 60,
            "name": "C4",
            "ticks": 20735,
            "time": 82.94,
            "velocity": 0.4330708661417323
          },
          {
            "duration": 0.06400000000000716,
            "durationTicks": 16,
            "midi": 63,
            "name": "D#4",
            "ticks": 20735,
            "time": 82.94,
            "velocity": 0.44881889763779526
          },
          {
            "duration": 0.11199999999998056,
            "durationTicks": 28,
            "midi": 63,
            "name": "D#4",
            "ticks": 20763,
            "time": 83.052,
            "velocity": 0.5118110236220472
          },
          {
            "duration": 0.11199999999998056,
            "durationTicks": 28,
            "midi": 65,
            "name": "F4",
            "ticks": 20763,
            "time": 83.052,
            "velocity": 0.4881889763779528
          },
          {
            "duration": 0.1039999999999992,
            "durationTicks": 26,
            "midi": 60,
            "name": "C4",
            "ticks": 20763,
            "time": 83.052,
            "velocity": 0.49606299212598426
          },
          {
            "duration": 0.3119999999999976,
            "durationTicks": 78,
            "midi": 63,
            "name": "D#4",
            "ticks": 21123,
            "time": 84.492,
            "velocity": 0.4645669291338583
          },
          {
            "duration": 0.3159999999999883,
            "durationTicks": 79,
            "midi": 65,
            "name": "F4",
            "ticks": 21123,
            "time": 84.492,
            "velocity": 0.5039370078740157
          },
          {
            "duration": 0.2879999999999967,
            "durationTicks": 72,
            "midi": 60,
            "name": "C4",
            "ticks": 21124,
            "time": 84.496,
            "velocity": 0.4645669291338583
          },
          {
            "duration": 0.06800000000001205,
            "durationTicks": 17,
            "midi": 65,
            "name": "F4",
            "ticks": 21215,
            "time": 84.85999999999999,
            "velocity": 0.47244094488188976
          },
          {
            "duration": 0.07200000000000273,
            "durationTicks": 18,
            "midi": 60,
            "name": "C4",
            "ticks": 21215,
            "time": 84.85999999999999,
            "velocity": 0.4330708661417323
          },
          {
            "duration": 0.06400000000002137,
            "durationTicks": 16,
            "midi": 63,
            "name": "D#4",
            "ticks": 21215,
            "time": 84.85999999999999,
            "velocity": 0.44881889763779526
          },
          {
            "duration": 0.11199999999999477,
            "durationTicks": 28,
            "midi": 63,
            "name": "D#4",
            "ticks": 21243,
            "time": 84.972,
            "velocity": 0.5118110236220472
          },
          {
            "duration": 0.11199999999999477,
            "durationTicks": 28,
            "midi": 65,
            "name": "F4",
            "ticks": 21243,
            "time": 84.972,
            "velocity": 0.4881889763779528
          },
          {
            "duration": 0.1039999999999992,
            "durationTicks": 26,
            "midi": 60,
            "name": "C4",
            "ticks": 21243,
            "time": 84.972,
            "velocity": 0.49606299212598426
          },
          {
            "duration": 0.3119999999999976,
            "durationTicks": 78,
            "midi": 63,
            "name": "D#4",
            "ticks": 21603,
            "time": 86.412,
            "velocity": 0.4645669291338583
          },
          {
            "duration": 0.3159999999999883,
            "durationTicks": 79,
            "midi": 65,
            "name": "F4",
            "ticks": 21603,
            "time": 86.412,
            "velocity": 0.5039370078740157
          },
          {
            "duration": 0.2879999999999967,
            "durationTicks": 72,
            "midi": 60,
            "name": "C4",
            "ticks": 21604,
            "time": 86.416,
            "velocity": 0.4645669291338583
          },
          {
            "duration": 0.06800000000001205,
            "durationTicks": 17,
            "midi": 65,
            "name": "F4",
            "ticks": 21695,
            "time": 86.77999999999999,
            "velocity": 0.47244094488188976
          },
          {
            "duration": 0.07200000000000273,
            "durationTicks": 18,
            "midi": 60,
            "name": "C4",
            "ticks": 21695,
            "time": 86.77999999999999,
            "velocity": 0.4330708661417323
          },
          {
            "duration": 0.06400000000002137,
            "durationTicks": 16,
            "midi": 63,
            "name": "D#4",
            "ticks": 21695,
            "time": 86.77999999999999,
            "velocity": 0.44881889763779526
          },
          {
            "duration": 0.11199999999999477,
            "durationTicks": 28,
            "midi": 63,
            "name": "D#4",
            "ticks": 21723,
            "time": 86.892,
            "velocity": 0.5118110236220472
          },
          {
            "duration": 0.11199999999999477,
            "durationTicks": 28,
            "midi": 65,
            "name": "F4",
            "ticks": 21723,
            "time": 86.892,
            "velocity": 0.4881889763779528
          },
          {
            "duration": 0.1039999999999992,
            "durationTicks": 26,
            "midi": 60,
            "name": "C4",
            "ticks": 21723,
            "time": 86.892,
            "velocity": 0.49606299212598426
          },
          {
            "duration": 0.3120000000000118,
            "durationTicks": 78,
            "midi": 63,
            "name": "D#4",
            "ticks": 22083,
            "time": 88.332,
            "velocity": 0.4645669291338583
          },
          {
            "duration": 0.3160000000000025,
            "durationTicks": 79,
            "midi": 65,
            "name": "F4",
            "ticks": 22083,
            "time": 88.332,
            "velocity": 0.5039370078740157
          },
          {
            "duration": 0.2879999999999967,
            "durationTicks": 72,
            "midi": 60,
            "name": "C4",
            "ticks": 22084,
            "time": 88.336,
            "velocity": 0.4645669291338583
          },
          {
            "duration": 0.06800000000001205,
            "durationTicks": 17,
            "midi": 65,
            "name": "F4",
            "ticks": 22175,
            "time": 88.69999999999999,
            "velocity": 0.47244094488188976
          },
          {
            "duration": 0.07200000000000273,
            "durationTicks": 18,
            "midi": 60,
            "name": "C4",
            "ticks": 22175,
            "time": 88.69999999999999,
            "velocity": 0.4330708661417323
          },
          {
            "duration": 0.06400000000000716,
            "durationTicks": 16,
            "midi": 63,
            "name": "D#4",
            "ticks": 22175,
            "time": 88.69999999999999,
            "velocity": 0.44881889763779526
          },
          {
            "duration": 0.11199999999999477,
            "durationTicks": 28,
            "midi": 63,
            "name": "D#4",
            "ticks": 22203,
            "time": 88.812,
            "velocity": 0.5118110236220472
          },
          {
            "duration": 0.11199999999999477,
            "durationTicks": 28,
            "midi": 65,
            "name": "F4",
            "ticks": 22203,
            "time": 88.812,
            "velocity": 0.4881889763779528
          },
          {
            "duration": 0.1039999999999992,
            "durationTicks": 26,
            "midi": 60,
            "name": "C4",
            "ticks": 22203,
            "time": 88.812,
            "velocity": 0.49606299212598426
          },
          {
            "duration": 0.3120000000000118,
            "durationTicks": 78,
            "midi": 63,
            "name": "D#4",
            "ticks": 22563,
            "time": 90.252,
            "velocity": 0.4645669291338583
          },
          {
            "duration": 0.3160000000000025,
            "durationTicks": 79,
            "midi": 65,
            "name": "F4",
            "ticks": 22563,
            "time": 90.252,
            "velocity": 0.5039370078740157
          },
          {
            "duration": 0.2879999999999967,
            "durationTicks": 72,
            "midi": 60,
            "name": "C4",
            "ticks": 22564,
            "time": 90.256,
            "velocity": 0.4645669291338583
          },
          {
            "duration": 0.06800000000001205,
            "durationTicks": 17,
            "midi": 65,
            "name": "F4",
            "ticks": 22655,
            "time": 90.61999999999999,
            "velocity": 0.47244094488188976
          },
          {
            "duration": 0.07200000000000273,
            "durationTicks": 18,
            "midi": 60,
            "name": "C4",
            "ticks": 22655,
            "time": 90.61999999999999,
            "velocity": 0.4330708661417323
          },
          {
            "duration": 0.06400000000000716,
            "durationTicks": 16,
            "midi": 63,
            "name": "D#4",
            "ticks": 22655,
            "time": 90.61999999999999,
            "velocity": 0.44881889763779526
          },
          {
            "duration": 0.11199999999999477,
            "durationTicks": 28,
            "midi": 63,
            "name": "D#4",
            "ticks": 22683,
            "time": 90.732,
            "velocity": 0.5118110236220472
          },
          {
            "duration": 0.11199999999999477,
            "durationTicks": 28,
            "midi": 65,
            "name": "F4",
            "ticks": 22683,
            "time": 90.732,
            "velocity": 0.4881889763779528
          },
          {
            "duration": 0.1039999999999992,
            "durationTicks": 26,
            "midi": 60,
            "name": "C4",
            "ticks": 22683,
            "time": 90.732,
            "velocity": 0.49606299212598426
          },
          {
            "duration": 0.3120000000000118,
            "durationTicks": 78,
            "midi": 63,
            "name": "D#4",
            "ticks": 23043,
            "time": 92.172,
            "velocity": 0.4645669291338583
          },
          {
            "duration": 0.3160000000000025,
            "durationTicks": 79,
            "midi": 65,
            "name": "F4",
            "ticks": 23043,
            "time": 92.172,
            "velocity": 0.5039370078740157
          },
          {
            "duration": 0.2879999999999967,
            "durationTicks": 72,
            "midi": 60,
            "name": "C4",
            "ticks": 23044,
            "time": 92.176,
            "velocity": 0.4645669291338583
          },
          {
            "duration": 0.06800000000001205,
            "durationTicks": 17,
            "midi": 65,
            "name": "F4",
            "ticks": 23135,
            "time": 92.53999999999999,
            "velocity": 0.47244094488188976
          },
          {
            "duration": 0.07200000000000273,
            "durationTicks": 18,
            "midi": 60,
            "name": "C4",
            "ticks": 23135,
            "time": 92.53999999999999,
            "velocity": 0.4330708661417323
          },
          {
            "duration": 0.06400000000000716,
            "durationTicks": 16,
            "midi": 63,
            "name": "D#4",
            "ticks": 23135,
            "time": 92.53999999999999,
            "velocity": 0.44881889763779526
          },
          {
            "duration": 0.11199999999999477,
            "durationTicks": 28,
            "midi": 63,
            "name": "D#4",
            "ticks": 23163,
            "time": 92.652,
            "velocity": 0.5118110236220472
          },
          {
            "duration": 0.11199999999999477,
            "durationTicks": 28,
            "midi": 65,
            "name": "F4",
            "ticks": 23163,
            "time": 92.652,
            "velocity": 0.4881889763779528
          },
          {
            "duration": 0.1039999999999992,
            "durationTicks": 26,
            "midi": 60,
            "name": "C4",
            "ticks": 23163,
            "time": 92.652,
            "velocity": 0.49606299212598426
          },
          {
            "duration": 0.3119999999999976,
            "durationTicks": 78,
            "midi": 63,
            "name": "D#4",
            "ticks": 23523,
            "time": 94.092,
            "velocity": 0.4645669291338583
          },
          {
            "duration": 0.3160000000000025,
            "durationTicks": 79,
            "midi": 65,
            "name": "F4",
            "ticks": 23523,
            "time": 94.092,
            "velocity": 0.5039370078740157
          },
          {
            "duration": 0.2879999999999967,
            "durationTicks": 72,
            "midi": 60,
            "name": "C4",
            "ticks": 23524,
            "time": 94.09599999999999,
            "velocity": 0.4645669291338583
          },
          {
            "duration": 0.06799999999999784,
            "durationTicks": 17,
            "midi": 65,
            "name": "F4",
            "ticks": 23615,
            "time": 94.46,
            "velocity": 0.47244094488188976
          },
          {
            "duration": 0.07200000000000273,
            "durationTicks": 18,
            "midi": 60,
            "name": "C4",
            "ticks": 23615,
            "time": 94.46,
            "velocity": 0.4330708661417323
          },
          {
            "duration": 0.06400000000000716,
            "durationTicks": 16,
            "midi": 63,
            "name": "D#4",
            "ticks": 23615,
            "time": 94.46,
            "velocity": 0.44881889763779526
          },
          {
            "duration": 0.11199999999999477,
            "durationTicks": 28,
            "midi": 63,
            "name": "D#4",
            "ticks": 23643,
            "time": 94.572,
            "velocity": 0.5118110236220472
          },
          {
            "duration": 0.11199999999999477,
            "durationTicks": 28,
            "midi": 65,
            "name": "F4",
            "ticks": 23643,
            "time": 94.572,
            "velocity": 0.4881889763779528
          },
          {
            "duration": 0.1039999999999992,
            "durationTicks": 26,
            "midi": 60,
            "name": "C4",
            "ticks": 23643,
            "time": 94.572,
            "velocity": 0.49606299212598426
          },
          {
            "duration": 0.09599999999998943,
            "durationTicks": 24,
            "midi": 63,
            "name": "D#4",
            "ticks": 24000,
            "time": 96,
            "velocity": 0.4566929133858268
          },
          {
            "duration": 0.09999999999999432,
            "durationTicks": 25,
            "midi": 65,
            "name": "F4",
            "ticks": 24000,
            "time": 96,
            "velocity": 0.49606299212598426
          },
          {
            "duration": 0.08799999999999386,
            "durationTicks": 22,
            "midi": 60,
            "name": "C4",
            "ticks": 24000,
            "time": 96,
            "velocity": 0.4566929133858268
          },
          {
            "duration": 0.09999999999999432,
            "durationTicks": 25,
            "midi": 69,
            "name": "A4",
            "ticks": 24000,
            "time": 96,
            "velocity": 0.4645669291338583
          },
          {
            "duration": 0.12400000000000944,
            "durationTicks": 31,
            "midi": 60,
            "name": "C4",
            "ticks": 24030,
            "time": 96.11999999999999,
            "velocity": 0.4645669291338583
          },
          {
            "duration": 0.12400000000000944,
            "durationTicks": 31,
            "midi": 65,
            "name": "F4",
            "ticks": 24030,
            "time": 96.11999999999999,
            "velocity": 0.5275590551181102
          },
          {
            "duration": 0.12000000000000455,
            "durationTicks": 30,
            "midi": 63,
            "name": "D#4",
            "ticks": 24030,
            "time": 96.11999999999999,
            "velocity": 0.48031496062992124
          },
          {
            "duration": 0.12400000000000944,
            "durationTicks": 31,
            "midi": 69,
            "name": "A4",
            "ticks": 24030,
            "time": 96.11999999999999,
            "velocity": 0.4645669291338583
          },
          {
            "duration": 0.12399999999999523,
            "durationTicks": 31,
            "midi": 65,
            "name": "F4",
            "ticks": 24090,
            "time": 96.36,
            "velocity": 0.4881889763779528
          },
          {
            "duration": 0.11199999999999477,
            "durationTicks": 28,
            "midi": 60,
            "name": "C4",
            "ticks": 24090,
            "time": 96.36,
            "velocity": 0.4645669291338583
          },
          {
            "duration": 0.1039999999999992,
            "durationTicks": 26,
            "midi": 69,
            "name": "A4",
            "ticks": 24090,
            "time": 96.36,
            "velocity": 0.4645669291338583
          },
          {
            "duration": 0.11599999999999966,
            "durationTicks": 29,
            "midi": 63,
            "name": "D#4",
            "ticks": 24090,
            "time": 96.36,
            "velocity": 0.47244094488188976
          },
          {
            "duration": 0.10000000000000853,
            "durationTicks": 25,
            "midi": 60,
            "name": "C4",
            "ticks": 24150,
            "time": 96.6,
            "velocity": 0.4881889763779528
          },
          {
            "duration": 0.10000000000000853,
            "durationTicks": 25,
            "midi": 69,
            "name": "A4",
            "ticks": 24150,
            "time": 96.6,
            "velocity": 0.47244094488188976
          },
          {
            "duration": 0.12800000000001432,
            "durationTicks": 32,
            "midi": 65,
            "name": "F4",
            "ticks": 24150,
            "time": 96.6,
            "velocity": 0.49606299212598426
          },
          {
            "duration": 0.1039999999999992,
            "durationTicks": 26,
            "midi": 63,
            "name": "D#4",
            "ticks": 24150,
            "time": 96.6,
            "velocity": 0.5433070866141733
          },
          {
            "duration": 0.06399999999999295,
            "durationTicks": 16,
            "midi": 60,
            "name": "C4",
            "ticks": 24210,
            "time": 96.84,
            "velocity": 0.3937007874015748
          },
          {
            "duration": 0.06799999999999784,
            "durationTicks": 17,
            "midi": 63,
            "name": "D#4",
            "ticks": 24210,
            "time": 96.84,
            "velocity": 0.44881889763779526
          },
          {
            "duration": 0.06399999999999295,
            "durationTicks": 16,
            "midi": 69,
            "name": "A4",
            "ticks": 24210,
            "time": 96.84,
            "velocity": 0.4015748031496063
          },
          {
            "duration": 0.07200000000000273,
            "durationTicks": 18,
            "midi": 65,
            "name": "F4",
            "ticks": 24210,
            "time": 96.84,
            "velocity": 0.4566929133858268
          },
          {
            "duration": 0.12800000000001432,
            "durationTicks": 32,
            "midi": 69,
            "name": "A4",
            "ticks": 24240,
            "time": 96.96,
            "velocity": 0.5275590551181102
          },
          {
            "duration": 0.14000000000000057,
            "durationTicks": 35,
            "midi": 65,
            "name": "F4",
            "ticks": 24240,
            "time": 96.96,
            "velocity": 0.6614173228346457
          },
          {
            "duration": 0.13599999999999568,
            "durationTicks": 34,
            "midi": 60,
            "name": "C4",
            "ticks": 24240,
            "time": 96.96,
            "velocity": 0.5669291338582677
          },
          {
            "duration": 0.12800000000001432,
            "durationTicks": 32,
            "midi": 63,
            "name": "D#4",
            "ticks": 24240,
            "time": 96.96,
            "velocity": 0.6614173228346457
          },
          {
            "duration": 0.08400000000000318,
            "durationTicks": 21,
            "midi": 65,
            "name": "F4",
            "ticks": 24960,
            "time": 99.84,
            "velocity": 0.49606299212598426
          },
          {
            "duration": 0.0759999999999934,
            "durationTicks": 19,
            "midi": 63,
            "name": "D#4",
            "ticks": 24960,
            "time": 99.84,
            "velocity": 0.47244094488188976
          },
          {
            "duration": 0.08400000000000318,
            "durationTicks": 21,
            "midi": 60,
            "name": "C4",
            "ticks": 24960,
            "time": 99.84,
            "velocity": 0.4881889763779528
          },
          {
            "duration": 0.2639999999999958,
            "durationTicks": 66,
            "midi": 69,
            "name": "A4",
            "ticks": 24960,
            "time": 99.84,
            "velocity": 0.47244094488188976
          },
          {
            "duration": 0.12000000000000455,
            "durationTicks": 30,
            "midi": 63,
            "name": "D#4",
            "ticks": 24990,
            "time": 99.96,
            "velocity": 0.47244094488188976
          },
          {
            "duration": 0.11199999999999477,
            "durationTicks": 28,
            "midi": 60,
            "name": "C4",
            "ticks": 24990,
            "time": 99.96,
            "velocity": 0.4566929133858268
          },
          {
            "duration": 0.13599999999999568,
            "durationTicks": 34,
            "midi": 65,
            "name": "F4",
            "ticks": 24990,
            "time": 99.96,
            "velocity": 0.49606299212598426
          },
          {
            "duration": 0.12399999999999523,
            "durationTicks": 31,
            "midi": 69,
            "name": "A4",
            "ticks": 25050,
            "time": 100.2,
            "velocity": 0.4881889763779528
          },
          {
            "duration": 0.1280000000000001,
            "durationTicks": 32,
            "midi": 60,
            "name": "C4",
            "ticks": 25050,
            "time": 100.2,
            "velocity": 0.47244094488188976
          },
          {
            "duration": 0.11999999999999034,
            "durationTicks": 30,
            "midi": 63,
            "name": "D#4",
            "ticks": 25050,
            "time": 100.2,
            "velocity": 0.47244094488188976
          },
          {
            "duration": 0.14400000000000546,
            "durationTicks": 36,
            "midi": 65,
            "name": "F4",
            "ticks": 25050,
            "time": 100.2,
            "velocity": 0.4881889763779528
          },
          {
            "duration": 0.1039999999999992,
            "durationTicks": 26,
            "midi": 60,
            "name": "C4",
            "ticks": 25110,
            "time": 100.44,
            "velocity": 0.4566929133858268
          },
          {
            "duration": 0.12000000000000455,
            "durationTicks": 30,
            "midi": 65,
            "name": "F4",
            "ticks": 25110,
            "time": 100.44,
            "velocity": 0.47244094488188976
          },
          {
            "duration": 0.10799999999998988,
            "durationTicks": 27,
            "midi": 69,
            "name": "A4",
            "ticks": 25110,
            "time": 100.44,
            "velocity": 0.4645669291338583
          },
          {
            "duration": 0.10799999999998988,
            "durationTicks": 27,
            "midi": 63,
            "name": "D#4",
            "ticks": 25110,
            "time": 100.44,
            "velocity": 0.4645669291338583
          },
          {
            "duration": 0.0519999999999925,
            "durationTicks": 13,
            "midi": 69,
            "name": "A4",
            "ticks": 25170,
            "time": 100.67999999999999,
            "velocity": 0.4330708661417323
          },
          {
            "duration": 0.056000000000011596,
            "durationTicks": 14,
            "midi": 60,
            "name": "C4",
            "ticks": 25170,
            "time": 100.67999999999999,
            "velocity": 0.4330708661417323
          },
          {
            "duration": 0.06399999999999295,
            "durationTicks": 16,
            "midi": 65,
            "name": "F4",
            "ticks": 25170,
            "time": 100.67999999999999,
            "velocity": 0.4645669291338583
          },
          {
            "duration": 0.056000000000011596,
            "durationTicks": 14,
            "midi": 63,
            "name": "D#4",
            "ticks": 25170,
            "time": 100.67999999999999,
            "velocity": 0.4645669291338583
          },
          {
            "duration": 0.12000000000000455,
            "durationTicks": 30,
            "midi": 65,
            "name": "F4",
            "ticks": 25200,
            "time": 100.8,
            "velocity": 0.6614173228346457
          },
          {
            "duration": 0.11199999999999477,
            "durationTicks": 28,
            "midi": 63,
            "name": "D#4",
            "ticks": 25200,
            "time": 100.8,
            "velocity": 0.6614173228346457
          },
          {
            "duration": 0.1280000000000001,
            "durationTicks": 32,
            "midi": 60,
            "name": "C4",
            "ticks": 25200,
            "time": 100.8,
            "velocity": 0.5826771653543307
          },
          {
            "duration": 0.12399999999999523,
            "durationTicks": 31,
            "midi": 69,
            "name": "A4",
            "ticks": 25200,
            "time": 100.8,
            "velocity": 0.5275590551181102
          },
          {
            "duration": 0.08400000000000318,
            "durationTicks": 21,
            "midi": 65,
            "name": "F4",
            "ticks": 25920,
            "time": 103.67999999999999,
            "velocity": 0.48031496062992124
          },
          {
            "duration": 0.0799999999999983,
            "durationTicks": 20,
            "midi": 60,
            "name": "C4",
            "ticks": 25920,
            "time": 103.67999999999999,
            "velocity": 0.4645669291338583
          },
          {
            "duration": 0.06800000000001205,
            "durationTicks": 17,
            "midi": 63,
            "name": "D#4",
            "ticks": 25920,
            "time": 103.67999999999999,
            "velocity": 0.4566929133858268
          },
          {
            "duration": 0.10000000000000853,
            "durationTicks": 25,
            "midi": 69,
            "name": "A4",
            "ticks": 25920,
            "time": 103.67999999999999,
            "velocity": 0.4330708661417323
          },
          {
            "duration": 0.12399999999999523,
            "durationTicks": 31,
            "midi": 65,
            "name": "F4",
            "ticks": 25950,
            "time": 103.8,
            "velocity": 0.48031496062992124
          },
          {
            "duration": 0.11199999999999477,
            "durationTicks": 28,
            "midi": 63,
            "name": "D#4",
            "ticks": 25950,
            "time": 103.8,
            "velocity": 0.4645669291338583
          },
          {
            "duration": 0.11199999999999477,
            "durationTicks": 28,
            "midi": 60,
            "name": "C4",
            "ticks": 25950,
            "time": 103.8,
            "velocity": 0.4330708661417323
          },
          {
            "duration": 0.12399999999999523,
            "durationTicks": 31,
            "midi": 69,
            "name": "A4",
            "ticks": 25950,
            "time": 103.8,
            "velocity": 0.4015748031496063
          },
          {
            "duration": 0.10800000000000409,
            "durationTicks": 27,
            "midi": 60,
            "name": "C4",
            "ticks": 26010,
            "time": 104.03999999999999,
            "velocity": 0.4566929133858268
          },
          {
            "duration": 0.10800000000000409,
            "durationTicks": 27,
            "midi": 69,
            "name": "A4",
            "ticks": 26010,
            "time": 104.03999999999999,
            "velocity": 0.4566929133858268
          },
          {
            "duration": 0.12000000000000455,
            "durationTicks": 30,
            "midi": 65,
            "name": "F4",
            "ticks": 26010,
            "time": 104.03999999999999,
            "velocity": 0.4645669291338583
          },
          {
            "duration": 0.10000000000000853,
            "durationTicks": 25,
            "midi": 63,
            "name": "D#4",
            "ticks": 26010,
            "time": 104.03999999999999,
            "velocity": 0.4566929133858268
          },
          {
            "duration": 0.09199999999999875,
            "durationTicks": 23,
            "midi": 60,
            "name": "C4",
            "ticks": 26070,
            "time": 104.28,
            "velocity": 0.47244094488188976
          },
          {
            "duration": 0.07999999999998408,
            "durationTicks": 20,
            "midi": 63,
            "name": "D#4",
            "ticks": 26070,
            "time": 104.28,
            "velocity": 0.49606299212598426
          },
          {
            "duration": 0.11199999999999477,
            "durationTicks": 28,
            "midi": 65,
            "name": "F4",
            "ticks": 26070,
            "time": 104.28,
            "velocity": 0.4645669291338583
          },
          {
            "duration": 0.09599999999998943,
            "durationTicks": 24,
            "midi": 69,
            "name": "A4",
            "ticks": 26070,
            "time": 104.28,
            "velocity": 0.47244094488188976
          },
          {
            "duration": 0.04399999999999693,
            "durationTicks": 11,
            "midi": 69,
            "name": "A4",
            "ticks": 26130,
            "time": 104.52,
            "velocity": 0.3779527559055118
          },
          {
            "duration": 0.04399999999999693,
            "durationTicks": 11,
            "midi": 60,
            "name": "C4",
            "ticks": 26130,
            "time": 104.52,
            "velocity": 0.4094488188976378
          },
          {
            "duration": 0.0519999999999925,
            "durationTicks": 13,
            "midi": 63,
            "name": "D#4",
            "ticks": 26130,
            "time": 104.52,
            "velocity": 0.4566929133858268
          },
          {
            "duration": 0.0519999999999925,
            "durationTicks": 13,
            "midi": 65,
            "name": "F4",
            "ticks": 26130,
            "time": 104.52,
            "velocity": 0.41732283464566927
          },
          {
            "duration": 0.11999999999999034,
            "durationTicks": 30,
            "midi": 60,
            "name": "C4",
            "ticks": 26160,
            "time": 104.64,
            "velocity": 0.47244094488188976
          },
          {
            "duration": 0.10799999999998988,
            "durationTicks": 27,
            "midi": 63,
            "name": "D#4",
            "ticks": 26160,
            "time": 104.64,
            "velocity": 0.5669291338582677
          },
          {
            "duration": 0.11199999999999477,
            "durationTicks": 28,
            "midi": 65,
            "name": "F4",
            "ticks": 26160,
            "time": 104.64,
            "velocity": 0.5669291338582677
          },
          {
            "duration": 0.11199999999999477,
            "durationTicks": 28,
            "midi": 69,
            "name": "A4",
            "ticks": 26160,
            "time": 104.64,
            "velocity": 0.4645669291338583
          },
          {
            "duration": 0.08400000000000318,
            "durationTicks": 21,
            "midi": 60,
            "name": "C4",
            "ticks": 26880,
            "time": 107.52,
            "velocity": 0.4409448818897638
          },
          {
            "duration": 0.0759999999999934,
            "durationTicks": 19,
            "midi": 65,
            "name": "F4",
            "ticks": 26880,
            "time": 107.52,
            "velocity": 0.4881889763779528
          },
          {
            "duration": 0.06800000000001205,
            "durationTicks": 17,
            "midi": 63,
            "name": "D#4",
            "ticks": 26880,
            "time": 107.52,
            "velocity": 0.4251968503937008
          },
          {
            "duration": 0.23999999999999488,
            "durationTicks": 60,
            "midi": 69,
            "name": "A4",
            "ticks": 26880,
            "time": 107.52,
            "velocity": 0.44881889763779526
          },
          {
            "duration": 0.11999999999999034,
            "durationTicks": 30,
            "midi": 65,
            "name": "F4",
            "ticks": 26910,
            "time": 107.64,
            "velocity": 0.4645669291338583
          },
          {
            "duration": 0.11199999999999477,
            "durationTicks": 28,
            "midi": 63,
            "name": "D#4",
            "ticks": 26910,
            "time": 107.64,
            "velocity": 0.4566929133858268
          },
          {
            "duration": 0.11599999999999966,
            "durationTicks": 29,
            "midi": 60,
            "name": "C4",
            "ticks": 26910,
            "time": 107.64,
            "velocity": 0.3937007874015748
          },
          {
            "duration": 0.10000000000000853,
            "durationTicks": 25,
            "midi": 69,
            "name": "A4",
            "ticks": 26970,
            "time": 107.88,
            "velocity": 0.47244094488188976
          },
          {
            "duration": 0.11199999999999477,
            "durationTicks": 28,
            "midi": 60,
            "name": "C4",
            "ticks": 26970,
            "time": 107.88,
            "velocity": 0.47244094488188976
          },
          {
            "duration": 0.11599999999999966,
            "durationTicks": 29,
            "midi": 65,
            "name": "F4",
            "ticks": 26970,
            "time": 107.88,
            "velocity": 0.4881889763779528
          },
          {
            "duration": 0.08800000000000807,
            "durationTicks": 22,
            "midi": 63,
            "name": "D#4",
            "ticks": 26970,
            "time": 107.88,
            "velocity": 0.4881889763779528
          },
          {
            "duration": 0.11199999999999477,
            "durationTicks": 28,
            "midi": 63,
            "name": "D#4",
            "ticks": 27030,
            "time": 108.11999999999999,
            "velocity": 0.4566929133858268
          },
          {
            "duration": 0.10000000000000853,
            "durationTicks": 25,
            "midi": 69,
            "name": "A4",
            "ticks": 27030,
            "time": 108.11999999999999,
            "velocity": 0.4645669291338583
          },
          {
            "duration": 0.10800000000000409,
            "durationTicks": 27,
            "midi": 60,
            "name": "C4",
            "ticks": 27030,
            "time": 108.11999999999999,
            "velocity": 0.4015748031496063
          },
          {
            "duration": 0.12399999999999523,
            "durationTicks": 31,
            "midi": 65,
            "name": "F4",
            "ticks": 27030,
            "time": 108.11999999999999,
            "velocity": 0.4251968503937008
          },
          {
            "duration": 0.031999999999996476,
            "durationTicks": 8,
            "midi": 69,
            "name": "A4",
            "ticks": 27090,
            "time": 108.36,
            "velocity": 0.3464566929133858
          },
          {
            "duration": 0.04399999999999693,
            "durationTicks": 11,
            "midi": 60,
            "name": "C4",
            "ticks": 27090,
            "time": 108.36,
            "velocity": 0.4330708661417323
          },
          {
            "duration": 0.06799999999999784,
            "durationTicks": 17,
            "midi": 65,
            "name": "F4",
            "ticks": 27090,
            "time": 108.36,
            "velocity": 0.47244094488188976
          },
          {
            "duration": 0.060000000000002274,
            "durationTicks": 15,
            "midi": 63,
            "name": "D#4",
            "ticks": 27090,
            "time": 108.36,
            "velocity": 0.4881889763779528
          },
          {
            "duration": 0.09199999999999875,
            "durationTicks": 23,
            "midi": 60,
            "name": "C4",
            "ticks": 27120,
            "time": 108.47999999999999,
            "velocity": 0.5118110236220472
          },
          {
            "duration": 0.09199999999999875,
            "durationTicks": 23,
            "midi": 63,
            "name": "D#4",
            "ticks": 27120,
            "time": 108.47999999999999,
            "velocity": 0.5669291338582677
          },
          {
            "duration": 0.09199999999999875,
            "durationTicks": 23,
            "midi": 65,
            "name": "F4",
            "ticks": 27120,
            "time": 108.47999999999999,
            "velocity": 0.5275590551181102
          },
          {
            "duration": 0.09199999999999875,
            "durationTicks": 23,
            "midi": 69,
            "name": "A4",
            "ticks": 27120,
            "time": 108.47999999999999,
            "velocity": 0.47244094488188976
          },
          {
            "duration": 0.3119999999999976,
            "durationTicks": 78,
            "midi": 63,
            "name": "D#4",
            "ticks": 27843,
            "time": 111.372,
            "velocity": 0.4645669291338583
          },
          {
            "duration": 0.3160000000000025,
            "durationTicks": 79,
            "midi": 65,
            "name": "F4",
            "ticks": 27843,
            "time": 111.372,
            "velocity": 0.5039370078740157
          },
          {
            "duration": 0.2879999999999967,
            "durationTicks": 72,
            "midi": 60,
            "name": "C4",
            "ticks": 27844,
            "time": 111.37599999999999,
            "velocity": 0.4645669291338583
          },
          {
            "duration": 0.06799999999999784,
            "durationTicks": 17,
            "midi": 65,
            "name": "F4",
            "ticks": 27935,
            "time": 111.74,
            "velocity": 0.47244094488188976
          },
          {
            "duration": 0.07200000000000273,
            "durationTicks": 18,
            "midi": 60,
            "name": "C4",
            "ticks": 27935,
            "time": 111.74,
            "velocity": 0.4330708661417323
          },
          {
            "duration": 0.06400000000000716,
            "durationTicks": 16,
            "midi": 63,
            "name": "D#4",
            "ticks": 27935,
            "time": 111.74,
            "velocity": 0.44881889763779526
          },
          {
            "duration": 0.11199999999999477,
            "durationTicks": 28,
            "midi": 63,
            "name": "D#4",
            "ticks": 27963,
            "time": 111.852,
            "velocity": 0.5118110236220472
          },
          {
            "duration": 0.11199999999999477,
            "durationTicks": 28,
            "midi": 65,
            "name": "F4",
            "ticks": 27963,
            "time": 111.852,
            "velocity": 0.4881889763779528
          },
          {
            "duration": 0.1039999999999992,
            "durationTicks": 26,
            "midi": 60,
            "name": "C4",
            "ticks": 27963,
            "time": 111.852,
            "velocity": 0.49606299212598426
          },
          {
            "duration": 0.3119999999999976,
            "durationTicks": 78,
            "midi": 63,
            "name": "D#4",
            "ticks": 28323,
            "time": 113.292,
            "velocity": 0.4645669291338583
          },
          {
            "duration": 0.3160000000000025,
            "durationTicks": 79,
            "midi": 65,
            "name": "F4",
            "ticks": 28323,
            "time": 113.292,
            "velocity": 0.5039370078740157
          },
          {
            "duration": 0.2879999999999967,
            "durationTicks": 72,
            "midi": 60,
            "name": "C4",
            "ticks": 28324,
            "time": 113.29599999999999,
            "velocity": 0.4645669291338583
          },
          {
            "duration": 0.06799999999999784,
            "durationTicks": 17,
            "midi": 65,
            "name": "F4",
            "ticks": 28415,
            "time": 113.66,
            "velocity": 0.47244094488188976
          },
          {
            "duration": 0.07200000000000273,
            "durationTicks": 18,
            "midi": 60,
            "name": "C4",
            "ticks": 28415,
            "time": 113.66,
            "velocity": 0.4330708661417323
          },
          {
            "duration": 0.06400000000000716,
            "durationTicks": 16,
            "midi": 63,
            "name": "D#4",
            "ticks": 28415,
            "time": 113.66,
            "velocity": 0.44881889763779526
          },
          {
            "duration": 0.11199999999998056,
            "durationTicks": 28,
            "midi": 63,
            "name": "D#4",
            "ticks": 28443,
            "time": 113.772,
            "velocity": 0.5118110236220472
          },
          {
            "duration": 0.11199999999998056,
            "durationTicks": 28,
            "midi": 65,
            "name": "F4",
            "ticks": 28443,
            "time": 113.772,
            "velocity": 0.4881889763779528
          },
          {
            "duration": 0.1039999999999992,
            "durationTicks": 26,
            "midi": 60,
            "name": "C4",
            "ticks": 28443,
            "time": 113.772,
            "velocity": 0.49606299212598426
          },
          {
            "duration": 0.3119999999999976,
            "durationTicks": 78,
            "midi": 63,
            "name": "D#4",
            "ticks": 28803,
            "time": 115.212,
            "velocity": 0.4645669291338583
          },
          {
            "duration": 0.3159999999999883,
            "durationTicks": 79,
            "midi": 65,
            "name": "F4",
            "ticks": 28803,
            "time": 115.212,
            "velocity": 0.5039370078740157
          },
          {
            "duration": 0.2879999999999967,
            "durationTicks": 72,
            "midi": 60,
            "name": "C4",
            "ticks": 28804,
            "time": 115.216,
            "velocity": 0.4645669291338583
          },
          {
            "duration": 0.06800000000001205,
            "durationTicks": 17,
            "midi": 65,
            "name": "F4",
            "ticks": 28895,
            "time": 115.57999999999998,
            "velocity": 0.47244094488188976
          },
          {
            "duration": 0.07200000000000273,
            "durationTicks": 18,
            "midi": 60,
            "name": "C4",
            "ticks": 28895,
            "time": 115.57999999999998,
            "velocity": 0.4330708661417323
          },
          {
            "duration": 0.06400000000002137,
            "durationTicks": 16,
            "midi": 63,
            "name": "D#4",
            "ticks": 28895,
            "time": 115.57999999999998,
            "velocity": 0.44881889763779526
          },
          {
            "duration": 0.11199999999999477,
            "durationTicks": 28,
            "midi": 63,
            "name": "D#4",
            "ticks": 28923,
            "time": 115.692,
            "velocity": 0.5118110236220472
          },
          {
            "duration": 0.11199999999999477,
            "durationTicks": 28,
            "midi": 65,
            "name": "F4",
            "ticks": 28923,
            "time": 115.692,
            "velocity": 0.4881889763779528
          },
          {
            "duration": 0.1039999999999992,
            "durationTicks": 26,
            "midi": 60,
            "name": "C4",
            "ticks": 28923,
            "time": 115.692,
            "velocity": 0.49606299212598426
          },
          {
            "duration": 0.3119999999999976,
            "durationTicks": 78,
            "midi": 63,
            "name": "D#4",
            "ticks": 29283,
            "time": 117.132,
            "velocity": 0.4645669291338583
          },
          {
            "duration": 0.3159999999999883,
            "durationTicks": 79,
            "midi": 65,
            "name": "F4",
            "ticks": 29283,
            "time": 117.132,
            "velocity": 0.5039370078740157
          },
          {
            "duration": 0.2879999999999967,
            "durationTicks": 72,
            "midi": 60,
            "name": "C4",
            "ticks": 29284,
            "time": 117.136,
            "velocity": 0.4645669291338583
          },
          {
            "duration": 0.06800000000001205,
            "durationTicks": 17,
            "midi": 65,
            "name": "F4",
            "ticks": 29375,
            "time": 117.49999999999999,
            "velocity": 0.47244094488188976
          },
          {
            "duration": 0.07200000000000273,
            "durationTicks": 18,
            "midi": 60,
            "name": "C4",
            "ticks": 29375,
            "time": 117.49999999999999,
            "velocity": 0.4330708661417323
          },
          {
            "duration": 0.06400000000002137,
            "durationTicks": 16,
            "midi": 63,
            "name": "D#4",
            "ticks": 29375,
            "time": 117.49999999999999,
            "velocity": 0.44881889763779526
          },
          {
            "duration": 0.11199999999999477,
            "durationTicks": 28,
            "midi": 63,
            "name": "D#4",
            "ticks": 29403,
            "time": 117.612,
            "velocity": 0.5118110236220472
          },
          {
            "duration": 0.11199999999999477,
            "durationTicks": 28,
            "midi": 65,
            "name": "F4",
            "ticks": 29403,
            "time": 117.612,
            "velocity": 0.4881889763779528
          },
          {
            "duration": 0.1039999999999992,
            "durationTicks": 26,
            "midi": 60,
            "name": "C4",
            "ticks": 29403,
            "time": 117.612,
            "velocity": 0.49606299212598426
          },
          {
            "duration": 0.3120000000000118,
            "durationTicks": 78,
            "midi": 63,
            "name": "D#4",
            "ticks": 29763,
            "time": 119.05199999999999,
            "velocity": 0.4645669291338583
          },
          {
            "duration": 0.3160000000000025,
            "durationTicks": 79,
            "midi": 65,
            "name": "F4",
            "ticks": 29763,
            "time": 119.05199999999999,
            "velocity": 0.5039370078740157
          },
          {
            "duration": 0.2879999999999967,
            "durationTicks": 72,
            "midi": 60,
            "name": "C4",
            "ticks": 29764,
            "time": 119.056,
            "velocity": 0.4645669291338583
          },
          {
            "duration": 0.06800000000001205,
            "durationTicks": 17,
            "midi": 65,
            "name": "F4",
            "ticks": 29855,
            "time": 119.41999999999999,
            "velocity": 0.47244094488188976
          },
          {
            "duration": 0.07200000000000273,
            "durationTicks": 18,
            "midi": 60,
            "name": "C4",
            "ticks": 29855,
            "time": 119.41999999999999,
            "velocity": 0.4330708661417323
          },
          {
            "duration": 0.06400000000000716,
            "durationTicks": 16,
            "midi": 63,
            "name": "D#4",
            "ticks": 29855,
            "time": 119.41999999999999,
            "velocity": 0.44881889763779526
          },
          {
            "duration": 0.11199999999999477,
            "durationTicks": 28,
            "midi": 63,
            "name": "D#4",
            "ticks": 29883,
            "time": 119.532,
            "velocity": 0.5118110236220472
          },
          {
            "duration": 0.11199999999999477,
            "durationTicks": 28,
            "midi": 65,
            "name": "F4",
            "ticks": 29883,
            "time": 119.532,
            "velocity": 0.4881889763779528
          },
          {
            "duration": 0.1039999999999992,
            "durationTicks": 26,
            "midi": 60,
            "name": "C4",
            "ticks": 29883,
            "time": 119.532,
            "velocity": 0.49606299212598426
          },
          {
            "duration": 0.3120000000000118,
            "durationTicks": 78,
            "midi": 63,
            "name": "D#4",
            "ticks": 30243,
            "time": 120.972,
            "velocity": 0.4645669291338583
          },
          {
            "duration": 0.3160000000000025,
            "durationTicks": 79,
            "midi": 65,
            "name": "F4",
            "ticks": 30243,
            "time": 120.972,
            "velocity": 0.5039370078740157
          },
          {
            "duration": 0.2879999999999967,
            "durationTicks": 72,
            "midi": 60,
            "name": "C4",
            "ticks": 30244,
            "time": 120.976,
            "velocity": 0.4645669291338583
          },
          {
            "duration": 0.06800000000001205,
            "durationTicks": 17,
            "midi": 65,
            "name": "F4",
            "ticks": 30335,
            "time": 121.33999999999999,
            "velocity": 0.47244094488188976
          },
          {
            "duration": 0.07200000000000273,
            "durationTicks": 18,
            "midi": 60,
            "name": "C4",
            "ticks": 30335,
            "time": 121.33999999999999,
            "velocity": 0.4330708661417323
          },
          {
            "duration": 0.06400000000000716,
            "durationTicks": 16,
            "midi": 63,
            "name": "D#4",
            "ticks": 30335,
            "time": 121.33999999999999,
            "velocity": 0.44881889763779526
          },
          {
            "duration": 0.11199999999999477,
            "durationTicks": 28,
            "midi": 63,
            "name": "D#4",
            "ticks": 30363,
            "time": 121.452,
            "velocity": 0.5118110236220472
          },
          {
            "duration": 0.11199999999999477,
            "durationTicks": 28,
            "midi": 65,
            "name": "F4",
            "ticks": 30363,
            "time": 121.452,
            "velocity": 0.4881889763779528
          },
          {
            "duration": 0.1039999999999992,
            "durationTicks": 26,
            "midi": 60,
            "name": "C4",
            "ticks": 30363,
            "time": 121.452,
            "velocity": 0.49606299212598426
          },
          {
            "duration": 0.31200000000002603,
            "durationTicks": 78,
            "midi": 63,
            "name": "D#4",
            "ticks": 30723,
            "time": 122.89199999999998,
            "velocity": 0.4645669291338583
          },
          {
            "duration": 0.3160000000000167,
            "durationTicks": 79,
            "midi": 65,
            "name": "F4",
            "ticks": 30723,
            "time": 122.89199999999998,
            "velocity": 0.5039370078740157
          },
          {
            "duration": 0.2879999999999825,
            "durationTicks": 72,
            "midi": 60,
            "name": "C4",
            "ticks": 30724,
            "time": 122.89600000000002,
            "velocity": 0.4645669291338583
          },
          {
            "duration": 0.06799999999999784,
            "durationTicks": 17,
            "midi": 65,
            "name": "F4",
            "ticks": 30815,
            "time": 123.26,
            "velocity": 0.47244094488188976
          },
          {
            "duration": 0.07199999999998852,
            "durationTicks": 18,
            "midi": 60,
            "name": "C4",
            "ticks": 30815,
            "time": 123.26,
            "velocity": 0.4330708661417323
          },
          {
            "duration": 0.06399999999999295,
            "durationTicks": 16,
            "midi": 63,
            "name": "D#4",
            "ticks": 30815,
            "time": 123.26,
            "velocity": 0.44881889763779526
          },
          {
            "duration": 0.11200000000000898,
            "durationTicks": 28,
            "midi": 63,
            "name": "D#4",
            "ticks": 30843,
            "time": 123.37199999999999,
            "velocity": 0.5118110236220472
          },
          {
            "duration": 0.11200000000000898,
            "durationTicks": 28,
            "midi": 65,
            "name": "F4",
            "ticks": 30843,
            "time": 123.37199999999999,
            "velocity": 0.4881889763779528
          },
          {
            "duration": 0.10400000000001342,
            "durationTicks": 26,
            "midi": 60,
            "name": "C4",
            "ticks": 30843,
            "time": 123.37199999999999,
            "velocity": 0.49606299212598426
          },
          {
            "duration": 0.3120000000000118,
            "durationTicks": 78,
            "midi": 63,
            "name": "D#4",
            "ticks": 31203,
            "time": 124.81199999999998,
            "velocity": 0.4645669291338583
          },
          {
            "duration": 0.3160000000000167,
            "durationTicks": 79,
            "midi": 65,
            "name": "F4",
            "ticks": 31203,
            "time": 124.81199999999998,
            "velocity": 0.5039370078740157
          },
          {
            "duration": 0.2879999999999825,
            "durationTicks": 72,
            "midi": 60,
            "name": "C4",
            "ticks": 31204,
            "time": 124.816,
            "velocity": 0.4645669291338583
          },
          {
            "duration": 0.06799999999998363,
            "durationTicks": 17,
            "midi": 65,
            "name": "F4",
            "ticks": 31295,
            "time": 125.18,
            "velocity": 0.47244094488188976
          },
          {
            "duration": 0.07199999999998852,
            "durationTicks": 18,
            "midi": 60,
            "name": "C4",
            "ticks": 31295,
            "time": 125.18,
            "velocity": 0.4330708661417323
          },
          {
            "duration": 0.06399999999999295,
            "durationTicks": 16,
            "midi": 63,
            "name": "D#4",
            "ticks": 31295,
            "time": 125.18,
            "velocity": 0.44881889763779526
          },
          {
            "duration": 0.11200000000000898,
            "durationTicks": 28,
            "midi": 63,
            "name": "D#4",
            "ticks": 31323,
            "time": 125.29199999999999,
            "velocity": 0.5118110236220472
          },
          {
            "duration": 0.11200000000000898,
            "durationTicks": 28,
            "midi": 65,
            "name": "F4",
            "ticks": 31323,
            "time": 125.29199999999999,
            "velocity": 0.4881889763779528
          },
          {
            "duration": 0.10400000000001342,
            "durationTicks": 26,
            "midi": 60,
            "name": "C4",
            "ticks": 31323,
            "time": 125.29199999999999,
            "velocity": 0.49606299212598426
          },
          {
            "duration": 0.31200000000004025,
            "durationTicks": 78,
            "midi": 63,
            "name": "D#4",
            "ticks": 48003,
            "time": 192.01199999999997,
            "velocity": 0.4645669291338583
          },
          {
            "duration": 0.3160000000000309,
            "durationTicks": 79,
            "midi": 65,
            "name": "F4",
            "ticks": 48003,
            "time": 192.01199999999997,
            "velocity": 0.5039370078740157
          },
          {
            "duration": 0.2879999999999825,
            "durationTicks": 72,
            "midi": 60,
            "name": "C4",
            "ticks": 48004,
            "time": 192.01600000000002,
            "velocity": 0.4645669291338583
          },
          {
            "duration": 0.06800000000001205,
            "durationTicks": 17,
            "midi": 65,
            "name": "F4",
            "ticks": 48095,
            "time": 192.38,
            "velocity": 0.47244094488188976
          },
          {
            "duration": 0.07200000000000273,
            "durationTicks": 18,
            "midi": 60,
            "name": "C4",
            "ticks": 48095,
            "time": 192.38,
            "velocity": 0.4330708661417323
          },
          {
            "duration": 0.06399999999999295,
            "durationTicks": 16,
            "midi": 63,
            "name": "D#4",
            "ticks": 48095,
            "time": 192.38,
            "velocity": 0.44881889763779526
          },
          {
            "duration": 0.11199999999999477,
            "durationTicks": 28,
            "midi": 63,
            "name": "D#4",
            "ticks": 48123,
            "time": 192.492,
            "velocity": 0.5118110236220472
          },
          {
            "duration": 0.11199999999999477,
            "durationTicks": 28,
            "midi": 65,
            "name": "F4",
            "ticks": 48123,
            "time": 192.492,
            "velocity": 0.4881889763779528
          },
          {
            "duration": 0.10400000000001342,
            "durationTicks": 26,
            "midi": 60,
            "name": "C4",
            "ticks": 48123,
            "time": 192.492,
            "velocity": 0.49606299212598426
          },
          {
            "duration": 0.3120000000000118,
            "durationTicks": 78,
            "midi": 63,
            "name": "D#4",
            "ticks": 48483,
            "time": 193.932,
            "velocity": 0.4645669291338583
          },
          {
            "duration": 0.3160000000000025,
            "durationTicks": 79,
            "midi": 65,
            "name": "F4",
            "ticks": 48483,
            "time": 193.932,
            "velocity": 0.5039370078740157
          },
          {
            "duration": 0.2879999999999825,
            "durationTicks": 72,
            "midi": 60,
            "name": "C4",
            "ticks": 48484,
            "time": 193.936,
            "velocity": 0.4645669291338583
          },
          {
            "duration": 0.06799999999998363,
            "durationTicks": 17,
            "midi": 65,
            "name": "F4",
            "ticks": 48575,
            "time": 194.3,
            "velocity": 0.47244094488188976
          },
          {
            "duration": 0.0719999999999743,
            "durationTicks": 18,
            "midi": 60,
            "name": "C4",
            "ticks": 48575,
            "time": 194.3,
            "velocity": 0.4330708661417323
          },
          {
            "duration": 0.06399999999999295,
            "durationTicks": 16,
            "midi": 63,
            "name": "D#4",
            "ticks": 48575,
            "time": 194.3,
            "velocity": 0.44881889763779526
          },
          {
            "duration": 0.11200000000002319,
            "durationTicks": 28,
            "midi": 63,
            "name": "D#4",
            "ticks": 48603,
            "time": 194.41199999999998,
            "velocity": 0.5118110236220472
          },
          {
            "duration": 0.11200000000002319,
            "durationTicks": 28,
            "midi": 65,
            "name": "F4",
            "ticks": 48603,
            "time": 194.41199999999998,
            "velocity": 0.4881889763779528
          },
          {
            "duration": 0.10400000000001342,
            "durationTicks": 26,
            "midi": 60,
            "name": "C4",
            "ticks": 48603,
            "time": 194.41199999999998,
            "velocity": 0.49606299212598426
          },
          {
            "duration": 0.3120000000000118,
            "durationTicks": 78,
            "midi": 63,
            "name": "D#4",
            "ticks": 48963,
            "time": 195.85199999999998,
            "velocity": 0.4645669291338583
          },
          {
            "duration": 0.3160000000000309,
            "durationTicks": 79,
            "midi": 65,
            "name": "F4",
            "ticks": 48963,
            "time": 195.85199999999998,
            "velocity": 0.5039370078740157
          },
          {
            "duration": 0.2879999999999825,
            "durationTicks": 72,
            "midi": 60,
            "name": "C4",
            "ticks": 48964,
            "time": 195.856,
            "velocity": 0.4645669291338583
          },
          {
            "duration": 0.06799999999998363,
            "durationTicks": 17,
            "midi": 65,
            "name": "F4",
            "ticks": 49055,
            "time": 196.22,
            "velocity": 0.47244094488188976
          },
          {
            "duration": 0.07200000000000273,
            "durationTicks": 18,
            "midi": 60,
            "name": "C4",
            "ticks": 49055,
            "time": 196.22,
            "velocity": 0.4330708661417323
          },
          {
            "duration": 0.06399999999999295,
            "durationTicks": 16,
            "midi": 63,
            "name": "D#4",
            "ticks": 49055,
            "time": 196.22,
            "velocity": 0.44881889763779526
          },
          {
            "duration": 0.11199999999999477,
            "durationTicks": 28,
            "midi": 63,
            "name": "D#4",
            "ticks": 49083,
            "time": 196.332,
            "velocity": 0.5118110236220472
          },
          {
            "duration": 0.11199999999999477,
            "durationTicks": 28,
            "midi": 65,
            "name": "F4",
            "ticks": 49083,
            "time": 196.332,
            "velocity": 0.4881889763779528
          },
          {
            "duration": 0.10400000000001342,
            "durationTicks": 26,
            "midi": 60,
            "name": "C4",
            "ticks": 49083,
            "time": 196.332,
            "velocity": 0.49606299212598426
          },
          {
            "duration": 0.3120000000000118,
            "durationTicks": 78,
            "midi": 63,
            "name": "D#4",
            "ticks": 49443,
            "time": 197.772,
            "velocity": 0.4645669291338583
          },
          {
            "duration": 0.3160000000000025,
            "durationTicks": 79,
            "midi": 65,
            "name": "F4",
            "ticks": 49443,
            "time": 197.772,
            "velocity": 0.5039370078740157
          },
          {
            "duration": 0.2879999999999825,
            "durationTicks": 72,
            "midi": 60,
            "name": "C4",
            "ticks": 49444,
            "time": 197.776,
            "velocity": 0.4645669291338583
          },
          {
            "duration": 0.06799999999998363,
            "durationTicks": 17,
            "midi": 65,
            "name": "F4",
            "ticks": 49535,
            "time": 198.14000000000001,
            "velocity": 0.47244094488188976
          },
          {
            "duration": 0.0719999999999743,
            "durationTicks": 18,
            "midi": 60,
            "name": "C4",
            "ticks": 49535,
            "time": 198.14000000000001,
            "velocity": 0.4330708661417323
          },
          {
            "duration": 0.06399999999999295,
            "durationTicks": 16,
            "midi": 63,
            "name": "D#4",
            "ticks": 49535,
            "time": 198.14000000000001,
            "velocity": 0.44881889763779526
          },
          {
            "duration": 0.11199999999999477,
            "durationTicks": 28,
            "midi": 63,
            "name": "D#4",
            "ticks": 49563,
            "time": 198.25199999999998,
            "velocity": 0.5118110236220472
          },
          {
            "duration": 0.11199999999999477,
            "durationTicks": 28,
            "midi": 65,
            "name": "F4",
            "ticks": 49563,
            "time": 198.25199999999998,
            "velocity": 0.4881889763779528
          },
          {
            "duration": 0.10400000000001342,
            "durationTicks": 26,
            "midi": 60,
            "name": "C4",
            "ticks": 49563,
            "time": 198.25199999999998,
            "velocity": 0.49606299212598426
          },
          {
            "duration": 0.3120000000000118,
            "durationTicks": 78,
            "midi": 63,
            "name": "D#4",
            "ticks": 49923,
            "time": 199.69199999999998,
            "velocity": 0.4645669291338583
          },
          {
            "duration": 0.3160000000000025,
            "durationTicks": 79,
            "midi": 65,
            "name": "F4",
            "ticks": 49923,
            "time": 199.69199999999998,
            "velocity": 0.5039370078740157
          },
          {
            "duration": 0.2879999999999825,
            "durationTicks": 72,
            "midi": 60,
            "name": "C4",
            "ticks": 49924,
            "time": 199.696,
            "velocity": 0.4645669291338583
          },
          {
            "duration": 0.06799999999998363,
            "durationTicks": 17,
            "midi": 65,
            "name": "F4",
            "ticks": 50015,
            "time": 200.06,
            "velocity": 0.47244094488188976
          },
          {
            "duration": 0.0719999999999743,
            "durationTicks": 18,
            "midi": 60,
            "name": "C4",
            "ticks": 50015,
            "time": 200.06,
            "velocity": 0.4330708661417323
          },
          {
            "duration": 0.06399999999999295,
            "durationTicks": 16,
            "midi": 63,
            "name": "D#4",
            "ticks": 50015,
            "time": 200.06,
            "velocity": 0.44881889763779526
          },
          {
            "duration": 0.11200000000002319,
            "durationTicks": 28,
            "midi": 63,
            "name": "D#4",
            "ticks": 50043,
            "time": 200.17199999999997,
            "velocity": 0.5118110236220472
          },
          {
            "duration": 0.11200000000002319,
            "durationTicks": 28,
            "midi": 65,
            "name": "F4",
            "ticks": 50043,
            "time": 200.17199999999997,
            "velocity": 0.4881889763779528
          },
          {
            "duration": 0.10400000000001342,
            "durationTicks": 26,
            "midi": 60,
            "name": "C4",
            "ticks": 50043,
            "time": 200.17199999999997,
            "velocity": 0.49606299212598426
          },
          {
            "duration": 0.3120000000000118,
            "durationTicks": 78,
            "midi": 63,
            "name": "D#4",
            "ticks": 50403,
            "time": 201.612,
            "velocity": 0.4645669291338583
          },
          {
            "duration": 0.3160000000000025,
            "durationTicks": 79,
            "midi": 65,
            "name": "F4",
            "ticks": 50403,
            "time": 201.612,
            "velocity": 0.5039370078740157
          },
          {
            "duration": 0.2879999999999825,
            "durationTicks": 72,
            "midi": 60,
            "name": "C4",
            "ticks": 50404,
            "time": 201.616,
            "velocity": 0.4645669291338583
          },
          {
            "duration": 0.06800000000001205,
            "durationTicks": 17,
            "midi": 65,
            "name": "F4",
            "ticks": 50495,
            "time": 201.98,
            "velocity": 0.47244094488188976
          },
          {
            "duration": 0.07200000000000273,
            "durationTicks": 18,
            "midi": 60,
            "name": "C4",
            "ticks": 50495,
            "time": 201.98,
            "velocity": 0.4330708661417323
          },
          {
            "duration": 0.06400000000002137,
            "durationTicks": 16,
            "midi": 63,
            "name": "D#4",
            "ticks": 50495,
            "time": 201.98,
            "velocity": 0.44881889763779526
          },
          {
            "duration": 0.11199999999999477,
            "durationTicks": 28,
            "midi": 63,
            "name": "D#4",
            "ticks": 50523,
            "time": 202.09199999999998,
            "velocity": 0.5118110236220472
          },
          {
            "duration": 0.11199999999999477,
            "durationTicks": 28,
            "midi": 65,
            "name": "F4",
            "ticks": 50523,
            "time": 202.09199999999998,
            "velocity": 0.4881889763779528
          },
          {
            "duration": 0.10400000000001342,
            "durationTicks": 26,
            "midi": 60,
            "name": "C4",
            "ticks": 50523,
            "time": 202.09199999999998,
            "velocity": 0.49606299212598426
          },
          {
            "duration": 0.3120000000000118,
            "durationTicks": 78,
            "midi": 63,
            "name": "D#4",
            "ticks": 50883,
            "time": 203.53199999999998,
            "velocity": 0.4645669291338583
          },
          {
            "duration": 0.3160000000000025,
            "durationTicks": 79,
            "midi": 65,
            "name": "F4",
            "ticks": 50883,
            "time": 203.53199999999998,
            "velocity": 0.5039370078740157
          },
          {
            "duration": 0.2879999999999825,
            "durationTicks": 72,
            "midi": 60,
            "name": "C4",
            "ticks": 50884,
            "time": 203.536,
            "velocity": 0.4645669291338583
          },
          {
            "duration": 0.06799999999998363,
            "durationTicks": 17,
            "midi": 65,
            "name": "F4",
            "ticks": 50975,
            "time": 203.9,
            "velocity": 0.47244094488188976
          },
          {
            "duration": 0.0719999999999743,
            "durationTicks": 18,
            "midi": 60,
            "name": "C4",
            "ticks": 50975,
            "time": 203.9,
            "velocity": 0.4330708661417323
          },
          {
            "duration": 0.06399999999999295,
            "durationTicks": 16,
            "midi": 63,
            "name": "D#4",
            "ticks": 50975,
            "time": 203.9,
            "velocity": 0.44881889763779526
          },
          {
            "duration": 0.11200000000002319,
            "durationTicks": 28,
            "midi": 63,
            "name": "D#4",
            "ticks": 51003,
            "time": 204.01199999999997,
            "velocity": 0.5118110236220472
          },
          {
            "duration": 0.11200000000002319,
            "durationTicks": 28,
            "midi": 65,
            "name": "F4",
            "ticks": 51003,
            "time": 204.01199999999997,
            "velocity": 0.4881889763779528
          },
          {
            "duration": 0.10400000000001342,
            "durationTicks": 26,
            "midi": 60,
            "name": "C4",
            "ticks": 51003,
            "time": 204.01199999999997,
            "velocity": 0.49606299212598426
          },
          {
            "duration": 0.31200000000004025,
            "durationTicks": 78,
            "midi": 63,
            "name": "D#4",
            "ticks": 51363,
            "time": 205.45199999999997,
            "velocity": 0.4645669291338583
          },
          {
            "duration": 0.3160000000000309,
            "durationTicks": 79,
            "midi": 65,
            "name": "F4",
            "ticks": 51363,
            "time": 205.45199999999997,
            "velocity": 0.5039370078740157
          },
          {
            "duration": 0.2879999999999825,
            "durationTicks": 72,
            "midi": 60,
            "name": "C4",
            "ticks": 51364,
            "time": 205.45600000000002,
            "velocity": 0.4645669291338583
          },
          {
            "duration": 0.06800000000001205,
            "durationTicks": 17,
            "midi": 65,
            "name": "F4",
            "ticks": 51455,
            "time": 205.82,
            "velocity": 0.47244094488188976
          },
          {
            "duration": 0.07200000000000273,
            "durationTicks": 18,
            "midi": 60,
            "name": "C4",
            "ticks": 51455,
            "time": 205.82,
            "velocity": 0.4330708661417323
          },
          {
            "duration": 0.06399999999999295,
            "durationTicks": 16,
            "midi": 63,
            "name": "D#4",
            "ticks": 51455,
            "time": 205.82,
            "velocity": 0.44881889763779526
          },
          {
            "duration": 0.11199999999999477,
            "durationTicks": 28,
            "midi": 63,
            "name": "D#4",
            "ticks": 51483,
            "time": 205.932,
            "velocity": 0.5118110236220472
          },
          {
            "duration": 0.11199999999999477,
            "durationTicks": 28,
            "midi": 65,
            "name": "F4",
            "ticks": 51483,
            "time": 205.932,
            "velocity": 0.4881889763779528
          },
          {
            "duration": 0.10400000000001342,
            "durationTicks": 26,
            "midi": 60,
            "name": "C4",
            "ticks": 51483,
            "time": 205.932,
            "velocity": 0.49606299212598426
          },
          {
            "duration": 0.3120000000000118,
            "durationTicks": 78,
            "midi": 63,
            "name": "D#4",
            "ticks": 51843,
            "time": 207.37199999999999,
            "velocity": 0.4645669291338583
          },
          {
            "duration": 0.3160000000000025,
            "durationTicks": 79,
            "midi": 65,
            "name": "F4",
            "ticks": 51843,
            "time": 207.37199999999999,
            "velocity": 0.5039370078740157
          },
          {
            "duration": 0.2879999999999825,
            "durationTicks": 72,
            "midi": 60,
            "name": "C4",
            "ticks": 51844,
            "time": 207.376,
            "velocity": 0.4645669291338583
          },
          {
            "duration": 0.06799999999998363,
            "durationTicks": 17,
            "midi": 65,
            "name": "F4",
            "ticks": 51935,
            "time": 207.74,
            "velocity": 0.47244094488188976
          },
          {
            "duration": 0.0719999999999743,
            "durationTicks": 18,
            "midi": 60,
            "name": "C4",
            "ticks": 51935,
            "time": 207.74,
            "velocity": 0.4330708661417323
          },
          {
            "duration": 0.06399999999999295,
            "durationTicks": 16,
            "midi": 63,
            "name": "D#4",
            "ticks": 51935,
            "time": 207.74,
            "velocity": 0.44881889763779526
          },
          {
            "duration": 0.11200000000002319,
            "durationTicks": 28,
            "midi": 63,
            "name": "D#4",
            "ticks": 51963,
            "time": 207.85199999999998,
            "velocity": 0.5118110236220472
          },
          {
            "duration": 0.11200000000002319,
            "durationTicks": 28,
            "midi": 65,
            "name": "F4",
            "ticks": 51963,
            "time": 207.85199999999998,
            "velocity": 0.4881889763779528
          },
          {
            "duration": 0.10400000000001342,
            "durationTicks": 26,
            "midi": 60,
            "name": "C4",
            "ticks": 51963,
            "time": 207.85199999999998,
            "velocity": 0.49606299212598426
          },
          {
            "duration": 0.3120000000000118,
            "durationTicks": 78,
            "midi": 63,
            "name": "D#4",
            "ticks": 52323,
            "time": 209.29199999999997,
            "velocity": 0.4645669291338583
          },
          {
            "duration": 0.3160000000000309,
            "durationTicks": 79,
            "midi": 65,
            "name": "F4",
            "ticks": 52323,
            "time": 209.29199999999997,
            "velocity": 0.5039370078740157
          },
          {
            "duration": 0.2879999999999825,
            "durationTicks": 72,
            "midi": 60,
            "name": "C4",
            "ticks": 52324,
            "time": 209.296,
            "velocity": 0.4645669291338583
          },
          {
            "duration": 0.06799999999998363,
            "durationTicks": 17,
            "midi": 65,
            "name": "F4",
            "ticks": 52415,
            "time": 209.66,
            "velocity": 0.47244094488188976
          },
          {
            "duration": 0.07200000000000273,
            "durationTicks": 18,
            "midi": 60,
            "name": "C4",
            "ticks": 52415,
            "time": 209.66,
            "velocity": 0.4330708661417323
          },
          {
            "duration": 0.06399999999999295,
            "durationTicks": 16,
            "midi": 63,
            "name": "D#4",
            "ticks": 52415,
            "time": 209.66,
            "velocity": 0.44881889763779526
          },
          {
            "duration": 0.11199999999999477,
            "durationTicks": 28,
            "midi": 63,
            "name": "D#4",
            "ticks": 52443,
            "time": 209.772,
            "velocity": 0.5118110236220472
          },
          {
            "duration": 0.11199999999999477,
            "durationTicks": 28,
            "midi": 65,
            "name": "F4",
            "ticks": 52443,
            "time": 209.772,
            "velocity": 0.4881889763779528
          },
          {
            "duration": 0.10400000000001342,
            "durationTicks": 26,
            "midi": 60,
            "name": "C4",
            "ticks": 52443,
            "time": 209.772,
            "velocity": 0.49606299212598426
          },
          {
            "duration": 0.3120000000000118,
            "durationTicks": 78,
            "midi": 63,
            "name": "D#4",
            "ticks": 52803,
            "time": 211.212,
            "velocity": 0.4645669291338583
          },
          {
            "duration": 0.3160000000000025,
            "durationTicks": 79,
            "midi": 65,
            "name": "F4",
            "ticks": 52803,
            "time": 211.212,
            "velocity": 0.5039370078740157
          },
          {
            "duration": 0.2879999999999825,
            "durationTicks": 72,
            "midi": 60,
            "name": "C4",
            "ticks": 52804,
            "time": 211.216,
            "velocity": 0.4645669291338583
          },
          {
            "duration": 0.06799999999998363,
            "durationTicks": 17,
            "midi": 65,
            "name": "F4",
            "ticks": 52895,
            "time": 211.58,
            "velocity": 0.47244094488188976
          },
          {
            "duration": 0.0719999999999743,
            "durationTicks": 18,
            "midi": 60,
            "name": "C4",
            "ticks": 52895,
            "time": 211.58,
            "velocity": 0.4330708661417323
          },
          {
            "duration": 0.06399999999999295,
            "durationTicks": 16,
            "midi": 63,
            "name": "D#4",
            "ticks": 52895,
            "time": 211.58,
            "velocity": 0.44881889763779526
          },
          {
            "duration": 0.11200000000002319,
            "durationTicks": 28,
            "midi": 63,
            "name": "D#4",
            "ticks": 52923,
            "time": 211.69199999999998,
            "velocity": 0.5118110236220472
          },
          {
            "duration": 0.11200000000002319,
            "durationTicks": 28,
            "midi": 65,
            "name": "F4",
            "ticks": 52923,
            "time": 211.69199999999998,
            "velocity": 0.4881889763779528
          },
          {
            "duration": 0.10400000000001342,
            "durationTicks": 26,
            "midi": 60,
            "name": "C4",
            "ticks": 52923,
            "time": 211.69199999999998,
            "velocity": 0.49606299212598426
          },
          {
            "duration": 0.3120000000000118,
            "durationTicks": 78,
            "midi": 63,
            "name": "D#4",
            "ticks": 53283,
            "time": 213.13199999999998,
            "velocity": 0.4645669291338583
          },
          {
            "duration": 0.3160000000000309,
            "durationTicks": 79,
            "midi": 65,
            "name": "F4",
            "ticks": 53283,
            "time": 213.13199999999998,
            "velocity": 0.5039370078740157
          },
          {
            "duration": 0.2879999999999825,
            "durationTicks": 72,
            "midi": 60,
            "name": "C4",
            "ticks": 53284,
            "time": 213.136,
            "velocity": 0.4645669291338583
          },
          {
            "duration": 0.06799999999998363,
            "durationTicks": 17,
            "midi": 65,
            "name": "F4",
            "ticks": 53375,
            "time": 213.5,
            "velocity": 0.47244094488188976
          },
          {
            "duration": 0.07200000000000273,
            "durationTicks": 18,
            "midi": 60,
            "name": "C4",
            "ticks": 53375,
            "time": 213.5,
            "velocity": 0.4330708661417323
          },
          {
            "duration": 0.06399999999999295,
            "durationTicks": 16,
            "midi": 63,
            "name": "D#4",
            "ticks": 53375,
            "time": 213.5,
            "velocity": 0.44881889763779526
          },
          {
            "duration": 0.11199999999999477,
            "durationTicks": 28,
            "midi": 63,
            "name": "D#4",
            "ticks": 53403,
            "time": 213.612,
            "velocity": 0.5118110236220472
          },
          {
            "duration": 0.11199999999999477,
            "durationTicks": 28,
            "midi": 65,
            "name": "F4",
            "ticks": 53403,
            "time": 213.612,
            "velocity": 0.4881889763779528
          },
          {
            "duration": 0.10400000000001342,
            "durationTicks": 26,
            "midi": 60,
            "name": "C4",
            "ticks": 53403,
            "time": 213.612,
            "velocity": 0.49606299212598426
          },
          {
            "duration": 0.3120000000000118,
            "durationTicks": 78,
            "midi": 63,
            "name": "D#4",
            "ticks": 53763,
            "time": 215.052,
            "velocity": 0.4645669291338583
          },
          {
            "duration": 0.3160000000000025,
            "durationTicks": 79,
            "midi": 65,
            "name": "F4",
            "ticks": 53763,
            "time": 215.052,
            "velocity": 0.5039370078740157
          },
          {
            "duration": 0.2879999999999825,
            "durationTicks": 72,
            "midi": 60,
            "name": "C4",
            "ticks": 53764,
            "time": 215.056,
            "velocity": 0.4645669291338583
          },
          {
            "duration": 0.06800000000001205,
            "durationTicks": 17,
            "midi": 65,
            "name": "F4",
            "ticks": 53855,
            "time": 215.42,
            "velocity": 0.47244094488188976
          },
          {
            "duration": 0.07200000000000273,
            "durationTicks": 18,
            "midi": 60,
            "name": "C4",
            "ticks": 53855,
            "time": 215.42,
            "velocity": 0.4330708661417323
          },
          {
            "duration": 0.06400000000002137,
            "durationTicks": 16,
            "midi": 63,
            "name": "D#4",
            "ticks": 53855,
            "time": 215.42,
            "velocity": 0.44881889763779526
          },
          {
            "duration": 0.11199999999999477,
            "durationTicks": 28,
            "midi": 63,
            "name": "D#4",
            "ticks": 53883,
            "time": 215.53199999999998,
            "velocity": 0.5118110236220472
          },
          {
            "duration": 0.11199999999999477,
            "durationTicks": 28,
            "midi": 65,
            "name": "F4",
            "ticks": 53883,
            "time": 215.53199999999998,
            "velocity": 0.4881889763779528
          },
          {
            "duration": 0.10400000000001342,
            "durationTicks": 26,
            "midi": 60,
            "name": "C4",
            "ticks": 53883,
            "time": 215.53199999999998,
            "velocity": 0.49606299212598426
          },
          {
            "duration": 0.3120000000000118,
            "durationTicks": 78,
            "midi": 63,
            "name": "D#4",
            "ticks": 54243,
            "time": 216.97199999999998,
            "velocity": 0.4645669291338583
          },
          {
            "duration": 0.3160000000000025,
            "durationTicks": 79,
            "midi": 65,
            "name": "F4",
            "ticks": 54243,
            "time": 216.97199999999998,
            "velocity": 0.5039370078740157
          },
          {
            "duration": 0.2879999999999825,
            "durationTicks": 72,
            "midi": 60,
            "name": "C4",
            "ticks": 54244,
            "time": 216.976,
            "velocity": 0.4645669291338583
          },
          {
            "duration": 0.06799999999998363,
            "durationTicks": 17,
            "midi": 65,
            "name": "F4",
            "ticks": 54335,
            "time": 217.34,
            "velocity": 0.47244094488188976
          },
          {
            "duration": 0.0719999999999743,
            "durationTicks": 18,
            "midi": 60,
            "name": "C4",
            "ticks": 54335,
            "time": 217.34,
            "velocity": 0.4330708661417323
          },
          {
            "duration": 0.06399999999999295,
            "durationTicks": 16,
            "midi": 63,
            "name": "D#4",
            "ticks": 54335,
            "time": 217.34,
            "velocity": 0.44881889763779526
          },
          {
            "duration": 0.11200000000002319,
            "durationTicks": 28,
            "midi": 63,
            "name": "D#4",
            "ticks": 54363,
            "time": 217.45199999999997,
            "velocity": 0.5118110236220472
          },
          {
            "duration": 0.11200000000002319,
            "durationTicks": 28,
            "midi": 65,
            "name": "F4",
            "ticks": 54363,
            "time": 217.45199999999997,
            "velocity": 0.4881889763779528
          },
          {
            "duration": 0.10400000000001342,
            "durationTicks": 26,
            "midi": 60,
            "name": "C4",
            "ticks": 54363,
            "time": 217.45199999999997,
            "velocity": 0.49606299212598426
          },
          {
            "duration": 0.31200000000004025,
            "durationTicks": 78,
            "midi": 63,
            "name": "D#4",
            "ticks": 54723,
            "time": 218.89199999999997,
            "velocity": 0.4645669291338583
          },
          {
            "duration": 0.3160000000000309,
            "durationTicks": 79,
            "midi": 65,
            "name": "F4",
            "ticks": 54723,
            "time": 218.89199999999997,
            "velocity": 0.5039370078740157
          },
          {
            "duration": 0.2879999999999825,
            "durationTicks": 72,
            "midi": 60,
            "name": "C4",
            "ticks": 54724,
            "time": 218.89600000000002,
            "velocity": 0.4645669291338583
          },
          {
            "duration": 0.06800000000001205,
            "durationTicks": 17,
            "midi": 65,
            "name": "F4",
            "ticks": 54815,
            "time": 219.26,
            "velocity": 0.47244094488188976
          },
          {
            "duration": 0.07200000000000273,
            "durationTicks": 18,
            "midi": 60,
            "name": "C4",
            "ticks": 54815,
            "time": 219.26,
            "velocity": 0.4330708661417323
          },
          {
            "duration": 0.06399999999999295,
            "durationTicks": 16,
            "midi": 63,
            "name": "D#4",
            "ticks": 54815,
            "time": 219.26,
            "velocity": 0.44881889763779526
          },
          {
            "duration": 0.11199999999999477,
            "durationTicks": 28,
            "midi": 63,
            "name": "D#4",
            "ticks": 54843,
            "time": 219.37199999999999,
            "velocity": 0.5118110236220472
          },
          {
            "duration": 0.11199999999999477,
            "durationTicks": 28,
            "midi": 65,
            "name": "F4",
            "ticks": 54843,
            "time": 219.37199999999999,
            "velocity": 0.4881889763779528
          },
          {
            "duration": 0.10400000000001342,
            "durationTicks": 26,
            "midi": 60,
            "name": "C4",
            "ticks": 54843,
            "time": 219.37199999999999,
            "velocity": 0.49606299212598426
          },
          {
            "duration": 0.3120000000000118,
            "durationTicks": 78,
            "midi": 63,
            "name": "D#4",
            "ticks": 55203,
            "time": 220.81199999999998,
            "velocity": 0.4645669291338583
          },
          {
            "duration": 0.3160000000000025,
            "durationTicks": 79,
            "midi": 65,
            "name": "F4",
            "ticks": 55203,
            "time": 220.81199999999998,
            "velocity": 0.5039370078740157
          },
          {
            "duration": 0.2879999999999825,
            "durationTicks": 72,
            "midi": 60,
            "name": "C4",
            "ticks": 55204,
            "time": 220.816,
            "velocity": 0.4645669291338583
          },
          {
            "duration": 0.06799999999998363,
            "durationTicks": 17,
            "midi": 65,
            "name": "F4",
            "ticks": 55295,
            "time": 221.18,
            "velocity": 0.47244094488188976
          },
          {
            "duration": 0.0719999999999743,
            "durationTicks": 18,
            "midi": 60,
            "name": "C4",
            "ticks": 55295,
            "time": 221.18,
            "velocity": 0.4330708661417323
          },
          {
            "duration": 0.06399999999999295,
            "durationTicks": 16,
            "midi": 63,
            "name": "D#4",
            "ticks": 55295,
            "time": 221.18,
            "velocity": 0.44881889763779526
          },
          {
            "duration": 0.11200000000002319,
            "durationTicks": 28,
            "midi": 63,
            "name": "D#4",
            "ticks": 55323,
            "time": 221.29199999999997,
            "velocity": 0.5118110236220472
          },
          {
            "duration": 0.11200000000002319,
            "durationTicks": 28,
            "midi": 65,
            "name": "F4",
            "ticks": 55323,
            "time": 221.29199999999997,
            "velocity": 0.4881889763779528
          },
          {
            "duration": 0.10400000000001342,
            "durationTicks": 26,
            "midi": 60,
            "name": "C4",
            "ticks": 55323,
            "time": 221.29199999999997,
            "velocity": 0.49606299212598426
          },
          {
            "duration": 0.2880000000000109,
            "durationTicks": 72,
            "midi": 60,
            "name": "C4",
            "ticks": 55680,
            "time": 222.72,
            "velocity": 0.4645669291338583
          },
          {
            "duration": 0.3160000000000025,
            "durationTicks": 79,
            "midi": 65,
            "name": "F4",
            "ticks": 55680,
            "time": 222.72,
            "velocity": 0.5039370078740157
          },
          {
            "duration": 0.3119999999999834,
            "durationTicks": 78,
            "midi": 63,
            "name": "D#4",
            "ticks": 55680,
            "time": 222.72,
            "velocity": 0.4645669291338583
          },
          {
            "duration": 0.06399999999999295,
            "durationTicks": 16,
            "midi": 63,
            "name": "D#4",
            "ticks": 55770,
            "time": 223.07999999999998,
            "velocity": 0.44881889763779526
          },
          {
            "duration": 0.07200000000000273,
            "durationTicks": 18,
            "midi": 60,
            "name": "C4",
            "ticks": 55770,
            "time": 223.07999999999998,
            "velocity": 0.4330708661417323
          },
          {
            "duration": 0.06399999999999295,
            "durationTicks": 16,
            "midi": 65,
            "name": "F4",
            "ticks": 55770,
            "time": 223.07999999999998,
            "velocity": 0.47244094488188976
          },
          {
            "duration": 0.103999999999985,
            "durationTicks": 26,
            "midi": 60,
            "name": "C4",
            "ticks": 55800,
            "time": 223.2,
            "velocity": 0.49606299212598426
          },
          {
            "duration": 0.11200000000002319,
            "durationTicks": 28,
            "midi": 65,
            "name": "F4",
            "ticks": 55800,
            "time": 223.2,
            "velocity": 0.4881889763779528
          },
          {
            "duration": 0.11200000000002319,
            "durationTicks": 28,
            "midi": 63,
            "name": "D#4",
            "ticks": 55800,
            "time": 223.2,
            "velocity": 0.5118110236220472
          },
          {
            "duration": 0.2880000000000109,
            "durationTicks": 72,
            "midi": 60,
            "name": "C4",
            "ticks": 56160,
            "time": 224.64,
            "velocity": 0.4645669291338583
          },
          {
            "duration": 0.3160000000000309,
            "durationTicks": 79,
            "midi": 65,
            "name": "F4",
            "ticks": 56160,
            "time": 224.64,
            "velocity": 0.5039370078740157
          },
          {
            "duration": 0.3119999999999834,
            "durationTicks": 78,
            "midi": 63,
            "name": "D#4",
            "ticks": 56160,
            "time": 224.64,
            "velocity": 0.4645669291338583
          },
          {
            "duration": 0.06399999999999295,
            "durationTicks": 16,
            "midi": 63,
            "name": "D#4",
            "ticks": 56250,
            "time": 225,
            "velocity": 0.44881889763779526
          },
          {
            "duration": 0.0719999999999743,
            "durationTicks": 18,
            "midi": 60,
            "name": "C4",
            "ticks": 56250,
            "time": 225,
            "velocity": 0.4330708661417323
          },
          {
            "duration": 0.06399999999999295,
            "durationTicks": 16,
            "midi": 65,
            "name": "F4",
            "ticks": 56250,
            "time": 225,
            "velocity": 0.47244094488188976
          },
          {
            "duration": 0.103999999999985,
            "durationTicks": 26,
            "midi": 60,
            "name": "C4",
            "ticks": 56280,
            "time": 225.12,
            "velocity": 0.49606299212598426
          },
          {
            "duration": 0.11199999999999477,
            "durationTicks": 28,
            "midi": 65,
            "name": "F4",
            "ticks": 56280,
            "time": 225.12,
            "velocity": 0.4881889763779528
          },
          {
            "duration": 0.11199999999999477,
            "durationTicks": 28,
            "midi": 63,
            "name": "D#4",
            "ticks": 56280,
            "time": 225.12,
            "velocity": 0.5118110236220472
          },
          {
            "duration": 0.2880000000000109,
            "durationTicks": 72,
            "midi": 60,
            "name": "C4",
            "ticks": 56640,
            "time": 226.56,
            "velocity": 0.4645669291338583
          },
          {
            "duration": 0.3160000000000025,
            "durationTicks": 79,
            "midi": 65,
            "name": "F4",
            "ticks": 56640,
            "time": 226.56,
            "velocity": 0.5039370078740157
          },
          {
            "duration": 0.3119999999999834,
            "durationTicks": 78,
            "midi": 63,
            "name": "D#4",
            "ticks": 56640,
            "time": 226.56,
            "velocity": 0.4645669291338583
          },
          {
            "duration": 0.06399999999999295,
            "durationTicks": 16,
            "midi": 63,
            "name": "D#4",
            "ticks": 56730,
            "time": 226.92,
            "velocity": 0.44881889763779526
          },
          {
            "duration": 0.07200000000000273,
            "durationTicks": 18,
            "midi": 60,
            "name": "C4",
            "ticks": 56730,
            "time": 226.92,
            "velocity": 0.4330708661417323
          },
          {
            "duration": 0.06399999999999295,
            "durationTicks": 16,
            "midi": 65,
            "name": "F4",
            "ticks": 56730,
            "time": 226.92,
            "velocity": 0.47244094488188976
          },
          {
            "duration": 0.103999999999985,
            "durationTicks": 26,
            "midi": 60,
            "name": "C4",
            "ticks": 56760,
            "time": 227.04,
            "velocity": 0.49606299212598426
          },
          {
            "duration": 0.11199999999999477,
            "durationTicks": 28,
            "midi": 65,
            "name": "F4",
            "ticks": 56760,
            "time": 227.04,
            "velocity": 0.4881889763779528
          },
          {
            "duration": 0.11199999999999477,
            "durationTicks": 28,
            "midi": 63,
            "name": "D#4",
            "ticks": 56760,
            "time": 227.04,
            "velocity": 0.5118110236220472
          },
          {
            "duration": 0.2880000000000109,
            "durationTicks": 72,
            "midi": 60,
            "name": "C4",
            "ticks": 57120,
            "time": 228.48,
            "velocity": 0.4645669291338583
          },
          {
            "duration": 0.3160000000000025,
            "durationTicks": 79,
            "midi": 65,
            "name": "F4",
            "ticks": 57120,
            "time": 228.48,
            "velocity": 0.5039370078740157
          },
          {
            "duration": 0.3119999999999834,
            "durationTicks": 78,
            "midi": 63,
            "name": "D#4",
            "ticks": 57120,
            "time": 228.48,
            "velocity": 0.4645669291338583
          },
          {
            "duration": 0.06399999999999295,
            "durationTicks": 16,
            "midi": 63,
            "name": "D#4",
            "ticks": 57210,
            "time": 228.84,
            "velocity": 0.44881889763779526
          },
          {
            "duration": 0.0719999999999743,
            "durationTicks": 18,
            "midi": 60,
            "name": "C4",
            "ticks": 57210,
            "time": 228.84,
            "velocity": 0.4330708661417323
          },
          {
            "duration": 0.06399999999999295,
            "durationTicks": 16,
            "midi": 65,
            "name": "F4",
            "ticks": 57210,
            "time": 228.84,
            "velocity": 0.47244094488188976
          },
          {
            "duration": 0.10400000000001342,
            "durationTicks": 26,
            "midi": 60,
            "name": "C4",
            "ticks": 57240,
            "time": 228.95999999999998,
            "velocity": 0.49606299212598426
          },
          {
            "duration": 0.11200000000002319,
            "durationTicks": 28,
            "midi": 65,
            "name": "F4",
            "ticks": 57240,
            "time": 228.95999999999998,
            "velocity": 0.4881889763779528
          },
          {
            "duration": 0.11200000000002319,
            "durationTicks": 28,
            "midi": 63,
            "name": "D#4",
            "ticks": 57240,
            "time": 228.95999999999998,
            "velocity": 0.5118110236220472
          },
          {
            "duration": 0.2880000000000109,
            "durationTicks": 72,
            "midi": 60,
            "name": "C4",
            "ticks": 57600,
            "time": 230.39999999999998,
            "velocity": 0.4645669291338583
          },
          {
            "duration": 0.3160000000000309,
            "durationTicks": 79,
            "midi": 65,
            "name": "F4",
            "ticks": 57600,
            "time": 230.39999999999998,
            "velocity": 0.5039370078740157
          },
          {
            "duration": 0.3120000000000118,
            "durationTicks": 78,
            "midi": 63,
            "name": "D#4",
            "ticks": 57600,
            "time": 230.39999999999998,
            "velocity": 0.4645669291338583
          },
          {
            "duration": 0.06399999999999295,
            "durationTicks": 16,
            "midi": 63,
            "name": "D#4",
            "ticks": 57690,
            "time": 230.76,
            "velocity": 0.44881889763779526
          },
          {
            "duration": 0.07200000000000273,
            "durationTicks": 18,
            "midi": 60,
            "name": "C4",
            "ticks": 57690,
            "time": 230.76,
            "velocity": 0.4330708661417323
          },
          {
            "duration": 0.06399999999999295,
            "durationTicks": 16,
            "midi": 65,
            "name": "F4",
            "ticks": 57690,
            "time": 230.76,
            "velocity": 0.47244094488188976
          },
          {
            "duration": 0.103999999999985,
            "durationTicks": 26,
            "midi": 60,
            "name": "C4",
            "ticks": 57720,
            "time": 230.88,
            "velocity": 0.49606299212598426
          },
          {
            "duration": 0.11199999999999477,
            "durationTicks": 28,
            "midi": 65,
            "name": "F4",
            "ticks": 57720,
            "time": 230.88,
            "velocity": 0.4881889763779528
          },
          {
            "duration": 0.11199999999999477,
            "durationTicks": 28,
            "midi": 63,
            "name": "D#4",
            "ticks": 57720,
            "time": 230.88,
            "velocity": 0.5118110236220472
          },
          {
            "duration": 0.2880000000000109,
            "durationTicks": 72,
            "midi": 60,
            "name": "C4",
            "ticks": 58080,
            "time": 232.32,
            "velocity": 0.4645669291338583
          },
          {
            "duration": 0.3160000000000025,
            "durationTicks": 79,
            "midi": 65,
            "name": "F4",
            "ticks": 58080,
            "time": 232.32,
            "velocity": 0.5039370078740157
          },
          {
            "duration": 0.3119999999999834,
            "durationTicks": 78,
            "midi": 63,
            "name": "D#4",
            "ticks": 58080,
            "time": 232.32,
            "velocity": 0.4645669291338583
          },
          {
            "duration": 0.06400000000002137,
            "durationTicks": 16,
            "midi": 63,
            "name": "D#4",
            "ticks": 58170,
            "time": 232.67999999999998,
            "velocity": 0.44881889763779526
          },
          {
            "duration": 0.07200000000000273,
            "durationTicks": 18,
            "midi": 60,
            "name": "C4",
            "ticks": 58170,
            "time": 232.67999999999998,
            "velocity": 0.4330708661417323
          },
          {
            "duration": 0.06400000000002137,
            "durationTicks": 16,
            "midi": 65,
            "name": "F4",
            "ticks": 58170,
            "time": 232.67999999999998,
            "velocity": 0.47244094488188976
          },
          {
            "duration": 0.103999999999985,
            "durationTicks": 26,
            "midi": 60,
            "name": "C4",
            "ticks": 58200,
            "time": 232.79999999999998,
            "velocity": 0.49606299212598426
          },
          {
            "duration": 0.11200000000002319,
            "durationTicks": 28,
            "midi": 65,
            "name": "F4",
            "ticks": 58200,
            "time": 232.79999999999998,
            "velocity": 0.4881889763779528
          },
          {
            "duration": 0.11200000000002319,
            "durationTicks": 28,
            "midi": 63,
            "name": "D#4",
            "ticks": 58200,
            "time": 232.79999999999998,
            "velocity": 0.5118110236220472
          },
          {
            "duration": 0.2880000000000109,
            "durationTicks": 72,
            "midi": 60,
            "name": "C4",
            "ticks": 58560,
            "time": 234.23999999999998,
            "velocity": 0.4645669291338583
          },
          {
            "duration": 0.3160000000000309,
            "durationTicks": 79,
            "midi": 65,
            "name": "F4",
            "ticks": 58560,
            "time": 234.23999999999998,
            "velocity": 0.5039370078740157
          },
          {
            "duration": 0.3120000000000118,
            "durationTicks": 78,
            "midi": 63,
            "name": "D#4",
            "ticks": 58560,
            "time": 234.23999999999998,
            "velocity": 0.4645669291338583
          },
          {
            "duration": 0.06399999999999295,
            "durationTicks": 16,
            "midi": 63,
            "name": "D#4",
            "ticks": 58650,
            "time": 234.6,
            "velocity": 0.44881889763779526
          },
          {
            "duration": 0.0719999999999743,
            "durationTicks": 18,
            "midi": 60,
            "name": "C4",
            "ticks": 58650,
            "time": 234.6,
            "velocity": 0.4330708661417323
          },
          {
            "duration": 0.06399999999999295,
            "durationTicks": 16,
            "midi": 65,
            "name": "F4",
            "ticks": 58650,
            "time": 234.6,
            "velocity": 0.47244094488188976
          },
          {
            "duration": 0.103999999999985,
            "durationTicks": 26,
            "midi": 60,
            "name": "C4",
            "ticks": 58680,
            "time": 234.72,
            "velocity": 0.49606299212598426
          },
          {
            "duration": 0.11199999999999477,
            "durationTicks": 28,
            "midi": 65,
            "name": "F4",
            "ticks": 58680,
            "time": 234.72,
            "velocity": 0.4881889763779528
          },
          {
            "duration": 0.11199999999999477,
            "durationTicks": 28,
            "midi": 63,
            "name": "D#4",
            "ticks": 58680,
            "time": 234.72,
            "velocity": 0.5118110236220472
          },
          {
            "duration": 0.2880000000000109,
            "durationTicks": 72,
            "midi": 60,
            "name": "C4",
            "ticks": 59040,
            "time": 236.16,
            "velocity": 0.4645669291338583
          },
          {
            "duration": 0.3160000000000025,
            "durationTicks": 79,
            "midi": 65,
            "name": "F4",
            "ticks": 59040,
            "time": 236.16,
            "velocity": 0.5039370078740157
          },
          {
            "duration": 0.3119999999999834,
            "durationTicks": 78,
            "midi": 63,
            "name": "D#4",
            "ticks": 59040,
            "time": 236.16,
            "velocity": 0.4645669291338583
          },
          {
            "duration": 0.06399999999999295,
            "durationTicks": 16,
            "midi": 63,
            "name": "D#4",
            "ticks": 59130,
            "time": 236.51999999999998,
            "velocity": 0.44881889763779526
          },
          {
            "duration": 0.07200000000000273,
            "durationTicks": 18,
            "midi": 60,
            "name": "C4",
            "ticks": 59130,
            "time": 236.51999999999998,
            "velocity": 0.4330708661417323
          },
          {
            "duration": 0.06399999999999295,
            "durationTicks": 16,
            "midi": 65,
            "name": "F4",
            "ticks": 59130,
            "time": 236.51999999999998,
            "velocity": 0.47244094488188976
          },
          {
            "duration": 0.103999999999985,
            "durationTicks": 26,
            "midi": 60,
            "name": "C4",
            "ticks": 59160,
            "time": 236.64,
            "velocity": 0.49606299212598426
          },
          {
            "duration": 0.11200000000002319,
            "durationTicks": 28,
            "midi": 65,
            "name": "F4",
            "ticks": 59160,
            "time": 236.64,
            "velocity": 0.4881889763779528
          },
          {
            "duration": 0.11200000000002319,
            "durationTicks": 28,
            "midi": 63,
            "name": "D#4",
            "ticks": 59160,
            "time": 236.64,
            "velocity": 0.5118110236220472
          },
          {
            "duration": 0.09199999999998454,
            "durationTicks": 23,
            "midi": 60,
            "name": "C4",
            "ticks": 59280,
            "time": 237.12,
            "velocity": 0.41732283464566927
          },
          {
            "duration": 0.103999999999985,
            "durationTicks": 26,
            "midi": 65,
            "name": "F4",
            "ticks": 59280,
            "time": 237.12,
            "velocity": 0.48031496062992124
          },
          {
            "duration": 0.0999999999999659,
            "durationTicks": 25,
            "midi": 63,
            "name": "D#4",
            "ticks": 59280,
            "time": 237.12,
            "velocity": 0.4251968503937008
          },
          {
            "duration": 0.16399999999998727,
            "durationTicks": 41,
            "midi": 65,
            "name": "F4",
            "ticks": 59340,
            "time": 237.35999999999999,
            "velocity": 0.48031496062992124
          },
          {
            "duration": 0.14000000000001478,
            "durationTicks": 35,
            "midi": 63,
            "name": "D#4",
            "ticks": 59340,
            "time": 237.35999999999999,
            "velocity": 0.5039370078740157
          },
          {
            "duration": 0.14000000000001478,
            "durationTicks": 35,
            "midi": 60,
            "name": "C4",
            "ticks": 59340,
            "time": 237.35999999999999,
            "velocity": 0.4566929133858268
          },
          {
            "duration": 0.12399999999999523,
            "durationTicks": 31,
            "midi": 60,
            "name": "C4",
            "ticks": 59400,
            "time": 237.6,
            "velocity": 0.47244094488188976
          },
          {
            "duration": 0.13599999999999568,
            "durationTicks": 34,
            "midi": 63,
            "name": "D#4",
            "ticks": 59400,
            "time": 237.6,
            "velocity": 0.4566929133858268
          },
          {
            "duration": 0.1559999999999775,
            "durationTicks": 39,
            "midi": 65,
            "name": "F4",
            "ticks": 59400,
            "time": 237.6,
            "velocity": 0.5039370078740157
          }
        ]
      },
      {
        "channel": 0,
        "controlChanges": {
          "7": [
            {
              "number": 7,
              "ticks": 0,
              "time": 0,
              "value": 0.889763779527559
            }
          ]
        },
        "pitchBends": [],
        "instrument": {
          "family": "piano",
          "number": 0,
          "name": "acoustic grand piano"
        },
        "name": "Tenor",
        "notes": [],
        "endOfTrackTicks": 51346
      },
      {
        "channel": 5,
        "controlChanges": {},
        "pitchBends": [],
        "instrument": {
          "family": "reed",
          "number": 66,
          "name": "tenor sax"
        },
        "name": "",
        "notes": [
          {
            "duration": 0.2360000000000042,
            "durationTicks": 59,
            "midi": 53,
            "name": "F3",
            "ticks": 24360,
            "time": 97.44,
            "velocity": 0.49606299212598426
          },
          {
            "duration": 0.10799999999998988,
            "durationTicks": 27,
            "midi": 51,
            "name": "D#3",
            "ticks": 24421,
            "time": 97.684,
            "velocity": 0.4409448818897638
          },
          {
            "duration": 0.20400000000000773,
            "durationTicks": 51,
            "midi": 53,
            "name": "F3",
            "ticks": 24481,
            "time": 97.92399999999999,
            "velocity": 0.5118110236220472
          },
          {
            "duration": 0.10800000000000409,
            "durationTicks": 27,
            "midi": 51,
            "name": "D#3",
            "ticks": 24540,
            "time": 98.16,
            "velocity": 0.4566929133858268
          },
          {
            "duration": 0.1839999999999975,
            "durationTicks": 46,
            "midi": 53,
            "name": "F3",
            "ticks": 24600,
            "time": 98.39999999999999,
            "velocity": 0.5118110236220472
          },
          {
            "duration": 0.1039999999999992,
            "durationTicks": 26,
            "midi": 51,
            "name": "D#3",
            "ticks": 24658,
            "time": 98.63199999999999,
            "velocity": 0.44881889763779526
          },
          {
            "duration": 0.24399999999999977,
            "durationTicks": 61,
            "midi": 58,
            "name": "A#3",
            "ticks": 24715,
            "time": 98.86,
            "velocity": 0.4645669291338583
          },
          {
            "duration": 0.480000000000004,
            "durationTicks": 120,
            "midi": 56,
            "name": "G#3",
            "ticks": 24804,
            "time": 99.216,
            "velocity": 0.47244094488188976
          },
          {
            "duration": 0.25600000000001444,
            "durationTicks": 64,
            "midi": 53,
            "name": "F3",
            "ticks": 25318,
            "time": 101.27199999999999,
            "velocity": 0.5118110236220472
          },
          {
            "duration": 0.19999999999998863,
            "durationTicks": 50,
            "midi": 51,
            "name": "D#3",
            "ticks": 25382,
            "time": 101.528,
            "velocity": 0.48031496062992124
          },
          {
            "duration": 0.22399999999998954,
            "durationTicks": 56,
            "midi": 56,
            "name": "G#3",
            "ticks": 25443,
            "time": 101.772,
            "velocity": 0.4881889763779528
          },
          {
            "duration": 0.2360000000000042,
            "durationTicks": 59,
            "midi": 55,
            "name": "G3",
            "ticks": 25498,
            "time": 101.99199999999999,
            "velocity": 0.4881889763779528
          },
          {
            "duration": 0.25199999999999534,
            "durationTicks": 63,
            "midi": 53,
            "name": "F3",
            "ticks": 25556,
            "time": 102.224,
            "velocity": 0.4645669291338583
          },
          {
            "duration": 0.11600000000001387,
            "durationTicks": 29,
            "midi": 51,
            "name": "D#3",
            "ticks": 25617,
            "time": 102.46799999999999,
            "velocity": 0.47244094488188976
          },
          {
            "duration": 0.3079999999999927,
            "durationTicks": 77,
            "midi": 51,
            "name": "D#3",
            "ticks": 25676,
            "time": 102.704,
            "velocity": 0.5433070866141733
          },
          {
            "duration": 0.4000000000000057,
            "durationTicks": 100,
            "midi": 53,
            "name": "F3",
            "ticks": 25771,
            "time": 103.08399999999999,
            "velocity": 0.5039370078740157
          },
          {
            "duration": 0.2360000000000042,
            "durationTicks": 59,
            "midi": 53,
            "name": "F3",
            "ticks": 26280,
            "time": 105.11999999999999,
            "velocity": 0.49606299212598426
          },
          {
            "duration": 0.10800000000000409,
            "durationTicks": 27,
            "midi": 51,
            "name": "D#3",
            "ticks": 26341,
            "time": 105.36399999999999,
            "velocity": 0.4409448818897638
          },
          {
            "duration": 0.20399999999999352,
            "durationTicks": 51,
            "midi": 53,
            "name": "F3",
            "ticks": 26401,
            "time": 105.604,
            "velocity": 0.5118110236220472
          },
          {
            "duration": 0.10800000000000409,
            "durationTicks": 27,
            "midi": 51,
            "name": "D#3",
            "ticks": 26460,
            "time": 105.83999999999999,
            "velocity": 0.4566929133858268
          },
          {
            "duration": 0.1839999999999975,
            "durationTicks": 46,
            "midi": 53,
            "name": "F3",
            "ticks": 26520,
            "time": 106.08,
            "velocity": 0.5118110236220472
          },
          {
            "duration": 0.10400000000001342,
            "durationTicks": 26,
            "midi": 51,
            "name": "D#3",
            "ticks": 26578,
            "time": 106.31199999999998,
            "velocity": 0.44881889763779526
          },
          {
            "duration": 0.24399999999998556,
            "durationTicks": 61,
            "midi": 58,
            "name": "A#3",
            "ticks": 26635,
            "time": 106.54,
            "velocity": 0.4645669291338583
          },
          {
            "duration": 0.480000000000004,
            "durationTicks": 120,
            "midi": 56,
            "name": "G#3",
            "ticks": 26724,
            "time": 106.89599999999999,
            "velocity": 0.47244094488188976
          },
          {
            "duration": 0.25600000000001444,
            "durationTicks": 64,
            "midi": 53,
            "name": "F3",
            "ticks": 27238,
            "time": 108.95199999999998,
            "velocity": 0.5118110236220472
          },
          {
            "duration": 0.20000000000000284,
            "durationTicks": 50,
            "midi": 51,
            "name": "D#3",
            "ticks": 27302,
            "time": 109.208,
            "velocity": 0.48031496062992124
          },
          {
            "duration": 0.22400000000000375,
            "durationTicks": 56,
            "midi": 56,
            "name": "G#3",
            "ticks": 27363,
            "time": 109.452,
            "velocity": 0.4881889763779528
          },
          {
            "duration": 0.2360000000000042,
            "durationTicks": 59,
            "midi": 55,
            "name": "G3",
            "ticks": 27418,
            "time": 109.67199999999998,
            "velocity": 0.4881889763779528
          },
          {
            "duration": 0.25200000000000955,
            "durationTicks": 63,
            "midi": 53,
            "name": "F3",
            "ticks": 27476,
            "time": 109.904,
            "velocity": 0.4645669291338583
          },
          {
            "duration": 0.11599999999999966,
            "durationTicks": 29,
            "midi": 51,
            "name": "D#3",
            "ticks": 27537,
            "time": 110.148,
            "velocity": 0.47244094488188976
          },
          {
            "duration": 0.3079999999999927,
            "durationTicks": 77,
            "midi": 51,
            "name": "D#3",
            "ticks": 27596,
            "time": 110.384,
            "velocity": 0.5433070866141733
          },
          {
            "duration": 0.4000000000000057,
            "durationTicks": 100,
            "midi": 53,
            "name": "F3",
            "ticks": 27691,
            "time": 110.764,
            "velocity": 0.5039370078740157
          },
          {
            "duration": 0.12399999999999523,
            "durationTicks": 31,
            "midi": 46,
            "name": "A#2",
            "ticks": 48180,
            "time": 192.72,
            "velocity": 0.6220472440944882
          },
          {
            "duration": 0.14000000000001478,
            "durationTicks": 35,
            "midi": 48,
            "name": "C3",
            "ticks": 48240,
            "time": 192.95999999999998,
            "velocity": 0.47244094488188976
          },
          {
            "duration": 0.14400000000000546,
            "durationTicks": 36,
            "midi": 46,
            "name": "A#2",
            "ticks": 48300,
            "time": 193.2,
            "velocity": 0.5433070866141733
          },
          {
            "duration": 0.14400000000000546,
            "durationTicks": 36,
            "midi": 48,
            "name": "C3",
            "ticks": 48360,
            "time": 193.44,
            "velocity": 0.5275590551181102
          },
          {
            "duration": 0.14400000000000546,
            "durationTicks": 36,
            "midi": 46,
            "name": "A#2",
            "ticks": 48420,
            "time": 193.68,
            "velocity": 0.5905511811023622
          },
          {
            "duration": 0.12000000000000455,
            "durationTicks": 30,
            "midi": 46,
            "name": "A#2",
            "ticks": 49140,
            "time": 196.56,
            "velocity": 0.4881889763779528
          },
          {
            "duration": 0.14000000000001478,
            "durationTicks": 35,
            "midi": 48,
            "name": "C3",
            "ticks": 49200,
            "time": 196.79999999999998,
            "velocity": 0.47244094488188976
          },
          {
            "duration": 0.18000000000000682,
            "durationTicks": 45,
            "midi": 46,
            "name": "A#2",
            "ticks": 49260,
            "time": 197.04,
            "velocity": 0.4566929133858268
          },
          {
            "duration": 0.21599999999997976,
            "durationTicks": 54,
            "midi": 48,
            "name": "C3",
            "ticks": 49320,
            "time": 197.28,
            "velocity": 0.4881889763779528
          },
          {
            "duration": 0.1839999999999975,
            "durationTicks": 46,
            "midi": 51,
            "name": "D#3",
            "ticks": 49380,
            "time": 197.51999999999998,
            "velocity": 0.5118110236220472
          },
          {
            "duration": 0.12399999999999523,
            "durationTicks": 31,
            "midi": 46,
            "name": "A#2",
            "ticks": 50100,
            "time": 200.4,
            "velocity": 0.6220472440944882
          },
          {
            "duration": 0.14000000000001478,
            "durationTicks": 35,
            "midi": 48,
            "name": "C3",
            "ticks": 50160,
            "time": 200.64,
            "velocity": 0.47244094488188976
          },
          {
            "duration": 0.14400000000000546,
            "durationTicks": 36,
            "midi": 46,
            "name": "A#2",
            "ticks": 50220,
            "time": 200.88,
            "velocity": 0.5433070866141733
          },
          {
            "duration": 0.14400000000000546,
            "durationTicks": 36,
            "midi": 48,
            "name": "C3",
            "ticks": 50280,
            "time": 201.12,
            "velocity": 0.5275590551181102
          },
          {
            "duration": 0.14400000000000546,
            "durationTicks": 36,
            "midi": 46,
            "name": "A#2",
            "ticks": 50340,
            "time": 201.35999999999999,
            "velocity": 0.5905511811023622
          },
          {
            "duration": 0.12000000000000455,
            "durationTicks": 30,
            "midi": 46,
            "name": "A#2",
            "ticks": 51060,
            "time": 204.23999999999998,
            "velocity": 0.4881889763779528
          },
          {
            "duration": 0.14000000000001478,
            "durationTicks": 35,
            "midi": 48,
            "name": "C3",
            "ticks": 51120,
            "time": 204.48,
            "velocity": 0.47244094488188976
          },
          {
            "duration": 0.18000000000000682,
            "durationTicks": 45,
            "midi": 46,
            "name": "A#2",
            "ticks": 51180,
            "time": 204.72,
            "velocity": 0.4566929133858268
          },
          {
            "duration": 0.21600000000000819,
            "durationTicks": 54,
            "midi": 48,
            "name": "C3",
            "ticks": 51240,
            "time": 204.95999999999998,
            "velocity": 0.4881889763779528
          },
          {
            "duration": 0.1839999999999975,
            "durationTicks": 46,
            "midi": 51,
            "name": "D#3",
            "ticks": 51300,
            "time": 205.2,
            "velocity": 0.5118110236220472
          }
        ]
      },
      {
        "channel": 0,
        "controlChanges": {
          "7": [
            {
              "number": 7,
              "ticks": 0,
              "time": 0,
              "value": 0.905511811023622
            }
          ]
        },
        "pitchBends": [],
        "instrument": {
          "family": "piano",
          "number": 0,
          "name": "acoustic grand piano"
        },
        "name": "Vocal",
        "notes": [],
        "endOfTrackTicks": 59435
      },
      {
        "channel": 6,
        "controlChanges": {},
        "pitchBends": [
          {
            "ticks": 49625,
            "time": 198.5,
            "value": 0.09521484375
          },
          {
            "ticks": 49625,
            "time": 198.5,
            "value": 0.03173828125
          },
          {
            "ticks": 49626,
            "time": 198.504,
            "value": 0.15869140625
          },
          {
            "ticks": 49628,
            "time": 198.512,
            "value": 0.301513671875
          },
          {
            "ticks": 49628,
            "time": 198.512,
            "value": 0.238037109375
          },
          {
            "ticks": 49629,
            "time": 198.516,
            "value": 0.380859375
          },
          {
            "ticks": 49630,
            "time": 198.51999999999998,
            "value": 0.428466796875
          },
          {
            "ticks": 49631,
            "time": 198.52399999999997,
            "value": 0.491943359375
          },
          {
            "ticks": 49631,
            "time": 198.52399999999997,
            "value": 0.523681640625
          },
          {
            "ticks": 49633,
            "time": 198.532,
            "value": 0.60302734375
          },
          {
            "ticks": 49633,
            "time": 198.532,
            "value": 0.5712890625
          },
          {
            "ticks": 49634,
            "time": 198.536,
            "value": 0.634765625
          },
          {
            "ticks": 49635,
            "time": 198.54,
            "value": 0.66650390625
          },
          {
            "ticks": 49635,
            "time": 198.54,
            "value": 0.6982421875
          },
          {
            "ticks": 49636,
            "time": 198.54399999999998,
            "value": 0.72998046875
          },
          {
            "ticks": 49638,
            "time": 198.552,
            "value": 0.745849609375
          },
          {
            "ticks": 49638,
            "time": 198.552,
            "value": 0.777587890625
          },
          {
            "ticks": 49639,
            "time": 198.556,
            "value": 0.79345703125
          },
          {
            "ticks": 49640,
            "time": 198.56,
            "value": 0.8251953125
          },
          {
            "ticks": 49640,
            "time": 198.56,
            "value": 0.841064453125
          },
          {
            "ticks": 49641,
            "time": 198.564,
            "value": 0.85693359375
          },
          {
            "ticks": 49642,
            "time": 198.56799999999998,
            "value": 0.888671875
          },
          {
            "ticks": 49643,
            "time": 198.572,
            "value": 0.904541015625
          },
          {
            "ticks": 49645,
            "time": 198.57999999999998,
            "value": 0.92041015625
          },
          {
            "ticks": 49645,
            "time": 198.57999999999998,
            "value": 0.9521484375
          },
          {
            "ticks": 49646,
            "time": 198.58399999999997,
            "value": 0.968017578125
          },
          {
            "ticks": 49646,
            "time": 198.58399999999997,
            "value": 0.98388671875
          },
          {
            "ticks": 49647,
            "time": 198.588,
            "value": 0.999755859375
          },
          {
            "ticks": 49794,
            "time": 199.176,
            "value": 0.936279296875
          },
          {
            "ticks": 49794,
            "time": 199.176,
            "value": 0.968017578125
          },
          {
            "ticks": 49795,
            "time": 199.17999999999998,
            "value": 0.888671875
          },
          {
            "ticks": 49795,
            "time": 199.17999999999998,
            "value": 0.85693359375
          },
          {
            "ticks": 49796,
            "time": 199.18399999999997,
            "value": 0.809326171875
          },
          {
            "ticks": 49798,
            "time": 199.192,
            "value": 0.745849609375
          },
          {
            "ticks": 49798,
            "time": 199.192,
            "value": 0.777587890625
          },
          {
            "ticks": 49798,
            "time": 199.192,
            "value": 0.6982421875
          },
          {
            "ticks": 49800,
            "time": 199.2,
            "value": 0.618896484375
          },
          {
            "ticks": 49800,
            "time": 199.2,
            "value": 0.66650390625
          },
          {
            "ticks": 49800,
            "time": 199.2,
            "value": 0.491943359375
          },
          {
            "ticks": 49800,
            "time": 199.2,
            "value": 0.523681640625
          },
          {
            "ticks": 49800,
            "time": 199.2,
            "value": 0.587158203125
          },
          {
            "ticks": 49800,
            "time": 199.2,
            "value": 0.4443359375
          },
          {
            "ticks": 49800,
            "time": 199.2,
            "value": 0.380859375
          },
          {
            "ticks": 49805,
            "time": 199.22,
            "value": 0.3173828125
          },
          {
            "ticks": 49806,
            "time": 199.224,
            "value": 0.269775390625
          },
          {
            "ticks": 49807,
            "time": 199.228,
            "value": 0.22216796875
          },
          {
            "ticks": 49808,
            "time": 199.232,
            "value": 0.1904296875
          },
          {
            "ticks": 49809,
            "time": 199.236,
            "value": 0.142822265625
          },
          {
            "ticks": 49810,
            "time": 199.23999999999998,
            "value": 0.111083984375
          },
          {
            "ticks": 49811,
            "time": 199.24399999999997,
            "value": 0.0634765625
          },
          {
            "ticks": 49811,
            "time": 199.24399999999997,
            "value": 0
          },
          {
            "ticks": 49811,
            "time": 199.24399999999997,
            "value": 0.03173828125
          }
        ],
        "instrument": {
          "family": "brass",
          "number": 56,
          "name": "trumpet"
        },
        "name": "",
        "notes": [
          {
            "duration": 0.39199999999999946,
            "durationTicks": 98,
            "midi": 72,
            "name": "C5",
            "ticks": 6539,
            "time": 26.156,
            "velocity": 0.4645669291338583
          },
          {
            "duration": 0.14000000000000057,
            "durationTicks": 35,
            "midi": 72,
            "name": "C5",
            "ticks": 6658,
            "time": 26.631999999999998,
            "velocity": 0.4645669291338583
          },
          {
            "duration": 0.13200000000000145,
            "durationTicks": 33,
            "midi": 74,
            "name": "D5",
            "ticks": 6722,
            "time": 26.887999999999998,
            "velocity": 0.5669291338582677
          },
          {
            "duration": 0.12399999999999878,
            "durationTicks": 31,
            "midi": 77,
            "name": "F5",
            "ticks": 6723,
            "time": 26.892,
            "velocity": 0.49606299212598426
          },
          {
            "duration": 0.15199999999999747,
            "durationTicks": 38,
            "midi": 74,
            "name": "D5",
            "ticks": 6775,
            "time": 27.1,
            "velocity": 0.4645669291338583
          },
          {
            "duration": 0.13999999999999702,
            "durationTicks": 35,
            "midi": 77,
            "name": "F5",
            "ticks": 6775,
            "time": 27.1,
            "velocity": 0.3858267716535433
          },
          {
            "duration": 0.379999999999999,
            "durationTicks": 95,
            "midi": 77,
            "name": "F5",
            "ticks": 6838,
            "time": 27.352,
            "velocity": 0.4566929133858268
          },
          {
            "duration": 0.15200000000000102,
            "durationTicks": 38,
            "midi": 74,
            "name": "D5",
            "ticks": 6839,
            "time": 27.355999999999998,
            "velocity": 0.49606299212598426
          },
          {
            "duration": 0.17999999999999972,
            "durationTicks": 45,
            "midi": 74,
            "name": "D5",
            "ticks": 6890,
            "time": 27.56,
            "velocity": 0.3543307086614173
          },
          {
            "duration": 0.13999999999999702,
            "durationTicks": 35,
            "midi": 76,
            "name": "E5",
            "ticks": 6960,
            "time": 27.84,
            "velocity": 0.4645669291338583
          },
          {
            "duration": 0.12399999999999878,
            "durationTicks": 31,
            "midi": 72,
            "name": "C5",
            "ticks": 6960,
            "time": 27.84,
            "velocity": 0.4645669291338583
          },
          {
            "duration": 0.1280000000000001,
            "durationTicks": 32,
            "midi": 76,
            "name": "E5",
            "ticks": 7016,
            "time": 28.064,
            "velocity": 0.44881889763779526
          },
          {
            "duration": 0.11599999999999966,
            "durationTicks": 29,
            "midi": 72,
            "name": "C5",
            "ticks": 7017,
            "time": 28.068,
            "velocity": 0.44881889763779526
          },
          {
            "duration": 0.360000000000003,
            "durationTicks": 90,
            "midi": 76,
            "name": "E5",
            "ticks": 7076,
            "time": 28.304,
            "velocity": 0.4645669291338583
          },
          {
            "duration": 0.16399999999999793,
            "durationTicks": 41,
            "midi": 72,
            "name": "C5",
            "ticks": 7076,
            "time": 28.304,
            "velocity": 0.47244094488188976
          },
          {
            "duration": 0.16000000000000014,
            "durationTicks": 40,
            "midi": 72,
            "name": "C5",
            "ticks": 7129,
            "time": 28.516,
            "velocity": 0.3228346456692913
          },
          {
            "duration": 0.14000000000000057,
            "durationTicks": 35,
            "midi": 74,
            "name": "D5",
            "ticks": 7194,
            "time": 28.776,
            "velocity": 0.49606299212598426
          },
          {
            "duration": 0.13599999999999923,
            "durationTicks": 34,
            "midi": 71,
            "name": "B4",
            "ticks": 7195,
            "time": 28.78,
            "velocity": 0.48031496062992124
          },
          {
            "duration": 0.12399999999999878,
            "durationTicks": 31,
            "midi": 71,
            "name": "B4",
            "ticks": 7251,
            "time": 29.003999999999998,
            "velocity": 0.3779527559055118
          },
          {
            "duration": 0.13200000000000145,
            "durationTicks": 33,
            "midi": 74,
            "name": "D5",
            "ticks": 7251,
            "time": 29.003999999999998,
            "velocity": 0.4409448818897638
          },
          {
            "duration": 0.1440000000000019,
            "durationTicks": 36,
            "midi": 74,
            "name": "D5",
            "ticks": 7313,
            "time": 29.252,
            "velocity": 0.4566929133858268
          },
          {
            "duration": 0.14399999999999835,
            "durationTicks": 36,
            "midi": 71,
            "name": "B4",
            "ticks": 7314,
            "time": 29.256,
            "velocity": 0.3937007874015748
          },
          {
            "duration": 0.10799999999999699,
            "durationTicks": 27,
            "midi": 74,
            "name": "D5",
            "ticks": 7373,
            "time": 29.492,
            "velocity": 0.4251968503937008
          },
          {
            "duration": 0.120000000000001,
            "durationTicks": 30,
            "midi": 71,
            "name": "B4",
            "ticks": 7374,
            "time": 29.496,
            "velocity": 0.3700787401574803
          },
          {
            "duration": 0.11600000000000321,
            "durationTicks": 29,
            "midi": 72,
            "name": "C5",
            "ticks": 7435,
            "time": 29.74,
            "velocity": 0.48031496062992124
          },
          {
            "duration": 0.120000000000001,
            "durationTicks": 30,
            "midi": 69,
            "name": "A4",
            "ticks": 7435,
            "time": 29.74,
            "velocity": 0.4566929133858268
          },
          {
            "duration": 0.1319999999999979,
            "durationTicks": 33,
            "midi": 72,
            "name": "C5",
            "ticks": 7493,
            "time": 29.972,
            "velocity": 0.41732283464566927
          },
          {
            "duration": 0.120000000000001,
            "durationTicks": 30,
            "midi": 69,
            "name": "A4",
            "ticks": 7494,
            "time": 29.976,
            "velocity": 0.3700787401574803
          },
          {
            "duration": 0.11599999999999966,
            "durationTicks": 29,
            "midi": 72,
            "name": "C5",
            "ticks": 7551,
            "time": 30.203999999999997,
            "velocity": 0.4645669291338583
          },
          {
            "duration": 0.120000000000001,
            "durationTicks": 30,
            "midi": 69,
            "name": "A4",
            "ticks": 7553,
            "time": 30.212,
            "velocity": 0.4251968503937008
          },
          {
            "duration": 1.7479999999999976,
            "durationTicks": 437,
            "midi": 67,
            "name": "G4",
            "ticks": 7616,
            "time": 30.464,
            "velocity": 0.4566929133858268
          },
          {
            "duration": 1.7879999999999967,
            "durationTicks": 447,
            "midi": 71,
            "name": "B4",
            "ticks": 7616,
            "time": 30.464,
            "velocity": 0.5039370078740157
          },
          {
            "duration": 0.4239999999999995,
            "durationTicks": 106,
            "midi": 74,
            "name": "D5",
            "ticks": 8578,
            "time": 34.312,
            "velocity": 0.5118110236220472
          },
          {
            "duration": 0.3999999999999986,
            "durationTicks": 100,
            "midi": 77,
            "name": "F5",
            "ticks": 8580,
            "time": 34.32,
            "velocity": 0.4645669291338583
          },
          {
            "duration": 0.12400000000000233,
            "durationTicks": 31,
            "midi": 74,
            "name": "D5",
            "ticks": 8700,
            "time": 34.8,
            "velocity": 0.4881889763779528
          },
          {
            "duration": 0.132000000000005,
            "durationTicks": 33,
            "midi": 77,
            "name": "F5",
            "ticks": 8700,
            "time": 34.8,
            "velocity": 0.4566929133858268
          },
          {
            "duration": 0.38000000000000256,
            "durationTicks": 95,
            "midi": 77,
            "name": "F5",
            "ticks": 8756,
            "time": 35.024,
            "velocity": 0.44881889763779526
          },
          {
            "duration": 0.4200000000000017,
            "durationTicks": 105,
            "midi": 74,
            "name": "D5",
            "ticks": 8758,
            "time": 35.032,
            "velocity": 0.49606299212598426
          },
          {
            "duration": 0.15200000000000102,
            "durationTicks": 38,
            "midi": 76,
            "name": "E5",
            "ticks": 8885,
            "time": 35.54,
            "velocity": 0.4645669291338583
          },
          {
            "duration": 0.1280000000000001,
            "durationTicks": 32,
            "midi": 72,
            "name": "C5",
            "ticks": 8885,
            "time": 35.54,
            "velocity": 0.47244094488188976
          },
          {
            "duration": 0.13999999999999346,
            "durationTicks": 35,
            "midi": 76,
            "name": "E5",
            "ticks": 8941,
            "time": 35.764,
            "velocity": 0.4330708661417323
          },
          {
            "duration": 0.1319999999999979,
            "durationTicks": 33,
            "midi": 72,
            "name": "C5",
            "ticks": 8942,
            "time": 35.768,
            "velocity": 0.44881889763779526
          },
          {
            "duration": 0.38800000000000523,
            "durationTicks": 97,
            "midi": 72,
            "name": "C5",
            "ticks": 8999,
            "time": 35.995999999999995,
            "velocity": 0.48031496062992124
          },
          {
            "duration": 0.35600000000000165,
            "durationTicks": 89,
            "midi": 76,
            "name": "E5",
            "ticks": 8999,
            "time": 35.995999999999995,
            "velocity": 0.48031496062992124
          },
          {
            "duration": 0.14399999999999835,
            "durationTicks": 36,
            "midi": 74,
            "name": "D5",
            "ticks": 9123,
            "time": 36.492000000000004,
            "velocity": 0.4645669291338583
          },
          {
            "duration": 0.11999999999999744,
            "durationTicks": 30,
            "midi": 71,
            "name": "B4",
            "ticks": 9126,
            "time": 36.504,
            "velocity": 0.4251968503937008
          },
          {
            "duration": 0.11999999999999744,
            "durationTicks": 30,
            "midi": 74,
            "name": "D5",
            "ticks": 9181,
            "time": 36.724000000000004,
            "velocity": 0.47244094488188976
          },
          {
            "duration": 0.10799999999999699,
            "durationTicks": 27,
            "midi": 71,
            "name": "B4",
            "ticks": 9183,
            "time": 36.732,
            "velocity": 0.41732283464566927
          },
          {
            "duration": 0.2839999999999989,
            "durationTicks": 71,
            "midi": 74,
            "name": "D5",
            "ticks": 9235,
            "time": 36.94,
            "velocity": 0.4645669291338583
          },
          {
            "duration": 0.29599999999999227,
            "durationTicks": 74,
            "midi": 71,
            "name": "B4",
            "ticks": 9236,
            "time": 36.944,
            "velocity": 0.4251968503937008
          },
          {
            "duration": 0.5799999999999983,
            "durationTicks": 145,
            "midi": 74,
            "name": "D5",
            "ticks": 9360,
            "time": 37.44,
            "velocity": 0.4645669291338583
          },
          {
            "duration": 0.5719999999999956,
            "durationTicks": 143,
            "midi": 67,
            "name": "G4",
            "ticks": 9361,
            "time": 37.444,
            "velocity": 0.4645669291338583
          },
          {
            "duration": 1.019999999999996,
            "durationTicks": 255,
            "midi": 67,
            "name": "G4",
            "ticks": 9534,
            "time": 38.136,
            "velocity": 0.4645669291338583
          },
          {
            "duration": 1.0600000000000023,
            "durationTicks": 265,
            "midi": 72,
            "name": "C5",
            "ticks": 9540,
            "time": 38.16,
            "velocity": 0.4645669291338583
          },
          {
            "duration": 0.17199999999999704,
            "durationTicks": 43,
            "midi": 72,
            "name": "C5",
            "ticks": 10559,
            "time": 42.236,
            "velocity": 0.4645669291338583
          },
          {
            "duration": 0.1560000000000059,
            "durationTicks": 39,
            "midi": 67,
            "name": "G4",
            "ticks": 10560,
            "time": 42.239999999999995,
            "velocity": 0.4251968503937008
          },
          {
            "duration": 0.1599999999999966,
            "durationTicks": 40,
            "midi": 72,
            "name": "C5",
            "ticks": 10618,
            "time": 42.472,
            "velocity": 0.44881889763779526
          },
          {
            "duration": 0.1560000000000059,
            "durationTicks": 39,
            "midi": 67,
            "name": "G4",
            "ticks": 10619,
            "time": 42.47599999999999,
            "velocity": 0.4094488188976378
          },
          {
            "duration": 0.17599999999999483,
            "durationTicks": 44,
            "midi": 70,
            "name": "A#4",
            "ticks": 10680,
            "time": 42.72,
            "velocity": 0.4645669291338583
          },
          {
            "duration": 0.13600000000000279,
            "durationTicks": 34,
            "midi": 65,
            "name": "F4",
            "ticks": 10684,
            "time": 42.736,
            "velocity": 0.47244094488188976
          },
          {
            "duration": 0.17599999999999483,
            "durationTicks": 44,
            "midi": 72,
            "name": "C5",
            "ticks": 10740,
            "time": 42.96,
            "velocity": 0.48031496062992124
          },
          {
            "duration": 0.17600000000000193,
            "durationTicks": 44,
            "midi": 67,
            "name": "G4",
            "ticks": 10742,
            "time": 42.967999999999996,
            "velocity": 0.5039370078740157
          },
          {
            "duration": 0.15200000000000102,
            "durationTicks": 38,
            "midi": 72,
            "name": "C5",
            "ticks": 11520,
            "time": 46.08,
            "velocity": 0.4645669291338583
          },
          {
            "duration": 0.15200000000000102,
            "durationTicks": 38,
            "midi": 67,
            "name": "G4",
            "ticks": 11520,
            "time": 46.08,
            "velocity": 0.4645669291338583
          },
          {
            "duration": 0.14000000000000767,
            "durationTicks": 35,
            "midi": 72,
            "name": "C5",
            "ticks": 11577,
            "time": 46.30799999999999,
            "velocity": 0.4645669291338583
          },
          {
            "duration": 0.1360000000000099,
            "durationTicks": 34,
            "midi": 67,
            "name": "G4",
            "ticks": 11577,
            "time": 46.30799999999999,
            "velocity": 0.41732283464566927
          },
          {
            "duration": 0.14399999999999835,
            "durationTicks": 36,
            "midi": 70,
            "name": "A#4",
            "ticks": 11636,
            "time": 46.544,
            "velocity": 0.47244094488188976
          },
          {
            "duration": 0.11200000000000188,
            "durationTicks": 28,
            "midi": 65,
            "name": "F4",
            "ticks": 11640,
            "time": 46.559999999999995,
            "velocity": 0.4645669291338583
          },
          {
            "duration": 0.19599999999999795,
            "durationTicks": 49,
            "midi": 72,
            "name": "C5",
            "ticks": 11695,
            "time": 46.779999999999994,
            "velocity": 0.48031496062992124
          },
          {
            "duration": 0.20400000000000063,
            "durationTicks": 51,
            "midi": 67,
            "name": "G4",
            "ticks": 11696,
            "time": 46.784,
            "velocity": 0.4881889763779528
          },
          {
            "duration": 0.15199999999999392,
            "durationTicks": 38,
            "midi": 72,
            "name": "C5",
            "ticks": 12480,
            "time": 49.92,
            "velocity": 0.47244094488188976
          },
          {
            "duration": 0.14399999999999835,
            "durationTicks": 36,
            "midi": 67,
            "name": "G4",
            "ticks": 12480,
            "time": 49.92,
            "velocity": 0.4645669291338583
          },
          {
            "duration": 0.13999999999999346,
            "durationTicks": 35,
            "midi": 72,
            "name": "C5",
            "ticks": 12541,
            "time": 50.164,
            "velocity": 0.47244094488188976
          },
          {
            "duration": 0.13999999999999346,
            "durationTicks": 35,
            "midi": 67,
            "name": "G4",
            "ticks": 12541,
            "time": 50.164,
            "velocity": 0.4645669291338583
          },
          {
            "duration": 0.14000000000000057,
            "durationTicks": 35,
            "midi": 70,
            "name": "A#4",
            "ticks": 12600,
            "time": 50.4,
            "velocity": 0.5275590551181102
          },
          {
            "duration": 0.1039999999999992,
            "durationTicks": 26,
            "midi": 65,
            "name": "F4",
            "ticks": 12604,
            "time": 50.416,
            "velocity": 0.49606299212598426
          },
          {
            "duration": 0.16400000000000148,
            "durationTicks": 41,
            "midi": 72,
            "name": "C5",
            "ticks": 12659,
            "time": 50.635999999999996,
            "velocity": 0.4881889763779528
          },
          {
            "duration": 0.1599999999999966,
            "durationTicks": 40,
            "midi": 67,
            "name": "G4",
            "ticks": 12660,
            "time": 50.64,
            "velocity": 0.47244094488188976
          },
          {
            "duration": 0.13599999999999568,
            "durationTicks": 34,
            "midi": 67,
            "name": "G4",
            "ticks": 16500,
            "time": 66,
            "velocity": 0.4645669291338583
          },
          {
            "duration": 0.17199999999999704,
            "durationTicks": 43,
            "midi": 70,
            "name": "A#4",
            "ticks": 16560,
            "time": 66.24,
            "velocity": 0.5905511811023622
          },
          {
            "duration": 0.1319999999999908,
            "durationTicks": 33,
            "midi": 67,
            "name": "G4",
            "ticks": 16620,
            "time": 66.48,
            "velocity": 0.41732283464566927
          },
          {
            "duration": 0.17199999999999704,
            "durationTicks": 43,
            "midi": 70,
            "name": "A#4",
            "ticks": 16680,
            "time": 66.72,
            "velocity": 0.6614173228346457
          },
          {
            "duration": 0.15200000000000102,
            "durationTicks": 38,
            "midi": 67,
            "name": "G4",
            "ticks": 16740,
            "time": 66.96,
            "velocity": 0.4409448818897638
          },
          {
            "duration": 0.132000000000005,
            "durationTicks": 33,
            "midi": 72,
            "name": "C5",
            "ticks": 16980,
            "time": 67.92,
            "velocity": 0.47244094488188976
          },
          {
            "duration": 0.132000000000005,
            "durationTicks": 33,
            "midi": 72,
            "name": "C5",
            "ticks": 17040,
            "time": 68.16,
            "velocity": 0.5039370078740157
          },
          {
            "duration": 0.6039999999999992,
            "durationTicks": 151,
            "midi": 75,
            "name": "D#5",
            "ticks": 17100,
            "time": 68.39999999999999,
            "velocity": 0.6614173228346457
          },
          {
            "duration": 0.13599999999999568,
            "durationTicks": 34,
            "midi": 67,
            "name": "G4",
            "ticks": 17460,
            "time": 69.84,
            "velocity": 0.4645669291338583
          },
          {
            "duration": 0.15200000000000102,
            "durationTicks": 38,
            "midi": 70,
            "name": "A#4",
            "ticks": 17520,
            "time": 70.08,
            "velocity": 0.5905511811023622
          },
          {
            "duration": 0.14000000000000057,
            "durationTicks": 35,
            "midi": 67,
            "name": "G4",
            "ticks": 17580,
            "time": 70.32,
            "velocity": 0.4015748031496063
          },
          {
            "duration": 0.16799999999999216,
            "durationTicks": 42,
            "midi": 70,
            "name": "A#4",
            "ticks": 17640,
            "time": 70.56,
            "velocity": 0.5905511811023622
          },
          {
            "duration": 0.14000000000000057,
            "durationTicks": 35,
            "midi": 72,
            "name": "C5",
            "ticks": 17700,
            "time": 70.8,
            "velocity": 0.4881889763779528
          },
          {
            "duration": 0.132000000000005,
            "durationTicks": 33,
            "midi": 72,
            "name": "C5",
            "ticks": 17940,
            "time": 71.75999999999999,
            "velocity": 0.4645669291338583
          },
          {
            "duration": 0.132000000000005,
            "durationTicks": 33,
            "midi": 72,
            "name": "C5",
            "ticks": 18000,
            "time": 72,
            "velocity": 0.47244094488188976
          },
          {
            "duration": 0.5840000000000032,
            "durationTicks": 146,
            "midi": 63,
            "name": "D#4",
            "ticks": 18060,
            "time": 72.24,
            "velocity": 0.47244094488188976
          },
          {
            "duration": 0.1360000000000099,
            "durationTicks": 34,
            "midi": 67,
            "name": "G4",
            "ticks": 18420,
            "time": 73.67999999999999,
            "velocity": 0.4645669291338583
          },
          {
            "duration": 0.17199999999998283,
            "durationTicks": 43,
            "midi": 70,
            "name": "A#4",
            "ticks": 18480,
            "time": 73.92,
            "velocity": 0.5905511811023622
          },
          {
            "duration": 0.132000000000005,
            "durationTicks": 33,
            "midi": 67,
            "name": "G4",
            "ticks": 18540,
            "time": 74.16,
            "velocity": 0.41732283464566927
          },
          {
            "duration": 0.17199999999999704,
            "durationTicks": 43,
            "midi": 70,
            "name": "A#4",
            "ticks": 18600,
            "time": 74.39999999999999,
            "velocity": 0.6614173228346457
          },
          {
            "duration": 0.15200000000000102,
            "durationTicks": 38,
            "midi": 67,
            "name": "G4",
            "ticks": 18660,
            "time": 74.64,
            "velocity": 0.4409448818897638
          },
          {
            "duration": 0.132000000000005,
            "durationTicks": 33,
            "midi": 72,
            "name": "C5",
            "ticks": 18900,
            "time": 75.6,
            "velocity": 0.47244094488188976
          },
          {
            "duration": 0.1319999999999908,
            "durationTicks": 33,
            "midi": 72,
            "name": "C5",
            "ticks": 18960,
            "time": 75.84,
            "velocity": 0.5039370078740157
          },
          {
            "duration": 0.6039999999999992,
            "durationTicks": 151,
            "midi": 75,
            "name": "D#5",
            "ticks": 19020,
            "time": 76.08,
            "velocity": 0.6614173228346457
          },
          {
            "duration": 0.13599999999999568,
            "durationTicks": 34,
            "midi": 67,
            "name": "G4",
            "ticks": 19380,
            "time": 77.52,
            "velocity": 0.4645669291338583
          },
          {
            "duration": 0.15200000000000102,
            "durationTicks": 38,
            "midi": 70,
            "name": "A#4",
            "ticks": 19440,
            "time": 77.75999999999999,
            "velocity": 0.5905511811023622
          },
          {
            "duration": 0.13999999999998636,
            "durationTicks": 35,
            "midi": 67,
            "name": "G4",
            "ticks": 19500,
            "time": 78,
            "velocity": 0.4015748031496063
          },
          {
            "duration": 0.16800000000000637,
            "durationTicks": 42,
            "midi": 70,
            "name": "A#4",
            "ticks": 19560,
            "time": 78.24,
            "velocity": 0.5905511811023622
          },
          {
            "duration": 0.13999999999998636,
            "durationTicks": 35,
            "midi": 72,
            "name": "C5",
            "ticks": 19620,
            "time": 78.48,
            "velocity": 0.4881889763779528
          },
          {
            "duration": 0.132000000000005,
            "durationTicks": 33,
            "midi": 72,
            "name": "C5",
            "ticks": 19860,
            "time": 79.44,
            "velocity": 0.4645669291338583
          },
          {
            "duration": 0.132000000000005,
            "durationTicks": 33,
            "midi": 72,
            "name": "C5",
            "ticks": 19920,
            "time": 79.67999999999999,
            "velocity": 0.47244094488188976
          },
          {
            "duration": 0.5840000000000032,
            "durationTicks": 146,
            "midi": 63,
            "name": "D#4",
            "ticks": 19980,
            "time": 79.92,
            "velocity": 0.47244094488188976
          },
          {
            "duration": 0.13599999999999568,
            "durationTicks": 34,
            "midi": 67,
            "name": "G4",
            "ticks": 28020,
            "time": 112.08,
            "velocity": 0.4645669291338583
          },
          {
            "duration": 0.17199999999999704,
            "durationTicks": 43,
            "midi": 70,
            "name": "A#4",
            "ticks": 28080,
            "time": 112.32,
            "velocity": 0.5905511811023622
          },
          {
            "duration": 0.1319999999999908,
            "durationTicks": 33,
            "midi": 67,
            "name": "G4",
            "ticks": 28140,
            "time": 112.56,
            "velocity": 0.41732283464566927
          },
          {
            "duration": 0.17199999999999704,
            "durationTicks": 43,
            "midi": 70,
            "name": "A#4",
            "ticks": 28200,
            "time": 112.8,
            "velocity": 0.6614173228346457
          },
          {
            "duration": 0.15200000000000102,
            "durationTicks": 38,
            "midi": 67,
            "name": "G4",
            "ticks": 28260,
            "time": 113.03999999999999,
            "velocity": 0.4409448818897638
          },
          {
            "duration": 0.132000000000005,
            "durationTicks": 33,
            "midi": 72,
            "name": "C5",
            "ticks": 28500,
            "time": 114,
            "velocity": 0.47244094488188976
          },
          {
            "duration": 0.132000000000005,
            "durationTicks": 33,
            "midi": 72,
            "name": "C5",
            "ticks": 28560,
            "time": 114.24,
            "velocity": 0.5039370078740157
          },
          {
            "duration": 0.6039999999999992,
            "durationTicks": 151,
            "midi": 75,
            "name": "D#5",
            "ticks": 28620,
            "time": 114.47999999999999,
            "velocity": 0.6614173228346457
          },
          {
            "duration": 0.13599999999999568,
            "durationTicks": 34,
            "midi": 67,
            "name": "G4",
            "ticks": 28980,
            "time": 115.92,
            "velocity": 0.4645669291338583
          },
          {
            "duration": 0.15200000000000102,
            "durationTicks": 38,
            "midi": 70,
            "name": "A#4",
            "ticks": 29040,
            "time": 116.16,
            "velocity": 0.5905511811023622
          },
          {
            "duration": 0.14000000000000057,
            "durationTicks": 35,
            "midi": 67,
            "name": "G4",
            "ticks": 29100,
            "time": 116.39999999999999,
            "velocity": 0.4015748031496063
          },
          {
            "duration": 0.16799999999999216,
            "durationTicks": 42,
            "midi": 70,
            "name": "A#4",
            "ticks": 29160,
            "time": 116.64,
            "velocity": 0.5905511811023622
          },
          {
            "duration": 0.14000000000000057,
            "durationTicks": 35,
            "midi": 72,
            "name": "C5",
            "ticks": 29220,
            "time": 116.88,
            "velocity": 0.4881889763779528
          },
          {
            "duration": 0.132000000000005,
            "durationTicks": 33,
            "midi": 72,
            "name": "C5",
            "ticks": 29460,
            "time": 117.83999999999999,
            "velocity": 0.4645669291338583
          },
          {
            "duration": 0.132000000000005,
            "durationTicks": 33,
            "midi": 72,
            "name": "C5",
            "ticks": 29520,
            "time": 118.08,
            "velocity": 0.47244094488188976
          },
          {
            "duration": 0.5840000000000032,
            "durationTicks": 146,
            "midi": 63,
            "name": "D#4",
            "ticks": 29580,
            "time": 118.32,
            "velocity": 0.47244094488188976
          },
          {
            "duration": 0.1360000000000099,
            "durationTicks": 34,
            "midi": 67,
            "name": "G4",
            "ticks": 29940,
            "time": 119.75999999999999,
            "velocity": 0.4645669291338583
          },
          {
            "duration": 0.17199999999998283,
            "durationTicks": 43,
            "midi": 70,
            "name": "A#4",
            "ticks": 30000,
            "time": 120,
            "velocity": 0.5905511811023622
          },
          {
            "duration": 0.132000000000005,
            "durationTicks": 33,
            "midi": 67,
            "name": "G4",
            "ticks": 30060,
            "time": 120.24,
            "velocity": 0.41732283464566927
          },
          {
            "duration": 0.17199999999999704,
            "durationTicks": 43,
            "midi": 70,
            "name": "A#4",
            "ticks": 30120,
            "time": 120.47999999999999,
            "velocity": 0.6614173228346457
          },
          {
            "duration": 0.15200000000000102,
            "durationTicks": 38,
            "midi": 67,
            "name": "G4",
            "ticks": 30180,
            "time": 120.72,
            "velocity": 0.4409448818897638
          },
          {
            "duration": 0.132000000000005,
            "durationTicks": 33,
            "midi": 72,
            "name": "C5",
            "ticks": 30420,
            "time": 121.67999999999999,
            "velocity": 0.47244094488188976
          },
          {
            "duration": 0.1319999999999908,
            "durationTicks": 33,
            "midi": 72,
            "name": "C5",
            "ticks": 30480,
            "time": 121.92,
            "velocity": 0.5039370078740157
          },
          {
            "duration": 0.6039999999999992,
            "durationTicks": 151,
            "midi": 75,
            "name": "D#5",
            "ticks": 30540,
            "time": 122.16,
            "velocity": 0.6614173228346457
          },
          {
            "duration": 0.1360000000000099,
            "durationTicks": 34,
            "midi": 67,
            "name": "G4",
            "ticks": 30900,
            "time": 123.6,
            "velocity": 0.4645669291338583
          },
          {
            "duration": 0.15200000000000102,
            "durationTicks": 38,
            "midi": 70,
            "name": "A#4",
            "ticks": 30960,
            "time": 123.83999999999999,
            "velocity": 0.5905511811023622
          },
          {
            "duration": 0.14000000000000057,
            "durationTicks": 35,
            "midi": 67,
            "name": "G4",
            "ticks": 31020,
            "time": 124.08,
            "velocity": 0.4015748031496063
          },
          {
            "duration": 0.16800000000000637,
            "durationTicks": 42,
            "midi": 70,
            "name": "A#4",
            "ticks": 31080,
            "time": 124.32,
            "velocity": 0.5905511811023622
          },
          {
            "duration": 0.14000000000000057,
            "durationTicks": 35,
            "midi": 72,
            "name": "C5",
            "ticks": 31140,
            "time": 124.56,
            "velocity": 0.4881889763779528
          },
          {
            "duration": 0.1319999999999908,
            "durationTicks": 33,
            "midi": 72,
            "name": "C5",
            "ticks": 31380,
            "time": 125.52,
            "velocity": 0.4645669291338583
          },
          {
            "duration": 0.1319999999999908,
            "durationTicks": 33,
            "midi": 72,
            "name": "C5",
            "ticks": 31440,
            "time": 125.75999999999999,
            "velocity": 0.47244094488188976
          },
          {
            "duration": 0.583999999999989,
            "durationTicks": 146,
            "midi": 63,
            "name": "D#4",
            "ticks": 31500,
            "time": 126,
            "velocity": 0.47244094488188976
          },
          {
            "duration": 0.3919999999999959,
            "durationTicks": 98,
            "midi": 72,
            "name": "C5",
            "ticks": 38219,
            "time": 152.876,
            "velocity": 0.4645669291338583
          },
          {
            "duration": 0.13999999999998636,
            "durationTicks": 35,
            "midi": 72,
            "name": "C5",
            "ticks": 38338,
            "time": 153.352,
            "velocity": 0.4645669291338583
          },
          {
            "duration": 0.13200000000003342,
            "durationTicks": 33,
            "midi": 74,
            "name": "D5",
            "ticks": 38402,
            "time": 153.60799999999998,
            "velocity": 0.5669291338582677
          },
          {
            "duration": 0.12400000000002365,
            "durationTicks": 31,
            "midi": 77,
            "name": "F5",
            "ticks": 38403,
            "time": 153.612,
            "velocity": 0.49606299212598426
          },
          {
            "duration": 0.1519999999999868,
            "durationTicks": 38,
            "midi": 74,
            "name": "D5",
            "ticks": 38455,
            "time": 153.82,
            "velocity": 0.4645669291338583
          },
          {
            "duration": 0.14000000000001478,
            "durationTicks": 35,
            "midi": 77,
            "name": "F5",
            "ticks": 38455,
            "time": 153.82,
            "velocity": 0.3858267716535433
          },
          {
            "duration": 0.37999999999996703,
            "durationTicks": 95,
            "midi": 77,
            "name": "F5",
            "ticks": 38518,
            "time": 154.072,
            "velocity": 0.4566929133858268
          },
          {
            "duration": 0.15200000000001523,
            "durationTicks": 38,
            "midi": 74,
            "name": "D5",
            "ticks": 38519,
            "time": 154.076,
            "velocity": 0.49606299212598426
          },
          {
            "duration": 0.18000000000000682,
            "durationTicks": 45,
            "midi": 74,
            "name": "D5",
            "ticks": 38570,
            "time": 154.28,
            "velocity": 0.3543307086614173
          },
          {
            "duration": 0.14000000000001478,
            "durationTicks": 35,
            "midi": 76,
            "name": "E5",
            "ticks": 38640,
            "time": 154.56,
            "velocity": 0.4645669291338583
          },
          {
            "duration": 0.12399999999999523,
            "durationTicks": 31,
            "midi": 72,
            "name": "C5",
            "ticks": 38640,
            "time": 154.56,
            "velocity": 0.4645669291338583
          },
          {
            "duration": 0.12800000000001432,
            "durationTicks": 32,
            "midi": 76,
            "name": "E5",
            "ticks": 38696,
            "time": 154.784,
            "velocity": 0.44881889763779526
          },
          {
            "duration": 0.11599999999995703,
            "durationTicks": 29,
            "midi": 72,
            "name": "C5",
            "ticks": 38697,
            "time": 154.788,
            "velocity": 0.44881889763779526
          },
          {
            "duration": 0.36000000000001364,
            "durationTicks": 90,
            "midi": 76,
            "name": "E5",
            "ticks": 38756,
            "time": 155.02399999999997,
            "velocity": 0.4645669291338583
          },
          {
            "duration": 0.1640000000000157,
            "durationTicks": 41,
            "midi": 72,
            "name": "C5",
            "ticks": 38756,
            "time": 155.02399999999997,
            "velocity": 0.47244094488188976
          },
          {
            "duration": 0.15999999999996817,
            "durationTicks": 40,
            "midi": 72,
            "name": "C5",
            "ticks": 38809,
            "time": 155.23600000000002,
            "velocity": 0.3228346456692913
          },
          {
            "duration": 0.14000000000001478,
            "durationTicks": 35,
            "midi": 74,
            "name": "D5",
            "ticks": 38874,
            "time": 155.49599999999998,
            "velocity": 0.49606299212598426
          },
          {
            "duration": 0.1360000000000241,
            "durationTicks": 34,
            "midi": 71,
            "name": "B4",
            "ticks": 38875,
            "time": 155.49999999999997,
            "velocity": 0.48031496062992124
          },
          {
            "duration": 0.12399999999999523,
            "durationTicks": 31,
            "midi": 71,
            "name": "B4",
            "ticks": 38931,
            "time": 155.724,
            "velocity": 0.3779527559055118
          },
          {
            "duration": 0.132000000000005,
            "durationTicks": 33,
            "midi": 74,
            "name": "D5",
            "ticks": 38931,
            "time": 155.724,
            "velocity": 0.4409448818897638
          },
          {
            "duration": 0.14400000000000546,
            "durationTicks": 36,
            "midi": 74,
            "name": "D5",
            "ticks": 38993,
            "time": 155.97199999999998,
            "velocity": 0.4566929133858268
          },
          {
            "duration": 0.14400000000000546,
            "durationTicks": 36,
            "midi": 71,
            "name": "B4",
            "ticks": 38994,
            "time": 155.976,
            "velocity": 0.3937007874015748
          },
          {
            "duration": 0.10800000000000409,
            "durationTicks": 27,
            "midi": 74,
            "name": "D5",
            "ticks": 39053,
            "time": 156.212,
            "velocity": 0.4251968503937008
          },
          {
            "duration": 0.12000000000000455,
            "durationTicks": 30,
            "midi": 71,
            "name": "B4",
            "ticks": 39054,
            "time": 156.21599999999998,
            "velocity": 0.3700787401574803
          },
          {
            "duration": 0.11600000000001387,
            "durationTicks": 29,
            "midi": 72,
            "name": "C5",
            "ticks": 39115,
            "time": 156.45999999999998,
            "velocity": 0.48031496062992124
          },
          {
            "duration": 0.12000000000000455,
            "durationTicks": 30,
            "midi": 69,
            "name": "A4",
            "ticks": 39115,
            "time": 156.45999999999998,
            "velocity": 0.4566929133858268
          },
          {
            "duration": 0.132000000000005,
            "durationTicks": 33,
            "midi": 72,
            "name": "C5",
            "ticks": 39173,
            "time": 156.69199999999998,
            "velocity": 0.41732283464566927
          },
          {
            "duration": 0.12000000000000455,
            "durationTicks": 30,
            "midi": 69,
            "name": "A4",
            "ticks": 39174,
            "time": 156.696,
            "velocity": 0.3700787401574803
          },
          {
            "duration": 0.11599999999998545,
            "durationTicks": 29,
            "midi": 72,
            "name": "C5",
            "ticks": 39231,
            "time": 156.924,
            "velocity": 0.4645669291338583
          },
          {
            "duration": 0.12000000000000455,
            "durationTicks": 30,
            "midi": 69,
            "name": "A4",
            "ticks": 39233,
            "time": 156.932,
            "velocity": 0.4251968503937008
          },
          {
            "duration": 1.7480000000000189,
            "durationTicks": 437,
            "midi": 67,
            "name": "G4",
            "ticks": 39296,
            "time": 157.18399999999997,
            "velocity": 0.4566929133858268
          },
          {
            "duration": 1.788000000000011,
            "durationTicks": 447,
            "midi": 71,
            "name": "B4",
            "ticks": 39296,
            "time": 157.18399999999997,
            "velocity": 0.5039370078740157
          },
          {
            "duration": 0.42399999999997817,
            "durationTicks": 106,
            "midi": 74,
            "name": "D5",
            "ticks": 40258,
            "time": 161.032,
            "velocity": 0.5118110236220472
          },
          {
            "duration": 0.4000000000000057,
            "durationTicks": 100,
            "midi": 77,
            "name": "F5",
            "ticks": 40260,
            "time": 161.04,
            "velocity": 0.4645669291338583
          },
          {
            "duration": 0.12399999999999523,
            "durationTicks": 31,
            "midi": 74,
            "name": "D5",
            "ticks": 40380,
            "time": 161.51999999999998,
            "velocity": 0.4881889763779528
          },
          {
            "duration": 0.132000000000005,
            "durationTicks": 33,
            "midi": 77,
            "name": "F5",
            "ticks": 40380,
            "time": 161.51999999999998,
            "velocity": 0.4566929133858268
          },
          {
            "duration": 0.3800000000000239,
            "durationTicks": 95,
            "midi": 77,
            "name": "F5",
            "ticks": 40436,
            "time": 161.74399999999997,
            "velocity": 0.44881889763779526
          },
          {
            "duration": 0.4199999999999875,
            "durationTicks": 105,
            "midi": 74,
            "name": "D5",
            "ticks": 40438,
            "time": 161.752,
            "velocity": 0.49606299212598426
          },
          {
            "duration": 0.15200000000001523,
            "durationTicks": 38,
            "midi": 76,
            "name": "E5",
            "ticks": 40565,
            "time": 162.26,
            "velocity": 0.4645669291338583
          },
          {
            "duration": 0.12800000000001432,
            "durationTicks": 32,
            "midi": 72,
            "name": "C5",
            "ticks": 40565,
            "time": 162.26,
            "velocity": 0.47244094488188976
          },
          {
            "duration": 0.14000000000001478,
            "durationTicks": 35,
            "midi": 76,
            "name": "E5",
            "ticks": 40621,
            "time": 162.48399999999998,
            "velocity": 0.4330708661417323
          },
          {
            "duration": 0.132000000000005,
            "durationTicks": 33,
            "midi": 72,
            "name": "C5",
            "ticks": 40622,
            "time": 162.488,
            "velocity": 0.44881889763779526
          },
          {
            "duration": 0.38800000000000523,
            "durationTicks": 97,
            "midi": 72,
            "name": "C5",
            "ticks": 40679,
            "time": 162.716,
            "velocity": 0.48031496062992124
          },
          {
            "duration": 0.35599999999999454,
            "durationTicks": 89,
            "midi": 76,
            "name": "E5",
            "ticks": 40679,
            "time": 162.716,
            "velocity": 0.48031496062992124
          },
          {
            "duration": 0.14400000000000546,
            "durationTicks": 36,
            "midi": 74,
            "name": "D5",
            "ticks": 40803,
            "time": 163.212,
            "velocity": 0.4645669291338583
          },
          {
            "duration": 0.12000000000000455,
            "durationTicks": 30,
            "midi": 71,
            "name": "B4",
            "ticks": 40806,
            "time": 163.224,
            "velocity": 0.4251968503937008
          },
          {
            "duration": 0.12000000000000455,
            "durationTicks": 30,
            "midi": 74,
            "name": "D5",
            "ticks": 40861,
            "time": 163.444,
            "velocity": 0.47244094488188976
          },
          {
            "duration": 0.10800000000003251,
            "durationTicks": 27,
            "midi": 71,
            "name": "B4",
            "ticks": 40863,
            "time": 163.45199999999997,
            "velocity": 0.41732283464566927
          },
          {
            "duration": 0.2839999999999918,
            "durationTicks": 71,
            "midi": 74,
            "name": "D5",
            "ticks": 40915,
            "time": 163.66,
            "velocity": 0.4645669291338583
          },
          {
            "duration": 0.29599999999999227,
            "durationTicks": 74,
            "midi": 71,
            "name": "B4",
            "ticks": 40916,
            "time": 163.664,
            "velocity": 0.4251968503937008
          },
          {
            "duration": 0.5799999999999841,
            "durationTicks": 145,
            "midi": 74,
            "name": "D5",
            "ticks": 41040,
            "time": 164.16,
            "velocity": 0.4645669291338583
          },
          {
            "duration": 0.5720000000000027,
            "durationTicks": 143,
            "midi": 67,
            "name": "G4",
            "ticks": 41041,
            "time": 164.164,
            "velocity": 0.4645669291338583
          },
          {
            "duration": 1.0199999999999818,
            "durationTicks": 255,
            "midi": 67,
            "name": "G4",
            "ticks": 41214,
            "time": 164.856,
            "velocity": 0.4645669291338583
          },
          {
            "duration": 1.0600000000000023,
            "durationTicks": 265,
            "midi": 72,
            "name": "C5",
            "ticks": 41220,
            "time": 164.88,
            "velocity": 0.4645669291338583
          },
          {
            "duration": 0.17200000000002547,
            "durationTicks": 43,
            "midi": 72,
            "name": "C5",
            "ticks": 42239,
            "time": 168.956,
            "velocity": 0.4645669291338583
          },
          {
            "duration": 0.1560000000000059,
            "durationTicks": 39,
            "midi": 67,
            "name": "G4",
            "ticks": 42240,
            "time": 168.95999999999998,
            "velocity": 0.4251968503937008
          },
          {
            "duration": 0.1599999999999966,
            "durationTicks": 40,
            "midi": 72,
            "name": "C5",
            "ticks": 42298,
            "time": 169.192,
            "velocity": 0.44881889763779526
          },
          {
            "duration": 0.1560000000000059,
            "durationTicks": 39,
            "midi": 67,
            "name": "G4",
            "ticks": 42299,
            "time": 169.196,
            "velocity": 0.4094488188976378
          },
          {
            "duration": 0.17599999999998772,
            "durationTicks": 44,
            "midi": 70,
            "name": "A#4",
            "ticks": 42360,
            "time": 169.44,
            "velocity": 0.4645669291338583
          },
          {
            "duration": 0.13599999999996726,
            "durationTicks": 34,
            "midi": 65,
            "name": "F4",
            "ticks": 42364,
            "time": 169.45600000000002,
            "velocity": 0.47244094488188976
          },
          {
            "duration": 0.17599999999998772,
            "durationTicks": 44,
            "midi": 72,
            "name": "C5",
            "ticks": 42420,
            "time": 169.68,
            "velocity": 0.48031496062992124
          },
          {
            "duration": 0.17599999999998772,
            "durationTicks": 44,
            "midi": 67,
            "name": "G4",
            "ticks": 42422,
            "time": 169.688,
            "velocity": 0.5039370078740157
          },
          {
            "duration": 0.15200000000001523,
            "durationTicks": 38,
            "midi": 72,
            "name": "C5",
            "ticks": 43200,
            "time": 172.79999999999998,
            "velocity": 0.4645669291338583
          },
          {
            "duration": 0.15200000000001523,
            "durationTicks": 38,
            "midi": 67,
            "name": "G4",
            "ticks": 43200,
            "time": 172.79999999999998,
            "velocity": 0.4645669291338583
          },
          {
            "duration": 0.13999999999998636,
            "durationTicks": 35,
            "midi": 72,
            "name": "C5",
            "ticks": 43257,
            "time": 173.028,
            "velocity": 0.4645669291338583
          },
          {
            "duration": 0.13599999999999568,
            "durationTicks": 34,
            "midi": 67,
            "name": "G4",
            "ticks": 43257,
            "time": 173.028,
            "velocity": 0.41732283464566927
          },
          {
            "duration": 0.14400000000000546,
            "durationTicks": 36,
            "midi": 70,
            "name": "A#4",
            "ticks": 43316,
            "time": 173.26399999999998,
            "velocity": 0.47244094488188976
          },
          {
            "duration": 0.11199999999999477,
            "durationTicks": 28,
            "midi": 65,
            "name": "F4",
            "ticks": 43320,
            "time": 173.28,
            "velocity": 0.4645669291338583
          },
          {
            "duration": 0.19600000000002638,
            "durationTicks": 49,
            "midi": 72,
            "name": "C5",
            "ticks": 43375,
            "time": 173.49999999999997,
            "velocity": 0.48031496062992124
          },
          {
            "duration": 0.20400000000000773,
            "durationTicks": 51,
            "midi": 67,
            "name": "G4",
            "ticks": 43376,
            "time": 173.504,
            "velocity": 0.4881889763779528
          },
          {
            "duration": 0.15200000000001523,
            "durationTicks": 38,
            "midi": 72,
            "name": "C5",
            "ticks": 44160,
            "time": 176.64,
            "velocity": 0.47244094488188976
          },
          {
            "duration": 0.14400000000000546,
            "durationTicks": 36,
            "midi": 67,
            "name": "G4",
            "ticks": 44160,
            "time": 176.64,
            "velocity": 0.4645669291338583
          },
          {
            "duration": 0.14000000000001478,
            "durationTicks": 35,
            "midi": 72,
            "name": "C5",
            "ticks": 44221,
            "time": 176.884,
            "velocity": 0.47244094488188976
          },
          {
            "duration": 0.14000000000001478,
            "durationTicks": 35,
            "midi": 67,
            "name": "G4",
            "ticks": 44221,
            "time": 176.884,
            "velocity": 0.4645669291338583
          },
          {
            "duration": 0.13999999999998636,
            "durationTicks": 35,
            "midi": 70,
            "name": "A#4",
            "ticks": 44280,
            "time": 177.12,
            "velocity": 0.5275590551181102
          },
          {
            "duration": 0.103999999999985,
            "durationTicks": 26,
            "midi": 65,
            "name": "F4",
            "ticks": 44284,
            "time": 177.136,
            "velocity": 0.49606299212598426
          },
          {
            "duration": 0.16399999999998727,
            "durationTicks": 41,
            "midi": 72,
            "name": "C5",
            "ticks": 44339,
            "time": 177.356,
            "velocity": 0.4881889763779528
          },
          {
            "duration": 0.1599999999999966,
            "durationTicks": 40,
            "midi": 67,
            "name": "G4",
            "ticks": 44340,
            "time": 177.35999999999999,
            "velocity": 0.47244094488188976
          },
          {
            "duration": 0.1279999999999859,
            "durationTicks": 32,
            "midi": 72,
            "name": "C5",
            "ticks": 48660,
            "time": 194.64,
            "velocity": 0.5905511811023622
          },
          {
            "duration": 0.13199999999997658,
            "durationTicks": 33,
            "midi": 72,
            "name": "C5",
            "ticks": 48720,
            "time": 194.88,
            "velocity": 0.6614173228346457
          },
          {
            "duration": 0.5960000000000036,
            "durationTicks": 149,
            "midi": 75,
            "name": "D#5",
            "ticks": 48780,
            "time": 195.12,
            "velocity": 0.5905511811023622
          },
          {
            "duration": 0.3200000000000216,
            "durationTicks": 80,
            "midi": 75,
            "name": "D#5",
            "ticks": 49614,
            "time": 198.456,
            "velocity": 0.5905511811023622
          },
          {
            "duration": 0.24399999999999977,
            "durationTicks": 61,
            "midi": 75,
            "name": "D#5",
            "ticks": 49718,
            "time": 198.87199999999999,
            "velocity": 0.6220472440944882
          },
          {
            "duration": 0.38400000000001455,
            "durationTicks": 96,
            "midi": 75,
            "name": "D#5",
            "ticks": 49800,
            "time": 199.2,
            "velocity": 0.5826771653543307
          },
          {
            "duration": 0.1360000000000241,
            "durationTicks": 34,
            "midi": 72,
            "name": "C5",
            "ticks": 50580,
            "time": 202.32,
            "velocity": 0.4881889763779528
          },
          {
            "duration": 0.020000000000010232,
            "durationTicks": 5,
            "midi": 71,
            "name": "B4",
            "ticks": 50640,
            "time": 202.56,
            "velocity": 0.4645669291338583
          },
          {
            "duration": 0.09599999999997522,
            "durationTicks": 24,
            "midi": 72,
            "name": "C5",
            "ticks": 50640,
            "time": 202.56,
            "velocity": 0.4645669291338583
          },
          {
            "duration": 0.4519999999999982,
            "durationTicks": 113,
            "midi": 72,
            "name": "C5",
            "ticks": 50700,
            "time": 202.79999999999998,
            "velocity": 0.5118110236220472
          },
          {
            "duration": 0.12399999999999523,
            "durationTicks": 31,
            "midi": 70,
            "name": "A#4",
            "ticks": 50790,
            "time": 203.16,
            "velocity": 0.4409448818897638
          },
          {
            "duration": 0.103999999999985,
            "durationTicks": 26,
            "midi": 67,
            "name": "G4",
            "ticks": 50820,
            "time": 203.28,
            "velocity": 0.3779527559055118
          },
          {
            "duration": 0.12399999999999523,
            "durationTicks": 31,
            "midi": 65,
            "name": "F4",
            "ticks": 50850,
            "time": 203.4,
            "velocity": 0.4645669291338583
          },
          {
            "duration": 0.17200000000002547,
            "durationTicks": 43,
            "midi": 63,
            "name": "D#4",
            "ticks": 50880,
            "time": 203.51999999999998,
            "velocity": 0.6614173228346457
          },
          {
            "duration": 0.3240000000000123,
            "durationTicks": 81,
            "midi": 79,
            "name": "G5",
            "ticks": 51483,
            "time": 205.932,
            "velocity": 0.4645669291338583
          },
          {
            "duration": 0.2160000000000366,
            "durationTicks": 54,
            "midi": 79,
            "name": "G5",
            "ticks": 51603,
            "time": 206.41199999999998,
            "velocity": 0.47244094488188976
          },
          {
            "duration": 0.14400000000000546,
            "durationTicks": 36,
            "midi": 77,
            "name": "F5",
            "ticks": 51659,
            "time": 206.636,
            "velocity": 0.3937007874015748
          },
          {
            "duration": 0.20000000000001705,
            "durationTicks": 50,
            "midi": 75,
            "name": "D#5",
            "ticks": 51715,
            "time": 206.85999999999999,
            "velocity": 0.5905511811023622
          },
          {
            "duration": 0.6839999999999975,
            "durationTicks": 171,
            "midi": 72,
            "name": "C5",
            "ticks": 51780,
            "time": 207.12,
            "velocity": 0.48031496062992124
          },
          {
            "duration": 0.11199999999999477,
            "durationTicks": 28,
            "midi": 70,
            "name": "A#4",
            "ticks": 55860,
            "time": 223.44,
            "velocity": 0.5905511811023622
          },
          {
            "duration": 0.15200000000001523,
            "durationTicks": 38,
            "midi": 72,
            "name": "C5",
            "ticks": 55920,
            "time": 223.67999999999998,
            "velocity": 0.44881889763779526
          },
          {
            "duration": 0.132000000000005,
            "durationTicks": 33,
            "midi": 70,
            "name": "A#4",
            "ticks": 55980,
            "time": 223.92,
            "velocity": 0.5669291338582677
          },
          {
            "duration": 0.12000000000000455,
            "durationTicks": 30,
            "midi": 72,
            "name": "C5",
            "ticks": 56040,
            "time": 224.16,
            "velocity": 0.4645669291338583
          },
          {
            "duration": 0.799999999999983,
            "durationTicks": 200,
            "midi": 75,
            "name": "D#5",
            "ticks": 56100,
            "time": 224.4,
            "velocity": 0.5433070866141733
          },
          {
            "duration": 0.132000000000005,
            "durationTicks": 33,
            "midi": 70,
            "name": "A#4",
            "ticks": 56340,
            "time": 225.35999999999999,
            "velocity": 0.5039370078740157
          },
          {
            "duration": 0.14000000000001478,
            "durationTicks": 35,
            "midi": 72,
            "name": "C5",
            "ticks": 56400,
            "time": 225.6,
            "velocity": 0.4881889763779528
          },
          {
            "duration": 0.1279999999999859,
            "durationTicks": 32,
            "midi": 72,
            "name": "C5",
            "ticks": 56460,
            "time": 225.84,
            "velocity": 0.5118110236220472
          },
          {
            "duration": 0.3800000000000239,
            "durationTicks": 95,
            "midi": 75,
            "name": "D#5",
            "ticks": 56520,
            "time": 226.07999999999998,
            "velocity": 0.5511811023622047
          },
          {
            "duration": 0.18799999999998818,
            "durationTicks": 47,
            "midi": 70,
            "name": "A#4",
            "ticks": 56820,
            "time": 227.28,
            "velocity": 0.5905511811023622
          },
          {
            "duration": 0.1599999999999966,
            "durationTicks": 40,
            "midi": 72,
            "name": "C5",
            "ticks": 56880,
            "time": 227.51999999999998,
            "velocity": 0.4881889763779528
          },
          {
            "duration": 0.1519999999999868,
            "durationTicks": 38,
            "midi": 70,
            "name": "A#4",
            "ticks": 56940,
            "time": 227.76,
            "velocity": 0.4881889763779528
          },
          {
            "duration": 0.14000000000001478,
            "durationTicks": 35,
            "midi": 72,
            "name": "C5",
            "ticks": 57000,
            "time": 228,
            "velocity": 0.47244094488188976
          },
          {
            "duration": 0.7760000000000105,
            "durationTicks": 194,
            "midi": 72,
            "name": "C5",
            "ticks": 57060,
            "time": 228.23999999999998,
            "velocity": 0.5118110236220472
          },
          {
            "duration": 0.1279999999999859,
            "durationTicks": 32,
            "midi": 70,
            "name": "A#4",
            "ticks": 57300,
            "time": 229.2,
            "velocity": 0.4645669291338583
          },
          {
            "duration": 0.1279999999999859,
            "durationTicks": 32,
            "midi": 72,
            "name": "C5",
            "ticks": 57360,
            "time": 229.44,
            "velocity": 0.5039370078740157
          },
          {
            "duration": 0.14000000000001478,
            "durationTicks": 35,
            "midi": 72,
            "name": "C5",
            "ticks": 57420,
            "time": 229.67999999999998,
            "velocity": 0.4881889763779528
          },
          {
            "duration": 0.48400000000000887,
            "durationTicks": 121,
            "midi": 63,
            "name": "D#4",
            "ticks": 57480,
            "time": 229.92,
            "velocity": 0.5433070866141733
          },
          {
            "duration": 0.11199999999999477,
            "durationTicks": 28,
            "midi": 70,
            "name": "A#4",
            "ticks": 57780,
            "time": 231.12,
            "velocity": 0.5905511811023622
          },
          {
            "duration": 0.15200000000001523,
            "durationTicks": 38,
            "midi": 72,
            "name": "C5",
            "ticks": 57840,
            "time": 231.35999999999999,
            "velocity": 0.44881889763779526
          },
          {
            "duration": 0.13199999999997658,
            "durationTicks": 33,
            "midi": 70,
            "name": "A#4",
            "ticks": 57900,
            "time": 231.6,
            "velocity": 0.5669291338582677
          },
          {
            "duration": 0.11999999999997613,
            "durationTicks": 30,
            "midi": 72,
            "name": "C5",
            "ticks": 57960,
            "time": 231.84,
            "velocity": 0.4645669291338583
          },
          {
            "duration": 0.8000000000000114,
            "durationTicks": 200,
            "midi": 75,
            "name": "D#5",
            "ticks": 58020,
            "time": 232.07999999999998,
            "velocity": 0.5433070866141733
          },
          {
            "duration": 0.13199999999997658,
            "durationTicks": 33,
            "midi": 70,
            "name": "A#4",
            "ticks": 58260,
            "time": 233.04,
            "velocity": 0.5039370078740157
          },
          {
            "duration": 0.13999999999998636,
            "durationTicks": 35,
            "midi": 72,
            "name": "C5",
            "ticks": 58320,
            "time": 233.28,
            "velocity": 0.4881889763779528
          },
          {
            "duration": 0.12800000000001432,
            "durationTicks": 32,
            "midi": 72,
            "name": "C5",
            "ticks": 58380,
            "time": 233.51999999999998,
            "velocity": 0.5118110236220472
          },
          {
            "duration": 0.37999999999999545,
            "durationTicks": 95,
            "midi": 75,
            "name": "D#5",
            "ticks": 58440,
            "time": 233.76,
            "velocity": 0.5511811023622047
          },
          {
            "duration": 0.1880000000000166,
            "durationTicks": 47,
            "midi": 70,
            "name": "A#4",
            "ticks": 58740,
            "time": 234.95999999999998,
            "velocity": 0.5905511811023622
          },
          {
            "duration": 0.1599999999999966,
            "durationTicks": 40,
            "midi": 72,
            "name": "C5",
            "ticks": 58800,
            "time": 235.2,
            "velocity": 0.4881889763779528
          },
          {
            "duration": 0.1519999999999868,
            "durationTicks": 38,
            "midi": 70,
            "name": "A#4",
            "ticks": 58860,
            "time": 235.44,
            "velocity": 0.4881889763779528
          },
          {
            "duration": 0.14000000000001478,
            "durationTicks": 35,
            "midi": 72,
            "name": "C5",
            "ticks": 58920,
            "time": 235.67999999999998,
            "velocity": 0.47244094488188976
          },
          {
            "duration": 0.7760000000000105,
            "durationTicks": 194,
            "midi": 72,
            "name": "C5",
            "ticks": 58980,
            "time": 235.92,
            "velocity": 0.5118110236220472
          },
          {
            "duration": 0.1279999999999859,
            "durationTicks": 32,
            "midi": 70,
            "name": "A#4",
            "ticks": 59220,
            "time": 236.88,
            "velocity": 0.4645669291338583
          },
          {
            "duration": 0.1279999999999859,
            "durationTicks": 32,
            "midi": 72,
            "name": "C5",
            "ticks": 59280,
            "time": 237.12,
            "velocity": 0.5039370078740157
          },
          {
            "duration": 0.14000000000001478,
            "durationTicks": 35,
            "midi": 72,
            "name": "C5",
            "ticks": 59340,
            "time": 237.35999999999999,
            "velocity": 0.4881889763779528
          },
          {
            "duration": 0.14000000000001478,
            "durationTicks": 35,
            "midi": 72,
            "name": "C5",
            "ticks": 59400,
            "time": 237.6,
            "velocity": 0.5433070866141733
          }
        ]
      },
      {
        "channel": 9,
        "controlChanges": {
          "7": [
            {
              "number": 7,
              "ticks": 0,
              "time": 0,
              "value": 0.905511811023622
            }
          ]
        },
        "pitchBends": [],
        "instrument": {
          "family": "drums",
          "number": 0,
          "name": "standard kit"
        },
        "name": "Drums",
        "notes": [
          {
            "duration": 0.1,
            "durationTicks": 25,
            "midi": 42,
            "name": "F#2",
            "ticks": 0,
            "time": 0,
            "velocity": 0.6850393700787402
          },
          {
            "duration": 0.152,
            "durationTicks": 38,
            "midi": 36,
            "name": "C2",
            "ticks": 0,
            "time": 0,
            "velocity": 0.6850393700787402
          },
          {
            "duration": 0.09199999999999997,
            "durationTicks": 23,
            "midi": 42,
            "name": "F#2",
            "ticks": 60,
            "time": 0.24,
            "velocity": 0.5433070866141733
          },
          {
            "duration": 0.10399999999999998,
            "durationTicks": 26,
            "midi": 42,
            "name": "F#2",
            "ticks": 120,
            "time": 0.48,
            "velocity": 0.6614173228346457
          },
          {
            "duration": 0.30799999999999994,
            "durationTicks": 77,
            "midi": 40,
            "name": "E2",
            "ticks": 120,
            "time": 0.48,
            "velocity": 0.4645669291338583
          },
          {
            "duration": 0.14,
            "durationTicks": 35,
            "midi": 36,
            "name": "C2",
            "ticks": 120,
            "time": 0.48,
            "velocity": 0.6614173228346457
          },
          {
            "duration": 0.08399999999999996,
            "durationTicks": 21,
            "midi": 42,
            "name": "F#2",
            "ticks": 180,
            "time": 0.72,
            "velocity": 0.5433070866141733
          },
          {
            "duration": 0.09600000000000009,
            "durationTicks": 24,
            "midi": 42,
            "name": "F#2",
            "ticks": 240,
            "time": 0.96,
            "velocity": 0.6614173228346457
          },
          {
            "duration": 0.1200000000000001,
            "durationTicks": 30,
            "midi": 36,
            "name": "C2",
            "ticks": 240,
            "time": 0.96,
            "velocity": 0.6614173228346457
          },
          {
            "duration": 0.07599999999999985,
            "durationTicks": 19,
            "midi": 42,
            "name": "F#2",
            "ticks": 300,
            "time": 1.2,
            "velocity": 0.5905511811023622
          },
          {
            "duration": 0.21999999999999997,
            "durationTicks": 55,
            "midi": 40,
            "name": "E2",
            "ticks": 360,
            "time": 1.44,
            "velocity": 0.4645669291338583
          },
          {
            "duration": 0.1120000000000001,
            "durationTicks": 28,
            "midi": 42,
            "name": "F#2",
            "ticks": 360,
            "time": 1.44,
            "velocity": 0.5905511811023622
          },
          {
            "duration": 0.10400000000000009,
            "durationTicks": 26,
            "midi": 36,
            "name": "C2",
            "ticks": 360,
            "time": 1.44,
            "velocity": 0.7874015748031497
          },
          {
            "duration": 0.08399999999999985,
            "durationTicks": 21,
            "midi": 46,
            "name": "A#2",
            "ticks": 420,
            "time": 1.68,
            "velocity": 0.7874015748031497
          },
          {
            "duration": 0.09999999999999964,
            "durationTicks": 25,
            "midi": 42,
            "name": "F#2",
            "ticks": 480,
            "time": 1.92,
            "velocity": 0.6850393700787402
          },
          {
            "duration": 0.1519999999999997,
            "durationTicks": 38,
            "midi": 36,
            "name": "C2",
            "ticks": 480,
            "time": 1.92,
            "velocity": 0.6850393700787402
          },
          {
            "duration": 0.09199999999999964,
            "durationTicks": 23,
            "midi": 42,
            "name": "F#2",
            "ticks": 540,
            "time": 2.16,
            "velocity": 0.5433070866141733
          },
          {
            "duration": 0.10400000000000009,
            "durationTicks": 26,
            "midi": 42,
            "name": "F#2",
            "ticks": 600,
            "time": 2.4,
            "velocity": 0.6614173228346457
          },
          {
            "duration": 0.30799999999999983,
            "durationTicks": 77,
            "midi": 40,
            "name": "E2",
            "ticks": 600,
            "time": 2.4,
            "velocity": 0.4645669291338583
          },
          {
            "duration": 0.14000000000000012,
            "durationTicks": 35,
            "midi": 36,
            "name": "C2",
            "ticks": 600,
            "time": 2.4,
            "velocity": 0.6614173228346457
          },
          {
            "duration": 0.08400000000000007,
            "durationTicks": 21,
            "midi": 42,
            "name": "F#2",
            "ticks": 660,
            "time": 2.6399999999999997,
            "velocity": 0.5433070866141733
          },
          {
            "duration": 0.09600000000000009,
            "durationTicks": 24,
            "midi": 42,
            "name": "F#2",
            "ticks": 720,
            "time": 2.88,
            "velocity": 0.6614173228346457
          },
          {
            "duration": 0.1200000000000001,
            "durationTicks": 30,
            "midi": 36,
            "name": "C2",
            "ticks": 720,
            "time": 2.88,
            "velocity": 0.6614173228346457
          },
          {
            "duration": 0.07599999999999962,
            "durationTicks": 19,
            "midi": 42,
            "name": "F#2",
            "ticks": 780,
            "time": 3.12,
            "velocity": 0.5905511811023622
          },
          {
            "duration": 0.21999999999999975,
            "durationTicks": 55,
            "midi": 40,
            "name": "E2",
            "ticks": 840,
            "time": 3.36,
            "velocity": 0.4645669291338583
          },
          {
            "duration": 0.1120000000000001,
            "durationTicks": 28,
            "midi": 42,
            "name": "F#2",
            "ticks": 840,
            "time": 3.36,
            "velocity": 0.5905511811023622
          },
          {
            "duration": 0.10400000000000009,
            "durationTicks": 26,
            "midi": 36,
            "name": "C2",
            "ticks": 840,
            "time": 3.36,
            "velocity": 0.7874015748031497
          },
          {
            "duration": 0.08400000000000007,
            "durationTicks": 21,
            "midi": 46,
            "name": "A#2",
            "ticks": 900,
            "time": 3.5999999999999996,
            "velocity": 0.7874015748031497
          },
          {
            "duration": 0.10000000000000009,
            "durationTicks": 25,
            "midi": 42,
            "name": "F#2",
            "ticks": 960,
            "time": 3.84,
            "velocity": 0.6850393700787402
          },
          {
            "duration": 0.1519999999999997,
            "durationTicks": 38,
            "midi": 36,
            "name": "C2",
            "ticks": 960,
            "time": 3.84,
            "velocity": 0.6850393700787402
          },
          {
            "duration": 0.09199999999999964,
            "durationTicks": 23,
            "midi": 42,
            "name": "F#2",
            "ticks": 1020,
            "time": 4.08,
            "velocity": 0.5433070866141733
          },
          {
            "duration": 0.1039999999999992,
            "durationTicks": 26,
            "midi": 42,
            "name": "F#2",
            "ticks": 1080,
            "time": 4.32,
            "velocity": 0.6614173228346457
          },
          {
            "duration": 0.30799999999999983,
            "durationTicks": 77,
            "midi": 40,
            "name": "E2",
            "ticks": 1080,
            "time": 4.32,
            "velocity": 0.4645669291338583
          },
          {
            "duration": 0.13999999999999968,
            "durationTicks": 35,
            "midi": 36,
            "name": "C2",
            "ticks": 1080,
            "time": 4.32,
            "velocity": 0.6614173228346457
          },
          {
            "duration": 0.08400000000000052,
            "durationTicks": 21,
            "midi": 42,
            "name": "F#2",
            "ticks": 1140,
            "time": 4.56,
            "velocity": 0.5433070866141733
          },
          {
            "duration": 0.09600000000000009,
            "durationTicks": 24,
            "midi": 42,
            "name": "F#2",
            "ticks": 1200,
            "time": 4.8,
            "velocity": 0.6614173228346457
          },
          {
            "duration": 0.1200000000000001,
            "durationTicks": 30,
            "midi": 36,
            "name": "C2",
            "ticks": 1200,
            "time": 4.8,
            "velocity": 0.6614173228346457
          },
          {
            "duration": 0.16000000000000014,
            "durationTicks": 40,
            "midi": 54,
            "name": "F#3",
            "ticks": 1260,
            "time": 5.04,
            "velocity": 0.6614173228346457
          },
          {
            "duration": 0.07599999999999962,
            "durationTicks": 19,
            "midi": 42,
            "name": "F#2",
            "ticks": 1260,
            "time": 5.04,
            "velocity": 0.5905511811023622
          },
          {
            "duration": 0.22000000000000064,
            "durationTicks": 55,
            "midi": 40,
            "name": "E2",
            "ticks": 1320,
            "time": 5.279999999999999,
            "velocity": 0.4645669291338583
          },
          {
            "duration": 0.1120000000000001,
            "durationTicks": 28,
            "midi": 42,
            "name": "F#2",
            "ticks": 1320,
            "time": 5.279999999999999,
            "velocity": 0.5905511811023622
          },
          {
            "duration": 0.10400000000000009,
            "durationTicks": 26,
            "midi": 36,
            "name": "C2",
            "ticks": 1320,
            "time": 5.279999999999999,
            "velocity": 0.7874015748031497
          },
          {
            "duration": 0.08400000000000052,
            "durationTicks": 21,
            "midi": 46,
            "name": "A#2",
            "ticks": 1380,
            "time": 5.52,
            "velocity": 0.7874015748031497
          },
          {
            "duration": 0.10000000000000053,
            "durationTicks": 25,
            "midi": 42,
            "name": "F#2",
            "ticks": 1440,
            "time": 5.76,
            "velocity": 0.6850393700787402
          },
          {
            "duration": 0.15200000000000014,
            "durationTicks": 38,
            "midi": 36,
            "name": "C2",
            "ticks": 1440,
            "time": 5.76,
            "velocity": 0.6850393700787402
          },
          {
            "duration": 0.09199999999999964,
            "durationTicks": 23,
            "midi": 42,
            "name": "F#2",
            "ticks": 1500,
            "time": 6,
            "velocity": 0.5433070866141733
          },
          {
            "duration": 0.1039999999999992,
            "durationTicks": 26,
            "midi": 42,
            "name": "F#2",
            "ticks": 1560,
            "time": 6.24,
            "velocity": 0.6614173228346457
          },
          {
            "duration": 0.30799999999999983,
            "durationTicks": 77,
            "midi": 40,
            "name": "E2",
            "ticks": 1560,
            "time": 6.24,
            "velocity": 0.4645669291338583
          },
          {
            "duration": 0.13999999999999968,
            "durationTicks": 35,
            "midi": 36,
            "name": "C2",
            "ticks": 1560,
            "time": 6.24,
            "velocity": 0.6614173228346457
          },
          {
            "duration": 0.08400000000000052,
            "durationTicks": 21,
            "midi": 42,
            "name": "F#2",
            "ticks": 1620,
            "time": 6.4799999999999995,
            "velocity": 0.5433070866141733
          },
          {
            "duration": 0.09600000000000009,
            "durationTicks": 24,
            "midi": 42,
            "name": "F#2",
            "ticks": 1680,
            "time": 6.72,
            "velocity": 0.6614173228346457
          },
          {
            "duration": 0.1200000000000001,
            "durationTicks": 30,
            "midi": 36,
            "name": "C2",
            "ticks": 1680,
            "time": 6.72,
            "velocity": 0.6614173228346457
          },
          {
            "duration": 0.11199999999999921,
            "durationTicks": 28,
            "midi": 54,
            "name": "F#3",
            "ticks": 1740,
            "time": 6.96,
            "velocity": 0.6220472440944882
          },
          {
            "duration": 0.07599999999999962,
            "durationTicks": 19,
            "midi": 42,
            "name": "F#2",
            "ticks": 1740,
            "time": 6.96,
            "velocity": 0.5905511811023622
          },
          {
            "duration": 0.22000000000000064,
            "durationTicks": 55,
            "midi": 40,
            "name": "E2",
            "ticks": 1800,
            "time": 7.199999999999999,
            "velocity": 0.4645669291338583
          },
          {
            "duration": 0.1120000000000001,
            "durationTicks": 28,
            "midi": 42,
            "name": "F#2",
            "ticks": 1800,
            "time": 7.199999999999999,
            "velocity": 0.5905511811023622
          },
          {
            "duration": 0.10400000000000009,
            "durationTicks": 26,
            "midi": 36,
            "name": "C2",
            "ticks": 1800,
            "time": 7.199999999999999,
            "velocity": 0.7874015748031497
          },
          {
            "duration": 0.08400000000000052,
            "durationTicks": 21,
            "midi": 46,
            "name": "A#2",
            "ticks": 1860,
            "time": 7.4399999999999995,
            "velocity": 0.7874015748031497
          },
          {
            "duration": 0.09999999999999964,
            "durationTicks": 25,
            "midi": 42,
            "name": "F#2",
            "ticks": 1920,
            "time": 7.68,
            "velocity": 0.6850393700787402
          },
          {
            "duration": 0.15200000000000014,
            "durationTicks": 38,
            "midi": 36,
            "name": "C2",
            "ticks": 1920,
            "time": 7.68,
            "velocity": 0.6850393700787402
          },
          {
            "duration": 0.09200000000000053,
            "durationTicks": 23,
            "midi": 42,
            "name": "F#2",
            "ticks": 1980,
            "time": 7.92,
            "velocity": 0.5433070866141733
          },
          {
            "duration": 0.1039999999999992,
            "durationTicks": 26,
            "midi": 42,
            "name": "F#2",
            "ticks": 2040,
            "time": 8.16,
            "velocity": 0.6614173228346457
          },
          {
            "duration": 0.30799999999999983,
            "durationTicks": 77,
            "midi": 40,
            "name": "E2",
            "ticks": 2040,
            "time": 8.16,
            "velocity": 0.4645669291338583
          },
          {
            "duration": 0.14000000000000057,
            "durationTicks": 35,
            "midi": 36,
            "name": "C2",
            "ticks": 2040,
            "time": 8.16,
            "velocity": 0.6614173228346457
          },
          {
            "duration": 0.08399999999999963,
            "durationTicks": 21,
            "midi": 42,
            "name": "F#2",
            "ticks": 2100,
            "time": 8.4,
            "velocity": 0.5433070866141733
          },
          {
            "duration": 0.09599999999999831,
            "durationTicks": 24,
            "midi": 42,
            "name": "F#2",
            "ticks": 2160,
            "time": 8.64,
            "velocity": 0.6614173228346457
          },
          {
            "duration": 0.11999999999999922,
            "durationTicks": 30,
            "midi": 36,
            "name": "C2",
            "ticks": 2160,
            "time": 8.64,
            "velocity": 0.6614173228346457
          },
          {
            "duration": 0.11600000000000144,
            "durationTicks": 29,
            "midi": 54,
            "name": "F#3",
            "ticks": 2220,
            "time": 8.879999999999999,
            "velocity": 0.5905511811023622
          },
          {
            "duration": 0.07600000000000229,
            "durationTicks": 19,
            "midi": 42,
            "name": "F#2",
            "ticks": 2220,
            "time": 8.879999999999999,
            "velocity": 0.5905511811023622
          },
          {
            "duration": 0.22000000000000064,
            "durationTicks": 55,
            "midi": 40,
            "name": "E2",
            "ticks": 2280,
            "time": 9.12,
            "velocity": 0.4645669291338583
          },
          {
            "duration": 0.1120000000000001,
            "durationTicks": 28,
            "midi": 42,
            "name": "F#2",
            "ticks": 2280,
            "time": 9.12,
            "velocity": 0.5905511811023622
          },
          {
            "duration": 0.1039999999999992,
            "durationTicks": 26,
            "midi": 36,
            "name": "C2",
            "ticks": 2280,
            "time": 9.12,
            "velocity": 0.7874015748031497
          },
          {
            "duration": 0.0840000000000014,
            "durationTicks": 21,
            "midi": 46,
            "name": "A#2",
            "ticks": 2340,
            "time": 9.36,
            "velocity": 0.7874015748031497
          },
          {
            "duration": 0.09999999999999964,
            "durationTicks": 25,
            "midi": 42,
            "name": "F#2",
            "ticks": 2400,
            "time": 9.6,
            "velocity": 0.6850393700787402
          },
          {
            "duration": 0.15199999999999925,
            "durationTicks": 38,
            "midi": 36,
            "name": "C2",
            "ticks": 2400,
            "time": 9.6,
            "velocity": 0.6850393700787402
          },
          {
            "duration": 0.09200000000000053,
            "durationTicks": 23,
            "midi": 42,
            "name": "F#2",
            "ticks": 2460,
            "time": 9.84,
            "velocity": 0.5433070866141733
          },
          {
            "duration": 0.1039999999999992,
            "durationTicks": 26,
            "midi": 42,
            "name": "F#2",
            "ticks": 2520,
            "time": 10.08,
            "velocity": 0.6614173228346457
          },
          {
            "duration": 0.30799999999999983,
            "durationTicks": 77,
            "midi": 40,
            "name": "E2",
            "ticks": 2520,
            "time": 10.08,
            "velocity": 0.4645669291338583
          },
          {
            "duration": 0.14000000000000057,
            "durationTicks": 35,
            "midi": 36,
            "name": "C2",
            "ticks": 2520,
            "time": 10.08,
            "velocity": 0.6614173228346457
          },
          {
            "duration": 0.08399999999999963,
            "durationTicks": 21,
            "midi": 42,
            "name": "F#2",
            "ticks": 2580,
            "time": 10.32,
            "velocity": 0.5433070866141733
          },
          {
            "duration": 0.09600000000000009,
            "durationTicks": 24,
            "midi": 42,
            "name": "F#2",
            "ticks": 2640,
            "time": 10.559999999999999,
            "velocity": 0.6614173228346457
          },
          {
            "duration": 0.120000000000001,
            "durationTicks": 30,
            "midi": 36,
            "name": "C2",
            "ticks": 2640,
            "time": 10.559999999999999,
            "velocity": 0.6614173228346457
          },
          {
            "duration": 0.09999999999999964,
            "durationTicks": 25,
            "midi": 54,
            "name": "F#3",
            "ticks": 2700,
            "time": 10.799999999999999,
            "velocity": 0.6614173228346457
          },
          {
            "duration": 0.07600000000000229,
            "durationTicks": 19,
            "midi": 42,
            "name": "F#2",
            "ticks": 2700,
            "time": 10.799999999999999,
            "velocity": 0.5905511811023622
          },
          {
            "duration": 0.22000000000000064,
            "durationTicks": 55,
            "midi": 40,
            "name": "E2",
            "ticks": 2760,
            "time": 11.04,
            "velocity": 0.4645669291338583
          },
          {
            "duration": 0.1120000000000001,
            "durationTicks": 28,
            "midi": 42,
            "name": "F#2",
            "ticks": 2760,
            "time": 11.04,
            "velocity": 0.5905511811023622
          },
          {
            "duration": 0.1039999999999992,
            "durationTicks": 26,
            "midi": 36,
            "name": "C2",
            "ticks": 2760,
            "time": 11.04,
            "velocity": 0.7874015748031497
          },
          {
            "duration": 0.0840000000000014,
            "durationTicks": 21,
            "midi": 46,
            "name": "A#2",
            "ticks": 2820,
            "time": 11.28,
            "velocity": 0.7874015748031497
          },
          {
            "duration": 0.09999999999999964,
            "durationTicks": 25,
            "midi": 42,
            "name": "F#2",
            "ticks": 2880,
            "time": 11.52,
            "velocity": 0.6850393700787402
          },
          {
            "duration": 0.15199999999999925,
            "durationTicks": 38,
            "midi": 36,
            "name": "C2",
            "ticks": 2880,
            "time": 11.52,
            "velocity": 0.6850393700787402
          },
          {
            "duration": 0.09200000000000053,
            "durationTicks": 23,
            "midi": 42,
            "name": "F#2",
            "ticks": 2940,
            "time": 11.76,
            "velocity": 0.5433070866141733
          },
          {
            "duration": 0.1039999999999992,
            "durationTicks": 26,
            "midi": 42,
            "name": "F#2",
            "ticks": 3000,
            "time": 12,
            "velocity": 0.6614173228346457
          },
          {
            "duration": 0.30799999999999983,
            "durationTicks": 77,
            "midi": 40,
            "name": "E2",
            "ticks": 3000,
            "time": 12,
            "velocity": 0.4645669291338583
          },
          {
            "duration": 0.14000000000000057,
            "durationTicks": 35,
            "midi": 36,
            "name": "C2",
            "ticks": 3000,
            "time": 12,
            "velocity": 0.6614173228346457
          },
          {
            "duration": 0.08399999999999963,
            "durationTicks": 21,
            "midi": 42,
            "name": "F#2",
            "ticks": 3060,
            "time": 12.24,
            "velocity": 0.5433070866141733
          },
          {
            "duration": 0.09599999999999831,
            "durationTicks": 24,
            "midi": 42,
            "name": "F#2",
            "ticks": 3120,
            "time": 12.48,
            "velocity": 0.6614173228346457
          },
          {
            "duration": 0.11999999999999922,
            "durationTicks": 30,
            "midi": 36,
            "name": "C2",
            "ticks": 3120,
            "time": 12.48,
            "velocity": 0.6614173228346457
          },
          {
            "duration": 0.22000000000000064,
            "durationTicks": 55,
            "midi": 54,
            "name": "F#3",
            "ticks": 3180,
            "time": 12.719999999999999,
            "velocity": 0.6614173228346457
          },
          {
            "duration": 0.07600000000000229,
            "durationTicks": 19,
            "midi": 42,
            "name": "F#2",
            "ticks": 3180,
            "time": 12.719999999999999,
            "velocity": 0.5905511811023622
          },
          {
            "duration": 0.22000000000000064,
            "durationTicks": 55,
            "midi": 40,
            "name": "E2",
            "ticks": 3240,
            "time": 12.959999999999999,
            "velocity": 0.4645669291338583
          },
          {
            "duration": 0.1120000000000001,
            "durationTicks": 28,
            "midi": 42,
            "name": "F#2",
            "ticks": 3240,
            "time": 12.959999999999999,
            "velocity": 0.5905511811023622
          },
          {
            "duration": 0.1039999999999992,
            "durationTicks": 26,
            "midi": 36,
            "name": "C2",
            "ticks": 3240,
            "time": 12.959999999999999,
            "velocity": 0.7874015748031497
          },
          {
            "duration": 0.0840000000000014,
            "durationTicks": 21,
            "midi": 46,
            "name": "A#2",
            "ticks": 3300,
            "time": 13.2,
            "velocity": 0.7874015748031497
          },
          {
            "duration": 0.09999999999999964,
            "durationTicks": 25,
            "midi": 42,
            "name": "F#2",
            "ticks": 3360,
            "time": 13.44,
            "velocity": 0.6850393700787402
          },
          {
            "duration": 0.15199999999999925,
            "durationTicks": 38,
            "midi": 36,
            "name": "C2",
            "ticks": 3360,
            "time": 13.44,
            "velocity": 0.6850393700787402
          },
          {
            "duration": 0.09200000000000053,
            "durationTicks": 23,
            "midi": 42,
            "name": "F#2",
            "ticks": 3420,
            "time": 13.68,
            "velocity": 0.5433070866141733
          },
          {
            "duration": 0.1039999999999992,
            "durationTicks": 26,
            "midi": 42,
            "name": "F#2",
            "ticks": 3480,
            "time": 13.92,
            "velocity": 0.6614173228346457
          },
          {
            "duration": 0.30799999999999983,
            "durationTicks": 77,
            "midi": 40,
            "name": "E2",
            "ticks": 3480,
            "time": 13.92,
            "velocity": 0.4645669291338583
          },
          {
            "duration": 0.14000000000000057,
            "durationTicks": 35,
            "midi": 36,
            "name": "C2",
            "ticks": 3480,
            "time": 13.92,
            "velocity": 0.6614173228346457
          },
          {
            "duration": 0.08399999999999963,
            "durationTicks": 21,
            "midi": 42,
            "name": "F#2",
            "ticks": 3540,
            "time": 14.16,
            "velocity": 0.5433070866141733
          },
          {
            "duration": 0.09600000000000009,
            "durationTicks": 24,
            "midi": 42,
            "name": "F#2",
            "ticks": 3600,
            "time": 14.399999999999999,
            "velocity": 0.6614173228346457
          },
          {
            "duration": 0.120000000000001,
            "durationTicks": 30,
            "midi": 36,
            "name": "C2",
            "ticks": 3600,
            "time": 14.399999999999999,
            "velocity": 0.6614173228346457
          },
          {
            "duration": 0.20000000000000107,
            "durationTicks": 50,
            "midi": 54,
            "name": "F#3",
            "ticks": 3660,
            "time": 14.639999999999999,
            "velocity": 0.5905511811023622
          },
          {
            "duration": 0.07600000000000229,
            "durationTicks": 19,
            "midi": 42,
            "name": "F#2",
            "ticks": 3660,
            "time": 14.639999999999999,
            "velocity": 0.5905511811023622
          },
          {
            "duration": 0.22000000000000064,
            "durationTicks": 55,
            "midi": 40,
            "name": "E2",
            "ticks": 3720,
            "time": 14.879999999999999,
            "velocity": 0.4645669291338583
          },
          {
            "duration": 0.1120000000000001,
            "durationTicks": 28,
            "midi": 42,
            "name": "F#2",
            "ticks": 3720,
            "time": 14.879999999999999,
            "velocity": 0.5905511811023622
          },
          {
            "duration": 0.1039999999999992,
            "durationTicks": 26,
            "midi": 36,
            "name": "C2",
            "ticks": 3720,
            "time": 14.879999999999999,
            "velocity": 0.7874015748031497
          },
          {
            "duration": 0.0840000000000014,
            "durationTicks": 21,
            "midi": 46,
            "name": "A#2",
            "ticks": 3780,
            "time": 15.12,
            "velocity": 0.7874015748031497
          },
          {
            "duration": 0.10000000000000142,
            "durationTicks": 25,
            "midi": 42,
            "name": "F#2",
            "ticks": 3840,
            "time": 15.36,
            "velocity": 0.6850393700787402
          },
          {
            "duration": 0.15200000000000102,
            "durationTicks": 38,
            "midi": 36,
            "name": "C2",
            "ticks": 3840,
            "time": 15.36,
            "velocity": 0.6850393700787402
          },
          {
            "duration": 0.09200000000000053,
            "durationTicks": 23,
            "midi": 42,
            "name": "F#2",
            "ticks": 3900,
            "time": 15.6,
            "velocity": 0.5433070866141733
          },
          {
            "duration": 0.10400000000000098,
            "durationTicks": 26,
            "midi": 42,
            "name": "F#2",
            "ticks": 3960,
            "time": 15.84,
            "velocity": 0.6614173228346457
          },
          {
            "duration": 0.30799999999999983,
            "durationTicks": 77,
            "midi": 40,
            "name": "E2",
            "ticks": 3960,
            "time": 15.84,
            "velocity": 0.4645669291338583
          },
          {
            "duration": 0.1399999999999988,
            "durationTicks": 35,
            "midi": 36,
            "name": "C2",
            "ticks": 3960,
            "time": 15.84,
            "velocity": 0.6614173228346457
          },
          {
            "duration": 0.08399999999999963,
            "durationTicks": 21,
            "midi": 42,
            "name": "F#2",
            "ticks": 4020,
            "time": 16.08,
            "velocity": 0.5433070866141733
          },
          {
            "duration": 0.09600000000000009,
            "durationTicks": 24,
            "midi": 42,
            "name": "F#2",
            "ticks": 4080,
            "time": 16.32,
            "velocity": 0.6614173228346457
          },
          {
            "duration": 0.11999999999999744,
            "durationTicks": 30,
            "midi": 36,
            "name": "C2",
            "ticks": 4080,
            "time": 16.32,
            "velocity": 0.6614173228346457
          },
          {
            "duration": 0.20400000000000063,
            "durationTicks": 51,
            "midi": 54,
            "name": "F#3",
            "ticks": 4140,
            "time": 16.56,
            "velocity": 0.6614173228346457
          },
          {
            "duration": 0.07600000000000051,
            "durationTicks": 19,
            "midi": 42,
            "name": "F#2",
            "ticks": 4140,
            "time": 16.56,
            "velocity": 0.5905511811023622
          },
          {
            "duration": 0.21999999999999886,
            "durationTicks": 55,
            "midi": 40,
            "name": "E2",
            "ticks": 4200,
            "time": 16.8,
            "velocity": 0.4645669291338583
          },
          {
            "duration": 0.11199999999999832,
            "durationTicks": 28,
            "midi": 42,
            "name": "F#2",
            "ticks": 4200,
            "time": 16.8,
            "velocity": 0.5905511811023622
          },
          {
            "duration": 0.1039999999999992,
            "durationTicks": 26,
            "midi": 36,
            "name": "C2",
            "ticks": 4200,
            "time": 16.8,
            "velocity": 0.7874015748031497
          },
          {
            "duration": 0.08399999999999963,
            "durationTicks": 21,
            "midi": 46,
            "name": "A#2",
            "ticks": 4260,
            "time": 17.04,
            "velocity": 0.7874015748031497
          },
          {
            "duration": 0.09999999999999787,
            "durationTicks": 25,
            "midi": 42,
            "name": "F#2",
            "ticks": 4320,
            "time": 17.28,
            "velocity": 0.6850393700787402
          },
          {
            "duration": 0.15200000000000102,
            "durationTicks": 38,
            "midi": 36,
            "name": "C2",
            "ticks": 4320,
            "time": 17.28,
            "velocity": 0.6850393700787402
          },
          {
            "duration": 0.0920000000000023,
            "durationTicks": 23,
            "midi": 42,
            "name": "F#2",
            "ticks": 4380,
            "time": 17.52,
            "velocity": 0.5433070866141733
          },
          {
            "duration": 0.10400000000000276,
            "durationTicks": 26,
            "midi": 42,
            "name": "F#2",
            "ticks": 4440,
            "time": 17.759999999999998,
            "velocity": 0.6614173228346457
          },
          {
            "duration": 0.30799999999999983,
            "durationTicks": 77,
            "midi": 40,
            "name": "E2",
            "ticks": 4440,
            "time": 17.759999999999998,
            "velocity": 0.4645669291338583
          },
          {
            "duration": 0.14000000000000057,
            "durationTicks": 35,
            "midi": 36,
            "name": "C2",
            "ticks": 4440,
            "time": 17.759999999999998,
            "velocity": 0.6614173228346457
          },
          {
            "duration": 0.08399999999999963,
            "durationTicks": 21,
            "midi": 42,
            "name": "F#2",
            "ticks": 4500,
            "time": 18,
            "velocity": 0.5433070866141733
          },
          {
            "duration": 0.09600000000000364,
            "durationTicks": 24,
            "midi": 42,
            "name": "F#2",
            "ticks": 4560,
            "time": 18.24,
            "velocity": 0.6614173228346457
          },
          {
            "duration": 0.120000000000001,
            "durationTicks": 30,
            "midi": 36,
            "name": "C2",
            "ticks": 4560,
            "time": 18.24,
            "velocity": 0.6614173228346457
          },
          {
            "duration": 0.21199999999999974,
            "durationTicks": 53,
            "midi": 54,
            "name": "F#3",
            "ticks": 4620,
            "time": 18.48,
            "velocity": 0.6220472440944882
          },
          {
            "duration": 0.07599999999999696,
            "durationTicks": 19,
            "midi": 42,
            "name": "F#2",
            "ticks": 4620,
            "time": 18.48,
            "velocity": 0.5905511811023622
          },
          {
            "duration": 0.22000000000000242,
            "durationTicks": 55,
            "midi": 40,
            "name": "E2",
            "ticks": 4680,
            "time": 18.72,
            "velocity": 0.4645669291338583
          },
          {
            "duration": 0.11200000000000188,
            "durationTicks": 28,
            "midi": 42,
            "name": "F#2",
            "ticks": 4680,
            "time": 18.72,
            "velocity": 0.5905511811023622
          },
          {
            "duration": 0.10400000000000276,
            "durationTicks": 26,
            "midi": 36,
            "name": "C2",
            "ticks": 4680,
            "time": 18.72,
            "velocity": 0.7874015748031497
          },
          {
            "duration": 0.08399999999999608,
            "durationTicks": 21,
            "midi": 46,
            "name": "A#2",
            "ticks": 4740,
            "time": 18.96,
            "velocity": 0.7874015748031497
          },
          {
            "duration": 0.10000000000000142,
            "durationTicks": 25,
            "midi": 42,
            "name": "F#2",
            "ticks": 4800,
            "time": 19.2,
            "velocity": 0.6850393700787402
          },
          {
            "duration": 0.15200000000000102,
            "durationTicks": 38,
            "midi": 36,
            "name": "C2",
            "ticks": 4800,
            "time": 19.2,
            "velocity": 0.6850393700787402
          },
          {
            "duration": 0.0920000000000023,
            "durationTicks": 23,
            "midi": 42,
            "name": "F#2",
            "ticks": 4860,
            "time": 19.439999999999998,
            "velocity": 0.5433070866141733
          },
          {
            "duration": 0.1039999999999992,
            "durationTicks": 26,
            "midi": 42,
            "name": "F#2",
            "ticks": 4920,
            "time": 19.68,
            "velocity": 0.6614173228346457
          },
          {
            "duration": 0.30799999999999983,
            "durationTicks": 77,
            "midi": 40,
            "name": "E2",
            "ticks": 4920,
            "time": 19.68,
            "velocity": 0.4645669291338583
          },
          {
            "duration": 0.13999999999999702,
            "durationTicks": 35,
            "midi": 36,
            "name": "C2",
            "ticks": 4920,
            "time": 19.68,
            "velocity": 0.6614173228346457
          },
          {
            "duration": 0.08399999999999963,
            "durationTicks": 21,
            "midi": 42,
            "name": "F#2",
            "ticks": 4980,
            "time": 19.919999999999998,
            "velocity": 0.5433070866141733
          },
          {
            "duration": 0.09600000000000009,
            "durationTicks": 24,
            "midi": 42,
            "name": "F#2",
            "ticks": 5040,
            "time": 20.16,
            "velocity": 0.6614173228346457
          },
          {
            "duration": 0.11999999999999744,
            "durationTicks": 30,
            "midi": 36,
            "name": "C2",
            "ticks": 5040,
            "time": 20.16,
            "velocity": 0.6614173228346457
          },
          {
            "duration": 0.21600000000000108,
            "durationTicks": 54,
            "midi": 54,
            "name": "F#3",
            "ticks": 5100,
            "time": 20.4,
            "velocity": 0.6614173228346457
          },
          {
            "duration": 0.07600000000000051,
            "durationTicks": 19,
            "midi": 42,
            "name": "F#2",
            "ticks": 5100,
            "time": 20.4,
            "velocity": 0.5905511811023622
          },
          {
            "duration": 0.21999999999999886,
            "durationTicks": 55,
            "midi": 40,
            "name": "E2",
            "ticks": 5160,
            "time": 20.64,
            "velocity": 0.4645669291338583
          },
          {
            "duration": 0.11199999999999832,
            "durationTicks": 28,
            "midi": 42,
            "name": "F#2",
            "ticks": 5160,
            "time": 20.64,
            "velocity": 0.5905511811023622
          },
          {
            "duration": 0.1039999999999992,
            "durationTicks": 26,
            "midi": 36,
            "name": "C2",
            "ticks": 5160,
            "time": 20.64,
            "velocity": 0.7874015748031497
          },
          {
            "duration": 0.08399999999999963,
            "durationTicks": 21,
            "midi": 46,
            "name": "A#2",
            "ticks": 5220,
            "time": 20.88,
            "velocity": 0.7874015748031497
          },
          {
            "duration": 0.10000000000000142,
            "durationTicks": 25,
            "midi": 42,
            "name": "F#2",
            "ticks": 5280,
            "time": 21.119999999999997,
            "velocity": 0.6850393700787402
          },
          {
            "duration": 0.15200000000000458,
            "durationTicks": 38,
            "midi": 36,
            "name": "C2",
            "ticks": 5280,
            "time": 21.119999999999997,
            "velocity": 0.6850393700787402
          },
          {
            "duration": 0.0920000000000023,
            "durationTicks": 23,
            "midi": 42,
            "name": "F#2",
            "ticks": 5340,
            "time": 21.36,
            "velocity": 0.5433070866141733
          },
          {
            "duration": 0.10400000000000276,
            "durationTicks": 26,
            "midi": 42,
            "name": "F#2",
            "ticks": 5400,
            "time": 21.599999999999998,
            "velocity": 0.6614173228346457
          },
          {
            "duration": 0.30799999999999983,
            "durationTicks": 77,
            "midi": 40,
            "name": "E2",
            "ticks": 5400,
            "time": 21.599999999999998,
            "velocity": 0.4645669291338583
          },
          {
            "duration": 0.14000000000000057,
            "durationTicks": 35,
            "midi": 36,
            "name": "C2",
            "ticks": 5400,
            "time": 21.599999999999998,
            "velocity": 0.6614173228346457
          },
          {
            "duration": 0.08399999999999963,
            "durationTicks": 21,
            "midi": 42,
            "name": "F#2",
            "ticks": 5460,
            "time": 21.84,
            "velocity": 0.5433070866141733
          },
          {
            "duration": 0.09600000000000364,
            "durationTicks": 24,
            "midi": 42,
            "name": "F#2",
            "ticks": 5520,
            "time": 22.08,
            "velocity": 0.6614173228346457
          },
          {
            "duration": 0.120000000000001,
            "durationTicks": 30,
            "midi": 36,
            "name": "C2",
            "ticks": 5520,
            "time": 22.08,
            "velocity": 0.6614173228346457
          },
          {
            "duration": 0.1720000000000006,
            "durationTicks": 43,
            "midi": 54,
            "name": "F#3",
            "ticks": 5580,
            "time": 22.32,
            "velocity": 0.5669291338582677
          },
          {
            "duration": 0.07599999999999696,
            "durationTicks": 19,
            "midi": 42,
            "name": "F#2",
            "ticks": 5580,
            "time": 22.32,
            "velocity": 0.5905511811023622
          },
          {
            "duration": 0.22000000000000242,
            "durationTicks": 55,
            "midi": 40,
            "name": "E2",
            "ticks": 5640,
            "time": 22.56,
            "velocity": 0.4645669291338583
          },
          {
            "duration": 0.11200000000000188,
            "durationTicks": 28,
            "midi": 42,
            "name": "F#2",
            "ticks": 5640,
            "time": 22.56,
            "velocity": 0.5905511811023622
          },
          {
            "duration": 0.10400000000000276,
            "durationTicks": 26,
            "midi": 36,
            "name": "C2",
            "ticks": 5640,
            "time": 22.56,
            "velocity": 0.7874015748031497
          },
          {
            "duration": 0.08399999999999608,
            "durationTicks": 21,
            "midi": 46,
            "name": "A#2",
            "ticks": 5700,
            "time": 22.8,
            "velocity": 0.7874015748031497
          },
          {
            "duration": 0.10000000000000142,
            "durationTicks": 25,
            "midi": 42,
            "name": "F#2",
            "ticks": 5760,
            "time": 23.04,
            "velocity": 0.6850393700787402
          },
          {
            "duration": 0.15200000000000102,
            "durationTicks": 38,
            "midi": 36,
            "name": "C2",
            "ticks": 5760,
            "time": 23.04,
            "velocity": 0.6850393700787402
          },
          {
            "duration": 0.0920000000000023,
            "durationTicks": 23,
            "midi": 42,
            "name": "F#2",
            "ticks": 5820,
            "time": 23.279999999999998,
            "velocity": 0.5433070866141733
          },
          {
            "duration": 0.1039999999999992,
            "durationTicks": 26,
            "midi": 42,
            "name": "F#2",
            "ticks": 5880,
            "time": 23.52,
            "velocity": 0.6614173228346457
          },
          {
            "duration": 0.30799999999999983,
            "durationTicks": 77,
            "midi": 40,
            "name": "E2",
            "ticks": 5880,
            "time": 23.52,
            "velocity": 0.4645669291338583
          },
          {
            "duration": 0.13999999999999702,
            "durationTicks": 35,
            "midi": 36,
            "name": "C2",
            "ticks": 5880,
            "time": 23.52,
            "velocity": 0.6614173228346457
          },
          {
            "duration": 0.08399999999999963,
            "durationTicks": 21,
            "midi": 42,
            "name": "F#2",
            "ticks": 5940,
            "time": 23.759999999999998,
            "velocity": 0.5433070866141733
          },
          {
            "duration": 0.09600000000000009,
            "durationTicks": 24,
            "midi": 42,
            "name": "F#2",
            "ticks": 6000,
            "time": 24,
            "velocity": 0.6614173228346457
          },
          {
            "duration": 0.11999999999999744,
            "durationTicks": 30,
            "midi": 36,
            "name": "C2",
            "ticks": 6000,
            "time": 24,
            "velocity": 0.6614173228346457
          },
          {
            "duration": 0.23200000000000287,
            "durationTicks": 58,
            "midi": 54,
            "name": "F#3",
            "ticks": 6060,
            "time": 24.24,
            "velocity": 0.5905511811023622
          },
          {
            "duration": 0.07600000000000051,
            "durationTicks": 19,
            "midi": 42,
            "name": "F#2",
            "ticks": 6060,
            "time": 24.24,
            "velocity": 0.5905511811023622
          },
          {
            "duration": 0.21999999999999886,
            "durationTicks": 55,
            "midi": 40,
            "name": "E2",
            "ticks": 6120,
            "time": 24.48,
            "velocity": 0.4645669291338583
          },
          {
            "duration": 0.11199999999999832,
            "durationTicks": 28,
            "midi": 42,
            "name": "F#2",
            "ticks": 6120,
            "time": 24.48,
            "velocity": 0.5905511811023622
          },
          {
            "duration": 0.1039999999999992,
            "durationTicks": 26,
            "midi": 36,
            "name": "C2",
            "ticks": 6120,
            "time": 24.48,
            "velocity": 0.7874015748031497
          },
          {
            "duration": 0.08399999999999963,
            "durationTicks": 21,
            "midi": 46,
            "name": "A#2",
            "ticks": 6180,
            "time": 24.72,
            "velocity": 0.7874015748031497
          },
          {
            "duration": 0.09999999999999787,
            "durationTicks": 25,
            "midi": 42,
            "name": "F#2",
            "ticks": 6240,
            "time": 24.96,
            "velocity": 0.6850393700787402
          },
          {
            "duration": 0.15200000000000102,
            "durationTicks": 38,
            "midi": 36,
            "name": "C2",
            "ticks": 6240,
            "time": 24.96,
            "velocity": 0.6850393700787402
          },
          {
            "duration": 0.0920000000000023,
            "durationTicks": 23,
            "midi": 42,
            "name": "F#2",
            "ticks": 6300,
            "time": 25.2,
            "velocity": 0.5433070866141733
          },
          {
            "duration": 0.10400000000000276,
            "durationTicks": 26,
            "midi": 42,
            "name": "F#2",
            "ticks": 6360,
            "time": 25.439999999999998,
            "velocity": 0.6614173228346457
          },
          {
            "duration": 0.30799999999999983,
            "durationTicks": 77,
            "midi": 40,
            "name": "E2",
            "ticks": 6360,
            "time": 25.439999999999998,
            "velocity": 0.4645669291338583
          },
          {
            "duration": 0.14000000000000057,
            "durationTicks": 35,
            "midi": 36,
            "name": "C2",
            "ticks": 6360,
            "time": 25.439999999999998,
            "velocity": 0.6614173228346457
          },
          {
            "duration": 0.08399999999999963,
            "durationTicks": 21,
            "midi": 42,
            "name": "F#2",
            "ticks": 6420,
            "time": 25.68,
            "velocity": 0.5433070866141733
          },
          {
            "duration": 0.09600000000000364,
            "durationTicks": 24,
            "midi": 42,
            "name": "F#2",
            "ticks": 6480,
            "time": 25.919999999999998,
            "velocity": 0.6614173228346457
          },
          {
            "duration": 0.120000000000001,
            "durationTicks": 30,
            "midi": 36,
            "name": "C2",
            "ticks": 6480,
            "time": 25.919999999999998,
            "velocity": 0.6614173228346457
          },
          {
            "duration": 0.07599999999999696,
            "durationTicks": 19,
            "midi": 42,
            "name": "F#2",
            "ticks": 6540,
            "time": 26.16,
            "velocity": 0.5905511811023622
          },
          {
            "duration": 0.19199999999999662,
            "durationTicks": 48,
            "midi": 54,
            "name": "F#3",
            "ticks": 6540,
            "time": 26.16,
            "velocity": 0.6614173228346457
          },
          {
            "duration": 0.22000000000000242,
            "durationTicks": 55,
            "midi": 40,
            "name": "E2",
            "ticks": 6600,
            "time": 26.4,
            "velocity": 0.4645669291338583
          },
          {
            "duration": 0.11200000000000188,
            "durationTicks": 28,
            "midi": 42,
            "name": "F#2",
            "ticks": 6600,
            "time": 26.4,
            "velocity": 0.5905511811023622
          },
          {
            "duration": 0.10400000000000276,
            "durationTicks": 26,
            "midi": 36,
            "name": "C2",
            "ticks": 6600,
            "time": 26.4,
            "velocity": 0.7874015748031497
          },
          {
            "duration": 0.08399999999999608,
            "durationTicks": 21,
            "midi": 46,
            "name": "A#2",
            "ticks": 6660,
            "time": 26.64,
            "velocity": 0.7874015748031497
          },
          {
            "duration": 0.10000000000000142,
            "durationTicks": 25,
            "midi": 42,
            "name": "F#2",
            "ticks": 6720,
            "time": 26.88,
            "velocity": 0.6850393700787402
          },
          {
            "duration": 0.15200000000000102,
            "durationTicks": 38,
            "midi": 36,
            "name": "C2",
            "ticks": 6720,
            "time": 26.88,
            "velocity": 0.6850393700787402
          },
          {
            "duration": 0.0920000000000023,
            "durationTicks": 23,
            "midi": 42,
            "name": "F#2",
            "ticks": 6780,
            "time": 27.119999999999997,
            "velocity": 0.5433070866141733
          },
          {
            "duration": 0.1039999999999992,
            "durationTicks": 26,
            "midi": 42,
            "name": "F#2",
            "ticks": 6840,
            "time": 27.36,
            "velocity": 0.6614173228346457
          },
          {
            "duration": 0.30799999999999983,
            "durationTicks": 77,
            "midi": 40,
            "name": "E2",
            "ticks": 6840,
            "time": 27.36,
            "velocity": 0.4645669291338583
          },
          {
            "duration": 0.13999999999999702,
            "durationTicks": 35,
            "midi": 36,
            "name": "C2",
            "ticks": 6840,
            "time": 27.36,
            "velocity": 0.6614173228346457
          },
          {
            "duration": 0.08399999999999963,
            "durationTicks": 21,
            "midi": 42,
            "name": "F#2",
            "ticks": 6900,
            "time": 27.599999999999998,
            "velocity": 0.5433070866141733
          },
          {
            "duration": 0.09600000000000009,
            "durationTicks": 24,
            "midi": 42,
            "name": "F#2",
            "ticks": 6960,
            "time": 27.84,
            "velocity": 0.6614173228346457
          },
          {
            "duration": 0.11999999999999744,
            "durationTicks": 30,
            "midi": 36,
            "name": "C2",
            "ticks": 6960,
            "time": 27.84,
            "velocity": 0.6614173228346457
          },
          {
            "duration": 0.2120000000000033,
            "durationTicks": 53,
            "midi": 54,
            "name": "F#3",
            "ticks": 7020,
            "time": 28.08,
            "velocity": 0.5905511811023622
          },
          {
            "duration": 0.07600000000000051,
            "durationTicks": 19,
            "midi": 42,
            "name": "F#2",
            "ticks": 7020,
            "time": 28.08,
            "velocity": 0.5905511811023622
          },
          {
            "duration": 0.21999999999999886,
            "durationTicks": 55,
            "midi": 40,
            "name": "E2",
            "ticks": 7080,
            "time": 28.32,
            "velocity": 0.4645669291338583
          },
          {
            "duration": 0.11199999999999832,
            "durationTicks": 28,
            "midi": 42,
            "name": "F#2",
            "ticks": 7080,
            "time": 28.32,
            "velocity": 0.5905511811023622
          },
          {
            "duration": 0.1039999999999992,
            "durationTicks": 26,
            "midi": 36,
            "name": "C2",
            "ticks": 7080,
            "time": 28.32,
            "velocity": 0.7874015748031497
          },
          {
            "duration": 0.08399999999999963,
            "durationTicks": 21,
            "midi": 46,
            "name": "A#2",
            "ticks": 7140,
            "time": 28.56,
            "velocity": 0.7874015748031497
          },
          {
            "duration": 0.10000000000000142,
            "durationTicks": 25,
            "midi": 42,
            "name": "F#2",
            "ticks": 7200,
            "time": 28.799999999999997,
            "velocity": 0.6850393700787402
          },
          {
            "duration": 0.15200000000000458,
            "durationTicks": 38,
            "midi": 36,
            "name": "C2",
            "ticks": 7200,
            "time": 28.799999999999997,
            "velocity": 0.6850393700787402
          },
          {
            "duration": 0.0920000000000023,
            "durationTicks": 23,
            "midi": 42,
            "name": "F#2",
            "ticks": 7260,
            "time": 29.04,
            "velocity": 0.5433070866141733
          },
          {
            "duration": 0.10400000000000276,
            "durationTicks": 26,
            "midi": 42,
            "name": "F#2",
            "ticks": 7320,
            "time": 29.279999999999998,
            "velocity": 0.6614173228346457
          },
          {
            "duration": 0.30799999999999983,
            "durationTicks": 77,
            "midi": 40,
            "name": "E2",
            "ticks": 7320,
            "time": 29.279999999999998,
            "velocity": 0.4645669291338583
          },
          {
            "duration": 0.14000000000000057,
            "durationTicks": 35,
            "midi": 36,
            "name": "C2",
            "ticks": 7320,
            "time": 29.279999999999998,
            "velocity": 0.6614173228346457
          },
          {
            "duration": 0.08399999999999963,
            "durationTicks": 21,
            "midi": 42,
            "name": "F#2",
            "ticks": 7380,
            "time": 29.52,
            "velocity": 0.5433070866141733
          },
          {
            "duration": 0.09600000000000364,
            "durationTicks": 24,
            "midi": 42,
            "name": "F#2",
            "ticks": 7440,
            "time": 29.759999999999998,
            "velocity": 0.6614173228346457
          },
          {
            "duration": 0.120000000000001,
            "durationTicks": 30,
            "midi": 36,
            "name": "C2",
            "ticks": 7440,
            "time": 29.759999999999998,
            "velocity": 0.6614173228346457
          },
          {
            "duration": 0.20399999999999707,
            "durationTicks": 51,
            "midi": 54,
            "name": "F#3",
            "ticks": 7500,
            "time": 30,
            "velocity": 0.6850393700787402
          },
          {
            "duration": 0.07599999999999696,
            "durationTicks": 19,
            "midi": 42,
            "name": "F#2",
            "ticks": 7500,
            "time": 30,
            "velocity": 0.5905511811023622
          },
          {
            "duration": 0.22000000000000242,
            "durationTicks": 55,
            "midi": 40,
            "name": "E2",
            "ticks": 7560,
            "time": 30.24,
            "velocity": 0.4645669291338583
          },
          {
            "duration": 0.11200000000000188,
            "durationTicks": 28,
            "midi": 42,
            "name": "F#2",
            "ticks": 7560,
            "time": 30.24,
            "velocity": 0.5905511811023622
          },
          {
            "duration": 0.10400000000000276,
            "durationTicks": 26,
            "midi": 36,
            "name": "C2",
            "ticks": 7560,
            "time": 30.24,
            "velocity": 0.7874015748031497
          },
          {
            "duration": 0.08399999999999608,
            "durationTicks": 21,
            "midi": 46,
            "name": "A#2",
            "ticks": 7620,
            "time": 30.48,
            "velocity": 0.7874015748031497
          },
          {
            "duration": 0.09999999999999787,
            "durationTicks": 25,
            "midi": 42,
            "name": "F#2",
            "ticks": 7680,
            "time": 30.72,
            "velocity": 0.6850393700787402
          },
          {
            "duration": 0.15199999999999747,
            "durationTicks": 38,
            "midi": 36,
            "name": "C2",
            "ticks": 7680,
            "time": 30.72,
            "velocity": 0.6850393700787402
          },
          {
            "duration": 0.09199999999999875,
            "durationTicks": 23,
            "midi": 42,
            "name": "F#2",
            "ticks": 7740,
            "time": 30.959999999999997,
            "velocity": 0.5433070866141733
          },
          {
            "duration": 0.1039999999999992,
            "durationTicks": 26,
            "midi": 42,
            "name": "F#2",
            "ticks": 7800,
            "time": 31.2,
            "velocity": 0.6614173228346457
          },
          {
            "duration": 0.30799999999999983,
            "durationTicks": 77,
            "midi": 40,
            "name": "E2",
            "ticks": 7800,
            "time": 31.2,
            "velocity": 0.4645669291338583
          },
          {
            "duration": 0.14000000000000057,
            "durationTicks": 35,
            "midi": 36,
            "name": "C2",
            "ticks": 7800,
            "time": 31.2,
            "velocity": 0.6614173228346457
          },
          {
            "duration": 0.08399999999999963,
            "durationTicks": 21,
            "midi": 42,
            "name": "F#2",
            "ticks": 7860,
            "time": 31.439999999999998,
            "velocity": 0.5433070866141733
          },
          {
            "duration": 0.09600000000000009,
            "durationTicks": 24,
            "midi": 42,
            "name": "F#2",
            "ticks": 7920,
            "time": 31.68,
            "velocity": 0.6614173228346457
          },
          {
            "duration": 0.11999999999999744,
            "durationTicks": 30,
            "midi": 36,
            "name": "C2",
            "ticks": 7920,
            "time": 31.68,
            "velocity": 0.6614173228346457
          },
          {
            "duration": 0.23200000000000287,
            "durationTicks": 58,
            "midi": 54,
            "name": "F#3",
            "ticks": 7980,
            "time": 31.919999999999998,
            "velocity": 0.5905511811023622
          },
          {
            "duration": 0.07600000000000051,
            "durationTicks": 19,
            "midi": 42,
            "name": "F#2",
            "ticks": 7980,
            "time": 31.919999999999998,
            "velocity": 0.5905511811023622
          },
          {
            "duration": 0.21999999999999886,
            "durationTicks": 55,
            "midi": 40,
            "name": "E2",
            "ticks": 8040,
            "time": 32.16,
            "velocity": 0.4645669291338583
          },
          {
            "duration": 0.11200000000000188,
            "durationTicks": 28,
            "midi": 42,
            "name": "F#2",
            "ticks": 8040,
            "time": 32.16,
            "velocity": 0.5905511811023622
          },
          {
            "duration": 0.10400000000000631,
            "durationTicks": 26,
            "midi": 36,
            "name": "C2",
            "ticks": 8040,
            "time": 32.16,
            "velocity": 0.7874015748031497
          },
          {
            "duration": 0.08399999999999608,
            "durationTicks": 21,
            "midi": 46,
            "name": "A#2",
            "ticks": 8100,
            "time": 32.4,
            "velocity": 0.7874015748031497
          },
          {
            "duration": 0.09999999999999432,
            "durationTicks": 25,
            "midi": 42,
            "name": "F#2",
            "ticks": 8160,
            "time": 32.64,
            "velocity": 0.6850393700787402
          },
          {
            "duration": 0.15199999999999392,
            "durationTicks": 38,
            "midi": 36,
            "name": "C2",
            "ticks": 8160,
            "time": 32.64,
            "velocity": 0.6850393700787402
          },
          {
            "duration": 0.09199999999999875,
            "durationTicks": 23,
            "midi": 42,
            "name": "F#2",
            "ticks": 8220,
            "time": 32.879999999999995,
            "velocity": 0.5433070866141733
          },
          {
            "duration": 0.1039999999999992,
            "durationTicks": 26,
            "midi": 42,
            "name": "F#2",
            "ticks": 8280,
            "time": 33.12,
            "velocity": 0.6614173228346457
          },
          {
            "duration": 0.30799999999999983,
            "durationTicks": 77,
            "midi": 40,
            "name": "E2",
            "ticks": 8280,
            "time": 33.12,
            "velocity": 0.4645669291338583
          },
          {
            "duration": 0.14000000000000057,
            "durationTicks": 35,
            "midi": 36,
            "name": "C2",
            "ticks": 8280,
            "time": 33.12,
            "velocity": 0.6614173228346457
          },
          {
            "duration": 0.08399999999999608,
            "durationTicks": 21,
            "midi": 42,
            "name": "F#2",
            "ticks": 8340,
            "time": 33.36,
            "velocity": 0.5433070866141733
          },
          {
            "duration": 0.09599999999999653,
            "durationTicks": 24,
            "midi": 42,
            "name": "F#2",
            "ticks": 8400,
            "time": 33.6,
            "velocity": 0.6614173228346457
          },
          {
            "duration": 0.11999999999999744,
            "durationTicks": 30,
            "midi": 36,
            "name": "C2",
            "ticks": 8400,
            "time": 33.6,
            "velocity": 0.6614173228346457
          },
          {
            "duration": 0.24800000000000466,
            "durationTicks": 62,
            "midi": 54,
            "name": "F#3",
            "ticks": 8460,
            "time": 33.839999999999996,
            "velocity": 0.5905511811023622
          },
          {
            "duration": 0.07600000000000051,
            "durationTicks": 19,
            "midi": 42,
            "name": "F#2",
            "ticks": 8460,
            "time": 33.839999999999996,
            "velocity": 0.5905511811023622
          },
          {
            "duration": 0.21999999999999886,
            "durationTicks": 55,
            "midi": 40,
            "name": "E2",
            "ticks": 8520,
            "time": 34.08,
            "velocity": 0.4645669291338583
          },
          {
            "duration": 0.11200000000000188,
            "durationTicks": 28,
            "midi": 42,
            "name": "F#2",
            "ticks": 8520,
            "time": 34.08,
            "velocity": 0.5905511811023622
          },
          {
            "duration": 0.1039999999999992,
            "durationTicks": 26,
            "midi": 36,
            "name": "C2",
            "ticks": 8520,
            "time": 34.08,
            "velocity": 0.7874015748031497
          },
          {
            "duration": 0.08399999999999608,
            "durationTicks": 21,
            "midi": 46,
            "name": "A#2",
            "ticks": 8580,
            "time": 34.32,
            "velocity": 0.7874015748031497
          },
          {
            "duration": 0.09999999999999432,
            "durationTicks": 25,
            "midi": 42,
            "name": "F#2",
            "ticks": 8640,
            "time": 34.56,
            "velocity": 0.6850393700787402
          },
          {
            "duration": 0.15199999999999392,
            "durationTicks": 38,
            "midi": 36,
            "name": "C2",
            "ticks": 8640,
            "time": 34.56,
            "velocity": 0.6850393700787402
          },
          {
            "duration": 0.09199999999999875,
            "durationTicks": 23,
            "midi": 42,
            "name": "F#2",
            "ticks": 8700,
            "time": 34.8,
            "velocity": 0.5433070866141733
          },
          {
            "duration": 0.1039999999999992,
            "durationTicks": 26,
            "midi": 42,
            "name": "F#2",
            "ticks": 8760,
            "time": 35.04,
            "velocity": 0.6614173228346457
          },
          {
            "duration": 0.30799999999999983,
            "durationTicks": 77,
            "midi": 40,
            "name": "E2",
            "ticks": 8760,
            "time": 35.04,
            "velocity": 0.4645669291338583
          },
          {
            "duration": 0.14000000000000057,
            "durationTicks": 35,
            "midi": 36,
            "name": "C2",
            "ticks": 8760,
            "time": 35.04,
            "velocity": 0.6614173228346457
          },
          {
            "duration": 0.08399999999999608,
            "durationTicks": 21,
            "midi": 42,
            "name": "F#2",
            "ticks": 8820,
            "time": 35.28,
            "velocity": 0.5433070866141733
          },
          {
            "duration": 0.09600000000000364,
            "durationTicks": 24,
            "midi": 42,
            "name": "F#2",
            "ticks": 8880,
            "time": 35.519999999999996,
            "velocity": 0.6614173228346457
          },
          {
            "duration": 0.12000000000000455,
            "durationTicks": 30,
            "midi": 36,
            "name": "C2",
            "ticks": 8880,
            "time": 35.519999999999996,
            "velocity": 0.6614173228346457
          },
          {
            "duration": 0.24400000000000688,
            "durationTicks": 61,
            "midi": 54,
            "name": "F#3",
            "ticks": 8940,
            "time": 35.76,
            "velocity": 0.6614173228346457
          },
          {
            "duration": 0.07600000000000051,
            "durationTicks": 19,
            "midi": 42,
            "name": "F#2",
            "ticks": 8940,
            "time": 35.76,
            "velocity": 0.5905511811023622
          },
          {
            "duration": 0.21999999999999886,
            "durationTicks": 55,
            "midi": 40,
            "name": "E2",
            "ticks": 9000,
            "time": 36,
            "velocity": 0.4645669291338583
          },
          {
            "duration": 0.11200000000000188,
            "durationTicks": 28,
            "midi": 42,
            "name": "F#2",
            "ticks": 9000,
            "time": 36,
            "velocity": 0.5905511811023622
          },
          {
            "duration": 0.1039999999999992,
            "durationTicks": 26,
            "midi": 36,
            "name": "C2",
            "ticks": 9000,
            "time": 36,
            "velocity": 0.7874015748031497
          },
          {
            "duration": 0.08399999999999608,
            "durationTicks": 21,
            "midi": 46,
            "name": "A#2",
            "ticks": 9060,
            "time": 36.24,
            "velocity": 0.7874015748031497
          },
          {
            "duration": 0.10000000000000142,
            "durationTicks": 25,
            "midi": 42,
            "name": "F#2",
            "ticks": 9120,
            "time": 36.48,
            "velocity": 0.6850393700787402
          },
          {
            "duration": 0.15200000000000102,
            "durationTicks": 38,
            "midi": 36,
            "name": "C2",
            "ticks": 9120,
            "time": 36.48,
            "velocity": 0.6850393700787402
          },
          {
            "duration": 0.09199999999999875,
            "durationTicks": 23,
            "midi": 42,
            "name": "F#2",
            "ticks": 9180,
            "time": 36.72,
            "velocity": 0.5433070866141733
          },
          {
            "duration": 0.1039999999999992,
            "durationTicks": 26,
            "midi": 42,
            "name": "F#2",
            "ticks": 9240,
            "time": 36.96,
            "velocity": 0.6614173228346457
          },
          {
            "duration": 0.30799999999999983,
            "durationTicks": 77,
            "midi": 40,
            "name": "E2",
            "ticks": 9240,
            "time": 36.96,
            "velocity": 0.4645669291338583
          },
          {
            "duration": 0.14000000000000057,
            "durationTicks": 35,
            "midi": 36,
            "name": "C2",
            "ticks": 9240,
            "time": 36.96,
            "velocity": 0.6614173228346457
          },
          {
            "duration": 0.08400000000000318,
            "durationTicks": 21,
            "midi": 42,
            "name": "F#2",
            "ticks": 9300,
            "time": 37.199999999999996,
            "velocity": 0.5433070866141733
          },
          {
            "duration": 0.09600000000000364,
            "durationTicks": 24,
            "midi": 42,
            "name": "F#2",
            "ticks": 9360,
            "time": 37.44,
            "velocity": 0.6614173228346457
          },
          {
            "duration": 0.11999999999999744,
            "durationTicks": 30,
            "midi": 36,
            "name": "C2",
            "ticks": 9360,
            "time": 37.44,
            "velocity": 0.6614173228346457
          },
          {
            "duration": 0.21600000000000108,
            "durationTicks": 54,
            "midi": 54,
            "name": "F#3",
            "ticks": 9420,
            "time": 37.68,
            "velocity": 0.6850393700787402
          },
          {
            "duration": 0.07600000000000051,
            "durationTicks": 19,
            "midi": 42,
            "name": "F#2",
            "ticks": 9420,
            "time": 37.68,
            "velocity": 0.5905511811023622
          },
          {
            "duration": 0.21999999999999176,
            "durationTicks": 55,
            "midi": 40,
            "name": "E2",
            "ticks": 9480,
            "time": 37.92,
            "velocity": 0.4645669291338583
          },
          {
            "duration": 0.11199999999999477,
            "durationTicks": 28,
            "midi": 42,
            "name": "F#2",
            "ticks": 9480,
            "time": 37.92,
            "velocity": 0.5905511811023622
          },
          {
            "duration": 0.1039999999999992,
            "durationTicks": 26,
            "midi": 36,
            "name": "C2",
            "ticks": 9480,
            "time": 37.92,
            "velocity": 0.7874015748031497
          },
          {
            "duration": 0.08400000000000318,
            "durationTicks": 21,
            "midi": 46,
            "name": "A#2",
            "ticks": 9540,
            "time": 38.16,
            "velocity": 0.7874015748031497
          },
          {
            "duration": 0.09999999999999432,
            "durationTicks": 25,
            "midi": 42,
            "name": "F#2",
            "ticks": 9600,
            "time": 38.4,
            "velocity": 0.6850393700787402
          },
          {
            "duration": 0.15200000000000102,
            "durationTicks": 38,
            "midi": 36,
            "name": "C2",
            "ticks": 9600,
            "time": 38.4,
            "velocity": 0.6850393700787402
          },
          {
            "duration": 0.09199999999999875,
            "durationTicks": 23,
            "midi": 42,
            "name": "F#2",
            "ticks": 9660,
            "time": 38.64,
            "velocity": 0.5433070866141733
          },
          {
            "duration": 0.10400000000000631,
            "durationTicks": 26,
            "midi": 42,
            "name": "F#2",
            "ticks": 9720,
            "time": 38.879999999999995,
            "velocity": 0.6614173228346457
          },
          {
            "duration": 0.30799999999999983,
            "durationTicks": 77,
            "midi": 40,
            "name": "E2",
            "ticks": 9720,
            "time": 38.879999999999995,
            "velocity": 0.4645669291338583
          },
          {
            "duration": 0.14000000000000767,
            "durationTicks": 35,
            "midi": 36,
            "name": "C2",
            "ticks": 9720,
            "time": 38.879999999999995,
            "velocity": 0.6614173228346457
          },
          {
            "duration": 0.08400000000000318,
            "durationTicks": 21,
            "midi": 42,
            "name": "F#2",
            "ticks": 9780,
            "time": 39.12,
            "velocity": 0.5433070866141733
          },
          {
            "duration": 0.09600000000000364,
            "durationTicks": 24,
            "midi": 42,
            "name": "F#2",
            "ticks": 9840,
            "time": 39.36,
            "velocity": 0.6614173228346457
          },
          {
            "duration": 0.11999999999999744,
            "durationTicks": 30,
            "midi": 36,
            "name": "C2",
            "ticks": 9840,
            "time": 39.36,
            "velocity": 0.6614173228346457
          },
          {
            "duration": 0.22799999999999443,
            "durationTicks": 57,
            "midi": 54,
            "name": "F#3",
            "ticks": 9900,
            "time": 39.6,
            "velocity": 0.6850393700787402
          },
          {
            "duration": 0.0759999999999934,
            "durationTicks": 19,
            "midi": 42,
            "name": "F#2",
            "ticks": 9900,
            "time": 39.6,
            "velocity": 0.5905511811023622
          },
          {
            "duration": 0.21999999999999886,
            "durationTicks": 55,
            "midi": 40,
            "name": "E2",
            "ticks": 9960,
            "time": 39.839999999999996,
            "velocity": 0.4645669291338583
          },
          {
            "duration": 0.11200000000000188,
            "durationTicks": 28,
            "midi": 42,
            "name": "F#2",
            "ticks": 9960,
            "time": 39.839999999999996,
            "velocity": 0.5905511811023622
          },
          {
            "duration": 0.10400000000000631,
            "durationTicks": 26,
            "midi": 36,
            "name": "C2",
            "ticks": 9960,
            "time": 39.839999999999996,
            "velocity": 0.7874015748031497
          },
          {
            "duration": 0.08399999999999608,
            "durationTicks": 21,
            "midi": 46,
            "name": "A#2",
            "ticks": 10020,
            "time": 40.08,
            "velocity": 0.7874015748031497
          },
          {
            "duration": 0.09999999999999432,
            "durationTicks": 25,
            "midi": 42,
            "name": "F#2",
            "ticks": 10080,
            "time": 40.32,
            "velocity": 0.6850393700787402
          },
          {
            "duration": 0.15199999999999392,
            "durationTicks": 38,
            "midi": 36,
            "name": "C2",
            "ticks": 10080,
            "time": 40.32,
            "velocity": 0.6850393700787402
          },
          {
            "duration": 0.09199999999999875,
            "durationTicks": 23,
            "midi": 42,
            "name": "F#2",
            "ticks": 10140,
            "time": 40.559999999999995,
            "velocity": 0.5433070866141733
          },
          {
            "duration": 0.1039999999999992,
            "durationTicks": 26,
            "midi": 42,
            "name": "F#2",
            "ticks": 10200,
            "time": 40.8,
            "velocity": 0.6614173228346457
          },
          {
            "duration": 0.30799999999999983,
            "durationTicks": 77,
            "midi": 40,
            "name": "E2",
            "ticks": 10200,
            "time": 40.8,
            "velocity": 0.4645669291338583
          },
          {
            "duration": 0.14000000000000057,
            "durationTicks": 35,
            "midi": 36,
            "name": "C2",
            "ticks": 10200,
            "time": 40.8,
            "velocity": 0.6614173228346457
          },
          {
            "duration": 0.08399999999999608,
            "durationTicks": 21,
            "midi": 42,
            "name": "F#2",
            "ticks": 10260,
            "time": 41.04,
            "velocity": 0.5433070866141733
          },
          {
            "duration": 0.09599999999999653,
            "durationTicks": 24,
            "midi": 42,
            "name": "F#2",
            "ticks": 10320,
            "time": 41.28,
            "velocity": 0.6614173228346457
          },
          {
            "duration": 0.11999999999999744,
            "durationTicks": 30,
            "midi": 36,
            "name": "C2",
            "ticks": 10320,
            "time": 41.28,
            "velocity": 0.6614173228346457
          },
          {
            "duration": 0.0519999999999996,
            "durationTicks": 13,
            "midi": 42,
            "name": "F#2",
            "ticks": 10380,
            "time": 41.519999999999996,
            "velocity": 0.7874015748031497
          },
          {
            "duration": 0.1840000000000046,
            "durationTicks": 46,
            "midi": 54,
            "name": "F#3",
            "ticks": 10380,
            "time": 41.519999999999996,
            "velocity": 0.6220472440944882
          },
          {
            "duration": 0.07600000000000051,
            "durationTicks": 19,
            "midi": 42,
            "name": "F#2",
            "ticks": 10380,
            "time": 41.519999999999996,
            "velocity": 0.5905511811023622
          },
          {
            "duration": 0.047999999999994714,
            "durationTicks": 12,
            "midi": 42,
            "name": "F#2",
            "ticks": 10410,
            "time": 41.64,
            "velocity": 0.6614173228346457
          },
          {
            "duration": 0.06400000000000716,
            "durationTicks": 16,
            "midi": 42,
            "name": "F#2",
            "ticks": 10440,
            "time": 41.76,
            "velocity": 0.8661417322834646
          },
          {
            "duration": 0.21999999999999886,
            "durationTicks": 55,
            "midi": 40,
            "name": "E2",
            "ticks": 10440,
            "time": 41.76,
            "velocity": 0.4645669291338583
          },
          {
            "duration": 0.11200000000000188,
            "durationTicks": 28,
            "midi": 42,
            "name": "F#2",
            "ticks": 10440,
            "time": 41.76,
            "velocity": 0.5905511811023622
          },
          {
            "duration": 0.1039999999999992,
            "durationTicks": 26,
            "midi": 36,
            "name": "C2",
            "ticks": 10440,
            "time": 41.76,
            "velocity": 0.7874015748031497
          },
          {
            "duration": 0.05999999999999517,
            "durationTicks": 15,
            "midi": 42,
            "name": "F#2",
            "ticks": 10500,
            "time": 42,
            "velocity": 0.952755905511811
          },
          {
            "duration": 0.08399999999999608,
            "durationTicks": 21,
            "midi": 46,
            "name": "A#2",
            "ticks": 10500,
            "time": 42,
            "velocity": 0.7874015748031497
          },
          {
            "duration": 0.06799999999999784,
            "durationTicks": 17,
            "midi": 42,
            "name": "F#2",
            "ticks": 10530,
            "time": 42.12,
            "velocity": 0.6850393700787402
          },
          {
            "duration": 0.055999999999997385,
            "durationTicks": 14,
            "midi": 42,
            "name": "F#2",
            "ticks": 10560,
            "time": 42.239999999999995,
            "velocity": 0.6850393700787402
          },
          {
            "duration": 0.15200000000000102,
            "durationTicks": 38,
            "midi": 36,
            "name": "C2",
            "ticks": 10560,
            "time": 42.239999999999995,
            "velocity": 0.6850393700787402
          },
          {
            "duration": 0.10000000000000142,
            "durationTicks": 25,
            "midi": 42,
            "name": "F#2",
            "ticks": 10560,
            "time": 42.239999999999995,
            "velocity": 0.952755905511811
          },
          {
            "duration": 0.09199999999999875,
            "durationTicks": 23,
            "midi": 42,
            "name": "F#2",
            "ticks": 10620,
            "time": 42.48,
            "velocity": 0.5433070866141733
          },
          {
            "duration": 0.1039999999999992,
            "durationTicks": 26,
            "midi": 42,
            "name": "F#2",
            "ticks": 10680,
            "time": 42.72,
            "velocity": 0.6614173228346457
          },
          {
            "duration": 0.30799999999999983,
            "durationTicks": 77,
            "midi": 40,
            "name": "E2",
            "ticks": 10680,
            "time": 42.72,
            "velocity": 0.4645669291338583
          },
          {
            "duration": 0.14000000000000057,
            "durationTicks": 35,
            "midi": 36,
            "name": "C2",
            "ticks": 10680,
            "time": 42.72,
            "velocity": 0.6614173228346457
          },
          {
            "duration": 0.08399999999999608,
            "durationTicks": 21,
            "midi": 42,
            "name": "F#2",
            "ticks": 10740,
            "time": 42.96,
            "velocity": 0.5433070866141733
          },
          {
            "duration": 0.09600000000000364,
            "durationTicks": 24,
            "midi": 42,
            "name": "F#2",
            "ticks": 10800,
            "time": 43.199999999999996,
            "velocity": 0.6614173228346457
          },
          {
            "duration": 0.12000000000000455,
            "durationTicks": 30,
            "midi": 36,
            "name": "C2",
            "ticks": 10800,
            "time": 43.199999999999996,
            "velocity": 0.6614173228346457
          },
          {
            "duration": 0.22400000000000375,
            "durationTicks": 56,
            "midi": 54,
            "name": "F#3",
            "ticks": 10860,
            "time": 43.44,
            "velocity": 0.6614173228346457
          },
          {
            "duration": 0.07600000000000051,
            "durationTicks": 19,
            "midi": 42,
            "name": "F#2",
            "ticks": 10860,
            "time": 43.44,
            "velocity": 0.5905511811023622
          },
          {
            "duration": 0.21999999999999886,
            "durationTicks": 55,
            "midi": 40,
            "name": "E2",
            "ticks": 10920,
            "time": 43.68,
            "velocity": 0.4645669291338583
          },
          {
            "duration": 0.11200000000000188,
            "durationTicks": 28,
            "midi": 42,
            "name": "F#2",
            "ticks": 10920,
            "time": 43.68,
            "velocity": 0.5905511811023622
          },
          {
            "duration": 0.1039999999999992,
            "durationTicks": 26,
            "midi": 36,
            "name": "C2",
            "ticks": 10920,
            "time": 43.68,
            "velocity": 0.7874015748031497
          },
          {
            "duration": 0.08399999999999608,
            "durationTicks": 21,
            "midi": 46,
            "name": "A#2",
            "ticks": 10980,
            "time": 43.92,
            "velocity": 0.7874015748031497
          },
          {
            "duration": 0.10000000000000142,
            "durationTicks": 25,
            "midi": 42,
            "name": "F#2",
            "ticks": 11040,
            "time": 44.16,
            "velocity": 0.6850393700787402
          },
          {
            "duration": 0.15200000000000102,
            "durationTicks": 38,
            "midi": 36,
            "name": "C2",
            "ticks": 11040,
            "time": 44.16,
            "velocity": 0.6850393700787402
          },
          {
            "duration": 0.09199999999999875,
            "durationTicks": 23,
            "midi": 42,
            "name": "F#2",
            "ticks": 11100,
            "time": 44.4,
            "velocity": 0.5433070866141733
          },
          {
            "duration": 0.1039999999999992,
            "durationTicks": 26,
            "midi": 42,
            "name": "F#2",
            "ticks": 11160,
            "time": 44.64,
            "velocity": 0.6614173228346457
          },
          {
            "duration": 0.30799999999999983,
            "durationTicks": 77,
            "midi": 40,
            "name": "E2",
            "ticks": 11160,
            "time": 44.64,
            "velocity": 0.4645669291338583
          },
          {
            "duration": 0.14000000000000057,
            "durationTicks": 35,
            "midi": 36,
            "name": "C2",
            "ticks": 11160,
            "time": 44.64,
            "velocity": 0.6614173228346457
          },
          {
            "duration": 0.08400000000000318,
            "durationTicks": 21,
            "midi": 42,
            "name": "F#2",
            "ticks": 11220,
            "time": 44.879999999999995,
            "velocity": 0.5433070866141733
          },
          {
            "duration": 0.09600000000000364,
            "durationTicks": 24,
            "midi": 42,
            "name": "F#2",
            "ticks": 11280,
            "time": 45.12,
            "velocity": 0.6614173228346457
          },
          {
            "duration": 0.11999999999999744,
            "durationTicks": 30,
            "midi": 36,
            "name": "C2",
            "ticks": 11280,
            "time": 45.12,
            "velocity": 0.6614173228346457
          },
          {
            "duration": 0.0519999999999996,
            "durationTicks": 13,
            "midi": 42,
            "name": "F#2",
            "ticks": 11340,
            "time": 45.36,
            "velocity": 0.8661417322834646
          },
          {
            "duration": 0.23199999999999932,
            "durationTicks": 58,
            "midi": 54,
            "name": "F#3",
            "ticks": 11340,
            "time": 45.36,
            "velocity": 0.6850393700787402
          },
          {
            "duration": 0.07600000000000051,
            "durationTicks": 19,
            "midi": 42,
            "name": "F#2",
            "ticks": 11340,
            "time": 45.36,
            "velocity": 0.5905511811023622
          },
          {
            "duration": 0.055999999999997385,
            "durationTicks": 14,
            "midi": 42,
            "name": "F#2",
            "ticks": 11370,
            "time": 45.48,
            "velocity": 0.5433070866141733
          },
          {
            "duration": 0.06400000000000006,
            "durationTicks": 16,
            "midi": 42,
            "name": "F#2",
            "ticks": 11400,
            "time": 45.6,
            "velocity": 0.8661417322834646
          },
          {
            "duration": 0.21999999999999176,
            "durationTicks": 55,
            "midi": 40,
            "name": "E2",
            "ticks": 11400,
            "time": 45.6,
            "velocity": 0.4645669291338583
          },
          {
            "duration": 0.11199999999999477,
            "durationTicks": 28,
            "midi": 42,
            "name": "F#2",
            "ticks": 11400,
            "time": 45.6,
            "velocity": 0.5905511811023622
          },
          {
            "duration": 0.1039999999999992,
            "durationTicks": 26,
            "midi": 36,
            "name": "C2",
            "ticks": 11400,
            "time": 45.6,
            "velocity": 0.7874015748031497
          },
          {
            "duration": 0.06400000000000716,
            "durationTicks": 16,
            "midi": 42,
            "name": "F#2",
            "ticks": 11460,
            "time": 45.839999999999996,
            "velocity": 0.952755905511811
          },
          {
            "duration": 0.08400000000000318,
            "durationTicks": 21,
            "midi": 46,
            "name": "A#2",
            "ticks": 11460,
            "time": 45.839999999999996,
            "velocity": 0.7874015748031497
          },
          {
            "duration": 0.05999999999999517,
            "durationTicks": 15,
            "midi": 42,
            "name": "F#2",
            "ticks": 11490,
            "time": 45.96,
            "velocity": 0.5118110236220472
          },
          {
            "duration": 0.0519999999999996,
            "durationTicks": 13,
            "midi": 42,
            "name": "F#2",
            "ticks": 11520,
            "time": 46.08,
            "velocity": 0.6850393700787402
          },
          {
            "duration": 0.09999999999999432,
            "durationTicks": 25,
            "midi": 42,
            "name": "F#2",
            "ticks": 11520,
            "time": 46.08,
            "velocity": 0.8976377952755905
          },
          {
            "duration": 0.15200000000000102,
            "durationTicks": 38,
            "midi": 36,
            "name": "C2",
            "ticks": 11520,
            "time": 46.08,
            "velocity": 0.6850393700787402
          },
          {
            "duration": 0.09199999999999875,
            "durationTicks": 23,
            "midi": 42,
            "name": "F#2",
            "ticks": 11580,
            "time": 46.32,
            "velocity": 0.5433070866141733
          },
          {
            "duration": 0.10400000000000631,
            "durationTicks": 26,
            "midi": 42,
            "name": "F#2",
            "ticks": 11640,
            "time": 46.559999999999995,
            "velocity": 0.6614173228346457
          },
          {
            "duration": 0.30799999999999983,
            "durationTicks": 77,
            "midi": 40,
            "name": "E2",
            "ticks": 11640,
            "time": 46.559999999999995,
            "velocity": 0.4645669291338583
          },
          {
            "duration": 0.14000000000000767,
            "durationTicks": 35,
            "midi": 36,
            "name": "C2",
            "ticks": 11640,
            "time": 46.559999999999995,
            "velocity": 0.6614173228346457
          },
          {
            "duration": 0.08400000000000318,
            "durationTicks": 21,
            "midi": 42,
            "name": "F#2",
            "ticks": 11700,
            "time": 46.8,
            "velocity": 0.5433070866141733
          },
          {
            "duration": 0.09600000000000364,
            "durationTicks": 24,
            "midi": 42,
            "name": "F#2",
            "ticks": 11760,
            "time": 47.04,
            "velocity": 0.6614173228346457
          },
          {
            "duration": 0.11999999999999744,
            "durationTicks": 30,
            "midi": 36,
            "name": "C2",
            "ticks": 11760,
            "time": 47.04,
            "velocity": 0.6614173228346457
          },
          {
            "duration": 0.23999999999999488,
            "durationTicks": 60,
            "midi": 54,
            "name": "F#3",
            "ticks": 11820,
            "time": 47.28,
            "velocity": 0.6614173228346457
          },
          {
            "duration": 0.0759999999999934,
            "durationTicks": 19,
            "midi": 42,
            "name": "F#2",
            "ticks": 11820,
            "time": 47.28,
            "velocity": 0.5905511811023622
          },
          {
            "duration": 0.21999999999999886,
            "durationTicks": 55,
            "midi": 40,
            "name": "E2",
            "ticks": 11880,
            "time": 47.519999999999996,
            "velocity": 0.4645669291338583
          },
          {
            "duration": 0.11200000000000188,
            "durationTicks": 28,
            "midi": 42,
            "name": "F#2",
            "ticks": 11880,
            "time": 47.519999999999996,
            "velocity": 0.5905511811023622
          },
          {
            "duration": 0.10400000000000631,
            "durationTicks": 26,
            "midi": 36,
            "name": "C2",
            "ticks": 11880,
            "time": 47.519999999999996,
            "velocity": 0.7874015748031497
          },
          {
            "duration": 0.08399999999999608,
            "durationTicks": 21,
            "midi": 46,
            "name": "A#2",
            "ticks": 11940,
            "time": 47.76,
            "velocity": 0.7874015748031497
          },
          {
            "duration": 0.09999999999999432,
            "durationTicks": 25,
            "midi": 42,
            "name": "F#2",
            "ticks": 12000,
            "time": 48,
            "velocity": 0.6850393700787402
          },
          {
            "duration": 0.15199999999999392,
            "durationTicks": 38,
            "midi": 36,
            "name": "C2",
            "ticks": 12000,
            "time": 48,
            "velocity": 0.6850393700787402
          },
          {
            "duration": 0.09199999999999875,
            "durationTicks": 23,
            "midi": 42,
            "name": "F#2",
            "ticks": 12060,
            "time": 48.239999999999995,
            "velocity": 0.5433070866141733
          },
          {
            "duration": 0.1039999999999992,
            "durationTicks": 26,
            "midi": 42,
            "name": "F#2",
            "ticks": 12120,
            "time": 48.48,
            "velocity": 0.6614173228346457
          },
          {
            "duration": 0.30799999999999983,
            "durationTicks": 77,
            "midi": 40,
            "name": "E2",
            "ticks": 12120,
            "time": 48.48,
            "velocity": 0.4645669291338583
          },
          {
            "duration": 0.14000000000000057,
            "durationTicks": 35,
            "midi": 36,
            "name": "C2",
            "ticks": 12120,
            "time": 48.48,
            "velocity": 0.6614173228346457
          },
          {
            "duration": 0.08399999999999608,
            "durationTicks": 21,
            "midi": 42,
            "name": "F#2",
            "ticks": 12180,
            "time": 48.72,
            "velocity": 0.5433070866141733
          },
          {
            "duration": 0.09599999999999653,
            "durationTicks": 24,
            "midi": 42,
            "name": "F#2",
            "ticks": 12240,
            "time": 48.96,
            "velocity": 0.6614173228346457
          },
          {
            "duration": 0.11999999999999744,
            "durationTicks": 30,
            "midi": 36,
            "name": "C2",
            "ticks": 12240,
            "time": 48.96,
            "velocity": 0.6614173228346457
          },
          {
            "duration": 0.2080000000000055,
            "durationTicks": 52,
            "midi": 54,
            "name": "F#3",
            "ticks": 12300,
            "time": 49.199999999999996,
            "velocity": 0.6614173228346457
          },
          {
            "duration": 0.04800000000000182,
            "durationTicks": 12,
            "midi": 42,
            "name": "F#2",
            "ticks": 12300,
            "time": 49.199999999999996,
            "velocity": 0.7874015748031497
          },
          {
            "duration": 0.07600000000000051,
            "durationTicks": 19,
            "midi": 42,
            "name": "F#2",
            "ticks": 12300,
            "time": 49.199999999999996,
            "velocity": 0.5905511811023622
          },
          {
            "duration": 0.055999999999997385,
            "durationTicks": 14,
            "midi": 42,
            "name": "F#2",
            "ticks": 12330,
            "time": 49.32,
            "velocity": 0.5039370078740157
          },
          {
            "duration": 0.060000000000002274,
            "durationTicks": 15,
            "midi": 42,
            "name": "F#2",
            "ticks": 12360,
            "time": 49.44,
            "velocity": 0.8661417322834646
          },
          {
            "duration": 0.21999999999999886,
            "durationTicks": 55,
            "midi": 40,
            "name": "E2",
            "ticks": 12360,
            "time": 49.44,
            "velocity": 0.4645669291338583
          },
          {
            "duration": 0.11200000000000188,
            "durationTicks": 28,
            "midi": 42,
            "name": "F#2",
            "ticks": 12360,
            "time": 49.44,
            "velocity": 0.5905511811023622
          },
          {
            "duration": 0.1039999999999992,
            "durationTicks": 26,
            "midi": 36,
            "name": "C2",
            "ticks": 12360,
            "time": 49.44,
            "velocity": 0.7874015748031497
          },
          {
            "duration": 0.055999999999997385,
            "durationTicks": 14,
            "midi": 42,
            "name": "F#2",
            "ticks": 12420,
            "time": 49.68,
            "velocity": 0.8976377952755905
          },
          {
            "duration": 0.08399999999999608,
            "durationTicks": 21,
            "midi": 46,
            "name": "A#2",
            "ticks": 12420,
            "time": 49.68,
            "velocity": 0.7874015748031497
          },
          {
            "duration": 0.055999999999997385,
            "durationTicks": 14,
            "midi": 42,
            "name": "F#2",
            "ticks": 12450,
            "time": 49.8,
            "velocity": 0.47244094488188976
          },
          {
            "duration": 0.05599999999999028,
            "durationTicks": 14,
            "midi": 42,
            "name": "F#2",
            "ticks": 12480,
            "time": 49.92,
            "velocity": 0.6850393700787402
          },
          {
            "duration": 0.15199999999999392,
            "durationTicks": 38,
            "midi": 36,
            "name": "C2",
            "ticks": 12480,
            "time": 49.92,
            "velocity": 0.6850393700787402
          },
          {
            "duration": 0.09999999999999432,
            "durationTicks": 25,
            "midi": 42,
            "name": "F#2",
            "ticks": 12480,
            "time": 49.92,
            "velocity": 0.8976377952755905
          },
          {
            "duration": 0.09199999999999875,
            "durationTicks": 23,
            "midi": 42,
            "name": "F#2",
            "ticks": 12540,
            "time": 50.16,
            "velocity": 0.5433070866141733
          },
          {
            "duration": 0.1039999999999992,
            "durationTicks": 26,
            "midi": 42,
            "name": "F#2",
            "ticks": 12600,
            "time": 50.4,
            "velocity": 0.6614173228346457
          },
          {
            "duration": 0.30799999999999983,
            "durationTicks": 77,
            "midi": 40,
            "name": "E2",
            "ticks": 12600,
            "time": 50.4,
            "velocity": 0.4645669291338583
          },
          {
            "duration": 0.14000000000000057,
            "durationTicks": 35,
            "midi": 36,
            "name": "C2",
            "ticks": 12600,
            "time": 50.4,
            "velocity": 0.6614173228346457
          },
          {
            "duration": 0.08399999999999608,
            "durationTicks": 21,
            "midi": 42,
            "name": "F#2",
            "ticks": 12660,
            "time": 50.64,
            "velocity": 0.5433070866141733
          },
          {
            "duration": 0.09600000000000364,
            "durationTicks": 24,
            "midi": 42,
            "name": "F#2",
            "ticks": 12720,
            "time": 50.879999999999995,
            "velocity": 0.6614173228346457
          },
          {
            "duration": 0.12000000000000455,
            "durationTicks": 30,
            "midi": 36,
            "name": "C2",
            "ticks": 12720,
            "time": 50.879999999999995,
            "velocity": 0.6614173228346457
          },
          {
            "duration": 0.25200000000000244,
            "durationTicks": 63,
            "midi": 54,
            "name": "F#3",
            "ticks": 12780,
            "time": 51.12,
            "velocity": 0.6850393700787402
          },
          {
            "duration": 0.07600000000000051,
            "durationTicks": 19,
            "midi": 42,
            "name": "F#2",
            "ticks": 12780,
            "time": 51.12,
            "velocity": 0.5905511811023622
          },
          {
            "duration": 0.21999999999999886,
            "durationTicks": 55,
            "midi": 40,
            "name": "E2",
            "ticks": 12840,
            "time": 51.36,
            "velocity": 0.4645669291338583
          },
          {
            "duration": 0.11200000000000188,
            "durationTicks": 28,
            "midi": 42,
            "name": "F#2",
            "ticks": 12840,
            "time": 51.36,
            "velocity": 0.5905511811023622
          },
          {
            "duration": 0.1039999999999992,
            "durationTicks": 26,
            "midi": 36,
            "name": "C2",
            "ticks": 12840,
            "time": 51.36,
            "velocity": 0.7874015748031497
          },
          {
            "duration": 0.08399999999999608,
            "durationTicks": 21,
            "midi": 46,
            "name": "A#2",
            "ticks": 12900,
            "time": 51.6,
            "velocity": 0.7874015748031497
          },
          {
            "duration": 0.10000000000000142,
            "durationTicks": 25,
            "midi": 42,
            "name": "F#2",
            "ticks": 12960,
            "time": 51.839999999999996,
            "velocity": 0.6850393700787402
          },
          {
            "duration": 0.15200000000000102,
            "durationTicks": 38,
            "midi": 36,
            "name": "C2",
            "ticks": 12960,
            "time": 51.839999999999996,
            "velocity": 0.6850393700787402
          },
          {
            "duration": 0.09199999999999875,
            "durationTicks": 23,
            "midi": 42,
            "name": "F#2",
            "ticks": 13020,
            "time": 52.08,
            "velocity": 0.5433070866141733
          },
          {
            "duration": 0.1039999999999992,
            "durationTicks": 26,
            "midi": 42,
            "name": "F#2",
            "ticks": 13080,
            "time": 52.32,
            "velocity": 0.6614173228346457
          },
          {
            "duration": 0.30799999999999983,
            "durationTicks": 77,
            "midi": 40,
            "name": "E2",
            "ticks": 13080,
            "time": 52.32,
            "velocity": 0.4645669291338583
          },
          {
            "duration": 0.14000000000000057,
            "durationTicks": 35,
            "midi": 36,
            "name": "C2",
            "ticks": 13080,
            "time": 52.32,
            "velocity": 0.6614173228346457
          },
          {
            "duration": 0.08400000000000318,
            "durationTicks": 21,
            "midi": 42,
            "name": "F#2",
            "ticks": 13140,
            "time": 52.559999999999995,
            "velocity": 0.5433070866141733
          },
          {
            "duration": 0.09600000000000364,
            "durationTicks": 24,
            "midi": 42,
            "name": "F#2",
            "ticks": 13200,
            "time": 52.8,
            "velocity": 0.6614173228346457
          },
          {
            "duration": 0.11999999999999744,
            "durationTicks": 30,
            "midi": 36,
            "name": "C2",
            "ticks": 13200,
            "time": 52.8,
            "velocity": 0.6614173228346457
          },
          {
            "duration": 0.047999999999994714,
            "durationTicks": 12,
            "midi": 42,
            "name": "F#2",
            "ticks": 13260,
            "time": 53.04,
            "velocity": 0.7874015748031497
          },
          {
            "duration": 0.2079999999999984,
            "durationTicks": 52,
            "midi": 54,
            "name": "F#3",
            "ticks": 13260,
            "time": 53.04,
            "velocity": 0.6614173228346457
          },
          {
            "duration": 0.07600000000000051,
            "durationTicks": 19,
            "midi": 42,
            "name": "F#2",
            "ticks": 13260,
            "time": 53.04,
            "velocity": 0.5905511811023622
          },
          {
            "duration": 0.060000000000002274,
            "durationTicks": 15,
            "midi": 42,
            "name": "F#2",
            "ticks": 13290,
            "time": 53.16,
            "velocity": 0.4881889763779528
          },
          {
            "duration": 0.05999999999999517,
            "durationTicks": 15,
            "midi": 42,
            "name": "F#2",
            "ticks": 13320,
            "time": 53.28,
            "velocity": 0.8661417322834646
          },
          {
            "duration": 0.21999999999999176,
            "durationTicks": 55,
            "midi": 40,
            "name": "E2",
            "ticks": 13320,
            "time": 53.28,
            "velocity": 0.4645669291338583
          },
          {
            "duration": 0.11199999999999477,
            "durationTicks": 28,
            "midi": 42,
            "name": "F#2",
            "ticks": 13320,
            "time": 53.28,
            "velocity": 0.5905511811023622
          },
          {
            "duration": 0.1039999999999992,
            "durationTicks": 26,
            "midi": 36,
            "name": "C2",
            "ticks": 13320,
            "time": 53.28,
            "velocity": 0.7874015748031497
          },
          {
            "duration": 0.0519999999999996,
            "durationTicks": 13,
            "midi": 42,
            "name": "F#2",
            "ticks": 13380,
            "time": 53.519999999999996,
            "velocity": 0.8661417322834646
          },
          {
            "duration": 0.08400000000000318,
            "durationTicks": 21,
            "midi": 46,
            "name": "A#2",
            "ticks": 13380,
            "time": 53.519999999999996,
            "velocity": 0.7874015748031497
          },
          {
            "duration": 0.0519999999999996,
            "durationTicks": 13,
            "midi": 42,
            "name": "F#2",
            "ticks": 13410,
            "time": 53.64,
            "velocity": 0.4881889763779528
          },
          {
            "duration": 0.09999999999999432,
            "durationTicks": 25,
            "midi": 42,
            "name": "F#2",
            "ticks": 13440,
            "time": 53.76,
            "velocity": 0.6850393700787402
          },
          {
            "duration": 0.15200000000000102,
            "durationTicks": 38,
            "midi": 36,
            "name": "C2",
            "ticks": 13440,
            "time": 53.76,
            "velocity": 0.6850393700787402
          },
          {
            "duration": 0.09199999999999875,
            "durationTicks": 23,
            "midi": 42,
            "name": "F#2",
            "ticks": 13500,
            "time": 54,
            "velocity": 0.5433070866141733
          },
          {
            "duration": 0.10400000000000631,
            "durationTicks": 26,
            "midi": 42,
            "name": "F#2",
            "ticks": 13560,
            "time": 54.239999999999995,
            "velocity": 0.6614173228346457
          },
          {
            "duration": 0.30799999999999983,
            "durationTicks": 77,
            "midi": 40,
            "name": "E2",
            "ticks": 13560,
            "time": 54.239999999999995,
            "velocity": 0.4645669291338583
          },
          {
            "duration": 0.14000000000000767,
            "durationTicks": 35,
            "midi": 36,
            "name": "C2",
            "ticks": 13560,
            "time": 54.239999999999995,
            "velocity": 0.6614173228346457
          },
          {
            "duration": 0.08400000000000318,
            "durationTicks": 21,
            "midi": 42,
            "name": "F#2",
            "ticks": 13620,
            "time": 54.48,
            "velocity": 0.5433070866141733
          },
          {
            "duration": 0.09600000000000364,
            "durationTicks": 24,
            "midi": 42,
            "name": "F#2",
            "ticks": 13680,
            "time": 54.72,
            "velocity": 0.6614173228346457
          },
          {
            "duration": 0.11999999999999744,
            "durationTicks": 30,
            "midi": 36,
            "name": "C2",
            "ticks": 13680,
            "time": 54.72,
            "velocity": 0.6614173228346457
          },
          {
            "duration": 0.23199999999999932,
            "durationTicks": 58,
            "midi": 54,
            "name": "F#3",
            "ticks": 13740,
            "time": 54.96,
            "velocity": 0.6614173228346457
          },
          {
            "duration": 0.0759999999999934,
            "durationTicks": 19,
            "midi": 42,
            "name": "F#2",
            "ticks": 13740,
            "time": 54.96,
            "velocity": 0.5905511811023622
          },
          {
            "duration": 0.21999999999999886,
            "durationTicks": 55,
            "midi": 40,
            "name": "E2",
            "ticks": 13800,
            "time": 55.199999999999996,
            "velocity": 0.4645669291338583
          },
          {
            "duration": 0.11200000000000188,
            "durationTicks": 28,
            "midi": 42,
            "name": "F#2",
            "ticks": 13800,
            "time": 55.199999999999996,
            "velocity": 0.5905511811023622
          },
          {
            "duration": 0.10400000000000631,
            "durationTicks": 26,
            "midi": 36,
            "name": "C2",
            "ticks": 13800,
            "time": 55.199999999999996,
            "velocity": 0.7874015748031497
          },
          {
            "duration": 0.08399999999999608,
            "durationTicks": 21,
            "midi": 46,
            "name": "A#2",
            "ticks": 13860,
            "time": 55.44,
            "velocity": 0.7874015748031497
          },
          {
            "duration": 0.09999999999999432,
            "durationTicks": 25,
            "midi": 42,
            "name": "F#2",
            "ticks": 13920,
            "time": 55.68,
            "velocity": 0.6850393700787402
          },
          {
            "duration": 0.15199999999999392,
            "durationTicks": 38,
            "midi": 36,
            "name": "C2",
            "ticks": 13920,
            "time": 55.68,
            "velocity": 0.6850393700787402
          },
          {
            "duration": 0.09199999999999875,
            "durationTicks": 23,
            "midi": 42,
            "name": "F#2",
            "ticks": 13980,
            "time": 55.919999999999995,
            "velocity": 0.5433070866141733
          },
          {
            "duration": 0.1039999999999992,
            "durationTicks": 26,
            "midi": 42,
            "name": "F#2",
            "ticks": 14040,
            "time": 56.16,
            "velocity": 0.6614173228346457
          },
          {
            "duration": 0.30799999999999983,
            "durationTicks": 77,
            "midi": 40,
            "name": "E2",
            "ticks": 14040,
            "time": 56.16,
            "velocity": 0.4645669291338583
          },
          {
            "duration": 0.14000000000000057,
            "durationTicks": 35,
            "midi": 36,
            "name": "C2",
            "ticks": 14040,
            "time": 56.16,
            "velocity": 0.6614173228346457
          },
          {
            "duration": 0.08399999999999608,
            "durationTicks": 21,
            "midi": 42,
            "name": "F#2",
            "ticks": 14100,
            "time": 56.4,
            "velocity": 0.5433070866141733
          },
          {
            "duration": 0.09599999999999653,
            "durationTicks": 24,
            "midi": 42,
            "name": "F#2",
            "ticks": 14160,
            "time": 56.64,
            "velocity": 0.6614173228346457
          },
          {
            "duration": 0.11999999999999744,
            "durationTicks": 30,
            "midi": 36,
            "name": "C2",
            "ticks": 14160,
            "time": 56.64,
            "velocity": 0.6614173228346457
          },
          {
            "duration": 0.17999999999999972,
            "durationTicks": 45,
            "midi": 54,
            "name": "F#3",
            "ticks": 14220,
            "time": 56.879999999999995,
            "velocity": 0.6220472440944882
          },
          {
            "duration": 0.07600000000000051,
            "durationTicks": 19,
            "midi": 42,
            "name": "F#2",
            "ticks": 14220,
            "time": 56.879999999999995,
            "velocity": 0.5905511811023622
          },
          {
            "duration": 0.21999999999999886,
            "durationTicks": 55,
            "midi": 40,
            "name": "E2",
            "ticks": 14280,
            "time": 57.12,
            "velocity": 0.4645669291338583
          },
          {
            "duration": 0.11200000000000188,
            "durationTicks": 28,
            "midi": 42,
            "name": "F#2",
            "ticks": 14280,
            "time": 57.12,
            "velocity": 0.5905511811023622
          },
          {
            "duration": 0.1039999999999992,
            "durationTicks": 26,
            "midi": 36,
            "name": "C2",
            "ticks": 14280,
            "time": 57.12,
            "velocity": 0.7874015748031497
          },
          {
            "duration": 0.08399999999999608,
            "durationTicks": 21,
            "midi": 46,
            "name": "A#2",
            "ticks": 14340,
            "time": 57.36,
            "velocity": 0.7874015748031497
          },
          {
            "duration": 0.10000000000000142,
            "durationTicks": 25,
            "midi": 42,
            "name": "F#2",
            "ticks": 14400,
            "time": 57.599999999999994,
            "velocity": 0.6850393700787402
          },
          {
            "duration": 0.15200000000000102,
            "durationTicks": 38,
            "midi": 36,
            "name": "C2",
            "ticks": 14400,
            "time": 57.599999999999994,
            "velocity": 0.6850393700787402
          },
          {
            "duration": 0.28000000000000114,
            "durationTicks": 70,
            "midi": 41,
            "name": "F2",
            "ticks": 14400,
            "time": 57.599999999999994,
            "velocity": 0.47244094488188976
          },
          {
            "duration": 0.12400000000000233,
            "durationTicks": 31,
            "midi": 41,
            "name": "F2",
            "ticks": 14520,
            "time": 58.08,
            "velocity": 0.4566929133858268
          },
          {
            "duration": 0.14000000000000057,
            "durationTicks": 35,
            "midi": 36,
            "name": "C2",
            "ticks": 14520,
            "time": 58.08,
            "velocity": 0.6614173228346457
          },
          {
            "duration": 0.09999999999999432,
            "durationTicks": 25,
            "midi": 41,
            "name": "F2",
            "ticks": 14580,
            "time": 58.32,
            "velocity": 0.4409448818897638
          },
          {
            "duration": 0.1600000000000037,
            "durationTicks": 40,
            "midi": 41,
            "name": "F2",
            "ticks": 14640,
            "time": 58.559999999999995,
            "velocity": 0.5039370078740157
          },
          {
            "duration": 0.12000000000000455,
            "durationTicks": 30,
            "midi": 36,
            "name": "C2",
            "ticks": 14640,
            "time": 58.559999999999995,
            "velocity": 0.6614173228346457
          },
          {
            "duration": 0.19599999999999795,
            "durationTicks": 49,
            "midi": 69,
            "name": "A4",
            "ticks": 14700,
            "time": 58.8,
            "velocity": 0.6299212598425197
          },
          {
            "duration": 0.16400000000000148,
            "durationTicks": 41,
            "midi": 41,
            "name": "F2",
            "ticks": 14760,
            "time": 59.04,
            "velocity": 0.4645669291338583
          },
          {
            "duration": 0.1039999999999992,
            "durationTicks": 26,
            "midi": 36,
            "name": "C2",
            "ticks": 14760,
            "time": 59.04,
            "velocity": 0.7874015748031497
          },
          {
            "duration": 0.15200000000000102,
            "durationTicks": 38,
            "midi": 36,
            "name": "C2",
            "ticks": 14880,
            "time": 59.519999999999996,
            "velocity": 0.6850393700787402
          },
          {
            "duration": 0.1280000000000001,
            "durationTicks": 32,
            "midi": 71,
            "name": "B4",
            "ticks": 14880,
            "time": 59.519999999999996,
            "velocity": 0.5905511811023622
          },
          {
            "duration": 0.11200000000000188,
            "durationTicks": 28,
            "midi": 41,
            "name": "F2",
            "ticks": 14880,
            "time": 59.519999999999996,
            "velocity": 0.4566929133858268
          },
          {
            "duration": 0.2839999999999989,
            "durationTicks": 71,
            "midi": 71,
            "name": "B4",
            "ticks": 14940,
            "time": 59.76,
            "velocity": 0.5275590551181102
          },
          {
            "duration": 0.09999999999999432,
            "durationTicks": 25,
            "midi": 41,
            "name": "F2",
            "ticks": 14940,
            "time": 59.76,
            "velocity": 0.4251968503937008
          },
          {
            "duration": 0.1039999999999992,
            "durationTicks": 26,
            "midi": 41,
            "name": "F2",
            "ticks": 15000,
            "time": 60,
            "velocity": 0.48031496062992124
          },
          {
            "duration": 0.14000000000000057,
            "durationTicks": 35,
            "midi": 36,
            "name": "C2",
            "ticks": 15000,
            "time": 60,
            "velocity": 0.6614173228346457
          },
          {
            "duration": 0.09199999999999875,
            "durationTicks": 23,
            "midi": 41,
            "name": "F2",
            "ticks": 15060,
            "time": 60.239999999999995,
            "velocity": 0.4566929133858268
          },
          {
            "duration": 0.12400000000000233,
            "durationTicks": 31,
            "midi": 41,
            "name": "F2",
            "ticks": 15120,
            "time": 60.48,
            "velocity": 0.5433070866141733
          },
          {
            "duration": 0.11999999999999744,
            "durationTicks": 30,
            "midi": 36,
            "name": "C2",
            "ticks": 15120,
            "time": 60.48,
            "velocity": 0.6614173228346457
          },
          {
            "duration": 0.17199999999999704,
            "durationTicks": 43,
            "midi": 69,
            "name": "A4",
            "ticks": 15180,
            "time": 60.72,
            "velocity": 0.6299212598425197
          },
          {
            "duration": 0.12400000000000233,
            "durationTicks": 31,
            "midi": 41,
            "name": "F2",
            "ticks": 15240,
            "time": 60.96,
            "velocity": 0.4645669291338583
          },
          {
            "duration": 0.1039999999999992,
            "durationTicks": 26,
            "midi": 36,
            "name": "C2",
            "ticks": 15240,
            "time": 60.96,
            "velocity": 0.7874015748031497
          },
          {
            "duration": 0.14400000000000546,
            "durationTicks": 36,
            "midi": 41,
            "name": "F2",
            "ticks": 15360,
            "time": 61.44,
            "velocity": 0.4409448818897638
          },
          {
            "duration": 0.15200000000000102,
            "durationTicks": 38,
            "midi": 36,
            "name": "C2",
            "ticks": 15360,
            "time": 61.44,
            "velocity": 0.6850393700787402
          },
          {
            "duration": 0.10000000000000853,
            "durationTicks": 25,
            "midi": 41,
            "name": "F2",
            "ticks": 15480,
            "time": 61.919999999999995,
            "velocity": 0.4881889763779528
          },
          {
            "duration": 0.14000000000000057,
            "durationTicks": 35,
            "midi": 36,
            "name": "C2",
            "ticks": 15480,
            "time": 61.919999999999995,
            "velocity": 0.6614173228346457
          },
          {
            "duration": 0.08400000000000318,
            "durationTicks": 21,
            "midi": 41,
            "name": "F2",
            "ticks": 15540,
            "time": 62.16,
            "velocity": 0.41732283464566927
          },
          {
            "duration": 0.11199999999999477,
            "durationTicks": 28,
            "midi": 41,
            "name": "F2",
            "ticks": 15600,
            "time": 62.4,
            "velocity": 0.47244094488188976
          },
          {
            "duration": 0.11999999999999744,
            "durationTicks": 30,
            "midi": 36,
            "name": "C2",
            "ticks": 15600,
            "time": 62.4,
            "velocity": 0.6614173228346457
          },
          {
            "duration": 0.17999999999999972,
            "durationTicks": 45,
            "midi": 69,
            "name": "A4",
            "ticks": 15660,
            "time": 62.64,
            "velocity": 0.6299212598425197
          },
          {
            "duration": 0.132000000000005,
            "durationTicks": 33,
            "midi": 41,
            "name": "F2",
            "ticks": 15720,
            "time": 62.879999999999995,
            "velocity": 0.5118110236220472
          },
          {
            "duration": 0.10400000000000631,
            "durationTicks": 26,
            "midi": 36,
            "name": "C2",
            "ticks": 15720,
            "time": 62.879999999999995,
            "velocity": 0.7874015748031497
          },
          {
            "duration": 0.15199999999999392,
            "durationTicks": 38,
            "midi": 36,
            "name": "C2",
            "ticks": 15840,
            "time": 63.36,
            "velocity": 0.6850393700787402
          },
          {
            "duration": 0.10000000000000142,
            "durationTicks": 25,
            "midi": 41,
            "name": "F2",
            "ticks": 15840,
            "time": 63.36,
            "velocity": 0.4881889763779528
          },
          {
            "duration": 0.09599999999999653,
            "durationTicks": 24,
            "midi": 41,
            "name": "F2",
            "ticks": 15900,
            "time": 63.599999999999994,
            "velocity": 0.4566929133858268
          },
          {
            "duration": 0.10000000000000853,
            "durationTicks": 25,
            "midi": 41,
            "name": "F2",
            "ticks": 15960,
            "time": 63.839999999999996,
            "velocity": 0.47244094488188976
          },
          {
            "duration": 0.13999999999999346,
            "durationTicks": 35,
            "midi": 36,
            "name": "C2",
            "ticks": 15960,
            "time": 63.839999999999996,
            "velocity": 0.6614173228346457
          },
          {
            "duration": 0.0799999999999983,
            "durationTicks": 20,
            "midi": 41,
            "name": "F2",
            "ticks": 16020,
            "time": 64.08,
            "velocity": 0.4566929133858268
          },
          {
            "duration": 0.10000000000000853,
            "durationTicks": 25,
            "midi": 41,
            "name": "F2",
            "ticks": 16080,
            "time": 64.32,
            "velocity": 0.5118110236220472
          },
          {
            "duration": 0.12000000000000455,
            "durationTicks": 30,
            "midi": 36,
            "name": "C2",
            "ticks": 16080,
            "time": 64.32,
            "velocity": 0.6614173228346457
          },
          {
            "duration": 0.1599999999999966,
            "durationTicks": 40,
            "midi": 69,
            "name": "A4",
            "ticks": 16140,
            "time": 64.56,
            "velocity": 0.6299212598425197
          },
          {
            "duration": 0.11199999999999477,
            "durationTicks": 28,
            "midi": 41,
            "name": "F2",
            "ticks": 16200,
            "time": 64.8,
            "velocity": 0.5433070866141733
          },
          {
            "duration": 0.1039999999999992,
            "durationTicks": 26,
            "midi": 36,
            "name": "C2",
            "ticks": 16200,
            "time": 64.8,
            "velocity": 0.7874015748031497
          },
          {
            "duration": 0.09999999999999432,
            "durationTicks": 25,
            "midi": 42,
            "name": "F#2",
            "ticks": 16320,
            "time": 65.28,
            "velocity": 0.6850393700787402
          },
          {
            "duration": 0.15200000000000102,
            "durationTicks": 38,
            "midi": 36,
            "name": "C2",
            "ticks": 16320,
            "time": 65.28,
            "velocity": 0.6850393700787402
          },
          {
            "duration": 0.09199999999999875,
            "durationTicks": 23,
            "midi": 42,
            "name": "F#2",
            "ticks": 16380,
            "time": 65.52,
            "velocity": 0.5433070866141733
          },
          {
            "duration": 0.10400000000001342,
            "durationTicks": 26,
            "midi": 42,
            "name": "F#2",
            "ticks": 16440,
            "time": 65.75999999999999,
            "velocity": 0.6614173228346457
          },
          {
            "duration": 0.30800000000000693,
            "durationTicks": 77,
            "midi": 40,
            "name": "E2",
            "ticks": 16440,
            "time": 65.75999999999999,
            "velocity": 0.4645669291338583
          },
          {
            "duration": 0.14000000000000057,
            "durationTicks": 35,
            "midi": 36,
            "name": "C2",
            "ticks": 16440,
            "time": 65.75999999999999,
            "velocity": 0.6614173228346457
          },
          {
            "duration": 0.08400000000000318,
            "durationTicks": 21,
            "midi": 42,
            "name": "F#2",
            "ticks": 16500,
            "time": 66,
            "velocity": 0.5433070866141733
          },
          {
            "duration": 0.09600000000000364,
            "durationTicks": 24,
            "midi": 42,
            "name": "F#2",
            "ticks": 16560,
            "time": 66.24,
            "velocity": 0.6614173228346457
          },
          {
            "duration": 0.12000000000000455,
            "durationTicks": 30,
            "midi": 36,
            "name": "C2",
            "ticks": 16560,
            "time": 66.24,
            "velocity": 0.6614173228346457
          },
          {
            "duration": 0.0759999999999934,
            "durationTicks": 19,
            "midi": 42,
            "name": "F#2",
            "ticks": 16620,
            "time": 66.48,
            "velocity": 0.5905511811023622
          },
          {
            "duration": 0.21999999999999886,
            "durationTicks": 55,
            "midi": 40,
            "name": "E2",
            "ticks": 16680,
            "time": 66.72,
            "velocity": 0.4645669291338583
          },
          {
            "duration": 0.11199999999999477,
            "durationTicks": 28,
            "midi": 42,
            "name": "F#2",
            "ticks": 16680,
            "time": 66.72,
            "velocity": 0.5905511811023622
          },
          {
            "duration": 0.1039999999999992,
            "durationTicks": 26,
            "midi": 36,
            "name": "C2",
            "ticks": 16680,
            "time": 66.72,
            "velocity": 0.7874015748031497
          },
          {
            "duration": 0.08400000000000318,
            "durationTicks": 21,
            "midi": 46,
            "name": "A#2",
            "ticks": 16740,
            "time": 66.96,
            "velocity": 0.7874015748031497
          },
          {
            "duration": 0.09999999999999432,
            "durationTicks": 25,
            "midi": 42,
            "name": "F#2",
            "ticks": 16800,
            "time": 67.2,
            "velocity": 0.6850393700787402
          },
          {
            "duration": 0.1519999999999868,
            "durationTicks": 38,
            "midi": 36,
            "name": "C2",
            "ticks": 16800,
            "time": 67.2,
            "velocity": 0.6850393700787402
          },
          {
            "duration": 0.09199999999999875,
            "durationTicks": 23,
            "midi": 42,
            "name": "F#2",
            "ticks": 16860,
            "time": 67.44,
            "velocity": 0.5433070866141733
          },
          {
            "duration": 0.1039999999999992,
            "durationTicks": 26,
            "midi": 42,
            "name": "F#2",
            "ticks": 16920,
            "time": 67.67999999999999,
            "velocity": 0.6614173228346457
          },
          {
            "duration": 0.30800000000000693,
            "durationTicks": 77,
            "midi": 40,
            "name": "E2",
            "ticks": 16920,
            "time": 67.67999999999999,
            "velocity": 0.4645669291338583
          },
          {
            "duration": 0.14000000000000057,
            "durationTicks": 35,
            "midi": 36,
            "name": "C2",
            "ticks": 16920,
            "time": 67.67999999999999,
            "velocity": 0.6614173228346457
          },
          {
            "duration": 0.08400000000000318,
            "durationTicks": 21,
            "midi": 42,
            "name": "F#2",
            "ticks": 16980,
            "time": 67.92,
            "velocity": 0.5433070866141733
          },
          {
            "duration": 0.09599999999998943,
            "durationTicks": 24,
            "midi": 42,
            "name": "F#2",
            "ticks": 17040,
            "time": 68.16,
            "velocity": 0.6614173228346457
          },
          {
            "duration": 0.12000000000000455,
            "durationTicks": 30,
            "midi": 36,
            "name": "C2",
            "ticks": 17040,
            "time": 68.16,
            "velocity": 0.6614173228346457
          },
          {
            "duration": 0.07600000000000762,
            "durationTicks": 19,
            "midi": 42,
            "name": "F#2",
            "ticks": 17100,
            "time": 68.39999999999999,
            "velocity": 0.5905511811023622
          },
          {
            "duration": 0.21999999999999886,
            "durationTicks": 55,
            "midi": 40,
            "name": "E2",
            "ticks": 17160,
            "time": 68.64,
            "velocity": 0.4645669291338583
          },
          {
            "duration": 0.11199999999999477,
            "durationTicks": 28,
            "midi": 42,
            "name": "F#2",
            "ticks": 17160,
            "time": 68.64,
            "velocity": 0.5905511811023622
          },
          {
            "duration": 0.1039999999999992,
            "durationTicks": 26,
            "midi": 36,
            "name": "C2",
            "ticks": 17160,
            "time": 68.64,
            "velocity": 0.7874015748031497
          },
          {
            "duration": 0.08400000000000318,
            "durationTicks": 21,
            "midi": 46,
            "name": "A#2",
            "ticks": 17220,
            "time": 68.88,
            "velocity": 0.7874015748031497
          },
          {
            "duration": 0.09999999999999432,
            "durationTicks": 25,
            "midi": 42,
            "name": "F#2",
            "ticks": 17280,
            "time": 69.12,
            "velocity": 0.6850393700787402
          },
          {
            "duration": 0.1519999999999868,
            "durationTicks": 38,
            "midi": 36,
            "name": "C2",
            "ticks": 17280,
            "time": 69.12,
            "velocity": 0.6850393700787402
          },
          {
            "duration": 0.09199999999999875,
            "durationTicks": 23,
            "midi": 42,
            "name": "F#2",
            "ticks": 17340,
            "time": 69.36,
            "velocity": 0.5433070866141733
          },
          {
            "duration": 0.1039999999999992,
            "durationTicks": 26,
            "midi": 42,
            "name": "F#2",
            "ticks": 17400,
            "time": 69.6,
            "velocity": 0.6614173228346457
          },
          {
            "duration": 0.30800000000000693,
            "durationTicks": 77,
            "midi": 40,
            "name": "E2",
            "ticks": 17400,
            "time": 69.6,
            "velocity": 0.4645669291338583
          },
          {
            "duration": 0.14000000000000057,
            "durationTicks": 35,
            "midi": 36,
            "name": "C2",
            "ticks": 17400,
            "time": 69.6,
            "velocity": 0.6614173228346457
          },
          {
            "duration": 0.08400000000000318,
            "durationTicks": 21,
            "midi": 42,
            "name": "F#2",
            "ticks": 17460,
            "time": 69.84,
            "velocity": 0.5433070866141733
          },
          {
            "duration": 0.09599999999998943,
            "durationTicks": 24,
            "midi": 42,
            "name": "F#2",
            "ticks": 17520,
            "time": 70.08,
            "velocity": 0.6614173228346457
          },
          {
            "duration": 0.12000000000000455,
            "durationTicks": 30,
            "midi": 36,
            "name": "C2",
            "ticks": 17520,
            "time": 70.08,
            "velocity": 0.6614173228346457
          },
          {
            "duration": 0.07600000000000762,
            "durationTicks": 19,
            "midi": 42,
            "name": "F#2",
            "ticks": 17580,
            "time": 70.32,
            "velocity": 0.5905511811023622
          },
          {
            "duration": 0.21999999999999886,
            "durationTicks": 55,
            "midi": 40,
            "name": "E2",
            "ticks": 17640,
            "time": 70.56,
            "velocity": 0.4645669291338583
          },
          {
            "duration": 0.11199999999999477,
            "durationTicks": 28,
            "midi": 42,
            "name": "F#2",
            "ticks": 17640,
            "time": 70.56,
            "velocity": 0.5905511811023622
          },
          {
            "duration": 0.1039999999999992,
            "durationTicks": 26,
            "midi": 36,
            "name": "C2",
            "ticks": 17640,
            "time": 70.56,
            "velocity": 0.7874015748031497
          },
          {
            "duration": 0.08400000000000318,
            "durationTicks": 21,
            "midi": 46,
            "name": "A#2",
            "ticks": 17700,
            "time": 70.8,
            "velocity": 0.7874015748031497
          },
          {
            "duration": 0.10000000000000853,
            "durationTicks": 25,
            "midi": 42,
            "name": "F#2",
            "ticks": 17760,
            "time": 71.03999999999999,
            "velocity": 0.6850393700787402
          },
          {
            "duration": 0.15200000000000102,
            "durationTicks": 38,
            "midi": 36,
            "name": "C2",
            "ticks": 17760,
            "time": 71.03999999999999,
            "velocity": 0.6850393700787402
          },
          {
            "duration": 0.09199999999999875,
            "durationTicks": 23,
            "midi": 42,
            "name": "F#2",
            "ticks": 17820,
            "time": 71.28,
            "velocity": 0.5433070866141733
          },
          {
            "duration": 0.1039999999999992,
            "durationTicks": 26,
            "midi": 42,
            "name": "F#2",
            "ticks": 17880,
            "time": 71.52,
            "velocity": 0.6614173228346457
          },
          {
            "duration": 0.30800000000000693,
            "durationTicks": 77,
            "midi": 40,
            "name": "E2",
            "ticks": 17880,
            "time": 71.52,
            "velocity": 0.4645669291338583
          },
          {
            "duration": 0.14000000000000057,
            "durationTicks": 35,
            "midi": 36,
            "name": "C2",
            "ticks": 17880,
            "time": 71.52,
            "velocity": 0.6614173228346457
          },
          {
            "duration": 0.0840000000000174,
            "durationTicks": 21,
            "midi": 42,
            "name": "F#2",
            "ticks": 17940,
            "time": 71.75999999999999,
            "velocity": 0.5433070866141733
          },
          {
            "duration": 0.09599999999998943,
            "durationTicks": 24,
            "midi": 42,
            "name": "F#2",
            "ticks": 18000,
            "time": 72,
            "velocity": 0.6614173228346457
          },
          {
            "duration": 0.11999999999999034,
            "durationTicks": 30,
            "midi": 36,
            "name": "C2",
            "ticks": 18000,
            "time": 72,
            "velocity": 0.6614173228346457
          },
          {
            "duration": 0.07600000000000762,
            "durationTicks": 19,
            "midi": 42,
            "name": "F#2",
            "ticks": 18060,
            "time": 72.24,
            "velocity": 0.5905511811023622
          },
          {
            "duration": 0.21999999999999886,
            "durationTicks": 55,
            "midi": 40,
            "name": "E2",
            "ticks": 18120,
            "time": 72.48,
            "velocity": 0.4645669291338583
          },
          {
            "duration": 0.11199999999998056,
            "durationTicks": 28,
            "midi": 42,
            "name": "F#2",
            "ticks": 18120,
            "time": 72.48,
            "velocity": 0.5905511811023622
          },
          {
            "duration": 0.1039999999999992,
            "durationTicks": 26,
            "midi": 36,
            "name": "C2",
            "ticks": 18120,
            "time": 72.48,
            "velocity": 0.7874015748031497
          },
          {
            "duration": 0.08400000000000318,
            "durationTicks": 21,
            "midi": 46,
            "name": "A#2",
            "ticks": 18180,
            "time": 72.72,
            "velocity": 0.7874015748031497
          },
          {
            "duration": 0.10000000000000853,
            "durationTicks": 25,
            "midi": 42,
            "name": "F#2",
            "ticks": 18240,
            "time": 72.96,
            "velocity": 0.6850393700787402
          },
          {
            "duration": 0.15200000000000102,
            "durationTicks": 38,
            "midi": 36,
            "name": "C2",
            "ticks": 18240,
            "time": 72.96,
            "velocity": 0.6850393700787402
          },
          {
            "duration": 0.09199999999999875,
            "durationTicks": 23,
            "midi": 42,
            "name": "F#2",
            "ticks": 18300,
            "time": 73.2,
            "velocity": 0.5433070866141733
          },
          {
            "duration": 0.1039999999999992,
            "durationTicks": 26,
            "midi": 42,
            "name": "F#2",
            "ticks": 18360,
            "time": 73.44,
            "velocity": 0.6614173228346457
          },
          {
            "duration": 0.30800000000000693,
            "durationTicks": 77,
            "midi": 40,
            "name": "E2",
            "ticks": 18360,
            "time": 73.44,
            "velocity": 0.4645669291338583
          },
          {
            "duration": 0.14000000000000057,
            "durationTicks": 35,
            "midi": 36,
            "name": "C2",
            "ticks": 18360,
            "time": 73.44,
            "velocity": 0.6614173228346457
          },
          {
            "duration": 0.08400000000000318,
            "durationTicks": 21,
            "midi": 42,
            "name": "F#2",
            "ticks": 18420,
            "time": 73.67999999999999,
            "velocity": 0.5433070866141733
          },
          {
            "duration": 0.09599999999998943,
            "durationTicks": 24,
            "midi": 42,
            "name": "F#2",
            "ticks": 18480,
            "time": 73.92,
            "velocity": 0.6614173228346457
          },
          {
            "duration": 0.11999999999999034,
            "durationTicks": 30,
            "midi": 36,
            "name": "C2",
            "ticks": 18480,
            "time": 73.92,
            "velocity": 0.6614173228346457
          },
          {
            "duration": 0.0759999999999934,
            "durationTicks": 19,
            "midi": 42,
            "name": "F#2",
            "ticks": 18540,
            "time": 74.16,
            "velocity": 0.5905511811023622
          },
          {
            "duration": 0.22000000000001307,
            "durationTicks": 55,
            "midi": 40,
            "name": "E2",
            "ticks": 18600,
            "time": 74.39999999999999,
            "velocity": 0.4645669291338583
          },
          {
            "duration": 0.11199999999999477,
            "durationTicks": 28,
            "midi": 42,
            "name": "F#2",
            "ticks": 18600,
            "time": 74.39999999999999,
            "velocity": 0.5905511811023622
          },
          {
            "duration": 0.10400000000001342,
            "durationTicks": 26,
            "midi": 36,
            "name": "C2",
            "ticks": 18600,
            "time": 74.39999999999999,
            "velocity": 0.7874015748031497
          },
          {
            "duration": 0.08400000000000318,
            "durationTicks": 21,
            "midi": 46,
            "name": "A#2",
            "ticks": 18660,
            "time": 74.64,
            "velocity": 0.7874015748031497
          },
          {
            "duration": 0.10000000000000853,
            "durationTicks": 25,
            "midi": 42,
            "name": "F#2",
            "ticks": 18720,
            "time": 74.88,
            "velocity": 0.6850393700787402
          },
          {
            "duration": 0.15200000000000102,
            "durationTicks": 38,
            "midi": 36,
            "name": "C2",
            "ticks": 18720,
            "time": 74.88,
            "velocity": 0.6850393700787402
          },
          {
            "duration": 0.09199999999999875,
            "durationTicks": 23,
            "midi": 42,
            "name": "F#2",
            "ticks": 18780,
            "time": 75.11999999999999,
            "velocity": 0.5433070866141733
          },
          {
            "duration": 0.1039999999999992,
            "durationTicks": 26,
            "midi": 42,
            "name": "F#2",
            "ticks": 18840,
            "time": 75.36,
            "velocity": 0.6614173228346457
          },
          {
            "duration": 0.30800000000000693,
            "durationTicks": 77,
            "midi": 40,
            "name": "E2",
            "ticks": 18840,
            "time": 75.36,
            "velocity": 0.4645669291338583
          },
          {
            "duration": 0.13999999999998636,
            "durationTicks": 35,
            "midi": 36,
            "name": "C2",
            "ticks": 18840,
            "time": 75.36,
            "velocity": 0.6614173228346457
          },
          {
            "duration": 0.08400000000000318,
            "durationTicks": 21,
            "midi": 42,
            "name": "F#2",
            "ticks": 18900,
            "time": 75.6,
            "velocity": 0.5433070866141733
          },
          {
            "duration": 0.09599999999998943,
            "durationTicks": 24,
            "midi": 42,
            "name": "F#2",
            "ticks": 18960,
            "time": 75.84,
            "velocity": 0.6614173228346457
          },
          {
            "duration": 0.11999999999999034,
            "durationTicks": 30,
            "midi": 36,
            "name": "C2",
            "ticks": 18960,
            "time": 75.84,
            "velocity": 0.6614173228346457
          },
          {
            "duration": 0.0759999999999934,
            "durationTicks": 19,
            "midi": 42,
            "name": "F#2",
            "ticks": 19020,
            "time": 76.08,
            "velocity": 0.5905511811023622
          },
          {
            "duration": 0.22000000000001307,
            "durationTicks": 55,
            "midi": 40,
            "name": "E2",
            "ticks": 19080,
            "time": 76.32,
            "velocity": 0.4645669291338583
          },
          {
            "duration": 0.11199999999999477,
            "durationTicks": 28,
            "midi": 42,
            "name": "F#2",
            "ticks": 19080,
            "time": 76.32,
            "velocity": 0.5905511811023622
          },
          {
            "duration": 0.1039999999999992,
            "durationTicks": 26,
            "midi": 36,
            "name": "C2",
            "ticks": 19080,
            "time": 76.32,
            "velocity": 0.7874015748031497
          },
          {
            "duration": 0.08400000000000318,
            "durationTicks": 21,
            "midi": 46,
            "name": "A#2",
            "ticks": 19140,
            "time": 76.56,
            "velocity": 0.7874015748031497
          },
          {
            "duration": 0.10000000000000853,
            "durationTicks": 25,
            "midi": 42,
            "name": "F#2",
            "ticks": 19200,
            "time": 76.8,
            "velocity": 0.6850393700787402
          },
          {
            "duration": 0.15200000000000102,
            "durationTicks": 38,
            "midi": 36,
            "name": "C2",
            "ticks": 19200,
            "time": 76.8,
            "velocity": 0.6850393700787402
          },
          {
            "duration": 0.09199999999999875,
            "durationTicks": 23,
            "midi": 42,
            "name": "F#2",
            "ticks": 19260,
            "time": 77.03999999999999,
            "velocity": 0.5433070866141733
          },
          {
            "duration": 0.1039999999999992,
            "durationTicks": 26,
            "midi": 42,
            "name": "F#2",
            "ticks": 19320,
            "time": 77.28,
            "velocity": 0.6614173228346457
          },
          {
            "duration": 0.30800000000000693,
            "durationTicks": 77,
            "midi": 40,
            "name": "E2",
            "ticks": 19320,
            "time": 77.28,
            "velocity": 0.4645669291338583
          },
          {
            "duration": 0.13999999999998636,
            "durationTicks": 35,
            "midi": 36,
            "name": "C2",
            "ticks": 19320,
            "time": 77.28,
            "velocity": 0.6614173228346457
          },
          {
            "duration": 0.08400000000000318,
            "durationTicks": 21,
            "midi": 42,
            "name": "F#2",
            "ticks": 19380,
            "time": 77.52,
            "velocity": 0.5433070866141733
          },
          {
            "duration": 0.09600000000000364,
            "durationTicks": 24,
            "midi": 42,
            "name": "F#2",
            "ticks": 19440,
            "time": 77.75999999999999,
            "velocity": 0.6614173228346457
          },
          {
            "duration": 0.12000000000000455,
            "durationTicks": 30,
            "midi": 36,
            "name": "C2",
            "ticks": 19440,
            "time": 77.75999999999999,
            "velocity": 0.6614173228346457
          },
          {
            "duration": 0.0759999999999934,
            "durationTicks": 19,
            "midi": 42,
            "name": "F#2",
            "ticks": 19500,
            "time": 78,
            "velocity": 0.5905511811023622
          },
          {
            "duration": 0.22000000000001307,
            "durationTicks": 55,
            "midi": 40,
            "name": "E2",
            "ticks": 19560,
            "time": 78.24,
            "velocity": 0.4645669291338583
          },
          {
            "duration": 0.11199999999999477,
            "durationTicks": 28,
            "midi": 42,
            "name": "F#2",
            "ticks": 19560,
            "time": 78.24,
            "velocity": 0.5905511811023622
          },
          {
            "duration": 0.1039999999999992,
            "durationTicks": 26,
            "midi": 36,
            "name": "C2",
            "ticks": 19560,
            "time": 78.24,
            "velocity": 0.7874015748031497
          },
          {
            "duration": 0.08400000000000318,
            "durationTicks": 21,
            "midi": 46,
            "name": "A#2",
            "ticks": 19620,
            "time": 78.48,
            "velocity": 0.7874015748031497
          },
          {
            "duration": 0.10000000000000853,
            "durationTicks": 25,
            "midi": 42,
            "name": "F#2",
            "ticks": 19680,
            "time": 78.72,
            "velocity": 0.6850393700787402
          },
          {
            "duration": 0.15200000000000102,
            "durationTicks": 38,
            "midi": 36,
            "name": "C2",
            "ticks": 19680,
            "time": 78.72,
            "velocity": 0.6850393700787402
          },
          {
            "duration": 0.09199999999999875,
            "durationTicks": 23,
            "midi": 42,
            "name": "F#2",
            "ticks": 19740,
            "time": 78.96,
            "velocity": 0.5433070866141733
          },
          {
            "duration": 0.1039999999999992,
            "durationTicks": 26,
            "midi": 42,
            "name": "F#2",
            "ticks": 19800,
            "time": 79.2,
            "velocity": 0.6614173228346457
          },
          {
            "duration": 0.30800000000000693,
            "durationTicks": 77,
            "midi": 40,
            "name": "E2",
            "ticks": 19800,
            "time": 79.2,
            "velocity": 0.4645669291338583
          },
          {
            "duration": 0.13999999999998636,
            "durationTicks": 35,
            "midi": 36,
            "name": "C2",
            "ticks": 19800,
            "time": 79.2,
            "velocity": 0.6614173228346457
          },
          {
            "duration": 0.08400000000000318,
            "durationTicks": 21,
            "midi": 42,
            "name": "F#2",
            "ticks": 19860,
            "time": 79.44,
            "velocity": 0.5433070866141733
          },
          {
            "duration": 0.09600000000000364,
            "durationTicks": 24,
            "midi": 42,
            "name": "F#2",
            "ticks": 19920,
            "time": 79.67999999999999,
            "velocity": 0.6614173228346457
          },
          {
            "duration": 0.12000000000000455,
            "durationTicks": 30,
            "midi": 36,
            "name": "C2",
            "ticks": 19920,
            "time": 79.67999999999999,
            "velocity": 0.6614173228346457
          },
          {
            "duration": 0.0759999999999934,
            "durationTicks": 19,
            "midi": 42,
            "name": "F#2",
            "ticks": 19980,
            "time": 79.92,
            "velocity": 0.5905511811023622
          },
          {
            "duration": 0.21999999999999886,
            "durationTicks": 55,
            "midi": 40,
            "name": "E2",
            "ticks": 20040,
            "time": 80.16,
            "velocity": 0.4645669291338583
          },
          {
            "duration": 0.11199999999999477,
            "durationTicks": 28,
            "midi": 42,
            "name": "F#2",
            "ticks": 20040,
            "time": 80.16,
            "velocity": 0.5905511811023622
          },
          {
            "duration": 0.1039999999999992,
            "durationTicks": 26,
            "midi": 36,
            "name": "C2",
            "ticks": 20040,
            "time": 80.16,
            "velocity": 0.7874015748031497
          },
          {
            "duration": 0.0840000000000174,
            "durationTicks": 21,
            "midi": 46,
            "name": "A#2",
            "ticks": 20100,
            "time": 80.39999999999999,
            "velocity": 0.7874015748031497
          },
          {
            "duration": 0.09999999999999432,
            "durationTicks": 25,
            "midi": 42,
            "name": "F#2",
            "ticks": 20160,
            "time": 80.64,
            "velocity": 0.6850393700787402
          },
          {
            "duration": 0.15200000000000102,
            "durationTicks": 38,
            "midi": 36,
            "name": "C2",
            "ticks": 20160,
            "time": 80.64,
            "velocity": 0.6850393700787402
          },
          {
            "duration": 0.09199999999999875,
            "durationTicks": 23,
            "midi": 42,
            "name": "F#2",
            "ticks": 20220,
            "time": 80.88,
            "velocity": 0.5433070866141733
          },
          {
            "duration": 0.10400000000001342,
            "durationTicks": 26,
            "midi": 42,
            "name": "F#2",
            "ticks": 20280,
            "time": 81.11999999999999,
            "velocity": 0.6614173228346457
          },
          {
            "duration": 0.30800000000000693,
            "durationTicks": 77,
            "midi": 40,
            "name": "E2",
            "ticks": 20280,
            "time": 81.11999999999999,
            "velocity": 0.4645669291338583
          },
          {
            "duration": 0.14000000000000057,
            "durationTicks": 35,
            "midi": 36,
            "name": "C2",
            "ticks": 20280,
            "time": 81.11999999999999,
            "velocity": 0.6614173228346457
          },
          {
            "duration": 0.08400000000000318,
            "durationTicks": 21,
            "midi": 42,
            "name": "F#2",
            "ticks": 20340,
            "time": 81.36,
            "velocity": 0.5433070866141733
          },
          {
            "duration": 0.09600000000000364,
            "durationTicks": 24,
            "midi": 42,
            "name": "F#2",
            "ticks": 20400,
            "time": 81.6,
            "velocity": 0.6614173228346457
          },
          {
            "duration": 0.12000000000000455,
            "durationTicks": 30,
            "midi": 36,
            "name": "C2",
            "ticks": 20400,
            "time": 81.6,
            "velocity": 0.6614173228346457
          },
          {
            "duration": 0.0759999999999934,
            "durationTicks": 19,
            "midi": 42,
            "name": "F#2",
            "ticks": 20460,
            "time": 81.84,
            "velocity": 0.5905511811023622
          },
          {
            "duration": 0.21999999999999886,
            "durationTicks": 55,
            "midi": 40,
            "name": "E2",
            "ticks": 20520,
            "time": 82.08,
            "velocity": 0.4645669291338583
          },
          {
            "duration": 0.11199999999999477,
            "durationTicks": 28,
            "midi": 42,
            "name": "F#2",
            "ticks": 20520,
            "time": 82.08,
            "velocity": 0.5905511811023622
          },
          {
            "duration": 0.1039999999999992,
            "durationTicks": 26,
            "midi": 36,
            "name": "C2",
            "ticks": 20520,
            "time": 82.08,
            "velocity": 0.7874015748031497
          },
          {
            "duration": 0.08400000000000318,
            "durationTicks": 21,
            "midi": 46,
            "name": "A#2",
            "ticks": 20580,
            "time": 82.32,
            "velocity": 0.7874015748031497
          },
          {
            "duration": 0.09999999999999432,
            "durationTicks": 25,
            "midi": 42,
            "name": "F#2",
            "ticks": 20640,
            "time": 82.56,
            "velocity": 0.6850393700787402
          },
          {
            "duration": 0.1519999999999868,
            "durationTicks": 38,
            "midi": 36,
            "name": "C2",
            "ticks": 20640,
            "time": 82.56,
            "velocity": 0.6850393700787402
          },
          {
            "duration": 0.09199999999999875,
            "durationTicks": 23,
            "midi": 42,
            "name": "F#2",
            "ticks": 20700,
            "time": 82.8,
            "velocity": 0.5433070866141733
          },
          {
            "duration": 0.1039999999999992,
            "durationTicks": 26,
            "midi": 42,
            "name": "F#2",
            "ticks": 20760,
            "time": 83.03999999999999,
            "velocity": 0.6614173228346457
          },
          {
            "duration": 0.30800000000000693,
            "durationTicks": 77,
            "midi": 40,
            "name": "E2",
            "ticks": 20760,
            "time": 83.03999999999999,
            "velocity": 0.4645669291338583
          },
          {
            "duration": 0.14000000000000057,
            "durationTicks": 35,
            "midi": 36,
            "name": "C2",
            "ticks": 20760,
            "time": 83.03999999999999,
            "velocity": 0.6614173228346457
          },
          {
            "duration": 0.08400000000000318,
            "durationTicks": 21,
            "midi": 42,
            "name": "F#2",
            "ticks": 20820,
            "time": 83.28,
            "velocity": 0.5433070866141733
          },
          {
            "duration": 0.09599999999998943,
            "durationTicks": 24,
            "midi": 42,
            "name": "F#2",
            "ticks": 20880,
            "time": 83.52,
            "velocity": 0.6614173228346457
          },
          {
            "duration": 0.12000000000000455,
            "durationTicks": 30,
            "midi": 36,
            "name": "C2",
            "ticks": 20880,
            "time": 83.52,
            "velocity": 0.6614173228346457
          },
          {
            "duration": 0.07600000000000762,
            "durationTicks": 19,
            "midi": 42,
            "name": "F#2",
            "ticks": 20940,
            "time": 83.75999999999999,
            "velocity": 0.5905511811023622
          },
          {
            "duration": 0.21999999999999886,
            "durationTicks": 55,
            "midi": 40,
            "name": "E2",
            "ticks": 21000,
            "time": 84,
            "velocity": 0.4645669291338583
          },
          {
            "duration": 0.11199999999999477,
            "durationTicks": 28,
            "midi": 42,
            "name": "F#2",
            "ticks": 21000,
            "time": 84,
            "velocity": 0.5905511811023622
          },
          {
            "duration": 0.1039999999999992,
            "durationTicks": 26,
            "midi": 36,
            "name": "C2",
            "ticks": 21000,
            "time": 84,
            "velocity": 0.7874015748031497
          },
          {
            "duration": 0.08400000000000318,
            "durationTicks": 21,
            "midi": 46,
            "name": "A#2",
            "ticks": 21060,
            "time": 84.24,
            "velocity": 0.7874015748031497
          },
          {
            "duration": 0.10000000000000853,
            "durationTicks": 25,
            "midi": 42,
            "name": "F#2",
            "ticks": 21120,
            "time": 84.47999999999999,
            "velocity": 0.6850393700787402
          },
          {
            "duration": 0.15200000000000102,
            "durationTicks": 38,
            "midi": 36,
            "name": "C2",
            "ticks": 21120,
            "time": 84.47999999999999,
            "velocity": 0.6850393700787402
          },
          {
            "duration": 0.09199999999999875,
            "durationTicks": 23,
            "midi": 42,
            "name": "F#2",
            "ticks": 21180,
            "time": 84.72,
            "velocity": 0.5433070866141733
          },
          {
            "duration": 0.1039999999999992,
            "durationTicks": 26,
            "midi": 42,
            "name": "F#2",
            "ticks": 21240,
            "time": 84.96,
            "velocity": 0.6614173228346457
          },
          {
            "duration": 0.30800000000000693,
            "durationTicks": 77,
            "midi": 40,
            "name": "E2",
            "ticks": 21240,
            "time": 84.96,
            "velocity": 0.4645669291338583
          },
          {
            "duration": 0.14000000000000057,
            "durationTicks": 35,
            "midi": 36,
            "name": "C2",
            "ticks": 21240,
            "time": 84.96,
            "velocity": 0.6614173228346457
          },
          {
            "duration": 0.08400000000000318,
            "durationTicks": 21,
            "midi": 42,
            "name": "F#2",
            "ticks": 21300,
            "time": 85.2,
            "velocity": 0.5433070866141733
          },
          {
            "duration": 0.09599999999998943,
            "durationTicks": 24,
            "midi": 42,
            "name": "F#2",
            "ticks": 21360,
            "time": 85.44,
            "velocity": 0.6614173228346457
          },
          {
            "duration": 0.12000000000000455,
            "durationTicks": 30,
            "midi": 36,
            "name": "C2",
            "ticks": 21360,
            "time": 85.44,
            "velocity": 0.6614173228346457
          },
          {
            "duration": 0.07600000000000762,
            "durationTicks": 19,
            "midi": 42,
            "name": "F#2",
            "ticks": 21420,
            "time": 85.67999999999999,
            "velocity": 0.5905511811023622
          },
          {
            "duration": 0.21999999999999886,
            "durationTicks": 55,
            "midi": 40,
            "name": "E2",
            "ticks": 21480,
            "time": 85.92,
            "velocity": 0.4645669291338583
          },
          {
            "duration": 0.11199999999999477,
            "durationTicks": 28,
            "midi": 42,
            "name": "F#2",
            "ticks": 21480,
            "time": 85.92,
            "velocity": 0.5905511811023622
          },
          {
            "duration": 0.1039999999999992,
            "durationTicks": 26,
            "midi": 36,
            "name": "C2",
            "ticks": 21480,
            "time": 85.92,
            "velocity": 0.7874015748031497
          },
          {
            "duration": 0.08400000000000318,
            "durationTicks": 21,
            "midi": 46,
            "name": "A#2",
            "ticks": 21540,
            "time": 86.16,
            "velocity": 0.7874015748031497
          },
          {
            "duration": 0.10000000000000853,
            "durationTicks": 25,
            "midi": 42,
            "name": "F#2",
            "ticks": 21600,
            "time": 86.39999999999999,
            "velocity": 0.6850393700787402
          },
          {
            "duration": 0.15200000000000102,
            "durationTicks": 38,
            "midi": 36,
            "name": "C2",
            "ticks": 21600,
            "time": 86.39999999999999,
            "velocity": 0.6850393700787402
          },
          {
            "duration": 0.09199999999999875,
            "durationTicks": 23,
            "midi": 42,
            "name": "F#2",
            "ticks": 21660,
            "time": 86.64,
            "velocity": 0.5433070866141733
          },
          {
            "duration": 0.1039999999999992,
            "durationTicks": 26,
            "midi": 42,
            "name": "F#2",
            "ticks": 21720,
            "time": 86.88,
            "velocity": 0.6614173228346457
          },
          {
            "duration": 0.30800000000000693,
            "durationTicks": 77,
            "midi": 40,
            "name": "E2",
            "ticks": 21720,
            "time": 86.88,
            "velocity": 0.4645669291338583
          },
          {
            "duration": 0.14000000000000057,
            "durationTicks": 35,
            "midi": 36,
            "name": "C2",
            "ticks": 21720,
            "time": 86.88,
            "velocity": 0.6614173228346457
          },
          {
            "duration": 0.0840000000000174,
            "durationTicks": 21,
            "midi": 42,
            "name": "F#2",
            "ticks": 21780,
            "time": 87.11999999999999,
            "velocity": 0.5433070866141733
          },
          {
            "duration": 0.09599999999998943,
            "durationTicks": 24,
            "midi": 42,
            "name": "F#2",
            "ticks": 21840,
            "time": 87.36,
            "velocity": 0.6614173228346457
          },
          {
            "duration": 0.11999999999999034,
            "durationTicks": 30,
            "midi": 36,
            "name": "C2",
            "ticks": 21840,
            "time": 87.36,
            "velocity": 0.6614173228346457
          },
          {
            "duration": 0.07600000000000762,
            "durationTicks": 19,
            "midi": 42,
            "name": "F#2",
            "ticks": 21900,
            "time": 87.6,
            "velocity": 0.5905511811023622
          },
          {
            "duration": 0.21999999999999886,
            "durationTicks": 55,
            "midi": 40,
            "name": "E2",
            "ticks": 21960,
            "time": 87.84,
            "velocity": 0.4645669291338583
          },
          {
            "duration": 0.11199999999998056,
            "durationTicks": 28,
            "midi": 42,
            "name": "F#2",
            "ticks": 21960,
            "time": 87.84,
            "velocity": 0.5905511811023622
          },
          {
            "duration": 0.1039999999999992,
            "durationTicks": 26,
            "midi": 36,
            "name": "C2",
            "ticks": 21960,
            "time": 87.84,
            "velocity": 0.7874015748031497
          },
          {
            "duration": 0.08400000000000318,
            "durationTicks": 21,
            "midi": 46,
            "name": "A#2",
            "ticks": 22020,
            "time": 88.08,
            "velocity": 0.7874015748031497
          },
          {
            "duration": 0.10000000000000853,
            "durationTicks": 25,
            "midi": 42,
            "name": "F#2",
            "ticks": 22080,
            "time": 88.32,
            "velocity": 0.6850393700787402
          },
          {
            "duration": 0.15200000000000102,
            "durationTicks": 38,
            "midi": 36,
            "name": "C2",
            "ticks": 22080,
            "time": 88.32,
            "velocity": 0.6850393700787402
          },
          {
            "duration": 0.09199999999999875,
            "durationTicks": 23,
            "midi": 42,
            "name": "F#2",
            "ticks": 22140,
            "time": 88.56,
            "velocity": 0.5433070866141733
          },
          {
            "duration": 0.1039999999999992,
            "durationTicks": 26,
            "midi": 42,
            "name": "F#2",
            "ticks": 22200,
            "time": 88.8,
            "velocity": 0.6614173228346457
          },
          {
            "duration": 0.30800000000000693,
            "durationTicks": 77,
            "midi": 40,
            "name": "E2",
            "ticks": 22200,
            "time": 88.8,
            "velocity": 0.4645669291338583
          },
          {
            "duration": 0.14000000000000057,
            "durationTicks": 35,
            "midi": 36,
            "name": "C2",
            "ticks": 22200,
            "time": 88.8,
            "velocity": 0.6614173228346457
          },
          {
            "duration": 0.08400000000000318,
            "durationTicks": 21,
            "midi": 42,
            "name": "F#2",
            "ticks": 22260,
            "time": 89.03999999999999,
            "velocity": 0.5433070866141733
          },
          {
            "duration": 0.09599999999998943,
            "durationTicks": 24,
            "midi": 42,
            "name": "F#2",
            "ticks": 22320,
            "time": 89.28,
            "velocity": 0.6614173228346457
          },
          {
            "duration": 0.11999999999999034,
            "durationTicks": 30,
            "midi": 36,
            "name": "C2",
            "ticks": 22320,
            "time": 89.28,
            "velocity": 0.6614173228346457
          },
          {
            "duration": 0.0759999999999934,
            "durationTicks": 19,
            "midi": 42,
            "name": "F#2",
            "ticks": 22380,
            "time": 89.52,
            "velocity": 0.5905511811023622
          },
          {
            "duration": 0.22000000000001307,
            "durationTicks": 55,
            "midi": 40,
            "name": "E2",
            "ticks": 22440,
            "time": 89.75999999999999,
            "velocity": 0.4645669291338583
          },
          {
            "duration": 0.11199999999999477,
            "durationTicks": 28,
            "midi": 42,
            "name": "F#2",
            "ticks": 22440,
            "time": 89.75999999999999,
            "velocity": 0.5905511811023622
          },
          {
            "duration": 0.10400000000001342,
            "durationTicks": 26,
            "midi": 36,
            "name": "C2",
            "ticks": 22440,
            "time": 89.75999999999999,
            "velocity": 0.7874015748031497
          },
          {
            "duration": 0.08400000000000318,
            "durationTicks": 21,
            "midi": 46,
            "name": "A#2",
            "ticks": 22500,
            "time": 90,
            "velocity": 0.7874015748031497
          },
          {
            "duration": 0.10000000000000853,
            "durationTicks": 25,
            "midi": 42,
            "name": "F#2",
            "ticks": 22560,
            "time": 90.24,
            "velocity": 0.6850393700787402
          },
          {
            "duration": 0.15200000000000102,
            "durationTicks": 38,
            "midi": 36,
            "name": "C2",
            "ticks": 22560,
            "time": 90.24,
            "velocity": 0.6850393700787402
          },
          {
            "duration": 0.09199999999999875,
            "durationTicks": 23,
            "midi": 42,
            "name": "F#2",
            "ticks": 22620,
            "time": 90.47999999999999,
            "velocity": 0.5433070866141733
          },
          {
            "duration": 0.1039999999999992,
            "durationTicks": 26,
            "midi": 42,
            "name": "F#2",
            "ticks": 22680,
            "time": 90.72,
            "velocity": 0.6614173228346457
          },
          {
            "duration": 0.30800000000000693,
            "durationTicks": 77,
            "midi": 40,
            "name": "E2",
            "ticks": 22680,
            "time": 90.72,
            "velocity": 0.4645669291338583
          },
          {
            "duration": 0.13999999999998636,
            "durationTicks": 35,
            "midi": 36,
            "name": "C2",
            "ticks": 22680,
            "time": 90.72,
            "velocity": 0.6614173228346457
          },
          {
            "duration": 0.08400000000000318,
            "durationTicks": 21,
            "midi": 42,
            "name": "F#2",
            "ticks": 22740,
            "time": 90.96,
            "velocity": 0.5433070866141733
          },
          {
            "duration": 0.09599999999998943,
            "durationTicks": 24,
            "midi": 42,
            "name": "F#2",
            "ticks": 22800,
            "time": 91.2,
            "velocity": 0.6614173228346457
          },
          {
            "duration": 0.11999999999999034,
            "durationTicks": 30,
            "midi": 36,
            "name": "C2",
            "ticks": 22800,
            "time": 91.2,
            "velocity": 0.6614173228346457
          },
          {
            "duration": 0.0759999999999934,
            "durationTicks": 19,
            "midi": 42,
            "name": "F#2",
            "ticks": 22860,
            "time": 91.44,
            "velocity": 0.5905511811023622
          },
          {
            "duration": 0.22000000000001307,
            "durationTicks": 55,
            "midi": 40,
            "name": "E2",
            "ticks": 22920,
            "time": 91.67999999999999,
            "velocity": 0.4645669291338583
          },
          {
            "duration": 0.11199999999999477,
            "durationTicks": 28,
            "midi": 42,
            "name": "F#2",
            "ticks": 22920,
            "time": 91.67999999999999,
            "velocity": 0.5905511811023622
          },
          {
            "duration": 0.1039999999999992,
            "durationTicks": 26,
            "midi": 36,
            "name": "C2",
            "ticks": 22920,
            "time": 91.67999999999999,
            "velocity": 0.7874015748031497
          },
          {
            "duration": 0.08400000000000318,
            "durationTicks": 21,
            "midi": 46,
            "name": "A#2",
            "ticks": 22980,
            "time": 91.92,
            "velocity": 0.7874015748031497
          },
          {
            "duration": 0.10000000000000853,
            "durationTicks": 25,
            "midi": 42,
            "name": "F#2",
            "ticks": 23040,
            "time": 92.16,
            "velocity": 0.6850393700787402
          },
          {
            "duration": 0.15200000000000102,
            "durationTicks": 38,
            "midi": 36,
            "name": "C2",
            "ticks": 23040,
            "time": 92.16,
            "velocity": 0.6850393700787402
          },
          {
            "duration": 0.09199999999999875,
            "durationTicks": 23,
            "midi": 42,
            "name": "F#2",
            "ticks": 23100,
            "time": 92.39999999999999,
            "velocity": 0.5433070866141733
          },
          {
            "duration": 0.1039999999999992,
            "durationTicks": 26,
            "midi": 42,
            "name": "F#2",
            "ticks": 23160,
            "time": 92.64,
            "velocity": 0.6614173228346457
          },
          {
            "duration": 0.30800000000000693,
            "durationTicks": 77,
            "midi": 40,
            "name": "E2",
            "ticks": 23160,
            "time": 92.64,
            "velocity": 0.4645669291338583
          },
          {
            "duration": 0.13999999999998636,
            "durationTicks": 35,
            "midi": 36,
            "name": "C2",
            "ticks": 23160,
            "time": 92.64,
            "velocity": 0.6614173228346457
          },
          {
            "duration": 0.08400000000000318,
            "durationTicks": 21,
            "midi": 42,
            "name": "F#2",
            "ticks": 23220,
            "time": 92.88,
            "velocity": 0.5433070866141733
          },
          {
            "duration": 0.09600000000000364,
            "durationTicks": 24,
            "midi": 42,
            "name": "F#2",
            "ticks": 23280,
            "time": 93.11999999999999,
            "velocity": 0.6614173228346457
          },
          {
            "duration": 0.12000000000000455,
            "durationTicks": 30,
            "midi": 36,
            "name": "C2",
            "ticks": 23280,
            "time": 93.11999999999999,
            "velocity": 0.6614173228346457
          },
          {
            "duration": 0.0759999999999934,
            "durationTicks": 19,
            "midi": 42,
            "name": "F#2",
            "ticks": 23340,
            "time": 93.36,
            "velocity": 0.5905511811023622
          },
          {
            "duration": 0.22000000000001307,
            "durationTicks": 55,
            "midi": 40,
            "name": "E2",
            "ticks": 23400,
            "time": 93.6,
            "velocity": 0.4645669291338583
          },
          {
            "duration": 0.11199999999999477,
            "durationTicks": 28,
            "midi": 42,
            "name": "F#2",
            "ticks": 23400,
            "time": 93.6,
            "velocity": 0.5905511811023622
          },
          {
            "duration": 0.1039999999999992,
            "durationTicks": 26,
            "midi": 36,
            "name": "C2",
            "ticks": 23400,
            "time": 93.6,
            "velocity": 0.7874015748031497
          },
          {
            "duration": 0.08400000000000318,
            "durationTicks": 21,
            "midi": 46,
            "name": "A#2",
            "ticks": 23460,
            "time": 93.84,
            "velocity": 0.7874015748031497
          },
          {
            "duration": 0.10000000000000853,
            "durationTicks": 25,
            "midi": 42,
            "name": "F#2",
            "ticks": 23520,
            "time": 94.08,
            "velocity": 0.6850393700787402
          },
          {
            "duration": 0.15200000000000102,
            "durationTicks": 38,
            "midi": 36,
            "name": "C2",
            "ticks": 23520,
            "time": 94.08,
            "velocity": 0.6850393700787402
          },
          {
            "duration": 0.09199999999999875,
            "durationTicks": 23,
            "midi": 42,
            "name": "F#2",
            "ticks": 23580,
            "time": 94.32,
            "velocity": 0.5433070866141733
          },
          {
            "duration": 0.1039999999999992,
            "durationTicks": 26,
            "midi": 42,
            "name": "F#2",
            "ticks": 23640,
            "time": 94.56,
            "velocity": 0.6614173228346457
          },
          {
            "duration": 0.30800000000000693,
            "durationTicks": 77,
            "midi": 40,
            "name": "E2",
            "ticks": 23640,
            "time": 94.56,
            "velocity": 0.4645669291338583
          },
          {
            "duration": 0.13999999999998636,
            "durationTicks": 35,
            "midi": 36,
            "name": "C2",
            "ticks": 23640,
            "time": 94.56,
            "velocity": 0.6614173228346457
          },
          {
            "duration": 0.08400000000000318,
            "durationTicks": 21,
            "midi": 42,
            "name": "F#2",
            "ticks": 23700,
            "time": 94.8,
            "velocity": 0.5433070866141733
          },
          {
            "duration": 0.09600000000000364,
            "durationTicks": 24,
            "midi": 42,
            "name": "F#2",
            "ticks": 23760,
            "time": 95.03999999999999,
            "velocity": 0.6614173228346457
          },
          {
            "duration": 0.12000000000000455,
            "durationTicks": 30,
            "midi": 36,
            "name": "C2",
            "ticks": 23760,
            "time": 95.03999999999999,
            "velocity": 0.6614173228346457
          },
          {
            "duration": 0.0759999999999934,
            "durationTicks": 19,
            "midi": 42,
            "name": "F#2",
            "ticks": 23820,
            "time": 95.28,
            "velocity": 0.5905511811023622
          },
          {
            "duration": 0.21999999999999886,
            "durationTicks": 55,
            "midi": 40,
            "name": "E2",
            "ticks": 23880,
            "time": 95.52,
            "velocity": 0.4645669291338583
          },
          {
            "duration": 0.11199999999999477,
            "durationTicks": 28,
            "midi": 42,
            "name": "F#2",
            "ticks": 23880,
            "time": 95.52,
            "velocity": 0.5905511811023622
          },
          {
            "duration": 0.1039999999999992,
            "durationTicks": 26,
            "midi": 36,
            "name": "C2",
            "ticks": 23880,
            "time": 95.52,
            "velocity": 0.7874015748031497
          },
          {
            "duration": 0.0840000000000174,
            "durationTicks": 21,
            "midi": 46,
            "name": "A#2",
            "ticks": 23940,
            "time": 95.75999999999999,
            "velocity": 0.7874015748031497
          },
          {
            "duration": 0.0519999999999925,
            "durationTicks": 13,
            "midi": 42,
            "name": "F#2",
            "ticks": 24000,
            "time": 96,
            "velocity": 0.8661417322834646
          },
          {
            "duration": 0.060000000000002274,
            "durationTicks": 15,
            "midi": 40,
            "name": "E2",
            "ticks": 24000,
            "time": 96,
            "velocity": 0.6850393700787402
          },
          {
            "duration": 0.15200000000000102,
            "durationTicks": 38,
            "midi": 36,
            "name": "C2",
            "ticks": 24000,
            "time": 96,
            "velocity": 0.6850393700787402
          },
          {
            "duration": 0.0840000000000174,
            "durationTicks": 21,
            "midi": 42,
            "name": "F#2",
            "ticks": 24030,
            "time": 96.11999999999999,
            "velocity": 0.6850393700787402
          },
          {
            "duration": 0.0840000000000174,
            "durationTicks": 21,
            "midi": 40,
            "name": "E2",
            "ticks": 24030,
            "time": 96.11999999999999,
            "velocity": 0.5118110236220472
          },
          {
            "duration": 0.07200000000000273,
            "durationTicks": 18,
            "midi": 42,
            "name": "F#2",
            "ticks": 24090,
            "time": 96.36,
            "velocity": 0.8661417322834646
          },
          {
            "duration": 0.08799999999999386,
            "durationTicks": 22,
            "midi": 40,
            "name": "E2",
            "ticks": 24090,
            "time": 96.36,
            "velocity": 0.7874015748031497
          },
          {
            "duration": 0.14000000000000057,
            "durationTicks": 35,
            "midi": 36,
            "name": "C2",
            "ticks": 24120,
            "time": 96.47999999999999,
            "velocity": 0.6614173228346457
          },
          {
            "duration": 0.07600000000000762,
            "durationTicks": 19,
            "midi": 42,
            "name": "F#2",
            "ticks": 24150,
            "time": 96.6,
            "velocity": 0.8661417322834646
          },
          {
            "duration": 0.08800000000000807,
            "durationTicks": 22,
            "midi": 40,
            "name": "E2",
            "ticks": 24150,
            "time": 96.6,
            "velocity": 0.6614173228346457
          },
          {
            "duration": 0.0519999999999925,
            "durationTicks": 13,
            "midi": 40,
            "name": "E2",
            "ticks": 24210,
            "time": 96.84,
            "velocity": 0.6614173228346457
          },
          {
            "duration": 0.03999999999999204,
            "durationTicks": 10,
            "midi": 42,
            "name": "F#2",
            "ticks": 24210,
            "time": 96.84,
            "velocity": 0.7874015748031497
          },
          {
            "duration": 0.09199999999999875,
            "durationTicks": 23,
            "midi": 40,
            "name": "E2",
            "ticks": 24240,
            "time": 96.96,
            "velocity": 0.5275590551181102
          },
          {
            "duration": 0.08800000000000807,
            "durationTicks": 22,
            "midi": 42,
            "name": "F#2",
            "ticks": 24240,
            "time": 96.96,
            "velocity": 0.8661417322834646
          },
          {
            "duration": 0.12000000000000455,
            "durationTicks": 30,
            "midi": 36,
            "name": "C2",
            "ticks": 24240,
            "time": 96.96,
            "velocity": 0.6614173228346457
          },
          {
            "duration": 0.1039999999999992,
            "durationTicks": 26,
            "midi": 36,
            "name": "C2",
            "ticks": 24360,
            "time": 97.44,
            "velocity": 0.7874015748031497
          },
          {
            "duration": 0.1519999999999868,
            "durationTicks": 38,
            "midi": 36,
            "name": "C2",
            "ticks": 24480,
            "time": 97.92,
            "velocity": 0.6850393700787402
          },
          {
            "duration": 0.14000000000000057,
            "durationTicks": 35,
            "midi": 36,
            "name": "C2",
            "ticks": 24600,
            "time": 98.39999999999999,
            "velocity": 0.6614173228346457
          },
          {
            "duration": 0.12000000000000455,
            "durationTicks": 30,
            "midi": 36,
            "name": "C2",
            "ticks": 24720,
            "time": 98.88,
            "velocity": 0.6614173228346457
          },
          {
            "duration": 0.1039999999999992,
            "durationTicks": 26,
            "midi": 36,
            "name": "C2",
            "ticks": 24840,
            "time": 99.36,
            "velocity": 0.7874015748031497
          },
          {
            "duration": 0.1519999999999868,
            "durationTicks": 38,
            "midi": 36,
            "name": "C2",
            "ticks": 24960,
            "time": 99.84,
            "velocity": 0.6850393700787402
          },
          {
            "duration": 0.0519999999999925,
            "durationTicks": 13,
            "midi": 42,
            "name": "F#2",
            "ticks": 24960,
            "time": 99.84,
            "velocity": 0.8976377952755905
          },
          {
            "duration": 0.05999999999998806,
            "durationTicks": 15,
            "midi": 40,
            "name": "E2",
            "ticks": 24960,
            "time": 99.84,
            "velocity": 0.7874015748031497
          },
          {
            "duration": 0.0799999999999983,
            "durationTicks": 20,
            "midi": 42,
            "name": "F#2",
            "ticks": 24990,
            "time": 99.96,
            "velocity": 0.6850393700787402
          },
          {
            "duration": 0.0799999999999983,
            "durationTicks": 20,
            "midi": 40,
            "name": "E2",
            "ticks": 24990,
            "time": 99.96,
            "velocity": 0.49606299212598426
          },
          {
            "duration": 0.07999999999998408,
            "durationTicks": 20,
            "midi": 42,
            "name": "F#2",
            "ticks": 25050,
            "time": 100.2,
            "velocity": 0.952755905511811
          },
          {
            "duration": 0.09599999999998943,
            "durationTicks": 24,
            "midi": 40,
            "name": "E2",
            "ticks": 25050,
            "time": 100.2,
            "velocity": 0.6614173228346457
          },
          {
            "duration": 0.14000000000000057,
            "durationTicks": 35,
            "midi": 36,
            "name": "C2",
            "ticks": 25080,
            "time": 100.32,
            "velocity": 0.6614173228346457
          },
          {
            "duration": 0.06799999999999784,
            "durationTicks": 17,
            "midi": 42,
            "name": "F#2",
            "ticks": 25110,
            "time": 100.44,
            "velocity": 0.8661417322834646
          },
          {
            "duration": 0.08400000000000318,
            "durationTicks": 21,
            "midi": 40,
            "name": "E2",
            "ticks": 25110,
            "time": 100.44,
            "velocity": 0.5669291338582677
          },
          {
            "duration": 0.036000000000001364,
            "durationTicks": 9,
            "midi": 42,
            "name": "F#2",
            "ticks": 25170,
            "time": 100.67999999999999,
            "velocity": 0.7401574803149606
          },
          {
            "duration": 0.04800000000000182,
            "durationTicks": 12,
            "midi": 40,
            "name": "E2",
            "ticks": 25170,
            "time": 100.67999999999999,
            "velocity": 0.5669291338582677
          },
          {
            "duration": 0.09199999999999875,
            "durationTicks": 23,
            "midi": 40,
            "name": "E2",
            "ticks": 25200,
            "time": 100.8,
            "velocity": 0.5905511811023622
          },
          {
            "duration": 0.08400000000000318,
            "durationTicks": 21,
            "midi": 42,
            "name": "F#2",
            "ticks": 25200,
            "time": 100.8,
            "velocity": 0.952755905511811
          },
          {
            "duration": 0.12000000000000455,
            "durationTicks": 30,
            "midi": 36,
            "name": "C2",
            "ticks": 25200,
            "time": 100.8,
            "velocity": 0.6614173228346457
          },
          {
            "duration": 0.1039999999999992,
            "durationTicks": 26,
            "midi": 36,
            "name": "C2",
            "ticks": 25320,
            "time": 101.28,
            "velocity": 0.7874015748031497
          },
          {
            "duration": 0.15200000000000102,
            "durationTicks": 38,
            "midi": 36,
            "name": "C2",
            "ticks": 25440,
            "time": 101.75999999999999,
            "velocity": 0.6850393700787402
          },
          {
            "duration": 0.14000000000000057,
            "durationTicks": 35,
            "midi": 36,
            "name": "C2",
            "ticks": 25560,
            "time": 102.24,
            "velocity": 0.6614173228346457
          },
          {
            "duration": 0.11999999999999034,
            "durationTicks": 30,
            "midi": 36,
            "name": "C2",
            "ticks": 25680,
            "time": 102.72,
            "velocity": 0.6614173228346457
          },
          {
            "duration": 0.1039999999999992,
            "durationTicks": 26,
            "midi": 36,
            "name": "C2",
            "ticks": 25800,
            "time": 103.2,
            "velocity": 0.7874015748031497
          },
          {
            "duration": 0.15200000000000102,
            "durationTicks": 38,
            "midi": 36,
            "name": "C2",
            "ticks": 25920,
            "time": 103.67999999999999,
            "velocity": 0.6850393700787402
          },
          {
            "duration": 0.056000000000011596,
            "durationTicks": 14,
            "midi": 42,
            "name": "F#2",
            "ticks": 25920,
            "time": 103.67999999999999,
            "velocity": 0.8976377952755905
          },
          {
            "duration": 0.056000000000011596,
            "durationTicks": 14,
            "midi": 40,
            "name": "E2",
            "ticks": 25920,
            "time": 103.67999999999999,
            "velocity": 0.6850393700787402
          },
          {
            "duration": 0.0759999999999934,
            "durationTicks": 19,
            "midi": 42,
            "name": "F#2",
            "ticks": 25950,
            "time": 103.8,
            "velocity": 0.6850393700787402
          },
          {
            "duration": 0.09199999999999875,
            "durationTicks": 23,
            "midi": 40,
            "name": "E2",
            "ticks": 25950,
            "time": 103.8,
            "velocity": 0.49606299212598426
          },
          {
            "duration": 0.0799999999999983,
            "durationTicks": 20,
            "midi": 42,
            "name": "F#2",
            "ticks": 26010,
            "time": 104.03999999999999,
            "velocity": 0.952755905511811
          },
          {
            "duration": 0.09199999999999875,
            "durationTicks": 23,
            "midi": 40,
            "name": "E2",
            "ticks": 26010,
            "time": 104.03999999999999,
            "velocity": 0.6614173228346457
          },
          {
            "duration": 0.14000000000000057,
            "durationTicks": 35,
            "midi": 36,
            "name": "C2",
            "ticks": 26040,
            "time": 104.16,
            "velocity": 0.6614173228346457
          },
          {
            "duration": 0.0759999999999934,
            "durationTicks": 19,
            "midi": 42,
            "name": "F#2",
            "ticks": 26070,
            "time": 104.28,
            "velocity": 0.8661417322834646
          },
          {
            "duration": 0.09199999999999875,
            "durationTicks": 23,
            "midi": 40,
            "name": "E2",
            "ticks": 26070,
            "time": 104.28,
            "velocity": 0.5905511811023622
          },
          {
            "duration": 0.04399999999999693,
            "durationTicks": 11,
            "midi": 40,
            "name": "E2",
            "ticks": 26130,
            "time": 104.52,
            "velocity": 0.5433070866141733
          },
          {
            "duration": 0.04399999999999693,
            "durationTicks": 11,
            "midi": 42,
            "name": "F#2",
            "ticks": 26130,
            "time": 104.52,
            "velocity": 0.6850393700787402
          },
          {
            "duration": 0.08799999999999386,
            "durationTicks": 22,
            "midi": 40,
            "name": "E2",
            "ticks": 26160,
            "time": 104.64,
            "velocity": 0.5669291338582677
          },
          {
            "duration": 0.07999999999998408,
            "durationTicks": 20,
            "midi": 42,
            "name": "F#2",
            "ticks": 26160,
            "time": 104.64,
            "velocity": 0.8661417322834646
          },
          {
            "duration": 0.11999999999999034,
            "durationTicks": 30,
            "midi": 36,
            "name": "C2",
            "ticks": 26160,
            "time": 104.64,
            "velocity": 0.6614173228346457
          },
          {
            "duration": 0.10400000000001342,
            "durationTicks": 26,
            "midi": 36,
            "name": "C2",
            "ticks": 26280,
            "time": 105.11999999999999,
            "velocity": 0.7874015748031497
          },
          {
            "duration": 0.15200000000000102,
            "durationTicks": 38,
            "midi": 36,
            "name": "C2",
            "ticks": 26400,
            "time": 105.6,
            "velocity": 0.6850393700787402
          },
          {
            "duration": 0.13999999999998636,
            "durationTicks": 35,
            "midi": 36,
            "name": "C2",
            "ticks": 26520,
            "time": 106.08,
            "velocity": 0.6614173228346457
          },
          {
            "duration": 0.11999999999999034,
            "durationTicks": 30,
            "midi": 36,
            "name": "C2",
            "ticks": 26640,
            "time": 106.56,
            "velocity": 0.6614173228346457
          },
          {
            "duration": 0.1039999999999992,
            "durationTicks": 26,
            "midi": 36,
            "name": "C2",
            "ticks": 26760,
            "time": 107.03999999999999,
            "velocity": 0.7874015748031497
          },
          {
            "duration": 0.15200000000000102,
            "durationTicks": 38,
            "midi": 36,
            "name": "C2",
            "ticks": 26880,
            "time": 107.52,
            "velocity": 0.6850393700787402
          },
          {
            "duration": 0.0519999999999925,
            "durationTicks": 13,
            "midi": 42,
            "name": "F#2",
            "ticks": 26880,
            "time": 107.52,
            "velocity": 0.8976377952755905
          },
          {
            "duration": 0.0519999999999925,
            "durationTicks": 13,
            "midi": 40,
            "name": "E2",
            "ticks": 26880,
            "time": 107.52,
            "velocity": 0.5433070866141733
          },
          {
            "duration": 0.07200000000000273,
            "durationTicks": 18,
            "midi": 42,
            "name": "F#2",
            "ticks": 26910,
            "time": 107.64,
            "velocity": 0.7401574803149606
          },
          {
            "duration": 0.0759999999999934,
            "durationTicks": 19,
            "midi": 40,
            "name": "E2",
            "ticks": 26910,
            "time": 107.64,
            "velocity": 0.47244094488188976
          },
          {
            "duration": 0.0759999999999934,
            "durationTicks": 19,
            "midi": 42,
            "name": "F#2",
            "ticks": 26970,
            "time": 107.88,
            "velocity": 0.952755905511811
          },
          {
            "duration": 0.08400000000000318,
            "durationTicks": 21,
            "midi": 40,
            "name": "E2",
            "ticks": 26970,
            "time": 107.88,
            "velocity": 0.5905511811023622
          },
          {
            "duration": 0.13999999999998636,
            "durationTicks": 35,
            "midi": 36,
            "name": "C2",
            "ticks": 27000,
            "time": 108,
            "velocity": 0.6614173228346457
          },
          {
            "duration": 0.07200000000000273,
            "durationTicks": 18,
            "midi": 42,
            "name": "F#2",
            "ticks": 27030,
            "time": 108.11999999999999,
            "velocity": 0.7401574803149606
          },
          {
            "duration": 0.0840000000000174,
            "durationTicks": 21,
            "midi": 40,
            "name": "E2",
            "ticks": 27030,
            "time": 108.11999999999999,
            "velocity": 0.5826771653543307
          },
          {
            "duration": 0.04399999999999693,
            "durationTicks": 11,
            "midi": 40,
            "name": "E2",
            "ticks": 27090,
            "time": 108.36,
            "velocity": 0.5669291338582677
          },
          {
            "duration": 0.03599999999998715,
            "durationTicks": 9,
            "midi": 42,
            "name": "F#2",
            "ticks": 27090,
            "time": 108.36,
            "velocity": 0.6850393700787402
          },
          {
            "duration": 0.0799999999999983,
            "durationTicks": 20,
            "midi": 40,
            "name": "E2",
            "ticks": 27120,
            "time": 108.47999999999999,
            "velocity": 0.5826771653543307
          },
          {
            "duration": 0.08800000000000807,
            "durationTicks": 22,
            "midi": 42,
            "name": "F#2",
            "ticks": 27120,
            "time": 108.47999999999999,
            "velocity": 0.8661417322834646
          },
          {
            "duration": 0.12000000000000455,
            "durationTicks": 30,
            "midi": 36,
            "name": "C2",
            "ticks": 27120,
            "time": 108.47999999999999,
            "velocity": 0.6614173228346457
          },
          {
            "duration": 0.1039999999999992,
            "durationTicks": 26,
            "midi": 36,
            "name": "C2",
            "ticks": 27240,
            "time": 108.96,
            "velocity": 0.7874015748031497
          },
          {
            "duration": 0.15200000000000102,
            "durationTicks": 38,
            "midi": 36,
            "name": "C2",
            "ticks": 27360,
            "time": 109.44,
            "velocity": 0.6850393700787402
          },
          {
            "duration": 0.13999999999998636,
            "durationTicks": 35,
            "midi": 36,
            "name": "C2",
            "ticks": 27480,
            "time": 109.92,
            "velocity": 0.6614173228346457
          },
          {
            "duration": 0.04000000000000625,
            "durationTicks": 10,
            "midi": 40,
            "name": "E2",
            "ticks": 27541,
            "time": 110.16399999999999,
            "velocity": 0.5826771653543307
          },
          {
            "duration": 0.03599999999998715,
            "durationTicks": 9,
            "midi": 40,
            "name": "E2",
            "ticks": 27558,
            "time": 110.232,
            "velocity": 0.5669291338582677
          },
          {
            "duration": 0.04800000000000182,
            "durationTicks": 12,
            "midi": 40,
            "name": "E2",
            "ticks": 27574,
            "time": 110.29599999999999,
            "velocity": 0.5669291338582677
          },
          {
            "duration": 0.0800000000000125,
            "durationTicks": 20,
            "midi": 40,
            "name": "E2",
            "ticks": 27590,
            "time": 110.35999999999999,
            "velocity": 0.8661417322834646
          },
          {
            "duration": 0.12000000000000455,
            "durationTicks": 30,
            "midi": 36,
            "name": "C2",
            "ticks": 27600,
            "time": 110.39999999999999,
            "velocity": 0.6614173228346457
          },
          {
            "duration": 0.0799999999999983,
            "durationTicks": 20,
            "midi": 40,
            "name": "E2",
            "ticks": 27651,
            "time": 110.604,
            "velocity": 0.8661417322834646
          },
          {
            "duration": 0.031999999999996476,
            "durationTicks": 8,
            "midi": 36,
            "name": "C2",
            "ticks": 27660,
            "time": 110.64,
            "velocity": 0.5433070866141733
          },
          {
            "duration": 0.08400000000000318,
            "durationTicks": 21,
            "midi": 40,
            "name": "E2",
            "ticks": 27710,
            "time": 110.83999999999999,
            "velocity": 0.7874015748031497
          },
          {
            "duration": 0.1039999999999992,
            "durationTicks": 26,
            "midi": 36,
            "name": "C2",
            "ticks": 27720,
            "time": 110.88,
            "velocity": 0.7874015748031497
          },
          {
            "duration": 0.0759999999999934,
            "durationTicks": 19,
            "midi": 40,
            "name": "E2",
            "ticks": 27740,
            "time": 110.96,
            "velocity": 0.6220472440944882
          },
          {
            "duration": 0.055999999999997385,
            "durationTicks": 14,
            "midi": 50,
            "name": "D3",
            "ticks": 27773,
            "time": 111.092,
            "velocity": 0.5039370078740157
          },
          {
            "duration": 0.08399999999998897,
            "durationTicks": 21,
            "midi": 40,
            "name": "E2",
            "ticks": 27801,
            "time": 111.20400000000001,
            "velocity": 0.5669291338582677
          },
          {
            "duration": 0.06799999999998363,
            "durationTicks": 17,
            "midi": 50,
            "name": "D3",
            "ticks": 27801,
            "time": 111.20400000000001,
            "velocity": 0.5669291338582677
          },
          {
            "duration": 0.08799999999999386,
            "durationTicks": 22,
            "midi": 40,
            "name": "E2",
            "ticks": 27831,
            "time": 111.324,
            "velocity": 0.7874015748031497
          },
          {
            "duration": 0.15200000000000102,
            "durationTicks": 38,
            "midi": 36,
            "name": "C2",
            "ticks": 27840,
            "time": 111.36,
            "velocity": 0.6850393700787402
          },
          {
            "duration": 0.09999999999999432,
            "durationTicks": 25,
            "midi": 57,
            "name": "A3",
            "ticks": 27840,
            "time": 111.36,
            "velocity": 0.4645669291338583
          },
          {
            "duration": 0.09999999999999432,
            "durationTicks": 25,
            "midi": 42,
            "name": "F#2",
            "ticks": 27843,
            "time": 111.372,
            "velocity": 0.6850393700787402
          },
          {
            "duration": 0.09199999999999875,
            "durationTicks": 23,
            "midi": 42,
            "name": "F#2",
            "ticks": 27900,
            "time": 111.6,
            "velocity": 0.5433070866141733
          },
          {
            "duration": 0.10400000000001342,
            "durationTicks": 26,
            "midi": 42,
            "name": "F#2",
            "ticks": 27960,
            "time": 111.83999999999999,
            "velocity": 0.6614173228346457
          },
          {
            "duration": 0.30800000000000693,
            "durationTicks": 77,
            "midi": 40,
            "name": "E2",
            "ticks": 27960,
            "time": 111.83999999999999,
            "velocity": 0.4645669291338583
          },
          {
            "duration": 0.14000000000000057,
            "durationTicks": 35,
            "midi": 36,
            "name": "C2",
            "ticks": 27960,
            "time": 111.83999999999999,
            "velocity": 0.6614173228346457
          },
          {
            "duration": 0.08400000000000318,
            "durationTicks": 21,
            "midi": 42,
            "name": "F#2",
            "ticks": 28020,
            "time": 112.08,
            "velocity": 0.5433070866141733
          },
          {
            "duration": 0.09600000000000364,
            "durationTicks": 24,
            "midi": 42,
            "name": "F#2",
            "ticks": 28080,
            "time": 112.32,
            "velocity": 0.6614173228346457
          },
          {
            "duration": 0.12000000000000455,
            "durationTicks": 30,
            "midi": 36,
            "name": "C2",
            "ticks": 28080,
            "time": 112.32,
            "velocity": 0.6614173228346457
          },
          {
            "duration": 0.19999999999998863,
            "durationTicks": 50,
            "midi": 54,
            "name": "F#3",
            "ticks": 28140,
            "time": 112.56,
            "velocity": 0.5905511811023622
          },
          {
            "duration": 0.0759999999999934,
            "durationTicks": 19,
            "midi": 42,
            "name": "F#2",
            "ticks": 28140,
            "time": 112.56,
            "velocity": 0.5905511811023622
          },
          {
            "duration": 0.21999999999999886,
            "durationTicks": 55,
            "midi": 40,
            "name": "E2",
            "ticks": 28200,
            "time": 112.8,
            "velocity": 0.4645669291338583
          },
          {
            "duration": 0.11199999999999477,
            "durationTicks": 28,
            "midi": 42,
            "name": "F#2",
            "ticks": 28200,
            "time": 112.8,
            "velocity": 0.5905511811023622
          },
          {
            "duration": 0.1039999999999992,
            "durationTicks": 26,
            "midi": 36,
            "name": "C2",
            "ticks": 28200,
            "time": 112.8,
            "velocity": 0.7874015748031497
          },
          {
            "duration": 0.08400000000000318,
            "durationTicks": 21,
            "midi": 46,
            "name": "A#2",
            "ticks": 28260,
            "time": 113.03999999999999,
            "velocity": 0.7874015748031497
          },
          {
            "duration": 0.09999999999999432,
            "durationTicks": 25,
            "midi": 42,
            "name": "F#2",
            "ticks": 28320,
            "time": 113.28,
            "velocity": 0.6850393700787402
          },
          {
            "duration": 0.1519999999999868,
            "durationTicks": 38,
            "midi": 36,
            "name": "C2",
            "ticks": 28320,
            "time": 113.28,
            "velocity": 0.6850393700787402
          },
          {
            "duration": 0.09199999999999875,
            "durationTicks": 23,
            "midi": 42,
            "name": "F#2",
            "ticks": 28380,
            "time": 113.52,
            "velocity": 0.5433070866141733
          },
          {
            "duration": 0.1039999999999992,
            "durationTicks": 26,
            "midi": 42,
            "name": "F#2",
            "ticks": 28440,
            "time": 113.75999999999999,
            "velocity": 0.6614173228346457
          },
          {
            "duration": 0.30800000000000693,
            "durationTicks": 77,
            "midi": 40,
            "name": "E2",
            "ticks": 28440,
            "time": 113.75999999999999,
            "velocity": 0.4645669291338583
          },
          {
            "duration": 0.14000000000000057,
            "durationTicks": 35,
            "midi": 36,
            "name": "C2",
            "ticks": 28440,
            "time": 113.75999999999999,
            "velocity": 0.6614173228346457
          },
          {
            "duration": 0.08400000000000318,
            "durationTicks": 21,
            "midi": 42,
            "name": "F#2",
            "ticks": 28500,
            "time": 114,
            "velocity": 0.5433070866141733
          },
          {
            "duration": 0.09599999999998943,
            "durationTicks": 24,
            "midi": 42,
            "name": "F#2",
            "ticks": 28560,
            "time": 114.24,
            "velocity": 0.6614173228346457
          },
          {
            "duration": 0.12000000000000455,
            "durationTicks": 30,
            "midi": 36,
            "name": "C2",
            "ticks": 28560,
            "time": 114.24,
            "velocity": 0.6614173228346457
          },
          {
            "duration": 0.20400000000000773,
            "durationTicks": 51,
            "midi": 54,
            "name": "F#3",
            "ticks": 28620,
            "time": 114.47999999999999,
            "velocity": 0.6614173228346457
          },
          {
            "duration": 0.07600000000000762,
            "durationTicks": 19,
            "midi": 42,
            "name": "F#2",
            "ticks": 28620,
            "time": 114.47999999999999,
            "velocity": 0.5905511811023622
          },
          {
            "duration": 0.21999999999999886,
            "durationTicks": 55,
            "midi": 40,
            "name": "E2",
            "ticks": 28680,
            "time": 114.72,
            "velocity": 0.4645669291338583
          },
          {
            "duration": 0.11199999999999477,
            "durationTicks": 28,
            "midi": 42,
            "name": "F#2",
            "ticks": 28680,
            "time": 114.72,
            "velocity": 0.5905511811023622
          },
          {
            "duration": 0.1039999999999992,
            "durationTicks": 26,
            "midi": 36,
            "name": "C2",
            "ticks": 28680,
            "time": 114.72,
            "velocity": 0.7874015748031497
          },
          {
            "duration": 0.08400000000000318,
            "durationTicks": 21,
            "midi": 46,
            "name": "A#2",
            "ticks": 28740,
            "time": 114.96,
            "velocity": 0.7874015748031497
          },
          {
            "duration": 0.10000000000000853,
            "durationTicks": 25,
            "midi": 42,
            "name": "F#2",
            "ticks": 28800,
            "time": 115.19999999999999,
            "velocity": 0.6850393700787402
          },
          {
            "duration": 0.15200000000000102,
            "durationTicks": 38,
            "midi": 36,
            "name": "C2",
            "ticks": 28800,
            "time": 115.19999999999999,
            "velocity": 0.6850393700787402
          },
          {
            "duration": 0.09199999999999875,
            "durationTicks": 23,
            "midi": 42,
            "name": "F#2",
            "ticks": 28860,
            "time": 115.44,
            "velocity": 0.5433070866141733
          },
          {
            "duration": 0.1039999999999992,
            "durationTicks": 26,
            "midi": 42,
            "name": "F#2",
            "ticks": 28920,
            "time": 115.67999999999999,
            "velocity": 0.6614173228346457
          },
          {
            "duration": 0.30800000000000693,
            "durationTicks": 77,
            "midi": 40,
            "name": "E2",
            "ticks": 28920,
            "time": 115.67999999999999,
            "velocity": 0.4645669291338583
          },
          {
            "duration": 0.14000000000000057,
            "durationTicks": 35,
            "midi": 36,
            "name": "C2",
            "ticks": 28920,
            "time": 115.67999999999999,
            "velocity": 0.6614173228346457
          },
          {
            "duration": 0.08400000000000318,
            "durationTicks": 21,
            "midi": 42,
            "name": "F#2",
            "ticks": 28980,
            "time": 115.92,
            "velocity": 0.5433070866141733
          },
          {
            "duration": 0.09599999999998943,
            "durationTicks": 24,
            "midi": 42,
            "name": "F#2",
            "ticks": 29040,
            "time": 116.16,
            "velocity": 0.6614173228346457
          },
          {
            "duration": 0.12000000000000455,
            "durationTicks": 30,
            "midi": 36,
            "name": "C2",
            "ticks": 29040,
            "time": 116.16,
            "velocity": 0.6614173228346457
          },
          {
            "duration": 0.2120000000000033,
            "durationTicks": 53,
            "midi": 54,
            "name": "F#3",
            "ticks": 29100,
            "time": 116.39999999999999,
            "velocity": 0.6220472440944882
          },
          {
            "duration": 0.07600000000000762,
            "durationTicks": 19,
            "midi": 42,
            "name": "F#2",
            "ticks": 29100,
            "time": 116.39999999999999,
            "velocity": 0.5905511811023622
          },
          {
            "duration": 0.21999999999999886,
            "durationTicks": 55,
            "midi": 40,
            "name": "E2",
            "ticks": 29160,
            "time": 116.64,
            "velocity": 0.4645669291338583
          },
          {
            "duration": 0.11199999999999477,
            "durationTicks": 28,
            "midi": 42,
            "name": "F#2",
            "ticks": 29160,
            "time": 116.64,
            "velocity": 0.5905511811023622
          },
          {
            "duration": 0.1039999999999992,
            "durationTicks": 26,
            "midi": 36,
            "name": "C2",
            "ticks": 29160,
            "time": 116.64,
            "velocity": 0.7874015748031497
          },
          {
            "duration": 0.08400000000000318,
            "durationTicks": 21,
            "midi": 46,
            "name": "A#2",
            "ticks": 29220,
            "time": 116.88,
            "velocity": 0.7874015748031497
          },
          {
            "duration": 0.10000000000000853,
            "durationTicks": 25,
            "midi": 42,
            "name": "F#2",
            "ticks": 29280,
            "time": 117.11999999999999,
            "velocity": 0.6850393700787402
          },
          {
            "duration": 0.15200000000000102,
            "durationTicks": 38,
            "midi": 36,
            "name": "C2",
            "ticks": 29280,
            "time": 117.11999999999999,
            "velocity": 0.6850393700787402
          },
          {
            "duration": 0.09199999999999875,
            "durationTicks": 23,
            "midi": 42,
            "name": "F#2",
            "ticks": 29340,
            "time": 117.36,
            "velocity": 0.5433070866141733
          },
          {
            "duration": 0.1039999999999992,
            "durationTicks": 26,
            "midi": 42,
            "name": "F#2",
            "ticks": 29400,
            "time": 117.6,
            "velocity": 0.6614173228346457
          },
          {
            "duration": 0.30800000000000693,
            "durationTicks": 77,
            "midi": 40,
            "name": "E2",
            "ticks": 29400,
            "time": 117.6,
            "velocity": 0.4645669291338583
          },
          {
            "duration": 0.14000000000000057,
            "durationTicks": 35,
            "midi": 36,
            "name": "C2",
            "ticks": 29400,
            "time": 117.6,
            "velocity": 0.6614173228346457
          },
          {
            "duration": 0.0840000000000174,
            "durationTicks": 21,
            "midi": 42,
            "name": "F#2",
            "ticks": 29460,
            "time": 117.83999999999999,
            "velocity": 0.5433070866141733
          },
          {
            "duration": 0.09599999999998943,
            "durationTicks": 24,
            "midi": 42,
            "name": "F#2",
            "ticks": 29520,
            "time": 118.08,
            "velocity": 0.6614173228346457
          },
          {
            "duration": 0.11999999999999034,
            "durationTicks": 30,
            "midi": 36,
            "name": "C2",
            "ticks": 29520,
            "time": 118.08,
            "velocity": 0.6614173228346457
          },
          {
            "duration": 0.21599999999999397,
            "durationTicks": 54,
            "midi": 54,
            "name": "F#3",
            "ticks": 29580,
            "time": 118.32,
            "velocity": 0.6614173228346457
          },
          {
            "duration": 0.07600000000000762,
            "durationTicks": 19,
            "midi": 42,
            "name": "F#2",
            "ticks": 29580,
            "time": 118.32,
            "velocity": 0.5905511811023622
          },
          {
            "duration": 0.21999999999999886,
            "durationTicks": 55,
            "midi": 40,
            "name": "E2",
            "ticks": 29640,
            "time": 118.56,
            "velocity": 0.4645669291338583
          },
          {
            "duration": 0.11199999999998056,
            "durationTicks": 28,
            "midi": 42,
            "name": "F#2",
            "ticks": 29640,
            "time": 118.56,
            "velocity": 0.5905511811023622
          },
          {
            "duration": 0.1039999999999992,
            "durationTicks": 26,
            "midi": 36,
            "name": "C2",
            "ticks": 29640,
            "time": 118.56,
            "velocity": 0.7874015748031497
          },
          {
            "duration": 0.08400000000000318,
            "durationTicks": 21,
            "midi": 46,
            "name": "A#2",
            "ticks": 29700,
            "time": 118.8,
            "velocity": 0.7874015748031497
          },
          {
            "duration": 0.10000000000000853,
            "durationTicks": 25,
            "midi": 42,
            "name": "F#2",
            "ticks": 29760,
            "time": 119.03999999999999,
            "velocity": 0.6850393700787402
          },
          {
            "duration": 0.15200000000000102,
            "durationTicks": 38,
            "midi": 36,
            "name": "C2",
            "ticks": 29760,
            "time": 119.03999999999999,
            "velocity": 0.6850393700787402
          },
          {
            "duration": 0.09199999999999875,
            "durationTicks": 23,
            "midi": 42,
            "name": "F#2",
            "ticks": 29820,
            "time": 119.28,
            "velocity": 0.5433070866141733
          },
          {
            "duration": 0.1039999999999992,
            "durationTicks": 26,
            "midi": 42,
            "name": "F#2",
            "ticks": 29880,
            "time": 119.52,
            "velocity": 0.6614173228346457
          },
          {
            "duration": 0.30800000000000693,
            "durationTicks": 77,
            "midi": 40,
            "name": "E2",
            "ticks": 29880,
            "time": 119.52,
            "velocity": 0.4645669291338583
          },
          {
            "duration": 0.14000000000000057,
            "durationTicks": 35,
            "midi": 36,
            "name": "C2",
            "ticks": 29880,
            "time": 119.52,
            "velocity": 0.6614173228346457
          },
          {
            "duration": 0.08400000000000318,
            "durationTicks": 21,
            "midi": 42,
            "name": "F#2",
            "ticks": 29940,
            "time": 119.75999999999999,
            "velocity": 0.5433070866141733
          },
          {
            "duration": 0.09599999999998943,
            "durationTicks": 24,
            "midi": 42,
            "name": "F#2",
            "ticks": 30000,
            "time": 120,
            "velocity": 0.6614173228346457
          },
          {
            "duration": 0.11999999999999034,
            "durationTicks": 30,
            "midi": 36,
            "name": "C2",
            "ticks": 30000,
            "time": 120,
            "velocity": 0.6614173228346457
          },
          {
            "duration": 0.17199999999999704,
            "durationTicks": 43,
            "midi": 54,
            "name": "F#3",
            "ticks": 30060,
            "time": 120.24,
            "velocity": 0.5669291338582677
          },
          {
            "duration": 0.0759999999999934,
            "durationTicks": 19,
            "midi": 42,
            "name": "F#2",
            "ticks": 30060,
            "time": 120.24,
            "velocity": 0.5905511811023622
          },
          {
            "duration": 0.22000000000001307,
            "durationTicks": 55,
            "midi": 40,
            "name": "E2",
            "ticks": 30120,
            "time": 120.47999999999999,
            "velocity": 0.4645669291338583
          },
          {
            "duration": 0.11199999999999477,
            "durationTicks": 28,
            "midi": 42,
            "name": "F#2",
            "ticks": 30120,
            "time": 120.47999999999999,
            "velocity": 0.5905511811023622
          },
          {
            "duration": 0.10400000000001342,
            "durationTicks": 26,
            "midi": 36,
            "name": "C2",
            "ticks": 30120,
            "time": 120.47999999999999,
            "velocity": 0.7874015748031497
          },
          {
            "duration": 0.08400000000000318,
            "durationTicks": 21,
            "midi": 46,
            "name": "A#2",
            "ticks": 30180,
            "time": 120.72,
            "velocity": 0.7874015748031497
          },
          {
            "duration": 0.10000000000000853,
            "durationTicks": 25,
            "midi": 42,
            "name": "F#2",
            "ticks": 30240,
            "time": 120.96,
            "velocity": 0.6850393700787402
          },
          {
            "duration": 0.15200000000000102,
            "durationTicks": 38,
            "midi": 36,
            "name": "C2",
            "ticks": 30240,
            "time": 120.96,
            "velocity": 0.6850393700787402
          },
          {
            "duration": 0.09199999999999875,
            "durationTicks": 23,
            "midi": 42,
            "name": "F#2",
            "ticks": 30300,
            "time": 121.19999999999999,
            "velocity": 0.5433070866141733
          },
          {
            "duration": 0.1039999999999992,
            "durationTicks": 26,
            "midi": 42,
            "name": "F#2",
            "ticks": 30360,
            "time": 121.44,
            "velocity": 0.6614173228346457
          },
          {
            "duration": 0.30800000000000693,
            "durationTicks": 77,
            "midi": 40,
            "name": "E2",
            "ticks": 30360,
            "time": 121.44,
            "velocity": 0.4645669291338583
          },
          {
            "duration": 0.13999999999998636,
            "durationTicks": 35,
            "midi": 36,
            "name": "C2",
            "ticks": 30360,
            "time": 121.44,
            "velocity": 0.6614173228346457
          },
          {
            "duration": 0.08400000000000318,
            "durationTicks": 21,
            "midi": 42,
            "name": "F#2",
            "ticks": 30420,
            "time": 121.67999999999999,
            "velocity": 0.5433070866141733
          },
          {
            "duration": 0.09599999999998943,
            "durationTicks": 24,
            "midi": 42,
            "name": "F#2",
            "ticks": 30480,
            "time": 121.92,
            "velocity": 0.6614173228346457
          },
          {
            "duration": 0.11999999999999034,
            "durationTicks": 30,
            "midi": 36,
            "name": "C2",
            "ticks": 30480,
            "time": 121.92,
            "velocity": 0.6614173228346457
          },
          {
            "duration": 0.23199999999999932,
            "durationTicks": 58,
            "midi": 54,
            "name": "F#3",
            "ticks": 30540,
            "time": 122.16,
            "velocity": 0.5905511811023622
          },
          {
            "duration": 0.0759999999999934,
            "durationTicks": 19,
            "midi": 42,
            "name": "F#2",
            "ticks": 30540,
            "time": 122.16,
            "velocity": 0.5905511811023622
          },
          {
            "duration": 0.22000000000001307,
            "durationTicks": 55,
            "midi": 40,
            "name": "E2",
            "ticks": 30600,
            "time": 122.39999999999999,
            "velocity": 0.4645669291338583
          },
          {
            "duration": 0.11199999999999477,
            "durationTicks": 28,
            "midi": 42,
            "name": "F#2",
            "ticks": 30600,
            "time": 122.39999999999999,
            "velocity": 0.5905511811023622
          },
          {
            "duration": 0.1039999999999992,
            "durationTicks": 26,
            "midi": 36,
            "name": "C2",
            "ticks": 30600,
            "time": 122.39999999999999,
            "velocity": 0.7874015748031497
          },
          {
            "duration": 0.08400000000000318,
            "durationTicks": 21,
            "midi": 46,
            "name": "A#2",
            "ticks": 30660,
            "time": 122.64,
            "velocity": 0.7874015748031497
          },
          {
            "duration": 0.09999999999999432,
            "durationTicks": 25,
            "midi": 42,
            "name": "F#2",
            "ticks": 30720,
            "time": 122.88,
            "velocity": 0.6850393700787402
          },
          {
            "duration": 0.15200000000000102,
            "durationTicks": 38,
            "midi": 36,
            "name": "C2",
            "ticks": 30720,
            "time": 122.88,
            "velocity": 0.6850393700787402
          },
          {
            "duration": 0.09199999999999875,
            "durationTicks": 23,
            "midi": 42,
            "name": "F#2",
            "ticks": 30780,
            "time": 123.11999999999999,
            "velocity": 0.5433070866141733
          },
          {
            "duration": 0.103999999999985,
            "durationTicks": 26,
            "midi": 42,
            "name": "F#2",
            "ticks": 30840,
            "time": 123.36,
            "velocity": 0.6614173228346457
          },
          {
            "duration": 0.3079999999999927,
            "durationTicks": 77,
            "midi": 40,
            "name": "E2",
            "ticks": 30840,
            "time": 123.36,
            "velocity": 0.4645669291338583
          },
          {
            "duration": 0.14000000000000057,
            "durationTicks": 35,
            "midi": 36,
            "name": "C2",
            "ticks": 30840,
            "time": 123.36,
            "velocity": 0.6614173228346457
          },
          {
            "duration": 0.08400000000000318,
            "durationTicks": 21,
            "midi": 42,
            "name": "F#2",
            "ticks": 30900,
            "time": 123.6,
            "velocity": 0.5433070866141733
          },
          {
            "duration": 0.09600000000000364,
            "durationTicks": 24,
            "midi": 42,
            "name": "F#2",
            "ticks": 30960,
            "time": 123.83999999999999,
            "velocity": 0.6614173228346457
          },
          {
            "duration": 0.12000000000000455,
            "durationTicks": 30,
            "midi": 36,
            "name": "C2",
            "ticks": 30960,
            "time": 123.83999999999999,
            "velocity": 0.6614173228346457
          },
          {
            "duration": 0.07600000000000762,
            "durationTicks": 19,
            "midi": 42,
            "name": "F#2",
            "ticks": 31020,
            "time": 124.08,
            "velocity": 0.5905511811023622
          },
          {
            "duration": 0.19199999999999307,
            "durationTicks": 48,
            "midi": 54,
            "name": "F#3",
            "ticks": 31020,
            "time": 124.08,
            "velocity": 0.6614173228346457
          },
          {
            "duration": 0.21999999999999886,
            "durationTicks": 55,
            "midi": 40,
            "name": "E2",
            "ticks": 31080,
            "time": 124.32,
            "velocity": 0.4645669291338583
          },
          {
            "duration": 0.11200000000000898,
            "durationTicks": 28,
            "midi": 42,
            "name": "F#2",
            "ticks": 31080,
            "time": 124.32,
            "velocity": 0.5905511811023622
          },
          {
            "duration": 0.103999999999985,
            "durationTicks": 26,
            "midi": 36,
            "name": "C2",
            "ticks": 31080,
            "time": 124.32,
            "velocity": 0.7874015748031497
          },
          {
            "duration": 0.08400000000000318,
            "durationTicks": 21,
            "midi": 46,
            "name": "A#2",
            "ticks": 31140,
            "time": 124.56,
            "velocity": 0.7874015748031497
          },
          {
            "duration": 0.09999999999999432,
            "durationTicks": 25,
            "midi": 42,
            "name": "F#2",
            "ticks": 31200,
            "time": 124.8,
            "velocity": 0.6850393700787402
          },
          {
            "duration": 0.15200000000000102,
            "durationTicks": 38,
            "midi": 36,
            "name": "C2",
            "ticks": 31200,
            "time": 124.8,
            "velocity": 0.6850393700787402
          },
          {
            "duration": 0.09199999999999875,
            "durationTicks": 23,
            "midi": 42,
            "name": "F#2",
            "ticks": 31260,
            "time": 125.03999999999999,
            "velocity": 0.5433070866141733
          },
          {
            "duration": 0.103999999999985,
            "durationTicks": 26,
            "midi": 42,
            "name": "F#2",
            "ticks": 31320,
            "time": 125.28,
            "velocity": 0.6614173228346457
          },
          {
            "duration": 0.3079999999999927,
            "durationTicks": 77,
            "midi": 40,
            "name": "E2",
            "ticks": 31320,
            "time": 125.28,
            "velocity": 0.4645669291338583
          },
          {
            "duration": 0.14000000000000057,
            "durationTicks": 35,
            "midi": 36,
            "name": "C2",
            "ticks": 31320,
            "time": 125.28,
            "velocity": 0.6614173228346457
          },
          {
            "duration": 0.08400000000000318,
            "durationTicks": 21,
            "midi": 42,
            "name": "F#2",
            "ticks": 31380,
            "time": 125.52,
            "velocity": 0.5433070866141733
          },
          {
            "duration": 0.09600000000000364,
            "durationTicks": 24,
            "midi": 42,
            "name": "F#2",
            "ticks": 31440,
            "time": 125.75999999999999,
            "velocity": 0.6614173228346457
          },
          {
            "duration": 0.12000000000000455,
            "durationTicks": 30,
            "midi": 36,
            "name": "C2",
            "ticks": 31440,
            "time": 125.75999999999999,
            "velocity": 0.6614173228346457
          },
          {
            "duration": 0.21199999999998909,
            "durationTicks": 53,
            "midi": 54,
            "name": "F#3",
            "ticks": 31500,
            "time": 126,
            "velocity": 0.5905511811023622
          },
          {
            "duration": 0.07600000000000762,
            "durationTicks": 19,
            "midi": 42,
            "name": "F#2",
            "ticks": 31500,
            "time": 126,
            "velocity": 0.5905511811023622
          },
          {
            "duration": 0.21999999999998465,
            "durationTicks": 55,
            "midi": 40,
            "name": "E2",
            "ticks": 31560,
            "time": 126.24,
            "velocity": 0.4645669291338583
          },
          {
            "duration": 0.11200000000000898,
            "durationTicks": 28,
            "midi": 42,
            "name": "F#2",
            "ticks": 31560,
            "time": 126.24,
            "velocity": 0.5905511811023622
          },
          {
            "duration": 0.103999999999985,
            "durationTicks": 26,
            "midi": 36,
            "name": "C2",
            "ticks": 31560,
            "time": 126.24,
            "velocity": 0.7874015748031497
          },
          {
            "duration": 0.0840000000000174,
            "durationTicks": 21,
            "midi": 46,
            "name": "A#2",
            "ticks": 31620,
            "time": 126.47999999999999,
            "velocity": 0.7874015748031497
          },
          {
            "duration": 0.09999999999999432,
            "durationTicks": 25,
            "midi": 42,
            "name": "F#2",
            "ticks": 31680,
            "time": 126.72,
            "velocity": 0.6850393700787402
          },
          {
            "duration": 0.15200000000000102,
            "durationTicks": 38,
            "midi": 36,
            "name": "C2",
            "ticks": 31680,
            "time": 126.72,
            "velocity": 0.6850393700787402
          },
          {
            "duration": 0.09199999999999875,
            "durationTicks": 23,
            "midi": 42,
            "name": "F#2",
            "ticks": 31740,
            "time": 126.96,
            "velocity": 0.5433070866141733
          },
          {
            "duration": 0.1039999999999992,
            "durationTicks": 26,
            "midi": 42,
            "name": "F#2",
            "ticks": 31800,
            "time": 127.19999999999999,
            "velocity": 0.6614173228346457
          },
          {
            "duration": 0.3079999999999927,
            "durationTicks": 77,
            "midi": 40,
            "name": "E2",
            "ticks": 31800,
            "time": 127.19999999999999,
            "velocity": 0.4645669291338583
          },
          {
            "duration": 0.14000000000001478,
            "durationTicks": 35,
            "midi": 36,
            "name": "C2",
            "ticks": 31800,
            "time": 127.19999999999999,
            "velocity": 0.6614173228346457
          },
          {
            "duration": 0.08400000000000318,
            "durationTicks": 21,
            "midi": 42,
            "name": "F#2",
            "ticks": 31860,
            "time": 127.44,
            "velocity": 0.5433070866141733
          },
          {
            "duration": 0.09600000000000364,
            "durationTicks": 24,
            "midi": 42,
            "name": "F#2",
            "ticks": 31920,
            "time": 127.67999999999999,
            "velocity": 0.6614173228346457
          },
          {
            "duration": 0.12000000000000455,
            "durationTicks": 30,
            "midi": 36,
            "name": "C2",
            "ticks": 31920,
            "time": 127.67999999999999,
            "velocity": 0.6614173228346457
          },
          {
            "duration": 0.07600000000000762,
            "durationTicks": 19,
            "midi": 42,
            "name": "F#2",
            "ticks": 31980,
            "time": 127.92,
            "velocity": 0.5905511811023622
          },
          {
            "duration": 0.21999999999999886,
            "durationTicks": 55,
            "midi": 40,
            "name": "E2",
            "ticks": 32040,
            "time": 128.16,
            "velocity": 0.4645669291338583
          },
          {
            "duration": 0.11199999999999477,
            "durationTicks": 28,
            "midi": 42,
            "name": "F#2",
            "ticks": 32040,
            "time": 128.16,
            "velocity": 0.5905511811023622
          },
          {
            "duration": 0.103999999999985,
            "durationTicks": 26,
            "midi": 36,
            "name": "C2",
            "ticks": 32040,
            "time": 128.16,
            "velocity": 0.7874015748031497
          },
          {
            "duration": 0.08400000000000318,
            "durationTicks": 21,
            "midi": 46,
            "name": "A#2",
            "ticks": 32100,
            "time": 128.4,
            "velocity": 0.7874015748031497
          },
          {
            "duration": 0.09999999999999432,
            "durationTicks": 25,
            "midi": 42,
            "name": "F#2",
            "ticks": 32160,
            "time": 128.64,
            "velocity": 0.6850393700787402
          },
          {
            "duration": 0.15200000000001523,
            "durationTicks": 38,
            "midi": 36,
            "name": "C2",
            "ticks": 32160,
            "time": 128.64,
            "velocity": 0.6850393700787402
          },
          {
            "duration": 0.09199999999998454,
            "durationTicks": 23,
            "midi": 42,
            "name": "F#2",
            "ticks": 32220,
            "time": 128.88,
            "velocity": 0.5433070866141733
          },
          {
            "duration": 0.103999999999985,
            "durationTicks": 26,
            "midi": 42,
            "name": "F#2",
            "ticks": 32280,
            "time": 129.12,
            "velocity": 0.6614173228346457
          },
          {
            "duration": 0.3079999999999927,
            "durationTicks": 77,
            "midi": 40,
            "name": "E2",
            "ticks": 32280,
            "time": 129.12,
            "velocity": 0.4645669291338583
          },
          {
            "duration": 0.13999999999998636,
            "durationTicks": 35,
            "midi": 36,
            "name": "C2",
            "ticks": 32280,
            "time": 129.12,
            "velocity": 0.6614173228346457
          },
          {
            "duration": 0.08400000000000318,
            "durationTicks": 21,
            "midi": 42,
            "name": "F#2",
            "ticks": 32340,
            "time": 129.35999999999999,
            "velocity": 0.5433070866141733
          },
          {
            "duration": 0.09600000000000364,
            "durationTicks": 24,
            "midi": 42,
            "name": "F#2",
            "ticks": 32400,
            "time": 129.6,
            "velocity": 0.6614173228346457
          },
          {
            "duration": 0.12000000000000455,
            "durationTicks": 30,
            "midi": 36,
            "name": "C2",
            "ticks": 32400,
            "time": 129.6,
            "velocity": 0.6614173228346457
          },
          {
            "duration": 0.0759999999999934,
            "durationTicks": 19,
            "midi": 42,
            "name": "F#2",
            "ticks": 32460,
            "time": 129.84,
            "velocity": 0.5905511811023622
          },
          {
            "duration": 0.21999999999999886,
            "durationTicks": 55,
            "midi": 40,
            "name": "E2",
            "ticks": 32520,
            "time": 130.07999999999998,
            "velocity": 0.4645669291338583
          },
          {
            "duration": 0.11200000000002319,
            "durationTicks": 28,
            "midi": 42,
            "name": "F#2",
            "ticks": 32520,
            "time": 130.07999999999998,
            "velocity": 0.5905511811023622
          },
          {
            "duration": 0.103999999999985,
            "durationTicks": 26,
            "midi": 36,
            "name": "C2",
            "ticks": 32520,
            "time": 130.07999999999998,
            "velocity": 0.7874015748031497
          },
          {
            "duration": 0.08400000000000318,
            "durationTicks": 21,
            "midi": 46,
            "name": "A#2",
            "ticks": 32580,
            "time": 130.32,
            "velocity": 0.7874015748031497
          },
          {
            "duration": 0.09999999999999432,
            "durationTicks": 25,
            "midi": 42,
            "name": "F#2",
            "ticks": 32640,
            "time": 130.56,
            "velocity": 0.6850393700787402
          },
          {
            "duration": 0.1519999999999868,
            "durationTicks": 38,
            "midi": 36,
            "name": "C2",
            "ticks": 32640,
            "time": 130.56,
            "velocity": 0.6850393700787402
          },
          {
            "duration": 0.09200000000001296,
            "durationTicks": 23,
            "midi": 42,
            "name": "F#2",
            "ticks": 32700,
            "time": 130.79999999999998,
            "velocity": 0.5433070866141733
          },
          {
            "duration": 0.103999999999985,
            "durationTicks": 26,
            "midi": 42,
            "name": "F#2",
            "ticks": 32760,
            "time": 131.04,
            "velocity": 0.6614173228346457
          },
          {
            "duration": 0.3079999999999927,
            "durationTicks": 77,
            "midi": 40,
            "name": "E2",
            "ticks": 32760,
            "time": 131.04,
            "velocity": 0.4645669291338583
          },
          {
            "duration": 0.14000000000001478,
            "durationTicks": 35,
            "midi": 36,
            "name": "C2",
            "ticks": 32760,
            "time": 131.04,
            "velocity": 0.6614173228346457
          },
          {
            "duration": 0.08400000000000318,
            "durationTicks": 21,
            "midi": 42,
            "name": "F#2",
            "ticks": 32820,
            "time": 131.28,
            "velocity": 0.5433070866141733
          },
          {
            "duration": 0.09600000000000364,
            "durationTicks": 24,
            "midi": 42,
            "name": "F#2",
            "ticks": 32880,
            "time": 131.51999999999998,
            "velocity": 0.6614173228346457
          },
          {
            "duration": 0.12000000000000455,
            "durationTicks": 30,
            "midi": 36,
            "name": "C2",
            "ticks": 32880,
            "time": 131.51999999999998,
            "velocity": 0.6614173228346457
          },
          {
            "duration": 0.1599999999999966,
            "durationTicks": 40,
            "midi": 54,
            "name": "F#3",
            "ticks": 32940,
            "time": 131.76,
            "velocity": 0.6614173228346457
          },
          {
            "duration": 0.07600000000002183,
            "durationTicks": 19,
            "midi": 42,
            "name": "F#2",
            "ticks": 32940,
            "time": 131.76,
            "velocity": 0.5905511811023622
          },
          {
            "duration": 0.21999999999999886,
            "durationTicks": 55,
            "midi": 40,
            "name": "E2",
            "ticks": 33000,
            "time": 132,
            "velocity": 0.4645669291338583
          },
          {
            "duration": 0.11199999999999477,
            "durationTicks": 28,
            "midi": 42,
            "name": "F#2",
            "ticks": 33000,
            "time": 132,
            "velocity": 0.5905511811023622
          },
          {
            "duration": 0.103999999999985,
            "durationTicks": 26,
            "midi": 36,
            "name": "C2",
            "ticks": 33000,
            "time": 132,
            "velocity": 0.7874015748031497
          },
          {
            "duration": 0.08400000000000318,
            "durationTicks": 21,
            "midi": 46,
            "name": "A#2",
            "ticks": 33060,
            "time": 132.24,
            "velocity": 0.7874015748031497
          },
          {
            "duration": 0.09999999999999432,
            "durationTicks": 25,
            "midi": 42,
            "name": "F#2",
            "ticks": 33120,
            "time": 132.48,
            "velocity": 0.6850393700787402
          },
          {
            "duration": 0.15200000000001523,
            "durationTicks": 38,
            "midi": 36,
            "name": "C2",
            "ticks": 33120,
            "time": 132.48,
            "velocity": 0.6850393700787402
          },
          {
            "duration": 0.09199999999998454,
            "durationTicks": 23,
            "midi": 42,
            "name": "F#2",
            "ticks": 33180,
            "time": 132.72,
            "velocity": 0.5433070866141733
          },
          {
            "duration": 0.103999999999985,
            "durationTicks": 26,
            "midi": 42,
            "name": "F#2",
            "ticks": 33240,
            "time": 132.96,
            "velocity": 0.6614173228346457
          },
          {
            "duration": 0.3079999999999927,
            "durationTicks": 77,
            "midi": 40,
            "name": "E2",
            "ticks": 33240,
            "time": 132.96,
            "velocity": 0.4645669291338583
          },
          {
            "duration": 0.13999999999998636,
            "durationTicks": 35,
            "midi": 36,
            "name": "C2",
            "ticks": 33240,
            "time": 132.96,
            "velocity": 0.6614173228346457
          },
          {
            "duration": 0.08400000000000318,
            "durationTicks": 21,
            "midi": 42,
            "name": "F#2",
            "ticks": 33300,
            "time": 133.2,
            "velocity": 0.5433070866141733
          },
          {
            "duration": 0.09600000000000364,
            "durationTicks": 24,
            "midi": 42,
            "name": "F#2",
            "ticks": 33360,
            "time": 133.44,
            "velocity": 0.6614173228346457
          },
          {
            "duration": 0.12000000000000455,
            "durationTicks": 30,
            "midi": 36,
            "name": "C2",
            "ticks": 33360,
            "time": 133.44,
            "velocity": 0.6614173228346457
          },
          {
            "duration": 0.11199999999999477,
            "durationTicks": 28,
            "midi": 54,
            "name": "F#3",
            "ticks": 33420,
            "time": 133.68,
            "velocity": 0.6220472440944882
          },
          {
            "duration": 0.0759999999999934,
            "durationTicks": 19,
            "midi": 42,
            "name": "F#2",
            "ticks": 33420,
            "time": 133.68,
            "velocity": 0.5905511811023622
          },
          {
            "duration": 0.21999999999999886,
            "durationTicks": 55,
            "midi": 40,
            "name": "E2",
            "ticks": 33480,
            "time": 133.92,
            "velocity": 0.4645669291338583
          },
          {
            "duration": 0.11200000000002319,
            "durationTicks": 28,
            "midi": 42,
            "name": "F#2",
            "ticks": 33480,
            "time": 133.92,
            "velocity": 0.5905511811023622
          },
          {
            "duration": 0.103999999999985,
            "durationTicks": 26,
            "midi": 36,
            "name": "C2",
            "ticks": 33480,
            "time": 133.92,
            "velocity": 0.7874015748031497
          },
          {
            "duration": 0.08400000000000318,
            "durationTicks": 21,
            "midi": 46,
            "name": "A#2",
            "ticks": 33540,
            "time": 134.16,
            "velocity": 0.7874015748031497
          },
          {
            "duration": 0.09999999999999432,
            "durationTicks": 25,
            "midi": 42,
            "name": "F#2",
            "ticks": 33600,
            "time": 134.4,
            "velocity": 0.6850393700787402
          },
          {
            "duration": 0.1519999999999868,
            "durationTicks": 38,
            "midi": 36,
            "name": "C2",
            "ticks": 33600,
            "time": 134.4,
            "velocity": 0.6850393700787402
          },
          {
            "duration": 0.09200000000001296,
            "durationTicks": 23,
            "midi": 42,
            "name": "F#2",
            "ticks": 33660,
            "time": 134.64,
            "velocity": 0.5433070866141733
          },
          {
            "duration": 0.103999999999985,
            "durationTicks": 26,
            "midi": 42,
            "name": "F#2",
            "ticks": 33720,
            "time": 134.88,
            "velocity": 0.6614173228346457
          },
          {
            "duration": 0.3079999999999927,
            "durationTicks": 77,
            "midi": 40,
            "name": "E2",
            "ticks": 33720,
            "time": 134.88,
            "velocity": 0.4645669291338583
          },
          {
            "duration": 0.14000000000001478,
            "durationTicks": 35,
            "midi": 36,
            "name": "C2",
            "ticks": 33720,
            "time": 134.88,
            "velocity": 0.6614173228346457
          },
          {
            "duration": 0.08400000000000318,
            "durationTicks": 21,
            "midi": 42,
            "name": "F#2",
            "ticks": 33780,
            "time": 135.12,
            "velocity": 0.5433070866141733
          },
          {
            "duration": 0.09600000000000364,
            "durationTicks": 24,
            "midi": 42,
            "name": "F#2",
            "ticks": 33840,
            "time": 135.35999999999999,
            "velocity": 0.6614173228346457
          },
          {
            "duration": 0.12000000000000455,
            "durationTicks": 30,
            "midi": 36,
            "name": "C2",
            "ticks": 33840,
            "time": 135.35999999999999,
            "velocity": 0.6614173228346457
          },
          {
            "duration": 0.11600000000001387,
            "durationTicks": 29,
            "midi": 54,
            "name": "F#3",
            "ticks": 33900,
            "time": 135.6,
            "velocity": 0.5905511811023622
          },
          {
            "duration": 0.07600000000002183,
            "durationTicks": 19,
            "midi": 42,
            "name": "F#2",
            "ticks": 33900,
            "time": 135.6,
            "velocity": 0.5905511811023622
          },
          {
            "duration": 0.21999999999997044,
            "durationTicks": 55,
            "midi": 40,
            "name": "E2",
            "ticks": 33960,
            "time": 135.84,
            "velocity": 0.4645669291338583
          },
          {
            "duration": 0.11199999999999477,
            "durationTicks": 28,
            "midi": 42,
            "name": "F#2",
            "ticks": 33960,
            "time": 135.84,
            "velocity": 0.5905511811023622
          },
          {
            "duration": 0.103999999999985,
            "durationTicks": 26,
            "midi": 36,
            "name": "C2",
            "ticks": 33960,
            "time": 135.84,
            "velocity": 0.7874015748031497
          },
          {
            "duration": 0.08400000000000318,
            "durationTicks": 21,
            "midi": 46,
            "name": "A#2",
            "ticks": 34020,
            "time": 136.07999999999998,
            "velocity": 0.7874015748031497
          },
          {
            "duration": 0.09999999999999432,
            "durationTicks": 25,
            "midi": 42,
            "name": "F#2",
            "ticks": 34080,
            "time": 136.32,
            "velocity": 0.6850393700787402
          },
          {
            "duration": 0.1519999999999868,
            "durationTicks": 38,
            "midi": 36,
            "name": "C2",
            "ticks": 34080,
            "time": 136.32,
            "velocity": 0.6850393700787402
          },
          {
            "duration": 0.09199999999998454,
            "durationTicks": 23,
            "midi": 42,
            "name": "F#2",
            "ticks": 34140,
            "time": 136.56,
            "velocity": 0.5433070866141733
          },
          {
            "duration": 0.10400000000001342,
            "durationTicks": 26,
            "midi": 42,
            "name": "F#2",
            "ticks": 34200,
            "time": 136.79999999999998,
            "velocity": 0.6614173228346457
          },
          {
            "duration": 0.3079999999999927,
            "durationTicks": 77,
            "midi": 40,
            "name": "E2",
            "ticks": 34200,
            "time": 136.79999999999998,
            "velocity": 0.4645669291338583
          },
          {
            "duration": 0.14000000000001478,
            "durationTicks": 35,
            "midi": 36,
            "name": "C2",
            "ticks": 34200,
            "time": 136.79999999999998,
            "velocity": 0.6614173228346457
          },
          {
            "duration": 0.08400000000000318,
            "durationTicks": 21,
            "midi": 42,
            "name": "F#2",
            "ticks": 34260,
            "time": 137.04,
            "velocity": 0.5433070866141733
          },
          {
            "duration": 0.09599999999997522,
            "durationTicks": 24,
            "midi": 42,
            "name": "F#2",
            "ticks": 34320,
            "time": 137.28,
            "velocity": 0.6614173228346457
          },
          {
            "duration": 0.12000000000000455,
            "durationTicks": 30,
            "midi": 36,
            "name": "C2",
            "ticks": 34320,
            "time": 137.28,
            "velocity": 0.6614173228346457
          },
          {
            "duration": 0.09999999999999432,
            "durationTicks": 25,
            "midi": 54,
            "name": "F#3",
            "ticks": 34380,
            "time": 137.51999999999998,
            "velocity": 0.6614173228346457
          },
          {
            "duration": 0.07600000000002183,
            "durationTicks": 19,
            "midi": 42,
            "name": "F#2",
            "ticks": 34380,
            "time": 137.51999999999998,
            "velocity": 0.5905511811023622
          },
          {
            "duration": 0.21999999999999886,
            "durationTicks": 55,
            "midi": 40,
            "name": "E2",
            "ticks": 34440,
            "time": 137.76,
            "velocity": 0.4645669291338583
          },
          {
            "duration": 0.11200000000002319,
            "durationTicks": 28,
            "midi": 42,
            "name": "F#2",
            "ticks": 34440,
            "time": 137.76,
            "velocity": 0.5905511811023622
          },
          {
            "duration": 0.103999999999985,
            "durationTicks": 26,
            "midi": 36,
            "name": "C2",
            "ticks": 34440,
            "time": 137.76,
            "velocity": 0.7874015748031497
          },
          {
            "duration": 0.08400000000000318,
            "durationTicks": 21,
            "midi": 46,
            "name": "A#2",
            "ticks": 34500,
            "time": 138,
            "velocity": 0.7874015748031497
          },
          {
            "duration": 0.0999999999999659,
            "durationTicks": 25,
            "midi": 42,
            "name": "F#2",
            "ticks": 34560,
            "time": 138.24,
            "velocity": 0.6850393700787402
          },
          {
            "duration": 0.1519999999999868,
            "durationTicks": 38,
            "midi": 36,
            "name": "C2",
            "ticks": 34560,
            "time": 138.24,
            "velocity": 0.6850393700787402
          },
          {
            "duration": 0.09200000000001296,
            "durationTicks": 23,
            "midi": 42,
            "name": "F#2",
            "ticks": 34620,
            "time": 138.48,
            "velocity": 0.5433070866141733
          },
          {
            "duration": 0.103999999999985,
            "durationTicks": 26,
            "midi": 42,
            "name": "F#2",
            "ticks": 34680,
            "time": 138.72,
            "velocity": 0.6614173228346457
          },
          {
            "duration": 0.3079999999999927,
            "durationTicks": 77,
            "midi": 40,
            "name": "E2",
            "ticks": 34680,
            "time": 138.72,
            "velocity": 0.4645669291338583
          },
          {
            "duration": 0.14000000000001478,
            "durationTicks": 35,
            "midi": 36,
            "name": "C2",
            "ticks": 34680,
            "time": 138.72,
            "velocity": 0.6614173228346457
          },
          {
            "duration": 0.08400000000000318,
            "durationTicks": 21,
            "midi": 42,
            "name": "F#2",
            "ticks": 34740,
            "time": 138.96,
            "velocity": 0.5433070866141733
          },
          {
            "duration": 0.09600000000000364,
            "durationTicks": 24,
            "midi": 42,
            "name": "F#2",
            "ticks": 34800,
            "time": 139.2,
            "velocity": 0.6614173228346457
          },
          {
            "duration": 0.12000000000000455,
            "durationTicks": 30,
            "midi": 36,
            "name": "C2",
            "ticks": 34800,
            "time": 139.2,
            "velocity": 0.6614173228346457
          },
          {
            "duration": 0.21999999999999886,
            "durationTicks": 55,
            "midi": 54,
            "name": "F#3",
            "ticks": 34860,
            "time": 139.44,
            "velocity": 0.6614173228346457
          },
          {
            "duration": 0.07600000000002183,
            "durationTicks": 19,
            "midi": 42,
            "name": "F#2",
            "ticks": 34860,
            "time": 139.44,
            "velocity": 0.5905511811023622
          },
          {
            "duration": 0.21999999999997044,
            "durationTicks": 55,
            "midi": 40,
            "name": "E2",
            "ticks": 34920,
            "time": 139.68,
            "velocity": 0.4645669291338583
          },
          {
            "duration": 0.11199999999999477,
            "durationTicks": 28,
            "midi": 42,
            "name": "F#2",
            "ticks": 34920,
            "time": 139.68,
            "velocity": 0.5905511811023622
          },
          {
            "duration": 0.103999999999985,
            "durationTicks": 26,
            "midi": 36,
            "name": "C2",
            "ticks": 34920,
            "time": 139.68,
            "velocity": 0.7874015748031497
          },
          {
            "duration": 0.08400000000000318,
            "durationTicks": 21,
            "midi": 46,
            "name": "A#2",
            "ticks": 34980,
            "time": 139.92,
            "velocity": 0.7874015748031497
          },
          {
            "duration": 0.09999999999999432,
            "durationTicks": 25,
            "midi": 42,
            "name": "F#2",
            "ticks": 35040,
            "time": 140.16,
            "velocity": 0.6850393700787402
          },
          {
            "duration": 0.1519999999999868,
            "durationTicks": 38,
            "midi": 36,
            "name": "C2",
            "ticks": 35040,
            "time": 140.16,
            "velocity": 0.6850393700787402
          },
          {
            "duration": 0.09199999999998454,
            "durationTicks": 23,
            "midi": 42,
            "name": "F#2",
            "ticks": 35100,
            "time": 140.4,
            "velocity": 0.5433070866141733
          },
          {
            "duration": 0.103999999999985,
            "durationTicks": 26,
            "midi": 42,
            "name": "F#2",
            "ticks": 35160,
            "time": 140.64,
            "velocity": 0.6614173228346457
          },
          {
            "duration": 0.3079999999999927,
            "durationTicks": 77,
            "midi": 40,
            "name": "E2",
            "ticks": 35160,
            "time": 140.64,
            "velocity": 0.4645669291338583
          },
          {
            "duration": 0.14000000000001478,
            "durationTicks": 35,
            "midi": 36,
            "name": "C2",
            "ticks": 35160,
            "time": 140.64,
            "velocity": 0.6614173228346457
          },
          {
            "duration": 0.08400000000000318,
            "durationTicks": 21,
            "midi": 42,
            "name": "F#2",
            "ticks": 35220,
            "time": 140.88,
            "velocity": 0.5433070866141733
          },
          {
            "duration": 0.09599999999997522,
            "durationTicks": 24,
            "midi": 42,
            "name": "F#2",
            "ticks": 35280,
            "time": 141.12,
            "velocity": 0.6614173228346457
          },
          {
            "duration": 0.11999999999997613,
            "durationTicks": 30,
            "midi": 36,
            "name": "C2",
            "ticks": 35280,
            "time": 141.12,
            "velocity": 0.6614173228346457
          },
          {
            "duration": 0.20000000000001705,
            "durationTicks": 50,
            "midi": 54,
            "name": "F#3",
            "ticks": 35340,
            "time": 141.35999999999999,
            "velocity": 0.5905511811023622
          },
          {
            "duration": 0.07600000000002183,
            "durationTicks": 19,
            "midi": 42,
            "name": "F#2",
            "ticks": 35340,
            "time": 141.35999999999999,
            "velocity": 0.5905511811023622
          },
          {
            "duration": 0.21999999999999886,
            "durationTicks": 55,
            "midi": 40,
            "name": "E2",
            "ticks": 35400,
            "time": 141.6,
            "velocity": 0.4645669291338583
          },
          {
            "duration": 0.11199999999999477,
            "durationTicks": 28,
            "midi": 42,
            "name": "F#2",
            "ticks": 35400,
            "time": 141.6,
            "velocity": 0.5905511811023622
          },
          {
            "duration": 0.103999999999985,
            "durationTicks": 26,
            "midi": 36,
            "name": "C2",
            "ticks": 35400,
            "time": 141.6,
            "velocity": 0.7874015748031497
          },
          {
            "duration": 0.08400000000000318,
            "durationTicks": 21,
            "midi": 46,
            "name": "A#2",
            "ticks": 35460,
            "time": 141.84,
            "velocity": 0.7874015748031497
          },
          {
            "duration": 0.09999999999999432,
            "durationTicks": 25,
            "midi": 42,
            "name": "F#2",
            "ticks": 35520,
            "time": 142.07999999999998,
            "velocity": 0.6850393700787402
          },
          {
            "duration": 0.15200000000001523,
            "durationTicks": 38,
            "midi": 36,
            "name": "C2",
            "ticks": 35520,
            "time": 142.07999999999998,
            "velocity": 0.6850393700787402
          },
          {
            "duration": 0.09200000000001296,
            "durationTicks": 23,
            "midi": 42,
            "name": "F#2",
            "ticks": 35580,
            "time": 142.32,
            "velocity": 0.5433070866141733
          },
          {
            "duration": 0.103999999999985,
            "durationTicks": 26,
            "midi": 42,
            "name": "F#2",
            "ticks": 35640,
            "time": 142.56,
            "velocity": 0.6614173228346457
          },
          {
            "duration": 0.3079999999999927,
            "durationTicks": 77,
            "midi": 40,
            "name": "E2",
            "ticks": 35640,
            "time": 142.56,
            "velocity": 0.4645669291338583
          },
          {
            "duration": 0.14000000000001478,
            "durationTicks": 35,
            "midi": 36,
            "name": "C2",
            "ticks": 35640,
            "time": 142.56,
            "velocity": 0.6614173228346457
          },
          {
            "duration": 0.08400000000000318,
            "durationTicks": 21,
            "midi": 42,
            "name": "F#2",
            "ticks": 35700,
            "time": 142.79999999999998,
            "velocity": 0.5433070866141733
          },
          {
            "duration": 0.09600000000000364,
            "durationTicks": 24,
            "midi": 42,
            "name": "F#2",
            "ticks": 35760,
            "time": 143.04,
            "velocity": 0.6614173228346457
          },
          {
            "duration": 0.12000000000000455,
            "durationTicks": 30,
            "midi": 36,
            "name": "C2",
            "ticks": 35760,
            "time": 143.04,
            "velocity": 0.6614173228346457
          },
          {
            "duration": 0.20400000000000773,
            "durationTicks": 51,
            "midi": 54,
            "name": "F#3",
            "ticks": 35820,
            "time": 143.28,
            "velocity": 0.6614173228346457
          },
          {
            "duration": 0.0759999999999934,
            "durationTicks": 19,
            "midi": 42,
            "name": "F#2",
            "ticks": 35820,
            "time": 143.28,
            "velocity": 0.5905511811023622
          },
          {
            "duration": 0.21999999999999886,
            "durationTicks": 55,
            "midi": 40,
            "name": "E2",
            "ticks": 35880,
            "time": 143.51999999999998,
            "velocity": 0.4645669291338583
          },
          {
            "duration": 0.11200000000002319,
            "durationTicks": 28,
            "midi": 42,
            "name": "F#2",
            "ticks": 35880,
            "time": 143.51999999999998,
            "velocity": 0.5905511811023622
          },
          {
            "duration": 0.10400000000001342,
            "durationTicks": 26,
            "midi": 36,
            "name": "C2",
            "ticks": 35880,
            "time": 143.51999999999998,
            "velocity": 0.7874015748031497
          },
          {
            "duration": 0.08400000000000318,
            "durationTicks": 21,
            "midi": 46,
            "name": "A#2",
            "ticks": 35940,
            "time": 143.76,
            "velocity": 0.7874015748031497
          },
          {
            "duration": 0.09999999999999432,
            "durationTicks": 25,
            "midi": 42,
            "name": "F#2",
            "ticks": 36000,
            "time": 144,
            "velocity": 0.6850393700787402
          },
          {
            "duration": 0.1519999999999868,
            "durationTicks": 38,
            "midi": 36,
            "name": "C2",
            "ticks": 36000,
            "time": 144,
            "velocity": 0.6850393700787402
          },
          {
            "duration": 0.09200000000001296,
            "durationTicks": 23,
            "midi": 42,
            "name": "F#2",
            "ticks": 36060,
            "time": 144.23999999999998,
            "velocity": 0.5433070866141733
          },
          {
            "duration": 0.103999999999985,
            "durationTicks": 26,
            "midi": 42,
            "name": "F#2",
            "ticks": 36120,
            "time": 144.48,
            "velocity": 0.6614173228346457
          },
          {
            "duration": 0.3079999999999927,
            "durationTicks": 77,
            "midi": 40,
            "name": "E2",
            "ticks": 36120,
            "time": 144.48,
            "velocity": 0.4645669291338583
          },
          {
            "duration": 0.14000000000001478,
            "durationTicks": 35,
            "midi": 36,
            "name": "C2",
            "ticks": 36120,
            "time": 144.48,
            "velocity": 0.6614173228346457
          },
          {
            "duration": 0.08400000000000318,
            "durationTicks": 21,
            "midi": 42,
            "name": "F#2",
            "ticks": 36180,
            "time": 144.72,
            "velocity": 0.5433070866141733
          },
          {
            "duration": 0.09599999999997522,
            "durationTicks": 24,
            "midi": 42,
            "name": "F#2",
            "ticks": 36240,
            "time": 144.96,
            "velocity": 0.6614173228346457
          },
          {
            "duration": 0.11999999999997613,
            "durationTicks": 30,
            "midi": 36,
            "name": "C2",
            "ticks": 36240,
            "time": 144.96,
            "velocity": 0.6614173228346457
          },
          {
            "duration": 0.2120000000000175,
            "durationTicks": 53,
            "midi": 54,
            "name": "F#3",
            "ticks": 36300,
            "time": 145.2,
            "velocity": 0.6220472440944882
          },
          {
            "duration": 0.07600000000002183,
            "durationTicks": 19,
            "midi": 42,
            "name": "F#2",
            "ticks": 36300,
            "time": 145.2,
            "velocity": 0.5905511811023622
          },
          {
            "duration": 0.21999999999999886,
            "durationTicks": 55,
            "midi": 40,
            "name": "E2",
            "ticks": 36360,
            "time": 145.44,
            "velocity": 0.4645669291338583
          },
          {
            "duration": 0.11199999999999477,
            "durationTicks": 28,
            "midi": 42,
            "name": "F#2",
            "ticks": 36360,
            "time": 145.44,
            "velocity": 0.5905511811023622
          },
          {
            "duration": 0.103999999999985,
            "durationTicks": 26,
            "midi": 36,
            "name": "C2",
            "ticks": 36360,
            "time": 145.44,
            "velocity": 0.7874015748031497
          },
          {
            "duration": 0.08400000000000318,
            "durationTicks": 21,
            "midi": 46,
            "name": "A#2",
            "ticks": 36420,
            "time": 145.68,
            "velocity": 0.7874015748031497
          },
          {
            "duration": 0.09999999999999432,
            "durationTicks": 25,
            "midi": 42,
            "name": "F#2",
            "ticks": 36480,
            "time": 145.92,
            "velocity": 0.6850393700787402
          },
          {
            "duration": 0.15200000000001523,
            "durationTicks": 38,
            "midi": 36,
            "name": "C2",
            "ticks": 36480,
            "time": 145.92,
            "velocity": 0.6850393700787402
          },
          {
            "duration": 0.09199999999998454,
            "durationTicks": 23,
            "midi": 42,
            "name": "F#2",
            "ticks": 36540,
            "time": 146.16,
            "velocity": 0.5433070866141733
          },
          {
            "duration": 0.103999999999985,
            "durationTicks": 26,
            "midi": 42,
            "name": "F#2",
            "ticks": 36600,
            "time": 146.4,
            "velocity": 0.6614173228346457
          },
          {
            "duration": 0.3079999999999927,
            "durationTicks": 77,
            "midi": 40,
            "name": "E2",
            "ticks": 36600,
            "time": 146.4,
            "velocity": 0.4645669291338583
          },
          {
            "duration": 0.13999999999998636,
            "durationTicks": 35,
            "midi": 36,
            "name": "C2",
            "ticks": 36600,
            "time": 146.4,
            "velocity": 0.6614173228346457
          },
          {
            "duration": 0.08400000000000318,
            "durationTicks": 21,
            "midi": 42,
            "name": "F#2",
            "ticks": 36660,
            "time": 146.64,
            "velocity": 0.5433070866141733
          },
          {
            "duration": 0.09600000000000364,
            "durationTicks": 24,
            "midi": 42,
            "name": "F#2",
            "ticks": 36720,
            "time": 146.88,
            "velocity": 0.6614173228346457
          },
          {
            "duration": 0.12000000000000455,
            "durationTicks": 30,
            "midi": 36,
            "name": "C2",
            "ticks": 36720,
            "time": 146.88,
            "velocity": 0.6614173228346457
          },
          {
            "duration": 0.21599999999997976,
            "durationTicks": 54,
            "midi": 54,
            "name": "F#3",
            "ticks": 36780,
            "time": 147.12,
            "velocity": 0.6614173228346457
          },
          {
            "duration": 0.0759999999999934,
            "durationTicks": 19,
            "midi": 42,
            "name": "F#2",
            "ticks": 36780,
            "time": 147.12,
            "velocity": 0.5905511811023622
          },
          {
            "duration": 0.21999999999999886,
            "durationTicks": 55,
            "midi": 40,
            "name": "E2",
            "ticks": 36840,
            "time": 147.35999999999999,
            "velocity": 0.4645669291338583
          },
          {
            "duration": 0.11200000000002319,
            "durationTicks": 28,
            "midi": 42,
            "name": "F#2",
            "ticks": 36840,
            "time": 147.35999999999999,
            "velocity": 0.5905511811023622
          },
          {
            "duration": 0.103999999999985,
            "durationTicks": 26,
            "midi": 36,
            "name": "C2",
            "ticks": 36840,
            "time": 147.35999999999999,
            "velocity": 0.7874015748031497
          },
          {
            "duration": 0.08400000000000318,
            "durationTicks": 21,
            "midi": 46,
            "name": "A#2",
            "ticks": 36900,
            "time": 147.6,
            "velocity": 0.7874015748031497
          },
          {
            "duration": 0.09999999999999432,
            "durationTicks": 25,
            "midi": 42,
            "name": "F#2",
            "ticks": 36960,
            "time": 147.84,
            "velocity": 0.6850393700787402
          },
          {
            "duration": 0.1519999999999868,
            "durationTicks": 38,
            "midi": 36,
            "name": "C2",
            "ticks": 36960,
            "time": 147.84,
            "velocity": 0.6850393700787402
          },
          {
            "duration": 0.09200000000001296,
            "durationTicks": 23,
            "midi": 42,
            "name": "F#2",
            "ticks": 37020,
            "time": 148.07999999999998,
            "velocity": 0.5433070866141733
          },
          {
            "duration": 0.103999999999985,
            "durationTicks": 26,
            "midi": 42,
            "name": "F#2",
            "ticks": 37080,
            "time": 148.32,
            "velocity": 0.6614173228346457
          },
          {
            "duration": 0.3079999999999927,
            "durationTicks": 77,
            "midi": 40,
            "name": "E2",
            "ticks": 37080,
            "time": 148.32,
            "velocity": 0.4645669291338583
          },
          {
            "duration": 0.14000000000001478,
            "durationTicks": 35,
            "midi": 36,
            "name": "C2",
            "ticks": 37080,
            "time": 148.32,
            "velocity": 0.6614173228346457
          },
          {
            "duration": 0.08400000000000318,
            "durationTicks": 21,
            "midi": 42,
            "name": "F#2",
            "ticks": 37140,
            "time": 148.56,
            "velocity": 0.5433070866141733
          },
          {
            "duration": 0.09600000000000364,
            "durationTicks": 24,
            "midi": 42,
            "name": "F#2",
            "ticks": 37200,
            "time": 148.79999999999998,
            "velocity": 0.6614173228346457
          },
          {
            "duration": 0.12000000000000455,
            "durationTicks": 30,
            "midi": 36,
            "name": "C2",
            "ticks": 37200,
            "time": 148.79999999999998,
            "velocity": 0.6614173228346457
          },
          {
            "duration": 0.17199999999999704,
            "durationTicks": 43,
            "midi": 54,
            "name": "F#3",
            "ticks": 37260,
            "time": 149.04,
            "velocity": 0.5669291338582677
          },
          {
            "duration": 0.07600000000002183,
            "durationTicks": 19,
            "midi": 42,
            "name": "F#2",
            "ticks": 37260,
            "time": 149.04,
            "velocity": 0.5905511811023622
          },
          {
            "duration": 0.21999999999997044,
            "durationTicks": 55,
            "midi": 40,
            "name": "E2",
            "ticks": 37320,
            "time": 149.28,
            "velocity": 0.4645669291338583
          },
          {
            "duration": 0.11199999999999477,
            "durationTicks": 28,
            "midi": 42,
            "name": "F#2",
            "ticks": 37320,
            "time": 149.28,
            "velocity": 0.5905511811023622
          },
          {
            "duration": 0.103999999999985,
            "durationTicks": 26,
            "midi": 36,
            "name": "C2",
            "ticks": 37320,
            "time": 149.28,
            "velocity": 0.7874015748031497
          },
          {
            "duration": 0.0840000000000316,
            "durationTicks": 21,
            "midi": 46,
            "name": "A#2",
            "ticks": 37380,
            "time": 149.51999999999998,
            "velocity": 0.7874015748031497
          },
          {
            "duration": 0.09999999999999432,
            "durationTicks": 25,
            "midi": 42,
            "name": "F#2",
            "ticks": 37440,
            "time": 149.76,
            "velocity": 0.6850393700787402
          },
          {
            "duration": 0.15200000000001523,
            "durationTicks": 38,
            "midi": 36,
            "name": "C2",
            "ticks": 37440,
            "time": 149.76,
            "velocity": 0.6850393700787402
          },
          {
            "duration": 0.09199999999998454,
            "durationTicks": 23,
            "midi": 42,
            "name": "F#2",
            "ticks": 37500,
            "time": 150,
            "velocity": 0.5433070866141733
          },
          {
            "duration": 0.10400000000001342,
            "durationTicks": 26,
            "midi": 42,
            "name": "F#2",
            "ticks": 37560,
            "time": 150.23999999999998,
            "velocity": 0.6614173228346457
          },
          {
            "duration": 0.3079999999999927,
            "durationTicks": 77,
            "midi": 40,
            "name": "E2",
            "ticks": 37560,
            "time": 150.23999999999998,
            "velocity": 0.4645669291338583
          },
          {
            "duration": 0.14000000000001478,
            "durationTicks": 35,
            "midi": 36,
            "name": "C2",
            "ticks": 37560,
            "time": 150.23999999999998,
            "velocity": 0.6614173228346457
          },
          {
            "duration": 0.08400000000000318,
            "durationTicks": 21,
            "midi": 42,
            "name": "F#2",
            "ticks": 37620,
            "time": 150.48,
            "velocity": 0.5433070866141733
          },
          {
            "duration": 0.09600000000000364,
            "durationTicks": 24,
            "midi": 42,
            "name": "F#2",
            "ticks": 37680,
            "time": 150.72,
            "velocity": 0.6614173228346457
          },
          {
            "duration": 0.12000000000000455,
            "durationTicks": 30,
            "midi": 36,
            "name": "C2",
            "ticks": 37680,
            "time": 150.72,
            "velocity": 0.6614173228346457
          },
          {
            "duration": 0.23199999999999932,
            "durationTicks": 58,
            "midi": 54,
            "name": "F#3",
            "ticks": 37740,
            "time": 150.96,
            "velocity": 0.5905511811023622
          },
          {
            "duration": 0.0759999999999934,
            "durationTicks": 19,
            "midi": 42,
            "name": "F#2",
            "ticks": 37740,
            "time": 150.96,
            "velocity": 0.5905511811023622
          },
          {
            "duration": 0.21999999999999886,
            "durationTicks": 55,
            "midi": 40,
            "name": "E2",
            "ticks": 37800,
            "time": 151.2,
            "velocity": 0.4645669291338583
          },
          {
            "duration": 0.11200000000002319,
            "durationTicks": 28,
            "midi": 42,
            "name": "F#2",
            "ticks": 37800,
            "time": 151.2,
            "velocity": 0.5905511811023622
          },
          {
            "duration": 0.103999999999985,
            "durationTicks": 26,
            "midi": 36,
            "name": "C2",
            "ticks": 37800,
            "time": 151.2,
            "velocity": 0.7874015748031497
          },
          {
            "duration": 0.08400000000000318,
            "durationTicks": 21,
            "midi": 46,
            "name": "A#2",
            "ticks": 37860,
            "time": 151.44,
            "velocity": 0.7874015748031497
          },
          {
            "duration": 0.0999999999999659,
            "durationTicks": 25,
            "midi": 42,
            "name": "F#2",
            "ticks": 37920,
            "time": 151.68,
            "velocity": 0.6850393700787402
          },
          {
            "duration": 0.1519999999999868,
            "durationTicks": 38,
            "midi": 36,
            "name": "C2",
            "ticks": 37920,
            "time": 151.68,
            "velocity": 0.6850393700787402
          },
          {
            "duration": 0.09200000000001296,
            "durationTicks": 23,
            "midi": 42,
            "name": "F#2",
            "ticks": 37980,
            "time": 151.92,
            "velocity": 0.5433070866141733
          },
          {
            "duration": 0.103999999999985,
            "durationTicks": 26,
            "midi": 42,
            "name": "F#2",
            "ticks": 38040,
            "time": 152.16,
            "velocity": 0.6614173228346457
          },
          {
            "duration": 0.3079999999999927,
            "durationTicks": 77,
            "midi": 40,
            "name": "E2",
            "ticks": 38040,
            "time": 152.16,
            "velocity": 0.4645669291338583
          },
          {
            "duration": 0.14000000000001478,
            "durationTicks": 35,
            "midi": 36,
            "name": "C2",
            "ticks": 38040,
            "time": 152.16,
            "velocity": 0.6614173228346457
          },
          {
            "duration": 0.08400000000000318,
            "durationTicks": 21,
            "midi": 42,
            "name": "F#2",
            "ticks": 38100,
            "time": 152.4,
            "velocity": 0.5433070866141733
          },
          {
            "duration": 0.09600000000000364,
            "durationTicks": 24,
            "midi": 42,
            "name": "F#2",
            "ticks": 38160,
            "time": 152.64,
            "velocity": 0.6614173228346457
          },
          {
            "duration": 0.12000000000000455,
            "durationTicks": 30,
            "midi": 36,
            "name": "C2",
            "ticks": 38160,
            "time": 152.64,
            "velocity": 0.6614173228346457
          },
          {
            "duration": 0.07600000000002183,
            "durationTicks": 19,
            "midi": 42,
            "name": "F#2",
            "ticks": 38220,
            "time": 152.88,
            "velocity": 0.5905511811023622
          },
          {
            "duration": 0.19199999999997885,
            "durationTicks": 48,
            "midi": 54,
            "name": "F#3",
            "ticks": 38220,
            "time": 152.88,
            "velocity": 0.6614173228346457
          },
          {
            "duration": 0.21999999999997044,
            "durationTicks": 55,
            "midi": 40,
            "name": "E2",
            "ticks": 38280,
            "time": 153.12,
            "velocity": 0.4645669291338583
          },
          {
            "duration": 0.11199999999999477,
            "durationTicks": 28,
            "midi": 42,
            "name": "F#2",
            "ticks": 38280,
            "time": 153.12,
            "velocity": 0.5905511811023622
          },
          {
            "duration": 0.103999999999985,
            "durationTicks": 26,
            "midi": 36,
            "name": "C2",
            "ticks": 38280,
            "time": 153.12,
            "velocity": 0.7874015748031497
          },
          {
            "duration": 0.08400000000000318,
            "durationTicks": 21,
            "midi": 46,
            "name": "A#2",
            "ticks": 38340,
            "time": 153.35999999999999,
            "velocity": 0.7874015748031497
          },
          {
            "duration": 0.09999999999999432,
            "durationTicks": 25,
            "midi": 42,
            "name": "F#2",
            "ticks": 38400,
            "time": 153.6,
            "velocity": 0.6850393700787402
          },
          {
            "duration": 0.1519999999999868,
            "durationTicks": 38,
            "midi": 36,
            "name": "C2",
            "ticks": 38400,
            "time": 153.6,
            "velocity": 0.6850393700787402
          },
          {
            "duration": 0.09199999999998454,
            "durationTicks": 23,
            "midi": 42,
            "name": "F#2",
            "ticks": 38460,
            "time": 153.84,
            "velocity": 0.5433070866141733
          },
          {
            "duration": 0.103999999999985,
            "durationTicks": 26,
            "midi": 42,
            "name": "F#2",
            "ticks": 38520,
            "time": 154.07999999999998,
            "velocity": 0.6614173228346457
          },
          {
            "duration": 0.3079999999999927,
            "durationTicks": 77,
            "midi": 40,
            "name": "E2",
            "ticks": 38520,
            "time": 154.07999999999998,
            "velocity": 0.4645669291338583
          },
          {
            "duration": 0.14000000000001478,
            "durationTicks": 35,
            "midi": 36,
            "name": "C2",
            "ticks": 38520,
            "time": 154.07999999999998,
            "velocity": 0.6614173228346457
          },
          {
            "duration": 0.08400000000000318,
            "durationTicks": 21,
            "midi": 42,
            "name": "F#2",
            "ticks": 38580,
            "time": 154.32,
            "velocity": 0.5433070866141733
          },
          {
            "duration": 0.09599999999997522,
            "durationTicks": 24,
            "midi": 42,
            "name": "F#2",
            "ticks": 38640,
            "time": 154.56,
            "velocity": 0.6614173228346457
          },
          {
            "duration": 0.12000000000000455,
            "durationTicks": 30,
            "midi": 36,
            "name": "C2",
            "ticks": 38640,
            "time": 154.56,
            "velocity": 0.6614173228346457
          },
          {
            "duration": 0.2120000000000175,
            "durationTicks": 53,
            "midi": 54,
            "name": "F#3",
            "ticks": 38700,
            "time": 154.79999999999998,
            "velocity": 0.5905511811023622
          },
          {
            "duration": 0.07600000000002183,
            "durationTicks": 19,
            "midi": 42,
            "name": "F#2",
            "ticks": 38700,
            "time": 154.79999999999998,
            "velocity": 0.5905511811023622
          },
          {
            "duration": 0.21999999999999886,
            "durationTicks": 55,
            "midi": 40,
            "name": "E2",
            "ticks": 38760,
            "time": 155.04,
            "velocity": 0.4645669291338583
          },
          {
            "duration": 0.11200000000002319,
            "durationTicks": 28,
            "midi": 42,
            "name": "F#2",
            "ticks": 38760,
            "time": 155.04,
            "velocity": 0.5905511811023622
          },
          {
            "duration": 0.103999999999985,
            "durationTicks": 26,
            "midi": 36,
            "name": "C2",
            "ticks": 38760,
            "time": 155.04,
            "velocity": 0.7874015748031497
          },
          {
            "duration": 0.08400000000000318,
            "durationTicks": 21,
            "midi": 46,
            "name": "A#2",
            "ticks": 38820,
            "time": 155.28,
            "velocity": 0.7874015748031497
          },
          {
            "duration": 0.09999999999999432,
            "durationTicks": 25,
            "midi": 42,
            "name": "F#2",
            "ticks": 38880,
            "time": 155.51999999999998,
            "velocity": 0.6850393700787402
          },
          {
            "duration": 0.15200000000001523,
            "durationTicks": 38,
            "midi": 36,
            "name": "C2",
            "ticks": 38880,
            "time": 155.51999999999998,
            "velocity": 0.6850393700787402
          },
          {
            "duration": 0.09200000000001296,
            "durationTicks": 23,
            "midi": 42,
            "name": "F#2",
            "ticks": 38940,
            "time": 155.76,
            "velocity": 0.5433070866141733
          },
          {
            "duration": 0.103999999999985,
            "durationTicks": 26,
            "midi": 42,
            "name": "F#2",
            "ticks": 39000,
            "time": 156,
            "velocity": 0.6614173228346457
          },
          {
            "duration": 0.3079999999999927,
            "durationTicks": 77,
            "midi": 40,
            "name": "E2",
            "ticks": 39000,
            "time": 156,
            "velocity": 0.4645669291338583
          },
          {
            "duration": 0.14000000000001478,
            "durationTicks": 35,
            "midi": 36,
            "name": "C2",
            "ticks": 39000,
            "time": 156,
            "velocity": 0.6614173228346457
          },
          {
            "duration": 0.0840000000000316,
            "durationTicks": 21,
            "midi": 42,
            "name": "F#2",
            "ticks": 39060,
            "time": 156.23999999999998,
            "velocity": 0.5433070866141733
          },
          {
            "duration": 0.09600000000000364,
            "durationTicks": 24,
            "midi": 42,
            "name": "F#2",
            "ticks": 39120,
            "time": 156.48,
            "velocity": 0.6614173228346457
          },
          {
            "duration": 0.12000000000000455,
            "durationTicks": 30,
            "midi": 36,
            "name": "C2",
            "ticks": 39120,
            "time": 156.48,
            "velocity": 0.6614173228346457
          },
          {
            "duration": 0.20400000000000773,
            "durationTicks": 51,
            "midi": 54,
            "name": "F#3",
            "ticks": 39180,
            "time": 156.72,
            "velocity": 0.6850393700787402
          },
          {
            "duration": 0.07600000000002183,
            "durationTicks": 19,
            "midi": 42,
            "name": "F#2",
            "ticks": 39180,
            "time": 156.72,
            "velocity": 0.5905511811023622
          },
          {
            "duration": 0.21999999999997044,
            "durationTicks": 55,
            "midi": 40,
            "name": "E2",
            "ticks": 39240,
            "time": 156.96,
            "velocity": 0.4645669291338583
          },
          {
            "duration": 0.11199999999999477,
            "durationTicks": 28,
            "midi": 42,
            "name": "F#2",
            "ticks": 39240,
            "time": 156.96,
            "velocity": 0.5905511811023622
          },
          {
            "duration": 0.103999999999985,
            "durationTicks": 26,
            "midi": 36,
            "name": "C2",
            "ticks": 39240,
            "time": 156.96,
            "velocity": 0.7874015748031497
          },
          {
            "duration": 0.08400000000000318,
            "durationTicks": 21,
            "midi": 46,
            "name": "A#2",
            "ticks": 39300,
            "time": 157.2,
            "velocity": 0.7874015748031497
          },
          {
            "duration": 0.09999999999999432,
            "durationTicks": 25,
            "midi": 42,
            "name": "F#2",
            "ticks": 39360,
            "time": 157.44,
            "velocity": 0.6850393700787402
          },
          {
            "duration": 0.1519999999999868,
            "durationTicks": 38,
            "midi": 36,
            "name": "C2",
            "ticks": 39360,
            "time": 157.44,
            "velocity": 0.6850393700787402
          },
          {
            "duration": 0.09199999999998454,
            "durationTicks": 23,
            "midi": 42,
            "name": "F#2",
            "ticks": 39420,
            "time": 157.68,
            "velocity": 0.5433070866141733
          },
          {
            "duration": 0.103999999999985,
            "durationTicks": 26,
            "midi": 42,
            "name": "F#2",
            "ticks": 39480,
            "time": 157.92,
            "velocity": 0.6614173228346457
          },
          {
            "duration": 0.3079999999999927,
            "durationTicks": 77,
            "midi": 40,
            "name": "E2",
            "ticks": 39480,
            "time": 157.92,
            "velocity": 0.4645669291338583
          },
          {
            "duration": 0.14000000000001478,
            "durationTicks": 35,
            "midi": 36,
            "name": "C2",
            "ticks": 39480,
            "time": 157.92,
            "velocity": 0.6614173228346457
          },
          {
            "duration": 0.08400000000000318,
            "durationTicks": 21,
            "midi": 42,
            "name": "F#2",
            "ticks": 39540,
            "time": 158.16,
            "velocity": 0.5433070866141733
          },
          {
            "duration": 0.09599999999997522,
            "durationTicks": 24,
            "midi": 42,
            "name": "F#2",
            "ticks": 39600,
            "time": 158.4,
            "velocity": 0.6614173228346457
          },
          {
            "duration": 0.11999999999997613,
            "durationTicks": 30,
            "midi": 36,
            "name": "C2",
            "ticks": 39600,
            "time": 158.4,
            "velocity": 0.6614173228346457
          },
          {
            "duration": 0.23200000000002774,
            "durationTicks": 58,
            "midi": 54,
            "name": "F#3",
            "ticks": 39660,
            "time": 158.64,
            "velocity": 0.5905511811023622
          },
          {
            "duration": 0.07600000000002183,
            "durationTicks": 19,
            "midi": 42,
            "name": "F#2",
            "ticks": 39660,
            "time": 158.64,
            "velocity": 0.5905511811023622
          },
          {
            "duration": 0.21999999999999886,
            "durationTicks": 55,
            "midi": 40,
            "name": "E2",
            "ticks": 39720,
            "time": 158.88,
            "velocity": 0.4645669291338583
          },
          {
            "duration": 0.11199999999999477,
            "durationTicks": 28,
            "midi": 42,
            "name": "F#2",
            "ticks": 39720,
            "time": 158.88,
            "velocity": 0.5905511811023622
          },
          {
            "duration": 0.103999999999985,
            "durationTicks": 26,
            "midi": 36,
            "name": "C2",
            "ticks": 39720,
            "time": 158.88,
            "velocity": 0.7874015748031497
          },
          {
            "duration": 0.08400000000000318,
            "durationTicks": 21,
            "midi": 46,
            "name": "A#2",
            "ticks": 39780,
            "time": 159.12,
            "velocity": 0.7874015748031497
          },
          {
            "duration": 0.09999999999999432,
            "durationTicks": 25,
            "midi": 42,
            "name": "F#2",
            "ticks": 39840,
            "time": 159.35999999999999,
            "velocity": 0.6850393700787402
          },
          {
            "duration": 0.15200000000001523,
            "durationTicks": 38,
            "midi": 36,
            "name": "C2",
            "ticks": 39840,
            "time": 159.35999999999999,
            "velocity": 0.6850393700787402
          },
          {
            "duration": 0.09199999999998454,
            "durationTicks": 23,
            "midi": 42,
            "name": "F#2",
            "ticks": 39900,
            "time": 159.6,
            "velocity": 0.5433070866141733
          },
          {
            "duration": 0.103999999999985,
            "durationTicks": 26,
            "midi": 42,
            "name": "F#2",
            "ticks": 39960,
            "time": 159.84,
            "velocity": 0.6614173228346457
          },
          {
            "duration": 0.3079999999999927,
            "durationTicks": 77,
            "midi": 40,
            "name": "E2",
            "ticks": 39960,
            "time": 159.84,
            "velocity": 0.4645669291338583
          },
          {
            "duration": 0.13999999999998636,
            "durationTicks": 35,
            "midi": 36,
            "name": "C2",
            "ticks": 39960,
            "time": 159.84,
            "velocity": 0.6614173228346457
          },
          {
            "duration": 0.08400000000000318,
            "durationTicks": 21,
            "midi": 42,
            "name": "F#2",
            "ticks": 40020,
            "time": 160.07999999999998,
            "velocity": 0.5433070866141733
          },
          {
            "duration": 0.09600000000000364,
            "durationTicks": 24,
            "midi": 42,
            "name": "F#2",
            "ticks": 40080,
            "time": 160.32,
            "velocity": 0.6614173228346457
          },
          {
            "duration": 0.12000000000000455,
            "durationTicks": 30,
            "midi": 36,
            "name": "C2",
            "ticks": 40080,
            "time": 160.32,
            "velocity": 0.6614173228346457
          },
          {
            "duration": 0.24799999999999045,
            "durationTicks": 62,
            "midi": 54,
            "name": "F#3",
            "ticks": 40140,
            "time": 160.56,
            "velocity": 0.5905511811023622
          },
          {
            "duration": 0.0759999999999934,
            "durationTicks": 19,
            "midi": 42,
            "name": "F#2",
            "ticks": 40140,
            "time": 160.56,
            "velocity": 0.5905511811023622
          },
          {
            "duration": 0.21999999999999886,
            "durationTicks": 55,
            "midi": 40,
            "name": "E2",
            "ticks": 40200,
            "time": 160.79999999999998,
            "velocity": 0.4645669291338583
          },
          {
            "duration": 0.11200000000002319,
            "durationTicks": 28,
            "midi": 42,
            "name": "F#2",
            "ticks": 40200,
            "time": 160.79999999999998,
            "velocity": 0.5905511811023622
          },
          {
            "duration": 0.103999999999985,
            "durationTicks": 26,
            "midi": 36,
            "name": "C2",
            "ticks": 40200,
            "time": 160.79999999999998,
            "velocity": 0.7874015748031497
          },
          {
            "duration": 0.08400000000000318,
            "durationTicks": 21,
            "midi": 46,
            "name": "A#2",
            "ticks": 40260,
            "time": 161.04,
            "velocity": 0.7874015748031497
          },
          {
            "duration": 0.09999999999999432,
            "durationTicks": 25,
            "midi": 42,
            "name": "F#2",
            "ticks": 40320,
            "time": 161.28,
            "velocity": 0.6850393700787402
          },
          {
            "duration": 0.1519999999999868,
            "durationTicks": 38,
            "midi": 36,
            "name": "C2",
            "ticks": 40320,
            "time": 161.28,
            "velocity": 0.6850393700787402
          },
          {
            "duration": 0.09200000000001296,
            "durationTicks": 23,
            "midi": 42,
            "name": "F#2",
            "ticks": 40380,
            "time": 161.51999999999998,
            "velocity": 0.5433070866141733
          },
          {
            "duration": 0.103999999999985,
            "durationTicks": 26,
            "midi": 42,
            "name": "F#2",
            "ticks": 40440,
            "time": 161.76,
            "velocity": 0.6614173228346457
          },
          {
            "duration": 0.3079999999999927,
            "durationTicks": 77,
            "midi": 40,
            "name": "E2",
            "ticks": 40440,
            "time": 161.76,
            "velocity": 0.4645669291338583
          },
          {
            "duration": 0.14000000000001478,
            "durationTicks": 35,
            "midi": 36,
            "name": "C2",
            "ticks": 40440,
            "time": 161.76,
            "velocity": 0.6614173228346457
          },
          {
            "duration": 0.08400000000000318,
            "durationTicks": 21,
            "midi": 42,
            "name": "F#2",
            "ticks": 40500,
            "time": 162,
            "velocity": 0.5433070866141733
          },
          {
            "duration": 0.09600000000000364,
            "durationTicks": 24,
            "midi": 42,
            "name": "F#2",
            "ticks": 40560,
            "time": 162.23999999999998,
            "velocity": 0.6614173228346457
          },
          {
            "duration": 0.12000000000000455,
            "durationTicks": 30,
            "midi": 36,
            "name": "C2",
            "ticks": 40560,
            "time": 162.23999999999998,
            "velocity": 0.6614173228346457
          },
          {
            "duration": 0.24399999999999977,
            "durationTicks": 61,
            "midi": 54,
            "name": "F#3",
            "ticks": 40620,
            "time": 162.48,
            "velocity": 0.6614173228346457
          },
          {
            "duration": 0.07600000000002183,
            "durationTicks": 19,
            "midi": 42,
            "name": "F#2",
            "ticks": 40620,
            "time": 162.48,
            "velocity": 0.5905511811023622
          },
          {
            "duration": 0.21999999999999886,
            "durationTicks": 55,
            "midi": 40,
            "name": "E2",
            "ticks": 40680,
            "time": 162.72,
            "velocity": 0.4645669291338583
          },
          {
            "duration": 0.11199999999999477,
            "durationTicks": 28,
            "midi": 42,
            "name": "F#2",
            "ticks": 40680,
            "time": 162.72,
            "velocity": 0.5905511811023622
          },
          {
            "duration": 0.103999999999985,
            "durationTicks": 26,
            "midi": 36,
            "name": "C2",
            "ticks": 40680,
            "time": 162.72,
            "velocity": 0.7874015748031497
          },
          {
            "duration": 0.08400000000000318,
            "durationTicks": 21,
            "midi": 46,
            "name": "A#2",
            "ticks": 40740,
            "time": 162.96,
            "velocity": 0.7874015748031497
          },
          {
            "duration": 0.09999999999999432,
            "durationTicks": 25,
            "midi": 42,
            "name": "F#2",
            "ticks": 40800,
            "time": 163.2,
            "velocity": 0.6850393700787402
          },
          {
            "duration": 0.15200000000001523,
            "durationTicks": 38,
            "midi": 36,
            "name": "C2",
            "ticks": 40800,
            "time": 163.2,
            "velocity": 0.6850393700787402
          },
          {
            "duration": 0.09199999999998454,
            "durationTicks": 23,
            "midi": 42,
            "name": "F#2",
            "ticks": 40860,
            "time": 163.44,
            "velocity": 0.5433070866141733
          },
          {
            "duration": 0.103999999999985,
            "durationTicks": 26,
            "midi": 42,
            "name": "F#2",
            "ticks": 40920,
            "time": 163.68,
            "velocity": 0.6614173228346457
          },
          {
            "duration": 0.3079999999999927,
            "durationTicks": 77,
            "midi": 40,
            "name": "E2",
            "ticks": 40920,
            "time": 163.68,
            "velocity": 0.4645669291338583
          },
          {
            "duration": 0.13999999999998636,
            "durationTicks": 35,
            "midi": 36,
            "name": "C2",
            "ticks": 40920,
            "time": 163.68,
            "velocity": 0.6614173228346457
          },
          {
            "duration": 0.08400000000000318,
            "durationTicks": 21,
            "midi": 42,
            "name": "F#2",
            "ticks": 40980,
            "time": 163.92,
            "velocity": 0.5433070866141733
          },
          {
            "duration": 0.09600000000000364,
            "durationTicks": 24,
            "midi": 42,
            "name": "F#2",
            "ticks": 41040,
            "time": 164.16,
            "velocity": 0.6614173228346457
          },
          {
            "duration": 0.12000000000000455,
            "durationTicks": 30,
            "midi": 36,
            "name": "C2",
            "ticks": 41040,
            "time": 164.16,
            "velocity": 0.6614173228346457
          },
          {
            "duration": 0.21599999999997976,
            "durationTicks": 54,
            "midi": 54,
            "name": "F#3",
            "ticks": 41100,
            "time": 164.4,
            "velocity": 0.6850393700787402
          },
          {
            "duration": 0.0759999999999934,
            "durationTicks": 19,
            "midi": 42,
            "name": "F#2",
            "ticks": 41100,
            "time": 164.4,
            "velocity": 0.5905511811023622
          },
          {
            "duration": 0.21999999999999886,
            "durationTicks": 55,
            "midi": 40,
            "name": "E2",
            "ticks": 41160,
            "time": 164.64,
            "velocity": 0.4645669291338583
          },
          {
            "duration": 0.11200000000002319,
            "durationTicks": 28,
            "midi": 42,
            "name": "F#2",
            "ticks": 41160,
            "time": 164.64,
            "velocity": 0.5905511811023622
          },
          {
            "duration": 0.103999999999985,
            "durationTicks": 26,
            "midi": 36,
            "name": "C2",
            "ticks": 41160,
            "time": 164.64,
            "velocity": 0.7874015748031497
          },
          {
            "duration": 0.08400000000000318,
            "durationTicks": 21,
            "midi": 46,
            "name": "A#2",
            "ticks": 41220,
            "time": 164.88,
            "velocity": 0.7874015748031497
          },
          {
            "duration": 0.09999999999999432,
            "durationTicks": 25,
            "midi": 42,
            "name": "F#2",
            "ticks": 41280,
            "time": 165.12,
            "velocity": 0.6850393700787402
          },
          {
            "duration": 0.1519999999999868,
            "durationTicks": 38,
            "midi": 36,
            "name": "C2",
            "ticks": 41280,
            "time": 165.12,
            "velocity": 0.6850393700787402
          },
          {
            "duration": 0.09200000000001296,
            "durationTicks": 23,
            "midi": 42,
            "name": "F#2",
            "ticks": 41340,
            "time": 165.35999999999999,
            "velocity": 0.5433070866141733
          },
          {
            "duration": 0.103999999999985,
            "durationTicks": 26,
            "midi": 42,
            "name": "F#2",
            "ticks": 41400,
            "time": 165.6,
            "velocity": 0.6614173228346457
          },
          {
            "duration": 0.3079999999999927,
            "durationTicks": 77,
            "midi": 40,
            "name": "E2",
            "ticks": 41400,
            "time": 165.6,
            "velocity": 0.4645669291338583
          },
          {
            "duration": 0.14000000000001478,
            "durationTicks": 35,
            "midi": 36,
            "name": "C2",
            "ticks": 41400,
            "time": 165.6,
            "velocity": 0.6614173228346457
          },
          {
            "duration": 0.08400000000000318,
            "durationTicks": 21,
            "midi": 42,
            "name": "F#2",
            "ticks": 41460,
            "time": 165.84,
            "velocity": 0.5433070866141733
          },
          {
            "duration": 0.09600000000000364,
            "durationTicks": 24,
            "midi": 42,
            "name": "F#2",
            "ticks": 41520,
            "time": 166.07999999999998,
            "velocity": 0.6614173228346457
          },
          {
            "duration": 0.12000000000000455,
            "durationTicks": 30,
            "midi": 36,
            "name": "C2",
            "ticks": 41520,
            "time": 166.07999999999998,
            "velocity": 0.6614173228346457
          },
          {
            "duration": 0.22800000000000864,
            "durationTicks": 57,
            "midi": 54,
            "name": "F#3",
            "ticks": 41580,
            "time": 166.32,
            "velocity": 0.6850393700787402
          },
          {
            "duration": 0.07600000000002183,
            "durationTicks": 19,
            "midi": 42,
            "name": "F#2",
            "ticks": 41580,
            "time": 166.32,
            "velocity": 0.5905511811023622
          },
          {
            "duration": 0.21999999999997044,
            "durationTicks": 55,
            "midi": 40,
            "name": "E2",
            "ticks": 41640,
            "time": 166.56,
            "velocity": 0.4645669291338583
          },
          {
            "duration": 0.11199999999999477,
            "durationTicks": 28,
            "midi": 42,
            "name": "F#2",
            "ticks": 41640,
            "time": 166.56,
            "velocity": 0.5905511811023622
          },
          {
            "duration": 0.103999999999985,
            "durationTicks": 26,
            "midi": 36,
            "name": "C2",
            "ticks": 41640,
            "time": 166.56,
            "velocity": 0.7874015748031497
          },
          {
            "duration": 0.08400000000000318,
            "durationTicks": 21,
            "midi": 46,
            "name": "A#2",
            "ticks": 41700,
            "time": 166.79999999999998,
            "velocity": 0.7874015748031497
          },
          {
            "duration": 0.09999999999999432,
            "durationTicks": 25,
            "midi": 42,
            "name": "F#2",
            "ticks": 41760,
            "time": 167.04,
            "velocity": 0.6850393700787402
          },
          {
            "duration": 0.1519999999999868,
            "durationTicks": 38,
            "midi": 36,
            "name": "C2",
            "ticks": 41760,
            "time": 167.04,
            "velocity": 0.6850393700787402
          },
          {
            "duration": 0.09199999999998454,
            "durationTicks": 23,
            "midi": 42,
            "name": "F#2",
            "ticks": 41820,
            "time": 167.28,
            "velocity": 0.5433070866141733
          },
          {
            "duration": 0.10400000000001342,
            "durationTicks": 26,
            "midi": 42,
            "name": "F#2",
            "ticks": 41880,
            "time": 167.51999999999998,
            "velocity": 0.6614173228346457
          },
          {
            "duration": 0.3079999999999927,
            "durationTicks": 77,
            "midi": 40,
            "name": "E2",
            "ticks": 41880,
            "time": 167.51999999999998,
            "velocity": 0.4645669291338583
          },
          {
            "duration": 0.14000000000001478,
            "durationTicks": 35,
            "midi": 36,
            "name": "C2",
            "ticks": 41880,
            "time": 167.51999999999998,
            "velocity": 0.6614173228346457
          },
          {
            "duration": 0.08400000000000318,
            "durationTicks": 21,
            "midi": 42,
            "name": "F#2",
            "ticks": 41940,
            "time": 167.76,
            "velocity": 0.5433070866141733
          },
          {
            "duration": 0.09599999999997522,
            "durationTicks": 24,
            "midi": 42,
            "name": "F#2",
            "ticks": 42000,
            "time": 168,
            "velocity": 0.6614173228346457
          },
          {
            "duration": 0.12000000000000455,
            "durationTicks": 30,
            "midi": 36,
            "name": "C2",
            "ticks": 42000,
            "time": 168,
            "velocity": 0.6614173228346457
          },
          {
            "duration": 0.05200000000002092,
            "durationTicks": 13,
            "midi": 42,
            "name": "F#2",
            "ticks": 42060,
            "time": 168.23999999999998,
            "velocity": 0.7874015748031497
          },
          {
            "duration": 0.1839999999999975,
            "durationTicks": 46,
            "midi": 54,
            "name": "F#3",
            "ticks": 42060,
            "time": 168.23999999999998,
            "velocity": 0.6220472440944882
          },
          {
            "duration": 0.07600000000002183,
            "durationTicks": 19,
            "midi": 42,
            "name": "F#2",
            "ticks": 42060,
            "time": 168.23999999999998,
            "velocity": 0.5905511811023622
          },
          {
            "duration": 0.04800000000003024,
            "durationTicks": 12,
            "midi": 42,
            "name": "F#2",
            "ticks": 42090,
            "time": 168.35999999999999,
            "velocity": 0.6614173228346457
          },
          {
            "duration": 0.06399999999999295,
            "durationTicks": 16,
            "midi": 42,
            "name": "F#2",
            "ticks": 42120,
            "time": 168.48,
            "velocity": 0.8661417322834646
          },
          {
            "duration": 0.21999999999999886,
            "durationTicks": 55,
            "midi": 40,
            "name": "E2",
            "ticks": 42120,
            "time": 168.48,
            "velocity": 0.4645669291338583
          },
          {
            "duration": 0.11200000000002319,
            "durationTicks": 28,
            "midi": 42,
            "name": "F#2",
            "ticks": 42120,
            "time": 168.48,
            "velocity": 0.5905511811023622
          },
          {
            "duration": 0.103999999999985,
            "durationTicks": 26,
            "midi": 36,
            "name": "C2",
            "ticks": 42120,
            "time": 168.48,
            "velocity": 0.7874015748031497
          },
          {
            "duration": 0.060000000000002274,
            "durationTicks": 15,
            "midi": 42,
            "name": "F#2",
            "ticks": 42180,
            "time": 168.72,
            "velocity": 0.952755905511811
          },
          {
            "duration": 0.08400000000000318,
            "durationTicks": 21,
            "midi": 46,
            "name": "A#2",
            "ticks": 42180,
            "time": 168.72,
            "velocity": 0.7874015748031497
          },
          {
            "duration": 0.06799999999998363,
            "durationTicks": 17,
            "midi": 42,
            "name": "F#2",
            "ticks": 42210,
            "time": 168.84,
            "velocity": 0.6850393700787402
          },
          {
            "duration": 0.056000000000011596,
            "durationTicks": 14,
            "midi": 42,
            "name": "F#2",
            "ticks": 42240,
            "time": 168.95999999999998,
            "velocity": 0.6850393700787402
          },
          {
            "duration": 0.15200000000001523,
            "durationTicks": 38,
            "midi": 36,
            "name": "C2",
            "ticks": 42240,
            "time": 168.95999999999998,
            "velocity": 0.6850393700787402
          },
          {
            "duration": 0.09999999999999432,
            "durationTicks": 25,
            "midi": 42,
            "name": "F#2",
            "ticks": 42240,
            "time": 168.95999999999998,
            "velocity": 0.952755905511811
          },
          {
            "duration": 0.09200000000001296,
            "durationTicks": 23,
            "midi": 42,
            "name": "F#2",
            "ticks": 42300,
            "time": 169.2,
            "velocity": 0.5433070866141733
          },
          {
            "duration": 0.103999999999985,
            "durationTicks": 26,
            "midi": 42,
            "name": "F#2",
            "ticks": 42360,
            "time": 169.44,
            "velocity": 0.6614173228346457
          },
          {
            "duration": 0.3079999999999927,
            "durationTicks": 77,
            "midi": 40,
            "name": "E2",
            "ticks": 42360,
            "time": 169.44,
            "velocity": 0.4645669291338583
          },
          {
            "duration": 0.14000000000001478,
            "durationTicks": 35,
            "midi": 36,
            "name": "C2",
            "ticks": 42360,
            "time": 169.44,
            "velocity": 0.6614173228346457
          },
          {
            "duration": 0.08400000000000318,
            "durationTicks": 21,
            "midi": 42,
            "name": "F#2",
            "ticks": 42420,
            "time": 169.68,
            "velocity": 0.5433070866141733
          },
          {
            "duration": 0.09600000000000364,
            "durationTicks": 24,
            "midi": 42,
            "name": "F#2",
            "ticks": 42480,
            "time": 169.92,
            "velocity": 0.6614173228346457
          },
          {
            "duration": 0.12000000000000455,
            "durationTicks": 30,
            "midi": 36,
            "name": "C2",
            "ticks": 42480,
            "time": 169.92,
            "velocity": 0.6614173228346457
          },
          {
            "duration": 0.22399999999998954,
            "durationTicks": 56,
            "midi": 54,
            "name": "F#3",
            "ticks": 42540,
            "time": 170.16,
            "velocity": 0.6614173228346457
          },
          {
            "duration": 0.07600000000002183,
            "durationTicks": 19,
            "midi": 42,
            "name": "F#2",
            "ticks": 42540,
            "time": 170.16,
            "velocity": 0.5905511811023622
          },
          {
            "duration": 0.21999999999997044,
            "durationTicks": 55,
            "midi": 40,
            "name": "E2",
            "ticks": 42600,
            "time": 170.4,
            "velocity": 0.4645669291338583
          },
          {
            "duration": 0.11199999999999477,
            "durationTicks": 28,
            "midi": 42,
            "name": "F#2",
            "ticks": 42600,
            "time": 170.4,
            "velocity": 0.5905511811023622
          },
          {
            "duration": 0.103999999999985,
            "durationTicks": 26,
            "midi": 36,
            "name": "C2",
            "ticks": 42600,
            "time": 170.4,
            "velocity": 0.7874015748031497
          },
          {
            "duration": 0.08400000000000318,
            "durationTicks": 21,
            "midi": 46,
            "name": "A#2",
            "ticks": 42660,
            "time": 170.64,
            "velocity": 0.7874015748031497
          },
          {
            "duration": 0.09999999999999432,
            "durationTicks": 25,
            "midi": 42,
            "name": "F#2",
            "ticks": 42720,
            "time": 170.88,
            "velocity": 0.6850393700787402
          },
          {
            "duration": 0.1519999999999868,
            "durationTicks": 38,
            "midi": 36,
            "name": "C2",
            "ticks": 42720,
            "time": 170.88,
            "velocity": 0.6850393700787402
          },
          {
            "duration": 0.09199999999998454,
            "durationTicks": 23,
            "midi": 42,
            "name": "F#2",
            "ticks": 42780,
            "time": 171.12,
            "velocity": 0.5433070866141733
          },
          {
            "duration": 0.103999999999985,
            "durationTicks": 26,
            "midi": 42,
            "name": "F#2",
            "ticks": 42840,
            "time": 171.35999999999999,
            "velocity": 0.6614173228346457
          },
          {
            "duration": 0.3079999999999927,
            "durationTicks": 77,
            "midi": 40,
            "name": "E2",
            "ticks": 42840,
            "time": 171.35999999999999,
            "velocity": 0.4645669291338583
          },
          {
            "duration": 0.14000000000001478,
            "durationTicks": 35,
            "midi": 36,
            "name": "C2",
            "ticks": 42840,
            "time": 171.35999999999999,
            "velocity": 0.6614173228346457
          },
          {
            "duration": 0.08400000000000318,
            "durationTicks": 21,
            "midi": 42,
            "name": "F#2",
            "ticks": 42900,
            "time": 171.6,
            "velocity": 0.5433070866141733
          },
          {
            "duration": 0.09599999999997522,
            "durationTicks": 24,
            "midi": 42,
            "name": "F#2",
            "ticks": 42960,
            "time": 171.84,
            "velocity": 0.6614173228346457
          },
          {
            "duration": 0.11999999999997613,
            "durationTicks": 30,
            "midi": 36,
            "name": "C2",
            "ticks": 42960,
            "time": 171.84,
            "velocity": 0.6614173228346457
          },
          {
            "duration": 0.05200000000002092,
            "durationTicks": 13,
            "midi": 42,
            "name": "F#2",
            "ticks": 43020,
            "time": 172.07999999999998,
            "velocity": 0.8661417322834646
          },
          {
            "duration": 0.23200000000002774,
            "durationTicks": 58,
            "midi": 54,
            "name": "F#3",
            "ticks": 43020,
            "time": 172.07999999999998,
            "velocity": 0.6850393700787402
          },
          {
            "duration": 0.07600000000002183,
            "durationTicks": 19,
            "midi": 42,
            "name": "F#2",
            "ticks": 43020,
            "time": 172.07999999999998,
            "velocity": 0.5905511811023622
          },
          {
            "duration": 0.056000000000011596,
            "durationTicks": 14,
            "midi": 42,
            "name": "F#2",
            "ticks": 43050,
            "time": 172.2,
            "velocity": 0.5433070866141733
          },
          {
            "duration": 0.06399999999999295,
            "durationTicks": 16,
            "midi": 42,
            "name": "F#2",
            "ticks": 43080,
            "time": 172.32,
            "velocity": 0.8661417322834646
          },
          {
            "duration": 0.21999999999999886,
            "durationTicks": 55,
            "midi": 40,
            "name": "E2",
            "ticks": 43080,
            "time": 172.32,
            "velocity": 0.4645669291338583
          },
          {
            "duration": 0.11199999999999477,
            "durationTicks": 28,
            "midi": 42,
            "name": "F#2",
            "ticks": 43080,
            "time": 172.32,
            "velocity": 0.5905511811023622
          },
          {
            "duration": 0.103999999999985,
            "durationTicks": 26,
            "midi": 36,
            "name": "C2",
            "ticks": 43080,
            "time": 172.32,
            "velocity": 0.7874015748031497
          },
          {
            "duration": 0.06399999999999295,
            "durationTicks": 16,
            "midi": 42,
            "name": "F#2",
            "ticks": 43140,
            "time": 172.56,
            "velocity": 0.952755905511811
          },
          {
            "duration": 0.08400000000000318,
            "durationTicks": 21,
            "midi": 46,
            "name": "A#2",
            "ticks": 43140,
            "time": 172.56,
            "velocity": 0.7874015748031497
          },
          {
            "duration": 0.05999999999997385,
            "durationTicks": 15,
            "midi": 42,
            "name": "F#2",
            "ticks": 43170,
            "time": 172.68,
            "velocity": 0.5118110236220472
          },
          {
            "duration": 0.05200000000002092,
            "durationTicks": 13,
            "midi": 42,
            "name": "F#2",
            "ticks": 43200,
            "time": 172.79999999999998,
            "velocity": 0.6850393700787402
          },
          {
            "duration": 0.09999999999999432,
            "durationTicks": 25,
            "midi": 42,
            "name": "F#2",
            "ticks": 43200,
            "time": 172.79999999999998,
            "velocity": 0.8976377952755905
          },
          {
            "duration": 0.15200000000001523,
            "durationTicks": 38,
            "midi": 36,
            "name": "C2",
            "ticks": 43200,
            "time": 172.79999999999998,
            "velocity": 0.6850393700787402
          },
          {
            "duration": 0.09200000000001296,
            "durationTicks": 23,
            "midi": 42,
            "name": "F#2",
            "ticks": 43260,
            "time": 173.04,
            "velocity": 0.5433070866141733
          },
          {
            "duration": 0.103999999999985,
            "durationTicks": 26,
            "midi": 42,
            "name": "F#2",
            "ticks": 43320,
            "time": 173.28,
            "velocity": 0.6614173228346457
          },
          {
            "duration": 0.3079999999999927,
            "durationTicks": 77,
            "midi": 40,
            "name": "E2",
            "ticks": 43320,
            "time": 173.28,
            "velocity": 0.4645669291338583
          },
          {
            "duration": 0.14000000000001478,
            "durationTicks": 35,
            "midi": 36,
            "name": "C2",
            "ticks": 43320,
            "time": 173.28,
            "velocity": 0.6614173228346457
          },
          {
            "duration": 0.08400000000000318,
            "durationTicks": 21,
            "midi": 42,
            "name": "F#2",
            "ticks": 43380,
            "time": 173.51999999999998,
            "velocity": 0.5433070866141733
          },
          {
            "duration": 0.09600000000000364,
            "durationTicks": 24,
            "midi": 42,
            "name": "F#2",
            "ticks": 43440,
            "time": 173.76,
            "velocity": 0.6614173228346457
          },
          {
            "duration": 0.12000000000000455,
            "durationTicks": 30,
            "midi": 36,
            "name": "C2",
            "ticks": 43440,
            "time": 173.76,
            "velocity": 0.6614173228346457
          },
          {
            "duration": 0.23999999999998067,
            "durationTicks": 60,
            "midi": 54,
            "name": "F#3",
            "ticks": 43500,
            "time": 174,
            "velocity": 0.6614173228346457
          },
          {
            "duration": 0.0759999999999934,
            "durationTicks": 19,
            "midi": 42,
            "name": "F#2",
            "ticks": 43500,
            "time": 174,
            "velocity": 0.5905511811023622
          },
          {
            "duration": 0.21999999999999886,
            "durationTicks": 55,
            "midi": 40,
            "name": "E2",
            "ticks": 43560,
            "time": 174.23999999999998,
            "velocity": 0.4645669291338583
          },
          {
            "duration": 0.11200000000002319,
            "durationTicks": 28,
            "midi": 42,
            "name": "F#2",
            "ticks": 43560,
            "time": 174.23999999999998,
            "velocity": 0.5905511811023622
          },
          {
            "duration": 0.10400000000001342,
            "durationTicks": 26,
            "midi": 36,
            "name": "C2",
            "ticks": 43560,
            "time": 174.23999999999998,
            "velocity": 0.7874015748031497
          },
          {
            "duration": 0.08400000000000318,
            "durationTicks": 21,
            "midi": 46,
            "name": "A#2",
            "ticks": 43620,
            "time": 174.48,
            "velocity": 0.7874015748031497
          },
          {
            "duration": 0.09999999999999432,
            "durationTicks": 25,
            "midi": 42,
            "name": "F#2",
            "ticks": 43680,
            "time": 174.72,
            "velocity": 0.6850393700787402
          },
          {
            "duration": 0.1519999999999868,
            "durationTicks": 38,
            "midi": 36,
            "name": "C2",
            "ticks": 43680,
            "time": 174.72,
            "velocity": 0.6850393700787402
          },
          {
            "duration": 0.09200000000001296,
            "durationTicks": 23,
            "midi": 42,
            "name": "F#2",
            "ticks": 43740,
            "time": 174.95999999999998,
            "velocity": 0.5433070866141733
          },
          {
            "duration": 0.103999999999985,
            "durationTicks": 26,
            "midi": 42,
            "name": "F#2",
            "ticks": 43800,
            "time": 175.2,
            "velocity": 0.6614173228346457
          },
          {
            "duration": 0.3079999999999927,
            "durationTicks": 77,
            "midi": 40,
            "name": "E2",
            "ticks": 43800,
            "time": 175.2,
            "velocity": 0.4645669291338583
          },
          {
            "duration": 0.14000000000001478,
            "durationTicks": 35,
            "midi": 36,
            "name": "C2",
            "ticks": 43800,
            "time": 175.2,
            "velocity": 0.6614173228346457
          },
          {
            "duration": 0.08400000000000318,
            "durationTicks": 21,
            "midi": 42,
            "name": "F#2",
            "ticks": 43860,
            "time": 175.44,
            "velocity": 0.5433070866141733
          },
          {
            "duration": 0.09599999999997522,
            "durationTicks": 24,
            "midi": 42,
            "name": "F#2",
            "ticks": 43920,
            "time": 175.68,
            "velocity": 0.6614173228346457
          },
          {
            "duration": 0.11999999999997613,
            "durationTicks": 30,
            "midi": 36,
            "name": "C2",
            "ticks": 43920,
            "time": 175.68,
            "velocity": 0.6614173228346457
          },
          {
            "duration": 0.2079999999999984,
            "durationTicks": 52,
            "midi": 54,
            "name": "F#3",
            "ticks": 43980,
            "time": 175.92,
            "velocity": 0.6614173228346457
          },
          {
            "duration": 0.04800000000003024,
            "durationTicks": 12,
            "midi": 42,
            "name": "F#2",
            "ticks": 43980,
            "time": 175.92,
            "velocity": 0.7874015748031497
          },
          {
            "duration": 0.07600000000002183,
            "durationTicks": 19,
            "midi": 42,
            "name": "F#2",
            "ticks": 43980,
            "time": 175.92,
            "velocity": 0.5905511811023622
          },
          {
            "duration": 0.056000000000011596,
            "durationTicks": 14,
            "midi": 42,
            "name": "F#2",
            "ticks": 44010,
            "time": 176.04,
            "velocity": 0.5039370078740157
          },
          {
            "duration": 0.060000000000002274,
            "durationTicks": 15,
            "midi": 42,
            "name": "F#2",
            "ticks": 44040,
            "time": 176.16,
            "velocity": 0.8661417322834646
          },
          {
            "duration": 0.21999999999999886,
            "durationTicks": 55,
            "midi": 40,
            "name": "E2",
            "ticks": 44040,
            "time": 176.16,
            "velocity": 0.4645669291338583
          },
          {
            "duration": 0.11199999999999477,
            "durationTicks": 28,
            "midi": 42,
            "name": "F#2",
            "ticks": 44040,
            "time": 176.16,
            "velocity": 0.5905511811023622
          },
          {
            "duration": 0.103999999999985,
            "durationTicks": 26,
            "midi": 36,
            "name": "C2",
            "ticks": 44040,
            "time": 176.16,
            "velocity": 0.7874015748031497
          },
          {
            "duration": 0.055999999999983174,
            "durationTicks": 14,
            "midi": 42,
            "name": "F#2",
            "ticks": 44100,
            "time": 176.4,
            "velocity": 0.8976377952755905
          },
          {
            "duration": 0.08400000000000318,
            "durationTicks": 21,
            "midi": 46,
            "name": "A#2",
            "ticks": 44100,
            "time": 176.4,
            "velocity": 0.7874015748031497
          },
          {
            "duration": 0.056000000000011596,
            "durationTicks": 14,
            "midi": 42,
            "name": "F#2",
            "ticks": 44130,
            "time": 176.51999999999998,
            "velocity": 0.47244094488188976
          },
          {
            "duration": 0.056000000000011596,
            "durationTicks": 14,
            "midi": 42,
            "name": "F#2",
            "ticks": 44160,
            "time": 176.64,
            "velocity": 0.6850393700787402
          },
          {
            "duration": 0.15200000000001523,
            "durationTicks": 38,
            "midi": 36,
            "name": "C2",
            "ticks": 44160,
            "time": 176.64,
            "velocity": 0.6850393700787402
          },
          {
            "duration": 0.09999999999999432,
            "durationTicks": 25,
            "midi": 42,
            "name": "F#2",
            "ticks": 44160,
            "time": 176.64,
            "velocity": 0.8976377952755905
          },
          {
            "duration": 0.09199999999998454,
            "durationTicks": 23,
            "midi": 42,
            "name": "F#2",
            "ticks": 44220,
            "time": 176.88,
            "velocity": 0.5433070866141733
          },
          {
            "duration": 0.103999999999985,
            "durationTicks": 26,
            "midi": 42,
            "name": "F#2",
            "ticks": 44280,
            "time": 177.12,
            "velocity": 0.6614173228346457
          },
          {
            "duration": 0.3079999999999927,
            "durationTicks": 77,
            "midi": 40,
            "name": "E2",
            "ticks": 44280,
            "time": 177.12,
            "velocity": 0.4645669291338583
          },
          {
            "duration": 0.13999999999998636,
            "durationTicks": 35,
            "midi": 36,
            "name": "C2",
            "ticks": 44280,
            "time": 177.12,
            "velocity": 0.6614173228346457
          },
          {
            "duration": 0.08400000000000318,
            "durationTicks": 21,
            "midi": 42,
            "name": "F#2",
            "ticks": 44340,
            "time": 177.35999999999999,
            "velocity": 0.5433070866141733
          },
          {
            "duration": 0.09600000000000364,
            "durationTicks": 24,
            "midi": 42,
            "name": "F#2",
            "ticks": 44400,
            "time": 177.6,
            "velocity": 0.6614173228346457
          },
          {
            "duration": 0.12000000000000455,
            "durationTicks": 30,
            "midi": 36,
            "name": "C2",
            "ticks": 44400,
            "time": 177.6,
            "velocity": 0.6614173228346457
          },
          {
            "duration": 0.25199999999998113,
            "durationTicks": 63,
            "midi": 54,
            "name": "F#3",
            "ticks": 44460,
            "time": 177.84,
            "velocity": 0.6850393700787402
          },
          {
            "duration": 0.0759999999999934,
            "durationTicks": 19,
            "midi": 42,
            "name": "F#2",
            "ticks": 44460,
            "time": 177.84,
            "velocity": 0.5905511811023622
          },
          {
            "duration": 0.21999999999999886,
            "durationTicks": 55,
            "midi": 40,
            "name": "E2",
            "ticks": 44520,
            "time": 178.07999999999998,
            "velocity": 0.4645669291338583
          },
          {
            "duration": 0.11200000000002319,
            "durationTicks": 28,
            "midi": 42,
            "name": "F#2",
            "ticks": 44520,
            "time": 178.07999999999998,
            "velocity": 0.5905511811023622
          },
          {
            "duration": 0.103999999999985,
            "durationTicks": 26,
            "midi": 36,
            "name": "C2",
            "ticks": 44520,
            "time": 178.07999999999998,
            "velocity": 0.7874015748031497
          },
          {
            "duration": 0.08400000000000318,
            "durationTicks": 21,
            "midi": 46,
            "name": "A#2",
            "ticks": 44580,
            "time": 178.32,
            "velocity": 0.7874015748031497
          },
          {
            "duration": 0.09999999999999432,
            "durationTicks": 25,
            "midi": 42,
            "name": "F#2",
            "ticks": 44640,
            "time": 178.56,
            "velocity": 0.6850393700787402
          },
          {
            "duration": 0.1519999999999868,
            "durationTicks": 38,
            "midi": 36,
            "name": "C2",
            "ticks": 44640,
            "time": 178.56,
            "velocity": 0.6850393700787402
          },
          {
            "duration": 0.09200000000001296,
            "durationTicks": 23,
            "midi": 42,
            "name": "F#2",
            "ticks": 44700,
            "time": 178.79999999999998,
            "velocity": 0.5433070866141733
          },
          {
            "duration": 0.103999999999985,
            "durationTicks": 26,
            "midi": 42,
            "name": "F#2",
            "ticks": 44760,
            "time": 179.04,
            "velocity": 0.6614173228346457
          },
          {
            "duration": 0.3079999999999927,
            "durationTicks": 77,
            "midi": 40,
            "name": "E2",
            "ticks": 44760,
            "time": 179.04,
            "velocity": 0.4645669291338583
          },
          {
            "duration": 0.14000000000001478,
            "durationTicks": 35,
            "midi": 36,
            "name": "C2",
            "ticks": 44760,
            "time": 179.04,
            "velocity": 0.6614173228346457
          },
          {
            "duration": 0.08400000000000318,
            "durationTicks": 21,
            "midi": 42,
            "name": "F#2",
            "ticks": 44820,
            "time": 179.28,
            "velocity": 0.5433070866141733
          },
          {
            "duration": 0.09600000000000364,
            "durationTicks": 24,
            "midi": 42,
            "name": "F#2",
            "ticks": 44880,
            "time": 179.51999999999998,
            "velocity": 0.6614173228346457
          },
          {
            "duration": 0.12000000000000455,
            "durationTicks": 30,
            "midi": 36,
            "name": "C2",
            "ticks": 44880,
            "time": 179.51999999999998,
            "velocity": 0.6614173228346457
          },
          {
            "duration": 0.04800000000000182,
            "durationTicks": 12,
            "midi": 42,
            "name": "F#2",
            "ticks": 44940,
            "time": 179.76,
            "velocity": 0.7874015748031497
          },
          {
            "duration": 0.2079999999999984,
            "durationTicks": 52,
            "midi": 54,
            "name": "F#3",
            "ticks": 44940,
            "time": 179.76,
            "velocity": 0.6614173228346457
          },
          {
            "duration": 0.07600000000002183,
            "durationTicks": 19,
            "midi": 42,
            "name": "F#2",
            "ticks": 44940,
            "time": 179.76,
            "velocity": 0.5905511811023622
          },
          {
            "duration": 0.060000000000002274,
            "durationTicks": 15,
            "midi": 42,
            "name": "F#2",
            "ticks": 44970,
            "time": 179.88,
            "velocity": 0.4881889763779528
          },
          {
            "duration": 0.060000000000002274,
            "durationTicks": 15,
            "midi": 42,
            "name": "F#2",
            "ticks": 45000,
            "time": 180,
            "velocity": 0.8661417322834646
          },
          {
            "duration": 0.21999999999997044,
            "durationTicks": 55,
            "midi": 40,
            "name": "E2",
            "ticks": 45000,
            "time": 180,
            "velocity": 0.4645669291338583
          },
          {
            "duration": 0.11199999999999477,
            "durationTicks": 28,
            "midi": 42,
            "name": "F#2",
            "ticks": 45000,
            "time": 180,
            "velocity": 0.5905511811023622
          },
          {
            "duration": 0.103999999999985,
            "durationTicks": 26,
            "midi": 36,
            "name": "C2",
            "ticks": 45000,
            "time": 180,
            "velocity": 0.7874015748031497
          },
          {
            "duration": 0.05200000000002092,
            "durationTicks": 13,
            "midi": 42,
            "name": "F#2",
            "ticks": 45060,
            "time": 180.23999999999998,
            "velocity": 0.8661417322834646
          },
          {
            "duration": 0.0840000000000316,
            "durationTicks": 21,
            "midi": 46,
            "name": "A#2",
            "ticks": 45060,
            "time": 180.23999999999998,
            "velocity": 0.7874015748031497
          },
          {
            "duration": 0.05200000000002092,
            "durationTicks": 13,
            "midi": 42,
            "name": "F#2",
            "ticks": 45090,
            "time": 180.35999999999999,
            "velocity": 0.4881889763779528
          },
          {
            "duration": 0.09999999999999432,
            "durationTicks": 25,
            "midi": 42,
            "name": "F#2",
            "ticks": 45120,
            "time": 180.48,
            "velocity": 0.6850393700787402
          },
          {
            "duration": 0.15200000000001523,
            "durationTicks": 38,
            "midi": 36,
            "name": "C2",
            "ticks": 45120,
            "time": 180.48,
            "velocity": 0.6850393700787402
          },
          {
            "duration": 0.09199999999998454,
            "durationTicks": 23,
            "midi": 42,
            "name": "F#2",
            "ticks": 45180,
            "time": 180.72,
            "velocity": 0.5433070866141733
          },
          {
            "duration": 0.10400000000001342,
            "durationTicks": 26,
            "midi": 42,
            "name": "F#2",
            "ticks": 45240,
            "time": 180.95999999999998,
            "velocity": 0.6614173228346457
          },
          {
            "duration": 0.3079999999999927,
            "durationTicks": 77,
            "midi": 40,
            "name": "E2",
            "ticks": 45240,
            "time": 180.95999999999998,
            "velocity": 0.4645669291338583
          },
          {
            "duration": 0.14000000000001478,
            "durationTicks": 35,
            "midi": 36,
            "name": "C2",
            "ticks": 45240,
            "time": 180.95999999999998,
            "velocity": 0.6614173228346457
          },
          {
            "duration": 0.08400000000000318,
            "durationTicks": 21,
            "midi": 42,
            "name": "F#2",
            "ticks": 45300,
            "time": 181.2,
            "velocity": 0.5433070866141733
          },
          {
            "duration": 0.09600000000000364,
            "durationTicks": 24,
            "midi": 42,
            "name": "F#2",
            "ticks": 45360,
            "time": 181.44,
            "velocity": 0.6614173228346457
          },
          {
            "duration": 0.12000000000000455,
            "durationTicks": 30,
            "midi": 36,
            "name": "C2",
            "ticks": 45360,
            "time": 181.44,
            "velocity": 0.6614173228346457
          },
          {
            "duration": 0.23199999999999932,
            "durationTicks": 58,
            "midi": 54,
            "name": "F#3",
            "ticks": 45420,
            "time": 181.68,
            "velocity": 0.6614173228346457
          },
          {
            "duration": 0.0759999999999934,
            "durationTicks": 19,
            "midi": 42,
            "name": "F#2",
            "ticks": 45420,
            "time": 181.68,
            "velocity": 0.5905511811023622
          },
          {
            "duration": 0.21999999999999886,
            "durationTicks": 55,
            "midi": 40,
            "name": "E2",
            "ticks": 45480,
            "time": 181.92,
            "velocity": 0.4645669291338583
          },
          {
            "duration": 0.11200000000002319,
            "durationTicks": 28,
            "midi": 42,
            "name": "F#2",
            "ticks": 45480,
            "time": 181.92,
            "velocity": 0.5905511811023622
          },
          {
            "duration": 0.103999999999985,
            "durationTicks": 26,
            "midi": 36,
            "name": "C2",
            "ticks": 45480,
            "time": 181.92,
            "velocity": 0.7874015748031497
          },
          {
            "duration": 0.08400000000000318,
            "durationTicks": 21,
            "midi": 46,
            "name": "A#2",
            "ticks": 45540,
            "time": 182.16,
            "velocity": 0.7874015748031497
          },
          {
            "duration": 0.0999999999999659,
            "durationTicks": 25,
            "midi": 42,
            "name": "F#2",
            "ticks": 45600,
            "time": 182.4,
            "velocity": 0.6850393700787402
          },
          {
            "duration": 0.1519999999999868,
            "durationTicks": 38,
            "midi": 36,
            "name": "C2",
            "ticks": 45600,
            "time": 182.4,
            "velocity": 0.6850393700787402
          },
          {
            "duration": 0.09200000000001296,
            "durationTicks": 23,
            "midi": 42,
            "name": "F#2",
            "ticks": 45660,
            "time": 182.64,
            "velocity": 0.5433070866141733
          },
          {
            "duration": 0.103999999999985,
            "durationTicks": 26,
            "midi": 42,
            "name": "F#2",
            "ticks": 45720,
            "time": 182.88,
            "velocity": 0.6614173228346457
          },
          {
            "duration": 0.3079999999999927,
            "durationTicks": 77,
            "midi": 40,
            "name": "E2",
            "ticks": 45720,
            "time": 182.88,
            "velocity": 0.4645669291338583
          },
          {
            "duration": 0.14000000000001478,
            "durationTicks": 35,
            "midi": 36,
            "name": "C2",
            "ticks": 45720,
            "time": 182.88,
            "velocity": 0.6614173228346457
          },
          {
            "duration": 0.08400000000000318,
            "durationTicks": 21,
            "midi": 42,
            "name": "F#2",
            "ticks": 45780,
            "time": 183.12,
            "velocity": 0.5433070866141733
          },
          {
            "duration": 0.09600000000000364,
            "durationTicks": 24,
            "midi": 42,
            "name": "F#2",
            "ticks": 45840,
            "time": 183.35999999999999,
            "velocity": 0.6614173228346457
          },
          {
            "duration": 0.12000000000000455,
            "durationTicks": 30,
            "midi": 36,
            "name": "C2",
            "ticks": 45840,
            "time": 183.35999999999999,
            "velocity": 0.6614173228346457
          },
          {
            "duration": 0.18000000000000682,
            "durationTicks": 45,
            "midi": 54,
            "name": "F#3",
            "ticks": 45900,
            "time": 183.6,
            "velocity": 0.6220472440944882
          },
          {
            "duration": 0.07600000000002183,
            "durationTicks": 19,
            "midi": 42,
            "name": "F#2",
            "ticks": 45900,
            "time": 183.6,
            "velocity": 0.5905511811023622
          },
          {
            "duration": 0.21999999999997044,
            "durationTicks": 55,
            "midi": 40,
            "name": "E2",
            "ticks": 45960,
            "time": 183.84,
            "velocity": 0.4645669291338583
          },
          {
            "duration": 0.11199999999999477,
            "durationTicks": 28,
            "midi": 42,
            "name": "F#2",
            "ticks": 45960,
            "time": 183.84,
            "velocity": 0.5905511811023622
          },
          {
            "duration": 0.103999999999985,
            "durationTicks": 26,
            "midi": 36,
            "name": "C2",
            "ticks": 45960,
            "time": 183.84,
            "velocity": 0.7874015748031497
          },
          {
            "duration": 0.08400000000000318,
            "durationTicks": 21,
            "midi": 46,
            "name": "A#2",
            "ticks": 46020,
            "time": 184.07999999999998,
            "velocity": 0.7874015748031497
          },
          {
            "duration": 0.09999999999999432,
            "durationTicks": 25,
            "midi": 42,
            "name": "F#2",
            "ticks": 46080,
            "time": 184.32,
            "velocity": 0.6850393700787402
          },
          {
            "duration": 0.1519999999999868,
            "durationTicks": 38,
            "midi": 36,
            "name": "C2",
            "ticks": 46080,
            "time": 184.32,
            "velocity": 0.6850393700787402
          },
          {
            "duration": 0.28000000000000114,
            "durationTicks": 70,
            "midi": 41,
            "name": "F2",
            "ticks": 46080,
            "time": 184.32,
            "velocity": 0.47244094488188976
          },
          {
            "duration": 0.12399999999999523,
            "durationTicks": 31,
            "midi": 41,
            "name": "F2",
            "ticks": 46200,
            "time": 184.79999999999998,
            "velocity": 0.4566929133858268
          },
          {
            "duration": 0.14000000000001478,
            "durationTicks": 35,
            "midi": 36,
            "name": "C2",
            "ticks": 46200,
            "time": 184.79999999999998,
            "velocity": 0.6614173228346457
          },
          {
            "duration": 0.09999999999999432,
            "durationTicks": 25,
            "midi": 41,
            "name": "F2",
            "ticks": 46260,
            "time": 185.04,
            "velocity": 0.4409448818897638
          },
          {
            "duration": 0.1599999999999966,
            "durationTicks": 40,
            "midi": 41,
            "name": "F2",
            "ticks": 46320,
            "time": 185.28,
            "velocity": 0.5039370078740157
          },
          {
            "duration": 0.12000000000000455,
            "durationTicks": 30,
            "midi": 36,
            "name": "C2",
            "ticks": 46320,
            "time": 185.28,
            "velocity": 0.6614173228346457
          },
          {
            "duration": 0.19600000000002638,
            "durationTicks": 49,
            "midi": 69,
            "name": "A4",
            "ticks": 46380,
            "time": 185.51999999999998,
            "velocity": 0.6299212598425197
          },
          {
            "duration": 0.16399999999998727,
            "durationTicks": 41,
            "midi": 41,
            "name": "F2",
            "ticks": 46440,
            "time": 185.76,
            "velocity": 0.4645669291338583
          },
          {
            "duration": 0.103999999999985,
            "durationTicks": 26,
            "midi": 36,
            "name": "C2",
            "ticks": 46440,
            "time": 185.76,
            "velocity": 0.7874015748031497
          },
          {
            "duration": 0.15200000000001523,
            "durationTicks": 38,
            "midi": 36,
            "name": "C2",
            "ticks": 46560,
            "time": 186.23999999999998,
            "velocity": 0.6850393700787402
          },
          {
            "duration": 0.12800000000001432,
            "durationTicks": 32,
            "midi": 71,
            "name": "B4",
            "ticks": 46560,
            "time": 186.23999999999998,
            "velocity": 0.5905511811023622
          },
          {
            "duration": 0.11200000000002319,
            "durationTicks": 28,
            "midi": 41,
            "name": "F2",
            "ticks": 46560,
            "time": 186.23999999999998,
            "velocity": 0.4566929133858268
          },
          {
            "duration": 0.2839999999999918,
            "durationTicks": 71,
            "midi": 71,
            "name": "B4",
            "ticks": 46620,
            "time": 186.48,
            "velocity": 0.5275590551181102
          },
          {
            "duration": 0.09999999999999432,
            "durationTicks": 25,
            "midi": 41,
            "name": "F2",
            "ticks": 46620,
            "time": 186.48,
            "velocity": 0.4251968503937008
          },
          {
            "duration": 0.103999999999985,
            "durationTicks": 26,
            "midi": 41,
            "name": "F2",
            "ticks": 46680,
            "time": 186.72,
            "velocity": 0.48031496062992124
          },
          {
            "duration": 0.14000000000001478,
            "durationTicks": 35,
            "midi": 36,
            "name": "C2",
            "ticks": 46680,
            "time": 186.72,
            "velocity": 0.6614173228346457
          },
          {
            "duration": 0.09200000000001296,
            "durationTicks": 23,
            "midi": 41,
            "name": "F2",
            "ticks": 46740,
            "time": 186.95999999999998,
            "velocity": 0.4566929133858268
          },
          {
            "duration": 0.12399999999999523,
            "durationTicks": 31,
            "midi": 41,
            "name": "F2",
            "ticks": 46800,
            "time": 187.2,
            "velocity": 0.5433070866141733
          },
          {
            "duration": 0.12000000000000455,
            "durationTicks": 30,
            "midi": 36,
            "name": "C2",
            "ticks": 46800,
            "time": 187.2,
            "velocity": 0.6614173228346457
          },
          {
            "duration": 0.17199999999999704,
            "durationTicks": 43,
            "midi": 69,
            "name": "A4",
            "ticks": 46860,
            "time": 187.44,
            "velocity": 0.6299212598425197
          },
          {
            "duration": 0.12399999999999523,
            "durationTicks": 31,
            "midi": 41,
            "name": "F2",
            "ticks": 46920,
            "time": 187.68,
            "velocity": 0.4645669291338583
          },
          {
            "duration": 0.103999999999985,
            "durationTicks": 26,
            "midi": 36,
            "name": "C2",
            "ticks": 46920,
            "time": 187.68,
            "velocity": 0.7874015748031497
          },
          {
            "duration": 0.14400000000000546,
            "durationTicks": 36,
            "midi": 41,
            "name": "F2",
            "ticks": 47040,
            "time": 188.16,
            "velocity": 0.4409448818897638
          },
          {
            "duration": 0.1519999999999868,
            "durationTicks": 38,
            "midi": 36,
            "name": "C2",
            "ticks": 47040,
            "time": 188.16,
            "velocity": 0.6850393700787402
          },
          {
            "duration": 0.09999999999999432,
            "durationTicks": 25,
            "midi": 41,
            "name": "F2",
            "ticks": 47160,
            "time": 188.64,
            "velocity": 0.4881889763779528
          },
          {
            "duration": 0.14000000000001478,
            "durationTicks": 35,
            "midi": 36,
            "name": "C2",
            "ticks": 47160,
            "time": 188.64,
            "velocity": 0.6614173228346457
          },
          {
            "duration": 0.08400000000000318,
            "durationTicks": 21,
            "midi": 41,
            "name": "F2",
            "ticks": 47220,
            "time": 188.88,
            "velocity": 0.41732283464566927
          },
          {
            "duration": 0.11199999999999477,
            "durationTicks": 28,
            "midi": 41,
            "name": "F2",
            "ticks": 47280,
            "time": 189.12,
            "velocity": 0.47244094488188976
          },
          {
            "duration": 0.11999999999997613,
            "durationTicks": 30,
            "midi": 36,
            "name": "C2",
            "ticks": 47280,
            "time": 189.12,
            "velocity": 0.6614173228346457
          },
          {
            "duration": 0.18000000000000682,
            "durationTicks": 45,
            "midi": 69,
            "name": "A4",
            "ticks": 47340,
            "time": 189.35999999999999,
            "velocity": 0.6299212598425197
          },
          {
            "duration": 0.13199999999997658,
            "durationTicks": 33,
            "midi": 41,
            "name": "F2",
            "ticks": 47400,
            "time": 189.6,
            "velocity": 0.5118110236220472
          },
          {
            "duration": 0.103999999999985,
            "durationTicks": 26,
            "midi": 36,
            "name": "C2",
            "ticks": 47400,
            "time": 189.6,
            "velocity": 0.7874015748031497
          },
          {
            "duration": 0.15200000000001523,
            "durationTicks": 38,
            "midi": 36,
            "name": "C2",
            "ticks": 47520,
            "time": 190.07999999999998,
            "velocity": 0.6850393700787402
          },
          {
            "duration": 0.09999999999999432,
            "durationTicks": 25,
            "midi": 41,
            "name": "F2",
            "ticks": 47520,
            "time": 190.07999999999998,
            "velocity": 0.4881889763779528
          },
          {
            "duration": 0.09600000000000364,
            "durationTicks": 24,
            "midi": 41,
            "name": "F2",
            "ticks": 47580,
            "time": 190.32,
            "velocity": 0.4566929133858268
          },
          {
            "duration": 0.09999999999999432,
            "durationTicks": 25,
            "midi": 41,
            "name": "F2",
            "ticks": 47640,
            "time": 190.56,
            "velocity": 0.47244094488188976
          },
          {
            "duration": 0.13999999999998636,
            "durationTicks": 35,
            "midi": 36,
            "name": "C2",
            "ticks": 47640,
            "time": 190.56,
            "velocity": 0.6614173228346457
          },
          {
            "duration": 0.0800000000000125,
            "durationTicks": 20,
            "midi": 41,
            "name": "F2",
            "ticks": 47700,
            "time": 190.79999999999998,
            "velocity": 0.4566929133858268
          },
          {
            "duration": 0.09999999999999432,
            "durationTicks": 25,
            "midi": 41,
            "name": "F2",
            "ticks": 47760,
            "time": 191.04,
            "velocity": 0.5118110236220472
          },
          {
            "duration": 0.12000000000000455,
            "durationTicks": 30,
            "midi": 36,
            "name": "C2",
            "ticks": 47760,
            "time": 191.04,
            "velocity": 0.6614173228346457
          },
          {
            "duration": 0.1599999999999966,
            "durationTicks": 40,
            "midi": 69,
            "name": "A4",
            "ticks": 47820,
            "time": 191.28,
            "velocity": 0.6299212598425197
          },
          {
            "duration": 0.11200000000002319,
            "durationTicks": 28,
            "midi": 41,
            "name": "F2",
            "ticks": 47880,
            "time": 191.51999999999998,
            "velocity": 0.5433070866141733
          },
          {
            "duration": 0.103999999999985,
            "durationTicks": 26,
            "midi": 36,
            "name": "C2",
            "ticks": 47880,
            "time": 191.51999999999998,
            "velocity": 0.7874015748031497
          },
          {
            "duration": 0.09999999999999432,
            "durationTicks": 25,
            "midi": 42,
            "name": "F#2",
            "ticks": 48000,
            "time": 192,
            "velocity": 0.6850393700787402
          },
          {
            "duration": 0.1519999999999868,
            "durationTicks": 38,
            "midi": 36,
            "name": "C2",
            "ticks": 48000,
            "time": 192,
            "velocity": 0.6850393700787402
          },
          {
            "duration": 0.09200000000001296,
            "durationTicks": 23,
            "midi": 42,
            "name": "F#2",
            "ticks": 48060,
            "time": 192.23999999999998,
            "velocity": 0.5433070866141733
          },
          {
            "duration": 0.103999999999985,
            "durationTicks": 26,
            "midi": 42,
            "name": "F#2",
            "ticks": 48120,
            "time": 192.48,
            "velocity": 0.6614173228346457
          },
          {
            "duration": 0.3079999999999927,
            "durationTicks": 77,
            "midi": 40,
            "name": "E2",
            "ticks": 48120,
            "time": 192.48,
            "velocity": 0.4645669291338583
          },
          {
            "duration": 0.14000000000001478,
            "durationTicks": 35,
            "midi": 36,
            "name": "C2",
            "ticks": 48120,
            "time": 192.48,
            "velocity": 0.6614173228346457
          },
          {
            "duration": 0.08400000000000318,
            "durationTicks": 21,
            "midi": 42,
            "name": "F#2",
            "ticks": 48180,
            "time": 192.72,
            "velocity": 0.5433070866141733
          },
          {
            "duration": 0.09600000000000364,
            "durationTicks": 24,
            "midi": 42,
            "name": "F#2",
            "ticks": 48240,
            "time": 192.95999999999998,
            "velocity": 0.6614173228346457
          },
          {
            "duration": 0.12000000000000455,
            "durationTicks": 30,
            "midi": 36,
            "name": "C2",
            "ticks": 48240,
            "time": 192.95999999999998,
            "velocity": 0.6614173228346457
          },
          {
            "duration": 0.07600000000002183,
            "durationTicks": 19,
            "midi": 42,
            "name": "F#2",
            "ticks": 48300,
            "time": 193.2,
            "velocity": 0.5905511811023622
          },
          {
            "duration": 0.21999999999999886,
            "durationTicks": 55,
            "midi": 40,
            "name": "E2",
            "ticks": 48360,
            "time": 193.44,
            "velocity": 0.4645669291338583
          },
          {
            "duration": 0.11199999999999477,
            "durationTicks": 28,
            "midi": 42,
            "name": "F#2",
            "ticks": 48360,
            "time": 193.44,
            "velocity": 0.5905511811023622
          },
          {
            "duration": 0.103999999999985,
            "durationTicks": 26,
            "midi": 36,
            "name": "C2",
            "ticks": 48360,
            "time": 193.44,
            "velocity": 0.7874015748031497
          },
          {
            "duration": 0.08400000000000318,
            "durationTicks": 21,
            "midi": 46,
            "name": "A#2",
            "ticks": 48420,
            "time": 193.68,
            "velocity": 0.7874015748031497
          },
          {
            "duration": 0.09999999999999432,
            "durationTicks": 25,
            "midi": 42,
            "name": "F#2",
            "ticks": 48480,
            "time": 193.92,
            "velocity": 0.6850393700787402
          },
          {
            "duration": 0.15200000000001523,
            "durationTicks": 38,
            "midi": 36,
            "name": "C2",
            "ticks": 48480,
            "time": 193.92,
            "velocity": 0.6850393700787402
          },
          {
            "duration": 0.09199999999998454,
            "durationTicks": 23,
            "midi": 42,
            "name": "F#2",
            "ticks": 48540,
            "time": 194.16,
            "velocity": 0.5433070866141733
          },
          {
            "duration": 0.103999999999985,
            "durationTicks": 26,
            "midi": 42,
            "name": "F#2",
            "ticks": 48600,
            "time": 194.4,
            "velocity": 0.6614173228346457
          },
          {
            "duration": 0.3079999999999927,
            "durationTicks": 77,
            "midi": 40,
            "name": "E2",
            "ticks": 48600,
            "time": 194.4,
            "velocity": 0.4645669291338583
          },
          {
            "duration": 0.13999999999998636,
            "durationTicks": 35,
            "midi": 36,
            "name": "C2",
            "ticks": 48600,
            "time": 194.4,
            "velocity": 0.6614173228346457
          },
          {
            "duration": 0.08400000000000318,
            "durationTicks": 21,
            "midi": 42,
            "name": "F#2",
            "ticks": 48660,
            "time": 194.64,
            "velocity": 0.5433070866141733
          },
          {
            "duration": 0.09600000000000364,
            "durationTicks": 24,
            "midi": 42,
            "name": "F#2",
            "ticks": 48720,
            "time": 194.88,
            "velocity": 0.6614173228346457
          },
          {
            "duration": 0.12000000000000455,
            "durationTicks": 30,
            "midi": 36,
            "name": "C2",
            "ticks": 48720,
            "time": 194.88,
            "velocity": 0.6614173228346457
          },
          {
            "duration": 0.0759999999999934,
            "durationTicks": 19,
            "midi": 42,
            "name": "F#2",
            "ticks": 48780,
            "time": 195.12,
            "velocity": 0.5905511811023622
          },
          {
            "duration": 0.21999999999999886,
            "durationTicks": 55,
            "midi": 40,
            "name": "E2",
            "ticks": 48840,
            "time": 195.35999999999999,
            "velocity": 0.4645669291338583
          },
          {
            "duration": 0.11200000000002319,
            "durationTicks": 28,
            "midi": 42,
            "name": "F#2",
            "ticks": 48840,
            "time": 195.35999999999999,
            "velocity": 0.5905511811023622
          },
          {
            "duration": 0.103999999999985,
            "durationTicks": 26,
            "midi": 36,
            "name": "C2",
            "ticks": 48840,
            "time": 195.35999999999999,
            "velocity": 0.7874015748031497
          },
          {
            "duration": 0.08400000000000318,
            "durationTicks": 21,
            "midi": 46,
            "name": "A#2",
            "ticks": 48900,
            "time": 195.6,
            "velocity": 0.7874015748031497
          },
          {
            "duration": 0.09999999999999432,
            "durationTicks": 25,
            "midi": 42,
            "name": "F#2",
            "ticks": 48960,
            "time": 195.84,
            "velocity": 0.6850393700787402
          },
          {
            "duration": 0.1519999999999868,
            "durationTicks": 38,
            "midi": 36,
            "name": "C2",
            "ticks": 48960,
            "time": 195.84,
            "velocity": 0.6850393700787402
          },
          {
            "duration": 0.09200000000001296,
            "durationTicks": 23,
            "midi": 42,
            "name": "F#2",
            "ticks": 49020,
            "time": 196.07999999999998,
            "velocity": 0.5433070866141733
          },
          {
            "duration": 0.103999999999985,
            "durationTicks": 26,
            "midi": 42,
            "name": "F#2",
            "ticks": 49080,
            "time": 196.32,
            "velocity": 0.6614173228346457
          },
          {
            "duration": 0.3079999999999927,
            "durationTicks": 77,
            "midi": 40,
            "name": "E2",
            "ticks": 49080,
            "time": 196.32,
            "velocity": 0.4645669291338583
          },
          {
            "duration": 0.14000000000001478,
            "durationTicks": 35,
            "midi": 36,
            "name": "C2",
            "ticks": 49080,
            "time": 196.32,
            "velocity": 0.6614173228346457
          },
          {
            "duration": 0.08400000000000318,
            "durationTicks": 21,
            "midi": 42,
            "name": "F#2",
            "ticks": 49140,
            "time": 196.56,
            "velocity": 0.5433070866141733
          },
          {
            "duration": 0.09600000000000364,
            "durationTicks": 24,
            "midi": 42,
            "name": "F#2",
            "ticks": 49200,
            "time": 196.79999999999998,
            "velocity": 0.6614173228346457
          },
          {
            "duration": 0.12000000000000455,
            "durationTicks": 30,
            "midi": 36,
            "name": "C2",
            "ticks": 49200,
            "time": 196.79999999999998,
            "velocity": 0.6614173228346457
          },
          {
            "duration": 0.07600000000002183,
            "durationTicks": 19,
            "midi": 42,
            "name": "F#2",
            "ticks": 49260,
            "time": 197.04,
            "velocity": 0.5905511811023622
          },
          {
            "duration": 0.21999999999997044,
            "durationTicks": 55,
            "midi": 40,
            "name": "E2",
            "ticks": 49320,
            "time": 197.28,
            "velocity": 0.4645669291338583
          },
          {
            "duration": 0.11199999999999477,
            "durationTicks": 28,
            "midi": 42,
            "name": "F#2",
            "ticks": 49320,
            "time": 197.28,
            "velocity": 0.5905511811023622
          },
          {
            "duration": 0.103999999999985,
            "durationTicks": 26,
            "midi": 36,
            "name": "C2",
            "ticks": 49320,
            "time": 197.28,
            "velocity": 0.7874015748031497
          },
          {
            "duration": 0.08400000000000318,
            "durationTicks": 21,
            "midi": 46,
            "name": "A#2",
            "ticks": 49380,
            "time": 197.51999999999998,
            "velocity": 0.7874015748031497
          },
          {
            "duration": 0.09999999999999432,
            "durationTicks": 25,
            "midi": 42,
            "name": "F#2",
            "ticks": 49440,
            "time": 197.76,
            "velocity": 0.6850393700787402
          },
          {
            "duration": 0.1519999999999868,
            "durationTicks": 38,
            "midi": 36,
            "name": "C2",
            "ticks": 49440,
            "time": 197.76,
            "velocity": 0.6850393700787402
          },
          {
            "duration": 0.09199999999998454,
            "durationTicks": 23,
            "midi": 42,
            "name": "F#2",
            "ticks": 49500,
            "time": 198,
            "velocity": 0.5433070866141733
          },
          {
            "duration": 0.10400000000001342,
            "durationTicks": 26,
            "midi": 42,
            "name": "F#2",
            "ticks": 49560,
            "time": 198.23999999999998,
            "velocity": 0.6614173228346457
          },
          {
            "duration": 0.3079999999999927,
            "durationTicks": 77,
            "midi": 40,
            "name": "E2",
            "ticks": 49560,
            "time": 198.23999999999998,
            "velocity": 0.4645669291338583
          },
          {
            "duration": 0.14000000000001478,
            "durationTicks": 35,
            "midi": 36,
            "name": "C2",
            "ticks": 49560,
            "time": 198.23999999999998,
            "velocity": 0.6614173228346457
          },
          {
            "duration": 0.08400000000000318,
            "durationTicks": 21,
            "midi": 42,
            "name": "F#2",
            "ticks": 49620,
            "time": 198.48,
            "velocity": 0.5433070866141733
          },
          {
            "duration": 0.09599999999997522,
            "durationTicks": 24,
            "midi": 42,
            "name": "F#2",
            "ticks": 49680,
            "time": 198.72,
            "velocity": 0.6614173228346457
          },
          {
            "duration": 0.12000000000000455,
            "durationTicks": 30,
            "midi": 36,
            "name": "C2",
            "ticks": 49680,
            "time": 198.72,
            "velocity": 0.6614173228346457
          },
          {
            "duration": 0.07600000000002183,
            "durationTicks": 19,
            "midi": 42,
            "name": "F#2",
            "ticks": 49740,
            "time": 198.95999999999998,
            "velocity": 0.5905511811023622
          },
          {
            "duration": 0.21999999999999886,
            "durationTicks": 55,
            "midi": 40,
            "name": "E2",
            "ticks": 49800,
            "time": 199.2,
            "velocity": 0.4645669291338583
          },
          {
            "duration": 0.11200000000002319,
            "durationTicks": 28,
            "midi": 42,
            "name": "F#2",
            "ticks": 49800,
            "time": 199.2,
            "velocity": 0.5905511811023622
          },
          {
            "duration": 0.103999999999985,
            "durationTicks": 26,
            "midi": 36,
            "name": "C2",
            "ticks": 49800,
            "time": 199.2,
            "velocity": 0.7874015748031497
          },
          {
            "duration": 0.08400000000000318,
            "durationTicks": 21,
            "midi": 46,
            "name": "A#2",
            "ticks": 49860,
            "time": 199.44,
            "velocity": 0.7874015748031497
          },
          {
            "duration": 0.0999999999999659,
            "durationTicks": 25,
            "midi": 42,
            "name": "F#2",
            "ticks": 49920,
            "time": 199.68,
            "velocity": 0.6850393700787402
          },
          {
            "duration": 0.1519999999999868,
            "durationTicks": 38,
            "midi": 36,
            "name": "C2",
            "ticks": 49920,
            "time": 199.68,
            "velocity": 0.6850393700787402
          },
          {
            "duration": 0.09200000000001296,
            "durationTicks": 23,
            "midi": 42,
            "name": "F#2",
            "ticks": 49980,
            "time": 199.92,
            "velocity": 0.5433070866141733
          },
          {
            "duration": 0.103999999999985,
            "durationTicks": 26,
            "midi": 42,
            "name": "F#2",
            "ticks": 50040,
            "time": 200.16,
            "velocity": 0.6614173228346457
          },
          {
            "duration": 0.3079999999999927,
            "durationTicks": 77,
            "midi": 40,
            "name": "E2",
            "ticks": 50040,
            "time": 200.16,
            "velocity": 0.4645669291338583
          },
          {
            "duration": 0.14000000000001478,
            "durationTicks": 35,
            "midi": 36,
            "name": "C2",
            "ticks": 50040,
            "time": 200.16,
            "velocity": 0.6614173228346457
          },
          {
            "duration": 0.08400000000000318,
            "durationTicks": 21,
            "midi": 42,
            "name": "F#2",
            "ticks": 50100,
            "time": 200.4,
            "velocity": 0.5433070866141733
          },
          {
            "duration": 0.09600000000000364,
            "durationTicks": 24,
            "midi": 42,
            "name": "F#2",
            "ticks": 50160,
            "time": 200.64,
            "velocity": 0.6614173228346457
          },
          {
            "duration": 0.12000000000000455,
            "durationTicks": 30,
            "midi": 36,
            "name": "C2",
            "ticks": 50160,
            "time": 200.64,
            "velocity": 0.6614173228346457
          },
          {
            "duration": 0.07600000000002183,
            "durationTicks": 19,
            "midi": 42,
            "name": "F#2",
            "ticks": 50220,
            "time": 200.88,
            "velocity": 0.5905511811023622
          },
          {
            "duration": 0.21999999999997044,
            "durationTicks": 55,
            "midi": 40,
            "name": "E2",
            "ticks": 50280,
            "time": 201.12,
            "velocity": 0.4645669291338583
          },
          {
            "duration": 0.11199999999999477,
            "durationTicks": 28,
            "midi": 42,
            "name": "F#2",
            "ticks": 50280,
            "time": 201.12,
            "velocity": 0.5905511811023622
          },
          {
            "duration": 0.103999999999985,
            "durationTicks": 26,
            "midi": 36,
            "name": "C2",
            "ticks": 50280,
            "time": 201.12,
            "velocity": 0.7874015748031497
          },
          {
            "duration": 0.08400000000000318,
            "durationTicks": 21,
            "midi": 46,
            "name": "A#2",
            "ticks": 50340,
            "time": 201.35999999999999,
            "velocity": 0.7874015748031497
          },
          {
            "duration": 0.09999999999999432,
            "durationTicks": 25,
            "midi": 42,
            "name": "F#2",
            "ticks": 50400,
            "time": 201.6,
            "velocity": 0.6850393700787402
          },
          {
            "duration": 0.1519999999999868,
            "durationTicks": 38,
            "midi": 36,
            "name": "C2",
            "ticks": 50400,
            "time": 201.6,
            "velocity": 0.6850393700787402
          },
          {
            "duration": 0.09199999999998454,
            "durationTicks": 23,
            "midi": 42,
            "name": "F#2",
            "ticks": 50460,
            "time": 201.84,
            "velocity": 0.5433070866141733
          },
          {
            "duration": 0.103999999999985,
            "durationTicks": 26,
            "midi": 42,
            "name": "F#2",
            "ticks": 50520,
            "time": 202.07999999999998,
            "velocity": 0.6614173228346457
          },
          {
            "duration": 0.3079999999999927,
            "durationTicks": 77,
            "midi": 40,
            "name": "E2",
            "ticks": 50520,
            "time": 202.07999999999998,
            "velocity": 0.4645669291338583
          },
          {
            "duration": 0.14000000000001478,
            "durationTicks": 35,
            "midi": 36,
            "name": "C2",
            "ticks": 50520,
            "time": 202.07999999999998,
            "velocity": 0.6614173228346457
          },
          {
            "duration": 0.08400000000000318,
            "durationTicks": 21,
            "midi": 42,
            "name": "F#2",
            "ticks": 50580,
            "time": 202.32,
            "velocity": 0.5433070866141733
          },
          {
            "duration": 0.09599999999997522,
            "durationTicks": 24,
            "midi": 42,
            "name": "F#2",
            "ticks": 50640,
            "time": 202.56,
            "velocity": 0.6614173228346457
          },
          {
            "duration": 0.11999999999997613,
            "durationTicks": 30,
            "midi": 36,
            "name": "C2",
            "ticks": 50640,
            "time": 202.56,
            "velocity": 0.6614173228346457
          },
          {
            "duration": 0.07600000000002183,
            "durationTicks": 19,
            "midi": 42,
            "name": "F#2",
            "ticks": 50700,
            "time": 202.79999999999998,
            "velocity": 0.5905511811023622
          },
          {
            "duration": 0.21999999999999886,
            "durationTicks": 55,
            "midi": 40,
            "name": "E2",
            "ticks": 50760,
            "time": 203.04,
            "velocity": 0.4645669291338583
          },
          {
            "duration": 0.11199999999999477,
            "durationTicks": 28,
            "midi": 42,
            "name": "F#2",
            "ticks": 50760,
            "time": 203.04,
            "velocity": 0.5905511811023622
          },
          {
            "duration": 0.103999999999985,
            "durationTicks": 26,
            "midi": 36,
            "name": "C2",
            "ticks": 50760,
            "time": 203.04,
            "velocity": 0.7874015748031497
          },
          {
            "duration": 0.08400000000000318,
            "durationTicks": 21,
            "midi": 46,
            "name": "A#2",
            "ticks": 50820,
            "time": 203.28,
            "velocity": 0.7874015748031497
          },
          {
            "duration": 0.09999999999999432,
            "durationTicks": 25,
            "midi": 42,
            "name": "F#2",
            "ticks": 50880,
            "time": 203.51999999999998,
            "velocity": 0.6850393700787402
          },
          {
            "duration": 0.15200000000001523,
            "durationTicks": 38,
            "midi": 36,
            "name": "C2",
            "ticks": 50880,
            "time": 203.51999999999998,
            "velocity": 0.6850393700787402
          },
          {
            "duration": 0.09200000000001296,
            "durationTicks": 23,
            "midi": 42,
            "name": "F#2",
            "ticks": 50940,
            "time": 203.76,
            "velocity": 0.5433070866141733
          },
          {
            "duration": 0.103999999999985,
            "durationTicks": 26,
            "midi": 42,
            "name": "F#2",
            "ticks": 51000,
            "time": 204,
            "velocity": 0.6614173228346457
          },
          {
            "duration": 0.3079999999999927,
            "durationTicks": 77,
            "midi": 40,
            "name": "E2",
            "ticks": 51000,
            "time": 204,
            "velocity": 0.4645669291338583
          },
          {
            "duration": 0.14000000000001478,
            "durationTicks": 35,
            "midi": 36,
            "name": "C2",
            "ticks": 51000,
            "time": 204,
            "velocity": 0.6614173228346457
          },
          {
            "duration": 0.08400000000000318,
            "durationTicks": 21,
            "midi": 42,
            "name": "F#2",
            "ticks": 51060,
            "time": 204.23999999999998,
            "velocity": 0.5433070866141733
          },
          {
            "duration": 0.09600000000000364,
            "durationTicks": 24,
            "midi": 42,
            "name": "F#2",
            "ticks": 51120,
            "time": 204.48,
            "velocity": 0.6614173228346457
          },
          {
            "duration": 0.12000000000000455,
            "durationTicks": 30,
            "midi": 36,
            "name": "C2",
            "ticks": 51120,
            "time": 204.48,
            "velocity": 0.6614173228346457
          },
          {
            "duration": 0.0759999999999934,
            "durationTicks": 19,
            "midi": 42,
            "name": "F#2",
            "ticks": 51180,
            "time": 204.72,
            "velocity": 0.5905511811023622
          },
          {
            "duration": 0.21999999999999886,
            "durationTicks": 55,
            "midi": 40,
            "name": "E2",
            "ticks": 51240,
            "time": 204.95999999999998,
            "velocity": 0.4645669291338583
          },
          {
            "duration": 0.11200000000002319,
            "durationTicks": 28,
            "midi": 42,
            "name": "F#2",
            "ticks": 51240,
            "time": 204.95999999999998,
            "velocity": 0.5905511811023622
          },
          {
            "duration": 0.10400000000001342,
            "durationTicks": 26,
            "midi": 36,
            "name": "C2",
            "ticks": 51240,
            "time": 204.95999999999998,
            "velocity": 0.7874015748031497
          },
          {
            "duration": 0.08400000000000318,
            "durationTicks": 21,
            "midi": 46,
            "name": "A#2",
            "ticks": 51300,
            "time": 205.2,
            "velocity": 0.7874015748031497
          },
          {
            "duration": 0.09999999999999432,
            "durationTicks": 25,
            "midi": 42,
            "name": "F#2",
            "ticks": 51360,
            "time": 205.44,
            "velocity": 0.6850393700787402
          },
          {
            "duration": 0.1519999999999868,
            "durationTicks": 38,
            "midi": 36,
            "name": "C2",
            "ticks": 51360,
            "time": 205.44,
            "velocity": 0.6850393700787402
          },
          {
            "duration": 0.09200000000001296,
            "durationTicks": 23,
            "midi": 42,
            "name": "F#2",
            "ticks": 51420,
            "time": 205.67999999999998,
            "velocity": 0.5433070866141733
          },
          {
            "duration": 0.103999999999985,
            "durationTicks": 26,
            "midi": 42,
            "name": "F#2",
            "ticks": 51480,
            "time": 205.92,
            "velocity": 0.6614173228346457
          },
          {
            "duration": 0.3079999999999927,
            "durationTicks": 77,
            "midi": 40,
            "name": "E2",
            "ticks": 51480,
            "time": 205.92,
            "velocity": 0.4645669291338583
          },
          {
            "duration": 0.14000000000001478,
            "durationTicks": 35,
            "midi": 36,
            "name": "C2",
            "ticks": 51480,
            "time": 205.92,
            "velocity": 0.6614173228346457
          },
          {
            "duration": 0.08400000000000318,
            "durationTicks": 21,
            "midi": 42,
            "name": "F#2",
            "ticks": 51540,
            "time": 206.16,
            "velocity": 0.5433070866141733
          },
          {
            "duration": 0.09599999999997522,
            "durationTicks": 24,
            "midi": 42,
            "name": "F#2",
            "ticks": 51600,
            "time": 206.4,
            "velocity": 0.6614173228346457
          },
          {
            "duration": 0.11999999999997613,
            "durationTicks": 30,
            "midi": 36,
            "name": "C2",
            "ticks": 51600,
            "time": 206.4,
            "velocity": 0.6614173228346457
          },
          {
            "duration": 0.07600000000002183,
            "durationTicks": 19,
            "midi": 42,
            "name": "F#2",
            "ticks": 51660,
            "time": 206.64,
            "velocity": 0.5905511811023622
          },
          {
            "duration": 0.21999999999999886,
            "durationTicks": 55,
            "midi": 40,
            "name": "E2",
            "ticks": 51720,
            "time": 206.88,
            "velocity": 0.4645669291338583
          },
          {
            "duration": 0.11199999999999477,
            "durationTicks": 28,
            "midi": 42,
            "name": "F#2",
            "ticks": 51720,
            "time": 206.88,
            "velocity": 0.5905511811023622
          },
          {
            "duration": 0.103999999999985,
            "durationTicks": 26,
            "midi": 36,
            "name": "C2",
            "ticks": 51720,
            "time": 206.88,
            "velocity": 0.7874015748031497
          },
          {
            "duration": 0.08400000000000318,
            "durationTicks": 21,
            "midi": 46,
            "name": "A#2",
            "ticks": 51780,
            "time": 207.12,
            "velocity": 0.7874015748031497
          },
          {
            "duration": 0.09999999999999432,
            "durationTicks": 25,
            "midi": 42,
            "name": "F#2",
            "ticks": 51840,
            "time": 207.35999999999999,
            "velocity": 0.6850393700787402
          },
          {
            "duration": 0.15200000000001523,
            "durationTicks": 38,
            "midi": 36,
            "name": "C2",
            "ticks": 51840,
            "time": 207.35999999999999,
            "velocity": 0.6850393700787402
          },
          {
            "duration": 0.09199999999998454,
            "durationTicks": 23,
            "midi": 42,
            "name": "F#2",
            "ticks": 51900,
            "time": 207.6,
            "velocity": 0.5433070866141733
          },
          {
            "duration": 0.103999999999985,
            "durationTicks": 26,
            "midi": 42,
            "name": "F#2",
            "ticks": 51960,
            "time": 207.84,
            "velocity": 0.6614173228346457
          },
          {
            "duration": 0.3079999999999927,
            "durationTicks": 77,
            "midi": 40,
            "name": "E2",
            "ticks": 51960,
            "time": 207.84,
            "velocity": 0.4645669291338583
          },
          {
            "duration": 0.13999999999998636,
            "durationTicks": 35,
            "midi": 36,
            "name": "C2",
            "ticks": 51960,
            "time": 207.84,
            "velocity": 0.6614173228346457
          },
          {
            "duration": 0.08400000000000318,
            "durationTicks": 21,
            "midi": 42,
            "name": "F#2",
            "ticks": 52020,
            "time": 208.07999999999998,
            "velocity": 0.5433070866141733
          },
          {
            "duration": 0.09600000000000364,
            "durationTicks": 24,
            "midi": 42,
            "name": "F#2",
            "ticks": 52080,
            "time": 208.32,
            "velocity": 0.6614173228346457
          },
          {
            "duration": 0.12000000000000455,
            "durationTicks": 30,
            "midi": 36,
            "name": "C2",
            "ticks": 52080,
            "time": 208.32,
            "velocity": 0.6614173228346457
          },
          {
            "duration": 0.0759999999999934,
            "durationTicks": 19,
            "midi": 42,
            "name": "F#2",
            "ticks": 52140,
            "time": 208.56,
            "velocity": 0.5905511811023622
          },
          {
            "duration": 0.21999999999999886,
            "durationTicks": 55,
            "midi": 40,
            "name": "E2",
            "ticks": 52200,
            "time": 208.79999999999998,
            "velocity": 0.4645669291338583
          },
          {
            "duration": 0.11200000000002319,
            "durationTicks": 28,
            "midi": 42,
            "name": "F#2",
            "ticks": 52200,
            "time": 208.79999999999998,
            "velocity": 0.5905511811023622
          },
          {
            "duration": 0.103999999999985,
            "durationTicks": 26,
            "midi": 36,
            "name": "C2",
            "ticks": 52200,
            "time": 208.79999999999998,
            "velocity": 0.7874015748031497
          },
          {
            "duration": 0.08400000000000318,
            "durationTicks": 21,
            "midi": 46,
            "name": "A#2",
            "ticks": 52260,
            "time": 209.04,
            "velocity": 0.7874015748031497
          },
          {
            "duration": 0.09999999999999432,
            "durationTicks": 25,
            "midi": 42,
            "name": "F#2",
            "ticks": 52320,
            "time": 209.28,
            "velocity": 0.6850393700787402
          },
          {
            "duration": 0.1519999999999868,
            "durationTicks": 38,
            "midi": 36,
            "name": "C2",
            "ticks": 52320,
            "time": 209.28,
            "velocity": 0.6850393700787402
          },
          {
            "duration": 0.09200000000001296,
            "durationTicks": 23,
            "midi": 42,
            "name": "F#2",
            "ticks": 52380,
            "time": 209.51999999999998,
            "velocity": 0.5433070866141733
          },
          {
            "duration": 0.103999999999985,
            "durationTicks": 26,
            "midi": 42,
            "name": "F#2",
            "ticks": 52440,
            "time": 209.76,
            "velocity": 0.6614173228346457
          },
          {
            "duration": 0.3079999999999927,
            "durationTicks": 77,
            "midi": 40,
            "name": "E2",
            "ticks": 52440,
            "time": 209.76,
            "velocity": 0.4645669291338583
          },
          {
            "duration": 0.14000000000001478,
            "durationTicks": 35,
            "midi": 36,
            "name": "C2",
            "ticks": 52440,
            "time": 209.76,
            "velocity": 0.6614173228346457
          },
          {
            "duration": 0.08400000000000318,
            "durationTicks": 21,
            "midi": 42,
            "name": "F#2",
            "ticks": 52500,
            "time": 210,
            "velocity": 0.5433070866141733
          },
          {
            "duration": 0.09600000000000364,
            "durationTicks": 24,
            "midi": 42,
            "name": "F#2",
            "ticks": 52560,
            "time": 210.23999999999998,
            "velocity": 0.6614173228346457
          },
          {
            "duration": 0.12000000000000455,
            "durationTicks": 30,
            "midi": 36,
            "name": "C2",
            "ticks": 52560,
            "time": 210.23999999999998,
            "velocity": 0.6614173228346457
          },
          {
            "duration": 0.07600000000002183,
            "durationTicks": 19,
            "midi": 42,
            "name": "F#2",
            "ticks": 52620,
            "time": 210.48,
            "velocity": 0.5905511811023622
          },
          {
            "duration": 0.21999999999997044,
            "durationTicks": 55,
            "midi": 40,
            "name": "E2",
            "ticks": 52680,
            "time": 210.72,
            "velocity": 0.4645669291338583
          },
          {
            "duration": 0.11199999999999477,
            "durationTicks": 28,
            "midi": 42,
            "name": "F#2",
            "ticks": 52680,
            "time": 210.72,
            "velocity": 0.5905511811023622
          },
          {
            "duration": 0.103999999999985,
            "durationTicks": 26,
            "midi": 36,
            "name": "C2",
            "ticks": 52680,
            "time": 210.72,
            "velocity": 0.7874015748031497
          },
          {
            "duration": 0.0840000000000316,
            "durationTicks": 21,
            "midi": 46,
            "name": "A#2",
            "ticks": 52740,
            "time": 210.95999999999998,
            "velocity": 0.7874015748031497
          },
          {
            "duration": 0.09999999999999432,
            "durationTicks": 25,
            "midi": 42,
            "name": "F#2",
            "ticks": 52800,
            "time": 211.2,
            "velocity": 0.6850393700787402
          },
          {
            "duration": 0.15200000000001523,
            "durationTicks": 38,
            "midi": 36,
            "name": "C2",
            "ticks": 52800,
            "time": 211.2,
            "velocity": 0.6850393700787402
          },
          {
            "duration": 0.09199999999998454,
            "durationTicks": 23,
            "midi": 42,
            "name": "F#2",
            "ticks": 52860,
            "time": 211.44,
            "velocity": 0.5433070866141733
          },
          {
            "duration": 0.10400000000001342,
            "durationTicks": 26,
            "midi": 42,
            "name": "F#2",
            "ticks": 52920,
            "time": 211.67999999999998,
            "velocity": 0.6614173228346457
          },
          {
            "duration": 0.3079999999999927,
            "durationTicks": 77,
            "midi": 40,
            "name": "E2",
            "ticks": 52920,
            "time": 211.67999999999998,
            "velocity": 0.4645669291338583
          },
          {
            "duration": 0.14000000000001478,
            "durationTicks": 35,
            "midi": 36,
            "name": "C2",
            "ticks": 52920,
            "time": 211.67999999999998,
            "velocity": 0.6614173228346457
          },
          {
            "duration": 0.08400000000000318,
            "durationTicks": 21,
            "midi": 42,
            "name": "F#2",
            "ticks": 52980,
            "time": 211.92,
            "velocity": 0.5433070866141733
          },
          {
            "duration": 0.09600000000000364,
            "durationTicks": 24,
            "midi": 42,
            "name": "F#2",
            "ticks": 53040,
            "time": 212.16,
            "velocity": 0.6614173228346457
          },
          {
            "duration": 0.12000000000000455,
            "durationTicks": 30,
            "midi": 36,
            "name": "C2",
            "ticks": 53040,
            "time": 212.16,
            "velocity": 0.6614173228346457
          },
          {
            "duration": 0.0759999999999934,
            "durationTicks": 19,
            "midi": 42,
            "name": "F#2",
            "ticks": 53100,
            "time": 212.4,
            "velocity": 0.5905511811023622
          },
          {
            "duration": 0.21999999999999886,
            "durationTicks": 55,
            "midi": 40,
            "name": "E2",
            "ticks": 53160,
            "time": 212.64,
            "velocity": 0.4645669291338583
          },
          {
            "duration": 0.11200000000002319,
            "durationTicks": 28,
            "midi": 42,
            "name": "F#2",
            "ticks": 53160,
            "time": 212.64,
            "velocity": 0.5905511811023622
          },
          {
            "duration": 0.103999999999985,
            "durationTicks": 26,
            "midi": 36,
            "name": "C2",
            "ticks": 53160,
            "time": 212.64,
            "velocity": 0.7874015748031497
          },
          {
            "duration": 0.08400000000000318,
            "durationTicks": 21,
            "midi": 46,
            "name": "A#2",
            "ticks": 53220,
            "time": 212.88,
            "velocity": 0.7874015748031497
          },
          {
            "duration": 0.0999999999999659,
            "durationTicks": 25,
            "midi": 42,
            "name": "F#2",
            "ticks": 53280,
            "time": 213.12,
            "velocity": 0.6850393700787402
          },
          {
            "duration": 0.1519999999999868,
            "durationTicks": 38,
            "midi": 36,
            "name": "C2",
            "ticks": 53280,
            "time": 213.12,
            "velocity": 0.6850393700787402
          },
          {
            "duration": 0.09200000000001296,
            "durationTicks": 23,
            "midi": 42,
            "name": "F#2",
            "ticks": 53340,
            "time": 213.35999999999999,
            "velocity": 0.5433070866141733
          },
          {
            "duration": 0.103999999999985,
            "durationTicks": 26,
            "midi": 42,
            "name": "F#2",
            "ticks": 53400,
            "time": 213.6,
            "velocity": 0.6614173228346457
          },
          {
            "duration": 0.3079999999999927,
            "durationTicks": 77,
            "midi": 40,
            "name": "E2",
            "ticks": 53400,
            "time": 213.6,
            "velocity": 0.4645669291338583
          },
          {
            "duration": 0.14000000000001478,
            "durationTicks": 35,
            "midi": 36,
            "name": "C2",
            "ticks": 53400,
            "time": 213.6,
            "velocity": 0.6614173228346457
          },
          {
            "duration": 0.08400000000000318,
            "durationTicks": 21,
            "midi": 42,
            "name": "F#2",
            "ticks": 53460,
            "time": 213.84,
            "velocity": 0.5433070866141733
          },
          {
            "duration": 0.09600000000000364,
            "durationTicks": 24,
            "midi": 42,
            "name": "F#2",
            "ticks": 53520,
            "time": 214.07999999999998,
            "velocity": 0.6614173228346457
          },
          {
            "duration": 0.12000000000000455,
            "durationTicks": 30,
            "midi": 36,
            "name": "C2",
            "ticks": 53520,
            "time": 214.07999999999998,
            "velocity": 0.6614173228346457
          },
          {
            "duration": 0.07600000000002183,
            "durationTicks": 19,
            "midi": 42,
            "name": "F#2",
            "ticks": 53580,
            "time": 214.32,
            "velocity": 0.5905511811023622
          },
          {
            "duration": 0.21999999999997044,
            "durationTicks": 55,
            "midi": 40,
            "name": "E2",
            "ticks": 53640,
            "time": 214.56,
            "velocity": 0.4645669291338583
          },
          {
            "duration": 0.11199999999999477,
            "durationTicks": 28,
            "midi": 42,
            "name": "F#2",
            "ticks": 53640,
            "time": 214.56,
            "velocity": 0.5905511811023622
          },
          {
            "duration": 0.103999999999985,
            "durationTicks": 26,
            "midi": 36,
            "name": "C2",
            "ticks": 53640,
            "time": 214.56,
            "velocity": 0.7874015748031497
          },
          {
            "duration": 0.08400000000000318,
            "durationTicks": 21,
            "midi": 46,
            "name": "A#2",
            "ticks": 53700,
            "time": 214.79999999999998,
            "velocity": 0.7874015748031497
          },
          {
            "duration": 0.09999999999999432,
            "durationTicks": 25,
            "midi": 42,
            "name": "F#2",
            "ticks": 53760,
            "time": 215.04,
            "velocity": 0.6850393700787402
          },
          {
            "duration": 0.1519999999999868,
            "durationTicks": 38,
            "midi": 36,
            "name": "C2",
            "ticks": 53760,
            "time": 215.04,
            "velocity": 0.6850393700787402
          },
          {
            "duration": 0.09199999999998454,
            "durationTicks": 23,
            "midi": 42,
            "name": "F#2",
            "ticks": 53820,
            "time": 215.28,
            "velocity": 0.5433070866141733
          },
          {
            "duration": 0.103999999999985,
            "durationTicks": 26,
            "midi": 42,
            "name": "F#2",
            "ticks": 53880,
            "time": 215.51999999999998,
            "velocity": 0.6614173228346457
          },
          {
            "duration": 0.3079999999999927,
            "durationTicks": 77,
            "midi": 40,
            "name": "E2",
            "ticks": 53880,
            "time": 215.51999999999998,
            "velocity": 0.4645669291338583
          },
          {
            "duration": 0.14000000000001478,
            "durationTicks": 35,
            "midi": 36,
            "name": "C2",
            "ticks": 53880,
            "time": 215.51999999999998,
            "velocity": 0.6614173228346457
          },
          {
            "duration": 0.08400000000000318,
            "durationTicks": 21,
            "midi": 42,
            "name": "F#2",
            "ticks": 53940,
            "time": 215.76,
            "velocity": 0.5433070866141733
          },
          {
            "duration": 0.09599999999997522,
            "durationTicks": 24,
            "midi": 42,
            "name": "F#2",
            "ticks": 54000,
            "time": 216,
            "velocity": 0.6614173228346457
          },
          {
            "duration": 0.12000000000000455,
            "durationTicks": 30,
            "midi": 36,
            "name": "C2",
            "ticks": 54000,
            "time": 216,
            "velocity": 0.6614173228346457
          },
          {
            "duration": 0.07600000000002183,
            "durationTicks": 19,
            "midi": 42,
            "name": "F#2",
            "ticks": 54060,
            "time": 216.23999999999998,
            "velocity": 0.5905511811023622
          },
          {
            "duration": 0.21999999999999886,
            "durationTicks": 55,
            "midi": 40,
            "name": "E2",
            "ticks": 54120,
            "time": 216.48,
            "velocity": 0.4645669291338583
          },
          {
            "duration": 0.11200000000002319,
            "durationTicks": 28,
            "midi": 42,
            "name": "F#2",
            "ticks": 54120,
            "time": 216.48,
            "velocity": 0.5905511811023622
          },
          {
            "duration": 0.103999999999985,
            "durationTicks": 26,
            "midi": 36,
            "name": "C2",
            "ticks": 54120,
            "time": 216.48,
            "velocity": 0.7874015748031497
          },
          {
            "duration": 0.08400000000000318,
            "durationTicks": 21,
            "midi": 46,
            "name": "A#2",
            "ticks": 54180,
            "time": 216.72,
            "velocity": 0.7874015748031497
          },
          {
            "duration": 0.09999999999999432,
            "durationTicks": 25,
            "midi": 42,
            "name": "F#2",
            "ticks": 54240,
            "time": 216.95999999999998,
            "velocity": 0.6850393700787402
          },
          {
            "duration": 0.15200000000001523,
            "durationTicks": 38,
            "midi": 36,
            "name": "C2",
            "ticks": 54240,
            "time": 216.95999999999998,
            "velocity": 0.6850393700787402
          },
          {
            "duration": 0.09200000000001296,
            "durationTicks": 23,
            "midi": 42,
            "name": "F#2",
            "ticks": 54300,
            "time": 217.2,
            "velocity": 0.5433070866141733
          },
          {
            "duration": 0.103999999999985,
            "durationTicks": 26,
            "midi": 42,
            "name": "F#2",
            "ticks": 54360,
            "time": 217.44,
            "velocity": 0.6614173228346457
          },
          {
            "duration": 0.3079999999999927,
            "durationTicks": 77,
            "midi": 40,
            "name": "E2",
            "ticks": 54360,
            "time": 217.44,
            "velocity": 0.4645669291338583
          },
          {
            "duration": 0.14000000000001478,
            "durationTicks": 35,
            "midi": 36,
            "name": "C2",
            "ticks": 54360,
            "time": 217.44,
            "velocity": 0.6614173228346457
          },
          {
            "duration": 0.0840000000000316,
            "durationTicks": 21,
            "midi": 42,
            "name": "F#2",
            "ticks": 54420,
            "time": 217.67999999999998,
            "velocity": 0.5433070866141733
          },
          {
            "duration": 0.09600000000000364,
            "durationTicks": 24,
            "midi": 42,
            "name": "F#2",
            "ticks": 54480,
            "time": 217.92,
            "velocity": 0.6614173228346457
          },
          {
            "duration": 0.12000000000000455,
            "durationTicks": 30,
            "midi": 36,
            "name": "C2",
            "ticks": 54480,
            "time": 217.92,
            "velocity": 0.6614173228346457
          },
          {
            "duration": 0.07600000000002183,
            "durationTicks": 19,
            "midi": 42,
            "name": "F#2",
            "ticks": 54540,
            "time": 218.16,
            "velocity": 0.5905511811023622
          },
          {
            "duration": 0.21999999999997044,
            "durationTicks": 55,
            "midi": 40,
            "name": "E2",
            "ticks": 54600,
            "time": 218.4,
            "velocity": 0.4645669291338583
          },
          {
            "duration": 0.11199999999999477,
            "durationTicks": 28,
            "midi": 42,
            "name": "F#2",
            "ticks": 54600,
            "time": 218.4,
            "velocity": 0.5905511811023622
          },
          {
            "duration": 0.103999999999985,
            "durationTicks": 26,
            "midi": 36,
            "name": "C2",
            "ticks": 54600,
            "time": 218.4,
            "velocity": 0.7874015748031497
          },
          {
            "duration": 0.08400000000000318,
            "durationTicks": 21,
            "midi": 46,
            "name": "A#2",
            "ticks": 54660,
            "time": 218.64,
            "velocity": 0.7874015748031497
          },
          {
            "duration": 0.09999999999999432,
            "durationTicks": 25,
            "midi": 42,
            "name": "F#2",
            "ticks": 54720,
            "time": 218.88,
            "velocity": 0.6850393700787402
          },
          {
            "duration": 0.1519999999999868,
            "durationTicks": 38,
            "midi": 36,
            "name": "C2",
            "ticks": 54720,
            "time": 218.88,
            "velocity": 0.6850393700787402
          },
          {
            "duration": 0.09199999999998454,
            "durationTicks": 23,
            "midi": 42,
            "name": "F#2",
            "ticks": 54780,
            "time": 219.12,
            "velocity": 0.5433070866141733
          },
          {
            "duration": 0.103999999999985,
            "durationTicks": 26,
            "midi": 42,
            "name": "F#2",
            "ticks": 54840,
            "time": 219.35999999999999,
            "velocity": 0.6614173228346457
          },
          {
            "duration": 0.3079999999999927,
            "durationTicks": 77,
            "midi": 40,
            "name": "E2",
            "ticks": 54840,
            "time": 219.35999999999999,
            "velocity": 0.4645669291338583
          },
          {
            "duration": 0.14000000000001478,
            "durationTicks": 35,
            "midi": 36,
            "name": "C2",
            "ticks": 54840,
            "time": 219.35999999999999,
            "velocity": 0.6614173228346457
          },
          {
            "duration": 0.08400000000000318,
            "durationTicks": 21,
            "midi": 42,
            "name": "F#2",
            "ticks": 54900,
            "time": 219.6,
            "velocity": 0.5433070866141733
          },
          {
            "duration": 0.09599999999997522,
            "durationTicks": 24,
            "midi": 42,
            "name": "F#2",
            "ticks": 54960,
            "time": 219.84,
            "velocity": 0.6614173228346457
          },
          {
            "duration": 0.11999999999997613,
            "durationTicks": 30,
            "midi": 36,
            "name": "C2",
            "ticks": 54960,
            "time": 219.84,
            "velocity": 0.6614173228346457
          },
          {
            "duration": 0.07600000000002183,
            "durationTicks": 19,
            "midi": 42,
            "name": "F#2",
            "ticks": 55020,
            "time": 220.07999999999998,
            "velocity": 0.5905511811023622
          },
          {
            "duration": 0.21999999999999886,
            "durationTicks": 55,
            "midi": 40,
            "name": "E2",
            "ticks": 55080,
            "time": 220.32,
            "velocity": 0.4645669291338583
          },
          {
            "duration": 0.11199999999999477,
            "durationTicks": 28,
            "midi": 42,
            "name": "F#2",
            "ticks": 55080,
            "time": 220.32,
            "velocity": 0.5905511811023622
          },
          {
            "duration": 0.103999999999985,
            "durationTicks": 26,
            "midi": 36,
            "name": "C2",
            "ticks": 55080,
            "time": 220.32,
            "velocity": 0.7874015748031497
          },
          {
            "duration": 0.08400000000000318,
            "durationTicks": 21,
            "midi": 46,
            "name": "A#2",
            "ticks": 55140,
            "time": 220.56,
            "velocity": 0.7874015748031497
          },
          {
            "duration": 0.09999999999999432,
            "durationTicks": 25,
            "midi": 42,
            "name": "F#2",
            "ticks": 55200,
            "time": 220.79999999999998,
            "velocity": 0.6850393700787402
          },
          {
            "duration": 0.15200000000001523,
            "durationTicks": 38,
            "midi": 36,
            "name": "C2",
            "ticks": 55200,
            "time": 220.79999999999998,
            "velocity": 0.6850393700787402
          },
          {
            "duration": 0.09199999999998454,
            "durationTicks": 23,
            "midi": 42,
            "name": "F#2",
            "ticks": 55260,
            "time": 221.04,
            "velocity": 0.5433070866141733
          },
          {
            "duration": 0.103999999999985,
            "durationTicks": 26,
            "midi": 42,
            "name": "F#2",
            "ticks": 55320,
            "time": 221.28,
            "velocity": 0.6614173228346457
          },
          {
            "duration": 0.3079999999999927,
            "durationTicks": 77,
            "midi": 40,
            "name": "E2",
            "ticks": 55320,
            "time": 221.28,
            "velocity": 0.4645669291338583
          },
          {
            "duration": 0.13999999999998636,
            "durationTicks": 35,
            "midi": 36,
            "name": "C2",
            "ticks": 55320,
            "time": 221.28,
            "velocity": 0.6614173228346457
          },
          {
            "duration": 0.08400000000000318,
            "durationTicks": 21,
            "midi": 42,
            "name": "F#2",
            "ticks": 55380,
            "time": 221.51999999999998,
            "velocity": 0.5433070866141733
          },
          {
            "duration": 0.09600000000000364,
            "durationTicks": 24,
            "midi": 42,
            "name": "F#2",
            "ticks": 55440,
            "time": 221.76,
            "velocity": 0.6614173228346457
          },
          {
            "duration": 0.12000000000000455,
            "durationTicks": 30,
            "midi": 36,
            "name": "C2",
            "ticks": 55440,
            "time": 221.76,
            "velocity": 0.6614173228346457
          },
          {
            "duration": 0.0759999999999934,
            "durationTicks": 19,
            "midi": 42,
            "name": "F#2",
            "ticks": 55500,
            "time": 222,
            "velocity": 0.5905511811023622
          },
          {
            "duration": 0.21999999999999886,
            "durationTicks": 55,
            "midi": 40,
            "name": "E2",
            "ticks": 55560,
            "time": 222.23999999999998,
            "velocity": 0.4645669291338583
          },
          {
            "duration": 0.11200000000002319,
            "durationTicks": 28,
            "midi": 42,
            "name": "F#2",
            "ticks": 55560,
            "time": 222.23999999999998,
            "velocity": 0.5905511811023622
          },
          {
            "duration": 0.103999999999985,
            "durationTicks": 26,
            "midi": 36,
            "name": "C2",
            "ticks": 55560,
            "time": 222.23999999999998,
            "velocity": 0.7874015748031497
          },
          {
            "duration": 0.08400000000000318,
            "durationTicks": 21,
            "midi": 46,
            "name": "A#2",
            "ticks": 55620,
            "time": 222.48,
            "velocity": 0.7874015748031497
          },
          {
            "duration": 0.09999999999999432,
            "durationTicks": 25,
            "midi": 42,
            "name": "F#2",
            "ticks": 55680,
            "time": 222.72,
            "velocity": 0.6850393700787402
          },
          {
            "duration": 0.1519999999999868,
            "durationTicks": 38,
            "midi": 36,
            "name": "C2",
            "ticks": 55680,
            "time": 222.72,
            "velocity": 0.6850393700787402
          },
          {
            "duration": 0.09200000000001296,
            "durationTicks": 23,
            "midi": 42,
            "name": "F#2",
            "ticks": 55740,
            "time": 222.95999999999998,
            "velocity": 0.5433070866141733
          },
          {
            "duration": 0.103999999999985,
            "durationTicks": 26,
            "midi": 42,
            "name": "F#2",
            "ticks": 55800,
            "time": 223.2,
            "velocity": 0.6614173228346457
          },
          {
            "duration": 0.3079999999999927,
            "durationTicks": 77,
            "midi": 40,
            "name": "E2",
            "ticks": 55800,
            "time": 223.2,
            "velocity": 0.4645669291338583
          },
          {
            "duration": 0.14000000000001478,
            "durationTicks": 35,
            "midi": 36,
            "name": "C2",
            "ticks": 55800,
            "time": 223.2,
            "velocity": 0.6614173228346457
          },
          {
            "duration": 0.08400000000000318,
            "durationTicks": 21,
            "midi": 42,
            "name": "F#2",
            "ticks": 55860,
            "time": 223.44,
            "velocity": 0.5433070866141733
          },
          {
            "duration": 0.09600000000000364,
            "durationTicks": 24,
            "midi": 42,
            "name": "F#2",
            "ticks": 55920,
            "time": 223.67999999999998,
            "velocity": 0.6614173228346457
          },
          {
            "duration": 0.12000000000000455,
            "durationTicks": 30,
            "midi": 36,
            "name": "C2",
            "ticks": 55920,
            "time": 223.67999999999998,
            "velocity": 0.6614173228346457
          },
          {
            "duration": 0.07600000000002183,
            "durationTicks": 19,
            "midi": 42,
            "name": "F#2",
            "ticks": 55980,
            "time": 223.92,
            "velocity": 0.5905511811023622
          },
          {
            "duration": 0.21999999999999886,
            "durationTicks": 55,
            "midi": 40,
            "name": "E2",
            "ticks": 56040,
            "time": 224.16,
            "velocity": 0.4645669291338583
          },
          {
            "duration": 0.11199999999999477,
            "durationTicks": 28,
            "midi": 42,
            "name": "F#2",
            "ticks": 56040,
            "time": 224.16,
            "velocity": 0.5905511811023622
          },
          {
            "duration": 0.103999999999985,
            "durationTicks": 26,
            "midi": 36,
            "name": "C2",
            "ticks": 56040,
            "time": 224.16,
            "velocity": 0.7874015748031497
          },
          {
            "duration": 0.08400000000000318,
            "durationTicks": 21,
            "midi": 46,
            "name": "A#2",
            "ticks": 56100,
            "time": 224.4,
            "velocity": 0.7874015748031497
          },
          {
            "duration": 0.09999999999999432,
            "durationTicks": 25,
            "midi": 42,
            "name": "F#2",
            "ticks": 56160,
            "time": 224.64,
            "velocity": 0.6850393700787402
          },
          {
            "duration": 0.15200000000001523,
            "durationTicks": 38,
            "midi": 36,
            "name": "C2",
            "ticks": 56160,
            "time": 224.64,
            "velocity": 0.6850393700787402
          },
          {
            "duration": 0.09199999999998454,
            "durationTicks": 23,
            "midi": 42,
            "name": "F#2",
            "ticks": 56220,
            "time": 224.88,
            "velocity": 0.5433070866141733
          },
          {
            "duration": 0.103999999999985,
            "durationTicks": 26,
            "midi": 42,
            "name": "F#2",
            "ticks": 56280,
            "time": 225.12,
            "velocity": 0.6614173228346457
          },
          {
            "duration": 0.3079999999999927,
            "durationTicks": 77,
            "midi": 40,
            "name": "E2",
            "ticks": 56280,
            "time": 225.12,
            "velocity": 0.4645669291338583
          },
          {
            "duration": 0.13999999999998636,
            "durationTicks": 35,
            "midi": 36,
            "name": "C2",
            "ticks": 56280,
            "time": 225.12,
            "velocity": 0.6614173228346457
          },
          {
            "duration": 0.08400000000000318,
            "durationTicks": 21,
            "midi": 42,
            "name": "F#2",
            "ticks": 56340,
            "time": 225.35999999999999,
            "velocity": 0.5433070866141733
          },
          {
            "duration": 0.09600000000000364,
            "durationTicks": 24,
            "midi": 42,
            "name": "F#2",
            "ticks": 56400,
            "time": 225.6,
            "velocity": 0.6614173228346457
          },
          {
            "duration": 0.12000000000000455,
            "durationTicks": 30,
            "midi": 36,
            "name": "C2",
            "ticks": 56400,
            "time": 225.6,
            "velocity": 0.6614173228346457
          },
          {
            "duration": 0.0759999999999934,
            "durationTicks": 19,
            "midi": 42,
            "name": "F#2",
            "ticks": 56460,
            "time": 225.84,
            "velocity": 0.5905511811023622
          },
          {
            "duration": 0.21999999999999886,
            "durationTicks": 55,
            "midi": 40,
            "name": "E2",
            "ticks": 56520,
            "time": 226.07999999999998,
            "velocity": 0.4645669291338583
          },
          {
            "duration": 0.11200000000002319,
            "durationTicks": 28,
            "midi": 42,
            "name": "F#2",
            "ticks": 56520,
            "time": 226.07999999999998,
            "velocity": 0.5905511811023622
          },
          {
            "duration": 0.103999999999985,
            "durationTicks": 26,
            "midi": 36,
            "name": "C2",
            "ticks": 56520,
            "time": 226.07999999999998,
            "velocity": 0.7874015748031497
          },
          {
            "duration": 0.08400000000000318,
            "durationTicks": 21,
            "midi": 46,
            "name": "A#2",
            "ticks": 56580,
            "time": 226.32,
            "velocity": 0.7874015748031497
          },
          {
            "duration": 0.09999999999999432,
            "durationTicks": 25,
            "midi": 42,
            "name": "F#2",
            "ticks": 56640,
            "time": 226.56,
            "velocity": 0.6850393700787402
          },
          {
            "duration": 0.1519999999999868,
            "durationTicks": 38,
            "midi": 36,
            "name": "C2",
            "ticks": 56640,
            "time": 226.56,
            "velocity": 0.6850393700787402
          },
          {
            "duration": 0.09200000000001296,
            "durationTicks": 23,
            "midi": 42,
            "name": "F#2",
            "ticks": 56700,
            "time": 226.79999999999998,
            "velocity": 0.5433070866141733
          },
          {
            "duration": 0.103999999999985,
            "durationTicks": 26,
            "midi": 42,
            "name": "F#2",
            "ticks": 56760,
            "time": 227.04,
            "velocity": 0.6614173228346457
          },
          {
            "duration": 0.3079999999999927,
            "durationTicks": 77,
            "midi": 40,
            "name": "E2",
            "ticks": 56760,
            "time": 227.04,
            "velocity": 0.4645669291338583
          },
          {
            "duration": 0.14000000000001478,
            "durationTicks": 35,
            "midi": 36,
            "name": "C2",
            "ticks": 56760,
            "time": 227.04,
            "velocity": 0.6614173228346457
          },
          {
            "duration": 0.08400000000000318,
            "durationTicks": 21,
            "midi": 42,
            "name": "F#2",
            "ticks": 56820,
            "time": 227.28,
            "velocity": 0.5433070866141733
          },
          {
            "duration": 0.09600000000000364,
            "durationTicks": 24,
            "midi": 42,
            "name": "F#2",
            "ticks": 56880,
            "time": 227.51999999999998,
            "velocity": 0.6614173228346457
          },
          {
            "duration": 0.12000000000000455,
            "durationTicks": 30,
            "midi": 36,
            "name": "C2",
            "ticks": 56880,
            "time": 227.51999999999998,
            "velocity": 0.6614173228346457
          },
          {
            "duration": 0.07600000000002183,
            "durationTicks": 19,
            "midi": 42,
            "name": "F#2",
            "ticks": 56940,
            "time": 227.76,
            "velocity": 0.5905511811023622
          },
          {
            "duration": 0.21999999999997044,
            "durationTicks": 55,
            "midi": 40,
            "name": "E2",
            "ticks": 57000,
            "time": 228,
            "velocity": 0.4645669291338583
          },
          {
            "duration": 0.11199999999999477,
            "durationTicks": 28,
            "midi": 42,
            "name": "F#2",
            "ticks": 57000,
            "time": 228,
            "velocity": 0.5905511811023622
          },
          {
            "duration": 0.103999999999985,
            "durationTicks": 26,
            "midi": 36,
            "name": "C2",
            "ticks": 57000,
            "time": 228,
            "velocity": 0.7874015748031497
          },
          {
            "duration": 0.08400000000000318,
            "durationTicks": 21,
            "midi": 46,
            "name": "A#2",
            "ticks": 57060,
            "time": 228.23999999999998,
            "velocity": 0.7874015748031497
          },
          {
            "duration": 0.09999999999999432,
            "durationTicks": 25,
            "midi": 42,
            "name": "F#2",
            "ticks": 57120,
            "time": 228.48,
            "velocity": 0.6850393700787402
          },
          {
            "duration": 0.1519999999999868,
            "durationTicks": 38,
            "midi": 36,
            "name": "C2",
            "ticks": 57120,
            "time": 228.48,
            "velocity": 0.6850393700787402
          },
          {
            "duration": 0.09199999999998454,
            "durationTicks": 23,
            "midi": 42,
            "name": "F#2",
            "ticks": 57180,
            "time": 228.72,
            "velocity": 0.5433070866141733
          },
          {
            "duration": 0.10400000000001342,
            "durationTicks": 26,
            "midi": 42,
            "name": "F#2",
            "ticks": 57240,
            "time": 228.95999999999998,
            "velocity": 0.6614173228346457
          },
          {
            "duration": 0.3079999999999927,
            "durationTicks": 77,
            "midi": 40,
            "name": "E2",
            "ticks": 57240,
            "time": 228.95999999999998,
            "velocity": 0.4645669291338583
          },
          {
            "duration": 0.14000000000001478,
            "durationTicks": 35,
            "midi": 36,
            "name": "C2",
            "ticks": 57240,
            "time": 228.95999999999998,
            "velocity": 0.6614173228346457
          },
          {
            "duration": 0.08400000000000318,
            "durationTicks": 21,
            "midi": 42,
            "name": "F#2",
            "ticks": 57300,
            "time": 229.2,
            "velocity": 0.5433070866141733
          },
          {
            "duration": 0.09599999999997522,
            "durationTicks": 24,
            "midi": 42,
            "name": "F#2",
            "ticks": 57360,
            "time": 229.44,
            "velocity": 0.6614173228346457
          },
          {
            "duration": 0.12000000000000455,
            "durationTicks": 30,
            "midi": 36,
            "name": "C2",
            "ticks": 57360,
            "time": 229.44,
            "velocity": 0.6614173228346457
          },
          {
            "duration": 0.07600000000002183,
            "durationTicks": 19,
            "midi": 42,
            "name": "F#2",
            "ticks": 57420,
            "time": 229.67999999999998,
            "velocity": 0.5905511811023622
          },
          {
            "duration": 0.21999999999999886,
            "durationTicks": 55,
            "midi": 40,
            "name": "E2",
            "ticks": 57480,
            "time": 229.92,
            "velocity": 0.4645669291338583
          },
          {
            "duration": 0.11200000000002319,
            "durationTicks": 28,
            "midi": 42,
            "name": "F#2",
            "ticks": 57480,
            "time": 229.92,
            "velocity": 0.5905511811023622
          },
          {
            "duration": 0.103999999999985,
            "durationTicks": 26,
            "midi": 36,
            "name": "C2",
            "ticks": 57480,
            "time": 229.92,
            "velocity": 0.7874015748031497
          },
          {
            "duration": 0.08400000000000318,
            "durationTicks": 21,
            "midi": 46,
            "name": "A#2",
            "ticks": 57540,
            "time": 230.16,
            "velocity": 0.7874015748031497
          },
          {
            "duration": 0.09999999999999432,
            "durationTicks": 25,
            "midi": 42,
            "name": "F#2",
            "ticks": 57600,
            "time": 230.39999999999998,
            "velocity": 0.6850393700787402
          },
          {
            "duration": 0.15200000000001523,
            "durationTicks": 38,
            "midi": 36,
            "name": "C2",
            "ticks": 57600,
            "time": 230.39999999999998,
            "velocity": 0.6850393700787402
          },
          {
            "duration": 0.09200000000001296,
            "durationTicks": 23,
            "midi": 42,
            "name": "F#2",
            "ticks": 57660,
            "time": 230.64,
            "velocity": 0.5433070866141733
          },
          {
            "duration": 0.103999999999985,
            "durationTicks": 26,
            "midi": 42,
            "name": "F#2",
            "ticks": 57720,
            "time": 230.88,
            "velocity": 0.6614173228346457
          },
          {
            "duration": 0.3079999999999927,
            "durationTicks": 77,
            "midi": 40,
            "name": "E2",
            "ticks": 57720,
            "time": 230.88,
            "velocity": 0.4645669291338583
          },
          {
            "duration": 0.14000000000001478,
            "durationTicks": 35,
            "midi": 36,
            "name": "C2",
            "ticks": 57720,
            "time": 230.88,
            "velocity": 0.6614173228346457
          },
          {
            "duration": 0.08400000000000318,
            "durationTicks": 21,
            "midi": 42,
            "name": "F#2",
            "ticks": 57780,
            "time": 231.12,
            "velocity": 0.5433070866141733
          },
          {
            "duration": 0.09600000000000364,
            "durationTicks": 24,
            "midi": 42,
            "name": "F#2",
            "ticks": 57840,
            "time": 231.35999999999999,
            "velocity": 0.6614173228346457
          },
          {
            "duration": 0.12000000000000455,
            "durationTicks": 30,
            "midi": 36,
            "name": "C2",
            "ticks": 57840,
            "time": 231.35999999999999,
            "velocity": 0.6614173228346457
          },
          {
            "duration": 0.07600000000002183,
            "durationTicks": 19,
            "midi": 42,
            "name": "F#2",
            "ticks": 57900,
            "time": 231.6,
            "velocity": 0.5905511811023622
          },
          {
            "duration": 0.21999999999997044,
            "durationTicks": 55,
            "midi": 40,
            "name": "E2",
            "ticks": 57960,
            "time": 231.84,
            "velocity": 0.4645669291338583
          },
          {
            "duration": 0.11199999999999477,
            "durationTicks": 28,
            "midi": 42,
            "name": "F#2",
            "ticks": 57960,
            "time": 231.84,
            "velocity": 0.5905511811023622
          },
          {
            "duration": 0.103999999999985,
            "durationTicks": 26,
            "midi": 36,
            "name": "C2",
            "ticks": 57960,
            "time": 231.84,
            "velocity": 0.7874015748031497
          },
          {
            "duration": 0.08400000000000318,
            "durationTicks": 21,
            "midi": 46,
            "name": "A#2",
            "ticks": 58020,
            "time": 232.07999999999998,
            "velocity": 0.7874015748031497
          },
          {
            "duration": 0.09999999999999432,
            "durationTicks": 25,
            "midi": 42,
            "name": "F#2",
            "ticks": 58080,
            "time": 232.32,
            "velocity": 0.6850393700787402
          },
          {
            "duration": 0.1519999999999868,
            "durationTicks": 38,
            "midi": 36,
            "name": "C2",
            "ticks": 58080,
            "time": 232.32,
            "velocity": 0.6850393700787402
          },
          {
            "duration": 0.09199999999998454,
            "durationTicks": 23,
            "midi": 42,
            "name": "F#2",
            "ticks": 58140,
            "time": 232.56,
            "velocity": 0.5433070866141733
          },
          {
            "duration": 0.103999999999985,
            "durationTicks": 26,
            "midi": 42,
            "name": "F#2",
            "ticks": 58200,
            "time": 232.79999999999998,
            "velocity": 0.6614173228346457
          },
          {
            "duration": 0.3079999999999927,
            "durationTicks": 77,
            "midi": 40,
            "name": "E2",
            "ticks": 58200,
            "time": 232.79999999999998,
            "velocity": 0.4645669291338583
          },
          {
            "duration": 0.14000000000001478,
            "durationTicks": 35,
            "midi": 36,
            "name": "C2",
            "ticks": 58200,
            "time": 232.79999999999998,
            "velocity": 0.6614173228346457
          },
          {
            "duration": 0.08400000000000318,
            "durationTicks": 21,
            "midi": 42,
            "name": "F#2",
            "ticks": 58260,
            "time": 233.04,
            "velocity": 0.5433070866141733
          },
          {
            "duration": 0.09599999999997522,
            "durationTicks": 24,
            "midi": 42,
            "name": "F#2",
            "ticks": 58320,
            "time": 233.28,
            "velocity": 0.6614173228346457
          },
          {
            "duration": 0.11999999999997613,
            "durationTicks": 30,
            "midi": 36,
            "name": "C2",
            "ticks": 58320,
            "time": 233.28,
            "velocity": 0.6614173228346457
          },
          {
            "duration": 0.07600000000002183,
            "durationTicks": 19,
            "midi": 42,
            "name": "F#2",
            "ticks": 58380,
            "time": 233.51999999999998,
            "velocity": 0.5905511811023622
          },
          {
            "duration": 0.21999999999999886,
            "durationTicks": 55,
            "midi": 40,
            "name": "E2",
            "ticks": 58440,
            "time": 233.76,
            "velocity": 0.4645669291338583
          },
          {
            "duration": 0.11199999999999477,
            "durationTicks": 28,
            "midi": 42,
            "name": "F#2",
            "ticks": 58440,
            "time": 233.76,
            "velocity": 0.5905511811023622
          },
          {
            "duration": 0.103999999999985,
            "durationTicks": 26,
            "midi": 36,
            "name": "C2",
            "ticks": 58440,
            "time": 233.76,
            "velocity": 0.7874015748031497
          },
          {
            "duration": 0.08400000000000318,
            "durationTicks": 21,
            "midi": 46,
            "name": "A#2",
            "ticks": 58500,
            "time": 234,
            "velocity": 0.7874015748031497
          },
          {
            "duration": 0.09999999999999432,
            "durationTicks": 25,
            "midi": 42,
            "name": "F#2",
            "ticks": 58560,
            "time": 234.23999999999998,
            "velocity": 0.6850393700787402
          },
          {
            "duration": 0.15200000000001523,
            "durationTicks": 38,
            "midi": 36,
            "name": "C2",
            "ticks": 58560,
            "time": 234.23999999999998,
            "velocity": 0.6850393700787402
          },
          {
            "duration": 0.09200000000001296,
            "durationTicks": 23,
            "midi": 42,
            "name": "F#2",
            "ticks": 58620,
            "time": 234.48,
            "velocity": 0.5433070866141733
          },
          {
            "duration": 0.103999999999985,
            "durationTicks": 26,
            "midi": 42,
            "name": "F#2",
            "ticks": 58680,
            "time": 234.72,
            "velocity": 0.6614173228346457
          },
          {
            "duration": 0.3079999999999927,
            "durationTicks": 77,
            "midi": 40,
            "name": "E2",
            "ticks": 58680,
            "time": 234.72,
            "velocity": 0.4645669291338583
          },
          {
            "duration": 0.14000000000001478,
            "durationTicks": 35,
            "midi": 36,
            "name": "C2",
            "ticks": 58680,
            "time": 234.72,
            "velocity": 0.6614173228346457
          },
          {
            "duration": 0.08400000000000318,
            "durationTicks": 21,
            "midi": 42,
            "name": "F#2",
            "ticks": 58740,
            "time": 234.95999999999998,
            "velocity": 0.5433070866141733
          },
          {
            "duration": 0.09600000000000364,
            "durationTicks": 24,
            "midi": 42,
            "name": "F#2",
            "ticks": 58800,
            "time": 235.2,
            "velocity": 0.6614173228346457
          },
          {
            "duration": 0.12000000000000455,
            "durationTicks": 30,
            "midi": 36,
            "name": "C2",
            "ticks": 58800,
            "time": 235.2,
            "velocity": 0.6614173228346457
          },
          {
            "duration": 0.0759999999999934,
            "durationTicks": 19,
            "midi": 42,
            "name": "F#2",
            "ticks": 58860,
            "time": 235.44,
            "velocity": 0.5905511811023622
          },
          {
            "duration": 0.21999999999999886,
            "durationTicks": 55,
            "midi": 40,
            "name": "E2",
            "ticks": 58920,
            "time": 235.67999999999998,
            "velocity": 0.4645669291338583
          },
          {
            "duration": 0.11200000000002319,
            "durationTicks": 28,
            "midi": 42,
            "name": "F#2",
            "ticks": 58920,
            "time": 235.67999999999998,
            "velocity": 0.5905511811023622
          },
          {
            "duration": 0.10400000000001342,
            "durationTicks": 26,
            "midi": 36,
            "name": "C2",
            "ticks": 58920,
            "time": 235.67999999999998,
            "velocity": 0.7874015748031497
          },
          {
            "duration": 0.08400000000000318,
            "durationTicks": 21,
            "midi": 46,
            "name": "A#2",
            "ticks": 58980,
            "time": 235.92,
            "velocity": 0.7874015748031497
          },
          {
            "duration": 0.09999999999999432,
            "durationTicks": 25,
            "midi": 42,
            "name": "F#2",
            "ticks": 59040,
            "time": 236.16,
            "velocity": 0.6850393700787402
          },
          {
            "duration": 0.1519999999999868,
            "durationTicks": 38,
            "midi": 36,
            "name": "C2",
            "ticks": 59040,
            "time": 236.16,
            "velocity": 0.6850393700787402
          },
          {
            "duration": 0.09200000000001296,
            "durationTicks": 23,
            "midi": 42,
            "name": "F#2",
            "ticks": 59100,
            "time": 236.39999999999998,
            "velocity": 0.5433070866141733
          },
          {
            "duration": 0.103999999999985,
            "durationTicks": 26,
            "midi": 42,
            "name": "F#2",
            "ticks": 59160,
            "time": 236.64,
            "velocity": 0.6614173228346457
          },
          {
            "duration": 0.3079999999999927,
            "durationTicks": 77,
            "midi": 40,
            "name": "E2",
            "ticks": 59160,
            "time": 236.64,
            "velocity": 0.4645669291338583
          },
          {
            "duration": 0.14000000000001478,
            "durationTicks": 35,
            "midi": 36,
            "name": "C2",
            "ticks": 59160,
            "time": 236.64,
            "velocity": 0.6614173228346457
          },
          {
            "duration": 0.08400000000000318,
            "durationTicks": 21,
            "midi": 42,
            "name": "F#2",
            "ticks": 59220,
            "time": 236.88,
            "velocity": 0.5433070866141733
          },
          {
            "duration": 0.11599999999998545,
            "durationTicks": 29,
            "midi": 40,
            "name": "E2",
            "ticks": 59280,
            "time": 237.12,
            "velocity": 0.47244094488188976
          },
          {
            "duration": 0.09599999999997522,
            "durationTicks": 24,
            "midi": 42,
            "name": "F#2",
            "ticks": 59280,
            "time": 237.12,
            "velocity": 0.6614173228346457
          },
          {
            "duration": 0.11999999999997613,
            "durationTicks": 30,
            "midi": 36,
            "name": "C2",
            "ticks": 59280,
            "time": 237.12,
            "velocity": 0.6614173228346457
          },
          {
            "duration": 0.18000000000000682,
            "durationTicks": 45,
            "midi": 40,
            "name": "E2",
            "ticks": 59340,
            "time": 237.35999999999999,
            "velocity": 0.5905511811023622
          },
          {
            "duration": 0.20400000000000773,
            "durationTicks": 51,
            "midi": 36,
            "name": "C2",
            "ticks": 59340,
            "time": 237.35999999999999,
            "velocity": 0.7874015748031497
          },
          {
            "duration": 0.07600000000002183,
            "durationTicks": 19,
            "midi": 42,
            "name": "F#2",
            "ticks": 59340,
            "time": 237.35999999999999,
            "velocity": 0.5905511811023622
          },
          {
            "duration": 0.1519999999999868,
            "durationTicks": 38,
            "midi": 40,
            "name": "E2",
            "ticks": 59400,
            "time": 237.6,
            "velocity": 0.4645669291338583
          },
          {
            "duration": 0.11199999999999477,
            "durationTicks": 28,
            "midi": 42,
            "name": "F#2",
            "ticks": 59400,
            "time": 237.6,
            "velocity": 0.5905511811023622
          },
          {
            "duration": 0.103999999999985,
            "durationTicks": 26,
            "midi": 36,
            "name": "C2",
            "ticks": 59400,
            "time": 237.6,
            "velocity": 0.7874015748031497
          }
        ],
        "endOfTrackTicks": 59438
      },
      {
        "channel": 10,
        "controlChanges": {
          "7": [
            {
              "number": 7,
              "ticks": 0,
              "time": 0,
              "value": 0.7480314960629921
            }
          ]
        },
        "pitchBends": [],
        "instrument": {
          "family": "percussive",
          "number": 113,
          "name": "agogo"
        },
        "name": "Aux",
        "notes": [
          {
            "duration": 0.07999999999999996,
            "durationTicks": 20,
            "midi": 72,
            "name": "C5",
            "ticks": 60,
            "time": 0.24,
            "velocity": 0.5905511811023622
          },
          {
            "duration": 0.07999999999999996,
            "durationTicks": 20,
            "midi": 72,
            "name": "C5",
            "ticks": 90,
            "time": 0.36,
            "velocity": 0.5118110236220472
          },
          {
            "duration": 0.07600000000000007,
            "durationTicks": 19,
            "midi": 72,
            "name": "C5",
            "ticks": 120,
            "time": 0.48,
            "velocity": 0.5118110236220472
          },
          {
            "duration": 0.08000000000000007,
            "durationTicks": 20,
            "midi": 72,
            "name": "C5",
            "ticks": 150,
            "time": 0.6,
            "velocity": 0.4881889763779528
          },
          {
            "duration": 0.08399999999999996,
            "durationTicks": 21,
            "midi": 72,
            "name": "C5",
            "ticks": 180,
            "time": 0.72,
            "velocity": 0.5118110236220472
          },
          {
            "duration": 0.09199999999999997,
            "durationTicks": 23,
            "midi": 72,
            "name": "C5",
            "ticks": 210,
            "time": 0.84,
            "velocity": 0.5669291338582677
          },
          {
            "duration": 0.07200000000000006,
            "durationTicks": 18,
            "midi": 76,
            "name": "E5",
            "ticks": 240,
            "time": 0.96,
            "velocity": 0.5826771653543307
          },
          {
            "duration": 0.09200000000000008,
            "durationTicks": 23,
            "midi": 76,
            "name": "E5",
            "ticks": 270,
            "time": 1.08,
            "velocity": 0.5826771653543307
          },
          {
            "duration": 0.08399999999999985,
            "durationTicks": 21,
            "midi": 76,
            "name": "E5",
            "ticks": 300,
            "time": 1.2,
            "velocity": 0.5118110236220472
          },
          {
            "duration": 0.08000000000000007,
            "durationTicks": 20,
            "midi": 76,
            "name": "E5",
            "ticks": 330,
            "time": 1.3199999999999998,
            "velocity": 0.5826771653543307
          },
          {
            "duration": 0.10000000000000009,
            "durationTicks": 25,
            "midi": 76,
            "name": "E5",
            "ticks": 360,
            "time": 1.44,
            "velocity": 0.5118110236220472
          },
          {
            "duration": 0.06799999999999984,
            "durationTicks": 17,
            "midi": 76,
            "name": "E5",
            "ticks": 390,
            "time": 1.56,
            "velocity": 0.47244094488188976
          },
          {
            "duration": 0.09200000000000008,
            "durationTicks": 23,
            "midi": 76,
            "name": "E5",
            "ticks": 420,
            "time": 1.68,
            "velocity": 0.49606299212598426
          },
          {
            "duration": 0.09600000000000009,
            "durationTicks": 24,
            "midi": 76,
            "name": "E5",
            "ticks": 450,
            "time": 1.7999999999999998,
            "velocity": 0.6850393700787402
          },
          {
            "duration": 0.08000000000000007,
            "durationTicks": 20,
            "midi": 72,
            "name": "C5",
            "ticks": 540,
            "time": 2.16,
            "velocity": 0.5905511811023622
          },
          {
            "duration": 0.08000000000000007,
            "durationTicks": 20,
            "midi": 72,
            "name": "C5",
            "ticks": 570,
            "time": 2.28,
            "velocity": 0.5118110236220472
          },
          {
            "duration": 0.07600000000000007,
            "durationTicks": 19,
            "midi": 72,
            "name": "C5",
            "ticks": 600,
            "time": 2.4,
            "velocity": 0.5118110236220472
          },
          {
            "duration": 0.08000000000000007,
            "durationTicks": 20,
            "midi": 72,
            "name": "C5",
            "ticks": 630,
            "time": 2.52,
            "velocity": 0.4881889763779528
          },
          {
            "duration": 0.08400000000000007,
            "durationTicks": 21,
            "midi": 72,
            "name": "C5",
            "ticks": 660,
            "time": 2.6399999999999997,
            "velocity": 0.5118110236220472
          },
          {
            "duration": 0.09200000000000008,
            "durationTicks": 23,
            "midi": 72,
            "name": "C5",
            "ticks": 690,
            "time": 2.76,
            "velocity": 0.5669291338582677
          },
          {
            "duration": 0.07200000000000006,
            "durationTicks": 18,
            "midi": 76,
            "name": "E5",
            "ticks": 720,
            "time": 2.88,
            "velocity": 0.5826771653543307
          },
          {
            "duration": 0.09199999999999964,
            "durationTicks": 23,
            "midi": 76,
            "name": "E5",
            "ticks": 750,
            "time": 3,
            "velocity": 0.5826771653543307
          },
          {
            "duration": 0.08399999999999963,
            "durationTicks": 21,
            "midi": 76,
            "name": "E5",
            "ticks": 780,
            "time": 3.12,
            "velocity": 0.5118110236220472
          },
          {
            "duration": 0.08000000000000007,
            "durationTicks": 20,
            "midi": 76,
            "name": "E5",
            "ticks": 810,
            "time": 3.2399999999999998,
            "velocity": 0.5826771653543307
          },
          {
            "duration": 0.09999999999999964,
            "durationTicks": 25,
            "midi": 76,
            "name": "E5",
            "ticks": 840,
            "time": 3.36,
            "velocity": 0.5118110236220472
          },
          {
            "duration": 0.06800000000000006,
            "durationTicks": 17,
            "midi": 76,
            "name": "E5",
            "ticks": 870,
            "time": 3.48,
            "velocity": 0.47244094488188976
          },
          {
            "duration": 0.09200000000000008,
            "durationTicks": 23,
            "midi": 76,
            "name": "E5",
            "ticks": 900,
            "time": 3.5999999999999996,
            "velocity": 0.49606299212598426
          },
          {
            "duration": 0.09600000000000009,
            "durationTicks": 24,
            "midi": 76,
            "name": "E5",
            "ticks": 930,
            "time": 3.7199999999999998,
            "velocity": 0.6850393700787402
          },
          {
            "duration": 0.07999999999999918,
            "durationTicks": 20,
            "midi": 72,
            "name": "C5",
            "ticks": 1020,
            "time": 4.08,
            "velocity": 0.5905511811023622
          },
          {
            "duration": 0.07999999999999918,
            "durationTicks": 20,
            "midi": 72,
            "name": "C5",
            "ticks": 1050,
            "time": 4.2,
            "velocity": 0.5118110236220472
          },
          {
            "duration": 0.07599999999999962,
            "durationTicks": 19,
            "midi": 72,
            "name": "C5",
            "ticks": 1080,
            "time": 4.32,
            "velocity": 0.5118110236220472
          },
          {
            "duration": 0.08000000000000007,
            "durationTicks": 20,
            "midi": 72,
            "name": "C5",
            "ticks": 1110,
            "time": 4.4399999999999995,
            "velocity": 0.4881889763779528
          },
          {
            "duration": 0.08400000000000052,
            "durationTicks": 21,
            "midi": 72,
            "name": "C5",
            "ticks": 1140,
            "time": 4.56,
            "velocity": 0.5118110236220472
          },
          {
            "duration": 0.09199999999999964,
            "durationTicks": 23,
            "midi": 72,
            "name": "C5",
            "ticks": 1170,
            "time": 4.68,
            "velocity": 0.5669291338582677
          },
          {
            "duration": 0.07200000000000006,
            "durationTicks": 18,
            "midi": 76,
            "name": "E5",
            "ticks": 1200,
            "time": 4.8,
            "velocity": 0.5826771653543307
          },
          {
            "duration": 0.09199999999999964,
            "durationTicks": 23,
            "midi": 76,
            "name": "E5",
            "ticks": 1230,
            "time": 4.92,
            "velocity": 0.5826771653543307
          },
          {
            "duration": 0.08400000000000052,
            "durationTicks": 21,
            "midi": 76,
            "name": "E5",
            "ticks": 1260,
            "time": 5.04,
            "velocity": 0.5118110236220472
          },
          {
            "duration": 0.07999999999999918,
            "durationTicks": 20,
            "midi": 76,
            "name": "E5",
            "ticks": 1290,
            "time": 5.16,
            "velocity": 0.5826771653543307
          },
          {
            "duration": 0.10000000000000053,
            "durationTicks": 25,
            "midi": 76,
            "name": "E5",
            "ticks": 1320,
            "time": 5.279999999999999,
            "velocity": 0.5118110236220472
          },
          {
            "duration": 0.0680000000000005,
            "durationTicks": 17,
            "midi": 76,
            "name": "E5",
            "ticks": 1350,
            "time": 5.3999999999999995,
            "velocity": 0.47244094488188976
          },
          {
            "duration": 0.09200000000000053,
            "durationTicks": 23,
            "midi": 76,
            "name": "E5",
            "ticks": 1380,
            "time": 5.52,
            "velocity": 0.49606299212598426
          },
          {
            "duration": 0.09600000000000009,
            "durationTicks": 24,
            "midi": 76,
            "name": "E5",
            "ticks": 1410,
            "time": 5.64,
            "velocity": 0.6850393700787402
          },
          {
            "duration": 0.07999999999999918,
            "durationTicks": 20,
            "midi": 72,
            "name": "C5",
            "ticks": 1500,
            "time": 6,
            "velocity": 0.5905511811023622
          },
          {
            "duration": 0.07999999999999918,
            "durationTicks": 20,
            "midi": 72,
            "name": "C5",
            "ticks": 1530,
            "time": 6.12,
            "velocity": 0.5118110236220472
          },
          {
            "duration": 0.07599999999999962,
            "durationTicks": 19,
            "midi": 72,
            "name": "C5",
            "ticks": 1560,
            "time": 6.24,
            "velocity": 0.5118110236220472
          },
          {
            "duration": 0.08000000000000007,
            "durationTicks": 20,
            "midi": 72,
            "name": "C5",
            "ticks": 1590,
            "time": 6.359999999999999,
            "velocity": 0.4881889763779528
          },
          {
            "duration": 0.08400000000000052,
            "durationTicks": 21,
            "midi": 72,
            "name": "C5",
            "ticks": 1620,
            "time": 6.4799999999999995,
            "velocity": 0.5118110236220472
          },
          {
            "duration": 0.09199999999999964,
            "durationTicks": 23,
            "midi": 72,
            "name": "C5",
            "ticks": 1650,
            "time": 6.6,
            "velocity": 0.5669291338582677
          },
          {
            "duration": 0.07200000000000006,
            "durationTicks": 18,
            "midi": 76,
            "name": "E5",
            "ticks": 1680,
            "time": 6.72,
            "velocity": 0.5826771653543307
          },
          {
            "duration": 0.09199999999999964,
            "durationTicks": 23,
            "midi": 76,
            "name": "E5",
            "ticks": 1710,
            "time": 6.84,
            "velocity": 0.5826771653543307
          },
          {
            "duration": 0.08400000000000052,
            "durationTicks": 21,
            "midi": 76,
            "name": "E5",
            "ticks": 1740,
            "time": 6.96,
            "velocity": 0.5118110236220472
          },
          {
            "duration": 0.07999999999999918,
            "durationTicks": 20,
            "midi": 76,
            "name": "E5",
            "ticks": 1770,
            "time": 7.08,
            "velocity": 0.5826771653543307
          },
          {
            "duration": 0.10000000000000053,
            "durationTicks": 25,
            "midi": 76,
            "name": "E5",
            "ticks": 1800,
            "time": 7.199999999999999,
            "velocity": 0.5118110236220472
          },
          {
            "duration": 0.0680000000000005,
            "durationTicks": 17,
            "midi": 76,
            "name": "E5",
            "ticks": 1830,
            "time": 7.319999999999999,
            "velocity": 0.47244094488188976
          },
          {
            "duration": 0.09200000000000053,
            "durationTicks": 23,
            "midi": 76,
            "name": "E5",
            "ticks": 1860,
            "time": 7.4399999999999995,
            "velocity": 0.49606299212598426
          },
          {
            "duration": 0.09600000000000009,
            "durationTicks": 24,
            "midi": 76,
            "name": "E5",
            "ticks": 1890,
            "time": 7.56,
            "velocity": 0.6850393700787402
          },
          {
            "duration": 0.08000000000000007,
            "durationTicks": 20,
            "midi": 72,
            "name": "C5",
            "ticks": 1980,
            "time": 7.92,
            "velocity": 0.5905511811023622
          },
          {
            "duration": 0.08000000000000185,
            "durationTicks": 20,
            "midi": 72,
            "name": "C5",
            "ticks": 2010,
            "time": 8.04,
            "velocity": 0.5118110236220472
          },
          {
            "duration": 0.07600000000000051,
            "durationTicks": 19,
            "midi": 72,
            "name": "C5",
            "ticks": 2040,
            "time": 8.16,
            "velocity": 0.5118110236220472
          },
          {
            "duration": 0.08000000000000007,
            "durationTicks": 20,
            "midi": 72,
            "name": "C5",
            "ticks": 2070,
            "time": 8.28,
            "velocity": 0.4881889763779528
          },
          {
            "duration": 0.08399999999999963,
            "durationTicks": 21,
            "midi": 72,
            "name": "C5",
            "ticks": 2100,
            "time": 8.4,
            "velocity": 0.5118110236220472
          },
          {
            "duration": 0.09200000000000053,
            "durationTicks": 23,
            "midi": 72,
            "name": "C5",
            "ticks": 2130,
            "time": 8.52,
            "velocity": 0.5669291338582677
          },
          {
            "duration": 0.07199999999999918,
            "durationTicks": 18,
            "midi": 76,
            "name": "E5",
            "ticks": 2160,
            "time": 8.64,
            "velocity": 0.5826771653543307
          },
          {
            "duration": 0.09200000000000053,
            "durationTicks": 23,
            "midi": 76,
            "name": "E5",
            "ticks": 2190,
            "time": 8.76,
            "velocity": 0.5826771653543307
          },
          {
            "duration": 0.0840000000000014,
            "durationTicks": 21,
            "midi": 76,
            "name": "E5",
            "ticks": 2220,
            "time": 8.879999999999999,
            "velocity": 0.5118110236220472
          },
          {
            "duration": 0.08000000000000007,
            "durationTicks": 20,
            "midi": 76,
            "name": "E5",
            "ticks": 2250,
            "time": 9,
            "velocity": 0.5826771653543307
          },
          {
            "duration": 0.09999999999999964,
            "durationTicks": 25,
            "midi": 76,
            "name": "E5",
            "ticks": 2280,
            "time": 9.12,
            "velocity": 0.5118110236220472
          },
          {
            "duration": 0.06799999999999962,
            "durationTicks": 17,
            "midi": 76,
            "name": "E5",
            "ticks": 2310,
            "time": 9.24,
            "velocity": 0.47244094488188976
          },
          {
            "duration": 0.09200000000000053,
            "durationTicks": 23,
            "midi": 76,
            "name": "E5",
            "ticks": 2340,
            "time": 9.36,
            "velocity": 0.49606299212598426
          },
          {
            "duration": 0.09599999999999831,
            "durationTicks": 24,
            "midi": 76,
            "name": "E5",
            "ticks": 2370,
            "time": 9.48,
            "velocity": 0.6850393700787402
          },
          {
            "duration": 0.08000000000000007,
            "durationTicks": 20,
            "midi": 72,
            "name": "C5",
            "ticks": 2460,
            "time": 9.84,
            "velocity": 0.5905511811023622
          },
          {
            "duration": 0.08000000000000185,
            "durationTicks": 20,
            "midi": 72,
            "name": "C5",
            "ticks": 2490,
            "time": 9.959999999999999,
            "velocity": 0.5118110236220472
          },
          {
            "duration": 0.07600000000000051,
            "durationTicks": 19,
            "midi": 72,
            "name": "C5",
            "ticks": 2520,
            "time": 10.08,
            "velocity": 0.5118110236220472
          },
          {
            "duration": 0.08000000000000007,
            "durationTicks": 20,
            "midi": 72,
            "name": "C5",
            "ticks": 2550,
            "time": 10.2,
            "velocity": 0.4881889763779528
          },
          {
            "duration": 0.08399999999999963,
            "durationTicks": 21,
            "midi": 72,
            "name": "C5",
            "ticks": 2580,
            "time": 10.32,
            "velocity": 0.5118110236220472
          },
          {
            "duration": 0.09200000000000053,
            "durationTicks": 23,
            "midi": 72,
            "name": "C5",
            "ticks": 2610,
            "time": 10.44,
            "velocity": 0.5669291338582677
          },
          {
            "duration": 0.07200000000000095,
            "durationTicks": 18,
            "midi": 76,
            "name": "E5",
            "ticks": 2640,
            "time": 10.559999999999999,
            "velocity": 0.5826771653543307
          },
          {
            "duration": 0.09200000000000053,
            "durationTicks": 23,
            "midi": 76,
            "name": "E5",
            "ticks": 2670,
            "time": 10.68,
            "velocity": 0.5826771653543307
          },
          {
            "duration": 0.0840000000000014,
            "durationTicks": 21,
            "midi": 76,
            "name": "E5",
            "ticks": 2700,
            "time": 10.799999999999999,
            "velocity": 0.5118110236220472
          },
          {
            "duration": 0.08000000000000007,
            "durationTicks": 20,
            "midi": 76,
            "name": "E5",
            "ticks": 2730,
            "time": 10.92,
            "velocity": 0.5826771653543307
          },
          {
            "duration": 0.09999999999999964,
            "durationTicks": 25,
            "midi": 76,
            "name": "E5",
            "ticks": 2760,
            "time": 11.04,
            "velocity": 0.5118110236220472
          },
          {
            "duration": 0.06799999999999962,
            "durationTicks": 17,
            "midi": 76,
            "name": "E5",
            "ticks": 2790,
            "time": 11.16,
            "velocity": 0.47244094488188976
          },
          {
            "duration": 0.09200000000000053,
            "durationTicks": 23,
            "midi": 76,
            "name": "E5",
            "ticks": 2820,
            "time": 11.28,
            "velocity": 0.49606299212598426
          },
          {
            "duration": 0.09599999999999831,
            "durationTicks": 24,
            "midi": 76,
            "name": "E5",
            "ticks": 2850,
            "time": 11.4,
            "velocity": 0.6850393700787402
          },
          {
            "duration": 0.08000000000000007,
            "durationTicks": 20,
            "midi": 72,
            "name": "C5",
            "ticks": 2940,
            "time": 11.76,
            "velocity": 0.5905511811023622
          },
          {
            "duration": 0.08000000000000185,
            "durationTicks": 20,
            "midi": 72,
            "name": "C5",
            "ticks": 2970,
            "time": 11.879999999999999,
            "velocity": 0.5118110236220472
          },
          {
            "duration": 0.07600000000000051,
            "durationTicks": 19,
            "midi": 72,
            "name": "C5",
            "ticks": 3000,
            "time": 12,
            "velocity": 0.5118110236220472
          },
          {
            "duration": 0.08000000000000007,
            "durationTicks": 20,
            "midi": 72,
            "name": "C5",
            "ticks": 3030,
            "time": 12.12,
            "velocity": 0.4881889763779528
          },
          {
            "duration": 0.08399999999999963,
            "durationTicks": 21,
            "midi": 72,
            "name": "C5",
            "ticks": 3060,
            "time": 12.24,
            "velocity": 0.5118110236220472
          },
          {
            "duration": 0.09200000000000053,
            "durationTicks": 23,
            "midi": 72,
            "name": "C5",
            "ticks": 3090,
            "time": 12.36,
            "velocity": 0.5669291338582677
          },
          {
            "duration": 0.07199999999999918,
            "durationTicks": 18,
            "midi": 76,
            "name": "E5",
            "ticks": 3120,
            "time": 12.48,
            "velocity": 0.5826771653543307
          },
          {
            "duration": 0.09200000000000053,
            "durationTicks": 23,
            "midi": 76,
            "name": "E5",
            "ticks": 3150,
            "time": 12.6,
            "velocity": 0.5826771653543307
          },
          {
            "duration": 0.0840000000000014,
            "durationTicks": 21,
            "midi": 76,
            "name": "E5",
            "ticks": 3180,
            "time": 12.719999999999999,
            "velocity": 0.5118110236220472
          },
          {
            "duration": 0.08000000000000007,
            "durationTicks": 20,
            "midi": 76,
            "name": "E5",
            "ticks": 3210,
            "time": 12.84,
            "velocity": 0.5826771653543307
          },
          {
            "duration": 0.09999999999999964,
            "durationTicks": 25,
            "midi": 76,
            "name": "E5",
            "ticks": 3240,
            "time": 12.959999999999999,
            "velocity": 0.5118110236220472
          },
          {
            "duration": 0.06799999999999962,
            "durationTicks": 17,
            "midi": 76,
            "name": "E5",
            "ticks": 3270,
            "time": 13.08,
            "velocity": 0.47244094488188976
          },
          {
            "duration": 0.09200000000000053,
            "durationTicks": 23,
            "midi": 76,
            "name": "E5",
            "ticks": 3300,
            "time": 13.2,
            "velocity": 0.49606299212598426
          },
          {
            "duration": 0.09599999999999831,
            "durationTicks": 24,
            "midi": 76,
            "name": "E5",
            "ticks": 3330,
            "time": 13.32,
            "velocity": 0.6850393700787402
          },
          {
            "duration": 0.08000000000000007,
            "durationTicks": 20,
            "midi": 72,
            "name": "C5",
            "ticks": 3420,
            "time": 13.68,
            "velocity": 0.5905511811023622
          },
          {
            "duration": 0.08000000000000185,
            "durationTicks": 20,
            "midi": 72,
            "name": "C5",
            "ticks": 3450,
            "time": 13.799999999999999,
            "velocity": 0.5118110236220472
          },
          {
            "duration": 0.07600000000000051,
            "durationTicks": 19,
            "midi": 72,
            "name": "C5",
            "ticks": 3480,
            "time": 13.92,
            "velocity": 0.5118110236220472
          },
          {
            "duration": 0.08000000000000007,
            "durationTicks": 20,
            "midi": 72,
            "name": "C5",
            "ticks": 3510,
            "time": 14.04,
            "velocity": 0.4881889763779528
          },
          {
            "duration": 0.08399999999999963,
            "durationTicks": 21,
            "midi": 72,
            "name": "C5",
            "ticks": 3540,
            "time": 14.16,
            "velocity": 0.5118110236220472
          },
          {
            "duration": 0.09200000000000053,
            "durationTicks": 23,
            "midi": 72,
            "name": "C5",
            "ticks": 3570,
            "time": 14.28,
            "velocity": 0.5669291338582677
          },
          {
            "duration": 0.07200000000000095,
            "durationTicks": 18,
            "midi": 76,
            "name": "E5",
            "ticks": 3600,
            "time": 14.399999999999999,
            "velocity": 0.5826771653543307
          },
          {
            "duration": 0.09200000000000053,
            "durationTicks": 23,
            "midi": 76,
            "name": "E5",
            "ticks": 3630,
            "time": 14.52,
            "velocity": 0.5826771653543307
          },
          {
            "duration": 0.0840000000000014,
            "durationTicks": 21,
            "midi": 76,
            "name": "E5",
            "ticks": 3660,
            "time": 14.639999999999999,
            "velocity": 0.5118110236220472
          },
          {
            "duration": 0.08000000000000007,
            "durationTicks": 20,
            "midi": 76,
            "name": "E5",
            "ticks": 3690,
            "time": 14.76,
            "velocity": 0.5826771653543307
          },
          {
            "duration": 0.09999999999999964,
            "durationTicks": 25,
            "midi": 76,
            "name": "E5",
            "ticks": 3720,
            "time": 14.879999999999999,
            "velocity": 0.5118110236220472
          },
          {
            "duration": 0.06799999999999962,
            "durationTicks": 17,
            "midi": 76,
            "name": "E5",
            "ticks": 3750,
            "time": 15,
            "velocity": 0.47244094488188976
          },
          {
            "duration": 0.09200000000000053,
            "durationTicks": 23,
            "midi": 76,
            "name": "E5",
            "ticks": 3780,
            "time": 15.12,
            "velocity": 0.49606299212598426
          },
          {
            "duration": 0.09599999999999831,
            "durationTicks": 24,
            "midi": 76,
            "name": "E5",
            "ticks": 3810,
            "time": 15.24,
            "velocity": 0.6850393700787402
          },
          {
            "duration": 0.0799999999999983,
            "durationTicks": 20,
            "midi": 72,
            "name": "C5",
            "ticks": 3900,
            "time": 15.6,
            "velocity": 0.5905511811023622
          },
          {
            "duration": 0.08000000000000007,
            "durationTicks": 20,
            "midi": 72,
            "name": "C5",
            "ticks": 3930,
            "time": 15.719999999999999,
            "velocity": 0.5118110236220472
          },
          {
            "duration": 0.07599999999999874,
            "durationTicks": 19,
            "midi": 72,
            "name": "C5",
            "ticks": 3960,
            "time": 15.84,
            "velocity": 0.5118110236220472
          },
          {
            "duration": 0.08000000000000007,
            "durationTicks": 20,
            "midi": 72,
            "name": "C5",
            "ticks": 3990,
            "time": 15.959999999999999,
            "velocity": 0.4881889763779528
          },
          {
            "duration": 0.08399999999999963,
            "durationTicks": 21,
            "midi": 72,
            "name": "C5",
            "ticks": 4020,
            "time": 16.08,
            "velocity": 0.5118110236220472
          },
          {
            "duration": 0.0920000000000023,
            "durationTicks": 23,
            "midi": 72,
            "name": "C5",
            "ticks": 4050,
            "time": 16.2,
            "velocity": 0.5669291338582677
          },
          {
            "duration": 0.07199999999999918,
            "durationTicks": 18,
            "midi": 76,
            "name": "E5",
            "ticks": 4080,
            "time": 16.32,
            "velocity": 0.5826771653543307
          },
          {
            "duration": 0.0920000000000023,
            "durationTicks": 23,
            "midi": 76,
            "name": "E5",
            "ticks": 4110,
            "time": 16.439999999999998,
            "velocity": 0.5826771653543307
          },
          {
            "duration": 0.08399999999999963,
            "durationTicks": 21,
            "midi": 76,
            "name": "E5",
            "ticks": 4140,
            "time": 16.56,
            "velocity": 0.5118110236220472
          },
          {
            "duration": 0.0799999999999983,
            "durationTicks": 20,
            "midi": 76,
            "name": "E5",
            "ticks": 4170,
            "time": 16.68,
            "velocity": 0.5826771653543307
          },
          {
            "duration": 0.10000000000000142,
            "durationTicks": 25,
            "midi": 76,
            "name": "E5",
            "ticks": 4200,
            "time": 16.8,
            "velocity": 0.5118110236220472
          },
          {
            "duration": 0.06800000000000139,
            "durationTicks": 17,
            "midi": 76,
            "name": "E5",
            "ticks": 4230,
            "time": 16.919999999999998,
            "velocity": 0.47244094488188976
          },
          {
            "duration": 0.0920000000000023,
            "durationTicks": 23,
            "midi": 76,
            "name": "E5",
            "ticks": 4260,
            "time": 17.04,
            "velocity": 0.49606299212598426
          },
          {
            "duration": 0.09600000000000009,
            "durationTicks": 24,
            "midi": 76,
            "name": "E5",
            "ticks": 4290,
            "time": 17.16,
            "velocity": 0.6850393700787402
          },
          {
            "duration": 0.0799999999999983,
            "durationTicks": 20,
            "midi": 72,
            "name": "C5",
            "ticks": 4380,
            "time": 17.52,
            "velocity": 0.5905511811023622
          },
          {
            "duration": 0.0799999999999983,
            "durationTicks": 20,
            "midi": 72,
            "name": "C5",
            "ticks": 4410,
            "time": 17.64,
            "velocity": 0.5118110236220472
          },
          {
            "duration": 0.07600000000000051,
            "durationTicks": 19,
            "midi": 72,
            "name": "C5",
            "ticks": 4440,
            "time": 17.759999999999998,
            "velocity": 0.5118110236220472
          },
          {
            "duration": 0.0799999999999983,
            "durationTicks": 20,
            "midi": 72,
            "name": "C5",
            "ticks": 4470,
            "time": 17.88,
            "velocity": 0.4881889763779528
          },
          {
            "duration": 0.08399999999999963,
            "durationTicks": 21,
            "midi": 72,
            "name": "C5",
            "ticks": 4500,
            "time": 18,
            "velocity": 0.5118110236220472
          },
          {
            "duration": 0.09199999999999875,
            "durationTicks": 23,
            "midi": 72,
            "name": "C5",
            "ticks": 4530,
            "time": 18.12,
            "velocity": 0.5669291338582677
          },
          {
            "duration": 0.07199999999999918,
            "durationTicks": 18,
            "midi": 76,
            "name": "E5",
            "ticks": 4560,
            "time": 18.24,
            "velocity": 0.5826771653543307
          },
          {
            "duration": 0.0920000000000023,
            "durationTicks": 23,
            "midi": 76,
            "name": "E5",
            "ticks": 4590,
            "time": 18.36,
            "velocity": 0.5826771653543307
          },
          {
            "duration": 0.08399999999999608,
            "durationTicks": 21,
            "midi": 76,
            "name": "E5",
            "ticks": 4620,
            "time": 18.48,
            "velocity": 0.5118110236220472
          },
          {
            "duration": 0.08000000000000185,
            "durationTicks": 20,
            "midi": 76,
            "name": "E5",
            "ticks": 4650,
            "time": 18.599999999999998,
            "velocity": 0.5826771653543307
          },
          {
            "duration": 0.10000000000000142,
            "durationTicks": 25,
            "midi": 76,
            "name": "E5",
            "ticks": 4680,
            "time": 18.72,
            "velocity": 0.5118110236220472
          },
          {
            "duration": 0.06799999999999784,
            "durationTicks": 17,
            "midi": 76,
            "name": "E5",
            "ticks": 4710,
            "time": 18.84,
            "velocity": 0.47244094488188976
          },
          {
            "duration": 0.09199999999999875,
            "durationTicks": 23,
            "midi": 76,
            "name": "E5",
            "ticks": 4740,
            "time": 18.96,
            "velocity": 0.49606299212598426
          },
          {
            "duration": 0.09600000000000364,
            "durationTicks": 24,
            "midi": 76,
            "name": "E5",
            "ticks": 4770,
            "time": 19.08,
            "velocity": 0.6850393700787402
          },
          {
            "duration": 0.08000000000000185,
            "durationTicks": 20,
            "midi": 72,
            "name": "C5",
            "ticks": 4860,
            "time": 19.439999999999998,
            "velocity": 0.5905511811023622
          },
          {
            "duration": 0.0799999999999983,
            "durationTicks": 20,
            "midi": 72,
            "name": "C5",
            "ticks": 4890,
            "time": 19.56,
            "velocity": 0.5118110236220472
          },
          {
            "duration": 0.07599999999999696,
            "durationTicks": 19,
            "midi": 72,
            "name": "C5",
            "ticks": 4920,
            "time": 19.68,
            "velocity": 0.5118110236220472
          },
          {
            "duration": 0.0799999999999983,
            "durationTicks": 20,
            "midi": 72,
            "name": "C5",
            "ticks": 4950,
            "time": 19.8,
            "velocity": 0.4881889763779528
          },
          {
            "duration": 0.08399999999999963,
            "durationTicks": 21,
            "midi": 72,
            "name": "C5",
            "ticks": 4980,
            "time": 19.919999999999998,
            "velocity": 0.5118110236220472
          },
          {
            "duration": 0.0920000000000023,
            "durationTicks": 23,
            "midi": 72,
            "name": "C5",
            "ticks": 5010,
            "time": 20.04,
            "velocity": 0.5669291338582677
          },
          {
            "duration": 0.07199999999999918,
            "durationTicks": 18,
            "midi": 76,
            "name": "E5",
            "ticks": 5040,
            "time": 20.16,
            "velocity": 0.5826771653543307
          },
          {
            "duration": 0.0920000000000023,
            "durationTicks": 23,
            "midi": 76,
            "name": "E5",
            "ticks": 5070,
            "time": 20.279999999999998,
            "velocity": 0.5826771653543307
          },
          {
            "duration": 0.08399999999999963,
            "durationTicks": 21,
            "midi": 76,
            "name": "E5",
            "ticks": 5100,
            "time": 20.4,
            "velocity": 0.5118110236220472
          },
          {
            "duration": 0.0799999999999983,
            "durationTicks": 20,
            "midi": 76,
            "name": "E5",
            "ticks": 5130,
            "time": 20.52,
            "velocity": 0.5826771653543307
          },
          {
            "duration": 0.10000000000000142,
            "durationTicks": 25,
            "midi": 76,
            "name": "E5",
            "ticks": 5160,
            "time": 20.64,
            "velocity": 0.5118110236220472
          },
          {
            "duration": 0.06800000000000139,
            "durationTicks": 17,
            "midi": 76,
            "name": "E5",
            "ticks": 5190,
            "time": 20.759999999999998,
            "velocity": 0.47244094488188976
          },
          {
            "duration": 0.0920000000000023,
            "durationTicks": 23,
            "midi": 76,
            "name": "E5",
            "ticks": 5220,
            "time": 20.88,
            "velocity": 0.49606299212598426
          },
          {
            "duration": 0.09600000000000009,
            "durationTicks": 24,
            "midi": 76,
            "name": "E5",
            "ticks": 5250,
            "time": 21,
            "velocity": 0.6850393700787402
          },
          {
            "duration": 0.0799999999999983,
            "durationTicks": 20,
            "midi": 72,
            "name": "C5",
            "ticks": 5340,
            "time": 21.36,
            "velocity": 0.5905511811023622
          },
          {
            "duration": 0.0799999999999983,
            "durationTicks": 20,
            "midi": 72,
            "name": "C5",
            "ticks": 5370,
            "time": 21.48,
            "velocity": 0.5118110236220472
          },
          {
            "duration": 0.07600000000000051,
            "durationTicks": 19,
            "midi": 72,
            "name": "C5",
            "ticks": 5400,
            "time": 21.599999999999998,
            "velocity": 0.5118110236220472
          },
          {
            "duration": 0.0799999999999983,
            "durationTicks": 20,
            "midi": 72,
            "name": "C5",
            "ticks": 5430,
            "time": 21.72,
            "velocity": 0.4881889763779528
          },
          {
            "duration": 0.08399999999999963,
            "durationTicks": 21,
            "midi": 72,
            "name": "C5",
            "ticks": 5460,
            "time": 21.84,
            "velocity": 0.5118110236220472
          },
          {
            "duration": 0.09199999999999875,
            "durationTicks": 23,
            "midi": 72,
            "name": "C5",
            "ticks": 5490,
            "time": 21.96,
            "velocity": 0.5669291338582677
          },
          {
            "duration": 0.07199999999999918,
            "durationTicks": 18,
            "midi": 76,
            "name": "E5",
            "ticks": 5520,
            "time": 22.08,
            "velocity": 0.5826771653543307
          },
          {
            "duration": 0.0920000000000023,
            "durationTicks": 23,
            "midi": 76,
            "name": "E5",
            "ticks": 5550,
            "time": 22.2,
            "velocity": 0.5826771653543307
          },
          {
            "duration": 0.08399999999999608,
            "durationTicks": 21,
            "midi": 76,
            "name": "E5",
            "ticks": 5580,
            "time": 22.32,
            "velocity": 0.5118110236220472
          },
          {
            "duration": 0.08000000000000185,
            "durationTicks": 20,
            "midi": 76,
            "name": "E5",
            "ticks": 5610,
            "time": 22.439999999999998,
            "velocity": 0.5826771653543307
          },
          {
            "duration": 0.10000000000000142,
            "durationTicks": 25,
            "midi": 76,
            "name": "E5",
            "ticks": 5640,
            "time": 22.56,
            "velocity": 0.5118110236220472
          },
          {
            "duration": 0.06799999999999784,
            "durationTicks": 17,
            "midi": 76,
            "name": "E5",
            "ticks": 5670,
            "time": 22.68,
            "velocity": 0.47244094488188976
          },
          {
            "duration": 0.09199999999999875,
            "durationTicks": 23,
            "midi": 76,
            "name": "E5",
            "ticks": 5700,
            "time": 22.8,
            "velocity": 0.49606299212598426
          },
          {
            "duration": 0.09600000000000364,
            "durationTicks": 24,
            "midi": 76,
            "name": "E5",
            "ticks": 5730,
            "time": 22.919999999999998,
            "velocity": 0.6850393700787402
          },
          {
            "duration": 0.08000000000000185,
            "durationTicks": 20,
            "midi": 72,
            "name": "C5",
            "ticks": 5820,
            "time": 23.279999999999998,
            "velocity": 0.5905511811023622
          },
          {
            "duration": 0.0799999999999983,
            "durationTicks": 20,
            "midi": 72,
            "name": "C5",
            "ticks": 5850,
            "time": 23.4,
            "velocity": 0.5118110236220472
          },
          {
            "duration": 0.07599999999999696,
            "durationTicks": 19,
            "midi": 72,
            "name": "C5",
            "ticks": 5880,
            "time": 23.52,
            "velocity": 0.5118110236220472
          },
          {
            "duration": 0.0799999999999983,
            "durationTicks": 20,
            "midi": 72,
            "name": "C5",
            "ticks": 5910,
            "time": 23.64,
            "velocity": 0.4881889763779528
          },
          {
            "duration": 0.08399999999999963,
            "durationTicks": 21,
            "midi": 72,
            "name": "C5",
            "ticks": 5940,
            "time": 23.759999999999998,
            "velocity": 0.5118110236220472
          },
          {
            "duration": 0.0920000000000023,
            "durationTicks": 23,
            "midi": 72,
            "name": "C5",
            "ticks": 5970,
            "time": 23.88,
            "velocity": 0.5669291338582677
          },
          {
            "duration": 0.07199999999999918,
            "durationTicks": 18,
            "midi": 76,
            "name": "E5",
            "ticks": 6000,
            "time": 24,
            "velocity": 0.5826771653543307
          },
          {
            "duration": 0.0920000000000023,
            "durationTicks": 23,
            "midi": 76,
            "name": "E5",
            "ticks": 6030,
            "time": 24.119999999999997,
            "velocity": 0.5826771653543307
          },
          {
            "duration": 0.08399999999999963,
            "durationTicks": 21,
            "midi": 76,
            "name": "E5",
            "ticks": 6060,
            "time": 24.24,
            "velocity": 0.5118110236220472
          },
          {
            "duration": 0.0799999999999983,
            "durationTicks": 20,
            "midi": 76,
            "name": "E5",
            "ticks": 6090,
            "time": 24.36,
            "velocity": 0.5826771653543307
          },
          {
            "duration": 0.10000000000000142,
            "durationTicks": 25,
            "midi": 76,
            "name": "E5",
            "ticks": 6120,
            "time": 24.48,
            "velocity": 0.5118110236220472
          },
          {
            "duration": 0.06800000000000139,
            "durationTicks": 17,
            "midi": 76,
            "name": "E5",
            "ticks": 6150,
            "time": 24.599999999999998,
            "velocity": 0.47244094488188976
          },
          {
            "duration": 0.0920000000000023,
            "durationTicks": 23,
            "midi": 76,
            "name": "E5",
            "ticks": 6180,
            "time": 24.72,
            "velocity": 0.49606299212598426
          },
          {
            "duration": 0.09600000000000009,
            "durationTicks": 24,
            "midi": 76,
            "name": "E5",
            "ticks": 6210,
            "time": 24.84,
            "velocity": 0.6850393700787402
          },
          {
            "duration": 0.0799999999999983,
            "durationTicks": 20,
            "midi": 72,
            "name": "C5",
            "ticks": 6300,
            "time": 25.2,
            "velocity": 0.5905511811023622
          },
          {
            "duration": 0.0799999999999983,
            "durationTicks": 20,
            "midi": 72,
            "name": "C5",
            "ticks": 6330,
            "time": 25.32,
            "velocity": 0.5118110236220472
          },
          {
            "duration": 0.07600000000000051,
            "durationTicks": 19,
            "midi": 72,
            "name": "C5",
            "ticks": 6360,
            "time": 25.439999999999998,
            "velocity": 0.5118110236220472
          },
          {
            "duration": 0.0799999999999983,
            "durationTicks": 20,
            "midi": 72,
            "name": "C5",
            "ticks": 6390,
            "time": 25.56,
            "velocity": 0.4881889763779528
          },
          {
            "duration": 0.08399999999999963,
            "durationTicks": 21,
            "midi": 72,
            "name": "C5",
            "ticks": 6420,
            "time": 25.68,
            "velocity": 0.5118110236220472
          },
          {
            "duration": 0.09199999999999875,
            "durationTicks": 23,
            "midi": 72,
            "name": "C5",
            "ticks": 6450,
            "time": 25.8,
            "velocity": 0.5669291338582677
          },
          {
            "duration": 0.07199999999999918,
            "durationTicks": 18,
            "midi": 76,
            "name": "E5",
            "ticks": 6480,
            "time": 25.919999999999998,
            "velocity": 0.5826771653543307
          },
          {
            "duration": 0.0920000000000023,
            "durationTicks": 23,
            "midi": 76,
            "name": "E5",
            "ticks": 6510,
            "time": 26.04,
            "velocity": 0.5826771653543307
          },
          {
            "duration": 0.08399999999999608,
            "durationTicks": 21,
            "midi": 76,
            "name": "E5",
            "ticks": 6540,
            "time": 26.16,
            "velocity": 0.5118110236220472
          },
          {
            "duration": 0.08000000000000185,
            "durationTicks": 20,
            "midi": 76,
            "name": "E5",
            "ticks": 6570,
            "time": 26.279999999999998,
            "velocity": 0.5826771653543307
          },
          {
            "duration": 0.10000000000000142,
            "durationTicks": 25,
            "midi": 76,
            "name": "E5",
            "ticks": 6600,
            "time": 26.4,
            "velocity": 0.5118110236220472
          },
          {
            "duration": 0.06799999999999784,
            "durationTicks": 17,
            "midi": 76,
            "name": "E5",
            "ticks": 6630,
            "time": 26.52,
            "velocity": 0.47244094488188976
          },
          {
            "duration": 0.09199999999999875,
            "durationTicks": 23,
            "midi": 76,
            "name": "E5",
            "ticks": 6660,
            "time": 26.64,
            "velocity": 0.49606299212598426
          },
          {
            "duration": 0.09600000000000364,
            "durationTicks": 24,
            "midi": 76,
            "name": "E5",
            "ticks": 6690,
            "time": 26.759999999999998,
            "velocity": 0.6850393700787402
          },
          {
            "duration": 0.08000000000000185,
            "durationTicks": 20,
            "midi": 72,
            "name": "C5",
            "ticks": 6780,
            "time": 27.119999999999997,
            "velocity": 0.5905511811023622
          },
          {
            "duration": 0.0799999999999983,
            "durationTicks": 20,
            "midi": 72,
            "name": "C5",
            "ticks": 6810,
            "time": 27.24,
            "velocity": 0.5118110236220472
          },
          {
            "duration": 0.07599999999999696,
            "durationTicks": 19,
            "midi": 72,
            "name": "C5",
            "ticks": 6840,
            "time": 27.36,
            "velocity": 0.5118110236220472
          },
          {
            "duration": 0.0799999999999983,
            "durationTicks": 20,
            "midi": 72,
            "name": "C5",
            "ticks": 6870,
            "time": 27.48,
            "velocity": 0.4881889763779528
          },
          {
            "duration": 0.08399999999999963,
            "durationTicks": 21,
            "midi": 72,
            "name": "C5",
            "ticks": 6900,
            "time": 27.599999999999998,
            "velocity": 0.5118110236220472
          },
          {
            "duration": 0.0920000000000023,
            "durationTicks": 23,
            "midi": 72,
            "name": "C5",
            "ticks": 6930,
            "time": 27.72,
            "velocity": 0.5669291338582677
          },
          {
            "duration": 0.07199999999999918,
            "durationTicks": 18,
            "midi": 76,
            "name": "E5",
            "ticks": 6960,
            "time": 27.84,
            "velocity": 0.5826771653543307
          },
          {
            "duration": 0.0920000000000023,
            "durationTicks": 23,
            "midi": 76,
            "name": "E5",
            "ticks": 6990,
            "time": 27.959999999999997,
            "velocity": 0.5826771653543307
          },
          {
            "duration": 0.08399999999999963,
            "durationTicks": 21,
            "midi": 76,
            "name": "E5",
            "ticks": 7020,
            "time": 28.08,
            "velocity": 0.5118110236220472
          },
          {
            "duration": 0.0799999999999983,
            "durationTicks": 20,
            "midi": 76,
            "name": "E5",
            "ticks": 7050,
            "time": 28.2,
            "velocity": 0.5826771653543307
          },
          {
            "duration": 0.10000000000000142,
            "durationTicks": 25,
            "midi": 76,
            "name": "E5",
            "ticks": 7080,
            "time": 28.32,
            "velocity": 0.5118110236220472
          },
          {
            "duration": 0.06800000000000139,
            "durationTicks": 17,
            "midi": 76,
            "name": "E5",
            "ticks": 7110,
            "time": 28.439999999999998,
            "velocity": 0.47244094488188976
          },
          {
            "duration": 0.0920000000000023,
            "durationTicks": 23,
            "midi": 76,
            "name": "E5",
            "ticks": 7140,
            "time": 28.56,
            "velocity": 0.49606299212598426
          },
          {
            "duration": 0.09600000000000009,
            "durationTicks": 24,
            "midi": 76,
            "name": "E5",
            "ticks": 7170,
            "time": 28.68,
            "velocity": 0.6850393700787402
          },
          {
            "duration": 0.0799999999999983,
            "durationTicks": 20,
            "midi": 72,
            "name": "C5",
            "ticks": 7260,
            "time": 29.04,
            "velocity": 0.5905511811023622
          },
          {
            "duration": 0.0799999999999983,
            "durationTicks": 20,
            "midi": 72,
            "name": "C5",
            "ticks": 7290,
            "time": 29.16,
            "velocity": 0.5118110236220472
          },
          {
            "duration": 0.07600000000000051,
            "durationTicks": 19,
            "midi": 72,
            "name": "C5",
            "ticks": 7320,
            "time": 29.279999999999998,
            "velocity": 0.5118110236220472
          },
          {
            "duration": 0.0799999999999983,
            "durationTicks": 20,
            "midi": 72,
            "name": "C5",
            "ticks": 7350,
            "time": 29.4,
            "velocity": 0.4881889763779528
          },
          {
            "duration": 0.08399999999999963,
            "durationTicks": 21,
            "midi": 72,
            "name": "C5",
            "ticks": 7380,
            "time": 29.52,
            "velocity": 0.5118110236220472
          },
          {
            "duration": 0.09199999999999875,
            "durationTicks": 23,
            "midi": 72,
            "name": "C5",
            "ticks": 7410,
            "time": 29.64,
            "velocity": 0.5669291338582677
          },
          {
            "duration": 0.07199999999999918,
            "durationTicks": 18,
            "midi": 76,
            "name": "E5",
            "ticks": 7440,
            "time": 29.759999999999998,
            "velocity": 0.5826771653543307
          },
          {
            "duration": 0.0920000000000023,
            "durationTicks": 23,
            "midi": 76,
            "name": "E5",
            "ticks": 7470,
            "time": 29.88,
            "velocity": 0.5826771653543307
          },
          {
            "duration": 0.08399999999999608,
            "durationTicks": 21,
            "midi": 76,
            "name": "E5",
            "ticks": 7500,
            "time": 30,
            "velocity": 0.5118110236220472
          },
          {
            "duration": 0.08000000000000185,
            "durationTicks": 20,
            "midi": 76,
            "name": "E5",
            "ticks": 7530,
            "time": 30.119999999999997,
            "velocity": 0.5826771653543307
          },
          {
            "duration": 0.10000000000000142,
            "durationTicks": 25,
            "midi": 76,
            "name": "E5",
            "ticks": 7560,
            "time": 30.24,
            "velocity": 0.5118110236220472
          },
          {
            "duration": 0.06799999999999784,
            "durationTicks": 17,
            "midi": 76,
            "name": "E5",
            "ticks": 7590,
            "time": 30.36,
            "velocity": 0.47244094488188976
          },
          {
            "duration": 0.09199999999999875,
            "durationTicks": 23,
            "midi": 76,
            "name": "E5",
            "ticks": 7620,
            "time": 30.48,
            "velocity": 0.49606299212598426
          },
          {
            "duration": 0.09600000000000364,
            "durationTicks": 24,
            "midi": 76,
            "name": "E5",
            "ticks": 7650,
            "time": 30.599999999999998,
            "velocity": 0.6850393700787402
          },
          {
            "duration": 0.0800000000000054,
            "durationTicks": 20,
            "midi": 72,
            "name": "C5",
            "ticks": 7740,
            "time": 30.959999999999997,
            "velocity": 0.5905511811023622
          },
          {
            "duration": 0.08000000000000185,
            "durationTicks": 20,
            "midi": 72,
            "name": "C5",
            "ticks": 7770,
            "time": 31.08,
            "velocity": 0.5118110236220472
          },
          {
            "duration": 0.07599999999999696,
            "durationTicks": 19,
            "midi": 72,
            "name": "C5",
            "ticks": 7800,
            "time": 31.2,
            "velocity": 0.5118110236220472
          },
          {
            "duration": 0.08000000000000185,
            "durationTicks": 20,
            "midi": 72,
            "name": "C5",
            "ticks": 7830,
            "time": 31.32,
            "velocity": 0.4881889763779528
          },
          {
            "duration": 0.08399999999999963,
            "durationTicks": 21,
            "midi": 72,
            "name": "C5",
            "ticks": 7860,
            "time": 31.439999999999998,
            "velocity": 0.5118110236220472
          },
          {
            "duration": 0.09199999999999875,
            "durationTicks": 23,
            "midi": 72,
            "name": "C5",
            "ticks": 7890,
            "time": 31.56,
            "velocity": 0.5669291338582677
          },
          {
            "duration": 0.07200000000000273,
            "durationTicks": 18,
            "midi": 76,
            "name": "E5",
            "ticks": 7920,
            "time": 31.68,
            "velocity": 0.5826771653543307
          },
          {
            "duration": 0.09199999999999875,
            "durationTicks": 23,
            "midi": 76,
            "name": "E5",
            "ticks": 7950,
            "time": 31.799999999999997,
            "velocity": 0.5826771653543307
          },
          {
            "duration": 0.08399999999999963,
            "durationTicks": 21,
            "midi": 76,
            "name": "E5",
            "ticks": 7980,
            "time": 31.919999999999998,
            "velocity": 0.5118110236220472
          },
          {
            "duration": 0.0800000000000054,
            "durationTicks": 20,
            "midi": 76,
            "name": "E5",
            "ticks": 8010,
            "time": 32.04,
            "velocity": 0.5826771653543307
          },
          {
            "duration": 0.10000000000000142,
            "durationTicks": 25,
            "midi": 76,
            "name": "E5",
            "ticks": 8040,
            "time": 32.16,
            "velocity": 0.5118110236220472
          },
          {
            "duration": 0.06799999999999784,
            "durationTicks": 17,
            "midi": 76,
            "name": "E5",
            "ticks": 8070,
            "time": 32.28,
            "velocity": 0.47244094488188976
          },
          {
            "duration": 0.09199999999999875,
            "durationTicks": 23,
            "midi": 76,
            "name": "E5",
            "ticks": 8100,
            "time": 32.4,
            "velocity": 0.49606299212598426
          },
          {
            "duration": 0.09600000000000364,
            "durationTicks": 24,
            "midi": 76,
            "name": "E5",
            "ticks": 8130,
            "time": 32.519999999999996,
            "velocity": 0.6850393700787402
          },
          {
            "duration": 0.0800000000000054,
            "durationTicks": 20,
            "midi": 72,
            "name": "C5",
            "ticks": 8220,
            "time": 32.879999999999995,
            "velocity": 0.5905511811023622
          },
          {
            "duration": 0.0799999999999983,
            "durationTicks": 20,
            "midi": 72,
            "name": "C5",
            "ticks": 8250,
            "time": 33,
            "velocity": 0.5118110236220472
          },
          {
            "duration": 0.07600000000000051,
            "durationTicks": 19,
            "midi": 72,
            "name": "C5",
            "ticks": 8280,
            "time": 33.12,
            "velocity": 0.5118110236220472
          },
          {
            "duration": 0.0799999999999983,
            "durationTicks": 20,
            "midi": 72,
            "name": "C5",
            "ticks": 8310,
            "time": 33.24,
            "velocity": 0.4881889763779528
          },
          {
            "duration": 0.08399999999999608,
            "durationTicks": 21,
            "midi": 72,
            "name": "C5",
            "ticks": 8340,
            "time": 33.36,
            "velocity": 0.5118110236220472
          },
          {
            "duration": 0.09199999999999875,
            "durationTicks": 23,
            "midi": 72,
            "name": "C5",
            "ticks": 8370,
            "time": 33.48,
            "velocity": 0.5669291338582677
          },
          {
            "duration": 0.07200000000000273,
            "durationTicks": 18,
            "midi": 76,
            "name": "E5",
            "ticks": 8400,
            "time": 33.6,
            "velocity": 0.5826771653543307
          },
          {
            "duration": 0.09199999999999875,
            "durationTicks": 23,
            "midi": 76,
            "name": "E5",
            "ticks": 8430,
            "time": 33.72,
            "velocity": 0.5826771653543307
          },
          {
            "duration": 0.08400000000000318,
            "durationTicks": 21,
            "midi": 76,
            "name": "E5",
            "ticks": 8460,
            "time": 33.839999999999996,
            "velocity": 0.5118110236220472
          },
          {
            "duration": 0.0799999999999983,
            "durationTicks": 20,
            "midi": 76,
            "name": "E5",
            "ticks": 8490,
            "time": 33.96,
            "velocity": 0.5826771653543307
          },
          {
            "duration": 0.10000000000000142,
            "durationTicks": 25,
            "midi": 76,
            "name": "E5",
            "ticks": 8520,
            "time": 34.08,
            "velocity": 0.5118110236220472
          },
          {
            "duration": 0.06800000000000495,
            "durationTicks": 17,
            "midi": 76,
            "name": "E5",
            "ticks": 8550,
            "time": 34.199999999999996,
            "velocity": 0.47244094488188976
          },
          {
            "duration": 0.09199999999999875,
            "durationTicks": 23,
            "midi": 76,
            "name": "E5",
            "ticks": 8580,
            "time": 34.32,
            "velocity": 0.49606299212598426
          },
          {
            "duration": 0.09600000000000364,
            "durationTicks": 24,
            "midi": 76,
            "name": "E5",
            "ticks": 8610,
            "time": 34.44,
            "velocity": 0.6850393700787402
          },
          {
            "duration": 0.0800000000000054,
            "durationTicks": 20,
            "midi": 72,
            "name": "C5",
            "ticks": 8700,
            "time": 34.8,
            "velocity": 0.5905511811023622
          },
          {
            "duration": 0.0799999999999983,
            "durationTicks": 20,
            "midi": 72,
            "name": "C5",
            "ticks": 8730,
            "time": 34.92,
            "velocity": 0.5118110236220472
          },
          {
            "duration": 0.07600000000000051,
            "durationTicks": 19,
            "midi": 72,
            "name": "C5",
            "ticks": 8760,
            "time": 35.04,
            "velocity": 0.5118110236220472
          },
          {
            "duration": 0.0800000000000054,
            "durationTicks": 20,
            "midi": 72,
            "name": "C5",
            "ticks": 8790,
            "time": 35.16,
            "velocity": 0.4881889763779528
          },
          {
            "duration": 0.08399999999999608,
            "durationTicks": 21,
            "midi": 72,
            "name": "C5",
            "ticks": 8820,
            "time": 35.28,
            "velocity": 0.5118110236220472
          },
          {
            "duration": 0.09199999999999875,
            "durationTicks": 23,
            "midi": 72,
            "name": "C5",
            "ticks": 8850,
            "time": 35.4,
            "velocity": 0.5669291338582677
          },
          {
            "duration": 0.07200000000000273,
            "durationTicks": 18,
            "midi": 76,
            "name": "E5",
            "ticks": 8880,
            "time": 35.519999999999996,
            "velocity": 0.5826771653543307
          },
          {
            "duration": 0.09199999999999875,
            "durationTicks": 23,
            "midi": 76,
            "name": "E5",
            "ticks": 8910,
            "time": 35.64,
            "velocity": 0.5826771653543307
          },
          {
            "duration": 0.08399999999999608,
            "durationTicks": 21,
            "midi": 76,
            "name": "E5",
            "ticks": 8940,
            "time": 35.76,
            "velocity": 0.5118110236220472
          },
          {
            "duration": 0.0800000000000054,
            "durationTicks": 20,
            "midi": 76,
            "name": "E5",
            "ticks": 8970,
            "time": 35.879999999999995,
            "velocity": 0.5826771653543307
          },
          {
            "duration": 0.09999999999999432,
            "durationTicks": 25,
            "midi": 76,
            "name": "E5",
            "ticks": 9000,
            "time": 36,
            "velocity": 0.5118110236220472
          },
          {
            "duration": 0.06799999999999784,
            "durationTicks": 17,
            "midi": 76,
            "name": "E5",
            "ticks": 9030,
            "time": 36.12,
            "velocity": 0.47244094488188976
          },
          {
            "duration": 0.09199999999999164,
            "durationTicks": 23,
            "midi": 76,
            "name": "E5",
            "ticks": 9060,
            "time": 36.24,
            "velocity": 0.49606299212598426
          },
          {
            "duration": 0.09600000000000364,
            "durationTicks": 24,
            "midi": 76,
            "name": "E5",
            "ticks": 9090,
            "time": 36.36,
            "velocity": 0.6850393700787402
          },
          {
            "duration": 0.0800000000000054,
            "durationTicks": 20,
            "midi": 72,
            "name": "C5",
            "ticks": 9180,
            "time": 36.72,
            "velocity": 0.5905511811023622
          },
          {
            "duration": 0.0800000000000054,
            "durationTicks": 20,
            "midi": 72,
            "name": "C5",
            "ticks": 9210,
            "time": 36.839999999999996,
            "velocity": 0.5118110236220472
          },
          {
            "duration": 0.0759999999999934,
            "durationTicks": 19,
            "midi": 72,
            "name": "C5",
            "ticks": 9240,
            "time": 36.96,
            "velocity": 0.5118110236220472
          },
          {
            "duration": 0.0800000000000054,
            "durationTicks": 20,
            "midi": 72,
            "name": "C5",
            "ticks": 9270,
            "time": 37.08,
            "velocity": 0.4881889763779528
          },
          {
            "duration": 0.08400000000000318,
            "durationTicks": 21,
            "midi": 72,
            "name": "C5",
            "ticks": 9300,
            "time": 37.199999999999996,
            "velocity": 0.5118110236220472
          },
          {
            "duration": 0.09199999999999875,
            "durationTicks": 23,
            "midi": 72,
            "name": "C5",
            "ticks": 9330,
            "time": 37.32,
            "velocity": 0.5669291338582677
          },
          {
            "duration": 0.07200000000000273,
            "durationTicks": 18,
            "midi": 76,
            "name": "E5",
            "ticks": 9360,
            "time": 37.44,
            "velocity": 0.5826771653543307
          },
          {
            "duration": 0.09199999999999875,
            "durationTicks": 23,
            "midi": 76,
            "name": "E5",
            "ticks": 9390,
            "time": 37.559999999999995,
            "velocity": 0.5826771653543307
          },
          {
            "duration": 0.08399999999999608,
            "durationTicks": 21,
            "midi": 76,
            "name": "E5",
            "ticks": 9420,
            "time": 37.68,
            "velocity": 0.5118110236220472
          },
          {
            "duration": 0.0800000000000054,
            "durationTicks": 20,
            "midi": 76,
            "name": "E5",
            "ticks": 9450,
            "time": 37.8,
            "velocity": 0.5826771653543307
          },
          {
            "duration": 0.09999999999999432,
            "durationTicks": 25,
            "midi": 76,
            "name": "E5",
            "ticks": 9480,
            "time": 37.92,
            "velocity": 0.5118110236220472
          },
          {
            "duration": 0.06799999999999784,
            "durationTicks": 17,
            "midi": 76,
            "name": "E5",
            "ticks": 9510,
            "time": 38.04,
            "velocity": 0.47244094488188976
          },
          {
            "duration": 0.09199999999999875,
            "durationTicks": 23,
            "midi": 76,
            "name": "E5",
            "ticks": 9540,
            "time": 38.16,
            "velocity": 0.49606299212598426
          },
          {
            "duration": 0.09599999999999653,
            "durationTicks": 24,
            "midi": 76,
            "name": "E5",
            "ticks": 9570,
            "time": 38.28,
            "velocity": 0.6850393700787402
          },
          {
            "duration": 0.0799999999999983,
            "durationTicks": 20,
            "midi": 72,
            "name": "C5",
            "ticks": 9660,
            "time": 38.64,
            "velocity": 0.5905511811023622
          },
          {
            "duration": 0.0800000000000054,
            "durationTicks": 20,
            "midi": 72,
            "name": "C5",
            "ticks": 9690,
            "time": 38.76,
            "velocity": 0.5118110236220472
          },
          {
            "duration": 0.07600000000000051,
            "durationTicks": 19,
            "midi": 72,
            "name": "C5",
            "ticks": 9720,
            "time": 38.879999999999995,
            "velocity": 0.5118110236220472
          },
          {
            "duration": 0.0799999999999983,
            "durationTicks": 20,
            "midi": 72,
            "name": "C5",
            "ticks": 9750,
            "time": 39,
            "velocity": 0.4881889763779528
          },
          {
            "duration": 0.08400000000000318,
            "durationTicks": 21,
            "midi": 72,
            "name": "C5",
            "ticks": 9780,
            "time": 39.12,
            "velocity": 0.5118110236220472
          },
          {
            "duration": 0.09199999999999164,
            "durationTicks": 23,
            "midi": 72,
            "name": "C5",
            "ticks": 9810,
            "time": 39.24,
            "velocity": 0.5669291338582677
          },
          {
            "duration": 0.07200000000000273,
            "durationTicks": 18,
            "midi": 76,
            "name": "E5",
            "ticks": 9840,
            "time": 39.36,
            "velocity": 0.5826771653543307
          },
          {
            "duration": 0.09199999999999875,
            "durationTicks": 23,
            "midi": 76,
            "name": "E5",
            "ticks": 9870,
            "time": 39.48,
            "velocity": 0.5826771653543307
          },
          {
            "duration": 0.08399999999999608,
            "durationTicks": 21,
            "midi": 76,
            "name": "E5",
            "ticks": 9900,
            "time": 39.6,
            "velocity": 0.5118110236220472
          },
          {
            "duration": 0.0800000000000054,
            "durationTicks": 20,
            "midi": 76,
            "name": "E5",
            "ticks": 9930,
            "time": 39.72,
            "velocity": 0.5826771653543307
          },
          {
            "duration": 0.10000000000000142,
            "durationTicks": 25,
            "midi": 76,
            "name": "E5",
            "ticks": 9960,
            "time": 39.839999999999996,
            "velocity": 0.5118110236220472
          },
          {
            "duration": 0.06799999999999784,
            "durationTicks": 17,
            "midi": 76,
            "name": "E5",
            "ticks": 9990,
            "time": 39.96,
            "velocity": 0.47244094488188976
          },
          {
            "duration": 0.09199999999999875,
            "durationTicks": 23,
            "midi": 76,
            "name": "E5",
            "ticks": 10020,
            "time": 40.08,
            "velocity": 0.49606299212598426
          },
          {
            "duration": 0.09600000000000364,
            "durationTicks": 24,
            "midi": 76,
            "name": "E5",
            "ticks": 10050,
            "time": 40.199999999999996,
            "velocity": 0.6850393700787402
          },
          {
            "duration": 0.0800000000000054,
            "durationTicks": 20,
            "midi": 72,
            "name": "C5",
            "ticks": 10140,
            "time": 40.559999999999995,
            "velocity": 0.5905511811023622
          },
          {
            "duration": 0.0799999999999983,
            "durationTicks": 20,
            "midi": 72,
            "name": "C5",
            "ticks": 10170,
            "time": 40.68,
            "velocity": 0.5118110236220472
          },
          {
            "duration": 0.07600000000000051,
            "durationTicks": 19,
            "midi": 72,
            "name": "C5",
            "ticks": 10200,
            "time": 40.8,
            "velocity": 0.5118110236220472
          },
          {
            "duration": 0.0799999999999983,
            "durationTicks": 20,
            "midi": 72,
            "name": "C5",
            "ticks": 10230,
            "time": 40.92,
            "velocity": 0.4881889763779528
          },
          {
            "duration": 0.08399999999999608,
            "durationTicks": 21,
            "midi": 72,
            "name": "C5",
            "ticks": 10260,
            "time": 41.04,
            "velocity": 0.5118110236220472
          },
          {
            "duration": 0.09199999999999875,
            "durationTicks": 23,
            "midi": 72,
            "name": "C5",
            "ticks": 10290,
            "time": 41.16,
            "velocity": 0.5669291338582677
          },
          {
            "duration": 0.07200000000000273,
            "durationTicks": 18,
            "midi": 76,
            "name": "E5",
            "ticks": 10320,
            "time": 41.28,
            "velocity": 0.5826771653543307
          },
          {
            "duration": 0.09199999999999875,
            "durationTicks": 23,
            "midi": 76,
            "name": "E5",
            "ticks": 10350,
            "time": 41.4,
            "velocity": 0.5826771653543307
          },
          {
            "duration": 0.08400000000000318,
            "durationTicks": 21,
            "midi": 76,
            "name": "E5",
            "ticks": 10380,
            "time": 41.519999999999996,
            "velocity": 0.5118110236220472
          },
          {
            "duration": 0.0799999999999983,
            "durationTicks": 20,
            "midi": 76,
            "name": "E5",
            "ticks": 10410,
            "time": 41.64,
            "velocity": 0.5826771653543307
          },
          {
            "duration": 0.10000000000000142,
            "durationTicks": 25,
            "midi": 76,
            "name": "E5",
            "ticks": 10440,
            "time": 41.76,
            "velocity": 0.5118110236220472
          },
          {
            "duration": 0.06800000000000495,
            "durationTicks": 17,
            "midi": 76,
            "name": "E5",
            "ticks": 10470,
            "time": 41.879999999999995,
            "velocity": 0.47244094488188976
          },
          {
            "duration": 0.09199999999999875,
            "durationTicks": 23,
            "midi": 76,
            "name": "E5",
            "ticks": 10500,
            "time": 42,
            "velocity": 0.49606299212598426
          },
          {
            "duration": 0.09600000000000364,
            "durationTicks": 24,
            "midi": 76,
            "name": "E5",
            "ticks": 10530,
            "time": 42.12,
            "velocity": 0.6850393700787402
          },
          {
            "duration": 0.0800000000000054,
            "durationTicks": 20,
            "midi": 72,
            "name": "C5",
            "ticks": 10620,
            "time": 42.48,
            "velocity": 0.5905511811023622
          },
          {
            "duration": 0.0799999999999983,
            "durationTicks": 20,
            "midi": 72,
            "name": "C5",
            "ticks": 10650,
            "time": 42.6,
            "velocity": 0.5118110236220472
          },
          {
            "duration": 0.07600000000000051,
            "durationTicks": 19,
            "midi": 72,
            "name": "C5",
            "ticks": 10680,
            "time": 42.72,
            "velocity": 0.5118110236220472
          },
          {
            "duration": 0.0800000000000054,
            "durationTicks": 20,
            "midi": 72,
            "name": "C5",
            "ticks": 10710,
            "time": 42.839999999999996,
            "velocity": 0.4881889763779528
          },
          {
            "duration": 0.08399999999999608,
            "durationTicks": 21,
            "midi": 72,
            "name": "C5",
            "ticks": 10740,
            "time": 42.96,
            "velocity": 0.5118110236220472
          },
          {
            "duration": 0.09199999999999875,
            "durationTicks": 23,
            "midi": 72,
            "name": "C5",
            "ticks": 10770,
            "time": 43.08,
            "velocity": 0.5669291338582677
          },
          {
            "duration": 0.07200000000000273,
            "durationTicks": 18,
            "midi": 76,
            "name": "E5",
            "ticks": 10800,
            "time": 43.199999999999996,
            "velocity": 0.5826771653543307
          },
          {
            "duration": 0.09199999999999875,
            "durationTicks": 23,
            "midi": 76,
            "name": "E5",
            "ticks": 10830,
            "time": 43.32,
            "velocity": 0.5826771653543307
          },
          {
            "duration": 0.08399999999999608,
            "durationTicks": 21,
            "midi": 76,
            "name": "E5",
            "ticks": 10860,
            "time": 43.44,
            "velocity": 0.5118110236220472
          },
          {
            "duration": 0.0800000000000054,
            "durationTicks": 20,
            "midi": 76,
            "name": "E5",
            "ticks": 10890,
            "time": 43.559999999999995,
            "velocity": 0.5826771653543307
          },
          {
            "duration": 0.09999999999999432,
            "durationTicks": 25,
            "midi": 76,
            "name": "E5",
            "ticks": 10920,
            "time": 43.68,
            "velocity": 0.5118110236220472
          },
          {
            "duration": 0.06799999999999784,
            "durationTicks": 17,
            "midi": 76,
            "name": "E5",
            "ticks": 10950,
            "time": 43.8,
            "velocity": 0.47244094488188976
          },
          {
            "duration": 0.09199999999999164,
            "durationTicks": 23,
            "midi": 76,
            "name": "E5",
            "ticks": 10980,
            "time": 43.92,
            "velocity": 0.49606299212598426
          },
          {
            "duration": 0.09600000000000364,
            "durationTicks": 24,
            "midi": 76,
            "name": "E5",
            "ticks": 11010,
            "time": 44.04,
            "velocity": 0.6850393700787402
          },
          {
            "duration": 0.0800000000000054,
            "durationTicks": 20,
            "midi": 72,
            "name": "C5",
            "ticks": 11100,
            "time": 44.4,
            "velocity": 0.5905511811023622
          },
          {
            "duration": 0.0800000000000054,
            "durationTicks": 20,
            "midi": 72,
            "name": "C5",
            "ticks": 11130,
            "time": 44.519999999999996,
            "velocity": 0.5118110236220472
          },
          {
            "duration": 0.0759999999999934,
            "durationTicks": 19,
            "midi": 72,
            "name": "C5",
            "ticks": 11160,
            "time": 44.64,
            "velocity": 0.5118110236220472
          },
          {
            "duration": 0.0800000000000054,
            "durationTicks": 20,
            "midi": 72,
            "name": "C5",
            "ticks": 11190,
            "time": 44.76,
            "velocity": 0.4881889763779528
          },
          {
            "duration": 0.08400000000000318,
            "durationTicks": 21,
            "midi": 72,
            "name": "C5",
            "ticks": 11220,
            "time": 44.879999999999995,
            "velocity": 0.5118110236220472
          },
          {
            "duration": 0.09199999999999875,
            "durationTicks": 23,
            "midi": 72,
            "name": "C5",
            "ticks": 11250,
            "time": 45,
            "velocity": 0.5669291338582677
          },
          {
            "duration": 0.07200000000000273,
            "durationTicks": 18,
            "midi": 76,
            "name": "E5",
            "ticks": 11280,
            "time": 45.12,
            "velocity": 0.5826771653543307
          },
          {
            "duration": 0.09199999999999875,
            "durationTicks": 23,
            "midi": 76,
            "name": "E5",
            "ticks": 11310,
            "time": 45.239999999999995,
            "velocity": 0.5826771653543307
          },
          {
            "duration": 0.08399999999999608,
            "durationTicks": 21,
            "midi": 76,
            "name": "E5",
            "ticks": 11340,
            "time": 45.36,
            "velocity": 0.5118110236220472
          },
          {
            "duration": 0.0800000000000054,
            "durationTicks": 20,
            "midi": 76,
            "name": "E5",
            "ticks": 11370,
            "time": 45.48,
            "velocity": 0.5826771653543307
          },
          {
            "duration": 0.09999999999999432,
            "durationTicks": 25,
            "midi": 76,
            "name": "E5",
            "ticks": 11400,
            "time": 45.6,
            "velocity": 0.5118110236220472
          },
          {
            "duration": 0.06799999999999784,
            "durationTicks": 17,
            "midi": 76,
            "name": "E5",
            "ticks": 11430,
            "time": 45.72,
            "velocity": 0.47244094488188976
          },
          {
            "duration": 0.09199999999999875,
            "durationTicks": 23,
            "midi": 76,
            "name": "E5",
            "ticks": 11460,
            "time": 45.839999999999996,
            "velocity": 0.49606299212598426
          },
          {
            "duration": 0.09599999999999653,
            "durationTicks": 24,
            "midi": 76,
            "name": "E5",
            "ticks": 11490,
            "time": 45.96,
            "velocity": 0.6850393700787402
          },
          {
            "duration": 0.0799999999999983,
            "durationTicks": 20,
            "midi": 72,
            "name": "C5",
            "ticks": 11580,
            "time": 46.32,
            "velocity": 0.5905511811023622
          },
          {
            "duration": 0.0800000000000054,
            "durationTicks": 20,
            "midi": 72,
            "name": "C5",
            "ticks": 11610,
            "time": 46.44,
            "velocity": 0.5118110236220472
          },
          {
            "duration": 0.07600000000000051,
            "durationTicks": 19,
            "midi": 72,
            "name": "C5",
            "ticks": 11640,
            "time": 46.559999999999995,
            "velocity": 0.5118110236220472
          },
          {
            "duration": 0.0799999999999983,
            "durationTicks": 20,
            "midi": 72,
            "name": "C5",
            "ticks": 11670,
            "time": 46.68,
            "velocity": 0.4881889763779528
          },
          {
            "duration": 0.08400000000000318,
            "durationTicks": 21,
            "midi": 72,
            "name": "C5",
            "ticks": 11700,
            "time": 46.8,
            "velocity": 0.5118110236220472
          },
          {
            "duration": 0.09199999999999164,
            "durationTicks": 23,
            "midi": 72,
            "name": "C5",
            "ticks": 11730,
            "time": 46.92,
            "velocity": 0.5669291338582677
          },
          {
            "duration": 0.07200000000000273,
            "durationTicks": 18,
            "midi": 76,
            "name": "E5",
            "ticks": 11760,
            "time": 47.04,
            "velocity": 0.5826771653543307
          },
          {
            "duration": 0.09199999999999875,
            "durationTicks": 23,
            "midi": 76,
            "name": "E5",
            "ticks": 11790,
            "time": 47.16,
            "velocity": 0.5826771653543307
          },
          {
            "duration": 0.08399999999999608,
            "durationTicks": 21,
            "midi": 76,
            "name": "E5",
            "ticks": 11820,
            "time": 47.28,
            "velocity": 0.5118110236220472
          },
          {
            "duration": 0.0800000000000054,
            "durationTicks": 20,
            "midi": 76,
            "name": "E5",
            "ticks": 11850,
            "time": 47.4,
            "velocity": 0.5826771653543307
          },
          {
            "duration": 0.10000000000000142,
            "durationTicks": 25,
            "midi": 76,
            "name": "E5",
            "ticks": 11880,
            "time": 47.519999999999996,
            "velocity": 0.5118110236220472
          },
          {
            "duration": 0.06799999999999784,
            "durationTicks": 17,
            "midi": 76,
            "name": "E5",
            "ticks": 11910,
            "time": 47.64,
            "velocity": 0.47244094488188976
          },
          {
            "duration": 0.09199999999999875,
            "durationTicks": 23,
            "midi": 76,
            "name": "E5",
            "ticks": 11940,
            "time": 47.76,
            "velocity": 0.49606299212598426
          },
          {
            "duration": 0.09600000000000364,
            "durationTicks": 24,
            "midi": 76,
            "name": "E5",
            "ticks": 11970,
            "time": 47.879999999999995,
            "velocity": 0.6850393700787402
          },
          {
            "duration": 0.0800000000000054,
            "durationTicks": 20,
            "midi": 72,
            "name": "C5",
            "ticks": 12060,
            "time": 48.239999999999995,
            "velocity": 0.5905511811023622
          },
          {
            "duration": 0.0799999999999983,
            "durationTicks": 20,
            "midi": 72,
            "name": "C5",
            "ticks": 12090,
            "time": 48.36,
            "velocity": 0.5118110236220472
          },
          {
            "duration": 0.07600000000000051,
            "durationTicks": 19,
            "midi": 72,
            "name": "C5",
            "ticks": 12120,
            "time": 48.48,
            "velocity": 0.5118110236220472
          },
          {
            "duration": 0.0799999999999983,
            "durationTicks": 20,
            "midi": 72,
            "name": "C5",
            "ticks": 12150,
            "time": 48.6,
            "velocity": 0.4881889763779528
          },
          {
            "duration": 0.08399999999999608,
            "durationTicks": 21,
            "midi": 72,
            "name": "C5",
            "ticks": 12180,
            "time": 48.72,
            "velocity": 0.5118110236220472
          },
          {
            "duration": 0.09199999999999875,
            "durationTicks": 23,
            "midi": 72,
            "name": "C5",
            "ticks": 12210,
            "time": 48.839999999999996,
            "velocity": 0.5669291338582677
          },
          {
            "duration": 0.07200000000000273,
            "durationTicks": 18,
            "midi": 76,
            "name": "E5",
            "ticks": 12240,
            "time": 48.96,
            "velocity": 0.5826771653543307
          },
          {
            "duration": 0.09199999999999875,
            "durationTicks": 23,
            "midi": 76,
            "name": "E5",
            "ticks": 12270,
            "time": 49.08,
            "velocity": 0.5826771653543307
          },
          {
            "duration": 0.08400000000000318,
            "durationTicks": 21,
            "midi": 76,
            "name": "E5",
            "ticks": 12300,
            "time": 49.199999999999996,
            "velocity": 0.5118110236220472
          },
          {
            "duration": 0.0799999999999983,
            "durationTicks": 20,
            "midi": 76,
            "name": "E5",
            "ticks": 12330,
            "time": 49.32,
            "velocity": 0.5826771653543307
          },
          {
            "duration": 0.10000000000000142,
            "durationTicks": 25,
            "midi": 76,
            "name": "E5",
            "ticks": 12360,
            "time": 49.44,
            "velocity": 0.5118110236220472
          },
          {
            "duration": 0.06800000000000495,
            "durationTicks": 17,
            "midi": 76,
            "name": "E5",
            "ticks": 12390,
            "time": 49.559999999999995,
            "velocity": 0.47244094488188976
          },
          {
            "duration": 0.09199999999999875,
            "durationTicks": 23,
            "midi": 76,
            "name": "E5",
            "ticks": 12420,
            "time": 49.68,
            "velocity": 0.49606299212598426
          },
          {
            "duration": 0.09600000000000364,
            "durationTicks": 24,
            "midi": 76,
            "name": "E5",
            "ticks": 12450,
            "time": 49.8,
            "velocity": 0.6850393700787402
          },
          {
            "duration": 0.0800000000000054,
            "durationTicks": 20,
            "midi": 72,
            "name": "C5",
            "ticks": 12540,
            "time": 50.16,
            "velocity": 0.5905511811023622
          },
          {
            "duration": 0.0799999999999983,
            "durationTicks": 20,
            "midi": 72,
            "name": "C5",
            "ticks": 12570,
            "time": 50.28,
            "velocity": 0.5118110236220472
          },
          {
            "duration": 0.07600000000000051,
            "durationTicks": 19,
            "midi": 72,
            "name": "C5",
            "ticks": 12600,
            "time": 50.4,
            "velocity": 0.5118110236220472
          },
          {
            "duration": 0.0800000000000054,
            "durationTicks": 20,
            "midi": 72,
            "name": "C5",
            "ticks": 12630,
            "time": 50.519999999999996,
            "velocity": 0.4881889763779528
          },
          {
            "duration": 0.08399999999999608,
            "durationTicks": 21,
            "midi": 72,
            "name": "C5",
            "ticks": 12660,
            "time": 50.64,
            "velocity": 0.5118110236220472
          },
          {
            "duration": 0.09199999999999875,
            "durationTicks": 23,
            "midi": 72,
            "name": "C5",
            "ticks": 12690,
            "time": 50.76,
            "velocity": 0.5669291338582677
          },
          {
            "duration": 0.07200000000000273,
            "durationTicks": 18,
            "midi": 76,
            "name": "E5",
            "ticks": 12720,
            "time": 50.879999999999995,
            "velocity": 0.5826771653543307
          },
          {
            "duration": 0.09199999999999875,
            "durationTicks": 23,
            "midi": 76,
            "name": "E5",
            "ticks": 12750,
            "time": 51,
            "velocity": 0.5826771653543307
          },
          {
            "duration": 0.08399999999999608,
            "durationTicks": 21,
            "midi": 76,
            "name": "E5",
            "ticks": 12780,
            "time": 51.12,
            "velocity": 0.5118110236220472
          },
          {
            "duration": 0.0800000000000054,
            "durationTicks": 20,
            "midi": 76,
            "name": "E5",
            "ticks": 12810,
            "time": 51.239999999999995,
            "velocity": 0.5826771653543307
          },
          {
            "duration": 0.09999999999999432,
            "durationTicks": 25,
            "midi": 76,
            "name": "E5",
            "ticks": 12840,
            "time": 51.36,
            "velocity": 0.5118110236220472
          },
          {
            "duration": 0.06799999999999784,
            "durationTicks": 17,
            "midi": 76,
            "name": "E5",
            "ticks": 12870,
            "time": 51.48,
            "velocity": 0.47244094488188976
          },
          {
            "duration": 0.09199999999999164,
            "durationTicks": 23,
            "midi": 76,
            "name": "E5",
            "ticks": 12900,
            "time": 51.6,
            "velocity": 0.49606299212598426
          },
          {
            "duration": 0.09600000000000364,
            "durationTicks": 24,
            "midi": 76,
            "name": "E5",
            "ticks": 12930,
            "time": 51.72,
            "velocity": 0.6850393700787402
          },
          {
            "duration": 0.0800000000000054,
            "durationTicks": 20,
            "midi": 72,
            "name": "C5",
            "ticks": 13020,
            "time": 52.08,
            "velocity": 0.5905511811023622
          },
          {
            "duration": 0.0800000000000054,
            "durationTicks": 20,
            "midi": 72,
            "name": "C5",
            "ticks": 13050,
            "time": 52.199999999999996,
            "velocity": 0.5118110236220472
          },
          {
            "duration": 0.0759999999999934,
            "durationTicks": 19,
            "midi": 72,
            "name": "C5",
            "ticks": 13080,
            "time": 52.32,
            "velocity": 0.5118110236220472
          },
          {
            "duration": 0.0800000000000054,
            "durationTicks": 20,
            "midi": 72,
            "name": "C5",
            "ticks": 13110,
            "time": 52.44,
            "velocity": 0.4881889763779528
          },
          {
            "duration": 0.08400000000000318,
            "durationTicks": 21,
            "midi": 72,
            "name": "C5",
            "ticks": 13140,
            "time": 52.559999999999995,
            "velocity": 0.5118110236220472
          },
          {
            "duration": 0.09199999999999875,
            "durationTicks": 23,
            "midi": 72,
            "name": "C5",
            "ticks": 13170,
            "time": 52.68,
            "velocity": 0.5669291338582677
          },
          {
            "duration": 0.07200000000000273,
            "durationTicks": 18,
            "midi": 76,
            "name": "E5",
            "ticks": 13200,
            "time": 52.8,
            "velocity": 0.5826771653543307
          },
          {
            "duration": 0.09199999999999875,
            "durationTicks": 23,
            "midi": 76,
            "name": "E5",
            "ticks": 13230,
            "time": 52.919999999999995,
            "velocity": 0.5826771653543307
          },
          {
            "duration": 0.08399999999999608,
            "durationTicks": 21,
            "midi": 76,
            "name": "E5",
            "ticks": 13260,
            "time": 53.04,
            "velocity": 0.5118110236220472
          },
          {
            "duration": 0.0800000000000054,
            "durationTicks": 20,
            "midi": 76,
            "name": "E5",
            "ticks": 13290,
            "time": 53.16,
            "velocity": 0.5826771653543307
          },
          {
            "duration": 0.09999999999999432,
            "durationTicks": 25,
            "midi": 76,
            "name": "E5",
            "ticks": 13320,
            "time": 53.28,
            "velocity": 0.5118110236220472
          },
          {
            "duration": 0.06799999999999784,
            "durationTicks": 17,
            "midi": 76,
            "name": "E5",
            "ticks": 13350,
            "time": 53.4,
            "velocity": 0.47244094488188976
          },
          {
            "duration": 0.09199999999999875,
            "durationTicks": 23,
            "midi": 76,
            "name": "E5",
            "ticks": 13380,
            "time": 53.519999999999996,
            "velocity": 0.49606299212598426
          },
          {
            "duration": 0.09599999999999653,
            "durationTicks": 24,
            "midi": 76,
            "name": "E5",
            "ticks": 13410,
            "time": 53.64,
            "velocity": 0.6850393700787402
          },
          {
            "duration": 0.0799999999999983,
            "durationTicks": 20,
            "midi": 72,
            "name": "C5",
            "ticks": 13500,
            "time": 54,
            "velocity": 0.5905511811023622
          },
          {
            "duration": 0.0800000000000054,
            "durationTicks": 20,
            "midi": 72,
            "name": "C5",
            "ticks": 13530,
            "time": 54.12,
            "velocity": 0.5118110236220472
          },
          {
            "duration": 0.07600000000000051,
            "durationTicks": 19,
            "midi": 72,
            "name": "C5",
            "ticks": 13560,
            "time": 54.239999999999995,
            "velocity": 0.5118110236220472
          },
          {
            "duration": 0.0799999999999983,
            "durationTicks": 20,
            "midi": 72,
            "name": "C5",
            "ticks": 13590,
            "time": 54.36,
            "velocity": 0.4881889763779528
          },
          {
            "duration": 0.08400000000000318,
            "durationTicks": 21,
            "midi": 72,
            "name": "C5",
            "ticks": 13620,
            "time": 54.48,
            "velocity": 0.5118110236220472
          },
          {
            "duration": 0.09199999999999164,
            "durationTicks": 23,
            "midi": 72,
            "name": "C5",
            "ticks": 13650,
            "time": 54.6,
            "velocity": 0.5669291338582677
          },
          {
            "duration": 0.07200000000000273,
            "durationTicks": 18,
            "midi": 76,
            "name": "E5",
            "ticks": 13680,
            "time": 54.72,
            "velocity": 0.5826771653543307
          },
          {
            "duration": 0.09199999999999875,
            "durationTicks": 23,
            "midi": 76,
            "name": "E5",
            "ticks": 13710,
            "time": 54.839999999999996,
            "velocity": 0.5826771653543307
          },
          {
            "duration": 0.08399999999999608,
            "durationTicks": 21,
            "midi": 76,
            "name": "E5",
            "ticks": 13740,
            "time": 54.96,
            "velocity": 0.5118110236220472
          },
          {
            "duration": 0.0800000000000054,
            "durationTicks": 20,
            "midi": 76,
            "name": "E5",
            "ticks": 13770,
            "time": 55.08,
            "velocity": 0.5826771653543307
          },
          {
            "duration": 0.10000000000000142,
            "durationTicks": 25,
            "midi": 76,
            "name": "E5",
            "ticks": 13800,
            "time": 55.199999999999996,
            "velocity": 0.5118110236220472
          },
          {
            "duration": 0.06799999999999784,
            "durationTicks": 17,
            "midi": 76,
            "name": "E5",
            "ticks": 13830,
            "time": 55.32,
            "velocity": 0.47244094488188976
          },
          {
            "duration": 0.09199999999999875,
            "durationTicks": 23,
            "midi": 76,
            "name": "E5",
            "ticks": 13860,
            "time": 55.44,
            "velocity": 0.49606299212598426
          },
          {
            "duration": 0.09600000000000364,
            "durationTicks": 24,
            "midi": 76,
            "name": "E5",
            "ticks": 13890,
            "time": 55.559999999999995,
            "velocity": 0.6850393700787402
          },
          {
            "duration": 0.0800000000000054,
            "durationTicks": 20,
            "midi": 72,
            "name": "C5",
            "ticks": 13980,
            "time": 55.919999999999995,
            "velocity": 0.5905511811023622
          },
          {
            "duration": 0.0799999999999983,
            "durationTicks": 20,
            "midi": 72,
            "name": "C5",
            "ticks": 14010,
            "time": 56.04,
            "velocity": 0.5118110236220472
          },
          {
            "duration": 0.07600000000000051,
            "durationTicks": 19,
            "midi": 72,
            "name": "C5",
            "ticks": 14040,
            "time": 56.16,
            "velocity": 0.5118110236220472
          },
          {
            "duration": 0.0799999999999983,
            "durationTicks": 20,
            "midi": 72,
            "name": "C5",
            "ticks": 14070,
            "time": 56.28,
            "velocity": 0.4881889763779528
          },
          {
            "duration": 0.08399999999999608,
            "durationTicks": 21,
            "midi": 72,
            "name": "C5",
            "ticks": 14100,
            "time": 56.4,
            "velocity": 0.5118110236220472
          },
          {
            "duration": 0.09199999999999875,
            "durationTicks": 23,
            "midi": 72,
            "name": "C5",
            "ticks": 14130,
            "time": 56.519999999999996,
            "velocity": 0.5669291338582677
          },
          {
            "duration": 0.07200000000000273,
            "durationTicks": 18,
            "midi": 76,
            "name": "E5",
            "ticks": 14160,
            "time": 56.64,
            "velocity": 0.5826771653543307
          },
          {
            "duration": 0.09199999999999875,
            "durationTicks": 23,
            "midi": 76,
            "name": "E5",
            "ticks": 14190,
            "time": 56.76,
            "velocity": 0.5826771653543307
          },
          {
            "duration": 0.08400000000000318,
            "durationTicks": 21,
            "midi": 76,
            "name": "E5",
            "ticks": 14220,
            "time": 56.879999999999995,
            "velocity": 0.5118110236220472
          },
          {
            "duration": 0.0799999999999983,
            "durationTicks": 20,
            "midi": 76,
            "name": "E5",
            "ticks": 14250,
            "time": 57,
            "velocity": 0.5826771653543307
          },
          {
            "duration": 0.10000000000000142,
            "durationTicks": 25,
            "midi": 76,
            "name": "E5",
            "ticks": 14280,
            "time": 57.12,
            "velocity": 0.5118110236220472
          },
          {
            "duration": 0.06800000000000495,
            "durationTicks": 17,
            "midi": 76,
            "name": "E5",
            "ticks": 14310,
            "time": 57.239999999999995,
            "velocity": 0.47244094488188976
          },
          {
            "duration": 0.09199999999999875,
            "durationTicks": 23,
            "midi": 76,
            "name": "E5",
            "ticks": 14340,
            "time": 57.36,
            "velocity": 0.49606299212598426
          },
          {
            "duration": 0.09600000000000364,
            "durationTicks": 24,
            "midi": 76,
            "name": "E5",
            "ticks": 14370,
            "time": 57.48,
            "velocity": 0.6850393700787402
          },
          {
            "duration": 0.0800000000000054,
            "durationTicks": 20,
            "midi": 72,
            "name": "C5",
            "ticks": 14460,
            "time": 57.839999999999996,
            "velocity": 0.5905511811023622
          },
          {
            "duration": 0.0799999999999983,
            "durationTicks": 20,
            "midi": 72,
            "name": "C5",
            "ticks": 14490,
            "time": 57.96,
            "velocity": 0.5118110236220472
          },
          {
            "duration": 0.07600000000000051,
            "durationTicks": 19,
            "midi": 72,
            "name": "C5",
            "ticks": 14520,
            "time": 58.08,
            "velocity": 0.5118110236220472
          },
          {
            "duration": 0.0800000000000054,
            "durationTicks": 20,
            "midi": 72,
            "name": "C5",
            "ticks": 14550,
            "time": 58.199999999999996,
            "velocity": 0.4881889763779528
          },
          {
            "duration": 0.08399999999999608,
            "durationTicks": 21,
            "midi": 72,
            "name": "C5",
            "ticks": 14580,
            "time": 58.32,
            "velocity": 0.5118110236220472
          },
          {
            "duration": 0.09199999999999875,
            "durationTicks": 23,
            "midi": 72,
            "name": "C5",
            "ticks": 14610,
            "time": 58.44,
            "velocity": 0.5669291338582677
          },
          {
            "duration": 0.07200000000000273,
            "durationTicks": 18,
            "midi": 76,
            "name": "E5",
            "ticks": 14640,
            "time": 58.559999999999995,
            "velocity": 0.5826771653543307
          },
          {
            "duration": 0.09199999999999875,
            "durationTicks": 23,
            "midi": 76,
            "name": "E5",
            "ticks": 14670,
            "time": 58.68,
            "velocity": 0.5826771653543307
          },
          {
            "duration": 0.08399999999999608,
            "durationTicks": 21,
            "midi": 76,
            "name": "E5",
            "ticks": 14700,
            "time": 58.8,
            "velocity": 0.5118110236220472
          },
          {
            "duration": 0.0800000000000054,
            "durationTicks": 20,
            "midi": 76,
            "name": "E5",
            "ticks": 14730,
            "time": 58.919999999999995,
            "velocity": 0.5826771653543307
          },
          {
            "duration": 0.09999999999999432,
            "durationTicks": 25,
            "midi": 76,
            "name": "E5",
            "ticks": 14760,
            "time": 59.04,
            "velocity": 0.5118110236220472
          },
          {
            "duration": 0.06799999999999784,
            "durationTicks": 17,
            "midi": 76,
            "name": "E5",
            "ticks": 14790,
            "time": 59.16,
            "velocity": 0.47244094488188976
          },
          {
            "duration": 0.09199999999999164,
            "durationTicks": 23,
            "midi": 76,
            "name": "E5",
            "ticks": 14820,
            "time": 59.28,
            "velocity": 0.49606299212598426
          },
          {
            "duration": 0.09600000000000364,
            "durationTicks": 24,
            "midi": 76,
            "name": "E5",
            "ticks": 14850,
            "time": 59.4,
            "velocity": 0.6850393700787402
          },
          {
            "duration": 0.0800000000000054,
            "durationTicks": 20,
            "midi": 72,
            "name": "C5",
            "ticks": 14940,
            "time": 59.76,
            "velocity": 0.5905511811023622
          },
          {
            "duration": 0.0800000000000054,
            "durationTicks": 20,
            "midi": 72,
            "name": "C5",
            "ticks": 14970,
            "time": 59.879999999999995,
            "velocity": 0.5118110236220472
          },
          {
            "duration": 0.0759999999999934,
            "durationTicks": 19,
            "midi": 72,
            "name": "C5",
            "ticks": 15000,
            "time": 60,
            "velocity": 0.5118110236220472
          },
          {
            "duration": 0.0800000000000054,
            "durationTicks": 20,
            "midi": 72,
            "name": "C5",
            "ticks": 15030,
            "time": 60.12,
            "velocity": 0.4881889763779528
          },
          {
            "duration": 0.08400000000000318,
            "durationTicks": 21,
            "midi": 72,
            "name": "C5",
            "ticks": 15060,
            "time": 60.239999999999995,
            "velocity": 0.5118110236220472
          },
          {
            "duration": 0.09199999999999875,
            "durationTicks": 23,
            "midi": 72,
            "name": "C5",
            "ticks": 15090,
            "time": 60.36,
            "velocity": 0.5669291338582677
          },
          {
            "duration": 0.07200000000000273,
            "durationTicks": 18,
            "midi": 76,
            "name": "E5",
            "ticks": 15120,
            "time": 60.48,
            "velocity": 0.5826771653543307
          },
          {
            "duration": 0.09199999999999875,
            "durationTicks": 23,
            "midi": 76,
            "name": "E5",
            "ticks": 15150,
            "time": 60.599999999999994,
            "velocity": 0.5826771653543307
          },
          {
            "duration": 0.08399999999999608,
            "durationTicks": 21,
            "midi": 76,
            "name": "E5",
            "ticks": 15180,
            "time": 60.72,
            "velocity": 0.5118110236220472
          },
          {
            "duration": 0.0800000000000054,
            "durationTicks": 20,
            "midi": 76,
            "name": "E5",
            "ticks": 15210,
            "time": 60.839999999999996,
            "velocity": 0.5826771653543307
          },
          {
            "duration": 0.09999999999999432,
            "durationTicks": 25,
            "midi": 76,
            "name": "E5",
            "ticks": 15240,
            "time": 60.96,
            "velocity": 0.5118110236220472
          },
          {
            "duration": 0.06799999999999784,
            "durationTicks": 17,
            "midi": 76,
            "name": "E5",
            "ticks": 15270,
            "time": 61.08,
            "velocity": 0.47244094488188976
          },
          {
            "duration": 0.09199999999999875,
            "durationTicks": 23,
            "midi": 76,
            "name": "E5",
            "ticks": 15300,
            "time": 61.199999999999996,
            "velocity": 0.49606299212598426
          },
          {
            "duration": 0.09599999999999653,
            "durationTicks": 24,
            "midi": 76,
            "name": "E5",
            "ticks": 15330,
            "time": 61.32,
            "velocity": 0.6850393700787402
          },
          {
            "duration": 0.07999999999999119,
            "durationTicks": 20,
            "midi": 72,
            "name": "C5",
            "ticks": 15420,
            "time": 61.68,
            "velocity": 0.5905511811023622
          },
          {
            "duration": 0.0799999999999983,
            "durationTicks": 20,
            "midi": 72,
            "name": "C5",
            "ticks": 15450,
            "time": 61.8,
            "velocity": 0.5118110236220472
          },
          {
            "duration": 0.07600000000000051,
            "durationTicks": 19,
            "midi": 72,
            "name": "C5",
            "ticks": 15480,
            "time": 61.919999999999995,
            "velocity": 0.5118110236220472
          },
          {
            "duration": 0.07999999999999119,
            "durationTicks": 20,
            "midi": 72,
            "name": "C5",
            "ticks": 15510,
            "time": 62.04,
            "velocity": 0.4881889763779528
          },
          {
            "duration": 0.08400000000000318,
            "durationTicks": 21,
            "midi": 72,
            "name": "C5",
            "ticks": 15540,
            "time": 62.16,
            "velocity": 0.5118110236220472
          },
          {
            "duration": 0.09199999999999164,
            "durationTicks": 23,
            "midi": 72,
            "name": "C5",
            "ticks": 15570,
            "time": 62.28,
            "velocity": 0.5669291338582677
          },
          {
            "duration": 0.07200000000000273,
            "durationTicks": 18,
            "midi": 76,
            "name": "E5",
            "ticks": 15600,
            "time": 62.4,
            "velocity": 0.5826771653543307
          },
          {
            "duration": 0.09199999999999875,
            "durationTicks": 23,
            "midi": 76,
            "name": "E5",
            "ticks": 15630,
            "time": 62.519999999999996,
            "velocity": 0.5826771653543307
          },
          {
            "duration": 0.08400000000000318,
            "durationTicks": 21,
            "midi": 76,
            "name": "E5",
            "ticks": 15660,
            "time": 62.64,
            "velocity": 0.5118110236220472
          },
          {
            "duration": 0.0799999999999983,
            "durationTicks": 20,
            "midi": 76,
            "name": "E5",
            "ticks": 15690,
            "time": 62.76,
            "velocity": 0.5826771653543307
          },
          {
            "duration": 0.10000000000000853,
            "durationTicks": 25,
            "midi": 76,
            "name": "E5",
            "ticks": 15720,
            "time": 62.879999999999995,
            "velocity": 0.5118110236220472
          },
          {
            "duration": 0.06800000000000495,
            "durationTicks": 17,
            "midi": 76,
            "name": "E5",
            "ticks": 15750,
            "time": 63,
            "velocity": 0.47244094488188976
          },
          {
            "duration": 0.09199999999999875,
            "durationTicks": 23,
            "midi": 76,
            "name": "E5",
            "ticks": 15780,
            "time": 63.12,
            "velocity": 0.49606299212598426
          },
          {
            "duration": 0.09599999999999653,
            "durationTicks": 24,
            "midi": 76,
            "name": "E5",
            "ticks": 15810,
            "time": 63.239999999999995,
            "velocity": 0.6850393700787402
          },
          {
            "duration": 0.0799999999999983,
            "durationTicks": 20,
            "midi": 72,
            "name": "C5",
            "ticks": 15900,
            "time": 63.599999999999994,
            "velocity": 0.5905511811023622
          },
          {
            "duration": 0.07999999999999119,
            "durationTicks": 20,
            "midi": 72,
            "name": "C5",
            "ticks": 15930,
            "time": 63.72,
            "velocity": 0.5118110236220472
          },
          {
            "duration": 0.07600000000000051,
            "durationTicks": 19,
            "midi": 72,
            "name": "C5",
            "ticks": 15960,
            "time": 63.839999999999996,
            "velocity": 0.5118110236220472
          },
          {
            "duration": 0.07999999999999119,
            "durationTicks": 20,
            "midi": 72,
            "name": "C5",
            "ticks": 15990,
            "time": 63.96,
            "velocity": 0.4881889763779528
          },
          {
            "duration": 0.08400000000000318,
            "durationTicks": 21,
            "midi": 72,
            "name": "C5",
            "ticks": 16020,
            "time": 64.08,
            "velocity": 0.5118110236220472
          },
          {
            "duration": 0.09199999999999875,
            "durationTicks": 23,
            "midi": 72,
            "name": "C5",
            "ticks": 16050,
            "time": 64.2,
            "velocity": 0.5669291338582677
          },
          {
            "duration": 0.07200000000000273,
            "durationTicks": 18,
            "midi": 76,
            "name": "E5",
            "ticks": 16080,
            "time": 64.32,
            "velocity": 0.5826771653543307
          },
          {
            "duration": 0.09199999999999875,
            "durationTicks": 23,
            "midi": 76,
            "name": "E5",
            "ticks": 16110,
            "time": 64.44,
            "velocity": 0.5826771653543307
          },
          {
            "duration": 0.08400000000000318,
            "durationTicks": 21,
            "midi": 76,
            "name": "E5",
            "ticks": 16140,
            "time": 64.56,
            "velocity": 0.5118110236220472
          },
          {
            "duration": 0.0799999999999983,
            "durationTicks": 20,
            "midi": 76,
            "name": "E5",
            "ticks": 16170,
            "time": 64.67999999999999,
            "velocity": 0.5826771653543307
          },
          {
            "duration": 0.10000000000000853,
            "durationTicks": 25,
            "midi": 76,
            "name": "E5",
            "ticks": 16200,
            "time": 64.8,
            "velocity": 0.5118110236220472
          },
          {
            "duration": 0.06799999999999784,
            "durationTicks": 17,
            "midi": 76,
            "name": "E5",
            "ticks": 16230,
            "time": 64.92,
            "velocity": 0.47244094488188976
          },
          {
            "duration": 0.09199999999999875,
            "durationTicks": 23,
            "midi": 76,
            "name": "E5",
            "ticks": 16260,
            "time": 65.03999999999999,
            "velocity": 0.49606299212598426
          },
          {
            "duration": 0.09599999999998943,
            "durationTicks": 24,
            "midi": 76,
            "name": "E5",
            "ticks": 16290,
            "time": 65.16,
            "velocity": 0.6850393700787402
          },
          {
            "duration": 0.0800000000000125,
            "durationTicks": 20,
            "midi": 72,
            "name": "C5",
            "ticks": 31740,
            "time": 126.96,
            "velocity": 0.5905511811023622
          },
          {
            "duration": 0.0800000000000125,
            "durationTicks": 20,
            "midi": 72,
            "name": "C5",
            "ticks": 31770,
            "time": 127.08,
            "velocity": 0.5118110236220472
          },
          {
            "duration": 0.07600000000002183,
            "durationTicks": 19,
            "midi": 72,
            "name": "C5",
            "ticks": 31800,
            "time": 127.19999999999999,
            "velocity": 0.5118110236220472
          },
          {
            "duration": 0.0800000000000125,
            "durationTicks": 20,
            "midi": 72,
            "name": "C5",
            "ticks": 31830,
            "time": 127.32,
            "velocity": 0.4881889763779528
          },
          {
            "duration": 0.08400000000000318,
            "durationTicks": 21,
            "midi": 72,
            "name": "C5",
            "ticks": 31860,
            "time": 127.44,
            "velocity": 0.5118110236220472
          },
          {
            "duration": 0.09199999999998454,
            "durationTicks": 23,
            "midi": 72,
            "name": "C5",
            "ticks": 31890,
            "time": 127.56,
            "velocity": 0.5669291338582677
          },
          {
            "duration": 0.07199999999998852,
            "durationTicks": 18,
            "midi": 76,
            "name": "E5",
            "ticks": 31920,
            "time": 127.67999999999999,
            "velocity": 0.5826771653543307
          },
          {
            "duration": 0.09199999999999875,
            "durationTicks": 23,
            "midi": 76,
            "name": "E5",
            "ticks": 31950,
            "time": 127.8,
            "velocity": 0.5826771653543307
          },
          {
            "duration": 0.08399999999998897,
            "durationTicks": 21,
            "midi": 76,
            "name": "E5",
            "ticks": 31980,
            "time": 127.92,
            "velocity": 0.5118110236220472
          },
          {
            "duration": 0.0800000000000125,
            "durationTicks": 20,
            "midi": 76,
            "name": "E5",
            "ticks": 32010,
            "time": 128.04,
            "velocity": 0.5826771653543307
          },
          {
            "duration": 0.09999999999999432,
            "durationTicks": 25,
            "midi": 76,
            "name": "E5",
            "ticks": 32040,
            "time": 128.16,
            "velocity": 0.5118110236220472
          },
          {
            "duration": 0.06799999999998363,
            "durationTicks": 17,
            "midi": 76,
            "name": "E5",
            "ticks": 32070,
            "time": 128.28,
            "velocity": 0.47244094488188976
          },
          {
            "duration": 0.09199999999998454,
            "durationTicks": 23,
            "midi": 76,
            "name": "E5",
            "ticks": 32100,
            "time": 128.4,
            "velocity": 0.49606299212598426
          },
          {
            "duration": 0.09600000000000364,
            "durationTicks": 24,
            "midi": 76,
            "name": "E5",
            "ticks": 32130,
            "time": 128.51999999999998,
            "velocity": 0.6850393700787402
          },
          {
            "duration": 0.0800000000000125,
            "durationTicks": 20,
            "midi": 72,
            "name": "C5",
            "ticks": 32220,
            "time": 128.88,
            "velocity": 0.5905511811023622
          },
          {
            "duration": 0.0800000000000125,
            "durationTicks": 20,
            "midi": 72,
            "name": "C5",
            "ticks": 32250,
            "time": 129,
            "velocity": 0.5118110236220472
          },
          {
            "duration": 0.0759999999999934,
            "durationTicks": 19,
            "midi": 72,
            "name": "C5",
            "ticks": 32280,
            "time": 129.12,
            "velocity": 0.5118110236220472
          },
          {
            "duration": 0.07999999999998408,
            "durationTicks": 20,
            "midi": 72,
            "name": "C5",
            "ticks": 32310,
            "time": 129.24,
            "velocity": 0.4881889763779528
          },
          {
            "duration": 0.08400000000000318,
            "durationTicks": 21,
            "midi": 72,
            "name": "C5",
            "ticks": 32340,
            "time": 129.35999999999999,
            "velocity": 0.5118110236220472
          },
          {
            "duration": 0.09200000000001296,
            "durationTicks": 23,
            "midi": 72,
            "name": "C5",
            "ticks": 32370,
            "time": 129.48,
            "velocity": 0.5669291338582677
          },
          {
            "duration": 0.07200000000000273,
            "durationTicks": 18,
            "midi": 76,
            "name": "E5",
            "ticks": 32400,
            "time": 129.6,
            "velocity": 0.5826771653543307
          },
          {
            "duration": 0.09199999999998454,
            "durationTicks": 23,
            "midi": 76,
            "name": "E5",
            "ticks": 32430,
            "time": 129.72,
            "velocity": 0.5826771653543307
          },
          {
            "duration": 0.08400000000000318,
            "durationTicks": 21,
            "midi": 76,
            "name": "E5",
            "ticks": 32460,
            "time": 129.84,
            "velocity": 0.5118110236220472
          },
          {
            "duration": 0.07999999999998408,
            "durationTicks": 20,
            "midi": 76,
            "name": "E5",
            "ticks": 32490,
            "time": 129.96,
            "velocity": 0.5826771653543307
          },
          {
            "duration": 0.09999999999999432,
            "durationTicks": 25,
            "midi": 76,
            "name": "E5",
            "ticks": 32520,
            "time": 130.07999999999998,
            "velocity": 0.5118110236220472
          },
          {
            "duration": 0.06800000000001205,
            "durationTicks": 17,
            "midi": 76,
            "name": "E5",
            "ticks": 32550,
            "time": 130.2,
            "velocity": 0.47244094488188976
          },
          {
            "duration": 0.09200000000001296,
            "durationTicks": 23,
            "midi": 76,
            "name": "E5",
            "ticks": 32580,
            "time": 130.32,
            "velocity": 0.49606299212598426
          },
          {
            "duration": 0.09600000000000364,
            "durationTicks": 24,
            "midi": 76,
            "name": "E5",
            "ticks": 32610,
            "time": 130.44,
            "velocity": 0.6850393700787402
          },
          {
            "duration": 0.0800000000000125,
            "durationTicks": 20,
            "midi": 72,
            "name": "C5",
            "ticks": 32700,
            "time": 130.79999999999998,
            "velocity": 0.5905511811023622
          },
          {
            "duration": 0.0800000000000125,
            "durationTicks": 20,
            "midi": 72,
            "name": "C5",
            "ticks": 32730,
            "time": 130.92,
            "velocity": 0.5118110236220472
          },
          {
            "duration": 0.07600000000002183,
            "durationTicks": 19,
            "midi": 72,
            "name": "C5",
            "ticks": 32760,
            "time": 131.04,
            "velocity": 0.5118110236220472
          },
          {
            "duration": 0.0800000000000125,
            "durationTicks": 20,
            "midi": 72,
            "name": "C5",
            "ticks": 32790,
            "time": 131.16,
            "velocity": 0.4881889763779528
          },
          {
            "duration": 0.08400000000000318,
            "durationTicks": 21,
            "midi": 72,
            "name": "C5",
            "ticks": 32820,
            "time": 131.28,
            "velocity": 0.5118110236220472
          },
          {
            "duration": 0.09199999999998454,
            "durationTicks": 23,
            "midi": 72,
            "name": "C5",
            "ticks": 32850,
            "time": 131.4,
            "velocity": 0.5669291338582677
          },
          {
            "duration": 0.07200000000000273,
            "durationTicks": 18,
            "midi": 76,
            "name": "E5",
            "ticks": 32880,
            "time": 131.51999999999998,
            "velocity": 0.5826771653543307
          },
          {
            "duration": 0.09200000000001296,
            "durationTicks": 23,
            "midi": 76,
            "name": "E5",
            "ticks": 32910,
            "time": 131.64,
            "velocity": 0.5826771653543307
          },
          {
            "duration": 0.08400000000000318,
            "durationTicks": 21,
            "midi": 76,
            "name": "E5",
            "ticks": 32940,
            "time": 131.76,
            "velocity": 0.5118110236220472
          },
          {
            "duration": 0.0800000000000125,
            "durationTicks": 20,
            "midi": 76,
            "name": "E5",
            "ticks": 32970,
            "time": 131.88,
            "velocity": 0.5826771653543307
          },
          {
            "duration": 0.09999999999999432,
            "durationTicks": 25,
            "midi": 76,
            "name": "E5",
            "ticks": 33000,
            "time": 132,
            "velocity": 0.5118110236220472
          },
          {
            "duration": 0.06799999999998363,
            "durationTicks": 17,
            "midi": 76,
            "name": "E5",
            "ticks": 33030,
            "time": 132.12,
            "velocity": 0.47244094488188976
          },
          {
            "duration": 0.09199999999998454,
            "durationTicks": 23,
            "midi": 76,
            "name": "E5",
            "ticks": 33060,
            "time": 132.24,
            "velocity": 0.49606299212598426
          },
          {
            "duration": 0.09600000000000364,
            "durationTicks": 24,
            "midi": 76,
            "name": "E5",
            "ticks": 33090,
            "time": 132.35999999999999,
            "velocity": 0.6850393700787402
          },
          {
            "duration": 0.0800000000000125,
            "durationTicks": 20,
            "midi": 72,
            "name": "C5",
            "ticks": 33180,
            "time": 132.72,
            "velocity": 0.5905511811023622
          },
          {
            "duration": 0.0800000000000125,
            "durationTicks": 20,
            "midi": 72,
            "name": "C5",
            "ticks": 33210,
            "time": 132.84,
            "velocity": 0.5118110236220472
          },
          {
            "duration": 0.0759999999999934,
            "durationTicks": 19,
            "midi": 72,
            "name": "C5",
            "ticks": 33240,
            "time": 132.96,
            "velocity": 0.5118110236220472
          },
          {
            "duration": 0.0800000000000125,
            "durationTicks": 20,
            "midi": 72,
            "name": "C5",
            "ticks": 33270,
            "time": 133.07999999999998,
            "velocity": 0.4881889763779528
          },
          {
            "duration": 0.08400000000000318,
            "durationTicks": 21,
            "midi": 72,
            "name": "C5",
            "ticks": 33300,
            "time": 133.2,
            "velocity": 0.5118110236220472
          },
          {
            "duration": 0.09200000000001296,
            "durationTicks": 23,
            "midi": 72,
            "name": "C5",
            "ticks": 33330,
            "time": 133.32,
            "velocity": 0.5669291338582677
          },
          {
            "duration": 0.0719999999999743,
            "durationTicks": 18,
            "midi": 76,
            "name": "E5",
            "ticks": 33360,
            "time": 133.44,
            "velocity": 0.5826771653543307
          },
          {
            "duration": 0.09199999999998454,
            "durationTicks": 23,
            "midi": 76,
            "name": "E5",
            "ticks": 33390,
            "time": 133.56,
            "velocity": 0.5826771653543307
          },
          {
            "duration": 0.08400000000000318,
            "durationTicks": 21,
            "midi": 76,
            "name": "E5",
            "ticks": 33420,
            "time": 133.68,
            "velocity": 0.5118110236220472
          },
          {
            "duration": 0.0800000000000125,
            "durationTicks": 20,
            "midi": 76,
            "name": "E5",
            "ticks": 33450,
            "time": 133.79999999999998,
            "velocity": 0.5826771653543307
          },
          {
            "duration": 0.09999999999999432,
            "durationTicks": 25,
            "midi": 76,
            "name": "E5",
            "ticks": 33480,
            "time": 133.92,
            "velocity": 0.5118110236220472
          },
          {
            "duration": 0.06799999999998363,
            "durationTicks": 17,
            "midi": 76,
            "name": "E5",
            "ticks": 33510,
            "time": 134.04,
            "velocity": 0.47244094488188976
          },
          {
            "duration": 0.09199999999998454,
            "durationTicks": 23,
            "midi": 76,
            "name": "E5",
            "ticks": 33540,
            "time": 134.16,
            "velocity": 0.49606299212598426
          },
          {
            "duration": 0.09599999999997522,
            "durationTicks": 24,
            "midi": 76,
            "name": "E5",
            "ticks": 33570,
            "time": 134.28,
            "velocity": 0.6850393700787402
          },
          {
            "duration": 0.0800000000000125,
            "durationTicks": 20,
            "midi": 72,
            "name": "C5",
            "ticks": 33660,
            "time": 134.64,
            "velocity": 0.5905511811023622
          },
          {
            "duration": 0.0800000000000125,
            "durationTicks": 20,
            "midi": 72,
            "name": "C5",
            "ticks": 33690,
            "time": 134.76,
            "velocity": 0.5118110236220472
          },
          {
            "duration": 0.07600000000002183,
            "durationTicks": 19,
            "midi": 72,
            "name": "C5",
            "ticks": 33720,
            "time": 134.88,
            "velocity": 0.5118110236220472
          },
          {
            "duration": 0.0800000000000125,
            "durationTicks": 20,
            "midi": 72,
            "name": "C5",
            "ticks": 33750,
            "time": 135,
            "velocity": 0.4881889763779528
          },
          {
            "duration": 0.08400000000000318,
            "durationTicks": 21,
            "midi": 72,
            "name": "C5",
            "ticks": 33780,
            "time": 135.12,
            "velocity": 0.5118110236220472
          },
          {
            "duration": 0.09199999999998454,
            "durationTicks": 23,
            "midi": 72,
            "name": "C5",
            "ticks": 33810,
            "time": 135.24,
            "velocity": 0.5669291338582677
          },
          {
            "duration": 0.07200000000000273,
            "durationTicks": 18,
            "midi": 76,
            "name": "E5",
            "ticks": 33840,
            "time": 135.35999999999999,
            "velocity": 0.5826771653543307
          },
          {
            "duration": 0.09200000000001296,
            "durationTicks": 23,
            "midi": 76,
            "name": "E5",
            "ticks": 33870,
            "time": 135.48,
            "velocity": 0.5826771653543307
          },
          {
            "duration": 0.08400000000000318,
            "durationTicks": 21,
            "midi": 76,
            "name": "E5",
            "ticks": 33900,
            "time": 135.6,
            "velocity": 0.5118110236220472
          },
          {
            "duration": 0.0800000000000125,
            "durationTicks": 20,
            "midi": 76,
            "name": "E5",
            "ticks": 33930,
            "time": 135.72,
            "velocity": 0.5826771653543307
          },
          {
            "duration": 0.09999999999999432,
            "durationTicks": 25,
            "midi": 76,
            "name": "E5",
            "ticks": 33960,
            "time": 135.84,
            "velocity": 0.5118110236220472
          },
          {
            "duration": 0.06799999999998363,
            "durationTicks": 17,
            "midi": 76,
            "name": "E5",
            "ticks": 33990,
            "time": 135.96,
            "velocity": 0.47244094488188976
          },
          {
            "duration": 0.09200000000001296,
            "durationTicks": 23,
            "midi": 76,
            "name": "E5",
            "ticks": 34020,
            "time": 136.07999999999998,
            "velocity": 0.49606299212598426
          },
          {
            "duration": 0.09600000000000364,
            "durationTicks": 24,
            "midi": 76,
            "name": "E5",
            "ticks": 34050,
            "time": 136.2,
            "velocity": 0.6850393700787402
          },
          {
            "duration": 0.0800000000000125,
            "durationTicks": 20,
            "midi": 72,
            "name": "C5",
            "ticks": 34140,
            "time": 136.56,
            "velocity": 0.5905511811023622
          },
          {
            "duration": 0.07999999999998408,
            "durationTicks": 20,
            "midi": 72,
            "name": "C5",
            "ticks": 34170,
            "time": 136.68,
            "velocity": 0.5118110236220472
          },
          {
            "duration": 0.07600000000002183,
            "durationTicks": 19,
            "midi": 72,
            "name": "C5",
            "ticks": 34200,
            "time": 136.79999999999998,
            "velocity": 0.5118110236220472
          },
          {
            "duration": 0.0800000000000125,
            "durationTicks": 20,
            "midi": 72,
            "name": "C5",
            "ticks": 34230,
            "time": 136.92,
            "velocity": 0.4881889763779528
          },
          {
            "duration": 0.08400000000000318,
            "durationTicks": 21,
            "midi": 72,
            "name": "C5",
            "ticks": 34260,
            "time": 137.04,
            "velocity": 0.5118110236220472
          },
          {
            "duration": 0.09199999999998454,
            "durationTicks": 23,
            "midi": 72,
            "name": "C5",
            "ticks": 34290,
            "time": 137.16,
            "velocity": 0.5669291338582677
          },
          {
            "duration": 0.0719999999999743,
            "durationTicks": 18,
            "midi": 76,
            "name": "E5",
            "ticks": 34320,
            "time": 137.28,
            "velocity": 0.5826771653543307
          },
          {
            "duration": 0.09199999999998454,
            "durationTicks": 23,
            "midi": 76,
            "name": "E5",
            "ticks": 34350,
            "time": 137.4,
            "velocity": 0.5826771653543307
          },
          {
            "duration": 0.0840000000000316,
            "durationTicks": 21,
            "midi": 76,
            "name": "E5",
            "ticks": 34380,
            "time": 137.51999999999998,
            "velocity": 0.5118110236220472
          },
          {
            "duration": 0.0800000000000125,
            "durationTicks": 20,
            "midi": 76,
            "name": "E5",
            "ticks": 34410,
            "time": 137.64,
            "velocity": 0.5826771653543307
          },
          {
            "duration": 0.09999999999999432,
            "durationTicks": 25,
            "midi": 76,
            "name": "E5",
            "ticks": 34440,
            "time": 137.76,
            "velocity": 0.5118110236220472
          },
          {
            "duration": 0.06799999999998363,
            "durationTicks": 17,
            "midi": 76,
            "name": "E5",
            "ticks": 34470,
            "time": 137.88,
            "velocity": 0.47244094488188976
          },
          {
            "duration": 0.09199999999998454,
            "durationTicks": 23,
            "midi": 76,
            "name": "E5",
            "ticks": 34500,
            "time": 138,
            "velocity": 0.49606299212598426
          },
          {
            "duration": 0.09599999999997522,
            "durationTicks": 24,
            "midi": 76,
            "name": "E5",
            "ticks": 34530,
            "time": 138.12,
            "velocity": 0.6850393700787402
          },
          {
            "duration": 0.0800000000000125,
            "durationTicks": 20,
            "midi": 72,
            "name": "C5",
            "ticks": 34620,
            "time": 138.48,
            "velocity": 0.5905511811023622
          },
          {
            "duration": 0.0800000000000125,
            "durationTicks": 20,
            "midi": 72,
            "name": "C5",
            "ticks": 34650,
            "time": 138.6,
            "velocity": 0.5118110236220472
          },
          {
            "duration": 0.07600000000002183,
            "durationTicks": 19,
            "midi": 72,
            "name": "C5",
            "ticks": 34680,
            "time": 138.72,
            "velocity": 0.5118110236220472
          },
          {
            "duration": 0.0800000000000125,
            "durationTicks": 20,
            "midi": 72,
            "name": "C5",
            "ticks": 34710,
            "time": 138.84,
            "velocity": 0.4881889763779528
          },
          {
            "duration": 0.08400000000000318,
            "durationTicks": 21,
            "midi": 72,
            "name": "C5",
            "ticks": 34740,
            "time": 138.96,
            "velocity": 0.5118110236220472
          },
          {
            "duration": 0.09200000000001296,
            "durationTicks": 23,
            "midi": 72,
            "name": "C5",
            "ticks": 34770,
            "time": 139.07999999999998,
            "velocity": 0.5669291338582677
          },
          {
            "duration": 0.07200000000000273,
            "durationTicks": 18,
            "midi": 76,
            "name": "E5",
            "ticks": 34800,
            "time": 139.2,
            "velocity": 0.5826771653543307
          },
          {
            "duration": 0.09200000000001296,
            "durationTicks": 23,
            "midi": 76,
            "name": "E5",
            "ticks": 34830,
            "time": 139.32,
            "velocity": 0.5826771653543307
          },
          {
            "duration": 0.08400000000000318,
            "durationTicks": 21,
            "midi": 76,
            "name": "E5",
            "ticks": 34860,
            "time": 139.44,
            "velocity": 0.5118110236220472
          },
          {
            "duration": 0.0800000000000125,
            "durationTicks": 20,
            "midi": 76,
            "name": "E5",
            "ticks": 34890,
            "time": 139.56,
            "velocity": 0.5826771653543307
          },
          {
            "duration": 0.0999999999999659,
            "durationTicks": 25,
            "midi": 76,
            "name": "E5",
            "ticks": 34920,
            "time": 139.68,
            "velocity": 0.5118110236220472
          },
          {
            "duration": 0.06800000000001205,
            "durationTicks": 17,
            "midi": 76,
            "name": "E5",
            "ticks": 34950,
            "time": 139.79999999999998,
            "velocity": 0.47244094488188976
          },
          {
            "duration": 0.09200000000001296,
            "durationTicks": 23,
            "midi": 76,
            "name": "E5",
            "ticks": 34980,
            "time": 139.92,
            "velocity": 0.49606299212598426
          },
          {
            "duration": 0.09600000000000364,
            "durationTicks": 24,
            "midi": 76,
            "name": "E5",
            "ticks": 35010,
            "time": 140.04,
            "velocity": 0.6850393700787402
          },
          {
            "duration": 0.07999999999998408,
            "durationTicks": 20,
            "midi": 72,
            "name": "C5",
            "ticks": 35100,
            "time": 140.4,
            "velocity": 0.5905511811023622
          },
          {
            "duration": 0.0800000000000125,
            "durationTicks": 20,
            "midi": 72,
            "name": "C5",
            "ticks": 35130,
            "time": 140.51999999999998,
            "velocity": 0.5118110236220472
          },
          {
            "duration": 0.07600000000002183,
            "durationTicks": 19,
            "midi": 72,
            "name": "C5",
            "ticks": 35160,
            "time": 140.64,
            "velocity": 0.5118110236220472
          },
          {
            "duration": 0.0800000000000125,
            "durationTicks": 20,
            "midi": 72,
            "name": "C5",
            "ticks": 35190,
            "time": 140.76,
            "velocity": 0.4881889763779528
          },
          {
            "duration": 0.08400000000000318,
            "durationTicks": 21,
            "midi": 72,
            "name": "C5",
            "ticks": 35220,
            "time": 140.88,
            "velocity": 0.5118110236220472
          },
          {
            "duration": 0.09199999999998454,
            "durationTicks": 23,
            "midi": 72,
            "name": "C5",
            "ticks": 35250,
            "time": 141,
            "velocity": 0.5669291338582677
          },
          {
            "duration": 0.0719999999999743,
            "durationTicks": 18,
            "midi": 76,
            "name": "E5",
            "ticks": 35280,
            "time": 141.12,
            "velocity": 0.5826771653543307
          },
          {
            "duration": 0.09200000000001296,
            "durationTicks": 23,
            "midi": 76,
            "name": "E5",
            "ticks": 35310,
            "time": 141.23999999999998,
            "velocity": 0.5826771653543307
          },
          {
            "duration": 0.08400000000000318,
            "durationTicks": 21,
            "midi": 76,
            "name": "E5",
            "ticks": 35340,
            "time": 141.35999999999999,
            "velocity": 0.5118110236220472
          },
          {
            "duration": 0.0800000000000125,
            "durationTicks": 20,
            "midi": 76,
            "name": "E5",
            "ticks": 35370,
            "time": 141.48,
            "velocity": 0.5826771653543307
          },
          {
            "duration": 0.09999999999999432,
            "durationTicks": 25,
            "midi": 76,
            "name": "E5",
            "ticks": 35400,
            "time": 141.6,
            "velocity": 0.5118110236220472
          },
          {
            "duration": 0.06799999999998363,
            "durationTicks": 17,
            "midi": 76,
            "name": "E5",
            "ticks": 35430,
            "time": 141.72,
            "velocity": 0.47244094488188976
          },
          {
            "duration": 0.09199999999998454,
            "durationTicks": 23,
            "midi": 76,
            "name": "E5",
            "ticks": 35460,
            "time": 141.84,
            "velocity": 0.49606299212598426
          },
          {
            "duration": 0.09599999999997522,
            "durationTicks": 24,
            "midi": 76,
            "name": "E5",
            "ticks": 35490,
            "time": 141.96,
            "velocity": 0.6850393700787402
          },
          {
            "duration": 0.0800000000000125,
            "durationTicks": 20,
            "midi": 72,
            "name": "C5",
            "ticks": 35580,
            "time": 142.32,
            "velocity": 0.5905511811023622
          },
          {
            "duration": 0.0800000000000125,
            "durationTicks": 20,
            "midi": 72,
            "name": "C5",
            "ticks": 35610,
            "time": 142.44,
            "velocity": 0.5118110236220472
          },
          {
            "duration": 0.0759999999999934,
            "durationTicks": 19,
            "midi": 72,
            "name": "C5",
            "ticks": 35640,
            "time": 142.56,
            "velocity": 0.5118110236220472
          },
          {
            "duration": 0.07999999999998408,
            "durationTicks": 20,
            "midi": 72,
            "name": "C5",
            "ticks": 35670,
            "time": 142.68,
            "velocity": 0.4881889763779528
          },
          {
            "duration": 0.08400000000000318,
            "durationTicks": 21,
            "midi": 72,
            "name": "C5",
            "ticks": 35700,
            "time": 142.79999999999998,
            "velocity": 0.5118110236220472
          },
          {
            "duration": 0.09200000000001296,
            "durationTicks": 23,
            "midi": 72,
            "name": "C5",
            "ticks": 35730,
            "time": 142.92,
            "velocity": 0.5669291338582677
          },
          {
            "duration": 0.07200000000000273,
            "durationTicks": 18,
            "midi": 76,
            "name": "E5",
            "ticks": 35760,
            "time": 143.04,
            "velocity": 0.5826771653543307
          },
          {
            "duration": 0.09199999999998454,
            "durationTicks": 23,
            "midi": 76,
            "name": "E5",
            "ticks": 35790,
            "time": 143.16,
            "velocity": 0.5826771653543307
          },
          {
            "duration": 0.08400000000000318,
            "durationTicks": 21,
            "midi": 76,
            "name": "E5",
            "ticks": 35820,
            "time": 143.28,
            "velocity": 0.5118110236220472
          },
          {
            "duration": 0.07999999999998408,
            "durationTicks": 20,
            "midi": 76,
            "name": "E5",
            "ticks": 35850,
            "time": 143.4,
            "velocity": 0.5826771653543307
          },
          {
            "duration": 0.09999999999999432,
            "durationTicks": 25,
            "midi": 76,
            "name": "E5",
            "ticks": 35880,
            "time": 143.51999999999998,
            "velocity": 0.5118110236220472
          },
          {
            "duration": 0.06800000000001205,
            "durationTicks": 17,
            "midi": 76,
            "name": "E5",
            "ticks": 35910,
            "time": 143.64,
            "velocity": 0.47244094488188976
          },
          {
            "duration": 0.09200000000001296,
            "durationTicks": 23,
            "midi": 76,
            "name": "E5",
            "ticks": 35940,
            "time": 143.76,
            "velocity": 0.49606299212598426
          },
          {
            "duration": 0.09600000000000364,
            "durationTicks": 24,
            "midi": 76,
            "name": "E5",
            "ticks": 35970,
            "time": 143.88,
            "velocity": 0.6850393700787402
          },
          {
            "duration": 0.0800000000000125,
            "durationTicks": 20,
            "midi": 72,
            "name": "C5",
            "ticks": 36060,
            "time": 144.23999999999998,
            "velocity": 0.5905511811023622
          },
          {
            "duration": 0.0800000000000125,
            "durationTicks": 20,
            "midi": 72,
            "name": "C5",
            "ticks": 36090,
            "time": 144.35999999999999,
            "velocity": 0.5118110236220472
          },
          {
            "duration": 0.07600000000002183,
            "durationTicks": 19,
            "midi": 72,
            "name": "C5",
            "ticks": 36120,
            "time": 144.48,
            "velocity": 0.5118110236220472
          },
          {
            "duration": 0.0800000000000125,
            "durationTicks": 20,
            "midi": 72,
            "name": "C5",
            "ticks": 36150,
            "time": 144.6,
            "velocity": 0.4881889763779528
          },
          {
            "duration": 0.08400000000000318,
            "durationTicks": 21,
            "midi": 72,
            "name": "C5",
            "ticks": 36180,
            "time": 144.72,
            "velocity": 0.5118110236220472
          },
          {
            "duration": 0.09199999999998454,
            "durationTicks": 23,
            "midi": 72,
            "name": "C5",
            "ticks": 36210,
            "time": 144.84,
            "velocity": 0.5669291338582677
          },
          {
            "duration": 0.0719999999999743,
            "durationTicks": 18,
            "midi": 76,
            "name": "E5",
            "ticks": 36240,
            "time": 144.96,
            "velocity": 0.5826771653543307
          },
          {
            "duration": 0.09200000000001296,
            "durationTicks": 23,
            "midi": 76,
            "name": "E5",
            "ticks": 36270,
            "time": 145.07999999999998,
            "velocity": 0.5826771653543307
          },
          {
            "duration": 0.08400000000000318,
            "durationTicks": 21,
            "midi": 76,
            "name": "E5",
            "ticks": 36300,
            "time": 145.2,
            "velocity": 0.5118110236220472
          },
          {
            "duration": 0.0800000000000125,
            "durationTicks": 20,
            "midi": 76,
            "name": "E5",
            "ticks": 36330,
            "time": 145.32,
            "velocity": 0.5826771653543307
          },
          {
            "duration": 0.09999999999999432,
            "durationTicks": 25,
            "midi": 76,
            "name": "E5",
            "ticks": 36360,
            "time": 145.44,
            "velocity": 0.5118110236220472
          },
          {
            "duration": 0.06799999999998363,
            "durationTicks": 17,
            "midi": 76,
            "name": "E5",
            "ticks": 36390,
            "time": 145.56,
            "velocity": 0.47244094488188976
          },
          {
            "duration": 0.09199999999998454,
            "durationTicks": 23,
            "midi": 76,
            "name": "E5",
            "ticks": 36420,
            "time": 145.68,
            "velocity": 0.49606299212598426
          },
          {
            "duration": 0.09600000000000364,
            "durationTicks": 24,
            "midi": 76,
            "name": "E5",
            "ticks": 36450,
            "time": 145.79999999999998,
            "velocity": 0.6850393700787402
          },
          {
            "duration": 0.0800000000000125,
            "durationTicks": 20,
            "midi": 72,
            "name": "C5",
            "ticks": 36540,
            "time": 146.16,
            "velocity": 0.5905511811023622
          },
          {
            "duration": 0.0800000000000125,
            "durationTicks": 20,
            "midi": 72,
            "name": "C5",
            "ticks": 36570,
            "time": 146.28,
            "velocity": 0.5118110236220472
          },
          {
            "duration": 0.0759999999999934,
            "durationTicks": 19,
            "midi": 72,
            "name": "C5",
            "ticks": 36600,
            "time": 146.4,
            "velocity": 0.5118110236220472
          },
          {
            "duration": 0.0800000000000125,
            "durationTicks": 20,
            "midi": 72,
            "name": "C5",
            "ticks": 36630,
            "time": 146.51999999999998,
            "velocity": 0.4881889763779528
          },
          {
            "duration": 0.08400000000000318,
            "durationTicks": 21,
            "midi": 72,
            "name": "C5",
            "ticks": 36660,
            "time": 146.64,
            "velocity": 0.5118110236220472
          },
          {
            "duration": 0.09200000000001296,
            "durationTicks": 23,
            "midi": 72,
            "name": "C5",
            "ticks": 36690,
            "time": 146.76,
            "velocity": 0.5669291338582677
          },
          {
            "duration": 0.0719999999999743,
            "durationTicks": 18,
            "midi": 76,
            "name": "E5",
            "ticks": 36720,
            "time": 146.88,
            "velocity": 0.5826771653543307
          },
          {
            "duration": 0.09199999999998454,
            "durationTicks": 23,
            "midi": 76,
            "name": "E5",
            "ticks": 36750,
            "time": 147,
            "velocity": 0.5826771653543307
          },
          {
            "duration": 0.08400000000000318,
            "durationTicks": 21,
            "midi": 76,
            "name": "E5",
            "ticks": 36780,
            "time": 147.12,
            "velocity": 0.5118110236220472
          },
          {
            "duration": 0.0800000000000125,
            "durationTicks": 20,
            "midi": 76,
            "name": "E5",
            "ticks": 36810,
            "time": 147.23999999999998,
            "velocity": 0.5826771653543307
          },
          {
            "duration": 0.09999999999999432,
            "durationTicks": 25,
            "midi": 76,
            "name": "E5",
            "ticks": 36840,
            "time": 147.35999999999999,
            "velocity": 0.5118110236220472
          },
          {
            "duration": 0.06799999999998363,
            "durationTicks": 17,
            "midi": 76,
            "name": "E5",
            "ticks": 36870,
            "time": 147.48,
            "velocity": 0.47244094488188976
          },
          {
            "duration": 0.09199999999998454,
            "durationTicks": 23,
            "midi": 76,
            "name": "E5",
            "ticks": 36900,
            "time": 147.6,
            "velocity": 0.49606299212598426
          },
          {
            "duration": 0.09600000000000364,
            "durationTicks": 24,
            "midi": 76,
            "name": "E5",
            "ticks": 36930,
            "time": 147.72,
            "velocity": 0.6850393700787402
          },
          {
            "duration": 0.0800000000000125,
            "durationTicks": 20,
            "midi": 72,
            "name": "C5",
            "ticks": 37020,
            "time": 148.07999999999998,
            "velocity": 0.5905511811023622
          },
          {
            "duration": 0.0800000000000125,
            "durationTicks": 20,
            "midi": 72,
            "name": "C5",
            "ticks": 37050,
            "time": 148.2,
            "velocity": 0.5118110236220472
          },
          {
            "duration": 0.07600000000002183,
            "durationTicks": 19,
            "midi": 72,
            "name": "C5",
            "ticks": 37080,
            "time": 148.32,
            "velocity": 0.5118110236220472
          },
          {
            "duration": 0.0800000000000125,
            "durationTicks": 20,
            "midi": 72,
            "name": "C5",
            "ticks": 37110,
            "time": 148.44,
            "velocity": 0.4881889763779528
          },
          {
            "duration": 0.08400000000000318,
            "durationTicks": 21,
            "midi": 72,
            "name": "C5",
            "ticks": 37140,
            "time": 148.56,
            "velocity": 0.5118110236220472
          },
          {
            "duration": 0.09199999999998454,
            "durationTicks": 23,
            "midi": 72,
            "name": "C5",
            "ticks": 37170,
            "time": 148.68,
            "velocity": 0.5669291338582677
          },
          {
            "duration": 0.07200000000000273,
            "durationTicks": 18,
            "midi": 76,
            "name": "E5",
            "ticks": 37200,
            "time": 148.79999999999998,
            "velocity": 0.5826771653543307
          },
          {
            "duration": 0.09200000000001296,
            "durationTicks": 23,
            "midi": 76,
            "name": "E5",
            "ticks": 37230,
            "time": 148.92,
            "velocity": 0.5826771653543307
          },
          {
            "duration": 0.08400000000000318,
            "durationTicks": 21,
            "midi": 76,
            "name": "E5",
            "ticks": 37260,
            "time": 149.04,
            "velocity": 0.5118110236220472
          },
          {
            "duration": 0.0800000000000125,
            "durationTicks": 20,
            "midi": 76,
            "name": "E5",
            "ticks": 37290,
            "time": 149.16,
            "velocity": 0.5826771653543307
          },
          {
            "duration": 0.09999999999999432,
            "durationTicks": 25,
            "midi": 76,
            "name": "E5",
            "ticks": 37320,
            "time": 149.28,
            "velocity": 0.5118110236220472
          },
          {
            "duration": 0.06799999999998363,
            "durationTicks": 17,
            "midi": 76,
            "name": "E5",
            "ticks": 37350,
            "time": 149.4,
            "velocity": 0.47244094488188976
          },
          {
            "duration": 0.09200000000001296,
            "durationTicks": 23,
            "midi": 76,
            "name": "E5",
            "ticks": 37380,
            "time": 149.51999999999998,
            "velocity": 0.49606299212598426
          },
          {
            "duration": 0.09600000000000364,
            "durationTicks": 24,
            "midi": 76,
            "name": "E5",
            "ticks": 37410,
            "time": 149.64,
            "velocity": 0.6850393700787402
          },
          {
            "duration": 0.0800000000000125,
            "durationTicks": 20,
            "midi": 72,
            "name": "C5",
            "ticks": 37500,
            "time": 150,
            "velocity": 0.5905511811023622
          },
          {
            "duration": 0.0800000000000125,
            "durationTicks": 20,
            "midi": 72,
            "name": "C5",
            "ticks": 37530,
            "time": 150.12,
            "velocity": 0.5118110236220472
          },
          {
            "duration": 0.07600000000002183,
            "durationTicks": 19,
            "midi": 72,
            "name": "C5",
            "ticks": 37560,
            "time": 150.23999999999998,
            "velocity": 0.5118110236220472
          },
          {
            "duration": 0.0800000000000125,
            "durationTicks": 20,
            "midi": 72,
            "name": "C5",
            "ticks": 37590,
            "time": 150.35999999999999,
            "velocity": 0.4881889763779528
          },
          {
            "duration": 0.08400000000000318,
            "durationTicks": 21,
            "midi": 72,
            "name": "C5",
            "ticks": 37620,
            "time": 150.48,
            "velocity": 0.5118110236220472
          },
          {
            "duration": 0.09199999999998454,
            "durationTicks": 23,
            "midi": 72,
            "name": "C5",
            "ticks": 37650,
            "time": 150.6,
            "velocity": 0.5669291338582677
          },
          {
            "duration": 0.0719999999999743,
            "durationTicks": 18,
            "midi": 76,
            "name": "E5",
            "ticks": 37680,
            "time": 150.72,
            "velocity": 0.5826771653543307
          },
          {
            "duration": 0.09199999999998454,
            "durationTicks": 23,
            "midi": 76,
            "name": "E5",
            "ticks": 37710,
            "time": 150.84,
            "velocity": 0.5826771653543307
          },
          {
            "duration": 0.08400000000000318,
            "durationTicks": 21,
            "midi": 76,
            "name": "E5",
            "ticks": 37740,
            "time": 150.96,
            "velocity": 0.5118110236220472
          },
          {
            "duration": 0.0800000000000125,
            "durationTicks": 20,
            "midi": 76,
            "name": "E5",
            "ticks": 37770,
            "time": 151.07999999999998,
            "velocity": 0.5826771653543307
          },
          {
            "duration": 0.09999999999999432,
            "durationTicks": 25,
            "midi": 76,
            "name": "E5",
            "ticks": 37800,
            "time": 151.2,
            "velocity": 0.5118110236220472
          },
          {
            "duration": 0.06799999999998363,
            "durationTicks": 17,
            "midi": 76,
            "name": "E5",
            "ticks": 37830,
            "time": 151.32,
            "velocity": 0.47244094488188976
          },
          {
            "duration": 0.09199999999998454,
            "durationTicks": 23,
            "midi": 76,
            "name": "E5",
            "ticks": 37860,
            "time": 151.44,
            "velocity": 0.49606299212598426
          },
          {
            "duration": 0.09599999999997522,
            "durationTicks": 24,
            "midi": 76,
            "name": "E5",
            "ticks": 37890,
            "time": 151.56,
            "velocity": 0.6850393700787402
          },
          {
            "duration": 0.0800000000000125,
            "durationTicks": 20,
            "midi": 72,
            "name": "C5",
            "ticks": 37980,
            "time": 151.92,
            "velocity": 0.5905511811023622
          },
          {
            "duration": 0.0800000000000125,
            "durationTicks": 20,
            "midi": 72,
            "name": "C5",
            "ticks": 38010,
            "time": 152.04,
            "velocity": 0.5118110236220472
          },
          {
            "duration": 0.07600000000002183,
            "durationTicks": 19,
            "midi": 72,
            "name": "C5",
            "ticks": 38040,
            "time": 152.16,
            "velocity": 0.5118110236220472
          },
          {
            "duration": 0.0800000000000125,
            "durationTicks": 20,
            "midi": 72,
            "name": "C5",
            "ticks": 38070,
            "time": 152.28,
            "velocity": 0.4881889763779528
          },
          {
            "duration": 0.08400000000000318,
            "durationTicks": 21,
            "midi": 72,
            "name": "C5",
            "ticks": 38100,
            "time": 152.4,
            "velocity": 0.5118110236220472
          },
          {
            "duration": 0.09200000000001296,
            "durationTicks": 23,
            "midi": 72,
            "name": "C5",
            "ticks": 38130,
            "time": 152.51999999999998,
            "velocity": 0.5669291338582677
          },
          {
            "duration": 0.07200000000000273,
            "durationTicks": 18,
            "midi": 76,
            "name": "E5",
            "ticks": 38160,
            "time": 152.64,
            "velocity": 0.5826771653543307
          },
          {
            "duration": 0.09200000000001296,
            "durationTicks": 23,
            "midi": 76,
            "name": "E5",
            "ticks": 38190,
            "time": 152.76,
            "velocity": 0.5826771653543307
          },
          {
            "duration": 0.08400000000000318,
            "durationTicks": 21,
            "midi": 76,
            "name": "E5",
            "ticks": 38220,
            "time": 152.88,
            "velocity": 0.5118110236220472
          },
          {
            "duration": 0.0800000000000125,
            "durationTicks": 20,
            "midi": 76,
            "name": "E5",
            "ticks": 38250,
            "time": 153,
            "velocity": 0.5826771653543307
          },
          {
            "duration": 0.09999999999999432,
            "durationTicks": 25,
            "midi": 76,
            "name": "E5",
            "ticks": 38280,
            "time": 153.12,
            "velocity": 0.5118110236220472
          },
          {
            "duration": 0.06800000000001205,
            "durationTicks": 17,
            "midi": 76,
            "name": "E5",
            "ticks": 38310,
            "time": 153.23999999999998,
            "velocity": 0.47244094488188976
          },
          {
            "duration": 0.09200000000001296,
            "durationTicks": 23,
            "midi": 76,
            "name": "E5",
            "ticks": 38340,
            "time": 153.35999999999999,
            "velocity": 0.49606299212598426
          },
          {
            "duration": 0.09600000000000364,
            "durationTicks": 24,
            "midi": 76,
            "name": "E5",
            "ticks": 38370,
            "time": 153.48,
            "velocity": 0.6850393700787402
          },
          {
            "duration": 0.0800000000000125,
            "durationTicks": 20,
            "midi": 72,
            "name": "C5",
            "ticks": 38460,
            "time": 153.84,
            "velocity": 0.5905511811023622
          },
          {
            "duration": 0.07999999999998408,
            "durationTicks": 20,
            "midi": 72,
            "name": "C5",
            "ticks": 38490,
            "time": 153.96,
            "velocity": 0.5118110236220472
          },
          {
            "duration": 0.07600000000002183,
            "durationTicks": 19,
            "midi": 72,
            "name": "C5",
            "ticks": 38520,
            "time": 154.07999999999998,
            "velocity": 0.5118110236220472
          },
          {
            "duration": 0.0800000000000125,
            "durationTicks": 20,
            "midi": 72,
            "name": "C5",
            "ticks": 38550,
            "time": 154.2,
            "velocity": 0.4881889763779528
          },
          {
            "duration": 0.08400000000000318,
            "durationTicks": 21,
            "midi": 72,
            "name": "C5",
            "ticks": 38580,
            "time": 154.32,
            "velocity": 0.5118110236220472
          },
          {
            "duration": 0.09199999999998454,
            "durationTicks": 23,
            "midi": 72,
            "name": "C5",
            "ticks": 38610,
            "time": 154.44,
            "velocity": 0.5669291338582677
          },
          {
            "duration": 0.0719999999999743,
            "durationTicks": 18,
            "midi": 76,
            "name": "E5",
            "ticks": 38640,
            "time": 154.56,
            "velocity": 0.5826771653543307
          },
          {
            "duration": 0.09199999999998454,
            "durationTicks": 23,
            "midi": 76,
            "name": "E5",
            "ticks": 38670,
            "time": 154.68,
            "velocity": 0.5826771653543307
          },
          {
            "duration": 0.08400000000000318,
            "durationTicks": 21,
            "midi": 76,
            "name": "E5",
            "ticks": 38700,
            "time": 154.79999999999998,
            "velocity": 0.5118110236220472
          },
          {
            "duration": 0.0800000000000125,
            "durationTicks": 20,
            "midi": 76,
            "name": "E5",
            "ticks": 38730,
            "time": 154.92,
            "velocity": 0.5826771653543307
          },
          {
            "duration": 0.09999999999999432,
            "durationTicks": 25,
            "midi": 76,
            "name": "E5",
            "ticks": 38760,
            "time": 155.04,
            "velocity": 0.5118110236220472
          },
          {
            "duration": 0.06799999999998363,
            "durationTicks": 17,
            "midi": 76,
            "name": "E5",
            "ticks": 38790,
            "time": 155.16,
            "velocity": 0.47244094488188976
          },
          {
            "duration": 0.09199999999998454,
            "durationTicks": 23,
            "midi": 76,
            "name": "E5",
            "ticks": 38820,
            "time": 155.28,
            "velocity": 0.49606299212598426
          },
          {
            "duration": 0.09599999999997522,
            "durationTicks": 24,
            "midi": 76,
            "name": "E5",
            "ticks": 38850,
            "time": 155.4,
            "velocity": 0.6850393700787402
          },
          {
            "duration": 0.0800000000000125,
            "durationTicks": 20,
            "midi": 72,
            "name": "C5",
            "ticks": 38940,
            "time": 155.76,
            "velocity": 0.5905511811023622
          },
          {
            "duration": 0.0800000000000125,
            "durationTicks": 20,
            "midi": 72,
            "name": "C5",
            "ticks": 38970,
            "time": 155.88,
            "velocity": 0.5118110236220472
          },
          {
            "duration": 0.0759999999999934,
            "durationTicks": 19,
            "midi": 72,
            "name": "C5",
            "ticks": 39000,
            "time": 156,
            "velocity": 0.5118110236220472
          },
          {
            "duration": 0.0800000000000125,
            "durationTicks": 20,
            "midi": 72,
            "name": "C5",
            "ticks": 39030,
            "time": 156.12,
            "velocity": 0.4881889763779528
          },
          {
            "duration": 0.0840000000000316,
            "durationTicks": 21,
            "midi": 72,
            "name": "C5",
            "ticks": 39060,
            "time": 156.23999999999998,
            "velocity": 0.5118110236220472
          },
          {
            "duration": 0.09200000000001296,
            "durationTicks": 23,
            "midi": 72,
            "name": "C5",
            "ticks": 39090,
            "time": 156.35999999999999,
            "velocity": 0.5669291338582677
          },
          {
            "duration": 0.07200000000000273,
            "durationTicks": 18,
            "midi": 76,
            "name": "E5",
            "ticks": 39120,
            "time": 156.48,
            "velocity": 0.5826771653543307
          },
          {
            "duration": 0.09199999999998454,
            "durationTicks": 23,
            "midi": 76,
            "name": "E5",
            "ticks": 39150,
            "time": 156.6,
            "velocity": 0.5826771653543307
          },
          {
            "duration": 0.08400000000000318,
            "durationTicks": 21,
            "midi": 76,
            "name": "E5",
            "ticks": 39180,
            "time": 156.72,
            "velocity": 0.5118110236220472
          },
          {
            "duration": 0.0800000000000125,
            "durationTicks": 20,
            "midi": 76,
            "name": "E5",
            "ticks": 39210,
            "time": 156.84,
            "velocity": 0.5826771653543307
          },
          {
            "duration": 0.0999999999999659,
            "durationTicks": 25,
            "midi": 76,
            "name": "E5",
            "ticks": 39240,
            "time": 156.96,
            "velocity": 0.5118110236220472
          },
          {
            "duration": 0.06800000000001205,
            "durationTicks": 17,
            "midi": 76,
            "name": "E5",
            "ticks": 39270,
            "time": 157.07999999999998,
            "velocity": 0.47244094488188976
          },
          {
            "duration": 0.09200000000001296,
            "durationTicks": 23,
            "midi": 76,
            "name": "E5",
            "ticks": 39300,
            "time": 157.2,
            "velocity": 0.49606299212598426
          },
          {
            "duration": 0.09600000000000364,
            "durationTicks": 24,
            "midi": 76,
            "name": "E5",
            "ticks": 39330,
            "time": 157.32,
            "velocity": 0.6850393700787402
          },
          {
            "duration": 0.07999999999998408,
            "durationTicks": 20,
            "midi": 72,
            "name": "C5",
            "ticks": 39420,
            "time": 157.68,
            "velocity": 0.5905511811023622
          },
          {
            "duration": 0.0800000000000125,
            "durationTicks": 20,
            "midi": 72,
            "name": "C5",
            "ticks": 39450,
            "time": 157.79999999999998,
            "velocity": 0.5118110236220472
          },
          {
            "duration": 0.07600000000002183,
            "durationTicks": 19,
            "midi": 72,
            "name": "C5",
            "ticks": 39480,
            "time": 157.92,
            "velocity": 0.5118110236220472
          },
          {
            "duration": 0.0800000000000125,
            "durationTicks": 20,
            "midi": 72,
            "name": "C5",
            "ticks": 39510,
            "time": 158.04,
            "velocity": 0.4881889763779528
          },
          {
            "duration": 0.08400000000000318,
            "durationTicks": 21,
            "midi": 72,
            "name": "C5",
            "ticks": 39540,
            "time": 158.16,
            "velocity": 0.5118110236220472
          },
          {
            "duration": 0.09199999999998454,
            "durationTicks": 23,
            "midi": 72,
            "name": "C5",
            "ticks": 39570,
            "time": 158.28,
            "velocity": 0.5669291338582677
          },
          {
            "duration": 0.0719999999999743,
            "durationTicks": 18,
            "midi": 76,
            "name": "E5",
            "ticks": 39600,
            "time": 158.4,
            "velocity": 0.5826771653543307
          },
          {
            "duration": 0.09200000000001296,
            "durationTicks": 23,
            "midi": 76,
            "name": "E5",
            "ticks": 39630,
            "time": 158.51999999999998,
            "velocity": 0.5826771653543307
          },
          {
            "duration": 0.08400000000000318,
            "durationTicks": 21,
            "midi": 76,
            "name": "E5",
            "ticks": 39660,
            "time": 158.64,
            "velocity": 0.5118110236220472
          },
          {
            "duration": 0.0800000000000125,
            "durationTicks": 20,
            "midi": 76,
            "name": "E5",
            "ticks": 39690,
            "time": 158.76,
            "velocity": 0.5826771653543307
          },
          {
            "duration": 0.09999999999999432,
            "durationTicks": 25,
            "midi": 76,
            "name": "E5",
            "ticks": 39720,
            "time": 158.88,
            "velocity": 0.5118110236220472
          },
          {
            "duration": 0.06799999999998363,
            "durationTicks": 17,
            "midi": 76,
            "name": "E5",
            "ticks": 39750,
            "time": 159,
            "velocity": 0.47244094488188976
          },
          {
            "duration": 0.09199999999998454,
            "durationTicks": 23,
            "midi": 76,
            "name": "E5",
            "ticks": 39780,
            "time": 159.12,
            "velocity": 0.49606299212598426
          },
          {
            "duration": 0.09600000000000364,
            "durationTicks": 24,
            "midi": 76,
            "name": "E5",
            "ticks": 39810,
            "time": 159.23999999999998,
            "velocity": 0.6850393700787402
          },
          {
            "duration": 0.0800000000000125,
            "durationTicks": 20,
            "midi": 72,
            "name": "C5",
            "ticks": 39900,
            "time": 159.6,
            "velocity": 0.5905511811023622
          },
          {
            "duration": 0.0800000000000125,
            "durationTicks": 20,
            "midi": 72,
            "name": "C5",
            "ticks": 39930,
            "time": 159.72,
            "velocity": 0.5118110236220472
          },
          {
            "duration": 0.0759999999999934,
            "durationTicks": 19,
            "midi": 72,
            "name": "C5",
            "ticks": 39960,
            "time": 159.84,
            "velocity": 0.5118110236220472
          },
          {
            "duration": 0.07999999999998408,
            "durationTicks": 20,
            "midi": 72,
            "name": "C5",
            "ticks": 39990,
            "time": 159.96,
            "velocity": 0.4881889763779528
          },
          {
            "duration": 0.08400000000000318,
            "durationTicks": 21,
            "midi": 72,
            "name": "C5",
            "ticks": 40020,
            "time": 160.07999999999998,
            "velocity": 0.5118110236220472
          },
          {
            "duration": 0.09200000000001296,
            "durationTicks": 23,
            "midi": 72,
            "name": "C5",
            "ticks": 40050,
            "time": 160.2,
            "velocity": 0.5669291338582677
          },
          {
            "duration": 0.07200000000000273,
            "durationTicks": 18,
            "midi": 76,
            "name": "E5",
            "ticks": 40080,
            "time": 160.32,
            "velocity": 0.5826771653543307
          },
          {
            "duration": 0.09199999999998454,
            "durationTicks": 23,
            "midi": 76,
            "name": "E5",
            "ticks": 40110,
            "time": 160.44,
            "velocity": 0.5826771653543307
          },
          {
            "duration": 0.08400000000000318,
            "durationTicks": 21,
            "midi": 76,
            "name": "E5",
            "ticks": 40140,
            "time": 160.56,
            "velocity": 0.5118110236220472
          },
          {
            "duration": 0.07999999999998408,
            "durationTicks": 20,
            "midi": 76,
            "name": "E5",
            "ticks": 40170,
            "time": 160.68,
            "velocity": 0.5826771653543307
          },
          {
            "duration": 0.09999999999999432,
            "durationTicks": 25,
            "midi": 76,
            "name": "E5",
            "ticks": 40200,
            "time": 160.79999999999998,
            "velocity": 0.5118110236220472
          },
          {
            "duration": 0.06800000000001205,
            "durationTicks": 17,
            "midi": 76,
            "name": "E5",
            "ticks": 40230,
            "time": 160.92,
            "velocity": 0.47244094488188976
          },
          {
            "duration": 0.09200000000001296,
            "durationTicks": 23,
            "midi": 76,
            "name": "E5",
            "ticks": 40260,
            "time": 161.04,
            "velocity": 0.49606299212598426
          },
          {
            "duration": 0.09600000000000364,
            "durationTicks": 24,
            "midi": 76,
            "name": "E5",
            "ticks": 40290,
            "time": 161.16,
            "velocity": 0.6850393700787402
          },
          {
            "duration": 0.0800000000000125,
            "durationTicks": 20,
            "midi": 72,
            "name": "C5",
            "ticks": 40380,
            "time": 161.51999999999998,
            "velocity": 0.5905511811023622
          },
          {
            "duration": 0.0800000000000125,
            "durationTicks": 20,
            "midi": 72,
            "name": "C5",
            "ticks": 40410,
            "time": 161.64,
            "velocity": 0.5118110236220472
          },
          {
            "duration": 0.07600000000002183,
            "durationTicks": 19,
            "midi": 72,
            "name": "C5",
            "ticks": 40440,
            "time": 161.76,
            "velocity": 0.5118110236220472
          },
          {
            "duration": 0.0800000000000125,
            "durationTicks": 20,
            "midi": 72,
            "name": "C5",
            "ticks": 40470,
            "time": 161.88,
            "velocity": 0.4881889763779528
          },
          {
            "duration": 0.08400000000000318,
            "durationTicks": 21,
            "midi": 72,
            "name": "C5",
            "ticks": 40500,
            "time": 162,
            "velocity": 0.5118110236220472
          },
          {
            "duration": 0.09199999999998454,
            "durationTicks": 23,
            "midi": 72,
            "name": "C5",
            "ticks": 40530,
            "time": 162.12,
            "velocity": 0.5669291338582677
          },
          {
            "duration": 0.07200000000000273,
            "durationTicks": 18,
            "midi": 76,
            "name": "E5",
            "ticks": 40560,
            "time": 162.23999999999998,
            "velocity": 0.5826771653543307
          },
          {
            "duration": 0.09200000000001296,
            "durationTicks": 23,
            "midi": 76,
            "name": "E5",
            "ticks": 40590,
            "time": 162.35999999999999,
            "velocity": 0.5826771653543307
          },
          {
            "duration": 0.08400000000000318,
            "durationTicks": 21,
            "midi": 76,
            "name": "E5",
            "ticks": 40620,
            "time": 162.48,
            "velocity": 0.5118110236220472
          },
          {
            "duration": 0.0800000000000125,
            "durationTicks": 20,
            "midi": 76,
            "name": "E5",
            "ticks": 40650,
            "time": 162.6,
            "velocity": 0.5826771653543307
          },
          {
            "duration": 0.09999999999999432,
            "durationTicks": 25,
            "midi": 76,
            "name": "E5",
            "ticks": 40680,
            "time": 162.72,
            "velocity": 0.5118110236220472
          },
          {
            "duration": 0.06799999999998363,
            "durationTicks": 17,
            "midi": 76,
            "name": "E5",
            "ticks": 40710,
            "time": 162.84,
            "velocity": 0.47244094488188976
          },
          {
            "duration": 0.09199999999998454,
            "durationTicks": 23,
            "midi": 76,
            "name": "E5",
            "ticks": 40740,
            "time": 162.96,
            "velocity": 0.49606299212598426
          },
          {
            "duration": 0.09600000000000364,
            "durationTicks": 24,
            "midi": 76,
            "name": "E5",
            "ticks": 40770,
            "time": 163.07999999999998,
            "velocity": 0.6850393700787402
          },
          {
            "duration": 0.0800000000000125,
            "durationTicks": 20,
            "midi": 72,
            "name": "C5",
            "ticks": 40860,
            "time": 163.44,
            "velocity": 0.5905511811023622
          },
          {
            "duration": 0.0800000000000125,
            "durationTicks": 20,
            "midi": 72,
            "name": "C5",
            "ticks": 40890,
            "time": 163.56,
            "velocity": 0.5118110236220472
          },
          {
            "duration": 0.0759999999999934,
            "durationTicks": 19,
            "midi": 72,
            "name": "C5",
            "ticks": 40920,
            "time": 163.68,
            "velocity": 0.5118110236220472
          },
          {
            "duration": 0.0800000000000125,
            "durationTicks": 20,
            "midi": 72,
            "name": "C5",
            "ticks": 40950,
            "time": 163.79999999999998,
            "velocity": 0.4881889763779528
          },
          {
            "duration": 0.08400000000000318,
            "durationTicks": 21,
            "midi": 72,
            "name": "C5",
            "ticks": 40980,
            "time": 163.92,
            "velocity": 0.5118110236220472
          },
          {
            "duration": 0.09200000000001296,
            "durationTicks": 23,
            "midi": 72,
            "name": "C5",
            "ticks": 41010,
            "time": 164.04,
            "velocity": 0.5669291338582677
          },
          {
            "duration": 0.0719999999999743,
            "durationTicks": 18,
            "midi": 76,
            "name": "E5",
            "ticks": 41040,
            "time": 164.16,
            "velocity": 0.5826771653543307
          },
          {
            "duration": 0.09199999999998454,
            "durationTicks": 23,
            "midi": 76,
            "name": "E5",
            "ticks": 41070,
            "time": 164.28,
            "velocity": 0.5826771653543307
          },
          {
            "duration": 0.08400000000000318,
            "durationTicks": 21,
            "midi": 76,
            "name": "E5",
            "ticks": 41100,
            "time": 164.4,
            "velocity": 0.5118110236220472
          },
          {
            "duration": 0.0800000000000125,
            "durationTicks": 20,
            "midi": 76,
            "name": "E5",
            "ticks": 41130,
            "time": 164.51999999999998,
            "velocity": 0.5826771653543307
          },
          {
            "duration": 0.09999999999999432,
            "durationTicks": 25,
            "midi": 76,
            "name": "E5",
            "ticks": 41160,
            "time": 164.64,
            "velocity": 0.5118110236220472
          },
          {
            "duration": 0.06799999999998363,
            "durationTicks": 17,
            "midi": 76,
            "name": "E5",
            "ticks": 41190,
            "time": 164.76,
            "velocity": 0.47244094488188976
          },
          {
            "duration": 0.09199999999998454,
            "durationTicks": 23,
            "midi": 76,
            "name": "E5",
            "ticks": 41220,
            "time": 164.88,
            "velocity": 0.49606299212598426
          },
          {
            "duration": 0.09599999999997522,
            "durationTicks": 24,
            "midi": 76,
            "name": "E5",
            "ticks": 41250,
            "time": 165,
            "velocity": 0.6850393700787402
          },
          {
            "duration": 0.0800000000000125,
            "durationTicks": 20,
            "midi": 72,
            "name": "C5",
            "ticks": 41340,
            "time": 165.35999999999999,
            "velocity": 0.5905511811023622
          },
          {
            "duration": 0.0800000000000125,
            "durationTicks": 20,
            "midi": 72,
            "name": "C5",
            "ticks": 41370,
            "time": 165.48,
            "velocity": 0.5118110236220472
          },
          {
            "duration": 0.07600000000002183,
            "durationTicks": 19,
            "midi": 72,
            "name": "C5",
            "ticks": 41400,
            "time": 165.6,
            "velocity": 0.5118110236220472
          },
          {
            "duration": 0.0800000000000125,
            "durationTicks": 20,
            "midi": 72,
            "name": "C5",
            "ticks": 41430,
            "time": 165.72,
            "velocity": 0.4881889763779528
          },
          {
            "duration": 0.08400000000000318,
            "durationTicks": 21,
            "midi": 72,
            "name": "C5",
            "ticks": 41460,
            "time": 165.84,
            "velocity": 0.5118110236220472
          },
          {
            "duration": 0.09199999999998454,
            "durationTicks": 23,
            "midi": 72,
            "name": "C5",
            "ticks": 41490,
            "time": 165.96,
            "velocity": 0.5669291338582677
          },
          {
            "duration": 0.07200000000000273,
            "durationTicks": 18,
            "midi": 76,
            "name": "E5",
            "ticks": 41520,
            "time": 166.07999999999998,
            "velocity": 0.5826771653543307
          },
          {
            "duration": 0.09200000000001296,
            "durationTicks": 23,
            "midi": 76,
            "name": "E5",
            "ticks": 41550,
            "time": 166.2,
            "velocity": 0.5826771653543307
          },
          {
            "duration": 0.08400000000000318,
            "durationTicks": 21,
            "midi": 76,
            "name": "E5",
            "ticks": 41580,
            "time": 166.32,
            "velocity": 0.5118110236220472
          },
          {
            "duration": 0.0800000000000125,
            "durationTicks": 20,
            "midi": 76,
            "name": "E5",
            "ticks": 41610,
            "time": 166.44,
            "velocity": 0.5826771653543307
          },
          {
            "duration": 0.09999999999999432,
            "durationTicks": 25,
            "midi": 76,
            "name": "E5",
            "ticks": 41640,
            "time": 166.56,
            "velocity": 0.5118110236220472
          },
          {
            "duration": 0.06799999999998363,
            "durationTicks": 17,
            "midi": 76,
            "name": "E5",
            "ticks": 41670,
            "time": 166.68,
            "velocity": 0.47244094488188976
          },
          {
            "duration": 0.09200000000001296,
            "durationTicks": 23,
            "midi": 76,
            "name": "E5",
            "ticks": 41700,
            "time": 166.79999999999998,
            "velocity": 0.49606299212598426
          },
          {
            "duration": 0.09600000000000364,
            "durationTicks": 24,
            "midi": 76,
            "name": "E5",
            "ticks": 41730,
            "time": 166.92,
            "velocity": 0.6850393700787402
          },
          {
            "duration": 0.0800000000000125,
            "durationTicks": 20,
            "midi": 72,
            "name": "C5",
            "ticks": 41820,
            "time": 167.28,
            "velocity": 0.5905511811023622
          },
          {
            "duration": 0.07999999999998408,
            "durationTicks": 20,
            "midi": 72,
            "name": "C5",
            "ticks": 41850,
            "time": 167.4,
            "velocity": 0.5118110236220472
          },
          {
            "duration": 0.07600000000002183,
            "durationTicks": 19,
            "midi": 72,
            "name": "C5",
            "ticks": 41880,
            "time": 167.51999999999998,
            "velocity": 0.5118110236220472
          },
          {
            "duration": 0.0800000000000125,
            "durationTicks": 20,
            "midi": 72,
            "name": "C5",
            "ticks": 41910,
            "time": 167.64,
            "velocity": 0.4881889763779528
          },
          {
            "duration": 0.08400000000000318,
            "durationTicks": 21,
            "midi": 72,
            "name": "C5",
            "ticks": 41940,
            "time": 167.76,
            "velocity": 0.5118110236220472
          },
          {
            "duration": 0.09199999999998454,
            "durationTicks": 23,
            "midi": 72,
            "name": "C5",
            "ticks": 41970,
            "time": 167.88,
            "velocity": 0.5669291338582677
          },
          {
            "duration": 0.0719999999999743,
            "durationTicks": 18,
            "midi": 76,
            "name": "E5",
            "ticks": 42000,
            "time": 168,
            "velocity": 0.5826771653543307
          },
          {
            "duration": 0.09199999999998454,
            "durationTicks": 23,
            "midi": 76,
            "name": "E5",
            "ticks": 42030,
            "time": 168.12,
            "velocity": 0.5826771653543307
          },
          {
            "duration": 0.0840000000000316,
            "durationTicks": 21,
            "midi": 76,
            "name": "E5",
            "ticks": 42060,
            "time": 168.23999999999998,
            "velocity": 0.5118110236220472
          },
          {
            "duration": 0.0800000000000125,
            "durationTicks": 20,
            "midi": 76,
            "name": "E5",
            "ticks": 42090,
            "time": 168.35999999999999,
            "velocity": 0.5826771653543307
          },
          {
            "duration": 0.09999999999999432,
            "durationTicks": 25,
            "midi": 76,
            "name": "E5",
            "ticks": 42120,
            "time": 168.48,
            "velocity": 0.5118110236220472
          },
          {
            "duration": 0.06799999999998363,
            "durationTicks": 17,
            "midi": 76,
            "name": "E5",
            "ticks": 42150,
            "time": 168.6,
            "velocity": 0.47244094488188976
          },
          {
            "duration": 0.09199999999998454,
            "durationTicks": 23,
            "midi": 76,
            "name": "E5",
            "ticks": 42180,
            "time": 168.72,
            "velocity": 0.49606299212598426
          },
          {
            "duration": 0.09599999999997522,
            "durationTicks": 24,
            "midi": 76,
            "name": "E5",
            "ticks": 42210,
            "time": 168.84,
            "velocity": 0.6850393700787402
          },
          {
            "duration": 0.0800000000000125,
            "durationTicks": 20,
            "midi": 72,
            "name": "C5",
            "ticks": 42300,
            "time": 169.2,
            "velocity": 0.5905511811023622
          },
          {
            "duration": 0.0800000000000125,
            "durationTicks": 20,
            "midi": 72,
            "name": "C5",
            "ticks": 42330,
            "time": 169.32,
            "velocity": 0.5118110236220472
          },
          {
            "duration": 0.07600000000002183,
            "durationTicks": 19,
            "midi": 72,
            "name": "C5",
            "ticks": 42360,
            "time": 169.44,
            "velocity": 0.5118110236220472
          },
          {
            "duration": 0.0800000000000125,
            "durationTicks": 20,
            "midi": 72,
            "name": "C5",
            "ticks": 42390,
            "time": 169.56,
            "velocity": 0.4881889763779528
          },
          {
            "duration": 0.08400000000000318,
            "durationTicks": 21,
            "midi": 72,
            "name": "C5",
            "ticks": 42420,
            "time": 169.68,
            "velocity": 0.5118110236220472
          },
          {
            "duration": 0.09200000000001296,
            "durationTicks": 23,
            "midi": 72,
            "name": "C5",
            "ticks": 42450,
            "time": 169.79999999999998,
            "velocity": 0.5669291338582677
          },
          {
            "duration": 0.07200000000000273,
            "durationTicks": 18,
            "midi": 76,
            "name": "E5",
            "ticks": 42480,
            "time": 169.92,
            "velocity": 0.5826771653543307
          },
          {
            "duration": 0.09200000000001296,
            "durationTicks": 23,
            "midi": 76,
            "name": "E5",
            "ticks": 42510,
            "time": 170.04,
            "velocity": 0.5826771653543307
          },
          {
            "duration": 0.08400000000000318,
            "durationTicks": 21,
            "midi": 76,
            "name": "E5",
            "ticks": 42540,
            "time": 170.16,
            "velocity": 0.5118110236220472
          },
          {
            "duration": 0.0800000000000125,
            "durationTicks": 20,
            "midi": 76,
            "name": "E5",
            "ticks": 42570,
            "time": 170.28,
            "velocity": 0.5826771653543307
          },
          {
            "duration": 0.0999999999999659,
            "durationTicks": 25,
            "midi": 76,
            "name": "E5",
            "ticks": 42600,
            "time": 170.4,
            "velocity": 0.5118110236220472
          },
          {
            "duration": 0.06800000000001205,
            "durationTicks": 17,
            "midi": 76,
            "name": "E5",
            "ticks": 42630,
            "time": 170.51999999999998,
            "velocity": 0.47244094488188976
          },
          {
            "duration": 0.09200000000001296,
            "durationTicks": 23,
            "midi": 76,
            "name": "E5",
            "ticks": 42660,
            "time": 170.64,
            "velocity": 0.49606299212598426
          },
          {
            "duration": 0.09600000000000364,
            "durationTicks": 24,
            "midi": 76,
            "name": "E5",
            "ticks": 42690,
            "time": 170.76,
            "velocity": 0.6850393700787402
          },
          {
            "duration": 0.07999999999998408,
            "durationTicks": 20,
            "midi": 72,
            "name": "C5",
            "ticks": 42780,
            "time": 171.12,
            "velocity": 0.5905511811023622
          },
          {
            "duration": 0.0800000000000125,
            "durationTicks": 20,
            "midi": 72,
            "name": "C5",
            "ticks": 42810,
            "time": 171.23999999999998,
            "velocity": 0.5118110236220472
          },
          {
            "duration": 0.07600000000002183,
            "durationTicks": 19,
            "midi": 72,
            "name": "C5",
            "ticks": 42840,
            "time": 171.35999999999999,
            "velocity": 0.5118110236220472
          },
          {
            "duration": 0.0800000000000125,
            "durationTicks": 20,
            "midi": 72,
            "name": "C5",
            "ticks": 42870,
            "time": 171.48,
            "velocity": 0.4881889763779528
          },
          {
            "duration": 0.08400000000000318,
            "durationTicks": 21,
            "midi": 72,
            "name": "C5",
            "ticks": 42900,
            "time": 171.6,
            "velocity": 0.5118110236220472
          },
          {
            "duration": 0.09199999999998454,
            "durationTicks": 23,
            "midi": 72,
            "name": "C5",
            "ticks": 42930,
            "time": 171.72,
            "velocity": 0.5669291338582677
          },
          {
            "duration": 0.0719999999999743,
            "durationTicks": 18,
            "midi": 76,
            "name": "E5",
            "ticks": 42960,
            "time": 171.84,
            "velocity": 0.5826771653543307
          },
          {
            "duration": 0.09200000000001296,
            "durationTicks": 23,
            "midi": 76,
            "name": "E5",
            "ticks": 42990,
            "time": 171.95999999999998,
            "velocity": 0.5826771653543307
          },
          {
            "duration": 0.08400000000000318,
            "durationTicks": 21,
            "midi": 76,
            "name": "E5",
            "ticks": 43020,
            "time": 172.07999999999998,
            "velocity": 0.5118110236220472
          },
          {
            "duration": 0.0800000000000125,
            "durationTicks": 20,
            "midi": 76,
            "name": "E5",
            "ticks": 43050,
            "time": 172.2,
            "velocity": 0.5826771653543307
          },
          {
            "duration": 0.09999999999999432,
            "durationTicks": 25,
            "midi": 76,
            "name": "E5",
            "ticks": 43080,
            "time": 172.32,
            "velocity": 0.5118110236220472
          },
          {
            "duration": 0.06799999999998363,
            "durationTicks": 17,
            "midi": 76,
            "name": "E5",
            "ticks": 43110,
            "time": 172.44,
            "velocity": 0.47244094488188976
          },
          {
            "duration": 0.09199999999998454,
            "durationTicks": 23,
            "midi": 76,
            "name": "E5",
            "ticks": 43140,
            "time": 172.56,
            "velocity": 0.49606299212598426
          },
          {
            "duration": 0.09599999999997522,
            "durationTicks": 24,
            "midi": 76,
            "name": "E5",
            "ticks": 43170,
            "time": 172.68,
            "velocity": 0.6850393700787402
          },
          {
            "duration": 0.0800000000000125,
            "durationTicks": 20,
            "midi": 72,
            "name": "C5",
            "ticks": 43260,
            "time": 173.04,
            "velocity": 0.5905511811023622
          },
          {
            "duration": 0.0800000000000125,
            "durationTicks": 20,
            "midi": 72,
            "name": "C5",
            "ticks": 43290,
            "time": 173.16,
            "velocity": 0.5118110236220472
          },
          {
            "duration": 0.0759999999999934,
            "durationTicks": 19,
            "midi": 72,
            "name": "C5",
            "ticks": 43320,
            "time": 173.28,
            "velocity": 0.5118110236220472
          },
          {
            "duration": 0.07999999999998408,
            "durationTicks": 20,
            "midi": 72,
            "name": "C5",
            "ticks": 43350,
            "time": 173.4,
            "velocity": 0.4881889763779528
          },
          {
            "duration": 0.08400000000000318,
            "durationTicks": 21,
            "midi": 72,
            "name": "C5",
            "ticks": 43380,
            "time": 173.51999999999998,
            "velocity": 0.5118110236220472
          },
          {
            "duration": 0.09200000000001296,
            "durationTicks": 23,
            "midi": 72,
            "name": "C5",
            "ticks": 43410,
            "time": 173.64,
            "velocity": 0.5669291338582677
          },
          {
            "duration": 0.07200000000000273,
            "durationTicks": 18,
            "midi": 76,
            "name": "E5",
            "ticks": 43440,
            "time": 173.76,
            "velocity": 0.5826771653543307
          },
          {
            "duration": 0.09199999999998454,
            "durationTicks": 23,
            "midi": 76,
            "name": "E5",
            "ticks": 43470,
            "time": 173.88,
            "velocity": 0.5826771653543307
          },
          {
            "duration": 0.08400000000000318,
            "durationTicks": 21,
            "midi": 76,
            "name": "E5",
            "ticks": 43500,
            "time": 174,
            "velocity": 0.5118110236220472
          },
          {
            "duration": 0.07999999999998408,
            "durationTicks": 20,
            "midi": 76,
            "name": "E5",
            "ticks": 43530,
            "time": 174.12,
            "velocity": 0.5826771653543307
          },
          {
            "duration": 0.09999999999999432,
            "durationTicks": 25,
            "midi": 76,
            "name": "E5",
            "ticks": 43560,
            "time": 174.23999999999998,
            "velocity": 0.5118110236220472
          },
          {
            "duration": 0.06800000000001205,
            "durationTicks": 17,
            "midi": 76,
            "name": "E5",
            "ticks": 43590,
            "time": 174.35999999999999,
            "velocity": 0.47244094488188976
          },
          {
            "duration": 0.09200000000001296,
            "durationTicks": 23,
            "midi": 76,
            "name": "E5",
            "ticks": 43620,
            "time": 174.48,
            "velocity": 0.49606299212598426
          },
          {
            "duration": 0.09600000000000364,
            "durationTicks": 24,
            "midi": 76,
            "name": "E5",
            "ticks": 43650,
            "time": 174.6,
            "velocity": 0.6850393700787402
          },
          {
            "duration": 0.0800000000000125,
            "durationTicks": 20,
            "midi": 72,
            "name": "C5",
            "ticks": 43740,
            "time": 174.95999999999998,
            "velocity": 0.5905511811023622
          },
          {
            "duration": 0.0800000000000125,
            "durationTicks": 20,
            "midi": 72,
            "name": "C5",
            "ticks": 43770,
            "time": 175.07999999999998,
            "velocity": 0.5118110236220472
          },
          {
            "duration": 0.07600000000002183,
            "durationTicks": 19,
            "midi": 72,
            "name": "C5",
            "ticks": 43800,
            "time": 175.2,
            "velocity": 0.5118110236220472
          },
          {
            "duration": 0.0800000000000125,
            "durationTicks": 20,
            "midi": 72,
            "name": "C5",
            "ticks": 43830,
            "time": 175.32,
            "velocity": 0.4881889763779528
          },
          {
            "duration": 0.08400000000000318,
            "durationTicks": 21,
            "midi": 72,
            "name": "C5",
            "ticks": 43860,
            "time": 175.44,
            "velocity": 0.5118110236220472
          },
          {
            "duration": 0.09199999999998454,
            "durationTicks": 23,
            "midi": 72,
            "name": "C5",
            "ticks": 43890,
            "time": 175.56,
            "velocity": 0.5669291338582677
          },
          {
            "duration": 0.0719999999999743,
            "durationTicks": 18,
            "midi": 76,
            "name": "E5",
            "ticks": 43920,
            "time": 175.68,
            "velocity": 0.5826771653543307
          },
          {
            "duration": 0.09200000000001296,
            "durationTicks": 23,
            "midi": 76,
            "name": "E5",
            "ticks": 43950,
            "time": 175.79999999999998,
            "velocity": 0.5826771653543307
          },
          {
            "duration": 0.08400000000000318,
            "durationTicks": 21,
            "midi": 76,
            "name": "E5",
            "ticks": 43980,
            "time": 175.92,
            "velocity": 0.5118110236220472
          },
          {
            "duration": 0.0800000000000125,
            "durationTicks": 20,
            "midi": 76,
            "name": "E5",
            "ticks": 44010,
            "time": 176.04,
            "velocity": 0.5826771653543307
          },
          {
            "duration": 0.09999999999999432,
            "durationTicks": 25,
            "midi": 76,
            "name": "E5",
            "ticks": 44040,
            "time": 176.16,
            "velocity": 0.5118110236220472
          },
          {
            "duration": 0.06799999999998363,
            "durationTicks": 17,
            "midi": 76,
            "name": "E5",
            "ticks": 44070,
            "time": 176.28,
            "velocity": 0.47244094488188976
          },
          {
            "duration": 0.09199999999998454,
            "durationTicks": 23,
            "midi": 76,
            "name": "E5",
            "ticks": 44100,
            "time": 176.4,
            "velocity": 0.49606299212598426
          },
          {
            "duration": 0.09600000000000364,
            "durationTicks": 24,
            "midi": 76,
            "name": "E5",
            "ticks": 44130,
            "time": 176.51999999999998,
            "velocity": 0.6850393700787402
          },
          {
            "duration": 0.0800000000000125,
            "durationTicks": 20,
            "midi": 72,
            "name": "C5",
            "ticks": 44220,
            "time": 176.88,
            "velocity": 0.5905511811023622
          },
          {
            "duration": 0.0800000000000125,
            "durationTicks": 20,
            "midi": 72,
            "name": "C5",
            "ticks": 44250,
            "time": 177,
            "velocity": 0.5118110236220472
          },
          {
            "duration": 0.0759999999999934,
            "durationTicks": 19,
            "midi": 72,
            "name": "C5",
            "ticks": 44280,
            "time": 177.12,
            "velocity": 0.5118110236220472
          },
          {
            "duration": 0.0800000000000125,
            "durationTicks": 20,
            "midi": 72,
            "name": "C5",
            "ticks": 44310,
            "time": 177.23999999999998,
            "velocity": 0.4881889763779528
          },
          {
            "duration": 0.08400000000000318,
            "durationTicks": 21,
            "midi": 72,
            "name": "C5",
            "ticks": 44340,
            "time": 177.35999999999999,
            "velocity": 0.5118110236220472
          },
          {
            "duration": 0.09200000000001296,
            "durationTicks": 23,
            "midi": 72,
            "name": "C5",
            "ticks": 44370,
            "time": 177.48,
            "velocity": 0.5669291338582677
          },
          {
            "duration": 0.0719999999999743,
            "durationTicks": 18,
            "midi": 76,
            "name": "E5",
            "ticks": 44400,
            "time": 177.6,
            "velocity": 0.5826771653543307
          },
          {
            "duration": 0.09199999999998454,
            "durationTicks": 23,
            "midi": 76,
            "name": "E5",
            "ticks": 44430,
            "time": 177.72,
            "velocity": 0.5826771653543307
          },
          {
            "duration": 0.08400000000000318,
            "durationTicks": 21,
            "midi": 76,
            "name": "E5",
            "ticks": 44460,
            "time": 177.84,
            "velocity": 0.5118110236220472
          },
          {
            "duration": 0.0800000000000125,
            "durationTicks": 20,
            "midi": 76,
            "name": "E5",
            "ticks": 44490,
            "time": 177.95999999999998,
            "velocity": 0.5826771653543307
          },
          {
            "duration": 0.09999999999999432,
            "durationTicks": 25,
            "midi": 76,
            "name": "E5",
            "ticks": 44520,
            "time": 178.07999999999998,
            "velocity": 0.5118110236220472
          },
          {
            "duration": 0.06799999999998363,
            "durationTicks": 17,
            "midi": 76,
            "name": "E5",
            "ticks": 44550,
            "time": 178.2,
            "velocity": 0.47244094488188976
          },
          {
            "duration": 0.09199999999998454,
            "durationTicks": 23,
            "midi": 76,
            "name": "E5",
            "ticks": 44580,
            "time": 178.32,
            "velocity": 0.49606299212598426
          },
          {
            "duration": 0.09600000000000364,
            "durationTicks": 24,
            "midi": 76,
            "name": "E5",
            "ticks": 44610,
            "time": 178.44,
            "velocity": 0.6850393700787402
          },
          {
            "duration": 0.0800000000000125,
            "durationTicks": 20,
            "midi": 72,
            "name": "C5",
            "ticks": 44700,
            "time": 178.79999999999998,
            "velocity": 0.5905511811023622
          },
          {
            "duration": 0.0800000000000125,
            "durationTicks": 20,
            "midi": 72,
            "name": "C5",
            "ticks": 44730,
            "time": 178.92,
            "velocity": 0.5118110236220472
          },
          {
            "duration": 0.07600000000002183,
            "durationTicks": 19,
            "midi": 72,
            "name": "C5",
            "ticks": 44760,
            "time": 179.04,
            "velocity": 0.5118110236220472
          },
          {
            "duration": 0.0800000000000125,
            "durationTicks": 20,
            "midi": 72,
            "name": "C5",
            "ticks": 44790,
            "time": 179.16,
            "velocity": 0.4881889763779528
          },
          {
            "duration": 0.08400000000000318,
            "durationTicks": 21,
            "midi": 72,
            "name": "C5",
            "ticks": 44820,
            "time": 179.28,
            "velocity": 0.5118110236220472
          },
          {
            "duration": 0.09199999999998454,
            "durationTicks": 23,
            "midi": 72,
            "name": "C5",
            "ticks": 44850,
            "time": 179.4,
            "velocity": 0.5669291338582677
          },
          {
            "duration": 0.07200000000000273,
            "durationTicks": 18,
            "midi": 76,
            "name": "E5",
            "ticks": 44880,
            "time": 179.51999999999998,
            "velocity": 0.5826771653543307
          },
          {
            "duration": 0.09200000000001296,
            "durationTicks": 23,
            "midi": 76,
            "name": "E5",
            "ticks": 44910,
            "time": 179.64,
            "velocity": 0.5826771653543307
          },
          {
            "duration": 0.08400000000000318,
            "durationTicks": 21,
            "midi": 76,
            "name": "E5",
            "ticks": 44940,
            "time": 179.76,
            "velocity": 0.5118110236220472
          },
          {
            "duration": 0.0800000000000125,
            "durationTicks": 20,
            "midi": 76,
            "name": "E5",
            "ticks": 44970,
            "time": 179.88,
            "velocity": 0.5826771653543307
          },
          {
            "duration": 0.09999999999999432,
            "durationTicks": 25,
            "midi": 76,
            "name": "E5",
            "ticks": 45000,
            "time": 180,
            "velocity": 0.5118110236220472
          },
          {
            "duration": 0.06799999999998363,
            "durationTicks": 17,
            "midi": 76,
            "name": "E5",
            "ticks": 45030,
            "time": 180.12,
            "velocity": 0.47244094488188976
          },
          {
            "duration": 0.09200000000001296,
            "durationTicks": 23,
            "midi": 76,
            "name": "E5",
            "ticks": 45060,
            "time": 180.23999999999998,
            "velocity": 0.49606299212598426
          },
          {
            "duration": 0.09600000000000364,
            "durationTicks": 24,
            "midi": 76,
            "name": "E5",
            "ticks": 45090,
            "time": 180.35999999999999,
            "velocity": 0.6850393700787402
          },
          {
            "duration": 0.0800000000000125,
            "durationTicks": 20,
            "midi": 72,
            "name": "C5",
            "ticks": 45180,
            "time": 180.72,
            "velocity": 0.5905511811023622
          },
          {
            "duration": 0.0800000000000125,
            "durationTicks": 20,
            "midi": 72,
            "name": "C5",
            "ticks": 45210,
            "time": 180.84,
            "velocity": 0.5118110236220472
          },
          {
            "duration": 0.07600000000002183,
            "durationTicks": 19,
            "midi": 72,
            "name": "C5",
            "ticks": 45240,
            "time": 180.95999999999998,
            "velocity": 0.5118110236220472
          },
          {
            "duration": 0.0800000000000125,
            "durationTicks": 20,
            "midi": 72,
            "name": "C5",
            "ticks": 45270,
            "time": 181.07999999999998,
            "velocity": 0.4881889763779528
          },
          {
            "duration": 0.08400000000000318,
            "durationTicks": 21,
            "midi": 72,
            "name": "C5",
            "ticks": 45300,
            "time": 181.2,
            "velocity": 0.5118110236220472
          },
          {
            "duration": 0.09199999999998454,
            "durationTicks": 23,
            "midi": 72,
            "name": "C5",
            "ticks": 45330,
            "time": 181.32,
            "velocity": 0.5669291338582677
          },
          {
            "duration": 0.0719999999999743,
            "durationTicks": 18,
            "midi": 76,
            "name": "E5",
            "ticks": 45360,
            "time": 181.44,
            "velocity": 0.5826771653543307
          },
          {
            "duration": 0.09199999999998454,
            "durationTicks": 23,
            "midi": 76,
            "name": "E5",
            "ticks": 45390,
            "time": 181.56,
            "velocity": 0.5826771653543307
          },
          {
            "duration": 0.08400000000000318,
            "durationTicks": 21,
            "midi": 76,
            "name": "E5",
            "ticks": 45420,
            "time": 181.68,
            "velocity": 0.5118110236220472
          },
          {
            "duration": 0.0800000000000125,
            "durationTicks": 20,
            "midi": 76,
            "name": "E5",
            "ticks": 45450,
            "time": 181.79999999999998,
            "velocity": 0.5826771653543307
          },
          {
            "duration": 0.09999999999999432,
            "durationTicks": 25,
            "midi": 76,
            "name": "E5",
            "ticks": 45480,
            "time": 181.92,
            "velocity": 0.5118110236220472
          },
          {
            "duration": 0.06799999999998363,
            "durationTicks": 17,
            "midi": 76,
            "name": "E5",
            "ticks": 45510,
            "time": 182.04,
            "velocity": 0.47244094488188976
          },
          {
            "duration": 0.09199999999998454,
            "durationTicks": 23,
            "midi": 76,
            "name": "E5",
            "ticks": 45540,
            "time": 182.16,
            "velocity": 0.49606299212598426
          },
          {
            "duration": 0.09599999999997522,
            "durationTicks": 24,
            "midi": 76,
            "name": "E5",
            "ticks": 45570,
            "time": 182.28,
            "velocity": 0.6850393700787402
          },
          {
            "duration": 0.0800000000000125,
            "durationTicks": 20,
            "midi": 72,
            "name": "C5",
            "ticks": 45660,
            "time": 182.64,
            "velocity": 0.5905511811023622
          },
          {
            "duration": 0.0800000000000125,
            "durationTicks": 20,
            "midi": 72,
            "name": "C5",
            "ticks": 45690,
            "time": 182.76,
            "velocity": 0.5118110236220472
          },
          {
            "duration": 0.07600000000002183,
            "durationTicks": 19,
            "midi": 72,
            "name": "C5",
            "ticks": 45720,
            "time": 182.88,
            "velocity": 0.5118110236220472
          },
          {
            "duration": 0.0800000000000125,
            "durationTicks": 20,
            "midi": 72,
            "name": "C5",
            "ticks": 45750,
            "time": 183,
            "velocity": 0.4881889763779528
          },
          {
            "duration": 0.08400000000000318,
            "durationTicks": 21,
            "midi": 72,
            "name": "C5",
            "ticks": 45780,
            "time": 183.12,
            "velocity": 0.5118110236220472
          },
          {
            "duration": 0.09200000000001296,
            "durationTicks": 23,
            "midi": 72,
            "name": "C5",
            "ticks": 45810,
            "time": 183.23999999999998,
            "velocity": 0.5669291338582677
          },
          {
            "duration": 0.07200000000000273,
            "durationTicks": 18,
            "midi": 76,
            "name": "E5",
            "ticks": 45840,
            "time": 183.35999999999999,
            "velocity": 0.5826771653543307
          },
          {
            "duration": 0.09200000000001296,
            "durationTicks": 23,
            "midi": 76,
            "name": "E5",
            "ticks": 45870,
            "time": 183.48,
            "velocity": 0.5826771653543307
          },
          {
            "duration": 0.08400000000000318,
            "durationTicks": 21,
            "midi": 76,
            "name": "E5",
            "ticks": 45900,
            "time": 183.6,
            "velocity": 0.5118110236220472
          },
          {
            "duration": 0.0800000000000125,
            "durationTicks": 20,
            "midi": 76,
            "name": "E5",
            "ticks": 45930,
            "time": 183.72,
            "velocity": 0.5826771653543307
          },
          {
            "duration": 0.09999999999999432,
            "durationTicks": 25,
            "midi": 76,
            "name": "E5",
            "ticks": 45960,
            "time": 183.84,
            "velocity": 0.5118110236220472
          },
          {
            "duration": 0.06800000000001205,
            "durationTicks": 17,
            "midi": 76,
            "name": "E5",
            "ticks": 45990,
            "time": 183.95999999999998,
            "velocity": 0.47244094488188976
          },
          {
            "duration": 0.09200000000001296,
            "durationTicks": 23,
            "midi": 76,
            "name": "E5",
            "ticks": 46020,
            "time": 184.07999999999998,
            "velocity": 0.49606299212598426
          },
          {
            "duration": 0.09600000000000364,
            "durationTicks": 24,
            "midi": 76,
            "name": "E5",
            "ticks": 46050,
            "time": 184.2,
            "velocity": 0.6850393700787402
          },
          {
            "duration": 0.0800000000000125,
            "durationTicks": 20,
            "midi": 72,
            "name": "C5",
            "ticks": 46140,
            "time": 184.56,
            "velocity": 0.5905511811023622
          },
          {
            "duration": 0.07999999999998408,
            "durationTicks": 20,
            "midi": 72,
            "name": "C5",
            "ticks": 46170,
            "time": 184.68,
            "velocity": 0.5118110236220472
          },
          {
            "duration": 0.07600000000002183,
            "durationTicks": 19,
            "midi": 72,
            "name": "C5",
            "ticks": 46200,
            "time": 184.79999999999998,
            "velocity": 0.5118110236220472
          },
          {
            "duration": 0.0800000000000125,
            "durationTicks": 20,
            "midi": 72,
            "name": "C5",
            "ticks": 46230,
            "time": 184.92,
            "velocity": 0.4881889763779528
          },
          {
            "duration": 0.08400000000000318,
            "durationTicks": 21,
            "midi": 72,
            "name": "C5",
            "ticks": 46260,
            "time": 185.04,
            "velocity": 0.5118110236220472
          },
          {
            "duration": 0.09199999999998454,
            "durationTicks": 23,
            "midi": 72,
            "name": "C5",
            "ticks": 46290,
            "time": 185.16,
            "velocity": 0.5669291338582677
          },
          {
            "duration": 0.0719999999999743,
            "durationTicks": 18,
            "midi": 76,
            "name": "E5",
            "ticks": 46320,
            "time": 185.28,
            "velocity": 0.5826771653543307
          },
          {
            "duration": 0.09199999999998454,
            "durationTicks": 23,
            "midi": 76,
            "name": "E5",
            "ticks": 46350,
            "time": 185.4,
            "velocity": 0.5826771653543307
          },
          {
            "duration": 0.08400000000000318,
            "durationTicks": 21,
            "midi": 76,
            "name": "E5",
            "ticks": 46380,
            "time": 185.51999999999998,
            "velocity": 0.5118110236220472
          },
          {
            "duration": 0.0800000000000125,
            "durationTicks": 20,
            "midi": 76,
            "name": "E5",
            "ticks": 46410,
            "time": 185.64,
            "velocity": 0.5826771653543307
          },
          {
            "duration": 0.09999999999999432,
            "durationTicks": 25,
            "midi": 76,
            "name": "E5",
            "ticks": 46440,
            "time": 185.76,
            "velocity": 0.5118110236220472
          },
          {
            "duration": 0.06799999999998363,
            "durationTicks": 17,
            "midi": 76,
            "name": "E5",
            "ticks": 46470,
            "time": 185.88,
            "velocity": 0.47244094488188976
          },
          {
            "duration": 0.09199999999998454,
            "durationTicks": 23,
            "midi": 76,
            "name": "E5",
            "ticks": 46500,
            "time": 186,
            "velocity": 0.49606299212598426
          },
          {
            "duration": 0.09599999999997522,
            "durationTicks": 24,
            "midi": 76,
            "name": "E5",
            "ticks": 46530,
            "time": 186.12,
            "velocity": 0.6850393700787402
          },
          {
            "duration": 0.0800000000000125,
            "durationTicks": 20,
            "midi": 72,
            "name": "C5",
            "ticks": 46620,
            "time": 186.48,
            "velocity": 0.5905511811023622
          },
          {
            "duration": 0.0800000000000125,
            "durationTicks": 20,
            "midi": 72,
            "name": "C5",
            "ticks": 46650,
            "time": 186.6,
            "velocity": 0.5118110236220472
          },
          {
            "duration": 0.0759999999999934,
            "durationTicks": 19,
            "midi": 72,
            "name": "C5",
            "ticks": 46680,
            "time": 186.72,
            "velocity": 0.5118110236220472
          },
          {
            "duration": 0.0800000000000125,
            "durationTicks": 20,
            "midi": 72,
            "name": "C5",
            "ticks": 46710,
            "time": 186.84,
            "velocity": 0.4881889763779528
          },
          {
            "duration": 0.0840000000000316,
            "durationTicks": 21,
            "midi": 72,
            "name": "C5",
            "ticks": 46740,
            "time": 186.95999999999998,
            "velocity": 0.5118110236220472
          },
          {
            "duration": 0.09200000000001296,
            "durationTicks": 23,
            "midi": 72,
            "name": "C5",
            "ticks": 46770,
            "time": 187.07999999999998,
            "velocity": 0.5669291338582677
          },
          {
            "duration": 0.07200000000000273,
            "durationTicks": 18,
            "midi": 76,
            "name": "E5",
            "ticks": 46800,
            "time": 187.2,
            "velocity": 0.5826771653543307
          },
          {
            "duration": 0.09199999999998454,
            "durationTicks": 23,
            "midi": 76,
            "name": "E5",
            "ticks": 46830,
            "time": 187.32,
            "velocity": 0.5826771653543307
          },
          {
            "duration": 0.08400000000000318,
            "durationTicks": 21,
            "midi": 76,
            "name": "E5",
            "ticks": 46860,
            "time": 187.44,
            "velocity": 0.5118110236220472
          },
          {
            "duration": 0.0800000000000125,
            "durationTicks": 20,
            "midi": 76,
            "name": "E5",
            "ticks": 46890,
            "time": 187.56,
            "velocity": 0.5826771653543307
          },
          {
            "duration": 0.0999999999999659,
            "durationTicks": 25,
            "midi": 76,
            "name": "E5",
            "ticks": 46920,
            "time": 187.68,
            "velocity": 0.5118110236220472
          },
          {
            "duration": 0.06800000000001205,
            "durationTicks": 17,
            "midi": 76,
            "name": "E5",
            "ticks": 46950,
            "time": 187.79999999999998,
            "velocity": 0.47244094488188976
          },
          {
            "duration": 0.09200000000001296,
            "durationTicks": 23,
            "midi": 76,
            "name": "E5",
            "ticks": 46980,
            "time": 187.92,
            "velocity": 0.49606299212598426
          },
          {
            "duration": 0.09600000000000364,
            "durationTicks": 24,
            "midi": 76,
            "name": "E5",
            "ticks": 47010,
            "time": 188.04,
            "velocity": 0.6850393700787402
          },
          {
            "duration": 0.07999999999998408,
            "durationTicks": 20,
            "midi": 72,
            "name": "C5",
            "ticks": 47100,
            "time": 188.4,
            "velocity": 0.5905511811023622
          },
          {
            "duration": 0.0800000000000125,
            "durationTicks": 20,
            "midi": 72,
            "name": "C5",
            "ticks": 47130,
            "time": 188.51999999999998,
            "velocity": 0.5118110236220472
          },
          {
            "duration": 0.07600000000002183,
            "durationTicks": 19,
            "midi": 72,
            "name": "C5",
            "ticks": 47160,
            "time": 188.64,
            "velocity": 0.5118110236220472
          },
          {
            "duration": 0.0800000000000125,
            "durationTicks": 20,
            "midi": 72,
            "name": "C5",
            "ticks": 47190,
            "time": 188.76,
            "velocity": 0.4881889763779528
          },
          {
            "duration": 0.08400000000000318,
            "durationTicks": 21,
            "midi": 72,
            "name": "C5",
            "ticks": 47220,
            "time": 188.88,
            "velocity": 0.5118110236220472
          },
          {
            "duration": 0.09199999999998454,
            "durationTicks": 23,
            "midi": 72,
            "name": "C5",
            "ticks": 47250,
            "time": 189,
            "velocity": 0.5669291338582677
          },
          {
            "duration": 0.0719999999999743,
            "durationTicks": 18,
            "midi": 76,
            "name": "E5",
            "ticks": 47280,
            "time": 189.12,
            "velocity": 0.5826771653543307
          },
          {
            "duration": 0.09200000000001296,
            "durationTicks": 23,
            "midi": 76,
            "name": "E5",
            "ticks": 47310,
            "time": 189.23999999999998,
            "velocity": 0.5826771653543307
          },
          {
            "duration": 0.08400000000000318,
            "durationTicks": 21,
            "midi": 76,
            "name": "E5",
            "ticks": 47340,
            "time": 189.35999999999999,
            "velocity": 0.5118110236220472
          },
          {
            "duration": 0.0800000000000125,
            "durationTicks": 20,
            "midi": 76,
            "name": "E5",
            "ticks": 47370,
            "time": 189.48,
            "velocity": 0.5826771653543307
          },
          {
            "duration": 0.09999999999999432,
            "durationTicks": 25,
            "midi": 76,
            "name": "E5",
            "ticks": 47400,
            "time": 189.6,
            "velocity": 0.5118110236220472
          },
          {
            "duration": 0.06799999999998363,
            "durationTicks": 17,
            "midi": 76,
            "name": "E5",
            "ticks": 47430,
            "time": 189.72,
            "velocity": 0.47244094488188976
          },
          {
            "duration": 0.09199999999998454,
            "durationTicks": 23,
            "midi": 76,
            "name": "E5",
            "ticks": 47460,
            "time": 189.84,
            "velocity": 0.49606299212598426
          },
          {
            "duration": 0.09600000000000364,
            "durationTicks": 24,
            "midi": 76,
            "name": "E5",
            "ticks": 47490,
            "time": 189.95999999999998,
            "velocity": 0.6850393700787402
          },
          {
            "duration": 0.0800000000000125,
            "durationTicks": 20,
            "midi": 72,
            "name": "C5",
            "ticks": 47580,
            "time": 190.32,
            "velocity": 0.5905511811023622
          },
          {
            "duration": 0.0800000000000125,
            "durationTicks": 20,
            "midi": 72,
            "name": "C5",
            "ticks": 47610,
            "time": 190.44,
            "velocity": 0.5118110236220472
          },
          {
            "duration": 0.0759999999999934,
            "durationTicks": 19,
            "midi": 72,
            "name": "C5",
            "ticks": 47640,
            "time": 190.56,
            "velocity": 0.5118110236220472
          },
          {
            "duration": 0.07999999999998408,
            "durationTicks": 20,
            "midi": 72,
            "name": "C5",
            "ticks": 47670,
            "time": 190.68,
            "velocity": 0.4881889763779528
          },
          {
            "duration": 0.08400000000000318,
            "durationTicks": 21,
            "midi": 72,
            "name": "C5",
            "ticks": 47700,
            "time": 190.79999999999998,
            "velocity": 0.5118110236220472
          },
          {
            "duration": 0.09200000000001296,
            "durationTicks": 23,
            "midi": 72,
            "name": "C5",
            "ticks": 47730,
            "time": 190.92,
            "velocity": 0.5669291338582677
          },
          {
            "duration": 0.07200000000000273,
            "durationTicks": 18,
            "midi": 76,
            "name": "E5",
            "ticks": 47760,
            "time": 191.04,
            "velocity": 0.5826771653543307
          },
          {
            "duration": 0.09199999999998454,
            "durationTicks": 23,
            "midi": 76,
            "name": "E5",
            "ticks": 47790,
            "time": 191.16,
            "velocity": 0.5826771653543307
          },
          {
            "duration": 0.08400000000000318,
            "durationTicks": 21,
            "midi": 76,
            "name": "E5",
            "ticks": 47820,
            "time": 191.28,
            "velocity": 0.5118110236220472
          },
          {
            "duration": 0.07999999999998408,
            "durationTicks": 20,
            "midi": 76,
            "name": "E5",
            "ticks": 47850,
            "time": 191.4,
            "velocity": 0.5826771653543307
          },
          {
            "duration": 0.09999999999999432,
            "durationTicks": 25,
            "midi": 76,
            "name": "E5",
            "ticks": 47880,
            "time": 191.51999999999998,
            "velocity": 0.5118110236220472
          },
          {
            "duration": 0.06800000000001205,
            "durationTicks": 17,
            "midi": 76,
            "name": "E5",
            "ticks": 47910,
            "time": 191.64,
            "velocity": 0.47244094488188976
          },
          {
            "duration": 0.09200000000001296,
            "durationTicks": 23,
            "midi": 76,
            "name": "E5",
            "ticks": 47940,
            "time": 191.76,
            "velocity": 0.49606299212598426
          },
          {
            "duration": 0.09600000000000364,
            "durationTicks": 24,
            "midi": 76,
            "name": "E5",
            "ticks": 47970,
            "time": 191.88,
            "velocity": 0.6850393700787402
          }
        ],
        "endOfTrackTicks": 47994
      }
    ]
  }